<?xml version="1.0" encoding="utf-8" standalone="no"?>
<!DOCTYPE svg PUBLIC "-//W3C//DTD SVG 1.1//EN"
  "http://www.w3.org/Graphics/SVG/1.1/DTD/svg11.dtd">
<!-- Created with matplotlib (https://matplotlib.org/) -->
<svg height="505.1815pt" version="1.1" viewBox="0 0 788.011875 505.1815" width="788.011875pt" xmlns="http://www.w3.org/2000/svg" xmlns:xlink="http://www.w3.org/1999/xlink">
 <metadata>
  <rdf:RDF xmlns:cc="http://creativecommons.org/ns#" xmlns:dc="http://purl.org/dc/elements/1.1/" xmlns:rdf="http://www.w3.org/1999/02/22-rdf-syntax-ns#">
   <cc:Work>
    <dc:type rdf:resource="http://purl.org/dc/dcmitype/StillImage"/>
    <dc:date>2021-03-25T12:56:29.260018</dc:date>
    <dc:format>image/svg+xml</dc:format>
    <dc:creator>
     <cc:Agent>
      <dc:title>Matplotlib v3.3.4, https://matplotlib.org/</dc:title>
     </cc:Agent>
    </dc:creator>
   </cc:Work>
  </rdf:RDF>
 </metadata>
 <defs>
  <style type="text/css">*{stroke-linecap:butt;stroke-linejoin:round;}</style>
 </defs>
 <g id="figure_1">
  <g id="patch_1">
   <path d="M 0 505.1815
L 788.011875 505.1815
L 788.011875 0
L 0 0
z
" style="fill:none;"/>
  </g>
  <g id="axes_1">
   <g id="patch_2">
    <path d="M 43.636875 470.954
L 601.636875 470.954
L 601.636875 36.074
L 43.636875 36.074
z
" style="fill:none;"/>
   </g>
   <g id="matplotlib.axis_1">
    <g id="xtick_1">
     <g id="line2d_1">
      <path clip-path="url(#p7790f86349)" d="M 61.314561 470.954
L 61.314561 36.074
" style="fill:none;stroke:#cccccc;stroke-linecap:round;stroke-width:0.8;"/>
     </g>
     <g id="text_1">
      <!-- 40 -->
      <g style="fill:#262626;" transform="translate(54.952061 485.552437)scale(0.1 -0.1)">
       <defs>
        <path d="M 37.796875 64.3125
L 12.890625 25.390625
L 37.796875 25.390625
z
M 35.203125 72.90625
L 47.609375 72.90625
L 47.609375 25.390625
L 58.015625 25.390625
L 58.015625 17.1875
L 47.609375 17.1875
L 47.609375 0
L 37.796875 0
L 37.796875 17.1875
L 4.890625 17.1875
L 4.890625 26.703125
z
" id="DejaVuSans-52"/>
        <path d="M 31.78125 66.40625
Q 24.171875 66.40625 20.328125 58.90625
Q 16.5 51.421875 16.5 36.375
Q 16.5 21.390625 20.328125 13.890625
Q 24.171875 6.390625 31.78125 6.390625
Q 39.453125 6.390625 43.28125 13.890625
Q 47.125 21.390625 47.125 36.375
Q 47.125 51.421875 43.28125 58.90625
Q 39.453125 66.40625 31.78125 66.40625
z
M 31.78125 74.21875
Q 44.046875 74.21875 50.515625 64.515625
Q 56.984375 54.828125 56.984375 36.375
Q 56.984375 17.96875 50.515625 8.265625
Q 44.046875 -1.421875 31.78125 -1.421875
Q 19.53125 -1.421875 13.0625 8.265625
Q 6.59375 17.96875 6.59375 36.375
Q 6.59375 54.828125 13.0625 64.515625
Q 19.53125 74.21875 31.78125 74.21875
z
" id="DejaVuSans-48"/>
       </defs>
       <use xlink:href="#DejaVuSans-52"/>
       <use x="63.623047" xlink:href="#DejaVuSans-48"/>
      </g>
     </g>
    </g>
    <g id="xtick_2">
     <g id="line2d_2">
      <path clip-path="url(#p7790f86349)" d="M 138.174065 470.954
L 138.174065 36.074
" style="fill:none;stroke:#cccccc;stroke-linecap:round;stroke-width:0.8;"/>
     </g>
     <g id="text_2">
      <!-- 60 -->
      <g style="fill:#262626;" transform="translate(131.811565 485.552437)scale(0.1 -0.1)">
       <defs>
        <path d="M 33.015625 40.375
Q 26.375 40.375 22.484375 35.828125
Q 18.609375 31.296875 18.609375 23.390625
Q 18.609375 15.53125 22.484375 10.953125
Q 26.375 6.390625 33.015625 6.390625
Q 39.65625 6.390625 43.53125 10.953125
Q 47.40625 15.53125 47.40625 23.390625
Q 47.40625 31.296875 43.53125 35.828125
Q 39.65625 40.375 33.015625 40.375
z
M 52.59375 71.296875
L 52.59375 62.3125
Q 48.875 64.0625 45.09375 64.984375
Q 41.3125 65.921875 37.59375 65.921875
Q 27.828125 65.921875 22.671875 59.328125
Q 17.53125 52.734375 16.796875 39.40625
Q 19.671875 43.65625 24.015625 45.921875
Q 28.375 48.1875 33.59375 48.1875
Q 44.578125 48.1875 50.953125 41.515625
Q 57.328125 34.859375 57.328125 23.390625
Q 57.328125 12.15625 50.6875 5.359375
Q 44.046875 -1.421875 33.015625 -1.421875
Q 20.359375 -1.421875 13.671875 8.265625
Q 6.984375 17.96875 6.984375 36.375
Q 6.984375 53.65625 15.1875 63.9375
Q 23.390625 74.21875 37.203125 74.21875
Q 40.921875 74.21875 44.703125 73.484375
Q 48.484375 72.75 52.59375 71.296875
z
" id="DejaVuSans-54"/>
       </defs>
       <use xlink:href="#DejaVuSans-54"/>
       <use x="63.623047" xlink:href="#DejaVuSans-48"/>
      </g>
     </g>
    </g>
    <g id="xtick_3">
     <g id="line2d_3">
      <path clip-path="url(#p7790f86349)" d="M 215.033569 470.954
L 215.033569 36.074
" style="fill:none;stroke:#cccccc;stroke-linecap:round;stroke-width:0.8;"/>
     </g>
     <g id="text_3">
      <!-- 80 -->
      <g style="fill:#262626;" transform="translate(208.671069 485.552437)scale(0.1 -0.1)">
       <defs>
        <path d="M 31.78125 34.625
Q 24.75 34.625 20.71875 30.859375
Q 16.703125 27.09375 16.703125 20.515625
Q 16.703125 13.921875 20.71875 10.15625
Q 24.75 6.390625 31.78125 6.390625
Q 38.8125 6.390625 42.859375 10.171875
Q 46.921875 13.96875 46.921875 20.515625
Q 46.921875 27.09375 42.890625 30.859375
Q 38.875 34.625 31.78125 34.625
z
M 21.921875 38.8125
Q 15.578125 40.375 12.03125 44.71875
Q 8.5 49.078125 8.5 55.328125
Q 8.5 64.0625 14.71875 69.140625
Q 20.953125 74.21875 31.78125 74.21875
Q 42.671875 74.21875 48.875 69.140625
Q 55.078125 64.0625 55.078125 55.328125
Q 55.078125 49.078125 51.53125 44.71875
Q 48 40.375 41.703125 38.8125
Q 48.828125 37.15625 52.796875 32.3125
Q 56.78125 27.484375 56.78125 20.515625
Q 56.78125 9.90625 50.3125 4.234375
Q 43.84375 -1.421875 31.78125 -1.421875
Q 19.734375 -1.421875 13.25 4.234375
Q 6.78125 9.90625 6.78125 20.515625
Q 6.78125 27.484375 10.78125 32.3125
Q 14.796875 37.15625 21.921875 38.8125
z
M 18.3125 54.390625
Q 18.3125 48.734375 21.84375 45.5625
Q 25.390625 42.390625 31.78125 42.390625
Q 38.140625 42.390625 41.71875 45.5625
Q 45.3125 48.734375 45.3125 54.390625
Q 45.3125 60.0625 41.71875 63.234375
Q 38.140625 66.40625 31.78125 66.40625
Q 25.390625 66.40625 21.84375 63.234375
Q 18.3125 60.0625 18.3125 54.390625
z
" id="DejaVuSans-56"/>
       </defs>
       <use xlink:href="#DejaVuSans-56"/>
       <use x="63.623047" xlink:href="#DejaVuSans-48"/>
      </g>
     </g>
    </g>
    <g id="xtick_4">
     <g id="line2d_4">
      <path clip-path="url(#p7790f86349)" d="M 291.893073 470.954
L 291.893073 36.074
" style="fill:none;stroke:#cccccc;stroke-linecap:round;stroke-width:0.8;"/>
     </g>
     <g id="text_4">
      <!-- 100 -->
      <g style="fill:#262626;" transform="translate(282.349323 485.552437)scale(0.1 -0.1)">
       <defs>
        <path d="M 12.40625 8.296875
L 28.515625 8.296875
L 28.515625 63.921875
L 10.984375 60.40625
L 10.984375 69.390625
L 28.421875 72.90625
L 38.28125 72.90625
L 38.28125 8.296875
L 54.390625 8.296875
L 54.390625 0
L 12.40625 0
z
" id="DejaVuSans-49"/>
       </defs>
       <use xlink:href="#DejaVuSans-49"/>
       <use x="63.623047" xlink:href="#DejaVuSans-48"/>
       <use x="127.246094" xlink:href="#DejaVuSans-48"/>
      </g>
     </g>
    </g>
    <g id="xtick_5">
     <g id="line2d_5">
      <path clip-path="url(#p7790f86349)" d="M 368.752577 470.954
L 368.752577 36.074
" style="fill:none;stroke:#cccccc;stroke-linecap:round;stroke-width:0.8;"/>
     </g>
     <g id="text_5">
      <!-- 120 -->
      <g style="fill:#262626;" transform="translate(359.208827 485.552437)scale(0.1 -0.1)">
       <defs>
        <path d="M 19.1875 8.296875
L 53.609375 8.296875
L 53.609375 0
L 7.328125 0
L 7.328125 8.296875
Q 12.9375 14.109375 22.625 23.890625
Q 32.328125 33.6875 34.8125 36.53125
Q 39.546875 41.84375 41.421875 45.53125
Q 43.3125 49.21875 43.3125 52.78125
Q 43.3125 58.59375 39.234375 62.25
Q 35.15625 65.921875 28.609375 65.921875
Q 23.96875 65.921875 18.8125 64.3125
Q 13.671875 62.703125 7.8125 59.421875
L 7.8125 69.390625
Q 13.765625 71.78125 18.9375 73
Q 24.125 74.21875 28.421875 74.21875
Q 39.75 74.21875 46.484375 68.546875
Q 53.21875 62.890625 53.21875 53.421875
Q 53.21875 48.921875 51.53125 44.890625
Q 49.859375 40.875 45.40625 35.40625
Q 44.1875 33.984375 37.640625 27.21875
Q 31.109375 20.453125 19.1875 8.296875
z
" id="DejaVuSans-50"/>
       </defs>
       <use xlink:href="#DejaVuSans-49"/>
       <use x="63.623047" xlink:href="#DejaVuSans-50"/>
       <use x="127.246094" xlink:href="#DejaVuSans-48"/>
      </g>
     </g>
    </g>
    <g id="xtick_6">
     <g id="line2d_6">
      <path clip-path="url(#p7790f86349)" d="M 445.612082 470.954
L 445.612082 36.074
" style="fill:none;stroke:#cccccc;stroke-linecap:round;stroke-width:0.8;"/>
     </g>
     <g id="text_6">
      <!-- 140 -->
      <g style="fill:#262626;" transform="translate(436.068332 485.552437)scale(0.1 -0.1)">
       <use xlink:href="#DejaVuSans-49"/>
       <use x="63.623047" xlink:href="#DejaVuSans-52"/>
       <use x="127.246094" xlink:href="#DejaVuSans-48"/>
      </g>
     </g>
    </g>
    <g id="xtick_7">
     <g id="line2d_7">
      <path clip-path="url(#p7790f86349)" d="M 522.471586 470.954
L 522.471586 36.074
" style="fill:none;stroke:#cccccc;stroke-linecap:round;stroke-width:0.8;"/>
     </g>
     <g id="text_7">
      <!-- 160 -->
      <g style="fill:#262626;" transform="translate(512.927836 485.552437)scale(0.1 -0.1)">
       <use xlink:href="#DejaVuSans-49"/>
       <use x="63.623047" xlink:href="#DejaVuSans-54"/>
       <use x="127.246094" xlink:href="#DejaVuSans-48"/>
      </g>
     </g>
    </g>
    <g id="xtick_8">
     <g id="line2d_8">
      <path clip-path="url(#p7790f86349)" d="M 599.33109 470.954
L 599.33109 36.074
" style="fill:none;stroke:#cccccc;stroke-linecap:round;stroke-width:0.8;"/>
     </g>
     <g id="text_8">
      <!-- 180 -->
      <g style="fill:#262626;" transform="translate(589.78734 485.552437)scale(0.1 -0.1)">
       <use xlink:href="#DejaVuSans-49"/>
       <use x="63.623047" xlink:href="#DejaVuSans-56"/>
       <use x="127.246094" xlink:href="#DejaVuSans-48"/>
      </g>
     </g>
    </g>
    <g id="text_9">
     <!-- Number of communities with selected genes -->
     <g style="fill:#262626;" transform="translate(165.87625 502.269937)scale(0.14 -0.14)">
      <defs>
       <path d="M 9.8125 72.90625
L 23.09375 72.90625
L 55.421875 11.921875
L 55.421875 72.90625
L 64.984375 72.90625
L 64.984375 0
L 51.703125 0
L 19.390625 60.984375
L 19.390625 0
L 9.8125 0
z
" id="DejaVuSans-78"/>
       <path d="M 8.5 21.578125
L 8.5 54.6875
L 17.484375 54.6875
L 17.484375 21.921875
Q 17.484375 14.15625 20.5 10.265625
Q 23.53125 6.390625 29.59375 6.390625
Q 36.859375 6.390625 41.078125 11.03125
Q 45.3125 15.671875 45.3125 23.6875
L 45.3125 54.6875
L 54.296875 54.6875
L 54.296875 0
L 45.3125 0
L 45.3125 8.40625
Q 42.046875 3.421875 37.71875 1
Q 33.40625 -1.421875 27.6875 -1.421875
Q 18.265625 -1.421875 13.375 4.4375
Q 8.5 10.296875 8.5 21.578125
z
M 31.109375 56
z
" id="DejaVuSans-117"/>
       <path d="M 52 44.1875
Q 55.375 50.25 60.0625 53.125
Q 64.75 56 71.09375 56
Q 79.640625 56 84.28125 50.015625
Q 88.921875 44.046875 88.921875 33.015625
L 88.921875 0
L 79.890625 0
L 79.890625 32.71875
Q 79.890625 40.578125 77.09375 44.375
Q 74.3125 48.1875 68.609375 48.1875
Q 61.625 48.1875 57.5625 43.546875
Q 53.515625 38.921875 53.515625 30.90625
L 53.515625 0
L 44.484375 0
L 44.484375 32.71875
Q 44.484375 40.625 41.703125 44.40625
Q 38.921875 48.1875 33.109375 48.1875
Q 26.21875 48.1875 22.15625 43.53125
Q 18.109375 38.875 18.109375 30.90625
L 18.109375 0
L 9.078125 0
L 9.078125 54.6875
L 18.109375 54.6875
L 18.109375 46.1875
Q 21.1875 51.21875 25.484375 53.609375
Q 29.78125 56 35.6875 56
Q 41.65625 56 45.828125 52.96875
Q 50 49.953125 52 44.1875
z
" id="DejaVuSans-109"/>
       <path d="M 48.6875 27.296875
Q 48.6875 37.203125 44.609375 42.84375
Q 40.53125 48.484375 33.40625 48.484375
Q 26.265625 48.484375 22.1875 42.84375
Q 18.109375 37.203125 18.109375 27.296875
Q 18.109375 17.390625 22.1875 11.75
Q 26.265625 6.109375 33.40625 6.109375
Q 40.53125 6.109375 44.609375 11.75
Q 48.6875 17.390625 48.6875 27.296875
z
M 18.109375 46.390625
Q 20.953125 51.265625 25.265625 53.625
Q 29.59375 56 35.59375 56
Q 45.5625 56 51.78125 48.09375
Q 58.015625 40.1875 58.015625 27.296875
Q 58.015625 14.40625 51.78125 6.484375
Q 45.5625 -1.421875 35.59375 -1.421875
Q 29.59375 -1.421875 25.265625 0.953125
Q 20.953125 3.328125 18.109375 8.203125
L 18.109375 0
L 9.078125 0
L 9.078125 75.984375
L 18.109375 75.984375
z
" id="DejaVuSans-98"/>
       <path d="M 56.203125 29.59375
L 56.203125 25.203125
L 14.890625 25.203125
Q 15.484375 15.921875 20.484375 11.0625
Q 25.484375 6.203125 34.421875 6.203125
Q 39.59375 6.203125 44.453125 7.46875
Q 49.3125 8.734375 54.109375 11.28125
L 54.109375 2.78125
Q 49.265625 0.734375 44.1875 -0.34375
Q 39.109375 -1.421875 33.890625 -1.421875
Q 20.796875 -1.421875 13.15625 6.1875
Q 5.515625 13.8125 5.515625 26.8125
Q 5.515625 40.234375 12.765625 48.109375
Q 20.015625 56 32.328125 56
Q 43.359375 56 49.78125 48.890625
Q 56.203125 41.796875 56.203125 29.59375
z
M 47.21875 32.234375
Q 47.125 39.59375 43.09375 43.984375
Q 39.0625 48.390625 32.421875 48.390625
Q 24.90625 48.390625 20.390625 44.140625
Q 15.875 39.890625 15.1875 32.171875
z
" id="DejaVuSans-101"/>
       <path d="M 41.109375 46.296875
Q 39.59375 47.171875 37.8125 47.578125
Q 36.03125 48 33.890625 48
Q 26.265625 48 22.1875 43.046875
Q 18.109375 38.09375 18.109375 28.8125
L 18.109375 0
L 9.078125 0
L 9.078125 54.6875
L 18.109375 54.6875
L 18.109375 46.1875
Q 20.953125 51.171875 25.484375 53.578125
Q 30.03125 56 36.53125 56
Q 37.453125 56 38.578125 55.875
Q 39.703125 55.765625 41.0625 55.515625
z
" id="DejaVuSans-114"/>
       <path id="DejaVuSans-32"/>
       <path d="M 30.609375 48.390625
Q 23.390625 48.390625 19.1875 42.75
Q 14.984375 37.109375 14.984375 27.296875
Q 14.984375 17.484375 19.15625 11.84375
Q 23.34375 6.203125 30.609375 6.203125
Q 37.796875 6.203125 41.984375 11.859375
Q 46.1875 17.53125 46.1875 27.296875
Q 46.1875 37.015625 41.984375 42.703125
Q 37.796875 48.390625 30.609375 48.390625
z
M 30.609375 56
Q 42.328125 56 49.015625 48.375
Q 55.71875 40.765625 55.71875 27.296875
Q 55.71875 13.875 49.015625 6.21875
Q 42.328125 -1.421875 30.609375 -1.421875
Q 18.84375 -1.421875 12.171875 6.21875
Q 5.515625 13.875 5.515625 27.296875
Q 5.515625 40.765625 12.171875 48.375
Q 18.84375 56 30.609375 56
z
" id="DejaVuSans-111"/>
       <path d="M 37.109375 75.984375
L 37.109375 68.5
L 28.515625 68.5
Q 23.6875 68.5 21.796875 66.546875
Q 19.921875 64.59375 19.921875 59.515625
L 19.921875 54.6875
L 34.71875 54.6875
L 34.71875 47.703125
L 19.921875 47.703125
L 19.921875 0
L 10.890625 0
L 10.890625 47.703125
L 2.296875 47.703125
L 2.296875 54.6875
L 10.890625 54.6875
L 10.890625 58.5
Q 10.890625 67.625 15.140625 71.796875
Q 19.390625 75.984375 28.609375 75.984375
z
" id="DejaVuSans-102"/>
       <path d="M 48.78125 52.59375
L 48.78125 44.1875
Q 44.96875 46.296875 41.140625 47.34375
Q 37.3125 48.390625 33.40625 48.390625
Q 24.65625 48.390625 19.8125 42.84375
Q 14.984375 37.3125 14.984375 27.296875
Q 14.984375 17.28125 19.8125 11.734375
Q 24.65625 6.203125 33.40625 6.203125
Q 37.3125 6.203125 41.140625 7.25
Q 44.96875 8.296875 48.78125 10.40625
L 48.78125 2.09375
Q 45.015625 0.34375 40.984375 -0.53125
Q 36.96875 -1.421875 32.421875 -1.421875
Q 20.0625 -1.421875 12.78125 6.34375
Q 5.515625 14.109375 5.515625 27.296875
Q 5.515625 40.671875 12.859375 48.328125
Q 20.21875 56 33.015625 56
Q 37.15625 56 41.109375 55.140625
Q 45.0625 54.296875 48.78125 52.59375
z
" id="DejaVuSans-99"/>
       <path d="M 54.890625 33.015625
L 54.890625 0
L 45.90625 0
L 45.90625 32.71875
Q 45.90625 40.484375 42.875 44.328125
Q 39.84375 48.1875 33.796875 48.1875
Q 26.515625 48.1875 22.3125 43.546875
Q 18.109375 38.921875 18.109375 30.90625
L 18.109375 0
L 9.078125 0
L 9.078125 54.6875
L 18.109375 54.6875
L 18.109375 46.1875
Q 21.34375 51.125 25.703125 53.5625
Q 30.078125 56 35.796875 56
Q 45.21875 56 50.046875 50.171875
Q 54.890625 44.34375 54.890625 33.015625
z
" id="DejaVuSans-110"/>
       <path d="M 9.421875 54.6875
L 18.40625 54.6875
L 18.40625 0
L 9.421875 0
z
M 9.421875 75.984375
L 18.40625 75.984375
L 18.40625 64.59375
L 9.421875 64.59375
z
" id="DejaVuSans-105"/>
       <path d="M 18.3125 70.21875
L 18.3125 54.6875
L 36.8125 54.6875
L 36.8125 47.703125
L 18.3125 47.703125
L 18.3125 18.015625
Q 18.3125 11.328125 20.140625 9.421875
Q 21.96875 7.515625 27.59375 7.515625
L 36.8125 7.515625
L 36.8125 0
L 27.59375 0
Q 17.1875 0 13.234375 3.875
Q 9.28125 7.765625 9.28125 18.015625
L 9.28125 47.703125
L 2.6875 47.703125
L 2.6875 54.6875
L 9.28125 54.6875
L 9.28125 70.21875
z
" id="DejaVuSans-116"/>
       <path d="M 44.28125 53.078125
L 44.28125 44.578125
Q 40.484375 46.53125 36.375 47.5
Q 32.28125 48.484375 27.875 48.484375
Q 21.1875 48.484375 17.84375 46.4375
Q 14.5 44.390625 14.5 40.28125
Q 14.5 37.15625 16.890625 35.375
Q 19.28125 33.59375 26.515625 31.984375
L 29.59375 31.296875
Q 39.15625 29.25 43.1875 25.515625
Q 47.21875 21.78125 47.21875 15.09375
Q 47.21875 7.46875 41.1875 3.015625
Q 35.15625 -1.421875 24.609375 -1.421875
Q 20.21875 -1.421875 15.453125 -0.5625
Q 10.6875 0.296875 5.421875 2
L 5.421875 11.28125
Q 10.40625 8.6875 15.234375 7.390625
Q 20.0625 6.109375 24.8125 6.109375
Q 31.15625 6.109375 34.5625 8.28125
Q 37.984375 10.453125 37.984375 14.40625
Q 37.984375 18.0625 35.515625 20.015625
Q 33.0625 21.96875 24.703125 23.78125
L 21.578125 24.515625
Q 13.234375 26.265625 9.515625 29.90625
Q 5.8125 33.546875 5.8125 39.890625
Q 5.8125 47.609375 11.28125 51.796875
Q 16.75 56 26.8125 56
Q 31.78125 56 36.171875 55.265625
Q 40.578125 54.546875 44.28125 53.078125
z
" id="DejaVuSans-115"/>
       <path d="M 4.203125 54.6875
L 13.1875 54.6875
L 24.421875 12.015625
L 35.59375 54.6875
L 46.1875 54.6875
L 57.421875 12.015625
L 68.609375 54.6875
L 77.59375 54.6875
L 63.28125 0
L 52.6875 0
L 40.921875 44.828125
L 29.109375 0
L 18.5 0
z
" id="DejaVuSans-119"/>
       <path d="M 54.890625 33.015625
L 54.890625 0
L 45.90625 0
L 45.90625 32.71875
Q 45.90625 40.484375 42.875 44.328125
Q 39.84375 48.1875 33.796875 48.1875
Q 26.515625 48.1875 22.3125 43.546875
Q 18.109375 38.921875 18.109375 30.90625
L 18.109375 0
L 9.078125 0
L 9.078125 75.984375
L 18.109375 75.984375
L 18.109375 46.1875
Q 21.34375 51.125 25.703125 53.5625
Q 30.078125 56 35.796875 56
Q 45.21875 56 50.046875 50.171875
Q 54.890625 44.34375 54.890625 33.015625
z
" id="DejaVuSans-104"/>
       <path d="M 9.421875 75.984375
L 18.40625 75.984375
L 18.40625 0
L 9.421875 0
z
" id="DejaVuSans-108"/>
       <path d="M 45.40625 46.390625
L 45.40625 75.984375
L 54.390625 75.984375
L 54.390625 0
L 45.40625 0
L 45.40625 8.203125
Q 42.578125 3.328125 38.25 0.953125
Q 33.9375 -1.421875 27.875 -1.421875
Q 17.96875 -1.421875 11.734375 6.484375
Q 5.515625 14.40625 5.515625 27.296875
Q 5.515625 40.1875 11.734375 48.09375
Q 17.96875 56 27.875 56
Q 33.9375 56 38.25 53.625
Q 42.578125 51.265625 45.40625 46.390625
z
M 14.796875 27.296875
Q 14.796875 17.390625 18.875 11.75
Q 22.953125 6.109375 30.078125 6.109375
Q 37.203125 6.109375 41.296875 11.75
Q 45.40625 17.390625 45.40625 27.296875
Q 45.40625 37.203125 41.296875 42.84375
Q 37.203125 48.484375 30.078125 48.484375
Q 22.953125 48.484375 18.875 42.84375
Q 14.796875 37.203125 14.796875 27.296875
z
" id="DejaVuSans-100"/>
       <path d="M 45.40625 27.984375
Q 45.40625 37.75 41.375 43.109375
Q 37.359375 48.484375 30.078125 48.484375
Q 22.859375 48.484375 18.828125 43.109375
Q 14.796875 37.75 14.796875 27.984375
Q 14.796875 18.265625 18.828125 12.890625
Q 22.859375 7.515625 30.078125 7.515625
Q 37.359375 7.515625 41.375 12.890625
Q 45.40625 18.265625 45.40625 27.984375
z
M 54.390625 6.78125
Q 54.390625 -7.171875 48.1875 -13.984375
Q 42 -20.796875 29.203125 -20.796875
Q 24.46875 -20.796875 20.265625 -20.09375
Q 16.0625 -19.390625 12.109375 -17.921875
L 12.109375 -9.1875
Q 16.0625 -11.328125 19.921875 -12.34375
Q 23.78125 -13.375 27.78125 -13.375
Q 36.625 -13.375 41.015625 -8.765625
Q 45.40625 -4.15625 45.40625 5.171875
L 45.40625 9.625
Q 42.625 4.78125 38.28125 2.390625
Q 33.9375 0 27.875 0
Q 17.828125 0 11.671875 7.65625
Q 5.515625 15.328125 5.515625 27.984375
Q 5.515625 40.671875 11.671875 48.328125
Q 17.828125 56 27.875 56
Q 33.9375 56 38.28125 53.609375
Q 42.625 51.21875 45.40625 46.390625
L 45.40625 54.6875
L 54.390625 54.6875
z
" id="DejaVuSans-103"/>
      </defs>
      <use xlink:href="#DejaVuSans-78"/>
      <use x="74.804688" xlink:href="#DejaVuSans-117"/>
      <use x="138.183594" xlink:href="#DejaVuSans-109"/>
      <use x="235.595703" xlink:href="#DejaVuSans-98"/>
      <use x="299.072266" xlink:href="#DejaVuSans-101"/>
      <use x="360.595703" xlink:href="#DejaVuSans-114"/>
      <use x="401.708984" xlink:href="#DejaVuSans-32"/>
      <use x="433.496094" xlink:href="#DejaVuSans-111"/>
      <use x="494.677734" xlink:href="#DejaVuSans-102"/>
      <use x="529.882812" xlink:href="#DejaVuSans-32"/>
      <use x="561.669922" xlink:href="#DejaVuSans-99"/>
      <use x="616.650391" xlink:href="#DejaVuSans-111"/>
      <use x="677.832031" xlink:href="#DejaVuSans-109"/>
      <use x="775.244141" xlink:href="#DejaVuSans-109"/>
      <use x="872.65625" xlink:href="#DejaVuSans-117"/>
      <use x="936.035156" xlink:href="#DejaVuSans-110"/>
      <use x="999.414062" xlink:href="#DejaVuSans-105"/>
      <use x="1027.197266" xlink:href="#DejaVuSans-116"/>
      <use x="1066.40625" xlink:href="#DejaVuSans-105"/>
      <use x="1094.189453" xlink:href="#DejaVuSans-101"/>
      <use x="1155.712891" xlink:href="#DejaVuSans-115"/>
      <use x="1207.8125" xlink:href="#DejaVuSans-32"/>
      <use x="1239.599609" xlink:href="#DejaVuSans-119"/>
      <use x="1321.386719" xlink:href="#DejaVuSans-105"/>
      <use x="1349.169922" xlink:href="#DejaVuSans-116"/>
      <use x="1388.378906" xlink:href="#DejaVuSans-104"/>
      <use x="1451.757812" xlink:href="#DejaVuSans-32"/>
      <use x="1483.544922" xlink:href="#DejaVuSans-115"/>
      <use x="1535.644531" xlink:href="#DejaVuSans-101"/>
      <use x="1597.167969" xlink:href="#DejaVuSans-108"/>
      <use x="1624.951172" xlink:href="#DejaVuSans-101"/>
      <use x="1686.474609" xlink:href="#DejaVuSans-99"/>
      <use x="1741.455078" xlink:href="#DejaVuSans-116"/>
      <use x="1780.664062" xlink:href="#DejaVuSans-101"/>
      <use x="1842.1875" xlink:href="#DejaVuSans-100"/>
      <use x="1905.664062" xlink:href="#DejaVuSans-32"/>
      <use x="1937.451172" xlink:href="#DejaVuSans-103"/>
      <use x="2000.927734" xlink:href="#DejaVuSans-101"/>
      <use x="2062.451172" xlink:href="#DejaVuSans-110"/>
      <use x="2125.830078" xlink:href="#DejaVuSans-101"/>
      <use x="2187.353516" xlink:href="#DejaVuSans-115"/>
     </g>
    </g>
   </g>
   <g id="matplotlib.axis_2">
    <g id="ytick_1">
     <g id="line2d_9">
      <path clip-path="url(#p7790f86349)" d="M 43.636875 470.954
L 601.636875 470.954
" style="fill:none;stroke:#cccccc;stroke-linecap:round;stroke-width:0.8;"/>
     </g>
     <g id="text_10">
      <!-- 0 -->
      <g style="fill:#262626;" transform="translate(30.274375 474.753219)scale(0.1 -0.1)">
       <use xlink:href="#DejaVuSans-48"/>
      </g>
     </g>
    </g>
    <g id="ytick_2">
     <g id="line2d_10">
      <path clip-path="url(#p7790f86349)" d="M 43.636875 420.445289
L 601.636875 420.445289
" style="fill:none;stroke:#cccccc;stroke-linecap:round;stroke-width:0.8;"/>
     </g>
     <g id="text_11">
      <!-- 20 -->
      <g style="fill:#262626;" transform="translate(23.911875 424.244508)scale(0.1 -0.1)">
       <use xlink:href="#DejaVuSans-50"/>
       <use x="63.623047" xlink:href="#DejaVuSans-48"/>
      </g>
     </g>
    </g>
    <g id="ytick_3">
     <g id="line2d_11">
      <path clip-path="url(#p7790f86349)" d="M 43.636875 369.936578
L 601.636875 369.936578
" style="fill:none;stroke:#cccccc;stroke-linecap:round;stroke-width:0.8;"/>
     </g>
     <g id="text_12">
      <!-- 40 -->
      <g style="fill:#262626;" transform="translate(23.911875 373.735797)scale(0.1 -0.1)">
       <use xlink:href="#DejaVuSans-52"/>
       <use x="63.623047" xlink:href="#DejaVuSans-48"/>
      </g>
     </g>
    </g>
    <g id="ytick_4">
     <g id="line2d_12">
      <path clip-path="url(#p7790f86349)" d="M 43.636875 319.427868
L 601.636875 319.427868
" style="fill:none;stroke:#cccccc;stroke-linecap:round;stroke-width:0.8;"/>
     </g>
     <g id="text_13">
      <!-- 60 -->
      <g style="fill:#262626;" transform="translate(23.911875 323.227086)scale(0.1 -0.1)">
       <use xlink:href="#DejaVuSans-54"/>
       <use x="63.623047" xlink:href="#DejaVuSans-48"/>
      </g>
     </g>
    </g>
    <g id="ytick_5">
     <g id="line2d_13">
      <path clip-path="url(#p7790f86349)" d="M 43.636875 268.919157
L 601.636875 268.919157
" style="fill:none;stroke:#cccccc;stroke-linecap:round;stroke-width:0.8;"/>
     </g>
     <g id="text_14">
      <!-- 80 -->
      <g style="fill:#262626;" transform="translate(23.911875 272.718376)scale(0.1 -0.1)">
       <use xlink:href="#DejaVuSans-56"/>
       <use x="63.623047" xlink:href="#DejaVuSans-48"/>
      </g>
     </g>
    </g>
    <g id="ytick_6">
     <g id="line2d_14">
      <path clip-path="url(#p7790f86349)" d="M 43.636875 218.410446
L 601.636875 218.410446
" style="fill:none;stroke:#cccccc;stroke-linecap:round;stroke-width:0.8;"/>
     </g>
     <g id="text_15">
      <!-- 100 -->
      <g style="fill:#262626;" transform="translate(17.549375 222.209665)scale(0.1 -0.1)">
       <use xlink:href="#DejaVuSans-49"/>
       <use x="63.623047" xlink:href="#DejaVuSans-48"/>
       <use x="127.246094" xlink:href="#DejaVuSans-48"/>
      </g>
     </g>
    </g>
    <g id="ytick_7">
     <g id="line2d_15">
      <path clip-path="url(#p7790f86349)" d="M 43.636875 167.901735
L 601.636875 167.901735
" style="fill:none;stroke:#cccccc;stroke-linecap:round;stroke-width:0.8;"/>
     </g>
     <g id="text_16">
      <!-- 120 -->
      <g style="fill:#262626;" transform="translate(17.549375 171.700954)scale(0.1 -0.1)">
       <use xlink:href="#DejaVuSans-49"/>
       <use x="63.623047" xlink:href="#DejaVuSans-50"/>
       <use x="127.246094" xlink:href="#DejaVuSans-48"/>
      </g>
     </g>
    </g>
    <g id="ytick_8">
     <g id="line2d_16">
      <path clip-path="url(#p7790f86349)" d="M 43.636875 117.393024
L 601.636875 117.393024
" style="fill:none;stroke:#cccccc;stroke-linecap:round;stroke-width:0.8;"/>
     </g>
     <g id="text_17">
      <!-- 140 -->
      <g style="fill:#262626;" transform="translate(17.549375 121.192243)scale(0.1 -0.1)">
       <use xlink:href="#DejaVuSans-49"/>
       <use x="63.623047" xlink:href="#DejaVuSans-52"/>
       <use x="127.246094" xlink:href="#DejaVuSans-48"/>
      </g>
     </g>
    </g>
    <g id="ytick_9">
     <g id="line2d_17">
      <path clip-path="url(#p7790f86349)" d="M 43.636875 66.884314
L 601.636875 66.884314
" style="fill:none;stroke:#cccccc;stroke-linecap:round;stroke-width:0.8;"/>
     </g>
     <g id="text_18">
      <!-- 160 -->
      <g style="fill:#262626;" transform="translate(17.549375 70.683532)scale(0.1 -0.1)">
       <use xlink:href="#DejaVuSans-49"/>
       <use x="63.623047" xlink:href="#DejaVuSans-54"/>
       <use x="127.246094" xlink:href="#DejaVuSans-48"/>
      </g>
     </g>
    </g>
    <g id="text_19">
     <!-- Count -->
     <g style="fill:#262626;" transform="translate(10.637813 274.301812)rotate(-90)scale(0.14 -0.14)">
      <defs>
       <path d="M 64.40625 67.28125
L 64.40625 56.890625
Q 59.421875 61.53125 53.78125 63.8125
Q 48.140625 66.109375 41.796875 66.109375
Q 29.296875 66.109375 22.65625 58.46875
Q 16.015625 50.828125 16.015625 36.375
Q 16.015625 21.96875 22.65625 14.328125
Q 29.296875 6.6875 41.796875 6.6875
Q 48.140625 6.6875 53.78125 8.984375
Q 59.421875 11.28125 64.40625 15.921875
L 64.40625 5.609375
Q 59.234375 2.09375 53.4375 0.328125
Q 47.65625 -1.421875 41.21875 -1.421875
Q 24.65625 -1.421875 15.125 8.703125
Q 5.609375 18.84375 5.609375 36.375
Q 5.609375 53.953125 15.125 64.078125
Q 24.65625 74.21875 41.21875 74.21875
Q 47.75 74.21875 53.53125 72.484375
Q 59.328125 70.75 64.40625 67.28125
z
" id="DejaVuSans-67"/>
      </defs>
      <use xlink:href="#DejaVuSans-67"/>
      <use x="69.824219" xlink:href="#DejaVuSans-111"/>
      <use x="131.005859" xlink:href="#DejaVuSans-117"/>
      <use x="194.384766" xlink:href="#DejaVuSans-110"/>
      <use x="257.763672" xlink:href="#DejaVuSans-116"/>
     </g>
    </g>
   </g>
   <g id="PolyCollection_1">
    <defs>
     <path d="M 69.000511 -34.2275
L 69.000511 -34.2275
L 72.843487 -34.2275
L 72.843487 -34.2275
L 76.686462 -34.2275
L 76.686462 -34.2275
L 80.529437 -34.2275
L 80.529437 -34.2275
L 84.372412 -34.2275
L 84.372412 -34.2275
L 88.215387 -34.2275
L 88.215387 -34.2275
L 92.058363 -34.2275
L 92.058363 -34.2275
L 95.901338 -34.2275
L 95.901338 -34.2275
L 99.744313 -34.2275
L 99.744313 -34.2275
L 103.587288 -34.2275
L 103.587288 -34.2275
L 107.430263 -34.2275
L 107.430263 -34.2275
L 111.273239 -34.2275
L 111.273239 -34.2275
L 115.116214 -34.2275
L 115.116214 -34.2275
L 118.959189 -34.2275
L 118.959189 -34.2275
L 122.802164 -34.2275
L 122.802164 -34.2275
L 126.645139 -34.2275
L 126.645139 -34.2275
L 130.488115 -34.2275
L 130.488115 -34.2275
L 134.33109 -34.2275
L 134.33109 -34.2275
L 138.174065 -34.2275
L 138.174065 -34.2275
L 142.01704 -34.2275
L 142.01704 -34.2275
L 145.860015 -34.2275
L 145.860015 -34.2275
L 149.702991 -34.2275
L 149.702991 -34.2275
L 153.545966 -34.2275
L 153.545966 -34.2275
L 157.388941 -34.2275
L 157.388941 -34.2275
L 161.231916 -34.2275
L 161.231916 -34.2275
L 165.074892 -34.2275
L 165.074892 -34.2275
L 168.917867 -34.2275
L 168.917867 -34.2275
L 172.760842 -34.2275
L 172.760842 -34.2275
L 176.603817 -34.2275
L 176.603817 -34.2275
L 180.446792 -34.2275
L 180.446792 -34.2275
L 184.289768 -34.2275
L 184.289768 -34.2275
L 188.132743 -34.2275
L 188.132743 -34.2275
L 191.975718 -34.2275
L 191.975718 -34.2275
L 195.818693 -34.2275
L 195.818693 -34.2275
L 199.661668 -34.2275
L 199.661668 -34.2275
L 203.504644 -34.2275
L 203.504644 -34.2275
L 207.347619 -34.2275
L 207.347619 -34.2275
L 211.190594 -34.2275
L 211.190594 -34.2275
L 215.033569 -34.2275
L 215.033569 -34.2275
L 218.876544 -34.2275
L 218.876544 -34.2275
L 222.71952 -34.2275
L 222.71952 -34.2275
L 226.562495 -34.2275
L 226.562495 -34.2275
L 230.40547 -34.2275
L 230.40547 -34.2275
L 234.248445 -34.2275
L 234.248445 -34.2275
L 238.09142 -34.2275
L 238.09142 -34.2275
L 241.934396 -34.2275
L 241.934396 -34.2275
L 245.777371 -34.2275
L 245.777371 -34.2275
L 249.620346 -34.2275
L 249.620346 -34.2275
L 253.463321 -34.2275
L 253.463321 -34.2275
L 257.306296 -34.2275
L 257.306296 -34.2275
L 261.149272 -34.2275
L 261.149272 -34.2275
L 264.992247 -34.2275
L 264.992247 -34.2275
L 268.835222 -34.2275
L 268.835222 -34.2275
L 272.678197 -34.2275
L 272.678197 -34.2275
L 276.521173 -34.2275
L 276.521173 -34.2275
L 280.364148 -34.2275
L 280.364148 -34.2275
L 284.207123 -34.2275
L 284.207123 -34.2275
L 288.050098 -34.2275
L 288.050098 -34.2275
L 291.893073 -34.2275
L 291.893073 -34.2275
L 295.736049 -34.2275
L 295.736049 -34.2275
L 299.579024 -34.2275
L 299.579024 -34.2275
L 303.421999 -34.2275
L 303.421999 -34.2275
L 307.264974 -34.2275
L 307.264974 -34.2275
L 311.107949 -34.2275
L 311.107949 -34.2275
L 314.950925 -34.2275
L 314.950925 -34.2275
L 318.7939 -34.2275
L 318.7939 -34.2275
L 322.636875 -34.2275
L 322.636875 -34.2275
L 326.47985 -34.2275
L 326.47985 -34.2275
L 330.322825 -34.2275
L 330.322825 -34.2275
L 334.165801 -34.2275
L 334.165801 -34.2275
L 338.008776 -34.2275
L 338.008776 -34.2275
L 341.851751 -34.2275
L 341.851751 -34.2275
L 345.694726 -34.2275
L 345.694726 -34.2275
L 349.537701 -34.2275
L 349.537701 -34.2275
L 353.380677 -34.2275
L 353.380677 -34.2275
L 357.223652 -34.2275
L 357.223652 -34.2275
L 361.066627 -34.2275
L 361.066627 -34.2275
L 364.909602 -34.2275
L 364.909602 -34.2275
L 368.752577 -34.2275
L 368.752577 -34.2275
L 372.595553 -34.2275
L 372.595553 -34.2275
L 376.438528 -34.2275
L 376.438528 -34.2275
L 380.281503 -34.2275
L 380.281503 -34.2275
L 384.124478 -34.2275
L 384.124478 -34.2275
L 387.967454 -34.2275
L 387.967454 -34.2275
L 391.810429 -34.2275
L 391.810429 -34.2275
L 395.653404 -34.2275
L 395.653404 -34.2275
L 399.496379 -34.2275
L 399.496379 -34.2275
L 403.339354 -34.2275
L 403.339354 -34.2275
L 407.18233 -34.2275
L 407.18233 -34.2275
L 411.025305 -34.2275
L 411.025305 -34.2275
L 414.86828 -34.2275
L 414.86828 -34.2275
L 418.711255 -34.2275
L 418.711255 -34.2275
L 422.55423 -34.2275
L 422.55423 -34.2275
L 426.397206 -34.2275
L 426.397206 -34.2275
L 430.240181 -34.2275
L 430.240181 -34.2275
L 434.083156 -34.2275
L 434.083156 -34.2275
L 437.926131 -34.2275
L 437.926131 -34.2275
L 441.769106 -34.2275
L 441.769106 -34.2275
L 445.612082 -34.2275
L 445.612082 -34.2275
L 449.455057 -34.2275
L 449.455057 -34.2275
L 453.298032 -34.2275
L 453.298032 -34.2275
L 457.141007 -34.2275
L 457.141007 -34.2275
L 460.983982 -34.2275
L 460.983982 -34.2275
L 464.826958 -34.2275
L 464.826958 -34.2275
L 468.669933 -34.2275
L 468.669933 -34.2275
L 472.512908 -34.2275
L 472.512908 -34.2275
L 476.355883 -34.2275
L 476.355883 -34.2275
L 480.198858 -34.2275
L 480.198858 -34.2275
L 484.041834 -34.2275
L 484.041834 -34.2275
L 487.884809 -34.2275
L 487.884809 -34.2275
L 491.727784 -34.2275
L 491.727784 -34.2275
L 495.570759 -34.2275
L 495.570759 -34.2275
L 499.413735 -34.2275
L 499.413735 -34.2275
L 503.25671 -34.2275
L 503.25671 -34.2275
L 507.099685 -34.2275
L 507.099685 -34.2275
L 510.94266 -34.2275
L 510.94266 -34.2275
L 514.785635 -34.2275
L 514.785635 -34.2275
L 518.628611 -34.2275
L 518.628611 -34.2275
L 522.471586 -34.2275
L 522.471586 -34.2275
L 526.314561 -34.2275
L 526.314561 -34.2275
L 530.157536 -34.2275
L 530.157536 -34.2275
L 534.000511 -34.2275
L 534.000511 -34.2275
L 537.843487 -34.2275
L 537.843487 -34.2275
L 541.686462 -34.2275
L 541.686462 -34.2275
L 545.529437 -34.2275
L 545.529437 -34.2275
L 549.372412 -34.2275
L 549.372412 -34.2275
L 553.215387 -34.2275
L 553.215387 -34.2275
L 557.058363 -34.2275
L 557.058363 -34.2275
L 560.901338 -34.2275
L 560.901338 -34.2275
L 564.744313 -34.2275
L 564.744313 -34.2275
L 568.587288 -34.2275
L 568.587288 -34.2275
L 572.430263 -34.2275
L 572.430263 -34.2275
L 576.273239 -34.2275
L 576.273239 -34.2275
L 576.273239 -34.2275
L 576.273239 -34.2275
L 576.273239 -34.2275
L 572.430263 -34.2275
L 572.430263 -34.2275
L 568.587288 -34.2275
L 568.587288 -34.2275
L 564.744313 -34.2275
L 564.744313 -34.2275
L 560.901338 -34.2275
L 560.901338 -34.2275
L 557.058363 -34.2275
L 557.058363 -34.2275
L 553.215387 -34.2275
L 553.215387 -34.2275
L 549.372412 -34.2275
L 549.372412 -34.2275
L 545.529437 -34.2275
L 545.529437 -34.2275
L 541.686462 -34.2275
L 541.686462 -34.2275
L 537.843487 -34.2275
L 537.843487 -34.2275
L 534.000511 -34.2275
L 534.000511 -34.2275
L 530.157536 -34.2275
L 530.157536 -34.2275
L 526.314561 -34.2275
L 526.314561 -34.2275
L 522.471586 -34.2275
L 522.471586 -34.2275
L 518.628611 -34.2275
L 518.628611 -34.2275
L 514.785635 -34.2275
L 514.785635 -34.2275
L 510.94266 -34.2275
L 510.94266 -34.2275
L 507.099685 -34.2275
L 507.099685 -34.2275
L 503.25671 -34.2275
L 503.25671 -34.2275
L 499.413735 -34.2275
L 499.413735 -34.2275
L 495.570759 -34.2275
L 495.570759 -34.2275
L 491.727784 -34.2275
L 491.727784 -34.2275
L 487.884809 -34.2275
L 487.884809 -34.2275
L 484.041834 -34.2275
L 484.041834 -34.2275
L 480.198858 -34.2275
L 480.198858 -34.2275
L 476.355883 -34.2275
L 476.355883 -34.2275
L 472.512908 -34.2275
L 472.512908 -34.2275
L 468.669933 -34.2275
L 468.669933 -34.2275
L 464.826958 -34.2275
L 464.826958 -34.2275
L 460.983982 -34.2275
L 460.983982 -34.2275
L 457.141007 -34.2275
L 457.141007 -34.2275
L 453.298032 -34.2275
L 453.298032 -34.2275
L 449.455057 -34.2275
L 449.455057 -34.2275
L 445.612082 -34.2275
L 445.612082 -34.2275
L 441.769106 -34.2275
L 441.769106 -34.2275
L 437.926131 -34.2275
L 437.926131 -34.2275
L 434.083156 -34.2275
L 434.083156 -34.2275
L 430.240181 -34.2275
L 430.240181 -34.2275
L 426.397206 -34.2275
L 426.397206 -34.2275
L 422.55423 -34.2275
L 422.55423 -34.2275
L 418.711255 -34.2275
L 418.711255 -34.2275
L 414.86828 -34.2275
L 414.86828 -34.2275
L 411.025305 -34.2275
L 411.025305 -34.2275
L 407.18233 -34.2275
L 407.18233 -34.2275
L 403.339354 -34.2275
L 403.339354 -34.2275
L 399.496379 -34.2275
L 399.496379 -34.2275
L 395.653404 -34.2275
L 395.653404 -34.2275
L 391.810429 -34.2275
L 391.810429 -34.2275
L 387.967454 -34.2275
L 387.967454 -34.2275
L 384.124478 -34.2275
L 384.124478 -34.2275
L 380.281503 -34.2275
L 380.281503 -34.2275
L 376.438528 -34.2275
L 376.438528 -34.2275
L 372.595553 -34.2275
L 372.595553 -34.2275
L 368.752577 -34.2275
L 368.752577 -34.2275
L 364.909602 -34.2275
L 364.909602 -34.2275
L 361.066627 -34.2275
L 361.066627 -34.2275
L 357.223652 -34.2275
L 357.223652 -34.2275
L 353.380677 -34.2275
L 353.380677 -34.2275
L 349.537701 -34.2275
L 349.537701 -34.2275
L 345.694726 -34.2275
L 345.694726 -34.2275
L 341.851751 -34.2275
L 341.851751 -34.2275
L 338.008776 -34.2275
L 338.008776 -34.2275
L 334.165801 -34.2275
L 334.165801 -34.2275
L 330.322825 -34.2275
L 330.322825 -34.2275
L 326.47985 -34.2275
L 326.47985 -34.2275
L 322.636875 -34.2275
L 322.636875 -34.2275
L 318.7939 -34.2275
L 318.7939 -34.2275
L 314.950925 -34.2275
L 314.950925 -34.2275
L 311.107949 -34.2275
L 311.107949 -34.2275
L 307.264974 -34.2275
L 307.264974 -34.2275
L 303.421999 -34.2275
L 303.421999 -34.2275
L 299.579024 -34.2275
L 299.579024 -34.2275
L 295.736049 -34.2275
L 295.736049 -34.2275
L 291.893073 -34.2275
L 291.893073 -34.2275
L 288.050098 -34.2275
L 288.050098 -34.2275
L 284.207123 -34.2275
L 284.207123 -34.2275
L 280.364148 -34.2275
L 280.364148 -34.2275
L 276.521173 -34.2275
L 276.521173 -34.2275
L 272.678197 -34.2275
L 272.678197 -34.2275
L 268.835222 -34.2275
L 268.835222 -34.2275
L 264.992247 -34.2275
L 264.992247 -34.2275
L 261.149272 -34.2275
L 261.149272 -34.2275
L 257.306296 -34.2275
L 257.306296 -34.2275
L 253.463321 -34.2275
L 253.463321 -34.2275
L 249.620346 -34.2275
L 249.620346 -34.2275
L 245.777371 -34.2275
L 245.777371 -34.2275
L 241.934396 -34.2275
L 241.934396 -34.2275
L 238.09142 -34.2275
L 238.09142 -34.2275
L 234.248445 -34.2275
L 234.248445 -34.2275
L 230.40547 -34.2275
L 230.40547 -34.2275
L 226.562495 -34.2275
L 226.562495 -34.2275
L 222.71952 -34.2275
L 222.71952 -34.2275
L 218.876544 -34.2275
L 218.876544 -34.2275
L 215.033569 -34.2275
L 215.033569 -34.2275
L 211.190594 -34.2275
L 211.190594 -34.2275
L 207.347619 -34.2275
L 207.347619 -34.2275
L 203.504644 -34.2275
L 203.504644 -34.2275
L 199.661668 -34.2275
L 199.661668 -34.2275
L 195.818693 -34.2275
L 195.818693 -34.2275
L 191.975718 -34.2275
L 191.975718 -34.2275
L 188.132743 -34.2275
L 188.132743 -34.2275
L 184.289768 -34.2275
L 184.289768 -34.2275
L 180.446792 -34.2275
L 180.446792 -34.2275
L 176.603817 -34.2275
L 176.603817 -34.2275
L 172.760842 -34.2275
L 172.760842 -34.2275
L 168.917867 -34.2275
L 168.917867 -34.2275
L 165.074892 -34.2275
L 165.074892 -34.2275
L 161.231916 -34.2275
L 161.231916 -34.2275
L 157.388941 -34.2275
L 157.388941 -34.2275
L 153.545966 -34.2275
L 153.545966 -34.2275
L 149.702991 -34.2275
L 149.702991 -34.2275
L 145.860015 -34.2275
L 145.860015 -34.2275
L 142.01704 -34.2275
L 142.01704 -34.2275
L 138.174065 -34.2275
L 138.174065 -34.2275
L 134.33109 -34.2275
L 134.33109 -34.2275
L 130.488115 -34.2275
L 130.488115 -51.905549
L 126.645139 -51.905549
L 126.645139 -64.532726
L 122.802164 -64.532726
L 122.802164 -112.516002
L 118.959189 -112.516002
L 118.959189 -200.906246
L 115.116214 -200.906246
L 115.116214 -286.771054
L 111.273239 -286.771054
L 111.273239 -407.99196
L 107.430263 -407.99196
L 107.430263 -448.398929
L 103.587288 -448.398929
L 103.587288 -440.822622
L 99.744313 -440.822622
L 99.744313 -400.415653
L 95.901338 -400.415653
L 95.901338 -246.364085
L 92.058363 -246.364085
L 92.058363 -168.075584
L 88.215387 -168.075584
L 88.215387 -69.583598
L 84.372412 -69.583598
L 84.372412 -56.95642
L 80.529437 -56.95642
L 80.529437 -49.380113
L 76.686462 -49.380113
L 76.686462 -34.2275
L 72.843487 -34.2275
L 72.843487 -34.2275
L 69.000511 -34.2275
z
" id="m4368bd3ca5" style="stroke:#d3d3d3;"/>
    </defs>
    <g clip-path="url(#p7790f86349)">
     <use style="fill:#d3d3d3;fill-opacity:0.75;stroke:#d3d3d3;" x="0" xlink:href="#m4368bd3ca5" y="505.1815"/>
    </g>
   </g>
   <g id="line2d_18">
    <path clip-path="url(#p7790f86349)" d="M 69.000511 470.954
L 69.000511 36.074
" style="fill:none;stroke:#81448e;stroke-linecap:round;stroke-width:4;"/>
   </g>
   <g id="line2d_19">
    <path clip-path="url(#p7790f86349)" d="M 576.273239 470.954
L 576.273239 36.074
" style="fill:none;stroke:#000000;stroke-dasharray:9.25,4;stroke-dashoffset:0;stroke-width:2.5;"/>
   </g>
   <g id="patch_3">
    <path d="M 43.636875 470.954
L 43.636875 36.074
" style="fill:none;stroke:#cccccc;stroke-linecap:square;stroke-linejoin:miter;stroke-width:0.8;"/>
   </g>
   <g id="patch_4">
    <path d="M 601.636875 470.954
L 601.636875 36.074
" style="fill:none;stroke:#cccccc;stroke-linecap:square;stroke-linejoin:miter;stroke-width:0.8;"/>
   </g>
   <g id="patch_5">
    <path d="M 43.636875 470.954
L 601.636875 470.954
" style="fill:none;stroke:#cccccc;stroke-linecap:square;stroke-linejoin:miter;stroke-width:0.8;"/>
   </g>
   <g id="patch_6">
    <path d="M 43.636875 36.074
L 601.636875 36.074
" style="fill:none;stroke:#cccccc;stroke-linecap:square;stroke-linejoin:miter;stroke-width:0.8;"/>
   </g>
   <g id="text_20">
    <!-- Number of communities, generic genes vs. -->
    <g style="fill:#262626;" transform="translate(150.333125 12.1575)scale(0.16 -0.16)">
     <defs>
      <path d="M 11.71875 12.40625
L 22.015625 12.40625
L 22.015625 4
L 14.015625 -11.625
L 7.71875 -11.625
L 11.71875 4
z
" id="DejaVuSans-44"/>
      <path d="M 2.984375 54.6875
L 12.5 54.6875
L 29.59375 8.796875
L 46.6875 54.6875
L 56.203125 54.6875
L 35.6875 0
L 23.484375 0
z
" id="DejaVuSans-118"/>
      <path d="M 10.6875 12.40625
L 21 12.40625
L 21 0
L 10.6875 0
z
" id="DejaVuSans-46"/>
     </defs>
     <use xlink:href="#DejaVuSans-78"/>
     <use x="74.804688" xlink:href="#DejaVuSans-117"/>
     <use x="138.183594" xlink:href="#DejaVuSans-109"/>
     <use x="235.595703" xlink:href="#DejaVuSans-98"/>
     <use x="299.072266" xlink:href="#DejaVuSans-101"/>
     <use x="360.595703" xlink:href="#DejaVuSans-114"/>
     <use x="401.708984" xlink:href="#DejaVuSans-32"/>
     <use x="433.496094" xlink:href="#DejaVuSans-111"/>
     <use x="494.677734" xlink:href="#DejaVuSans-102"/>
     <use x="529.882812" xlink:href="#DejaVuSans-32"/>
     <use x="561.669922" xlink:href="#DejaVuSans-99"/>
     <use x="616.650391" xlink:href="#DejaVuSans-111"/>
     <use x="677.832031" xlink:href="#DejaVuSans-109"/>
     <use x="775.244141" xlink:href="#DejaVuSans-109"/>
     <use x="872.65625" xlink:href="#DejaVuSans-117"/>
     <use x="936.035156" xlink:href="#DejaVuSans-110"/>
     <use x="999.414062" xlink:href="#DejaVuSans-105"/>
     <use x="1027.197266" xlink:href="#DejaVuSans-116"/>
     <use x="1066.40625" xlink:href="#DejaVuSans-105"/>
     <use x="1094.189453" xlink:href="#DejaVuSans-101"/>
     <use x="1155.712891" xlink:href="#DejaVuSans-115"/>
     <use x="1207.8125" xlink:href="#DejaVuSans-44"/>
     <use x="1239.599609" xlink:href="#DejaVuSans-32"/>
     <use x="1271.386719" xlink:href="#DejaVuSans-103"/>
     <use x="1334.863281" xlink:href="#DejaVuSans-101"/>
     <use x="1396.386719" xlink:href="#DejaVuSans-110"/>
     <use x="1459.765625" xlink:href="#DejaVuSans-101"/>
     <use x="1521.289062" xlink:href="#DejaVuSans-114"/>
     <use x="1562.402344" xlink:href="#DejaVuSans-105"/>
     <use x="1590.185547" xlink:href="#DejaVuSans-99"/>
     <use x="1645.166016" xlink:href="#DejaVuSans-32"/>
     <use x="1676.953125" xlink:href="#DejaVuSans-103"/>
     <use x="1740.429688" xlink:href="#DejaVuSans-101"/>
     <use x="1801.953125" xlink:href="#DejaVuSans-110"/>
     <use x="1865.332031" xlink:href="#DejaVuSans-101"/>
     <use x="1926.855469" xlink:href="#DejaVuSans-115"/>
     <use x="1978.955078" xlink:href="#DejaVuSans-32"/>
     <use x="2010.742188" xlink:href="#DejaVuSans-118"/>
     <use x="2069.921875" xlink:href="#DejaVuSans-115"/>
     <use x="2122.021484" xlink:href="#DejaVuSans-46"/>
    </g>
    <!-- 1000 degree-matched samples -->
    <g style="fill:#262626;" transform="translate(197.716875 30.074)scale(0.16 -0.16)">
     <defs>
      <path d="M 4.890625 31.390625
L 31.203125 31.390625
L 31.203125 23.390625
L 4.890625 23.390625
z
" id="DejaVuSans-45"/>
      <path d="M 34.28125 27.484375
Q 23.390625 27.484375 19.1875 25
Q 14.984375 22.515625 14.984375 16.5
Q 14.984375 11.71875 18.140625 8.90625
Q 21.296875 6.109375 26.703125 6.109375
Q 34.1875 6.109375 38.703125 11.40625
Q 43.21875 16.703125 43.21875 25.484375
L 43.21875 27.484375
z
M 52.203125 31.203125
L 52.203125 0
L 43.21875 0
L 43.21875 8.296875
Q 40.140625 3.328125 35.546875 0.953125
Q 30.953125 -1.421875 24.3125 -1.421875
Q 15.921875 -1.421875 10.953125 3.296875
Q 6 8.015625 6 15.921875
Q 6 25.140625 12.171875 29.828125
Q 18.359375 34.515625 30.609375 34.515625
L 43.21875 34.515625
L 43.21875 35.40625
Q 43.21875 41.609375 39.140625 45
Q 35.0625 48.390625 27.6875 48.390625
Q 23 48.390625 18.546875 47.265625
Q 14.109375 46.140625 10.015625 43.890625
L 10.015625 52.203125
Q 14.9375 54.109375 19.578125 55.046875
Q 24.21875 56 28.609375 56
Q 40.484375 56 46.34375 49.84375
Q 52.203125 43.703125 52.203125 31.203125
z
" id="DejaVuSans-97"/>
      <path d="M 18.109375 8.203125
L 18.109375 -20.796875
L 9.078125 -20.796875
L 9.078125 54.6875
L 18.109375 54.6875
L 18.109375 46.390625
Q 20.953125 51.265625 25.265625 53.625
Q 29.59375 56 35.59375 56
Q 45.5625 56 51.78125 48.09375
Q 58.015625 40.1875 58.015625 27.296875
Q 58.015625 14.40625 51.78125 6.484375
Q 45.5625 -1.421875 35.59375 -1.421875
Q 29.59375 -1.421875 25.265625 0.953125
Q 20.953125 3.328125 18.109375 8.203125
z
M 48.6875 27.296875
Q 48.6875 37.203125 44.609375 42.84375
Q 40.53125 48.484375 33.40625 48.484375
Q 26.265625 48.484375 22.1875 42.84375
Q 18.109375 37.203125 18.109375 27.296875
Q 18.109375 17.390625 22.1875 11.75
Q 26.265625 6.109375 33.40625 6.109375
Q 40.53125 6.109375 44.609375 11.75
Q 48.6875 17.390625 48.6875 27.296875
z
" id="DejaVuSans-112"/>
     </defs>
     <use xlink:href="#DejaVuSans-49"/>
     <use x="63.623047" xlink:href="#DejaVuSans-48"/>
     <use x="127.246094" xlink:href="#DejaVuSans-48"/>
     <use x="190.869141" xlink:href="#DejaVuSans-48"/>
     <use x="254.492188" xlink:href="#DejaVuSans-32"/>
     <use x="286.279297" xlink:href="#DejaVuSans-100"/>
     <use x="349.755859" xlink:href="#DejaVuSans-101"/>
     <use x="411.279297" xlink:href="#DejaVuSans-103"/>
     <use x="474.755859" xlink:href="#DejaVuSans-114"/>
     <use x="513.619141" xlink:href="#DejaVuSans-101"/>
     <use x="575.142578" xlink:href="#DejaVuSans-101"/>
     <use x="636.666016" xlink:href="#DejaVuSans-45"/>
     <use x="672.75" xlink:href="#DejaVuSans-109"/>
     <use x="770.162109" xlink:href="#DejaVuSans-97"/>
     <use x="831.441406" xlink:href="#DejaVuSans-116"/>
     <use x="870.650391" xlink:href="#DejaVuSans-99"/>
     <use x="925.630859" xlink:href="#DejaVuSans-104"/>
     <use x="989.009766" xlink:href="#DejaVuSans-101"/>
     <use x="1050.533203" xlink:href="#DejaVuSans-100"/>
     <use x="1114.009766" xlink:href="#DejaVuSans-32"/>
     <use x="1145.796875" xlink:href="#DejaVuSans-115"/>
     <use x="1197.896484" xlink:href="#DejaVuSans-97"/>
     <use x="1259.175781" xlink:href="#DejaVuSans-109"/>
     <use x="1356.587891" xlink:href="#DejaVuSans-112"/>
     <use x="1420.064453" xlink:href="#DejaVuSans-108"/>
     <use x="1447.847656" xlink:href="#DejaVuSans-101"/>
     <use x="1509.371094" xlink:href="#DejaVuSans-115"/>
    </g>
   </g>
   <g id="legend_1">
    <g id="patch_7">
     <path d="M 610.036875 98.51525
L 785.611875 98.51525
Q 788.011875 98.51525 788.011875 96.11525
L 788.011875 44.474
Q 788.011875 42.074 785.611875 42.074
L 610.036875 42.074
Q 607.636875 42.074 607.636875 44.474
L 607.636875 96.11525
Q 607.636875 98.51525 610.036875 98.51525
z
" style="fill:#ffffff;opacity:0.8;stroke:#cccccc;stroke-linejoin:miter;"/>
    </g>
    <g id="patch_8">
     <path d="M 612.436875 55.992125
L 636.436875 55.992125
L 636.436875 47.592125
L 612.436875 47.592125
z
" style="fill:#d3d3d3;stroke:#d3d3d3;stroke-linejoin:miter;"/>
    </g>
    <g id="text_21">
     <!-- Random gene samples -->
     <g style="fill:#262626;" transform="translate(646.036875 55.992125)scale(0.12 -0.12)">
      <defs>
       <path d="M 44.390625 34.1875
Q 47.5625 33.109375 50.5625 29.59375
Q 53.5625 26.078125 56.59375 19.921875
L 66.609375 0
L 56 0
L 46.6875 18.703125
Q 43.0625 26.03125 39.671875 28.421875
Q 36.28125 30.8125 30.421875 30.8125
L 19.671875 30.8125
L 19.671875 0
L 9.8125 0
L 9.8125 72.90625
L 32.078125 72.90625
Q 44.578125 72.90625 50.734375 67.671875
Q 56.890625 62.453125 56.890625 51.90625
Q 56.890625 45.015625 53.6875 40.46875
Q 50.484375 35.9375 44.390625 34.1875
z
M 19.671875 64.796875
L 19.671875 38.921875
L 32.078125 38.921875
Q 39.203125 38.921875 42.84375 42.21875
Q 46.484375 45.515625 46.484375 51.90625
Q 46.484375 58.296875 42.84375 61.546875
Q 39.203125 64.796875 32.078125 64.796875
z
" id="DejaVuSans-82"/>
      </defs>
      <use xlink:href="#DejaVuSans-82"/>
      <use x="67.232422" xlink:href="#DejaVuSans-97"/>
      <use x="128.511719" xlink:href="#DejaVuSans-110"/>
      <use x="191.890625" xlink:href="#DejaVuSans-100"/>
      <use x="255.367188" xlink:href="#DejaVuSans-111"/>
      <use x="316.548828" xlink:href="#DejaVuSans-109"/>
      <use x="413.960938" xlink:href="#DejaVuSans-32"/>
      <use x="445.748047" xlink:href="#DejaVuSans-103"/>
      <use x="509.224609" xlink:href="#DejaVuSans-101"/>
      <use x="570.748047" xlink:href="#DejaVuSans-110"/>
      <use x="634.126953" xlink:href="#DejaVuSans-101"/>
      <use x="695.650391" xlink:href="#DejaVuSans-32"/>
      <use x="727.4375" xlink:href="#DejaVuSans-115"/>
      <use x="779.537109" xlink:href="#DejaVuSans-97"/>
      <use x="840.816406" xlink:href="#DejaVuSans-109"/>
      <use x="938.228516" xlink:href="#DejaVuSans-112"/>
      <use x="1001.705078" xlink:href="#DejaVuSans-108"/>
      <use x="1029.488281" xlink:href="#DejaVuSans-101"/>
      <use x="1091.011719" xlink:href="#DejaVuSans-115"/>
     </g>
    </g>
    <g id="line2d_20">
     <path d="M 612.436875 69.405875
L 636.436875 69.405875
" style="fill:none;stroke:#81448e;stroke-linecap:round;stroke-width:4;"/>
    </g>
    <g id="line2d_21"/>
    <g id="text_22">
     <!-- Generic genes -->
     <g style="fill:#262626;" transform="translate(646.036875 73.605875)scale(0.12 -0.12)">
      <defs>
       <path d="M 59.515625 10.40625
L 59.515625 29.984375
L 43.40625 29.984375
L 43.40625 38.09375
L 69.28125 38.09375
L 69.28125 6.78125
Q 63.578125 2.734375 56.6875 0.65625
Q 49.8125 -1.421875 42 -1.421875
Q 24.90625 -1.421875 15.25 8.5625
Q 5.609375 18.5625 5.609375 36.375
Q 5.609375 54.25 15.25 64.234375
Q 24.90625 74.21875 42 74.21875
Q 49.125 74.21875 55.546875 72.453125
Q 61.96875 70.703125 67.390625 67.28125
L 67.390625 56.78125
Q 61.921875 61.421875 55.765625 63.765625
Q 49.609375 66.109375 42.828125 66.109375
Q 29.4375 66.109375 22.71875 58.640625
Q 16.015625 51.171875 16.015625 36.375
Q 16.015625 21.625 22.71875 14.15625
Q 29.4375 6.6875 42.828125 6.6875
Q 48.046875 6.6875 52.140625 7.59375
Q 56.25 8.5 59.515625 10.40625
z
" id="DejaVuSans-71"/>
      </defs>
      <use xlink:href="#DejaVuSans-71"/>
      <use x="77.490234" xlink:href="#DejaVuSans-101"/>
      <use x="139.013672" xlink:href="#DejaVuSans-110"/>
      <use x="202.392578" xlink:href="#DejaVuSans-101"/>
      <use x="263.916016" xlink:href="#DejaVuSans-114"/>
      <use x="305.029297" xlink:href="#DejaVuSans-105"/>
      <use x="332.8125" xlink:href="#DejaVuSans-99"/>
      <use x="387.792969" xlink:href="#DejaVuSans-32"/>
      <use x="419.580078" xlink:href="#DejaVuSans-103"/>
      <use x="483.056641" xlink:href="#DejaVuSans-101"/>
      <use x="544.580078" xlink:href="#DejaVuSans-110"/>
      <use x="607.958984" xlink:href="#DejaVuSans-101"/>
      <use x="669.482422" xlink:href="#DejaVuSans-115"/>
     </g>
    </g>
    <g id="line2d_22">
     <path d="M 612.436875 87.019625
L 636.436875 87.019625
" style="fill:none;stroke:#000000;stroke-dasharray:9.25,4;stroke-dashoffset:0;stroke-width:2.5;"/>
    </g>
    <g id="line2d_23"/>
    <g id="text_23">
     <!-- Total communities -->
     <g style="fill:#262626;" transform="translate(646.036875 91.219625)scale(0.12 -0.12)">
      <defs>
       <path d="M -0.296875 72.90625
L 61.375 72.90625
L 61.375 64.59375
L 35.5 64.59375
L 35.5 0
L 25.59375 0
L 25.59375 64.59375
L -0.296875 64.59375
z
" id="DejaVuSans-84"/>
      </defs>
      <use xlink:href="#DejaVuSans-84"/>
      <use x="44.083984" xlink:href="#DejaVuSans-111"/>
      <use x="105.265625" xlink:href="#DejaVuSans-116"/>
      <use x="144.474609" xlink:href="#DejaVuSans-97"/>
      <use x="205.753906" xlink:href="#DejaVuSans-108"/>
      <use x="233.537109" xlink:href="#DejaVuSans-32"/>
      <use x="265.324219" xlink:href="#DejaVuSans-99"/>
      <use x="320.304688" xlink:href="#DejaVuSans-111"/>
      <use x="381.486328" xlink:href="#DejaVuSans-109"/>
      <use x="478.898438" xlink:href="#DejaVuSans-109"/>
      <use x="576.310547" xlink:href="#DejaVuSans-117"/>
      <use x="639.689453" xlink:href="#DejaVuSans-110"/>
      <use x="703.068359" xlink:href="#DejaVuSans-105"/>
      <use x="730.851562" xlink:href="#DejaVuSans-116"/>
      <use x="770.060547" xlink:href="#DejaVuSans-105"/>
      <use x="797.84375" xlink:href="#DejaVuSans-101"/>
      <use x="859.367188" xlink:href="#DejaVuSans-115"/>
     </g>
    </g>
   </g>
  </g>
 </g>
 <defs>
  <clipPath id="p7790f86349">
   <rect height="434.88" width="558" x="43.636875" y="36.074"/>
  </clipPath>
 </defs>
</svg>
