<?xml version="1.0" encoding="utf-8" standalone="no"?>
<!DOCTYPE svg PUBLIC "-//W3C//DTD SVG 1.1//EN"
  "http://www.w3.org/Graphics/SVG/1.1/DTD/svg11.dtd">
<!-- Created with matplotlib (https://matplotlib.org/) -->
<svg height="322.176313pt" version="1.1" viewBox="0 0 406.642188 322.176313" width="406.642188pt" xmlns="http://www.w3.org/2000/svg" xmlns:xlink="http://www.w3.org/1999/xlink">
 <defs>
  <style type="text/css">
*{stroke-linecap:butt;stroke-linejoin:round;}
  </style>
 </defs>
 <g id="figure_1">
  <g id="patch_1">
   <path d="M 0 322.176313
L 406.642188 322.176313
L 406.642188 0
L 0 0
z
" style="fill:#ffffff;stroke:#ffffff;stroke-linejoin:miter;"/>
  </g>
  <g id="axes_1">
   <g id="patch_2">
    <path d="M 46.772188 286.695376
L 403.892188 286.695376
L 403.892188 20.583376
L 46.772188 20.583376
z
" style="fill:none;"/>
   </g>
   <g id="matplotlib.axis_1">
    <g id="xtick_1">
     <g id="line2d_1">
      <path clip-path="url(#pfa3872102b)" d="M 63.004915 286.695376
L 63.004915 20.583376
" style="fill:none;stroke:#e5e5e5;stroke-width:0.8;"/>
     </g>
     <g id="line2d_2">
      <path d="M 63.004915 286.695376
" style="fill:none;stroke:#000000;stroke-width:1.5;"/>
      <defs>
       <path d="M 0 0
L 0 2.75
" id="m0dbbc21b6f" style="stroke:#000000;"/>
      </defs>
      <g>
       <use style="stroke:#000000;" x="63.004915" xlink:href="#m0dbbc21b6f" y="286.695376"/>
      </g>
     </g>
     <g id="text_1">
      <!-- 0 -->
      <defs>
       <path d="M 31.78125 66.40625
Q 24.171875 66.40625 20.328125 58.90625
Q 16.5 51.421875 16.5 36.375
Q 16.5 21.390625 20.328125 13.890625
Q 24.171875 6.390625 31.78125 6.390625
Q 39.453125 6.390625 43.28125 13.890625
Q 47.125 21.390625 47.125 36.375
Q 47.125 51.421875 43.28125 58.90625
Q 39.453125 66.40625 31.78125 66.40625
z
M 31.78125 74.21875
Q 44.046875 74.21875 50.515625 64.515625
Q 56.984375 54.828125 56.984375 36.375
Q 56.984375 17.96875 50.515625 8.265625
Q 44.046875 -1.421875 31.78125 -1.421875
Q 19.53125 -1.421875 13.0625 8.265625
Q 6.59375 17.96875 6.59375 36.375
Q 6.59375 54.828125 13.0625 64.515625
Q 19.53125 74.21875 31.78125 74.21875
z
" id="DejaVuSans-48"/>
      </defs>
      <g style="fill:#4d4d4d;" transform="translate(59.187415 300.763501)scale(0.12 -0.12)">
       <use xlink:href="#DejaVuSans-48"/>
      </g>
     </g>
    </g>
    <g id="xtick_2">
     <g id="line2d_3">
      <path clip-path="url(#pfa3872102b)" d="M 144.168551 286.695376
L 144.168551 20.583376
" style="fill:none;stroke:#e5e5e5;stroke-width:0.8;"/>
     </g>
     <g id="line2d_4">
      <path d="M 144.168551 286.695376
" style="fill:none;stroke:#000000;stroke-width:1.5;"/>
      <g>
       <use style="stroke:#000000;" x="144.168551" xlink:href="#m0dbbc21b6f" y="286.695376"/>
      </g>
     </g>
     <g id="text_2">
      <!-- 0.25 -->
      <defs>
       <path d="M 10.6875 12.40625
L 21 12.40625
L 21 0
L 10.6875 0
z
" id="DejaVuSans-46"/>
       <path d="M 19.1875 8.296875
L 53.609375 8.296875
L 53.609375 0
L 7.328125 0
L 7.328125 8.296875
Q 12.9375 14.109375 22.625 23.890625
Q 32.328125 33.6875 34.8125 36.53125
Q 39.546875 41.84375 41.421875 45.53125
Q 43.3125 49.21875 43.3125 52.78125
Q 43.3125 58.59375 39.234375 62.25
Q 35.15625 65.921875 28.609375 65.921875
Q 23.96875 65.921875 18.8125 64.3125
Q 13.671875 62.703125 7.8125 59.421875
L 7.8125 69.390625
Q 13.765625 71.78125 18.9375 73
Q 24.125 74.21875 28.421875 74.21875
Q 39.75 74.21875 46.484375 68.546875
Q 53.21875 62.890625 53.21875 53.421875
Q 53.21875 48.921875 51.53125 44.890625
Q 49.859375 40.875 45.40625 35.40625
Q 44.1875 33.984375 37.640625 27.21875
Q 31.109375 20.453125 19.1875 8.296875
z
" id="DejaVuSans-50"/>
       <path d="M 10.796875 72.90625
L 49.515625 72.90625
L 49.515625 64.59375
L 19.828125 64.59375
L 19.828125 46.734375
Q 21.96875 47.46875 24.109375 47.828125
Q 26.265625 48.1875 28.421875 48.1875
Q 40.625 48.1875 47.75 41.5
Q 54.890625 34.8125 54.890625 23.390625
Q 54.890625 11.625 47.5625 5.09375
Q 40.234375 -1.421875 26.90625 -1.421875
Q 22.3125 -1.421875 17.546875 -0.640625
Q 12.796875 0.140625 7.71875 1.703125
L 7.71875 11.625
Q 12.109375 9.234375 16.796875 8.0625
Q 21.484375 6.890625 26.703125 6.890625
Q 35.15625 6.890625 40.078125 11.328125
Q 45.015625 15.765625 45.015625 23.390625
Q 45.015625 31 40.078125 35.4375
Q 35.15625 39.890625 26.703125 39.890625
Q 22.75 39.890625 18.8125 39.015625
Q 14.890625 38.140625 10.796875 36.28125
z
" id="DejaVuSans-53"/>
      </defs>
      <g style="fill:#4d4d4d;" transform="translate(130.809176 300.763501)scale(0.12 -0.12)">
       <use xlink:href="#DejaVuSans-48"/>
       <use x="63.623047" xlink:href="#DejaVuSans-46"/>
       <use x="95.410156" xlink:href="#DejaVuSans-50"/>
       <use x="159.033203" xlink:href="#DejaVuSans-53"/>
      </g>
     </g>
    </g>
    <g id="xtick_3">
     <g id="line2d_5">
      <path clip-path="url(#pfa3872102b)" d="M 225.332188 286.695376
L 225.332188 20.583376
" style="fill:none;stroke:#e5e5e5;stroke-width:0.8;"/>
     </g>
     <g id="line2d_6">
      <path d="M 225.332188 286.695376
" style="fill:none;stroke:#000000;stroke-width:1.5;"/>
      <g>
       <use style="stroke:#000000;" x="225.332188" xlink:href="#m0dbbc21b6f" y="286.695376"/>
      </g>
     </g>
     <g id="text_3">
      <!-- 0.50 -->
      <g style="fill:#4d4d4d;" transform="translate(211.972813 300.763501)scale(0.12 -0.12)">
       <use xlink:href="#DejaVuSans-48"/>
       <use x="63.623047" xlink:href="#DejaVuSans-46"/>
       <use x="95.410156" xlink:href="#DejaVuSans-53"/>
       <use x="159.033203" xlink:href="#DejaVuSans-48"/>
      </g>
     </g>
    </g>
    <g id="xtick_4">
     <g id="line2d_7">
      <path clip-path="url(#pfa3872102b)" d="M 306.495824 286.695376
L 306.495824 20.583376
" style="fill:none;stroke:#e5e5e5;stroke-width:0.8;"/>
     </g>
     <g id="line2d_8">
      <path d="M 306.495824 286.695376
" style="fill:none;stroke:#000000;stroke-width:1.5;"/>
      <g>
       <use style="stroke:#000000;" x="306.495824" xlink:href="#m0dbbc21b6f" y="286.695376"/>
      </g>
     </g>
     <g id="text_4">
      <!-- 0.75 -->
      <defs>
       <path d="M 8.203125 72.90625
L 55.078125 72.90625
L 55.078125 68.703125
L 28.609375 0
L 18.3125 0
L 43.21875 64.59375
L 8.203125 64.59375
z
" id="DejaVuSans-55"/>
      </defs>
      <g style="fill:#4d4d4d;" transform="translate(293.136449 300.763501)scale(0.12 -0.12)">
       <use xlink:href="#DejaVuSans-48"/>
       <use x="63.623047" xlink:href="#DejaVuSans-46"/>
       <use x="95.410156" xlink:href="#DejaVuSans-55"/>
       <use x="159.033203" xlink:href="#DejaVuSans-53"/>
      </g>
     </g>
    </g>
    <g id="xtick_5">
     <g id="line2d_9">
      <path clip-path="url(#pfa3872102b)" d="M 387.65946 286.695376
L 387.65946 20.583376
" style="fill:none;stroke:#e5e5e5;stroke-width:0.8;"/>
     </g>
     <g id="line2d_10">
      <path d="M 387.65946 286.695376
" style="fill:none;stroke:#000000;stroke-width:1.5;"/>
      <g>
       <use style="stroke:#000000;" x="387.65946" xlink:href="#m0dbbc21b6f" y="286.695376"/>
      </g>
     </g>
     <g id="text_5">
      <!-- 1 -->
      <defs>
       <path d="M 12.40625 8.296875
L 28.515625 8.296875
L 28.515625 63.921875
L 10.984375 60.40625
L 10.984375 69.390625
L 28.421875 72.90625
L 38.28125 72.90625
L 38.28125 8.296875
L 54.390625 8.296875
L 54.390625 0
L 12.40625 0
z
" id="DejaVuSans-49"/>
      </defs>
      <g style="fill:#4d4d4d;" transform="translate(383.84196 300.763501)scale(0.12 -0.12)">
       <use xlink:href="#DejaVuSans-49"/>
      </g>
     </g>
    </g>
    <g id="xtick_6">
     <g id="line2d_11">
      <path clip-path="url(#pfa3872102b)" d="M 103.586733 286.695376
L 103.586733 20.583376
" style="fill:none;stroke:#fafafa;"/>
     </g>
     <g id="line2d_12">
      <path d="M 103.586733 286.695376
" style="fill:none;stroke:#000000;stroke-width:1.5;"/>
     </g>
    </g>
    <g id="xtick_7">
     <g id="line2d_13">
      <path clip-path="url(#pfa3872102b)" d="M 184.750369 286.695376
L 184.750369 20.583376
" style="fill:none;stroke:#fafafa;"/>
     </g>
     <g id="line2d_14">
      <path d="M 184.750369 286.695376
" style="fill:none;stroke:#000000;stroke-width:1.5;"/>
     </g>
    </g>
    <g id="xtick_8">
     <g id="line2d_15">
      <path clip-path="url(#pfa3872102b)" d="M 265.914006 286.695376
L 265.914006 20.583376
" style="fill:none;stroke:#fafafa;"/>
     </g>
     <g id="line2d_16">
      <path d="M 265.914006 286.695376
" style="fill:none;stroke:#000000;stroke-width:1.5;"/>
     </g>
    </g>
    <g id="xtick_9">
     <g id="line2d_17">
      <path clip-path="url(#pfa3872102b)" d="M 347.077642 286.695376
L 347.077642 20.583376
" style="fill:none;stroke:#fafafa;"/>
     </g>
     <g id="line2d_18">
      <path d="M 347.077642 286.695376
" style="fill:none;stroke:#000000;stroke-width:1.5;"/>
     </g>
    </g>
    <g id="text_6">
     <!-- Median(FDR (BH)) -->
     <defs>
      <path d="M 9.8125 72.90625
L 24.515625 72.90625
L 43.109375 23.296875
L 61.8125 72.90625
L 76.515625 72.90625
L 76.515625 0
L 66.890625 0
L 66.890625 64.015625
L 48.09375 14.015625
L 38.1875 14.015625
L 19.390625 64.015625
L 19.390625 0
L 9.8125 0
z
" id="DejaVuSans-77"/>
      <path d="M 56.203125 29.59375
L 56.203125 25.203125
L 14.890625 25.203125
Q 15.484375 15.921875 20.484375 11.0625
Q 25.484375 6.203125 34.421875 6.203125
Q 39.59375 6.203125 44.453125 7.46875
Q 49.3125 8.734375 54.109375 11.28125
L 54.109375 2.78125
Q 49.265625 0.734375 44.1875 -0.34375
Q 39.109375 -1.421875 33.890625 -1.421875
Q 20.796875 -1.421875 13.15625 6.1875
Q 5.515625 13.8125 5.515625 26.8125
Q 5.515625 40.234375 12.765625 48.109375
Q 20.015625 56 32.328125 56
Q 43.359375 56 49.78125 48.890625
Q 56.203125 41.796875 56.203125 29.59375
z
M 47.21875 32.234375
Q 47.125 39.59375 43.09375 43.984375
Q 39.0625 48.390625 32.421875 48.390625
Q 24.90625 48.390625 20.390625 44.140625
Q 15.875 39.890625 15.1875 32.171875
z
" id="DejaVuSans-101"/>
      <path d="M 45.40625 46.390625
L 45.40625 75.984375
L 54.390625 75.984375
L 54.390625 0
L 45.40625 0
L 45.40625 8.203125
Q 42.578125 3.328125 38.25 0.953125
Q 33.9375 -1.421875 27.875 -1.421875
Q 17.96875 -1.421875 11.734375 6.484375
Q 5.515625 14.40625 5.515625 27.296875
Q 5.515625 40.1875 11.734375 48.09375
Q 17.96875 56 27.875 56
Q 33.9375 56 38.25 53.625
Q 42.578125 51.265625 45.40625 46.390625
z
M 14.796875 27.296875
Q 14.796875 17.390625 18.875 11.75
Q 22.953125 6.109375 30.078125 6.109375
Q 37.203125 6.109375 41.296875 11.75
Q 45.40625 17.390625 45.40625 27.296875
Q 45.40625 37.203125 41.296875 42.84375
Q 37.203125 48.484375 30.078125 48.484375
Q 22.953125 48.484375 18.875 42.84375
Q 14.796875 37.203125 14.796875 27.296875
z
" id="DejaVuSans-100"/>
      <path d="M 9.421875 54.6875
L 18.40625 54.6875
L 18.40625 0
L 9.421875 0
z
M 9.421875 75.984375
L 18.40625 75.984375
L 18.40625 64.59375
L 9.421875 64.59375
z
" id="DejaVuSans-105"/>
      <path d="M 34.28125 27.484375
Q 23.390625 27.484375 19.1875 25
Q 14.984375 22.515625 14.984375 16.5
Q 14.984375 11.71875 18.140625 8.90625
Q 21.296875 6.109375 26.703125 6.109375
Q 34.1875 6.109375 38.703125 11.40625
Q 43.21875 16.703125 43.21875 25.484375
L 43.21875 27.484375
z
M 52.203125 31.203125
L 52.203125 0
L 43.21875 0
L 43.21875 8.296875
Q 40.140625 3.328125 35.546875 0.953125
Q 30.953125 -1.421875 24.3125 -1.421875
Q 15.921875 -1.421875 10.953125 3.296875
Q 6 8.015625 6 15.921875
Q 6 25.140625 12.171875 29.828125
Q 18.359375 34.515625 30.609375 34.515625
L 43.21875 34.515625
L 43.21875 35.40625
Q 43.21875 41.609375 39.140625 45
Q 35.0625 48.390625 27.6875 48.390625
Q 23 48.390625 18.546875 47.265625
Q 14.109375 46.140625 10.015625 43.890625
L 10.015625 52.203125
Q 14.9375 54.109375 19.578125 55.046875
Q 24.21875 56 28.609375 56
Q 40.484375 56 46.34375 49.84375
Q 52.203125 43.703125 52.203125 31.203125
z
" id="DejaVuSans-97"/>
      <path d="M 54.890625 33.015625
L 54.890625 0
L 45.90625 0
L 45.90625 32.71875
Q 45.90625 40.484375 42.875 44.328125
Q 39.84375 48.1875 33.796875 48.1875
Q 26.515625 48.1875 22.3125 43.546875
Q 18.109375 38.921875 18.109375 30.90625
L 18.109375 0
L 9.078125 0
L 9.078125 54.6875
L 18.109375 54.6875
L 18.109375 46.1875
Q 21.34375 51.125 25.703125 53.5625
Q 30.078125 56 35.796875 56
Q 45.21875 56 50.046875 50.171875
Q 54.890625 44.34375 54.890625 33.015625
z
" id="DejaVuSans-110"/>
      <path d="M 31 75.875
Q 24.46875 64.65625 21.28125 53.65625
Q 18.109375 42.671875 18.109375 31.390625
Q 18.109375 20.125 21.3125 9.0625
Q 24.515625 -2 31 -13.1875
L 23.1875 -13.1875
Q 15.875 -1.703125 12.234375 9.375
Q 8.59375 20.453125 8.59375 31.390625
Q 8.59375 42.28125 12.203125 53.3125
Q 15.828125 64.359375 23.1875 75.875
z
" id="DejaVuSans-40"/>
      <path d="M 9.8125 72.90625
L 51.703125 72.90625
L 51.703125 64.59375
L 19.671875 64.59375
L 19.671875 43.109375
L 48.578125 43.109375
L 48.578125 34.8125
L 19.671875 34.8125
L 19.671875 0
L 9.8125 0
z
" id="DejaVuSans-70"/>
      <path d="M 19.671875 64.796875
L 19.671875 8.109375
L 31.59375 8.109375
Q 46.6875 8.109375 53.6875 14.9375
Q 60.6875 21.78125 60.6875 36.53125
Q 60.6875 51.171875 53.6875 57.984375
Q 46.6875 64.796875 31.59375 64.796875
z
M 9.8125 72.90625
L 30.078125 72.90625
Q 51.265625 72.90625 61.171875 64.09375
Q 71.09375 55.28125 71.09375 36.53125
Q 71.09375 17.671875 61.125 8.828125
Q 51.171875 0 30.078125 0
L 9.8125 0
z
" id="DejaVuSans-68"/>
      <path d="M 44.390625 34.1875
Q 47.5625 33.109375 50.5625 29.59375
Q 53.5625 26.078125 56.59375 19.921875
L 66.609375 0
L 56 0
L 46.6875 18.703125
Q 43.0625 26.03125 39.671875 28.421875
Q 36.28125 30.8125 30.421875 30.8125
L 19.671875 30.8125
L 19.671875 0
L 9.8125 0
L 9.8125 72.90625
L 32.078125 72.90625
Q 44.578125 72.90625 50.734375 67.671875
Q 56.890625 62.453125 56.890625 51.90625
Q 56.890625 45.015625 53.6875 40.46875
Q 50.484375 35.9375 44.390625 34.1875
z
M 19.671875 64.796875
L 19.671875 38.921875
L 32.078125 38.921875
Q 39.203125 38.921875 42.84375 42.21875
Q 46.484375 45.515625 46.484375 51.90625
Q 46.484375 58.296875 42.84375 61.546875
Q 39.203125 64.796875 32.078125 64.796875
z
" id="DejaVuSans-82"/>
      <path id="DejaVuSans-32"/>
      <path d="M 19.671875 34.8125
L 19.671875 8.109375
L 35.5 8.109375
Q 43.453125 8.109375 47.28125 11.40625
Q 51.125 14.703125 51.125 21.484375
Q 51.125 28.328125 47.28125 31.5625
Q 43.453125 34.8125 35.5 34.8125
z
M 19.671875 64.796875
L 19.671875 42.828125
L 34.28125 42.828125
Q 41.5 42.828125 45.03125 45.53125
Q 48.578125 48.25 48.578125 53.8125
Q 48.578125 59.328125 45.03125 62.0625
Q 41.5 64.796875 34.28125 64.796875
z
M 9.8125 72.90625
L 35.015625 72.90625
Q 46.296875 72.90625 52.390625 68.21875
Q 58.5 63.53125 58.5 54.890625
Q 58.5 48.1875 55.375 44.234375
Q 52.25 40.28125 46.1875 39.3125
Q 53.46875 37.75 57.5 32.78125
Q 61.53125 27.828125 61.53125 20.40625
Q 61.53125 10.640625 54.890625 5.3125
Q 48.25 0 35.984375 0
L 9.8125 0
z
" id="DejaVuSans-66"/>
      <path d="M 9.8125 72.90625
L 19.671875 72.90625
L 19.671875 43.015625
L 55.515625 43.015625
L 55.515625 72.90625
L 65.375 72.90625
L 65.375 0
L 55.515625 0
L 55.515625 34.71875
L 19.671875 34.71875
L 19.671875 0
L 9.8125 0
z
" id="DejaVuSans-72"/>
      <path d="M 8.015625 75.875
L 15.828125 75.875
Q 23.140625 64.359375 26.78125 53.3125
Q 30.421875 42.28125 30.421875 31.390625
Q 30.421875 20.453125 26.78125 9.375
Q 23.140625 -1.703125 15.828125 -13.1875
L 8.015625 -13.1875
Q 14.5 -2 17.703125 9.0625
Q 20.90625 20.125 20.90625 31.390625
Q 20.90625 42.671875 17.703125 53.65625
Q 14.5 64.65625 8.015625 75.875
z
" id="DejaVuSans-41"/>
     </defs>
     <g transform="translate(152.117891 319.056782)scale(0.15 -0.15)">
      <use xlink:href="#DejaVuSans-77"/>
      <use x="86.279297" xlink:href="#DejaVuSans-101"/>
      <use x="147.802734" xlink:href="#DejaVuSans-100"/>
      <use x="211.279297" xlink:href="#DejaVuSans-105"/>
      <use x="239.0625" xlink:href="#DejaVuSans-97"/>
      <use x="300.341797" xlink:href="#DejaVuSans-110"/>
      <use x="363.720703" xlink:href="#DejaVuSans-40"/>
      <use x="402.734375" xlink:href="#DejaVuSans-70"/>
      <use x="460.253906" xlink:href="#DejaVuSans-68"/>
      <use x="537.255859" xlink:href="#DejaVuSans-82"/>
      <use x="606.738281" xlink:href="#DejaVuSans-32"/>
      <use x="638.525391" xlink:href="#DejaVuSans-40"/>
      <use x="677.539062" xlink:href="#DejaVuSans-66"/>
      <use x="746.142578" xlink:href="#DejaVuSans-72"/>
      <use x="821.337891" xlink:href="#DejaVuSans-41"/>
      <use x="860.351562" xlink:href="#DejaVuSans-41"/>
     </g>
    </g>
   </g>
   <g id="matplotlib.axis_2">
    <g id="ytick_1">
     <g id="line2d_19">
      <path clip-path="url(#pfa3872102b)" d="M 46.772188 274.599376
L 403.892188 274.599376
" style="fill:none;stroke:#e5e5e5;stroke-width:0.8;"/>
     </g>
     <g id="line2d_20">
      <path d="M 46.772188 274.599376
" style="fill:none;stroke:#000000;stroke-width:1.5;"/>
      <defs>
       <path d="M 0 0
L -2.75 0
" id="m2a89dd7237" style="stroke:#000000;"/>
      </defs>
      <g>
       <use style="stroke:#000000;" x="46.772188" xlink:href="#m2a89dd7237" y="274.599376"/>
      </g>
     </g>
     <g id="text_7">
      <!-- 0 -->
      <g style="fill:#4d4d4d;" transform="translate(34.187188 277.910626)scale(0.12 -0.12)">
       <use xlink:href="#DejaVuSans-48"/>
      </g>
     </g>
    </g>
    <g id="ytick_2">
     <g id="line2d_21">
      <path clip-path="url(#pfa3872102b)" d="M 46.772188 214.119376
L 403.892188 214.119376
" style="fill:none;stroke:#e5e5e5;stroke-width:0.8;"/>
     </g>
     <g id="line2d_22">
      <path d="M 46.772188 214.119376
" style="fill:none;stroke:#000000;stroke-width:1.5;"/>
      <g>
       <use style="stroke:#000000;" x="46.772188" xlink:href="#m2a89dd7237" y="214.119376"/>
      </g>
     </g>
     <g id="text_8">
      <!-- 25 -->
      <g style="fill:#4d4d4d;" transform="translate(26.552188 217.430626)scale(0.12 -0.12)">
       <use xlink:href="#DejaVuSans-50"/>
       <use x="63.623047" xlink:href="#DejaVuSans-53"/>
      </g>
     </g>
    </g>
    <g id="ytick_3">
     <g id="line2d_23">
      <path clip-path="url(#pfa3872102b)" d="M 46.772188 153.639376
L 403.892188 153.639376
" style="fill:none;stroke:#e5e5e5;stroke-width:0.8;"/>
     </g>
     <g id="line2d_24">
      <path d="M 46.772188 153.639376
" style="fill:none;stroke:#000000;stroke-width:1.5;"/>
      <g>
       <use style="stroke:#000000;" x="46.772188" xlink:href="#m2a89dd7237" y="153.639376"/>
      </g>
     </g>
     <g id="text_9">
      <!-- 50 -->
      <g style="fill:#4d4d4d;" transform="translate(26.552188 156.950626)scale(0.12 -0.12)">
       <use xlink:href="#DejaVuSans-53"/>
       <use x="63.623047" xlink:href="#DejaVuSans-48"/>
      </g>
     </g>
    </g>
    <g id="ytick_4">
     <g id="line2d_25">
      <path clip-path="url(#pfa3872102b)" d="M 46.772188 93.159376
L 403.892188 93.159376
" style="fill:none;stroke:#e5e5e5;stroke-width:0.8;"/>
     </g>
     <g id="line2d_26">
      <path d="M 46.772188 93.159376
" style="fill:none;stroke:#000000;stroke-width:1.5;"/>
      <g>
       <use style="stroke:#000000;" x="46.772188" xlink:href="#m2a89dd7237" y="93.159376"/>
      </g>
     </g>
     <g id="text_10">
      <!-- 75 -->
      <g style="fill:#4d4d4d;" transform="translate(26.552188 96.470626)scale(0.12 -0.12)">
       <use xlink:href="#DejaVuSans-55"/>
       <use x="63.623047" xlink:href="#DejaVuSans-53"/>
      </g>
     </g>
    </g>
    <g id="ytick_5">
     <g id="line2d_27">
      <path clip-path="url(#pfa3872102b)" d="M 46.772188 32.679376
L 403.892188 32.679376
" style="fill:none;stroke:#e5e5e5;stroke-width:0.8;"/>
     </g>
     <g id="line2d_28">
      <path d="M 46.772188 32.679376
" style="fill:none;stroke:#000000;stroke-width:1.5;"/>
      <g>
       <use style="stroke:#000000;" x="46.772188" xlink:href="#m2a89dd7237" y="32.679376"/>
      </g>
     </g>
     <g id="text_11">
      <!-- 100 -->
      <g style="fill:#4d4d4d;" transform="translate(18.917188 35.990626)scale(0.12 -0.12)">
       <use xlink:href="#DejaVuSans-49"/>
       <use x="63.623047" xlink:href="#DejaVuSans-48"/>
       <use x="127.246094" xlink:href="#DejaVuSans-48"/>
      </g>
     </g>
    </g>
    <g id="ytick_6">
     <g id="line2d_29">
      <path clip-path="url(#pfa3872102b)" d="M 46.772188 244.359376
L 403.892188 244.359376
" style="fill:none;stroke:#fafafa;"/>
     </g>
     <g id="line2d_30">
      <path d="M 46.772188 244.359376
" style="fill:none;stroke:#000000;stroke-width:1.5;"/>
     </g>
    </g>
    <g id="ytick_7">
     <g id="line2d_31">
      <path clip-path="url(#pfa3872102b)" d="M 46.772188 183.879376
L 403.892188 183.879376
" style="fill:none;stroke:#fafafa;"/>
     </g>
     <g id="line2d_32">
      <path d="M 46.772188 183.879376
" style="fill:none;stroke:#000000;stroke-width:1.5;"/>
     </g>
    </g>
    <g id="ytick_8">
     <g id="line2d_33">
      <path clip-path="url(#pfa3872102b)" d="M 46.772188 123.399376
L 403.892188 123.399376
" style="fill:none;stroke:#fafafa;"/>
     </g>
     <g id="line2d_34">
      <path d="M 46.772188 123.399376
" style="fill:none;stroke:#000000;stroke-width:1.5;"/>
     </g>
    </g>
    <g id="ytick_9">
     <g id="line2d_35">
      <path clip-path="url(#pfa3872102b)" d="M 46.772188 62.919376
L 403.892188 62.919376
" style="fill:none;stroke:#fafafa;"/>
     </g>
     <g id="line2d_36">
      <path d="M 46.772188 62.919376
" style="fill:none;stroke:#000000;stroke-width:1.5;"/>
     </g>
    </g>
    <g id="text_12">
     <!-- Genericness (percentile of ranking) -->
     <defs>
      <path d="M 59.515625 10.40625
L 59.515625 29.984375
L 43.40625 29.984375
L 43.40625 38.09375
L 69.28125 38.09375
L 69.28125 6.78125
Q 63.578125 2.734375 56.6875 0.65625
Q 49.8125 -1.421875 42 -1.421875
Q 24.90625 -1.421875 15.25 8.5625
Q 5.609375 18.5625 5.609375 36.375
Q 5.609375 54.25 15.25 64.234375
Q 24.90625 74.21875 42 74.21875
Q 49.125 74.21875 55.546875 72.453125
Q 61.96875 70.703125 67.390625 67.28125
L 67.390625 56.78125
Q 61.921875 61.421875 55.765625 63.765625
Q 49.609375 66.109375 42.828125 66.109375
Q 29.4375 66.109375 22.71875 58.640625
Q 16.015625 51.171875 16.015625 36.375
Q 16.015625 21.625 22.71875 14.15625
Q 29.4375 6.6875 42.828125 6.6875
Q 48.046875 6.6875 52.140625 7.59375
Q 56.25 8.5 59.515625 10.40625
z
" id="DejaVuSans-71"/>
      <path d="M 41.109375 46.296875
Q 39.59375 47.171875 37.8125 47.578125
Q 36.03125 48 33.890625 48
Q 26.265625 48 22.1875 43.046875
Q 18.109375 38.09375 18.109375 28.8125
L 18.109375 0
L 9.078125 0
L 9.078125 54.6875
L 18.109375 54.6875
L 18.109375 46.1875
Q 20.953125 51.171875 25.484375 53.578125
Q 30.03125 56 36.53125 56
Q 37.453125 56 38.578125 55.875
Q 39.703125 55.765625 41.0625 55.515625
z
" id="DejaVuSans-114"/>
      <path d="M 48.78125 52.59375
L 48.78125 44.1875
Q 44.96875 46.296875 41.140625 47.34375
Q 37.3125 48.390625 33.40625 48.390625
Q 24.65625 48.390625 19.8125 42.84375
Q 14.984375 37.3125 14.984375 27.296875
Q 14.984375 17.28125 19.8125 11.734375
Q 24.65625 6.203125 33.40625 6.203125
Q 37.3125 6.203125 41.140625 7.25
Q 44.96875 8.296875 48.78125 10.40625
L 48.78125 2.09375
Q 45.015625 0.34375 40.984375 -0.53125
Q 36.96875 -1.421875 32.421875 -1.421875
Q 20.0625 -1.421875 12.78125 6.34375
Q 5.515625 14.109375 5.515625 27.296875
Q 5.515625 40.671875 12.859375 48.328125
Q 20.21875 56 33.015625 56
Q 37.15625 56 41.109375 55.140625
Q 45.0625 54.296875 48.78125 52.59375
z
" id="DejaVuSans-99"/>
      <path d="M 44.28125 53.078125
L 44.28125 44.578125
Q 40.484375 46.53125 36.375 47.5
Q 32.28125 48.484375 27.875 48.484375
Q 21.1875 48.484375 17.84375 46.4375
Q 14.5 44.390625 14.5 40.28125
Q 14.5 37.15625 16.890625 35.375
Q 19.28125 33.59375 26.515625 31.984375
L 29.59375 31.296875
Q 39.15625 29.25 43.1875 25.515625
Q 47.21875 21.78125 47.21875 15.09375
Q 47.21875 7.46875 41.1875 3.015625
Q 35.15625 -1.421875 24.609375 -1.421875
Q 20.21875 -1.421875 15.453125 -0.5625
Q 10.6875 0.296875 5.421875 2
L 5.421875 11.28125
Q 10.40625 8.6875 15.234375 7.390625
Q 20.0625 6.109375 24.8125 6.109375
Q 31.15625 6.109375 34.5625 8.28125
Q 37.984375 10.453125 37.984375 14.40625
Q 37.984375 18.0625 35.515625 20.015625
Q 33.0625 21.96875 24.703125 23.78125
L 21.578125 24.515625
Q 13.234375 26.265625 9.515625 29.90625
Q 5.8125 33.546875 5.8125 39.890625
Q 5.8125 47.609375 11.28125 51.796875
Q 16.75 56 26.8125 56
Q 31.78125 56 36.171875 55.265625
Q 40.578125 54.546875 44.28125 53.078125
z
" id="DejaVuSans-115"/>
      <path d="M 18.109375 8.203125
L 18.109375 -20.796875
L 9.078125 -20.796875
L 9.078125 54.6875
L 18.109375 54.6875
L 18.109375 46.390625
Q 20.953125 51.265625 25.265625 53.625
Q 29.59375 56 35.59375 56
Q 45.5625 56 51.78125 48.09375
Q 58.015625 40.1875 58.015625 27.296875
Q 58.015625 14.40625 51.78125 6.484375
Q 45.5625 -1.421875 35.59375 -1.421875
Q 29.59375 -1.421875 25.265625 0.953125
Q 20.953125 3.328125 18.109375 8.203125
z
M 48.6875 27.296875
Q 48.6875 37.203125 44.609375 42.84375
Q 40.53125 48.484375 33.40625 48.484375
Q 26.265625 48.484375 22.1875 42.84375
Q 18.109375 37.203125 18.109375 27.296875
Q 18.109375 17.390625 22.1875 11.75
Q 26.265625 6.109375 33.40625 6.109375
Q 40.53125 6.109375 44.609375 11.75
Q 48.6875 17.390625 48.6875 27.296875
z
" id="DejaVuSans-112"/>
      <path d="M 18.3125 70.21875
L 18.3125 54.6875
L 36.8125 54.6875
L 36.8125 47.703125
L 18.3125 47.703125
L 18.3125 18.015625
Q 18.3125 11.328125 20.140625 9.421875
Q 21.96875 7.515625 27.59375 7.515625
L 36.8125 7.515625
L 36.8125 0
L 27.59375 0
Q 17.1875 0 13.234375 3.875
Q 9.28125 7.765625 9.28125 18.015625
L 9.28125 47.703125
L 2.6875 47.703125
L 2.6875 54.6875
L 9.28125 54.6875
L 9.28125 70.21875
z
" id="DejaVuSans-116"/>
      <path d="M 9.421875 75.984375
L 18.40625 75.984375
L 18.40625 0
L 9.421875 0
z
" id="DejaVuSans-108"/>
      <path d="M 30.609375 48.390625
Q 23.390625 48.390625 19.1875 42.75
Q 14.984375 37.109375 14.984375 27.296875
Q 14.984375 17.484375 19.15625 11.84375
Q 23.34375 6.203125 30.609375 6.203125
Q 37.796875 6.203125 41.984375 11.859375
Q 46.1875 17.53125 46.1875 27.296875
Q 46.1875 37.015625 41.984375 42.703125
Q 37.796875 48.390625 30.609375 48.390625
z
M 30.609375 56
Q 42.328125 56 49.015625 48.375
Q 55.71875 40.765625 55.71875 27.296875
Q 55.71875 13.875 49.015625 6.21875
Q 42.328125 -1.421875 30.609375 -1.421875
Q 18.84375 -1.421875 12.171875 6.21875
Q 5.515625 13.875 5.515625 27.296875
Q 5.515625 40.765625 12.171875 48.375
Q 18.84375 56 30.609375 56
z
" id="DejaVuSans-111"/>
      <path d="M 37.109375 75.984375
L 37.109375 68.5
L 28.515625 68.5
Q 23.6875 68.5 21.796875 66.546875
Q 19.921875 64.59375 19.921875 59.515625
L 19.921875 54.6875
L 34.71875 54.6875
L 34.71875 47.703125
L 19.921875 47.703125
L 19.921875 0
L 10.890625 0
L 10.890625 47.703125
L 2.296875 47.703125
L 2.296875 54.6875
L 10.890625 54.6875
L 10.890625 58.5
Q 10.890625 67.625 15.140625 71.796875
Q 19.390625 75.984375 28.609375 75.984375
z
" id="DejaVuSans-102"/>
      <path d="M 9.078125 75.984375
L 18.109375 75.984375
L 18.109375 31.109375
L 44.921875 54.6875
L 56.390625 54.6875
L 27.390625 29.109375
L 57.625 0
L 45.90625 0
L 18.109375 26.703125
L 18.109375 0
L 9.078125 0
z
" id="DejaVuSans-107"/>
      <path d="M 45.40625 27.984375
Q 45.40625 37.75 41.375 43.109375
Q 37.359375 48.484375 30.078125 48.484375
Q 22.859375 48.484375 18.828125 43.109375
Q 14.796875 37.75 14.796875 27.984375
Q 14.796875 18.265625 18.828125 12.890625
Q 22.859375 7.515625 30.078125 7.515625
Q 37.359375 7.515625 41.375 12.890625
Q 45.40625 18.265625 45.40625 27.984375
z
M 54.390625 6.78125
Q 54.390625 -7.171875 48.1875 -13.984375
Q 42 -20.796875 29.203125 -20.796875
Q 24.46875 -20.796875 20.265625 -20.09375
Q 16.0625 -19.390625 12.109375 -17.921875
L 12.109375 -9.1875
Q 16.0625 -11.328125 19.921875 -12.34375
Q 23.78125 -13.375 27.78125 -13.375
Q 36.625 -13.375 41.015625 -8.765625
Q 45.40625 -4.15625 45.40625 5.171875
L 45.40625 9.625
Q 42.625 4.78125 38.28125 2.390625
Q 33.9375 0 27.875 0
Q 17.828125 0 11.671875 7.65625
Q 5.515625 15.328125 5.515625 27.984375
Q 5.515625 40.671875 11.671875 48.328125
Q 17.828125 56 27.875 56
Q 33.9375 56 38.28125 53.609375
Q 42.625 51.21875 45.40625 46.390625
L 45.40625 54.6875
L 54.390625 54.6875
z
" id="DejaVuSans-103"/>
     </defs>
     <g transform="translate(11.397656 284.455126)rotate(-90)scale(0.15 -0.15)">
      <use xlink:href="#DejaVuSans-71"/>
      <use x="77.490234" xlink:href="#DejaVuSans-101"/>
      <use x="139.013672" xlink:href="#DejaVuSans-110"/>
      <use x="202.392578" xlink:href="#DejaVuSans-101"/>
      <use x="263.916016" xlink:href="#DejaVuSans-114"/>
      <use x="305.029297" xlink:href="#DejaVuSans-105"/>
      <use x="332.8125" xlink:href="#DejaVuSans-99"/>
      <use x="387.792969" xlink:href="#DejaVuSans-110"/>
      <use x="451.171875" xlink:href="#DejaVuSans-101"/>
      <use x="512.695312" xlink:href="#DejaVuSans-115"/>
      <use x="564.794922" xlink:href="#DejaVuSans-115"/>
      <use x="616.894531" xlink:href="#DejaVuSans-32"/>
      <use x="648.681641" xlink:href="#DejaVuSans-40"/>
      <use x="687.695312" xlink:href="#DejaVuSans-112"/>
      <use x="751.171875" xlink:href="#DejaVuSans-101"/>
      <use x="812.695312" xlink:href="#DejaVuSans-114"/>
      <use x="853.777344" xlink:href="#DejaVuSans-99"/>
      <use x="908.757812" xlink:href="#DejaVuSans-101"/>
      <use x="970.28125" xlink:href="#DejaVuSans-110"/>
      <use x="1033.660156" xlink:href="#DejaVuSans-116"/>
      <use x="1072.869141" xlink:href="#DejaVuSans-105"/>
      <use x="1100.652344" xlink:href="#DejaVuSans-108"/>
      <use x="1128.435547" xlink:href="#DejaVuSans-101"/>
      <use x="1189.958984" xlink:href="#DejaVuSans-32"/>
      <use x="1221.746094" xlink:href="#DejaVuSans-111"/>
      <use x="1282.927734" xlink:href="#DejaVuSans-102"/>
      <use x="1318.132812" xlink:href="#DejaVuSans-32"/>
      <use x="1349.919922" xlink:href="#DejaVuSans-114"/>
      <use x="1391.033203" xlink:href="#DejaVuSans-97"/>
      <use x="1452.3125" xlink:href="#DejaVuSans-110"/>
      <use x="1515.691406" xlink:href="#DejaVuSans-107"/>
      <use x="1573.601562" xlink:href="#DejaVuSans-105"/>
      <use x="1601.384766" xlink:href="#DejaVuSans-110"/>
      <use x="1664.763672" xlink:href="#DejaVuSans-103"/>
      <use x="1728.240234" xlink:href="#DejaVuSans-41"/>
     </g>
    </g>
   </g>
   <g id="PathCollection_1">
    <path clip-path="url(#pfa3872102b)" d="M 63.005584 34.45183
C 63.475645 34.45183 63.926516 34.265073 64.258898 33.93269
C 64.591281 33.600307 64.778038 33.149436 64.778038 32.679376
C 64.778038 32.209316 64.591281 31.758444 64.258898 31.426062
C 63.926516 31.093679 63.475645 30.906922 63.005584 30.906922
C 62.535524 30.906922 62.084653 31.093679 61.75227 31.426062
C 61.419887 31.758444 61.23313 32.209316 61.23313 32.679376
C 61.23313 33.149436 61.419887 33.600307 61.75227 33.93269
C 62.084653 34.265073 62.535524 34.45183 63.005584 34.45183
z
" style="stroke:#000000;stroke-width:0.886227;"/>
    <path clip-path="url(#pfa3872102b)" d="M 63.021141 39.388973
C 63.491201 39.388973 63.942072 39.202216 64.274455 38.869833
C 64.606837 38.53745 64.793594 38.086579 64.793594 37.616519
C 64.793594 37.146458 64.606837 36.695587 64.274455 36.363205
C 63.942072 36.030822 63.491201 35.844065 63.021141 35.844065
C 62.55108 35.844065 62.100209 36.030822 61.767826 36.363205
C 61.435444 36.695587 61.248687 37.146458 61.248687 37.616519
C 61.248687 38.086579 61.435444 38.53745 61.767826 38.869833
C 62.100209 39.202216 62.55108 39.388973 63.021141 39.388973
z
" style="stroke:#000000;stroke-width:0.886227;"/>
    <path clip-path="url(#pfa3872102b)" d="M 63.129593 44.326115
C 63.599654 44.326115 64.050525 44.139358 64.382908 43.806976
C 64.71529 43.474593 64.902047 43.023722 64.902047 42.553662
C 64.902047 42.083601 64.71529 41.63273 64.382908 41.300347
C 64.050525 40.967965 63.599654 40.781208 63.129593 40.781208
C 62.659533 40.781208 62.208662 40.967965 61.876279 41.300347
C 61.543896 41.63273 61.35714 42.083601 61.35714 42.553662
C 61.35714 43.023722 61.543896 43.474593 61.876279 43.806976
C 62.208662 44.139358 62.659533 44.326115 63.129593 44.326115
z
" style="stroke:#000000;stroke-width:0.886227;"/>
    <path clip-path="url(#pfa3872102b)" d="M 63.189423 49.263258
C 63.659483 49.263258 64.110354 49.076501 64.442737 48.744119
C 64.77512 48.411736 64.961877 47.960865 64.961877 47.490804
C 64.961877 47.020744 64.77512 46.569873 64.442737 46.23749
C 64.110354 45.905107 63.659483 45.718351 63.189423 45.718351
C 62.719362 45.718351 62.268491 45.905107 61.936109 46.23749
C 61.603726 46.569873 61.416969 47.020744 61.416969 47.490804
C 61.416969 47.960865 61.603726 48.411736 61.936109 48.744119
C 62.268491 49.076501 62.719362 49.263258 63.189423 49.263258
z
" style="stroke:#000000;stroke-width:0.886227;"/>
    <path clip-path="url(#pfa3872102b)" d="M 63.415103 54.200401
C 63.885163 54.200401 64.336034 54.013644 64.668417 53.681261
C 65.0008 53.348879 65.187557 52.898008 65.187557 52.427947
C 65.187557 51.957887 65.0008 51.507016 64.668417 51.174633
C 64.336034 50.84225 63.885163 50.655493 63.415103 50.655493
C 62.945043 50.655493 62.494172 50.84225 62.161789 51.174633
C 61.829406 51.507016 61.642649 51.957887 61.642649 52.427947
C 61.642649 52.898008 61.829406 53.348879 62.161789 53.681261
C 62.494172 54.013644 62.945043 54.200401 63.415103 54.200401
z
" style="stroke:#000000;stroke-width:0.886227;"/>
    <path clip-path="url(#pfa3872102b)" d="M 63.599108 59.137544
C 64.069168 59.137544 64.520039 58.950787 64.852422 58.618404
C 65.184805 58.286021 65.371562 57.83515 65.371562 57.36509
C 65.371562 56.89503 65.184805 56.444159 64.852422 56.111776
C 64.520039 55.779393 64.069168 55.592636 63.599108 55.592636
C 63.129048 55.592636 62.678177 55.779393 62.345794 56.111776
C 62.013411 56.444159 61.826654 56.89503 61.826654 57.36509
C 61.826654 57.83515 62.013411 58.286021 62.345794 58.618404
C 62.678177 58.950787 63.129048 59.137544 63.599108 59.137544
z
" style="stroke:#000000;stroke-width:0.886227;"/>
    <path clip-path="url(#pfa3872102b)" d="M 64.024043 64.074687
C 64.494104 64.074687 64.944975 63.88793 65.277357 63.555547
C 65.60974 63.223164 65.796497 62.772293 65.796497 62.302233
C 65.796497 61.832173 65.60974 61.381302 65.277357 61.048919
C 64.944975 60.716536 64.494104 60.529779 64.024043 60.529779
C 63.553983 60.529779 63.103112 60.716536 62.770729 61.048919
C 62.438346 61.381302 62.25159 61.832173 62.25159 62.302233
C 62.25159 62.772293 62.438346 63.223164 62.770729 63.555547
C 63.103112 63.88793 63.553983 64.074687 64.024043 64.074687
z
" style="stroke:#000000;stroke-width:0.886227;"/>
    <path clip-path="url(#pfa3872102b)" d="M 64.404204 69.01183
C 64.874265 69.01183 65.325136 68.825073 65.657518 68.49269
C 65.989901 68.160307 66.176658 67.709436 66.176658 67.239376
C 66.176658 66.769316 65.989901 66.318444 65.657518 65.986062
C 65.325136 65.653679 64.874265 65.466922 64.404204 65.466922
C 63.934144 65.466922 63.483273 65.653679 63.15089 65.986062
C 62.818507 66.318444 62.63175 66.769316 62.63175 67.239376
C 62.63175 67.709436 62.818507 68.160307 63.15089 68.49269
C 63.483273 68.825073 63.934144 69.01183 64.404204 69.01183
z
" style="stroke:#000000;stroke-width:0.886227;"/>
    <path clip-path="url(#pfa3872102b)" d="M 65.851135 73.948973
C 66.321195 73.948973 66.772066 73.762216 67.104449 73.429833
C 67.436832 73.09745 67.623589 72.646579 67.623589 72.176519
C 67.623589 71.706458 67.436832 71.255587 67.104449 70.923205
C 66.772066 70.590822 66.321195 70.404065 65.851135 70.404065
C 65.381075 70.404065 64.930204 70.590822 64.597821 70.923205
C 64.265438 71.255587 64.078681 71.706458 64.078681 72.176519
C 64.078681 72.646579 64.265438 73.09745 64.597821 73.429833
C 64.930204 73.762216 65.381075 73.948973 65.851135 73.948973
z
" style="stroke:#000000;stroke-width:0.886227;"/>
    <path clip-path="url(#pfa3872102b)" d="M 66.28554 78.886115
C 66.755601 78.886115 67.206472 78.699358 67.538855 78.366976
C 67.871237 78.034593 68.057994 77.583722 68.057994 77.113662
C 68.057994 76.643601 67.871237 76.19273 67.538855 75.860347
C 67.206472 75.527965 66.755601 75.341208 66.28554 75.341208
C 65.81548 75.341208 65.364609 75.527965 65.032226 75.860347
C 64.699843 76.19273 64.513087 76.643601 64.513087 77.113662
C 64.513087 77.583722 64.699843 78.034593 65.032226 78.366976
C 65.364609 78.699358 65.81548 78.886115 66.28554 78.886115
z
" style="stroke:#000000;stroke-width:0.886227;"/>
    <path clip-path="url(#pfa3872102b)" d="M 69.245647 83.823258
C 69.715707 83.823258 70.166578 83.636501 70.498961 83.304119
C 70.831344 82.971736 71.018101 82.520865 71.018101 82.050804
C 71.018101 81.580744 70.831344 81.129873 70.498961 80.79749
C 70.166578 80.465107 69.715707 80.278351 69.245647 80.278351
C 68.775587 80.278351 68.324716 80.465107 67.992333 80.79749
C 67.65995 81.129873 67.473193 81.580744 67.473193 82.050804
C 67.473193 82.520865 67.65995 82.971736 67.992333 83.304119
C 68.324716 83.636501 68.775587 83.823258 69.245647 83.823258
z
" style="stroke:#000000;stroke-width:0.886227;"/>
    <path clip-path="url(#pfa3872102b)" d="M 74.364356 93.697544
C 74.834416 93.697544 75.285287 93.510787 75.61767 93.178404
C 75.950053 92.846021 76.13681 92.39515 76.13681 91.92509
C 76.13681 91.45503 75.950053 91.004159 75.61767 90.671776
C 75.285287 90.339393 74.834416 90.152636 74.364356 90.152636
C 73.894296 90.152636 73.443425 90.339393 73.111042 90.671776
C 72.778659 91.004159 72.591902 91.45503 72.591902 91.92509
C 72.591902 92.39515 72.778659 92.846021 73.111042 93.178404
C 73.443425 93.510787 73.894296 93.697544 74.364356 93.697544
z
" style="stroke:#000000;stroke-width:0.886227;"/>
    <path clip-path="url(#pfa3872102b)" d="M 70.114759 88.760401
C 70.584819 88.760401 71.03569 88.573644 71.368073 88.241261
C 71.700456 87.908879 71.887213 87.458008 71.887213 86.987947
C 71.887213 86.517887 71.700456 86.067016 71.368073 85.734633
C 71.03569 85.40225 70.584819 85.215493 70.114759 85.215493
C 69.644699 85.215493 69.193828 85.40225 68.861445 85.734633
C 68.529062 86.067016 68.342305 86.517887 68.342305 86.987947
C 68.342305 87.458008 68.529062 87.908879 68.861445 88.241261
C 69.193828 88.573644 69.644699 88.760401 70.114759 88.760401
z
" style="stroke:#000000;stroke-width:0.886227;"/>
    <path clip-path="url(#pfa3872102b)" d="M 82.005587 101.103258
C 82.475647 101.103258 82.926518 100.916501 83.258901 100.584119
C 83.591284 100.251736 83.77804 99.800865 83.77804 99.330804
C 83.77804 98.860744 83.591284 98.409873 83.258901 98.07749
C 82.926518 97.745107 82.475647 97.558351 82.005587 97.558351
C 81.535526 97.558351 81.084655 97.745107 80.752272 98.07749
C 80.41989 98.409873 80.233133 98.860744 80.233133 99.330804
C 80.233133 99.800865 80.41989 100.251736 80.752272 100.584119
C 81.084655 100.916501 81.535526 101.103258 82.005587 101.103258
z
" style="stroke:#000000;stroke-width:0.886227;"/>
    <path clip-path="url(#pfa3872102b)" d="M 82.005587 101.103258
C 82.475647 101.103258 82.926518 100.916501 83.258901 100.584119
C 83.591284 100.251736 83.77804 99.800865 83.77804 99.330804
C 83.77804 98.860744 83.591284 98.409873 83.258901 98.07749
C 82.926518 97.745107 82.475647 97.558351 82.005587 97.558351
C 81.535526 97.558351 81.084655 97.745107 80.752272 98.07749
C 80.41989 98.409873 80.233133 98.860744 80.233133 99.330804
C 80.233133 99.800865 80.41989 100.251736 80.752272 100.584119
C 81.084655 100.916501 81.535526 101.103258 82.005587 101.103258
z
" style="stroke:#000000;stroke-width:0.886227;"/>
    <path clip-path="url(#pfa3872102b)" d="M 86.838407 108.508973
C 87.308467 108.508973 87.759338 108.322216 88.091721 107.989833
C 88.424104 107.65745 88.610861 107.206579 88.610861 106.736519
C 88.610861 106.266458 88.424104 105.815587 88.091721 105.483205
C 87.759338 105.150822 87.308467 104.964065 86.838407 104.964065
C 86.368347 104.964065 85.917476 105.150822 85.585093 105.483205
C 85.25271 105.815587 85.065953 106.266458 85.065953 106.736519
C 85.065953 107.206579 85.25271 107.65745 85.585093 107.989833
C 85.917476 108.322216 86.368347 108.508973 86.838407 108.508973
z
" style="stroke:#000000;stroke-width:0.886227;"/>
    <path clip-path="url(#pfa3872102b)" d="M 88.786101 113.446115
C 89.256161 113.446115 89.707032 113.259358 90.039415 112.926976
C 90.371798 112.594593 90.558555 112.143722 90.558555 111.673662
C 90.558555 111.203601 90.371798 110.75273 90.039415 110.420347
C 89.707032 110.087965 89.256161 109.901208 88.786101 109.901208
C 88.316041 109.901208 87.865169 110.087965 87.532787 110.420347
C 87.200404 110.75273 87.013647 111.203601 87.013647 111.673662
C 87.013647 112.143722 87.200404 112.594593 87.532787 112.926976
C 87.865169 113.259358 88.316041 113.446115 88.786101 113.446115
z
" style="stroke:#000000;stroke-width:0.886227;"/>
    <path clip-path="url(#pfa3872102b)" d="M 97.570459 118.383258
C 98.040519 118.383258 98.49139 118.196501 98.823773 117.864119
C 99.156156 117.531736 99.342912 117.080865 99.342912 116.610804
C 99.342912 116.140744 99.156156 115.689873 98.823773 115.35749
C 98.49139 115.025107 98.040519 114.838351 97.570459 114.838351
C 97.100398 114.838351 96.649527 115.025107 96.317144 115.35749
C 95.984762 115.689873 95.798005 116.140744 95.798005 116.610804
C 95.798005 117.080865 95.984762 117.531736 96.317144 117.864119
C 96.649527 118.196501 97.100398 118.383258 97.570459 118.383258
z
" style="stroke:#000000;stroke-width:0.886227;"/>
    <path clip-path="url(#pfa3872102b)" d="M 97.940503 123.320401
C 98.410563 123.320401 98.861435 123.133644 99.193817 122.801261
C 99.5262 122.468879 99.712957 122.018008 99.712957 121.547947
C 99.712957 121.077887 99.5262 120.627016 99.193817 120.294633
C 98.861435 119.96225 98.410563 119.775493 97.940503 119.775493
C 97.470443 119.775493 97.019572 119.96225 96.687189 120.294633
C 96.354806 120.627016 96.168049 121.077887 96.168049 121.547947
C 96.168049 122.018008 96.354806 122.468879 96.687189 122.801261
C 97.019572 123.133644 97.470443 123.320401 97.940503 123.320401
z
" style="stroke:#000000;stroke-width:0.886227;"/>
    <path clip-path="url(#pfa3872102b)" d="M 99.020102 130.726115
C 99.490162 130.726115 99.941033 130.539358 100.273416 130.206976
C 100.605799 129.874593 100.792555 129.423722 100.792555 128.953662
C 100.792555 128.483601 100.605799 128.03273 100.273416 127.700347
C 99.941033 127.367965 99.490162 127.181208 99.020102 127.181208
C 98.550041 127.181208 98.09917 127.367965 97.766787 127.700347
C 97.434405 128.03273 97.247648 128.483601 97.247648 128.953662
C 97.247648 129.423722 97.434405 129.874593 97.766787 130.206976
C 98.09917 130.539358 98.550041 130.726115 99.020102 130.726115
z
" style="stroke:#000000;stroke-width:0.886227;"/>
    <path clip-path="url(#pfa3872102b)" d="M 99.020102 130.726115
C 99.490162 130.726115 99.941033 130.539358 100.273416 130.206976
C 100.605799 129.874593 100.792555 129.423722 100.792555 128.953662
C 100.792555 128.483601 100.605799 128.03273 100.273416 127.700347
C 99.941033 127.367965 99.490162 127.181208 99.020102 127.181208
C 98.550041 127.181208 98.09917 127.367965 97.766787 127.700347
C 97.434405 128.03273 97.247648 128.483601 97.247648 128.953662
C 97.247648 129.423722 97.434405 129.874593 97.766787 130.206976
C 98.09917 130.539358 98.550041 130.726115 99.020102 130.726115
z
" style="stroke:#000000;stroke-width:0.886227;"/>
    <path clip-path="url(#pfa3872102b)" d="M 104.624108 138.13183
C 105.094168 138.13183 105.545039 137.945073 105.877422 137.61269
C 106.209805 137.280307 106.396562 136.829436 106.396562 136.359376
C 106.396562 135.889316 106.209805 135.438444 105.877422 135.106062
C 105.545039 134.773679 105.094168 134.586922 104.624108 134.586922
C 104.154048 134.586922 103.703177 134.773679 103.370794 135.106062
C 103.038411 135.438444 102.851654 135.889316 102.851654 136.359376
C 102.851654 136.829436 103.038411 137.280307 103.370794 137.61269
C 103.703177 137.945073 104.154048 138.13183 104.624108 138.13183
z
" style="stroke:#000000;stroke-width:0.886227;"/>
    <path clip-path="url(#pfa3872102b)" d="M 104.745257 143.068973
C 105.215318 143.068973 105.666189 142.882216 105.998571 142.549833
C 106.330954 142.21745 106.517711 141.766579 106.517711 141.296519
C 106.517711 140.826458 106.330954 140.375587 105.998571 140.043205
C 105.666189 139.710822 105.215318 139.524065 104.745257 139.524065
C 104.275197 139.524065 103.824326 139.710822 103.491943 140.043205
C 103.15956 140.375587 102.972803 140.826458 102.972803 141.296519
C 102.972803 141.766579 103.15956 142.21745 103.491943 142.549833
C 103.824326 142.882216 104.275197 143.068973 104.745257 143.068973
z
" style="stroke:#000000;stroke-width:0.886227;"/>
    <path clip-path="url(#pfa3872102b)" d="M 114.6059 152.943258
C 115.075961 152.943258 115.526832 152.756501 115.859214 152.424119
C 116.191597 152.091736 116.378354 151.640865 116.378354 151.170804
C 116.378354 150.700744 116.191597 150.249873 115.859214 149.91749
C 115.526832 149.585107 115.075961 149.398351 114.6059 149.398351
C 114.13584 149.398351 113.684969 149.585107 113.352586 149.91749
C 113.020203 150.249873 112.833447 150.700744 112.833447 151.170804
C 112.833447 151.640865 113.020203 152.091736 113.352586 152.424119
C 113.684969 152.756501 114.13584 152.943258 114.6059 152.943258
z
" style="stroke:#000000;stroke-width:0.886227;"/>
    <path clip-path="url(#pfa3872102b)" d="M 108.324679 148.006115
C 108.794739 148.006115 109.24561 147.819358 109.577993 147.486976
C 109.910376 147.154593 110.097133 146.703722 110.097133 146.233662
C 110.097133 145.763601 109.910376 145.31273 109.577993 144.980347
C 109.24561 144.647965 108.794739 144.461208 108.324679 144.461208
C 107.854619 144.461208 107.403748 144.647965 107.071365 144.980347
C 106.738982 145.31273 106.552225 145.763601 106.552225 146.233662
C 106.552225 146.703722 106.738982 147.154593 107.071365 147.486976
C 107.403748 147.819358 107.854619 148.006115 108.324679 148.006115
z
" style="stroke:#000000;stroke-width:0.886227;"/>
    <path clip-path="url(#pfa3872102b)" d="M 119.632045 157.880401
C 120.102105 157.880401 120.552977 157.693644 120.885359 157.361261
C 121.217742 157.028879 121.404499 156.578008 121.404499 156.107947
C 121.404499 155.637887 121.217742 155.187016 120.885359 154.854633
C 120.552977 154.52225 120.102105 154.335493 119.632045 154.335493
C 119.161985 154.335493 118.711114 154.52225 118.378731 154.854633
C 118.046348 155.187016 117.859591 155.637887 117.859591 156.107947
C 117.859591 156.578008 118.046348 157.028879 118.378731 157.361261
C 118.711114 157.693644 119.161985 157.880401 119.632045 157.880401
z
" style="stroke:#000000;stroke-width:0.886227;"/>
    <path clip-path="url(#pfa3872102b)" d="M 148.213077 162.817544
C 148.683138 162.817544 149.134009 162.630787 149.466391 162.298404
C 149.798774 161.966021 149.985531 161.51515 149.985531 161.04509
C 149.985531 160.57503 149.798774 160.124159 149.466391 159.791776
C 149.134009 159.459393 148.683138 159.272636 148.213077 159.272636
C 147.743017 159.272636 147.292146 159.459393 146.959763 159.791776
C 146.62738 160.124159 146.440623 160.57503 146.440623 161.04509
C 146.440623 161.51515 146.62738 161.966021 146.959763 162.298404
C 147.292146 162.630787 147.743017 162.817544 148.213077 162.817544
z
" style="stroke:#000000;stroke-width:0.886227;"/>
    <path clip-path="url(#pfa3872102b)" d="M 153.651453 167.754687
C 154.121513 167.754687 154.572384 167.56793 154.904767 167.235547
C 155.23715 166.903164 155.423906 166.452293 155.423906 165.982233
C 155.423906 165.512173 155.23715 165.061302 154.904767 164.728919
C 154.572384 164.396536 154.121513 164.209779 153.651453 164.209779
C 153.181392 164.209779 152.730521 164.396536 152.398138 164.728919
C 152.065756 165.061302 151.878999 165.512173 151.878999 165.982233
C 151.878999 166.452293 152.065756 166.903164 152.398138 167.235547
C 152.730521 167.56793 153.181392 167.754687 153.651453 167.754687
z
" style="stroke:#000000;stroke-width:0.886227;"/>
    <path clip-path="url(#pfa3872102b)" d="M 161.83448 172.69183
C 162.30454 172.69183 162.755411 172.505073 163.087794 172.17269
C 163.420177 171.840307 163.606934 171.389436 163.606934 170.919376
C 163.606934 170.449316 163.420177 169.998444 163.087794 169.666062
C 162.755411 169.333679 162.30454 169.146922 161.83448 169.146922
C 161.36442 169.146922 160.913548 169.333679 160.581166 169.666062
C 160.248783 169.998444 160.062026 170.449316 160.062026 170.919376
C 160.062026 171.389436 160.248783 171.840307 160.581166 172.17269
C 160.913548 172.505073 161.36442 172.69183 161.83448 172.69183
z
" style="stroke:#000000;stroke-width:0.886227;"/>
    <path clip-path="url(#pfa3872102b)" d="M 173.062272 177.628973
C 173.532332 177.628973 173.983203 177.442216 174.315586 177.109833
C 174.647969 176.77745 174.834726 176.326579 174.834726 175.856519
C 174.834726 175.386458 174.647969 174.935587 174.315586 174.603205
C 173.983203 174.270822 173.532332 174.084065 173.062272 174.084065
C 172.592212 174.084065 172.141341 174.270822 171.808958 174.603205
C 171.476575 174.935587 171.289818 175.386458 171.289818 175.856519
C 171.289818 176.326579 171.476575 176.77745 171.808958 177.109833
C 172.141341 177.442216 172.592212 177.628973 173.062272 177.628973
z
" style="stroke:#000000;stroke-width:0.886227;"/>
    <path clip-path="url(#pfa3872102b)" d="M 182.938015 185.034687
C 183.408075 185.034687 183.858946 184.84793 184.191329 184.515547
C 184.523712 184.183164 184.710469 183.732293 184.710469 183.262233
C 184.710469 182.792173 184.523712 182.341302 184.191329 182.008919
C 183.858946 181.676536 183.408075 181.489779 182.938015 181.489779
C 182.467955 181.489779 182.017084 181.676536 181.684701 182.008919
C 181.352318 182.341302 181.165561 182.792173 181.165561 183.262233
C 181.165561 183.732293 181.352318 184.183164 181.684701 184.515547
C 182.017084 184.84793 182.467955 185.034687 182.938015 185.034687
z
" style="stroke:#000000;stroke-width:0.886227;"/>
    <path clip-path="url(#pfa3872102b)" d="M 182.938015 185.034687
C 183.408075 185.034687 183.858946 184.84793 184.191329 184.515547
C 184.523712 184.183164 184.710469 183.732293 184.710469 183.262233
C 184.710469 182.792173 184.523712 182.341302 184.191329 182.008919
C 183.858946 181.676536 183.408075 181.489779 182.938015 181.489779
C 182.467955 181.489779 182.017084 181.676536 181.684701 182.008919
C 181.352318 182.341302 181.165561 182.792173 181.165561 183.262233
C 181.165561 183.732293 181.352318 184.183164 181.684701 184.515547
C 182.017084 184.84793 182.467955 185.034687 182.938015 185.034687
z
" style="stroke:#000000;stroke-width:0.886227;"/>
    <path clip-path="url(#pfa3872102b)" d="M 186.730564 192.440401
C 187.200624 192.440401 187.651495 192.253644 187.983878 191.921261
C 188.316261 191.588879 188.503018 191.138008 188.503018 190.667947
C 188.503018 190.197887 188.316261 189.747016 187.983878 189.414633
C 187.651495 189.08225 187.200624 188.895493 186.730564 188.895493
C 186.260504 188.895493 185.809632 189.08225 185.47725 189.414633
C 185.144867 189.747016 184.95811 190.197887 184.95811 190.667947
C 184.95811 191.138008 185.144867 191.588879 185.47725 191.921261
C 185.809632 192.253644 186.260504 192.440401 186.730564 192.440401
z
" style="stroke:#000000;stroke-width:0.886227;"/>
    <path clip-path="url(#pfa3872102b)" d="M 225.608071 199.846115
C 226.078132 199.846115 226.529003 199.659358 226.861386 199.326976
C 227.193768 198.994593 227.380525 198.543722 227.380525 198.073662
C 227.380525 197.603601 227.193768 197.15273 226.861386 196.820347
C 226.529003 196.487965 226.078132 196.301208 225.608071 196.301208
C 225.138011 196.301208 224.68714 196.487965 224.354757 196.820347
C 224.022374 197.15273 223.835618 197.603601 223.835618 198.073662
C 223.835618 198.543722 224.022374 198.994593 224.354757 199.326976
C 224.68714 199.659358 225.138011 199.846115 225.608071 199.846115
z
" style="stroke:#000000;stroke-width:0.886227;"/>
    <path clip-path="url(#pfa3872102b)" d="M 225.608071 199.846115
C 226.078132 199.846115 226.529003 199.659358 226.861386 199.326976
C 227.193768 198.994593 227.380525 198.543722 227.380525 198.073662
C 227.380525 197.603601 227.193768 197.15273 226.861386 196.820347
C 226.529003 196.487965 226.078132 196.301208 225.608071 196.301208
C 225.138011 196.301208 224.68714 196.487965 224.354757 196.820347
C 224.022374 197.15273 223.835618 197.603601 223.835618 198.073662
C 223.835618 198.543722 224.022374 198.994593 224.354757 199.326976
C 224.68714 199.659358 225.138011 199.846115 225.608071 199.846115
z
" style="stroke:#000000;stroke-width:0.886227;"/>
    <path clip-path="url(#pfa3872102b)" d="M 235.439212 207.25183
C 235.909273 207.25183 236.360144 207.065073 236.692526 206.73269
C 237.024909 206.400307 237.211666 205.949436 237.211666 205.479376
C 237.211666 205.009316 237.024909 204.558444 236.692526 204.226062
C 236.360144 203.893679 235.909273 203.706922 235.439212 203.706922
C 234.969152 203.706922 234.518281 203.893679 234.185898 204.226062
C 233.853515 204.558444 233.666758 205.009316 233.666758 205.479376
C 233.666758 205.949436 233.853515 206.400307 234.185898 206.73269
C 234.518281 207.065073 234.969152 207.25183 235.439212 207.25183
z
" style="stroke:#000000;stroke-width:0.886227;"/>
    <path clip-path="url(#pfa3872102b)" d="M 245.146731 217.126115
C 245.616791 217.126115 246.067662 216.939358 246.400045 216.606976
C 246.732428 216.274593 246.919185 215.823722 246.919185 215.353662
C 246.919185 214.883601 246.732428 214.43273 246.400045 214.100347
C 246.067662 213.767965 245.616791 213.581208 245.146731 213.581208
C 244.676671 213.581208 244.2258 213.767965 243.893417 214.100347
C 243.561034 214.43273 243.374277 214.883601 243.374277 215.353662
C 243.374277 215.823722 243.561034 216.274593 243.893417 216.606976
C 244.2258 216.939358 244.676671 217.126115 245.146731 217.126115
z
" style="stroke:#000000;stroke-width:0.886227;"/>
    <path clip-path="url(#pfa3872102b)" d="M 241.832218 212.188973
C 242.302278 212.188973 242.753149 212.002216 243.085532 211.669833
C 243.417914 211.33745 243.604671 210.886579 243.604671 210.416519
C 243.604671 209.946458 243.417914 209.495587 243.085532 209.163205
C 242.753149 208.830822 242.302278 208.644065 241.832218 208.644065
C 241.362157 208.644065 240.911286 208.830822 240.578903 209.163205
C 240.246521 209.495587 240.059764 209.946458 240.059764 210.416519
C 240.059764 210.886579 240.246521 211.33745 240.578903 211.669833
C 240.911286 212.002216 241.362157 212.188973 241.832218 212.188973
z
" style="stroke:#000000;stroke-width:0.886227;"/>
    <path clip-path="url(#pfa3872102b)" d="M 257.503413 222.063258
C 257.973473 222.063258 258.424344 221.876501 258.756727 221.544119
C 259.08911 221.211736 259.275867 220.760865 259.275867 220.290804
C 259.275867 219.820744 259.08911 219.369873 258.756727 219.03749
C 258.424344 218.705107 257.973473 218.518351 257.503413 218.518351
C 257.033352 218.518351 256.582481 218.705107 256.250099 219.03749
C 255.917716 219.369873 255.730959 219.820744 255.730959 220.290804
C 255.730959 220.760865 255.917716 221.211736 256.250099 221.544119
C 256.582481 221.876501 257.033352 222.063258 257.503413 222.063258
z
" style="stroke:#000000;stroke-width:0.886227;"/>
    <path clip-path="url(#pfa3872102b)" d="M 258.309401 227.000401
C 258.779461 227.000401 259.230332 226.813644 259.562715 226.481261
C 259.895098 226.148879 260.081855 225.698008 260.081855 225.227947
C 260.081855 224.757887 259.895098 224.307016 259.562715 223.974633
C 259.230332 223.64225 258.779461 223.455493 258.309401 223.455493
C 257.839341 223.455493 257.38847 223.64225 257.056087 223.974633
C 256.723704 224.307016 256.536947 224.757887 256.536947 225.227947
C 256.536947 225.698008 256.723704 226.148879 257.056087 226.481261
C 257.38847 226.813644 257.839341 227.000401 258.309401 227.000401
z
" style="stroke:#000000;stroke-width:0.886227;"/>
    <path clip-path="url(#pfa3872102b)" d="M 287.026585 231.937544
C 287.496645 231.937544 287.947516 231.750787 288.279899 231.418404
C 288.612282 231.086021 288.799038 230.63515 288.799038 230.16509
C 288.799038 229.69503 288.612282 229.244159 288.279899 228.911776
C 287.947516 228.579393 287.496645 228.392636 287.026585 228.392636
C 286.556524 228.392636 286.105653 228.579393 285.77327 228.911776
C 285.440888 229.244159 285.254131 229.69503 285.254131 230.16509
C 285.254131 230.63515 285.440888 231.086021 285.77327 231.418404
C 286.105653 231.750787 286.556524 231.937544 287.026585 231.937544
z
" style="stroke:#000000;stroke-width:0.886227;"/>
    <path clip-path="url(#pfa3872102b)" d="M 305.774636 236.874687
C 306.244696 236.874687 306.695567 236.68793 307.02795 236.355547
C 307.360333 236.023164 307.547089 235.572293 307.547089 235.102233
C 307.547089 234.632173 307.360333 234.181302 307.02795 233.848919
C 306.695567 233.516536 306.244696 233.329779 305.774636 233.329779
C 305.304575 233.329779 304.853704 233.516536 304.521321 233.848919
C 304.188939 234.181302 304.002182 234.632173 304.002182 235.102233
C 304.002182 235.572293 304.188939 236.023164 304.521321 236.355547
C 304.853704 236.68793 305.304575 236.874687 305.774636 236.874687
z
" style="stroke:#000000;stroke-width:0.886227;"/>
    <path clip-path="url(#pfa3872102b)" d="M 318.940248 244.280401
C 319.410309 244.280401 319.86118 244.093644 320.193563 243.761261
C 320.525945 243.428879 320.712702 242.978008 320.712702 242.507947
C 320.712702 242.037887 320.525945 241.587016 320.193563 241.254633
C 319.86118 240.92225 319.410309 240.735493 318.940248 240.735493
C 318.470188 240.735493 318.019317 240.92225 317.686934 241.254633
C 317.354552 241.587016 317.167795 242.037887 317.167795 242.507947
C 317.167795 242.978008 317.354552 243.428879 317.686934 243.761261
C 318.019317 244.093644 318.470188 244.280401 318.940248 244.280401
z
" style="stroke:#000000;stroke-width:0.886227;"/>
    <path clip-path="url(#pfa3872102b)" d="M 318.940248 244.280401
C 319.410309 244.280401 319.86118 244.093644 320.193563 243.761261
C 320.525945 243.428879 320.712702 242.978008 320.712702 242.507947
C 320.712702 242.037887 320.525945 241.587016 320.193563 241.254633
C 319.86118 240.92225 319.410309 240.735493 318.940248 240.735493
C 318.470188 240.735493 318.019317 240.92225 317.686934 241.254633
C 317.354552 241.587016 317.167795 242.037887 317.167795 242.507947
C 317.167795 242.978008 317.354552 243.428879 317.686934 243.761261
C 318.019317 244.093644 318.470188 244.280401 318.940248 244.280401
z
" style="stroke:#000000;stroke-width:0.886227;"/>
    <path clip-path="url(#pfa3872102b)" d="M 334.005758 254.154687
C 334.475818 254.154687 334.926689 253.96793 335.259072 253.635547
C 335.591455 253.303164 335.778212 252.852293 335.778212 252.382233
C 335.778212 251.912173 335.591455 251.461302 335.259072 251.128919
C 334.926689 250.796536 334.475818 250.609779 334.005758 250.609779
C 333.535697 250.609779 333.084826 250.796536 332.752444 251.128919
C 332.420061 251.461302 332.233304 251.912173 332.233304 252.382233
C 332.233304 252.852293 332.420061 253.303164 332.752444 253.635547
C 333.084826 253.96793 333.535697 254.154687 334.005758 254.154687
z
" style="stroke:#000000;stroke-width:0.886227;"/>
    <path clip-path="url(#pfa3872102b)" d="M 334.005758 254.154687
C 334.475818 254.154687 334.926689 253.96793 335.259072 253.635547
C 335.591455 253.303164 335.778212 252.852293 335.778212 252.382233
C 335.778212 251.912173 335.591455 251.461302 335.259072 251.128919
C 334.926689 250.796536 334.475818 250.609779 334.005758 250.609779
C 333.535697 250.609779 333.084826 250.796536 332.752444 251.128919
C 332.420061 251.461302 332.233304 251.912173 332.233304 252.382233
C 332.233304 252.852293 332.420061 253.303164 332.752444 253.635547
C 333.084826 253.96793 333.535697 254.154687 334.005758 254.154687
z
" style="stroke:#000000;stroke-width:0.886227;"/>
    <path clip-path="url(#pfa3872102b)" d="M 338.480031 261.560401
C 338.950092 261.560401 339.400963 261.373644 339.733346 261.041261
C 340.065728 260.708879 340.252485 260.258008 340.252485 259.787947
C 340.252485 259.317887 340.065728 258.867016 339.733346 258.534633
C 339.400963 258.20225 338.950092 258.015493 338.480031 258.015493
C 338.009971 258.015493 337.5591 258.20225 337.226717 258.534633
C 336.894334 258.867016 336.707578 259.317887 336.707578 259.787947
C 336.707578 260.258008 336.894334 260.708879 337.226717 261.041261
C 337.5591 261.373644 338.009971 261.560401 338.480031 261.560401
z
" style="stroke:#000000;stroke-width:0.886227;"/>
    <path clip-path="url(#pfa3872102b)" d="M 351.289819 266.497544
C 351.75988 266.497544 352.210751 266.310787 352.543134 265.978404
C 352.875516 265.646021 353.062273 265.19515 353.062273 264.72509
C 353.062273 264.25503 352.875516 263.804159 352.543134 263.471776
C 352.210751 263.139393 351.75988 262.952636 351.289819 262.952636
C 350.819759 262.952636 350.368888 263.139393 350.036505 263.471776
C 349.704123 263.804159 349.517366 264.25503 349.517366 264.72509
C 349.517366 265.19515 349.704123 265.646021 350.036505 265.978404
C 350.368888 266.310787 350.819759 266.497544 351.289819 266.497544
z
" style="stroke:#000000;stroke-width:0.886227;"/>
    <path clip-path="url(#pfa3872102b)" d="M 370.642163 271.434687
C 371.112223 271.434687 371.563094 271.24793 371.895477 270.915547
C 372.22786 270.583164 372.414617 270.132293 372.414617 269.662233
C 372.414617 269.192173 372.22786 268.741302 371.895477 268.408919
C 371.563094 268.076536 371.112223 267.889779 370.642163 267.889779
C 370.172103 267.889779 369.721232 268.076536 369.388849 268.408919
C 369.056466 268.741302 368.869709 269.192173 368.869709 269.662233
C 368.869709 270.132293 369.056466 270.583164 369.388849 270.915547
C 369.721232 271.24793 370.172103 271.434687 370.642163 271.434687
z
" style="stroke:#000000;stroke-width:0.886227;"/>
    <path clip-path="url(#pfa3872102b)" d="M 376.589123 276.37183
C 377.059184 276.37183 377.510055 276.185073 377.842437 275.85269
C 378.17482 275.520307 378.361577 275.069436 378.361577 274.599376
C 378.361577 274.129316 378.17482 273.678444 377.842437 273.346062
C 377.510055 273.013679 377.059184 272.826922 376.589123 272.826922
C 376.119063 272.826922 375.668192 273.013679 375.335809 273.346062
C 375.003426 273.678444 374.816669 274.129316 374.816669 274.599376
C 374.816669 275.069436 375.003426 275.520307 375.335809 275.85269
C 375.668192 276.185073 376.119063 276.37183 376.589123 276.37183
z
" style="stroke:#000000;stroke-width:0.886227;"/>
   </g>
   <g id="PathCollection_2">
    <path clip-path="url(#pfa3872102b)" d="M 63.005584 34.45183
C 63.475645 34.45183 63.926516 34.265073 64.258898 33.93269
C 64.591281 33.600307 64.778038 33.149436 64.778038 32.679376
C 64.778038 32.209316 64.591281 31.758444 64.258898 31.426062
C 63.926516 31.093679 63.475645 30.906922 63.005584 30.906922
C 62.535524 30.906922 62.084653 31.093679 61.75227 31.426062
C 61.419887 31.758444 61.23313 32.209316 61.23313 32.679376
C 61.23313 33.149436 61.419887 33.600307 61.75227 33.93269
C 62.084653 34.265073 62.535524 34.45183 63.005584 34.45183
z
" style="fill:#ff0000;stroke:#ff0000;stroke-width:0.886227;"/>
    <path clip-path="url(#pfa3872102b)" d="M 63.021141 39.388973
C 63.491201 39.388973 63.942072 39.202216 64.274455 38.869833
C 64.606837 38.53745 64.793594 38.086579 64.793594 37.616519
C 64.793594 37.146458 64.606837 36.695587 64.274455 36.363205
C 63.942072 36.030822 63.491201 35.844065 63.021141 35.844065
C 62.55108 35.844065 62.100209 36.030822 61.767826 36.363205
C 61.435444 36.695587 61.248687 37.146458 61.248687 37.616519
C 61.248687 38.086579 61.435444 38.53745 61.767826 38.869833
C 62.100209 39.202216 62.55108 39.388973 63.021141 39.388973
z
" style="fill:#ff0000;stroke:#ff0000;stroke-width:0.886227;"/>
    <path clip-path="url(#pfa3872102b)" d="M 63.129593 44.326115
C 63.599654 44.326115 64.050525 44.139358 64.382908 43.806976
C 64.71529 43.474593 64.902047 43.023722 64.902047 42.553662
C 64.902047 42.083601 64.71529 41.63273 64.382908 41.300347
C 64.050525 40.967965 63.599654 40.781208 63.129593 40.781208
C 62.659533 40.781208 62.208662 40.967965 61.876279 41.300347
C 61.543896 41.63273 61.35714 42.083601 61.35714 42.553662
C 61.35714 43.023722 61.543896 43.474593 61.876279 43.806976
C 62.208662 44.139358 62.659533 44.326115 63.129593 44.326115
z
" style="fill:#ff0000;stroke:#ff0000;stroke-width:0.886227;"/>
    <path clip-path="url(#pfa3872102b)" d="M 63.189423 49.263258
C 63.659483 49.263258 64.110354 49.076501 64.442737 48.744119
C 64.77512 48.411736 64.961877 47.960865 64.961877 47.490804
C 64.961877 47.020744 64.77512 46.569873 64.442737 46.23749
C 64.110354 45.905107 63.659483 45.718351 63.189423 45.718351
C 62.719362 45.718351 62.268491 45.905107 61.936109 46.23749
C 61.603726 46.569873 61.416969 47.020744 61.416969 47.490804
C 61.416969 47.960865 61.603726 48.411736 61.936109 48.744119
C 62.268491 49.076501 62.719362 49.263258 63.189423 49.263258
z
" style="fill:#ff0000;stroke:#ff0000;stroke-width:0.886227;"/>
    <path clip-path="url(#pfa3872102b)" d="M 63.415103 54.200401
C 63.885163 54.200401 64.336034 54.013644 64.668417 53.681261
C 65.0008 53.348879 65.187557 52.898008 65.187557 52.427947
C 65.187557 51.957887 65.0008 51.507016 64.668417 51.174633
C 64.336034 50.84225 63.885163 50.655493 63.415103 50.655493
C 62.945043 50.655493 62.494172 50.84225 62.161789 51.174633
C 61.829406 51.507016 61.642649 51.957887 61.642649 52.427947
C 61.642649 52.898008 61.829406 53.348879 62.161789 53.681261
C 62.494172 54.013644 62.945043 54.200401 63.415103 54.200401
z
" style="fill:#ff0000;stroke:#ff0000;stroke-width:0.886227;"/>
   </g>
   <g id="text_13">
    <g clip-path="url(#pfa3872102b)">
     <!-- HALLMARK_ADIPOGENESIS -->
     <defs>
      <path d="M 34.1875 63.1875
L 20.796875 26.90625
L 47.609375 26.90625
z
M 28.609375 72.90625
L 39.796875 72.90625
L 67.578125 0
L 57.328125 0
L 50.6875 18.703125
L 17.828125 18.703125
L 11.1875 0
L 0.78125 0
z
" id="DejaVuSans-65"/>
      <path d="M 9.8125 72.90625
L 19.671875 72.90625
L 19.671875 8.296875
L 55.171875 8.296875
L 55.171875 0
L 9.8125 0
z
" id="DejaVuSans-76"/>
      <path d="M 9.8125 72.90625
L 19.671875 72.90625
L 19.671875 42.09375
L 52.390625 72.90625
L 65.09375 72.90625
L 28.90625 38.921875
L 67.671875 0
L 54.6875 0
L 19.671875 35.109375
L 19.671875 0
L 9.8125 0
z
" id="DejaVuSans-75"/>
      <path d="M 50.984375 -16.609375
L 50.984375 -23.578125
L -0.984375 -23.578125
L -0.984375 -16.609375
z
" id="DejaVuSans-95"/>
      <path d="M 9.8125 72.90625
L 19.671875 72.90625
L 19.671875 0
L 9.8125 0
z
" id="DejaVuSans-73"/>
      <path d="M 19.671875 64.796875
L 19.671875 37.40625
L 32.078125 37.40625
Q 38.96875 37.40625 42.71875 40.96875
Q 46.484375 44.53125 46.484375 51.125
Q 46.484375 57.671875 42.71875 61.234375
Q 38.96875 64.796875 32.078125 64.796875
z
M 9.8125 72.90625
L 32.078125 72.90625
Q 44.34375 72.90625 50.609375 67.359375
Q 56.890625 61.8125 56.890625 51.125
Q 56.890625 40.328125 50.609375 34.8125
Q 44.34375 29.296875 32.078125 29.296875
L 19.671875 29.296875
L 19.671875 0
L 9.8125 0
z
" id="DejaVuSans-80"/>
      <path d="M 39.40625 66.21875
Q 28.65625 66.21875 22.328125 58.203125
Q 16.015625 50.203125 16.015625 36.375
Q 16.015625 22.609375 22.328125 14.59375
Q 28.65625 6.59375 39.40625 6.59375
Q 50.140625 6.59375 56.421875 14.59375
Q 62.703125 22.609375 62.703125 36.375
Q 62.703125 50.203125 56.421875 58.203125
Q 50.140625 66.21875 39.40625 66.21875
z
M 39.40625 74.21875
Q 54.734375 74.21875 63.90625 63.9375
Q 73.09375 53.65625 73.09375 36.375
Q 73.09375 19.140625 63.90625 8.859375
Q 54.734375 -1.421875 39.40625 -1.421875
Q 24.03125 -1.421875 14.8125 8.828125
Q 5.609375 19.09375 5.609375 36.375
Q 5.609375 53.65625 14.8125 63.9375
Q 24.03125 74.21875 39.40625 74.21875
z
" id="DejaVuSans-79"/>
      <path d="M 9.8125 72.90625
L 55.90625 72.90625
L 55.90625 64.59375
L 19.671875 64.59375
L 19.671875 43.015625
L 54.390625 43.015625
L 54.390625 34.71875
L 19.671875 34.71875
L 19.671875 8.296875
L 56.78125 8.296875
L 56.78125 0
L 9.8125 0
z
" id="DejaVuSans-69"/>
      <path d="M 9.8125 72.90625
L 23.09375 72.90625
L 55.421875 11.921875
L 55.421875 72.90625
L 64.984375 72.90625
L 64.984375 0
L 51.703125 0
L 19.390625 60.984375
L 19.390625 0
L 9.8125 0
z
" id="DejaVuSans-78"/>
      <path d="M 53.515625 70.515625
L 53.515625 60.890625
Q 47.90625 63.578125 42.921875 64.890625
Q 37.9375 66.21875 33.296875 66.21875
Q 25.25 66.21875 20.875 63.09375
Q 16.5 59.96875 16.5 54.203125
Q 16.5 49.359375 19.40625 46.890625
Q 22.3125 44.4375 30.421875 42.921875
L 36.375 41.703125
Q 47.40625 39.59375 52.65625 34.296875
Q 57.90625 29 57.90625 20.125
Q 57.90625 9.515625 50.796875 4.046875
Q 43.703125 -1.421875 29.984375 -1.421875
Q 24.8125 -1.421875 18.96875 -0.25
Q 13.140625 0.921875 6.890625 3.21875
L 6.890625 13.375
Q 12.890625 10.015625 18.65625 8.296875
Q 24.421875 6.59375 29.984375 6.59375
Q 38.421875 6.59375 43.015625 9.90625
Q 47.609375 13.234375 47.609375 19.390625
Q 47.609375 24.75 44.3125 27.78125
Q 41.015625 30.8125 33.5 32.328125
L 27.484375 33.5
Q 16.453125 35.6875 11.515625 40.375
Q 6.59375 45.0625 6.59375 53.421875
Q 6.59375 63.09375 13.40625 68.65625
Q 20.21875 74.21875 32.171875 74.21875
Q 37.3125 74.21875 42.625 73.28125
Q 47.953125 72.359375 53.515625 70.515625
z
" id="DejaVuSans-83"/>
     </defs>
     <g transform="translate(63.005584 36.390313)scale(0.05 -0.05)">
      <use xlink:href="#DejaVuSans-72"/>
      <use x="75.195312" xlink:href="#DejaVuSans-65"/>
      <use x="143.603516" xlink:href="#DejaVuSans-76"/>
      <use x="199.316406" xlink:href="#DejaVuSans-76"/>
      <use x="255.029297" xlink:href="#DejaVuSans-77"/>
      <use x="341.308594" xlink:href="#DejaVuSans-65"/>
      <use x="409.716797" xlink:href="#DejaVuSans-82"/>
      <use x="479.199219" xlink:href="#DejaVuSans-75"/>
      <use x="544.775391" xlink:href="#DejaVuSans-95"/>
      <use x="594.775391" xlink:href="#DejaVuSans-65"/>
      <use x="663.183594" xlink:href="#DejaVuSans-68"/>
      <use x="740.185547" xlink:href="#DejaVuSans-73"/>
      <use x="769.677734" xlink:href="#DejaVuSans-80"/>
      <use x="829.980469" xlink:href="#DejaVuSans-79"/>
      <use x="908.691406" xlink:href="#DejaVuSans-71"/>
      <use x="986.181641" xlink:href="#DejaVuSans-69"/>
      <use x="1049.365234" xlink:href="#DejaVuSans-78"/>
      <use x="1124.169922" xlink:href="#DejaVuSans-69"/>
      <use x="1187.353516" xlink:href="#DejaVuSans-83"/>
      <use x="1250.830078" xlink:href="#DejaVuSans-73"/>
      <use x="1280.322266" xlink:href="#DejaVuSans-83"/>
     </g>
    </g>
   </g>
   <g id="text_14">
    <g clip-path="url(#pfa3872102b)">
     <!-- HALLMARK_ALLOGRAFT_REJECTION -->
     <defs>
      <path d="M -0.296875 72.90625
L 61.375 72.90625
L 61.375 64.59375
L 35.5 64.59375
L 35.5 0
L 25.59375 0
L 25.59375 64.59375
L -0.296875 64.59375
z
" id="DejaVuSans-84"/>
      <path d="M 9.8125 72.90625
L 19.671875 72.90625
L 19.671875 5.078125
Q 19.671875 -8.109375 14.671875 -14.0625
Q 9.671875 -20.015625 -1.421875 -20.015625
L -5.171875 -20.015625
L -5.171875 -11.71875
L -2.09375 -11.71875
Q 4.4375 -11.71875 7.125 -8.046875
Q 9.8125 -4.390625 9.8125 5.078125
z
" id="DejaVuSans-74"/>
      <path d="M 64.40625 67.28125
L 64.40625 56.890625
Q 59.421875 61.53125 53.78125 63.8125
Q 48.140625 66.109375 41.796875 66.109375
Q 29.296875 66.109375 22.65625 58.46875
Q 16.015625 50.828125 16.015625 36.375
Q 16.015625 21.96875 22.65625 14.328125
Q 29.296875 6.6875 41.796875 6.6875
Q 48.140625 6.6875 53.78125 8.984375
Q 59.421875 11.28125 64.40625 15.921875
L 64.40625 5.609375
Q 59.234375 2.09375 53.4375 0.328125
Q 47.65625 -1.421875 41.21875 -1.421875
Q 24.65625 -1.421875 15.125 8.703125
Q 5.609375 18.84375 5.609375 36.375
Q 5.609375 53.953125 15.125 64.078125
Q 24.65625 74.21875 41.21875 74.21875
Q 47.75 74.21875 53.53125 72.484375
Q 59.328125 70.75 64.40625 67.28125
z
" id="DejaVuSans-67"/>
     </defs>
     <g transform="translate(63.021141 41.327456)scale(0.05 -0.05)">
      <use xlink:href="#DejaVuSans-72"/>
      <use x="75.195312" xlink:href="#DejaVuSans-65"/>
      <use x="143.603516" xlink:href="#DejaVuSans-76"/>
      <use x="199.316406" xlink:href="#DejaVuSans-76"/>
      <use x="255.029297" xlink:href="#DejaVuSans-77"/>
      <use x="341.308594" xlink:href="#DejaVuSans-65"/>
      <use x="409.716797" xlink:href="#DejaVuSans-82"/>
      <use x="479.199219" xlink:href="#DejaVuSans-75"/>
      <use x="544.775391" xlink:href="#DejaVuSans-95"/>
      <use x="594.775391" xlink:href="#DejaVuSans-65"/>
      <use x="663.183594" xlink:href="#DejaVuSans-76"/>
      <use x="718.896484" xlink:href="#DejaVuSans-76"/>
      <use x="774.5625" xlink:href="#DejaVuSans-79"/>
      <use x="853.273438" xlink:href="#DejaVuSans-71"/>
      <use x="930.763672" xlink:href="#DejaVuSans-82"/>
      <use x="1000.183594" xlink:href="#DejaVuSans-65"/>
      <use x="1068.591797" xlink:href="#DejaVuSans-70"/>
      <use x="1126.095703" xlink:href="#DejaVuSans-84"/>
      <use x="1187.179688" xlink:href="#DejaVuSans-95"/>
      <use x="1237.179688" xlink:href="#DejaVuSans-82"/>
      <use x="1306.662109" xlink:href="#DejaVuSans-69"/>
      <use x="1369.845703" xlink:href="#DejaVuSans-74"/>
      <use x="1399.337891" xlink:href="#DejaVuSans-69"/>
      <use x="1462.521484" xlink:href="#DejaVuSans-67"/>
      <use x="1532.345703" xlink:href="#DejaVuSans-84"/>
      <use x="1593.429688" xlink:href="#DejaVuSans-73"/>
      <use x="1622.921875" xlink:href="#DejaVuSans-79"/>
      <use x="1701.632812" xlink:href="#DejaVuSans-78"/>
     </g>
    </g>
   </g>
   <g id="text_15">
    <g clip-path="url(#pfa3872102b)">
     <!-- HALLMARK_ANDROGEN_RESPONSE -->
     <g transform="translate(63.129593 46.264599)scale(0.05 -0.05)">
      <use xlink:href="#DejaVuSans-72"/>
      <use x="75.195312" xlink:href="#DejaVuSans-65"/>
      <use x="143.603516" xlink:href="#DejaVuSans-76"/>
      <use x="199.316406" xlink:href="#DejaVuSans-76"/>
      <use x="255.029297" xlink:href="#DejaVuSans-77"/>
      <use x="341.308594" xlink:href="#DejaVuSans-65"/>
      <use x="409.716797" xlink:href="#DejaVuSans-82"/>
      <use x="479.199219" xlink:href="#DejaVuSans-75"/>
      <use x="544.775391" xlink:href="#DejaVuSans-95"/>
      <use x="594.775391" xlink:href="#DejaVuSans-65"/>
      <use x="663.183594" xlink:href="#DejaVuSans-78"/>
      <use x="737.988281" xlink:href="#DejaVuSans-68"/>
      <use x="814.990234" xlink:href="#DejaVuSans-82"/>
      <use x="884.472656" xlink:href="#DejaVuSans-79"/>
      <use x="963.183594" xlink:href="#DejaVuSans-71"/>
      <use x="1040.673828" xlink:href="#DejaVuSans-69"/>
      <use x="1103.857422" xlink:href="#DejaVuSans-78"/>
      <use x="1178.662109" xlink:href="#DejaVuSans-95"/>
      <use x="1228.662109" xlink:href="#DejaVuSans-82"/>
      <use x="1298.144531" xlink:href="#DejaVuSans-69"/>
      <use x="1361.328125" xlink:href="#DejaVuSans-83"/>
      <use x="1424.804688" xlink:href="#DejaVuSans-80"/>
      <use x="1485.107422" xlink:href="#DejaVuSans-79"/>
      <use x="1563.818359" xlink:href="#DejaVuSans-78"/>
      <use x="1638.623047" xlink:href="#DejaVuSans-83"/>
      <use x="1702.099609" xlink:href="#DejaVuSans-69"/>
     </g>
    </g>
   </g>
   <g id="text_16">
    <g clip-path="url(#pfa3872102b)">
     <!-- HALLMARK_ANGIOGENESIS -->
     <g transform="translate(63.189423 51.201742)scale(0.05 -0.05)">
      <use xlink:href="#DejaVuSans-72"/>
      <use x="75.195312" xlink:href="#DejaVuSans-65"/>
      <use x="143.603516" xlink:href="#DejaVuSans-76"/>
      <use x="199.316406" xlink:href="#DejaVuSans-76"/>
      <use x="255.029297" xlink:href="#DejaVuSans-77"/>
      <use x="341.308594" xlink:href="#DejaVuSans-65"/>
      <use x="409.716797" xlink:href="#DejaVuSans-82"/>
      <use x="479.199219" xlink:href="#DejaVuSans-75"/>
      <use x="544.775391" xlink:href="#DejaVuSans-95"/>
      <use x="594.775391" xlink:href="#DejaVuSans-65"/>
      <use x="663.183594" xlink:href="#DejaVuSans-78"/>
      <use x="737.988281" xlink:href="#DejaVuSans-71"/>
      <use x="815.478516" xlink:href="#DejaVuSans-73"/>
      <use x="844.970703" xlink:href="#DejaVuSans-79"/>
      <use x="923.681641" xlink:href="#DejaVuSans-71"/>
      <use x="1001.171875" xlink:href="#DejaVuSans-69"/>
      <use x="1064.355469" xlink:href="#DejaVuSans-78"/>
      <use x="1139.160156" xlink:href="#DejaVuSans-69"/>
      <use x="1202.34375" xlink:href="#DejaVuSans-83"/>
      <use x="1265.820312" xlink:href="#DejaVuSans-73"/>
      <use x="1295.3125" xlink:href="#DejaVuSans-83"/>
     </g>
    </g>
   </g>
   <g id="text_17">
    <g clip-path="url(#pfa3872102b)">
     <!-- HALLMARK_APICAL_JUNCTION -->
     <defs>
      <path d="M 8.6875 72.90625
L 18.609375 72.90625
L 18.609375 28.609375
Q 18.609375 16.890625 22.84375 11.734375
Q 27.09375 6.59375 36.625 6.59375
Q 46.09375 6.59375 50.34375 11.734375
Q 54.59375 16.890625 54.59375 28.609375
L 54.59375 72.90625
L 64.5 72.90625
L 64.5 27.390625
Q 64.5 13.140625 57.4375 5.859375
Q 50.390625 -1.421875 36.625 -1.421875
Q 22.796875 -1.421875 15.734375 5.859375
Q 8.6875 13.140625 8.6875 27.390625
z
" id="DejaVuSans-85"/>
     </defs>
     <g transform="translate(63.415103 56.138885)scale(0.05 -0.05)">
      <use xlink:href="#DejaVuSans-72"/>
      <use x="75.195312" xlink:href="#DejaVuSans-65"/>
      <use x="143.603516" xlink:href="#DejaVuSans-76"/>
      <use x="199.316406" xlink:href="#DejaVuSans-76"/>
      <use x="255.029297" xlink:href="#DejaVuSans-77"/>
      <use x="341.308594" xlink:href="#DejaVuSans-65"/>
      <use x="409.716797" xlink:href="#DejaVuSans-82"/>
      <use x="479.199219" xlink:href="#DejaVuSans-75"/>
      <use x="544.775391" xlink:href="#DejaVuSans-95"/>
      <use x="594.775391" xlink:href="#DejaVuSans-65"/>
      <use x="663.183594" xlink:href="#DejaVuSans-80"/>
      <use x="723.486328" xlink:href="#DejaVuSans-73"/>
      <use x="752.978516" xlink:href="#DejaVuSans-67"/>
      <use x="822.802734" xlink:href="#DejaVuSans-65"/>
      <use x="891.210938" xlink:href="#DejaVuSans-76"/>
      <use x="946.923828" xlink:href="#DejaVuSans-95"/>
      <use x="996.923828" xlink:href="#DejaVuSans-74"/>
      <use x="1026.416016" xlink:href="#DejaVuSans-85"/>
      <use x="1099.609375" xlink:href="#DejaVuSans-78"/>
      <use x="1174.414062" xlink:href="#DejaVuSans-67"/>
      <use x="1244.238281" xlink:href="#DejaVuSans-84"/>
      <use x="1305.322266" xlink:href="#DejaVuSans-73"/>
      <use x="1334.814453" xlink:href="#DejaVuSans-79"/>
      <use x="1413.525391" xlink:href="#DejaVuSans-78"/>
     </g>
    </g>
   </g>
  </g>
  <g id="text_18">
   <!-- CAMERA pathway statistics vs ranking -->
   <defs>
    <path d="M 54.890625 33.015625
L 54.890625 0
L 45.90625 0
L 45.90625 32.71875
Q 45.90625 40.484375 42.875 44.328125
Q 39.84375 48.1875 33.796875 48.1875
Q 26.515625 48.1875 22.3125 43.546875
Q 18.109375 38.921875 18.109375 30.90625
L 18.109375 0
L 9.078125 0
L 9.078125 75.984375
L 18.109375 75.984375
L 18.109375 46.1875
Q 21.34375 51.125 25.703125 53.5625
Q 30.078125 56 35.796875 56
Q 45.21875 56 50.046875 50.171875
Q 54.890625 44.34375 54.890625 33.015625
z
" id="DejaVuSans-104"/>
    <path d="M 4.203125 54.6875
L 13.1875 54.6875
L 24.421875 12.015625
L 35.59375 54.6875
L 46.1875 54.6875
L 57.421875 12.015625
L 68.609375 54.6875
L 77.59375 54.6875
L 63.28125 0
L 52.6875 0
L 40.921875 44.828125
L 29.109375 0
L 18.5 0
z
" id="DejaVuSans-119"/>
    <path d="M 32.171875 -5.078125
Q 28.375 -14.84375 24.75 -17.8125
Q 21.140625 -20.796875 15.09375 -20.796875
L 7.90625 -20.796875
L 7.90625 -13.28125
L 13.1875 -13.28125
Q 16.890625 -13.28125 18.9375 -11.515625
Q 21 -9.765625 23.484375 -3.21875
L 25.09375 0.875
L 2.984375 54.6875
L 12.5 54.6875
L 29.59375 11.921875
L 46.6875 54.6875
L 56.203125 54.6875
z
" id="DejaVuSans-121"/>
    <path d="M 2.984375 54.6875
L 12.5 54.6875
L 29.59375 8.796875
L 46.6875 54.6875
L 56.203125 54.6875
L 35.6875 0
L 23.484375 0
z
" id="DejaVuSans-118"/>
   </defs>
   <g transform="translate(75.755 11.397656)scale(0.15 -0.15)">
    <use xlink:href="#DejaVuSans-67"/>
    <use x="69.824219" xlink:href="#DejaVuSans-65"/>
    <use x="138.232422" xlink:href="#DejaVuSans-77"/>
    <use x="224.511719" xlink:href="#DejaVuSans-69"/>
    <use x="287.695312" xlink:href="#DejaVuSans-82"/>
    <use x="357.115234" xlink:href="#DejaVuSans-65"/>
    <use x="425.523438" xlink:href="#DejaVuSans-32"/>
    <use x="457.310547" xlink:href="#DejaVuSans-112"/>
    <use x="520.787109" xlink:href="#DejaVuSans-97"/>
    <use x="582.066406" xlink:href="#DejaVuSans-116"/>
    <use x="621.275391" xlink:href="#DejaVuSans-104"/>
    <use x="684.654297" xlink:href="#DejaVuSans-119"/>
    <use x="766.441406" xlink:href="#DejaVuSans-97"/>
    <use x="827.720703" xlink:href="#DejaVuSans-121"/>
    <use x="886.900391" xlink:href="#DejaVuSans-32"/>
    <use x="918.6875" xlink:href="#DejaVuSans-115"/>
    <use x="970.787109" xlink:href="#DejaVuSans-116"/>
    <use x="1009.996094" xlink:href="#DejaVuSans-97"/>
    <use x="1071.275391" xlink:href="#DejaVuSans-116"/>
    <use x="1110.484375" xlink:href="#DejaVuSans-105"/>
    <use x="1138.267578" xlink:href="#DejaVuSans-115"/>
    <use x="1190.367188" xlink:href="#DejaVuSans-116"/>
    <use x="1229.576172" xlink:href="#DejaVuSans-105"/>
    <use x="1257.359375" xlink:href="#DejaVuSans-99"/>
    <use x="1312.339844" xlink:href="#DejaVuSans-115"/>
    <use x="1364.439453" xlink:href="#DejaVuSans-32"/>
    <use x="1396.226562" xlink:href="#DejaVuSans-118"/>
    <use x="1455.40625" xlink:href="#DejaVuSans-115"/>
    <use x="1507.505859" xlink:href="#DejaVuSans-32"/>
    <use x="1539.292969" xlink:href="#DejaVuSans-114"/>
    <use x="1580.40625" xlink:href="#DejaVuSans-97"/>
    <use x="1641.685547" xlink:href="#DejaVuSans-110"/>
    <use x="1705.064453" xlink:href="#DejaVuSans-107"/>
    <use x="1762.974609" xlink:href="#DejaVuSans-105"/>
    <use x="1790.757812" xlink:href="#DejaVuSans-110"/>
    <use x="1854.136719" xlink:href="#DejaVuSans-103"/>
   </g>
  </g>
 </g>
 <defs>
  <clipPath id="pfa3872102b">
   <rect height="266.112" width="357.12" x="46.772188" y="20.583376"/>
  </clipPath>
 </defs>
</svg>
