<?xml version="1.0" encoding="utf-8" standalone="no"?>
<!DOCTYPE svg PUBLIC "-//W3C//DTD SVG 1.1//EN"
  "http://www.w3.org/Graphics/SVG/1.1/DTD/svg11.dtd">
<!-- Created with matplotlib (https://matplotlib.org/) -->
<svg height="322.176313pt" version="1.1" viewBox="0 0 406.642188 322.176313" width="406.642188pt" xmlns="http://www.w3.org/2000/svg" xmlns:xlink="http://www.w3.org/1999/xlink">
 <defs>
  <style type="text/css">
*{stroke-linecap:butt;stroke-linejoin:round;}
  </style>
 </defs>
 <g id="figure_1">
  <g id="patch_1">
   <path d="M 0 322.176313
L 406.642188 322.176313
L 406.642188 0
L 0 0
z
" style="fill:#ffffff;stroke:#ffffff;stroke-linejoin:miter;"/>
  </g>
  <g id="axes_1">
   <g id="patch_2">
    <path d="M 46.772188 286.695376
L 403.892188 286.695376
L 403.892188 20.583376
L 46.772188 20.583376
z
" style="fill:none;"/>
   </g>
   <g id="matplotlib.axis_1">
    <g id="xtick_1">
     <g id="line2d_1">
      <path clip-path="url(#p437302d8bc)" d="M 63.004902 286.695376
L 63.004902 20.583376
" style="fill:none;stroke:#e5e5e5;stroke-width:0.8;"/>
     </g>
     <g id="line2d_2">
      <path d="M 63.004902 286.695376
" style="fill:none;stroke:#000000;stroke-width:1.5;"/>
      <defs>
       <path d="M 0 0
L 0 2.75
" id="mbf67d24dc0" style="stroke:#000000;"/>
      </defs>
      <g>
       <use style="stroke:#000000;" x="63.004902" xlink:href="#mbf67d24dc0" y="286.695376"/>
      </g>
     </g>
     <g id="text_1">
      <!-- 0 -->
      <defs>
       <path d="M 31.78125 66.40625
Q 24.171875 66.40625 20.328125 58.90625
Q 16.5 51.421875 16.5 36.375
Q 16.5 21.390625 20.328125 13.890625
Q 24.171875 6.390625 31.78125 6.390625
Q 39.453125 6.390625 43.28125 13.890625
Q 47.125 21.390625 47.125 36.375
Q 47.125 51.421875 43.28125 58.90625
Q 39.453125 66.40625 31.78125 66.40625
z
M 31.78125 74.21875
Q 44.046875 74.21875 50.515625 64.515625
Q 56.984375 54.828125 56.984375 36.375
Q 56.984375 17.96875 50.515625 8.265625
Q 44.046875 -1.421875 31.78125 -1.421875
Q 19.53125 -1.421875 13.0625 8.265625
Q 6.59375 17.96875 6.59375 36.375
Q 6.59375 54.828125 13.0625 64.515625
Q 19.53125 74.21875 31.78125 74.21875
z
" id="DejaVuSans-48"/>
      </defs>
      <g style="fill:#4d4d4d;" transform="translate(59.187402 300.763501)scale(0.12 -0.12)">
       <use xlink:href="#DejaVuSans-48"/>
      </g>
     </g>
    </g>
    <g id="xtick_2">
     <g id="line2d_3">
      <path clip-path="url(#p437302d8bc)" d="M 146.579339 286.695376
L 146.579339 20.583376
" style="fill:none;stroke:#e5e5e5;stroke-width:0.8;"/>
     </g>
     <g id="line2d_4">
      <path d="M 146.579339 286.695376
" style="fill:none;stroke:#000000;stroke-width:1.5;"/>
      <g>
       <use style="stroke:#000000;" x="146.579339" xlink:href="#mbf67d24dc0" y="286.695376"/>
      </g>
     </g>
     <g id="text_2">
      <!-- 0.25 -->
      <defs>
       <path d="M 10.6875 12.40625
L 21 12.40625
L 21 0
L 10.6875 0
z
" id="DejaVuSans-46"/>
       <path d="M 19.1875 8.296875
L 53.609375 8.296875
L 53.609375 0
L 7.328125 0
L 7.328125 8.296875
Q 12.9375 14.109375 22.625 23.890625
Q 32.328125 33.6875 34.8125 36.53125
Q 39.546875 41.84375 41.421875 45.53125
Q 43.3125 49.21875 43.3125 52.78125
Q 43.3125 58.59375 39.234375 62.25
Q 35.15625 65.921875 28.609375 65.921875
Q 23.96875 65.921875 18.8125 64.3125
Q 13.671875 62.703125 7.8125 59.421875
L 7.8125 69.390625
Q 13.765625 71.78125 18.9375 73
Q 24.125 74.21875 28.421875 74.21875
Q 39.75 74.21875 46.484375 68.546875
Q 53.21875 62.890625 53.21875 53.421875
Q 53.21875 48.921875 51.53125 44.890625
Q 49.859375 40.875 45.40625 35.40625
Q 44.1875 33.984375 37.640625 27.21875
Q 31.109375 20.453125 19.1875 8.296875
z
" id="DejaVuSans-50"/>
       <path d="M 10.796875 72.90625
L 49.515625 72.90625
L 49.515625 64.59375
L 19.828125 64.59375
L 19.828125 46.734375
Q 21.96875 47.46875 24.109375 47.828125
Q 26.265625 48.1875 28.421875 48.1875
Q 40.625 48.1875 47.75 41.5
Q 54.890625 34.8125 54.890625 23.390625
Q 54.890625 11.625 47.5625 5.09375
Q 40.234375 -1.421875 26.90625 -1.421875
Q 22.3125 -1.421875 17.546875 -0.640625
Q 12.796875 0.140625 7.71875 1.703125
L 7.71875 11.625
Q 12.109375 9.234375 16.796875 8.0625
Q 21.484375 6.890625 26.703125 6.890625
Q 35.15625 6.890625 40.078125 11.328125
Q 45.015625 15.765625 45.015625 23.390625
Q 45.015625 31 40.078125 35.4375
Q 35.15625 39.890625 26.703125 39.890625
Q 22.75 39.890625 18.8125 39.015625
Q 14.890625 38.140625 10.796875 36.28125
z
" id="DejaVuSans-53"/>
      </defs>
      <g style="fill:#4d4d4d;" transform="translate(133.219964 300.763501)scale(0.12 -0.12)">
       <use xlink:href="#DejaVuSans-48"/>
       <use x="63.623047" xlink:href="#DejaVuSans-46"/>
       <use x="95.410156" xlink:href="#DejaVuSans-50"/>
       <use x="159.033203" xlink:href="#DejaVuSans-53"/>
      </g>
     </g>
    </g>
    <g id="xtick_3">
     <g id="line2d_5">
      <path clip-path="url(#p437302d8bc)" d="M 230.153775 286.695376
L 230.153775 20.583376
" style="fill:none;stroke:#e5e5e5;stroke-width:0.8;"/>
     </g>
     <g id="line2d_6">
      <path d="M 230.153775 286.695376
" style="fill:none;stroke:#000000;stroke-width:1.5;"/>
      <g>
       <use style="stroke:#000000;" x="230.153775" xlink:href="#mbf67d24dc0" y="286.695376"/>
      </g>
     </g>
     <g id="text_3">
      <!-- 0.50 -->
      <g style="fill:#4d4d4d;" transform="translate(216.7944 300.763501)scale(0.12 -0.12)">
       <use xlink:href="#DejaVuSans-48"/>
       <use x="63.623047" xlink:href="#DejaVuSans-46"/>
       <use x="95.410156" xlink:href="#DejaVuSans-53"/>
       <use x="159.033203" xlink:href="#DejaVuSans-48"/>
      </g>
     </g>
    </g>
    <g id="xtick_4">
     <g id="line2d_7">
      <path clip-path="url(#p437302d8bc)" d="M 313.728211 286.695376
L 313.728211 20.583376
" style="fill:none;stroke:#e5e5e5;stroke-width:0.8;"/>
     </g>
     <g id="line2d_8">
      <path d="M 313.728211 286.695376
" style="fill:none;stroke:#000000;stroke-width:1.5;"/>
      <g>
       <use style="stroke:#000000;" x="313.728211" xlink:href="#mbf67d24dc0" y="286.695376"/>
      </g>
     </g>
     <g id="text_4">
      <!-- 0.75 -->
      <defs>
       <path d="M 8.203125 72.90625
L 55.078125 72.90625
L 55.078125 68.703125
L 28.609375 0
L 18.3125 0
L 43.21875 64.59375
L 8.203125 64.59375
z
" id="DejaVuSans-55"/>
      </defs>
      <g style="fill:#4d4d4d;" transform="translate(300.368836 300.763501)scale(0.12 -0.12)">
       <use xlink:href="#DejaVuSans-48"/>
       <use x="63.623047" xlink:href="#DejaVuSans-46"/>
       <use x="95.410156" xlink:href="#DejaVuSans-55"/>
       <use x="159.033203" xlink:href="#DejaVuSans-53"/>
      </g>
     </g>
    </g>
    <g id="xtick_5">
     <g id="line2d_9">
      <path clip-path="url(#p437302d8bc)" d="M 397.302648 286.695376
L 397.302648 20.583376
" style="fill:none;stroke:#e5e5e5;stroke-width:0.8;"/>
     </g>
     <g id="line2d_10">
      <path d="M 397.302648 286.695376
" style="fill:none;stroke:#000000;stroke-width:1.5;"/>
      <g>
       <use style="stroke:#000000;" x="397.302648" xlink:href="#mbf67d24dc0" y="286.695376"/>
      </g>
     </g>
     <g id="text_5">
      <!-- 1 -->
      <defs>
       <path d="M 12.40625 8.296875
L 28.515625 8.296875
L 28.515625 63.921875
L 10.984375 60.40625
L 10.984375 69.390625
L 28.421875 72.90625
L 38.28125 72.90625
L 38.28125 8.296875
L 54.390625 8.296875
L 54.390625 0
L 12.40625 0
z
" id="DejaVuSans-49"/>
      </defs>
      <g style="fill:#4d4d4d;" transform="translate(393.485148 300.763501)scale(0.12 -0.12)">
       <use xlink:href="#DejaVuSans-49"/>
      </g>
     </g>
    </g>
    <g id="xtick_6">
     <g id="line2d_11">
      <path clip-path="url(#p437302d8bc)" d="M 104.79212 286.695376
L 104.79212 20.583376
" style="fill:none;stroke:#fafafa;"/>
     </g>
     <g id="line2d_12">
      <path d="M 104.79212 286.695376
" style="fill:none;stroke:#000000;stroke-width:1.5;"/>
     </g>
    </g>
    <g id="xtick_7">
     <g id="line2d_13">
      <path clip-path="url(#p437302d8bc)" d="M 188.366557 286.695376
L 188.366557 20.583376
" style="fill:none;stroke:#fafafa;"/>
     </g>
     <g id="line2d_14">
      <path d="M 188.366557 286.695376
" style="fill:none;stroke:#000000;stroke-width:1.5;"/>
     </g>
    </g>
    <g id="xtick_8">
     <g id="line2d_15">
      <path clip-path="url(#p437302d8bc)" d="M 271.940993 286.695376
L 271.940993 20.583376
" style="fill:none;stroke:#fafafa;"/>
     </g>
     <g id="line2d_16">
      <path d="M 271.940993 286.695376
" style="fill:none;stroke:#000000;stroke-width:1.5;"/>
     </g>
    </g>
    <g id="xtick_9">
     <g id="line2d_17">
      <path clip-path="url(#p437302d8bc)" d="M 355.51543 286.695376
L 355.51543 20.583376
" style="fill:none;stroke:#fafafa;"/>
     </g>
     <g id="line2d_18">
      <path d="M 355.51543 286.695376
" style="fill:none;stroke:#000000;stroke-width:1.5;"/>
     </g>
    </g>
    <g id="text_6">
     <!-- Median(FDR (BH)) -->
     <defs>
      <path d="M 9.8125 72.90625
L 24.515625 72.90625
L 43.109375 23.296875
L 61.8125 72.90625
L 76.515625 72.90625
L 76.515625 0
L 66.890625 0
L 66.890625 64.015625
L 48.09375 14.015625
L 38.1875 14.015625
L 19.390625 64.015625
L 19.390625 0
L 9.8125 0
z
" id="DejaVuSans-77"/>
      <path d="M 56.203125 29.59375
L 56.203125 25.203125
L 14.890625 25.203125
Q 15.484375 15.921875 20.484375 11.0625
Q 25.484375 6.203125 34.421875 6.203125
Q 39.59375 6.203125 44.453125 7.46875
Q 49.3125 8.734375 54.109375 11.28125
L 54.109375 2.78125
Q 49.265625 0.734375 44.1875 -0.34375
Q 39.109375 -1.421875 33.890625 -1.421875
Q 20.796875 -1.421875 13.15625 6.1875
Q 5.515625 13.8125 5.515625 26.8125
Q 5.515625 40.234375 12.765625 48.109375
Q 20.015625 56 32.328125 56
Q 43.359375 56 49.78125 48.890625
Q 56.203125 41.796875 56.203125 29.59375
z
M 47.21875 32.234375
Q 47.125 39.59375 43.09375 43.984375
Q 39.0625 48.390625 32.421875 48.390625
Q 24.90625 48.390625 20.390625 44.140625
Q 15.875 39.890625 15.1875 32.171875
z
" id="DejaVuSans-101"/>
      <path d="M 45.40625 46.390625
L 45.40625 75.984375
L 54.390625 75.984375
L 54.390625 0
L 45.40625 0
L 45.40625 8.203125
Q 42.578125 3.328125 38.25 0.953125
Q 33.9375 -1.421875 27.875 -1.421875
Q 17.96875 -1.421875 11.734375 6.484375
Q 5.515625 14.40625 5.515625 27.296875
Q 5.515625 40.1875 11.734375 48.09375
Q 17.96875 56 27.875 56
Q 33.9375 56 38.25 53.625
Q 42.578125 51.265625 45.40625 46.390625
z
M 14.796875 27.296875
Q 14.796875 17.390625 18.875 11.75
Q 22.953125 6.109375 30.078125 6.109375
Q 37.203125 6.109375 41.296875 11.75
Q 45.40625 17.390625 45.40625 27.296875
Q 45.40625 37.203125 41.296875 42.84375
Q 37.203125 48.484375 30.078125 48.484375
Q 22.953125 48.484375 18.875 42.84375
Q 14.796875 37.203125 14.796875 27.296875
z
" id="DejaVuSans-100"/>
      <path d="M 9.421875 54.6875
L 18.40625 54.6875
L 18.40625 0
L 9.421875 0
z
M 9.421875 75.984375
L 18.40625 75.984375
L 18.40625 64.59375
L 9.421875 64.59375
z
" id="DejaVuSans-105"/>
      <path d="M 34.28125 27.484375
Q 23.390625 27.484375 19.1875 25
Q 14.984375 22.515625 14.984375 16.5
Q 14.984375 11.71875 18.140625 8.90625
Q 21.296875 6.109375 26.703125 6.109375
Q 34.1875 6.109375 38.703125 11.40625
Q 43.21875 16.703125 43.21875 25.484375
L 43.21875 27.484375
z
M 52.203125 31.203125
L 52.203125 0
L 43.21875 0
L 43.21875 8.296875
Q 40.140625 3.328125 35.546875 0.953125
Q 30.953125 -1.421875 24.3125 -1.421875
Q 15.921875 -1.421875 10.953125 3.296875
Q 6 8.015625 6 15.921875
Q 6 25.140625 12.171875 29.828125
Q 18.359375 34.515625 30.609375 34.515625
L 43.21875 34.515625
L 43.21875 35.40625
Q 43.21875 41.609375 39.140625 45
Q 35.0625 48.390625 27.6875 48.390625
Q 23 48.390625 18.546875 47.265625
Q 14.109375 46.140625 10.015625 43.890625
L 10.015625 52.203125
Q 14.9375 54.109375 19.578125 55.046875
Q 24.21875 56 28.609375 56
Q 40.484375 56 46.34375 49.84375
Q 52.203125 43.703125 52.203125 31.203125
z
" id="DejaVuSans-97"/>
      <path d="M 54.890625 33.015625
L 54.890625 0
L 45.90625 0
L 45.90625 32.71875
Q 45.90625 40.484375 42.875 44.328125
Q 39.84375 48.1875 33.796875 48.1875
Q 26.515625 48.1875 22.3125 43.546875
Q 18.109375 38.921875 18.109375 30.90625
L 18.109375 0
L 9.078125 0
L 9.078125 54.6875
L 18.109375 54.6875
L 18.109375 46.1875
Q 21.34375 51.125 25.703125 53.5625
Q 30.078125 56 35.796875 56
Q 45.21875 56 50.046875 50.171875
Q 54.890625 44.34375 54.890625 33.015625
z
" id="DejaVuSans-110"/>
      <path d="M 31 75.875
Q 24.46875 64.65625 21.28125 53.65625
Q 18.109375 42.671875 18.109375 31.390625
Q 18.109375 20.125 21.3125 9.0625
Q 24.515625 -2 31 -13.1875
L 23.1875 -13.1875
Q 15.875 -1.703125 12.234375 9.375
Q 8.59375 20.453125 8.59375 31.390625
Q 8.59375 42.28125 12.203125 53.3125
Q 15.828125 64.359375 23.1875 75.875
z
" id="DejaVuSans-40"/>
      <path d="M 9.8125 72.90625
L 51.703125 72.90625
L 51.703125 64.59375
L 19.671875 64.59375
L 19.671875 43.109375
L 48.578125 43.109375
L 48.578125 34.8125
L 19.671875 34.8125
L 19.671875 0
L 9.8125 0
z
" id="DejaVuSans-70"/>
      <path d="M 19.671875 64.796875
L 19.671875 8.109375
L 31.59375 8.109375
Q 46.6875 8.109375 53.6875 14.9375
Q 60.6875 21.78125 60.6875 36.53125
Q 60.6875 51.171875 53.6875 57.984375
Q 46.6875 64.796875 31.59375 64.796875
z
M 9.8125 72.90625
L 30.078125 72.90625
Q 51.265625 72.90625 61.171875 64.09375
Q 71.09375 55.28125 71.09375 36.53125
Q 71.09375 17.671875 61.125 8.828125
Q 51.171875 0 30.078125 0
L 9.8125 0
z
" id="DejaVuSans-68"/>
      <path d="M 44.390625 34.1875
Q 47.5625 33.109375 50.5625 29.59375
Q 53.5625 26.078125 56.59375 19.921875
L 66.609375 0
L 56 0
L 46.6875 18.703125
Q 43.0625 26.03125 39.671875 28.421875
Q 36.28125 30.8125 30.421875 30.8125
L 19.671875 30.8125
L 19.671875 0
L 9.8125 0
L 9.8125 72.90625
L 32.078125 72.90625
Q 44.578125 72.90625 50.734375 67.671875
Q 56.890625 62.453125 56.890625 51.90625
Q 56.890625 45.015625 53.6875 40.46875
Q 50.484375 35.9375 44.390625 34.1875
z
M 19.671875 64.796875
L 19.671875 38.921875
L 32.078125 38.921875
Q 39.203125 38.921875 42.84375 42.21875
Q 46.484375 45.515625 46.484375 51.90625
Q 46.484375 58.296875 42.84375 61.546875
Q 39.203125 64.796875 32.078125 64.796875
z
" id="DejaVuSans-82"/>
      <path id="DejaVuSans-32"/>
      <path d="M 19.671875 34.8125
L 19.671875 8.109375
L 35.5 8.109375
Q 43.453125 8.109375 47.28125 11.40625
Q 51.125 14.703125 51.125 21.484375
Q 51.125 28.328125 47.28125 31.5625
Q 43.453125 34.8125 35.5 34.8125
z
M 19.671875 64.796875
L 19.671875 42.828125
L 34.28125 42.828125
Q 41.5 42.828125 45.03125 45.53125
Q 48.578125 48.25 48.578125 53.8125
Q 48.578125 59.328125 45.03125 62.0625
Q 41.5 64.796875 34.28125 64.796875
z
M 9.8125 72.90625
L 35.015625 72.90625
Q 46.296875 72.90625 52.390625 68.21875
Q 58.5 63.53125 58.5 54.890625
Q 58.5 48.1875 55.375 44.234375
Q 52.25 40.28125 46.1875 39.3125
Q 53.46875 37.75 57.5 32.78125
Q 61.53125 27.828125 61.53125 20.40625
Q 61.53125 10.640625 54.890625 5.3125
Q 48.25 0 35.984375 0
L 9.8125 0
z
" id="DejaVuSans-66"/>
      <path d="M 9.8125 72.90625
L 19.671875 72.90625
L 19.671875 43.015625
L 55.515625 43.015625
L 55.515625 72.90625
L 65.375 72.90625
L 65.375 0
L 55.515625 0
L 55.515625 34.71875
L 19.671875 34.71875
L 19.671875 0
L 9.8125 0
z
" id="DejaVuSans-72"/>
      <path d="M 8.015625 75.875
L 15.828125 75.875
Q 23.140625 64.359375 26.78125 53.3125
Q 30.421875 42.28125 30.421875 31.390625
Q 30.421875 20.453125 26.78125 9.375
Q 23.140625 -1.703125 15.828125 -13.1875
L 8.015625 -13.1875
Q 14.5 -2 17.703125 9.0625
Q 20.90625 20.125 20.90625 31.390625
Q 20.90625 42.671875 17.703125 53.65625
Q 14.5 64.65625 8.015625 75.875
z
" id="DejaVuSans-41"/>
     </defs>
     <g transform="translate(152.117891 319.056782)scale(0.15 -0.15)">
      <use xlink:href="#DejaVuSans-77"/>
      <use x="86.279297" xlink:href="#DejaVuSans-101"/>
      <use x="147.802734" xlink:href="#DejaVuSans-100"/>
      <use x="211.279297" xlink:href="#DejaVuSans-105"/>
      <use x="239.0625" xlink:href="#DejaVuSans-97"/>
      <use x="300.341797" xlink:href="#DejaVuSans-110"/>
      <use x="363.720703" xlink:href="#DejaVuSans-40"/>
      <use x="402.734375" xlink:href="#DejaVuSans-70"/>
      <use x="460.253906" xlink:href="#DejaVuSans-68"/>
      <use x="537.255859" xlink:href="#DejaVuSans-82"/>
      <use x="606.738281" xlink:href="#DejaVuSans-32"/>
      <use x="638.525391" xlink:href="#DejaVuSans-40"/>
      <use x="677.539062" xlink:href="#DejaVuSans-66"/>
      <use x="746.142578" xlink:href="#DejaVuSans-72"/>
      <use x="821.337891" xlink:href="#DejaVuSans-41"/>
      <use x="860.351562" xlink:href="#DejaVuSans-41"/>
     </g>
    </g>
   </g>
   <g id="matplotlib.axis_2">
    <g id="ytick_1">
     <g id="line2d_19">
      <path clip-path="url(#p437302d8bc)" d="M 46.772188 274.599376
L 403.892188 274.599376
" style="fill:none;stroke:#e5e5e5;stroke-width:0.8;"/>
     </g>
     <g id="line2d_20">
      <path d="M 46.772188 274.599376
" style="fill:none;stroke:#000000;stroke-width:1.5;"/>
      <defs>
       <path d="M 0 0
L -2.75 0
" id="m2f96c4762d" style="stroke:#000000;"/>
      </defs>
      <g>
       <use style="stroke:#000000;" x="46.772188" xlink:href="#m2f96c4762d" y="274.599376"/>
      </g>
     </g>
     <g id="text_7">
      <!-- 0 -->
      <g style="fill:#4d4d4d;" transform="translate(34.187188 277.910626)scale(0.12 -0.12)">
       <use xlink:href="#DejaVuSans-48"/>
      </g>
     </g>
    </g>
    <g id="ytick_2">
     <g id="line2d_21">
      <path clip-path="url(#p437302d8bc)" d="M 46.772188 214.119376
L 403.892188 214.119376
" style="fill:none;stroke:#e5e5e5;stroke-width:0.8;"/>
     </g>
     <g id="line2d_22">
      <path d="M 46.772188 214.119376
" style="fill:none;stroke:#000000;stroke-width:1.5;"/>
      <g>
       <use style="stroke:#000000;" x="46.772188" xlink:href="#m2f96c4762d" y="214.119376"/>
      </g>
     </g>
     <g id="text_8">
      <!-- 25 -->
      <g style="fill:#4d4d4d;" transform="translate(26.552188 217.430626)scale(0.12 -0.12)">
       <use xlink:href="#DejaVuSans-50"/>
       <use x="63.623047" xlink:href="#DejaVuSans-53"/>
      </g>
     </g>
    </g>
    <g id="ytick_3">
     <g id="line2d_23">
      <path clip-path="url(#p437302d8bc)" d="M 46.772188 153.639376
L 403.892188 153.639376
" style="fill:none;stroke:#e5e5e5;stroke-width:0.8;"/>
     </g>
     <g id="line2d_24">
      <path d="M 46.772188 153.639376
" style="fill:none;stroke:#000000;stroke-width:1.5;"/>
      <g>
       <use style="stroke:#000000;" x="46.772188" xlink:href="#m2f96c4762d" y="153.639376"/>
      </g>
     </g>
     <g id="text_9">
      <!-- 50 -->
      <g style="fill:#4d4d4d;" transform="translate(26.552188 156.950626)scale(0.12 -0.12)">
       <use xlink:href="#DejaVuSans-53"/>
       <use x="63.623047" xlink:href="#DejaVuSans-48"/>
      </g>
     </g>
    </g>
    <g id="ytick_4">
     <g id="line2d_25">
      <path clip-path="url(#p437302d8bc)" d="M 46.772188 93.159376
L 403.892188 93.159376
" style="fill:none;stroke:#e5e5e5;stroke-width:0.8;"/>
     </g>
     <g id="line2d_26">
      <path d="M 46.772188 93.159376
" style="fill:none;stroke:#000000;stroke-width:1.5;"/>
      <g>
       <use style="stroke:#000000;" x="46.772188" xlink:href="#m2f96c4762d" y="93.159376"/>
      </g>
     </g>
     <g id="text_10">
      <!-- 75 -->
      <g style="fill:#4d4d4d;" transform="translate(26.552188 96.470626)scale(0.12 -0.12)">
       <use xlink:href="#DejaVuSans-55"/>
       <use x="63.623047" xlink:href="#DejaVuSans-53"/>
      </g>
     </g>
    </g>
    <g id="ytick_5">
     <g id="line2d_27">
      <path clip-path="url(#p437302d8bc)" d="M 46.772188 32.679376
L 403.892188 32.679376
" style="fill:none;stroke:#e5e5e5;stroke-width:0.8;"/>
     </g>
     <g id="line2d_28">
      <path d="M 46.772188 32.679376
" style="fill:none;stroke:#000000;stroke-width:1.5;"/>
      <g>
       <use style="stroke:#000000;" x="46.772188" xlink:href="#m2f96c4762d" y="32.679376"/>
      </g>
     </g>
     <g id="text_11">
      <!-- 100 -->
      <g style="fill:#4d4d4d;" transform="translate(18.917188 35.990626)scale(0.12 -0.12)">
       <use xlink:href="#DejaVuSans-49"/>
       <use x="63.623047" xlink:href="#DejaVuSans-48"/>
       <use x="127.246094" xlink:href="#DejaVuSans-48"/>
      </g>
     </g>
    </g>
    <g id="ytick_6">
     <g id="line2d_29">
      <path clip-path="url(#p437302d8bc)" d="M 46.772188 244.359376
L 403.892188 244.359376
" style="fill:none;stroke:#fafafa;"/>
     </g>
     <g id="line2d_30">
      <path d="M 46.772188 244.359376
" style="fill:none;stroke:#000000;stroke-width:1.5;"/>
     </g>
    </g>
    <g id="ytick_7">
     <g id="line2d_31">
      <path clip-path="url(#p437302d8bc)" d="M 46.772188 183.879376
L 403.892188 183.879376
" style="fill:none;stroke:#fafafa;"/>
     </g>
     <g id="line2d_32">
      <path d="M 46.772188 183.879376
" style="fill:none;stroke:#000000;stroke-width:1.5;"/>
     </g>
    </g>
    <g id="ytick_8">
     <g id="line2d_33">
      <path clip-path="url(#p437302d8bc)" d="M 46.772188 123.399376
L 403.892188 123.399376
" style="fill:none;stroke:#fafafa;"/>
     </g>
     <g id="line2d_34">
      <path d="M 46.772188 123.399376
" style="fill:none;stroke:#000000;stroke-width:1.5;"/>
     </g>
    </g>
    <g id="ytick_9">
     <g id="line2d_35">
      <path clip-path="url(#p437302d8bc)" d="M 46.772188 62.919376
L 403.892188 62.919376
" style="fill:none;stroke:#fafafa;"/>
     </g>
     <g id="line2d_36">
      <path d="M 46.772188 62.919376
" style="fill:none;stroke:#000000;stroke-width:1.5;"/>
     </g>
    </g>
    <g id="text_12">
     <!-- Genericness (percentile of ranking) -->
     <defs>
      <path d="M 59.515625 10.40625
L 59.515625 29.984375
L 43.40625 29.984375
L 43.40625 38.09375
L 69.28125 38.09375
L 69.28125 6.78125
Q 63.578125 2.734375 56.6875 0.65625
Q 49.8125 -1.421875 42 -1.421875
Q 24.90625 -1.421875 15.25 8.5625
Q 5.609375 18.5625 5.609375 36.375
Q 5.609375 54.25 15.25 64.234375
Q 24.90625 74.21875 42 74.21875
Q 49.125 74.21875 55.546875 72.453125
Q 61.96875 70.703125 67.390625 67.28125
L 67.390625 56.78125
Q 61.921875 61.421875 55.765625 63.765625
Q 49.609375 66.109375 42.828125 66.109375
Q 29.4375 66.109375 22.71875 58.640625
Q 16.015625 51.171875 16.015625 36.375
Q 16.015625 21.625 22.71875 14.15625
Q 29.4375 6.6875 42.828125 6.6875
Q 48.046875 6.6875 52.140625 7.59375
Q 56.25 8.5 59.515625 10.40625
z
" id="DejaVuSans-71"/>
      <path d="M 41.109375 46.296875
Q 39.59375 47.171875 37.8125 47.578125
Q 36.03125 48 33.890625 48
Q 26.265625 48 22.1875 43.046875
Q 18.109375 38.09375 18.109375 28.8125
L 18.109375 0
L 9.078125 0
L 9.078125 54.6875
L 18.109375 54.6875
L 18.109375 46.1875
Q 20.953125 51.171875 25.484375 53.578125
Q 30.03125 56 36.53125 56
Q 37.453125 56 38.578125 55.875
Q 39.703125 55.765625 41.0625 55.515625
z
" id="DejaVuSans-114"/>
      <path d="M 48.78125 52.59375
L 48.78125 44.1875
Q 44.96875 46.296875 41.140625 47.34375
Q 37.3125 48.390625 33.40625 48.390625
Q 24.65625 48.390625 19.8125 42.84375
Q 14.984375 37.3125 14.984375 27.296875
Q 14.984375 17.28125 19.8125 11.734375
Q 24.65625 6.203125 33.40625 6.203125
Q 37.3125 6.203125 41.140625 7.25
Q 44.96875 8.296875 48.78125 10.40625
L 48.78125 2.09375
Q 45.015625 0.34375 40.984375 -0.53125
Q 36.96875 -1.421875 32.421875 -1.421875
Q 20.0625 -1.421875 12.78125 6.34375
Q 5.515625 14.109375 5.515625 27.296875
Q 5.515625 40.671875 12.859375 48.328125
Q 20.21875 56 33.015625 56
Q 37.15625 56 41.109375 55.140625
Q 45.0625 54.296875 48.78125 52.59375
z
" id="DejaVuSans-99"/>
      <path d="M 44.28125 53.078125
L 44.28125 44.578125
Q 40.484375 46.53125 36.375 47.5
Q 32.28125 48.484375 27.875 48.484375
Q 21.1875 48.484375 17.84375 46.4375
Q 14.5 44.390625 14.5 40.28125
Q 14.5 37.15625 16.890625 35.375
Q 19.28125 33.59375 26.515625 31.984375
L 29.59375 31.296875
Q 39.15625 29.25 43.1875 25.515625
Q 47.21875 21.78125 47.21875 15.09375
Q 47.21875 7.46875 41.1875 3.015625
Q 35.15625 -1.421875 24.609375 -1.421875
Q 20.21875 -1.421875 15.453125 -0.5625
Q 10.6875 0.296875 5.421875 2
L 5.421875 11.28125
Q 10.40625 8.6875 15.234375 7.390625
Q 20.0625 6.109375 24.8125 6.109375
Q 31.15625 6.109375 34.5625 8.28125
Q 37.984375 10.453125 37.984375 14.40625
Q 37.984375 18.0625 35.515625 20.015625
Q 33.0625 21.96875 24.703125 23.78125
L 21.578125 24.515625
Q 13.234375 26.265625 9.515625 29.90625
Q 5.8125 33.546875 5.8125 39.890625
Q 5.8125 47.609375 11.28125 51.796875
Q 16.75 56 26.8125 56
Q 31.78125 56 36.171875 55.265625
Q 40.578125 54.546875 44.28125 53.078125
z
" id="DejaVuSans-115"/>
      <path d="M 18.109375 8.203125
L 18.109375 -20.796875
L 9.078125 -20.796875
L 9.078125 54.6875
L 18.109375 54.6875
L 18.109375 46.390625
Q 20.953125 51.265625 25.265625 53.625
Q 29.59375 56 35.59375 56
Q 45.5625 56 51.78125 48.09375
Q 58.015625 40.1875 58.015625 27.296875
Q 58.015625 14.40625 51.78125 6.484375
Q 45.5625 -1.421875 35.59375 -1.421875
Q 29.59375 -1.421875 25.265625 0.953125
Q 20.953125 3.328125 18.109375 8.203125
z
M 48.6875 27.296875
Q 48.6875 37.203125 44.609375 42.84375
Q 40.53125 48.484375 33.40625 48.484375
Q 26.265625 48.484375 22.1875 42.84375
Q 18.109375 37.203125 18.109375 27.296875
Q 18.109375 17.390625 22.1875 11.75
Q 26.265625 6.109375 33.40625 6.109375
Q 40.53125 6.109375 44.609375 11.75
Q 48.6875 17.390625 48.6875 27.296875
z
" id="DejaVuSans-112"/>
      <path d="M 18.3125 70.21875
L 18.3125 54.6875
L 36.8125 54.6875
L 36.8125 47.703125
L 18.3125 47.703125
L 18.3125 18.015625
Q 18.3125 11.328125 20.140625 9.421875
Q 21.96875 7.515625 27.59375 7.515625
L 36.8125 7.515625
L 36.8125 0
L 27.59375 0
Q 17.1875 0 13.234375 3.875
Q 9.28125 7.765625 9.28125 18.015625
L 9.28125 47.703125
L 2.6875 47.703125
L 2.6875 54.6875
L 9.28125 54.6875
L 9.28125 70.21875
z
" id="DejaVuSans-116"/>
      <path d="M 9.421875 75.984375
L 18.40625 75.984375
L 18.40625 0
L 9.421875 0
z
" id="DejaVuSans-108"/>
      <path d="M 30.609375 48.390625
Q 23.390625 48.390625 19.1875 42.75
Q 14.984375 37.109375 14.984375 27.296875
Q 14.984375 17.484375 19.15625 11.84375
Q 23.34375 6.203125 30.609375 6.203125
Q 37.796875 6.203125 41.984375 11.859375
Q 46.1875 17.53125 46.1875 27.296875
Q 46.1875 37.015625 41.984375 42.703125
Q 37.796875 48.390625 30.609375 48.390625
z
M 30.609375 56
Q 42.328125 56 49.015625 48.375
Q 55.71875 40.765625 55.71875 27.296875
Q 55.71875 13.875 49.015625 6.21875
Q 42.328125 -1.421875 30.609375 -1.421875
Q 18.84375 -1.421875 12.171875 6.21875
Q 5.515625 13.875 5.515625 27.296875
Q 5.515625 40.765625 12.171875 48.375
Q 18.84375 56 30.609375 56
z
" id="DejaVuSans-111"/>
      <path d="M 37.109375 75.984375
L 37.109375 68.5
L 28.515625 68.5
Q 23.6875 68.5 21.796875 66.546875
Q 19.921875 64.59375 19.921875 59.515625
L 19.921875 54.6875
L 34.71875 54.6875
L 34.71875 47.703125
L 19.921875 47.703125
L 19.921875 0
L 10.890625 0
L 10.890625 47.703125
L 2.296875 47.703125
L 2.296875 54.6875
L 10.890625 54.6875
L 10.890625 58.5
Q 10.890625 67.625 15.140625 71.796875
Q 19.390625 75.984375 28.609375 75.984375
z
" id="DejaVuSans-102"/>
      <path d="M 9.078125 75.984375
L 18.109375 75.984375
L 18.109375 31.109375
L 44.921875 54.6875
L 56.390625 54.6875
L 27.390625 29.109375
L 57.625 0
L 45.90625 0
L 18.109375 26.703125
L 18.109375 0
L 9.078125 0
z
" id="DejaVuSans-107"/>
      <path d="M 45.40625 27.984375
Q 45.40625 37.75 41.375 43.109375
Q 37.359375 48.484375 30.078125 48.484375
Q 22.859375 48.484375 18.828125 43.109375
Q 14.796875 37.75 14.796875 27.984375
Q 14.796875 18.265625 18.828125 12.890625
Q 22.859375 7.515625 30.078125 7.515625
Q 37.359375 7.515625 41.375 12.890625
Q 45.40625 18.265625 45.40625 27.984375
z
M 54.390625 6.78125
Q 54.390625 -7.171875 48.1875 -13.984375
Q 42 -20.796875 29.203125 -20.796875
Q 24.46875 -20.796875 20.265625 -20.09375
Q 16.0625 -19.390625 12.109375 -17.921875
L 12.109375 -9.1875
Q 16.0625 -11.328125 19.921875 -12.34375
Q 23.78125 -13.375 27.78125 -13.375
Q 36.625 -13.375 41.015625 -8.765625
Q 45.40625 -4.15625 45.40625 5.171875
L 45.40625 9.625
Q 42.625 4.78125 38.28125 2.390625
Q 33.9375 0 27.875 0
Q 17.828125 0 11.671875 7.65625
Q 5.515625 15.328125 5.515625 27.984375
Q 5.515625 40.671875 11.671875 48.328125
Q 17.828125 56 27.875 56
Q 33.9375 56 38.28125 53.609375
Q 42.625 51.21875 45.40625 46.390625
L 45.40625 54.6875
L 54.390625 54.6875
z
" id="DejaVuSans-103"/>
     </defs>
     <g transform="translate(11.397656 284.455126)rotate(-90)scale(0.15 -0.15)">
      <use xlink:href="#DejaVuSans-71"/>
      <use x="77.490234" xlink:href="#DejaVuSans-101"/>
      <use x="139.013672" xlink:href="#DejaVuSans-110"/>
      <use x="202.392578" xlink:href="#DejaVuSans-101"/>
      <use x="263.916016" xlink:href="#DejaVuSans-114"/>
      <use x="305.029297" xlink:href="#DejaVuSans-105"/>
      <use x="332.8125" xlink:href="#DejaVuSans-99"/>
      <use x="387.792969" xlink:href="#DejaVuSans-110"/>
      <use x="451.171875" xlink:href="#DejaVuSans-101"/>
      <use x="512.695312" xlink:href="#DejaVuSans-115"/>
      <use x="564.794922" xlink:href="#DejaVuSans-115"/>
      <use x="616.894531" xlink:href="#DejaVuSans-32"/>
      <use x="648.681641" xlink:href="#DejaVuSans-40"/>
      <use x="687.695312" xlink:href="#DejaVuSans-112"/>
      <use x="751.171875" xlink:href="#DejaVuSans-101"/>
      <use x="812.695312" xlink:href="#DejaVuSans-114"/>
      <use x="853.777344" xlink:href="#DejaVuSans-99"/>
      <use x="908.757812" xlink:href="#DejaVuSans-101"/>
      <use x="970.28125" xlink:href="#DejaVuSans-110"/>
      <use x="1033.660156" xlink:href="#DejaVuSans-116"/>
      <use x="1072.869141" xlink:href="#DejaVuSans-105"/>
      <use x="1100.652344" xlink:href="#DejaVuSans-108"/>
      <use x="1128.435547" xlink:href="#DejaVuSans-101"/>
      <use x="1189.958984" xlink:href="#DejaVuSans-32"/>
      <use x="1221.746094" xlink:href="#DejaVuSans-111"/>
      <use x="1282.927734" xlink:href="#DejaVuSans-102"/>
      <use x="1318.132812" xlink:href="#DejaVuSans-32"/>
      <use x="1349.919922" xlink:href="#DejaVuSans-114"/>
      <use x="1391.033203" xlink:href="#DejaVuSans-97"/>
      <use x="1452.3125" xlink:href="#DejaVuSans-110"/>
      <use x="1515.691406" xlink:href="#DejaVuSans-107"/>
      <use x="1573.601562" xlink:href="#DejaVuSans-105"/>
      <use x="1601.384766" xlink:href="#DejaVuSans-110"/>
      <use x="1664.763672" xlink:href="#DejaVuSans-103"/>
      <use x="1728.240234" xlink:href="#DejaVuSans-41"/>
     </g>
    </g>
   </g>
   <g id="PathCollection_1">
    <path clip-path="url(#p437302d8bc)" d="M 63.004915 34.45183
C 63.474975 34.45183 63.925846 34.265073 64.258229 33.93269
C 64.590612 33.600307 64.777369 33.149436 64.777369 32.679376
C 64.777369 32.209316 64.590612 31.758444 64.258229 31.426062
C 63.925846 31.093679 63.474975 30.906922 63.004915 30.906922
C 62.534855 30.906922 62.083983 31.093679 61.751601 31.426062
C 61.419218 31.758444 61.232461 32.209316 61.232461 32.679376
C 61.232461 33.149436 61.419218 33.600307 61.751601 33.93269
C 62.083983 34.265073 62.534855 34.45183 63.004915 34.45183
z
" style="stroke:#000000;stroke-width:0.886227;"/>
    <path clip-path="url(#p437302d8bc)" d="M 63.004964 39.388973
C 63.475024 39.388973 63.925895 39.202216 64.258278 38.869833
C 64.590661 38.53745 64.777418 38.086579 64.777418 37.616519
C 64.777418 37.146458 64.590661 36.695587 64.258278 36.363205
C 63.925895 36.030822 63.475024 35.844065 63.004964 35.844065
C 62.534904 35.844065 62.084033 36.030822 61.75165 36.363205
C 61.419267 36.695587 61.23251 37.146458 61.23251 37.616519
C 61.23251 38.086579 61.419267 38.53745 61.75165 38.869833
C 62.084033 39.202216 62.534904 39.388973 63.004964 39.388973
z
" style="stroke:#000000;stroke-width:0.886227;"/>
    <path clip-path="url(#p437302d8bc)" d="M 63.006331 44.326115
C 63.476391 44.326115 63.927262 44.139358 64.259645 43.806976
C 64.592028 43.474593 64.778784 43.023722 64.778784 42.553662
C 64.778784 42.083601 64.592028 41.63273 64.259645 41.300347
C 63.927262 40.967965 63.476391 40.781208 63.006331 40.781208
C 62.53627 40.781208 62.085399 40.967965 61.753016 41.300347
C 61.420634 41.63273 61.233877 42.083601 61.233877 42.553662
C 61.233877 43.023722 61.420634 43.474593 61.753016 43.806976
C 62.085399 44.139358 62.53627 44.326115 63.006331 44.326115
z
" style="stroke:#000000;stroke-width:0.886227;"/>
    <path clip-path="url(#p437302d8bc)" d="M 63.007316 49.263258
C 63.477376 49.263258 63.928248 49.076501 64.26063 48.744119
C 64.593013 48.411736 64.77977 47.960865 64.77977 47.490804
C 64.77977 47.020744 64.593013 46.569873 64.26063 46.23749
C 63.928248 45.905107 63.477376 45.718351 63.007316 45.718351
C 62.537256 45.718351 62.086385 45.905107 61.754002 46.23749
C 61.421619 46.569873 61.234862 47.020744 61.234862 47.490804
C 61.234862 47.960865 61.421619 48.411736 61.754002 48.744119
C 62.086385 49.076501 62.537256 49.263258 63.007316 49.263258
z
" style="stroke:#000000;stroke-width:0.886227;"/>
    <path clip-path="url(#p437302d8bc)" d="M 63.008603 54.200401
C 63.478663 54.200401 63.929534 54.013644 64.261917 53.681261
C 64.5943 53.348879 64.781057 52.898008 64.781057 52.427947
C 64.781057 51.957887 64.5943 51.507016 64.261917 51.174633
C 63.929534 50.84225 63.478663 50.655493 63.008603 50.655493
C 62.538543 50.655493 62.087672 50.84225 61.755289 51.174633
C 61.422906 51.507016 61.236149 51.957887 61.236149 52.427947
C 61.236149 52.898008 61.422906 53.348879 61.755289 53.681261
C 62.087672 54.013644 62.538543 54.200401 63.008603 54.200401
z
" style="stroke:#000000;stroke-width:0.886227;"/>
    <path clip-path="url(#p437302d8bc)" d="M 63.013041 59.137544
C 63.483102 59.137544 63.933973 58.950787 64.266356 58.618404
C 64.598738 58.286021 64.785495 57.83515 64.785495 57.36509
C 64.785495 56.89503 64.598738 56.444159 64.266356 56.111776
C 63.933973 55.779393 63.483102 55.592636 63.013041 55.592636
C 62.542981 55.592636 62.09211 55.779393 61.759727 56.111776
C 61.427344 56.444159 61.240588 56.89503 61.240588 57.36509
C 61.240588 57.83515 61.427344 58.286021 61.759727 58.618404
C 62.09211 58.950787 62.542981 59.137544 63.013041 59.137544
z
" style="stroke:#000000;stroke-width:0.886227;"/>
    <path clip-path="url(#p437302d8bc)" d="M 63.014665 64.074687
C 63.484725 64.074687 63.935596 63.88793 64.267979 63.555547
C 64.600362 63.223164 64.787119 62.772293 64.787119 62.302233
C 64.787119 61.832173 64.600362 61.381302 64.267979 61.048919
C 63.935596 60.716536 63.484725 60.529779 63.014665 60.529779
C 62.544605 60.529779 62.093734 60.716536 61.761351 61.048919
C 61.428968 61.381302 61.242211 61.832173 61.242211 62.302233
C 61.242211 62.772293 61.428968 63.223164 61.761351 63.555547
C 62.093734 63.88793 62.544605 64.074687 63.014665 64.074687
z
" style="stroke:#000000;stroke-width:0.886227;"/>
    <path clip-path="url(#p437302d8bc)" d="M 63.03716 69.01183
C 63.50722 69.01183 63.958091 68.825073 64.290474 68.49269
C 64.622857 68.160307 64.809613 67.709436 64.809613 67.239376
C 64.809613 66.769316 64.622857 66.318444 64.290474 65.986062
C 63.958091 65.653679 63.50722 65.466922 63.03716 65.466922
C 62.567099 65.466922 62.116228 65.653679 61.783845 65.986062
C 61.451463 66.318444 61.264706 66.769316 61.264706 67.239376
C 61.264706 67.709436 61.451463 68.160307 61.783845 68.49269
C 62.116228 68.825073 62.567099 69.01183 63.03716 69.01183
z
" style="stroke:#000000;stroke-width:0.886227;"/>
    <path clip-path="url(#p437302d8bc)" d="M 63.073615 73.948973
C 63.543675 73.948973 63.994546 73.762216 64.326929 73.429833
C 64.659312 73.09745 64.846069 72.646579 64.846069 72.176519
C 64.846069 71.706458 64.659312 71.255587 64.326929 70.923205
C 63.994546 70.590822 63.543675 70.404065 63.073615 70.404065
C 62.603555 70.404065 62.152684 70.590822 61.820301 70.923205
C 61.487918 71.255587 61.301161 71.706458 61.301161 72.176519
C 61.301161 72.646579 61.487918 73.09745 61.820301 73.429833
C 62.152684 73.762216 62.603555 73.948973 63.073615 73.948973
z
" style="stroke:#000000;stroke-width:0.886227;"/>
    <path clip-path="url(#p437302d8bc)" d="M 63.417448 78.886115
C 63.887508 78.886115 64.338379 78.699358 64.670762 78.366976
C 65.003145 78.034593 65.189901 77.583722 65.189901 77.113662
C 65.189901 76.643601 65.003145 76.19273 64.670762 75.860347
C 64.338379 75.527965 63.887508 75.341208 63.417448 75.341208
C 62.947387 75.341208 62.496516 75.527965 62.164133 75.860347
C 61.831751 76.19273 61.644994 76.643601 61.644994 77.113662
C 61.644994 77.583722 61.831751 78.034593 62.164133 78.366976
C 62.496516 78.699358 62.947387 78.886115 63.417448 78.886115
z
" style="stroke:#000000;stroke-width:0.886227;"/>
    <path clip-path="url(#p437302d8bc)" d="M 63.79309 83.823258
C 64.26315 83.823258 64.714021 83.636501 65.046404 83.304119
C 65.378787 82.971736 65.565544 82.520865 65.565544 82.050804
C 65.565544 81.580744 65.378787 81.129873 65.046404 80.79749
C 64.714021 80.465107 64.26315 80.278351 63.79309 80.278351
C 63.32303 80.278351 62.872158 80.465107 62.539776 80.79749
C 62.207393 81.129873 62.020636 81.580744 62.020636 82.050804
C 62.020636 82.520865 62.207393 82.971736 62.539776 83.304119
C 62.872158 83.636501 63.32303 83.823258 63.79309 83.823258
z
" style="stroke:#000000;stroke-width:0.886227;"/>
    <path clip-path="url(#p437302d8bc)" d="M 63.820634 88.760401
C 64.290694 88.760401 64.741565 88.573644 65.073948 88.241261
C 65.406331 87.908879 65.593088 87.458008 65.593088 86.987947
C 65.593088 86.517887 65.406331 86.067016 65.073948 85.734633
C 64.741565 85.40225 64.290694 85.215493 63.820634 85.215493
C 63.350574 85.215493 62.899703 85.40225 62.56732 85.734633
C 62.234937 86.067016 62.04818 86.517887 62.04818 86.987947
C 62.04818 87.458008 62.234937 87.908879 62.56732 88.241261
C 62.899703 88.573644 63.350574 88.760401 63.820634 88.760401
z
" style="stroke:#000000;stroke-width:0.886227;"/>
    <path clip-path="url(#p437302d8bc)" d="M 64.579231 93.697544
C 65.049292 93.697544 65.500163 93.510787 65.832545 93.178404
C 66.164928 92.846021 66.351685 92.39515 66.351685 91.92509
C 66.351685 91.45503 66.164928 91.004159 65.832545 90.671776
C 65.500163 90.339393 65.049292 90.152636 64.579231 90.152636
C 64.109171 90.152636 63.6583 90.339393 63.325917 90.671776
C 62.993534 91.004159 62.806777 91.45503 62.806777 91.92509
C 62.806777 92.39515 62.993534 92.846021 63.325917 93.178404
C 63.6583 93.510787 64.109171 93.697544 64.579231 93.697544
z
" style="stroke:#000000;stroke-width:0.886227;"/>
    <path clip-path="url(#p437302d8bc)" d="M 65.217096 98.634687
C 65.687156 98.634687 66.138027 98.44793 66.47041 98.115547
C 66.802793 97.783164 66.98955 97.332293 66.98955 96.862233
C 66.98955 96.392173 66.802793 95.941302 66.47041 95.608919
C 66.138027 95.276536 65.687156 95.089779 65.217096 95.089779
C 64.747035 95.089779 64.296164 95.276536 63.963782 95.608919
C 63.631399 95.941302 63.444642 96.392173 63.444642 96.862233
C 63.444642 97.332293 63.631399 97.783164 63.963782 98.115547
C 64.296164 98.44793 64.747035 98.634687 65.217096 98.634687
z
" style="stroke:#000000;stroke-width:0.886227;"/>
    <path clip-path="url(#p437302d8bc)" d="M 66.760933 103.57183
C 67.230993 103.57183 67.681864 103.385073 68.014247 103.05269
C 68.346629 102.720307 68.533386 102.269436 68.533386 101.799376
C 68.533386 101.329316 68.346629 100.878444 68.014247 100.546062
C 67.681864 100.213679 67.230993 100.026922 66.760933 100.026922
C 66.290872 100.026922 65.840001 100.213679 65.507618 100.546062
C 65.175236 100.878444 64.988479 101.329316 64.988479 101.799376
C 64.988479 102.269436 65.175236 102.720307 65.507618 103.05269
C 65.840001 103.385073 66.290872 103.57183 66.760933 103.57183
z
" style="stroke:#000000;stroke-width:0.886227;"/>
    <path clip-path="url(#p437302d8bc)" d="M 67.711698 108.508973
C 68.181758 108.508973 68.632629 108.322216 68.965012 107.989833
C 69.297395 107.65745 69.484152 107.206579 69.484152 106.736519
C 69.484152 106.266458 69.297395 105.815587 68.965012 105.483205
C 68.632629 105.150822 68.181758 104.964065 67.711698 104.964065
C 67.241638 104.964065 66.790767 105.150822 66.458384 105.483205
C 66.126001 105.815587 65.939244 106.266458 65.939244 106.736519
C 65.939244 107.206579 66.126001 107.65745 66.458384 107.989833
C 66.790767 108.322216 67.241638 108.508973 67.711698 108.508973
z
" style="stroke:#000000;stroke-width:0.886227;"/>
    <path clip-path="url(#p437302d8bc)" d="M 68.602519 113.446115
C 69.072579 113.446115 69.52345 113.259358 69.855833 112.926976
C 70.188216 112.594593 70.374973 112.143722 70.374973 111.673662
C 70.374973 111.203601 70.188216 110.75273 69.855833 110.420347
C 69.52345 110.087965 69.072579 109.901208 68.602519 109.901208
C 68.132458 109.901208 67.681587 110.087965 67.349205 110.420347
C 67.016822 110.75273 66.830065 111.203601 66.830065 111.673662
C 66.830065 112.143722 67.016822 112.594593 67.349205 112.926976
C 67.681587 113.259358 68.132458 113.446115 68.602519 113.446115
z
" style="stroke:#000000;stroke-width:0.886227;"/>
    <path clip-path="url(#p437302d8bc)" d="M 68.868182 118.383258
C 69.338242 118.383258 69.789113 118.196501 70.121496 117.864119
C 70.453879 117.531736 70.640636 117.080865 70.640636 116.610804
C 70.640636 116.140744 70.453879 115.689873 70.121496 115.35749
C 69.789113 115.025107 69.338242 114.838351 68.868182 114.838351
C 68.398122 114.838351 67.94725 115.025107 67.614868 115.35749
C 67.282485 115.689873 67.095728 116.140744 67.095728 116.610804
C 67.095728 117.080865 67.282485 117.531736 67.614868 117.864119
C 67.94725 118.196501 68.398122 118.383258 68.868182 118.383258
z
" style="stroke:#000000;stroke-width:0.886227;"/>
    <path clip-path="url(#p437302d8bc)" d="M 70.236363 123.320401
C 70.706423 123.320401 71.157294 123.133644 71.489677 122.801261
C 71.82206 122.468879 72.008816 122.018008 72.008816 121.547947
C 72.008816 121.077887 71.82206 120.627016 71.489677 120.294633
C 71.157294 119.96225 70.706423 119.775493 70.236363 119.775493
C 69.766302 119.775493 69.315431 119.96225 68.983048 120.294633
C 68.650666 120.627016 68.463909 121.077887 68.463909 121.547947
C 68.463909 122.018008 68.650666 122.468879 68.983048 122.801261
C 69.315431 123.133644 69.766302 123.320401 70.236363 123.320401
z
" style="stroke:#000000;stroke-width:0.886227;"/>
    <path clip-path="url(#p437302d8bc)" d="M 72.844458 128.257544
C 73.314518 128.257544 73.765389 128.070787 74.097772 127.738404
C 74.430155 127.406021 74.616911 126.95515 74.616911 126.48509
C 74.616911 126.01503 74.430155 125.564159 74.097772 125.231776
C 73.765389 124.899393 73.314518 124.712636 72.844458 124.712636
C 72.374397 124.712636 71.923526 124.899393 71.591143 125.231776
C 71.258761 125.564159 71.072004 126.01503 71.072004 126.48509
C 71.072004 126.95515 71.258761 127.406021 71.591143 127.738404
C 71.923526 128.070787 72.374397 128.257544 72.844458 128.257544
z
" style="stroke:#000000;stroke-width:0.886227;"/>
    <path clip-path="url(#p437302d8bc)" d="M 74.563627 133.194687
C 75.033687 133.194687 75.484559 133.00793 75.816941 132.675547
C 76.149324 132.343164 76.336081 131.892293 76.336081 131.422233
C 76.336081 130.952173 76.149324 130.501302 75.816941 130.168919
C 75.484559 129.836536 75.033687 129.649779 74.563627 129.649779
C 74.093567 129.649779 73.642696 129.836536 73.310313 130.168919
C 72.97793 130.501302 72.791173 130.952173 72.791173 131.422233
C 72.791173 131.892293 72.97793 132.343164 73.310313 132.675547
C 73.642696 133.00793 74.093567 133.194687 74.563627 133.194687
z
" style="stroke:#000000;stroke-width:0.886227;"/>
    <path clip-path="url(#p437302d8bc)" d="M 76.454019 138.13183
C 76.924079 138.13183 77.37495 137.945073 77.707333 137.61269
C 78.039715 137.280307 78.226472 136.829436 78.226472 136.359376
C 78.226472 135.889316 78.039715 135.438444 77.707333 135.106062
C 77.37495 134.773679 76.924079 134.586922 76.454019 134.586922
C 75.983958 134.586922 75.533087 134.773679 75.200704 135.106062
C 74.868322 135.438444 74.681565 135.889316 74.681565 136.359376
C 74.681565 136.829436 74.868322 137.280307 75.200704 137.61269
C 75.533087 137.945073 75.983958 138.13183 76.454019 138.13183
z
" style="stroke:#000000;stroke-width:0.886227;"/>
    <path clip-path="url(#p437302d8bc)" d="M 81.235027 143.068973
C 81.705087 143.068973 82.155958 142.882216 82.488341 142.549833
C 82.820724 142.21745 83.007481 141.766579 83.007481 141.296519
C 83.007481 140.826458 82.820724 140.375587 82.488341 140.043205
C 82.155958 139.710822 81.705087 139.524065 81.235027 139.524065
C 80.764966 139.524065 80.314095 139.710822 79.981713 140.043205
C 79.64933 140.375587 79.462573 140.826458 79.462573 141.296519
C 79.462573 141.766579 79.64933 142.21745 79.981713 142.549833
C 80.314095 142.882216 80.764966 143.068973 81.235027 143.068973
z
" style="stroke:#000000;stroke-width:0.886227;"/>
    <path clip-path="url(#p437302d8bc)" d="M 81.486046 148.006115
C 81.956106 148.006115 82.406977 147.819358 82.73936 147.486976
C 83.071743 147.154593 83.2585 146.703722 83.2585 146.233662
C 83.2585 145.763601 83.071743 145.31273 82.73936 144.980347
C 82.406977 144.647965 81.956106 144.461208 81.486046 144.461208
C 81.015985 144.461208 80.565114 144.647965 80.232732 144.980347
C 79.900349 145.31273 79.713592 145.763601 79.713592 146.233662
C 79.713592 146.703722 79.900349 147.154593 80.232732 147.486976
C 80.565114 147.819358 81.015985 148.006115 81.486046 148.006115
z
" style="stroke:#000000;stroke-width:0.886227;"/>
    <path clip-path="url(#p437302d8bc)" d="M 84.424288 152.943258
C 84.894349 152.943258 85.34522 152.756501 85.677602 152.424119
C 86.009985 152.091736 86.196742 151.640865 86.196742 151.170804
C 86.196742 150.700744 86.009985 150.249873 85.677602 149.91749
C 85.34522 149.585107 84.894349 149.398351 84.424288 149.398351
C 83.954228 149.398351 83.503357 149.585107 83.170974 149.91749
C 82.838591 150.249873 82.651834 150.700744 82.651834 151.170804
C 82.651834 151.640865 82.838591 152.091736 83.170974 152.424119
C 83.503357 152.756501 83.954228 152.943258 84.424288 152.943258
z
" style="stroke:#000000;stroke-width:0.886227;"/>
    <path clip-path="url(#p437302d8bc)" d="M 88.345349 157.880401
C 88.815409 157.880401 89.26628 157.693644 89.598663 157.361261
C 89.931045 157.028879 90.117802 156.578008 90.117802 156.107947
C 90.117802 155.637887 89.931045 155.187016 89.598663 154.854633
C 89.26628 154.52225 88.815409 154.335493 88.345349 154.335493
C 87.875288 154.335493 87.424417 154.52225 87.092034 154.854633
C 86.759652 155.187016 86.572895 155.637887 86.572895 156.107947
C 86.572895 156.578008 86.759652 157.028879 87.092034 157.361261
C 87.424417 157.693644 87.875288 157.880401 88.345349 157.880401
z
" style="stroke:#000000;stroke-width:0.886227;"/>
    <path clip-path="url(#p437302d8bc)" d="M 95.820765 162.817544
C 96.290825 162.817544 96.741696 162.630787 97.074079 162.298404
C 97.406462 161.966021 97.593219 161.51515 97.593219 161.04509
C 97.593219 160.57503 97.406462 160.124159 97.074079 159.791776
C 96.741696 159.459393 96.290825 159.272636 95.820765 159.272636
C 95.350705 159.272636 94.899834 159.459393 94.567451 159.791776
C 94.235068 160.124159 94.048311 160.57503 94.048311 161.04509
C 94.048311 161.51515 94.235068 161.966021 94.567451 162.298404
C 94.899834 162.630787 95.350705 162.817544 95.820765 162.817544
z
" style="stroke:#000000;stroke-width:0.886227;"/>
    <path clip-path="url(#p437302d8bc)" d="M 104.337236 170.223258
C 104.807296 170.223258 105.258167 170.036501 105.59055 169.704119
C 105.922933 169.371736 106.10969 168.920865 106.10969 168.450804
C 106.10969 167.980744 105.922933 167.529873 105.59055 167.19749
C 105.258167 166.865107 104.807296 166.678351 104.337236 166.678351
C 103.867176 166.678351 103.416305 166.865107 103.083922 167.19749
C 102.751539 167.529873 102.564782 167.980744 102.564782 168.450804
C 102.564782 168.920865 102.751539 169.371736 103.083922 169.704119
C 103.416305 170.036501 103.867176 170.223258 104.337236 170.223258
z
" style="stroke:#000000;stroke-width:0.886227;"/>
    <path clip-path="url(#p437302d8bc)" d="M 104.337236 170.223258
C 104.807296 170.223258 105.258167 170.036501 105.59055 169.704119
C 105.922933 169.371736 106.10969 168.920865 106.10969 168.450804
C 106.10969 167.980744 105.922933 167.529873 105.59055 167.19749
C 105.258167 166.865107 104.807296 166.678351 104.337236 166.678351
C 103.867176 166.678351 103.416305 166.865107 103.083922 167.19749
C 102.751539 167.529873 102.564782 167.980744 102.564782 168.450804
C 102.564782 168.920865 102.751539 169.371736 103.083922 169.704119
C 103.416305 170.036501 103.867176 170.223258 104.337236 170.223258
z
" style="stroke:#000000;stroke-width:0.886227;"/>
    <path clip-path="url(#p437302d8bc)" d="M 109.897516 177.628973
C 110.367577 177.628973 110.818448 177.442216 111.15083 177.109833
C 111.483213 176.77745 111.66997 176.326579 111.66997 175.856519
C 111.66997 175.386458 111.483213 174.935587 111.15083 174.603205
C 110.818448 174.270822 110.367577 174.084065 109.897516 174.084065
C 109.427456 174.084065 108.976585 174.270822 108.644202 174.603205
C 108.311819 174.935587 108.125062 175.386458 108.125062 175.856519
C 108.125062 176.326579 108.311819 176.77745 108.644202 177.109833
C 108.976585 177.442216 109.427456 177.628973 109.897516 177.628973
z
" style="stroke:#000000;stroke-width:0.886227;"/>
    <path clip-path="url(#p437302d8bc)" d="M 116.3252 182.566115
C 116.79526 182.566115 117.246131 182.379358 117.578514 182.046976
C 117.910897 181.714593 118.097654 181.263722 118.097654 180.793662
C 118.097654 180.323601 117.910897 179.87273 117.578514 179.540347
C 117.246131 179.207965 116.79526 179.021208 116.3252 179.021208
C 115.855139 179.021208 115.404268 179.207965 115.071886 179.540347
C 114.739503 179.87273 114.552746 180.323601 114.552746 180.793662
C 114.552746 181.263722 114.739503 181.714593 115.071886 182.046976
C 115.404268 182.379358 115.855139 182.566115 116.3252 182.566115
z
" style="stroke:#000000;stroke-width:0.886227;"/>
    <path clip-path="url(#p437302d8bc)" d="M 121.806119 187.503258
C 122.276179 187.503258 122.72705 187.316501 123.059433 186.984119
C 123.391815 186.651736 123.578572 186.200865 123.578572 185.730804
C 123.578572 185.260744 123.391815 184.809873 123.059433 184.47749
C 122.72705 184.145107 122.276179 183.958351 121.806119 183.958351
C 121.336058 183.958351 120.885187 184.145107 120.552804 184.47749
C 120.220422 184.809873 120.033665 185.260744 120.033665 185.730804
C 120.033665 186.200865 120.220422 186.651736 120.552804 186.984119
C 120.885187 187.316501 121.336058 187.503258 121.806119 187.503258
z
" style="stroke:#000000;stroke-width:0.886227;"/>
    <path clip-path="url(#p437302d8bc)" d="M 138.835014 192.440401
C 139.305074 192.440401 139.755945 192.253644 140.088328 191.921261
C 140.420711 191.588879 140.607468 191.138008 140.607468 190.667947
C 140.607468 190.197887 140.420711 189.747016 140.088328 189.414633
C 139.755945 189.08225 139.305074 188.895493 138.835014 188.895493
C 138.364954 188.895493 137.914083 189.08225 137.5817 189.414633
C 137.249317 189.747016 137.06256 190.197887 137.06256 190.667947
C 137.06256 191.138008 137.249317 191.588879 137.5817 191.921261
C 137.914083 192.253644 138.364954 192.440401 138.835014 192.440401
z
" style="stroke:#000000;stroke-width:0.886227;"/>
    <path clip-path="url(#p437302d8bc)" d="M 151.631563 199.846115
C 152.101623 199.846115 152.552494 199.659358 152.884877 199.326976
C 153.21726 198.994593 153.404017 198.543722 153.404017 198.073662
C 153.404017 197.603601 153.21726 197.15273 152.884877 196.820347
C 152.552494 196.487965 152.101623 196.301208 151.631563 196.301208
C 151.161503 196.301208 150.710632 196.487965 150.378249 196.820347
C 150.045866 197.15273 149.859109 197.603601 149.859109 198.073662
C 149.859109 198.543722 150.045866 198.994593 150.378249 199.326976
C 150.710632 199.659358 151.161503 199.846115 151.631563 199.846115
z
" style="stroke:#000000;stroke-width:0.886227;"/>
    <path clip-path="url(#p437302d8bc)" d="M 151.631563 199.846115
C 152.101623 199.846115 152.552494 199.659358 152.884877 199.326976
C 153.21726 198.994593 153.404017 198.543722 153.404017 198.073662
C 153.404017 197.603601 153.21726 197.15273 152.884877 196.820347
C 152.552494 196.487965 152.101623 196.301208 151.631563 196.301208
C 151.161503 196.301208 150.710632 196.487965 150.378249 196.820347
C 150.045866 197.15273 149.859109 197.603601 149.859109 198.073662
C 149.859109 198.543722 150.045866 198.994593 150.378249 199.326976
C 150.710632 199.659358 151.161503 199.846115 151.631563 199.846115
z
" style="stroke:#000000;stroke-width:0.886227;"/>
    <path clip-path="url(#p437302d8bc)" d="M 159.703899 207.25183
C 160.173959 207.25183 160.62483 207.065073 160.957213 206.73269
C 161.289596 206.400307 161.476353 205.949436 161.476353 205.479376
C 161.476353 205.009316 161.289596 204.558444 160.957213 204.226062
C 160.62483 203.893679 160.173959 203.706922 159.703899 203.706922
C 159.233839 203.706922 158.782968 203.893679 158.450585 204.226062
C 158.118202 204.558444 157.931445 205.009316 157.931445 205.479376
C 157.931445 205.949436 158.118202 206.400307 158.450585 206.73269
C 158.782968 207.065073 159.233839 207.25183 159.703899 207.25183
z
" style="stroke:#000000;stroke-width:0.886227;"/>
    <path clip-path="url(#p437302d8bc)" d="M 172.891398 212.188973
C 173.361458 212.188973 173.812329 212.002216 174.144712 211.669833
C 174.477095 211.33745 174.663852 210.886579 174.663852 210.416519
C 174.663852 209.946458 174.477095 209.495587 174.144712 209.163205
C 173.812329 208.830822 173.361458 208.644065 172.891398 208.644065
C 172.421338 208.644065 171.970467 208.830822 171.638084 209.163205
C 171.305701 209.495587 171.118944 209.946458 171.118944 210.416519
C 171.118944 210.886579 171.305701 211.33745 171.638084 211.669833
C 171.970467 212.002216 172.421338 212.188973 172.891398 212.188973
z
" style="stroke:#000000;stroke-width:0.886227;"/>
    <path clip-path="url(#p437302d8bc)" d="M 198.871593 222.063258
C 199.341653 222.063258 199.792524 221.876501 200.124907 221.544119
C 200.45729 221.211736 200.644047 220.760865 200.644047 220.290804
C 200.644047 219.820744 200.45729 219.369873 200.124907 219.03749
C 199.792524 218.705107 199.341653 218.518351 198.871593 218.518351
C 198.401533 218.518351 197.950661 218.705107 197.618279 219.03749
C 197.285896 219.369873 197.099139 219.820744 197.099139 220.290804
C 197.099139 220.760865 197.285896 221.211736 197.618279 221.544119
C 197.950661 221.876501 198.401533 222.063258 198.871593 222.063258
z
" style="stroke:#000000;stroke-width:0.886227;"/>
    <path clip-path="url(#p437302d8bc)" d="M 187.506968 217.126115
C 187.977028 217.126115 188.4279 216.939358 188.760282 216.606976
C 189.092665 216.274593 189.279422 215.823722 189.279422 215.353662
C 189.279422 214.883601 189.092665 214.43273 188.760282 214.100347
C 188.4279 213.767965 187.977028 213.581208 187.506968 213.581208
C 187.036908 213.581208 186.586037 213.767965 186.253654 214.100347
C 185.921271 214.43273 185.734514 214.883601 185.734514 215.353662
C 185.734514 215.823722 185.921271 216.274593 186.253654 216.606976
C 186.586037 216.939358 187.036908 217.126115 187.506968 217.126115
z
" style="stroke:#000000;stroke-width:0.886227;"/>
    <path clip-path="url(#p437302d8bc)" d="M 206.936577 227.000401
C 207.406637 227.000401 207.857508 226.813644 208.189891 226.481261
C 208.522274 226.148879 208.709031 225.698008 208.709031 225.227947
C 208.709031 224.757887 208.522274 224.307016 208.189891 223.974633
C 207.857508 223.64225 207.406637 223.455493 206.936577 223.455493
C 206.466517 223.455493 206.015645 223.64225 205.683263 223.974633
C 205.35088 224.307016 205.164123 224.757887 205.164123 225.227947
C 205.164123 225.698008 205.35088 226.148879 205.683263 226.481261
C 206.015645 226.813644 206.466517 227.000401 206.936577 227.000401
z
" style="stroke:#000000;stroke-width:0.886227;"/>
    <path clip-path="url(#p437302d8bc)" d="M 221.98575 231.937544
C 222.45581 231.937544 222.906681 231.750787 223.239064 231.418404
C 223.571446 231.086021 223.758203 230.63515 223.758203 230.16509
C 223.758203 229.69503 223.571446 229.244159 223.239064 228.911776
C 222.906681 228.579393 222.45581 228.392636 221.98575 228.392636
C 221.515689 228.392636 221.064818 228.579393 220.732435 228.911776
C 220.400053 229.244159 220.213296 229.69503 220.213296 230.16509
C 220.213296 230.63515 220.400053 231.086021 220.732435 231.418404
C 221.064818 231.750787 221.515689 231.937544 221.98575 231.937544
z
" style="stroke:#000000;stroke-width:0.886227;"/>
    <path clip-path="url(#p437302d8bc)" d="M 240.41455 236.874687
C 240.88461 236.874687 241.335482 236.68793 241.667864 236.355547
C 242.000247 236.023164 242.187004 235.572293 242.187004 235.102233
C 242.187004 234.632173 242.000247 234.181302 241.667864 233.848919
C 241.335482 233.516536 240.88461 233.329779 240.41455 233.329779
C 239.94449 233.329779 239.493619 233.516536 239.161236 233.848919
C 238.828853 234.181302 238.642096 234.632173 238.642096 235.102233
C 238.642096 235.572293 238.828853 236.023164 239.161236 236.355547
C 239.493619 236.68793 239.94449 236.874687 240.41455 236.874687
z
" style="stroke:#000000;stroke-width:0.886227;"/>
    <path clip-path="url(#p437302d8bc)" d="M 251.354904 241.81183
C 251.824964 241.81183 252.275835 241.625073 252.608218 241.29269
C 252.940601 240.960307 253.127358 240.509436 253.127358 240.039376
C 253.127358 239.569316 252.940601 239.118444 252.608218 238.786062
C 252.275835 238.453679 251.824964 238.266922 251.354904 238.266922
C 250.884844 238.266922 250.433972 238.453679 250.10159 238.786062
C 249.769207 239.118444 249.58245 239.569316 249.58245 240.039376
C 249.58245 240.509436 249.769207 240.960307 250.10159 241.29269
C 250.433972 241.625073 250.884844 241.81183 251.354904 241.81183
z
" style="stroke:#000000;stroke-width:0.886227;"/>
    <path clip-path="url(#p437302d8bc)" d="M 287.537815 246.748973
C 288.007875 246.748973 288.458746 246.562216 288.791129 246.229833
C 289.123512 245.89745 289.310269 245.446579 289.310269 244.976519
C 289.310269 244.506458 289.123512 244.055587 288.791129 243.723205
C 288.458746 243.390822 288.007875 243.204065 287.537815 243.204065
C 287.067755 243.204065 286.616884 243.390822 286.284501 243.723205
C 285.952118 244.055587 285.765361 244.506458 285.765361 244.976519
C 285.765361 245.446579 285.952118 245.89745 286.284501 246.229833
C 286.616884 246.562216 287.067755 246.748973 287.537815 246.748973
z
" style="stroke:#000000;stroke-width:0.886227;"/>
    <path clip-path="url(#p437302d8bc)" d="M 293.299544 251.686115
C 293.769604 251.686115 294.220475 251.499358 294.552858 251.166976
C 294.885241 250.834593 295.071998 250.383722 295.071998 249.913662
C 295.071998 249.443601 294.885241 248.99273 294.552858 248.660347
C 294.220475 248.327965 293.769604 248.141208 293.299544 248.141208
C 292.829484 248.141208 292.378612 248.327965 292.04623 248.660347
C 291.713847 248.99273 291.52709 249.443601 291.52709 249.913662
C 291.52709 250.383722 291.713847 250.834593 292.04623 251.166976
C 292.378612 251.499358 292.829484 251.686115 293.299544 251.686115
z
" style="stroke:#000000;stroke-width:0.886227;"/>
    <path clip-path="url(#p437302d8bc)" d="M 314.099719 256.623258
C 314.569779 256.623258 315.02065 256.436501 315.353033 256.104119
C 315.685416 255.771736 315.872173 255.320865 315.872173 254.850804
C 315.872173 254.380744 315.685416 253.929873 315.353033 253.59749
C 315.02065 253.265107 314.569779 253.078351 314.099719 253.078351
C 313.629659 253.078351 313.178788 253.265107 312.846405 253.59749
C 312.514022 253.929873 312.327265 254.380744 312.327265 254.850804
C 312.327265 255.320865 312.514022 255.771736 312.846405 256.104119
C 313.178788 256.436501 313.629659 256.623258 314.099719 256.623258
z
" style="stroke:#000000;stroke-width:0.886227;"/>
    <path clip-path="url(#p437302d8bc)" d="M 337.759714 261.560401
C 338.229774 261.560401 338.680645 261.373644 339.013028 261.041261
C 339.345411 260.708879 339.532167 260.258008 339.532167 259.787947
C 339.532167 259.317887 339.345411 258.867016 339.013028 258.534633
C 338.680645 258.20225 338.229774 258.015493 337.759714 258.015493
C 337.289653 258.015493 336.838782 258.20225 336.506399 258.534633
C 336.174017 258.867016 335.98726 259.317887 335.98726 259.787947
C 335.98726 260.258008 336.174017 260.708879 336.506399 261.041261
C 336.838782 261.373644 337.289653 261.560401 337.759714 261.560401
z
" style="stroke:#000000;stroke-width:0.886227;"/>
    <path clip-path="url(#p437302d8bc)" d="M 360.626155 266.497544
C 361.096215 266.497544 361.547086 266.310787 361.879469 265.978404
C 362.211852 265.646021 362.398609 265.19515 362.398609 264.72509
C 362.398609 264.25503 362.211852 263.804159 361.879469 263.471776
C 361.547086 263.139393 361.096215 262.952636 360.626155 262.952636
C 360.156094 262.952636 359.705223 263.139393 359.372841 263.471776
C 359.040458 263.804159 358.853701 264.25503 358.853701 264.72509
C 358.853701 265.19515 359.040458 265.646021 359.372841 265.978404
C 359.705223 266.310787 360.156094 266.497544 360.626155 266.497544
z
" style="stroke:#000000;stroke-width:0.886227;"/>
    <path clip-path="url(#p437302d8bc)" d="M 369.953855 271.434687
C 370.423915 271.434687 370.874786 271.24793 371.207169 270.915547
C 371.539552 270.583164 371.726309 270.132293 371.726309 269.662233
C 371.726309 269.192173 371.539552 268.741302 371.207169 268.408919
C 370.874786 268.076536 370.423915 267.889779 369.953855 267.889779
C 369.483795 267.889779 369.032924 268.076536 368.700541 268.408919
C 368.368158 268.741302 368.181401 269.192173 368.181401 269.662233
C 368.181401 270.132293 368.368158 270.583164 368.700541 270.915547
C 369.032924 271.24793 369.483795 271.434687 369.953855 271.434687
z
" style="stroke:#000000;stroke-width:0.886227;"/>
    <path clip-path="url(#p437302d8bc)" d="M 387.65946 276.37183
C 388.12952 276.37183 388.580392 276.185073 388.912774 275.85269
C 389.245157 275.520307 389.431914 275.069436 389.431914 274.599376
C 389.431914 274.129316 389.245157 273.678444 388.912774 273.346062
C 388.580392 273.013679 388.12952 272.826922 387.65946 272.826922
C 387.1894 272.826922 386.738529 273.013679 386.406146 273.346062
C 386.073763 273.678444 385.887006 274.129316 385.887006 274.599376
C 385.887006 275.069436 386.073763 275.520307 386.406146 275.85269
C 386.738529 276.185073 387.1894 276.37183 387.65946 276.37183
z
" style="stroke:#000000;stroke-width:0.886227;"/>
   </g>
   <g id="PathCollection_2">
    <path clip-path="url(#p437302d8bc)" d="M 63.004915 34.45183
C 63.474975 34.45183 63.925846 34.265073 64.258229 33.93269
C 64.590612 33.600307 64.777369 33.149436 64.777369 32.679376
C 64.777369 32.209316 64.590612 31.758444 64.258229 31.426062
C 63.925846 31.093679 63.474975 30.906922 63.004915 30.906922
C 62.534855 30.906922 62.083983 31.093679 61.751601 31.426062
C 61.419218 31.758444 61.232461 32.209316 61.232461 32.679376
C 61.232461 33.149436 61.419218 33.600307 61.751601 33.93269
C 62.083983 34.265073 62.534855 34.45183 63.004915 34.45183
z
" style="fill:#ff0000;stroke:#ff0000;stroke-width:0.886227;"/>
    <path clip-path="url(#p437302d8bc)" d="M 63.004964 39.388973
C 63.475024 39.388973 63.925895 39.202216 64.258278 38.869833
C 64.590661 38.53745 64.777418 38.086579 64.777418 37.616519
C 64.777418 37.146458 64.590661 36.695587 64.258278 36.363205
C 63.925895 36.030822 63.475024 35.844065 63.004964 35.844065
C 62.534904 35.844065 62.084033 36.030822 61.75165 36.363205
C 61.419267 36.695587 61.23251 37.146458 61.23251 37.616519
C 61.23251 38.086579 61.419267 38.53745 61.75165 38.869833
C 62.084033 39.202216 62.534904 39.388973 63.004964 39.388973
z
" style="fill:#ff0000;stroke:#ff0000;stroke-width:0.886227;"/>
    <path clip-path="url(#p437302d8bc)" d="M 63.006331 44.326115
C 63.476391 44.326115 63.927262 44.139358 64.259645 43.806976
C 64.592028 43.474593 64.778784 43.023722 64.778784 42.553662
C 64.778784 42.083601 64.592028 41.63273 64.259645 41.300347
C 63.927262 40.967965 63.476391 40.781208 63.006331 40.781208
C 62.53627 40.781208 62.085399 40.967965 61.753016 41.300347
C 61.420634 41.63273 61.233877 42.083601 61.233877 42.553662
C 61.233877 43.023722 61.420634 43.474593 61.753016 43.806976
C 62.085399 44.139358 62.53627 44.326115 63.006331 44.326115
z
" style="fill:#ff0000;stroke:#ff0000;stroke-width:0.886227;"/>
    <path clip-path="url(#p437302d8bc)" d="M 63.007316 49.263258
C 63.477376 49.263258 63.928248 49.076501 64.26063 48.744119
C 64.593013 48.411736 64.77977 47.960865 64.77977 47.490804
C 64.77977 47.020744 64.593013 46.569873 64.26063 46.23749
C 63.928248 45.905107 63.477376 45.718351 63.007316 45.718351
C 62.537256 45.718351 62.086385 45.905107 61.754002 46.23749
C 61.421619 46.569873 61.234862 47.020744 61.234862 47.490804
C 61.234862 47.960865 61.421619 48.411736 61.754002 48.744119
C 62.086385 49.076501 62.537256 49.263258 63.007316 49.263258
z
" style="fill:#ff0000;stroke:#ff0000;stroke-width:0.886227;"/>
    <path clip-path="url(#p437302d8bc)" d="M 63.008603 54.200401
C 63.478663 54.200401 63.929534 54.013644 64.261917 53.681261
C 64.5943 53.348879 64.781057 52.898008 64.781057 52.427947
C 64.781057 51.957887 64.5943 51.507016 64.261917 51.174633
C 63.929534 50.84225 63.478663 50.655493 63.008603 50.655493
C 62.538543 50.655493 62.087672 50.84225 61.755289 51.174633
C 61.422906 51.507016 61.236149 51.957887 61.236149 52.427947
C 61.236149 52.898008 61.422906 53.348879 61.755289 53.681261
C 62.087672 54.013644 62.538543 54.200401 63.008603 54.200401
z
" style="fill:#ff0000;stroke:#ff0000;stroke-width:0.886227;"/>
   </g>
   <g id="text_13">
    <g clip-path="url(#p437302d8bc)">
     <!-- HALLMARK_ADIPOGENESIS -->
     <defs>
      <path d="M 34.1875 63.1875
L 20.796875 26.90625
L 47.609375 26.90625
z
M 28.609375 72.90625
L 39.796875 72.90625
L 67.578125 0
L 57.328125 0
L 50.6875 18.703125
L 17.828125 18.703125
L 11.1875 0
L 0.78125 0
z
" id="DejaVuSans-65"/>
      <path d="M 9.8125 72.90625
L 19.671875 72.90625
L 19.671875 8.296875
L 55.171875 8.296875
L 55.171875 0
L 9.8125 0
z
" id="DejaVuSans-76"/>
      <path d="M 9.8125 72.90625
L 19.671875 72.90625
L 19.671875 42.09375
L 52.390625 72.90625
L 65.09375 72.90625
L 28.90625 38.921875
L 67.671875 0
L 54.6875 0
L 19.671875 35.109375
L 19.671875 0
L 9.8125 0
z
" id="DejaVuSans-75"/>
      <path d="M 50.984375 -16.609375
L 50.984375 -23.578125
L -0.984375 -23.578125
L -0.984375 -16.609375
z
" id="DejaVuSans-95"/>
      <path d="M 9.8125 72.90625
L 19.671875 72.90625
L 19.671875 0
L 9.8125 0
z
" id="DejaVuSans-73"/>
      <path d="M 19.671875 64.796875
L 19.671875 37.40625
L 32.078125 37.40625
Q 38.96875 37.40625 42.71875 40.96875
Q 46.484375 44.53125 46.484375 51.125
Q 46.484375 57.671875 42.71875 61.234375
Q 38.96875 64.796875 32.078125 64.796875
z
M 9.8125 72.90625
L 32.078125 72.90625
Q 44.34375 72.90625 50.609375 67.359375
Q 56.890625 61.8125 56.890625 51.125
Q 56.890625 40.328125 50.609375 34.8125
Q 44.34375 29.296875 32.078125 29.296875
L 19.671875 29.296875
L 19.671875 0
L 9.8125 0
z
" id="DejaVuSans-80"/>
      <path d="M 39.40625 66.21875
Q 28.65625 66.21875 22.328125 58.203125
Q 16.015625 50.203125 16.015625 36.375
Q 16.015625 22.609375 22.328125 14.59375
Q 28.65625 6.59375 39.40625 6.59375
Q 50.140625 6.59375 56.421875 14.59375
Q 62.703125 22.609375 62.703125 36.375
Q 62.703125 50.203125 56.421875 58.203125
Q 50.140625 66.21875 39.40625 66.21875
z
M 39.40625 74.21875
Q 54.734375 74.21875 63.90625 63.9375
Q 73.09375 53.65625 73.09375 36.375
Q 73.09375 19.140625 63.90625 8.859375
Q 54.734375 -1.421875 39.40625 -1.421875
Q 24.03125 -1.421875 14.8125 8.828125
Q 5.609375 19.09375 5.609375 36.375
Q 5.609375 53.65625 14.8125 63.9375
Q 24.03125 74.21875 39.40625 74.21875
z
" id="DejaVuSans-79"/>
      <path d="M 9.8125 72.90625
L 55.90625 72.90625
L 55.90625 64.59375
L 19.671875 64.59375
L 19.671875 43.015625
L 54.390625 43.015625
L 54.390625 34.71875
L 19.671875 34.71875
L 19.671875 8.296875
L 56.78125 8.296875
L 56.78125 0
L 9.8125 0
z
" id="DejaVuSans-69"/>
      <path d="M 9.8125 72.90625
L 23.09375 72.90625
L 55.421875 11.921875
L 55.421875 72.90625
L 64.984375 72.90625
L 64.984375 0
L 51.703125 0
L 19.390625 60.984375
L 19.390625 0
L 9.8125 0
z
" id="DejaVuSans-78"/>
      <path d="M 53.515625 70.515625
L 53.515625 60.890625
Q 47.90625 63.578125 42.921875 64.890625
Q 37.9375 66.21875 33.296875 66.21875
Q 25.25 66.21875 20.875 63.09375
Q 16.5 59.96875 16.5 54.203125
Q 16.5 49.359375 19.40625 46.890625
Q 22.3125 44.4375 30.421875 42.921875
L 36.375 41.703125
Q 47.40625 39.59375 52.65625 34.296875
Q 57.90625 29 57.90625 20.125
Q 57.90625 9.515625 50.796875 4.046875
Q 43.703125 -1.421875 29.984375 -1.421875
Q 24.8125 -1.421875 18.96875 -0.25
Q 13.140625 0.921875 6.890625 3.21875
L 6.890625 13.375
Q 12.890625 10.015625 18.65625 8.296875
Q 24.421875 6.59375 29.984375 6.59375
Q 38.421875 6.59375 43.015625 9.90625
Q 47.609375 13.234375 47.609375 19.390625
Q 47.609375 24.75 44.3125 27.78125
Q 41.015625 30.8125 33.5 32.328125
L 27.484375 33.5
Q 16.453125 35.6875 11.515625 40.375
Q 6.59375 45.0625 6.59375 53.421875
Q 6.59375 63.09375 13.40625 68.65625
Q 20.21875 74.21875 32.171875 74.21875
Q 37.3125 74.21875 42.625 73.28125
Q 47.953125 72.359375 53.515625 70.515625
z
" id="DejaVuSans-83"/>
     </defs>
     <g transform="translate(63.004915 36.390313)scale(0.05 -0.05)">
      <use xlink:href="#DejaVuSans-72"/>
      <use x="75.195312" xlink:href="#DejaVuSans-65"/>
      <use x="143.603516" xlink:href="#DejaVuSans-76"/>
      <use x="199.316406" xlink:href="#DejaVuSans-76"/>
      <use x="255.029297" xlink:href="#DejaVuSans-77"/>
      <use x="341.308594" xlink:href="#DejaVuSans-65"/>
      <use x="409.716797" xlink:href="#DejaVuSans-82"/>
      <use x="479.199219" xlink:href="#DejaVuSans-75"/>
      <use x="544.775391" xlink:href="#DejaVuSans-95"/>
      <use x="594.775391" xlink:href="#DejaVuSans-65"/>
      <use x="663.183594" xlink:href="#DejaVuSans-68"/>
      <use x="740.185547" xlink:href="#DejaVuSans-73"/>
      <use x="769.677734" xlink:href="#DejaVuSans-80"/>
      <use x="829.980469" xlink:href="#DejaVuSans-79"/>
      <use x="908.691406" xlink:href="#DejaVuSans-71"/>
      <use x="986.181641" xlink:href="#DejaVuSans-69"/>
      <use x="1049.365234" xlink:href="#DejaVuSans-78"/>
      <use x="1124.169922" xlink:href="#DejaVuSans-69"/>
      <use x="1187.353516" xlink:href="#DejaVuSans-83"/>
      <use x="1250.830078" xlink:href="#DejaVuSans-73"/>
      <use x="1280.322266" xlink:href="#DejaVuSans-83"/>
     </g>
    </g>
   </g>
   <g id="text_14">
    <g clip-path="url(#p437302d8bc)">
     <!-- HALLMARK_ALLOGRAFT_REJECTION -->
     <defs>
      <path d="M -0.296875 72.90625
L 61.375 72.90625
L 61.375 64.59375
L 35.5 64.59375
L 35.5 0
L 25.59375 0
L 25.59375 64.59375
L -0.296875 64.59375
z
" id="DejaVuSans-84"/>
      <path d="M 9.8125 72.90625
L 19.671875 72.90625
L 19.671875 5.078125
Q 19.671875 -8.109375 14.671875 -14.0625
Q 9.671875 -20.015625 -1.421875 -20.015625
L -5.171875 -20.015625
L -5.171875 -11.71875
L -2.09375 -11.71875
Q 4.4375 -11.71875 7.125 -8.046875
Q 9.8125 -4.390625 9.8125 5.078125
z
" id="DejaVuSans-74"/>
      <path d="M 64.40625 67.28125
L 64.40625 56.890625
Q 59.421875 61.53125 53.78125 63.8125
Q 48.140625 66.109375 41.796875 66.109375
Q 29.296875 66.109375 22.65625 58.46875
Q 16.015625 50.828125 16.015625 36.375
Q 16.015625 21.96875 22.65625 14.328125
Q 29.296875 6.6875 41.796875 6.6875
Q 48.140625 6.6875 53.78125 8.984375
Q 59.421875 11.28125 64.40625 15.921875
L 64.40625 5.609375
Q 59.234375 2.09375 53.4375 0.328125
Q 47.65625 -1.421875 41.21875 -1.421875
Q 24.65625 -1.421875 15.125 8.703125
Q 5.609375 18.84375 5.609375 36.375
Q 5.609375 53.953125 15.125 64.078125
Q 24.65625 74.21875 41.21875 74.21875
Q 47.75 74.21875 53.53125 72.484375
Q 59.328125 70.75 64.40625 67.28125
z
" id="DejaVuSans-67"/>
     </defs>
     <g transform="translate(63.004964 41.327456)scale(0.05 -0.05)">
      <use xlink:href="#DejaVuSans-72"/>
      <use x="75.195312" xlink:href="#DejaVuSans-65"/>
      <use x="143.603516" xlink:href="#DejaVuSans-76"/>
      <use x="199.316406" xlink:href="#DejaVuSans-76"/>
      <use x="255.029297" xlink:href="#DejaVuSans-77"/>
      <use x="341.308594" xlink:href="#DejaVuSans-65"/>
      <use x="409.716797" xlink:href="#DejaVuSans-82"/>
      <use x="479.199219" xlink:href="#DejaVuSans-75"/>
      <use x="544.775391" xlink:href="#DejaVuSans-95"/>
      <use x="594.775391" xlink:href="#DejaVuSans-65"/>
      <use x="663.183594" xlink:href="#DejaVuSans-76"/>
      <use x="718.896484" xlink:href="#DejaVuSans-76"/>
      <use x="774.5625" xlink:href="#DejaVuSans-79"/>
      <use x="853.273438" xlink:href="#DejaVuSans-71"/>
      <use x="930.763672" xlink:href="#DejaVuSans-82"/>
      <use x="1000.183594" xlink:href="#DejaVuSans-65"/>
      <use x="1068.591797" xlink:href="#DejaVuSans-70"/>
      <use x="1126.095703" xlink:href="#DejaVuSans-84"/>
      <use x="1187.179688" xlink:href="#DejaVuSans-95"/>
      <use x="1237.179688" xlink:href="#DejaVuSans-82"/>
      <use x="1306.662109" xlink:href="#DejaVuSans-69"/>
      <use x="1369.845703" xlink:href="#DejaVuSans-74"/>
      <use x="1399.337891" xlink:href="#DejaVuSans-69"/>
      <use x="1462.521484" xlink:href="#DejaVuSans-67"/>
      <use x="1532.345703" xlink:href="#DejaVuSans-84"/>
      <use x="1593.429688" xlink:href="#DejaVuSans-73"/>
      <use x="1622.921875" xlink:href="#DejaVuSans-79"/>
      <use x="1701.632812" xlink:href="#DejaVuSans-78"/>
     </g>
    </g>
   </g>
   <g id="text_15">
    <g clip-path="url(#p437302d8bc)">
     <!-- HALLMARK_ANDROGEN_RESPONSE -->
     <g transform="translate(63.006331 46.264599)scale(0.05 -0.05)">
      <use xlink:href="#DejaVuSans-72"/>
      <use x="75.195312" xlink:href="#DejaVuSans-65"/>
      <use x="143.603516" xlink:href="#DejaVuSans-76"/>
      <use x="199.316406" xlink:href="#DejaVuSans-76"/>
      <use x="255.029297" xlink:href="#DejaVuSans-77"/>
      <use x="341.308594" xlink:href="#DejaVuSans-65"/>
      <use x="409.716797" xlink:href="#DejaVuSans-82"/>
      <use x="479.199219" xlink:href="#DejaVuSans-75"/>
      <use x="544.775391" xlink:href="#DejaVuSans-95"/>
      <use x="594.775391" xlink:href="#DejaVuSans-65"/>
      <use x="663.183594" xlink:href="#DejaVuSans-78"/>
      <use x="737.988281" xlink:href="#DejaVuSans-68"/>
      <use x="814.990234" xlink:href="#DejaVuSans-82"/>
      <use x="884.472656" xlink:href="#DejaVuSans-79"/>
      <use x="963.183594" xlink:href="#DejaVuSans-71"/>
      <use x="1040.673828" xlink:href="#DejaVuSans-69"/>
      <use x="1103.857422" xlink:href="#DejaVuSans-78"/>
      <use x="1178.662109" xlink:href="#DejaVuSans-95"/>
      <use x="1228.662109" xlink:href="#DejaVuSans-82"/>
      <use x="1298.144531" xlink:href="#DejaVuSans-69"/>
      <use x="1361.328125" xlink:href="#DejaVuSans-83"/>
      <use x="1424.804688" xlink:href="#DejaVuSans-80"/>
      <use x="1485.107422" xlink:href="#DejaVuSans-79"/>
      <use x="1563.818359" xlink:href="#DejaVuSans-78"/>
      <use x="1638.623047" xlink:href="#DejaVuSans-83"/>
      <use x="1702.099609" xlink:href="#DejaVuSans-69"/>
     </g>
    </g>
   </g>
   <g id="text_16">
    <g clip-path="url(#p437302d8bc)">
     <!-- HALLMARK_ANGIOGENESIS -->
     <g transform="translate(63.007316 51.201742)scale(0.05 -0.05)">
      <use xlink:href="#DejaVuSans-72"/>
      <use x="75.195312" xlink:href="#DejaVuSans-65"/>
      <use x="143.603516" xlink:href="#DejaVuSans-76"/>
      <use x="199.316406" xlink:href="#DejaVuSans-76"/>
      <use x="255.029297" xlink:href="#DejaVuSans-77"/>
      <use x="341.308594" xlink:href="#DejaVuSans-65"/>
      <use x="409.716797" xlink:href="#DejaVuSans-82"/>
      <use x="479.199219" xlink:href="#DejaVuSans-75"/>
      <use x="544.775391" xlink:href="#DejaVuSans-95"/>
      <use x="594.775391" xlink:href="#DejaVuSans-65"/>
      <use x="663.183594" xlink:href="#DejaVuSans-78"/>
      <use x="737.988281" xlink:href="#DejaVuSans-71"/>
      <use x="815.478516" xlink:href="#DejaVuSans-73"/>
      <use x="844.970703" xlink:href="#DejaVuSans-79"/>
      <use x="923.681641" xlink:href="#DejaVuSans-71"/>
      <use x="1001.171875" xlink:href="#DejaVuSans-69"/>
      <use x="1064.355469" xlink:href="#DejaVuSans-78"/>
      <use x="1139.160156" xlink:href="#DejaVuSans-69"/>
      <use x="1202.34375" xlink:href="#DejaVuSans-83"/>
      <use x="1265.820312" xlink:href="#DejaVuSans-73"/>
      <use x="1295.3125" xlink:href="#DejaVuSans-83"/>
     </g>
    </g>
   </g>
   <g id="text_17">
    <g clip-path="url(#p437302d8bc)">
     <!-- HALLMARK_APICAL_JUNCTION -->
     <defs>
      <path d="M 8.6875 72.90625
L 18.609375 72.90625
L 18.609375 28.609375
Q 18.609375 16.890625 22.84375 11.734375
Q 27.09375 6.59375 36.625 6.59375
Q 46.09375 6.59375 50.34375 11.734375
Q 54.59375 16.890625 54.59375 28.609375
L 54.59375 72.90625
L 64.5 72.90625
L 64.5 27.390625
Q 64.5 13.140625 57.4375 5.859375
Q 50.390625 -1.421875 36.625 -1.421875
Q 22.796875 -1.421875 15.734375 5.859375
Q 8.6875 13.140625 8.6875 27.390625
z
" id="DejaVuSans-85"/>
     </defs>
     <g transform="translate(63.008603 56.138885)scale(0.05 -0.05)">
      <use xlink:href="#DejaVuSans-72"/>
      <use x="75.195312" xlink:href="#DejaVuSans-65"/>
      <use x="143.603516" xlink:href="#DejaVuSans-76"/>
      <use x="199.316406" xlink:href="#DejaVuSans-76"/>
      <use x="255.029297" xlink:href="#DejaVuSans-77"/>
      <use x="341.308594" xlink:href="#DejaVuSans-65"/>
      <use x="409.716797" xlink:href="#DejaVuSans-82"/>
      <use x="479.199219" xlink:href="#DejaVuSans-75"/>
      <use x="544.775391" xlink:href="#DejaVuSans-95"/>
      <use x="594.775391" xlink:href="#DejaVuSans-65"/>
      <use x="663.183594" xlink:href="#DejaVuSans-80"/>
      <use x="723.486328" xlink:href="#DejaVuSans-73"/>
      <use x="752.978516" xlink:href="#DejaVuSans-67"/>
      <use x="822.802734" xlink:href="#DejaVuSans-65"/>
      <use x="891.210938" xlink:href="#DejaVuSans-76"/>
      <use x="946.923828" xlink:href="#DejaVuSans-95"/>
      <use x="996.923828" xlink:href="#DejaVuSans-74"/>
      <use x="1026.416016" xlink:href="#DejaVuSans-85"/>
      <use x="1099.609375" xlink:href="#DejaVuSans-78"/>
      <use x="1174.414062" xlink:href="#DejaVuSans-67"/>
      <use x="1244.238281" xlink:href="#DejaVuSans-84"/>
      <use x="1305.322266" xlink:href="#DejaVuSans-73"/>
      <use x="1334.814453" xlink:href="#DejaVuSans-79"/>
      <use x="1413.525391" xlink:href="#DejaVuSans-78"/>
     </g>
    </g>
   </g>
  </g>
  <g id="text_18">
   <!-- CAMERA pathway statistics vs ranking -->
   <defs>
    <path d="M 54.890625 33.015625
L 54.890625 0
L 45.90625 0
L 45.90625 32.71875
Q 45.90625 40.484375 42.875 44.328125
Q 39.84375 48.1875 33.796875 48.1875
Q 26.515625 48.1875 22.3125 43.546875
Q 18.109375 38.921875 18.109375 30.90625
L 18.109375 0
L 9.078125 0
L 9.078125 75.984375
L 18.109375 75.984375
L 18.109375 46.1875
Q 21.34375 51.125 25.703125 53.5625
Q 30.078125 56 35.796875 56
Q 45.21875 56 50.046875 50.171875
Q 54.890625 44.34375 54.890625 33.015625
z
" id="DejaVuSans-104"/>
    <path d="M 4.203125 54.6875
L 13.1875 54.6875
L 24.421875 12.015625
L 35.59375 54.6875
L 46.1875 54.6875
L 57.421875 12.015625
L 68.609375 54.6875
L 77.59375 54.6875
L 63.28125 0
L 52.6875 0
L 40.921875 44.828125
L 29.109375 0
L 18.5 0
z
" id="DejaVuSans-119"/>
    <path d="M 32.171875 -5.078125
Q 28.375 -14.84375 24.75 -17.8125
Q 21.140625 -20.796875 15.09375 -20.796875
L 7.90625 -20.796875
L 7.90625 -13.28125
L 13.1875 -13.28125
Q 16.890625 -13.28125 18.9375 -11.515625
Q 21 -9.765625 23.484375 -3.21875
L 25.09375 0.875
L 2.984375 54.6875
L 12.5 54.6875
L 29.59375 11.921875
L 46.6875 54.6875
L 56.203125 54.6875
z
" id="DejaVuSans-121"/>
    <path d="M 2.984375 54.6875
L 12.5 54.6875
L 29.59375 8.796875
L 46.6875 54.6875
L 56.203125 54.6875
L 35.6875 0
L 23.484375 0
z
" id="DejaVuSans-118"/>
   </defs>
   <g transform="translate(75.755 11.397656)scale(0.15 -0.15)">
    <use xlink:href="#DejaVuSans-67"/>
    <use x="69.824219" xlink:href="#DejaVuSans-65"/>
    <use x="138.232422" xlink:href="#DejaVuSans-77"/>
    <use x="224.511719" xlink:href="#DejaVuSans-69"/>
    <use x="287.695312" xlink:href="#DejaVuSans-82"/>
    <use x="357.115234" xlink:href="#DejaVuSans-65"/>
    <use x="425.523438" xlink:href="#DejaVuSans-32"/>
    <use x="457.310547" xlink:href="#DejaVuSans-112"/>
    <use x="520.787109" xlink:href="#DejaVuSans-97"/>
    <use x="582.066406" xlink:href="#DejaVuSans-116"/>
    <use x="621.275391" xlink:href="#DejaVuSans-104"/>
    <use x="684.654297" xlink:href="#DejaVuSans-119"/>
    <use x="766.441406" xlink:href="#DejaVuSans-97"/>
    <use x="827.720703" xlink:href="#DejaVuSans-121"/>
    <use x="886.900391" xlink:href="#DejaVuSans-32"/>
    <use x="918.6875" xlink:href="#DejaVuSans-115"/>
    <use x="970.787109" xlink:href="#DejaVuSans-116"/>
    <use x="1009.996094" xlink:href="#DejaVuSans-97"/>
    <use x="1071.275391" xlink:href="#DejaVuSans-116"/>
    <use x="1110.484375" xlink:href="#DejaVuSans-105"/>
    <use x="1138.267578" xlink:href="#DejaVuSans-115"/>
    <use x="1190.367188" xlink:href="#DejaVuSans-116"/>
    <use x="1229.576172" xlink:href="#DejaVuSans-105"/>
    <use x="1257.359375" xlink:href="#DejaVuSans-99"/>
    <use x="1312.339844" xlink:href="#DejaVuSans-115"/>
    <use x="1364.439453" xlink:href="#DejaVuSans-32"/>
    <use x="1396.226562" xlink:href="#DejaVuSans-118"/>
    <use x="1455.40625" xlink:href="#DejaVuSans-115"/>
    <use x="1507.505859" xlink:href="#DejaVuSans-32"/>
    <use x="1539.292969" xlink:href="#DejaVuSans-114"/>
    <use x="1580.40625" xlink:href="#DejaVuSans-97"/>
    <use x="1641.685547" xlink:href="#DejaVuSans-110"/>
    <use x="1705.064453" xlink:href="#DejaVuSans-107"/>
    <use x="1762.974609" xlink:href="#DejaVuSans-105"/>
    <use x="1790.757812" xlink:href="#DejaVuSans-110"/>
    <use x="1854.136719" xlink:href="#DejaVuSans-103"/>
   </g>
  </g>
 </g>
 <defs>
  <clipPath id="p437302d8bc">
   <rect height="266.112" width="357.12" x="46.772188" y="20.583376"/>
  </clipPath>
 </defs>
</svg>
