<?xml version="1.0" encoding="utf-8" standalone="no"?>
<!DOCTYPE svg PUBLIC "-//W3C//DTD SVG 1.1//EN"
  "http://www.w3.org/Graphics/SVG/1.1/DTD/svg11.dtd">
<!-- Created with matplotlib (https://matplotlib.org/) -->
<svg height="332.048141pt" version="1.1" viewBox="0 0 406.642188 332.048141" width="406.642188pt" xmlns="http://www.w3.org/2000/svg" xmlns:xlink="http://www.w3.org/1999/xlink">
 <defs>
  <style type="text/css">
*{stroke-linecap:butt;stroke-linejoin:round;}
  </style>
 </defs>
 <g id="figure_1">
  <g id="patch_1">
   <path d="M 0 332.048141
L 406.642188 332.048141
L 406.642188 0
L 0 0
z
" style="fill:#ffffff;stroke:#ffffff;stroke-linejoin:miter;"/>
  </g>
  <g id="axes_1">
   <g id="patch_2">
    <path d="M 46.772188 296.534391
L 403.892188 296.534391
L 403.892188 30.422391
L 46.772188 30.422391
z
" style="fill:none;"/>
   </g>
   <g id="matplotlib.axis_1">
    <g id="xtick_1">
     <g id="line2d_1">
      <path clip-path="url(#p37f11b3686)" d="M 62.448301 296.534391
L 62.448301 30.422391
" style="fill:none;stroke:#e5e5e5;stroke-width:0.8;"/>
     </g>
     <g id="line2d_2">
      <path d="M 62.448301 296.534391
" style="fill:none;stroke:#000000;stroke-width:1.5;"/>
      <defs>
       <path d="M 0 0
L 0 2.75
" id="mee00566563" style="stroke:#000000;"/>
      </defs>
      <g>
       <use style="stroke:#000000;" x="62.448301" xlink:href="#mee00566563" y="296.534391"/>
      </g>
     </g>
     <g id="text_1">
      <!-- 0 -->
      <defs>
       <path d="M 31.78125 66.40625
Q 24.171875 66.40625 20.328125 58.90625
Q 16.5 51.421875 16.5 36.375
Q 16.5 21.390625 20.328125 13.890625
Q 24.171875 6.390625 31.78125 6.390625
Q 39.453125 6.390625 43.28125 13.890625
Q 47.125 21.390625 47.125 36.375
Q 47.125 51.421875 43.28125 58.90625
Q 39.453125 66.40625 31.78125 66.40625
z
M 31.78125 74.21875
Q 44.046875 74.21875 50.515625 64.515625
Q 56.984375 54.828125 56.984375 36.375
Q 56.984375 17.96875 50.515625 8.265625
Q 44.046875 -1.421875 31.78125 -1.421875
Q 19.53125 -1.421875 13.0625 8.265625
Q 6.59375 17.96875 6.59375 36.375
Q 6.59375 54.828125 13.0625 64.515625
Q 19.53125 74.21875 31.78125 74.21875
z
" id="DejaVuSans-48"/>
      </defs>
      <g style="fill:#4d4d4d;" transform="translate(58.630801 310.602516)scale(0.12 -0.12)">
       <use xlink:href="#DejaVuSans-48"/>
      </g>
     </g>
    </g>
    <g id="xtick_2">
     <g id="line2d_3">
      <path clip-path="url(#p37f11b3686)" d="M 150.021654 296.534391
L 150.021654 30.422391
" style="fill:none;stroke:#e5e5e5;stroke-width:0.8;"/>
     </g>
     <g id="line2d_4">
      <path d="M 150.021654 296.534391
" style="fill:none;stroke:#000000;stroke-width:1.5;"/>
      <g>
       <use style="stroke:#000000;" x="150.021654" xlink:href="#mee00566563" y="296.534391"/>
      </g>
     </g>
     <g id="text_2">
      <!-- 2 -->
      <defs>
       <path d="M 19.1875 8.296875
L 53.609375 8.296875
L 53.609375 0
L 7.328125 0
L 7.328125 8.296875
Q 12.9375 14.109375 22.625 23.890625
Q 32.328125 33.6875 34.8125 36.53125
Q 39.546875 41.84375 41.421875 45.53125
Q 43.3125 49.21875 43.3125 52.78125
Q 43.3125 58.59375 39.234375 62.25
Q 35.15625 65.921875 28.609375 65.921875
Q 23.96875 65.921875 18.8125 64.3125
Q 13.671875 62.703125 7.8125 59.421875
L 7.8125 69.390625
Q 13.765625 71.78125 18.9375 73
Q 24.125 74.21875 28.421875 74.21875
Q 39.75 74.21875 46.484375 68.546875
Q 53.21875 62.890625 53.21875 53.421875
Q 53.21875 48.921875 51.53125 44.890625
Q 49.859375 40.875 45.40625 35.40625
Q 44.1875 33.984375 37.640625 27.21875
Q 31.109375 20.453125 19.1875 8.296875
z
" id="DejaVuSans-50"/>
      </defs>
      <g style="fill:#4d4d4d;" transform="translate(146.204154 310.602516)scale(0.12 -0.12)">
       <use xlink:href="#DejaVuSans-50"/>
      </g>
     </g>
    </g>
    <g id="xtick_3">
     <g id="line2d_5">
      <path clip-path="url(#p37f11b3686)" d="M 237.595007 296.534391
L 237.595007 30.422391
" style="fill:none;stroke:#e5e5e5;stroke-width:0.8;"/>
     </g>
     <g id="line2d_6">
      <path d="M 237.595007 296.534391
" style="fill:none;stroke:#000000;stroke-width:1.5;"/>
      <g>
       <use style="stroke:#000000;" x="237.595007" xlink:href="#mee00566563" y="296.534391"/>
      </g>
     </g>
     <g id="text_3">
      <!-- 4 -->
      <defs>
       <path d="M 37.796875 64.3125
L 12.890625 25.390625
L 37.796875 25.390625
z
M 35.203125 72.90625
L 47.609375 72.90625
L 47.609375 25.390625
L 58.015625 25.390625
L 58.015625 17.1875
L 47.609375 17.1875
L 47.609375 0
L 37.796875 0
L 37.796875 17.1875
L 4.890625 17.1875
L 4.890625 26.703125
z
" id="DejaVuSans-52"/>
      </defs>
      <g style="fill:#4d4d4d;" transform="translate(233.777507 310.602516)scale(0.12 -0.12)">
       <use xlink:href="#DejaVuSans-52"/>
      </g>
     </g>
    </g>
    <g id="xtick_4">
     <g id="line2d_7">
      <path clip-path="url(#p37f11b3686)" d="M 325.168361 296.534391
L 325.168361 30.422391
" style="fill:none;stroke:#e5e5e5;stroke-width:0.8;"/>
     </g>
     <g id="line2d_8">
      <path d="M 325.168361 296.534391
" style="fill:none;stroke:#000000;stroke-width:1.5;"/>
      <g>
       <use style="stroke:#000000;" x="325.168361" xlink:href="#mee00566563" y="296.534391"/>
      </g>
     </g>
     <g id="text_4">
      <!-- 6 -->
      <defs>
       <path d="M 33.015625 40.375
Q 26.375 40.375 22.484375 35.828125
Q 18.609375 31.296875 18.609375 23.390625
Q 18.609375 15.53125 22.484375 10.953125
Q 26.375 6.390625 33.015625 6.390625
Q 39.65625 6.390625 43.53125 10.953125
Q 47.40625 15.53125 47.40625 23.390625
Q 47.40625 31.296875 43.53125 35.828125
Q 39.65625 40.375 33.015625 40.375
z
M 52.59375 71.296875
L 52.59375 62.3125
Q 48.875 64.0625 45.09375 64.984375
Q 41.3125 65.921875 37.59375 65.921875
Q 27.828125 65.921875 22.671875 59.328125
Q 17.53125 52.734375 16.796875 39.40625
Q 19.671875 43.65625 24.015625 45.921875
Q 28.375 48.1875 33.59375 48.1875
Q 44.578125 48.1875 50.953125 41.515625
Q 57.328125 34.859375 57.328125 23.390625
Q 57.328125 12.15625 50.6875 5.359375
Q 44.046875 -1.421875 33.015625 -1.421875
Q 20.359375 -1.421875 13.671875 8.265625
Q 6.984375 17.96875 6.984375 36.375
Q 6.984375 53.65625 15.1875 63.9375
Q 23.390625 74.21875 37.203125 74.21875
Q 40.921875 74.21875 44.703125 73.484375
Q 48.484375 72.75 52.59375 71.296875
z
" id="DejaVuSans-54"/>
      </defs>
      <g style="fill:#4d4d4d;" transform="translate(321.350861 310.602516)scale(0.12 -0.12)">
       <use xlink:href="#DejaVuSans-54"/>
      </g>
     </g>
    </g>
    <g id="xtick_5">
     <g id="line2d_9">
      <path clip-path="url(#p37f11b3686)" d="M 106.234978 296.534391
L 106.234978 30.422391
" style="fill:none;stroke:#fafafa;"/>
     </g>
     <g id="line2d_10">
      <path d="M 106.234978 296.534391
" style="fill:none;stroke:#000000;stroke-width:1.5;"/>
     </g>
    </g>
    <g id="xtick_6">
     <g id="line2d_11">
      <path clip-path="url(#p37f11b3686)" d="M 193.808331 296.534391
L 193.808331 30.422391
" style="fill:none;stroke:#fafafa;"/>
     </g>
     <g id="line2d_12">
      <path d="M 193.808331 296.534391
" style="fill:none;stroke:#000000;stroke-width:1.5;"/>
     </g>
    </g>
    <g id="xtick_7">
     <g id="line2d_13">
      <path clip-path="url(#p37f11b3686)" d="M 281.381684 296.534391
L 281.381684 30.422391
" style="fill:none;stroke:#fafafa;"/>
     </g>
     <g id="line2d_14">
      <path d="M 281.381684 296.534391
" style="fill:none;stroke:#000000;stroke-width:1.5;"/>
     </g>
    </g>
    <g id="xtick_8">
     <g id="line2d_15">
      <path clip-path="url(#p37f11b3686)" d="M 368.955037 296.534391
L 368.955037 30.422391
" style="fill:none;stroke:#fafafa;"/>
     </g>
     <g id="line2d_16">
      <path d="M 368.955037 296.534391
" style="fill:none;stroke:#000000;stroke-width:1.5;"/>
     </g>
    </g>
    <g id="text_5">
     <!-- -log$_{10}$(median(FDR)) -->
     <defs>
      <path d="M 4.890625 31.390625
L 31.203125 31.390625
L 31.203125 23.390625
L 4.890625 23.390625
z
" id="DejaVuSans-45"/>
      <path d="M 9.421875 75.984375
L 18.40625 75.984375
L 18.40625 0
L 9.421875 0
z
" id="DejaVuSans-108"/>
      <path d="M 30.609375 48.390625
Q 23.390625 48.390625 19.1875 42.75
Q 14.984375 37.109375 14.984375 27.296875
Q 14.984375 17.484375 19.15625 11.84375
Q 23.34375 6.203125 30.609375 6.203125
Q 37.796875 6.203125 41.984375 11.859375
Q 46.1875 17.53125 46.1875 27.296875
Q 46.1875 37.015625 41.984375 42.703125
Q 37.796875 48.390625 30.609375 48.390625
z
M 30.609375 56
Q 42.328125 56 49.015625 48.375
Q 55.71875 40.765625 55.71875 27.296875
Q 55.71875 13.875 49.015625 6.21875
Q 42.328125 -1.421875 30.609375 -1.421875
Q 18.84375 -1.421875 12.171875 6.21875
Q 5.515625 13.875 5.515625 27.296875
Q 5.515625 40.765625 12.171875 48.375
Q 18.84375 56 30.609375 56
z
" id="DejaVuSans-111"/>
      <path d="M 45.40625 27.984375
Q 45.40625 37.75 41.375 43.109375
Q 37.359375 48.484375 30.078125 48.484375
Q 22.859375 48.484375 18.828125 43.109375
Q 14.796875 37.75 14.796875 27.984375
Q 14.796875 18.265625 18.828125 12.890625
Q 22.859375 7.515625 30.078125 7.515625
Q 37.359375 7.515625 41.375 12.890625
Q 45.40625 18.265625 45.40625 27.984375
z
M 54.390625 6.78125
Q 54.390625 -7.171875 48.1875 -13.984375
Q 42 -20.796875 29.203125 -20.796875
Q 24.46875 -20.796875 20.265625 -20.09375
Q 16.0625 -19.390625 12.109375 -17.921875
L 12.109375 -9.1875
Q 16.0625 -11.328125 19.921875 -12.34375
Q 23.78125 -13.375 27.78125 -13.375
Q 36.625 -13.375 41.015625 -8.765625
Q 45.40625 -4.15625 45.40625 5.171875
L 45.40625 9.625
Q 42.625 4.78125 38.28125 2.390625
Q 33.9375 0 27.875 0
Q 17.828125 0 11.671875 7.65625
Q 5.515625 15.328125 5.515625 27.984375
Q 5.515625 40.671875 11.671875 48.328125
Q 17.828125 56 27.875 56
Q 33.9375 56 38.28125 53.609375
Q 42.625 51.21875 45.40625 46.390625
L 45.40625 54.6875
L 54.390625 54.6875
z
" id="DejaVuSans-103"/>
      <path d="M 12.40625 8.296875
L 28.515625 8.296875
L 28.515625 63.921875
L 10.984375 60.40625
L 10.984375 69.390625
L 28.421875 72.90625
L 38.28125 72.90625
L 38.28125 8.296875
L 54.390625 8.296875
L 54.390625 0
L 12.40625 0
z
" id="DejaVuSans-49"/>
      <path d="M 31 75.875
Q 24.46875 64.65625 21.28125 53.65625
Q 18.109375 42.671875 18.109375 31.390625
Q 18.109375 20.125 21.3125 9.0625
Q 24.515625 -2 31 -13.1875
L 23.1875 -13.1875
Q 15.875 -1.703125 12.234375 9.375
Q 8.59375 20.453125 8.59375 31.390625
Q 8.59375 42.28125 12.203125 53.3125
Q 15.828125 64.359375 23.1875 75.875
z
" id="DejaVuSans-40"/>
      <path d="M 52 44.1875
Q 55.375 50.25 60.0625 53.125
Q 64.75 56 71.09375 56
Q 79.640625 56 84.28125 50.015625
Q 88.921875 44.046875 88.921875 33.015625
L 88.921875 0
L 79.890625 0
L 79.890625 32.71875
Q 79.890625 40.578125 77.09375 44.375
Q 74.3125 48.1875 68.609375 48.1875
Q 61.625 48.1875 57.5625 43.546875
Q 53.515625 38.921875 53.515625 30.90625
L 53.515625 0
L 44.484375 0
L 44.484375 32.71875
Q 44.484375 40.625 41.703125 44.40625
Q 38.921875 48.1875 33.109375 48.1875
Q 26.21875 48.1875 22.15625 43.53125
Q 18.109375 38.875 18.109375 30.90625
L 18.109375 0
L 9.078125 0
L 9.078125 54.6875
L 18.109375 54.6875
L 18.109375 46.1875
Q 21.1875 51.21875 25.484375 53.609375
Q 29.78125 56 35.6875 56
Q 41.65625 56 45.828125 52.96875
Q 50 49.953125 52 44.1875
z
" id="DejaVuSans-109"/>
      <path d="M 56.203125 29.59375
L 56.203125 25.203125
L 14.890625 25.203125
Q 15.484375 15.921875 20.484375 11.0625
Q 25.484375 6.203125 34.421875 6.203125
Q 39.59375 6.203125 44.453125 7.46875
Q 49.3125 8.734375 54.109375 11.28125
L 54.109375 2.78125
Q 49.265625 0.734375 44.1875 -0.34375
Q 39.109375 -1.421875 33.890625 -1.421875
Q 20.796875 -1.421875 13.15625 6.1875
Q 5.515625 13.8125 5.515625 26.8125
Q 5.515625 40.234375 12.765625 48.109375
Q 20.015625 56 32.328125 56
Q 43.359375 56 49.78125 48.890625
Q 56.203125 41.796875 56.203125 29.59375
z
M 47.21875 32.234375
Q 47.125 39.59375 43.09375 43.984375
Q 39.0625 48.390625 32.421875 48.390625
Q 24.90625 48.390625 20.390625 44.140625
Q 15.875 39.890625 15.1875 32.171875
z
" id="DejaVuSans-101"/>
      <path d="M 45.40625 46.390625
L 45.40625 75.984375
L 54.390625 75.984375
L 54.390625 0
L 45.40625 0
L 45.40625 8.203125
Q 42.578125 3.328125 38.25 0.953125
Q 33.9375 -1.421875 27.875 -1.421875
Q 17.96875 -1.421875 11.734375 6.484375
Q 5.515625 14.40625 5.515625 27.296875
Q 5.515625 40.1875 11.734375 48.09375
Q 17.96875 56 27.875 56
Q 33.9375 56 38.25 53.625
Q 42.578125 51.265625 45.40625 46.390625
z
M 14.796875 27.296875
Q 14.796875 17.390625 18.875 11.75
Q 22.953125 6.109375 30.078125 6.109375
Q 37.203125 6.109375 41.296875 11.75
Q 45.40625 17.390625 45.40625 27.296875
Q 45.40625 37.203125 41.296875 42.84375
Q 37.203125 48.484375 30.078125 48.484375
Q 22.953125 48.484375 18.875 42.84375
Q 14.796875 37.203125 14.796875 27.296875
z
" id="DejaVuSans-100"/>
      <path d="M 9.421875 54.6875
L 18.40625 54.6875
L 18.40625 0
L 9.421875 0
z
M 9.421875 75.984375
L 18.40625 75.984375
L 18.40625 64.59375
L 9.421875 64.59375
z
" id="DejaVuSans-105"/>
      <path d="M 34.28125 27.484375
Q 23.390625 27.484375 19.1875 25
Q 14.984375 22.515625 14.984375 16.5
Q 14.984375 11.71875 18.140625 8.90625
Q 21.296875 6.109375 26.703125 6.109375
Q 34.1875 6.109375 38.703125 11.40625
Q 43.21875 16.703125 43.21875 25.484375
L 43.21875 27.484375
z
M 52.203125 31.203125
L 52.203125 0
L 43.21875 0
L 43.21875 8.296875
Q 40.140625 3.328125 35.546875 0.953125
Q 30.953125 -1.421875 24.3125 -1.421875
Q 15.921875 -1.421875 10.953125 3.296875
Q 6 8.015625 6 15.921875
Q 6 25.140625 12.171875 29.828125
Q 18.359375 34.515625 30.609375 34.515625
L 43.21875 34.515625
L 43.21875 35.40625
Q 43.21875 41.609375 39.140625 45
Q 35.0625 48.390625 27.6875 48.390625
Q 23 48.390625 18.546875 47.265625
Q 14.109375 46.140625 10.015625 43.890625
L 10.015625 52.203125
Q 14.9375 54.109375 19.578125 55.046875
Q 24.21875 56 28.609375 56
Q 40.484375 56 46.34375 49.84375
Q 52.203125 43.703125 52.203125 31.203125
z
" id="DejaVuSans-97"/>
      <path d="M 54.890625 33.015625
L 54.890625 0
L 45.90625 0
L 45.90625 32.71875
Q 45.90625 40.484375 42.875 44.328125
Q 39.84375 48.1875 33.796875 48.1875
Q 26.515625 48.1875 22.3125 43.546875
Q 18.109375 38.921875 18.109375 30.90625
L 18.109375 0
L 9.078125 0
L 9.078125 54.6875
L 18.109375 54.6875
L 18.109375 46.1875
Q 21.34375 51.125 25.703125 53.5625
Q 30.078125 56 35.796875 56
Q 45.21875 56 50.046875 50.171875
Q 54.890625 44.34375 54.890625 33.015625
z
" id="DejaVuSans-110"/>
      <path d="M 9.8125 72.90625
L 51.703125 72.90625
L 51.703125 64.59375
L 19.671875 64.59375
L 19.671875 43.109375
L 48.578125 43.109375
L 48.578125 34.8125
L 19.671875 34.8125
L 19.671875 0
L 9.8125 0
z
" id="DejaVuSans-70"/>
      <path d="M 19.671875 64.796875
L 19.671875 8.109375
L 31.59375 8.109375
Q 46.6875 8.109375 53.6875 14.9375
Q 60.6875 21.78125 60.6875 36.53125
Q 60.6875 51.171875 53.6875 57.984375
Q 46.6875 64.796875 31.59375 64.796875
z
M 9.8125 72.90625
L 30.078125 72.90625
Q 51.265625 72.90625 61.171875 64.09375
Q 71.09375 55.28125 71.09375 36.53125
Q 71.09375 17.671875 61.125 8.828125
Q 51.171875 0 30.078125 0
L 9.8125 0
z
" id="DejaVuSans-68"/>
      <path d="M 44.390625 34.1875
Q 47.5625 33.109375 50.5625 29.59375
Q 53.5625 26.078125 56.59375 19.921875
L 66.609375 0
L 56 0
L 46.6875 18.703125
Q 43.0625 26.03125 39.671875 28.421875
Q 36.28125 30.8125 30.421875 30.8125
L 19.671875 30.8125
L 19.671875 0
L 9.8125 0
L 9.8125 72.90625
L 32.078125 72.90625
Q 44.578125 72.90625 50.734375 67.671875
Q 56.890625 62.453125 56.890625 51.90625
Q 56.890625 45.015625 53.6875 40.46875
Q 50.484375 35.9375 44.390625 34.1875
z
M 19.671875 64.796875
L 19.671875 38.921875
L 32.078125 38.921875
Q 39.203125 38.921875 42.84375 42.21875
Q 46.484375 45.515625 46.484375 51.90625
Q 46.484375 58.296875 42.84375 61.546875
Q 39.203125 64.796875 32.078125 64.796875
z
" id="DejaVuSans-82"/>
      <path d="M 8.015625 75.875
L 15.828125 75.875
Q 23.140625 64.359375 26.78125 53.3125
Q 30.421875 42.28125 30.421875 31.390625
Q 30.421875 20.453125 26.78125 9.375
Q 23.140625 -1.703125 15.828125 -13.1875
L 8.015625 -13.1875
Q 14.5 -2 17.703125 9.0625
Q 20.90625 20.125 20.90625 31.390625
Q 20.90625 42.671875 17.703125 53.65625
Q 14.5 64.65625 8.015625 75.875
z
" id="DejaVuSans-41"/>
     </defs>
     <g transform="translate(143.297188 328.898141)scale(0.15 -0.15)">
      <use transform="translate(0 0.015625)" xlink:href="#DejaVuSans-45"/>
      <use transform="translate(36.083984 0.015625)" xlink:href="#DejaVuSans-108"/>
      <use transform="translate(63.867188 0.015625)" xlink:href="#DejaVuSans-111"/>
      <use transform="translate(125.048828 0.015625)" xlink:href="#DejaVuSans-103"/>
      <use transform="translate(189.482422 -16.390625)scale(0.7)" xlink:href="#DejaVuSans-49"/>
      <use transform="translate(234.018555 -16.390625)scale(0.7)" xlink:href="#DejaVuSans-48"/>
      <use transform="translate(281.289062 0.015625)" xlink:href="#DejaVuSans-40"/>
      <use transform="translate(320.302734 0.015625)" xlink:href="#DejaVuSans-109"/>
      <use transform="translate(417.714844 0.015625)" xlink:href="#DejaVuSans-101"/>
      <use transform="translate(479.238281 0.015625)" xlink:href="#DejaVuSans-100"/>
      <use transform="translate(542.714844 0.015625)" xlink:href="#DejaVuSans-105"/>
      <use transform="translate(570.498047 0.015625)" xlink:href="#DejaVuSans-97"/>
      <use transform="translate(631.777344 0.015625)" xlink:href="#DejaVuSans-110"/>
      <use transform="translate(695.15625 0.015625)" xlink:href="#DejaVuSans-40"/>
      <use transform="translate(734.169922 0.015625)" xlink:href="#DejaVuSans-70"/>
      <use transform="translate(791.689453 0.015625)" xlink:href="#DejaVuSans-68"/>
      <use transform="translate(868.691406 0.015625)" xlink:href="#DejaVuSans-82"/>
      <use transform="translate(938.173828 0.015625)" xlink:href="#DejaVuSans-41"/>
      <use transform="translate(977.1875 0.015625)" xlink:href="#DejaVuSans-41"/>
     </g>
    </g>
   </g>
   <g id="matplotlib.axis_2">
    <g id="ytick_1">
     <g id="line2d_17">
      <path clip-path="url(#p37f11b3686)" d="M 46.772188 284.438391
L 403.892188 284.438391
" style="fill:none;stroke:#e5e5e5;stroke-width:0.8;"/>
     </g>
     <g id="line2d_18">
      <path d="M 46.772188 284.438391
" style="fill:none;stroke:#000000;stroke-width:1.5;"/>
      <defs>
       <path d="M 0 0
L -2.75 0
" id="m5321a5f978" style="stroke:#000000;"/>
      </defs>
      <g>
       <use style="stroke:#000000;" x="46.772188" xlink:href="#m5321a5f978" y="284.438391"/>
      </g>
     </g>
     <g id="text_6">
      <!-- 0 -->
      <g style="fill:#4d4d4d;" transform="translate(34.187188 287.749641)scale(0.12 -0.12)">
       <use xlink:href="#DejaVuSans-48"/>
      </g>
     </g>
    </g>
    <g id="ytick_2">
     <g id="line2d_19">
      <path clip-path="url(#p37f11b3686)" d="M 46.772188 223.958391
L 403.892188 223.958391
" style="fill:none;stroke:#e5e5e5;stroke-width:0.8;"/>
     </g>
     <g id="line2d_20">
      <path d="M 46.772188 223.958391
" style="fill:none;stroke:#000000;stroke-width:1.5;"/>
      <g>
       <use style="stroke:#000000;" x="46.772188" xlink:href="#m5321a5f978" y="223.958391"/>
      </g>
     </g>
     <g id="text_7">
      <!-- 25 -->
      <defs>
       <path d="M 10.796875 72.90625
L 49.515625 72.90625
L 49.515625 64.59375
L 19.828125 64.59375
L 19.828125 46.734375
Q 21.96875 47.46875 24.109375 47.828125
Q 26.265625 48.1875 28.421875 48.1875
Q 40.625 48.1875 47.75 41.5
Q 54.890625 34.8125 54.890625 23.390625
Q 54.890625 11.625 47.5625 5.09375
Q 40.234375 -1.421875 26.90625 -1.421875
Q 22.3125 -1.421875 17.546875 -0.640625
Q 12.796875 0.140625 7.71875 1.703125
L 7.71875 11.625
Q 12.109375 9.234375 16.796875 8.0625
Q 21.484375 6.890625 26.703125 6.890625
Q 35.15625 6.890625 40.078125 11.328125
Q 45.015625 15.765625 45.015625 23.390625
Q 45.015625 31 40.078125 35.4375
Q 35.15625 39.890625 26.703125 39.890625
Q 22.75 39.890625 18.8125 39.015625
Q 14.890625 38.140625 10.796875 36.28125
z
" id="DejaVuSans-53"/>
      </defs>
      <g style="fill:#4d4d4d;" transform="translate(26.552188 227.269641)scale(0.12 -0.12)">
       <use xlink:href="#DejaVuSans-50"/>
       <use x="63.623047" xlink:href="#DejaVuSans-53"/>
      </g>
     </g>
    </g>
    <g id="ytick_3">
     <g id="line2d_21">
      <path clip-path="url(#p37f11b3686)" d="M 46.772188 163.478391
L 403.892188 163.478391
" style="fill:none;stroke:#e5e5e5;stroke-width:0.8;"/>
     </g>
     <g id="line2d_22">
      <path d="M 46.772188 163.478391
" style="fill:none;stroke:#000000;stroke-width:1.5;"/>
      <g>
       <use style="stroke:#000000;" x="46.772188" xlink:href="#m5321a5f978" y="163.478391"/>
      </g>
     </g>
     <g id="text_8">
      <!-- 50 -->
      <g style="fill:#4d4d4d;" transform="translate(26.552188 166.789641)scale(0.12 -0.12)">
       <use xlink:href="#DejaVuSans-53"/>
       <use x="63.623047" xlink:href="#DejaVuSans-48"/>
      </g>
     </g>
    </g>
    <g id="ytick_4">
     <g id="line2d_23">
      <path clip-path="url(#p37f11b3686)" d="M 46.772188 102.998391
L 403.892188 102.998391
" style="fill:none;stroke:#e5e5e5;stroke-width:0.8;"/>
     </g>
     <g id="line2d_24">
      <path d="M 46.772188 102.998391
" style="fill:none;stroke:#000000;stroke-width:1.5;"/>
      <g>
       <use style="stroke:#000000;" x="46.772188" xlink:href="#m5321a5f978" y="102.998391"/>
      </g>
     </g>
     <g id="text_9">
      <!-- 75 -->
      <defs>
       <path d="M 8.203125 72.90625
L 55.078125 72.90625
L 55.078125 68.703125
L 28.609375 0
L 18.3125 0
L 43.21875 64.59375
L 8.203125 64.59375
z
" id="DejaVuSans-55"/>
      </defs>
      <g style="fill:#4d4d4d;" transform="translate(26.552188 106.309641)scale(0.12 -0.12)">
       <use xlink:href="#DejaVuSans-55"/>
       <use x="63.623047" xlink:href="#DejaVuSans-53"/>
      </g>
     </g>
    </g>
    <g id="ytick_5">
     <g id="line2d_25">
      <path clip-path="url(#p37f11b3686)" d="M 46.772188 42.518391
L 403.892188 42.518391
" style="fill:none;stroke:#e5e5e5;stroke-width:0.8;"/>
     </g>
     <g id="line2d_26">
      <path d="M 46.772188 42.518391
" style="fill:none;stroke:#000000;stroke-width:1.5;"/>
      <g>
       <use style="stroke:#000000;" x="46.772188" xlink:href="#m5321a5f978" y="42.518391"/>
      </g>
     </g>
     <g id="text_10">
      <!-- 100 -->
      <g style="fill:#4d4d4d;" transform="translate(18.917188 45.829641)scale(0.12 -0.12)">
       <use xlink:href="#DejaVuSans-49"/>
       <use x="63.623047" xlink:href="#DejaVuSans-48"/>
       <use x="127.246094" xlink:href="#DejaVuSans-48"/>
      </g>
     </g>
    </g>
    <g id="ytick_6">
     <g id="line2d_27">
      <path clip-path="url(#p37f11b3686)" d="M 46.772188 254.198391
L 403.892188 254.198391
" style="fill:none;stroke:#fafafa;"/>
     </g>
     <g id="line2d_28">
      <path d="M 46.772188 254.198391
" style="fill:none;stroke:#000000;stroke-width:1.5;"/>
     </g>
    </g>
    <g id="ytick_7">
     <g id="line2d_29">
      <path clip-path="url(#p37f11b3686)" d="M 46.772188 193.718391
L 403.892188 193.718391
" style="fill:none;stroke:#fafafa;"/>
     </g>
     <g id="line2d_30">
      <path d="M 46.772188 193.718391
" style="fill:none;stroke:#000000;stroke-width:1.5;"/>
     </g>
    </g>
    <g id="ytick_8">
     <g id="line2d_31">
      <path clip-path="url(#p37f11b3686)" d="M 46.772188 133.238391
L 403.892188 133.238391
" style="fill:none;stroke:#fafafa;"/>
     </g>
     <g id="line2d_32">
      <path d="M 46.772188 133.238391
" style="fill:none;stroke:#000000;stroke-width:1.5;"/>
     </g>
    </g>
    <g id="ytick_9">
     <g id="line2d_33">
      <path clip-path="url(#p37f11b3686)" d="M 46.772188 72.758391
L 403.892188 72.758391
" style="fill:none;stroke:#fafafa;"/>
     </g>
     <g id="line2d_34">
      <path d="M 46.772188 72.758391
" style="fill:none;stroke:#000000;stroke-width:1.5;"/>
     </g>
    </g>
    <g id="text_11">
     <!-- Commonly enriched (percentile of ranking) -->
     <defs>
      <path d="M 64.40625 67.28125
L 64.40625 56.890625
Q 59.421875 61.53125 53.78125 63.8125
Q 48.140625 66.109375 41.796875 66.109375
Q 29.296875 66.109375 22.65625 58.46875
Q 16.015625 50.828125 16.015625 36.375
Q 16.015625 21.96875 22.65625 14.328125
Q 29.296875 6.6875 41.796875 6.6875
Q 48.140625 6.6875 53.78125 8.984375
Q 59.421875 11.28125 64.40625 15.921875
L 64.40625 5.609375
Q 59.234375 2.09375 53.4375 0.328125
Q 47.65625 -1.421875 41.21875 -1.421875
Q 24.65625 -1.421875 15.125 8.703125
Q 5.609375 18.84375 5.609375 36.375
Q 5.609375 53.953125 15.125 64.078125
Q 24.65625 74.21875 41.21875 74.21875
Q 47.75 74.21875 53.53125 72.484375
Q 59.328125 70.75 64.40625 67.28125
z
" id="DejaVuSans-67"/>
      <path d="M 32.171875 -5.078125
Q 28.375 -14.84375 24.75 -17.8125
Q 21.140625 -20.796875 15.09375 -20.796875
L 7.90625 -20.796875
L 7.90625 -13.28125
L 13.1875 -13.28125
Q 16.890625 -13.28125 18.9375 -11.515625
Q 21 -9.765625 23.484375 -3.21875
L 25.09375 0.875
L 2.984375 54.6875
L 12.5 54.6875
L 29.59375 11.921875
L 46.6875 54.6875
L 56.203125 54.6875
z
" id="DejaVuSans-121"/>
      <path id="DejaVuSans-32"/>
      <path d="M 41.109375 46.296875
Q 39.59375 47.171875 37.8125 47.578125
Q 36.03125 48 33.890625 48
Q 26.265625 48 22.1875 43.046875
Q 18.109375 38.09375 18.109375 28.8125
L 18.109375 0
L 9.078125 0
L 9.078125 54.6875
L 18.109375 54.6875
L 18.109375 46.1875
Q 20.953125 51.171875 25.484375 53.578125
Q 30.03125 56 36.53125 56
Q 37.453125 56 38.578125 55.875
Q 39.703125 55.765625 41.0625 55.515625
z
" id="DejaVuSans-114"/>
      <path d="M 48.78125 52.59375
L 48.78125 44.1875
Q 44.96875 46.296875 41.140625 47.34375
Q 37.3125 48.390625 33.40625 48.390625
Q 24.65625 48.390625 19.8125 42.84375
Q 14.984375 37.3125 14.984375 27.296875
Q 14.984375 17.28125 19.8125 11.734375
Q 24.65625 6.203125 33.40625 6.203125
Q 37.3125 6.203125 41.140625 7.25
Q 44.96875 8.296875 48.78125 10.40625
L 48.78125 2.09375
Q 45.015625 0.34375 40.984375 -0.53125
Q 36.96875 -1.421875 32.421875 -1.421875
Q 20.0625 -1.421875 12.78125 6.34375
Q 5.515625 14.109375 5.515625 27.296875
Q 5.515625 40.671875 12.859375 48.328125
Q 20.21875 56 33.015625 56
Q 37.15625 56 41.109375 55.140625
Q 45.0625 54.296875 48.78125 52.59375
z
" id="DejaVuSans-99"/>
      <path d="M 54.890625 33.015625
L 54.890625 0
L 45.90625 0
L 45.90625 32.71875
Q 45.90625 40.484375 42.875 44.328125
Q 39.84375 48.1875 33.796875 48.1875
Q 26.515625 48.1875 22.3125 43.546875
Q 18.109375 38.921875 18.109375 30.90625
L 18.109375 0
L 9.078125 0
L 9.078125 75.984375
L 18.109375 75.984375
L 18.109375 46.1875
Q 21.34375 51.125 25.703125 53.5625
Q 30.078125 56 35.796875 56
Q 45.21875 56 50.046875 50.171875
Q 54.890625 44.34375 54.890625 33.015625
z
" id="DejaVuSans-104"/>
      <path d="M 18.109375 8.203125
L 18.109375 -20.796875
L 9.078125 -20.796875
L 9.078125 54.6875
L 18.109375 54.6875
L 18.109375 46.390625
Q 20.953125 51.265625 25.265625 53.625
Q 29.59375 56 35.59375 56
Q 45.5625 56 51.78125 48.09375
Q 58.015625 40.1875 58.015625 27.296875
Q 58.015625 14.40625 51.78125 6.484375
Q 45.5625 -1.421875 35.59375 -1.421875
Q 29.59375 -1.421875 25.265625 0.953125
Q 20.953125 3.328125 18.109375 8.203125
z
M 48.6875 27.296875
Q 48.6875 37.203125 44.609375 42.84375
Q 40.53125 48.484375 33.40625 48.484375
Q 26.265625 48.484375 22.1875 42.84375
Q 18.109375 37.203125 18.109375 27.296875
Q 18.109375 17.390625 22.1875 11.75
Q 26.265625 6.109375 33.40625 6.109375
Q 40.53125 6.109375 44.609375 11.75
Q 48.6875 17.390625 48.6875 27.296875
z
" id="DejaVuSans-112"/>
      <path d="M 18.3125 70.21875
L 18.3125 54.6875
L 36.8125 54.6875
L 36.8125 47.703125
L 18.3125 47.703125
L 18.3125 18.015625
Q 18.3125 11.328125 20.140625 9.421875
Q 21.96875 7.515625 27.59375 7.515625
L 36.8125 7.515625
L 36.8125 0
L 27.59375 0
Q 17.1875 0 13.234375 3.875
Q 9.28125 7.765625 9.28125 18.015625
L 9.28125 47.703125
L 2.6875 47.703125
L 2.6875 54.6875
L 9.28125 54.6875
L 9.28125 70.21875
z
" id="DejaVuSans-116"/>
      <path d="M 37.109375 75.984375
L 37.109375 68.5
L 28.515625 68.5
Q 23.6875 68.5 21.796875 66.546875
Q 19.921875 64.59375 19.921875 59.515625
L 19.921875 54.6875
L 34.71875 54.6875
L 34.71875 47.703125
L 19.921875 47.703125
L 19.921875 0
L 10.890625 0
L 10.890625 47.703125
L 2.296875 47.703125
L 2.296875 54.6875
L 10.890625 54.6875
L 10.890625 58.5
Q 10.890625 67.625 15.140625 71.796875
Q 19.390625 75.984375 28.609375 75.984375
z
" id="DejaVuSans-102"/>
      <path d="M 9.078125 75.984375
L 18.109375 75.984375
L 18.109375 31.109375
L 44.921875 54.6875
L 56.390625 54.6875
L 27.390625 29.109375
L 57.625 0
L 45.90625 0
L 18.109375 26.703125
L 18.109375 0
L 9.078125 0
z
" id="DejaVuSans-107"/>
     </defs>
     <g transform="translate(11.397656 323.500781)rotate(-90)scale(0.15 -0.15)">
      <use xlink:href="#DejaVuSans-67"/>
      <use x="69.824219" xlink:href="#DejaVuSans-111"/>
      <use x="131.005859" xlink:href="#DejaVuSans-109"/>
      <use x="228.417969" xlink:href="#DejaVuSans-109"/>
      <use x="325.830078" xlink:href="#DejaVuSans-111"/>
      <use x="387.011719" xlink:href="#DejaVuSans-110"/>
      <use x="450.390625" xlink:href="#DejaVuSans-108"/>
      <use x="478.173828" xlink:href="#DejaVuSans-121"/>
      <use x="537.353516" xlink:href="#DejaVuSans-32"/>
      <use x="569.140625" xlink:href="#DejaVuSans-101"/>
      <use x="630.664062" xlink:href="#DejaVuSans-110"/>
      <use x="694.042969" xlink:href="#DejaVuSans-114"/>
      <use x="735.15625" xlink:href="#DejaVuSans-105"/>
      <use x="762.939453" xlink:href="#DejaVuSans-99"/>
      <use x="817.919922" xlink:href="#DejaVuSans-104"/>
      <use x="881.298828" xlink:href="#DejaVuSans-101"/>
      <use x="942.822266" xlink:href="#DejaVuSans-100"/>
      <use x="1006.298828" xlink:href="#DejaVuSans-32"/>
      <use x="1038.085938" xlink:href="#DejaVuSans-40"/>
      <use x="1077.099609" xlink:href="#DejaVuSans-112"/>
      <use x="1140.576172" xlink:href="#DejaVuSans-101"/>
      <use x="1202.099609" xlink:href="#DejaVuSans-114"/>
      <use x="1243.181641" xlink:href="#DejaVuSans-99"/>
      <use x="1298.162109" xlink:href="#DejaVuSans-101"/>
      <use x="1359.685547" xlink:href="#DejaVuSans-110"/>
      <use x="1423.064453" xlink:href="#DejaVuSans-116"/>
      <use x="1462.273438" xlink:href="#DejaVuSans-105"/>
      <use x="1490.056641" xlink:href="#DejaVuSans-108"/>
      <use x="1517.839844" xlink:href="#DejaVuSans-101"/>
      <use x="1579.363281" xlink:href="#DejaVuSans-32"/>
      <use x="1611.150391" xlink:href="#DejaVuSans-111"/>
      <use x="1672.332031" xlink:href="#DejaVuSans-102"/>
      <use x="1707.537109" xlink:href="#DejaVuSans-32"/>
      <use x="1739.324219" xlink:href="#DejaVuSans-114"/>
      <use x="1780.4375" xlink:href="#DejaVuSans-97"/>
      <use x="1841.716797" xlink:href="#DejaVuSans-110"/>
      <use x="1905.095703" xlink:href="#DejaVuSans-107"/>
      <use x="1963.005859" xlink:href="#DejaVuSans-105"/>
      <use x="1990.789062" xlink:href="#DejaVuSans-110"/>
      <use x="2054.167969" xlink:href="#DejaVuSans-103"/>
      <use x="2117.644531" xlink:href="#DejaVuSans-41"/>
     </g>
    </g>
   </g>
   <g id="PathCollection_1">
    <path clip-path="url(#p37f11b3686)" d="M 387.65946 44.290844
C 388.12952 44.290844 388.580392 44.104088 388.912774 43.771705
C 389.245157 43.439322 389.431914 42.988451 389.431914 42.518391
C 389.431914 42.04833 389.245157 41.597459 388.912774 41.265076
C 388.580392 40.932694 388.12952 40.745937 387.65946 40.745937
C 387.1894 40.745937 386.738529 40.932694 386.406146 41.265076
C 386.073763 41.597459 385.887006 42.04833 385.887006 42.518391
C 385.887006 42.988451 386.073763 43.439322 386.406146 43.771705
C 386.738529 44.104088 387.1894 44.290844 387.65946 44.290844
z
" style="stroke:#000000;stroke-width:0.886227;"/>
    <path clip-path="url(#p37f11b3686)" d="M 357.278751 49.227987
C 357.748811 49.227987 358.199682 49.04123 358.532065 48.708848
C 358.864448 48.376465 359.051205 47.925594 359.051205 47.455533
C 359.051205 46.985473 358.864448 46.534602 358.532065 46.202219
C 358.199682 45.869837 357.748811 45.68308 357.278751 45.68308
C 356.808691 45.68308 356.35782 45.869837 356.025437 46.202219
C 355.693054 46.534602 355.506297 46.985473 355.506297 47.455533
C 355.506297 47.925594 355.693054 48.376465 356.025437 48.708848
C 356.35782 49.04123 356.808691 49.227987 357.278751 49.227987
z
" style="stroke:#000000;stroke-width:0.886227;"/>
    <path clip-path="url(#p37f11b3686)" d="M 297.552558 54.16513
C 298.022618 54.16513 298.473489 53.978373 298.805872 53.64599
C 299.138255 53.313608 299.325012 52.862737 299.325012 52.392676
C 299.325012 51.922616 299.138255 51.471745 298.805872 51.139362
C 298.473489 50.806979 298.022618 50.620222 297.552558 50.620222
C 297.082498 50.620222 296.631627 50.806979 296.299244 51.139362
C 295.966861 51.471745 295.780104 51.922616 295.780104 52.392676
C 295.780104 52.862737 295.966861 53.313608 296.299244 53.64599
C 296.631627 53.978373 297.082498 54.16513 297.552558 54.16513
z
" style="stroke:#000000;stroke-width:0.886227;"/>
    <path clip-path="url(#p37f11b3686)" d="M 287.573255 59.102273
C 288.043315 59.102273 288.494186 58.915516 288.826569 58.583133
C 289.158951 58.250751 289.345708 57.799879 289.345708 57.329819
C 289.345708 56.859759 289.158951 56.408888 288.826569 56.076505
C 288.494186 55.744122 288.043315 55.557365 287.573255 55.557365
C 287.103194 55.557365 286.652323 55.744122 286.31994 56.076505
C 285.987558 56.408888 285.800801 56.859759 285.800801 57.329819
C 285.800801 57.799879 285.987558 58.250751 286.31994 58.583133
C 286.652323 58.915516 287.103194 59.102273 287.573255 59.102273
z
" style="stroke:#000000;stroke-width:0.886227;"/>
    <path clip-path="url(#p37f11b3686)" d="M 279.44845 64.039416
C 279.91851 64.039416 280.369381 63.852659 280.701764 63.520276
C 281.034147 63.187893 281.220904 62.737022 281.220904 62.266962
C 281.220904 61.796902 281.034147 61.346031 280.701764 61.013648
C 280.369381 60.681265 279.91851 60.494508 279.44845 60.494508
C 278.978389 60.494508 278.527518 60.681265 278.195136 61.013648
C 277.862753 61.346031 277.675996 61.796902 277.675996 62.266962
C 277.675996 62.737022 277.862753 63.187893 278.195136 63.520276
C 278.527518 63.852659 278.978389 64.039416 279.44845 64.039416
z
" style="stroke:#000000;stroke-width:0.886227;"/>
    <path clip-path="url(#p37f11b3686)" d="M 264.460582 68.976559
C 264.930642 68.976559 265.381513 68.789802 265.713896 68.457419
C 266.046279 68.125036 266.233036 67.674165 266.233036 67.204105
C 266.233036 66.734045 266.046279 66.283174 265.713896 65.950791
C 265.381513 65.618408 264.930642 65.431651 264.460582 65.431651
C 263.990522 65.431651 263.539651 65.618408 263.207268 65.950791
C 262.874885 66.283174 262.688128 66.734045 262.688128 67.204105
C 262.688128 67.674165 262.874885 68.125036 263.207268 68.457419
C 263.539651 68.789802 263.990522 68.976559 264.460582 68.976559
z
" style="stroke:#000000;stroke-width:0.886227;"/>
    <path clip-path="url(#p37f11b3686)" d="M 261.001843 73.913702
C 261.471903 73.913702 261.922775 73.726945 262.255157 73.394562
C 262.58754 73.062179 262.774297 72.611308 262.774297 72.141248
C 262.774297 71.671188 262.58754 71.220316 262.255157 70.887934
C 261.922775 70.555551 261.471903 70.368794 261.001843 70.368794
C 260.531783 70.368794 260.080912 70.555551 259.748529 70.887934
C 259.416146 71.220316 259.229389 71.671188 259.229389 72.141248
C 259.229389 72.611308 259.416146 73.062179 259.748529 73.394562
C 260.080912 73.726945 260.531783 73.913702 261.001843 73.913702
z
" style="stroke:#000000;stroke-width:0.886227;"/>
    <path clip-path="url(#p37f11b3686)" d="M 238.273923 78.850844
C 238.743984 78.850844 239.194855 78.664088 239.527237 78.331705
C 239.85962 77.999322 240.046377 77.548451 240.046377 77.078391
C 240.046377 76.60833 239.85962 76.157459 239.527237 75.825076
C 239.194855 75.492694 238.743984 75.305937 238.273923 75.305937
C 237.803863 75.305937 237.352992 75.492694 237.020609 75.825076
C 236.688226 76.157459 236.501469 76.60833 236.501469 77.078391
C 236.501469 77.548451 236.688226 77.999322 237.020609 78.331705
C 237.352992 78.664088 237.803863 78.850844 238.273923 78.850844
z
" style="stroke:#000000;stroke-width:0.886227;"/>
    <path clip-path="url(#p37f11b3686)" d="M 223.893959 83.787987
C 224.364019 83.787987 224.81489 83.60123 225.147273 83.268848
C 225.479656 82.936465 225.666412 82.485594 225.666412 82.015533
C 225.666412 81.545473 225.479656 81.094602 225.147273 80.762219
C 224.81489 80.429837 224.364019 80.24308 223.893959 80.24308
C 223.423898 80.24308 222.973027 80.429837 222.640644 80.762219
C 222.308262 81.094602 222.121505 81.545473 222.121505 82.015533
C 222.121505 82.485594 222.308262 82.936465 222.640644 83.268848
C 222.973027 83.60123 223.423898 83.787987 223.893959 83.787987
z
" style="stroke:#000000;stroke-width:0.886227;"/>
    <path clip-path="url(#p37f11b3686)" d="M 189.808932 88.72513
C 190.278992 88.72513 190.729863 88.538373 191.062246 88.20599
C 191.394629 87.873608 191.581386 87.422737 191.581386 86.952676
C 191.581386 86.482616 191.394629 86.031745 191.062246 85.699362
C 190.729863 85.366979 190.278992 85.180222 189.808932 85.180222
C 189.338872 85.180222 188.888001 85.366979 188.555618 85.699362
C 188.223235 86.031745 188.036478 86.482616 188.036478 86.952676
C 188.036478 87.422737 188.223235 87.873608 188.555618 88.20599
C 188.888001 88.538373 189.338872 88.72513 189.808932 88.72513
z
" style="stroke:#000000;stroke-width:0.886227;"/>
    <path clip-path="url(#p37f11b3686)" d="M 177.497963 93.662273
C 177.968024 93.662273 178.418895 93.475516 178.751278 93.143133
C 179.08366 92.810751 179.270417 92.359879 179.270417 91.889819
C 179.270417 91.419759 179.08366 90.968888 178.751278 90.636505
C 178.418895 90.304122 177.968024 90.117365 177.497963 90.117365
C 177.027903 90.117365 176.577032 90.304122 176.244649 90.636505
C 175.912266 90.968888 175.72551 91.419759 175.72551 91.889819
C 175.72551 92.359879 175.912266 92.810751 176.244649 93.143133
C 176.577032 93.475516 177.027903 93.662273 177.497963 93.662273
z
" style="stroke:#000000;stroke-width:0.886227;"/>
    <path clip-path="url(#p37f11b3686)" d="M 176.844766 98.599416
C 177.314826 98.599416 177.765697 98.412659 178.09808 98.080276
C 178.430462 97.747893 178.617219 97.297022 178.617219 96.826962
C 178.617219 96.356902 178.430462 95.906031 178.09808 95.573648
C 177.765697 95.241265 177.314826 95.054508 176.844766 95.054508
C 176.374705 95.054508 175.923834 95.241265 175.591451 95.573648
C 175.259069 95.906031 175.072312 96.356902 175.072312 96.826962
C 175.072312 97.297022 175.259069 97.747893 175.591451 98.080276
C 175.923834 98.412659 176.374705 98.599416 176.844766 98.599416
z
" style="stroke:#000000;stroke-width:0.886227;"/>
    <path clip-path="url(#p37f11b3686)" d="M 164.341559 103.536559
C 164.811619 103.536559 165.26249 103.349802 165.594873 103.017419
C 165.927256 102.685036 166.114013 102.234165 166.114013 101.764105
C 166.114013 101.294045 165.927256 100.843174 165.594873 100.510791
C 165.26249 100.178408 164.811619 99.991651 164.341559 99.991651
C 163.871499 99.991651 163.420628 100.178408 163.088245 100.510791
C 162.755862 100.843174 162.569105 101.294045 162.569105 101.764105
C 162.569105 102.234165 162.755862 102.685036 163.088245 103.017419
C 163.420628 103.349802 163.871499 103.536559 164.341559 103.536559
z
" style="stroke:#000000;stroke-width:0.886227;"/>
    <path clip-path="url(#p37f11b3686)" d="M 157.873059 108.473702
C 158.343119 108.473702 158.79399 108.286945 159.126373 107.954562
C 159.458755 107.622179 159.645512 107.171308 159.645512 106.701248
C 159.645512 106.231188 159.458755 105.780316 159.126373 105.447934
C 158.79399 105.115551 158.343119 104.928794 157.873059 104.928794
C 157.402998 104.928794 156.952127 105.115551 156.619744 105.447934
C 156.287362 105.780316 156.100605 106.231188 156.100605 106.701248
C 156.100605 107.171308 156.287362 107.622179 156.619744 107.954562
C 156.952127 108.286945 157.402998 108.473702 157.873059 108.473702
z
" style="stroke:#000000;stroke-width:0.886227;"/>
    <path clip-path="url(#p37f11b3686)" d="M 147.806239 113.410844
C 148.2763 113.410844 148.727171 113.224088 149.059554 112.891705
C 149.391936 112.559322 149.578693 112.108451 149.578693 111.638391
C 149.578693 111.16833 149.391936 110.717459 149.059554 110.385076
C 148.727171 110.052694 148.2763 109.865937 147.806239 109.865937
C 147.336179 109.865937 146.885308 110.052694 146.552925 110.385076
C 146.220543 110.717459 146.033786 111.16833 146.033786 111.638391
C 146.033786 112.108451 146.220543 112.559322 146.552925 112.891705
C 146.885308 113.224088 147.336179 113.410844 147.806239 113.410844
z
" style="stroke:#000000;stroke-width:0.886227;"/>
    <path clip-path="url(#p37f11b3686)" d="M 143.515308 118.347987
C 143.985369 118.347987 144.43624 118.16123 144.768623 117.828848
C 145.101005 117.496465 145.287762 117.045594 145.287762 116.575533
C 145.287762 116.105473 145.101005 115.654602 144.768623 115.322219
C 144.43624 114.989837 143.985369 114.80308 143.515308 114.80308
C 143.045248 114.80308 142.594377 114.989837 142.261994 115.322219
C 141.929612 115.654602 141.742855 116.105473 141.742855 116.575533
C 141.742855 117.045594 141.929612 117.496465 142.261994 117.828848
C 142.594377 118.16123 143.045248 118.347987 143.515308 118.347987
z
" style="stroke:#000000;stroke-width:0.886227;"/>
    <path clip-path="url(#p37f11b3686)" d="M 140.219145 123.28513
C 140.689205 123.28513 141.140076 123.098373 141.472459 122.76599
C 141.804841 122.433608 141.991598 121.982737 141.991598 121.512676
C 141.991598 121.042616 141.804841 120.591745 141.472459 120.259362
C 141.140076 119.926979 140.689205 119.740222 140.219145 119.740222
C 139.749084 119.740222 139.298213 119.926979 138.96583 120.259362
C 138.633448 120.591745 138.446691 121.042616 138.446691 121.512676
C 138.446691 121.982737 138.633448 122.433608 138.96583 122.76599
C 139.298213 123.098373 139.749084 123.28513 140.219145 123.28513
z
" style="stroke:#000000;stroke-width:0.886227;"/>
    <path clip-path="url(#p37f11b3686)" d="M 139.337392 128.222273
C 139.807452 128.222273 140.258323 128.035516 140.590706 127.703133
C 140.923089 127.370751 141.109846 126.919879 141.109846 126.449819
C 141.109846 125.979759 140.923089 125.528888 140.590706 125.196505
C 140.258323 124.864122 139.807452 124.677365 139.337392 124.677365
C 138.867332 124.677365 138.416461 124.864122 138.084078 125.196505
C 137.751695 125.528888 137.564938 125.979759 137.564938 126.449819
C 137.564938 126.919879 137.751695 127.370751 138.084078 127.703133
C 138.416461 128.035516 138.867332 128.222273 139.337392 128.222273
z
" style="stroke:#000000;stroke-width:0.886227;"/>
    <path clip-path="url(#p37f11b3686)" d="M 135.349065 133.159416
C 135.819125 133.159416 136.269996 132.972659 136.602379 132.640276
C 136.934762 132.307893 137.121519 131.857022 137.121519 131.386962
C 137.121519 130.916902 136.934762 130.466031 136.602379 130.133648
C 136.269996 129.801265 135.819125 129.614508 135.349065 129.614508
C 134.879004 129.614508 134.428133 129.801265 134.095751 130.133648
C 133.763368 130.466031 133.576611 130.916902 133.576611 131.386962
C 133.576611 131.857022 133.763368 132.307893 134.095751 132.640276
C 134.428133 132.972659 134.879004 133.159416 135.349065 133.159416
z
" style="stroke:#000000;stroke-width:0.886227;"/>
    <path clip-path="url(#p37f11b3686)" d="M 129.49262 138.096559
C 129.96268 138.096559 130.413551 137.909802 130.745934 137.577419
C 131.078317 137.245036 131.265074 136.794165 131.265074 136.324105
C 131.265074 135.854045 131.078317 135.403174 130.745934 135.070791
C 130.413551 134.738408 129.96268 134.551651 129.49262 134.551651
C 129.02256 134.551651 128.571689 134.738408 128.239306 135.070791
C 127.906923 135.403174 127.720166 135.854045 127.720166 136.324105
C 127.720166 136.794165 127.906923 137.245036 128.239306 137.577419
C 128.571689 137.909802 129.02256 138.096559 129.49262 138.096559
z
" style="stroke:#000000;stroke-width:0.886227;"/>
    <path clip-path="url(#p37f11b3686)" d="M 126.430423 143.033702
C 126.900483 143.033702 127.351354 142.846945 127.683737 142.514562
C 128.01612 142.182179 128.202877 141.731308 128.202877 141.261248
C 128.202877 140.791188 128.01612 140.340316 127.683737 140.007934
C 127.351354 139.675551 126.900483 139.488794 126.430423 139.488794
C 125.960362 139.488794 125.509491 139.675551 125.177109 140.007934
C 124.844726 140.340316 124.657969 140.791188 124.657969 141.261248
C 124.657969 141.731308 124.844726 142.182179 125.177109 142.514562
C 125.509491 142.846945 125.960362 143.033702 126.430423 143.033702
z
" style="stroke:#000000;stroke-width:0.886227;"/>
    <path clip-path="url(#p37f11b3686)" d="M 123.549968 147.970844
C 124.020028 147.970844 124.470899 147.784088 124.803282 147.451705
C 125.135665 147.119322 125.322422 146.668451 125.322422 146.198391
C 125.322422 145.72833 125.135665 145.277459 124.803282 144.945076
C 124.470899 144.612694 124.020028 144.425937 123.549968 144.425937
C 123.079908 144.425937 122.629037 144.612694 122.296654 144.945076
C 121.964271 145.277459 121.777514 145.72833 121.777514 146.198391
C 121.777514 146.668451 121.964271 147.119322 122.296654 147.451705
C 122.629037 147.784088 123.079908 147.970844 123.549968 147.970844
z
" style="stroke:#000000;stroke-width:0.886227;"/>
    <path clip-path="url(#p37f11b3686)" d="M 117.765928 152.907987
C 118.235988 152.907987 118.686859 152.72123 119.019242 152.388848
C 119.351625 152.056465 119.538382 151.605594 119.538382 151.135533
C 119.538382 150.665473 119.351625 150.214602 119.019242 149.882219
C 118.686859 149.549837 118.235988 149.36308 117.765928 149.36308
C 117.295868 149.36308 116.844997 149.549837 116.512614 149.882219
C 116.180231 150.214602 115.993474 150.665473 115.993474 151.135533
C 115.993474 151.605594 116.180231 152.056465 116.512614 152.388848
C 116.844997 152.72123 117.295868 152.907987 117.765928 152.907987
z
" style="stroke:#000000;stroke-width:0.886227;"/>
    <path clip-path="url(#p37f11b3686)" d="M 117.50587 157.84513
C 117.97593 157.84513 118.426801 157.658373 118.759184 157.32599
C 119.091567 156.993608 119.278324 156.542737 119.278324 156.072676
C 119.278324 155.602616 119.091567 155.151745 118.759184 154.819362
C 118.426801 154.486979 117.97593 154.300222 117.50587 154.300222
C 117.03581 154.300222 116.584939 154.486979 116.252556 154.819362
C 115.920173 155.151745 115.733416 155.602616 115.733416 156.072676
C 115.733416 156.542737 115.920173 156.993608 116.252556 157.32599
C 116.584939 157.658373 117.03581 157.84513 117.50587 157.84513
z
" style="stroke:#000000;stroke-width:0.886227;"/>
    <path clip-path="url(#p37f11b3686)" d="M 114.700099 162.782273
C 115.17016 162.782273 115.621031 162.595516 115.953414 162.263133
C 116.285796 161.930751 116.472553 161.479879 116.472553 161.009819
C 116.472553 160.539759 116.285796 160.088888 115.953414 159.756505
C 115.621031 159.424122 115.17016 159.237365 114.700099 159.237365
C 114.230039 159.237365 113.779168 159.424122 113.446785 159.756505
C 113.114403 160.088888 112.927646 160.539759 112.927646 161.009819
C 112.927646 161.479879 113.114403 161.930751 113.446785 162.263133
C 113.779168 162.595516 114.230039 162.782273 114.700099 162.782273
z
" style="stroke:#000000;stroke-width:0.886227;"/>
    <path clip-path="url(#p37f11b3686)" d="M 111.503355 167.719416
C 111.973415 167.719416 112.424286 167.532659 112.756669 167.200276
C 113.089052 166.867893 113.275809 166.417022 113.275809 165.946962
C 113.275809 165.476902 113.089052 165.026031 112.756669 164.693648
C 112.424286 164.361265 111.973415 164.174508 111.503355 164.174508
C 111.033295 164.174508 110.582424 164.361265 110.250041 164.693648
C 109.917658 165.026031 109.730901 165.476902 109.730901 165.946962
C 109.730901 166.417022 109.917658 166.867893 110.250041 167.200276
C 110.582424 167.532659 111.033295 167.719416 111.503355 167.719416
z
" style="stroke:#000000;stroke-width:0.886227;"/>
    <path clip-path="url(#p37f11b3686)" d="M 106.587444 172.656559
C 107.057504 172.656559 107.508375 172.469802 107.840758 172.137419
C 108.173141 171.805036 108.359898 171.354165 108.359898 170.884105
C 108.359898 170.414045 108.173141 169.963174 107.840758 169.630791
C 107.508375 169.298408 107.057504 169.111651 106.587444 169.111651
C 106.117384 169.111651 105.666512 169.298408 105.33413 169.630791
C 105.001747 169.963174 104.81499 170.414045 104.81499 170.884105
C 104.81499 171.354165 105.001747 171.805036 105.33413 172.137419
C 105.666512 172.469802 106.117384 172.656559 106.587444 172.656559
z
" style="stroke:#000000;stroke-width:0.886227;"/>
    <path clip-path="url(#p37f11b3686)" d="M 102.199752 180.062273
C 102.669812 180.062273 103.120683 179.875516 103.453066 179.543133
C 103.785449 179.210751 103.972205 178.759879 103.972205 178.289819
C 103.972205 177.819759 103.785449 177.368888 103.453066 177.036505
C 103.120683 176.704122 102.669812 176.517365 102.199752 176.517365
C 101.729691 176.517365 101.27882 176.704122 100.946437 177.036505
C 100.614055 177.368888 100.427298 177.819759 100.427298 178.289819
C 100.427298 178.759879 100.614055 179.210751 100.946437 179.543133
C 101.27882 179.875516 101.729691 180.062273 102.199752 180.062273
z
" style="stroke:#000000;stroke-width:0.886227;"/>
    <path clip-path="url(#p37f11b3686)" d="M 102.199752 180.062273
C 102.669812 180.062273 103.120683 179.875516 103.453066 179.543133
C 103.785449 179.210751 103.972205 178.759879 103.972205 178.289819
C 103.972205 177.819759 103.785449 177.368888 103.453066 177.036505
C 103.120683 176.704122 102.669812 176.517365 102.199752 176.517365
C 101.729691 176.517365 101.27882 176.704122 100.946437 177.036505
C 100.614055 177.368888 100.427298 177.819759 100.427298 178.289819
C 100.427298 178.759879 100.614055 179.210751 100.946437 179.543133
C 101.27882 179.875516 101.729691 180.062273 102.199752 180.062273
z
" style="stroke:#000000;stroke-width:0.886227;"/>
    <path clip-path="url(#p37f11b3686)" d="M 99.799606 187.467987
C 100.269666 187.467987 100.720538 187.28123 101.05292 186.948848
C 101.385303 186.616465 101.57206 186.165594 101.57206 185.695533
C 101.57206 185.225473 101.385303 184.774602 101.05292 184.442219
C 100.720538 184.109837 100.269666 183.92308 99.799606 183.92308
C 99.329546 183.92308 98.878675 184.109837 98.546292 184.442219
C 98.213909 184.774602 98.027152 185.225473 98.027152 185.695533
C 98.027152 186.165594 98.213909 186.616465 98.546292 186.948848
C 98.878675 187.28123 99.329546 187.467987 99.799606 187.467987
z
" style="stroke:#000000;stroke-width:0.886227;"/>
    <path clip-path="url(#p37f11b3686)" d="M 97.35683 192.40513
C 97.82689 192.40513 98.277761 192.218373 98.610144 191.88599
C 98.942527 191.553608 99.129284 191.102737 99.129284 190.632676
C 99.129284 190.162616 98.942527 189.711745 98.610144 189.379362
C 98.277761 189.046979 97.82689 188.860222 97.35683 188.860222
C 96.88677 188.860222 96.435898 189.046979 96.103516 189.379362
C 95.771133 189.711745 95.584376 190.162616 95.584376 190.632676
C 95.584376 191.102737 95.771133 191.553608 96.103516 191.88599
C 96.435898 192.218373 96.88677 192.40513 97.35683 192.40513
z
" style="stroke:#000000;stroke-width:0.886227;"/>
    <path clip-path="url(#p37f11b3686)" d="M 95.49617 197.342273
C 95.96623 197.342273 96.417101 197.155516 96.749484 196.823133
C 97.081867 196.490751 97.268624 196.039879 97.268624 195.569819
C 97.268624 195.099759 97.081867 194.648888 96.749484 194.316505
C 96.417101 193.984122 95.96623 193.797365 95.49617 193.797365
C 95.02611 193.797365 94.575239 193.984122 94.242856 194.316505
C 93.910473 194.648888 93.723716 195.099759 93.723716 195.569819
C 93.723716 196.039879 93.910473 196.490751 94.242856 196.823133
C 94.575239 197.155516 95.02611 197.342273 95.49617 197.342273
z
" style="stroke:#000000;stroke-width:0.886227;"/>
    <path clip-path="url(#p37f11b3686)" d="M 90.659696 202.279416
C 91.129756 202.279416 91.580627 202.092659 91.91301 201.760276
C 92.245393 201.427893 92.432149 200.977022 92.432149 200.506962
C 92.432149 200.036902 92.245393 199.586031 91.91301 199.253648
C 91.580627 198.921265 91.129756 198.734508 90.659696 198.734508
C 90.189635 198.734508 89.738764 198.921265 89.406381 199.253648
C 89.073999 199.586031 88.887242 200.036902 88.887242 200.506962
C 88.887242 200.977022 89.073999 201.427893 89.406381 201.760276
C 89.738764 202.092659 90.189635 202.279416 90.659696 202.279416
z
" style="stroke:#000000;stroke-width:0.886227;"/>
    <path clip-path="url(#p37f11b3686)" d="M 87.694344 209.68513
C 88.164404 209.68513 88.615275 209.498373 88.947658 209.16599
C 89.280041 208.833608 89.466798 208.382737 89.466798 207.912676
C 89.466798 207.442616 89.280041 206.991745 88.947658 206.659362
C 88.615275 206.326979 88.164404 206.140222 87.694344 206.140222
C 87.224284 206.140222 86.773413 206.326979 86.44103 206.659362
C 86.108647 206.991745 85.92189 207.442616 85.92189 207.912676
C 85.92189 208.382737 86.108647 208.833608 86.44103 209.16599
C 86.773413 209.498373 87.224284 209.68513 87.694344 209.68513
z
" style="stroke:#000000;stroke-width:0.886227;"/>
    <path clip-path="url(#p37f11b3686)" d="M 87.694344 209.68513
C 88.164404 209.68513 88.615275 209.498373 88.947658 209.16599
C 89.280041 208.833608 89.466798 208.382737 89.466798 207.912676
C 89.466798 207.442616 89.280041 206.991745 88.947658 206.659362
C 88.615275 206.326979 88.164404 206.140222 87.694344 206.140222
C 87.224284 206.140222 86.773413 206.326979 86.44103 206.659362
C 86.108647 206.991745 85.92189 207.442616 85.92189 207.912676
C 85.92189 208.382737 86.108647 208.833608 86.44103 209.16599
C 86.773413 209.498373 87.224284 209.68513 87.694344 209.68513
z
" style="stroke:#000000;stroke-width:0.886227;"/>
    <path clip-path="url(#p37f11b3686)" d="M 86.036686 217.090844
C 86.506747 217.090844 86.957618 216.904088 87.29 216.571705
C 87.622383 216.239322 87.80914 215.788451 87.80914 215.318391
C 87.80914 214.84833 87.622383 214.397459 87.29 214.065076
C 86.957618 213.732694 86.506747 213.545937 86.036686 213.545937
C 85.566626 213.545937 85.115755 213.732694 84.783372 214.065076
C 84.450989 214.397459 84.264233 214.84833 84.264233 215.318391
C 84.264233 215.788451 84.450989 216.239322 84.783372 216.571705
C 85.115755 216.904088 85.566626 217.090844 86.036686 217.090844
z
" style="stroke:#000000;stroke-width:0.886227;"/>
    <path clip-path="url(#p37f11b3686)" d="M 83.605547 222.027987
C 84.075607 222.027987 84.526478 221.84123 84.858861 221.508848
C 85.191244 221.176465 85.378001 220.725594 85.378001 220.255533
C 85.378001 219.785473 85.191244 219.334602 84.858861 219.002219
C 84.526478 218.669837 84.075607 218.48308 83.605547 218.48308
C 83.135487 218.48308 82.684616 218.669837 82.352233 219.002219
C 82.01985 219.334602 81.833093 219.785473 81.833093 220.255533
C 81.833093 220.725594 82.01985 221.176465 82.352233 221.508848
C 82.684616 221.84123 83.135487 222.027987 83.605547 222.027987
z
" style="stroke:#000000;stroke-width:0.886227;"/>
    <path clip-path="url(#p37f11b3686)" d="M 79.569787 231.902273
C 80.039847 231.902273 80.490718 231.715516 80.823101 231.383133
C 81.155484 231.050751 81.342241 230.599879 81.342241 230.129819
C 81.342241 229.659759 81.155484 229.208888 80.823101 228.876505
C 80.490718 228.544122 80.039847 228.357365 79.569787 228.357365
C 79.099727 228.357365 78.648856 228.544122 78.316473 228.876505
C 77.98409 229.208888 77.797333 229.659759 77.797333 230.129819
C 77.797333 230.599879 77.98409 231.050751 78.316473 231.383133
C 78.648856 231.715516 79.099727 231.902273 79.569787 231.902273
z
" style="stroke:#000000;stroke-width:0.886227;"/>
    <path clip-path="url(#p37f11b3686)" d="M 81.230898 226.96513
C 81.700958 226.96513 82.151829 226.778373 82.484212 226.44599
C 82.816595 226.113608 83.003351 225.662737 83.003351 225.192676
C 83.003351 224.722616 82.816595 224.271745 82.484212 223.939362
C 82.151829 223.606979 81.700958 223.420222 81.230898 223.420222
C 80.760837 223.420222 80.309966 223.606979 79.977584 223.939362
C 79.645201 224.271745 79.458444 224.722616 79.458444 225.192676
C 79.458444 225.662737 79.645201 226.113608 79.977584 226.44599
C 80.309966 226.778373 80.760837 226.96513 81.230898 226.96513
z
" style="stroke:#000000;stroke-width:0.886227;"/>
    <path clip-path="url(#p37f11b3686)" d="M 78.473221 236.839416
C 78.943281 236.839416 79.394152 236.652659 79.726535 236.320276
C 80.058918 235.987893 80.245674 235.537022 80.245674 235.066962
C 80.245674 234.596902 80.058918 234.146031 79.726535 233.813648
C 79.394152 233.481265 78.943281 233.294508 78.473221 233.294508
C 78.00316 233.294508 77.552289 233.481265 77.219906 233.813648
C 76.887524 234.146031 76.700767 234.596902 76.700767 235.066962
C 76.700767 235.537022 76.887524 235.987893 77.219906 236.320276
C 77.552289 236.652659 78.00316 236.839416 78.473221 236.839416
z
" style="stroke:#000000;stroke-width:0.886227;"/>
    <path clip-path="url(#p37f11b3686)" d="M 76.582143 241.776559
C 77.052203 241.776559 77.503074 241.589802 77.835457 241.257419
C 78.16784 240.925036 78.354597 240.474165 78.354597 240.004105
C 78.354597 239.534045 78.16784 239.083174 77.835457 238.750791
C 77.503074 238.418408 77.052203 238.231651 76.582143 238.231651
C 76.112083 238.231651 75.661212 238.418408 75.328829 238.750791
C 74.996446 239.083174 74.809689 239.534045 74.809689 240.004105
C 74.809689 240.474165 74.996446 240.925036 75.328829 241.257419
C 75.661212 241.589802 76.112083 241.776559 76.582143 241.776559
z
" style="stroke:#000000;stroke-width:0.886227;"/>
    <path clip-path="url(#p37f11b3686)" d="M 74.496477 246.713702
C 74.966537 246.713702 75.417409 246.526945 75.749791 246.194562
C 76.082174 245.862179 76.268931 245.411308 76.268931 244.941248
C 76.268931 244.471188 76.082174 244.020316 75.749791 243.687934
C 75.417409 243.355551 74.966537 243.168794 74.496477 243.168794
C 74.026417 243.168794 73.575546 243.355551 73.243163 243.687934
C 72.91078 244.020316 72.724023 244.471188 72.724023 244.941248
C 72.724023 245.411308 72.91078 245.862179 73.243163 246.194562
C 73.575546 246.526945 74.026417 246.713702 74.496477 246.713702
z
" style="stroke:#000000;stroke-width:0.886227;"/>
    <path clip-path="url(#p37f11b3686)" d="M 73.358532 251.650844
C 73.828592 251.650844 74.279463 251.464088 74.611846 251.131705
C 74.944229 250.799322 75.130986 250.348451 75.130986 249.878391
C 75.130986 249.40833 74.944229 248.957459 74.611846 248.625076
C 74.279463 248.292694 73.828592 248.105937 73.358532 248.105937
C 72.888472 248.105937 72.4376 248.292694 72.105218 248.625076
C 71.772835 248.957459 71.586078 249.40833 71.586078 249.878391
C 71.586078 250.348451 71.772835 250.799322 72.105218 251.131705
C 72.4376 251.464088 72.888472 251.650844 73.358532 251.650844
z
" style="stroke:#000000;stroke-width:0.886227;"/>
    <path clip-path="url(#p37f11b3686)" d="M 70.016979 256.587987
C 70.487039 256.587987 70.93791 256.40123 71.270293 256.068848
C 71.602676 255.736465 71.789432 255.285594 71.789432 254.815533
C 71.789432 254.345473 71.602676 253.894602 71.270293 253.562219
C 70.93791 253.229837 70.487039 253.04308 70.016979 253.04308
C 69.546918 253.04308 69.096047 253.229837 68.763664 253.562219
C 68.431282 253.894602 68.244525 254.345473 68.244525 254.815533
C 68.244525 255.285594 68.431282 255.736465 68.763664 256.068848
C 69.096047 256.40123 69.546918 256.587987 70.016979 256.587987
z
" style="stroke:#000000;stroke-width:0.886227;"/>
    <path clip-path="url(#p37f11b3686)" d="M 69.535158 261.52513
C 70.005218 261.52513 70.456089 261.338373 70.788472 261.00599
C 71.120855 260.673608 71.307612 260.222737 71.307612 259.752676
C 71.307612 259.282616 71.120855 258.831745 70.788472 258.499362
C 70.456089 258.166979 70.005218 257.980222 69.535158 257.980222
C 69.065098 257.980222 68.614226 258.166979 68.281844 258.499362
C 67.949461 258.831745 67.762704 259.282616 67.762704 259.752676
C 67.762704 260.222737 67.949461 260.673608 68.281844 261.00599
C 68.614226 261.338373 69.065098 261.52513 69.535158 261.52513
z
" style="stroke:#000000;stroke-width:0.886227;"/>
    <path clip-path="url(#p37f11b3686)" d="M 67.890797 266.462273
C 68.360857 266.462273 68.811728 266.275516 69.144111 265.943133
C 69.476494 265.610751 69.663251 265.159879 69.663251 264.689819
C 69.663251 264.219759 69.476494 263.768888 69.144111 263.436505
C 68.811728 263.104122 68.360857 262.917365 67.890797 262.917365
C 67.420736 262.917365 66.969865 263.104122 66.637483 263.436505
C 66.3051 263.768888 66.118343 264.219759 66.118343 264.689819
C 66.118343 265.159879 66.3051 265.610751 66.637483 265.943133
C 66.969865 266.275516 67.420736 266.462273 67.890797 266.462273
z
" style="stroke:#000000;stroke-width:0.886227;"/>
    <path clip-path="url(#p37f11b3686)" d="M 66.178407 271.399416
C 66.648467 271.399416 67.099338 271.212659 67.431721 270.880276
C 67.764104 270.547893 67.95086 270.097022 67.95086 269.626962
C 67.95086 269.156902 67.764104 268.706031 67.431721 268.373648
C 67.099338 268.041265 66.648467 267.854508 66.178407 267.854508
C 65.708346 267.854508 65.257475 268.041265 64.925092 268.373648
C 64.59271 268.706031 64.405953 269.156902 64.405953 269.626962
C 64.405953 270.097022 64.59271 270.547893 64.925092 270.880276
C 65.257475 271.212659 65.708346 271.399416 66.178407 271.399416
z
" style="stroke:#000000;stroke-width:0.886227;"/>
    <path clip-path="url(#p37f11b3686)" d="M 64.658193 276.336559
C 65.128253 276.336559 65.579124 276.149802 65.911507 275.817419
C 66.24389 275.485036 66.430647 275.034165 66.430647 274.564105
C 66.430647 274.094045 66.24389 273.643174 65.911507 273.310791
C 65.579124 272.978408 65.128253 272.791651 64.658193 272.791651
C 64.188133 272.791651 63.737262 272.978408 63.404879 273.310791
C 63.072496 273.643174 62.885739 274.094045 62.885739 274.564105
C 62.885739 275.034165 63.072496 275.485036 63.404879 275.817419
C 63.737262 276.149802 64.188133 276.336559 64.658193 276.336559
z
" style="stroke:#000000;stroke-width:0.886227;"/>
    <path clip-path="url(#p37f11b3686)" d="M 64.071355 281.273702
C 64.541415 281.273702 64.992286 281.086945 65.324669 280.754562
C 65.657051 280.422179 65.843808 279.971308 65.843808 279.501248
C 65.843808 279.031188 65.657051 278.580316 65.324669 278.247934
C 64.992286 277.915551 64.541415 277.728794 64.071355 277.728794
C 63.601294 277.728794 63.150423 277.915551 62.81804 278.247934
C 62.485658 278.580316 62.298901 279.031188 62.298901 279.501248
C 62.298901 279.971308 62.485658 280.422179 62.81804 280.754562
C 63.150423 281.086945 63.601294 281.273702 64.071355 281.273702
z
" style="stroke:#000000;stroke-width:0.886227;"/>
    <path clip-path="url(#p37f11b3686)" d="M 63.004915 286.210844
C 63.474975 286.210844 63.925846 286.024088 64.258229 285.691705
C 64.590612 285.359322 64.777369 284.908451 64.777369 284.438391
C 64.777369 283.96833 64.590612 283.517459 64.258229 283.185076
C 63.925846 282.852694 63.474975 282.665937 63.004915 282.665937
C 62.534855 282.665937 62.083983 282.852694 61.751601 283.185076
C 61.419218 283.517459 61.232461 283.96833 61.232461 284.438391
C 61.232461 284.908451 61.419218 285.359322 61.751601 285.691705
C 62.083983 286.024088 62.534855 286.210844 63.004915 286.210844
z
" style="stroke:#000000;stroke-width:0.886227;"/>
   </g>
   <g id="PathCollection_2">
    <path clip-path="url(#p37f11b3686)" d="M 387.65946 44.290844
C 388.12952 44.290844 388.580392 44.104088 388.912774 43.771705
C 389.245157 43.439322 389.431914 42.988451 389.431914 42.518391
C 389.431914 42.04833 389.245157 41.597459 388.912774 41.265076
C 388.580392 40.932694 388.12952 40.745937 387.65946 40.745937
C 387.1894 40.745937 386.738529 40.932694 386.406146 41.265076
C 386.073763 41.597459 385.887006 42.04833 385.887006 42.518391
C 385.887006 42.988451 386.073763 43.439322 386.406146 43.771705
C 386.738529 44.104088 387.1894 44.290844 387.65946 44.290844
z
" style="fill:#ff0000;stroke:#ff0000;stroke-width:0.886227;"/>
    <path clip-path="url(#p37f11b3686)" d="M 357.278751 49.227987
C 357.748811 49.227987 358.199682 49.04123 358.532065 48.708848
C 358.864448 48.376465 359.051205 47.925594 359.051205 47.455533
C 359.051205 46.985473 358.864448 46.534602 358.532065 46.202219
C 358.199682 45.869837 357.748811 45.68308 357.278751 45.68308
C 356.808691 45.68308 356.35782 45.869837 356.025437 46.202219
C 355.693054 46.534602 355.506297 46.985473 355.506297 47.455533
C 355.506297 47.925594 355.693054 48.376465 356.025437 48.708848
C 356.35782 49.04123 356.808691 49.227987 357.278751 49.227987
z
" style="fill:#ff0000;stroke:#ff0000;stroke-width:0.886227;"/>
    <path clip-path="url(#p37f11b3686)" d="M 297.552558 54.16513
C 298.022618 54.16513 298.473489 53.978373 298.805872 53.64599
C 299.138255 53.313608 299.325012 52.862737 299.325012 52.392676
C 299.325012 51.922616 299.138255 51.471745 298.805872 51.139362
C 298.473489 50.806979 298.022618 50.620222 297.552558 50.620222
C 297.082498 50.620222 296.631627 50.806979 296.299244 51.139362
C 295.966861 51.471745 295.780104 51.922616 295.780104 52.392676
C 295.780104 52.862737 295.966861 53.313608 296.299244 53.64599
C 296.631627 53.978373 297.082498 54.16513 297.552558 54.16513
z
" style="fill:#ff0000;stroke:#ff0000;stroke-width:0.886227;"/>
    <path clip-path="url(#p37f11b3686)" d="M 287.573255 59.102273
C 288.043315 59.102273 288.494186 58.915516 288.826569 58.583133
C 289.158951 58.250751 289.345708 57.799879 289.345708 57.329819
C 289.345708 56.859759 289.158951 56.408888 288.826569 56.076505
C 288.494186 55.744122 288.043315 55.557365 287.573255 55.557365
C 287.103194 55.557365 286.652323 55.744122 286.31994 56.076505
C 285.987558 56.408888 285.800801 56.859759 285.800801 57.329819
C 285.800801 57.799879 285.987558 58.250751 286.31994 58.583133
C 286.652323 58.915516 287.103194 59.102273 287.573255 59.102273
z
" style="fill:#ff0000;stroke:#ff0000;stroke-width:0.886227;"/>
    <path clip-path="url(#p37f11b3686)" d="M 279.44845 64.039416
C 279.91851 64.039416 280.369381 63.852659 280.701764 63.520276
C 281.034147 63.187893 281.220904 62.737022 281.220904 62.266962
C 281.220904 61.796902 281.034147 61.346031 280.701764 61.013648
C 280.369381 60.681265 279.91851 60.494508 279.44845 60.494508
C 278.978389 60.494508 278.527518 60.681265 278.195136 61.013648
C 277.862753 61.346031 277.675996 61.796902 277.675996 62.266962
C 277.675996 62.737022 277.862753 63.187893 278.195136 63.520276
C 278.527518 63.852659 278.978389 64.039416 279.44845 64.039416
z
" style="fill:#ff0000;stroke:#ff0000;stroke-width:0.886227;"/>
   </g>
   <g id="text_12">
    <g clip-path="url(#p37f11b3686)">
     <!-- HALLMARK_ADIPOGENESIS -->
     <defs>
      <path d="M 9.8125 72.90625
L 19.671875 72.90625
L 19.671875 43.015625
L 55.515625 43.015625
L 55.515625 72.90625
L 65.375 72.90625
L 65.375 0
L 55.515625 0
L 55.515625 34.71875
L 19.671875 34.71875
L 19.671875 0
L 9.8125 0
z
" id="DejaVuSans-72"/>
      <path d="M 34.1875 63.1875
L 20.796875 26.90625
L 47.609375 26.90625
z
M 28.609375 72.90625
L 39.796875 72.90625
L 67.578125 0
L 57.328125 0
L 50.6875 18.703125
L 17.828125 18.703125
L 11.1875 0
L 0.78125 0
z
" id="DejaVuSans-65"/>
      <path d="M 9.8125 72.90625
L 19.671875 72.90625
L 19.671875 8.296875
L 55.171875 8.296875
L 55.171875 0
L 9.8125 0
z
" id="DejaVuSans-76"/>
      <path d="M 9.8125 72.90625
L 24.515625 72.90625
L 43.109375 23.296875
L 61.8125 72.90625
L 76.515625 72.90625
L 76.515625 0
L 66.890625 0
L 66.890625 64.015625
L 48.09375 14.015625
L 38.1875 14.015625
L 19.390625 64.015625
L 19.390625 0
L 9.8125 0
z
" id="DejaVuSans-77"/>
      <path d="M 9.8125 72.90625
L 19.671875 72.90625
L 19.671875 42.09375
L 52.390625 72.90625
L 65.09375 72.90625
L 28.90625 38.921875
L 67.671875 0
L 54.6875 0
L 19.671875 35.109375
L 19.671875 0
L 9.8125 0
z
" id="DejaVuSans-75"/>
      <path d="M 50.984375 -16.609375
L 50.984375 -23.578125
L -0.984375 -23.578125
L -0.984375 -16.609375
z
" id="DejaVuSans-95"/>
      <path d="M 9.8125 72.90625
L 19.671875 72.90625
L 19.671875 0
L 9.8125 0
z
" id="DejaVuSans-73"/>
      <path d="M 19.671875 64.796875
L 19.671875 37.40625
L 32.078125 37.40625
Q 38.96875 37.40625 42.71875 40.96875
Q 46.484375 44.53125 46.484375 51.125
Q 46.484375 57.671875 42.71875 61.234375
Q 38.96875 64.796875 32.078125 64.796875
z
M 9.8125 72.90625
L 32.078125 72.90625
Q 44.34375 72.90625 50.609375 67.359375
Q 56.890625 61.8125 56.890625 51.125
Q 56.890625 40.328125 50.609375 34.8125
Q 44.34375 29.296875 32.078125 29.296875
L 19.671875 29.296875
L 19.671875 0
L 9.8125 0
z
" id="DejaVuSans-80"/>
      <path d="M 39.40625 66.21875
Q 28.65625 66.21875 22.328125 58.203125
Q 16.015625 50.203125 16.015625 36.375
Q 16.015625 22.609375 22.328125 14.59375
Q 28.65625 6.59375 39.40625 6.59375
Q 50.140625 6.59375 56.421875 14.59375
Q 62.703125 22.609375 62.703125 36.375
Q 62.703125 50.203125 56.421875 58.203125
Q 50.140625 66.21875 39.40625 66.21875
z
M 39.40625 74.21875
Q 54.734375 74.21875 63.90625 63.9375
Q 73.09375 53.65625 73.09375 36.375
Q 73.09375 19.140625 63.90625 8.859375
Q 54.734375 -1.421875 39.40625 -1.421875
Q 24.03125 -1.421875 14.8125 8.828125
Q 5.609375 19.09375 5.609375 36.375
Q 5.609375 53.65625 14.8125 63.9375
Q 24.03125 74.21875 39.40625 74.21875
z
" id="DejaVuSans-79"/>
      <path d="M 59.515625 10.40625
L 59.515625 29.984375
L 43.40625 29.984375
L 43.40625 38.09375
L 69.28125 38.09375
L 69.28125 6.78125
Q 63.578125 2.734375 56.6875 0.65625
Q 49.8125 -1.421875 42 -1.421875
Q 24.90625 -1.421875 15.25 8.5625
Q 5.609375 18.5625 5.609375 36.375
Q 5.609375 54.25 15.25 64.234375
Q 24.90625 74.21875 42 74.21875
Q 49.125 74.21875 55.546875 72.453125
Q 61.96875 70.703125 67.390625 67.28125
L 67.390625 56.78125
Q 61.921875 61.421875 55.765625 63.765625
Q 49.609375 66.109375 42.828125 66.109375
Q 29.4375 66.109375 22.71875 58.640625
Q 16.015625 51.171875 16.015625 36.375
Q 16.015625 21.625 22.71875 14.15625
Q 29.4375 6.6875 42.828125 6.6875
Q 48.046875 6.6875 52.140625 7.59375
Q 56.25 8.5 59.515625 10.40625
z
" id="DejaVuSans-71"/>
      <path d="M 9.8125 72.90625
L 55.90625 72.90625
L 55.90625 64.59375
L 19.671875 64.59375
L 19.671875 43.015625
L 54.390625 43.015625
L 54.390625 34.71875
L 19.671875 34.71875
L 19.671875 8.296875
L 56.78125 8.296875
L 56.78125 0
L 9.8125 0
z
" id="DejaVuSans-69"/>
      <path d="M 9.8125 72.90625
L 23.09375 72.90625
L 55.421875 11.921875
L 55.421875 72.90625
L 64.984375 72.90625
L 64.984375 0
L 51.703125 0
L 19.390625 60.984375
L 19.390625 0
L 9.8125 0
z
" id="DejaVuSans-78"/>
      <path d="M 53.515625 70.515625
L 53.515625 60.890625
Q 47.90625 63.578125 42.921875 64.890625
Q 37.9375 66.21875 33.296875 66.21875
Q 25.25 66.21875 20.875 63.09375
Q 16.5 59.96875 16.5 54.203125
Q 16.5 49.359375 19.40625 46.890625
Q 22.3125 44.4375 30.421875 42.921875
L 36.375 41.703125
Q 47.40625 39.59375 52.65625 34.296875
Q 57.90625 29 57.90625 20.125
Q 57.90625 9.515625 50.796875 4.046875
Q 43.703125 -1.421875 29.984375 -1.421875
Q 24.8125 -1.421875 18.96875 -0.25
Q 13.140625 0.921875 6.890625 3.21875
L 6.890625 13.375
Q 12.890625 10.015625 18.65625 8.296875
Q 24.421875 6.59375 29.984375 6.59375
Q 38.421875 6.59375 43.015625 9.90625
Q 47.609375 13.234375 47.609375 19.390625
Q 47.609375 24.75 44.3125 27.78125
Q 41.015625 30.8125 33.5 32.328125
L 27.484375 33.5
Q 16.453125 35.6875 11.515625 40.375
Q 6.59375 45.0625 6.59375 53.421875
Q 6.59375 63.09375 13.40625 68.65625
Q 20.21875 74.21875 32.171875 74.21875
Q 37.3125 74.21875 42.625 73.28125
Q 47.953125 72.359375 53.515625 70.515625
z
" id="DejaVuSans-83"/>
     </defs>
     <g transform="translate(320.466491 46.229328)scale(0.05 -0.05)">
      <use xlink:href="#DejaVuSans-72"/>
      <use x="75.195312" xlink:href="#DejaVuSans-65"/>
      <use x="143.603516" xlink:href="#DejaVuSans-76"/>
      <use x="199.316406" xlink:href="#DejaVuSans-76"/>
      <use x="255.029297" xlink:href="#DejaVuSans-77"/>
      <use x="341.308594" xlink:href="#DejaVuSans-65"/>
      <use x="409.716797" xlink:href="#DejaVuSans-82"/>
      <use x="479.199219" xlink:href="#DejaVuSans-75"/>
      <use x="544.775391" xlink:href="#DejaVuSans-95"/>
      <use x="594.775391" xlink:href="#DejaVuSans-65"/>
      <use x="663.183594" xlink:href="#DejaVuSans-68"/>
      <use x="740.185547" xlink:href="#DejaVuSans-73"/>
      <use x="769.677734" xlink:href="#DejaVuSans-80"/>
      <use x="829.980469" xlink:href="#DejaVuSans-79"/>
      <use x="908.691406" xlink:href="#DejaVuSans-71"/>
      <use x="986.181641" xlink:href="#DejaVuSans-69"/>
      <use x="1049.365234" xlink:href="#DejaVuSans-78"/>
      <use x="1124.169922" xlink:href="#DejaVuSans-69"/>
      <use x="1187.353516" xlink:href="#DejaVuSans-83"/>
      <use x="1250.830078" xlink:href="#DejaVuSans-73"/>
      <use x="1280.322266" xlink:href="#DejaVuSans-83"/>
     </g>
    </g>
   </g>
   <g id="text_13">
    <g clip-path="url(#p37f11b3686)">
     <!-- HALLMARK_ALLOGRAFT_REJECTION -->
     <defs>
      <path d="M -0.296875 72.90625
L 61.375 72.90625
L 61.375 64.59375
L 35.5 64.59375
L 35.5 0
L 25.59375 0
L 25.59375 64.59375
L -0.296875 64.59375
z
" id="DejaVuSans-84"/>
      <path d="M 9.8125 72.90625
L 19.671875 72.90625
L 19.671875 5.078125
Q 19.671875 -8.109375 14.671875 -14.0625
Q 9.671875 -20.015625 -1.421875 -20.015625
L -5.171875 -20.015625
L -5.171875 -11.71875
L -2.09375 -11.71875
Q 4.4375 -11.71875 7.125 -8.046875
Q 9.8125 -4.390625 9.8125 5.078125
z
" id="DejaVuSans-74"/>
     </defs>
     <g transform="translate(268.453751 51.166471)scale(0.05 -0.05)">
      <use xlink:href="#DejaVuSans-72"/>
      <use x="75.195312" xlink:href="#DejaVuSans-65"/>
      <use x="143.603516" xlink:href="#DejaVuSans-76"/>
      <use x="199.316406" xlink:href="#DejaVuSans-76"/>
      <use x="255.029297" xlink:href="#DejaVuSans-77"/>
      <use x="341.308594" xlink:href="#DejaVuSans-65"/>
      <use x="409.716797" xlink:href="#DejaVuSans-82"/>
      <use x="479.199219" xlink:href="#DejaVuSans-75"/>
      <use x="544.775391" xlink:href="#DejaVuSans-95"/>
      <use x="594.775391" xlink:href="#DejaVuSans-65"/>
      <use x="663.183594" xlink:href="#DejaVuSans-76"/>
      <use x="718.896484" xlink:href="#DejaVuSans-76"/>
      <use x="774.5625" xlink:href="#DejaVuSans-79"/>
      <use x="853.273438" xlink:href="#DejaVuSans-71"/>
      <use x="930.763672" xlink:href="#DejaVuSans-82"/>
      <use x="1000.183594" xlink:href="#DejaVuSans-65"/>
      <use x="1068.591797" xlink:href="#DejaVuSans-70"/>
      <use x="1126.095703" xlink:href="#DejaVuSans-84"/>
      <use x="1187.179688" xlink:href="#DejaVuSans-95"/>
      <use x="1237.179688" xlink:href="#DejaVuSans-82"/>
      <use x="1306.662109" xlink:href="#DejaVuSans-69"/>
      <use x="1369.845703" xlink:href="#DejaVuSans-74"/>
      <use x="1399.337891" xlink:href="#DejaVuSans-69"/>
      <use x="1462.521484" xlink:href="#DejaVuSans-67"/>
      <use x="1532.345703" xlink:href="#DejaVuSans-84"/>
      <use x="1593.429688" xlink:href="#DejaVuSans-73"/>
      <use x="1622.921875" xlink:href="#DejaVuSans-79"/>
      <use x="1701.632812" xlink:href="#DejaVuSans-78"/>
     </g>
    </g>
   </g>
   <g id="text_14">
    <g clip-path="url(#p37f11b3686)">
     <!-- HALLMARK_ANDROGEN_RESPONSE -->
     <g transform="translate(209.284589 56.103614)scale(0.05 -0.05)">
      <use xlink:href="#DejaVuSans-72"/>
      <use x="75.195312" xlink:href="#DejaVuSans-65"/>
      <use x="143.603516" xlink:href="#DejaVuSans-76"/>
      <use x="199.316406" xlink:href="#DejaVuSans-76"/>
      <use x="255.029297" xlink:href="#DejaVuSans-77"/>
      <use x="341.308594" xlink:href="#DejaVuSans-65"/>
      <use x="409.716797" xlink:href="#DejaVuSans-82"/>
      <use x="479.199219" xlink:href="#DejaVuSans-75"/>
      <use x="544.775391" xlink:href="#DejaVuSans-95"/>
      <use x="594.775391" xlink:href="#DejaVuSans-65"/>
      <use x="663.183594" xlink:href="#DejaVuSans-78"/>
      <use x="737.988281" xlink:href="#DejaVuSans-68"/>
      <use x="814.990234" xlink:href="#DejaVuSans-82"/>
      <use x="884.472656" xlink:href="#DejaVuSans-79"/>
      <use x="963.183594" xlink:href="#DejaVuSans-71"/>
      <use x="1040.673828" xlink:href="#DejaVuSans-69"/>
      <use x="1103.857422" xlink:href="#DejaVuSans-78"/>
      <use x="1178.662109" xlink:href="#DejaVuSans-95"/>
      <use x="1228.662109" xlink:href="#DejaVuSans-82"/>
      <use x="1298.144531" xlink:href="#DejaVuSans-69"/>
      <use x="1361.328125" xlink:href="#DejaVuSans-83"/>
      <use x="1424.804688" xlink:href="#DejaVuSans-80"/>
      <use x="1485.107422" xlink:href="#DejaVuSans-79"/>
      <use x="1563.818359" xlink:href="#DejaVuSans-78"/>
      <use x="1638.623047" xlink:href="#DejaVuSans-83"/>
      <use x="1702.099609" xlink:href="#DejaVuSans-69"/>
     </g>
    </g>
   </g>
   <g id="text_15">
    <g clip-path="url(#p37f11b3686)">
     <!-- HALLMARK_ANGIOGENESIS -->
     <g transform="translate(219.630286 61.040757)scale(0.05 -0.05)">
      <use xlink:href="#DejaVuSans-72"/>
      <use x="75.195312" xlink:href="#DejaVuSans-65"/>
      <use x="143.603516" xlink:href="#DejaVuSans-76"/>
      <use x="199.316406" xlink:href="#DejaVuSans-76"/>
      <use x="255.029297" xlink:href="#DejaVuSans-77"/>
      <use x="341.308594" xlink:href="#DejaVuSans-65"/>
      <use x="409.716797" xlink:href="#DejaVuSans-82"/>
      <use x="479.199219" xlink:href="#DejaVuSans-75"/>
      <use x="544.775391" xlink:href="#DejaVuSans-95"/>
      <use x="594.775391" xlink:href="#DejaVuSans-65"/>
      <use x="663.183594" xlink:href="#DejaVuSans-78"/>
      <use x="737.988281" xlink:href="#DejaVuSans-71"/>
      <use x="815.478516" xlink:href="#DejaVuSans-73"/>
      <use x="844.970703" xlink:href="#DejaVuSans-79"/>
      <use x="923.681641" xlink:href="#DejaVuSans-71"/>
      <use x="1001.171875" xlink:href="#DejaVuSans-69"/>
      <use x="1064.355469" xlink:href="#DejaVuSans-78"/>
      <use x="1139.160156" xlink:href="#DejaVuSans-69"/>
      <use x="1202.34375" xlink:href="#DejaVuSans-83"/>
      <use x="1265.820312" xlink:href="#DejaVuSans-73"/>
      <use x="1295.3125" xlink:href="#DejaVuSans-83"/>
     </g>
    </g>
   </g>
   <g id="text_16">
    <g clip-path="url(#p37f11b3686)">
     <!-- HALLMARK_APICAL_JUNCTION -->
     <defs>
      <path d="M 8.6875 72.90625
L 18.609375 72.90625
L 18.609375 28.609375
Q 18.609375 16.890625 22.84375 11.734375
Q 27.09375 6.59375 36.625 6.59375
Q 46.09375 6.59375 50.34375 11.734375
Q 54.59375 16.890625 54.59375 28.609375
L 54.59375 72.90625
L 64.5 72.90625
L 64.5 27.390625
Q 64.5 13.140625 57.4375 5.859375
Q 50.390625 -1.421875 36.625 -1.421875
Q 22.796875 -1.421875 15.734375 5.859375
Q 8.6875 13.140625 8.6875 27.390625
z
" id="DejaVuSans-85"/>
     </defs>
     <g transform="translate(205.028918 65.9779)scale(0.05 -0.05)">
      <use xlink:href="#DejaVuSans-72"/>
      <use x="75.195312" xlink:href="#DejaVuSans-65"/>
      <use x="143.603516" xlink:href="#DejaVuSans-76"/>
      <use x="199.316406" xlink:href="#DejaVuSans-76"/>
      <use x="255.029297" xlink:href="#DejaVuSans-77"/>
      <use x="341.308594" xlink:href="#DejaVuSans-65"/>
      <use x="409.716797" xlink:href="#DejaVuSans-82"/>
      <use x="479.199219" xlink:href="#DejaVuSans-75"/>
      <use x="544.775391" xlink:href="#DejaVuSans-95"/>
      <use x="594.775391" xlink:href="#DejaVuSans-65"/>
      <use x="663.183594" xlink:href="#DejaVuSans-80"/>
      <use x="723.486328" xlink:href="#DejaVuSans-73"/>
      <use x="752.978516" xlink:href="#DejaVuSans-67"/>
      <use x="822.802734" xlink:href="#DejaVuSans-65"/>
      <use x="891.210938" xlink:href="#DejaVuSans-76"/>
      <use x="946.923828" xlink:href="#DejaVuSans-95"/>
      <use x="996.923828" xlink:href="#DejaVuSans-74"/>
      <use x="1026.416016" xlink:href="#DejaVuSans-85"/>
      <use x="1099.609375" xlink:href="#DejaVuSans-78"/>
      <use x="1174.414062" xlink:href="#DejaVuSans-67"/>
      <use x="1244.238281" xlink:href="#DejaVuSans-84"/>
      <use x="1305.322266" xlink:href="#DejaVuSans-73"/>
      <use x="1334.814453" xlink:href="#DejaVuSans-79"/>
      <use x="1413.525391" xlink:href="#DejaVuSans-78"/>
     </g>
    </g>
   </g>
  </g>
  <g id="text_17">
   <!-- CAMERA pathway statistics vs ranking -->
   <defs>
    <path d="M 4.203125 54.6875
L 13.1875 54.6875
L 24.421875 12.015625
L 35.59375 54.6875
L 46.1875 54.6875
L 57.421875 12.015625
L 68.609375 54.6875
L 77.59375 54.6875
L 63.28125 0
L 52.6875 0
L 40.921875 44.828125
L 29.109375 0
L 18.5 0
z
" id="DejaVuSans-119"/>
    <path d="M 44.28125 53.078125
L 44.28125 44.578125
Q 40.484375 46.53125 36.375 47.5
Q 32.28125 48.484375 27.875 48.484375
Q 21.1875 48.484375 17.84375 46.4375
Q 14.5 44.390625 14.5 40.28125
Q 14.5 37.15625 16.890625 35.375
Q 19.28125 33.59375 26.515625 31.984375
L 29.59375 31.296875
Q 39.15625 29.25 43.1875 25.515625
Q 47.21875 21.78125 47.21875 15.09375
Q 47.21875 7.46875 41.1875 3.015625
Q 35.15625 -1.421875 24.609375 -1.421875
Q 20.21875 -1.421875 15.453125 -0.5625
Q 10.6875 0.296875 5.421875 2
L 5.421875 11.28125
Q 10.40625 8.6875 15.234375 7.390625
Q 20.0625 6.109375 24.8125 6.109375
Q 31.15625 6.109375 34.5625 8.28125
Q 37.984375 10.453125 37.984375 14.40625
Q 37.984375 18.0625 35.515625 20.015625
Q 33.0625 21.96875 24.703125 23.78125
L 21.578125 24.515625
Q 13.234375 26.265625 9.515625 29.90625
Q 5.8125 33.546875 5.8125 39.890625
Q 5.8125 47.609375 11.28125 51.796875
Q 16.75 56 26.8125 56
Q 31.78125 56 36.171875 55.265625
Q 40.578125 54.546875 44.28125 53.078125
z
" id="DejaVuSans-115"/>
    <path d="M 2.984375 54.6875
L 12.5 54.6875
L 29.59375 8.796875
L 46.6875 54.6875
L 56.203125 54.6875
L 35.6875 0
L 23.484375 0
z
" id="DejaVuSans-118"/>
   </defs>
   <g transform="translate(75.755 21.236671)scale(0.15 -0.15)">
    <use xlink:href="#DejaVuSans-67"/>
    <use x="69.824219" xlink:href="#DejaVuSans-65"/>
    <use x="138.232422" xlink:href="#DejaVuSans-77"/>
    <use x="224.511719" xlink:href="#DejaVuSans-69"/>
    <use x="287.695312" xlink:href="#DejaVuSans-82"/>
    <use x="357.115234" xlink:href="#DejaVuSans-65"/>
    <use x="425.523438" xlink:href="#DejaVuSans-32"/>
    <use x="457.310547" xlink:href="#DejaVuSans-112"/>
    <use x="520.787109" xlink:href="#DejaVuSans-97"/>
    <use x="582.066406" xlink:href="#DejaVuSans-116"/>
    <use x="621.275391" xlink:href="#DejaVuSans-104"/>
    <use x="684.654297" xlink:href="#DejaVuSans-119"/>
    <use x="766.441406" xlink:href="#DejaVuSans-97"/>
    <use x="827.720703" xlink:href="#DejaVuSans-121"/>
    <use x="886.900391" xlink:href="#DejaVuSans-32"/>
    <use x="918.6875" xlink:href="#DejaVuSans-115"/>
    <use x="970.787109" xlink:href="#DejaVuSans-116"/>
    <use x="1009.996094" xlink:href="#DejaVuSans-97"/>
    <use x="1071.275391" xlink:href="#DejaVuSans-116"/>
    <use x="1110.484375" xlink:href="#DejaVuSans-105"/>
    <use x="1138.267578" xlink:href="#DejaVuSans-115"/>
    <use x="1190.367188" xlink:href="#DejaVuSans-116"/>
    <use x="1229.576172" xlink:href="#DejaVuSans-105"/>
    <use x="1257.359375" xlink:href="#DejaVuSans-99"/>
    <use x="1312.339844" xlink:href="#DejaVuSans-115"/>
    <use x="1364.439453" xlink:href="#DejaVuSans-32"/>
    <use x="1396.226562" xlink:href="#DejaVuSans-118"/>
    <use x="1455.40625" xlink:href="#DejaVuSans-115"/>
    <use x="1507.505859" xlink:href="#DejaVuSans-32"/>
    <use x="1539.292969" xlink:href="#DejaVuSans-114"/>
    <use x="1580.40625" xlink:href="#DejaVuSans-97"/>
    <use x="1641.685547" xlink:href="#DejaVuSans-110"/>
    <use x="1705.064453" xlink:href="#DejaVuSans-107"/>
    <use x="1762.974609" xlink:href="#DejaVuSans-105"/>
    <use x="1790.757812" xlink:href="#DejaVuSans-110"/>
    <use x="1854.136719" xlink:href="#DejaVuSans-103"/>
   </g>
  </g>
 </g>
 <defs>
  <clipPath id="p37f11b3686">
   <rect height="266.112" width="357.12" x="46.772188" y="30.422391"/>
  </clipPath>
 </defs>
</svg>
