<?xml version="1.0" encoding="utf-8" standalone="no"?>
<!DOCTYPE svg PUBLIC "-//W3C//DTD SVG 1.1//EN"
  "http://www.w3.org/Graphics/SVG/1.1/DTD/svg11.dtd">
<!-- Created with matplotlib (https://matplotlib.org/) -->
<svg height="322.176313pt" version="1.1" viewBox="0 0 406.642188 322.176313" width="406.642188pt" xmlns="http://www.w3.org/2000/svg" xmlns:xlink="http://www.w3.org/1999/xlink">
 <defs>
  <style type="text/css">
*{stroke-linecap:butt;stroke-linejoin:round;}
  </style>
 </defs>
 <g id="figure_1">
  <g id="patch_1">
   <path d="M 0 322.176313
L 406.642188 322.176313
L 406.642188 0
L 0 0
z
" style="fill:#ffffff;stroke:#ffffff;stroke-linejoin:miter;"/>
  </g>
  <g id="axes_1">
   <g id="patch_2">
    <path d="M 46.772188 286.695376
L 403.892188 286.695376
L 403.892188 20.583376
L 46.772188 20.583376
z
" style="fill:none;"/>
   </g>
   <g id="matplotlib.axis_1">
    <g id="xtick_1">
     <g id="line2d_1">
      <path clip-path="url(#p834c5322e3)" d="M 63.004915 286.695376
L 63.004915 20.583376
" style="fill:none;stroke:#e5e5e5;stroke-width:0.8;"/>
     </g>
     <g id="line2d_2">
      <path d="M 63.004915 286.695376
" style="fill:none;stroke:#000000;stroke-width:1.5;"/>
      <defs>
       <path d="M 0 0
L 0 2.75
" id="m2c1d302186" style="stroke:#000000;"/>
      </defs>
      <g>
       <use style="stroke:#000000;" x="63.004915" xlink:href="#m2c1d302186" y="286.695376"/>
      </g>
     </g>
     <g id="text_1">
      <!-- 0 -->
      <defs>
       <path d="M 31.78125 66.40625
Q 24.171875 66.40625 20.328125 58.90625
Q 16.5 51.421875 16.5 36.375
Q 16.5 21.390625 20.328125 13.890625
Q 24.171875 6.390625 31.78125 6.390625
Q 39.453125 6.390625 43.28125 13.890625
Q 47.125 21.390625 47.125 36.375
Q 47.125 51.421875 43.28125 58.90625
Q 39.453125 66.40625 31.78125 66.40625
z
M 31.78125 74.21875
Q 44.046875 74.21875 50.515625 64.515625
Q 56.984375 54.828125 56.984375 36.375
Q 56.984375 17.96875 50.515625 8.265625
Q 44.046875 -1.421875 31.78125 -1.421875
Q 19.53125 -1.421875 13.0625 8.265625
Q 6.59375 17.96875 6.59375 36.375
Q 6.59375 54.828125 13.0625 64.515625
Q 19.53125 74.21875 31.78125 74.21875
z
" id="DejaVuSans-48"/>
      </defs>
      <g style="fill:#4d4d4d;" transform="translate(59.187415 300.763501)scale(0.12 -0.12)">
       <use xlink:href="#DejaVuSans-48"/>
      </g>
     </g>
    </g>
    <g id="xtick_2">
     <g id="line2d_3">
      <path clip-path="url(#p834c5322e3)" d="M 144.168551 286.695376
L 144.168551 20.583376
" style="fill:none;stroke:#e5e5e5;stroke-width:0.8;"/>
     </g>
     <g id="line2d_4">
      <path d="M 144.168551 286.695376
" style="fill:none;stroke:#000000;stroke-width:1.5;"/>
      <g>
       <use style="stroke:#000000;" x="144.168551" xlink:href="#m2c1d302186" y="286.695376"/>
      </g>
     </g>
     <g id="text_2">
      <!-- 25 -->
      <defs>
       <path d="M 19.1875 8.296875
L 53.609375 8.296875
L 53.609375 0
L 7.328125 0
L 7.328125 8.296875
Q 12.9375 14.109375 22.625 23.890625
Q 32.328125 33.6875 34.8125 36.53125
Q 39.546875 41.84375 41.421875 45.53125
Q 43.3125 49.21875 43.3125 52.78125
Q 43.3125 58.59375 39.234375 62.25
Q 35.15625 65.921875 28.609375 65.921875
Q 23.96875 65.921875 18.8125 64.3125
Q 13.671875 62.703125 7.8125 59.421875
L 7.8125 69.390625
Q 13.765625 71.78125 18.9375 73
Q 24.125 74.21875 28.421875 74.21875
Q 39.75 74.21875 46.484375 68.546875
Q 53.21875 62.890625 53.21875 53.421875
Q 53.21875 48.921875 51.53125 44.890625
Q 49.859375 40.875 45.40625 35.40625
Q 44.1875 33.984375 37.640625 27.21875
Q 31.109375 20.453125 19.1875 8.296875
z
" id="DejaVuSans-50"/>
       <path d="M 10.796875 72.90625
L 49.515625 72.90625
L 49.515625 64.59375
L 19.828125 64.59375
L 19.828125 46.734375
Q 21.96875 47.46875 24.109375 47.828125
Q 26.265625 48.1875 28.421875 48.1875
Q 40.625 48.1875 47.75 41.5
Q 54.890625 34.8125 54.890625 23.390625
Q 54.890625 11.625 47.5625 5.09375
Q 40.234375 -1.421875 26.90625 -1.421875
Q 22.3125 -1.421875 17.546875 -0.640625
Q 12.796875 0.140625 7.71875 1.703125
L 7.71875 11.625
Q 12.109375 9.234375 16.796875 8.0625
Q 21.484375 6.890625 26.703125 6.890625
Q 35.15625 6.890625 40.078125 11.328125
Q 45.015625 15.765625 45.015625 23.390625
Q 45.015625 31 40.078125 35.4375
Q 35.15625 39.890625 26.703125 39.890625
Q 22.75 39.890625 18.8125 39.015625
Q 14.890625 38.140625 10.796875 36.28125
z
" id="DejaVuSans-53"/>
      </defs>
      <g style="fill:#4d4d4d;" transform="translate(136.533551 300.763501)scale(0.12 -0.12)">
       <use xlink:href="#DejaVuSans-50"/>
       <use x="63.623047" xlink:href="#DejaVuSans-53"/>
      </g>
     </g>
    </g>
    <g id="xtick_3">
     <g id="line2d_5">
      <path clip-path="url(#p834c5322e3)" d="M 225.332188 286.695376
L 225.332188 20.583376
" style="fill:none;stroke:#e5e5e5;stroke-width:0.8;"/>
     </g>
     <g id="line2d_6">
      <path d="M 225.332188 286.695376
" style="fill:none;stroke:#000000;stroke-width:1.5;"/>
      <g>
       <use style="stroke:#000000;" x="225.332188" xlink:href="#m2c1d302186" y="286.695376"/>
      </g>
     </g>
     <g id="text_3">
      <!-- 50 -->
      <g style="fill:#4d4d4d;" transform="translate(217.697188 300.763501)scale(0.12 -0.12)">
       <use xlink:href="#DejaVuSans-53"/>
       <use x="63.623047" xlink:href="#DejaVuSans-48"/>
      </g>
     </g>
    </g>
    <g id="xtick_4">
     <g id="line2d_7">
      <path clip-path="url(#p834c5322e3)" d="M 306.495824 286.695376
L 306.495824 20.583376
" style="fill:none;stroke:#e5e5e5;stroke-width:0.8;"/>
     </g>
     <g id="line2d_8">
      <path d="M 306.495824 286.695376
" style="fill:none;stroke:#000000;stroke-width:1.5;"/>
      <g>
       <use style="stroke:#000000;" x="306.495824" xlink:href="#m2c1d302186" y="286.695376"/>
      </g>
     </g>
     <g id="text_4">
      <!-- 75 -->
      <defs>
       <path d="M 8.203125 72.90625
L 55.078125 72.90625
L 55.078125 68.703125
L 28.609375 0
L 18.3125 0
L 43.21875 64.59375
L 8.203125 64.59375
z
" id="DejaVuSans-55"/>
      </defs>
      <g style="fill:#4d4d4d;" transform="translate(298.860824 300.763501)scale(0.12 -0.12)">
       <use xlink:href="#DejaVuSans-55"/>
       <use x="63.623047" xlink:href="#DejaVuSans-53"/>
      </g>
     </g>
    </g>
    <g id="xtick_5">
     <g id="line2d_9">
      <path clip-path="url(#p834c5322e3)" d="M 387.65946 286.695376
L 387.65946 20.583376
" style="fill:none;stroke:#e5e5e5;stroke-width:0.8;"/>
     </g>
     <g id="line2d_10">
      <path d="M 387.65946 286.695376
" style="fill:none;stroke:#000000;stroke-width:1.5;"/>
      <g>
       <use style="stroke:#000000;" x="387.65946" xlink:href="#m2c1d302186" y="286.695376"/>
      </g>
     </g>
     <g id="text_5">
      <!-- 100 -->
      <defs>
       <path d="M 12.40625 8.296875
L 28.515625 8.296875
L 28.515625 63.921875
L 10.984375 60.40625
L 10.984375 69.390625
L 28.421875 72.90625
L 38.28125 72.90625
L 38.28125 8.296875
L 54.390625 8.296875
L 54.390625 0
L 12.40625 0
z
" id="DejaVuSans-49"/>
      </defs>
      <g style="fill:#4d4d4d;" transform="translate(376.20696 300.763501)scale(0.12 -0.12)">
       <use xlink:href="#DejaVuSans-49"/>
       <use x="63.623047" xlink:href="#DejaVuSans-48"/>
       <use x="127.246094" xlink:href="#DejaVuSans-48"/>
      </g>
     </g>
    </g>
    <g id="xtick_6">
     <g id="line2d_11">
      <path clip-path="url(#p834c5322e3)" d="M 103.586733 286.695376
L 103.586733 20.583376
" style="fill:none;stroke:#fafafa;"/>
     </g>
     <g id="line2d_12">
      <path d="M 103.586733 286.695376
" style="fill:none;stroke:#000000;stroke-width:1.5;"/>
     </g>
    </g>
    <g id="xtick_7">
     <g id="line2d_13">
      <path clip-path="url(#p834c5322e3)" d="M 184.750369 286.695376
L 184.750369 20.583376
" style="fill:none;stroke:#fafafa;"/>
     </g>
     <g id="line2d_14">
      <path d="M 184.750369 286.695376
" style="fill:none;stroke:#000000;stroke-width:1.5;"/>
     </g>
    </g>
    <g id="xtick_8">
     <g id="line2d_15">
      <path clip-path="url(#p834c5322e3)" d="M 265.914006 286.695376
L 265.914006 20.583376
" style="fill:none;stroke:#fafafa;"/>
     </g>
     <g id="line2d_16">
      <path d="M 265.914006 286.695376
" style="fill:none;stroke:#000000;stroke-width:1.5;"/>
     </g>
    </g>
    <g id="xtick_9">
     <g id="line2d_17">
      <path clip-path="url(#p834c5322e3)" d="M 347.077642 286.695376
L 347.077642 20.583376
" style="fill:none;stroke:#fafafa;"/>
     </g>
     <g id="line2d_18">
      <path d="M 347.077642 286.695376
" style="fill:none;stroke:#000000;stroke-width:1.5;"/>
     </g>
    </g>
    <g id="text_6">
     <!-- CAMERA pathway ranking -->
     <defs>
      <path d="M 64.40625 67.28125
L 64.40625 56.890625
Q 59.421875 61.53125 53.78125 63.8125
Q 48.140625 66.109375 41.796875 66.109375
Q 29.296875 66.109375 22.65625 58.46875
Q 16.015625 50.828125 16.015625 36.375
Q 16.015625 21.96875 22.65625 14.328125
Q 29.296875 6.6875 41.796875 6.6875
Q 48.140625 6.6875 53.78125 8.984375
Q 59.421875 11.28125 64.40625 15.921875
L 64.40625 5.609375
Q 59.234375 2.09375 53.4375 0.328125
Q 47.65625 -1.421875 41.21875 -1.421875
Q 24.65625 -1.421875 15.125 8.703125
Q 5.609375 18.84375 5.609375 36.375
Q 5.609375 53.953125 15.125 64.078125
Q 24.65625 74.21875 41.21875 74.21875
Q 47.75 74.21875 53.53125 72.484375
Q 59.328125 70.75 64.40625 67.28125
z
" id="DejaVuSans-67"/>
      <path d="M 34.1875 63.1875
L 20.796875 26.90625
L 47.609375 26.90625
z
M 28.609375 72.90625
L 39.796875 72.90625
L 67.578125 0
L 57.328125 0
L 50.6875 18.703125
L 17.828125 18.703125
L 11.1875 0
L 0.78125 0
z
" id="DejaVuSans-65"/>
      <path d="M 9.8125 72.90625
L 24.515625 72.90625
L 43.109375 23.296875
L 61.8125 72.90625
L 76.515625 72.90625
L 76.515625 0
L 66.890625 0
L 66.890625 64.015625
L 48.09375 14.015625
L 38.1875 14.015625
L 19.390625 64.015625
L 19.390625 0
L 9.8125 0
z
" id="DejaVuSans-77"/>
      <path d="M 9.8125 72.90625
L 55.90625 72.90625
L 55.90625 64.59375
L 19.671875 64.59375
L 19.671875 43.015625
L 54.390625 43.015625
L 54.390625 34.71875
L 19.671875 34.71875
L 19.671875 8.296875
L 56.78125 8.296875
L 56.78125 0
L 9.8125 0
z
" id="DejaVuSans-69"/>
      <path d="M 44.390625 34.1875
Q 47.5625 33.109375 50.5625 29.59375
Q 53.5625 26.078125 56.59375 19.921875
L 66.609375 0
L 56 0
L 46.6875 18.703125
Q 43.0625 26.03125 39.671875 28.421875
Q 36.28125 30.8125 30.421875 30.8125
L 19.671875 30.8125
L 19.671875 0
L 9.8125 0
L 9.8125 72.90625
L 32.078125 72.90625
Q 44.578125 72.90625 50.734375 67.671875
Q 56.890625 62.453125 56.890625 51.90625
Q 56.890625 45.015625 53.6875 40.46875
Q 50.484375 35.9375 44.390625 34.1875
z
M 19.671875 64.796875
L 19.671875 38.921875
L 32.078125 38.921875
Q 39.203125 38.921875 42.84375 42.21875
Q 46.484375 45.515625 46.484375 51.90625
Q 46.484375 58.296875 42.84375 61.546875
Q 39.203125 64.796875 32.078125 64.796875
z
" id="DejaVuSans-82"/>
      <path id="DejaVuSans-32"/>
      <path d="M 18.109375 8.203125
L 18.109375 -20.796875
L 9.078125 -20.796875
L 9.078125 54.6875
L 18.109375 54.6875
L 18.109375 46.390625
Q 20.953125 51.265625 25.265625 53.625
Q 29.59375 56 35.59375 56
Q 45.5625 56 51.78125 48.09375
Q 58.015625 40.1875 58.015625 27.296875
Q 58.015625 14.40625 51.78125 6.484375
Q 45.5625 -1.421875 35.59375 -1.421875
Q 29.59375 -1.421875 25.265625 0.953125
Q 20.953125 3.328125 18.109375 8.203125
z
M 48.6875 27.296875
Q 48.6875 37.203125 44.609375 42.84375
Q 40.53125 48.484375 33.40625 48.484375
Q 26.265625 48.484375 22.1875 42.84375
Q 18.109375 37.203125 18.109375 27.296875
Q 18.109375 17.390625 22.1875 11.75
Q 26.265625 6.109375 33.40625 6.109375
Q 40.53125 6.109375 44.609375 11.75
Q 48.6875 17.390625 48.6875 27.296875
z
" id="DejaVuSans-112"/>
      <path d="M 34.28125 27.484375
Q 23.390625 27.484375 19.1875 25
Q 14.984375 22.515625 14.984375 16.5
Q 14.984375 11.71875 18.140625 8.90625
Q 21.296875 6.109375 26.703125 6.109375
Q 34.1875 6.109375 38.703125 11.40625
Q 43.21875 16.703125 43.21875 25.484375
L 43.21875 27.484375
z
M 52.203125 31.203125
L 52.203125 0
L 43.21875 0
L 43.21875 8.296875
Q 40.140625 3.328125 35.546875 0.953125
Q 30.953125 -1.421875 24.3125 -1.421875
Q 15.921875 -1.421875 10.953125 3.296875
Q 6 8.015625 6 15.921875
Q 6 25.140625 12.171875 29.828125
Q 18.359375 34.515625 30.609375 34.515625
L 43.21875 34.515625
L 43.21875 35.40625
Q 43.21875 41.609375 39.140625 45
Q 35.0625 48.390625 27.6875 48.390625
Q 23 48.390625 18.546875 47.265625
Q 14.109375 46.140625 10.015625 43.890625
L 10.015625 52.203125
Q 14.9375 54.109375 19.578125 55.046875
Q 24.21875 56 28.609375 56
Q 40.484375 56 46.34375 49.84375
Q 52.203125 43.703125 52.203125 31.203125
z
" id="DejaVuSans-97"/>
      <path d="M 18.3125 70.21875
L 18.3125 54.6875
L 36.8125 54.6875
L 36.8125 47.703125
L 18.3125 47.703125
L 18.3125 18.015625
Q 18.3125 11.328125 20.140625 9.421875
Q 21.96875 7.515625 27.59375 7.515625
L 36.8125 7.515625
L 36.8125 0
L 27.59375 0
Q 17.1875 0 13.234375 3.875
Q 9.28125 7.765625 9.28125 18.015625
L 9.28125 47.703125
L 2.6875 47.703125
L 2.6875 54.6875
L 9.28125 54.6875
L 9.28125 70.21875
z
" id="DejaVuSans-116"/>
      <path d="M 54.890625 33.015625
L 54.890625 0
L 45.90625 0
L 45.90625 32.71875
Q 45.90625 40.484375 42.875 44.328125
Q 39.84375 48.1875 33.796875 48.1875
Q 26.515625 48.1875 22.3125 43.546875
Q 18.109375 38.921875 18.109375 30.90625
L 18.109375 0
L 9.078125 0
L 9.078125 75.984375
L 18.109375 75.984375
L 18.109375 46.1875
Q 21.34375 51.125 25.703125 53.5625
Q 30.078125 56 35.796875 56
Q 45.21875 56 50.046875 50.171875
Q 54.890625 44.34375 54.890625 33.015625
z
" id="DejaVuSans-104"/>
      <path d="M 4.203125 54.6875
L 13.1875 54.6875
L 24.421875 12.015625
L 35.59375 54.6875
L 46.1875 54.6875
L 57.421875 12.015625
L 68.609375 54.6875
L 77.59375 54.6875
L 63.28125 0
L 52.6875 0
L 40.921875 44.828125
L 29.109375 0
L 18.5 0
z
" id="DejaVuSans-119"/>
      <path d="M 32.171875 -5.078125
Q 28.375 -14.84375 24.75 -17.8125
Q 21.140625 -20.796875 15.09375 -20.796875
L 7.90625 -20.796875
L 7.90625 -13.28125
L 13.1875 -13.28125
Q 16.890625 -13.28125 18.9375 -11.515625
Q 21 -9.765625 23.484375 -3.21875
L 25.09375 0.875
L 2.984375 54.6875
L 12.5 54.6875
L 29.59375 11.921875
L 46.6875 54.6875
L 56.203125 54.6875
z
" id="DejaVuSans-121"/>
      <path d="M 41.109375 46.296875
Q 39.59375 47.171875 37.8125 47.578125
Q 36.03125 48 33.890625 48
Q 26.265625 48 22.1875 43.046875
Q 18.109375 38.09375 18.109375 28.8125
L 18.109375 0
L 9.078125 0
L 9.078125 54.6875
L 18.109375 54.6875
L 18.109375 46.1875
Q 20.953125 51.171875 25.484375 53.578125
Q 30.03125 56 36.53125 56
Q 37.453125 56 38.578125 55.875
Q 39.703125 55.765625 41.0625 55.515625
z
" id="DejaVuSans-114"/>
      <path d="M 54.890625 33.015625
L 54.890625 0
L 45.90625 0
L 45.90625 32.71875
Q 45.90625 40.484375 42.875 44.328125
Q 39.84375 48.1875 33.796875 48.1875
Q 26.515625 48.1875 22.3125 43.546875
Q 18.109375 38.921875 18.109375 30.90625
L 18.109375 0
L 9.078125 0
L 9.078125 54.6875
L 18.109375 54.6875
L 18.109375 46.1875
Q 21.34375 51.125 25.703125 53.5625
Q 30.078125 56 35.796875 56
Q 45.21875 56 50.046875 50.171875
Q 54.890625 44.34375 54.890625 33.015625
z
" id="DejaVuSans-110"/>
      <path d="M 9.078125 75.984375
L 18.109375 75.984375
L 18.109375 31.109375
L 44.921875 54.6875
L 56.390625 54.6875
L 27.390625 29.109375
L 57.625 0
L 45.90625 0
L 18.109375 26.703125
L 18.109375 0
L 9.078125 0
z
" id="DejaVuSans-107"/>
      <path d="M 9.421875 54.6875
L 18.40625 54.6875
L 18.40625 0
L 9.421875 0
z
M 9.421875 75.984375
L 18.40625 75.984375
L 18.40625 64.59375
L 9.421875 64.59375
z
" id="DejaVuSans-105"/>
      <path d="M 45.40625 27.984375
Q 45.40625 37.75 41.375 43.109375
Q 37.359375 48.484375 30.078125 48.484375
Q 22.859375 48.484375 18.828125 43.109375
Q 14.796875 37.75 14.796875 27.984375
Q 14.796875 18.265625 18.828125 12.890625
Q 22.859375 7.515625 30.078125 7.515625
Q 37.359375 7.515625 41.375 12.890625
Q 45.40625 18.265625 45.40625 27.984375
z
M 54.390625 6.78125
Q 54.390625 -7.171875 48.1875 -13.984375
Q 42 -20.796875 29.203125 -20.796875
Q 24.46875 -20.796875 20.265625 -20.09375
Q 16.0625 -19.390625 12.109375 -17.921875
L 12.109375 -9.1875
Q 16.0625 -11.328125 19.921875 -12.34375
Q 23.78125 -13.375 27.78125 -13.375
Q 36.625 -13.375 41.015625 -8.765625
Q 45.40625 -4.15625 45.40625 5.171875
L 45.40625 9.625
Q 42.625 4.78125 38.28125 2.390625
Q 33.9375 0 27.875 0
Q 17.828125 0 11.671875 7.65625
Q 5.515625 15.328125 5.515625 27.984375
Q 5.515625 40.671875 11.671875 48.328125
Q 17.828125 56 27.875 56
Q 33.9375 56 38.28125 53.609375
Q 42.625 51.21875 45.40625 46.390625
L 45.40625 54.6875
L 54.390625 54.6875
z
" id="DejaVuSans-103"/>
     </defs>
     <g transform="translate(122.297188 319.056782)scale(0.15 -0.15)">
      <use xlink:href="#DejaVuSans-67"/>
      <use x="69.824219" xlink:href="#DejaVuSans-65"/>
      <use x="138.232422" xlink:href="#DejaVuSans-77"/>
      <use x="224.511719" xlink:href="#DejaVuSans-69"/>
      <use x="287.695312" xlink:href="#DejaVuSans-82"/>
      <use x="357.115234" xlink:href="#DejaVuSans-65"/>
      <use x="425.523438" xlink:href="#DejaVuSans-32"/>
      <use x="457.310547" xlink:href="#DejaVuSans-112"/>
      <use x="520.787109" xlink:href="#DejaVuSans-97"/>
      <use x="582.066406" xlink:href="#DejaVuSans-116"/>
      <use x="621.275391" xlink:href="#DejaVuSans-104"/>
      <use x="684.654297" xlink:href="#DejaVuSans-119"/>
      <use x="766.441406" xlink:href="#DejaVuSans-97"/>
      <use x="827.720703" xlink:href="#DejaVuSans-121"/>
      <use x="886.900391" xlink:href="#DejaVuSans-32"/>
      <use x="918.6875" xlink:href="#DejaVuSans-114"/>
      <use x="959.800781" xlink:href="#DejaVuSans-97"/>
      <use x="1021.080078" xlink:href="#DejaVuSans-110"/>
      <use x="1084.458984" xlink:href="#DejaVuSans-107"/>
      <use x="1142.369141" xlink:href="#DejaVuSans-105"/>
      <use x="1170.152344" xlink:href="#DejaVuSans-110"/>
      <use x="1233.53125" xlink:href="#DejaVuSans-103"/>
     </g>
    </g>
   </g>
   <g id="matplotlib.axis_2">
    <g id="ytick_1">
     <g id="line2d_19">
      <path clip-path="url(#p834c5322e3)" d="M 46.772188 274.599376
L 403.892188 274.599376
" style="fill:none;stroke:#e5e5e5;stroke-width:0.8;"/>
     </g>
     <g id="line2d_20">
      <path d="M 46.772188 274.599376
" style="fill:none;stroke:#000000;stroke-width:1.5;"/>
      <defs>
       <path d="M 0 0
L -2.75 0
" id="mf1e4262baa" style="stroke:#000000;"/>
      </defs>
      <g>
       <use style="stroke:#000000;" x="46.772188" xlink:href="#mf1e4262baa" y="274.599376"/>
      </g>
     </g>
     <g id="text_7">
      <!-- 0 -->
      <g style="fill:#4d4d4d;" transform="translate(34.187188 277.910626)scale(0.12 -0.12)">
       <use xlink:href="#DejaVuSans-48"/>
      </g>
     </g>
    </g>
    <g id="ytick_2">
     <g id="line2d_21">
      <path clip-path="url(#p834c5322e3)" d="M 46.772188 214.119376
L 403.892188 214.119376
" style="fill:none;stroke:#e5e5e5;stroke-width:0.8;"/>
     </g>
     <g id="line2d_22">
      <path d="M 46.772188 214.119376
" style="fill:none;stroke:#000000;stroke-width:1.5;"/>
      <g>
       <use style="stroke:#000000;" x="46.772188" xlink:href="#mf1e4262baa" y="214.119376"/>
      </g>
     </g>
     <g id="text_8">
      <!-- 25 -->
      <g style="fill:#4d4d4d;" transform="translate(26.552188 217.430626)scale(0.12 -0.12)">
       <use xlink:href="#DejaVuSans-50"/>
       <use x="63.623047" xlink:href="#DejaVuSans-53"/>
      </g>
     </g>
    </g>
    <g id="ytick_3">
     <g id="line2d_23">
      <path clip-path="url(#p834c5322e3)" d="M 46.772188 153.639376
L 403.892188 153.639376
" style="fill:none;stroke:#e5e5e5;stroke-width:0.8;"/>
     </g>
     <g id="line2d_24">
      <path d="M 46.772188 153.639376
" style="fill:none;stroke:#000000;stroke-width:1.5;"/>
      <g>
       <use style="stroke:#000000;" x="46.772188" xlink:href="#mf1e4262baa" y="153.639376"/>
      </g>
     </g>
     <g id="text_9">
      <!-- 50 -->
      <g style="fill:#4d4d4d;" transform="translate(26.552188 156.950626)scale(0.12 -0.12)">
       <use xlink:href="#DejaVuSans-53"/>
       <use x="63.623047" xlink:href="#DejaVuSans-48"/>
      </g>
     </g>
    </g>
    <g id="ytick_4">
     <g id="line2d_25">
      <path clip-path="url(#p834c5322e3)" d="M 46.772188 93.159376
L 403.892188 93.159376
" style="fill:none;stroke:#e5e5e5;stroke-width:0.8;"/>
     </g>
     <g id="line2d_26">
      <path d="M 46.772188 93.159376
" style="fill:none;stroke:#000000;stroke-width:1.5;"/>
      <g>
       <use style="stroke:#000000;" x="46.772188" xlink:href="#mf1e4262baa" y="93.159376"/>
      </g>
     </g>
     <g id="text_10">
      <!-- 75 -->
      <g style="fill:#4d4d4d;" transform="translate(26.552188 96.470626)scale(0.12 -0.12)">
       <use xlink:href="#DejaVuSans-55"/>
       <use x="63.623047" xlink:href="#DejaVuSans-53"/>
      </g>
     </g>
    </g>
    <g id="ytick_5">
     <g id="line2d_27">
      <path clip-path="url(#p834c5322e3)" d="M 46.772188 32.679376
L 403.892188 32.679376
" style="fill:none;stroke:#e5e5e5;stroke-width:0.8;"/>
     </g>
     <g id="line2d_28">
      <path d="M 46.772188 32.679376
" style="fill:none;stroke:#000000;stroke-width:1.5;"/>
      <g>
       <use style="stroke:#000000;" x="46.772188" xlink:href="#mf1e4262baa" y="32.679376"/>
      </g>
     </g>
     <g id="text_11">
      <!-- 100 -->
      <g style="fill:#4d4d4d;" transform="translate(18.917188 35.990626)scale(0.12 -0.12)">
       <use xlink:href="#DejaVuSans-49"/>
       <use x="63.623047" xlink:href="#DejaVuSans-48"/>
       <use x="127.246094" xlink:href="#DejaVuSans-48"/>
      </g>
     </g>
    </g>
    <g id="ytick_6">
     <g id="line2d_29">
      <path clip-path="url(#p834c5322e3)" d="M 46.772188 244.359376
L 403.892188 244.359376
" style="fill:none;stroke:#fafafa;"/>
     </g>
     <g id="line2d_30">
      <path d="M 46.772188 244.359376
" style="fill:none;stroke:#000000;stroke-width:1.5;"/>
     </g>
    </g>
    <g id="ytick_7">
     <g id="line2d_31">
      <path clip-path="url(#p834c5322e3)" d="M 46.772188 183.879376
L 403.892188 183.879376
" style="fill:none;stroke:#fafafa;"/>
     </g>
     <g id="line2d_32">
      <path d="M 46.772188 183.879376
" style="fill:none;stroke:#000000;stroke-width:1.5;"/>
     </g>
    </g>
    <g id="ytick_8">
     <g id="line2d_33">
      <path clip-path="url(#p834c5322e3)" d="M 46.772188 123.399376
L 403.892188 123.399376
" style="fill:none;stroke:#fafafa;"/>
     </g>
     <g id="line2d_34">
      <path d="M 46.772188 123.399376
" style="fill:none;stroke:#000000;stroke-width:1.5;"/>
     </g>
    </g>
    <g id="ytick_9">
     <g id="line2d_35">
      <path clip-path="url(#p834c5322e3)" d="M 46.772188 62.919376
L 403.892188 62.919376
" style="fill:none;stroke:#fafafa;"/>
     </g>
     <g id="line2d_36">
      <path d="M 46.772188 62.919376
" style="fill:none;stroke:#000000;stroke-width:1.5;"/>
     </g>
    </g>
    <g id="text_12">
     <!-- ORA pathway ranking -->
     <defs>
      <path d="M 39.40625 66.21875
Q 28.65625 66.21875 22.328125 58.203125
Q 16.015625 50.203125 16.015625 36.375
Q 16.015625 22.609375 22.328125 14.59375
Q 28.65625 6.59375 39.40625 6.59375
Q 50.140625 6.59375 56.421875 14.59375
Q 62.703125 22.609375 62.703125 36.375
Q 62.703125 50.203125 56.421875 58.203125
Q 50.140625 66.21875 39.40625 66.21875
z
M 39.40625 74.21875
Q 54.734375 74.21875 63.90625 63.9375
Q 73.09375 53.65625 73.09375 36.375
Q 73.09375 19.140625 63.90625 8.859375
Q 54.734375 -1.421875 39.40625 -1.421875
Q 24.03125 -1.421875 14.8125 8.828125
Q 5.609375 19.09375 5.609375 36.375
Q 5.609375 53.65625 14.8125 63.9375
Q 24.03125 74.21875 39.40625 74.21875
z
" id="DejaVuSans-79"/>
     </defs>
     <g transform="translate(11.397656 233.512548)rotate(-90)scale(0.15 -0.15)">
      <use xlink:href="#DejaVuSans-79"/>
      <use x="78.710938" xlink:href="#DejaVuSans-82"/>
      <use x="148.130859" xlink:href="#DejaVuSans-65"/>
      <use x="216.539062" xlink:href="#DejaVuSans-32"/>
      <use x="248.326172" xlink:href="#DejaVuSans-112"/>
      <use x="311.802734" xlink:href="#DejaVuSans-97"/>
      <use x="373.082031" xlink:href="#DejaVuSans-116"/>
      <use x="412.291016" xlink:href="#DejaVuSans-104"/>
      <use x="475.669922" xlink:href="#DejaVuSans-119"/>
      <use x="557.457031" xlink:href="#DejaVuSans-97"/>
      <use x="618.736328" xlink:href="#DejaVuSans-121"/>
      <use x="677.916016" xlink:href="#DejaVuSans-32"/>
      <use x="709.703125" xlink:href="#DejaVuSans-114"/>
      <use x="750.816406" xlink:href="#DejaVuSans-97"/>
      <use x="812.095703" xlink:href="#DejaVuSans-110"/>
      <use x="875.474609" xlink:href="#DejaVuSans-107"/>
      <use x="933.384766" xlink:href="#DejaVuSans-105"/>
      <use x="961.167969" xlink:href="#DejaVuSans-110"/>
      <use x="1024.546875" xlink:href="#DejaVuSans-103"/>
     </g>
    </g>
   </g>
   <g id="PathCollection_1">
    <path clip-path="url(#p834c5322e3)" d="M 387.65946 207.25183
C 388.12952 207.25183 388.580392 207.065073 388.912774 206.73269
C 389.245157 206.400307 389.431914 205.949436 389.431914 205.479376
C 389.431914 205.009316 389.245157 204.558444 388.912774 204.226062
C 388.580392 203.893679 388.12952 203.706922 387.65946 203.706922
C 387.1894 203.706922 386.738529 203.893679 386.406146 204.226062
C 386.073763 204.558444 385.887006 205.009316 385.887006 205.479376
C 385.887006 205.949436 386.073763 206.400307 386.406146 206.73269
C 386.738529 207.065073 387.1894 207.25183 387.65946 207.25183
z
" style="stroke:#000000;stroke-width:0.886227;"/>
    <path clip-path="url(#p834c5322e3)" d="M 381.033857 49.263258
C 381.503918 49.263258 381.954789 49.076501 382.287171 48.744119
C 382.619554 48.411736 382.806311 47.960865 382.806311 47.490804
C 382.806311 47.020744 382.619554 46.569873 382.287171 46.23749
C 381.954789 45.905107 381.503918 45.718351 381.033857 45.718351
C 380.563797 45.718351 380.112926 45.905107 379.780543 46.23749
C 379.44816 46.569873 379.261403 47.020744 379.261403 47.490804
C 379.261403 47.960865 379.44816 48.411736 379.780543 48.744119
C 380.112926 49.076501 380.563797 49.263258 381.033857 49.263258
z
" style="stroke:#000000;stroke-width:0.886227;"/>
    <path clip-path="url(#p834c5322e3)" d="M 374.408254 239.343258
C 374.878315 239.343258 375.329186 239.156501 375.661568 238.824119
C 375.993951 238.491736 376.180708 238.040865 376.180708 237.570804
C 376.180708 237.100744 375.993951 236.649873 375.661568 236.31749
C 375.329186 235.985107 374.878315 235.798351 374.408254 235.798351
C 373.938194 235.798351 373.487323 235.985107 373.15494 236.31749
C 372.822557 236.649873 372.6358 237.100744 372.6358 237.570804
C 372.6358 238.040865 372.822557 238.491736 373.15494 238.824119
C 373.487323 239.156501 373.938194 239.343258 374.408254 239.343258
z
" style="stroke:#000000;stroke-width:0.886227;"/>
    <path clip-path="url(#p834c5322e3)" d="M 367.782651 118.383258
C 368.252712 118.383258 368.703583 118.196501 369.035965 117.864119
C 369.368348 117.531736 369.555105 117.080865 369.555105 116.610804
C 369.555105 116.140744 369.368348 115.689873 369.035965 115.35749
C 368.703583 115.025107 368.252712 114.838351 367.782651 114.838351
C 367.312591 114.838351 366.86172 115.025107 366.529337 115.35749
C 366.196954 115.689873 366.010197 116.140744 366.010197 116.610804
C 366.010197 117.080865 366.196954 117.531736 366.529337 117.864119
C 366.86172 118.196501 367.312591 118.383258 367.782651 118.383258
z
" style="stroke:#000000;stroke-width:0.886227;"/>
    <path clip-path="url(#p834c5322e3)" d="M 361.157048 59.137544
C 361.627109 59.137544 362.07798 58.950787 362.410362 58.618404
C 362.742745 58.286021 362.929502 57.83515 362.929502 57.36509
C 362.929502 56.89503 362.742745 56.444159 362.410362 56.111776
C 362.07798 55.779393 361.627109 55.592636 361.157048 55.592636
C 360.686988 55.592636 360.236117 55.779393 359.903734 56.111776
C 359.571351 56.444159 359.384595 56.89503 359.384595 57.36509
C 359.384595 57.83515 359.571351 58.286021 359.903734 58.618404
C 360.236117 58.950787 360.686988 59.137544 361.157048 59.137544
z
" style="stroke:#000000;stroke-width:0.886227;"/>
    <path clip-path="url(#p834c5322e3)" d="M 354.531445 98.634687
C 355.001506 98.634687 355.452377 98.44793 355.78476 98.115547
C 356.117142 97.783164 356.303899 97.332293 356.303899 96.862233
C 356.303899 96.392173 356.117142 95.941302 355.78476 95.608919
C 355.452377 95.276536 355.001506 95.089779 354.531445 95.089779
C 354.061385 95.089779 353.610514 95.276536 353.278131 95.608919
C 352.945748 95.941302 352.758992 96.392173 352.758992 96.862233
C 352.758992 97.332293 352.945748 97.783164 353.278131 98.115547
C 353.610514 98.44793 354.061385 98.634687 354.531445 98.634687
z
" style="stroke:#000000;stroke-width:0.886227;"/>
    <path clip-path="url(#p834c5322e3)" d="M 347.905842 150.474687
C 348.375903 150.474687 348.826774 150.28793 349.159157 149.955547
C 349.491539 149.623164 349.678296 149.172293 349.678296 148.702233
C 349.678296 148.232173 349.491539 147.781302 349.159157 147.448919
C 348.826774 147.116536 348.375903 146.929779 347.905842 146.929779
C 347.435782 146.929779 346.984911 147.116536 346.652528 147.448919
C 346.320145 147.781302 346.133389 148.232173 346.133389 148.702233
C 346.133389 149.172293 346.320145 149.623164 346.652528 149.955547
C 346.984911 150.28793 347.435782 150.474687 347.905842 150.474687
z
" style="stroke:#000000;stroke-width:0.886227;"/>
    <path clip-path="url(#p834c5322e3)" d="M 341.280239 133.194687
C 341.7503 133.194687 342.201171 133.00793 342.533554 132.675547
C 342.865936 132.343164 343.052693 131.892293 343.052693 131.422233
C 343.052693 130.952173 342.865936 130.501302 342.533554 130.168919
C 342.201171 129.836536 341.7503 129.649779 341.280239 129.649779
C 340.810179 129.649779 340.359308 129.836536 340.026925 130.168919
C 339.694543 130.501302 339.507786 130.952173 339.507786 131.422233
C 339.507786 131.892293 339.694543 132.343164 340.026925 132.675547
C 340.359308 133.00793 340.810179 133.194687 341.280239 133.194687
z
" style="stroke:#000000;stroke-width:0.886227;"/>
    <path clip-path="url(#p834c5322e3)" d="M 334.654636 207.25183
C 335.124697 207.25183 335.575568 207.065073 335.907951 206.73269
C 336.240333 206.400307 336.42709 205.949436 336.42709 205.479376
C 336.42709 205.009316 336.240333 204.558444 335.907951 204.226062
C 335.575568 203.893679 335.124697 203.706922 334.654636 203.706922
C 334.184576 203.706922 333.733705 203.893679 333.401322 204.226062
C 333.06894 204.558444 332.882183 205.009316 332.882183 205.479376
C 332.882183 205.949436 333.06894 206.400307 333.401322 206.73269
C 333.733705 207.065073 334.184576 207.25183 334.654636 207.25183
z
" style="stroke:#000000;stroke-width:0.886227;"/>
    <path clip-path="url(#p834c5322e3)" d="M 328.029034 44.326115
C 328.499094 44.326115 328.949965 44.139358 329.282348 43.806976
C 329.61473 43.474593 329.801487 43.023722 329.801487 42.553662
C 329.801487 42.083601 329.61473 41.63273 329.282348 41.300347
C 328.949965 40.967965 328.499094 40.781208 328.029034 40.781208
C 327.558973 40.781208 327.108102 40.967965 326.775719 41.300347
C 326.443337 41.63273 326.25658 42.083601 326.25658 42.553662
C 326.25658 43.023722 326.443337 43.474593 326.775719 43.806976
C 327.108102 44.139358 327.558973 44.326115 328.029034 44.326115
z
" style="stroke:#000000;stroke-width:0.886227;"/>
    <path clip-path="url(#p834c5322e3)" d="M 321.403431 93.697544
C 321.873491 93.697544 322.324362 93.510787 322.656745 93.178404
C 322.989127 92.846021 323.175884 92.39515 323.175884 91.92509
C 323.175884 91.45503 322.989127 91.004159 322.656745 90.671776
C 322.324362 90.339393 321.873491 90.152636 321.403431 90.152636
C 320.93337 90.152636 320.482499 90.339393 320.150116 90.671776
C 319.817734 91.004159 319.630977 91.45503 319.630977 91.92509
C 319.630977 92.39515 319.817734 92.846021 320.150116 93.178404
C 320.482499 93.510787 320.93337 93.697544 321.403431 93.697544
z
" style="stroke:#000000;stroke-width:0.886227;"/>
    <path clip-path="url(#p834c5322e3)" d="M 314.777828 207.25183
C 315.247888 207.25183 315.698759 207.065073 316.031142 206.73269
C 316.363525 206.400307 316.550281 205.949436 316.550281 205.479376
C 316.550281 205.009316 316.363525 204.558444 316.031142 204.226062
C 315.698759 203.893679 315.247888 203.706922 314.777828 203.706922
C 314.307767 203.706922 313.856896 203.893679 313.524513 204.226062
C 313.192131 204.558444 313.005374 205.009316 313.005374 205.479376
C 313.005374 205.949436 313.192131 206.400307 313.524513 206.73269
C 313.856896 207.065073 314.307767 207.25183 314.777828 207.25183
z
" style="stroke:#000000;stroke-width:0.886227;"/>
    <path clip-path="url(#p834c5322e3)" d="M 308.152225 271.434687
C 308.622285 271.434687 309.073156 271.24793 309.405539 270.915547
C 309.737922 270.583164 309.924678 270.132293 309.924678 269.662233
C 309.924678 269.192173 309.737922 268.741302 309.405539 268.408919
C 309.073156 268.076536 308.622285 267.889779 308.152225 267.889779
C 307.682164 267.889779 307.231293 268.076536 306.89891 268.408919
C 306.566528 268.741302 306.379771 269.192173 306.379771 269.662233
C 306.379771 270.132293 306.566528 270.583164 306.89891 270.915547
C 307.231293 271.24793 307.682164 271.434687 308.152225 271.434687
z
" style="stroke:#000000;stroke-width:0.886227;"/>
    <path clip-path="url(#p834c5322e3)" d="M 301.526622 64.074687
C 301.996682 64.074687 302.447553 63.88793 302.779936 63.555547
C 303.112319 63.223164 303.299075 62.772293 303.299075 62.302233
C 303.299075 61.832173 303.112319 61.381302 302.779936 61.048919
C 302.447553 60.716536 301.996682 60.529779 301.526622 60.529779
C 301.056561 60.529779 300.60569 60.716536 300.273307 61.048919
C 299.940925 61.381302 299.754168 61.832173 299.754168 62.302233
C 299.754168 62.772293 299.940925 63.223164 300.273307 63.555547
C 300.60569 63.88793 301.056561 64.074687 301.526622 64.074687
z
" style="stroke:#000000;stroke-width:0.886227;"/>
    <path clip-path="url(#p834c5322e3)" d="M 294.901019 108.508973
C 295.371079 108.508973 295.82195 108.322216 296.154333 107.989833
C 296.486716 107.65745 296.673473 107.206579 296.673473 106.736519
C 296.673473 106.266458 296.486716 105.815587 296.154333 105.483205
C 295.82195 105.150822 295.371079 104.964065 294.901019 104.964065
C 294.430958 104.964065 293.980087 105.150822 293.647705 105.483205
C 293.315322 105.815587 293.128565 106.266458 293.128565 106.736519
C 293.128565 107.206579 293.315322 107.65745 293.647705 107.989833
C 293.980087 108.322216 294.430958 108.508973 294.901019 108.508973
z
" style="stroke:#000000;stroke-width:0.886227;"/>
    <path clip-path="url(#p834c5322e3)" d="M 288.275416 73.948973
C 288.745476 73.948973 289.196347 73.762216 289.52873 73.429833
C 289.861113 73.09745 290.04787 72.646579 290.04787 72.176519
C 290.04787 71.706458 289.861113 71.255587 289.52873 70.923205
C 289.196347 70.590822 288.745476 70.404065 288.275416 70.404065
C 287.805355 70.404065 287.354484 70.590822 287.022102 70.923205
C 286.689719 71.255587 286.502962 71.706458 286.502962 72.176519
C 286.502962 72.646579 286.689719 73.09745 287.022102 73.429833
C 287.354484 73.762216 287.805355 73.948973 288.275416 73.948973
z
" style="stroke:#000000;stroke-width:0.886227;"/>
    <path clip-path="url(#p834c5322e3)" d="M 281.649813 207.25183
C 282.119873 207.25183 282.570744 207.065073 282.903127 206.73269
C 283.23551 206.400307 283.422267 205.949436 283.422267 205.479376
C 283.422267 205.009316 283.23551 204.558444 282.903127 204.226062
C 282.570744 203.893679 282.119873 203.706922 281.649813 203.706922
C 281.179752 203.706922 280.728881 203.893679 280.396499 204.226062
C 280.064116 204.558444 279.877359 205.009316 279.877359 205.479376
C 279.877359 205.949436 280.064116 206.400307 280.396499 206.73269
C 280.728881 207.065073 281.179752 207.25183 281.649813 207.25183
z
" style="stroke:#000000;stroke-width:0.886227;"/>
    <path clip-path="url(#p834c5322e3)" d="M 275.02421 239.343258
C 275.49427 239.343258 275.945141 239.156501 276.277524 238.824119
C 276.609907 238.491736 276.796664 238.040865 276.796664 237.570804
C 276.796664 237.100744 276.609907 236.649873 276.277524 236.31749
C 275.945141 235.985107 275.49427 235.798351 275.02421 235.798351
C 274.55415 235.798351 274.103278 235.985107 273.770896 236.31749
C 273.438513 236.649873 273.251756 237.100744 273.251756 237.570804
C 273.251756 238.040865 273.438513 238.491736 273.770896 238.824119
C 274.103278 239.156501 274.55415 239.343258 275.02421 239.343258
z
" style="stroke:#000000;stroke-width:0.886227;"/>
    <path clip-path="url(#p834c5322e3)" d="M 268.398607 180.097544
C 268.868667 180.097544 269.319538 179.910787 269.651921 179.578404
C 269.984304 179.246021 270.171061 178.79515 270.171061 178.32509
C 270.171061 177.85503 269.984304 177.404159 269.651921 177.071776
C 269.319538 176.739393 268.868667 176.552636 268.398607 176.552636
C 267.928547 176.552636 267.477675 176.739393 267.145293 177.071776
C 266.81291 177.404159 266.626153 177.85503 266.626153 178.32509
C 266.626153 178.79515 266.81291 179.246021 267.145293 179.578404
C 267.477675 179.910787 267.928547 180.097544 268.398607 180.097544
z
" style="stroke:#000000;stroke-width:0.886227;"/>
    <path clip-path="url(#p834c5322e3)" d="M 261.773004 128.257544
C 262.243064 128.257544 262.693935 128.070787 263.026318 127.738404
C 263.358701 127.406021 263.545458 126.95515 263.545458 126.48509
C 263.545458 126.01503 263.358701 125.564159 263.026318 125.231776
C 262.693935 124.899393 262.243064 124.712636 261.773004 124.712636
C 261.302944 124.712636 260.852072 124.899393 260.51969 125.231776
C 260.187307 125.564159 260.00055 126.01503 260.00055 126.48509
C 260.00055 126.95515 260.187307 127.406021 260.51969 127.738404
C 260.852072 128.070787 261.302944 128.257544 261.773004 128.257544
z
" style="stroke:#000000;stroke-width:0.886227;"/>
    <path clip-path="url(#p834c5322e3)" d="M 255.147401 256.623258
C 255.617461 256.623258 256.068332 256.436501 256.400715 256.104119
C 256.733098 255.771736 256.919855 255.320865 256.919855 254.850804
C 256.919855 254.380744 256.733098 253.929873 256.400715 253.59749
C 256.068332 253.265107 255.617461 253.078351 255.147401 253.078351
C 254.677341 253.078351 254.22647 253.265107 253.894087 253.59749
C 253.561704 253.929873 253.374947 254.380744 253.374947 254.850804
C 253.374947 255.320865 253.561704 255.771736 253.894087 256.104119
C 254.22647 256.436501 254.677341 256.623258 255.147401 256.623258
z
" style="stroke:#000000;stroke-width:0.886227;"/>
    <path clip-path="url(#p834c5322e3)" d="M 248.521798 138.13183
C 248.991858 138.13183 249.442729 137.945073 249.775112 137.61269
C 250.107495 137.280307 250.294252 136.829436 250.294252 136.359376
C 250.294252 135.889316 250.107495 135.438444 249.775112 135.106062
C 249.442729 134.773679 248.991858 134.586922 248.521798 134.586922
C 248.051738 134.586922 247.600867 134.773679 247.268484 135.106062
C 246.936101 135.438444 246.749344 135.889316 246.749344 136.359376
C 246.749344 136.829436 246.936101 137.280307 247.268484 137.61269
C 247.600867 137.945073 248.051738 138.13183 248.521798 138.13183
z
" style="stroke:#000000;stroke-width:0.886227;"/>
    <path clip-path="url(#p834c5322e3)" d="M 241.896195 78.886115
C 242.366255 78.886115 242.817126 78.699358 243.149509 78.366976
C 243.481892 78.034593 243.668649 77.583722 243.668649 77.113662
C 243.668649 76.643601 243.481892 76.19273 243.149509 75.860347
C 242.817126 75.527965 242.366255 75.341208 241.896195 75.341208
C 241.426135 75.341208 240.975264 75.527965 240.642881 75.860347
C 240.310498 76.19273 240.123741 76.643601 240.123741 77.113662
C 240.123741 77.583722 240.310498 78.034593 240.642881 78.366976
C 240.975264 78.699358 241.426135 78.886115 241.896195 78.886115
z
" style="stroke:#000000;stroke-width:0.886227;"/>
    <path clip-path="url(#p834c5322e3)" d="M 235.270592 103.57183
C 235.740652 103.57183 236.191523 103.385073 236.523906 103.05269
C 236.856289 102.720307 237.043046 102.269436 237.043046 101.799376
C 237.043046 101.329316 236.856289 100.878444 236.523906 100.546062
C 236.191523 100.213679 235.740652 100.026922 235.270592 100.026922
C 234.800532 100.026922 234.349661 100.213679 234.017278 100.546062
C 233.684895 100.878444 233.498138 101.329316 233.498138 101.799376
C 233.498138 102.269436 233.684895 102.720307 234.017278 103.05269
C 234.349661 103.385073 234.800532 103.57183 235.270592 103.57183
z
" style="stroke:#000000;stroke-width:0.886227;"/>
    <path clip-path="url(#p834c5322e3)" d="M 228.644989 69.01183
C 229.115049 69.01183 229.56592 68.825073 229.898303 68.49269
C 230.230686 68.160307 230.417443 67.709436 230.417443 67.239376
C 230.417443 66.769316 230.230686 66.318444 229.898303 65.986062
C 229.56592 65.653679 229.115049 65.466922 228.644989 65.466922
C 228.174929 65.466922 227.724058 65.653679 227.391675 65.986062
C 227.059292 66.318444 226.872535 66.769316 226.872535 67.239376
C 226.872535 67.709436 227.059292 68.160307 227.391675 68.49269
C 227.724058 68.825073 228.174929 69.01183 228.644989 69.01183
z
" style="stroke:#000000;stroke-width:0.886227;"/>
    <path clip-path="url(#p834c5322e3)" d="M 222.019386 170.223258
C 222.489446 170.223258 222.940317 170.036501 223.2727 169.704119
C 223.605083 169.371736 223.79184 168.920865 223.79184 168.450804
C 223.79184 167.980744 223.605083 167.529873 223.2727 167.19749
C 222.940317 166.865107 222.489446 166.678351 222.019386 166.678351
C 221.549326 166.678351 221.098455 166.865107 220.766072 167.19749
C 220.433689 167.529873 220.246932 167.980744 220.246932 168.450804
C 220.246932 168.920865 220.433689 169.371736 220.766072 169.704119
C 221.098455 170.036501 221.549326 170.223258 222.019386 170.223258
z
" style="stroke:#000000;stroke-width:0.886227;"/>
    <path clip-path="url(#p834c5322e3)" d="M 215.393783 150.474687
C 215.863843 150.474687 216.314714 150.28793 216.647097 149.955547
C 216.97948 149.623164 217.166237 149.172293 217.166237 148.702233
C 217.166237 148.232173 216.97948 147.781302 216.647097 147.448919
C 216.314714 147.116536 215.863843 146.929779 215.393783 146.929779
C 214.923723 146.929779 214.472852 147.116536 214.140469 147.448919
C 213.808086 147.781302 213.621329 148.232173 213.621329 148.702233
C 213.621329 149.172293 213.808086 149.623164 214.140469 149.955547
C 214.472852 150.28793 214.923723 150.474687 215.393783 150.474687
z
" style="stroke:#000000;stroke-width:0.886227;"/>
    <path clip-path="url(#p834c5322e3)" d="M 205.455379 39.388973
C 205.925439 39.388973 206.37631 39.202216 206.708693 38.869833
C 207.041076 38.53745 207.227832 38.086579 207.227832 37.616519
C 207.227832 37.146458 207.041076 36.695587 206.708693 36.363205
C 206.37631 36.030822 205.925439 35.844065 205.455379 35.844065
C 204.985318 35.844065 204.534447 36.030822 204.202064 36.363205
C 203.869682 36.695587 203.682925 37.146458 203.682925 37.616519
C 203.682925 38.086579 203.869682 38.53745 204.202064 38.869833
C 204.534447 39.202216 204.985318 39.388973 205.455379 39.388973
z
" style="stroke:#000000;stroke-width:0.886227;"/>
    <path clip-path="url(#p834c5322e3)" d="M 205.455379 54.200401
C 205.925439 54.200401 206.37631 54.013644 206.708693 53.681261
C 207.041076 53.348879 207.227832 52.898008 207.227832 52.427947
C 207.227832 51.957887 207.041076 51.507016 206.708693 51.174633
C 206.37631 50.84225 205.925439 50.655493 205.455379 50.655493
C 204.985318 50.655493 204.534447 50.84225 204.202064 51.174633
C 203.869682 51.507016 203.682925 51.957887 203.682925 52.427947
C 203.682925 52.898008 203.869682 53.348879 204.202064 53.681261
C 204.534447 54.013644 204.985318 54.200401 205.455379 54.200401
z
" style="stroke:#000000;stroke-width:0.886227;"/>
    <path clip-path="url(#p834c5322e3)" d="M 195.516974 256.623258
C 195.987034 256.623258 196.437905 256.436501 196.770288 256.104119
C 197.102671 255.771736 197.289428 255.320865 197.289428 254.850804
C 197.289428 254.380744 197.102671 253.929873 196.770288 253.59749
C 196.437905 253.265107 195.987034 253.078351 195.516974 253.078351
C 195.046914 253.078351 194.596043 253.265107 194.26366 253.59749
C 193.931277 253.929873 193.74452 254.380744 193.74452 254.850804
C 193.74452 255.320865 193.931277 255.771736 194.26366 256.104119
C 194.596043 256.436501 195.046914 256.623258 195.516974 256.623258
z
" style="stroke:#000000;stroke-width:0.886227;"/>
    <path clip-path="url(#p834c5322e3)" d="M 188.891371 207.25183
C 189.361431 207.25183 189.812303 207.065073 190.144685 206.73269
C 190.477068 206.400307 190.663825 205.949436 190.663825 205.479376
C 190.663825 205.009316 190.477068 204.558444 190.144685 204.226062
C 189.812303 203.893679 189.361431 203.706922 188.891371 203.706922
C 188.421311 203.706922 187.97044 203.893679 187.638057 204.226062
C 187.305674 204.558444 187.118917 205.009316 187.118917 205.479376
C 187.118917 205.949436 187.305674 206.400307 187.638057 206.73269
C 187.97044 207.065073 188.421311 207.25183 188.891371 207.25183
z
" style="stroke:#000000;stroke-width:0.886227;"/>
    <path clip-path="url(#p834c5322e3)" d="M 182.265768 276.37183
C 182.735828 276.37183 183.1867 276.185073 183.519082 275.85269
C 183.851465 275.520307 184.038222 275.069436 184.038222 274.599376
C 184.038222 274.129316 183.851465 273.678444 183.519082 273.346062
C 183.1867 273.013679 182.735828 272.826922 182.265768 272.826922
C 181.795708 272.826922 181.344837 273.013679 181.012454 273.346062
C 180.680071 273.678444 180.493314 274.129316 180.493314 274.599376
C 180.493314 275.069436 180.680071 275.520307 181.012454 275.85269
C 181.344837 276.185073 181.795708 276.37183 182.265768 276.37183
z
" style="stroke:#000000;stroke-width:0.886227;"/>
    <path clip-path="url(#p834c5322e3)" d="M 175.640165 207.25183
C 176.110225 207.25183 176.561097 207.065073 176.893479 206.73269
C 177.225862 206.400307 177.412619 205.949436 177.412619 205.479376
C 177.412619 205.009316 177.225862 204.558444 176.893479 204.226062
C 176.561097 203.893679 176.110225 203.706922 175.640165 203.706922
C 175.170105 203.706922 174.719234 203.893679 174.386851 204.226062
C 174.054468 204.558444 173.867711 205.009316 173.867711 205.479376
C 173.867711 205.949436 174.054468 206.400307 174.386851 206.73269
C 174.719234 207.065073 175.170105 207.25183 175.640165 207.25183
z
" style="stroke:#000000;stroke-width:0.886227;"/>
    <path clip-path="url(#p834c5322e3)" d="M 165.701761 34.45183
C 166.171821 34.45183 166.622692 34.265073 166.955075 33.93269
C 167.287458 33.600307 167.474215 33.149436 167.474215 32.679376
C 167.474215 32.209316 167.287458 31.758444 166.955075 31.426062
C 166.622692 31.093679 166.171821 30.906922 165.701761 30.906922
C 165.231701 30.906922 164.780829 31.093679 164.448447 31.426062
C 164.116064 31.758444 163.929307 32.209316 163.929307 32.679376
C 163.929307 33.149436 164.116064 33.600307 164.448447 33.93269
C 164.780829 34.265073 165.231701 34.45183 165.701761 34.45183
z
" style="stroke:#000000;stroke-width:0.886227;"/>
    <path clip-path="url(#p834c5322e3)" d="M 165.701761 207.25183
C 166.171821 207.25183 166.622692 207.065073 166.955075 206.73269
C 167.287458 206.400307 167.474215 205.949436 167.474215 205.479376
C 167.474215 205.009316 167.287458 204.558444 166.955075 204.226062
C 166.622692 203.893679 166.171821 203.706922 165.701761 203.706922
C 165.231701 203.706922 164.780829 203.893679 164.448447 204.226062
C 164.116064 204.558444 163.929307 205.009316 163.929307 205.479376
C 163.929307 205.949436 164.116064 206.400307 164.448447 206.73269
C 164.780829 207.065073 165.231701 207.25183 165.701761 207.25183
z
" style="stroke:#000000;stroke-width:0.886227;"/>
    <path clip-path="url(#p834c5322e3)" d="M 155.763356 256.623258
C 156.233417 256.623258 156.684288 256.436501 157.01667 256.104119
C 157.349053 255.771736 157.53581 255.320865 157.53581 254.850804
C 157.53581 254.380744 157.349053 253.929873 157.01667 253.59749
C 156.684288 253.265107 156.233417 253.078351 155.763356 253.078351
C 155.293296 253.078351 154.842425 253.265107 154.510042 253.59749
C 154.177659 253.929873 153.990902 254.380744 153.990902 254.850804
C 153.990902 255.320865 154.177659 255.771736 154.510042 256.104119
C 154.842425 256.436501 155.293296 256.623258 155.763356 256.623258
z
" style="stroke:#000000;stroke-width:0.886227;"/>
    <path clip-path="url(#p834c5322e3)" d="M 149.137753 207.25183
C 149.607814 207.25183 150.058685 207.065073 150.391068 206.73269
C 150.72345 206.400307 150.910207 205.949436 150.910207 205.479376
C 150.910207 205.009316 150.72345 204.558444 150.391068 204.226062
C 150.058685 203.893679 149.607814 203.706922 149.137753 203.706922
C 148.667693 203.706922 148.216822 203.893679 147.884439 204.226062
C 147.552056 204.558444 147.3653 205.009316 147.3653 205.479376
C 147.3653 205.949436 147.552056 206.400307 147.884439 206.73269
C 148.216822 207.065073 148.667693 207.25183 149.137753 207.25183
z
" style="stroke:#000000;stroke-width:0.886227;"/>
    <path clip-path="url(#p834c5322e3)" d="M 135.886547 180.097544
C 136.356608 180.097544 136.807479 179.910787 137.139862 179.578404
C 137.472244 179.246021 137.659001 178.79515 137.659001 178.32509
C 137.659001 177.85503 137.472244 177.404159 137.139862 177.071776
C 136.807479 176.739393 136.356608 176.552636 135.886547 176.552636
C 135.416487 176.552636 134.965616 176.739393 134.633233 177.071776
C 134.30085 177.404159 134.114094 177.85503 134.114094 178.32509
C 134.114094 178.79515 134.30085 179.246021 134.633233 179.578404
C 134.965616 179.910787 135.416487 180.097544 135.886547 180.097544
z
" style="stroke:#000000;stroke-width:0.886227;"/>
    <path clip-path="url(#p834c5322e3)" d="M 142.51215 88.760401
C 142.982211 88.760401 143.433082 88.573644 143.765465 88.241261
C 144.097847 87.908879 144.284604 87.458008 144.284604 86.987947
C 144.284604 86.517887 144.097847 86.067016 143.765465 85.734633
C 143.433082 85.40225 142.982211 85.215493 142.51215 85.215493
C 142.04209 85.215493 141.591219 85.40225 141.258836 85.734633
C 140.926453 86.067016 140.739697 86.517887 140.739697 86.987947
C 140.739697 87.458008 140.926453 87.908879 141.258836 88.241261
C 141.591219 88.573644 142.04209 88.760401 142.51215 88.760401
z
" style="stroke:#000000;stroke-width:0.886227;"/>
    <path clip-path="url(#p834c5322e3)" d="M 129.260944 207.25183
C 129.731005 207.25183 130.181876 207.065073 130.514259 206.73269
C 130.846641 206.400307 131.033398 205.949436 131.033398 205.479376
C 131.033398 205.009316 130.846641 204.558444 130.514259 204.226062
C 130.181876 203.893679 129.731005 203.706922 129.260944 203.706922
C 128.790884 203.706922 128.340013 203.893679 128.00763 204.226062
C 127.675248 204.558444 127.488491 205.009316 127.488491 205.479376
C 127.488491 205.949436 127.675248 206.400307 128.00763 206.73269
C 128.340013 207.065073 128.790884 207.25183 129.260944 207.25183
z
" style="stroke:#000000;stroke-width:0.886227;"/>
    <path clip-path="url(#p834c5322e3)" d="M 122.635341 266.497544
C 123.105402 266.497544 123.556273 266.310787 123.888656 265.978404
C 124.221038 265.646021 124.407795 265.19515 124.407795 264.72509
C 124.407795 264.25503 124.221038 263.804159 123.888656 263.471776
C 123.556273 263.139393 123.105402 262.952636 122.635341 262.952636
C 122.165281 262.952636 121.71441 263.139393 121.382027 263.471776
C 121.049645 263.804159 120.862888 264.25503 120.862888 264.72509
C 120.862888 265.19515 121.049645 265.646021 121.382027 265.978404
C 121.71441 266.310787 122.165281 266.497544 122.635341 266.497544
z
" style="stroke:#000000;stroke-width:0.886227;"/>
    <path clip-path="url(#p834c5322e3)" d="M 116.009739 239.343258
C 116.479799 239.343258 116.93067 239.156501 117.263053 238.824119
C 117.595435 238.491736 117.782192 238.040865 117.782192 237.570804
C 117.782192 237.100744 117.595435 236.649873 117.263053 236.31749
C 116.93067 235.985107 116.479799 235.798351 116.009739 235.798351
C 115.539678 235.798351 115.088807 235.985107 114.756424 236.31749
C 114.424042 236.649873 114.237285 237.100744 114.237285 237.570804
C 114.237285 238.040865 114.424042 238.491736 114.756424 238.824119
C 115.088807 239.156501 115.539678 239.343258 116.009739 239.343258
z
" style="stroke:#000000;stroke-width:0.886227;"/>
    <path clip-path="url(#p834c5322e3)" d="M 109.384136 83.823258
C 109.854196 83.823258 110.305067 83.636501 110.63745 83.304119
C 110.969832 82.971736 111.156589 82.520865 111.156589 82.050804
C 111.156589 81.580744 110.969832 81.129873 110.63745 80.79749
C 110.305067 80.465107 109.854196 80.278351 109.384136 80.278351
C 108.914075 80.278351 108.463204 80.465107 108.130821 80.79749
C 107.798439 81.129873 107.611682 81.580744 107.611682 82.050804
C 107.611682 82.520865 107.798439 82.971736 108.130821 83.304119
C 108.463204 83.636501 108.914075 83.823258 109.384136 83.823258
z
" style="stroke:#000000;stroke-width:0.886227;"/>
    <path clip-path="url(#p834c5322e3)" d="M 102.758533 162.817544
C 103.228593 162.817544 103.679464 162.630787 104.011847 162.298404
C 104.34423 161.966021 104.530986 161.51515 104.530986 161.04509
C 104.530986 160.57503 104.34423 160.124159 104.011847 159.791776
C 103.679464 159.459393 103.228593 159.272636 102.758533 159.272636
C 102.288472 159.272636 101.837601 159.459393 101.505218 159.791776
C 101.172836 160.124159 100.986079 160.57503 100.986079 161.04509
C 100.986079 161.51515 101.172836 161.966021 101.505218 162.298404
C 101.837601 162.630787 102.288472 162.817544 102.758533 162.817544
z
" style="stroke:#000000;stroke-width:0.886227;"/>
    <path clip-path="url(#p834c5322e3)" d="M 96.13293 123.320401
C 96.60299 123.320401 97.053861 123.133644 97.386244 122.801261
C 97.718627 122.468879 97.905383 122.018008 97.905383 121.547947
C 97.905383 121.077887 97.718627 120.627016 97.386244 120.294633
C 97.053861 119.96225 96.60299 119.775493 96.13293 119.775493
C 95.662869 119.775493 95.211998 119.96225 94.879615 120.294633
C 94.547233 120.627016 94.360476 121.077887 94.360476 121.547947
C 94.360476 122.018008 94.547233 122.468879 94.879615 122.801261
C 95.211998 123.133644 95.662869 123.320401 96.13293 123.320401
z
" style="stroke:#000000;stroke-width:0.886227;"/>
    <path clip-path="url(#p834c5322e3)" d="M 89.507327 239.343258
C 89.977387 239.343258 90.428258 239.156501 90.760641 238.824119
C 91.093024 238.491736 91.27978 238.040865 91.27978 237.570804
C 91.27978 237.100744 91.093024 236.649873 90.760641 236.31749
C 90.428258 235.985107 89.977387 235.798351 89.507327 235.798351
C 89.037266 235.798351 88.586395 235.985107 88.254013 236.31749
C 87.92163 236.649873 87.734873 237.100744 87.734873 237.570804
C 87.734873 238.040865 87.92163 238.491736 88.254013 238.824119
C 88.586395 239.156501 89.037266 239.343258 89.507327 239.343258
z
" style="stroke:#000000;stroke-width:0.886227;"/>
    <path clip-path="url(#p834c5322e3)" d="M 82.881724 157.880401
C 83.351784 157.880401 83.802655 157.693644 84.135038 157.361261
C 84.467421 157.028879 84.654178 156.578008 84.654178 156.107947
C 84.654178 155.637887 84.467421 155.187016 84.135038 154.854633
C 83.802655 154.52225 83.351784 154.335493 82.881724 154.335493
C 82.411663 154.335493 81.960792 154.52225 81.62841 154.854633
C 81.296027 155.187016 81.10927 155.637887 81.10927 156.107947
C 81.10927 156.578008 81.296027 157.028879 81.62841 157.361261
C 81.960792 157.693644 82.411663 157.880401 82.881724 157.880401
z
" style="stroke:#000000;stroke-width:0.886227;"/>
    <path clip-path="url(#p834c5322e3)" d="M 76.256121 170.223258
C 76.726181 170.223258 77.177052 170.036501 77.509435 169.704119
C 77.841818 169.371736 78.028575 168.920865 78.028575 168.450804
C 78.028575 167.980744 77.841818 167.529873 77.509435 167.19749
C 77.177052 166.865107 76.726181 166.678351 76.256121 166.678351
C 75.78606 166.678351 75.335189 166.865107 75.002807 167.19749
C 74.670424 167.529873 74.483667 167.980744 74.483667 168.450804
C 74.483667 168.920865 74.670424 169.371736 75.002807 169.704119
C 75.335189 170.036501 75.78606 170.223258 76.256121 170.223258
z
" style="stroke:#000000;stroke-width:0.886227;"/>
    <path clip-path="url(#p834c5322e3)" d="M 69.630518 143.068973
C 70.100578 143.068973 70.551449 142.882216 70.883832 142.549833
C 71.216215 142.21745 71.402972 141.766579 71.402972 141.296519
C 71.402972 140.826458 71.216215 140.375587 70.883832 140.043205
C 70.551449 139.710822 70.100578 139.524065 69.630518 139.524065
C 69.160457 139.524065 68.709586 139.710822 68.377204 140.043205
C 68.044821 140.375587 67.858064 140.826458 67.858064 141.296519
C 67.858064 141.766579 68.044821 142.21745 68.377204 142.549833
C 68.709586 142.882216 69.160457 143.068973 69.630518 143.068973
z
" style="stroke:#000000;stroke-width:0.886227;"/>
    <path clip-path="url(#p834c5322e3)" d="M 63.004915 113.446115
C 63.474975 113.446115 63.925846 113.259358 64.258229 112.926976
C 64.590612 112.594593 64.777369 112.143722 64.777369 111.673662
C 64.777369 111.203601 64.590612 110.75273 64.258229 110.420347
C 63.925846 110.087965 63.474975 109.901208 63.004915 109.901208
C 62.534855 109.901208 62.083983 110.087965 61.751601 110.420347
C 61.419218 110.75273 61.232461 111.203601 61.232461 111.673662
C 61.232461 112.143722 61.419218 112.594593 61.751601 112.926976
C 62.083983 113.259358 62.534855 113.446115 63.004915 113.446115
z
" style="stroke:#000000;stroke-width:0.886227;"/>
   </g>
  </g>
  <g id="text_13">
   <!-- CAMERA vs ORA pathway ranking -->
   <defs>
    <path d="M 2.984375 54.6875
L 12.5 54.6875
L 29.59375 8.796875
L 46.6875 54.6875
L 56.203125 54.6875
L 35.6875 0
L 23.484375 0
z
" id="DejaVuSans-118"/>
    <path d="M 44.28125 53.078125
L 44.28125 44.578125
Q 40.484375 46.53125 36.375 47.5
Q 32.28125 48.484375 27.875 48.484375
Q 21.1875 48.484375 17.84375 46.4375
Q 14.5 44.390625 14.5 40.28125
Q 14.5 37.15625 16.890625 35.375
Q 19.28125 33.59375 26.515625 31.984375
L 29.59375 31.296875
Q 39.15625 29.25 43.1875 25.515625
Q 47.21875 21.78125 47.21875 15.09375
Q 47.21875 7.46875 41.1875 3.015625
Q 35.15625 -1.421875 24.609375 -1.421875
Q 20.21875 -1.421875 15.453125 -0.5625
Q 10.6875 0.296875 5.421875 2
L 5.421875 11.28125
Q 10.40625 8.6875 15.234375 7.390625
Q 20.0625 6.109375 24.8125 6.109375
Q 31.15625 6.109375 34.5625 8.28125
Q 37.984375 10.453125 37.984375 14.40625
Q 37.984375 18.0625 35.515625 20.015625
Q 33.0625 21.96875 24.703125 23.78125
L 21.578125 24.515625
Q 13.234375 26.265625 9.515625 29.90625
Q 5.8125 33.546875 5.8125 39.890625
Q 5.8125 47.609375 11.28125 51.796875
Q 16.75 56 26.8125 56
Q 31.78125 56 36.171875 55.265625
Q 40.578125 54.546875 44.28125 53.078125
z
" id="DejaVuSans-115"/>
   </defs>
   <g transform="translate(92.942891 11.397656)scale(0.15 -0.15)">
    <use xlink:href="#DejaVuSans-67"/>
    <use x="69.824219" xlink:href="#DejaVuSans-65"/>
    <use x="138.232422" xlink:href="#DejaVuSans-77"/>
    <use x="224.511719" xlink:href="#DejaVuSans-69"/>
    <use x="287.695312" xlink:href="#DejaVuSans-82"/>
    <use x="357.115234" xlink:href="#DejaVuSans-65"/>
    <use x="425.523438" xlink:href="#DejaVuSans-32"/>
    <use x="457.310547" xlink:href="#DejaVuSans-118"/>
    <use x="516.490234" xlink:href="#DejaVuSans-115"/>
    <use x="568.589844" xlink:href="#DejaVuSans-32"/>
    <use x="600.376953" xlink:href="#DejaVuSans-79"/>
    <use x="679.087891" xlink:href="#DejaVuSans-82"/>
    <use x="748.507812" xlink:href="#DejaVuSans-65"/>
    <use x="816.916016" xlink:href="#DejaVuSans-32"/>
    <use x="848.703125" xlink:href="#DejaVuSans-112"/>
    <use x="912.179688" xlink:href="#DejaVuSans-97"/>
    <use x="973.458984" xlink:href="#DejaVuSans-116"/>
    <use x="1012.667969" xlink:href="#DejaVuSans-104"/>
    <use x="1076.046875" xlink:href="#DejaVuSans-119"/>
    <use x="1157.833984" xlink:href="#DejaVuSans-97"/>
    <use x="1219.113281" xlink:href="#DejaVuSans-121"/>
    <use x="1278.292969" xlink:href="#DejaVuSans-32"/>
    <use x="1310.080078" xlink:href="#DejaVuSans-114"/>
    <use x="1351.193359" xlink:href="#DejaVuSans-97"/>
    <use x="1412.472656" xlink:href="#DejaVuSans-110"/>
    <use x="1475.851562" xlink:href="#DejaVuSans-107"/>
    <use x="1533.761719" xlink:href="#DejaVuSans-105"/>
    <use x="1561.544922" xlink:href="#DejaVuSans-110"/>
    <use x="1624.923828" xlink:href="#DejaVuSans-103"/>
   </g>
  </g>
 </g>
 <defs>
  <clipPath id="p834c5322e3">
   <rect height="266.112" width="357.12" x="46.772188" y="20.583376"/>
  </clipPath>
 </defs>
</svg>
