<?xml version="1.0" encoding="utf-8" standalone="no"?>
<!DOCTYPE svg PUBLIC "-//W3C//DTD SVG 1.1//EN"
  "http://www.w3.org/Graphics/SVG/1.1/DTD/svg11.dtd">
<!-- Created with matplotlib (https://matplotlib.org/) -->
<svg height="322.19272pt" version="1.1" viewBox="0 0 406.642188 322.19272" width="406.642188pt" xmlns="http://www.w3.org/2000/svg" xmlns:xlink="http://www.w3.org/1999/xlink">
 <defs>
  <style type="text/css">
*{stroke-linecap:butt;stroke-linejoin:round;}
  </style>
 </defs>
 <g id="figure_1">
  <g id="patch_1">
   <path d="M 0 322.19272
L 406.642188 322.19272
L 406.642188 0
L 0 0
z
" style="fill:#ffffff;stroke:#ffffff;stroke-linejoin:miter;"/>
  </g>
  <g id="axes_1">
   <g id="patch_2">
    <path d="M 46.772188 286.711782
L 403.892188 286.711782
L 403.892188 20.599782
L 46.772188 20.599782
z
" style="fill:none;"/>
   </g>
   <g id="matplotlib.axis_1">
    <g id="xtick_1">
     <g id="line2d_1">
      <path clip-path="url(#p076334c4db)" d="M 63.004915 286.711782
L 63.004915 20.599782
" style="fill:none;stroke:#e5e5e5;stroke-width:0.8;"/>
     </g>
     <g id="line2d_2">
      <path d="M 63.004915 286.711782
" style="fill:none;stroke:#000000;stroke-width:1.5;"/>
      <defs>
       <path d="M 0 0
L 0 2.75
" id="m7735b4f979" style="stroke:#000000;"/>
      </defs>
      <g>
       <use style="stroke:#000000;" x="63.004915" xlink:href="#m7735b4f979" y="286.711782"/>
      </g>
     </g>
     <g id="text_1">
      <!-- 0 -->
      <defs>
       <path d="M 31.78125 66.40625
Q 24.171875 66.40625 20.328125 58.90625
Q 16.5 51.421875 16.5 36.375
Q 16.5 21.390625 20.328125 13.890625
Q 24.171875 6.390625 31.78125 6.390625
Q 39.453125 6.390625 43.28125 13.890625
Q 47.125 21.390625 47.125 36.375
Q 47.125 51.421875 43.28125 58.90625
Q 39.453125 66.40625 31.78125 66.40625
z
M 31.78125 74.21875
Q 44.046875 74.21875 50.515625 64.515625
Q 56.984375 54.828125 56.984375 36.375
Q 56.984375 17.96875 50.515625 8.265625
Q 44.046875 -1.421875 31.78125 -1.421875
Q 19.53125 -1.421875 13.0625 8.265625
Q 6.59375 17.96875 6.59375 36.375
Q 6.59375 54.828125 13.0625 64.515625
Q 19.53125 74.21875 31.78125 74.21875
z
" id="DejaVuSans-48"/>
      </defs>
      <g style="fill:#4d4d4d;" transform="translate(59.187415 300.779907)scale(0.12 -0.12)">
       <use xlink:href="#DejaVuSans-48"/>
      </g>
     </g>
    </g>
    <g id="xtick_2">
     <g id="line2d_3">
      <path clip-path="url(#p076334c4db)" d="M 144.168551 286.711782
L 144.168551 20.599782
" style="fill:none;stroke:#e5e5e5;stroke-width:0.8;"/>
     </g>
     <g id="line2d_4">
      <path d="M 144.168551 286.711782
" style="fill:none;stroke:#000000;stroke-width:1.5;"/>
      <g>
       <use style="stroke:#000000;" x="144.168551" xlink:href="#m7735b4f979" y="286.711782"/>
      </g>
     </g>
     <g id="text_2">
      <!-- 25 -->
      <defs>
       <path d="M 19.1875 8.296875
L 53.609375 8.296875
L 53.609375 0
L 7.328125 0
L 7.328125 8.296875
Q 12.9375 14.109375 22.625 23.890625
Q 32.328125 33.6875 34.8125 36.53125
Q 39.546875 41.84375 41.421875 45.53125
Q 43.3125 49.21875 43.3125 52.78125
Q 43.3125 58.59375 39.234375 62.25
Q 35.15625 65.921875 28.609375 65.921875
Q 23.96875 65.921875 18.8125 64.3125
Q 13.671875 62.703125 7.8125 59.421875
L 7.8125 69.390625
Q 13.765625 71.78125 18.9375 73
Q 24.125 74.21875 28.421875 74.21875
Q 39.75 74.21875 46.484375 68.546875
Q 53.21875 62.890625 53.21875 53.421875
Q 53.21875 48.921875 51.53125 44.890625
Q 49.859375 40.875 45.40625 35.40625
Q 44.1875 33.984375 37.640625 27.21875
Q 31.109375 20.453125 19.1875 8.296875
z
" id="DejaVuSans-50"/>
       <path d="M 10.796875 72.90625
L 49.515625 72.90625
L 49.515625 64.59375
L 19.828125 64.59375
L 19.828125 46.734375
Q 21.96875 47.46875 24.109375 47.828125
Q 26.265625 48.1875 28.421875 48.1875
Q 40.625 48.1875 47.75 41.5
Q 54.890625 34.8125 54.890625 23.390625
Q 54.890625 11.625 47.5625 5.09375
Q 40.234375 -1.421875 26.90625 -1.421875
Q 22.3125 -1.421875 17.546875 -0.640625
Q 12.796875 0.140625 7.71875 1.703125
L 7.71875 11.625
Q 12.109375 9.234375 16.796875 8.0625
Q 21.484375 6.890625 26.703125 6.890625
Q 35.15625 6.890625 40.078125 11.328125
Q 45.015625 15.765625 45.015625 23.390625
Q 45.015625 31 40.078125 35.4375
Q 35.15625 39.890625 26.703125 39.890625
Q 22.75 39.890625 18.8125 39.015625
Q 14.890625 38.140625 10.796875 36.28125
z
" id="DejaVuSans-53"/>
      </defs>
      <g style="fill:#4d4d4d;" transform="translate(136.533551 300.779907)scale(0.12 -0.12)">
       <use xlink:href="#DejaVuSans-50"/>
       <use x="63.623047" xlink:href="#DejaVuSans-53"/>
      </g>
     </g>
    </g>
    <g id="xtick_3">
     <g id="line2d_5">
      <path clip-path="url(#p076334c4db)" d="M 225.332188 286.711782
L 225.332188 20.599782
" style="fill:none;stroke:#e5e5e5;stroke-width:0.8;"/>
     </g>
     <g id="line2d_6">
      <path d="M 225.332188 286.711782
" style="fill:none;stroke:#000000;stroke-width:1.5;"/>
      <g>
       <use style="stroke:#000000;" x="225.332188" xlink:href="#m7735b4f979" y="286.711782"/>
      </g>
     </g>
     <g id="text_3">
      <!-- 50 -->
      <g style="fill:#4d4d4d;" transform="translate(217.697188 300.779907)scale(0.12 -0.12)">
       <use xlink:href="#DejaVuSans-53"/>
       <use x="63.623047" xlink:href="#DejaVuSans-48"/>
      </g>
     </g>
    </g>
    <g id="xtick_4">
     <g id="line2d_7">
      <path clip-path="url(#p076334c4db)" d="M 306.495824 286.711782
L 306.495824 20.599782
" style="fill:none;stroke:#e5e5e5;stroke-width:0.8;"/>
     </g>
     <g id="line2d_8">
      <path d="M 306.495824 286.711782
" style="fill:none;stroke:#000000;stroke-width:1.5;"/>
      <g>
       <use style="stroke:#000000;" x="306.495824" xlink:href="#m7735b4f979" y="286.711782"/>
      </g>
     </g>
     <g id="text_4">
      <!-- 75 -->
      <defs>
       <path d="M 8.203125 72.90625
L 55.078125 72.90625
L 55.078125 68.703125
L 28.609375 0
L 18.3125 0
L 43.21875 64.59375
L 8.203125 64.59375
z
" id="DejaVuSans-55"/>
      </defs>
      <g style="fill:#4d4d4d;" transform="translate(298.860824 300.779907)scale(0.12 -0.12)">
       <use xlink:href="#DejaVuSans-55"/>
       <use x="63.623047" xlink:href="#DejaVuSans-53"/>
      </g>
     </g>
    </g>
    <g id="xtick_5">
     <g id="line2d_9">
      <path clip-path="url(#p076334c4db)" d="M 387.65946 286.711782
L 387.65946 20.599782
" style="fill:none;stroke:#e5e5e5;stroke-width:0.8;"/>
     </g>
     <g id="line2d_10">
      <path d="M 387.65946 286.711782
" style="fill:none;stroke:#000000;stroke-width:1.5;"/>
      <g>
       <use style="stroke:#000000;" x="387.65946" xlink:href="#m7735b4f979" y="286.711782"/>
      </g>
     </g>
     <g id="text_5">
      <!-- 100 -->
      <defs>
       <path d="M 12.40625 8.296875
L 28.515625 8.296875
L 28.515625 63.921875
L 10.984375 60.40625
L 10.984375 69.390625
L 28.421875 72.90625
L 38.28125 72.90625
L 38.28125 8.296875
L 54.390625 8.296875
L 54.390625 0
L 12.40625 0
z
" id="DejaVuSans-49"/>
      </defs>
      <g style="fill:#4d4d4d;" transform="translate(376.20696 300.779907)scale(0.12 -0.12)">
       <use xlink:href="#DejaVuSans-49"/>
       <use x="63.623047" xlink:href="#DejaVuSans-48"/>
       <use x="127.246094" xlink:href="#DejaVuSans-48"/>
      </g>
     </g>
    </g>
    <g id="xtick_6">
     <g id="line2d_11">
      <path clip-path="url(#p076334c4db)" d="M 103.586733 286.711782
L 103.586733 20.599782
" style="fill:none;stroke:#fafafa;"/>
     </g>
     <g id="line2d_12">
      <path d="M 103.586733 286.711782
" style="fill:none;stroke:#000000;stroke-width:1.5;"/>
     </g>
    </g>
    <g id="xtick_7">
     <g id="line2d_13">
      <path clip-path="url(#p076334c4db)" d="M 184.750369 286.711782
L 184.750369 20.599782
" style="fill:none;stroke:#fafafa;"/>
     </g>
     <g id="line2d_14">
      <path d="M 184.750369 286.711782
" style="fill:none;stroke:#000000;stroke-width:1.5;"/>
     </g>
    </g>
    <g id="xtick_8">
     <g id="line2d_15">
      <path clip-path="url(#p076334c4db)" d="M 265.914006 286.711782
L 265.914006 20.599782
" style="fill:none;stroke:#fafafa;"/>
     </g>
     <g id="line2d_16">
      <path d="M 265.914006 286.711782
" style="fill:none;stroke:#000000;stroke-width:1.5;"/>
     </g>
    </g>
    <g id="xtick_9">
     <g id="line2d_17">
      <path clip-path="url(#p076334c4db)" d="M 347.077642 286.711782
L 347.077642 20.599782
" style="fill:none;stroke:#fafafa;"/>
     </g>
     <g id="line2d_18">
      <path d="M 347.077642 286.711782
" style="fill:none;stroke:#000000;stroke-width:1.5;"/>
     </g>
    </g>
    <g id="text_6">
     <!-- CAMERA pathway ranking -->
     <defs>
      <path d="M 64.40625 67.28125
L 64.40625 56.890625
Q 59.421875 61.53125 53.78125 63.8125
Q 48.140625 66.109375 41.796875 66.109375
Q 29.296875 66.109375 22.65625 58.46875
Q 16.015625 50.828125 16.015625 36.375
Q 16.015625 21.96875 22.65625 14.328125
Q 29.296875 6.6875 41.796875 6.6875
Q 48.140625 6.6875 53.78125 8.984375
Q 59.421875 11.28125 64.40625 15.921875
L 64.40625 5.609375
Q 59.234375 2.09375 53.4375 0.328125
Q 47.65625 -1.421875 41.21875 -1.421875
Q 24.65625 -1.421875 15.125 8.703125
Q 5.609375 18.84375 5.609375 36.375
Q 5.609375 53.953125 15.125 64.078125
Q 24.65625 74.21875 41.21875 74.21875
Q 47.75 74.21875 53.53125 72.484375
Q 59.328125 70.75 64.40625 67.28125
z
" id="DejaVuSans-67"/>
      <path d="M 34.1875 63.1875
L 20.796875 26.90625
L 47.609375 26.90625
z
M 28.609375 72.90625
L 39.796875 72.90625
L 67.578125 0
L 57.328125 0
L 50.6875 18.703125
L 17.828125 18.703125
L 11.1875 0
L 0.78125 0
z
" id="DejaVuSans-65"/>
      <path d="M 9.8125 72.90625
L 24.515625 72.90625
L 43.109375 23.296875
L 61.8125 72.90625
L 76.515625 72.90625
L 76.515625 0
L 66.890625 0
L 66.890625 64.015625
L 48.09375 14.015625
L 38.1875 14.015625
L 19.390625 64.015625
L 19.390625 0
L 9.8125 0
z
" id="DejaVuSans-77"/>
      <path d="M 9.8125 72.90625
L 55.90625 72.90625
L 55.90625 64.59375
L 19.671875 64.59375
L 19.671875 43.015625
L 54.390625 43.015625
L 54.390625 34.71875
L 19.671875 34.71875
L 19.671875 8.296875
L 56.78125 8.296875
L 56.78125 0
L 9.8125 0
z
" id="DejaVuSans-69"/>
      <path d="M 44.390625 34.1875
Q 47.5625 33.109375 50.5625 29.59375
Q 53.5625 26.078125 56.59375 19.921875
L 66.609375 0
L 56 0
L 46.6875 18.703125
Q 43.0625 26.03125 39.671875 28.421875
Q 36.28125 30.8125 30.421875 30.8125
L 19.671875 30.8125
L 19.671875 0
L 9.8125 0
L 9.8125 72.90625
L 32.078125 72.90625
Q 44.578125 72.90625 50.734375 67.671875
Q 56.890625 62.453125 56.890625 51.90625
Q 56.890625 45.015625 53.6875 40.46875
Q 50.484375 35.9375 44.390625 34.1875
z
M 19.671875 64.796875
L 19.671875 38.921875
L 32.078125 38.921875
Q 39.203125 38.921875 42.84375 42.21875
Q 46.484375 45.515625 46.484375 51.90625
Q 46.484375 58.296875 42.84375 61.546875
Q 39.203125 64.796875 32.078125 64.796875
z
" id="DejaVuSans-82"/>
      <path id="DejaVuSans-32"/>
      <path d="M 18.109375 8.203125
L 18.109375 -20.796875
L 9.078125 -20.796875
L 9.078125 54.6875
L 18.109375 54.6875
L 18.109375 46.390625
Q 20.953125 51.265625 25.265625 53.625
Q 29.59375 56 35.59375 56
Q 45.5625 56 51.78125 48.09375
Q 58.015625 40.1875 58.015625 27.296875
Q 58.015625 14.40625 51.78125 6.484375
Q 45.5625 -1.421875 35.59375 -1.421875
Q 29.59375 -1.421875 25.265625 0.953125
Q 20.953125 3.328125 18.109375 8.203125
z
M 48.6875 27.296875
Q 48.6875 37.203125 44.609375 42.84375
Q 40.53125 48.484375 33.40625 48.484375
Q 26.265625 48.484375 22.1875 42.84375
Q 18.109375 37.203125 18.109375 27.296875
Q 18.109375 17.390625 22.1875 11.75
Q 26.265625 6.109375 33.40625 6.109375
Q 40.53125 6.109375 44.609375 11.75
Q 48.6875 17.390625 48.6875 27.296875
z
" id="DejaVuSans-112"/>
      <path d="M 34.28125 27.484375
Q 23.390625 27.484375 19.1875 25
Q 14.984375 22.515625 14.984375 16.5
Q 14.984375 11.71875 18.140625 8.90625
Q 21.296875 6.109375 26.703125 6.109375
Q 34.1875 6.109375 38.703125 11.40625
Q 43.21875 16.703125 43.21875 25.484375
L 43.21875 27.484375
z
M 52.203125 31.203125
L 52.203125 0
L 43.21875 0
L 43.21875 8.296875
Q 40.140625 3.328125 35.546875 0.953125
Q 30.953125 -1.421875 24.3125 -1.421875
Q 15.921875 -1.421875 10.953125 3.296875
Q 6 8.015625 6 15.921875
Q 6 25.140625 12.171875 29.828125
Q 18.359375 34.515625 30.609375 34.515625
L 43.21875 34.515625
L 43.21875 35.40625
Q 43.21875 41.609375 39.140625 45
Q 35.0625 48.390625 27.6875 48.390625
Q 23 48.390625 18.546875 47.265625
Q 14.109375 46.140625 10.015625 43.890625
L 10.015625 52.203125
Q 14.9375 54.109375 19.578125 55.046875
Q 24.21875 56 28.609375 56
Q 40.484375 56 46.34375 49.84375
Q 52.203125 43.703125 52.203125 31.203125
z
" id="DejaVuSans-97"/>
      <path d="M 18.3125 70.21875
L 18.3125 54.6875
L 36.8125 54.6875
L 36.8125 47.703125
L 18.3125 47.703125
L 18.3125 18.015625
Q 18.3125 11.328125 20.140625 9.421875
Q 21.96875 7.515625 27.59375 7.515625
L 36.8125 7.515625
L 36.8125 0
L 27.59375 0
Q 17.1875 0 13.234375 3.875
Q 9.28125 7.765625 9.28125 18.015625
L 9.28125 47.703125
L 2.6875 47.703125
L 2.6875 54.6875
L 9.28125 54.6875
L 9.28125 70.21875
z
" id="DejaVuSans-116"/>
      <path d="M 54.890625 33.015625
L 54.890625 0
L 45.90625 0
L 45.90625 32.71875
Q 45.90625 40.484375 42.875 44.328125
Q 39.84375 48.1875 33.796875 48.1875
Q 26.515625 48.1875 22.3125 43.546875
Q 18.109375 38.921875 18.109375 30.90625
L 18.109375 0
L 9.078125 0
L 9.078125 75.984375
L 18.109375 75.984375
L 18.109375 46.1875
Q 21.34375 51.125 25.703125 53.5625
Q 30.078125 56 35.796875 56
Q 45.21875 56 50.046875 50.171875
Q 54.890625 44.34375 54.890625 33.015625
z
" id="DejaVuSans-104"/>
      <path d="M 4.203125 54.6875
L 13.1875 54.6875
L 24.421875 12.015625
L 35.59375 54.6875
L 46.1875 54.6875
L 57.421875 12.015625
L 68.609375 54.6875
L 77.59375 54.6875
L 63.28125 0
L 52.6875 0
L 40.921875 44.828125
L 29.109375 0
L 18.5 0
z
" id="DejaVuSans-119"/>
      <path d="M 32.171875 -5.078125
Q 28.375 -14.84375 24.75 -17.8125
Q 21.140625 -20.796875 15.09375 -20.796875
L 7.90625 -20.796875
L 7.90625 -13.28125
L 13.1875 -13.28125
Q 16.890625 -13.28125 18.9375 -11.515625
Q 21 -9.765625 23.484375 -3.21875
L 25.09375 0.875
L 2.984375 54.6875
L 12.5 54.6875
L 29.59375 11.921875
L 46.6875 54.6875
L 56.203125 54.6875
z
" id="DejaVuSans-121"/>
      <path d="M 41.109375 46.296875
Q 39.59375 47.171875 37.8125 47.578125
Q 36.03125 48 33.890625 48
Q 26.265625 48 22.1875 43.046875
Q 18.109375 38.09375 18.109375 28.8125
L 18.109375 0
L 9.078125 0
L 9.078125 54.6875
L 18.109375 54.6875
L 18.109375 46.1875
Q 20.953125 51.171875 25.484375 53.578125
Q 30.03125 56 36.53125 56
Q 37.453125 56 38.578125 55.875
Q 39.703125 55.765625 41.0625 55.515625
z
" id="DejaVuSans-114"/>
      <path d="M 54.890625 33.015625
L 54.890625 0
L 45.90625 0
L 45.90625 32.71875
Q 45.90625 40.484375 42.875 44.328125
Q 39.84375 48.1875 33.796875 48.1875
Q 26.515625 48.1875 22.3125 43.546875
Q 18.109375 38.921875 18.109375 30.90625
L 18.109375 0
L 9.078125 0
L 9.078125 54.6875
L 18.109375 54.6875
L 18.109375 46.1875
Q 21.34375 51.125 25.703125 53.5625
Q 30.078125 56 35.796875 56
Q 45.21875 56 50.046875 50.171875
Q 54.890625 44.34375 54.890625 33.015625
z
" id="DejaVuSans-110"/>
      <path d="M 9.078125 75.984375
L 18.109375 75.984375
L 18.109375 31.109375
L 44.921875 54.6875
L 56.390625 54.6875
L 27.390625 29.109375
L 57.625 0
L 45.90625 0
L 18.109375 26.703125
L 18.109375 0
L 9.078125 0
z
" id="DejaVuSans-107"/>
      <path d="M 9.421875 54.6875
L 18.40625 54.6875
L 18.40625 0
L 9.421875 0
z
M 9.421875 75.984375
L 18.40625 75.984375
L 18.40625 64.59375
L 9.421875 64.59375
z
" id="DejaVuSans-105"/>
      <path d="M 45.40625 27.984375
Q 45.40625 37.75 41.375 43.109375
Q 37.359375 48.484375 30.078125 48.484375
Q 22.859375 48.484375 18.828125 43.109375
Q 14.796875 37.75 14.796875 27.984375
Q 14.796875 18.265625 18.828125 12.890625
Q 22.859375 7.515625 30.078125 7.515625
Q 37.359375 7.515625 41.375 12.890625
Q 45.40625 18.265625 45.40625 27.984375
z
M 54.390625 6.78125
Q 54.390625 -7.171875 48.1875 -13.984375
Q 42 -20.796875 29.203125 -20.796875
Q 24.46875 -20.796875 20.265625 -20.09375
Q 16.0625 -19.390625 12.109375 -17.921875
L 12.109375 -9.1875
Q 16.0625 -11.328125 19.921875 -12.34375
Q 23.78125 -13.375 27.78125 -13.375
Q 36.625 -13.375 41.015625 -8.765625
Q 45.40625 -4.15625 45.40625 5.171875
L 45.40625 9.625
Q 42.625 4.78125 38.28125 2.390625
Q 33.9375 0 27.875 0
Q 17.828125 0 11.671875 7.65625
Q 5.515625 15.328125 5.515625 27.984375
Q 5.515625 40.671875 11.671875 48.328125
Q 17.828125 56 27.875 56
Q 33.9375 56 38.28125 53.609375
Q 42.625 51.21875 45.40625 46.390625
L 45.40625 54.6875
L 54.390625 54.6875
z
" id="DejaVuSans-103"/>
     </defs>
     <g transform="translate(122.297188 319.073188)scale(0.15 -0.15)">
      <use xlink:href="#DejaVuSans-67"/>
      <use x="69.824219" xlink:href="#DejaVuSans-65"/>
      <use x="138.232422" xlink:href="#DejaVuSans-77"/>
      <use x="224.511719" xlink:href="#DejaVuSans-69"/>
      <use x="287.695312" xlink:href="#DejaVuSans-82"/>
      <use x="357.115234" xlink:href="#DejaVuSans-65"/>
      <use x="425.523438" xlink:href="#DejaVuSans-32"/>
      <use x="457.310547" xlink:href="#DejaVuSans-112"/>
      <use x="520.787109" xlink:href="#DejaVuSans-97"/>
      <use x="582.066406" xlink:href="#DejaVuSans-116"/>
      <use x="621.275391" xlink:href="#DejaVuSans-104"/>
      <use x="684.654297" xlink:href="#DejaVuSans-119"/>
      <use x="766.441406" xlink:href="#DejaVuSans-97"/>
      <use x="827.720703" xlink:href="#DejaVuSans-121"/>
      <use x="886.900391" xlink:href="#DejaVuSans-32"/>
      <use x="918.6875" xlink:href="#DejaVuSans-114"/>
      <use x="959.800781" xlink:href="#DejaVuSans-97"/>
      <use x="1021.080078" xlink:href="#DejaVuSans-110"/>
      <use x="1084.458984" xlink:href="#DejaVuSans-107"/>
      <use x="1142.369141" xlink:href="#DejaVuSans-105"/>
      <use x="1170.152344" xlink:href="#DejaVuSans-110"/>
      <use x="1233.53125" xlink:href="#DejaVuSans-103"/>
     </g>
    </g>
   </g>
   <g id="matplotlib.axis_2">
    <g id="ytick_1">
     <g id="line2d_19">
      <path clip-path="url(#p076334c4db)" d="M 46.772188 274.615782
L 403.892188 274.615782
" style="fill:none;stroke:#e5e5e5;stroke-width:0.8;"/>
     </g>
     <g id="line2d_20">
      <path d="M 46.772188 274.615782
" style="fill:none;stroke:#000000;stroke-width:1.5;"/>
      <defs>
       <path d="M 0 0
L -2.75 0
" id="mf61aebd6a1" style="stroke:#000000;"/>
      </defs>
      <g>
       <use style="stroke:#000000;" x="46.772188" xlink:href="#mf61aebd6a1" y="274.615782"/>
      </g>
     </g>
     <g id="text_7">
      <!-- 0 -->
      <g style="fill:#4d4d4d;" transform="translate(34.187188 277.927032)scale(0.12 -0.12)">
       <use xlink:href="#DejaVuSans-48"/>
      </g>
     </g>
    </g>
    <g id="ytick_2">
     <g id="line2d_21">
      <path clip-path="url(#p076334c4db)" d="M 46.772188 214.135782
L 403.892188 214.135782
" style="fill:none;stroke:#e5e5e5;stroke-width:0.8;"/>
     </g>
     <g id="line2d_22">
      <path d="M 46.772188 214.135782
" style="fill:none;stroke:#000000;stroke-width:1.5;"/>
      <g>
       <use style="stroke:#000000;" x="46.772188" xlink:href="#mf61aebd6a1" y="214.135782"/>
      </g>
     </g>
     <g id="text_8">
      <!-- 25 -->
      <g style="fill:#4d4d4d;" transform="translate(26.552188 217.447032)scale(0.12 -0.12)">
       <use xlink:href="#DejaVuSans-50"/>
       <use x="63.623047" xlink:href="#DejaVuSans-53"/>
      </g>
     </g>
    </g>
    <g id="ytick_3">
     <g id="line2d_23">
      <path clip-path="url(#p076334c4db)" d="M 46.772188 153.655782
L 403.892188 153.655782
" style="fill:none;stroke:#e5e5e5;stroke-width:0.8;"/>
     </g>
     <g id="line2d_24">
      <path d="M 46.772188 153.655782
" style="fill:none;stroke:#000000;stroke-width:1.5;"/>
      <g>
       <use style="stroke:#000000;" x="46.772188" xlink:href="#mf61aebd6a1" y="153.655782"/>
      </g>
     </g>
     <g id="text_9">
      <!-- 50 -->
      <g style="fill:#4d4d4d;" transform="translate(26.552188 156.967032)scale(0.12 -0.12)">
       <use xlink:href="#DejaVuSans-53"/>
       <use x="63.623047" xlink:href="#DejaVuSans-48"/>
      </g>
     </g>
    </g>
    <g id="ytick_4">
     <g id="line2d_25">
      <path clip-path="url(#p076334c4db)" d="M 46.772188 93.175782
L 403.892188 93.175782
" style="fill:none;stroke:#e5e5e5;stroke-width:0.8;"/>
     </g>
     <g id="line2d_26">
      <path d="M 46.772188 93.175782
" style="fill:none;stroke:#000000;stroke-width:1.5;"/>
      <g>
       <use style="stroke:#000000;" x="46.772188" xlink:href="#mf61aebd6a1" y="93.175782"/>
      </g>
     </g>
     <g id="text_10">
      <!-- 75 -->
      <g style="fill:#4d4d4d;" transform="translate(26.552188 96.487032)scale(0.12 -0.12)">
       <use xlink:href="#DejaVuSans-55"/>
       <use x="63.623047" xlink:href="#DejaVuSans-53"/>
      </g>
     </g>
    </g>
    <g id="ytick_5">
     <g id="line2d_27">
      <path clip-path="url(#p076334c4db)" d="M 46.772188 32.695782
L 403.892188 32.695782
" style="fill:none;stroke:#e5e5e5;stroke-width:0.8;"/>
     </g>
     <g id="line2d_28">
      <path d="M 46.772188 32.695782
" style="fill:none;stroke:#000000;stroke-width:1.5;"/>
      <g>
       <use style="stroke:#000000;" x="46.772188" xlink:href="#mf61aebd6a1" y="32.695782"/>
      </g>
     </g>
     <g id="text_11">
      <!-- 100 -->
      <g style="fill:#4d4d4d;" transform="translate(18.917188 36.007032)scale(0.12 -0.12)">
       <use xlink:href="#DejaVuSans-49"/>
       <use x="63.623047" xlink:href="#DejaVuSans-48"/>
       <use x="127.246094" xlink:href="#DejaVuSans-48"/>
      </g>
     </g>
    </g>
    <g id="ytick_6">
     <g id="line2d_29">
      <path clip-path="url(#p076334c4db)" d="M 46.772188 244.375782
L 403.892188 244.375782
" style="fill:none;stroke:#fafafa;"/>
     </g>
     <g id="line2d_30">
      <path d="M 46.772188 244.375782
" style="fill:none;stroke:#000000;stroke-width:1.5;"/>
     </g>
    </g>
    <g id="ytick_7">
     <g id="line2d_31">
      <path clip-path="url(#p076334c4db)" d="M 46.772188 183.895782
L 403.892188 183.895782
" style="fill:none;stroke:#fafafa;"/>
     </g>
     <g id="line2d_32">
      <path d="M 46.772188 183.895782
" style="fill:none;stroke:#000000;stroke-width:1.5;"/>
     </g>
    </g>
    <g id="ytick_8">
     <g id="line2d_33">
      <path clip-path="url(#p076334c4db)" d="M 46.772188 123.415782
L 403.892188 123.415782
" style="fill:none;stroke:#fafafa;"/>
     </g>
     <g id="line2d_34">
      <path d="M 46.772188 123.415782
" style="fill:none;stroke:#000000;stroke-width:1.5;"/>
     </g>
    </g>
    <g id="ytick_9">
     <g id="line2d_35">
      <path clip-path="url(#p076334c4db)" d="M 46.772188 62.935782
L 403.892188 62.935782
" style="fill:none;stroke:#fafafa;"/>
     </g>
     <g id="line2d_36">
      <path d="M 46.772188 62.935782
" style="fill:none;stroke:#000000;stroke-width:1.5;"/>
     </g>
    </g>
    <g id="text_12">
     <!-- ORA pathway ranking -->
     <defs>
      <path d="M 39.40625 66.21875
Q 28.65625 66.21875 22.328125 58.203125
Q 16.015625 50.203125 16.015625 36.375
Q 16.015625 22.609375 22.328125 14.59375
Q 28.65625 6.59375 39.40625 6.59375
Q 50.140625 6.59375 56.421875 14.59375
Q 62.703125 22.609375 62.703125 36.375
Q 62.703125 50.203125 56.421875 58.203125
Q 50.140625 66.21875 39.40625 66.21875
z
M 39.40625 74.21875
Q 54.734375 74.21875 63.90625 63.9375
Q 73.09375 53.65625 73.09375 36.375
Q 73.09375 19.140625 63.90625 8.859375
Q 54.734375 -1.421875 39.40625 -1.421875
Q 24.03125 -1.421875 14.8125 8.828125
Q 5.609375 19.09375 5.609375 36.375
Q 5.609375 53.65625 14.8125 63.9375
Q 24.03125 74.21875 39.40625 74.21875
z
" id="DejaVuSans-79"/>
     </defs>
     <g transform="translate(11.397656 233.528954)rotate(-90)scale(0.15 -0.15)">
      <use xlink:href="#DejaVuSans-79"/>
      <use x="78.710938" xlink:href="#DejaVuSans-82"/>
      <use x="148.130859" xlink:href="#DejaVuSans-65"/>
      <use x="216.539062" xlink:href="#DejaVuSans-32"/>
      <use x="248.326172" xlink:href="#DejaVuSans-112"/>
      <use x="311.802734" xlink:href="#DejaVuSans-97"/>
      <use x="373.082031" xlink:href="#DejaVuSans-116"/>
      <use x="412.291016" xlink:href="#DejaVuSans-104"/>
      <use x="475.669922" xlink:href="#DejaVuSans-119"/>
      <use x="557.457031" xlink:href="#DejaVuSans-97"/>
      <use x="618.736328" xlink:href="#DejaVuSans-121"/>
      <use x="677.916016" xlink:href="#DejaVuSans-32"/>
      <use x="709.703125" xlink:href="#DejaVuSans-114"/>
      <use x="750.816406" xlink:href="#DejaVuSans-97"/>
      <use x="812.095703" xlink:href="#DejaVuSans-110"/>
      <use x="875.474609" xlink:href="#DejaVuSans-107"/>
      <use x="933.384766" xlink:href="#DejaVuSans-105"/>
      <use x="961.167969" xlink:href="#DejaVuSans-110"/>
      <use x="1024.546875" xlink:href="#DejaVuSans-103"/>
     </g>
    </g>
   </g>
   <g id="PathCollection_1">
    <path clip-path="url(#p076334c4db)" d="M 387.65946 207.268236
C 388.12952 207.268236 388.580392 207.081479 388.912774 206.749096
C 389.245157 206.416713 389.431914 205.965842 389.431914 205.495782
C 389.431914 205.025722 389.245157 204.574851 388.912774 204.242468
C 388.580392 203.910085 388.12952 203.723328 387.65946 203.723328
C 387.1894 203.723328 386.738529 203.910085 386.406146 204.242468
C 386.073763 204.574851 385.887006 205.025722 385.887006 205.495782
C 385.887006 205.965842 386.073763 206.416713 386.406146 206.749096
C 386.738529 207.081479 387.1894 207.268236 387.65946 207.268236
z
" style="stroke:#000000;stroke-width:0.886227;"/>
    <path clip-path="url(#p076334c4db)" d="M 381.033857 49.279664
C 381.503918 49.279664 381.954789 49.092908 382.287171 48.760525
C 382.619554 48.428142 382.806311 47.977271 382.806311 47.507211
C 382.806311 47.03715 382.619554 46.586279 382.287171 46.253897
C 381.954789 45.921514 381.503918 45.734757 381.033857 45.734757
C 380.563797 45.734757 380.112926 45.921514 379.780543 46.253897
C 379.44816 46.586279 379.261403 47.03715 379.261403 47.507211
C 379.261403 47.977271 379.44816 48.428142 379.780543 48.760525
C 380.112926 49.092908 380.563797 49.279664 381.033857 49.279664
z
" style="stroke:#000000;stroke-width:0.886227;"/>
    <path clip-path="url(#p076334c4db)" d="M 374.408254 239.359664
C 374.878315 239.359664 375.329186 239.172908 375.661568 238.840525
C 375.993951 238.508142 376.180708 238.057271 376.180708 237.587211
C 376.180708 237.11715 375.993951 236.666279 375.661568 236.333897
C 375.329186 236.001514 374.878315 235.814757 374.408254 235.814757
C 373.938194 235.814757 373.487323 236.001514 373.15494 236.333897
C 372.822557 236.666279 372.6358 237.11715 372.6358 237.587211
C 372.6358 238.057271 372.822557 238.508142 373.15494 238.840525
C 373.487323 239.172908 373.938194 239.359664 374.408254 239.359664
z
" style="stroke:#000000;stroke-width:0.886227;"/>
    <path clip-path="url(#p076334c4db)" d="M 367.782651 118.399664
C 368.252712 118.399664 368.703583 118.212908 369.035965 117.880525
C 369.368348 117.548142 369.555105 117.097271 369.555105 116.627211
C 369.555105 116.15715 369.368348 115.706279 369.035965 115.373897
C 368.703583 115.041514 368.252712 114.854757 367.782651 114.854757
C 367.312591 114.854757 366.86172 115.041514 366.529337 115.373897
C 366.196954 115.706279 366.010197 116.15715 366.010197 116.627211
C 366.010197 117.097271 366.196954 117.548142 366.529337 117.880525
C 366.86172 118.212908 367.312591 118.399664 367.782651 118.399664
z
" style="stroke:#000000;stroke-width:0.886227;"/>
    <path clip-path="url(#p076334c4db)" d="M 361.157048 59.15395
C 361.627109 59.15395 362.07798 58.967193 362.410362 58.63481
C 362.742745 58.302428 362.929502 57.851557 362.929502 57.381496
C 362.929502 56.911436 362.742745 56.460565 362.410362 56.128182
C 362.07798 55.795799 361.627109 55.609043 361.157048 55.609043
C 360.686988 55.609043 360.236117 55.795799 359.903734 56.128182
C 359.571351 56.460565 359.384595 56.911436 359.384595 57.381496
C 359.384595 57.851557 359.571351 58.302428 359.903734 58.63481
C 360.236117 58.967193 360.686988 59.15395 361.157048 59.15395
z
" style="stroke:#000000;stroke-width:0.886227;"/>
    <path clip-path="url(#p076334c4db)" d="M 354.531445 98.651093
C 355.001506 98.651093 355.452377 98.464336 355.78476 98.131953
C 356.117142 97.799571 356.303899 97.348699 356.303899 96.878639
C 356.303899 96.408579 356.117142 95.957708 355.78476 95.625325
C 355.452377 95.292942 355.001506 95.106185 354.531445 95.106185
C 354.061385 95.106185 353.610514 95.292942 353.278131 95.625325
C 352.945748 95.957708 352.758992 96.408579 352.758992 96.878639
C 352.758992 97.348699 352.945748 97.799571 353.278131 98.131953
C 353.610514 98.464336 354.061385 98.651093 354.531445 98.651093
z
" style="stroke:#000000;stroke-width:0.886227;"/>
    <path clip-path="url(#p076334c4db)" d="M 347.905842 150.491093
C 348.375903 150.491093 348.826774 150.304336 349.159157 149.971953
C 349.491539 149.639571 349.678296 149.188699 349.678296 148.718639
C 349.678296 148.248579 349.491539 147.797708 349.159157 147.465325
C 348.826774 147.132942 348.375903 146.946185 347.905842 146.946185
C 347.435782 146.946185 346.984911 147.132942 346.652528 147.465325
C 346.320145 147.797708 346.133389 148.248579 346.133389 148.718639
C 346.133389 149.188699 346.320145 149.639571 346.652528 149.971953
C 346.984911 150.304336 347.435782 150.491093 347.905842 150.491093
z
" style="stroke:#000000;stroke-width:0.886227;"/>
    <path clip-path="url(#p076334c4db)" d="M 341.280239 133.211093
C 341.7503 133.211093 342.201171 133.024336 342.533554 132.691953
C 342.865936 132.359571 343.052693 131.908699 343.052693 131.438639
C 343.052693 130.968579 342.865936 130.517708 342.533554 130.185325
C 342.201171 129.852942 341.7503 129.666185 341.280239 129.666185
C 340.810179 129.666185 340.359308 129.852942 340.026925 130.185325
C 339.694543 130.517708 339.507786 130.968579 339.507786 131.438639
C 339.507786 131.908699 339.694543 132.359571 340.026925 132.691953
C 340.359308 133.024336 340.810179 133.211093 341.280239 133.211093
z
" style="stroke:#000000;stroke-width:0.886227;"/>
    <path clip-path="url(#p076334c4db)" d="M 334.654636 207.268236
C 335.124697 207.268236 335.575568 207.081479 335.907951 206.749096
C 336.240333 206.416713 336.42709 205.965842 336.42709 205.495782
C 336.42709 205.025722 336.240333 204.574851 335.907951 204.242468
C 335.575568 203.910085 335.124697 203.723328 334.654636 203.723328
C 334.184576 203.723328 333.733705 203.910085 333.401322 204.242468
C 333.06894 204.574851 332.882183 205.025722 332.882183 205.495782
C 332.882183 205.965842 333.06894 206.416713 333.401322 206.749096
C 333.733705 207.081479 334.184576 207.268236 334.654636 207.268236
z
" style="stroke:#000000;stroke-width:0.886227;"/>
    <path clip-path="url(#p076334c4db)" d="M 328.029034 44.342522
C 328.499094 44.342522 328.949965 44.155765 329.282348 43.823382
C 329.61473 43.490999 329.801487 43.040128 329.801487 42.570068
C 329.801487 42.100008 329.61473 41.649136 329.282348 41.316754
C 328.949965 40.984371 328.499094 40.797614 328.029034 40.797614
C 327.558973 40.797614 327.108102 40.984371 326.775719 41.316754
C 326.443337 41.649136 326.25658 42.100008 326.25658 42.570068
C 326.25658 43.040128 326.443337 43.490999 326.775719 43.823382
C 327.108102 44.155765 327.558973 44.342522 328.029034 44.342522
z
" style="stroke:#000000;stroke-width:0.886227;"/>
    <path clip-path="url(#p076334c4db)" d="M 321.403431 93.71395
C 321.873491 93.71395 322.324362 93.527193 322.656745 93.19481
C 322.989127 92.862428 323.175884 92.411557 323.175884 91.941496
C 323.175884 91.471436 322.989127 91.020565 322.656745 90.688182
C 322.324362 90.355799 321.873491 90.169043 321.403431 90.169043
C 320.93337 90.169043 320.482499 90.355799 320.150116 90.688182
C 319.817734 91.020565 319.630977 91.471436 319.630977 91.941496
C 319.630977 92.411557 319.817734 92.862428 320.150116 93.19481
C 320.482499 93.527193 320.93337 93.71395 321.403431 93.71395
z
" style="stroke:#000000;stroke-width:0.886227;"/>
    <path clip-path="url(#p076334c4db)" d="M 314.777828 207.268236
C 315.247888 207.268236 315.698759 207.081479 316.031142 206.749096
C 316.363525 206.416713 316.550281 205.965842 316.550281 205.495782
C 316.550281 205.025722 316.363525 204.574851 316.031142 204.242468
C 315.698759 203.910085 315.247888 203.723328 314.777828 203.723328
C 314.307767 203.723328 313.856896 203.910085 313.524513 204.242468
C 313.192131 204.574851 313.005374 205.025722 313.005374 205.495782
C 313.005374 205.965842 313.192131 206.416713 313.524513 206.749096
C 313.856896 207.081479 314.307767 207.268236 314.777828 207.268236
z
" style="stroke:#000000;stroke-width:0.886227;"/>
    <path clip-path="url(#p076334c4db)" d="M 308.152225 271.451093
C 308.622285 271.451093 309.073156 271.264336 309.405539 270.931953
C 309.737922 270.599571 309.924678 270.148699 309.924678 269.678639
C 309.924678 269.208579 309.737922 268.757708 309.405539 268.425325
C 309.073156 268.092942 308.622285 267.906185 308.152225 267.906185
C 307.682164 267.906185 307.231293 268.092942 306.89891 268.425325
C 306.566528 268.757708 306.379771 269.208579 306.379771 269.678639
C 306.379771 270.148699 306.566528 270.599571 306.89891 270.931953
C 307.231293 271.264336 307.682164 271.451093 308.152225 271.451093
z
" style="stroke:#000000;stroke-width:0.886227;"/>
    <path clip-path="url(#p076334c4db)" d="M 301.526622 64.091093
C 301.996682 64.091093 302.447553 63.904336 302.779936 63.571953
C 303.112319 63.239571 303.299075 62.788699 303.299075 62.318639
C 303.299075 61.848579 303.112319 61.397708 302.779936 61.065325
C 302.447553 60.732942 301.996682 60.546185 301.526622 60.546185
C 301.056561 60.546185 300.60569 60.732942 300.273307 61.065325
C 299.940925 61.397708 299.754168 61.848579 299.754168 62.318639
C 299.754168 62.788699 299.940925 63.239571 300.273307 63.571953
C 300.60569 63.904336 301.056561 64.091093 301.526622 64.091093
z
" style="stroke:#000000;stroke-width:0.886227;"/>
    <path clip-path="url(#p076334c4db)" d="M 294.901019 108.525379
C 295.371079 108.525379 295.82195 108.338622 296.154333 108.006239
C 296.486716 107.673856 296.673473 107.222985 296.673473 106.752925
C 296.673473 106.282865 296.486716 105.831994 296.154333 105.499611
C 295.82195 105.167228 295.371079 104.980471 294.901019 104.980471
C 294.430958 104.980471 293.980087 105.167228 293.647705 105.499611
C 293.315322 105.831994 293.128565 106.282865 293.128565 106.752925
C 293.128565 107.222985 293.315322 107.673856 293.647705 108.006239
C 293.980087 108.338622 294.430958 108.525379 294.901019 108.525379
z
" style="stroke:#000000;stroke-width:0.886227;"/>
    <path clip-path="url(#p076334c4db)" d="M 288.275416 73.965379
C 288.745476 73.965379 289.196347 73.778622 289.52873 73.446239
C 289.861113 73.113856 290.04787 72.662985 290.04787 72.192925
C 290.04787 71.722865 289.861113 71.271994 289.52873 70.939611
C 289.196347 70.607228 288.745476 70.420471 288.275416 70.420471
C 287.805355 70.420471 287.354484 70.607228 287.022102 70.939611
C 286.689719 71.271994 286.502962 71.722865 286.502962 72.192925
C 286.502962 72.662985 286.689719 73.113856 287.022102 73.446239
C 287.354484 73.778622 287.805355 73.965379 288.275416 73.965379
z
" style="stroke:#000000;stroke-width:0.886227;"/>
    <path clip-path="url(#p076334c4db)" d="M 281.649813 207.268236
C 282.119873 207.268236 282.570744 207.081479 282.903127 206.749096
C 283.23551 206.416713 283.422267 205.965842 283.422267 205.495782
C 283.422267 205.025722 283.23551 204.574851 282.903127 204.242468
C 282.570744 203.910085 282.119873 203.723328 281.649813 203.723328
C 281.179752 203.723328 280.728881 203.910085 280.396499 204.242468
C 280.064116 204.574851 279.877359 205.025722 279.877359 205.495782
C 279.877359 205.965842 280.064116 206.416713 280.396499 206.749096
C 280.728881 207.081479 281.179752 207.268236 281.649813 207.268236
z
" style="stroke:#000000;stroke-width:0.886227;"/>
    <path clip-path="url(#p076334c4db)" d="M 275.02421 239.359664
C 275.49427 239.359664 275.945141 239.172908 276.277524 238.840525
C 276.609907 238.508142 276.796664 238.057271 276.796664 237.587211
C 276.796664 237.11715 276.609907 236.666279 276.277524 236.333897
C 275.945141 236.001514 275.49427 235.814757 275.02421 235.814757
C 274.55415 235.814757 274.103278 236.001514 273.770896 236.333897
C 273.438513 236.666279 273.251756 237.11715 273.251756 237.587211
C 273.251756 238.057271 273.438513 238.508142 273.770896 238.840525
C 274.103278 239.172908 274.55415 239.359664 275.02421 239.359664
z
" style="stroke:#000000;stroke-width:0.886227;"/>
    <path clip-path="url(#p076334c4db)" d="M 268.398607 180.11395
C 268.868667 180.11395 269.319538 179.927193 269.651921 179.59481
C 269.984304 179.262428 270.171061 178.811557 270.171061 178.341496
C 270.171061 177.871436 269.984304 177.420565 269.651921 177.088182
C 269.319538 176.755799 268.868667 176.569043 268.398607 176.569043
C 267.928547 176.569043 267.477675 176.755799 267.145293 177.088182
C 266.81291 177.420565 266.626153 177.871436 266.626153 178.341496
C 266.626153 178.811557 266.81291 179.262428 267.145293 179.59481
C 267.477675 179.927193 267.928547 180.11395 268.398607 180.11395
z
" style="stroke:#000000;stroke-width:0.886227;"/>
    <path clip-path="url(#p076334c4db)" d="M 261.773004 128.27395
C 262.243064 128.27395 262.693935 128.087193 263.026318 127.75481
C 263.358701 127.422428 263.545458 126.971557 263.545458 126.501496
C 263.545458 126.031436 263.358701 125.580565 263.026318 125.248182
C 262.693935 124.915799 262.243064 124.729043 261.773004 124.729043
C 261.302944 124.729043 260.852072 124.915799 260.51969 125.248182
C 260.187307 125.580565 260.00055 126.031436 260.00055 126.501496
C 260.00055 126.971557 260.187307 127.422428 260.51969 127.75481
C 260.852072 128.087193 261.302944 128.27395 261.773004 128.27395
z
" style="stroke:#000000;stroke-width:0.886227;"/>
    <path clip-path="url(#p076334c4db)" d="M 255.147401 256.639664
C 255.617461 256.639664 256.068332 256.452908 256.400715 256.120525
C 256.733098 255.788142 256.919855 255.337271 256.919855 254.867211
C 256.919855 254.39715 256.733098 253.946279 256.400715 253.613897
C 256.068332 253.281514 255.617461 253.094757 255.147401 253.094757
C 254.677341 253.094757 254.22647 253.281514 253.894087 253.613897
C 253.561704 253.946279 253.374947 254.39715 253.374947 254.867211
C 253.374947 255.337271 253.561704 255.788142 253.894087 256.120525
C 254.22647 256.452908 254.677341 256.639664 255.147401 256.639664
z
" style="stroke:#000000;stroke-width:0.886227;"/>
    <path clip-path="url(#p076334c4db)" d="M 248.521798 138.148236
C 248.991858 138.148236 249.442729 137.961479 249.775112 137.629096
C 250.107495 137.296713 250.294252 136.845842 250.294252 136.375782
C 250.294252 135.905722 250.107495 135.454851 249.775112 135.122468
C 249.442729 134.790085 248.991858 134.603328 248.521798 134.603328
C 248.051738 134.603328 247.600867 134.790085 247.268484 135.122468
C 246.936101 135.454851 246.749344 135.905722 246.749344 136.375782
C 246.749344 136.845842 246.936101 137.296713 247.268484 137.629096
C 247.600867 137.961479 248.051738 138.148236 248.521798 138.148236
z
" style="stroke:#000000;stroke-width:0.886227;"/>
    <path clip-path="url(#p076334c4db)" d="M 241.896195 78.902522
C 242.366255 78.902522 242.817126 78.715765 243.149509 78.383382
C 243.481892 78.050999 243.668649 77.600128 243.668649 77.130068
C 243.668649 76.660008 243.481892 76.209136 243.149509 75.876754
C 242.817126 75.544371 242.366255 75.357614 241.896195 75.357614
C 241.426135 75.357614 240.975264 75.544371 240.642881 75.876754
C 240.310498 76.209136 240.123741 76.660008 240.123741 77.130068
C 240.123741 77.600128 240.310498 78.050999 240.642881 78.383382
C 240.975264 78.715765 241.426135 78.902522 241.896195 78.902522
z
" style="stroke:#000000;stroke-width:0.886227;"/>
    <path clip-path="url(#p076334c4db)" d="M 235.270592 103.588236
C 235.740652 103.588236 236.191523 103.401479 236.523906 103.069096
C 236.856289 102.736713 237.043046 102.285842 237.043046 101.815782
C 237.043046 101.345722 236.856289 100.894851 236.523906 100.562468
C 236.191523 100.230085 235.740652 100.043328 235.270592 100.043328
C 234.800532 100.043328 234.349661 100.230085 234.017278 100.562468
C 233.684895 100.894851 233.498138 101.345722 233.498138 101.815782
C 233.498138 102.285842 233.684895 102.736713 234.017278 103.069096
C 234.349661 103.401479 234.800532 103.588236 235.270592 103.588236
z
" style="stroke:#000000;stroke-width:0.886227;"/>
    <path clip-path="url(#p076334c4db)" d="M 228.644989 69.028236
C 229.115049 69.028236 229.56592 68.841479 229.898303 68.509096
C 230.230686 68.176713 230.417443 67.725842 230.417443 67.255782
C 230.417443 66.785722 230.230686 66.334851 229.898303 66.002468
C 229.56592 65.670085 229.115049 65.483328 228.644989 65.483328
C 228.174929 65.483328 227.724058 65.670085 227.391675 66.002468
C 227.059292 66.334851 226.872535 66.785722 226.872535 67.255782
C 226.872535 67.725842 227.059292 68.176713 227.391675 68.509096
C 227.724058 68.841479 228.174929 69.028236 228.644989 69.028236
z
" style="stroke:#000000;stroke-width:0.886227;"/>
    <path clip-path="url(#p076334c4db)" d="M 222.019386 170.239664
C 222.489446 170.239664 222.940317 170.052908 223.2727 169.720525
C 223.605083 169.388142 223.79184 168.937271 223.79184 168.467211
C 223.79184 167.99715 223.605083 167.546279 223.2727 167.213897
C 222.940317 166.881514 222.489446 166.694757 222.019386 166.694757
C 221.549326 166.694757 221.098455 166.881514 220.766072 167.213897
C 220.433689 167.546279 220.246932 167.99715 220.246932 168.467211
C 220.246932 168.937271 220.433689 169.388142 220.766072 169.720525
C 221.098455 170.052908 221.549326 170.239664 222.019386 170.239664
z
" style="stroke:#000000;stroke-width:0.886227;"/>
    <path clip-path="url(#p076334c4db)" d="M 215.393783 150.491093
C 215.863843 150.491093 216.314714 150.304336 216.647097 149.971953
C 216.97948 149.639571 217.166237 149.188699 217.166237 148.718639
C 217.166237 148.248579 216.97948 147.797708 216.647097 147.465325
C 216.314714 147.132942 215.863843 146.946185 215.393783 146.946185
C 214.923723 146.946185 214.472852 147.132942 214.140469 147.465325
C 213.808086 147.797708 213.621329 148.248579 213.621329 148.718639
C 213.621329 149.188699 213.808086 149.639571 214.140469 149.971953
C 214.472852 150.304336 214.923723 150.491093 215.393783 150.491093
z
" style="stroke:#000000;stroke-width:0.886227;"/>
    <path clip-path="url(#p076334c4db)" d="M 205.455379 39.405379
C 205.925439 39.405379 206.37631 39.218622 206.708693 38.886239
C 207.041076 38.553856 207.227832 38.102985 207.227832 37.632925
C 207.227832 37.162865 207.041076 36.711994 206.708693 36.379611
C 206.37631 36.047228 205.925439 35.860471 205.455379 35.860471
C 204.985318 35.860471 204.534447 36.047228 204.202064 36.379611
C 203.869682 36.711994 203.682925 37.162865 203.682925 37.632925
C 203.682925 38.102985 203.869682 38.553856 204.202064 38.886239
C 204.534447 39.218622 204.985318 39.405379 205.455379 39.405379
z
" style="stroke:#000000;stroke-width:0.886227;"/>
    <path clip-path="url(#p076334c4db)" d="M 205.455379 54.216807
C 205.925439 54.216807 206.37631 54.03005 206.708693 53.697668
C 207.041076 53.365285 207.227832 52.914414 207.227832 52.444353
C 207.227832 51.974293 207.041076 51.523422 206.708693 51.191039
C 206.37631 50.858657 205.925439 50.6719 205.455379 50.6719
C 204.985318 50.6719 204.534447 50.858657 204.202064 51.191039
C 203.869682 51.523422 203.682925 51.974293 203.682925 52.444353
C 203.682925 52.914414 203.869682 53.365285 204.202064 53.697668
C 204.534447 54.03005 204.985318 54.216807 205.455379 54.216807
z
" style="stroke:#000000;stroke-width:0.886227;"/>
    <path clip-path="url(#p076334c4db)" d="M 195.516974 256.639664
C 195.987034 256.639664 196.437905 256.452908 196.770288 256.120525
C 197.102671 255.788142 197.289428 255.337271 197.289428 254.867211
C 197.289428 254.39715 197.102671 253.946279 196.770288 253.613897
C 196.437905 253.281514 195.987034 253.094757 195.516974 253.094757
C 195.046914 253.094757 194.596043 253.281514 194.26366 253.613897
C 193.931277 253.946279 193.74452 254.39715 193.74452 254.867211
C 193.74452 255.337271 193.931277 255.788142 194.26366 256.120525
C 194.596043 256.452908 195.046914 256.639664 195.516974 256.639664
z
" style="stroke:#000000;stroke-width:0.886227;"/>
    <path clip-path="url(#p076334c4db)" d="M 188.891371 207.268236
C 189.361431 207.268236 189.812303 207.081479 190.144685 206.749096
C 190.477068 206.416713 190.663825 205.965842 190.663825 205.495782
C 190.663825 205.025722 190.477068 204.574851 190.144685 204.242468
C 189.812303 203.910085 189.361431 203.723328 188.891371 203.723328
C 188.421311 203.723328 187.97044 203.910085 187.638057 204.242468
C 187.305674 204.574851 187.118917 205.025722 187.118917 205.495782
C 187.118917 205.965842 187.305674 206.416713 187.638057 206.749096
C 187.97044 207.081479 188.421311 207.268236 188.891371 207.268236
z
" style="stroke:#000000;stroke-width:0.886227;"/>
    <path clip-path="url(#p076334c4db)" d="M 182.265768 276.388236
C 182.735828 276.388236 183.1867 276.201479 183.519082 275.869096
C 183.851465 275.536713 184.038222 275.085842 184.038222 274.615782
C 184.038222 274.145722 183.851465 273.694851 183.519082 273.362468
C 183.1867 273.030085 182.735828 272.843328 182.265768 272.843328
C 181.795708 272.843328 181.344837 273.030085 181.012454 273.362468
C 180.680071 273.694851 180.493314 274.145722 180.493314 274.615782
C 180.493314 275.085842 180.680071 275.536713 181.012454 275.869096
C 181.344837 276.201479 181.795708 276.388236 182.265768 276.388236
z
" style="stroke:#000000;stroke-width:0.886227;"/>
    <path clip-path="url(#p076334c4db)" d="M 175.640165 207.268236
C 176.110225 207.268236 176.561097 207.081479 176.893479 206.749096
C 177.225862 206.416713 177.412619 205.965842 177.412619 205.495782
C 177.412619 205.025722 177.225862 204.574851 176.893479 204.242468
C 176.561097 203.910085 176.110225 203.723328 175.640165 203.723328
C 175.170105 203.723328 174.719234 203.910085 174.386851 204.242468
C 174.054468 204.574851 173.867711 205.025722 173.867711 205.495782
C 173.867711 205.965842 174.054468 206.416713 174.386851 206.749096
C 174.719234 207.081479 175.170105 207.268236 175.640165 207.268236
z
" style="stroke:#000000;stroke-width:0.886227;"/>
    <path clip-path="url(#p076334c4db)" d="M 165.701761 34.468236
C 166.171821 34.468236 166.622692 34.281479 166.955075 33.949096
C 167.287458 33.616713 167.474215 33.165842 167.474215 32.695782
C 167.474215 32.225722 167.287458 31.774851 166.955075 31.442468
C 166.622692 31.110085 166.171821 30.923328 165.701761 30.923328
C 165.231701 30.923328 164.780829 31.110085 164.448447 31.442468
C 164.116064 31.774851 163.929307 32.225722 163.929307 32.695782
C 163.929307 33.165842 164.116064 33.616713 164.448447 33.949096
C 164.780829 34.281479 165.231701 34.468236 165.701761 34.468236
z
" style="stroke:#000000;stroke-width:0.886227;"/>
    <path clip-path="url(#p076334c4db)" d="M 165.701761 207.268236
C 166.171821 207.268236 166.622692 207.081479 166.955075 206.749096
C 167.287458 206.416713 167.474215 205.965842 167.474215 205.495782
C 167.474215 205.025722 167.287458 204.574851 166.955075 204.242468
C 166.622692 203.910085 166.171821 203.723328 165.701761 203.723328
C 165.231701 203.723328 164.780829 203.910085 164.448447 204.242468
C 164.116064 204.574851 163.929307 205.025722 163.929307 205.495782
C 163.929307 205.965842 164.116064 206.416713 164.448447 206.749096
C 164.780829 207.081479 165.231701 207.268236 165.701761 207.268236
z
" style="stroke:#000000;stroke-width:0.886227;"/>
    <path clip-path="url(#p076334c4db)" d="M 155.763356 256.639664
C 156.233417 256.639664 156.684288 256.452908 157.01667 256.120525
C 157.349053 255.788142 157.53581 255.337271 157.53581 254.867211
C 157.53581 254.39715 157.349053 253.946279 157.01667 253.613897
C 156.684288 253.281514 156.233417 253.094757 155.763356 253.094757
C 155.293296 253.094757 154.842425 253.281514 154.510042 253.613897
C 154.177659 253.946279 153.990902 254.39715 153.990902 254.867211
C 153.990902 255.337271 154.177659 255.788142 154.510042 256.120525
C 154.842425 256.452908 155.293296 256.639664 155.763356 256.639664
z
" style="stroke:#000000;stroke-width:0.886227;"/>
    <path clip-path="url(#p076334c4db)" d="M 149.137753 207.268236
C 149.607814 207.268236 150.058685 207.081479 150.391068 206.749096
C 150.72345 206.416713 150.910207 205.965842 150.910207 205.495782
C 150.910207 205.025722 150.72345 204.574851 150.391068 204.242468
C 150.058685 203.910085 149.607814 203.723328 149.137753 203.723328
C 148.667693 203.723328 148.216822 203.910085 147.884439 204.242468
C 147.552056 204.574851 147.3653 205.025722 147.3653 205.495782
C 147.3653 205.965842 147.552056 206.416713 147.884439 206.749096
C 148.216822 207.081479 148.667693 207.268236 149.137753 207.268236
z
" style="stroke:#000000;stroke-width:0.886227;"/>
    <path clip-path="url(#p076334c4db)" d="M 135.886547 180.11395
C 136.356608 180.11395 136.807479 179.927193 137.139862 179.59481
C 137.472244 179.262428 137.659001 178.811557 137.659001 178.341496
C 137.659001 177.871436 137.472244 177.420565 137.139862 177.088182
C 136.807479 176.755799 136.356608 176.569043 135.886547 176.569043
C 135.416487 176.569043 134.965616 176.755799 134.633233 177.088182
C 134.30085 177.420565 134.114094 177.871436 134.114094 178.341496
C 134.114094 178.811557 134.30085 179.262428 134.633233 179.59481
C 134.965616 179.927193 135.416487 180.11395 135.886547 180.11395
z
" style="stroke:#000000;stroke-width:0.886227;"/>
    <path clip-path="url(#p076334c4db)" d="M 142.51215 88.776807
C 142.982211 88.776807 143.433082 88.59005 143.765465 88.257668
C 144.097847 87.925285 144.284604 87.474414 144.284604 87.004353
C 144.284604 86.534293 144.097847 86.083422 143.765465 85.751039
C 143.433082 85.418657 142.982211 85.2319 142.51215 85.2319
C 142.04209 85.2319 141.591219 85.418657 141.258836 85.751039
C 140.926453 86.083422 140.739697 86.534293 140.739697 87.004353
C 140.739697 87.474414 140.926453 87.925285 141.258836 88.257668
C 141.591219 88.59005 142.04209 88.776807 142.51215 88.776807
z
" style="stroke:#000000;stroke-width:0.886227;"/>
    <path clip-path="url(#p076334c4db)" d="M 129.260944 207.268236
C 129.731005 207.268236 130.181876 207.081479 130.514259 206.749096
C 130.846641 206.416713 131.033398 205.965842 131.033398 205.495782
C 131.033398 205.025722 130.846641 204.574851 130.514259 204.242468
C 130.181876 203.910085 129.731005 203.723328 129.260944 203.723328
C 128.790884 203.723328 128.340013 203.910085 128.00763 204.242468
C 127.675248 204.574851 127.488491 205.025722 127.488491 205.495782
C 127.488491 205.965842 127.675248 206.416713 128.00763 206.749096
C 128.340013 207.081479 128.790884 207.268236 129.260944 207.268236
z
" style="stroke:#000000;stroke-width:0.886227;"/>
    <path clip-path="url(#p076334c4db)" d="M 122.635341 266.51395
C 123.105402 266.51395 123.556273 266.327193 123.888656 265.99481
C 124.221038 265.662428 124.407795 265.211557 124.407795 264.741496
C 124.407795 264.271436 124.221038 263.820565 123.888656 263.488182
C 123.556273 263.155799 123.105402 262.969043 122.635341 262.969043
C 122.165281 262.969043 121.71441 263.155799 121.382027 263.488182
C 121.049645 263.820565 120.862888 264.271436 120.862888 264.741496
C 120.862888 265.211557 121.049645 265.662428 121.382027 265.99481
C 121.71441 266.327193 122.165281 266.51395 122.635341 266.51395
z
" style="stroke:#000000;stroke-width:0.886227;"/>
    <path clip-path="url(#p076334c4db)" d="M 116.009739 239.359664
C 116.479799 239.359664 116.93067 239.172908 117.263053 238.840525
C 117.595435 238.508142 117.782192 238.057271 117.782192 237.587211
C 117.782192 237.11715 117.595435 236.666279 117.263053 236.333897
C 116.93067 236.001514 116.479799 235.814757 116.009739 235.814757
C 115.539678 235.814757 115.088807 236.001514 114.756424 236.333897
C 114.424042 236.666279 114.237285 237.11715 114.237285 237.587211
C 114.237285 238.057271 114.424042 238.508142 114.756424 238.840525
C 115.088807 239.172908 115.539678 239.359664 116.009739 239.359664
z
" style="stroke:#000000;stroke-width:0.886227;"/>
    <path clip-path="url(#p076334c4db)" d="M 109.384136 83.839664
C 109.854196 83.839664 110.305067 83.652908 110.63745 83.320525
C 110.969832 82.988142 111.156589 82.537271 111.156589 82.067211
C 111.156589 81.59715 110.969832 81.146279 110.63745 80.813897
C 110.305067 80.481514 109.854196 80.294757 109.384136 80.294757
C 108.914075 80.294757 108.463204 80.481514 108.130821 80.813897
C 107.798439 81.146279 107.611682 81.59715 107.611682 82.067211
C 107.611682 82.537271 107.798439 82.988142 108.130821 83.320525
C 108.463204 83.652908 108.914075 83.839664 109.384136 83.839664
z
" style="stroke:#000000;stroke-width:0.886227;"/>
    <path clip-path="url(#p076334c4db)" d="M 102.758533 162.83395
C 103.228593 162.83395 103.679464 162.647193 104.011847 162.31481
C 104.34423 161.982428 104.530986 161.531557 104.530986 161.061496
C 104.530986 160.591436 104.34423 160.140565 104.011847 159.808182
C 103.679464 159.475799 103.228593 159.289043 102.758533 159.289043
C 102.288472 159.289043 101.837601 159.475799 101.505218 159.808182
C 101.172836 160.140565 100.986079 160.591436 100.986079 161.061496
C 100.986079 161.531557 101.172836 161.982428 101.505218 162.31481
C 101.837601 162.647193 102.288472 162.83395 102.758533 162.83395
z
" style="stroke:#000000;stroke-width:0.886227;"/>
    <path clip-path="url(#p076334c4db)" d="M 96.13293 123.336807
C 96.60299 123.336807 97.053861 123.15005 97.386244 122.817668
C 97.718627 122.485285 97.905383 122.034414 97.905383 121.564353
C 97.905383 121.094293 97.718627 120.643422 97.386244 120.311039
C 97.053861 119.978657 96.60299 119.7919 96.13293 119.7919
C 95.662869 119.7919 95.211998 119.978657 94.879615 120.311039
C 94.547233 120.643422 94.360476 121.094293 94.360476 121.564353
C 94.360476 122.034414 94.547233 122.485285 94.879615 122.817668
C 95.211998 123.15005 95.662869 123.336807 96.13293 123.336807
z
" style="stroke:#000000;stroke-width:0.886227;"/>
    <path clip-path="url(#p076334c4db)" d="M 89.507327 239.359664
C 89.977387 239.359664 90.428258 239.172908 90.760641 238.840525
C 91.093024 238.508142 91.27978 238.057271 91.27978 237.587211
C 91.27978 237.11715 91.093024 236.666279 90.760641 236.333897
C 90.428258 236.001514 89.977387 235.814757 89.507327 235.814757
C 89.037266 235.814757 88.586395 236.001514 88.254013 236.333897
C 87.92163 236.666279 87.734873 237.11715 87.734873 237.587211
C 87.734873 238.057271 87.92163 238.508142 88.254013 238.840525
C 88.586395 239.172908 89.037266 239.359664 89.507327 239.359664
z
" style="stroke:#000000;stroke-width:0.886227;"/>
    <path clip-path="url(#p076334c4db)" d="M 82.881724 157.896807
C 83.351784 157.896807 83.802655 157.71005 84.135038 157.377668
C 84.467421 157.045285 84.654178 156.594414 84.654178 156.124353
C 84.654178 155.654293 84.467421 155.203422 84.135038 154.871039
C 83.802655 154.538657 83.351784 154.3519 82.881724 154.3519
C 82.411663 154.3519 81.960792 154.538657 81.62841 154.871039
C 81.296027 155.203422 81.10927 155.654293 81.10927 156.124353
C 81.10927 156.594414 81.296027 157.045285 81.62841 157.377668
C 81.960792 157.71005 82.411663 157.896807 82.881724 157.896807
z
" style="stroke:#000000;stroke-width:0.886227;"/>
    <path clip-path="url(#p076334c4db)" d="M 76.256121 170.239664
C 76.726181 170.239664 77.177052 170.052908 77.509435 169.720525
C 77.841818 169.388142 78.028575 168.937271 78.028575 168.467211
C 78.028575 167.99715 77.841818 167.546279 77.509435 167.213897
C 77.177052 166.881514 76.726181 166.694757 76.256121 166.694757
C 75.78606 166.694757 75.335189 166.881514 75.002807 167.213897
C 74.670424 167.546279 74.483667 167.99715 74.483667 168.467211
C 74.483667 168.937271 74.670424 169.388142 75.002807 169.720525
C 75.335189 170.052908 75.78606 170.239664 76.256121 170.239664
z
" style="stroke:#000000;stroke-width:0.886227;"/>
    <path clip-path="url(#p076334c4db)" d="M 69.630518 143.085379
C 70.100578 143.085379 70.551449 142.898622 70.883832 142.566239
C 71.216215 142.233856 71.402972 141.782985 71.402972 141.312925
C 71.402972 140.842865 71.216215 140.391994 70.883832 140.059611
C 70.551449 139.727228 70.100578 139.540471 69.630518 139.540471
C 69.160457 139.540471 68.709586 139.727228 68.377204 140.059611
C 68.044821 140.391994 67.858064 140.842865 67.858064 141.312925
C 67.858064 141.782985 68.044821 142.233856 68.377204 142.566239
C 68.709586 142.898622 69.160457 143.085379 69.630518 143.085379
z
" style="stroke:#000000;stroke-width:0.886227;"/>
    <path clip-path="url(#p076334c4db)" d="M 63.004915 113.462522
C 63.474975 113.462522 63.925846 113.275765 64.258229 112.943382
C 64.590612 112.610999 64.777369 112.160128 64.777369 111.690068
C 64.777369 111.220008 64.590612 110.769136 64.258229 110.436754
C 63.925846 110.104371 63.474975 109.917614 63.004915 109.917614
C 62.534855 109.917614 62.083983 110.104371 61.751601 110.436754
C 61.419218 110.769136 61.232461 111.220008 61.232461 111.690068
C 61.232461 112.160128 61.419218 112.610999 61.751601 112.943382
C 62.083983 113.275765 62.534855 113.462522 63.004915 113.462522
z
" style="stroke:#000000;stroke-width:0.886227;"/>
   </g>
  </g>
  <g id="text_13">
   <!-- CAMERA $v.s.$ ORA pathway ranking -->
   <defs>
    <path d="M 7.171875 54.6875
L 16.703125 54.6875
L 24.703125 8.203125
L 50.875 54.6875
L 60.40625 54.6875
L 29.296875 0
L 17.1875 0
z
" id="DejaVuSans-Oblique-118"/>
    <path d="M 10.6875 12.40625
L 21 12.40625
L 21 0
L 10.6875 0
z
" id="DejaVuSans-46"/>
    <path d="M 50 53.078125
L 48.296875 44.578125
Q 44.734375 46.53125 40.765625 47.5
Q 36.8125 48.484375 32.625 48.484375
Q 25.53125 48.484375 21.453125 46.0625
Q 17.390625 43.65625 17.390625 39.5
Q 17.390625 34.671875 26.859375 32.078125
Q 27.59375 31.890625 27.9375 31.78125
L 30.8125 30.90625
Q 39.796875 28.421875 42.796875 25.6875
Q 45.796875 22.953125 45.796875 18.21875
Q 45.796875 9.515625 38.890625 4.046875
Q 31.984375 -1.421875 20.796875 -1.421875
Q 16.453125 -1.421875 11.671875 -0.578125
Q 6.890625 0.25 1.125 2
L 2.875 11.28125
Q 7.8125 8.734375 12.59375 7.421875
Q 17.390625 6.109375 21.78125 6.109375
Q 28.375 6.109375 32.5 8.9375
Q 36.625 11.765625 36.625 16.109375
Q 36.625 20.796875 25.78125 23.6875
L 24.859375 23.921875
L 21.78125 24.703125
Q 14.9375 26.515625 11.765625 29.46875
Q 8.59375 32.421875 8.59375 37.015625
Q 8.59375 45.75 15.15625 50.875
Q 21.734375 56 33.015625 56
Q 37.453125 56 41.671875 55.265625
Q 45.90625 54.546875 50 53.078125
z
" id="DejaVuSans-Oblique-115"/>
   </defs>
   <g transform="translate(85.172188 11.4)scale(0.15 -0.15)">
    <use transform="translate(0 0.015625)" xlink:href="#DejaVuSans-67"/>
    <use transform="translate(69.824219 0.015625)" xlink:href="#DejaVuSans-65"/>
    <use transform="translate(138.232422 0.015625)" xlink:href="#DejaVuSans-77"/>
    <use transform="translate(224.511719 0.015625)" xlink:href="#DejaVuSans-69"/>
    <use transform="translate(287.695312 0.015625)" xlink:href="#DejaVuSans-82"/>
    <use transform="translate(357.177734 0.015625)" xlink:href="#DejaVuSans-65"/>
    <use transform="translate(425.585938 0.015625)" xlink:href="#DejaVuSans-32"/>
    <use transform="translate(457.373047 0.015625)" xlink:href="#DejaVuSans-Oblique-118"/>
    <use transform="translate(516.552734 0.015625)" xlink:href="#DejaVuSans-46"/>
    <use transform="translate(567.822266 0.015625)" xlink:href="#DejaVuSans-Oblique-115"/>
    <use transform="translate(619.921875 0.015625)" xlink:href="#DejaVuSans-46"/>
    <use transform="translate(671.191406 0.015625)" xlink:href="#DejaVuSans-32"/>
    <use transform="translate(702.978516 0.015625)" xlink:href="#DejaVuSans-79"/>
    <use transform="translate(781.689453 0.015625)" xlink:href="#DejaVuSans-82"/>
    <use transform="translate(851.171875 0.015625)" xlink:href="#DejaVuSans-65"/>
    <use transform="translate(919.580078 0.015625)" xlink:href="#DejaVuSans-32"/>
    <use transform="translate(951.367188 0.015625)" xlink:href="#DejaVuSans-112"/>
    <use transform="translate(1014.84375 0.015625)" xlink:href="#DejaVuSans-97"/>
    <use transform="translate(1076.123047 0.015625)" xlink:href="#DejaVuSans-116"/>
    <use transform="translate(1115.332031 0.015625)" xlink:href="#DejaVuSans-104"/>
    <use transform="translate(1178.710938 0.015625)" xlink:href="#DejaVuSans-119"/>
    <use transform="translate(1260.498047 0.015625)" xlink:href="#DejaVuSans-97"/>
    <use transform="translate(1321.777344 0.015625)" xlink:href="#DejaVuSans-121"/>
    <use transform="translate(1380.957031 0.015625)" xlink:href="#DejaVuSans-32"/>
    <use transform="translate(1412.744141 0.015625)" xlink:href="#DejaVuSans-114"/>
    <use transform="translate(1453.857422 0.015625)" xlink:href="#DejaVuSans-97"/>
    <use transform="translate(1515.136719 0.015625)" xlink:href="#DejaVuSans-110"/>
    <use transform="translate(1578.515625 0.015625)" xlink:href="#DejaVuSans-107"/>
    <use transform="translate(1636.425781 0.015625)" xlink:href="#DejaVuSans-105"/>
    <use transform="translate(1664.208984 0.015625)" xlink:href="#DejaVuSans-110"/>
    <use transform="translate(1727.587891 0.015625)" xlink:href="#DejaVuSans-103"/>
   </g>
  </g>
 </g>
 <defs>
  <clipPath id="p076334c4db">
   <rect height="266.112" width="357.12" x="46.772188" y="20.599782"/>
  </clipPath>
 </defs>
</svg>
