<?xml version="1.0" encoding="utf-8" standalone="no"?>
<!DOCTYPE svg PUBLIC "-//W3C//DTD SVG 1.1//EN"
  "http://www.w3.org/Graphics/SVG/1.1/DTD/svg11.dtd">
<!-- Created with matplotlib (https://matplotlib.org/) -->
<svg height="322.176313pt" version="1.1" viewBox="0 0 406.642188 322.176313" width="406.642188pt" xmlns="http://www.w3.org/2000/svg" xmlns:xlink="http://www.w3.org/1999/xlink">
 <defs>
  <style type="text/css">
*{stroke-linecap:butt;stroke-linejoin:round;}
  </style>
 </defs>
 <g id="figure_1">
  <g id="patch_1">
   <path d="M 0 322.176313
L 406.642188 322.176313
L 406.642188 0
L 0 0
z
" style="fill:#ffffff;stroke:#ffffff;stroke-linejoin:miter;"/>
  </g>
  <g id="axes_1">
   <g id="patch_2">
    <path d="M 46.772188 286.695376
L 403.892188 286.695376
L 403.892188 20.583376
L 46.772188 20.583376
z
" style="fill:none;"/>
   </g>
   <g id="matplotlib.axis_1">
    <g id="xtick_1">
     <g id="line2d_1">
      <path clip-path="url(#p145a51f6f5)" d="M 63.004222 286.695376
L 63.004222 20.583376
" style="fill:none;stroke:#e5e5e5;stroke-width:0.8;"/>
     </g>
     <g id="line2d_2">
      <path d="M 63.004222 286.695376
" style="fill:none;stroke:#000000;stroke-width:1.5;"/>
      <defs>
       <path d="M 0 0
L 0 2.75
" id="m8374d36b55" style="stroke:#000000;"/>
      </defs>
      <g>
       <use style="stroke:#000000;" x="63.004222" xlink:href="#m8374d36b55" y="286.695376"/>
      </g>
     </g>
     <g id="text_1">
      <!-- 0 -->
      <defs>
       <path d="M 31.78125 66.40625
Q 24.171875 66.40625 20.328125 58.90625
Q 16.5 51.421875 16.5 36.375
Q 16.5 21.390625 20.328125 13.890625
Q 24.171875 6.390625 31.78125 6.390625
Q 39.453125 6.390625 43.28125 13.890625
Q 47.125 21.390625 47.125 36.375
Q 47.125 51.421875 43.28125 58.90625
Q 39.453125 66.40625 31.78125 66.40625
z
M 31.78125 74.21875
Q 44.046875 74.21875 50.515625 64.515625
Q 56.984375 54.828125 56.984375 36.375
Q 56.984375 17.96875 50.515625 8.265625
Q 44.046875 -1.421875 31.78125 -1.421875
Q 19.53125 -1.421875 13.0625 8.265625
Q 6.59375 17.96875 6.59375 36.375
Q 6.59375 54.828125 13.0625 64.515625
Q 19.53125 74.21875 31.78125 74.21875
z
" id="DejaVuSans-48"/>
      </defs>
      <g style="fill:#4d4d4d;" transform="translate(59.186722 300.763501)scale(0.12 -0.12)">
       <use xlink:href="#DejaVuSans-48"/>
      </g>
     </g>
    </g>
    <g id="xtick_2">
     <g id="line2d_3">
      <path clip-path="url(#p145a51f6f5)" d="M 147.033325 286.695376
L 147.033325 20.583376
" style="fill:none;stroke:#e5e5e5;stroke-width:0.8;"/>
     </g>
     <g id="line2d_4">
      <path d="M 147.033325 286.695376
" style="fill:none;stroke:#000000;stroke-width:1.5;"/>
      <g>
       <use style="stroke:#000000;" x="147.033325" xlink:href="#m8374d36b55" y="286.695376"/>
      </g>
     </g>
     <g id="text_2">
      <!-- 0.25 -->
      <defs>
       <path d="M 10.6875 12.40625
L 21 12.40625
L 21 0
L 10.6875 0
z
" id="DejaVuSans-46"/>
       <path d="M 19.1875 8.296875
L 53.609375 8.296875
L 53.609375 0
L 7.328125 0
L 7.328125 8.296875
Q 12.9375 14.109375 22.625 23.890625
Q 32.328125 33.6875 34.8125 36.53125
Q 39.546875 41.84375 41.421875 45.53125
Q 43.3125 49.21875 43.3125 52.78125
Q 43.3125 58.59375 39.234375 62.25
Q 35.15625 65.921875 28.609375 65.921875
Q 23.96875 65.921875 18.8125 64.3125
Q 13.671875 62.703125 7.8125 59.421875
L 7.8125 69.390625
Q 13.765625 71.78125 18.9375 73
Q 24.125 74.21875 28.421875 74.21875
Q 39.75 74.21875 46.484375 68.546875
Q 53.21875 62.890625 53.21875 53.421875
Q 53.21875 48.921875 51.53125 44.890625
Q 49.859375 40.875 45.40625 35.40625
Q 44.1875 33.984375 37.640625 27.21875
Q 31.109375 20.453125 19.1875 8.296875
z
" id="DejaVuSans-50"/>
       <path d="M 10.796875 72.90625
L 49.515625 72.90625
L 49.515625 64.59375
L 19.828125 64.59375
L 19.828125 46.734375
Q 21.96875 47.46875 24.109375 47.828125
Q 26.265625 48.1875 28.421875 48.1875
Q 40.625 48.1875 47.75 41.5
Q 54.890625 34.8125 54.890625 23.390625
Q 54.890625 11.625 47.5625 5.09375
Q 40.234375 -1.421875 26.90625 -1.421875
Q 22.3125 -1.421875 17.546875 -0.640625
Q 12.796875 0.140625 7.71875 1.703125
L 7.71875 11.625
Q 12.109375 9.234375 16.796875 8.0625
Q 21.484375 6.890625 26.703125 6.890625
Q 35.15625 6.890625 40.078125 11.328125
Q 45.015625 15.765625 45.015625 23.390625
Q 45.015625 31 40.078125 35.4375
Q 35.15625 39.890625 26.703125 39.890625
Q 22.75 39.890625 18.8125 39.015625
Q 14.890625 38.140625 10.796875 36.28125
z
" id="DejaVuSans-53"/>
      </defs>
      <g style="fill:#4d4d4d;" transform="translate(133.67395 300.763501)scale(0.12 -0.12)">
       <use xlink:href="#DejaVuSans-48"/>
       <use x="63.623047" xlink:href="#DejaVuSans-46"/>
       <use x="95.410156" xlink:href="#DejaVuSans-50"/>
       <use x="159.033203" xlink:href="#DejaVuSans-53"/>
      </g>
     </g>
    </g>
    <g id="xtick_3">
     <g id="line2d_5">
      <path clip-path="url(#p145a51f6f5)" d="M 231.062427 286.695376
L 231.062427 20.583376
" style="fill:none;stroke:#e5e5e5;stroke-width:0.8;"/>
     </g>
     <g id="line2d_6">
      <path d="M 231.062427 286.695376
" style="fill:none;stroke:#000000;stroke-width:1.5;"/>
      <g>
       <use style="stroke:#000000;" x="231.062427" xlink:href="#m8374d36b55" y="286.695376"/>
      </g>
     </g>
     <g id="text_3">
      <!-- 0.50 -->
      <g style="fill:#4d4d4d;" transform="translate(217.703052 300.763501)scale(0.12 -0.12)">
       <use xlink:href="#DejaVuSans-48"/>
       <use x="63.623047" xlink:href="#DejaVuSans-46"/>
       <use x="95.410156" xlink:href="#DejaVuSans-53"/>
       <use x="159.033203" xlink:href="#DejaVuSans-48"/>
      </g>
     </g>
    </g>
    <g id="xtick_4">
     <g id="line2d_7">
      <path clip-path="url(#p145a51f6f5)" d="M 315.09153 286.695376
L 315.09153 20.583376
" style="fill:none;stroke:#e5e5e5;stroke-width:0.8;"/>
     </g>
     <g id="line2d_8">
      <path d="M 315.09153 286.695376
" style="fill:none;stroke:#000000;stroke-width:1.5;"/>
      <g>
       <use style="stroke:#000000;" x="315.09153" xlink:href="#m8374d36b55" y="286.695376"/>
      </g>
     </g>
     <g id="text_4">
      <!-- 0.75 -->
      <defs>
       <path d="M 8.203125 72.90625
L 55.078125 72.90625
L 55.078125 68.703125
L 28.609375 0
L 18.3125 0
L 43.21875 64.59375
L 8.203125 64.59375
z
" id="DejaVuSans-55"/>
      </defs>
      <g style="fill:#4d4d4d;" transform="translate(301.732155 300.763501)scale(0.12 -0.12)">
       <use xlink:href="#DejaVuSans-48"/>
       <use x="63.623047" xlink:href="#DejaVuSans-46"/>
       <use x="95.410156" xlink:href="#DejaVuSans-55"/>
       <use x="159.033203" xlink:href="#DejaVuSans-53"/>
      </g>
     </g>
    </g>
    <g id="xtick_5">
     <g id="line2d_9">
      <path clip-path="url(#p145a51f6f5)" d="M 399.120633 286.695376
L 399.120633 20.583376
" style="fill:none;stroke:#e5e5e5;stroke-width:0.8;"/>
     </g>
     <g id="line2d_10">
      <path d="M 399.120633 286.695376
" style="fill:none;stroke:#000000;stroke-width:1.5;"/>
      <g>
       <use style="stroke:#000000;" x="399.120633" xlink:href="#m8374d36b55" y="286.695376"/>
      </g>
     </g>
     <g id="text_5">
      <!-- 1 -->
      <defs>
       <path d="M 12.40625 8.296875
L 28.515625 8.296875
L 28.515625 63.921875
L 10.984375 60.40625
L 10.984375 69.390625
L 28.421875 72.90625
L 38.28125 72.90625
L 38.28125 8.296875
L 54.390625 8.296875
L 54.390625 0
L 12.40625 0
z
" id="DejaVuSans-49"/>
      </defs>
      <g style="fill:#4d4d4d;" transform="translate(395.303133 300.763501)scale(0.12 -0.12)">
       <use xlink:href="#DejaVuSans-49"/>
      </g>
     </g>
    </g>
    <g id="xtick_6">
     <g id="line2d_11">
      <path clip-path="url(#p145a51f6f5)" d="M 105.018773 286.695376
L 105.018773 20.583376
" style="fill:none;stroke:#fafafa;"/>
     </g>
     <g id="line2d_12">
      <path d="M 105.018773 286.695376
" style="fill:none;stroke:#000000;stroke-width:1.5;"/>
     </g>
    </g>
    <g id="xtick_7">
     <g id="line2d_13">
      <path clip-path="url(#p145a51f6f5)" d="M 189.047876 286.695376
L 189.047876 20.583376
" style="fill:none;stroke:#fafafa;"/>
     </g>
     <g id="line2d_14">
      <path d="M 189.047876 286.695376
" style="fill:none;stroke:#000000;stroke-width:1.5;"/>
     </g>
    </g>
    <g id="xtick_8">
     <g id="line2d_15">
      <path clip-path="url(#p145a51f6f5)" d="M 273.076979 286.695376
L 273.076979 20.583376
" style="fill:none;stroke:#fafafa;"/>
     </g>
     <g id="line2d_16">
      <path d="M 273.076979 286.695376
" style="fill:none;stroke:#000000;stroke-width:1.5;"/>
     </g>
    </g>
    <g id="xtick_9">
     <g id="line2d_17">
      <path clip-path="url(#p145a51f6f5)" d="M 357.106082 286.695376
L 357.106082 20.583376
" style="fill:none;stroke:#fafafa;"/>
     </g>
     <g id="line2d_18">
      <path d="M 357.106082 286.695376
" style="fill:none;stroke:#000000;stroke-width:1.5;"/>
     </g>
    </g>
    <g id="text_6">
     <!-- Median(FDR (BH)) -->
     <defs>
      <path d="M 9.8125 72.90625
L 24.515625 72.90625
L 43.109375 23.296875
L 61.8125 72.90625
L 76.515625 72.90625
L 76.515625 0
L 66.890625 0
L 66.890625 64.015625
L 48.09375 14.015625
L 38.1875 14.015625
L 19.390625 64.015625
L 19.390625 0
L 9.8125 0
z
" id="DejaVuSans-77"/>
      <path d="M 56.203125 29.59375
L 56.203125 25.203125
L 14.890625 25.203125
Q 15.484375 15.921875 20.484375 11.0625
Q 25.484375 6.203125 34.421875 6.203125
Q 39.59375 6.203125 44.453125 7.46875
Q 49.3125 8.734375 54.109375 11.28125
L 54.109375 2.78125
Q 49.265625 0.734375 44.1875 -0.34375
Q 39.109375 -1.421875 33.890625 -1.421875
Q 20.796875 -1.421875 13.15625 6.1875
Q 5.515625 13.8125 5.515625 26.8125
Q 5.515625 40.234375 12.765625 48.109375
Q 20.015625 56 32.328125 56
Q 43.359375 56 49.78125 48.890625
Q 56.203125 41.796875 56.203125 29.59375
z
M 47.21875 32.234375
Q 47.125 39.59375 43.09375 43.984375
Q 39.0625 48.390625 32.421875 48.390625
Q 24.90625 48.390625 20.390625 44.140625
Q 15.875 39.890625 15.1875 32.171875
z
" id="DejaVuSans-101"/>
      <path d="M 45.40625 46.390625
L 45.40625 75.984375
L 54.390625 75.984375
L 54.390625 0
L 45.40625 0
L 45.40625 8.203125
Q 42.578125 3.328125 38.25 0.953125
Q 33.9375 -1.421875 27.875 -1.421875
Q 17.96875 -1.421875 11.734375 6.484375
Q 5.515625 14.40625 5.515625 27.296875
Q 5.515625 40.1875 11.734375 48.09375
Q 17.96875 56 27.875 56
Q 33.9375 56 38.25 53.625
Q 42.578125 51.265625 45.40625 46.390625
z
M 14.796875 27.296875
Q 14.796875 17.390625 18.875 11.75
Q 22.953125 6.109375 30.078125 6.109375
Q 37.203125 6.109375 41.296875 11.75
Q 45.40625 17.390625 45.40625 27.296875
Q 45.40625 37.203125 41.296875 42.84375
Q 37.203125 48.484375 30.078125 48.484375
Q 22.953125 48.484375 18.875 42.84375
Q 14.796875 37.203125 14.796875 27.296875
z
" id="DejaVuSans-100"/>
      <path d="M 9.421875 54.6875
L 18.40625 54.6875
L 18.40625 0
L 9.421875 0
z
M 9.421875 75.984375
L 18.40625 75.984375
L 18.40625 64.59375
L 9.421875 64.59375
z
" id="DejaVuSans-105"/>
      <path d="M 34.28125 27.484375
Q 23.390625 27.484375 19.1875 25
Q 14.984375 22.515625 14.984375 16.5
Q 14.984375 11.71875 18.140625 8.90625
Q 21.296875 6.109375 26.703125 6.109375
Q 34.1875 6.109375 38.703125 11.40625
Q 43.21875 16.703125 43.21875 25.484375
L 43.21875 27.484375
z
M 52.203125 31.203125
L 52.203125 0
L 43.21875 0
L 43.21875 8.296875
Q 40.140625 3.328125 35.546875 0.953125
Q 30.953125 -1.421875 24.3125 -1.421875
Q 15.921875 -1.421875 10.953125 3.296875
Q 6 8.015625 6 15.921875
Q 6 25.140625 12.171875 29.828125
Q 18.359375 34.515625 30.609375 34.515625
L 43.21875 34.515625
L 43.21875 35.40625
Q 43.21875 41.609375 39.140625 45
Q 35.0625 48.390625 27.6875 48.390625
Q 23 48.390625 18.546875 47.265625
Q 14.109375 46.140625 10.015625 43.890625
L 10.015625 52.203125
Q 14.9375 54.109375 19.578125 55.046875
Q 24.21875 56 28.609375 56
Q 40.484375 56 46.34375 49.84375
Q 52.203125 43.703125 52.203125 31.203125
z
" id="DejaVuSans-97"/>
      <path d="M 54.890625 33.015625
L 54.890625 0
L 45.90625 0
L 45.90625 32.71875
Q 45.90625 40.484375 42.875 44.328125
Q 39.84375 48.1875 33.796875 48.1875
Q 26.515625 48.1875 22.3125 43.546875
Q 18.109375 38.921875 18.109375 30.90625
L 18.109375 0
L 9.078125 0
L 9.078125 54.6875
L 18.109375 54.6875
L 18.109375 46.1875
Q 21.34375 51.125 25.703125 53.5625
Q 30.078125 56 35.796875 56
Q 45.21875 56 50.046875 50.171875
Q 54.890625 44.34375 54.890625 33.015625
z
" id="DejaVuSans-110"/>
      <path d="M 31 75.875
Q 24.46875 64.65625 21.28125 53.65625
Q 18.109375 42.671875 18.109375 31.390625
Q 18.109375 20.125 21.3125 9.0625
Q 24.515625 -2 31 -13.1875
L 23.1875 -13.1875
Q 15.875 -1.703125 12.234375 9.375
Q 8.59375 20.453125 8.59375 31.390625
Q 8.59375 42.28125 12.203125 53.3125
Q 15.828125 64.359375 23.1875 75.875
z
" id="DejaVuSans-40"/>
      <path d="M 9.8125 72.90625
L 51.703125 72.90625
L 51.703125 64.59375
L 19.671875 64.59375
L 19.671875 43.109375
L 48.578125 43.109375
L 48.578125 34.8125
L 19.671875 34.8125
L 19.671875 0
L 9.8125 0
z
" id="DejaVuSans-70"/>
      <path d="M 19.671875 64.796875
L 19.671875 8.109375
L 31.59375 8.109375
Q 46.6875 8.109375 53.6875 14.9375
Q 60.6875 21.78125 60.6875 36.53125
Q 60.6875 51.171875 53.6875 57.984375
Q 46.6875 64.796875 31.59375 64.796875
z
M 9.8125 72.90625
L 30.078125 72.90625
Q 51.265625 72.90625 61.171875 64.09375
Q 71.09375 55.28125 71.09375 36.53125
Q 71.09375 17.671875 61.125 8.828125
Q 51.171875 0 30.078125 0
L 9.8125 0
z
" id="DejaVuSans-68"/>
      <path d="M 44.390625 34.1875
Q 47.5625 33.109375 50.5625 29.59375
Q 53.5625 26.078125 56.59375 19.921875
L 66.609375 0
L 56 0
L 46.6875 18.703125
Q 43.0625 26.03125 39.671875 28.421875
Q 36.28125 30.8125 30.421875 30.8125
L 19.671875 30.8125
L 19.671875 0
L 9.8125 0
L 9.8125 72.90625
L 32.078125 72.90625
Q 44.578125 72.90625 50.734375 67.671875
Q 56.890625 62.453125 56.890625 51.90625
Q 56.890625 45.015625 53.6875 40.46875
Q 50.484375 35.9375 44.390625 34.1875
z
M 19.671875 64.796875
L 19.671875 38.921875
L 32.078125 38.921875
Q 39.203125 38.921875 42.84375 42.21875
Q 46.484375 45.515625 46.484375 51.90625
Q 46.484375 58.296875 42.84375 61.546875
Q 39.203125 64.796875 32.078125 64.796875
z
" id="DejaVuSans-82"/>
      <path id="DejaVuSans-32"/>
      <path d="M 19.671875 34.8125
L 19.671875 8.109375
L 35.5 8.109375
Q 43.453125 8.109375 47.28125 11.40625
Q 51.125 14.703125 51.125 21.484375
Q 51.125 28.328125 47.28125 31.5625
Q 43.453125 34.8125 35.5 34.8125
z
M 19.671875 64.796875
L 19.671875 42.828125
L 34.28125 42.828125
Q 41.5 42.828125 45.03125 45.53125
Q 48.578125 48.25 48.578125 53.8125
Q 48.578125 59.328125 45.03125 62.0625
Q 41.5 64.796875 34.28125 64.796875
z
M 9.8125 72.90625
L 35.015625 72.90625
Q 46.296875 72.90625 52.390625 68.21875
Q 58.5 63.53125 58.5 54.890625
Q 58.5 48.1875 55.375 44.234375
Q 52.25 40.28125 46.1875 39.3125
Q 53.46875 37.75 57.5 32.78125
Q 61.53125 27.828125 61.53125 20.40625
Q 61.53125 10.640625 54.890625 5.3125
Q 48.25 0 35.984375 0
L 9.8125 0
z
" id="DejaVuSans-66"/>
      <path d="M 9.8125 72.90625
L 19.671875 72.90625
L 19.671875 43.015625
L 55.515625 43.015625
L 55.515625 72.90625
L 65.375 72.90625
L 65.375 0
L 55.515625 0
L 55.515625 34.71875
L 19.671875 34.71875
L 19.671875 0
L 9.8125 0
z
" id="DejaVuSans-72"/>
      <path d="M 8.015625 75.875
L 15.828125 75.875
Q 23.140625 64.359375 26.78125 53.3125
Q 30.421875 42.28125 30.421875 31.390625
Q 30.421875 20.453125 26.78125 9.375
Q 23.140625 -1.703125 15.828125 -13.1875
L 8.015625 -13.1875
Q 14.5 -2 17.703125 9.0625
Q 20.90625 20.125 20.90625 31.390625
Q 20.90625 42.671875 17.703125 53.65625
Q 14.5 64.65625 8.015625 75.875
z
" id="DejaVuSans-41"/>
     </defs>
     <g transform="translate(152.117891 319.056782)scale(0.15 -0.15)">
      <use xlink:href="#DejaVuSans-77"/>
      <use x="86.279297" xlink:href="#DejaVuSans-101"/>
      <use x="147.802734" xlink:href="#DejaVuSans-100"/>
      <use x="211.279297" xlink:href="#DejaVuSans-105"/>
      <use x="239.0625" xlink:href="#DejaVuSans-97"/>
      <use x="300.341797" xlink:href="#DejaVuSans-110"/>
      <use x="363.720703" xlink:href="#DejaVuSans-40"/>
      <use x="402.734375" xlink:href="#DejaVuSans-70"/>
      <use x="460.253906" xlink:href="#DejaVuSans-68"/>
      <use x="537.255859" xlink:href="#DejaVuSans-82"/>
      <use x="606.738281" xlink:href="#DejaVuSans-32"/>
      <use x="638.525391" xlink:href="#DejaVuSans-40"/>
      <use x="677.539062" xlink:href="#DejaVuSans-66"/>
      <use x="746.142578" xlink:href="#DejaVuSans-72"/>
      <use x="821.337891" xlink:href="#DejaVuSans-41"/>
      <use x="860.351562" xlink:href="#DejaVuSans-41"/>
     </g>
    </g>
   </g>
   <g id="matplotlib.axis_2">
    <g id="ytick_1">
     <g id="line2d_19">
      <path clip-path="url(#p145a51f6f5)" d="M 46.772188 274.599376
L 403.892188 274.599376
" style="fill:none;stroke:#e5e5e5;stroke-width:0.8;"/>
     </g>
     <g id="line2d_20">
      <path d="M 46.772188 274.599376
" style="fill:none;stroke:#000000;stroke-width:1.5;"/>
      <defs>
       <path d="M 0 0
L -2.75 0
" id="m5e8a16b42f" style="stroke:#000000;"/>
      </defs>
      <g>
       <use style="stroke:#000000;" x="46.772188" xlink:href="#m5e8a16b42f" y="274.599376"/>
      </g>
     </g>
     <g id="text_7">
      <!-- 0 -->
      <g style="fill:#4d4d4d;" transform="translate(34.187188 277.910626)scale(0.12 -0.12)">
       <use xlink:href="#DejaVuSans-48"/>
      </g>
     </g>
    </g>
    <g id="ytick_2">
     <g id="line2d_21">
      <path clip-path="url(#p145a51f6f5)" d="M 46.772188 214.119376
L 403.892188 214.119376
" style="fill:none;stroke:#e5e5e5;stroke-width:0.8;"/>
     </g>
     <g id="line2d_22">
      <path d="M 46.772188 214.119376
" style="fill:none;stroke:#000000;stroke-width:1.5;"/>
      <g>
       <use style="stroke:#000000;" x="46.772188" xlink:href="#m5e8a16b42f" y="214.119376"/>
      </g>
     </g>
     <g id="text_8">
      <!-- 25 -->
      <g style="fill:#4d4d4d;" transform="translate(26.552188 217.430626)scale(0.12 -0.12)">
       <use xlink:href="#DejaVuSans-50"/>
       <use x="63.623047" xlink:href="#DejaVuSans-53"/>
      </g>
     </g>
    </g>
    <g id="ytick_3">
     <g id="line2d_23">
      <path clip-path="url(#p145a51f6f5)" d="M 46.772188 153.639376
L 403.892188 153.639376
" style="fill:none;stroke:#e5e5e5;stroke-width:0.8;"/>
     </g>
     <g id="line2d_24">
      <path d="M 46.772188 153.639376
" style="fill:none;stroke:#000000;stroke-width:1.5;"/>
      <g>
       <use style="stroke:#000000;" x="46.772188" xlink:href="#m5e8a16b42f" y="153.639376"/>
      </g>
     </g>
     <g id="text_9">
      <!-- 50 -->
      <g style="fill:#4d4d4d;" transform="translate(26.552188 156.950626)scale(0.12 -0.12)">
       <use xlink:href="#DejaVuSans-53"/>
       <use x="63.623047" xlink:href="#DejaVuSans-48"/>
      </g>
     </g>
    </g>
    <g id="ytick_4">
     <g id="line2d_25">
      <path clip-path="url(#p145a51f6f5)" d="M 46.772188 93.159376
L 403.892188 93.159376
" style="fill:none;stroke:#e5e5e5;stroke-width:0.8;"/>
     </g>
     <g id="line2d_26">
      <path d="M 46.772188 93.159376
" style="fill:none;stroke:#000000;stroke-width:1.5;"/>
      <g>
       <use style="stroke:#000000;" x="46.772188" xlink:href="#m5e8a16b42f" y="93.159376"/>
      </g>
     </g>
     <g id="text_10">
      <!-- 75 -->
      <g style="fill:#4d4d4d;" transform="translate(26.552188 96.470626)scale(0.12 -0.12)">
       <use xlink:href="#DejaVuSans-55"/>
       <use x="63.623047" xlink:href="#DejaVuSans-53"/>
      </g>
     </g>
    </g>
    <g id="ytick_5">
     <g id="line2d_27">
      <path clip-path="url(#p145a51f6f5)" d="M 46.772188 32.679376
L 403.892188 32.679376
" style="fill:none;stroke:#e5e5e5;stroke-width:0.8;"/>
     </g>
     <g id="line2d_28">
      <path d="M 46.772188 32.679376
" style="fill:none;stroke:#000000;stroke-width:1.5;"/>
      <g>
       <use style="stroke:#000000;" x="46.772188" xlink:href="#m5e8a16b42f" y="32.679376"/>
      </g>
     </g>
     <g id="text_11">
      <!-- 100 -->
      <g style="fill:#4d4d4d;" transform="translate(18.917188 35.990626)scale(0.12 -0.12)">
       <use xlink:href="#DejaVuSans-49"/>
       <use x="63.623047" xlink:href="#DejaVuSans-48"/>
       <use x="127.246094" xlink:href="#DejaVuSans-48"/>
      </g>
     </g>
    </g>
    <g id="ytick_6">
     <g id="line2d_29">
      <path clip-path="url(#p145a51f6f5)" d="M 46.772188 244.359376
L 403.892188 244.359376
" style="fill:none;stroke:#fafafa;"/>
     </g>
     <g id="line2d_30">
      <path d="M 46.772188 244.359376
" style="fill:none;stroke:#000000;stroke-width:1.5;"/>
     </g>
    </g>
    <g id="ytick_7">
     <g id="line2d_31">
      <path clip-path="url(#p145a51f6f5)" d="M 46.772188 183.879376
L 403.892188 183.879376
" style="fill:none;stroke:#fafafa;"/>
     </g>
     <g id="line2d_32">
      <path d="M 46.772188 183.879376
" style="fill:none;stroke:#000000;stroke-width:1.5;"/>
     </g>
    </g>
    <g id="ytick_8">
     <g id="line2d_33">
      <path clip-path="url(#p145a51f6f5)" d="M 46.772188 123.399376
L 403.892188 123.399376
" style="fill:none;stroke:#fafafa;"/>
     </g>
     <g id="line2d_34">
      <path d="M 46.772188 123.399376
" style="fill:none;stroke:#000000;stroke-width:1.5;"/>
     </g>
    </g>
    <g id="ytick_9">
     <g id="line2d_35">
      <path clip-path="url(#p145a51f6f5)" d="M 46.772188 62.919376
L 403.892188 62.919376
" style="fill:none;stroke:#fafafa;"/>
     </g>
     <g id="line2d_36">
      <path d="M 46.772188 62.919376
" style="fill:none;stroke:#000000;stroke-width:1.5;"/>
     </g>
    </g>
    <g id="text_12">
     <!-- Genericness (percentile of ranking) -->
     <defs>
      <path d="M 59.515625 10.40625
L 59.515625 29.984375
L 43.40625 29.984375
L 43.40625 38.09375
L 69.28125 38.09375
L 69.28125 6.78125
Q 63.578125 2.734375 56.6875 0.65625
Q 49.8125 -1.421875 42 -1.421875
Q 24.90625 -1.421875 15.25 8.5625
Q 5.609375 18.5625 5.609375 36.375
Q 5.609375 54.25 15.25 64.234375
Q 24.90625 74.21875 42 74.21875
Q 49.125 74.21875 55.546875 72.453125
Q 61.96875 70.703125 67.390625 67.28125
L 67.390625 56.78125
Q 61.921875 61.421875 55.765625 63.765625
Q 49.609375 66.109375 42.828125 66.109375
Q 29.4375 66.109375 22.71875 58.640625
Q 16.015625 51.171875 16.015625 36.375
Q 16.015625 21.625 22.71875 14.15625
Q 29.4375 6.6875 42.828125 6.6875
Q 48.046875 6.6875 52.140625 7.59375
Q 56.25 8.5 59.515625 10.40625
z
" id="DejaVuSans-71"/>
      <path d="M 41.109375 46.296875
Q 39.59375 47.171875 37.8125 47.578125
Q 36.03125 48 33.890625 48
Q 26.265625 48 22.1875 43.046875
Q 18.109375 38.09375 18.109375 28.8125
L 18.109375 0
L 9.078125 0
L 9.078125 54.6875
L 18.109375 54.6875
L 18.109375 46.1875
Q 20.953125 51.171875 25.484375 53.578125
Q 30.03125 56 36.53125 56
Q 37.453125 56 38.578125 55.875
Q 39.703125 55.765625 41.0625 55.515625
z
" id="DejaVuSans-114"/>
      <path d="M 48.78125 52.59375
L 48.78125 44.1875
Q 44.96875 46.296875 41.140625 47.34375
Q 37.3125 48.390625 33.40625 48.390625
Q 24.65625 48.390625 19.8125 42.84375
Q 14.984375 37.3125 14.984375 27.296875
Q 14.984375 17.28125 19.8125 11.734375
Q 24.65625 6.203125 33.40625 6.203125
Q 37.3125 6.203125 41.140625 7.25
Q 44.96875 8.296875 48.78125 10.40625
L 48.78125 2.09375
Q 45.015625 0.34375 40.984375 -0.53125
Q 36.96875 -1.421875 32.421875 -1.421875
Q 20.0625 -1.421875 12.78125 6.34375
Q 5.515625 14.109375 5.515625 27.296875
Q 5.515625 40.671875 12.859375 48.328125
Q 20.21875 56 33.015625 56
Q 37.15625 56 41.109375 55.140625
Q 45.0625 54.296875 48.78125 52.59375
z
" id="DejaVuSans-99"/>
      <path d="M 44.28125 53.078125
L 44.28125 44.578125
Q 40.484375 46.53125 36.375 47.5
Q 32.28125 48.484375 27.875 48.484375
Q 21.1875 48.484375 17.84375 46.4375
Q 14.5 44.390625 14.5 40.28125
Q 14.5 37.15625 16.890625 35.375
Q 19.28125 33.59375 26.515625 31.984375
L 29.59375 31.296875
Q 39.15625 29.25 43.1875 25.515625
Q 47.21875 21.78125 47.21875 15.09375
Q 47.21875 7.46875 41.1875 3.015625
Q 35.15625 -1.421875 24.609375 -1.421875
Q 20.21875 -1.421875 15.453125 -0.5625
Q 10.6875 0.296875 5.421875 2
L 5.421875 11.28125
Q 10.40625 8.6875 15.234375 7.390625
Q 20.0625 6.109375 24.8125 6.109375
Q 31.15625 6.109375 34.5625 8.28125
Q 37.984375 10.453125 37.984375 14.40625
Q 37.984375 18.0625 35.515625 20.015625
Q 33.0625 21.96875 24.703125 23.78125
L 21.578125 24.515625
Q 13.234375 26.265625 9.515625 29.90625
Q 5.8125 33.546875 5.8125 39.890625
Q 5.8125 47.609375 11.28125 51.796875
Q 16.75 56 26.8125 56
Q 31.78125 56 36.171875 55.265625
Q 40.578125 54.546875 44.28125 53.078125
z
" id="DejaVuSans-115"/>
      <path d="M 18.109375 8.203125
L 18.109375 -20.796875
L 9.078125 -20.796875
L 9.078125 54.6875
L 18.109375 54.6875
L 18.109375 46.390625
Q 20.953125 51.265625 25.265625 53.625
Q 29.59375 56 35.59375 56
Q 45.5625 56 51.78125 48.09375
Q 58.015625 40.1875 58.015625 27.296875
Q 58.015625 14.40625 51.78125 6.484375
Q 45.5625 -1.421875 35.59375 -1.421875
Q 29.59375 -1.421875 25.265625 0.953125
Q 20.953125 3.328125 18.109375 8.203125
z
M 48.6875 27.296875
Q 48.6875 37.203125 44.609375 42.84375
Q 40.53125 48.484375 33.40625 48.484375
Q 26.265625 48.484375 22.1875 42.84375
Q 18.109375 37.203125 18.109375 27.296875
Q 18.109375 17.390625 22.1875 11.75
Q 26.265625 6.109375 33.40625 6.109375
Q 40.53125 6.109375 44.609375 11.75
Q 48.6875 17.390625 48.6875 27.296875
z
" id="DejaVuSans-112"/>
      <path d="M 18.3125 70.21875
L 18.3125 54.6875
L 36.8125 54.6875
L 36.8125 47.703125
L 18.3125 47.703125
L 18.3125 18.015625
Q 18.3125 11.328125 20.140625 9.421875
Q 21.96875 7.515625 27.59375 7.515625
L 36.8125 7.515625
L 36.8125 0
L 27.59375 0
Q 17.1875 0 13.234375 3.875
Q 9.28125 7.765625 9.28125 18.015625
L 9.28125 47.703125
L 2.6875 47.703125
L 2.6875 54.6875
L 9.28125 54.6875
L 9.28125 70.21875
z
" id="DejaVuSans-116"/>
      <path d="M 9.421875 75.984375
L 18.40625 75.984375
L 18.40625 0
L 9.421875 0
z
" id="DejaVuSans-108"/>
      <path d="M 30.609375 48.390625
Q 23.390625 48.390625 19.1875 42.75
Q 14.984375 37.109375 14.984375 27.296875
Q 14.984375 17.484375 19.15625 11.84375
Q 23.34375 6.203125 30.609375 6.203125
Q 37.796875 6.203125 41.984375 11.859375
Q 46.1875 17.53125 46.1875 27.296875
Q 46.1875 37.015625 41.984375 42.703125
Q 37.796875 48.390625 30.609375 48.390625
z
M 30.609375 56
Q 42.328125 56 49.015625 48.375
Q 55.71875 40.765625 55.71875 27.296875
Q 55.71875 13.875 49.015625 6.21875
Q 42.328125 -1.421875 30.609375 -1.421875
Q 18.84375 -1.421875 12.171875 6.21875
Q 5.515625 13.875 5.515625 27.296875
Q 5.515625 40.765625 12.171875 48.375
Q 18.84375 56 30.609375 56
z
" id="DejaVuSans-111"/>
      <path d="M 37.109375 75.984375
L 37.109375 68.5
L 28.515625 68.5
Q 23.6875 68.5 21.796875 66.546875
Q 19.921875 64.59375 19.921875 59.515625
L 19.921875 54.6875
L 34.71875 54.6875
L 34.71875 47.703125
L 19.921875 47.703125
L 19.921875 0
L 10.890625 0
L 10.890625 47.703125
L 2.296875 47.703125
L 2.296875 54.6875
L 10.890625 54.6875
L 10.890625 58.5
Q 10.890625 67.625 15.140625 71.796875
Q 19.390625 75.984375 28.609375 75.984375
z
" id="DejaVuSans-102"/>
      <path d="M 9.078125 75.984375
L 18.109375 75.984375
L 18.109375 31.109375
L 44.921875 54.6875
L 56.390625 54.6875
L 27.390625 29.109375
L 57.625 0
L 45.90625 0
L 18.109375 26.703125
L 18.109375 0
L 9.078125 0
z
" id="DejaVuSans-107"/>
      <path d="M 45.40625 27.984375
Q 45.40625 37.75 41.375 43.109375
Q 37.359375 48.484375 30.078125 48.484375
Q 22.859375 48.484375 18.828125 43.109375
Q 14.796875 37.75 14.796875 27.984375
Q 14.796875 18.265625 18.828125 12.890625
Q 22.859375 7.515625 30.078125 7.515625
Q 37.359375 7.515625 41.375 12.890625
Q 45.40625 18.265625 45.40625 27.984375
z
M 54.390625 6.78125
Q 54.390625 -7.171875 48.1875 -13.984375
Q 42 -20.796875 29.203125 -20.796875
Q 24.46875 -20.796875 20.265625 -20.09375
Q 16.0625 -19.390625 12.109375 -17.921875
L 12.109375 -9.1875
Q 16.0625 -11.328125 19.921875 -12.34375
Q 23.78125 -13.375 27.78125 -13.375
Q 36.625 -13.375 41.015625 -8.765625
Q 45.40625 -4.15625 45.40625 5.171875
L 45.40625 9.625
Q 42.625 4.78125 38.28125 2.390625
Q 33.9375 0 27.875 0
Q 17.828125 0 11.671875 7.65625
Q 5.515625 15.328125 5.515625 27.984375
Q 5.515625 40.671875 11.671875 48.328125
Q 17.828125 56 27.875 56
Q 33.9375 56 38.28125 53.609375
Q 42.625 51.21875 45.40625 46.390625
L 45.40625 54.6875
L 54.390625 54.6875
z
" id="DejaVuSans-103"/>
     </defs>
     <g transform="translate(11.397656 284.455126)rotate(-90)scale(0.15 -0.15)">
      <use xlink:href="#DejaVuSans-71"/>
      <use x="77.490234" xlink:href="#DejaVuSans-101"/>
      <use x="139.013672" xlink:href="#DejaVuSans-110"/>
      <use x="202.392578" xlink:href="#DejaVuSans-101"/>
      <use x="263.916016" xlink:href="#DejaVuSans-114"/>
      <use x="305.029297" xlink:href="#DejaVuSans-105"/>
      <use x="332.8125" xlink:href="#DejaVuSans-99"/>
      <use x="387.792969" xlink:href="#DejaVuSans-110"/>
      <use x="451.171875" xlink:href="#DejaVuSans-101"/>
      <use x="512.695312" xlink:href="#DejaVuSans-115"/>
      <use x="564.794922" xlink:href="#DejaVuSans-115"/>
      <use x="616.894531" xlink:href="#DejaVuSans-32"/>
      <use x="648.681641" xlink:href="#DejaVuSans-40"/>
      <use x="687.695312" xlink:href="#DejaVuSans-112"/>
      <use x="751.171875" xlink:href="#DejaVuSans-101"/>
      <use x="812.695312" xlink:href="#DejaVuSans-114"/>
      <use x="853.777344" xlink:href="#DejaVuSans-99"/>
      <use x="908.757812" xlink:href="#DejaVuSans-101"/>
      <use x="970.28125" xlink:href="#DejaVuSans-110"/>
      <use x="1033.660156" xlink:href="#DejaVuSans-116"/>
      <use x="1072.869141" xlink:href="#DejaVuSans-105"/>
      <use x="1100.652344" xlink:href="#DejaVuSans-108"/>
      <use x="1128.435547" xlink:href="#DejaVuSans-101"/>
      <use x="1189.958984" xlink:href="#DejaVuSans-32"/>
      <use x="1221.746094" xlink:href="#DejaVuSans-111"/>
      <use x="1282.927734" xlink:href="#DejaVuSans-102"/>
      <use x="1318.132812" xlink:href="#DejaVuSans-32"/>
      <use x="1349.919922" xlink:href="#DejaVuSans-114"/>
      <use x="1391.033203" xlink:href="#DejaVuSans-97"/>
      <use x="1452.3125" xlink:href="#DejaVuSans-110"/>
      <use x="1515.691406" xlink:href="#DejaVuSans-107"/>
      <use x="1573.601562" xlink:href="#DejaVuSans-105"/>
      <use x="1601.384766" xlink:href="#DejaVuSans-110"/>
      <use x="1664.763672" xlink:href="#DejaVuSans-103"/>
      <use x="1728.240234" xlink:href="#DejaVuSans-41"/>
     </g>
    </g>
   </g>
   <g id="PathCollection_1">
    <path clip-path="url(#p145a51f6f5)" d="M 63.004915 34.45183
C 63.474975 34.45183 63.925846 34.265073 64.258229 33.93269
C 64.590612 33.600307 64.777369 33.149436 64.777369 32.679376
C 64.777369 32.209316 64.590612 31.758444 64.258229 31.426062
C 63.925846 31.093679 63.474975 30.906922 63.004915 30.906922
C 62.534855 30.906922 62.083983 31.093679 61.751601 31.426062
C 61.419218 31.758444 61.232461 32.209316 61.232461 32.679376
C 61.232461 33.149436 61.419218 33.600307 61.751601 33.93269
C 62.083983 34.265073 62.534855 34.45183 63.004915 34.45183
z
" style="stroke:#000000;stroke-width:0.886227;"/>
    <path clip-path="url(#p145a51f6f5)" d="M 63.02102 39.388973
C 63.49108 39.388973 63.941952 39.202216 64.274334 38.869833
C 64.606717 38.53745 64.793474 38.086579 64.793474 37.616519
C 64.793474 37.146458 64.606717 36.695587 64.274334 36.363205
C 63.941952 36.030822 63.49108 35.844065 63.02102 35.844065
C 62.55096 35.844065 62.100089 36.030822 61.767706 36.363205
C 61.435323 36.695587 61.248566 37.146458 61.248566 37.616519
C 61.248566 38.086579 61.435323 38.53745 61.767706 38.869833
C 62.100089 39.202216 62.55096 39.388973 63.02102 39.388973
z
" style="stroke:#000000;stroke-width:0.886227;"/>
    <path clip-path="url(#p145a51f6f5)" d="M 63.133302 44.326115
C 63.603362 44.326115 64.054233 44.139358 64.386616 43.806976
C 64.718999 43.474593 64.905756 43.023722 64.905756 42.553662
C 64.905756 42.083601 64.718999 41.63273 64.386616 41.300347
C 64.054233 40.967965 63.603362 40.781208 63.133302 40.781208
C 62.663242 40.781208 62.212371 40.967965 61.879988 41.300347
C 61.547605 41.63273 61.360848 42.083601 61.360848 42.553662
C 61.360848 43.023722 61.547605 43.474593 61.879988 43.806976
C 62.212371 44.139358 62.663242 44.326115 63.133302 44.326115
z
" style="stroke:#000000;stroke-width:0.886227;"/>
    <path clip-path="url(#p145a51f6f5)" d="M 63.195243 49.263258
C 63.665304 49.263258 64.116175 49.076501 64.448558 48.744119
C 64.78094 48.411736 64.967697 47.960865 64.967697 47.490804
C 64.967697 47.020744 64.78094 46.569873 64.448558 46.23749
C 64.116175 45.905107 63.665304 45.718351 63.195243 45.718351
C 62.725183 45.718351 62.274312 45.905107 61.941929 46.23749
C 61.609547 46.569873 61.42279 47.020744 61.42279 47.490804
C 61.42279 47.960865 61.609547 48.411736 61.941929 48.744119
C 62.274312 49.076501 62.725183 49.263258 63.195243 49.263258
z
" style="stroke:#000000;stroke-width:0.886227;"/>
    <path clip-path="url(#p145a51f6f5)" d="M 63.428891 54.200401
C 63.898952 54.200401 64.349823 54.013644 64.682206 53.681261
C 65.014588 53.348879 65.201345 52.898008 65.201345 52.427947
C 65.201345 51.957887 65.014588 51.507016 64.682206 51.174633
C 64.349823 50.84225 63.898952 50.655493 63.428891 50.655493
C 62.958831 50.655493 62.50796 50.84225 62.175577 51.174633
C 61.843194 51.507016 61.656438 51.957887 61.656438 52.427947
C 61.656438 52.898008 61.843194 53.348879 62.175577 53.681261
C 62.50796 54.013644 62.958831 54.200401 63.428891 54.200401
z
" style="stroke:#000000;stroke-width:0.886227;"/>
    <path clip-path="url(#p145a51f6f5)" d="M 63.619393 59.137544
C 64.089453 59.137544 64.540324 58.950787 64.872707 58.618404
C 65.20509 58.286021 65.391847 57.83515 65.391847 57.36509
C 65.391847 56.89503 65.20509 56.444159 64.872707 56.111776
C 64.540324 55.779393 64.089453 55.592636 63.619393 55.592636
C 63.149333 55.592636 62.698461 55.779393 62.366079 56.111776
C 62.033696 56.444159 61.846939 56.89503 61.846939 57.36509
C 61.846939 57.83515 62.033696 58.286021 62.366079 58.618404
C 62.698461 58.950787 63.149333 59.137544 63.619393 59.137544
z
" style="stroke:#000000;stroke-width:0.886227;"/>
    <path clip-path="url(#p145a51f6f5)" d="M 64.05933 64.074687
C 64.529391 64.074687 64.980262 63.88793 65.312644 63.555547
C 65.645027 63.223164 65.831784 62.772293 65.831784 62.302233
C 65.831784 61.832173 65.645027 61.381302 65.312644 61.048919
C 64.980262 60.716536 64.529391 60.529779 64.05933 60.529779
C 63.58927 60.529779 63.138399 60.716536 62.806016 61.048919
C 62.473633 61.381302 62.286876 61.832173 62.286876 62.302233
C 62.286876 62.772293 62.473633 63.223164 62.806016 63.555547
C 63.138399 63.88793 63.58927 64.074687 64.05933 64.074687
z
" style="stroke:#000000;stroke-width:0.886227;"/>
    <path clip-path="url(#p145a51f6f5)" d="M 64.452913 69.01183
C 64.922973 69.01183 65.373844 68.825073 65.706227 68.49269
C 66.03861 68.160307 66.225367 67.709436 66.225367 67.239376
C 66.225367 66.769316 66.03861 66.318444 65.706227 65.986062
C 65.373844 65.653679 64.922973 65.466922 64.452913 65.466922
C 63.982852 65.466922 63.531981 65.653679 63.199599 65.986062
C 62.867216 66.318444 62.680459 66.769316 62.680459 67.239376
C 62.680459 67.709436 62.867216 68.160307 63.199599 68.49269
C 63.531981 68.825073 63.982852 69.01183 64.452913 69.01183
z
" style="stroke:#000000;stroke-width:0.886227;"/>
    <path clip-path="url(#p145a51f6f5)" d="M 65.950927 73.948973
C 66.420987 73.948973 66.871858 73.762216 67.204241 73.429833
C 67.536624 73.09745 67.723381 72.646579 67.723381 72.176519
C 67.723381 71.706458 67.536624 71.255587 67.204241 70.923205
C 66.871858 70.590822 66.420987 70.404065 65.950927 70.404065
C 65.480867 70.404065 65.029996 70.590822 64.697613 70.923205
C 64.36523 71.255587 64.178473 71.706458 64.178473 72.176519
C 64.178473 72.646579 64.36523 73.09745 64.697613 73.429833
C 65.029996 73.762216 65.480867 73.948973 65.950927 73.948973
z
" style="stroke:#000000;stroke-width:0.886227;"/>
    <path clip-path="url(#p145a51f6f5)" d="M 66.400669 78.886115
C 66.870729 78.886115 67.3216 78.699358 67.653983 78.366976
C 67.986366 78.034593 68.173123 77.583722 68.173123 77.113662
C 68.173123 76.643601 67.986366 76.19273 67.653983 75.860347
C 67.3216 75.527965 66.870729 75.341208 66.400669 75.341208
C 65.930609 75.341208 65.479738 75.527965 65.147355 75.860347
C 64.814972 76.19273 64.628215 76.643601 64.628215 77.113662
C 64.628215 77.583722 64.814972 78.034593 65.147355 78.366976
C 65.479738 78.699358 65.930609 78.886115 66.400669 78.886115
z
" style="stroke:#000000;stroke-width:0.886227;"/>
    <path clip-path="url(#p145a51f6f5)" d="M 69.465282 83.823258
C 69.935342 83.823258 70.386213 83.636501 70.718596 83.304119
C 71.050979 82.971736 71.237735 82.520865 71.237735 82.050804
C 71.237735 81.580744 71.050979 81.129873 70.718596 80.79749
C 70.386213 80.465107 69.935342 80.278351 69.465282 80.278351
C 68.995221 80.278351 68.54435 80.465107 68.211967 80.79749
C 67.879585 81.129873 67.692828 81.580744 67.692828 82.050804
C 67.692828 82.520865 67.879585 82.971736 68.211967 83.304119
C 68.54435 83.636501 68.995221 83.823258 69.465282 83.823258
z
" style="stroke:#000000;stroke-width:0.886227;"/>
    <path clip-path="url(#p145a51f6f5)" d="M 74.764706 93.697544
C 75.234766 93.697544 75.685637 93.510787 76.01802 93.178404
C 76.350402 92.846021 76.537159 92.39515 76.537159 91.92509
C 76.537159 91.45503 76.350402 91.004159 76.01802 90.671776
C 75.685637 90.339393 75.234766 90.152636 74.764706 90.152636
C 74.294645 90.152636 73.843774 90.339393 73.511391 90.671776
C 73.179009 91.004159 72.992252 91.45503 72.992252 91.92509
C 72.992252 92.39515 73.179009 92.846021 73.511391 93.178404
C 73.843774 93.510787 74.294645 93.697544 74.764706 93.697544
z
" style="stroke:#000000;stroke-width:0.886227;"/>
    <path clip-path="url(#p145a51f6f5)" d="M 70.365078 88.760401
C 70.835138 88.760401 71.286009 88.573644 71.618392 88.241261
C 71.950775 87.908879 72.137531 87.458008 72.137531 86.987947
C 72.137531 86.517887 71.950775 86.067016 71.618392 85.734633
C 71.286009 85.40225 70.835138 85.215493 70.365078 85.215493
C 69.895017 85.215493 69.444146 85.40225 69.111763 85.734633
C 68.779381 86.067016 68.592624 86.517887 68.592624 86.987947
C 68.592624 87.458008 68.779381 87.908879 69.111763 88.241261
C 69.444146 88.573644 69.895017 88.760401 70.365078 88.760401
z
" style="stroke:#000000;stroke-width:0.886227;"/>
    <path clip-path="url(#p145a51f6f5)" d="M 82.675708 101.103258
C 83.145769 101.103258 83.59664 100.916501 83.929023 100.584119
C 84.261405 100.251736 84.448162 99.800865 84.448162 99.330804
C 84.448162 98.860744 84.261405 98.409873 83.929023 98.07749
C 83.59664 97.745107 83.145769 97.558351 82.675708 97.558351
C 82.205648 97.558351 81.754777 97.745107 81.422394 98.07749
C 81.090012 98.409873 80.903255 98.860744 80.903255 99.330804
C 80.903255 99.800865 81.090012 100.251736 81.422394 100.584119
C 81.754777 100.916501 82.205648 101.103258 82.675708 101.103258
z
" style="stroke:#000000;stroke-width:0.886227;"/>
    <path clip-path="url(#p145a51f6f5)" d="M 82.675708 101.103258
C 83.145769 101.103258 83.59664 100.916501 83.929023 100.584119
C 84.261405 100.251736 84.448162 99.800865 84.448162 99.330804
C 84.448162 98.860744 84.261405 98.409873 83.929023 98.07749
C 83.59664 97.745107 83.145769 97.558351 82.675708 97.558351
C 82.205648 97.558351 81.754777 97.745107 81.422394 98.07749
C 81.090012 98.409873 80.903255 98.860744 80.903255 99.330804
C 80.903255 99.800865 81.090012 100.251736 81.422394 100.584119
C 81.754777 100.916501 82.205648 101.103258 82.675708 101.103258
z
" style="stroke:#000000;stroke-width:0.886227;"/>
    <path clip-path="url(#p145a51f6f5)" d="M 87.679151 108.508973
C 88.149211 108.508973 88.600082 108.322216 88.932465 107.989833
C 89.264848 107.65745 89.451604 107.206579 89.451604 106.736519
C 89.451604 106.266458 89.264848 105.815587 88.932465 105.483205
C 88.600082 105.150822 88.149211 104.964065 87.679151 104.964065
C 87.20909 104.964065 86.758219 105.150822 86.425836 105.483205
C 86.093454 105.815587 85.906697 106.266458 85.906697 106.736519
C 85.906697 107.206579 86.093454 107.65745 86.425836 107.989833
C 86.758219 108.322216 87.20909 108.508973 87.679151 108.508973
z
" style="stroke:#000000;stroke-width:0.886227;"/>
    <path clip-path="url(#p145a51f6f5)" d="M 89.695607 113.446115
C 90.165668 113.446115 90.616539 113.259358 90.948922 112.926976
C 91.281304 112.594593 91.468061 112.143722 91.468061 111.673662
C 91.468061 111.203601 91.281304 110.75273 90.948922 110.420347
C 90.616539 110.087965 90.165668 109.901208 89.695607 109.901208
C 89.225547 109.901208 88.774676 110.087965 88.442293 110.420347
C 88.109911 110.75273 87.923154 111.203601 87.923154 111.673662
C 87.923154 112.143722 88.109911 112.594593 88.442293 112.926976
C 88.774676 113.259358 89.225547 113.446115 89.695607 113.446115
z
" style="stroke:#000000;stroke-width:0.886227;"/>
    <path clip-path="url(#p145a51f6f5)" d="M 98.790095 118.383258
C 99.260156 118.383258 99.711027 118.196501 100.043409 117.864119
C 100.375792 117.531736 100.562549 117.080865 100.562549 116.610804
C 100.562549 116.140744 100.375792 115.689873 100.043409 115.35749
C 99.711027 115.025107 99.260156 114.838351 98.790095 114.838351
C 98.320035 114.838351 97.869164 115.025107 97.536781 115.35749
C 97.204398 115.689873 97.017641 116.140744 97.017641 116.610804
C 97.017641 117.080865 97.204398 117.531736 97.536781 117.864119
C 97.869164 118.196501 98.320035 118.383258 98.790095 118.383258
z
" style="stroke:#000000;stroke-width:0.886227;"/>
    <path clip-path="url(#p145a51f6f5)" d="M 99.173204 123.320401
C 99.643264 123.320401 100.094136 123.133644 100.426518 122.801261
C 100.758901 122.468879 100.945658 122.018008 100.945658 121.547947
C 100.945658 121.077887 100.758901 120.627016 100.426518 120.294633
C 100.094136 119.96225 99.643264 119.775493 99.173204 119.775493
C 98.703144 119.775493 98.252273 119.96225 97.91989 120.294633
C 97.587507 120.627016 97.40075 121.077887 97.40075 121.547947
C 97.40075 122.018008 97.587507 122.468879 97.91989 122.801261
C 98.252273 123.133644 98.703144 123.320401 99.173204 123.320401
z
" style="stroke:#000000;stroke-width:0.886227;"/>
    <path clip-path="url(#p145a51f6f5)" d="M 100.290918 130.726115
C 100.760978 130.726115 101.211849 130.539358 101.544232 130.206976
C 101.876615 129.874593 102.063371 129.423722 102.063371 128.953662
C 102.063371 128.483601 101.876615 128.03273 101.544232 127.700347
C 101.211849 127.367965 100.760978 127.181208 100.290918 127.181208
C 99.820857 127.181208 99.369986 127.367965 99.037603 127.700347
C 98.705221 128.03273 98.518464 128.483601 98.518464 128.953662
C 98.518464 129.423722 98.705221 129.874593 99.037603 130.206976
C 99.369986 130.539358 99.820857 130.726115 100.290918 130.726115
z
" style="stroke:#000000;stroke-width:0.886227;"/>
    <path clip-path="url(#p145a51f6f5)" d="M 100.290918 130.726115
C 100.760978 130.726115 101.211849 130.539358 101.544232 130.206976
C 101.876615 129.874593 102.063371 129.423722 102.063371 128.953662
C 102.063371 128.483601 101.876615 128.03273 101.544232 127.700347
C 101.211849 127.367965 100.760978 127.181208 100.290918 127.181208
C 99.820857 127.181208 99.369986 127.367965 99.037603 127.700347
C 98.705221 128.03273 98.518464 128.483601 98.518464 128.953662
C 98.518464 129.423722 98.705221 129.874593 99.037603 130.206976
C 99.369986 130.539358 99.820857 130.726115 100.290918 130.726115
z
" style="stroke:#000000;stroke-width:0.886227;"/>
    <path clip-path="url(#p145a51f6f5)" d="M 106.092773 138.13183
C 106.562833 138.13183 107.013704 137.945073 107.346087 137.61269
C 107.678469 137.280307 107.865226 136.829436 107.865226 136.359376
C 107.865226 135.889316 107.678469 135.438444 107.346087 135.106062
C 107.013704 134.773679 106.562833 134.586922 106.092773 134.586922
C 105.622712 134.586922 105.171841 134.773679 104.839458 135.106062
C 104.507076 135.438444 104.320319 135.889316 104.320319 136.359376
C 104.320319 136.829436 104.507076 137.280307 104.839458 137.61269
C 105.171841 137.945073 105.622712 138.13183 106.092773 138.13183
z
" style="stroke:#000000;stroke-width:0.886227;"/>
    <path clip-path="url(#p145a51f6f5)" d="M 106.218199 143.068973
C 106.688259 143.068973 107.13913 142.882216 107.471513 142.549833
C 107.803896 142.21745 107.990653 141.766579 107.990653 141.296519
C 107.990653 140.826458 107.803896 140.375587 107.471513 140.043205
C 107.13913 139.710822 106.688259 139.524065 106.218199 139.524065
C 105.748139 139.524065 105.297268 139.710822 104.964885 140.043205
C 104.632502 140.375587 104.445745 140.826458 104.445745 141.296519
C 104.445745 141.766579 104.632502 142.21745 104.964885 142.549833
C 105.297268 142.882216 105.748139 143.068973 106.218199 143.068973
z
" style="stroke:#000000;stroke-width:0.886227;"/>
    <path clip-path="url(#p145a51f6f5)" d="M 116.42697 152.943258
C 116.89703 152.943258 117.347901 152.756501 117.680284 152.424119
C 118.012667 152.091736 118.199424 151.640865 118.199424 151.170804
C 118.199424 150.700744 118.012667 150.249873 117.680284 149.91749
C 117.347901 149.585107 116.89703 149.398351 116.42697 149.398351
C 115.95691 149.398351 115.506039 149.585107 115.173656 149.91749
C 114.841273 150.249873 114.654516 150.700744 114.654516 151.170804
C 114.654516 151.640865 114.841273 152.091736 115.173656 152.424119
C 115.506039 152.756501 115.95691 152.943258 116.42697 152.943258
z
" style="stroke:#000000;stroke-width:0.886227;"/>
    <path clip-path="url(#p145a51f6f5)" d="M 109.923991 148.006115
C 110.394052 148.006115 110.844923 147.819358 111.177306 147.486976
C 111.509688 147.154593 111.696445 146.703722 111.696445 146.233662
C 111.696445 145.763601 111.509688 145.31273 111.177306 144.980347
C 110.844923 144.647965 110.394052 144.461208 109.923991 144.461208
C 109.453931 144.461208 109.00306 144.647965 108.670677 144.980347
C 108.338294 145.31273 108.151538 145.763601 108.151538 146.233662
C 108.151538 146.703722 108.338294 147.154593 108.670677 147.486976
C 109.00306 147.819358 109.453931 148.006115 109.923991 148.006115
z
" style="stroke:#000000;stroke-width:0.886227;"/>
    <path clip-path="url(#p145a51f6f5)" d="M 121.630562 157.880401
C 122.100622 157.880401 122.551493 157.693644 122.883876 157.361261
C 123.216259 157.028879 123.403016 156.578008 123.403016 156.107947
C 123.403016 155.637887 123.216259 155.187016 122.883876 154.854633
C 122.551493 154.52225 122.100622 154.335493 121.630562 154.335493
C 121.160502 154.335493 120.709631 154.52225 120.377248 154.854633
C 120.044865 155.187016 119.858108 155.637887 119.858108 156.107947
C 119.858108 156.578008 120.044865 157.028879 120.377248 157.361261
C 120.709631 157.693644 121.160502 157.880401 121.630562 157.880401
z
" style="stroke:#000000;stroke-width:0.886227;"/>
    <path clip-path="url(#p145a51f6f5)" d="M 151.220642 162.817544
C 151.690702 162.817544 152.141573 162.630787 152.473956 162.298404
C 152.806339 161.966021 152.993096 161.51515 152.993096 161.04509
C 152.993096 160.57503 152.806339 160.124159 152.473956 159.791776
C 152.141573 159.459393 151.690702 159.272636 151.220642 159.272636
C 150.750582 159.272636 150.299711 159.459393 149.967328 159.791776
C 149.634945 160.124159 149.448188 160.57503 149.448188 161.04509
C 149.448188 161.51515 149.634945 161.966021 149.967328 162.298404
C 150.299711 162.630787 150.750582 162.817544 151.220642 162.817544
z
" style="stroke:#000000;stroke-width:0.886227;"/>
    <path clip-path="url(#p145a51f6f5)" d="M 156.851018 167.754687
C 157.321078 167.754687 157.771949 167.56793 158.104332 167.235547
C 158.436715 166.903164 158.623472 166.452293 158.623472 165.982233
C 158.623472 165.512173 158.436715 165.061302 158.104332 164.728919
C 157.771949 164.396536 157.321078 164.209779 156.851018 164.209779
C 156.380958 164.209779 155.930087 164.396536 155.597704 164.728919
C 155.265321 165.061302 155.078564 165.512173 155.078564 165.982233
C 155.078564 166.452293 155.265321 166.903164 155.597704 167.235547
C 155.930087 167.56793 156.380958 167.754687 156.851018 167.754687
z
" style="stroke:#000000;stroke-width:0.886227;"/>
    <path clip-path="url(#p145a51f6f5)" d="M 165.322945 172.69183
C 165.793006 172.69183 166.243877 172.505073 166.57626 172.17269
C 166.908642 171.840307 167.095399 171.389436 167.095399 170.919376
C 167.095399 170.449316 166.908642 169.998444 166.57626 169.666062
C 166.243877 169.333679 165.793006 169.146922 165.322945 169.146922
C 164.852885 169.146922 164.402014 169.333679 164.069631 169.666062
C 163.737248 169.998444 163.550492 170.449316 163.550492 170.919376
C 163.550492 171.389436 163.737248 171.840307 164.069631 172.17269
C 164.402014 172.505073 164.852885 172.69183 165.322945 172.69183
z
" style="stroke:#000000;stroke-width:0.886227;"/>
    <path clip-path="url(#p145a51f6f5)" d="M 176.947133 177.628973
C 177.417193 177.628973 177.868064 177.442216 178.200447 177.109833
C 178.532829 176.77745 178.719586 176.326579 178.719586 175.856519
C 178.719586 175.386458 178.532829 174.935587 178.200447 174.603205
C 177.868064 174.270822 177.417193 174.084065 176.947133 174.084065
C 176.477072 174.084065 176.026201 174.270822 175.693818 174.603205
C 175.361436 174.935587 175.174679 175.386458 175.174679 175.856519
C 175.174679 176.326579 175.361436 176.77745 175.693818 177.109833
C 176.026201 177.442216 176.477072 177.628973 176.947133 177.628973
z
" style="stroke:#000000;stroke-width:0.886227;"/>
    <path clip-path="url(#p145a51f6f5)" d="M 187.171537 185.034687
C 187.641597 185.034687 188.092468 184.84793 188.424851 184.515547
C 188.757234 184.183164 188.943991 183.732293 188.943991 183.262233
C 188.943991 182.792173 188.757234 182.341302 188.424851 182.008919
C 188.092468 181.676536 187.641597 181.489779 187.171537 181.489779
C 186.701477 181.489779 186.250605 181.676536 185.918223 182.008919
C 185.58584 182.341302 185.399083 182.792173 185.399083 183.262233
C 185.399083 183.732293 185.58584 184.183164 185.918223 184.515547
C 186.250605 184.84793 186.701477 185.034687 187.171537 185.034687
z
" style="stroke:#000000;stroke-width:0.886227;"/>
    <path clip-path="url(#p145a51f6f5)" d="M 187.171537 185.034687
C 187.641597 185.034687 188.092468 184.84793 188.424851 184.515547
C 188.757234 184.183164 188.943991 183.732293 188.943991 183.262233
C 188.943991 182.792173 188.757234 182.341302 188.424851 182.008919
C 188.092468 181.676536 187.641597 181.489779 187.171537 181.489779
C 186.701477 181.489779 186.250605 181.676536 185.918223 182.008919
C 185.58584 182.341302 185.399083 182.792173 185.399083 183.262233
C 185.399083 183.732293 185.58584 184.183164 185.918223 184.515547
C 186.250605 184.84793 186.701477 185.034687 187.171537 185.034687
z
" style="stroke:#000000;stroke-width:0.886227;"/>
    <path clip-path="url(#p145a51f6f5)" d="M 191.097981 192.440401
C 191.568041 192.440401 192.018912 192.253644 192.351295 191.921261
C 192.683678 191.588879 192.870435 191.138008 192.870435 190.667947
C 192.870435 190.197887 192.683678 189.747016 192.351295 189.414633
C 192.018912 189.08225 191.568041 188.895493 191.097981 188.895493
C 190.627921 188.895493 190.177049 189.08225 189.844667 189.414633
C 189.512284 189.747016 189.325527 190.197887 189.325527 190.667947
C 189.325527 191.138008 189.512284 191.588879 189.844667 191.921261
C 190.177049 192.253644 190.627921 192.440401 191.097981 192.440401
z
" style="stroke:#000000;stroke-width:0.886227;"/>
    <path clip-path="url(#p145a51f6f5)" d="M 231.348051 199.846115
C 231.818112 199.846115 232.268983 199.659358 232.601365 199.326976
C 232.933748 198.994593 233.120505 198.543722 233.120505 198.073662
C 233.120505 197.603601 232.933748 197.15273 232.601365 196.820347
C 232.268983 196.487965 231.818112 196.301208 231.348051 196.301208
C 230.877991 196.301208 230.42712 196.487965 230.094737 196.820347
C 229.762354 197.15273 229.575597 197.603601 229.575597 198.073662
C 229.575597 198.543722 229.762354 198.994593 230.094737 199.326976
C 230.42712 199.659358 230.877991 199.846115 231.348051 199.846115
z
" style="stroke:#000000;stroke-width:0.886227;"/>
    <path clip-path="url(#p145a51f6f5)" d="M 231.348051 199.846115
C 231.818112 199.846115 232.268983 199.659358 232.601365 199.326976
C 232.933748 198.994593 233.120505 198.543722 233.120505 198.073662
C 233.120505 197.603601 232.933748 197.15273 232.601365 196.820347
C 232.268983 196.487965 231.818112 196.301208 231.348051 196.301208
C 230.877991 196.301208 230.42712 196.487965 230.094737 196.820347
C 229.762354 197.15273 229.575597 197.603601 229.575597 198.073662
C 229.575597 198.543722 229.762354 198.994593 230.094737 199.326976
C 230.42712 199.659358 230.877991 199.846115 231.348051 199.846115
z
" style="stroke:#000000;stroke-width:0.886227;"/>
    <path clip-path="url(#p145a51f6f5)" d="M 241.526279 207.25183
C 241.996339 207.25183 242.44721 207.065073 242.779593 206.73269
C 243.111976 206.400307 243.298733 205.949436 243.298733 205.479376
C 243.298733 205.009316 243.111976 204.558444 242.779593 204.226062
C 242.44721 203.893679 241.996339 203.706922 241.526279 203.706922
C 241.056219 203.706922 240.605347 203.893679 240.272965 204.226062
C 239.940582 204.558444 239.753825 205.009316 239.753825 205.479376
C 239.753825 205.949436 239.940582 206.400307 240.272965 206.73269
C 240.605347 207.065073 241.056219 207.25183 241.526279 207.25183
z
" style="stroke:#000000;stroke-width:0.886227;"/>
    <path clip-path="url(#p145a51f6f5)" d="M 251.576519 217.126115
C 252.04658 217.126115 252.497451 216.939358 252.829834 216.606976
C 253.162216 216.274593 253.348973 215.823722 253.348973 215.353662
C 253.348973 214.883601 253.162216 214.43273 252.829834 214.100347
C 252.497451 213.767965 252.04658 213.581208 251.576519 213.581208
C 251.106459 213.581208 250.655588 213.767965 250.323205 214.100347
C 249.990823 214.43273 249.804066 214.883601 249.804066 215.353662
C 249.804066 215.823722 249.990823 216.274593 250.323205 216.606976
C 250.655588 216.939358 251.106459 217.126115 251.576519 217.126115
z
" style="stroke:#000000;stroke-width:0.886227;"/>
    <path clip-path="url(#p145a51f6f5)" d="M 248.144988 212.188973
C 248.615048 212.188973 249.065919 212.002216 249.398302 211.669833
C 249.730685 211.33745 249.917442 210.886579 249.917442 210.416519
C 249.917442 209.946458 249.730685 209.495587 249.398302 209.163205
C 249.065919 208.830822 248.615048 208.644065 248.144988 208.644065
C 247.674928 208.644065 247.224057 208.830822 246.891674 209.163205
C 246.559291 209.495587 246.372534 209.946458 246.372534 210.416519
C 246.372534 210.886579 246.559291 211.33745 246.891674 211.669833
C 247.224057 212.002216 247.674928 212.188973 248.144988 212.188973
z
" style="stroke:#000000;stroke-width:0.886227;"/>
    <path clip-path="url(#p145a51f6f5)" d="M 264.369452 222.063258
C 264.839512 222.063258 265.290383 221.876501 265.622766 221.544119
C 265.955149 221.211736 266.141905 220.760865 266.141905 220.290804
C 266.141905 219.820744 265.955149 219.369873 265.622766 219.03749
C 265.290383 218.705107 264.839512 218.518351 264.369452 218.518351
C 263.899391 218.518351 263.44852 218.705107 263.116137 219.03749
C 262.783755 219.369873 262.596998 219.820744 262.596998 220.290804
C 262.596998 220.760865 262.783755 221.211736 263.116137 221.544119
C 263.44852 221.876501 263.899391 222.063258 264.369452 222.063258
z
" style="stroke:#000000;stroke-width:0.886227;"/>
    <path clip-path="url(#p145a51f6f5)" d="M 265.203895 227.000401
C 265.673955 227.000401 266.124826 226.813644 266.457209 226.481261
C 266.789592 226.148879 266.976349 225.698008 266.976349 225.227947
C 266.976349 224.757887 266.789592 224.307016 266.457209 223.974633
C 266.124826 223.64225 265.673955 223.455493 265.203895 223.455493
C 264.733835 223.455493 264.282964 223.64225 263.950581 223.974633
C 263.618198 224.307016 263.431441 224.757887 263.431441 225.227947
C 263.431441 225.698008 263.618198 226.148879 263.950581 226.481261
C 264.282964 226.813644 264.733835 227.000401 265.203895 227.000401
z
" style="stroke:#000000;stroke-width:0.886227;"/>
    <path clip-path="url(#p145a51f6f5)" d="M 294.934933 231.937544
C 295.404994 231.937544 295.855865 231.750787 296.188247 231.418404
C 296.52063 231.086021 296.707387 230.63515 296.707387 230.16509
C 296.707387 229.69503 296.52063 229.244159 296.188247 228.911776
C 295.855865 228.579393 295.404994 228.392636 294.934933 228.392636
C 294.464873 228.392636 294.014002 228.579393 293.681619 228.911776
C 293.349236 229.244159 293.16248 229.69503 293.16248 230.16509
C 293.16248 230.63515 293.349236 231.086021 293.681619 231.418404
C 294.014002 231.750787 294.464873 231.937544 294.934933 231.937544
z
" style="stroke:#000000;stroke-width:0.886227;"/>
    <path clip-path="url(#p145a51f6f5)" d="M 314.344881 236.874687
C 314.814941 236.874687 315.265812 236.68793 315.598195 236.355547
C 315.930578 236.023164 316.117335 235.572293 316.117335 235.102233
C 316.117335 234.632173 315.930578 234.181302 315.598195 233.848919
C 315.265812 233.516536 314.814941 233.329779 314.344881 233.329779
C 313.87482 233.329779 313.423949 233.516536 313.091567 233.848919
C 312.759184 234.181302 312.572427 234.632173 312.572427 235.102233
C 312.572427 235.572293 312.759184 236.023164 313.091567 236.355547
C 313.423949 236.68793 313.87482 236.874687 314.344881 236.874687
z
" style="stroke:#000000;stroke-width:0.886227;"/>
    <path clip-path="url(#p145a51f6f5)" d="M 327.975303 244.280401
C 328.445363 244.280401 328.896234 244.093644 329.228617 243.761261
C 329.561 243.428879 329.747757 242.978008 329.747757 242.507947
C 329.747757 242.037887 329.561 241.587016 329.228617 241.254633
C 328.896234 240.92225 328.445363 240.735493 327.975303 240.735493
C 327.505243 240.735493 327.054372 240.92225 326.721989 241.254633
C 326.389606 241.587016 326.202849 242.037887 326.202849 242.507947
C 326.202849 242.978008 326.389606 243.428879 326.721989 243.761261
C 327.054372 244.093644 327.505243 244.280401 327.975303 244.280401
z
" style="stroke:#000000;stroke-width:0.886227;"/>
    <path clip-path="url(#p145a51f6f5)" d="M 327.975303 244.280401
C 328.445363 244.280401 328.896234 244.093644 329.228617 243.761261
C 329.561 243.428879 329.747757 242.978008 329.747757 242.507947
C 329.747757 242.037887 329.561 241.587016 329.228617 241.254633
C 328.896234 240.92225 328.445363 240.735493 327.975303 240.735493
C 327.505243 240.735493 327.054372 240.92225 326.721989 241.254633
C 326.389606 241.587016 326.202849 242.037887 326.202849 242.507947
C 326.202849 242.978008 326.389606 243.428879 326.721989 243.761261
C 327.054372 244.093644 327.505243 244.280401 327.975303 244.280401
z
" style="stroke:#000000;stroke-width:0.886227;"/>
    <path clip-path="url(#p145a51f6f5)" d="M 343.572697 254.154687
C 344.042757 254.154687 344.493628 253.96793 344.826011 253.635547
C 345.158394 253.303164 345.345151 252.852293 345.345151 252.382233
C 345.345151 251.912173 345.158394 251.461302 344.826011 251.128919
C 344.493628 250.796536 344.042757 250.609779 343.572697 250.609779
C 343.102637 250.609779 342.651766 250.796536 342.319383 251.128919
C 341.987 251.461302 341.800243 251.912173 341.800243 252.382233
C 341.800243 252.852293 341.987 253.303164 342.319383 253.635547
C 342.651766 253.96793 343.102637 254.154687 343.572697 254.154687
z
" style="stroke:#000000;stroke-width:0.886227;"/>
    <path clip-path="url(#p145a51f6f5)" d="M 343.572697 254.154687
C 344.042757 254.154687 344.493628 253.96793 344.826011 253.635547
C 345.158394 253.303164 345.345151 252.852293 345.345151 252.382233
C 345.345151 251.912173 345.158394 251.461302 344.826011 251.128919
C 344.493628 250.796536 344.042757 250.609779 343.572697 250.609779
C 343.102637 250.609779 342.651766 250.796536 342.319383 251.128919
C 341.987 251.461302 341.800243 251.912173 341.800243 252.382233
C 341.800243 252.852293 341.987 253.303164 342.319383 253.635547
C 342.651766 253.96793 343.102637 254.154687 343.572697 254.154687
z
" style="stroke:#000000;stroke-width:0.886227;"/>
    <path clip-path="url(#p145a51f6f5)" d="M 348.204934 261.560401
C 348.674994 261.560401 349.125866 261.373644 349.458248 261.041261
C 349.790631 260.708879 349.977388 260.258008 349.977388 259.787947
C 349.977388 259.317887 349.790631 258.867016 349.458248 258.534633
C 349.125866 258.20225 348.674994 258.015493 348.204934 258.015493
C 347.734874 258.015493 347.284003 258.20225 346.95162 258.534633
C 346.619237 258.867016 346.43248 259.317887 346.43248 259.787947
C 346.43248 260.258008 346.619237 260.708879 346.95162 261.041261
C 347.284003 261.373644 347.734874 261.560401 348.204934 261.560401
z
" style="stroke:#000000;stroke-width:0.886227;"/>
    <path clip-path="url(#p145a51f6f5)" d="M 361.466969 266.497544
C 361.93703 266.497544 362.387901 266.310787 362.720283 265.978404
C 363.052666 265.646021 363.239423 265.19515 363.239423 264.72509
C 363.239423 264.25503 363.052666 263.804159 362.720283 263.471776
C 362.387901 263.139393 361.93703 262.952636 361.466969 262.952636
C 360.996909 262.952636 360.546038 263.139393 360.213655 263.471776
C 359.881272 263.804159 359.694515 264.25503 359.694515 264.72509
C 359.694515 265.19515 359.881272 265.646021 360.213655 265.978404
C 360.546038 266.310787 360.996909 266.497544 361.466969 266.497544
z
" style="stroke:#000000;stroke-width:0.886227;"/>
    <path clip-path="url(#p145a51f6f5)" d="M 381.502544 271.434687
C 381.972604 271.434687 382.423475 271.24793 382.755858 270.915547
C 383.088241 270.583164 383.274997 270.132293 383.274997 269.662233
C 383.274997 269.192173 383.088241 268.741302 382.755858 268.408919
C 382.423475 268.076536 381.972604 267.889779 381.502544 267.889779
C 381.032483 267.889779 380.581612 268.076536 380.249229 268.408919
C 379.916847 268.741302 379.73009 269.192173 379.73009 269.662233
C 379.73009 270.132293 379.916847 270.583164 380.249229 270.915547
C 380.581612 271.24793 381.032483 271.434687 381.502544 271.434687
z
" style="stroke:#000000;stroke-width:0.886227;"/>
    <path clip-path="url(#p145a51f6f5)" d="M 387.65946 276.37183
C 388.12952 276.37183 388.580392 276.185073 388.912774 275.85269
C 389.245157 275.520307 389.431914 275.069436 389.431914 274.599376
C 389.431914 274.129316 389.245157 273.678444 388.912774 273.346062
C 388.580392 273.013679 388.12952 272.826922 387.65946 272.826922
C 387.1894 272.826922 386.738529 273.013679 386.406146 273.346062
C 386.073763 273.678444 385.887006 274.129316 385.887006 274.599376
C 385.887006 275.069436 386.073763 275.520307 386.406146 275.85269
C 386.738529 276.185073 387.1894 276.37183 387.65946 276.37183
z
" style="stroke:#000000;stroke-width:0.886227;"/>
   </g>
   <g id="PathCollection_2">
    <path clip-path="url(#p145a51f6f5)" d="M 63.004915 34.45183
C 63.474975 34.45183 63.925846 34.265073 64.258229 33.93269
C 64.590612 33.600307 64.777369 33.149436 64.777369 32.679376
C 64.777369 32.209316 64.590612 31.758444 64.258229 31.426062
C 63.925846 31.093679 63.474975 30.906922 63.004915 30.906922
C 62.534855 30.906922 62.083983 31.093679 61.751601 31.426062
C 61.419218 31.758444 61.232461 32.209316 61.232461 32.679376
C 61.232461 33.149436 61.419218 33.600307 61.751601 33.93269
C 62.083983 34.265073 62.534855 34.45183 63.004915 34.45183
z
" style="fill:#ff0000;stroke:#ff0000;stroke-width:0.886227;"/>
    <path clip-path="url(#p145a51f6f5)" d="M 63.02102 39.388973
C 63.49108 39.388973 63.941952 39.202216 64.274334 38.869833
C 64.606717 38.53745 64.793474 38.086579 64.793474 37.616519
C 64.793474 37.146458 64.606717 36.695587 64.274334 36.363205
C 63.941952 36.030822 63.49108 35.844065 63.02102 35.844065
C 62.55096 35.844065 62.100089 36.030822 61.767706 36.363205
C 61.435323 36.695587 61.248566 37.146458 61.248566 37.616519
C 61.248566 38.086579 61.435323 38.53745 61.767706 38.869833
C 62.100089 39.202216 62.55096 39.388973 63.02102 39.388973
z
" style="fill:#ff0000;stroke:#ff0000;stroke-width:0.886227;"/>
    <path clip-path="url(#p145a51f6f5)" d="M 63.133302 44.326115
C 63.603362 44.326115 64.054233 44.139358 64.386616 43.806976
C 64.718999 43.474593 64.905756 43.023722 64.905756 42.553662
C 64.905756 42.083601 64.718999 41.63273 64.386616 41.300347
C 64.054233 40.967965 63.603362 40.781208 63.133302 40.781208
C 62.663242 40.781208 62.212371 40.967965 61.879988 41.300347
C 61.547605 41.63273 61.360848 42.083601 61.360848 42.553662
C 61.360848 43.023722 61.547605 43.474593 61.879988 43.806976
C 62.212371 44.139358 62.663242 44.326115 63.133302 44.326115
z
" style="fill:#ff0000;stroke:#ff0000;stroke-width:0.886227;"/>
    <path clip-path="url(#p145a51f6f5)" d="M 63.195243 49.263258
C 63.665304 49.263258 64.116175 49.076501 64.448558 48.744119
C 64.78094 48.411736 64.967697 47.960865 64.967697 47.490804
C 64.967697 47.020744 64.78094 46.569873 64.448558 46.23749
C 64.116175 45.905107 63.665304 45.718351 63.195243 45.718351
C 62.725183 45.718351 62.274312 45.905107 61.941929 46.23749
C 61.609547 46.569873 61.42279 47.020744 61.42279 47.490804
C 61.42279 47.960865 61.609547 48.411736 61.941929 48.744119
C 62.274312 49.076501 62.725183 49.263258 63.195243 49.263258
z
" style="fill:#ff0000;stroke:#ff0000;stroke-width:0.886227;"/>
    <path clip-path="url(#p145a51f6f5)" d="M 63.428891 54.200401
C 63.898952 54.200401 64.349823 54.013644 64.682206 53.681261
C 65.014588 53.348879 65.201345 52.898008 65.201345 52.427947
C 65.201345 51.957887 65.014588 51.507016 64.682206 51.174633
C 64.349823 50.84225 63.898952 50.655493 63.428891 50.655493
C 62.958831 50.655493 62.50796 50.84225 62.175577 51.174633
C 61.843194 51.507016 61.656438 51.957887 61.656438 52.427947
C 61.656438 52.898008 61.843194 53.348879 62.175577 53.681261
C 62.50796 54.013644 62.958831 54.200401 63.428891 54.200401
z
" style="fill:#ff0000;stroke:#ff0000;stroke-width:0.886227;"/>
   </g>
   <g id="text_13">
    <g clip-path="url(#p145a51f6f5)">
     <!-- HALLMARK_ADIPOGENESIS -->
     <defs>
      <path d="M 34.1875 63.1875
L 20.796875 26.90625
L 47.609375 26.90625
z
M 28.609375 72.90625
L 39.796875 72.90625
L 67.578125 0
L 57.328125 0
L 50.6875 18.703125
L 17.828125 18.703125
L 11.1875 0
L 0.78125 0
z
" id="DejaVuSans-65"/>
      <path d="M 9.8125 72.90625
L 19.671875 72.90625
L 19.671875 8.296875
L 55.171875 8.296875
L 55.171875 0
L 9.8125 0
z
" id="DejaVuSans-76"/>
      <path d="M 9.8125 72.90625
L 19.671875 72.90625
L 19.671875 42.09375
L 52.390625 72.90625
L 65.09375 72.90625
L 28.90625 38.921875
L 67.671875 0
L 54.6875 0
L 19.671875 35.109375
L 19.671875 0
L 9.8125 0
z
" id="DejaVuSans-75"/>
      <path d="M 50.984375 -16.609375
L 50.984375 -23.578125
L -0.984375 -23.578125
L -0.984375 -16.609375
z
" id="DejaVuSans-95"/>
      <path d="M 9.8125 72.90625
L 19.671875 72.90625
L 19.671875 0
L 9.8125 0
z
" id="DejaVuSans-73"/>
      <path d="M 19.671875 64.796875
L 19.671875 37.40625
L 32.078125 37.40625
Q 38.96875 37.40625 42.71875 40.96875
Q 46.484375 44.53125 46.484375 51.125
Q 46.484375 57.671875 42.71875 61.234375
Q 38.96875 64.796875 32.078125 64.796875
z
M 9.8125 72.90625
L 32.078125 72.90625
Q 44.34375 72.90625 50.609375 67.359375
Q 56.890625 61.8125 56.890625 51.125
Q 56.890625 40.328125 50.609375 34.8125
Q 44.34375 29.296875 32.078125 29.296875
L 19.671875 29.296875
L 19.671875 0
L 9.8125 0
z
" id="DejaVuSans-80"/>
      <path d="M 39.40625 66.21875
Q 28.65625 66.21875 22.328125 58.203125
Q 16.015625 50.203125 16.015625 36.375
Q 16.015625 22.609375 22.328125 14.59375
Q 28.65625 6.59375 39.40625 6.59375
Q 50.140625 6.59375 56.421875 14.59375
Q 62.703125 22.609375 62.703125 36.375
Q 62.703125 50.203125 56.421875 58.203125
Q 50.140625 66.21875 39.40625 66.21875
z
M 39.40625 74.21875
Q 54.734375 74.21875 63.90625 63.9375
Q 73.09375 53.65625 73.09375 36.375
Q 73.09375 19.140625 63.90625 8.859375
Q 54.734375 -1.421875 39.40625 -1.421875
Q 24.03125 -1.421875 14.8125 8.828125
Q 5.609375 19.09375 5.609375 36.375
Q 5.609375 53.65625 14.8125 63.9375
Q 24.03125 74.21875 39.40625 74.21875
z
" id="DejaVuSans-79"/>
      <path d="M 9.8125 72.90625
L 55.90625 72.90625
L 55.90625 64.59375
L 19.671875 64.59375
L 19.671875 43.015625
L 54.390625 43.015625
L 54.390625 34.71875
L 19.671875 34.71875
L 19.671875 8.296875
L 56.78125 8.296875
L 56.78125 0
L 9.8125 0
z
" id="DejaVuSans-69"/>
      <path d="M 9.8125 72.90625
L 23.09375 72.90625
L 55.421875 11.921875
L 55.421875 72.90625
L 64.984375 72.90625
L 64.984375 0
L 51.703125 0
L 19.390625 60.984375
L 19.390625 0
L 9.8125 0
z
" id="DejaVuSans-78"/>
      <path d="M 53.515625 70.515625
L 53.515625 60.890625
Q 47.90625 63.578125 42.921875 64.890625
Q 37.9375 66.21875 33.296875 66.21875
Q 25.25 66.21875 20.875 63.09375
Q 16.5 59.96875 16.5 54.203125
Q 16.5 49.359375 19.40625 46.890625
Q 22.3125 44.4375 30.421875 42.921875
L 36.375 41.703125
Q 47.40625 39.59375 52.65625 34.296875
Q 57.90625 29 57.90625 20.125
Q 57.90625 9.515625 50.796875 4.046875
Q 43.703125 -1.421875 29.984375 -1.421875
Q 24.8125 -1.421875 18.96875 -0.25
Q 13.140625 0.921875 6.890625 3.21875
L 6.890625 13.375
Q 12.890625 10.015625 18.65625 8.296875
Q 24.421875 6.59375 29.984375 6.59375
Q 38.421875 6.59375 43.015625 9.90625
Q 47.609375 13.234375 47.609375 19.390625
Q 47.609375 24.75 44.3125 27.78125
Q 41.015625 30.8125 33.5 32.328125
L 27.484375 33.5
Q 16.453125 35.6875 11.515625 40.375
Q 6.59375 45.0625 6.59375 53.421875
Q 6.59375 63.09375 13.40625 68.65625
Q 20.21875 74.21875 32.171875 74.21875
Q 37.3125 74.21875 42.625 73.28125
Q 47.953125 72.359375 53.515625 70.515625
z
" id="DejaVuSans-83"/>
     </defs>
     <g transform="translate(63.004915 36.390313)scale(0.05 -0.05)">
      <use xlink:href="#DejaVuSans-72"/>
      <use x="75.195312" xlink:href="#DejaVuSans-65"/>
      <use x="143.603516" xlink:href="#DejaVuSans-76"/>
      <use x="199.316406" xlink:href="#DejaVuSans-76"/>
      <use x="255.029297" xlink:href="#DejaVuSans-77"/>
      <use x="341.308594" xlink:href="#DejaVuSans-65"/>
      <use x="409.716797" xlink:href="#DejaVuSans-82"/>
      <use x="479.199219" xlink:href="#DejaVuSans-75"/>
      <use x="544.775391" xlink:href="#DejaVuSans-95"/>
      <use x="594.775391" xlink:href="#DejaVuSans-65"/>
      <use x="663.183594" xlink:href="#DejaVuSans-68"/>
      <use x="740.185547" xlink:href="#DejaVuSans-73"/>
      <use x="769.677734" xlink:href="#DejaVuSans-80"/>
      <use x="829.980469" xlink:href="#DejaVuSans-79"/>
      <use x="908.691406" xlink:href="#DejaVuSans-71"/>
      <use x="986.181641" xlink:href="#DejaVuSans-69"/>
      <use x="1049.365234" xlink:href="#DejaVuSans-78"/>
      <use x="1124.169922" xlink:href="#DejaVuSans-69"/>
      <use x="1187.353516" xlink:href="#DejaVuSans-83"/>
      <use x="1250.830078" xlink:href="#DejaVuSans-73"/>
      <use x="1280.322266" xlink:href="#DejaVuSans-83"/>
     </g>
    </g>
   </g>
   <g id="text_14">
    <g clip-path="url(#p145a51f6f5)">
     <!-- HALLMARK_ALLOGRAFT_REJECTION -->
     <defs>
      <path d="M -0.296875 72.90625
L 61.375 72.90625
L 61.375 64.59375
L 35.5 64.59375
L 35.5 0
L 25.59375 0
L 25.59375 64.59375
L -0.296875 64.59375
z
" id="DejaVuSans-84"/>
      <path d="M 9.8125 72.90625
L 19.671875 72.90625
L 19.671875 5.078125
Q 19.671875 -8.109375 14.671875 -14.0625
Q 9.671875 -20.015625 -1.421875 -20.015625
L -5.171875 -20.015625
L -5.171875 -11.71875
L -2.09375 -11.71875
Q 4.4375 -11.71875 7.125 -8.046875
Q 9.8125 -4.390625 9.8125 5.078125
z
" id="DejaVuSans-74"/>
      <path d="M 64.40625 67.28125
L 64.40625 56.890625
Q 59.421875 61.53125 53.78125 63.8125
Q 48.140625 66.109375 41.796875 66.109375
Q 29.296875 66.109375 22.65625 58.46875
Q 16.015625 50.828125 16.015625 36.375
Q 16.015625 21.96875 22.65625 14.328125
Q 29.296875 6.6875 41.796875 6.6875
Q 48.140625 6.6875 53.78125 8.984375
Q 59.421875 11.28125 64.40625 15.921875
L 64.40625 5.609375
Q 59.234375 2.09375 53.4375 0.328125
Q 47.65625 -1.421875 41.21875 -1.421875
Q 24.65625 -1.421875 15.125 8.703125
Q 5.609375 18.84375 5.609375 36.375
Q 5.609375 53.953125 15.125 64.078125
Q 24.65625 74.21875 41.21875 74.21875
Q 47.75 74.21875 53.53125 72.484375
Q 59.328125 70.75 64.40625 67.28125
z
" id="DejaVuSans-67"/>
     </defs>
     <g transform="translate(63.02102 41.327456)scale(0.05 -0.05)">
      <use xlink:href="#DejaVuSans-72"/>
      <use x="75.195312" xlink:href="#DejaVuSans-65"/>
      <use x="143.603516" xlink:href="#DejaVuSans-76"/>
      <use x="199.316406" xlink:href="#DejaVuSans-76"/>
      <use x="255.029297" xlink:href="#DejaVuSans-77"/>
      <use x="341.308594" xlink:href="#DejaVuSans-65"/>
      <use x="409.716797" xlink:href="#DejaVuSans-82"/>
      <use x="479.199219" xlink:href="#DejaVuSans-75"/>
      <use x="544.775391" xlink:href="#DejaVuSans-95"/>
      <use x="594.775391" xlink:href="#DejaVuSans-65"/>
      <use x="663.183594" xlink:href="#DejaVuSans-76"/>
      <use x="718.896484" xlink:href="#DejaVuSans-76"/>
      <use x="774.5625" xlink:href="#DejaVuSans-79"/>
      <use x="853.273438" xlink:href="#DejaVuSans-71"/>
      <use x="930.763672" xlink:href="#DejaVuSans-82"/>
      <use x="1000.183594" xlink:href="#DejaVuSans-65"/>
      <use x="1068.591797" xlink:href="#DejaVuSans-70"/>
      <use x="1126.095703" xlink:href="#DejaVuSans-84"/>
      <use x="1187.179688" xlink:href="#DejaVuSans-95"/>
      <use x="1237.179688" xlink:href="#DejaVuSans-82"/>
      <use x="1306.662109" xlink:href="#DejaVuSans-69"/>
      <use x="1369.845703" xlink:href="#DejaVuSans-74"/>
      <use x="1399.337891" xlink:href="#DejaVuSans-69"/>
      <use x="1462.521484" xlink:href="#DejaVuSans-67"/>
      <use x="1532.345703" xlink:href="#DejaVuSans-84"/>
      <use x="1593.429688" xlink:href="#DejaVuSans-73"/>
      <use x="1622.921875" xlink:href="#DejaVuSans-79"/>
      <use x="1701.632812" xlink:href="#DejaVuSans-78"/>
     </g>
    </g>
   </g>
   <g id="text_15">
    <g clip-path="url(#p145a51f6f5)">
     <!-- HALLMARK_ANDROGEN_RESPONSE -->
     <g transform="translate(63.133302 46.264599)scale(0.05 -0.05)">
      <use xlink:href="#DejaVuSans-72"/>
      <use x="75.195312" xlink:href="#DejaVuSans-65"/>
      <use x="143.603516" xlink:href="#DejaVuSans-76"/>
      <use x="199.316406" xlink:href="#DejaVuSans-76"/>
      <use x="255.029297" xlink:href="#DejaVuSans-77"/>
      <use x="341.308594" xlink:href="#DejaVuSans-65"/>
      <use x="409.716797" xlink:href="#DejaVuSans-82"/>
      <use x="479.199219" xlink:href="#DejaVuSans-75"/>
      <use x="544.775391" xlink:href="#DejaVuSans-95"/>
      <use x="594.775391" xlink:href="#DejaVuSans-65"/>
      <use x="663.183594" xlink:href="#DejaVuSans-78"/>
      <use x="737.988281" xlink:href="#DejaVuSans-68"/>
      <use x="814.990234" xlink:href="#DejaVuSans-82"/>
      <use x="884.472656" xlink:href="#DejaVuSans-79"/>
      <use x="963.183594" xlink:href="#DejaVuSans-71"/>
      <use x="1040.673828" xlink:href="#DejaVuSans-69"/>
      <use x="1103.857422" xlink:href="#DejaVuSans-78"/>
      <use x="1178.662109" xlink:href="#DejaVuSans-95"/>
      <use x="1228.662109" xlink:href="#DejaVuSans-82"/>
      <use x="1298.144531" xlink:href="#DejaVuSans-69"/>
      <use x="1361.328125" xlink:href="#DejaVuSans-83"/>
      <use x="1424.804688" xlink:href="#DejaVuSans-80"/>
      <use x="1485.107422" xlink:href="#DejaVuSans-79"/>
      <use x="1563.818359" xlink:href="#DejaVuSans-78"/>
      <use x="1638.623047" xlink:href="#DejaVuSans-83"/>
      <use x="1702.099609" xlink:href="#DejaVuSans-69"/>
     </g>
    </g>
   </g>
   <g id="text_16">
    <g clip-path="url(#p145a51f6f5)">
     <!-- HALLMARK_ANGIOGENESIS -->
     <g transform="translate(63.195243 51.201742)scale(0.05 -0.05)">
      <use xlink:href="#DejaVuSans-72"/>
      <use x="75.195312" xlink:href="#DejaVuSans-65"/>
      <use x="143.603516" xlink:href="#DejaVuSans-76"/>
      <use x="199.316406" xlink:href="#DejaVuSans-76"/>
      <use x="255.029297" xlink:href="#DejaVuSans-77"/>
      <use x="341.308594" xlink:href="#DejaVuSans-65"/>
      <use x="409.716797" xlink:href="#DejaVuSans-82"/>
      <use x="479.199219" xlink:href="#DejaVuSans-75"/>
      <use x="544.775391" xlink:href="#DejaVuSans-95"/>
      <use x="594.775391" xlink:href="#DejaVuSans-65"/>
      <use x="663.183594" xlink:href="#DejaVuSans-78"/>
      <use x="737.988281" xlink:href="#DejaVuSans-71"/>
      <use x="815.478516" xlink:href="#DejaVuSans-73"/>
      <use x="844.970703" xlink:href="#DejaVuSans-79"/>
      <use x="923.681641" xlink:href="#DejaVuSans-71"/>
      <use x="1001.171875" xlink:href="#DejaVuSans-69"/>
      <use x="1064.355469" xlink:href="#DejaVuSans-78"/>
      <use x="1139.160156" xlink:href="#DejaVuSans-69"/>
      <use x="1202.34375" xlink:href="#DejaVuSans-83"/>
      <use x="1265.820312" xlink:href="#DejaVuSans-73"/>
      <use x="1295.3125" xlink:href="#DejaVuSans-83"/>
     </g>
    </g>
   </g>
   <g id="text_17">
    <g clip-path="url(#p145a51f6f5)">
     <!-- HALLMARK_APICAL_JUNCTION -->
     <defs>
      <path d="M 8.6875 72.90625
L 18.609375 72.90625
L 18.609375 28.609375
Q 18.609375 16.890625 22.84375 11.734375
Q 27.09375 6.59375 36.625 6.59375
Q 46.09375 6.59375 50.34375 11.734375
Q 54.59375 16.890625 54.59375 28.609375
L 54.59375 72.90625
L 64.5 72.90625
L 64.5 27.390625
Q 64.5 13.140625 57.4375 5.859375
Q 50.390625 -1.421875 36.625 -1.421875
Q 22.796875 -1.421875 15.734375 5.859375
Q 8.6875 13.140625 8.6875 27.390625
z
" id="DejaVuSans-85"/>
     </defs>
     <g transform="translate(63.428891 56.138885)scale(0.05 -0.05)">
      <use xlink:href="#DejaVuSans-72"/>
      <use x="75.195312" xlink:href="#DejaVuSans-65"/>
      <use x="143.603516" xlink:href="#DejaVuSans-76"/>
      <use x="199.316406" xlink:href="#DejaVuSans-76"/>
      <use x="255.029297" xlink:href="#DejaVuSans-77"/>
      <use x="341.308594" xlink:href="#DejaVuSans-65"/>
      <use x="409.716797" xlink:href="#DejaVuSans-82"/>
      <use x="479.199219" xlink:href="#DejaVuSans-75"/>
      <use x="544.775391" xlink:href="#DejaVuSans-95"/>
      <use x="594.775391" xlink:href="#DejaVuSans-65"/>
      <use x="663.183594" xlink:href="#DejaVuSans-80"/>
      <use x="723.486328" xlink:href="#DejaVuSans-73"/>
      <use x="752.978516" xlink:href="#DejaVuSans-67"/>
      <use x="822.802734" xlink:href="#DejaVuSans-65"/>
      <use x="891.210938" xlink:href="#DejaVuSans-76"/>
      <use x="946.923828" xlink:href="#DejaVuSans-95"/>
      <use x="996.923828" xlink:href="#DejaVuSans-74"/>
      <use x="1026.416016" xlink:href="#DejaVuSans-85"/>
      <use x="1099.609375" xlink:href="#DejaVuSans-78"/>
      <use x="1174.414062" xlink:href="#DejaVuSans-67"/>
      <use x="1244.238281" xlink:href="#DejaVuSans-84"/>
      <use x="1305.322266" xlink:href="#DejaVuSans-73"/>
      <use x="1334.814453" xlink:href="#DejaVuSans-79"/>
      <use x="1413.525391" xlink:href="#DejaVuSans-78"/>
     </g>
    </g>
   </g>
  </g>
  <g id="text_18">
   <!-- CAMERA pathway statistics vs ranking -->
   <defs>
    <path d="M 54.890625 33.015625
L 54.890625 0
L 45.90625 0
L 45.90625 32.71875
Q 45.90625 40.484375 42.875 44.328125
Q 39.84375 48.1875 33.796875 48.1875
Q 26.515625 48.1875 22.3125 43.546875
Q 18.109375 38.921875 18.109375 30.90625
L 18.109375 0
L 9.078125 0
L 9.078125 75.984375
L 18.109375 75.984375
L 18.109375 46.1875
Q 21.34375 51.125 25.703125 53.5625
Q 30.078125 56 35.796875 56
Q 45.21875 56 50.046875 50.171875
Q 54.890625 44.34375 54.890625 33.015625
z
" id="DejaVuSans-104"/>
    <path d="M 4.203125 54.6875
L 13.1875 54.6875
L 24.421875 12.015625
L 35.59375 54.6875
L 46.1875 54.6875
L 57.421875 12.015625
L 68.609375 54.6875
L 77.59375 54.6875
L 63.28125 0
L 52.6875 0
L 40.921875 44.828125
L 29.109375 0
L 18.5 0
z
" id="DejaVuSans-119"/>
    <path d="M 32.171875 -5.078125
Q 28.375 -14.84375 24.75 -17.8125
Q 21.140625 -20.796875 15.09375 -20.796875
L 7.90625 -20.796875
L 7.90625 -13.28125
L 13.1875 -13.28125
Q 16.890625 -13.28125 18.9375 -11.515625
Q 21 -9.765625 23.484375 -3.21875
L 25.09375 0.875
L 2.984375 54.6875
L 12.5 54.6875
L 29.59375 11.921875
L 46.6875 54.6875
L 56.203125 54.6875
z
" id="DejaVuSans-121"/>
    <path d="M 2.984375 54.6875
L 12.5 54.6875
L 29.59375 8.796875
L 46.6875 54.6875
L 56.203125 54.6875
L 35.6875 0
L 23.484375 0
z
" id="DejaVuSans-118"/>
   </defs>
   <g transform="translate(75.755 11.397656)scale(0.15 -0.15)">
    <use xlink:href="#DejaVuSans-67"/>
    <use x="69.824219" xlink:href="#DejaVuSans-65"/>
    <use x="138.232422" xlink:href="#DejaVuSans-77"/>
    <use x="224.511719" xlink:href="#DejaVuSans-69"/>
    <use x="287.695312" xlink:href="#DejaVuSans-82"/>
    <use x="357.115234" xlink:href="#DejaVuSans-65"/>
    <use x="425.523438" xlink:href="#DejaVuSans-32"/>
    <use x="457.310547" xlink:href="#DejaVuSans-112"/>
    <use x="520.787109" xlink:href="#DejaVuSans-97"/>
    <use x="582.066406" xlink:href="#DejaVuSans-116"/>
    <use x="621.275391" xlink:href="#DejaVuSans-104"/>
    <use x="684.654297" xlink:href="#DejaVuSans-119"/>
    <use x="766.441406" xlink:href="#DejaVuSans-97"/>
    <use x="827.720703" xlink:href="#DejaVuSans-121"/>
    <use x="886.900391" xlink:href="#DejaVuSans-32"/>
    <use x="918.6875" xlink:href="#DejaVuSans-115"/>
    <use x="970.787109" xlink:href="#DejaVuSans-116"/>
    <use x="1009.996094" xlink:href="#DejaVuSans-97"/>
    <use x="1071.275391" xlink:href="#DejaVuSans-116"/>
    <use x="1110.484375" xlink:href="#DejaVuSans-105"/>
    <use x="1138.267578" xlink:href="#DejaVuSans-115"/>
    <use x="1190.367188" xlink:href="#DejaVuSans-116"/>
    <use x="1229.576172" xlink:href="#DejaVuSans-105"/>
    <use x="1257.359375" xlink:href="#DejaVuSans-99"/>
    <use x="1312.339844" xlink:href="#DejaVuSans-115"/>
    <use x="1364.439453" xlink:href="#DejaVuSans-32"/>
    <use x="1396.226562" xlink:href="#DejaVuSans-118"/>
    <use x="1455.40625" xlink:href="#DejaVuSans-115"/>
    <use x="1507.505859" xlink:href="#DejaVuSans-32"/>
    <use x="1539.292969" xlink:href="#DejaVuSans-114"/>
    <use x="1580.40625" xlink:href="#DejaVuSans-97"/>
    <use x="1641.685547" xlink:href="#DejaVuSans-110"/>
    <use x="1705.064453" xlink:href="#DejaVuSans-107"/>
    <use x="1762.974609" xlink:href="#DejaVuSans-105"/>
    <use x="1790.757812" xlink:href="#DejaVuSans-110"/>
    <use x="1854.136719" xlink:href="#DejaVuSans-103"/>
   </g>
  </g>
 </g>
 <defs>
  <clipPath id="p145a51f6f5">
   <rect height="266.112" width="357.12" x="46.772188" y="20.583376"/>
  </clipPath>
 </defs>
</svg>
