<?xml version="1.0" encoding="utf-8" standalone="no"?>
<!DOCTYPE svg PUBLIC "-//W3C//DTD SVG 1.1//EN"
  "http://www.w3.org/Graphics/SVG/1.1/DTD/svg11.dtd">
<!-- Created with matplotlib (https://matplotlib.org/) -->
<svg height="322.176313pt" version="1.1" viewBox="0 0 406.642188 322.176313" width="406.642188pt" xmlns="http://www.w3.org/2000/svg" xmlns:xlink="http://www.w3.org/1999/xlink">
 <defs>
  <style type="text/css">
*{stroke-linecap:butt;stroke-linejoin:round;}
  </style>
 </defs>
 <g id="figure_1">
  <g id="patch_1">
   <path d="M 0 322.176313
L 406.642188 322.176313
L 406.642188 0
L 0 0
z
" style="fill:#ffffff;stroke:#ffffff;stroke-linejoin:miter;"/>
  </g>
  <g id="axes_1">
   <g id="patch_2">
    <path d="M 46.772188 286.695376
L 403.892188 286.695376
L 403.892188 20.583376
L 46.772188 20.583376
z
" style="fill:none;"/>
   </g>
   <g id="matplotlib.axis_1">
    <g id="xtick_1">
     <g id="line2d_1">
      <path clip-path="url(#p943af7a62f)" d="M 62.448301 286.695376
L 62.448301 20.583376
" style="fill:none;stroke:#e5e5e5;stroke-width:0.8;"/>
     </g>
     <g id="line2d_2">
      <path d="M 62.448301 286.695376
" style="fill:none;stroke:#000000;stroke-width:1.5;"/>
      <defs>
       <path d="M 0 0
L 0 2.75
" id="m41f49275ae" style="stroke:#000000;"/>
      </defs>
      <g>
       <use style="stroke:#000000;" x="62.448301" xlink:href="#m41f49275ae" y="286.695376"/>
      </g>
     </g>
     <g id="text_1">
      <!-- 0 -->
      <defs>
       <path d="M 31.78125 66.40625
Q 24.171875 66.40625 20.328125 58.90625
Q 16.5 51.421875 16.5 36.375
Q 16.5 21.390625 20.328125 13.890625
Q 24.171875 6.390625 31.78125 6.390625
Q 39.453125 6.390625 43.28125 13.890625
Q 47.125 21.390625 47.125 36.375
Q 47.125 51.421875 43.28125 58.90625
Q 39.453125 66.40625 31.78125 66.40625
z
M 31.78125 74.21875
Q 44.046875 74.21875 50.515625 64.515625
Q 56.984375 54.828125 56.984375 36.375
Q 56.984375 17.96875 50.515625 8.265625
Q 44.046875 -1.421875 31.78125 -1.421875
Q 19.53125 -1.421875 13.0625 8.265625
Q 6.59375 17.96875 6.59375 36.375
Q 6.59375 54.828125 13.0625 64.515625
Q 19.53125 74.21875 31.78125 74.21875
z
" id="DejaVuSans-48"/>
      </defs>
      <g style="fill:#4d4d4d;" transform="translate(58.630801 300.763501)scale(0.12 -0.12)">
       <use xlink:href="#DejaVuSans-48"/>
      </g>
     </g>
    </g>
    <g id="xtick_2">
     <g id="line2d_3">
      <path clip-path="url(#p943af7a62f)" d="M 150.021654 286.695376
L 150.021654 20.583376
" style="fill:none;stroke:#e5e5e5;stroke-width:0.8;"/>
     </g>
     <g id="line2d_4">
      <path d="M 150.021654 286.695376
" style="fill:none;stroke:#000000;stroke-width:1.5;"/>
      <g>
       <use style="stroke:#000000;" x="150.021654" xlink:href="#m41f49275ae" y="286.695376"/>
      </g>
     </g>
     <g id="text_2">
      <!-- 2 -->
      <defs>
       <path d="M 19.1875 8.296875
L 53.609375 8.296875
L 53.609375 0
L 7.328125 0
L 7.328125 8.296875
Q 12.9375 14.109375 22.625 23.890625
Q 32.328125 33.6875 34.8125 36.53125
Q 39.546875 41.84375 41.421875 45.53125
Q 43.3125 49.21875 43.3125 52.78125
Q 43.3125 58.59375 39.234375 62.25
Q 35.15625 65.921875 28.609375 65.921875
Q 23.96875 65.921875 18.8125 64.3125
Q 13.671875 62.703125 7.8125 59.421875
L 7.8125 69.390625
Q 13.765625 71.78125 18.9375 73
Q 24.125 74.21875 28.421875 74.21875
Q 39.75 74.21875 46.484375 68.546875
Q 53.21875 62.890625 53.21875 53.421875
Q 53.21875 48.921875 51.53125 44.890625
Q 49.859375 40.875 45.40625 35.40625
Q 44.1875 33.984375 37.640625 27.21875
Q 31.109375 20.453125 19.1875 8.296875
z
" id="DejaVuSans-50"/>
      </defs>
      <g style="fill:#4d4d4d;" transform="translate(146.204154 300.763501)scale(0.12 -0.12)">
       <use xlink:href="#DejaVuSans-50"/>
      </g>
     </g>
    </g>
    <g id="xtick_3">
     <g id="line2d_5">
      <path clip-path="url(#p943af7a62f)" d="M 237.595007 286.695376
L 237.595007 20.583376
" style="fill:none;stroke:#e5e5e5;stroke-width:0.8;"/>
     </g>
     <g id="line2d_6">
      <path d="M 237.595007 286.695376
" style="fill:none;stroke:#000000;stroke-width:1.5;"/>
      <g>
       <use style="stroke:#000000;" x="237.595007" xlink:href="#m41f49275ae" y="286.695376"/>
      </g>
     </g>
     <g id="text_3">
      <!-- 4 -->
      <defs>
       <path d="M 37.796875 64.3125
L 12.890625 25.390625
L 37.796875 25.390625
z
M 35.203125 72.90625
L 47.609375 72.90625
L 47.609375 25.390625
L 58.015625 25.390625
L 58.015625 17.1875
L 47.609375 17.1875
L 47.609375 0
L 37.796875 0
L 37.796875 17.1875
L 4.890625 17.1875
L 4.890625 26.703125
z
" id="DejaVuSans-52"/>
      </defs>
      <g style="fill:#4d4d4d;" transform="translate(233.777507 300.763501)scale(0.12 -0.12)">
       <use xlink:href="#DejaVuSans-52"/>
      </g>
     </g>
    </g>
    <g id="xtick_4">
     <g id="line2d_7">
      <path clip-path="url(#p943af7a62f)" d="M 325.168361 286.695376
L 325.168361 20.583376
" style="fill:none;stroke:#e5e5e5;stroke-width:0.8;"/>
     </g>
     <g id="line2d_8">
      <path d="M 325.168361 286.695376
" style="fill:none;stroke:#000000;stroke-width:1.5;"/>
      <g>
       <use style="stroke:#000000;" x="325.168361" xlink:href="#m41f49275ae" y="286.695376"/>
      </g>
     </g>
     <g id="text_4">
      <!-- 6 -->
      <defs>
       <path d="M 33.015625 40.375
Q 26.375 40.375 22.484375 35.828125
Q 18.609375 31.296875 18.609375 23.390625
Q 18.609375 15.53125 22.484375 10.953125
Q 26.375 6.390625 33.015625 6.390625
Q 39.65625 6.390625 43.53125 10.953125
Q 47.40625 15.53125 47.40625 23.390625
Q 47.40625 31.296875 43.53125 35.828125
Q 39.65625 40.375 33.015625 40.375
z
M 52.59375 71.296875
L 52.59375 62.3125
Q 48.875 64.0625 45.09375 64.984375
Q 41.3125 65.921875 37.59375 65.921875
Q 27.828125 65.921875 22.671875 59.328125
Q 17.53125 52.734375 16.796875 39.40625
Q 19.671875 43.65625 24.015625 45.921875
Q 28.375 48.1875 33.59375 48.1875
Q 44.578125 48.1875 50.953125 41.515625
Q 57.328125 34.859375 57.328125 23.390625
Q 57.328125 12.15625 50.6875 5.359375
Q 44.046875 -1.421875 33.015625 -1.421875
Q 20.359375 -1.421875 13.671875 8.265625
Q 6.984375 17.96875 6.984375 36.375
Q 6.984375 53.65625 15.1875 63.9375
Q 23.390625 74.21875 37.203125 74.21875
Q 40.921875 74.21875 44.703125 73.484375
Q 48.484375 72.75 52.59375 71.296875
z
" id="DejaVuSans-54"/>
      </defs>
      <g style="fill:#4d4d4d;" transform="translate(321.350861 300.763501)scale(0.12 -0.12)">
       <use xlink:href="#DejaVuSans-54"/>
      </g>
     </g>
    </g>
    <g id="xtick_5">
     <g id="line2d_9">
      <path clip-path="url(#p943af7a62f)" d="M 106.234978 286.695376
L 106.234978 20.583376
" style="fill:none;stroke:#fafafa;"/>
     </g>
     <g id="line2d_10">
      <path d="M 106.234978 286.695376
" style="fill:none;stroke:#000000;stroke-width:1.5;"/>
     </g>
    </g>
    <g id="xtick_6">
     <g id="line2d_11">
      <path clip-path="url(#p943af7a62f)" d="M 193.808331 286.695376
L 193.808331 20.583376
" style="fill:none;stroke:#fafafa;"/>
     </g>
     <g id="line2d_12">
      <path d="M 193.808331 286.695376
" style="fill:none;stroke:#000000;stroke-width:1.5;"/>
     </g>
    </g>
    <g id="xtick_7">
     <g id="line2d_13">
      <path clip-path="url(#p943af7a62f)" d="M 281.381684 286.695376
L 281.381684 20.583376
" style="fill:none;stroke:#fafafa;"/>
     </g>
     <g id="line2d_14">
      <path d="M 281.381684 286.695376
" style="fill:none;stroke:#000000;stroke-width:1.5;"/>
     </g>
    </g>
    <g id="xtick_8">
     <g id="line2d_15">
      <path clip-path="url(#p943af7a62f)" d="M 368.955037 286.695376
L 368.955037 20.583376
" style="fill:none;stroke:#fafafa;"/>
     </g>
     <g id="line2d_16">
      <path d="M 368.955037 286.695376
" style="fill:none;stroke:#000000;stroke-width:1.5;"/>
     </g>
    </g>
    <g id="text_5">
     <!-- -log10(median(FDR)) -->
     <defs>
      <path d="M 4.890625 31.390625
L 31.203125 31.390625
L 31.203125 23.390625
L 4.890625 23.390625
z
" id="DejaVuSans-45"/>
      <path d="M 9.421875 75.984375
L 18.40625 75.984375
L 18.40625 0
L 9.421875 0
z
" id="DejaVuSans-108"/>
      <path d="M 30.609375 48.390625
Q 23.390625 48.390625 19.1875 42.75
Q 14.984375 37.109375 14.984375 27.296875
Q 14.984375 17.484375 19.15625 11.84375
Q 23.34375 6.203125 30.609375 6.203125
Q 37.796875 6.203125 41.984375 11.859375
Q 46.1875 17.53125 46.1875 27.296875
Q 46.1875 37.015625 41.984375 42.703125
Q 37.796875 48.390625 30.609375 48.390625
z
M 30.609375 56
Q 42.328125 56 49.015625 48.375
Q 55.71875 40.765625 55.71875 27.296875
Q 55.71875 13.875 49.015625 6.21875
Q 42.328125 -1.421875 30.609375 -1.421875
Q 18.84375 -1.421875 12.171875 6.21875
Q 5.515625 13.875 5.515625 27.296875
Q 5.515625 40.765625 12.171875 48.375
Q 18.84375 56 30.609375 56
z
" id="DejaVuSans-111"/>
      <path d="M 45.40625 27.984375
Q 45.40625 37.75 41.375 43.109375
Q 37.359375 48.484375 30.078125 48.484375
Q 22.859375 48.484375 18.828125 43.109375
Q 14.796875 37.75 14.796875 27.984375
Q 14.796875 18.265625 18.828125 12.890625
Q 22.859375 7.515625 30.078125 7.515625
Q 37.359375 7.515625 41.375 12.890625
Q 45.40625 18.265625 45.40625 27.984375
z
M 54.390625 6.78125
Q 54.390625 -7.171875 48.1875 -13.984375
Q 42 -20.796875 29.203125 -20.796875
Q 24.46875 -20.796875 20.265625 -20.09375
Q 16.0625 -19.390625 12.109375 -17.921875
L 12.109375 -9.1875
Q 16.0625 -11.328125 19.921875 -12.34375
Q 23.78125 -13.375 27.78125 -13.375
Q 36.625 -13.375 41.015625 -8.765625
Q 45.40625 -4.15625 45.40625 5.171875
L 45.40625 9.625
Q 42.625 4.78125 38.28125 2.390625
Q 33.9375 0 27.875 0
Q 17.828125 0 11.671875 7.65625
Q 5.515625 15.328125 5.515625 27.984375
Q 5.515625 40.671875 11.671875 48.328125
Q 17.828125 56 27.875 56
Q 33.9375 56 38.28125 53.609375
Q 42.625 51.21875 45.40625 46.390625
L 45.40625 54.6875
L 54.390625 54.6875
z
" id="DejaVuSans-103"/>
      <path d="M 12.40625 8.296875
L 28.515625 8.296875
L 28.515625 63.921875
L 10.984375 60.40625
L 10.984375 69.390625
L 28.421875 72.90625
L 38.28125 72.90625
L 38.28125 8.296875
L 54.390625 8.296875
L 54.390625 0
L 12.40625 0
z
" id="DejaVuSans-49"/>
      <path d="M 31 75.875
Q 24.46875 64.65625 21.28125 53.65625
Q 18.109375 42.671875 18.109375 31.390625
Q 18.109375 20.125 21.3125 9.0625
Q 24.515625 -2 31 -13.1875
L 23.1875 -13.1875
Q 15.875 -1.703125 12.234375 9.375
Q 8.59375 20.453125 8.59375 31.390625
Q 8.59375 42.28125 12.203125 53.3125
Q 15.828125 64.359375 23.1875 75.875
z
" id="DejaVuSans-40"/>
      <path d="M 52 44.1875
Q 55.375 50.25 60.0625 53.125
Q 64.75 56 71.09375 56
Q 79.640625 56 84.28125 50.015625
Q 88.921875 44.046875 88.921875 33.015625
L 88.921875 0
L 79.890625 0
L 79.890625 32.71875
Q 79.890625 40.578125 77.09375 44.375
Q 74.3125 48.1875 68.609375 48.1875
Q 61.625 48.1875 57.5625 43.546875
Q 53.515625 38.921875 53.515625 30.90625
L 53.515625 0
L 44.484375 0
L 44.484375 32.71875
Q 44.484375 40.625 41.703125 44.40625
Q 38.921875 48.1875 33.109375 48.1875
Q 26.21875 48.1875 22.15625 43.53125
Q 18.109375 38.875 18.109375 30.90625
L 18.109375 0
L 9.078125 0
L 9.078125 54.6875
L 18.109375 54.6875
L 18.109375 46.1875
Q 21.1875 51.21875 25.484375 53.609375
Q 29.78125 56 35.6875 56
Q 41.65625 56 45.828125 52.96875
Q 50 49.953125 52 44.1875
z
" id="DejaVuSans-109"/>
      <path d="M 56.203125 29.59375
L 56.203125 25.203125
L 14.890625 25.203125
Q 15.484375 15.921875 20.484375 11.0625
Q 25.484375 6.203125 34.421875 6.203125
Q 39.59375 6.203125 44.453125 7.46875
Q 49.3125 8.734375 54.109375 11.28125
L 54.109375 2.78125
Q 49.265625 0.734375 44.1875 -0.34375
Q 39.109375 -1.421875 33.890625 -1.421875
Q 20.796875 -1.421875 13.15625 6.1875
Q 5.515625 13.8125 5.515625 26.8125
Q 5.515625 40.234375 12.765625 48.109375
Q 20.015625 56 32.328125 56
Q 43.359375 56 49.78125 48.890625
Q 56.203125 41.796875 56.203125 29.59375
z
M 47.21875 32.234375
Q 47.125 39.59375 43.09375 43.984375
Q 39.0625 48.390625 32.421875 48.390625
Q 24.90625 48.390625 20.390625 44.140625
Q 15.875 39.890625 15.1875 32.171875
z
" id="DejaVuSans-101"/>
      <path d="M 45.40625 46.390625
L 45.40625 75.984375
L 54.390625 75.984375
L 54.390625 0
L 45.40625 0
L 45.40625 8.203125
Q 42.578125 3.328125 38.25 0.953125
Q 33.9375 -1.421875 27.875 -1.421875
Q 17.96875 -1.421875 11.734375 6.484375
Q 5.515625 14.40625 5.515625 27.296875
Q 5.515625 40.1875 11.734375 48.09375
Q 17.96875 56 27.875 56
Q 33.9375 56 38.25 53.625
Q 42.578125 51.265625 45.40625 46.390625
z
M 14.796875 27.296875
Q 14.796875 17.390625 18.875 11.75
Q 22.953125 6.109375 30.078125 6.109375
Q 37.203125 6.109375 41.296875 11.75
Q 45.40625 17.390625 45.40625 27.296875
Q 45.40625 37.203125 41.296875 42.84375
Q 37.203125 48.484375 30.078125 48.484375
Q 22.953125 48.484375 18.875 42.84375
Q 14.796875 37.203125 14.796875 27.296875
z
" id="DejaVuSans-100"/>
      <path d="M 9.421875 54.6875
L 18.40625 54.6875
L 18.40625 0
L 9.421875 0
z
M 9.421875 75.984375
L 18.40625 75.984375
L 18.40625 64.59375
L 9.421875 64.59375
z
" id="DejaVuSans-105"/>
      <path d="M 34.28125 27.484375
Q 23.390625 27.484375 19.1875 25
Q 14.984375 22.515625 14.984375 16.5
Q 14.984375 11.71875 18.140625 8.90625
Q 21.296875 6.109375 26.703125 6.109375
Q 34.1875 6.109375 38.703125 11.40625
Q 43.21875 16.703125 43.21875 25.484375
L 43.21875 27.484375
z
M 52.203125 31.203125
L 52.203125 0
L 43.21875 0
L 43.21875 8.296875
Q 40.140625 3.328125 35.546875 0.953125
Q 30.953125 -1.421875 24.3125 -1.421875
Q 15.921875 -1.421875 10.953125 3.296875
Q 6 8.015625 6 15.921875
Q 6 25.140625 12.171875 29.828125
Q 18.359375 34.515625 30.609375 34.515625
L 43.21875 34.515625
L 43.21875 35.40625
Q 43.21875 41.609375 39.140625 45
Q 35.0625 48.390625 27.6875 48.390625
Q 23 48.390625 18.546875 47.265625
Q 14.109375 46.140625 10.015625 43.890625
L 10.015625 52.203125
Q 14.9375 54.109375 19.578125 55.046875
Q 24.21875 56 28.609375 56
Q 40.484375 56 46.34375 49.84375
Q 52.203125 43.703125 52.203125 31.203125
z
" id="DejaVuSans-97"/>
      <path d="M 54.890625 33.015625
L 54.890625 0
L 45.90625 0
L 45.90625 32.71875
Q 45.90625 40.484375 42.875 44.328125
Q 39.84375 48.1875 33.796875 48.1875
Q 26.515625 48.1875 22.3125 43.546875
Q 18.109375 38.921875 18.109375 30.90625
L 18.109375 0
L 9.078125 0
L 9.078125 54.6875
L 18.109375 54.6875
L 18.109375 46.1875
Q 21.34375 51.125 25.703125 53.5625
Q 30.078125 56 35.796875 56
Q 45.21875 56 50.046875 50.171875
Q 54.890625 44.34375 54.890625 33.015625
z
" id="DejaVuSans-110"/>
      <path d="M 9.8125 72.90625
L 51.703125 72.90625
L 51.703125 64.59375
L 19.671875 64.59375
L 19.671875 43.109375
L 48.578125 43.109375
L 48.578125 34.8125
L 19.671875 34.8125
L 19.671875 0
L 9.8125 0
z
" id="DejaVuSans-70"/>
      <path d="M 19.671875 64.796875
L 19.671875 8.109375
L 31.59375 8.109375
Q 46.6875 8.109375 53.6875 14.9375
Q 60.6875 21.78125 60.6875 36.53125
Q 60.6875 51.171875 53.6875 57.984375
Q 46.6875 64.796875 31.59375 64.796875
z
M 9.8125 72.90625
L 30.078125 72.90625
Q 51.265625 72.90625 61.171875 64.09375
Q 71.09375 55.28125 71.09375 36.53125
Q 71.09375 17.671875 61.125 8.828125
Q 51.171875 0 30.078125 0
L 9.8125 0
z
" id="DejaVuSans-68"/>
      <path d="M 44.390625 34.1875
Q 47.5625 33.109375 50.5625 29.59375
Q 53.5625 26.078125 56.59375 19.921875
L 66.609375 0
L 56 0
L 46.6875 18.703125
Q 43.0625 26.03125 39.671875 28.421875
Q 36.28125 30.8125 30.421875 30.8125
L 19.671875 30.8125
L 19.671875 0
L 9.8125 0
L 9.8125 72.90625
L 32.078125 72.90625
Q 44.578125 72.90625 50.734375 67.671875
Q 56.890625 62.453125 56.890625 51.90625
Q 56.890625 45.015625 53.6875 40.46875
Q 50.484375 35.9375 44.390625 34.1875
z
M 19.671875 64.796875
L 19.671875 38.921875
L 32.078125 38.921875
Q 39.203125 38.921875 42.84375 42.21875
Q 46.484375 45.515625 46.484375 51.90625
Q 46.484375 58.296875 42.84375 61.546875
Q 39.203125 64.796875 32.078125 64.796875
z
" id="DejaVuSans-82"/>
      <path d="M 8.015625 75.875
L 15.828125 75.875
Q 23.140625 64.359375 26.78125 53.3125
Q 30.421875 42.28125 30.421875 31.390625
Q 30.421875 20.453125 26.78125 9.375
Q 23.140625 -1.703125 15.828125 -13.1875
L 8.015625 -13.1875
Q 14.5 -2 17.703125 9.0625
Q 20.90625 20.125 20.90625 31.390625
Q 20.90625 42.671875 17.703125 53.65625
Q 14.5 64.65625 8.015625 75.875
z
" id="DejaVuSans-41"/>
     </defs>
     <g transform="translate(140.769453 319.056782)scale(0.15 -0.15)">
      <use xlink:href="#DejaVuSans-45"/>
      <use x="36.083984" xlink:href="#DejaVuSans-108"/>
      <use x="63.867188" xlink:href="#DejaVuSans-111"/>
      <use x="125.048828" xlink:href="#DejaVuSans-103"/>
      <use x="188.525391" xlink:href="#DejaVuSans-49"/>
      <use x="252.148438" xlink:href="#DejaVuSans-48"/>
      <use x="315.771484" xlink:href="#DejaVuSans-40"/>
      <use x="354.785156" xlink:href="#DejaVuSans-109"/>
      <use x="452.197266" xlink:href="#DejaVuSans-101"/>
      <use x="513.720703" xlink:href="#DejaVuSans-100"/>
      <use x="577.197266" xlink:href="#DejaVuSans-105"/>
      <use x="604.980469" xlink:href="#DejaVuSans-97"/>
      <use x="666.259766" xlink:href="#DejaVuSans-110"/>
      <use x="729.638672" xlink:href="#DejaVuSans-40"/>
      <use x="768.652344" xlink:href="#DejaVuSans-70"/>
      <use x="826.171875" xlink:href="#DejaVuSans-68"/>
      <use x="903.173828" xlink:href="#DejaVuSans-82"/>
      <use x="972.65625" xlink:href="#DejaVuSans-41"/>
      <use x="1011.669922" xlink:href="#DejaVuSans-41"/>
     </g>
    </g>
   </g>
   <g id="matplotlib.axis_2">
    <g id="ytick_1">
     <g id="line2d_17">
      <path clip-path="url(#p943af7a62f)" d="M 46.772188 274.599376
L 403.892188 274.599376
" style="fill:none;stroke:#e5e5e5;stroke-width:0.8;"/>
     </g>
     <g id="line2d_18">
      <path d="M 46.772188 274.599376
" style="fill:none;stroke:#000000;stroke-width:1.5;"/>
      <defs>
       <path d="M 0 0
L -2.75 0
" id="mf1b0f2f0ed" style="stroke:#000000;"/>
      </defs>
      <g>
       <use style="stroke:#000000;" x="46.772188" xlink:href="#mf1b0f2f0ed" y="274.599376"/>
      </g>
     </g>
     <g id="text_6">
      <!-- 0 -->
      <g style="fill:#4d4d4d;" transform="translate(34.187188 277.910626)scale(0.12 -0.12)">
       <use xlink:href="#DejaVuSans-48"/>
      </g>
     </g>
    </g>
    <g id="ytick_2">
     <g id="line2d_19">
      <path clip-path="url(#p943af7a62f)" d="M 46.772188 214.119376
L 403.892188 214.119376
" style="fill:none;stroke:#e5e5e5;stroke-width:0.8;"/>
     </g>
     <g id="line2d_20">
      <path d="M 46.772188 214.119376
" style="fill:none;stroke:#000000;stroke-width:1.5;"/>
      <g>
       <use style="stroke:#000000;" x="46.772188" xlink:href="#mf1b0f2f0ed" y="214.119376"/>
      </g>
     </g>
     <g id="text_7">
      <!-- 25 -->
      <defs>
       <path d="M 10.796875 72.90625
L 49.515625 72.90625
L 49.515625 64.59375
L 19.828125 64.59375
L 19.828125 46.734375
Q 21.96875 47.46875 24.109375 47.828125
Q 26.265625 48.1875 28.421875 48.1875
Q 40.625 48.1875 47.75 41.5
Q 54.890625 34.8125 54.890625 23.390625
Q 54.890625 11.625 47.5625 5.09375
Q 40.234375 -1.421875 26.90625 -1.421875
Q 22.3125 -1.421875 17.546875 -0.640625
Q 12.796875 0.140625 7.71875 1.703125
L 7.71875 11.625
Q 12.109375 9.234375 16.796875 8.0625
Q 21.484375 6.890625 26.703125 6.890625
Q 35.15625 6.890625 40.078125 11.328125
Q 45.015625 15.765625 45.015625 23.390625
Q 45.015625 31 40.078125 35.4375
Q 35.15625 39.890625 26.703125 39.890625
Q 22.75 39.890625 18.8125 39.015625
Q 14.890625 38.140625 10.796875 36.28125
z
" id="DejaVuSans-53"/>
      </defs>
      <g style="fill:#4d4d4d;" transform="translate(26.552188 217.430626)scale(0.12 -0.12)">
       <use xlink:href="#DejaVuSans-50"/>
       <use x="63.623047" xlink:href="#DejaVuSans-53"/>
      </g>
     </g>
    </g>
    <g id="ytick_3">
     <g id="line2d_21">
      <path clip-path="url(#p943af7a62f)" d="M 46.772188 153.639376
L 403.892188 153.639376
" style="fill:none;stroke:#e5e5e5;stroke-width:0.8;"/>
     </g>
     <g id="line2d_22">
      <path d="M 46.772188 153.639376
" style="fill:none;stroke:#000000;stroke-width:1.5;"/>
      <g>
       <use style="stroke:#000000;" x="46.772188" xlink:href="#mf1b0f2f0ed" y="153.639376"/>
      </g>
     </g>
     <g id="text_8">
      <!-- 50 -->
      <g style="fill:#4d4d4d;" transform="translate(26.552188 156.950626)scale(0.12 -0.12)">
       <use xlink:href="#DejaVuSans-53"/>
       <use x="63.623047" xlink:href="#DejaVuSans-48"/>
      </g>
     </g>
    </g>
    <g id="ytick_4">
     <g id="line2d_23">
      <path clip-path="url(#p943af7a62f)" d="M 46.772188 93.159376
L 403.892188 93.159376
" style="fill:none;stroke:#e5e5e5;stroke-width:0.8;"/>
     </g>
     <g id="line2d_24">
      <path d="M 46.772188 93.159376
" style="fill:none;stroke:#000000;stroke-width:1.5;"/>
      <g>
       <use style="stroke:#000000;" x="46.772188" xlink:href="#mf1b0f2f0ed" y="93.159376"/>
      </g>
     </g>
     <g id="text_9">
      <!-- 75 -->
      <defs>
       <path d="M 8.203125 72.90625
L 55.078125 72.90625
L 55.078125 68.703125
L 28.609375 0
L 18.3125 0
L 43.21875 64.59375
L 8.203125 64.59375
z
" id="DejaVuSans-55"/>
      </defs>
      <g style="fill:#4d4d4d;" transform="translate(26.552188 96.470626)scale(0.12 -0.12)">
       <use xlink:href="#DejaVuSans-55"/>
       <use x="63.623047" xlink:href="#DejaVuSans-53"/>
      </g>
     </g>
    </g>
    <g id="ytick_5">
     <g id="line2d_25">
      <path clip-path="url(#p943af7a62f)" d="M 46.772188 32.679376
L 403.892188 32.679376
" style="fill:none;stroke:#e5e5e5;stroke-width:0.8;"/>
     </g>
     <g id="line2d_26">
      <path d="M 46.772188 32.679376
" style="fill:none;stroke:#000000;stroke-width:1.5;"/>
      <g>
       <use style="stroke:#000000;" x="46.772188" xlink:href="#mf1b0f2f0ed" y="32.679376"/>
      </g>
     </g>
     <g id="text_10">
      <!-- 100 -->
      <g style="fill:#4d4d4d;" transform="translate(18.917188 35.990626)scale(0.12 -0.12)">
       <use xlink:href="#DejaVuSans-49"/>
       <use x="63.623047" xlink:href="#DejaVuSans-48"/>
       <use x="127.246094" xlink:href="#DejaVuSans-48"/>
      </g>
     </g>
    </g>
    <g id="ytick_6">
     <g id="line2d_27">
      <path clip-path="url(#p943af7a62f)" d="M 46.772188 244.359376
L 403.892188 244.359376
" style="fill:none;stroke:#fafafa;"/>
     </g>
     <g id="line2d_28">
      <path d="M 46.772188 244.359376
" style="fill:none;stroke:#000000;stroke-width:1.5;"/>
     </g>
    </g>
    <g id="ytick_7">
     <g id="line2d_29">
      <path clip-path="url(#p943af7a62f)" d="M 46.772188 183.879376
L 403.892188 183.879376
" style="fill:none;stroke:#fafafa;"/>
     </g>
     <g id="line2d_30">
      <path d="M 46.772188 183.879376
" style="fill:none;stroke:#000000;stroke-width:1.5;"/>
     </g>
    </g>
    <g id="ytick_8">
     <g id="line2d_31">
      <path clip-path="url(#p943af7a62f)" d="M 46.772188 123.399376
L 403.892188 123.399376
" style="fill:none;stroke:#fafafa;"/>
     </g>
     <g id="line2d_32">
      <path d="M 46.772188 123.399376
" style="fill:none;stroke:#000000;stroke-width:1.5;"/>
     </g>
    </g>
    <g id="ytick_9">
     <g id="line2d_33">
      <path clip-path="url(#p943af7a62f)" d="M 46.772188 62.919376
L 403.892188 62.919376
" style="fill:none;stroke:#fafafa;"/>
     </g>
     <g id="line2d_34">
      <path d="M 46.772188 62.919376
" style="fill:none;stroke:#000000;stroke-width:1.5;"/>
     </g>
    </g>
    <g id="text_11">
     <!-- Genericness (percentile of ranking) -->
     <defs>
      <path d="M 59.515625 10.40625
L 59.515625 29.984375
L 43.40625 29.984375
L 43.40625 38.09375
L 69.28125 38.09375
L 69.28125 6.78125
Q 63.578125 2.734375 56.6875 0.65625
Q 49.8125 -1.421875 42 -1.421875
Q 24.90625 -1.421875 15.25 8.5625
Q 5.609375 18.5625 5.609375 36.375
Q 5.609375 54.25 15.25 64.234375
Q 24.90625 74.21875 42 74.21875
Q 49.125 74.21875 55.546875 72.453125
Q 61.96875 70.703125 67.390625 67.28125
L 67.390625 56.78125
Q 61.921875 61.421875 55.765625 63.765625
Q 49.609375 66.109375 42.828125 66.109375
Q 29.4375 66.109375 22.71875 58.640625
Q 16.015625 51.171875 16.015625 36.375
Q 16.015625 21.625 22.71875 14.15625
Q 29.4375 6.6875 42.828125 6.6875
Q 48.046875 6.6875 52.140625 7.59375
Q 56.25 8.5 59.515625 10.40625
z
" id="DejaVuSans-71"/>
      <path d="M 41.109375 46.296875
Q 39.59375 47.171875 37.8125 47.578125
Q 36.03125 48 33.890625 48
Q 26.265625 48 22.1875 43.046875
Q 18.109375 38.09375 18.109375 28.8125
L 18.109375 0
L 9.078125 0
L 9.078125 54.6875
L 18.109375 54.6875
L 18.109375 46.1875
Q 20.953125 51.171875 25.484375 53.578125
Q 30.03125 56 36.53125 56
Q 37.453125 56 38.578125 55.875
Q 39.703125 55.765625 41.0625 55.515625
z
" id="DejaVuSans-114"/>
      <path d="M 48.78125 52.59375
L 48.78125 44.1875
Q 44.96875 46.296875 41.140625 47.34375
Q 37.3125 48.390625 33.40625 48.390625
Q 24.65625 48.390625 19.8125 42.84375
Q 14.984375 37.3125 14.984375 27.296875
Q 14.984375 17.28125 19.8125 11.734375
Q 24.65625 6.203125 33.40625 6.203125
Q 37.3125 6.203125 41.140625 7.25
Q 44.96875 8.296875 48.78125 10.40625
L 48.78125 2.09375
Q 45.015625 0.34375 40.984375 -0.53125
Q 36.96875 -1.421875 32.421875 -1.421875
Q 20.0625 -1.421875 12.78125 6.34375
Q 5.515625 14.109375 5.515625 27.296875
Q 5.515625 40.671875 12.859375 48.328125
Q 20.21875 56 33.015625 56
Q 37.15625 56 41.109375 55.140625
Q 45.0625 54.296875 48.78125 52.59375
z
" id="DejaVuSans-99"/>
      <path d="M 44.28125 53.078125
L 44.28125 44.578125
Q 40.484375 46.53125 36.375 47.5
Q 32.28125 48.484375 27.875 48.484375
Q 21.1875 48.484375 17.84375 46.4375
Q 14.5 44.390625 14.5 40.28125
Q 14.5 37.15625 16.890625 35.375
Q 19.28125 33.59375 26.515625 31.984375
L 29.59375 31.296875
Q 39.15625 29.25 43.1875 25.515625
Q 47.21875 21.78125 47.21875 15.09375
Q 47.21875 7.46875 41.1875 3.015625
Q 35.15625 -1.421875 24.609375 -1.421875
Q 20.21875 -1.421875 15.453125 -0.5625
Q 10.6875 0.296875 5.421875 2
L 5.421875 11.28125
Q 10.40625 8.6875 15.234375 7.390625
Q 20.0625 6.109375 24.8125 6.109375
Q 31.15625 6.109375 34.5625 8.28125
Q 37.984375 10.453125 37.984375 14.40625
Q 37.984375 18.0625 35.515625 20.015625
Q 33.0625 21.96875 24.703125 23.78125
L 21.578125 24.515625
Q 13.234375 26.265625 9.515625 29.90625
Q 5.8125 33.546875 5.8125 39.890625
Q 5.8125 47.609375 11.28125 51.796875
Q 16.75 56 26.8125 56
Q 31.78125 56 36.171875 55.265625
Q 40.578125 54.546875 44.28125 53.078125
z
" id="DejaVuSans-115"/>
      <path id="DejaVuSans-32"/>
      <path d="M 18.109375 8.203125
L 18.109375 -20.796875
L 9.078125 -20.796875
L 9.078125 54.6875
L 18.109375 54.6875
L 18.109375 46.390625
Q 20.953125 51.265625 25.265625 53.625
Q 29.59375 56 35.59375 56
Q 45.5625 56 51.78125 48.09375
Q 58.015625 40.1875 58.015625 27.296875
Q 58.015625 14.40625 51.78125 6.484375
Q 45.5625 -1.421875 35.59375 -1.421875
Q 29.59375 -1.421875 25.265625 0.953125
Q 20.953125 3.328125 18.109375 8.203125
z
M 48.6875 27.296875
Q 48.6875 37.203125 44.609375 42.84375
Q 40.53125 48.484375 33.40625 48.484375
Q 26.265625 48.484375 22.1875 42.84375
Q 18.109375 37.203125 18.109375 27.296875
Q 18.109375 17.390625 22.1875 11.75
Q 26.265625 6.109375 33.40625 6.109375
Q 40.53125 6.109375 44.609375 11.75
Q 48.6875 17.390625 48.6875 27.296875
z
" id="DejaVuSans-112"/>
      <path d="M 18.3125 70.21875
L 18.3125 54.6875
L 36.8125 54.6875
L 36.8125 47.703125
L 18.3125 47.703125
L 18.3125 18.015625
Q 18.3125 11.328125 20.140625 9.421875
Q 21.96875 7.515625 27.59375 7.515625
L 36.8125 7.515625
L 36.8125 0
L 27.59375 0
Q 17.1875 0 13.234375 3.875
Q 9.28125 7.765625 9.28125 18.015625
L 9.28125 47.703125
L 2.6875 47.703125
L 2.6875 54.6875
L 9.28125 54.6875
L 9.28125 70.21875
z
" id="DejaVuSans-116"/>
      <path d="M 37.109375 75.984375
L 37.109375 68.5
L 28.515625 68.5
Q 23.6875 68.5 21.796875 66.546875
Q 19.921875 64.59375 19.921875 59.515625
L 19.921875 54.6875
L 34.71875 54.6875
L 34.71875 47.703125
L 19.921875 47.703125
L 19.921875 0
L 10.890625 0
L 10.890625 47.703125
L 2.296875 47.703125
L 2.296875 54.6875
L 10.890625 54.6875
L 10.890625 58.5
Q 10.890625 67.625 15.140625 71.796875
Q 19.390625 75.984375 28.609375 75.984375
z
" id="DejaVuSans-102"/>
      <path d="M 9.078125 75.984375
L 18.109375 75.984375
L 18.109375 31.109375
L 44.921875 54.6875
L 56.390625 54.6875
L 27.390625 29.109375
L 57.625 0
L 45.90625 0
L 18.109375 26.703125
L 18.109375 0
L 9.078125 0
z
" id="DejaVuSans-107"/>
     </defs>
     <g transform="translate(11.397656 284.455126)rotate(-90)scale(0.15 -0.15)">
      <use xlink:href="#DejaVuSans-71"/>
      <use x="77.490234" xlink:href="#DejaVuSans-101"/>
      <use x="139.013672" xlink:href="#DejaVuSans-110"/>
      <use x="202.392578" xlink:href="#DejaVuSans-101"/>
      <use x="263.916016" xlink:href="#DejaVuSans-114"/>
      <use x="305.029297" xlink:href="#DejaVuSans-105"/>
      <use x="332.8125" xlink:href="#DejaVuSans-99"/>
      <use x="387.792969" xlink:href="#DejaVuSans-110"/>
      <use x="451.171875" xlink:href="#DejaVuSans-101"/>
      <use x="512.695312" xlink:href="#DejaVuSans-115"/>
      <use x="564.794922" xlink:href="#DejaVuSans-115"/>
      <use x="616.894531" xlink:href="#DejaVuSans-32"/>
      <use x="648.681641" xlink:href="#DejaVuSans-40"/>
      <use x="687.695312" xlink:href="#DejaVuSans-112"/>
      <use x="751.171875" xlink:href="#DejaVuSans-101"/>
      <use x="812.695312" xlink:href="#DejaVuSans-114"/>
      <use x="853.777344" xlink:href="#DejaVuSans-99"/>
      <use x="908.757812" xlink:href="#DejaVuSans-101"/>
      <use x="970.28125" xlink:href="#DejaVuSans-110"/>
      <use x="1033.660156" xlink:href="#DejaVuSans-116"/>
      <use x="1072.869141" xlink:href="#DejaVuSans-105"/>
      <use x="1100.652344" xlink:href="#DejaVuSans-108"/>
      <use x="1128.435547" xlink:href="#DejaVuSans-101"/>
      <use x="1189.958984" xlink:href="#DejaVuSans-32"/>
      <use x="1221.746094" xlink:href="#DejaVuSans-111"/>
      <use x="1282.927734" xlink:href="#DejaVuSans-102"/>
      <use x="1318.132812" xlink:href="#DejaVuSans-32"/>
      <use x="1349.919922" xlink:href="#DejaVuSans-114"/>
      <use x="1391.033203" xlink:href="#DejaVuSans-97"/>
      <use x="1452.3125" xlink:href="#DejaVuSans-110"/>
      <use x="1515.691406" xlink:href="#DejaVuSans-107"/>
      <use x="1573.601562" xlink:href="#DejaVuSans-105"/>
      <use x="1601.384766" xlink:href="#DejaVuSans-110"/>
      <use x="1664.763672" xlink:href="#DejaVuSans-103"/>
      <use x="1728.240234" xlink:href="#DejaVuSans-41"/>
     </g>
    </g>
   </g>
   <g id="PathCollection_1">
    <path clip-path="url(#p943af7a62f)" d="M 387.65946 34.45183
C 388.12952 34.45183 388.580392 34.265073 388.912774 33.93269
C 389.245157 33.600307 389.431914 33.149436 389.431914 32.679376
C 389.431914 32.209316 389.245157 31.758444 388.912774 31.426062
C 388.580392 31.093679 388.12952 30.906922 387.65946 30.906922
C 387.1894 30.906922 386.738529 31.093679 386.406146 31.426062
C 386.073763 31.758444 385.887006 32.209316 385.887006 32.679376
C 385.887006 33.149436 386.073763 33.600307 386.406146 33.93269
C 386.738529 34.265073 387.1894 34.45183 387.65946 34.45183
z
" style="stroke:#000000;stroke-width:0.886227;"/>
    <path clip-path="url(#p943af7a62f)" d="M 357.278751 39.388973
C 357.748811 39.388973 358.199682 39.202216 358.532065 38.869833
C 358.864448 38.53745 359.051205 38.086579 359.051205 37.616519
C 359.051205 37.146458 358.864448 36.695587 358.532065 36.363205
C 358.199682 36.030822 357.748811 35.844065 357.278751 35.844065
C 356.808691 35.844065 356.35782 36.030822 356.025437 36.363205
C 355.693054 36.695587 355.506297 37.146458 355.506297 37.616519
C 355.506297 38.086579 355.693054 38.53745 356.025437 38.869833
C 356.35782 39.202216 356.808691 39.388973 357.278751 39.388973
z
" style="stroke:#000000;stroke-width:0.886227;"/>
    <path clip-path="url(#p943af7a62f)" d="M 297.552558 44.326115
C 298.022618 44.326115 298.473489 44.139358 298.805872 43.806976
C 299.138255 43.474593 299.325012 43.023722 299.325012 42.553662
C 299.325012 42.083601 299.138255 41.63273 298.805872 41.300347
C 298.473489 40.967965 298.022618 40.781208 297.552558 40.781208
C 297.082498 40.781208 296.631627 40.967965 296.299244 41.300347
C 295.966861 41.63273 295.780104 42.083601 295.780104 42.553662
C 295.780104 43.023722 295.966861 43.474593 296.299244 43.806976
C 296.631627 44.139358 297.082498 44.326115 297.552558 44.326115
z
" style="stroke:#000000;stroke-width:0.886227;"/>
    <path clip-path="url(#p943af7a62f)" d="M 287.573255 49.263258
C 288.043315 49.263258 288.494186 49.076501 288.826569 48.744119
C 289.158951 48.411736 289.345708 47.960865 289.345708 47.490804
C 289.345708 47.020744 289.158951 46.569873 288.826569 46.23749
C 288.494186 45.905107 288.043315 45.718351 287.573255 45.718351
C 287.103194 45.718351 286.652323 45.905107 286.31994 46.23749
C 285.987558 46.569873 285.800801 47.020744 285.800801 47.490804
C 285.800801 47.960865 285.987558 48.411736 286.31994 48.744119
C 286.652323 49.076501 287.103194 49.263258 287.573255 49.263258
z
" style="stroke:#000000;stroke-width:0.886227;"/>
    <path clip-path="url(#p943af7a62f)" d="M 279.44845 54.200401
C 279.91851 54.200401 280.369381 54.013644 280.701764 53.681261
C 281.034147 53.348879 281.220904 52.898008 281.220904 52.427947
C 281.220904 51.957887 281.034147 51.507016 280.701764 51.174633
C 280.369381 50.84225 279.91851 50.655493 279.44845 50.655493
C 278.978389 50.655493 278.527518 50.84225 278.195136 51.174633
C 277.862753 51.507016 277.675996 51.957887 277.675996 52.427947
C 277.675996 52.898008 277.862753 53.348879 278.195136 53.681261
C 278.527518 54.013644 278.978389 54.200401 279.44845 54.200401
z
" style="stroke:#000000;stroke-width:0.886227;"/>
    <path clip-path="url(#p943af7a62f)" d="M 264.460582 59.137544
C 264.930642 59.137544 265.381513 58.950787 265.713896 58.618404
C 266.046279 58.286021 266.233036 57.83515 266.233036 57.36509
C 266.233036 56.89503 266.046279 56.444159 265.713896 56.111776
C 265.381513 55.779393 264.930642 55.592636 264.460582 55.592636
C 263.990522 55.592636 263.539651 55.779393 263.207268 56.111776
C 262.874885 56.444159 262.688128 56.89503 262.688128 57.36509
C 262.688128 57.83515 262.874885 58.286021 263.207268 58.618404
C 263.539651 58.950787 263.990522 59.137544 264.460582 59.137544
z
" style="stroke:#000000;stroke-width:0.886227;"/>
    <path clip-path="url(#p943af7a62f)" d="M 261.001843 64.074687
C 261.471903 64.074687 261.922775 63.88793 262.255157 63.555547
C 262.58754 63.223164 262.774297 62.772293 262.774297 62.302233
C 262.774297 61.832173 262.58754 61.381302 262.255157 61.048919
C 261.922775 60.716536 261.471903 60.529779 261.001843 60.529779
C 260.531783 60.529779 260.080912 60.716536 259.748529 61.048919
C 259.416146 61.381302 259.229389 61.832173 259.229389 62.302233
C 259.229389 62.772293 259.416146 63.223164 259.748529 63.555547
C 260.080912 63.88793 260.531783 64.074687 261.001843 64.074687
z
" style="stroke:#000000;stroke-width:0.886227;"/>
    <path clip-path="url(#p943af7a62f)" d="M 238.273923 69.01183
C 238.743984 69.01183 239.194855 68.825073 239.527237 68.49269
C 239.85962 68.160307 240.046377 67.709436 240.046377 67.239376
C 240.046377 66.769316 239.85962 66.318444 239.527237 65.986062
C 239.194855 65.653679 238.743984 65.466922 238.273923 65.466922
C 237.803863 65.466922 237.352992 65.653679 237.020609 65.986062
C 236.688226 66.318444 236.501469 66.769316 236.501469 67.239376
C 236.501469 67.709436 236.688226 68.160307 237.020609 68.49269
C 237.352992 68.825073 237.803863 69.01183 238.273923 69.01183
z
" style="stroke:#000000;stroke-width:0.886227;"/>
    <path clip-path="url(#p943af7a62f)" d="M 223.893959 73.948973
C 224.364019 73.948973 224.81489 73.762216 225.147273 73.429833
C 225.479656 73.09745 225.666412 72.646579 225.666412 72.176519
C 225.666412 71.706458 225.479656 71.255587 225.147273 70.923205
C 224.81489 70.590822 224.364019 70.404065 223.893959 70.404065
C 223.423898 70.404065 222.973027 70.590822 222.640644 70.923205
C 222.308262 71.255587 222.121505 71.706458 222.121505 72.176519
C 222.121505 72.646579 222.308262 73.09745 222.640644 73.429833
C 222.973027 73.762216 223.423898 73.948973 223.893959 73.948973
z
" style="stroke:#000000;stroke-width:0.886227;"/>
    <path clip-path="url(#p943af7a62f)" d="M 189.808932 78.886115
C 190.278992 78.886115 190.729863 78.699358 191.062246 78.366976
C 191.394629 78.034593 191.581386 77.583722 191.581386 77.113662
C 191.581386 76.643601 191.394629 76.19273 191.062246 75.860347
C 190.729863 75.527965 190.278992 75.341208 189.808932 75.341208
C 189.338872 75.341208 188.888001 75.527965 188.555618 75.860347
C 188.223235 76.19273 188.036478 76.643601 188.036478 77.113662
C 188.036478 77.583722 188.223235 78.034593 188.555618 78.366976
C 188.888001 78.699358 189.338872 78.886115 189.808932 78.886115
z
" style="stroke:#000000;stroke-width:0.886227;"/>
    <path clip-path="url(#p943af7a62f)" d="M 177.497963 83.823258
C 177.968024 83.823258 178.418895 83.636501 178.751278 83.304119
C 179.08366 82.971736 179.270417 82.520865 179.270417 82.050804
C 179.270417 81.580744 179.08366 81.129873 178.751278 80.79749
C 178.418895 80.465107 177.968024 80.278351 177.497963 80.278351
C 177.027903 80.278351 176.577032 80.465107 176.244649 80.79749
C 175.912266 81.129873 175.72551 81.580744 175.72551 82.050804
C 175.72551 82.520865 175.912266 82.971736 176.244649 83.304119
C 176.577032 83.636501 177.027903 83.823258 177.497963 83.823258
z
" style="stroke:#000000;stroke-width:0.886227;"/>
    <path clip-path="url(#p943af7a62f)" d="M 176.844766 88.760401
C 177.314826 88.760401 177.765697 88.573644 178.09808 88.241261
C 178.430462 87.908879 178.617219 87.458008 178.617219 86.987947
C 178.617219 86.517887 178.430462 86.067016 178.09808 85.734633
C 177.765697 85.40225 177.314826 85.215493 176.844766 85.215493
C 176.374705 85.215493 175.923834 85.40225 175.591451 85.734633
C 175.259069 86.067016 175.072312 86.517887 175.072312 86.987947
C 175.072312 87.458008 175.259069 87.908879 175.591451 88.241261
C 175.923834 88.573644 176.374705 88.760401 176.844766 88.760401
z
" style="stroke:#000000;stroke-width:0.886227;"/>
    <path clip-path="url(#p943af7a62f)" d="M 164.341559 93.697544
C 164.811619 93.697544 165.26249 93.510787 165.594873 93.178404
C 165.927256 92.846021 166.114013 92.39515 166.114013 91.92509
C 166.114013 91.45503 165.927256 91.004159 165.594873 90.671776
C 165.26249 90.339393 164.811619 90.152636 164.341559 90.152636
C 163.871499 90.152636 163.420628 90.339393 163.088245 90.671776
C 162.755862 91.004159 162.569105 91.45503 162.569105 91.92509
C 162.569105 92.39515 162.755862 92.846021 163.088245 93.178404
C 163.420628 93.510787 163.871499 93.697544 164.341559 93.697544
z
" style="stroke:#000000;stroke-width:0.886227;"/>
    <path clip-path="url(#p943af7a62f)" d="M 157.873059 98.634687
C 158.343119 98.634687 158.79399 98.44793 159.126373 98.115547
C 159.458755 97.783164 159.645512 97.332293 159.645512 96.862233
C 159.645512 96.392173 159.458755 95.941302 159.126373 95.608919
C 158.79399 95.276536 158.343119 95.089779 157.873059 95.089779
C 157.402998 95.089779 156.952127 95.276536 156.619744 95.608919
C 156.287362 95.941302 156.100605 96.392173 156.100605 96.862233
C 156.100605 97.332293 156.287362 97.783164 156.619744 98.115547
C 156.952127 98.44793 157.402998 98.634687 157.873059 98.634687
z
" style="stroke:#000000;stroke-width:0.886227;"/>
    <path clip-path="url(#p943af7a62f)" d="M 147.806239 103.57183
C 148.2763 103.57183 148.727171 103.385073 149.059554 103.05269
C 149.391936 102.720307 149.578693 102.269436 149.578693 101.799376
C 149.578693 101.329316 149.391936 100.878444 149.059554 100.546062
C 148.727171 100.213679 148.2763 100.026922 147.806239 100.026922
C 147.336179 100.026922 146.885308 100.213679 146.552925 100.546062
C 146.220543 100.878444 146.033786 101.329316 146.033786 101.799376
C 146.033786 102.269436 146.220543 102.720307 146.552925 103.05269
C 146.885308 103.385073 147.336179 103.57183 147.806239 103.57183
z
" style="stroke:#000000;stroke-width:0.886227;"/>
    <path clip-path="url(#p943af7a62f)" d="M 143.515308 108.508973
C 143.985369 108.508973 144.43624 108.322216 144.768623 107.989833
C 145.101005 107.65745 145.287762 107.206579 145.287762 106.736519
C 145.287762 106.266458 145.101005 105.815587 144.768623 105.483205
C 144.43624 105.150822 143.985369 104.964065 143.515308 104.964065
C 143.045248 104.964065 142.594377 105.150822 142.261994 105.483205
C 141.929612 105.815587 141.742855 106.266458 141.742855 106.736519
C 141.742855 107.206579 141.929612 107.65745 142.261994 107.989833
C 142.594377 108.322216 143.045248 108.508973 143.515308 108.508973
z
" style="stroke:#000000;stroke-width:0.886227;"/>
    <path clip-path="url(#p943af7a62f)" d="M 140.219145 113.446115
C 140.689205 113.446115 141.140076 113.259358 141.472459 112.926976
C 141.804841 112.594593 141.991598 112.143722 141.991598 111.673662
C 141.991598 111.203601 141.804841 110.75273 141.472459 110.420347
C 141.140076 110.087965 140.689205 109.901208 140.219145 109.901208
C 139.749084 109.901208 139.298213 110.087965 138.96583 110.420347
C 138.633448 110.75273 138.446691 111.203601 138.446691 111.673662
C 138.446691 112.143722 138.633448 112.594593 138.96583 112.926976
C 139.298213 113.259358 139.749084 113.446115 140.219145 113.446115
z
" style="stroke:#000000;stroke-width:0.886227;"/>
    <path clip-path="url(#p943af7a62f)" d="M 139.337392 118.383258
C 139.807452 118.383258 140.258323 118.196501 140.590706 117.864119
C 140.923089 117.531736 141.109846 117.080865 141.109846 116.610804
C 141.109846 116.140744 140.923089 115.689873 140.590706 115.35749
C 140.258323 115.025107 139.807452 114.838351 139.337392 114.838351
C 138.867332 114.838351 138.416461 115.025107 138.084078 115.35749
C 137.751695 115.689873 137.564938 116.140744 137.564938 116.610804
C 137.564938 117.080865 137.751695 117.531736 138.084078 117.864119
C 138.416461 118.196501 138.867332 118.383258 139.337392 118.383258
z
" style="stroke:#000000;stroke-width:0.886227;"/>
    <path clip-path="url(#p943af7a62f)" d="M 135.349065 123.320401
C 135.819125 123.320401 136.269996 123.133644 136.602379 122.801261
C 136.934762 122.468879 137.121519 122.018008 137.121519 121.547947
C 137.121519 121.077887 136.934762 120.627016 136.602379 120.294633
C 136.269996 119.96225 135.819125 119.775493 135.349065 119.775493
C 134.879004 119.775493 134.428133 119.96225 134.095751 120.294633
C 133.763368 120.627016 133.576611 121.077887 133.576611 121.547947
C 133.576611 122.018008 133.763368 122.468879 134.095751 122.801261
C 134.428133 123.133644 134.879004 123.320401 135.349065 123.320401
z
" style="stroke:#000000;stroke-width:0.886227;"/>
    <path clip-path="url(#p943af7a62f)" d="M 129.49262 128.257544
C 129.96268 128.257544 130.413551 128.070787 130.745934 127.738404
C 131.078317 127.406021 131.265074 126.95515 131.265074 126.48509
C 131.265074 126.01503 131.078317 125.564159 130.745934 125.231776
C 130.413551 124.899393 129.96268 124.712636 129.49262 124.712636
C 129.02256 124.712636 128.571689 124.899393 128.239306 125.231776
C 127.906923 125.564159 127.720166 126.01503 127.720166 126.48509
C 127.720166 126.95515 127.906923 127.406021 128.239306 127.738404
C 128.571689 128.070787 129.02256 128.257544 129.49262 128.257544
z
" style="stroke:#000000;stroke-width:0.886227;"/>
    <path clip-path="url(#p943af7a62f)" d="M 126.430423 133.194687
C 126.900483 133.194687 127.351354 133.00793 127.683737 132.675547
C 128.01612 132.343164 128.202877 131.892293 128.202877 131.422233
C 128.202877 130.952173 128.01612 130.501302 127.683737 130.168919
C 127.351354 129.836536 126.900483 129.649779 126.430423 129.649779
C 125.960362 129.649779 125.509491 129.836536 125.177109 130.168919
C 124.844726 130.501302 124.657969 130.952173 124.657969 131.422233
C 124.657969 131.892293 124.844726 132.343164 125.177109 132.675547
C 125.509491 133.00793 125.960362 133.194687 126.430423 133.194687
z
" style="stroke:#000000;stroke-width:0.886227;"/>
    <path clip-path="url(#p943af7a62f)" d="M 123.549968 138.13183
C 124.020028 138.13183 124.470899 137.945073 124.803282 137.61269
C 125.135665 137.280307 125.322422 136.829436 125.322422 136.359376
C 125.322422 135.889316 125.135665 135.438444 124.803282 135.106062
C 124.470899 134.773679 124.020028 134.586922 123.549968 134.586922
C 123.079908 134.586922 122.629037 134.773679 122.296654 135.106062
C 121.964271 135.438444 121.777514 135.889316 121.777514 136.359376
C 121.777514 136.829436 121.964271 137.280307 122.296654 137.61269
C 122.629037 137.945073 123.079908 138.13183 123.549968 138.13183
z
" style="stroke:#000000;stroke-width:0.886227;"/>
    <path clip-path="url(#p943af7a62f)" d="M 117.765928 143.068973
C 118.235988 143.068973 118.686859 142.882216 119.019242 142.549833
C 119.351625 142.21745 119.538382 141.766579 119.538382 141.296519
C 119.538382 140.826458 119.351625 140.375587 119.019242 140.043205
C 118.686859 139.710822 118.235988 139.524065 117.765928 139.524065
C 117.295868 139.524065 116.844997 139.710822 116.512614 140.043205
C 116.180231 140.375587 115.993474 140.826458 115.993474 141.296519
C 115.993474 141.766579 116.180231 142.21745 116.512614 142.549833
C 116.844997 142.882216 117.295868 143.068973 117.765928 143.068973
z
" style="stroke:#000000;stroke-width:0.886227;"/>
    <path clip-path="url(#p943af7a62f)" d="M 117.50587 148.006115
C 117.97593 148.006115 118.426801 147.819358 118.759184 147.486976
C 119.091567 147.154593 119.278324 146.703722 119.278324 146.233662
C 119.278324 145.763601 119.091567 145.31273 118.759184 144.980347
C 118.426801 144.647965 117.97593 144.461208 117.50587 144.461208
C 117.03581 144.461208 116.584939 144.647965 116.252556 144.980347
C 115.920173 145.31273 115.733416 145.763601 115.733416 146.233662
C 115.733416 146.703722 115.920173 147.154593 116.252556 147.486976
C 116.584939 147.819358 117.03581 148.006115 117.50587 148.006115
z
" style="stroke:#000000;stroke-width:0.886227;"/>
    <path clip-path="url(#p943af7a62f)" d="M 114.700099 152.943258
C 115.17016 152.943258 115.621031 152.756501 115.953414 152.424119
C 116.285796 152.091736 116.472553 151.640865 116.472553 151.170804
C 116.472553 150.700744 116.285796 150.249873 115.953414 149.91749
C 115.621031 149.585107 115.17016 149.398351 114.700099 149.398351
C 114.230039 149.398351 113.779168 149.585107 113.446785 149.91749
C 113.114403 150.249873 112.927646 150.700744 112.927646 151.170804
C 112.927646 151.640865 113.114403 152.091736 113.446785 152.424119
C 113.779168 152.756501 114.230039 152.943258 114.700099 152.943258
z
" style="stroke:#000000;stroke-width:0.886227;"/>
    <path clip-path="url(#p943af7a62f)" d="M 111.503355 157.880401
C 111.973415 157.880401 112.424286 157.693644 112.756669 157.361261
C 113.089052 157.028879 113.275809 156.578008 113.275809 156.107947
C 113.275809 155.637887 113.089052 155.187016 112.756669 154.854633
C 112.424286 154.52225 111.973415 154.335493 111.503355 154.335493
C 111.033295 154.335493 110.582424 154.52225 110.250041 154.854633
C 109.917658 155.187016 109.730901 155.637887 109.730901 156.107947
C 109.730901 156.578008 109.917658 157.028879 110.250041 157.361261
C 110.582424 157.693644 111.033295 157.880401 111.503355 157.880401
z
" style="stroke:#000000;stroke-width:0.886227;"/>
    <path clip-path="url(#p943af7a62f)" d="M 106.587444 162.817544
C 107.057504 162.817544 107.508375 162.630787 107.840758 162.298404
C 108.173141 161.966021 108.359898 161.51515 108.359898 161.04509
C 108.359898 160.57503 108.173141 160.124159 107.840758 159.791776
C 107.508375 159.459393 107.057504 159.272636 106.587444 159.272636
C 106.117384 159.272636 105.666512 159.459393 105.33413 159.791776
C 105.001747 160.124159 104.81499 160.57503 104.81499 161.04509
C 104.81499 161.51515 105.001747 161.966021 105.33413 162.298404
C 105.666512 162.630787 106.117384 162.817544 106.587444 162.817544
z
" style="stroke:#000000;stroke-width:0.886227;"/>
    <path clip-path="url(#p943af7a62f)" d="M 102.199752 170.223258
C 102.669812 170.223258 103.120683 170.036501 103.453066 169.704119
C 103.785449 169.371736 103.972205 168.920865 103.972205 168.450804
C 103.972205 167.980744 103.785449 167.529873 103.453066 167.19749
C 103.120683 166.865107 102.669812 166.678351 102.199752 166.678351
C 101.729691 166.678351 101.27882 166.865107 100.946437 167.19749
C 100.614055 167.529873 100.427298 167.980744 100.427298 168.450804
C 100.427298 168.920865 100.614055 169.371736 100.946437 169.704119
C 101.27882 170.036501 101.729691 170.223258 102.199752 170.223258
z
" style="stroke:#000000;stroke-width:0.886227;"/>
    <path clip-path="url(#p943af7a62f)" d="M 102.199752 170.223258
C 102.669812 170.223258 103.120683 170.036501 103.453066 169.704119
C 103.785449 169.371736 103.972205 168.920865 103.972205 168.450804
C 103.972205 167.980744 103.785449 167.529873 103.453066 167.19749
C 103.120683 166.865107 102.669812 166.678351 102.199752 166.678351
C 101.729691 166.678351 101.27882 166.865107 100.946437 167.19749
C 100.614055 167.529873 100.427298 167.980744 100.427298 168.450804
C 100.427298 168.920865 100.614055 169.371736 100.946437 169.704119
C 101.27882 170.036501 101.729691 170.223258 102.199752 170.223258
z
" style="stroke:#000000;stroke-width:0.886227;"/>
    <path clip-path="url(#p943af7a62f)" d="M 99.799606 177.628973
C 100.269666 177.628973 100.720538 177.442216 101.05292 177.109833
C 101.385303 176.77745 101.57206 176.326579 101.57206 175.856519
C 101.57206 175.386458 101.385303 174.935587 101.05292 174.603205
C 100.720538 174.270822 100.269666 174.084065 99.799606 174.084065
C 99.329546 174.084065 98.878675 174.270822 98.546292 174.603205
C 98.213909 174.935587 98.027152 175.386458 98.027152 175.856519
C 98.027152 176.326579 98.213909 176.77745 98.546292 177.109833
C 98.878675 177.442216 99.329546 177.628973 99.799606 177.628973
z
" style="stroke:#000000;stroke-width:0.886227;"/>
    <path clip-path="url(#p943af7a62f)" d="M 97.35683 182.566115
C 97.82689 182.566115 98.277761 182.379358 98.610144 182.046976
C 98.942527 181.714593 99.129284 181.263722 99.129284 180.793662
C 99.129284 180.323601 98.942527 179.87273 98.610144 179.540347
C 98.277761 179.207965 97.82689 179.021208 97.35683 179.021208
C 96.88677 179.021208 96.435898 179.207965 96.103516 179.540347
C 95.771133 179.87273 95.584376 180.323601 95.584376 180.793662
C 95.584376 181.263722 95.771133 181.714593 96.103516 182.046976
C 96.435898 182.379358 96.88677 182.566115 97.35683 182.566115
z
" style="stroke:#000000;stroke-width:0.886227;"/>
    <path clip-path="url(#p943af7a62f)" d="M 95.49617 187.503258
C 95.96623 187.503258 96.417101 187.316501 96.749484 186.984119
C 97.081867 186.651736 97.268624 186.200865 97.268624 185.730804
C 97.268624 185.260744 97.081867 184.809873 96.749484 184.47749
C 96.417101 184.145107 95.96623 183.958351 95.49617 183.958351
C 95.02611 183.958351 94.575239 184.145107 94.242856 184.47749
C 93.910473 184.809873 93.723716 185.260744 93.723716 185.730804
C 93.723716 186.200865 93.910473 186.651736 94.242856 186.984119
C 94.575239 187.316501 95.02611 187.503258 95.49617 187.503258
z
" style="stroke:#000000;stroke-width:0.886227;"/>
    <path clip-path="url(#p943af7a62f)" d="M 90.659696 192.440401
C 91.129756 192.440401 91.580627 192.253644 91.91301 191.921261
C 92.245393 191.588879 92.432149 191.138008 92.432149 190.667947
C 92.432149 190.197887 92.245393 189.747016 91.91301 189.414633
C 91.580627 189.08225 91.129756 188.895493 90.659696 188.895493
C 90.189635 188.895493 89.738764 189.08225 89.406381 189.414633
C 89.073999 189.747016 88.887242 190.197887 88.887242 190.667947
C 88.887242 191.138008 89.073999 191.588879 89.406381 191.921261
C 89.738764 192.253644 90.189635 192.440401 90.659696 192.440401
z
" style="stroke:#000000;stroke-width:0.886227;"/>
    <path clip-path="url(#p943af7a62f)" d="M 87.694344 199.846115
C 88.164404 199.846115 88.615275 199.659358 88.947658 199.326976
C 89.280041 198.994593 89.466798 198.543722 89.466798 198.073662
C 89.466798 197.603601 89.280041 197.15273 88.947658 196.820347
C 88.615275 196.487965 88.164404 196.301208 87.694344 196.301208
C 87.224284 196.301208 86.773413 196.487965 86.44103 196.820347
C 86.108647 197.15273 85.92189 197.603601 85.92189 198.073662
C 85.92189 198.543722 86.108647 198.994593 86.44103 199.326976
C 86.773413 199.659358 87.224284 199.846115 87.694344 199.846115
z
" style="stroke:#000000;stroke-width:0.886227;"/>
    <path clip-path="url(#p943af7a62f)" d="M 87.694344 199.846115
C 88.164404 199.846115 88.615275 199.659358 88.947658 199.326976
C 89.280041 198.994593 89.466798 198.543722 89.466798 198.073662
C 89.466798 197.603601 89.280041 197.15273 88.947658 196.820347
C 88.615275 196.487965 88.164404 196.301208 87.694344 196.301208
C 87.224284 196.301208 86.773413 196.487965 86.44103 196.820347
C 86.108647 197.15273 85.92189 197.603601 85.92189 198.073662
C 85.92189 198.543722 86.108647 198.994593 86.44103 199.326976
C 86.773413 199.659358 87.224284 199.846115 87.694344 199.846115
z
" style="stroke:#000000;stroke-width:0.886227;"/>
    <path clip-path="url(#p943af7a62f)" d="M 86.036686 207.25183
C 86.506747 207.25183 86.957618 207.065073 87.29 206.73269
C 87.622383 206.400307 87.80914 205.949436 87.80914 205.479376
C 87.80914 205.009316 87.622383 204.558444 87.29 204.226062
C 86.957618 203.893679 86.506747 203.706922 86.036686 203.706922
C 85.566626 203.706922 85.115755 203.893679 84.783372 204.226062
C 84.450989 204.558444 84.264233 205.009316 84.264233 205.479376
C 84.264233 205.949436 84.450989 206.400307 84.783372 206.73269
C 85.115755 207.065073 85.566626 207.25183 86.036686 207.25183
z
" style="stroke:#000000;stroke-width:0.886227;"/>
    <path clip-path="url(#p943af7a62f)" d="M 83.605547 212.188973
C 84.075607 212.188973 84.526478 212.002216 84.858861 211.669833
C 85.191244 211.33745 85.378001 210.886579 85.378001 210.416519
C 85.378001 209.946458 85.191244 209.495587 84.858861 209.163205
C 84.526478 208.830822 84.075607 208.644065 83.605547 208.644065
C 83.135487 208.644065 82.684616 208.830822 82.352233 209.163205
C 82.01985 209.495587 81.833093 209.946458 81.833093 210.416519
C 81.833093 210.886579 82.01985 211.33745 82.352233 211.669833
C 82.684616 212.002216 83.135487 212.188973 83.605547 212.188973
z
" style="stroke:#000000;stroke-width:0.886227;"/>
    <path clip-path="url(#p943af7a62f)" d="M 79.569787 222.063258
C 80.039847 222.063258 80.490718 221.876501 80.823101 221.544119
C 81.155484 221.211736 81.342241 220.760865 81.342241 220.290804
C 81.342241 219.820744 81.155484 219.369873 80.823101 219.03749
C 80.490718 218.705107 80.039847 218.518351 79.569787 218.518351
C 79.099727 218.518351 78.648856 218.705107 78.316473 219.03749
C 77.98409 219.369873 77.797333 219.820744 77.797333 220.290804
C 77.797333 220.760865 77.98409 221.211736 78.316473 221.544119
C 78.648856 221.876501 79.099727 222.063258 79.569787 222.063258
z
" style="stroke:#000000;stroke-width:0.886227;"/>
    <path clip-path="url(#p943af7a62f)" d="M 81.230898 217.126115
C 81.700958 217.126115 82.151829 216.939358 82.484212 216.606976
C 82.816595 216.274593 83.003351 215.823722 83.003351 215.353662
C 83.003351 214.883601 82.816595 214.43273 82.484212 214.100347
C 82.151829 213.767965 81.700958 213.581208 81.230898 213.581208
C 80.760837 213.581208 80.309966 213.767965 79.977584 214.100347
C 79.645201 214.43273 79.458444 214.883601 79.458444 215.353662
C 79.458444 215.823722 79.645201 216.274593 79.977584 216.606976
C 80.309966 216.939358 80.760837 217.126115 81.230898 217.126115
z
" style="stroke:#000000;stroke-width:0.886227;"/>
    <path clip-path="url(#p943af7a62f)" d="M 78.473221 227.000401
C 78.943281 227.000401 79.394152 226.813644 79.726535 226.481261
C 80.058918 226.148879 80.245674 225.698008 80.245674 225.227947
C 80.245674 224.757887 80.058918 224.307016 79.726535 223.974633
C 79.394152 223.64225 78.943281 223.455493 78.473221 223.455493
C 78.00316 223.455493 77.552289 223.64225 77.219906 223.974633
C 76.887524 224.307016 76.700767 224.757887 76.700767 225.227947
C 76.700767 225.698008 76.887524 226.148879 77.219906 226.481261
C 77.552289 226.813644 78.00316 227.000401 78.473221 227.000401
z
" style="stroke:#000000;stroke-width:0.886227;"/>
    <path clip-path="url(#p943af7a62f)" d="M 76.582143 231.937544
C 77.052203 231.937544 77.503074 231.750787 77.835457 231.418404
C 78.16784 231.086021 78.354597 230.63515 78.354597 230.16509
C 78.354597 229.69503 78.16784 229.244159 77.835457 228.911776
C 77.503074 228.579393 77.052203 228.392636 76.582143 228.392636
C 76.112083 228.392636 75.661212 228.579393 75.328829 228.911776
C 74.996446 229.244159 74.809689 229.69503 74.809689 230.16509
C 74.809689 230.63515 74.996446 231.086021 75.328829 231.418404
C 75.661212 231.750787 76.112083 231.937544 76.582143 231.937544
z
" style="stroke:#000000;stroke-width:0.886227;"/>
    <path clip-path="url(#p943af7a62f)" d="M 74.496477 236.874687
C 74.966537 236.874687 75.417409 236.68793 75.749791 236.355547
C 76.082174 236.023164 76.268931 235.572293 76.268931 235.102233
C 76.268931 234.632173 76.082174 234.181302 75.749791 233.848919
C 75.417409 233.516536 74.966537 233.329779 74.496477 233.329779
C 74.026417 233.329779 73.575546 233.516536 73.243163 233.848919
C 72.91078 234.181302 72.724023 234.632173 72.724023 235.102233
C 72.724023 235.572293 72.91078 236.023164 73.243163 236.355547
C 73.575546 236.68793 74.026417 236.874687 74.496477 236.874687
z
" style="stroke:#000000;stroke-width:0.886227;"/>
    <path clip-path="url(#p943af7a62f)" d="M 73.358532 241.81183
C 73.828592 241.81183 74.279463 241.625073 74.611846 241.29269
C 74.944229 240.960307 75.130986 240.509436 75.130986 240.039376
C 75.130986 239.569316 74.944229 239.118444 74.611846 238.786062
C 74.279463 238.453679 73.828592 238.266922 73.358532 238.266922
C 72.888472 238.266922 72.4376 238.453679 72.105218 238.786062
C 71.772835 239.118444 71.586078 239.569316 71.586078 240.039376
C 71.586078 240.509436 71.772835 240.960307 72.105218 241.29269
C 72.4376 241.625073 72.888472 241.81183 73.358532 241.81183
z
" style="stroke:#000000;stroke-width:0.886227;"/>
    <path clip-path="url(#p943af7a62f)" d="M 70.016979 246.748973
C 70.487039 246.748973 70.93791 246.562216 71.270293 246.229833
C 71.602676 245.89745 71.789432 245.446579 71.789432 244.976519
C 71.789432 244.506458 71.602676 244.055587 71.270293 243.723205
C 70.93791 243.390822 70.487039 243.204065 70.016979 243.204065
C 69.546918 243.204065 69.096047 243.390822 68.763664 243.723205
C 68.431282 244.055587 68.244525 244.506458 68.244525 244.976519
C 68.244525 245.446579 68.431282 245.89745 68.763664 246.229833
C 69.096047 246.562216 69.546918 246.748973 70.016979 246.748973
z
" style="stroke:#000000;stroke-width:0.886227;"/>
    <path clip-path="url(#p943af7a62f)" d="M 69.535158 251.686115
C 70.005218 251.686115 70.456089 251.499358 70.788472 251.166976
C 71.120855 250.834593 71.307612 250.383722 71.307612 249.913662
C 71.307612 249.443601 71.120855 248.99273 70.788472 248.660347
C 70.456089 248.327965 70.005218 248.141208 69.535158 248.141208
C 69.065098 248.141208 68.614226 248.327965 68.281844 248.660347
C 67.949461 248.99273 67.762704 249.443601 67.762704 249.913662
C 67.762704 250.383722 67.949461 250.834593 68.281844 251.166976
C 68.614226 251.499358 69.065098 251.686115 69.535158 251.686115
z
" style="stroke:#000000;stroke-width:0.886227;"/>
    <path clip-path="url(#p943af7a62f)" d="M 67.890797 256.623258
C 68.360857 256.623258 68.811728 256.436501 69.144111 256.104119
C 69.476494 255.771736 69.663251 255.320865 69.663251 254.850804
C 69.663251 254.380744 69.476494 253.929873 69.144111 253.59749
C 68.811728 253.265107 68.360857 253.078351 67.890797 253.078351
C 67.420736 253.078351 66.969865 253.265107 66.637483 253.59749
C 66.3051 253.929873 66.118343 254.380744 66.118343 254.850804
C 66.118343 255.320865 66.3051 255.771736 66.637483 256.104119
C 66.969865 256.436501 67.420736 256.623258 67.890797 256.623258
z
" style="stroke:#000000;stroke-width:0.886227;"/>
    <path clip-path="url(#p943af7a62f)" d="M 66.178407 261.560401
C 66.648467 261.560401 67.099338 261.373644 67.431721 261.041261
C 67.764104 260.708879 67.95086 260.258008 67.95086 259.787947
C 67.95086 259.317887 67.764104 258.867016 67.431721 258.534633
C 67.099338 258.20225 66.648467 258.015493 66.178407 258.015493
C 65.708346 258.015493 65.257475 258.20225 64.925092 258.534633
C 64.59271 258.867016 64.405953 259.317887 64.405953 259.787947
C 64.405953 260.258008 64.59271 260.708879 64.925092 261.041261
C 65.257475 261.373644 65.708346 261.560401 66.178407 261.560401
z
" style="stroke:#000000;stroke-width:0.886227;"/>
    <path clip-path="url(#p943af7a62f)" d="M 64.658193 266.497544
C 65.128253 266.497544 65.579124 266.310787 65.911507 265.978404
C 66.24389 265.646021 66.430647 265.19515 66.430647 264.72509
C 66.430647 264.25503 66.24389 263.804159 65.911507 263.471776
C 65.579124 263.139393 65.128253 262.952636 64.658193 262.952636
C 64.188133 262.952636 63.737262 263.139393 63.404879 263.471776
C 63.072496 263.804159 62.885739 264.25503 62.885739 264.72509
C 62.885739 265.19515 63.072496 265.646021 63.404879 265.978404
C 63.737262 266.310787 64.188133 266.497544 64.658193 266.497544
z
" style="stroke:#000000;stroke-width:0.886227;"/>
    <path clip-path="url(#p943af7a62f)" d="M 64.071355 271.434687
C 64.541415 271.434687 64.992286 271.24793 65.324669 270.915547
C 65.657051 270.583164 65.843808 270.132293 65.843808 269.662233
C 65.843808 269.192173 65.657051 268.741302 65.324669 268.408919
C 64.992286 268.076536 64.541415 267.889779 64.071355 267.889779
C 63.601294 267.889779 63.150423 268.076536 62.81804 268.408919
C 62.485658 268.741302 62.298901 269.192173 62.298901 269.662233
C 62.298901 270.132293 62.485658 270.583164 62.81804 270.915547
C 63.150423 271.24793 63.601294 271.434687 64.071355 271.434687
z
" style="stroke:#000000;stroke-width:0.886227;"/>
    <path clip-path="url(#p943af7a62f)" d="M 63.004915 276.37183
C 63.474975 276.37183 63.925846 276.185073 64.258229 275.85269
C 64.590612 275.520307 64.777369 275.069436 64.777369 274.599376
C 64.777369 274.129316 64.590612 273.678444 64.258229 273.346062
C 63.925846 273.013679 63.474975 272.826922 63.004915 272.826922
C 62.534855 272.826922 62.083983 273.013679 61.751601 273.346062
C 61.419218 273.678444 61.232461 274.129316 61.232461 274.599376
C 61.232461 275.069436 61.419218 275.520307 61.751601 275.85269
C 62.083983 276.185073 62.534855 276.37183 63.004915 276.37183
z
" style="stroke:#000000;stroke-width:0.886227;"/>
   </g>
   <g id="PathCollection_2">
    <path clip-path="url(#p943af7a62f)" d="M 387.65946 34.45183
C 388.12952 34.45183 388.580392 34.265073 388.912774 33.93269
C 389.245157 33.600307 389.431914 33.149436 389.431914 32.679376
C 389.431914 32.209316 389.245157 31.758444 388.912774 31.426062
C 388.580392 31.093679 388.12952 30.906922 387.65946 30.906922
C 387.1894 30.906922 386.738529 31.093679 386.406146 31.426062
C 386.073763 31.758444 385.887006 32.209316 385.887006 32.679376
C 385.887006 33.149436 386.073763 33.600307 386.406146 33.93269
C 386.738529 34.265073 387.1894 34.45183 387.65946 34.45183
z
" style="fill:#ff0000;stroke:#ff0000;stroke-width:0.886227;"/>
    <path clip-path="url(#p943af7a62f)" d="M 357.278751 39.388973
C 357.748811 39.388973 358.199682 39.202216 358.532065 38.869833
C 358.864448 38.53745 359.051205 38.086579 359.051205 37.616519
C 359.051205 37.146458 358.864448 36.695587 358.532065 36.363205
C 358.199682 36.030822 357.748811 35.844065 357.278751 35.844065
C 356.808691 35.844065 356.35782 36.030822 356.025437 36.363205
C 355.693054 36.695587 355.506297 37.146458 355.506297 37.616519
C 355.506297 38.086579 355.693054 38.53745 356.025437 38.869833
C 356.35782 39.202216 356.808691 39.388973 357.278751 39.388973
z
" style="fill:#ff0000;stroke:#ff0000;stroke-width:0.886227;"/>
    <path clip-path="url(#p943af7a62f)" d="M 297.552558 44.326115
C 298.022618 44.326115 298.473489 44.139358 298.805872 43.806976
C 299.138255 43.474593 299.325012 43.023722 299.325012 42.553662
C 299.325012 42.083601 299.138255 41.63273 298.805872 41.300347
C 298.473489 40.967965 298.022618 40.781208 297.552558 40.781208
C 297.082498 40.781208 296.631627 40.967965 296.299244 41.300347
C 295.966861 41.63273 295.780104 42.083601 295.780104 42.553662
C 295.780104 43.023722 295.966861 43.474593 296.299244 43.806976
C 296.631627 44.139358 297.082498 44.326115 297.552558 44.326115
z
" style="fill:#ff0000;stroke:#ff0000;stroke-width:0.886227;"/>
    <path clip-path="url(#p943af7a62f)" d="M 287.573255 49.263258
C 288.043315 49.263258 288.494186 49.076501 288.826569 48.744119
C 289.158951 48.411736 289.345708 47.960865 289.345708 47.490804
C 289.345708 47.020744 289.158951 46.569873 288.826569 46.23749
C 288.494186 45.905107 288.043315 45.718351 287.573255 45.718351
C 287.103194 45.718351 286.652323 45.905107 286.31994 46.23749
C 285.987558 46.569873 285.800801 47.020744 285.800801 47.490804
C 285.800801 47.960865 285.987558 48.411736 286.31994 48.744119
C 286.652323 49.076501 287.103194 49.263258 287.573255 49.263258
z
" style="fill:#ff0000;stroke:#ff0000;stroke-width:0.886227;"/>
    <path clip-path="url(#p943af7a62f)" d="M 279.44845 54.200401
C 279.91851 54.200401 280.369381 54.013644 280.701764 53.681261
C 281.034147 53.348879 281.220904 52.898008 281.220904 52.427947
C 281.220904 51.957887 281.034147 51.507016 280.701764 51.174633
C 280.369381 50.84225 279.91851 50.655493 279.44845 50.655493
C 278.978389 50.655493 278.527518 50.84225 278.195136 51.174633
C 277.862753 51.507016 277.675996 51.957887 277.675996 52.427947
C 277.675996 52.898008 277.862753 53.348879 278.195136 53.681261
C 278.527518 54.013644 278.978389 54.200401 279.44845 54.200401
z
" style="fill:#ff0000;stroke:#ff0000;stroke-width:0.886227;"/>
   </g>
   <g id="text_12">
    <g clip-path="url(#p943af7a62f)">
     <!-- HALLMARK_ADIPOGENESIS -->
     <defs>
      <path d="M 9.8125 72.90625
L 19.671875 72.90625
L 19.671875 43.015625
L 55.515625 43.015625
L 55.515625 72.90625
L 65.375 72.90625
L 65.375 0
L 55.515625 0
L 55.515625 34.71875
L 19.671875 34.71875
L 19.671875 0
L 9.8125 0
z
" id="DejaVuSans-72"/>
      <path d="M 34.1875 63.1875
L 20.796875 26.90625
L 47.609375 26.90625
z
M 28.609375 72.90625
L 39.796875 72.90625
L 67.578125 0
L 57.328125 0
L 50.6875 18.703125
L 17.828125 18.703125
L 11.1875 0
L 0.78125 0
z
" id="DejaVuSans-65"/>
      <path d="M 9.8125 72.90625
L 19.671875 72.90625
L 19.671875 8.296875
L 55.171875 8.296875
L 55.171875 0
L 9.8125 0
z
" id="DejaVuSans-76"/>
      <path d="M 9.8125 72.90625
L 24.515625 72.90625
L 43.109375 23.296875
L 61.8125 72.90625
L 76.515625 72.90625
L 76.515625 0
L 66.890625 0
L 66.890625 64.015625
L 48.09375 14.015625
L 38.1875 14.015625
L 19.390625 64.015625
L 19.390625 0
L 9.8125 0
z
" id="DejaVuSans-77"/>
      <path d="M 9.8125 72.90625
L 19.671875 72.90625
L 19.671875 42.09375
L 52.390625 72.90625
L 65.09375 72.90625
L 28.90625 38.921875
L 67.671875 0
L 54.6875 0
L 19.671875 35.109375
L 19.671875 0
L 9.8125 0
z
" id="DejaVuSans-75"/>
      <path d="M 50.984375 -16.609375
L 50.984375 -23.578125
L -0.984375 -23.578125
L -0.984375 -16.609375
z
" id="DejaVuSans-95"/>
      <path d="M 9.8125 72.90625
L 19.671875 72.90625
L 19.671875 0
L 9.8125 0
z
" id="DejaVuSans-73"/>
      <path d="M 19.671875 64.796875
L 19.671875 37.40625
L 32.078125 37.40625
Q 38.96875 37.40625 42.71875 40.96875
Q 46.484375 44.53125 46.484375 51.125
Q 46.484375 57.671875 42.71875 61.234375
Q 38.96875 64.796875 32.078125 64.796875
z
M 9.8125 72.90625
L 32.078125 72.90625
Q 44.34375 72.90625 50.609375 67.359375
Q 56.890625 61.8125 56.890625 51.125
Q 56.890625 40.328125 50.609375 34.8125
Q 44.34375 29.296875 32.078125 29.296875
L 19.671875 29.296875
L 19.671875 0
L 9.8125 0
z
" id="DejaVuSans-80"/>
      <path d="M 39.40625 66.21875
Q 28.65625 66.21875 22.328125 58.203125
Q 16.015625 50.203125 16.015625 36.375
Q 16.015625 22.609375 22.328125 14.59375
Q 28.65625 6.59375 39.40625 6.59375
Q 50.140625 6.59375 56.421875 14.59375
Q 62.703125 22.609375 62.703125 36.375
Q 62.703125 50.203125 56.421875 58.203125
Q 50.140625 66.21875 39.40625 66.21875
z
M 39.40625 74.21875
Q 54.734375 74.21875 63.90625 63.9375
Q 73.09375 53.65625 73.09375 36.375
Q 73.09375 19.140625 63.90625 8.859375
Q 54.734375 -1.421875 39.40625 -1.421875
Q 24.03125 -1.421875 14.8125 8.828125
Q 5.609375 19.09375 5.609375 36.375
Q 5.609375 53.65625 14.8125 63.9375
Q 24.03125 74.21875 39.40625 74.21875
z
" id="DejaVuSans-79"/>
      <path d="M 9.8125 72.90625
L 55.90625 72.90625
L 55.90625 64.59375
L 19.671875 64.59375
L 19.671875 43.015625
L 54.390625 43.015625
L 54.390625 34.71875
L 19.671875 34.71875
L 19.671875 8.296875
L 56.78125 8.296875
L 56.78125 0
L 9.8125 0
z
" id="DejaVuSans-69"/>
      <path d="M 9.8125 72.90625
L 23.09375 72.90625
L 55.421875 11.921875
L 55.421875 72.90625
L 64.984375 72.90625
L 64.984375 0
L 51.703125 0
L 19.390625 60.984375
L 19.390625 0
L 9.8125 0
z
" id="DejaVuSans-78"/>
      <path d="M 53.515625 70.515625
L 53.515625 60.890625
Q 47.90625 63.578125 42.921875 64.890625
Q 37.9375 66.21875 33.296875 66.21875
Q 25.25 66.21875 20.875 63.09375
Q 16.5 59.96875 16.5 54.203125
Q 16.5 49.359375 19.40625 46.890625
Q 22.3125 44.4375 30.421875 42.921875
L 36.375 41.703125
Q 47.40625 39.59375 52.65625 34.296875
Q 57.90625 29 57.90625 20.125
Q 57.90625 9.515625 50.796875 4.046875
Q 43.703125 -1.421875 29.984375 -1.421875
Q 24.8125 -1.421875 18.96875 -0.25
Q 13.140625 0.921875 6.890625 3.21875
L 6.890625 13.375
Q 12.890625 10.015625 18.65625 8.296875
Q 24.421875 6.59375 29.984375 6.59375
Q 38.421875 6.59375 43.015625 9.90625
Q 47.609375 13.234375 47.609375 19.390625
Q 47.609375 24.75 44.3125 27.78125
Q 41.015625 30.8125 33.5 32.328125
L 27.484375 33.5
Q 16.453125 35.6875 11.515625 40.375
Q 6.59375 45.0625 6.59375 53.421875
Q 6.59375 63.09375 13.40625 68.65625
Q 20.21875 74.21875 32.171875 74.21875
Q 37.3125 74.21875 42.625 73.28125
Q 47.953125 72.359375 53.515625 70.515625
z
" id="DejaVuSans-83"/>
     </defs>
     <g transform="translate(320.466491 36.390313)scale(0.05 -0.05)">
      <use xlink:href="#DejaVuSans-72"/>
      <use x="75.195312" xlink:href="#DejaVuSans-65"/>
      <use x="143.603516" xlink:href="#DejaVuSans-76"/>
      <use x="199.316406" xlink:href="#DejaVuSans-76"/>
      <use x="255.029297" xlink:href="#DejaVuSans-77"/>
      <use x="341.308594" xlink:href="#DejaVuSans-65"/>
      <use x="409.716797" xlink:href="#DejaVuSans-82"/>
      <use x="479.199219" xlink:href="#DejaVuSans-75"/>
      <use x="544.775391" xlink:href="#DejaVuSans-95"/>
      <use x="594.775391" xlink:href="#DejaVuSans-65"/>
      <use x="663.183594" xlink:href="#DejaVuSans-68"/>
      <use x="740.185547" xlink:href="#DejaVuSans-73"/>
      <use x="769.677734" xlink:href="#DejaVuSans-80"/>
      <use x="829.980469" xlink:href="#DejaVuSans-79"/>
      <use x="908.691406" xlink:href="#DejaVuSans-71"/>
      <use x="986.181641" xlink:href="#DejaVuSans-69"/>
      <use x="1049.365234" xlink:href="#DejaVuSans-78"/>
      <use x="1124.169922" xlink:href="#DejaVuSans-69"/>
      <use x="1187.353516" xlink:href="#DejaVuSans-83"/>
      <use x="1250.830078" xlink:href="#DejaVuSans-73"/>
      <use x="1280.322266" xlink:href="#DejaVuSans-83"/>
     </g>
    </g>
   </g>
   <g id="text_13">
    <g clip-path="url(#p943af7a62f)">
     <!-- HALLMARK_ALLOGRAFT_REJECTION -->
     <defs>
      <path d="M -0.296875 72.90625
L 61.375 72.90625
L 61.375 64.59375
L 35.5 64.59375
L 35.5 0
L 25.59375 0
L 25.59375 64.59375
L -0.296875 64.59375
z
" id="DejaVuSans-84"/>
      <path d="M 9.8125 72.90625
L 19.671875 72.90625
L 19.671875 5.078125
Q 19.671875 -8.109375 14.671875 -14.0625
Q 9.671875 -20.015625 -1.421875 -20.015625
L -5.171875 -20.015625
L -5.171875 -11.71875
L -2.09375 -11.71875
Q 4.4375 -11.71875 7.125 -8.046875
Q 9.8125 -4.390625 9.8125 5.078125
z
" id="DejaVuSans-74"/>
      <path d="M 64.40625 67.28125
L 64.40625 56.890625
Q 59.421875 61.53125 53.78125 63.8125
Q 48.140625 66.109375 41.796875 66.109375
Q 29.296875 66.109375 22.65625 58.46875
Q 16.015625 50.828125 16.015625 36.375
Q 16.015625 21.96875 22.65625 14.328125
Q 29.296875 6.6875 41.796875 6.6875
Q 48.140625 6.6875 53.78125 8.984375
Q 59.421875 11.28125 64.40625 15.921875
L 64.40625 5.609375
Q 59.234375 2.09375 53.4375 0.328125
Q 47.65625 -1.421875 41.21875 -1.421875
Q 24.65625 -1.421875 15.125 8.703125
Q 5.609375 18.84375 5.609375 36.375
Q 5.609375 53.953125 15.125 64.078125
Q 24.65625 74.21875 41.21875 74.21875
Q 47.75 74.21875 53.53125 72.484375
Q 59.328125 70.75 64.40625 67.28125
z
" id="DejaVuSans-67"/>
     </defs>
     <g transform="translate(268.453751 41.327456)scale(0.05 -0.05)">
      <use xlink:href="#DejaVuSans-72"/>
      <use x="75.195312" xlink:href="#DejaVuSans-65"/>
      <use x="143.603516" xlink:href="#DejaVuSans-76"/>
      <use x="199.316406" xlink:href="#DejaVuSans-76"/>
      <use x="255.029297" xlink:href="#DejaVuSans-77"/>
      <use x="341.308594" xlink:href="#DejaVuSans-65"/>
      <use x="409.716797" xlink:href="#DejaVuSans-82"/>
      <use x="479.199219" xlink:href="#DejaVuSans-75"/>
      <use x="544.775391" xlink:href="#DejaVuSans-95"/>
      <use x="594.775391" xlink:href="#DejaVuSans-65"/>
      <use x="663.183594" xlink:href="#DejaVuSans-76"/>
      <use x="718.896484" xlink:href="#DejaVuSans-76"/>
      <use x="774.5625" xlink:href="#DejaVuSans-79"/>
      <use x="853.273438" xlink:href="#DejaVuSans-71"/>
      <use x="930.763672" xlink:href="#DejaVuSans-82"/>
      <use x="1000.183594" xlink:href="#DejaVuSans-65"/>
      <use x="1068.591797" xlink:href="#DejaVuSans-70"/>
      <use x="1126.095703" xlink:href="#DejaVuSans-84"/>
      <use x="1187.179688" xlink:href="#DejaVuSans-95"/>
      <use x="1237.179688" xlink:href="#DejaVuSans-82"/>
      <use x="1306.662109" xlink:href="#DejaVuSans-69"/>
      <use x="1369.845703" xlink:href="#DejaVuSans-74"/>
      <use x="1399.337891" xlink:href="#DejaVuSans-69"/>
      <use x="1462.521484" xlink:href="#DejaVuSans-67"/>
      <use x="1532.345703" xlink:href="#DejaVuSans-84"/>
      <use x="1593.429688" xlink:href="#DejaVuSans-73"/>
      <use x="1622.921875" xlink:href="#DejaVuSans-79"/>
      <use x="1701.632812" xlink:href="#DejaVuSans-78"/>
     </g>
    </g>
   </g>
   <g id="text_14">
    <g clip-path="url(#p943af7a62f)">
     <!-- HALLMARK_ANDROGEN_RESPONSE -->
     <g transform="translate(209.284589 46.264599)scale(0.05 -0.05)">
      <use xlink:href="#DejaVuSans-72"/>
      <use x="75.195312" xlink:href="#DejaVuSans-65"/>
      <use x="143.603516" xlink:href="#DejaVuSans-76"/>
      <use x="199.316406" xlink:href="#DejaVuSans-76"/>
      <use x="255.029297" xlink:href="#DejaVuSans-77"/>
      <use x="341.308594" xlink:href="#DejaVuSans-65"/>
      <use x="409.716797" xlink:href="#DejaVuSans-82"/>
      <use x="479.199219" xlink:href="#DejaVuSans-75"/>
      <use x="544.775391" xlink:href="#DejaVuSans-95"/>
      <use x="594.775391" xlink:href="#DejaVuSans-65"/>
      <use x="663.183594" xlink:href="#DejaVuSans-78"/>
      <use x="737.988281" xlink:href="#DejaVuSans-68"/>
      <use x="814.990234" xlink:href="#DejaVuSans-82"/>
      <use x="884.472656" xlink:href="#DejaVuSans-79"/>
      <use x="963.183594" xlink:href="#DejaVuSans-71"/>
      <use x="1040.673828" xlink:href="#DejaVuSans-69"/>
      <use x="1103.857422" xlink:href="#DejaVuSans-78"/>
      <use x="1178.662109" xlink:href="#DejaVuSans-95"/>
      <use x="1228.662109" xlink:href="#DejaVuSans-82"/>
      <use x="1298.144531" xlink:href="#DejaVuSans-69"/>
      <use x="1361.328125" xlink:href="#DejaVuSans-83"/>
      <use x="1424.804688" xlink:href="#DejaVuSans-80"/>
      <use x="1485.107422" xlink:href="#DejaVuSans-79"/>
      <use x="1563.818359" xlink:href="#DejaVuSans-78"/>
      <use x="1638.623047" xlink:href="#DejaVuSans-83"/>
      <use x="1702.099609" xlink:href="#DejaVuSans-69"/>
     </g>
    </g>
   </g>
   <g id="text_15">
    <g clip-path="url(#p943af7a62f)">
     <!-- HALLMARK_ANGIOGENESIS -->
     <g transform="translate(219.630286 51.201742)scale(0.05 -0.05)">
      <use xlink:href="#DejaVuSans-72"/>
      <use x="75.195312" xlink:href="#DejaVuSans-65"/>
      <use x="143.603516" xlink:href="#DejaVuSans-76"/>
      <use x="199.316406" xlink:href="#DejaVuSans-76"/>
      <use x="255.029297" xlink:href="#DejaVuSans-77"/>
      <use x="341.308594" xlink:href="#DejaVuSans-65"/>
      <use x="409.716797" xlink:href="#DejaVuSans-82"/>
      <use x="479.199219" xlink:href="#DejaVuSans-75"/>
      <use x="544.775391" xlink:href="#DejaVuSans-95"/>
      <use x="594.775391" xlink:href="#DejaVuSans-65"/>
      <use x="663.183594" xlink:href="#DejaVuSans-78"/>
      <use x="737.988281" xlink:href="#DejaVuSans-71"/>
      <use x="815.478516" xlink:href="#DejaVuSans-73"/>
      <use x="844.970703" xlink:href="#DejaVuSans-79"/>
      <use x="923.681641" xlink:href="#DejaVuSans-71"/>
      <use x="1001.171875" xlink:href="#DejaVuSans-69"/>
      <use x="1064.355469" xlink:href="#DejaVuSans-78"/>
      <use x="1139.160156" xlink:href="#DejaVuSans-69"/>
      <use x="1202.34375" xlink:href="#DejaVuSans-83"/>
      <use x="1265.820312" xlink:href="#DejaVuSans-73"/>
      <use x="1295.3125" xlink:href="#DejaVuSans-83"/>
     </g>
    </g>
   </g>
   <g id="text_16">
    <g clip-path="url(#p943af7a62f)">
     <!-- HALLMARK_APICAL_JUNCTION -->
     <defs>
      <path d="M 8.6875 72.90625
L 18.609375 72.90625
L 18.609375 28.609375
Q 18.609375 16.890625 22.84375 11.734375
Q 27.09375 6.59375 36.625 6.59375
Q 46.09375 6.59375 50.34375 11.734375
Q 54.59375 16.890625 54.59375 28.609375
L 54.59375 72.90625
L 64.5 72.90625
L 64.5 27.390625
Q 64.5 13.140625 57.4375 5.859375
Q 50.390625 -1.421875 36.625 -1.421875
Q 22.796875 -1.421875 15.734375 5.859375
Q 8.6875 13.140625 8.6875 27.390625
z
" id="DejaVuSans-85"/>
     </defs>
     <g transform="translate(205.028918 56.138885)scale(0.05 -0.05)">
      <use xlink:href="#DejaVuSans-72"/>
      <use x="75.195312" xlink:href="#DejaVuSans-65"/>
      <use x="143.603516" xlink:href="#DejaVuSans-76"/>
      <use x="199.316406" xlink:href="#DejaVuSans-76"/>
      <use x="255.029297" xlink:href="#DejaVuSans-77"/>
      <use x="341.308594" xlink:href="#DejaVuSans-65"/>
      <use x="409.716797" xlink:href="#DejaVuSans-82"/>
      <use x="479.199219" xlink:href="#DejaVuSans-75"/>
      <use x="544.775391" xlink:href="#DejaVuSans-95"/>
      <use x="594.775391" xlink:href="#DejaVuSans-65"/>
      <use x="663.183594" xlink:href="#DejaVuSans-80"/>
      <use x="723.486328" xlink:href="#DejaVuSans-73"/>
      <use x="752.978516" xlink:href="#DejaVuSans-67"/>
      <use x="822.802734" xlink:href="#DejaVuSans-65"/>
      <use x="891.210938" xlink:href="#DejaVuSans-76"/>
      <use x="946.923828" xlink:href="#DejaVuSans-95"/>
      <use x="996.923828" xlink:href="#DejaVuSans-74"/>
      <use x="1026.416016" xlink:href="#DejaVuSans-85"/>
      <use x="1099.609375" xlink:href="#DejaVuSans-78"/>
      <use x="1174.414062" xlink:href="#DejaVuSans-67"/>
      <use x="1244.238281" xlink:href="#DejaVuSans-84"/>
      <use x="1305.322266" xlink:href="#DejaVuSans-73"/>
      <use x="1334.814453" xlink:href="#DejaVuSans-79"/>
      <use x="1413.525391" xlink:href="#DejaVuSans-78"/>
     </g>
    </g>
   </g>
  </g>
  <g id="text_17">
   <!-- CAMERA pathway statistics vs ranking -->
   <defs>
    <path d="M 54.890625 33.015625
L 54.890625 0
L 45.90625 0
L 45.90625 32.71875
Q 45.90625 40.484375 42.875 44.328125
Q 39.84375 48.1875 33.796875 48.1875
Q 26.515625 48.1875 22.3125 43.546875
Q 18.109375 38.921875 18.109375 30.90625
L 18.109375 0
L 9.078125 0
L 9.078125 75.984375
L 18.109375 75.984375
L 18.109375 46.1875
Q 21.34375 51.125 25.703125 53.5625
Q 30.078125 56 35.796875 56
Q 45.21875 56 50.046875 50.171875
Q 54.890625 44.34375 54.890625 33.015625
z
" id="DejaVuSans-104"/>
    <path d="M 4.203125 54.6875
L 13.1875 54.6875
L 24.421875 12.015625
L 35.59375 54.6875
L 46.1875 54.6875
L 57.421875 12.015625
L 68.609375 54.6875
L 77.59375 54.6875
L 63.28125 0
L 52.6875 0
L 40.921875 44.828125
L 29.109375 0
L 18.5 0
z
" id="DejaVuSans-119"/>
    <path d="M 32.171875 -5.078125
Q 28.375 -14.84375 24.75 -17.8125
Q 21.140625 -20.796875 15.09375 -20.796875
L 7.90625 -20.796875
L 7.90625 -13.28125
L 13.1875 -13.28125
Q 16.890625 -13.28125 18.9375 -11.515625
Q 21 -9.765625 23.484375 -3.21875
L 25.09375 0.875
L 2.984375 54.6875
L 12.5 54.6875
L 29.59375 11.921875
L 46.6875 54.6875
L 56.203125 54.6875
z
" id="DejaVuSans-121"/>
    <path d="M 2.984375 54.6875
L 12.5 54.6875
L 29.59375 8.796875
L 46.6875 54.6875
L 56.203125 54.6875
L 35.6875 0
L 23.484375 0
z
" id="DejaVuSans-118"/>
   </defs>
   <g transform="translate(75.755 11.397656)scale(0.15 -0.15)">
    <use xlink:href="#DejaVuSans-67"/>
    <use x="69.824219" xlink:href="#DejaVuSans-65"/>
    <use x="138.232422" xlink:href="#DejaVuSans-77"/>
    <use x="224.511719" xlink:href="#DejaVuSans-69"/>
    <use x="287.695312" xlink:href="#DejaVuSans-82"/>
    <use x="357.115234" xlink:href="#DejaVuSans-65"/>
    <use x="425.523438" xlink:href="#DejaVuSans-32"/>
    <use x="457.310547" xlink:href="#DejaVuSans-112"/>
    <use x="520.787109" xlink:href="#DejaVuSans-97"/>
    <use x="582.066406" xlink:href="#DejaVuSans-116"/>
    <use x="621.275391" xlink:href="#DejaVuSans-104"/>
    <use x="684.654297" xlink:href="#DejaVuSans-119"/>
    <use x="766.441406" xlink:href="#DejaVuSans-97"/>
    <use x="827.720703" xlink:href="#DejaVuSans-121"/>
    <use x="886.900391" xlink:href="#DejaVuSans-32"/>
    <use x="918.6875" xlink:href="#DejaVuSans-115"/>
    <use x="970.787109" xlink:href="#DejaVuSans-116"/>
    <use x="1009.996094" xlink:href="#DejaVuSans-97"/>
    <use x="1071.275391" xlink:href="#DejaVuSans-116"/>
    <use x="1110.484375" xlink:href="#DejaVuSans-105"/>
    <use x="1138.267578" xlink:href="#DejaVuSans-115"/>
    <use x="1190.367188" xlink:href="#DejaVuSans-116"/>
    <use x="1229.576172" xlink:href="#DejaVuSans-105"/>
    <use x="1257.359375" xlink:href="#DejaVuSans-99"/>
    <use x="1312.339844" xlink:href="#DejaVuSans-115"/>
    <use x="1364.439453" xlink:href="#DejaVuSans-32"/>
    <use x="1396.226562" xlink:href="#DejaVuSans-118"/>
    <use x="1455.40625" xlink:href="#DejaVuSans-115"/>
    <use x="1507.505859" xlink:href="#DejaVuSans-32"/>
    <use x="1539.292969" xlink:href="#DejaVuSans-114"/>
    <use x="1580.40625" xlink:href="#DejaVuSans-97"/>
    <use x="1641.685547" xlink:href="#DejaVuSans-110"/>
    <use x="1705.064453" xlink:href="#DejaVuSans-107"/>
    <use x="1762.974609" xlink:href="#DejaVuSans-105"/>
    <use x="1790.757812" xlink:href="#DejaVuSans-110"/>
    <use x="1854.136719" xlink:href="#DejaVuSans-103"/>
   </g>
  </g>
 </g>
 <defs>
  <clipPath id="p943af7a62f">
   <rect height="266.112" width="357.12" x="46.772188" y="20.583376"/>
  </clipPath>
 </defs>
</svg>
