<?xml version="1.0" encoding="utf-8" standalone="no"?>
<!DOCTYPE svg PUBLIC "-//W3C//DTD SVG 1.1//EN"
  "http://www.w3.org/Graphics/SVG/1.1/DTD/svg11.dtd">
<!-- Created with matplotlib (https://matplotlib.org/) -->
<svg height="322.176313pt" version="1.1" viewBox="0 0 410.455938 322.176313" width="410.455938pt" xmlns="http://www.w3.org/2000/svg" xmlns:xlink="http://www.w3.org/1999/xlink">
 <defs>
  <style type="text/css">
*{stroke-linecap:butt;stroke-linejoin:round;}
  </style>
 </defs>
 <g id="figure_1">
  <g id="patch_1">
   <path d="M 0 322.176313 
L 410.455938 322.176313 
L 410.455938 0 
L 0 0 
z
" style="fill:#ffffff;stroke:#ffffff;stroke-linejoin:miter;"/>
  </g>
  <g id="axes_1">
   <g id="patch_2">
    <path d="M 50.585938 286.695376 
L 407.705938 286.695376 
L 407.705938 20.583376 
L 50.585938 20.583376 
z
" style="fill:none;"/>
   </g>
   <g id="matplotlib.axis_1">
    <g id="xtick_1">
     <g id="line2d_1">
      <path clip-path="url(#p78e9f1ee6d)" d="M 66.818577 286.695376 
L 66.818577 20.583376 
" style="fill:none;stroke:#e5e5e5;stroke-width:0.8;"/>
     </g>
     <g id="line2d_2">
      <path d="M 66.818577 286.695376 
" style="fill:none;stroke:#000000;stroke-width:1.5;"/>
      <defs>
       <path d="M 0 0 
L 0 2.75 
" id="m2f891b0f38" style="stroke:#000000;"/>
      </defs>
      <g>
       <use style="stroke:#000000;" x="66.818577" xlink:href="#m2f891b0f38" y="286.695376"/>
      </g>
     </g>
     <g id="text_1">
      <!-- 0 -->
      <defs>
       <path d="M 31.78125 66.40625 
Q 24.171875 66.40625 20.328125 58.90625 
Q 16.5 51.421875 16.5 36.375 
Q 16.5 21.390625 20.328125 13.890625 
Q 24.171875 6.390625 31.78125 6.390625 
Q 39.453125 6.390625 43.28125 13.890625 
Q 47.125 21.390625 47.125 36.375 
Q 47.125 51.421875 43.28125 58.90625 
Q 39.453125 66.40625 31.78125 66.40625 
z
M 31.78125 74.21875 
Q 44.046875 74.21875 50.515625 64.515625 
Q 56.984375 54.828125 56.984375 36.375 
Q 56.984375 17.96875 50.515625 8.265625 
Q 44.046875 -1.421875 31.78125 -1.421875 
Q 19.53125 -1.421875 13.0625 8.265625 
Q 6.59375 17.96875 6.59375 36.375 
Q 6.59375 54.828125 13.0625 64.515625 
Q 19.53125 74.21875 31.78125 74.21875 
z
" id="DejaVuSans-48"/>
      </defs>
      <g style="fill:#4d4d4d;" transform="translate(63.001077 300.763501)scale(0.12 -0.12)">
       <use xlink:href="#DejaVuSans-48"/>
      </g>
     </g>
    </g>
    <g id="xtick_2">
     <g id="line2d_3">
      <path clip-path="url(#p78e9f1ee6d)" d="M 151.71033 286.695376 
L 151.71033 20.583376 
" style="fill:none;stroke:#e5e5e5;stroke-width:0.8;"/>
     </g>
     <g id="line2d_4">
      <path d="M 151.71033 286.695376 
" style="fill:none;stroke:#000000;stroke-width:1.5;"/>
      <g>
       <use style="stroke:#000000;" x="151.71033" xlink:href="#m2f891b0f38" y="286.695376"/>
      </g>
     </g>
     <g id="text_2">
      <!-- 0.25 -->
      <defs>
       <path d="M 10.6875 12.40625 
L 21 12.40625 
L 21 0 
L 10.6875 0 
z
" id="DejaVuSans-46"/>
       <path d="M 19.1875 8.296875 
L 53.609375 8.296875 
L 53.609375 0 
L 7.328125 0 
L 7.328125 8.296875 
Q 12.9375 14.109375 22.625 23.890625 
Q 32.328125 33.6875 34.8125 36.53125 
Q 39.546875 41.84375 41.421875 45.53125 
Q 43.3125 49.21875 43.3125 52.78125 
Q 43.3125 58.59375 39.234375 62.25 
Q 35.15625 65.921875 28.609375 65.921875 
Q 23.96875 65.921875 18.8125 64.3125 
Q 13.671875 62.703125 7.8125 59.421875 
L 7.8125 69.390625 
Q 13.765625 71.78125 18.9375 73 
Q 24.125 74.21875 28.421875 74.21875 
Q 39.75 74.21875 46.484375 68.546875 
Q 53.21875 62.890625 53.21875 53.421875 
Q 53.21875 48.921875 51.53125 44.890625 
Q 49.859375 40.875 45.40625 35.40625 
Q 44.1875 33.984375 37.640625 27.21875 
Q 31.109375 20.453125 19.1875 8.296875 
z
" id="DejaVuSans-50"/>
       <path d="M 10.796875 72.90625 
L 49.515625 72.90625 
L 49.515625 64.59375 
L 19.828125 64.59375 
L 19.828125 46.734375 
Q 21.96875 47.46875 24.109375 47.828125 
Q 26.265625 48.1875 28.421875 48.1875 
Q 40.625 48.1875 47.75 41.5 
Q 54.890625 34.8125 54.890625 23.390625 
Q 54.890625 11.625 47.5625 5.09375 
Q 40.234375 -1.421875 26.90625 -1.421875 
Q 22.3125 -1.421875 17.546875 -0.640625 
Q 12.796875 0.140625 7.71875 1.703125 
L 7.71875 11.625 
Q 12.109375 9.234375 16.796875 8.0625 
Q 21.484375 6.890625 26.703125 6.890625 
Q 35.15625 6.890625 40.078125 11.328125 
Q 45.015625 15.765625 45.015625 23.390625 
Q 45.015625 31 40.078125 35.4375 
Q 35.15625 39.890625 26.703125 39.890625 
Q 22.75 39.890625 18.8125 39.015625 
Q 14.890625 38.140625 10.796875 36.28125 
z
" id="DejaVuSans-53"/>
      </defs>
      <g style="fill:#4d4d4d;" transform="translate(138.350955 300.763501)scale(0.12 -0.12)">
       <use xlink:href="#DejaVuSans-48"/>
       <use x="63.623047" xlink:href="#DejaVuSans-46"/>
       <use x="95.410156" xlink:href="#DejaVuSans-50"/>
       <use x="159.033203" xlink:href="#DejaVuSans-53"/>
      </g>
     </g>
    </g>
    <g id="xtick_3">
     <g id="line2d_5">
      <path clip-path="url(#p78e9f1ee6d)" d="M 236.602083 286.695376 
L 236.602083 20.583376 
" style="fill:none;stroke:#e5e5e5;stroke-width:0.8;"/>
     </g>
     <g id="line2d_6">
      <path d="M 236.602083 286.695376 
" style="fill:none;stroke:#000000;stroke-width:1.5;"/>
      <g>
       <use style="stroke:#000000;" x="236.602083" xlink:href="#m2f891b0f38" y="286.695376"/>
      </g>
     </g>
     <g id="text_3">
      <!-- 0.50 -->
      <g style="fill:#4d4d4d;" transform="translate(223.242708 300.763501)scale(0.12 -0.12)">
       <use xlink:href="#DejaVuSans-48"/>
       <use x="63.623047" xlink:href="#DejaVuSans-46"/>
       <use x="95.410156" xlink:href="#DejaVuSans-53"/>
       <use x="159.033203" xlink:href="#DejaVuSans-48"/>
      </g>
     </g>
    </g>
    <g id="xtick_4">
     <g id="line2d_7">
      <path clip-path="url(#p78e9f1ee6d)" d="M 321.493836 286.695376 
L 321.493836 20.583376 
" style="fill:none;stroke:#e5e5e5;stroke-width:0.8;"/>
     </g>
     <g id="line2d_8">
      <path d="M 321.493836 286.695376 
" style="fill:none;stroke:#000000;stroke-width:1.5;"/>
      <g>
       <use style="stroke:#000000;" x="321.493836" xlink:href="#m2f891b0f38" y="286.695376"/>
      </g>
     </g>
     <g id="text_4">
      <!-- 0.75 -->
      <defs>
       <path d="M 8.203125 72.90625 
L 55.078125 72.90625 
L 55.078125 68.703125 
L 28.609375 0 
L 18.3125 0 
L 43.21875 64.59375 
L 8.203125 64.59375 
z
" id="DejaVuSans-55"/>
      </defs>
      <g style="fill:#4d4d4d;" transform="translate(308.134461 300.763501)scale(0.12 -0.12)">
       <use xlink:href="#DejaVuSans-48"/>
       <use x="63.623047" xlink:href="#DejaVuSans-46"/>
       <use x="95.410156" xlink:href="#DejaVuSans-55"/>
       <use x="159.033203" xlink:href="#DejaVuSans-53"/>
      </g>
     </g>
    </g>
    <g id="xtick_5">
     <g id="line2d_9">
      <path clip-path="url(#p78e9f1ee6d)" d="M 406.385589 286.695376 
L 406.385589 20.583376 
" style="fill:none;stroke:#e5e5e5;stroke-width:0.8;"/>
     </g>
     <g id="line2d_10">
      <path d="M 406.385589 286.695376 
" style="fill:none;stroke:#000000;stroke-width:1.5;"/>
      <g>
       <use style="stroke:#000000;" x="406.385589" xlink:href="#m2f891b0f38" y="286.695376"/>
      </g>
     </g>
     <g id="text_5">
      <!-- 1 -->
      <defs>
       <path d="M 12.40625 8.296875 
L 28.515625 8.296875 
L 28.515625 63.921875 
L 10.984375 60.40625 
L 10.984375 69.390625 
L 28.421875 72.90625 
L 38.28125 72.90625 
L 38.28125 8.296875 
L 54.390625 8.296875 
L 54.390625 0 
L 12.40625 0 
z
" id="DejaVuSans-49"/>
      </defs>
      <g style="fill:#4d4d4d;" transform="translate(402.568089 300.763501)scale(0.12 -0.12)">
       <use xlink:href="#DejaVuSans-49"/>
      </g>
     </g>
    </g>
    <g id="xtick_6">
     <g id="line2d_11">
      <path clip-path="url(#p78e9f1ee6d)" d="M 109.264454 286.695376 
L 109.264454 20.583376 
" style="fill:none;stroke:#fafafa;"/>
     </g>
     <g id="line2d_12">
      <path d="M 109.264454 286.695376 
" style="fill:none;stroke:#000000;stroke-width:1.5;"/>
     </g>
    </g>
    <g id="xtick_7">
     <g id="line2d_13">
      <path clip-path="url(#p78e9f1ee6d)" d="M 194.156207 286.695376 
L 194.156207 20.583376 
" style="fill:none;stroke:#fafafa;"/>
     </g>
     <g id="line2d_14">
      <path d="M 194.156207 286.695376 
" style="fill:none;stroke:#000000;stroke-width:1.5;"/>
     </g>
    </g>
    <g id="xtick_8">
     <g id="line2d_15">
      <path clip-path="url(#p78e9f1ee6d)" d="M 279.04796 286.695376 
L 279.04796 20.583376 
" style="fill:none;stroke:#fafafa;"/>
     </g>
     <g id="line2d_16">
      <path d="M 279.04796 286.695376 
" style="fill:none;stroke:#000000;stroke-width:1.5;"/>
     </g>
    </g>
    <g id="xtick_9">
     <g id="line2d_17">
      <path clip-path="url(#p78e9f1ee6d)" d="M 363.939713 286.695376 
L 363.939713 20.583376 
" style="fill:none;stroke:#fafafa;"/>
     </g>
     <g id="line2d_18">
      <path d="M 363.939713 286.695376 
" style="fill:none;stroke:#000000;stroke-width:1.5;"/>
     </g>
    </g>
    <g id="text_6">
     <!-- FDR (BH) -->
     <defs>
      <path d="M 9.8125 72.90625 
L 51.703125 72.90625 
L 51.703125 64.59375 
L 19.671875 64.59375 
L 19.671875 43.109375 
L 48.578125 43.109375 
L 48.578125 34.8125 
L 19.671875 34.8125 
L 19.671875 0 
L 9.8125 0 
z
" id="DejaVuSans-70"/>
      <path d="M 19.671875 64.796875 
L 19.671875 8.109375 
L 31.59375 8.109375 
Q 46.6875 8.109375 53.6875 14.9375 
Q 60.6875 21.78125 60.6875 36.53125 
Q 60.6875 51.171875 53.6875 57.984375 
Q 46.6875 64.796875 31.59375 64.796875 
z
M 9.8125 72.90625 
L 30.078125 72.90625 
Q 51.265625 72.90625 61.171875 64.09375 
Q 71.09375 55.28125 71.09375 36.53125 
Q 71.09375 17.671875 61.125 8.828125 
Q 51.171875 0 30.078125 0 
L 9.8125 0 
z
" id="DejaVuSans-68"/>
      <path d="M 44.390625 34.1875 
Q 47.5625 33.109375 50.5625 29.59375 
Q 53.5625 26.078125 56.59375 19.921875 
L 66.609375 0 
L 56 0 
L 46.6875 18.703125 
Q 43.0625 26.03125 39.671875 28.421875 
Q 36.28125 30.8125 30.421875 30.8125 
L 19.671875 30.8125 
L 19.671875 0 
L 9.8125 0 
L 9.8125 72.90625 
L 32.078125 72.90625 
Q 44.578125 72.90625 50.734375 67.671875 
Q 56.890625 62.453125 56.890625 51.90625 
Q 56.890625 45.015625 53.6875 40.46875 
Q 50.484375 35.9375 44.390625 34.1875 
z
M 19.671875 64.796875 
L 19.671875 38.921875 
L 32.078125 38.921875 
Q 39.203125 38.921875 42.84375 42.21875 
Q 46.484375 45.515625 46.484375 51.90625 
Q 46.484375 58.296875 42.84375 61.546875 
Q 39.203125 64.796875 32.078125 64.796875 
z
" id="DejaVuSans-82"/>
      <path id="DejaVuSans-32"/>
      <path d="M 31 75.875 
Q 24.46875 64.65625 21.28125 53.65625 
Q 18.109375 42.671875 18.109375 31.390625 
Q 18.109375 20.125 21.3125 9.0625 
Q 24.515625 -2 31 -13.1875 
L 23.1875 -13.1875 
Q 15.875 -1.703125 12.234375 9.375 
Q 8.59375 20.453125 8.59375 31.390625 
Q 8.59375 42.28125 12.203125 53.3125 
Q 15.828125 64.359375 23.1875 75.875 
z
" id="DejaVuSans-40"/>
      <path d="M 19.671875 34.8125 
L 19.671875 8.109375 
L 35.5 8.109375 
Q 43.453125 8.109375 47.28125 11.40625 
Q 51.125 14.703125 51.125 21.484375 
Q 51.125 28.328125 47.28125 31.5625 
Q 43.453125 34.8125 35.5 34.8125 
z
M 19.671875 64.796875 
L 19.671875 42.828125 
L 34.28125 42.828125 
Q 41.5 42.828125 45.03125 45.53125 
Q 48.578125 48.25 48.578125 53.8125 
Q 48.578125 59.328125 45.03125 62.0625 
Q 41.5 64.796875 34.28125 64.796875 
z
M 9.8125 72.90625 
L 35.015625 72.90625 
Q 46.296875 72.90625 52.390625 68.21875 
Q 58.5 63.53125 58.5 54.890625 
Q 58.5 48.1875 55.375 44.234375 
Q 52.25 40.28125 46.1875 39.3125 
Q 53.46875 37.75 57.5 32.78125 
Q 61.53125 27.828125 61.53125 20.40625 
Q 61.53125 10.640625 54.890625 5.3125 
Q 48.25 0 35.984375 0 
L 9.8125 0 
z
" id="DejaVuSans-66"/>
      <path d="M 9.8125 72.90625 
L 19.671875 72.90625 
L 19.671875 43.015625 
L 55.515625 43.015625 
L 55.515625 72.90625 
L 65.375 72.90625 
L 65.375 0 
L 55.515625 0 
L 55.515625 34.71875 
L 19.671875 34.71875 
L 19.671875 0 
L 9.8125 0 
z
" id="DejaVuSans-72"/>
      <path d="M 8.015625 75.875 
L 15.828125 75.875 
Q 23.140625 64.359375 26.78125 53.3125 
Q 30.421875 42.28125 30.421875 31.390625 
Q 30.421875 20.453125 26.78125 9.375 
Q 23.140625 -1.703125 15.828125 -13.1875 
L 8.015625 -13.1875 
Q 14.5 -2 17.703125 9.0625 
Q 20.90625 20.125 20.90625 31.390625 
Q 20.90625 42.671875 17.703125 53.65625 
Q 14.5 64.65625 8.015625 75.875 
z
" id="DejaVuSans-41"/>
     </defs>
     <g transform="translate(189.064063 319.056782)scale(0.15 -0.15)">
      <use xlink:href="#DejaVuSans-70"/>
      <use x="57.519531" xlink:href="#DejaVuSans-68"/>
      <use x="134.521484" xlink:href="#DejaVuSans-82"/>
      <use x="204.003906" xlink:href="#DejaVuSans-32"/>
      <use x="235.791016" xlink:href="#DejaVuSans-40"/>
      <use x="274.804688" xlink:href="#DejaVuSans-66"/>
      <use x="343.408203" xlink:href="#DejaVuSans-72"/>
      <use x="418.603516" xlink:href="#DejaVuSans-41"/>
     </g>
    </g>
   </g>
   <g id="matplotlib.axis_2">
    <g id="ytick_1">
     <g id="line2d_19">
      <path clip-path="url(#p78e9f1ee6d)" d="M 50.585938 279.536519 
L 407.705938 279.536519 
" style="fill:none;stroke:#e5e5e5;stroke-width:0.8;"/>
     </g>
     <g id="line2d_20">
      <path d="M 50.585938 279.536519 
" style="fill:none;stroke:#000000;stroke-width:1.5;"/>
      <defs>
       <path d="M 0 0 
L -2.75 0 
" id="m65f8def2d8" style="stroke:#000000;"/>
      </defs>
      <g>
       <use style="stroke:#000000;" x="50.585938" xlink:href="#m65f8def2d8" y="279.536519"/>
      </g>
     </g>
     <g id="text_7">
      <!-- 0 -->
      <g style="fill:#4d4d4d;" transform="translate(38.000938 282.847769)scale(0.12 -0.12)">
       <use xlink:href="#DejaVuSans-48"/>
      </g>
     </g>
    </g>
    <g id="ytick_2">
     <g id="line2d_21">
      <path clip-path="url(#p78e9f1ee6d)" d="M 50.585938 217.822233 
L 407.705938 217.822233 
" style="fill:none;stroke:#e5e5e5;stroke-width:0.8;"/>
     </g>
     <g id="line2d_22">
      <path d="M 50.585938 217.822233 
" style="fill:none;stroke:#000000;stroke-width:1.5;"/>
      <g>
       <use style="stroke:#000000;" x="50.585938" xlink:href="#m65f8def2d8" y="217.822233"/>
      </g>
     </g>
     <g id="text_8">
      <!-- 0.25 -->
      <g style="fill:#4d4d4d;" transform="translate(18.917188 221.133483)scale(0.12 -0.12)">
       <use xlink:href="#DejaVuSans-48"/>
       <use x="63.623047" xlink:href="#DejaVuSans-46"/>
       <use x="95.410156" xlink:href="#DejaVuSans-50"/>
       <use x="159.033203" xlink:href="#DejaVuSans-53"/>
      </g>
     </g>
    </g>
    <g id="ytick_3">
     <g id="line2d_23">
      <path clip-path="url(#p78e9f1ee6d)" d="M 50.585938 156.107947 
L 407.705938 156.107947 
" style="fill:none;stroke:#e5e5e5;stroke-width:0.8;"/>
     </g>
     <g id="line2d_24">
      <path d="M 50.585938 156.107947 
" style="fill:none;stroke:#000000;stroke-width:1.5;"/>
      <g>
       <use style="stroke:#000000;" x="50.585938" xlink:href="#m65f8def2d8" y="156.107947"/>
      </g>
     </g>
     <g id="text_9">
      <!-- 0.50 -->
      <g style="fill:#4d4d4d;" transform="translate(18.917188 159.419197)scale(0.12 -0.12)">
       <use xlink:href="#DejaVuSans-48"/>
       <use x="63.623047" xlink:href="#DejaVuSans-46"/>
       <use x="95.410156" xlink:href="#DejaVuSans-53"/>
       <use x="159.033203" xlink:href="#DejaVuSans-48"/>
      </g>
     </g>
    </g>
    <g id="ytick_4">
     <g id="line2d_25">
      <path clip-path="url(#p78e9f1ee6d)" d="M 50.585938 94.393662 
L 407.705938 94.393662 
" style="fill:none;stroke:#e5e5e5;stroke-width:0.8;"/>
     </g>
     <g id="line2d_26">
      <path d="M 50.585938 94.393662 
" style="fill:none;stroke:#000000;stroke-width:1.5;"/>
      <g>
       <use style="stroke:#000000;" x="50.585938" xlink:href="#m65f8def2d8" y="94.393662"/>
      </g>
     </g>
     <g id="text_10">
      <!-- 0.75 -->
      <g style="fill:#4d4d4d;" transform="translate(18.917188 97.704912)scale(0.12 -0.12)">
       <use xlink:href="#DejaVuSans-48"/>
       <use x="63.623047" xlink:href="#DejaVuSans-46"/>
       <use x="95.410156" xlink:href="#DejaVuSans-55"/>
       <use x="159.033203" xlink:href="#DejaVuSans-53"/>
      </g>
     </g>
    </g>
    <g id="ytick_5">
     <g id="line2d_27">
      <path clip-path="url(#p78e9f1ee6d)" d="M 50.585938 32.679376 
L 407.705938 32.679376 
" style="fill:none;stroke:#e5e5e5;stroke-width:0.8;"/>
     </g>
     <g id="line2d_28">
      <path d="M 50.585938 32.679376 
" style="fill:none;stroke:#000000;stroke-width:1.5;"/>
      <g>
       <use style="stroke:#000000;" x="50.585938" xlink:href="#m65f8def2d8" y="32.679376"/>
      </g>
     </g>
     <g id="text_11">
      <!-- 1 -->
      <g style="fill:#4d4d4d;" transform="translate(38.000938 35.990626)scale(0.12 -0.12)">
       <use xlink:href="#DejaVuSans-49"/>
      </g>
     </g>
    </g>
    <g id="ytick_6">
     <g id="line2d_29">
      <path clip-path="url(#p78e9f1ee6d)" d="M 50.585938 248.679376 
L 407.705938 248.679376 
" style="fill:none;stroke:#fafafa;"/>
     </g>
     <g id="line2d_30">
      <path d="M 50.585938 248.679376 
" style="fill:none;stroke:#000000;stroke-width:1.5;"/>
     </g>
    </g>
    <g id="ytick_7">
     <g id="line2d_31">
      <path clip-path="url(#p78e9f1ee6d)" d="M 50.585938 186.96509 
L 407.705938 186.96509 
" style="fill:none;stroke:#fafafa;"/>
     </g>
     <g id="line2d_32">
      <path d="M 50.585938 186.96509 
" style="fill:none;stroke:#000000;stroke-width:1.5;"/>
     </g>
    </g>
    <g id="ytick_8">
     <g id="line2d_33">
      <path clip-path="url(#p78e9f1ee6d)" d="M 50.585938 125.250804 
L 407.705938 125.250804 
" style="fill:none;stroke:#fafafa;"/>
     </g>
     <g id="line2d_34">
      <path d="M 50.585938 125.250804 
" style="fill:none;stroke:#000000;stroke-width:1.5;"/>
     </g>
    </g>
    <g id="ytick_9">
     <g id="line2d_35">
      <path clip-path="url(#p78e9f1ee6d)" d="M 50.585938 63.536519 
L 407.705938 63.536519 
" style="fill:none;stroke:#fafafa;"/>
     </g>
     <g id="line2d_36">
      <path d="M 50.585938 63.536519 
" style="fill:none;stroke:#000000;stroke-width:1.5;"/>
     </g>
    </g>
    <g id="text_12">
     <!-- Percentile of ranking -->
     <defs>
      <path d="M 19.671875 64.796875 
L 19.671875 37.40625 
L 32.078125 37.40625 
Q 38.96875 37.40625 42.71875 40.96875 
Q 46.484375 44.53125 46.484375 51.125 
Q 46.484375 57.671875 42.71875 61.234375 
Q 38.96875 64.796875 32.078125 64.796875 
z
M 9.8125 72.90625 
L 32.078125 72.90625 
Q 44.34375 72.90625 50.609375 67.359375 
Q 56.890625 61.8125 56.890625 51.125 
Q 56.890625 40.328125 50.609375 34.8125 
Q 44.34375 29.296875 32.078125 29.296875 
L 19.671875 29.296875 
L 19.671875 0 
L 9.8125 0 
z
" id="DejaVuSans-80"/>
      <path d="M 56.203125 29.59375 
L 56.203125 25.203125 
L 14.890625 25.203125 
Q 15.484375 15.921875 20.484375 11.0625 
Q 25.484375 6.203125 34.421875 6.203125 
Q 39.59375 6.203125 44.453125 7.46875 
Q 49.3125 8.734375 54.109375 11.28125 
L 54.109375 2.78125 
Q 49.265625 0.734375 44.1875 -0.34375 
Q 39.109375 -1.421875 33.890625 -1.421875 
Q 20.796875 -1.421875 13.15625 6.1875 
Q 5.515625 13.8125 5.515625 26.8125 
Q 5.515625 40.234375 12.765625 48.109375 
Q 20.015625 56 32.328125 56 
Q 43.359375 56 49.78125 48.890625 
Q 56.203125 41.796875 56.203125 29.59375 
z
M 47.21875 32.234375 
Q 47.125 39.59375 43.09375 43.984375 
Q 39.0625 48.390625 32.421875 48.390625 
Q 24.90625 48.390625 20.390625 44.140625 
Q 15.875 39.890625 15.1875 32.171875 
z
" id="DejaVuSans-101"/>
      <path d="M 41.109375 46.296875 
Q 39.59375 47.171875 37.8125 47.578125 
Q 36.03125 48 33.890625 48 
Q 26.265625 48 22.1875 43.046875 
Q 18.109375 38.09375 18.109375 28.8125 
L 18.109375 0 
L 9.078125 0 
L 9.078125 54.6875 
L 18.109375 54.6875 
L 18.109375 46.1875 
Q 20.953125 51.171875 25.484375 53.578125 
Q 30.03125 56 36.53125 56 
Q 37.453125 56 38.578125 55.875 
Q 39.703125 55.765625 41.0625 55.515625 
z
" id="DejaVuSans-114"/>
      <path d="M 48.78125 52.59375 
L 48.78125 44.1875 
Q 44.96875 46.296875 41.140625 47.34375 
Q 37.3125 48.390625 33.40625 48.390625 
Q 24.65625 48.390625 19.8125 42.84375 
Q 14.984375 37.3125 14.984375 27.296875 
Q 14.984375 17.28125 19.8125 11.734375 
Q 24.65625 6.203125 33.40625 6.203125 
Q 37.3125 6.203125 41.140625 7.25 
Q 44.96875 8.296875 48.78125 10.40625 
L 48.78125 2.09375 
Q 45.015625 0.34375 40.984375 -0.53125 
Q 36.96875 -1.421875 32.421875 -1.421875 
Q 20.0625 -1.421875 12.78125 6.34375 
Q 5.515625 14.109375 5.515625 27.296875 
Q 5.515625 40.671875 12.859375 48.328125 
Q 20.21875 56 33.015625 56 
Q 37.15625 56 41.109375 55.140625 
Q 45.0625 54.296875 48.78125 52.59375 
z
" id="DejaVuSans-99"/>
      <path d="M 54.890625 33.015625 
L 54.890625 0 
L 45.90625 0 
L 45.90625 32.71875 
Q 45.90625 40.484375 42.875 44.328125 
Q 39.84375 48.1875 33.796875 48.1875 
Q 26.515625 48.1875 22.3125 43.546875 
Q 18.109375 38.921875 18.109375 30.90625 
L 18.109375 0 
L 9.078125 0 
L 9.078125 54.6875 
L 18.109375 54.6875 
L 18.109375 46.1875 
Q 21.34375 51.125 25.703125 53.5625 
Q 30.078125 56 35.796875 56 
Q 45.21875 56 50.046875 50.171875 
Q 54.890625 44.34375 54.890625 33.015625 
z
" id="DejaVuSans-110"/>
      <path d="M 18.3125 70.21875 
L 18.3125 54.6875 
L 36.8125 54.6875 
L 36.8125 47.703125 
L 18.3125 47.703125 
L 18.3125 18.015625 
Q 18.3125 11.328125 20.140625 9.421875 
Q 21.96875 7.515625 27.59375 7.515625 
L 36.8125 7.515625 
L 36.8125 0 
L 27.59375 0 
Q 17.1875 0 13.234375 3.875 
Q 9.28125 7.765625 9.28125 18.015625 
L 9.28125 47.703125 
L 2.6875 47.703125 
L 2.6875 54.6875 
L 9.28125 54.6875 
L 9.28125 70.21875 
z
" id="DejaVuSans-116"/>
      <path d="M 9.421875 54.6875 
L 18.40625 54.6875 
L 18.40625 0 
L 9.421875 0 
z
M 9.421875 75.984375 
L 18.40625 75.984375 
L 18.40625 64.59375 
L 9.421875 64.59375 
z
" id="DejaVuSans-105"/>
      <path d="M 9.421875 75.984375 
L 18.40625 75.984375 
L 18.40625 0 
L 9.421875 0 
z
" id="DejaVuSans-108"/>
      <path d="M 30.609375 48.390625 
Q 23.390625 48.390625 19.1875 42.75 
Q 14.984375 37.109375 14.984375 27.296875 
Q 14.984375 17.484375 19.15625 11.84375 
Q 23.34375 6.203125 30.609375 6.203125 
Q 37.796875 6.203125 41.984375 11.859375 
Q 46.1875 17.53125 46.1875 27.296875 
Q 46.1875 37.015625 41.984375 42.703125 
Q 37.796875 48.390625 30.609375 48.390625 
z
M 30.609375 56 
Q 42.328125 56 49.015625 48.375 
Q 55.71875 40.765625 55.71875 27.296875 
Q 55.71875 13.875 49.015625 6.21875 
Q 42.328125 -1.421875 30.609375 -1.421875 
Q 18.84375 -1.421875 12.171875 6.21875 
Q 5.515625 13.875 5.515625 27.296875 
Q 5.515625 40.765625 12.171875 48.375 
Q 18.84375 56 30.609375 56 
z
" id="DejaVuSans-111"/>
      <path d="M 37.109375 75.984375 
L 37.109375 68.5 
L 28.515625 68.5 
Q 23.6875 68.5 21.796875 66.546875 
Q 19.921875 64.59375 19.921875 59.515625 
L 19.921875 54.6875 
L 34.71875 54.6875 
L 34.71875 47.703125 
L 19.921875 47.703125 
L 19.921875 0 
L 10.890625 0 
L 10.890625 47.703125 
L 2.296875 47.703125 
L 2.296875 54.6875 
L 10.890625 54.6875 
L 10.890625 58.5 
Q 10.890625 67.625 15.140625 71.796875 
Q 19.390625 75.984375 28.609375 75.984375 
z
" id="DejaVuSans-102"/>
      <path d="M 34.28125 27.484375 
Q 23.390625 27.484375 19.1875 25 
Q 14.984375 22.515625 14.984375 16.5 
Q 14.984375 11.71875 18.140625 8.90625 
Q 21.296875 6.109375 26.703125 6.109375 
Q 34.1875 6.109375 38.703125 11.40625 
Q 43.21875 16.703125 43.21875 25.484375 
L 43.21875 27.484375 
z
M 52.203125 31.203125 
L 52.203125 0 
L 43.21875 0 
L 43.21875 8.296875 
Q 40.140625 3.328125 35.546875 0.953125 
Q 30.953125 -1.421875 24.3125 -1.421875 
Q 15.921875 -1.421875 10.953125 3.296875 
Q 6 8.015625 6 15.921875 
Q 6 25.140625 12.171875 29.828125 
Q 18.359375 34.515625 30.609375 34.515625 
L 43.21875 34.515625 
L 43.21875 35.40625 
Q 43.21875 41.609375 39.140625 45 
Q 35.0625 48.390625 27.6875 48.390625 
Q 23 48.390625 18.546875 47.265625 
Q 14.109375 46.140625 10.015625 43.890625 
L 10.015625 52.203125 
Q 14.9375 54.109375 19.578125 55.046875 
Q 24.21875 56 28.609375 56 
Q 40.484375 56 46.34375 49.84375 
Q 52.203125 43.703125 52.203125 31.203125 
z
" id="DejaVuSans-97"/>
      <path d="M 9.078125 75.984375 
L 18.109375 75.984375 
L 18.109375 31.109375 
L 44.921875 54.6875 
L 56.390625 54.6875 
L 27.390625 29.109375 
L 57.625 0 
L 45.90625 0 
L 18.109375 26.703125 
L 18.109375 0 
L 9.078125 0 
z
" id="DejaVuSans-107"/>
      <path d="M 45.40625 27.984375 
Q 45.40625 37.75 41.375 43.109375 
Q 37.359375 48.484375 30.078125 48.484375 
Q 22.859375 48.484375 18.828125 43.109375 
Q 14.796875 37.75 14.796875 27.984375 
Q 14.796875 18.265625 18.828125 12.890625 
Q 22.859375 7.515625 30.078125 7.515625 
Q 37.359375 7.515625 41.375 12.890625 
Q 45.40625 18.265625 45.40625 27.984375 
z
M 54.390625 6.78125 
Q 54.390625 -7.171875 48.1875 -13.984375 
Q 42 -20.796875 29.203125 -20.796875 
Q 24.46875 -20.796875 20.265625 -20.09375 
Q 16.0625 -19.390625 12.109375 -17.921875 
L 12.109375 -9.1875 
Q 16.0625 -11.328125 19.921875 -12.34375 
Q 23.78125 -13.375 27.78125 -13.375 
Q 36.625 -13.375 41.015625 -8.765625 
Q 45.40625 -4.15625 45.40625 5.171875 
L 45.40625 9.625 
Q 42.625 4.78125 38.28125 2.390625 
Q 33.9375 0 27.875 0 
Q 17.828125 0 11.671875 7.65625 
Q 5.515625 15.328125 5.515625 27.984375 
Q 5.515625 40.671875 11.671875 48.328125 
Q 17.828125 56 27.875 56 
Q 33.9375 56 38.28125 53.609375 
Q 42.625 51.21875 45.40625 46.390625 
L 45.40625 54.6875 
L 54.390625 54.6875 
z
" id="DejaVuSans-103"/>
     </defs>
     <g transform="translate(11.397656 229.709813)rotate(-90)scale(0.15 -0.15)">
      <use xlink:href="#DejaVuSans-80"/>
      <use x="60.255859" xlink:href="#DejaVuSans-101"/>
      <use x="121.779297" xlink:href="#DejaVuSans-114"/>
      <use x="162.861328" xlink:href="#DejaVuSans-99"/>
      <use x="217.841797" xlink:href="#DejaVuSans-101"/>
      <use x="279.365234" xlink:href="#DejaVuSans-110"/>
      <use x="342.744141" xlink:href="#DejaVuSans-116"/>
      <use x="381.953125" xlink:href="#DejaVuSans-105"/>
      <use x="409.736328" xlink:href="#DejaVuSans-108"/>
      <use x="437.519531" xlink:href="#DejaVuSans-101"/>
      <use x="499.042969" xlink:href="#DejaVuSans-32"/>
      <use x="530.830078" xlink:href="#DejaVuSans-111"/>
      <use x="592.011719" xlink:href="#DejaVuSans-102"/>
      <use x="627.216797" xlink:href="#DejaVuSans-32"/>
      <use x="659.003906" xlink:href="#DejaVuSans-114"/>
      <use x="700.117188" xlink:href="#DejaVuSans-97"/>
      <use x="761.396484" xlink:href="#DejaVuSans-110"/>
      <use x="824.775391" xlink:href="#DejaVuSans-107"/>
      <use x="882.685547" xlink:href="#DejaVuSans-105"/>
      <use x="910.46875" xlink:href="#DejaVuSans-110"/>
      <use x="973.847656" xlink:href="#DejaVuSans-103"/>
     </g>
    </g>
   </g>
   <g id="PathCollection_1">
    <path clip-path="url(#p78e9f1ee6d)" d="M 66.818665 34.45183 
C 67.288725 34.45183 67.739596 34.265073 68.071979 33.93269 
C 68.404362 33.600307 68.591119 33.149436 68.591119 32.679376 
C 68.591119 32.209316 68.404362 31.758444 68.071979 31.426062 
C 67.739596 31.093679 67.288725 30.906922 66.818665 30.906922 
C 66.348605 30.906922 65.897733 31.093679 65.565351 31.426062 
C 65.232968 31.758444 65.046211 32.209316 65.046211 32.679376 
C 65.046211 33.149436 65.232968 33.600307 65.565351 33.93269 
C 65.897733 34.265073 66.348605 34.45183 66.818665 34.45183 
z
" style="stroke:#000000;stroke-width:0.886227;"/>
    <path clip-path="url(#p78e9f1ee6d)" d="M 66.827507 39.388973 
C 67.297567 39.388973 67.748438 39.202216 68.080821 38.869833 
C 68.413204 38.53745 68.599961 38.086579 68.599961 37.616519 
C 68.599961 37.146458 68.413204 36.695587 68.080821 36.363205 
C 67.748438 36.030822 67.297567 35.844065 66.827507 35.844065 
C 66.357446 35.844065 65.906575 36.030822 65.574193 36.363205 
C 65.24181 36.695587 65.055053 37.146458 65.055053 37.616519 
C 65.055053 38.086579 65.24181 38.53745 65.574193 38.869833 
C 65.906575 39.202216 66.357446 39.388973 66.827507 39.388973 
z
" style="stroke:#000000;stroke-width:0.886227;"/>
    <path clip-path="url(#p78e9f1ee6d)" d="M 66.855341 44.326115 
C 67.325401 44.326115 67.776272 44.139358 68.108655 43.806976 
C 68.441037 43.474593 68.627794 43.023722 68.627794 42.553662 
C 68.627794 42.083601 68.441037 41.63273 68.108655 41.300347 
C 67.776272 40.967965 67.325401 40.781208 66.855341 40.781208 
C 66.38528 40.781208 65.934409 40.967965 65.602026 41.300347 
C 65.269644 41.63273 65.082887 42.083601 65.082887 42.553662 
C 65.082887 43.023722 65.269644 43.474593 65.602026 43.806976 
C 65.934409 44.139358 66.38528 44.326115 66.855341 44.326115 
z
" style="stroke:#000000;stroke-width:0.886227;"/>
    <path clip-path="url(#p78e9f1ee6d)" d="M 66.870983 49.263258 
C 67.341044 49.263258 67.791915 49.076501 68.124298 48.744119 
C 68.45668 48.411736 68.643437 47.960865 68.643437 47.490804 
C 68.643437 47.020744 68.45668 46.569873 68.124298 46.23749 
C 67.791915 45.905107 67.341044 45.718351 66.870983 45.718351 
C 66.400923 45.718351 65.950052 45.905107 65.617669 46.23749 
C 65.285287 46.569873 65.09853 47.020744 65.09853 47.490804 
C 65.09853 47.960865 65.285287 48.411736 65.617669 48.744119 
C 65.950052 49.076501 66.400923 49.263258 66.870983 49.263258 
z
" style="stroke:#000000;stroke-width:0.886227;"/>
    <path clip-path="url(#p78e9f1ee6d)" d="M 66.960512 54.200401 
C 67.430572 54.200401 67.881443 54.013644 68.213826 53.681261 
C 68.546209 53.348879 68.732966 52.898008 68.732966 52.427947 
C 68.732966 51.957887 68.546209 51.507016 68.213826 51.174633 
C 67.881443 50.84225 67.430572 50.655493 66.960512 50.655493 
C 66.490452 50.655493 66.039581 50.84225 65.707198 51.174633 
C 65.374815 51.507016 65.188058 51.957887 65.188058 52.427947 
C 65.188058 52.898008 65.374815 53.348879 65.707198 53.681261 
C 66.039581 54.013644 66.490452 54.200401 66.960512 54.200401 
z
" style="stroke:#000000;stroke-width:0.886227;"/>
    <path clip-path="url(#p78e9f1ee6d)" d="M 67.616531 59.137544 
C 68.086591 59.137544 68.537462 58.950787 68.869845 58.618404 
C 69.202228 58.286021 69.388985 57.83515 69.388985 57.36509 
C 69.388985 56.89503 69.202228 56.444159 68.869845 56.111776 
C 68.537462 55.779393 68.086591 55.592636 67.616531 55.592636 
C 67.146471 55.592636 66.6956 55.779393 66.363217 56.111776 
C 66.030834 56.444159 65.844077 56.89503 65.844077 57.36509 
C 65.844077 57.83515 66.030834 58.286021 66.363217 58.618404 
C 66.6956 58.950787 67.146471 59.137544 67.616531 59.137544 
z
" style="stroke:#000000;stroke-width:0.886227;"/>
    <path clip-path="url(#p78e9f1ee6d)" d="M 68.790113 64.074687 
C 69.260174 64.074687 69.711045 63.88793 70.043428 63.555547 
C 70.37581 63.223164 70.562567 62.772293 70.562567 62.302233 
C 70.562567 61.832173 70.37581 61.381302 70.043428 61.048919 
C 69.711045 60.716536 69.260174 60.529779 68.790113 60.529779 
C 68.320053 60.529779 67.869182 60.716536 67.536799 61.048919 
C 67.204416 61.381302 67.01766 61.832173 67.01766 62.302233 
C 67.01766 62.772293 67.204416 63.223164 67.536799 63.555547 
C 67.869182 63.88793 68.320053 64.074687 68.790113 64.074687 
z
" style="stroke:#000000;stroke-width:0.886227;"/>
    <path clip-path="url(#p78e9f1ee6d)" d="M 68.790113 69.01183 
C 69.260174 69.01183 69.711045 68.825073 70.043428 68.49269 
C 70.37581 68.160307 70.562567 67.709436 70.562567 67.239376 
C 70.562567 66.769316 70.37581 66.318444 70.043428 65.986062 
C 69.711045 65.653679 69.260174 65.466922 68.790113 65.466922 
C 68.320053 65.466922 67.869182 65.653679 67.536799 65.986062 
C 67.204416 66.318444 67.01766 66.769316 67.01766 67.239376 
C 67.01766 67.709436 67.204416 68.160307 67.536799 68.49269 
C 67.869182 68.825073 68.320053 69.01183 68.790113 69.01183 
z
" style="stroke:#000000;stroke-width:0.886227;"/>
    <path clip-path="url(#p78e9f1ee6d)" d="M 68.790113 73.948973 
C 69.260174 73.948973 69.711045 73.762216 70.043428 73.429833 
C 70.37581 73.09745 70.562567 72.646579 70.562567 72.176519 
C 70.562567 71.706458 70.37581 71.255587 70.043428 70.923205 
C 69.711045 70.590822 69.260174 70.404065 68.790113 70.404065 
C 68.320053 70.404065 67.869182 70.590822 67.536799 70.923205 
C 67.204416 71.255587 67.01766 71.706458 67.01766 72.176519 
C 67.01766 72.646579 67.204416 73.09745 67.536799 73.429833 
C 67.869182 73.762216 68.320053 73.948973 68.790113 73.948973 
z
" style="stroke:#000000;stroke-width:0.886227;"/>
    <path clip-path="url(#p78e9f1ee6d)" d="M 70.138394 78.886115 
C 70.608455 78.886115 71.059326 78.699358 71.391708 78.366976 
C 71.724091 78.034593 71.910848 77.583722 71.910848 77.113662 
C 71.910848 76.643601 71.724091 76.19273 71.391708 75.860347 
C 71.059326 75.527965 70.608455 75.341208 70.138394 75.341208 
C 69.668334 75.341208 69.217463 75.527965 68.88508 75.860347 
C 68.552697 76.19273 68.36594 76.643601 68.36594 77.113662 
C 68.36594 77.583722 68.552697 78.034593 68.88508 78.366976 
C 69.217463 78.699358 69.668334 78.886115 70.138394 78.886115 
z
" style="stroke:#000000;stroke-width:0.886227;"/>
    <path clip-path="url(#p78e9f1ee6d)" d="M 71.751883 83.823258 
C 72.221944 83.823258 72.672815 83.636501 73.005197 83.304119 
C 73.33758 82.971736 73.524337 82.520865 73.524337 82.050804 
C 73.524337 81.580744 73.33758 81.129873 73.005197 80.79749 
C 72.672815 80.465107 72.221944 80.278351 71.751883 80.278351 
C 71.281823 80.278351 70.830952 80.465107 70.498569 80.79749 
C 70.166186 81.129873 69.979429 81.580744 69.979429 82.050804 
C 69.979429 82.520865 70.166186 82.971736 70.498569 83.304119 
C 70.830952 83.636501 71.281823 83.823258 71.751883 83.823258 
z
" style="stroke:#000000;stroke-width:0.886227;"/>
    <path clip-path="url(#p78e9f1ee6d)" d="M 72.641918 88.760401 
C 73.111978 88.760401 73.562849 88.573644 73.895232 88.241261 
C 74.227615 87.908879 74.414372 87.458008 74.414372 86.987947 
C 74.414372 86.517887 74.227615 86.067016 73.895232 85.734633 
C 73.562849 85.40225 73.111978 85.215493 72.641918 85.215493 
C 72.171858 85.215493 71.720986 85.40225 71.388604 85.734633 
C 71.056221 86.067016 70.869464 86.517887 70.869464 86.987947 
C 70.869464 87.458008 71.056221 87.908879 71.388604 88.241261 
C 71.720986 88.573644 72.171858 88.760401 72.641918 88.760401 
z
" style="stroke:#000000;stroke-width:0.886227;"/>
    <path clip-path="url(#p78e9f1ee6d)" d="M 73.781962 93.697544 
C 74.252022 93.697544 74.702893 93.510787 75.035276 93.178404 
C 75.367659 92.846021 75.554416 92.39515 75.554416 91.92509 
C 75.554416 91.45503 75.367659 91.004159 75.035276 90.671776 
C 74.702893 90.339393 74.252022 90.152636 73.781962 90.152636 
C 73.311901 90.152636 72.86103 90.339393 72.528648 90.671776 
C 72.196265 91.004159 72.009508 91.45503 72.009508 91.92509 
C 72.009508 92.39515 72.196265 92.846021 72.528648 93.178404 
C 72.86103 93.510787 73.311901 93.697544 73.781962 93.697544 
z
" style="stroke:#000000;stroke-width:0.886227;"/>
    <path clip-path="url(#p78e9f1ee6d)" d="M 73.781962 98.634687 
C 74.252022 98.634687 74.702893 98.44793 75.035276 98.115547 
C 75.367659 97.783164 75.554416 97.332293 75.554416 96.862233 
C 75.554416 96.392173 75.367659 95.941302 75.035276 95.608919 
C 74.702893 95.276536 74.252022 95.089779 73.781962 95.089779 
C 73.311901 95.089779 72.86103 95.276536 72.528648 95.608919 
C 72.196265 95.941302 72.009508 96.392173 72.009508 96.862233 
C 72.009508 97.332293 72.196265 97.783164 72.528648 98.115547 
C 72.86103 98.44793 73.311901 98.634687 73.781962 98.634687 
z
" style="stroke:#000000;stroke-width:0.886227;"/>
    <path clip-path="url(#p78e9f1ee6d)" d="M 83.440535 103.57183 
C 83.910595 103.57183 84.361466 103.385073 84.693849 103.05269 
C 85.026232 102.720307 85.212989 102.269436 85.212989 101.799376 
C 85.212989 101.329316 85.026232 100.878444 84.693849 100.546062 
C 84.361466 100.213679 83.910595 100.026922 83.440535 100.026922 
C 82.970475 100.026922 82.519604 100.213679 82.187221 100.546062 
C 81.854838 100.878444 81.668081 101.329316 81.668081 101.799376 
C 81.668081 102.269436 81.854838 102.720307 82.187221 103.05269 
C 82.519604 103.385073 82.970475 103.57183 83.440535 103.57183 
z
" style="stroke:#000000;stroke-width:0.886227;"/>
    <path clip-path="url(#p78e9f1ee6d)" d="M 89.978078 108.508973 
C 90.448138 108.508973 90.899009 108.322216 91.231392 107.989833 
C 91.563775 107.65745 91.750532 107.206579 91.750532 106.736519 
C 91.750532 106.266458 91.563775 105.815587 91.231392 105.483205 
C 90.899009 105.150822 90.448138 104.964065 89.978078 104.964065 
C 89.508018 104.964065 89.057147 105.150822 88.724764 105.483205 
C 88.392381 105.815587 88.205624 106.266458 88.205624 106.736519 
C 88.205624 107.206579 88.392381 107.65745 88.724764 107.989833 
C 89.057147 108.322216 89.508018 108.508973 89.978078 108.508973 
z
" style="stroke:#000000;stroke-width:0.886227;"/>
    <path clip-path="url(#p78e9f1ee6d)" d="M 90.029236 113.446115 
C 90.499297 113.446115 90.950168 113.259358 91.28255 112.926976 
C 91.614933 112.594593 91.80169 112.143722 91.80169 111.673662 
C 91.80169 111.203601 91.614933 110.75273 91.28255 110.420347 
C 90.950168 110.087965 90.499297 109.901208 90.029236 109.901208 
C 89.559176 109.901208 89.108305 110.087965 88.775922 110.420347 
C 88.443539 110.75273 88.256782 111.203601 88.256782 111.673662 
C 88.256782 112.143722 88.443539 112.594593 88.775922 112.926976 
C 89.108305 113.259358 89.559176 113.446115 90.029236 113.446115 
z
" style="stroke:#000000;stroke-width:0.886227;"/>
    <path clip-path="url(#p78e9f1ee6d)" d="M 111.880619 118.383258 
C 112.35068 118.383258 112.801551 118.196501 113.133933 117.864119 
C 113.466316 117.531736 113.653073 117.080865 113.653073 116.610804 
C 113.653073 116.140744 113.466316 115.689873 113.133933 115.35749 
C 112.801551 115.025107 112.35068 114.838351 111.880619 114.838351 
C 111.410559 114.838351 110.959688 115.025107 110.627305 115.35749 
C 110.294922 115.689873 110.108165 116.140744 110.108165 116.610804 
C 110.108165 117.080865 110.294922 117.531736 110.627305 117.864119 
C 110.959688 118.196501 111.410559 118.383258 111.880619 118.383258 
z
" style="stroke:#000000;stroke-width:0.886227;"/>
    <path clip-path="url(#p78e9f1ee6d)" d="M 114.16368 123.320401 
C 114.633741 123.320401 115.084612 123.133644 115.416994 122.801261 
C 115.749377 122.468879 115.936134 122.018008 115.936134 121.547947 
C 115.936134 121.077887 115.749377 120.627016 115.416994 120.294633 
C 115.084612 119.96225 114.633741 119.775493 114.16368 119.775493 
C 113.69362 119.775493 113.242749 119.96225 112.910366 120.294633 
C 112.577983 120.627016 112.391226 121.077887 112.391226 121.547947 
C 112.391226 122.018008 112.577983 122.468879 112.910366 122.801261 
C 113.242749 123.133644 113.69362 123.320401 114.16368 123.320401 
z
" style="stroke:#000000;stroke-width:0.886227;"/>
    <path clip-path="url(#p78e9f1ee6d)" d="M 115.834803 128.257544 
C 116.304863 128.257544 116.755734 128.070787 117.088117 127.738404 
C 117.4205 127.406021 117.607257 126.95515 117.607257 126.48509 
C 117.607257 126.01503 117.4205 125.564159 117.088117 125.231776 
C 116.755734 124.899393 116.304863 124.712636 115.834803 124.712636 
C 115.364743 124.712636 114.913872 124.899393 114.581489 125.231776 
C 114.249106 125.564159 114.062349 126.01503 114.062349 126.48509 
C 114.062349 126.95515 114.249106 127.406021 114.581489 127.738404 
C 114.913872 128.070787 115.364743 128.257544 115.834803 128.257544 
z
" style="stroke:#000000;stroke-width:0.886227;"/>
    <path clip-path="url(#p78e9f1ee6d)" d="M 116.842995 133.194687 
C 117.313055 133.194687 117.763926 133.00793 118.096309 132.675547 
C 118.428692 132.343164 118.615449 131.892293 118.615449 131.422233 
C 118.615449 130.952173 118.428692 130.501302 118.096309 130.168919 
C 117.763926 129.836536 117.313055 129.649779 116.842995 129.649779 
C 116.372935 129.649779 115.922064 129.836536 115.589681 130.168919 
C 115.257298 130.501302 115.070541 130.952173 115.070541 131.422233 
C 115.070541 131.892293 115.257298 132.343164 115.589681 132.675547 
C 115.922064 133.00793 116.372935 133.194687 116.842995 133.194687 
z
" style="stroke:#000000;stroke-width:0.886227;"/>
    <path clip-path="url(#p78e9f1ee6d)" d="M 124.893533 138.13183 
C 125.363593 138.13183 125.814464 137.945073 126.146847 137.61269 
C 126.47923 137.280307 126.665986 136.829436 126.665986 136.359376 
C 126.665986 135.889316 126.47923 135.438444 126.146847 135.106062 
C 125.814464 134.773679 125.363593 134.586922 124.893533 134.586922 
C 124.423472 134.586922 123.972601 134.773679 123.640218 135.106062 
C 123.307836 135.438444 123.121079 135.889316 123.121079 136.359376 
C 123.121079 136.829436 123.307836 137.280307 123.640218 137.61269 
C 123.972601 137.945073 124.423472 138.13183 124.893533 138.13183 
z
" style="stroke:#000000;stroke-width:0.886227;"/>
    <path clip-path="url(#p78e9f1ee6d)" d="M 130.950252 143.068973 
C 131.420312 143.068973 131.871183 142.882216 132.203566 142.549833 
C 132.535949 142.21745 132.722706 141.766579 132.722706 141.296519 
C 132.722706 140.826458 132.535949 140.375587 132.203566 140.043205 
C 131.871183 139.710822 131.420312 139.524065 130.950252 139.524065 
C 130.480192 139.524065 130.029321 139.710822 129.696938 140.043205 
C 129.364555 140.375587 129.177798 140.826458 129.177798 141.296519 
C 129.177798 141.766579 129.364555 142.21745 129.696938 142.549833 
C 130.029321 142.882216 130.480192 143.068973 130.950252 143.068973 
z
" style="stroke:#000000;stroke-width:0.886227;"/>
    <path clip-path="url(#p78e9f1ee6d)" d="M 172.482139 148.006115 
C 172.9522 148.006115 173.403071 147.819358 173.735454 147.486976 
C 174.067836 147.154593 174.254593 146.703722 174.254593 146.233662 
C 174.254593 145.763601 174.067836 145.31273 173.735454 144.980347 
C 173.403071 144.647965 172.9522 144.461208 172.482139 144.461208 
C 172.012079 144.461208 171.561208 144.647965 171.228825 144.980347 
C 170.896442 145.31273 170.709686 145.763601 170.709686 146.233662 
C 170.709686 146.703722 170.896442 147.154593 171.228825 147.486976 
C 171.561208 147.819358 172.012079 148.006115 172.482139 148.006115 
z
" style="stroke:#000000;stroke-width:0.886227;"/>
    <path clip-path="url(#p78e9f1ee6d)" d="M 185.488327 152.943258 
C 185.958388 152.943258 186.409259 152.756501 186.741641 152.424119 
C 187.074024 152.091736 187.260781 151.640865 187.260781 151.170804 
C 187.260781 150.700744 187.074024 150.249873 186.741641 149.91749 
C 186.409259 149.585107 185.958388 149.398351 185.488327 149.398351 
C 185.018267 149.398351 184.567396 149.585107 184.235013 149.91749 
C 183.90263 150.249873 183.715873 150.700744 183.715873 151.170804 
C 183.715873 151.640865 183.90263 152.091736 184.235013 152.424119 
C 184.567396 152.756501 185.018267 152.943258 185.488327 152.943258 
z
" style="stroke:#000000;stroke-width:0.886227;"/>
    <path clip-path="url(#p78e9f1ee6d)" d="M 191.486782 157.880401 
C 191.956842 157.880401 192.407713 157.693644 192.740096 157.361261 
C 193.072479 157.028879 193.259236 156.578008 193.259236 156.107947 
C 193.259236 155.637887 193.072479 155.187016 192.740096 154.854633 
C 192.407713 154.52225 191.956842 154.335493 191.486782 154.335493 
C 191.016722 154.335493 190.565851 154.52225 190.233468 154.854633 
C 189.901085 155.187016 189.714328 155.637887 189.714328 156.107947 
C 189.714328 156.578008 189.901085 157.028879 190.233468 157.361261 
C 190.565851 157.693644 191.016722 157.880401 191.486782 157.880401 
z
" style="stroke:#000000;stroke-width:0.886227;"/>
    <path clip-path="url(#p78e9f1ee6d)" d="M 191.486782 162.817544 
C 191.956842 162.817544 192.407713 162.630787 192.740096 162.298404 
C 193.072479 161.966021 193.259236 161.51515 193.259236 161.04509 
C 193.259236 160.57503 193.072479 160.124159 192.740096 159.791776 
C 192.407713 159.459393 191.956842 159.272636 191.486782 159.272636 
C 191.016722 159.272636 190.565851 159.459393 190.233468 159.791776 
C 189.901085 160.124159 189.714328 160.57503 189.714328 161.04509 
C 189.714328 161.51515 189.901085 161.966021 190.233468 162.298404 
C 190.565851 162.630787 191.016722 162.817544 191.486782 162.817544 
z
" style="stroke:#000000;stroke-width:0.886227;"/>
    <path clip-path="url(#p78e9f1ee6d)" d="M 194.274429 170.223258 
C 194.744489 170.223258 195.19536 170.036501 195.527743 169.704119 
C 195.860126 169.371736 196.046882 168.920865 196.046882 168.450804 
C 196.046882 167.980744 195.860126 167.529873 195.527743 167.19749 
C 195.19536 166.865107 194.744489 166.678351 194.274429 166.678351 
C 193.804368 166.678351 193.353497 166.865107 193.021114 167.19749 
C 192.688732 167.529873 192.501975 167.980744 192.501975 168.450804 
C 192.501975 168.920865 192.688732 169.371736 193.021114 169.704119 
C 193.353497 170.036501 193.804368 170.223258 194.274429 170.223258 
z
" style="stroke:#000000;stroke-width:0.886227;"/>
    <path clip-path="url(#p78e9f1ee6d)" d="M 194.274429 170.223258 
C 194.744489 170.223258 195.19536 170.036501 195.527743 169.704119 
C 195.860126 169.371736 196.046882 168.920865 196.046882 168.450804 
C 196.046882 167.980744 195.860126 167.529873 195.527743 167.19749 
C 195.19536 166.865107 194.744489 166.678351 194.274429 166.678351 
C 193.804368 166.678351 193.353497 166.865107 193.021114 167.19749 
C 192.688732 167.529873 192.501975 167.980744 192.501975 168.450804 
C 192.501975 168.920865 192.688732 169.371736 193.021114 169.704119 
C 193.353497 170.036501 193.804368 170.223258 194.274429 170.223258 
z
" style="stroke:#000000;stroke-width:0.886227;"/>
    <path clip-path="url(#p78e9f1ee6d)" d="M 194.274429 177.628973 
C 194.744489 177.628973 195.19536 177.442216 195.527743 177.109833 
C 195.860126 176.77745 196.046882 176.326579 196.046882 175.856519 
C 196.046882 175.386458 195.860126 174.935587 195.527743 174.603205 
C 195.19536 174.270822 194.744489 174.084065 194.274429 174.084065 
C 193.804368 174.084065 193.353497 174.270822 193.021114 174.603205 
C 192.688732 174.935587 192.501975 175.386458 192.501975 175.856519 
C 192.501975 176.326579 192.688732 176.77745 193.021114 177.109833 
C 193.353497 177.442216 193.804368 177.628973 194.274429 177.628973 
z
" style="stroke:#000000;stroke-width:0.886227;"/>
    <path clip-path="url(#p78e9f1ee6d)" d="M 234.586193 182.566115 
C 235.056253 182.566115 235.507124 182.379358 235.839507 182.046976 
C 236.17189 181.714593 236.358647 181.263722 236.358647 180.793662 
C 236.358647 180.323601 236.17189 179.87273 235.839507 179.540347 
C 235.507124 179.207965 235.056253 179.021208 234.586193 179.021208 
C 234.116133 179.021208 233.665262 179.207965 233.332879 179.540347 
C 233.000496 179.87273 232.813739 180.323601 232.813739 180.793662 
C 232.813739 181.263722 233.000496 181.714593 233.332879 182.046976 
C 233.665262 182.379358 234.116133 182.566115 234.586193 182.566115 
z
" style="stroke:#000000;stroke-width:0.886227;"/>
    <path clip-path="url(#p78e9f1ee6d)" d="M 234.586193 187.503258 
C 235.056253 187.503258 235.507124 187.316501 235.839507 186.984119 
C 236.17189 186.651736 236.358647 186.200865 236.358647 185.730804 
C 236.358647 185.260744 236.17189 184.809873 235.839507 184.47749 
C 235.507124 184.145107 235.056253 183.958351 234.586193 183.958351 
C 234.116133 183.958351 233.665262 184.145107 233.332879 184.47749 
C 233.000496 184.809873 232.813739 185.260744 232.813739 185.730804 
C 232.813739 186.200865 233.000496 186.651736 233.332879 186.984119 
C 233.665262 187.316501 234.116133 187.503258 234.586193 187.503258 
z
" style="stroke:#000000;stroke-width:0.886227;"/>
    <path clip-path="url(#p78e9f1ee6d)" d="M 257.504646 192.440401 
C 257.974707 192.440401 258.425578 192.253644 258.757961 191.921261 
C 259.090343 191.588879 259.2771 191.138008 259.2771 190.667947 
C 259.2771 190.197887 259.090343 189.747016 258.757961 189.414633 
C 258.425578 189.08225 257.974707 188.895493 257.504646 188.895493 
C 257.034586 188.895493 256.583715 189.08225 256.251332 189.414633 
C 255.918949 189.747016 255.732193 190.197887 255.732193 190.667947 
C 255.732193 191.138008 255.918949 191.588879 256.251332 191.921261 
C 256.583715 192.253644 257.034586 192.440401 257.504646 192.440401 
z
" style="stroke:#000000;stroke-width:0.886227;"/>
    <path clip-path="url(#p78e9f1ee6d)" d="M 260.146719 199.846115 
C 260.616779 199.846115 261.06765 199.659358 261.400033 199.326976 
C 261.732416 198.994593 261.919173 198.543722 261.919173 198.073662 
C 261.919173 197.603601 261.732416 197.15273 261.400033 196.820347 
C 261.06765 196.487965 260.616779 196.301208 260.146719 196.301208 
C 259.676659 196.301208 259.225788 196.487965 258.893405 196.820347 
C 258.561022 197.15273 258.374265 197.603601 258.374265 198.073662 
C 258.374265 198.543722 258.561022 198.994593 258.893405 199.326976 
C 259.225788 199.659358 259.676659 199.846115 260.146719 199.846115 
z
" style="stroke:#000000;stroke-width:0.886227;"/>
    <path clip-path="url(#p78e9f1ee6d)" d="M 263.040598 199.846115 
C 263.510659 199.846115 263.96153 199.659358 264.293912 199.326976 
C 264.626295 198.994593 264.813052 198.543722 264.813052 198.073662 
C 264.813052 197.603601 264.626295 197.15273 264.293912 196.820347 
C 263.96153 196.487965 263.510659 196.301208 263.040598 196.301208 
C 262.570538 196.301208 262.119667 196.487965 261.787284 196.820347 
C 261.454901 197.15273 261.268144 197.603601 261.268144 198.073662 
C 261.268144 198.543722 261.454901 198.994593 261.787284 199.326976 
C 262.119667 199.659358 262.570538 199.846115 263.040598 199.846115 
z
" style="stroke:#000000;stroke-width:0.886227;"/>
    <path clip-path="url(#p78e9f1ee6d)" d="M 263.040598 207.25183 
C 263.510659 207.25183 263.96153 207.065073 264.293912 206.73269 
C 264.626295 206.400307 264.813052 205.949436 264.813052 205.479376 
C 264.813052 205.009316 264.626295 204.558444 264.293912 204.226062 
C 263.96153 203.893679 263.510659 203.706922 263.040598 203.706922 
C 262.570538 203.706922 262.119667 203.893679 261.787284 204.226062 
C 261.454901 204.558444 261.268144 205.009316 261.268144 205.479376 
C 261.268144 205.949436 261.454901 206.400307 261.787284 206.73269 
C 262.119667 207.065073 262.570538 207.25183 263.040598 207.25183 
z
" style="stroke:#000000;stroke-width:0.886227;"/>
    <path clip-path="url(#p78e9f1ee6d)" d="M 263.040598 212.188973 
C 263.510659 212.188973 263.96153 212.002216 264.293912 211.669833 
C 264.626295 211.33745 264.813052 210.886579 264.813052 210.416519 
C 264.813052 209.946458 264.626295 209.495587 264.293912 209.163205 
C 263.96153 208.830822 263.510659 208.644065 263.040598 208.644065 
C 262.570538 208.644065 262.119667 208.830822 261.787284 209.163205 
C 261.454901 209.495587 261.268144 209.946458 261.268144 210.416519 
C 261.268144 210.886579 261.454901 211.33745 261.787284 211.669833 
C 262.119667 212.002216 262.570538 212.188973 263.040598 212.188973 
z
" style="stroke:#000000;stroke-width:0.886227;"/>
    <path clip-path="url(#p78e9f1ee6d)" d="M 272.677067 222.063258 
C 273.147127 222.063258 273.597998 221.876501 273.930381 221.544119 
C 274.262764 221.211736 274.449521 220.760865 274.449521 220.290804 
C 274.449521 219.820744 274.262764 219.369873 273.930381 219.03749 
C 273.597998 218.705107 273.147127 218.518351 272.677067 218.518351 
C 272.207006 218.518351 271.756135 218.705107 271.423753 219.03749 
C 271.09137 219.369873 270.904613 219.820744 270.904613 220.290804 
C 270.904613 220.760865 271.09137 221.211736 271.423753 221.544119 
C 271.756135 221.876501 272.207006 222.063258 272.677067 222.063258 
z
" style="stroke:#000000;stroke-width:0.886227;"/>
    <path clip-path="url(#p78e9f1ee6d)" d="M 272.677067 217.126115 
C 273.147127 217.126115 273.597998 216.939358 273.930381 216.606976 
C 274.262764 216.274593 274.449521 215.823722 274.449521 215.353662 
C 274.449521 214.883601 274.262764 214.43273 273.930381 214.100347 
C 273.597998 213.767965 273.147127 213.581208 272.677067 213.581208 
C 272.207006 213.581208 271.756135 213.767965 271.423753 214.100347 
C 271.09137 214.43273 270.904613 214.883601 270.904613 215.353662 
C 270.904613 215.823722 271.09137 216.274593 271.423753 216.606976 
C 271.756135 216.939358 272.207006 217.126115 272.677067 217.126115 
z
" style="stroke:#000000;stroke-width:0.886227;"/>
    <path clip-path="url(#p78e9f1ee6d)" d="M 319.091744 227.000401 
C 319.561804 227.000401 320.012675 226.813644 320.345058 226.481261 
C 320.677441 226.148879 320.864198 225.698008 320.864198 225.227947 
C 320.864198 224.757887 320.677441 224.307016 320.345058 223.974633 
C 320.012675 223.64225 319.561804 223.455493 319.091744 223.455493 
C 318.621684 223.455493 318.170813 223.64225 317.83843 223.974633 
C 317.506047 224.307016 317.31929 224.757887 317.31929 225.227947 
C 317.31929 225.698008 317.506047 226.148879 317.83843 226.481261 
C 318.170813 226.813644 318.621684 227.000401 319.091744 227.000401 
z
" style="stroke:#000000;stroke-width:0.886227;"/>
    <path clip-path="url(#p78e9f1ee6d)" d="M 319.091744 231.937544 
C 319.561804 231.937544 320.012675 231.750787 320.345058 231.418404 
C 320.677441 231.086021 320.864198 230.63515 320.864198 230.16509 
C 320.864198 229.69503 320.677441 229.244159 320.345058 228.911776 
C 320.012675 228.579393 319.561804 228.392636 319.091744 228.392636 
C 318.621684 228.392636 318.170813 228.579393 317.83843 228.911776 
C 317.506047 229.244159 317.31929 229.69503 317.31929 230.16509 
C 317.31929 230.63515 317.506047 231.086021 317.83843 231.418404 
C 318.170813 231.750787 318.621684 231.937544 319.091744 231.937544 
z
" style="stroke:#000000;stroke-width:0.886227;"/>
    <path clip-path="url(#p78e9f1ee6d)" d="M 326.74612 236.874687 
C 327.216181 236.874687 327.667052 236.68793 327.999434 236.355547 
C 328.331817 236.023164 328.518574 235.572293 328.518574 235.102233 
C 328.518574 234.632173 328.331817 234.181302 327.999434 233.848919 
C 327.667052 233.516536 327.216181 233.329779 326.74612 233.329779 
C 326.27606 233.329779 325.825189 233.516536 325.492806 233.848919 
C 325.160423 234.181302 324.973666 234.632173 324.973666 235.102233 
C 324.973666 235.572293 325.160423 236.023164 325.492806 236.355547 
C 325.825189 236.68793 326.27606 236.874687 326.74612 236.874687 
z
" style="stroke:#000000;stroke-width:0.886227;"/>
    <path clip-path="url(#p78e9f1ee6d)" d="M 332.839143 241.81183 
C 333.309203 241.81183 333.760074 241.625073 334.092457 241.29269 
C 334.42484 240.960307 334.611597 240.509436 334.611597 240.039376 
C 334.611597 239.569316 334.42484 239.118444 334.092457 238.786062 
C 333.760074 238.453679 333.309203 238.266922 332.839143 238.266922 
C 332.369083 238.266922 331.918212 238.453679 331.585829 238.786062 
C 331.253446 239.118444 331.066689 239.569316 331.066689 240.039376 
C 331.066689 240.509436 331.253446 240.960307 331.585829 241.29269 
C 331.918212 241.625073 332.369083 241.81183 332.839143 241.81183 
z
" style="stroke:#000000;stroke-width:0.886227;"/>
    <path clip-path="url(#p78e9f1ee6d)" d="M 334.623934 246.748973 
C 335.093994 246.748973 335.544865 246.562216 335.877248 246.229833 
C 336.209631 245.89745 336.396388 245.446579 336.396388 244.976519 
C 336.396388 244.506458 336.209631 244.055587 335.877248 243.723205 
C 335.544865 243.390822 335.093994 243.204065 334.623934 243.204065 
C 334.153874 243.204065 333.703002 243.390822 333.37062 243.723205 
C 333.038237 244.055587 332.85148 244.506458 332.85148 244.976519 
C 332.85148 245.446579 333.038237 245.89745 333.37062 246.229833 
C 333.703002 246.562216 334.153874 246.748973 334.623934 246.748973 
z
" style="stroke:#000000;stroke-width:0.886227;"/>
    <path clip-path="url(#p78e9f1ee6d)" d="M 339.758789 251.686115 
C 340.228849 251.686115 340.67972 251.499358 341.012103 251.166976 
C 341.344486 250.834593 341.531242 250.383722 341.531242 249.913662 
C 341.531242 249.443601 341.344486 248.99273 341.012103 248.660347 
C 340.67972 248.327965 340.228849 248.141208 339.758789 248.141208 
C 339.288728 248.141208 338.837857 248.327965 338.505474 248.660347 
C 338.173092 248.99273 337.986335 249.443601 337.986335 249.913662 
C 337.986335 250.383722 338.173092 250.834593 338.505474 251.166976 
C 338.837857 251.499358 339.288728 251.686115 339.758789 251.686115 
z
" style="stroke:#000000;stroke-width:0.886227;"/>
    <path clip-path="url(#p78e9f1ee6d)" d="M 379.924077 256.623258 
C 380.394137 256.623258 380.845008 256.436501 381.177391 256.104119 
C 381.509774 255.771736 381.696531 255.320865 381.696531 254.850804 
C 381.696531 254.380744 381.509774 253.929873 381.177391 253.59749 
C 380.845008 253.265107 380.394137 253.078351 379.924077 253.078351 
C 379.454017 253.078351 379.003146 253.265107 378.670763 253.59749 
C 378.33838 253.929873 378.151623 254.380744 378.151623 254.850804 
C 378.151623 255.320865 378.33838 255.771736 378.670763 256.104119 
C 379.003146 256.436501 379.454017 256.623258 379.924077 256.623258 
z
" style="stroke:#000000;stroke-width:0.886227;"/>
    <path clip-path="url(#p78e9f1ee6d)" d="M 391.47321 261.560401 
C 391.94327 261.560401 392.394142 261.373644 392.726524 261.041261 
C 393.058907 260.708879 393.245664 260.258008 393.245664 259.787947 
C 393.245664 259.317887 393.058907 258.867016 392.726524 258.534633 
C 392.394142 258.20225 391.94327 258.015493 391.47321 258.015493 
C 391.00315 258.015493 390.552279 258.20225 390.219896 258.534633 
C 389.887513 258.867016 389.700756 259.317887 389.700756 259.787947 
C 389.700756 260.258008 389.887513 260.708879 390.219896 261.041261 
C 390.552279 261.373644 391.00315 261.560401 391.47321 261.560401 
z
" style="stroke:#000000;stroke-width:0.886227;"/>
    <path clip-path="url(#p78e9f1ee6d)" d="M 391.47321 266.497544 
C 391.94327 266.497544 392.394142 266.310787 392.726524 265.978404 
C 393.058907 265.646021 393.245664 265.19515 393.245664 264.72509 
C 393.245664 264.25503 393.058907 263.804159 392.726524 263.471776 
C 392.394142 263.139393 391.94327 262.952636 391.47321 262.952636 
C 391.00315 262.952636 390.552279 263.139393 390.219896 263.471776 
C 389.887513 263.804159 389.700756 264.25503 389.700756 264.72509 
C 389.700756 265.19515 389.887513 265.646021 390.219896 265.978404 
C 390.552279 266.310787 391.00315 266.497544 391.47321 266.497544 
z
" style="stroke:#000000;stroke-width:0.886227;"/>
    <path clip-path="url(#p78e9f1ee6d)" d="M 391.47321 271.434687 
C 391.94327 271.434687 392.394142 271.24793 392.726524 270.915547 
C 393.058907 270.583164 393.245664 270.132293 393.245664 269.662233 
C 393.245664 269.192173 393.058907 268.741302 392.726524 268.408919 
C 392.394142 268.076536 391.94327 267.889779 391.47321 267.889779 
C 391.00315 267.889779 390.552279 268.076536 390.219896 268.408919 
C 389.887513 268.741302 389.700756 269.192173 389.700756 269.662233 
C 389.700756 270.132293 389.887513 270.583164 390.219896 270.915547 
C 390.552279 271.24793 391.00315 271.434687 391.47321 271.434687 
z
" style="stroke:#000000;stroke-width:0.886227;"/>
    <path clip-path="url(#p78e9f1ee6d)" d="M 391.47321 276.37183 
C 391.94327 276.37183 392.394142 276.185073 392.726524 275.85269 
C 393.058907 275.520307 393.245664 275.069436 393.245664 274.599376 
C 393.245664 274.129316 393.058907 273.678444 392.726524 273.346062 
C 392.394142 273.013679 391.94327 272.826922 391.47321 272.826922 
C 391.00315 272.826922 390.552279 273.013679 390.219896 273.346062 
C 389.887513 273.678444 389.700756 274.129316 389.700756 274.599376 
C 389.700756 275.069436 389.887513 275.520307 390.219896 275.85269 
C 390.552279 276.185073 391.00315 276.37183 391.47321 276.37183 
z
" style="stroke:#000000;stroke-width:0.886227;"/>
   </g>
   <g id="PathCollection_2">
    <path clip-path="url(#p78e9f1ee6d)" d="M 66.818665 34.45183 
C 67.288725 34.45183 67.739596 34.265073 68.071979 33.93269 
C 68.404362 33.600307 68.591119 33.149436 68.591119 32.679376 
C 68.591119 32.209316 68.404362 31.758444 68.071979 31.426062 
C 67.739596 31.093679 67.288725 30.906922 66.818665 30.906922 
C 66.348605 30.906922 65.897733 31.093679 65.565351 31.426062 
C 65.232968 31.758444 65.046211 32.209316 65.046211 32.679376 
C 65.046211 33.149436 65.232968 33.600307 65.565351 33.93269 
C 65.897733 34.265073 66.348605 34.45183 66.818665 34.45183 
z
" style="fill:#ff0000;stroke:#ff0000;stroke-width:0.886227;"/>
    <path clip-path="url(#p78e9f1ee6d)" d="M 66.827507 39.388973 
C 67.297567 39.388973 67.748438 39.202216 68.080821 38.869833 
C 68.413204 38.53745 68.599961 38.086579 68.599961 37.616519 
C 68.599961 37.146458 68.413204 36.695587 68.080821 36.363205 
C 67.748438 36.030822 67.297567 35.844065 66.827507 35.844065 
C 66.357446 35.844065 65.906575 36.030822 65.574193 36.363205 
C 65.24181 36.695587 65.055053 37.146458 65.055053 37.616519 
C 65.055053 38.086579 65.24181 38.53745 65.574193 38.869833 
C 65.906575 39.202216 66.357446 39.388973 66.827507 39.388973 
z
" style="fill:#ff0000;stroke:#ff0000;stroke-width:0.886227;"/>
    <path clip-path="url(#p78e9f1ee6d)" d="M 66.855341 44.326115 
C 67.325401 44.326115 67.776272 44.139358 68.108655 43.806976 
C 68.441037 43.474593 68.627794 43.023722 68.627794 42.553662 
C 68.627794 42.083601 68.441037 41.63273 68.108655 41.300347 
C 67.776272 40.967965 67.325401 40.781208 66.855341 40.781208 
C 66.38528 40.781208 65.934409 40.967965 65.602026 41.300347 
C 65.269644 41.63273 65.082887 42.083601 65.082887 42.553662 
C 65.082887 43.023722 65.269644 43.474593 65.602026 43.806976 
C 65.934409 44.139358 66.38528 44.326115 66.855341 44.326115 
z
" style="fill:#ff0000;stroke:#ff0000;stroke-width:0.886227;"/>
    <path clip-path="url(#p78e9f1ee6d)" d="M 66.870983 49.263258 
C 67.341044 49.263258 67.791915 49.076501 68.124298 48.744119 
C 68.45668 48.411736 68.643437 47.960865 68.643437 47.490804 
C 68.643437 47.020744 68.45668 46.569873 68.124298 46.23749 
C 67.791915 45.905107 67.341044 45.718351 66.870983 45.718351 
C 66.400923 45.718351 65.950052 45.905107 65.617669 46.23749 
C 65.285287 46.569873 65.09853 47.020744 65.09853 47.490804 
C 65.09853 47.960865 65.285287 48.411736 65.617669 48.744119 
C 65.950052 49.076501 66.400923 49.263258 66.870983 49.263258 
z
" style="fill:#ff0000;stroke:#ff0000;stroke-width:0.886227;"/>
    <path clip-path="url(#p78e9f1ee6d)" d="M 66.960512 54.200401 
C 67.430572 54.200401 67.881443 54.013644 68.213826 53.681261 
C 68.546209 53.348879 68.732966 52.898008 68.732966 52.427947 
C 68.732966 51.957887 68.546209 51.507016 68.213826 51.174633 
C 67.881443 50.84225 67.430572 50.655493 66.960512 50.655493 
C 66.490452 50.655493 66.039581 50.84225 65.707198 51.174633 
C 65.374815 51.507016 65.188058 51.957887 65.188058 52.427947 
C 65.188058 52.898008 65.374815 53.348879 65.707198 53.681261 
C 66.039581 54.013644 66.490452 54.200401 66.960512 54.200401 
z
" style="fill:#ff0000;stroke:#ff0000;stroke-width:0.886227;"/>
   </g>
   <g id="text_13">
    <g clip-path="url(#p78e9f1ee6d)">
     <!-- HALLMARK_ADIPOGENESIS -->
     <defs>
      <path d="M 34.1875 63.1875 
L 20.796875 26.90625 
L 47.609375 26.90625 
z
M 28.609375 72.90625 
L 39.796875 72.90625 
L 67.578125 0 
L 57.328125 0 
L 50.6875 18.703125 
L 17.828125 18.703125 
L 11.1875 0 
L 0.78125 0 
z
" id="DejaVuSans-65"/>
      <path d="M 9.8125 72.90625 
L 19.671875 72.90625 
L 19.671875 8.296875 
L 55.171875 8.296875 
L 55.171875 0 
L 9.8125 0 
z
" id="DejaVuSans-76"/>
      <path d="M 9.8125 72.90625 
L 24.515625 72.90625 
L 43.109375 23.296875 
L 61.8125 72.90625 
L 76.515625 72.90625 
L 76.515625 0 
L 66.890625 0 
L 66.890625 64.015625 
L 48.09375 14.015625 
L 38.1875 14.015625 
L 19.390625 64.015625 
L 19.390625 0 
L 9.8125 0 
z
" id="DejaVuSans-77"/>
      <path d="M 9.8125 72.90625 
L 19.671875 72.90625 
L 19.671875 42.09375 
L 52.390625 72.90625 
L 65.09375 72.90625 
L 28.90625 38.921875 
L 67.671875 0 
L 54.6875 0 
L 19.671875 35.109375 
L 19.671875 0 
L 9.8125 0 
z
" id="DejaVuSans-75"/>
      <path d="M 50.984375 -16.609375 
L 50.984375 -23.578125 
L -0.984375 -23.578125 
L -0.984375 -16.609375 
z
" id="DejaVuSans-95"/>
      <path d="M 9.8125 72.90625 
L 19.671875 72.90625 
L 19.671875 0 
L 9.8125 0 
z
" id="DejaVuSans-73"/>
      <path d="M 39.40625 66.21875 
Q 28.65625 66.21875 22.328125 58.203125 
Q 16.015625 50.203125 16.015625 36.375 
Q 16.015625 22.609375 22.328125 14.59375 
Q 28.65625 6.59375 39.40625 6.59375 
Q 50.140625 6.59375 56.421875 14.59375 
Q 62.703125 22.609375 62.703125 36.375 
Q 62.703125 50.203125 56.421875 58.203125 
Q 50.140625 66.21875 39.40625 66.21875 
z
M 39.40625 74.21875 
Q 54.734375 74.21875 63.90625 63.9375 
Q 73.09375 53.65625 73.09375 36.375 
Q 73.09375 19.140625 63.90625 8.859375 
Q 54.734375 -1.421875 39.40625 -1.421875 
Q 24.03125 -1.421875 14.8125 8.828125 
Q 5.609375 19.09375 5.609375 36.375 
Q 5.609375 53.65625 14.8125 63.9375 
Q 24.03125 74.21875 39.40625 74.21875 
z
" id="DejaVuSans-79"/>
      <path d="M 59.515625 10.40625 
L 59.515625 29.984375 
L 43.40625 29.984375 
L 43.40625 38.09375 
L 69.28125 38.09375 
L 69.28125 6.78125 
Q 63.578125 2.734375 56.6875 0.65625 
Q 49.8125 -1.421875 42 -1.421875 
Q 24.90625 -1.421875 15.25 8.5625 
Q 5.609375 18.5625 5.609375 36.375 
Q 5.609375 54.25 15.25 64.234375 
Q 24.90625 74.21875 42 74.21875 
Q 49.125 74.21875 55.546875 72.453125 
Q 61.96875 70.703125 67.390625 67.28125 
L 67.390625 56.78125 
Q 61.921875 61.421875 55.765625 63.765625 
Q 49.609375 66.109375 42.828125 66.109375 
Q 29.4375 66.109375 22.71875 58.640625 
Q 16.015625 51.171875 16.015625 36.375 
Q 16.015625 21.625 22.71875 14.15625 
Q 29.4375 6.6875 42.828125 6.6875 
Q 48.046875 6.6875 52.140625 7.59375 
Q 56.25 8.5 59.515625 10.40625 
z
" id="DejaVuSans-71"/>
      <path d="M 9.8125 72.90625 
L 55.90625 72.90625 
L 55.90625 64.59375 
L 19.671875 64.59375 
L 19.671875 43.015625 
L 54.390625 43.015625 
L 54.390625 34.71875 
L 19.671875 34.71875 
L 19.671875 8.296875 
L 56.78125 8.296875 
L 56.78125 0 
L 9.8125 0 
z
" id="DejaVuSans-69"/>
      <path d="M 9.8125 72.90625 
L 23.09375 72.90625 
L 55.421875 11.921875 
L 55.421875 72.90625 
L 64.984375 72.90625 
L 64.984375 0 
L 51.703125 0 
L 19.390625 60.984375 
L 19.390625 0 
L 9.8125 0 
z
" id="DejaVuSans-78"/>
      <path d="M 53.515625 70.515625 
L 53.515625 60.890625 
Q 47.90625 63.578125 42.921875 64.890625 
Q 37.9375 66.21875 33.296875 66.21875 
Q 25.25 66.21875 20.875 63.09375 
Q 16.5 59.96875 16.5 54.203125 
Q 16.5 49.359375 19.40625 46.890625 
Q 22.3125 44.4375 30.421875 42.921875 
L 36.375 41.703125 
Q 47.40625 39.59375 52.65625 34.296875 
Q 57.90625 29 57.90625 20.125 
Q 57.90625 9.515625 50.796875 4.046875 
Q 43.703125 -1.421875 29.984375 -1.421875 
Q 24.8125 -1.421875 18.96875 -0.25 
Q 13.140625 0.921875 6.890625 3.21875 
L 6.890625 13.375 
Q 12.890625 10.015625 18.65625 8.296875 
Q 24.421875 6.59375 29.984375 6.59375 
Q 38.421875 6.59375 43.015625 9.90625 
Q 47.609375 13.234375 47.609375 19.390625 
Q 47.609375 24.75 44.3125 27.78125 
Q 41.015625 30.8125 33.5 32.328125 
L 27.484375 33.5 
Q 16.453125 35.6875 11.515625 40.375 
Q 6.59375 45.0625 6.59375 53.421875 
Q 6.59375 63.09375 13.40625 68.65625 
Q 20.21875 74.21875 32.171875 74.21875 
Q 37.3125 74.21875 42.625 73.28125 
Q 47.953125 72.359375 53.515625 70.515625 
z
" id="DejaVuSans-83"/>
     </defs>
     <g transform="translate(66.818665 36.390313)scale(0.05 -0.05)">
      <use xlink:href="#DejaVuSans-72"/>
      <use x="75.195312" xlink:href="#DejaVuSans-65"/>
      <use x="143.603516" xlink:href="#DejaVuSans-76"/>
      <use x="199.316406" xlink:href="#DejaVuSans-76"/>
      <use x="255.029297" xlink:href="#DejaVuSans-77"/>
      <use x="341.308594" xlink:href="#DejaVuSans-65"/>
      <use x="409.716797" xlink:href="#DejaVuSans-82"/>
      <use x="479.199219" xlink:href="#DejaVuSans-75"/>
      <use x="544.775391" xlink:href="#DejaVuSans-95"/>
      <use x="594.775391" xlink:href="#DejaVuSans-65"/>
      <use x="663.183594" xlink:href="#DejaVuSans-68"/>
      <use x="740.185547" xlink:href="#DejaVuSans-73"/>
      <use x="769.677734" xlink:href="#DejaVuSans-80"/>
      <use x="829.980469" xlink:href="#DejaVuSans-79"/>
      <use x="908.691406" xlink:href="#DejaVuSans-71"/>
      <use x="986.181641" xlink:href="#DejaVuSans-69"/>
      <use x="1049.365234" xlink:href="#DejaVuSans-78"/>
      <use x="1124.169922" xlink:href="#DejaVuSans-69"/>
      <use x="1187.353516" xlink:href="#DejaVuSans-83"/>
      <use x="1250.830078" xlink:href="#DejaVuSans-73"/>
      <use x="1280.322266" xlink:href="#DejaVuSans-83"/>
     </g>
    </g>
   </g>
   <g id="text_14">
    <g clip-path="url(#p78e9f1ee6d)">
     <!-- HALLMARK_ALLOGRAFT_REJECTION -->
     <defs>
      <path d="M -0.296875 72.90625 
L 61.375 72.90625 
L 61.375 64.59375 
L 35.5 64.59375 
L 35.5 0 
L 25.59375 0 
L 25.59375 64.59375 
L -0.296875 64.59375 
z
" id="DejaVuSans-84"/>
      <path d="M 9.8125 72.90625 
L 19.671875 72.90625 
L 19.671875 5.078125 
Q 19.671875 -8.109375 14.671875 -14.0625 
Q 9.671875 -20.015625 -1.421875 -20.015625 
L -5.171875 -20.015625 
L -5.171875 -11.71875 
L -2.09375 -11.71875 
Q 4.4375 -11.71875 7.125 -8.046875 
Q 9.8125 -4.390625 9.8125 5.078125 
z
" id="DejaVuSans-74"/>
      <path d="M 64.40625 67.28125 
L 64.40625 56.890625 
Q 59.421875 61.53125 53.78125 63.8125 
Q 48.140625 66.109375 41.796875 66.109375 
Q 29.296875 66.109375 22.65625 58.46875 
Q 16.015625 50.828125 16.015625 36.375 
Q 16.015625 21.96875 22.65625 14.328125 
Q 29.296875 6.6875 41.796875 6.6875 
Q 48.140625 6.6875 53.78125 8.984375 
Q 59.421875 11.28125 64.40625 15.921875 
L 64.40625 5.609375 
Q 59.234375 2.09375 53.4375 0.328125 
Q 47.65625 -1.421875 41.21875 -1.421875 
Q 24.65625 -1.421875 15.125 8.703125 
Q 5.609375 18.84375 5.609375 36.375 
Q 5.609375 53.953125 15.125 64.078125 
Q 24.65625 74.21875 41.21875 74.21875 
Q 47.75 74.21875 53.53125 72.484375 
Q 59.328125 70.75 64.40625 67.28125 
z
" id="DejaVuSans-67"/>
     </defs>
     <g transform="translate(66.827507 41.327456)scale(0.05 -0.05)">
      <use xlink:href="#DejaVuSans-72"/>
      <use x="75.195312" xlink:href="#DejaVuSans-65"/>
      <use x="143.603516" xlink:href="#DejaVuSans-76"/>
      <use x="199.316406" xlink:href="#DejaVuSans-76"/>
      <use x="255.029297" xlink:href="#DejaVuSans-77"/>
      <use x="341.308594" xlink:href="#DejaVuSans-65"/>
      <use x="409.716797" xlink:href="#DejaVuSans-82"/>
      <use x="479.199219" xlink:href="#DejaVuSans-75"/>
      <use x="544.775391" xlink:href="#DejaVuSans-95"/>
      <use x="594.775391" xlink:href="#DejaVuSans-65"/>
      <use x="663.183594" xlink:href="#DejaVuSans-76"/>
      <use x="718.896484" xlink:href="#DejaVuSans-76"/>
      <use x="774.5625" xlink:href="#DejaVuSans-79"/>
      <use x="853.273438" xlink:href="#DejaVuSans-71"/>
      <use x="930.763672" xlink:href="#DejaVuSans-82"/>
      <use x="1000.183594" xlink:href="#DejaVuSans-65"/>
      <use x="1068.591797" xlink:href="#DejaVuSans-70"/>
      <use x="1126.095703" xlink:href="#DejaVuSans-84"/>
      <use x="1187.179688" xlink:href="#DejaVuSans-95"/>
      <use x="1237.179688" xlink:href="#DejaVuSans-82"/>
      <use x="1306.662109" xlink:href="#DejaVuSans-69"/>
      <use x="1369.845703" xlink:href="#DejaVuSans-74"/>
      <use x="1399.337891" xlink:href="#DejaVuSans-69"/>
      <use x="1462.521484" xlink:href="#DejaVuSans-67"/>
      <use x="1532.345703" xlink:href="#DejaVuSans-84"/>
      <use x="1593.429688" xlink:href="#DejaVuSans-73"/>
      <use x="1622.921875" xlink:href="#DejaVuSans-79"/>
      <use x="1701.632812" xlink:href="#DejaVuSans-78"/>
     </g>
    </g>
   </g>
   <g id="text_15">
    <g clip-path="url(#p78e9f1ee6d)">
     <!-- HALLMARK_ANDROGEN_RESPONSE -->
     <g transform="translate(66.855341 46.264599)scale(0.05 -0.05)">
      <use xlink:href="#DejaVuSans-72"/>
      <use x="75.195312" xlink:href="#DejaVuSans-65"/>
      <use x="143.603516" xlink:href="#DejaVuSans-76"/>
      <use x="199.316406" xlink:href="#DejaVuSans-76"/>
      <use x="255.029297" xlink:href="#DejaVuSans-77"/>
      <use x="341.308594" xlink:href="#DejaVuSans-65"/>
      <use x="409.716797" xlink:href="#DejaVuSans-82"/>
      <use x="479.199219" xlink:href="#DejaVuSans-75"/>
      <use x="544.775391" xlink:href="#DejaVuSans-95"/>
      <use x="594.775391" xlink:href="#DejaVuSans-65"/>
      <use x="663.183594" xlink:href="#DejaVuSans-78"/>
      <use x="737.988281" xlink:href="#DejaVuSans-68"/>
      <use x="814.990234" xlink:href="#DejaVuSans-82"/>
      <use x="884.472656" xlink:href="#DejaVuSans-79"/>
      <use x="963.183594" xlink:href="#DejaVuSans-71"/>
      <use x="1040.673828" xlink:href="#DejaVuSans-69"/>
      <use x="1103.857422" xlink:href="#DejaVuSans-78"/>
      <use x="1178.662109" xlink:href="#DejaVuSans-95"/>
      <use x="1228.662109" xlink:href="#DejaVuSans-82"/>
      <use x="1298.144531" xlink:href="#DejaVuSans-69"/>
      <use x="1361.328125" xlink:href="#DejaVuSans-83"/>
      <use x="1424.804688" xlink:href="#DejaVuSans-80"/>
      <use x="1485.107422" xlink:href="#DejaVuSans-79"/>
      <use x="1563.818359" xlink:href="#DejaVuSans-78"/>
      <use x="1638.623047" xlink:href="#DejaVuSans-83"/>
      <use x="1702.099609" xlink:href="#DejaVuSans-69"/>
     </g>
    </g>
   </g>
   <g id="text_16">
    <g clip-path="url(#p78e9f1ee6d)">
     <!-- HALLMARK_ANGIOGENESIS -->
     <g transform="translate(66.870983 51.201742)scale(0.05 -0.05)">
      <use xlink:href="#DejaVuSans-72"/>
      <use x="75.195312" xlink:href="#DejaVuSans-65"/>
      <use x="143.603516" xlink:href="#DejaVuSans-76"/>
      <use x="199.316406" xlink:href="#DejaVuSans-76"/>
      <use x="255.029297" xlink:href="#DejaVuSans-77"/>
      <use x="341.308594" xlink:href="#DejaVuSans-65"/>
      <use x="409.716797" xlink:href="#DejaVuSans-82"/>
      <use x="479.199219" xlink:href="#DejaVuSans-75"/>
      <use x="544.775391" xlink:href="#DejaVuSans-95"/>
      <use x="594.775391" xlink:href="#DejaVuSans-65"/>
      <use x="663.183594" xlink:href="#DejaVuSans-78"/>
      <use x="737.988281" xlink:href="#DejaVuSans-71"/>
      <use x="815.478516" xlink:href="#DejaVuSans-73"/>
      <use x="844.970703" xlink:href="#DejaVuSans-79"/>
      <use x="923.681641" xlink:href="#DejaVuSans-71"/>
      <use x="1001.171875" xlink:href="#DejaVuSans-69"/>
      <use x="1064.355469" xlink:href="#DejaVuSans-78"/>
      <use x="1139.160156" xlink:href="#DejaVuSans-69"/>
      <use x="1202.34375" xlink:href="#DejaVuSans-83"/>
      <use x="1265.820312" xlink:href="#DejaVuSans-73"/>
      <use x="1295.3125" xlink:href="#DejaVuSans-83"/>
     </g>
    </g>
   </g>
   <g id="text_17">
    <g clip-path="url(#p78e9f1ee6d)">
     <!-- HALLMARK_APICAL_JUNCTION -->
     <defs>
      <path d="M 8.6875 72.90625 
L 18.609375 72.90625 
L 18.609375 28.609375 
Q 18.609375 16.890625 22.84375 11.734375 
Q 27.09375 6.59375 36.625 6.59375 
Q 46.09375 6.59375 50.34375 11.734375 
Q 54.59375 16.890625 54.59375 28.609375 
L 54.59375 72.90625 
L 64.5 72.90625 
L 64.5 27.390625 
Q 64.5 13.140625 57.4375 5.859375 
Q 50.390625 -1.421875 36.625 -1.421875 
Q 22.796875 -1.421875 15.734375 5.859375 
Q 8.6875 13.140625 8.6875 27.390625 
z
" id="DejaVuSans-85"/>
     </defs>
     <g transform="translate(66.960512 56.138885)scale(0.05 -0.05)">
      <use xlink:href="#DejaVuSans-72"/>
      <use x="75.195312" xlink:href="#DejaVuSans-65"/>
      <use x="143.603516" xlink:href="#DejaVuSans-76"/>
      <use x="199.316406" xlink:href="#DejaVuSans-76"/>
      <use x="255.029297" xlink:href="#DejaVuSans-77"/>
      <use x="341.308594" xlink:href="#DejaVuSans-65"/>
      <use x="409.716797" xlink:href="#DejaVuSans-82"/>
      <use x="479.199219" xlink:href="#DejaVuSans-75"/>
      <use x="544.775391" xlink:href="#DejaVuSans-95"/>
      <use x="594.775391" xlink:href="#DejaVuSans-65"/>
      <use x="663.183594" xlink:href="#DejaVuSans-80"/>
      <use x="723.486328" xlink:href="#DejaVuSans-73"/>
      <use x="752.978516" xlink:href="#DejaVuSans-67"/>
      <use x="822.802734" xlink:href="#DejaVuSans-65"/>
      <use x="891.210938" xlink:href="#DejaVuSans-76"/>
      <use x="946.923828" xlink:href="#DejaVuSans-95"/>
      <use x="996.923828" xlink:href="#DejaVuSans-74"/>
      <use x="1026.416016" xlink:href="#DejaVuSans-85"/>
      <use x="1099.609375" xlink:href="#DejaVuSans-78"/>
      <use x="1174.414062" xlink:href="#DejaVuSans-67"/>
      <use x="1244.238281" xlink:href="#DejaVuSans-84"/>
      <use x="1305.322266" xlink:href="#DejaVuSans-73"/>
      <use x="1334.814453" xlink:href="#DejaVuSans-79"/>
      <use x="1413.525391" xlink:href="#DejaVuSans-78"/>
     </g>
    </g>
   </g>
  </g>
  <g id="text_18">
   <!-- CAMERA pathway statistics vs ranking -->
   <defs>
    <path d="M 18.109375 8.203125 
L 18.109375 -20.796875 
L 9.078125 -20.796875 
L 9.078125 54.6875 
L 18.109375 54.6875 
L 18.109375 46.390625 
Q 20.953125 51.265625 25.265625 53.625 
Q 29.59375 56 35.59375 56 
Q 45.5625 56 51.78125 48.09375 
Q 58.015625 40.1875 58.015625 27.296875 
Q 58.015625 14.40625 51.78125 6.484375 
Q 45.5625 -1.421875 35.59375 -1.421875 
Q 29.59375 -1.421875 25.265625 0.953125 
Q 20.953125 3.328125 18.109375 8.203125 
z
M 48.6875 27.296875 
Q 48.6875 37.203125 44.609375 42.84375 
Q 40.53125 48.484375 33.40625 48.484375 
Q 26.265625 48.484375 22.1875 42.84375 
Q 18.109375 37.203125 18.109375 27.296875 
Q 18.109375 17.390625 22.1875 11.75 
Q 26.265625 6.109375 33.40625 6.109375 
Q 40.53125 6.109375 44.609375 11.75 
Q 48.6875 17.390625 48.6875 27.296875 
z
" id="DejaVuSans-112"/>
    <path d="M 54.890625 33.015625 
L 54.890625 0 
L 45.90625 0 
L 45.90625 32.71875 
Q 45.90625 40.484375 42.875 44.328125 
Q 39.84375 48.1875 33.796875 48.1875 
Q 26.515625 48.1875 22.3125 43.546875 
Q 18.109375 38.921875 18.109375 30.90625 
L 18.109375 0 
L 9.078125 0 
L 9.078125 75.984375 
L 18.109375 75.984375 
L 18.109375 46.1875 
Q 21.34375 51.125 25.703125 53.5625 
Q 30.078125 56 35.796875 56 
Q 45.21875 56 50.046875 50.171875 
Q 54.890625 44.34375 54.890625 33.015625 
z
" id="DejaVuSans-104"/>
    <path d="M 4.203125 54.6875 
L 13.1875 54.6875 
L 24.421875 12.015625 
L 35.59375 54.6875 
L 46.1875 54.6875 
L 57.421875 12.015625 
L 68.609375 54.6875 
L 77.59375 54.6875 
L 63.28125 0 
L 52.6875 0 
L 40.921875 44.828125 
L 29.109375 0 
L 18.5 0 
z
" id="DejaVuSans-119"/>
    <path d="M 32.171875 -5.078125 
Q 28.375 -14.84375 24.75 -17.8125 
Q 21.140625 -20.796875 15.09375 -20.796875 
L 7.90625 -20.796875 
L 7.90625 -13.28125 
L 13.1875 -13.28125 
Q 16.890625 -13.28125 18.9375 -11.515625 
Q 21 -9.765625 23.484375 -3.21875 
L 25.09375 0.875 
L 2.984375 54.6875 
L 12.5 54.6875 
L 29.59375 11.921875 
L 46.6875 54.6875 
L 56.203125 54.6875 
z
" id="DejaVuSans-121"/>
    <path d="M 44.28125 53.078125 
L 44.28125 44.578125 
Q 40.484375 46.53125 36.375 47.5 
Q 32.28125 48.484375 27.875 48.484375 
Q 21.1875 48.484375 17.84375 46.4375 
Q 14.5 44.390625 14.5 40.28125 
Q 14.5 37.15625 16.890625 35.375 
Q 19.28125 33.59375 26.515625 31.984375 
L 29.59375 31.296875 
Q 39.15625 29.25 43.1875 25.515625 
Q 47.21875 21.78125 47.21875 15.09375 
Q 47.21875 7.46875 41.1875 3.015625 
Q 35.15625 -1.421875 24.609375 -1.421875 
Q 20.21875 -1.421875 15.453125 -0.5625 
Q 10.6875 0.296875 5.421875 2 
L 5.421875 11.28125 
Q 10.40625 8.6875 15.234375 7.390625 
Q 20.0625 6.109375 24.8125 6.109375 
Q 31.15625 6.109375 34.5625 8.28125 
Q 37.984375 10.453125 37.984375 14.40625 
Q 37.984375 18.0625 35.515625 20.015625 
Q 33.0625 21.96875 24.703125 23.78125 
L 21.578125 24.515625 
Q 13.234375 26.265625 9.515625 29.90625 
Q 5.8125 33.546875 5.8125 39.890625 
Q 5.8125 47.609375 11.28125 51.796875 
Q 16.75 56 26.8125 56 
Q 31.78125 56 36.171875 55.265625 
Q 40.578125 54.546875 44.28125 53.078125 
z
" id="DejaVuSans-115"/>
    <path d="M 2.984375 54.6875 
L 12.5 54.6875 
L 29.59375 8.796875 
L 46.6875 54.6875 
L 56.203125 54.6875 
L 35.6875 0 
L 23.484375 0 
z
" id="DejaVuSans-118"/>
   </defs>
   <g transform="translate(79.56875 11.397656)scale(0.15 -0.15)">
    <use xlink:href="#DejaVuSans-67"/>
    <use x="69.824219" xlink:href="#DejaVuSans-65"/>
    <use x="138.232422" xlink:href="#DejaVuSans-77"/>
    <use x="224.511719" xlink:href="#DejaVuSans-69"/>
    <use x="287.695312" xlink:href="#DejaVuSans-82"/>
    <use x="357.115234" xlink:href="#DejaVuSans-65"/>
    <use x="425.523438" xlink:href="#DejaVuSans-32"/>
    <use x="457.310547" xlink:href="#DejaVuSans-112"/>
    <use x="520.787109" xlink:href="#DejaVuSans-97"/>
    <use x="582.066406" xlink:href="#DejaVuSans-116"/>
    <use x="621.275391" xlink:href="#DejaVuSans-104"/>
    <use x="684.654297" xlink:href="#DejaVuSans-119"/>
    <use x="766.441406" xlink:href="#DejaVuSans-97"/>
    <use x="827.720703" xlink:href="#DejaVuSans-121"/>
    <use x="886.900391" xlink:href="#DejaVuSans-32"/>
    <use x="918.6875" xlink:href="#DejaVuSans-115"/>
    <use x="970.787109" xlink:href="#DejaVuSans-116"/>
    <use x="1009.996094" xlink:href="#DejaVuSans-97"/>
    <use x="1071.275391" xlink:href="#DejaVuSans-116"/>
    <use x="1110.484375" xlink:href="#DejaVuSans-105"/>
    <use x="1138.267578" xlink:href="#DejaVuSans-115"/>
    <use x="1190.367188" xlink:href="#DejaVuSans-116"/>
    <use x="1229.576172" xlink:href="#DejaVuSans-105"/>
    <use x="1257.359375" xlink:href="#DejaVuSans-99"/>
    <use x="1312.339844" xlink:href="#DejaVuSans-115"/>
    <use x="1364.439453" xlink:href="#DejaVuSans-32"/>
    <use x="1396.226562" xlink:href="#DejaVuSans-118"/>
    <use x="1455.40625" xlink:href="#DejaVuSans-115"/>
    <use x="1507.505859" xlink:href="#DejaVuSans-32"/>
    <use x="1539.292969" xlink:href="#DejaVuSans-114"/>
    <use x="1580.40625" xlink:href="#DejaVuSans-97"/>
    <use x="1641.685547" xlink:href="#DejaVuSans-110"/>
    <use x="1705.064453" xlink:href="#DejaVuSans-107"/>
    <use x="1762.974609" xlink:href="#DejaVuSans-105"/>
    <use x="1790.757812" xlink:href="#DejaVuSans-110"/>
    <use x="1854.136719" xlink:href="#DejaVuSans-103"/>
   </g>
  </g>
 </g>
 <defs>
  <clipPath id="p78e9f1ee6d">
   <rect height="266.112" width="357.12" x="50.585938" y="20.583376"/>
  </clipPath>
 </defs>
</svg>
