<?xml version="1.0" encoding="utf-8" standalone="no"?>
<!DOCTYPE svg PUBLIC "-//W3C//DTD SVG 1.1//EN"
  "http://www.w3.org/Graphics/SVG/1.1/DTD/svg11.dtd">
<!-- Created with matplotlib (https://matplotlib.org/) -->
<svg height="322.176313pt" version="1.1" viewBox="0 0 406.642188 322.176313" width="406.642188pt" xmlns="http://www.w3.org/2000/svg" xmlns:xlink="http://www.w3.org/1999/xlink">
 <defs>
  <style type="text/css">
*{stroke-linecap:butt;stroke-linejoin:round;}
  </style>
 </defs>
 <g id="figure_1">
  <g id="patch_1">
   <path d="M 0 322.176313
L 406.642188 322.176313
L 406.642188 0
L 0 0
z
" style="fill:#ffffff;stroke:#ffffff;stroke-linejoin:miter;"/>
  </g>
  <g id="axes_1">
   <g id="patch_2">
    <path d="M 46.772188 286.695376
L 403.892188 286.695376
L 403.892188 20.583376
L 46.772188 20.583376
z
" style="fill:none;"/>
   </g>
   <g id="matplotlib.axis_1">
    <g id="xtick_1">
     <g id="line2d_1">
      <path clip-path="url(#pe181a0f719)" d="M 63.004915 286.695376
L 63.004915 20.583376
" style="fill:none;stroke:#e5e5e5;stroke-width:0.8;"/>
     </g>
     <g id="line2d_2">
      <path d="M 63.004915 286.695376
" style="fill:none;stroke:#000000;stroke-width:1.5;"/>
      <defs>
       <path d="M 0 0
L 0 2.75
" id="mbec4f9a31e" style="stroke:#000000;"/>
      </defs>
      <g>
       <use style="stroke:#000000;" x="63.004915" xlink:href="#mbec4f9a31e" y="286.695376"/>
      </g>
     </g>
     <g id="text_1">
      <!-- 0 -->
      <defs>
       <path d="M 31.78125 66.40625
Q 24.171875 66.40625 20.328125 58.90625
Q 16.5 51.421875 16.5 36.375
Q 16.5 21.390625 20.328125 13.890625
Q 24.171875 6.390625 31.78125 6.390625
Q 39.453125 6.390625 43.28125 13.890625
Q 47.125 21.390625 47.125 36.375
Q 47.125 51.421875 43.28125 58.90625
Q 39.453125 66.40625 31.78125 66.40625
z
M 31.78125 74.21875
Q 44.046875 74.21875 50.515625 64.515625
Q 56.984375 54.828125 56.984375 36.375
Q 56.984375 17.96875 50.515625 8.265625
Q 44.046875 -1.421875 31.78125 -1.421875
Q 19.53125 -1.421875 13.0625 8.265625
Q 6.59375 17.96875 6.59375 36.375
Q 6.59375 54.828125 13.0625 64.515625
Q 19.53125 74.21875 31.78125 74.21875
z
" id="DejaVuSans-48"/>
      </defs>
      <g style="fill:#4d4d4d;" transform="translate(59.187415 300.763501)scale(0.12 -0.12)">
       <use xlink:href="#DejaVuSans-48"/>
      </g>
     </g>
    </g>
    <g id="xtick_2">
     <g id="line2d_3">
      <path clip-path="url(#pe181a0f719)" d="M 144.168551 286.695376
L 144.168551 20.583376
" style="fill:none;stroke:#e5e5e5;stroke-width:0.8;"/>
     </g>
     <g id="line2d_4">
      <path d="M 144.168551 286.695376
" style="fill:none;stroke:#000000;stroke-width:1.5;"/>
      <g>
       <use style="stroke:#000000;" x="144.168551" xlink:href="#mbec4f9a31e" y="286.695376"/>
      </g>
     </g>
     <g id="text_2">
      <!-- 25 -->
      <defs>
       <path d="M 19.1875 8.296875
L 53.609375 8.296875
L 53.609375 0
L 7.328125 0
L 7.328125 8.296875
Q 12.9375 14.109375 22.625 23.890625
Q 32.328125 33.6875 34.8125 36.53125
Q 39.546875 41.84375 41.421875 45.53125
Q 43.3125 49.21875 43.3125 52.78125
Q 43.3125 58.59375 39.234375 62.25
Q 35.15625 65.921875 28.609375 65.921875
Q 23.96875 65.921875 18.8125 64.3125
Q 13.671875 62.703125 7.8125 59.421875
L 7.8125 69.390625
Q 13.765625 71.78125 18.9375 73
Q 24.125 74.21875 28.421875 74.21875
Q 39.75 74.21875 46.484375 68.546875
Q 53.21875 62.890625 53.21875 53.421875
Q 53.21875 48.921875 51.53125 44.890625
Q 49.859375 40.875 45.40625 35.40625
Q 44.1875 33.984375 37.640625 27.21875
Q 31.109375 20.453125 19.1875 8.296875
z
" id="DejaVuSans-50"/>
       <path d="M 10.796875 72.90625
L 49.515625 72.90625
L 49.515625 64.59375
L 19.828125 64.59375
L 19.828125 46.734375
Q 21.96875 47.46875 24.109375 47.828125
Q 26.265625 48.1875 28.421875 48.1875
Q 40.625 48.1875 47.75 41.5
Q 54.890625 34.8125 54.890625 23.390625
Q 54.890625 11.625 47.5625 5.09375
Q 40.234375 -1.421875 26.90625 -1.421875
Q 22.3125 -1.421875 17.546875 -0.640625
Q 12.796875 0.140625 7.71875 1.703125
L 7.71875 11.625
Q 12.109375 9.234375 16.796875 8.0625
Q 21.484375 6.890625 26.703125 6.890625
Q 35.15625 6.890625 40.078125 11.328125
Q 45.015625 15.765625 45.015625 23.390625
Q 45.015625 31 40.078125 35.4375
Q 35.15625 39.890625 26.703125 39.890625
Q 22.75 39.890625 18.8125 39.015625
Q 14.890625 38.140625 10.796875 36.28125
z
" id="DejaVuSans-53"/>
      </defs>
      <g style="fill:#4d4d4d;" transform="translate(136.533551 300.763501)scale(0.12 -0.12)">
       <use xlink:href="#DejaVuSans-50"/>
       <use x="63.623047" xlink:href="#DejaVuSans-53"/>
      </g>
     </g>
    </g>
    <g id="xtick_3">
     <g id="line2d_5">
      <path clip-path="url(#pe181a0f719)" d="M 225.332188 286.695376
L 225.332188 20.583376
" style="fill:none;stroke:#e5e5e5;stroke-width:0.8;"/>
     </g>
     <g id="line2d_6">
      <path d="M 225.332188 286.695376
" style="fill:none;stroke:#000000;stroke-width:1.5;"/>
      <g>
       <use style="stroke:#000000;" x="225.332188" xlink:href="#mbec4f9a31e" y="286.695376"/>
      </g>
     </g>
     <g id="text_3">
      <!-- 50 -->
      <g style="fill:#4d4d4d;" transform="translate(217.697188 300.763501)scale(0.12 -0.12)">
       <use xlink:href="#DejaVuSans-53"/>
       <use x="63.623047" xlink:href="#DejaVuSans-48"/>
      </g>
     </g>
    </g>
    <g id="xtick_4">
     <g id="line2d_7">
      <path clip-path="url(#pe181a0f719)" d="M 306.495824 286.695376
L 306.495824 20.583376
" style="fill:none;stroke:#e5e5e5;stroke-width:0.8;"/>
     </g>
     <g id="line2d_8">
      <path d="M 306.495824 286.695376
" style="fill:none;stroke:#000000;stroke-width:1.5;"/>
      <g>
       <use style="stroke:#000000;" x="306.495824" xlink:href="#mbec4f9a31e" y="286.695376"/>
      </g>
     </g>
     <g id="text_4">
      <!-- 75 -->
      <defs>
       <path d="M 8.203125 72.90625
L 55.078125 72.90625
L 55.078125 68.703125
L 28.609375 0
L 18.3125 0
L 43.21875 64.59375
L 8.203125 64.59375
z
" id="DejaVuSans-55"/>
      </defs>
      <g style="fill:#4d4d4d;" transform="translate(298.860824 300.763501)scale(0.12 -0.12)">
       <use xlink:href="#DejaVuSans-55"/>
       <use x="63.623047" xlink:href="#DejaVuSans-53"/>
      </g>
     </g>
    </g>
    <g id="xtick_5">
     <g id="line2d_9">
      <path clip-path="url(#pe181a0f719)" d="M 387.65946 286.695376
L 387.65946 20.583376
" style="fill:none;stroke:#e5e5e5;stroke-width:0.8;"/>
     </g>
     <g id="line2d_10">
      <path d="M 387.65946 286.695376
" style="fill:none;stroke:#000000;stroke-width:1.5;"/>
      <g>
       <use style="stroke:#000000;" x="387.65946" xlink:href="#mbec4f9a31e" y="286.695376"/>
      </g>
     </g>
     <g id="text_5">
      <!-- 100 -->
      <defs>
       <path d="M 12.40625 8.296875
L 28.515625 8.296875
L 28.515625 63.921875
L 10.984375 60.40625
L 10.984375 69.390625
L 28.421875 72.90625
L 38.28125 72.90625
L 38.28125 8.296875
L 54.390625 8.296875
L 54.390625 0
L 12.40625 0
z
" id="DejaVuSans-49"/>
      </defs>
      <g style="fill:#4d4d4d;" transform="translate(376.20696 300.763501)scale(0.12 -0.12)">
       <use xlink:href="#DejaVuSans-49"/>
       <use x="63.623047" xlink:href="#DejaVuSans-48"/>
       <use x="127.246094" xlink:href="#DejaVuSans-48"/>
      </g>
     </g>
    </g>
    <g id="xtick_6">
     <g id="line2d_11">
      <path clip-path="url(#pe181a0f719)" d="M 103.586733 286.695376
L 103.586733 20.583376
" style="fill:none;stroke:#fafafa;"/>
     </g>
     <g id="line2d_12">
      <path d="M 103.586733 286.695376
" style="fill:none;stroke:#000000;stroke-width:1.5;"/>
     </g>
    </g>
    <g id="xtick_7">
     <g id="line2d_13">
      <path clip-path="url(#pe181a0f719)" d="M 184.750369 286.695376
L 184.750369 20.583376
" style="fill:none;stroke:#fafafa;"/>
     </g>
     <g id="line2d_14">
      <path d="M 184.750369 286.695376
" style="fill:none;stroke:#000000;stroke-width:1.5;"/>
     </g>
    </g>
    <g id="xtick_8">
     <g id="line2d_15">
      <path clip-path="url(#pe181a0f719)" d="M 265.914006 286.695376
L 265.914006 20.583376
" style="fill:none;stroke:#fafafa;"/>
     </g>
     <g id="line2d_16">
      <path d="M 265.914006 286.695376
" style="fill:none;stroke:#000000;stroke-width:1.5;"/>
     </g>
    </g>
    <g id="xtick_9">
     <g id="line2d_17">
      <path clip-path="url(#pe181a0f719)" d="M 347.077642 286.695376
L 347.077642 20.583376
" style="fill:none;stroke:#fafafa;"/>
     </g>
     <g id="line2d_18">
      <path d="M 347.077642 286.695376
" style="fill:none;stroke:#000000;stroke-width:1.5;"/>
     </g>
    </g>
    <g id="text_6">
     <!-- GSEA pathway ranking -->
     <defs>
      <path d="M 59.515625 10.40625
L 59.515625 29.984375
L 43.40625 29.984375
L 43.40625 38.09375
L 69.28125 38.09375
L 69.28125 6.78125
Q 63.578125 2.734375 56.6875 0.65625
Q 49.8125 -1.421875 42 -1.421875
Q 24.90625 -1.421875 15.25 8.5625
Q 5.609375 18.5625 5.609375 36.375
Q 5.609375 54.25 15.25 64.234375
Q 24.90625 74.21875 42 74.21875
Q 49.125 74.21875 55.546875 72.453125
Q 61.96875 70.703125 67.390625 67.28125
L 67.390625 56.78125
Q 61.921875 61.421875 55.765625 63.765625
Q 49.609375 66.109375 42.828125 66.109375
Q 29.4375 66.109375 22.71875 58.640625
Q 16.015625 51.171875 16.015625 36.375
Q 16.015625 21.625 22.71875 14.15625
Q 29.4375 6.6875 42.828125 6.6875
Q 48.046875 6.6875 52.140625 7.59375
Q 56.25 8.5 59.515625 10.40625
z
" id="DejaVuSans-71"/>
      <path d="M 53.515625 70.515625
L 53.515625 60.890625
Q 47.90625 63.578125 42.921875 64.890625
Q 37.9375 66.21875 33.296875 66.21875
Q 25.25 66.21875 20.875 63.09375
Q 16.5 59.96875 16.5 54.203125
Q 16.5 49.359375 19.40625 46.890625
Q 22.3125 44.4375 30.421875 42.921875
L 36.375 41.703125
Q 47.40625 39.59375 52.65625 34.296875
Q 57.90625 29 57.90625 20.125
Q 57.90625 9.515625 50.796875 4.046875
Q 43.703125 -1.421875 29.984375 -1.421875
Q 24.8125 -1.421875 18.96875 -0.25
Q 13.140625 0.921875 6.890625 3.21875
L 6.890625 13.375
Q 12.890625 10.015625 18.65625 8.296875
Q 24.421875 6.59375 29.984375 6.59375
Q 38.421875 6.59375 43.015625 9.90625
Q 47.609375 13.234375 47.609375 19.390625
Q 47.609375 24.75 44.3125 27.78125
Q 41.015625 30.8125 33.5 32.328125
L 27.484375 33.5
Q 16.453125 35.6875 11.515625 40.375
Q 6.59375 45.0625 6.59375 53.421875
Q 6.59375 63.09375 13.40625 68.65625
Q 20.21875 74.21875 32.171875 74.21875
Q 37.3125 74.21875 42.625 73.28125
Q 47.953125 72.359375 53.515625 70.515625
z
" id="DejaVuSans-83"/>
      <path d="M 9.8125 72.90625
L 55.90625 72.90625
L 55.90625 64.59375
L 19.671875 64.59375
L 19.671875 43.015625
L 54.390625 43.015625
L 54.390625 34.71875
L 19.671875 34.71875
L 19.671875 8.296875
L 56.78125 8.296875
L 56.78125 0
L 9.8125 0
z
" id="DejaVuSans-69"/>
      <path d="M 34.1875 63.1875
L 20.796875 26.90625
L 47.609375 26.90625
z
M 28.609375 72.90625
L 39.796875 72.90625
L 67.578125 0
L 57.328125 0
L 50.6875 18.703125
L 17.828125 18.703125
L 11.1875 0
L 0.78125 0
z
" id="DejaVuSans-65"/>
      <path id="DejaVuSans-32"/>
      <path d="M 18.109375 8.203125
L 18.109375 -20.796875
L 9.078125 -20.796875
L 9.078125 54.6875
L 18.109375 54.6875
L 18.109375 46.390625
Q 20.953125 51.265625 25.265625 53.625
Q 29.59375 56 35.59375 56
Q 45.5625 56 51.78125 48.09375
Q 58.015625 40.1875 58.015625 27.296875
Q 58.015625 14.40625 51.78125 6.484375
Q 45.5625 -1.421875 35.59375 -1.421875
Q 29.59375 -1.421875 25.265625 0.953125
Q 20.953125 3.328125 18.109375 8.203125
z
M 48.6875 27.296875
Q 48.6875 37.203125 44.609375 42.84375
Q 40.53125 48.484375 33.40625 48.484375
Q 26.265625 48.484375 22.1875 42.84375
Q 18.109375 37.203125 18.109375 27.296875
Q 18.109375 17.390625 22.1875 11.75
Q 26.265625 6.109375 33.40625 6.109375
Q 40.53125 6.109375 44.609375 11.75
Q 48.6875 17.390625 48.6875 27.296875
z
" id="DejaVuSans-112"/>
      <path d="M 34.28125 27.484375
Q 23.390625 27.484375 19.1875 25
Q 14.984375 22.515625 14.984375 16.5
Q 14.984375 11.71875 18.140625 8.90625
Q 21.296875 6.109375 26.703125 6.109375
Q 34.1875 6.109375 38.703125 11.40625
Q 43.21875 16.703125 43.21875 25.484375
L 43.21875 27.484375
z
M 52.203125 31.203125
L 52.203125 0
L 43.21875 0
L 43.21875 8.296875
Q 40.140625 3.328125 35.546875 0.953125
Q 30.953125 -1.421875 24.3125 -1.421875
Q 15.921875 -1.421875 10.953125 3.296875
Q 6 8.015625 6 15.921875
Q 6 25.140625 12.171875 29.828125
Q 18.359375 34.515625 30.609375 34.515625
L 43.21875 34.515625
L 43.21875 35.40625
Q 43.21875 41.609375 39.140625 45
Q 35.0625 48.390625 27.6875 48.390625
Q 23 48.390625 18.546875 47.265625
Q 14.109375 46.140625 10.015625 43.890625
L 10.015625 52.203125
Q 14.9375 54.109375 19.578125 55.046875
Q 24.21875 56 28.609375 56
Q 40.484375 56 46.34375 49.84375
Q 52.203125 43.703125 52.203125 31.203125
z
" id="DejaVuSans-97"/>
      <path d="M 18.3125 70.21875
L 18.3125 54.6875
L 36.8125 54.6875
L 36.8125 47.703125
L 18.3125 47.703125
L 18.3125 18.015625
Q 18.3125 11.328125 20.140625 9.421875
Q 21.96875 7.515625 27.59375 7.515625
L 36.8125 7.515625
L 36.8125 0
L 27.59375 0
Q 17.1875 0 13.234375 3.875
Q 9.28125 7.765625 9.28125 18.015625
L 9.28125 47.703125
L 2.6875 47.703125
L 2.6875 54.6875
L 9.28125 54.6875
L 9.28125 70.21875
z
" id="DejaVuSans-116"/>
      <path d="M 54.890625 33.015625
L 54.890625 0
L 45.90625 0
L 45.90625 32.71875
Q 45.90625 40.484375 42.875 44.328125
Q 39.84375 48.1875 33.796875 48.1875
Q 26.515625 48.1875 22.3125 43.546875
Q 18.109375 38.921875 18.109375 30.90625
L 18.109375 0
L 9.078125 0
L 9.078125 75.984375
L 18.109375 75.984375
L 18.109375 46.1875
Q 21.34375 51.125 25.703125 53.5625
Q 30.078125 56 35.796875 56
Q 45.21875 56 50.046875 50.171875
Q 54.890625 44.34375 54.890625 33.015625
z
" id="DejaVuSans-104"/>
      <path d="M 4.203125 54.6875
L 13.1875 54.6875
L 24.421875 12.015625
L 35.59375 54.6875
L 46.1875 54.6875
L 57.421875 12.015625
L 68.609375 54.6875
L 77.59375 54.6875
L 63.28125 0
L 52.6875 0
L 40.921875 44.828125
L 29.109375 0
L 18.5 0
z
" id="DejaVuSans-119"/>
      <path d="M 32.171875 -5.078125
Q 28.375 -14.84375 24.75 -17.8125
Q 21.140625 -20.796875 15.09375 -20.796875
L 7.90625 -20.796875
L 7.90625 -13.28125
L 13.1875 -13.28125
Q 16.890625 -13.28125 18.9375 -11.515625
Q 21 -9.765625 23.484375 -3.21875
L 25.09375 0.875
L 2.984375 54.6875
L 12.5 54.6875
L 29.59375 11.921875
L 46.6875 54.6875
L 56.203125 54.6875
z
" id="DejaVuSans-121"/>
      <path d="M 41.109375 46.296875
Q 39.59375 47.171875 37.8125 47.578125
Q 36.03125 48 33.890625 48
Q 26.265625 48 22.1875 43.046875
Q 18.109375 38.09375 18.109375 28.8125
L 18.109375 0
L 9.078125 0
L 9.078125 54.6875
L 18.109375 54.6875
L 18.109375 46.1875
Q 20.953125 51.171875 25.484375 53.578125
Q 30.03125 56 36.53125 56
Q 37.453125 56 38.578125 55.875
Q 39.703125 55.765625 41.0625 55.515625
z
" id="DejaVuSans-114"/>
      <path d="M 54.890625 33.015625
L 54.890625 0
L 45.90625 0
L 45.90625 32.71875
Q 45.90625 40.484375 42.875 44.328125
Q 39.84375 48.1875 33.796875 48.1875
Q 26.515625 48.1875 22.3125 43.546875
Q 18.109375 38.921875 18.109375 30.90625
L 18.109375 0
L 9.078125 0
L 9.078125 54.6875
L 18.109375 54.6875
L 18.109375 46.1875
Q 21.34375 51.125 25.703125 53.5625
Q 30.078125 56 35.796875 56
Q 45.21875 56 50.046875 50.171875
Q 54.890625 44.34375 54.890625 33.015625
z
" id="DejaVuSans-110"/>
      <path d="M 9.078125 75.984375
L 18.109375 75.984375
L 18.109375 31.109375
L 44.921875 54.6875
L 56.390625 54.6875
L 27.390625 29.109375
L 57.625 0
L 45.90625 0
L 18.109375 26.703125
L 18.109375 0
L 9.078125 0
z
" id="DejaVuSans-107"/>
      <path d="M 9.421875 54.6875
L 18.40625 54.6875
L 18.40625 0
L 9.421875 0
z
M 9.421875 75.984375
L 18.40625 75.984375
L 18.40625 64.59375
L 9.421875 64.59375
z
" id="DejaVuSans-105"/>
      <path d="M 45.40625 27.984375
Q 45.40625 37.75 41.375 43.109375
Q 37.359375 48.484375 30.078125 48.484375
Q 22.859375 48.484375 18.828125 43.109375
Q 14.796875 37.75 14.796875 27.984375
Q 14.796875 18.265625 18.828125 12.890625
Q 22.859375 7.515625 30.078125 7.515625
Q 37.359375 7.515625 41.375 12.890625
Q 45.40625 18.265625 45.40625 27.984375
z
M 54.390625 6.78125
Q 54.390625 -7.171875 48.1875 -13.984375
Q 42 -20.796875 29.203125 -20.796875
Q 24.46875 -20.796875 20.265625 -20.09375
Q 16.0625 -19.390625 12.109375 -17.921875
L 12.109375 -9.1875
Q 16.0625 -11.328125 19.921875 -12.34375
Q 23.78125 -13.375 27.78125 -13.375
Q 36.625 -13.375 41.015625 -8.765625
Q 45.40625 -4.15625 45.40625 5.171875
L 45.40625 9.625
Q 42.625 4.78125 38.28125 2.390625
Q 33.9375 0 27.875 0
Q 17.828125 0 11.671875 7.65625
Q 5.515625 15.328125 5.515625 27.984375
Q 5.515625 40.671875 11.671875 48.328125
Q 17.828125 56 27.875 56
Q 33.9375 56 38.28125 53.609375
Q 42.625 51.21875 45.40625 46.390625
L 45.40625 54.6875
L 54.390625 54.6875
z
" id="DejaVuSans-103"/>
     </defs>
     <g transform="translate(133.769844 319.056782)scale(0.15 -0.15)">
      <use xlink:href="#DejaVuSans-71"/>
      <use x="77.490234" xlink:href="#DejaVuSans-83"/>
      <use x="140.966797" xlink:href="#DejaVuSans-69"/>
      <use x="204.150391" xlink:href="#DejaVuSans-65"/>
      <use x="272.558594" xlink:href="#DejaVuSans-32"/>
      <use x="304.345703" xlink:href="#DejaVuSans-112"/>
      <use x="367.822266" xlink:href="#DejaVuSans-97"/>
      <use x="429.101562" xlink:href="#DejaVuSans-116"/>
      <use x="468.310547" xlink:href="#DejaVuSans-104"/>
      <use x="531.689453" xlink:href="#DejaVuSans-119"/>
      <use x="613.476562" xlink:href="#DejaVuSans-97"/>
      <use x="674.755859" xlink:href="#DejaVuSans-121"/>
      <use x="733.935547" xlink:href="#DejaVuSans-32"/>
      <use x="765.722656" xlink:href="#DejaVuSans-114"/>
      <use x="806.835938" xlink:href="#DejaVuSans-97"/>
      <use x="868.115234" xlink:href="#DejaVuSans-110"/>
      <use x="931.494141" xlink:href="#DejaVuSans-107"/>
      <use x="989.404297" xlink:href="#DejaVuSans-105"/>
      <use x="1017.1875" xlink:href="#DejaVuSans-110"/>
      <use x="1080.566406" xlink:href="#DejaVuSans-103"/>
     </g>
    </g>
   </g>
   <g id="matplotlib.axis_2">
    <g id="ytick_1">
     <g id="line2d_19">
      <path clip-path="url(#pe181a0f719)" d="M 46.772188 274.599376
L 403.892188 274.599376
" style="fill:none;stroke:#e5e5e5;stroke-width:0.8;"/>
     </g>
     <g id="line2d_20">
      <path d="M 46.772188 274.599376
" style="fill:none;stroke:#000000;stroke-width:1.5;"/>
      <defs>
       <path d="M 0 0
L -2.75 0
" id="m98c3d6a069" style="stroke:#000000;"/>
      </defs>
      <g>
       <use style="stroke:#000000;" x="46.772188" xlink:href="#m98c3d6a069" y="274.599376"/>
      </g>
     </g>
     <g id="text_7">
      <!-- 0 -->
      <g style="fill:#4d4d4d;" transform="translate(34.187188 277.910626)scale(0.12 -0.12)">
       <use xlink:href="#DejaVuSans-48"/>
      </g>
     </g>
    </g>
    <g id="ytick_2">
     <g id="line2d_21">
      <path clip-path="url(#pe181a0f719)" d="M 46.772188 214.119376
L 403.892188 214.119376
" style="fill:none;stroke:#e5e5e5;stroke-width:0.8;"/>
     </g>
     <g id="line2d_22">
      <path d="M 46.772188 214.119376
" style="fill:none;stroke:#000000;stroke-width:1.5;"/>
      <g>
       <use style="stroke:#000000;" x="46.772188" xlink:href="#m98c3d6a069" y="214.119376"/>
      </g>
     </g>
     <g id="text_8">
      <!-- 25 -->
      <g style="fill:#4d4d4d;" transform="translate(26.552188 217.430626)scale(0.12 -0.12)">
       <use xlink:href="#DejaVuSans-50"/>
       <use x="63.623047" xlink:href="#DejaVuSans-53"/>
      </g>
     </g>
    </g>
    <g id="ytick_3">
     <g id="line2d_23">
      <path clip-path="url(#pe181a0f719)" d="M 46.772188 153.639376
L 403.892188 153.639376
" style="fill:none;stroke:#e5e5e5;stroke-width:0.8;"/>
     </g>
     <g id="line2d_24">
      <path d="M 46.772188 153.639376
" style="fill:none;stroke:#000000;stroke-width:1.5;"/>
      <g>
       <use style="stroke:#000000;" x="46.772188" xlink:href="#m98c3d6a069" y="153.639376"/>
      </g>
     </g>
     <g id="text_9">
      <!-- 50 -->
      <g style="fill:#4d4d4d;" transform="translate(26.552188 156.950626)scale(0.12 -0.12)">
       <use xlink:href="#DejaVuSans-53"/>
       <use x="63.623047" xlink:href="#DejaVuSans-48"/>
      </g>
     </g>
    </g>
    <g id="ytick_4">
     <g id="line2d_25">
      <path clip-path="url(#pe181a0f719)" d="M 46.772188 93.159376
L 403.892188 93.159376
" style="fill:none;stroke:#e5e5e5;stroke-width:0.8;"/>
     </g>
     <g id="line2d_26">
      <path d="M 46.772188 93.159376
" style="fill:none;stroke:#000000;stroke-width:1.5;"/>
      <g>
       <use style="stroke:#000000;" x="46.772188" xlink:href="#m98c3d6a069" y="93.159376"/>
      </g>
     </g>
     <g id="text_10">
      <!-- 75 -->
      <g style="fill:#4d4d4d;" transform="translate(26.552188 96.470626)scale(0.12 -0.12)">
       <use xlink:href="#DejaVuSans-55"/>
       <use x="63.623047" xlink:href="#DejaVuSans-53"/>
      </g>
     </g>
    </g>
    <g id="ytick_5">
     <g id="line2d_27">
      <path clip-path="url(#pe181a0f719)" d="M 46.772188 32.679376
L 403.892188 32.679376
" style="fill:none;stroke:#e5e5e5;stroke-width:0.8;"/>
     </g>
     <g id="line2d_28">
      <path d="M 46.772188 32.679376
" style="fill:none;stroke:#000000;stroke-width:1.5;"/>
      <g>
       <use style="stroke:#000000;" x="46.772188" xlink:href="#m98c3d6a069" y="32.679376"/>
      </g>
     </g>
     <g id="text_11">
      <!-- 100 -->
      <g style="fill:#4d4d4d;" transform="translate(18.917188 35.990626)scale(0.12 -0.12)">
       <use xlink:href="#DejaVuSans-49"/>
       <use x="63.623047" xlink:href="#DejaVuSans-48"/>
       <use x="127.246094" xlink:href="#DejaVuSans-48"/>
      </g>
     </g>
    </g>
    <g id="ytick_6">
     <g id="line2d_29">
      <path clip-path="url(#pe181a0f719)" d="M 46.772188 244.359376
L 403.892188 244.359376
" style="fill:none;stroke:#fafafa;"/>
     </g>
     <g id="line2d_30">
      <path d="M 46.772188 244.359376
" style="fill:none;stroke:#000000;stroke-width:1.5;"/>
     </g>
    </g>
    <g id="ytick_7">
     <g id="line2d_31">
      <path clip-path="url(#pe181a0f719)" d="M 46.772188 183.879376
L 403.892188 183.879376
" style="fill:none;stroke:#fafafa;"/>
     </g>
     <g id="line2d_32">
      <path d="M 46.772188 183.879376
" style="fill:none;stroke:#000000;stroke-width:1.5;"/>
     </g>
    </g>
    <g id="ytick_8">
     <g id="line2d_33">
      <path clip-path="url(#pe181a0f719)" d="M 46.772188 123.399376
L 403.892188 123.399376
" style="fill:none;stroke:#fafafa;"/>
     </g>
     <g id="line2d_34">
      <path d="M 46.772188 123.399376
" style="fill:none;stroke:#000000;stroke-width:1.5;"/>
     </g>
    </g>
    <g id="ytick_9">
     <g id="line2d_35">
      <path clip-path="url(#pe181a0f719)" d="M 46.772188 62.919376
L 403.892188 62.919376
" style="fill:none;stroke:#fafafa;"/>
     </g>
     <g id="line2d_36">
      <path d="M 46.772188 62.919376
" style="fill:none;stroke:#000000;stroke-width:1.5;"/>
     </g>
    </g>
    <g id="text_12">
     <!-- GSVA pathway ranking -->
     <defs>
      <path d="M 28.609375 0
L 0.78125 72.90625
L 11.078125 72.90625
L 34.1875 11.53125
L 57.328125 72.90625
L 67.578125 72.90625
L 39.796875 0
z
" id="DejaVuSans-86"/>
     </defs>
     <g transform="translate(11.397656 238.098095)rotate(-90)scale(0.15 -0.15)">
      <use xlink:href="#DejaVuSans-71"/>
      <use x="77.490234" xlink:href="#DejaVuSans-83"/>
      <use x="140.966797" xlink:href="#DejaVuSans-86"/>
      <use x="209.28125" xlink:href="#DejaVuSans-65"/>
      <use x="277.689453" xlink:href="#DejaVuSans-32"/>
      <use x="309.476562" xlink:href="#DejaVuSans-112"/>
      <use x="372.953125" xlink:href="#DejaVuSans-97"/>
      <use x="434.232422" xlink:href="#DejaVuSans-116"/>
      <use x="473.441406" xlink:href="#DejaVuSans-104"/>
      <use x="536.820312" xlink:href="#DejaVuSans-119"/>
      <use x="618.607422" xlink:href="#DejaVuSans-97"/>
      <use x="679.886719" xlink:href="#DejaVuSans-121"/>
      <use x="739.066406" xlink:href="#DejaVuSans-32"/>
      <use x="770.853516" xlink:href="#DejaVuSans-114"/>
      <use x="811.966797" xlink:href="#DejaVuSans-97"/>
      <use x="873.246094" xlink:href="#DejaVuSans-110"/>
      <use x="936.625" xlink:href="#DejaVuSans-107"/>
      <use x="994.535156" xlink:href="#DejaVuSans-105"/>
      <use x="1022.318359" xlink:href="#DejaVuSans-110"/>
      <use x="1085.697266" xlink:href="#DejaVuSans-103"/>
     </g>
    </g>
   </g>
   <g id="PathCollection_1">
    <path clip-path="url(#pe181a0f719)" d="M 150.552208 83.823258
C 151.022268 83.823258 151.473139 83.636501 151.805522 83.304119
C 152.137905 82.971736 152.324662 82.520865 152.324662 82.050804
C 152.324662 81.580744 152.137905 81.129873 151.805522 80.79749
C 151.473139 80.465107 151.022268 80.278351 150.552208 80.278351
C 150.082148 80.278351 149.631277 80.465107 149.298894 80.79749
C 148.966511 81.129873 148.779754 81.580744 148.779754 82.050804
C 148.779754 82.520865 148.966511 82.971736 149.298894 83.304119
C 149.631277 83.636501 150.082148 83.823258 150.552208 83.823258
z
" style="stroke:#000000;stroke-width:0.886227;"/>
    <path clip-path="url(#pe181a0f719)" d="M 63.004915 133.194687
C 63.474975 133.194687 63.925846 133.00793 64.258229 132.675547
C 64.590612 132.343164 64.777369 131.892293 64.777369 131.422233
C 64.777369 130.952173 64.590612 130.501302 64.258229 130.168919
C 63.925846 129.836536 63.474975 129.649779 63.004915 129.649779
C 62.534855 129.649779 62.083983 129.836536 61.751601 130.168919
C 61.419218 130.501302 61.232461 130.952173 61.232461 131.422233
C 61.232461 131.892293 61.419218 132.343164 61.751601 132.675547
C 62.083983 133.00793 62.534855 133.194687 63.004915 133.194687
z
" style="stroke:#000000;stroke-width:0.886227;"/>
    <path clip-path="url(#pe181a0f719)" d="M 150.552208 69.01183
C 151.022268 69.01183 151.473139 68.825073 151.805522 68.49269
C 152.137905 68.160307 152.324662 67.709436 152.324662 67.239376
C 152.324662 66.769316 152.137905 66.318444 151.805522 65.986062
C 151.473139 65.653679 151.022268 65.466922 150.552208 65.466922
C 150.082148 65.466922 149.631277 65.653679 149.298894 65.986062
C 148.966511 66.318444 148.779754 66.769316 148.779754 67.239376
C 148.779754 67.709436 148.966511 68.160307 149.298894 68.49269
C 149.631277 68.825073 150.082148 69.01183 150.552208 69.01183
z
" style="stroke:#000000;stroke-width:0.886227;"/>
    <path clip-path="url(#pe181a0f719)" d="M 300.112167 54.200401
C 300.582227 54.200401 301.033098 54.013644 301.365481 53.681261
C 301.697864 53.348879 301.884621 52.898008 301.884621 52.427947
C 301.884621 51.957887 301.697864 51.507016 301.365481 51.174633
C 301.033098 50.84225 300.582227 50.655493 300.112167 50.655493
C 299.642107 50.655493 299.191236 50.84225 298.858853 51.174633
C 298.52647 51.507016 298.339713 51.957887 298.339713 52.427947
C 298.339713 52.898008 298.52647 53.348879 298.858853 53.681261
C 299.191236 54.013644 299.642107 54.200401 300.112167 54.200401
z
" style="stroke:#000000;stroke-width:0.886227;"/>
    <path clip-path="url(#pe181a0f719)" d="M 63.004915 128.257544
C 63.474975 128.257544 63.925846 128.070787 64.258229 127.738404
C 64.590612 127.406021 64.777369 126.95515 64.777369 126.48509
C 64.777369 126.01503 64.590612 125.564159 64.258229 125.231776
C 63.925846 124.899393 63.474975 124.712636 63.004915 124.712636
C 62.534855 124.712636 62.083983 124.899393 61.751601 125.231776
C 61.419218 125.564159 61.232461 126.01503 61.232461 126.48509
C 61.232461 126.95515 61.419218 127.406021 61.751601 127.738404
C 62.083983 128.070787 62.534855 128.257544 63.004915 128.257544
z
" style="stroke:#000000;stroke-width:0.886227;"/>
    <path clip-path="url(#pe181a0f719)" d="M 132.313189 49.263258
C 132.783249 49.263258 133.23412 49.076501 133.566503 48.744119
C 133.898885 48.411736 134.085642 47.960865 134.085642 47.490804
C 134.085642 47.020744 133.898885 46.569873 133.566503 46.23749
C 133.23412 45.905107 132.783249 45.718351 132.313189 45.718351
C 131.843128 45.718351 131.392257 45.905107 131.059874 46.23749
C 130.727492 46.569873 130.540735 47.020744 130.540735 47.490804
C 130.540735 47.960865 130.727492 48.411736 131.059874 48.744119
C 131.392257 49.076501 131.843128 49.263258 132.313189 49.263258
z
" style="stroke:#000000;stroke-width:0.886227;"/>
    <path clip-path="url(#pe181a0f719)" d="M 63.004915 34.45183
C 63.474975 34.45183 63.925846 34.265073 64.258229 33.93269
C 64.590612 33.600307 64.777369 33.149436 64.777369 32.679376
C 64.777369 32.209316 64.590612 31.758444 64.258229 31.426062
C 63.925846 31.093679 63.474975 30.906922 63.004915 30.906922
C 62.534855 30.906922 62.083983 31.093679 61.751601 31.426062
C 61.419218 31.758444 61.232461 32.209316 61.232461 32.679376
C 61.232461 33.149436 61.419218 33.600307 61.751601 33.93269
C 62.083983 34.265073 62.534855 34.45183 63.004915 34.45183
z
" style="stroke:#000000;stroke-width:0.886227;"/>
    <path clip-path="url(#pe181a0f719)" d="M 63.004915 157.880401
C 63.474975 157.880401 63.925846 157.693644 64.258229 157.361261
C 64.590612 157.028879 64.777369 156.578008 64.777369 156.107947
C 64.777369 155.637887 64.590612 155.187016 64.258229 154.854633
C 63.925846 154.52225 63.474975 154.335493 63.004915 154.335493
C 62.534855 154.335493 62.083983 154.52225 61.751601 154.854633
C 61.419218 155.187016 61.232461 155.637887 61.232461 156.107947
C 61.232461 156.578008 61.419218 157.028879 61.751601 157.361261
C 62.083983 157.693644 62.534855 157.880401 63.004915 157.880401
z
" style="stroke:#000000;stroke-width:0.886227;"/>
    <path clip-path="url(#pe181a0f719)" d="M 117.721973 148.006115
C 118.192033 148.006115 118.642904 147.819358 118.975287 147.486976
C 119.30767 147.154593 119.494427 146.703722 119.494427 146.233662
C 119.494427 145.763601 119.30767 145.31273 118.975287 144.980347
C 118.642904 144.647965 118.192033 144.461208 117.721973 144.461208
C 117.251913 144.461208 116.801042 144.647965 116.468659 144.980347
C 116.136276 145.31273 115.949519 145.763601 115.949519 146.233662
C 115.949519 146.703722 116.136276 147.154593 116.468659 147.486976
C 116.801042 147.819358 117.251913 148.006115 117.721973 148.006115
z
" style="stroke:#000000;stroke-width:0.886227;"/>
    <path clip-path="url(#pe181a0f719)" d="M 387.65946 103.57183
C 388.12952 103.57183 388.580392 103.385073 388.912774 103.05269
C 389.245157 102.720307 389.431914 102.269436 389.431914 101.799376
C 389.431914 101.329316 389.245157 100.878444 388.912774 100.546062
C 388.580392 100.213679 388.12952 100.026922 387.65946 100.026922
C 387.1894 100.026922 386.738529 100.213679 386.406146 100.546062
C 386.073763 100.878444 385.887006 101.329316 385.887006 101.799376
C 385.887006 102.269436 386.073763 102.720307 386.406146 103.05269
C 386.738529 103.385073 387.1894 103.57183 387.65946 103.57183
z
" style="stroke:#000000;stroke-width:0.886227;"/>
    <path clip-path="url(#pe181a0f719)" d="M 205.269266 39.388973
C 205.739326 39.388973 206.190197 39.202216 206.52258 38.869833
C 206.854963 38.53745 207.04172 38.086579 207.04172 37.616519
C 207.04172 37.146458 206.854963 36.695587 206.52258 36.363205
C 206.190197 36.030822 205.739326 35.844065 205.269266 35.844065
C 204.799206 35.844065 204.348335 36.030822 204.015952 36.363205
C 203.683569 36.695587 203.496812 37.146458 203.496812 37.616519
C 203.496812 38.086579 203.683569 38.53745 204.015952 38.869833
C 204.348335 39.202216 204.799206 39.388973 205.269266 39.388973
z
" style="stroke:#000000;stroke-width:0.886227;"/>
    <path clip-path="url(#pe181a0f719)" d="M 278.225344 177.628973
C 278.695404 177.628973 279.146275 177.442216 279.478658 177.109833
C 279.811041 176.77745 279.997798 176.326579 279.997798 175.856519
C 279.997798 175.386458 279.811041 174.935587 279.478658 174.603205
C 279.146275 174.270822 278.695404 174.084065 278.225344 174.084065
C 277.755284 174.084065 277.304412 174.270822 276.97203 174.603205
C 276.639647 174.935587 276.45289 175.386458 276.45289 175.856519
C 276.45289 176.326579 276.639647 176.77745 276.97203 177.109833
C 277.304412 177.442216 277.755284 177.628973 278.225344 177.628973
z
" style="stroke:#000000;stroke-width:0.886227;"/>
    <path clip-path="url(#pe181a0f719)" d="M 373.068245 59.137544
C 373.538305 59.137544 373.989176 58.950787 374.321559 58.618404
C 374.653942 58.286021 374.840699 57.83515 374.840699 57.36509
C 374.840699 56.89503 374.653942 56.444159 374.321559 56.111776
C 373.989176 55.779393 373.538305 55.592636 373.068245 55.592636
C 372.598184 55.592636 372.147313 55.779393 371.814931 56.111776
C 371.482548 56.444159 371.295791 56.89503 371.295791 57.36509
C 371.295791 57.83515 371.482548 58.286021 371.814931 58.618404
C 372.147313 58.950787 372.598184 59.137544 373.068245 59.137544
z
" style="stroke:#000000;stroke-width:0.886227;"/>
    <path clip-path="url(#pe181a0f719)" d="M 125.017581 227.000401
C 125.487641 227.000401 125.938512 226.813644 126.270895 226.481261
C 126.603278 226.148879 126.790035 225.698008 126.790035 225.227947
C 126.790035 224.757887 126.603278 224.307016 126.270895 223.974633
C 125.938512 223.64225 125.487641 223.455493 125.017581 223.455493
C 124.547521 223.455493 124.096649 223.64225 123.764267 223.974633
C 123.431884 224.307016 123.245127 224.757887 123.245127 225.227947
C 123.245127 225.698008 123.431884 226.148879 123.764267 226.481261
C 124.096649 226.813644 124.547521 227.000401 125.017581 227.000401
z
" style="stroke:#000000;stroke-width:0.886227;"/>
    <path clip-path="url(#pe181a0f719)" d="M 63.004915 152.943258
C 63.474975 152.943258 63.925846 152.756501 64.258229 152.424119
C 64.590612 152.091736 64.777369 151.640865 64.777369 151.170804
C 64.777369 150.700744 64.590612 150.249873 64.258229 149.91749
C 63.925846 149.585107 63.474975 149.398351 63.004915 149.398351
C 62.534855 149.398351 62.083983 149.585107 61.751601 149.91749
C 61.419218 150.249873 61.232461 150.700744 61.232461 151.170804
C 61.232461 151.640865 61.419218 152.091736 61.751601 152.424119
C 62.083983 152.756501 62.534855 152.943258 63.004915 152.943258
z
" style="stroke:#000000;stroke-width:0.886227;"/>
    <path clip-path="url(#pe181a0f719)" d="M 380.363852 143.068973
C 380.833913 143.068973 381.284784 142.882216 381.617167 142.549833
C 381.949549 142.21745 382.136306 141.766579 382.136306 141.296519
C 382.136306 140.826458 381.949549 140.375587 381.617167 140.043205
C 381.284784 139.710822 380.833913 139.524065 380.363852 139.524065
C 379.893792 139.524065 379.442921 139.710822 379.110538 140.043205
C 378.778156 140.375587 378.591399 140.826458 378.591399 141.296519
C 378.591399 141.766579 378.778156 142.21745 379.110538 142.549833
C 379.442921 142.882216 379.893792 143.068973 380.363852 143.068973
z
" style="stroke:#000000;stroke-width:0.886227;"/>
    <path clip-path="url(#pe181a0f719)" d="M 63.004915 212.188973
C 63.474975 212.188973 63.925846 212.002216 64.258229 211.669833
C 64.590612 211.33745 64.777369 210.886579 64.777369 210.416519
C 64.777369 209.946458 64.590612 209.495587 64.258229 209.163205
C 63.925846 208.830822 63.474975 208.644065 63.004915 208.644065
C 62.534855 208.644065 62.083983 208.830822 61.751601 209.163205
C 61.419218 209.495587 61.232461 209.946458 61.232461 210.416519
C 61.232461 210.886579 61.419218 211.33745 61.751601 211.669833
C 62.083983 212.002216 62.534855 212.188973 63.004915 212.188973
z
" style="stroke:#000000;stroke-width:0.886227;"/>
    <path clip-path="url(#pe181a0f719)" d="M 139.608796 256.623258
C 140.078857 256.623258 140.529728 256.436501 140.86211 256.104119
C 141.194493 255.771736 141.38125 255.320865 141.38125 254.850804
C 141.38125 254.380744 141.194493 253.929873 140.86211 253.59749
C 140.529728 253.265107 140.078857 253.078351 139.608796 253.078351
C 139.138736 253.078351 138.687865 253.265107 138.355482 253.59749
C 138.023099 253.929873 137.836342 254.380744 137.836342 254.850804
C 137.836342 255.320865 138.023099 255.771736 138.355482 256.104119
C 138.687865 256.436501 139.138736 256.623258 139.608796 256.623258
z
" style="stroke:#000000;stroke-width:0.886227;"/>
    <path clip-path="url(#pe181a0f719)" d="M 343.885814 78.886115
C 344.355874 78.886115 344.806745 78.699358 345.139128 78.366976
C 345.471511 78.034593 345.658268 77.583722 345.658268 77.113662
C 345.658268 76.643601 345.471511 76.19273 345.139128 75.860347
C 344.806745 75.527965 344.355874 75.341208 343.885814 75.341208
C 343.415753 75.341208 342.964882 75.527965 342.6325 75.860347
C 342.300117 76.19273 342.11336 76.643601 342.11336 77.113662
C 342.11336 77.583722 342.300117 78.034593 342.6325 78.366976
C 342.964882 78.699358 343.415753 78.886115 343.885814 78.886115
z
" style="stroke:#000000;stroke-width:0.886227;"/>
    <path clip-path="url(#pe181a0f719)" d="M 285.520952 251.686115
C 285.991012 251.686115 286.441883 251.499358 286.774266 251.166976
C 287.106648 250.834593 287.293405 250.383722 287.293405 249.913662
C 287.293405 249.443601 287.106648 248.99273 286.774266 248.660347
C 286.441883 248.327965 285.991012 248.141208 285.520952 248.141208
C 285.050891 248.141208 284.60002 248.327965 284.267637 248.660347
C 283.935255 248.99273 283.748498 249.443601 283.748498 249.913662
C 283.748498 250.383722 283.935255 250.834593 284.267637 251.166976
C 284.60002 251.499358 285.050891 251.686115 285.520952 251.686115
z
" style="stroke:#000000;stroke-width:0.886227;"/>
    <path clip-path="url(#pe181a0f719)" d="M 227.156089 88.760401
C 227.62615 88.760401 228.077021 88.573644 228.409404 88.241261
C 228.741786 87.908879 228.928543 87.458008 228.928543 86.987947
C 228.928543 86.517887 228.741786 86.067016 228.409404 85.734633
C 228.077021 85.40225 227.62615 85.215493 227.156089 85.215493
C 226.686029 85.215493 226.235158 85.40225 225.902775 85.734633
C 225.570393 86.067016 225.383636 86.517887 225.383636 86.987947
C 225.383636 87.458008 225.570393 87.908879 225.902775 88.241261
C 226.235158 88.573644 226.686029 88.760401 227.156089 88.760401
z
" style="stroke:#000000;stroke-width:0.886227;"/>
    <path clip-path="url(#pe181a0f719)" d="M 63.004915 246.748973
C 63.474975 246.748973 63.925846 246.562216 64.258229 246.229833
C 64.590612 245.89745 64.777369 245.446579 64.777369 244.976519
C 64.777369 244.506458 64.590612 244.055587 64.258229 243.723205
C 63.925846 243.390822 63.474975 243.204065 63.004915 243.204065
C 62.534855 243.204065 62.083983 243.390822 61.751601 243.723205
C 61.419218 244.055587 61.232461 244.506458 61.232461 244.976519
C 61.232461 245.446579 61.419218 245.89745 61.751601 246.229833
C 62.083983 246.562216 62.534855 246.748973 63.004915 246.748973
z
" style="stroke:#000000;stroke-width:0.886227;"/>
    <path clip-path="url(#pe181a0f719)" d="M 241.747305 276.37183
C 242.217365 276.37183 242.668236 276.185073 243.000619 275.85269
C 243.333002 275.520307 243.519759 275.069436 243.519759 274.599376
C 243.519759 274.129316 243.333002 273.678444 243.000619 273.346062
C 242.668236 273.013679 242.217365 272.826922 241.747305 272.826922
C 241.277245 272.826922 240.826374 273.013679 240.493991 273.346062
C 240.161608 273.678444 239.974851 274.129316 239.974851 274.599376
C 239.974851 275.069436 240.161608 275.520307 240.493991 275.85269
C 240.826374 276.185073 241.277245 276.37183 241.747305 276.37183
z
" style="stroke:#000000;stroke-width:0.886227;"/>
    <path clip-path="url(#pe181a0f719)" d="M 249.042913 217.126115
C 249.512973 217.126115 249.963844 216.939358 250.296227 216.606976
C 250.62861 216.274593 250.815367 215.823722 250.815367 215.353662
C 250.815367 214.883601 250.62861 214.43273 250.296227 214.100347
C 249.963844 213.767965 249.512973 213.581208 249.042913 213.581208
C 248.572852 213.581208 248.121981 213.767965 247.789599 214.100347
C 247.457216 214.43273 247.270459 214.883601 247.270459 215.353662
C 247.270459 215.823722 247.457216 216.274593 247.789599 216.606976
C 248.121981 216.939358 248.572852 217.126115 249.042913 217.126115
z
" style="stroke:#000000;stroke-width:0.886227;"/>
    <path clip-path="url(#pe181a0f719)" d="M 314.703383 222.063258
C 315.173443 222.063258 315.624314 221.876501 315.956697 221.544119
C 316.28908 221.211736 316.475836 220.760865 316.475836 220.290804
C 316.475836 219.820744 316.28908 219.369873 315.956697 219.03749
C 315.624314 218.705107 315.173443 218.518351 314.703383 218.518351
C 314.233322 218.518351 313.782451 218.705107 313.450068 219.03749
C 313.117686 219.369873 312.930929 219.820744 312.930929 220.290804
C 312.930929 220.760865 313.117686 221.211736 313.450068 221.544119
C 313.782451 221.876501 314.233322 222.063258 314.703383 222.063258
z
" style="stroke:#000000;stroke-width:0.886227;"/>
    <path clip-path="url(#pe181a0f719)" d="M 336.590206 241.81183
C 337.060266 241.81183 337.511137 241.625073 337.84352 241.29269
C 338.175903 240.960307 338.36266 240.509436 338.36266 240.039376
C 338.36266 239.569316 338.175903 239.118444 337.84352 238.786062
C 337.511137 238.453679 337.060266 238.266922 336.590206 238.266922
C 336.120146 238.266922 335.669275 238.453679 335.336892 238.786062
C 335.004509 239.118444 334.817752 239.569316 334.817752 240.039376
C 334.817752 240.509436 335.004509 240.960307 335.336892 241.29269
C 335.669275 241.625073 336.120146 241.81183 336.590206 241.81183
z
" style="stroke:#000000;stroke-width:0.886227;"/>
    <path clip-path="url(#pe181a0f719)" d="M 365.772637 162.817544
C 366.242697 162.817544 366.693568 162.630787 367.025951 162.298404
C 367.358334 161.966021 367.545091 161.51515 367.545091 161.04509
C 367.545091 160.57503 367.358334 160.124159 367.025951 159.791776
C 366.693568 159.459393 366.242697 159.272636 365.772637 159.272636
C 365.302577 159.272636 364.851706 159.459393 364.519323 159.791776
C 364.18694 160.124159 364.000183 160.57503 364.000183 161.04509
C 364.000183 161.51515 364.18694 161.966021 364.519323 162.298404
C 364.851706 162.630787 365.302577 162.817544 365.772637 162.817544
z
" style="stroke:#000000;stroke-width:0.886227;"/>
    <path clip-path="url(#pe181a0f719)" d="M 358.477029 197.377544
C 358.947089 197.377544 359.397961 197.190787 359.730343 196.858404
C 360.062726 196.526021 360.249483 196.07515 360.249483 195.60509
C 360.249483 195.13503 360.062726 194.684159 359.730343 194.351776
C 359.397961 194.019393 358.947089 193.832636 358.477029 193.832636
C 358.006969 193.832636 357.556098 194.019393 357.223715 194.351776
C 356.891332 194.684159 356.704575 195.13503 356.704575 195.60509
C 356.704575 196.07515 356.891332 196.526021 357.223715 196.858404
C 357.556098 197.190787 358.006969 197.377544 358.477029 197.377544
z
" style="stroke:#000000;stroke-width:0.886227;"/>
    <path clip-path="url(#pe181a0f719)" d="M 176.086835 236.874687
C 176.556895 236.874687 177.007766 236.68793 177.340149 236.355547
C 177.672532 236.023164 177.859289 235.572293 177.859289 235.102233
C 177.859289 234.632173 177.672532 234.181302 177.340149 233.848919
C 177.007766 233.516536 176.556895 233.329779 176.086835 233.329779
C 175.616775 233.329779 175.165904 233.516536 174.833521 233.848919
C 174.501138 234.181302 174.314381 234.632173 174.314381 235.102233
C 174.314381 235.572293 174.501138 236.023164 174.833521 236.355547
C 175.165904 236.68793 175.616775 236.874687 176.086835 236.874687
z
" style="stroke:#000000;stroke-width:0.886227;"/>
    <path clip-path="url(#pe181a0f719)" d="M 212.564874 192.440401
C 213.034934 192.440401 213.485805 192.253644 213.818188 191.921261
C 214.150571 191.588879 214.337328 191.138008 214.337328 190.667947
C 214.337328 190.197887 214.150571 189.747016 213.818188 189.414633
C 213.485805 189.08225 213.034934 188.895493 212.564874 188.895493
C 212.094814 188.895493 211.643943 189.08225 211.31156 189.414633
C 210.979177 189.747016 210.79242 190.197887 210.79242 190.667947
C 210.79242 191.138008 210.979177 191.588879 211.31156 191.921261
C 211.643943 192.253644 212.094814 192.440401 212.564874 192.440401
z
" style="stroke:#000000;stroke-width:0.886227;"/>
    <path clip-path="url(#pe181a0f719)" d="M 103.130757 138.13183
C 103.600818 138.13183 104.051689 137.945073 104.384072 137.61269
C 104.716454 137.280307 104.903211 136.829436 104.903211 136.359376
C 104.903211 135.889316 104.716454 135.438444 104.384072 135.106062
C 104.051689 134.773679 103.600818 134.586922 103.130757 134.586922
C 102.660697 134.586922 102.209826 134.773679 101.877443 135.106062
C 101.545061 135.438444 101.358304 135.889316 101.358304 136.359376
C 101.358304 136.829436 101.545061 137.280307 101.877443 137.61269
C 102.209826 137.945073 102.660697 138.13183 103.130757 138.13183
z
" style="stroke:#000000;stroke-width:0.886227;"/>
    <path clip-path="url(#pe181a0f719)" d="M 234.451697 108.508973
C 234.921757 108.508973 235.372629 108.322216 235.705011 107.989833
C 236.037394 107.65745 236.224151 107.206579 236.224151 106.736519
C 236.224151 106.266458 236.037394 105.815587 235.705011 105.483205
C 235.372629 105.150822 234.921757 104.964065 234.451697 104.964065
C 233.981637 104.964065 233.530766 105.150822 233.198383 105.483205
C 232.866 105.815587 232.679243 106.266458 232.679243 106.736519
C 232.679243 107.206579 232.866 107.65745 233.198383 107.989833
C 233.530766 108.322216 233.981637 108.508973 234.451697 108.508973
z
" style="stroke:#000000;stroke-width:0.886227;"/>
    <path clip-path="url(#pe181a0f719)" d="M 183.382443 187.503258
C 183.852503 187.503258 184.303374 187.316501 184.635757 186.984119
C 184.96814 186.651736 185.154897 186.200865 185.154897 185.730804
C 185.154897 185.260744 184.96814 184.809873 184.635757 184.47749
C 184.303374 184.145107 183.852503 183.958351 183.382443 183.958351
C 182.912383 183.958351 182.461512 184.145107 182.129129 184.47749
C 181.796746 184.809873 181.609989 185.260744 181.609989 185.730804
C 181.609989 186.200865 181.796746 186.651736 182.129129 186.984119
C 182.461512 187.316501 182.912383 187.503258 183.382443 187.503258
z
" style="stroke:#000000;stroke-width:0.886227;"/>
    <path clip-path="url(#pe181a0f719)" d="M 190.678051 44.326115
C 191.148111 44.326115 191.598982 44.139358 191.931365 43.806976
C 192.263748 43.474593 192.450504 43.023722 192.450504 42.553662
C 192.450504 42.083601 192.263748 41.63273 191.931365 41.300347
C 191.598982 40.967965 191.148111 40.781208 190.678051 40.781208
C 190.20799 40.781208 189.757119 40.967965 189.424736 41.300347
C 189.092354 41.63273 188.905597 42.083601 188.905597 42.553662
C 188.905597 43.023722 189.092354 43.474593 189.424736 43.806976
C 189.757119 44.139358 190.20799 44.326115 190.678051 44.326115
z
" style="stroke:#000000;stroke-width:0.886227;"/>
    <path clip-path="url(#pe181a0f719)" d="M 168.791227 271.434687
C 169.261288 271.434687 169.712159 271.24793 170.044541 270.915547
C 170.376924 270.583164 170.563681 270.132293 170.563681 269.662233
C 170.563681 269.192173 170.376924 268.741302 170.044541 268.408919
C 169.712159 268.076536 169.261288 267.889779 168.791227 267.889779
C 168.321167 267.889779 167.870296 268.076536 167.537913 268.408919
C 167.20553 268.741302 167.018773 269.192173 167.018773 269.662233
C 167.018773 270.132293 167.20553 270.583164 167.537913 270.915547
C 167.870296 271.24793 168.321167 271.434687 168.791227 271.434687
z
" style="stroke:#000000;stroke-width:0.886227;"/>
    <path clip-path="url(#pe181a0f719)" d="M 263.634128 172.69183
C 264.104189 172.69183 264.55506 172.505073 264.887442 172.17269
C 265.219825 171.840307 265.406582 171.389436 265.406582 170.919376
C 265.406582 170.449316 265.219825 169.998444 264.887442 169.666062
C 264.55506 169.333679 264.104189 169.146922 263.634128 169.146922
C 263.164068 169.146922 262.713197 169.333679 262.380814 169.666062
C 262.048431 169.998444 261.861674 170.449316 261.861674 170.919376
C 261.861674 171.389436 262.048431 171.840307 262.380814 172.17269
C 262.713197 172.505073 263.164068 172.69183 263.634128 172.69183
z
" style="stroke:#000000;stroke-width:0.886227;"/>
    <path clip-path="url(#pe181a0f719)" d="M 256.33852 266.497544
C 256.808581 266.497544 257.259452 266.310787 257.591835 265.978404
C 257.924217 265.646021 258.110974 265.19515 258.110974 264.72509
C 258.110974 264.25503 257.924217 263.804159 257.591835 263.471776
C 257.259452 263.139393 256.808581 262.952636 256.33852 262.952636
C 255.86846 262.952636 255.417589 263.139393 255.085206 263.471776
C 254.752824 263.804159 254.566067 264.25503 254.566067 264.72509
C 254.566067 265.19515 254.752824 265.646021 255.085206 265.978404
C 255.417589 266.310787 255.86846 266.497544 256.33852 266.497544
z
" style="stroke:#000000;stroke-width:0.886227;"/>
    <path clip-path="url(#pe181a0f719)" d="M 292.816559 182.566115
C 293.28662 182.566115 293.737491 182.379358 294.069873 182.046976
C 294.402256 181.714593 294.589013 181.263722 294.589013 180.793662
C 294.589013 180.323601 294.402256 179.87273 294.069873 179.540347
C 293.737491 179.207965 293.28662 179.021208 292.816559 179.021208
C 292.346499 179.021208 291.895628 179.207965 291.563245 179.540347
C 291.230862 179.87273 291.044105 180.323601 291.044105 180.793662
C 291.044105 181.263722 291.230862 181.714593 291.563245 182.046976
C 291.895628 182.379358 292.346499 182.566115 292.816559 182.566115
z
" style="stroke:#000000;stroke-width:0.886227;"/>
    <path clip-path="url(#pe181a0f719)" d="M 351.181421 123.320401
C 351.651482 123.320401 352.102353 123.133644 352.434736 122.801261
C 352.767118 122.468879 352.953875 122.018008 352.953875 121.547947
C 352.953875 121.077887 352.767118 120.627016 352.434736 120.294633
C 352.102353 119.96225 351.651482 119.775493 351.181421 119.775493
C 350.711361 119.775493 350.26049 119.96225 349.928107 120.294633
C 349.595724 120.627016 349.408968 121.077887 349.408968 121.547947
C 349.408968 122.018008 349.595724 122.468879 349.928107 122.801261
C 350.26049 123.133644 350.711361 123.320401 351.181421 123.320401
z
" style="stroke:#000000;stroke-width:0.886227;"/>
    <path clip-path="url(#pe181a0f719)" d="M 63.004915 93.697544
C 63.474975 93.697544 63.925846 93.510787 64.258229 93.178404
C 64.590612 92.846021 64.777369 92.39515 64.777369 91.92509
C 64.777369 91.45503 64.590612 91.004159 64.258229 90.671776
C 63.925846 90.339393 63.474975 90.152636 63.004915 90.152636
C 62.534855 90.152636 62.083983 90.339393 61.751601 90.671776
C 61.419218 91.004159 61.232461 91.45503 61.232461 91.92509
C 61.232461 92.39515 61.419218 92.846021 61.751601 93.178404
C 62.083983 93.510787 62.534855 93.697544 63.004915 93.697544
z
" style="stroke:#000000;stroke-width:0.886227;"/>
    <path clip-path="url(#pe181a0f719)" d="M 63.004915 231.937544
C 63.474975 231.937544 63.925846 231.750787 64.258229 231.418404
C 64.590612 231.086021 64.777369 230.63515 64.777369 230.16509
C 64.777369 229.69503 64.590612 229.244159 64.258229 228.911776
C 63.925846 228.579393 63.474975 228.392636 63.004915 228.392636
C 62.534855 228.392636 62.083983 228.579393 61.751601 228.911776
C 61.419218 229.244159 61.232461 229.69503 61.232461 230.16509
C 61.232461 230.63515 61.419218 231.086021 61.751601 231.418404
C 62.083983 231.750787 62.534855 231.937544 63.004915 231.937544
z
" style="stroke:#000000;stroke-width:0.886227;"/>
    <path clip-path="url(#pe181a0f719)" d="M 219.860482 113.446115
C 220.330542 113.446115 220.781413 113.259358 221.113796 112.926976
C 221.446179 112.594593 221.632936 112.143722 221.632936 111.673662
C 221.632936 111.203601 221.446179 110.75273 221.113796 110.420347
C 220.781413 110.087965 220.330542 109.901208 219.860482 109.901208
C 219.390421 109.901208 218.93955 110.087965 218.607168 110.420347
C 218.274785 110.75273 218.088028 111.203601 218.088028 111.673662
C 218.088028 112.143722 218.274785 112.594593 218.607168 112.926976
C 218.93955 113.259358 219.390421 113.446115 219.860482 113.446115
z
" style="stroke:#000000;stroke-width:0.886227;"/>
    <path clip-path="url(#pe181a0f719)" d="M 197.973658 261.560401
C 198.443719 261.560401 198.89459 261.373644 199.226973 261.041261
C 199.559355 260.708879 199.746112 260.258008 199.746112 259.787947
C 199.746112 259.317887 199.559355 258.867016 199.226973 258.534633
C 198.89459 258.20225 198.443719 258.015493 197.973658 258.015493
C 197.503598 258.015493 197.052727 258.20225 196.720344 258.534633
C 196.387961 258.867016 196.201205 259.317887 196.201205 259.787947
C 196.201205 260.258008 196.387961 260.708879 196.720344 261.041261
C 197.052727 261.373644 197.503598 261.560401 197.973658 261.560401
z
" style="stroke:#000000;stroke-width:0.886227;"/>
    <path clip-path="url(#pe181a0f719)" d="M 321.99899 118.383258
C 322.469051 118.383258 322.919922 118.196501 323.252304 117.864119
C 323.584687 117.531736 323.771444 117.080865 323.771444 116.610804
C 323.771444 116.140744 323.584687 115.689873 323.252304 115.35749
C 322.919922 115.025107 322.469051 114.838351 321.99899 114.838351
C 321.52893 114.838351 321.078059 115.025107 320.745676 115.35749
C 320.413293 115.689873 320.226537 116.140744 320.226537 116.610804
C 320.226537 117.080865 320.413293 117.531736 320.745676 117.864119
C 321.078059 118.196501 321.52893 118.383258 321.99899 118.383258
z
" style="stroke:#000000;stroke-width:0.886227;"/>
    <path clip-path="url(#pe181a0f719)" d="M 270.929736 207.25183
C 271.399796 207.25183 271.850667 207.065073 272.18305 206.73269
C 272.515433 206.400307 272.70219 205.949436 272.70219 205.479376
C 272.70219 205.009316 272.515433 204.558444 272.18305 204.226062
C 271.850667 203.893679 271.399796 203.706922 270.929736 203.706922
C 270.459676 203.706922 270.008805 203.893679 269.676422 204.226062
C 269.344039 204.558444 269.157282 205.009316 269.157282 205.479376
C 269.157282 205.949436 269.344039 206.400307 269.676422 206.73269
C 270.008805 207.065073 270.459676 207.25183 270.929736 207.25183
z
" style="stroke:#000000;stroke-width:0.886227;"/>
    <path clip-path="url(#pe181a0f719)" d="M 110.426365 64.074687
C 110.896425 64.074687 111.347297 63.88793 111.679679 63.555547
C 112.012062 63.223164 112.198819 62.772293 112.198819 62.302233
C 112.198819 61.832173 112.012062 61.381302 111.679679 61.048919
C 111.347297 60.716536 110.896425 60.529779 110.426365 60.529779
C 109.956305 60.529779 109.505434 60.716536 109.173051 61.048919
C 108.840668 61.381302 108.653911 61.832173 108.653911 62.302233
C 108.653911 62.772293 108.840668 63.223164 109.173051 63.555547
C 109.505434 63.88793 109.956305 64.074687 110.426365 64.074687
z
" style="stroke:#000000;stroke-width:0.886227;"/>
    <path clip-path="url(#pe181a0f719)" d="M 63.004915 167.754687
C 63.474975 167.754687 63.925846 167.56793 64.258229 167.235547
C 64.590612 166.903164 64.777369 166.452293 64.777369 165.982233
C 64.777369 165.512173 64.590612 165.061302 64.258229 164.728919
C 63.925846 164.396536 63.474975 164.209779 63.004915 164.209779
C 62.534855 164.209779 62.083983 164.396536 61.751601 164.728919
C 61.419218 165.061302 61.232461 165.512173 61.232461 165.982233
C 61.232461 166.452293 61.419218 166.903164 61.751601 167.235547
C 62.083983 167.56793 62.534855 167.754687 63.004915 167.754687
z
" style="stroke:#000000;stroke-width:0.886227;"/>
    <path clip-path="url(#pe181a0f719)" d="M 161.49562 98.634687
C 161.96568 98.634687 162.416551 98.44793 162.748934 98.115547
C 163.081317 97.783164 163.268073 97.332293 163.268073 96.862233
C 163.268073 96.392173 163.081317 95.941302 162.748934 95.608919
C 162.416551 95.276536 161.96568 95.089779 161.49562 95.089779
C 161.025559 95.089779 160.574688 95.276536 160.242305 95.608919
C 159.909923 95.941302 159.723166 96.392173 159.723166 96.862233
C 159.723166 97.332293 159.909923 97.783164 160.242305 98.115547
C 160.574688 98.44793 161.025559 98.634687 161.49562 98.634687
z
" style="stroke:#000000;stroke-width:0.886227;"/>
    <path clip-path="url(#pe181a0f719)" d="M 307.407775 202.314687
C 307.877835 202.314687 308.328706 202.12793 308.661089 201.795547
C 308.993472 201.463164 309.180229 201.012293 309.180229 200.542233
C 309.180229 200.072173 308.993472 199.621302 308.661089 199.288919
C 308.328706 198.956536 307.877835 198.769779 307.407775 198.769779
C 306.937715 198.769779 306.486843 198.956536 306.154461 199.288919
C 305.822078 199.621302 305.635321 200.072173 305.635321 200.542233
C 305.635321 201.012293 305.822078 201.463164 306.154461 201.795547
C 306.486843 202.12793 306.937715 202.314687 307.407775 202.314687
z
" style="stroke:#000000;stroke-width:0.886227;"/>
    <path clip-path="url(#pe181a0f719)" d="M 329.294598 73.948973
C 329.764658 73.948973 330.215529 73.762216 330.547912 73.429833
C 330.880295 73.09745 331.067052 72.646579 331.067052 72.176519
C 331.067052 71.706458 330.880295 71.255587 330.547912 70.923205
C 330.215529 70.590822 329.764658 70.404065 329.294598 70.404065
C 328.824538 70.404065 328.373667 70.590822 328.041284 70.923205
C 327.708901 71.255587 327.522144 71.706458 327.522144 72.176519
C 327.522144 72.646579 327.708901 73.09745 328.041284 73.429833
C 328.373667 73.762216 328.824538 73.948973 329.294598 73.948973
z
" style="stroke:#000000;stroke-width:0.886227;"/>
   </g>
  </g>
  <g id="text_13">
   <!-- GSEA vs GSVA pathway ranking -->
   <defs>
    <path d="M 2.984375 54.6875
L 12.5 54.6875
L 29.59375 8.796875
L 46.6875 54.6875
L 56.203125 54.6875
L 35.6875 0
L 23.484375 0
z
" id="DejaVuSans-118"/>
    <path d="M 44.28125 53.078125
L 44.28125 44.578125
Q 40.484375 46.53125 36.375 47.5
Q 32.28125 48.484375 27.875 48.484375
Q 21.1875 48.484375 17.84375 46.4375
Q 14.5 44.390625 14.5 40.28125
Q 14.5 37.15625 16.890625 35.375
Q 19.28125 33.59375 26.515625 31.984375
L 29.59375 31.296875
Q 39.15625 29.25 43.1875 25.515625
Q 47.21875 21.78125 47.21875 15.09375
Q 47.21875 7.46875 41.1875 3.015625
Q 35.15625 -1.421875 24.609375 -1.421875
Q 20.21875 -1.421875 15.453125 -0.5625
Q 10.6875 0.296875 5.421875 2
L 5.421875 11.28125
Q 10.40625 8.6875 15.234375 7.390625
Q 20.0625 6.109375 24.8125 6.109375
Q 31.15625 6.109375 34.5625 8.28125
Q 37.984375 10.453125 37.984375 14.40625
Q 37.984375 18.0625 35.515625 20.015625
Q 33.0625 21.96875 24.703125 23.78125
L 21.578125 24.515625
Q 13.234375 26.265625 9.515625 29.90625
Q 5.8125 33.546875 5.8125 39.890625
Q 5.8125 47.609375 11.28125 51.796875
Q 16.75 56 26.8125 56
Q 31.78125 56 36.171875 55.265625
Q 40.578125 54.546875 44.28125 53.078125
z
" id="DejaVuSans-115"/>
   </defs>
   <g transform="translate(99.83 11.397656)scale(0.15 -0.15)">
    <use xlink:href="#DejaVuSans-71"/>
    <use x="77.490234" xlink:href="#DejaVuSans-83"/>
    <use x="140.966797" xlink:href="#DejaVuSans-69"/>
    <use x="204.150391" xlink:href="#DejaVuSans-65"/>
    <use x="272.558594" xlink:href="#DejaVuSans-32"/>
    <use x="304.345703" xlink:href="#DejaVuSans-118"/>
    <use x="363.525391" xlink:href="#DejaVuSans-115"/>
    <use x="415.625" xlink:href="#DejaVuSans-32"/>
    <use x="447.412109" xlink:href="#DejaVuSans-71"/>
    <use x="524.902344" xlink:href="#DejaVuSans-83"/>
    <use x="588.378906" xlink:href="#DejaVuSans-86"/>
    <use x="656.693359" xlink:href="#DejaVuSans-65"/>
    <use x="725.101562" xlink:href="#DejaVuSans-32"/>
    <use x="756.888672" xlink:href="#DejaVuSans-112"/>
    <use x="820.365234" xlink:href="#DejaVuSans-97"/>
    <use x="881.644531" xlink:href="#DejaVuSans-116"/>
    <use x="920.853516" xlink:href="#DejaVuSans-104"/>
    <use x="984.232422" xlink:href="#DejaVuSans-119"/>
    <use x="1066.019531" xlink:href="#DejaVuSans-97"/>
    <use x="1127.298828" xlink:href="#DejaVuSans-121"/>
    <use x="1186.478516" xlink:href="#DejaVuSans-32"/>
    <use x="1218.265625" xlink:href="#DejaVuSans-114"/>
    <use x="1259.378906" xlink:href="#DejaVuSans-97"/>
    <use x="1320.658203" xlink:href="#DejaVuSans-110"/>
    <use x="1384.037109" xlink:href="#DejaVuSans-107"/>
    <use x="1441.947266" xlink:href="#DejaVuSans-105"/>
    <use x="1469.730469" xlink:href="#DejaVuSans-110"/>
    <use x="1533.109375" xlink:href="#DejaVuSans-103"/>
   </g>
  </g>
 </g>
 <defs>
  <clipPath id="pe181a0f719">
   <rect height="266.112" width="357.12" x="46.772188" y="20.583376"/>
  </clipPath>
 </defs>
</svg>
