<?xml version="1.0" encoding="utf-8" standalone="no"?>
<!DOCTYPE svg PUBLIC "-//W3C//DTD SVG 1.1//EN"
  "http://www.w3.org/Graphics/SVG/1.1/DTD/svg11.dtd">
<!-- Created with matplotlib (https://matplotlib.org/) -->
<svg height="322.176313pt" version="1.1" viewBox="0 0 406.642188 322.176313" width="406.642188pt" xmlns="http://www.w3.org/2000/svg" xmlns:xlink="http://www.w3.org/1999/xlink">
 <defs>
  <style type="text/css">
*{stroke-linecap:butt;stroke-linejoin:round;}
  </style>
 </defs>
 <g id="figure_1">
  <g id="patch_1">
   <path d="M 0 322.176313
L 406.642188 322.176313
L 406.642188 0
L 0 0
z
" style="fill:#ffffff;stroke:#ffffff;stroke-linejoin:miter;"/>
  </g>
  <g id="axes_1">
   <g id="patch_2">
    <path d="M 46.772188 286.695376
L 403.892188 286.695376
L 403.892188 20.583376
L 46.772188 20.583376
z
" style="fill:none;"/>
   </g>
   <g id="matplotlib.axis_1">
    <g id="xtick_1">
     <g id="line2d_1">
      <path clip-path="url(#p0fe66c69b9)" d="M 63.004915 286.695376
L 63.004915 20.583376
" style="fill:none;stroke:#e5e5e5;stroke-width:0.8;"/>
     </g>
     <g id="line2d_2">
      <path d="M 63.004915 286.695376
" style="fill:none;stroke:#000000;stroke-width:1.5;"/>
      <defs>
       <path d="M 0 0
L 0 2.75
" id="ma1289c3d19" style="stroke:#000000;"/>
      </defs>
      <g>
       <use style="stroke:#000000;" x="63.004915" xlink:href="#ma1289c3d19" y="286.695376"/>
      </g>
     </g>
     <g id="text_1">
      <!-- 0 -->
      <defs>
       <path d="M 31.78125 66.40625
Q 24.171875 66.40625 20.328125 58.90625
Q 16.5 51.421875 16.5 36.375
Q 16.5 21.390625 20.328125 13.890625
Q 24.171875 6.390625 31.78125 6.390625
Q 39.453125 6.390625 43.28125 13.890625
Q 47.125 21.390625 47.125 36.375
Q 47.125 51.421875 43.28125 58.90625
Q 39.453125 66.40625 31.78125 66.40625
z
M 31.78125 74.21875
Q 44.046875 74.21875 50.515625 64.515625
Q 56.984375 54.828125 56.984375 36.375
Q 56.984375 17.96875 50.515625 8.265625
Q 44.046875 -1.421875 31.78125 -1.421875
Q 19.53125 -1.421875 13.0625 8.265625
Q 6.59375 17.96875 6.59375 36.375
Q 6.59375 54.828125 13.0625 64.515625
Q 19.53125 74.21875 31.78125 74.21875
z
" id="DejaVuSans-48"/>
      </defs>
      <g style="fill:#4d4d4d;" transform="translate(59.187415 300.763501)scale(0.12 -0.12)">
       <use xlink:href="#DejaVuSans-48"/>
      </g>
     </g>
    </g>
    <g id="xtick_2">
     <g id="line2d_3">
      <path clip-path="url(#p0fe66c69b9)" d="M 189.690796 286.695376
L 189.690796 20.583376
" style="fill:none;stroke:#e5e5e5;stroke-width:0.8;"/>
     </g>
     <g id="line2d_4">
      <path d="M 189.690796 286.695376
" style="fill:none;stroke:#000000;stroke-width:1.5;"/>
      <g>
       <use style="stroke:#000000;" x="189.690796" xlink:href="#ma1289c3d19" y="286.695376"/>
      </g>
     </g>
     <g id="text_2">
      <!-- 1 -->
      <defs>
       <path d="M 12.40625 8.296875
L 28.515625 8.296875
L 28.515625 63.921875
L 10.984375 60.40625
L 10.984375 69.390625
L 28.421875 72.90625
L 38.28125 72.90625
L 38.28125 8.296875
L 54.390625 8.296875
L 54.390625 0
L 12.40625 0
z
" id="DejaVuSans-49"/>
      </defs>
      <g style="fill:#4d4d4d;" transform="translate(185.873296 300.763501)scale(0.12 -0.12)">
       <use xlink:href="#DejaVuSans-49"/>
      </g>
     </g>
    </g>
    <g id="xtick_3">
     <g id="line2d_5">
      <path clip-path="url(#p0fe66c69b9)" d="M 316.376678 286.695376
L 316.376678 20.583376
" style="fill:none;stroke:#e5e5e5;stroke-width:0.8;"/>
     </g>
     <g id="line2d_6">
      <path d="M 316.376678 286.695376
" style="fill:none;stroke:#000000;stroke-width:1.5;"/>
      <g>
       <use style="stroke:#000000;" x="316.376678" xlink:href="#ma1289c3d19" y="286.695376"/>
      </g>
     </g>
     <g id="text_3">
      <!-- 2 -->
      <defs>
       <path d="M 19.1875 8.296875
L 53.609375 8.296875
L 53.609375 0
L 7.328125 0
L 7.328125 8.296875
Q 12.9375 14.109375 22.625 23.890625
Q 32.328125 33.6875 34.8125 36.53125
Q 39.546875 41.84375 41.421875 45.53125
Q 43.3125 49.21875 43.3125 52.78125
Q 43.3125 58.59375 39.234375 62.25
Q 35.15625 65.921875 28.609375 65.921875
Q 23.96875 65.921875 18.8125 64.3125
Q 13.671875 62.703125 7.8125 59.421875
L 7.8125 69.390625
Q 13.765625 71.78125 18.9375 73
Q 24.125 74.21875 28.421875 74.21875
Q 39.75 74.21875 46.484375 68.546875
Q 53.21875 62.890625 53.21875 53.421875
Q 53.21875 48.921875 51.53125 44.890625
Q 49.859375 40.875 45.40625 35.40625
Q 44.1875 33.984375 37.640625 27.21875
Q 31.109375 20.453125 19.1875 8.296875
z
" id="DejaVuSans-50"/>
      </defs>
      <g style="fill:#4d4d4d;" transform="translate(312.559178 300.763501)scale(0.12 -0.12)">
       <use xlink:href="#DejaVuSans-50"/>
      </g>
     </g>
    </g>
    <g id="xtick_4">
     <g id="line2d_7">
      <path clip-path="url(#p0fe66c69b9)" d="M 126.347856 286.695376
L 126.347856 20.583376
" style="fill:none;stroke:#fafafa;"/>
     </g>
     <g id="line2d_8">
      <path d="M 126.347856 286.695376
" style="fill:none;stroke:#000000;stroke-width:1.5;"/>
     </g>
    </g>
    <g id="xtick_5">
     <g id="line2d_9">
      <path clip-path="url(#p0fe66c69b9)" d="M 253.033737 286.695376
L 253.033737 20.583376
" style="fill:none;stroke:#fafafa;"/>
     </g>
     <g id="line2d_10">
      <path d="M 253.033737 286.695376
" style="fill:none;stroke:#000000;stroke-width:1.5;"/>
     </g>
    </g>
    <g id="xtick_6">
     <g id="line2d_11">
      <path clip-path="url(#p0fe66c69b9)" d="M 379.719619 286.695376
L 379.719619 20.583376
" style="fill:none;stroke:#fafafa;"/>
     </g>
     <g id="line2d_12">
      <path d="M 379.719619 286.695376
" style="fill:none;stroke:#000000;stroke-width:1.5;"/>
     </g>
    </g>
    <g id="text_4">
     <!-- -log10(median(adjusted p-value)) -->
     <defs>
      <path d="M 4.890625 31.390625
L 31.203125 31.390625
L 31.203125 23.390625
L 4.890625 23.390625
z
" id="DejaVuSans-45"/>
      <path d="M 9.421875 75.984375
L 18.40625 75.984375
L 18.40625 0
L 9.421875 0
z
" id="DejaVuSans-108"/>
      <path d="M 30.609375 48.390625
Q 23.390625 48.390625 19.1875 42.75
Q 14.984375 37.109375 14.984375 27.296875
Q 14.984375 17.484375 19.15625 11.84375
Q 23.34375 6.203125 30.609375 6.203125
Q 37.796875 6.203125 41.984375 11.859375
Q 46.1875 17.53125 46.1875 27.296875
Q 46.1875 37.015625 41.984375 42.703125
Q 37.796875 48.390625 30.609375 48.390625
z
M 30.609375 56
Q 42.328125 56 49.015625 48.375
Q 55.71875 40.765625 55.71875 27.296875
Q 55.71875 13.875 49.015625 6.21875
Q 42.328125 -1.421875 30.609375 -1.421875
Q 18.84375 -1.421875 12.171875 6.21875
Q 5.515625 13.875 5.515625 27.296875
Q 5.515625 40.765625 12.171875 48.375
Q 18.84375 56 30.609375 56
z
" id="DejaVuSans-111"/>
      <path d="M 45.40625 27.984375
Q 45.40625 37.75 41.375 43.109375
Q 37.359375 48.484375 30.078125 48.484375
Q 22.859375 48.484375 18.828125 43.109375
Q 14.796875 37.75 14.796875 27.984375
Q 14.796875 18.265625 18.828125 12.890625
Q 22.859375 7.515625 30.078125 7.515625
Q 37.359375 7.515625 41.375 12.890625
Q 45.40625 18.265625 45.40625 27.984375
z
M 54.390625 6.78125
Q 54.390625 -7.171875 48.1875 -13.984375
Q 42 -20.796875 29.203125 -20.796875
Q 24.46875 -20.796875 20.265625 -20.09375
Q 16.0625 -19.390625 12.109375 -17.921875
L 12.109375 -9.1875
Q 16.0625 -11.328125 19.921875 -12.34375
Q 23.78125 -13.375 27.78125 -13.375
Q 36.625 -13.375 41.015625 -8.765625
Q 45.40625 -4.15625 45.40625 5.171875
L 45.40625 9.625
Q 42.625 4.78125 38.28125 2.390625
Q 33.9375 0 27.875 0
Q 17.828125 0 11.671875 7.65625
Q 5.515625 15.328125 5.515625 27.984375
Q 5.515625 40.671875 11.671875 48.328125
Q 17.828125 56 27.875 56
Q 33.9375 56 38.28125 53.609375
Q 42.625 51.21875 45.40625 46.390625
L 45.40625 54.6875
L 54.390625 54.6875
z
" id="DejaVuSans-103"/>
      <path d="M 31 75.875
Q 24.46875 64.65625 21.28125 53.65625
Q 18.109375 42.671875 18.109375 31.390625
Q 18.109375 20.125 21.3125 9.0625
Q 24.515625 -2 31 -13.1875
L 23.1875 -13.1875
Q 15.875 -1.703125 12.234375 9.375
Q 8.59375 20.453125 8.59375 31.390625
Q 8.59375 42.28125 12.203125 53.3125
Q 15.828125 64.359375 23.1875 75.875
z
" id="DejaVuSans-40"/>
      <path d="M 52 44.1875
Q 55.375 50.25 60.0625 53.125
Q 64.75 56 71.09375 56
Q 79.640625 56 84.28125 50.015625
Q 88.921875 44.046875 88.921875 33.015625
L 88.921875 0
L 79.890625 0
L 79.890625 32.71875
Q 79.890625 40.578125 77.09375 44.375
Q 74.3125 48.1875 68.609375 48.1875
Q 61.625 48.1875 57.5625 43.546875
Q 53.515625 38.921875 53.515625 30.90625
L 53.515625 0
L 44.484375 0
L 44.484375 32.71875
Q 44.484375 40.625 41.703125 44.40625
Q 38.921875 48.1875 33.109375 48.1875
Q 26.21875 48.1875 22.15625 43.53125
Q 18.109375 38.875 18.109375 30.90625
L 18.109375 0
L 9.078125 0
L 9.078125 54.6875
L 18.109375 54.6875
L 18.109375 46.1875
Q 21.1875 51.21875 25.484375 53.609375
Q 29.78125 56 35.6875 56
Q 41.65625 56 45.828125 52.96875
Q 50 49.953125 52 44.1875
z
" id="DejaVuSans-109"/>
      <path d="M 56.203125 29.59375
L 56.203125 25.203125
L 14.890625 25.203125
Q 15.484375 15.921875 20.484375 11.0625
Q 25.484375 6.203125 34.421875 6.203125
Q 39.59375 6.203125 44.453125 7.46875
Q 49.3125 8.734375 54.109375 11.28125
L 54.109375 2.78125
Q 49.265625 0.734375 44.1875 -0.34375
Q 39.109375 -1.421875 33.890625 -1.421875
Q 20.796875 -1.421875 13.15625 6.1875
Q 5.515625 13.8125 5.515625 26.8125
Q 5.515625 40.234375 12.765625 48.109375
Q 20.015625 56 32.328125 56
Q 43.359375 56 49.78125 48.890625
Q 56.203125 41.796875 56.203125 29.59375
z
M 47.21875 32.234375
Q 47.125 39.59375 43.09375 43.984375
Q 39.0625 48.390625 32.421875 48.390625
Q 24.90625 48.390625 20.390625 44.140625
Q 15.875 39.890625 15.1875 32.171875
z
" id="DejaVuSans-101"/>
      <path d="M 45.40625 46.390625
L 45.40625 75.984375
L 54.390625 75.984375
L 54.390625 0
L 45.40625 0
L 45.40625 8.203125
Q 42.578125 3.328125 38.25 0.953125
Q 33.9375 -1.421875 27.875 -1.421875
Q 17.96875 -1.421875 11.734375 6.484375
Q 5.515625 14.40625 5.515625 27.296875
Q 5.515625 40.1875 11.734375 48.09375
Q 17.96875 56 27.875 56
Q 33.9375 56 38.25 53.625
Q 42.578125 51.265625 45.40625 46.390625
z
M 14.796875 27.296875
Q 14.796875 17.390625 18.875 11.75
Q 22.953125 6.109375 30.078125 6.109375
Q 37.203125 6.109375 41.296875 11.75
Q 45.40625 17.390625 45.40625 27.296875
Q 45.40625 37.203125 41.296875 42.84375
Q 37.203125 48.484375 30.078125 48.484375
Q 22.953125 48.484375 18.875 42.84375
Q 14.796875 37.203125 14.796875 27.296875
z
" id="DejaVuSans-100"/>
      <path d="M 9.421875 54.6875
L 18.40625 54.6875
L 18.40625 0
L 9.421875 0
z
M 9.421875 75.984375
L 18.40625 75.984375
L 18.40625 64.59375
L 9.421875 64.59375
z
" id="DejaVuSans-105"/>
      <path d="M 34.28125 27.484375
Q 23.390625 27.484375 19.1875 25
Q 14.984375 22.515625 14.984375 16.5
Q 14.984375 11.71875 18.140625 8.90625
Q 21.296875 6.109375 26.703125 6.109375
Q 34.1875 6.109375 38.703125 11.40625
Q 43.21875 16.703125 43.21875 25.484375
L 43.21875 27.484375
z
M 52.203125 31.203125
L 52.203125 0
L 43.21875 0
L 43.21875 8.296875
Q 40.140625 3.328125 35.546875 0.953125
Q 30.953125 -1.421875 24.3125 -1.421875
Q 15.921875 -1.421875 10.953125 3.296875
Q 6 8.015625 6 15.921875
Q 6 25.140625 12.171875 29.828125
Q 18.359375 34.515625 30.609375 34.515625
L 43.21875 34.515625
L 43.21875 35.40625
Q 43.21875 41.609375 39.140625 45
Q 35.0625 48.390625 27.6875 48.390625
Q 23 48.390625 18.546875 47.265625
Q 14.109375 46.140625 10.015625 43.890625
L 10.015625 52.203125
Q 14.9375 54.109375 19.578125 55.046875
Q 24.21875 56 28.609375 56
Q 40.484375 56 46.34375 49.84375
Q 52.203125 43.703125 52.203125 31.203125
z
" id="DejaVuSans-97"/>
      <path d="M 54.890625 33.015625
L 54.890625 0
L 45.90625 0
L 45.90625 32.71875
Q 45.90625 40.484375 42.875 44.328125
Q 39.84375 48.1875 33.796875 48.1875
Q 26.515625 48.1875 22.3125 43.546875
Q 18.109375 38.921875 18.109375 30.90625
L 18.109375 0
L 9.078125 0
L 9.078125 54.6875
L 18.109375 54.6875
L 18.109375 46.1875
Q 21.34375 51.125 25.703125 53.5625
Q 30.078125 56 35.796875 56
Q 45.21875 56 50.046875 50.171875
Q 54.890625 44.34375 54.890625 33.015625
z
" id="DejaVuSans-110"/>
      <path d="M 9.421875 54.6875
L 18.40625 54.6875
L 18.40625 -0.984375
Q 18.40625 -11.421875 14.421875 -16.109375
Q 10.453125 -20.796875 1.609375 -20.796875
L -1.8125 -20.796875
L -1.8125 -13.1875
L 0.59375 -13.1875
Q 5.71875 -13.1875 7.5625 -10.8125
Q 9.421875 -8.453125 9.421875 -0.984375
z
M 9.421875 75.984375
L 18.40625 75.984375
L 18.40625 64.59375
L 9.421875 64.59375
z
" id="DejaVuSans-106"/>
      <path d="M 8.5 21.578125
L 8.5 54.6875
L 17.484375 54.6875
L 17.484375 21.921875
Q 17.484375 14.15625 20.5 10.265625
Q 23.53125 6.390625 29.59375 6.390625
Q 36.859375 6.390625 41.078125 11.03125
Q 45.3125 15.671875 45.3125 23.6875
L 45.3125 54.6875
L 54.296875 54.6875
L 54.296875 0
L 45.3125 0
L 45.3125 8.40625
Q 42.046875 3.421875 37.71875 1
Q 33.40625 -1.421875 27.6875 -1.421875
Q 18.265625 -1.421875 13.375 4.4375
Q 8.5 10.296875 8.5 21.578125
z
M 31.109375 56
z
" id="DejaVuSans-117"/>
      <path d="M 44.28125 53.078125
L 44.28125 44.578125
Q 40.484375 46.53125 36.375 47.5
Q 32.28125 48.484375 27.875 48.484375
Q 21.1875 48.484375 17.84375 46.4375
Q 14.5 44.390625 14.5 40.28125
Q 14.5 37.15625 16.890625 35.375
Q 19.28125 33.59375 26.515625 31.984375
L 29.59375 31.296875
Q 39.15625 29.25 43.1875 25.515625
Q 47.21875 21.78125 47.21875 15.09375
Q 47.21875 7.46875 41.1875 3.015625
Q 35.15625 -1.421875 24.609375 -1.421875
Q 20.21875 -1.421875 15.453125 -0.5625
Q 10.6875 0.296875 5.421875 2
L 5.421875 11.28125
Q 10.40625 8.6875 15.234375 7.390625
Q 20.0625 6.109375 24.8125 6.109375
Q 31.15625 6.109375 34.5625 8.28125
Q 37.984375 10.453125 37.984375 14.40625
Q 37.984375 18.0625 35.515625 20.015625
Q 33.0625 21.96875 24.703125 23.78125
L 21.578125 24.515625
Q 13.234375 26.265625 9.515625 29.90625
Q 5.8125 33.546875 5.8125 39.890625
Q 5.8125 47.609375 11.28125 51.796875
Q 16.75 56 26.8125 56
Q 31.78125 56 36.171875 55.265625
Q 40.578125 54.546875 44.28125 53.078125
z
" id="DejaVuSans-115"/>
      <path d="M 18.3125 70.21875
L 18.3125 54.6875
L 36.8125 54.6875
L 36.8125 47.703125
L 18.3125 47.703125
L 18.3125 18.015625
Q 18.3125 11.328125 20.140625 9.421875
Q 21.96875 7.515625 27.59375 7.515625
L 36.8125 7.515625
L 36.8125 0
L 27.59375 0
Q 17.1875 0 13.234375 3.875
Q 9.28125 7.765625 9.28125 18.015625
L 9.28125 47.703125
L 2.6875 47.703125
L 2.6875 54.6875
L 9.28125 54.6875
L 9.28125 70.21875
z
" id="DejaVuSans-116"/>
      <path id="DejaVuSans-32"/>
      <path d="M 18.109375 8.203125
L 18.109375 -20.796875
L 9.078125 -20.796875
L 9.078125 54.6875
L 18.109375 54.6875
L 18.109375 46.390625
Q 20.953125 51.265625 25.265625 53.625
Q 29.59375 56 35.59375 56
Q 45.5625 56 51.78125 48.09375
Q 58.015625 40.1875 58.015625 27.296875
Q 58.015625 14.40625 51.78125 6.484375
Q 45.5625 -1.421875 35.59375 -1.421875
Q 29.59375 -1.421875 25.265625 0.953125
Q 20.953125 3.328125 18.109375 8.203125
z
M 48.6875 27.296875
Q 48.6875 37.203125 44.609375 42.84375
Q 40.53125 48.484375 33.40625 48.484375
Q 26.265625 48.484375 22.1875 42.84375
Q 18.109375 37.203125 18.109375 27.296875
Q 18.109375 17.390625 22.1875 11.75
Q 26.265625 6.109375 33.40625 6.109375
Q 40.53125 6.109375 44.609375 11.75
Q 48.6875 17.390625 48.6875 27.296875
z
" id="DejaVuSans-112"/>
      <path d="M 2.984375 54.6875
L 12.5 54.6875
L 29.59375 8.796875
L 46.6875 54.6875
L 56.203125 54.6875
L 35.6875 0
L 23.484375 0
z
" id="DejaVuSans-118"/>
      <path d="M 8.015625 75.875
L 15.828125 75.875
Q 23.140625 64.359375 26.78125 53.3125
Q 30.421875 42.28125 30.421875 31.390625
Q 30.421875 20.453125 26.78125 9.375
Q 23.140625 -1.703125 15.828125 -13.1875
L 8.015625 -13.1875
Q 14.5 -2 17.703125 9.0625
Q 20.90625 20.125 20.90625 31.390625
Q 20.90625 42.671875 17.703125 53.65625
Q 14.5 64.65625 8.015625 75.875
z
" id="DejaVuSans-41"/>
     </defs>
     <g transform="translate(93.316719 319.056782)scale(0.15 -0.15)">
      <use xlink:href="#DejaVuSans-45"/>
      <use x="36.083984" xlink:href="#DejaVuSans-108"/>
      <use x="63.867188" xlink:href="#DejaVuSans-111"/>
      <use x="125.048828" xlink:href="#DejaVuSans-103"/>
      <use x="188.525391" xlink:href="#DejaVuSans-49"/>
      <use x="252.148438" xlink:href="#DejaVuSans-48"/>
      <use x="315.771484" xlink:href="#DejaVuSans-40"/>
      <use x="354.785156" xlink:href="#DejaVuSans-109"/>
      <use x="452.197266" xlink:href="#DejaVuSans-101"/>
      <use x="513.720703" xlink:href="#DejaVuSans-100"/>
      <use x="577.197266" xlink:href="#DejaVuSans-105"/>
      <use x="604.980469" xlink:href="#DejaVuSans-97"/>
      <use x="666.259766" xlink:href="#DejaVuSans-110"/>
      <use x="729.638672" xlink:href="#DejaVuSans-40"/>
      <use x="768.652344" xlink:href="#DejaVuSans-97"/>
      <use x="829.931641" xlink:href="#DejaVuSans-100"/>
      <use x="893.408203" xlink:href="#DejaVuSans-106"/>
      <use x="921.191406" xlink:href="#DejaVuSans-117"/>
      <use x="984.570312" xlink:href="#DejaVuSans-115"/>
      <use x="1036.669922" xlink:href="#DejaVuSans-116"/>
      <use x="1075.878906" xlink:href="#DejaVuSans-101"/>
      <use x="1137.402344" xlink:href="#DejaVuSans-100"/>
      <use x="1200.878906" xlink:href="#DejaVuSans-32"/>
      <use x="1232.666016" xlink:href="#DejaVuSans-112"/>
      <use x="1296.142578" xlink:href="#DejaVuSans-45"/>
      <use x="1332.195312" xlink:href="#DejaVuSans-118"/>
      <use x="1391.375" xlink:href="#DejaVuSans-97"/>
      <use x="1452.654297" xlink:href="#DejaVuSans-108"/>
      <use x="1480.4375" xlink:href="#DejaVuSans-117"/>
      <use x="1543.816406" xlink:href="#DejaVuSans-101"/>
      <use x="1605.339844" xlink:href="#DejaVuSans-41"/>
      <use x="1644.353516" xlink:href="#DejaVuSans-41"/>
     </g>
    </g>
   </g>
   <g id="matplotlib.axis_2">
    <g id="ytick_1">
     <g id="line2d_13">
      <path clip-path="url(#p0fe66c69b9)" d="M 46.772188 274.599376
L 403.892188 274.599376
" style="fill:none;stroke:#e5e5e5;stroke-width:0.8;"/>
     </g>
     <g id="line2d_14">
      <path d="M 46.772188 274.599376
" style="fill:none;stroke:#000000;stroke-width:1.5;"/>
      <defs>
       <path d="M 0 0
L -2.75 0
" id="m6adeba8d5d" style="stroke:#000000;"/>
      </defs>
      <g>
       <use style="stroke:#000000;" x="46.772188" xlink:href="#m6adeba8d5d" y="274.599376"/>
      </g>
     </g>
     <g id="text_5">
      <!-- 0 -->
      <g style="fill:#4d4d4d;" transform="translate(34.187188 277.910626)scale(0.12 -0.12)">
       <use xlink:href="#DejaVuSans-48"/>
      </g>
     </g>
    </g>
    <g id="ytick_2">
     <g id="line2d_15">
      <path clip-path="url(#p0fe66c69b9)" d="M 46.772188 214.119376
L 403.892188 214.119376
" style="fill:none;stroke:#e5e5e5;stroke-width:0.8;"/>
     </g>
     <g id="line2d_16">
      <path d="M 46.772188 214.119376
" style="fill:none;stroke:#000000;stroke-width:1.5;"/>
      <g>
       <use style="stroke:#000000;" x="46.772188" xlink:href="#m6adeba8d5d" y="214.119376"/>
      </g>
     </g>
     <g id="text_6">
      <!-- 25 -->
      <defs>
       <path d="M 10.796875 72.90625
L 49.515625 72.90625
L 49.515625 64.59375
L 19.828125 64.59375
L 19.828125 46.734375
Q 21.96875 47.46875 24.109375 47.828125
Q 26.265625 48.1875 28.421875 48.1875
Q 40.625 48.1875 47.75 41.5
Q 54.890625 34.8125 54.890625 23.390625
Q 54.890625 11.625 47.5625 5.09375
Q 40.234375 -1.421875 26.90625 -1.421875
Q 22.3125 -1.421875 17.546875 -0.640625
Q 12.796875 0.140625 7.71875 1.703125
L 7.71875 11.625
Q 12.109375 9.234375 16.796875 8.0625
Q 21.484375 6.890625 26.703125 6.890625
Q 35.15625 6.890625 40.078125 11.328125
Q 45.015625 15.765625 45.015625 23.390625
Q 45.015625 31 40.078125 35.4375
Q 35.15625 39.890625 26.703125 39.890625
Q 22.75 39.890625 18.8125 39.015625
Q 14.890625 38.140625 10.796875 36.28125
z
" id="DejaVuSans-53"/>
      </defs>
      <g style="fill:#4d4d4d;" transform="translate(26.552188 217.430626)scale(0.12 -0.12)">
       <use xlink:href="#DejaVuSans-50"/>
       <use x="63.623047" xlink:href="#DejaVuSans-53"/>
      </g>
     </g>
    </g>
    <g id="ytick_3">
     <g id="line2d_17">
      <path clip-path="url(#p0fe66c69b9)" d="M 46.772188 153.639376
L 403.892188 153.639376
" style="fill:none;stroke:#e5e5e5;stroke-width:0.8;"/>
     </g>
     <g id="line2d_18">
      <path d="M 46.772188 153.639376
" style="fill:none;stroke:#000000;stroke-width:1.5;"/>
      <g>
       <use style="stroke:#000000;" x="46.772188" xlink:href="#m6adeba8d5d" y="153.639376"/>
      </g>
     </g>
     <g id="text_7">
      <!-- 50 -->
      <g style="fill:#4d4d4d;" transform="translate(26.552188 156.950626)scale(0.12 -0.12)">
       <use xlink:href="#DejaVuSans-53"/>
       <use x="63.623047" xlink:href="#DejaVuSans-48"/>
      </g>
     </g>
    </g>
    <g id="ytick_4">
     <g id="line2d_19">
      <path clip-path="url(#p0fe66c69b9)" d="M 46.772188 93.159376
L 403.892188 93.159376
" style="fill:none;stroke:#e5e5e5;stroke-width:0.8;"/>
     </g>
     <g id="line2d_20">
      <path d="M 46.772188 93.159376
" style="fill:none;stroke:#000000;stroke-width:1.5;"/>
      <g>
       <use style="stroke:#000000;" x="46.772188" xlink:href="#m6adeba8d5d" y="93.159376"/>
      </g>
     </g>
     <g id="text_8">
      <!-- 75 -->
      <defs>
       <path d="M 8.203125 72.90625
L 55.078125 72.90625
L 55.078125 68.703125
L 28.609375 0
L 18.3125 0
L 43.21875 64.59375
L 8.203125 64.59375
z
" id="DejaVuSans-55"/>
      </defs>
      <g style="fill:#4d4d4d;" transform="translate(26.552188 96.470626)scale(0.12 -0.12)">
       <use xlink:href="#DejaVuSans-55"/>
       <use x="63.623047" xlink:href="#DejaVuSans-53"/>
      </g>
     </g>
    </g>
    <g id="ytick_5">
     <g id="line2d_21">
      <path clip-path="url(#p0fe66c69b9)" d="M 46.772188 32.679376
L 403.892188 32.679376
" style="fill:none;stroke:#e5e5e5;stroke-width:0.8;"/>
     </g>
     <g id="line2d_22">
      <path d="M 46.772188 32.679376
" style="fill:none;stroke:#000000;stroke-width:1.5;"/>
      <g>
       <use style="stroke:#000000;" x="46.772188" xlink:href="#m6adeba8d5d" y="32.679376"/>
      </g>
     </g>
     <g id="text_9">
      <!-- 100 -->
      <g style="fill:#4d4d4d;" transform="translate(18.917188 35.990626)scale(0.12 -0.12)">
       <use xlink:href="#DejaVuSans-49"/>
       <use x="63.623047" xlink:href="#DejaVuSans-48"/>
       <use x="127.246094" xlink:href="#DejaVuSans-48"/>
      </g>
     </g>
    </g>
    <g id="ytick_6">
     <g id="line2d_23">
      <path clip-path="url(#p0fe66c69b9)" d="M 46.772188 244.359376
L 403.892188 244.359376
" style="fill:none;stroke:#fafafa;"/>
     </g>
     <g id="line2d_24">
      <path d="M 46.772188 244.359376
" style="fill:none;stroke:#000000;stroke-width:1.5;"/>
     </g>
    </g>
    <g id="ytick_7">
     <g id="line2d_25">
      <path clip-path="url(#p0fe66c69b9)" d="M 46.772188 183.879376
L 403.892188 183.879376
" style="fill:none;stroke:#fafafa;"/>
     </g>
     <g id="line2d_26">
      <path d="M 46.772188 183.879376
" style="fill:none;stroke:#000000;stroke-width:1.5;"/>
     </g>
    </g>
    <g id="ytick_8">
     <g id="line2d_27">
      <path clip-path="url(#p0fe66c69b9)" d="M 46.772188 123.399376
L 403.892188 123.399376
" style="fill:none;stroke:#fafafa;"/>
     </g>
     <g id="line2d_28">
      <path d="M 46.772188 123.399376
" style="fill:none;stroke:#000000;stroke-width:1.5;"/>
     </g>
    </g>
    <g id="ytick_9">
     <g id="line2d_29">
      <path clip-path="url(#p0fe66c69b9)" d="M 46.772188 62.919376
L 403.892188 62.919376
" style="fill:none;stroke:#fafafa;"/>
     </g>
     <g id="line2d_30">
      <path d="M 46.772188 62.919376
" style="fill:none;stroke:#000000;stroke-width:1.5;"/>
     </g>
    </g>
    <g id="text_10">
     <!-- Genericness (percentile of ranking) -->
     <defs>
      <path d="M 59.515625 10.40625
L 59.515625 29.984375
L 43.40625 29.984375
L 43.40625 38.09375
L 69.28125 38.09375
L 69.28125 6.78125
Q 63.578125 2.734375 56.6875 0.65625
Q 49.8125 -1.421875 42 -1.421875
Q 24.90625 -1.421875 15.25 8.5625
Q 5.609375 18.5625 5.609375 36.375
Q 5.609375 54.25 15.25 64.234375
Q 24.90625 74.21875 42 74.21875
Q 49.125 74.21875 55.546875 72.453125
Q 61.96875 70.703125 67.390625 67.28125
L 67.390625 56.78125
Q 61.921875 61.421875 55.765625 63.765625
Q 49.609375 66.109375 42.828125 66.109375
Q 29.4375 66.109375 22.71875 58.640625
Q 16.015625 51.171875 16.015625 36.375
Q 16.015625 21.625 22.71875 14.15625
Q 29.4375 6.6875 42.828125 6.6875
Q 48.046875 6.6875 52.140625 7.59375
Q 56.25 8.5 59.515625 10.40625
z
" id="DejaVuSans-71"/>
      <path d="M 41.109375 46.296875
Q 39.59375 47.171875 37.8125 47.578125
Q 36.03125 48 33.890625 48
Q 26.265625 48 22.1875 43.046875
Q 18.109375 38.09375 18.109375 28.8125
L 18.109375 0
L 9.078125 0
L 9.078125 54.6875
L 18.109375 54.6875
L 18.109375 46.1875
Q 20.953125 51.171875 25.484375 53.578125
Q 30.03125 56 36.53125 56
Q 37.453125 56 38.578125 55.875
Q 39.703125 55.765625 41.0625 55.515625
z
" id="DejaVuSans-114"/>
      <path d="M 48.78125 52.59375
L 48.78125 44.1875
Q 44.96875 46.296875 41.140625 47.34375
Q 37.3125 48.390625 33.40625 48.390625
Q 24.65625 48.390625 19.8125 42.84375
Q 14.984375 37.3125 14.984375 27.296875
Q 14.984375 17.28125 19.8125 11.734375
Q 24.65625 6.203125 33.40625 6.203125
Q 37.3125 6.203125 41.140625 7.25
Q 44.96875 8.296875 48.78125 10.40625
L 48.78125 2.09375
Q 45.015625 0.34375 40.984375 -0.53125
Q 36.96875 -1.421875 32.421875 -1.421875
Q 20.0625 -1.421875 12.78125 6.34375
Q 5.515625 14.109375 5.515625 27.296875
Q 5.515625 40.671875 12.859375 48.328125
Q 20.21875 56 33.015625 56
Q 37.15625 56 41.109375 55.140625
Q 45.0625 54.296875 48.78125 52.59375
z
" id="DejaVuSans-99"/>
      <path d="M 37.109375 75.984375
L 37.109375 68.5
L 28.515625 68.5
Q 23.6875 68.5 21.796875 66.546875
Q 19.921875 64.59375 19.921875 59.515625
L 19.921875 54.6875
L 34.71875 54.6875
L 34.71875 47.703125
L 19.921875 47.703125
L 19.921875 0
L 10.890625 0
L 10.890625 47.703125
L 2.296875 47.703125
L 2.296875 54.6875
L 10.890625 54.6875
L 10.890625 58.5
Q 10.890625 67.625 15.140625 71.796875
Q 19.390625 75.984375 28.609375 75.984375
z
" id="DejaVuSans-102"/>
      <path d="M 9.078125 75.984375
L 18.109375 75.984375
L 18.109375 31.109375
L 44.921875 54.6875
L 56.390625 54.6875
L 27.390625 29.109375
L 57.625 0
L 45.90625 0
L 18.109375 26.703125
L 18.109375 0
L 9.078125 0
z
" id="DejaVuSans-107"/>
     </defs>
     <g transform="translate(11.397656 284.455126)rotate(-90)scale(0.15 -0.15)">
      <use xlink:href="#DejaVuSans-71"/>
      <use x="77.490234" xlink:href="#DejaVuSans-101"/>
      <use x="139.013672" xlink:href="#DejaVuSans-110"/>
      <use x="202.392578" xlink:href="#DejaVuSans-101"/>
      <use x="263.916016" xlink:href="#DejaVuSans-114"/>
      <use x="305.029297" xlink:href="#DejaVuSans-105"/>
      <use x="332.8125" xlink:href="#DejaVuSans-99"/>
      <use x="387.792969" xlink:href="#DejaVuSans-110"/>
      <use x="451.171875" xlink:href="#DejaVuSans-101"/>
      <use x="512.695312" xlink:href="#DejaVuSans-115"/>
      <use x="564.794922" xlink:href="#DejaVuSans-115"/>
      <use x="616.894531" xlink:href="#DejaVuSans-32"/>
      <use x="648.681641" xlink:href="#DejaVuSans-40"/>
      <use x="687.695312" xlink:href="#DejaVuSans-112"/>
      <use x="751.171875" xlink:href="#DejaVuSans-101"/>
      <use x="812.695312" xlink:href="#DejaVuSans-114"/>
      <use x="853.777344" xlink:href="#DejaVuSans-99"/>
      <use x="908.757812" xlink:href="#DejaVuSans-101"/>
      <use x="970.28125" xlink:href="#DejaVuSans-110"/>
      <use x="1033.660156" xlink:href="#DejaVuSans-116"/>
      <use x="1072.869141" xlink:href="#DejaVuSans-105"/>
      <use x="1100.652344" xlink:href="#DejaVuSans-108"/>
      <use x="1128.435547" xlink:href="#DejaVuSans-101"/>
      <use x="1189.958984" xlink:href="#DejaVuSans-32"/>
      <use x="1221.746094" xlink:href="#DejaVuSans-111"/>
      <use x="1282.927734" xlink:href="#DejaVuSans-102"/>
      <use x="1318.132812" xlink:href="#DejaVuSans-32"/>
      <use x="1349.919922" xlink:href="#DejaVuSans-114"/>
      <use x="1391.033203" xlink:href="#DejaVuSans-97"/>
      <use x="1452.3125" xlink:href="#DejaVuSans-110"/>
      <use x="1515.691406" xlink:href="#DejaVuSans-107"/>
      <use x="1573.601562" xlink:href="#DejaVuSans-105"/>
      <use x="1601.384766" xlink:href="#DejaVuSans-110"/>
      <use x="1664.763672" xlink:href="#DejaVuSans-103"/>
      <use x="1728.240234" xlink:href="#DejaVuSans-41"/>
     </g>
    </g>
   </g>
   <g id="PathCollection_1">
    <path clip-path="url(#p0fe66c69b9)" d="M 70.114012 211.134976
C 70.584073 211.134976 71.034944 210.948219 71.367326 210.615836
C 71.699709 210.283453 71.886466 209.832582 71.886466 209.362522
C 71.886466 208.892462 71.699709 208.441591 71.367326 208.109208
C 71.034944 207.776825 70.584073 207.590068 70.114012 207.590068
C 69.643952 207.590068 69.193081 207.776825 68.860698 208.109208
C 68.528315 208.441591 68.341559 208.892462 68.341559 209.362522
C 68.341559 209.832582 68.528315 210.283453 68.860698 210.615836
C 69.193081 210.948219 69.643952 211.134976 70.114012 211.134976
z
" style="stroke:#000000;stroke-width:0.886227;"/>
    <path clip-path="url(#p0fe66c69b9)" d="M 63.004915 276.37183
C 63.474975 276.37183 63.925846 276.185073 64.258229 275.85269
C 64.590612 275.520307 64.777369 275.069436 64.777369 274.599376
C 64.777369 274.129316 64.590612 273.678444 64.258229 273.346062
C 63.925846 273.013679 63.474975 272.826922 63.004915 272.826922
C 62.534855 272.826922 62.083983 273.013679 61.751601 273.346062
C 61.419218 273.678444 61.232461 274.129316 61.232461 274.599376
C 61.232461 275.069436 61.419218 275.520307 61.751601 275.85269
C 62.083983 276.185073 62.534855 276.37183 63.004915 276.37183
z
" style="stroke:#000000;stroke-width:0.886227;"/>
    <path clip-path="url(#p0fe66c69b9)" d="M 70.114012 211.134976
C 70.584073 211.134976 71.034944 210.948219 71.367326 210.615836
C 71.699709 210.283453 71.886466 209.832582 71.886466 209.362522
C 71.886466 208.892462 71.699709 208.441591 71.367326 208.109208
C 71.034944 207.776825 70.584073 207.590068 70.114012 207.590068
C 69.643952 207.590068 69.193081 207.776825 68.860698 208.109208
C 68.528315 208.441591 68.341559 208.892462 68.341559 209.362522
C 68.341559 209.832582 68.528315 210.283453 68.860698 210.615836
C 69.193081 210.948219 69.643952 211.134976 70.114012 211.134976
z
" style="stroke:#000000;stroke-width:0.886227;"/>
    <path clip-path="url(#p0fe66c69b9)" d="M 126.442353 99.688684
C 126.912413 99.688684 127.363284 99.501927 127.695667 99.169544
C 128.02805 98.837161 128.214807 98.38629 128.214807 97.91623
C 128.214807 97.446169 128.02805 96.995298 127.695667 96.662916
C 127.363284 96.330533 126.912413 96.143776 126.442353 96.143776
C 125.972293 96.143776 125.521422 96.330533 125.189039 96.662916
C 124.856656 96.995298 124.669899 97.446169 124.669899 97.91623
C 124.669899 98.38629 124.856656 98.837161 125.189039 99.169544
C 125.521422 99.501927 125.972293 99.688684 126.442353 99.688684
z
" style="stroke:#000000;stroke-width:0.886227;"/>
    <path clip-path="url(#p0fe66c69b9)" d="M 63.004915 276.37183
C 63.474975 276.37183 63.925846 276.185073 64.258229 275.85269
C 64.590612 275.520307 64.777369 275.069436 64.777369 274.599376
C 64.777369 274.129316 64.590612 273.678444 64.258229 273.346062
C 63.925846 273.013679 63.474975 272.826922 63.004915 272.826922
C 62.534855 272.826922 62.083983 273.013679 61.751601 273.346062
C 61.419218 273.678444 61.232461 274.129316 61.232461 274.599376
C 61.232461 275.069436 61.419218 275.520307 61.751601 275.85269
C 62.083983 276.185073 62.534855 276.37183 63.004915 276.37183
z
" style="stroke:#000000;stroke-width:0.886227;"/>
    <path clip-path="url(#p0fe66c69b9)" d="M 67.436449 224.725987
C 67.906509 224.725987 68.35738 224.53923 68.689763 224.206847
C 69.022146 223.874464 69.208903 223.423593 69.208903 222.953533
C 69.208903 222.483473 69.022146 222.032602 68.689763 221.700219
C 68.35738 221.367836 67.906509 221.181079 67.436449 221.181079
C 66.966389 221.181079 66.515518 221.367836 66.183135 221.700219
C 65.850752 222.032602 65.663995 222.483473 65.663995 222.953533
C 65.663995 223.423593 65.850752 223.874464 66.183135 224.206847
C 66.515518 224.53923 66.966389 224.725987 67.436449 224.725987
z
" style="stroke:#000000;stroke-width:0.886227;"/>
    <path clip-path="url(#p0fe66c69b9)" d="M 63.004915 276.37183
C 63.474975 276.37183 63.925846 276.185073 64.258229 275.85269
C 64.590612 275.520307 64.777369 275.069436 64.777369 274.599376
C 64.777369 274.129316 64.590612 273.678444 64.258229 273.346062
C 63.925846 273.013679 63.474975 272.826922 63.004915 272.826922
C 62.534855 272.826922 62.083983 273.013679 61.751601 273.346062
C 61.419218 273.678444 61.232461 274.129316 61.232461 274.599376
C 61.232461 275.069436 61.419218 275.520307 61.751601 275.85269
C 62.083983 276.185073 62.534855 276.37183 63.004915 276.37183
z
" style="stroke:#000000;stroke-width:0.886227;"/>
    <path clip-path="url(#p0fe66c69b9)" d="M 63.004915 276.37183
C 63.474975 276.37183 63.925846 276.185073 64.258229 275.85269
C 64.590612 275.520307 64.777369 275.069436 64.777369 274.599376
C 64.777369 274.129316 64.590612 273.678444 64.258229 273.346062
C 63.925846 273.013679 63.474975 272.826922 63.004915 272.826922
C 62.534855 272.826922 62.083983 273.013679 61.751601 273.346062
C 61.419218 273.678444 61.232461 274.129316 61.232461 274.599376
C 61.232461 275.069436 61.419218 275.520307 61.751601 275.85269
C 62.083983 276.185073 62.534855 276.37183 63.004915 276.37183
z
" style="stroke:#000000;stroke-width:0.886227;"/>
    <path clip-path="url(#p0fe66c69b9)" d="M 64.163252 235.598796
C 64.633312 235.598796 65.084183 235.412039 65.416566 235.079656
C 65.748949 234.747273 65.935706 234.296402 65.935706 233.826342
C 65.935706 233.356282 65.748949 232.905411 65.416566 232.573028
C 65.084183 232.240645 64.633312 232.053888 64.163252 232.053888
C 63.693192 232.053888 63.242321 232.240645 62.909938 232.573028
C 62.577555 232.905411 62.390798 233.356282 62.390798 233.826342
C 62.390798 234.296402 62.577555 234.747273 62.909938 235.079656
C 63.242321 235.412039 63.693192 235.598796 64.163252 235.598796
z
" style="stroke:#000000;stroke-width:0.886227;"/>
    <path clip-path="url(#p0fe66c69b9)" d="M 387.65946 34.45183
C 388.12952 34.45183 388.580392 34.265073 388.912774 33.93269
C 389.245157 33.600307 389.431914 33.149436 389.431914 32.679376
C 389.431914 32.209316 389.245157 31.758444 388.912774 31.426062
C 388.580392 31.093679 388.12952 30.906922 387.65946 30.906922
C 387.1894 30.906922 386.738529 31.093679 386.406146 31.426062
C 386.073763 31.758444 385.887006 32.209316 385.887006 32.679376
C 385.887006 33.149436 386.073763 33.600307 386.406146 33.93269
C 386.738529 34.265073 387.1894 34.45183 387.65946 34.45183
z
" style="stroke:#000000;stroke-width:0.886227;"/>
    <path clip-path="url(#p0fe66c69b9)" d="M 91.54842 170.361942
C 92.01848 170.361942 92.469351 170.175185 92.801734 169.842802
C 93.134117 169.51042 93.320874 169.059548 93.320874 168.589488
C 93.320874 168.119428 93.134117 167.668557 92.801734 167.336174
C 92.469351 167.003791 92.01848 166.817034 91.54842 166.817034
C 91.07836 166.817034 90.627488 167.003791 90.295106 167.336174
C 89.962723 167.668557 89.775966 168.119428 89.775966 168.589488
C 89.775966 169.059548 89.962723 169.51042 90.295106 169.842802
C 90.627488 170.175185 91.07836 170.361942 91.54842 170.361942
z
" style="stroke:#000000;stroke-width:0.886227;"/>
    <path clip-path="url(#p0fe66c69b9)" d="M 107.743182 115.997897
C 108.213242 115.997897 108.664113 115.81114 108.996496 115.478757
C 109.328879 115.146375 109.515636 114.695503 109.515636 114.225443
C 109.515636 113.755383 109.328879 113.304512 108.996496 112.972129
C 108.664113 112.639746 108.213242 112.452989 107.743182 112.452989
C 107.273122 112.452989 106.822251 112.639746 106.489868 112.972129
C 106.157485 113.304512 105.970728 113.755383 105.970728 114.225443
C 105.970728 114.695503 106.157485 115.146375 106.489868 115.478757
C 106.822251 115.81114 107.273122 115.997897 107.743182 115.997897
z
" style="stroke:#000000;stroke-width:0.886227;"/>
    <path clip-path="url(#p0fe66c69b9)" d="M 308.788389 45.324639
C 309.258449 45.324639 309.70932 45.137882 310.041703 44.805499
C 310.374086 44.473116 310.560843 44.022245 310.560843 43.552185
C 310.560843 43.082125 310.374086 42.631253 310.041703 42.298871
C 309.70932 41.966488 309.258449 41.779731 308.788389 41.779731
C 308.318329 41.779731 307.867458 41.966488 307.535075 42.298871
C 307.202692 42.631253 307.015935 43.082125 307.015935 43.552185
C 307.015935 44.022245 307.202692 44.473116 307.535075 44.805499
C 307.867458 45.137882 308.318329 45.324639 308.788389 45.324639
z
" style="stroke:#000000;stroke-width:0.886227;"/>
    <path clip-path="url(#p0fe66c69b9)" d="M 66.552084 230.162391
C 67.022144 230.162391 67.473015 229.975635 67.805398 229.643252
C 68.137781 229.310869 68.324538 228.859998 68.324538 228.389938
C 68.324538 227.919877 68.137781 227.469006 67.805398 227.136623
C 67.473015 226.804241 67.022144 226.617484 66.552084 226.617484
C 66.082024 226.617484 65.631153 226.804241 65.29877 227.136623
C 64.966387 227.469006 64.77963 227.919877 64.77963 228.389938
C 64.77963 228.859998 64.966387 229.310869 65.29877 229.643252
C 65.631153 229.975635 66.082024 230.162391 66.552084 230.162391
z
" style="stroke:#000000;stroke-width:0.886227;"/>
    <path clip-path="url(#p0fe66c69b9)" d="M 63.004915 276.37183
C 63.474975 276.37183 63.925846 276.185073 64.258229 275.85269
C 64.590612 275.520307 64.777369 275.069436 64.777369 274.599376
C 64.777369 274.129316 64.590612 273.678444 64.258229 273.346062
C 63.925846 273.013679 63.474975 272.826922 63.004915 272.826922
C 62.534855 272.826922 62.083983 273.013679 61.751601 273.346062
C 61.419218 273.678444 61.232461 274.129316 61.232461 274.599376
C 61.232461 275.069436 61.419218 275.520307 61.751601 275.85269
C 62.083983 276.185073 62.534855 276.37183 63.004915 276.37183
z
" style="stroke:#000000;stroke-width:0.886227;"/>
    <path clip-path="url(#p0fe66c69b9)" d="M 342.094778 39.888234
C 342.564838 39.888234 343.015709 39.701477 343.348092 39.369094
C 343.680475 39.036712 343.867232 38.585841 343.867232 38.11578
C 343.867232 37.64572 343.680475 37.194849 343.348092 36.862466
C 343.015709 36.530083 342.564838 36.343326 342.094778 36.343326
C 341.624718 36.343326 341.173846 36.530083 340.841464 36.862466
C 340.509081 37.194849 340.322324 37.64572 340.322324 38.11578
C 340.322324 38.585841 340.509081 39.036712 340.841464 39.369094
C 341.173846 39.701477 341.624718 39.888234 342.094778 39.888234
z
" style="stroke:#000000;stroke-width:0.886227;"/>
    <path clip-path="url(#p0fe66c69b9)" d="M 63.004915 276.37183
C 63.474975 276.37183 63.925846 276.185073 64.258229 275.85269
C 64.590612 275.520307 64.777369 275.069436 64.777369 274.599376
C 64.777369 274.129316 64.590612 273.678444 64.258229 273.346062
C 63.925846 273.013679 63.474975 272.826922 63.004915 272.826922
C 62.534855 272.826922 62.083983 273.013679 61.751601 273.346062
C 61.419218 273.678444 61.232461 274.129316 61.232461 274.599376
C 61.232461 275.069436 61.419218 275.520307 61.751601 275.85269
C 62.083983 276.185073 62.534855 276.37183 63.004915 276.37183
z
" style="stroke:#000000;stroke-width:0.886227;"/>
    <path clip-path="url(#p0fe66c69b9)" d="M 69.427802 219.289582
C 69.897862 219.289582 70.348733 219.102826 70.681116 218.770443
C 71.013498 218.43806 71.200255 217.987189 71.200255 217.517129
C 71.200255 217.047068 71.013498 216.596197 70.681116 216.263814
C 70.348733 215.931432 69.897862 215.744675 69.427802 215.744675
C 68.957741 215.744675 68.50687 215.931432 68.174487 216.263814
C 67.842105 216.596197 67.655348 217.047068 67.655348 217.517129
C 67.655348 217.987189 67.842105 218.43806 68.174487 218.770443
C 68.50687 219.102826 68.957741 219.289582 69.427802 219.289582
z
" style="stroke:#000000;stroke-width:0.886227;"/>
    <path clip-path="url(#p0fe66c69b9)" d="M 171.616838 67.070257
C 172.086898 67.070257 172.537769 66.8835 172.870152 66.551117
C 173.202535 66.218734 173.389292 65.767863 173.389292 65.297803
C 173.389292 64.827743 173.202535 64.376871 172.870152 64.044489
C 172.537769 63.712106 172.086898 63.525349 171.616838 63.525349
C 171.146778 63.525349 170.695907 63.712106 170.363524 64.044489
C 170.031141 64.376871 169.844384 64.827743 169.844384 65.297803
C 169.844384 65.767863 170.031141 66.218734 170.363524 66.551117
C 170.695907 66.8835 171.146778 67.070257 171.616838 67.070257
z
" style="stroke:#000000;stroke-width:0.886227;"/>
    <path clip-path="url(#p0fe66c69b9)" d="M 123.505606 110.561493
C 123.975666 110.561493 124.426537 110.374736 124.75892 110.042353
C 125.091302 109.70997 125.278059 109.259099 125.278059 108.789039
C 125.278059 108.318978 125.091302 107.868107 124.75892 107.535725
C 124.426537 107.203342 123.975666 107.016585 123.505606 107.016585
C 123.035545 107.016585 122.584674 107.203342 122.252291 107.535725
C 121.919909 107.868107 121.733152 108.318978 121.733152 108.789039
C 121.733152 109.259099 121.919909 109.70997 122.252291 110.042353
C 122.584674 110.374736 123.035545 110.561493 123.505606 110.561493
z
" style="stroke:#000000;stroke-width:0.886227;"/>
    <path clip-path="url(#p0fe66c69b9)" d="M 97.145088 154.052729
C 97.615149 154.052729 98.06602 153.865972 98.398403 153.533589
C 98.730785 153.201206 98.917542 152.750335 98.917542 152.280275
C 98.917542 151.810214 98.730785 151.359343 98.398403 151.026961
C 98.06602 150.694578 97.615149 150.507821 97.145088 150.507821
C 96.675028 150.507821 96.224157 150.694578 95.891774 151.026961
C 95.559392 151.359343 95.372635 151.810214 95.372635 152.280275
C 95.372635 152.750335 95.559392 153.201206 95.891774 153.533589
C 96.224157 153.865972 96.675028 154.052729 97.145088 154.052729
z
" style="stroke:#000000;stroke-width:0.886227;"/>
    <path clip-path="url(#p0fe66c69b9)" d="M 63.004915 276.37183
C 63.474975 276.37183 63.925846 276.185073 64.258229 275.85269
C 64.590612 275.520307 64.777369 275.069436 64.777369 274.599376
C 64.777369 274.129316 64.590612 273.678444 64.258229 273.346062
C 63.925846 273.013679 63.474975 272.826922 63.004915 272.826922
C 62.534855 272.826922 62.083983 273.013679 61.751601 273.346062
C 61.419218 273.678444 61.232461 274.129316 61.232461 274.599376
C 61.232461 275.069436 61.419218 275.520307 61.751601 275.85269
C 62.083983 276.185073 62.534855 276.37183 63.004915 276.37183
z
" style="stroke:#000000;stroke-width:0.886227;"/>
    <path clip-path="url(#p0fe66c69b9)" d="M 101.47373 143.17992
C 101.943791 143.17992 102.394662 142.993163 102.727044 142.66078
C 103.059427 142.328397 103.246184 141.877526 103.246184 141.407466
C 103.246184 140.937405 103.059427 140.486534 102.727044 140.154152
C 102.394662 139.821769 101.943791 139.635012 101.47373 139.635012
C 101.00367 139.635012 100.552799 139.821769 100.220416 140.154152
C 99.888033 140.486534 99.701276 140.937405 99.701276 141.407466
C 99.701276 141.877526 99.888033 142.328397 100.220416 142.66078
C 100.552799 142.993163 101.00367 143.17992 101.47373 143.17992
z
" style="stroke:#000000;stroke-width:0.886227;"/>
    <path clip-path="url(#p0fe66c69b9)" d="M 102.592762 137.743515
C 103.062822 137.743515 103.513693 137.556758 103.846076 137.224375
C 104.178459 136.891993 104.365216 136.441121 104.365216 135.971061
C 104.365216 135.501001 104.178459 135.05013 103.846076 134.717747
C 103.513693 134.385364 103.062822 134.198607 102.592762 134.198607
C 102.122702 134.198607 101.671831 134.385364 101.339448 134.717747
C 101.007065 135.05013 100.820308 135.501001 100.820308 135.971061
C 100.820308 136.441121 101.007065 136.891993 101.339448 137.224375
C 101.671831 137.556758 102.122702 137.743515 102.592762 137.743515
z
" style="stroke:#000000;stroke-width:0.886227;"/>
    <path clip-path="url(#p0fe66c69b9)" d="M 128.779083 88.815875
C 129.249144 88.815875 129.700015 88.629118 130.032398 88.296735
C 130.36478 87.964352 130.551537 87.513481 130.551537 87.043421
C 130.551537 86.573361 130.36478 86.122489 130.032398 85.790107
C 129.700015 85.457724 129.249144 85.270967 128.779083 85.270967
C 128.309023 85.270967 127.858152 85.457724 127.525769 85.790107
C 127.193386 86.122489 127.00663 86.573361 127.00663 87.043421
C 127.00663 87.513481 127.193386 87.964352 127.525769 88.296735
C 127.858152 88.629118 128.309023 88.815875 128.779083 88.815875
z
" style="stroke:#000000;stroke-width:0.886227;"/>
    <path clip-path="url(#p0fe66c69b9)" d="M 164.548599 72.506661
C 165.018659 72.506661 165.46953 72.319904 165.801913 71.987521
C 166.134296 71.655139 166.321053 71.204268 166.321053 70.734207
C 166.321053 70.264147 166.134296 69.813276 165.801913 69.480893
C 165.46953 69.14851 165.018659 68.961753 164.548599 68.961753
C 164.078539 68.961753 163.627668 69.14851 163.295285 69.480893
C 162.962902 69.813276 162.776145 70.264147 162.776145 70.734207
C 162.776145 71.204268 162.962902 71.655139 163.295285 71.987521
C 163.627668 72.319904 164.078539 72.506661 164.548599 72.506661
z
" style="stroke:#000000;stroke-width:0.886227;"/>
    <path clip-path="url(#p0fe66c69b9)" d="M 191.970946 50.761043
C 192.441006 50.761043 192.891877 50.574286 193.22426 50.241903
C 193.556643 49.909521 193.7434 49.45865 193.7434 48.988589
C 193.7434 48.518529 193.556643 48.067658 193.22426 47.735275
C 192.891877 47.402892 192.441006 47.216135 191.970946 47.216135
C 191.500886 47.216135 191.050014 47.402892 190.717632 47.735275
C 190.385249 48.067658 190.198492 48.518529 190.198492 48.988589
C 190.198492 49.45865 190.385249 49.909521 190.717632 50.241903
C 191.050014 50.574286 191.500886 50.761043 191.970946 50.761043
z
" style="stroke:#000000;stroke-width:0.886227;"/>
    <path clip-path="url(#p0fe66c69b9)" d="M 191.89223 56.197448
C 192.36229 56.197448 192.813161 56.010691 193.145544 55.678308
C 193.477927 55.345925 193.664684 54.895054 193.664684 54.424994
C 193.664684 53.954934 193.477927 53.504062 193.145544 53.17168
C 192.813161 52.839297 192.36229 52.65254 191.89223 52.65254
C 191.42217 52.65254 190.971299 52.839297 190.638916 53.17168
C 190.306533 53.504062 190.119776 53.954934 190.119776 54.424994
C 190.119776 54.895054 190.306533 55.345925 190.638916 55.678308
C 190.971299 56.010691 191.42217 56.197448 191.89223 56.197448
z
" style="stroke:#000000;stroke-width:0.886227;"/>
    <path clip-path="url(#p0fe66c69b9)" d="M 73.004628 192.10756
C 73.474688 192.10756 73.925559 191.920803 74.257942 191.58842
C 74.590325 191.256037 74.777082 190.805166 74.777082 190.335106
C 74.777082 189.865046 74.590325 189.414175 74.257942 189.081792
C 73.925559 188.749409 73.474688 188.562652 73.004628 188.562652
C 72.534568 188.562652 72.083697 188.749409 71.751314 189.081792
C 71.418931 189.414175 71.232174 189.865046 71.232174 190.335106
C 71.232174 190.805166 71.418931 191.256037 71.751314 191.58842
C 72.083697 191.920803 72.534568 192.10756 73.004628 192.10756
z
" style="stroke:#000000;stroke-width:0.886227;"/>
    <path clip-path="url(#p0fe66c69b9)" d="M 92.170148 164.925538
C 92.640208 164.925538 93.091079 164.738781 93.423462 164.406398
C 93.755845 164.074015 93.942602 163.623144 93.942602 163.153084
C 93.942602 162.683023 93.755845 162.232152 93.423462 161.89977
C 93.091079 161.567387 92.640208 161.38063 92.170148 161.38063
C 91.700088 161.38063 91.249217 161.567387 90.916834 161.89977
C 90.584451 162.232152 90.397694 162.683023 90.397694 163.153084
C 90.397694 163.623144 90.584451 164.074015 90.916834 164.406398
C 91.249217 164.738781 91.700088 164.925538 92.170148 164.925538
z
" style="stroke:#000000;stroke-width:0.886227;"/>
    <path clip-path="url(#p0fe66c69b9)" d="M 63.659745 246.471605
C 64.129805 246.471605 64.580676 246.284848 64.913059 245.952465
C 65.245441 245.620082 65.432198 245.169211 65.432198 244.699151
C 65.432198 244.229091 65.245441 243.77822 64.913059 243.445837
C 64.580676 243.113454 64.129805 242.926697 63.659745 242.926697
C 63.189684 242.926697 62.738813 243.113454 62.40643 243.445837
C 62.074048 243.77822 61.887291 244.229091 61.887291 244.699151
C 61.887291 245.169211 62.074048 245.620082 62.40643 245.952465
C 62.738813 246.284848 63.189684 246.471605 63.659745 246.471605
z
" style="stroke:#000000;stroke-width:0.886227;"/>
    <path clip-path="url(#p0fe66c69b9)" d="M 98.875834 148.616324
C 99.345894 148.616324 99.796765 148.429567 100.129148 148.097184
C 100.461531 147.764802 100.648288 147.31393 100.648288 146.84387
C 100.648288 146.37381 100.461531 145.922939 100.129148 145.590556
C 99.796765 145.258173 99.345894 145.071416 98.875834 145.071416
C 98.405773 145.071416 97.954902 145.258173 97.62252 145.590556
C 97.290137 145.922939 97.10338 146.37381 97.10338 146.84387
C 97.10338 147.31393 97.290137 147.764802 97.62252 148.097184
C 97.954902 148.429567 98.405773 148.616324 98.875834 148.616324
z
" style="stroke:#000000;stroke-width:0.886227;"/>
    <path clip-path="url(#p0fe66c69b9)" d="M 73.199696 186.671156
C 73.669756 186.671156 74.120627 186.484399 74.45301 186.152016
C 74.785393 185.819633 74.97215 185.368762 74.97215 184.898702
C 74.97215 184.428641 74.785393 183.97777 74.45301 183.645388
C 74.120627 183.313005 73.669756 183.126248 73.199696 183.126248
C 72.729636 183.126248 72.278765 183.313005 71.946382 183.645388
C 71.613999 183.97777 71.427242 184.428641 71.427242 184.898702
C 71.427242 185.368762 71.613999 185.819633 71.946382 186.152016
C 72.278765 186.484399 72.729636 186.671156 73.199696 186.671156
z
" style="stroke:#000000;stroke-width:0.886227;"/>
    <path clip-path="url(#p0fe66c69b9)" d="M 73.456309 181.234751
C 73.926369 181.234751 74.37724 181.047994 74.709623 180.715611
C 75.042006 180.383229 75.228763 179.932357 75.228763 179.462297
C 75.228763 178.992237 75.042006 178.541366 74.709623 178.208983
C 74.37724 177.8766 73.926369 177.689843 73.456309 177.689843
C 72.986249 177.689843 72.535377 177.8766 72.202995 178.208983
C 71.870612 178.541366 71.683855 178.992237 71.683855 179.462297
C 71.683855 179.932357 71.870612 180.383229 72.202995 180.715611
C 72.535377 181.047994 72.986249 181.234751 73.456309 181.234751
z
" style="stroke:#000000;stroke-width:0.886227;"/>
    <path clip-path="url(#p0fe66c69b9)" d="M 72.300879 197.543964
C 72.770939 197.543964 73.22181 197.357208 73.554193 197.024825
C 73.886576 196.692442 74.073333 196.241571 74.073333 195.771511
C 74.073333 195.30145 73.886576 194.850579 73.554193 194.518197
C 73.22181 194.185814 72.770939 193.999057 72.300879 193.999057
C 71.830819 193.999057 71.379947 194.185814 71.047565 194.518197
C 70.715182 194.850579 70.528425 195.30145 70.528425 195.771511
C 70.528425 196.241571 70.715182 196.692442 71.047565 197.024825
C 71.379947 197.357208 71.830819 197.543964 72.300879 197.543964
z
" style="stroke:#000000;stroke-width:0.886227;"/>
    <path clip-path="url(#p0fe66c69b9)" d="M 104.917215 126.870706
C 105.387275 126.870706 105.838146 126.683949 106.170529 126.351566
C 106.502912 126.019184 106.689669 125.568312 106.689669 125.098252
C 106.689669 124.628192 106.502912 124.177321 106.170529 123.844938
C 105.838146 123.512555 105.387275 123.325798 104.917215 123.325798
C 104.447154 123.325798 103.996283 123.512555 103.663901 123.844938
C 103.331518 124.177321 103.144761 124.628192 103.144761 125.098252
C 103.144761 125.568312 103.331518 126.019184 103.663901 126.351566
C 103.996283 126.683949 104.447154 126.870706 104.917215 126.870706
z
" style="stroke:#000000;stroke-width:0.886227;"/>
    <path clip-path="url(#p0fe66c69b9)" d="M 102.890608 132.307111
C 103.360668 132.307111 103.81154 132.120354 104.143922 131.787971
C 104.476305 131.455588 104.663062 131.004717 104.663062 130.534657
C 104.663062 130.064596 104.476305 129.613725 104.143922 129.281343
C 103.81154 128.94896 103.360668 128.762203 102.890608 128.762203
C 102.420548 128.762203 101.969677 128.94896 101.637294 129.281343
C 101.304911 129.613725 101.118154 130.064596 101.118154 130.534657
C 101.118154 131.004717 101.304911 131.455588 101.637294 131.787971
C 101.969677 132.120354 102.420548 132.307111 102.890608 132.307111
z
" style="stroke:#000000;stroke-width:0.886227;"/>
    <path clip-path="url(#p0fe66c69b9)" d="M 123.715378 105.125088
C 124.185438 105.125088 124.636309 104.938331 124.968692 104.605948
C 125.301075 104.273566 125.487832 103.822695 125.487832 103.352634
C 125.487832 102.882574 125.301075 102.431703 124.968692 102.09932
C 124.636309 101.766937 124.185438 101.58018 123.715378 101.58018
C 123.245318 101.58018 122.794447 101.766937 122.462064 102.09932
C 122.129681 102.431703 121.942924 102.882574 121.942924 103.352634
C 121.942924 103.822695 122.129681 104.273566 122.462064 104.605948
C 122.794447 104.938331 123.245318 105.125088 123.715378 105.125088
z
" style="stroke:#000000;stroke-width:0.886227;"/>
    <path clip-path="url(#p0fe66c69b9)" d="M 182.47633 61.633852
C 182.94639 61.633852 183.397262 61.447095 183.729644 61.114712
C 184.062027 60.78233 184.248784 60.331459 184.248784 59.861398
C 184.248784 59.391338 184.062027 58.940467 183.729644 58.608084
C 183.397262 58.275701 182.94639 58.088944 182.47633 58.088944
C 182.00627 58.088944 181.555399 58.275701 181.223016 58.608084
C 180.890633 58.940467 180.703876 59.391338 180.703876 59.861398
C 180.703876 60.331459 180.890633 60.78233 181.223016 61.114712
C 181.555399 61.447095 182.00627 61.633852 182.47633 61.633852
z
" style="stroke:#000000;stroke-width:0.886227;"/>
    <path clip-path="url(#p0fe66c69b9)" d="M 63.004915 276.37183
C 63.474975 276.37183 63.925846 276.185073 64.258229 275.85269
C 64.590612 275.520307 64.777369 275.069436 64.777369 274.599376
C 64.777369 274.129316 64.590612 273.678444 64.258229 273.346062
C 63.925846 273.013679 63.474975 272.826922 63.004915 272.826922
C 62.534855 272.826922 62.083983 273.013679 61.751601 273.346062
C 61.419218 273.678444 61.232461 274.129316 61.232461 274.599376
C 61.232461 275.069436 61.419218 275.520307 61.751601 275.85269
C 62.083983 276.185073 62.534855 276.37183 63.004915 276.37183
z
" style="stroke:#000000;stroke-width:0.886227;"/>
    <path clip-path="url(#p0fe66c69b9)" d="M 63.004915 276.37183
C 63.474975 276.37183 63.925846 276.185073 64.258229 275.85269
C 64.590612 275.520307 64.777369 275.069436 64.777369 274.599376
C 64.777369 274.129316 64.590612 273.678444 64.258229 273.346062
C 63.925846 273.013679 63.474975 272.826922 63.004915 272.826922
C 62.534855 272.826922 62.083983 273.013679 61.751601 273.346062
C 61.419218 273.678444 61.232461 274.129316 61.232461 274.599376
C 61.232461 275.069436 61.419218 275.520307 61.751601 275.85269
C 62.083983 276.185073 62.534855 276.37183 63.004915 276.37183
z
" style="stroke:#000000;stroke-width:0.886227;"/>
    <path clip-path="url(#p0fe66c69b9)" d="M 93.731489 159.489133
C 94.20155 159.489133 94.652421 159.302376 94.984804 158.969993
C 95.317186 158.637611 95.503943 158.186739 95.503943 157.716679
C 95.503943 157.246619 95.317186 156.795748 94.984804 156.463365
C 94.652421 156.130982 94.20155 155.944225 93.731489 155.944225
C 93.261429 155.944225 92.810558 156.130982 92.478175 156.463365
C 92.145793 156.795748 91.959036 157.246619 91.959036 157.716679
C 91.959036 158.186739 92.145793 158.637611 92.478175 158.969993
C 92.810558 159.302376 93.261429 159.489133 93.731489 159.489133
z
" style="stroke:#000000;stroke-width:0.886227;"/>
    <path clip-path="url(#p0fe66c69b9)" d="M 74.16926 175.798347
C 74.63932 175.798347 75.090191 175.61159 75.422574 175.279207
C 75.754956 174.946824 75.941713 174.495953 75.941713 174.025893
C 75.941713 173.555832 75.754956 173.104961 75.422574 172.772579
C 75.090191 172.440196 74.63932 172.253439 74.16926 172.253439
C 73.699199 172.253439 73.248328 172.440196 72.915945 172.772579
C 72.583563 173.104961 72.396806 173.555832 72.396806 174.025893
C 72.396806 174.495953 72.583563 174.946824 72.915945 175.279207
C 73.248328 175.61159 73.699199 175.798347 74.16926 175.798347
z
" style="stroke:#000000;stroke-width:0.886227;"/>
    <path clip-path="url(#p0fe66c69b9)" d="M 146.401961 83.37947
C 146.872021 83.37947 147.322893 83.192713 147.655275 82.86033
C 147.987658 82.527948 148.174415 82.077077 148.174415 81.607016
C 148.174415 81.136956 147.987658 80.686085 147.655275 80.353702
C 147.322893 80.021319 146.872021 79.834562 146.401961 79.834562
C 145.931901 79.834562 145.48103 80.021319 145.148647 80.353702
C 144.816264 80.686085 144.629507 81.136956 144.629507 81.607016
C 144.629507 82.077077 144.816264 82.527948 145.148647 82.86033
C 145.48103 83.192713 145.931901 83.37947 146.401961 83.37947
z
" style="stroke:#000000;stroke-width:0.886227;"/>
    <path clip-path="url(#p0fe66c69b9)" d="M 105.979425 121.434302
C 106.449485 121.434302 106.900356 121.247545 107.232739 120.915162
C 107.565122 120.582779 107.751879 120.131908 107.751879 119.661848
C 107.751879 119.191787 107.565122 118.740916 107.232739 118.408534
C 106.900356 118.076151 106.449485 117.889394 105.979425 117.889394
C 105.509365 117.889394 105.058494 118.076151 104.726111 118.408534
C 104.393728 118.740916 104.206971 119.191787 104.206971 119.661848
C 104.206971 120.131908 104.393728 120.582779 104.726111 120.915162
C 105.058494 121.247545 105.509365 121.434302 105.979425 121.434302
z
" style="stroke:#000000;stroke-width:0.886227;"/>
    <path clip-path="url(#p0fe66c69b9)" d="M 63.775079 241.0352
C 64.24514 241.0352 64.696011 240.848444 65.028394 240.516061
C 65.360776 240.183678 65.547533 239.732807 65.547533 239.262747
C 65.547533 238.792686 65.360776 238.341815 65.028394 238.009432
C 64.696011 237.67705 64.24514 237.490293 63.775079 237.490293
C 63.305019 237.490293 62.854148 237.67705 62.521765 238.009432
C 62.189383 238.341815 62.002626 238.792686 62.002626 239.262747
C 62.002626 239.732807 62.189383 240.183678 62.521765 240.516061
C 62.854148 240.848444 63.305019 241.0352 63.775079 241.0352
z
" style="stroke:#000000;stroke-width:0.886227;"/>
    <path clip-path="url(#p0fe66c69b9)" d="M 63.004915 276.37183
C 63.474975 276.37183 63.925846 276.185073 64.258229 275.85269
C 64.590612 275.520307 64.777369 275.069436 64.777369 274.599376
C 64.777369 274.129316 64.590612 273.678444 64.258229 273.346062
C 63.925846 273.013679 63.474975 272.826922 63.004915 272.826922
C 62.534855 272.826922 62.083983 273.013679 61.751601 273.346062
C 61.419218 273.678444 61.232461 274.129316 61.232461 274.599376
C 61.232461 275.069436 61.419218 275.520307 61.751601 275.85269
C 62.083983 276.185073 62.534855 276.37183 63.004915 276.37183
z
" style="stroke:#000000;stroke-width:0.886227;"/>
    <path clip-path="url(#p0fe66c69b9)" d="M 71.727688 202.980369
C 72.197749 202.980369 72.64862 202.793612 72.981003 202.461229
C 73.313385 202.128846 73.500142 201.677975 73.500142 201.207915
C 73.500142 200.737855 73.313385 200.286984 72.981003 199.954601
C 72.64862 199.622218 72.197749 199.435461 71.727688 199.435461
C 71.257628 199.435461 70.806757 199.622218 70.474374 199.954601
C 70.141992 200.286984 69.955235 200.737855 69.955235 201.207915
C 69.955235 201.677975 70.141992 202.128846 70.474374 202.461229
C 70.806757 202.793612 71.257628 202.980369 71.727688 202.980369
z
" style="stroke:#000000;stroke-width:0.886227;"/>
    <path clip-path="url(#p0fe66c69b9)" d="M 128.265207 94.252279
C 128.735268 94.252279 129.186139 94.065522 129.518521 93.733139
C 129.850904 93.400757 130.037661 92.949886 130.037661 92.479825
C 130.037661 92.009765 129.850904 91.558894 129.518521 91.226511
C 129.186139 90.894128 128.735268 90.707371 128.265207 90.707371
C 127.795147 90.707371 127.344276 90.894128 127.011893 91.226511
C 126.67951 91.558894 126.492753 92.009765 126.492753 92.479825
C 126.492753 92.949886 126.67951 93.400757 127.011893 93.733139
C 127.344276 94.065522 127.795147 94.252279 128.265207 94.252279
z
" style="stroke:#000000;stroke-width:0.886227;"/>
    <path clip-path="url(#p0fe66c69b9)" d="M 146.812576 77.943066
C 147.282636 77.943066 147.733507 77.756309 148.06589 77.423926
C 148.398273 77.091543 148.58503 76.640672 148.58503 76.170612
C 148.58503 75.700552 148.398273 75.24968 148.06589 74.917298
C 147.733507 74.584915 147.282636 74.398158 146.812576 74.398158
C 146.342516 74.398158 145.891645 74.584915 145.559262 74.917298
C 145.226879 75.24968 145.040122 75.700552 145.040122 76.170612
C 145.040122 76.640672 145.226879 77.091543 145.559262 77.423926
C 145.891645 77.756309 146.342516 77.943066 146.812576 77.943066
z
" style="stroke:#000000;stroke-width:0.886227;"/>
   </g>
   <g id="PathCollection_2">
    <path clip-path="url(#p0fe66c69b9)" d="M 387.65946 34.45183
C 388.12952 34.45183 388.580392 34.265073 388.912774 33.93269
C 389.245157 33.600307 389.431914 33.149436 389.431914 32.679376
C 389.431914 32.209316 389.245157 31.758444 388.912774 31.426062
C 388.580392 31.093679 388.12952 30.906922 387.65946 30.906922
C 387.1894 30.906922 386.738529 31.093679 386.406146 31.426062
C 386.073763 31.758444 385.887006 32.209316 385.887006 32.679376
C 385.887006 33.149436 386.073763 33.600307 386.406146 33.93269
C 386.738529 34.265073 387.1894 34.45183 387.65946 34.45183
z
" style="fill:#ff0000;stroke:#ff0000;stroke-width:0.886227;"/>
    <path clip-path="url(#p0fe66c69b9)" d="M 308.788389 45.324639
C 309.258449 45.324639 309.70932 45.137882 310.041703 44.805499
C 310.374086 44.473116 310.560843 44.022245 310.560843 43.552185
C 310.560843 43.082125 310.374086 42.631253 310.041703 42.298871
C 309.70932 41.966488 309.258449 41.779731 308.788389 41.779731
C 308.318329 41.779731 307.867458 41.966488 307.535075 42.298871
C 307.202692 42.631253 307.015935 43.082125 307.015935 43.552185
C 307.015935 44.022245 307.202692 44.473116 307.535075 44.805499
C 307.867458 45.137882 308.318329 45.324639 308.788389 45.324639
z
" style="fill:#ff0000;stroke:#ff0000;stroke-width:0.886227;"/>
    <path clip-path="url(#p0fe66c69b9)" d="M 342.094778 39.888234
C 342.564838 39.888234 343.015709 39.701477 343.348092 39.369094
C 343.680475 39.036712 343.867232 38.585841 343.867232 38.11578
C 343.867232 37.64572 343.680475 37.194849 343.348092 36.862466
C 343.015709 36.530083 342.564838 36.343326 342.094778 36.343326
C 341.624718 36.343326 341.173846 36.530083 340.841464 36.862466
C 340.509081 37.194849 340.322324 37.64572 340.322324 38.11578
C 340.322324 38.585841 340.509081 39.036712 340.841464 39.369094
C 341.173846 39.701477 341.624718 39.888234 342.094778 39.888234
z
" style="fill:#ff0000;stroke:#ff0000;stroke-width:0.886227;"/>
    <path clip-path="url(#p0fe66c69b9)" d="M 191.970946 50.761043
C 192.441006 50.761043 192.891877 50.574286 193.22426 50.241903
C 193.556643 49.909521 193.7434 49.45865 193.7434 48.988589
C 193.7434 48.518529 193.556643 48.067658 193.22426 47.735275
C 192.891877 47.402892 192.441006 47.216135 191.970946 47.216135
C 191.500886 47.216135 191.050014 47.402892 190.717632 47.735275
C 190.385249 48.067658 190.198492 48.518529 190.198492 48.988589
C 190.198492 49.45865 190.385249 49.909521 190.717632 50.241903
C 191.050014 50.574286 191.500886 50.761043 191.970946 50.761043
z
" style="fill:#ff0000;stroke:#ff0000;stroke-width:0.886227;"/>
    <path clip-path="url(#p0fe66c69b9)" d="M 191.89223 56.197448
C 192.36229 56.197448 192.813161 56.010691 193.145544 55.678308
C 193.477927 55.345925 193.664684 54.895054 193.664684 54.424994
C 193.664684 53.954934 193.477927 53.504062 193.145544 53.17168
C 192.813161 52.839297 192.36229 52.65254 191.89223 52.65254
C 191.42217 52.65254 190.971299 52.839297 190.638916 53.17168
C 190.306533 53.504062 190.119776 53.954934 190.119776 54.424994
C 190.119776 54.895054 190.306533 55.345925 190.638916 55.678308
C 190.971299 56.010691 191.42217 56.197448 191.89223 56.197448
z
" style="fill:#ff0000;stroke:#ff0000;stroke-width:0.886227;"/>
   </g>
   <g id="text_11">
    <g clip-path="url(#p0fe66c69b9)">
     <!-- HALLMARK_MYOGENESIS -->
     <defs>
      <path d="M 9.8125 72.90625
L 19.671875 72.90625
L 19.671875 43.015625
L 55.515625 43.015625
L 55.515625 72.90625
L 65.375 72.90625
L 65.375 0
L 55.515625 0
L 55.515625 34.71875
L 19.671875 34.71875
L 19.671875 0
L 9.8125 0
z
" id="DejaVuSans-72"/>
      <path d="M 34.1875 63.1875
L 20.796875 26.90625
L 47.609375 26.90625
z
M 28.609375 72.90625
L 39.796875 72.90625
L 67.578125 0
L 57.328125 0
L 50.6875 18.703125
L 17.828125 18.703125
L 11.1875 0
L 0.78125 0
z
" id="DejaVuSans-65"/>
      <path d="M 9.8125 72.90625
L 19.671875 72.90625
L 19.671875 8.296875
L 55.171875 8.296875
L 55.171875 0
L 9.8125 0
z
" id="DejaVuSans-76"/>
      <path d="M 9.8125 72.90625
L 24.515625 72.90625
L 43.109375 23.296875
L 61.8125 72.90625
L 76.515625 72.90625
L 76.515625 0
L 66.890625 0
L 66.890625 64.015625
L 48.09375 14.015625
L 38.1875 14.015625
L 19.390625 64.015625
L 19.390625 0
L 9.8125 0
z
" id="DejaVuSans-77"/>
      <path d="M 44.390625 34.1875
Q 47.5625 33.109375 50.5625 29.59375
Q 53.5625 26.078125 56.59375 19.921875
L 66.609375 0
L 56 0
L 46.6875 18.703125
Q 43.0625 26.03125 39.671875 28.421875
Q 36.28125 30.8125 30.421875 30.8125
L 19.671875 30.8125
L 19.671875 0
L 9.8125 0
L 9.8125 72.90625
L 32.078125 72.90625
Q 44.578125 72.90625 50.734375 67.671875
Q 56.890625 62.453125 56.890625 51.90625
Q 56.890625 45.015625 53.6875 40.46875
Q 50.484375 35.9375 44.390625 34.1875
z
M 19.671875 64.796875
L 19.671875 38.921875
L 32.078125 38.921875
Q 39.203125 38.921875 42.84375 42.21875
Q 46.484375 45.515625 46.484375 51.90625
Q 46.484375 58.296875 42.84375 61.546875
Q 39.203125 64.796875 32.078125 64.796875
z
" id="DejaVuSans-82"/>
      <path d="M 9.8125 72.90625
L 19.671875 72.90625
L 19.671875 42.09375
L 52.390625 72.90625
L 65.09375 72.90625
L 28.90625 38.921875
L 67.671875 0
L 54.6875 0
L 19.671875 35.109375
L 19.671875 0
L 9.8125 0
z
" id="DejaVuSans-75"/>
      <path d="M 50.984375 -16.609375
L 50.984375 -23.578125
L -0.984375 -23.578125
L -0.984375 -16.609375
z
" id="DejaVuSans-95"/>
      <path d="M -0.203125 72.90625
L 10.40625 72.90625
L 30.609375 42.921875
L 50.6875 72.90625
L 61.28125 72.90625
L 35.5 34.71875
L 35.5 0
L 25.59375 0
L 25.59375 34.71875
z
" id="DejaVuSans-89"/>
      <path d="M 39.40625 66.21875
Q 28.65625 66.21875 22.328125 58.203125
Q 16.015625 50.203125 16.015625 36.375
Q 16.015625 22.609375 22.328125 14.59375
Q 28.65625 6.59375 39.40625 6.59375
Q 50.140625 6.59375 56.421875 14.59375
Q 62.703125 22.609375 62.703125 36.375
Q 62.703125 50.203125 56.421875 58.203125
Q 50.140625 66.21875 39.40625 66.21875
z
M 39.40625 74.21875
Q 54.734375 74.21875 63.90625 63.9375
Q 73.09375 53.65625 73.09375 36.375
Q 73.09375 19.140625 63.90625 8.859375
Q 54.734375 -1.421875 39.40625 -1.421875
Q 24.03125 -1.421875 14.8125 8.828125
Q 5.609375 19.09375 5.609375 36.375
Q 5.609375 53.65625 14.8125 63.9375
Q 24.03125 74.21875 39.40625 74.21875
z
" id="DejaVuSans-79"/>
      <path d="M 9.8125 72.90625
L 55.90625 72.90625
L 55.90625 64.59375
L 19.671875 64.59375
L 19.671875 43.015625
L 54.390625 43.015625
L 54.390625 34.71875
L 19.671875 34.71875
L 19.671875 8.296875
L 56.78125 8.296875
L 56.78125 0
L 9.8125 0
z
" id="DejaVuSans-69"/>
      <path d="M 9.8125 72.90625
L 23.09375 72.90625
L 55.421875 11.921875
L 55.421875 72.90625
L 64.984375 72.90625
L 64.984375 0
L 51.703125 0
L 19.390625 60.984375
L 19.390625 0
L 9.8125 0
z
" id="DejaVuSans-78"/>
      <path d="M 53.515625 70.515625
L 53.515625 60.890625
Q 47.90625 63.578125 42.921875 64.890625
Q 37.9375 66.21875 33.296875 66.21875
Q 25.25 66.21875 20.875 63.09375
Q 16.5 59.96875 16.5 54.203125
Q 16.5 49.359375 19.40625 46.890625
Q 22.3125 44.4375 30.421875 42.921875
L 36.375 41.703125
Q 47.40625 39.59375 52.65625 34.296875
Q 57.90625 29 57.90625 20.125
Q 57.90625 9.515625 50.796875 4.046875
Q 43.703125 -1.421875 29.984375 -1.421875
Q 24.8125 -1.421875 18.96875 -0.25
Q 13.140625 0.921875 6.890625 3.21875
L 6.890625 13.375
Q 12.890625 10.015625 18.65625 8.296875
Q 24.421875 6.59375 29.984375 6.59375
Q 38.421875 6.59375 43.015625 9.90625
Q 47.609375 13.234375 47.609375 19.390625
Q 47.609375 24.75 44.3125 27.78125
Q 41.015625 30.8125 33.5 32.328125
L 27.484375 33.5
Q 16.453125 35.6875 11.515625 40.375
Q 6.59375 45.0625 6.59375 53.421875
Q 6.59375 63.09375 13.40625 68.65625
Q 20.21875 74.21875 32.171875 74.21875
Q 37.3125 74.21875 42.625 73.28125
Q 47.953125 72.359375 53.515625 70.515625
z
" id="DejaVuSans-83"/>
      <path d="M 9.8125 72.90625
L 19.671875 72.90625
L 19.671875 0
L 9.8125 0
z
" id="DejaVuSans-73"/>
     </defs>
     <g transform="translate(324.862585 36.390313)scale(0.05 -0.05)">
      <use xlink:href="#DejaVuSans-72"/>
      <use x="75.195312" xlink:href="#DejaVuSans-65"/>
      <use x="143.603516" xlink:href="#DejaVuSans-76"/>
      <use x="199.316406" xlink:href="#DejaVuSans-76"/>
      <use x="255.029297" xlink:href="#DejaVuSans-77"/>
      <use x="341.308594" xlink:href="#DejaVuSans-65"/>
      <use x="409.716797" xlink:href="#DejaVuSans-82"/>
      <use x="479.199219" xlink:href="#DejaVuSans-75"/>
      <use x="544.775391" xlink:href="#DejaVuSans-95"/>
      <use x="594.775391" xlink:href="#DejaVuSans-77"/>
      <use x="681.054688" xlink:href="#DejaVuSans-89"/>
      <use x="742.060547" xlink:href="#DejaVuSans-79"/>
      <use x="820.771484" xlink:href="#DejaVuSans-71"/>
      <use x="898.261719" xlink:href="#DejaVuSans-69"/>
      <use x="961.445312" xlink:href="#DejaVuSans-78"/>
      <use x="1036.25" xlink:href="#DejaVuSans-69"/>
      <use x="1099.433594" xlink:href="#DejaVuSans-83"/>
      <use x="1162.910156" xlink:href="#DejaVuSans-73"/>
      <use x="1192.402344" xlink:href="#DejaVuSans-83"/>
     </g>
    </g>
   </g>
   <g id="text_12">
    <g clip-path="url(#p0fe66c69b9)">
     <!-- HALLMARK_ALLOGRAFT_REJECTION -->
     <defs>
      <path d="M 9.8125 72.90625
L 51.703125 72.90625
L 51.703125 64.59375
L 19.671875 64.59375
L 19.671875 43.109375
L 48.578125 43.109375
L 48.578125 34.8125
L 19.671875 34.8125
L 19.671875 0
L 9.8125 0
z
" id="DejaVuSans-70"/>
      <path d="M -0.296875 72.90625
L 61.375 72.90625
L 61.375 64.59375
L 35.5 64.59375
L 35.5 0
L 25.59375 0
L 25.59375 64.59375
L -0.296875 64.59375
z
" id="DejaVuSans-84"/>
      <path d="M 9.8125 72.90625
L 19.671875 72.90625
L 19.671875 5.078125
Q 19.671875 -8.109375 14.671875 -14.0625
Q 9.671875 -20.015625 -1.421875 -20.015625
L -5.171875 -20.015625
L -5.171875 -11.71875
L -2.09375 -11.71875
Q 4.4375 -11.71875 7.125 -8.046875
Q 9.8125 -4.390625 9.8125 5.078125
z
" id="DejaVuSans-74"/>
      <path d="M 64.40625 67.28125
L 64.40625 56.890625
Q 59.421875 61.53125 53.78125 63.8125
Q 48.140625 66.109375 41.796875 66.109375
Q 29.296875 66.109375 22.65625 58.46875
Q 16.015625 50.828125 16.015625 36.375
Q 16.015625 21.96875 22.65625 14.328125
Q 29.296875 6.6875 41.796875 6.6875
Q 48.140625 6.6875 53.78125 8.984375
Q 59.421875 11.28125 64.40625 15.921875
L 64.40625 5.609375
Q 59.234375 2.09375 53.4375 0.328125
Q 47.65625 -1.421875 41.21875 -1.421875
Q 24.65625 -1.421875 15.125 8.703125
Q 5.609375 18.84375 5.609375 36.375
Q 5.609375 53.953125 15.125 64.078125
Q 24.65625 74.21875 41.21875 74.21875
Q 47.75 74.21875 53.53125 72.484375
Q 59.328125 70.75 64.40625 67.28125
z
" id="DejaVuSans-67"/>
     </defs>
     <g transform="translate(219.963389 47.263122)scale(0.05 -0.05)">
      <use xlink:href="#DejaVuSans-72"/>
      <use x="75.195312" xlink:href="#DejaVuSans-65"/>
      <use x="143.603516" xlink:href="#DejaVuSans-76"/>
      <use x="199.316406" xlink:href="#DejaVuSans-76"/>
      <use x="255.029297" xlink:href="#DejaVuSans-77"/>
      <use x="341.308594" xlink:href="#DejaVuSans-65"/>
      <use x="409.716797" xlink:href="#DejaVuSans-82"/>
      <use x="479.199219" xlink:href="#DejaVuSans-75"/>
      <use x="544.775391" xlink:href="#DejaVuSans-95"/>
      <use x="594.775391" xlink:href="#DejaVuSans-65"/>
      <use x="663.183594" xlink:href="#DejaVuSans-76"/>
      <use x="718.896484" xlink:href="#DejaVuSans-76"/>
      <use x="774.5625" xlink:href="#DejaVuSans-79"/>
      <use x="853.273438" xlink:href="#DejaVuSans-71"/>
      <use x="930.763672" xlink:href="#DejaVuSans-82"/>
      <use x="1000.183594" xlink:href="#DejaVuSans-65"/>
      <use x="1068.591797" xlink:href="#DejaVuSans-70"/>
      <use x="1126.095703" xlink:href="#DejaVuSans-84"/>
      <use x="1187.179688" xlink:href="#DejaVuSans-95"/>
      <use x="1237.179688" xlink:href="#DejaVuSans-82"/>
      <use x="1306.662109" xlink:href="#DejaVuSans-69"/>
      <use x="1369.845703" xlink:href="#DejaVuSans-74"/>
      <use x="1399.337891" xlink:href="#DejaVuSans-69"/>
      <use x="1462.521484" xlink:href="#DejaVuSans-67"/>
      <use x="1532.345703" xlink:href="#DejaVuSans-84"/>
      <use x="1593.429688" xlink:href="#DejaVuSans-73"/>
      <use x="1622.921875" xlink:href="#DejaVuSans-79"/>
      <use x="1701.632812" xlink:href="#DejaVuSans-78"/>
     </g>
    </g>
   </g>
   <g id="text_13">
    <g clip-path="url(#p0fe66c69b9)">
     <!-- HALLMARK_KRAS_SIGNALING_DN -->
     <defs>
      <path d="M 19.671875 64.796875
L 19.671875 8.109375
L 31.59375 8.109375
Q 46.6875 8.109375 53.6875 14.9375
Q 60.6875 21.78125 60.6875 36.53125
Q 60.6875 51.171875 53.6875 57.984375
Q 46.6875 64.796875 31.59375 64.796875
z
M 9.8125 72.90625
L 30.078125 72.90625
Q 51.265625 72.90625 61.171875 64.09375
Q 71.09375 55.28125 71.09375 36.53125
Q 71.09375 17.671875 61.125 8.828125
Q 51.171875 0 30.078125 0
L 9.8125 0
z
" id="DejaVuSans-68"/>
     </defs>
     <g transform="translate(258.859622 41.826718)scale(0.05 -0.05)">
      <use xlink:href="#DejaVuSans-72"/>
      <use x="75.195312" xlink:href="#DejaVuSans-65"/>
      <use x="143.603516" xlink:href="#DejaVuSans-76"/>
      <use x="199.316406" xlink:href="#DejaVuSans-76"/>
      <use x="255.029297" xlink:href="#DejaVuSans-77"/>
      <use x="341.308594" xlink:href="#DejaVuSans-65"/>
      <use x="409.716797" xlink:href="#DejaVuSans-82"/>
      <use x="479.199219" xlink:href="#DejaVuSans-75"/>
      <use x="544.775391" xlink:href="#DejaVuSans-95"/>
      <use x="594.775391" xlink:href="#DejaVuSans-75"/>
      <use x="660.351562" xlink:href="#DejaVuSans-82"/>
      <use x="729.771484" xlink:href="#DejaVuSans-65"/>
      <use x="798.179688" xlink:href="#DejaVuSans-83"/>
      <use x="861.65625" xlink:href="#DejaVuSans-95"/>
      <use x="911.65625" xlink:href="#DejaVuSans-83"/>
      <use x="975.132812" xlink:href="#DejaVuSans-73"/>
      <use x="1004.625" xlink:href="#DejaVuSans-71"/>
      <use x="1082.115234" xlink:href="#DejaVuSans-78"/>
      <use x="1156.919922" xlink:href="#DejaVuSans-65"/>
      <use x="1225.328125" xlink:href="#DejaVuSans-76"/>
      <use x="1281.041016" xlink:href="#DejaVuSans-73"/>
      <use x="1310.533203" xlink:href="#DejaVuSans-78"/>
      <use x="1385.337891" xlink:href="#DejaVuSans-71"/>
      <use x="1462.828125" xlink:href="#DejaVuSans-95"/>
      <use x="1512.828125" xlink:href="#DejaVuSans-68"/>
      <use x="1589.830078" xlink:href="#DejaVuSans-78"/>
     </g>
    </g>
   </g>
   <g id="text_14">
    <g clip-path="url(#p0fe66c69b9)">
     <!-- HALLMARK_COAGULATION -->
     <defs>
      <path d="M 8.6875 72.90625
L 18.609375 72.90625
L 18.609375 28.609375
Q 18.609375 16.890625 22.84375 11.734375
Q 27.09375 6.59375 36.625 6.59375
Q 46.09375 6.59375 50.34375 11.734375
Q 54.59375 16.890625 54.59375 28.609375
L 54.59375 72.90625
L 64.5 72.90625
L 64.5 27.390625
Q 64.5 13.140625 57.4375 5.859375
Q 50.390625 -1.421875 36.625 -1.421875
Q 22.796875 -1.421875 15.734375 5.859375
Q 8.6875 13.140625 8.6875 27.390625
z
" id="DejaVuSans-85"/>
     </defs>
     <g transform="translate(125.443602 52.699527)scale(0.05 -0.05)">
      <use xlink:href="#DejaVuSans-72"/>
      <use x="75.195312" xlink:href="#DejaVuSans-65"/>
      <use x="143.603516" xlink:href="#DejaVuSans-76"/>
      <use x="199.316406" xlink:href="#DejaVuSans-76"/>
      <use x="255.029297" xlink:href="#DejaVuSans-77"/>
      <use x="341.308594" xlink:href="#DejaVuSans-65"/>
      <use x="409.716797" xlink:href="#DejaVuSans-82"/>
      <use x="479.199219" xlink:href="#DejaVuSans-75"/>
      <use x="544.775391" xlink:href="#DejaVuSans-95"/>
      <use x="594.775391" xlink:href="#DejaVuSans-67"/>
      <use x="664.599609" xlink:href="#DejaVuSans-79"/>
      <use x="743.294922" xlink:href="#DejaVuSans-65"/>
      <use x="811.6875" xlink:href="#DejaVuSans-71"/>
      <use x="889.177734" xlink:href="#DejaVuSans-85"/>
      <use x="962.371094" xlink:href="#DejaVuSans-76"/>
      <use x="1018.115234" xlink:href="#DejaVuSans-65"/>
      <use x="1086.414062" xlink:href="#DejaVuSans-84"/>
      <use x="1147.498047" xlink:href="#DejaVuSans-73"/>
      <use x="1176.990234" xlink:href="#DejaVuSans-79"/>
      <use x="1255.701172" xlink:href="#DejaVuSans-78"/>
     </g>
    </g>
   </g>
   <g id="text_15">
    <g clip-path="url(#p0fe66c69b9)">
     <!-- HALLMARK_SPERMATOGENESIS -->
     <defs>
      <path d="M 19.671875 64.796875
L 19.671875 37.40625
L 32.078125 37.40625
Q 38.96875 37.40625 42.71875 40.96875
Q 46.484375 44.53125 46.484375 51.125
Q 46.484375 57.671875 42.71875 61.234375
Q 38.96875 64.796875 32.078125 64.796875
z
M 9.8125 72.90625
L 32.078125 72.90625
Q 44.34375 72.90625 50.609375 67.359375
Q 56.890625 61.8125 56.890625 51.125
Q 56.890625 40.328125 50.609375 34.8125
Q 44.34375 29.296875 32.078125 29.296875
L 19.671875 29.296875
L 19.671875 0
L 9.8125 0
z
" id="DejaVuSans-80"/>
     </defs>
     <g transform="translate(112.853949 58.135931)scale(0.05 -0.05)">
      <use xlink:href="#DejaVuSans-72"/>
      <use x="75.195312" xlink:href="#DejaVuSans-65"/>
      <use x="143.603516" xlink:href="#DejaVuSans-76"/>
      <use x="199.316406" xlink:href="#DejaVuSans-76"/>
      <use x="255.029297" xlink:href="#DejaVuSans-77"/>
      <use x="341.308594" xlink:href="#DejaVuSans-65"/>
      <use x="409.716797" xlink:href="#DejaVuSans-82"/>
      <use x="479.199219" xlink:href="#DejaVuSans-75"/>
      <use x="544.775391" xlink:href="#DejaVuSans-95"/>
      <use x="594.775391" xlink:href="#DejaVuSans-83"/>
      <use x="658.251953" xlink:href="#DejaVuSans-80"/>
      <use x="718.554688" xlink:href="#DejaVuSans-69"/>
      <use x="781.738281" xlink:href="#DejaVuSans-82"/>
      <use x="851.220703" xlink:href="#DejaVuSans-77"/>
      <use x="937.5" xlink:href="#DejaVuSans-65"/>
      <use x="1005.798828" xlink:href="#DejaVuSans-84"/>
      <use x="1066.882812" xlink:href="#DejaVuSans-79"/>
      <use x="1145.59375" xlink:href="#DejaVuSans-71"/>
      <use x="1223.083984" xlink:href="#DejaVuSans-69"/>
      <use x="1286.267578" xlink:href="#DejaVuSans-78"/>
      <use x="1361.072266" xlink:href="#DejaVuSans-69"/>
      <use x="1424.255859" xlink:href="#DejaVuSans-83"/>
      <use x="1487.732422" xlink:href="#DejaVuSans-73"/>
      <use x="1517.224609" xlink:href="#DejaVuSans-83"/>
     </g>
    </g>
   </g>
  </g>
  <g id="text_16">
   <!-- GSEA pathway statistics vs ranking -->
   <defs>
    <path d="M 54.890625 33.015625
L 54.890625 0
L 45.90625 0
L 45.90625 32.71875
Q 45.90625 40.484375 42.875 44.328125
Q 39.84375 48.1875 33.796875 48.1875
Q 26.515625 48.1875 22.3125 43.546875
Q 18.109375 38.921875 18.109375 30.90625
L 18.109375 0
L 9.078125 0
L 9.078125 75.984375
L 18.109375 75.984375
L 18.109375 46.1875
Q 21.34375 51.125 25.703125 53.5625
Q 30.078125 56 35.796875 56
Q 45.21875 56 50.046875 50.171875
Q 54.890625 44.34375 54.890625 33.015625
z
" id="DejaVuSans-104"/>
    <path d="M 4.203125 54.6875
L 13.1875 54.6875
L 24.421875 12.015625
L 35.59375 54.6875
L 46.1875 54.6875
L 57.421875 12.015625
L 68.609375 54.6875
L 77.59375 54.6875
L 63.28125 0
L 52.6875 0
L 40.921875 44.828125
L 29.109375 0
L 18.5 0
z
" id="DejaVuSans-119"/>
    <path d="M 32.171875 -5.078125
Q 28.375 -14.84375 24.75 -17.8125
Q 21.140625 -20.796875 15.09375 -20.796875
L 7.90625 -20.796875
L 7.90625 -13.28125
L 13.1875 -13.28125
Q 16.890625 -13.28125 18.9375 -11.515625
Q 21 -9.765625 23.484375 -3.21875
L 25.09375 0.875
L 2.984375 54.6875
L 12.5 54.6875
L 29.59375 11.921875
L 46.6875 54.6875
L 56.203125 54.6875
z
" id="DejaVuSans-121"/>
   </defs>
   <g transform="translate(87.227656 11.397656)scale(0.15 -0.15)">
    <use xlink:href="#DejaVuSans-71"/>
    <use x="77.490234" xlink:href="#DejaVuSans-83"/>
    <use x="140.966797" xlink:href="#DejaVuSans-69"/>
    <use x="204.150391" xlink:href="#DejaVuSans-65"/>
    <use x="272.558594" xlink:href="#DejaVuSans-32"/>
    <use x="304.345703" xlink:href="#DejaVuSans-112"/>
    <use x="367.822266" xlink:href="#DejaVuSans-97"/>
    <use x="429.101562" xlink:href="#DejaVuSans-116"/>
    <use x="468.310547" xlink:href="#DejaVuSans-104"/>
    <use x="531.689453" xlink:href="#DejaVuSans-119"/>
    <use x="613.476562" xlink:href="#DejaVuSans-97"/>
    <use x="674.755859" xlink:href="#DejaVuSans-121"/>
    <use x="733.935547" xlink:href="#DejaVuSans-32"/>
    <use x="765.722656" xlink:href="#DejaVuSans-115"/>
    <use x="817.822266" xlink:href="#DejaVuSans-116"/>
    <use x="857.03125" xlink:href="#DejaVuSans-97"/>
    <use x="918.310547" xlink:href="#DejaVuSans-116"/>
    <use x="957.519531" xlink:href="#DejaVuSans-105"/>
    <use x="985.302734" xlink:href="#DejaVuSans-115"/>
    <use x="1037.402344" xlink:href="#DejaVuSans-116"/>
    <use x="1076.611328" xlink:href="#DejaVuSans-105"/>
    <use x="1104.394531" xlink:href="#DejaVuSans-99"/>
    <use x="1159.375" xlink:href="#DejaVuSans-115"/>
    <use x="1211.474609" xlink:href="#DejaVuSans-32"/>
    <use x="1243.261719" xlink:href="#DejaVuSans-118"/>
    <use x="1302.441406" xlink:href="#DejaVuSans-115"/>
    <use x="1354.541016" xlink:href="#DejaVuSans-32"/>
    <use x="1386.328125" xlink:href="#DejaVuSans-114"/>
    <use x="1427.441406" xlink:href="#DejaVuSans-97"/>
    <use x="1488.720703" xlink:href="#DejaVuSans-110"/>
    <use x="1552.099609" xlink:href="#DejaVuSans-107"/>
    <use x="1610.009766" xlink:href="#DejaVuSans-105"/>
    <use x="1637.792969" xlink:href="#DejaVuSans-110"/>
    <use x="1701.171875" xlink:href="#DejaVuSans-103"/>
   </g>
  </g>
 </g>
 <defs>
  <clipPath id="p0fe66c69b9">
   <rect height="266.112" width="357.12" x="46.772188" y="20.583376"/>
  </clipPath>
 </defs>
</svg>
