<?xml version="1.0" encoding="utf-8" standalone="no"?>
<!DOCTYPE svg PUBLIC "-//W3C//DTD SVG 1.1//EN"
  "http://www.w3.org/Graphics/SVG/1.1/DTD/svg11.dtd">
<!-- Created with matplotlib (https://matplotlib.org/) -->
<svg height="322.176313pt" version="1.1" viewBox="0 0 406.642188 322.176313" width="406.642188pt" xmlns="http://www.w3.org/2000/svg" xmlns:xlink="http://www.w3.org/1999/xlink">
 <defs>
  <style type="text/css">
*{stroke-linecap:butt;stroke-linejoin:round;}
  </style>
 </defs>
 <g id="figure_1">
  <g id="patch_1">
   <path d="M 0 322.176313
L 406.642188 322.176313
L 406.642188 0
L 0 0
z
" style="fill:#ffffff;stroke:#ffffff;stroke-linejoin:miter;"/>
  </g>
  <g id="axes_1">
   <g id="patch_2">
    <path d="M 46.772188 286.695376
L 403.892188 286.695376
L 403.892188 20.583376
L 46.772188 20.583376
z
" style="fill:none;"/>
   </g>
   <g id="matplotlib.axis_1">
    <g id="xtick_1">
     <g id="line2d_1">
      <path clip-path="url(#p0e1a798b9b)" d="M 62.11379 286.695376
L 62.11379 20.583376
" style="fill:none;stroke:#e5e5e5;stroke-width:0.8;"/>
     </g>
     <g id="line2d_2">
      <path d="M 62.11379 286.695376
" style="fill:none;stroke:#000000;stroke-width:1.5;"/>
      <defs>
       <path d="M 0 0
L 0 2.75
" id="m1e25fcfb05" style="stroke:#000000;"/>
      </defs>
      <g>
       <use style="stroke:#000000;" x="62.11379" xlink:href="#m1e25fcfb05" y="286.695376"/>
      </g>
     </g>
     <g id="text_1">
      <!-- 0 -->
      <defs>
       <path d="M 31.78125 66.40625
Q 24.171875 66.40625 20.328125 58.90625
Q 16.5 51.421875 16.5 36.375
Q 16.5 21.390625 20.328125 13.890625
Q 24.171875 6.390625 31.78125 6.390625
Q 39.453125 6.390625 43.28125 13.890625
Q 47.125 21.390625 47.125 36.375
Q 47.125 51.421875 43.28125 58.90625
Q 39.453125 66.40625 31.78125 66.40625
z
M 31.78125 74.21875
Q 44.046875 74.21875 50.515625 64.515625
Q 56.984375 54.828125 56.984375 36.375
Q 56.984375 17.96875 50.515625 8.265625
Q 44.046875 -1.421875 31.78125 -1.421875
Q 19.53125 -1.421875 13.0625 8.265625
Q 6.59375 17.96875 6.59375 36.375
Q 6.59375 54.828125 13.0625 64.515625
Q 19.53125 74.21875 31.78125 74.21875
z
" id="DejaVuSans-48"/>
      </defs>
      <g style="fill:#4d4d4d;" transform="translate(58.29629 300.763501)scale(0.12 -0.12)">
       <use xlink:href="#DejaVuSans-48"/>
      </g>
     </g>
    </g>
    <g id="xtick_2">
     <g id="line2d_3">
      <path clip-path="url(#p0e1a798b9b)" d="M 143.500208 286.695376
L 143.500208 20.583376
" style="fill:none;stroke:#e5e5e5;stroke-width:0.8;"/>
     </g>
     <g id="line2d_4">
      <path d="M 143.500208 286.695376
" style="fill:none;stroke:#000000;stroke-width:1.5;"/>
      <g>
       <use style="stroke:#000000;" x="143.500208" xlink:href="#m1e25fcfb05" y="286.695376"/>
      </g>
     </g>
     <g id="text_2">
      <!-- 0.25 -->
      <defs>
       <path d="M 10.6875 12.40625
L 21 12.40625
L 21 0
L 10.6875 0
z
" id="DejaVuSans-46"/>
       <path d="M 19.1875 8.296875
L 53.609375 8.296875
L 53.609375 0
L 7.328125 0
L 7.328125 8.296875
Q 12.9375 14.109375 22.625 23.890625
Q 32.328125 33.6875 34.8125 36.53125
Q 39.546875 41.84375 41.421875 45.53125
Q 43.3125 49.21875 43.3125 52.78125
Q 43.3125 58.59375 39.234375 62.25
Q 35.15625 65.921875 28.609375 65.921875
Q 23.96875 65.921875 18.8125 64.3125
Q 13.671875 62.703125 7.8125 59.421875
L 7.8125 69.390625
Q 13.765625 71.78125 18.9375 73
Q 24.125 74.21875 28.421875 74.21875
Q 39.75 74.21875 46.484375 68.546875
Q 53.21875 62.890625 53.21875 53.421875
Q 53.21875 48.921875 51.53125 44.890625
Q 49.859375 40.875 45.40625 35.40625
Q 44.1875 33.984375 37.640625 27.21875
Q 31.109375 20.453125 19.1875 8.296875
z
" id="DejaVuSans-50"/>
       <path d="M 10.796875 72.90625
L 49.515625 72.90625
L 49.515625 64.59375
L 19.828125 64.59375
L 19.828125 46.734375
Q 21.96875 47.46875 24.109375 47.828125
Q 26.265625 48.1875 28.421875 48.1875
Q 40.625 48.1875 47.75 41.5
Q 54.890625 34.8125 54.890625 23.390625
Q 54.890625 11.625 47.5625 5.09375
Q 40.234375 -1.421875 26.90625 -1.421875
Q 22.3125 -1.421875 17.546875 -0.640625
Q 12.796875 0.140625 7.71875 1.703125
L 7.71875 11.625
Q 12.109375 9.234375 16.796875 8.0625
Q 21.484375 6.890625 26.703125 6.890625
Q 35.15625 6.890625 40.078125 11.328125
Q 45.015625 15.765625 45.015625 23.390625
Q 45.015625 31 40.078125 35.4375
Q 35.15625 39.890625 26.703125 39.890625
Q 22.75 39.890625 18.8125 39.015625
Q 14.890625 38.140625 10.796875 36.28125
z
" id="DejaVuSans-53"/>
      </defs>
      <g style="fill:#4d4d4d;" transform="translate(130.140833 300.763501)scale(0.12 -0.12)">
       <use xlink:href="#DejaVuSans-48"/>
       <use x="63.623047" xlink:href="#DejaVuSans-46"/>
       <use x="95.410156" xlink:href="#DejaVuSans-50"/>
       <use x="159.033203" xlink:href="#DejaVuSans-53"/>
      </g>
     </g>
    </g>
    <g id="xtick_3">
     <g id="line2d_5">
      <path clip-path="url(#p0e1a798b9b)" d="M 224.886625 286.695376
L 224.886625 20.583376
" style="fill:none;stroke:#e5e5e5;stroke-width:0.8;"/>
     </g>
     <g id="line2d_6">
      <path d="M 224.886625 286.695376
" style="fill:none;stroke:#000000;stroke-width:1.5;"/>
      <g>
       <use style="stroke:#000000;" x="224.886625" xlink:href="#m1e25fcfb05" y="286.695376"/>
      </g>
     </g>
     <g id="text_3">
      <!-- 0.50 -->
      <g style="fill:#4d4d4d;" transform="translate(211.52725 300.763501)scale(0.12 -0.12)">
       <use xlink:href="#DejaVuSans-48"/>
       <use x="63.623047" xlink:href="#DejaVuSans-46"/>
       <use x="95.410156" xlink:href="#DejaVuSans-53"/>
       <use x="159.033203" xlink:href="#DejaVuSans-48"/>
      </g>
     </g>
    </g>
    <g id="xtick_4">
     <g id="line2d_7">
      <path clip-path="url(#p0e1a798b9b)" d="M 306.273043 286.695376
L 306.273043 20.583376
" style="fill:none;stroke:#e5e5e5;stroke-width:0.8;"/>
     </g>
     <g id="line2d_8">
      <path d="M 306.273043 286.695376
" style="fill:none;stroke:#000000;stroke-width:1.5;"/>
      <g>
       <use style="stroke:#000000;" x="306.273043" xlink:href="#m1e25fcfb05" y="286.695376"/>
      </g>
     </g>
     <g id="text_4">
      <!-- 0.75 -->
      <defs>
       <path d="M 8.203125 72.90625
L 55.078125 72.90625
L 55.078125 68.703125
L 28.609375 0
L 18.3125 0
L 43.21875 64.59375
L 8.203125 64.59375
z
" id="DejaVuSans-55"/>
      </defs>
      <g style="fill:#4d4d4d;" transform="translate(292.913668 300.763501)scale(0.12 -0.12)">
       <use xlink:href="#DejaVuSans-48"/>
       <use x="63.623047" xlink:href="#DejaVuSans-46"/>
       <use x="95.410156" xlink:href="#DejaVuSans-55"/>
       <use x="159.033203" xlink:href="#DejaVuSans-53"/>
      </g>
     </g>
    </g>
    <g id="xtick_5">
     <g id="line2d_9">
      <path clip-path="url(#p0e1a798b9b)" d="M 387.65946 286.695376
L 387.65946 20.583376
" style="fill:none;stroke:#e5e5e5;stroke-width:0.8;"/>
     </g>
     <g id="line2d_10">
      <path d="M 387.65946 286.695376
" style="fill:none;stroke:#000000;stroke-width:1.5;"/>
      <g>
       <use style="stroke:#000000;" x="387.65946" xlink:href="#m1e25fcfb05" y="286.695376"/>
      </g>
     </g>
     <g id="text_5">
      <!-- 1 -->
      <defs>
       <path d="M 12.40625 8.296875
L 28.515625 8.296875
L 28.515625 63.921875
L 10.984375 60.40625
L 10.984375 69.390625
L 28.421875 72.90625
L 38.28125 72.90625
L 38.28125 8.296875
L 54.390625 8.296875
L 54.390625 0
L 12.40625 0
z
" id="DejaVuSans-49"/>
      </defs>
      <g style="fill:#4d4d4d;" transform="translate(383.84196 300.763501)scale(0.12 -0.12)">
       <use xlink:href="#DejaVuSans-49"/>
      </g>
     </g>
    </g>
    <g id="xtick_6">
     <g id="line2d_11">
      <path clip-path="url(#p0e1a798b9b)" d="M 102.806999 286.695376
L 102.806999 20.583376
" style="fill:none;stroke:#fafafa;"/>
     </g>
     <g id="line2d_12">
      <path d="M 102.806999 286.695376
" style="fill:none;stroke:#000000;stroke-width:1.5;"/>
     </g>
    </g>
    <g id="xtick_7">
     <g id="line2d_13">
      <path clip-path="url(#p0e1a798b9b)" d="M 184.193416 286.695376
L 184.193416 20.583376
" style="fill:none;stroke:#fafafa;"/>
     </g>
     <g id="line2d_14">
      <path d="M 184.193416 286.695376
" style="fill:none;stroke:#000000;stroke-width:1.5;"/>
     </g>
    </g>
    <g id="xtick_8">
     <g id="line2d_15">
      <path clip-path="url(#p0e1a798b9b)" d="M 265.579834 286.695376
L 265.579834 20.583376
" style="fill:none;stroke:#fafafa;"/>
     </g>
     <g id="line2d_16">
      <path d="M 265.579834 286.695376
" style="fill:none;stroke:#000000;stroke-width:1.5;"/>
     </g>
    </g>
    <g id="xtick_9">
     <g id="line2d_17">
      <path clip-path="url(#p0e1a798b9b)" d="M 346.966251 286.695376
L 346.966251 20.583376
" style="fill:none;stroke:#fafafa;"/>
     </g>
     <g id="line2d_18">
      <path d="M 346.966251 286.695376
" style="fill:none;stroke:#000000;stroke-width:1.5;"/>
     </g>
    </g>
    <g id="text_6">
     <!-- Median(adjusted p-value (BH)) -->
     <defs>
      <path d="M 9.8125 72.90625
L 24.515625 72.90625
L 43.109375 23.296875
L 61.8125 72.90625
L 76.515625 72.90625
L 76.515625 0
L 66.890625 0
L 66.890625 64.015625
L 48.09375 14.015625
L 38.1875 14.015625
L 19.390625 64.015625
L 19.390625 0
L 9.8125 0
z
" id="DejaVuSans-77"/>
      <path d="M 56.203125 29.59375
L 56.203125 25.203125
L 14.890625 25.203125
Q 15.484375 15.921875 20.484375 11.0625
Q 25.484375 6.203125 34.421875 6.203125
Q 39.59375 6.203125 44.453125 7.46875
Q 49.3125 8.734375 54.109375 11.28125
L 54.109375 2.78125
Q 49.265625 0.734375 44.1875 -0.34375
Q 39.109375 -1.421875 33.890625 -1.421875
Q 20.796875 -1.421875 13.15625 6.1875
Q 5.515625 13.8125 5.515625 26.8125
Q 5.515625 40.234375 12.765625 48.109375
Q 20.015625 56 32.328125 56
Q 43.359375 56 49.78125 48.890625
Q 56.203125 41.796875 56.203125 29.59375
z
M 47.21875 32.234375
Q 47.125 39.59375 43.09375 43.984375
Q 39.0625 48.390625 32.421875 48.390625
Q 24.90625 48.390625 20.390625 44.140625
Q 15.875 39.890625 15.1875 32.171875
z
" id="DejaVuSans-101"/>
      <path d="M 45.40625 46.390625
L 45.40625 75.984375
L 54.390625 75.984375
L 54.390625 0
L 45.40625 0
L 45.40625 8.203125
Q 42.578125 3.328125 38.25 0.953125
Q 33.9375 -1.421875 27.875 -1.421875
Q 17.96875 -1.421875 11.734375 6.484375
Q 5.515625 14.40625 5.515625 27.296875
Q 5.515625 40.1875 11.734375 48.09375
Q 17.96875 56 27.875 56
Q 33.9375 56 38.25 53.625
Q 42.578125 51.265625 45.40625 46.390625
z
M 14.796875 27.296875
Q 14.796875 17.390625 18.875 11.75
Q 22.953125 6.109375 30.078125 6.109375
Q 37.203125 6.109375 41.296875 11.75
Q 45.40625 17.390625 45.40625 27.296875
Q 45.40625 37.203125 41.296875 42.84375
Q 37.203125 48.484375 30.078125 48.484375
Q 22.953125 48.484375 18.875 42.84375
Q 14.796875 37.203125 14.796875 27.296875
z
" id="DejaVuSans-100"/>
      <path d="M 9.421875 54.6875
L 18.40625 54.6875
L 18.40625 0
L 9.421875 0
z
M 9.421875 75.984375
L 18.40625 75.984375
L 18.40625 64.59375
L 9.421875 64.59375
z
" id="DejaVuSans-105"/>
      <path d="M 34.28125 27.484375
Q 23.390625 27.484375 19.1875 25
Q 14.984375 22.515625 14.984375 16.5
Q 14.984375 11.71875 18.140625 8.90625
Q 21.296875 6.109375 26.703125 6.109375
Q 34.1875 6.109375 38.703125 11.40625
Q 43.21875 16.703125 43.21875 25.484375
L 43.21875 27.484375
z
M 52.203125 31.203125
L 52.203125 0
L 43.21875 0
L 43.21875 8.296875
Q 40.140625 3.328125 35.546875 0.953125
Q 30.953125 -1.421875 24.3125 -1.421875
Q 15.921875 -1.421875 10.953125 3.296875
Q 6 8.015625 6 15.921875
Q 6 25.140625 12.171875 29.828125
Q 18.359375 34.515625 30.609375 34.515625
L 43.21875 34.515625
L 43.21875 35.40625
Q 43.21875 41.609375 39.140625 45
Q 35.0625 48.390625 27.6875 48.390625
Q 23 48.390625 18.546875 47.265625
Q 14.109375 46.140625 10.015625 43.890625
L 10.015625 52.203125
Q 14.9375 54.109375 19.578125 55.046875
Q 24.21875 56 28.609375 56
Q 40.484375 56 46.34375 49.84375
Q 52.203125 43.703125 52.203125 31.203125
z
" id="DejaVuSans-97"/>
      <path d="M 54.890625 33.015625
L 54.890625 0
L 45.90625 0
L 45.90625 32.71875
Q 45.90625 40.484375 42.875 44.328125
Q 39.84375 48.1875 33.796875 48.1875
Q 26.515625 48.1875 22.3125 43.546875
Q 18.109375 38.921875 18.109375 30.90625
L 18.109375 0
L 9.078125 0
L 9.078125 54.6875
L 18.109375 54.6875
L 18.109375 46.1875
Q 21.34375 51.125 25.703125 53.5625
Q 30.078125 56 35.796875 56
Q 45.21875 56 50.046875 50.171875
Q 54.890625 44.34375 54.890625 33.015625
z
" id="DejaVuSans-110"/>
      <path d="M 31 75.875
Q 24.46875 64.65625 21.28125 53.65625
Q 18.109375 42.671875 18.109375 31.390625
Q 18.109375 20.125 21.3125 9.0625
Q 24.515625 -2 31 -13.1875
L 23.1875 -13.1875
Q 15.875 -1.703125 12.234375 9.375
Q 8.59375 20.453125 8.59375 31.390625
Q 8.59375 42.28125 12.203125 53.3125
Q 15.828125 64.359375 23.1875 75.875
z
" id="DejaVuSans-40"/>
      <path d="M 9.421875 54.6875
L 18.40625 54.6875
L 18.40625 -0.984375
Q 18.40625 -11.421875 14.421875 -16.109375
Q 10.453125 -20.796875 1.609375 -20.796875
L -1.8125 -20.796875
L -1.8125 -13.1875
L 0.59375 -13.1875
Q 5.71875 -13.1875 7.5625 -10.8125
Q 9.421875 -8.453125 9.421875 -0.984375
z
M 9.421875 75.984375
L 18.40625 75.984375
L 18.40625 64.59375
L 9.421875 64.59375
z
" id="DejaVuSans-106"/>
      <path d="M 8.5 21.578125
L 8.5 54.6875
L 17.484375 54.6875
L 17.484375 21.921875
Q 17.484375 14.15625 20.5 10.265625
Q 23.53125 6.390625 29.59375 6.390625
Q 36.859375 6.390625 41.078125 11.03125
Q 45.3125 15.671875 45.3125 23.6875
L 45.3125 54.6875
L 54.296875 54.6875
L 54.296875 0
L 45.3125 0
L 45.3125 8.40625
Q 42.046875 3.421875 37.71875 1
Q 33.40625 -1.421875 27.6875 -1.421875
Q 18.265625 -1.421875 13.375 4.4375
Q 8.5 10.296875 8.5 21.578125
z
M 31.109375 56
z
" id="DejaVuSans-117"/>
      <path d="M 44.28125 53.078125
L 44.28125 44.578125
Q 40.484375 46.53125 36.375 47.5
Q 32.28125 48.484375 27.875 48.484375
Q 21.1875 48.484375 17.84375 46.4375
Q 14.5 44.390625 14.5 40.28125
Q 14.5 37.15625 16.890625 35.375
Q 19.28125 33.59375 26.515625 31.984375
L 29.59375 31.296875
Q 39.15625 29.25 43.1875 25.515625
Q 47.21875 21.78125 47.21875 15.09375
Q 47.21875 7.46875 41.1875 3.015625
Q 35.15625 -1.421875 24.609375 -1.421875
Q 20.21875 -1.421875 15.453125 -0.5625
Q 10.6875 0.296875 5.421875 2
L 5.421875 11.28125
Q 10.40625 8.6875 15.234375 7.390625
Q 20.0625 6.109375 24.8125 6.109375
Q 31.15625 6.109375 34.5625 8.28125
Q 37.984375 10.453125 37.984375 14.40625
Q 37.984375 18.0625 35.515625 20.015625
Q 33.0625 21.96875 24.703125 23.78125
L 21.578125 24.515625
Q 13.234375 26.265625 9.515625 29.90625
Q 5.8125 33.546875 5.8125 39.890625
Q 5.8125 47.609375 11.28125 51.796875
Q 16.75 56 26.8125 56
Q 31.78125 56 36.171875 55.265625
Q 40.578125 54.546875 44.28125 53.078125
z
" id="DejaVuSans-115"/>
      <path d="M 18.3125 70.21875
L 18.3125 54.6875
L 36.8125 54.6875
L 36.8125 47.703125
L 18.3125 47.703125
L 18.3125 18.015625
Q 18.3125 11.328125 20.140625 9.421875
Q 21.96875 7.515625 27.59375 7.515625
L 36.8125 7.515625
L 36.8125 0
L 27.59375 0
Q 17.1875 0 13.234375 3.875
Q 9.28125 7.765625 9.28125 18.015625
L 9.28125 47.703125
L 2.6875 47.703125
L 2.6875 54.6875
L 9.28125 54.6875
L 9.28125 70.21875
z
" id="DejaVuSans-116"/>
      <path id="DejaVuSans-32"/>
      <path d="M 18.109375 8.203125
L 18.109375 -20.796875
L 9.078125 -20.796875
L 9.078125 54.6875
L 18.109375 54.6875
L 18.109375 46.390625
Q 20.953125 51.265625 25.265625 53.625
Q 29.59375 56 35.59375 56
Q 45.5625 56 51.78125 48.09375
Q 58.015625 40.1875 58.015625 27.296875
Q 58.015625 14.40625 51.78125 6.484375
Q 45.5625 -1.421875 35.59375 -1.421875
Q 29.59375 -1.421875 25.265625 0.953125
Q 20.953125 3.328125 18.109375 8.203125
z
M 48.6875 27.296875
Q 48.6875 37.203125 44.609375 42.84375
Q 40.53125 48.484375 33.40625 48.484375
Q 26.265625 48.484375 22.1875 42.84375
Q 18.109375 37.203125 18.109375 27.296875
Q 18.109375 17.390625 22.1875 11.75
Q 26.265625 6.109375 33.40625 6.109375
Q 40.53125 6.109375 44.609375 11.75
Q 48.6875 17.390625 48.6875 27.296875
z
" id="DejaVuSans-112"/>
      <path d="M 4.890625 31.390625
L 31.203125 31.390625
L 31.203125 23.390625
L 4.890625 23.390625
z
" id="DejaVuSans-45"/>
      <path d="M 2.984375 54.6875
L 12.5 54.6875
L 29.59375 8.796875
L 46.6875 54.6875
L 56.203125 54.6875
L 35.6875 0
L 23.484375 0
z
" id="DejaVuSans-118"/>
      <path d="M 9.421875 75.984375
L 18.40625 75.984375
L 18.40625 0
L 9.421875 0
z
" id="DejaVuSans-108"/>
      <path d="M 19.671875 34.8125
L 19.671875 8.109375
L 35.5 8.109375
Q 43.453125 8.109375 47.28125 11.40625
Q 51.125 14.703125 51.125 21.484375
Q 51.125 28.328125 47.28125 31.5625
Q 43.453125 34.8125 35.5 34.8125
z
M 19.671875 64.796875
L 19.671875 42.828125
L 34.28125 42.828125
Q 41.5 42.828125 45.03125 45.53125
Q 48.578125 48.25 48.578125 53.8125
Q 48.578125 59.328125 45.03125 62.0625
Q 41.5 64.796875 34.28125 64.796875
z
M 9.8125 72.90625
L 35.015625 72.90625
Q 46.296875 72.90625 52.390625 68.21875
Q 58.5 63.53125 58.5 54.890625
Q 58.5 48.1875 55.375 44.234375
Q 52.25 40.28125 46.1875 39.3125
Q 53.46875 37.75 57.5 32.78125
Q 61.53125 27.828125 61.53125 20.40625
Q 61.53125 10.640625 54.890625 5.3125
Q 48.25 0 35.984375 0
L 9.8125 0
z
" id="DejaVuSans-66"/>
      <path d="M 9.8125 72.90625
L 19.671875 72.90625
L 19.671875 43.015625
L 55.515625 43.015625
L 55.515625 72.90625
L 65.375 72.90625
L 65.375 0
L 55.515625 0
L 55.515625 34.71875
L 19.671875 34.71875
L 19.671875 0
L 9.8125 0
z
" id="DejaVuSans-72"/>
      <path d="M 8.015625 75.875
L 15.828125 75.875
Q 23.140625 64.359375 26.78125 53.3125
Q 30.421875 42.28125 30.421875 31.390625
Q 30.421875 20.453125 26.78125 9.375
Q 23.140625 -1.703125 15.828125 -13.1875
L 8.015625 -13.1875
Q 14.5 -2 17.703125 9.0625
Q 20.90625 20.125 20.90625 31.390625
Q 20.90625 42.671875 17.703125 53.65625
Q 14.5 64.65625 8.015625 75.875
z
" id="DejaVuSans-41"/>
     </defs>
     <g transform="translate(104.665156 319.056782)scale(0.15 -0.15)">
      <use xlink:href="#DejaVuSans-77"/>
      <use x="86.279297" xlink:href="#DejaVuSans-101"/>
      <use x="147.802734" xlink:href="#DejaVuSans-100"/>
      <use x="211.279297" xlink:href="#DejaVuSans-105"/>
      <use x="239.0625" xlink:href="#DejaVuSans-97"/>
      <use x="300.341797" xlink:href="#DejaVuSans-110"/>
      <use x="363.720703" xlink:href="#DejaVuSans-40"/>
      <use x="402.734375" xlink:href="#DejaVuSans-97"/>
      <use x="464.013672" xlink:href="#DejaVuSans-100"/>
      <use x="527.490234" xlink:href="#DejaVuSans-106"/>
      <use x="555.273438" xlink:href="#DejaVuSans-117"/>
      <use x="618.652344" xlink:href="#DejaVuSans-115"/>
      <use x="670.751953" xlink:href="#DejaVuSans-116"/>
      <use x="709.960938" xlink:href="#DejaVuSans-101"/>
      <use x="771.484375" xlink:href="#DejaVuSans-100"/>
      <use x="834.960938" xlink:href="#DejaVuSans-32"/>
      <use x="866.748047" xlink:href="#DejaVuSans-112"/>
      <use x="930.224609" xlink:href="#DejaVuSans-45"/>
      <use x="966.277344" xlink:href="#DejaVuSans-118"/>
      <use x="1025.457031" xlink:href="#DejaVuSans-97"/>
      <use x="1086.736328" xlink:href="#DejaVuSans-108"/>
      <use x="1114.519531" xlink:href="#DejaVuSans-117"/>
      <use x="1177.898438" xlink:href="#DejaVuSans-101"/>
      <use x="1239.421875" xlink:href="#DejaVuSans-32"/>
      <use x="1271.208984" xlink:href="#DejaVuSans-40"/>
      <use x="1310.222656" xlink:href="#DejaVuSans-66"/>
      <use x="1378.826172" xlink:href="#DejaVuSans-72"/>
      <use x="1454.021484" xlink:href="#DejaVuSans-41"/>
      <use x="1493.035156" xlink:href="#DejaVuSans-41"/>
     </g>
    </g>
   </g>
   <g id="matplotlib.axis_2">
    <g id="ytick_1">
     <g id="line2d_19">
      <path clip-path="url(#p0e1a798b9b)" d="M 46.772188 274.599376
L 403.892188 274.599376
" style="fill:none;stroke:#e5e5e5;stroke-width:0.8;"/>
     </g>
     <g id="line2d_20">
      <path d="M 46.772188 274.599376
" style="fill:none;stroke:#000000;stroke-width:1.5;"/>
      <defs>
       <path d="M 0 0
L -2.75 0
" id="ma99cded53e" style="stroke:#000000;"/>
      </defs>
      <g>
       <use style="stroke:#000000;" x="46.772188" xlink:href="#ma99cded53e" y="274.599376"/>
      </g>
     </g>
     <g id="text_7">
      <!-- 0 -->
      <g style="fill:#4d4d4d;" transform="translate(34.187188 277.910626)scale(0.12 -0.12)">
       <use xlink:href="#DejaVuSans-48"/>
      </g>
     </g>
    </g>
    <g id="ytick_2">
     <g id="line2d_21">
      <path clip-path="url(#p0e1a798b9b)" d="M 46.772188 214.119376
L 403.892188 214.119376
" style="fill:none;stroke:#e5e5e5;stroke-width:0.8;"/>
     </g>
     <g id="line2d_22">
      <path d="M 46.772188 214.119376
" style="fill:none;stroke:#000000;stroke-width:1.5;"/>
      <g>
       <use style="stroke:#000000;" x="46.772188" xlink:href="#ma99cded53e" y="214.119376"/>
      </g>
     </g>
     <g id="text_8">
      <!-- 25 -->
      <g style="fill:#4d4d4d;" transform="translate(26.552188 217.430626)scale(0.12 -0.12)">
       <use xlink:href="#DejaVuSans-50"/>
       <use x="63.623047" xlink:href="#DejaVuSans-53"/>
      </g>
     </g>
    </g>
    <g id="ytick_3">
     <g id="line2d_23">
      <path clip-path="url(#p0e1a798b9b)" d="M 46.772188 153.639376
L 403.892188 153.639376
" style="fill:none;stroke:#e5e5e5;stroke-width:0.8;"/>
     </g>
     <g id="line2d_24">
      <path d="M 46.772188 153.639376
" style="fill:none;stroke:#000000;stroke-width:1.5;"/>
      <g>
       <use style="stroke:#000000;" x="46.772188" xlink:href="#ma99cded53e" y="153.639376"/>
      </g>
     </g>
     <g id="text_9">
      <!-- 50 -->
      <g style="fill:#4d4d4d;" transform="translate(26.552188 156.950626)scale(0.12 -0.12)">
       <use xlink:href="#DejaVuSans-53"/>
       <use x="63.623047" xlink:href="#DejaVuSans-48"/>
      </g>
     </g>
    </g>
    <g id="ytick_4">
     <g id="line2d_25">
      <path clip-path="url(#p0e1a798b9b)" d="M 46.772188 93.159376
L 403.892188 93.159376
" style="fill:none;stroke:#e5e5e5;stroke-width:0.8;"/>
     </g>
     <g id="line2d_26">
      <path d="M 46.772188 93.159376
" style="fill:none;stroke:#000000;stroke-width:1.5;"/>
      <g>
       <use style="stroke:#000000;" x="46.772188" xlink:href="#ma99cded53e" y="93.159376"/>
      </g>
     </g>
     <g id="text_10">
      <!-- 75 -->
      <g style="fill:#4d4d4d;" transform="translate(26.552188 96.470626)scale(0.12 -0.12)">
       <use xlink:href="#DejaVuSans-55"/>
       <use x="63.623047" xlink:href="#DejaVuSans-53"/>
      </g>
     </g>
    </g>
    <g id="ytick_5">
     <g id="line2d_27">
      <path clip-path="url(#p0e1a798b9b)" d="M 46.772188 32.679376
L 403.892188 32.679376
" style="fill:none;stroke:#e5e5e5;stroke-width:0.8;"/>
     </g>
     <g id="line2d_28">
      <path d="M 46.772188 32.679376
" style="fill:none;stroke:#000000;stroke-width:1.5;"/>
      <g>
       <use style="stroke:#000000;" x="46.772188" xlink:href="#ma99cded53e" y="32.679376"/>
      </g>
     </g>
     <g id="text_11">
      <!-- 100 -->
      <g style="fill:#4d4d4d;" transform="translate(18.917188 35.990626)scale(0.12 -0.12)">
       <use xlink:href="#DejaVuSans-49"/>
       <use x="63.623047" xlink:href="#DejaVuSans-48"/>
       <use x="127.246094" xlink:href="#DejaVuSans-48"/>
      </g>
     </g>
    </g>
    <g id="ytick_6">
     <g id="line2d_29">
      <path clip-path="url(#p0e1a798b9b)" d="M 46.772188 244.359376
L 403.892188 244.359376
" style="fill:none;stroke:#fafafa;"/>
     </g>
     <g id="line2d_30">
      <path d="M 46.772188 244.359376
" style="fill:none;stroke:#000000;stroke-width:1.5;"/>
     </g>
    </g>
    <g id="ytick_7">
     <g id="line2d_31">
      <path clip-path="url(#p0e1a798b9b)" d="M 46.772188 183.879376
L 403.892188 183.879376
" style="fill:none;stroke:#fafafa;"/>
     </g>
     <g id="line2d_32">
      <path d="M 46.772188 183.879376
" style="fill:none;stroke:#000000;stroke-width:1.5;"/>
     </g>
    </g>
    <g id="ytick_8">
     <g id="line2d_33">
      <path clip-path="url(#p0e1a798b9b)" d="M 46.772188 123.399376
L 403.892188 123.399376
" style="fill:none;stroke:#fafafa;"/>
     </g>
     <g id="line2d_34">
      <path d="M 46.772188 123.399376
" style="fill:none;stroke:#000000;stroke-width:1.5;"/>
     </g>
    </g>
    <g id="ytick_9">
     <g id="line2d_35">
      <path clip-path="url(#p0e1a798b9b)" d="M 46.772188 62.919376
L 403.892188 62.919376
" style="fill:none;stroke:#fafafa;"/>
     </g>
     <g id="line2d_36">
      <path d="M 46.772188 62.919376
" style="fill:none;stroke:#000000;stroke-width:1.5;"/>
     </g>
    </g>
    <g id="text_12">
     <!-- Genericness (percentile of ranking) -->
     <defs>
      <path d="M 59.515625 10.40625
L 59.515625 29.984375
L 43.40625 29.984375
L 43.40625 38.09375
L 69.28125 38.09375
L 69.28125 6.78125
Q 63.578125 2.734375 56.6875 0.65625
Q 49.8125 -1.421875 42 -1.421875
Q 24.90625 -1.421875 15.25 8.5625
Q 5.609375 18.5625 5.609375 36.375
Q 5.609375 54.25 15.25 64.234375
Q 24.90625 74.21875 42 74.21875
Q 49.125 74.21875 55.546875 72.453125
Q 61.96875 70.703125 67.390625 67.28125
L 67.390625 56.78125
Q 61.921875 61.421875 55.765625 63.765625
Q 49.609375 66.109375 42.828125 66.109375
Q 29.4375 66.109375 22.71875 58.640625
Q 16.015625 51.171875 16.015625 36.375
Q 16.015625 21.625 22.71875 14.15625
Q 29.4375 6.6875 42.828125 6.6875
Q 48.046875 6.6875 52.140625 7.59375
Q 56.25 8.5 59.515625 10.40625
z
" id="DejaVuSans-71"/>
      <path d="M 41.109375 46.296875
Q 39.59375 47.171875 37.8125 47.578125
Q 36.03125 48 33.890625 48
Q 26.265625 48 22.1875 43.046875
Q 18.109375 38.09375 18.109375 28.8125
L 18.109375 0
L 9.078125 0
L 9.078125 54.6875
L 18.109375 54.6875
L 18.109375 46.1875
Q 20.953125 51.171875 25.484375 53.578125
Q 30.03125 56 36.53125 56
Q 37.453125 56 38.578125 55.875
Q 39.703125 55.765625 41.0625 55.515625
z
" id="DejaVuSans-114"/>
      <path d="M 48.78125 52.59375
L 48.78125 44.1875
Q 44.96875 46.296875 41.140625 47.34375
Q 37.3125 48.390625 33.40625 48.390625
Q 24.65625 48.390625 19.8125 42.84375
Q 14.984375 37.3125 14.984375 27.296875
Q 14.984375 17.28125 19.8125 11.734375
Q 24.65625 6.203125 33.40625 6.203125
Q 37.3125 6.203125 41.140625 7.25
Q 44.96875 8.296875 48.78125 10.40625
L 48.78125 2.09375
Q 45.015625 0.34375 40.984375 -0.53125
Q 36.96875 -1.421875 32.421875 -1.421875
Q 20.0625 -1.421875 12.78125 6.34375
Q 5.515625 14.109375 5.515625 27.296875
Q 5.515625 40.671875 12.859375 48.328125
Q 20.21875 56 33.015625 56
Q 37.15625 56 41.109375 55.140625
Q 45.0625 54.296875 48.78125 52.59375
z
" id="DejaVuSans-99"/>
      <path d="M 30.609375 48.390625
Q 23.390625 48.390625 19.1875 42.75
Q 14.984375 37.109375 14.984375 27.296875
Q 14.984375 17.484375 19.15625 11.84375
Q 23.34375 6.203125 30.609375 6.203125
Q 37.796875 6.203125 41.984375 11.859375
Q 46.1875 17.53125 46.1875 27.296875
Q 46.1875 37.015625 41.984375 42.703125
Q 37.796875 48.390625 30.609375 48.390625
z
M 30.609375 56
Q 42.328125 56 49.015625 48.375
Q 55.71875 40.765625 55.71875 27.296875
Q 55.71875 13.875 49.015625 6.21875
Q 42.328125 -1.421875 30.609375 -1.421875
Q 18.84375 -1.421875 12.171875 6.21875
Q 5.515625 13.875 5.515625 27.296875
Q 5.515625 40.765625 12.171875 48.375
Q 18.84375 56 30.609375 56
z
" id="DejaVuSans-111"/>
      <path d="M 37.109375 75.984375
L 37.109375 68.5
L 28.515625 68.5
Q 23.6875 68.5 21.796875 66.546875
Q 19.921875 64.59375 19.921875 59.515625
L 19.921875 54.6875
L 34.71875 54.6875
L 34.71875 47.703125
L 19.921875 47.703125
L 19.921875 0
L 10.890625 0
L 10.890625 47.703125
L 2.296875 47.703125
L 2.296875 54.6875
L 10.890625 54.6875
L 10.890625 58.5
Q 10.890625 67.625 15.140625 71.796875
Q 19.390625 75.984375 28.609375 75.984375
z
" id="DejaVuSans-102"/>
      <path d="M 9.078125 75.984375
L 18.109375 75.984375
L 18.109375 31.109375
L 44.921875 54.6875
L 56.390625 54.6875
L 27.390625 29.109375
L 57.625 0
L 45.90625 0
L 18.109375 26.703125
L 18.109375 0
L 9.078125 0
z
" id="DejaVuSans-107"/>
      <path d="M 45.40625 27.984375
Q 45.40625 37.75 41.375 43.109375
Q 37.359375 48.484375 30.078125 48.484375
Q 22.859375 48.484375 18.828125 43.109375
Q 14.796875 37.75 14.796875 27.984375
Q 14.796875 18.265625 18.828125 12.890625
Q 22.859375 7.515625 30.078125 7.515625
Q 37.359375 7.515625 41.375 12.890625
Q 45.40625 18.265625 45.40625 27.984375
z
M 54.390625 6.78125
Q 54.390625 -7.171875 48.1875 -13.984375
Q 42 -20.796875 29.203125 -20.796875
Q 24.46875 -20.796875 20.265625 -20.09375
Q 16.0625 -19.390625 12.109375 -17.921875
L 12.109375 -9.1875
Q 16.0625 -11.328125 19.921875 -12.34375
Q 23.78125 -13.375 27.78125 -13.375
Q 36.625 -13.375 41.015625 -8.765625
Q 45.40625 -4.15625 45.40625 5.171875
L 45.40625 9.625
Q 42.625 4.78125 38.28125 2.390625
Q 33.9375 0 27.875 0
Q 17.828125 0 11.671875 7.65625
Q 5.515625 15.328125 5.515625 27.984375
Q 5.515625 40.671875 11.671875 48.328125
Q 17.828125 56 27.875 56
Q 33.9375 56 38.28125 53.609375
Q 42.625 51.21875 45.40625 46.390625
L 45.40625 54.6875
L 54.390625 54.6875
z
" id="DejaVuSans-103"/>
     </defs>
     <g transform="translate(11.397656 284.455126)rotate(-90)scale(0.15 -0.15)">
      <use xlink:href="#DejaVuSans-71"/>
      <use x="77.490234" xlink:href="#DejaVuSans-101"/>
      <use x="139.013672" xlink:href="#DejaVuSans-110"/>
      <use x="202.392578" xlink:href="#DejaVuSans-101"/>
      <use x="263.916016" xlink:href="#DejaVuSans-114"/>
      <use x="305.029297" xlink:href="#DejaVuSans-105"/>
      <use x="332.8125" xlink:href="#DejaVuSans-99"/>
      <use x="387.792969" xlink:href="#DejaVuSans-110"/>
      <use x="451.171875" xlink:href="#DejaVuSans-101"/>
      <use x="512.695312" xlink:href="#DejaVuSans-115"/>
      <use x="564.794922" xlink:href="#DejaVuSans-115"/>
      <use x="616.894531" xlink:href="#DejaVuSans-32"/>
      <use x="648.681641" xlink:href="#DejaVuSans-40"/>
      <use x="687.695312" xlink:href="#DejaVuSans-112"/>
      <use x="751.171875" xlink:href="#DejaVuSans-101"/>
      <use x="812.695312" xlink:href="#DejaVuSans-114"/>
      <use x="853.777344" xlink:href="#DejaVuSans-99"/>
      <use x="908.757812" xlink:href="#DejaVuSans-101"/>
      <use x="970.28125" xlink:href="#DejaVuSans-110"/>
      <use x="1033.660156" xlink:href="#DejaVuSans-116"/>
      <use x="1072.869141" xlink:href="#DejaVuSans-105"/>
      <use x="1100.652344" xlink:href="#DejaVuSans-108"/>
      <use x="1128.435547" xlink:href="#DejaVuSans-101"/>
      <use x="1189.958984" xlink:href="#DejaVuSans-32"/>
      <use x="1221.746094" xlink:href="#DejaVuSans-111"/>
      <use x="1282.927734" xlink:href="#DejaVuSans-102"/>
      <use x="1318.132812" xlink:href="#DejaVuSans-32"/>
      <use x="1349.919922" xlink:href="#DejaVuSans-114"/>
      <use x="1391.033203" xlink:href="#DejaVuSans-97"/>
      <use x="1452.3125" xlink:href="#DejaVuSans-110"/>
      <use x="1515.691406" xlink:href="#DejaVuSans-107"/>
      <use x="1573.601562" xlink:href="#DejaVuSans-105"/>
      <use x="1601.384766" xlink:href="#DejaVuSans-110"/>
      <use x="1664.763672" xlink:href="#DejaVuSans-103"/>
      <use x="1728.240234" xlink:href="#DejaVuSans-41"/>
     </g>
    </g>
   </g>
   <g id="PathCollection_1">
    <path clip-path="url(#p0e1a798b9b)" d="M 348.199379 211.134976
C 348.669439 211.134976 349.12031 210.948219 349.452693 210.615836
C 349.785076 210.283453 349.971833 209.832582 349.971833 209.362522
C 349.971833 208.892462 349.785076 208.441591 349.452693 208.109208
C 349.12031 207.776825 348.669439 207.590068 348.199379 207.590068
C 347.729319 207.590068 347.278448 207.776825 346.946065 208.109208
C 346.613682 208.441591 346.426925 208.892462 346.426925 209.362522
C 346.426925 209.832582 346.613682 210.283453 346.946065 210.615836
C 347.278448 210.948219 347.729319 211.134976 348.199379 211.134976
z
" style="stroke:#000000;stroke-width:0.886227;"/>
    <path clip-path="url(#p0e1a798b9b)" d="M 387.65946 276.37183
C 388.12952 276.37183 388.580392 276.185073 388.912774 275.85269
C 389.245157 275.520307 389.431914 275.069436 389.431914 274.599376
C 389.431914 274.129316 389.245157 273.678444 388.912774 273.346062
C 388.580392 273.013679 388.12952 272.826922 387.65946 272.826922
C 387.1894 272.826922 386.738529 273.013679 386.406146 273.346062
C 386.073763 273.678444 385.887006 274.129316 385.887006 274.599376
C 385.887006 275.069436 386.073763 275.520307 386.406146 275.85269
C 386.738529 276.185073 387.1894 276.37183 387.65946 276.37183
z
" style="stroke:#000000;stroke-width:0.886227;"/>
    <path clip-path="url(#p0e1a798b9b)" d="M 348.199379 211.134976
C 348.669439 211.134976 349.12031 210.948219 349.452693 210.615836
C 349.785076 210.283453 349.971833 209.832582 349.971833 209.362522
C 349.971833 208.892462 349.785076 208.441591 349.452693 208.109208
C 349.12031 207.776825 348.669439 207.590068 348.199379 207.590068
C 347.729319 207.590068 347.278448 207.776825 346.946065 208.109208
C 346.613682 208.441591 346.426925 208.892462 346.426925 209.362522
C 346.426925 209.832582 346.613682 210.283453 346.946065 210.615836
C 347.278448 210.948219 347.729319 211.134976 348.199379 211.134976
z
" style="stroke:#000000;stroke-width:0.886227;"/>
    <path clip-path="url(#p0e1a798b9b)" d="M 164.883707 99.688684
C 165.353767 99.688684 165.804638 99.501927 166.137021 99.169544
C 166.469404 98.837161 166.656161 98.38629 166.656161 97.91623
C 166.656161 97.446169 166.469404 96.995298 166.137021 96.662916
C 165.804638 96.330533 165.353767 96.143776 164.883707 96.143776
C 164.413647 96.143776 163.962776 96.330533 163.630393 96.662916
C 163.29801 96.995298 163.111253 97.446169 163.111253 97.91623
C 163.111253 98.38629 163.29801 98.837161 163.630393 99.169544
C 163.962776 99.501927 164.413647 99.688684 164.883707 99.688684
z
" style="stroke:#000000;stroke-width:0.886227;"/>
    <path clip-path="url(#p0e1a798b9b)" d="M 387.65946 276.37183
C 388.12952 276.37183 388.580392 276.185073 388.912774 275.85269
C 389.245157 275.520307 389.431914 275.069436 389.431914 274.599376
C 389.431914 274.129316 389.245157 273.678444 388.912774 273.346062
C 388.580392 273.013679 388.12952 272.826922 387.65946 272.826922
C 387.1894 272.826922 386.738529 273.013679 386.406146 273.346062
C 386.073763 273.678444 385.887006 274.129316 385.887006 274.599376
C 385.887006 275.069436 386.073763 275.520307 386.406146 275.85269
C 386.738529 276.185073 387.1894 276.37183 387.65946 276.37183
z
" style="stroke:#000000;stroke-width:0.886227;"/>
    <path clip-path="url(#p0e1a798b9b)" d="M 362.466417 224.725987
C 362.936477 224.725987 363.387348 224.53923 363.719731 224.206847
C 364.052113 223.874464 364.23887 223.423593 364.23887 222.953533
C 364.23887 222.483473 364.052113 222.032602 363.719731 221.700219
C 363.387348 221.367836 362.936477 221.181079 362.466417 221.181079
C 361.996356 221.181079 361.545485 221.367836 361.213102 221.700219
C 360.88072 222.032602 360.693963 222.483473 360.693963 222.953533
C 360.693963 223.423593 360.88072 223.874464 361.213102 224.206847
C 361.545485 224.53923 361.996356 224.725987 362.466417 224.725987
z
" style="stroke:#000000;stroke-width:0.886227;"/>
    <path clip-path="url(#p0e1a798b9b)" d="M 387.65946 276.37183
C 388.12952 276.37183 388.580392 276.185073 388.912774 275.85269
C 389.245157 275.520307 389.431914 275.069436 389.431914 274.599376
C 389.431914 274.129316 389.245157 273.678444 388.912774 273.346062
C 388.580392 273.013679 388.12952 272.826922 387.65946 272.826922
C 387.1894 272.826922 386.738529 273.013679 386.406146 273.346062
C 386.073763 273.678444 385.887006 274.129316 385.887006 274.599376
C 385.887006 275.069436 386.073763 275.520307 386.406146 275.85269
C 386.738529 276.185073 387.1894 276.37183 387.65946 276.37183
z
" style="stroke:#000000;stroke-width:0.886227;"/>
    <path clip-path="url(#p0e1a798b9b)" d="M 387.65946 276.37183
C 388.12952 276.37183 388.580392 276.185073 388.912774 275.85269
C 389.245157 275.520307 389.431914 275.069436 389.431914 274.599376
C 389.431914 274.129316 389.245157 273.678444 388.912774 273.346062
C 388.580392 273.013679 388.12952 272.826922 387.65946 272.826922
C 387.1894 272.826922 386.738529 273.013679 386.406146 273.346062
C 386.073763 273.678444 385.887006 274.129316 385.887006 274.599376
C 385.887006 275.069436 386.073763 275.520307 386.406146 275.85269
C 386.738529 276.185073 387.1894 276.37183 387.65946 276.37183
z
" style="stroke:#000000;stroke-width:0.886227;"/>
    <path clip-path="url(#p0e1a798b9b)" d="M 380.877259 235.598796
C 381.347319 235.598796 381.79819 235.412039 382.130573 235.079656
C 382.462956 234.747273 382.649713 234.296402 382.649713 233.826342
C 382.649713 233.356282 382.462956 232.905411 382.130573 232.573028
C 381.79819 232.240645 381.347319 232.053888 380.877259 232.053888
C 380.407199 232.053888 379.956327 232.240645 379.623945 232.573028
C 379.291562 232.905411 379.104805 233.356282 379.104805 233.826342
C 379.104805 234.296402 379.291562 234.747273 379.623945 235.079656
C 379.956327 235.412039 380.407199 235.598796 380.877259 235.598796
z
" style="stroke:#000000;stroke-width:0.886227;"/>
    <path clip-path="url(#p0e1a798b9b)" d="M 63.004915 34.45183
C 63.474975 34.45183 63.925846 34.265073 64.258229 33.93269
C 64.590612 33.600307 64.777369 33.149436 64.777369 32.679376
C 64.777369 32.209316 64.590612 31.758444 64.258229 31.426062
C 63.925846 31.093679 63.474975 30.906922 63.004915 30.906922
C 62.534855 30.906922 62.083983 31.093679 61.751601 31.426062
C 61.419218 31.758444 61.232461 32.209316 61.232461 32.679376
C 61.232461 33.149436 61.419218 33.600307 61.751601 33.93269
C 62.083983 34.265073 62.534855 34.45183 63.004915 34.45183
z
" style="stroke:#000000;stroke-width:0.886227;"/>
    <path clip-path="url(#p0e1a798b9b)" d="M 255.890975 170.361942
C 256.361035 170.361942 256.811906 170.175185 257.144289 169.842802
C 257.476672 169.51042 257.663429 169.059548 257.663429 168.589488
C 257.663429 168.119428 257.476672 167.668557 257.144289 167.336174
C 256.811906 167.003791 256.361035 166.817034 255.890975 166.817034
C 255.420914 166.817034 254.970043 167.003791 254.637661 167.336174
C 254.305278 167.668557 254.118521 168.119428 254.118521 168.589488
C 254.118521 169.059548 254.305278 169.51042 254.637661 169.842802
C 254.970043 170.175185 255.420914 170.361942 255.890975 170.361942
z
" style="stroke:#000000;stroke-width:0.886227;"/>
    <path clip-path="url(#p0e1a798b9b)" d="M 206.481028 115.997897
C 206.951089 115.997897 207.40196 115.81114 207.734343 115.478757
C 208.066725 115.146375 208.253482 114.695503 208.253482 114.225443
C 208.253482 113.755383 208.066725 113.304512 207.734343 112.972129
C 207.40196 112.639746 206.951089 112.452989 206.481028 112.452989
C 206.010968 112.452989 205.560097 112.639746 205.227714 112.972129
C 204.895331 113.304512 204.708575 113.755383 204.708575 114.225443
C 204.708575 114.695503 204.895331 115.146375 205.227714 115.478757
C 205.560097 115.81114 206.010968 115.997897 206.481028 115.997897
z
" style="stroke:#000000;stroke-width:0.886227;"/>
    <path clip-path="url(#p0e1a798b9b)" d="M 65.850681 45.324639
C 66.320741 45.324639 66.771612 45.137882 67.103995 44.805499
C 67.436378 44.473116 67.623135 44.022245 67.623135 43.552185
C 67.623135 43.082125 67.436378 42.631253 67.103995 42.298871
C 66.771612 41.966488 66.320741 41.779731 65.850681 41.779731
C 65.38062 41.779731 64.929749 41.966488 64.597367 42.298871
C 64.264984 42.631253 64.078227 43.082125 64.078227 43.552185
C 64.078227 44.022245 64.264984 44.473116 64.597367 44.805499
C 64.929749 45.137882 65.38062 45.324639 65.850681 45.324639
z
" style="stroke:#000000;stroke-width:0.886227;"/>
    <path clip-path="url(#p0e1a798b9b)" d="M 367.333238 230.162391
C 367.803298 230.162391 368.254169 229.975635 368.586552 229.643252
C 368.918935 229.310869 369.105692 228.859998 369.105692 228.389938
C 369.105692 227.919877 368.918935 227.469006 368.586552 227.136623
C 368.254169 226.804241 367.803298 226.617484 367.333238 226.617484
C 366.863178 226.617484 366.412307 226.804241 366.079924 227.136623
C 365.747541 227.469006 365.560784 227.919877 365.560784 228.389938
C 365.560784 228.859998 365.747541 229.310869 366.079924 229.643252
C 366.412307 229.975635 366.863178 230.162391 367.333238 230.162391
z
" style="stroke:#000000;stroke-width:0.886227;"/>
    <path clip-path="url(#p0e1a798b9b)" d="M 387.65946 276.37183
C 388.12952 276.37183 388.580392 276.185073 388.912774 275.85269
C 389.245157 275.520307 389.431914 275.069436 389.431914 274.599376
C 389.431914 274.129316 389.245157 273.678444 388.912774 273.346062
C 388.580392 273.013679 388.12952 272.826922 387.65946 272.826922
C 387.1894 272.826922 386.738529 273.013679 386.406146 273.346062
C 386.073763 273.678444 385.887006 274.129316 385.887006 274.599376
C 385.887006 275.069436 386.073763 275.520307 386.406146 275.85269
C 386.738529 276.185073 387.1894 276.37183 387.65946 276.37183
z
" style="stroke:#000000;stroke-width:0.886227;"/>
    <path clip-path="url(#p0e1a798b9b)" d="M 64.153672 39.888234
C 64.623733 39.888234 65.074604 39.701477 65.406986 39.369094
C 65.739369 39.036712 65.926126 38.585841 65.926126 38.11578
C 65.926126 37.64572 65.739369 37.194849 65.406986 36.862466
C 65.074604 36.530083 64.623733 36.343326 64.153672 36.343326
C 63.683612 36.343326 63.232741 36.530083 62.900358 36.862466
C 62.567975 37.194849 62.381218 37.64572 62.381218 38.11578
C 62.381218 38.585841 62.567975 39.036712 62.900358 39.369094
C 63.232741 39.701477 63.683612 39.888234 64.153672 39.888234
z
" style="stroke:#000000;stroke-width:0.886227;"/>
    <path clip-path="url(#p0e1a798b9b)" d="M 387.65946 276.37183
C 388.12952 276.37183 388.580392 276.185073 388.912774 275.85269
C 389.245157 275.520307 389.431914 275.069436 389.431914 274.599376
C 389.431914 274.129316 389.245157 273.678444 388.912774 273.346062
C 388.580392 273.013679 388.12952 272.826922 387.65946 272.826922
C 387.1894 272.826922 386.738529 273.013679 386.406146 273.346062
C 386.073763 273.678444 385.887006 274.129316 385.887006 274.599376
C 385.887006 275.069436 386.073763 275.520307 386.406146 275.85269
C 386.738529 276.185073 387.1894 276.37183 387.65946 276.37183
z
" style="stroke:#000000;stroke-width:0.886227;"/>
    <path clip-path="url(#p0e1a798b9b)" d="M 351.789856 219.289582
C 352.259916 219.289582 352.710787 219.102826 353.04317 218.770443
C 353.375553 218.43806 353.56231 217.987189 353.56231 217.517129
C 353.56231 217.047068 353.375553 216.596197 353.04317 216.263814
C 352.710787 215.931432 352.259916 215.744675 351.789856 215.744675
C 351.319796 215.744675 350.868925 215.931432 350.536542 216.263814
C 350.204159 216.596197 350.017402 217.047068 350.017402 217.517129
C 350.017402 217.987189 350.204159 218.43806 350.536542 218.770443
C 350.868925 219.102826 351.319796 219.289582 351.789856 219.289582
z
" style="stroke:#000000;stroke-width:0.886227;"/>
    <path clip-path="url(#p0e1a798b9b)" d="M 107.328466 67.070257
C 107.798527 67.070257 108.249398 66.8835 108.581781 66.551117
C 108.914163 66.218734 109.10092 65.767863 109.10092 65.297803
C 109.10092 64.827743 108.914163 64.376871 108.581781 64.044489
C 108.249398 63.712106 107.798527 63.525349 107.328466 63.525349
C 106.858406 63.525349 106.407535 63.712106 106.075152 64.044489
C 105.74277 64.376871 105.556013 64.827743 105.556013 65.297803
C 105.556013 65.767863 105.74277 66.218734 106.075152 66.551117
C 106.407535 66.8835 106.858406 67.070257 107.328466 67.070257
z
" style="stroke:#000000;stroke-width:0.886227;"/>
    <path clip-path="url(#p0e1a798b9b)" d="M 170.518297 110.561493
C 170.988357 110.561493 171.439228 110.374736 171.771611 110.042353
C 172.103994 109.70997 172.29075 109.259099 172.29075 108.789039
C 172.29075 108.318978 172.103994 107.868107 171.771611 107.535725
C 171.439228 107.203342 170.988357 107.016585 170.518297 107.016585
C 170.048236 107.016585 169.597365 107.203342 169.264982 107.535725
C 168.9326 107.868107 168.745843 108.318978 168.745843 108.789039
C 168.745843 109.259099 168.9326 109.70997 169.264982 110.042353
C 169.597365 110.374736 170.048236 110.561493 170.518297 110.561493
z
" style="stroke:#000000;stroke-width:0.886227;"/>
    <path clip-path="url(#p0e1a798b9b)" d="M 237.148878 154.052729
C 237.618938 154.052729 238.069809 153.865972 238.402192 153.533589
C 238.734575 153.201206 238.921332 152.750335 238.921332 152.280275
C 238.921332 151.810214 238.734575 151.359343 238.402192 151.026961
C 238.069809 150.694578 237.618938 150.507821 237.148878 150.507821
C 236.678818 150.507821 236.227947 150.694578 235.895564 151.026961
C 235.563181 151.359343 235.376424 151.810214 235.376424 152.280275
C 235.376424 152.750335 235.563181 153.201206 235.895564 153.533589
C 236.227947 153.865972 236.678818 154.052729 237.148878 154.052729
z
" style="stroke:#000000;stroke-width:0.886227;"/>
    <path clip-path="url(#p0e1a798b9b)" d="M 387.65946 276.37183
C 388.12952 276.37183 388.580392 276.185073 388.912774 275.85269
C 389.245157 275.520307 389.431914 275.069436 389.431914 274.599376
C 389.431914 274.129316 389.245157 273.678444 388.912774 273.346062
C 388.580392 273.013679 388.12952 272.826922 387.65946 272.826922
C 387.1894 272.826922 386.738529 273.013679 386.406146 273.346062
C 386.073763 273.678444 385.887006 274.129316 385.887006 274.599376
C 385.887006 275.069436 386.073763 275.520307 386.406146 275.85269
C 386.738529 276.185073 387.1894 276.37183 387.65946 276.37183
z
" style="stroke:#000000;stroke-width:0.886227;"/>
    <path clip-path="url(#p0e1a798b9b)" d="M 223.905704 143.17992
C 224.375764 143.17992 224.826635 142.993163 225.159018 142.66078
C 225.491401 142.328397 225.678158 141.877526 225.678158 141.407466
C 225.678158 140.937405 225.491401 140.486534 225.159018 140.154152
C 224.826635 139.821769 224.375764 139.635012 223.905704 139.635012
C 223.435644 139.635012 222.984773 139.821769 222.65239 140.154152
C 222.320007 140.486534 222.13325 140.937405 222.13325 141.407466
C 222.13325 141.877526 222.320007 142.328397 222.65239 142.66078
C 222.984773 142.993163 223.435644 143.17992 223.905704 143.17992
z
" style="stroke:#000000;stroke-width:0.886227;"/>
    <path clip-path="url(#p0e1a798b9b)" d="M 220.648255 137.743515
C 221.118315 137.743515 221.569186 137.556758 221.901569 137.224375
C 222.233952 136.891993 222.420709 136.441121 222.420709 135.971061
C 222.420709 135.501001 222.233952 135.05013 221.901569 134.717747
C 221.569186 134.385364 221.118315 134.198607 220.648255 134.198607
C 220.178195 134.198607 219.727323 134.385364 219.394941 134.717747
C 219.062558 135.05013 218.875801 135.501001 218.875801 135.971061
C 218.875801 136.441121 219.062558 136.891993 219.394941 137.224375
C 219.727323 137.556758 220.178195 137.743515 220.648255 137.743515
z
" style="stroke:#000000;stroke-width:0.886227;"/>
    <path clip-path="url(#p0e1a798b9b)" d="M 160.61032 88.815875
C 161.080381 88.815875 161.531252 88.629118 161.863634 88.296735
C 162.196017 87.964352 162.382774 87.513481 162.382774 87.043421
C 162.382774 86.573361 162.196017 86.122489 161.863634 85.790107
C 161.531252 85.457724 161.080381 85.270967 160.61032 85.270967
C 160.14026 85.270967 159.689389 85.457724 159.357006 85.790107
C 159.024623 86.122489 158.837866 86.573361 158.837866 87.043421
C 158.837866 87.513481 159.024623 87.964352 159.357006 88.296735
C 159.689389 88.629118 160.14026 88.815875 160.61032 88.815875
z
" style="stroke:#000000;stroke-width:0.886227;"/>
    <path clip-path="url(#p0e1a798b9b)" d="M 113.526779 72.506661
C 113.996839 72.506661 114.44771 72.319904 114.780093 71.987521
C 115.112476 71.655139 115.299233 71.204268 115.299233 70.734207
C 115.299233 70.264147 115.112476 69.813276 114.780093 69.480893
C 114.44771 69.14851 113.996839 68.961753 113.526779 68.961753
C 113.056719 68.961753 112.605847 69.14851 112.273465 69.480893
C 111.941082 69.813276 111.754325 70.264147 111.754325 70.734207
C 111.754325 71.204268 111.941082 71.655139 112.273465 71.987521
C 112.605847 72.319904 113.056719 72.506661 113.526779 72.506661
z
" style="stroke:#000000;stroke-width:0.886227;"/>
    <path clip-path="url(#p0e1a798b9b)" d="M 93.346774 50.761043
C 93.816834 50.761043 94.267705 50.574286 94.600088 50.241903
C 94.932471 49.909521 95.119228 49.45865 95.119228 48.988589
C 95.119228 48.518529 94.932471 48.067658 94.600088 47.735275
C 94.267705 47.402892 93.816834 47.216135 93.346774 47.216135
C 92.876714 47.216135 92.425842 47.402892 92.09346 47.735275
C 91.761077 48.067658 91.57432 48.518529 91.57432 48.988589
C 91.57432 49.45865 91.761077 49.909521 92.09346 50.241903
C 92.425842 50.574286 92.876714 50.761043 93.346774 50.761043
z
" style="stroke:#000000;stroke-width:0.886227;"/>
    <path clip-path="url(#p0e1a798b9b)" d="M 93.391491 56.197448
C 93.861551 56.197448 94.312422 56.010691 94.644805 55.678308
C 94.977188 55.345925 95.163945 54.895054 95.163945 54.424994
C 95.163945 53.954934 94.977188 53.504062 94.644805 53.17168
C 94.312422 52.839297 93.861551 52.65254 93.391491 52.65254
C 92.921431 52.65254 92.47056 52.839297 92.138177 53.17168
C 91.805794 53.504062 91.619037 53.954934 91.619037 54.424994
C 91.619037 54.895054 91.805794 55.345925 92.138177 55.678308
C 92.47056 56.010691 92.921431 56.197448 93.391491 56.197448
z
" style="stroke:#000000;stroke-width:0.886227;"/>
    <path clip-path="url(#p0e1a798b9b)" d="M 333.556881 192.10756
C 334.026941 192.10756 334.477812 191.920803 334.810195 191.58842
C 335.142578 191.256037 335.329335 190.805166 335.329335 190.335106
C 335.329335 189.865046 335.142578 189.414175 334.810195 189.081792
C 334.477812 188.749409 334.026941 188.562652 333.556881 188.562652
C 333.086821 188.562652 332.63595 188.749409 332.303567 189.081792
C 331.971184 189.414175 331.784427 189.865046 331.784427 190.335106
C 331.784427 190.805166 331.971184 191.256037 332.303567 191.58842
C 332.63595 191.920803 333.086821 192.10756 333.556881 192.10756
z
" style="stroke:#000000;stroke-width:0.886227;"/>
    <path clip-path="url(#p0e1a798b9b)" d="M 253.71357 164.925538
C 254.18363 164.925538 254.634501 164.738781 254.966884 164.406398
C 255.299267 164.074015 255.486024 163.623144 255.486024 163.153084
C 255.486024 162.683023 255.299267 162.232152 254.966884 161.89977
C 254.634501 161.567387 254.18363 161.38063 253.71357 161.38063
C 253.24351 161.38063 252.792639 161.567387 252.460256 161.89977
C 252.127873 162.232152 251.941116 162.683023 251.941116 163.153084
C 251.941116 163.623144 252.127873 164.074015 252.460256 164.406398
C 252.792639 164.738781 253.24351 164.925538 253.71357 164.925538
z
" style="stroke:#000000;stroke-width:0.886227;"/>
    <path clip-path="url(#p0e1a798b9b)" d="M 383.807818 246.471605
C 384.277879 246.471605 384.72875 246.284848 385.061132 245.952465
C 385.393515 245.620082 385.580272 245.169211 385.580272 244.699151
C 385.580272 244.229091 385.393515 243.77822 385.061132 243.445837
C 384.72875 243.113454 384.277879 242.926697 383.807818 242.926697
C 383.337758 242.926697 382.886887 243.113454 382.554504 243.445837
C 382.222121 243.77822 382.035364 244.229091 382.035364 244.699151
C 382.035364 245.169211 382.222121 245.620082 382.554504 245.952465
C 382.886887 246.284848 383.337758 246.471605 383.807818 246.471605
z
" style="stroke:#000000;stroke-width:0.886227;"/>
    <path clip-path="url(#p0e1a798b9b)" d="M 231.72846 148.616324
C 232.19852 148.616324 232.649391 148.429567 232.981774 148.097184
C 233.314157 147.764802 233.500914 147.31393 233.500914 146.84387
C 233.500914 146.37381 233.314157 145.922939 232.981774 145.590556
C 232.649391 145.258173 232.19852 145.071416 231.72846 145.071416
C 231.2584 145.071416 230.807529 145.258173 230.475146 145.590556
C 230.142763 145.922939 229.956006 146.37381 229.956006 146.84387
C 229.956006 147.31393 230.142763 147.764802 230.475146 148.097184
C 230.807529 148.429567 231.2584 148.616324 231.72846 148.616324
z
" style="stroke:#000000;stroke-width:0.886227;"/>
    <path clip-path="url(#p0e1a798b9b)" d="M 332.596193 186.671156
C 333.066254 186.671156 333.517125 186.484399 333.849507 186.152016
C 334.18189 185.819633 334.368647 185.368762 334.368647 184.898702
C 334.368647 184.428641 334.18189 183.97777 333.849507 183.645388
C 333.517125 183.313005 333.066254 183.126248 332.596193 183.126248
C 332.126133 183.126248 331.675262 183.313005 331.342879 183.645388
C 331.010496 183.97777 330.823739 184.428641 330.823739 184.898702
C 330.823739 185.368762 331.010496 185.819633 331.342879 186.152016
C 331.675262 186.484399 332.126133 186.671156 332.596193 186.671156
z
" style="stroke:#000000;stroke-width:0.886227;"/>
    <path clip-path="url(#p0e1a798b9b)" d="M 331.337579 181.234751
C 331.80764 181.234751 332.258511 181.047994 332.590894 180.715611
C 332.923276 180.383229 333.110033 179.932357 333.110033 179.462297
C 333.110033 178.992237 332.923276 178.541366 332.590894 178.208983
C 332.258511 177.8766 331.80764 177.689843 331.337579 177.689843
C 330.867519 177.689843 330.416648 177.8766 330.084265 178.208983
C 329.751883 178.541366 329.565126 178.992237 329.565126 179.462297
C 329.565126 179.932357 329.751883 180.383229 330.084265 180.715611
C 330.416648 181.047994 330.867519 181.234751 331.337579 181.234751
z
" style="stroke:#000000;stroke-width:0.886227;"/>
    <path clip-path="url(#p0e1a798b9b)" d="M 337.051218 197.543964
C 337.521278 197.543964 337.972149 197.357208 338.304532 197.024825
C 338.636915 196.692442 338.823671 196.241571 338.823671 195.771511
C 338.823671 195.30145 338.636915 194.850579 338.304532 194.518197
C 337.972149 194.185814 337.521278 193.999057 337.051218 193.999057
C 336.581157 193.999057 336.130286 194.185814 335.797903 194.518197
C 335.465521 194.850579 335.278764 195.30145 335.278764 195.771511
C 335.278764 196.241571 335.465521 196.692442 335.797903 197.024825
C 336.130286 197.357208 336.581157 197.543964 337.051218 197.543964
z
" style="stroke:#000000;stroke-width:0.886227;"/>
    <path clip-path="url(#p0e1a798b9b)" d="M 214.089973 126.870706
C 214.560033 126.870706 215.010904 126.683949 215.343287 126.351566
C 215.67567 126.019184 215.862427 125.568312 215.862427 125.098252
C 215.862427 124.628192 215.67567 124.177321 215.343287 123.844938
C 215.010904 123.512555 214.560033 123.325798 214.089973 123.325798
C 213.619913 123.325798 213.169042 123.512555 212.836659 123.844938
C 212.504276 124.177321 212.317519 124.628192 212.317519 125.098252
C 212.317519 125.568312 212.504276 126.019184 212.836659 126.351566
C 213.169042 126.683949 213.619913 126.870706 214.089973 126.870706
z
" style="stroke:#000000;stroke-width:0.886227;"/>
    <path clip-path="url(#p0e1a798b9b)" d="M 219.792345 132.307111
C 220.262405 132.307111 220.713276 132.120354 221.045659 131.787971
C 221.378042 131.455588 221.564799 131.004717 221.564799 130.534657
C 221.564799 130.064596 221.378042 129.613725 221.045659 129.281343
C 220.713276 128.94896 220.262405 128.762203 219.792345 128.762203
C 219.322285 128.762203 218.871414 128.94896 218.539031 129.281343
C 218.206648 129.613725 218.019891 130.064596 218.019891 130.534657
C 218.019891 131.004717 218.206648 131.455588 218.539031 131.787971
C 218.871414 132.120354 219.322285 132.307111 219.792345 132.307111
z
" style="stroke:#000000;stroke-width:0.886227;"/>
    <path clip-path="url(#p0e1a798b9b)" d="M 170.105767 105.125088
C 170.575827 105.125088 171.026698 104.938331 171.359081 104.605948
C 171.691464 104.273566 171.878221 103.822695 171.878221 103.352634
C 171.878221 102.882574 171.691464 102.431703 171.359081 102.09932
C 171.026698 101.766937 170.575827 101.58018 170.105767 101.58018
C 169.635707 101.58018 169.184835 101.766937 168.852453 102.09932
C 168.52007 102.431703 168.333313 102.882574 168.333313 103.352634
C 168.333313 103.822695 168.52007 104.273566 168.852453 104.605948
C 169.184835 104.938331 169.635707 105.125088 170.105767 105.125088
z
" style="stroke:#000000;stroke-width:0.886227;"/>
    <path clip-path="url(#p0e1a798b9b)" d="M 99.229656 61.633852
C 99.699716 61.633852 100.150587 61.447095 100.48297 61.114712
C 100.815353 60.78233 101.00211 60.331459 101.00211 59.861398
C 101.00211 59.391338 100.815353 58.940467 100.48297 58.608084
C 100.150587 58.275701 99.699716 58.088944 99.229656 58.088944
C 98.759596 58.088944 98.308725 58.275701 97.976342 58.608084
C 97.643959 58.940467 97.457202 59.391338 97.457202 59.861398
C 97.457202 60.331459 97.643959 60.78233 97.976342 61.114712
C 98.308725 61.447095 98.759596 61.633852 99.229656 61.633852
z
" style="stroke:#000000;stroke-width:0.886227;"/>
    <path clip-path="url(#p0e1a798b9b)" d="M 387.65946 276.37183
C 388.12952 276.37183 388.580392 276.185073 388.912774 275.85269
C 389.245157 275.520307 389.431914 275.069436 389.431914 274.599376
C 389.431914 274.129316 389.245157 273.678444 388.912774 273.346062
C 388.580392 273.013679 388.12952 272.826922 387.65946 272.826922
C 387.1894 272.826922 386.738529 273.013679 386.406146 273.346062
C 386.073763 273.678444 385.887006 274.129316 385.887006 274.599376
C 385.887006 275.069436 386.073763 275.520307 386.406146 275.85269
C 386.738529 276.185073 387.1894 276.37183 387.65946 276.37183
z
" style="stroke:#000000;stroke-width:0.886227;"/>
    <path clip-path="url(#p0e1a798b9b)" d="M 387.65946 276.37183
C 388.12952 276.37183 388.580392 276.185073 388.912774 275.85269
C 389.245157 275.520307 389.431914 275.069436 389.431914 274.599376
C 389.431914 274.129316 389.245157 273.678444 388.912774 273.346062
C 388.580392 273.013679 388.12952 272.826922 387.65946 272.826922
C 387.1894 272.826922 386.738529 273.013679 386.406146 273.346062
C 386.073763 273.678444 385.887006 274.129316 385.887006 274.599376
C 385.887006 275.069436 386.073763 275.520307 386.406146 275.85269
C 386.738529 276.185073 387.1894 276.37183 387.65946 276.37183
z
" style="stroke:#000000;stroke-width:0.886227;"/>
    <path clip-path="url(#p0e1a798b9b)" d="M 248.352732 159.489133
C 248.822792 159.489133 249.273663 159.302376 249.606046 158.969993
C 249.938429 158.637611 250.125186 158.186739 250.125186 157.716679
C 250.125186 157.246619 249.938429 156.795748 249.606046 156.463365
C 249.273663 156.130982 248.822792 155.944225 248.352732 155.944225
C 247.882672 155.944225 247.4318 156.130982 247.099418 156.463365
C 246.767035 156.795748 246.580278 157.246619 246.580278 157.716679
C 246.580278 158.186739 246.767035 158.637611 247.099418 158.969993
C 247.4318 159.302376 247.882672 159.489133 248.352732 159.489133
z
" style="stroke:#000000;stroke-width:0.886227;"/>
    <path clip-path="url(#p0e1a798b9b)" d="M 327.871412 175.798347
C 328.341472 175.798347 328.792343 175.61159 329.124726 175.279207
C 329.457109 174.946824 329.643866 174.495953 329.643866 174.025893
C 329.643866 173.555832 329.457109 173.104961 329.124726 172.772579
C 328.792343 172.440196 328.341472 172.253439 327.871412 172.253439
C 327.401351 172.253439 326.95048 172.440196 326.618098 172.772579
C 326.285715 173.104961 326.098958 173.555832 326.098958 174.025893
C 326.098958 174.495953 326.285715 174.946824 326.618098 175.279207
C 326.95048 175.61159 327.401351 175.798347 327.871412 175.798347
z
" style="stroke:#000000;stroke-width:0.886227;"/>
    <path clip-path="url(#p0e1a798b9b)" d="M 133.615109 83.37947
C 134.085169 83.37947 134.53604 83.192713 134.868423 82.86033
C 135.200806 82.527948 135.387562 82.077077 135.387562 81.607016
C 135.387562 81.136956 135.200806 80.686085 134.868423 80.353702
C 134.53604 80.021319 134.085169 79.834562 133.615109 79.834562
C 133.145048 79.834562 132.694177 80.021319 132.361794 80.353702
C 132.029412 80.686085 131.842655 81.136956 131.842655 81.607016
C 131.842655 82.077077 132.029412 82.527948 132.361794 82.86033
C 132.694177 83.192713 133.145048 83.37947 133.615109 83.37947
z
" style="stroke:#000000;stroke-width:0.886227;"/>
    <path clip-path="url(#p0e1a798b9b)" d="M 211.184024 121.434302
C 211.654084 121.434302 212.104955 121.247545 212.437338 120.915162
C 212.769721 120.582779 212.956478 120.131908 212.956478 119.661848
C 212.956478 119.191787 212.769721 118.740916 212.437338 118.408534
C 212.104955 118.076151 211.654084 117.889394 211.184024 117.889394
C 210.713964 117.889394 210.263093 118.076151 209.93071 118.408534
C 209.598327 118.740916 209.41157 119.191787 209.41157 119.661848
C 209.41157 120.131908 209.598327 120.582779 209.93071 120.915162
C 210.263093 121.247545 210.713964 121.434302 211.184024 121.434302
z
" style="stroke:#000000;stroke-width:0.886227;"/>
    <path clip-path="url(#p0e1a798b9b)" d="M 383.134165 241.0352
C 383.604226 241.0352 384.055097 240.848444 384.387479 240.516061
C 384.719862 240.183678 384.906619 239.732807 384.906619 239.262747
C 384.906619 238.792686 384.719862 238.341815 384.387479 238.009432
C 384.055097 237.67705 383.604226 237.490293 383.134165 237.490293
C 382.664105 237.490293 382.213234 237.67705 381.880851 238.009432
C 381.548468 238.341815 381.361712 238.792686 381.361712 239.262747
C 381.361712 239.732807 381.548468 240.183678 381.880851 240.516061
C 382.213234 240.848444 382.664105 241.0352 383.134165 241.0352
z
" style="stroke:#000000;stroke-width:0.886227;"/>
    <path clip-path="url(#p0e1a798b9b)" d="M 387.65946 276.37183
C 388.12952 276.37183 388.580392 276.185073 388.912774 275.85269
C 389.245157 275.520307 389.431914 275.069436 389.431914 274.599376
C 389.431914 274.129316 389.245157 273.678444 388.912774 273.346062
C 388.580392 273.013679 388.12952 272.826922 387.65946 272.826922
C 387.1894 272.826922 386.738529 273.013679 386.406146 273.346062
C 386.073763 273.678444 385.887006 274.129316 385.887006 274.599376
C 385.887006 275.069436 386.073763 275.520307 386.406146 275.85269
C 386.738529 276.185073 387.1894 276.37183 387.65946 276.37183
z
" style="stroke:#000000;stroke-width:0.886227;"/>
    <path clip-path="url(#p0e1a798b9b)" d="M 339.930501 202.980369
C 340.400561 202.980369 340.851432 202.793612 341.183815 202.461229
C 341.516198 202.128846 341.702955 201.677975 341.702955 201.207915
C 341.702955 200.737855 341.516198 200.286984 341.183815 199.954601
C 340.851432 199.622218 340.400561 199.435461 339.930501 199.435461
C 339.460441 199.435461 339.00957 199.622218 338.677187 199.954601
C 338.344804 200.286984 338.158047 200.737855 338.158047 201.207915
C 338.158047 201.677975 338.344804 202.128846 338.677187 202.461229
C 339.00957 202.793612 339.460441 202.980369 339.930501 202.980369
z
" style="stroke:#000000;stroke-width:0.886227;"/>
    <path clip-path="url(#p0e1a798b9b)" d="M 161.534585 94.252279
C 162.004646 94.252279 162.455517 94.065522 162.787899 93.733139
C 163.120282 93.400757 163.307039 92.949886 163.307039 92.479825
C 163.307039 92.009765 163.120282 91.558894 162.787899 91.226511
C 162.455517 90.894128 162.004646 90.707371 161.534585 90.707371
C 161.064525 90.707371 160.613654 90.894128 160.281271 91.226511
C 159.948888 91.558894 159.762131 92.009765 159.762131 92.479825
C 159.762131 92.949886 159.948888 93.400757 160.281271 93.733139
C 160.613654 94.065522 161.064525 94.252279 161.534585 94.252279
z
" style="stroke:#000000;stroke-width:0.886227;"/>
    <path clip-path="url(#p0e1a798b9b)" d="M 133.08347 77.943066
C 133.55353 77.943066 134.004401 77.756309 134.336784 77.423926
C 134.669167 77.091543 134.855924 76.640672 134.855924 76.170612
C 134.855924 75.700552 134.669167 75.24968 134.336784 74.917298
C 134.004401 74.584915 133.55353 74.398158 133.08347 74.398158
C 132.61341 74.398158 132.162539 74.584915 131.830156 74.917298
C 131.497773 75.24968 131.311016 75.700552 131.311016 76.170612
C 131.311016 76.640672 131.497773 77.091543 131.830156 77.423926
C 132.162539 77.756309 132.61341 77.943066 133.08347 77.943066
z
" style="stroke:#000000;stroke-width:0.886227;"/>
   </g>
   <g id="PathCollection_2">
    <path clip-path="url(#p0e1a798b9b)" d="M 63.004915 34.45183
C 63.474975 34.45183 63.925846 34.265073 64.258229 33.93269
C 64.590612 33.600307 64.777369 33.149436 64.777369 32.679376
C 64.777369 32.209316 64.590612 31.758444 64.258229 31.426062
C 63.925846 31.093679 63.474975 30.906922 63.004915 30.906922
C 62.534855 30.906922 62.083983 31.093679 61.751601 31.426062
C 61.419218 31.758444 61.232461 32.209316 61.232461 32.679376
C 61.232461 33.149436 61.419218 33.600307 61.751601 33.93269
C 62.083983 34.265073 62.534855 34.45183 63.004915 34.45183
z
" style="fill:#ff0000;stroke:#ff0000;stroke-width:0.886227;"/>
    <path clip-path="url(#p0e1a798b9b)" d="M 65.850681 45.324639
C 66.320741 45.324639 66.771612 45.137882 67.103995 44.805499
C 67.436378 44.473116 67.623135 44.022245 67.623135 43.552185
C 67.623135 43.082125 67.436378 42.631253 67.103995 42.298871
C 66.771612 41.966488 66.320741 41.779731 65.850681 41.779731
C 65.38062 41.779731 64.929749 41.966488 64.597367 42.298871
C 64.264984 42.631253 64.078227 43.082125 64.078227 43.552185
C 64.078227 44.022245 64.264984 44.473116 64.597367 44.805499
C 64.929749 45.137882 65.38062 45.324639 65.850681 45.324639
z
" style="fill:#ff0000;stroke:#ff0000;stroke-width:0.886227;"/>
    <path clip-path="url(#p0e1a798b9b)" d="M 64.153672 39.888234
C 64.623733 39.888234 65.074604 39.701477 65.406986 39.369094
C 65.739369 39.036712 65.926126 38.585841 65.926126 38.11578
C 65.926126 37.64572 65.739369 37.194849 65.406986 36.862466
C 65.074604 36.530083 64.623733 36.343326 64.153672 36.343326
C 63.683612 36.343326 63.232741 36.530083 62.900358 36.862466
C 62.567975 37.194849 62.381218 37.64572 62.381218 38.11578
C 62.381218 38.585841 62.567975 39.036712 62.900358 39.369094
C 63.232741 39.701477 63.683612 39.888234 64.153672 39.888234
z
" style="fill:#ff0000;stroke:#ff0000;stroke-width:0.886227;"/>
    <path clip-path="url(#p0e1a798b9b)" d="M 93.346774 50.761043
C 93.816834 50.761043 94.267705 50.574286 94.600088 50.241903
C 94.932471 49.909521 95.119228 49.45865 95.119228 48.988589
C 95.119228 48.518529 94.932471 48.067658 94.600088 47.735275
C 94.267705 47.402892 93.816834 47.216135 93.346774 47.216135
C 92.876714 47.216135 92.425842 47.402892 92.09346 47.735275
C 91.761077 48.067658 91.57432 48.518529 91.57432 48.988589
C 91.57432 49.45865 91.761077 49.909521 92.09346 50.241903
C 92.425842 50.574286 92.876714 50.761043 93.346774 50.761043
z
" style="fill:#ff0000;stroke:#ff0000;stroke-width:0.886227;"/>
    <path clip-path="url(#p0e1a798b9b)" d="M 93.391491 56.197448
C 93.861551 56.197448 94.312422 56.010691 94.644805 55.678308
C 94.977188 55.345925 95.163945 54.895054 95.163945 54.424994
C 95.163945 53.954934 94.977188 53.504062 94.644805 53.17168
C 94.312422 52.839297 93.861551 52.65254 93.391491 52.65254
C 92.921431 52.65254 92.47056 52.839297 92.138177 53.17168
C 91.805794 53.504062 91.619037 53.954934 91.619037 54.424994
C 91.619037 54.895054 91.805794 55.345925 92.138177 55.678308
C 92.47056 56.010691 92.921431 56.197448 93.391491 56.197448
z
" style="fill:#ff0000;stroke:#ff0000;stroke-width:0.886227;"/>
   </g>
   <g id="text_13">
    <g clip-path="url(#p0e1a798b9b)">
     <!-- HALLMARK_MYOGENESIS -->
     <defs>
      <path d="M 34.1875 63.1875
L 20.796875 26.90625
L 47.609375 26.90625
z
M 28.609375 72.90625
L 39.796875 72.90625
L 67.578125 0
L 57.328125 0
L 50.6875 18.703125
L 17.828125 18.703125
L 11.1875 0
L 0.78125 0
z
" id="DejaVuSans-65"/>
      <path d="M 9.8125 72.90625
L 19.671875 72.90625
L 19.671875 8.296875
L 55.171875 8.296875
L 55.171875 0
L 9.8125 0
z
" id="DejaVuSans-76"/>
      <path d="M 44.390625 34.1875
Q 47.5625 33.109375 50.5625 29.59375
Q 53.5625 26.078125 56.59375 19.921875
L 66.609375 0
L 56 0
L 46.6875 18.703125
Q 43.0625 26.03125 39.671875 28.421875
Q 36.28125 30.8125 30.421875 30.8125
L 19.671875 30.8125
L 19.671875 0
L 9.8125 0
L 9.8125 72.90625
L 32.078125 72.90625
Q 44.578125 72.90625 50.734375 67.671875
Q 56.890625 62.453125 56.890625 51.90625
Q 56.890625 45.015625 53.6875 40.46875
Q 50.484375 35.9375 44.390625 34.1875
z
M 19.671875 64.796875
L 19.671875 38.921875
L 32.078125 38.921875
Q 39.203125 38.921875 42.84375 42.21875
Q 46.484375 45.515625 46.484375 51.90625
Q 46.484375 58.296875 42.84375 61.546875
Q 39.203125 64.796875 32.078125 64.796875
z
" id="DejaVuSans-82"/>
      <path d="M 9.8125 72.90625
L 19.671875 72.90625
L 19.671875 42.09375
L 52.390625 72.90625
L 65.09375 72.90625
L 28.90625 38.921875
L 67.671875 0
L 54.6875 0
L 19.671875 35.109375
L 19.671875 0
L 9.8125 0
z
" id="DejaVuSans-75"/>
      <path d="M 50.984375 -16.609375
L 50.984375 -23.578125
L -0.984375 -23.578125
L -0.984375 -16.609375
z
" id="DejaVuSans-95"/>
      <path d="M -0.203125 72.90625
L 10.40625 72.90625
L 30.609375 42.921875
L 50.6875 72.90625
L 61.28125 72.90625
L 35.5 34.71875
L 35.5 0
L 25.59375 0
L 25.59375 34.71875
z
" id="DejaVuSans-89"/>
      <path d="M 39.40625 66.21875
Q 28.65625 66.21875 22.328125 58.203125
Q 16.015625 50.203125 16.015625 36.375
Q 16.015625 22.609375 22.328125 14.59375
Q 28.65625 6.59375 39.40625 6.59375
Q 50.140625 6.59375 56.421875 14.59375
Q 62.703125 22.609375 62.703125 36.375
Q 62.703125 50.203125 56.421875 58.203125
Q 50.140625 66.21875 39.40625 66.21875
z
M 39.40625 74.21875
Q 54.734375 74.21875 63.90625 63.9375
Q 73.09375 53.65625 73.09375 36.375
Q 73.09375 19.140625 63.90625 8.859375
Q 54.734375 -1.421875 39.40625 -1.421875
Q 24.03125 -1.421875 14.8125 8.828125
Q 5.609375 19.09375 5.609375 36.375
Q 5.609375 53.65625 14.8125 63.9375
Q 24.03125 74.21875 39.40625 74.21875
z
" id="DejaVuSans-79"/>
      <path d="M 9.8125 72.90625
L 55.90625 72.90625
L 55.90625 64.59375
L 19.671875 64.59375
L 19.671875 43.015625
L 54.390625 43.015625
L 54.390625 34.71875
L 19.671875 34.71875
L 19.671875 8.296875
L 56.78125 8.296875
L 56.78125 0
L 9.8125 0
z
" id="DejaVuSans-69"/>
      <path d="M 9.8125 72.90625
L 23.09375 72.90625
L 55.421875 11.921875
L 55.421875 72.90625
L 64.984375 72.90625
L 64.984375 0
L 51.703125 0
L 19.390625 60.984375
L 19.390625 0
L 9.8125 0
z
" id="DejaVuSans-78"/>
      <path d="M 53.515625 70.515625
L 53.515625 60.890625
Q 47.90625 63.578125 42.921875 64.890625
Q 37.9375 66.21875 33.296875 66.21875
Q 25.25 66.21875 20.875 63.09375
Q 16.5 59.96875 16.5 54.203125
Q 16.5 49.359375 19.40625 46.890625
Q 22.3125 44.4375 30.421875 42.921875
L 36.375 41.703125
Q 47.40625 39.59375 52.65625 34.296875
Q 57.90625 29 57.90625 20.125
Q 57.90625 9.515625 50.796875 4.046875
Q 43.703125 -1.421875 29.984375 -1.421875
Q 24.8125 -1.421875 18.96875 -0.25
Q 13.140625 0.921875 6.890625 3.21875
L 6.890625 13.375
Q 12.890625 10.015625 18.65625 8.296875
Q 24.421875 6.59375 29.984375 6.59375
Q 38.421875 6.59375 43.015625 9.90625
Q 47.609375 13.234375 47.609375 19.390625
Q 47.609375 24.75 44.3125 27.78125
Q 41.015625 30.8125 33.5 32.328125
L 27.484375 33.5
Q 16.453125 35.6875 11.515625 40.375
Q 6.59375 45.0625 6.59375 53.421875
Q 6.59375 63.09375 13.40625 68.65625
Q 20.21875 74.21875 32.171875 74.21875
Q 37.3125 74.21875 42.625 73.28125
Q 47.953125 72.359375 53.515625 70.515625
z
" id="DejaVuSans-83"/>
      <path d="M 9.8125 72.90625
L 19.671875 72.90625
L 19.671875 0
L 9.8125 0
z
" id="DejaVuSans-73"/>
     </defs>
     <g transform="translate(63.004915 36.390313)scale(0.05 -0.05)">
      <use xlink:href="#DejaVuSans-72"/>
      <use x="75.195312" xlink:href="#DejaVuSans-65"/>
      <use x="143.603516" xlink:href="#DejaVuSans-76"/>
      <use x="199.316406" xlink:href="#DejaVuSans-76"/>
      <use x="255.029297" xlink:href="#DejaVuSans-77"/>
      <use x="341.308594" xlink:href="#DejaVuSans-65"/>
      <use x="409.716797" xlink:href="#DejaVuSans-82"/>
      <use x="479.199219" xlink:href="#DejaVuSans-75"/>
      <use x="544.775391" xlink:href="#DejaVuSans-95"/>
      <use x="594.775391" xlink:href="#DejaVuSans-77"/>
      <use x="681.054688" xlink:href="#DejaVuSans-89"/>
      <use x="742.060547" xlink:href="#DejaVuSans-79"/>
      <use x="820.771484" xlink:href="#DejaVuSans-71"/>
      <use x="898.261719" xlink:href="#DejaVuSans-69"/>
      <use x="961.445312" xlink:href="#DejaVuSans-78"/>
      <use x="1036.25" xlink:href="#DejaVuSans-69"/>
      <use x="1099.433594" xlink:href="#DejaVuSans-83"/>
      <use x="1162.910156" xlink:href="#DejaVuSans-73"/>
      <use x="1192.402344" xlink:href="#DejaVuSans-83"/>
     </g>
    </g>
   </g>
   <g id="text_14">
    <g clip-path="url(#p0e1a798b9b)">
     <!-- HALLMARK_ALLOGRAFT_REJECTION -->
     <defs>
      <path d="M 9.8125 72.90625
L 51.703125 72.90625
L 51.703125 64.59375
L 19.671875 64.59375
L 19.671875 43.109375
L 48.578125 43.109375
L 48.578125 34.8125
L 19.671875 34.8125
L 19.671875 0
L 9.8125 0
z
" id="DejaVuSans-70"/>
      <path d="M -0.296875 72.90625
L 61.375 72.90625
L 61.375 64.59375
L 35.5 64.59375
L 35.5 0
L 25.59375 0
L 25.59375 64.59375
L -0.296875 64.59375
z
" id="DejaVuSans-84"/>
      <path d="M 9.8125 72.90625
L 19.671875 72.90625
L 19.671875 5.078125
Q 19.671875 -8.109375 14.671875 -14.0625
Q 9.671875 -20.015625 -1.421875 -20.015625
L -5.171875 -20.015625
L -5.171875 -11.71875
L -2.09375 -11.71875
Q 4.4375 -11.71875 7.125 -8.046875
Q 9.8125 -4.390625 9.8125 5.078125
z
" id="DejaVuSans-74"/>
      <path d="M 64.40625 67.28125
L 64.40625 56.890625
Q 59.421875 61.53125 53.78125 63.8125
Q 48.140625 66.109375 41.796875 66.109375
Q 29.296875 66.109375 22.65625 58.46875
Q 16.015625 50.828125 16.015625 36.375
Q 16.015625 21.96875 22.65625 14.328125
Q 29.296875 6.6875 41.796875 6.6875
Q 48.140625 6.6875 53.78125 8.984375
Q 59.421875 11.28125 64.40625 15.921875
L 64.40625 5.609375
Q 59.234375 2.09375 53.4375 0.328125
Q 47.65625 -1.421875 41.21875 -1.421875
Q 24.65625 -1.421875 15.125 8.703125
Q 5.609375 18.84375 5.609375 36.375
Q 5.609375 53.953125 15.125 64.078125
Q 24.65625 74.21875 41.21875 74.21875
Q 47.75 74.21875 53.53125 72.484375
Q 59.328125 70.75 64.40625 67.28125
z
" id="DejaVuSans-67"/>
     </defs>
     <g transform="translate(65.850681 47.263122)scale(0.05 -0.05)">
      <use xlink:href="#DejaVuSans-72"/>
      <use x="75.195312" xlink:href="#DejaVuSans-65"/>
      <use x="143.603516" xlink:href="#DejaVuSans-76"/>
      <use x="199.316406" xlink:href="#DejaVuSans-76"/>
      <use x="255.029297" xlink:href="#DejaVuSans-77"/>
      <use x="341.308594" xlink:href="#DejaVuSans-65"/>
      <use x="409.716797" xlink:href="#DejaVuSans-82"/>
      <use x="479.199219" xlink:href="#DejaVuSans-75"/>
      <use x="544.775391" xlink:href="#DejaVuSans-95"/>
      <use x="594.775391" xlink:href="#DejaVuSans-65"/>
      <use x="663.183594" xlink:href="#DejaVuSans-76"/>
      <use x="718.896484" xlink:href="#DejaVuSans-76"/>
      <use x="774.5625" xlink:href="#DejaVuSans-79"/>
      <use x="853.273438" xlink:href="#DejaVuSans-71"/>
      <use x="930.763672" xlink:href="#DejaVuSans-82"/>
      <use x="1000.183594" xlink:href="#DejaVuSans-65"/>
      <use x="1068.591797" xlink:href="#DejaVuSans-70"/>
      <use x="1126.095703" xlink:href="#DejaVuSans-84"/>
      <use x="1187.179688" xlink:href="#DejaVuSans-95"/>
      <use x="1237.179688" xlink:href="#DejaVuSans-82"/>
      <use x="1306.662109" xlink:href="#DejaVuSans-69"/>
      <use x="1369.845703" xlink:href="#DejaVuSans-74"/>
      <use x="1399.337891" xlink:href="#DejaVuSans-69"/>
      <use x="1462.521484" xlink:href="#DejaVuSans-67"/>
      <use x="1532.345703" xlink:href="#DejaVuSans-84"/>
      <use x="1593.429688" xlink:href="#DejaVuSans-73"/>
      <use x="1622.921875" xlink:href="#DejaVuSans-79"/>
      <use x="1701.632812" xlink:href="#DejaVuSans-78"/>
     </g>
    </g>
   </g>
   <g id="text_15">
    <g clip-path="url(#p0e1a798b9b)">
     <!-- HALLMARK_KRAS_SIGNALING_DN -->
     <defs>
      <path d="M 19.671875 64.796875
L 19.671875 8.109375
L 31.59375 8.109375
Q 46.6875 8.109375 53.6875 14.9375
Q 60.6875 21.78125 60.6875 36.53125
Q 60.6875 51.171875 53.6875 57.984375
Q 46.6875 64.796875 31.59375 64.796875
z
M 9.8125 72.90625
L 30.078125 72.90625
Q 51.265625 72.90625 61.171875 64.09375
Q 71.09375 55.28125 71.09375 36.53125
Q 71.09375 17.671875 61.125 8.828125
Q 51.171875 0 30.078125 0
L 9.8125 0
z
" id="DejaVuSans-68"/>
     </defs>
     <g transform="translate(64.153672 41.826718)scale(0.05 -0.05)">
      <use xlink:href="#DejaVuSans-72"/>
      <use x="75.195312" xlink:href="#DejaVuSans-65"/>
      <use x="143.603516" xlink:href="#DejaVuSans-76"/>
      <use x="199.316406" xlink:href="#DejaVuSans-76"/>
      <use x="255.029297" xlink:href="#DejaVuSans-77"/>
      <use x="341.308594" xlink:href="#DejaVuSans-65"/>
      <use x="409.716797" xlink:href="#DejaVuSans-82"/>
      <use x="479.199219" xlink:href="#DejaVuSans-75"/>
      <use x="544.775391" xlink:href="#DejaVuSans-95"/>
      <use x="594.775391" xlink:href="#DejaVuSans-75"/>
      <use x="660.351562" xlink:href="#DejaVuSans-82"/>
      <use x="729.771484" xlink:href="#DejaVuSans-65"/>
      <use x="798.179688" xlink:href="#DejaVuSans-83"/>
      <use x="861.65625" xlink:href="#DejaVuSans-95"/>
      <use x="911.65625" xlink:href="#DejaVuSans-83"/>
      <use x="975.132812" xlink:href="#DejaVuSans-73"/>
      <use x="1004.625" xlink:href="#DejaVuSans-71"/>
      <use x="1082.115234" xlink:href="#DejaVuSans-78"/>
      <use x="1156.919922" xlink:href="#DejaVuSans-65"/>
      <use x="1225.328125" xlink:href="#DejaVuSans-76"/>
      <use x="1281.041016" xlink:href="#DejaVuSans-73"/>
      <use x="1310.533203" xlink:href="#DejaVuSans-78"/>
      <use x="1385.337891" xlink:href="#DejaVuSans-71"/>
      <use x="1462.828125" xlink:href="#DejaVuSans-95"/>
      <use x="1512.828125" xlink:href="#DejaVuSans-68"/>
      <use x="1589.830078" xlink:href="#DejaVuSans-78"/>
     </g>
    </g>
   </g>
   <g id="text_16">
    <g clip-path="url(#p0e1a798b9b)">
     <!-- HALLMARK_COAGULATION -->
     <defs>
      <path d="M 8.6875 72.90625
L 18.609375 72.90625
L 18.609375 28.609375
Q 18.609375 16.890625 22.84375 11.734375
Q 27.09375 6.59375 36.625 6.59375
Q 46.09375 6.59375 50.34375 11.734375
Q 54.59375 16.890625 54.59375 28.609375
L 54.59375 72.90625
L 64.5 72.90625
L 64.5 27.390625
Q 64.5 13.140625 57.4375 5.859375
Q 50.390625 -1.421875 36.625 -1.421875
Q 22.796875 -1.421875 15.734375 5.859375
Q 8.6875 13.140625 8.6875 27.390625
z
" id="DejaVuSans-85"/>
     </defs>
     <g transform="translate(93.346774 52.699527)scale(0.05 -0.05)">
      <use xlink:href="#DejaVuSans-72"/>
      <use x="75.195312" xlink:href="#DejaVuSans-65"/>
      <use x="143.603516" xlink:href="#DejaVuSans-76"/>
      <use x="199.316406" xlink:href="#DejaVuSans-76"/>
      <use x="255.029297" xlink:href="#DejaVuSans-77"/>
      <use x="341.308594" xlink:href="#DejaVuSans-65"/>
      <use x="409.716797" xlink:href="#DejaVuSans-82"/>
      <use x="479.199219" xlink:href="#DejaVuSans-75"/>
      <use x="544.775391" xlink:href="#DejaVuSans-95"/>
      <use x="594.775391" xlink:href="#DejaVuSans-67"/>
      <use x="664.599609" xlink:href="#DejaVuSans-79"/>
      <use x="743.294922" xlink:href="#DejaVuSans-65"/>
      <use x="811.6875" xlink:href="#DejaVuSans-71"/>
      <use x="889.177734" xlink:href="#DejaVuSans-85"/>
      <use x="962.371094" xlink:href="#DejaVuSans-76"/>
      <use x="1018.115234" xlink:href="#DejaVuSans-65"/>
      <use x="1086.414062" xlink:href="#DejaVuSans-84"/>
      <use x="1147.498047" xlink:href="#DejaVuSans-73"/>
      <use x="1176.990234" xlink:href="#DejaVuSans-79"/>
      <use x="1255.701172" xlink:href="#DejaVuSans-78"/>
     </g>
    </g>
   </g>
   <g id="text_17">
    <g clip-path="url(#p0e1a798b9b)">
     <!-- HALLMARK_SPERMATOGENESIS -->
     <defs>
      <path d="M 19.671875 64.796875
L 19.671875 37.40625
L 32.078125 37.40625
Q 38.96875 37.40625 42.71875 40.96875
Q 46.484375 44.53125 46.484375 51.125
Q 46.484375 57.671875 42.71875 61.234375
Q 38.96875 64.796875 32.078125 64.796875
z
M 9.8125 72.90625
L 32.078125 72.90625
Q 44.34375 72.90625 50.609375 67.359375
Q 56.890625 61.8125 56.890625 51.125
Q 56.890625 40.328125 50.609375 34.8125
Q 44.34375 29.296875 32.078125 29.296875
L 19.671875 29.296875
L 19.671875 0
L 9.8125 0
z
" id="DejaVuSans-80"/>
     </defs>
     <g transform="translate(93.391491 58.135931)scale(0.05 -0.05)">
      <use xlink:href="#DejaVuSans-72"/>
      <use x="75.195312" xlink:href="#DejaVuSans-65"/>
      <use x="143.603516" xlink:href="#DejaVuSans-76"/>
      <use x="199.316406" xlink:href="#DejaVuSans-76"/>
      <use x="255.029297" xlink:href="#DejaVuSans-77"/>
      <use x="341.308594" xlink:href="#DejaVuSans-65"/>
      <use x="409.716797" xlink:href="#DejaVuSans-82"/>
      <use x="479.199219" xlink:href="#DejaVuSans-75"/>
      <use x="544.775391" xlink:href="#DejaVuSans-95"/>
      <use x="594.775391" xlink:href="#DejaVuSans-83"/>
      <use x="658.251953" xlink:href="#DejaVuSans-80"/>
      <use x="718.554688" xlink:href="#DejaVuSans-69"/>
      <use x="781.738281" xlink:href="#DejaVuSans-82"/>
      <use x="851.220703" xlink:href="#DejaVuSans-77"/>
      <use x="937.5" xlink:href="#DejaVuSans-65"/>
      <use x="1005.798828" xlink:href="#DejaVuSans-84"/>
      <use x="1066.882812" xlink:href="#DejaVuSans-79"/>
      <use x="1145.59375" xlink:href="#DejaVuSans-71"/>
      <use x="1223.083984" xlink:href="#DejaVuSans-69"/>
      <use x="1286.267578" xlink:href="#DejaVuSans-78"/>
      <use x="1361.072266" xlink:href="#DejaVuSans-69"/>
      <use x="1424.255859" xlink:href="#DejaVuSans-83"/>
      <use x="1487.732422" xlink:href="#DejaVuSans-73"/>
      <use x="1517.224609" xlink:href="#DejaVuSans-83"/>
     </g>
    </g>
   </g>
  </g>
  <g id="text_18">
   <!-- GSEA pathway statistics vs ranking -->
   <defs>
    <path d="M 54.890625 33.015625
L 54.890625 0
L 45.90625 0
L 45.90625 32.71875
Q 45.90625 40.484375 42.875 44.328125
Q 39.84375 48.1875 33.796875 48.1875
Q 26.515625 48.1875 22.3125 43.546875
Q 18.109375 38.921875 18.109375 30.90625
L 18.109375 0
L 9.078125 0
L 9.078125 75.984375
L 18.109375 75.984375
L 18.109375 46.1875
Q 21.34375 51.125 25.703125 53.5625
Q 30.078125 56 35.796875 56
Q 45.21875 56 50.046875 50.171875
Q 54.890625 44.34375 54.890625 33.015625
z
" id="DejaVuSans-104"/>
    <path d="M 4.203125 54.6875
L 13.1875 54.6875
L 24.421875 12.015625
L 35.59375 54.6875
L 46.1875 54.6875
L 57.421875 12.015625
L 68.609375 54.6875
L 77.59375 54.6875
L 63.28125 0
L 52.6875 0
L 40.921875 44.828125
L 29.109375 0
L 18.5 0
z
" id="DejaVuSans-119"/>
    <path d="M 32.171875 -5.078125
Q 28.375 -14.84375 24.75 -17.8125
Q 21.140625 -20.796875 15.09375 -20.796875
L 7.90625 -20.796875
L 7.90625 -13.28125
L 13.1875 -13.28125
Q 16.890625 -13.28125 18.9375 -11.515625
Q 21 -9.765625 23.484375 -3.21875
L 25.09375 0.875
L 2.984375 54.6875
L 12.5 54.6875
L 29.59375 11.921875
L 46.6875 54.6875
L 56.203125 54.6875
z
" id="DejaVuSans-121"/>
   </defs>
   <g transform="translate(87.227656 11.397656)scale(0.15 -0.15)">
    <use xlink:href="#DejaVuSans-71"/>
    <use x="77.490234" xlink:href="#DejaVuSans-83"/>
    <use x="140.966797" xlink:href="#DejaVuSans-69"/>
    <use x="204.150391" xlink:href="#DejaVuSans-65"/>
    <use x="272.558594" xlink:href="#DejaVuSans-32"/>
    <use x="304.345703" xlink:href="#DejaVuSans-112"/>
    <use x="367.822266" xlink:href="#DejaVuSans-97"/>
    <use x="429.101562" xlink:href="#DejaVuSans-116"/>
    <use x="468.310547" xlink:href="#DejaVuSans-104"/>
    <use x="531.689453" xlink:href="#DejaVuSans-119"/>
    <use x="613.476562" xlink:href="#DejaVuSans-97"/>
    <use x="674.755859" xlink:href="#DejaVuSans-121"/>
    <use x="733.935547" xlink:href="#DejaVuSans-32"/>
    <use x="765.722656" xlink:href="#DejaVuSans-115"/>
    <use x="817.822266" xlink:href="#DejaVuSans-116"/>
    <use x="857.03125" xlink:href="#DejaVuSans-97"/>
    <use x="918.310547" xlink:href="#DejaVuSans-116"/>
    <use x="957.519531" xlink:href="#DejaVuSans-105"/>
    <use x="985.302734" xlink:href="#DejaVuSans-115"/>
    <use x="1037.402344" xlink:href="#DejaVuSans-116"/>
    <use x="1076.611328" xlink:href="#DejaVuSans-105"/>
    <use x="1104.394531" xlink:href="#DejaVuSans-99"/>
    <use x="1159.375" xlink:href="#DejaVuSans-115"/>
    <use x="1211.474609" xlink:href="#DejaVuSans-32"/>
    <use x="1243.261719" xlink:href="#DejaVuSans-118"/>
    <use x="1302.441406" xlink:href="#DejaVuSans-115"/>
    <use x="1354.541016" xlink:href="#DejaVuSans-32"/>
    <use x="1386.328125" xlink:href="#DejaVuSans-114"/>
    <use x="1427.441406" xlink:href="#DejaVuSans-97"/>
    <use x="1488.720703" xlink:href="#DejaVuSans-110"/>
    <use x="1552.099609" xlink:href="#DejaVuSans-107"/>
    <use x="1610.009766" xlink:href="#DejaVuSans-105"/>
    <use x="1637.792969" xlink:href="#DejaVuSans-110"/>
    <use x="1701.171875" xlink:href="#DejaVuSans-103"/>
   </g>
  </g>
 </g>
 <defs>
  <clipPath id="p0e1a798b9b">
   <rect height="266.112" width="357.12" x="46.772188" y="20.583376"/>
  </clipPath>
 </defs>
</svg>
