<?xml version="1.0" encoding="utf-8" standalone="no"?>
<!DOCTYPE svg PUBLIC "-//W3C//DTD SVG 1.1//EN"
  "http://www.w3.org/Graphics/SVG/1.1/DTD/svg11.dtd">
<!-- Created with matplotlib (https://matplotlib.org/) -->
<svg height="322.176313pt" version="1.1" viewBox="0 0 406.642188 322.176313" width="406.642188pt" xmlns="http://www.w3.org/2000/svg" xmlns:xlink="http://www.w3.org/1999/xlink">
 <defs>
  <style type="text/css">
*{stroke-linecap:butt;stroke-linejoin:round;}
  </style>
 </defs>
 <g id="figure_1">
  <g id="patch_1">
   <path d="M 0 322.176313
L 406.642188 322.176313
L 406.642188 0
L 0 0
z
" style="fill:#ffffff;stroke:#ffffff;stroke-linejoin:miter;"/>
  </g>
  <g id="axes_1">
   <g id="patch_2">
    <path d="M 46.772188 286.695376
L 403.892188 286.695376
L 403.892188 20.583376
L 46.772188 20.583376
z
" style="fill:none;"/>
   </g>
   <g id="matplotlib.axis_1">
    <g id="xtick_1">
     <g id="line2d_1">
      <path clip-path="url(#p45fc243ff5)" d="M 63.004915 286.695376
L 63.004915 20.583376
" style="fill:none;stroke:#e5e5e5;stroke-width:0.8;"/>
     </g>
     <g id="line2d_2">
      <path d="M 63.004915 286.695376
" style="fill:none;stroke:#000000;stroke-width:1.5;"/>
      <defs>
       <path d="M 0 0
L 0 2.75
" id="m90c50dba27" style="stroke:#000000;"/>
      </defs>
      <g>
       <use style="stroke:#000000;" x="63.004915" xlink:href="#m90c50dba27" y="286.695376"/>
      </g>
     </g>
     <g id="text_1">
      <!-- 0 -->
      <defs>
       <path d="M 31.78125 66.40625
Q 24.171875 66.40625 20.328125 58.90625
Q 16.5 51.421875 16.5 36.375
Q 16.5 21.390625 20.328125 13.890625
Q 24.171875 6.390625 31.78125 6.390625
Q 39.453125 6.390625 43.28125 13.890625
Q 47.125 21.390625 47.125 36.375
Q 47.125 51.421875 43.28125 58.90625
Q 39.453125 66.40625 31.78125 66.40625
z
M 31.78125 74.21875
Q 44.046875 74.21875 50.515625 64.515625
Q 56.984375 54.828125 56.984375 36.375
Q 56.984375 17.96875 50.515625 8.265625
Q 44.046875 -1.421875 31.78125 -1.421875
Q 19.53125 -1.421875 13.0625 8.265625
Q 6.59375 17.96875 6.59375 36.375
Q 6.59375 54.828125 13.0625 64.515625
Q 19.53125 74.21875 31.78125 74.21875
z
" id="DejaVuSans-48"/>
      </defs>
      <g style="fill:#4d4d4d;" transform="translate(59.187415 300.763501)scale(0.12 -0.12)">
       <use xlink:href="#DejaVuSans-48"/>
      </g>
     </g>
    </g>
    <g id="xtick_2">
     <g id="line2d_3">
      <path clip-path="url(#p45fc243ff5)" d="M 144.168551 286.695376
L 144.168551 20.583376
" style="fill:none;stroke:#e5e5e5;stroke-width:0.8;"/>
     </g>
     <g id="line2d_4">
      <path d="M 144.168551 286.695376
" style="fill:none;stroke:#000000;stroke-width:1.5;"/>
      <g>
       <use style="stroke:#000000;" x="144.168551" xlink:href="#m90c50dba27" y="286.695376"/>
      </g>
     </g>
     <g id="text_2">
      <!-- 25 -->
      <defs>
       <path d="M 19.1875 8.296875
L 53.609375 8.296875
L 53.609375 0
L 7.328125 0
L 7.328125 8.296875
Q 12.9375 14.109375 22.625 23.890625
Q 32.328125 33.6875 34.8125 36.53125
Q 39.546875 41.84375 41.421875 45.53125
Q 43.3125 49.21875 43.3125 52.78125
Q 43.3125 58.59375 39.234375 62.25
Q 35.15625 65.921875 28.609375 65.921875
Q 23.96875 65.921875 18.8125 64.3125
Q 13.671875 62.703125 7.8125 59.421875
L 7.8125 69.390625
Q 13.765625 71.78125 18.9375 73
Q 24.125 74.21875 28.421875 74.21875
Q 39.75 74.21875 46.484375 68.546875
Q 53.21875 62.890625 53.21875 53.421875
Q 53.21875 48.921875 51.53125 44.890625
Q 49.859375 40.875 45.40625 35.40625
Q 44.1875 33.984375 37.640625 27.21875
Q 31.109375 20.453125 19.1875 8.296875
z
" id="DejaVuSans-50"/>
       <path d="M 10.796875 72.90625
L 49.515625 72.90625
L 49.515625 64.59375
L 19.828125 64.59375
L 19.828125 46.734375
Q 21.96875 47.46875 24.109375 47.828125
Q 26.265625 48.1875 28.421875 48.1875
Q 40.625 48.1875 47.75 41.5
Q 54.890625 34.8125 54.890625 23.390625
Q 54.890625 11.625 47.5625 5.09375
Q 40.234375 -1.421875 26.90625 -1.421875
Q 22.3125 -1.421875 17.546875 -0.640625
Q 12.796875 0.140625 7.71875 1.703125
L 7.71875 11.625
Q 12.109375 9.234375 16.796875 8.0625
Q 21.484375 6.890625 26.703125 6.890625
Q 35.15625 6.890625 40.078125 11.328125
Q 45.015625 15.765625 45.015625 23.390625
Q 45.015625 31 40.078125 35.4375
Q 35.15625 39.890625 26.703125 39.890625
Q 22.75 39.890625 18.8125 39.015625
Q 14.890625 38.140625 10.796875 36.28125
z
" id="DejaVuSans-53"/>
      </defs>
      <g style="fill:#4d4d4d;" transform="translate(136.533551 300.763501)scale(0.12 -0.12)">
       <use xlink:href="#DejaVuSans-50"/>
       <use x="63.623047" xlink:href="#DejaVuSans-53"/>
      </g>
     </g>
    </g>
    <g id="xtick_3">
     <g id="line2d_5">
      <path clip-path="url(#p45fc243ff5)" d="M 225.332188 286.695376
L 225.332188 20.583376
" style="fill:none;stroke:#e5e5e5;stroke-width:0.8;"/>
     </g>
     <g id="line2d_6">
      <path d="M 225.332188 286.695376
" style="fill:none;stroke:#000000;stroke-width:1.5;"/>
      <g>
       <use style="stroke:#000000;" x="225.332188" xlink:href="#m90c50dba27" y="286.695376"/>
      </g>
     </g>
     <g id="text_3">
      <!-- 50 -->
      <g style="fill:#4d4d4d;" transform="translate(217.697188 300.763501)scale(0.12 -0.12)">
       <use xlink:href="#DejaVuSans-53"/>
       <use x="63.623047" xlink:href="#DejaVuSans-48"/>
      </g>
     </g>
    </g>
    <g id="xtick_4">
     <g id="line2d_7">
      <path clip-path="url(#p45fc243ff5)" d="M 306.495824 286.695376
L 306.495824 20.583376
" style="fill:none;stroke:#e5e5e5;stroke-width:0.8;"/>
     </g>
     <g id="line2d_8">
      <path d="M 306.495824 286.695376
" style="fill:none;stroke:#000000;stroke-width:1.5;"/>
      <g>
       <use style="stroke:#000000;" x="306.495824" xlink:href="#m90c50dba27" y="286.695376"/>
      </g>
     </g>
     <g id="text_4">
      <!-- 75 -->
      <defs>
       <path d="M 8.203125 72.90625
L 55.078125 72.90625
L 55.078125 68.703125
L 28.609375 0
L 18.3125 0
L 43.21875 64.59375
L 8.203125 64.59375
z
" id="DejaVuSans-55"/>
      </defs>
      <g style="fill:#4d4d4d;" transform="translate(298.860824 300.763501)scale(0.12 -0.12)">
       <use xlink:href="#DejaVuSans-55"/>
       <use x="63.623047" xlink:href="#DejaVuSans-53"/>
      </g>
     </g>
    </g>
    <g id="xtick_5">
     <g id="line2d_9">
      <path clip-path="url(#p45fc243ff5)" d="M 387.65946 286.695376
L 387.65946 20.583376
" style="fill:none;stroke:#e5e5e5;stroke-width:0.8;"/>
     </g>
     <g id="line2d_10">
      <path d="M 387.65946 286.695376
" style="fill:none;stroke:#000000;stroke-width:1.5;"/>
      <g>
       <use style="stroke:#000000;" x="387.65946" xlink:href="#m90c50dba27" y="286.695376"/>
      </g>
     </g>
     <g id="text_5">
      <!-- 100 -->
      <defs>
       <path d="M 12.40625 8.296875
L 28.515625 8.296875
L 28.515625 63.921875
L 10.984375 60.40625
L 10.984375 69.390625
L 28.421875 72.90625
L 38.28125 72.90625
L 38.28125 8.296875
L 54.390625 8.296875
L 54.390625 0
L 12.40625 0
z
" id="DejaVuSans-49"/>
      </defs>
      <g style="fill:#4d4d4d;" transform="translate(376.20696 300.763501)scale(0.12 -0.12)">
       <use xlink:href="#DejaVuSans-49"/>
       <use x="63.623047" xlink:href="#DejaVuSans-48"/>
       <use x="127.246094" xlink:href="#DejaVuSans-48"/>
      </g>
     </g>
    </g>
    <g id="xtick_6">
     <g id="line2d_11">
      <path clip-path="url(#p45fc243ff5)" d="M 103.586733 286.695376
L 103.586733 20.583376
" style="fill:none;stroke:#fafafa;"/>
     </g>
     <g id="line2d_12">
      <path d="M 103.586733 286.695376
" style="fill:none;stroke:#000000;stroke-width:1.5;"/>
     </g>
    </g>
    <g id="xtick_7">
     <g id="line2d_13">
      <path clip-path="url(#p45fc243ff5)" d="M 184.750369 286.695376
L 184.750369 20.583376
" style="fill:none;stroke:#fafafa;"/>
     </g>
     <g id="line2d_14">
      <path d="M 184.750369 286.695376
" style="fill:none;stroke:#000000;stroke-width:1.5;"/>
     </g>
    </g>
    <g id="xtick_8">
     <g id="line2d_15">
      <path clip-path="url(#p45fc243ff5)" d="M 265.914006 286.695376
L 265.914006 20.583376
" style="fill:none;stroke:#fafafa;"/>
     </g>
     <g id="line2d_16">
      <path d="M 265.914006 286.695376
" style="fill:none;stroke:#000000;stroke-width:1.5;"/>
     </g>
    </g>
    <g id="xtick_9">
     <g id="line2d_17">
      <path clip-path="url(#p45fc243ff5)" d="M 347.077642 286.695376
L 347.077642 20.583376
" style="fill:none;stroke:#fafafa;"/>
     </g>
     <g id="line2d_18">
      <path d="M 347.077642 286.695376
" style="fill:none;stroke:#000000;stroke-width:1.5;"/>
     </g>
    </g>
    <g id="text_6">
     <!-- GSEA pathway ranking -->
     <defs>
      <path d="M 59.515625 10.40625
L 59.515625 29.984375
L 43.40625 29.984375
L 43.40625 38.09375
L 69.28125 38.09375
L 69.28125 6.78125
Q 63.578125 2.734375 56.6875 0.65625
Q 49.8125 -1.421875 42 -1.421875
Q 24.90625 -1.421875 15.25 8.5625
Q 5.609375 18.5625 5.609375 36.375
Q 5.609375 54.25 15.25 64.234375
Q 24.90625 74.21875 42 74.21875
Q 49.125 74.21875 55.546875 72.453125
Q 61.96875 70.703125 67.390625 67.28125
L 67.390625 56.78125
Q 61.921875 61.421875 55.765625 63.765625
Q 49.609375 66.109375 42.828125 66.109375
Q 29.4375 66.109375 22.71875 58.640625
Q 16.015625 51.171875 16.015625 36.375
Q 16.015625 21.625 22.71875 14.15625
Q 29.4375 6.6875 42.828125 6.6875
Q 48.046875 6.6875 52.140625 7.59375
Q 56.25 8.5 59.515625 10.40625
z
" id="DejaVuSans-71"/>
      <path d="M 53.515625 70.515625
L 53.515625 60.890625
Q 47.90625 63.578125 42.921875 64.890625
Q 37.9375 66.21875 33.296875 66.21875
Q 25.25 66.21875 20.875 63.09375
Q 16.5 59.96875 16.5 54.203125
Q 16.5 49.359375 19.40625 46.890625
Q 22.3125 44.4375 30.421875 42.921875
L 36.375 41.703125
Q 47.40625 39.59375 52.65625 34.296875
Q 57.90625 29 57.90625 20.125
Q 57.90625 9.515625 50.796875 4.046875
Q 43.703125 -1.421875 29.984375 -1.421875
Q 24.8125 -1.421875 18.96875 -0.25
Q 13.140625 0.921875 6.890625 3.21875
L 6.890625 13.375
Q 12.890625 10.015625 18.65625 8.296875
Q 24.421875 6.59375 29.984375 6.59375
Q 38.421875 6.59375 43.015625 9.90625
Q 47.609375 13.234375 47.609375 19.390625
Q 47.609375 24.75 44.3125 27.78125
Q 41.015625 30.8125 33.5 32.328125
L 27.484375 33.5
Q 16.453125 35.6875 11.515625 40.375
Q 6.59375 45.0625 6.59375 53.421875
Q 6.59375 63.09375 13.40625 68.65625
Q 20.21875 74.21875 32.171875 74.21875
Q 37.3125 74.21875 42.625 73.28125
Q 47.953125 72.359375 53.515625 70.515625
z
" id="DejaVuSans-83"/>
      <path d="M 9.8125 72.90625
L 55.90625 72.90625
L 55.90625 64.59375
L 19.671875 64.59375
L 19.671875 43.015625
L 54.390625 43.015625
L 54.390625 34.71875
L 19.671875 34.71875
L 19.671875 8.296875
L 56.78125 8.296875
L 56.78125 0
L 9.8125 0
z
" id="DejaVuSans-69"/>
      <path d="M 34.1875 63.1875
L 20.796875 26.90625
L 47.609375 26.90625
z
M 28.609375 72.90625
L 39.796875 72.90625
L 67.578125 0
L 57.328125 0
L 50.6875 18.703125
L 17.828125 18.703125
L 11.1875 0
L 0.78125 0
z
" id="DejaVuSans-65"/>
      <path id="DejaVuSans-32"/>
      <path d="M 18.109375 8.203125
L 18.109375 -20.796875
L 9.078125 -20.796875
L 9.078125 54.6875
L 18.109375 54.6875
L 18.109375 46.390625
Q 20.953125 51.265625 25.265625 53.625
Q 29.59375 56 35.59375 56
Q 45.5625 56 51.78125 48.09375
Q 58.015625 40.1875 58.015625 27.296875
Q 58.015625 14.40625 51.78125 6.484375
Q 45.5625 -1.421875 35.59375 -1.421875
Q 29.59375 -1.421875 25.265625 0.953125
Q 20.953125 3.328125 18.109375 8.203125
z
M 48.6875 27.296875
Q 48.6875 37.203125 44.609375 42.84375
Q 40.53125 48.484375 33.40625 48.484375
Q 26.265625 48.484375 22.1875 42.84375
Q 18.109375 37.203125 18.109375 27.296875
Q 18.109375 17.390625 22.1875 11.75
Q 26.265625 6.109375 33.40625 6.109375
Q 40.53125 6.109375 44.609375 11.75
Q 48.6875 17.390625 48.6875 27.296875
z
" id="DejaVuSans-112"/>
      <path d="M 34.28125 27.484375
Q 23.390625 27.484375 19.1875 25
Q 14.984375 22.515625 14.984375 16.5
Q 14.984375 11.71875 18.140625 8.90625
Q 21.296875 6.109375 26.703125 6.109375
Q 34.1875 6.109375 38.703125 11.40625
Q 43.21875 16.703125 43.21875 25.484375
L 43.21875 27.484375
z
M 52.203125 31.203125
L 52.203125 0
L 43.21875 0
L 43.21875 8.296875
Q 40.140625 3.328125 35.546875 0.953125
Q 30.953125 -1.421875 24.3125 -1.421875
Q 15.921875 -1.421875 10.953125 3.296875
Q 6 8.015625 6 15.921875
Q 6 25.140625 12.171875 29.828125
Q 18.359375 34.515625 30.609375 34.515625
L 43.21875 34.515625
L 43.21875 35.40625
Q 43.21875 41.609375 39.140625 45
Q 35.0625 48.390625 27.6875 48.390625
Q 23 48.390625 18.546875 47.265625
Q 14.109375 46.140625 10.015625 43.890625
L 10.015625 52.203125
Q 14.9375 54.109375 19.578125 55.046875
Q 24.21875 56 28.609375 56
Q 40.484375 56 46.34375 49.84375
Q 52.203125 43.703125 52.203125 31.203125
z
" id="DejaVuSans-97"/>
      <path d="M 18.3125 70.21875
L 18.3125 54.6875
L 36.8125 54.6875
L 36.8125 47.703125
L 18.3125 47.703125
L 18.3125 18.015625
Q 18.3125 11.328125 20.140625 9.421875
Q 21.96875 7.515625 27.59375 7.515625
L 36.8125 7.515625
L 36.8125 0
L 27.59375 0
Q 17.1875 0 13.234375 3.875
Q 9.28125 7.765625 9.28125 18.015625
L 9.28125 47.703125
L 2.6875 47.703125
L 2.6875 54.6875
L 9.28125 54.6875
L 9.28125 70.21875
z
" id="DejaVuSans-116"/>
      <path d="M 54.890625 33.015625
L 54.890625 0
L 45.90625 0
L 45.90625 32.71875
Q 45.90625 40.484375 42.875 44.328125
Q 39.84375 48.1875 33.796875 48.1875
Q 26.515625 48.1875 22.3125 43.546875
Q 18.109375 38.921875 18.109375 30.90625
L 18.109375 0
L 9.078125 0
L 9.078125 75.984375
L 18.109375 75.984375
L 18.109375 46.1875
Q 21.34375 51.125 25.703125 53.5625
Q 30.078125 56 35.796875 56
Q 45.21875 56 50.046875 50.171875
Q 54.890625 44.34375 54.890625 33.015625
z
" id="DejaVuSans-104"/>
      <path d="M 4.203125 54.6875
L 13.1875 54.6875
L 24.421875 12.015625
L 35.59375 54.6875
L 46.1875 54.6875
L 57.421875 12.015625
L 68.609375 54.6875
L 77.59375 54.6875
L 63.28125 0
L 52.6875 0
L 40.921875 44.828125
L 29.109375 0
L 18.5 0
z
" id="DejaVuSans-119"/>
      <path d="M 32.171875 -5.078125
Q 28.375 -14.84375 24.75 -17.8125
Q 21.140625 -20.796875 15.09375 -20.796875
L 7.90625 -20.796875
L 7.90625 -13.28125
L 13.1875 -13.28125
Q 16.890625 -13.28125 18.9375 -11.515625
Q 21 -9.765625 23.484375 -3.21875
L 25.09375 0.875
L 2.984375 54.6875
L 12.5 54.6875
L 29.59375 11.921875
L 46.6875 54.6875
L 56.203125 54.6875
z
" id="DejaVuSans-121"/>
      <path d="M 41.109375 46.296875
Q 39.59375 47.171875 37.8125 47.578125
Q 36.03125 48 33.890625 48
Q 26.265625 48 22.1875 43.046875
Q 18.109375 38.09375 18.109375 28.8125
L 18.109375 0
L 9.078125 0
L 9.078125 54.6875
L 18.109375 54.6875
L 18.109375 46.1875
Q 20.953125 51.171875 25.484375 53.578125
Q 30.03125 56 36.53125 56
Q 37.453125 56 38.578125 55.875
Q 39.703125 55.765625 41.0625 55.515625
z
" id="DejaVuSans-114"/>
      <path d="M 54.890625 33.015625
L 54.890625 0
L 45.90625 0
L 45.90625 32.71875
Q 45.90625 40.484375 42.875 44.328125
Q 39.84375 48.1875 33.796875 48.1875
Q 26.515625 48.1875 22.3125 43.546875
Q 18.109375 38.921875 18.109375 30.90625
L 18.109375 0
L 9.078125 0
L 9.078125 54.6875
L 18.109375 54.6875
L 18.109375 46.1875
Q 21.34375 51.125 25.703125 53.5625
Q 30.078125 56 35.796875 56
Q 45.21875 56 50.046875 50.171875
Q 54.890625 44.34375 54.890625 33.015625
z
" id="DejaVuSans-110"/>
      <path d="M 9.078125 75.984375
L 18.109375 75.984375
L 18.109375 31.109375
L 44.921875 54.6875
L 56.390625 54.6875
L 27.390625 29.109375
L 57.625 0
L 45.90625 0
L 18.109375 26.703125
L 18.109375 0
L 9.078125 0
z
" id="DejaVuSans-107"/>
      <path d="M 9.421875 54.6875
L 18.40625 54.6875
L 18.40625 0
L 9.421875 0
z
M 9.421875 75.984375
L 18.40625 75.984375
L 18.40625 64.59375
L 9.421875 64.59375
z
" id="DejaVuSans-105"/>
      <path d="M 45.40625 27.984375
Q 45.40625 37.75 41.375 43.109375
Q 37.359375 48.484375 30.078125 48.484375
Q 22.859375 48.484375 18.828125 43.109375
Q 14.796875 37.75 14.796875 27.984375
Q 14.796875 18.265625 18.828125 12.890625
Q 22.859375 7.515625 30.078125 7.515625
Q 37.359375 7.515625 41.375 12.890625
Q 45.40625 18.265625 45.40625 27.984375
z
M 54.390625 6.78125
Q 54.390625 -7.171875 48.1875 -13.984375
Q 42 -20.796875 29.203125 -20.796875
Q 24.46875 -20.796875 20.265625 -20.09375
Q 16.0625 -19.390625 12.109375 -17.921875
L 12.109375 -9.1875
Q 16.0625 -11.328125 19.921875 -12.34375
Q 23.78125 -13.375 27.78125 -13.375
Q 36.625 -13.375 41.015625 -8.765625
Q 45.40625 -4.15625 45.40625 5.171875
L 45.40625 9.625
Q 42.625 4.78125 38.28125 2.390625
Q 33.9375 0 27.875 0
Q 17.828125 0 11.671875 7.65625
Q 5.515625 15.328125 5.515625 27.984375
Q 5.515625 40.671875 11.671875 48.328125
Q 17.828125 56 27.875 56
Q 33.9375 56 38.28125 53.609375
Q 42.625 51.21875 45.40625 46.390625
L 45.40625 54.6875
L 54.390625 54.6875
z
" id="DejaVuSans-103"/>
     </defs>
     <g transform="translate(133.769844 319.056782)scale(0.15 -0.15)">
      <use xlink:href="#DejaVuSans-71"/>
      <use x="77.490234" xlink:href="#DejaVuSans-83"/>
      <use x="140.966797" xlink:href="#DejaVuSans-69"/>
      <use x="204.150391" xlink:href="#DejaVuSans-65"/>
      <use x="272.558594" xlink:href="#DejaVuSans-32"/>
      <use x="304.345703" xlink:href="#DejaVuSans-112"/>
      <use x="367.822266" xlink:href="#DejaVuSans-97"/>
      <use x="429.101562" xlink:href="#DejaVuSans-116"/>
      <use x="468.310547" xlink:href="#DejaVuSans-104"/>
      <use x="531.689453" xlink:href="#DejaVuSans-119"/>
      <use x="613.476562" xlink:href="#DejaVuSans-97"/>
      <use x="674.755859" xlink:href="#DejaVuSans-121"/>
      <use x="733.935547" xlink:href="#DejaVuSans-32"/>
      <use x="765.722656" xlink:href="#DejaVuSans-114"/>
      <use x="806.835938" xlink:href="#DejaVuSans-97"/>
      <use x="868.115234" xlink:href="#DejaVuSans-110"/>
      <use x="931.494141" xlink:href="#DejaVuSans-107"/>
      <use x="989.404297" xlink:href="#DejaVuSans-105"/>
      <use x="1017.1875" xlink:href="#DejaVuSans-110"/>
      <use x="1080.566406" xlink:href="#DejaVuSans-103"/>
     </g>
    </g>
   </g>
   <g id="matplotlib.axis_2">
    <g id="ytick_1">
     <g id="line2d_19">
      <path clip-path="url(#p45fc243ff5)" d="M 46.772188 274.599376
L 403.892188 274.599376
" style="fill:none;stroke:#e5e5e5;stroke-width:0.8;"/>
     </g>
     <g id="line2d_20">
      <path d="M 46.772188 274.599376
" style="fill:none;stroke:#000000;stroke-width:1.5;"/>
      <defs>
       <path d="M 0 0
L -2.75 0
" id="mc487f13718" style="stroke:#000000;"/>
      </defs>
      <g>
       <use style="stroke:#000000;" x="46.772188" xlink:href="#mc487f13718" y="274.599376"/>
      </g>
     </g>
     <g id="text_7">
      <!-- 0 -->
      <g style="fill:#4d4d4d;" transform="translate(34.187188 277.910626)scale(0.12 -0.12)">
       <use xlink:href="#DejaVuSans-48"/>
      </g>
     </g>
    </g>
    <g id="ytick_2">
     <g id="line2d_21">
      <path clip-path="url(#p45fc243ff5)" d="M 46.772188 214.119376
L 403.892188 214.119376
" style="fill:none;stroke:#e5e5e5;stroke-width:0.8;"/>
     </g>
     <g id="line2d_22">
      <path d="M 46.772188 214.119376
" style="fill:none;stroke:#000000;stroke-width:1.5;"/>
      <g>
       <use style="stroke:#000000;" x="46.772188" xlink:href="#mc487f13718" y="214.119376"/>
      </g>
     </g>
     <g id="text_8">
      <!-- 25 -->
      <g style="fill:#4d4d4d;" transform="translate(26.552188 217.430626)scale(0.12 -0.12)">
       <use xlink:href="#DejaVuSans-50"/>
       <use x="63.623047" xlink:href="#DejaVuSans-53"/>
      </g>
     </g>
    </g>
    <g id="ytick_3">
     <g id="line2d_23">
      <path clip-path="url(#p45fc243ff5)" d="M 46.772188 153.639376
L 403.892188 153.639376
" style="fill:none;stroke:#e5e5e5;stroke-width:0.8;"/>
     </g>
     <g id="line2d_24">
      <path d="M 46.772188 153.639376
" style="fill:none;stroke:#000000;stroke-width:1.5;"/>
      <g>
       <use style="stroke:#000000;" x="46.772188" xlink:href="#mc487f13718" y="153.639376"/>
      </g>
     </g>
     <g id="text_9">
      <!-- 50 -->
      <g style="fill:#4d4d4d;" transform="translate(26.552188 156.950626)scale(0.12 -0.12)">
       <use xlink:href="#DejaVuSans-53"/>
       <use x="63.623047" xlink:href="#DejaVuSans-48"/>
      </g>
     </g>
    </g>
    <g id="ytick_4">
     <g id="line2d_25">
      <path clip-path="url(#p45fc243ff5)" d="M 46.772188 93.159376
L 403.892188 93.159376
" style="fill:none;stroke:#e5e5e5;stroke-width:0.8;"/>
     </g>
     <g id="line2d_26">
      <path d="M 46.772188 93.159376
" style="fill:none;stroke:#000000;stroke-width:1.5;"/>
      <g>
       <use style="stroke:#000000;" x="46.772188" xlink:href="#mc487f13718" y="93.159376"/>
      </g>
     </g>
     <g id="text_10">
      <!-- 75 -->
      <g style="fill:#4d4d4d;" transform="translate(26.552188 96.470626)scale(0.12 -0.12)">
       <use xlink:href="#DejaVuSans-55"/>
       <use x="63.623047" xlink:href="#DejaVuSans-53"/>
      </g>
     </g>
    </g>
    <g id="ytick_5">
     <g id="line2d_27">
      <path clip-path="url(#p45fc243ff5)" d="M 46.772188 32.679376
L 403.892188 32.679376
" style="fill:none;stroke:#e5e5e5;stroke-width:0.8;"/>
     </g>
     <g id="line2d_28">
      <path d="M 46.772188 32.679376
" style="fill:none;stroke:#000000;stroke-width:1.5;"/>
      <g>
       <use style="stroke:#000000;" x="46.772188" xlink:href="#mc487f13718" y="32.679376"/>
      </g>
     </g>
     <g id="text_11">
      <!-- 100 -->
      <g style="fill:#4d4d4d;" transform="translate(18.917188 35.990626)scale(0.12 -0.12)">
       <use xlink:href="#DejaVuSans-49"/>
       <use x="63.623047" xlink:href="#DejaVuSans-48"/>
       <use x="127.246094" xlink:href="#DejaVuSans-48"/>
      </g>
     </g>
    </g>
    <g id="ytick_6">
     <g id="line2d_29">
      <path clip-path="url(#p45fc243ff5)" d="M 46.772188 244.359376
L 403.892188 244.359376
" style="fill:none;stroke:#fafafa;"/>
     </g>
     <g id="line2d_30">
      <path d="M 46.772188 244.359376
" style="fill:none;stroke:#000000;stroke-width:1.5;"/>
     </g>
    </g>
    <g id="ytick_7">
     <g id="line2d_31">
      <path clip-path="url(#p45fc243ff5)" d="M 46.772188 183.879376
L 403.892188 183.879376
" style="fill:none;stroke:#fafafa;"/>
     </g>
     <g id="line2d_32">
      <path d="M 46.772188 183.879376
" style="fill:none;stroke:#000000;stroke-width:1.5;"/>
     </g>
    </g>
    <g id="ytick_8">
     <g id="line2d_33">
      <path clip-path="url(#p45fc243ff5)" d="M 46.772188 123.399376
L 403.892188 123.399376
" style="fill:none;stroke:#fafafa;"/>
     </g>
     <g id="line2d_34">
      <path d="M 46.772188 123.399376
" style="fill:none;stroke:#000000;stroke-width:1.5;"/>
     </g>
    </g>
    <g id="ytick_9">
     <g id="line2d_35">
      <path clip-path="url(#p45fc243ff5)" d="M 46.772188 62.919376
L 403.892188 62.919376
" style="fill:none;stroke:#fafafa;"/>
     </g>
     <g id="line2d_36">
      <path d="M 46.772188 62.919376
" style="fill:none;stroke:#000000;stroke-width:1.5;"/>
     </g>
    </g>
    <g id="text_12">
     <!-- CAMERA pathway ranking -->
     <defs>
      <path d="M 64.40625 67.28125
L 64.40625 56.890625
Q 59.421875 61.53125 53.78125 63.8125
Q 48.140625 66.109375 41.796875 66.109375
Q 29.296875 66.109375 22.65625 58.46875
Q 16.015625 50.828125 16.015625 36.375
Q 16.015625 21.96875 22.65625 14.328125
Q 29.296875 6.6875 41.796875 6.6875
Q 48.140625 6.6875 53.78125 8.984375
Q 59.421875 11.28125 64.40625 15.921875
L 64.40625 5.609375
Q 59.234375 2.09375 53.4375 0.328125
Q 47.65625 -1.421875 41.21875 -1.421875
Q 24.65625 -1.421875 15.125 8.703125
Q 5.609375 18.84375 5.609375 36.375
Q 5.609375 53.953125 15.125 64.078125
Q 24.65625 74.21875 41.21875 74.21875
Q 47.75 74.21875 53.53125 72.484375
Q 59.328125 70.75 64.40625 67.28125
z
" id="DejaVuSans-67"/>
      <path d="M 9.8125 72.90625
L 24.515625 72.90625
L 43.109375 23.296875
L 61.8125 72.90625
L 76.515625 72.90625
L 76.515625 0
L 66.890625 0
L 66.890625 64.015625
L 48.09375 14.015625
L 38.1875 14.015625
L 19.390625 64.015625
L 19.390625 0
L 9.8125 0
z
" id="DejaVuSans-77"/>
      <path d="M 44.390625 34.1875
Q 47.5625 33.109375 50.5625 29.59375
Q 53.5625 26.078125 56.59375 19.921875
L 66.609375 0
L 56 0
L 46.6875 18.703125
Q 43.0625 26.03125 39.671875 28.421875
Q 36.28125 30.8125 30.421875 30.8125
L 19.671875 30.8125
L 19.671875 0
L 9.8125 0
L 9.8125 72.90625
L 32.078125 72.90625
Q 44.578125 72.90625 50.734375 67.671875
Q 56.890625 62.453125 56.890625 51.90625
Q 56.890625 45.015625 53.6875 40.46875
Q 50.484375 35.9375 44.390625 34.1875
z
M 19.671875 64.796875
L 19.671875 38.921875
L 32.078125 38.921875
Q 39.203125 38.921875 42.84375 42.21875
Q 46.484375 45.515625 46.484375 51.90625
Q 46.484375 58.296875 42.84375 61.546875
Q 39.203125 64.796875 32.078125 64.796875
z
" id="DejaVuSans-82"/>
     </defs>
     <g transform="translate(11.397656 249.186376)rotate(-90)scale(0.15 -0.15)">
      <use xlink:href="#DejaVuSans-67"/>
      <use x="69.824219" xlink:href="#DejaVuSans-65"/>
      <use x="138.232422" xlink:href="#DejaVuSans-77"/>
      <use x="224.511719" xlink:href="#DejaVuSans-69"/>
      <use x="287.695312" xlink:href="#DejaVuSans-82"/>
      <use x="357.115234" xlink:href="#DejaVuSans-65"/>
      <use x="425.523438" xlink:href="#DejaVuSans-32"/>
      <use x="457.310547" xlink:href="#DejaVuSans-112"/>
      <use x="520.787109" xlink:href="#DejaVuSans-97"/>
      <use x="582.066406" xlink:href="#DejaVuSans-116"/>
      <use x="621.275391" xlink:href="#DejaVuSans-104"/>
      <use x="684.654297" xlink:href="#DejaVuSans-119"/>
      <use x="766.441406" xlink:href="#DejaVuSans-97"/>
      <use x="827.720703" xlink:href="#DejaVuSans-121"/>
      <use x="886.900391" xlink:href="#DejaVuSans-32"/>
      <use x="918.6875" xlink:href="#DejaVuSans-114"/>
      <use x="959.800781" xlink:href="#DejaVuSans-97"/>
      <use x="1021.080078" xlink:href="#DejaVuSans-110"/>
      <use x="1084.458984" xlink:href="#DejaVuSans-107"/>
      <use x="1142.369141" xlink:href="#DejaVuSans-105"/>
      <use x="1170.152344" xlink:href="#DejaVuSans-110"/>
      <use x="1233.53125" xlink:href="#DejaVuSans-103"/>
     </g>
    </g>
   </g>
   <g id="PathCollection_1">
    <path clip-path="url(#p45fc243ff5)" d="M 150.552208 123.320401
C 151.022268 123.320401 151.473139 123.133644 151.805522 122.801261
C 152.137905 122.468879 152.324662 122.018008 152.324662 121.547947
C 152.324662 121.077887 152.137905 120.627016 151.805522 120.294633
C 151.473139 119.96225 151.022268 119.775493 150.552208 119.775493
C 150.082148 119.775493 149.631277 119.96225 149.298894 120.294633
C 148.966511 120.627016 148.779754 121.077887 148.779754 121.547947
C 148.779754 122.018008 148.966511 122.468879 149.298894 122.801261
C 149.631277 123.133644 150.082148 123.320401 150.552208 123.320401
z
" style="stroke:#000000;stroke-width:0.886227;"/>
    <path clip-path="url(#p45fc243ff5)" d="M 63.004915 118.383258
C 63.474975 118.383258 63.925846 118.196501 64.258229 117.864119
C 64.590612 117.531736 64.777369 117.080865 64.777369 116.610804
C 64.777369 116.140744 64.590612 115.689873 64.258229 115.35749
C 63.925846 115.025107 63.474975 114.838351 63.004915 114.838351
C 62.534855 114.838351 62.083983 115.025107 61.751601 115.35749
C 61.419218 115.689873 61.232461 116.140744 61.232461 116.610804
C 61.232461 117.080865 61.419218 117.531736 61.751601 117.864119
C 62.083983 118.196501 62.534855 118.383258 63.004915 118.383258
z
" style="stroke:#000000;stroke-width:0.886227;"/>
    <path clip-path="url(#p45fc243ff5)" d="M 150.552208 93.697544
C 151.022268 93.697544 151.473139 93.510787 151.805522 93.178404
C 152.137905 92.846021 152.324662 92.39515 152.324662 91.92509
C 152.324662 91.45503 152.137905 91.004159 151.805522 90.671776
C 151.473139 90.339393 151.022268 90.152636 150.552208 90.152636
C 150.082148 90.152636 149.631277 90.339393 149.298894 90.671776
C 148.966511 91.004159 148.779754 91.45503 148.779754 91.92509
C 148.779754 92.39515 148.966511 92.846021 149.298894 93.178404
C 149.631277 93.510787 150.082148 93.697544 150.552208 93.697544
z
" style="stroke:#000000;stroke-width:0.886227;"/>
    <path clip-path="url(#p45fc243ff5)" d="M 300.112167 152.943258
C 300.582227 152.943258 301.033098 152.756501 301.365481 152.424119
C 301.697864 152.091736 301.884621 151.640865 301.884621 151.170804
C 301.884621 150.700744 301.697864 150.249873 301.365481 149.91749
C 301.033098 149.585107 300.582227 149.398351 300.112167 149.398351
C 299.642107 149.398351 299.191236 149.585107 298.858853 149.91749
C 298.52647 150.249873 298.339713 150.700744 298.339713 151.170804
C 298.339713 151.640865 298.52647 152.091736 298.858853 152.424119
C 299.191236 152.756501 299.642107 152.943258 300.112167 152.943258
z
" style="stroke:#000000;stroke-width:0.886227;"/>
    <path clip-path="url(#p45fc243ff5)" d="M 63.004915 143.068973
C 63.474975 143.068973 63.925846 142.882216 64.258229 142.549833
C 64.590612 142.21745 64.777369 141.766579 64.777369 141.296519
C 64.777369 140.826458 64.590612 140.375587 64.258229 140.043205
C 63.925846 139.710822 63.474975 139.524065 63.004915 139.524065
C 62.534855 139.524065 62.083983 139.710822 61.751601 140.043205
C 61.419218 140.375587 61.232461 140.826458 61.232461 141.296519
C 61.232461 141.766579 61.419218 142.21745 61.751601 142.549833
C 62.083983 142.882216 62.534855 143.068973 63.004915 143.068973
z
" style="stroke:#000000;stroke-width:0.886227;"/>
    <path clip-path="url(#p45fc243ff5)" d="M 132.313189 148.006115
C 132.783249 148.006115 133.23412 147.819358 133.566503 147.486976
C 133.898885 147.154593 134.085642 146.703722 134.085642 146.233662
C 134.085642 145.763601 133.898885 145.31273 133.566503 144.980347
C 133.23412 144.647965 132.783249 144.461208 132.313189 144.461208
C 131.843128 144.461208 131.392257 144.647965 131.059874 144.980347
C 130.727492 145.31273 130.540735 145.763601 130.540735 146.233662
C 130.540735 146.703722 130.727492 147.154593 131.059874 147.486976
C 131.392257 147.819358 131.843128 148.006115 132.313189 148.006115
z
" style="stroke:#000000;stroke-width:0.886227;"/>
    <path clip-path="url(#p45fc243ff5)" d="M 63.004915 251.686115
C 63.474975 251.686115 63.925846 251.499358 64.258229 251.166976
C 64.590612 250.834593 64.777369 250.383722 64.777369 249.913662
C 64.777369 249.443601 64.590612 248.99273 64.258229 248.660347
C 63.925846 248.327965 63.474975 248.141208 63.004915 248.141208
C 62.534855 248.141208 62.083983 248.327965 61.751601 248.660347
C 61.419218 248.99273 61.232461 249.443601 61.232461 249.913662
C 61.232461 250.383722 61.419218 250.834593 61.751601 251.166976
C 62.083983 251.499358 62.534855 251.686115 63.004915 251.686115
z
" style="stroke:#000000;stroke-width:0.886227;"/>
    <path clip-path="url(#p45fc243ff5)" d="M 63.004915 64.074687
C 63.474975 64.074687 63.925846 63.88793 64.258229 63.555547
C 64.590612 63.223164 64.777369 62.772293 64.777369 62.302233
C 64.777369 61.832173 64.590612 61.381302 64.258229 61.048919
C 63.925846 60.716536 63.474975 60.529779 63.004915 60.529779
C 62.534855 60.529779 62.083983 60.716536 61.751601 61.048919
C 61.419218 61.381302 61.232461 61.832173 61.232461 62.302233
C 61.232461 62.772293 61.419218 63.223164 61.751601 63.555547
C 62.083983 63.88793 62.534855 64.074687 63.004915 64.074687
z
" style="stroke:#000000;stroke-width:0.886227;"/>
    <path clip-path="url(#p45fc243ff5)" d="M 117.721973 246.748973
C 118.192033 246.748973 118.642904 246.562216 118.975287 246.229833
C 119.30767 245.89745 119.494427 245.446579 119.494427 244.976519
C 119.494427 244.506458 119.30767 244.055587 118.975287 243.723205
C 118.642904 243.390822 118.192033 243.204065 117.721973 243.204065
C 117.251913 243.204065 116.801042 243.390822 116.468659 243.723205
C 116.136276 244.055587 115.949519 244.506458 115.949519 244.976519
C 115.949519 245.446579 116.136276 245.89745 116.468659 246.229833
C 116.801042 246.562216 117.251913 246.748973 117.721973 246.748973
z
" style="stroke:#000000;stroke-width:0.886227;"/>
    <path clip-path="url(#p45fc243ff5)" d="M 387.65946 199.846115
C 388.12952 199.846115 388.580392 199.659358 388.912774 199.326976
C 389.245157 198.994593 389.431914 198.543722 389.431914 198.073662
C 389.431914 197.603601 389.245157 197.15273 388.912774 196.820347
C 388.580392 196.487965 388.12952 196.301208 387.65946 196.301208
C 387.1894 196.301208 386.738529 196.487965 386.406146 196.820347
C 386.073763 197.15273 385.887006 197.603601 385.887006 198.073662
C 385.887006 198.543722 386.073763 198.994593 386.406146 199.326976
C 386.738529 199.659358 387.1894 199.846115 387.65946 199.846115
z
" style="stroke:#000000;stroke-width:0.886227;"/>
    <path clip-path="url(#p45fc243ff5)" d="M 205.269266 162.817544
C 205.739326 162.817544 206.190197 162.630787 206.52258 162.298404
C 206.854963 161.966021 207.04172 161.51515 207.04172 161.04509
C 207.04172 160.57503 206.854963 160.124159 206.52258 159.791776
C 206.190197 159.459393 205.739326 159.272636 205.269266 159.272636
C 204.799206 159.272636 204.348335 159.459393 204.015952 159.791776
C 203.683569 160.124159 203.496812 160.57503 203.496812 161.04509
C 203.496812 161.51515 203.683569 161.966021 204.015952 162.298404
C 204.348335 162.630787 204.799206 162.817544 205.269266 162.817544
z
" style="stroke:#000000;stroke-width:0.886227;"/>
    <path clip-path="url(#p45fc243ff5)" d="M 278.225344 83.823258
C 278.695404 83.823258 279.146275 83.636501 279.478658 83.304119
C 279.811041 82.971736 279.997798 82.520865 279.997798 82.050804
C 279.997798 81.580744 279.811041 81.129873 279.478658 80.79749
C 279.146275 80.465107 278.695404 80.278351 278.225344 80.278351
C 277.755284 80.278351 277.304412 80.465107 276.97203 80.79749
C 276.639647 81.129873 276.45289 81.580744 276.45289 82.050804
C 276.45289 82.520865 276.639647 82.971736 276.97203 83.304119
C 277.304412 83.636501 277.755284 83.823258 278.225344 83.823258
z
" style="stroke:#000000;stroke-width:0.886227;"/>
    <path clip-path="url(#p45fc243ff5)" d="M 373.068245 39.388973
C 373.538305 39.388973 373.989176 39.202216 374.321559 38.869833
C 374.653942 38.53745 374.840699 38.086579 374.840699 37.616519
C 374.840699 37.146458 374.653942 36.695587 374.321559 36.363205
C 373.989176 36.030822 373.538305 35.844065 373.068245 35.844065
C 372.598184 35.844065 372.147313 36.030822 371.814931 36.363205
C 371.482548 36.695587 371.295791 37.146458 371.295791 37.616519
C 371.295791 38.086579 371.482548 38.53745 371.814931 38.869833
C 372.147313 39.202216 372.598184 39.388973 373.068245 39.388973
z
" style="stroke:#000000;stroke-width:0.886227;"/>
    <path clip-path="url(#p45fc243ff5)" d="M 125.017581 261.560401
C 125.487641 261.560401 125.938512 261.373644 126.270895 261.041261
C 126.603278 260.708879 126.790035 260.258008 126.790035 259.787947
C 126.790035 259.317887 126.603278 258.867016 126.270895 258.534633
C 125.938512 258.20225 125.487641 258.015493 125.017581 258.015493
C 124.547521 258.015493 124.096649 258.20225 123.764267 258.534633
C 123.431884 258.867016 123.245127 259.317887 123.245127 259.787947
C 123.245127 260.258008 123.431884 260.708879 123.764267 261.041261
C 124.096649 261.373644 124.547521 261.560401 125.017581 261.560401
z
" style="stroke:#000000;stroke-width:0.886227;"/>
    <path clip-path="url(#p45fc243ff5)" d="M 63.004915 266.497544
C 63.474975 266.497544 63.925846 266.310787 64.258229 265.978404
C 64.590612 265.646021 64.777369 265.19515 64.777369 264.72509
C 64.777369 264.25503 64.590612 263.804159 64.258229 263.471776
C 63.925846 263.139393 63.474975 262.952636 63.004915 262.952636
C 62.534855 262.952636 62.083983 263.139393 61.751601 263.471776
C 61.419218 263.804159 61.232461 264.25503 61.232461 264.72509
C 61.232461 265.19515 61.419218 265.646021 61.751601 265.978404
C 62.083983 266.310787 62.534855 266.497544 63.004915 266.497544
z
" style="stroke:#000000;stroke-width:0.886227;"/>
    <path clip-path="url(#p45fc243ff5)" d="M 380.363852 170.223258
C 380.833913 170.223258 381.284784 170.036501 381.617167 169.704119
C 381.949549 169.371736 382.136306 168.920865 382.136306 168.450804
C 382.136306 167.980744 381.949549 167.529873 381.617167 167.19749
C 381.284784 166.865107 380.833913 166.678351 380.363852 166.678351
C 379.893792 166.678351 379.442921 166.865107 379.110538 167.19749
C 378.778156 167.529873 378.591399 167.980744 378.591399 168.450804
C 378.591399 168.920865 378.778156 169.371736 379.110538 169.704119
C 379.442921 170.036501 379.893792 170.223258 380.363852 170.223258
z
" style="stroke:#000000;stroke-width:0.886227;"/>
    <path clip-path="url(#p45fc243ff5)" d="M 63.004915 138.13183
C 63.474975 138.13183 63.925846 137.945073 64.258229 137.61269
C 64.590612 137.280307 64.777369 136.829436 64.777369 136.359376
C 64.777369 135.889316 64.590612 135.438444 64.258229 135.106062
C 63.925846 134.773679 63.474975 134.586922 63.004915 134.586922
C 62.534855 134.586922 62.083983 134.773679 61.751601 135.106062
C 61.419218 135.438444 61.232461 135.889316 61.232461 136.359376
C 61.232461 136.829436 61.419218 137.280307 61.751601 137.61269
C 62.083983 137.945073 62.534855 138.13183 63.004915 138.13183
z
" style="stroke:#000000;stroke-width:0.886227;"/>
    <path clip-path="url(#p45fc243ff5)" d="M 139.608796 133.194687
C 140.078857 133.194687 140.529728 133.00793 140.86211 132.675547
C 141.194493 132.343164 141.38125 131.892293 141.38125 131.422233
C 141.38125 130.952173 141.194493 130.501302 140.86211 130.168919
C 140.529728 129.836536 140.078857 129.649779 139.608796 129.649779
C 139.138736 129.649779 138.687865 129.836536 138.355482 130.168919
C 138.023099 130.501302 137.836342 130.952173 137.836342 131.422233
C 137.836342 131.892293 138.023099 132.343164 138.355482 132.675547
C 138.687865 133.00793 139.138736 133.194687 139.608796 133.194687
z
" style="stroke:#000000;stroke-width:0.886227;"/>
    <path clip-path="url(#p45fc243ff5)" d="M 343.885814 170.223258
C 344.355874 170.223258 344.806745 170.036501 345.139128 169.704119
C 345.471511 169.371736 345.658268 168.920865 345.658268 168.450804
C 345.658268 167.980744 345.471511 167.529873 345.139128 167.19749
C 344.806745 166.865107 344.355874 166.678351 343.885814 166.678351
C 343.415753 166.678351 342.964882 166.865107 342.6325 167.19749
C 342.300117 167.529873 342.11336 167.980744 342.11336 168.450804
C 342.11336 168.920865 342.300117 169.371736 342.6325 169.704119
C 342.964882 170.036501 343.415753 170.223258 343.885814 170.223258
z
" style="stroke:#000000;stroke-width:0.886227;"/>
    <path clip-path="url(#p45fc243ff5)" d="M 285.520952 54.200401
C 285.991012 54.200401 286.441883 54.013644 286.774266 53.681261
C 287.106648 53.348879 287.293405 52.898008 287.293405 52.427947
C 287.293405 51.957887 287.106648 51.507016 286.774266 51.174633
C 286.441883 50.84225 285.991012 50.655493 285.520952 50.655493
C 285.050891 50.655493 284.60002 50.84225 284.267637 51.174633
C 283.935255 51.507016 283.748498 51.957887 283.748498 52.427947
C 283.748498 52.898008 283.935255 53.348879 284.267637 53.681261
C 284.60002 54.013644 285.050891 54.200401 285.520952 54.200401
z
" style="stroke:#000000;stroke-width:0.886227;"/>
    <path clip-path="url(#p45fc243ff5)" d="M 227.156089 271.434687
C 227.62615 271.434687 228.077021 271.24793 228.409404 270.915547
C 228.741786 270.583164 228.928543 270.132293 228.928543 269.662233
C 228.928543 269.192173 228.741786 268.741302 228.409404 268.408919
C 228.077021 268.076536 227.62615 267.889779 227.156089 267.889779
C 226.686029 267.889779 226.235158 268.076536 225.902775 268.408919
C 225.570393 268.741302 225.383636 269.192173 225.383636 269.662233
C 225.383636 270.132293 225.570393 270.583164 225.902775 270.915547
C 226.235158 271.24793 226.686029 271.434687 227.156089 271.434687
z
" style="stroke:#000000;stroke-width:0.886227;"/>
    <path clip-path="url(#p45fc243ff5)" d="M 63.004915 34.45183
C 63.474975 34.45183 63.925846 34.265073 64.258229 33.93269
C 64.590612 33.600307 64.777369 33.149436 64.777369 32.679376
C 64.777369 32.209316 64.590612 31.758444 64.258229 31.426062
C 63.925846 31.093679 63.474975 30.906922 63.004915 30.906922
C 62.534855 30.906922 62.083983 31.093679 61.751601 31.426062
C 61.419218 31.758444 61.232461 32.209316 61.232461 32.679376
C 61.232461 33.149436 61.419218 33.600307 61.751601 33.93269
C 62.083983 34.265073 62.534855 34.45183 63.004915 34.45183
z
" style="stroke:#000000;stroke-width:0.886227;"/>
    <path clip-path="url(#p45fc243ff5)" d="M 241.747305 69.01183
C 242.217365 69.01183 242.668236 68.825073 243.000619 68.49269
C 243.333002 68.160307 243.519759 67.709436 243.519759 67.239376
C 243.519759 66.769316 243.333002 66.318444 243.000619 65.986062
C 242.668236 65.653679 242.217365 65.466922 241.747305 65.466922
C 241.277245 65.466922 240.826374 65.653679 240.493991 65.986062
C 240.161608 66.318444 239.974851 66.769316 239.974851 67.239376
C 239.974851 67.709436 240.161608 68.160307 240.493991 68.49269
C 240.826374 68.825073 241.277245 69.01183 241.747305 69.01183
z
" style="stroke:#000000;stroke-width:0.886227;"/>
    <path clip-path="url(#p45fc243ff5)" d="M 249.042913 128.257544
C 249.512973 128.257544 249.963844 128.070787 250.296227 127.738404
C 250.62861 127.406021 250.815367 126.95515 250.815367 126.48509
C 250.815367 126.01503 250.62861 125.564159 250.296227 125.231776
C 249.963844 124.899393 249.512973 124.712636 249.042913 124.712636
C 248.572852 124.712636 248.121981 124.899393 247.789599 125.231776
C 247.457216 125.564159 247.270459 126.01503 247.270459 126.48509
C 247.270459 126.95515 247.457216 127.406021 247.789599 127.738404
C 248.121981 128.070787 248.572852 128.257544 249.042913 128.257544
z
" style="stroke:#000000;stroke-width:0.886227;"/>
    <path clip-path="url(#p45fc243ff5)" d="M 314.703383 276.37183
C 315.173443 276.37183 315.624314 276.185073 315.956697 275.85269
C 316.28908 275.520307 316.475836 275.069436 316.475836 274.599376
C 316.475836 274.129316 316.28908 273.678444 315.956697 273.346062
C 315.624314 273.013679 315.173443 272.826922 314.703383 272.826922
C 314.233322 272.826922 313.782451 273.013679 313.450068 273.346062
C 313.117686 273.678444 312.930929 274.129316 312.930929 274.599376
C 312.930929 275.069436 313.117686 275.520307 313.450068 275.85269
C 313.782451 276.185073 314.233322 276.37183 314.703383 276.37183
z
" style="stroke:#000000;stroke-width:0.886227;"/>
    <path clip-path="url(#p45fc243ff5)" d="M 336.590206 108.508973
C 337.060266 108.508973 337.511137 108.322216 337.84352 107.989833
C 338.175903 107.65745 338.36266 107.206579 338.36266 106.736519
C 338.36266 106.266458 338.175903 105.815587 337.84352 105.483205
C 337.511137 105.150822 337.060266 104.964065 336.590206 104.964065
C 336.120146 104.964065 335.669275 105.150822 335.336892 105.483205
C 335.004509 105.815587 334.817752 106.266458 334.817752 106.736519
C 334.817752 107.206579 335.004509 107.65745 335.336892 107.989833
C 335.669275 108.322216 336.120146 108.508973 336.590206 108.508973
z
" style="stroke:#000000;stroke-width:0.886227;"/>
    <path clip-path="url(#p45fc243ff5)" d="M 365.772637 78.886115
C 366.242697 78.886115 366.693568 78.699358 367.025951 78.366976
C 367.358334 78.034593 367.545091 77.583722 367.545091 77.113662
C 367.545091 76.643601 367.358334 76.19273 367.025951 75.860347
C 366.693568 75.527965 366.242697 75.341208 365.772637 75.341208
C 365.302577 75.341208 364.851706 75.527965 364.519323 75.860347
C 364.18694 76.19273 364.000183 76.643601 364.000183 77.113662
C 364.000183 77.583722 364.18694 78.034593 364.519323 78.366976
C 364.851706 78.699358 365.302577 78.886115 365.772637 78.886115
z
" style="stroke:#000000;stroke-width:0.886227;"/>
    <path clip-path="url(#p45fc243ff5)" d="M 358.477029 241.81183
C 358.947089 241.81183 359.397961 241.625073 359.730343 241.29269
C 360.062726 240.960307 360.249483 240.509436 360.249483 240.039376
C 360.249483 239.569316 360.062726 239.118444 359.730343 238.786062
C 359.397961 238.453679 358.947089 238.266922 358.477029 238.266922
C 358.006969 238.266922 357.556098 238.453679 357.223715 238.786062
C 356.891332 239.118444 356.704575 239.569316 356.704575 240.039376
C 356.704575 240.509436 356.891332 240.960307 357.223715 241.29269
C 357.556098 241.625073 358.006969 241.81183 358.477029 241.81183
z
" style="stroke:#000000;stroke-width:0.886227;"/>
    <path clip-path="url(#p45fc243ff5)" d="M 176.086835 199.846115
C 176.556895 199.846115 177.007766 199.659358 177.340149 199.326976
C 177.672532 198.994593 177.859289 198.543722 177.859289 198.073662
C 177.859289 197.603601 177.672532 197.15273 177.340149 196.820347
C 177.007766 196.487965 176.556895 196.301208 176.086835 196.301208
C 175.616775 196.301208 175.165904 196.487965 174.833521 196.820347
C 174.501138 197.15273 174.314381 197.603601 174.314381 198.073662
C 174.314381 198.543722 174.501138 198.994593 174.833521 199.326976
C 175.165904 199.659358 175.616775 199.846115 176.086835 199.846115
z
" style="stroke:#000000;stroke-width:0.886227;"/>
    <path clip-path="url(#p45fc243ff5)" d="M 212.564874 59.137544
C 213.034934 59.137544 213.485805 58.950787 213.818188 58.618404
C 214.150571 58.286021 214.337328 57.83515 214.337328 57.36509
C 214.337328 56.89503 214.150571 56.444159 213.818188 56.111776
C 213.485805 55.779393 213.034934 55.592636 212.564874 55.592636
C 212.094814 55.592636 211.643943 55.779393 211.31156 56.111776
C 210.979177 56.444159 210.79242 56.89503 210.79242 57.36509
C 210.79242 57.83515 210.979177 58.286021 211.31156 58.618404
C 211.643943 58.950787 212.094814 59.137544 212.564874 59.137544
z
" style="stroke:#000000;stroke-width:0.886227;"/>
    <path clip-path="url(#p45fc243ff5)" d="M 103.130757 212.188973
C 103.600818 212.188973 104.051689 212.002216 104.384072 211.669833
C 104.716454 211.33745 104.903211 210.886579 104.903211 210.416519
C 104.903211 209.946458 104.716454 209.495587 104.384072 209.163205
C 104.051689 208.830822 103.600818 208.644065 103.130757 208.644065
C 102.660697 208.644065 102.209826 208.830822 101.877443 209.163205
C 101.545061 209.495587 101.358304 209.946458 101.358304 210.416519
C 101.358304 210.886579 101.545061 211.33745 101.877443 211.669833
C 102.209826 212.002216 102.660697 212.188973 103.130757 212.188973
z
" style="stroke:#000000;stroke-width:0.886227;"/>
    <path clip-path="url(#p45fc243ff5)" d="M 234.451697 187.503258
C 234.921757 187.503258 235.372629 187.316501 235.705011 186.984119
C 236.037394 186.651736 236.224151 186.200865 236.224151 185.730804
C 236.224151 185.260744 236.037394 184.809873 235.705011 184.47749
C 235.372629 184.145107 234.921757 183.958351 234.451697 183.958351
C 233.981637 183.958351 233.530766 184.145107 233.198383 184.47749
C 232.866 184.809873 232.679243 185.260744 232.679243 185.730804
C 232.679243 186.200865 232.866 186.651736 233.198383 186.984119
C 233.530766 187.316501 233.981637 187.503258 234.451697 187.503258
z
" style="stroke:#000000;stroke-width:0.886227;"/>
    <path clip-path="url(#p45fc243ff5)" d="M 183.382443 73.948973
C 183.852503 73.948973 184.303374 73.762216 184.635757 73.429833
C 184.96814 73.09745 185.154897 72.646579 185.154897 72.176519
C 185.154897 71.706458 184.96814 71.255587 184.635757 70.923205
C 184.303374 70.590822 183.852503 70.404065 183.382443 70.404065
C 182.912383 70.404065 182.461512 70.590822 182.129129 70.923205
C 181.796746 71.255587 181.609989 71.706458 181.609989 72.176519
C 181.609989 72.646579 181.796746 73.09745 182.129129 73.429833
C 182.461512 73.762216 182.912383 73.948973 183.382443 73.948973
z
" style="stroke:#000000;stroke-width:0.886227;"/>
    <path clip-path="url(#p45fc243ff5)" d="M 190.678051 157.880401
C 191.148111 157.880401 191.598982 157.693644 191.931365 157.361261
C 192.263748 157.028879 192.450504 156.578008 192.450504 156.107947
C 192.450504 155.637887 192.263748 155.187016 191.931365 154.854633
C 191.598982 154.52225 191.148111 154.335493 190.678051 154.335493
C 190.20799 154.335493 189.757119 154.52225 189.424736 154.854633
C 189.092354 155.187016 188.905597 155.637887 188.905597 156.107947
C 188.905597 156.578008 189.092354 157.028879 189.424736 157.361261
C 189.757119 157.693644 190.20799 157.880401 190.678051 157.880401
z
" style="stroke:#000000;stroke-width:0.886227;"/>
    <path clip-path="url(#p45fc243ff5)" d="M 168.791227 222.063258
C 169.261288 222.063258 169.712159 221.876501 170.044541 221.544119
C 170.376924 221.211736 170.563681 220.760865 170.563681 220.290804
C 170.563681 219.820744 170.376924 219.369873 170.044541 219.03749
C 169.712159 218.705107 169.261288 218.518351 168.791227 218.518351
C 168.321167 218.518351 167.870296 218.705107 167.537913 219.03749
C 167.20553 219.369873 167.018773 219.820744 167.018773 220.290804
C 167.018773 220.760865 167.20553 221.211736 167.537913 221.544119
C 167.870296 221.876501 168.321167 222.063258 168.791227 222.063258
z
" style="stroke:#000000;stroke-width:0.886227;"/>
    <path clip-path="url(#p45fc243ff5)" d="M 263.634128 182.566115
C 264.104189 182.566115 264.55506 182.379358 264.887442 182.046976
C 265.219825 181.714593 265.406582 181.263722 265.406582 180.793662
C 265.406582 180.323601 265.219825 179.87273 264.887442 179.540347
C 264.55506 179.207965 264.104189 179.021208 263.634128 179.021208
C 263.164068 179.021208 262.713197 179.207965 262.380814 179.540347
C 262.048431 179.87273 261.861674 180.323601 261.861674 180.793662
C 261.861674 181.263722 262.048431 181.714593 262.380814 182.046976
C 262.713197 182.379358 263.164068 182.566115 263.634128 182.566115
z
" style="stroke:#000000;stroke-width:0.886227;"/>
    <path clip-path="url(#p45fc243ff5)" d="M 256.33852 103.57183
C 256.808581 103.57183 257.259452 103.385073 257.591835 103.05269
C 257.924217 102.720307 258.110974 102.269436 258.110974 101.799376
C 258.110974 101.329316 257.924217 100.878444 257.591835 100.546062
C 257.259452 100.213679 256.808581 100.026922 256.33852 100.026922
C 255.86846 100.026922 255.417589 100.213679 255.085206 100.546062
C 254.752824 100.878444 254.566067 101.329316 254.566067 101.799376
C 254.566067 102.269436 254.752824 102.720307 255.085206 103.05269
C 255.417589 103.385073 255.86846 103.57183 256.33852 103.57183
z
" style="stroke:#000000;stroke-width:0.886227;"/>
    <path clip-path="url(#p45fc243ff5)" d="M 292.816559 98.634687
C 293.28662 98.634687 293.737491 98.44793 294.069873 98.115547
C 294.402256 97.783164 294.589013 97.332293 294.589013 96.862233
C 294.589013 96.392173 294.402256 95.941302 294.069873 95.608919
C 293.737491 95.276536 293.28662 95.089779 292.816559 95.089779
C 292.346499 95.089779 291.895628 95.276536 291.563245 95.608919
C 291.230862 95.941302 291.044105 96.392173 291.044105 96.862233
C 291.044105 97.332293 291.230862 97.783164 291.563245 98.115547
C 291.895628 98.44793 292.346499 98.634687 292.816559 98.634687
z
" style="stroke:#000000;stroke-width:0.886227;"/>
    <path clip-path="url(#p45fc243ff5)" d="M 351.181421 217.126115
C 351.651482 217.126115 352.102353 216.939358 352.434736 216.606976
C 352.767118 216.274593 352.953875 215.823722 352.953875 215.353662
C 352.953875 214.883601 352.767118 214.43273 352.434736 214.100347
C 352.102353 213.767965 351.651482 213.581208 351.181421 213.581208
C 350.711361 213.581208 350.26049 213.767965 349.928107 214.100347
C 349.595724 214.43273 349.408968 214.883601 349.408968 215.353662
C 349.408968 215.823722 349.595724 216.274593 349.928107 216.606976
C 350.26049 216.939358 350.711361 217.126115 351.181421 217.126115
z
" style="stroke:#000000;stroke-width:0.886227;"/>
    <path clip-path="url(#p45fc243ff5)" d="M 63.004915 236.874687
C 63.474975 236.874687 63.925846 236.68793 64.258229 236.355547
C 64.590612 236.023164 64.777369 235.572293 64.777369 235.102233
C 64.777369 234.632173 64.590612 234.181302 64.258229 233.848919
C 63.925846 233.516536 63.474975 233.329779 63.004915 233.329779
C 62.534855 233.329779 62.083983 233.516536 61.751601 233.848919
C 61.419218 234.181302 61.232461 234.632173 61.232461 235.102233
C 61.232461 235.572293 61.419218 236.023164 61.751601 236.355547
C 62.083983 236.68793 62.534855 236.874687 63.004915 236.874687
z
" style="stroke:#000000;stroke-width:0.886227;"/>
    <path clip-path="url(#p45fc243ff5)" d="M 63.004915 177.628973
C 63.474975 177.628973 63.925846 177.442216 64.258229 177.109833
C 64.590612 176.77745 64.777369 176.326579 64.777369 175.856519
C 64.777369 175.386458 64.590612 174.935587 64.258229 174.603205
C 63.925846 174.270822 63.474975 174.084065 63.004915 174.084065
C 62.534855 174.084065 62.083983 174.270822 61.751601 174.603205
C 61.419218 174.935587 61.232461 175.386458 61.232461 175.856519
C 61.232461 176.326579 61.419218 176.77745 61.751601 177.109833
C 62.083983 177.442216 62.534855 177.628973 63.004915 177.628973
z
" style="stroke:#000000;stroke-width:0.886227;"/>
    <path clip-path="url(#p45fc243ff5)" d="M 219.860482 49.263258
C 220.330542 49.263258 220.781413 49.076501 221.113796 48.744119
C 221.446179 48.411736 221.632936 47.960865 221.632936 47.490804
C 221.632936 47.020744 221.446179 46.569873 221.113796 46.23749
C 220.781413 45.905107 220.330542 45.718351 219.860482 45.718351
C 219.390421 45.718351 218.93955 45.905107 218.607168 46.23749
C 218.274785 46.569873 218.088028 47.020744 218.088028 47.490804
C 218.088028 47.960865 218.274785 48.411736 218.607168 48.744119
C 218.93955 49.076501 219.390421 49.263258 219.860482 49.263258
z
" style="stroke:#000000;stroke-width:0.886227;"/>
    <path clip-path="url(#p45fc243ff5)" d="M 197.973658 113.446115
C 198.443719 113.446115 198.89459 113.259358 199.226973 112.926976
C 199.559355 112.594593 199.746112 112.143722 199.746112 111.673662
C 199.746112 111.203601 199.559355 110.75273 199.226973 110.420347
C 198.89459 110.087965 198.443719 109.901208 197.973658 109.901208
C 197.503598 109.901208 197.052727 110.087965 196.720344 110.420347
C 196.387961 110.75273 196.201205 111.203601 196.201205 111.673662
C 196.201205 112.143722 196.387961 112.594593 196.720344 112.926976
C 197.052727 113.259358 197.503598 113.446115 197.973658 113.446115
z
" style="stroke:#000000;stroke-width:0.886227;"/>
    <path clip-path="url(#p45fc243ff5)" d="M 321.99899 231.937544
C 322.469051 231.937544 322.919922 231.750787 323.252304 231.418404
C 323.584687 231.086021 323.771444 230.63515 323.771444 230.16509
C 323.771444 229.69503 323.584687 229.244159 323.252304 228.911776
C 322.919922 228.579393 322.469051 228.392636 321.99899 228.392636
C 321.52893 228.392636 321.078059 228.579393 320.745676 228.911776
C 320.413293 229.244159 320.226537 229.69503 320.226537 230.16509
C 320.226537 230.63515 320.413293 231.086021 320.745676 231.418404
C 321.078059 231.750787 321.52893 231.937544 321.99899 231.937544
z
" style="stroke:#000000;stroke-width:0.886227;"/>
    <path clip-path="url(#p45fc243ff5)" d="M 270.929736 256.623258
C 271.399796 256.623258 271.850667 256.436501 272.18305 256.104119
C 272.515433 255.771736 272.70219 255.320865 272.70219 254.850804
C 272.70219 254.380744 272.515433 253.929873 272.18305 253.59749
C 271.850667 253.265107 271.399796 253.078351 270.929736 253.078351
C 270.459676 253.078351 270.008805 253.265107 269.676422 253.59749
C 269.344039 253.929873 269.157282 254.380744 269.157282 254.850804
C 269.157282 255.320865 269.344039 255.771736 269.676422 256.104119
C 270.008805 256.436501 270.459676 256.623258 270.929736 256.623258
z
" style="stroke:#000000;stroke-width:0.886227;"/>
    <path clip-path="url(#p45fc243ff5)" d="M 110.426365 192.440401
C 110.896425 192.440401 111.347297 192.253644 111.679679 191.921261
C 112.012062 191.588879 112.198819 191.138008 112.198819 190.667947
C 112.198819 190.197887 112.012062 189.747016 111.679679 189.414633
C 111.347297 189.08225 110.896425 188.895493 110.426365 188.895493
C 109.956305 188.895493 109.505434 189.08225 109.173051 189.414633
C 108.840668 189.747016 108.653911 190.197887 108.653911 190.667947
C 108.653911 191.138008 108.840668 191.588879 109.173051 191.921261
C 109.505434 192.253644 109.956305 192.440401 110.426365 192.440401
z
" style="stroke:#000000;stroke-width:0.886227;"/>
    <path clip-path="url(#p45fc243ff5)" d="M 63.004915 227.000401
C 63.474975 227.000401 63.925846 226.813644 64.258229 226.481261
C 64.590612 226.148879 64.777369 225.698008 64.777369 225.227947
C 64.777369 224.757887 64.590612 224.307016 64.258229 223.974633
C 63.925846 223.64225 63.474975 223.455493 63.004915 223.455493
C 62.534855 223.455493 62.083983 223.64225 61.751601 223.974633
C 61.419218 224.307016 61.232461 224.757887 61.232461 225.227947
C 61.232461 225.698008 61.419218 226.148879 61.751601 226.481261
C 62.083983 226.813644 62.534855 227.000401 63.004915 227.000401
z
" style="stroke:#000000;stroke-width:0.886227;"/>
    <path clip-path="url(#p45fc243ff5)" d="M 161.49562 88.760401
C 161.96568 88.760401 162.416551 88.573644 162.748934 88.241261
C 163.081317 87.908879 163.268073 87.458008 163.268073 86.987947
C 163.268073 86.517887 163.081317 86.067016 162.748934 85.734633
C 162.416551 85.40225 161.96568 85.215493 161.49562 85.215493
C 161.025559 85.215493 160.574688 85.40225 160.242305 85.734633
C 159.909923 86.067016 159.723166 86.517887 159.723166 86.987947
C 159.723166 87.458008 159.909923 87.908879 160.242305 88.241261
C 160.574688 88.573644 161.025559 88.760401 161.49562 88.760401
z
" style="stroke:#000000;stroke-width:0.886227;"/>
    <path clip-path="url(#p45fc243ff5)" d="M 307.407775 44.326115
C 307.877835 44.326115 308.328706 44.139358 308.661089 43.806976
C 308.993472 43.474593 309.180229 43.023722 309.180229 42.553662
C 309.180229 42.083601 308.993472 41.63273 308.661089 41.300347
C 308.328706 40.967965 307.877835 40.781208 307.407775 40.781208
C 306.937715 40.781208 306.486843 40.967965 306.154461 41.300347
C 305.822078 41.63273 305.635321 42.083601 305.635321 42.553662
C 305.635321 43.023722 305.822078 43.474593 306.154461 43.806976
C 306.486843 44.139358 306.937715 44.326115 307.407775 44.326115
z
" style="stroke:#000000;stroke-width:0.886227;"/>
    <path clip-path="url(#p45fc243ff5)" d="M 329.294598 207.25183
C 329.764658 207.25183 330.215529 207.065073 330.547912 206.73269
C 330.880295 206.400307 331.067052 205.949436 331.067052 205.479376
C 331.067052 205.009316 330.880295 204.558444 330.547912 204.226062
C 330.215529 203.893679 329.764658 203.706922 329.294598 203.706922
C 328.824538 203.706922 328.373667 203.893679 328.041284 204.226062
C 327.708901 204.558444 327.522144 205.009316 327.522144 205.479376
C 327.522144 205.949436 327.708901 206.400307 328.041284 206.73269
C 328.373667 207.065073 328.824538 207.25183 329.294598 207.25183
z
" style="stroke:#000000;stroke-width:0.886227;"/>
   </g>
  </g>
  <g id="text_13">
   <!-- GSEA vs CAMERA pathway ranking -->
   <defs>
    <path d="M 2.984375 54.6875
L 12.5 54.6875
L 29.59375 8.796875
L 46.6875 54.6875
L 56.203125 54.6875
L 35.6875 0
L 23.484375 0
z
" id="DejaVuSans-118"/>
    <path d="M 44.28125 53.078125
L 44.28125 44.578125
Q 40.484375 46.53125 36.375 47.5
Q 32.28125 48.484375 27.875 48.484375
Q 21.1875 48.484375 17.84375 46.4375
Q 14.5 44.390625 14.5 40.28125
Q 14.5 37.15625 16.890625 35.375
Q 19.28125 33.59375 26.515625 31.984375
L 29.59375 31.296875
Q 39.15625 29.25 43.1875 25.515625
Q 47.21875 21.78125 47.21875 15.09375
Q 47.21875 7.46875 41.1875 3.015625
Q 35.15625 -1.421875 24.609375 -1.421875
Q 20.21875 -1.421875 15.453125 -0.5625
Q 10.6875 0.296875 5.421875 2
L 5.421875 11.28125
Q 10.40625 8.6875 15.234375 7.390625
Q 20.0625 6.109375 24.8125 6.109375
Q 31.15625 6.109375 34.5625 8.28125
Q 37.984375 10.453125 37.984375 14.40625
Q 37.984375 18.0625 35.515625 20.015625
Q 33.0625 21.96875 24.703125 23.78125
L 21.578125 24.515625
Q 13.234375 26.265625 9.515625 29.90625
Q 5.8125 33.546875 5.8125 39.890625
Q 5.8125 47.609375 11.28125 51.796875
Q 16.75 56 26.8125 56
Q 31.78125 56 36.171875 55.265625
Q 40.578125 54.546875 44.28125 53.078125
z
" id="DejaVuSans-115"/>
   </defs>
   <g transform="translate(88.741719 11.397656)scale(0.15 -0.15)">
    <use xlink:href="#DejaVuSans-71"/>
    <use x="77.490234" xlink:href="#DejaVuSans-83"/>
    <use x="140.966797" xlink:href="#DejaVuSans-69"/>
    <use x="204.150391" xlink:href="#DejaVuSans-65"/>
    <use x="272.558594" xlink:href="#DejaVuSans-32"/>
    <use x="304.345703" xlink:href="#DejaVuSans-118"/>
    <use x="363.525391" xlink:href="#DejaVuSans-115"/>
    <use x="415.625" xlink:href="#DejaVuSans-32"/>
    <use x="447.412109" xlink:href="#DejaVuSans-67"/>
    <use x="517.236328" xlink:href="#DejaVuSans-65"/>
    <use x="585.644531" xlink:href="#DejaVuSans-77"/>
    <use x="671.923828" xlink:href="#DejaVuSans-69"/>
    <use x="735.107422" xlink:href="#DejaVuSans-82"/>
    <use x="804.527344" xlink:href="#DejaVuSans-65"/>
    <use x="872.935547" xlink:href="#DejaVuSans-32"/>
    <use x="904.722656" xlink:href="#DejaVuSans-112"/>
    <use x="968.199219" xlink:href="#DejaVuSans-97"/>
    <use x="1029.478516" xlink:href="#DejaVuSans-116"/>
    <use x="1068.6875" xlink:href="#DejaVuSans-104"/>
    <use x="1132.066406" xlink:href="#DejaVuSans-119"/>
    <use x="1213.853516" xlink:href="#DejaVuSans-97"/>
    <use x="1275.132812" xlink:href="#DejaVuSans-121"/>
    <use x="1334.3125" xlink:href="#DejaVuSans-32"/>
    <use x="1366.099609" xlink:href="#DejaVuSans-114"/>
    <use x="1407.212891" xlink:href="#DejaVuSans-97"/>
    <use x="1468.492188" xlink:href="#DejaVuSans-110"/>
    <use x="1531.871094" xlink:href="#DejaVuSans-107"/>
    <use x="1589.78125" xlink:href="#DejaVuSans-105"/>
    <use x="1617.564453" xlink:href="#DejaVuSans-110"/>
    <use x="1680.943359" xlink:href="#DejaVuSans-103"/>
   </g>
  </g>
 </g>
 <defs>
  <clipPath id="p45fc243ff5">
   <rect height="266.112" width="357.12" x="46.772188" y="20.583376"/>
  </clipPath>
 </defs>
</svg>
