<?xml version="1.0" encoding="utf-8" standalone="no"?>
<!DOCTYPE svg PUBLIC "-//W3C//DTD SVG 1.1//EN"
  "http://www.w3.org/Graphics/SVG/1.1/DTD/svg11.dtd">
<!-- Created with matplotlib (https://matplotlib.org/) -->
<svg height="322.19272pt" version="1.1" viewBox="0 0 406.642188 322.19272" width="406.642188pt" xmlns="http://www.w3.org/2000/svg" xmlns:xlink="http://www.w3.org/1999/xlink">
 <defs>
  <style type="text/css">
*{stroke-linecap:butt;stroke-linejoin:round;}
  </style>
 </defs>
 <g id="figure_1">
  <g id="patch_1">
   <path d="M 0 322.19272
L 406.642188 322.19272
L 406.642188 0
L 0 0
z
" style="fill:#ffffff;stroke:#ffffff;stroke-linejoin:miter;"/>
  </g>
  <g id="axes_1">
   <g id="patch_2">
    <path d="M 46.772188 286.711782
L 403.892188 286.711782
L 403.892188 20.599782
L 46.772188 20.599782
z
" style="fill:none;"/>
   </g>
   <g id="matplotlib.axis_1">
    <g id="xtick_1">
     <g id="line2d_1">
      <path clip-path="url(#p8c2378a7e9)" d="M 63.004915 286.711782
L 63.004915 20.599782
" style="fill:none;stroke:#e5e5e5;stroke-width:0.8;"/>
     </g>
     <g id="line2d_2">
      <path d="M 63.004915 286.711782
" style="fill:none;stroke:#000000;stroke-width:1.5;"/>
      <defs>
       <path d="M 0 0
L 0 2.75
" id="macb64fb151" style="stroke:#000000;"/>
      </defs>
      <g>
       <use style="stroke:#000000;" x="63.004915" xlink:href="#macb64fb151" y="286.711782"/>
      </g>
     </g>
     <g id="text_1">
      <!-- 0 -->
      <defs>
       <path d="M 31.78125 66.40625
Q 24.171875 66.40625 20.328125 58.90625
Q 16.5 51.421875 16.5 36.375
Q 16.5 21.390625 20.328125 13.890625
Q 24.171875 6.390625 31.78125 6.390625
Q 39.453125 6.390625 43.28125 13.890625
Q 47.125 21.390625 47.125 36.375
Q 47.125 51.421875 43.28125 58.90625
Q 39.453125 66.40625 31.78125 66.40625
z
M 31.78125 74.21875
Q 44.046875 74.21875 50.515625 64.515625
Q 56.984375 54.828125 56.984375 36.375
Q 56.984375 17.96875 50.515625 8.265625
Q 44.046875 -1.421875 31.78125 -1.421875
Q 19.53125 -1.421875 13.0625 8.265625
Q 6.59375 17.96875 6.59375 36.375
Q 6.59375 54.828125 13.0625 64.515625
Q 19.53125 74.21875 31.78125 74.21875
z
" id="DejaVuSans-48"/>
      </defs>
      <g style="fill:#4d4d4d;" transform="translate(59.187415 300.779907)scale(0.12 -0.12)">
       <use xlink:href="#DejaVuSans-48"/>
      </g>
     </g>
    </g>
    <g id="xtick_2">
     <g id="line2d_3">
      <path clip-path="url(#p8c2378a7e9)" d="M 144.168551 286.711782
L 144.168551 20.599782
" style="fill:none;stroke:#e5e5e5;stroke-width:0.8;"/>
     </g>
     <g id="line2d_4">
      <path d="M 144.168551 286.711782
" style="fill:none;stroke:#000000;stroke-width:1.5;"/>
      <g>
       <use style="stroke:#000000;" x="144.168551" xlink:href="#macb64fb151" y="286.711782"/>
      </g>
     </g>
     <g id="text_2">
      <!-- 25 -->
      <defs>
       <path d="M 19.1875 8.296875
L 53.609375 8.296875
L 53.609375 0
L 7.328125 0
L 7.328125 8.296875
Q 12.9375 14.109375 22.625 23.890625
Q 32.328125 33.6875 34.8125 36.53125
Q 39.546875 41.84375 41.421875 45.53125
Q 43.3125 49.21875 43.3125 52.78125
Q 43.3125 58.59375 39.234375 62.25
Q 35.15625 65.921875 28.609375 65.921875
Q 23.96875 65.921875 18.8125 64.3125
Q 13.671875 62.703125 7.8125 59.421875
L 7.8125 69.390625
Q 13.765625 71.78125 18.9375 73
Q 24.125 74.21875 28.421875 74.21875
Q 39.75 74.21875 46.484375 68.546875
Q 53.21875 62.890625 53.21875 53.421875
Q 53.21875 48.921875 51.53125 44.890625
Q 49.859375 40.875 45.40625 35.40625
Q 44.1875 33.984375 37.640625 27.21875
Q 31.109375 20.453125 19.1875 8.296875
z
" id="DejaVuSans-50"/>
       <path d="M 10.796875 72.90625
L 49.515625 72.90625
L 49.515625 64.59375
L 19.828125 64.59375
L 19.828125 46.734375
Q 21.96875 47.46875 24.109375 47.828125
Q 26.265625 48.1875 28.421875 48.1875
Q 40.625 48.1875 47.75 41.5
Q 54.890625 34.8125 54.890625 23.390625
Q 54.890625 11.625 47.5625 5.09375
Q 40.234375 -1.421875 26.90625 -1.421875
Q 22.3125 -1.421875 17.546875 -0.640625
Q 12.796875 0.140625 7.71875 1.703125
L 7.71875 11.625
Q 12.109375 9.234375 16.796875 8.0625
Q 21.484375 6.890625 26.703125 6.890625
Q 35.15625 6.890625 40.078125 11.328125
Q 45.015625 15.765625 45.015625 23.390625
Q 45.015625 31 40.078125 35.4375
Q 35.15625 39.890625 26.703125 39.890625
Q 22.75 39.890625 18.8125 39.015625
Q 14.890625 38.140625 10.796875 36.28125
z
" id="DejaVuSans-53"/>
      </defs>
      <g style="fill:#4d4d4d;" transform="translate(136.533551 300.779907)scale(0.12 -0.12)">
       <use xlink:href="#DejaVuSans-50"/>
       <use x="63.623047" xlink:href="#DejaVuSans-53"/>
      </g>
     </g>
    </g>
    <g id="xtick_3">
     <g id="line2d_5">
      <path clip-path="url(#p8c2378a7e9)" d="M 225.332188 286.711782
L 225.332188 20.599782
" style="fill:none;stroke:#e5e5e5;stroke-width:0.8;"/>
     </g>
     <g id="line2d_6">
      <path d="M 225.332188 286.711782
" style="fill:none;stroke:#000000;stroke-width:1.5;"/>
      <g>
       <use style="stroke:#000000;" x="225.332188" xlink:href="#macb64fb151" y="286.711782"/>
      </g>
     </g>
     <g id="text_3">
      <!-- 50 -->
      <g style="fill:#4d4d4d;" transform="translate(217.697188 300.779907)scale(0.12 -0.12)">
       <use xlink:href="#DejaVuSans-53"/>
       <use x="63.623047" xlink:href="#DejaVuSans-48"/>
      </g>
     </g>
    </g>
    <g id="xtick_4">
     <g id="line2d_7">
      <path clip-path="url(#p8c2378a7e9)" d="M 306.495824 286.711782
L 306.495824 20.599782
" style="fill:none;stroke:#e5e5e5;stroke-width:0.8;"/>
     </g>
     <g id="line2d_8">
      <path d="M 306.495824 286.711782
" style="fill:none;stroke:#000000;stroke-width:1.5;"/>
      <g>
       <use style="stroke:#000000;" x="306.495824" xlink:href="#macb64fb151" y="286.711782"/>
      </g>
     </g>
     <g id="text_4">
      <!-- 75 -->
      <defs>
       <path d="M 8.203125 72.90625
L 55.078125 72.90625
L 55.078125 68.703125
L 28.609375 0
L 18.3125 0
L 43.21875 64.59375
L 8.203125 64.59375
z
" id="DejaVuSans-55"/>
      </defs>
      <g style="fill:#4d4d4d;" transform="translate(298.860824 300.779907)scale(0.12 -0.12)">
       <use xlink:href="#DejaVuSans-55"/>
       <use x="63.623047" xlink:href="#DejaVuSans-53"/>
      </g>
     </g>
    </g>
    <g id="xtick_5">
     <g id="line2d_9">
      <path clip-path="url(#p8c2378a7e9)" d="M 387.65946 286.711782
L 387.65946 20.599782
" style="fill:none;stroke:#e5e5e5;stroke-width:0.8;"/>
     </g>
     <g id="line2d_10">
      <path d="M 387.65946 286.711782
" style="fill:none;stroke:#000000;stroke-width:1.5;"/>
      <g>
       <use style="stroke:#000000;" x="387.65946" xlink:href="#macb64fb151" y="286.711782"/>
      </g>
     </g>
     <g id="text_5">
      <!-- 100 -->
      <defs>
       <path d="M 12.40625 8.296875
L 28.515625 8.296875
L 28.515625 63.921875
L 10.984375 60.40625
L 10.984375 69.390625
L 28.421875 72.90625
L 38.28125 72.90625
L 38.28125 8.296875
L 54.390625 8.296875
L 54.390625 0
L 12.40625 0
z
" id="DejaVuSans-49"/>
      </defs>
      <g style="fill:#4d4d4d;" transform="translate(376.20696 300.779907)scale(0.12 -0.12)">
       <use xlink:href="#DejaVuSans-49"/>
       <use x="63.623047" xlink:href="#DejaVuSans-48"/>
       <use x="127.246094" xlink:href="#DejaVuSans-48"/>
      </g>
     </g>
    </g>
    <g id="xtick_6">
     <g id="line2d_11">
      <path clip-path="url(#p8c2378a7e9)" d="M 103.586733 286.711782
L 103.586733 20.599782
" style="fill:none;stroke:#fafafa;"/>
     </g>
     <g id="line2d_12">
      <path d="M 103.586733 286.711782
" style="fill:none;stroke:#000000;stroke-width:1.5;"/>
     </g>
    </g>
    <g id="xtick_7">
     <g id="line2d_13">
      <path clip-path="url(#p8c2378a7e9)" d="M 184.750369 286.711782
L 184.750369 20.599782
" style="fill:none;stroke:#fafafa;"/>
     </g>
     <g id="line2d_14">
      <path d="M 184.750369 286.711782
" style="fill:none;stroke:#000000;stroke-width:1.5;"/>
     </g>
    </g>
    <g id="xtick_8">
     <g id="line2d_15">
      <path clip-path="url(#p8c2378a7e9)" d="M 265.914006 286.711782
L 265.914006 20.599782
" style="fill:none;stroke:#fafafa;"/>
     </g>
     <g id="line2d_16">
      <path d="M 265.914006 286.711782
" style="fill:none;stroke:#000000;stroke-width:1.5;"/>
     </g>
    </g>
    <g id="xtick_9">
     <g id="line2d_17">
      <path clip-path="url(#p8c2378a7e9)" d="M 347.077642 286.711782
L 347.077642 20.599782
" style="fill:none;stroke:#fafafa;"/>
     </g>
     <g id="line2d_18">
      <path d="M 347.077642 286.711782
" style="fill:none;stroke:#000000;stroke-width:1.5;"/>
     </g>
    </g>
    <g id="text_6">
     <!-- GSEA pathway ranking -->
     <defs>
      <path d="M 59.515625 10.40625
L 59.515625 29.984375
L 43.40625 29.984375
L 43.40625 38.09375
L 69.28125 38.09375
L 69.28125 6.78125
Q 63.578125 2.734375 56.6875 0.65625
Q 49.8125 -1.421875 42 -1.421875
Q 24.90625 -1.421875 15.25 8.5625
Q 5.609375 18.5625 5.609375 36.375
Q 5.609375 54.25 15.25 64.234375
Q 24.90625 74.21875 42 74.21875
Q 49.125 74.21875 55.546875 72.453125
Q 61.96875 70.703125 67.390625 67.28125
L 67.390625 56.78125
Q 61.921875 61.421875 55.765625 63.765625
Q 49.609375 66.109375 42.828125 66.109375
Q 29.4375 66.109375 22.71875 58.640625
Q 16.015625 51.171875 16.015625 36.375
Q 16.015625 21.625 22.71875 14.15625
Q 29.4375 6.6875 42.828125 6.6875
Q 48.046875 6.6875 52.140625 7.59375
Q 56.25 8.5 59.515625 10.40625
z
" id="DejaVuSans-71"/>
      <path d="M 53.515625 70.515625
L 53.515625 60.890625
Q 47.90625 63.578125 42.921875 64.890625
Q 37.9375 66.21875 33.296875 66.21875
Q 25.25 66.21875 20.875 63.09375
Q 16.5 59.96875 16.5 54.203125
Q 16.5 49.359375 19.40625 46.890625
Q 22.3125 44.4375 30.421875 42.921875
L 36.375 41.703125
Q 47.40625 39.59375 52.65625 34.296875
Q 57.90625 29 57.90625 20.125
Q 57.90625 9.515625 50.796875 4.046875
Q 43.703125 -1.421875 29.984375 -1.421875
Q 24.8125 -1.421875 18.96875 -0.25
Q 13.140625 0.921875 6.890625 3.21875
L 6.890625 13.375
Q 12.890625 10.015625 18.65625 8.296875
Q 24.421875 6.59375 29.984375 6.59375
Q 38.421875 6.59375 43.015625 9.90625
Q 47.609375 13.234375 47.609375 19.390625
Q 47.609375 24.75 44.3125 27.78125
Q 41.015625 30.8125 33.5 32.328125
L 27.484375 33.5
Q 16.453125 35.6875 11.515625 40.375
Q 6.59375 45.0625 6.59375 53.421875
Q 6.59375 63.09375 13.40625 68.65625
Q 20.21875 74.21875 32.171875 74.21875
Q 37.3125 74.21875 42.625 73.28125
Q 47.953125 72.359375 53.515625 70.515625
z
" id="DejaVuSans-83"/>
      <path d="M 9.8125 72.90625
L 55.90625 72.90625
L 55.90625 64.59375
L 19.671875 64.59375
L 19.671875 43.015625
L 54.390625 43.015625
L 54.390625 34.71875
L 19.671875 34.71875
L 19.671875 8.296875
L 56.78125 8.296875
L 56.78125 0
L 9.8125 0
z
" id="DejaVuSans-69"/>
      <path d="M 34.1875 63.1875
L 20.796875 26.90625
L 47.609375 26.90625
z
M 28.609375 72.90625
L 39.796875 72.90625
L 67.578125 0
L 57.328125 0
L 50.6875 18.703125
L 17.828125 18.703125
L 11.1875 0
L 0.78125 0
z
" id="DejaVuSans-65"/>
      <path id="DejaVuSans-32"/>
      <path d="M 18.109375 8.203125
L 18.109375 -20.796875
L 9.078125 -20.796875
L 9.078125 54.6875
L 18.109375 54.6875
L 18.109375 46.390625
Q 20.953125 51.265625 25.265625 53.625
Q 29.59375 56 35.59375 56
Q 45.5625 56 51.78125 48.09375
Q 58.015625 40.1875 58.015625 27.296875
Q 58.015625 14.40625 51.78125 6.484375
Q 45.5625 -1.421875 35.59375 -1.421875
Q 29.59375 -1.421875 25.265625 0.953125
Q 20.953125 3.328125 18.109375 8.203125
z
M 48.6875 27.296875
Q 48.6875 37.203125 44.609375 42.84375
Q 40.53125 48.484375 33.40625 48.484375
Q 26.265625 48.484375 22.1875 42.84375
Q 18.109375 37.203125 18.109375 27.296875
Q 18.109375 17.390625 22.1875 11.75
Q 26.265625 6.109375 33.40625 6.109375
Q 40.53125 6.109375 44.609375 11.75
Q 48.6875 17.390625 48.6875 27.296875
z
" id="DejaVuSans-112"/>
      <path d="M 34.28125 27.484375
Q 23.390625 27.484375 19.1875 25
Q 14.984375 22.515625 14.984375 16.5
Q 14.984375 11.71875 18.140625 8.90625
Q 21.296875 6.109375 26.703125 6.109375
Q 34.1875 6.109375 38.703125 11.40625
Q 43.21875 16.703125 43.21875 25.484375
L 43.21875 27.484375
z
M 52.203125 31.203125
L 52.203125 0
L 43.21875 0
L 43.21875 8.296875
Q 40.140625 3.328125 35.546875 0.953125
Q 30.953125 -1.421875 24.3125 -1.421875
Q 15.921875 -1.421875 10.953125 3.296875
Q 6 8.015625 6 15.921875
Q 6 25.140625 12.171875 29.828125
Q 18.359375 34.515625 30.609375 34.515625
L 43.21875 34.515625
L 43.21875 35.40625
Q 43.21875 41.609375 39.140625 45
Q 35.0625 48.390625 27.6875 48.390625
Q 23 48.390625 18.546875 47.265625
Q 14.109375 46.140625 10.015625 43.890625
L 10.015625 52.203125
Q 14.9375 54.109375 19.578125 55.046875
Q 24.21875 56 28.609375 56
Q 40.484375 56 46.34375 49.84375
Q 52.203125 43.703125 52.203125 31.203125
z
" id="DejaVuSans-97"/>
      <path d="M 18.3125 70.21875
L 18.3125 54.6875
L 36.8125 54.6875
L 36.8125 47.703125
L 18.3125 47.703125
L 18.3125 18.015625
Q 18.3125 11.328125 20.140625 9.421875
Q 21.96875 7.515625 27.59375 7.515625
L 36.8125 7.515625
L 36.8125 0
L 27.59375 0
Q 17.1875 0 13.234375 3.875
Q 9.28125 7.765625 9.28125 18.015625
L 9.28125 47.703125
L 2.6875 47.703125
L 2.6875 54.6875
L 9.28125 54.6875
L 9.28125 70.21875
z
" id="DejaVuSans-116"/>
      <path d="M 54.890625 33.015625
L 54.890625 0
L 45.90625 0
L 45.90625 32.71875
Q 45.90625 40.484375 42.875 44.328125
Q 39.84375 48.1875 33.796875 48.1875
Q 26.515625 48.1875 22.3125 43.546875
Q 18.109375 38.921875 18.109375 30.90625
L 18.109375 0
L 9.078125 0
L 9.078125 75.984375
L 18.109375 75.984375
L 18.109375 46.1875
Q 21.34375 51.125 25.703125 53.5625
Q 30.078125 56 35.796875 56
Q 45.21875 56 50.046875 50.171875
Q 54.890625 44.34375 54.890625 33.015625
z
" id="DejaVuSans-104"/>
      <path d="M 4.203125 54.6875
L 13.1875 54.6875
L 24.421875 12.015625
L 35.59375 54.6875
L 46.1875 54.6875
L 57.421875 12.015625
L 68.609375 54.6875
L 77.59375 54.6875
L 63.28125 0
L 52.6875 0
L 40.921875 44.828125
L 29.109375 0
L 18.5 0
z
" id="DejaVuSans-119"/>
      <path d="M 32.171875 -5.078125
Q 28.375 -14.84375 24.75 -17.8125
Q 21.140625 -20.796875 15.09375 -20.796875
L 7.90625 -20.796875
L 7.90625 -13.28125
L 13.1875 -13.28125
Q 16.890625 -13.28125 18.9375 -11.515625
Q 21 -9.765625 23.484375 -3.21875
L 25.09375 0.875
L 2.984375 54.6875
L 12.5 54.6875
L 29.59375 11.921875
L 46.6875 54.6875
L 56.203125 54.6875
z
" id="DejaVuSans-121"/>
      <path d="M 41.109375 46.296875
Q 39.59375 47.171875 37.8125 47.578125
Q 36.03125 48 33.890625 48
Q 26.265625 48 22.1875 43.046875
Q 18.109375 38.09375 18.109375 28.8125
L 18.109375 0
L 9.078125 0
L 9.078125 54.6875
L 18.109375 54.6875
L 18.109375 46.1875
Q 20.953125 51.171875 25.484375 53.578125
Q 30.03125 56 36.53125 56
Q 37.453125 56 38.578125 55.875
Q 39.703125 55.765625 41.0625 55.515625
z
" id="DejaVuSans-114"/>
      <path d="M 54.890625 33.015625
L 54.890625 0
L 45.90625 0
L 45.90625 32.71875
Q 45.90625 40.484375 42.875 44.328125
Q 39.84375 48.1875 33.796875 48.1875
Q 26.515625 48.1875 22.3125 43.546875
Q 18.109375 38.921875 18.109375 30.90625
L 18.109375 0
L 9.078125 0
L 9.078125 54.6875
L 18.109375 54.6875
L 18.109375 46.1875
Q 21.34375 51.125 25.703125 53.5625
Q 30.078125 56 35.796875 56
Q 45.21875 56 50.046875 50.171875
Q 54.890625 44.34375 54.890625 33.015625
z
" id="DejaVuSans-110"/>
      <path d="M 9.078125 75.984375
L 18.109375 75.984375
L 18.109375 31.109375
L 44.921875 54.6875
L 56.390625 54.6875
L 27.390625 29.109375
L 57.625 0
L 45.90625 0
L 18.109375 26.703125
L 18.109375 0
L 9.078125 0
z
" id="DejaVuSans-107"/>
      <path d="M 9.421875 54.6875
L 18.40625 54.6875
L 18.40625 0
L 9.421875 0
z
M 9.421875 75.984375
L 18.40625 75.984375
L 18.40625 64.59375
L 9.421875 64.59375
z
" id="DejaVuSans-105"/>
      <path d="M 45.40625 27.984375
Q 45.40625 37.75 41.375 43.109375
Q 37.359375 48.484375 30.078125 48.484375
Q 22.859375 48.484375 18.828125 43.109375
Q 14.796875 37.75 14.796875 27.984375
Q 14.796875 18.265625 18.828125 12.890625
Q 22.859375 7.515625 30.078125 7.515625
Q 37.359375 7.515625 41.375 12.890625
Q 45.40625 18.265625 45.40625 27.984375
z
M 54.390625 6.78125
Q 54.390625 -7.171875 48.1875 -13.984375
Q 42 -20.796875 29.203125 -20.796875
Q 24.46875 -20.796875 20.265625 -20.09375
Q 16.0625 -19.390625 12.109375 -17.921875
L 12.109375 -9.1875
Q 16.0625 -11.328125 19.921875 -12.34375
Q 23.78125 -13.375 27.78125 -13.375
Q 36.625 -13.375 41.015625 -8.765625
Q 45.40625 -4.15625 45.40625 5.171875
L 45.40625 9.625
Q 42.625 4.78125 38.28125 2.390625
Q 33.9375 0 27.875 0
Q 17.828125 0 11.671875 7.65625
Q 5.515625 15.328125 5.515625 27.984375
Q 5.515625 40.671875 11.671875 48.328125
Q 17.828125 56 27.875 56
Q 33.9375 56 38.28125 53.609375
Q 42.625 51.21875 45.40625 46.390625
L 45.40625 54.6875
L 54.390625 54.6875
z
" id="DejaVuSans-103"/>
     </defs>
     <g transform="translate(133.769844 319.073188)scale(0.15 -0.15)">
      <use xlink:href="#DejaVuSans-71"/>
      <use x="77.490234" xlink:href="#DejaVuSans-83"/>
      <use x="140.966797" xlink:href="#DejaVuSans-69"/>
      <use x="204.150391" xlink:href="#DejaVuSans-65"/>
      <use x="272.558594" xlink:href="#DejaVuSans-32"/>
      <use x="304.345703" xlink:href="#DejaVuSans-112"/>
      <use x="367.822266" xlink:href="#DejaVuSans-97"/>
      <use x="429.101562" xlink:href="#DejaVuSans-116"/>
      <use x="468.310547" xlink:href="#DejaVuSans-104"/>
      <use x="531.689453" xlink:href="#DejaVuSans-119"/>
      <use x="613.476562" xlink:href="#DejaVuSans-97"/>
      <use x="674.755859" xlink:href="#DejaVuSans-121"/>
      <use x="733.935547" xlink:href="#DejaVuSans-32"/>
      <use x="765.722656" xlink:href="#DejaVuSans-114"/>
      <use x="806.835938" xlink:href="#DejaVuSans-97"/>
      <use x="868.115234" xlink:href="#DejaVuSans-110"/>
      <use x="931.494141" xlink:href="#DejaVuSans-107"/>
      <use x="989.404297" xlink:href="#DejaVuSans-105"/>
      <use x="1017.1875" xlink:href="#DejaVuSans-110"/>
      <use x="1080.566406" xlink:href="#DejaVuSans-103"/>
     </g>
    </g>
   </g>
   <g id="matplotlib.axis_2">
    <g id="ytick_1">
     <g id="line2d_19">
      <path clip-path="url(#p8c2378a7e9)" d="M 46.772188 274.615782
L 403.892188 274.615782
" style="fill:none;stroke:#e5e5e5;stroke-width:0.8;"/>
     </g>
     <g id="line2d_20">
      <path d="M 46.772188 274.615782
" style="fill:none;stroke:#000000;stroke-width:1.5;"/>
      <defs>
       <path d="M 0 0
L -2.75 0
" id="m50f7ee6698" style="stroke:#000000;"/>
      </defs>
      <g>
       <use style="stroke:#000000;" x="46.772188" xlink:href="#m50f7ee6698" y="274.615782"/>
      </g>
     </g>
     <g id="text_7">
      <!-- 0 -->
      <g style="fill:#4d4d4d;" transform="translate(34.187188 277.927032)scale(0.12 -0.12)">
       <use xlink:href="#DejaVuSans-48"/>
      </g>
     </g>
    </g>
    <g id="ytick_2">
     <g id="line2d_21">
      <path clip-path="url(#p8c2378a7e9)" d="M 46.772188 214.135782
L 403.892188 214.135782
" style="fill:none;stroke:#e5e5e5;stroke-width:0.8;"/>
     </g>
     <g id="line2d_22">
      <path d="M 46.772188 214.135782
" style="fill:none;stroke:#000000;stroke-width:1.5;"/>
      <g>
       <use style="stroke:#000000;" x="46.772188" xlink:href="#m50f7ee6698" y="214.135782"/>
      </g>
     </g>
     <g id="text_8">
      <!-- 25 -->
      <g style="fill:#4d4d4d;" transform="translate(26.552188 217.447032)scale(0.12 -0.12)">
       <use xlink:href="#DejaVuSans-50"/>
       <use x="63.623047" xlink:href="#DejaVuSans-53"/>
      </g>
     </g>
    </g>
    <g id="ytick_3">
     <g id="line2d_23">
      <path clip-path="url(#p8c2378a7e9)" d="M 46.772188 153.655782
L 403.892188 153.655782
" style="fill:none;stroke:#e5e5e5;stroke-width:0.8;"/>
     </g>
     <g id="line2d_24">
      <path d="M 46.772188 153.655782
" style="fill:none;stroke:#000000;stroke-width:1.5;"/>
      <g>
       <use style="stroke:#000000;" x="46.772188" xlink:href="#m50f7ee6698" y="153.655782"/>
      </g>
     </g>
     <g id="text_9">
      <!-- 50 -->
      <g style="fill:#4d4d4d;" transform="translate(26.552188 156.967032)scale(0.12 -0.12)">
       <use xlink:href="#DejaVuSans-53"/>
       <use x="63.623047" xlink:href="#DejaVuSans-48"/>
      </g>
     </g>
    </g>
    <g id="ytick_4">
     <g id="line2d_25">
      <path clip-path="url(#p8c2378a7e9)" d="M 46.772188 93.175782
L 403.892188 93.175782
" style="fill:none;stroke:#e5e5e5;stroke-width:0.8;"/>
     </g>
     <g id="line2d_26">
      <path d="M 46.772188 93.175782
" style="fill:none;stroke:#000000;stroke-width:1.5;"/>
      <g>
       <use style="stroke:#000000;" x="46.772188" xlink:href="#m50f7ee6698" y="93.175782"/>
      </g>
     </g>
     <g id="text_10">
      <!-- 75 -->
      <g style="fill:#4d4d4d;" transform="translate(26.552188 96.487032)scale(0.12 -0.12)">
       <use xlink:href="#DejaVuSans-55"/>
       <use x="63.623047" xlink:href="#DejaVuSans-53"/>
      </g>
     </g>
    </g>
    <g id="ytick_5">
     <g id="line2d_27">
      <path clip-path="url(#p8c2378a7e9)" d="M 46.772188 32.695782
L 403.892188 32.695782
" style="fill:none;stroke:#e5e5e5;stroke-width:0.8;"/>
     </g>
     <g id="line2d_28">
      <path d="M 46.772188 32.695782
" style="fill:none;stroke:#000000;stroke-width:1.5;"/>
      <g>
       <use style="stroke:#000000;" x="46.772188" xlink:href="#m50f7ee6698" y="32.695782"/>
      </g>
     </g>
     <g id="text_11">
      <!-- 100 -->
      <g style="fill:#4d4d4d;" transform="translate(18.917188 36.007032)scale(0.12 -0.12)">
       <use xlink:href="#DejaVuSans-49"/>
       <use x="63.623047" xlink:href="#DejaVuSans-48"/>
       <use x="127.246094" xlink:href="#DejaVuSans-48"/>
      </g>
     </g>
    </g>
    <g id="ytick_6">
     <g id="line2d_29">
      <path clip-path="url(#p8c2378a7e9)" d="M 46.772188 244.375782
L 403.892188 244.375782
" style="fill:none;stroke:#fafafa;"/>
     </g>
     <g id="line2d_30">
      <path d="M 46.772188 244.375782
" style="fill:none;stroke:#000000;stroke-width:1.5;"/>
     </g>
    </g>
    <g id="ytick_7">
     <g id="line2d_31">
      <path clip-path="url(#p8c2378a7e9)" d="M 46.772188 183.895782
L 403.892188 183.895782
" style="fill:none;stroke:#fafafa;"/>
     </g>
     <g id="line2d_32">
      <path d="M 46.772188 183.895782
" style="fill:none;stroke:#000000;stroke-width:1.5;"/>
     </g>
    </g>
    <g id="ytick_8">
     <g id="line2d_33">
      <path clip-path="url(#p8c2378a7e9)" d="M 46.772188 123.415782
L 403.892188 123.415782
" style="fill:none;stroke:#fafafa;"/>
     </g>
     <g id="line2d_34">
      <path d="M 46.772188 123.415782
" style="fill:none;stroke:#000000;stroke-width:1.5;"/>
     </g>
    </g>
    <g id="ytick_9">
     <g id="line2d_35">
      <path clip-path="url(#p8c2378a7e9)" d="M 46.772188 62.935782
L 403.892188 62.935782
" style="fill:none;stroke:#fafafa;"/>
     </g>
     <g id="line2d_36">
      <path d="M 46.772188 62.935782
" style="fill:none;stroke:#000000;stroke-width:1.5;"/>
     </g>
    </g>
    <g id="text_12">
     <!-- ORA pathway ranking -->
     <defs>
      <path d="M 39.40625 66.21875
Q 28.65625 66.21875 22.328125 58.203125
Q 16.015625 50.203125 16.015625 36.375
Q 16.015625 22.609375 22.328125 14.59375
Q 28.65625 6.59375 39.40625 6.59375
Q 50.140625 6.59375 56.421875 14.59375
Q 62.703125 22.609375 62.703125 36.375
Q 62.703125 50.203125 56.421875 58.203125
Q 50.140625 66.21875 39.40625 66.21875
z
M 39.40625 74.21875
Q 54.734375 74.21875 63.90625 63.9375
Q 73.09375 53.65625 73.09375 36.375
Q 73.09375 19.140625 63.90625 8.859375
Q 54.734375 -1.421875 39.40625 -1.421875
Q 24.03125 -1.421875 14.8125 8.828125
Q 5.609375 19.09375 5.609375 36.375
Q 5.609375 53.65625 14.8125 63.9375
Q 24.03125 74.21875 39.40625 74.21875
z
" id="DejaVuSans-79"/>
      <path d="M 44.390625 34.1875
Q 47.5625 33.109375 50.5625 29.59375
Q 53.5625 26.078125 56.59375 19.921875
L 66.609375 0
L 56 0
L 46.6875 18.703125
Q 43.0625 26.03125 39.671875 28.421875
Q 36.28125 30.8125 30.421875 30.8125
L 19.671875 30.8125
L 19.671875 0
L 9.8125 0
L 9.8125 72.90625
L 32.078125 72.90625
Q 44.578125 72.90625 50.734375 67.671875
Q 56.890625 62.453125 56.890625 51.90625
Q 56.890625 45.015625 53.6875 40.46875
Q 50.484375 35.9375 44.390625 34.1875
z
M 19.671875 64.796875
L 19.671875 38.921875
L 32.078125 38.921875
Q 39.203125 38.921875 42.84375 42.21875
Q 46.484375 45.515625 46.484375 51.90625
Q 46.484375 58.296875 42.84375 61.546875
Q 39.203125 64.796875 32.078125 64.796875
z
" id="DejaVuSans-82"/>
     </defs>
     <g transform="translate(11.397656 233.528954)rotate(-90)scale(0.15 -0.15)">
      <use xlink:href="#DejaVuSans-79"/>
      <use x="78.710938" xlink:href="#DejaVuSans-82"/>
      <use x="148.130859" xlink:href="#DejaVuSans-65"/>
      <use x="216.539062" xlink:href="#DejaVuSans-32"/>
      <use x="248.326172" xlink:href="#DejaVuSans-112"/>
      <use x="311.802734" xlink:href="#DejaVuSans-97"/>
      <use x="373.082031" xlink:href="#DejaVuSans-116"/>
      <use x="412.291016" xlink:href="#DejaVuSans-104"/>
      <use x="475.669922" xlink:href="#DejaVuSans-119"/>
      <use x="557.457031" xlink:href="#DejaVuSans-97"/>
      <use x="618.736328" xlink:href="#DejaVuSans-121"/>
      <use x="677.916016" xlink:href="#DejaVuSans-32"/>
      <use x="709.703125" xlink:href="#DejaVuSans-114"/>
      <use x="750.816406" xlink:href="#DejaVuSans-97"/>
      <use x="812.095703" xlink:href="#DejaVuSans-110"/>
      <use x="875.474609" xlink:href="#DejaVuSans-107"/>
      <use x="933.384766" xlink:href="#DejaVuSans-105"/>
      <use x="961.167969" xlink:href="#DejaVuSans-110"/>
      <use x="1024.546875" xlink:href="#DejaVuSans-103"/>
     </g>
    </g>
   </g>
   <g id="PathCollection_1">
    <path clip-path="url(#p8c2378a7e9)" d="M 149.57946 180.11395
C 150.04952 180.11395 150.500392 179.927193 150.832774 179.59481
C 151.165157 179.262428 151.351914 178.811557 151.351914 178.341496
C 151.351914 177.871436 151.165157 177.420565 150.832774 177.088182
C 150.500392 176.755799 150.04952 176.569043 149.57946 176.569043
C 149.1094 176.569043 148.658529 176.755799 148.326146 177.088182
C 147.993763 177.420565 147.807006 177.871436 147.807006 178.341496
C 147.807006 178.811557 147.993763 179.262428 148.326146 179.59481
C 148.658529 179.927193 149.1094 180.11395 149.57946 180.11395
z
" style="stroke:#000000;stroke-width:0.886227;"/>
    <path clip-path="url(#p8c2378a7e9)" d="M 63.004915 239.359664
C 63.474975 239.359664 63.925846 239.172908 64.258229 238.840525
C 64.590612 238.508142 64.777369 238.057271 64.777369 237.587211
C 64.777369 237.11715 64.590612 236.666279 64.258229 236.333897
C 63.925846 236.001514 63.474975 235.814757 63.004915 235.814757
C 62.534855 235.814757 62.083983 236.001514 61.751601 236.333897
C 61.419218 236.666279 61.232461 237.11715 61.232461 237.587211
C 61.232461 238.057271 61.419218 238.508142 61.751601 238.840525
C 62.083983 239.172908 62.534855 239.359664 63.004915 239.359664
z
" style="stroke:#000000;stroke-width:0.886227;"/>
    <path clip-path="url(#p8c2378a7e9)" d="M 142.364915 271.451093
C 142.834975 271.451093 143.285846 271.264336 143.618229 270.931953
C 143.950612 270.599571 144.137369 270.148699 144.137369 269.678639
C 144.137369 269.208579 143.950612 268.757708 143.618229 268.425325
C 143.285846 268.092942 142.834975 267.906185 142.364915 267.906185
C 141.894855 267.906185 141.443983 268.092942 141.111601 268.425325
C 140.779218 268.757708 140.592461 269.208579 140.592461 269.678639
C 140.592461 270.148699 140.779218 270.599571 141.111601 270.931953
C 141.443983 271.264336 141.894855 271.451093 142.364915 271.451093
z
" style="stroke:#000000;stroke-width:0.886227;"/>
    <path clip-path="url(#p8c2378a7e9)" d="M 286.655824 69.028236
C 287.125884 69.028236 287.576755 68.841479 287.909138 68.509096
C 288.241521 68.176713 288.428278 67.725842 288.428278 67.255782
C 288.428278 66.785722 288.241521 66.334851 287.909138 66.002468
C 287.576755 65.670085 287.125884 65.483328 286.655824 65.483328
C 286.185764 65.483328 285.734893 65.670085 285.40251 66.002468
C 285.070127 66.334851 284.88337 66.785722 284.88337 67.255782
C 284.88337 67.725842 285.070127 68.176713 285.40251 68.509096
C 285.734893 68.841479 286.185764 69.028236 286.655824 69.028236
z
" style="stroke:#000000;stroke-width:0.886227;"/>
    <path clip-path="url(#p8c2378a7e9)" d="M 373.230369 49.279664
C 373.70043 49.279664 374.151301 49.092908 374.483683 48.760525
C 374.816066 48.428142 375.002823 47.977271 375.002823 47.507211
C 375.002823 47.03715 374.816066 46.586279 374.483683 46.253897
C 374.151301 45.921514 373.70043 45.734757 373.230369 45.734757
C 372.760309 45.734757 372.309438 45.921514 371.977055 46.253897
C 371.644672 46.586279 371.457915 47.03715 371.457915 47.507211
C 371.457915 47.977271 371.644672 48.428142 371.977055 48.760525
C 372.309438 49.092908 372.760309 49.279664 373.230369 49.279664
z
" style="stroke:#000000;stroke-width:0.886227;"/>
    <path clip-path="url(#p8c2378a7e9)" d="M 99.077642 78.902522
C 99.547702 78.902522 99.998573 78.715765 100.330956 78.383382
C 100.663339 78.050999 100.850096 77.600128 100.850096 77.130068
C 100.850096 76.660008 100.663339 76.209136 100.330956 75.876754
C 99.998573 75.544371 99.547702 75.357614 99.077642 75.357614
C 98.607582 75.357614 98.156711 75.544371 97.824328 75.876754
C 97.491945 76.209136 97.305188 76.660008 97.305188 77.130068
C 97.305188 77.600128 97.491945 78.050999 97.824328 78.383382
C 98.156711 78.715765 98.607582 78.902522 99.077642 78.902522
z
" style="stroke:#000000;stroke-width:0.886227;"/>
    <path clip-path="url(#p8c2378a7e9)" d="M 63.004915 123.336807
C 63.474975 123.336807 63.925846 123.15005 64.258229 122.817668
C 64.590612 122.485285 64.777369 122.034414 64.777369 121.564353
C 64.777369 121.094293 64.590612 120.643422 64.258229 120.311039
C 63.925846 119.978657 63.474975 119.7919 63.004915 119.7919
C 62.534855 119.7919 62.083983 119.978657 61.751601 120.311039
C 61.419218 120.643422 61.232461 121.094293 61.232461 121.564353
C 61.232461 122.034414 61.419218 122.485285 61.751601 122.817668
C 62.083983 123.15005 62.534855 123.336807 63.004915 123.336807
z
" style="stroke:#000000;stroke-width:0.886227;"/>
    <path clip-path="url(#p8c2378a7e9)" d="M 171.223097 103.588236
C 171.693157 103.588236 172.144028 103.401479 172.476411 103.069096
C 172.808794 102.736713 172.99555 102.285842 172.99555 101.815782
C 172.99555 101.345722 172.808794 100.894851 172.476411 100.562468
C 172.144028 100.230085 171.693157 100.043328 171.223097 100.043328
C 170.753036 100.043328 170.302165 100.230085 169.969782 100.562468
C 169.6374 100.894851 169.450643 101.345722 169.450643 101.815782
C 169.450643 102.285842 169.6374 102.736713 169.969782 103.069096
C 170.302165 103.401479 170.753036 103.588236 171.223097 103.588236
z
" style="stroke:#000000;stroke-width:0.886227;"/>
    <path clip-path="url(#p8c2378a7e9)" d="M 113.506733 162.83395
C 113.976793 162.83395 114.427664 162.647193 114.760047 162.31481
C 115.09243 161.982428 115.279187 161.531557 115.279187 161.061496
C 115.279187 160.591436 115.09243 160.140565 114.760047 159.808182
C 114.427664 159.475799 113.976793 159.289043 113.506733 159.289043
C 113.036673 159.289043 112.585802 159.475799 112.253419 159.808182
C 111.921036 160.140565 111.734279 160.591436 111.734279 161.061496
C 111.734279 161.531557 111.921036 161.982428 112.253419 162.31481
C 112.585802 162.647193 113.036673 162.83395 113.506733 162.83395
z
" style="stroke:#000000;stroke-width:0.886227;"/>
    <path clip-path="url(#p8c2378a7e9)" d="M 387.65946 34.468236
C 388.12952 34.468236 388.580392 34.281479 388.912774 33.949096
C 389.245157 33.616713 389.431914 33.165842 389.431914 32.695782
C 389.431914 32.225722 389.245157 31.774851 388.912774 31.442468
C 388.580392 31.110085 388.12952 30.923328 387.65946 30.923328
C 387.1894 30.923328 386.738529 31.110085 386.406146 31.442468
C 386.073763 31.774851 385.887006 32.225722 385.887006 32.695782
C 385.887006 33.165842 386.073763 33.616713 386.406146 33.949096
C 386.738529 34.281479 387.1894 34.468236 387.65946 34.468236
z
" style="stroke:#000000;stroke-width:0.886227;"/>
    <path clip-path="url(#p8c2378a7e9)" d="M 228.93946 150.491093
C 229.40952 150.491093 229.860392 150.304336 230.192774 149.971953
C 230.525157 149.639571 230.711914 149.188699 230.711914 148.718639
C 230.711914 148.248579 230.525157 147.797708 230.192774 147.465325
C 229.860392 147.132942 229.40952 146.946185 228.93946 146.946185
C 228.4694 146.946185 228.018529 147.132942 227.686146 147.465325
C 227.353763 147.797708 227.167006 148.248579 227.167006 148.718639
C 227.167006 149.188699 227.353763 149.639571 227.686146 149.971953
C 228.018529 150.304336 228.4694 150.491093 228.93946 150.491093
z
" style="stroke:#000000;stroke-width:0.886227;"/>
    <path clip-path="url(#p8c2378a7e9)" d="M 272.226733 93.71395
C 272.696793 93.71395 273.147664 93.527193 273.480047 93.19481
C 273.81243 92.862428 273.999187 92.411557 273.999187 91.941496
C 273.999187 91.471436 273.81243 91.020565 273.480047 90.688182
C 273.147664 90.355799 272.696793 90.169043 272.226733 90.169043
C 271.756673 90.169043 271.305802 90.355799 270.973419 90.688182
C 270.641036 91.020565 270.454279 91.471436 270.454279 91.941496
C 270.454279 92.411557 270.641036 92.862428 270.973419 93.19481
C 271.305802 93.527193 271.756673 93.71395 272.226733 93.71395
z
" style="stroke:#000000;stroke-width:0.886227;"/>
    <path clip-path="url(#p8c2378a7e9)" d="M 63.004915 150.491093
C 63.474975 150.491093 63.925846 150.304336 64.258229 149.971953
C 64.590612 149.639571 64.777369 149.188699 64.777369 148.718639
C 64.777369 148.248579 64.590612 147.797708 64.258229 147.465325
C 63.925846 147.132942 63.474975 146.946185 63.004915 146.946185
C 62.534855 146.946185 62.083983 147.132942 61.751601 147.465325
C 61.419218 147.797708 61.232461 148.248579 61.232461 148.718639
C 61.232461 149.188699 61.419218 149.639571 61.751601 149.971953
C 62.083983 150.304336 62.534855 150.491093 63.004915 150.491093
z
" style="stroke:#000000;stroke-width:0.886227;"/>
    <path clip-path="url(#p8c2378a7e9)" d="M 120.721278 157.896807
C 121.191339 157.896807 121.64221 157.71005 121.974593 157.377668
C 122.306975 157.045285 122.493732 156.594414 122.493732 156.124353
C 122.493732 155.654293 122.306975 155.203422 121.974593 154.871039
C 121.64221 154.538657 121.191339 154.3519 120.721278 154.3519
C 120.251218 154.3519 119.800347 154.538657 119.467964 154.871039
C 119.135581 155.203422 118.948825 155.654293 118.948825 156.124353
C 118.948825 156.594414 119.135581 157.045285 119.467964 157.377668
C 119.800347 157.71005 120.251218 157.896807 120.721278 157.896807
z
" style="stroke:#000000;stroke-width:0.886227;"/>
    <path clip-path="url(#p8c2378a7e9)" d="M 63.004915 170.239664
C 63.474975 170.239664 63.925846 170.052908 64.258229 169.720525
C 64.590612 169.388142 64.777369 168.937271 64.777369 168.467211
C 64.777369 167.99715 64.590612 167.546279 64.258229 167.213897
C 63.925846 166.881514 63.474975 166.694757 63.004915 166.694757
C 62.534855 166.694757 62.083983 166.881514 61.751601 167.213897
C 61.419218 167.546279 61.232461 167.99715 61.232461 168.467211
C 61.232461 168.937271 61.419218 169.388142 61.751601 169.720525
C 62.083983 170.052908 62.534855 170.239664 63.004915 170.239664
z
" style="stroke:#000000;stroke-width:0.886227;"/>
    <path clip-path="url(#p8c2378a7e9)" d="M 380.444915 39.405379
C 380.914975 39.405379 381.365846 39.218622 381.698229 38.886239
C 382.030612 38.553856 382.217369 38.102985 382.217369 37.632925
C 382.217369 37.162865 382.030612 36.711994 381.698229 36.379611
C 381.365846 36.047228 380.914975 35.860471 380.444915 35.860471
C 379.974855 35.860471 379.523983 36.047228 379.191601 36.379611
C 378.859218 36.711994 378.672461 37.162865 378.672461 37.632925
C 378.672461 38.102985 378.859218 38.553856 379.191601 38.886239
C 379.523983 39.218622 379.974855 39.405379 380.444915 39.405379
z
" style="stroke:#000000;stroke-width:0.886227;"/>
    <path clip-path="url(#p8c2378a7e9)" d="M 63.004915 138.148236
C 63.474975 138.148236 63.925846 137.961479 64.258229 137.629096
C 64.590612 137.296713 64.777369 136.845842 64.777369 136.375782
C 64.777369 135.905722 64.590612 135.454851 64.258229 135.122468
C 63.925846 134.790085 63.474975 134.603328 63.004915 134.603328
C 62.534855 134.603328 62.083983 134.790085 61.751601 135.122468
C 61.419218 135.454851 61.232461 135.905722 61.232461 136.375782
C 61.232461 136.845842 61.419218 137.296713 61.751601 137.629096
C 62.083983 137.961479 62.534855 138.148236 63.004915 138.148236
z
" style="stroke:#000000;stroke-width:0.886227;"/>
    <path clip-path="url(#p8c2378a7e9)" d="M 156.794006 256.639664
C 157.264066 256.639664 157.714937 256.452908 158.04732 256.120525
C 158.379703 255.788142 158.56646 255.337271 158.56646 254.867211
C 158.56646 254.39715 158.379703 253.946279 158.04732 253.613897
C 157.714937 253.281514 157.264066 253.094757 156.794006 253.094757
C 156.323945 253.094757 155.873074 253.281514 155.540692 253.613897
C 155.208309 253.946279 155.021552 254.39715 155.021552 254.867211
C 155.021552 255.337271 155.208309 255.788142 155.540692 256.120525
C 155.873074 256.452908 156.323945 256.639664 156.794006 256.639664
z
" style="stroke:#000000;stroke-width:0.886227;"/>
    <path clip-path="url(#p8c2378a7e9)" d="M 344.372188 54.216807
C 344.842248 54.216807 345.293119 54.03005 345.625502 53.697668
C 345.957884 53.365285 346.144641 52.914414 346.144641 52.444353
C 346.144641 51.974293 345.957884 51.523422 345.625502 51.191039
C 345.293119 50.858657 344.842248 50.6719 344.372188 50.6719
C 343.902127 50.6719 343.451256 50.858657 343.118873 51.191039
C 342.786491 51.523422 342.599734 51.974293 342.599734 52.444353
C 342.599734 52.914414 342.786491 53.365285 343.118873 53.697668
C 343.451256 54.03005 343.902127 54.216807 344.372188 54.216807
z
" style="stroke:#000000;stroke-width:0.886227;"/>
    <path clip-path="url(#p8c2378a7e9)" d="M 221.724915 143.085379
C 222.194975 143.085379 222.645846 142.898622 222.978229 142.566239
C 223.310612 142.233856 223.497369 141.782985 223.497369 141.312925
C 223.497369 140.842865 223.310612 140.391994 222.978229 140.059611
C 222.645846 139.727228 222.194975 139.540471 221.724915 139.540471
C 221.254855 139.540471 220.803983 139.727228 220.471601 140.059611
C 220.139218 140.391994 219.952461 140.842865 219.952461 141.312925
C 219.952461 141.782985 220.139218 142.233856 220.471601 142.566239
C 220.803983 142.898622 221.254855 143.085379 221.724915 143.085379
z
" style="stroke:#000000;stroke-width:0.886227;"/>
    <path clip-path="url(#p8c2378a7e9)" d="M 301.084915 59.15395
C 301.554975 59.15395 302.005846 58.967193 302.338229 58.63481
C 302.670612 58.302428 302.857369 57.851557 302.857369 57.381496
C 302.857369 56.911436 302.670612 56.460565 302.338229 56.128182
C 302.005846 55.795799 301.554975 55.609043 301.084915 55.609043
C 300.614855 55.609043 300.163983 55.795799 299.831601 56.128182
C 299.499218 56.460565 299.312461 56.911436 299.312461 57.381496
C 299.312461 57.851557 299.499218 58.302428 299.831601 58.63481
C 300.163983 58.967193 300.614855 59.15395 301.084915 59.15395
z
" style="stroke:#000000;stroke-width:0.886227;"/>
    <path clip-path="url(#p8c2378a7e9)" d="M 63.004915 207.268236
C 63.474975 207.268236 63.925846 207.081479 64.258229 206.749096
C 64.590612 206.416713 64.777369 205.965842 64.777369 205.495782
C 64.777369 205.025722 64.590612 204.574851 64.258229 204.242468
C 63.925846 203.910085 63.474975 203.723328 63.004915 203.723328
C 62.534855 203.723328 62.083983 203.910085 61.751601 204.242468
C 61.419218 204.574851 61.232461 205.025722 61.232461 205.495782
C 61.232461 205.965842 61.419218 206.416713 61.751601 206.749096
C 62.083983 207.081479 62.534855 207.268236 63.004915 207.268236
z
" style="stroke:#000000;stroke-width:0.886227;"/>
    <path clip-path="url(#p8c2378a7e9)" d="M 243.368551 133.211093
C 243.838611 133.211093 244.289482 133.024336 244.621865 132.691953
C 244.954248 132.359571 245.141005 131.908699 245.141005 131.438639
C 245.141005 130.968579 244.954248 130.517708 244.621865 130.185325
C 244.289482 129.852942 243.838611 129.666185 243.368551 129.666185
C 242.898491 129.666185 242.44762 129.852942 242.115237 130.185325
C 241.782854 130.517708 241.596097 130.968579 241.596097 131.438639
C 241.596097 131.908699 241.782854 132.359571 242.115237 132.691953
C 242.44762 133.024336 242.898491 133.211093 243.368551 133.211093
z
" style="stroke:#000000;stroke-width:0.886227;"/>
    <path clip-path="url(#p8c2378a7e9)" d="M 265.012187 128.27395
C 265.482248 128.27395 265.933119 128.087193 266.265502 127.75481
C 266.597884 127.422428 266.784641 126.971557 266.784641 126.501496
C 266.784641 126.031436 266.597884 125.580565 266.265502 125.248182
C 265.933119 124.915799 265.482248 124.729043 265.012187 124.729043
C 264.542127 124.729043 264.091256 124.915799 263.758873 125.248182
C 263.426491 125.580565 263.239734 126.031436 263.239734 126.501496
C 263.239734 126.971557 263.426491 127.422428 263.758873 127.75481
C 264.091256 128.087193 264.542127 128.27395 265.012187 128.27395
z
" style="stroke:#000000;stroke-width:0.886227;"/>
    <path clip-path="url(#p8c2378a7e9)" d="M 337.157642 73.965379
C 337.627702 73.965379 338.078573 73.778622 338.410956 73.446239
C 338.743339 73.113856 338.930096 72.662985 338.930096 72.192925
C 338.930096 71.722865 338.743339 71.271994 338.410956 70.939611
C 338.078573 70.607228 337.627702 70.420471 337.157642 70.420471
C 336.687582 70.420471 336.236711 70.607228 335.904328 70.939611
C 335.571945 71.271994 335.385188 71.722865 335.385188 72.192925
C 335.385188 72.662985 335.571945 73.113856 335.904328 73.446239
C 336.236711 73.778622 336.687582 73.965379 337.157642 73.965379
z
" style="stroke:#000000;stroke-width:0.886227;"/>
    <path clip-path="url(#p8c2378a7e9)" d="M 358.801278 44.342522
C 359.271339 44.342522 359.72221 44.155765 360.054593 43.823382
C 360.386975 43.490999 360.573732 43.040128 360.573732 42.570068
C 360.573732 42.100008 360.386975 41.649136 360.054593 41.316754
C 359.72221 40.984371 359.271339 40.797614 358.801278 40.797614
C 358.331218 40.797614 357.880347 40.984371 357.547964 41.316754
C 357.215581 41.649136 357.028825 42.100008 357.028825 42.570068
C 357.028825 43.040128 357.215581 43.490999 357.547964 43.823382
C 357.880347 44.155765 358.331218 44.342522 358.801278 44.342522
z
" style="stroke:#000000;stroke-width:0.886227;"/>
    <path clip-path="url(#p8c2378a7e9)" d="M 322.728551 113.462522
C 323.198611 113.462522 323.649482 113.275765 323.981865 112.943382
C 324.314248 112.610999 324.501005 112.160128 324.501005 111.690068
C 324.501005 111.220008 324.314248 110.769136 323.981865 110.436754
C 323.649482 110.104371 323.198611 109.917614 322.728551 109.917614
C 322.258491 109.917614 321.80762 110.104371 321.475237 110.436754
C 321.142854 110.769136 320.956097 111.220008 320.956097 111.690068
C 320.956097 112.160128 321.142854 112.610999 321.475237 112.943382
C 321.80762 113.275765 322.258491 113.462522 322.728551 113.462522
z
" style="stroke:#000000;stroke-width:0.886227;"/>
    <path clip-path="url(#p8c2378a7e9)" d="M 366.015824 83.839664
C 366.485884 83.839664 366.936755 83.652908 367.269138 83.320525
C 367.601521 82.988142 367.788278 82.537271 367.788278 82.067211
C 367.788278 81.59715 367.601521 81.146279 367.269138 80.813897
C 366.936755 80.481514 366.485884 80.294757 366.015824 80.294757
C 365.545764 80.294757 365.094893 80.481514 364.76251 80.813897
C 364.430127 81.146279 364.24337 81.59715 364.24337 82.067211
C 364.24337 82.537271 364.430127 82.988142 364.76251 83.320525
C 365.094893 83.652908 365.545764 83.839664 366.015824 83.839664
z
" style="stroke:#000000;stroke-width:0.886227;"/>
    <path clip-path="url(#p8c2378a7e9)" d="M 106.292188 207.268236
C 106.762248 207.268236 107.213119 207.081479 107.545502 206.749096
C 107.877884 206.416713 108.064641 205.965842 108.064641 205.495782
C 108.064641 205.025722 107.877884 204.574851 107.545502 204.242468
C 107.213119 203.910085 106.762248 203.723328 106.292188 203.723328
C 105.822127 203.723328 105.371256 203.910085 105.038873 204.242468
C 104.706491 204.574851 104.519734 205.025722 104.519734 205.495782
C 104.519734 205.965842 104.706491 206.416713 105.038873 206.749096
C 105.371256 207.081479 105.822127 207.268236 106.292188 207.268236
z
" style="stroke:#000000;stroke-width:0.886227;"/>
    <path clip-path="url(#p8c2378a7e9)" d="M 185.652187 207.268236
C 186.122248 207.268236 186.573119 207.081479 186.905502 206.749096
C 187.237884 206.416713 187.424641 205.965842 187.424641 205.495782
C 187.424641 205.025722 187.237884 204.574851 186.905502 204.242468
C 186.573119 203.910085 186.122248 203.723328 185.652187 203.723328
C 185.182127 203.723328 184.731256 203.910085 184.398873 204.242468
C 184.066491 204.574851 183.879734 205.025722 183.879734 205.495782
C 183.879734 205.965842 184.066491 206.416713 184.398873 206.749096
C 184.731256 207.081479 185.182127 207.268236 185.652187 207.268236
z
" style="stroke:#000000;stroke-width:0.886227;"/>
    <path clip-path="url(#p8c2378a7e9)" d="M 207.295824 98.651093
C 207.765884 98.651093 208.216755 98.464336 208.549138 98.131953
C 208.881521 97.799571 209.068278 97.348699 209.068278 96.878639
C 209.068278 96.408579 208.881521 95.957708 208.549138 95.625325
C 208.216755 95.292942 207.765884 95.106185 207.295824 95.106185
C 206.825764 95.106185 206.374893 95.292942 206.04251 95.625325
C 205.710127 95.957708 205.52337 96.408579 205.52337 96.878639
C 205.52337 97.348699 205.710127 97.799571 206.04251 98.131953
C 206.374893 98.464336 206.825764 98.651093 207.295824 98.651093
z
" style="stroke:#000000;stroke-width:0.886227;"/>
    <path clip-path="url(#p8c2378a7e9)" d="M 192.866733 180.11395
C 193.336793 180.11395 193.787664 179.927193 194.120047 179.59481
C 194.45243 179.262428 194.639187 178.811557 194.639187 178.341496
C 194.639187 177.871436 194.45243 177.420565 194.120047 177.088182
C 193.787664 176.755799 193.336793 176.569043 192.866733 176.569043
C 192.396673 176.569043 191.945802 176.755799 191.613419 177.088182
C 191.281036 177.420565 191.094279 177.871436 191.094279 178.341496
C 191.094279 178.811557 191.281036 179.262428 191.613419 179.59481
C 191.945802 179.927193 192.396673 180.11395 192.866733 180.11395
z
" style="stroke:#000000;stroke-width:0.886227;"/>
    <path clip-path="url(#p8c2378a7e9)" d="M 178.437642 207.268236
C 178.907702 207.268236 179.358573 207.081479 179.690956 206.749096
C 180.023339 206.416713 180.210096 205.965842 180.210096 205.495782
C 180.210096 205.025722 180.023339 204.574851 179.690956 204.242468
C 179.358573 203.910085 178.907702 203.723328 178.437642 203.723328
C 177.967582 203.723328 177.516711 203.910085 177.184328 204.242468
C 176.851945 204.574851 176.665188 205.025722 176.665188 205.495782
C 176.665188 205.965842 176.851945 206.416713 177.184328 206.749096
C 177.516711 207.081479 177.967582 207.268236 178.437642 207.268236
z
" style="stroke:#000000;stroke-width:0.886227;"/>
    <path clip-path="url(#p8c2378a7e9)" d="M 279.441278 276.388236
C 279.911339 276.388236 280.36221 276.201479 280.694593 275.869096
C 281.026975 275.536713 281.213732 275.085842 281.213732 274.615782
C 281.213732 274.145722 281.026975 273.694851 280.694593 273.362468
C 280.36221 273.030085 279.911339 272.843328 279.441278 272.843328
C 278.971218 272.843328 278.520347 273.030085 278.187964 273.362468
C 277.855581 273.694851 277.668825 274.145722 277.668825 274.615782
C 277.668825 275.085842 277.855581 275.536713 278.187964 275.869096
C 278.520347 276.201479 278.971218 276.388236 279.441278 276.388236
z
" style="stroke:#000000;stroke-width:0.886227;"/>
    <path clip-path="url(#p8c2378a7e9)" d="M 135.150369 170.239664
C 135.62043 170.239664 136.071301 170.052908 136.403683 169.720525
C 136.736066 169.388142 136.922823 168.937271 136.922823 168.467211
C 136.922823 167.99715 136.736066 167.546279 136.403683 167.213897
C 136.071301 166.881514 135.62043 166.694757 135.150369 166.694757
C 134.680309 166.694757 134.229438 166.881514 133.897055 167.213897
C 133.564672 167.546279 133.377915 167.99715 133.377915 168.467211
C 133.377915 168.937271 133.564672 169.388142 133.897055 169.720525
C 134.229438 170.052908 134.680309 170.239664 135.150369 170.239664
z
" style="stroke:#000000;stroke-width:0.886227;"/>
    <path clip-path="url(#p8c2378a7e9)" d="M 257.797642 207.268236
C 258.267702 207.268236 258.718573 207.081479 259.050956 206.749096
C 259.383339 206.416713 259.570096 205.965842 259.570096 205.495782
C 259.570096 205.025722 259.383339 204.574851 259.050956 204.242468
C 258.718573 203.910085 258.267702 203.723328 257.797642 203.723328
C 257.327582 203.723328 256.876711 203.910085 256.544328 204.242468
C 256.211945 204.574851 256.025188 205.025722 256.025188 205.495782
C 256.025188 205.965842 256.211945 206.416713 256.544328 206.749096
C 256.876711 207.081479 257.327582 207.268236 257.797642 207.268236
z
" style="stroke:#000000;stroke-width:0.886227;"/>
    <path clip-path="url(#p8c2378a7e9)" d="M 250.583097 108.525379
C 251.053157 108.525379 251.504028 108.338622 251.836411 108.006239
C 252.168794 107.673856 252.35555 107.222985 252.35555 106.752925
C 252.35555 106.282865 252.168794 105.831994 251.836411 105.499611
C 251.504028 105.167228 251.053157 104.980471 250.583097 104.980471
C 250.113036 104.980471 249.662165 105.167228 249.329782 105.499611
C 248.9974 105.831994 248.810643 106.282865 248.810643 106.752925
C 248.810643 107.222985 248.9974 107.673856 249.329782 108.006239
C 249.662165 108.338622 250.113036 108.525379 250.583097 108.525379
z
" style="stroke:#000000;stroke-width:0.886227;"/>
    <path clip-path="url(#p8c2378a7e9)" d="M 293.870369 64.091093
C 294.34043 64.091093 294.791301 63.904336 295.123683 63.571953
C 295.456066 63.239571 295.642823 62.788699 295.642823 62.318639
C 295.642823 61.848579 295.456066 61.397708 295.123683 61.065325
C 294.791301 60.732942 294.34043 60.546185 293.870369 60.546185
C 293.400309 60.546185 292.949438 60.732942 292.617055 61.065325
C 292.284672 61.397708 292.097915 61.848579 292.097915 62.318639
C 292.097915 62.788699 292.284672 63.239571 292.617055 63.571953
C 292.949438 63.904336 293.400309 64.091093 293.870369 64.091093
z
" style="stroke:#000000;stroke-width:0.886227;"/>
    <path clip-path="url(#p8c2378a7e9)" d="M 351.586733 88.776807
C 352.056793 88.776807 352.507664 88.59005 352.840047 88.257668
C 353.17243 87.925285 353.359187 87.474414 353.359187 87.004353
C 353.359187 86.534293 353.17243 86.083422 352.840047 85.751039
C 352.507664 85.418657 352.056793 85.2319 351.586733 85.2319
C 351.116673 85.2319 350.665802 85.418657 350.333419 85.751039
C 350.001036 86.083422 349.814279 86.534293 349.814279 87.004353
C 349.814279 87.474414 350.001036 87.925285 350.333419 88.257668
C 350.665802 88.59005 351.116673 88.776807 351.586733 88.776807
z
" style="stroke:#000000;stroke-width:0.886227;"/>
    <path clip-path="url(#p8c2378a7e9)" d="M 63.004915 239.359664
C 63.474975 239.359664 63.925846 239.172908 64.258229 238.840525
C 64.590612 238.508142 64.777369 238.057271 64.777369 237.587211
C 64.777369 237.11715 64.590612 236.666279 64.258229 236.333897
C 63.925846 236.001514 63.474975 235.814757 63.004915 235.814757
C 62.534855 235.814757 62.083983 236.001514 61.751601 236.333897
C 61.419218 236.666279 61.232461 237.11715 61.232461 237.587211
C 61.232461 238.057271 61.419218 238.508142 61.751601 238.840525
C 62.083983 239.172908 62.534855 239.359664 63.004915 239.359664
z
" style="stroke:#000000;stroke-width:0.886227;"/>
    <path clip-path="url(#p8c2378a7e9)" d="M 127.935824 256.639664
C 128.405884 256.639664 128.856755 256.452908 129.189138 256.120525
C 129.521521 255.788142 129.708278 255.337271 129.708278 254.867211
C 129.708278 254.39715 129.521521 253.946279 129.189138 253.613897
C 128.856755 253.281514 128.405884 253.094757 127.935824 253.094757
C 127.465764 253.094757 127.014893 253.281514 126.68251 253.613897
C 126.350127 253.946279 126.16337 254.39715 126.16337 254.867211
C 126.16337 255.337271 126.350127 255.788142 126.68251 256.120525
C 127.014893 256.452908 127.465764 256.639664 127.935824 256.639664
z
" style="stroke:#000000;stroke-width:0.886227;"/>
    <path clip-path="url(#p8c2378a7e9)" d="M 214.510369 118.399664
C 214.98043 118.399664 215.431301 118.212908 215.763683 117.880525
C 216.096066 117.548142 216.282823 117.097271 216.282823 116.627211
C 216.282823 116.15715 216.096066 115.706279 215.763683 115.373897
C 215.431301 115.041514 214.98043 114.854757 214.510369 114.854757
C 214.040309 114.854757 213.589438 115.041514 213.257055 115.373897
C 212.924672 115.706279 212.737915 116.15715 212.737915 116.627211
C 212.737915 117.097271 212.924672 117.548142 213.257055 117.880525
C 213.589438 118.212908 214.040309 118.399664 214.510369 118.399664
z
" style="stroke:#000000;stroke-width:0.886227;"/>
    <path clip-path="url(#p8c2378a7e9)" d="M 200.081278 207.268236
C 200.551339 207.268236 201.00221 207.081479 201.334593 206.749096
C 201.666975 206.416713 201.853732 205.965842 201.853732 205.495782
C 201.853732 205.025722 201.666975 204.574851 201.334593 204.242468
C 201.00221 203.910085 200.551339 203.723328 200.081278 203.723328
C 199.611218 203.723328 199.160347 203.910085 198.827964 204.242468
C 198.495581 204.574851 198.308825 205.025722 198.308825 205.495782
C 198.308825 205.965842 198.495581 206.416713 198.827964 206.749096
C 199.160347 207.081479 199.611218 207.268236 200.081278 207.268236
z
" style="stroke:#000000;stroke-width:0.886227;"/>
    <path clip-path="url(#p8c2378a7e9)" d="M 329.943097 266.51395
C 330.413157 266.51395 330.864028 266.327193 331.196411 265.99481
C 331.528794 265.662428 331.71555 265.211557 331.71555 264.741496
C 331.71555 264.271436 331.528794 263.820565 331.196411 263.488182
C 330.864028 263.155799 330.413157 262.969043 329.943097 262.969043
C 329.473036 262.969043 329.022165 263.155799 328.689782 263.488182
C 328.3574 263.820565 328.170643 264.271436 328.170643 264.741496
C 328.170643 265.211557 328.3574 265.662428 328.689782 265.99481
C 329.022165 266.327193 329.473036 266.51395 329.943097 266.51395
z
" style="stroke:#000000;stroke-width:0.886227;"/>
    <path clip-path="url(#p8c2378a7e9)" d="M 236.154006 239.359664
C 236.624066 239.359664 237.074937 239.172908 237.40732 238.840525
C 237.739703 238.508142 237.92646 238.057271 237.92646 237.587211
C 237.92646 237.11715 237.739703 236.666279 237.40732 236.333897
C 237.074937 236.001514 236.624066 235.814757 236.154006 235.814757
C 235.683945 235.814757 235.233074 236.001514 234.900692 236.333897
C 234.568309 236.666279 234.381552 237.11715 234.381552 237.587211
C 234.381552 238.057271 234.568309 238.508142 234.900692 238.840525
C 235.233074 239.172908 235.683945 239.359664 236.154006 239.359664
z
" style="stroke:#000000;stroke-width:0.886227;"/>
    <path clip-path="url(#p8c2378a7e9)" d="M 63.004915 207.268236
C 63.474975 207.268236 63.925846 207.081479 64.258229 206.749096
C 64.590612 206.416713 64.777369 205.965842 64.777369 205.495782
C 64.777369 205.025722 64.590612 204.574851 64.258229 204.242468
C 63.925846 203.910085 63.474975 203.723328 63.004915 203.723328
C 62.534855 203.723328 62.083983 203.910085 61.751601 204.242468
C 61.419218 204.574851 61.232461 205.025722 61.232461 205.495782
C 61.232461 205.965842 61.419218 206.416713 61.751601 206.749096
C 62.083983 207.081479 62.534855 207.268236 63.004915 207.268236
z
" style="stroke:#000000;stroke-width:0.886227;"/>
    <path clip-path="url(#p8c2378a7e9)" d="M 63.004915 207.268236
C 63.474975 207.268236 63.925846 207.081479 64.258229 206.749096
C 64.590612 206.416713 64.777369 205.965842 64.777369 205.495782
C 64.777369 205.025722 64.590612 204.574851 64.258229 204.242468
C 63.925846 203.910085 63.474975 203.723328 63.004915 203.723328
C 62.534855 203.723328 62.083983 203.910085 61.751601 204.242468
C 61.419218 204.574851 61.232461 205.025722 61.232461 205.495782
C 61.232461 205.965842 61.419218 206.416713 61.751601 206.749096
C 62.083983 207.081479 62.534855 207.268236 63.004915 207.268236
z
" style="stroke:#000000;stroke-width:0.886227;"/>
    <path clip-path="url(#p8c2378a7e9)" d="M 164.008551 207.268236
C 164.478611 207.268236 164.929482 207.081479 165.261865 206.749096
C 165.594248 206.416713 165.781005 205.965842 165.781005 205.495782
C 165.781005 205.025722 165.594248 204.574851 165.261865 204.242468
C 164.929482 203.910085 164.478611 203.723328 164.008551 203.723328
C 163.538491 203.723328 163.08762 203.910085 162.755237 204.242468
C 162.422854 204.574851 162.236097 205.025722 162.236097 205.495782
C 162.236097 205.965842 162.422854 206.416713 162.755237 206.749096
C 163.08762 207.081479 163.538491 207.268236 164.008551 207.268236
z
" style="stroke:#000000;stroke-width:0.886227;"/>
    <path clip-path="url(#p8c2378a7e9)" d="M 308.29946 239.359664
C 308.76952 239.359664 309.220392 239.172908 309.552774 238.840525
C 309.885157 238.508142 310.071914 238.057271 310.071914 237.587211
C 310.071914 237.11715 309.885157 236.666279 309.552774 236.333897
C 309.220392 236.001514 308.76952 235.814757 308.29946 235.814757
C 307.8294 235.814757 307.378529 236.001514 307.046146 236.333897
C 306.713763 236.666279 306.527006 237.11715 306.527006 237.587211
C 306.527006 238.057271 306.713763 238.508142 307.046146 238.840525
C 307.378529 239.172908 307.8294 239.359664 308.29946 239.359664
z
" style="stroke:#000000;stroke-width:0.886227;"/>
    <path clip-path="url(#p8c2378a7e9)" d="M 315.514006 256.639664
C 315.984066 256.639664 316.434937 256.452908 316.76732 256.120525
C 317.099703 255.788142 317.28646 255.337271 317.28646 254.867211
C 317.28646 254.39715 317.099703 253.946279 316.76732 253.613897
C 316.434937 253.281514 315.984066 253.094757 315.514006 253.094757
C 315.043945 253.094757 314.593074 253.281514 314.260692 253.613897
C 313.928309 253.946279 313.741552 254.39715 313.741552 254.867211
C 313.741552 255.337271 313.928309 255.788142 314.260692 256.120525
C 314.593074 256.452908 315.043945 256.639664 315.514006 256.639664
z
" style="stroke:#000000;stroke-width:0.886227;"/>
   </g>
  </g>
  <g id="text_13">
   <!-- GSEA $v.s.$ ORA pathway ranking -->
   <defs>
    <path d="M 7.171875 54.6875
L 16.703125 54.6875
L 24.703125 8.203125
L 50.875 54.6875
L 60.40625 54.6875
L 29.296875 0
L 17.1875 0
z
" id="DejaVuSans-Oblique-118"/>
    <path d="M 10.6875 12.40625
L 21 12.40625
L 21 0
L 10.6875 0
z
" id="DejaVuSans-46"/>
    <path d="M 50 53.078125
L 48.296875 44.578125
Q 44.734375 46.53125 40.765625 47.5
Q 36.8125 48.484375 32.625 48.484375
Q 25.53125 48.484375 21.453125 46.0625
Q 17.390625 43.65625 17.390625 39.5
Q 17.390625 34.671875 26.859375 32.078125
Q 27.59375 31.890625 27.9375 31.78125
L 30.8125 30.90625
Q 39.796875 28.421875 42.796875 25.6875
Q 45.796875 22.953125 45.796875 18.21875
Q 45.796875 9.515625 38.890625 4.046875
Q 31.984375 -1.421875 20.796875 -1.421875
Q 16.453125 -1.421875 11.671875 -0.578125
Q 6.890625 0.25 1.125 2
L 2.875 11.28125
Q 7.8125 8.734375 12.59375 7.421875
Q 17.390625 6.109375 21.78125 6.109375
Q 28.375 6.109375 32.5 8.9375
Q 36.625 11.765625 36.625 16.109375
Q 36.625 20.796875 25.78125 23.6875
L 24.859375 23.921875
L 21.78125 24.703125
Q 14.9375 26.515625 11.765625 29.46875
Q 8.59375 32.421875 8.59375 37.015625
Q 8.59375 45.75 15.15625 50.875
Q 21.734375 56 33.015625 56
Q 37.453125 56 41.671875 55.265625
Q 45.90625 54.546875 50 53.078125
z
" id="DejaVuSans-Oblique-115"/>
   </defs>
   <g transform="translate(96.647188 11.4)scale(0.15 -0.15)">
    <use transform="translate(0 0.015625)" xlink:href="#DejaVuSans-71"/>
    <use transform="translate(77.490234 0.015625)" xlink:href="#DejaVuSans-83"/>
    <use transform="translate(140.966797 0.015625)" xlink:href="#DejaVuSans-69"/>
    <use transform="translate(204.150391 0.015625)" xlink:href="#DejaVuSans-65"/>
    <use transform="translate(272.558594 0.015625)" xlink:href="#DejaVuSans-32"/>
    <use transform="translate(304.345703 0.015625)" xlink:href="#DejaVuSans-Oblique-118"/>
    <use transform="translate(363.525391 0.015625)" xlink:href="#DejaVuSans-46"/>
    <use transform="translate(414.794922 0.015625)" xlink:href="#DejaVuSans-Oblique-115"/>
    <use transform="translate(466.894531 0.015625)" xlink:href="#DejaVuSans-46"/>
    <use transform="translate(518.164062 0.015625)" xlink:href="#DejaVuSans-32"/>
    <use transform="translate(549.951172 0.015625)" xlink:href="#DejaVuSans-79"/>
    <use transform="translate(628.662109 0.015625)" xlink:href="#DejaVuSans-82"/>
    <use transform="translate(698.144531 0.015625)" xlink:href="#DejaVuSans-65"/>
    <use transform="translate(766.552734 0.015625)" xlink:href="#DejaVuSans-32"/>
    <use transform="translate(798.339844 0.015625)" xlink:href="#DejaVuSans-112"/>
    <use transform="translate(861.816406 0.015625)" xlink:href="#DejaVuSans-97"/>
    <use transform="translate(923.095703 0.015625)" xlink:href="#DejaVuSans-116"/>
    <use transform="translate(962.304688 0.015625)" xlink:href="#DejaVuSans-104"/>
    <use transform="translate(1025.683594 0.015625)" xlink:href="#DejaVuSans-119"/>
    <use transform="translate(1107.470703 0.015625)" xlink:href="#DejaVuSans-97"/>
    <use transform="translate(1168.75 0.015625)" xlink:href="#DejaVuSans-121"/>
    <use transform="translate(1227.929688 0.015625)" xlink:href="#DejaVuSans-32"/>
    <use transform="translate(1259.716797 0.015625)" xlink:href="#DejaVuSans-114"/>
    <use transform="translate(1300.830078 0.015625)" xlink:href="#DejaVuSans-97"/>
    <use transform="translate(1362.109375 0.015625)" xlink:href="#DejaVuSans-110"/>
    <use transform="translate(1425.488281 0.015625)" xlink:href="#DejaVuSans-107"/>
    <use transform="translate(1483.398438 0.015625)" xlink:href="#DejaVuSans-105"/>
    <use transform="translate(1511.181641 0.015625)" xlink:href="#DejaVuSans-110"/>
    <use transform="translate(1574.560547 0.015625)" xlink:href="#DejaVuSans-103"/>
   </g>
  </g>
 </g>
 <defs>
  <clipPath id="p8c2378a7e9">
   <rect height="266.112" width="357.12" x="46.772188" y="20.599782"/>
  </clipPath>
 </defs>
</svg>
