<?xml version="1.0" encoding="utf-8" standalone="no"?>
<!DOCTYPE svg PUBLIC "-//W3C//DTD SVG 1.1//EN"
  "http://www.w3.org/Graphics/SVG/1.1/DTD/svg11.dtd">
<!-- Created with matplotlib (https://matplotlib.org/) -->
<svg height="322.176313pt" version="1.1" viewBox="0 0 406.642188 322.176313" width="406.642188pt" xmlns="http://www.w3.org/2000/svg" xmlns:xlink="http://www.w3.org/1999/xlink">
 <defs>
  <style type="text/css">
*{stroke-linecap:butt;stroke-linejoin:round;}
  </style>
 </defs>
 <g id="figure_1">
  <g id="patch_1">
   <path d="M 0 322.176313
L 406.642188 322.176313
L 406.642188 0
L 0 0
z
" style="fill:#ffffff;stroke:#ffffff;stroke-linejoin:miter;"/>
  </g>
  <g id="axes_1">
   <g id="patch_2">
    <path d="M 46.772188 286.695376
L 403.892188 286.695376
L 403.892188 20.583376
L 46.772188 20.583376
z
" style="fill:none;"/>
   </g>
   <g id="matplotlib.axis_1">
    <g id="xtick_1">
     <g id="line2d_1">
      <path clip-path="url(#pe55cf96158)" d="M 63.004915 286.695376
L 63.004915 20.583376
" style="fill:none;stroke:#e5e5e5;stroke-width:0.8;"/>
     </g>
     <g id="line2d_2">
      <path d="M 63.004915 286.695376
" style="fill:none;stroke:#000000;stroke-width:1.5;"/>
      <defs>
       <path d="M 0 0
L 0 2.75
" id="mf9d08dd405" style="stroke:#000000;"/>
      </defs>
      <g>
       <use style="stroke:#000000;" x="63.004915" xlink:href="#mf9d08dd405" y="286.695376"/>
      </g>
     </g>
     <g id="text_1">
      <!-- 0 -->
      <defs>
       <path d="M 31.78125 66.40625
Q 24.171875 66.40625 20.328125 58.90625
Q 16.5 51.421875 16.5 36.375
Q 16.5 21.390625 20.328125 13.890625
Q 24.171875 6.390625 31.78125 6.390625
Q 39.453125 6.390625 43.28125 13.890625
Q 47.125 21.390625 47.125 36.375
Q 47.125 51.421875 43.28125 58.90625
Q 39.453125 66.40625 31.78125 66.40625
z
M 31.78125 74.21875
Q 44.046875 74.21875 50.515625 64.515625
Q 56.984375 54.828125 56.984375 36.375
Q 56.984375 17.96875 50.515625 8.265625
Q 44.046875 -1.421875 31.78125 -1.421875
Q 19.53125 -1.421875 13.0625 8.265625
Q 6.59375 17.96875 6.59375 36.375
Q 6.59375 54.828125 13.0625 64.515625
Q 19.53125 74.21875 31.78125 74.21875
z
" id="DejaVuSans-48"/>
      </defs>
      <g style="fill:#4d4d4d;" transform="translate(59.187415 300.763501)scale(0.12 -0.12)">
       <use xlink:href="#DejaVuSans-48"/>
      </g>
     </g>
    </g>
    <g id="xtick_2">
     <g id="line2d_3">
      <path clip-path="url(#pe55cf96158)" d="M 144.168551 286.695376
L 144.168551 20.583376
" style="fill:none;stroke:#e5e5e5;stroke-width:0.8;"/>
     </g>
     <g id="line2d_4">
      <path d="M 144.168551 286.695376
" style="fill:none;stroke:#000000;stroke-width:1.5;"/>
      <g>
       <use style="stroke:#000000;" x="144.168551" xlink:href="#mf9d08dd405" y="286.695376"/>
      </g>
     </g>
     <g id="text_2">
      <!-- 25 -->
      <defs>
       <path d="M 19.1875 8.296875
L 53.609375 8.296875
L 53.609375 0
L 7.328125 0
L 7.328125 8.296875
Q 12.9375 14.109375 22.625 23.890625
Q 32.328125 33.6875 34.8125 36.53125
Q 39.546875 41.84375 41.421875 45.53125
Q 43.3125 49.21875 43.3125 52.78125
Q 43.3125 58.59375 39.234375 62.25
Q 35.15625 65.921875 28.609375 65.921875
Q 23.96875 65.921875 18.8125 64.3125
Q 13.671875 62.703125 7.8125 59.421875
L 7.8125 69.390625
Q 13.765625 71.78125 18.9375 73
Q 24.125 74.21875 28.421875 74.21875
Q 39.75 74.21875 46.484375 68.546875
Q 53.21875 62.890625 53.21875 53.421875
Q 53.21875 48.921875 51.53125 44.890625
Q 49.859375 40.875 45.40625 35.40625
Q 44.1875 33.984375 37.640625 27.21875
Q 31.109375 20.453125 19.1875 8.296875
z
" id="DejaVuSans-50"/>
       <path d="M 10.796875 72.90625
L 49.515625 72.90625
L 49.515625 64.59375
L 19.828125 64.59375
L 19.828125 46.734375
Q 21.96875 47.46875 24.109375 47.828125
Q 26.265625 48.1875 28.421875 48.1875
Q 40.625 48.1875 47.75 41.5
Q 54.890625 34.8125 54.890625 23.390625
Q 54.890625 11.625 47.5625 5.09375
Q 40.234375 -1.421875 26.90625 -1.421875
Q 22.3125 -1.421875 17.546875 -0.640625
Q 12.796875 0.140625 7.71875 1.703125
L 7.71875 11.625
Q 12.109375 9.234375 16.796875 8.0625
Q 21.484375 6.890625 26.703125 6.890625
Q 35.15625 6.890625 40.078125 11.328125
Q 45.015625 15.765625 45.015625 23.390625
Q 45.015625 31 40.078125 35.4375
Q 35.15625 39.890625 26.703125 39.890625
Q 22.75 39.890625 18.8125 39.015625
Q 14.890625 38.140625 10.796875 36.28125
z
" id="DejaVuSans-53"/>
      </defs>
      <g style="fill:#4d4d4d;" transform="translate(136.533551 300.763501)scale(0.12 -0.12)">
       <use xlink:href="#DejaVuSans-50"/>
       <use x="63.623047" xlink:href="#DejaVuSans-53"/>
      </g>
     </g>
    </g>
    <g id="xtick_3">
     <g id="line2d_5">
      <path clip-path="url(#pe55cf96158)" d="M 225.332188 286.695376
L 225.332188 20.583376
" style="fill:none;stroke:#e5e5e5;stroke-width:0.8;"/>
     </g>
     <g id="line2d_6">
      <path d="M 225.332188 286.695376
" style="fill:none;stroke:#000000;stroke-width:1.5;"/>
      <g>
       <use style="stroke:#000000;" x="225.332188" xlink:href="#mf9d08dd405" y="286.695376"/>
      </g>
     </g>
     <g id="text_3">
      <!-- 50 -->
      <g style="fill:#4d4d4d;" transform="translate(217.697188 300.763501)scale(0.12 -0.12)">
       <use xlink:href="#DejaVuSans-53"/>
       <use x="63.623047" xlink:href="#DejaVuSans-48"/>
      </g>
     </g>
    </g>
    <g id="xtick_4">
     <g id="line2d_7">
      <path clip-path="url(#pe55cf96158)" d="M 306.495824 286.695376
L 306.495824 20.583376
" style="fill:none;stroke:#e5e5e5;stroke-width:0.8;"/>
     </g>
     <g id="line2d_8">
      <path d="M 306.495824 286.695376
" style="fill:none;stroke:#000000;stroke-width:1.5;"/>
      <g>
       <use style="stroke:#000000;" x="306.495824" xlink:href="#mf9d08dd405" y="286.695376"/>
      </g>
     </g>
     <g id="text_4">
      <!-- 75 -->
      <defs>
       <path d="M 8.203125 72.90625
L 55.078125 72.90625
L 55.078125 68.703125
L 28.609375 0
L 18.3125 0
L 43.21875 64.59375
L 8.203125 64.59375
z
" id="DejaVuSans-55"/>
      </defs>
      <g style="fill:#4d4d4d;" transform="translate(298.860824 300.763501)scale(0.12 -0.12)">
       <use xlink:href="#DejaVuSans-55"/>
       <use x="63.623047" xlink:href="#DejaVuSans-53"/>
      </g>
     </g>
    </g>
    <g id="xtick_5">
     <g id="line2d_9">
      <path clip-path="url(#pe55cf96158)" d="M 387.65946 286.695376
L 387.65946 20.583376
" style="fill:none;stroke:#e5e5e5;stroke-width:0.8;"/>
     </g>
     <g id="line2d_10">
      <path d="M 387.65946 286.695376
" style="fill:none;stroke:#000000;stroke-width:1.5;"/>
      <g>
       <use style="stroke:#000000;" x="387.65946" xlink:href="#mf9d08dd405" y="286.695376"/>
      </g>
     </g>
     <g id="text_5">
      <!-- 100 -->
      <defs>
       <path d="M 12.40625 8.296875
L 28.515625 8.296875
L 28.515625 63.921875
L 10.984375 60.40625
L 10.984375 69.390625
L 28.421875 72.90625
L 38.28125 72.90625
L 38.28125 8.296875
L 54.390625 8.296875
L 54.390625 0
L 12.40625 0
z
" id="DejaVuSans-49"/>
      </defs>
      <g style="fill:#4d4d4d;" transform="translate(376.20696 300.763501)scale(0.12 -0.12)">
       <use xlink:href="#DejaVuSans-49"/>
       <use x="63.623047" xlink:href="#DejaVuSans-48"/>
       <use x="127.246094" xlink:href="#DejaVuSans-48"/>
      </g>
     </g>
    </g>
    <g id="xtick_6">
     <g id="line2d_11">
      <path clip-path="url(#pe55cf96158)" d="M 103.586733 286.695376
L 103.586733 20.583376
" style="fill:none;stroke:#fafafa;"/>
     </g>
     <g id="line2d_12">
      <path d="M 103.586733 286.695376
" style="fill:none;stroke:#000000;stroke-width:1.5;"/>
     </g>
    </g>
    <g id="xtick_7">
     <g id="line2d_13">
      <path clip-path="url(#pe55cf96158)" d="M 184.750369 286.695376
L 184.750369 20.583376
" style="fill:none;stroke:#fafafa;"/>
     </g>
     <g id="line2d_14">
      <path d="M 184.750369 286.695376
" style="fill:none;stroke:#000000;stroke-width:1.5;"/>
     </g>
    </g>
    <g id="xtick_8">
     <g id="line2d_15">
      <path clip-path="url(#pe55cf96158)" d="M 265.914006 286.695376
L 265.914006 20.583376
" style="fill:none;stroke:#fafafa;"/>
     </g>
     <g id="line2d_16">
      <path d="M 265.914006 286.695376
" style="fill:none;stroke:#000000;stroke-width:1.5;"/>
     </g>
    </g>
    <g id="xtick_9">
     <g id="line2d_17">
      <path clip-path="url(#pe55cf96158)" d="M 347.077642 286.695376
L 347.077642 20.583376
" style="fill:none;stroke:#fafafa;"/>
     </g>
     <g id="line2d_18">
      <path d="M 347.077642 286.695376
" style="fill:none;stroke:#000000;stroke-width:1.5;"/>
     </g>
    </g>
    <g id="text_6">
     <!-- GSEA pathway ranking -->
     <defs>
      <path d="M 59.515625 10.40625
L 59.515625 29.984375
L 43.40625 29.984375
L 43.40625 38.09375
L 69.28125 38.09375
L 69.28125 6.78125
Q 63.578125 2.734375 56.6875 0.65625
Q 49.8125 -1.421875 42 -1.421875
Q 24.90625 -1.421875 15.25 8.5625
Q 5.609375 18.5625 5.609375 36.375
Q 5.609375 54.25 15.25 64.234375
Q 24.90625 74.21875 42 74.21875
Q 49.125 74.21875 55.546875 72.453125
Q 61.96875 70.703125 67.390625 67.28125
L 67.390625 56.78125
Q 61.921875 61.421875 55.765625 63.765625
Q 49.609375 66.109375 42.828125 66.109375
Q 29.4375 66.109375 22.71875 58.640625
Q 16.015625 51.171875 16.015625 36.375
Q 16.015625 21.625 22.71875 14.15625
Q 29.4375 6.6875 42.828125 6.6875
Q 48.046875 6.6875 52.140625 7.59375
Q 56.25 8.5 59.515625 10.40625
z
" id="DejaVuSans-71"/>
      <path d="M 53.515625 70.515625
L 53.515625 60.890625
Q 47.90625 63.578125 42.921875 64.890625
Q 37.9375 66.21875 33.296875 66.21875
Q 25.25 66.21875 20.875 63.09375
Q 16.5 59.96875 16.5 54.203125
Q 16.5 49.359375 19.40625 46.890625
Q 22.3125 44.4375 30.421875 42.921875
L 36.375 41.703125
Q 47.40625 39.59375 52.65625 34.296875
Q 57.90625 29 57.90625 20.125
Q 57.90625 9.515625 50.796875 4.046875
Q 43.703125 -1.421875 29.984375 -1.421875
Q 24.8125 -1.421875 18.96875 -0.25
Q 13.140625 0.921875 6.890625 3.21875
L 6.890625 13.375
Q 12.890625 10.015625 18.65625 8.296875
Q 24.421875 6.59375 29.984375 6.59375
Q 38.421875 6.59375 43.015625 9.90625
Q 47.609375 13.234375 47.609375 19.390625
Q 47.609375 24.75 44.3125 27.78125
Q 41.015625 30.8125 33.5 32.328125
L 27.484375 33.5
Q 16.453125 35.6875 11.515625 40.375
Q 6.59375 45.0625 6.59375 53.421875
Q 6.59375 63.09375 13.40625 68.65625
Q 20.21875 74.21875 32.171875 74.21875
Q 37.3125 74.21875 42.625 73.28125
Q 47.953125 72.359375 53.515625 70.515625
z
" id="DejaVuSans-83"/>
      <path d="M 9.8125 72.90625
L 55.90625 72.90625
L 55.90625 64.59375
L 19.671875 64.59375
L 19.671875 43.015625
L 54.390625 43.015625
L 54.390625 34.71875
L 19.671875 34.71875
L 19.671875 8.296875
L 56.78125 8.296875
L 56.78125 0
L 9.8125 0
z
" id="DejaVuSans-69"/>
      <path d="M 34.1875 63.1875
L 20.796875 26.90625
L 47.609375 26.90625
z
M 28.609375 72.90625
L 39.796875 72.90625
L 67.578125 0
L 57.328125 0
L 50.6875 18.703125
L 17.828125 18.703125
L 11.1875 0
L 0.78125 0
z
" id="DejaVuSans-65"/>
      <path id="DejaVuSans-32"/>
      <path d="M 18.109375 8.203125
L 18.109375 -20.796875
L 9.078125 -20.796875
L 9.078125 54.6875
L 18.109375 54.6875
L 18.109375 46.390625
Q 20.953125 51.265625 25.265625 53.625
Q 29.59375 56 35.59375 56
Q 45.5625 56 51.78125 48.09375
Q 58.015625 40.1875 58.015625 27.296875
Q 58.015625 14.40625 51.78125 6.484375
Q 45.5625 -1.421875 35.59375 -1.421875
Q 29.59375 -1.421875 25.265625 0.953125
Q 20.953125 3.328125 18.109375 8.203125
z
M 48.6875 27.296875
Q 48.6875 37.203125 44.609375 42.84375
Q 40.53125 48.484375 33.40625 48.484375
Q 26.265625 48.484375 22.1875 42.84375
Q 18.109375 37.203125 18.109375 27.296875
Q 18.109375 17.390625 22.1875 11.75
Q 26.265625 6.109375 33.40625 6.109375
Q 40.53125 6.109375 44.609375 11.75
Q 48.6875 17.390625 48.6875 27.296875
z
" id="DejaVuSans-112"/>
      <path d="M 34.28125 27.484375
Q 23.390625 27.484375 19.1875 25
Q 14.984375 22.515625 14.984375 16.5
Q 14.984375 11.71875 18.140625 8.90625
Q 21.296875 6.109375 26.703125 6.109375
Q 34.1875 6.109375 38.703125 11.40625
Q 43.21875 16.703125 43.21875 25.484375
L 43.21875 27.484375
z
M 52.203125 31.203125
L 52.203125 0
L 43.21875 0
L 43.21875 8.296875
Q 40.140625 3.328125 35.546875 0.953125
Q 30.953125 -1.421875 24.3125 -1.421875
Q 15.921875 -1.421875 10.953125 3.296875
Q 6 8.015625 6 15.921875
Q 6 25.140625 12.171875 29.828125
Q 18.359375 34.515625 30.609375 34.515625
L 43.21875 34.515625
L 43.21875 35.40625
Q 43.21875 41.609375 39.140625 45
Q 35.0625 48.390625 27.6875 48.390625
Q 23 48.390625 18.546875 47.265625
Q 14.109375 46.140625 10.015625 43.890625
L 10.015625 52.203125
Q 14.9375 54.109375 19.578125 55.046875
Q 24.21875 56 28.609375 56
Q 40.484375 56 46.34375 49.84375
Q 52.203125 43.703125 52.203125 31.203125
z
" id="DejaVuSans-97"/>
      <path d="M 18.3125 70.21875
L 18.3125 54.6875
L 36.8125 54.6875
L 36.8125 47.703125
L 18.3125 47.703125
L 18.3125 18.015625
Q 18.3125 11.328125 20.140625 9.421875
Q 21.96875 7.515625 27.59375 7.515625
L 36.8125 7.515625
L 36.8125 0
L 27.59375 0
Q 17.1875 0 13.234375 3.875
Q 9.28125 7.765625 9.28125 18.015625
L 9.28125 47.703125
L 2.6875 47.703125
L 2.6875 54.6875
L 9.28125 54.6875
L 9.28125 70.21875
z
" id="DejaVuSans-116"/>
      <path d="M 54.890625 33.015625
L 54.890625 0
L 45.90625 0
L 45.90625 32.71875
Q 45.90625 40.484375 42.875 44.328125
Q 39.84375 48.1875 33.796875 48.1875
Q 26.515625 48.1875 22.3125 43.546875
Q 18.109375 38.921875 18.109375 30.90625
L 18.109375 0
L 9.078125 0
L 9.078125 75.984375
L 18.109375 75.984375
L 18.109375 46.1875
Q 21.34375 51.125 25.703125 53.5625
Q 30.078125 56 35.796875 56
Q 45.21875 56 50.046875 50.171875
Q 54.890625 44.34375 54.890625 33.015625
z
" id="DejaVuSans-104"/>
      <path d="M 4.203125 54.6875
L 13.1875 54.6875
L 24.421875 12.015625
L 35.59375 54.6875
L 46.1875 54.6875
L 57.421875 12.015625
L 68.609375 54.6875
L 77.59375 54.6875
L 63.28125 0
L 52.6875 0
L 40.921875 44.828125
L 29.109375 0
L 18.5 0
z
" id="DejaVuSans-119"/>
      <path d="M 32.171875 -5.078125
Q 28.375 -14.84375 24.75 -17.8125
Q 21.140625 -20.796875 15.09375 -20.796875
L 7.90625 -20.796875
L 7.90625 -13.28125
L 13.1875 -13.28125
Q 16.890625 -13.28125 18.9375 -11.515625
Q 21 -9.765625 23.484375 -3.21875
L 25.09375 0.875
L 2.984375 54.6875
L 12.5 54.6875
L 29.59375 11.921875
L 46.6875 54.6875
L 56.203125 54.6875
z
" id="DejaVuSans-121"/>
      <path d="M 41.109375 46.296875
Q 39.59375 47.171875 37.8125 47.578125
Q 36.03125 48 33.890625 48
Q 26.265625 48 22.1875 43.046875
Q 18.109375 38.09375 18.109375 28.8125
L 18.109375 0
L 9.078125 0
L 9.078125 54.6875
L 18.109375 54.6875
L 18.109375 46.1875
Q 20.953125 51.171875 25.484375 53.578125
Q 30.03125 56 36.53125 56
Q 37.453125 56 38.578125 55.875
Q 39.703125 55.765625 41.0625 55.515625
z
" id="DejaVuSans-114"/>
      <path d="M 54.890625 33.015625
L 54.890625 0
L 45.90625 0
L 45.90625 32.71875
Q 45.90625 40.484375 42.875 44.328125
Q 39.84375 48.1875 33.796875 48.1875
Q 26.515625 48.1875 22.3125 43.546875
Q 18.109375 38.921875 18.109375 30.90625
L 18.109375 0
L 9.078125 0
L 9.078125 54.6875
L 18.109375 54.6875
L 18.109375 46.1875
Q 21.34375 51.125 25.703125 53.5625
Q 30.078125 56 35.796875 56
Q 45.21875 56 50.046875 50.171875
Q 54.890625 44.34375 54.890625 33.015625
z
" id="DejaVuSans-110"/>
      <path d="M 9.078125 75.984375
L 18.109375 75.984375
L 18.109375 31.109375
L 44.921875 54.6875
L 56.390625 54.6875
L 27.390625 29.109375
L 57.625 0
L 45.90625 0
L 18.109375 26.703125
L 18.109375 0
L 9.078125 0
z
" id="DejaVuSans-107"/>
      <path d="M 9.421875 54.6875
L 18.40625 54.6875
L 18.40625 0
L 9.421875 0
z
M 9.421875 75.984375
L 18.40625 75.984375
L 18.40625 64.59375
L 9.421875 64.59375
z
" id="DejaVuSans-105"/>
      <path d="M 45.40625 27.984375
Q 45.40625 37.75 41.375 43.109375
Q 37.359375 48.484375 30.078125 48.484375
Q 22.859375 48.484375 18.828125 43.109375
Q 14.796875 37.75 14.796875 27.984375
Q 14.796875 18.265625 18.828125 12.890625
Q 22.859375 7.515625 30.078125 7.515625
Q 37.359375 7.515625 41.375 12.890625
Q 45.40625 18.265625 45.40625 27.984375
z
M 54.390625 6.78125
Q 54.390625 -7.171875 48.1875 -13.984375
Q 42 -20.796875 29.203125 -20.796875
Q 24.46875 -20.796875 20.265625 -20.09375
Q 16.0625 -19.390625 12.109375 -17.921875
L 12.109375 -9.1875
Q 16.0625 -11.328125 19.921875 -12.34375
Q 23.78125 -13.375 27.78125 -13.375
Q 36.625 -13.375 41.015625 -8.765625
Q 45.40625 -4.15625 45.40625 5.171875
L 45.40625 9.625
Q 42.625 4.78125 38.28125 2.390625
Q 33.9375 0 27.875 0
Q 17.828125 0 11.671875 7.65625
Q 5.515625 15.328125 5.515625 27.984375
Q 5.515625 40.671875 11.671875 48.328125
Q 17.828125 56 27.875 56
Q 33.9375 56 38.28125 53.609375
Q 42.625 51.21875 45.40625 46.390625
L 45.40625 54.6875
L 54.390625 54.6875
z
" id="DejaVuSans-103"/>
     </defs>
     <g transform="translate(133.769844 319.056782)scale(0.15 -0.15)">
      <use xlink:href="#DejaVuSans-71"/>
      <use x="77.490234" xlink:href="#DejaVuSans-83"/>
      <use x="140.966797" xlink:href="#DejaVuSans-69"/>
      <use x="204.150391" xlink:href="#DejaVuSans-65"/>
      <use x="272.558594" xlink:href="#DejaVuSans-32"/>
      <use x="304.345703" xlink:href="#DejaVuSans-112"/>
      <use x="367.822266" xlink:href="#DejaVuSans-97"/>
      <use x="429.101562" xlink:href="#DejaVuSans-116"/>
      <use x="468.310547" xlink:href="#DejaVuSans-104"/>
      <use x="531.689453" xlink:href="#DejaVuSans-119"/>
      <use x="613.476562" xlink:href="#DejaVuSans-97"/>
      <use x="674.755859" xlink:href="#DejaVuSans-121"/>
      <use x="733.935547" xlink:href="#DejaVuSans-32"/>
      <use x="765.722656" xlink:href="#DejaVuSans-114"/>
      <use x="806.835938" xlink:href="#DejaVuSans-97"/>
      <use x="868.115234" xlink:href="#DejaVuSans-110"/>
      <use x="931.494141" xlink:href="#DejaVuSans-107"/>
      <use x="989.404297" xlink:href="#DejaVuSans-105"/>
      <use x="1017.1875" xlink:href="#DejaVuSans-110"/>
      <use x="1080.566406" xlink:href="#DejaVuSans-103"/>
     </g>
    </g>
   </g>
   <g id="matplotlib.axis_2">
    <g id="ytick_1">
     <g id="line2d_19">
      <path clip-path="url(#pe55cf96158)" d="M 46.772188 274.599376
L 403.892188 274.599376
" style="fill:none;stroke:#e5e5e5;stroke-width:0.8;"/>
     </g>
     <g id="line2d_20">
      <path d="M 46.772188 274.599376
" style="fill:none;stroke:#000000;stroke-width:1.5;"/>
      <defs>
       <path d="M 0 0
L -2.75 0
" id="m4e0a7274ee" style="stroke:#000000;"/>
      </defs>
      <g>
       <use style="stroke:#000000;" x="46.772188" xlink:href="#m4e0a7274ee" y="274.599376"/>
      </g>
     </g>
     <g id="text_7">
      <!-- 0 -->
      <g style="fill:#4d4d4d;" transform="translate(34.187188 277.910626)scale(0.12 -0.12)">
       <use xlink:href="#DejaVuSans-48"/>
      </g>
     </g>
    </g>
    <g id="ytick_2">
     <g id="line2d_21">
      <path clip-path="url(#pe55cf96158)" d="M 46.772188 214.119376
L 403.892188 214.119376
" style="fill:none;stroke:#e5e5e5;stroke-width:0.8;"/>
     </g>
     <g id="line2d_22">
      <path d="M 46.772188 214.119376
" style="fill:none;stroke:#000000;stroke-width:1.5;"/>
      <g>
       <use style="stroke:#000000;" x="46.772188" xlink:href="#m4e0a7274ee" y="214.119376"/>
      </g>
     </g>
     <g id="text_8">
      <!-- 25 -->
      <g style="fill:#4d4d4d;" transform="translate(26.552188 217.430626)scale(0.12 -0.12)">
       <use xlink:href="#DejaVuSans-50"/>
       <use x="63.623047" xlink:href="#DejaVuSans-53"/>
      </g>
     </g>
    </g>
    <g id="ytick_3">
     <g id="line2d_23">
      <path clip-path="url(#pe55cf96158)" d="M 46.772188 153.639376
L 403.892188 153.639376
" style="fill:none;stroke:#e5e5e5;stroke-width:0.8;"/>
     </g>
     <g id="line2d_24">
      <path d="M 46.772188 153.639376
" style="fill:none;stroke:#000000;stroke-width:1.5;"/>
      <g>
       <use style="stroke:#000000;" x="46.772188" xlink:href="#m4e0a7274ee" y="153.639376"/>
      </g>
     </g>
     <g id="text_9">
      <!-- 50 -->
      <g style="fill:#4d4d4d;" transform="translate(26.552188 156.950626)scale(0.12 -0.12)">
       <use xlink:href="#DejaVuSans-53"/>
       <use x="63.623047" xlink:href="#DejaVuSans-48"/>
      </g>
     </g>
    </g>
    <g id="ytick_4">
     <g id="line2d_25">
      <path clip-path="url(#pe55cf96158)" d="M 46.772188 93.159376
L 403.892188 93.159376
" style="fill:none;stroke:#e5e5e5;stroke-width:0.8;"/>
     </g>
     <g id="line2d_26">
      <path d="M 46.772188 93.159376
" style="fill:none;stroke:#000000;stroke-width:1.5;"/>
      <g>
       <use style="stroke:#000000;" x="46.772188" xlink:href="#m4e0a7274ee" y="93.159376"/>
      </g>
     </g>
     <g id="text_10">
      <!-- 75 -->
      <g style="fill:#4d4d4d;" transform="translate(26.552188 96.470626)scale(0.12 -0.12)">
       <use xlink:href="#DejaVuSans-55"/>
       <use x="63.623047" xlink:href="#DejaVuSans-53"/>
      </g>
     </g>
    </g>
    <g id="ytick_5">
     <g id="line2d_27">
      <path clip-path="url(#pe55cf96158)" d="M 46.772188 32.679376
L 403.892188 32.679376
" style="fill:none;stroke:#e5e5e5;stroke-width:0.8;"/>
     </g>
     <g id="line2d_28">
      <path d="M 46.772188 32.679376
" style="fill:none;stroke:#000000;stroke-width:1.5;"/>
      <g>
       <use style="stroke:#000000;" x="46.772188" xlink:href="#m4e0a7274ee" y="32.679376"/>
      </g>
     </g>
     <g id="text_11">
      <!-- 100 -->
      <g style="fill:#4d4d4d;" transform="translate(18.917188 35.990626)scale(0.12 -0.12)">
       <use xlink:href="#DejaVuSans-49"/>
       <use x="63.623047" xlink:href="#DejaVuSans-48"/>
       <use x="127.246094" xlink:href="#DejaVuSans-48"/>
      </g>
     </g>
    </g>
    <g id="ytick_6">
     <g id="line2d_29">
      <path clip-path="url(#pe55cf96158)" d="M 46.772188 244.359376
L 403.892188 244.359376
" style="fill:none;stroke:#fafafa;"/>
     </g>
     <g id="line2d_30">
      <path d="M 46.772188 244.359376
" style="fill:none;stroke:#000000;stroke-width:1.5;"/>
     </g>
    </g>
    <g id="ytick_7">
     <g id="line2d_31">
      <path clip-path="url(#pe55cf96158)" d="M 46.772188 183.879376
L 403.892188 183.879376
" style="fill:none;stroke:#fafafa;"/>
     </g>
     <g id="line2d_32">
      <path d="M 46.772188 183.879376
" style="fill:none;stroke:#000000;stroke-width:1.5;"/>
     </g>
    </g>
    <g id="ytick_8">
     <g id="line2d_33">
      <path clip-path="url(#pe55cf96158)" d="M 46.772188 123.399376
L 403.892188 123.399376
" style="fill:none;stroke:#fafafa;"/>
     </g>
     <g id="line2d_34">
      <path d="M 46.772188 123.399376
" style="fill:none;stroke:#000000;stroke-width:1.5;"/>
     </g>
    </g>
    <g id="ytick_9">
     <g id="line2d_35">
      <path clip-path="url(#pe55cf96158)" d="M 46.772188 62.919376
L 403.892188 62.919376
" style="fill:none;stroke:#fafafa;"/>
     </g>
     <g id="line2d_36">
      <path d="M 46.772188 62.919376
" style="fill:none;stroke:#000000;stroke-width:1.5;"/>
     </g>
    </g>
    <g id="text_12">
     <!-- GSVA pathway ranking -->
     <defs>
      <path d="M 28.609375 0
L 0.78125 72.90625
L 11.078125 72.90625
L 34.1875 11.53125
L 57.328125 72.90625
L 67.578125 72.90625
L 39.796875 0
z
" id="DejaVuSans-86"/>
     </defs>
     <g transform="translate(11.397656 238.098095)rotate(-90)scale(0.15 -0.15)">
      <use xlink:href="#DejaVuSans-71"/>
      <use x="77.490234" xlink:href="#DejaVuSans-83"/>
      <use x="140.966797" xlink:href="#DejaVuSans-86"/>
      <use x="209.28125" xlink:href="#DejaVuSans-65"/>
      <use x="277.689453" xlink:href="#DejaVuSans-32"/>
      <use x="309.476562" xlink:href="#DejaVuSans-112"/>
      <use x="372.953125" xlink:href="#DejaVuSans-97"/>
      <use x="434.232422" xlink:href="#DejaVuSans-116"/>
      <use x="473.441406" xlink:href="#DejaVuSans-104"/>
      <use x="536.820312" xlink:href="#DejaVuSans-119"/>
      <use x="618.607422" xlink:href="#DejaVuSans-97"/>
      <use x="679.886719" xlink:href="#DejaVuSans-121"/>
      <use x="739.066406" xlink:href="#DejaVuSans-32"/>
      <use x="770.853516" xlink:href="#DejaVuSans-114"/>
      <use x="811.966797" xlink:href="#DejaVuSans-97"/>
      <use x="873.246094" xlink:href="#DejaVuSans-110"/>
      <use x="936.625" xlink:href="#DejaVuSans-107"/>
      <use x="994.535156" xlink:href="#DejaVuSans-105"/>
      <use x="1022.318359" xlink:href="#DejaVuSans-110"/>
      <use x="1085.697266" xlink:href="#DejaVuSans-103"/>
     </g>
    </g>
   </g>
   <g id="PathCollection_1">
    <path clip-path="url(#pe55cf96158)" d="M 149.57946 83.823258
C 150.04952 83.823258 150.500392 83.636501 150.832774 83.304119
C 151.165157 82.971736 151.351914 82.520865 151.351914 82.050804
C 151.351914 81.580744 151.165157 81.129873 150.832774 80.79749
C 150.500392 80.465107 150.04952 80.278351 149.57946 80.278351
C 149.1094 80.278351 148.658529 80.465107 148.326146 80.79749
C 147.993763 81.129873 147.807006 81.580744 147.807006 82.050804
C 147.807006 82.520865 147.993763 82.971736 148.326146 83.304119
C 148.658529 83.636501 149.1094 83.823258 149.57946 83.823258
z
" style="stroke:#000000;stroke-width:0.886227;"/>
    <path clip-path="url(#pe55cf96158)" d="M 63.004915 133.194687
C 63.474975 133.194687 63.925846 133.00793 64.258229 132.675547
C 64.590612 132.343164 64.777369 131.892293 64.777369 131.422233
C 64.777369 130.952173 64.590612 130.501302 64.258229 130.168919
C 63.925846 129.836536 63.474975 129.649779 63.004915 129.649779
C 62.534855 129.649779 62.083983 129.836536 61.751601 130.168919
C 61.419218 130.501302 61.232461 130.952173 61.232461 131.422233
C 61.232461 131.892293 61.419218 132.343164 61.751601 132.675547
C 62.083983 133.00793 62.534855 133.194687 63.004915 133.194687
z
" style="stroke:#000000;stroke-width:0.886227;"/>
    <path clip-path="url(#pe55cf96158)" d="M 142.364915 69.01183
C 142.834975 69.01183 143.285846 68.825073 143.618229 68.49269
C 143.950612 68.160307 144.137369 67.709436 144.137369 67.239376
C 144.137369 66.769316 143.950612 66.318444 143.618229 65.986062
C 143.285846 65.653679 142.834975 65.466922 142.364915 65.466922
C 141.894855 65.466922 141.443983 65.653679 141.111601 65.986062
C 140.779218 66.318444 140.592461 66.769316 140.592461 67.239376
C 140.592461 67.709436 140.779218 68.160307 141.111601 68.49269
C 141.443983 68.825073 141.894855 69.01183 142.364915 69.01183
z
" style="stroke:#000000;stroke-width:0.886227;"/>
    <path clip-path="url(#pe55cf96158)" d="M 286.655824 54.200401
C 287.125884 54.200401 287.576755 54.013644 287.909138 53.681261
C 288.241521 53.348879 288.428278 52.898008 288.428278 52.427947
C 288.428278 51.957887 288.241521 51.507016 287.909138 51.174633
C 287.576755 50.84225 287.125884 50.655493 286.655824 50.655493
C 286.185764 50.655493 285.734893 50.84225 285.40251 51.174633
C 285.070127 51.507016 284.88337 51.957887 284.88337 52.427947
C 284.88337 52.898008 285.070127 53.348879 285.40251 53.681261
C 285.734893 54.013644 286.185764 54.200401 286.655824 54.200401
z
" style="stroke:#000000;stroke-width:0.886227;"/>
    <path clip-path="url(#pe55cf96158)" d="M 373.230369 59.137544
C 373.70043 59.137544 374.151301 58.950787 374.483683 58.618404
C 374.816066 58.286021 375.002823 57.83515 375.002823 57.36509
C 375.002823 56.89503 374.816066 56.444159 374.483683 56.111776
C 374.151301 55.779393 373.70043 55.592636 373.230369 55.592636
C 372.760309 55.592636 372.309438 55.779393 371.977055 56.111776
C 371.644672 56.444159 371.457915 56.89503 371.457915 57.36509
C 371.457915 57.83515 371.644672 58.286021 371.977055 58.618404
C 372.309438 58.950787 372.760309 59.137544 373.230369 59.137544
z
" style="stroke:#000000;stroke-width:0.886227;"/>
    <path clip-path="url(#pe55cf96158)" d="M 99.077642 128.257544
C 99.547702 128.257544 99.998573 128.070787 100.330956 127.738404
C 100.663339 127.406021 100.850096 126.95515 100.850096 126.48509
C 100.850096 126.01503 100.663339 125.564159 100.330956 125.231776
C 99.998573 124.899393 99.547702 124.712636 99.077642 124.712636
C 98.607582 124.712636 98.156711 124.899393 97.824328 125.231776
C 97.491945 125.564159 97.305188 126.01503 97.305188 126.48509
C 97.305188 126.95515 97.491945 127.406021 97.824328 127.738404
C 98.156711 128.070787 98.607582 128.257544 99.077642 128.257544
z
" style="stroke:#000000;stroke-width:0.886227;"/>
    <path clip-path="url(#pe55cf96158)" d="M 63.004915 34.45183
C 63.474975 34.45183 63.925846 34.265073 64.258229 33.93269
C 64.590612 33.600307 64.777369 33.149436 64.777369 32.679376
C 64.777369 32.209316 64.590612 31.758444 64.258229 31.426062
C 63.925846 31.093679 63.474975 30.906922 63.004915 30.906922
C 62.534855 30.906922 62.083983 31.093679 61.751601 31.426062
C 61.419218 31.758444 61.232461 32.209316 61.232461 32.679376
C 61.232461 33.149436 61.419218 33.600307 61.751601 33.93269
C 62.083983 34.265073 62.534855 34.45183 63.004915 34.45183
z
" style="stroke:#000000;stroke-width:0.886227;"/>
    <path clip-path="url(#pe55cf96158)" d="M 171.223097 49.263258
C 171.693157 49.263258 172.144028 49.076501 172.476411 48.744119
C 172.808794 48.411736 172.99555 47.960865 172.99555 47.490804
C 172.99555 47.020744 172.808794 46.569873 172.476411 46.23749
C 172.144028 45.905107 171.693157 45.718351 171.223097 45.718351
C 170.753036 45.718351 170.302165 45.905107 169.969782 46.23749
C 169.6374 46.569873 169.450643 47.020744 169.450643 47.490804
C 169.450643 47.960865 169.6374 48.411736 169.969782 48.744119
C 170.302165 49.076501 170.753036 49.263258 171.223097 49.263258
z
" style="stroke:#000000;stroke-width:0.886227;"/>
    <path clip-path="url(#pe55cf96158)" d="M 113.506733 148.006115
C 113.976793 148.006115 114.427664 147.819358 114.760047 147.486976
C 115.09243 147.154593 115.279187 146.703722 115.279187 146.233662
C 115.279187 145.763601 115.09243 145.31273 114.760047 144.980347
C 114.427664 144.647965 113.976793 144.461208 113.506733 144.461208
C 113.036673 144.461208 112.585802 144.647965 112.253419 144.980347
C 111.921036 145.31273 111.734279 145.763601 111.734279 146.233662
C 111.734279 146.703722 111.921036 147.154593 112.253419 147.486976
C 112.585802 147.819358 113.036673 148.006115 113.506733 148.006115
z
" style="stroke:#000000;stroke-width:0.886227;"/>
    <path clip-path="url(#pe55cf96158)" d="M 387.65946 103.57183
C 388.12952 103.57183 388.580392 103.385073 388.912774 103.05269
C 389.245157 102.720307 389.431914 102.269436 389.431914 101.799376
C 389.431914 101.329316 389.245157 100.878444 388.912774 100.546062
C 388.580392 100.213679 388.12952 100.026922 387.65946 100.026922
C 387.1894 100.026922 386.738529 100.213679 386.406146 100.546062
C 386.073763 100.878444 385.887006 101.329316 385.887006 101.799376
C 385.887006 102.269436 386.073763 102.720307 386.406146 103.05269
C 386.738529 103.385073 387.1894 103.57183 387.65946 103.57183
z
" style="stroke:#000000;stroke-width:0.886227;"/>
    <path clip-path="url(#pe55cf96158)" d="M 228.93946 39.388973
C 229.40952 39.388973 229.860392 39.202216 230.192774 38.869833
C 230.525157 38.53745 230.711914 38.086579 230.711914 37.616519
C 230.711914 37.146458 230.525157 36.695587 230.192774 36.363205
C 229.860392 36.030822 229.40952 35.844065 228.93946 35.844065
C 228.4694 35.844065 228.018529 36.030822 227.686146 36.363205
C 227.353763 36.695587 227.167006 37.146458 227.167006 37.616519
C 227.167006 38.086579 227.353763 38.53745 227.686146 38.869833
C 228.018529 39.202216 228.4694 39.388973 228.93946 39.388973
z
" style="stroke:#000000;stroke-width:0.886227;"/>
    <path clip-path="url(#pe55cf96158)" d="M 272.226733 177.628973
C 272.696793 177.628973 273.147664 177.442216 273.480047 177.109833
C 273.81243 176.77745 273.999187 176.326579 273.999187 175.856519
C 273.999187 175.386458 273.81243 174.935587 273.480047 174.603205
C 273.147664 174.270822 272.696793 174.084065 272.226733 174.084065
C 271.756673 174.084065 271.305802 174.270822 270.973419 174.603205
C 270.641036 174.935587 270.454279 175.386458 270.454279 175.856519
C 270.454279 176.326579 270.641036 176.77745 270.973419 177.109833
C 271.305802 177.442216 271.756673 177.628973 272.226733 177.628973
z
" style="stroke:#000000;stroke-width:0.886227;"/>
    <path clip-path="url(#pe55cf96158)" d="M 63.004915 157.880401
C 63.474975 157.880401 63.925846 157.693644 64.258229 157.361261
C 64.590612 157.028879 64.777369 156.578008 64.777369 156.107947
C 64.777369 155.637887 64.590612 155.187016 64.258229 154.854633
C 63.925846 154.52225 63.474975 154.335493 63.004915 154.335493
C 62.534855 154.335493 62.083983 154.52225 61.751601 154.854633
C 61.419218 155.187016 61.232461 155.637887 61.232461 156.107947
C 61.232461 156.578008 61.419218 157.028879 61.751601 157.361261
C 62.083983 157.693644 62.534855 157.880401 63.004915 157.880401
z
" style="stroke:#000000;stroke-width:0.886227;"/>
    <path clip-path="url(#pe55cf96158)" d="M 120.721278 227.000401
C 121.191339 227.000401 121.64221 226.813644 121.974593 226.481261
C 122.306975 226.148879 122.493732 225.698008 122.493732 225.227947
C 122.493732 224.757887 122.306975 224.307016 121.974593 223.974633
C 121.64221 223.64225 121.191339 223.455493 120.721278 223.455493
C 120.251218 223.455493 119.800347 223.64225 119.467964 223.974633
C 119.135581 224.307016 118.948825 224.757887 118.948825 225.227947
C 118.948825 225.698008 119.135581 226.148879 119.467964 226.481261
C 119.800347 226.813644 120.251218 227.000401 120.721278 227.000401
z
" style="stroke:#000000;stroke-width:0.886227;"/>
    <path clip-path="url(#pe55cf96158)" d="M 63.004915 152.943258
C 63.474975 152.943258 63.925846 152.756501 64.258229 152.424119
C 64.590612 152.091736 64.777369 151.640865 64.777369 151.170804
C 64.777369 150.700744 64.590612 150.249873 64.258229 149.91749
C 63.925846 149.585107 63.474975 149.398351 63.004915 149.398351
C 62.534855 149.398351 62.083983 149.585107 61.751601 149.91749
C 61.419218 150.249873 61.232461 150.700744 61.232461 151.170804
C 61.232461 151.640865 61.419218 152.091736 61.751601 152.424119
C 62.083983 152.756501 62.534855 152.943258 63.004915 152.943258
z
" style="stroke:#000000;stroke-width:0.886227;"/>
    <path clip-path="url(#pe55cf96158)" d="M 380.444915 143.068973
C 380.914975 143.068973 381.365846 142.882216 381.698229 142.549833
C 382.030612 142.21745 382.217369 141.766579 382.217369 141.296519
C 382.217369 140.826458 382.030612 140.375587 381.698229 140.043205
C 381.365846 139.710822 380.914975 139.524065 380.444915 139.524065
C 379.974855 139.524065 379.523983 139.710822 379.191601 140.043205
C 378.859218 140.375587 378.672461 140.826458 378.672461 141.296519
C 378.672461 141.766579 378.859218 142.21745 379.191601 142.549833
C 379.523983 142.882216 379.974855 143.068973 380.444915 143.068973
z
" style="stroke:#000000;stroke-width:0.886227;"/>
    <path clip-path="url(#pe55cf96158)" d="M 63.004915 212.188973
C 63.474975 212.188973 63.925846 212.002216 64.258229 211.669833
C 64.590612 211.33745 64.777369 210.886579 64.777369 210.416519
C 64.777369 209.946458 64.590612 209.495587 64.258229 209.163205
C 63.925846 208.830822 63.474975 208.644065 63.004915 208.644065
C 62.534855 208.644065 62.083983 208.830822 61.751601 209.163205
C 61.419218 209.495587 61.232461 209.946458 61.232461 210.416519
C 61.232461 210.886579 61.419218 211.33745 61.751601 211.669833
C 62.083983 212.002216 62.534855 212.188973 63.004915 212.188973
z
" style="stroke:#000000;stroke-width:0.886227;"/>
    <path clip-path="url(#pe55cf96158)" d="M 156.794006 256.623258
C 157.264066 256.623258 157.714937 256.436501 158.04732 256.104119
C 158.379703 255.771736 158.56646 255.320865 158.56646 254.850804
C 158.56646 254.380744 158.379703 253.929873 158.04732 253.59749
C 157.714937 253.265107 157.264066 253.078351 156.794006 253.078351
C 156.323945 253.078351 155.873074 253.265107 155.540692 253.59749
C 155.208309 253.929873 155.021552 254.380744 155.021552 254.850804
C 155.021552 255.320865 155.208309 255.771736 155.540692 256.104119
C 155.873074 256.436501 156.323945 256.623258 156.794006 256.623258
z
" style="stroke:#000000;stroke-width:0.886227;"/>
    <path clip-path="url(#pe55cf96158)" d="M 344.372188 78.886115
C 344.842248 78.886115 345.293119 78.699358 345.625502 78.366976
C 345.957884 78.034593 346.144641 77.583722 346.144641 77.113662
C 346.144641 76.643601 345.957884 76.19273 345.625502 75.860347
C 345.293119 75.527965 344.842248 75.341208 344.372188 75.341208
C 343.902127 75.341208 343.451256 75.527965 343.118873 75.860347
C 342.786491 76.19273 342.599734 76.643601 342.599734 77.113662
C 342.599734 77.583722 342.786491 78.034593 343.118873 78.366976
C 343.451256 78.699358 343.902127 78.886115 344.372188 78.886115
z
" style="stroke:#000000;stroke-width:0.886227;"/>
    <path clip-path="url(#pe55cf96158)" d="M 221.724915 88.760401
C 222.194975 88.760401 222.645846 88.573644 222.978229 88.241261
C 223.310612 87.908879 223.497369 87.458008 223.497369 86.987947
C 223.497369 86.517887 223.310612 86.067016 222.978229 85.734633
C 222.645846 85.40225 222.194975 85.215493 221.724915 85.215493
C 221.254855 85.215493 220.803983 85.40225 220.471601 85.734633
C 220.139218 86.067016 219.952461 86.517887 219.952461 86.987947
C 219.952461 87.458008 220.139218 87.908879 220.471601 88.241261
C 220.803983 88.573644 221.254855 88.760401 221.724915 88.760401
z
" style="stroke:#000000;stroke-width:0.886227;"/>
    <path clip-path="url(#pe55cf96158)" d="M 301.084915 251.686115
C 301.554975 251.686115 302.005846 251.499358 302.338229 251.166976
C 302.670612 250.834593 302.857369 250.383722 302.857369 249.913662
C 302.857369 249.443601 302.670612 248.99273 302.338229 248.660347
C 302.005846 248.327965 301.554975 248.141208 301.084915 248.141208
C 300.614855 248.141208 300.163983 248.327965 299.831601 248.660347
C 299.499218 248.99273 299.312461 249.443601 299.312461 249.913662
C 299.312461 250.383722 299.499218 250.834593 299.831601 251.166976
C 300.163983 251.499358 300.614855 251.686115 301.084915 251.686115
z
" style="stroke:#000000;stroke-width:0.886227;"/>
    <path clip-path="url(#pe55cf96158)" d="M 63.004915 246.748973
C 63.474975 246.748973 63.925846 246.562216 64.258229 246.229833
C 64.590612 245.89745 64.777369 245.446579 64.777369 244.976519
C 64.777369 244.506458 64.590612 244.055587 64.258229 243.723205
C 63.925846 243.390822 63.474975 243.204065 63.004915 243.204065
C 62.534855 243.204065 62.083983 243.390822 61.751601 243.723205
C 61.419218 244.055587 61.232461 244.506458 61.232461 244.976519
C 61.232461 245.446579 61.419218 245.89745 61.751601 246.229833
C 62.083983 246.562216 62.534855 246.748973 63.004915 246.748973
z
" style="stroke:#000000;stroke-width:0.886227;"/>
    <path clip-path="url(#pe55cf96158)" d="M 243.368551 276.37183
C 243.838611 276.37183 244.289482 276.185073 244.621865 275.85269
C 244.954248 275.520307 245.141005 275.069436 245.141005 274.599376
C 245.141005 274.129316 244.954248 273.678444 244.621865 273.346062
C 244.289482 273.013679 243.838611 272.826922 243.368551 272.826922
C 242.898491 272.826922 242.44762 273.013679 242.115237 273.346062
C 241.782854 273.678444 241.596097 274.129316 241.596097 274.599376
C 241.596097 275.069436 241.782854 275.520307 242.115237 275.85269
C 242.44762 276.185073 242.898491 276.37183 243.368551 276.37183
z
" style="stroke:#000000;stroke-width:0.886227;"/>
    <path clip-path="url(#pe55cf96158)" d="M 265.012187 217.126115
C 265.482248 217.126115 265.933119 216.939358 266.265502 216.606976
C 266.597884 216.274593 266.784641 215.823722 266.784641 215.353662
C 266.784641 214.883601 266.597884 214.43273 266.265502 214.100347
C 265.933119 213.767965 265.482248 213.581208 265.012187 213.581208
C 264.542127 213.581208 264.091256 213.767965 263.758873 214.100347
C 263.426491 214.43273 263.239734 214.883601 263.239734 215.353662
C 263.239734 215.823722 263.426491 216.274593 263.758873 216.606976
C 264.091256 216.939358 264.542127 217.126115 265.012187 217.126115
z
" style="stroke:#000000;stroke-width:0.886227;"/>
    <path clip-path="url(#pe55cf96158)" d="M 337.157642 241.81183
C 337.627702 241.81183 338.078573 241.625073 338.410956 241.29269
C 338.743339 240.960307 338.930096 240.509436 338.930096 240.039376
C 338.930096 239.569316 338.743339 239.118444 338.410956 238.786062
C 338.078573 238.453679 337.627702 238.266922 337.157642 238.266922
C 336.687582 238.266922 336.236711 238.453679 335.904328 238.786062
C 335.571945 239.118444 335.385188 239.569316 335.385188 240.039376
C 335.385188 240.509436 335.571945 240.960307 335.904328 241.29269
C 336.236711 241.625073 336.687582 241.81183 337.157642 241.81183
z
" style="stroke:#000000;stroke-width:0.886227;"/>
    <path clip-path="url(#pe55cf96158)" d="M 358.801278 162.817544
C 359.271339 162.817544 359.72221 162.630787 360.054593 162.298404
C 360.386975 161.966021 360.573732 161.51515 360.573732 161.04509
C 360.573732 160.57503 360.386975 160.124159 360.054593 159.791776
C 359.72221 159.459393 359.271339 159.272636 358.801278 159.272636
C 358.331218 159.272636 357.880347 159.459393 357.547964 159.791776
C 357.215581 160.124159 357.028825 160.57503 357.028825 161.04509
C 357.028825 161.51515 357.215581 161.966021 357.547964 162.298404
C 357.880347 162.630787 358.331218 162.817544 358.801278 162.817544
z
" style="stroke:#000000;stroke-width:0.886227;"/>
    <path clip-path="url(#pe55cf96158)" d="M 322.728551 222.063258
C 323.198611 222.063258 323.649482 221.876501 323.981865 221.544119
C 324.314248 221.211736 324.501005 220.760865 324.501005 220.290804
C 324.501005 219.820744 324.314248 219.369873 323.981865 219.03749
C 323.649482 218.705107 323.198611 218.518351 322.728551 218.518351
C 322.258491 218.518351 321.80762 218.705107 321.475237 219.03749
C 321.142854 219.369873 320.956097 219.820744 320.956097 220.290804
C 320.956097 220.760865 321.142854 221.211736 321.475237 221.544119
C 321.80762 221.876501 322.258491 222.063258 322.728551 222.063258
z
" style="stroke:#000000;stroke-width:0.886227;"/>
    <path clip-path="url(#pe55cf96158)" d="M 366.015824 197.377544
C 366.485884 197.377544 366.936755 197.190787 367.269138 196.858404
C 367.601521 196.526021 367.788278 196.07515 367.788278 195.60509
C 367.788278 195.13503 367.601521 194.684159 367.269138 194.351776
C 366.936755 194.019393 366.485884 193.832636 366.015824 193.832636
C 365.545764 193.832636 365.094893 194.019393 364.76251 194.351776
C 364.430127 194.684159 364.24337 195.13503 364.24337 195.60509
C 364.24337 196.07515 364.430127 196.526021 364.76251 196.858404
C 365.094893 197.190787 365.545764 197.377544 366.015824 197.377544
z
" style="stroke:#000000;stroke-width:0.886227;"/>
    <path clip-path="url(#pe55cf96158)" d="M 106.292188 138.13183
C 106.762248 138.13183 107.213119 137.945073 107.545502 137.61269
C 107.877884 137.280307 108.064641 136.829436 108.064641 136.359376
C 108.064641 135.889316 107.877884 135.438444 107.545502 135.106062
C 107.213119 134.773679 106.762248 134.586922 106.292188 134.586922
C 105.822127 134.586922 105.371256 134.773679 105.038873 135.106062
C 104.706491 135.438444 104.519734 135.889316 104.519734 136.359376
C 104.519734 136.829436 104.706491 137.280307 105.038873 137.61269
C 105.371256 137.945073 105.822127 138.13183 106.292188 138.13183
z
" style="stroke:#000000;stroke-width:0.886227;"/>
    <path clip-path="url(#pe55cf96158)" d="M 185.652187 236.874687
C 186.122248 236.874687 186.573119 236.68793 186.905502 236.355547
C 187.237884 236.023164 187.424641 235.572293 187.424641 235.102233
C 187.424641 234.632173 187.237884 234.181302 186.905502 233.848919
C 186.573119 233.516536 186.122248 233.329779 185.652187 233.329779
C 185.182127 233.329779 184.731256 233.516536 184.398873 233.848919
C 184.066491 234.181302 183.879734 234.632173 183.879734 235.102233
C 183.879734 235.572293 184.066491 236.023164 184.398873 236.355547
C 184.731256 236.68793 185.182127 236.874687 185.652187 236.874687
z
" style="stroke:#000000;stroke-width:0.886227;"/>
    <path clip-path="url(#pe55cf96158)" d="M 207.295824 192.440401
C 207.765884 192.440401 208.216755 192.253644 208.549138 191.921261
C 208.881521 191.588879 209.068278 191.138008 209.068278 190.667947
C 209.068278 190.197887 208.881521 189.747016 208.549138 189.414633
C 208.216755 189.08225 207.765884 188.895493 207.295824 188.895493
C 206.825764 188.895493 206.374893 189.08225 206.04251 189.414633
C 205.710127 189.747016 205.52337 190.197887 205.52337 190.667947
C 205.52337 191.138008 205.710127 191.588879 206.04251 191.921261
C 206.374893 192.253644 206.825764 192.440401 207.295824 192.440401
z
" style="stroke:#000000;stroke-width:0.886227;"/>
    <path clip-path="url(#pe55cf96158)" d="M 192.866733 271.434687
C 193.336793 271.434687 193.787664 271.24793 194.120047 270.915547
C 194.45243 270.583164 194.639187 270.132293 194.639187 269.662233
C 194.639187 269.192173 194.45243 268.741302 194.120047 268.408919
C 193.787664 268.076536 193.336793 267.889779 192.866733 267.889779
C 192.396673 267.889779 191.945802 268.076536 191.613419 268.408919
C 191.281036 268.741302 191.094279 269.192173 191.094279 269.662233
C 191.094279 270.132293 191.281036 270.583164 191.613419 270.915547
C 191.945802 271.24793 192.396673 271.434687 192.866733 271.434687
z
" style="stroke:#000000;stroke-width:0.886227;"/>
    <path clip-path="url(#pe55cf96158)" d="M 178.437642 187.503258
C 178.907702 187.503258 179.358573 187.316501 179.690956 186.984119
C 180.023339 186.651736 180.210096 186.200865 180.210096 185.730804
C 180.210096 185.260744 180.023339 184.809873 179.690956 184.47749
C 179.358573 184.145107 178.907702 183.958351 178.437642 183.958351
C 177.967582 183.958351 177.516711 184.145107 177.184328 184.47749
C 176.851945 184.809873 176.665188 185.260744 176.665188 185.730804
C 176.665188 186.200865 176.851945 186.651736 177.184328 186.984119
C 177.516711 187.316501 177.967582 187.503258 178.437642 187.503258
z
" style="stroke:#000000;stroke-width:0.886227;"/>
    <path clip-path="url(#pe55cf96158)" d="M 279.441278 108.508973
C 279.911339 108.508973 280.36221 108.322216 280.694593 107.989833
C 281.026975 107.65745 281.213732 107.206579 281.213732 106.736519
C 281.213732 106.266458 281.026975 105.815587 280.694593 105.483205
C 280.36221 105.150822 279.911339 104.964065 279.441278 104.964065
C 278.971218 104.964065 278.520347 105.150822 278.187964 105.483205
C 277.855581 105.815587 277.668825 106.266458 277.668825 106.736519
C 277.668825 107.206579 277.855581 107.65745 278.187964 107.989833
C 278.520347 108.322216 278.971218 108.508973 279.441278 108.508973
z
" style="stroke:#000000;stroke-width:0.886227;"/>
    <path clip-path="url(#pe55cf96158)" d="M 135.150369 44.326115
C 135.62043 44.326115 136.071301 44.139358 136.403683 43.806976
C 136.736066 43.474593 136.922823 43.023722 136.922823 42.553662
C 136.922823 42.083601 136.736066 41.63273 136.403683 41.300347
C 136.071301 40.967965 135.62043 40.781208 135.150369 40.781208
C 134.680309 40.781208 134.229438 40.967965 133.897055 41.300347
C 133.564672 41.63273 133.377915 42.083601 133.377915 42.553662
C 133.377915 43.023722 133.564672 43.474593 133.897055 43.806976
C 134.229438 44.139358 134.680309 44.326115 135.150369 44.326115
z
" style="stroke:#000000;stroke-width:0.886227;"/>
    <path clip-path="url(#pe55cf96158)" d="M 257.797642 172.69183
C 258.267702 172.69183 258.718573 172.505073 259.050956 172.17269
C 259.383339 171.840307 259.570096 171.389436 259.570096 170.919376
C 259.570096 170.449316 259.383339 169.998444 259.050956 169.666062
C 258.718573 169.333679 258.267702 169.146922 257.797642 169.146922
C 257.327582 169.146922 256.876711 169.333679 256.544328 169.666062
C 256.211945 169.998444 256.025188 170.449316 256.025188 170.919376
C 256.025188 171.389436 256.211945 171.840307 256.544328 172.17269
C 256.876711 172.505073 257.327582 172.69183 257.797642 172.69183
z
" style="stroke:#000000;stroke-width:0.886227;"/>
    <path clip-path="url(#pe55cf96158)" d="M 250.583097 266.497544
C 251.053157 266.497544 251.504028 266.310787 251.836411 265.978404
C 252.168794 265.646021 252.35555 265.19515 252.35555 264.72509
C 252.35555 264.25503 252.168794 263.804159 251.836411 263.471776
C 251.504028 263.139393 251.053157 262.952636 250.583097 262.952636
C 250.113036 262.952636 249.662165 263.139393 249.329782 263.471776
C 248.9974 263.804159 248.810643 264.25503 248.810643 264.72509
C 248.810643 265.19515 248.9974 265.646021 249.329782 265.978404
C 249.662165 266.310787 250.113036 266.497544 250.583097 266.497544
z
" style="stroke:#000000;stroke-width:0.886227;"/>
    <path clip-path="url(#pe55cf96158)" d="M 293.870369 182.566115
C 294.34043 182.566115 294.791301 182.379358 295.123683 182.046976
C 295.456066 181.714593 295.642823 181.263722 295.642823 180.793662
C 295.642823 180.323601 295.456066 179.87273 295.123683 179.540347
C 294.791301 179.207965 294.34043 179.021208 293.870369 179.021208
C 293.400309 179.021208 292.949438 179.207965 292.617055 179.540347
C 292.284672 179.87273 292.097915 180.323601 292.097915 180.793662
C 292.097915 181.263722 292.284672 181.714593 292.617055 182.046976
C 292.949438 182.379358 293.400309 182.566115 293.870369 182.566115
z
" style="stroke:#000000;stroke-width:0.886227;"/>
    <path clip-path="url(#pe55cf96158)" d="M 351.586733 123.320401
C 352.056793 123.320401 352.507664 123.133644 352.840047 122.801261
C 353.17243 122.468879 353.359187 122.018008 353.359187 121.547947
C 353.359187 121.077887 353.17243 120.627016 352.840047 120.294633
C 352.507664 119.96225 352.056793 119.775493 351.586733 119.775493
C 351.116673 119.775493 350.665802 119.96225 350.333419 120.294633
C 350.001036 120.627016 349.814279 121.077887 349.814279 121.547947
C 349.814279 122.018008 350.001036 122.468879 350.333419 122.801261
C 350.665802 123.133644 351.116673 123.320401 351.586733 123.320401
z
" style="stroke:#000000;stroke-width:0.886227;"/>
    <path clip-path="url(#pe55cf96158)" d="M 63.004915 93.697544
C 63.474975 93.697544 63.925846 93.510787 64.258229 93.178404
C 64.590612 92.846021 64.777369 92.39515 64.777369 91.92509
C 64.777369 91.45503 64.590612 91.004159 64.258229 90.671776
C 63.925846 90.339393 63.474975 90.152636 63.004915 90.152636
C 62.534855 90.152636 62.083983 90.339393 61.751601 90.671776
C 61.419218 91.004159 61.232461 91.45503 61.232461 91.92509
C 61.232461 92.39515 61.419218 92.846021 61.751601 93.178404
C 62.083983 93.510787 62.534855 93.697544 63.004915 93.697544
z
" style="stroke:#000000;stroke-width:0.886227;"/>
    <path clip-path="url(#pe55cf96158)" d="M 127.935824 231.937544
C 128.405884 231.937544 128.856755 231.750787 129.189138 231.418404
C 129.521521 231.086021 129.708278 230.63515 129.708278 230.16509
C 129.708278 229.69503 129.521521 229.244159 129.189138 228.911776
C 128.856755 228.579393 128.405884 228.392636 127.935824 228.392636
C 127.465764 228.392636 127.014893 228.579393 126.68251 228.911776
C 126.350127 229.244159 126.16337 229.69503 126.16337 230.16509
C 126.16337 230.63515 126.350127 231.086021 126.68251 231.418404
C 127.014893 231.750787 127.465764 231.937544 127.935824 231.937544
z
" style="stroke:#000000;stroke-width:0.886227;"/>
    <path clip-path="url(#pe55cf96158)" d="M 214.510369 113.446115
C 214.98043 113.446115 215.431301 113.259358 215.763683 112.926976
C 216.096066 112.594593 216.282823 112.143722 216.282823 111.673662
C 216.282823 111.203601 216.096066 110.75273 215.763683 110.420347
C 215.431301 110.087965 214.98043 109.901208 214.510369 109.901208
C 214.040309 109.901208 213.589438 110.087965 213.257055 110.420347
C 212.924672 110.75273 212.737915 111.203601 212.737915 111.673662
C 212.737915 112.143722 212.924672 112.594593 213.257055 112.926976
C 213.589438 113.259358 214.040309 113.446115 214.510369 113.446115
z
" style="stroke:#000000;stroke-width:0.886227;"/>
    <path clip-path="url(#pe55cf96158)" d="M 200.081278 261.560401
C 200.551339 261.560401 201.00221 261.373644 201.334593 261.041261
C 201.666975 260.708879 201.853732 260.258008 201.853732 259.787947
C 201.853732 259.317887 201.666975 258.867016 201.334593 258.534633
C 201.00221 258.20225 200.551339 258.015493 200.081278 258.015493
C 199.611218 258.015493 199.160347 258.20225 198.827964 258.534633
C 198.495581 258.867016 198.308825 259.317887 198.308825 259.787947
C 198.308825 260.258008 198.495581 260.708879 198.827964 261.041261
C 199.160347 261.373644 199.611218 261.560401 200.081278 261.560401
z
" style="stroke:#000000;stroke-width:0.886227;"/>
    <path clip-path="url(#pe55cf96158)" d="M 329.943097 118.383258
C 330.413157 118.383258 330.864028 118.196501 331.196411 117.864119
C 331.528794 117.531736 331.71555 117.080865 331.71555 116.610804
C 331.71555 116.140744 331.528794 115.689873 331.196411 115.35749
C 330.864028 115.025107 330.413157 114.838351 329.943097 114.838351
C 329.473036 114.838351 329.022165 115.025107 328.689782 115.35749
C 328.3574 115.689873 328.170643 116.140744 328.170643 116.610804
C 328.170643 117.080865 328.3574 117.531736 328.689782 117.864119
C 329.022165 118.196501 329.473036 118.383258 329.943097 118.383258
z
" style="stroke:#000000;stroke-width:0.886227;"/>
    <path clip-path="url(#pe55cf96158)" d="M 236.154006 207.25183
C 236.624066 207.25183 237.074937 207.065073 237.40732 206.73269
C 237.739703 206.400307 237.92646 205.949436 237.92646 205.479376
C 237.92646 205.009316 237.739703 204.558444 237.40732 204.226062
C 237.074937 203.893679 236.624066 203.706922 236.154006 203.706922
C 235.683945 203.706922 235.233074 203.893679 234.900692 204.226062
C 234.568309 204.558444 234.381552 205.009316 234.381552 205.479376
C 234.381552 205.949436 234.568309 206.400307 234.900692 206.73269
C 235.233074 207.065073 235.683945 207.25183 236.154006 207.25183
z
" style="stroke:#000000;stroke-width:0.886227;"/>
    <path clip-path="url(#pe55cf96158)" d="M 63.004915 64.074687
C 63.474975 64.074687 63.925846 63.88793 64.258229 63.555547
C 64.590612 63.223164 64.777369 62.772293 64.777369 62.302233
C 64.777369 61.832173 64.590612 61.381302 64.258229 61.048919
C 63.925846 60.716536 63.474975 60.529779 63.004915 60.529779
C 62.534855 60.529779 62.083983 60.716536 61.751601 61.048919
C 61.419218 61.381302 61.232461 61.832173 61.232461 62.302233
C 61.232461 62.772293 61.419218 63.223164 61.751601 63.555547
C 62.083983 63.88793 62.534855 64.074687 63.004915 64.074687
z
" style="stroke:#000000;stroke-width:0.886227;"/>
    <path clip-path="url(#pe55cf96158)" d="M 63.004915 167.754687
C 63.474975 167.754687 63.925846 167.56793 64.258229 167.235547
C 64.590612 166.903164 64.777369 166.452293 64.777369 165.982233
C 64.777369 165.512173 64.590612 165.061302 64.258229 164.728919
C 63.925846 164.396536 63.474975 164.209779 63.004915 164.209779
C 62.534855 164.209779 62.083983 164.396536 61.751601 164.728919
C 61.419218 165.061302 61.232461 165.512173 61.232461 165.982233
C 61.232461 166.452293 61.419218 166.903164 61.751601 167.235547
C 62.083983 167.56793 62.534855 167.754687 63.004915 167.754687
z
" style="stroke:#000000;stroke-width:0.886227;"/>
    <path clip-path="url(#pe55cf96158)" d="M 164.008551 98.634687
C 164.478611 98.634687 164.929482 98.44793 165.261865 98.115547
C 165.594248 97.783164 165.781005 97.332293 165.781005 96.862233
C 165.781005 96.392173 165.594248 95.941302 165.261865 95.608919
C 164.929482 95.276536 164.478611 95.089779 164.008551 95.089779
C 163.538491 95.089779 163.08762 95.276536 162.755237 95.608919
C 162.422854 95.941302 162.236097 96.392173 162.236097 96.862233
C 162.236097 97.332293 162.422854 97.783164 162.755237 98.115547
C 163.08762 98.44793 163.538491 98.634687 164.008551 98.634687
z
" style="stroke:#000000;stroke-width:0.886227;"/>
    <path clip-path="url(#pe55cf96158)" d="M 308.29946 202.314687
C 308.76952 202.314687 309.220392 202.12793 309.552774 201.795547
C 309.885157 201.463164 310.071914 201.012293 310.071914 200.542233
C 310.071914 200.072173 309.885157 199.621302 309.552774 199.288919
C 309.220392 198.956536 308.76952 198.769779 308.29946 198.769779
C 307.8294 198.769779 307.378529 198.956536 307.046146 199.288919
C 306.713763 199.621302 306.527006 200.072173 306.527006 200.542233
C 306.527006 201.012293 306.713763 201.463164 307.046146 201.795547
C 307.378529 202.12793 307.8294 202.314687 308.29946 202.314687
z
" style="stroke:#000000;stroke-width:0.886227;"/>
    <path clip-path="url(#pe55cf96158)" d="M 315.514006 73.948973
C 315.984066 73.948973 316.434937 73.762216 316.76732 73.429833
C 317.099703 73.09745 317.28646 72.646579 317.28646 72.176519
C 317.28646 71.706458 317.099703 71.255587 316.76732 70.923205
C 316.434937 70.590822 315.984066 70.404065 315.514006 70.404065
C 315.043945 70.404065 314.593074 70.590822 314.260692 70.923205
C 313.928309 71.255587 313.741552 71.706458 313.741552 72.176519
C 313.741552 72.646579 313.928309 73.09745 314.260692 73.429833
C 314.593074 73.762216 315.043945 73.948973 315.514006 73.948973
z
" style="stroke:#000000;stroke-width:0.886227;"/>
   </g>
  </g>
  <g id="text_13">
   <!-- GSEA vs GSVA pathway ranking -->
   <defs>
    <path d="M 2.984375 54.6875
L 12.5 54.6875
L 29.59375 8.796875
L 46.6875 54.6875
L 56.203125 54.6875
L 35.6875 0
L 23.484375 0
z
" id="DejaVuSans-118"/>
    <path d="M 44.28125 53.078125
L 44.28125 44.578125
Q 40.484375 46.53125 36.375 47.5
Q 32.28125 48.484375 27.875 48.484375
Q 21.1875 48.484375 17.84375 46.4375
Q 14.5 44.390625 14.5 40.28125
Q 14.5 37.15625 16.890625 35.375
Q 19.28125 33.59375 26.515625 31.984375
L 29.59375 31.296875
Q 39.15625 29.25 43.1875 25.515625
Q 47.21875 21.78125 47.21875 15.09375
Q 47.21875 7.46875 41.1875 3.015625
Q 35.15625 -1.421875 24.609375 -1.421875
Q 20.21875 -1.421875 15.453125 -0.5625
Q 10.6875 0.296875 5.421875 2
L 5.421875 11.28125
Q 10.40625 8.6875 15.234375 7.390625
Q 20.0625 6.109375 24.8125 6.109375
Q 31.15625 6.109375 34.5625 8.28125
Q 37.984375 10.453125 37.984375 14.40625
Q 37.984375 18.0625 35.515625 20.015625
Q 33.0625 21.96875 24.703125 23.78125
L 21.578125 24.515625
Q 13.234375 26.265625 9.515625 29.90625
Q 5.8125 33.546875 5.8125 39.890625
Q 5.8125 47.609375 11.28125 51.796875
Q 16.75 56 26.8125 56
Q 31.78125 56 36.171875 55.265625
Q 40.578125 54.546875 44.28125 53.078125
z
" id="DejaVuSans-115"/>
   </defs>
   <g transform="translate(99.83 11.397656)scale(0.15 -0.15)">
    <use xlink:href="#DejaVuSans-71"/>
    <use x="77.490234" xlink:href="#DejaVuSans-83"/>
    <use x="140.966797" xlink:href="#DejaVuSans-69"/>
    <use x="204.150391" xlink:href="#DejaVuSans-65"/>
    <use x="272.558594" xlink:href="#DejaVuSans-32"/>
    <use x="304.345703" xlink:href="#DejaVuSans-118"/>
    <use x="363.525391" xlink:href="#DejaVuSans-115"/>
    <use x="415.625" xlink:href="#DejaVuSans-32"/>
    <use x="447.412109" xlink:href="#DejaVuSans-71"/>
    <use x="524.902344" xlink:href="#DejaVuSans-83"/>
    <use x="588.378906" xlink:href="#DejaVuSans-86"/>
    <use x="656.693359" xlink:href="#DejaVuSans-65"/>
    <use x="725.101562" xlink:href="#DejaVuSans-32"/>
    <use x="756.888672" xlink:href="#DejaVuSans-112"/>
    <use x="820.365234" xlink:href="#DejaVuSans-97"/>
    <use x="881.644531" xlink:href="#DejaVuSans-116"/>
    <use x="920.853516" xlink:href="#DejaVuSans-104"/>
    <use x="984.232422" xlink:href="#DejaVuSans-119"/>
    <use x="1066.019531" xlink:href="#DejaVuSans-97"/>
    <use x="1127.298828" xlink:href="#DejaVuSans-121"/>
    <use x="1186.478516" xlink:href="#DejaVuSans-32"/>
    <use x="1218.265625" xlink:href="#DejaVuSans-114"/>
    <use x="1259.378906" xlink:href="#DejaVuSans-97"/>
    <use x="1320.658203" xlink:href="#DejaVuSans-110"/>
    <use x="1384.037109" xlink:href="#DejaVuSans-107"/>
    <use x="1441.947266" xlink:href="#DejaVuSans-105"/>
    <use x="1469.730469" xlink:href="#DejaVuSans-110"/>
    <use x="1533.109375" xlink:href="#DejaVuSans-103"/>
   </g>
  </g>
 </g>
 <defs>
  <clipPath id="pe55cf96158">
   <rect height="266.112" width="357.12" x="46.772188" y="20.583376"/>
  </clipPath>
 </defs>
</svg>
