<?xml version="1.0" encoding="utf-8" standalone="no"?>
<!DOCTYPE svg PUBLIC "-//W3C//DTD SVG 1.1//EN"
  "http://www.w3.org/Graphics/SVG/1.1/DTD/svg11.dtd">
<!-- Created with matplotlib (https://matplotlib.org/) -->
<svg height="322.176313pt" version="1.1" viewBox="0 0 406.642188 322.176313" width="406.642188pt" xmlns="http://www.w3.org/2000/svg" xmlns:xlink="http://www.w3.org/1999/xlink">
 <defs>
  <style type="text/css">
*{stroke-linecap:butt;stroke-linejoin:round;}
  </style>
 </defs>
 <g id="figure_1">
  <g id="patch_1">
   <path d="M 0 322.176313
L 406.642188 322.176313
L 406.642188 0
L 0 0
z
" style="fill:#ffffff;stroke:#ffffff;stroke-linejoin:miter;"/>
  </g>
  <g id="axes_1">
   <g id="patch_2">
    <path d="M 46.772188 286.695376
L 403.892188 286.695376
L 403.892188 20.583376
L 46.772188 20.583376
z
" style="fill:none;"/>
   </g>
   <g id="matplotlib.axis_1">
    <g id="xtick_1">
     <g id="line2d_1">
      <path clip-path="url(#pe3e83bd1b5)" d="M 63.004915 286.695376
L 63.004915 20.583376
" style="fill:none;stroke:#e5e5e5;stroke-width:0.8;"/>
     </g>
     <g id="line2d_2">
      <path d="M 63.004915 286.695376
" style="fill:none;stroke:#000000;stroke-width:1.5;"/>
      <defs>
       <path d="M 0 0
L 0 2.75
" id="ma9d0343fad" style="stroke:#000000;"/>
      </defs>
      <g>
       <use style="stroke:#000000;" x="63.004915" xlink:href="#ma9d0343fad" y="286.695376"/>
      </g>
     </g>
     <g id="text_1">
      <!-- 0 -->
      <defs>
       <path d="M 31.78125 66.40625
Q 24.171875 66.40625 20.328125 58.90625
Q 16.5 51.421875 16.5 36.375
Q 16.5 21.390625 20.328125 13.890625
Q 24.171875 6.390625 31.78125 6.390625
Q 39.453125 6.390625 43.28125 13.890625
Q 47.125 21.390625 47.125 36.375
Q 47.125 51.421875 43.28125 58.90625
Q 39.453125 66.40625 31.78125 66.40625
z
M 31.78125 74.21875
Q 44.046875 74.21875 50.515625 64.515625
Q 56.984375 54.828125 56.984375 36.375
Q 56.984375 17.96875 50.515625 8.265625
Q 44.046875 -1.421875 31.78125 -1.421875
Q 19.53125 -1.421875 13.0625 8.265625
Q 6.59375 17.96875 6.59375 36.375
Q 6.59375 54.828125 13.0625 64.515625
Q 19.53125 74.21875 31.78125 74.21875
z
" id="DejaVuSans-48"/>
      </defs>
      <g style="fill:#4d4d4d;" transform="translate(59.187415 300.763501)scale(0.12 -0.12)">
       <use xlink:href="#DejaVuSans-48"/>
      </g>
     </g>
    </g>
    <g id="xtick_2">
     <g id="line2d_3">
      <path clip-path="url(#pe3e83bd1b5)" d="M 144.168551 286.695376
L 144.168551 20.583376
" style="fill:none;stroke:#e5e5e5;stroke-width:0.8;"/>
     </g>
     <g id="line2d_4">
      <path d="M 144.168551 286.695376
" style="fill:none;stroke:#000000;stroke-width:1.5;"/>
      <g>
       <use style="stroke:#000000;" x="144.168551" xlink:href="#ma9d0343fad" y="286.695376"/>
      </g>
     </g>
     <g id="text_2">
      <!-- 25 -->
      <defs>
       <path d="M 19.1875 8.296875
L 53.609375 8.296875
L 53.609375 0
L 7.328125 0
L 7.328125 8.296875
Q 12.9375 14.109375 22.625 23.890625
Q 32.328125 33.6875 34.8125 36.53125
Q 39.546875 41.84375 41.421875 45.53125
Q 43.3125 49.21875 43.3125 52.78125
Q 43.3125 58.59375 39.234375 62.25
Q 35.15625 65.921875 28.609375 65.921875
Q 23.96875 65.921875 18.8125 64.3125
Q 13.671875 62.703125 7.8125 59.421875
L 7.8125 69.390625
Q 13.765625 71.78125 18.9375 73
Q 24.125 74.21875 28.421875 74.21875
Q 39.75 74.21875 46.484375 68.546875
Q 53.21875 62.890625 53.21875 53.421875
Q 53.21875 48.921875 51.53125 44.890625
Q 49.859375 40.875 45.40625 35.40625
Q 44.1875 33.984375 37.640625 27.21875
Q 31.109375 20.453125 19.1875 8.296875
z
" id="DejaVuSans-50"/>
       <path d="M 10.796875 72.90625
L 49.515625 72.90625
L 49.515625 64.59375
L 19.828125 64.59375
L 19.828125 46.734375
Q 21.96875 47.46875 24.109375 47.828125
Q 26.265625 48.1875 28.421875 48.1875
Q 40.625 48.1875 47.75 41.5
Q 54.890625 34.8125 54.890625 23.390625
Q 54.890625 11.625 47.5625 5.09375
Q 40.234375 -1.421875 26.90625 -1.421875
Q 22.3125 -1.421875 17.546875 -0.640625
Q 12.796875 0.140625 7.71875 1.703125
L 7.71875 11.625
Q 12.109375 9.234375 16.796875 8.0625
Q 21.484375 6.890625 26.703125 6.890625
Q 35.15625 6.890625 40.078125 11.328125
Q 45.015625 15.765625 45.015625 23.390625
Q 45.015625 31 40.078125 35.4375
Q 35.15625 39.890625 26.703125 39.890625
Q 22.75 39.890625 18.8125 39.015625
Q 14.890625 38.140625 10.796875 36.28125
z
" id="DejaVuSans-53"/>
      </defs>
      <g style="fill:#4d4d4d;" transform="translate(136.533551 300.763501)scale(0.12 -0.12)">
       <use xlink:href="#DejaVuSans-50"/>
       <use x="63.623047" xlink:href="#DejaVuSans-53"/>
      </g>
     </g>
    </g>
    <g id="xtick_3">
     <g id="line2d_5">
      <path clip-path="url(#pe3e83bd1b5)" d="M 225.332188 286.695376
L 225.332188 20.583376
" style="fill:none;stroke:#e5e5e5;stroke-width:0.8;"/>
     </g>
     <g id="line2d_6">
      <path d="M 225.332188 286.695376
" style="fill:none;stroke:#000000;stroke-width:1.5;"/>
      <g>
       <use style="stroke:#000000;" x="225.332188" xlink:href="#ma9d0343fad" y="286.695376"/>
      </g>
     </g>
     <g id="text_3">
      <!-- 50 -->
      <g style="fill:#4d4d4d;" transform="translate(217.697188 300.763501)scale(0.12 -0.12)">
       <use xlink:href="#DejaVuSans-53"/>
       <use x="63.623047" xlink:href="#DejaVuSans-48"/>
      </g>
     </g>
    </g>
    <g id="xtick_4">
     <g id="line2d_7">
      <path clip-path="url(#pe3e83bd1b5)" d="M 306.495824 286.695376
L 306.495824 20.583376
" style="fill:none;stroke:#e5e5e5;stroke-width:0.8;"/>
     </g>
     <g id="line2d_8">
      <path d="M 306.495824 286.695376
" style="fill:none;stroke:#000000;stroke-width:1.5;"/>
      <g>
       <use style="stroke:#000000;" x="306.495824" xlink:href="#ma9d0343fad" y="286.695376"/>
      </g>
     </g>
     <g id="text_4">
      <!-- 75 -->
      <defs>
       <path d="M 8.203125 72.90625
L 55.078125 72.90625
L 55.078125 68.703125
L 28.609375 0
L 18.3125 0
L 43.21875 64.59375
L 8.203125 64.59375
z
" id="DejaVuSans-55"/>
      </defs>
      <g style="fill:#4d4d4d;" transform="translate(298.860824 300.763501)scale(0.12 -0.12)">
       <use xlink:href="#DejaVuSans-55"/>
       <use x="63.623047" xlink:href="#DejaVuSans-53"/>
      </g>
     </g>
    </g>
    <g id="xtick_5">
     <g id="line2d_9">
      <path clip-path="url(#pe3e83bd1b5)" d="M 387.65946 286.695376
L 387.65946 20.583376
" style="fill:none;stroke:#e5e5e5;stroke-width:0.8;"/>
     </g>
     <g id="line2d_10">
      <path d="M 387.65946 286.695376
" style="fill:none;stroke:#000000;stroke-width:1.5;"/>
      <g>
       <use style="stroke:#000000;" x="387.65946" xlink:href="#ma9d0343fad" y="286.695376"/>
      </g>
     </g>
     <g id="text_5">
      <!-- 100 -->
      <defs>
       <path d="M 12.40625 8.296875
L 28.515625 8.296875
L 28.515625 63.921875
L 10.984375 60.40625
L 10.984375 69.390625
L 28.421875 72.90625
L 38.28125 72.90625
L 38.28125 8.296875
L 54.390625 8.296875
L 54.390625 0
L 12.40625 0
z
" id="DejaVuSans-49"/>
      </defs>
      <g style="fill:#4d4d4d;" transform="translate(376.20696 300.763501)scale(0.12 -0.12)">
       <use xlink:href="#DejaVuSans-49"/>
       <use x="63.623047" xlink:href="#DejaVuSans-48"/>
       <use x="127.246094" xlink:href="#DejaVuSans-48"/>
      </g>
     </g>
    </g>
    <g id="xtick_6">
     <g id="line2d_11">
      <path clip-path="url(#pe3e83bd1b5)" d="M 103.586733 286.695376
L 103.586733 20.583376
" style="fill:none;stroke:#fafafa;"/>
     </g>
     <g id="line2d_12">
      <path d="M 103.586733 286.695376
" style="fill:none;stroke:#000000;stroke-width:1.5;"/>
     </g>
    </g>
    <g id="xtick_7">
     <g id="line2d_13">
      <path clip-path="url(#pe3e83bd1b5)" d="M 184.750369 286.695376
L 184.750369 20.583376
" style="fill:none;stroke:#fafafa;"/>
     </g>
     <g id="line2d_14">
      <path d="M 184.750369 286.695376
" style="fill:none;stroke:#000000;stroke-width:1.5;"/>
     </g>
    </g>
    <g id="xtick_8">
     <g id="line2d_15">
      <path clip-path="url(#pe3e83bd1b5)" d="M 265.914006 286.695376
L 265.914006 20.583376
" style="fill:none;stroke:#fafafa;"/>
     </g>
     <g id="line2d_16">
      <path d="M 265.914006 286.695376
" style="fill:none;stroke:#000000;stroke-width:1.5;"/>
     </g>
    </g>
    <g id="xtick_9">
     <g id="line2d_17">
      <path clip-path="url(#pe3e83bd1b5)" d="M 347.077642 286.695376
L 347.077642 20.583376
" style="fill:none;stroke:#fafafa;"/>
     </g>
     <g id="line2d_18">
      <path d="M 347.077642 286.695376
" style="fill:none;stroke:#000000;stroke-width:1.5;"/>
     </g>
    </g>
    <g id="text_6">
     <!-- GSEA pathway ranking -->
     <defs>
      <path d="M 59.515625 10.40625
L 59.515625 29.984375
L 43.40625 29.984375
L 43.40625 38.09375
L 69.28125 38.09375
L 69.28125 6.78125
Q 63.578125 2.734375 56.6875 0.65625
Q 49.8125 -1.421875 42 -1.421875
Q 24.90625 -1.421875 15.25 8.5625
Q 5.609375 18.5625 5.609375 36.375
Q 5.609375 54.25 15.25 64.234375
Q 24.90625 74.21875 42 74.21875
Q 49.125 74.21875 55.546875 72.453125
Q 61.96875 70.703125 67.390625 67.28125
L 67.390625 56.78125
Q 61.921875 61.421875 55.765625 63.765625
Q 49.609375 66.109375 42.828125 66.109375
Q 29.4375 66.109375 22.71875 58.640625
Q 16.015625 51.171875 16.015625 36.375
Q 16.015625 21.625 22.71875 14.15625
Q 29.4375 6.6875 42.828125 6.6875
Q 48.046875 6.6875 52.140625 7.59375
Q 56.25 8.5 59.515625 10.40625
z
" id="DejaVuSans-71"/>
      <path d="M 53.515625 70.515625
L 53.515625 60.890625
Q 47.90625 63.578125 42.921875 64.890625
Q 37.9375 66.21875 33.296875 66.21875
Q 25.25 66.21875 20.875 63.09375
Q 16.5 59.96875 16.5 54.203125
Q 16.5 49.359375 19.40625 46.890625
Q 22.3125 44.4375 30.421875 42.921875
L 36.375 41.703125
Q 47.40625 39.59375 52.65625 34.296875
Q 57.90625 29 57.90625 20.125
Q 57.90625 9.515625 50.796875 4.046875
Q 43.703125 -1.421875 29.984375 -1.421875
Q 24.8125 -1.421875 18.96875 -0.25
Q 13.140625 0.921875 6.890625 3.21875
L 6.890625 13.375
Q 12.890625 10.015625 18.65625 8.296875
Q 24.421875 6.59375 29.984375 6.59375
Q 38.421875 6.59375 43.015625 9.90625
Q 47.609375 13.234375 47.609375 19.390625
Q 47.609375 24.75 44.3125 27.78125
Q 41.015625 30.8125 33.5 32.328125
L 27.484375 33.5
Q 16.453125 35.6875 11.515625 40.375
Q 6.59375 45.0625 6.59375 53.421875
Q 6.59375 63.09375 13.40625 68.65625
Q 20.21875 74.21875 32.171875 74.21875
Q 37.3125 74.21875 42.625 73.28125
Q 47.953125 72.359375 53.515625 70.515625
z
" id="DejaVuSans-83"/>
      <path d="M 9.8125 72.90625
L 55.90625 72.90625
L 55.90625 64.59375
L 19.671875 64.59375
L 19.671875 43.015625
L 54.390625 43.015625
L 54.390625 34.71875
L 19.671875 34.71875
L 19.671875 8.296875
L 56.78125 8.296875
L 56.78125 0
L 9.8125 0
z
" id="DejaVuSans-69"/>
      <path d="M 34.1875 63.1875
L 20.796875 26.90625
L 47.609375 26.90625
z
M 28.609375 72.90625
L 39.796875 72.90625
L 67.578125 0
L 57.328125 0
L 50.6875 18.703125
L 17.828125 18.703125
L 11.1875 0
L 0.78125 0
z
" id="DejaVuSans-65"/>
      <path id="DejaVuSans-32"/>
      <path d="M 18.109375 8.203125
L 18.109375 -20.796875
L 9.078125 -20.796875
L 9.078125 54.6875
L 18.109375 54.6875
L 18.109375 46.390625
Q 20.953125 51.265625 25.265625 53.625
Q 29.59375 56 35.59375 56
Q 45.5625 56 51.78125 48.09375
Q 58.015625 40.1875 58.015625 27.296875
Q 58.015625 14.40625 51.78125 6.484375
Q 45.5625 -1.421875 35.59375 -1.421875
Q 29.59375 -1.421875 25.265625 0.953125
Q 20.953125 3.328125 18.109375 8.203125
z
M 48.6875 27.296875
Q 48.6875 37.203125 44.609375 42.84375
Q 40.53125 48.484375 33.40625 48.484375
Q 26.265625 48.484375 22.1875 42.84375
Q 18.109375 37.203125 18.109375 27.296875
Q 18.109375 17.390625 22.1875 11.75
Q 26.265625 6.109375 33.40625 6.109375
Q 40.53125 6.109375 44.609375 11.75
Q 48.6875 17.390625 48.6875 27.296875
z
" id="DejaVuSans-112"/>
      <path d="M 34.28125 27.484375
Q 23.390625 27.484375 19.1875 25
Q 14.984375 22.515625 14.984375 16.5
Q 14.984375 11.71875 18.140625 8.90625
Q 21.296875 6.109375 26.703125 6.109375
Q 34.1875 6.109375 38.703125 11.40625
Q 43.21875 16.703125 43.21875 25.484375
L 43.21875 27.484375
z
M 52.203125 31.203125
L 52.203125 0
L 43.21875 0
L 43.21875 8.296875
Q 40.140625 3.328125 35.546875 0.953125
Q 30.953125 -1.421875 24.3125 -1.421875
Q 15.921875 -1.421875 10.953125 3.296875
Q 6 8.015625 6 15.921875
Q 6 25.140625 12.171875 29.828125
Q 18.359375 34.515625 30.609375 34.515625
L 43.21875 34.515625
L 43.21875 35.40625
Q 43.21875 41.609375 39.140625 45
Q 35.0625 48.390625 27.6875 48.390625
Q 23 48.390625 18.546875 47.265625
Q 14.109375 46.140625 10.015625 43.890625
L 10.015625 52.203125
Q 14.9375 54.109375 19.578125 55.046875
Q 24.21875 56 28.609375 56
Q 40.484375 56 46.34375 49.84375
Q 52.203125 43.703125 52.203125 31.203125
z
" id="DejaVuSans-97"/>
      <path d="M 18.3125 70.21875
L 18.3125 54.6875
L 36.8125 54.6875
L 36.8125 47.703125
L 18.3125 47.703125
L 18.3125 18.015625
Q 18.3125 11.328125 20.140625 9.421875
Q 21.96875 7.515625 27.59375 7.515625
L 36.8125 7.515625
L 36.8125 0
L 27.59375 0
Q 17.1875 0 13.234375 3.875
Q 9.28125 7.765625 9.28125 18.015625
L 9.28125 47.703125
L 2.6875 47.703125
L 2.6875 54.6875
L 9.28125 54.6875
L 9.28125 70.21875
z
" id="DejaVuSans-116"/>
      <path d="M 54.890625 33.015625
L 54.890625 0
L 45.90625 0
L 45.90625 32.71875
Q 45.90625 40.484375 42.875 44.328125
Q 39.84375 48.1875 33.796875 48.1875
Q 26.515625 48.1875 22.3125 43.546875
Q 18.109375 38.921875 18.109375 30.90625
L 18.109375 0
L 9.078125 0
L 9.078125 75.984375
L 18.109375 75.984375
L 18.109375 46.1875
Q 21.34375 51.125 25.703125 53.5625
Q 30.078125 56 35.796875 56
Q 45.21875 56 50.046875 50.171875
Q 54.890625 44.34375 54.890625 33.015625
z
" id="DejaVuSans-104"/>
      <path d="M 4.203125 54.6875
L 13.1875 54.6875
L 24.421875 12.015625
L 35.59375 54.6875
L 46.1875 54.6875
L 57.421875 12.015625
L 68.609375 54.6875
L 77.59375 54.6875
L 63.28125 0
L 52.6875 0
L 40.921875 44.828125
L 29.109375 0
L 18.5 0
z
" id="DejaVuSans-119"/>
      <path d="M 32.171875 -5.078125
Q 28.375 -14.84375 24.75 -17.8125
Q 21.140625 -20.796875 15.09375 -20.796875
L 7.90625 -20.796875
L 7.90625 -13.28125
L 13.1875 -13.28125
Q 16.890625 -13.28125 18.9375 -11.515625
Q 21 -9.765625 23.484375 -3.21875
L 25.09375 0.875
L 2.984375 54.6875
L 12.5 54.6875
L 29.59375 11.921875
L 46.6875 54.6875
L 56.203125 54.6875
z
" id="DejaVuSans-121"/>
      <path d="M 41.109375 46.296875
Q 39.59375 47.171875 37.8125 47.578125
Q 36.03125 48 33.890625 48
Q 26.265625 48 22.1875 43.046875
Q 18.109375 38.09375 18.109375 28.8125
L 18.109375 0
L 9.078125 0
L 9.078125 54.6875
L 18.109375 54.6875
L 18.109375 46.1875
Q 20.953125 51.171875 25.484375 53.578125
Q 30.03125 56 36.53125 56
Q 37.453125 56 38.578125 55.875
Q 39.703125 55.765625 41.0625 55.515625
z
" id="DejaVuSans-114"/>
      <path d="M 54.890625 33.015625
L 54.890625 0
L 45.90625 0
L 45.90625 32.71875
Q 45.90625 40.484375 42.875 44.328125
Q 39.84375 48.1875 33.796875 48.1875
Q 26.515625 48.1875 22.3125 43.546875
Q 18.109375 38.921875 18.109375 30.90625
L 18.109375 0
L 9.078125 0
L 9.078125 54.6875
L 18.109375 54.6875
L 18.109375 46.1875
Q 21.34375 51.125 25.703125 53.5625
Q 30.078125 56 35.796875 56
Q 45.21875 56 50.046875 50.171875
Q 54.890625 44.34375 54.890625 33.015625
z
" id="DejaVuSans-110"/>
      <path d="M 9.078125 75.984375
L 18.109375 75.984375
L 18.109375 31.109375
L 44.921875 54.6875
L 56.390625 54.6875
L 27.390625 29.109375
L 57.625 0
L 45.90625 0
L 18.109375 26.703125
L 18.109375 0
L 9.078125 0
z
" id="DejaVuSans-107"/>
      <path d="M 9.421875 54.6875
L 18.40625 54.6875
L 18.40625 0
L 9.421875 0
z
M 9.421875 75.984375
L 18.40625 75.984375
L 18.40625 64.59375
L 9.421875 64.59375
z
" id="DejaVuSans-105"/>
      <path d="M 45.40625 27.984375
Q 45.40625 37.75 41.375 43.109375
Q 37.359375 48.484375 30.078125 48.484375
Q 22.859375 48.484375 18.828125 43.109375
Q 14.796875 37.75 14.796875 27.984375
Q 14.796875 18.265625 18.828125 12.890625
Q 22.859375 7.515625 30.078125 7.515625
Q 37.359375 7.515625 41.375 12.890625
Q 45.40625 18.265625 45.40625 27.984375
z
M 54.390625 6.78125
Q 54.390625 -7.171875 48.1875 -13.984375
Q 42 -20.796875 29.203125 -20.796875
Q 24.46875 -20.796875 20.265625 -20.09375
Q 16.0625 -19.390625 12.109375 -17.921875
L 12.109375 -9.1875
Q 16.0625 -11.328125 19.921875 -12.34375
Q 23.78125 -13.375 27.78125 -13.375
Q 36.625 -13.375 41.015625 -8.765625
Q 45.40625 -4.15625 45.40625 5.171875
L 45.40625 9.625
Q 42.625 4.78125 38.28125 2.390625
Q 33.9375 0 27.875 0
Q 17.828125 0 11.671875 7.65625
Q 5.515625 15.328125 5.515625 27.984375
Q 5.515625 40.671875 11.671875 48.328125
Q 17.828125 56 27.875 56
Q 33.9375 56 38.28125 53.609375
Q 42.625 51.21875 45.40625 46.390625
L 45.40625 54.6875
L 54.390625 54.6875
z
" id="DejaVuSans-103"/>
     </defs>
     <g transform="translate(133.769844 319.056782)scale(0.15 -0.15)">
      <use xlink:href="#DejaVuSans-71"/>
      <use x="77.490234" xlink:href="#DejaVuSans-83"/>
      <use x="140.966797" xlink:href="#DejaVuSans-69"/>
      <use x="204.150391" xlink:href="#DejaVuSans-65"/>
      <use x="272.558594" xlink:href="#DejaVuSans-32"/>
      <use x="304.345703" xlink:href="#DejaVuSans-112"/>
      <use x="367.822266" xlink:href="#DejaVuSans-97"/>
      <use x="429.101562" xlink:href="#DejaVuSans-116"/>
      <use x="468.310547" xlink:href="#DejaVuSans-104"/>
      <use x="531.689453" xlink:href="#DejaVuSans-119"/>
      <use x="613.476562" xlink:href="#DejaVuSans-97"/>
      <use x="674.755859" xlink:href="#DejaVuSans-121"/>
      <use x="733.935547" xlink:href="#DejaVuSans-32"/>
      <use x="765.722656" xlink:href="#DejaVuSans-114"/>
      <use x="806.835938" xlink:href="#DejaVuSans-97"/>
      <use x="868.115234" xlink:href="#DejaVuSans-110"/>
      <use x="931.494141" xlink:href="#DejaVuSans-107"/>
      <use x="989.404297" xlink:href="#DejaVuSans-105"/>
      <use x="1017.1875" xlink:href="#DejaVuSans-110"/>
      <use x="1080.566406" xlink:href="#DejaVuSans-103"/>
     </g>
    </g>
   </g>
   <g id="matplotlib.axis_2">
    <g id="ytick_1">
     <g id="line2d_19">
      <path clip-path="url(#pe3e83bd1b5)" d="M 46.772188 274.599376
L 403.892188 274.599376
" style="fill:none;stroke:#e5e5e5;stroke-width:0.8;"/>
     </g>
     <g id="line2d_20">
      <path d="M 46.772188 274.599376
" style="fill:none;stroke:#000000;stroke-width:1.5;"/>
      <defs>
       <path d="M 0 0
L -2.75 0
" id="mf00a0f1114" style="stroke:#000000;"/>
      </defs>
      <g>
       <use style="stroke:#000000;" x="46.772188" xlink:href="#mf00a0f1114" y="274.599376"/>
      </g>
     </g>
     <g id="text_7">
      <!-- 0 -->
      <g style="fill:#4d4d4d;" transform="translate(34.187188 277.910626)scale(0.12 -0.12)">
       <use xlink:href="#DejaVuSans-48"/>
      </g>
     </g>
    </g>
    <g id="ytick_2">
     <g id="line2d_21">
      <path clip-path="url(#pe3e83bd1b5)" d="M 46.772188 214.119376
L 403.892188 214.119376
" style="fill:none;stroke:#e5e5e5;stroke-width:0.8;"/>
     </g>
     <g id="line2d_22">
      <path d="M 46.772188 214.119376
" style="fill:none;stroke:#000000;stroke-width:1.5;"/>
      <g>
       <use style="stroke:#000000;" x="46.772188" xlink:href="#mf00a0f1114" y="214.119376"/>
      </g>
     </g>
     <g id="text_8">
      <!-- 25 -->
      <g style="fill:#4d4d4d;" transform="translate(26.552188 217.430626)scale(0.12 -0.12)">
       <use xlink:href="#DejaVuSans-50"/>
       <use x="63.623047" xlink:href="#DejaVuSans-53"/>
      </g>
     </g>
    </g>
    <g id="ytick_3">
     <g id="line2d_23">
      <path clip-path="url(#pe3e83bd1b5)" d="M 46.772188 153.639376
L 403.892188 153.639376
" style="fill:none;stroke:#e5e5e5;stroke-width:0.8;"/>
     </g>
     <g id="line2d_24">
      <path d="M 46.772188 153.639376
" style="fill:none;stroke:#000000;stroke-width:1.5;"/>
      <g>
       <use style="stroke:#000000;" x="46.772188" xlink:href="#mf00a0f1114" y="153.639376"/>
      </g>
     </g>
     <g id="text_9">
      <!-- 50 -->
      <g style="fill:#4d4d4d;" transform="translate(26.552188 156.950626)scale(0.12 -0.12)">
       <use xlink:href="#DejaVuSans-53"/>
       <use x="63.623047" xlink:href="#DejaVuSans-48"/>
      </g>
     </g>
    </g>
    <g id="ytick_4">
     <g id="line2d_25">
      <path clip-path="url(#pe3e83bd1b5)" d="M 46.772188 93.159376
L 403.892188 93.159376
" style="fill:none;stroke:#e5e5e5;stroke-width:0.8;"/>
     </g>
     <g id="line2d_26">
      <path d="M 46.772188 93.159376
" style="fill:none;stroke:#000000;stroke-width:1.5;"/>
      <g>
       <use style="stroke:#000000;" x="46.772188" xlink:href="#mf00a0f1114" y="93.159376"/>
      </g>
     </g>
     <g id="text_10">
      <!-- 75 -->
      <g style="fill:#4d4d4d;" transform="translate(26.552188 96.470626)scale(0.12 -0.12)">
       <use xlink:href="#DejaVuSans-55"/>
       <use x="63.623047" xlink:href="#DejaVuSans-53"/>
      </g>
     </g>
    </g>
    <g id="ytick_5">
     <g id="line2d_27">
      <path clip-path="url(#pe3e83bd1b5)" d="M 46.772188 32.679376
L 403.892188 32.679376
" style="fill:none;stroke:#e5e5e5;stroke-width:0.8;"/>
     </g>
     <g id="line2d_28">
      <path d="M 46.772188 32.679376
" style="fill:none;stroke:#000000;stroke-width:1.5;"/>
      <g>
       <use style="stroke:#000000;" x="46.772188" xlink:href="#mf00a0f1114" y="32.679376"/>
      </g>
     </g>
     <g id="text_11">
      <!-- 100 -->
      <g style="fill:#4d4d4d;" transform="translate(18.917188 35.990626)scale(0.12 -0.12)">
       <use xlink:href="#DejaVuSans-49"/>
       <use x="63.623047" xlink:href="#DejaVuSans-48"/>
       <use x="127.246094" xlink:href="#DejaVuSans-48"/>
      </g>
     </g>
    </g>
    <g id="ytick_6">
     <g id="line2d_29">
      <path clip-path="url(#pe3e83bd1b5)" d="M 46.772188 244.359376
L 403.892188 244.359376
" style="fill:none;stroke:#fafafa;"/>
     </g>
     <g id="line2d_30">
      <path d="M 46.772188 244.359376
" style="fill:none;stroke:#000000;stroke-width:1.5;"/>
     </g>
    </g>
    <g id="ytick_7">
     <g id="line2d_31">
      <path clip-path="url(#pe3e83bd1b5)" d="M 46.772188 183.879376
L 403.892188 183.879376
" style="fill:none;stroke:#fafafa;"/>
     </g>
     <g id="line2d_32">
      <path d="M 46.772188 183.879376
" style="fill:none;stroke:#000000;stroke-width:1.5;"/>
     </g>
    </g>
    <g id="ytick_8">
     <g id="line2d_33">
      <path clip-path="url(#pe3e83bd1b5)" d="M 46.772188 123.399376
L 403.892188 123.399376
" style="fill:none;stroke:#fafafa;"/>
     </g>
     <g id="line2d_34">
      <path d="M 46.772188 123.399376
" style="fill:none;stroke:#000000;stroke-width:1.5;"/>
     </g>
    </g>
    <g id="ytick_9">
     <g id="line2d_35">
      <path clip-path="url(#pe3e83bd1b5)" d="M 46.772188 62.919376
L 403.892188 62.919376
" style="fill:none;stroke:#fafafa;"/>
     </g>
     <g id="line2d_36">
      <path d="M 46.772188 62.919376
" style="fill:none;stroke:#000000;stroke-width:1.5;"/>
     </g>
    </g>
    <g id="text_12">
     <!-- CAMERA pathway ranking -->
     <defs>
      <path d="M 64.40625 67.28125
L 64.40625 56.890625
Q 59.421875 61.53125 53.78125 63.8125
Q 48.140625 66.109375 41.796875 66.109375
Q 29.296875 66.109375 22.65625 58.46875
Q 16.015625 50.828125 16.015625 36.375
Q 16.015625 21.96875 22.65625 14.328125
Q 29.296875 6.6875 41.796875 6.6875
Q 48.140625 6.6875 53.78125 8.984375
Q 59.421875 11.28125 64.40625 15.921875
L 64.40625 5.609375
Q 59.234375 2.09375 53.4375 0.328125
Q 47.65625 -1.421875 41.21875 -1.421875
Q 24.65625 -1.421875 15.125 8.703125
Q 5.609375 18.84375 5.609375 36.375
Q 5.609375 53.953125 15.125 64.078125
Q 24.65625 74.21875 41.21875 74.21875
Q 47.75 74.21875 53.53125 72.484375
Q 59.328125 70.75 64.40625 67.28125
z
" id="DejaVuSans-67"/>
      <path d="M 9.8125 72.90625
L 24.515625 72.90625
L 43.109375 23.296875
L 61.8125 72.90625
L 76.515625 72.90625
L 76.515625 0
L 66.890625 0
L 66.890625 64.015625
L 48.09375 14.015625
L 38.1875 14.015625
L 19.390625 64.015625
L 19.390625 0
L 9.8125 0
z
" id="DejaVuSans-77"/>
      <path d="M 44.390625 34.1875
Q 47.5625 33.109375 50.5625 29.59375
Q 53.5625 26.078125 56.59375 19.921875
L 66.609375 0
L 56 0
L 46.6875 18.703125
Q 43.0625 26.03125 39.671875 28.421875
Q 36.28125 30.8125 30.421875 30.8125
L 19.671875 30.8125
L 19.671875 0
L 9.8125 0
L 9.8125 72.90625
L 32.078125 72.90625
Q 44.578125 72.90625 50.734375 67.671875
Q 56.890625 62.453125 56.890625 51.90625
Q 56.890625 45.015625 53.6875 40.46875
Q 50.484375 35.9375 44.390625 34.1875
z
M 19.671875 64.796875
L 19.671875 38.921875
L 32.078125 38.921875
Q 39.203125 38.921875 42.84375 42.21875
Q 46.484375 45.515625 46.484375 51.90625
Q 46.484375 58.296875 42.84375 61.546875
Q 39.203125 64.796875 32.078125 64.796875
z
" id="DejaVuSans-82"/>
     </defs>
     <g transform="translate(11.397656 249.186376)rotate(-90)scale(0.15 -0.15)">
      <use xlink:href="#DejaVuSans-67"/>
      <use x="69.824219" xlink:href="#DejaVuSans-65"/>
      <use x="138.232422" xlink:href="#DejaVuSans-77"/>
      <use x="224.511719" xlink:href="#DejaVuSans-69"/>
      <use x="287.695312" xlink:href="#DejaVuSans-82"/>
      <use x="357.115234" xlink:href="#DejaVuSans-65"/>
      <use x="425.523438" xlink:href="#DejaVuSans-32"/>
      <use x="457.310547" xlink:href="#DejaVuSans-112"/>
      <use x="520.787109" xlink:href="#DejaVuSans-97"/>
      <use x="582.066406" xlink:href="#DejaVuSans-116"/>
      <use x="621.275391" xlink:href="#DejaVuSans-104"/>
      <use x="684.654297" xlink:href="#DejaVuSans-119"/>
      <use x="766.441406" xlink:href="#DejaVuSans-97"/>
      <use x="827.720703" xlink:href="#DejaVuSans-121"/>
      <use x="886.900391" xlink:href="#DejaVuSans-32"/>
      <use x="918.6875" xlink:href="#DejaVuSans-114"/>
      <use x="959.800781" xlink:href="#DejaVuSans-97"/>
      <use x="1021.080078" xlink:href="#DejaVuSans-110"/>
      <use x="1084.458984" xlink:href="#DejaVuSans-107"/>
      <use x="1142.369141" xlink:href="#DejaVuSans-105"/>
      <use x="1170.152344" xlink:href="#DejaVuSans-110"/>
      <use x="1233.53125" xlink:href="#DejaVuSans-103"/>
     </g>
    </g>
   </g>
   <g id="PathCollection_1">
    <path clip-path="url(#pe3e83bd1b5)" d="M 245.623097 108.508973
C 246.093157 108.508973 246.544028 108.322216 246.876411 107.989833
C 247.208794 107.65745 247.39555 107.206579 247.39555 106.736519
C 247.39555 106.266458 247.208794 105.815587 246.876411 105.483205
C 246.544028 105.150822 246.093157 104.964065 245.623097 104.964065
C 245.153036 104.964065 244.702165 105.150822 244.369782 105.483205
C 244.0374 105.815587 243.850643 106.266458 243.850643 106.736519
C 243.850643 107.206579 244.0374 107.65745 244.369782 107.989833
C 244.702165 108.322216 245.153036 108.508973 245.623097 108.508973
z
" style="stroke:#000000;stroke-width:0.886227;"/>
    <path clip-path="url(#pe3e83bd1b5)" d="M 252.386733 101.103258
C 252.856793 101.103258 253.307664 100.916501 253.640047 100.584119
C 253.97243 100.251736 254.159187 99.800865 254.159187 99.330804
C 254.159187 98.860744 253.97243 98.409873 253.640047 98.07749
C 253.307664 97.745107 252.856793 97.558351 252.386733 97.558351
C 251.916673 97.558351 251.465802 97.745107 251.133419 98.07749
C 250.801036 98.409873 250.614279 98.860744 250.614279 99.330804
C 250.614279 99.800865 250.801036 100.251736 251.133419 100.584119
C 251.465802 100.916501 251.916673 101.103258 252.386733 101.103258
z
" style="stroke:#000000;stroke-width:0.886227;"/>
    <path clip-path="url(#pe3e83bd1b5)" d="M 387.65946 185.034687
C 388.12952 185.034687 388.580392 184.84793 388.912774 184.515547
C 389.245157 184.183164 389.431914 183.732293 389.431914 183.262233
C 389.431914 182.792173 389.245157 182.341302 388.912774 182.008919
C 388.580392 181.676536 388.12952 181.489779 387.65946 181.489779
C 387.1894 181.489779 386.738529 181.676536 386.406146 182.008919
C 386.073763 182.341302 385.887006 182.792173 385.887006 183.262233
C 385.887006 183.732293 386.073763 184.183164 386.406146 184.515547
C 386.738529 184.84793 387.1894 185.034687 387.65946 185.034687
z
" style="stroke:#000000;stroke-width:0.886227;"/>
    <path clip-path="url(#pe3e83bd1b5)" d="M 387.65946 93.697544
C 388.12952 93.697544 388.580392 93.510787 388.912774 93.178404
C 389.245157 92.846021 389.431914 92.39515 389.431914 91.92509
C 389.431914 91.45503 389.245157 91.004159 388.912774 90.671776
C 388.580392 90.339393 388.12952 90.152636 387.65946 90.152636
C 387.1894 90.152636 386.738529 90.339393 386.406146 90.671776
C 386.073763 91.004159 385.887006 91.45503 385.887006 91.92509
C 385.887006 92.39515 386.073763 92.846021 386.406146 93.178404
C 386.738529 93.510787 387.1894 93.697544 387.65946 93.697544
z
" style="stroke:#000000;stroke-width:0.886227;"/>
    <path clip-path="url(#pe3e83bd1b5)" d="M 367.368551 162.817544
C 367.838611 162.817544 368.289482 162.630787 368.621865 162.298404
C 368.954248 161.966021 369.141005 161.51515 369.141005 161.04509
C 369.141005 160.57503 368.954248 160.124159 368.621865 159.791776
C 368.289482 159.459393 367.838611 159.272636 367.368551 159.272636
C 366.898491 159.272636 366.44762 159.459393 366.115237 159.791776
C 365.782854 160.124159 365.596097 160.57503 365.596097 161.04509
C 365.596097 161.51515 365.782854 161.966021 366.115237 162.298404
C 366.44762 162.630787 366.898491 162.817544 367.368551 162.817544
z
" style="stroke:#000000;stroke-width:0.886227;"/>
    <path clip-path="url(#pe3e83bd1b5)" d="M 347.077642 192.440401
C 347.547702 192.440401 347.998573 192.253644 348.330956 191.921261
C 348.663339 191.588879 348.850096 191.138008 348.850096 190.667947
C 348.850096 190.197887 348.663339 189.747016 348.330956 189.414633
C 347.998573 189.08225 347.547702 188.895493 347.077642 188.895493
C 346.607582 188.895493 346.156711 189.08225 345.824328 189.414633
C 345.491945 189.747016 345.305188 190.197887 345.305188 190.667947
C 345.305188 191.138008 345.491945 191.588879 345.824328 191.921261
C 346.156711 192.253644 346.607582 192.440401 347.077642 192.440401
z
" style="stroke:#000000;stroke-width:0.886227;"/>
    <path clip-path="url(#pe3e83bd1b5)" d="M 333.550369 157.880401
C 334.02043 157.880401 334.471301 157.693644 334.803683 157.361261
C 335.136066 157.028879 335.322823 156.578008 335.322823 156.107947
C 335.322823 155.637887 335.136066 155.187016 334.803683 154.854633
C 334.471301 154.52225 334.02043 154.335493 333.550369 154.335493
C 333.080309 154.335493 332.629438 154.52225 332.297055 154.854633
C 331.964672 155.187016 331.777915 155.637887 331.777915 156.107947
C 331.777915 156.578008 331.964672 157.028879 332.297055 157.361261
C 332.629438 157.693644 333.080309 157.880401 333.550369 157.880401
z
" style="stroke:#000000;stroke-width:0.886227;"/>
    <path clip-path="url(#pe3e83bd1b5)" d="M 208.423097 254.154687
C 208.893157 254.154687 209.344028 253.96793 209.676411 253.635547
C 210.008794 253.303164 210.19555 252.852293 210.19555 252.382233
C 210.19555 251.912173 210.008794 251.461302 209.676411 251.128919
C 209.344028 250.796536 208.893157 250.609779 208.423097 250.609779
C 207.953036 250.609779 207.502165 250.796536 207.169782 251.128919
C 206.8374 251.461302 206.650643 251.912173 206.650643 252.382233
C 206.650643 252.852293 206.8374 253.303164 207.169782 253.635547
C 207.502165 253.96793 207.953036 254.154687 208.423097 254.154687
z
" style="stroke:#000000;stroke-width:0.886227;"/>
    <path clip-path="url(#pe3e83bd1b5)" d="M 123.877642 59.137544
C 124.347702 59.137544 124.798573 58.950787 125.130956 58.618404
C 125.463339 58.286021 125.650096 57.83515 125.650096 57.36509
C 125.650096 56.89503 125.463339 56.444159 125.130956 56.111776
C 124.798573 55.779393 124.347702 55.592636 123.877642 55.592636
C 123.407582 55.592636 122.956711 55.779393 122.624328 56.111776
C 122.291945 56.444159 122.105188 56.89503 122.105188 57.36509
C 122.105188 57.83515 122.291945 58.286021 122.624328 58.618404
C 122.956711 58.950787 123.407582 59.137544 123.877642 59.137544
z
" style="stroke:#000000;stroke-width:0.886227;"/>
    <path clip-path="url(#pe3e83bd1b5)" d="M 367.368551 152.943258
C 367.838611 152.943258 368.289482 152.756501 368.621865 152.424119
C 368.954248 152.091736 369.141005 151.640865 369.141005 151.170804
C 369.141005 150.700744 368.954248 150.249873 368.621865 149.91749
C 368.289482 149.585107 367.838611 149.398351 367.368551 149.398351
C 366.898491 149.398351 366.44762 149.585107 366.115237 149.91749
C 365.782854 150.249873 365.596097 150.700744 365.596097 151.170804
C 365.596097 151.640865 365.782854 152.091736 366.115237 152.424119
C 366.44762 152.756501 366.898491 152.943258 367.368551 152.943258
z
" style="stroke:#000000;stroke-width:0.886227;"/>
    <path clip-path="url(#pe3e83bd1b5)" d="M 387.65946 118.383258
C 388.12952 118.383258 388.580392 118.196501 388.912774 117.864119
C 389.245157 117.531736 389.431914 117.080865 389.431914 116.610804
C 389.431914 116.140744 389.245157 115.689873 388.912774 115.35749
C 388.580392 115.025107 388.12952 114.838351 387.65946 114.838351
C 387.1894 114.838351 386.738529 115.025107 386.406146 115.35749
C 386.073763 115.689873 385.887006 116.140744 385.887006 116.610804
C 385.887006 117.080865 386.073763 117.531736 386.406146 117.864119
C 386.738529 118.196501 387.1894 118.383258 387.65946 118.383258
z
" style="stroke:#000000;stroke-width:0.886227;"/>
    <path clip-path="url(#pe3e83bd1b5)" d="M 286.204915 185.034687
C 286.674975 185.034687 287.125846 184.84793 287.458229 184.515547
C 287.790612 184.183164 287.977369 183.732293 287.977369 183.262233
C 287.977369 182.792173 287.790612 182.341302 287.458229 182.008919
C 287.125846 181.676536 286.674975 181.489779 286.204915 181.489779
C 285.734855 181.489779 285.283983 181.676536 284.951601 182.008919
C 284.619218 182.341302 284.432461 182.792173 284.432461 183.262233
C 284.432461 183.732293 284.619218 184.183164 284.951601 184.515547
C 285.283983 184.84793 285.734855 185.034687 286.204915 185.034687
z
" style="stroke:#000000;stroke-width:0.886227;"/>
    <path clip-path="url(#pe3e83bd1b5)" d="M 292.968551 148.006115
C 293.438611 148.006115 293.889482 147.819358 294.221865 147.486976
C 294.554248 147.154593 294.741005 146.703722 294.741005 146.233662
C 294.741005 145.763601 294.554248 145.31273 294.221865 144.980347
C 293.889482 144.647965 293.438611 144.461208 292.968551 144.461208
C 292.498491 144.461208 292.04762 144.647965 291.715237 144.980347
C 291.382854 145.31273 291.196097 145.763601 291.196097 146.233662
C 291.196097 146.703722 291.382854 147.154593 291.715237 147.486976
C 292.04762 147.819358 292.498491 148.006115 292.968551 148.006115
z
" style="stroke:#000000;stroke-width:0.886227;"/>
    <path clip-path="url(#pe3e83bd1b5)" d="M 198.277642 138.13183
C 198.747702 138.13183 199.198573 137.945073 199.530956 137.61269
C 199.863339 137.280307 200.050096 136.829436 200.050096 136.359376
C 200.050096 135.889316 199.863339 135.438444 199.530956 135.106062
C 199.198573 134.773679 198.747702 134.586922 198.277642 134.586922
C 197.807582 134.586922 197.356711 134.773679 197.024328 135.106062
C 196.691945 135.438444 196.505188 135.889316 196.505188 136.359376
C 196.505188 136.829436 196.691945 137.280307 197.024328 137.61269
C 197.356711 137.945073 197.807582 138.13183 198.277642 138.13183
z
" style="stroke:#000000;stroke-width:0.886227;"/>
    <path clip-path="url(#pe3e83bd1b5)" d="M 265.914006 199.846115
C 266.384066 199.846115 266.834937 199.659358 267.16732 199.326976
C 267.499703 198.994593 267.68646 198.543722 267.68646 198.073662
C 267.68646 197.603601 267.499703 197.15273 267.16732 196.820347
C 266.834937 196.487965 266.384066 196.301208 265.914006 196.301208
C 265.443945 196.301208 264.993074 196.487965 264.660692 196.820347
C 264.328309 197.15273 264.141552 197.603601 264.141552 198.073662
C 264.141552 198.543722 264.328309 198.994593 264.660692 199.326976
C 264.993074 199.659358 265.443945 199.846115 265.914006 199.846115
z
" style="stroke:#000000;stroke-width:0.886227;"/>
    <path clip-path="url(#pe3e83bd1b5)" d="M 367.368551 254.154687
C 367.838611 254.154687 368.289482 253.96793 368.621865 253.635547
C 368.954248 253.303164 369.141005 252.852293 369.141005 252.382233
C 369.141005 251.912173 368.954248 251.461302 368.621865 251.128919
C 368.289482 250.796536 367.838611 250.609779 367.368551 250.609779
C 366.898491 250.609779 366.44762 250.796536 366.115237 251.128919
C 365.782854 251.461302 365.596097 251.912173 365.596097 252.382233
C 365.596097 252.852293 365.782854 253.303164 366.115237 253.635547
C 366.44762 253.96793 366.898491 254.154687 367.368551 254.154687
z
" style="stroke:#000000;stroke-width:0.886227;"/>
    <path clip-path="url(#pe3e83bd1b5)" d="M 279.441278 207.25183
C 279.911339 207.25183 280.36221 207.065073 280.694593 206.73269
C 281.026975 206.400307 281.213732 205.949436 281.213732 205.479376
C 281.213732 205.009316 281.026975 204.558444 280.694593 204.226062
C 280.36221 203.893679 279.911339 203.706922 279.441278 203.706922
C 278.971218 203.706922 278.520347 203.893679 278.187964 204.226062
C 277.855581 204.558444 277.668825 205.009316 277.668825 205.479376
C 277.668825 205.949436 277.855581 206.400307 278.187964 206.73269
C 278.520347 207.065073 278.971218 207.25183 279.441278 207.25183
z
" style="stroke:#000000;stroke-width:0.886227;"/>
    <path clip-path="url(#pe3e83bd1b5)" d="M 299.732188 64.074687
C 300.202248 64.074687 300.653119 63.88793 300.985502 63.555547
C 301.317884 63.223164 301.504641 62.772293 301.504641 62.302233
C 301.504641 61.832173 301.317884 61.381302 300.985502 61.048919
C 300.653119 60.716536 300.202248 60.529779 299.732188 60.529779
C 299.262127 60.529779 298.811256 60.716536 298.478873 61.048919
C 298.146491 61.381302 297.959734 61.832173 297.959734 62.302233
C 297.959734 62.772293 298.146491 63.223164 298.478873 63.555547
C 298.811256 63.88793 299.262127 64.074687 299.732188 64.074687
z
" style="stroke:#000000;stroke-width:0.886227;"/>
    <path clip-path="url(#pe3e83bd1b5)" d="M 259.150369 78.886115
C 259.62043 78.886115 260.071301 78.699358 260.403683 78.366976
C 260.736066 78.034593 260.922823 77.583722 260.922823 77.113662
C 260.922823 76.643601 260.736066 76.19273 260.403683 75.860347
C 260.071301 75.527965 259.62043 75.341208 259.150369 75.341208
C 258.680309 75.341208 258.229438 75.527965 257.897055 75.860347
C 257.564672 76.19273 257.377915 76.643601 257.377915 77.113662
C 257.377915 77.583722 257.564672 78.034593 257.897055 78.366976
C 258.229438 78.699358 258.680309 78.886115 259.150369 78.886115
z
" style="stroke:#000000;stroke-width:0.886227;"/>
    <path clip-path="url(#pe3e83bd1b5)" d="M 144.168551 34.45183
C 144.638611 34.45183 145.089482 34.265073 145.421865 33.93269
C 145.754248 33.600307 145.941005 33.149436 145.941005 32.679376
C 145.941005 32.209316 145.754248 31.758444 145.421865 31.426062
C 145.089482 31.093679 144.638611 30.906922 144.168551 30.906922
C 143.698491 30.906922 143.24762 31.093679 142.915237 31.426062
C 142.582854 31.758444 142.396097 32.209316 142.396097 32.679376
C 142.396097 33.149436 142.582854 33.600307 142.915237 33.93269
C 143.24762 34.265073 143.698491 34.45183 144.168551 34.45183
z
" style="stroke:#000000;stroke-width:0.886227;"/>
    <path clip-path="url(#pe3e83bd1b5)" d="M 232.095824 123.320401
C 232.565884 123.320401 233.016755 123.133644 233.349138 122.801261
C 233.681521 122.468879 233.868278 122.018008 233.868278 121.547947
C 233.868278 121.077887 233.681521 120.627016 233.349138 120.294633
C 233.016755 119.96225 232.565884 119.775493 232.095824 119.775493
C 231.625764 119.775493 231.174893 119.96225 230.84251 120.294633
C 230.510127 120.627016 230.32337 121.077887 230.32337 121.547947
C 230.32337 122.018008 230.510127 122.468879 230.84251 122.801261
C 231.174893 123.133644 231.625764 123.320401 232.095824 123.320401
z
" style="stroke:#000000;stroke-width:0.886227;"/>
    <path clip-path="url(#pe3e83bd1b5)" d="M 340.314006 88.760401
C 340.784066 88.760401 341.234937 88.573644 341.56732 88.241261
C 341.899703 87.908879 342.08646 87.458008 342.08646 86.987947
C 342.08646 86.517887 341.899703 86.067016 341.56732 85.734633
C 341.234937 85.40225 340.784066 85.215493 340.314006 85.215493
C 339.843945 85.215493 339.393074 85.40225 339.060692 85.734633
C 338.728309 86.067016 338.541552 86.517887 338.541552 86.987947
C 338.541552 87.458008 338.728309 87.908879 339.060692 88.241261
C 339.393074 88.573644 339.843945 88.760401 340.314006 88.760401
z
" style="stroke:#000000;stroke-width:0.886227;"/>
    <path clip-path="url(#pe3e83bd1b5)" d="M 306.495824 101.103258
C 306.965884 101.103258 307.416755 100.916501 307.749138 100.584119
C 308.081521 100.251736 308.268278 99.800865 308.268278 99.330804
C 308.268278 98.860744 308.081521 98.409873 307.749138 98.07749
C 307.416755 97.745107 306.965884 97.558351 306.495824 97.558351
C 306.025764 97.558351 305.574893 97.745107 305.24251 98.07749
C 304.910127 98.409873 304.72337 98.860744 304.72337 99.330804
C 304.72337 99.800865 304.910127 100.251736 305.24251 100.584119
C 305.574893 100.916501 306.025764 101.103258 306.495824 101.103258
z
" style="stroke:#000000;stroke-width:0.886227;"/>
    <path clip-path="url(#pe3e83bd1b5)" d="M 177.986733 261.560401
C 178.456793 261.560401 178.907664 261.373644 179.240047 261.041261
C 179.57243 260.708879 179.759187 260.258008 179.759187 259.787947
C 179.759187 259.317887 179.57243 258.867016 179.240047 258.534633
C 178.907664 258.20225 178.456793 258.015493 177.986733 258.015493
C 177.516673 258.015493 177.065802 258.20225 176.733419 258.534633
C 176.401036 258.867016 176.214279 259.317887 176.214279 259.787947
C 176.214279 260.258008 176.401036 260.708879 176.733419 261.041261
C 177.065802 261.373644 177.516673 261.560401 177.986733 261.560401
z
" style="stroke:#000000;stroke-width:0.886227;"/>
    <path clip-path="url(#pe3e83bd1b5)" d="M 320.023097 167.754687
C 320.493157 167.754687 320.944028 167.56793 321.276411 167.235547
C 321.608794 166.903164 321.79555 166.452293 321.79555 165.982233
C 321.79555 165.512173 321.608794 165.061302 321.276411 164.728919
C 320.944028 164.396536 320.493157 164.209779 320.023097 164.209779
C 319.553036 164.209779 319.102165 164.396536 318.769782 164.728919
C 318.4374 165.061302 318.250643 165.512173 318.250643 165.982233
C 318.250643 166.452293 318.4374 166.903164 318.769782 167.235547
C 319.102165 167.56793 319.553036 167.754687 320.023097 167.754687
z
" style="stroke:#000000;stroke-width:0.886227;"/>
    <path clip-path="url(#pe3e83bd1b5)" d="M 69.768551 217.126115
C 70.238611 217.126115 70.689482 216.939358 71.021865 216.606976
C 71.354248 216.274593 71.541005 215.823722 71.541005 215.353662
C 71.541005 214.883601 71.354248 214.43273 71.021865 214.100347
C 70.689482 213.767965 70.238611 213.581208 69.768551 213.581208
C 69.298491 213.581208 68.84762 213.767965 68.515237 214.100347
C 68.182854 214.43273 67.996097 214.883601 67.996097 215.353662
C 67.996097 215.823722 68.182854 216.274593 68.515237 216.606976
C 68.84762 216.939358 69.298491 217.126115 69.768551 217.126115
z
" style="stroke:#000000;stroke-width:0.886227;"/>
    <path clip-path="url(#pe3e83bd1b5)" d="M 225.332188 212.188973
C 225.802248 212.188973 226.253119 212.002216 226.585502 211.669833
C 226.917884 211.33745 227.104641 210.886579 227.104641 210.416519
C 227.104641 209.946458 226.917884 209.495587 226.585502 209.163205
C 226.253119 208.830822 225.802248 208.644065 225.332188 208.644065
C 224.862127 208.644065 224.411256 208.830822 224.078873 209.163205
C 223.746491 209.495587 223.559734 209.946458 223.559734 210.416519
C 223.559734 210.886579 223.746491 211.33745 224.078873 211.669833
C 224.411256 212.002216 224.862127 212.188973 225.332188 212.188973
z
" style="stroke:#000000;stroke-width:0.886227;"/>
    <path clip-path="url(#pe3e83bd1b5)" d="M 150.932188 244.280401
C 151.402248 244.280401 151.853119 244.093644 152.185502 243.761261
C 152.517884 243.428879 152.704641 242.978008 152.704641 242.507947
C 152.704641 242.037887 152.517884 241.587016 152.185502 241.254633
C 151.853119 240.92225 151.402248 240.735493 150.932188 240.735493
C 150.462127 240.735493 150.011256 240.92225 149.678873 241.254633
C 149.346491 241.587016 149.159734 242.037887 149.159734 242.507947
C 149.159734 242.978008 149.346491 243.428879 149.678873 243.761261
C 150.011256 244.093644 150.462127 244.280401 150.932188 244.280401
z
" style="stroke:#000000;stroke-width:0.886227;"/>
    <path clip-path="url(#pe3e83bd1b5)" d="M 157.695824 130.726115
C 158.165884 130.726115 158.616755 130.539358 158.949138 130.206976
C 159.281521 129.874593 159.468278 129.423722 159.468278 128.953662
C 159.468278 128.483601 159.281521 128.03273 158.949138 127.700347
C 158.616755 127.367965 158.165884 127.181208 157.695824 127.181208
C 157.225764 127.181208 156.774893 127.367965 156.44251 127.700347
C 156.110127 128.03273 155.92337 128.483601 155.92337 128.953662
C 155.92337 129.423722 156.110127 129.874593 156.44251 130.206976
C 156.774893 130.539358 157.225764 130.726115 157.695824 130.726115
z
" style="stroke:#000000;stroke-width:0.886227;"/>
    <path clip-path="url(#pe3e83bd1b5)" d="M 164.45946 266.497544
C 164.92952 266.497544 165.380392 266.310787 165.712774 265.978404
C 166.045157 265.646021 166.231914 265.19515 166.231914 264.72509
C 166.231914 264.25503 166.045157 263.804159 165.712774 263.471776
C 165.380392 263.139393 164.92952 262.952636 164.45946 262.952636
C 163.9894 262.952636 163.538529 263.139393 163.206146 263.471776
C 162.873763 263.804159 162.687006 264.25503 162.687006 264.72509
C 162.687006 265.19515 162.873763 265.646021 163.206146 265.978404
C 163.538529 266.310787 163.9894 266.497544 164.45946 266.497544
z
" style="stroke:#000000;stroke-width:0.886227;"/>
    <path clip-path="url(#pe3e83bd1b5)" d="M 326.786733 177.628973
C 327.256793 177.628973 327.707664 177.442216 328.040047 177.109833
C 328.37243 176.77745 328.559187 176.326579 328.559187 175.856519
C 328.559187 175.386458 328.37243 174.935587 328.040047 174.603205
C 327.707664 174.270822 327.256793 174.084065 326.786733 174.084065
C 326.316673 174.084065 325.865802 174.270822 325.533419 174.603205
C 325.201036 174.935587 325.014279 175.386458 325.014279 175.856519
C 325.014279 176.326579 325.201036 176.77745 325.533419 177.109833
C 325.865802 177.442216 326.316673 177.628973 326.786733 177.628973
z
" style="stroke:#000000;stroke-width:0.886227;"/>
    <path clip-path="url(#pe3e83bd1b5)" d="M 171.223097 44.326115
C 171.693157 44.326115 172.144028 44.139358 172.476411 43.806976
C 172.808794 43.474593 172.99555 43.023722 172.99555 42.553662
C 172.99555 42.083601 172.808794 41.63273 172.476411 41.300347
C 172.144028 40.967965 171.693157 40.781208 171.223097 40.781208
C 170.753036 40.781208 170.302165 40.967965 169.969782 41.300347
C 169.6374 41.63273 169.450643 42.083601 169.450643 42.553662
C 169.450643 43.023722 169.6374 43.474593 169.969782 43.806976
C 170.302165 44.139358 170.753036 44.326115 171.223097 44.326115
z
" style="stroke:#000000;stroke-width:0.886227;"/>
    <path clip-path="url(#pe3e83bd1b5)" d="M 353.841278 39.388973
C 354.311339 39.388973 354.76221 39.202216 355.094593 38.869833
C 355.426975 38.53745 355.613732 38.086579 355.613732 37.616519
C 355.613732 37.146458 355.426975 36.695587 355.094593 36.363205
C 354.76221 36.030822 354.311339 35.844065 353.841278 35.844065
C 353.371218 35.844065 352.920347 36.030822 352.587964 36.363205
C 352.255581 36.695587 352.068825 37.146458 352.068825 37.616519
C 352.068825 38.086579 352.255581 38.53745 352.587964 38.869833
C 352.920347 39.202216 353.371218 39.388973 353.841278 39.388973
z
" style="stroke:#000000;stroke-width:0.886227;"/>
    <path clip-path="url(#pe3e83bd1b5)" d="M 272.677642 83.823258
C 273.147702 83.823258 273.598573 83.636501 273.930956 83.304119
C 274.263339 82.971736 274.450096 82.520865 274.450096 82.050804
C 274.450096 81.580744 274.263339 81.129873 273.930956 80.79749
C 273.598573 80.465107 273.147702 80.278351 272.677642 80.278351
C 272.207582 80.278351 271.756711 80.465107 271.424328 80.79749
C 271.091945 81.129873 270.905188 81.580744 270.905188 82.050804
C 270.905188 82.520865 271.091945 82.971736 271.424328 83.304119
C 271.756711 83.636501 272.207582 83.823258 272.677642 83.823258
z
" style="stroke:#000000;stroke-width:0.886227;"/>
    <path clip-path="url(#pe3e83bd1b5)" d="M 313.25946 143.068973
C 313.72952 143.068973 314.180392 142.882216 314.512774 142.549833
C 314.845157 142.21745 315.031914 141.766579 315.031914 141.296519
C 315.031914 140.826458 314.845157 140.375587 314.512774 140.043205
C 314.180392 139.710822 313.72952 139.524065 313.25946 139.524065
C 312.7894 139.524065 312.338529 139.710822 312.006146 140.043205
C 311.673763 140.375587 311.487006 140.826458 311.487006 141.296519
C 311.487006 141.766579 311.673763 142.21745 312.006146 142.549833
C 312.338529 142.882216 312.7894 143.068973 313.25946 143.068973
z
" style="stroke:#000000;stroke-width:0.886227;"/>
    <path clip-path="url(#pe3e83bd1b5)" d="M 76.532188 244.280401
C 77.002248 244.280401 77.453119 244.093644 77.785502 243.761261
C 78.117884 243.428879 78.304641 242.978008 78.304641 242.507947
C 78.304641 242.037887 78.117884 241.587016 77.785502 241.254633
C 77.453119 240.92225 77.002248 240.735493 76.532188 240.735493
C 76.062127 240.735493 75.611256 240.92225 75.278873 241.254633
C 74.946491 241.587016 74.759734 242.037887 74.759734 242.507947
C 74.759734 242.978008 74.946491 243.428879 75.278873 243.761261
C 75.611256 244.093644 76.062127 244.280401 76.532188 244.280401
z
" style="stroke:#000000;stroke-width:0.886227;"/>
    <path clip-path="url(#pe3e83bd1b5)" d="M 63.004915 271.434687
C 63.474975 271.434687 63.925846 271.24793 64.258229 270.915547
C 64.590612 270.583164 64.777369 270.132293 64.777369 269.662233
C 64.777369 269.192173 64.590612 268.741302 64.258229 268.408919
C 63.925846 268.076536 63.474975 267.889779 63.004915 267.889779
C 62.534855 267.889779 62.083983 268.076536 61.751601 268.408919
C 61.419218 268.741302 61.232461 269.192173 61.232461 269.662233
C 61.232461 270.132293 61.419218 270.583164 61.751601 270.915547
C 62.083983 271.24793 62.534855 271.434687 63.004915 271.434687
z
" style="stroke:#000000;stroke-width:0.886227;"/>
    <path clip-path="url(#pe3e83bd1b5)" d="M 191.514006 130.726115
C 191.984066 130.726115 192.434937 130.539358 192.76732 130.206976
C 193.099703 129.874593 193.28646 129.423722 193.28646 128.953662
C 193.28646 128.483601 193.099703 128.03273 192.76732 127.700347
C 192.434937 127.367965 191.984066 127.181208 191.514006 127.181208
C 191.043945 127.181208 190.593074 127.367965 190.260692 127.700347
C 189.928309 128.03273 189.741552 128.483601 189.741552 128.953662
C 189.741552 129.423722 189.928309 129.874593 190.260692 130.206976
C 190.593074 130.539358 191.043945 130.726115 191.514006 130.726115
z
" style="stroke:#000000;stroke-width:0.886227;"/>
    <path clip-path="url(#pe3e83bd1b5)" d="M 137.404915 276.37183
C 137.874975 276.37183 138.325846 276.185073 138.658229 275.85269
C 138.990612 275.520307 139.177369 275.069436 139.177369 274.599376
C 139.177369 274.129316 138.990612 273.678444 138.658229 273.346062
C 138.325846 273.013679 137.874975 272.826922 137.404915 272.826922
C 136.934855 272.826922 136.483983 273.013679 136.151601 273.346062
C 135.819218 273.678444 135.632461 274.129316 135.632461 274.599376
C 135.632461 275.069436 135.819218 275.520307 136.151601 275.85269
C 136.483983 276.185073 136.934855 276.37183 137.404915 276.37183
z
" style="stroke:#000000;stroke-width:0.886227;"/>
    <path clip-path="url(#pe3e83bd1b5)" d="M 218.568551 69.01183
C 219.038611 69.01183 219.489482 68.825073 219.821865 68.49269
C 220.154248 68.160307 220.341005 67.709436 220.341005 67.239376
C 220.341005 66.769316 220.154248 66.318444 219.821865 65.986062
C 219.489482 65.653679 219.038611 65.466922 218.568551 65.466922
C 218.098491 65.466922 217.64762 65.653679 217.315237 65.986062
C 216.982854 66.318444 216.796097 66.769316 216.796097 67.239376
C 216.796097 67.709436 216.982854 68.160307 217.315237 68.49269
C 217.64762 68.825073 218.098491 69.01183 218.568551 69.01183
z
" style="stroke:#000000;stroke-width:0.886227;"/>
    <path clip-path="url(#pe3e83bd1b5)" d="M 83.295824 231.937544
C 83.765884 231.937544 84.216755 231.750787 84.549138 231.418404
C 84.881521 231.086021 85.068278 230.63515 85.068278 230.16509
C 85.068278 229.69503 84.881521 229.244159 84.549138 228.911776
C 84.216755 228.579393 83.765884 228.392636 83.295824 228.392636
C 82.825764 228.392636 82.374893 228.579393 82.04251 228.911776
C 81.710127 229.244159 81.52337 229.69503 81.52337 230.16509
C 81.52337 230.63515 81.710127 231.086021 82.04251 231.418404
C 82.374893 231.750787 82.825764 231.937544 83.295824 231.937544
z
" style="stroke:#000000;stroke-width:0.886227;"/>
    <path clip-path="url(#pe3e83bd1b5)" d="M 208.423097 49.263258
C 208.893157 49.263258 209.344028 49.076501 209.676411 48.744119
C 210.008794 48.411736 210.19555 47.960865 210.19555 47.490804
C 210.19555 47.020744 210.008794 46.569873 209.676411 46.23749
C 209.344028 45.905107 208.893157 45.718351 208.423097 45.718351
C 207.953036 45.718351 207.502165 45.905107 207.169782 46.23749
C 206.8374 46.569873 206.650643 47.020744 206.650643 47.490804
C 206.650643 47.960865 206.8374 48.411736 207.169782 48.744119
C 207.502165 49.076501 207.953036 49.263258 208.423097 49.263258
z
" style="stroke:#000000;stroke-width:0.886227;"/>
    <path clip-path="url(#pe3e83bd1b5)" d="M 110.350369 73.948973
C 110.82043 73.948973 111.271301 73.762216 111.603683 73.429833
C 111.936066 73.09745 112.122823 72.646579 112.122823 72.176519
C 112.122823 71.706458 111.936066 71.255587 111.603683 70.923205
C 111.271301 70.590822 110.82043 70.404065 110.350369 70.404065
C 109.880309 70.404065 109.429438 70.590822 109.097055 70.923205
C 108.764672 71.255587 108.577915 71.706458 108.577915 72.176519
C 108.577915 72.646579 108.764672 73.09745 109.097055 73.429833
C 109.429438 73.762216 109.880309 73.948973 110.350369 73.948973
z
" style="stroke:#000000;stroke-width:0.886227;"/>
    <path clip-path="url(#pe3e83bd1b5)" d="M 103.586733 227.000401
C 104.056793 227.000401 104.507664 226.813644 104.840047 226.481261
C 105.17243 226.148879 105.359187 225.698008 105.359187 225.227947
C 105.359187 224.757887 105.17243 224.307016 104.840047 223.974633
C 104.507664 223.64225 104.056793 223.455493 103.586733 223.455493
C 103.116673 223.455493 102.665802 223.64225 102.333419 223.974633
C 102.001036 224.307016 101.814279 224.757887 101.814279 225.227947
C 101.814279 225.698008 102.001036 226.148879 102.333419 226.481261
C 102.665802 226.813644 103.116673 227.000401 103.586733 227.000401
z
" style="stroke:#000000;stroke-width:0.886227;"/>
    <path clip-path="url(#pe3e83bd1b5)" d="M 184.750369 54.200401
C 185.22043 54.200401 185.671301 54.013644 186.003683 53.681261
C 186.336066 53.348879 186.522823 52.898008 186.522823 52.427947
C 186.522823 51.957887 186.336066 51.507016 186.003683 51.174633
C 185.671301 50.84225 185.22043 50.655493 184.750369 50.655493
C 184.280309 50.655493 183.829438 50.84225 183.497055 51.174633
C 183.164672 51.507016 182.977915 51.957887 182.977915 52.427947
C 182.977915 52.898008 183.164672 53.348879 183.497055 53.681261
C 183.829438 54.013644 184.280309 54.200401 184.750369 54.200401
z
" style="stroke:#000000;stroke-width:0.886227;"/>
    <path clip-path="url(#pe3e83bd1b5)" d="M 130.641278 199.846115
C 131.111339 199.846115 131.56221 199.659358 131.894593 199.326976
C 132.226975 198.994593 132.413732 198.543722 132.413732 198.073662
C 132.413732 197.603601 132.226975 197.15273 131.894593 196.820347
C 131.56221 196.487965 131.111339 196.301208 130.641278 196.301208
C 130.171218 196.301208 129.720347 196.487965 129.387964 196.820347
C 129.055581 197.15273 128.868825 197.603601 128.868825 198.073662
C 128.868825 198.543722 129.055581 198.994593 129.387964 199.326976
C 129.720347 199.659358 130.171218 199.846115 130.641278 199.846115
z
" style="stroke:#000000;stroke-width:0.886227;"/>
    <path clip-path="url(#pe3e83bd1b5)" d="M 117.114006 236.874687
C 117.584066 236.874687 118.034937 236.68793 118.36732 236.355547
C 118.699703 236.023164 118.88646 235.572293 118.88646 235.102233
C 118.88646 234.632173 118.699703 234.181302 118.36732 233.848919
C 118.034937 233.516536 117.584066 233.329779 117.114006 233.329779
C 116.643945 233.329779 116.193074 233.516536 115.860692 233.848919
C 115.528309 234.181302 115.341552 234.632173 115.341552 235.102233
C 115.341552 235.572293 115.528309 236.023164 115.860692 236.355547
C 116.193074 236.68793 116.643945 236.874687 117.114006 236.874687
z
" style="stroke:#000000;stroke-width:0.886227;"/>
    <path clip-path="url(#pe3e83bd1b5)" d="M 238.85946 172.69183
C 239.32952 172.69183 239.780392 172.505073 240.112774 172.17269
C 240.445157 171.840307 240.631914 171.389436 240.631914 170.919376
C 240.631914 170.449316 240.445157 169.998444 240.112774 169.666062
C 239.780392 169.333679 239.32952 169.146922 238.85946 169.146922
C 238.3894 169.146922 237.938529 169.333679 237.606146 169.666062
C 237.273763 169.998444 237.087006 170.449316 237.087006 170.919376
C 237.087006 171.389436 237.273763 171.840307 237.606146 172.17269
C 237.938529 172.505073 238.3894 172.69183 238.85946 172.69183
z
" style="stroke:#000000;stroke-width:0.886227;"/>
    <path clip-path="url(#pe3e83bd1b5)" d="M 90.05946 222.063258
C 90.52952 222.063258 90.980392 221.876501 91.312774 221.544119
C 91.645157 221.211736 91.831914 220.760865 91.831914 220.290804
C 91.831914 219.820744 91.645157 219.369873 91.312774 219.03749
C 90.980392 218.705107 90.52952 218.518351 90.05946 218.518351
C 89.5894 218.518351 89.138529 218.705107 88.806146 219.03749
C 88.473763 219.369873 88.287006 219.820744 88.287006 220.290804
C 88.287006 220.760865 88.473763 221.211736 88.806146 221.544119
C 89.138529 221.876501 89.5894 222.063258 90.05946 222.063258
z
" style="stroke:#000000;stroke-width:0.886227;"/>
    <path clip-path="url(#pe3e83bd1b5)" d="M 96.823097 113.446115
C 97.293157 113.446115 97.744028 113.259358 98.076411 112.926976
C 98.408794 112.594593 98.59555 112.143722 98.59555 111.673662
C 98.59555 111.203601 98.408794 110.75273 98.076411 110.420347
C 97.744028 110.087965 97.293157 109.901208 96.823097 109.901208
C 96.353036 109.901208 95.902165 110.087965 95.569782 110.420347
C 95.2374 110.75273 95.050643 111.203601 95.050643 111.673662
C 95.050643 112.143722 95.2374 112.594593 95.569782 112.926976
C 95.902165 113.259358 96.353036 113.446115 96.823097 113.446115
z
" style="stroke:#000000;stroke-width:0.886227;"/>
   </g>
  </g>
  <g id="text_13">
   <!-- GSEA vs CAMERA pathway ranking -->
   <defs>
    <path d="M 2.984375 54.6875
L 12.5 54.6875
L 29.59375 8.796875
L 46.6875 54.6875
L 56.203125 54.6875
L 35.6875 0
L 23.484375 0
z
" id="DejaVuSans-118"/>
    <path d="M 44.28125 53.078125
L 44.28125 44.578125
Q 40.484375 46.53125 36.375 47.5
Q 32.28125 48.484375 27.875 48.484375
Q 21.1875 48.484375 17.84375 46.4375
Q 14.5 44.390625 14.5 40.28125
Q 14.5 37.15625 16.890625 35.375
Q 19.28125 33.59375 26.515625 31.984375
L 29.59375 31.296875
Q 39.15625 29.25 43.1875 25.515625
Q 47.21875 21.78125 47.21875 15.09375
Q 47.21875 7.46875 41.1875 3.015625
Q 35.15625 -1.421875 24.609375 -1.421875
Q 20.21875 -1.421875 15.453125 -0.5625
Q 10.6875 0.296875 5.421875 2
L 5.421875 11.28125
Q 10.40625 8.6875 15.234375 7.390625
Q 20.0625 6.109375 24.8125 6.109375
Q 31.15625 6.109375 34.5625 8.28125
Q 37.984375 10.453125 37.984375 14.40625
Q 37.984375 18.0625 35.515625 20.015625
Q 33.0625 21.96875 24.703125 23.78125
L 21.578125 24.515625
Q 13.234375 26.265625 9.515625 29.90625
Q 5.8125 33.546875 5.8125 39.890625
Q 5.8125 47.609375 11.28125 51.796875
Q 16.75 56 26.8125 56
Q 31.78125 56 36.171875 55.265625
Q 40.578125 54.546875 44.28125 53.078125
z
" id="DejaVuSans-115"/>
   </defs>
   <g transform="translate(88.741719 11.397656)scale(0.15 -0.15)">
    <use xlink:href="#DejaVuSans-71"/>
    <use x="77.490234" xlink:href="#DejaVuSans-83"/>
    <use x="140.966797" xlink:href="#DejaVuSans-69"/>
    <use x="204.150391" xlink:href="#DejaVuSans-65"/>
    <use x="272.558594" xlink:href="#DejaVuSans-32"/>
    <use x="304.345703" xlink:href="#DejaVuSans-118"/>
    <use x="363.525391" xlink:href="#DejaVuSans-115"/>
    <use x="415.625" xlink:href="#DejaVuSans-32"/>
    <use x="447.412109" xlink:href="#DejaVuSans-67"/>
    <use x="517.236328" xlink:href="#DejaVuSans-65"/>
    <use x="585.644531" xlink:href="#DejaVuSans-77"/>
    <use x="671.923828" xlink:href="#DejaVuSans-69"/>
    <use x="735.107422" xlink:href="#DejaVuSans-82"/>
    <use x="804.527344" xlink:href="#DejaVuSans-65"/>
    <use x="872.935547" xlink:href="#DejaVuSans-32"/>
    <use x="904.722656" xlink:href="#DejaVuSans-112"/>
    <use x="968.199219" xlink:href="#DejaVuSans-97"/>
    <use x="1029.478516" xlink:href="#DejaVuSans-116"/>
    <use x="1068.6875" xlink:href="#DejaVuSans-104"/>
    <use x="1132.066406" xlink:href="#DejaVuSans-119"/>
    <use x="1213.853516" xlink:href="#DejaVuSans-97"/>
    <use x="1275.132812" xlink:href="#DejaVuSans-121"/>
    <use x="1334.3125" xlink:href="#DejaVuSans-32"/>
    <use x="1366.099609" xlink:href="#DejaVuSans-114"/>
    <use x="1407.212891" xlink:href="#DejaVuSans-97"/>
    <use x="1468.492188" xlink:href="#DejaVuSans-110"/>
    <use x="1531.871094" xlink:href="#DejaVuSans-107"/>
    <use x="1589.78125" xlink:href="#DejaVuSans-105"/>
    <use x="1617.564453" xlink:href="#DejaVuSans-110"/>
    <use x="1680.943359" xlink:href="#DejaVuSans-103"/>
   </g>
  </g>
 </g>
 <defs>
  <clipPath id="pe3e83bd1b5">
   <rect height="266.112" width="357.12" x="46.772188" y="20.583376"/>
  </clipPath>
 </defs>
</svg>
