<?xml version="1.0" encoding="utf-8" standalone="no"?>
<!DOCTYPE svg PUBLIC "-//W3C//DTD SVG 1.1//EN"
  "http://www.w3.org/Graphics/SVG/1.1/DTD/svg11.dtd">
<!-- Created with matplotlib (https://matplotlib.org/) -->
<svg height="322.176313pt" version="1.1" viewBox="0 0 406.642188 322.176313" width="406.642188pt" xmlns="http://www.w3.org/2000/svg" xmlns:xlink="http://www.w3.org/1999/xlink">
 <defs>
  <style type="text/css">
*{stroke-linecap:butt;stroke-linejoin:round;}
  </style>
 </defs>
 <g id="figure_1">
  <g id="patch_1">
   <path d="M 0 322.176313
L 406.642188 322.176313
L 406.642188 0
L 0 0
z
" style="fill:#ffffff;stroke:#ffffff;stroke-linejoin:miter;"/>
  </g>
  <g id="axes_1">
   <g id="patch_2">
    <path d="M 46.772188 286.695376
L 403.892188 286.695376
L 403.892188 20.583376
L 46.772188 20.583376
z
" style="fill:none;"/>
   </g>
   <g id="matplotlib.axis_1">
    <g id="xtick_1">
     <g id="line2d_1">
      <path clip-path="url(#pfaa6a3eb9c)" d="M 62.355119 286.695376
L 62.355119 20.583376
" style="fill:none;stroke:#e5e5e5;stroke-width:0.8;"/>
     </g>
     <g id="line2d_2">
      <path d="M 62.355119 286.695376
" style="fill:none;stroke:#000000;stroke-width:1.5;"/>
      <defs>
       <path d="M 0 0
L 0 2.75
" id="m7b28d75188" style="stroke:#000000;"/>
      </defs>
      <g>
       <use style="stroke:#000000;" x="62.355119" xlink:href="#m7b28d75188" y="286.695376"/>
      </g>
     </g>
     <g id="text_1">
      <!-- 0 -->
      <defs>
       <path d="M 31.78125 66.40625
Q 24.171875 66.40625 20.328125 58.90625
Q 16.5 51.421875 16.5 36.375
Q 16.5 21.390625 20.328125 13.890625
Q 24.171875 6.390625 31.78125 6.390625
Q 39.453125 6.390625 43.28125 13.890625
Q 47.125 21.390625 47.125 36.375
Q 47.125 51.421875 43.28125 58.90625
Q 39.453125 66.40625 31.78125 66.40625
z
M 31.78125 74.21875
Q 44.046875 74.21875 50.515625 64.515625
Q 56.984375 54.828125 56.984375 36.375
Q 56.984375 17.96875 50.515625 8.265625
Q 44.046875 -1.421875 31.78125 -1.421875
Q 19.53125 -1.421875 13.0625 8.265625
Q 6.59375 17.96875 6.59375 36.375
Q 6.59375 54.828125 13.0625 64.515625
Q 19.53125 74.21875 31.78125 74.21875
z
" id="DejaVuSans-48"/>
      </defs>
      <g style="fill:#4d4d4d;" transform="translate(58.537619 300.763501)scale(0.12 -0.12)">
       <use xlink:href="#DejaVuSans-48"/>
      </g>
     </g>
    </g>
    <g id="xtick_2">
     <g id="line2d_3">
      <path clip-path="url(#pfaa6a3eb9c)" d="M 153.461721 286.695376
L 153.461721 20.583376
" style="fill:none;stroke:#e5e5e5;stroke-width:0.8;"/>
     </g>
     <g id="line2d_4">
      <path d="M 153.461721 286.695376
" style="fill:none;stroke:#000000;stroke-width:1.5;"/>
      <g>
       <use style="stroke:#000000;" x="153.461721" xlink:href="#m7b28d75188" y="286.695376"/>
      </g>
     </g>
     <g id="text_2">
      <!-- 0.2 -->
      <defs>
       <path d="M 10.6875 12.40625
L 21 12.40625
L 21 0
L 10.6875 0
z
" id="DejaVuSans-46"/>
       <path d="M 19.1875 8.296875
L 53.609375 8.296875
L 53.609375 0
L 7.328125 0
L 7.328125 8.296875
Q 12.9375 14.109375 22.625 23.890625
Q 32.328125 33.6875 34.8125 36.53125
Q 39.546875 41.84375 41.421875 45.53125
Q 43.3125 49.21875 43.3125 52.78125
Q 43.3125 58.59375 39.234375 62.25
Q 35.15625 65.921875 28.609375 65.921875
Q 23.96875 65.921875 18.8125 64.3125
Q 13.671875 62.703125 7.8125 59.421875
L 7.8125 69.390625
Q 13.765625 71.78125 18.9375 73
Q 24.125 74.21875 28.421875 74.21875
Q 39.75 74.21875 46.484375 68.546875
Q 53.21875 62.890625 53.21875 53.421875
Q 53.21875 48.921875 51.53125 44.890625
Q 49.859375 40.875 45.40625 35.40625
Q 44.1875 33.984375 37.640625 27.21875
Q 31.109375 20.453125 19.1875 8.296875
z
" id="DejaVuSans-50"/>
      </defs>
      <g style="fill:#4d4d4d;" transform="translate(143.919846 300.763501)scale(0.12 -0.12)">
       <use xlink:href="#DejaVuSans-48"/>
       <use x="63.623047" xlink:href="#DejaVuSans-46"/>
       <use x="95.410156" xlink:href="#DejaVuSans-50"/>
      </g>
     </g>
    </g>
    <g id="xtick_3">
     <g id="line2d_5">
      <path clip-path="url(#pfaa6a3eb9c)" d="M 244.568323 286.695376
L 244.568323 20.583376
" style="fill:none;stroke:#e5e5e5;stroke-width:0.8;"/>
     </g>
     <g id="line2d_6">
      <path d="M 244.568323 286.695376
" style="fill:none;stroke:#000000;stroke-width:1.5;"/>
      <g>
       <use style="stroke:#000000;" x="244.568323" xlink:href="#m7b28d75188" y="286.695376"/>
      </g>
     </g>
     <g id="text_3">
      <!-- 0.4 -->
      <defs>
       <path d="M 37.796875 64.3125
L 12.890625 25.390625
L 37.796875 25.390625
z
M 35.203125 72.90625
L 47.609375 72.90625
L 47.609375 25.390625
L 58.015625 25.390625
L 58.015625 17.1875
L 47.609375 17.1875
L 47.609375 0
L 37.796875 0
L 37.796875 17.1875
L 4.890625 17.1875
L 4.890625 26.703125
z
" id="DejaVuSans-52"/>
      </defs>
      <g style="fill:#4d4d4d;" transform="translate(235.026448 300.763501)scale(0.12 -0.12)">
       <use xlink:href="#DejaVuSans-48"/>
       <use x="63.623047" xlink:href="#DejaVuSans-46"/>
       <use x="95.410156" xlink:href="#DejaVuSans-52"/>
      </g>
     </g>
    </g>
    <g id="xtick_4">
     <g id="line2d_7">
      <path clip-path="url(#pfaa6a3eb9c)" d="M 335.674925 286.695376
L 335.674925 20.583376
" style="fill:none;stroke:#e5e5e5;stroke-width:0.8;"/>
     </g>
     <g id="line2d_8">
      <path d="M 335.674925 286.695376
" style="fill:none;stroke:#000000;stroke-width:1.5;"/>
      <g>
       <use style="stroke:#000000;" x="335.674925" xlink:href="#m7b28d75188" y="286.695376"/>
      </g>
     </g>
     <g id="text_4">
      <!-- 0.6 -->
      <defs>
       <path d="M 33.015625 40.375
Q 26.375 40.375 22.484375 35.828125
Q 18.609375 31.296875 18.609375 23.390625
Q 18.609375 15.53125 22.484375 10.953125
Q 26.375 6.390625 33.015625 6.390625
Q 39.65625 6.390625 43.53125 10.953125
Q 47.40625 15.53125 47.40625 23.390625
Q 47.40625 31.296875 43.53125 35.828125
Q 39.65625 40.375 33.015625 40.375
z
M 52.59375 71.296875
L 52.59375 62.3125
Q 48.875 64.0625 45.09375 64.984375
Q 41.3125 65.921875 37.59375 65.921875
Q 27.828125 65.921875 22.671875 59.328125
Q 17.53125 52.734375 16.796875 39.40625
Q 19.671875 43.65625 24.015625 45.921875
Q 28.375 48.1875 33.59375 48.1875
Q 44.578125 48.1875 50.953125 41.515625
Q 57.328125 34.859375 57.328125 23.390625
Q 57.328125 12.15625 50.6875 5.359375
Q 44.046875 -1.421875 33.015625 -1.421875
Q 20.359375 -1.421875 13.671875 8.265625
Q 6.984375 17.96875 6.984375 36.375
Q 6.984375 53.65625 15.1875 63.9375
Q 23.390625 74.21875 37.203125 74.21875
Q 40.921875 74.21875 44.703125 73.484375
Q 48.484375 72.75 52.59375 71.296875
z
" id="DejaVuSans-54"/>
      </defs>
      <g style="fill:#4d4d4d;" transform="translate(326.13305 300.763501)scale(0.12 -0.12)">
       <use xlink:href="#DejaVuSans-48"/>
       <use x="63.623047" xlink:href="#DejaVuSans-46"/>
       <use x="95.410156" xlink:href="#DejaVuSans-54"/>
      </g>
     </g>
    </g>
    <g id="xtick_5">
     <g id="line2d_9">
      <path clip-path="url(#pfaa6a3eb9c)" d="M 107.90842 286.695376
L 107.90842 20.583376
" style="fill:none;stroke:#fafafa;"/>
     </g>
     <g id="line2d_10">
      <path d="M 107.90842 286.695376
" style="fill:none;stroke:#000000;stroke-width:1.5;"/>
     </g>
    </g>
    <g id="xtick_6">
     <g id="line2d_11">
      <path clip-path="url(#pfaa6a3eb9c)" d="M 199.015022 286.695376
L 199.015022 20.583376
" style="fill:none;stroke:#fafafa;"/>
     </g>
     <g id="line2d_12">
      <path d="M 199.015022 286.695376
" style="fill:none;stroke:#000000;stroke-width:1.5;"/>
     </g>
    </g>
    <g id="xtick_7">
     <g id="line2d_13">
      <path clip-path="url(#pfaa6a3eb9c)" d="M 290.121624 286.695376
L 290.121624 20.583376
" style="fill:none;stroke:#fafafa;"/>
     </g>
     <g id="line2d_14">
      <path d="M 290.121624 286.695376
" style="fill:none;stroke:#000000;stroke-width:1.5;"/>
     </g>
    </g>
    <g id="xtick_8">
     <g id="line2d_15">
      <path clip-path="url(#pfaa6a3eb9c)" d="M 381.228226 286.695376
L 381.228226 20.583376
" style="fill:none;stroke:#fafafa;"/>
     </g>
     <g id="line2d_16">
      <path d="M 381.228226 286.695376
" style="fill:none;stroke:#000000;stroke-width:1.5;"/>
     </g>
    </g>
    <g id="text_5">
     <!-- Median(adjusted p-value (BH)) -->
     <defs>
      <path d="M 9.8125 72.90625
L 24.515625 72.90625
L 43.109375 23.296875
L 61.8125 72.90625
L 76.515625 72.90625
L 76.515625 0
L 66.890625 0
L 66.890625 64.015625
L 48.09375 14.015625
L 38.1875 14.015625
L 19.390625 64.015625
L 19.390625 0
L 9.8125 0
z
" id="DejaVuSans-77"/>
      <path d="M 56.203125 29.59375
L 56.203125 25.203125
L 14.890625 25.203125
Q 15.484375 15.921875 20.484375 11.0625
Q 25.484375 6.203125 34.421875 6.203125
Q 39.59375 6.203125 44.453125 7.46875
Q 49.3125 8.734375 54.109375 11.28125
L 54.109375 2.78125
Q 49.265625 0.734375 44.1875 -0.34375
Q 39.109375 -1.421875 33.890625 -1.421875
Q 20.796875 -1.421875 13.15625 6.1875
Q 5.515625 13.8125 5.515625 26.8125
Q 5.515625 40.234375 12.765625 48.109375
Q 20.015625 56 32.328125 56
Q 43.359375 56 49.78125 48.890625
Q 56.203125 41.796875 56.203125 29.59375
z
M 47.21875 32.234375
Q 47.125 39.59375 43.09375 43.984375
Q 39.0625 48.390625 32.421875 48.390625
Q 24.90625 48.390625 20.390625 44.140625
Q 15.875 39.890625 15.1875 32.171875
z
" id="DejaVuSans-101"/>
      <path d="M 45.40625 46.390625
L 45.40625 75.984375
L 54.390625 75.984375
L 54.390625 0
L 45.40625 0
L 45.40625 8.203125
Q 42.578125 3.328125 38.25 0.953125
Q 33.9375 -1.421875 27.875 -1.421875
Q 17.96875 -1.421875 11.734375 6.484375
Q 5.515625 14.40625 5.515625 27.296875
Q 5.515625 40.1875 11.734375 48.09375
Q 17.96875 56 27.875 56
Q 33.9375 56 38.25 53.625
Q 42.578125 51.265625 45.40625 46.390625
z
M 14.796875 27.296875
Q 14.796875 17.390625 18.875 11.75
Q 22.953125 6.109375 30.078125 6.109375
Q 37.203125 6.109375 41.296875 11.75
Q 45.40625 17.390625 45.40625 27.296875
Q 45.40625 37.203125 41.296875 42.84375
Q 37.203125 48.484375 30.078125 48.484375
Q 22.953125 48.484375 18.875 42.84375
Q 14.796875 37.203125 14.796875 27.296875
z
" id="DejaVuSans-100"/>
      <path d="M 9.421875 54.6875
L 18.40625 54.6875
L 18.40625 0
L 9.421875 0
z
M 9.421875 75.984375
L 18.40625 75.984375
L 18.40625 64.59375
L 9.421875 64.59375
z
" id="DejaVuSans-105"/>
      <path d="M 34.28125 27.484375
Q 23.390625 27.484375 19.1875 25
Q 14.984375 22.515625 14.984375 16.5
Q 14.984375 11.71875 18.140625 8.90625
Q 21.296875 6.109375 26.703125 6.109375
Q 34.1875 6.109375 38.703125 11.40625
Q 43.21875 16.703125 43.21875 25.484375
L 43.21875 27.484375
z
M 52.203125 31.203125
L 52.203125 0
L 43.21875 0
L 43.21875 8.296875
Q 40.140625 3.328125 35.546875 0.953125
Q 30.953125 -1.421875 24.3125 -1.421875
Q 15.921875 -1.421875 10.953125 3.296875
Q 6 8.015625 6 15.921875
Q 6 25.140625 12.171875 29.828125
Q 18.359375 34.515625 30.609375 34.515625
L 43.21875 34.515625
L 43.21875 35.40625
Q 43.21875 41.609375 39.140625 45
Q 35.0625 48.390625 27.6875 48.390625
Q 23 48.390625 18.546875 47.265625
Q 14.109375 46.140625 10.015625 43.890625
L 10.015625 52.203125
Q 14.9375 54.109375 19.578125 55.046875
Q 24.21875 56 28.609375 56
Q 40.484375 56 46.34375 49.84375
Q 52.203125 43.703125 52.203125 31.203125
z
" id="DejaVuSans-97"/>
      <path d="M 54.890625 33.015625
L 54.890625 0
L 45.90625 0
L 45.90625 32.71875
Q 45.90625 40.484375 42.875 44.328125
Q 39.84375 48.1875 33.796875 48.1875
Q 26.515625 48.1875 22.3125 43.546875
Q 18.109375 38.921875 18.109375 30.90625
L 18.109375 0
L 9.078125 0
L 9.078125 54.6875
L 18.109375 54.6875
L 18.109375 46.1875
Q 21.34375 51.125 25.703125 53.5625
Q 30.078125 56 35.796875 56
Q 45.21875 56 50.046875 50.171875
Q 54.890625 44.34375 54.890625 33.015625
z
" id="DejaVuSans-110"/>
      <path d="M 31 75.875
Q 24.46875 64.65625 21.28125 53.65625
Q 18.109375 42.671875 18.109375 31.390625
Q 18.109375 20.125 21.3125 9.0625
Q 24.515625 -2 31 -13.1875
L 23.1875 -13.1875
Q 15.875 -1.703125 12.234375 9.375
Q 8.59375 20.453125 8.59375 31.390625
Q 8.59375 42.28125 12.203125 53.3125
Q 15.828125 64.359375 23.1875 75.875
z
" id="DejaVuSans-40"/>
      <path d="M 9.421875 54.6875
L 18.40625 54.6875
L 18.40625 -0.984375
Q 18.40625 -11.421875 14.421875 -16.109375
Q 10.453125 -20.796875 1.609375 -20.796875
L -1.8125 -20.796875
L -1.8125 -13.1875
L 0.59375 -13.1875
Q 5.71875 -13.1875 7.5625 -10.8125
Q 9.421875 -8.453125 9.421875 -0.984375
z
M 9.421875 75.984375
L 18.40625 75.984375
L 18.40625 64.59375
L 9.421875 64.59375
z
" id="DejaVuSans-106"/>
      <path d="M 8.5 21.578125
L 8.5 54.6875
L 17.484375 54.6875
L 17.484375 21.921875
Q 17.484375 14.15625 20.5 10.265625
Q 23.53125 6.390625 29.59375 6.390625
Q 36.859375 6.390625 41.078125 11.03125
Q 45.3125 15.671875 45.3125 23.6875
L 45.3125 54.6875
L 54.296875 54.6875
L 54.296875 0
L 45.3125 0
L 45.3125 8.40625
Q 42.046875 3.421875 37.71875 1
Q 33.40625 -1.421875 27.6875 -1.421875
Q 18.265625 -1.421875 13.375 4.4375
Q 8.5 10.296875 8.5 21.578125
z
M 31.109375 56
z
" id="DejaVuSans-117"/>
      <path d="M 44.28125 53.078125
L 44.28125 44.578125
Q 40.484375 46.53125 36.375 47.5
Q 32.28125 48.484375 27.875 48.484375
Q 21.1875 48.484375 17.84375 46.4375
Q 14.5 44.390625 14.5 40.28125
Q 14.5 37.15625 16.890625 35.375
Q 19.28125 33.59375 26.515625 31.984375
L 29.59375 31.296875
Q 39.15625 29.25 43.1875 25.515625
Q 47.21875 21.78125 47.21875 15.09375
Q 47.21875 7.46875 41.1875 3.015625
Q 35.15625 -1.421875 24.609375 -1.421875
Q 20.21875 -1.421875 15.453125 -0.5625
Q 10.6875 0.296875 5.421875 2
L 5.421875 11.28125
Q 10.40625 8.6875 15.234375 7.390625
Q 20.0625 6.109375 24.8125 6.109375
Q 31.15625 6.109375 34.5625 8.28125
Q 37.984375 10.453125 37.984375 14.40625
Q 37.984375 18.0625 35.515625 20.015625
Q 33.0625 21.96875 24.703125 23.78125
L 21.578125 24.515625
Q 13.234375 26.265625 9.515625 29.90625
Q 5.8125 33.546875 5.8125 39.890625
Q 5.8125 47.609375 11.28125 51.796875
Q 16.75 56 26.8125 56
Q 31.78125 56 36.171875 55.265625
Q 40.578125 54.546875 44.28125 53.078125
z
" id="DejaVuSans-115"/>
      <path d="M 18.3125 70.21875
L 18.3125 54.6875
L 36.8125 54.6875
L 36.8125 47.703125
L 18.3125 47.703125
L 18.3125 18.015625
Q 18.3125 11.328125 20.140625 9.421875
Q 21.96875 7.515625 27.59375 7.515625
L 36.8125 7.515625
L 36.8125 0
L 27.59375 0
Q 17.1875 0 13.234375 3.875
Q 9.28125 7.765625 9.28125 18.015625
L 9.28125 47.703125
L 2.6875 47.703125
L 2.6875 54.6875
L 9.28125 54.6875
L 9.28125 70.21875
z
" id="DejaVuSans-116"/>
      <path id="DejaVuSans-32"/>
      <path d="M 18.109375 8.203125
L 18.109375 -20.796875
L 9.078125 -20.796875
L 9.078125 54.6875
L 18.109375 54.6875
L 18.109375 46.390625
Q 20.953125 51.265625 25.265625 53.625
Q 29.59375 56 35.59375 56
Q 45.5625 56 51.78125 48.09375
Q 58.015625 40.1875 58.015625 27.296875
Q 58.015625 14.40625 51.78125 6.484375
Q 45.5625 -1.421875 35.59375 -1.421875
Q 29.59375 -1.421875 25.265625 0.953125
Q 20.953125 3.328125 18.109375 8.203125
z
M 48.6875 27.296875
Q 48.6875 37.203125 44.609375 42.84375
Q 40.53125 48.484375 33.40625 48.484375
Q 26.265625 48.484375 22.1875 42.84375
Q 18.109375 37.203125 18.109375 27.296875
Q 18.109375 17.390625 22.1875 11.75
Q 26.265625 6.109375 33.40625 6.109375
Q 40.53125 6.109375 44.609375 11.75
Q 48.6875 17.390625 48.6875 27.296875
z
" id="DejaVuSans-112"/>
      <path d="M 4.890625 31.390625
L 31.203125 31.390625
L 31.203125 23.390625
L 4.890625 23.390625
z
" id="DejaVuSans-45"/>
      <path d="M 2.984375 54.6875
L 12.5 54.6875
L 29.59375 8.796875
L 46.6875 54.6875
L 56.203125 54.6875
L 35.6875 0
L 23.484375 0
z
" id="DejaVuSans-118"/>
      <path d="M 9.421875 75.984375
L 18.40625 75.984375
L 18.40625 0
L 9.421875 0
z
" id="DejaVuSans-108"/>
      <path d="M 19.671875 34.8125
L 19.671875 8.109375
L 35.5 8.109375
Q 43.453125 8.109375 47.28125 11.40625
Q 51.125 14.703125 51.125 21.484375
Q 51.125 28.328125 47.28125 31.5625
Q 43.453125 34.8125 35.5 34.8125
z
M 19.671875 64.796875
L 19.671875 42.828125
L 34.28125 42.828125
Q 41.5 42.828125 45.03125 45.53125
Q 48.578125 48.25 48.578125 53.8125
Q 48.578125 59.328125 45.03125 62.0625
Q 41.5 64.796875 34.28125 64.796875
z
M 9.8125 72.90625
L 35.015625 72.90625
Q 46.296875 72.90625 52.390625 68.21875
Q 58.5 63.53125 58.5 54.890625
Q 58.5 48.1875 55.375 44.234375
Q 52.25 40.28125 46.1875 39.3125
Q 53.46875 37.75 57.5 32.78125
Q 61.53125 27.828125 61.53125 20.40625
Q 61.53125 10.640625 54.890625 5.3125
Q 48.25 0 35.984375 0
L 9.8125 0
z
" id="DejaVuSans-66"/>
      <path d="M 9.8125 72.90625
L 19.671875 72.90625
L 19.671875 43.015625
L 55.515625 43.015625
L 55.515625 72.90625
L 65.375 72.90625
L 65.375 0
L 55.515625 0
L 55.515625 34.71875
L 19.671875 34.71875
L 19.671875 0
L 9.8125 0
z
" id="DejaVuSans-72"/>
      <path d="M 8.015625 75.875
L 15.828125 75.875
Q 23.140625 64.359375 26.78125 53.3125
Q 30.421875 42.28125 30.421875 31.390625
Q 30.421875 20.453125 26.78125 9.375
Q 23.140625 -1.703125 15.828125 -13.1875
L 8.015625 -13.1875
Q 14.5 -2 17.703125 9.0625
Q 20.90625 20.125 20.90625 31.390625
Q 20.90625 42.671875 17.703125 53.65625
Q 14.5 64.65625 8.015625 75.875
z
" id="DejaVuSans-41"/>
     </defs>
     <g transform="translate(104.665156 319.056782)scale(0.15 -0.15)">
      <use xlink:href="#DejaVuSans-77"/>
      <use x="86.279297" xlink:href="#DejaVuSans-101"/>
      <use x="147.802734" xlink:href="#DejaVuSans-100"/>
      <use x="211.279297" xlink:href="#DejaVuSans-105"/>
      <use x="239.0625" xlink:href="#DejaVuSans-97"/>
      <use x="300.341797" xlink:href="#DejaVuSans-110"/>
      <use x="363.720703" xlink:href="#DejaVuSans-40"/>
      <use x="402.734375" xlink:href="#DejaVuSans-97"/>
      <use x="464.013672" xlink:href="#DejaVuSans-100"/>
      <use x="527.490234" xlink:href="#DejaVuSans-106"/>
      <use x="555.273438" xlink:href="#DejaVuSans-117"/>
      <use x="618.652344" xlink:href="#DejaVuSans-115"/>
      <use x="670.751953" xlink:href="#DejaVuSans-116"/>
      <use x="709.960938" xlink:href="#DejaVuSans-101"/>
      <use x="771.484375" xlink:href="#DejaVuSans-100"/>
      <use x="834.960938" xlink:href="#DejaVuSans-32"/>
      <use x="866.748047" xlink:href="#DejaVuSans-112"/>
      <use x="930.224609" xlink:href="#DejaVuSans-45"/>
      <use x="966.277344" xlink:href="#DejaVuSans-118"/>
      <use x="1025.457031" xlink:href="#DejaVuSans-97"/>
      <use x="1086.736328" xlink:href="#DejaVuSans-108"/>
      <use x="1114.519531" xlink:href="#DejaVuSans-117"/>
      <use x="1177.898438" xlink:href="#DejaVuSans-101"/>
      <use x="1239.421875" xlink:href="#DejaVuSans-32"/>
      <use x="1271.208984" xlink:href="#DejaVuSans-40"/>
      <use x="1310.222656" xlink:href="#DejaVuSans-66"/>
      <use x="1378.826172" xlink:href="#DejaVuSans-72"/>
      <use x="1454.021484" xlink:href="#DejaVuSans-41"/>
      <use x="1493.035156" xlink:href="#DejaVuSans-41"/>
     </g>
    </g>
   </g>
   <g id="matplotlib.axis_2">
    <g id="ytick_1">
     <g id="line2d_17">
      <path clip-path="url(#pfaa6a3eb9c)" d="M 46.772188 274.599376
L 403.892188 274.599376
" style="fill:none;stroke:#e5e5e5;stroke-width:0.8;"/>
     </g>
     <g id="line2d_18">
      <path d="M 46.772188 274.599376
" style="fill:none;stroke:#000000;stroke-width:1.5;"/>
      <defs>
       <path d="M 0 0
L -2.75 0
" id="mc4ab7948b0" style="stroke:#000000;"/>
      </defs>
      <g>
       <use style="stroke:#000000;" x="46.772188" xlink:href="#mc4ab7948b0" y="274.599376"/>
      </g>
     </g>
     <g id="text_6">
      <!-- 0 -->
      <g style="fill:#4d4d4d;" transform="translate(34.187188 277.910626)scale(0.12 -0.12)">
       <use xlink:href="#DejaVuSans-48"/>
      </g>
     </g>
    </g>
    <g id="ytick_2">
     <g id="line2d_19">
      <path clip-path="url(#pfaa6a3eb9c)" d="M 46.772188 214.119376
L 403.892188 214.119376
" style="fill:none;stroke:#e5e5e5;stroke-width:0.8;"/>
     </g>
     <g id="line2d_20">
      <path d="M 46.772188 214.119376
" style="fill:none;stroke:#000000;stroke-width:1.5;"/>
      <g>
       <use style="stroke:#000000;" x="46.772188" xlink:href="#mc4ab7948b0" y="214.119376"/>
      </g>
     </g>
     <g id="text_7">
      <!-- 25 -->
      <defs>
       <path d="M 10.796875 72.90625
L 49.515625 72.90625
L 49.515625 64.59375
L 19.828125 64.59375
L 19.828125 46.734375
Q 21.96875 47.46875 24.109375 47.828125
Q 26.265625 48.1875 28.421875 48.1875
Q 40.625 48.1875 47.75 41.5
Q 54.890625 34.8125 54.890625 23.390625
Q 54.890625 11.625 47.5625 5.09375
Q 40.234375 -1.421875 26.90625 -1.421875
Q 22.3125 -1.421875 17.546875 -0.640625
Q 12.796875 0.140625 7.71875 1.703125
L 7.71875 11.625
Q 12.109375 9.234375 16.796875 8.0625
Q 21.484375 6.890625 26.703125 6.890625
Q 35.15625 6.890625 40.078125 11.328125
Q 45.015625 15.765625 45.015625 23.390625
Q 45.015625 31 40.078125 35.4375
Q 35.15625 39.890625 26.703125 39.890625
Q 22.75 39.890625 18.8125 39.015625
Q 14.890625 38.140625 10.796875 36.28125
z
" id="DejaVuSans-53"/>
      </defs>
      <g style="fill:#4d4d4d;" transform="translate(26.552188 217.430626)scale(0.12 -0.12)">
       <use xlink:href="#DejaVuSans-50"/>
       <use x="63.623047" xlink:href="#DejaVuSans-53"/>
      </g>
     </g>
    </g>
    <g id="ytick_3">
     <g id="line2d_21">
      <path clip-path="url(#pfaa6a3eb9c)" d="M 46.772188 153.639376
L 403.892188 153.639376
" style="fill:none;stroke:#e5e5e5;stroke-width:0.8;"/>
     </g>
     <g id="line2d_22">
      <path d="M 46.772188 153.639376
" style="fill:none;stroke:#000000;stroke-width:1.5;"/>
      <g>
       <use style="stroke:#000000;" x="46.772188" xlink:href="#mc4ab7948b0" y="153.639376"/>
      </g>
     </g>
     <g id="text_8">
      <!-- 50 -->
      <g style="fill:#4d4d4d;" transform="translate(26.552188 156.950626)scale(0.12 -0.12)">
       <use xlink:href="#DejaVuSans-53"/>
       <use x="63.623047" xlink:href="#DejaVuSans-48"/>
      </g>
     </g>
    </g>
    <g id="ytick_4">
     <g id="line2d_23">
      <path clip-path="url(#pfaa6a3eb9c)" d="M 46.772188 93.159376
L 403.892188 93.159376
" style="fill:none;stroke:#e5e5e5;stroke-width:0.8;"/>
     </g>
     <g id="line2d_24">
      <path d="M 46.772188 93.159376
" style="fill:none;stroke:#000000;stroke-width:1.5;"/>
      <g>
       <use style="stroke:#000000;" x="46.772188" xlink:href="#mc4ab7948b0" y="93.159376"/>
      </g>
     </g>
     <g id="text_9">
      <!-- 75 -->
      <defs>
       <path d="M 8.203125 72.90625
L 55.078125 72.90625
L 55.078125 68.703125
L 28.609375 0
L 18.3125 0
L 43.21875 64.59375
L 8.203125 64.59375
z
" id="DejaVuSans-55"/>
      </defs>
      <g style="fill:#4d4d4d;" transform="translate(26.552188 96.470626)scale(0.12 -0.12)">
       <use xlink:href="#DejaVuSans-55"/>
       <use x="63.623047" xlink:href="#DejaVuSans-53"/>
      </g>
     </g>
    </g>
    <g id="ytick_5">
     <g id="line2d_25">
      <path clip-path="url(#pfaa6a3eb9c)" d="M 46.772188 32.679376
L 403.892188 32.679376
" style="fill:none;stroke:#e5e5e5;stroke-width:0.8;"/>
     </g>
     <g id="line2d_26">
      <path d="M 46.772188 32.679376
" style="fill:none;stroke:#000000;stroke-width:1.5;"/>
      <g>
       <use style="stroke:#000000;" x="46.772188" xlink:href="#mc4ab7948b0" y="32.679376"/>
      </g>
     </g>
     <g id="text_10">
      <!-- 100 -->
      <defs>
       <path d="M 12.40625 8.296875
L 28.515625 8.296875
L 28.515625 63.921875
L 10.984375 60.40625
L 10.984375 69.390625
L 28.421875 72.90625
L 38.28125 72.90625
L 38.28125 8.296875
L 54.390625 8.296875
L 54.390625 0
L 12.40625 0
z
" id="DejaVuSans-49"/>
      </defs>
      <g style="fill:#4d4d4d;" transform="translate(18.917188 35.990626)scale(0.12 -0.12)">
       <use xlink:href="#DejaVuSans-49"/>
       <use x="63.623047" xlink:href="#DejaVuSans-48"/>
       <use x="127.246094" xlink:href="#DejaVuSans-48"/>
      </g>
     </g>
    </g>
    <g id="ytick_6">
     <g id="line2d_27">
      <path clip-path="url(#pfaa6a3eb9c)" d="M 46.772188 244.359376
L 403.892188 244.359376
" style="fill:none;stroke:#fafafa;"/>
     </g>
     <g id="line2d_28">
      <path d="M 46.772188 244.359376
" style="fill:none;stroke:#000000;stroke-width:1.5;"/>
     </g>
    </g>
    <g id="ytick_7">
     <g id="line2d_29">
      <path clip-path="url(#pfaa6a3eb9c)" d="M 46.772188 183.879376
L 403.892188 183.879376
" style="fill:none;stroke:#fafafa;"/>
     </g>
     <g id="line2d_30">
      <path d="M 46.772188 183.879376
" style="fill:none;stroke:#000000;stroke-width:1.5;"/>
     </g>
    </g>
    <g id="ytick_8">
     <g id="line2d_31">
      <path clip-path="url(#pfaa6a3eb9c)" d="M 46.772188 123.399376
L 403.892188 123.399376
" style="fill:none;stroke:#fafafa;"/>
     </g>
     <g id="line2d_32">
      <path d="M 46.772188 123.399376
" style="fill:none;stroke:#000000;stroke-width:1.5;"/>
     </g>
    </g>
    <g id="ytick_9">
     <g id="line2d_33">
      <path clip-path="url(#pfaa6a3eb9c)" d="M 46.772188 62.919376
L 403.892188 62.919376
" style="fill:none;stroke:#fafafa;"/>
     </g>
     <g id="line2d_34">
      <path d="M 46.772188 62.919376
" style="fill:none;stroke:#000000;stroke-width:1.5;"/>
     </g>
    </g>
    <g id="text_11">
     <!-- Genericness (percentile of ranking) -->
     <defs>
      <path d="M 59.515625 10.40625
L 59.515625 29.984375
L 43.40625 29.984375
L 43.40625 38.09375
L 69.28125 38.09375
L 69.28125 6.78125
Q 63.578125 2.734375 56.6875 0.65625
Q 49.8125 -1.421875 42 -1.421875
Q 24.90625 -1.421875 15.25 8.5625
Q 5.609375 18.5625 5.609375 36.375
Q 5.609375 54.25 15.25 64.234375
Q 24.90625 74.21875 42 74.21875
Q 49.125 74.21875 55.546875 72.453125
Q 61.96875 70.703125 67.390625 67.28125
L 67.390625 56.78125
Q 61.921875 61.421875 55.765625 63.765625
Q 49.609375 66.109375 42.828125 66.109375
Q 29.4375 66.109375 22.71875 58.640625
Q 16.015625 51.171875 16.015625 36.375
Q 16.015625 21.625 22.71875 14.15625
Q 29.4375 6.6875 42.828125 6.6875
Q 48.046875 6.6875 52.140625 7.59375
Q 56.25 8.5 59.515625 10.40625
z
" id="DejaVuSans-71"/>
      <path d="M 41.109375 46.296875
Q 39.59375 47.171875 37.8125 47.578125
Q 36.03125 48 33.890625 48
Q 26.265625 48 22.1875 43.046875
Q 18.109375 38.09375 18.109375 28.8125
L 18.109375 0
L 9.078125 0
L 9.078125 54.6875
L 18.109375 54.6875
L 18.109375 46.1875
Q 20.953125 51.171875 25.484375 53.578125
Q 30.03125 56 36.53125 56
Q 37.453125 56 38.578125 55.875
Q 39.703125 55.765625 41.0625 55.515625
z
" id="DejaVuSans-114"/>
      <path d="M 48.78125 52.59375
L 48.78125 44.1875
Q 44.96875 46.296875 41.140625 47.34375
Q 37.3125 48.390625 33.40625 48.390625
Q 24.65625 48.390625 19.8125 42.84375
Q 14.984375 37.3125 14.984375 27.296875
Q 14.984375 17.28125 19.8125 11.734375
Q 24.65625 6.203125 33.40625 6.203125
Q 37.3125 6.203125 41.140625 7.25
Q 44.96875 8.296875 48.78125 10.40625
L 48.78125 2.09375
Q 45.015625 0.34375 40.984375 -0.53125
Q 36.96875 -1.421875 32.421875 -1.421875
Q 20.0625 -1.421875 12.78125 6.34375
Q 5.515625 14.109375 5.515625 27.296875
Q 5.515625 40.671875 12.859375 48.328125
Q 20.21875 56 33.015625 56
Q 37.15625 56 41.109375 55.140625
Q 45.0625 54.296875 48.78125 52.59375
z
" id="DejaVuSans-99"/>
      <path d="M 30.609375 48.390625
Q 23.390625 48.390625 19.1875 42.75
Q 14.984375 37.109375 14.984375 27.296875
Q 14.984375 17.484375 19.15625 11.84375
Q 23.34375 6.203125 30.609375 6.203125
Q 37.796875 6.203125 41.984375 11.859375
Q 46.1875 17.53125 46.1875 27.296875
Q 46.1875 37.015625 41.984375 42.703125
Q 37.796875 48.390625 30.609375 48.390625
z
M 30.609375 56
Q 42.328125 56 49.015625 48.375
Q 55.71875 40.765625 55.71875 27.296875
Q 55.71875 13.875 49.015625 6.21875
Q 42.328125 -1.421875 30.609375 -1.421875
Q 18.84375 -1.421875 12.171875 6.21875
Q 5.515625 13.875 5.515625 27.296875
Q 5.515625 40.765625 12.171875 48.375
Q 18.84375 56 30.609375 56
z
" id="DejaVuSans-111"/>
      <path d="M 37.109375 75.984375
L 37.109375 68.5
L 28.515625 68.5
Q 23.6875 68.5 21.796875 66.546875
Q 19.921875 64.59375 19.921875 59.515625
L 19.921875 54.6875
L 34.71875 54.6875
L 34.71875 47.703125
L 19.921875 47.703125
L 19.921875 0
L 10.890625 0
L 10.890625 47.703125
L 2.296875 47.703125
L 2.296875 54.6875
L 10.890625 54.6875
L 10.890625 58.5
Q 10.890625 67.625 15.140625 71.796875
Q 19.390625 75.984375 28.609375 75.984375
z
" id="DejaVuSans-102"/>
      <path d="M 9.078125 75.984375
L 18.109375 75.984375
L 18.109375 31.109375
L 44.921875 54.6875
L 56.390625 54.6875
L 27.390625 29.109375
L 57.625 0
L 45.90625 0
L 18.109375 26.703125
L 18.109375 0
L 9.078125 0
z
" id="DejaVuSans-107"/>
      <path d="M 45.40625 27.984375
Q 45.40625 37.75 41.375 43.109375
Q 37.359375 48.484375 30.078125 48.484375
Q 22.859375 48.484375 18.828125 43.109375
Q 14.796875 37.75 14.796875 27.984375
Q 14.796875 18.265625 18.828125 12.890625
Q 22.859375 7.515625 30.078125 7.515625
Q 37.359375 7.515625 41.375 12.890625
Q 45.40625 18.265625 45.40625 27.984375
z
M 54.390625 6.78125
Q 54.390625 -7.171875 48.1875 -13.984375
Q 42 -20.796875 29.203125 -20.796875
Q 24.46875 -20.796875 20.265625 -20.09375
Q 16.0625 -19.390625 12.109375 -17.921875
L 12.109375 -9.1875
Q 16.0625 -11.328125 19.921875 -12.34375
Q 23.78125 -13.375 27.78125 -13.375
Q 36.625 -13.375 41.015625 -8.765625
Q 45.40625 -4.15625 45.40625 5.171875
L 45.40625 9.625
Q 42.625 4.78125 38.28125 2.390625
Q 33.9375 0 27.875 0
Q 17.828125 0 11.671875 7.65625
Q 5.515625 15.328125 5.515625 27.984375
Q 5.515625 40.671875 11.671875 48.328125
Q 17.828125 56 27.875 56
Q 33.9375 56 38.28125 53.609375
Q 42.625 51.21875 45.40625 46.390625
L 45.40625 54.6875
L 54.390625 54.6875
z
" id="DejaVuSans-103"/>
     </defs>
     <g transform="translate(11.397656 284.455126)rotate(-90)scale(0.15 -0.15)">
      <use xlink:href="#DejaVuSans-71"/>
      <use x="77.490234" xlink:href="#DejaVuSans-101"/>
      <use x="139.013672" xlink:href="#DejaVuSans-110"/>
      <use x="202.392578" xlink:href="#DejaVuSans-101"/>
      <use x="263.916016" xlink:href="#DejaVuSans-114"/>
      <use x="305.029297" xlink:href="#DejaVuSans-105"/>
      <use x="332.8125" xlink:href="#DejaVuSans-99"/>
      <use x="387.792969" xlink:href="#DejaVuSans-110"/>
      <use x="451.171875" xlink:href="#DejaVuSans-101"/>
      <use x="512.695312" xlink:href="#DejaVuSans-115"/>
      <use x="564.794922" xlink:href="#DejaVuSans-115"/>
      <use x="616.894531" xlink:href="#DejaVuSans-32"/>
      <use x="648.681641" xlink:href="#DejaVuSans-40"/>
      <use x="687.695312" xlink:href="#DejaVuSans-112"/>
      <use x="751.171875" xlink:href="#DejaVuSans-101"/>
      <use x="812.695312" xlink:href="#DejaVuSans-114"/>
      <use x="853.777344" xlink:href="#DejaVuSans-99"/>
      <use x="908.757812" xlink:href="#DejaVuSans-101"/>
      <use x="970.28125" xlink:href="#DejaVuSans-110"/>
      <use x="1033.660156" xlink:href="#DejaVuSans-116"/>
      <use x="1072.869141" xlink:href="#DejaVuSans-105"/>
      <use x="1100.652344" xlink:href="#DejaVuSans-108"/>
      <use x="1128.435547" xlink:href="#DejaVuSans-101"/>
      <use x="1189.958984" xlink:href="#DejaVuSans-32"/>
      <use x="1221.746094" xlink:href="#DejaVuSans-111"/>
      <use x="1282.927734" xlink:href="#DejaVuSans-102"/>
      <use x="1318.132812" xlink:href="#DejaVuSans-32"/>
      <use x="1349.919922" xlink:href="#DejaVuSans-114"/>
      <use x="1391.033203" xlink:href="#DejaVuSans-97"/>
      <use x="1452.3125" xlink:href="#DejaVuSans-110"/>
      <use x="1515.691406" xlink:href="#DejaVuSans-107"/>
      <use x="1573.601562" xlink:href="#DejaVuSans-105"/>
      <use x="1601.384766" xlink:href="#DejaVuSans-110"/>
      <use x="1664.763672" xlink:href="#DejaVuSans-103"/>
      <use x="1728.240234" xlink:href="#DejaVuSans-41"/>
     </g>
    </g>
   </g>
   <g id="PathCollection_1">
    <path clip-path="url(#pfaa6a3eb9c)" d="M 114.334829 140.29183
C 114.804889 140.29183 115.25576 140.105073 115.588143 139.77269
C 115.920526 139.440307 116.107283 138.989436 116.107283 138.519376
C 116.107283 138.049316 115.920526 137.598444 115.588143 137.266062
C 115.25576 136.933679 114.804889 136.746922 114.334829 136.746922
C 113.864768 136.746922 113.413897 136.933679 113.081515 137.266062
C 112.749132 137.598444 112.562375 138.049316 112.562375 138.519376
C 112.562375 138.989436 112.749132 139.440307 113.081515 139.77269
C 113.413897 140.105073 113.864768 140.29183 114.334829 140.29183
z
" style="stroke:#000000;stroke-width:0.886227;"/>
    <path clip-path="url(#pfaa6a3eb9c)" d="M 112.004163 135.25183
C 112.474224 135.25183 112.925095 135.065073 113.257477 134.73269
C 113.58986 134.400307 113.776617 133.949436 113.776617 133.479376
C 113.776617 133.009316 113.58986 132.558444 113.257477 132.226062
C 112.925095 131.893679 112.474224 131.706922 112.004163 131.706922
C 111.534103 131.706922 111.083232 131.893679 110.750849 132.226062
C 110.418466 132.558444 110.231709 133.009316 110.231709 133.479376
C 110.231709 133.949436 110.418466 134.400307 110.750849 134.73269
C 111.083232 135.065073 111.534103 135.25183 112.004163 135.25183
z
" style="stroke:#000000;stroke-width:0.886227;"/>
    <path clip-path="url(#pfaa6a3eb9c)" d="M 63.004915 34.45183
C 63.474975 34.45183 63.925846 34.265073 64.258229 33.93269
C 64.590612 33.600307 64.777369 33.149436 64.777369 32.679376
C 64.777369 32.209316 64.590612 31.758444 64.258229 31.426062
C 63.925846 31.093679 63.474975 30.906922 63.004915 30.906922
C 62.534855 30.906922 62.083983 31.093679 61.751601 31.426062
C 61.419218 31.758444 61.232461 32.209316 61.232461 32.679376
C 61.232461 33.149436 61.419218 33.600307 61.751601 33.93269
C 62.083983 34.265073 62.534855 34.45183 63.004915 34.45183
z
" style="stroke:#000000;stroke-width:0.886227;"/>
    <path clip-path="url(#pfaa6a3eb9c)" d="M 63.004915 34.45183
C 63.474975 34.45183 63.925846 34.265073 64.258229 33.93269
C 64.590612 33.600307 64.777369 33.149436 64.777369 32.679376
C 64.777369 32.209316 64.590612 31.758444 64.258229 31.426062
C 63.925846 31.093679 63.474975 30.906922 63.004915 30.906922
C 62.534855 30.906922 62.083983 31.093679 61.751601 31.426062
C 61.419218 31.758444 61.232461 32.209316 61.232461 32.679376
C 61.232461 33.149436 61.419218 33.600307 61.751601 33.93269
C 62.083983 34.265073 62.534855 34.45183 63.004915 34.45183
z
" style="stroke:#000000;stroke-width:0.886227;"/>
    <path clip-path="url(#pfaa6a3eb9c)" d="M 63.239649 49.57183
C 63.709709 49.57183 64.16058 49.385073 64.492963 49.05269
C 64.825346 48.720307 65.012103 48.269436 65.012103 47.799376
C 65.012103 47.329316 64.825346 46.878444 64.492963 46.546062
C 64.16058 46.213679 63.709709 46.026922 63.239649 46.026922
C 62.769589 46.026922 62.318718 46.213679 61.986335 46.546062
C 61.653952 46.878444 61.467195 47.329316 61.467195 47.799376
C 61.467195 48.269436 61.653952 48.720307 61.986335 49.05269
C 62.318718 49.385073 62.769589 49.57183 63.239649 49.57183
z
" style="stroke:#000000;stroke-width:0.886227;"/>
    <path clip-path="url(#pfaa6a3eb9c)" d="M 63.911432 64.69183
C 64.381493 64.69183 64.832364 64.505073 65.164747 64.17269
C 65.497129 63.840307 65.683886 63.389436 65.683886 62.919376
C 65.683886 62.449316 65.497129 61.998444 65.164747 61.666062
C 64.832364 61.333679 64.381493 61.146922 63.911432 61.146922
C 63.441372 61.146922 62.990501 61.333679 62.658118 61.666062
C 62.325735 61.998444 62.138979 62.449316 62.138979 62.919376
C 62.138979 63.389436 62.325735 63.840307 62.658118 64.17269
C 62.990501 64.505073 63.441372 64.69183 63.911432 64.69183
z
" style="stroke:#000000;stroke-width:0.886227;"/>
    <path clip-path="url(#pfaa6a3eb9c)" d="M 64.139963 74.77183
C 64.610023 74.77183 65.060894 74.585073 65.393277 74.25269
C 65.72566 73.920307 65.912417 73.469436 65.912417 72.999376
C 65.912417 72.529316 65.72566 72.078444 65.393277 71.746062
C 65.060894 71.413679 64.610023 71.226922 64.139963 71.226922
C 63.669903 71.226922 63.219031 71.413679 62.886649 71.746062
C 62.554266 72.078444 62.367509 72.529316 62.367509 72.999376
C 62.367509 73.469436 62.554266 73.920307 62.886649 74.25269
C 63.219031 74.585073 63.669903 74.77183 64.139963 74.77183
z
" style="stroke:#000000;stroke-width:0.886227;"/>
    <path clip-path="url(#pfaa6a3eb9c)" d="M 176.665875 168.01183
C 177.135935 168.01183 177.586806 167.825073 177.919189 167.49269
C 178.251572 167.160307 178.438329 166.709436 178.438329 166.239376
C 178.438329 165.769316 178.251572 165.318444 177.919189 164.986062
C 177.586806 164.653679 177.135935 164.466922 176.665875 164.466922
C 176.195815 164.466922 175.744944 164.653679 175.412561 164.986062
C 175.080178 165.318444 174.893421 165.769316 174.893421 166.239376
C 174.893421 166.709436 175.080178 167.160307 175.412561 167.49269
C 175.744944 167.825073 176.195815 168.01183 176.665875 168.01183
z
" style="stroke:#000000;stroke-width:0.886227;"/>
    <path clip-path="url(#pfaa6a3eb9c)" d="M 311.031573 231.01183
C 311.501634 231.01183 311.952505 230.825073 312.284887 230.49269
C 312.61727 230.160307 312.804027 229.709436 312.804027 229.239376
C 312.804027 228.769316 312.61727 228.318444 312.284887 227.986062
C 311.952505 227.653679 311.501634 227.466922 311.031573 227.466922
C 310.561513 227.466922 310.110642 227.653679 309.778259 227.986062
C 309.445876 228.318444 309.259119 228.769316 309.259119 229.239376
C 309.259119 229.709436 309.445876 230.160307 309.778259 230.49269
C 310.110642 230.825073 310.561513 231.01183 311.031573 231.01183
z
" style="stroke:#000000;stroke-width:0.886227;"/>
    <path clip-path="url(#pfaa6a3eb9c)" d="M 63.239649 49.57183
C 63.709709 49.57183 64.16058 49.385073 64.492963 49.05269
C 64.825346 48.720307 65.012103 48.269436 65.012103 47.799376
C 65.012103 47.329316 64.825346 46.878444 64.492963 46.546062
C 64.16058 46.213679 63.709709 46.026922 63.239649 46.026922
C 62.769589 46.026922 62.318718 46.213679 61.986335 46.546062
C 61.653952 46.878444 61.467195 47.329316 61.467195 47.799376
C 61.467195 48.269436 61.653952 48.720307 61.986335 49.05269
C 62.318718 49.385073 62.769589 49.57183 63.239649 49.57183
z
" style="stroke:#000000;stroke-width:0.886227;"/>
    <path clip-path="url(#pfaa6a3eb9c)" d="M 63.004915 34.45183
C 63.474975 34.45183 63.925846 34.265073 64.258229 33.93269
C 64.590612 33.600307 64.777369 33.149436 64.777369 32.679376
C 64.777369 32.209316 64.590612 31.758444 64.258229 31.426062
C 63.925846 31.093679 63.474975 30.906922 63.004915 30.906922
C 62.534855 30.906922 62.083983 31.093679 61.751601 31.426062
C 61.419218 31.758444 61.232461 32.209316 61.232461 32.679376
C 61.232461 33.149436 61.419218 33.600307 61.751601 33.93269
C 62.083983 34.265073 62.534855 34.45183 63.004915 34.45183
z
" style="stroke:#000000;stroke-width:0.886227;"/>
    <path clip-path="url(#pfaa6a3eb9c)" d="M 98.111242 110.05183
C 98.581302 110.05183 99.032173 109.865073 99.364556 109.53269
C 99.696939 109.200307 99.883696 108.749436 99.883696 108.279376
C 99.883696 107.809316 99.696939 107.358444 99.364556 107.026062
C 99.032173 106.693679 98.581302 106.506922 98.111242 106.506922
C 97.641182 106.506922 97.190311 106.693679 96.857928 107.026062
C 96.525545 107.358444 96.338788 107.809316 96.338788 108.279376
C 96.338788 108.749436 96.525545 109.200307 96.857928 109.53269
C 97.190311 109.865073 97.641182 110.05183 98.111242 110.05183
z
" style="stroke:#000000;stroke-width:0.886227;"/>
    <path clip-path="url(#pfaa6a3eb9c)" d="M 83.090787 105.01183
C 83.560847 105.01183 84.011718 104.825073 84.344101 104.49269
C 84.676484 104.160307 84.863241 103.709436 84.863241 103.239376
C 84.863241 102.769316 84.676484 102.318444 84.344101 101.986062
C 84.011718 101.653679 83.560847 101.466922 83.090787 101.466922
C 82.620727 101.466922 82.169856 101.653679 81.837473 101.986062
C 81.50509 102.318444 81.318333 102.769316 81.318333 103.239376
C 81.318333 103.709436 81.50509 104.160307 81.837473 104.49269
C 82.169856 104.825073 82.620727 105.01183 83.090787 105.01183
z
" style="stroke:#000000;stroke-width:0.886227;"/>
    <path clip-path="url(#pfaa6a3eb9c)" d="M 176.701427 175.57183
C 177.171487 175.57183 177.622358 175.385073 177.954741 175.05269
C 178.287124 174.720307 178.473881 174.269436 178.473881 173.799376
C 178.473881 173.329316 178.287124 172.878444 177.954741 172.546062
C 177.622358 172.213679 177.171487 172.026922 176.701427 172.026922
C 176.231366 172.026922 175.780495 172.213679 175.448113 172.546062
C 175.11573 172.878444 174.928973 173.329316 174.928973 173.799376
C 174.928973 174.269436 175.11573 174.720307 175.448113 175.05269
C 175.780495 175.385073 176.231366 175.57183 176.701427 175.57183
z
" style="stroke:#000000;stroke-width:0.886227;"/>
    <path clip-path="url(#pfaa6a3eb9c)" d="M 105.99498 125.17183
C 106.46504 125.17183 106.915911 124.985073 107.248294 124.65269
C 107.580677 124.320307 107.767434 123.869436 107.767434 123.399376
C 107.767434 122.929316 107.580677 122.478444 107.248294 122.146062
C 106.915911 121.813679 106.46504 121.626922 105.99498 121.626922
C 105.524919 121.626922 105.074048 121.813679 104.741666 122.146062
C 104.409283 122.478444 104.222526 122.929316 104.222526 123.399376
C 104.222526 123.869436 104.409283 124.320307 104.741666 124.65269
C 105.074048 124.985073 105.524919 125.17183 105.99498 125.17183
z
" style="stroke:#000000;stroke-width:0.886227;"/>
    <path clip-path="url(#pfaa6a3eb9c)" d="M 63.239649 49.57183
C 63.709709 49.57183 64.16058 49.385073 64.492963 49.05269
C 64.825346 48.720307 65.012103 48.269436 65.012103 47.799376
C 65.012103 47.329316 64.825346 46.878444 64.492963 46.546062
C 64.16058 46.213679 63.709709 46.026922 63.239649 46.026922
C 62.769589 46.026922 62.318718 46.213679 61.986335 46.546062
C 61.653952 46.878444 61.467195 47.329316 61.467195 47.799376
C 61.467195 48.269436 61.653952 48.720307 61.986335 49.05269
C 62.318718 49.385073 62.769589 49.57183 63.239649 49.57183
z
" style="stroke:#000000;stroke-width:0.886227;"/>
    <path clip-path="url(#pfaa6a3eb9c)" d="M 99.159494 115.09183
C 99.629554 115.09183 100.080425 114.905073 100.412808 114.57269
C 100.745191 114.240307 100.931948 113.789436 100.931948 113.319376
C 100.931948 112.849316 100.745191 112.398444 100.412808 112.066062
C 100.080425 111.733679 99.629554 111.546922 99.159494 111.546922
C 98.689434 111.546922 98.238563 111.733679 97.90618 112.066062
C 97.573797 112.398444 97.38704 112.849316 97.38704 113.319376
C 97.38704 113.789436 97.573797 114.240307 97.90618 114.57269
C 98.238563 114.905073 98.689434 115.09183 99.159494 115.09183
z
" style="stroke:#000000;stroke-width:0.886227;"/>
    <path clip-path="url(#pfaa6a3eb9c)" d="M 81.579249 99.97183
C 82.049309 99.97183 82.50018 99.785073 82.832563 99.45269
C 83.164946 99.120307 83.351703 98.669436 83.351703 98.199376
C 83.351703 97.729316 83.164946 97.278444 82.832563 96.946062
C 82.50018 96.613679 82.049309 96.426922 81.579249 96.426922
C 81.109188 96.426922 80.658317 96.613679 80.325935 96.946062
C 79.993552 97.278444 79.806795 97.729316 79.806795 98.199376
C 79.806795 98.669436 79.993552 99.120307 80.325935 99.45269
C 80.658317 99.785073 81.109188 99.97183 81.579249 99.97183
z
" style="stroke:#000000;stroke-width:0.886227;"/>
    <path clip-path="url(#pfaa6a3eb9c)" d="M 108.921677 130.21183
C 109.391737 130.21183 109.842609 130.025073 110.174991 129.69269
C 110.507374 129.360307 110.694131 128.909436 110.694131 128.439376
C 110.694131 127.969316 110.507374 127.518444 110.174991 127.186062
C 109.842609 126.853679 109.391737 126.666922 108.921677 126.666922
C 108.451617 126.666922 108.000746 126.853679 107.668363 127.186062
C 107.33598 127.518444 107.149223 127.969316 107.149223 128.439376
C 107.149223 128.909436 107.33598 129.360307 107.668363 129.69269
C 108.000746 130.025073 108.451617 130.21183 108.921677 130.21183
z
" style="stroke:#000000;stroke-width:0.886227;"/>
    <path clip-path="url(#pfaa6a3eb9c)" d="M 283.152064 215.89183
C 283.622125 215.89183 284.072996 215.705073 284.405378 215.37269
C 284.737761 215.040307 284.924518 214.589436 284.924518 214.119376
C 284.924518 213.649316 284.737761 213.198444 284.405378 212.866062
C 284.072996 212.533679 283.622125 212.346922 283.152064 212.346922
C 282.682004 212.346922 282.231133 212.533679 281.89875 212.866062
C 281.566367 213.198444 281.37961 213.649316 281.37961 214.119376
C 281.37961 214.589436 281.566367 215.040307 281.89875 215.37269
C 282.231133 215.705073 282.682004 215.89183 283.152064 215.89183
z
" style="stroke:#000000;stroke-width:0.886227;"/>
    <path clip-path="url(#pfaa6a3eb9c)" d="M 138.705288 150.37183
C 139.175348 150.37183 139.626219 150.185073 139.958602 149.85269
C 140.290985 149.520307 140.477742 149.069436 140.477742 148.599376
C 140.477742 148.129316 140.290985 147.678444 139.958602 147.346062
C 139.626219 147.013679 139.175348 146.826922 138.705288 146.826922
C 138.235228 146.826922 137.784357 147.013679 137.451974 147.346062
C 137.119591 147.678444 136.932834 148.129316 136.932834 148.599376
C 136.932834 149.069436 137.119591 149.520307 137.451974 149.85269
C 137.784357 150.185073 138.235228 150.37183 138.705288 150.37183
z
" style="stroke:#000000;stroke-width:0.886227;"/>
    <path clip-path="url(#pfaa6a3eb9c)" d="M 63.996632 69.73183
C 64.466692 69.73183 64.917563 69.545073 65.249946 69.21269
C 65.582329 68.880307 65.769086 68.429436 65.769086 67.959376
C 65.769086 67.489316 65.582329 67.038444 65.249946 66.706062
C 64.917563 66.373679 64.466692 66.186922 63.996632 66.186922
C 63.526572 66.186922 63.0757 66.373679 62.743318 66.706062
C 62.410935 67.038444 62.224178 67.489316 62.224178 67.959376
C 62.224178 68.429436 62.410935 68.880307 62.743318 69.21269
C 63.0757 69.545073 63.526572 69.73183 63.996632 69.73183
z
" style="stroke:#000000;stroke-width:0.886227;"/>
    <path clip-path="url(#pfaa6a3eb9c)" d="M 81.020369 94.93183
C 81.49043 94.93183 81.941301 94.745073 82.273684 94.41269
C 82.606066 94.080307 82.792823 93.629436 82.792823 93.159376
C 82.792823 92.689316 82.606066 92.238444 82.273684 91.906062
C 81.941301 91.573679 81.49043 91.386922 81.020369 91.386922
C 80.550309 91.386922 80.099438 91.573679 79.767055 91.906062
C 79.434673 92.238444 79.247916 92.689316 79.247916 93.159376
C 79.247916 93.629436 79.434673 94.080307 79.767055 94.41269
C 80.099438 94.745073 80.550309 94.93183 81.020369 94.93183
z
" style="stroke:#000000;stroke-width:0.886227;"/>
    <path clip-path="url(#pfaa6a3eb9c)" d="M 189.364572 190.69183
C 189.834632 190.69183 190.285503 190.505073 190.617886 190.17269
C 190.950268 189.840307 191.137025 189.389436 191.137025 188.919376
C 191.137025 188.449316 190.950268 187.998444 190.617886 187.666062
C 190.285503 187.333679 189.834632 187.146922 189.364572 187.146922
C 188.894511 187.146922 188.44364 187.333679 188.111257 187.666062
C 187.778875 187.998444 187.592118 188.449316 187.592118 188.919376
C 187.592118 189.389436 187.778875 189.840307 188.111257 190.17269
C 188.44364 190.505073 188.894511 190.69183 189.364572 190.69183
z
" style="stroke:#000000;stroke-width:0.886227;"/>
    <path clip-path="url(#pfaa6a3eb9c)" d="M 65.516981 84.85183
C 65.987041 84.85183 66.437912 84.665073 66.770295 84.33269
C 67.102678 84.000307 67.289435 83.549436 67.289435 83.079376
C 67.289435 82.609316 67.102678 82.158444 66.770295 81.826062
C 66.437912 81.493679 65.987041 81.306922 65.516981 81.306922
C 65.046921 81.306922 64.59605 81.493679 64.263667 81.826062
C 63.931284 82.158444 63.744527 82.609316 63.744527 83.079376
C 63.744527 83.549436 63.931284 84.000307 64.263667 84.33269
C 64.59605 84.665073 65.046921 84.85183 65.516981 84.85183
z
" style="stroke:#000000;stroke-width:0.886227;"/>
    <path clip-path="url(#pfaa6a3eb9c)" d="M 366.47547 271.33183
C 366.94553 271.33183 367.396401 271.145073 367.728784 270.81269
C 368.061167 270.480307 368.247924 270.029436 368.247924 269.559376
C 368.247924 269.089316 368.061167 268.638444 367.728784 268.306062
C 367.396401 267.973679 366.94553 267.786922 366.47547 267.786922
C 366.00541 267.786922 365.554539 267.973679 365.222156 268.306062
C 364.889773 268.638444 364.703016 269.089316 364.703016 269.559376
C 364.703016 270.029436 364.889773 270.480307 365.222156 270.81269
C 365.554539 271.145073 366.00541 271.33183 366.47547 271.33183
z
" style="stroke:#000000;stroke-width:0.886227;"/>
    <path clip-path="url(#pfaa6a3eb9c)" d="M 139.727141 155.41183
C 140.197202 155.41183 140.648073 155.225073 140.980455 154.89269
C 141.312838 154.560307 141.499595 154.109436 141.499595 153.639376
C 141.499595 153.169316 141.312838 152.718444 140.980455 152.386062
C 140.648073 152.053679 140.197202 151.866922 139.727141 151.866922
C 139.257081 151.866922 138.80621 152.053679 138.473827 152.386062
C 138.141444 152.718444 137.954687 153.169316 137.954687 153.639376
C 137.954687 154.109436 138.141444 154.560307 138.473827 154.89269
C 138.80621 155.225073 139.257081 155.41183 139.727141 155.41183
z
" style="stroke:#000000;stroke-width:0.886227;"/>
    <path clip-path="url(#pfaa6a3eb9c)" d="M 281.87096 210.85183
C 282.34102 210.85183 282.791891 210.665073 283.124274 210.33269
C 283.456657 210.000307 283.643414 209.549436 283.643414 209.079376
C 283.643414 208.609316 283.456657 208.158444 283.124274 207.826062
C 282.791891 207.493679 282.34102 207.306922 281.87096 207.306922
C 281.4009 207.306922 280.950029 207.493679 280.617646 207.826062
C 280.285263 208.158444 280.098506 208.609316 280.098506 209.079376
C 280.098506 209.549436 280.285263 210.000307 280.617646 210.33269
C 280.950029 210.665073 281.4009 210.85183 281.87096 210.85183
z
" style="stroke:#000000;stroke-width:0.886227;"/>
    <path clip-path="url(#pfaa6a3eb9c)" d="M 252.079325 205.81183
C 252.549385 205.81183 253.000256 205.625073 253.332639 205.29269
C 253.665022 204.960307 253.851778 204.509436 253.851778 204.039376
C 253.851778 203.569316 253.665022 203.118444 253.332639 202.786062
C 253.000256 202.453679 252.549385 202.266922 252.079325 202.266922
C 251.609264 202.266922 251.158393 202.453679 250.82601 202.786062
C 250.493628 203.118444 250.306871 203.569316 250.306871 204.039376
C 250.306871 204.509436 250.493628 204.960307 250.82601 205.29269
C 251.158393 205.625073 251.609264 205.81183 252.079325 205.81183
z
" style="stroke:#000000;stroke-width:0.886227;"/>
    <path clip-path="url(#pfaa6a3eb9c)" d="M 245.462213 200.77183
C 245.932274 200.77183 246.383145 200.585073 246.715527 200.25269
C 247.04791 199.920307 247.234667 199.469436 247.234667 198.999376
C 247.234667 198.529316 247.04791 198.078444 246.715527 197.746062
C 246.383145 197.413679 245.932274 197.226922 245.462213 197.226922
C 244.992153 197.226922 244.541282 197.413679 244.208899 197.746062
C 243.876516 198.078444 243.689759 198.529316 243.689759 198.999376
C 243.689759 199.469436 243.876516 199.920307 244.208899 200.25269
C 244.541282 200.585073 244.992153 200.77183 245.462213 200.77183
z
" style="stroke:#000000;stroke-width:0.886227;"/>
    <path clip-path="url(#pfaa6a3eb9c)" d="M 65.445154 79.81183
C 65.915214 79.81183 66.366085 79.625073 66.698468 79.29269
C 67.030851 78.960307 67.217608 78.509436 67.217608 78.039376
C 67.217608 77.569316 67.030851 77.118444 66.698468 76.786062
C 66.366085 76.453679 65.915214 76.266922 65.445154 76.266922
C 64.975094 76.266922 64.524223 76.453679 64.19184 76.786062
C 63.859457 77.118444 63.6727 77.569316 63.6727 78.039376
C 63.6727 78.509436 63.859457 78.960307 64.19184 79.29269
C 64.524223 79.625073 64.975094 79.81183 65.445154 79.81183
z
" style="stroke:#000000;stroke-width:0.886227;"/>
    <path clip-path="url(#pfaa6a3eb9c)" d="M 245.121343 195.73183
C 245.591403 195.73183 246.042274 195.545073 246.374657 195.21269
C 246.70704 194.880307 246.893796 194.429436 246.893796 193.959376
C 246.893796 193.489316 246.70704 193.038444 246.374657 192.706062
C 246.042274 192.373679 245.591403 192.186922 245.121343 192.186922
C 244.651282 192.186922 244.200411 192.373679 243.868028 192.706062
C 243.535646 193.038444 243.348889 193.489316 243.348889 193.959376
C 243.348889 194.429436 243.535646 194.880307 243.868028 195.21269
C 244.200411 195.545073 244.651282 195.73183 245.121343 195.73183
z
" style="stroke:#000000;stroke-width:0.886227;"/>
    <path clip-path="url(#pfaa6a3eb9c)" d="M 63.403623 59.65183
C 63.873683 59.65183 64.324554 59.465073 64.656937 59.13269
C 64.98932 58.800307 65.176077 58.349436 65.176077 57.879376
C 65.176077 57.409316 64.98932 56.958444 64.656937 56.626062
C 64.324554 56.293679 63.873683 56.106922 63.403623 56.106922
C 62.933562 56.106922 62.482691 56.293679 62.150309 56.626062
C 61.817926 56.958444 61.631169 57.409316 61.631169 57.879376
C 61.631169 58.349436 61.817926 58.800307 62.150309 59.13269
C 62.482691 59.465073 62.933562 59.65183 63.403623 59.65183
z
" style="stroke:#000000;stroke-width:0.886227;"/>
    <path clip-path="url(#pfaa6a3eb9c)" d="M 101.202807 120.13183
C 101.672868 120.13183 102.123739 119.945073 102.456122 119.61269
C 102.788504 119.280307 102.975261 118.829436 102.975261 118.359376
C 102.975261 117.889316 102.788504 117.438444 102.456122 117.106062
C 102.123739 116.773679 101.672868 116.586922 101.202807 116.586922
C 100.732747 116.586922 100.281876 116.773679 99.949493 117.106062
C 99.617111 117.438444 99.430354 117.889316 99.430354 118.359376
C 99.430354 118.829436 99.617111 119.280307 99.949493 119.61269
C 100.281876 119.945073 100.732747 120.13183 101.202807 120.13183
z
" style="stroke:#000000;stroke-width:0.886227;"/>
    <path clip-path="url(#pfaa6a3eb9c)" d="M 75.587741 89.89183
C 76.057801 89.89183 76.508672 89.705073 76.841055 89.37269
C 77.173438 89.040307 77.360195 88.589436 77.360195 88.119376
C 77.360195 87.649316 77.173438 87.198444 76.841055 86.866062
C 76.508672 86.533679 76.057801 86.346922 75.587741 86.346922
C 75.11768 86.346922 74.666809 86.533679 74.334427 86.866062
C 74.002044 87.198444 73.815287 87.649316 73.815287 88.119376
C 73.815287 88.589436 74.002044 89.040307 74.334427 89.37269
C 74.666809 89.705073 75.11768 89.89183 75.587741 89.89183
z
" style="stroke:#000000;stroke-width:0.886227;"/>
    <path clip-path="url(#pfaa6a3eb9c)" d="M 364.90534 266.29183
C 365.3754 266.29183 365.826271 266.105073 366.158654 265.77269
C 366.491037 265.440307 366.677794 264.989436 366.677794 264.519376
C 366.677794 264.049316 366.491037 263.598444 366.158654 263.266062
C 365.826271 262.933679 365.3754 262.746922 364.90534 262.746922
C 364.43528 262.746922 363.984408 262.933679 363.652026 263.266062
C 363.319643 263.598444 363.132886 264.049316 363.132886 264.519376
C 363.132886 264.989436 363.319643 265.440307 363.652026 265.77269
C 363.984408 266.105073 364.43528 266.29183 364.90534 266.29183
z
" style="stroke:#000000;stroke-width:0.886227;"/>
    <path clip-path="url(#pfaa6a3eb9c)" d="M 387.65946 276.37183
C 388.12952 276.37183 388.580392 276.185073 388.912774 275.85269
C 389.245157 275.520307 389.431914 275.069436 389.431914 274.599376
C 389.431914 274.129316 389.245157 273.678444 388.912774 273.346062
C 388.580392 273.013679 388.12952 272.826922 387.65946 272.826922
C 387.1894 272.826922 386.738529 273.013679 386.406146 273.346062
C 386.073763 273.678444 385.887006 274.129316 385.887006 274.599376
C 385.887006 275.069436 386.073763 275.520307 386.406146 275.85269
C 386.738529 276.185073 387.1894 276.37183 387.65946 276.37183
z
" style="stroke:#000000;stroke-width:0.886227;"/>
    <path clip-path="url(#pfaa6a3eb9c)" d="M 178.352915 180.61183
C 178.822975 180.61183 179.273846 180.425073 179.606229 180.09269
C 179.938612 179.760307 180.125368 179.309436 180.125368 178.839376
C 180.125368 178.369316 179.938612 177.918444 179.606229 177.586062
C 179.273846 177.253679 178.822975 177.066922 178.352915 177.066922
C 177.882854 177.066922 177.431983 177.253679 177.0996 177.586062
C 176.767218 177.918444 176.580461 178.369316 176.580461 178.839376
C 176.580461 179.309436 176.767218 179.760307 177.0996 180.09269
C 177.431983 180.425073 177.882854 180.61183 178.352915 180.61183
z
" style="stroke:#000000;stroke-width:0.886227;"/>
    <path clip-path="url(#pfaa6a3eb9c)" d="M 300.653469 220.93183
C 301.123529 220.93183 301.5744 220.745073 301.906783 220.41269
C 302.239166 220.080307 302.425922 219.629436 302.425922 219.159376
C 302.425922 218.689316 302.239166 218.238444 301.906783 217.906062
C 301.5744 217.573679 301.123529 217.386922 300.653469 217.386922
C 300.183408 217.386922 299.732537 217.573679 299.400154 217.906062
C 299.067772 218.238444 298.881015 218.689316 298.881015 219.159376
C 298.881015 219.629436 299.067772 220.080307 299.400154 220.41269
C 299.732537 220.745073 300.183408 220.93183 300.653469 220.93183
z
" style="stroke:#000000;stroke-width:0.886227;"/>
    <path clip-path="url(#pfaa6a3eb9c)" d="M 152.541201 160.45183
C 153.011261 160.45183 153.462132 160.265073 153.794515 159.93269
C 154.126898 159.600307 154.313655 159.149436 154.313655 158.679376
C 154.313655 158.209316 154.126898 157.758444 153.794515 157.426062
C 153.462132 157.093679 153.011261 156.906922 152.541201 156.906922
C 152.071141 156.906922 151.62027 157.093679 151.287887 157.426062
C 150.955504 157.758444 150.768747 158.209316 150.768747 158.679376
C 150.768747 159.149436 150.955504 159.600307 151.287887 159.93269
C 151.62027 160.265073 152.071141 160.45183 152.541201 160.45183
z
" style="stroke:#000000;stroke-width:0.886227;"/>
    <path clip-path="url(#pfaa6a3eb9c)" d="M 349.262252 261.25183
C 349.732312 261.25183 350.183183 261.065073 350.515566 260.73269
C 350.847949 260.400307 351.034706 259.949436 351.034706 259.479376
C 351.034706 259.009316 350.847949 258.558444 350.515566 258.226062
C 350.183183 257.893679 349.732312 257.706922 349.262252 257.706922
C 348.792192 257.706922 348.341321 257.893679 348.008938 258.226062
C 347.676555 258.558444 347.489798 259.009316 347.489798 259.479376
C 347.489798 259.949436 347.676555 260.400307 348.008938 260.73269
C 348.341321 261.065073 348.792192 261.25183 349.262252 261.25183
z
" style="stroke:#000000;stroke-width:0.886227;"/>
    <path clip-path="url(#pfaa6a3eb9c)" d="M 176.665875 168.01183
C 177.135935 168.01183 177.586806 167.825073 177.919189 167.49269
C 178.251572 167.160307 178.438329 166.709436 178.438329 166.239376
C 178.438329 165.769316 178.251572 165.318444 177.919189 164.986062
C 177.586806 164.653679 177.135935 164.466922 176.665875 164.466922
C 176.195815 164.466922 175.744944 164.653679 175.412561 164.986062
C 175.080178 165.318444 174.893421 165.769316 174.893421 166.239376
C 174.893421 166.709436 175.080178 167.160307 175.412561 167.49269
C 175.744944 167.825073 176.195815 168.01183 176.665875 168.01183
z
" style="stroke:#000000;stroke-width:0.886227;"/>
    <path clip-path="url(#pfaa6a3eb9c)" d="M 314.53019 241.09183
C 315.00025 241.09183 315.451121 240.905073 315.783504 240.57269
C 316.115887 240.240307 316.302644 239.789436 316.302644 239.319376
C 316.302644 238.849316 316.115887 238.398444 315.783504 238.066062
C 315.451121 237.733679 315.00025 237.546922 314.53019 237.546922
C 314.06013 237.546922 313.609259 237.733679 313.276876 238.066062
C 312.944493 238.398444 312.757736 238.849316 312.757736 239.319376
C 312.757736 239.789436 312.944493 240.240307 313.276876 240.57269
C 313.609259 240.905073 314.06013 241.09183 314.53019 241.09183
z
" style="stroke:#000000;stroke-width:0.886227;"/>
    <path clip-path="url(#pfaa6a3eb9c)" d="M 316.401892 246.13183
C 316.871952 246.13183 317.322823 245.945073 317.655206 245.61269
C 317.987589 245.280307 318.174346 244.829436 318.174346 244.359376
C 318.174346 243.889316 317.987589 243.438444 317.655206 243.106062
C 317.322823 242.773679 316.871952 242.586922 316.401892 242.586922
C 315.931832 242.586922 315.480961 242.773679 315.148578 243.106062
C 314.816195 243.438444 314.629438 243.889316 314.629438 244.359376
C 314.629438 244.829436 314.816195 245.280307 315.148578 245.61269
C 315.480961 245.945073 315.931832 246.13183 316.401892 246.13183
z
" style="stroke:#000000;stroke-width:0.886227;"/>
    <path clip-path="url(#pfaa6a3eb9c)" d="M 180.719096 185.65183
C 181.189157 185.65183 181.640028 185.465073 181.97241 185.13269
C 182.304793 184.800307 182.49155 184.349436 182.49155 183.879376
C 182.49155 183.409316 182.304793 182.958444 181.97241 182.626062
C 181.640028 182.293679 181.189157 182.106922 180.719096 182.106922
C 180.249036 182.106922 179.798165 182.293679 179.465782 182.626062
C 179.133399 182.958444 178.946643 183.409316 178.946643 183.879376
C 178.946643 184.349436 179.133399 184.800307 179.465782 185.13269
C 179.798165 185.465073 180.249036 185.65183 180.719096 185.65183
z
" style="stroke:#000000;stroke-width:0.886227;"/>
    <path clip-path="url(#pfaa6a3eb9c)" d="M 306.850538 225.97183
C 307.320598 225.97183 307.771469 225.785073 308.103852 225.45269
C 308.436235 225.120307 308.622992 224.669436 308.622992 224.199376
C 308.622992 223.729316 308.436235 223.278444 308.103852 222.946062
C 307.771469 222.613679 307.320598 222.426922 306.850538 222.426922
C 306.380478 222.426922 305.929607 222.613679 305.597224 222.946062
C 305.264841 223.278444 305.078084 223.729316 305.078084 224.199376
C 305.078084 224.669436 305.264841 225.120307 305.597224 225.45269
C 305.929607 225.785073 306.380478 225.97183 306.850538 225.97183
z
" style="stroke:#000000;stroke-width:0.886227;"/>
    <path clip-path="url(#pfaa6a3eb9c)" d="M 314.505459 236.05183
C 314.975519 236.05183 315.42639 235.865073 315.758773 235.53269
C 316.091156 235.200307 316.277913 234.749436 316.277913 234.279376
C 316.277913 233.809316 316.091156 233.358444 315.758773 233.026062
C 315.42639 232.693679 314.975519 232.506922 314.505459 232.506922
C 314.035399 232.506922 313.584528 232.693679 313.252145 233.026062
C 312.919762 233.358444 312.733005 233.809316 312.733005 234.279376
C 312.733005 234.749436 312.919762 235.200307 313.252145 235.53269
C 313.584528 235.865073 314.035399 236.05183 314.505459 236.05183
z
" style="stroke:#000000;stroke-width:0.886227;"/>
    <path clip-path="url(#pfaa6a3eb9c)" d="M 126.559912 145.33183
C 127.029973 145.33183 127.480844 145.145073 127.813226 144.81269
C 128.145609 144.480307 128.332366 144.029436 128.332366 143.559376
C 128.332366 143.089316 128.145609 142.638444 127.813226 142.306062
C 127.480844 141.973679 127.029973 141.786922 126.559912 141.786922
C 126.089852 141.786922 125.638981 141.973679 125.306598 142.306062
C 124.974215 142.638444 124.787459 143.089316 124.787459 143.559376
C 124.787459 144.029436 124.974215 144.480307 125.306598 144.81269
C 125.638981 145.145073 126.089852 145.33183 126.559912 145.33183
z
" style="stroke:#000000;stroke-width:0.886227;"/>
    <path clip-path="url(#pfaa6a3eb9c)" d="M 339.197593 256.21183
C 339.667654 256.21183 340.118525 256.025073 340.450908 255.69269
C 340.78329 255.360307 340.970047 254.909436 340.970047 254.439376
C 340.970047 253.969316 340.78329 253.518444 340.450908 253.186062
C 340.118525 252.853679 339.667654 252.666922 339.197593 252.666922
C 338.727533 252.666922 338.276662 252.853679 337.944279 253.186062
C 337.611897 253.518444 337.42514 253.969316 337.42514 254.439376
C 337.42514 254.909436 337.611897 255.360307 337.944279 255.69269
C 338.276662 256.025073 338.727533 256.21183 339.197593 256.21183
z
" style="stroke:#000000;stroke-width:0.886227;"/>
    <path clip-path="url(#pfaa6a3eb9c)" d="M 321.675779 251.17183
C 322.145839 251.17183 322.59671 250.985073 322.929093 250.65269
C 323.261476 250.320307 323.448233 249.869436 323.448233 249.399376
C 323.448233 248.929316 323.261476 248.478444 322.929093 248.146062
C 322.59671 247.813679 322.145839 247.626922 321.675779 247.626922
C 321.205718 247.626922 320.754847 247.813679 320.422465 248.146062
C 320.090082 248.478444 319.903325 248.929316 319.903325 249.399376
C 319.903325 249.869436 320.090082 250.320307 320.422465 250.65269
C 320.754847 250.985073 321.205718 251.17183 321.675779 251.17183
z
" style="stroke:#000000;stroke-width:0.886227;"/>
   </g>
   <g id="PathCollection_2">
    <path clip-path="url(#pfaa6a3eb9c)" d="M 63.004915 34.45183
C 63.474975 34.45183 63.925846 34.265073 64.258229 33.93269
C 64.590612 33.600307 64.777369 33.149436 64.777369 32.679376
C 64.777369 32.209316 64.590612 31.758444 64.258229 31.426062
C 63.925846 31.093679 63.474975 30.906922 63.004915 30.906922
C 62.534855 30.906922 62.083983 31.093679 61.751601 31.426062
C 61.419218 31.758444 61.232461 32.209316 61.232461 32.679376
C 61.232461 33.149436 61.419218 33.600307 61.751601 33.93269
C 62.083983 34.265073 62.534855 34.45183 63.004915 34.45183
z
" style="fill:#ff0000;stroke:#ff0000;stroke-width:0.886227;"/>
    <path clip-path="url(#pfaa6a3eb9c)" d="M 63.004915 34.45183
C 63.474975 34.45183 63.925846 34.265073 64.258229 33.93269
C 64.590612 33.600307 64.777369 33.149436 64.777369 32.679376
C 64.777369 32.209316 64.590612 31.758444 64.258229 31.426062
C 63.925846 31.093679 63.474975 30.906922 63.004915 30.906922
C 62.534855 30.906922 62.083983 31.093679 61.751601 31.426062
C 61.419218 31.758444 61.232461 32.209316 61.232461 32.679376
C 61.232461 33.149436 61.419218 33.600307 61.751601 33.93269
C 62.083983 34.265073 62.534855 34.45183 63.004915 34.45183
z
" style="fill:#ff0000;stroke:#ff0000;stroke-width:0.886227;"/>
    <path clip-path="url(#pfaa6a3eb9c)" d="M 63.239649 49.57183
C 63.709709 49.57183 64.16058 49.385073 64.492963 49.05269
C 64.825346 48.720307 65.012103 48.269436 65.012103 47.799376
C 65.012103 47.329316 64.825346 46.878444 64.492963 46.546062
C 64.16058 46.213679 63.709709 46.026922 63.239649 46.026922
C 62.769589 46.026922 62.318718 46.213679 61.986335 46.546062
C 61.653952 46.878444 61.467195 47.329316 61.467195 47.799376
C 61.467195 48.269436 61.653952 48.720307 61.986335 49.05269
C 62.318718 49.385073 62.769589 49.57183 63.239649 49.57183
z
" style="fill:#ff0000;stroke:#ff0000;stroke-width:0.886227;"/>
    <path clip-path="url(#pfaa6a3eb9c)" d="M 63.239649 49.57183
C 63.709709 49.57183 64.16058 49.385073 64.492963 49.05269
C 64.825346 48.720307 65.012103 48.269436 65.012103 47.799376
C 65.012103 47.329316 64.825346 46.878444 64.492963 46.546062
C 64.16058 46.213679 63.709709 46.026922 63.239649 46.026922
C 62.769589 46.026922 62.318718 46.213679 61.986335 46.546062
C 61.653952 46.878444 61.467195 47.329316 61.467195 47.799376
C 61.467195 48.269436 61.653952 48.720307 61.986335 49.05269
C 62.318718 49.385073 62.769589 49.57183 63.239649 49.57183
z
" style="fill:#ff0000;stroke:#ff0000;stroke-width:0.886227;"/>
    <path clip-path="url(#pfaa6a3eb9c)" d="M 63.004915 34.45183
C 63.474975 34.45183 63.925846 34.265073 64.258229 33.93269
C 64.590612 33.600307 64.777369 33.149436 64.777369 32.679376
C 64.777369 32.209316 64.590612 31.758444 64.258229 31.426062
C 63.925846 31.093679 63.474975 30.906922 63.004915 30.906922
C 62.534855 30.906922 62.083983 31.093679 61.751601 31.426062
C 61.419218 31.758444 61.232461 32.209316 61.232461 32.679376
C 61.232461 33.149436 61.419218 33.600307 61.751601 33.93269
C 62.083983 34.265073 62.534855 34.45183 63.004915 34.45183
z
" style="fill:#ff0000;stroke:#ff0000;stroke-width:0.886227;"/>
    <path clip-path="url(#pfaa6a3eb9c)" d="M 63.239649 49.57183
C 63.709709 49.57183 64.16058 49.385073 64.492963 49.05269
C 64.825346 48.720307 65.012103 48.269436 65.012103 47.799376
C 65.012103 47.329316 64.825346 46.878444 64.492963 46.546062
C 64.16058 46.213679 63.709709 46.026922 63.239649 46.026922
C 62.769589 46.026922 62.318718 46.213679 61.986335 46.546062
C 61.653952 46.878444 61.467195 47.329316 61.467195 47.799376
C 61.467195 48.269436 61.653952 48.720307 61.986335 49.05269
C 62.318718 49.385073 62.769589 49.57183 63.239649 49.57183
z
" style="fill:#ff0000;stroke:#ff0000;stroke-width:0.886227;"/>
   </g>
   <g id="text_12">
    <g clip-path="url(#pfaa6a3eb9c)">
     <!-- HALLMARK_MYC_TARGETS_V1 -->
     <defs>
      <path d="M 34.1875 63.1875
L 20.796875 26.90625
L 47.609375 26.90625
z
M 28.609375 72.90625
L 39.796875 72.90625
L 67.578125 0
L 57.328125 0
L 50.6875 18.703125
L 17.828125 18.703125
L 11.1875 0
L 0.78125 0
z
" id="DejaVuSans-65"/>
      <path d="M 9.8125 72.90625
L 19.671875 72.90625
L 19.671875 8.296875
L 55.171875 8.296875
L 55.171875 0
L 9.8125 0
z
" id="DejaVuSans-76"/>
      <path d="M 44.390625 34.1875
Q 47.5625 33.109375 50.5625 29.59375
Q 53.5625 26.078125 56.59375 19.921875
L 66.609375 0
L 56 0
L 46.6875 18.703125
Q 43.0625 26.03125 39.671875 28.421875
Q 36.28125 30.8125 30.421875 30.8125
L 19.671875 30.8125
L 19.671875 0
L 9.8125 0
L 9.8125 72.90625
L 32.078125 72.90625
Q 44.578125 72.90625 50.734375 67.671875
Q 56.890625 62.453125 56.890625 51.90625
Q 56.890625 45.015625 53.6875 40.46875
Q 50.484375 35.9375 44.390625 34.1875
z
M 19.671875 64.796875
L 19.671875 38.921875
L 32.078125 38.921875
Q 39.203125 38.921875 42.84375 42.21875
Q 46.484375 45.515625 46.484375 51.90625
Q 46.484375 58.296875 42.84375 61.546875
Q 39.203125 64.796875 32.078125 64.796875
z
" id="DejaVuSans-82"/>
      <path d="M 9.8125 72.90625
L 19.671875 72.90625
L 19.671875 42.09375
L 52.390625 72.90625
L 65.09375 72.90625
L 28.90625 38.921875
L 67.671875 0
L 54.6875 0
L 19.671875 35.109375
L 19.671875 0
L 9.8125 0
z
" id="DejaVuSans-75"/>
      <path d="M 50.984375 -16.609375
L 50.984375 -23.578125
L -0.984375 -23.578125
L -0.984375 -16.609375
z
" id="DejaVuSans-95"/>
      <path d="M -0.203125 72.90625
L 10.40625 72.90625
L 30.609375 42.921875
L 50.6875 72.90625
L 61.28125 72.90625
L 35.5 34.71875
L 35.5 0
L 25.59375 0
L 25.59375 34.71875
z
" id="DejaVuSans-89"/>
      <path d="M 64.40625 67.28125
L 64.40625 56.890625
Q 59.421875 61.53125 53.78125 63.8125
Q 48.140625 66.109375 41.796875 66.109375
Q 29.296875 66.109375 22.65625 58.46875
Q 16.015625 50.828125 16.015625 36.375
Q 16.015625 21.96875 22.65625 14.328125
Q 29.296875 6.6875 41.796875 6.6875
Q 48.140625 6.6875 53.78125 8.984375
Q 59.421875 11.28125 64.40625 15.921875
L 64.40625 5.609375
Q 59.234375 2.09375 53.4375 0.328125
Q 47.65625 -1.421875 41.21875 -1.421875
Q 24.65625 -1.421875 15.125 8.703125
Q 5.609375 18.84375 5.609375 36.375
Q 5.609375 53.953125 15.125 64.078125
Q 24.65625 74.21875 41.21875 74.21875
Q 47.75 74.21875 53.53125 72.484375
Q 59.328125 70.75 64.40625 67.28125
z
" id="DejaVuSans-67"/>
      <path d="M -0.296875 72.90625
L 61.375 72.90625
L 61.375 64.59375
L 35.5 64.59375
L 35.5 0
L 25.59375 0
L 25.59375 64.59375
L -0.296875 64.59375
z
" id="DejaVuSans-84"/>
      <path d="M 9.8125 72.90625
L 55.90625 72.90625
L 55.90625 64.59375
L 19.671875 64.59375
L 19.671875 43.015625
L 54.390625 43.015625
L 54.390625 34.71875
L 19.671875 34.71875
L 19.671875 8.296875
L 56.78125 8.296875
L 56.78125 0
L 9.8125 0
z
" id="DejaVuSans-69"/>
      <path d="M 53.515625 70.515625
L 53.515625 60.890625
Q 47.90625 63.578125 42.921875 64.890625
Q 37.9375 66.21875 33.296875 66.21875
Q 25.25 66.21875 20.875 63.09375
Q 16.5 59.96875 16.5 54.203125
Q 16.5 49.359375 19.40625 46.890625
Q 22.3125 44.4375 30.421875 42.921875
L 36.375 41.703125
Q 47.40625 39.59375 52.65625 34.296875
Q 57.90625 29 57.90625 20.125
Q 57.90625 9.515625 50.796875 4.046875
Q 43.703125 -1.421875 29.984375 -1.421875
Q 24.8125 -1.421875 18.96875 -0.25
Q 13.140625 0.921875 6.890625 3.21875
L 6.890625 13.375
Q 12.890625 10.015625 18.65625 8.296875
Q 24.421875 6.59375 29.984375 6.59375
Q 38.421875 6.59375 43.015625 9.90625
Q 47.609375 13.234375 47.609375 19.390625
Q 47.609375 24.75 44.3125 27.78125
Q 41.015625 30.8125 33.5 32.328125
L 27.484375 33.5
Q 16.453125 35.6875 11.515625 40.375
Q 6.59375 45.0625 6.59375 53.421875
Q 6.59375 63.09375 13.40625 68.65625
Q 20.21875 74.21875 32.171875 74.21875
Q 37.3125 74.21875 42.625 73.28125
Q 47.953125 72.359375 53.515625 70.515625
z
" id="DejaVuSans-83"/>
      <path d="M 28.609375 0
L 0.78125 72.90625
L 11.078125 72.90625
L 34.1875 11.53125
L 57.328125 72.90625
L 67.578125 72.90625
L 39.796875 0
z
" id="DejaVuSans-86"/>
     </defs>
     <g transform="translate(63.004915 36.390313)scale(0.05 -0.05)">
      <use xlink:href="#DejaVuSans-72"/>
      <use x="75.195312" xlink:href="#DejaVuSans-65"/>
      <use x="143.603516" xlink:href="#DejaVuSans-76"/>
      <use x="199.316406" xlink:href="#DejaVuSans-76"/>
      <use x="255.029297" xlink:href="#DejaVuSans-77"/>
      <use x="341.308594" xlink:href="#DejaVuSans-65"/>
      <use x="409.716797" xlink:href="#DejaVuSans-82"/>
      <use x="479.199219" xlink:href="#DejaVuSans-75"/>
      <use x="544.775391" xlink:href="#DejaVuSans-95"/>
      <use x="594.775391" xlink:href="#DejaVuSans-77"/>
      <use x="681.054688" xlink:href="#DejaVuSans-89"/>
      <use x="742.060547" xlink:href="#DejaVuSans-67"/>
      <use x="811.884766" xlink:href="#DejaVuSans-95"/>
      <use x="861.884766" xlink:href="#DejaVuSans-84"/>
      <use x="922.859375" xlink:href="#DejaVuSans-65"/>
      <use x="991.267578" xlink:href="#DejaVuSans-82"/>
      <use x="1060.75" xlink:href="#DejaVuSans-71"/>
      <use x="1138.240234" xlink:href="#DejaVuSans-69"/>
      <use x="1201.423828" xlink:href="#DejaVuSans-84"/>
      <use x="1262.507812" xlink:href="#DejaVuSans-83"/>
      <use x="1325.984375" xlink:href="#DejaVuSans-95"/>
      <use x="1375.984375" xlink:href="#DejaVuSans-86"/>
      <use x="1444.392578" xlink:href="#DejaVuSans-49"/>
     </g>
    </g>
   </g>
   <g id="text_13">
    <g clip-path="url(#pfaa6a3eb9c)">
     <!-- HALLMARK_E2F_TARGETS -->
     <defs>
      <path d="M 9.8125 72.90625
L 51.703125 72.90625
L 51.703125 64.59375
L 19.671875 64.59375
L 19.671875 43.109375
L 48.578125 43.109375
L 48.578125 34.8125
L 19.671875 34.8125
L 19.671875 0
L 9.8125 0
z
" id="DejaVuSans-70"/>
     </defs>
     <g transform="translate(63.004915 36.390313)scale(0.05 -0.05)">
      <use xlink:href="#DejaVuSans-72"/>
      <use x="75.195312" xlink:href="#DejaVuSans-65"/>
      <use x="143.603516" xlink:href="#DejaVuSans-76"/>
      <use x="199.316406" xlink:href="#DejaVuSans-76"/>
      <use x="255.029297" xlink:href="#DejaVuSans-77"/>
      <use x="341.308594" xlink:href="#DejaVuSans-65"/>
      <use x="409.716797" xlink:href="#DejaVuSans-82"/>
      <use x="479.199219" xlink:href="#DejaVuSans-75"/>
      <use x="544.775391" xlink:href="#DejaVuSans-95"/>
      <use x="594.775391" xlink:href="#DejaVuSans-69"/>
      <use x="657.958984" xlink:href="#DejaVuSans-50"/>
      <use x="721.582031" xlink:href="#DejaVuSans-70"/>
      <use x="779.101562" xlink:href="#DejaVuSans-95"/>
      <use x="829.101562" xlink:href="#DejaVuSans-84"/>
      <use x="890.076172" xlink:href="#DejaVuSans-65"/>
      <use x="958.484375" xlink:href="#DejaVuSans-82"/>
      <use x="1027.966797" xlink:href="#DejaVuSans-71"/>
      <use x="1105.457031" xlink:href="#DejaVuSans-69"/>
      <use x="1168.640625" xlink:href="#DejaVuSans-84"/>
      <use x="1229.724609" xlink:href="#DejaVuSans-83"/>
     </g>
    </g>
   </g>
   <g id="text_14">
    <g clip-path="url(#pfaa6a3eb9c)">
     <!-- HALLMARK_INTERFERON_GAMMA_RESPONSE -->
     <defs>
      <path d="M 9.8125 72.90625
L 19.671875 72.90625
L 19.671875 0
L 9.8125 0
z
" id="DejaVuSans-73"/>
      <path d="M 9.8125 72.90625
L 23.09375 72.90625
L 55.421875 11.921875
L 55.421875 72.90625
L 64.984375 72.90625
L 64.984375 0
L 51.703125 0
L 19.390625 60.984375
L 19.390625 0
L 9.8125 0
z
" id="DejaVuSans-78"/>
      <path d="M 39.40625 66.21875
Q 28.65625 66.21875 22.328125 58.203125
Q 16.015625 50.203125 16.015625 36.375
Q 16.015625 22.609375 22.328125 14.59375
Q 28.65625 6.59375 39.40625 6.59375
Q 50.140625 6.59375 56.421875 14.59375
Q 62.703125 22.609375 62.703125 36.375
Q 62.703125 50.203125 56.421875 58.203125
Q 50.140625 66.21875 39.40625 66.21875
z
M 39.40625 74.21875
Q 54.734375 74.21875 63.90625 63.9375
Q 73.09375 53.65625 73.09375 36.375
Q 73.09375 19.140625 63.90625 8.859375
Q 54.734375 -1.421875 39.40625 -1.421875
Q 24.03125 -1.421875 14.8125 8.828125
Q 5.609375 19.09375 5.609375 36.375
Q 5.609375 53.65625 14.8125 63.9375
Q 24.03125 74.21875 39.40625 74.21875
z
" id="DejaVuSans-79"/>
      <path d="M 19.671875 64.796875
L 19.671875 37.40625
L 32.078125 37.40625
Q 38.96875 37.40625 42.71875 40.96875
Q 46.484375 44.53125 46.484375 51.125
Q 46.484375 57.671875 42.71875 61.234375
Q 38.96875 64.796875 32.078125 64.796875
z
M 9.8125 72.90625
L 32.078125 72.90625
Q 44.34375 72.90625 50.609375 67.359375
Q 56.890625 61.8125 56.890625 51.125
Q 56.890625 40.328125 50.609375 34.8125
Q 44.34375 29.296875 32.078125 29.296875
L 19.671875 29.296875
L 19.671875 0
L 9.8125 0
z
" id="DejaVuSans-80"/>
     </defs>
     <g transform="translate(63.239649 51.510313)scale(0.05 -0.05)">
      <use xlink:href="#DejaVuSans-72"/>
      <use x="75.195312" xlink:href="#DejaVuSans-65"/>
      <use x="143.603516" xlink:href="#DejaVuSans-76"/>
      <use x="199.316406" xlink:href="#DejaVuSans-76"/>
      <use x="255.029297" xlink:href="#DejaVuSans-77"/>
      <use x="341.308594" xlink:href="#DejaVuSans-65"/>
      <use x="409.716797" xlink:href="#DejaVuSans-82"/>
      <use x="479.199219" xlink:href="#DejaVuSans-75"/>
      <use x="544.775391" xlink:href="#DejaVuSans-95"/>
      <use x="594.775391" xlink:href="#DejaVuSans-73"/>
      <use x="624.267578" xlink:href="#DejaVuSans-78"/>
      <use x="699.072266" xlink:href="#DejaVuSans-84"/>
      <use x="760.15625" xlink:href="#DejaVuSans-69"/>
      <use x="823.339844" xlink:href="#DejaVuSans-82"/>
      <use x="892.822266" xlink:href="#DejaVuSans-70"/>
      <use x="950.341797" xlink:href="#DejaVuSans-69"/>
      <use x="1013.525391" xlink:href="#DejaVuSans-82"/>
      <use x="1083.007812" xlink:href="#DejaVuSans-79"/>
      <use x="1161.71875" xlink:href="#DejaVuSans-78"/>
      <use x="1236.523438" xlink:href="#DejaVuSans-95"/>
      <use x="1286.523438" xlink:href="#DejaVuSans-71"/>
      <use x="1364.013672" xlink:href="#DejaVuSans-65"/>
      <use x="1432.421875" xlink:href="#DejaVuSans-77"/>
      <use x="1518.701172" xlink:href="#DejaVuSans-77"/>
      <use x="1604.980469" xlink:href="#DejaVuSans-65"/>
      <use x="1673.388672" xlink:href="#DejaVuSans-95"/>
      <use x="1723.388672" xlink:href="#DejaVuSans-82"/>
      <use x="1792.871094" xlink:href="#DejaVuSans-69"/>
      <use x="1856.054688" xlink:href="#DejaVuSans-83"/>
      <use x="1919.53125" xlink:href="#DejaVuSans-80"/>
      <use x="1979.833984" xlink:href="#DejaVuSans-79"/>
      <use x="2058.544922" xlink:href="#DejaVuSans-78"/>
      <use x="2133.349609" xlink:href="#DejaVuSans-83"/>
      <use x="2196.826172" xlink:href="#DejaVuSans-69"/>
     </g>
    </g>
   </g>
   <g id="text_15">
    <g clip-path="url(#pfaa6a3eb9c)">
     <!-- HALLMARK_INFLAMMATORY_RESPONSE -->
     <g transform="translate(63.239649 51.510313)scale(0.05 -0.05)">
      <use xlink:href="#DejaVuSans-72"/>
      <use x="75.195312" xlink:href="#DejaVuSans-65"/>
      <use x="143.603516" xlink:href="#DejaVuSans-76"/>
      <use x="199.316406" xlink:href="#DejaVuSans-76"/>
      <use x="255.029297" xlink:href="#DejaVuSans-77"/>
      <use x="341.308594" xlink:href="#DejaVuSans-65"/>
      <use x="409.716797" xlink:href="#DejaVuSans-82"/>
      <use x="479.199219" xlink:href="#DejaVuSans-75"/>
      <use x="544.775391" xlink:href="#DejaVuSans-95"/>
      <use x="594.775391" xlink:href="#DejaVuSans-73"/>
      <use x="624.267578" xlink:href="#DejaVuSans-78"/>
      <use x="699.072266" xlink:href="#DejaVuSans-70"/>
      <use x="756.591797" xlink:href="#DejaVuSans-76"/>
      <use x="812.335938" xlink:href="#DejaVuSans-65"/>
      <use x="880.744141" xlink:href="#DejaVuSans-77"/>
      <use x="967.023438" xlink:href="#DejaVuSans-77"/>
      <use x="1053.302734" xlink:href="#DejaVuSans-65"/>
      <use x="1121.601562" xlink:href="#DejaVuSans-84"/>
      <use x="1182.685547" xlink:href="#DejaVuSans-79"/>
      <use x="1261.396484" xlink:href="#DejaVuSans-82"/>
      <use x="1330.785156" xlink:href="#DejaVuSans-89"/>
      <use x="1391.869141" xlink:href="#DejaVuSans-95"/>
      <use x="1441.869141" xlink:href="#DejaVuSans-82"/>
      <use x="1511.351562" xlink:href="#DejaVuSans-69"/>
      <use x="1574.535156" xlink:href="#DejaVuSans-83"/>
      <use x="1638.011719" xlink:href="#DejaVuSans-80"/>
      <use x="1698.314453" xlink:href="#DejaVuSans-79"/>
      <use x="1777.025391" xlink:href="#DejaVuSans-78"/>
      <use x="1851.830078" xlink:href="#DejaVuSans-83"/>
      <use x="1915.306641" xlink:href="#DejaVuSans-69"/>
     </g>
    </g>
   </g>
   <g id="text_16">
    <g clip-path="url(#pfaa6a3eb9c)">
     <!-- HALLMARK_G2M_CHECKPOINT -->
     <g transform="translate(63.004915 36.390313)scale(0.05 -0.05)">
      <use xlink:href="#DejaVuSans-72"/>
      <use x="75.195312" xlink:href="#DejaVuSans-65"/>
      <use x="143.603516" xlink:href="#DejaVuSans-76"/>
      <use x="199.316406" xlink:href="#DejaVuSans-76"/>
      <use x="255.029297" xlink:href="#DejaVuSans-77"/>
      <use x="341.308594" xlink:href="#DejaVuSans-65"/>
      <use x="409.716797" xlink:href="#DejaVuSans-82"/>
      <use x="479.199219" xlink:href="#DejaVuSans-75"/>
      <use x="544.775391" xlink:href="#DejaVuSans-95"/>
      <use x="594.775391" xlink:href="#DejaVuSans-71"/>
      <use x="672.265625" xlink:href="#DejaVuSans-50"/>
      <use x="735.888672" xlink:href="#DejaVuSans-77"/>
      <use x="822.167969" xlink:href="#DejaVuSans-95"/>
      <use x="872.167969" xlink:href="#DejaVuSans-67"/>
      <use x="941.992188" xlink:href="#DejaVuSans-72"/>
      <use x="1017.1875" xlink:href="#DejaVuSans-69"/>
      <use x="1080.371094" xlink:href="#DejaVuSans-67"/>
      <use x="1150.195312" xlink:href="#DejaVuSans-75"/>
      <use x="1215.771484" xlink:href="#DejaVuSans-80"/>
      <use x="1276.074219" xlink:href="#DejaVuSans-79"/>
      <use x="1354.785156" xlink:href="#DejaVuSans-73"/>
      <use x="1384.277344" xlink:href="#DejaVuSans-78"/>
      <use x="1459.082031" xlink:href="#DejaVuSans-84"/>
     </g>
    </g>
   </g>
   <g id="text_17">
    <g clip-path="url(#pfaa6a3eb9c)">
     <!-- HALLMARK_TNFA_SIGNALING_VIA_NFKB -->
     <g transform="translate(63.239649 51.510313)scale(0.05 -0.05)">
      <use xlink:href="#DejaVuSans-72"/>
      <use x="75.195312" xlink:href="#DejaVuSans-65"/>
      <use x="143.603516" xlink:href="#DejaVuSans-76"/>
      <use x="199.316406" xlink:href="#DejaVuSans-76"/>
      <use x="255.029297" xlink:href="#DejaVuSans-77"/>
      <use x="341.308594" xlink:href="#DejaVuSans-65"/>
      <use x="409.716797" xlink:href="#DejaVuSans-82"/>
      <use x="479.199219" xlink:href="#DejaVuSans-75"/>
      <use x="544.775391" xlink:href="#DejaVuSans-95"/>
      <use x="594.775391" xlink:href="#DejaVuSans-84"/>
      <use x="655.859375" xlink:href="#DejaVuSans-78"/>
      <use x="730.664062" xlink:href="#DejaVuSans-70"/>
      <use x="788.042969" xlink:href="#DejaVuSans-65"/>
      <use x="856.451172" xlink:href="#DejaVuSans-95"/>
      <use x="906.451172" xlink:href="#DejaVuSans-83"/>
      <use x="969.927734" xlink:href="#DejaVuSans-73"/>
      <use x="999.419922" xlink:href="#DejaVuSans-71"/>
      <use x="1076.910156" xlink:href="#DejaVuSans-78"/>
      <use x="1151.714844" xlink:href="#DejaVuSans-65"/>
      <use x="1220.123047" xlink:href="#DejaVuSans-76"/>
      <use x="1275.835938" xlink:href="#DejaVuSans-73"/>
      <use x="1305.328125" xlink:href="#DejaVuSans-78"/>
      <use x="1380.132812" xlink:href="#DejaVuSans-71"/>
      <use x="1457.623047" xlink:href="#DejaVuSans-95"/>
      <use x="1507.623047" xlink:href="#DejaVuSans-86"/>
      <use x="1576.03125" xlink:href="#DejaVuSans-73"/>
      <use x="1605.523438" xlink:href="#DejaVuSans-65"/>
      <use x="1673.931641" xlink:href="#DejaVuSans-95"/>
      <use x="1723.931641" xlink:href="#DejaVuSans-78"/>
      <use x="1798.736328" xlink:href="#DejaVuSans-70"/>
      <use x="1856.255859" xlink:href="#DejaVuSans-75"/>
      <use x="1921.832031" xlink:href="#DejaVuSans-66"/>
     </g>
    </g>
   </g>
  </g>
  <g id="text_18">
   <!-- GSEA pathway statistics vs ranking -->
   <defs>
    <path d="M 54.890625 33.015625
L 54.890625 0
L 45.90625 0
L 45.90625 32.71875
Q 45.90625 40.484375 42.875 44.328125
Q 39.84375 48.1875 33.796875 48.1875
Q 26.515625 48.1875 22.3125 43.546875
Q 18.109375 38.921875 18.109375 30.90625
L 18.109375 0
L 9.078125 0
L 9.078125 75.984375
L 18.109375 75.984375
L 18.109375 46.1875
Q 21.34375 51.125 25.703125 53.5625
Q 30.078125 56 35.796875 56
Q 45.21875 56 50.046875 50.171875
Q 54.890625 44.34375 54.890625 33.015625
z
" id="DejaVuSans-104"/>
    <path d="M 4.203125 54.6875
L 13.1875 54.6875
L 24.421875 12.015625
L 35.59375 54.6875
L 46.1875 54.6875
L 57.421875 12.015625
L 68.609375 54.6875
L 77.59375 54.6875
L 63.28125 0
L 52.6875 0
L 40.921875 44.828125
L 29.109375 0
L 18.5 0
z
" id="DejaVuSans-119"/>
    <path d="M 32.171875 -5.078125
Q 28.375 -14.84375 24.75 -17.8125
Q 21.140625 -20.796875 15.09375 -20.796875
L 7.90625 -20.796875
L 7.90625 -13.28125
L 13.1875 -13.28125
Q 16.890625 -13.28125 18.9375 -11.515625
Q 21 -9.765625 23.484375 -3.21875
L 25.09375 0.875
L 2.984375 54.6875
L 12.5 54.6875
L 29.59375 11.921875
L 46.6875 54.6875
L 56.203125 54.6875
z
" id="DejaVuSans-121"/>
   </defs>
   <g transform="translate(87.227656 11.397656)scale(0.15 -0.15)">
    <use xlink:href="#DejaVuSans-71"/>
    <use x="77.490234" xlink:href="#DejaVuSans-83"/>
    <use x="140.966797" xlink:href="#DejaVuSans-69"/>
    <use x="204.150391" xlink:href="#DejaVuSans-65"/>
    <use x="272.558594" xlink:href="#DejaVuSans-32"/>
    <use x="304.345703" xlink:href="#DejaVuSans-112"/>
    <use x="367.822266" xlink:href="#DejaVuSans-97"/>
    <use x="429.101562" xlink:href="#DejaVuSans-116"/>
    <use x="468.310547" xlink:href="#DejaVuSans-104"/>
    <use x="531.689453" xlink:href="#DejaVuSans-119"/>
    <use x="613.476562" xlink:href="#DejaVuSans-97"/>
    <use x="674.755859" xlink:href="#DejaVuSans-121"/>
    <use x="733.935547" xlink:href="#DejaVuSans-32"/>
    <use x="765.722656" xlink:href="#DejaVuSans-115"/>
    <use x="817.822266" xlink:href="#DejaVuSans-116"/>
    <use x="857.03125" xlink:href="#DejaVuSans-97"/>
    <use x="918.310547" xlink:href="#DejaVuSans-116"/>
    <use x="957.519531" xlink:href="#DejaVuSans-105"/>
    <use x="985.302734" xlink:href="#DejaVuSans-115"/>
    <use x="1037.402344" xlink:href="#DejaVuSans-116"/>
    <use x="1076.611328" xlink:href="#DejaVuSans-105"/>
    <use x="1104.394531" xlink:href="#DejaVuSans-99"/>
    <use x="1159.375" xlink:href="#DejaVuSans-115"/>
    <use x="1211.474609" xlink:href="#DejaVuSans-32"/>
    <use x="1243.261719" xlink:href="#DejaVuSans-118"/>
    <use x="1302.441406" xlink:href="#DejaVuSans-115"/>
    <use x="1354.541016" xlink:href="#DejaVuSans-32"/>
    <use x="1386.328125" xlink:href="#DejaVuSans-114"/>
    <use x="1427.441406" xlink:href="#DejaVuSans-97"/>
    <use x="1488.720703" xlink:href="#DejaVuSans-110"/>
    <use x="1552.099609" xlink:href="#DejaVuSans-107"/>
    <use x="1610.009766" xlink:href="#DejaVuSans-105"/>
    <use x="1637.792969" xlink:href="#DejaVuSans-110"/>
    <use x="1701.171875" xlink:href="#DejaVuSans-103"/>
   </g>
  </g>
 </g>
 <defs>
  <clipPath id="pfaa6a3eb9c">
   <rect height="266.112" width="357.12" x="46.772188" y="20.583376"/>
  </clipPath>
 </defs>
</svg>
