<?xml version="1.0" encoding="utf-8" standalone="no"?>
<!DOCTYPE svg PUBLIC "-//W3C//DTD SVG 1.1//EN"
  "http://www.w3.org/Graphics/SVG/1.1/DTD/svg11.dtd">
<!-- Created with matplotlib (https://matplotlib.org/) -->
<svg height="322.176313pt" version="1.1" viewBox="0 0 406.642188 322.176313" width="406.642188pt" xmlns="http://www.w3.org/2000/svg" xmlns:xlink="http://www.w3.org/1999/xlink">
 <defs>
  <style type="text/css">
*{stroke-linecap:butt;stroke-linejoin:round;}
  </style>
 </defs>
 <g id="figure_1">
  <g id="patch_1">
   <path d="M 0 322.176313
L 406.642188 322.176313
L 406.642188 0
L 0 0
z
" style="fill:#ffffff;stroke:#ffffff;stroke-linejoin:miter;"/>
  </g>
  <g id="axes_1">
   <g id="patch_2">
    <path d="M 46.772188 286.695376
L 403.892188 286.695376
L 403.892188 20.583376
L 46.772188 20.583376
z
" style="fill:none;"/>
   </g>
   <g id="matplotlib.axis_1">
    <g id="xtick_1">
     <g id="line2d_1">
      <path clip-path="url(#p23a3625883)" d="M 63.004915 286.695376
L 63.004915 20.583376
" style="fill:none;stroke:#e5e5e5;stroke-width:0.8;"/>
     </g>
     <g id="line2d_2">
      <path d="M 63.004915 286.695376
" style="fill:none;stroke:#000000;stroke-width:1.5;"/>
      <defs>
       <path d="M 0 0
L 0 2.75
" id="m480d996e99" style="stroke:#000000;"/>
      </defs>
      <g>
       <use style="stroke:#000000;" x="63.004915" xlink:href="#m480d996e99" y="286.695376"/>
      </g>
     </g>
     <g id="text_1">
      <!-- 0 -->
      <defs>
       <path d="M 31.78125 66.40625
Q 24.171875 66.40625 20.328125 58.90625
Q 16.5 51.421875 16.5 36.375
Q 16.5 21.390625 20.328125 13.890625
Q 24.171875 6.390625 31.78125 6.390625
Q 39.453125 6.390625 43.28125 13.890625
Q 47.125 21.390625 47.125 36.375
Q 47.125 51.421875 43.28125 58.90625
Q 39.453125 66.40625 31.78125 66.40625
z
M 31.78125 74.21875
Q 44.046875 74.21875 50.515625 64.515625
Q 56.984375 54.828125 56.984375 36.375
Q 56.984375 17.96875 50.515625 8.265625
Q 44.046875 -1.421875 31.78125 -1.421875
Q 19.53125 -1.421875 13.0625 8.265625
Q 6.59375 17.96875 6.59375 36.375
Q 6.59375 54.828125 13.0625 64.515625
Q 19.53125 74.21875 31.78125 74.21875
z
" id="DejaVuSans-48"/>
      </defs>
      <g style="fill:#4d4d4d;" transform="translate(59.187415 300.763501)scale(0.12 -0.12)">
       <use xlink:href="#DejaVuSans-48"/>
      </g>
     </g>
    </g>
    <g id="xtick_2">
     <g id="line2d_3">
      <path clip-path="url(#p23a3625883)" d="M 144.168551 286.695376
L 144.168551 20.583376
" style="fill:none;stroke:#e5e5e5;stroke-width:0.8;"/>
     </g>
     <g id="line2d_4">
      <path d="M 144.168551 286.695376
" style="fill:none;stroke:#000000;stroke-width:1.5;"/>
      <g>
       <use style="stroke:#000000;" x="144.168551" xlink:href="#m480d996e99" y="286.695376"/>
      </g>
     </g>
     <g id="text_2">
      <!-- 25 -->
      <defs>
       <path d="M 19.1875 8.296875
L 53.609375 8.296875
L 53.609375 0
L 7.328125 0
L 7.328125 8.296875
Q 12.9375 14.109375 22.625 23.890625
Q 32.328125 33.6875 34.8125 36.53125
Q 39.546875 41.84375 41.421875 45.53125
Q 43.3125 49.21875 43.3125 52.78125
Q 43.3125 58.59375 39.234375 62.25
Q 35.15625 65.921875 28.609375 65.921875
Q 23.96875 65.921875 18.8125 64.3125
Q 13.671875 62.703125 7.8125 59.421875
L 7.8125 69.390625
Q 13.765625 71.78125 18.9375 73
Q 24.125 74.21875 28.421875 74.21875
Q 39.75 74.21875 46.484375 68.546875
Q 53.21875 62.890625 53.21875 53.421875
Q 53.21875 48.921875 51.53125 44.890625
Q 49.859375 40.875 45.40625 35.40625
Q 44.1875 33.984375 37.640625 27.21875
Q 31.109375 20.453125 19.1875 8.296875
z
" id="DejaVuSans-50"/>
       <path d="M 10.796875 72.90625
L 49.515625 72.90625
L 49.515625 64.59375
L 19.828125 64.59375
L 19.828125 46.734375
Q 21.96875 47.46875 24.109375 47.828125
Q 26.265625 48.1875 28.421875 48.1875
Q 40.625 48.1875 47.75 41.5
Q 54.890625 34.8125 54.890625 23.390625
Q 54.890625 11.625 47.5625 5.09375
Q 40.234375 -1.421875 26.90625 -1.421875
Q 22.3125 -1.421875 17.546875 -0.640625
Q 12.796875 0.140625 7.71875 1.703125
L 7.71875 11.625
Q 12.109375 9.234375 16.796875 8.0625
Q 21.484375 6.890625 26.703125 6.890625
Q 35.15625 6.890625 40.078125 11.328125
Q 45.015625 15.765625 45.015625 23.390625
Q 45.015625 31 40.078125 35.4375
Q 35.15625 39.890625 26.703125 39.890625
Q 22.75 39.890625 18.8125 39.015625
Q 14.890625 38.140625 10.796875 36.28125
z
" id="DejaVuSans-53"/>
      </defs>
      <g style="fill:#4d4d4d;" transform="translate(136.533551 300.763501)scale(0.12 -0.12)">
       <use xlink:href="#DejaVuSans-50"/>
       <use x="63.623047" xlink:href="#DejaVuSans-53"/>
      </g>
     </g>
    </g>
    <g id="xtick_3">
     <g id="line2d_5">
      <path clip-path="url(#p23a3625883)" d="M 225.332188 286.695376
L 225.332188 20.583376
" style="fill:none;stroke:#e5e5e5;stroke-width:0.8;"/>
     </g>
     <g id="line2d_6">
      <path d="M 225.332188 286.695376
" style="fill:none;stroke:#000000;stroke-width:1.5;"/>
      <g>
       <use style="stroke:#000000;" x="225.332188" xlink:href="#m480d996e99" y="286.695376"/>
      </g>
     </g>
     <g id="text_3">
      <!-- 50 -->
      <g style="fill:#4d4d4d;" transform="translate(217.697188 300.763501)scale(0.12 -0.12)">
       <use xlink:href="#DejaVuSans-53"/>
       <use x="63.623047" xlink:href="#DejaVuSans-48"/>
      </g>
     </g>
    </g>
    <g id="xtick_4">
     <g id="line2d_7">
      <path clip-path="url(#p23a3625883)" d="M 306.495824 286.695376
L 306.495824 20.583376
" style="fill:none;stroke:#e5e5e5;stroke-width:0.8;"/>
     </g>
     <g id="line2d_8">
      <path d="M 306.495824 286.695376
" style="fill:none;stroke:#000000;stroke-width:1.5;"/>
      <g>
       <use style="stroke:#000000;" x="306.495824" xlink:href="#m480d996e99" y="286.695376"/>
      </g>
     </g>
     <g id="text_4">
      <!-- 75 -->
      <defs>
       <path d="M 8.203125 72.90625
L 55.078125 72.90625
L 55.078125 68.703125
L 28.609375 0
L 18.3125 0
L 43.21875 64.59375
L 8.203125 64.59375
z
" id="DejaVuSans-55"/>
      </defs>
      <g style="fill:#4d4d4d;" transform="translate(298.860824 300.763501)scale(0.12 -0.12)">
       <use xlink:href="#DejaVuSans-55"/>
       <use x="63.623047" xlink:href="#DejaVuSans-53"/>
      </g>
     </g>
    </g>
    <g id="xtick_5">
     <g id="line2d_9">
      <path clip-path="url(#p23a3625883)" d="M 387.65946 286.695376
L 387.65946 20.583376
" style="fill:none;stroke:#e5e5e5;stroke-width:0.8;"/>
     </g>
     <g id="line2d_10">
      <path d="M 387.65946 286.695376
" style="fill:none;stroke:#000000;stroke-width:1.5;"/>
      <g>
       <use style="stroke:#000000;" x="387.65946" xlink:href="#m480d996e99" y="286.695376"/>
      </g>
     </g>
     <g id="text_5">
      <!-- 100 -->
      <defs>
       <path d="M 12.40625 8.296875
L 28.515625 8.296875
L 28.515625 63.921875
L 10.984375 60.40625
L 10.984375 69.390625
L 28.421875 72.90625
L 38.28125 72.90625
L 38.28125 8.296875
L 54.390625 8.296875
L 54.390625 0
L 12.40625 0
z
" id="DejaVuSans-49"/>
      </defs>
      <g style="fill:#4d4d4d;" transform="translate(376.20696 300.763501)scale(0.12 -0.12)">
       <use xlink:href="#DejaVuSans-49"/>
       <use x="63.623047" xlink:href="#DejaVuSans-48"/>
       <use x="127.246094" xlink:href="#DejaVuSans-48"/>
      </g>
     </g>
    </g>
    <g id="xtick_6">
     <g id="line2d_11">
      <path clip-path="url(#p23a3625883)" d="M 103.586733 286.695376
L 103.586733 20.583376
" style="fill:none;stroke:#fafafa;"/>
     </g>
     <g id="line2d_12">
      <path d="M 103.586733 286.695376
" style="fill:none;stroke:#000000;stroke-width:1.5;"/>
     </g>
    </g>
    <g id="xtick_7">
     <g id="line2d_13">
      <path clip-path="url(#p23a3625883)" d="M 184.750369 286.695376
L 184.750369 20.583376
" style="fill:none;stroke:#fafafa;"/>
     </g>
     <g id="line2d_14">
      <path d="M 184.750369 286.695376
" style="fill:none;stroke:#000000;stroke-width:1.5;"/>
     </g>
    </g>
    <g id="xtick_8">
     <g id="line2d_15">
      <path clip-path="url(#p23a3625883)" d="M 265.914006 286.695376
L 265.914006 20.583376
" style="fill:none;stroke:#fafafa;"/>
     </g>
     <g id="line2d_16">
      <path d="M 265.914006 286.695376
" style="fill:none;stroke:#000000;stroke-width:1.5;"/>
     </g>
    </g>
    <g id="xtick_9">
     <g id="line2d_17">
      <path clip-path="url(#p23a3625883)" d="M 347.077642 286.695376
L 347.077642 20.583376
" style="fill:none;stroke:#fafafa;"/>
     </g>
     <g id="line2d_18">
      <path d="M 347.077642 286.695376
" style="fill:none;stroke:#000000;stroke-width:1.5;"/>
     </g>
    </g>
    <g id="text_6">
     <!-- GSEA pathway ranking -->
     <defs>
      <path d="M 59.515625 10.40625
L 59.515625 29.984375
L 43.40625 29.984375
L 43.40625 38.09375
L 69.28125 38.09375
L 69.28125 6.78125
Q 63.578125 2.734375 56.6875 0.65625
Q 49.8125 -1.421875 42 -1.421875
Q 24.90625 -1.421875 15.25 8.5625
Q 5.609375 18.5625 5.609375 36.375
Q 5.609375 54.25 15.25 64.234375
Q 24.90625 74.21875 42 74.21875
Q 49.125 74.21875 55.546875 72.453125
Q 61.96875 70.703125 67.390625 67.28125
L 67.390625 56.78125
Q 61.921875 61.421875 55.765625 63.765625
Q 49.609375 66.109375 42.828125 66.109375
Q 29.4375 66.109375 22.71875 58.640625
Q 16.015625 51.171875 16.015625 36.375
Q 16.015625 21.625 22.71875 14.15625
Q 29.4375 6.6875 42.828125 6.6875
Q 48.046875 6.6875 52.140625 7.59375
Q 56.25 8.5 59.515625 10.40625
z
" id="DejaVuSans-71"/>
      <path d="M 53.515625 70.515625
L 53.515625 60.890625
Q 47.90625 63.578125 42.921875 64.890625
Q 37.9375 66.21875 33.296875 66.21875
Q 25.25 66.21875 20.875 63.09375
Q 16.5 59.96875 16.5 54.203125
Q 16.5 49.359375 19.40625 46.890625
Q 22.3125 44.4375 30.421875 42.921875
L 36.375 41.703125
Q 47.40625 39.59375 52.65625 34.296875
Q 57.90625 29 57.90625 20.125
Q 57.90625 9.515625 50.796875 4.046875
Q 43.703125 -1.421875 29.984375 -1.421875
Q 24.8125 -1.421875 18.96875 -0.25
Q 13.140625 0.921875 6.890625 3.21875
L 6.890625 13.375
Q 12.890625 10.015625 18.65625 8.296875
Q 24.421875 6.59375 29.984375 6.59375
Q 38.421875 6.59375 43.015625 9.90625
Q 47.609375 13.234375 47.609375 19.390625
Q 47.609375 24.75 44.3125 27.78125
Q 41.015625 30.8125 33.5 32.328125
L 27.484375 33.5
Q 16.453125 35.6875 11.515625 40.375
Q 6.59375 45.0625 6.59375 53.421875
Q 6.59375 63.09375 13.40625 68.65625
Q 20.21875 74.21875 32.171875 74.21875
Q 37.3125 74.21875 42.625 73.28125
Q 47.953125 72.359375 53.515625 70.515625
z
" id="DejaVuSans-83"/>
      <path d="M 9.8125 72.90625
L 55.90625 72.90625
L 55.90625 64.59375
L 19.671875 64.59375
L 19.671875 43.015625
L 54.390625 43.015625
L 54.390625 34.71875
L 19.671875 34.71875
L 19.671875 8.296875
L 56.78125 8.296875
L 56.78125 0
L 9.8125 0
z
" id="DejaVuSans-69"/>
      <path d="M 34.1875 63.1875
L 20.796875 26.90625
L 47.609375 26.90625
z
M 28.609375 72.90625
L 39.796875 72.90625
L 67.578125 0
L 57.328125 0
L 50.6875 18.703125
L 17.828125 18.703125
L 11.1875 0
L 0.78125 0
z
" id="DejaVuSans-65"/>
      <path id="DejaVuSans-32"/>
      <path d="M 18.109375 8.203125
L 18.109375 -20.796875
L 9.078125 -20.796875
L 9.078125 54.6875
L 18.109375 54.6875
L 18.109375 46.390625
Q 20.953125 51.265625 25.265625 53.625
Q 29.59375 56 35.59375 56
Q 45.5625 56 51.78125 48.09375
Q 58.015625 40.1875 58.015625 27.296875
Q 58.015625 14.40625 51.78125 6.484375
Q 45.5625 -1.421875 35.59375 -1.421875
Q 29.59375 -1.421875 25.265625 0.953125
Q 20.953125 3.328125 18.109375 8.203125
z
M 48.6875 27.296875
Q 48.6875 37.203125 44.609375 42.84375
Q 40.53125 48.484375 33.40625 48.484375
Q 26.265625 48.484375 22.1875 42.84375
Q 18.109375 37.203125 18.109375 27.296875
Q 18.109375 17.390625 22.1875 11.75
Q 26.265625 6.109375 33.40625 6.109375
Q 40.53125 6.109375 44.609375 11.75
Q 48.6875 17.390625 48.6875 27.296875
z
" id="DejaVuSans-112"/>
      <path d="M 34.28125 27.484375
Q 23.390625 27.484375 19.1875 25
Q 14.984375 22.515625 14.984375 16.5
Q 14.984375 11.71875 18.140625 8.90625
Q 21.296875 6.109375 26.703125 6.109375
Q 34.1875 6.109375 38.703125 11.40625
Q 43.21875 16.703125 43.21875 25.484375
L 43.21875 27.484375
z
M 52.203125 31.203125
L 52.203125 0
L 43.21875 0
L 43.21875 8.296875
Q 40.140625 3.328125 35.546875 0.953125
Q 30.953125 -1.421875 24.3125 -1.421875
Q 15.921875 -1.421875 10.953125 3.296875
Q 6 8.015625 6 15.921875
Q 6 25.140625 12.171875 29.828125
Q 18.359375 34.515625 30.609375 34.515625
L 43.21875 34.515625
L 43.21875 35.40625
Q 43.21875 41.609375 39.140625 45
Q 35.0625 48.390625 27.6875 48.390625
Q 23 48.390625 18.546875 47.265625
Q 14.109375 46.140625 10.015625 43.890625
L 10.015625 52.203125
Q 14.9375 54.109375 19.578125 55.046875
Q 24.21875 56 28.609375 56
Q 40.484375 56 46.34375 49.84375
Q 52.203125 43.703125 52.203125 31.203125
z
" id="DejaVuSans-97"/>
      <path d="M 18.3125 70.21875
L 18.3125 54.6875
L 36.8125 54.6875
L 36.8125 47.703125
L 18.3125 47.703125
L 18.3125 18.015625
Q 18.3125 11.328125 20.140625 9.421875
Q 21.96875 7.515625 27.59375 7.515625
L 36.8125 7.515625
L 36.8125 0
L 27.59375 0
Q 17.1875 0 13.234375 3.875
Q 9.28125 7.765625 9.28125 18.015625
L 9.28125 47.703125
L 2.6875 47.703125
L 2.6875 54.6875
L 9.28125 54.6875
L 9.28125 70.21875
z
" id="DejaVuSans-116"/>
      <path d="M 54.890625 33.015625
L 54.890625 0
L 45.90625 0
L 45.90625 32.71875
Q 45.90625 40.484375 42.875 44.328125
Q 39.84375 48.1875 33.796875 48.1875
Q 26.515625 48.1875 22.3125 43.546875
Q 18.109375 38.921875 18.109375 30.90625
L 18.109375 0
L 9.078125 0
L 9.078125 75.984375
L 18.109375 75.984375
L 18.109375 46.1875
Q 21.34375 51.125 25.703125 53.5625
Q 30.078125 56 35.796875 56
Q 45.21875 56 50.046875 50.171875
Q 54.890625 44.34375 54.890625 33.015625
z
" id="DejaVuSans-104"/>
      <path d="M 4.203125 54.6875
L 13.1875 54.6875
L 24.421875 12.015625
L 35.59375 54.6875
L 46.1875 54.6875
L 57.421875 12.015625
L 68.609375 54.6875
L 77.59375 54.6875
L 63.28125 0
L 52.6875 0
L 40.921875 44.828125
L 29.109375 0
L 18.5 0
z
" id="DejaVuSans-119"/>
      <path d="M 32.171875 -5.078125
Q 28.375 -14.84375 24.75 -17.8125
Q 21.140625 -20.796875 15.09375 -20.796875
L 7.90625 -20.796875
L 7.90625 -13.28125
L 13.1875 -13.28125
Q 16.890625 -13.28125 18.9375 -11.515625
Q 21 -9.765625 23.484375 -3.21875
L 25.09375 0.875
L 2.984375 54.6875
L 12.5 54.6875
L 29.59375 11.921875
L 46.6875 54.6875
L 56.203125 54.6875
z
" id="DejaVuSans-121"/>
      <path d="M 41.109375 46.296875
Q 39.59375 47.171875 37.8125 47.578125
Q 36.03125 48 33.890625 48
Q 26.265625 48 22.1875 43.046875
Q 18.109375 38.09375 18.109375 28.8125
L 18.109375 0
L 9.078125 0
L 9.078125 54.6875
L 18.109375 54.6875
L 18.109375 46.1875
Q 20.953125 51.171875 25.484375 53.578125
Q 30.03125 56 36.53125 56
Q 37.453125 56 38.578125 55.875
Q 39.703125 55.765625 41.0625 55.515625
z
" id="DejaVuSans-114"/>
      <path d="M 54.890625 33.015625
L 54.890625 0
L 45.90625 0
L 45.90625 32.71875
Q 45.90625 40.484375 42.875 44.328125
Q 39.84375 48.1875 33.796875 48.1875
Q 26.515625 48.1875 22.3125 43.546875
Q 18.109375 38.921875 18.109375 30.90625
L 18.109375 0
L 9.078125 0
L 9.078125 54.6875
L 18.109375 54.6875
L 18.109375 46.1875
Q 21.34375 51.125 25.703125 53.5625
Q 30.078125 56 35.796875 56
Q 45.21875 56 50.046875 50.171875
Q 54.890625 44.34375 54.890625 33.015625
z
" id="DejaVuSans-110"/>
      <path d="M 9.078125 75.984375
L 18.109375 75.984375
L 18.109375 31.109375
L 44.921875 54.6875
L 56.390625 54.6875
L 27.390625 29.109375
L 57.625 0
L 45.90625 0
L 18.109375 26.703125
L 18.109375 0
L 9.078125 0
z
" id="DejaVuSans-107"/>
      <path d="M 9.421875 54.6875
L 18.40625 54.6875
L 18.40625 0
L 9.421875 0
z
M 9.421875 75.984375
L 18.40625 75.984375
L 18.40625 64.59375
L 9.421875 64.59375
z
" id="DejaVuSans-105"/>
      <path d="M 45.40625 27.984375
Q 45.40625 37.75 41.375 43.109375
Q 37.359375 48.484375 30.078125 48.484375
Q 22.859375 48.484375 18.828125 43.109375
Q 14.796875 37.75 14.796875 27.984375
Q 14.796875 18.265625 18.828125 12.890625
Q 22.859375 7.515625 30.078125 7.515625
Q 37.359375 7.515625 41.375 12.890625
Q 45.40625 18.265625 45.40625 27.984375
z
M 54.390625 6.78125
Q 54.390625 -7.171875 48.1875 -13.984375
Q 42 -20.796875 29.203125 -20.796875
Q 24.46875 -20.796875 20.265625 -20.09375
Q 16.0625 -19.390625 12.109375 -17.921875
L 12.109375 -9.1875
Q 16.0625 -11.328125 19.921875 -12.34375
Q 23.78125 -13.375 27.78125 -13.375
Q 36.625 -13.375 41.015625 -8.765625
Q 45.40625 -4.15625 45.40625 5.171875
L 45.40625 9.625
Q 42.625 4.78125 38.28125 2.390625
Q 33.9375 0 27.875 0
Q 17.828125 0 11.671875 7.65625
Q 5.515625 15.328125 5.515625 27.984375
Q 5.515625 40.671875 11.671875 48.328125
Q 17.828125 56 27.875 56
Q 33.9375 56 38.28125 53.609375
Q 42.625 51.21875 45.40625 46.390625
L 45.40625 54.6875
L 54.390625 54.6875
z
" id="DejaVuSans-103"/>
     </defs>
     <g transform="translate(133.769844 319.056782)scale(0.15 -0.15)">
      <use xlink:href="#DejaVuSans-71"/>
      <use x="77.490234" xlink:href="#DejaVuSans-83"/>
      <use x="140.966797" xlink:href="#DejaVuSans-69"/>
      <use x="204.150391" xlink:href="#DejaVuSans-65"/>
      <use x="272.558594" xlink:href="#DejaVuSans-32"/>
      <use x="304.345703" xlink:href="#DejaVuSans-112"/>
      <use x="367.822266" xlink:href="#DejaVuSans-97"/>
      <use x="429.101562" xlink:href="#DejaVuSans-116"/>
      <use x="468.310547" xlink:href="#DejaVuSans-104"/>
      <use x="531.689453" xlink:href="#DejaVuSans-119"/>
      <use x="613.476562" xlink:href="#DejaVuSans-97"/>
      <use x="674.755859" xlink:href="#DejaVuSans-121"/>
      <use x="733.935547" xlink:href="#DejaVuSans-32"/>
      <use x="765.722656" xlink:href="#DejaVuSans-114"/>
      <use x="806.835938" xlink:href="#DejaVuSans-97"/>
      <use x="868.115234" xlink:href="#DejaVuSans-110"/>
      <use x="931.494141" xlink:href="#DejaVuSans-107"/>
      <use x="989.404297" xlink:href="#DejaVuSans-105"/>
      <use x="1017.1875" xlink:href="#DejaVuSans-110"/>
      <use x="1080.566406" xlink:href="#DejaVuSans-103"/>
     </g>
    </g>
   </g>
   <g id="matplotlib.axis_2">
    <g id="ytick_1">
     <g id="line2d_19">
      <path clip-path="url(#p23a3625883)" d="M 46.772188 274.599376
L 403.892188 274.599376
" style="fill:none;stroke:#e5e5e5;stroke-width:0.8;"/>
     </g>
     <g id="line2d_20">
      <path d="M 46.772188 274.599376
" style="fill:none;stroke:#000000;stroke-width:1.5;"/>
      <defs>
       <path d="M 0 0
L -2.75 0
" id="m2277a49bff" style="stroke:#000000;"/>
      </defs>
      <g>
       <use style="stroke:#000000;" x="46.772188" xlink:href="#m2277a49bff" y="274.599376"/>
      </g>
     </g>
     <g id="text_7">
      <!-- 0 -->
      <g style="fill:#4d4d4d;" transform="translate(34.187188 277.910626)scale(0.12 -0.12)">
       <use xlink:href="#DejaVuSans-48"/>
      </g>
     </g>
    </g>
    <g id="ytick_2">
     <g id="line2d_21">
      <path clip-path="url(#p23a3625883)" d="M 46.772188 214.119376
L 403.892188 214.119376
" style="fill:none;stroke:#e5e5e5;stroke-width:0.8;"/>
     </g>
     <g id="line2d_22">
      <path d="M 46.772188 214.119376
" style="fill:none;stroke:#000000;stroke-width:1.5;"/>
      <g>
       <use style="stroke:#000000;" x="46.772188" xlink:href="#m2277a49bff" y="214.119376"/>
      </g>
     </g>
     <g id="text_8">
      <!-- 25 -->
      <g style="fill:#4d4d4d;" transform="translate(26.552188 217.430626)scale(0.12 -0.12)">
       <use xlink:href="#DejaVuSans-50"/>
       <use x="63.623047" xlink:href="#DejaVuSans-53"/>
      </g>
     </g>
    </g>
    <g id="ytick_3">
     <g id="line2d_23">
      <path clip-path="url(#p23a3625883)" d="M 46.772188 153.639376
L 403.892188 153.639376
" style="fill:none;stroke:#e5e5e5;stroke-width:0.8;"/>
     </g>
     <g id="line2d_24">
      <path d="M 46.772188 153.639376
" style="fill:none;stroke:#000000;stroke-width:1.5;"/>
      <g>
       <use style="stroke:#000000;" x="46.772188" xlink:href="#m2277a49bff" y="153.639376"/>
      </g>
     </g>
     <g id="text_9">
      <!-- 50 -->
      <g style="fill:#4d4d4d;" transform="translate(26.552188 156.950626)scale(0.12 -0.12)">
       <use xlink:href="#DejaVuSans-53"/>
       <use x="63.623047" xlink:href="#DejaVuSans-48"/>
      </g>
     </g>
    </g>
    <g id="ytick_4">
     <g id="line2d_25">
      <path clip-path="url(#p23a3625883)" d="M 46.772188 93.159376
L 403.892188 93.159376
" style="fill:none;stroke:#e5e5e5;stroke-width:0.8;"/>
     </g>
     <g id="line2d_26">
      <path d="M 46.772188 93.159376
" style="fill:none;stroke:#000000;stroke-width:1.5;"/>
      <g>
       <use style="stroke:#000000;" x="46.772188" xlink:href="#m2277a49bff" y="93.159376"/>
      </g>
     </g>
     <g id="text_10">
      <!-- 75 -->
      <g style="fill:#4d4d4d;" transform="translate(26.552188 96.470626)scale(0.12 -0.12)">
       <use xlink:href="#DejaVuSans-55"/>
       <use x="63.623047" xlink:href="#DejaVuSans-53"/>
      </g>
     </g>
    </g>
    <g id="ytick_5">
     <g id="line2d_27">
      <path clip-path="url(#p23a3625883)" d="M 46.772188 32.679376
L 403.892188 32.679376
" style="fill:none;stroke:#e5e5e5;stroke-width:0.8;"/>
     </g>
     <g id="line2d_28">
      <path d="M 46.772188 32.679376
" style="fill:none;stroke:#000000;stroke-width:1.5;"/>
      <g>
       <use style="stroke:#000000;" x="46.772188" xlink:href="#m2277a49bff" y="32.679376"/>
      </g>
     </g>
     <g id="text_11">
      <!-- 100 -->
      <g style="fill:#4d4d4d;" transform="translate(18.917188 35.990626)scale(0.12 -0.12)">
       <use xlink:href="#DejaVuSans-49"/>
       <use x="63.623047" xlink:href="#DejaVuSans-48"/>
       <use x="127.246094" xlink:href="#DejaVuSans-48"/>
      </g>
     </g>
    </g>
    <g id="ytick_6">
     <g id="line2d_29">
      <path clip-path="url(#p23a3625883)" d="M 46.772188 244.359376
L 403.892188 244.359376
" style="fill:none;stroke:#fafafa;"/>
     </g>
     <g id="line2d_30">
      <path d="M 46.772188 244.359376
" style="fill:none;stroke:#000000;stroke-width:1.5;"/>
     </g>
    </g>
    <g id="ytick_7">
     <g id="line2d_31">
      <path clip-path="url(#p23a3625883)" d="M 46.772188 183.879376
L 403.892188 183.879376
" style="fill:none;stroke:#fafafa;"/>
     </g>
     <g id="line2d_32">
      <path d="M 46.772188 183.879376
" style="fill:none;stroke:#000000;stroke-width:1.5;"/>
     </g>
    </g>
    <g id="ytick_8">
     <g id="line2d_33">
      <path clip-path="url(#p23a3625883)" d="M 46.772188 123.399376
L 403.892188 123.399376
" style="fill:none;stroke:#fafafa;"/>
     </g>
     <g id="line2d_34">
      <path d="M 46.772188 123.399376
" style="fill:none;stroke:#000000;stroke-width:1.5;"/>
     </g>
    </g>
    <g id="ytick_9">
     <g id="line2d_35">
      <path clip-path="url(#p23a3625883)" d="M 46.772188 62.919376
L 403.892188 62.919376
" style="fill:none;stroke:#fafafa;"/>
     </g>
     <g id="line2d_36">
      <path d="M 46.772188 62.919376
" style="fill:none;stroke:#000000;stroke-width:1.5;"/>
     </g>
    </g>
    <g id="text_12">
     <!-- ORA pathway ranking -->
     <defs>
      <path d="M 39.40625 66.21875
Q 28.65625 66.21875 22.328125 58.203125
Q 16.015625 50.203125 16.015625 36.375
Q 16.015625 22.609375 22.328125 14.59375
Q 28.65625 6.59375 39.40625 6.59375
Q 50.140625 6.59375 56.421875 14.59375
Q 62.703125 22.609375 62.703125 36.375
Q 62.703125 50.203125 56.421875 58.203125
Q 50.140625 66.21875 39.40625 66.21875
z
M 39.40625 74.21875
Q 54.734375 74.21875 63.90625 63.9375
Q 73.09375 53.65625 73.09375 36.375
Q 73.09375 19.140625 63.90625 8.859375
Q 54.734375 -1.421875 39.40625 -1.421875
Q 24.03125 -1.421875 14.8125 8.828125
Q 5.609375 19.09375 5.609375 36.375
Q 5.609375 53.65625 14.8125 63.9375
Q 24.03125 74.21875 39.40625 74.21875
z
" id="DejaVuSans-79"/>
      <path d="M 44.390625 34.1875
Q 47.5625 33.109375 50.5625 29.59375
Q 53.5625 26.078125 56.59375 19.921875
L 66.609375 0
L 56 0
L 46.6875 18.703125
Q 43.0625 26.03125 39.671875 28.421875
Q 36.28125 30.8125 30.421875 30.8125
L 19.671875 30.8125
L 19.671875 0
L 9.8125 0
L 9.8125 72.90625
L 32.078125 72.90625
Q 44.578125 72.90625 50.734375 67.671875
Q 56.890625 62.453125 56.890625 51.90625
Q 56.890625 45.015625 53.6875 40.46875
Q 50.484375 35.9375 44.390625 34.1875
z
M 19.671875 64.796875
L 19.671875 38.921875
L 32.078125 38.921875
Q 39.203125 38.921875 42.84375 42.21875
Q 46.484375 45.515625 46.484375 51.90625
Q 46.484375 58.296875 42.84375 61.546875
Q 39.203125 64.796875 32.078125 64.796875
z
" id="DejaVuSans-82"/>
     </defs>
     <g transform="translate(11.397656 233.512548)rotate(-90)scale(0.15 -0.15)">
      <use xlink:href="#DejaVuSans-79"/>
      <use x="78.710938" xlink:href="#DejaVuSans-82"/>
      <use x="148.130859" xlink:href="#DejaVuSans-65"/>
      <use x="216.539062" xlink:href="#DejaVuSans-32"/>
      <use x="248.326172" xlink:href="#DejaVuSans-112"/>
      <use x="311.802734" xlink:href="#DejaVuSans-97"/>
      <use x="373.082031" xlink:href="#DejaVuSans-116"/>
      <use x="412.291016" xlink:href="#DejaVuSans-104"/>
      <use x="475.669922" xlink:href="#DejaVuSans-119"/>
      <use x="557.457031" xlink:href="#DejaVuSans-97"/>
      <use x="618.736328" xlink:href="#DejaVuSans-121"/>
      <use x="677.916016" xlink:href="#DejaVuSans-32"/>
      <use x="709.703125" xlink:href="#DejaVuSans-114"/>
      <use x="750.816406" xlink:href="#DejaVuSans-97"/>
      <use x="812.095703" xlink:href="#DejaVuSans-110"/>
      <use x="875.474609" xlink:href="#DejaVuSans-107"/>
      <use x="933.384766" xlink:href="#DejaVuSans-105"/>
      <use x="961.167969" xlink:href="#DejaVuSans-110"/>
      <use x="1024.546875" xlink:href="#DejaVuSans-103"/>
     </g>
    </g>
   </g>
   <g id="PathCollection_1">
    <path clip-path="url(#p23a3625883)" d="M 149.57946 180.097544
C 150.04952 180.097544 150.500392 179.910787 150.832774 179.578404
C 151.165157 179.246021 151.351914 178.79515 151.351914 178.32509
C 151.351914 177.85503 151.165157 177.404159 150.832774 177.071776
C 150.500392 176.739393 150.04952 176.552636 149.57946 176.552636
C 149.1094 176.552636 148.658529 176.739393 148.326146 177.071776
C 147.993763 177.404159 147.807006 177.85503 147.807006 178.32509
C 147.807006 178.79515 147.993763 179.246021 148.326146 179.578404
C 148.658529 179.910787 149.1094 180.097544 149.57946 180.097544
z
" style="stroke:#000000;stroke-width:0.886227;"/>
    <path clip-path="url(#p23a3625883)" d="M 63.004915 239.343258
C 63.474975 239.343258 63.925846 239.156501 64.258229 238.824119
C 64.590612 238.491736 64.777369 238.040865 64.777369 237.570804
C 64.777369 237.100744 64.590612 236.649873 64.258229 236.31749
C 63.925846 235.985107 63.474975 235.798351 63.004915 235.798351
C 62.534855 235.798351 62.083983 235.985107 61.751601 236.31749
C 61.419218 236.649873 61.232461 237.100744 61.232461 237.570804
C 61.232461 238.040865 61.419218 238.491736 61.751601 238.824119
C 62.083983 239.156501 62.534855 239.343258 63.004915 239.343258
z
" style="stroke:#000000;stroke-width:0.886227;"/>
    <path clip-path="url(#p23a3625883)" d="M 142.364915 271.434687
C 142.834975 271.434687 143.285846 271.24793 143.618229 270.915547
C 143.950612 270.583164 144.137369 270.132293 144.137369 269.662233
C 144.137369 269.192173 143.950612 268.741302 143.618229 268.408919
C 143.285846 268.076536 142.834975 267.889779 142.364915 267.889779
C 141.894855 267.889779 141.443983 268.076536 141.111601 268.408919
C 140.779218 268.741302 140.592461 269.192173 140.592461 269.662233
C 140.592461 270.132293 140.779218 270.583164 141.111601 270.915547
C 141.443983 271.24793 141.894855 271.434687 142.364915 271.434687
z
" style="stroke:#000000;stroke-width:0.886227;"/>
    <path clip-path="url(#p23a3625883)" d="M 286.655824 69.01183
C 287.125884 69.01183 287.576755 68.825073 287.909138 68.49269
C 288.241521 68.160307 288.428278 67.709436 288.428278 67.239376
C 288.428278 66.769316 288.241521 66.318444 287.909138 65.986062
C 287.576755 65.653679 287.125884 65.466922 286.655824 65.466922
C 286.185764 65.466922 285.734893 65.653679 285.40251 65.986062
C 285.070127 66.318444 284.88337 66.769316 284.88337 67.239376
C 284.88337 67.709436 285.070127 68.160307 285.40251 68.49269
C 285.734893 68.825073 286.185764 69.01183 286.655824 69.01183
z
" style="stroke:#000000;stroke-width:0.886227;"/>
    <path clip-path="url(#p23a3625883)" d="M 373.230369 49.263258
C 373.70043 49.263258 374.151301 49.076501 374.483683 48.744119
C 374.816066 48.411736 375.002823 47.960865 375.002823 47.490804
C 375.002823 47.020744 374.816066 46.569873 374.483683 46.23749
C 374.151301 45.905107 373.70043 45.718351 373.230369 45.718351
C 372.760309 45.718351 372.309438 45.905107 371.977055 46.23749
C 371.644672 46.569873 371.457915 47.020744 371.457915 47.490804
C 371.457915 47.960865 371.644672 48.411736 371.977055 48.744119
C 372.309438 49.076501 372.760309 49.263258 373.230369 49.263258
z
" style="stroke:#000000;stroke-width:0.886227;"/>
    <path clip-path="url(#p23a3625883)" d="M 99.077642 78.886115
C 99.547702 78.886115 99.998573 78.699358 100.330956 78.366976
C 100.663339 78.034593 100.850096 77.583722 100.850096 77.113662
C 100.850096 76.643601 100.663339 76.19273 100.330956 75.860347
C 99.998573 75.527965 99.547702 75.341208 99.077642 75.341208
C 98.607582 75.341208 98.156711 75.527965 97.824328 75.860347
C 97.491945 76.19273 97.305188 76.643601 97.305188 77.113662
C 97.305188 77.583722 97.491945 78.034593 97.824328 78.366976
C 98.156711 78.699358 98.607582 78.886115 99.077642 78.886115
z
" style="stroke:#000000;stroke-width:0.886227;"/>
    <path clip-path="url(#p23a3625883)" d="M 63.004915 123.320401
C 63.474975 123.320401 63.925846 123.133644 64.258229 122.801261
C 64.590612 122.468879 64.777369 122.018008 64.777369 121.547947
C 64.777369 121.077887 64.590612 120.627016 64.258229 120.294633
C 63.925846 119.96225 63.474975 119.775493 63.004915 119.775493
C 62.534855 119.775493 62.083983 119.96225 61.751601 120.294633
C 61.419218 120.627016 61.232461 121.077887 61.232461 121.547947
C 61.232461 122.018008 61.419218 122.468879 61.751601 122.801261
C 62.083983 123.133644 62.534855 123.320401 63.004915 123.320401
z
" style="stroke:#000000;stroke-width:0.886227;"/>
    <path clip-path="url(#p23a3625883)" d="M 171.223097 103.57183
C 171.693157 103.57183 172.144028 103.385073 172.476411 103.05269
C 172.808794 102.720307 172.99555 102.269436 172.99555 101.799376
C 172.99555 101.329316 172.808794 100.878444 172.476411 100.546062
C 172.144028 100.213679 171.693157 100.026922 171.223097 100.026922
C 170.753036 100.026922 170.302165 100.213679 169.969782 100.546062
C 169.6374 100.878444 169.450643 101.329316 169.450643 101.799376
C 169.450643 102.269436 169.6374 102.720307 169.969782 103.05269
C 170.302165 103.385073 170.753036 103.57183 171.223097 103.57183
z
" style="stroke:#000000;stroke-width:0.886227;"/>
    <path clip-path="url(#p23a3625883)" d="M 113.506733 162.817544
C 113.976793 162.817544 114.427664 162.630787 114.760047 162.298404
C 115.09243 161.966021 115.279187 161.51515 115.279187 161.04509
C 115.279187 160.57503 115.09243 160.124159 114.760047 159.791776
C 114.427664 159.459393 113.976793 159.272636 113.506733 159.272636
C 113.036673 159.272636 112.585802 159.459393 112.253419 159.791776
C 111.921036 160.124159 111.734279 160.57503 111.734279 161.04509
C 111.734279 161.51515 111.921036 161.966021 112.253419 162.298404
C 112.585802 162.630787 113.036673 162.817544 113.506733 162.817544
z
" style="stroke:#000000;stroke-width:0.886227;"/>
    <path clip-path="url(#p23a3625883)" d="M 387.65946 34.45183
C 388.12952 34.45183 388.580392 34.265073 388.912774 33.93269
C 389.245157 33.600307 389.431914 33.149436 389.431914 32.679376
C 389.431914 32.209316 389.245157 31.758444 388.912774 31.426062
C 388.580392 31.093679 388.12952 30.906922 387.65946 30.906922
C 387.1894 30.906922 386.738529 31.093679 386.406146 31.426062
C 386.073763 31.758444 385.887006 32.209316 385.887006 32.679376
C 385.887006 33.149436 386.073763 33.600307 386.406146 33.93269
C 386.738529 34.265073 387.1894 34.45183 387.65946 34.45183
z
" style="stroke:#000000;stroke-width:0.886227;"/>
    <path clip-path="url(#p23a3625883)" d="M 228.93946 150.474687
C 229.40952 150.474687 229.860392 150.28793 230.192774 149.955547
C 230.525157 149.623164 230.711914 149.172293 230.711914 148.702233
C 230.711914 148.232173 230.525157 147.781302 230.192774 147.448919
C 229.860392 147.116536 229.40952 146.929779 228.93946 146.929779
C 228.4694 146.929779 228.018529 147.116536 227.686146 147.448919
C 227.353763 147.781302 227.167006 148.232173 227.167006 148.702233
C 227.167006 149.172293 227.353763 149.623164 227.686146 149.955547
C 228.018529 150.28793 228.4694 150.474687 228.93946 150.474687
z
" style="stroke:#000000;stroke-width:0.886227;"/>
    <path clip-path="url(#p23a3625883)" d="M 272.226733 93.697544
C 272.696793 93.697544 273.147664 93.510787 273.480047 93.178404
C 273.81243 92.846021 273.999187 92.39515 273.999187 91.92509
C 273.999187 91.45503 273.81243 91.004159 273.480047 90.671776
C 273.147664 90.339393 272.696793 90.152636 272.226733 90.152636
C 271.756673 90.152636 271.305802 90.339393 270.973419 90.671776
C 270.641036 91.004159 270.454279 91.45503 270.454279 91.92509
C 270.454279 92.39515 270.641036 92.846021 270.973419 93.178404
C 271.305802 93.510787 271.756673 93.697544 272.226733 93.697544
z
" style="stroke:#000000;stroke-width:0.886227;"/>
    <path clip-path="url(#p23a3625883)" d="M 63.004915 150.474687
C 63.474975 150.474687 63.925846 150.28793 64.258229 149.955547
C 64.590612 149.623164 64.777369 149.172293 64.777369 148.702233
C 64.777369 148.232173 64.590612 147.781302 64.258229 147.448919
C 63.925846 147.116536 63.474975 146.929779 63.004915 146.929779
C 62.534855 146.929779 62.083983 147.116536 61.751601 147.448919
C 61.419218 147.781302 61.232461 148.232173 61.232461 148.702233
C 61.232461 149.172293 61.419218 149.623164 61.751601 149.955547
C 62.083983 150.28793 62.534855 150.474687 63.004915 150.474687
z
" style="stroke:#000000;stroke-width:0.886227;"/>
    <path clip-path="url(#p23a3625883)" d="M 120.721278 157.880401
C 121.191339 157.880401 121.64221 157.693644 121.974593 157.361261
C 122.306975 157.028879 122.493732 156.578008 122.493732 156.107947
C 122.493732 155.637887 122.306975 155.187016 121.974593 154.854633
C 121.64221 154.52225 121.191339 154.335493 120.721278 154.335493
C 120.251218 154.335493 119.800347 154.52225 119.467964 154.854633
C 119.135581 155.187016 118.948825 155.637887 118.948825 156.107947
C 118.948825 156.578008 119.135581 157.028879 119.467964 157.361261
C 119.800347 157.693644 120.251218 157.880401 120.721278 157.880401
z
" style="stroke:#000000;stroke-width:0.886227;"/>
    <path clip-path="url(#p23a3625883)" d="M 63.004915 170.223258
C 63.474975 170.223258 63.925846 170.036501 64.258229 169.704119
C 64.590612 169.371736 64.777369 168.920865 64.777369 168.450804
C 64.777369 167.980744 64.590612 167.529873 64.258229 167.19749
C 63.925846 166.865107 63.474975 166.678351 63.004915 166.678351
C 62.534855 166.678351 62.083983 166.865107 61.751601 167.19749
C 61.419218 167.529873 61.232461 167.980744 61.232461 168.450804
C 61.232461 168.920865 61.419218 169.371736 61.751601 169.704119
C 62.083983 170.036501 62.534855 170.223258 63.004915 170.223258
z
" style="stroke:#000000;stroke-width:0.886227;"/>
    <path clip-path="url(#p23a3625883)" d="M 380.444915 39.388973
C 380.914975 39.388973 381.365846 39.202216 381.698229 38.869833
C 382.030612 38.53745 382.217369 38.086579 382.217369 37.616519
C 382.217369 37.146458 382.030612 36.695587 381.698229 36.363205
C 381.365846 36.030822 380.914975 35.844065 380.444915 35.844065
C 379.974855 35.844065 379.523983 36.030822 379.191601 36.363205
C 378.859218 36.695587 378.672461 37.146458 378.672461 37.616519
C 378.672461 38.086579 378.859218 38.53745 379.191601 38.869833
C 379.523983 39.202216 379.974855 39.388973 380.444915 39.388973
z
" style="stroke:#000000;stroke-width:0.886227;"/>
    <path clip-path="url(#p23a3625883)" d="M 63.004915 138.13183
C 63.474975 138.13183 63.925846 137.945073 64.258229 137.61269
C 64.590612 137.280307 64.777369 136.829436 64.777369 136.359376
C 64.777369 135.889316 64.590612 135.438444 64.258229 135.106062
C 63.925846 134.773679 63.474975 134.586922 63.004915 134.586922
C 62.534855 134.586922 62.083983 134.773679 61.751601 135.106062
C 61.419218 135.438444 61.232461 135.889316 61.232461 136.359376
C 61.232461 136.829436 61.419218 137.280307 61.751601 137.61269
C 62.083983 137.945073 62.534855 138.13183 63.004915 138.13183
z
" style="stroke:#000000;stroke-width:0.886227;"/>
    <path clip-path="url(#p23a3625883)" d="M 156.794006 256.623258
C 157.264066 256.623258 157.714937 256.436501 158.04732 256.104119
C 158.379703 255.771736 158.56646 255.320865 158.56646 254.850804
C 158.56646 254.380744 158.379703 253.929873 158.04732 253.59749
C 157.714937 253.265107 157.264066 253.078351 156.794006 253.078351
C 156.323945 253.078351 155.873074 253.265107 155.540692 253.59749
C 155.208309 253.929873 155.021552 254.380744 155.021552 254.850804
C 155.021552 255.320865 155.208309 255.771736 155.540692 256.104119
C 155.873074 256.436501 156.323945 256.623258 156.794006 256.623258
z
" style="stroke:#000000;stroke-width:0.886227;"/>
    <path clip-path="url(#p23a3625883)" d="M 344.372188 54.200401
C 344.842248 54.200401 345.293119 54.013644 345.625502 53.681261
C 345.957884 53.348879 346.144641 52.898008 346.144641 52.427947
C 346.144641 51.957887 345.957884 51.507016 345.625502 51.174633
C 345.293119 50.84225 344.842248 50.655493 344.372188 50.655493
C 343.902127 50.655493 343.451256 50.84225 343.118873 51.174633
C 342.786491 51.507016 342.599734 51.957887 342.599734 52.427947
C 342.599734 52.898008 342.786491 53.348879 343.118873 53.681261
C 343.451256 54.013644 343.902127 54.200401 344.372188 54.200401
z
" style="stroke:#000000;stroke-width:0.886227;"/>
    <path clip-path="url(#p23a3625883)" d="M 221.724915 143.068973
C 222.194975 143.068973 222.645846 142.882216 222.978229 142.549833
C 223.310612 142.21745 223.497369 141.766579 223.497369 141.296519
C 223.497369 140.826458 223.310612 140.375587 222.978229 140.043205
C 222.645846 139.710822 222.194975 139.524065 221.724915 139.524065
C 221.254855 139.524065 220.803983 139.710822 220.471601 140.043205
C 220.139218 140.375587 219.952461 140.826458 219.952461 141.296519
C 219.952461 141.766579 220.139218 142.21745 220.471601 142.549833
C 220.803983 142.882216 221.254855 143.068973 221.724915 143.068973
z
" style="stroke:#000000;stroke-width:0.886227;"/>
    <path clip-path="url(#p23a3625883)" d="M 301.084915 59.137544
C 301.554975 59.137544 302.005846 58.950787 302.338229 58.618404
C 302.670612 58.286021 302.857369 57.83515 302.857369 57.36509
C 302.857369 56.89503 302.670612 56.444159 302.338229 56.111776
C 302.005846 55.779393 301.554975 55.592636 301.084915 55.592636
C 300.614855 55.592636 300.163983 55.779393 299.831601 56.111776
C 299.499218 56.444159 299.312461 56.89503 299.312461 57.36509
C 299.312461 57.83515 299.499218 58.286021 299.831601 58.618404
C 300.163983 58.950787 300.614855 59.137544 301.084915 59.137544
z
" style="stroke:#000000;stroke-width:0.886227;"/>
    <path clip-path="url(#p23a3625883)" d="M 63.004915 207.25183
C 63.474975 207.25183 63.925846 207.065073 64.258229 206.73269
C 64.590612 206.400307 64.777369 205.949436 64.777369 205.479376
C 64.777369 205.009316 64.590612 204.558444 64.258229 204.226062
C 63.925846 203.893679 63.474975 203.706922 63.004915 203.706922
C 62.534855 203.706922 62.083983 203.893679 61.751601 204.226062
C 61.419218 204.558444 61.232461 205.009316 61.232461 205.479376
C 61.232461 205.949436 61.419218 206.400307 61.751601 206.73269
C 62.083983 207.065073 62.534855 207.25183 63.004915 207.25183
z
" style="stroke:#000000;stroke-width:0.886227;"/>
    <path clip-path="url(#p23a3625883)" d="M 243.368551 133.194687
C 243.838611 133.194687 244.289482 133.00793 244.621865 132.675547
C 244.954248 132.343164 245.141005 131.892293 245.141005 131.422233
C 245.141005 130.952173 244.954248 130.501302 244.621865 130.168919
C 244.289482 129.836536 243.838611 129.649779 243.368551 129.649779
C 242.898491 129.649779 242.44762 129.836536 242.115237 130.168919
C 241.782854 130.501302 241.596097 130.952173 241.596097 131.422233
C 241.596097 131.892293 241.782854 132.343164 242.115237 132.675547
C 242.44762 133.00793 242.898491 133.194687 243.368551 133.194687
z
" style="stroke:#000000;stroke-width:0.886227;"/>
    <path clip-path="url(#p23a3625883)" d="M 265.012187 128.257544
C 265.482248 128.257544 265.933119 128.070787 266.265502 127.738404
C 266.597884 127.406021 266.784641 126.95515 266.784641 126.48509
C 266.784641 126.01503 266.597884 125.564159 266.265502 125.231776
C 265.933119 124.899393 265.482248 124.712636 265.012187 124.712636
C 264.542127 124.712636 264.091256 124.899393 263.758873 125.231776
C 263.426491 125.564159 263.239734 126.01503 263.239734 126.48509
C 263.239734 126.95515 263.426491 127.406021 263.758873 127.738404
C 264.091256 128.070787 264.542127 128.257544 265.012187 128.257544
z
" style="stroke:#000000;stroke-width:0.886227;"/>
    <path clip-path="url(#p23a3625883)" d="M 337.157642 73.948973
C 337.627702 73.948973 338.078573 73.762216 338.410956 73.429833
C 338.743339 73.09745 338.930096 72.646579 338.930096 72.176519
C 338.930096 71.706458 338.743339 71.255587 338.410956 70.923205
C 338.078573 70.590822 337.627702 70.404065 337.157642 70.404065
C 336.687582 70.404065 336.236711 70.590822 335.904328 70.923205
C 335.571945 71.255587 335.385188 71.706458 335.385188 72.176519
C 335.385188 72.646579 335.571945 73.09745 335.904328 73.429833
C 336.236711 73.762216 336.687582 73.948973 337.157642 73.948973
z
" style="stroke:#000000;stroke-width:0.886227;"/>
    <path clip-path="url(#p23a3625883)" d="M 358.801278 44.326115
C 359.271339 44.326115 359.72221 44.139358 360.054593 43.806976
C 360.386975 43.474593 360.573732 43.023722 360.573732 42.553662
C 360.573732 42.083601 360.386975 41.63273 360.054593 41.300347
C 359.72221 40.967965 359.271339 40.781208 358.801278 40.781208
C 358.331218 40.781208 357.880347 40.967965 357.547964 41.300347
C 357.215581 41.63273 357.028825 42.083601 357.028825 42.553662
C 357.028825 43.023722 357.215581 43.474593 357.547964 43.806976
C 357.880347 44.139358 358.331218 44.326115 358.801278 44.326115
z
" style="stroke:#000000;stroke-width:0.886227;"/>
    <path clip-path="url(#p23a3625883)" d="M 322.728551 113.446115
C 323.198611 113.446115 323.649482 113.259358 323.981865 112.926976
C 324.314248 112.594593 324.501005 112.143722 324.501005 111.673662
C 324.501005 111.203601 324.314248 110.75273 323.981865 110.420347
C 323.649482 110.087965 323.198611 109.901208 322.728551 109.901208
C 322.258491 109.901208 321.80762 110.087965 321.475237 110.420347
C 321.142854 110.75273 320.956097 111.203601 320.956097 111.673662
C 320.956097 112.143722 321.142854 112.594593 321.475237 112.926976
C 321.80762 113.259358 322.258491 113.446115 322.728551 113.446115
z
" style="stroke:#000000;stroke-width:0.886227;"/>
    <path clip-path="url(#p23a3625883)" d="M 366.015824 83.823258
C 366.485884 83.823258 366.936755 83.636501 367.269138 83.304119
C 367.601521 82.971736 367.788278 82.520865 367.788278 82.050804
C 367.788278 81.580744 367.601521 81.129873 367.269138 80.79749
C 366.936755 80.465107 366.485884 80.278351 366.015824 80.278351
C 365.545764 80.278351 365.094893 80.465107 364.76251 80.79749
C 364.430127 81.129873 364.24337 81.580744 364.24337 82.050804
C 364.24337 82.520865 364.430127 82.971736 364.76251 83.304119
C 365.094893 83.636501 365.545764 83.823258 366.015824 83.823258
z
" style="stroke:#000000;stroke-width:0.886227;"/>
    <path clip-path="url(#p23a3625883)" d="M 106.292188 207.25183
C 106.762248 207.25183 107.213119 207.065073 107.545502 206.73269
C 107.877884 206.400307 108.064641 205.949436 108.064641 205.479376
C 108.064641 205.009316 107.877884 204.558444 107.545502 204.226062
C 107.213119 203.893679 106.762248 203.706922 106.292188 203.706922
C 105.822127 203.706922 105.371256 203.893679 105.038873 204.226062
C 104.706491 204.558444 104.519734 205.009316 104.519734 205.479376
C 104.519734 205.949436 104.706491 206.400307 105.038873 206.73269
C 105.371256 207.065073 105.822127 207.25183 106.292188 207.25183
z
" style="stroke:#000000;stroke-width:0.886227;"/>
    <path clip-path="url(#p23a3625883)" d="M 185.652187 207.25183
C 186.122248 207.25183 186.573119 207.065073 186.905502 206.73269
C 187.237884 206.400307 187.424641 205.949436 187.424641 205.479376
C 187.424641 205.009316 187.237884 204.558444 186.905502 204.226062
C 186.573119 203.893679 186.122248 203.706922 185.652187 203.706922
C 185.182127 203.706922 184.731256 203.893679 184.398873 204.226062
C 184.066491 204.558444 183.879734 205.009316 183.879734 205.479376
C 183.879734 205.949436 184.066491 206.400307 184.398873 206.73269
C 184.731256 207.065073 185.182127 207.25183 185.652187 207.25183
z
" style="stroke:#000000;stroke-width:0.886227;"/>
    <path clip-path="url(#p23a3625883)" d="M 207.295824 98.634687
C 207.765884 98.634687 208.216755 98.44793 208.549138 98.115547
C 208.881521 97.783164 209.068278 97.332293 209.068278 96.862233
C 209.068278 96.392173 208.881521 95.941302 208.549138 95.608919
C 208.216755 95.276536 207.765884 95.089779 207.295824 95.089779
C 206.825764 95.089779 206.374893 95.276536 206.04251 95.608919
C 205.710127 95.941302 205.52337 96.392173 205.52337 96.862233
C 205.52337 97.332293 205.710127 97.783164 206.04251 98.115547
C 206.374893 98.44793 206.825764 98.634687 207.295824 98.634687
z
" style="stroke:#000000;stroke-width:0.886227;"/>
    <path clip-path="url(#p23a3625883)" d="M 192.866733 180.097544
C 193.336793 180.097544 193.787664 179.910787 194.120047 179.578404
C 194.45243 179.246021 194.639187 178.79515 194.639187 178.32509
C 194.639187 177.85503 194.45243 177.404159 194.120047 177.071776
C 193.787664 176.739393 193.336793 176.552636 192.866733 176.552636
C 192.396673 176.552636 191.945802 176.739393 191.613419 177.071776
C 191.281036 177.404159 191.094279 177.85503 191.094279 178.32509
C 191.094279 178.79515 191.281036 179.246021 191.613419 179.578404
C 191.945802 179.910787 192.396673 180.097544 192.866733 180.097544
z
" style="stroke:#000000;stroke-width:0.886227;"/>
    <path clip-path="url(#p23a3625883)" d="M 178.437642 207.25183
C 178.907702 207.25183 179.358573 207.065073 179.690956 206.73269
C 180.023339 206.400307 180.210096 205.949436 180.210096 205.479376
C 180.210096 205.009316 180.023339 204.558444 179.690956 204.226062
C 179.358573 203.893679 178.907702 203.706922 178.437642 203.706922
C 177.967582 203.706922 177.516711 203.893679 177.184328 204.226062
C 176.851945 204.558444 176.665188 205.009316 176.665188 205.479376
C 176.665188 205.949436 176.851945 206.400307 177.184328 206.73269
C 177.516711 207.065073 177.967582 207.25183 178.437642 207.25183
z
" style="stroke:#000000;stroke-width:0.886227;"/>
    <path clip-path="url(#p23a3625883)" d="M 279.441278 276.37183
C 279.911339 276.37183 280.36221 276.185073 280.694593 275.85269
C 281.026975 275.520307 281.213732 275.069436 281.213732 274.599376
C 281.213732 274.129316 281.026975 273.678444 280.694593 273.346062
C 280.36221 273.013679 279.911339 272.826922 279.441278 272.826922
C 278.971218 272.826922 278.520347 273.013679 278.187964 273.346062
C 277.855581 273.678444 277.668825 274.129316 277.668825 274.599376
C 277.668825 275.069436 277.855581 275.520307 278.187964 275.85269
C 278.520347 276.185073 278.971218 276.37183 279.441278 276.37183
z
" style="stroke:#000000;stroke-width:0.886227;"/>
    <path clip-path="url(#p23a3625883)" d="M 135.150369 170.223258
C 135.62043 170.223258 136.071301 170.036501 136.403683 169.704119
C 136.736066 169.371736 136.922823 168.920865 136.922823 168.450804
C 136.922823 167.980744 136.736066 167.529873 136.403683 167.19749
C 136.071301 166.865107 135.62043 166.678351 135.150369 166.678351
C 134.680309 166.678351 134.229438 166.865107 133.897055 167.19749
C 133.564672 167.529873 133.377915 167.980744 133.377915 168.450804
C 133.377915 168.920865 133.564672 169.371736 133.897055 169.704119
C 134.229438 170.036501 134.680309 170.223258 135.150369 170.223258
z
" style="stroke:#000000;stroke-width:0.886227;"/>
    <path clip-path="url(#p23a3625883)" d="M 257.797642 207.25183
C 258.267702 207.25183 258.718573 207.065073 259.050956 206.73269
C 259.383339 206.400307 259.570096 205.949436 259.570096 205.479376
C 259.570096 205.009316 259.383339 204.558444 259.050956 204.226062
C 258.718573 203.893679 258.267702 203.706922 257.797642 203.706922
C 257.327582 203.706922 256.876711 203.893679 256.544328 204.226062
C 256.211945 204.558444 256.025188 205.009316 256.025188 205.479376
C 256.025188 205.949436 256.211945 206.400307 256.544328 206.73269
C 256.876711 207.065073 257.327582 207.25183 257.797642 207.25183
z
" style="stroke:#000000;stroke-width:0.886227;"/>
    <path clip-path="url(#p23a3625883)" d="M 250.583097 108.508973
C 251.053157 108.508973 251.504028 108.322216 251.836411 107.989833
C 252.168794 107.65745 252.35555 107.206579 252.35555 106.736519
C 252.35555 106.266458 252.168794 105.815587 251.836411 105.483205
C 251.504028 105.150822 251.053157 104.964065 250.583097 104.964065
C 250.113036 104.964065 249.662165 105.150822 249.329782 105.483205
C 248.9974 105.815587 248.810643 106.266458 248.810643 106.736519
C 248.810643 107.206579 248.9974 107.65745 249.329782 107.989833
C 249.662165 108.322216 250.113036 108.508973 250.583097 108.508973
z
" style="stroke:#000000;stroke-width:0.886227;"/>
    <path clip-path="url(#p23a3625883)" d="M 293.870369 64.074687
C 294.34043 64.074687 294.791301 63.88793 295.123683 63.555547
C 295.456066 63.223164 295.642823 62.772293 295.642823 62.302233
C 295.642823 61.832173 295.456066 61.381302 295.123683 61.048919
C 294.791301 60.716536 294.34043 60.529779 293.870369 60.529779
C 293.400309 60.529779 292.949438 60.716536 292.617055 61.048919
C 292.284672 61.381302 292.097915 61.832173 292.097915 62.302233
C 292.097915 62.772293 292.284672 63.223164 292.617055 63.555547
C 292.949438 63.88793 293.400309 64.074687 293.870369 64.074687
z
" style="stroke:#000000;stroke-width:0.886227;"/>
    <path clip-path="url(#p23a3625883)" d="M 351.586733 88.760401
C 352.056793 88.760401 352.507664 88.573644 352.840047 88.241261
C 353.17243 87.908879 353.359187 87.458008 353.359187 86.987947
C 353.359187 86.517887 353.17243 86.067016 352.840047 85.734633
C 352.507664 85.40225 352.056793 85.215493 351.586733 85.215493
C 351.116673 85.215493 350.665802 85.40225 350.333419 85.734633
C 350.001036 86.067016 349.814279 86.517887 349.814279 86.987947
C 349.814279 87.458008 350.001036 87.908879 350.333419 88.241261
C 350.665802 88.573644 351.116673 88.760401 351.586733 88.760401
z
" style="stroke:#000000;stroke-width:0.886227;"/>
    <path clip-path="url(#p23a3625883)" d="M 63.004915 239.343258
C 63.474975 239.343258 63.925846 239.156501 64.258229 238.824119
C 64.590612 238.491736 64.777369 238.040865 64.777369 237.570804
C 64.777369 237.100744 64.590612 236.649873 64.258229 236.31749
C 63.925846 235.985107 63.474975 235.798351 63.004915 235.798351
C 62.534855 235.798351 62.083983 235.985107 61.751601 236.31749
C 61.419218 236.649873 61.232461 237.100744 61.232461 237.570804
C 61.232461 238.040865 61.419218 238.491736 61.751601 238.824119
C 62.083983 239.156501 62.534855 239.343258 63.004915 239.343258
z
" style="stroke:#000000;stroke-width:0.886227;"/>
    <path clip-path="url(#p23a3625883)" d="M 127.935824 256.623258
C 128.405884 256.623258 128.856755 256.436501 129.189138 256.104119
C 129.521521 255.771736 129.708278 255.320865 129.708278 254.850804
C 129.708278 254.380744 129.521521 253.929873 129.189138 253.59749
C 128.856755 253.265107 128.405884 253.078351 127.935824 253.078351
C 127.465764 253.078351 127.014893 253.265107 126.68251 253.59749
C 126.350127 253.929873 126.16337 254.380744 126.16337 254.850804
C 126.16337 255.320865 126.350127 255.771736 126.68251 256.104119
C 127.014893 256.436501 127.465764 256.623258 127.935824 256.623258
z
" style="stroke:#000000;stroke-width:0.886227;"/>
    <path clip-path="url(#p23a3625883)" d="M 214.510369 118.383258
C 214.98043 118.383258 215.431301 118.196501 215.763683 117.864119
C 216.096066 117.531736 216.282823 117.080865 216.282823 116.610804
C 216.282823 116.140744 216.096066 115.689873 215.763683 115.35749
C 215.431301 115.025107 214.98043 114.838351 214.510369 114.838351
C 214.040309 114.838351 213.589438 115.025107 213.257055 115.35749
C 212.924672 115.689873 212.737915 116.140744 212.737915 116.610804
C 212.737915 117.080865 212.924672 117.531736 213.257055 117.864119
C 213.589438 118.196501 214.040309 118.383258 214.510369 118.383258
z
" style="stroke:#000000;stroke-width:0.886227;"/>
    <path clip-path="url(#p23a3625883)" d="M 200.081278 207.25183
C 200.551339 207.25183 201.00221 207.065073 201.334593 206.73269
C 201.666975 206.400307 201.853732 205.949436 201.853732 205.479376
C 201.853732 205.009316 201.666975 204.558444 201.334593 204.226062
C 201.00221 203.893679 200.551339 203.706922 200.081278 203.706922
C 199.611218 203.706922 199.160347 203.893679 198.827964 204.226062
C 198.495581 204.558444 198.308825 205.009316 198.308825 205.479376
C 198.308825 205.949436 198.495581 206.400307 198.827964 206.73269
C 199.160347 207.065073 199.611218 207.25183 200.081278 207.25183
z
" style="stroke:#000000;stroke-width:0.886227;"/>
    <path clip-path="url(#p23a3625883)" d="M 329.943097 266.497544
C 330.413157 266.497544 330.864028 266.310787 331.196411 265.978404
C 331.528794 265.646021 331.71555 265.19515 331.71555 264.72509
C 331.71555 264.25503 331.528794 263.804159 331.196411 263.471776
C 330.864028 263.139393 330.413157 262.952636 329.943097 262.952636
C 329.473036 262.952636 329.022165 263.139393 328.689782 263.471776
C 328.3574 263.804159 328.170643 264.25503 328.170643 264.72509
C 328.170643 265.19515 328.3574 265.646021 328.689782 265.978404
C 329.022165 266.310787 329.473036 266.497544 329.943097 266.497544
z
" style="stroke:#000000;stroke-width:0.886227;"/>
    <path clip-path="url(#p23a3625883)" d="M 236.154006 239.343258
C 236.624066 239.343258 237.074937 239.156501 237.40732 238.824119
C 237.739703 238.491736 237.92646 238.040865 237.92646 237.570804
C 237.92646 237.100744 237.739703 236.649873 237.40732 236.31749
C 237.074937 235.985107 236.624066 235.798351 236.154006 235.798351
C 235.683945 235.798351 235.233074 235.985107 234.900692 236.31749
C 234.568309 236.649873 234.381552 237.100744 234.381552 237.570804
C 234.381552 238.040865 234.568309 238.491736 234.900692 238.824119
C 235.233074 239.156501 235.683945 239.343258 236.154006 239.343258
z
" style="stroke:#000000;stroke-width:0.886227;"/>
    <path clip-path="url(#p23a3625883)" d="M 63.004915 207.25183
C 63.474975 207.25183 63.925846 207.065073 64.258229 206.73269
C 64.590612 206.400307 64.777369 205.949436 64.777369 205.479376
C 64.777369 205.009316 64.590612 204.558444 64.258229 204.226062
C 63.925846 203.893679 63.474975 203.706922 63.004915 203.706922
C 62.534855 203.706922 62.083983 203.893679 61.751601 204.226062
C 61.419218 204.558444 61.232461 205.009316 61.232461 205.479376
C 61.232461 205.949436 61.419218 206.400307 61.751601 206.73269
C 62.083983 207.065073 62.534855 207.25183 63.004915 207.25183
z
" style="stroke:#000000;stroke-width:0.886227;"/>
    <path clip-path="url(#p23a3625883)" d="M 63.004915 207.25183
C 63.474975 207.25183 63.925846 207.065073 64.258229 206.73269
C 64.590612 206.400307 64.777369 205.949436 64.777369 205.479376
C 64.777369 205.009316 64.590612 204.558444 64.258229 204.226062
C 63.925846 203.893679 63.474975 203.706922 63.004915 203.706922
C 62.534855 203.706922 62.083983 203.893679 61.751601 204.226062
C 61.419218 204.558444 61.232461 205.009316 61.232461 205.479376
C 61.232461 205.949436 61.419218 206.400307 61.751601 206.73269
C 62.083983 207.065073 62.534855 207.25183 63.004915 207.25183
z
" style="stroke:#000000;stroke-width:0.886227;"/>
    <path clip-path="url(#p23a3625883)" d="M 164.008551 207.25183
C 164.478611 207.25183 164.929482 207.065073 165.261865 206.73269
C 165.594248 206.400307 165.781005 205.949436 165.781005 205.479376
C 165.781005 205.009316 165.594248 204.558444 165.261865 204.226062
C 164.929482 203.893679 164.478611 203.706922 164.008551 203.706922
C 163.538491 203.706922 163.08762 203.893679 162.755237 204.226062
C 162.422854 204.558444 162.236097 205.009316 162.236097 205.479376
C 162.236097 205.949436 162.422854 206.400307 162.755237 206.73269
C 163.08762 207.065073 163.538491 207.25183 164.008551 207.25183
z
" style="stroke:#000000;stroke-width:0.886227;"/>
    <path clip-path="url(#p23a3625883)" d="M 308.29946 239.343258
C 308.76952 239.343258 309.220392 239.156501 309.552774 238.824119
C 309.885157 238.491736 310.071914 238.040865 310.071914 237.570804
C 310.071914 237.100744 309.885157 236.649873 309.552774 236.31749
C 309.220392 235.985107 308.76952 235.798351 308.29946 235.798351
C 307.8294 235.798351 307.378529 235.985107 307.046146 236.31749
C 306.713763 236.649873 306.527006 237.100744 306.527006 237.570804
C 306.527006 238.040865 306.713763 238.491736 307.046146 238.824119
C 307.378529 239.156501 307.8294 239.343258 308.29946 239.343258
z
" style="stroke:#000000;stroke-width:0.886227;"/>
    <path clip-path="url(#p23a3625883)" d="M 315.514006 256.623258
C 315.984066 256.623258 316.434937 256.436501 316.76732 256.104119
C 317.099703 255.771736 317.28646 255.320865 317.28646 254.850804
C 317.28646 254.380744 317.099703 253.929873 316.76732 253.59749
C 316.434937 253.265107 315.984066 253.078351 315.514006 253.078351
C 315.043945 253.078351 314.593074 253.265107 314.260692 253.59749
C 313.928309 253.929873 313.741552 254.380744 313.741552 254.850804
C 313.741552 255.320865 313.928309 255.771736 314.260692 256.104119
C 314.593074 256.436501 315.043945 256.623258 315.514006 256.623258
z
" style="stroke:#000000;stroke-width:0.886227;"/>
   </g>
  </g>
  <g id="text_13">
   <!-- GSEA vs ORA pathway ranking -->
   <defs>
    <path d="M 2.984375 54.6875
L 12.5 54.6875
L 29.59375 8.796875
L 46.6875 54.6875
L 56.203125 54.6875
L 35.6875 0
L 23.484375 0
z
" id="DejaVuSans-118"/>
    <path d="M 44.28125 53.078125
L 44.28125 44.578125
Q 40.484375 46.53125 36.375 47.5
Q 32.28125 48.484375 27.875 48.484375
Q 21.1875 48.484375 17.84375 46.4375
Q 14.5 44.390625 14.5 40.28125
Q 14.5 37.15625 16.890625 35.375
Q 19.28125 33.59375 26.515625 31.984375
L 29.59375 31.296875
Q 39.15625 29.25 43.1875 25.515625
Q 47.21875 21.78125 47.21875 15.09375
Q 47.21875 7.46875 41.1875 3.015625
Q 35.15625 -1.421875 24.609375 -1.421875
Q 20.21875 -1.421875 15.453125 -0.5625
Q 10.6875 0.296875 5.421875 2
L 5.421875 11.28125
Q 10.40625 8.6875 15.234375 7.390625
Q 20.0625 6.109375 24.8125 6.109375
Q 31.15625 6.109375 34.5625 8.28125
Q 37.984375 10.453125 37.984375 14.40625
Q 37.984375 18.0625 35.515625 20.015625
Q 33.0625 21.96875 24.703125 23.78125
L 21.578125 24.515625
Q 13.234375 26.265625 9.515625 29.90625
Q 5.8125 33.546875 5.8125 39.890625
Q 5.8125 47.609375 11.28125 51.796875
Q 16.75 56 26.8125 56
Q 31.78125 56 36.171875 55.265625
Q 40.578125 54.546875 44.28125 53.078125
z
" id="DejaVuSans-115"/>
   </defs>
   <g transform="translate(104.415547 11.397656)scale(0.15 -0.15)">
    <use xlink:href="#DejaVuSans-71"/>
    <use x="77.490234" xlink:href="#DejaVuSans-83"/>
    <use x="140.966797" xlink:href="#DejaVuSans-69"/>
    <use x="204.150391" xlink:href="#DejaVuSans-65"/>
    <use x="272.558594" xlink:href="#DejaVuSans-32"/>
    <use x="304.345703" xlink:href="#DejaVuSans-118"/>
    <use x="363.525391" xlink:href="#DejaVuSans-115"/>
    <use x="415.625" xlink:href="#DejaVuSans-32"/>
    <use x="447.412109" xlink:href="#DejaVuSans-79"/>
    <use x="526.123047" xlink:href="#DejaVuSans-82"/>
    <use x="595.542969" xlink:href="#DejaVuSans-65"/>
    <use x="663.951172" xlink:href="#DejaVuSans-32"/>
    <use x="695.738281" xlink:href="#DejaVuSans-112"/>
    <use x="759.214844" xlink:href="#DejaVuSans-97"/>
    <use x="820.494141" xlink:href="#DejaVuSans-116"/>
    <use x="859.703125" xlink:href="#DejaVuSans-104"/>
    <use x="923.082031" xlink:href="#DejaVuSans-119"/>
    <use x="1004.869141" xlink:href="#DejaVuSans-97"/>
    <use x="1066.148438" xlink:href="#DejaVuSans-121"/>
    <use x="1125.328125" xlink:href="#DejaVuSans-32"/>
    <use x="1157.115234" xlink:href="#DejaVuSans-114"/>
    <use x="1198.228516" xlink:href="#DejaVuSans-97"/>
    <use x="1259.507812" xlink:href="#DejaVuSans-110"/>
    <use x="1322.886719" xlink:href="#DejaVuSans-107"/>
    <use x="1380.796875" xlink:href="#DejaVuSans-105"/>
    <use x="1408.580078" xlink:href="#DejaVuSans-110"/>
    <use x="1471.958984" xlink:href="#DejaVuSans-103"/>
   </g>
  </g>
 </g>
 <defs>
  <clipPath id="p23a3625883">
   <rect height="266.112" width="357.12" x="46.772188" y="20.583376"/>
  </clipPath>
 </defs>
</svg>
