<?xml version="1.0" encoding="utf-8" standalone="no"?>
<!DOCTYPE svg PUBLIC "-//W3C//DTD SVG 1.1//EN"
  "http://www.w3.org/Graphics/SVG/1.1/DTD/svg11.dtd">
<!-- Created with matplotlib (https://matplotlib.org/) -->
<svg height="322.176313pt" version="1.1" viewBox="0 0 406.642188 322.176313" width="406.642188pt" xmlns="http://www.w3.org/2000/svg" xmlns:xlink="http://www.w3.org/1999/xlink">
 <defs>
  <style type="text/css">
*{stroke-linecap:butt;stroke-linejoin:round;}
  </style>
 </defs>
 <g id="figure_1">
  <g id="patch_1">
   <path d="M 0 322.176313
L 406.642188 322.176313
L 406.642188 0
L 0 0
z
" style="fill:#ffffff;stroke:#ffffff;stroke-linejoin:miter;"/>
  </g>
  <g id="axes_1">
   <g id="patch_2">
    <path d="M 46.772188 286.695376
L 403.892188 286.695376
L 403.892188 20.583376
L 46.772188 20.583376
z
" style="fill:none;"/>
   </g>
   <g id="matplotlib.axis_1">
    <g id="xtick_1">
     <g id="line2d_1">
      <path clip-path="url(#peaa05a974a)" d="M 63.004915 286.695376
L 63.004915 20.583376
" style="fill:none;stroke:#e5e5e5;stroke-width:0.8;"/>
     </g>
     <g id="line2d_2">
      <path d="M 63.004915 286.695376
" style="fill:none;stroke:#000000;stroke-width:1.5;"/>
      <defs>
       <path d="M 0 0
L 0 2.75
" id="med99c38b49" style="stroke:#000000;"/>
      </defs>
      <g>
       <use style="stroke:#000000;" x="63.004915" xlink:href="#med99c38b49" y="286.695376"/>
      </g>
     </g>
     <g id="text_1">
      <!-- 0 -->
      <defs>
       <path d="M 31.78125 66.40625
Q 24.171875 66.40625 20.328125 58.90625
Q 16.5 51.421875 16.5 36.375
Q 16.5 21.390625 20.328125 13.890625
Q 24.171875 6.390625 31.78125 6.390625
Q 39.453125 6.390625 43.28125 13.890625
Q 47.125 21.390625 47.125 36.375
Q 47.125 51.421875 43.28125 58.90625
Q 39.453125 66.40625 31.78125 66.40625
z
M 31.78125 74.21875
Q 44.046875 74.21875 50.515625 64.515625
Q 56.984375 54.828125 56.984375 36.375
Q 56.984375 17.96875 50.515625 8.265625
Q 44.046875 -1.421875 31.78125 -1.421875
Q 19.53125 -1.421875 13.0625 8.265625
Q 6.59375 17.96875 6.59375 36.375
Q 6.59375 54.828125 13.0625 64.515625
Q 19.53125 74.21875 31.78125 74.21875
z
" id="DejaVuSans-48"/>
      </defs>
      <g style="fill:#4d4d4d;" transform="translate(59.187415 300.763501)scale(0.12 -0.12)">
       <use xlink:href="#DejaVuSans-48"/>
      </g>
     </g>
    </g>
    <g id="xtick_2">
     <g id="line2d_3">
      <path clip-path="url(#peaa05a974a)" d="M 144.168551 286.695376
L 144.168551 20.583376
" style="fill:none;stroke:#e5e5e5;stroke-width:0.8;"/>
     </g>
     <g id="line2d_4">
      <path d="M 144.168551 286.695376
" style="fill:none;stroke:#000000;stroke-width:1.5;"/>
      <g>
       <use style="stroke:#000000;" x="144.168551" xlink:href="#med99c38b49" y="286.695376"/>
      </g>
     </g>
     <g id="text_2">
      <!-- 25 -->
      <defs>
       <path d="M 19.1875 8.296875
L 53.609375 8.296875
L 53.609375 0
L 7.328125 0
L 7.328125 8.296875
Q 12.9375 14.109375 22.625 23.890625
Q 32.328125 33.6875 34.8125 36.53125
Q 39.546875 41.84375 41.421875 45.53125
Q 43.3125 49.21875 43.3125 52.78125
Q 43.3125 58.59375 39.234375 62.25
Q 35.15625 65.921875 28.609375 65.921875
Q 23.96875 65.921875 18.8125 64.3125
Q 13.671875 62.703125 7.8125 59.421875
L 7.8125 69.390625
Q 13.765625 71.78125 18.9375 73
Q 24.125 74.21875 28.421875 74.21875
Q 39.75 74.21875 46.484375 68.546875
Q 53.21875 62.890625 53.21875 53.421875
Q 53.21875 48.921875 51.53125 44.890625
Q 49.859375 40.875 45.40625 35.40625
Q 44.1875 33.984375 37.640625 27.21875
Q 31.109375 20.453125 19.1875 8.296875
z
" id="DejaVuSans-50"/>
       <path d="M 10.796875 72.90625
L 49.515625 72.90625
L 49.515625 64.59375
L 19.828125 64.59375
L 19.828125 46.734375
Q 21.96875 47.46875 24.109375 47.828125
Q 26.265625 48.1875 28.421875 48.1875
Q 40.625 48.1875 47.75 41.5
Q 54.890625 34.8125 54.890625 23.390625
Q 54.890625 11.625 47.5625 5.09375
Q 40.234375 -1.421875 26.90625 -1.421875
Q 22.3125 -1.421875 17.546875 -0.640625
Q 12.796875 0.140625 7.71875 1.703125
L 7.71875 11.625
Q 12.109375 9.234375 16.796875 8.0625
Q 21.484375 6.890625 26.703125 6.890625
Q 35.15625 6.890625 40.078125 11.328125
Q 45.015625 15.765625 45.015625 23.390625
Q 45.015625 31 40.078125 35.4375
Q 35.15625 39.890625 26.703125 39.890625
Q 22.75 39.890625 18.8125 39.015625
Q 14.890625 38.140625 10.796875 36.28125
z
" id="DejaVuSans-53"/>
      </defs>
      <g style="fill:#4d4d4d;" transform="translate(136.533551 300.763501)scale(0.12 -0.12)">
       <use xlink:href="#DejaVuSans-50"/>
       <use x="63.623047" xlink:href="#DejaVuSans-53"/>
      </g>
     </g>
    </g>
    <g id="xtick_3">
     <g id="line2d_5">
      <path clip-path="url(#peaa05a974a)" d="M 225.332188 286.695376
L 225.332188 20.583376
" style="fill:none;stroke:#e5e5e5;stroke-width:0.8;"/>
     </g>
     <g id="line2d_6">
      <path d="M 225.332188 286.695376
" style="fill:none;stroke:#000000;stroke-width:1.5;"/>
      <g>
       <use style="stroke:#000000;" x="225.332188" xlink:href="#med99c38b49" y="286.695376"/>
      </g>
     </g>
     <g id="text_3">
      <!-- 50 -->
      <g style="fill:#4d4d4d;" transform="translate(217.697188 300.763501)scale(0.12 -0.12)">
       <use xlink:href="#DejaVuSans-53"/>
       <use x="63.623047" xlink:href="#DejaVuSans-48"/>
      </g>
     </g>
    </g>
    <g id="xtick_4">
     <g id="line2d_7">
      <path clip-path="url(#peaa05a974a)" d="M 306.495824 286.695376
L 306.495824 20.583376
" style="fill:none;stroke:#e5e5e5;stroke-width:0.8;"/>
     </g>
     <g id="line2d_8">
      <path d="M 306.495824 286.695376
" style="fill:none;stroke:#000000;stroke-width:1.5;"/>
      <g>
       <use style="stroke:#000000;" x="306.495824" xlink:href="#med99c38b49" y="286.695376"/>
      </g>
     </g>
     <g id="text_4">
      <!-- 75 -->
      <defs>
       <path d="M 8.203125 72.90625
L 55.078125 72.90625
L 55.078125 68.703125
L 28.609375 0
L 18.3125 0
L 43.21875 64.59375
L 8.203125 64.59375
z
" id="DejaVuSans-55"/>
      </defs>
      <g style="fill:#4d4d4d;" transform="translate(298.860824 300.763501)scale(0.12 -0.12)">
       <use xlink:href="#DejaVuSans-55"/>
       <use x="63.623047" xlink:href="#DejaVuSans-53"/>
      </g>
     </g>
    </g>
    <g id="xtick_5">
     <g id="line2d_9">
      <path clip-path="url(#peaa05a974a)" d="M 387.65946 286.695376
L 387.65946 20.583376
" style="fill:none;stroke:#e5e5e5;stroke-width:0.8;"/>
     </g>
     <g id="line2d_10">
      <path d="M 387.65946 286.695376
" style="fill:none;stroke:#000000;stroke-width:1.5;"/>
      <g>
       <use style="stroke:#000000;" x="387.65946" xlink:href="#med99c38b49" y="286.695376"/>
      </g>
     </g>
     <g id="text_5">
      <!-- 100 -->
      <defs>
       <path d="M 12.40625 8.296875
L 28.515625 8.296875
L 28.515625 63.921875
L 10.984375 60.40625
L 10.984375 69.390625
L 28.421875 72.90625
L 38.28125 72.90625
L 38.28125 8.296875
L 54.390625 8.296875
L 54.390625 0
L 12.40625 0
z
" id="DejaVuSans-49"/>
      </defs>
      <g style="fill:#4d4d4d;" transform="translate(376.20696 300.763501)scale(0.12 -0.12)">
       <use xlink:href="#DejaVuSans-49"/>
       <use x="63.623047" xlink:href="#DejaVuSans-48"/>
       <use x="127.246094" xlink:href="#DejaVuSans-48"/>
      </g>
     </g>
    </g>
    <g id="xtick_6">
     <g id="line2d_11">
      <path clip-path="url(#peaa05a974a)" d="M 103.586733 286.695376
L 103.586733 20.583376
" style="fill:none;stroke:#fafafa;"/>
     </g>
     <g id="line2d_12">
      <path d="M 103.586733 286.695376
" style="fill:none;stroke:#000000;stroke-width:1.5;"/>
     </g>
    </g>
    <g id="xtick_7">
     <g id="line2d_13">
      <path clip-path="url(#peaa05a974a)" d="M 184.750369 286.695376
L 184.750369 20.583376
" style="fill:none;stroke:#fafafa;"/>
     </g>
     <g id="line2d_14">
      <path d="M 184.750369 286.695376
" style="fill:none;stroke:#000000;stroke-width:1.5;"/>
     </g>
    </g>
    <g id="xtick_8">
     <g id="line2d_15">
      <path clip-path="url(#peaa05a974a)" d="M 265.914006 286.695376
L 265.914006 20.583376
" style="fill:none;stroke:#fafafa;"/>
     </g>
     <g id="line2d_16">
      <path d="M 265.914006 286.695376
" style="fill:none;stroke:#000000;stroke-width:1.5;"/>
     </g>
    </g>
    <g id="xtick_9">
     <g id="line2d_17">
      <path clip-path="url(#peaa05a974a)" d="M 347.077642 286.695376
L 347.077642 20.583376
" style="fill:none;stroke:#fafafa;"/>
     </g>
     <g id="line2d_18">
      <path d="M 347.077642 286.695376
" style="fill:none;stroke:#000000;stroke-width:1.5;"/>
     </g>
    </g>
    <g id="text_6">
     <!-- GSEA pathway ranking -->
     <defs>
      <path d="M 59.515625 10.40625
L 59.515625 29.984375
L 43.40625 29.984375
L 43.40625 38.09375
L 69.28125 38.09375
L 69.28125 6.78125
Q 63.578125 2.734375 56.6875 0.65625
Q 49.8125 -1.421875 42 -1.421875
Q 24.90625 -1.421875 15.25 8.5625
Q 5.609375 18.5625 5.609375 36.375
Q 5.609375 54.25 15.25 64.234375
Q 24.90625 74.21875 42 74.21875
Q 49.125 74.21875 55.546875 72.453125
Q 61.96875 70.703125 67.390625 67.28125
L 67.390625 56.78125
Q 61.921875 61.421875 55.765625 63.765625
Q 49.609375 66.109375 42.828125 66.109375
Q 29.4375 66.109375 22.71875 58.640625
Q 16.015625 51.171875 16.015625 36.375
Q 16.015625 21.625 22.71875 14.15625
Q 29.4375 6.6875 42.828125 6.6875
Q 48.046875 6.6875 52.140625 7.59375
Q 56.25 8.5 59.515625 10.40625
z
" id="DejaVuSans-71"/>
      <path d="M 53.515625 70.515625
L 53.515625 60.890625
Q 47.90625 63.578125 42.921875 64.890625
Q 37.9375 66.21875 33.296875 66.21875
Q 25.25 66.21875 20.875 63.09375
Q 16.5 59.96875 16.5 54.203125
Q 16.5 49.359375 19.40625 46.890625
Q 22.3125 44.4375 30.421875 42.921875
L 36.375 41.703125
Q 47.40625 39.59375 52.65625 34.296875
Q 57.90625 29 57.90625 20.125
Q 57.90625 9.515625 50.796875 4.046875
Q 43.703125 -1.421875 29.984375 -1.421875
Q 24.8125 -1.421875 18.96875 -0.25
Q 13.140625 0.921875 6.890625 3.21875
L 6.890625 13.375
Q 12.890625 10.015625 18.65625 8.296875
Q 24.421875 6.59375 29.984375 6.59375
Q 38.421875 6.59375 43.015625 9.90625
Q 47.609375 13.234375 47.609375 19.390625
Q 47.609375 24.75 44.3125 27.78125
Q 41.015625 30.8125 33.5 32.328125
L 27.484375 33.5
Q 16.453125 35.6875 11.515625 40.375
Q 6.59375 45.0625 6.59375 53.421875
Q 6.59375 63.09375 13.40625 68.65625
Q 20.21875 74.21875 32.171875 74.21875
Q 37.3125 74.21875 42.625 73.28125
Q 47.953125 72.359375 53.515625 70.515625
z
" id="DejaVuSans-83"/>
      <path d="M 9.8125 72.90625
L 55.90625 72.90625
L 55.90625 64.59375
L 19.671875 64.59375
L 19.671875 43.015625
L 54.390625 43.015625
L 54.390625 34.71875
L 19.671875 34.71875
L 19.671875 8.296875
L 56.78125 8.296875
L 56.78125 0
L 9.8125 0
z
" id="DejaVuSans-69"/>
      <path d="M 34.1875 63.1875
L 20.796875 26.90625
L 47.609375 26.90625
z
M 28.609375 72.90625
L 39.796875 72.90625
L 67.578125 0
L 57.328125 0
L 50.6875 18.703125
L 17.828125 18.703125
L 11.1875 0
L 0.78125 0
z
" id="DejaVuSans-65"/>
      <path id="DejaVuSans-32"/>
      <path d="M 18.109375 8.203125
L 18.109375 -20.796875
L 9.078125 -20.796875
L 9.078125 54.6875
L 18.109375 54.6875
L 18.109375 46.390625
Q 20.953125 51.265625 25.265625 53.625
Q 29.59375 56 35.59375 56
Q 45.5625 56 51.78125 48.09375
Q 58.015625 40.1875 58.015625 27.296875
Q 58.015625 14.40625 51.78125 6.484375
Q 45.5625 -1.421875 35.59375 -1.421875
Q 29.59375 -1.421875 25.265625 0.953125
Q 20.953125 3.328125 18.109375 8.203125
z
M 48.6875 27.296875
Q 48.6875 37.203125 44.609375 42.84375
Q 40.53125 48.484375 33.40625 48.484375
Q 26.265625 48.484375 22.1875 42.84375
Q 18.109375 37.203125 18.109375 27.296875
Q 18.109375 17.390625 22.1875 11.75
Q 26.265625 6.109375 33.40625 6.109375
Q 40.53125 6.109375 44.609375 11.75
Q 48.6875 17.390625 48.6875 27.296875
z
" id="DejaVuSans-112"/>
      <path d="M 34.28125 27.484375
Q 23.390625 27.484375 19.1875 25
Q 14.984375 22.515625 14.984375 16.5
Q 14.984375 11.71875 18.140625 8.90625
Q 21.296875 6.109375 26.703125 6.109375
Q 34.1875 6.109375 38.703125 11.40625
Q 43.21875 16.703125 43.21875 25.484375
L 43.21875 27.484375
z
M 52.203125 31.203125
L 52.203125 0
L 43.21875 0
L 43.21875 8.296875
Q 40.140625 3.328125 35.546875 0.953125
Q 30.953125 -1.421875 24.3125 -1.421875
Q 15.921875 -1.421875 10.953125 3.296875
Q 6 8.015625 6 15.921875
Q 6 25.140625 12.171875 29.828125
Q 18.359375 34.515625 30.609375 34.515625
L 43.21875 34.515625
L 43.21875 35.40625
Q 43.21875 41.609375 39.140625 45
Q 35.0625 48.390625 27.6875 48.390625
Q 23 48.390625 18.546875 47.265625
Q 14.109375 46.140625 10.015625 43.890625
L 10.015625 52.203125
Q 14.9375 54.109375 19.578125 55.046875
Q 24.21875 56 28.609375 56
Q 40.484375 56 46.34375 49.84375
Q 52.203125 43.703125 52.203125 31.203125
z
" id="DejaVuSans-97"/>
      <path d="M 18.3125 70.21875
L 18.3125 54.6875
L 36.8125 54.6875
L 36.8125 47.703125
L 18.3125 47.703125
L 18.3125 18.015625
Q 18.3125 11.328125 20.140625 9.421875
Q 21.96875 7.515625 27.59375 7.515625
L 36.8125 7.515625
L 36.8125 0
L 27.59375 0
Q 17.1875 0 13.234375 3.875
Q 9.28125 7.765625 9.28125 18.015625
L 9.28125 47.703125
L 2.6875 47.703125
L 2.6875 54.6875
L 9.28125 54.6875
L 9.28125 70.21875
z
" id="DejaVuSans-116"/>
      <path d="M 54.890625 33.015625
L 54.890625 0
L 45.90625 0
L 45.90625 32.71875
Q 45.90625 40.484375 42.875 44.328125
Q 39.84375 48.1875 33.796875 48.1875
Q 26.515625 48.1875 22.3125 43.546875
Q 18.109375 38.921875 18.109375 30.90625
L 18.109375 0
L 9.078125 0
L 9.078125 75.984375
L 18.109375 75.984375
L 18.109375 46.1875
Q 21.34375 51.125 25.703125 53.5625
Q 30.078125 56 35.796875 56
Q 45.21875 56 50.046875 50.171875
Q 54.890625 44.34375 54.890625 33.015625
z
" id="DejaVuSans-104"/>
      <path d="M 4.203125 54.6875
L 13.1875 54.6875
L 24.421875 12.015625
L 35.59375 54.6875
L 46.1875 54.6875
L 57.421875 12.015625
L 68.609375 54.6875
L 77.59375 54.6875
L 63.28125 0
L 52.6875 0
L 40.921875 44.828125
L 29.109375 0
L 18.5 0
z
" id="DejaVuSans-119"/>
      <path d="M 32.171875 -5.078125
Q 28.375 -14.84375 24.75 -17.8125
Q 21.140625 -20.796875 15.09375 -20.796875
L 7.90625 -20.796875
L 7.90625 -13.28125
L 13.1875 -13.28125
Q 16.890625 -13.28125 18.9375 -11.515625
Q 21 -9.765625 23.484375 -3.21875
L 25.09375 0.875
L 2.984375 54.6875
L 12.5 54.6875
L 29.59375 11.921875
L 46.6875 54.6875
L 56.203125 54.6875
z
" id="DejaVuSans-121"/>
      <path d="M 41.109375 46.296875
Q 39.59375 47.171875 37.8125 47.578125
Q 36.03125 48 33.890625 48
Q 26.265625 48 22.1875 43.046875
Q 18.109375 38.09375 18.109375 28.8125
L 18.109375 0
L 9.078125 0
L 9.078125 54.6875
L 18.109375 54.6875
L 18.109375 46.1875
Q 20.953125 51.171875 25.484375 53.578125
Q 30.03125 56 36.53125 56
Q 37.453125 56 38.578125 55.875
Q 39.703125 55.765625 41.0625 55.515625
z
" id="DejaVuSans-114"/>
      <path d="M 54.890625 33.015625
L 54.890625 0
L 45.90625 0
L 45.90625 32.71875
Q 45.90625 40.484375 42.875 44.328125
Q 39.84375 48.1875 33.796875 48.1875
Q 26.515625 48.1875 22.3125 43.546875
Q 18.109375 38.921875 18.109375 30.90625
L 18.109375 0
L 9.078125 0
L 9.078125 54.6875
L 18.109375 54.6875
L 18.109375 46.1875
Q 21.34375 51.125 25.703125 53.5625
Q 30.078125 56 35.796875 56
Q 45.21875 56 50.046875 50.171875
Q 54.890625 44.34375 54.890625 33.015625
z
" id="DejaVuSans-110"/>
      <path d="M 9.078125 75.984375
L 18.109375 75.984375
L 18.109375 31.109375
L 44.921875 54.6875
L 56.390625 54.6875
L 27.390625 29.109375
L 57.625 0
L 45.90625 0
L 18.109375 26.703125
L 18.109375 0
L 9.078125 0
z
" id="DejaVuSans-107"/>
      <path d="M 9.421875 54.6875
L 18.40625 54.6875
L 18.40625 0
L 9.421875 0
z
M 9.421875 75.984375
L 18.40625 75.984375
L 18.40625 64.59375
L 9.421875 64.59375
z
" id="DejaVuSans-105"/>
      <path d="M 45.40625 27.984375
Q 45.40625 37.75 41.375 43.109375
Q 37.359375 48.484375 30.078125 48.484375
Q 22.859375 48.484375 18.828125 43.109375
Q 14.796875 37.75 14.796875 27.984375
Q 14.796875 18.265625 18.828125 12.890625
Q 22.859375 7.515625 30.078125 7.515625
Q 37.359375 7.515625 41.375 12.890625
Q 45.40625 18.265625 45.40625 27.984375
z
M 54.390625 6.78125
Q 54.390625 -7.171875 48.1875 -13.984375
Q 42 -20.796875 29.203125 -20.796875
Q 24.46875 -20.796875 20.265625 -20.09375
Q 16.0625 -19.390625 12.109375 -17.921875
L 12.109375 -9.1875
Q 16.0625 -11.328125 19.921875 -12.34375
Q 23.78125 -13.375 27.78125 -13.375
Q 36.625 -13.375 41.015625 -8.765625
Q 45.40625 -4.15625 45.40625 5.171875
L 45.40625 9.625
Q 42.625 4.78125 38.28125 2.390625
Q 33.9375 0 27.875 0
Q 17.828125 0 11.671875 7.65625
Q 5.515625 15.328125 5.515625 27.984375
Q 5.515625 40.671875 11.671875 48.328125
Q 17.828125 56 27.875 56
Q 33.9375 56 38.28125 53.609375
Q 42.625 51.21875 45.40625 46.390625
L 45.40625 54.6875
L 54.390625 54.6875
z
" id="DejaVuSans-103"/>
     </defs>
     <g transform="translate(133.769844 319.056782)scale(0.15 -0.15)">
      <use xlink:href="#DejaVuSans-71"/>
      <use x="77.490234" xlink:href="#DejaVuSans-83"/>
      <use x="140.966797" xlink:href="#DejaVuSans-69"/>
      <use x="204.150391" xlink:href="#DejaVuSans-65"/>
      <use x="272.558594" xlink:href="#DejaVuSans-32"/>
      <use x="304.345703" xlink:href="#DejaVuSans-112"/>
      <use x="367.822266" xlink:href="#DejaVuSans-97"/>
      <use x="429.101562" xlink:href="#DejaVuSans-116"/>
      <use x="468.310547" xlink:href="#DejaVuSans-104"/>
      <use x="531.689453" xlink:href="#DejaVuSans-119"/>
      <use x="613.476562" xlink:href="#DejaVuSans-97"/>
      <use x="674.755859" xlink:href="#DejaVuSans-121"/>
      <use x="733.935547" xlink:href="#DejaVuSans-32"/>
      <use x="765.722656" xlink:href="#DejaVuSans-114"/>
      <use x="806.835938" xlink:href="#DejaVuSans-97"/>
      <use x="868.115234" xlink:href="#DejaVuSans-110"/>
      <use x="931.494141" xlink:href="#DejaVuSans-107"/>
      <use x="989.404297" xlink:href="#DejaVuSans-105"/>
      <use x="1017.1875" xlink:href="#DejaVuSans-110"/>
      <use x="1080.566406" xlink:href="#DejaVuSans-103"/>
     </g>
    </g>
   </g>
   <g id="matplotlib.axis_2">
    <g id="ytick_1">
     <g id="line2d_19">
      <path clip-path="url(#peaa05a974a)" d="M 46.772188 274.599376
L 403.892188 274.599376
" style="fill:none;stroke:#e5e5e5;stroke-width:0.8;"/>
     </g>
     <g id="line2d_20">
      <path d="M 46.772188 274.599376
" style="fill:none;stroke:#000000;stroke-width:1.5;"/>
      <defs>
       <path d="M 0 0
L -2.75 0
" id="m2e45835375" style="stroke:#000000;"/>
      </defs>
      <g>
       <use style="stroke:#000000;" x="46.772188" xlink:href="#m2e45835375" y="274.599376"/>
      </g>
     </g>
     <g id="text_7">
      <!-- 0 -->
      <g style="fill:#4d4d4d;" transform="translate(34.187188 277.910626)scale(0.12 -0.12)">
       <use xlink:href="#DejaVuSans-48"/>
      </g>
     </g>
    </g>
    <g id="ytick_2">
     <g id="line2d_21">
      <path clip-path="url(#peaa05a974a)" d="M 46.772188 214.119376
L 403.892188 214.119376
" style="fill:none;stroke:#e5e5e5;stroke-width:0.8;"/>
     </g>
     <g id="line2d_22">
      <path d="M 46.772188 214.119376
" style="fill:none;stroke:#000000;stroke-width:1.5;"/>
      <g>
       <use style="stroke:#000000;" x="46.772188" xlink:href="#m2e45835375" y="214.119376"/>
      </g>
     </g>
     <g id="text_8">
      <!-- 25 -->
      <g style="fill:#4d4d4d;" transform="translate(26.552188 217.430626)scale(0.12 -0.12)">
       <use xlink:href="#DejaVuSans-50"/>
       <use x="63.623047" xlink:href="#DejaVuSans-53"/>
      </g>
     </g>
    </g>
    <g id="ytick_3">
     <g id="line2d_23">
      <path clip-path="url(#peaa05a974a)" d="M 46.772188 153.639376
L 403.892188 153.639376
" style="fill:none;stroke:#e5e5e5;stroke-width:0.8;"/>
     </g>
     <g id="line2d_24">
      <path d="M 46.772188 153.639376
" style="fill:none;stroke:#000000;stroke-width:1.5;"/>
      <g>
       <use style="stroke:#000000;" x="46.772188" xlink:href="#m2e45835375" y="153.639376"/>
      </g>
     </g>
     <g id="text_9">
      <!-- 50 -->
      <g style="fill:#4d4d4d;" transform="translate(26.552188 156.950626)scale(0.12 -0.12)">
       <use xlink:href="#DejaVuSans-53"/>
       <use x="63.623047" xlink:href="#DejaVuSans-48"/>
      </g>
     </g>
    </g>
    <g id="ytick_4">
     <g id="line2d_25">
      <path clip-path="url(#peaa05a974a)" d="M 46.772188 93.159376
L 403.892188 93.159376
" style="fill:none;stroke:#e5e5e5;stroke-width:0.8;"/>
     </g>
     <g id="line2d_26">
      <path d="M 46.772188 93.159376
" style="fill:none;stroke:#000000;stroke-width:1.5;"/>
      <g>
       <use style="stroke:#000000;" x="46.772188" xlink:href="#m2e45835375" y="93.159376"/>
      </g>
     </g>
     <g id="text_10">
      <!-- 75 -->
      <g style="fill:#4d4d4d;" transform="translate(26.552188 96.470626)scale(0.12 -0.12)">
       <use xlink:href="#DejaVuSans-55"/>
       <use x="63.623047" xlink:href="#DejaVuSans-53"/>
      </g>
     </g>
    </g>
    <g id="ytick_5">
     <g id="line2d_27">
      <path clip-path="url(#peaa05a974a)" d="M 46.772188 32.679376
L 403.892188 32.679376
" style="fill:none;stroke:#e5e5e5;stroke-width:0.8;"/>
     </g>
     <g id="line2d_28">
      <path d="M 46.772188 32.679376
" style="fill:none;stroke:#000000;stroke-width:1.5;"/>
      <g>
       <use style="stroke:#000000;" x="46.772188" xlink:href="#m2e45835375" y="32.679376"/>
      </g>
     </g>
     <g id="text_11">
      <!-- 100 -->
      <g style="fill:#4d4d4d;" transform="translate(18.917188 35.990626)scale(0.12 -0.12)">
       <use xlink:href="#DejaVuSans-49"/>
       <use x="63.623047" xlink:href="#DejaVuSans-48"/>
       <use x="127.246094" xlink:href="#DejaVuSans-48"/>
      </g>
     </g>
    </g>
    <g id="ytick_6">
     <g id="line2d_29">
      <path clip-path="url(#peaa05a974a)" d="M 46.772188 244.359376
L 403.892188 244.359376
" style="fill:none;stroke:#fafafa;"/>
     </g>
     <g id="line2d_30">
      <path d="M 46.772188 244.359376
" style="fill:none;stroke:#000000;stroke-width:1.5;"/>
     </g>
    </g>
    <g id="ytick_7">
     <g id="line2d_31">
      <path clip-path="url(#peaa05a974a)" d="M 46.772188 183.879376
L 403.892188 183.879376
" style="fill:none;stroke:#fafafa;"/>
     </g>
     <g id="line2d_32">
      <path d="M 46.772188 183.879376
" style="fill:none;stroke:#000000;stroke-width:1.5;"/>
     </g>
    </g>
    <g id="ytick_8">
     <g id="line2d_33">
      <path clip-path="url(#peaa05a974a)" d="M 46.772188 123.399376
L 403.892188 123.399376
" style="fill:none;stroke:#fafafa;"/>
     </g>
     <g id="line2d_34">
      <path d="M 46.772188 123.399376
" style="fill:none;stroke:#000000;stroke-width:1.5;"/>
     </g>
    </g>
    <g id="ytick_9">
     <g id="line2d_35">
      <path clip-path="url(#peaa05a974a)" d="M 46.772188 62.919376
L 403.892188 62.919376
" style="fill:none;stroke:#fafafa;"/>
     </g>
     <g id="line2d_36">
      <path d="M 46.772188 62.919376
" style="fill:none;stroke:#000000;stroke-width:1.5;"/>
     </g>
    </g>
    <g id="text_12">
     <!-- ORA pathway ranking -->
     <defs>
      <path d="M 39.40625 66.21875
Q 28.65625 66.21875 22.328125 58.203125
Q 16.015625 50.203125 16.015625 36.375
Q 16.015625 22.609375 22.328125 14.59375
Q 28.65625 6.59375 39.40625 6.59375
Q 50.140625 6.59375 56.421875 14.59375
Q 62.703125 22.609375 62.703125 36.375
Q 62.703125 50.203125 56.421875 58.203125
Q 50.140625 66.21875 39.40625 66.21875
z
M 39.40625 74.21875
Q 54.734375 74.21875 63.90625 63.9375
Q 73.09375 53.65625 73.09375 36.375
Q 73.09375 19.140625 63.90625 8.859375
Q 54.734375 -1.421875 39.40625 -1.421875
Q 24.03125 -1.421875 14.8125 8.828125
Q 5.609375 19.09375 5.609375 36.375
Q 5.609375 53.65625 14.8125 63.9375
Q 24.03125 74.21875 39.40625 74.21875
z
" id="DejaVuSans-79"/>
      <path d="M 44.390625 34.1875
Q 47.5625 33.109375 50.5625 29.59375
Q 53.5625 26.078125 56.59375 19.921875
L 66.609375 0
L 56 0
L 46.6875 18.703125
Q 43.0625 26.03125 39.671875 28.421875
Q 36.28125 30.8125 30.421875 30.8125
L 19.671875 30.8125
L 19.671875 0
L 9.8125 0
L 9.8125 72.90625
L 32.078125 72.90625
Q 44.578125 72.90625 50.734375 67.671875
Q 56.890625 62.453125 56.890625 51.90625
Q 56.890625 45.015625 53.6875 40.46875
Q 50.484375 35.9375 44.390625 34.1875
z
M 19.671875 64.796875
L 19.671875 38.921875
L 32.078125 38.921875
Q 39.203125 38.921875 42.84375 42.21875
Q 46.484375 45.515625 46.484375 51.90625
Q 46.484375 58.296875 42.84375 61.546875
Q 39.203125 64.796875 32.078125 64.796875
z
" id="DejaVuSans-82"/>
     </defs>
     <g transform="translate(11.397656 233.512548)rotate(-90)scale(0.15 -0.15)">
      <use xlink:href="#DejaVuSans-79"/>
      <use x="78.710938" xlink:href="#DejaVuSans-82"/>
      <use x="148.130859" xlink:href="#DejaVuSans-65"/>
      <use x="216.539062" xlink:href="#DejaVuSans-32"/>
      <use x="248.326172" xlink:href="#DejaVuSans-112"/>
      <use x="311.802734" xlink:href="#DejaVuSans-97"/>
      <use x="373.082031" xlink:href="#DejaVuSans-116"/>
      <use x="412.291016" xlink:href="#DejaVuSans-104"/>
      <use x="475.669922" xlink:href="#DejaVuSans-119"/>
      <use x="557.457031" xlink:href="#DejaVuSans-97"/>
      <use x="618.736328" xlink:href="#DejaVuSans-121"/>
      <use x="677.916016" xlink:href="#DejaVuSans-32"/>
      <use x="709.703125" xlink:href="#DejaVuSans-114"/>
      <use x="750.816406" xlink:href="#DejaVuSans-97"/>
      <use x="812.095703" xlink:href="#DejaVuSans-110"/>
      <use x="875.474609" xlink:href="#DejaVuSans-107"/>
      <use x="933.384766" xlink:href="#DejaVuSans-105"/>
      <use x="961.167969" xlink:href="#DejaVuSans-110"/>
      <use x="1024.546875" xlink:href="#DejaVuSans-103"/>
     </g>
    </g>
   </g>
   <g id="PathCollection_1">
    <path clip-path="url(#peaa05a974a)" d="M 150.552208 180.097544
C 151.022268 180.097544 151.473139 179.910787 151.805522 179.578404
C 152.137905 179.246021 152.324662 178.79515 152.324662 178.32509
C 152.324662 177.85503 152.137905 177.404159 151.805522 177.071776
C 151.473139 176.739393 151.022268 176.552636 150.552208 176.552636
C 150.082148 176.552636 149.631277 176.739393 149.298894 177.071776
C 148.966511 177.404159 148.779754 177.85503 148.779754 178.32509
C 148.779754 178.79515 148.966511 179.246021 149.298894 179.578404
C 149.631277 179.910787 150.082148 180.097544 150.552208 180.097544
z
" style="stroke:#000000;stroke-width:0.886227;"/>
    <path clip-path="url(#peaa05a974a)" d="M 63.004915 239.343258
C 63.474975 239.343258 63.925846 239.156501 64.258229 238.824119
C 64.590612 238.491736 64.777369 238.040865 64.777369 237.570804
C 64.777369 237.100744 64.590612 236.649873 64.258229 236.31749
C 63.925846 235.985107 63.474975 235.798351 63.004915 235.798351
C 62.534855 235.798351 62.083983 235.985107 61.751601 236.31749
C 61.419218 236.649873 61.232461 237.100744 61.232461 237.570804
C 61.232461 238.040865 61.419218 238.491736 61.751601 238.824119
C 62.083983 239.156501 62.534855 239.343258 63.004915 239.343258
z
" style="stroke:#000000;stroke-width:0.886227;"/>
    <path clip-path="url(#peaa05a974a)" d="M 150.552208 271.434687
C 151.022268 271.434687 151.473139 271.24793 151.805522 270.915547
C 152.137905 270.583164 152.324662 270.132293 152.324662 269.662233
C 152.324662 269.192173 152.137905 268.741302 151.805522 268.408919
C 151.473139 268.076536 151.022268 267.889779 150.552208 267.889779
C 150.082148 267.889779 149.631277 268.076536 149.298894 268.408919
C 148.966511 268.741302 148.779754 269.192173 148.779754 269.662233
C 148.779754 270.132293 148.966511 270.583164 149.298894 270.915547
C 149.631277 271.24793 150.082148 271.434687 150.552208 271.434687
z
" style="stroke:#000000;stroke-width:0.886227;"/>
    <path clip-path="url(#peaa05a974a)" d="M 300.112167 69.01183
C 300.582227 69.01183 301.033098 68.825073 301.365481 68.49269
C 301.697864 68.160307 301.884621 67.709436 301.884621 67.239376
C 301.884621 66.769316 301.697864 66.318444 301.365481 65.986062
C 301.033098 65.653679 300.582227 65.466922 300.112167 65.466922
C 299.642107 65.466922 299.191236 65.653679 298.858853 65.986062
C 298.52647 66.318444 298.339713 66.769316 298.339713 67.239376
C 298.339713 67.709436 298.52647 68.160307 298.858853 68.49269
C 299.191236 68.825073 299.642107 69.01183 300.112167 69.01183
z
" style="stroke:#000000;stroke-width:0.886227;"/>
    <path clip-path="url(#peaa05a974a)" d="M 63.004915 78.886115
C 63.474975 78.886115 63.925846 78.699358 64.258229 78.366976
C 64.590612 78.034593 64.777369 77.583722 64.777369 77.113662
C 64.777369 76.643601 64.590612 76.19273 64.258229 75.860347
C 63.925846 75.527965 63.474975 75.341208 63.004915 75.341208
C 62.534855 75.341208 62.083983 75.527965 61.751601 75.860347
C 61.419218 76.19273 61.232461 76.643601 61.232461 77.113662
C 61.232461 77.583722 61.419218 78.034593 61.751601 78.366976
C 62.083983 78.699358 62.534855 78.886115 63.004915 78.886115
z
" style="stroke:#000000;stroke-width:0.886227;"/>
    <path clip-path="url(#peaa05a974a)" d="M 132.313189 103.57183
C 132.783249 103.57183 133.23412 103.385073 133.566503 103.05269
C 133.898885 102.720307 134.085642 102.269436 134.085642 101.799376
C 134.085642 101.329316 133.898885 100.878444 133.566503 100.546062
C 133.23412 100.213679 132.783249 100.026922 132.313189 100.026922
C 131.843128 100.026922 131.392257 100.213679 131.059874 100.546062
C 130.727492 100.878444 130.540735 101.329316 130.540735 101.799376
C 130.540735 102.269436 130.727492 102.720307 131.059874 103.05269
C 131.392257 103.385073 131.843128 103.57183 132.313189 103.57183
z
" style="stroke:#000000;stroke-width:0.886227;"/>
    <path clip-path="url(#peaa05a974a)" d="M 63.004915 123.320401
C 63.474975 123.320401 63.925846 123.133644 64.258229 122.801261
C 64.590612 122.468879 64.777369 122.018008 64.777369 121.547947
C 64.777369 121.077887 64.590612 120.627016 64.258229 120.294633
C 63.925846 119.96225 63.474975 119.775493 63.004915 119.775493
C 62.534855 119.775493 62.083983 119.96225 61.751601 120.294633
C 61.419218 120.627016 61.232461 121.077887 61.232461 121.547947
C 61.232461 122.018008 61.419218 122.468879 61.751601 122.801261
C 62.083983 123.133644 62.534855 123.320401 63.004915 123.320401
z
" style="stroke:#000000;stroke-width:0.886227;"/>
    <path clip-path="url(#peaa05a974a)" d="M 63.004915 150.474687
C 63.474975 150.474687 63.925846 150.28793 64.258229 149.955547
C 64.590612 149.623164 64.777369 149.172293 64.777369 148.702233
C 64.777369 148.232173 64.590612 147.781302 64.258229 147.448919
C 63.925846 147.116536 63.474975 146.929779 63.004915 146.929779
C 62.534855 146.929779 62.083983 147.116536 61.751601 147.448919
C 61.419218 147.781302 61.232461 148.232173 61.232461 148.702233
C 61.232461 149.172293 61.419218 149.623164 61.751601 149.955547
C 62.083983 150.28793 62.534855 150.474687 63.004915 150.474687
z
" style="stroke:#000000;stroke-width:0.886227;"/>
    <path clip-path="url(#peaa05a974a)" d="M 117.721973 162.817544
C 118.192033 162.817544 118.642904 162.630787 118.975287 162.298404
C 119.30767 161.966021 119.494427 161.51515 119.494427 161.04509
C 119.494427 160.57503 119.30767 160.124159 118.975287 159.791776
C 118.642904 159.459393 118.192033 159.272636 117.721973 159.272636
C 117.251913 159.272636 116.801042 159.459393 116.468659 159.791776
C 116.136276 160.124159 115.949519 160.57503 115.949519 161.04509
C 115.949519 161.51515 116.136276 161.966021 116.468659 162.298404
C 116.801042 162.630787 117.251913 162.817544 117.721973 162.817544
z
" style="stroke:#000000;stroke-width:0.886227;"/>
    <path clip-path="url(#peaa05a974a)" d="M 387.65946 34.45183
C 388.12952 34.45183 388.580392 34.265073 388.912774 33.93269
C 389.245157 33.600307 389.431914 33.149436 389.431914 32.679376
C 389.431914 32.209316 389.245157 31.758444 388.912774 31.426062
C 388.580392 31.093679 388.12952 30.906922 387.65946 30.906922
C 387.1894 30.906922 386.738529 31.093679 386.406146 31.426062
C 386.073763 31.758444 385.887006 32.209316 385.887006 32.679376
C 385.887006 33.149436 386.073763 33.600307 386.406146 33.93269
C 386.738529 34.265073 387.1894 34.45183 387.65946 34.45183
z
" style="stroke:#000000;stroke-width:0.886227;"/>
    <path clip-path="url(#peaa05a974a)" d="M 205.269266 150.474687
C 205.739326 150.474687 206.190197 150.28793 206.52258 149.955547
C 206.854963 149.623164 207.04172 149.172293 207.04172 148.702233
C 207.04172 148.232173 206.854963 147.781302 206.52258 147.448919
C 206.190197 147.116536 205.739326 146.929779 205.269266 146.929779
C 204.799206 146.929779 204.348335 147.116536 204.015952 147.448919
C 203.683569 147.781302 203.496812 148.232173 203.496812 148.702233
C 203.496812 149.172293 203.683569 149.623164 204.015952 149.955547
C 204.348335 150.28793 204.799206 150.474687 205.269266 150.474687
z
" style="stroke:#000000;stroke-width:0.886227;"/>
    <path clip-path="url(#peaa05a974a)" d="M 278.225344 93.697544
C 278.695404 93.697544 279.146275 93.510787 279.478658 93.178404
C 279.811041 92.846021 279.997798 92.39515 279.997798 91.92509
C 279.997798 91.45503 279.811041 91.004159 279.478658 90.671776
C 279.146275 90.339393 278.695404 90.152636 278.225344 90.152636
C 277.755284 90.152636 277.304412 90.339393 276.97203 90.671776
C 276.639647 91.004159 276.45289 91.45503 276.45289 91.92509
C 276.45289 92.39515 276.639647 92.846021 276.97203 93.178404
C 277.304412 93.510787 277.755284 93.697544 278.225344 93.697544
z
" style="stroke:#000000;stroke-width:0.886227;"/>
    <path clip-path="url(#peaa05a974a)" d="M 373.068245 49.263258
C 373.538305 49.263258 373.989176 49.076501 374.321559 48.744119
C 374.653942 48.411736 374.840699 47.960865 374.840699 47.490804
C 374.840699 47.020744 374.653942 46.569873 374.321559 46.23749
C 373.989176 45.905107 373.538305 45.718351 373.068245 45.718351
C 372.598184 45.718351 372.147313 45.905107 371.814931 46.23749
C 371.482548 46.569873 371.295791 47.020744 371.295791 47.490804
C 371.295791 47.960865 371.482548 48.411736 371.814931 48.744119
C 372.147313 49.076501 372.598184 49.263258 373.068245 49.263258
z
" style="stroke:#000000;stroke-width:0.886227;"/>
    <path clip-path="url(#peaa05a974a)" d="M 125.017581 157.880401
C 125.487641 157.880401 125.938512 157.693644 126.270895 157.361261
C 126.603278 157.028879 126.790035 156.578008 126.790035 156.107947
C 126.790035 155.637887 126.603278 155.187016 126.270895 154.854633
C 125.938512 154.52225 125.487641 154.335493 125.017581 154.335493
C 124.547521 154.335493 124.096649 154.52225 123.764267 154.854633
C 123.431884 155.187016 123.245127 155.637887 123.245127 156.107947
C 123.245127 156.578008 123.431884 157.028879 123.764267 157.361261
C 124.096649 157.693644 124.547521 157.880401 125.017581 157.880401
z
" style="stroke:#000000;stroke-width:0.886227;"/>
    <path clip-path="url(#peaa05a974a)" d="M 63.004915 170.223258
C 63.474975 170.223258 63.925846 170.036501 64.258229 169.704119
C 64.590612 169.371736 64.777369 168.920865 64.777369 168.450804
C 64.777369 167.980744 64.590612 167.529873 64.258229 167.19749
C 63.925846 166.865107 63.474975 166.678351 63.004915 166.678351
C 62.534855 166.678351 62.083983 166.865107 61.751601 167.19749
C 61.419218 167.529873 61.232461 167.980744 61.232461 168.450804
C 61.232461 168.920865 61.419218 169.371736 61.751601 169.704119
C 62.083983 170.036501 62.534855 170.223258 63.004915 170.223258
z
" style="stroke:#000000;stroke-width:0.886227;"/>
    <path clip-path="url(#peaa05a974a)" d="M 380.363852 39.388973
C 380.833913 39.388973 381.284784 39.202216 381.617167 38.869833
C 381.949549 38.53745 382.136306 38.086579 382.136306 37.616519
C 382.136306 37.146458 381.949549 36.695587 381.617167 36.363205
C 381.284784 36.030822 380.833913 35.844065 380.363852 35.844065
C 379.893792 35.844065 379.442921 36.030822 379.110538 36.363205
C 378.778156 36.695587 378.591399 37.146458 378.591399 37.616519
C 378.591399 38.086579 378.778156 38.53745 379.110538 38.869833
C 379.442921 39.202216 379.893792 39.388973 380.363852 39.388973
z
" style="stroke:#000000;stroke-width:0.886227;"/>
    <path clip-path="url(#peaa05a974a)" d="M 63.004915 138.13183
C 63.474975 138.13183 63.925846 137.945073 64.258229 137.61269
C 64.590612 137.280307 64.777369 136.829436 64.777369 136.359376
C 64.777369 135.889316 64.590612 135.438444 64.258229 135.106062
C 63.925846 134.773679 63.474975 134.586922 63.004915 134.586922
C 62.534855 134.586922 62.083983 134.773679 61.751601 135.106062
C 61.419218 135.438444 61.232461 135.889316 61.232461 136.359376
C 61.232461 136.829436 61.419218 137.280307 61.751601 137.61269
C 62.083983 137.945073 62.534855 138.13183 63.004915 138.13183
z
" style="stroke:#000000;stroke-width:0.886227;"/>
    <path clip-path="url(#peaa05a974a)" d="M 139.608796 256.623258
C 140.078857 256.623258 140.529728 256.436501 140.86211 256.104119
C 141.194493 255.771736 141.38125 255.320865 141.38125 254.850804
C 141.38125 254.380744 141.194493 253.929873 140.86211 253.59749
C 140.529728 253.265107 140.078857 253.078351 139.608796 253.078351
C 139.138736 253.078351 138.687865 253.265107 138.355482 253.59749
C 138.023099 253.929873 137.836342 254.380744 137.836342 254.850804
C 137.836342 255.320865 138.023099 255.771736 138.355482 256.104119
C 138.687865 256.436501 139.138736 256.623258 139.608796 256.623258
z
" style="stroke:#000000;stroke-width:0.886227;"/>
    <path clip-path="url(#peaa05a974a)" d="M 343.885814 54.200401
C 344.355874 54.200401 344.806745 54.013644 345.139128 53.681261
C 345.471511 53.348879 345.658268 52.898008 345.658268 52.427947
C 345.658268 51.957887 345.471511 51.507016 345.139128 51.174633
C 344.806745 50.84225 344.355874 50.655493 343.885814 50.655493
C 343.415753 50.655493 342.964882 50.84225 342.6325 51.174633
C 342.300117 51.507016 342.11336 51.957887 342.11336 52.427947
C 342.11336 52.898008 342.300117 53.348879 342.6325 53.681261
C 342.964882 54.013644 343.415753 54.200401 343.885814 54.200401
z
" style="stroke:#000000;stroke-width:0.886227;"/>
    <path clip-path="url(#peaa05a974a)" d="M 285.520952 59.137544
C 285.991012 59.137544 286.441883 58.950787 286.774266 58.618404
C 287.106648 58.286021 287.293405 57.83515 287.293405 57.36509
C 287.293405 56.89503 287.106648 56.444159 286.774266 56.111776
C 286.441883 55.779393 285.991012 55.592636 285.520952 55.592636
C 285.050891 55.592636 284.60002 55.779393 284.267637 56.111776
C 283.935255 56.444159 283.748498 56.89503 283.748498 57.36509
C 283.748498 57.83515 283.935255 58.286021 284.267637 58.618404
C 284.60002 58.950787 285.050891 59.137544 285.520952 59.137544
z
" style="stroke:#000000;stroke-width:0.886227;"/>
    <path clip-path="url(#peaa05a974a)" d="M 227.156089 143.068973
C 227.62615 143.068973 228.077021 142.882216 228.409404 142.549833
C 228.741786 142.21745 228.928543 141.766579 228.928543 141.296519
C 228.928543 140.826458 228.741786 140.375587 228.409404 140.043205
C 228.077021 139.710822 227.62615 139.524065 227.156089 139.524065
C 226.686029 139.524065 226.235158 139.710822 225.902775 140.043205
C 225.570393 140.375587 225.383636 140.826458 225.383636 141.296519
C 225.383636 141.766579 225.570393 142.21745 225.902775 142.549833
C 226.235158 142.882216 226.686029 143.068973 227.156089 143.068973
z
" style="stroke:#000000;stroke-width:0.886227;"/>
    <path clip-path="url(#peaa05a974a)" d="M 63.004915 207.25183
C 63.474975 207.25183 63.925846 207.065073 64.258229 206.73269
C 64.590612 206.400307 64.777369 205.949436 64.777369 205.479376
C 64.777369 205.009316 64.590612 204.558444 64.258229 204.226062
C 63.925846 203.893679 63.474975 203.706922 63.004915 203.706922
C 62.534855 203.706922 62.083983 203.893679 61.751601 204.226062
C 61.419218 204.558444 61.232461 205.009316 61.232461 205.479376
C 61.232461 205.949436 61.419218 206.400307 61.751601 206.73269
C 62.083983 207.065073 62.534855 207.25183 63.004915 207.25183
z
" style="stroke:#000000;stroke-width:0.886227;"/>
    <path clip-path="url(#peaa05a974a)" d="M 241.747305 133.194687
C 242.217365 133.194687 242.668236 133.00793 243.000619 132.675547
C 243.333002 132.343164 243.519759 131.892293 243.519759 131.422233
C 243.519759 130.952173 243.333002 130.501302 243.000619 130.168919
C 242.668236 129.836536 242.217365 129.649779 241.747305 129.649779
C 241.277245 129.649779 240.826374 129.836536 240.493991 130.168919
C 240.161608 130.501302 239.974851 130.952173 239.974851 131.422233
C 239.974851 131.892293 240.161608 132.343164 240.493991 132.675547
C 240.826374 133.00793 241.277245 133.194687 241.747305 133.194687
z
" style="stroke:#000000;stroke-width:0.886227;"/>
    <path clip-path="url(#peaa05a974a)" d="M 249.042913 128.257544
C 249.512973 128.257544 249.963844 128.070787 250.296227 127.738404
C 250.62861 127.406021 250.815367 126.95515 250.815367 126.48509
C 250.815367 126.01503 250.62861 125.564159 250.296227 125.231776
C 249.963844 124.899393 249.512973 124.712636 249.042913 124.712636
C 248.572852 124.712636 248.121981 124.899393 247.789599 125.231776
C 247.457216 125.564159 247.270459 126.01503 247.270459 126.48509
C 247.270459 126.95515 247.457216 127.406021 247.789599 127.738404
C 248.121981 128.070787 248.572852 128.257544 249.042913 128.257544
z
" style="stroke:#000000;stroke-width:0.886227;"/>
    <path clip-path="url(#peaa05a974a)" d="M 314.703383 113.446115
C 315.173443 113.446115 315.624314 113.259358 315.956697 112.926976
C 316.28908 112.594593 316.475836 112.143722 316.475836 111.673662
C 316.475836 111.203601 316.28908 110.75273 315.956697 110.420347
C 315.624314 110.087965 315.173443 109.901208 314.703383 109.901208
C 314.233322 109.901208 313.782451 110.087965 313.450068 110.420347
C 313.117686 110.75273 312.930929 111.203601 312.930929 111.673662
C 312.930929 112.143722 313.117686 112.594593 313.450068 112.926976
C 313.782451 113.259358 314.233322 113.446115 314.703383 113.446115
z
" style="stroke:#000000;stroke-width:0.886227;"/>
    <path clip-path="url(#peaa05a974a)" d="M 336.590206 73.948973
C 337.060266 73.948973 337.511137 73.762216 337.84352 73.429833
C 338.175903 73.09745 338.36266 72.646579 338.36266 72.176519
C 338.36266 71.706458 338.175903 71.255587 337.84352 70.923205
C 337.511137 70.590822 337.060266 70.404065 336.590206 70.404065
C 336.120146 70.404065 335.669275 70.590822 335.336892 70.923205
C 335.004509 71.255587 334.817752 71.706458 334.817752 72.176519
C 334.817752 72.646579 335.004509 73.09745 335.336892 73.429833
C 335.669275 73.762216 336.120146 73.948973 336.590206 73.948973
z
" style="stroke:#000000;stroke-width:0.886227;"/>
    <path clip-path="url(#peaa05a974a)" d="M 365.772637 44.326115
C 366.242697 44.326115 366.693568 44.139358 367.025951 43.806976
C 367.358334 43.474593 367.545091 43.023722 367.545091 42.553662
C 367.545091 42.083601 367.358334 41.63273 367.025951 41.300347
C 366.693568 40.967965 366.242697 40.781208 365.772637 40.781208
C 365.302577 40.781208 364.851706 40.967965 364.519323 41.300347
C 364.18694 41.63273 364.000183 42.083601 364.000183 42.553662
C 364.000183 43.023722 364.18694 43.474593 364.519323 43.806976
C 364.851706 44.139358 365.302577 44.326115 365.772637 44.326115
z
" style="stroke:#000000;stroke-width:0.886227;"/>
    <path clip-path="url(#peaa05a974a)" d="M 358.477029 83.823258
C 358.947089 83.823258 359.397961 83.636501 359.730343 83.304119
C 360.062726 82.971736 360.249483 82.520865 360.249483 82.050804
C 360.249483 81.580744 360.062726 81.129873 359.730343 80.79749
C 359.397961 80.465107 358.947089 80.278351 358.477029 80.278351
C 358.006969 80.278351 357.556098 80.465107 357.223715 80.79749
C 356.891332 81.129873 356.704575 81.580744 356.704575 82.050804
C 356.704575 82.520865 356.891332 82.971736 357.223715 83.304119
C 357.556098 83.636501 358.006969 83.823258 358.477029 83.823258
z
" style="stroke:#000000;stroke-width:0.886227;"/>
    <path clip-path="url(#peaa05a974a)" d="M 176.086835 207.25183
C 176.556895 207.25183 177.007766 207.065073 177.340149 206.73269
C 177.672532 206.400307 177.859289 205.949436 177.859289 205.479376
C 177.859289 205.009316 177.672532 204.558444 177.340149 204.226062
C 177.007766 203.893679 176.556895 203.706922 176.086835 203.706922
C 175.616775 203.706922 175.165904 203.893679 174.833521 204.226062
C 174.501138 204.558444 174.314381 205.009316 174.314381 205.479376
C 174.314381 205.949436 174.501138 206.400307 174.833521 206.73269
C 175.165904 207.065073 175.616775 207.25183 176.086835 207.25183
z
" style="stroke:#000000;stroke-width:0.886227;"/>
    <path clip-path="url(#peaa05a974a)" d="M 212.564874 98.634687
C 213.034934 98.634687 213.485805 98.44793 213.818188 98.115547
C 214.150571 97.783164 214.337328 97.332293 214.337328 96.862233
C 214.337328 96.392173 214.150571 95.941302 213.818188 95.608919
C 213.485805 95.276536 213.034934 95.089779 212.564874 95.089779
C 212.094814 95.089779 211.643943 95.276536 211.31156 95.608919
C 210.979177 95.941302 210.79242 96.392173 210.79242 96.862233
C 210.79242 97.332293 210.979177 97.783164 211.31156 98.115547
C 211.643943 98.44793 212.094814 98.634687 212.564874 98.634687
z
" style="stroke:#000000;stroke-width:0.886227;"/>
    <path clip-path="url(#peaa05a974a)" d="M 103.130757 207.25183
C 103.600818 207.25183 104.051689 207.065073 104.384072 206.73269
C 104.716454 206.400307 104.903211 205.949436 104.903211 205.479376
C 104.903211 205.009316 104.716454 204.558444 104.384072 204.226062
C 104.051689 203.893679 103.600818 203.706922 103.130757 203.706922
C 102.660697 203.706922 102.209826 203.893679 101.877443 204.226062
C 101.545061 204.558444 101.358304 205.009316 101.358304 205.479376
C 101.358304 205.949436 101.545061 206.400307 101.877443 206.73269
C 102.209826 207.065073 102.660697 207.25183 103.130757 207.25183
z
" style="stroke:#000000;stroke-width:0.886227;"/>
    <path clip-path="url(#peaa05a974a)" d="M 234.451697 276.37183
C 234.921757 276.37183 235.372629 276.185073 235.705011 275.85269
C 236.037394 275.520307 236.224151 275.069436 236.224151 274.599376
C 236.224151 274.129316 236.037394 273.678444 235.705011 273.346062
C 235.372629 273.013679 234.921757 272.826922 234.451697 272.826922
C 233.981637 272.826922 233.530766 273.013679 233.198383 273.346062
C 232.866 273.678444 232.679243 274.129316 232.679243 274.599376
C 232.679243 275.069436 232.866 275.520307 233.198383 275.85269
C 233.530766 276.185073 233.981637 276.37183 234.451697 276.37183
z
" style="stroke:#000000;stroke-width:0.886227;"/>
    <path clip-path="url(#peaa05a974a)" d="M 183.382443 207.25183
C 183.852503 207.25183 184.303374 207.065073 184.635757 206.73269
C 184.96814 206.400307 185.154897 205.949436 185.154897 205.479376
C 185.154897 205.009316 184.96814 204.558444 184.635757 204.226062
C 184.303374 203.893679 183.852503 203.706922 183.382443 203.706922
C 182.912383 203.706922 182.461512 203.893679 182.129129 204.226062
C 181.796746 204.558444 181.609989 205.009316 181.609989 205.479376
C 181.609989 205.949436 181.796746 206.400307 182.129129 206.73269
C 182.461512 207.065073 182.912383 207.25183 183.382443 207.25183
z
" style="stroke:#000000;stroke-width:0.886227;"/>
    <path clip-path="url(#peaa05a974a)" d="M 190.678051 170.223258
C 191.148111 170.223258 191.598982 170.036501 191.931365 169.704119
C 192.263748 169.371736 192.450504 168.920865 192.450504 168.450804
C 192.450504 167.980744 192.263748 167.529873 191.931365 167.19749
C 191.598982 166.865107 191.148111 166.678351 190.678051 166.678351
C 190.20799 166.678351 189.757119 166.865107 189.424736 167.19749
C 189.092354 167.529873 188.905597 167.980744 188.905597 168.450804
C 188.905597 168.920865 189.092354 169.371736 189.424736 169.704119
C 189.757119 170.036501 190.20799 170.223258 190.678051 170.223258
z
" style="stroke:#000000;stroke-width:0.886227;"/>
    <path clip-path="url(#peaa05a974a)" d="M 168.791227 180.097544
C 169.261288 180.097544 169.712159 179.910787 170.044541 179.578404
C 170.376924 179.246021 170.563681 178.79515 170.563681 178.32509
C 170.563681 177.85503 170.376924 177.404159 170.044541 177.071776
C 169.712159 176.739393 169.261288 176.552636 168.791227 176.552636
C 168.321167 176.552636 167.870296 176.739393 167.537913 177.071776
C 167.20553 177.404159 167.018773 177.85503 167.018773 178.32509
C 167.018773 178.79515 167.20553 179.246021 167.537913 179.578404
C 167.870296 179.910787 168.321167 180.097544 168.791227 180.097544
z
" style="stroke:#000000;stroke-width:0.886227;"/>
    <path clip-path="url(#peaa05a974a)" d="M 263.634128 207.25183
C 264.104189 207.25183 264.55506 207.065073 264.887442 206.73269
C 265.219825 206.400307 265.406582 205.949436 265.406582 205.479376
C 265.406582 205.009316 265.219825 204.558444 264.887442 204.226062
C 264.55506 203.893679 264.104189 203.706922 263.634128 203.706922
C 263.164068 203.706922 262.713197 203.893679 262.380814 204.226062
C 262.048431 204.558444 261.861674 205.009316 261.861674 205.479376
C 261.861674 205.949436 262.048431 206.400307 262.380814 206.73269
C 262.713197 207.065073 263.164068 207.25183 263.634128 207.25183
z
" style="stroke:#000000;stroke-width:0.886227;"/>
    <path clip-path="url(#peaa05a974a)" d="M 256.33852 108.508973
C 256.808581 108.508973 257.259452 108.322216 257.591835 107.989833
C 257.924217 107.65745 258.110974 107.206579 258.110974 106.736519
C 258.110974 106.266458 257.924217 105.815587 257.591835 105.483205
C 257.259452 105.150822 256.808581 104.964065 256.33852 104.964065
C 255.86846 104.964065 255.417589 105.150822 255.085206 105.483205
C 254.752824 105.815587 254.566067 106.266458 254.566067 106.736519
C 254.566067 107.206579 254.752824 107.65745 255.085206 107.989833
C 255.417589 108.322216 255.86846 108.508973 256.33852 108.508973
z
" style="stroke:#000000;stroke-width:0.886227;"/>
    <path clip-path="url(#peaa05a974a)" d="M 292.816559 64.074687
C 293.28662 64.074687 293.737491 63.88793 294.069873 63.555547
C 294.402256 63.223164 294.589013 62.772293 294.589013 62.302233
C 294.589013 61.832173 294.402256 61.381302 294.069873 61.048919
C 293.737491 60.716536 293.28662 60.529779 292.816559 60.529779
C 292.346499 60.529779 291.895628 60.716536 291.563245 61.048919
C 291.230862 61.381302 291.044105 61.832173 291.044105 62.302233
C 291.044105 62.772293 291.230862 63.223164 291.563245 63.555547
C 291.895628 63.88793 292.346499 64.074687 292.816559 64.074687
z
" style="stroke:#000000;stroke-width:0.886227;"/>
    <path clip-path="url(#peaa05a974a)" d="M 351.181421 88.760401
C 351.651482 88.760401 352.102353 88.573644 352.434736 88.241261
C 352.767118 87.908879 352.953875 87.458008 352.953875 86.987947
C 352.953875 86.517887 352.767118 86.067016 352.434736 85.734633
C 352.102353 85.40225 351.651482 85.215493 351.181421 85.215493
C 350.711361 85.215493 350.26049 85.40225 349.928107 85.734633
C 349.595724 86.067016 349.408968 86.517887 349.408968 86.987947
C 349.408968 87.458008 349.595724 87.908879 349.928107 88.241261
C 350.26049 88.573644 350.711361 88.760401 351.181421 88.760401
z
" style="stroke:#000000;stroke-width:0.886227;"/>
    <path clip-path="url(#peaa05a974a)" d="M 63.004915 239.343258
C 63.474975 239.343258 63.925846 239.156501 64.258229 238.824119
C 64.590612 238.491736 64.777369 238.040865 64.777369 237.570804
C 64.777369 237.100744 64.590612 236.649873 64.258229 236.31749
C 63.925846 235.985107 63.474975 235.798351 63.004915 235.798351
C 62.534855 235.798351 62.083983 235.985107 61.751601 236.31749
C 61.419218 236.649873 61.232461 237.100744 61.232461 237.570804
C 61.232461 238.040865 61.419218 238.491736 61.751601 238.824119
C 62.083983 239.156501 62.534855 239.343258 63.004915 239.343258
z
" style="stroke:#000000;stroke-width:0.886227;"/>
    <path clip-path="url(#peaa05a974a)" d="M 63.004915 256.623258
C 63.474975 256.623258 63.925846 256.436501 64.258229 256.104119
C 64.590612 255.771736 64.777369 255.320865 64.777369 254.850804
C 64.777369 254.380744 64.590612 253.929873 64.258229 253.59749
C 63.925846 253.265107 63.474975 253.078351 63.004915 253.078351
C 62.534855 253.078351 62.083983 253.265107 61.751601 253.59749
C 61.419218 253.929873 61.232461 254.380744 61.232461 254.850804
C 61.232461 255.320865 61.419218 255.771736 61.751601 256.104119
C 62.083983 256.436501 62.534855 256.623258 63.004915 256.623258
z
" style="stroke:#000000;stroke-width:0.886227;"/>
    <path clip-path="url(#peaa05a974a)" d="M 219.860482 118.383258
C 220.330542 118.383258 220.781413 118.196501 221.113796 117.864119
C 221.446179 117.531736 221.632936 117.080865 221.632936 116.610804
C 221.632936 116.140744 221.446179 115.689873 221.113796 115.35749
C 220.781413 115.025107 220.330542 114.838351 219.860482 114.838351
C 219.390421 114.838351 218.93955 115.025107 218.607168 115.35749
C 218.274785 115.689873 218.088028 116.140744 218.088028 116.610804
C 218.088028 117.080865 218.274785 117.531736 218.607168 117.864119
C 218.93955 118.196501 219.390421 118.383258 219.860482 118.383258
z
" style="stroke:#000000;stroke-width:0.886227;"/>
    <path clip-path="url(#peaa05a974a)" d="M 197.973658 207.25183
C 198.443719 207.25183 198.89459 207.065073 199.226973 206.73269
C 199.559355 206.400307 199.746112 205.949436 199.746112 205.479376
C 199.746112 205.009316 199.559355 204.558444 199.226973 204.226062
C 198.89459 203.893679 198.443719 203.706922 197.973658 203.706922
C 197.503598 203.706922 197.052727 203.893679 196.720344 204.226062
C 196.387961 204.558444 196.201205 205.009316 196.201205 205.479376
C 196.201205 205.949436 196.387961 206.400307 196.720344 206.73269
C 197.052727 207.065073 197.503598 207.25183 197.973658 207.25183
z
" style="stroke:#000000;stroke-width:0.886227;"/>
    <path clip-path="url(#peaa05a974a)" d="M 321.99899 266.497544
C 322.469051 266.497544 322.919922 266.310787 323.252304 265.978404
C 323.584687 265.646021 323.771444 265.19515 323.771444 264.72509
C 323.771444 264.25503 323.584687 263.804159 323.252304 263.471776
C 322.919922 263.139393 322.469051 262.952636 321.99899 262.952636
C 321.52893 262.952636 321.078059 263.139393 320.745676 263.471776
C 320.413293 263.804159 320.226537 264.25503 320.226537 264.72509
C 320.226537 265.19515 320.413293 265.646021 320.745676 265.978404
C 321.078059 266.310787 321.52893 266.497544 321.99899 266.497544
z
" style="stroke:#000000;stroke-width:0.886227;"/>
    <path clip-path="url(#peaa05a974a)" d="M 270.929736 239.343258
C 271.399796 239.343258 271.850667 239.156501 272.18305 238.824119
C 272.515433 238.491736 272.70219 238.040865 272.70219 237.570804
C 272.70219 237.100744 272.515433 236.649873 272.18305 236.31749
C 271.850667 235.985107 271.399796 235.798351 270.929736 235.798351
C 270.459676 235.798351 270.008805 235.985107 269.676422 236.31749
C 269.344039 236.649873 269.157282 237.100744 269.157282 237.570804
C 269.157282 238.040865 269.344039 238.491736 269.676422 238.824119
C 270.008805 239.156501 270.459676 239.343258 270.929736 239.343258
z
" style="stroke:#000000;stroke-width:0.886227;"/>
    <path clip-path="url(#peaa05a974a)" d="M 110.426365 207.25183
C 110.896425 207.25183 111.347297 207.065073 111.679679 206.73269
C 112.012062 206.400307 112.198819 205.949436 112.198819 205.479376
C 112.198819 205.009316 112.012062 204.558444 111.679679 204.226062
C 111.347297 203.893679 110.896425 203.706922 110.426365 203.706922
C 109.956305 203.706922 109.505434 203.893679 109.173051 204.226062
C 108.840668 204.558444 108.653911 205.009316 108.653911 205.479376
C 108.653911 205.949436 108.840668 206.400307 109.173051 206.73269
C 109.505434 207.065073 109.956305 207.25183 110.426365 207.25183
z
" style="stroke:#000000;stroke-width:0.886227;"/>
    <path clip-path="url(#peaa05a974a)" d="M 63.004915 207.25183
C 63.474975 207.25183 63.925846 207.065073 64.258229 206.73269
C 64.590612 206.400307 64.777369 205.949436 64.777369 205.479376
C 64.777369 205.009316 64.590612 204.558444 64.258229 204.226062
C 63.925846 203.893679 63.474975 203.706922 63.004915 203.706922
C 62.534855 203.706922 62.083983 203.893679 61.751601 204.226062
C 61.419218 204.558444 61.232461 205.009316 61.232461 205.479376
C 61.232461 205.949436 61.419218 206.400307 61.751601 206.73269
C 62.083983 207.065073 62.534855 207.25183 63.004915 207.25183
z
" style="stroke:#000000;stroke-width:0.886227;"/>
    <path clip-path="url(#peaa05a974a)" d="M 161.49562 207.25183
C 161.96568 207.25183 162.416551 207.065073 162.748934 206.73269
C 163.081317 206.400307 163.268073 205.949436 163.268073 205.479376
C 163.268073 205.009316 163.081317 204.558444 162.748934 204.226062
C 162.416551 203.893679 161.96568 203.706922 161.49562 203.706922
C 161.025559 203.706922 160.574688 203.893679 160.242305 204.226062
C 159.909923 204.558444 159.723166 205.009316 159.723166 205.479376
C 159.723166 205.949436 159.909923 206.400307 160.242305 206.73269
C 160.574688 207.065073 161.025559 207.25183 161.49562 207.25183
z
" style="stroke:#000000;stroke-width:0.886227;"/>
    <path clip-path="url(#peaa05a974a)" d="M 307.407775 239.343258
C 307.877835 239.343258 308.328706 239.156501 308.661089 238.824119
C 308.993472 238.491736 309.180229 238.040865 309.180229 237.570804
C 309.180229 237.100744 308.993472 236.649873 308.661089 236.31749
C 308.328706 235.985107 307.877835 235.798351 307.407775 235.798351
C 306.937715 235.798351 306.486843 235.985107 306.154461 236.31749
C 305.822078 236.649873 305.635321 237.100744 305.635321 237.570804
C 305.635321 238.040865 305.822078 238.491736 306.154461 238.824119
C 306.486843 239.156501 306.937715 239.343258 307.407775 239.343258
z
" style="stroke:#000000;stroke-width:0.886227;"/>
    <path clip-path="url(#peaa05a974a)" d="M 329.294598 256.623258
C 329.764658 256.623258 330.215529 256.436501 330.547912 256.104119
C 330.880295 255.771736 331.067052 255.320865 331.067052 254.850804
C 331.067052 254.380744 330.880295 253.929873 330.547912 253.59749
C 330.215529 253.265107 329.764658 253.078351 329.294598 253.078351
C 328.824538 253.078351 328.373667 253.265107 328.041284 253.59749
C 327.708901 253.929873 327.522144 254.380744 327.522144 254.850804
C 327.522144 255.320865 327.708901 255.771736 328.041284 256.104119
C 328.373667 256.436501 328.824538 256.623258 329.294598 256.623258
z
" style="stroke:#000000;stroke-width:0.886227;"/>
   </g>
  </g>
  <g id="text_13">
   <!-- GSEA vs ORA pathway ranking -->
   <defs>
    <path d="M 2.984375 54.6875
L 12.5 54.6875
L 29.59375 8.796875
L 46.6875 54.6875
L 56.203125 54.6875
L 35.6875 0
L 23.484375 0
z
" id="DejaVuSans-118"/>
    <path d="M 44.28125 53.078125
L 44.28125 44.578125
Q 40.484375 46.53125 36.375 47.5
Q 32.28125 48.484375 27.875 48.484375
Q 21.1875 48.484375 17.84375 46.4375
Q 14.5 44.390625 14.5 40.28125
Q 14.5 37.15625 16.890625 35.375
Q 19.28125 33.59375 26.515625 31.984375
L 29.59375 31.296875
Q 39.15625 29.25 43.1875 25.515625
Q 47.21875 21.78125 47.21875 15.09375
Q 47.21875 7.46875 41.1875 3.015625
Q 35.15625 -1.421875 24.609375 -1.421875
Q 20.21875 -1.421875 15.453125 -0.5625
Q 10.6875 0.296875 5.421875 2
L 5.421875 11.28125
Q 10.40625 8.6875 15.234375 7.390625
Q 20.0625 6.109375 24.8125 6.109375
Q 31.15625 6.109375 34.5625 8.28125
Q 37.984375 10.453125 37.984375 14.40625
Q 37.984375 18.0625 35.515625 20.015625
Q 33.0625 21.96875 24.703125 23.78125
L 21.578125 24.515625
Q 13.234375 26.265625 9.515625 29.90625
Q 5.8125 33.546875 5.8125 39.890625
Q 5.8125 47.609375 11.28125 51.796875
Q 16.75 56 26.8125 56
Q 31.78125 56 36.171875 55.265625
Q 40.578125 54.546875 44.28125 53.078125
z
" id="DejaVuSans-115"/>
   </defs>
   <g transform="translate(104.415547 11.397656)scale(0.15 -0.15)">
    <use xlink:href="#DejaVuSans-71"/>
    <use x="77.490234" xlink:href="#DejaVuSans-83"/>
    <use x="140.966797" xlink:href="#DejaVuSans-69"/>
    <use x="204.150391" xlink:href="#DejaVuSans-65"/>
    <use x="272.558594" xlink:href="#DejaVuSans-32"/>
    <use x="304.345703" xlink:href="#DejaVuSans-118"/>
    <use x="363.525391" xlink:href="#DejaVuSans-115"/>
    <use x="415.625" xlink:href="#DejaVuSans-32"/>
    <use x="447.412109" xlink:href="#DejaVuSans-79"/>
    <use x="526.123047" xlink:href="#DejaVuSans-82"/>
    <use x="595.542969" xlink:href="#DejaVuSans-65"/>
    <use x="663.951172" xlink:href="#DejaVuSans-32"/>
    <use x="695.738281" xlink:href="#DejaVuSans-112"/>
    <use x="759.214844" xlink:href="#DejaVuSans-97"/>
    <use x="820.494141" xlink:href="#DejaVuSans-116"/>
    <use x="859.703125" xlink:href="#DejaVuSans-104"/>
    <use x="923.082031" xlink:href="#DejaVuSans-119"/>
    <use x="1004.869141" xlink:href="#DejaVuSans-97"/>
    <use x="1066.148438" xlink:href="#DejaVuSans-121"/>
    <use x="1125.328125" xlink:href="#DejaVuSans-32"/>
    <use x="1157.115234" xlink:href="#DejaVuSans-114"/>
    <use x="1198.228516" xlink:href="#DejaVuSans-97"/>
    <use x="1259.507812" xlink:href="#DejaVuSans-110"/>
    <use x="1322.886719" xlink:href="#DejaVuSans-107"/>
    <use x="1380.796875" xlink:href="#DejaVuSans-105"/>
    <use x="1408.580078" xlink:href="#DejaVuSans-110"/>
    <use x="1471.958984" xlink:href="#DejaVuSans-103"/>
   </g>
  </g>
 </g>
 <defs>
  <clipPath id="peaa05a974a">
   <rect height="266.112" width="357.12" x="46.772188" y="20.583376"/>
  </clipPath>
 </defs>
</svg>
