<?xml version="1.0" encoding="utf-8" standalone="no"?>
<!DOCTYPE svg PUBLIC "-//W3C//DTD SVG 1.1//EN"
  "http://www.w3.org/Graphics/SVG/1.1/DTD/svg11.dtd">
<!-- Created with matplotlib (https://matplotlib.org/) -->
<svg height="322.176313pt" version="1.1" viewBox="0 0 410.455938 322.176313" width="410.455938pt" xmlns="http://www.w3.org/2000/svg" xmlns:xlink="http://www.w3.org/1999/xlink">
 <defs>
  <style type="text/css">
*{stroke-linecap:butt;stroke-linejoin:round;}
  </style>
 </defs>
 <g id="figure_1">
  <g id="patch_1">
   <path d="M 0 322.176313
L 410.455938 322.176313
L 410.455938 0
L 0 0
z
" style="fill:#ffffff;stroke:#ffffff;stroke-linejoin:miter;"/>
  </g>
  <g id="axes_1">
   <g id="patch_2">
    <path d="M 50.585938 286.695376
L 407.705938 286.695376
L 407.705938 20.583376
L 50.585938 20.583376
z
" style="fill:none;"/>
   </g>
   <g id="matplotlib.axis_1">
    <g id="xtick_1">
     <g id="line2d_1">
      <path clip-path="url(#pcd947c80fb)" d="M 66.148355 286.695376
L 66.148355 20.583376
" style="fill:none;stroke:#e5e5e5;stroke-width:0.8;"/>
     </g>
     <g id="line2d_2">
      <path d="M 66.148355 286.695376
" style="fill:none;stroke:#000000;stroke-width:1.5;"/>
      <defs>
       <path d="M 0 0
L 0 2.75
" id="m1e2152388d" style="stroke:#000000;"/>
      </defs>
      <g>
       <use style="stroke:#000000;" x="66.148355" xlink:href="#m1e2152388d" y="286.695376"/>
      </g>
     </g>
     <g id="text_1">
      <!-- 0 -->
      <defs>
       <path d="M 31.78125 66.40625
Q 24.171875 66.40625 20.328125 58.90625
Q 16.5 51.421875 16.5 36.375
Q 16.5 21.390625 20.328125 13.890625
Q 24.171875 6.390625 31.78125 6.390625
Q 39.453125 6.390625 43.28125 13.890625
Q 47.125 21.390625 47.125 36.375
Q 47.125 51.421875 43.28125 58.90625
Q 39.453125 66.40625 31.78125 66.40625
z
M 31.78125 74.21875
Q 44.046875 74.21875 50.515625 64.515625
Q 56.984375 54.828125 56.984375 36.375
Q 56.984375 17.96875 50.515625 8.265625
Q 44.046875 -1.421875 31.78125 -1.421875
Q 19.53125 -1.421875 13.0625 8.265625
Q 6.59375 17.96875 6.59375 36.375
Q 6.59375 54.828125 13.0625 64.515625
Q 19.53125 74.21875 31.78125 74.21875
z
" id="DejaVuSans-48"/>
      </defs>
      <g style="fill:#4d4d4d;" transform="translate(62.330855 300.763501)scale(0.12 -0.12)">
       <use xlink:href="#DejaVuSans-48"/>
      </g>
     </g>
    </g>
    <g id="xtick_2">
     <g id="line2d_3">
      <path clip-path="url(#pcd947c80fb)" d="M 147.490432 286.695376
L 147.490432 20.583376
" style="fill:none;stroke:#e5e5e5;stroke-width:0.8;"/>
     </g>
     <g id="line2d_4">
      <path d="M 147.490432 286.695376
" style="fill:none;stroke:#000000;stroke-width:1.5;"/>
      <g>
       <use style="stroke:#000000;" x="147.490432" xlink:href="#m1e2152388d" y="286.695376"/>
      </g>
     </g>
     <g id="text_2">
      <!-- 0.25 -->
      <defs>
       <path d="M 10.6875 12.40625
L 21 12.40625
L 21 0
L 10.6875 0
z
" id="DejaVuSans-46"/>
       <path d="M 19.1875 8.296875
L 53.609375 8.296875
L 53.609375 0
L 7.328125 0
L 7.328125 8.296875
Q 12.9375 14.109375 22.625 23.890625
Q 32.328125 33.6875 34.8125 36.53125
Q 39.546875 41.84375 41.421875 45.53125
Q 43.3125 49.21875 43.3125 52.78125
Q 43.3125 58.59375 39.234375 62.25
Q 35.15625 65.921875 28.609375 65.921875
Q 23.96875 65.921875 18.8125 64.3125
Q 13.671875 62.703125 7.8125 59.421875
L 7.8125 69.390625
Q 13.765625 71.78125 18.9375 73
Q 24.125 74.21875 28.421875 74.21875
Q 39.75 74.21875 46.484375 68.546875
Q 53.21875 62.890625 53.21875 53.421875
Q 53.21875 48.921875 51.53125 44.890625
Q 49.859375 40.875 45.40625 35.40625
Q 44.1875 33.984375 37.640625 27.21875
Q 31.109375 20.453125 19.1875 8.296875
z
" id="DejaVuSans-50"/>
       <path d="M 10.796875 72.90625
L 49.515625 72.90625
L 49.515625 64.59375
L 19.828125 64.59375
L 19.828125 46.734375
Q 21.96875 47.46875 24.109375 47.828125
Q 26.265625 48.1875 28.421875 48.1875
Q 40.625 48.1875 47.75 41.5
Q 54.890625 34.8125 54.890625 23.390625
Q 54.890625 11.625 47.5625 5.09375
Q 40.234375 -1.421875 26.90625 -1.421875
Q 22.3125 -1.421875 17.546875 -0.640625
Q 12.796875 0.140625 7.71875 1.703125
L 7.71875 11.625
Q 12.109375 9.234375 16.796875 8.0625
Q 21.484375 6.890625 26.703125 6.890625
Q 35.15625 6.890625 40.078125 11.328125
Q 45.015625 15.765625 45.015625 23.390625
Q 45.015625 31 40.078125 35.4375
Q 35.15625 39.890625 26.703125 39.890625
Q 22.75 39.890625 18.8125 39.015625
Q 14.890625 38.140625 10.796875 36.28125
z
" id="DejaVuSans-53"/>
      </defs>
      <g style="fill:#4d4d4d;" transform="translate(134.131057 300.763501)scale(0.12 -0.12)">
       <use xlink:href="#DejaVuSans-48"/>
       <use x="63.623047" xlink:href="#DejaVuSans-46"/>
       <use x="95.410156" xlink:href="#DejaVuSans-50"/>
       <use x="159.033203" xlink:href="#DejaVuSans-53"/>
      </g>
     </g>
    </g>
    <g id="xtick_3">
     <g id="line2d_5">
      <path clip-path="url(#pcd947c80fb)" d="M 228.832509 286.695376
L 228.832509 20.583376
" style="fill:none;stroke:#e5e5e5;stroke-width:0.8;"/>
     </g>
     <g id="line2d_6">
      <path d="M 228.832509 286.695376
" style="fill:none;stroke:#000000;stroke-width:1.5;"/>
      <g>
       <use style="stroke:#000000;" x="228.832509" xlink:href="#m1e2152388d" y="286.695376"/>
      </g>
     </g>
     <g id="text_3">
      <!-- 0.50 -->
      <g style="fill:#4d4d4d;" transform="translate(215.473134 300.763501)scale(0.12 -0.12)">
       <use xlink:href="#DejaVuSans-48"/>
       <use x="63.623047" xlink:href="#DejaVuSans-46"/>
       <use x="95.410156" xlink:href="#DejaVuSans-53"/>
       <use x="159.033203" xlink:href="#DejaVuSans-48"/>
      </g>
     </g>
    </g>
    <g id="xtick_4">
     <g id="line2d_7">
      <path clip-path="url(#pcd947c80fb)" d="M 310.174585 286.695376
L 310.174585 20.583376
" style="fill:none;stroke:#e5e5e5;stroke-width:0.8;"/>
     </g>
     <g id="line2d_8">
      <path d="M 310.174585 286.695376
" style="fill:none;stroke:#000000;stroke-width:1.5;"/>
      <g>
       <use style="stroke:#000000;" x="310.174585" xlink:href="#m1e2152388d" y="286.695376"/>
      </g>
     </g>
     <g id="text_4">
      <!-- 0.75 -->
      <defs>
       <path d="M 8.203125 72.90625
L 55.078125 72.90625
L 55.078125 68.703125
L 28.609375 0
L 18.3125 0
L 43.21875 64.59375
L 8.203125 64.59375
z
" id="DejaVuSans-55"/>
      </defs>
      <g style="fill:#4d4d4d;" transform="translate(296.81521 300.763501)scale(0.12 -0.12)">
       <use xlink:href="#DejaVuSans-48"/>
       <use x="63.623047" xlink:href="#DejaVuSans-46"/>
       <use x="95.410156" xlink:href="#DejaVuSans-55"/>
       <use x="159.033203" xlink:href="#DejaVuSans-53"/>
      </g>
     </g>
    </g>
    <g id="xtick_5">
     <g id="line2d_9">
      <path clip-path="url(#pcd947c80fb)" d="M 391.516662 286.695376
L 391.516662 20.583376
" style="fill:none;stroke:#e5e5e5;stroke-width:0.8;"/>
     </g>
     <g id="line2d_10">
      <path d="M 391.516662 286.695376
" style="fill:none;stroke:#000000;stroke-width:1.5;"/>
      <g>
       <use style="stroke:#000000;" x="391.516662" xlink:href="#m1e2152388d" y="286.695376"/>
      </g>
     </g>
     <g id="text_5">
      <!-- 1 -->
      <defs>
       <path d="M 12.40625 8.296875
L 28.515625 8.296875
L 28.515625 63.921875
L 10.984375 60.40625
L 10.984375 69.390625
L 28.421875 72.90625
L 38.28125 72.90625
L 38.28125 8.296875
L 54.390625 8.296875
L 54.390625 0
L 12.40625 0
z
" id="DejaVuSans-49"/>
      </defs>
      <g style="fill:#4d4d4d;" transform="translate(387.699162 300.763501)scale(0.12 -0.12)">
       <use xlink:href="#DejaVuSans-49"/>
      </g>
     </g>
    </g>
    <g id="xtick_6">
     <g id="line2d_11">
      <path clip-path="url(#pcd947c80fb)" d="M 106.819394 286.695376
L 106.819394 20.583376
" style="fill:none;stroke:#fafafa;"/>
     </g>
     <g id="line2d_12">
      <path d="M 106.819394 286.695376
" style="fill:none;stroke:#000000;stroke-width:1.5;"/>
     </g>
    </g>
    <g id="xtick_7">
     <g id="line2d_13">
      <path clip-path="url(#pcd947c80fb)" d="M 188.16147 286.695376
L 188.16147 20.583376
" style="fill:none;stroke:#fafafa;"/>
     </g>
     <g id="line2d_14">
      <path d="M 188.16147 286.695376
" style="fill:none;stroke:#000000;stroke-width:1.5;"/>
     </g>
    </g>
    <g id="xtick_8">
     <g id="line2d_15">
      <path clip-path="url(#pcd947c80fb)" d="M 269.503547 286.695376
L 269.503547 20.583376
" style="fill:none;stroke:#fafafa;"/>
     </g>
     <g id="line2d_16">
      <path d="M 269.503547 286.695376
" style="fill:none;stroke:#000000;stroke-width:1.5;"/>
     </g>
    </g>
    <g id="xtick_9">
     <g id="line2d_17">
      <path clip-path="url(#pcd947c80fb)" d="M 350.845624 286.695376
L 350.845624 20.583376
" style="fill:none;stroke:#fafafa;"/>
     </g>
     <g id="line2d_18">
      <path d="M 350.845624 286.695376
" style="fill:none;stroke:#000000;stroke-width:1.5;"/>
     </g>
    </g>
    <g id="text_6">
     <!-- adjusted p-value (BH) -->
     <defs>
      <path d="M 34.28125 27.484375
Q 23.390625 27.484375 19.1875 25
Q 14.984375 22.515625 14.984375 16.5
Q 14.984375 11.71875 18.140625 8.90625
Q 21.296875 6.109375 26.703125 6.109375
Q 34.1875 6.109375 38.703125 11.40625
Q 43.21875 16.703125 43.21875 25.484375
L 43.21875 27.484375
z
M 52.203125 31.203125
L 52.203125 0
L 43.21875 0
L 43.21875 8.296875
Q 40.140625 3.328125 35.546875 0.953125
Q 30.953125 -1.421875 24.3125 -1.421875
Q 15.921875 -1.421875 10.953125 3.296875
Q 6 8.015625 6 15.921875
Q 6 25.140625 12.171875 29.828125
Q 18.359375 34.515625 30.609375 34.515625
L 43.21875 34.515625
L 43.21875 35.40625
Q 43.21875 41.609375 39.140625 45
Q 35.0625 48.390625 27.6875 48.390625
Q 23 48.390625 18.546875 47.265625
Q 14.109375 46.140625 10.015625 43.890625
L 10.015625 52.203125
Q 14.9375 54.109375 19.578125 55.046875
Q 24.21875 56 28.609375 56
Q 40.484375 56 46.34375 49.84375
Q 52.203125 43.703125 52.203125 31.203125
z
" id="DejaVuSans-97"/>
      <path d="M 45.40625 46.390625
L 45.40625 75.984375
L 54.390625 75.984375
L 54.390625 0
L 45.40625 0
L 45.40625 8.203125
Q 42.578125 3.328125 38.25 0.953125
Q 33.9375 -1.421875 27.875 -1.421875
Q 17.96875 -1.421875 11.734375 6.484375
Q 5.515625 14.40625 5.515625 27.296875
Q 5.515625 40.1875 11.734375 48.09375
Q 17.96875 56 27.875 56
Q 33.9375 56 38.25 53.625
Q 42.578125 51.265625 45.40625 46.390625
z
M 14.796875 27.296875
Q 14.796875 17.390625 18.875 11.75
Q 22.953125 6.109375 30.078125 6.109375
Q 37.203125 6.109375 41.296875 11.75
Q 45.40625 17.390625 45.40625 27.296875
Q 45.40625 37.203125 41.296875 42.84375
Q 37.203125 48.484375 30.078125 48.484375
Q 22.953125 48.484375 18.875 42.84375
Q 14.796875 37.203125 14.796875 27.296875
z
" id="DejaVuSans-100"/>
      <path d="M 9.421875 54.6875
L 18.40625 54.6875
L 18.40625 -0.984375
Q 18.40625 -11.421875 14.421875 -16.109375
Q 10.453125 -20.796875 1.609375 -20.796875
L -1.8125 -20.796875
L -1.8125 -13.1875
L 0.59375 -13.1875
Q 5.71875 -13.1875 7.5625 -10.8125
Q 9.421875 -8.453125 9.421875 -0.984375
z
M 9.421875 75.984375
L 18.40625 75.984375
L 18.40625 64.59375
L 9.421875 64.59375
z
" id="DejaVuSans-106"/>
      <path d="M 8.5 21.578125
L 8.5 54.6875
L 17.484375 54.6875
L 17.484375 21.921875
Q 17.484375 14.15625 20.5 10.265625
Q 23.53125 6.390625 29.59375 6.390625
Q 36.859375 6.390625 41.078125 11.03125
Q 45.3125 15.671875 45.3125 23.6875
L 45.3125 54.6875
L 54.296875 54.6875
L 54.296875 0
L 45.3125 0
L 45.3125 8.40625
Q 42.046875 3.421875 37.71875 1
Q 33.40625 -1.421875 27.6875 -1.421875
Q 18.265625 -1.421875 13.375 4.4375
Q 8.5 10.296875 8.5 21.578125
z
M 31.109375 56
z
" id="DejaVuSans-117"/>
      <path d="M 44.28125 53.078125
L 44.28125 44.578125
Q 40.484375 46.53125 36.375 47.5
Q 32.28125 48.484375 27.875 48.484375
Q 21.1875 48.484375 17.84375 46.4375
Q 14.5 44.390625 14.5 40.28125
Q 14.5 37.15625 16.890625 35.375
Q 19.28125 33.59375 26.515625 31.984375
L 29.59375 31.296875
Q 39.15625 29.25 43.1875 25.515625
Q 47.21875 21.78125 47.21875 15.09375
Q 47.21875 7.46875 41.1875 3.015625
Q 35.15625 -1.421875 24.609375 -1.421875
Q 20.21875 -1.421875 15.453125 -0.5625
Q 10.6875 0.296875 5.421875 2
L 5.421875 11.28125
Q 10.40625 8.6875 15.234375 7.390625
Q 20.0625 6.109375 24.8125 6.109375
Q 31.15625 6.109375 34.5625 8.28125
Q 37.984375 10.453125 37.984375 14.40625
Q 37.984375 18.0625 35.515625 20.015625
Q 33.0625 21.96875 24.703125 23.78125
L 21.578125 24.515625
Q 13.234375 26.265625 9.515625 29.90625
Q 5.8125 33.546875 5.8125 39.890625
Q 5.8125 47.609375 11.28125 51.796875
Q 16.75 56 26.8125 56
Q 31.78125 56 36.171875 55.265625
Q 40.578125 54.546875 44.28125 53.078125
z
" id="DejaVuSans-115"/>
      <path d="M 18.3125 70.21875
L 18.3125 54.6875
L 36.8125 54.6875
L 36.8125 47.703125
L 18.3125 47.703125
L 18.3125 18.015625
Q 18.3125 11.328125 20.140625 9.421875
Q 21.96875 7.515625 27.59375 7.515625
L 36.8125 7.515625
L 36.8125 0
L 27.59375 0
Q 17.1875 0 13.234375 3.875
Q 9.28125 7.765625 9.28125 18.015625
L 9.28125 47.703125
L 2.6875 47.703125
L 2.6875 54.6875
L 9.28125 54.6875
L 9.28125 70.21875
z
" id="DejaVuSans-116"/>
      <path d="M 56.203125 29.59375
L 56.203125 25.203125
L 14.890625 25.203125
Q 15.484375 15.921875 20.484375 11.0625
Q 25.484375 6.203125 34.421875 6.203125
Q 39.59375 6.203125 44.453125 7.46875
Q 49.3125 8.734375 54.109375 11.28125
L 54.109375 2.78125
Q 49.265625 0.734375 44.1875 -0.34375
Q 39.109375 -1.421875 33.890625 -1.421875
Q 20.796875 -1.421875 13.15625 6.1875
Q 5.515625 13.8125 5.515625 26.8125
Q 5.515625 40.234375 12.765625 48.109375
Q 20.015625 56 32.328125 56
Q 43.359375 56 49.78125 48.890625
Q 56.203125 41.796875 56.203125 29.59375
z
M 47.21875 32.234375
Q 47.125 39.59375 43.09375 43.984375
Q 39.0625 48.390625 32.421875 48.390625
Q 24.90625 48.390625 20.390625 44.140625
Q 15.875 39.890625 15.1875 32.171875
z
" id="DejaVuSans-101"/>
      <path id="DejaVuSans-32"/>
      <path d="M 18.109375 8.203125
L 18.109375 -20.796875
L 9.078125 -20.796875
L 9.078125 54.6875
L 18.109375 54.6875
L 18.109375 46.390625
Q 20.953125 51.265625 25.265625 53.625
Q 29.59375 56 35.59375 56
Q 45.5625 56 51.78125 48.09375
Q 58.015625 40.1875 58.015625 27.296875
Q 58.015625 14.40625 51.78125 6.484375
Q 45.5625 -1.421875 35.59375 -1.421875
Q 29.59375 -1.421875 25.265625 0.953125
Q 20.953125 3.328125 18.109375 8.203125
z
M 48.6875 27.296875
Q 48.6875 37.203125 44.609375 42.84375
Q 40.53125 48.484375 33.40625 48.484375
Q 26.265625 48.484375 22.1875 42.84375
Q 18.109375 37.203125 18.109375 27.296875
Q 18.109375 17.390625 22.1875 11.75
Q 26.265625 6.109375 33.40625 6.109375
Q 40.53125 6.109375 44.609375 11.75
Q 48.6875 17.390625 48.6875 27.296875
z
" id="DejaVuSans-112"/>
      <path d="M 4.890625 31.390625
L 31.203125 31.390625
L 31.203125 23.390625
L 4.890625 23.390625
z
" id="DejaVuSans-45"/>
      <path d="M 2.984375 54.6875
L 12.5 54.6875
L 29.59375 8.796875
L 46.6875 54.6875
L 56.203125 54.6875
L 35.6875 0
L 23.484375 0
z
" id="DejaVuSans-118"/>
      <path d="M 9.421875 75.984375
L 18.40625 75.984375
L 18.40625 0
L 9.421875 0
z
" id="DejaVuSans-108"/>
      <path d="M 31 75.875
Q 24.46875 64.65625 21.28125 53.65625
Q 18.109375 42.671875 18.109375 31.390625
Q 18.109375 20.125 21.3125 9.0625
Q 24.515625 -2 31 -13.1875
L 23.1875 -13.1875
Q 15.875 -1.703125 12.234375 9.375
Q 8.59375 20.453125 8.59375 31.390625
Q 8.59375 42.28125 12.203125 53.3125
Q 15.828125 64.359375 23.1875 75.875
z
" id="DejaVuSans-40"/>
      <path d="M 19.671875 34.8125
L 19.671875 8.109375
L 35.5 8.109375
Q 43.453125 8.109375 47.28125 11.40625
Q 51.125 14.703125 51.125 21.484375
Q 51.125 28.328125 47.28125 31.5625
Q 43.453125 34.8125 35.5 34.8125
z
M 19.671875 64.796875
L 19.671875 42.828125
L 34.28125 42.828125
Q 41.5 42.828125 45.03125 45.53125
Q 48.578125 48.25 48.578125 53.8125
Q 48.578125 59.328125 45.03125 62.0625
Q 41.5 64.796875 34.28125 64.796875
z
M 9.8125 72.90625
L 35.015625 72.90625
Q 46.296875 72.90625 52.390625 68.21875
Q 58.5 63.53125 58.5 54.890625
Q 58.5 48.1875 55.375 44.234375
Q 52.25 40.28125 46.1875 39.3125
Q 53.46875 37.75 57.5 32.78125
Q 61.53125 27.828125 61.53125 20.40625
Q 61.53125 10.640625 54.890625 5.3125
Q 48.25 0 35.984375 0
L 9.8125 0
z
" id="DejaVuSans-66"/>
      <path d="M 9.8125 72.90625
L 19.671875 72.90625
L 19.671875 43.015625
L 55.515625 43.015625
L 55.515625 72.90625
L 65.375 72.90625
L 65.375 0
L 55.515625 0
L 55.515625 34.71875
L 19.671875 34.71875
L 19.671875 0
L 9.8125 0
z
" id="DejaVuSans-72"/>
      <path d="M 8.015625 75.875
L 15.828125 75.875
Q 23.140625 64.359375 26.78125 53.3125
Q 30.421875 42.28125 30.421875 31.390625
Q 30.421875 20.453125 26.78125 9.375
Q 23.140625 -1.703125 15.828125 -13.1875
L 8.015625 -13.1875
Q 14.5 -2 17.703125 9.0625
Q 20.90625 20.125 20.90625 31.390625
Q 20.90625 42.671875 17.703125 53.65625
Q 14.5 64.65625 8.015625 75.875
z
" id="DejaVuSans-41"/>
     </defs>
     <g transform="translate(141.611328 319.056782)scale(0.15 -0.15)">
      <use xlink:href="#DejaVuSans-97"/>
      <use x="61.279297" xlink:href="#DejaVuSans-100"/>
      <use x="124.755859" xlink:href="#DejaVuSans-106"/>
      <use x="152.539062" xlink:href="#DejaVuSans-117"/>
      <use x="215.917969" xlink:href="#DejaVuSans-115"/>
      <use x="268.017578" xlink:href="#DejaVuSans-116"/>
      <use x="307.226562" xlink:href="#DejaVuSans-101"/>
      <use x="368.75" xlink:href="#DejaVuSans-100"/>
      <use x="432.226562" xlink:href="#DejaVuSans-32"/>
      <use x="464.013672" xlink:href="#DejaVuSans-112"/>
      <use x="527.490234" xlink:href="#DejaVuSans-45"/>
      <use x="563.542969" xlink:href="#DejaVuSans-118"/>
      <use x="622.722656" xlink:href="#DejaVuSans-97"/>
      <use x="684.001953" xlink:href="#DejaVuSans-108"/>
      <use x="711.785156" xlink:href="#DejaVuSans-117"/>
      <use x="775.164062" xlink:href="#DejaVuSans-101"/>
      <use x="836.6875" xlink:href="#DejaVuSans-32"/>
      <use x="868.474609" xlink:href="#DejaVuSans-40"/>
      <use x="907.488281" xlink:href="#DejaVuSans-66"/>
      <use x="976.091797" xlink:href="#DejaVuSans-72"/>
      <use x="1051.287109" xlink:href="#DejaVuSans-41"/>
     </g>
    </g>
   </g>
   <g id="matplotlib.axis_2">
    <g id="ytick_1">
     <g id="line2d_19">
      <path clip-path="url(#pcd947c80fb)" d="M 50.585938 236.544544
L 407.705938 236.544544
" style="fill:none;stroke:#e5e5e5;stroke-width:0.8;"/>
     </g>
     <g id="line2d_20">
      <path d="M 50.585938 236.544544
" style="fill:none;stroke:#000000;stroke-width:1.5;"/>
      <defs>
       <path d="M 0 0
L -2.75 0
" id="m85d31594ad" style="stroke:#000000;"/>
      </defs>
      <g>
       <use style="stroke:#000000;" x="50.585938" xlink:href="#m85d31594ad" y="236.544544"/>
      </g>
     </g>
     <g id="text_7">
      <!-- 0.25 -->
      <g style="fill:#4d4d4d;" transform="translate(18.917188 239.855794)scale(0.12 -0.12)">
       <use xlink:href="#DejaVuSans-48"/>
       <use x="63.623047" xlink:href="#DejaVuSans-46"/>
       <use x="95.410156" xlink:href="#DejaVuSans-50"/>
       <use x="159.033203" xlink:href="#DejaVuSans-53"/>
      </g>
     </g>
    </g>
    <g id="ytick_2">
     <g id="line2d_21">
      <path clip-path="url(#pcd947c80fb)" d="M 50.585938 168.589488
L 407.705938 168.589488
" style="fill:none;stroke:#e5e5e5;stroke-width:0.8;"/>
     </g>
     <g id="line2d_22">
      <path d="M 50.585938 168.589488
" style="fill:none;stroke:#000000;stroke-width:1.5;"/>
      <g>
       <use style="stroke:#000000;" x="50.585938" xlink:href="#m85d31594ad" y="168.589488"/>
      </g>
     </g>
     <g id="text_8">
      <!-- 0.50 -->
      <g style="fill:#4d4d4d;" transform="translate(18.917188 171.900738)scale(0.12 -0.12)">
       <use xlink:href="#DejaVuSans-48"/>
       <use x="63.623047" xlink:href="#DejaVuSans-46"/>
       <use x="95.410156" xlink:href="#DejaVuSans-53"/>
       <use x="159.033203" xlink:href="#DejaVuSans-48"/>
      </g>
     </g>
    </g>
    <g id="ytick_3">
     <g id="line2d_23">
      <path clip-path="url(#pcd947c80fb)" d="M 50.585938 100.634432
L 407.705938 100.634432
" style="fill:none;stroke:#e5e5e5;stroke-width:0.8;"/>
     </g>
     <g id="line2d_24">
      <path d="M 50.585938 100.634432
" style="fill:none;stroke:#000000;stroke-width:1.5;"/>
      <g>
       <use style="stroke:#000000;" x="50.585938" xlink:href="#m85d31594ad" y="100.634432"/>
      </g>
     </g>
     <g id="text_9">
      <!-- 0.75 -->
      <g style="fill:#4d4d4d;" transform="translate(18.917188 103.945682)scale(0.12 -0.12)">
       <use xlink:href="#DejaVuSans-48"/>
       <use x="63.623047" xlink:href="#DejaVuSans-46"/>
       <use x="95.410156" xlink:href="#DejaVuSans-55"/>
       <use x="159.033203" xlink:href="#DejaVuSans-53"/>
      </g>
     </g>
    </g>
    <g id="ytick_4">
     <g id="line2d_25">
      <path clip-path="url(#pcd947c80fb)" d="M 50.585938 32.679376
L 407.705938 32.679376
" style="fill:none;stroke:#e5e5e5;stroke-width:0.8;"/>
     </g>
     <g id="line2d_26">
      <path d="M 50.585938 32.679376
" style="fill:none;stroke:#000000;stroke-width:1.5;"/>
      <g>
       <use style="stroke:#000000;" x="50.585938" xlink:href="#m85d31594ad" y="32.679376"/>
      </g>
     </g>
     <g id="text_10">
      <!-- 1 -->
      <g style="fill:#4d4d4d;" transform="translate(38.000938 35.990626)scale(0.12 -0.12)">
       <use xlink:href="#DejaVuSans-49"/>
      </g>
     </g>
    </g>
    <g id="ytick_5">
     <g id="line2d_27">
      <path clip-path="url(#pcd947c80fb)" d="M 50.585938 270.522072
L 407.705938 270.522072
" style="fill:none;stroke:#fafafa;"/>
     </g>
     <g id="line2d_28">
      <path d="M 50.585938 270.522072
" style="fill:none;stroke:#000000;stroke-width:1.5;"/>
     </g>
    </g>
    <g id="ytick_6">
     <g id="line2d_29">
      <path clip-path="url(#pcd947c80fb)" d="M 50.585938 202.567016
L 407.705938 202.567016
" style="fill:none;stroke:#fafafa;"/>
     </g>
     <g id="line2d_30">
      <path d="M 50.585938 202.567016
" style="fill:none;stroke:#000000;stroke-width:1.5;"/>
     </g>
    </g>
    <g id="ytick_7">
     <g id="line2d_31">
      <path clip-path="url(#pcd947c80fb)" d="M 50.585938 134.61196
L 407.705938 134.61196
" style="fill:none;stroke:#fafafa;"/>
     </g>
     <g id="line2d_32">
      <path d="M 50.585938 134.61196
" style="fill:none;stroke:#000000;stroke-width:1.5;"/>
     </g>
    </g>
    <g id="ytick_8">
     <g id="line2d_33">
      <path clip-path="url(#pcd947c80fb)" d="M 50.585938 66.656904
L 407.705938 66.656904
" style="fill:none;stroke:#fafafa;"/>
     </g>
     <g id="line2d_34">
      <path d="M 50.585938 66.656904
" style="fill:none;stroke:#000000;stroke-width:1.5;"/>
     </g>
    </g>
    <g id="text_11">
     <!-- Percentile of ranking -->
     <defs>
      <path d="M 19.671875 64.796875
L 19.671875 37.40625
L 32.078125 37.40625
Q 38.96875 37.40625 42.71875 40.96875
Q 46.484375 44.53125 46.484375 51.125
Q 46.484375 57.671875 42.71875 61.234375
Q 38.96875 64.796875 32.078125 64.796875
z
M 9.8125 72.90625
L 32.078125 72.90625
Q 44.34375 72.90625 50.609375 67.359375
Q 56.890625 61.8125 56.890625 51.125
Q 56.890625 40.328125 50.609375 34.8125
Q 44.34375 29.296875 32.078125 29.296875
L 19.671875 29.296875
L 19.671875 0
L 9.8125 0
z
" id="DejaVuSans-80"/>
      <path d="M 41.109375 46.296875
Q 39.59375 47.171875 37.8125 47.578125
Q 36.03125 48 33.890625 48
Q 26.265625 48 22.1875 43.046875
Q 18.109375 38.09375 18.109375 28.8125
L 18.109375 0
L 9.078125 0
L 9.078125 54.6875
L 18.109375 54.6875
L 18.109375 46.1875
Q 20.953125 51.171875 25.484375 53.578125
Q 30.03125 56 36.53125 56
Q 37.453125 56 38.578125 55.875
Q 39.703125 55.765625 41.0625 55.515625
z
" id="DejaVuSans-114"/>
      <path d="M 48.78125 52.59375
L 48.78125 44.1875
Q 44.96875 46.296875 41.140625 47.34375
Q 37.3125 48.390625 33.40625 48.390625
Q 24.65625 48.390625 19.8125 42.84375
Q 14.984375 37.3125 14.984375 27.296875
Q 14.984375 17.28125 19.8125 11.734375
Q 24.65625 6.203125 33.40625 6.203125
Q 37.3125 6.203125 41.140625 7.25
Q 44.96875 8.296875 48.78125 10.40625
L 48.78125 2.09375
Q 45.015625 0.34375 40.984375 -0.53125
Q 36.96875 -1.421875 32.421875 -1.421875
Q 20.0625 -1.421875 12.78125 6.34375
Q 5.515625 14.109375 5.515625 27.296875
Q 5.515625 40.671875 12.859375 48.328125
Q 20.21875 56 33.015625 56
Q 37.15625 56 41.109375 55.140625
Q 45.0625 54.296875 48.78125 52.59375
z
" id="DejaVuSans-99"/>
      <path d="M 54.890625 33.015625
L 54.890625 0
L 45.90625 0
L 45.90625 32.71875
Q 45.90625 40.484375 42.875 44.328125
Q 39.84375 48.1875 33.796875 48.1875
Q 26.515625 48.1875 22.3125 43.546875
Q 18.109375 38.921875 18.109375 30.90625
L 18.109375 0
L 9.078125 0
L 9.078125 54.6875
L 18.109375 54.6875
L 18.109375 46.1875
Q 21.34375 51.125 25.703125 53.5625
Q 30.078125 56 35.796875 56
Q 45.21875 56 50.046875 50.171875
Q 54.890625 44.34375 54.890625 33.015625
z
" id="DejaVuSans-110"/>
      <path d="M 9.421875 54.6875
L 18.40625 54.6875
L 18.40625 0
L 9.421875 0
z
M 9.421875 75.984375
L 18.40625 75.984375
L 18.40625 64.59375
L 9.421875 64.59375
z
" id="DejaVuSans-105"/>
      <path d="M 30.609375 48.390625
Q 23.390625 48.390625 19.1875 42.75
Q 14.984375 37.109375 14.984375 27.296875
Q 14.984375 17.484375 19.15625 11.84375
Q 23.34375 6.203125 30.609375 6.203125
Q 37.796875 6.203125 41.984375 11.859375
Q 46.1875 17.53125 46.1875 27.296875
Q 46.1875 37.015625 41.984375 42.703125
Q 37.796875 48.390625 30.609375 48.390625
z
M 30.609375 56
Q 42.328125 56 49.015625 48.375
Q 55.71875 40.765625 55.71875 27.296875
Q 55.71875 13.875 49.015625 6.21875
Q 42.328125 -1.421875 30.609375 -1.421875
Q 18.84375 -1.421875 12.171875 6.21875
Q 5.515625 13.875 5.515625 27.296875
Q 5.515625 40.765625 12.171875 48.375
Q 18.84375 56 30.609375 56
z
" id="DejaVuSans-111"/>
      <path d="M 37.109375 75.984375
L 37.109375 68.5
L 28.515625 68.5
Q 23.6875 68.5 21.796875 66.546875
Q 19.921875 64.59375 19.921875 59.515625
L 19.921875 54.6875
L 34.71875 54.6875
L 34.71875 47.703125
L 19.921875 47.703125
L 19.921875 0
L 10.890625 0
L 10.890625 47.703125
L 2.296875 47.703125
L 2.296875 54.6875
L 10.890625 54.6875
L 10.890625 58.5
Q 10.890625 67.625 15.140625 71.796875
Q 19.390625 75.984375 28.609375 75.984375
z
" id="DejaVuSans-102"/>
      <path d="M 9.078125 75.984375
L 18.109375 75.984375
L 18.109375 31.109375
L 44.921875 54.6875
L 56.390625 54.6875
L 27.390625 29.109375
L 57.625 0
L 45.90625 0
L 18.109375 26.703125
L 18.109375 0
L 9.078125 0
z
" id="DejaVuSans-107"/>
      <path d="M 45.40625 27.984375
Q 45.40625 37.75 41.375 43.109375
Q 37.359375 48.484375 30.078125 48.484375
Q 22.859375 48.484375 18.828125 43.109375
Q 14.796875 37.75 14.796875 27.984375
Q 14.796875 18.265625 18.828125 12.890625
Q 22.859375 7.515625 30.078125 7.515625
Q 37.359375 7.515625 41.375 12.890625
Q 45.40625 18.265625 45.40625 27.984375
z
M 54.390625 6.78125
Q 54.390625 -7.171875 48.1875 -13.984375
Q 42 -20.796875 29.203125 -20.796875
Q 24.46875 -20.796875 20.265625 -20.09375
Q 16.0625 -19.390625 12.109375 -17.921875
L 12.109375 -9.1875
Q 16.0625 -11.328125 19.921875 -12.34375
Q 23.78125 -13.375 27.78125 -13.375
Q 36.625 -13.375 41.015625 -8.765625
Q 45.40625 -4.15625 45.40625 5.171875
L 45.40625 9.625
Q 42.625 4.78125 38.28125 2.390625
Q 33.9375 0 27.875 0
Q 17.828125 0 11.671875 7.65625
Q 5.515625 15.328125 5.515625 27.984375
Q 5.515625 40.671875 11.671875 48.328125
Q 17.828125 56 27.875 56
Q 33.9375 56 38.28125 53.609375
Q 42.625 51.21875 45.40625 46.390625
L 45.40625 54.6875
L 54.390625 54.6875
z
" id="DejaVuSans-103"/>
     </defs>
     <g transform="translate(11.397656 229.709813)rotate(-90)scale(0.15 -0.15)">
      <use xlink:href="#DejaVuSans-80"/>
      <use x="60.255859" xlink:href="#DejaVuSans-101"/>
      <use x="121.779297" xlink:href="#DejaVuSans-114"/>
      <use x="162.861328" xlink:href="#DejaVuSans-99"/>
      <use x="217.841797" xlink:href="#DejaVuSans-101"/>
      <use x="279.365234" xlink:href="#DejaVuSans-110"/>
      <use x="342.744141" xlink:href="#DejaVuSans-116"/>
      <use x="381.953125" xlink:href="#DejaVuSans-105"/>
      <use x="409.736328" xlink:href="#DejaVuSans-108"/>
      <use x="437.519531" xlink:href="#DejaVuSans-101"/>
      <use x="499.042969" xlink:href="#DejaVuSans-32"/>
      <use x="530.830078" xlink:href="#DejaVuSans-111"/>
      <use x="592.011719" xlink:href="#DejaVuSans-102"/>
      <use x="627.216797" xlink:href="#DejaVuSans-32"/>
      <use x="659.003906" xlink:href="#DejaVuSans-114"/>
      <use x="700.117188" xlink:href="#DejaVuSans-97"/>
      <use x="761.396484" xlink:href="#DejaVuSans-110"/>
      <use x="824.775391" xlink:href="#DejaVuSans-107"/>
      <use x="882.685547" xlink:href="#DejaVuSans-105"/>
      <use x="910.46875" xlink:href="#DejaVuSans-110"/>
      <use x="973.847656" xlink:href="#DejaVuSans-103"/>
     </g>
    </g>
   </g>
   <g id="PathCollection_1">
    <path clip-path="url(#pcd947c80fb)" d="M 66.818665 211.134976
C 67.288725 211.134976 67.739596 210.948219 68.071979 210.615836
C 68.404362 210.283453 68.591119 209.832582 68.591119 209.362522
C 68.591119 208.892462 68.404362 208.441591 68.071979 208.109208
C 67.739596 207.776825 67.288725 207.590068 66.818665 207.590068
C 66.348605 207.590068 65.897733 207.776825 65.565351 208.109208
C 65.232968 208.441591 65.046211 208.892462 65.046211 209.362522
C 65.046211 209.832582 65.232968 210.283453 65.565351 210.615836
C 65.897733 210.948219 66.348605 211.134976 66.818665 211.134976
z
" style="stroke:#000000;stroke-width:0.886227;"/>
    <path clip-path="url(#pcd947c80fb)" d="M 66.818665 276.37183
C 67.288725 276.37183 67.739596 276.185073 68.071979 275.85269
C 68.404362 275.520307 68.591119 275.069436 68.591119 274.599376
C 68.591119 274.129316 68.404362 273.678444 68.071979 273.346062
C 67.739596 273.013679 67.288725 272.826922 66.818665 272.826922
C 66.348605 272.826922 65.897733 273.013679 65.565351 273.346062
C 65.232968 273.678444 65.046211 274.129316 65.046211 274.599376
C 65.046211 275.069436 65.232968 275.520307 65.565351 275.85269
C 65.897733 276.185073 66.348605 276.37183 66.818665 276.37183
z
" style="stroke:#000000;stroke-width:0.886227;"/>
    <path clip-path="url(#pcd947c80fb)" d="M 66.818665 211.134976
C 67.288725 211.134976 67.739596 210.948219 68.071979 210.615836
C 68.404362 210.283453 68.591119 209.832582 68.591119 209.362522
C 68.591119 208.892462 68.404362 208.441591 68.071979 208.109208
C 67.739596 207.776825 67.288725 207.590068 66.818665 207.590068
C 66.348605 207.590068 65.897733 207.776825 65.565351 208.109208
C 65.232968 208.441591 65.046211 208.892462 65.046211 209.362522
C 65.046211 209.832582 65.232968 210.283453 65.565351 210.615836
C 65.897733 210.948219 66.348605 211.134976 66.818665 211.134976
z
" style="stroke:#000000;stroke-width:0.886227;"/>
    <path clip-path="url(#pcd947c80fb)" d="M 67.059241 99.688684
C 67.529301 99.688684 67.980172 99.501927 68.312555 99.169544
C 68.644938 98.837161 68.831694 98.38629 68.831694 97.91623
C 68.831694 97.446169 68.644938 96.995298 68.312555 96.662916
C 67.980172 96.330533 67.529301 96.143776 67.059241 96.143776
C 66.58918 96.143776 66.138309 96.330533 65.805926 96.662916
C 65.473544 96.995298 65.286787 97.446169 65.286787 97.91623
C 65.286787 98.38629 65.473544 98.837161 65.805926 99.169544
C 66.138309 99.501927 66.58918 99.688684 67.059241 99.688684
z
" style="stroke:#000000;stroke-width:0.886227;"/>
    <path clip-path="url(#pcd947c80fb)" d="M 67.059241 276.37183
C 67.529301 276.37183 67.980172 276.185073 68.312555 275.85269
C 68.644938 275.520307 68.831694 275.069436 68.831694 274.599376
C 68.831694 274.129316 68.644938 273.678444 68.312555 273.346062
C 67.980172 273.013679 67.529301 272.826922 67.059241 272.826922
C 66.58918 272.826922 66.138309 273.013679 65.805926 273.346062
C 65.473544 273.678444 65.286787 274.129316 65.286787 274.599376
C 65.286787 275.069436 65.473544 275.520307 65.805926 275.85269
C 66.138309 276.185073 66.58918 276.37183 67.059241 276.37183
z
" style="stroke:#000000;stroke-width:0.886227;"/>
    <path clip-path="url(#pcd947c80fb)" d="M 67.059241 224.725987
C 67.529301 224.725987 67.980172 224.53923 68.312555 224.206847
C 68.644938 223.874464 68.831694 223.423593 68.831694 222.953533
C 68.831694 222.483473 68.644938 222.032602 68.312555 221.700219
C 67.980172 221.367836 67.529301 221.181079 67.059241 221.181079
C 66.58918 221.181079 66.138309 221.367836 65.805926 221.700219
C 65.473544 222.032602 65.286787 222.483473 65.286787 222.953533
C 65.286787 223.423593 65.473544 223.874464 65.805926 224.206847
C 66.138309 224.53923 66.58918 224.725987 67.059241 224.725987
z
" style="stroke:#000000;stroke-width:0.886227;"/>
    <path clip-path="url(#pcd947c80fb)" d="M 67.059241 276.37183
C 67.529301 276.37183 67.980172 276.185073 68.312555 275.85269
C 68.644938 275.520307 68.831694 275.069436 68.831694 274.599376
C 68.831694 274.129316 68.644938 273.678444 68.312555 273.346062
C 67.980172 273.013679 67.529301 272.826922 67.059241 272.826922
C 66.58918 272.826922 66.138309 273.013679 65.805926 273.346062
C 65.473544 273.678444 65.286787 274.129316 65.286787 274.599376
C 65.286787 275.069436 65.473544 275.520307 65.805926 275.85269
C 66.138309 276.185073 66.58918 276.37183 67.059241 276.37183
z
" style="stroke:#000000;stroke-width:0.886227;"/>
    <path clip-path="url(#pcd947c80fb)" d="M 67.059241 276.37183
C 67.529301 276.37183 67.980172 276.185073 68.312555 275.85269
C 68.644938 275.520307 68.831694 275.069436 68.831694 274.599376
C 68.831694 274.129316 68.644938 273.678444 68.312555 273.346062
C 67.980172 273.013679 67.529301 272.826922 67.059241 272.826922
C 66.58918 272.826922 66.138309 273.013679 65.805926 273.346062
C 65.473544 273.678444 65.286787 274.129316 65.286787 274.599376
C 65.286787 275.069436 65.473544 275.520307 65.805926 275.85269
C 66.138309 276.185073 66.58918 276.37183 67.059241 276.37183
z
" style="stroke:#000000;stroke-width:0.886227;"/>
    <path clip-path="url(#pcd947c80fb)" d="M 67.059241 235.598796
C 67.529301 235.598796 67.980172 235.412039 68.312555 235.079656
C 68.644938 234.747273 68.831694 234.296402 68.831694 233.826342
C 68.831694 233.356282 68.644938 232.905411 68.312555 232.573028
C 67.980172 232.240645 67.529301 232.053888 67.059241 232.053888
C 66.58918 232.053888 66.138309 232.240645 65.805926 232.573028
C 65.473544 232.905411 65.286787 233.356282 65.286787 233.826342
C 65.286787 234.296402 65.473544 234.747273 65.805926 235.079656
C 66.138309 235.412039 66.58918 235.598796 67.059241 235.598796
z
" style="stroke:#000000;stroke-width:0.886227;"/>
    <path clip-path="url(#pcd947c80fb)" d="M 67.059241 34.45183
C 67.529301 34.45183 67.980172 34.265073 68.312555 33.93269
C 68.644938 33.600307 68.831694 33.149436 68.831694 32.679376
C 68.831694 32.209316 68.644938 31.758444 68.312555 31.426062
C 67.980172 31.093679 67.529301 30.906922 67.059241 30.906922
C 66.58918 30.906922 66.138309 31.093679 65.805926 31.426062
C 65.473544 31.758444 65.286787 32.209316 65.286787 32.679376
C 65.286787 33.149436 65.473544 33.600307 65.805926 33.93269
C 66.138309 34.265073 66.58918 34.45183 67.059241 34.45183
z
" style="stroke:#000000;stroke-width:0.886227;"/>
    <path clip-path="url(#pcd947c80fb)" d="M 67.525051 170.361942
C 67.995111 170.361942 68.445982 170.175185 68.778365 169.842802
C 69.110748 169.51042 69.297505 169.059548 69.297505 168.589488
C 69.297505 168.119428 69.110748 167.668557 68.778365 167.336174
C 68.445982 167.003791 67.995111 166.817034 67.525051 166.817034
C 67.054991 166.817034 66.60412 167.003791 66.271737 167.336174
C 65.939354 167.668557 65.752597 168.119428 65.752597 168.589488
C 65.752597 169.059548 65.939354 169.51042 66.271737 169.842802
C 66.60412 170.175185 67.054991 170.361942 67.525051 170.361942
z
" style="stroke:#000000;stroke-width:0.886227;"/>
    <path clip-path="url(#pcd947c80fb)" d="M 67.525051 115.997897
C 67.995111 115.997897 68.445982 115.81114 68.778365 115.478757
C 69.110748 115.146375 69.297505 114.695503 69.297505 114.225443
C 69.297505 113.755383 69.110748 113.304512 68.778365 112.972129
C 68.445982 112.639746 67.995111 112.452989 67.525051 112.452989
C 67.054991 112.452989 66.60412 112.639746 66.271737 112.972129
C 65.939354 113.304512 65.752597 113.755383 65.752597 114.225443
C 65.752597 114.695503 65.939354 115.146375 66.271737 115.478757
C 66.60412 115.81114 67.054991 115.997897 67.525051 115.997897
z
" style="stroke:#000000;stroke-width:0.886227;"/>
    <path clip-path="url(#pcd947c80fb)" d="M 67.525051 45.324639
C 67.995111 45.324639 68.445982 45.137882 68.778365 44.805499
C 69.110748 44.473116 69.297505 44.022245 69.297505 43.552185
C 69.297505 43.082125 69.110748 42.631253 68.778365 42.298871
C 68.445982 41.966488 67.995111 41.779731 67.525051 41.779731
C 67.054991 41.779731 66.60412 41.966488 66.271737 42.298871
C 65.939354 42.631253 65.752597 43.082125 65.752597 43.552185
C 65.752597 44.022245 65.939354 44.473116 66.271737 44.805499
C 66.60412 45.137882 67.054991 45.324639 67.525051 45.324639
z
" style="stroke:#000000;stroke-width:0.886227;"/>
    <path clip-path="url(#pcd947c80fb)" d="M 68.225262 230.162391
C 68.695323 230.162391 69.146194 229.975635 69.478577 229.643252
C 69.810959 229.310869 69.997716 228.859998 69.997716 228.389938
C 69.997716 227.919877 69.810959 227.469006 69.478577 227.136623
C 69.146194 226.804241 68.695323 226.617484 68.225262 226.617484
C 67.755202 226.617484 67.304331 226.804241 66.971948 227.136623
C 66.639566 227.469006 66.452809 227.919877 66.452809 228.389938
C 66.452809 228.859998 66.639566 229.310869 66.971948 229.643252
C 67.304331 229.975635 67.755202 230.162391 68.225262 230.162391
z
" style="stroke:#000000;stroke-width:0.886227;"/>
    <path clip-path="url(#pcd947c80fb)" d="M 72.227165 276.37183
C 72.697225 276.37183 73.148096 276.185073 73.480479 275.85269
C 73.812862 275.520307 73.999619 275.069436 73.999619 274.599376
C 73.999619 274.129316 73.812862 273.678444 73.480479 273.346062
C 73.148096 273.013679 72.697225 272.826922 72.227165 272.826922
C 71.757105 272.826922 71.306234 273.013679 70.973851 273.346062
C 70.641468 273.678444 70.454711 274.129316 70.454711 274.599376
C 70.454711 275.069436 70.641468 275.520307 70.973851 275.85269
C 71.306234 276.185073 71.757105 276.37183 72.227165 276.37183
z
" style="stroke:#000000;stroke-width:0.886227;"/>
    <path clip-path="url(#pcd947c80fb)" d="M 75.074059 39.888234
C 75.544119 39.888234 75.99499 39.701477 76.327373 39.369094
C 76.659756 39.036712 76.846513 38.585841 76.846513 38.11578
C 76.846513 37.64572 76.659756 37.194849 76.327373 36.862466
C 75.99499 36.530083 75.544119 36.343326 75.074059 36.343326
C 74.603999 36.343326 74.153128 36.530083 73.820745 36.862466
C 73.488362 37.194849 73.301605 37.64572 73.301605 38.11578
C 73.301605 38.585841 73.488362 39.036712 73.820745 39.369094
C 74.153128 39.701477 74.603999 39.888234 75.074059 39.888234
z
" style="stroke:#000000;stroke-width:0.886227;"/>
    <path clip-path="url(#pcd947c80fb)" d="M 75.91331 276.37183
C 76.383371 276.37183 76.834242 276.185073 77.166624 275.85269
C 77.499007 275.520307 77.685764 275.069436 77.685764 274.599376
C 77.685764 274.129316 77.499007 273.678444 77.166624 273.346062
C 76.834242 273.013679 76.383371 272.826922 75.91331 272.826922
C 75.44325 272.826922 74.992379 273.013679 74.659996 273.346062
C 74.327613 273.678444 74.140856 274.129316 74.140856 274.599376
C 74.140856 275.069436 74.327613 275.520307 74.659996 275.85269
C 74.992379 276.185073 75.44325 276.37183 75.91331 276.37183
z
" style="stroke:#000000;stroke-width:0.886227;"/>
    <path clip-path="url(#pcd947c80fb)" d="M 77.433599 219.289582
C 77.903659 219.289582 78.354531 219.102826 78.686913 218.770443
C 79.019296 218.43806 79.206053 217.987189 79.206053 217.517129
C 79.206053 217.047068 79.019296 216.596197 78.686913 216.263814
C 78.354531 215.931432 77.903659 215.744675 77.433599 215.744675
C 76.963539 215.744675 76.512668 215.931432 76.180285 216.263814
C 75.847902 216.596197 75.661145 217.047068 75.661145 217.517129
C 75.661145 217.987189 75.847902 218.43806 76.180285 218.770443
C 76.512668 219.102826 76.963539 219.289582 77.433599 219.289582
z
" style="stroke:#000000;stroke-width:0.886227;"/>
    <path clip-path="url(#pcd947c80fb)" d="M 83.225566 67.070257
C 83.695626 67.070257 84.146498 66.8835 84.47888 66.551117
C 84.811263 66.218734 84.99802 65.767863 84.99802 65.297803
C 84.99802 64.827743 84.811263 64.376871 84.47888 64.044489
C 84.146498 63.712106 83.695626 63.525349 83.225566 63.525349
C 82.755506 63.525349 82.304635 63.712106 81.972252 64.044489
C 81.639869 64.376871 81.453112 64.827743 81.453112 65.297803
C 81.453112 65.767863 81.639869 66.218734 81.972252 66.551117
C 82.304635 66.8835 82.755506 67.070257 83.225566 67.070257
z
" style="stroke:#000000;stroke-width:0.886227;"/>
    <path clip-path="url(#pcd947c80fb)" d="M 85.8894 110.561493
C 86.35946 110.561493 86.810331 110.374736 87.142714 110.042353
C 87.475097 109.70997 87.661854 109.259099 87.661854 108.789039
C 87.661854 108.318978 87.475097 107.868107 87.142714 107.535725
C 86.810331 107.203342 86.35946 107.016585 85.8894 107.016585
C 85.419339 107.016585 84.968468 107.203342 84.636086 107.535725
C 84.303703 107.868107 84.116946 108.318978 84.116946 108.789039
C 84.116946 109.259099 84.303703 109.70997 84.636086 110.042353
C 84.968468 110.374736 85.419339 110.561493 85.8894 110.561493
z
" style="stroke:#000000;stroke-width:0.886227;"/>
    <path clip-path="url(#pcd947c80fb)" d="M 86.053175 154.052729
C 86.523235 154.052729 86.974107 153.865972 87.306489 153.533589
C 87.638872 153.201206 87.825629 152.750335 87.825629 152.280275
C 87.825629 151.810214 87.638872 151.359343 87.306489 151.026961
C 86.974107 150.694578 86.523235 150.507821 86.053175 150.507821
C 85.583115 150.507821 85.132244 150.694578 84.799861 151.026961
C 84.467478 151.359343 84.280721 151.810214 84.280721 152.280275
C 84.280721 152.750335 84.467478 153.201206 84.799861 153.533589
C 85.132244 153.865972 85.583115 154.052729 86.053175 154.052729
z
" style="stroke:#000000;stroke-width:0.886227;"/>
    <path clip-path="url(#pcd947c80fb)" d="M 89.454409 276.37183
C 89.924469 276.37183 90.37534 276.185073 90.707723 275.85269
C 91.040106 275.520307 91.226862 275.069436 91.226862 274.599376
C 91.226862 274.129316 91.040106 273.678444 90.707723 273.346062
C 90.37534 273.013679 89.924469 272.826922 89.454409 272.826922
C 88.984348 272.826922 88.533477 273.013679 88.201094 273.346062
C 87.868712 273.678444 87.681955 274.129316 87.681955 274.599376
C 87.681955 275.069436 87.868712 275.520307 88.201094 275.85269
C 88.533477 276.185073 88.984348 276.37183 89.454409 276.37183
z
" style="stroke:#000000;stroke-width:0.886227;"/>
    <path clip-path="url(#pcd947c80fb)" d="M 109.093946 143.17992
C 109.564006 143.17992 110.014877 142.993163 110.34726 142.66078
C 110.679642 142.328397 110.866399 141.877526 110.866399 141.407466
C 110.866399 140.937405 110.679642 140.486534 110.34726 140.154152
C 110.014877 139.821769 109.564006 139.635012 109.093946 139.635012
C 108.623885 139.635012 108.173014 139.821769 107.840631 140.154152
C 107.508249 140.486534 107.321492 140.937405 107.321492 141.407466
C 107.321492 141.877526 107.508249 142.328397 107.840631 142.66078
C 108.173014 142.993163 108.623885 143.17992 109.093946 143.17992
z
" style="stroke:#000000;stroke-width:0.886227;"/>
    <path clip-path="url(#pcd947c80fb)" d="M 128.372926 137.743515
C 128.842986 137.743515 129.293857 137.556758 129.62624 137.224375
C 129.958622 136.891993 130.145379 136.441121 130.145379 135.971061
C 130.145379 135.501001 129.958622 135.05013 129.62624 134.717747
C 129.293857 134.385364 128.842986 134.198607 128.372926 134.198607
C 127.902865 134.198607 127.451994 134.385364 127.119611 134.717747
C 126.787229 135.05013 126.600472 135.501001 126.600472 135.971061
C 126.600472 136.441121 126.787229 136.891993 127.119611 137.224375
C 127.451994 137.556758 127.902865 137.743515 128.372926 137.743515
z
" style="stroke:#000000;stroke-width:0.886227;"/>
    <path clip-path="url(#pcd947c80fb)" d="M 135.607586 88.815875
C 136.077646 88.815875 136.528517 88.629118 136.8609 88.296735
C 137.193283 87.964352 137.38004 87.513481 137.38004 87.043421
C 137.38004 86.573361 137.193283 86.122489 136.8609 85.790107
C 136.528517 85.457724 136.077646 85.270967 135.607586 85.270967
C 135.137526 85.270967 134.686655 85.457724 134.354272 85.790107
C 134.021889 86.122489 133.835132 86.573361 133.835132 87.043421
C 133.835132 87.513481 134.021889 87.964352 134.354272 88.296735
C 134.686655 88.629118 135.137526 88.815875 135.607586 88.815875
z
" style="stroke:#000000;stroke-width:0.886227;"/>
    <path clip-path="url(#pcd947c80fb)" d="M 135.607586 72.506661
C 136.077646 72.506661 136.528517 72.319904 136.8609 71.987521
C 137.193283 71.655139 137.38004 71.204268 137.38004 70.734207
C 137.38004 70.264147 137.193283 69.813276 136.8609 69.480893
C 136.528517 69.14851 136.077646 68.961753 135.607586 68.961753
C 135.137526 68.961753 134.686655 69.14851 134.354272 69.480893
C 134.021889 69.813276 133.835132 70.264147 133.835132 70.734207
C 133.835132 71.204268 134.021889 71.655139 134.354272 71.987521
C 134.686655 72.319904 135.137526 72.506661 135.607586 72.506661
z
" style="stroke:#000000;stroke-width:0.886227;"/>
    <path clip-path="url(#pcd947c80fb)" d="M 135.607586 50.761043
C 136.077646 50.761043 136.528517 50.574286 136.8609 50.241903
C 137.193283 49.909521 137.38004 49.45865 137.38004 48.988589
C 137.38004 48.518529 137.193283 48.067658 136.8609 47.735275
C 136.528517 47.402892 136.077646 47.216135 135.607586 47.216135
C 135.137526 47.216135 134.686655 47.402892 134.354272 47.735275
C 134.021889 48.067658 133.835132 48.518529 133.835132 48.988589
C 133.835132 49.45865 134.021889 49.909521 134.354272 50.241903
C 134.686655 50.574286 135.137526 50.761043 135.607586 50.761043
z
" style="stroke:#000000;stroke-width:0.886227;"/>
    <path clip-path="url(#pcd947c80fb)" d="M 139.933998 56.197448
C 140.404058 56.197448 140.85493 56.010691 141.187312 55.678308
C 141.519695 55.345925 141.706452 54.895054 141.706452 54.424994
C 141.706452 53.954934 141.519695 53.504062 141.187312 53.17168
C 140.85493 52.839297 140.404058 52.65254 139.933998 52.65254
C 139.463938 52.65254 139.013067 52.839297 138.680684 53.17168
C 138.348301 53.504062 138.161544 53.954934 138.161544 54.424994
C 138.161544 54.895054 138.348301 55.345925 138.680684 55.678308
C 139.013067 56.010691 139.463938 56.197448 139.933998 56.197448
z
" style="stroke:#000000;stroke-width:0.886227;"/>
    <path clip-path="url(#pcd947c80fb)" d="M 156.728065 192.10756
C 157.198125 192.10756 157.648996 191.920803 157.981379 191.58842
C 158.313762 191.256037 158.500519 190.805166 158.500519 190.335106
C 158.500519 189.865046 158.313762 189.414175 157.981379 189.081792
C 157.648996 188.749409 157.198125 188.562652 156.728065 188.562652
C 156.258005 188.562652 155.807134 188.749409 155.474751 189.081792
C 155.142368 189.414175 154.955611 189.865046 154.955611 190.335106
C 154.955611 190.805166 155.142368 191.256037 155.474751 191.58842
C 155.807134 191.920803 156.258005 192.10756 156.728065 192.10756
z
" style="stroke:#000000;stroke-width:0.886227;"/>
    <path clip-path="url(#pcd947c80fb)" d="M 156.728065 164.925538
C 157.198125 164.925538 157.648996 164.738781 157.981379 164.406398
C 158.313762 164.074015 158.500519 163.623144 158.500519 163.153084
C 158.500519 162.683023 158.313762 162.232152 157.981379 161.89977
C 157.648996 161.567387 157.198125 161.38063 156.728065 161.38063
C 156.258005 161.38063 155.807134 161.567387 155.474751 161.89977
C 155.142368 162.232152 154.955611 162.683023 154.955611 163.153084
C 154.955611 163.623144 155.142368 164.074015 155.474751 164.406398
C 155.807134 164.738781 156.258005 164.925538 156.728065 164.925538
z
" style="stroke:#000000;stroke-width:0.886227;"/>
    <path clip-path="url(#pcd947c80fb)" d="M 156.901097 246.471605
C 157.371157 246.471605 157.822028 246.284848 158.154411 245.952465
C 158.486794 245.620082 158.67355 245.169211 158.67355 244.699151
C 158.67355 244.229091 158.486794 243.77822 158.154411 243.445837
C 157.822028 243.113454 157.371157 242.926697 156.901097 242.926697
C 156.431036 242.926697 155.980165 243.113454 155.647782 243.445837
C 155.3154 243.77822 155.128643 244.229091 155.128643 244.699151
C 155.128643 245.169211 155.3154 245.620082 155.647782 245.952465
C 155.980165 246.284848 156.431036 246.471605 156.901097 246.471605
z
" style="stroke:#000000;stroke-width:0.886227;"/>
    <path clip-path="url(#pcd947c80fb)" d="M 173.306714 148.616324
C 173.776774 148.616324 174.227645 148.429567 174.560028 148.097184
C 174.892411 147.764802 175.079168 147.31393 175.079168 146.84387
C 175.079168 146.37381 174.892411 145.922939 174.560028 145.590556
C 174.227645 145.258173 173.776774 145.071416 173.306714 145.071416
C 172.836653 145.071416 172.385782 145.258173 172.0534 145.590556
C 171.721017 145.922939 171.53426 146.37381 171.53426 146.84387
C 171.53426 147.31393 171.721017 147.764802 172.0534 148.097184
C 172.385782 148.429567 172.836653 148.616324 173.306714 148.616324
z
" style="stroke:#000000;stroke-width:0.886227;"/>
    <path clip-path="url(#pcd947c80fb)" d="M 174.432677 186.671156
C 174.902738 186.671156 175.353609 186.484399 175.685991 186.152016
C 176.018374 185.819633 176.205131 185.368762 176.205131 184.898702
C 176.205131 184.428641 176.018374 183.97777 175.685991 183.645388
C 175.353609 183.313005 174.902738 183.126248 174.432677 183.126248
C 173.962617 183.126248 173.511746 183.313005 173.179363 183.645388
C 172.84698 183.97777 172.660224 184.428641 172.660224 184.898702
C 172.660224 185.368762 172.84698 185.819633 173.179363 186.152016
C 173.511746 186.484399 173.962617 186.671156 174.432677 186.671156
z
" style="stroke:#000000;stroke-width:0.886227;"/>
    <path clip-path="url(#pcd947c80fb)" d="M 174.432677 181.234751
C 174.902738 181.234751 175.353609 181.047994 175.685991 180.715611
C 176.018374 180.383229 176.205131 179.932357 176.205131 179.462297
C 176.205131 178.992237 176.018374 178.541366 175.685991 178.208983
C 175.353609 177.8766 174.902738 177.689843 174.432677 177.689843
C 173.962617 177.689843 173.511746 177.8766 173.179363 178.208983
C 172.84698 178.541366 172.660224 178.992237 172.660224 179.462297
C 172.660224 179.932357 172.84698 180.383229 173.179363 180.715611
C 173.511746 181.047994 173.962617 181.234751 174.432677 181.234751
z
" style="stroke:#000000;stroke-width:0.886227;"/>
    <path clip-path="url(#pcd947c80fb)" d="M 174.432677 197.543964
C 174.902738 197.543964 175.353609 197.357208 175.685991 197.024825
C 176.018374 196.692442 176.205131 196.241571 176.205131 195.771511
C 176.205131 195.30145 176.018374 194.850579 175.685991 194.518197
C 175.353609 194.185814 174.902738 193.999057 174.432677 193.999057
C 173.962617 193.999057 173.511746 194.185814 173.179363 194.518197
C 172.84698 194.850579 172.660224 195.30145 172.660224 195.771511
C 172.660224 196.241571 172.84698 196.692442 173.179363 197.024825
C 173.511746 197.357208 173.962617 197.543964 174.432677 197.543964
z
" style="stroke:#000000;stroke-width:0.886227;"/>
    <path clip-path="url(#pcd947c80fb)" d="M 194.795989 126.870706
C 195.266049 126.870706 195.71692 126.683949 196.049303 126.351566
C 196.381686 126.019184 196.568443 125.568312 196.568443 125.098252
C 196.568443 124.628192 196.381686 124.177321 196.049303 123.844938
C 195.71692 123.512555 195.266049 123.325798 194.795989 123.325798
C 194.325929 123.325798 193.875057 123.512555 193.542675 123.844938
C 193.210292 124.177321 193.023535 124.628192 193.023535 125.098252
C 193.023535 125.568312 193.210292 126.019184 193.542675 126.351566
C 193.875057 126.683949 194.325929 126.870706 194.795989 126.870706
z
" style="stroke:#000000;stroke-width:0.886227;"/>
    <path clip-path="url(#pcd947c80fb)" d="M 208.992031 132.307111
C 209.462092 132.307111 209.912963 132.120354 210.245345 131.787971
C 210.577728 131.455588 210.764485 131.004717 210.764485 130.534657
C 210.764485 130.064596 210.577728 129.613725 210.245345 129.281343
C 209.912963 128.94896 209.462092 128.762203 208.992031 128.762203
C 208.521971 128.762203 208.0711 128.94896 207.738717 129.281343
C 207.406334 129.613725 207.219577 130.064596 207.219577 130.534657
C 207.219577 131.004717 207.406334 131.455588 207.738717 131.787971
C 208.0711 132.120354 208.521971 132.307111 208.992031 132.307111
z
" style="stroke:#000000;stroke-width:0.886227;"/>
    <path clip-path="url(#pcd947c80fb)" d="M 235.169088 105.125088
C 235.639148 105.125088 236.090019 104.938331 236.422402 104.605948
C 236.754785 104.273566 236.941542 103.822695 236.941542 103.352634
C 236.941542 102.882574 236.754785 102.431703 236.422402 102.09932
C 236.090019 101.766937 235.639148 101.58018 235.169088 101.58018
C 234.699028 101.58018 234.248157 101.766937 233.915774 102.09932
C 233.583391 102.431703 233.396634 102.882574 233.396634 103.352634
C 233.396634 103.822695 233.583391 104.273566 233.915774 104.605948
C 234.248157 104.938331 234.699028 105.125088 235.169088 105.125088
z
" style="stroke:#000000;stroke-width:0.886227;"/>
    <path clip-path="url(#pcd947c80fb)" d="M 254.122724 61.633852
C 254.592784 61.633852 255.043655 61.447095 255.376038 61.114712
C 255.708421 60.78233 255.895178 60.331459 255.895178 59.861398
C 255.895178 59.391338 255.708421 58.940467 255.376038 58.608084
C 255.043655 58.275701 254.592784 58.088944 254.122724 58.088944
C 253.652664 58.088944 253.201792 58.275701 252.86941 58.608084
C 252.537027 58.940467 252.35027 59.391338 252.35027 59.861398
C 252.35027 60.331459 252.537027 60.78233 252.86941 61.114712
C 253.201792 61.447095 253.652664 61.633852 254.122724 61.633852
z
" style="stroke:#000000;stroke-width:0.886227;"/>
    <path clip-path="url(#pcd947c80fb)" d="M 270.842211 276.37183
C 271.312271 276.37183 271.763142 276.185073 272.095525 275.85269
C 272.427908 275.520307 272.614665 275.069436 272.614665 274.599376
C 272.614665 274.129316 272.427908 273.678444 272.095525 273.346062
C 271.763142 273.013679 271.312271 272.826922 270.842211 272.826922
C 270.372151 272.826922 269.921279 273.013679 269.588897 273.346062
C 269.256514 273.678444 269.069757 274.129316 269.069757 274.599376
C 269.069757 275.069436 269.256514 275.520307 269.588897 275.85269
C 269.921279 276.185073 270.372151 276.37183 270.842211 276.37183
z
" style="stroke:#000000;stroke-width:0.886227;"/>
    <path clip-path="url(#pcd947c80fb)" d="M 287.835864 276.37183
C 288.305925 276.37183 288.756796 276.185073 289.089179 275.85269
C 289.421561 275.520307 289.608318 275.069436 289.608318 274.599376
C 289.608318 274.129316 289.421561 273.678444 289.089179 273.346062
C 288.756796 273.013679 288.305925 272.826922 287.835864 272.826922
C 287.365804 272.826922 286.914933 273.013679 286.58255 273.346062
C 286.250167 273.678444 286.063411 274.129316 286.063411 274.599376
C 286.063411 275.069436 286.250167 275.520307 286.58255 275.85269
C 286.914933 276.185073 287.365804 276.37183 287.835864 276.37183
z
" style="stroke:#000000;stroke-width:0.886227;"/>
    <path clip-path="url(#pcd947c80fb)" d="M 296.957121 159.489133
C 297.427181 159.489133 297.878052 159.302376 298.210435 158.969993
C 298.542818 158.637611 298.729575 158.186739 298.729575 157.716679
C 298.729575 157.246619 298.542818 156.795748 298.210435 156.463365
C 297.878052 156.130982 297.427181 155.944225 296.957121 155.944225
C 296.487061 155.944225 296.03619 156.130982 295.703807 156.463365
C 295.371424 156.795748 295.184667 157.246619 295.184667 157.716679
C 295.184667 158.186739 295.371424 158.637611 295.703807 158.969993
C 296.03619 159.302376 296.487061 159.489133 296.957121 159.489133
z
" style="stroke:#000000;stroke-width:0.886227;"/>
    <path clip-path="url(#pcd947c80fb)" d="M 353.47996 175.798347
C 353.95002 175.798347 354.400891 175.61159 354.733274 175.279207
C 355.065657 174.946824 355.252414 174.495953 355.252414 174.025893
C 355.252414 173.555832 355.065657 173.104961 354.733274 172.772579
C 354.400891 172.440196 353.95002 172.253439 353.47996 172.253439
C 353.0099 172.253439 352.559029 172.440196 352.226646 172.772579
C 351.894263 173.104961 351.707506 173.555832 351.707506 174.025893
C 351.707506 174.495953 351.894263 174.946824 352.226646 175.279207
C 352.559029 175.61159 353.0099 175.798347 353.47996 175.798347
z
" style="stroke:#000000;stroke-width:0.886227;"/>
    <path clip-path="url(#pcd947c80fb)" d="M 353.47996 83.37947
C 353.95002 83.37947 354.400891 83.192713 354.733274 82.86033
C 355.065657 82.527948 355.252414 82.077077 355.252414 81.607016
C 355.252414 81.136956 355.065657 80.686085 354.733274 80.353702
C 354.400891 80.021319 353.95002 79.834562 353.47996 79.834562
C 353.0099 79.834562 352.559029 80.021319 352.226646 80.353702
C 351.894263 80.686085 351.707506 81.136956 351.707506 81.607016
C 351.707506 82.077077 351.894263 82.527948 352.226646 82.86033
C 352.559029 83.192713 353.0099 83.37947 353.47996 83.37947
z
" style="stroke:#000000;stroke-width:0.886227;"/>
    <path clip-path="url(#pcd947c80fb)" d="M 363.250769 121.434302
C 363.720829 121.434302 364.1717 121.247545 364.504083 120.915162
C 364.836466 120.582779 365.023223 120.131908 365.023223 119.661848
C 365.023223 119.191787 364.836466 118.740916 364.504083 118.408534
C 364.1717 118.076151 363.720829 117.889394 363.250769 117.889394
C 362.780709 117.889394 362.329838 118.076151 361.997455 118.408534
C 361.665072 118.740916 361.478315 119.191787 361.478315 119.661848
C 361.478315 120.131908 361.665072 120.582779 361.997455 120.915162
C 362.329838 121.247545 362.780709 121.434302 363.250769 121.434302
z
" style="stroke:#000000;stroke-width:0.886227;"/>
    <path clip-path="url(#pcd947c80fb)" d="M 367.174966 241.0352
C 367.645026 241.0352 368.095897 240.848444 368.42828 240.516061
C 368.760662 240.183678 368.947419 239.732807 368.947419 239.262747
C 368.947419 238.792686 368.760662 238.341815 368.42828 238.009432
C 368.095897 237.67705 367.645026 237.490293 367.174966 237.490293
C 366.704905 237.490293 366.254034 237.67705 365.921651 238.009432
C 365.589269 238.341815 365.402512 238.792686 365.402512 239.262747
C 365.402512 239.732807 365.589269 240.183678 365.921651 240.516061
C 366.254034 240.848444 366.704905 241.0352 367.174966 241.0352
z
" style="stroke:#000000;stroke-width:0.886227;"/>
    <path clip-path="url(#pcd947c80fb)" d="M 391.47321 276.37183
C 391.94327 276.37183 392.394142 276.185073 392.726524 275.85269
C 393.058907 275.520307 393.245664 275.069436 393.245664 274.599376
C 393.245664 274.129316 393.058907 273.678444 392.726524 273.346062
C 392.394142 273.013679 391.94327 272.826922 391.47321 272.826922
C 391.00315 272.826922 390.552279 273.013679 390.219896 273.346062
C 389.887513 273.678444 389.700756 274.129316 389.700756 274.599376
C 389.700756 275.069436 389.887513 275.520307 390.219896 275.85269
C 390.552279 276.185073 391.00315 276.37183 391.47321 276.37183
z
" style="stroke:#000000;stroke-width:0.886227;"/>
    <path clip-path="url(#pcd947c80fb)" d="M 391.47321 202.980369
C 391.94327 202.980369 392.394142 202.793612 392.726524 202.461229
C 393.058907 202.128846 393.245664 201.677975 393.245664 201.207915
C 393.245664 200.737855 393.058907 200.286984 392.726524 199.954601
C 392.394142 199.622218 391.94327 199.435461 391.47321 199.435461
C 391.00315 199.435461 390.552279 199.622218 390.219896 199.954601
C 389.887513 200.286984 389.700756 200.737855 389.700756 201.207915
C 389.700756 201.677975 389.887513 202.128846 390.219896 202.461229
C 390.552279 202.793612 391.00315 202.980369 391.47321 202.980369
z
" style="stroke:#000000;stroke-width:0.886227;"/>
    <path clip-path="url(#pcd947c80fb)" d="M 391.47321 94.252279
C 391.94327 94.252279 392.394142 94.065522 392.726524 93.733139
C 393.058907 93.400757 393.245664 92.949886 393.245664 92.479825
C 393.245664 92.009765 393.058907 91.558894 392.726524 91.226511
C 392.394142 90.894128 391.94327 90.707371 391.47321 90.707371
C 391.00315 90.707371 390.552279 90.894128 390.219896 91.226511
C 389.887513 91.558894 389.700756 92.009765 389.700756 92.479825
C 389.700756 92.949886 389.887513 93.400757 390.219896 93.733139
C 390.552279 94.065522 391.00315 94.252279 391.47321 94.252279
z
" style="stroke:#000000;stroke-width:0.886227;"/>
    <path clip-path="url(#pcd947c80fb)" d="M 391.47321 77.943066
C 391.94327 77.943066 392.394142 77.756309 392.726524 77.423926
C 393.058907 77.091543 393.245664 76.640672 393.245664 76.170612
C 393.245664 75.700552 393.058907 75.24968 392.726524 74.917298
C 392.394142 74.584915 391.94327 74.398158 391.47321 74.398158
C 391.00315 74.398158 390.552279 74.584915 390.219896 74.917298
C 389.887513 75.24968 389.700756 75.700552 389.700756 76.170612
C 389.700756 76.640672 389.887513 77.091543 390.219896 77.423926
C 390.552279 77.756309 391.00315 77.943066 391.47321 77.943066
z
" style="stroke:#000000;stroke-width:0.886227;"/>
   </g>
   <g id="PathCollection_2">
    <path clip-path="url(#pcd947c80fb)" d="M 67.059241 34.45183
C 67.529301 34.45183 67.980172 34.265073 68.312555 33.93269
C 68.644938 33.600307 68.831694 33.149436 68.831694 32.679376
C 68.831694 32.209316 68.644938 31.758444 68.312555 31.426062
C 67.980172 31.093679 67.529301 30.906922 67.059241 30.906922
C 66.58918 30.906922 66.138309 31.093679 65.805926 31.426062
C 65.473544 31.758444 65.286787 32.209316 65.286787 32.679376
C 65.286787 33.149436 65.473544 33.600307 65.805926 33.93269
C 66.138309 34.265073 66.58918 34.45183 67.059241 34.45183
z
" style="fill:#ff0000;stroke:#ff0000;stroke-width:0.886227;"/>
    <path clip-path="url(#pcd947c80fb)" d="M 67.525051 45.324639
C 67.995111 45.324639 68.445982 45.137882 68.778365 44.805499
C 69.110748 44.473116 69.297505 44.022245 69.297505 43.552185
C 69.297505 43.082125 69.110748 42.631253 68.778365 42.298871
C 68.445982 41.966488 67.995111 41.779731 67.525051 41.779731
C 67.054991 41.779731 66.60412 41.966488 66.271737 42.298871
C 65.939354 42.631253 65.752597 43.082125 65.752597 43.552185
C 65.752597 44.022245 65.939354 44.473116 66.271737 44.805499
C 66.60412 45.137882 67.054991 45.324639 67.525051 45.324639
z
" style="fill:#ff0000;stroke:#ff0000;stroke-width:0.886227;"/>
    <path clip-path="url(#pcd947c80fb)" d="M 75.074059 39.888234
C 75.544119 39.888234 75.99499 39.701477 76.327373 39.369094
C 76.659756 39.036712 76.846513 38.585841 76.846513 38.11578
C 76.846513 37.64572 76.659756 37.194849 76.327373 36.862466
C 75.99499 36.530083 75.544119 36.343326 75.074059 36.343326
C 74.603999 36.343326 74.153128 36.530083 73.820745 36.862466
C 73.488362 37.194849 73.301605 37.64572 73.301605 38.11578
C 73.301605 38.585841 73.488362 39.036712 73.820745 39.369094
C 74.153128 39.701477 74.603999 39.888234 75.074059 39.888234
z
" style="fill:#ff0000;stroke:#ff0000;stroke-width:0.886227;"/>
    <path clip-path="url(#pcd947c80fb)" d="M 135.607586 50.761043
C 136.077646 50.761043 136.528517 50.574286 136.8609 50.241903
C 137.193283 49.909521 137.38004 49.45865 137.38004 48.988589
C 137.38004 48.518529 137.193283 48.067658 136.8609 47.735275
C 136.528517 47.402892 136.077646 47.216135 135.607586 47.216135
C 135.137526 47.216135 134.686655 47.402892 134.354272 47.735275
C 134.021889 48.067658 133.835132 48.518529 133.835132 48.988589
C 133.835132 49.45865 134.021889 49.909521 134.354272 50.241903
C 134.686655 50.574286 135.137526 50.761043 135.607586 50.761043
z
" style="fill:#ff0000;stroke:#ff0000;stroke-width:0.886227;"/>
    <path clip-path="url(#pcd947c80fb)" d="M 139.933998 56.197448
C 140.404058 56.197448 140.85493 56.010691 141.187312 55.678308
C 141.519695 55.345925 141.706452 54.895054 141.706452 54.424994
C 141.706452 53.954934 141.519695 53.504062 141.187312 53.17168
C 140.85493 52.839297 140.404058 52.65254 139.933998 52.65254
C 139.463938 52.65254 139.013067 52.839297 138.680684 53.17168
C 138.348301 53.504062 138.161544 53.954934 138.161544 54.424994
C 138.161544 54.895054 138.348301 55.345925 138.680684 55.678308
C 139.013067 56.010691 139.463938 56.197448 139.933998 56.197448
z
" style="fill:#ff0000;stroke:#ff0000;stroke-width:0.886227;"/>
   </g>
   <g id="text_12">
    <g clip-path="url(#pcd947c80fb)">
     <!-- HALLMARK_MYOGENESIS -->
     <defs>
      <path d="M 34.1875 63.1875
L 20.796875 26.90625
L 47.609375 26.90625
z
M 28.609375 72.90625
L 39.796875 72.90625
L 67.578125 0
L 57.328125 0
L 50.6875 18.703125
L 17.828125 18.703125
L 11.1875 0
L 0.78125 0
z
" id="DejaVuSans-65"/>
      <path d="M 9.8125 72.90625
L 19.671875 72.90625
L 19.671875 8.296875
L 55.171875 8.296875
L 55.171875 0
L 9.8125 0
z
" id="DejaVuSans-76"/>
      <path d="M 9.8125 72.90625
L 24.515625 72.90625
L 43.109375 23.296875
L 61.8125 72.90625
L 76.515625 72.90625
L 76.515625 0
L 66.890625 0
L 66.890625 64.015625
L 48.09375 14.015625
L 38.1875 14.015625
L 19.390625 64.015625
L 19.390625 0
L 9.8125 0
z
" id="DejaVuSans-77"/>
      <path d="M 44.390625 34.1875
Q 47.5625 33.109375 50.5625 29.59375
Q 53.5625 26.078125 56.59375 19.921875
L 66.609375 0
L 56 0
L 46.6875 18.703125
Q 43.0625 26.03125 39.671875 28.421875
Q 36.28125 30.8125 30.421875 30.8125
L 19.671875 30.8125
L 19.671875 0
L 9.8125 0
L 9.8125 72.90625
L 32.078125 72.90625
Q 44.578125 72.90625 50.734375 67.671875
Q 56.890625 62.453125 56.890625 51.90625
Q 56.890625 45.015625 53.6875 40.46875
Q 50.484375 35.9375 44.390625 34.1875
z
M 19.671875 64.796875
L 19.671875 38.921875
L 32.078125 38.921875
Q 39.203125 38.921875 42.84375 42.21875
Q 46.484375 45.515625 46.484375 51.90625
Q 46.484375 58.296875 42.84375 61.546875
Q 39.203125 64.796875 32.078125 64.796875
z
" id="DejaVuSans-82"/>
      <path d="M 9.8125 72.90625
L 19.671875 72.90625
L 19.671875 42.09375
L 52.390625 72.90625
L 65.09375 72.90625
L 28.90625 38.921875
L 67.671875 0
L 54.6875 0
L 19.671875 35.109375
L 19.671875 0
L 9.8125 0
z
" id="DejaVuSans-75"/>
      <path d="M 50.984375 -16.609375
L 50.984375 -23.578125
L -0.984375 -23.578125
L -0.984375 -16.609375
z
" id="DejaVuSans-95"/>
      <path d="M -0.203125 72.90625
L 10.40625 72.90625
L 30.609375 42.921875
L 50.6875 72.90625
L 61.28125 72.90625
L 35.5 34.71875
L 35.5 0
L 25.59375 0
L 25.59375 34.71875
z
" id="DejaVuSans-89"/>
      <path d="M 39.40625 66.21875
Q 28.65625 66.21875 22.328125 58.203125
Q 16.015625 50.203125 16.015625 36.375
Q 16.015625 22.609375 22.328125 14.59375
Q 28.65625 6.59375 39.40625 6.59375
Q 50.140625 6.59375 56.421875 14.59375
Q 62.703125 22.609375 62.703125 36.375
Q 62.703125 50.203125 56.421875 58.203125
Q 50.140625 66.21875 39.40625 66.21875
z
M 39.40625 74.21875
Q 54.734375 74.21875 63.90625 63.9375
Q 73.09375 53.65625 73.09375 36.375
Q 73.09375 19.140625 63.90625 8.859375
Q 54.734375 -1.421875 39.40625 -1.421875
Q 24.03125 -1.421875 14.8125 8.828125
Q 5.609375 19.09375 5.609375 36.375
Q 5.609375 53.65625 14.8125 63.9375
Q 24.03125 74.21875 39.40625 74.21875
z
" id="DejaVuSans-79"/>
      <path d="M 59.515625 10.40625
L 59.515625 29.984375
L 43.40625 29.984375
L 43.40625 38.09375
L 69.28125 38.09375
L 69.28125 6.78125
Q 63.578125 2.734375 56.6875 0.65625
Q 49.8125 -1.421875 42 -1.421875
Q 24.90625 -1.421875 15.25 8.5625
Q 5.609375 18.5625 5.609375 36.375
Q 5.609375 54.25 15.25 64.234375
Q 24.90625 74.21875 42 74.21875
Q 49.125 74.21875 55.546875 72.453125
Q 61.96875 70.703125 67.390625 67.28125
L 67.390625 56.78125
Q 61.921875 61.421875 55.765625 63.765625
Q 49.609375 66.109375 42.828125 66.109375
Q 29.4375 66.109375 22.71875 58.640625
Q 16.015625 51.171875 16.015625 36.375
Q 16.015625 21.625 22.71875 14.15625
Q 29.4375 6.6875 42.828125 6.6875
Q 48.046875 6.6875 52.140625 7.59375
Q 56.25 8.5 59.515625 10.40625
z
" id="DejaVuSans-71"/>
      <path d="M 9.8125 72.90625
L 55.90625 72.90625
L 55.90625 64.59375
L 19.671875 64.59375
L 19.671875 43.015625
L 54.390625 43.015625
L 54.390625 34.71875
L 19.671875 34.71875
L 19.671875 8.296875
L 56.78125 8.296875
L 56.78125 0
L 9.8125 0
z
" id="DejaVuSans-69"/>
      <path d="M 9.8125 72.90625
L 23.09375 72.90625
L 55.421875 11.921875
L 55.421875 72.90625
L 64.984375 72.90625
L 64.984375 0
L 51.703125 0
L 19.390625 60.984375
L 19.390625 0
L 9.8125 0
z
" id="DejaVuSans-78"/>
      <path d="M 53.515625 70.515625
L 53.515625 60.890625
Q 47.90625 63.578125 42.921875 64.890625
Q 37.9375 66.21875 33.296875 66.21875
Q 25.25 66.21875 20.875 63.09375
Q 16.5 59.96875 16.5 54.203125
Q 16.5 49.359375 19.40625 46.890625
Q 22.3125 44.4375 30.421875 42.921875
L 36.375 41.703125
Q 47.40625 39.59375 52.65625 34.296875
Q 57.90625 29 57.90625 20.125
Q 57.90625 9.515625 50.796875 4.046875
Q 43.703125 -1.421875 29.984375 -1.421875
Q 24.8125 -1.421875 18.96875 -0.25
Q 13.140625 0.921875 6.890625 3.21875
L 6.890625 13.375
Q 12.890625 10.015625 18.65625 8.296875
Q 24.421875 6.59375 29.984375 6.59375
Q 38.421875 6.59375 43.015625 9.90625
Q 47.609375 13.234375 47.609375 19.390625
Q 47.609375 24.75 44.3125 27.78125
Q 41.015625 30.8125 33.5 32.328125
L 27.484375 33.5
Q 16.453125 35.6875 11.515625 40.375
Q 6.59375 45.0625 6.59375 53.421875
Q 6.59375 63.09375 13.40625 68.65625
Q 20.21875 74.21875 32.171875 74.21875
Q 37.3125 74.21875 42.625 73.28125
Q 47.953125 72.359375 53.515625 70.515625
z
" id="DejaVuSans-83"/>
      <path d="M 9.8125 72.90625
L 19.671875 72.90625
L 19.671875 0
L 9.8125 0
z
" id="DejaVuSans-73"/>
     </defs>
     <g transform="translate(67.059241 36.390313)scale(0.05 -0.05)">
      <use xlink:href="#DejaVuSans-72"/>
      <use x="75.195312" xlink:href="#DejaVuSans-65"/>
      <use x="143.603516" xlink:href="#DejaVuSans-76"/>
      <use x="199.316406" xlink:href="#DejaVuSans-76"/>
      <use x="255.029297" xlink:href="#DejaVuSans-77"/>
      <use x="341.308594" xlink:href="#DejaVuSans-65"/>
      <use x="409.716797" xlink:href="#DejaVuSans-82"/>
      <use x="479.199219" xlink:href="#DejaVuSans-75"/>
      <use x="544.775391" xlink:href="#DejaVuSans-95"/>
      <use x="594.775391" xlink:href="#DejaVuSans-77"/>
      <use x="681.054688" xlink:href="#DejaVuSans-89"/>
      <use x="742.060547" xlink:href="#DejaVuSans-79"/>
      <use x="820.771484" xlink:href="#DejaVuSans-71"/>
      <use x="898.261719" xlink:href="#DejaVuSans-69"/>
      <use x="961.445312" xlink:href="#DejaVuSans-78"/>
      <use x="1036.25" xlink:href="#DejaVuSans-69"/>
      <use x="1099.433594" xlink:href="#DejaVuSans-83"/>
      <use x="1162.910156" xlink:href="#DejaVuSans-73"/>
      <use x="1192.402344" xlink:href="#DejaVuSans-83"/>
     </g>
    </g>
   </g>
   <g id="text_13">
    <g clip-path="url(#pcd947c80fb)">
     <!-- HALLMARK_ALLOGRAFT_REJECTION -->
     <defs>
      <path d="M 9.8125 72.90625
L 51.703125 72.90625
L 51.703125 64.59375
L 19.671875 64.59375
L 19.671875 43.109375
L 48.578125 43.109375
L 48.578125 34.8125
L 19.671875 34.8125
L 19.671875 0
L 9.8125 0
z
" id="DejaVuSans-70"/>
      <path d="M -0.296875 72.90625
L 61.375 72.90625
L 61.375 64.59375
L 35.5 64.59375
L 35.5 0
L 25.59375 0
L 25.59375 64.59375
L -0.296875 64.59375
z
" id="DejaVuSans-84"/>
      <path d="M 9.8125 72.90625
L 19.671875 72.90625
L 19.671875 5.078125
Q 19.671875 -8.109375 14.671875 -14.0625
Q 9.671875 -20.015625 -1.421875 -20.015625
L -5.171875 -20.015625
L -5.171875 -11.71875
L -2.09375 -11.71875
Q 4.4375 -11.71875 7.125 -8.046875
Q 9.8125 -4.390625 9.8125 5.078125
z
" id="DejaVuSans-74"/>
      <path d="M 64.40625 67.28125
L 64.40625 56.890625
Q 59.421875 61.53125 53.78125 63.8125
Q 48.140625 66.109375 41.796875 66.109375
Q 29.296875 66.109375 22.65625 58.46875
Q 16.015625 50.828125 16.015625 36.375
Q 16.015625 21.96875 22.65625 14.328125
Q 29.296875 6.6875 41.796875 6.6875
Q 48.140625 6.6875 53.78125 8.984375
Q 59.421875 11.28125 64.40625 15.921875
L 64.40625 5.609375
Q 59.234375 2.09375 53.4375 0.328125
Q 47.65625 -1.421875 41.21875 -1.421875
Q 24.65625 -1.421875 15.125 8.703125
Q 5.609375 18.84375 5.609375 36.375
Q 5.609375 53.953125 15.125 64.078125
Q 24.65625 74.21875 41.21875 74.21875
Q 47.75 74.21875 53.53125 72.484375
Q 59.328125 70.75 64.40625 67.28125
z
" id="DejaVuSans-67"/>
     </defs>
     <g transform="translate(67.525051 47.263122)scale(0.05 -0.05)">
      <use xlink:href="#DejaVuSans-72"/>
      <use x="75.195312" xlink:href="#DejaVuSans-65"/>
      <use x="143.603516" xlink:href="#DejaVuSans-76"/>
      <use x="199.316406" xlink:href="#DejaVuSans-76"/>
      <use x="255.029297" xlink:href="#DejaVuSans-77"/>
      <use x="341.308594" xlink:href="#DejaVuSans-65"/>
      <use x="409.716797" xlink:href="#DejaVuSans-82"/>
      <use x="479.199219" xlink:href="#DejaVuSans-75"/>
      <use x="544.775391" xlink:href="#DejaVuSans-95"/>
      <use x="594.775391" xlink:href="#DejaVuSans-65"/>
      <use x="663.183594" xlink:href="#DejaVuSans-76"/>
      <use x="718.896484" xlink:href="#DejaVuSans-76"/>
      <use x="774.5625" xlink:href="#DejaVuSans-79"/>
      <use x="853.273438" xlink:href="#DejaVuSans-71"/>
      <use x="930.763672" xlink:href="#DejaVuSans-82"/>
      <use x="1000.183594" xlink:href="#DejaVuSans-65"/>
      <use x="1068.591797" xlink:href="#DejaVuSans-70"/>
      <use x="1126.095703" xlink:href="#DejaVuSans-84"/>
      <use x="1187.179688" xlink:href="#DejaVuSans-95"/>
      <use x="1237.179688" xlink:href="#DejaVuSans-82"/>
      <use x="1306.662109" xlink:href="#DejaVuSans-69"/>
      <use x="1369.845703" xlink:href="#DejaVuSans-74"/>
      <use x="1399.337891" xlink:href="#DejaVuSans-69"/>
      <use x="1462.521484" xlink:href="#DejaVuSans-67"/>
      <use x="1532.345703" xlink:href="#DejaVuSans-84"/>
      <use x="1593.429688" xlink:href="#DejaVuSans-73"/>
      <use x="1622.921875" xlink:href="#DejaVuSans-79"/>
      <use x="1701.632812" xlink:href="#DejaVuSans-78"/>
     </g>
    </g>
   </g>
   <g id="text_14">
    <g clip-path="url(#pcd947c80fb)">
     <!-- HALLMARK_KRAS_SIGNALING_DN -->
     <defs>
      <path d="M 19.671875 64.796875
L 19.671875 8.109375
L 31.59375 8.109375
Q 46.6875 8.109375 53.6875 14.9375
Q 60.6875 21.78125 60.6875 36.53125
Q 60.6875 51.171875 53.6875 57.984375
Q 46.6875 64.796875 31.59375 64.796875
z
M 9.8125 72.90625
L 30.078125 72.90625
Q 51.265625 72.90625 61.171875 64.09375
Q 71.09375 55.28125 71.09375 36.53125
Q 71.09375 17.671875 61.125 8.828125
Q 51.171875 0 30.078125 0
L 9.8125 0
z
" id="DejaVuSans-68"/>
     </defs>
     <g transform="translate(75.074059 41.826718)scale(0.05 -0.05)">
      <use xlink:href="#DejaVuSans-72"/>
      <use x="75.195312" xlink:href="#DejaVuSans-65"/>
      <use x="143.603516" xlink:href="#DejaVuSans-76"/>
      <use x="199.316406" xlink:href="#DejaVuSans-76"/>
      <use x="255.029297" xlink:href="#DejaVuSans-77"/>
      <use x="341.308594" xlink:href="#DejaVuSans-65"/>
      <use x="409.716797" xlink:href="#DejaVuSans-82"/>
      <use x="479.199219" xlink:href="#DejaVuSans-75"/>
      <use x="544.775391" xlink:href="#DejaVuSans-95"/>
      <use x="594.775391" xlink:href="#DejaVuSans-75"/>
      <use x="660.351562" xlink:href="#DejaVuSans-82"/>
      <use x="729.771484" xlink:href="#DejaVuSans-65"/>
      <use x="798.179688" xlink:href="#DejaVuSans-83"/>
      <use x="861.65625" xlink:href="#DejaVuSans-95"/>
      <use x="911.65625" xlink:href="#DejaVuSans-83"/>
      <use x="975.132812" xlink:href="#DejaVuSans-73"/>
      <use x="1004.625" xlink:href="#DejaVuSans-71"/>
      <use x="1082.115234" xlink:href="#DejaVuSans-78"/>
      <use x="1156.919922" xlink:href="#DejaVuSans-65"/>
      <use x="1225.328125" xlink:href="#DejaVuSans-76"/>
      <use x="1281.041016" xlink:href="#DejaVuSans-73"/>
      <use x="1310.533203" xlink:href="#DejaVuSans-78"/>
      <use x="1385.337891" xlink:href="#DejaVuSans-71"/>
      <use x="1462.828125" xlink:href="#DejaVuSans-95"/>
      <use x="1512.828125" xlink:href="#DejaVuSans-68"/>
      <use x="1589.830078" xlink:href="#DejaVuSans-78"/>
     </g>
    </g>
   </g>
   <g id="text_15">
    <g clip-path="url(#pcd947c80fb)">
     <!-- HALLMARK_COAGULATION -->
     <defs>
      <path d="M 8.6875 72.90625
L 18.609375 72.90625
L 18.609375 28.609375
Q 18.609375 16.890625 22.84375 11.734375
Q 27.09375 6.59375 36.625 6.59375
Q 46.09375 6.59375 50.34375 11.734375
Q 54.59375 16.890625 54.59375 28.609375
L 54.59375 72.90625
L 64.5 72.90625
L 64.5 27.390625
Q 64.5 13.140625 57.4375 5.859375
Q 50.390625 -1.421875 36.625 -1.421875
Q 22.796875 -1.421875 15.734375 5.859375
Q 8.6875 13.140625 8.6875 27.390625
z
" id="DejaVuSans-85"/>
     </defs>
     <g transform="translate(135.607586 52.699527)scale(0.05 -0.05)">
      <use xlink:href="#DejaVuSans-72"/>
      <use x="75.195312" xlink:href="#DejaVuSans-65"/>
      <use x="143.603516" xlink:href="#DejaVuSans-76"/>
      <use x="199.316406" xlink:href="#DejaVuSans-76"/>
      <use x="255.029297" xlink:href="#DejaVuSans-77"/>
      <use x="341.308594" xlink:href="#DejaVuSans-65"/>
      <use x="409.716797" xlink:href="#DejaVuSans-82"/>
      <use x="479.199219" xlink:href="#DejaVuSans-75"/>
      <use x="544.775391" xlink:href="#DejaVuSans-95"/>
      <use x="594.775391" xlink:href="#DejaVuSans-67"/>
      <use x="664.599609" xlink:href="#DejaVuSans-79"/>
      <use x="743.294922" xlink:href="#DejaVuSans-65"/>
      <use x="811.6875" xlink:href="#DejaVuSans-71"/>
      <use x="889.177734" xlink:href="#DejaVuSans-85"/>
      <use x="962.371094" xlink:href="#DejaVuSans-76"/>
      <use x="1018.115234" xlink:href="#DejaVuSans-65"/>
      <use x="1086.414062" xlink:href="#DejaVuSans-84"/>
      <use x="1147.498047" xlink:href="#DejaVuSans-73"/>
      <use x="1176.990234" xlink:href="#DejaVuSans-79"/>
      <use x="1255.701172" xlink:href="#DejaVuSans-78"/>
     </g>
    </g>
   </g>
   <g id="text_16">
    <g clip-path="url(#pcd947c80fb)">
     <!-- HALLMARK_SPERMATOGENESIS -->
     <g transform="translate(139.933998 58.135931)scale(0.05 -0.05)">
      <use xlink:href="#DejaVuSans-72"/>
      <use x="75.195312" xlink:href="#DejaVuSans-65"/>
      <use x="143.603516" xlink:href="#DejaVuSans-76"/>
      <use x="199.316406" xlink:href="#DejaVuSans-76"/>
      <use x="255.029297" xlink:href="#DejaVuSans-77"/>
      <use x="341.308594" xlink:href="#DejaVuSans-65"/>
      <use x="409.716797" xlink:href="#DejaVuSans-82"/>
      <use x="479.199219" xlink:href="#DejaVuSans-75"/>
      <use x="544.775391" xlink:href="#DejaVuSans-95"/>
      <use x="594.775391" xlink:href="#DejaVuSans-83"/>
      <use x="658.251953" xlink:href="#DejaVuSans-80"/>
      <use x="718.554688" xlink:href="#DejaVuSans-69"/>
      <use x="781.738281" xlink:href="#DejaVuSans-82"/>
      <use x="851.220703" xlink:href="#DejaVuSans-77"/>
      <use x="937.5" xlink:href="#DejaVuSans-65"/>
      <use x="1005.798828" xlink:href="#DejaVuSans-84"/>
      <use x="1066.882812" xlink:href="#DejaVuSans-79"/>
      <use x="1145.59375" xlink:href="#DejaVuSans-71"/>
      <use x="1223.083984" xlink:href="#DejaVuSans-69"/>
      <use x="1286.267578" xlink:href="#DejaVuSans-78"/>
      <use x="1361.072266" xlink:href="#DejaVuSans-69"/>
      <use x="1424.255859" xlink:href="#DejaVuSans-83"/>
      <use x="1487.732422" xlink:href="#DejaVuSans-73"/>
      <use x="1517.224609" xlink:href="#DejaVuSans-83"/>
     </g>
    </g>
   </g>
  </g>
  <g id="text_17">
   <!-- GSEA pathway statistics vs ranking -->
   <defs>
    <path d="M 54.890625 33.015625
L 54.890625 0
L 45.90625 0
L 45.90625 32.71875
Q 45.90625 40.484375 42.875 44.328125
Q 39.84375 48.1875 33.796875 48.1875
Q 26.515625 48.1875 22.3125 43.546875
Q 18.109375 38.921875 18.109375 30.90625
L 18.109375 0
L 9.078125 0
L 9.078125 75.984375
L 18.109375 75.984375
L 18.109375 46.1875
Q 21.34375 51.125 25.703125 53.5625
Q 30.078125 56 35.796875 56
Q 45.21875 56 50.046875 50.171875
Q 54.890625 44.34375 54.890625 33.015625
z
" id="DejaVuSans-104"/>
    <path d="M 4.203125 54.6875
L 13.1875 54.6875
L 24.421875 12.015625
L 35.59375 54.6875
L 46.1875 54.6875
L 57.421875 12.015625
L 68.609375 54.6875
L 77.59375 54.6875
L 63.28125 0
L 52.6875 0
L 40.921875 44.828125
L 29.109375 0
L 18.5 0
z
" id="DejaVuSans-119"/>
    <path d="M 32.171875 -5.078125
Q 28.375 -14.84375 24.75 -17.8125
Q 21.140625 -20.796875 15.09375 -20.796875
L 7.90625 -20.796875
L 7.90625 -13.28125
L 13.1875 -13.28125
Q 16.890625 -13.28125 18.9375 -11.515625
Q 21 -9.765625 23.484375 -3.21875
L 25.09375 0.875
L 2.984375 54.6875
L 12.5 54.6875
L 29.59375 11.921875
L 46.6875 54.6875
L 56.203125 54.6875
z
" id="DejaVuSans-121"/>
   </defs>
   <g transform="translate(91.041406 11.397656)scale(0.15 -0.15)">
    <use xlink:href="#DejaVuSans-71"/>
    <use x="77.490234" xlink:href="#DejaVuSans-83"/>
    <use x="140.966797" xlink:href="#DejaVuSans-69"/>
    <use x="204.150391" xlink:href="#DejaVuSans-65"/>
    <use x="272.558594" xlink:href="#DejaVuSans-32"/>
    <use x="304.345703" xlink:href="#DejaVuSans-112"/>
    <use x="367.822266" xlink:href="#DejaVuSans-97"/>
    <use x="429.101562" xlink:href="#DejaVuSans-116"/>
    <use x="468.310547" xlink:href="#DejaVuSans-104"/>
    <use x="531.689453" xlink:href="#DejaVuSans-119"/>
    <use x="613.476562" xlink:href="#DejaVuSans-97"/>
    <use x="674.755859" xlink:href="#DejaVuSans-121"/>
    <use x="733.935547" xlink:href="#DejaVuSans-32"/>
    <use x="765.722656" xlink:href="#DejaVuSans-115"/>
    <use x="817.822266" xlink:href="#DejaVuSans-116"/>
    <use x="857.03125" xlink:href="#DejaVuSans-97"/>
    <use x="918.310547" xlink:href="#DejaVuSans-116"/>
    <use x="957.519531" xlink:href="#DejaVuSans-105"/>
    <use x="985.302734" xlink:href="#DejaVuSans-115"/>
    <use x="1037.402344" xlink:href="#DejaVuSans-116"/>
    <use x="1076.611328" xlink:href="#DejaVuSans-105"/>
    <use x="1104.394531" xlink:href="#DejaVuSans-99"/>
    <use x="1159.375" xlink:href="#DejaVuSans-115"/>
    <use x="1211.474609" xlink:href="#DejaVuSans-32"/>
    <use x="1243.261719" xlink:href="#DejaVuSans-118"/>
    <use x="1302.441406" xlink:href="#DejaVuSans-115"/>
    <use x="1354.541016" xlink:href="#DejaVuSans-32"/>
    <use x="1386.328125" xlink:href="#DejaVuSans-114"/>
    <use x="1427.441406" xlink:href="#DejaVuSans-97"/>
    <use x="1488.720703" xlink:href="#DejaVuSans-110"/>
    <use x="1552.099609" xlink:href="#DejaVuSans-107"/>
    <use x="1610.009766" xlink:href="#DejaVuSans-105"/>
    <use x="1637.792969" xlink:href="#DejaVuSans-110"/>
    <use x="1701.171875" xlink:href="#DejaVuSans-103"/>
   </g>
  </g>
 </g>
 <defs>
  <clipPath id="pcd947c80fb">
   <rect height="266.112" width="357.12" x="50.585938" y="20.583376"/>
  </clipPath>
 </defs>
</svg>
