<?xml version="1.0" encoding="utf-8" standalone="no"?>
<!DOCTYPE svg PUBLIC "-//W3C//DTD SVG 1.1//EN"
  "http://www.w3.org/Graphics/SVG/1.1/DTD/svg11.dtd">
<!-- Created with matplotlib (https://matplotlib.org/) -->
<svg height="322.176313pt" version="1.1" viewBox="0 0 406.642188 322.176313" width="406.642188pt" xmlns="http://www.w3.org/2000/svg" xmlns:xlink="http://www.w3.org/1999/xlink">
 <defs>
  <style type="text/css">
*{stroke-linecap:butt;stroke-linejoin:round;}
  </style>
 </defs>
 <g id="figure_1">
  <g id="patch_1">
   <path d="M 0 322.176313
L 406.642188 322.176313
L 406.642188 0
L 0 0
z
" style="fill:#ffffff;stroke:#ffffff;stroke-linejoin:miter;"/>
  </g>
  <g id="axes_1">
   <g id="patch_2">
    <path d="M 46.772188 286.695376
L 403.892188 286.695376
L 403.892188 20.583376
L 46.772188 20.583376
z
" style="fill:none;"/>
   </g>
   <g id="matplotlib.axis_1">
    <g id="xtick_1">
     <g id="line2d_1">
      <path clip-path="url(#p37ecf9b66d)" d="M 63.004915 286.695376
L 63.004915 20.583376
" style="fill:none;stroke:#e5e5e5;stroke-width:0.8;"/>
     </g>
     <g id="line2d_2">
      <path d="M 63.004915 286.695376
" style="fill:none;stroke:#000000;stroke-width:1.5;"/>
      <defs>
       <path d="M 0 0
L 0 2.75
" id="md1e8d67128" style="stroke:#000000;"/>
      </defs>
      <g>
       <use style="stroke:#000000;" x="63.004915" xlink:href="#md1e8d67128" y="286.695376"/>
      </g>
     </g>
     <g id="text_1">
      <!-- 0 -->
      <defs>
       <path d="M 31.78125 66.40625
Q 24.171875 66.40625 20.328125 58.90625
Q 16.5 51.421875 16.5 36.375
Q 16.5 21.390625 20.328125 13.890625
Q 24.171875 6.390625 31.78125 6.390625
Q 39.453125 6.390625 43.28125 13.890625
Q 47.125 21.390625 47.125 36.375
Q 47.125 51.421875 43.28125 58.90625
Q 39.453125 66.40625 31.78125 66.40625
z
M 31.78125 74.21875
Q 44.046875 74.21875 50.515625 64.515625
Q 56.984375 54.828125 56.984375 36.375
Q 56.984375 17.96875 50.515625 8.265625
Q 44.046875 -1.421875 31.78125 -1.421875
Q 19.53125 -1.421875 13.0625 8.265625
Q 6.59375 17.96875 6.59375 36.375
Q 6.59375 54.828125 13.0625 64.515625
Q 19.53125 74.21875 31.78125 74.21875
z
" id="DejaVuSans-48"/>
      </defs>
      <g style="fill:#4d4d4d;" transform="translate(59.187415 300.763501)scale(0.12 -0.12)">
       <use xlink:href="#DejaVuSans-48"/>
      </g>
     </g>
    </g>
    <g id="xtick_2">
     <g id="line2d_3">
      <path clip-path="url(#p37ecf9b66d)" d="M 144.168551 286.695376
L 144.168551 20.583376
" style="fill:none;stroke:#e5e5e5;stroke-width:0.8;"/>
     </g>
     <g id="line2d_4">
      <path d="M 144.168551 286.695376
" style="fill:none;stroke:#000000;stroke-width:1.5;"/>
      <g>
       <use style="stroke:#000000;" x="144.168551" xlink:href="#md1e8d67128" y="286.695376"/>
      </g>
     </g>
     <g id="text_2">
      <!-- 25 -->
      <defs>
       <path d="M 19.1875 8.296875
L 53.609375 8.296875
L 53.609375 0
L 7.328125 0
L 7.328125 8.296875
Q 12.9375 14.109375 22.625 23.890625
Q 32.328125 33.6875 34.8125 36.53125
Q 39.546875 41.84375 41.421875 45.53125
Q 43.3125 49.21875 43.3125 52.78125
Q 43.3125 58.59375 39.234375 62.25
Q 35.15625 65.921875 28.609375 65.921875
Q 23.96875 65.921875 18.8125 64.3125
Q 13.671875 62.703125 7.8125 59.421875
L 7.8125 69.390625
Q 13.765625 71.78125 18.9375 73
Q 24.125 74.21875 28.421875 74.21875
Q 39.75 74.21875 46.484375 68.546875
Q 53.21875 62.890625 53.21875 53.421875
Q 53.21875 48.921875 51.53125 44.890625
Q 49.859375 40.875 45.40625 35.40625
Q 44.1875 33.984375 37.640625 27.21875
Q 31.109375 20.453125 19.1875 8.296875
z
" id="DejaVuSans-50"/>
       <path d="M 10.796875 72.90625
L 49.515625 72.90625
L 49.515625 64.59375
L 19.828125 64.59375
L 19.828125 46.734375
Q 21.96875 47.46875 24.109375 47.828125
Q 26.265625 48.1875 28.421875 48.1875
Q 40.625 48.1875 47.75 41.5
Q 54.890625 34.8125 54.890625 23.390625
Q 54.890625 11.625 47.5625 5.09375
Q 40.234375 -1.421875 26.90625 -1.421875
Q 22.3125 -1.421875 17.546875 -0.640625
Q 12.796875 0.140625 7.71875 1.703125
L 7.71875 11.625
Q 12.109375 9.234375 16.796875 8.0625
Q 21.484375 6.890625 26.703125 6.890625
Q 35.15625 6.890625 40.078125 11.328125
Q 45.015625 15.765625 45.015625 23.390625
Q 45.015625 31 40.078125 35.4375
Q 35.15625 39.890625 26.703125 39.890625
Q 22.75 39.890625 18.8125 39.015625
Q 14.890625 38.140625 10.796875 36.28125
z
" id="DejaVuSans-53"/>
      </defs>
      <g style="fill:#4d4d4d;" transform="translate(136.533551 300.763501)scale(0.12 -0.12)">
       <use xlink:href="#DejaVuSans-50"/>
       <use x="63.623047" xlink:href="#DejaVuSans-53"/>
      </g>
     </g>
    </g>
    <g id="xtick_3">
     <g id="line2d_5">
      <path clip-path="url(#p37ecf9b66d)" d="M 225.332188 286.695376
L 225.332188 20.583376
" style="fill:none;stroke:#e5e5e5;stroke-width:0.8;"/>
     </g>
     <g id="line2d_6">
      <path d="M 225.332188 286.695376
" style="fill:none;stroke:#000000;stroke-width:1.5;"/>
      <g>
       <use style="stroke:#000000;" x="225.332188" xlink:href="#md1e8d67128" y="286.695376"/>
      </g>
     </g>
     <g id="text_3">
      <!-- 50 -->
      <g style="fill:#4d4d4d;" transform="translate(217.697188 300.763501)scale(0.12 -0.12)">
       <use xlink:href="#DejaVuSans-53"/>
       <use x="63.623047" xlink:href="#DejaVuSans-48"/>
      </g>
     </g>
    </g>
    <g id="xtick_4">
     <g id="line2d_7">
      <path clip-path="url(#p37ecf9b66d)" d="M 306.495824 286.695376
L 306.495824 20.583376
" style="fill:none;stroke:#e5e5e5;stroke-width:0.8;"/>
     </g>
     <g id="line2d_8">
      <path d="M 306.495824 286.695376
" style="fill:none;stroke:#000000;stroke-width:1.5;"/>
      <g>
       <use style="stroke:#000000;" x="306.495824" xlink:href="#md1e8d67128" y="286.695376"/>
      </g>
     </g>
     <g id="text_4">
      <!-- 75 -->
      <defs>
       <path d="M 8.203125 72.90625
L 55.078125 72.90625
L 55.078125 68.703125
L 28.609375 0
L 18.3125 0
L 43.21875 64.59375
L 8.203125 64.59375
z
" id="DejaVuSans-55"/>
      </defs>
      <g style="fill:#4d4d4d;" transform="translate(298.860824 300.763501)scale(0.12 -0.12)">
       <use xlink:href="#DejaVuSans-55"/>
       <use x="63.623047" xlink:href="#DejaVuSans-53"/>
      </g>
     </g>
    </g>
    <g id="xtick_5">
     <g id="line2d_9">
      <path clip-path="url(#p37ecf9b66d)" d="M 387.65946 286.695376
L 387.65946 20.583376
" style="fill:none;stroke:#e5e5e5;stroke-width:0.8;"/>
     </g>
     <g id="line2d_10">
      <path d="M 387.65946 286.695376
" style="fill:none;stroke:#000000;stroke-width:1.5;"/>
      <g>
       <use style="stroke:#000000;" x="387.65946" xlink:href="#md1e8d67128" y="286.695376"/>
      </g>
     </g>
     <g id="text_5">
      <!-- 100 -->
      <defs>
       <path d="M 12.40625 8.296875
L 28.515625 8.296875
L 28.515625 63.921875
L 10.984375 60.40625
L 10.984375 69.390625
L 28.421875 72.90625
L 38.28125 72.90625
L 38.28125 8.296875
L 54.390625 8.296875
L 54.390625 0
L 12.40625 0
z
" id="DejaVuSans-49"/>
      </defs>
      <g style="fill:#4d4d4d;" transform="translate(376.20696 300.763501)scale(0.12 -0.12)">
       <use xlink:href="#DejaVuSans-49"/>
       <use x="63.623047" xlink:href="#DejaVuSans-48"/>
       <use x="127.246094" xlink:href="#DejaVuSans-48"/>
      </g>
     </g>
    </g>
    <g id="xtick_6">
     <g id="line2d_11">
      <path clip-path="url(#p37ecf9b66d)" d="M 103.586733 286.695376
L 103.586733 20.583376
" style="fill:none;stroke:#fafafa;"/>
     </g>
     <g id="line2d_12">
      <path d="M 103.586733 286.695376
" style="fill:none;stroke:#000000;stroke-width:1.5;"/>
     </g>
    </g>
    <g id="xtick_7">
     <g id="line2d_13">
      <path clip-path="url(#p37ecf9b66d)" d="M 184.750369 286.695376
L 184.750369 20.583376
" style="fill:none;stroke:#fafafa;"/>
     </g>
     <g id="line2d_14">
      <path d="M 184.750369 286.695376
" style="fill:none;stroke:#000000;stroke-width:1.5;"/>
     </g>
    </g>
    <g id="xtick_8">
     <g id="line2d_15">
      <path clip-path="url(#p37ecf9b66d)" d="M 265.914006 286.695376
L 265.914006 20.583376
" style="fill:none;stroke:#fafafa;"/>
     </g>
     <g id="line2d_16">
      <path d="M 265.914006 286.695376
" style="fill:none;stroke:#000000;stroke-width:1.5;"/>
     </g>
    </g>
    <g id="xtick_9">
     <g id="line2d_17">
      <path clip-path="url(#p37ecf9b66d)" d="M 347.077642 286.695376
L 347.077642 20.583376
" style="fill:none;stroke:#fafafa;"/>
     </g>
     <g id="line2d_18">
      <path d="M 347.077642 286.695376
" style="fill:none;stroke:#000000;stroke-width:1.5;"/>
     </g>
    </g>
    <g id="text_6">
     <!-- GSEA pathway ranking -->
     <defs>
      <path d="M 59.515625 10.40625
L 59.515625 29.984375
L 43.40625 29.984375
L 43.40625 38.09375
L 69.28125 38.09375
L 69.28125 6.78125
Q 63.578125 2.734375 56.6875 0.65625
Q 49.8125 -1.421875 42 -1.421875
Q 24.90625 -1.421875 15.25 8.5625
Q 5.609375 18.5625 5.609375 36.375
Q 5.609375 54.25 15.25 64.234375
Q 24.90625 74.21875 42 74.21875
Q 49.125 74.21875 55.546875 72.453125
Q 61.96875 70.703125 67.390625 67.28125
L 67.390625 56.78125
Q 61.921875 61.421875 55.765625 63.765625
Q 49.609375 66.109375 42.828125 66.109375
Q 29.4375 66.109375 22.71875 58.640625
Q 16.015625 51.171875 16.015625 36.375
Q 16.015625 21.625 22.71875 14.15625
Q 29.4375 6.6875 42.828125 6.6875
Q 48.046875 6.6875 52.140625 7.59375
Q 56.25 8.5 59.515625 10.40625
z
" id="DejaVuSans-71"/>
      <path d="M 53.515625 70.515625
L 53.515625 60.890625
Q 47.90625 63.578125 42.921875 64.890625
Q 37.9375 66.21875 33.296875 66.21875
Q 25.25 66.21875 20.875 63.09375
Q 16.5 59.96875 16.5 54.203125
Q 16.5 49.359375 19.40625 46.890625
Q 22.3125 44.4375 30.421875 42.921875
L 36.375 41.703125
Q 47.40625 39.59375 52.65625 34.296875
Q 57.90625 29 57.90625 20.125
Q 57.90625 9.515625 50.796875 4.046875
Q 43.703125 -1.421875 29.984375 -1.421875
Q 24.8125 -1.421875 18.96875 -0.25
Q 13.140625 0.921875 6.890625 3.21875
L 6.890625 13.375
Q 12.890625 10.015625 18.65625 8.296875
Q 24.421875 6.59375 29.984375 6.59375
Q 38.421875 6.59375 43.015625 9.90625
Q 47.609375 13.234375 47.609375 19.390625
Q 47.609375 24.75 44.3125 27.78125
Q 41.015625 30.8125 33.5 32.328125
L 27.484375 33.5
Q 16.453125 35.6875 11.515625 40.375
Q 6.59375 45.0625 6.59375 53.421875
Q 6.59375 63.09375 13.40625 68.65625
Q 20.21875 74.21875 32.171875 74.21875
Q 37.3125 74.21875 42.625 73.28125
Q 47.953125 72.359375 53.515625 70.515625
z
" id="DejaVuSans-83"/>
      <path d="M 9.8125 72.90625
L 55.90625 72.90625
L 55.90625 64.59375
L 19.671875 64.59375
L 19.671875 43.015625
L 54.390625 43.015625
L 54.390625 34.71875
L 19.671875 34.71875
L 19.671875 8.296875
L 56.78125 8.296875
L 56.78125 0
L 9.8125 0
z
" id="DejaVuSans-69"/>
      <path d="M 34.1875 63.1875
L 20.796875 26.90625
L 47.609375 26.90625
z
M 28.609375 72.90625
L 39.796875 72.90625
L 67.578125 0
L 57.328125 0
L 50.6875 18.703125
L 17.828125 18.703125
L 11.1875 0
L 0.78125 0
z
" id="DejaVuSans-65"/>
      <path id="DejaVuSans-32"/>
      <path d="M 18.109375 8.203125
L 18.109375 -20.796875
L 9.078125 -20.796875
L 9.078125 54.6875
L 18.109375 54.6875
L 18.109375 46.390625
Q 20.953125 51.265625 25.265625 53.625
Q 29.59375 56 35.59375 56
Q 45.5625 56 51.78125 48.09375
Q 58.015625 40.1875 58.015625 27.296875
Q 58.015625 14.40625 51.78125 6.484375
Q 45.5625 -1.421875 35.59375 -1.421875
Q 29.59375 -1.421875 25.265625 0.953125
Q 20.953125 3.328125 18.109375 8.203125
z
M 48.6875 27.296875
Q 48.6875 37.203125 44.609375 42.84375
Q 40.53125 48.484375 33.40625 48.484375
Q 26.265625 48.484375 22.1875 42.84375
Q 18.109375 37.203125 18.109375 27.296875
Q 18.109375 17.390625 22.1875 11.75
Q 26.265625 6.109375 33.40625 6.109375
Q 40.53125 6.109375 44.609375 11.75
Q 48.6875 17.390625 48.6875 27.296875
z
" id="DejaVuSans-112"/>
      <path d="M 34.28125 27.484375
Q 23.390625 27.484375 19.1875 25
Q 14.984375 22.515625 14.984375 16.5
Q 14.984375 11.71875 18.140625 8.90625
Q 21.296875 6.109375 26.703125 6.109375
Q 34.1875 6.109375 38.703125 11.40625
Q 43.21875 16.703125 43.21875 25.484375
L 43.21875 27.484375
z
M 52.203125 31.203125
L 52.203125 0
L 43.21875 0
L 43.21875 8.296875
Q 40.140625 3.328125 35.546875 0.953125
Q 30.953125 -1.421875 24.3125 -1.421875
Q 15.921875 -1.421875 10.953125 3.296875
Q 6 8.015625 6 15.921875
Q 6 25.140625 12.171875 29.828125
Q 18.359375 34.515625 30.609375 34.515625
L 43.21875 34.515625
L 43.21875 35.40625
Q 43.21875 41.609375 39.140625 45
Q 35.0625 48.390625 27.6875 48.390625
Q 23 48.390625 18.546875 47.265625
Q 14.109375 46.140625 10.015625 43.890625
L 10.015625 52.203125
Q 14.9375 54.109375 19.578125 55.046875
Q 24.21875 56 28.609375 56
Q 40.484375 56 46.34375 49.84375
Q 52.203125 43.703125 52.203125 31.203125
z
" id="DejaVuSans-97"/>
      <path d="M 18.3125 70.21875
L 18.3125 54.6875
L 36.8125 54.6875
L 36.8125 47.703125
L 18.3125 47.703125
L 18.3125 18.015625
Q 18.3125 11.328125 20.140625 9.421875
Q 21.96875 7.515625 27.59375 7.515625
L 36.8125 7.515625
L 36.8125 0
L 27.59375 0
Q 17.1875 0 13.234375 3.875
Q 9.28125 7.765625 9.28125 18.015625
L 9.28125 47.703125
L 2.6875 47.703125
L 2.6875 54.6875
L 9.28125 54.6875
L 9.28125 70.21875
z
" id="DejaVuSans-116"/>
      <path d="M 54.890625 33.015625
L 54.890625 0
L 45.90625 0
L 45.90625 32.71875
Q 45.90625 40.484375 42.875 44.328125
Q 39.84375 48.1875 33.796875 48.1875
Q 26.515625 48.1875 22.3125 43.546875
Q 18.109375 38.921875 18.109375 30.90625
L 18.109375 0
L 9.078125 0
L 9.078125 75.984375
L 18.109375 75.984375
L 18.109375 46.1875
Q 21.34375 51.125 25.703125 53.5625
Q 30.078125 56 35.796875 56
Q 45.21875 56 50.046875 50.171875
Q 54.890625 44.34375 54.890625 33.015625
z
" id="DejaVuSans-104"/>
      <path d="M 4.203125 54.6875
L 13.1875 54.6875
L 24.421875 12.015625
L 35.59375 54.6875
L 46.1875 54.6875
L 57.421875 12.015625
L 68.609375 54.6875
L 77.59375 54.6875
L 63.28125 0
L 52.6875 0
L 40.921875 44.828125
L 29.109375 0
L 18.5 0
z
" id="DejaVuSans-119"/>
      <path d="M 32.171875 -5.078125
Q 28.375 -14.84375 24.75 -17.8125
Q 21.140625 -20.796875 15.09375 -20.796875
L 7.90625 -20.796875
L 7.90625 -13.28125
L 13.1875 -13.28125
Q 16.890625 -13.28125 18.9375 -11.515625
Q 21 -9.765625 23.484375 -3.21875
L 25.09375 0.875
L 2.984375 54.6875
L 12.5 54.6875
L 29.59375 11.921875
L 46.6875 54.6875
L 56.203125 54.6875
z
" id="DejaVuSans-121"/>
      <path d="M 41.109375 46.296875
Q 39.59375 47.171875 37.8125 47.578125
Q 36.03125 48 33.890625 48
Q 26.265625 48 22.1875 43.046875
Q 18.109375 38.09375 18.109375 28.8125
L 18.109375 0
L 9.078125 0
L 9.078125 54.6875
L 18.109375 54.6875
L 18.109375 46.1875
Q 20.953125 51.171875 25.484375 53.578125
Q 30.03125 56 36.53125 56
Q 37.453125 56 38.578125 55.875
Q 39.703125 55.765625 41.0625 55.515625
z
" id="DejaVuSans-114"/>
      <path d="M 54.890625 33.015625
L 54.890625 0
L 45.90625 0
L 45.90625 32.71875
Q 45.90625 40.484375 42.875 44.328125
Q 39.84375 48.1875 33.796875 48.1875
Q 26.515625 48.1875 22.3125 43.546875
Q 18.109375 38.921875 18.109375 30.90625
L 18.109375 0
L 9.078125 0
L 9.078125 54.6875
L 18.109375 54.6875
L 18.109375 46.1875
Q 21.34375 51.125 25.703125 53.5625
Q 30.078125 56 35.796875 56
Q 45.21875 56 50.046875 50.171875
Q 54.890625 44.34375 54.890625 33.015625
z
" id="DejaVuSans-110"/>
      <path d="M 9.078125 75.984375
L 18.109375 75.984375
L 18.109375 31.109375
L 44.921875 54.6875
L 56.390625 54.6875
L 27.390625 29.109375
L 57.625 0
L 45.90625 0
L 18.109375 26.703125
L 18.109375 0
L 9.078125 0
z
" id="DejaVuSans-107"/>
      <path d="M 9.421875 54.6875
L 18.40625 54.6875
L 18.40625 0
L 9.421875 0
z
M 9.421875 75.984375
L 18.40625 75.984375
L 18.40625 64.59375
L 9.421875 64.59375
z
" id="DejaVuSans-105"/>
      <path d="M 45.40625 27.984375
Q 45.40625 37.75 41.375 43.109375
Q 37.359375 48.484375 30.078125 48.484375
Q 22.859375 48.484375 18.828125 43.109375
Q 14.796875 37.75 14.796875 27.984375
Q 14.796875 18.265625 18.828125 12.890625
Q 22.859375 7.515625 30.078125 7.515625
Q 37.359375 7.515625 41.375 12.890625
Q 45.40625 18.265625 45.40625 27.984375
z
M 54.390625 6.78125
Q 54.390625 -7.171875 48.1875 -13.984375
Q 42 -20.796875 29.203125 -20.796875
Q 24.46875 -20.796875 20.265625 -20.09375
Q 16.0625 -19.390625 12.109375 -17.921875
L 12.109375 -9.1875
Q 16.0625 -11.328125 19.921875 -12.34375
Q 23.78125 -13.375 27.78125 -13.375
Q 36.625 -13.375 41.015625 -8.765625
Q 45.40625 -4.15625 45.40625 5.171875
L 45.40625 9.625
Q 42.625 4.78125 38.28125 2.390625
Q 33.9375 0 27.875 0
Q 17.828125 0 11.671875 7.65625
Q 5.515625 15.328125 5.515625 27.984375
Q 5.515625 40.671875 11.671875 48.328125
Q 17.828125 56 27.875 56
Q 33.9375 56 38.28125 53.609375
Q 42.625 51.21875 45.40625 46.390625
L 45.40625 54.6875
L 54.390625 54.6875
z
" id="DejaVuSans-103"/>
     </defs>
     <g transform="translate(133.769844 319.056782)scale(0.15 -0.15)">
      <use xlink:href="#DejaVuSans-71"/>
      <use x="77.490234" xlink:href="#DejaVuSans-83"/>
      <use x="140.966797" xlink:href="#DejaVuSans-69"/>
      <use x="204.150391" xlink:href="#DejaVuSans-65"/>
      <use x="272.558594" xlink:href="#DejaVuSans-32"/>
      <use x="304.345703" xlink:href="#DejaVuSans-112"/>
      <use x="367.822266" xlink:href="#DejaVuSans-97"/>
      <use x="429.101562" xlink:href="#DejaVuSans-116"/>
      <use x="468.310547" xlink:href="#DejaVuSans-104"/>
      <use x="531.689453" xlink:href="#DejaVuSans-119"/>
      <use x="613.476562" xlink:href="#DejaVuSans-97"/>
      <use x="674.755859" xlink:href="#DejaVuSans-121"/>
      <use x="733.935547" xlink:href="#DejaVuSans-32"/>
      <use x="765.722656" xlink:href="#DejaVuSans-114"/>
      <use x="806.835938" xlink:href="#DejaVuSans-97"/>
      <use x="868.115234" xlink:href="#DejaVuSans-110"/>
      <use x="931.494141" xlink:href="#DejaVuSans-107"/>
      <use x="989.404297" xlink:href="#DejaVuSans-105"/>
      <use x="1017.1875" xlink:href="#DejaVuSans-110"/>
      <use x="1080.566406" xlink:href="#DejaVuSans-103"/>
     </g>
    </g>
   </g>
   <g id="matplotlib.axis_2">
    <g id="ytick_1">
     <g id="line2d_19">
      <path clip-path="url(#p37ecf9b66d)" d="M 46.772188 274.599376
L 403.892188 274.599376
" style="fill:none;stroke:#e5e5e5;stroke-width:0.8;"/>
     </g>
     <g id="line2d_20">
      <path d="M 46.772188 274.599376
" style="fill:none;stroke:#000000;stroke-width:1.5;"/>
      <defs>
       <path d="M 0 0
L -2.75 0
" id="ma859666634" style="stroke:#000000;"/>
      </defs>
      <g>
       <use style="stroke:#000000;" x="46.772188" xlink:href="#ma859666634" y="274.599376"/>
      </g>
     </g>
     <g id="text_7">
      <!-- 0 -->
      <g style="fill:#4d4d4d;" transform="translate(34.187188 277.910626)scale(0.12 -0.12)">
       <use xlink:href="#DejaVuSans-48"/>
      </g>
     </g>
    </g>
    <g id="ytick_2">
     <g id="line2d_21">
      <path clip-path="url(#p37ecf9b66d)" d="M 46.772188 214.119376
L 403.892188 214.119376
" style="fill:none;stroke:#e5e5e5;stroke-width:0.8;"/>
     </g>
     <g id="line2d_22">
      <path d="M 46.772188 214.119376
" style="fill:none;stroke:#000000;stroke-width:1.5;"/>
      <g>
       <use style="stroke:#000000;" x="46.772188" xlink:href="#ma859666634" y="214.119376"/>
      </g>
     </g>
     <g id="text_8">
      <!-- 25 -->
      <g style="fill:#4d4d4d;" transform="translate(26.552188 217.430626)scale(0.12 -0.12)">
       <use xlink:href="#DejaVuSans-50"/>
       <use x="63.623047" xlink:href="#DejaVuSans-53"/>
      </g>
     </g>
    </g>
    <g id="ytick_3">
     <g id="line2d_23">
      <path clip-path="url(#p37ecf9b66d)" d="M 46.772188 153.639376
L 403.892188 153.639376
" style="fill:none;stroke:#e5e5e5;stroke-width:0.8;"/>
     </g>
     <g id="line2d_24">
      <path d="M 46.772188 153.639376
" style="fill:none;stroke:#000000;stroke-width:1.5;"/>
      <g>
       <use style="stroke:#000000;" x="46.772188" xlink:href="#ma859666634" y="153.639376"/>
      </g>
     </g>
     <g id="text_9">
      <!-- 50 -->
      <g style="fill:#4d4d4d;" transform="translate(26.552188 156.950626)scale(0.12 -0.12)">
       <use xlink:href="#DejaVuSans-53"/>
       <use x="63.623047" xlink:href="#DejaVuSans-48"/>
      </g>
     </g>
    </g>
    <g id="ytick_4">
     <g id="line2d_25">
      <path clip-path="url(#p37ecf9b66d)" d="M 46.772188 93.159376
L 403.892188 93.159376
" style="fill:none;stroke:#e5e5e5;stroke-width:0.8;"/>
     </g>
     <g id="line2d_26">
      <path d="M 46.772188 93.159376
" style="fill:none;stroke:#000000;stroke-width:1.5;"/>
      <g>
       <use style="stroke:#000000;" x="46.772188" xlink:href="#ma859666634" y="93.159376"/>
      </g>
     </g>
     <g id="text_10">
      <!-- 75 -->
      <g style="fill:#4d4d4d;" transform="translate(26.552188 96.470626)scale(0.12 -0.12)">
       <use xlink:href="#DejaVuSans-55"/>
       <use x="63.623047" xlink:href="#DejaVuSans-53"/>
      </g>
     </g>
    </g>
    <g id="ytick_5">
     <g id="line2d_27">
      <path clip-path="url(#p37ecf9b66d)" d="M 46.772188 32.679376
L 403.892188 32.679376
" style="fill:none;stroke:#e5e5e5;stroke-width:0.8;"/>
     </g>
     <g id="line2d_28">
      <path d="M 46.772188 32.679376
" style="fill:none;stroke:#000000;stroke-width:1.5;"/>
      <g>
       <use style="stroke:#000000;" x="46.772188" xlink:href="#ma859666634" y="32.679376"/>
      </g>
     </g>
     <g id="text_11">
      <!-- 100 -->
      <g style="fill:#4d4d4d;" transform="translate(18.917188 35.990626)scale(0.12 -0.12)">
       <use xlink:href="#DejaVuSans-49"/>
       <use x="63.623047" xlink:href="#DejaVuSans-48"/>
       <use x="127.246094" xlink:href="#DejaVuSans-48"/>
      </g>
     </g>
    </g>
    <g id="ytick_6">
     <g id="line2d_29">
      <path clip-path="url(#p37ecf9b66d)" d="M 46.772188 244.359376
L 403.892188 244.359376
" style="fill:none;stroke:#fafafa;"/>
     </g>
     <g id="line2d_30">
      <path d="M 46.772188 244.359376
" style="fill:none;stroke:#000000;stroke-width:1.5;"/>
     </g>
    </g>
    <g id="ytick_7">
     <g id="line2d_31">
      <path clip-path="url(#p37ecf9b66d)" d="M 46.772188 183.879376
L 403.892188 183.879376
" style="fill:none;stroke:#fafafa;"/>
     </g>
     <g id="line2d_32">
      <path d="M 46.772188 183.879376
" style="fill:none;stroke:#000000;stroke-width:1.5;"/>
     </g>
    </g>
    <g id="ytick_8">
     <g id="line2d_33">
      <path clip-path="url(#p37ecf9b66d)" d="M 46.772188 123.399376
L 403.892188 123.399376
" style="fill:none;stroke:#fafafa;"/>
     </g>
     <g id="line2d_34">
      <path d="M 46.772188 123.399376
" style="fill:none;stroke:#000000;stroke-width:1.5;"/>
     </g>
    </g>
    <g id="ytick_9">
     <g id="line2d_35">
      <path clip-path="url(#p37ecf9b66d)" d="M 46.772188 62.919376
L 403.892188 62.919376
" style="fill:none;stroke:#fafafa;"/>
     </g>
     <g id="line2d_36">
      <path d="M 46.772188 62.919376
" style="fill:none;stroke:#000000;stroke-width:1.5;"/>
     </g>
    </g>
    <g id="text_12">
     <!-- CAMERA pathway ranking -->
     <defs>
      <path d="M 64.40625 67.28125
L 64.40625 56.890625
Q 59.421875 61.53125 53.78125 63.8125
Q 48.140625 66.109375 41.796875 66.109375
Q 29.296875 66.109375 22.65625 58.46875
Q 16.015625 50.828125 16.015625 36.375
Q 16.015625 21.96875 22.65625 14.328125
Q 29.296875 6.6875 41.796875 6.6875
Q 48.140625 6.6875 53.78125 8.984375
Q 59.421875 11.28125 64.40625 15.921875
L 64.40625 5.609375
Q 59.234375 2.09375 53.4375 0.328125
Q 47.65625 -1.421875 41.21875 -1.421875
Q 24.65625 -1.421875 15.125 8.703125
Q 5.609375 18.84375 5.609375 36.375
Q 5.609375 53.953125 15.125 64.078125
Q 24.65625 74.21875 41.21875 74.21875
Q 47.75 74.21875 53.53125 72.484375
Q 59.328125 70.75 64.40625 67.28125
z
" id="DejaVuSans-67"/>
      <path d="M 9.8125 72.90625
L 24.515625 72.90625
L 43.109375 23.296875
L 61.8125 72.90625
L 76.515625 72.90625
L 76.515625 0
L 66.890625 0
L 66.890625 64.015625
L 48.09375 14.015625
L 38.1875 14.015625
L 19.390625 64.015625
L 19.390625 0
L 9.8125 0
z
" id="DejaVuSans-77"/>
      <path d="M 44.390625 34.1875
Q 47.5625 33.109375 50.5625 29.59375
Q 53.5625 26.078125 56.59375 19.921875
L 66.609375 0
L 56 0
L 46.6875 18.703125
Q 43.0625 26.03125 39.671875 28.421875
Q 36.28125 30.8125 30.421875 30.8125
L 19.671875 30.8125
L 19.671875 0
L 9.8125 0
L 9.8125 72.90625
L 32.078125 72.90625
Q 44.578125 72.90625 50.734375 67.671875
Q 56.890625 62.453125 56.890625 51.90625
Q 56.890625 45.015625 53.6875 40.46875
Q 50.484375 35.9375 44.390625 34.1875
z
M 19.671875 64.796875
L 19.671875 38.921875
L 32.078125 38.921875
Q 39.203125 38.921875 42.84375 42.21875
Q 46.484375 45.515625 46.484375 51.90625
Q 46.484375 58.296875 42.84375 61.546875
Q 39.203125 64.796875 32.078125 64.796875
z
" id="DejaVuSans-82"/>
     </defs>
     <g transform="translate(11.397656 249.186376)rotate(-90)scale(0.15 -0.15)">
      <use xlink:href="#DejaVuSans-67"/>
      <use x="69.824219" xlink:href="#DejaVuSans-65"/>
      <use x="138.232422" xlink:href="#DejaVuSans-77"/>
      <use x="224.511719" xlink:href="#DejaVuSans-69"/>
      <use x="287.695312" xlink:href="#DejaVuSans-82"/>
      <use x="357.115234" xlink:href="#DejaVuSans-65"/>
      <use x="425.523438" xlink:href="#DejaVuSans-32"/>
      <use x="457.310547" xlink:href="#DejaVuSans-112"/>
      <use x="520.787109" xlink:href="#DejaVuSans-97"/>
      <use x="582.066406" xlink:href="#DejaVuSans-116"/>
      <use x="621.275391" xlink:href="#DejaVuSans-104"/>
      <use x="684.654297" xlink:href="#DejaVuSans-119"/>
      <use x="766.441406" xlink:href="#DejaVuSans-97"/>
      <use x="827.720703" xlink:href="#DejaVuSans-121"/>
      <use x="886.900391" xlink:href="#DejaVuSans-32"/>
      <use x="918.6875" xlink:href="#DejaVuSans-114"/>
      <use x="959.800781" xlink:href="#DejaVuSans-97"/>
      <use x="1021.080078" xlink:href="#DejaVuSans-110"/>
      <use x="1084.458984" xlink:href="#DejaVuSans-107"/>
      <use x="1142.369141" xlink:href="#DejaVuSans-105"/>
      <use x="1170.152344" xlink:href="#DejaVuSans-110"/>
      <use x="1233.53125" xlink:href="#DejaVuSans-103"/>
     </g>
    </g>
   </g>
   <g id="PathCollection_1">
    <path clip-path="url(#p37ecf9b66d)" d="M 149.57946 123.320401
C 150.04952 123.320401 150.500392 123.133644 150.832774 122.801261
C 151.165157 122.468879 151.351914 122.018008 151.351914 121.547947
C 151.351914 121.077887 151.165157 120.627016 150.832774 120.294633
C 150.500392 119.96225 150.04952 119.775493 149.57946 119.775493
C 149.1094 119.775493 148.658529 119.96225 148.326146 120.294633
C 147.993763 120.627016 147.807006 121.077887 147.807006 121.547947
C 147.807006 122.018008 147.993763 122.468879 148.326146 122.801261
C 148.658529 123.133644 149.1094 123.320401 149.57946 123.320401
z
" style="stroke:#000000;stroke-width:0.886227;"/>
    <path clip-path="url(#p37ecf9b66d)" d="M 63.004915 118.383258
C 63.474975 118.383258 63.925846 118.196501 64.258229 117.864119
C 64.590612 117.531736 64.777369 117.080865 64.777369 116.610804
C 64.777369 116.140744 64.590612 115.689873 64.258229 115.35749
C 63.925846 115.025107 63.474975 114.838351 63.004915 114.838351
C 62.534855 114.838351 62.083983 115.025107 61.751601 115.35749
C 61.419218 115.689873 61.232461 116.140744 61.232461 116.610804
C 61.232461 117.080865 61.419218 117.531736 61.751601 117.864119
C 62.083983 118.196501 62.534855 118.383258 63.004915 118.383258
z
" style="stroke:#000000;stroke-width:0.886227;"/>
    <path clip-path="url(#p37ecf9b66d)" d="M 142.364915 93.697544
C 142.834975 93.697544 143.285846 93.510787 143.618229 93.178404
C 143.950612 92.846021 144.137369 92.39515 144.137369 91.92509
C 144.137369 91.45503 143.950612 91.004159 143.618229 90.671776
C 143.285846 90.339393 142.834975 90.152636 142.364915 90.152636
C 141.894855 90.152636 141.443983 90.339393 141.111601 90.671776
C 140.779218 91.004159 140.592461 91.45503 140.592461 91.92509
C 140.592461 92.39515 140.779218 92.846021 141.111601 93.178404
C 141.443983 93.510787 141.894855 93.697544 142.364915 93.697544
z
" style="stroke:#000000;stroke-width:0.886227;"/>
    <path clip-path="url(#p37ecf9b66d)" d="M 286.655824 152.943258
C 287.125884 152.943258 287.576755 152.756501 287.909138 152.424119
C 288.241521 152.091736 288.428278 151.640865 288.428278 151.170804
C 288.428278 150.700744 288.241521 150.249873 287.909138 149.91749
C 287.576755 149.585107 287.125884 149.398351 286.655824 149.398351
C 286.185764 149.398351 285.734893 149.585107 285.40251 149.91749
C 285.070127 150.249873 284.88337 150.700744 284.88337 151.170804
C 284.88337 151.640865 285.070127 152.091736 285.40251 152.424119
C 285.734893 152.756501 286.185764 152.943258 286.655824 152.943258
z
" style="stroke:#000000;stroke-width:0.886227;"/>
    <path clip-path="url(#p37ecf9b66d)" d="M 373.230369 39.388973
C 373.70043 39.388973 374.151301 39.202216 374.483683 38.869833
C 374.816066 38.53745 375.002823 38.086579 375.002823 37.616519
C 375.002823 37.146458 374.816066 36.695587 374.483683 36.363205
C 374.151301 36.030822 373.70043 35.844065 373.230369 35.844065
C 372.760309 35.844065 372.309438 36.030822 371.977055 36.363205
C 371.644672 36.695587 371.457915 37.146458 371.457915 37.616519
C 371.457915 38.086579 371.644672 38.53745 371.977055 38.869833
C 372.309438 39.202216 372.760309 39.388973 373.230369 39.388973
z
" style="stroke:#000000;stroke-width:0.886227;"/>
    <path clip-path="url(#p37ecf9b66d)" d="M 99.077642 143.068973
C 99.547702 143.068973 99.998573 142.882216 100.330956 142.549833
C 100.663339 142.21745 100.850096 141.766579 100.850096 141.296519
C 100.850096 140.826458 100.663339 140.375587 100.330956 140.043205
C 99.998573 139.710822 99.547702 139.524065 99.077642 139.524065
C 98.607582 139.524065 98.156711 139.710822 97.824328 140.043205
C 97.491945 140.375587 97.305188 140.826458 97.305188 141.296519
C 97.305188 141.766579 97.491945 142.21745 97.824328 142.549833
C 98.156711 142.882216 98.607582 143.068973 99.077642 143.068973
z
" style="stroke:#000000;stroke-width:0.886227;"/>
    <path clip-path="url(#p37ecf9b66d)" d="M 63.004915 251.686115
C 63.474975 251.686115 63.925846 251.499358 64.258229 251.166976
C 64.590612 250.834593 64.777369 250.383722 64.777369 249.913662
C 64.777369 249.443601 64.590612 248.99273 64.258229 248.660347
C 63.925846 248.327965 63.474975 248.141208 63.004915 248.141208
C 62.534855 248.141208 62.083983 248.327965 61.751601 248.660347
C 61.419218 248.99273 61.232461 249.443601 61.232461 249.913662
C 61.232461 250.383722 61.419218 250.834593 61.751601 251.166976
C 62.083983 251.499358 62.534855 251.686115 63.004915 251.686115
z
" style="stroke:#000000;stroke-width:0.886227;"/>
    <path clip-path="url(#p37ecf9b66d)" d="M 171.223097 148.006115
C 171.693157 148.006115 172.144028 147.819358 172.476411 147.486976
C 172.808794 147.154593 172.99555 146.703722 172.99555 146.233662
C 172.99555 145.763601 172.808794 145.31273 172.476411 144.980347
C 172.144028 144.647965 171.693157 144.461208 171.223097 144.461208
C 170.753036 144.461208 170.302165 144.647965 169.969782 144.980347
C 169.6374 145.31273 169.450643 145.763601 169.450643 146.233662
C 169.450643 146.703722 169.6374 147.154593 169.969782 147.486976
C 170.302165 147.819358 170.753036 148.006115 171.223097 148.006115
z
" style="stroke:#000000;stroke-width:0.886227;"/>
    <path clip-path="url(#p37ecf9b66d)" d="M 113.506733 246.748973
C 113.976793 246.748973 114.427664 246.562216 114.760047 246.229833
C 115.09243 245.89745 115.279187 245.446579 115.279187 244.976519
C 115.279187 244.506458 115.09243 244.055587 114.760047 243.723205
C 114.427664 243.390822 113.976793 243.204065 113.506733 243.204065
C 113.036673 243.204065 112.585802 243.390822 112.253419 243.723205
C 111.921036 244.055587 111.734279 244.506458 111.734279 244.976519
C 111.734279 245.446579 111.921036 245.89745 112.253419 246.229833
C 112.585802 246.562216 113.036673 246.748973 113.506733 246.748973
z
" style="stroke:#000000;stroke-width:0.886227;"/>
    <path clip-path="url(#p37ecf9b66d)" d="M 387.65946 199.846115
C 388.12952 199.846115 388.580392 199.659358 388.912774 199.326976
C 389.245157 198.994593 389.431914 198.543722 389.431914 198.073662
C 389.431914 197.603601 389.245157 197.15273 388.912774 196.820347
C 388.580392 196.487965 388.12952 196.301208 387.65946 196.301208
C 387.1894 196.301208 386.738529 196.487965 386.406146 196.820347
C 386.073763 197.15273 385.887006 197.603601 385.887006 198.073662
C 385.887006 198.543722 386.073763 198.994593 386.406146 199.326976
C 386.738529 199.659358 387.1894 199.846115 387.65946 199.846115
z
" style="stroke:#000000;stroke-width:0.886227;"/>
    <path clip-path="url(#p37ecf9b66d)" d="M 228.93946 162.817544
C 229.40952 162.817544 229.860392 162.630787 230.192774 162.298404
C 230.525157 161.966021 230.711914 161.51515 230.711914 161.04509
C 230.711914 160.57503 230.525157 160.124159 230.192774 159.791776
C 229.860392 159.459393 229.40952 159.272636 228.93946 159.272636
C 228.4694 159.272636 228.018529 159.459393 227.686146 159.791776
C 227.353763 160.124159 227.167006 160.57503 227.167006 161.04509
C 227.167006 161.51515 227.353763 161.966021 227.686146 162.298404
C 228.018529 162.630787 228.4694 162.817544 228.93946 162.817544
z
" style="stroke:#000000;stroke-width:0.886227;"/>
    <path clip-path="url(#p37ecf9b66d)" d="M 272.226733 83.823258
C 272.696793 83.823258 273.147664 83.636501 273.480047 83.304119
C 273.81243 82.971736 273.999187 82.520865 273.999187 82.050804
C 273.999187 81.580744 273.81243 81.129873 273.480047 80.79749
C 273.147664 80.465107 272.696793 80.278351 272.226733 80.278351
C 271.756673 80.278351 271.305802 80.465107 270.973419 80.79749
C 270.641036 81.129873 270.454279 81.580744 270.454279 82.050804
C 270.454279 82.520865 270.641036 82.971736 270.973419 83.304119
C 271.305802 83.636501 271.756673 83.823258 272.226733 83.823258
z
" style="stroke:#000000;stroke-width:0.886227;"/>
    <path clip-path="url(#p37ecf9b66d)" d="M 63.004915 64.074687
C 63.474975 64.074687 63.925846 63.88793 64.258229 63.555547
C 64.590612 63.223164 64.777369 62.772293 64.777369 62.302233
C 64.777369 61.832173 64.590612 61.381302 64.258229 61.048919
C 63.925846 60.716536 63.474975 60.529779 63.004915 60.529779
C 62.534855 60.529779 62.083983 60.716536 61.751601 61.048919
C 61.419218 61.381302 61.232461 61.832173 61.232461 62.302233
C 61.232461 62.772293 61.419218 63.223164 61.751601 63.555547
C 62.083983 63.88793 62.534855 64.074687 63.004915 64.074687
z
" style="stroke:#000000;stroke-width:0.886227;"/>
    <path clip-path="url(#p37ecf9b66d)" d="M 120.721278 261.560401
C 121.191339 261.560401 121.64221 261.373644 121.974593 261.041261
C 122.306975 260.708879 122.493732 260.258008 122.493732 259.787947
C 122.493732 259.317887 122.306975 258.867016 121.974593 258.534633
C 121.64221 258.20225 121.191339 258.015493 120.721278 258.015493
C 120.251218 258.015493 119.800347 258.20225 119.467964 258.534633
C 119.135581 258.867016 118.948825 259.317887 118.948825 259.787947
C 118.948825 260.258008 119.135581 260.708879 119.467964 261.041261
C 119.800347 261.373644 120.251218 261.560401 120.721278 261.560401
z
" style="stroke:#000000;stroke-width:0.886227;"/>
    <path clip-path="url(#p37ecf9b66d)" d="M 63.004915 266.497544
C 63.474975 266.497544 63.925846 266.310787 64.258229 265.978404
C 64.590612 265.646021 64.777369 265.19515 64.777369 264.72509
C 64.777369 264.25503 64.590612 263.804159 64.258229 263.471776
C 63.925846 263.139393 63.474975 262.952636 63.004915 262.952636
C 62.534855 262.952636 62.083983 263.139393 61.751601 263.471776
C 61.419218 263.804159 61.232461 264.25503 61.232461 264.72509
C 61.232461 265.19515 61.419218 265.646021 61.751601 265.978404
C 62.083983 266.310787 62.534855 266.497544 63.004915 266.497544
z
" style="stroke:#000000;stroke-width:0.886227;"/>
    <path clip-path="url(#p37ecf9b66d)" d="M 380.444915 170.223258
C 380.914975 170.223258 381.365846 170.036501 381.698229 169.704119
C 382.030612 169.371736 382.217369 168.920865 382.217369 168.450804
C 382.217369 167.980744 382.030612 167.529873 381.698229 167.19749
C 381.365846 166.865107 380.914975 166.678351 380.444915 166.678351
C 379.974855 166.678351 379.523983 166.865107 379.191601 167.19749
C 378.859218 167.529873 378.672461 167.980744 378.672461 168.450804
C 378.672461 168.920865 378.859218 169.371736 379.191601 169.704119
C 379.523983 170.036501 379.974855 170.223258 380.444915 170.223258
z
" style="stroke:#000000;stroke-width:0.886227;"/>
    <path clip-path="url(#p37ecf9b66d)" d="M 63.004915 138.13183
C 63.474975 138.13183 63.925846 137.945073 64.258229 137.61269
C 64.590612 137.280307 64.777369 136.829436 64.777369 136.359376
C 64.777369 135.889316 64.590612 135.438444 64.258229 135.106062
C 63.925846 134.773679 63.474975 134.586922 63.004915 134.586922
C 62.534855 134.586922 62.083983 134.773679 61.751601 135.106062
C 61.419218 135.438444 61.232461 135.889316 61.232461 136.359376
C 61.232461 136.829436 61.419218 137.280307 61.751601 137.61269
C 62.083983 137.945073 62.534855 138.13183 63.004915 138.13183
z
" style="stroke:#000000;stroke-width:0.886227;"/>
    <path clip-path="url(#p37ecf9b66d)" d="M 156.794006 133.194687
C 157.264066 133.194687 157.714937 133.00793 158.04732 132.675547
C 158.379703 132.343164 158.56646 131.892293 158.56646 131.422233
C 158.56646 130.952173 158.379703 130.501302 158.04732 130.168919
C 157.714937 129.836536 157.264066 129.649779 156.794006 129.649779
C 156.323945 129.649779 155.873074 129.836536 155.540692 130.168919
C 155.208309 130.501302 155.021552 130.952173 155.021552 131.422233
C 155.021552 131.892293 155.208309 132.343164 155.540692 132.675547
C 155.873074 133.00793 156.323945 133.194687 156.794006 133.194687
z
" style="stroke:#000000;stroke-width:0.886227;"/>
    <path clip-path="url(#p37ecf9b66d)" d="M 344.372188 170.223258
C 344.842248 170.223258 345.293119 170.036501 345.625502 169.704119
C 345.957884 169.371736 346.144641 168.920865 346.144641 168.450804
C 346.144641 167.980744 345.957884 167.529873 345.625502 167.19749
C 345.293119 166.865107 344.842248 166.678351 344.372188 166.678351
C 343.902127 166.678351 343.451256 166.865107 343.118873 167.19749
C 342.786491 167.529873 342.599734 167.980744 342.599734 168.450804
C 342.599734 168.920865 342.786491 169.371736 343.118873 169.704119
C 343.451256 170.036501 343.902127 170.223258 344.372188 170.223258
z
" style="stroke:#000000;stroke-width:0.886227;"/>
    <path clip-path="url(#p37ecf9b66d)" d="M 221.724915 271.434687
C 222.194975 271.434687 222.645846 271.24793 222.978229 270.915547
C 223.310612 270.583164 223.497369 270.132293 223.497369 269.662233
C 223.497369 269.192173 223.310612 268.741302 222.978229 268.408919
C 222.645846 268.076536 222.194975 267.889779 221.724915 267.889779
C 221.254855 267.889779 220.803983 268.076536 220.471601 268.408919
C 220.139218 268.741302 219.952461 269.192173 219.952461 269.662233
C 219.952461 270.132293 220.139218 270.583164 220.471601 270.915547
C 220.803983 271.24793 221.254855 271.434687 221.724915 271.434687
z
" style="stroke:#000000;stroke-width:0.886227;"/>
    <path clip-path="url(#p37ecf9b66d)" d="M 301.084915 54.200401
C 301.554975 54.200401 302.005846 54.013644 302.338229 53.681261
C 302.670612 53.348879 302.857369 52.898008 302.857369 52.427947
C 302.857369 51.957887 302.670612 51.507016 302.338229 51.174633
C 302.005846 50.84225 301.554975 50.655493 301.084915 50.655493
C 300.614855 50.655493 300.163983 50.84225 299.831601 51.174633
C 299.499218 51.507016 299.312461 51.957887 299.312461 52.427947
C 299.312461 52.898008 299.499218 53.348879 299.831601 53.681261
C 300.163983 54.013644 300.614855 54.200401 301.084915 54.200401
z
" style="stroke:#000000;stroke-width:0.886227;"/>
    <path clip-path="url(#p37ecf9b66d)" d="M 63.004915 34.45183
C 63.474975 34.45183 63.925846 34.265073 64.258229 33.93269
C 64.590612 33.600307 64.777369 33.149436 64.777369 32.679376
C 64.777369 32.209316 64.590612 31.758444 64.258229 31.426062
C 63.925846 31.093679 63.474975 30.906922 63.004915 30.906922
C 62.534855 30.906922 62.083983 31.093679 61.751601 31.426062
C 61.419218 31.758444 61.232461 32.209316 61.232461 32.679376
C 61.232461 33.149436 61.419218 33.600307 61.751601 33.93269
C 62.083983 34.265073 62.534855 34.45183 63.004915 34.45183
z
" style="stroke:#000000;stroke-width:0.886227;"/>
    <path clip-path="url(#p37ecf9b66d)" d="M 243.368551 69.01183
C 243.838611 69.01183 244.289482 68.825073 244.621865 68.49269
C 244.954248 68.160307 245.141005 67.709436 245.141005 67.239376
C 245.141005 66.769316 244.954248 66.318444 244.621865 65.986062
C 244.289482 65.653679 243.838611 65.466922 243.368551 65.466922
C 242.898491 65.466922 242.44762 65.653679 242.115237 65.986062
C 241.782854 66.318444 241.596097 66.769316 241.596097 67.239376
C 241.596097 67.709436 241.782854 68.160307 242.115237 68.49269
C 242.44762 68.825073 242.898491 69.01183 243.368551 69.01183
z
" style="stroke:#000000;stroke-width:0.886227;"/>
    <path clip-path="url(#p37ecf9b66d)" d="M 265.012187 128.257544
C 265.482248 128.257544 265.933119 128.070787 266.265502 127.738404
C 266.597884 127.406021 266.784641 126.95515 266.784641 126.48509
C 266.784641 126.01503 266.597884 125.564159 266.265502 125.231776
C 265.933119 124.899393 265.482248 124.712636 265.012187 124.712636
C 264.542127 124.712636 264.091256 124.899393 263.758873 125.231776
C 263.426491 125.564159 263.239734 126.01503 263.239734 126.48509
C 263.239734 126.95515 263.426491 127.406021 263.758873 127.738404
C 264.091256 128.070787 264.542127 128.257544 265.012187 128.257544
z
" style="stroke:#000000;stroke-width:0.886227;"/>
    <path clip-path="url(#p37ecf9b66d)" d="M 337.157642 108.508973
C 337.627702 108.508973 338.078573 108.322216 338.410956 107.989833
C 338.743339 107.65745 338.930096 107.206579 338.930096 106.736519
C 338.930096 106.266458 338.743339 105.815587 338.410956 105.483205
C 338.078573 105.150822 337.627702 104.964065 337.157642 104.964065
C 336.687582 104.964065 336.236711 105.150822 335.904328 105.483205
C 335.571945 105.815587 335.385188 106.266458 335.385188 106.736519
C 335.385188 107.206579 335.571945 107.65745 335.904328 107.989833
C 336.236711 108.322216 336.687582 108.508973 337.157642 108.508973
z
" style="stroke:#000000;stroke-width:0.886227;"/>
    <path clip-path="url(#p37ecf9b66d)" d="M 358.801278 78.886115
C 359.271339 78.886115 359.72221 78.699358 360.054593 78.366976
C 360.386975 78.034593 360.573732 77.583722 360.573732 77.113662
C 360.573732 76.643601 360.386975 76.19273 360.054593 75.860347
C 359.72221 75.527965 359.271339 75.341208 358.801278 75.341208
C 358.331218 75.341208 357.880347 75.527965 357.547964 75.860347
C 357.215581 76.19273 357.028825 76.643601 357.028825 77.113662
C 357.028825 77.583722 357.215581 78.034593 357.547964 78.366976
C 357.880347 78.699358 358.331218 78.886115 358.801278 78.886115
z
" style="stroke:#000000;stroke-width:0.886227;"/>
    <path clip-path="url(#p37ecf9b66d)" d="M 322.728551 276.37183
C 323.198611 276.37183 323.649482 276.185073 323.981865 275.85269
C 324.314248 275.520307 324.501005 275.069436 324.501005 274.599376
C 324.501005 274.129316 324.314248 273.678444 323.981865 273.346062
C 323.649482 273.013679 323.198611 272.826922 322.728551 272.826922
C 322.258491 272.826922 321.80762 273.013679 321.475237 273.346062
C 321.142854 273.678444 320.956097 274.129316 320.956097 274.599376
C 320.956097 275.069436 321.142854 275.520307 321.475237 275.85269
C 321.80762 276.185073 322.258491 276.37183 322.728551 276.37183
z
" style="stroke:#000000;stroke-width:0.886227;"/>
    <path clip-path="url(#p37ecf9b66d)" d="M 366.015824 241.81183
C 366.485884 241.81183 366.936755 241.625073 367.269138 241.29269
C 367.601521 240.960307 367.788278 240.509436 367.788278 240.039376
C 367.788278 239.569316 367.601521 239.118444 367.269138 238.786062
C 366.936755 238.453679 366.485884 238.266922 366.015824 238.266922
C 365.545764 238.266922 365.094893 238.453679 364.76251 238.786062
C 364.430127 239.118444 364.24337 239.569316 364.24337 240.039376
C 364.24337 240.509436 364.430127 240.960307 364.76251 241.29269
C 365.094893 241.625073 365.545764 241.81183 366.015824 241.81183
z
" style="stroke:#000000;stroke-width:0.886227;"/>
    <path clip-path="url(#p37ecf9b66d)" d="M 106.292188 212.188973
C 106.762248 212.188973 107.213119 212.002216 107.545502 211.669833
C 107.877884 211.33745 108.064641 210.886579 108.064641 210.416519
C 108.064641 209.946458 107.877884 209.495587 107.545502 209.163205
C 107.213119 208.830822 106.762248 208.644065 106.292188 208.644065
C 105.822127 208.644065 105.371256 208.830822 105.038873 209.163205
C 104.706491 209.495587 104.519734 209.946458 104.519734 210.416519
C 104.519734 210.886579 104.706491 211.33745 105.038873 211.669833
C 105.371256 212.002216 105.822127 212.188973 106.292188 212.188973
z
" style="stroke:#000000;stroke-width:0.886227;"/>
    <path clip-path="url(#p37ecf9b66d)" d="M 185.652187 199.846115
C 186.122248 199.846115 186.573119 199.659358 186.905502 199.326976
C 187.237884 198.994593 187.424641 198.543722 187.424641 198.073662
C 187.424641 197.603601 187.237884 197.15273 186.905502 196.820347
C 186.573119 196.487965 186.122248 196.301208 185.652187 196.301208
C 185.182127 196.301208 184.731256 196.487965 184.398873 196.820347
C 184.066491 197.15273 183.879734 197.603601 183.879734 198.073662
C 183.879734 198.543722 184.066491 198.994593 184.398873 199.326976
C 184.731256 199.659358 185.182127 199.846115 185.652187 199.846115
z
" style="stroke:#000000;stroke-width:0.886227;"/>
    <path clip-path="url(#p37ecf9b66d)" d="M 207.295824 59.137544
C 207.765884 59.137544 208.216755 58.950787 208.549138 58.618404
C 208.881521 58.286021 209.068278 57.83515 209.068278 57.36509
C 209.068278 56.89503 208.881521 56.444159 208.549138 56.111776
C 208.216755 55.779393 207.765884 55.592636 207.295824 55.592636
C 206.825764 55.592636 206.374893 55.779393 206.04251 56.111776
C 205.710127 56.444159 205.52337 56.89503 205.52337 57.36509
C 205.52337 57.83515 205.710127 58.286021 206.04251 58.618404
C 206.374893 58.950787 206.825764 59.137544 207.295824 59.137544
z
" style="stroke:#000000;stroke-width:0.886227;"/>
    <path clip-path="url(#p37ecf9b66d)" d="M 192.866733 222.063258
C 193.336793 222.063258 193.787664 221.876501 194.120047 221.544119
C 194.45243 221.211736 194.639187 220.760865 194.639187 220.290804
C 194.639187 219.820744 194.45243 219.369873 194.120047 219.03749
C 193.787664 218.705107 193.336793 218.518351 192.866733 218.518351
C 192.396673 218.518351 191.945802 218.705107 191.613419 219.03749
C 191.281036 219.369873 191.094279 219.820744 191.094279 220.290804
C 191.094279 220.760865 191.281036 221.211736 191.613419 221.544119
C 191.945802 221.876501 192.396673 222.063258 192.866733 222.063258
z
" style="stroke:#000000;stroke-width:0.886227;"/>
    <path clip-path="url(#p37ecf9b66d)" d="M 178.437642 73.948973
C 178.907702 73.948973 179.358573 73.762216 179.690956 73.429833
C 180.023339 73.09745 180.210096 72.646579 180.210096 72.176519
C 180.210096 71.706458 180.023339 71.255587 179.690956 70.923205
C 179.358573 70.590822 178.907702 70.404065 178.437642 70.404065
C 177.967582 70.404065 177.516711 70.590822 177.184328 70.923205
C 176.851945 71.255587 176.665188 71.706458 176.665188 72.176519
C 176.665188 72.646579 176.851945 73.09745 177.184328 73.429833
C 177.516711 73.762216 177.967582 73.948973 178.437642 73.948973
z
" style="stroke:#000000;stroke-width:0.886227;"/>
    <path clip-path="url(#p37ecf9b66d)" d="M 279.441278 187.503258
C 279.911339 187.503258 280.36221 187.316501 280.694593 186.984119
C 281.026975 186.651736 281.213732 186.200865 281.213732 185.730804
C 281.213732 185.260744 281.026975 184.809873 280.694593 184.47749
C 280.36221 184.145107 279.911339 183.958351 279.441278 183.958351
C 278.971218 183.958351 278.520347 184.145107 278.187964 184.47749
C 277.855581 184.809873 277.668825 185.260744 277.668825 185.730804
C 277.668825 186.200865 277.855581 186.651736 278.187964 186.984119
C 278.520347 187.316501 278.971218 187.503258 279.441278 187.503258
z
" style="stroke:#000000;stroke-width:0.886227;"/>
    <path clip-path="url(#p37ecf9b66d)" d="M 135.150369 157.880401
C 135.62043 157.880401 136.071301 157.693644 136.403683 157.361261
C 136.736066 157.028879 136.922823 156.578008 136.922823 156.107947
C 136.922823 155.637887 136.736066 155.187016 136.403683 154.854633
C 136.071301 154.52225 135.62043 154.335493 135.150369 154.335493
C 134.680309 154.335493 134.229438 154.52225 133.897055 154.854633
C 133.564672 155.187016 133.377915 155.637887 133.377915 156.107947
C 133.377915 156.578008 133.564672 157.028879 133.897055 157.361261
C 134.229438 157.693644 134.680309 157.880401 135.150369 157.880401
z
" style="stroke:#000000;stroke-width:0.886227;"/>
    <path clip-path="url(#p37ecf9b66d)" d="M 257.797642 182.566115
C 258.267702 182.566115 258.718573 182.379358 259.050956 182.046976
C 259.383339 181.714593 259.570096 181.263722 259.570096 180.793662
C 259.570096 180.323601 259.383339 179.87273 259.050956 179.540347
C 258.718573 179.207965 258.267702 179.021208 257.797642 179.021208
C 257.327582 179.021208 256.876711 179.207965 256.544328 179.540347
C 256.211945 179.87273 256.025188 180.323601 256.025188 180.793662
C 256.025188 181.263722 256.211945 181.714593 256.544328 182.046976
C 256.876711 182.379358 257.327582 182.566115 257.797642 182.566115
z
" style="stroke:#000000;stroke-width:0.886227;"/>
    <path clip-path="url(#p37ecf9b66d)" d="M 250.583097 103.57183
C 251.053157 103.57183 251.504028 103.385073 251.836411 103.05269
C 252.168794 102.720307 252.35555 102.269436 252.35555 101.799376
C 252.35555 101.329316 252.168794 100.878444 251.836411 100.546062
C 251.504028 100.213679 251.053157 100.026922 250.583097 100.026922
C 250.113036 100.026922 249.662165 100.213679 249.329782 100.546062
C 248.9974 100.878444 248.810643 101.329316 248.810643 101.799376
C 248.810643 102.269436 248.9974 102.720307 249.329782 103.05269
C 249.662165 103.385073 250.113036 103.57183 250.583097 103.57183
z
" style="stroke:#000000;stroke-width:0.886227;"/>
    <path clip-path="url(#p37ecf9b66d)" d="M 293.870369 98.634687
C 294.34043 98.634687 294.791301 98.44793 295.123683 98.115547
C 295.456066 97.783164 295.642823 97.332293 295.642823 96.862233
C 295.642823 96.392173 295.456066 95.941302 295.123683 95.608919
C 294.791301 95.276536 294.34043 95.089779 293.870369 95.089779
C 293.400309 95.089779 292.949438 95.276536 292.617055 95.608919
C 292.284672 95.941302 292.097915 96.392173 292.097915 96.862233
C 292.097915 97.332293 292.284672 97.783164 292.617055 98.115547
C 292.949438 98.44793 293.400309 98.634687 293.870369 98.634687
z
" style="stroke:#000000;stroke-width:0.886227;"/>
    <path clip-path="url(#p37ecf9b66d)" d="M 351.586733 217.126115
C 352.056793 217.126115 352.507664 216.939358 352.840047 216.606976
C 353.17243 216.274593 353.359187 215.823722 353.359187 215.353662
C 353.359187 214.883601 353.17243 214.43273 352.840047 214.100347
C 352.507664 213.767965 352.056793 213.581208 351.586733 213.581208
C 351.116673 213.581208 350.665802 213.767965 350.333419 214.100347
C 350.001036 214.43273 349.814279 214.883601 349.814279 215.353662
C 349.814279 215.823722 350.001036 216.274593 350.333419 216.606976
C 350.665802 216.939358 351.116673 217.126115 351.586733 217.126115
z
" style="stroke:#000000;stroke-width:0.886227;"/>
    <path clip-path="url(#p37ecf9b66d)" d="M 63.004915 236.874687
C 63.474975 236.874687 63.925846 236.68793 64.258229 236.355547
C 64.590612 236.023164 64.777369 235.572293 64.777369 235.102233
C 64.777369 234.632173 64.590612 234.181302 64.258229 233.848919
C 63.925846 233.516536 63.474975 233.329779 63.004915 233.329779
C 62.534855 233.329779 62.083983 233.516536 61.751601 233.848919
C 61.419218 234.181302 61.232461 234.632173 61.232461 235.102233
C 61.232461 235.572293 61.419218 236.023164 61.751601 236.355547
C 62.083983 236.68793 62.534855 236.874687 63.004915 236.874687
z
" style="stroke:#000000;stroke-width:0.886227;"/>
    <path clip-path="url(#p37ecf9b66d)" d="M 127.935824 177.628973
C 128.405884 177.628973 128.856755 177.442216 129.189138 177.109833
C 129.521521 176.77745 129.708278 176.326579 129.708278 175.856519
C 129.708278 175.386458 129.521521 174.935587 129.189138 174.603205
C 128.856755 174.270822 128.405884 174.084065 127.935824 174.084065
C 127.465764 174.084065 127.014893 174.270822 126.68251 174.603205
C 126.350127 174.935587 126.16337 175.386458 126.16337 175.856519
C 126.16337 176.326579 126.350127 176.77745 126.68251 177.109833
C 127.014893 177.442216 127.465764 177.628973 127.935824 177.628973
z
" style="stroke:#000000;stroke-width:0.886227;"/>
    <path clip-path="url(#p37ecf9b66d)" d="M 214.510369 49.263258
C 214.98043 49.263258 215.431301 49.076501 215.763683 48.744119
C 216.096066 48.411736 216.282823 47.960865 216.282823 47.490804
C 216.282823 47.020744 216.096066 46.569873 215.763683 46.23749
C 215.431301 45.905107 214.98043 45.718351 214.510369 45.718351
C 214.040309 45.718351 213.589438 45.905107 213.257055 46.23749
C 212.924672 46.569873 212.737915 47.020744 212.737915 47.490804
C 212.737915 47.960865 212.924672 48.411736 213.257055 48.744119
C 213.589438 49.076501 214.040309 49.263258 214.510369 49.263258
z
" style="stroke:#000000;stroke-width:0.886227;"/>
    <path clip-path="url(#p37ecf9b66d)" d="M 200.081278 113.446115
C 200.551339 113.446115 201.00221 113.259358 201.334593 112.926976
C 201.666975 112.594593 201.853732 112.143722 201.853732 111.673662
C 201.853732 111.203601 201.666975 110.75273 201.334593 110.420347
C 201.00221 110.087965 200.551339 109.901208 200.081278 109.901208
C 199.611218 109.901208 199.160347 110.087965 198.827964 110.420347
C 198.495581 110.75273 198.308825 111.203601 198.308825 111.673662
C 198.308825 112.143722 198.495581 112.594593 198.827964 112.926976
C 199.160347 113.259358 199.611218 113.446115 200.081278 113.446115
z
" style="stroke:#000000;stroke-width:0.886227;"/>
    <path clip-path="url(#p37ecf9b66d)" d="M 329.943097 231.937544
C 330.413157 231.937544 330.864028 231.750787 331.196411 231.418404
C 331.528794 231.086021 331.71555 230.63515 331.71555 230.16509
C 331.71555 229.69503 331.528794 229.244159 331.196411 228.911776
C 330.864028 228.579393 330.413157 228.392636 329.943097 228.392636
C 329.473036 228.392636 329.022165 228.579393 328.689782 228.911776
C 328.3574 229.244159 328.170643 229.69503 328.170643 230.16509
C 328.170643 230.63515 328.3574 231.086021 328.689782 231.418404
C 329.022165 231.750787 329.473036 231.937544 329.943097 231.937544
z
" style="stroke:#000000;stroke-width:0.886227;"/>
    <path clip-path="url(#p37ecf9b66d)" d="M 236.154006 256.623258
C 236.624066 256.623258 237.074937 256.436501 237.40732 256.104119
C 237.739703 255.771736 237.92646 255.320865 237.92646 254.850804
C 237.92646 254.380744 237.739703 253.929873 237.40732 253.59749
C 237.074937 253.265107 236.624066 253.078351 236.154006 253.078351
C 235.683945 253.078351 235.233074 253.265107 234.900692 253.59749
C 234.568309 253.929873 234.381552 254.380744 234.381552 254.850804
C 234.381552 255.320865 234.568309 255.771736 234.900692 256.104119
C 235.233074 256.436501 235.683945 256.623258 236.154006 256.623258
z
" style="stroke:#000000;stroke-width:0.886227;"/>
    <path clip-path="url(#p37ecf9b66d)" d="M 63.004915 192.440401
C 63.474975 192.440401 63.925846 192.253644 64.258229 191.921261
C 64.590612 191.588879 64.777369 191.138008 64.777369 190.667947
C 64.777369 190.197887 64.590612 189.747016 64.258229 189.414633
C 63.925846 189.08225 63.474975 188.895493 63.004915 188.895493
C 62.534855 188.895493 62.083983 189.08225 61.751601 189.414633
C 61.419218 189.747016 61.232461 190.197887 61.232461 190.667947
C 61.232461 191.138008 61.419218 191.588879 61.751601 191.921261
C 62.083983 192.253644 62.534855 192.440401 63.004915 192.440401
z
" style="stroke:#000000;stroke-width:0.886227;"/>
    <path clip-path="url(#p37ecf9b66d)" d="M 63.004915 227.000401
C 63.474975 227.000401 63.925846 226.813644 64.258229 226.481261
C 64.590612 226.148879 64.777369 225.698008 64.777369 225.227947
C 64.777369 224.757887 64.590612 224.307016 64.258229 223.974633
C 63.925846 223.64225 63.474975 223.455493 63.004915 223.455493
C 62.534855 223.455493 62.083983 223.64225 61.751601 223.974633
C 61.419218 224.307016 61.232461 224.757887 61.232461 225.227947
C 61.232461 225.698008 61.419218 226.148879 61.751601 226.481261
C 62.083983 226.813644 62.534855 227.000401 63.004915 227.000401
z
" style="stroke:#000000;stroke-width:0.886227;"/>
    <path clip-path="url(#p37ecf9b66d)" d="M 164.008551 88.760401
C 164.478611 88.760401 164.929482 88.573644 165.261865 88.241261
C 165.594248 87.908879 165.781005 87.458008 165.781005 86.987947
C 165.781005 86.517887 165.594248 86.067016 165.261865 85.734633
C 164.929482 85.40225 164.478611 85.215493 164.008551 85.215493
C 163.538491 85.215493 163.08762 85.40225 162.755237 85.734633
C 162.422854 86.067016 162.236097 86.517887 162.236097 86.987947
C 162.236097 87.458008 162.422854 87.908879 162.755237 88.241261
C 163.08762 88.573644 163.538491 88.760401 164.008551 88.760401
z
" style="stroke:#000000;stroke-width:0.886227;"/>
    <path clip-path="url(#p37ecf9b66d)" d="M 308.29946 44.326115
C 308.76952 44.326115 309.220392 44.139358 309.552774 43.806976
C 309.885157 43.474593 310.071914 43.023722 310.071914 42.553662
C 310.071914 42.083601 309.885157 41.63273 309.552774 41.300347
C 309.220392 40.967965 308.76952 40.781208 308.29946 40.781208
C 307.8294 40.781208 307.378529 40.967965 307.046146 41.300347
C 306.713763 41.63273 306.527006 42.083601 306.527006 42.553662
C 306.527006 43.023722 306.713763 43.474593 307.046146 43.806976
C 307.378529 44.139358 307.8294 44.326115 308.29946 44.326115
z
" style="stroke:#000000;stroke-width:0.886227;"/>
    <path clip-path="url(#p37ecf9b66d)" d="M 315.514006 207.25183
C 315.984066 207.25183 316.434937 207.065073 316.76732 206.73269
C 317.099703 206.400307 317.28646 205.949436 317.28646 205.479376
C 317.28646 205.009316 317.099703 204.558444 316.76732 204.226062
C 316.434937 203.893679 315.984066 203.706922 315.514006 203.706922
C 315.043945 203.706922 314.593074 203.893679 314.260692 204.226062
C 313.928309 204.558444 313.741552 205.009316 313.741552 205.479376
C 313.741552 205.949436 313.928309 206.400307 314.260692 206.73269
C 314.593074 207.065073 315.043945 207.25183 315.514006 207.25183
z
" style="stroke:#000000;stroke-width:0.886227;"/>
   </g>
  </g>
  <g id="text_13">
   <!-- GSEA vs CAMERA pathway ranking -->
   <defs>
    <path d="M 2.984375 54.6875
L 12.5 54.6875
L 29.59375 8.796875
L 46.6875 54.6875
L 56.203125 54.6875
L 35.6875 0
L 23.484375 0
z
" id="DejaVuSans-118"/>
    <path d="M 44.28125 53.078125
L 44.28125 44.578125
Q 40.484375 46.53125 36.375 47.5
Q 32.28125 48.484375 27.875 48.484375
Q 21.1875 48.484375 17.84375 46.4375
Q 14.5 44.390625 14.5 40.28125
Q 14.5 37.15625 16.890625 35.375
Q 19.28125 33.59375 26.515625 31.984375
L 29.59375 31.296875
Q 39.15625 29.25 43.1875 25.515625
Q 47.21875 21.78125 47.21875 15.09375
Q 47.21875 7.46875 41.1875 3.015625
Q 35.15625 -1.421875 24.609375 -1.421875
Q 20.21875 -1.421875 15.453125 -0.5625
Q 10.6875 0.296875 5.421875 2
L 5.421875 11.28125
Q 10.40625 8.6875 15.234375 7.390625
Q 20.0625 6.109375 24.8125 6.109375
Q 31.15625 6.109375 34.5625 8.28125
Q 37.984375 10.453125 37.984375 14.40625
Q 37.984375 18.0625 35.515625 20.015625
Q 33.0625 21.96875 24.703125 23.78125
L 21.578125 24.515625
Q 13.234375 26.265625 9.515625 29.90625
Q 5.8125 33.546875 5.8125 39.890625
Q 5.8125 47.609375 11.28125 51.796875
Q 16.75 56 26.8125 56
Q 31.78125 56 36.171875 55.265625
Q 40.578125 54.546875 44.28125 53.078125
z
" id="DejaVuSans-115"/>
   </defs>
   <g transform="translate(88.741719 11.397656)scale(0.15 -0.15)">
    <use xlink:href="#DejaVuSans-71"/>
    <use x="77.490234" xlink:href="#DejaVuSans-83"/>
    <use x="140.966797" xlink:href="#DejaVuSans-69"/>
    <use x="204.150391" xlink:href="#DejaVuSans-65"/>
    <use x="272.558594" xlink:href="#DejaVuSans-32"/>
    <use x="304.345703" xlink:href="#DejaVuSans-118"/>
    <use x="363.525391" xlink:href="#DejaVuSans-115"/>
    <use x="415.625" xlink:href="#DejaVuSans-32"/>
    <use x="447.412109" xlink:href="#DejaVuSans-67"/>
    <use x="517.236328" xlink:href="#DejaVuSans-65"/>
    <use x="585.644531" xlink:href="#DejaVuSans-77"/>
    <use x="671.923828" xlink:href="#DejaVuSans-69"/>
    <use x="735.107422" xlink:href="#DejaVuSans-82"/>
    <use x="804.527344" xlink:href="#DejaVuSans-65"/>
    <use x="872.935547" xlink:href="#DejaVuSans-32"/>
    <use x="904.722656" xlink:href="#DejaVuSans-112"/>
    <use x="968.199219" xlink:href="#DejaVuSans-97"/>
    <use x="1029.478516" xlink:href="#DejaVuSans-116"/>
    <use x="1068.6875" xlink:href="#DejaVuSans-104"/>
    <use x="1132.066406" xlink:href="#DejaVuSans-119"/>
    <use x="1213.853516" xlink:href="#DejaVuSans-97"/>
    <use x="1275.132812" xlink:href="#DejaVuSans-121"/>
    <use x="1334.3125" xlink:href="#DejaVuSans-32"/>
    <use x="1366.099609" xlink:href="#DejaVuSans-114"/>
    <use x="1407.212891" xlink:href="#DejaVuSans-97"/>
    <use x="1468.492188" xlink:href="#DejaVuSans-110"/>
    <use x="1531.871094" xlink:href="#DejaVuSans-107"/>
    <use x="1589.78125" xlink:href="#DejaVuSans-105"/>
    <use x="1617.564453" xlink:href="#DejaVuSans-110"/>
    <use x="1680.943359" xlink:href="#DejaVuSans-103"/>
   </g>
  </g>
 </g>
 <defs>
  <clipPath id="p37ecf9b66d">
   <rect height="266.112" width="357.12" x="46.772188" y="20.583376"/>
  </clipPath>
 </defs>
</svg>
