<?xml version="1.0" encoding="utf-8" standalone="no"?>
<!DOCTYPE svg PUBLIC "-//W3C//DTD SVG 1.1//EN"
  "http://www.w3.org/Graphics/SVG/1.1/DTD/svg11.dtd">
<!-- Created with matplotlib (https://matplotlib.org/) -->
<svg height="322.19272pt" version="1.1" viewBox="0 0 406.642188 322.19272" width="406.642188pt" xmlns="http://www.w3.org/2000/svg" xmlns:xlink="http://www.w3.org/1999/xlink">
 <defs>
  <style type="text/css">
*{stroke-linecap:butt;stroke-linejoin:round;}
  </style>
 </defs>
 <g id="figure_1">
  <g id="patch_1">
   <path d="M 0 322.19272
L 406.642188 322.19272
L 406.642188 0
L 0 0
z
" style="fill:#ffffff;stroke:#ffffff;stroke-linejoin:miter;"/>
  </g>
  <g id="axes_1">
   <g id="patch_2">
    <path d="M 46.772188 286.711782
L 403.892188 286.711782
L 403.892188 20.599782
L 46.772188 20.599782
z
" style="fill:none;"/>
   </g>
   <g id="matplotlib.axis_1">
    <g id="xtick_1">
     <g id="line2d_1">
      <path clip-path="url(#pfe2e1ff1aa)" d="M 63.004915 286.711782
L 63.004915 20.599782
" style="fill:none;stroke:#e5e5e5;stroke-width:0.8;"/>
     </g>
     <g id="line2d_2">
      <path d="M 63.004915 286.711782
" style="fill:none;stroke:#000000;stroke-width:1.5;"/>
      <defs>
       <path d="M 0 0
L 0 2.75
" id="m440352fdda" style="stroke:#000000;"/>
      </defs>
      <g>
       <use style="stroke:#000000;" x="63.004915" xlink:href="#m440352fdda" y="286.711782"/>
      </g>
     </g>
     <g id="text_1">
      <!-- 0 -->
      <defs>
       <path d="M 31.78125 66.40625
Q 24.171875 66.40625 20.328125 58.90625
Q 16.5 51.421875 16.5 36.375
Q 16.5 21.390625 20.328125 13.890625
Q 24.171875 6.390625 31.78125 6.390625
Q 39.453125 6.390625 43.28125 13.890625
Q 47.125 21.390625 47.125 36.375
Q 47.125 51.421875 43.28125 58.90625
Q 39.453125 66.40625 31.78125 66.40625
z
M 31.78125 74.21875
Q 44.046875 74.21875 50.515625 64.515625
Q 56.984375 54.828125 56.984375 36.375
Q 56.984375 17.96875 50.515625 8.265625
Q 44.046875 -1.421875 31.78125 -1.421875
Q 19.53125 -1.421875 13.0625 8.265625
Q 6.59375 17.96875 6.59375 36.375
Q 6.59375 54.828125 13.0625 64.515625
Q 19.53125 74.21875 31.78125 74.21875
z
" id="DejaVuSans-48"/>
      </defs>
      <g style="fill:#4d4d4d;" transform="translate(59.187415 300.779907)scale(0.12 -0.12)">
       <use xlink:href="#DejaVuSans-48"/>
      </g>
     </g>
    </g>
    <g id="xtick_2">
     <g id="line2d_3">
      <path clip-path="url(#pfe2e1ff1aa)" d="M 144.168551 286.711782
L 144.168551 20.599782
" style="fill:none;stroke:#e5e5e5;stroke-width:0.8;"/>
     </g>
     <g id="line2d_4">
      <path d="M 144.168551 286.711782
" style="fill:none;stroke:#000000;stroke-width:1.5;"/>
      <g>
       <use style="stroke:#000000;" x="144.168551" xlink:href="#m440352fdda" y="286.711782"/>
      </g>
     </g>
     <g id="text_2">
      <!-- 25 -->
      <defs>
       <path d="M 19.1875 8.296875
L 53.609375 8.296875
L 53.609375 0
L 7.328125 0
L 7.328125 8.296875
Q 12.9375 14.109375 22.625 23.890625
Q 32.328125 33.6875 34.8125 36.53125
Q 39.546875 41.84375 41.421875 45.53125
Q 43.3125 49.21875 43.3125 52.78125
Q 43.3125 58.59375 39.234375 62.25
Q 35.15625 65.921875 28.609375 65.921875
Q 23.96875 65.921875 18.8125 64.3125
Q 13.671875 62.703125 7.8125 59.421875
L 7.8125 69.390625
Q 13.765625 71.78125 18.9375 73
Q 24.125 74.21875 28.421875 74.21875
Q 39.75 74.21875 46.484375 68.546875
Q 53.21875 62.890625 53.21875 53.421875
Q 53.21875 48.921875 51.53125 44.890625
Q 49.859375 40.875 45.40625 35.40625
Q 44.1875 33.984375 37.640625 27.21875
Q 31.109375 20.453125 19.1875 8.296875
z
" id="DejaVuSans-50"/>
       <path d="M 10.796875 72.90625
L 49.515625 72.90625
L 49.515625 64.59375
L 19.828125 64.59375
L 19.828125 46.734375
Q 21.96875 47.46875 24.109375 47.828125
Q 26.265625 48.1875 28.421875 48.1875
Q 40.625 48.1875 47.75 41.5
Q 54.890625 34.8125 54.890625 23.390625
Q 54.890625 11.625 47.5625 5.09375
Q 40.234375 -1.421875 26.90625 -1.421875
Q 22.3125 -1.421875 17.546875 -0.640625
Q 12.796875 0.140625 7.71875 1.703125
L 7.71875 11.625
Q 12.109375 9.234375 16.796875 8.0625
Q 21.484375 6.890625 26.703125 6.890625
Q 35.15625 6.890625 40.078125 11.328125
Q 45.015625 15.765625 45.015625 23.390625
Q 45.015625 31 40.078125 35.4375
Q 35.15625 39.890625 26.703125 39.890625
Q 22.75 39.890625 18.8125 39.015625
Q 14.890625 38.140625 10.796875 36.28125
z
" id="DejaVuSans-53"/>
      </defs>
      <g style="fill:#4d4d4d;" transform="translate(136.533551 300.779907)scale(0.12 -0.12)">
       <use xlink:href="#DejaVuSans-50"/>
       <use x="63.623047" xlink:href="#DejaVuSans-53"/>
      </g>
     </g>
    </g>
    <g id="xtick_3">
     <g id="line2d_5">
      <path clip-path="url(#pfe2e1ff1aa)" d="M 225.332188 286.711782
L 225.332188 20.599782
" style="fill:none;stroke:#e5e5e5;stroke-width:0.8;"/>
     </g>
     <g id="line2d_6">
      <path d="M 225.332188 286.711782
" style="fill:none;stroke:#000000;stroke-width:1.5;"/>
      <g>
       <use style="stroke:#000000;" x="225.332188" xlink:href="#m440352fdda" y="286.711782"/>
      </g>
     </g>
     <g id="text_3">
      <!-- 50 -->
      <g style="fill:#4d4d4d;" transform="translate(217.697188 300.779907)scale(0.12 -0.12)">
       <use xlink:href="#DejaVuSans-53"/>
       <use x="63.623047" xlink:href="#DejaVuSans-48"/>
      </g>
     </g>
    </g>
    <g id="xtick_4">
     <g id="line2d_7">
      <path clip-path="url(#pfe2e1ff1aa)" d="M 306.495824 286.711782
L 306.495824 20.599782
" style="fill:none;stroke:#e5e5e5;stroke-width:0.8;"/>
     </g>
     <g id="line2d_8">
      <path d="M 306.495824 286.711782
" style="fill:none;stroke:#000000;stroke-width:1.5;"/>
      <g>
       <use style="stroke:#000000;" x="306.495824" xlink:href="#m440352fdda" y="286.711782"/>
      </g>
     </g>
     <g id="text_4">
      <!-- 75 -->
      <defs>
       <path d="M 8.203125 72.90625
L 55.078125 72.90625
L 55.078125 68.703125
L 28.609375 0
L 18.3125 0
L 43.21875 64.59375
L 8.203125 64.59375
z
" id="DejaVuSans-55"/>
      </defs>
      <g style="fill:#4d4d4d;" transform="translate(298.860824 300.779907)scale(0.12 -0.12)">
       <use xlink:href="#DejaVuSans-55"/>
       <use x="63.623047" xlink:href="#DejaVuSans-53"/>
      </g>
     </g>
    </g>
    <g id="xtick_5">
     <g id="line2d_9">
      <path clip-path="url(#pfe2e1ff1aa)" d="M 387.65946 286.711782
L 387.65946 20.599782
" style="fill:none;stroke:#e5e5e5;stroke-width:0.8;"/>
     </g>
     <g id="line2d_10">
      <path d="M 387.65946 286.711782
" style="fill:none;stroke:#000000;stroke-width:1.5;"/>
      <g>
       <use style="stroke:#000000;" x="387.65946" xlink:href="#m440352fdda" y="286.711782"/>
      </g>
     </g>
     <g id="text_5">
      <!-- 100 -->
      <defs>
       <path d="M 12.40625 8.296875
L 28.515625 8.296875
L 28.515625 63.921875
L 10.984375 60.40625
L 10.984375 69.390625
L 28.421875 72.90625
L 38.28125 72.90625
L 38.28125 8.296875
L 54.390625 8.296875
L 54.390625 0
L 12.40625 0
z
" id="DejaVuSans-49"/>
      </defs>
      <g style="fill:#4d4d4d;" transform="translate(376.20696 300.779907)scale(0.12 -0.12)">
       <use xlink:href="#DejaVuSans-49"/>
       <use x="63.623047" xlink:href="#DejaVuSans-48"/>
       <use x="127.246094" xlink:href="#DejaVuSans-48"/>
      </g>
     </g>
    </g>
    <g id="xtick_6">
     <g id="line2d_11">
      <path clip-path="url(#pfe2e1ff1aa)" d="M 103.586733 286.711782
L 103.586733 20.599782
" style="fill:none;stroke:#fafafa;"/>
     </g>
     <g id="line2d_12">
      <path d="M 103.586733 286.711782
" style="fill:none;stroke:#000000;stroke-width:1.5;"/>
     </g>
    </g>
    <g id="xtick_7">
     <g id="line2d_13">
      <path clip-path="url(#pfe2e1ff1aa)" d="M 184.750369 286.711782
L 184.750369 20.599782
" style="fill:none;stroke:#fafafa;"/>
     </g>
     <g id="line2d_14">
      <path d="M 184.750369 286.711782
" style="fill:none;stroke:#000000;stroke-width:1.5;"/>
     </g>
    </g>
    <g id="xtick_8">
     <g id="line2d_15">
      <path clip-path="url(#pfe2e1ff1aa)" d="M 265.914006 286.711782
L 265.914006 20.599782
" style="fill:none;stroke:#fafafa;"/>
     </g>
     <g id="line2d_16">
      <path d="M 265.914006 286.711782
" style="fill:none;stroke:#000000;stroke-width:1.5;"/>
     </g>
    </g>
    <g id="xtick_9">
     <g id="line2d_17">
      <path clip-path="url(#pfe2e1ff1aa)" d="M 347.077642 286.711782
L 347.077642 20.599782
" style="fill:none;stroke:#fafafa;"/>
     </g>
     <g id="line2d_18">
      <path d="M 347.077642 286.711782
" style="fill:none;stroke:#000000;stroke-width:1.5;"/>
     </g>
    </g>
    <g id="text_6">
     <!-- GSEA pathway ranking -->
     <defs>
      <path d="M 59.515625 10.40625
L 59.515625 29.984375
L 43.40625 29.984375
L 43.40625 38.09375
L 69.28125 38.09375
L 69.28125 6.78125
Q 63.578125 2.734375 56.6875 0.65625
Q 49.8125 -1.421875 42 -1.421875
Q 24.90625 -1.421875 15.25 8.5625
Q 5.609375 18.5625 5.609375 36.375
Q 5.609375 54.25 15.25 64.234375
Q 24.90625 74.21875 42 74.21875
Q 49.125 74.21875 55.546875 72.453125
Q 61.96875 70.703125 67.390625 67.28125
L 67.390625 56.78125
Q 61.921875 61.421875 55.765625 63.765625
Q 49.609375 66.109375 42.828125 66.109375
Q 29.4375 66.109375 22.71875 58.640625
Q 16.015625 51.171875 16.015625 36.375
Q 16.015625 21.625 22.71875 14.15625
Q 29.4375 6.6875 42.828125 6.6875
Q 48.046875 6.6875 52.140625 7.59375
Q 56.25 8.5 59.515625 10.40625
z
" id="DejaVuSans-71"/>
      <path d="M 53.515625 70.515625
L 53.515625 60.890625
Q 47.90625 63.578125 42.921875 64.890625
Q 37.9375 66.21875 33.296875 66.21875
Q 25.25 66.21875 20.875 63.09375
Q 16.5 59.96875 16.5 54.203125
Q 16.5 49.359375 19.40625 46.890625
Q 22.3125 44.4375 30.421875 42.921875
L 36.375 41.703125
Q 47.40625 39.59375 52.65625 34.296875
Q 57.90625 29 57.90625 20.125
Q 57.90625 9.515625 50.796875 4.046875
Q 43.703125 -1.421875 29.984375 -1.421875
Q 24.8125 -1.421875 18.96875 -0.25
Q 13.140625 0.921875 6.890625 3.21875
L 6.890625 13.375
Q 12.890625 10.015625 18.65625 8.296875
Q 24.421875 6.59375 29.984375 6.59375
Q 38.421875 6.59375 43.015625 9.90625
Q 47.609375 13.234375 47.609375 19.390625
Q 47.609375 24.75 44.3125 27.78125
Q 41.015625 30.8125 33.5 32.328125
L 27.484375 33.5
Q 16.453125 35.6875 11.515625 40.375
Q 6.59375 45.0625 6.59375 53.421875
Q 6.59375 63.09375 13.40625 68.65625
Q 20.21875 74.21875 32.171875 74.21875
Q 37.3125 74.21875 42.625 73.28125
Q 47.953125 72.359375 53.515625 70.515625
z
" id="DejaVuSans-83"/>
      <path d="M 9.8125 72.90625
L 55.90625 72.90625
L 55.90625 64.59375
L 19.671875 64.59375
L 19.671875 43.015625
L 54.390625 43.015625
L 54.390625 34.71875
L 19.671875 34.71875
L 19.671875 8.296875
L 56.78125 8.296875
L 56.78125 0
L 9.8125 0
z
" id="DejaVuSans-69"/>
      <path d="M 34.1875 63.1875
L 20.796875 26.90625
L 47.609375 26.90625
z
M 28.609375 72.90625
L 39.796875 72.90625
L 67.578125 0
L 57.328125 0
L 50.6875 18.703125
L 17.828125 18.703125
L 11.1875 0
L 0.78125 0
z
" id="DejaVuSans-65"/>
      <path id="DejaVuSans-32"/>
      <path d="M 18.109375 8.203125
L 18.109375 -20.796875
L 9.078125 -20.796875
L 9.078125 54.6875
L 18.109375 54.6875
L 18.109375 46.390625
Q 20.953125 51.265625 25.265625 53.625
Q 29.59375 56 35.59375 56
Q 45.5625 56 51.78125 48.09375
Q 58.015625 40.1875 58.015625 27.296875
Q 58.015625 14.40625 51.78125 6.484375
Q 45.5625 -1.421875 35.59375 -1.421875
Q 29.59375 -1.421875 25.265625 0.953125
Q 20.953125 3.328125 18.109375 8.203125
z
M 48.6875 27.296875
Q 48.6875 37.203125 44.609375 42.84375
Q 40.53125 48.484375 33.40625 48.484375
Q 26.265625 48.484375 22.1875 42.84375
Q 18.109375 37.203125 18.109375 27.296875
Q 18.109375 17.390625 22.1875 11.75
Q 26.265625 6.109375 33.40625 6.109375
Q 40.53125 6.109375 44.609375 11.75
Q 48.6875 17.390625 48.6875 27.296875
z
" id="DejaVuSans-112"/>
      <path d="M 34.28125 27.484375
Q 23.390625 27.484375 19.1875 25
Q 14.984375 22.515625 14.984375 16.5
Q 14.984375 11.71875 18.140625 8.90625
Q 21.296875 6.109375 26.703125 6.109375
Q 34.1875 6.109375 38.703125 11.40625
Q 43.21875 16.703125 43.21875 25.484375
L 43.21875 27.484375
z
M 52.203125 31.203125
L 52.203125 0
L 43.21875 0
L 43.21875 8.296875
Q 40.140625 3.328125 35.546875 0.953125
Q 30.953125 -1.421875 24.3125 -1.421875
Q 15.921875 -1.421875 10.953125 3.296875
Q 6 8.015625 6 15.921875
Q 6 25.140625 12.171875 29.828125
Q 18.359375 34.515625 30.609375 34.515625
L 43.21875 34.515625
L 43.21875 35.40625
Q 43.21875 41.609375 39.140625 45
Q 35.0625 48.390625 27.6875 48.390625
Q 23 48.390625 18.546875 47.265625
Q 14.109375 46.140625 10.015625 43.890625
L 10.015625 52.203125
Q 14.9375 54.109375 19.578125 55.046875
Q 24.21875 56 28.609375 56
Q 40.484375 56 46.34375 49.84375
Q 52.203125 43.703125 52.203125 31.203125
z
" id="DejaVuSans-97"/>
      <path d="M 18.3125 70.21875
L 18.3125 54.6875
L 36.8125 54.6875
L 36.8125 47.703125
L 18.3125 47.703125
L 18.3125 18.015625
Q 18.3125 11.328125 20.140625 9.421875
Q 21.96875 7.515625 27.59375 7.515625
L 36.8125 7.515625
L 36.8125 0
L 27.59375 0
Q 17.1875 0 13.234375 3.875
Q 9.28125 7.765625 9.28125 18.015625
L 9.28125 47.703125
L 2.6875 47.703125
L 2.6875 54.6875
L 9.28125 54.6875
L 9.28125 70.21875
z
" id="DejaVuSans-116"/>
      <path d="M 54.890625 33.015625
L 54.890625 0
L 45.90625 0
L 45.90625 32.71875
Q 45.90625 40.484375 42.875 44.328125
Q 39.84375 48.1875 33.796875 48.1875
Q 26.515625 48.1875 22.3125 43.546875
Q 18.109375 38.921875 18.109375 30.90625
L 18.109375 0
L 9.078125 0
L 9.078125 75.984375
L 18.109375 75.984375
L 18.109375 46.1875
Q 21.34375 51.125 25.703125 53.5625
Q 30.078125 56 35.796875 56
Q 45.21875 56 50.046875 50.171875
Q 54.890625 44.34375 54.890625 33.015625
z
" id="DejaVuSans-104"/>
      <path d="M 4.203125 54.6875
L 13.1875 54.6875
L 24.421875 12.015625
L 35.59375 54.6875
L 46.1875 54.6875
L 57.421875 12.015625
L 68.609375 54.6875
L 77.59375 54.6875
L 63.28125 0
L 52.6875 0
L 40.921875 44.828125
L 29.109375 0
L 18.5 0
z
" id="DejaVuSans-119"/>
      <path d="M 32.171875 -5.078125
Q 28.375 -14.84375 24.75 -17.8125
Q 21.140625 -20.796875 15.09375 -20.796875
L 7.90625 -20.796875
L 7.90625 -13.28125
L 13.1875 -13.28125
Q 16.890625 -13.28125 18.9375 -11.515625
Q 21 -9.765625 23.484375 -3.21875
L 25.09375 0.875
L 2.984375 54.6875
L 12.5 54.6875
L 29.59375 11.921875
L 46.6875 54.6875
L 56.203125 54.6875
z
" id="DejaVuSans-121"/>
      <path d="M 41.109375 46.296875
Q 39.59375 47.171875 37.8125 47.578125
Q 36.03125 48 33.890625 48
Q 26.265625 48 22.1875 43.046875
Q 18.109375 38.09375 18.109375 28.8125
L 18.109375 0
L 9.078125 0
L 9.078125 54.6875
L 18.109375 54.6875
L 18.109375 46.1875
Q 20.953125 51.171875 25.484375 53.578125
Q 30.03125 56 36.53125 56
Q 37.453125 56 38.578125 55.875
Q 39.703125 55.765625 41.0625 55.515625
z
" id="DejaVuSans-114"/>
      <path d="M 54.890625 33.015625
L 54.890625 0
L 45.90625 0
L 45.90625 32.71875
Q 45.90625 40.484375 42.875 44.328125
Q 39.84375 48.1875 33.796875 48.1875
Q 26.515625 48.1875 22.3125 43.546875
Q 18.109375 38.921875 18.109375 30.90625
L 18.109375 0
L 9.078125 0
L 9.078125 54.6875
L 18.109375 54.6875
L 18.109375 46.1875
Q 21.34375 51.125 25.703125 53.5625
Q 30.078125 56 35.796875 56
Q 45.21875 56 50.046875 50.171875
Q 54.890625 44.34375 54.890625 33.015625
z
" id="DejaVuSans-110"/>
      <path d="M 9.078125 75.984375
L 18.109375 75.984375
L 18.109375 31.109375
L 44.921875 54.6875
L 56.390625 54.6875
L 27.390625 29.109375
L 57.625 0
L 45.90625 0
L 18.109375 26.703125
L 18.109375 0
L 9.078125 0
z
" id="DejaVuSans-107"/>
      <path d="M 9.421875 54.6875
L 18.40625 54.6875
L 18.40625 0
L 9.421875 0
z
M 9.421875 75.984375
L 18.40625 75.984375
L 18.40625 64.59375
L 9.421875 64.59375
z
" id="DejaVuSans-105"/>
      <path d="M 45.40625 27.984375
Q 45.40625 37.75 41.375 43.109375
Q 37.359375 48.484375 30.078125 48.484375
Q 22.859375 48.484375 18.828125 43.109375
Q 14.796875 37.75 14.796875 27.984375
Q 14.796875 18.265625 18.828125 12.890625
Q 22.859375 7.515625 30.078125 7.515625
Q 37.359375 7.515625 41.375 12.890625
Q 45.40625 18.265625 45.40625 27.984375
z
M 54.390625 6.78125
Q 54.390625 -7.171875 48.1875 -13.984375
Q 42 -20.796875 29.203125 -20.796875
Q 24.46875 -20.796875 20.265625 -20.09375
Q 16.0625 -19.390625 12.109375 -17.921875
L 12.109375 -9.1875
Q 16.0625 -11.328125 19.921875 -12.34375
Q 23.78125 -13.375 27.78125 -13.375
Q 36.625 -13.375 41.015625 -8.765625
Q 45.40625 -4.15625 45.40625 5.171875
L 45.40625 9.625
Q 42.625 4.78125 38.28125 2.390625
Q 33.9375 0 27.875 0
Q 17.828125 0 11.671875 7.65625
Q 5.515625 15.328125 5.515625 27.984375
Q 5.515625 40.671875 11.671875 48.328125
Q 17.828125 56 27.875 56
Q 33.9375 56 38.28125 53.609375
Q 42.625 51.21875 45.40625 46.390625
L 45.40625 54.6875
L 54.390625 54.6875
z
" id="DejaVuSans-103"/>
     </defs>
     <g transform="translate(133.769844 319.073188)scale(0.15 -0.15)">
      <use xlink:href="#DejaVuSans-71"/>
      <use x="77.490234" xlink:href="#DejaVuSans-83"/>
      <use x="140.966797" xlink:href="#DejaVuSans-69"/>
      <use x="204.150391" xlink:href="#DejaVuSans-65"/>
      <use x="272.558594" xlink:href="#DejaVuSans-32"/>
      <use x="304.345703" xlink:href="#DejaVuSans-112"/>
      <use x="367.822266" xlink:href="#DejaVuSans-97"/>
      <use x="429.101562" xlink:href="#DejaVuSans-116"/>
      <use x="468.310547" xlink:href="#DejaVuSans-104"/>
      <use x="531.689453" xlink:href="#DejaVuSans-119"/>
      <use x="613.476562" xlink:href="#DejaVuSans-97"/>
      <use x="674.755859" xlink:href="#DejaVuSans-121"/>
      <use x="733.935547" xlink:href="#DejaVuSans-32"/>
      <use x="765.722656" xlink:href="#DejaVuSans-114"/>
      <use x="806.835938" xlink:href="#DejaVuSans-97"/>
      <use x="868.115234" xlink:href="#DejaVuSans-110"/>
      <use x="931.494141" xlink:href="#DejaVuSans-107"/>
      <use x="989.404297" xlink:href="#DejaVuSans-105"/>
      <use x="1017.1875" xlink:href="#DejaVuSans-110"/>
      <use x="1080.566406" xlink:href="#DejaVuSans-103"/>
     </g>
    </g>
   </g>
   <g id="matplotlib.axis_2">
    <g id="ytick_1">
     <g id="line2d_19">
      <path clip-path="url(#pfe2e1ff1aa)" d="M 46.772188 274.615782
L 403.892188 274.615782
" style="fill:none;stroke:#e5e5e5;stroke-width:0.8;"/>
     </g>
     <g id="line2d_20">
      <path d="M 46.772188 274.615782
" style="fill:none;stroke:#000000;stroke-width:1.5;"/>
      <defs>
       <path d="M 0 0
L -2.75 0
" id="m09ff777e5a" style="stroke:#000000;"/>
      </defs>
      <g>
       <use style="stroke:#000000;" x="46.772188" xlink:href="#m09ff777e5a" y="274.615782"/>
      </g>
     </g>
     <g id="text_7">
      <!-- 0 -->
      <g style="fill:#4d4d4d;" transform="translate(34.187188 277.927032)scale(0.12 -0.12)">
       <use xlink:href="#DejaVuSans-48"/>
      </g>
     </g>
    </g>
    <g id="ytick_2">
     <g id="line2d_21">
      <path clip-path="url(#pfe2e1ff1aa)" d="M 46.772188 214.135782
L 403.892188 214.135782
" style="fill:none;stroke:#e5e5e5;stroke-width:0.8;"/>
     </g>
     <g id="line2d_22">
      <path d="M 46.772188 214.135782
" style="fill:none;stroke:#000000;stroke-width:1.5;"/>
      <g>
       <use style="stroke:#000000;" x="46.772188" xlink:href="#m09ff777e5a" y="214.135782"/>
      </g>
     </g>
     <g id="text_8">
      <!-- 25 -->
      <g style="fill:#4d4d4d;" transform="translate(26.552188 217.447032)scale(0.12 -0.12)">
       <use xlink:href="#DejaVuSans-50"/>
       <use x="63.623047" xlink:href="#DejaVuSans-53"/>
      </g>
     </g>
    </g>
    <g id="ytick_3">
     <g id="line2d_23">
      <path clip-path="url(#pfe2e1ff1aa)" d="M 46.772188 153.655782
L 403.892188 153.655782
" style="fill:none;stroke:#e5e5e5;stroke-width:0.8;"/>
     </g>
     <g id="line2d_24">
      <path d="M 46.772188 153.655782
" style="fill:none;stroke:#000000;stroke-width:1.5;"/>
      <g>
       <use style="stroke:#000000;" x="46.772188" xlink:href="#m09ff777e5a" y="153.655782"/>
      </g>
     </g>
     <g id="text_9">
      <!-- 50 -->
      <g style="fill:#4d4d4d;" transform="translate(26.552188 156.967032)scale(0.12 -0.12)">
       <use xlink:href="#DejaVuSans-53"/>
       <use x="63.623047" xlink:href="#DejaVuSans-48"/>
      </g>
     </g>
    </g>
    <g id="ytick_4">
     <g id="line2d_25">
      <path clip-path="url(#pfe2e1ff1aa)" d="M 46.772188 93.175782
L 403.892188 93.175782
" style="fill:none;stroke:#e5e5e5;stroke-width:0.8;"/>
     </g>
     <g id="line2d_26">
      <path d="M 46.772188 93.175782
" style="fill:none;stroke:#000000;stroke-width:1.5;"/>
      <g>
       <use style="stroke:#000000;" x="46.772188" xlink:href="#m09ff777e5a" y="93.175782"/>
      </g>
     </g>
     <g id="text_10">
      <!-- 75 -->
      <g style="fill:#4d4d4d;" transform="translate(26.552188 96.487032)scale(0.12 -0.12)">
       <use xlink:href="#DejaVuSans-55"/>
       <use x="63.623047" xlink:href="#DejaVuSans-53"/>
      </g>
     </g>
    </g>
    <g id="ytick_5">
     <g id="line2d_27">
      <path clip-path="url(#pfe2e1ff1aa)" d="M 46.772188 32.695782
L 403.892188 32.695782
" style="fill:none;stroke:#e5e5e5;stroke-width:0.8;"/>
     </g>
     <g id="line2d_28">
      <path d="M 46.772188 32.695782
" style="fill:none;stroke:#000000;stroke-width:1.5;"/>
      <g>
       <use style="stroke:#000000;" x="46.772188" xlink:href="#m09ff777e5a" y="32.695782"/>
      </g>
     </g>
     <g id="text_11">
      <!-- 100 -->
      <g style="fill:#4d4d4d;" transform="translate(18.917188 36.007032)scale(0.12 -0.12)">
       <use xlink:href="#DejaVuSans-49"/>
       <use x="63.623047" xlink:href="#DejaVuSans-48"/>
       <use x="127.246094" xlink:href="#DejaVuSans-48"/>
      </g>
     </g>
    </g>
    <g id="ytick_6">
     <g id="line2d_29">
      <path clip-path="url(#pfe2e1ff1aa)" d="M 46.772188 244.375782
L 403.892188 244.375782
" style="fill:none;stroke:#fafafa;"/>
     </g>
     <g id="line2d_30">
      <path d="M 46.772188 244.375782
" style="fill:none;stroke:#000000;stroke-width:1.5;"/>
     </g>
    </g>
    <g id="ytick_7">
     <g id="line2d_31">
      <path clip-path="url(#pfe2e1ff1aa)" d="M 46.772188 183.895782
L 403.892188 183.895782
" style="fill:none;stroke:#fafafa;"/>
     </g>
     <g id="line2d_32">
      <path d="M 46.772188 183.895782
" style="fill:none;stroke:#000000;stroke-width:1.5;"/>
     </g>
    </g>
    <g id="ytick_8">
     <g id="line2d_33">
      <path clip-path="url(#pfe2e1ff1aa)" d="M 46.772188 123.415782
L 403.892188 123.415782
" style="fill:none;stroke:#fafafa;"/>
     </g>
     <g id="line2d_34">
      <path d="M 46.772188 123.415782
" style="fill:none;stroke:#000000;stroke-width:1.5;"/>
     </g>
    </g>
    <g id="ytick_9">
     <g id="line2d_35">
      <path clip-path="url(#pfe2e1ff1aa)" d="M 46.772188 62.935782
L 403.892188 62.935782
" style="fill:none;stroke:#fafafa;"/>
     </g>
     <g id="line2d_36">
      <path d="M 46.772188 62.935782
" style="fill:none;stroke:#000000;stroke-width:1.5;"/>
     </g>
    </g>
    <g id="text_12">
     <!-- GSVA pathway ranking -->
     <defs>
      <path d="M 28.609375 0
L 0.78125 72.90625
L 11.078125 72.90625
L 34.1875 11.53125
L 57.328125 72.90625
L 67.578125 72.90625
L 39.796875 0
z
" id="DejaVuSans-86"/>
     </defs>
     <g transform="translate(11.397656 238.114501)rotate(-90)scale(0.15 -0.15)">
      <use xlink:href="#DejaVuSans-71"/>
      <use x="77.490234" xlink:href="#DejaVuSans-83"/>
      <use x="140.966797" xlink:href="#DejaVuSans-86"/>
      <use x="209.28125" xlink:href="#DejaVuSans-65"/>
      <use x="277.689453" xlink:href="#DejaVuSans-32"/>
      <use x="309.476562" xlink:href="#DejaVuSans-112"/>
      <use x="372.953125" xlink:href="#DejaVuSans-97"/>
      <use x="434.232422" xlink:href="#DejaVuSans-116"/>
      <use x="473.441406" xlink:href="#DejaVuSans-104"/>
      <use x="536.820312" xlink:href="#DejaVuSans-119"/>
      <use x="618.607422" xlink:href="#DejaVuSans-97"/>
      <use x="679.886719" xlink:href="#DejaVuSans-121"/>
      <use x="739.066406" xlink:href="#DejaVuSans-32"/>
      <use x="770.853516" xlink:href="#DejaVuSans-114"/>
      <use x="811.966797" xlink:href="#DejaVuSans-97"/>
      <use x="873.246094" xlink:href="#DejaVuSans-110"/>
      <use x="936.625" xlink:href="#DejaVuSans-107"/>
      <use x="994.535156" xlink:href="#DejaVuSans-105"/>
      <use x="1022.318359" xlink:href="#DejaVuSans-110"/>
      <use x="1085.697266" xlink:href="#DejaVuSans-103"/>
     </g>
    </g>
   </g>
   <g id="PathCollection_1">
    <path clip-path="url(#pfe2e1ff1aa)" d="M 149.57946 83.839664
C 150.04952 83.839664 150.500392 83.652908 150.832774 83.320525
C 151.165157 82.988142 151.351914 82.537271 151.351914 82.067211
C 151.351914 81.59715 151.165157 81.146279 150.832774 80.813897
C 150.500392 80.481514 150.04952 80.294757 149.57946 80.294757
C 149.1094 80.294757 148.658529 80.481514 148.326146 80.813897
C 147.993763 81.146279 147.807006 81.59715 147.807006 82.067211
C 147.807006 82.537271 147.993763 82.988142 148.326146 83.320525
C 148.658529 83.652908 149.1094 83.839664 149.57946 83.839664
z
" style="stroke:#000000;stroke-width:0.886227;"/>
    <path clip-path="url(#pfe2e1ff1aa)" d="M 63.004915 133.211093
C 63.474975 133.211093 63.925846 133.024336 64.258229 132.691953
C 64.590612 132.359571 64.777369 131.908699 64.777369 131.438639
C 64.777369 130.968579 64.590612 130.517708 64.258229 130.185325
C 63.925846 129.852942 63.474975 129.666185 63.004915 129.666185
C 62.534855 129.666185 62.083983 129.852942 61.751601 130.185325
C 61.419218 130.517708 61.232461 130.968579 61.232461 131.438639
C 61.232461 131.908699 61.419218 132.359571 61.751601 132.691953
C 62.083983 133.024336 62.534855 133.211093 63.004915 133.211093
z
" style="stroke:#000000;stroke-width:0.886227;"/>
    <path clip-path="url(#pfe2e1ff1aa)" d="M 142.364915 69.028236
C 142.834975 69.028236 143.285846 68.841479 143.618229 68.509096
C 143.950612 68.176713 144.137369 67.725842 144.137369 67.255782
C 144.137369 66.785722 143.950612 66.334851 143.618229 66.002468
C 143.285846 65.670085 142.834975 65.483328 142.364915 65.483328
C 141.894855 65.483328 141.443983 65.670085 141.111601 66.002468
C 140.779218 66.334851 140.592461 66.785722 140.592461 67.255782
C 140.592461 67.725842 140.779218 68.176713 141.111601 68.509096
C 141.443983 68.841479 141.894855 69.028236 142.364915 69.028236
z
" style="stroke:#000000;stroke-width:0.886227;"/>
    <path clip-path="url(#pfe2e1ff1aa)" d="M 286.655824 54.216807
C 287.125884 54.216807 287.576755 54.03005 287.909138 53.697668
C 288.241521 53.365285 288.428278 52.914414 288.428278 52.444353
C 288.428278 51.974293 288.241521 51.523422 287.909138 51.191039
C 287.576755 50.858657 287.125884 50.6719 286.655824 50.6719
C 286.185764 50.6719 285.734893 50.858657 285.40251 51.191039
C 285.070127 51.523422 284.88337 51.974293 284.88337 52.444353
C 284.88337 52.914414 285.070127 53.365285 285.40251 53.697668
C 285.734893 54.03005 286.185764 54.216807 286.655824 54.216807
z
" style="stroke:#000000;stroke-width:0.886227;"/>
    <path clip-path="url(#pfe2e1ff1aa)" d="M 373.230369 59.15395
C 373.70043 59.15395 374.151301 58.967193 374.483683 58.63481
C 374.816066 58.302428 375.002823 57.851557 375.002823 57.381496
C 375.002823 56.911436 374.816066 56.460565 374.483683 56.128182
C 374.151301 55.795799 373.70043 55.609043 373.230369 55.609043
C 372.760309 55.609043 372.309438 55.795799 371.977055 56.128182
C 371.644672 56.460565 371.457915 56.911436 371.457915 57.381496
C 371.457915 57.851557 371.644672 58.302428 371.977055 58.63481
C 372.309438 58.967193 372.760309 59.15395 373.230369 59.15395
z
" style="stroke:#000000;stroke-width:0.886227;"/>
    <path clip-path="url(#pfe2e1ff1aa)" d="M 99.077642 128.27395
C 99.547702 128.27395 99.998573 128.087193 100.330956 127.75481
C 100.663339 127.422428 100.850096 126.971557 100.850096 126.501496
C 100.850096 126.031436 100.663339 125.580565 100.330956 125.248182
C 99.998573 124.915799 99.547702 124.729043 99.077642 124.729043
C 98.607582 124.729043 98.156711 124.915799 97.824328 125.248182
C 97.491945 125.580565 97.305188 126.031436 97.305188 126.501496
C 97.305188 126.971557 97.491945 127.422428 97.824328 127.75481
C 98.156711 128.087193 98.607582 128.27395 99.077642 128.27395
z
" style="stroke:#000000;stroke-width:0.886227;"/>
    <path clip-path="url(#pfe2e1ff1aa)" d="M 63.004915 34.468236
C 63.474975 34.468236 63.925846 34.281479 64.258229 33.949096
C 64.590612 33.616713 64.777369 33.165842 64.777369 32.695782
C 64.777369 32.225722 64.590612 31.774851 64.258229 31.442468
C 63.925846 31.110085 63.474975 30.923328 63.004915 30.923328
C 62.534855 30.923328 62.083983 31.110085 61.751601 31.442468
C 61.419218 31.774851 61.232461 32.225722 61.232461 32.695782
C 61.232461 33.165842 61.419218 33.616713 61.751601 33.949096
C 62.083983 34.281479 62.534855 34.468236 63.004915 34.468236
z
" style="stroke:#000000;stroke-width:0.886227;"/>
    <path clip-path="url(#pfe2e1ff1aa)" d="M 171.223097 49.279664
C 171.693157 49.279664 172.144028 49.092908 172.476411 48.760525
C 172.808794 48.428142 172.99555 47.977271 172.99555 47.507211
C 172.99555 47.03715 172.808794 46.586279 172.476411 46.253897
C 172.144028 45.921514 171.693157 45.734757 171.223097 45.734757
C 170.753036 45.734757 170.302165 45.921514 169.969782 46.253897
C 169.6374 46.586279 169.450643 47.03715 169.450643 47.507211
C 169.450643 47.977271 169.6374 48.428142 169.969782 48.760525
C 170.302165 49.092908 170.753036 49.279664 171.223097 49.279664
z
" style="stroke:#000000;stroke-width:0.886227;"/>
    <path clip-path="url(#pfe2e1ff1aa)" d="M 113.506733 148.022522
C 113.976793 148.022522 114.427664 147.835765 114.760047 147.503382
C 115.09243 147.170999 115.279187 146.720128 115.279187 146.250068
C 115.279187 145.780008 115.09243 145.329136 114.760047 144.996754
C 114.427664 144.664371 113.976793 144.477614 113.506733 144.477614
C 113.036673 144.477614 112.585802 144.664371 112.253419 144.996754
C 111.921036 145.329136 111.734279 145.780008 111.734279 146.250068
C 111.734279 146.720128 111.921036 147.170999 112.253419 147.503382
C 112.585802 147.835765 113.036673 148.022522 113.506733 148.022522
z
" style="stroke:#000000;stroke-width:0.886227;"/>
    <path clip-path="url(#pfe2e1ff1aa)" d="M 387.65946 103.588236
C 388.12952 103.588236 388.580392 103.401479 388.912774 103.069096
C 389.245157 102.736713 389.431914 102.285842 389.431914 101.815782
C 389.431914 101.345722 389.245157 100.894851 388.912774 100.562468
C 388.580392 100.230085 388.12952 100.043328 387.65946 100.043328
C 387.1894 100.043328 386.738529 100.230085 386.406146 100.562468
C 386.073763 100.894851 385.887006 101.345722 385.887006 101.815782
C 385.887006 102.285842 386.073763 102.736713 386.406146 103.069096
C 386.738529 103.401479 387.1894 103.588236 387.65946 103.588236
z
" style="stroke:#000000;stroke-width:0.886227;"/>
    <path clip-path="url(#pfe2e1ff1aa)" d="M 228.93946 39.405379
C 229.40952 39.405379 229.860392 39.218622 230.192774 38.886239
C 230.525157 38.553856 230.711914 38.102985 230.711914 37.632925
C 230.711914 37.162865 230.525157 36.711994 230.192774 36.379611
C 229.860392 36.047228 229.40952 35.860471 228.93946 35.860471
C 228.4694 35.860471 228.018529 36.047228 227.686146 36.379611
C 227.353763 36.711994 227.167006 37.162865 227.167006 37.632925
C 227.167006 38.102985 227.353763 38.553856 227.686146 38.886239
C 228.018529 39.218622 228.4694 39.405379 228.93946 39.405379
z
" style="stroke:#000000;stroke-width:0.886227;"/>
    <path clip-path="url(#pfe2e1ff1aa)" d="M 272.226733 177.645379
C 272.696793 177.645379 273.147664 177.458622 273.480047 177.126239
C 273.81243 176.793856 273.999187 176.342985 273.999187 175.872925
C 273.999187 175.402865 273.81243 174.951994 273.480047 174.619611
C 273.147664 174.287228 272.696793 174.100471 272.226733 174.100471
C 271.756673 174.100471 271.305802 174.287228 270.973419 174.619611
C 270.641036 174.951994 270.454279 175.402865 270.454279 175.872925
C 270.454279 176.342985 270.641036 176.793856 270.973419 177.126239
C 271.305802 177.458622 271.756673 177.645379 272.226733 177.645379
z
" style="stroke:#000000;stroke-width:0.886227;"/>
    <path clip-path="url(#pfe2e1ff1aa)" d="M 63.004915 157.896807
C 63.474975 157.896807 63.925846 157.71005 64.258229 157.377668
C 64.590612 157.045285 64.777369 156.594414 64.777369 156.124353
C 64.777369 155.654293 64.590612 155.203422 64.258229 154.871039
C 63.925846 154.538657 63.474975 154.3519 63.004915 154.3519
C 62.534855 154.3519 62.083983 154.538657 61.751601 154.871039
C 61.419218 155.203422 61.232461 155.654293 61.232461 156.124353
C 61.232461 156.594414 61.419218 157.045285 61.751601 157.377668
C 62.083983 157.71005 62.534855 157.896807 63.004915 157.896807
z
" style="stroke:#000000;stroke-width:0.886227;"/>
    <path clip-path="url(#pfe2e1ff1aa)" d="M 120.721278 227.016807
C 121.191339 227.016807 121.64221 226.83005 121.974593 226.497668
C 122.306975 226.165285 122.493732 225.714414 122.493732 225.244353
C 122.493732 224.774293 122.306975 224.323422 121.974593 223.991039
C 121.64221 223.658657 121.191339 223.4719 120.721278 223.4719
C 120.251218 223.4719 119.800347 223.658657 119.467964 223.991039
C 119.135581 224.323422 118.948825 224.774293 118.948825 225.244353
C 118.948825 225.714414 119.135581 226.165285 119.467964 226.497668
C 119.800347 226.83005 120.251218 227.016807 120.721278 227.016807
z
" style="stroke:#000000;stroke-width:0.886227;"/>
    <path clip-path="url(#pfe2e1ff1aa)" d="M 63.004915 152.959664
C 63.474975 152.959664 63.925846 152.772908 64.258229 152.440525
C 64.590612 152.108142 64.777369 151.657271 64.777369 151.187211
C 64.777369 150.71715 64.590612 150.266279 64.258229 149.933897
C 63.925846 149.601514 63.474975 149.414757 63.004915 149.414757
C 62.534855 149.414757 62.083983 149.601514 61.751601 149.933897
C 61.419218 150.266279 61.232461 150.71715 61.232461 151.187211
C 61.232461 151.657271 61.419218 152.108142 61.751601 152.440525
C 62.083983 152.772908 62.534855 152.959664 63.004915 152.959664
z
" style="stroke:#000000;stroke-width:0.886227;"/>
    <path clip-path="url(#pfe2e1ff1aa)" d="M 380.444915 143.085379
C 380.914975 143.085379 381.365846 142.898622 381.698229 142.566239
C 382.030612 142.233856 382.217369 141.782985 382.217369 141.312925
C 382.217369 140.842865 382.030612 140.391994 381.698229 140.059611
C 381.365846 139.727228 380.914975 139.540471 380.444915 139.540471
C 379.974855 139.540471 379.523983 139.727228 379.191601 140.059611
C 378.859218 140.391994 378.672461 140.842865 378.672461 141.312925
C 378.672461 141.782985 378.859218 142.233856 379.191601 142.566239
C 379.523983 142.898622 379.974855 143.085379 380.444915 143.085379
z
" style="stroke:#000000;stroke-width:0.886227;"/>
    <path clip-path="url(#pfe2e1ff1aa)" d="M 63.004915 212.205379
C 63.474975 212.205379 63.925846 212.018622 64.258229 211.686239
C 64.590612 211.353856 64.777369 210.902985 64.777369 210.432925
C 64.777369 209.962865 64.590612 209.511994 64.258229 209.179611
C 63.925846 208.847228 63.474975 208.660471 63.004915 208.660471
C 62.534855 208.660471 62.083983 208.847228 61.751601 209.179611
C 61.419218 209.511994 61.232461 209.962865 61.232461 210.432925
C 61.232461 210.902985 61.419218 211.353856 61.751601 211.686239
C 62.083983 212.018622 62.534855 212.205379 63.004915 212.205379
z
" style="stroke:#000000;stroke-width:0.886227;"/>
    <path clip-path="url(#pfe2e1ff1aa)" d="M 156.794006 256.639664
C 157.264066 256.639664 157.714937 256.452908 158.04732 256.120525
C 158.379703 255.788142 158.56646 255.337271 158.56646 254.867211
C 158.56646 254.39715 158.379703 253.946279 158.04732 253.613897
C 157.714937 253.281514 157.264066 253.094757 156.794006 253.094757
C 156.323945 253.094757 155.873074 253.281514 155.540692 253.613897
C 155.208309 253.946279 155.021552 254.39715 155.021552 254.867211
C 155.021552 255.337271 155.208309 255.788142 155.540692 256.120525
C 155.873074 256.452908 156.323945 256.639664 156.794006 256.639664
z
" style="stroke:#000000;stroke-width:0.886227;"/>
    <path clip-path="url(#pfe2e1ff1aa)" d="M 344.372188 78.902522
C 344.842248 78.902522 345.293119 78.715765 345.625502 78.383382
C 345.957884 78.050999 346.144641 77.600128 346.144641 77.130068
C 346.144641 76.660008 345.957884 76.209136 345.625502 75.876754
C 345.293119 75.544371 344.842248 75.357614 344.372188 75.357614
C 343.902127 75.357614 343.451256 75.544371 343.118873 75.876754
C 342.786491 76.209136 342.599734 76.660008 342.599734 77.130068
C 342.599734 77.600128 342.786491 78.050999 343.118873 78.383382
C 343.451256 78.715765 343.902127 78.902522 344.372188 78.902522
z
" style="stroke:#000000;stroke-width:0.886227;"/>
    <path clip-path="url(#pfe2e1ff1aa)" d="M 221.724915 88.776807
C 222.194975 88.776807 222.645846 88.59005 222.978229 88.257668
C 223.310612 87.925285 223.497369 87.474414 223.497369 87.004353
C 223.497369 86.534293 223.310612 86.083422 222.978229 85.751039
C 222.645846 85.418657 222.194975 85.2319 221.724915 85.2319
C 221.254855 85.2319 220.803983 85.418657 220.471601 85.751039
C 220.139218 86.083422 219.952461 86.534293 219.952461 87.004353
C 219.952461 87.474414 220.139218 87.925285 220.471601 88.257668
C 220.803983 88.59005 221.254855 88.776807 221.724915 88.776807
z
" style="stroke:#000000;stroke-width:0.886227;"/>
    <path clip-path="url(#pfe2e1ff1aa)" d="M 301.084915 251.702522
C 301.554975 251.702522 302.005846 251.515765 302.338229 251.183382
C 302.670612 250.850999 302.857369 250.400128 302.857369 249.930068
C 302.857369 249.460008 302.670612 249.009136 302.338229 248.676754
C 302.005846 248.344371 301.554975 248.157614 301.084915 248.157614
C 300.614855 248.157614 300.163983 248.344371 299.831601 248.676754
C 299.499218 249.009136 299.312461 249.460008 299.312461 249.930068
C 299.312461 250.400128 299.499218 250.850999 299.831601 251.183382
C 300.163983 251.515765 300.614855 251.702522 301.084915 251.702522
z
" style="stroke:#000000;stroke-width:0.886227;"/>
    <path clip-path="url(#pfe2e1ff1aa)" d="M 63.004915 246.765379
C 63.474975 246.765379 63.925846 246.578622 64.258229 246.246239
C 64.590612 245.913856 64.777369 245.462985 64.777369 244.992925
C 64.777369 244.522865 64.590612 244.071994 64.258229 243.739611
C 63.925846 243.407228 63.474975 243.220471 63.004915 243.220471
C 62.534855 243.220471 62.083983 243.407228 61.751601 243.739611
C 61.419218 244.071994 61.232461 244.522865 61.232461 244.992925
C 61.232461 245.462985 61.419218 245.913856 61.751601 246.246239
C 62.083983 246.578622 62.534855 246.765379 63.004915 246.765379
z
" style="stroke:#000000;stroke-width:0.886227;"/>
    <path clip-path="url(#pfe2e1ff1aa)" d="M 243.368551 276.388236
C 243.838611 276.388236 244.289482 276.201479 244.621865 275.869096
C 244.954248 275.536713 245.141005 275.085842 245.141005 274.615782
C 245.141005 274.145722 244.954248 273.694851 244.621865 273.362468
C 244.289482 273.030085 243.838611 272.843328 243.368551 272.843328
C 242.898491 272.843328 242.44762 273.030085 242.115237 273.362468
C 241.782854 273.694851 241.596097 274.145722 241.596097 274.615782
C 241.596097 275.085842 241.782854 275.536713 242.115237 275.869096
C 242.44762 276.201479 242.898491 276.388236 243.368551 276.388236
z
" style="stroke:#000000;stroke-width:0.886227;"/>
    <path clip-path="url(#pfe2e1ff1aa)" d="M 265.012187 217.142522
C 265.482248 217.142522 265.933119 216.955765 266.265502 216.623382
C 266.597884 216.290999 266.784641 215.840128 266.784641 215.370068
C 266.784641 214.900008 266.597884 214.449136 266.265502 214.116754
C 265.933119 213.784371 265.482248 213.597614 265.012187 213.597614
C 264.542127 213.597614 264.091256 213.784371 263.758873 214.116754
C 263.426491 214.449136 263.239734 214.900008 263.239734 215.370068
C 263.239734 215.840128 263.426491 216.290999 263.758873 216.623382
C 264.091256 216.955765 264.542127 217.142522 265.012187 217.142522
z
" style="stroke:#000000;stroke-width:0.886227;"/>
    <path clip-path="url(#pfe2e1ff1aa)" d="M 337.157642 241.828236
C 337.627702 241.828236 338.078573 241.641479 338.410956 241.309096
C 338.743339 240.976713 338.930096 240.525842 338.930096 240.055782
C 338.930096 239.585722 338.743339 239.134851 338.410956 238.802468
C 338.078573 238.470085 337.627702 238.283328 337.157642 238.283328
C 336.687582 238.283328 336.236711 238.470085 335.904328 238.802468
C 335.571945 239.134851 335.385188 239.585722 335.385188 240.055782
C 335.385188 240.525842 335.571945 240.976713 335.904328 241.309096
C 336.236711 241.641479 336.687582 241.828236 337.157642 241.828236
z
" style="stroke:#000000;stroke-width:0.886227;"/>
    <path clip-path="url(#pfe2e1ff1aa)" d="M 358.801278 162.83395
C 359.271339 162.83395 359.72221 162.647193 360.054593 162.31481
C 360.386975 161.982428 360.573732 161.531557 360.573732 161.061496
C 360.573732 160.591436 360.386975 160.140565 360.054593 159.808182
C 359.72221 159.475799 359.271339 159.289043 358.801278 159.289043
C 358.331218 159.289043 357.880347 159.475799 357.547964 159.808182
C 357.215581 160.140565 357.028825 160.591436 357.028825 161.061496
C 357.028825 161.531557 357.215581 161.982428 357.547964 162.31481
C 357.880347 162.647193 358.331218 162.83395 358.801278 162.83395
z
" style="stroke:#000000;stroke-width:0.886227;"/>
    <path clip-path="url(#pfe2e1ff1aa)" d="M 322.728551 222.079664
C 323.198611 222.079664 323.649482 221.892908 323.981865 221.560525
C 324.314248 221.228142 324.501005 220.777271 324.501005 220.307211
C 324.501005 219.83715 324.314248 219.386279 323.981865 219.053897
C 323.649482 218.721514 323.198611 218.534757 322.728551 218.534757
C 322.258491 218.534757 321.80762 218.721514 321.475237 219.053897
C 321.142854 219.386279 320.956097 219.83715 320.956097 220.307211
C 320.956097 220.777271 321.142854 221.228142 321.475237 221.560525
C 321.80762 221.892908 322.258491 222.079664 322.728551 222.079664
z
" style="stroke:#000000;stroke-width:0.886227;"/>
    <path clip-path="url(#pfe2e1ff1aa)" d="M 366.015824 197.39395
C 366.485884 197.39395 366.936755 197.207193 367.269138 196.87481
C 367.601521 196.542428 367.788278 196.091557 367.788278 195.621496
C 367.788278 195.151436 367.601521 194.700565 367.269138 194.368182
C 366.936755 194.035799 366.485884 193.849043 366.015824 193.849043
C 365.545764 193.849043 365.094893 194.035799 364.76251 194.368182
C 364.430127 194.700565 364.24337 195.151436 364.24337 195.621496
C 364.24337 196.091557 364.430127 196.542428 364.76251 196.87481
C 365.094893 197.207193 365.545764 197.39395 366.015824 197.39395
z
" style="stroke:#000000;stroke-width:0.886227;"/>
    <path clip-path="url(#pfe2e1ff1aa)" d="M 106.292188 138.148236
C 106.762248 138.148236 107.213119 137.961479 107.545502 137.629096
C 107.877884 137.296713 108.064641 136.845842 108.064641 136.375782
C 108.064641 135.905722 107.877884 135.454851 107.545502 135.122468
C 107.213119 134.790085 106.762248 134.603328 106.292188 134.603328
C 105.822127 134.603328 105.371256 134.790085 105.038873 135.122468
C 104.706491 135.454851 104.519734 135.905722 104.519734 136.375782
C 104.519734 136.845842 104.706491 137.296713 105.038873 137.629096
C 105.371256 137.961479 105.822127 138.148236 106.292188 138.148236
z
" style="stroke:#000000;stroke-width:0.886227;"/>
    <path clip-path="url(#pfe2e1ff1aa)" d="M 185.652187 236.891093
C 186.122248 236.891093 186.573119 236.704336 186.905502 236.371953
C 187.237884 236.039571 187.424641 235.588699 187.424641 235.118639
C 187.424641 234.648579 187.237884 234.197708 186.905502 233.865325
C 186.573119 233.532942 186.122248 233.346185 185.652187 233.346185
C 185.182127 233.346185 184.731256 233.532942 184.398873 233.865325
C 184.066491 234.197708 183.879734 234.648579 183.879734 235.118639
C 183.879734 235.588699 184.066491 236.039571 184.398873 236.371953
C 184.731256 236.704336 185.182127 236.891093 185.652187 236.891093
z
" style="stroke:#000000;stroke-width:0.886227;"/>
    <path clip-path="url(#pfe2e1ff1aa)" d="M 207.295824 192.456807
C 207.765884 192.456807 208.216755 192.27005 208.549138 191.937668
C 208.881521 191.605285 209.068278 191.154414 209.068278 190.684353
C 209.068278 190.214293 208.881521 189.763422 208.549138 189.431039
C 208.216755 189.098657 207.765884 188.9119 207.295824 188.9119
C 206.825764 188.9119 206.374893 189.098657 206.04251 189.431039
C 205.710127 189.763422 205.52337 190.214293 205.52337 190.684353
C 205.52337 191.154414 205.710127 191.605285 206.04251 191.937668
C 206.374893 192.27005 206.825764 192.456807 207.295824 192.456807
z
" style="stroke:#000000;stroke-width:0.886227;"/>
    <path clip-path="url(#pfe2e1ff1aa)" d="M 192.866733 271.451093
C 193.336793 271.451093 193.787664 271.264336 194.120047 270.931953
C 194.45243 270.599571 194.639187 270.148699 194.639187 269.678639
C 194.639187 269.208579 194.45243 268.757708 194.120047 268.425325
C 193.787664 268.092942 193.336793 267.906185 192.866733 267.906185
C 192.396673 267.906185 191.945802 268.092942 191.613419 268.425325
C 191.281036 268.757708 191.094279 269.208579 191.094279 269.678639
C 191.094279 270.148699 191.281036 270.599571 191.613419 270.931953
C 191.945802 271.264336 192.396673 271.451093 192.866733 271.451093
z
" style="stroke:#000000;stroke-width:0.886227;"/>
    <path clip-path="url(#pfe2e1ff1aa)" d="M 178.437642 187.519664
C 178.907702 187.519664 179.358573 187.332908 179.690956 187.000525
C 180.023339 186.668142 180.210096 186.217271 180.210096 185.747211
C 180.210096 185.27715 180.023339 184.826279 179.690956 184.493897
C 179.358573 184.161514 178.907702 183.974757 178.437642 183.974757
C 177.967582 183.974757 177.516711 184.161514 177.184328 184.493897
C 176.851945 184.826279 176.665188 185.27715 176.665188 185.747211
C 176.665188 186.217271 176.851945 186.668142 177.184328 187.000525
C 177.516711 187.332908 177.967582 187.519664 178.437642 187.519664
z
" style="stroke:#000000;stroke-width:0.886227;"/>
    <path clip-path="url(#pfe2e1ff1aa)" d="M 279.441278 108.525379
C 279.911339 108.525379 280.36221 108.338622 280.694593 108.006239
C 281.026975 107.673856 281.213732 107.222985 281.213732 106.752925
C 281.213732 106.282865 281.026975 105.831994 280.694593 105.499611
C 280.36221 105.167228 279.911339 104.980471 279.441278 104.980471
C 278.971218 104.980471 278.520347 105.167228 278.187964 105.499611
C 277.855581 105.831994 277.668825 106.282865 277.668825 106.752925
C 277.668825 107.222985 277.855581 107.673856 278.187964 108.006239
C 278.520347 108.338622 278.971218 108.525379 279.441278 108.525379
z
" style="stroke:#000000;stroke-width:0.886227;"/>
    <path clip-path="url(#pfe2e1ff1aa)" d="M 135.150369 44.342522
C 135.62043 44.342522 136.071301 44.155765 136.403683 43.823382
C 136.736066 43.490999 136.922823 43.040128 136.922823 42.570068
C 136.922823 42.100008 136.736066 41.649136 136.403683 41.316754
C 136.071301 40.984371 135.62043 40.797614 135.150369 40.797614
C 134.680309 40.797614 134.229438 40.984371 133.897055 41.316754
C 133.564672 41.649136 133.377915 42.100008 133.377915 42.570068
C 133.377915 43.040128 133.564672 43.490999 133.897055 43.823382
C 134.229438 44.155765 134.680309 44.342522 135.150369 44.342522
z
" style="stroke:#000000;stroke-width:0.886227;"/>
    <path clip-path="url(#pfe2e1ff1aa)" d="M 257.797642 172.708236
C 258.267702 172.708236 258.718573 172.521479 259.050956 172.189096
C 259.383339 171.856713 259.570096 171.405842 259.570096 170.935782
C 259.570096 170.465722 259.383339 170.014851 259.050956 169.682468
C 258.718573 169.350085 258.267702 169.163328 257.797642 169.163328
C 257.327582 169.163328 256.876711 169.350085 256.544328 169.682468
C 256.211945 170.014851 256.025188 170.465722 256.025188 170.935782
C 256.025188 171.405842 256.211945 171.856713 256.544328 172.189096
C 256.876711 172.521479 257.327582 172.708236 257.797642 172.708236
z
" style="stroke:#000000;stroke-width:0.886227;"/>
    <path clip-path="url(#pfe2e1ff1aa)" d="M 250.583097 266.51395
C 251.053157 266.51395 251.504028 266.327193 251.836411 265.99481
C 252.168794 265.662428 252.35555 265.211557 252.35555 264.741496
C 252.35555 264.271436 252.168794 263.820565 251.836411 263.488182
C 251.504028 263.155799 251.053157 262.969043 250.583097 262.969043
C 250.113036 262.969043 249.662165 263.155799 249.329782 263.488182
C 248.9974 263.820565 248.810643 264.271436 248.810643 264.741496
C 248.810643 265.211557 248.9974 265.662428 249.329782 265.99481
C 249.662165 266.327193 250.113036 266.51395 250.583097 266.51395
z
" style="stroke:#000000;stroke-width:0.886227;"/>
    <path clip-path="url(#pfe2e1ff1aa)" d="M 293.870369 182.582522
C 294.34043 182.582522 294.791301 182.395765 295.123683 182.063382
C 295.456066 181.730999 295.642823 181.280128 295.642823 180.810068
C 295.642823 180.340008 295.456066 179.889136 295.123683 179.556754
C 294.791301 179.224371 294.34043 179.037614 293.870369 179.037614
C 293.400309 179.037614 292.949438 179.224371 292.617055 179.556754
C 292.284672 179.889136 292.097915 180.340008 292.097915 180.810068
C 292.097915 181.280128 292.284672 181.730999 292.617055 182.063382
C 292.949438 182.395765 293.400309 182.582522 293.870369 182.582522
z
" style="stroke:#000000;stroke-width:0.886227;"/>
    <path clip-path="url(#pfe2e1ff1aa)" d="M 351.586733 123.336807
C 352.056793 123.336807 352.507664 123.15005 352.840047 122.817668
C 353.17243 122.485285 353.359187 122.034414 353.359187 121.564353
C 353.359187 121.094293 353.17243 120.643422 352.840047 120.311039
C 352.507664 119.978657 352.056793 119.7919 351.586733 119.7919
C 351.116673 119.7919 350.665802 119.978657 350.333419 120.311039
C 350.001036 120.643422 349.814279 121.094293 349.814279 121.564353
C 349.814279 122.034414 350.001036 122.485285 350.333419 122.817668
C 350.665802 123.15005 351.116673 123.336807 351.586733 123.336807
z
" style="stroke:#000000;stroke-width:0.886227;"/>
    <path clip-path="url(#pfe2e1ff1aa)" d="M 63.004915 93.71395
C 63.474975 93.71395 63.925846 93.527193 64.258229 93.19481
C 64.590612 92.862428 64.777369 92.411557 64.777369 91.941496
C 64.777369 91.471436 64.590612 91.020565 64.258229 90.688182
C 63.925846 90.355799 63.474975 90.169043 63.004915 90.169043
C 62.534855 90.169043 62.083983 90.355799 61.751601 90.688182
C 61.419218 91.020565 61.232461 91.471436 61.232461 91.941496
C 61.232461 92.411557 61.419218 92.862428 61.751601 93.19481
C 62.083983 93.527193 62.534855 93.71395 63.004915 93.71395
z
" style="stroke:#000000;stroke-width:0.886227;"/>
    <path clip-path="url(#pfe2e1ff1aa)" d="M 127.935824 231.95395
C 128.405884 231.95395 128.856755 231.767193 129.189138 231.43481
C 129.521521 231.102428 129.708278 230.651557 129.708278 230.181496
C 129.708278 229.711436 129.521521 229.260565 129.189138 228.928182
C 128.856755 228.595799 128.405884 228.409043 127.935824 228.409043
C 127.465764 228.409043 127.014893 228.595799 126.68251 228.928182
C 126.350127 229.260565 126.16337 229.711436 126.16337 230.181496
C 126.16337 230.651557 126.350127 231.102428 126.68251 231.43481
C 127.014893 231.767193 127.465764 231.95395 127.935824 231.95395
z
" style="stroke:#000000;stroke-width:0.886227;"/>
    <path clip-path="url(#pfe2e1ff1aa)" d="M 214.510369 113.462522
C 214.98043 113.462522 215.431301 113.275765 215.763683 112.943382
C 216.096066 112.610999 216.282823 112.160128 216.282823 111.690068
C 216.282823 111.220008 216.096066 110.769136 215.763683 110.436754
C 215.431301 110.104371 214.98043 109.917614 214.510369 109.917614
C 214.040309 109.917614 213.589438 110.104371 213.257055 110.436754
C 212.924672 110.769136 212.737915 111.220008 212.737915 111.690068
C 212.737915 112.160128 212.924672 112.610999 213.257055 112.943382
C 213.589438 113.275765 214.040309 113.462522 214.510369 113.462522
z
" style="stroke:#000000;stroke-width:0.886227;"/>
    <path clip-path="url(#pfe2e1ff1aa)" d="M 200.081278 261.576807
C 200.551339 261.576807 201.00221 261.39005 201.334593 261.057668
C 201.666975 260.725285 201.853732 260.274414 201.853732 259.804353
C 201.853732 259.334293 201.666975 258.883422 201.334593 258.551039
C 201.00221 258.218657 200.551339 258.0319 200.081278 258.0319
C 199.611218 258.0319 199.160347 258.218657 198.827964 258.551039
C 198.495581 258.883422 198.308825 259.334293 198.308825 259.804353
C 198.308825 260.274414 198.495581 260.725285 198.827964 261.057668
C 199.160347 261.39005 199.611218 261.576807 200.081278 261.576807
z
" style="stroke:#000000;stroke-width:0.886227;"/>
    <path clip-path="url(#pfe2e1ff1aa)" d="M 329.943097 118.399664
C 330.413157 118.399664 330.864028 118.212908 331.196411 117.880525
C 331.528794 117.548142 331.71555 117.097271 331.71555 116.627211
C 331.71555 116.15715 331.528794 115.706279 331.196411 115.373897
C 330.864028 115.041514 330.413157 114.854757 329.943097 114.854757
C 329.473036 114.854757 329.022165 115.041514 328.689782 115.373897
C 328.3574 115.706279 328.170643 116.15715 328.170643 116.627211
C 328.170643 117.097271 328.3574 117.548142 328.689782 117.880525
C 329.022165 118.212908 329.473036 118.399664 329.943097 118.399664
z
" style="stroke:#000000;stroke-width:0.886227;"/>
    <path clip-path="url(#pfe2e1ff1aa)" d="M 236.154006 207.268236
C 236.624066 207.268236 237.074937 207.081479 237.40732 206.749096
C 237.739703 206.416713 237.92646 205.965842 237.92646 205.495782
C 237.92646 205.025722 237.739703 204.574851 237.40732 204.242468
C 237.074937 203.910085 236.624066 203.723328 236.154006 203.723328
C 235.683945 203.723328 235.233074 203.910085 234.900692 204.242468
C 234.568309 204.574851 234.381552 205.025722 234.381552 205.495782
C 234.381552 205.965842 234.568309 206.416713 234.900692 206.749096
C 235.233074 207.081479 235.683945 207.268236 236.154006 207.268236
z
" style="stroke:#000000;stroke-width:0.886227;"/>
    <path clip-path="url(#pfe2e1ff1aa)" d="M 63.004915 64.091093
C 63.474975 64.091093 63.925846 63.904336 64.258229 63.571953
C 64.590612 63.239571 64.777369 62.788699 64.777369 62.318639
C 64.777369 61.848579 64.590612 61.397708 64.258229 61.065325
C 63.925846 60.732942 63.474975 60.546185 63.004915 60.546185
C 62.534855 60.546185 62.083983 60.732942 61.751601 61.065325
C 61.419218 61.397708 61.232461 61.848579 61.232461 62.318639
C 61.232461 62.788699 61.419218 63.239571 61.751601 63.571953
C 62.083983 63.904336 62.534855 64.091093 63.004915 64.091093
z
" style="stroke:#000000;stroke-width:0.886227;"/>
    <path clip-path="url(#pfe2e1ff1aa)" d="M 63.004915 167.771093
C 63.474975 167.771093 63.925846 167.584336 64.258229 167.251953
C 64.590612 166.919571 64.777369 166.468699 64.777369 165.998639
C 64.777369 165.528579 64.590612 165.077708 64.258229 164.745325
C 63.925846 164.412942 63.474975 164.226185 63.004915 164.226185
C 62.534855 164.226185 62.083983 164.412942 61.751601 164.745325
C 61.419218 165.077708 61.232461 165.528579 61.232461 165.998639
C 61.232461 166.468699 61.419218 166.919571 61.751601 167.251953
C 62.083983 167.584336 62.534855 167.771093 63.004915 167.771093
z
" style="stroke:#000000;stroke-width:0.886227;"/>
    <path clip-path="url(#pfe2e1ff1aa)" d="M 164.008551 98.651093
C 164.478611 98.651093 164.929482 98.464336 165.261865 98.131953
C 165.594248 97.799571 165.781005 97.348699 165.781005 96.878639
C 165.781005 96.408579 165.594248 95.957708 165.261865 95.625325
C 164.929482 95.292942 164.478611 95.106185 164.008551 95.106185
C 163.538491 95.106185 163.08762 95.292942 162.755237 95.625325
C 162.422854 95.957708 162.236097 96.408579 162.236097 96.878639
C 162.236097 97.348699 162.422854 97.799571 162.755237 98.131953
C 163.08762 98.464336 163.538491 98.651093 164.008551 98.651093
z
" style="stroke:#000000;stroke-width:0.886227;"/>
    <path clip-path="url(#pfe2e1ff1aa)" d="M 308.29946 202.331093
C 308.76952 202.331093 309.220392 202.144336 309.552774 201.811953
C 309.885157 201.479571 310.071914 201.028699 310.071914 200.558639
C 310.071914 200.088579 309.885157 199.637708 309.552774 199.305325
C 309.220392 198.972942 308.76952 198.786185 308.29946 198.786185
C 307.8294 198.786185 307.378529 198.972942 307.046146 199.305325
C 306.713763 199.637708 306.527006 200.088579 306.527006 200.558639
C 306.527006 201.028699 306.713763 201.479571 307.046146 201.811953
C 307.378529 202.144336 307.8294 202.331093 308.29946 202.331093
z
" style="stroke:#000000;stroke-width:0.886227;"/>
    <path clip-path="url(#pfe2e1ff1aa)" d="M 315.514006 73.965379
C 315.984066 73.965379 316.434937 73.778622 316.76732 73.446239
C 317.099703 73.113856 317.28646 72.662985 317.28646 72.192925
C 317.28646 71.722865 317.099703 71.271994 316.76732 70.939611
C 316.434937 70.607228 315.984066 70.420471 315.514006 70.420471
C 315.043945 70.420471 314.593074 70.607228 314.260692 70.939611
C 313.928309 71.271994 313.741552 71.722865 313.741552 72.192925
C 313.741552 72.662985 313.928309 73.113856 314.260692 73.446239
C 314.593074 73.778622 315.043945 73.965379 315.514006 73.965379
z
" style="stroke:#000000;stroke-width:0.886227;"/>
   </g>
  </g>
  <g id="text_13">
   <!-- GSEA $v.s.$ GSVA pathway ranking -->
   <defs>
    <path d="M 7.171875 54.6875
L 16.703125 54.6875
L 24.703125 8.203125
L 50.875 54.6875
L 60.40625 54.6875
L 29.296875 0
L 17.1875 0
z
" id="DejaVuSans-Oblique-118"/>
    <path d="M 10.6875 12.40625
L 21 12.40625
L 21 0
L 10.6875 0
z
" id="DejaVuSans-46"/>
    <path d="M 50 53.078125
L 48.296875 44.578125
Q 44.734375 46.53125 40.765625 47.5
Q 36.8125 48.484375 32.625 48.484375
Q 25.53125 48.484375 21.453125 46.0625
Q 17.390625 43.65625 17.390625 39.5
Q 17.390625 34.671875 26.859375 32.078125
Q 27.59375 31.890625 27.9375 31.78125
L 30.8125 30.90625
Q 39.796875 28.421875 42.796875 25.6875
Q 45.796875 22.953125 45.796875 18.21875
Q 45.796875 9.515625 38.890625 4.046875
Q 31.984375 -1.421875 20.796875 -1.421875
Q 16.453125 -1.421875 11.671875 -0.578125
Q 6.890625 0.25 1.125 2
L 2.875 11.28125
Q 7.8125 8.734375 12.59375 7.421875
Q 17.390625 6.109375 21.78125 6.109375
Q 28.375 6.109375 32.5 8.9375
Q 36.625 11.765625 36.625 16.109375
Q 36.625 20.796875 25.78125 23.6875
L 24.859375 23.921875
L 21.78125 24.703125
Q 14.9375 26.515625 11.765625 29.46875
Q 8.59375 32.421875 8.59375 37.015625
Q 8.59375 45.75 15.15625 50.875
Q 21.734375 56 33.015625 56
Q 37.453125 56 41.671875 55.265625
Q 45.90625 54.546875 50 53.078125
z
" id="DejaVuSans-Oblique-115"/>
   </defs>
   <g transform="translate(92.072188 11.4)scale(0.15 -0.15)">
    <use transform="translate(0 0.015625)" xlink:href="#DejaVuSans-71"/>
    <use transform="translate(77.490234 0.015625)" xlink:href="#DejaVuSans-83"/>
    <use transform="translate(140.966797 0.015625)" xlink:href="#DejaVuSans-69"/>
    <use transform="translate(204.150391 0.015625)" xlink:href="#DejaVuSans-65"/>
    <use transform="translate(272.558594 0.015625)" xlink:href="#DejaVuSans-32"/>
    <use transform="translate(304.345703 0.015625)" xlink:href="#DejaVuSans-Oblique-118"/>
    <use transform="translate(363.525391 0.015625)" xlink:href="#DejaVuSans-46"/>
    <use transform="translate(414.794922 0.015625)" xlink:href="#DejaVuSans-Oblique-115"/>
    <use transform="translate(466.894531 0.015625)" xlink:href="#DejaVuSans-46"/>
    <use transform="translate(518.164062 0.015625)" xlink:href="#DejaVuSans-32"/>
    <use transform="translate(549.951172 0.015625)" xlink:href="#DejaVuSans-71"/>
    <use transform="translate(627.441406 0.015625)" xlink:href="#DejaVuSans-83"/>
    <use transform="translate(690.917969 0.015625)" xlink:href="#DejaVuSans-86"/>
    <use transform="translate(759.326172 0.015625)" xlink:href="#DejaVuSans-65"/>
    <use transform="translate(827.734375 0.015625)" xlink:href="#DejaVuSans-32"/>
    <use transform="translate(859.521484 0.015625)" xlink:href="#DejaVuSans-112"/>
    <use transform="translate(922.998047 0.015625)" xlink:href="#DejaVuSans-97"/>
    <use transform="translate(984.277344 0.015625)" xlink:href="#DejaVuSans-116"/>
    <use transform="translate(1023.486328 0.015625)" xlink:href="#DejaVuSans-104"/>
    <use transform="translate(1086.865234 0.015625)" xlink:href="#DejaVuSans-119"/>
    <use transform="translate(1168.652344 0.015625)" xlink:href="#DejaVuSans-97"/>
    <use transform="translate(1229.931641 0.015625)" xlink:href="#DejaVuSans-121"/>
    <use transform="translate(1289.111328 0.015625)" xlink:href="#DejaVuSans-32"/>
    <use transform="translate(1320.898438 0.015625)" xlink:href="#DejaVuSans-114"/>
    <use transform="translate(1362.011719 0.015625)" xlink:href="#DejaVuSans-97"/>
    <use transform="translate(1423.291016 0.015625)" xlink:href="#DejaVuSans-110"/>
    <use transform="translate(1486.669922 0.015625)" xlink:href="#DejaVuSans-107"/>
    <use transform="translate(1544.580078 0.015625)" xlink:href="#DejaVuSans-105"/>
    <use transform="translate(1572.363281 0.015625)" xlink:href="#DejaVuSans-110"/>
    <use transform="translate(1635.742188 0.015625)" xlink:href="#DejaVuSans-103"/>
   </g>
  </g>
 </g>
 <defs>
  <clipPath id="pfe2e1ff1aa">
   <rect height="266.112" width="357.12" x="46.772188" y="20.599782"/>
  </clipPath>
 </defs>
</svg>
