<?xml version="1.0" encoding="utf-8" standalone="no"?>
<!DOCTYPE svg PUBLIC "-//W3C//DTD SVG 1.1//EN"
  "http://www.w3.org/Graphics/SVG/1.1/DTD/svg11.dtd">
<!-- Created with matplotlib (https://matplotlib.org/) -->
<svg height="332.048141pt" version="1.1" viewBox="0 0 406.642188 332.048141" width="406.642188pt" xmlns="http://www.w3.org/2000/svg" xmlns:xlink="http://www.w3.org/1999/xlink">
 <defs>
  <style type="text/css">
*{stroke-linecap:butt;stroke-linejoin:round;}
  </style>
 </defs>
 <g id="figure_1">
  <g id="patch_1">
   <path d="M 0 332.048141
L 406.642188 332.048141
L 406.642188 0
L 0 0
z
" style="fill:#ffffff;stroke:#ffffff;stroke-linejoin:miter;"/>
  </g>
  <g id="axes_1">
   <g id="patch_2">
    <path d="M 46.772188 296.534391
L 403.892188 296.534391
L 403.892188 30.422391
L 46.772188 30.422391
z
" style="fill:none;"/>
   </g>
   <g id="matplotlib.axis_1">
    <g id="xtick_1">
     <g id="line2d_1">
      <path clip-path="url(#pa5dbbda0bf)" d="M 63.004915 296.534391
L 63.004915 30.422391
" style="fill:none;stroke:#e5e5e5;stroke-width:0.8;"/>
     </g>
     <g id="line2d_2">
      <path d="M 63.004915 296.534391
" style="fill:none;stroke:#000000;stroke-width:1.5;"/>
      <defs>
       <path d="M 0 0
L 0 2.75
" id="m41c5f1ec01" style="stroke:#000000;"/>
      </defs>
      <g>
       <use style="stroke:#000000;" x="63.004915" xlink:href="#m41c5f1ec01" y="296.534391"/>
      </g>
     </g>
     <g id="text_1">
      <!-- 0 -->
      <defs>
       <path d="M 31.78125 66.40625
Q 24.171875 66.40625 20.328125 58.90625
Q 16.5 51.421875 16.5 36.375
Q 16.5 21.390625 20.328125 13.890625
Q 24.171875 6.390625 31.78125 6.390625
Q 39.453125 6.390625 43.28125 13.890625
Q 47.125 21.390625 47.125 36.375
Q 47.125 51.421875 43.28125 58.90625
Q 39.453125 66.40625 31.78125 66.40625
z
M 31.78125 74.21875
Q 44.046875 74.21875 50.515625 64.515625
Q 56.984375 54.828125 56.984375 36.375
Q 56.984375 17.96875 50.515625 8.265625
Q 44.046875 -1.421875 31.78125 -1.421875
Q 19.53125 -1.421875 13.0625 8.265625
Q 6.59375 17.96875 6.59375 36.375
Q 6.59375 54.828125 13.0625 64.515625
Q 19.53125 74.21875 31.78125 74.21875
z
" id="DejaVuSans-48"/>
      </defs>
      <g style="fill:#4d4d4d;" transform="translate(59.187415 310.602516)scale(0.12 -0.12)">
       <use xlink:href="#DejaVuSans-48"/>
      </g>
     </g>
    </g>
    <g id="xtick_2">
     <g id="line2d_3">
      <path clip-path="url(#pa5dbbda0bf)" d="M 187.932265 296.534391
L 187.932265 30.422391
" style="fill:none;stroke:#e5e5e5;stroke-width:0.8;"/>
     </g>
     <g id="line2d_4">
      <path d="M 187.932265 296.534391
" style="fill:none;stroke:#000000;stroke-width:1.5;"/>
      <g>
       <use style="stroke:#000000;" x="187.932265" xlink:href="#m41c5f1ec01" y="296.534391"/>
      </g>
     </g>
     <g id="text_2">
      <!-- 1 -->
      <defs>
       <path d="M 12.40625 8.296875
L 28.515625 8.296875
L 28.515625 63.921875
L 10.984375 60.40625
L 10.984375 69.390625
L 28.421875 72.90625
L 38.28125 72.90625
L 38.28125 8.296875
L 54.390625 8.296875
L 54.390625 0
L 12.40625 0
z
" id="DejaVuSans-49"/>
      </defs>
      <g style="fill:#4d4d4d;" transform="translate(184.114765 310.602516)scale(0.12 -0.12)">
       <use xlink:href="#DejaVuSans-49"/>
      </g>
     </g>
    </g>
    <g id="xtick_3">
     <g id="line2d_5">
      <path clip-path="url(#pa5dbbda0bf)" d="M 312.859616 296.534391
L 312.859616 30.422391
" style="fill:none;stroke:#e5e5e5;stroke-width:0.8;"/>
     </g>
     <g id="line2d_6">
      <path d="M 312.859616 296.534391
" style="fill:none;stroke:#000000;stroke-width:1.5;"/>
      <g>
       <use style="stroke:#000000;" x="312.859616" xlink:href="#m41c5f1ec01" y="296.534391"/>
      </g>
     </g>
     <g id="text_3">
      <!-- 2 -->
      <defs>
       <path d="M 19.1875 8.296875
L 53.609375 8.296875
L 53.609375 0
L 7.328125 0
L 7.328125 8.296875
Q 12.9375 14.109375 22.625 23.890625
Q 32.328125 33.6875 34.8125 36.53125
Q 39.546875 41.84375 41.421875 45.53125
Q 43.3125 49.21875 43.3125 52.78125
Q 43.3125 58.59375 39.234375 62.25
Q 35.15625 65.921875 28.609375 65.921875
Q 23.96875 65.921875 18.8125 64.3125
Q 13.671875 62.703125 7.8125 59.421875
L 7.8125 69.390625
Q 13.765625 71.78125 18.9375 73
Q 24.125 74.21875 28.421875 74.21875
Q 39.75 74.21875 46.484375 68.546875
Q 53.21875 62.890625 53.21875 53.421875
Q 53.21875 48.921875 51.53125 44.890625
Q 49.859375 40.875 45.40625 35.40625
Q 44.1875 33.984375 37.640625 27.21875
Q 31.109375 20.453125 19.1875 8.296875
z
" id="DejaVuSans-50"/>
      </defs>
      <g style="fill:#4d4d4d;" transform="translate(309.042116 310.602516)scale(0.12 -0.12)">
       <use xlink:href="#DejaVuSans-50"/>
      </g>
     </g>
    </g>
    <g id="xtick_4">
     <g id="line2d_7">
      <path clip-path="url(#pa5dbbda0bf)" d="M 125.46859 296.534391
L 125.46859 30.422391
" style="fill:none;stroke:#fafafa;"/>
     </g>
     <g id="line2d_8">
      <path d="M 125.46859 296.534391
" style="fill:none;stroke:#000000;stroke-width:1.5;"/>
     </g>
    </g>
    <g id="xtick_5">
     <g id="line2d_9">
      <path clip-path="url(#pa5dbbda0bf)" d="M 250.39594 296.534391
L 250.39594 30.422391
" style="fill:none;stroke:#fafafa;"/>
     </g>
     <g id="line2d_10">
      <path d="M 250.39594 296.534391
" style="fill:none;stroke:#000000;stroke-width:1.5;"/>
     </g>
    </g>
    <g id="xtick_6">
     <g id="line2d_11">
      <path clip-path="url(#pa5dbbda0bf)" d="M 375.323291 296.534391
L 375.323291 30.422391
" style="fill:none;stroke:#fafafa;"/>
     </g>
     <g id="line2d_12">
      <path d="M 375.323291 296.534391
" style="fill:none;stroke:#000000;stroke-width:1.5;"/>
     </g>
    </g>
    <g id="text_4">
     <!-- -log$_{10}$(median(adjusted p-value)) -->
     <defs>
      <path d="M 4.890625 31.390625
L 31.203125 31.390625
L 31.203125 23.390625
L 4.890625 23.390625
z
" id="DejaVuSans-45"/>
      <path d="M 9.421875 75.984375
L 18.40625 75.984375
L 18.40625 0
L 9.421875 0
z
" id="DejaVuSans-108"/>
      <path d="M 30.609375 48.390625
Q 23.390625 48.390625 19.1875 42.75
Q 14.984375 37.109375 14.984375 27.296875
Q 14.984375 17.484375 19.15625 11.84375
Q 23.34375 6.203125 30.609375 6.203125
Q 37.796875 6.203125 41.984375 11.859375
Q 46.1875 17.53125 46.1875 27.296875
Q 46.1875 37.015625 41.984375 42.703125
Q 37.796875 48.390625 30.609375 48.390625
z
M 30.609375 56
Q 42.328125 56 49.015625 48.375
Q 55.71875 40.765625 55.71875 27.296875
Q 55.71875 13.875 49.015625 6.21875
Q 42.328125 -1.421875 30.609375 -1.421875
Q 18.84375 -1.421875 12.171875 6.21875
Q 5.515625 13.875 5.515625 27.296875
Q 5.515625 40.765625 12.171875 48.375
Q 18.84375 56 30.609375 56
z
" id="DejaVuSans-111"/>
      <path d="M 45.40625 27.984375
Q 45.40625 37.75 41.375 43.109375
Q 37.359375 48.484375 30.078125 48.484375
Q 22.859375 48.484375 18.828125 43.109375
Q 14.796875 37.75 14.796875 27.984375
Q 14.796875 18.265625 18.828125 12.890625
Q 22.859375 7.515625 30.078125 7.515625
Q 37.359375 7.515625 41.375 12.890625
Q 45.40625 18.265625 45.40625 27.984375
z
M 54.390625 6.78125
Q 54.390625 -7.171875 48.1875 -13.984375
Q 42 -20.796875 29.203125 -20.796875
Q 24.46875 -20.796875 20.265625 -20.09375
Q 16.0625 -19.390625 12.109375 -17.921875
L 12.109375 -9.1875
Q 16.0625 -11.328125 19.921875 -12.34375
Q 23.78125 -13.375 27.78125 -13.375
Q 36.625 -13.375 41.015625 -8.765625
Q 45.40625 -4.15625 45.40625 5.171875
L 45.40625 9.625
Q 42.625 4.78125 38.28125 2.390625
Q 33.9375 0 27.875 0
Q 17.828125 0 11.671875 7.65625
Q 5.515625 15.328125 5.515625 27.984375
Q 5.515625 40.671875 11.671875 48.328125
Q 17.828125 56 27.875 56
Q 33.9375 56 38.28125 53.609375
Q 42.625 51.21875 45.40625 46.390625
L 45.40625 54.6875
L 54.390625 54.6875
z
" id="DejaVuSans-103"/>
      <path d="M 31 75.875
Q 24.46875 64.65625 21.28125 53.65625
Q 18.109375 42.671875 18.109375 31.390625
Q 18.109375 20.125 21.3125 9.0625
Q 24.515625 -2 31 -13.1875
L 23.1875 -13.1875
Q 15.875 -1.703125 12.234375 9.375
Q 8.59375 20.453125 8.59375 31.390625
Q 8.59375 42.28125 12.203125 53.3125
Q 15.828125 64.359375 23.1875 75.875
z
" id="DejaVuSans-40"/>
      <path d="M 52 44.1875
Q 55.375 50.25 60.0625 53.125
Q 64.75 56 71.09375 56
Q 79.640625 56 84.28125 50.015625
Q 88.921875 44.046875 88.921875 33.015625
L 88.921875 0
L 79.890625 0
L 79.890625 32.71875
Q 79.890625 40.578125 77.09375 44.375
Q 74.3125 48.1875 68.609375 48.1875
Q 61.625 48.1875 57.5625 43.546875
Q 53.515625 38.921875 53.515625 30.90625
L 53.515625 0
L 44.484375 0
L 44.484375 32.71875
Q 44.484375 40.625 41.703125 44.40625
Q 38.921875 48.1875 33.109375 48.1875
Q 26.21875 48.1875 22.15625 43.53125
Q 18.109375 38.875 18.109375 30.90625
L 18.109375 0
L 9.078125 0
L 9.078125 54.6875
L 18.109375 54.6875
L 18.109375 46.1875
Q 21.1875 51.21875 25.484375 53.609375
Q 29.78125 56 35.6875 56
Q 41.65625 56 45.828125 52.96875
Q 50 49.953125 52 44.1875
z
" id="DejaVuSans-109"/>
      <path d="M 56.203125 29.59375
L 56.203125 25.203125
L 14.890625 25.203125
Q 15.484375 15.921875 20.484375 11.0625
Q 25.484375 6.203125 34.421875 6.203125
Q 39.59375 6.203125 44.453125 7.46875
Q 49.3125 8.734375 54.109375 11.28125
L 54.109375 2.78125
Q 49.265625 0.734375 44.1875 -0.34375
Q 39.109375 -1.421875 33.890625 -1.421875
Q 20.796875 -1.421875 13.15625 6.1875
Q 5.515625 13.8125 5.515625 26.8125
Q 5.515625 40.234375 12.765625 48.109375
Q 20.015625 56 32.328125 56
Q 43.359375 56 49.78125 48.890625
Q 56.203125 41.796875 56.203125 29.59375
z
M 47.21875 32.234375
Q 47.125 39.59375 43.09375 43.984375
Q 39.0625 48.390625 32.421875 48.390625
Q 24.90625 48.390625 20.390625 44.140625
Q 15.875 39.890625 15.1875 32.171875
z
" id="DejaVuSans-101"/>
      <path d="M 45.40625 46.390625
L 45.40625 75.984375
L 54.390625 75.984375
L 54.390625 0
L 45.40625 0
L 45.40625 8.203125
Q 42.578125 3.328125 38.25 0.953125
Q 33.9375 -1.421875 27.875 -1.421875
Q 17.96875 -1.421875 11.734375 6.484375
Q 5.515625 14.40625 5.515625 27.296875
Q 5.515625 40.1875 11.734375 48.09375
Q 17.96875 56 27.875 56
Q 33.9375 56 38.25 53.625
Q 42.578125 51.265625 45.40625 46.390625
z
M 14.796875 27.296875
Q 14.796875 17.390625 18.875 11.75
Q 22.953125 6.109375 30.078125 6.109375
Q 37.203125 6.109375 41.296875 11.75
Q 45.40625 17.390625 45.40625 27.296875
Q 45.40625 37.203125 41.296875 42.84375
Q 37.203125 48.484375 30.078125 48.484375
Q 22.953125 48.484375 18.875 42.84375
Q 14.796875 37.203125 14.796875 27.296875
z
" id="DejaVuSans-100"/>
      <path d="M 9.421875 54.6875
L 18.40625 54.6875
L 18.40625 0
L 9.421875 0
z
M 9.421875 75.984375
L 18.40625 75.984375
L 18.40625 64.59375
L 9.421875 64.59375
z
" id="DejaVuSans-105"/>
      <path d="M 34.28125 27.484375
Q 23.390625 27.484375 19.1875 25
Q 14.984375 22.515625 14.984375 16.5
Q 14.984375 11.71875 18.140625 8.90625
Q 21.296875 6.109375 26.703125 6.109375
Q 34.1875 6.109375 38.703125 11.40625
Q 43.21875 16.703125 43.21875 25.484375
L 43.21875 27.484375
z
M 52.203125 31.203125
L 52.203125 0
L 43.21875 0
L 43.21875 8.296875
Q 40.140625 3.328125 35.546875 0.953125
Q 30.953125 -1.421875 24.3125 -1.421875
Q 15.921875 -1.421875 10.953125 3.296875
Q 6 8.015625 6 15.921875
Q 6 25.140625 12.171875 29.828125
Q 18.359375 34.515625 30.609375 34.515625
L 43.21875 34.515625
L 43.21875 35.40625
Q 43.21875 41.609375 39.140625 45
Q 35.0625 48.390625 27.6875 48.390625
Q 23 48.390625 18.546875 47.265625
Q 14.109375 46.140625 10.015625 43.890625
L 10.015625 52.203125
Q 14.9375 54.109375 19.578125 55.046875
Q 24.21875 56 28.609375 56
Q 40.484375 56 46.34375 49.84375
Q 52.203125 43.703125 52.203125 31.203125
z
" id="DejaVuSans-97"/>
      <path d="M 54.890625 33.015625
L 54.890625 0
L 45.90625 0
L 45.90625 32.71875
Q 45.90625 40.484375 42.875 44.328125
Q 39.84375 48.1875 33.796875 48.1875
Q 26.515625 48.1875 22.3125 43.546875
Q 18.109375 38.921875 18.109375 30.90625
L 18.109375 0
L 9.078125 0
L 9.078125 54.6875
L 18.109375 54.6875
L 18.109375 46.1875
Q 21.34375 51.125 25.703125 53.5625
Q 30.078125 56 35.796875 56
Q 45.21875 56 50.046875 50.171875
Q 54.890625 44.34375 54.890625 33.015625
z
" id="DejaVuSans-110"/>
      <path d="M 9.421875 54.6875
L 18.40625 54.6875
L 18.40625 -0.984375
Q 18.40625 -11.421875 14.421875 -16.109375
Q 10.453125 -20.796875 1.609375 -20.796875
L -1.8125 -20.796875
L -1.8125 -13.1875
L 0.59375 -13.1875
Q 5.71875 -13.1875 7.5625 -10.8125
Q 9.421875 -8.453125 9.421875 -0.984375
z
M 9.421875 75.984375
L 18.40625 75.984375
L 18.40625 64.59375
L 9.421875 64.59375
z
" id="DejaVuSans-106"/>
      <path d="M 8.5 21.578125
L 8.5 54.6875
L 17.484375 54.6875
L 17.484375 21.921875
Q 17.484375 14.15625 20.5 10.265625
Q 23.53125 6.390625 29.59375 6.390625
Q 36.859375 6.390625 41.078125 11.03125
Q 45.3125 15.671875 45.3125 23.6875
L 45.3125 54.6875
L 54.296875 54.6875
L 54.296875 0
L 45.3125 0
L 45.3125 8.40625
Q 42.046875 3.421875 37.71875 1
Q 33.40625 -1.421875 27.6875 -1.421875
Q 18.265625 -1.421875 13.375 4.4375
Q 8.5 10.296875 8.5 21.578125
z
M 31.109375 56
z
" id="DejaVuSans-117"/>
      <path d="M 44.28125 53.078125
L 44.28125 44.578125
Q 40.484375 46.53125 36.375 47.5
Q 32.28125 48.484375 27.875 48.484375
Q 21.1875 48.484375 17.84375 46.4375
Q 14.5 44.390625 14.5 40.28125
Q 14.5 37.15625 16.890625 35.375
Q 19.28125 33.59375 26.515625 31.984375
L 29.59375 31.296875
Q 39.15625 29.25 43.1875 25.515625
Q 47.21875 21.78125 47.21875 15.09375
Q 47.21875 7.46875 41.1875 3.015625
Q 35.15625 -1.421875 24.609375 -1.421875
Q 20.21875 -1.421875 15.453125 -0.5625
Q 10.6875 0.296875 5.421875 2
L 5.421875 11.28125
Q 10.40625 8.6875 15.234375 7.390625
Q 20.0625 6.109375 24.8125 6.109375
Q 31.15625 6.109375 34.5625 8.28125
Q 37.984375 10.453125 37.984375 14.40625
Q 37.984375 18.0625 35.515625 20.015625
Q 33.0625 21.96875 24.703125 23.78125
L 21.578125 24.515625
Q 13.234375 26.265625 9.515625 29.90625
Q 5.8125 33.546875 5.8125 39.890625
Q 5.8125 47.609375 11.28125 51.796875
Q 16.75 56 26.8125 56
Q 31.78125 56 36.171875 55.265625
Q 40.578125 54.546875 44.28125 53.078125
z
" id="DejaVuSans-115"/>
      <path d="M 18.3125 70.21875
L 18.3125 54.6875
L 36.8125 54.6875
L 36.8125 47.703125
L 18.3125 47.703125
L 18.3125 18.015625
Q 18.3125 11.328125 20.140625 9.421875
Q 21.96875 7.515625 27.59375 7.515625
L 36.8125 7.515625
L 36.8125 0
L 27.59375 0
Q 17.1875 0 13.234375 3.875
Q 9.28125 7.765625 9.28125 18.015625
L 9.28125 47.703125
L 2.6875 47.703125
L 2.6875 54.6875
L 9.28125 54.6875
L 9.28125 70.21875
z
" id="DejaVuSans-116"/>
      <path id="DejaVuSans-32"/>
      <path d="M 18.109375 8.203125
L 18.109375 -20.796875
L 9.078125 -20.796875
L 9.078125 54.6875
L 18.109375 54.6875
L 18.109375 46.390625
Q 20.953125 51.265625 25.265625 53.625
Q 29.59375 56 35.59375 56
Q 45.5625 56 51.78125 48.09375
Q 58.015625 40.1875 58.015625 27.296875
Q 58.015625 14.40625 51.78125 6.484375
Q 45.5625 -1.421875 35.59375 -1.421875
Q 29.59375 -1.421875 25.265625 0.953125
Q 20.953125 3.328125 18.109375 8.203125
z
M 48.6875 27.296875
Q 48.6875 37.203125 44.609375 42.84375
Q 40.53125 48.484375 33.40625 48.484375
Q 26.265625 48.484375 22.1875 42.84375
Q 18.109375 37.203125 18.109375 27.296875
Q 18.109375 17.390625 22.1875 11.75
Q 26.265625 6.109375 33.40625 6.109375
Q 40.53125 6.109375 44.609375 11.75
Q 48.6875 17.390625 48.6875 27.296875
z
" id="DejaVuSans-112"/>
      <path d="M 2.984375 54.6875
L 12.5 54.6875
L 29.59375 8.796875
L 46.6875 54.6875
L 56.203125 54.6875
L 35.6875 0
L 23.484375 0
z
" id="DejaVuSans-118"/>
      <path d="M 8.015625 75.875
L 15.828125 75.875
Q 23.140625 64.359375 26.78125 53.3125
Q 30.421875 42.28125 30.421875 31.390625
Q 30.421875 20.453125 26.78125 9.375
Q 23.140625 -1.703125 15.828125 -13.1875
L 8.015625 -13.1875
Q 14.5 -2 17.703125 9.0625
Q 20.90625 20.125 20.90625 31.390625
Q 20.90625 42.671875 17.703125 53.65625
Q 14.5 64.65625 8.015625 75.875
z
" id="DejaVuSans-41"/>
     </defs>
     <g transform="translate(95.897188 328.898141)scale(0.15 -0.15)">
      <use transform="translate(0 0.015625)" xlink:href="#DejaVuSans-45"/>
      <use transform="translate(36.083984 0.015625)" xlink:href="#DejaVuSans-108"/>
      <use transform="translate(63.867188 0.015625)" xlink:href="#DejaVuSans-111"/>
      <use transform="translate(125.048828 0.015625)" xlink:href="#DejaVuSans-103"/>
      <use transform="translate(189.482422 -16.390625)scale(0.7)" xlink:href="#DejaVuSans-49"/>
      <use transform="translate(234.018555 -16.390625)scale(0.7)" xlink:href="#DejaVuSans-48"/>
      <use transform="translate(281.289062 0.015625)" xlink:href="#DejaVuSans-40"/>
      <use transform="translate(320.302734 0.015625)" xlink:href="#DejaVuSans-109"/>
      <use transform="translate(417.714844 0.015625)" xlink:href="#DejaVuSans-101"/>
      <use transform="translate(479.238281 0.015625)" xlink:href="#DejaVuSans-100"/>
      <use transform="translate(542.714844 0.015625)" xlink:href="#DejaVuSans-105"/>
      <use transform="translate(570.498047 0.015625)" xlink:href="#DejaVuSans-97"/>
      <use transform="translate(631.777344 0.015625)" xlink:href="#DejaVuSans-110"/>
      <use transform="translate(695.15625 0.015625)" xlink:href="#DejaVuSans-40"/>
      <use transform="translate(734.169922 0.015625)" xlink:href="#DejaVuSans-97"/>
      <use transform="translate(795.449219 0.015625)" xlink:href="#DejaVuSans-100"/>
      <use transform="translate(858.925781 0.015625)" xlink:href="#DejaVuSans-106"/>
      <use transform="translate(886.708984 0.015625)" xlink:href="#DejaVuSans-117"/>
      <use transform="translate(950.087891 0.015625)" xlink:href="#DejaVuSans-115"/>
      <use transform="translate(1002.1875 0.015625)" xlink:href="#DejaVuSans-116"/>
      <use transform="translate(1041.396484 0.015625)" xlink:href="#DejaVuSans-101"/>
      <use transform="translate(1102.919922 0.015625)" xlink:href="#DejaVuSans-100"/>
      <use transform="translate(1166.396484 0.015625)" xlink:href="#DejaVuSans-32"/>
      <use transform="translate(1198.183594 0.015625)" xlink:href="#DejaVuSans-112"/>
      <use transform="translate(1261.660156 0.015625)" xlink:href="#DejaVuSans-45"/>
      <use transform="translate(1297.744141 0.015625)" xlink:href="#DejaVuSans-118"/>
      <use transform="translate(1356.923828 0.015625)" xlink:href="#DejaVuSans-97"/>
      <use transform="translate(1418.203125 0.015625)" xlink:href="#DejaVuSans-108"/>
      <use transform="translate(1445.986328 0.015625)" xlink:href="#DejaVuSans-117"/>
      <use transform="translate(1509.365234 0.015625)" xlink:href="#DejaVuSans-101"/>
      <use transform="translate(1570.888672 0.015625)" xlink:href="#DejaVuSans-41"/>
      <use transform="translate(1609.902344 0.015625)" xlink:href="#DejaVuSans-41"/>
     </g>
    </g>
   </g>
   <g id="matplotlib.axis_2">
    <g id="ytick_1">
     <g id="line2d_13">
      <path clip-path="url(#pa5dbbda0bf)" d="M 46.772188 284.438391
L 403.892188 284.438391
" style="fill:none;stroke:#e5e5e5;stroke-width:0.8;"/>
     </g>
     <g id="line2d_14">
      <path d="M 46.772188 284.438391
" style="fill:none;stroke:#000000;stroke-width:1.5;"/>
      <defs>
       <path d="M 0 0
L -2.75 0
" id="m4ca734e290" style="stroke:#000000;"/>
      </defs>
      <g>
       <use style="stroke:#000000;" x="46.772188" xlink:href="#m4ca734e290" y="284.438391"/>
      </g>
     </g>
     <g id="text_5">
      <!-- 0 -->
      <g style="fill:#4d4d4d;" transform="translate(34.187188 287.749641)scale(0.12 -0.12)">
       <use xlink:href="#DejaVuSans-48"/>
      </g>
     </g>
    </g>
    <g id="ytick_2">
     <g id="line2d_15">
      <path clip-path="url(#pa5dbbda0bf)" d="M 46.772188 223.958391
L 403.892188 223.958391
" style="fill:none;stroke:#e5e5e5;stroke-width:0.8;"/>
     </g>
     <g id="line2d_16">
      <path d="M 46.772188 223.958391
" style="fill:none;stroke:#000000;stroke-width:1.5;"/>
      <g>
       <use style="stroke:#000000;" x="46.772188" xlink:href="#m4ca734e290" y="223.958391"/>
      </g>
     </g>
     <g id="text_6">
      <!-- 25 -->
      <defs>
       <path d="M 10.796875 72.90625
L 49.515625 72.90625
L 49.515625 64.59375
L 19.828125 64.59375
L 19.828125 46.734375
Q 21.96875 47.46875 24.109375 47.828125
Q 26.265625 48.1875 28.421875 48.1875
Q 40.625 48.1875 47.75 41.5
Q 54.890625 34.8125 54.890625 23.390625
Q 54.890625 11.625 47.5625 5.09375
Q 40.234375 -1.421875 26.90625 -1.421875
Q 22.3125 -1.421875 17.546875 -0.640625
Q 12.796875 0.140625 7.71875 1.703125
L 7.71875 11.625
Q 12.109375 9.234375 16.796875 8.0625
Q 21.484375 6.890625 26.703125 6.890625
Q 35.15625 6.890625 40.078125 11.328125
Q 45.015625 15.765625 45.015625 23.390625
Q 45.015625 31 40.078125 35.4375
Q 35.15625 39.890625 26.703125 39.890625
Q 22.75 39.890625 18.8125 39.015625
Q 14.890625 38.140625 10.796875 36.28125
z
" id="DejaVuSans-53"/>
      </defs>
      <g style="fill:#4d4d4d;" transform="translate(26.552188 227.269641)scale(0.12 -0.12)">
       <use xlink:href="#DejaVuSans-50"/>
       <use x="63.623047" xlink:href="#DejaVuSans-53"/>
      </g>
     </g>
    </g>
    <g id="ytick_3">
     <g id="line2d_17">
      <path clip-path="url(#pa5dbbda0bf)" d="M 46.772188 163.478391
L 403.892188 163.478391
" style="fill:none;stroke:#e5e5e5;stroke-width:0.8;"/>
     </g>
     <g id="line2d_18">
      <path d="M 46.772188 163.478391
" style="fill:none;stroke:#000000;stroke-width:1.5;"/>
      <g>
       <use style="stroke:#000000;" x="46.772188" xlink:href="#m4ca734e290" y="163.478391"/>
      </g>
     </g>
     <g id="text_7">
      <!-- 50 -->
      <g style="fill:#4d4d4d;" transform="translate(26.552188 166.789641)scale(0.12 -0.12)">
       <use xlink:href="#DejaVuSans-53"/>
       <use x="63.623047" xlink:href="#DejaVuSans-48"/>
      </g>
     </g>
    </g>
    <g id="ytick_4">
     <g id="line2d_19">
      <path clip-path="url(#pa5dbbda0bf)" d="M 46.772188 102.998391
L 403.892188 102.998391
" style="fill:none;stroke:#e5e5e5;stroke-width:0.8;"/>
     </g>
     <g id="line2d_20">
      <path d="M 46.772188 102.998391
" style="fill:none;stroke:#000000;stroke-width:1.5;"/>
      <g>
       <use style="stroke:#000000;" x="46.772188" xlink:href="#m4ca734e290" y="102.998391"/>
      </g>
     </g>
     <g id="text_8">
      <!-- 75 -->
      <defs>
       <path d="M 8.203125 72.90625
L 55.078125 72.90625
L 55.078125 68.703125
L 28.609375 0
L 18.3125 0
L 43.21875 64.59375
L 8.203125 64.59375
z
" id="DejaVuSans-55"/>
      </defs>
      <g style="fill:#4d4d4d;" transform="translate(26.552188 106.309641)scale(0.12 -0.12)">
       <use xlink:href="#DejaVuSans-55"/>
       <use x="63.623047" xlink:href="#DejaVuSans-53"/>
      </g>
     </g>
    </g>
    <g id="ytick_5">
     <g id="line2d_21">
      <path clip-path="url(#pa5dbbda0bf)" d="M 46.772188 42.518391
L 403.892188 42.518391
" style="fill:none;stroke:#e5e5e5;stroke-width:0.8;"/>
     </g>
     <g id="line2d_22">
      <path d="M 46.772188 42.518391
" style="fill:none;stroke:#000000;stroke-width:1.5;"/>
      <g>
       <use style="stroke:#000000;" x="46.772188" xlink:href="#m4ca734e290" y="42.518391"/>
      </g>
     </g>
     <g id="text_9">
      <!-- 100 -->
      <g style="fill:#4d4d4d;" transform="translate(18.917188 45.829641)scale(0.12 -0.12)">
       <use xlink:href="#DejaVuSans-49"/>
       <use x="63.623047" xlink:href="#DejaVuSans-48"/>
       <use x="127.246094" xlink:href="#DejaVuSans-48"/>
      </g>
     </g>
    </g>
    <g id="ytick_6">
     <g id="line2d_23">
      <path clip-path="url(#pa5dbbda0bf)" d="M 46.772188 254.198391
L 403.892188 254.198391
" style="fill:none;stroke:#fafafa;"/>
     </g>
     <g id="line2d_24">
      <path d="M 46.772188 254.198391
" style="fill:none;stroke:#000000;stroke-width:1.5;"/>
     </g>
    </g>
    <g id="ytick_7">
     <g id="line2d_25">
      <path clip-path="url(#pa5dbbda0bf)" d="M 46.772188 193.718391
L 403.892188 193.718391
" style="fill:none;stroke:#fafafa;"/>
     </g>
     <g id="line2d_26">
      <path d="M 46.772188 193.718391
" style="fill:none;stroke:#000000;stroke-width:1.5;"/>
     </g>
    </g>
    <g id="ytick_8">
     <g id="line2d_27">
      <path clip-path="url(#pa5dbbda0bf)" d="M 46.772188 133.238391
L 403.892188 133.238391
" style="fill:none;stroke:#fafafa;"/>
     </g>
     <g id="line2d_28">
      <path d="M 46.772188 133.238391
" style="fill:none;stroke:#000000;stroke-width:1.5;"/>
     </g>
    </g>
    <g id="ytick_9">
     <g id="line2d_29">
      <path clip-path="url(#pa5dbbda0bf)" d="M 46.772188 72.758391
L 403.892188 72.758391
" style="fill:none;stroke:#fafafa;"/>
     </g>
     <g id="line2d_30">
      <path d="M 46.772188 72.758391
" style="fill:none;stroke:#000000;stroke-width:1.5;"/>
     </g>
    </g>
    <g id="text_10">
     <!-- Commonly enriched (percentile of ranking) -->
     <defs>
      <path d="M 64.40625 67.28125
L 64.40625 56.890625
Q 59.421875 61.53125 53.78125 63.8125
Q 48.140625 66.109375 41.796875 66.109375
Q 29.296875 66.109375 22.65625 58.46875
Q 16.015625 50.828125 16.015625 36.375
Q 16.015625 21.96875 22.65625 14.328125
Q 29.296875 6.6875 41.796875 6.6875
Q 48.140625 6.6875 53.78125 8.984375
Q 59.421875 11.28125 64.40625 15.921875
L 64.40625 5.609375
Q 59.234375 2.09375 53.4375 0.328125
Q 47.65625 -1.421875 41.21875 -1.421875
Q 24.65625 -1.421875 15.125 8.703125
Q 5.609375 18.84375 5.609375 36.375
Q 5.609375 53.953125 15.125 64.078125
Q 24.65625 74.21875 41.21875 74.21875
Q 47.75 74.21875 53.53125 72.484375
Q 59.328125 70.75 64.40625 67.28125
z
" id="DejaVuSans-67"/>
      <path d="M 32.171875 -5.078125
Q 28.375 -14.84375 24.75 -17.8125
Q 21.140625 -20.796875 15.09375 -20.796875
L 7.90625 -20.796875
L 7.90625 -13.28125
L 13.1875 -13.28125
Q 16.890625 -13.28125 18.9375 -11.515625
Q 21 -9.765625 23.484375 -3.21875
L 25.09375 0.875
L 2.984375 54.6875
L 12.5 54.6875
L 29.59375 11.921875
L 46.6875 54.6875
L 56.203125 54.6875
z
" id="DejaVuSans-121"/>
      <path d="M 41.109375 46.296875
Q 39.59375 47.171875 37.8125 47.578125
Q 36.03125 48 33.890625 48
Q 26.265625 48 22.1875 43.046875
Q 18.109375 38.09375 18.109375 28.8125
L 18.109375 0
L 9.078125 0
L 9.078125 54.6875
L 18.109375 54.6875
L 18.109375 46.1875
Q 20.953125 51.171875 25.484375 53.578125
Q 30.03125 56 36.53125 56
Q 37.453125 56 38.578125 55.875
Q 39.703125 55.765625 41.0625 55.515625
z
" id="DejaVuSans-114"/>
      <path d="M 48.78125 52.59375
L 48.78125 44.1875
Q 44.96875 46.296875 41.140625 47.34375
Q 37.3125 48.390625 33.40625 48.390625
Q 24.65625 48.390625 19.8125 42.84375
Q 14.984375 37.3125 14.984375 27.296875
Q 14.984375 17.28125 19.8125 11.734375
Q 24.65625 6.203125 33.40625 6.203125
Q 37.3125 6.203125 41.140625 7.25
Q 44.96875 8.296875 48.78125 10.40625
L 48.78125 2.09375
Q 45.015625 0.34375 40.984375 -0.53125
Q 36.96875 -1.421875 32.421875 -1.421875
Q 20.0625 -1.421875 12.78125 6.34375
Q 5.515625 14.109375 5.515625 27.296875
Q 5.515625 40.671875 12.859375 48.328125
Q 20.21875 56 33.015625 56
Q 37.15625 56 41.109375 55.140625
Q 45.0625 54.296875 48.78125 52.59375
z
" id="DejaVuSans-99"/>
      <path d="M 54.890625 33.015625
L 54.890625 0
L 45.90625 0
L 45.90625 32.71875
Q 45.90625 40.484375 42.875 44.328125
Q 39.84375 48.1875 33.796875 48.1875
Q 26.515625 48.1875 22.3125 43.546875
Q 18.109375 38.921875 18.109375 30.90625
L 18.109375 0
L 9.078125 0
L 9.078125 75.984375
L 18.109375 75.984375
L 18.109375 46.1875
Q 21.34375 51.125 25.703125 53.5625
Q 30.078125 56 35.796875 56
Q 45.21875 56 50.046875 50.171875
Q 54.890625 44.34375 54.890625 33.015625
z
" id="DejaVuSans-104"/>
      <path d="M 37.109375 75.984375
L 37.109375 68.5
L 28.515625 68.5
Q 23.6875 68.5 21.796875 66.546875
Q 19.921875 64.59375 19.921875 59.515625
L 19.921875 54.6875
L 34.71875 54.6875
L 34.71875 47.703125
L 19.921875 47.703125
L 19.921875 0
L 10.890625 0
L 10.890625 47.703125
L 2.296875 47.703125
L 2.296875 54.6875
L 10.890625 54.6875
L 10.890625 58.5
Q 10.890625 67.625 15.140625 71.796875
Q 19.390625 75.984375 28.609375 75.984375
z
" id="DejaVuSans-102"/>
      <path d="M 9.078125 75.984375
L 18.109375 75.984375
L 18.109375 31.109375
L 44.921875 54.6875
L 56.390625 54.6875
L 27.390625 29.109375
L 57.625 0
L 45.90625 0
L 18.109375 26.703125
L 18.109375 0
L 9.078125 0
z
" id="DejaVuSans-107"/>
     </defs>
     <g transform="translate(11.397656 323.500781)rotate(-90)scale(0.15 -0.15)">
      <use xlink:href="#DejaVuSans-67"/>
      <use x="69.824219" xlink:href="#DejaVuSans-111"/>
      <use x="131.005859" xlink:href="#DejaVuSans-109"/>
      <use x="228.417969" xlink:href="#DejaVuSans-109"/>
      <use x="325.830078" xlink:href="#DejaVuSans-111"/>
      <use x="387.011719" xlink:href="#DejaVuSans-110"/>
      <use x="450.390625" xlink:href="#DejaVuSans-108"/>
      <use x="478.173828" xlink:href="#DejaVuSans-121"/>
      <use x="537.353516" xlink:href="#DejaVuSans-32"/>
      <use x="569.140625" xlink:href="#DejaVuSans-101"/>
      <use x="630.664062" xlink:href="#DejaVuSans-110"/>
      <use x="694.042969" xlink:href="#DejaVuSans-114"/>
      <use x="735.15625" xlink:href="#DejaVuSans-105"/>
      <use x="762.939453" xlink:href="#DejaVuSans-99"/>
      <use x="817.919922" xlink:href="#DejaVuSans-104"/>
      <use x="881.298828" xlink:href="#DejaVuSans-101"/>
      <use x="942.822266" xlink:href="#DejaVuSans-100"/>
      <use x="1006.298828" xlink:href="#DejaVuSans-32"/>
      <use x="1038.085938" xlink:href="#DejaVuSans-40"/>
      <use x="1077.099609" xlink:href="#DejaVuSans-112"/>
      <use x="1140.576172" xlink:href="#DejaVuSans-101"/>
      <use x="1202.099609" xlink:href="#DejaVuSans-114"/>
      <use x="1243.181641" xlink:href="#DejaVuSans-99"/>
      <use x="1298.162109" xlink:href="#DejaVuSans-101"/>
      <use x="1359.685547" xlink:href="#DejaVuSans-110"/>
      <use x="1423.064453" xlink:href="#DejaVuSans-116"/>
      <use x="1462.273438" xlink:href="#DejaVuSans-105"/>
      <use x="1490.056641" xlink:href="#DejaVuSans-108"/>
      <use x="1517.839844" xlink:href="#DejaVuSans-101"/>
      <use x="1579.363281" xlink:href="#DejaVuSans-32"/>
      <use x="1611.150391" xlink:href="#DejaVuSans-111"/>
      <use x="1672.332031" xlink:href="#DejaVuSans-102"/>
      <use x="1707.537109" xlink:href="#DejaVuSans-32"/>
      <use x="1739.324219" xlink:href="#DejaVuSans-114"/>
      <use x="1780.4375" xlink:href="#DejaVuSans-97"/>
      <use x="1841.716797" xlink:href="#DejaVuSans-110"/>
      <use x="1905.095703" xlink:href="#DejaVuSans-107"/>
      <use x="1963.005859" xlink:href="#DejaVuSans-105"/>
      <use x="1990.789062" xlink:href="#DejaVuSans-110"/>
      <use x="2054.167969" xlink:href="#DejaVuSans-103"/>
      <use x="2117.644531" xlink:href="#DejaVuSans-41"/>
     </g>
    </g>
   </g>
   <g id="PathCollection_1">
    <path clip-path="url(#pa5dbbda0bf)" d="M 69.292447 221.698844
C 69.762507 221.698844 70.213378 221.512088 70.545761 221.179705
C 70.878143 220.847322 71.0649 220.396451 71.0649 219.926391
C 71.0649 219.45633 70.878143 219.005459 70.545761 218.673076
C 70.213378 218.340694 69.762507 218.153937 69.292447 218.153937
C 68.822386 218.153937 68.371515 218.340694 68.039132 218.673076
C 67.70675 219.005459 67.519993 219.45633 67.519993 219.926391
C 67.519993 220.396451 67.70675 220.847322 68.039132 221.179705
C 68.371515 221.512088 68.822386 221.698844 69.292447 221.698844
z
" style="stroke:#000000;stroke-width:0.886227;"/>
    <path clip-path="url(#pa5dbbda0bf)" d="M 63.004915 286.210844
C 63.474975 286.210844 63.925846 286.024088 64.258229 285.691705
C 64.590612 285.359322 64.777369 284.908451 64.777369 284.438391
C 64.777369 283.96833 64.590612 283.517459 64.258229 283.185076
C 63.925846 282.852694 63.474975 282.665937 63.004915 282.665937
C 62.534855 282.665937 62.083983 282.852694 61.751601 283.185076
C 61.419218 283.517459 61.232461 283.96833 61.232461 284.438391
C 61.232461 284.908451 61.419218 285.359322 61.751601 285.691705
C 62.083983 286.024088 62.534855 286.210844 63.004915 286.210844
z
" style="stroke:#000000;stroke-width:0.886227;"/>
    <path clip-path="url(#pa5dbbda0bf)" d="M 69.2894 227.074844
C 69.75946 227.074844 70.210331 226.888088 70.542714 226.555705
C 70.875097 226.223322 71.061854 225.772451 71.061854 225.302391
C 71.061854 224.83233 70.875097 224.381459 70.542714 224.049076
C 70.210331 223.716694 69.75946 223.529937 69.2894 223.529937
C 68.81934 223.529937 68.368469 223.716694 68.036086 224.049076
C 67.703703 224.381459 67.516946 224.83233 67.516946 225.302391
C 67.516946 225.772451 67.703703 226.223322 68.036086 226.555705
C 68.368469 226.888088 68.81934 227.074844 69.2894 227.074844
z
" style="stroke:#000000;stroke-width:0.886227;"/>
    <path clip-path="url(#pa5dbbda0bf)" d="M 124.173403 119.554844
C 124.643463 119.554844 125.094334 119.368088 125.426717 119.035705
C 125.7591 118.703322 125.945857 118.252451 125.945857 117.782391
C 125.945857 117.31233 125.7591 116.861459 125.426717 116.529076
C 125.094334 116.196694 124.643463 116.009937 124.173403 116.009937
C 123.703343 116.009937 123.252472 116.196694 122.920089 116.529076
C 122.587706 116.861459 122.400949 117.31233 122.400949 117.782391
C 122.400949 118.252451 122.587706 118.703322 122.920089 119.035705
C 123.252472 119.368088 123.703343 119.554844 124.173403 119.554844
z
" style="stroke:#000000;stroke-width:0.886227;"/>
    <path clip-path="url(#pa5dbbda0bf)" d="M 309.397407 55.042844
C 309.867467 55.042844 310.318338 54.856088 310.650721 54.523705
C 310.983104 54.191322 311.169861 53.740451 311.169861 53.270391
C 311.169861 52.80033 310.983104 52.349459 310.650721 52.017076
C 310.318338 51.684694 309.867467 51.497937 309.397407 51.497937
C 308.927347 51.497937 308.476475 51.684694 308.144093 52.017076
C 307.81171 52.349459 307.624953 52.80033 307.624953 53.270391
C 307.624953 53.740451 307.81171 54.191322 308.144093 54.523705
C 308.476475 54.856088 308.927347 55.042844 309.397407 55.042844
z
" style="stroke:#000000;stroke-width:0.886227;"/>
    <path clip-path="url(#pa5dbbda0bf)" d="M 63.010342 259.330844
C 63.480402 259.330844 63.931273 259.144088 64.263656 258.811705
C 64.596039 258.479322 64.782796 258.028451 64.782796 257.558391
C 64.782796 257.08833 64.596039 256.637459 64.263656 256.305076
C 63.931273 255.972694 63.480402 255.785937 63.010342 255.785937
C 62.540281 255.785937 62.08941 255.972694 61.757028 256.305076
C 61.424645 256.637459 61.237888 257.08833 61.237888 257.558391
C 61.237888 258.028451 61.424645 258.479322 61.757028 258.811705
C 62.08941 259.144088 62.540281 259.330844 63.010342 259.330844
z
" style="stroke:#000000;stroke-width:0.886227;"/>
    <path clip-path="url(#pa5dbbda0bf)" d="M 63.004915 286.210844
C 63.474975 286.210844 63.925846 286.024088 64.258229 285.691705
C 64.590612 285.359322 64.777369 284.908451 64.777369 284.438391
C 64.777369 283.96833 64.590612 283.517459 64.258229 283.185076
C 63.925846 282.852694 63.474975 282.665937 63.004915 282.665937
C 62.534855 282.665937 62.083983 282.852694 61.751601 283.185076
C 61.419218 283.517459 61.232461 283.96833 61.232461 284.438391
C 61.232461 284.908451 61.419218 285.359322 61.751601 285.691705
C 62.083983 286.024088 62.534855 286.210844 63.004915 286.210844
z
" style="stroke:#000000;stroke-width:0.886227;"/>
    <path clip-path="url(#pa5dbbda0bf)" d="M 71.491103 205.570844
C 71.961163 205.570844 72.412034 205.384088 72.744417 205.051705
C 73.0768 204.719322 73.263556 204.268451 73.263556 203.798391
C 73.263556 203.32833 73.0768 202.877459 72.744417 202.545076
C 72.412034 202.212694 71.961163 202.025937 71.491103 202.025937
C 71.021042 202.025937 70.570171 202.212694 70.237788 202.545076
C 69.905406 202.877459 69.718649 203.32833 69.718649 203.798391
C 69.718649 204.268451 69.905406 204.719322 70.237788 205.051705
C 70.570171 205.384088 71.021042 205.570844 71.491103 205.570844
z
" style="stroke:#000000;stroke-width:0.886227;"/>
    <path clip-path="url(#pa5dbbda0bf)" d="M 65.104942 248.578844
C 65.575002 248.578844 66.025873 248.392088 66.358256 248.059705
C 66.690639 247.727322 66.877396 247.276451 66.877396 246.806391
C 66.877396 246.33633 66.690639 245.885459 66.358256 245.553076
C 66.025873 245.220694 65.575002 245.033937 65.104942 245.033937
C 64.634882 245.033937 64.184011 245.220694 63.851628 245.553076
C 63.519245 245.885459 63.332488 246.33633 63.332488 246.806391
C 63.332488 247.276451 63.519245 247.727322 63.851628 248.059705
C 64.184011 248.392088 64.634882 248.578844 65.104942 248.578844
z
" style="stroke:#000000;stroke-width:0.886227;"/>
    <path clip-path="url(#pa5dbbda0bf)" d="M 387.65946 44.290844
C 388.12952 44.290844 388.580392 44.104088 388.912774 43.771705
C 389.245157 43.439322 389.431914 42.988451 389.431914 42.518391
C 389.431914 42.04833 389.245157 41.597459 388.912774 41.265076
C 388.580392 40.932694 388.12952 40.745937 387.65946 40.745937
C 387.1894 40.745937 386.738529 40.932694 386.406146 41.265076
C 386.073763 41.597459 385.887006 42.04833 385.887006 42.518391
C 385.887006 42.988451 386.073763 43.439322 386.406146 43.771705
C 386.738529 44.104088 387.1894 44.290844 387.65946 44.290844
z
" style="stroke:#000000;stroke-width:0.886227;"/>
    <path clip-path="url(#pa5dbbda0bf)" d="M 98.440491 162.562844
C 98.910552 162.562844 99.361423 162.376088 99.693805 162.043705
C 100.026188 161.711322 100.212945 161.260451 100.212945 160.790391
C 100.212945 160.32033 100.026188 159.869459 99.693805 159.537076
C 99.361423 159.204694 98.910552 159.017937 98.440491 159.017937
C 97.970431 159.017937 97.51956 159.204694 97.187177 159.537076
C 96.854794 159.869459 96.668037 160.32033 96.668037 160.790391
C 96.668037 161.260451 96.854794 161.711322 97.187177 162.043705
C 97.51956 162.376088 97.970431 162.562844 98.440491 162.562844
z
" style="stroke:#000000;stroke-width:0.886227;"/>
    <path clip-path="url(#pa5dbbda0bf)" d="M 103.651202 130.306844
C 104.121263 130.306844 104.572134 130.120088 104.904516 129.787705
C 105.236899 129.455322 105.423656 129.004451 105.423656 128.534391
C 105.423656 128.06433 105.236899 127.613459 104.904516 127.281076
C 104.572134 126.948694 104.121263 126.761937 103.651202 126.761937
C 103.181142 126.761937 102.730271 126.948694 102.397888 127.281076
C 102.065505 127.613459 101.878748 128.06433 101.878748 128.534391
C 101.878748 129.004451 102.065505 129.455322 102.397888 129.787705
C 102.730271 130.120088 103.181142 130.306844 103.651202 130.306844
z
" style="stroke:#000000;stroke-width:0.886227;"/>
    <path clip-path="url(#pa5dbbda0bf)" d="M 63.004915 286.210844
C 63.474975 286.210844 63.925846 286.024088 64.258229 285.691705
C 64.590612 285.359322 64.777369 284.908451 64.777369 284.438391
C 64.777369 283.96833 64.590612 283.517459 64.258229 283.185076
C 63.925846 282.852694 63.474975 282.665937 63.004915 282.665937
C 62.534855 282.665937 62.083983 282.852694 61.751601 283.185076
C 61.419218 283.517459 61.232461 283.96833 61.232461 284.438391
C 61.232461 284.908451 61.419218 285.359322 61.751601 285.691705
C 62.083983 286.024088 62.534855 286.210844 63.004915 286.210844
z
" style="stroke:#000000;stroke-width:0.886227;"/>
    <path clip-path="url(#pa5dbbda0bf)" d="M 66.867556 243.202844
C 67.337617 243.202844 67.788488 243.016088 68.120871 242.683705
C 68.453253 242.351322 68.64001 241.900451 68.64001 241.430391
C 68.64001 240.96033 68.453253 240.509459 68.120871 240.177076
C 67.788488 239.844694 67.337617 239.657937 66.867556 239.657937
C 66.397496 239.657937 65.946625 239.844694 65.614242 240.177076
C 65.281859 240.509459 65.095103 240.96033 65.095103 241.430391
C 65.095103 241.900451 65.281859 242.351322 65.614242 242.683705
C 65.946625 243.016088 66.397496 243.202844 66.867556 243.202844
z
" style="stroke:#000000;stroke-width:0.886227;"/>
    <path clip-path="url(#pa5dbbda0bf)" d="M 63.004915 286.210844
C 63.474975 286.210844 63.925846 286.024088 64.258229 285.691705
C 64.590612 285.359322 64.777369 284.908451 64.777369 284.438391
C 64.777369 283.96833 64.590612 283.517459 64.258229 283.185076
C 63.925846 282.852694 63.474975 282.665937 63.004915 282.665937
C 62.534855 282.665937 62.083983 282.852694 61.751601 283.185076
C 61.419218 283.517459 61.232461 283.96833 61.232461 284.438391
C 61.232461 284.908451 61.419218 285.359322 61.751601 285.691705
C 62.083983 286.024088 62.534855 286.210844 63.004915 286.210844
z
" style="stroke:#000000;stroke-width:0.886227;"/>
    <path clip-path="url(#pa5dbbda0bf)" d="M 361.238928 49.666844
C 361.708988 49.666844 362.159859 49.480088 362.492242 49.147705
C 362.824625 48.815322 363.011381 48.364451 363.011381 47.894391
C 363.011381 47.42433 362.824625 46.973459 362.492242 46.641076
C 362.159859 46.308694 361.708988 46.121937 361.238928 46.121937
C 360.768867 46.121937 360.317996 46.308694 359.985614 46.641076
C 359.653231 46.973459 359.466474 47.42433 359.466474 47.894391
C 359.466474 48.364451 359.653231 48.815322 359.985614 49.147705
C 360.317996 49.480088 360.768867 49.666844 361.238928 49.666844
z
" style="stroke:#000000;stroke-width:0.886227;"/>
    <path clip-path="url(#pa5dbbda0bf)" d="M 63.004915 286.210844
C 63.474975 286.210844 63.925846 286.024088 64.258229 285.691705
C 64.590612 285.359322 64.777369 284.908451 64.777369 284.438391
C 64.777369 283.96833 64.590612 283.517459 64.258229 283.185076
C 63.925846 282.852694 63.474975 282.665937 63.004915 282.665937
C 62.534855 282.665937 62.083983 282.852694 61.751601 283.185076
C 61.419218 283.517459 61.232461 283.96833 61.232461 284.438391
C 61.232461 284.908451 61.419218 285.359322 61.751601 285.691705
C 62.083983 286.024088 62.534855 286.210844 63.004915 286.210844
z
" style="stroke:#000000;stroke-width:0.886227;"/>
    <path clip-path="url(#pa5dbbda0bf)" d="M 69.670546 216.322844
C 70.140607 216.322844 70.591478 216.136088 70.923861 215.803705
C 71.256243 215.471322 71.443 215.020451 71.443 214.550391
C 71.443 214.08033 71.256243 213.629459 70.923861 213.297076
C 70.591478 212.964694 70.140607 212.777937 69.670546 212.777937
C 69.200486 212.777937 68.749615 212.964694 68.417232 213.297076
C 68.084849 213.629459 67.898093 214.08033 67.898093 214.550391
C 67.898093 215.020451 68.084849 215.471322 68.417232 215.803705
C 68.749615 216.136088 69.200486 216.322844 69.670546 216.322844
z
" style="stroke:#000000;stroke-width:0.886227;"/>
    <path clip-path="url(#pa5dbbda0bf)" d="M 180.625443 76.546844
C 181.095504 76.546844 181.546375 76.360088 181.878758 76.027705
C 182.21114 75.695322 182.397897 75.244451 182.397897 74.774391
C 182.397897 74.30433 182.21114 73.853459 181.878758 73.521076
C 181.546375 73.188694 181.095504 73.001937 180.625443 73.001937
C 180.155383 73.001937 179.704512 73.188694 179.372129 73.521076
C 179.039746 73.853459 178.85299 74.30433 178.85299 74.774391
C 178.85299 75.244451 179.039746 75.695322 179.372129 76.027705
C 179.704512 76.360088 180.155383 76.546844 180.625443 76.546844
z
" style="stroke:#000000;stroke-width:0.886227;"/>
    <path clip-path="url(#pa5dbbda0bf)" d="M 94.65772 167.938844
C 95.127781 167.938844 95.578652 167.752088 95.911034 167.419705
C 96.243417 167.087322 96.430174 166.636451 96.430174 166.166391
C 96.430174 165.69633 96.243417 165.245459 95.911034 164.913076
C 95.578652 164.580694 95.127781 164.393937 94.65772 164.393937
C 94.18766 164.393937 93.736789 164.580694 93.404406 164.913076
C 93.072023 165.245459 92.885267 165.69633 92.885267 166.166391
C 92.885267 166.636451 93.072023 167.087322 93.404406 167.419705
C 93.736789 167.752088 94.18766 167.938844 94.65772 167.938844
z
" style="stroke:#000000;stroke-width:0.886227;"/>
    <path clip-path="url(#pa5dbbda0bf)" d="M 124.67629 108.802844
C 125.14635 108.802844 125.597221 108.616088 125.929604 108.283705
C 126.261987 107.951322 126.448744 107.500451 126.448744 107.030391
C 126.448744 106.56033 126.261987 106.109459 125.929604 105.777076
C 125.597221 105.444694 125.14635 105.257937 124.67629 105.257937
C 124.20623 105.257937 123.755359 105.444694 123.422976 105.777076
C 123.090593 106.109459 122.903836 106.56033 122.903836 107.030391
C 122.903836 107.500451 123.090593 107.951322 123.422976 108.283705
C 123.755359 108.616088 124.20623 108.802844 124.67629 108.802844
z
" style="stroke:#000000;stroke-width:0.886227;"/>
    <path clip-path="url(#pa5dbbda0bf)" d="M 63.004915 286.210844
C 63.474975 286.210844 63.925846 286.024088 64.258229 285.691705
C 64.590612 285.359322 64.777369 284.908451 64.777369 284.438391
C 64.777369 283.96833 64.590612 283.517459 64.258229 283.185076
C 63.925846 282.852694 63.474975 282.665937 63.004915 282.665937
C 62.534855 282.665937 62.083983 282.852694 61.751601 283.185076
C 61.419218 283.517459 61.232461 283.96833 61.232461 284.438391
C 61.232461 284.908451 61.419218 285.359322 61.751601 285.691705
C 62.083983 286.024088 62.534855 286.210844 63.004915 286.210844
z
" style="stroke:#000000;stroke-width:0.886227;"/>
    <path clip-path="url(#pa5dbbda0bf)" d="M 99.297369 151.810844
C 99.767429 151.810844 100.2183 151.624088 100.550683 151.291705
C 100.883066 150.959322 101.069823 150.508451 101.069823 150.038391
C 101.069823 149.56833 100.883066 149.117459 100.550683 148.785076
C 100.2183 148.452694 99.767429 148.265937 99.297369 148.265937
C 98.827309 148.265937 98.376437 148.452694 98.044055 148.785076
C 97.711672 149.117459 97.524915 149.56833 97.524915 150.038391
C 97.524915 150.508451 97.711672 150.959322 98.044055 151.291705
C 98.376437 151.624088 98.827309 151.810844 99.297369 151.810844
z
" style="stroke:#000000;stroke-width:0.886227;"/>
    <path clip-path="url(#pa5dbbda0bf)" d="M 103.13288 135.682844
C 103.60294 135.682844 104.053812 135.496088 104.386194 135.163705
C 104.718577 134.831322 104.905334 134.380451 104.905334 133.910391
C 104.905334 133.44033 104.718577 132.989459 104.386194 132.657076
C 104.053812 132.324694 103.60294 132.137937 103.13288 132.137937
C 102.66282 132.137937 102.211949 132.324694 101.879566 132.657076
C 101.547183 132.989459 101.360426 133.44033 101.360426 133.910391
C 101.360426 134.380451 101.547183 134.831322 101.879566 135.163705
C 102.211949 135.496088 102.66282 135.682844 103.13288 135.682844
z
" style="stroke:#000000;stroke-width:0.886227;"/>
    <path clip-path="url(#pa5dbbda0bf)" d="M 162.44129 81.922844
C 162.91135 81.922844 163.362221 81.736088 163.694604 81.403705
C 164.026987 81.071322 164.213744 80.620451 164.213744 80.150391
C 164.213744 79.68033 164.026987 79.229459 163.694604 78.897076
C 163.362221 78.564694 162.91135 78.377937 162.44129 78.377937
C 161.971229 78.377937 161.520358 78.564694 161.187976 78.897076
C 160.855593 79.229459 160.668836 79.68033 160.668836 80.150391
C 160.668836 80.620451 160.855593 81.071322 161.187976 81.403705
C 161.520358 81.736088 161.971229 81.922844 162.44129 81.922844
z
" style="stroke:#000000;stroke-width:0.886227;"/>
    <path clip-path="url(#pa5dbbda0bf)" d="M 189.826941 65.794844
C 190.297001 65.794844 190.747872 65.608088 191.080255 65.275705
C 191.412638 64.943322 191.599395 64.492451 191.599395 64.022391
C 191.599395 63.55233 191.412638 63.101459 191.080255 62.769076
C 190.747872 62.436694 190.297001 62.249937 189.826941 62.249937
C 189.35688 62.249937 188.906009 62.436694 188.573627 62.769076
C 188.241244 63.101459 188.054487 63.55233 188.054487 64.022391
C 188.054487 64.492451 188.241244 64.943322 188.573627 65.275705
C 188.906009 65.608088 189.35688 65.794844 189.826941 65.794844
z
" style="stroke:#000000;stroke-width:0.886227;"/>
    <path clip-path="url(#pa5dbbda0bf)" d="M 148.401239 92.674844
C 148.871299 92.674844 149.32217 92.488088 149.654553 92.155705
C 149.986936 91.823322 150.173693 91.372451 150.173693 90.902391
C 150.173693 90.43233 149.986936 89.981459 149.654553 89.649076
C 149.32217 89.316694 148.871299 89.129937 148.401239 89.129937
C 147.931179 89.129937 147.480308 89.316694 147.147925 89.649076
C 146.815542 89.981459 146.628785 90.43233 146.628785 90.902391
C 146.628785 91.372451 146.815542 91.823322 147.147925 92.155705
C 147.480308 92.488088 147.931179 92.674844 148.401239 92.674844
z
" style="stroke:#000000;stroke-width:0.886227;"/>
    <path clip-path="url(#pa5dbbda0bf)" d="M 190.839369 60.418844
C 191.30943 60.418844 191.760301 60.232088 192.092683 59.899705
C 192.425066 59.567322 192.611823 59.116451 192.611823 58.646391
C 192.611823 58.17633 192.425066 57.725459 192.092683 57.393076
C 191.760301 57.060694 191.30943 56.873937 190.839369 56.873937
C 190.369309 56.873937 189.918438 57.060694 189.586055 57.393076
C 189.253672 57.725459 189.066915 58.17633 189.066915 58.646391
C 189.066915 59.116451 189.253672 59.567322 189.586055 59.899705
C 189.918438 60.232088 190.369309 60.418844 190.839369 60.418844
z
" style="stroke:#000000;stroke-width:0.886227;"/>
    <path clip-path="url(#pa5dbbda0bf)" d="M 64.548066 253.954844
C 65.018126 253.954844 65.468997 253.768088 65.80138 253.435705
C 66.133763 253.103322 66.32052 252.652451 66.32052 252.182391
C 66.32052 251.71233 66.133763 251.261459 65.80138 250.929076
C 65.468997 250.596694 65.018126 250.409937 64.548066 250.409937
C 64.078006 250.409937 63.627135 250.596694 63.294752 250.929076
C 62.962369 251.261459 62.775612 251.71233 62.775612 252.182391
C 62.775612 252.652451 62.962369 253.103322 63.294752 253.435705
C 63.627135 253.768088 64.078006 253.954844 64.548066 253.954844
z
" style="stroke:#000000;stroke-width:0.886227;"/>
    <path clip-path="url(#pa5dbbda0bf)" d="M 72.230472 194.818844
C 72.700532 194.818844 73.151403 194.632088 73.483786 194.299705
C 73.816169 193.967322 74.002926 193.516451 74.002926 193.046391
C 74.002926 192.57633 73.816169 192.125459 73.483786 191.793076
C 73.151403 191.460694 72.700532 191.273937 72.230472 191.273937
C 71.760412 191.273937 71.309541 191.460694 70.977158 191.793076
C 70.644775 192.125459 70.458018 192.57633 70.458018 193.046391
C 70.458018 193.516451 70.644775 193.967322 70.977158 194.299705
C 71.309541 194.632088 71.760412 194.818844 72.230472 194.818844
z
" style="stroke:#000000;stroke-width:0.886227;"/>
    <path clip-path="url(#pa5dbbda0bf)" d="M 89.357768 178.690844
C 89.827828 178.690844 90.278699 178.504088 90.611082 178.171705
C 90.943465 177.839322 91.130222 177.388451 91.130222 176.918391
C 91.130222 176.44833 90.943465 175.997459 90.611082 175.665076
C 90.278699 175.332694 89.827828 175.145937 89.357768 175.145937
C 88.887708 175.145937 88.436837 175.332694 88.104454 175.665076
C 87.772071 175.997459 87.585314 176.44833 87.585314 176.918391
C 87.585314 177.388451 87.772071 177.839322 88.104454 178.171705
C 88.436837 178.504088 88.887708 178.690844 89.357768 178.690844
z
" style="stroke:#000000;stroke-width:0.886227;"/>
    <path clip-path="url(#pa5dbbda0bf)" d="M 73.176336 189.442844
C 73.646396 189.442844 74.097267 189.256088 74.42965 188.923705
C 74.762033 188.591322 74.94879 188.140451 74.94879 187.670391
C 74.94879 187.20033 74.762033 186.749459 74.42965 186.417076
C 74.097267 186.084694 73.646396 185.897937 73.176336 185.897937
C 72.706276 185.897937 72.255405 186.084694 71.923022 186.417076
C 71.590639 186.749459 71.403882 187.20033 71.403882 187.670391
C 71.403882 188.140451 71.590639 188.591322 71.923022 188.923705
C 72.255405 189.256088 72.706276 189.442844 73.176336 189.442844
z
" style="stroke:#000000;stroke-width:0.886227;"/>
    <path clip-path="url(#pa5dbbda0bf)" d="M 71.727726 200.194844
C 72.197787 200.194844 72.648658 200.008088 72.981041 199.675705
C 73.313423 199.343322 73.50018 198.892451 73.50018 198.422391
C 73.50018 197.95233 73.313423 197.501459 72.981041 197.169076
C 72.648658 196.836694 72.197787 196.649937 71.727726 196.649937
C 71.257666 196.649937 70.806795 196.836694 70.474412 197.169076
C 70.142029 197.501459 69.955273 197.95233 69.955273 198.422391
C 69.955273 198.892451 70.142029 199.343322 70.474412 199.675705
C 70.806795 200.008088 71.257666 200.194844 71.727726 200.194844
z
" style="stroke:#000000;stroke-width:0.886227;"/>
    <path clip-path="url(#pa5dbbda0bf)" d="M 105.253549 124.930844
C 105.723609 124.930844 106.174481 124.744088 106.506863 124.411705
C 106.839246 124.079322 107.026003 123.628451 107.026003 123.158391
C 107.026003 122.68833 106.839246 122.237459 106.506863 121.905076
C 106.174481 121.572694 105.723609 121.385937 105.253549 121.385937
C 104.783489 121.385937 104.332618 121.572694 104.000235 121.905076
C 103.667852 122.237459 103.481095 122.68833 103.481095 123.158391
C 103.481095 123.628451 103.667852 124.079322 104.000235 124.411705
C 104.332618 124.744088 104.783489 124.930844 105.253549 124.930844
z
" style="stroke:#000000;stroke-width:0.886227;"/>
    <path clip-path="url(#pa5dbbda0bf)" d="M 68.73261 232.450844
C 69.20267 232.450844 69.653541 232.264088 69.985924 231.931705
C 70.318306 231.599322 70.505063 231.148451 70.505063 230.678391
C 70.505063 230.20833 70.318306 229.757459 69.985924 229.425076
C 69.653541 229.092694 69.20267 228.905937 68.73261 228.905937
C 68.262549 228.905937 67.811678 229.092694 67.479295 229.425076
C 67.146913 229.757459 66.960156 230.20833 66.960156 230.678391
C 66.960156 231.148451 67.146913 231.599322 67.479295 231.931705
C 67.811678 232.264088 68.262549 232.450844 68.73261 232.450844
z
" style="stroke:#000000;stroke-width:0.886227;"/>
    <path clip-path="url(#pa5dbbda0bf)" d="M 100.611795 141.058844
C 101.081855 141.058844 101.532726 140.872088 101.865109 140.539705
C 102.197491 140.207322 102.384248 139.756451 102.384248 139.286391
C 102.384248 138.81633 102.197491 138.365459 101.865109 138.033076
C 101.532726 137.700694 101.081855 137.513937 100.611795 137.513937
C 100.141734 137.513937 99.690863 137.700694 99.35848 138.033076
C 99.026098 138.365459 98.839341 138.81633 98.839341 139.286391
C 98.839341 139.756451 99.026098 140.207322 99.35848 140.539705
C 99.690863 140.872088 100.141734 141.058844 100.611795 141.058844
z
" style="stroke:#000000;stroke-width:0.886227;"/>
    <path clip-path="url(#pa5dbbda0bf)" d="M 99.997412 146.434844
C 100.467472 146.434844 100.918343 146.248088 101.250726 145.915705
C 101.583109 145.583322 101.769866 145.132451 101.769866 144.662391
C 101.769866 144.19233 101.583109 143.741459 101.250726 143.409076
C 100.918343 143.076694 100.467472 142.889937 99.997412 142.889937
C 99.527352 142.889937 99.076481 143.076694 98.744098 143.409076
C 98.411715 143.741459 98.224958 144.19233 98.224958 144.662391
C 98.224958 145.132451 98.411715 145.583322 98.744098 145.915705
C 99.076481 146.248088 99.527352 146.434844 99.997412 146.434844
z
" style="stroke:#000000;stroke-width:0.886227;"/>
    <path clip-path="url(#pa5dbbda0bf)" d="M 124.57709 114.178844
C 125.04715 114.178844 125.498022 113.992088 125.830404 113.659705
C 126.162787 113.327322 126.349544 112.876451 126.349544 112.406391
C 126.349544 111.93633 126.162787 111.485459 125.830404 111.153076
C 125.498022 110.820694 125.04715 110.633937 124.57709 110.633937
C 124.10703 110.633937 123.656159 110.820694 123.323776 111.153076
C 122.991393 111.485459 122.804636 111.93633 122.804636 112.406391
C 122.804636 112.876451 122.991393 113.327322 123.323776 113.659705
C 123.656159 113.992088 124.10703 114.178844 124.57709 114.178844
z
" style="stroke:#000000;stroke-width:0.886227;"/>
    <path clip-path="url(#pa5dbbda0bf)" d="M 182.324273 71.170844
C 182.794333 71.170844 183.245204 70.984088 183.577587 70.651705
C 183.90997 70.319322 184.096727 69.868451 184.096727 69.398391
C 184.096727 68.92833 183.90997 68.477459 183.577587 68.145076
C 183.245204 67.812694 182.794333 67.625937 182.324273 67.625937
C 181.854212 67.625937 181.403341 67.812694 181.070959 68.145076
C 180.738576 68.477459 180.551819 68.92833 180.551819 69.398391
C 180.551819 69.868451 180.738576 70.319322 181.070959 70.651705
C 181.403341 70.984088 181.854212 71.170844 182.324273 71.170844
z
" style="stroke:#000000;stroke-width:0.886227;"/>
    <path clip-path="url(#pa5dbbda0bf)" d="M 63.004915 286.210844
C 63.474975 286.210844 63.925846 286.024088 64.258229 285.691705
C 64.590612 285.359322 64.777369 284.908451 64.777369 284.438391
C 64.777369 283.96833 64.590612 283.517459 64.258229 283.185076
C 63.925846 282.852694 63.474975 282.665937 63.004915 282.665937
C 62.534855 282.665937 62.083983 282.852694 61.751601 283.185076
C 61.419218 283.517459 61.232461 283.96833 61.232461 284.438391
C 61.232461 284.908451 61.419218 285.359322 61.751601 285.691705
C 62.083983 286.024088 62.534855 286.210844 63.004915 286.210844
z
" style="stroke:#000000;stroke-width:0.886227;"/>
    <path clip-path="url(#pa5dbbda0bf)" d="M 66.950391 237.826844
C 67.420452 237.826844 67.871323 237.640088 68.203706 237.307705
C 68.536088 236.975322 68.722845 236.524451 68.722845 236.054391
C 68.722845 235.58433 68.536088 235.133459 68.203706 234.801076
C 67.871323 234.468694 67.420452 234.281937 66.950391 234.281937
C 66.480331 234.281937 66.02946 234.468694 65.697077 234.801076
C 65.364694 235.133459 65.177938 235.58433 65.177938 236.054391
C 65.177938 236.524451 65.364694 236.975322 65.697077 237.307705
C 66.02946 237.640088 66.480331 237.826844 66.950391 237.826844
z
" style="stroke:#000000;stroke-width:0.886227;"/>
    <path clip-path="url(#pa5dbbda0bf)" d="M 90.624077 173.314844
C 91.094138 173.314844 91.545009 173.128088 91.877391 172.795705
C 92.209774 172.463322 92.396531 172.012451 92.396531 171.542391
C 92.396531 171.07233 92.209774 170.621459 91.877391 170.289076
C 91.545009 169.956694 91.094138 169.769937 90.624077 169.769937
C 90.154017 169.769937 89.703146 169.956694 89.370763 170.289076
C 89.03838 170.621459 88.851623 171.07233 88.851623 171.542391
C 88.851623 172.012451 89.03838 172.463322 89.370763 172.795705
C 89.703146 173.128088 90.154017 173.314844 90.624077 173.314844
z
" style="stroke:#000000;stroke-width:0.886227;"/>
    <path clip-path="url(#pa5dbbda0bf)" d="M 74.198761 184.066844
C 74.668821 184.066844 75.119692 183.880088 75.452075 183.547705
C 75.784458 183.215322 75.971215 182.764451 75.971215 182.294391
C 75.971215 181.82433 75.784458 181.373459 75.452075 181.041076
C 75.119692 180.708694 74.668821 180.521937 74.198761 180.521937
C 73.7287 180.521937 73.277829 180.708694 72.945447 181.041076
C 72.613064 181.373459 72.426307 181.82433 72.426307 182.294391
C 72.426307 182.764451 72.613064 183.215322 72.945447 183.547705
C 73.277829 183.880088 73.7287 184.066844 74.198761 184.066844
z
" style="stroke:#000000;stroke-width:0.886227;"/>
    <path clip-path="url(#pa5dbbda0bf)" d="M 152.0328 87.298844
C 152.50286 87.298844 152.953731 87.112088 153.286114 86.779705
C 153.618497 86.447322 153.805253 85.996451 153.805253 85.526391
C 153.805253 85.05633 153.618497 84.605459 153.286114 84.273076
C 152.953731 83.940694 152.50286 83.753937 152.0328 83.753937
C 151.562739 83.753937 151.111868 83.940694 150.779485 84.273076
C 150.447103 84.605459 150.260346 85.05633 150.260346 85.526391
C 150.260346 85.996451 150.447103 86.447322 150.779485 86.779705
C 151.111868 87.112088 151.562739 87.298844 152.0328 87.298844
z
" style="stroke:#000000;stroke-width:0.886227;"/>
    <path clip-path="url(#pa5dbbda0bf)" d="M 98.82179 157.186844
C 99.291851 157.186844 99.742722 157.000088 100.075105 156.667705
C 100.407487 156.335322 100.594244 155.884451 100.594244 155.414391
C 100.594244 154.94433 100.407487 154.493459 100.075105 154.161076
C 99.742722 153.828694 99.291851 153.641937 98.82179 153.641937
C 98.35173 153.641937 97.900859 153.828694 97.568476 154.161076
C 97.236094 154.493459 97.049337 154.94433 97.049337 155.414391
C 97.049337 155.884451 97.236094 156.335322 97.568476 156.667705
C 97.900859 157.000088 98.35173 157.186844 98.82179 157.186844
z
" style="stroke:#000000;stroke-width:0.886227;"/>
    <path clip-path="url(#pa5dbbda0bf)" d="M 63.004915 286.210844
C 63.474975 286.210844 63.925846 286.024088 64.258229 285.691705
C 64.590612 285.359322 64.777369 284.908451 64.777369 284.438391
C 64.777369 283.96833 64.590612 283.517459 64.258229 283.185076
C 63.925846 282.852694 63.474975 282.665937 63.004915 282.665937
C 62.534855 282.665937 62.083983 282.852694 61.751601 283.185076
C 61.419218 283.517459 61.232461 283.96833 61.232461 284.438391
C 61.232461 284.908451 61.419218 285.359322 61.751601 285.691705
C 62.083983 286.024088 62.534855 286.210844 63.004915 286.210844
z
" style="stroke:#000000;stroke-width:0.886227;"/>
    <path clip-path="url(#pa5dbbda0bf)" d="M 63.004915 286.210844
C 63.474975 286.210844 63.925846 286.024088 64.258229 285.691705
C 64.590612 285.359322 64.777369 284.908451 64.777369 284.438391
C 64.777369 283.96833 64.590612 283.517459 64.258229 283.185076
C 63.925846 282.852694 63.474975 282.665937 63.004915 282.665937
C 62.534855 282.665937 62.083983 282.852694 61.751601 283.185076
C 61.419218 283.517459 61.232461 283.96833 61.232461 284.438391
C 61.232461 284.908451 61.419218 285.359322 61.751601 285.691705
C 62.083983 286.024088 62.534855 286.210844 63.004915 286.210844
z
" style="stroke:#000000;stroke-width:0.886227;"/>
    <path clip-path="url(#pa5dbbda0bf)" d="M 71.264897 210.946844
C 71.734957 210.946844 72.185828 210.760088 72.518211 210.427705
C 72.850594 210.095322 73.037351 209.644451 73.037351 209.174391
C 73.037351 208.70433 72.850594 208.253459 72.518211 207.921076
C 72.185828 207.588694 71.734957 207.401937 71.264897 207.401937
C 70.794837 207.401937 70.343966 207.588694 70.011583 207.921076
C 69.6792 208.253459 69.492443 208.70433 69.492443 209.174391
C 69.492443 209.644451 69.6792 210.095322 70.011583 210.427705
C 70.343966 210.760088 70.794837 210.946844 71.264897 210.946844
z
" style="stroke:#000000;stroke-width:0.886227;"/>
    <path clip-path="url(#pa5dbbda0bf)" d="M 126.718462 103.426844
C 127.188523 103.426844 127.639394 103.240088 127.971777 102.907705
C 128.304159 102.575322 128.490916 102.124451 128.490916 101.654391
C 128.490916 101.18433 128.304159 100.733459 127.971777 100.401076
C 127.639394 100.068694 127.188523 99.881937 126.718462 99.881937
C 126.248402 99.881937 125.797531 100.068694 125.465148 100.401076
C 125.132766 100.733459 124.946009 101.18433 124.946009 101.654391
C 124.946009 102.124451 125.132766 102.575322 125.465148 102.907705
C 125.797531 103.240088 126.248402 103.426844 126.718462 103.426844
z
" style="stroke:#000000;stroke-width:0.886227;"/>
    <path clip-path="url(#pa5dbbda0bf)" d="M 145.497589 98.050844
C 145.967649 98.050844 146.41852 97.864088 146.750903 97.531705
C 147.083286 97.199322 147.270043 96.748451 147.270043 96.278391
C 147.270043 95.80833 147.083286 95.357459 146.750903 95.025076
C 146.41852 94.692694 145.967649 94.505937 145.497589 94.505937
C 145.027529 94.505937 144.576657 94.692694 144.244275 95.025076
C 143.911892 95.357459 143.725135 95.80833 143.725135 96.278391
C 143.725135 96.748451 143.911892 97.199322 144.244275 97.531705
C 144.576657 97.864088 145.027529 98.050844 145.497589 98.050844
z
" style="stroke:#000000;stroke-width:0.886227;"/>
   </g>
   <g id="PathCollection_2">
    <path clip-path="url(#pa5dbbda0bf)" d="M 309.397407 55.042844
C 309.867467 55.042844 310.318338 54.856088 310.650721 54.523705
C 310.983104 54.191322 311.169861 53.740451 311.169861 53.270391
C 311.169861 52.80033 310.983104 52.349459 310.650721 52.017076
C 310.318338 51.684694 309.867467 51.497937 309.397407 51.497937
C 308.927347 51.497937 308.476475 51.684694 308.144093 52.017076
C 307.81171 52.349459 307.624953 52.80033 307.624953 53.270391
C 307.624953 53.740451 307.81171 54.191322 308.144093 54.523705
C 308.476475 54.856088 308.927347 55.042844 309.397407 55.042844
z
" style="fill:#ff0000;stroke:#ff0000;stroke-width:0.886227;"/>
    <path clip-path="url(#pa5dbbda0bf)" d="M 387.65946 44.290844
C 388.12952 44.290844 388.580392 44.104088 388.912774 43.771705
C 389.245157 43.439322 389.431914 42.988451 389.431914 42.518391
C 389.431914 42.04833 389.245157 41.597459 388.912774 41.265076
C 388.580392 40.932694 388.12952 40.745937 387.65946 40.745937
C 387.1894 40.745937 386.738529 40.932694 386.406146 41.265076
C 386.073763 41.597459 385.887006 42.04833 385.887006 42.518391
C 385.887006 42.988451 386.073763 43.439322 386.406146 43.771705
C 386.738529 44.104088 387.1894 44.290844 387.65946 44.290844
z
" style="fill:#ff0000;stroke:#ff0000;stroke-width:0.886227;"/>
    <path clip-path="url(#pa5dbbda0bf)" d="M 361.238928 49.666844
C 361.708988 49.666844 362.159859 49.480088 362.492242 49.147705
C 362.824625 48.815322 363.011381 48.364451 363.011381 47.894391
C 363.011381 47.42433 362.824625 46.973459 362.492242 46.641076
C 362.159859 46.308694 361.708988 46.121937 361.238928 46.121937
C 360.768867 46.121937 360.317996 46.308694 359.985614 46.641076
C 359.653231 46.973459 359.466474 47.42433 359.466474 47.894391
C 359.466474 48.364451 359.653231 48.815322 359.985614 49.147705
C 360.317996 49.480088 360.768867 49.666844 361.238928 49.666844
z
" style="fill:#ff0000;stroke:#ff0000;stroke-width:0.886227;"/>
    <path clip-path="url(#pa5dbbda0bf)" d="M 189.826941 65.794844
C 190.297001 65.794844 190.747872 65.608088 191.080255 65.275705
C 191.412638 64.943322 191.599395 64.492451 191.599395 64.022391
C 191.599395 63.55233 191.412638 63.101459 191.080255 62.769076
C 190.747872 62.436694 190.297001 62.249937 189.826941 62.249937
C 189.35688 62.249937 188.906009 62.436694 188.573627 62.769076
C 188.241244 63.101459 188.054487 63.55233 188.054487 64.022391
C 188.054487 64.492451 188.241244 64.943322 188.573627 65.275705
C 188.906009 65.608088 189.35688 65.794844 189.826941 65.794844
z
" style="fill:#ff0000;stroke:#ff0000;stroke-width:0.886227;"/>
    <path clip-path="url(#pa5dbbda0bf)" d="M 190.839369 60.418844
C 191.30943 60.418844 191.760301 60.232088 192.092683 59.899705
C 192.425066 59.567322 192.611823 59.116451 192.611823 58.646391
C 192.611823 58.17633 192.425066 57.725459 192.092683 57.393076
C 191.760301 57.060694 191.30943 56.873937 190.839369 56.873937
C 190.369309 56.873937 189.918438 57.060694 189.586055 57.393076
C 189.253672 57.725459 189.066915 58.17633 189.066915 58.646391
C 189.066915 59.116451 189.253672 59.567322 189.586055 59.899705
C 189.918438 60.232088 190.369309 60.418844 190.839369 60.418844
z
" style="fill:#ff0000;stroke:#ff0000;stroke-width:0.886227;"/>
   </g>
   <g id="text_11">
    <g clip-path="url(#pa5dbbda0bf)">
     <!-- HALLMARK_ALLOGRAFT_REJECTION -->
     <defs>
      <path d="M 9.8125 72.90625
L 19.671875 72.90625
L 19.671875 43.015625
L 55.515625 43.015625
L 55.515625 72.90625
L 65.375 72.90625
L 65.375 0
L 55.515625 0
L 55.515625 34.71875
L 19.671875 34.71875
L 19.671875 0
L 9.8125 0
z
" id="DejaVuSans-72"/>
      <path d="M 34.1875 63.1875
L 20.796875 26.90625
L 47.609375 26.90625
z
M 28.609375 72.90625
L 39.796875 72.90625
L 67.578125 0
L 57.328125 0
L 50.6875 18.703125
L 17.828125 18.703125
L 11.1875 0
L 0.78125 0
z
" id="DejaVuSans-65"/>
      <path d="M 9.8125 72.90625
L 19.671875 72.90625
L 19.671875 8.296875
L 55.171875 8.296875
L 55.171875 0
L 9.8125 0
z
" id="DejaVuSans-76"/>
      <path d="M 9.8125 72.90625
L 24.515625 72.90625
L 43.109375 23.296875
L 61.8125 72.90625
L 76.515625 72.90625
L 76.515625 0
L 66.890625 0
L 66.890625 64.015625
L 48.09375 14.015625
L 38.1875 14.015625
L 19.390625 64.015625
L 19.390625 0
L 9.8125 0
z
" id="DejaVuSans-77"/>
      <path d="M 44.390625 34.1875
Q 47.5625 33.109375 50.5625 29.59375
Q 53.5625 26.078125 56.59375 19.921875
L 66.609375 0
L 56 0
L 46.6875 18.703125
Q 43.0625 26.03125 39.671875 28.421875
Q 36.28125 30.8125 30.421875 30.8125
L 19.671875 30.8125
L 19.671875 0
L 9.8125 0
L 9.8125 72.90625
L 32.078125 72.90625
Q 44.578125 72.90625 50.734375 67.671875
Q 56.890625 62.453125 56.890625 51.90625
Q 56.890625 45.015625 53.6875 40.46875
Q 50.484375 35.9375 44.390625 34.1875
z
M 19.671875 64.796875
L 19.671875 38.921875
L 32.078125 38.921875
Q 39.203125 38.921875 42.84375 42.21875
Q 46.484375 45.515625 46.484375 51.90625
Q 46.484375 58.296875 42.84375 61.546875
Q 39.203125 64.796875 32.078125 64.796875
z
" id="DejaVuSans-82"/>
      <path d="M 9.8125 72.90625
L 19.671875 72.90625
L 19.671875 42.09375
L 52.390625 72.90625
L 65.09375 72.90625
L 28.90625 38.921875
L 67.671875 0
L 54.6875 0
L 19.671875 35.109375
L 19.671875 0
L 9.8125 0
z
" id="DejaVuSans-75"/>
      <path d="M 50.984375 -16.609375
L 50.984375 -23.578125
L -0.984375 -23.578125
L -0.984375 -16.609375
z
" id="DejaVuSans-95"/>
      <path d="M 39.40625 66.21875
Q 28.65625 66.21875 22.328125 58.203125
Q 16.015625 50.203125 16.015625 36.375
Q 16.015625 22.609375 22.328125 14.59375
Q 28.65625 6.59375 39.40625 6.59375
Q 50.140625 6.59375 56.421875 14.59375
Q 62.703125 22.609375 62.703125 36.375
Q 62.703125 50.203125 56.421875 58.203125
Q 50.140625 66.21875 39.40625 66.21875
z
M 39.40625 74.21875
Q 54.734375 74.21875 63.90625 63.9375
Q 73.09375 53.65625 73.09375 36.375
Q 73.09375 19.140625 63.90625 8.859375
Q 54.734375 -1.421875 39.40625 -1.421875
Q 24.03125 -1.421875 14.8125 8.828125
Q 5.609375 19.09375 5.609375 36.375
Q 5.609375 53.65625 14.8125 63.9375
Q 24.03125 74.21875 39.40625 74.21875
z
" id="DejaVuSans-79"/>
      <path d="M 59.515625 10.40625
L 59.515625 29.984375
L 43.40625 29.984375
L 43.40625 38.09375
L 69.28125 38.09375
L 69.28125 6.78125
Q 63.578125 2.734375 56.6875 0.65625
Q 49.8125 -1.421875 42 -1.421875
Q 24.90625 -1.421875 15.25 8.5625
Q 5.609375 18.5625 5.609375 36.375
Q 5.609375 54.25 15.25 64.234375
Q 24.90625 74.21875 42 74.21875
Q 49.125 74.21875 55.546875 72.453125
Q 61.96875 70.703125 67.390625 67.28125
L 67.390625 56.78125
Q 61.921875 61.421875 55.765625 63.765625
Q 49.609375 66.109375 42.828125 66.109375
Q 29.4375 66.109375 22.71875 58.640625
Q 16.015625 51.171875 16.015625 36.375
Q 16.015625 21.625 22.71875 14.15625
Q 29.4375 6.6875 42.828125 6.6875
Q 48.046875 6.6875 52.140625 7.59375
Q 56.25 8.5 59.515625 10.40625
z
" id="DejaVuSans-71"/>
      <path d="M 9.8125 72.90625
L 51.703125 72.90625
L 51.703125 64.59375
L 19.671875 64.59375
L 19.671875 43.109375
L 48.578125 43.109375
L 48.578125 34.8125
L 19.671875 34.8125
L 19.671875 0
L 9.8125 0
z
" id="DejaVuSans-70"/>
      <path d="M -0.296875 72.90625
L 61.375 72.90625
L 61.375 64.59375
L 35.5 64.59375
L 35.5 0
L 25.59375 0
L 25.59375 64.59375
L -0.296875 64.59375
z
" id="DejaVuSans-84"/>
      <path d="M 9.8125 72.90625
L 55.90625 72.90625
L 55.90625 64.59375
L 19.671875 64.59375
L 19.671875 43.015625
L 54.390625 43.015625
L 54.390625 34.71875
L 19.671875 34.71875
L 19.671875 8.296875
L 56.78125 8.296875
L 56.78125 0
L 9.8125 0
z
" id="DejaVuSans-69"/>
      <path d="M 9.8125 72.90625
L 19.671875 72.90625
L 19.671875 5.078125
Q 19.671875 -8.109375 14.671875 -14.0625
Q 9.671875 -20.015625 -1.421875 -20.015625
L -5.171875 -20.015625
L -5.171875 -11.71875
L -2.09375 -11.71875
Q 4.4375 -11.71875 7.125 -8.046875
Q 9.8125 -4.390625 9.8125 5.078125
z
" id="DejaVuSans-74"/>
      <path d="M 9.8125 72.90625
L 19.671875 72.90625
L 19.671875 0
L 9.8125 0
z
" id="DejaVuSans-73"/>
      <path d="M 9.8125 72.90625
L 23.09375 72.90625
L 55.421875 11.921875
L 55.421875 72.90625
L 64.984375 72.90625
L 64.984375 0
L 51.703125 0
L 19.390625 60.984375
L 19.390625 0
L 9.8125 0
z
" id="DejaVuSans-78"/>
     </defs>
     <g transform="translate(220.572407 56.981328)scale(0.05 -0.05)">
      <use xlink:href="#DejaVuSans-72"/>
      <use x="75.195312" xlink:href="#DejaVuSans-65"/>
      <use x="143.603516" xlink:href="#DejaVuSans-76"/>
      <use x="199.316406" xlink:href="#DejaVuSans-76"/>
      <use x="255.029297" xlink:href="#DejaVuSans-77"/>
      <use x="341.308594" xlink:href="#DejaVuSans-65"/>
      <use x="409.716797" xlink:href="#DejaVuSans-82"/>
      <use x="479.199219" xlink:href="#DejaVuSans-75"/>
      <use x="544.775391" xlink:href="#DejaVuSans-95"/>
      <use x="594.775391" xlink:href="#DejaVuSans-65"/>
      <use x="663.183594" xlink:href="#DejaVuSans-76"/>
      <use x="718.896484" xlink:href="#DejaVuSans-76"/>
      <use x="774.5625" xlink:href="#DejaVuSans-79"/>
      <use x="853.273438" xlink:href="#DejaVuSans-71"/>
      <use x="930.763672" xlink:href="#DejaVuSans-82"/>
      <use x="1000.183594" xlink:href="#DejaVuSans-65"/>
      <use x="1068.591797" xlink:href="#DejaVuSans-70"/>
      <use x="1126.095703" xlink:href="#DejaVuSans-84"/>
      <use x="1187.179688" xlink:href="#DejaVuSans-95"/>
      <use x="1237.179688" xlink:href="#DejaVuSans-82"/>
      <use x="1306.662109" xlink:href="#DejaVuSans-69"/>
      <use x="1369.845703" xlink:href="#DejaVuSans-74"/>
      <use x="1399.337891" xlink:href="#DejaVuSans-69"/>
      <use x="1462.521484" xlink:href="#DejaVuSans-67"/>
      <use x="1532.345703" xlink:href="#DejaVuSans-84"/>
      <use x="1593.429688" xlink:href="#DejaVuSans-73"/>
      <use x="1622.921875" xlink:href="#DejaVuSans-79"/>
      <use x="1701.632812" xlink:href="#DejaVuSans-78"/>
     </g>
    </g>
   </g>
   <g id="text_12">
    <g clip-path="url(#pa5dbbda0bf)">
     <!-- HALLMARK_MYOGENESIS -->
     <defs>
      <path d="M -0.203125 72.90625
L 10.40625 72.90625
L 30.609375 42.921875
L 50.6875 72.90625
L 61.28125 72.90625
L 35.5 34.71875
L 35.5 0
L 25.59375 0
L 25.59375 34.71875
z
" id="DejaVuSans-89"/>
      <path d="M 53.515625 70.515625
L 53.515625 60.890625
Q 47.90625 63.578125 42.921875 64.890625
Q 37.9375 66.21875 33.296875 66.21875
Q 25.25 66.21875 20.875 63.09375
Q 16.5 59.96875 16.5 54.203125
Q 16.5 49.359375 19.40625 46.890625
Q 22.3125 44.4375 30.421875 42.921875
L 36.375 41.703125
Q 47.40625 39.59375 52.65625 34.296875
Q 57.90625 29 57.90625 20.125
Q 57.90625 9.515625 50.796875 4.046875
Q 43.703125 -1.421875 29.984375 -1.421875
Q 24.8125 -1.421875 18.96875 -0.25
Q 13.140625 0.921875 6.890625 3.21875
L 6.890625 13.375
Q 12.890625 10.015625 18.65625 8.296875
Q 24.421875 6.59375 29.984375 6.59375
Q 38.421875 6.59375 43.015625 9.90625
Q 47.609375 13.234375 47.609375 19.390625
Q 47.609375 24.75 44.3125 27.78125
Q 41.015625 30.8125 33.5 32.328125
L 27.484375 33.5
Q 16.453125 35.6875 11.515625 40.375
Q 6.59375 45.0625 6.59375 53.421875
Q 6.59375 63.09375 13.40625 68.65625
Q 20.21875 74.21875 32.171875 74.21875
Q 37.3125 74.21875 42.625 73.28125
Q 47.953125 72.359375 53.515625 70.515625
z
" id="DejaVuSans-83"/>
     </defs>
     <g transform="translate(324.862585 46.229328)scale(0.05 -0.05)">
      <use xlink:href="#DejaVuSans-72"/>
      <use x="75.195312" xlink:href="#DejaVuSans-65"/>
      <use x="143.603516" xlink:href="#DejaVuSans-76"/>
      <use x="199.316406" xlink:href="#DejaVuSans-76"/>
      <use x="255.029297" xlink:href="#DejaVuSans-77"/>
      <use x="341.308594" xlink:href="#DejaVuSans-65"/>
      <use x="409.716797" xlink:href="#DejaVuSans-82"/>
      <use x="479.199219" xlink:href="#DejaVuSans-75"/>
      <use x="544.775391" xlink:href="#DejaVuSans-95"/>
      <use x="594.775391" xlink:href="#DejaVuSans-77"/>
      <use x="681.054688" xlink:href="#DejaVuSans-89"/>
      <use x="742.060547" xlink:href="#DejaVuSans-79"/>
      <use x="820.771484" xlink:href="#DejaVuSans-71"/>
      <use x="898.261719" xlink:href="#DejaVuSans-69"/>
      <use x="961.445312" xlink:href="#DejaVuSans-78"/>
      <use x="1036.25" xlink:href="#DejaVuSans-69"/>
      <use x="1099.433594" xlink:href="#DejaVuSans-83"/>
      <use x="1162.910156" xlink:href="#DejaVuSans-73"/>
      <use x="1192.402344" xlink:href="#DejaVuSans-83"/>
     </g>
    </g>
   </g>
   <g id="text_13">
    <g clip-path="url(#pa5dbbda0bf)">
     <!-- HALLMARK_KRAS_SIGNALING_DN -->
     <defs>
      <path d="M 19.671875 64.796875
L 19.671875 8.109375
L 31.59375 8.109375
Q 46.6875 8.109375 53.6875 14.9375
Q 60.6875 21.78125 60.6875 36.53125
Q 60.6875 51.171875 53.6875 57.984375
Q 46.6875 64.796875 31.59375 64.796875
z
M 9.8125 72.90625
L 30.078125 72.90625
Q 51.265625 72.90625 61.171875 64.09375
Q 71.09375 55.28125 71.09375 36.53125
Q 71.09375 17.671875 61.125 8.828125
Q 51.171875 0 30.078125 0
L 9.8125 0
z
" id="DejaVuSans-68"/>
     </defs>
     <g transform="translate(278.003771 51.605328)scale(0.05 -0.05)">
      <use xlink:href="#DejaVuSans-72"/>
      <use x="75.195312" xlink:href="#DejaVuSans-65"/>
      <use x="143.603516" xlink:href="#DejaVuSans-76"/>
      <use x="199.316406" xlink:href="#DejaVuSans-76"/>
      <use x="255.029297" xlink:href="#DejaVuSans-77"/>
      <use x="341.308594" xlink:href="#DejaVuSans-65"/>
      <use x="409.716797" xlink:href="#DejaVuSans-82"/>
      <use x="479.199219" xlink:href="#DejaVuSans-75"/>
      <use x="544.775391" xlink:href="#DejaVuSans-95"/>
      <use x="594.775391" xlink:href="#DejaVuSans-75"/>
      <use x="660.351562" xlink:href="#DejaVuSans-82"/>
      <use x="729.771484" xlink:href="#DejaVuSans-65"/>
      <use x="798.179688" xlink:href="#DejaVuSans-83"/>
      <use x="861.65625" xlink:href="#DejaVuSans-95"/>
      <use x="911.65625" xlink:href="#DejaVuSans-83"/>
      <use x="975.132812" xlink:href="#DejaVuSans-73"/>
      <use x="1004.625" xlink:href="#DejaVuSans-71"/>
      <use x="1082.115234" xlink:href="#DejaVuSans-78"/>
      <use x="1156.919922" xlink:href="#DejaVuSans-65"/>
      <use x="1225.328125" xlink:href="#DejaVuSans-76"/>
      <use x="1281.041016" xlink:href="#DejaVuSans-73"/>
      <use x="1310.533203" xlink:href="#DejaVuSans-78"/>
      <use x="1385.337891" xlink:href="#DejaVuSans-71"/>
      <use x="1462.828125" xlink:href="#DejaVuSans-95"/>
      <use x="1512.828125" xlink:href="#DejaVuSans-68"/>
      <use x="1589.830078" xlink:href="#DejaVuSans-78"/>
     </g>
    </g>
   </g>
   <g id="text_14">
    <g clip-path="url(#pa5dbbda0bf)">
     <!-- HALLMARK_COAGULATION -->
     <defs>
      <path d="M 8.6875 72.90625
L 18.609375 72.90625
L 18.609375 28.609375
Q 18.609375 16.890625 22.84375 11.734375
Q 27.09375 6.59375 36.625 6.59375
Q 46.09375 6.59375 50.34375 11.734375
Q 54.59375 16.890625 54.59375 28.609375
L 54.59375 72.90625
L 64.5 72.90625
L 64.5 27.390625
Q 64.5 13.140625 57.4375 5.859375
Q 50.390625 -1.421875 36.625 -1.421875
Q 22.796875 -1.421875 15.734375 5.859375
Q 8.6875 13.140625 8.6875 27.390625
z
" id="DejaVuSans-85"/>
     </defs>
     <g transform="translate(123.299597 67.733328)scale(0.05 -0.05)">
      <use xlink:href="#DejaVuSans-72"/>
      <use x="75.195312" xlink:href="#DejaVuSans-65"/>
      <use x="143.603516" xlink:href="#DejaVuSans-76"/>
      <use x="199.316406" xlink:href="#DejaVuSans-76"/>
      <use x="255.029297" xlink:href="#DejaVuSans-77"/>
      <use x="341.308594" xlink:href="#DejaVuSans-65"/>
      <use x="409.716797" xlink:href="#DejaVuSans-82"/>
      <use x="479.199219" xlink:href="#DejaVuSans-75"/>
      <use x="544.775391" xlink:href="#DejaVuSans-95"/>
      <use x="594.775391" xlink:href="#DejaVuSans-67"/>
      <use x="664.599609" xlink:href="#DejaVuSans-79"/>
      <use x="743.294922" xlink:href="#DejaVuSans-65"/>
      <use x="811.6875" xlink:href="#DejaVuSans-71"/>
      <use x="889.177734" xlink:href="#DejaVuSans-85"/>
      <use x="962.371094" xlink:href="#DejaVuSans-76"/>
      <use x="1018.115234" xlink:href="#DejaVuSans-65"/>
      <use x="1086.414062" xlink:href="#DejaVuSans-84"/>
      <use x="1147.498047" xlink:href="#DejaVuSans-73"/>
      <use x="1176.990234" xlink:href="#DejaVuSans-79"/>
      <use x="1255.701172" xlink:href="#DejaVuSans-78"/>
     </g>
    </g>
   </g>
   <g id="text_15">
    <g clip-path="url(#pa5dbbda0bf)">
     <!-- HALLMARK_SPERMATOGENESIS -->
     <defs>
      <path d="M 19.671875 64.796875
L 19.671875 37.40625
L 32.078125 37.40625
Q 38.96875 37.40625 42.71875 40.96875
Q 46.484375 44.53125 46.484375 51.125
Q 46.484375 57.671875 42.71875 61.234375
Q 38.96875 64.796875 32.078125 64.796875
z
M 9.8125 72.90625
L 32.078125 72.90625
Q 44.34375 72.90625 50.609375 67.359375
Q 56.890625 61.8125 56.890625 51.125
Q 56.890625 40.328125 50.609375 34.8125
Q 44.34375 29.296875 32.078125 29.296875
L 19.671875 29.296875
L 19.671875 0
L 9.8125 0
z
" id="DejaVuSans-80"/>
     </defs>
     <g transform="translate(111.801088 62.357328)scale(0.05 -0.05)">
      <use xlink:href="#DejaVuSans-72"/>
      <use x="75.195312" xlink:href="#DejaVuSans-65"/>
      <use x="143.603516" xlink:href="#DejaVuSans-76"/>
      <use x="199.316406" xlink:href="#DejaVuSans-76"/>
      <use x="255.029297" xlink:href="#DejaVuSans-77"/>
      <use x="341.308594" xlink:href="#DejaVuSans-65"/>
      <use x="409.716797" xlink:href="#DejaVuSans-82"/>
      <use x="479.199219" xlink:href="#DejaVuSans-75"/>
      <use x="544.775391" xlink:href="#DejaVuSans-95"/>
      <use x="594.775391" xlink:href="#DejaVuSans-83"/>
      <use x="658.251953" xlink:href="#DejaVuSans-80"/>
      <use x="718.554688" xlink:href="#DejaVuSans-69"/>
      <use x="781.738281" xlink:href="#DejaVuSans-82"/>
      <use x="851.220703" xlink:href="#DejaVuSans-77"/>
      <use x="937.5" xlink:href="#DejaVuSans-65"/>
      <use x="1005.798828" xlink:href="#DejaVuSans-84"/>
      <use x="1066.882812" xlink:href="#DejaVuSans-79"/>
      <use x="1145.59375" xlink:href="#DejaVuSans-71"/>
      <use x="1223.083984" xlink:href="#DejaVuSans-69"/>
      <use x="1286.267578" xlink:href="#DejaVuSans-78"/>
      <use x="1361.072266" xlink:href="#DejaVuSans-69"/>
      <use x="1424.255859" xlink:href="#DejaVuSans-83"/>
      <use x="1487.732422" xlink:href="#DejaVuSans-73"/>
      <use x="1517.224609" xlink:href="#DejaVuSans-83"/>
     </g>
    </g>
   </g>
  </g>
  <g id="text_16">
   <!-- GSEA pathway statistics vs ranking -->
   <defs>
    <path d="M 4.203125 54.6875
L 13.1875 54.6875
L 24.421875 12.015625
L 35.59375 54.6875
L 46.1875 54.6875
L 57.421875 12.015625
L 68.609375 54.6875
L 77.59375 54.6875
L 63.28125 0
L 52.6875 0
L 40.921875 44.828125
L 29.109375 0
L 18.5 0
z
" id="DejaVuSans-119"/>
   </defs>
   <g transform="translate(87.227656 21.236671)scale(0.15 -0.15)">
    <use xlink:href="#DejaVuSans-71"/>
    <use x="77.490234" xlink:href="#DejaVuSans-83"/>
    <use x="140.966797" xlink:href="#DejaVuSans-69"/>
    <use x="204.150391" xlink:href="#DejaVuSans-65"/>
    <use x="272.558594" xlink:href="#DejaVuSans-32"/>
    <use x="304.345703" xlink:href="#DejaVuSans-112"/>
    <use x="367.822266" xlink:href="#DejaVuSans-97"/>
    <use x="429.101562" xlink:href="#DejaVuSans-116"/>
    <use x="468.310547" xlink:href="#DejaVuSans-104"/>
    <use x="531.689453" xlink:href="#DejaVuSans-119"/>
    <use x="613.476562" xlink:href="#DejaVuSans-97"/>
    <use x="674.755859" xlink:href="#DejaVuSans-121"/>
    <use x="733.935547" xlink:href="#DejaVuSans-32"/>
    <use x="765.722656" xlink:href="#DejaVuSans-115"/>
    <use x="817.822266" xlink:href="#DejaVuSans-116"/>
    <use x="857.03125" xlink:href="#DejaVuSans-97"/>
    <use x="918.310547" xlink:href="#DejaVuSans-116"/>
    <use x="957.519531" xlink:href="#DejaVuSans-105"/>
    <use x="985.302734" xlink:href="#DejaVuSans-115"/>
    <use x="1037.402344" xlink:href="#DejaVuSans-116"/>
    <use x="1076.611328" xlink:href="#DejaVuSans-105"/>
    <use x="1104.394531" xlink:href="#DejaVuSans-99"/>
    <use x="1159.375" xlink:href="#DejaVuSans-115"/>
    <use x="1211.474609" xlink:href="#DejaVuSans-32"/>
    <use x="1243.261719" xlink:href="#DejaVuSans-118"/>
    <use x="1302.441406" xlink:href="#DejaVuSans-115"/>
    <use x="1354.541016" xlink:href="#DejaVuSans-32"/>
    <use x="1386.328125" xlink:href="#DejaVuSans-114"/>
    <use x="1427.441406" xlink:href="#DejaVuSans-97"/>
    <use x="1488.720703" xlink:href="#DejaVuSans-110"/>
    <use x="1552.099609" xlink:href="#DejaVuSans-107"/>
    <use x="1610.009766" xlink:href="#DejaVuSans-105"/>
    <use x="1637.792969" xlink:href="#DejaVuSans-110"/>
    <use x="1701.171875" xlink:href="#DejaVuSans-103"/>
   </g>
  </g>
 </g>
 <defs>
  <clipPath id="pa5dbbda0bf">
   <rect height="266.112" width="357.12" x="46.772188" y="30.422391"/>
  </clipPath>
 </defs>
</svg>
