<?xml version="1.0" encoding="utf-8" standalone="no"?>
<!DOCTYPE svg PUBLIC "-//W3C//DTD SVG 1.1//EN"
  "http://www.w3.org/Graphics/SVG/1.1/DTD/svg11.dtd">
<!-- Created with matplotlib (https://matplotlib.org/) -->
<svg height="322.19272pt" version="1.1" viewBox="0 0 406.642188 322.19272" width="406.642188pt" xmlns="http://www.w3.org/2000/svg" xmlns:xlink="http://www.w3.org/1999/xlink">
 <defs>
  <style type="text/css">
*{stroke-linecap:butt;stroke-linejoin:round;}
  </style>
 </defs>
 <g id="figure_1">
  <g id="patch_1">
   <path d="M 0 322.19272
L 406.642188 322.19272
L 406.642188 0
L 0 0
z
" style="fill:#ffffff;stroke:#ffffff;stroke-linejoin:miter;"/>
  </g>
  <g id="axes_1">
   <g id="patch_2">
    <path d="M 46.772188 286.711782
L 403.892188 286.711782
L 403.892188 20.599782
L 46.772188 20.599782
z
" style="fill:none;"/>
   </g>
   <g id="matplotlib.axis_1">
    <g id="xtick_1">
     <g id="line2d_1">
      <path clip-path="url(#p284d96e23f)" d="M 63.004915 286.711782
L 63.004915 20.599782
" style="fill:none;stroke:#e5e5e5;stroke-width:0.8;"/>
     </g>
     <g id="line2d_2">
      <path d="M 63.004915 286.711782
" style="fill:none;stroke:#000000;stroke-width:1.5;"/>
      <defs>
       <path d="M 0 0
L 0 2.75
" id="mdf11f65410" style="stroke:#000000;"/>
      </defs>
      <g>
       <use style="stroke:#000000;" x="63.004915" xlink:href="#mdf11f65410" y="286.711782"/>
      </g>
     </g>
     <g id="text_1">
      <!-- 0 -->
      <defs>
       <path d="M 31.78125 66.40625
Q 24.171875 66.40625 20.328125 58.90625
Q 16.5 51.421875 16.5 36.375
Q 16.5 21.390625 20.328125 13.890625
Q 24.171875 6.390625 31.78125 6.390625
Q 39.453125 6.390625 43.28125 13.890625
Q 47.125 21.390625 47.125 36.375
Q 47.125 51.421875 43.28125 58.90625
Q 39.453125 66.40625 31.78125 66.40625
z
M 31.78125 74.21875
Q 44.046875 74.21875 50.515625 64.515625
Q 56.984375 54.828125 56.984375 36.375
Q 56.984375 17.96875 50.515625 8.265625
Q 44.046875 -1.421875 31.78125 -1.421875
Q 19.53125 -1.421875 13.0625 8.265625
Q 6.59375 17.96875 6.59375 36.375
Q 6.59375 54.828125 13.0625 64.515625
Q 19.53125 74.21875 31.78125 74.21875
z
" id="DejaVuSans-48"/>
      </defs>
      <g style="fill:#4d4d4d;" transform="translate(59.187415 300.779907)scale(0.12 -0.12)">
       <use xlink:href="#DejaVuSans-48"/>
      </g>
     </g>
    </g>
    <g id="xtick_2">
     <g id="line2d_3">
      <path clip-path="url(#p284d96e23f)" d="M 144.168551 286.711782
L 144.168551 20.599782
" style="fill:none;stroke:#e5e5e5;stroke-width:0.8;"/>
     </g>
     <g id="line2d_4">
      <path d="M 144.168551 286.711782
" style="fill:none;stroke:#000000;stroke-width:1.5;"/>
      <g>
       <use style="stroke:#000000;" x="144.168551" xlink:href="#mdf11f65410" y="286.711782"/>
      </g>
     </g>
     <g id="text_2">
      <!-- 25 -->
      <defs>
       <path d="M 19.1875 8.296875
L 53.609375 8.296875
L 53.609375 0
L 7.328125 0
L 7.328125 8.296875
Q 12.9375 14.109375 22.625 23.890625
Q 32.328125 33.6875 34.8125 36.53125
Q 39.546875 41.84375 41.421875 45.53125
Q 43.3125 49.21875 43.3125 52.78125
Q 43.3125 58.59375 39.234375 62.25
Q 35.15625 65.921875 28.609375 65.921875
Q 23.96875 65.921875 18.8125 64.3125
Q 13.671875 62.703125 7.8125 59.421875
L 7.8125 69.390625
Q 13.765625 71.78125 18.9375 73
Q 24.125 74.21875 28.421875 74.21875
Q 39.75 74.21875 46.484375 68.546875
Q 53.21875 62.890625 53.21875 53.421875
Q 53.21875 48.921875 51.53125 44.890625
Q 49.859375 40.875 45.40625 35.40625
Q 44.1875 33.984375 37.640625 27.21875
Q 31.109375 20.453125 19.1875 8.296875
z
" id="DejaVuSans-50"/>
       <path d="M 10.796875 72.90625
L 49.515625 72.90625
L 49.515625 64.59375
L 19.828125 64.59375
L 19.828125 46.734375
Q 21.96875 47.46875 24.109375 47.828125
Q 26.265625 48.1875 28.421875 48.1875
Q 40.625 48.1875 47.75 41.5
Q 54.890625 34.8125 54.890625 23.390625
Q 54.890625 11.625 47.5625 5.09375
Q 40.234375 -1.421875 26.90625 -1.421875
Q 22.3125 -1.421875 17.546875 -0.640625
Q 12.796875 0.140625 7.71875 1.703125
L 7.71875 11.625
Q 12.109375 9.234375 16.796875 8.0625
Q 21.484375 6.890625 26.703125 6.890625
Q 35.15625 6.890625 40.078125 11.328125
Q 45.015625 15.765625 45.015625 23.390625
Q 45.015625 31 40.078125 35.4375
Q 35.15625 39.890625 26.703125 39.890625
Q 22.75 39.890625 18.8125 39.015625
Q 14.890625 38.140625 10.796875 36.28125
z
" id="DejaVuSans-53"/>
      </defs>
      <g style="fill:#4d4d4d;" transform="translate(136.533551 300.779907)scale(0.12 -0.12)">
       <use xlink:href="#DejaVuSans-50"/>
       <use x="63.623047" xlink:href="#DejaVuSans-53"/>
      </g>
     </g>
    </g>
    <g id="xtick_3">
     <g id="line2d_5">
      <path clip-path="url(#p284d96e23f)" d="M 225.332188 286.711782
L 225.332188 20.599782
" style="fill:none;stroke:#e5e5e5;stroke-width:0.8;"/>
     </g>
     <g id="line2d_6">
      <path d="M 225.332188 286.711782
" style="fill:none;stroke:#000000;stroke-width:1.5;"/>
      <g>
       <use style="stroke:#000000;" x="225.332188" xlink:href="#mdf11f65410" y="286.711782"/>
      </g>
     </g>
     <g id="text_3">
      <!-- 50 -->
      <g style="fill:#4d4d4d;" transform="translate(217.697188 300.779907)scale(0.12 -0.12)">
       <use xlink:href="#DejaVuSans-53"/>
       <use x="63.623047" xlink:href="#DejaVuSans-48"/>
      </g>
     </g>
    </g>
    <g id="xtick_4">
     <g id="line2d_7">
      <path clip-path="url(#p284d96e23f)" d="M 306.495824 286.711782
L 306.495824 20.599782
" style="fill:none;stroke:#e5e5e5;stroke-width:0.8;"/>
     </g>
     <g id="line2d_8">
      <path d="M 306.495824 286.711782
" style="fill:none;stroke:#000000;stroke-width:1.5;"/>
      <g>
       <use style="stroke:#000000;" x="306.495824" xlink:href="#mdf11f65410" y="286.711782"/>
      </g>
     </g>
     <g id="text_4">
      <!-- 75 -->
      <defs>
       <path d="M 8.203125 72.90625
L 55.078125 72.90625
L 55.078125 68.703125
L 28.609375 0
L 18.3125 0
L 43.21875 64.59375
L 8.203125 64.59375
z
" id="DejaVuSans-55"/>
      </defs>
      <g style="fill:#4d4d4d;" transform="translate(298.860824 300.779907)scale(0.12 -0.12)">
       <use xlink:href="#DejaVuSans-55"/>
       <use x="63.623047" xlink:href="#DejaVuSans-53"/>
      </g>
     </g>
    </g>
    <g id="xtick_5">
     <g id="line2d_9">
      <path clip-path="url(#p284d96e23f)" d="M 387.65946 286.711782
L 387.65946 20.599782
" style="fill:none;stroke:#e5e5e5;stroke-width:0.8;"/>
     </g>
     <g id="line2d_10">
      <path d="M 387.65946 286.711782
" style="fill:none;stroke:#000000;stroke-width:1.5;"/>
      <g>
       <use style="stroke:#000000;" x="387.65946" xlink:href="#mdf11f65410" y="286.711782"/>
      </g>
     </g>
     <g id="text_5">
      <!-- 100 -->
      <defs>
       <path d="M 12.40625 8.296875
L 28.515625 8.296875
L 28.515625 63.921875
L 10.984375 60.40625
L 10.984375 69.390625
L 28.421875 72.90625
L 38.28125 72.90625
L 38.28125 8.296875
L 54.390625 8.296875
L 54.390625 0
L 12.40625 0
z
" id="DejaVuSans-49"/>
      </defs>
      <g style="fill:#4d4d4d;" transform="translate(376.20696 300.779907)scale(0.12 -0.12)">
       <use xlink:href="#DejaVuSans-49"/>
       <use x="63.623047" xlink:href="#DejaVuSans-48"/>
       <use x="127.246094" xlink:href="#DejaVuSans-48"/>
      </g>
     </g>
    </g>
    <g id="xtick_6">
     <g id="line2d_11">
      <path clip-path="url(#p284d96e23f)" d="M 103.586733 286.711782
L 103.586733 20.599782
" style="fill:none;stroke:#fafafa;"/>
     </g>
     <g id="line2d_12">
      <path d="M 103.586733 286.711782
" style="fill:none;stroke:#000000;stroke-width:1.5;"/>
     </g>
    </g>
    <g id="xtick_7">
     <g id="line2d_13">
      <path clip-path="url(#p284d96e23f)" d="M 184.750369 286.711782
L 184.750369 20.599782
" style="fill:none;stroke:#fafafa;"/>
     </g>
     <g id="line2d_14">
      <path d="M 184.750369 286.711782
" style="fill:none;stroke:#000000;stroke-width:1.5;"/>
     </g>
    </g>
    <g id="xtick_8">
     <g id="line2d_15">
      <path clip-path="url(#p284d96e23f)" d="M 265.914006 286.711782
L 265.914006 20.599782
" style="fill:none;stroke:#fafafa;"/>
     </g>
     <g id="line2d_16">
      <path d="M 265.914006 286.711782
" style="fill:none;stroke:#000000;stroke-width:1.5;"/>
     </g>
    </g>
    <g id="xtick_9">
     <g id="line2d_17">
      <path clip-path="url(#p284d96e23f)" d="M 347.077642 286.711782
L 347.077642 20.599782
" style="fill:none;stroke:#fafafa;"/>
     </g>
     <g id="line2d_18">
      <path d="M 347.077642 286.711782
" style="fill:none;stroke:#000000;stroke-width:1.5;"/>
     </g>
    </g>
    <g id="text_6">
     <!-- GSEA pathway ranking -->
     <defs>
      <path d="M 59.515625 10.40625
L 59.515625 29.984375
L 43.40625 29.984375
L 43.40625 38.09375
L 69.28125 38.09375
L 69.28125 6.78125
Q 63.578125 2.734375 56.6875 0.65625
Q 49.8125 -1.421875 42 -1.421875
Q 24.90625 -1.421875 15.25 8.5625
Q 5.609375 18.5625 5.609375 36.375
Q 5.609375 54.25 15.25 64.234375
Q 24.90625 74.21875 42 74.21875
Q 49.125 74.21875 55.546875 72.453125
Q 61.96875 70.703125 67.390625 67.28125
L 67.390625 56.78125
Q 61.921875 61.421875 55.765625 63.765625
Q 49.609375 66.109375 42.828125 66.109375
Q 29.4375 66.109375 22.71875 58.640625
Q 16.015625 51.171875 16.015625 36.375
Q 16.015625 21.625 22.71875 14.15625
Q 29.4375 6.6875 42.828125 6.6875
Q 48.046875 6.6875 52.140625 7.59375
Q 56.25 8.5 59.515625 10.40625
z
" id="DejaVuSans-71"/>
      <path d="M 53.515625 70.515625
L 53.515625 60.890625
Q 47.90625 63.578125 42.921875 64.890625
Q 37.9375 66.21875 33.296875 66.21875
Q 25.25 66.21875 20.875 63.09375
Q 16.5 59.96875 16.5 54.203125
Q 16.5 49.359375 19.40625 46.890625
Q 22.3125 44.4375 30.421875 42.921875
L 36.375 41.703125
Q 47.40625 39.59375 52.65625 34.296875
Q 57.90625 29 57.90625 20.125
Q 57.90625 9.515625 50.796875 4.046875
Q 43.703125 -1.421875 29.984375 -1.421875
Q 24.8125 -1.421875 18.96875 -0.25
Q 13.140625 0.921875 6.890625 3.21875
L 6.890625 13.375
Q 12.890625 10.015625 18.65625 8.296875
Q 24.421875 6.59375 29.984375 6.59375
Q 38.421875 6.59375 43.015625 9.90625
Q 47.609375 13.234375 47.609375 19.390625
Q 47.609375 24.75 44.3125 27.78125
Q 41.015625 30.8125 33.5 32.328125
L 27.484375 33.5
Q 16.453125 35.6875 11.515625 40.375
Q 6.59375 45.0625 6.59375 53.421875
Q 6.59375 63.09375 13.40625 68.65625
Q 20.21875 74.21875 32.171875 74.21875
Q 37.3125 74.21875 42.625 73.28125
Q 47.953125 72.359375 53.515625 70.515625
z
" id="DejaVuSans-83"/>
      <path d="M 9.8125 72.90625
L 55.90625 72.90625
L 55.90625 64.59375
L 19.671875 64.59375
L 19.671875 43.015625
L 54.390625 43.015625
L 54.390625 34.71875
L 19.671875 34.71875
L 19.671875 8.296875
L 56.78125 8.296875
L 56.78125 0
L 9.8125 0
z
" id="DejaVuSans-69"/>
      <path d="M 34.1875 63.1875
L 20.796875 26.90625
L 47.609375 26.90625
z
M 28.609375 72.90625
L 39.796875 72.90625
L 67.578125 0
L 57.328125 0
L 50.6875 18.703125
L 17.828125 18.703125
L 11.1875 0
L 0.78125 0
z
" id="DejaVuSans-65"/>
      <path id="DejaVuSans-32"/>
      <path d="M 18.109375 8.203125
L 18.109375 -20.796875
L 9.078125 -20.796875
L 9.078125 54.6875
L 18.109375 54.6875
L 18.109375 46.390625
Q 20.953125 51.265625 25.265625 53.625
Q 29.59375 56 35.59375 56
Q 45.5625 56 51.78125 48.09375
Q 58.015625 40.1875 58.015625 27.296875
Q 58.015625 14.40625 51.78125 6.484375
Q 45.5625 -1.421875 35.59375 -1.421875
Q 29.59375 -1.421875 25.265625 0.953125
Q 20.953125 3.328125 18.109375 8.203125
z
M 48.6875 27.296875
Q 48.6875 37.203125 44.609375 42.84375
Q 40.53125 48.484375 33.40625 48.484375
Q 26.265625 48.484375 22.1875 42.84375
Q 18.109375 37.203125 18.109375 27.296875
Q 18.109375 17.390625 22.1875 11.75
Q 26.265625 6.109375 33.40625 6.109375
Q 40.53125 6.109375 44.609375 11.75
Q 48.6875 17.390625 48.6875 27.296875
z
" id="DejaVuSans-112"/>
      <path d="M 34.28125 27.484375
Q 23.390625 27.484375 19.1875 25
Q 14.984375 22.515625 14.984375 16.5
Q 14.984375 11.71875 18.140625 8.90625
Q 21.296875 6.109375 26.703125 6.109375
Q 34.1875 6.109375 38.703125 11.40625
Q 43.21875 16.703125 43.21875 25.484375
L 43.21875 27.484375
z
M 52.203125 31.203125
L 52.203125 0
L 43.21875 0
L 43.21875 8.296875
Q 40.140625 3.328125 35.546875 0.953125
Q 30.953125 -1.421875 24.3125 -1.421875
Q 15.921875 -1.421875 10.953125 3.296875
Q 6 8.015625 6 15.921875
Q 6 25.140625 12.171875 29.828125
Q 18.359375 34.515625 30.609375 34.515625
L 43.21875 34.515625
L 43.21875 35.40625
Q 43.21875 41.609375 39.140625 45
Q 35.0625 48.390625 27.6875 48.390625
Q 23 48.390625 18.546875 47.265625
Q 14.109375 46.140625 10.015625 43.890625
L 10.015625 52.203125
Q 14.9375 54.109375 19.578125 55.046875
Q 24.21875 56 28.609375 56
Q 40.484375 56 46.34375 49.84375
Q 52.203125 43.703125 52.203125 31.203125
z
" id="DejaVuSans-97"/>
      <path d="M 18.3125 70.21875
L 18.3125 54.6875
L 36.8125 54.6875
L 36.8125 47.703125
L 18.3125 47.703125
L 18.3125 18.015625
Q 18.3125 11.328125 20.140625 9.421875
Q 21.96875 7.515625 27.59375 7.515625
L 36.8125 7.515625
L 36.8125 0
L 27.59375 0
Q 17.1875 0 13.234375 3.875
Q 9.28125 7.765625 9.28125 18.015625
L 9.28125 47.703125
L 2.6875 47.703125
L 2.6875 54.6875
L 9.28125 54.6875
L 9.28125 70.21875
z
" id="DejaVuSans-116"/>
      <path d="M 54.890625 33.015625
L 54.890625 0
L 45.90625 0
L 45.90625 32.71875
Q 45.90625 40.484375 42.875 44.328125
Q 39.84375 48.1875 33.796875 48.1875
Q 26.515625 48.1875 22.3125 43.546875
Q 18.109375 38.921875 18.109375 30.90625
L 18.109375 0
L 9.078125 0
L 9.078125 75.984375
L 18.109375 75.984375
L 18.109375 46.1875
Q 21.34375 51.125 25.703125 53.5625
Q 30.078125 56 35.796875 56
Q 45.21875 56 50.046875 50.171875
Q 54.890625 44.34375 54.890625 33.015625
z
" id="DejaVuSans-104"/>
      <path d="M 4.203125 54.6875
L 13.1875 54.6875
L 24.421875 12.015625
L 35.59375 54.6875
L 46.1875 54.6875
L 57.421875 12.015625
L 68.609375 54.6875
L 77.59375 54.6875
L 63.28125 0
L 52.6875 0
L 40.921875 44.828125
L 29.109375 0
L 18.5 0
z
" id="DejaVuSans-119"/>
      <path d="M 32.171875 -5.078125
Q 28.375 -14.84375 24.75 -17.8125
Q 21.140625 -20.796875 15.09375 -20.796875
L 7.90625 -20.796875
L 7.90625 -13.28125
L 13.1875 -13.28125
Q 16.890625 -13.28125 18.9375 -11.515625
Q 21 -9.765625 23.484375 -3.21875
L 25.09375 0.875
L 2.984375 54.6875
L 12.5 54.6875
L 29.59375 11.921875
L 46.6875 54.6875
L 56.203125 54.6875
z
" id="DejaVuSans-121"/>
      <path d="M 41.109375 46.296875
Q 39.59375 47.171875 37.8125 47.578125
Q 36.03125 48 33.890625 48
Q 26.265625 48 22.1875 43.046875
Q 18.109375 38.09375 18.109375 28.8125
L 18.109375 0
L 9.078125 0
L 9.078125 54.6875
L 18.109375 54.6875
L 18.109375 46.1875
Q 20.953125 51.171875 25.484375 53.578125
Q 30.03125 56 36.53125 56
Q 37.453125 56 38.578125 55.875
Q 39.703125 55.765625 41.0625 55.515625
z
" id="DejaVuSans-114"/>
      <path d="M 54.890625 33.015625
L 54.890625 0
L 45.90625 0
L 45.90625 32.71875
Q 45.90625 40.484375 42.875 44.328125
Q 39.84375 48.1875 33.796875 48.1875
Q 26.515625 48.1875 22.3125 43.546875
Q 18.109375 38.921875 18.109375 30.90625
L 18.109375 0
L 9.078125 0
L 9.078125 54.6875
L 18.109375 54.6875
L 18.109375 46.1875
Q 21.34375 51.125 25.703125 53.5625
Q 30.078125 56 35.796875 56
Q 45.21875 56 50.046875 50.171875
Q 54.890625 44.34375 54.890625 33.015625
z
" id="DejaVuSans-110"/>
      <path d="M 9.078125 75.984375
L 18.109375 75.984375
L 18.109375 31.109375
L 44.921875 54.6875
L 56.390625 54.6875
L 27.390625 29.109375
L 57.625 0
L 45.90625 0
L 18.109375 26.703125
L 18.109375 0
L 9.078125 0
z
" id="DejaVuSans-107"/>
      <path d="M 9.421875 54.6875
L 18.40625 54.6875
L 18.40625 0
L 9.421875 0
z
M 9.421875 75.984375
L 18.40625 75.984375
L 18.40625 64.59375
L 9.421875 64.59375
z
" id="DejaVuSans-105"/>
      <path d="M 45.40625 27.984375
Q 45.40625 37.75 41.375 43.109375
Q 37.359375 48.484375 30.078125 48.484375
Q 22.859375 48.484375 18.828125 43.109375
Q 14.796875 37.75 14.796875 27.984375
Q 14.796875 18.265625 18.828125 12.890625
Q 22.859375 7.515625 30.078125 7.515625
Q 37.359375 7.515625 41.375 12.890625
Q 45.40625 18.265625 45.40625 27.984375
z
M 54.390625 6.78125
Q 54.390625 -7.171875 48.1875 -13.984375
Q 42 -20.796875 29.203125 -20.796875
Q 24.46875 -20.796875 20.265625 -20.09375
Q 16.0625 -19.390625 12.109375 -17.921875
L 12.109375 -9.1875
Q 16.0625 -11.328125 19.921875 -12.34375
Q 23.78125 -13.375 27.78125 -13.375
Q 36.625 -13.375 41.015625 -8.765625
Q 45.40625 -4.15625 45.40625 5.171875
L 45.40625 9.625
Q 42.625 4.78125 38.28125 2.390625
Q 33.9375 0 27.875 0
Q 17.828125 0 11.671875 7.65625
Q 5.515625 15.328125 5.515625 27.984375
Q 5.515625 40.671875 11.671875 48.328125
Q 17.828125 56 27.875 56
Q 33.9375 56 38.28125 53.609375
Q 42.625 51.21875 45.40625 46.390625
L 45.40625 54.6875
L 54.390625 54.6875
z
" id="DejaVuSans-103"/>
     </defs>
     <g transform="translate(133.769844 319.073188)scale(0.15 -0.15)">
      <use xlink:href="#DejaVuSans-71"/>
      <use x="77.490234" xlink:href="#DejaVuSans-83"/>
      <use x="140.966797" xlink:href="#DejaVuSans-69"/>
      <use x="204.150391" xlink:href="#DejaVuSans-65"/>
      <use x="272.558594" xlink:href="#DejaVuSans-32"/>
      <use x="304.345703" xlink:href="#DejaVuSans-112"/>
      <use x="367.822266" xlink:href="#DejaVuSans-97"/>
      <use x="429.101562" xlink:href="#DejaVuSans-116"/>
      <use x="468.310547" xlink:href="#DejaVuSans-104"/>
      <use x="531.689453" xlink:href="#DejaVuSans-119"/>
      <use x="613.476562" xlink:href="#DejaVuSans-97"/>
      <use x="674.755859" xlink:href="#DejaVuSans-121"/>
      <use x="733.935547" xlink:href="#DejaVuSans-32"/>
      <use x="765.722656" xlink:href="#DejaVuSans-114"/>
      <use x="806.835938" xlink:href="#DejaVuSans-97"/>
      <use x="868.115234" xlink:href="#DejaVuSans-110"/>
      <use x="931.494141" xlink:href="#DejaVuSans-107"/>
      <use x="989.404297" xlink:href="#DejaVuSans-105"/>
      <use x="1017.1875" xlink:href="#DejaVuSans-110"/>
      <use x="1080.566406" xlink:href="#DejaVuSans-103"/>
     </g>
    </g>
   </g>
   <g id="matplotlib.axis_2">
    <g id="ytick_1">
     <g id="line2d_19">
      <path clip-path="url(#p284d96e23f)" d="M 46.772188 274.615782
L 403.892188 274.615782
" style="fill:none;stroke:#e5e5e5;stroke-width:0.8;"/>
     </g>
     <g id="line2d_20">
      <path d="M 46.772188 274.615782
" style="fill:none;stroke:#000000;stroke-width:1.5;"/>
      <defs>
       <path d="M 0 0
L -2.75 0
" id="m1b4bbbb5a2" style="stroke:#000000;"/>
      </defs>
      <g>
       <use style="stroke:#000000;" x="46.772188" xlink:href="#m1b4bbbb5a2" y="274.615782"/>
      </g>
     </g>
     <g id="text_7">
      <!-- 0 -->
      <g style="fill:#4d4d4d;" transform="translate(34.187188 277.927032)scale(0.12 -0.12)">
       <use xlink:href="#DejaVuSans-48"/>
      </g>
     </g>
    </g>
    <g id="ytick_2">
     <g id="line2d_21">
      <path clip-path="url(#p284d96e23f)" d="M 46.772188 214.135782
L 403.892188 214.135782
" style="fill:none;stroke:#e5e5e5;stroke-width:0.8;"/>
     </g>
     <g id="line2d_22">
      <path d="M 46.772188 214.135782
" style="fill:none;stroke:#000000;stroke-width:1.5;"/>
      <g>
       <use style="stroke:#000000;" x="46.772188" xlink:href="#m1b4bbbb5a2" y="214.135782"/>
      </g>
     </g>
     <g id="text_8">
      <!-- 25 -->
      <g style="fill:#4d4d4d;" transform="translate(26.552188 217.447032)scale(0.12 -0.12)">
       <use xlink:href="#DejaVuSans-50"/>
       <use x="63.623047" xlink:href="#DejaVuSans-53"/>
      </g>
     </g>
    </g>
    <g id="ytick_3">
     <g id="line2d_23">
      <path clip-path="url(#p284d96e23f)" d="M 46.772188 153.655782
L 403.892188 153.655782
" style="fill:none;stroke:#e5e5e5;stroke-width:0.8;"/>
     </g>
     <g id="line2d_24">
      <path d="M 46.772188 153.655782
" style="fill:none;stroke:#000000;stroke-width:1.5;"/>
      <g>
       <use style="stroke:#000000;" x="46.772188" xlink:href="#m1b4bbbb5a2" y="153.655782"/>
      </g>
     </g>
     <g id="text_9">
      <!-- 50 -->
      <g style="fill:#4d4d4d;" transform="translate(26.552188 156.967032)scale(0.12 -0.12)">
       <use xlink:href="#DejaVuSans-53"/>
       <use x="63.623047" xlink:href="#DejaVuSans-48"/>
      </g>
     </g>
    </g>
    <g id="ytick_4">
     <g id="line2d_25">
      <path clip-path="url(#p284d96e23f)" d="M 46.772188 93.175782
L 403.892188 93.175782
" style="fill:none;stroke:#e5e5e5;stroke-width:0.8;"/>
     </g>
     <g id="line2d_26">
      <path d="M 46.772188 93.175782
" style="fill:none;stroke:#000000;stroke-width:1.5;"/>
      <g>
       <use style="stroke:#000000;" x="46.772188" xlink:href="#m1b4bbbb5a2" y="93.175782"/>
      </g>
     </g>
     <g id="text_10">
      <!-- 75 -->
      <g style="fill:#4d4d4d;" transform="translate(26.552188 96.487032)scale(0.12 -0.12)">
       <use xlink:href="#DejaVuSans-55"/>
       <use x="63.623047" xlink:href="#DejaVuSans-53"/>
      </g>
     </g>
    </g>
    <g id="ytick_5">
     <g id="line2d_27">
      <path clip-path="url(#p284d96e23f)" d="M 46.772188 32.695782
L 403.892188 32.695782
" style="fill:none;stroke:#e5e5e5;stroke-width:0.8;"/>
     </g>
     <g id="line2d_28">
      <path d="M 46.772188 32.695782
" style="fill:none;stroke:#000000;stroke-width:1.5;"/>
      <g>
       <use style="stroke:#000000;" x="46.772188" xlink:href="#m1b4bbbb5a2" y="32.695782"/>
      </g>
     </g>
     <g id="text_11">
      <!-- 100 -->
      <g style="fill:#4d4d4d;" transform="translate(18.917188 36.007032)scale(0.12 -0.12)">
       <use xlink:href="#DejaVuSans-49"/>
       <use x="63.623047" xlink:href="#DejaVuSans-48"/>
       <use x="127.246094" xlink:href="#DejaVuSans-48"/>
      </g>
     </g>
    </g>
    <g id="ytick_6">
     <g id="line2d_29">
      <path clip-path="url(#p284d96e23f)" d="M 46.772188 244.375782
L 403.892188 244.375782
" style="fill:none;stroke:#fafafa;"/>
     </g>
     <g id="line2d_30">
      <path d="M 46.772188 244.375782
" style="fill:none;stroke:#000000;stroke-width:1.5;"/>
     </g>
    </g>
    <g id="ytick_7">
     <g id="line2d_31">
      <path clip-path="url(#p284d96e23f)" d="M 46.772188 183.895782
L 403.892188 183.895782
" style="fill:none;stroke:#fafafa;"/>
     </g>
     <g id="line2d_32">
      <path d="M 46.772188 183.895782
" style="fill:none;stroke:#000000;stroke-width:1.5;"/>
     </g>
    </g>
    <g id="ytick_8">
     <g id="line2d_33">
      <path clip-path="url(#p284d96e23f)" d="M 46.772188 123.415782
L 403.892188 123.415782
" style="fill:none;stroke:#fafafa;"/>
     </g>
     <g id="line2d_34">
      <path d="M 46.772188 123.415782
" style="fill:none;stroke:#000000;stroke-width:1.5;"/>
     </g>
    </g>
    <g id="ytick_9">
     <g id="line2d_35">
      <path clip-path="url(#p284d96e23f)" d="M 46.772188 62.935782
L 403.892188 62.935782
" style="fill:none;stroke:#fafafa;"/>
     </g>
     <g id="line2d_36">
      <path d="M 46.772188 62.935782
" style="fill:none;stroke:#000000;stroke-width:1.5;"/>
     </g>
    </g>
    <g id="text_12">
     <!-- CAMERA pathway ranking -->
     <defs>
      <path d="M 64.40625 67.28125
L 64.40625 56.890625
Q 59.421875 61.53125 53.78125 63.8125
Q 48.140625 66.109375 41.796875 66.109375
Q 29.296875 66.109375 22.65625 58.46875
Q 16.015625 50.828125 16.015625 36.375
Q 16.015625 21.96875 22.65625 14.328125
Q 29.296875 6.6875 41.796875 6.6875
Q 48.140625 6.6875 53.78125 8.984375
Q 59.421875 11.28125 64.40625 15.921875
L 64.40625 5.609375
Q 59.234375 2.09375 53.4375 0.328125
Q 47.65625 -1.421875 41.21875 -1.421875
Q 24.65625 -1.421875 15.125 8.703125
Q 5.609375 18.84375 5.609375 36.375
Q 5.609375 53.953125 15.125 64.078125
Q 24.65625 74.21875 41.21875 74.21875
Q 47.75 74.21875 53.53125 72.484375
Q 59.328125 70.75 64.40625 67.28125
z
" id="DejaVuSans-67"/>
      <path d="M 9.8125 72.90625
L 24.515625 72.90625
L 43.109375 23.296875
L 61.8125 72.90625
L 76.515625 72.90625
L 76.515625 0
L 66.890625 0
L 66.890625 64.015625
L 48.09375 14.015625
L 38.1875 14.015625
L 19.390625 64.015625
L 19.390625 0
L 9.8125 0
z
" id="DejaVuSans-77"/>
      <path d="M 44.390625 34.1875
Q 47.5625 33.109375 50.5625 29.59375
Q 53.5625 26.078125 56.59375 19.921875
L 66.609375 0
L 56 0
L 46.6875 18.703125
Q 43.0625 26.03125 39.671875 28.421875
Q 36.28125 30.8125 30.421875 30.8125
L 19.671875 30.8125
L 19.671875 0
L 9.8125 0
L 9.8125 72.90625
L 32.078125 72.90625
Q 44.578125 72.90625 50.734375 67.671875
Q 56.890625 62.453125 56.890625 51.90625
Q 56.890625 45.015625 53.6875 40.46875
Q 50.484375 35.9375 44.390625 34.1875
z
M 19.671875 64.796875
L 19.671875 38.921875
L 32.078125 38.921875
Q 39.203125 38.921875 42.84375 42.21875
Q 46.484375 45.515625 46.484375 51.90625
Q 46.484375 58.296875 42.84375 61.546875
Q 39.203125 64.796875 32.078125 64.796875
z
" id="DejaVuSans-82"/>
     </defs>
     <g transform="translate(11.397656 249.202782)rotate(-90)scale(0.15 -0.15)">
      <use xlink:href="#DejaVuSans-67"/>
      <use x="69.824219" xlink:href="#DejaVuSans-65"/>
      <use x="138.232422" xlink:href="#DejaVuSans-77"/>
      <use x="224.511719" xlink:href="#DejaVuSans-69"/>
      <use x="287.695312" xlink:href="#DejaVuSans-82"/>
      <use x="357.115234" xlink:href="#DejaVuSans-65"/>
      <use x="425.523438" xlink:href="#DejaVuSans-32"/>
      <use x="457.310547" xlink:href="#DejaVuSans-112"/>
      <use x="520.787109" xlink:href="#DejaVuSans-97"/>
      <use x="582.066406" xlink:href="#DejaVuSans-116"/>
      <use x="621.275391" xlink:href="#DejaVuSans-104"/>
      <use x="684.654297" xlink:href="#DejaVuSans-119"/>
      <use x="766.441406" xlink:href="#DejaVuSans-97"/>
      <use x="827.720703" xlink:href="#DejaVuSans-121"/>
      <use x="886.900391" xlink:href="#DejaVuSans-32"/>
      <use x="918.6875" xlink:href="#DejaVuSans-114"/>
      <use x="959.800781" xlink:href="#DejaVuSans-97"/>
      <use x="1021.080078" xlink:href="#DejaVuSans-110"/>
      <use x="1084.458984" xlink:href="#DejaVuSans-107"/>
      <use x="1142.369141" xlink:href="#DejaVuSans-105"/>
      <use x="1170.152344" xlink:href="#DejaVuSans-110"/>
      <use x="1233.53125" xlink:href="#DejaVuSans-103"/>
     </g>
    </g>
   </g>
   <g id="PathCollection_1">
    <path clip-path="url(#p284d96e23f)" d="M 149.57946 123.336807
C 150.04952 123.336807 150.500392 123.15005 150.832774 122.817668
C 151.165157 122.485285 151.351914 122.034414 151.351914 121.564353
C 151.351914 121.094293 151.165157 120.643422 150.832774 120.311039
C 150.500392 119.978657 150.04952 119.7919 149.57946 119.7919
C 149.1094 119.7919 148.658529 119.978657 148.326146 120.311039
C 147.993763 120.643422 147.807006 121.094293 147.807006 121.564353
C 147.807006 122.034414 147.993763 122.485285 148.326146 122.817668
C 148.658529 123.15005 149.1094 123.336807 149.57946 123.336807
z
" style="stroke:#000000;stroke-width:0.886227;"/>
    <path clip-path="url(#p284d96e23f)" d="M 63.004915 118.399664
C 63.474975 118.399664 63.925846 118.212908 64.258229 117.880525
C 64.590612 117.548142 64.777369 117.097271 64.777369 116.627211
C 64.777369 116.15715 64.590612 115.706279 64.258229 115.373897
C 63.925846 115.041514 63.474975 114.854757 63.004915 114.854757
C 62.534855 114.854757 62.083983 115.041514 61.751601 115.373897
C 61.419218 115.706279 61.232461 116.15715 61.232461 116.627211
C 61.232461 117.097271 61.419218 117.548142 61.751601 117.880525
C 62.083983 118.212908 62.534855 118.399664 63.004915 118.399664
z
" style="stroke:#000000;stroke-width:0.886227;"/>
    <path clip-path="url(#p284d96e23f)" d="M 142.364915 93.71395
C 142.834975 93.71395 143.285846 93.527193 143.618229 93.19481
C 143.950612 92.862428 144.137369 92.411557 144.137369 91.941496
C 144.137369 91.471436 143.950612 91.020565 143.618229 90.688182
C 143.285846 90.355799 142.834975 90.169043 142.364915 90.169043
C 141.894855 90.169043 141.443983 90.355799 141.111601 90.688182
C 140.779218 91.020565 140.592461 91.471436 140.592461 91.941496
C 140.592461 92.411557 140.779218 92.862428 141.111601 93.19481
C 141.443983 93.527193 141.894855 93.71395 142.364915 93.71395
z
" style="stroke:#000000;stroke-width:0.886227;"/>
    <path clip-path="url(#p284d96e23f)" d="M 286.655824 152.959664
C 287.125884 152.959664 287.576755 152.772908 287.909138 152.440525
C 288.241521 152.108142 288.428278 151.657271 288.428278 151.187211
C 288.428278 150.71715 288.241521 150.266279 287.909138 149.933897
C 287.576755 149.601514 287.125884 149.414757 286.655824 149.414757
C 286.185764 149.414757 285.734893 149.601514 285.40251 149.933897
C 285.070127 150.266279 284.88337 150.71715 284.88337 151.187211
C 284.88337 151.657271 285.070127 152.108142 285.40251 152.440525
C 285.734893 152.772908 286.185764 152.959664 286.655824 152.959664
z
" style="stroke:#000000;stroke-width:0.886227;"/>
    <path clip-path="url(#p284d96e23f)" d="M 373.230369 39.405379
C 373.70043 39.405379 374.151301 39.218622 374.483683 38.886239
C 374.816066 38.553856 375.002823 38.102985 375.002823 37.632925
C 375.002823 37.162865 374.816066 36.711994 374.483683 36.379611
C 374.151301 36.047228 373.70043 35.860471 373.230369 35.860471
C 372.760309 35.860471 372.309438 36.047228 371.977055 36.379611
C 371.644672 36.711994 371.457915 37.162865 371.457915 37.632925
C 371.457915 38.102985 371.644672 38.553856 371.977055 38.886239
C 372.309438 39.218622 372.760309 39.405379 373.230369 39.405379
z
" style="stroke:#000000;stroke-width:0.886227;"/>
    <path clip-path="url(#p284d96e23f)" d="M 99.077642 143.085379
C 99.547702 143.085379 99.998573 142.898622 100.330956 142.566239
C 100.663339 142.233856 100.850096 141.782985 100.850096 141.312925
C 100.850096 140.842865 100.663339 140.391994 100.330956 140.059611
C 99.998573 139.727228 99.547702 139.540471 99.077642 139.540471
C 98.607582 139.540471 98.156711 139.727228 97.824328 140.059611
C 97.491945 140.391994 97.305188 140.842865 97.305188 141.312925
C 97.305188 141.782985 97.491945 142.233856 97.824328 142.566239
C 98.156711 142.898622 98.607582 143.085379 99.077642 143.085379
z
" style="stroke:#000000;stroke-width:0.886227;"/>
    <path clip-path="url(#p284d96e23f)" d="M 63.004915 251.702522
C 63.474975 251.702522 63.925846 251.515765 64.258229 251.183382
C 64.590612 250.850999 64.777369 250.400128 64.777369 249.930068
C 64.777369 249.460008 64.590612 249.009136 64.258229 248.676754
C 63.925846 248.344371 63.474975 248.157614 63.004915 248.157614
C 62.534855 248.157614 62.083983 248.344371 61.751601 248.676754
C 61.419218 249.009136 61.232461 249.460008 61.232461 249.930068
C 61.232461 250.400128 61.419218 250.850999 61.751601 251.183382
C 62.083983 251.515765 62.534855 251.702522 63.004915 251.702522
z
" style="stroke:#000000;stroke-width:0.886227;"/>
    <path clip-path="url(#p284d96e23f)" d="M 171.223097 148.022522
C 171.693157 148.022522 172.144028 147.835765 172.476411 147.503382
C 172.808794 147.170999 172.99555 146.720128 172.99555 146.250068
C 172.99555 145.780008 172.808794 145.329136 172.476411 144.996754
C 172.144028 144.664371 171.693157 144.477614 171.223097 144.477614
C 170.753036 144.477614 170.302165 144.664371 169.969782 144.996754
C 169.6374 145.329136 169.450643 145.780008 169.450643 146.250068
C 169.450643 146.720128 169.6374 147.170999 169.969782 147.503382
C 170.302165 147.835765 170.753036 148.022522 171.223097 148.022522
z
" style="stroke:#000000;stroke-width:0.886227;"/>
    <path clip-path="url(#p284d96e23f)" d="M 113.506733 246.765379
C 113.976793 246.765379 114.427664 246.578622 114.760047 246.246239
C 115.09243 245.913856 115.279187 245.462985 115.279187 244.992925
C 115.279187 244.522865 115.09243 244.071994 114.760047 243.739611
C 114.427664 243.407228 113.976793 243.220471 113.506733 243.220471
C 113.036673 243.220471 112.585802 243.407228 112.253419 243.739611
C 111.921036 244.071994 111.734279 244.522865 111.734279 244.992925
C 111.734279 245.462985 111.921036 245.913856 112.253419 246.246239
C 112.585802 246.578622 113.036673 246.765379 113.506733 246.765379
z
" style="stroke:#000000;stroke-width:0.886227;"/>
    <path clip-path="url(#p284d96e23f)" d="M 387.65946 199.862522
C 388.12952 199.862522 388.580392 199.675765 388.912774 199.343382
C 389.245157 199.010999 389.431914 198.560128 389.431914 198.090068
C 389.431914 197.620008 389.245157 197.169136 388.912774 196.836754
C 388.580392 196.504371 388.12952 196.317614 387.65946 196.317614
C 387.1894 196.317614 386.738529 196.504371 386.406146 196.836754
C 386.073763 197.169136 385.887006 197.620008 385.887006 198.090068
C 385.887006 198.560128 386.073763 199.010999 386.406146 199.343382
C 386.738529 199.675765 387.1894 199.862522 387.65946 199.862522
z
" style="stroke:#000000;stroke-width:0.886227;"/>
    <path clip-path="url(#p284d96e23f)" d="M 228.93946 162.83395
C 229.40952 162.83395 229.860392 162.647193 230.192774 162.31481
C 230.525157 161.982428 230.711914 161.531557 230.711914 161.061496
C 230.711914 160.591436 230.525157 160.140565 230.192774 159.808182
C 229.860392 159.475799 229.40952 159.289043 228.93946 159.289043
C 228.4694 159.289043 228.018529 159.475799 227.686146 159.808182
C 227.353763 160.140565 227.167006 160.591436 227.167006 161.061496
C 227.167006 161.531557 227.353763 161.982428 227.686146 162.31481
C 228.018529 162.647193 228.4694 162.83395 228.93946 162.83395
z
" style="stroke:#000000;stroke-width:0.886227;"/>
    <path clip-path="url(#p284d96e23f)" d="M 272.226733 83.839664
C 272.696793 83.839664 273.147664 83.652908 273.480047 83.320525
C 273.81243 82.988142 273.999187 82.537271 273.999187 82.067211
C 273.999187 81.59715 273.81243 81.146279 273.480047 80.813897
C 273.147664 80.481514 272.696793 80.294757 272.226733 80.294757
C 271.756673 80.294757 271.305802 80.481514 270.973419 80.813897
C 270.641036 81.146279 270.454279 81.59715 270.454279 82.067211
C 270.454279 82.537271 270.641036 82.988142 270.973419 83.320525
C 271.305802 83.652908 271.756673 83.839664 272.226733 83.839664
z
" style="stroke:#000000;stroke-width:0.886227;"/>
    <path clip-path="url(#p284d96e23f)" d="M 63.004915 64.091093
C 63.474975 64.091093 63.925846 63.904336 64.258229 63.571953
C 64.590612 63.239571 64.777369 62.788699 64.777369 62.318639
C 64.777369 61.848579 64.590612 61.397708 64.258229 61.065325
C 63.925846 60.732942 63.474975 60.546185 63.004915 60.546185
C 62.534855 60.546185 62.083983 60.732942 61.751601 61.065325
C 61.419218 61.397708 61.232461 61.848579 61.232461 62.318639
C 61.232461 62.788699 61.419218 63.239571 61.751601 63.571953
C 62.083983 63.904336 62.534855 64.091093 63.004915 64.091093
z
" style="stroke:#000000;stroke-width:0.886227;"/>
    <path clip-path="url(#p284d96e23f)" d="M 120.721278 261.576807
C 121.191339 261.576807 121.64221 261.39005 121.974593 261.057668
C 122.306975 260.725285 122.493732 260.274414 122.493732 259.804353
C 122.493732 259.334293 122.306975 258.883422 121.974593 258.551039
C 121.64221 258.218657 121.191339 258.0319 120.721278 258.0319
C 120.251218 258.0319 119.800347 258.218657 119.467964 258.551039
C 119.135581 258.883422 118.948825 259.334293 118.948825 259.804353
C 118.948825 260.274414 119.135581 260.725285 119.467964 261.057668
C 119.800347 261.39005 120.251218 261.576807 120.721278 261.576807
z
" style="stroke:#000000;stroke-width:0.886227;"/>
    <path clip-path="url(#p284d96e23f)" d="M 63.004915 266.51395
C 63.474975 266.51395 63.925846 266.327193 64.258229 265.99481
C 64.590612 265.662428 64.777369 265.211557 64.777369 264.741496
C 64.777369 264.271436 64.590612 263.820565 64.258229 263.488182
C 63.925846 263.155799 63.474975 262.969043 63.004915 262.969043
C 62.534855 262.969043 62.083983 263.155799 61.751601 263.488182
C 61.419218 263.820565 61.232461 264.271436 61.232461 264.741496
C 61.232461 265.211557 61.419218 265.662428 61.751601 265.99481
C 62.083983 266.327193 62.534855 266.51395 63.004915 266.51395
z
" style="stroke:#000000;stroke-width:0.886227;"/>
    <path clip-path="url(#p284d96e23f)" d="M 380.444915 170.239664
C 380.914975 170.239664 381.365846 170.052908 381.698229 169.720525
C 382.030612 169.388142 382.217369 168.937271 382.217369 168.467211
C 382.217369 167.99715 382.030612 167.546279 381.698229 167.213897
C 381.365846 166.881514 380.914975 166.694757 380.444915 166.694757
C 379.974855 166.694757 379.523983 166.881514 379.191601 167.213897
C 378.859218 167.546279 378.672461 167.99715 378.672461 168.467211
C 378.672461 168.937271 378.859218 169.388142 379.191601 169.720525
C 379.523983 170.052908 379.974855 170.239664 380.444915 170.239664
z
" style="stroke:#000000;stroke-width:0.886227;"/>
    <path clip-path="url(#p284d96e23f)" d="M 63.004915 138.148236
C 63.474975 138.148236 63.925846 137.961479 64.258229 137.629096
C 64.590612 137.296713 64.777369 136.845842 64.777369 136.375782
C 64.777369 135.905722 64.590612 135.454851 64.258229 135.122468
C 63.925846 134.790085 63.474975 134.603328 63.004915 134.603328
C 62.534855 134.603328 62.083983 134.790085 61.751601 135.122468
C 61.419218 135.454851 61.232461 135.905722 61.232461 136.375782
C 61.232461 136.845842 61.419218 137.296713 61.751601 137.629096
C 62.083983 137.961479 62.534855 138.148236 63.004915 138.148236
z
" style="stroke:#000000;stroke-width:0.886227;"/>
    <path clip-path="url(#p284d96e23f)" d="M 156.794006 133.211093
C 157.264066 133.211093 157.714937 133.024336 158.04732 132.691953
C 158.379703 132.359571 158.56646 131.908699 158.56646 131.438639
C 158.56646 130.968579 158.379703 130.517708 158.04732 130.185325
C 157.714937 129.852942 157.264066 129.666185 156.794006 129.666185
C 156.323945 129.666185 155.873074 129.852942 155.540692 130.185325
C 155.208309 130.517708 155.021552 130.968579 155.021552 131.438639
C 155.021552 131.908699 155.208309 132.359571 155.540692 132.691953
C 155.873074 133.024336 156.323945 133.211093 156.794006 133.211093
z
" style="stroke:#000000;stroke-width:0.886227;"/>
    <path clip-path="url(#p284d96e23f)" d="M 344.372188 170.239664
C 344.842248 170.239664 345.293119 170.052908 345.625502 169.720525
C 345.957884 169.388142 346.144641 168.937271 346.144641 168.467211
C 346.144641 167.99715 345.957884 167.546279 345.625502 167.213897
C 345.293119 166.881514 344.842248 166.694757 344.372188 166.694757
C 343.902127 166.694757 343.451256 166.881514 343.118873 167.213897
C 342.786491 167.546279 342.599734 167.99715 342.599734 168.467211
C 342.599734 168.937271 342.786491 169.388142 343.118873 169.720525
C 343.451256 170.052908 343.902127 170.239664 344.372188 170.239664
z
" style="stroke:#000000;stroke-width:0.886227;"/>
    <path clip-path="url(#p284d96e23f)" d="M 221.724915 271.451093
C 222.194975 271.451093 222.645846 271.264336 222.978229 270.931953
C 223.310612 270.599571 223.497369 270.148699 223.497369 269.678639
C 223.497369 269.208579 223.310612 268.757708 222.978229 268.425325
C 222.645846 268.092942 222.194975 267.906185 221.724915 267.906185
C 221.254855 267.906185 220.803983 268.092942 220.471601 268.425325
C 220.139218 268.757708 219.952461 269.208579 219.952461 269.678639
C 219.952461 270.148699 220.139218 270.599571 220.471601 270.931953
C 220.803983 271.264336 221.254855 271.451093 221.724915 271.451093
z
" style="stroke:#000000;stroke-width:0.886227;"/>
    <path clip-path="url(#p284d96e23f)" d="M 301.084915 54.216807
C 301.554975 54.216807 302.005846 54.03005 302.338229 53.697668
C 302.670612 53.365285 302.857369 52.914414 302.857369 52.444353
C 302.857369 51.974293 302.670612 51.523422 302.338229 51.191039
C 302.005846 50.858657 301.554975 50.6719 301.084915 50.6719
C 300.614855 50.6719 300.163983 50.858657 299.831601 51.191039
C 299.499218 51.523422 299.312461 51.974293 299.312461 52.444353
C 299.312461 52.914414 299.499218 53.365285 299.831601 53.697668
C 300.163983 54.03005 300.614855 54.216807 301.084915 54.216807
z
" style="stroke:#000000;stroke-width:0.886227;"/>
    <path clip-path="url(#p284d96e23f)" d="M 63.004915 34.468236
C 63.474975 34.468236 63.925846 34.281479 64.258229 33.949096
C 64.590612 33.616713 64.777369 33.165842 64.777369 32.695782
C 64.777369 32.225722 64.590612 31.774851 64.258229 31.442468
C 63.925846 31.110085 63.474975 30.923328 63.004915 30.923328
C 62.534855 30.923328 62.083983 31.110085 61.751601 31.442468
C 61.419218 31.774851 61.232461 32.225722 61.232461 32.695782
C 61.232461 33.165842 61.419218 33.616713 61.751601 33.949096
C 62.083983 34.281479 62.534855 34.468236 63.004915 34.468236
z
" style="stroke:#000000;stroke-width:0.886227;"/>
    <path clip-path="url(#p284d96e23f)" d="M 243.368551 69.028236
C 243.838611 69.028236 244.289482 68.841479 244.621865 68.509096
C 244.954248 68.176713 245.141005 67.725842 245.141005 67.255782
C 245.141005 66.785722 244.954248 66.334851 244.621865 66.002468
C 244.289482 65.670085 243.838611 65.483328 243.368551 65.483328
C 242.898491 65.483328 242.44762 65.670085 242.115237 66.002468
C 241.782854 66.334851 241.596097 66.785722 241.596097 67.255782
C 241.596097 67.725842 241.782854 68.176713 242.115237 68.509096
C 242.44762 68.841479 242.898491 69.028236 243.368551 69.028236
z
" style="stroke:#000000;stroke-width:0.886227;"/>
    <path clip-path="url(#p284d96e23f)" d="M 265.012187 128.27395
C 265.482248 128.27395 265.933119 128.087193 266.265502 127.75481
C 266.597884 127.422428 266.784641 126.971557 266.784641 126.501496
C 266.784641 126.031436 266.597884 125.580565 266.265502 125.248182
C 265.933119 124.915799 265.482248 124.729043 265.012187 124.729043
C 264.542127 124.729043 264.091256 124.915799 263.758873 125.248182
C 263.426491 125.580565 263.239734 126.031436 263.239734 126.501496
C 263.239734 126.971557 263.426491 127.422428 263.758873 127.75481
C 264.091256 128.087193 264.542127 128.27395 265.012187 128.27395
z
" style="stroke:#000000;stroke-width:0.886227;"/>
    <path clip-path="url(#p284d96e23f)" d="M 337.157642 108.525379
C 337.627702 108.525379 338.078573 108.338622 338.410956 108.006239
C 338.743339 107.673856 338.930096 107.222985 338.930096 106.752925
C 338.930096 106.282865 338.743339 105.831994 338.410956 105.499611
C 338.078573 105.167228 337.627702 104.980471 337.157642 104.980471
C 336.687582 104.980471 336.236711 105.167228 335.904328 105.499611
C 335.571945 105.831994 335.385188 106.282865 335.385188 106.752925
C 335.385188 107.222985 335.571945 107.673856 335.904328 108.006239
C 336.236711 108.338622 336.687582 108.525379 337.157642 108.525379
z
" style="stroke:#000000;stroke-width:0.886227;"/>
    <path clip-path="url(#p284d96e23f)" d="M 358.801278 78.902522
C 359.271339 78.902522 359.72221 78.715765 360.054593 78.383382
C 360.386975 78.050999 360.573732 77.600128 360.573732 77.130068
C 360.573732 76.660008 360.386975 76.209136 360.054593 75.876754
C 359.72221 75.544371 359.271339 75.357614 358.801278 75.357614
C 358.331218 75.357614 357.880347 75.544371 357.547964 75.876754
C 357.215581 76.209136 357.028825 76.660008 357.028825 77.130068
C 357.028825 77.600128 357.215581 78.050999 357.547964 78.383382
C 357.880347 78.715765 358.331218 78.902522 358.801278 78.902522
z
" style="stroke:#000000;stroke-width:0.886227;"/>
    <path clip-path="url(#p284d96e23f)" d="M 322.728551 276.388236
C 323.198611 276.388236 323.649482 276.201479 323.981865 275.869096
C 324.314248 275.536713 324.501005 275.085842 324.501005 274.615782
C 324.501005 274.145722 324.314248 273.694851 323.981865 273.362468
C 323.649482 273.030085 323.198611 272.843328 322.728551 272.843328
C 322.258491 272.843328 321.80762 273.030085 321.475237 273.362468
C 321.142854 273.694851 320.956097 274.145722 320.956097 274.615782
C 320.956097 275.085842 321.142854 275.536713 321.475237 275.869096
C 321.80762 276.201479 322.258491 276.388236 322.728551 276.388236
z
" style="stroke:#000000;stroke-width:0.886227;"/>
    <path clip-path="url(#p284d96e23f)" d="M 366.015824 241.828236
C 366.485884 241.828236 366.936755 241.641479 367.269138 241.309096
C 367.601521 240.976713 367.788278 240.525842 367.788278 240.055782
C 367.788278 239.585722 367.601521 239.134851 367.269138 238.802468
C 366.936755 238.470085 366.485884 238.283328 366.015824 238.283328
C 365.545764 238.283328 365.094893 238.470085 364.76251 238.802468
C 364.430127 239.134851 364.24337 239.585722 364.24337 240.055782
C 364.24337 240.525842 364.430127 240.976713 364.76251 241.309096
C 365.094893 241.641479 365.545764 241.828236 366.015824 241.828236
z
" style="stroke:#000000;stroke-width:0.886227;"/>
    <path clip-path="url(#p284d96e23f)" d="M 106.292188 212.205379
C 106.762248 212.205379 107.213119 212.018622 107.545502 211.686239
C 107.877884 211.353856 108.064641 210.902985 108.064641 210.432925
C 108.064641 209.962865 107.877884 209.511994 107.545502 209.179611
C 107.213119 208.847228 106.762248 208.660471 106.292188 208.660471
C 105.822127 208.660471 105.371256 208.847228 105.038873 209.179611
C 104.706491 209.511994 104.519734 209.962865 104.519734 210.432925
C 104.519734 210.902985 104.706491 211.353856 105.038873 211.686239
C 105.371256 212.018622 105.822127 212.205379 106.292188 212.205379
z
" style="stroke:#000000;stroke-width:0.886227;"/>
    <path clip-path="url(#p284d96e23f)" d="M 185.652187 199.862522
C 186.122248 199.862522 186.573119 199.675765 186.905502 199.343382
C 187.237884 199.010999 187.424641 198.560128 187.424641 198.090068
C 187.424641 197.620008 187.237884 197.169136 186.905502 196.836754
C 186.573119 196.504371 186.122248 196.317614 185.652187 196.317614
C 185.182127 196.317614 184.731256 196.504371 184.398873 196.836754
C 184.066491 197.169136 183.879734 197.620008 183.879734 198.090068
C 183.879734 198.560128 184.066491 199.010999 184.398873 199.343382
C 184.731256 199.675765 185.182127 199.862522 185.652187 199.862522
z
" style="stroke:#000000;stroke-width:0.886227;"/>
    <path clip-path="url(#p284d96e23f)" d="M 207.295824 59.15395
C 207.765884 59.15395 208.216755 58.967193 208.549138 58.63481
C 208.881521 58.302428 209.068278 57.851557 209.068278 57.381496
C 209.068278 56.911436 208.881521 56.460565 208.549138 56.128182
C 208.216755 55.795799 207.765884 55.609043 207.295824 55.609043
C 206.825764 55.609043 206.374893 55.795799 206.04251 56.128182
C 205.710127 56.460565 205.52337 56.911436 205.52337 57.381496
C 205.52337 57.851557 205.710127 58.302428 206.04251 58.63481
C 206.374893 58.967193 206.825764 59.15395 207.295824 59.15395
z
" style="stroke:#000000;stroke-width:0.886227;"/>
    <path clip-path="url(#p284d96e23f)" d="M 192.866733 222.079664
C 193.336793 222.079664 193.787664 221.892908 194.120047 221.560525
C 194.45243 221.228142 194.639187 220.777271 194.639187 220.307211
C 194.639187 219.83715 194.45243 219.386279 194.120047 219.053897
C 193.787664 218.721514 193.336793 218.534757 192.866733 218.534757
C 192.396673 218.534757 191.945802 218.721514 191.613419 219.053897
C 191.281036 219.386279 191.094279 219.83715 191.094279 220.307211
C 191.094279 220.777271 191.281036 221.228142 191.613419 221.560525
C 191.945802 221.892908 192.396673 222.079664 192.866733 222.079664
z
" style="stroke:#000000;stroke-width:0.886227;"/>
    <path clip-path="url(#p284d96e23f)" d="M 178.437642 73.965379
C 178.907702 73.965379 179.358573 73.778622 179.690956 73.446239
C 180.023339 73.113856 180.210096 72.662985 180.210096 72.192925
C 180.210096 71.722865 180.023339 71.271994 179.690956 70.939611
C 179.358573 70.607228 178.907702 70.420471 178.437642 70.420471
C 177.967582 70.420471 177.516711 70.607228 177.184328 70.939611
C 176.851945 71.271994 176.665188 71.722865 176.665188 72.192925
C 176.665188 72.662985 176.851945 73.113856 177.184328 73.446239
C 177.516711 73.778622 177.967582 73.965379 178.437642 73.965379
z
" style="stroke:#000000;stroke-width:0.886227;"/>
    <path clip-path="url(#p284d96e23f)" d="M 279.441278 187.519664
C 279.911339 187.519664 280.36221 187.332908 280.694593 187.000525
C 281.026975 186.668142 281.213732 186.217271 281.213732 185.747211
C 281.213732 185.27715 281.026975 184.826279 280.694593 184.493897
C 280.36221 184.161514 279.911339 183.974757 279.441278 183.974757
C 278.971218 183.974757 278.520347 184.161514 278.187964 184.493897
C 277.855581 184.826279 277.668825 185.27715 277.668825 185.747211
C 277.668825 186.217271 277.855581 186.668142 278.187964 187.000525
C 278.520347 187.332908 278.971218 187.519664 279.441278 187.519664
z
" style="stroke:#000000;stroke-width:0.886227;"/>
    <path clip-path="url(#p284d96e23f)" d="M 135.150369 157.896807
C 135.62043 157.896807 136.071301 157.71005 136.403683 157.377668
C 136.736066 157.045285 136.922823 156.594414 136.922823 156.124353
C 136.922823 155.654293 136.736066 155.203422 136.403683 154.871039
C 136.071301 154.538657 135.62043 154.3519 135.150369 154.3519
C 134.680309 154.3519 134.229438 154.538657 133.897055 154.871039
C 133.564672 155.203422 133.377915 155.654293 133.377915 156.124353
C 133.377915 156.594414 133.564672 157.045285 133.897055 157.377668
C 134.229438 157.71005 134.680309 157.896807 135.150369 157.896807
z
" style="stroke:#000000;stroke-width:0.886227;"/>
    <path clip-path="url(#p284d96e23f)" d="M 257.797642 182.582522
C 258.267702 182.582522 258.718573 182.395765 259.050956 182.063382
C 259.383339 181.730999 259.570096 181.280128 259.570096 180.810068
C 259.570096 180.340008 259.383339 179.889136 259.050956 179.556754
C 258.718573 179.224371 258.267702 179.037614 257.797642 179.037614
C 257.327582 179.037614 256.876711 179.224371 256.544328 179.556754
C 256.211945 179.889136 256.025188 180.340008 256.025188 180.810068
C 256.025188 181.280128 256.211945 181.730999 256.544328 182.063382
C 256.876711 182.395765 257.327582 182.582522 257.797642 182.582522
z
" style="stroke:#000000;stroke-width:0.886227;"/>
    <path clip-path="url(#p284d96e23f)" d="M 250.583097 103.588236
C 251.053157 103.588236 251.504028 103.401479 251.836411 103.069096
C 252.168794 102.736713 252.35555 102.285842 252.35555 101.815782
C 252.35555 101.345722 252.168794 100.894851 251.836411 100.562468
C 251.504028 100.230085 251.053157 100.043328 250.583097 100.043328
C 250.113036 100.043328 249.662165 100.230085 249.329782 100.562468
C 248.9974 100.894851 248.810643 101.345722 248.810643 101.815782
C 248.810643 102.285842 248.9974 102.736713 249.329782 103.069096
C 249.662165 103.401479 250.113036 103.588236 250.583097 103.588236
z
" style="stroke:#000000;stroke-width:0.886227;"/>
    <path clip-path="url(#p284d96e23f)" d="M 293.870369 98.651093
C 294.34043 98.651093 294.791301 98.464336 295.123683 98.131953
C 295.456066 97.799571 295.642823 97.348699 295.642823 96.878639
C 295.642823 96.408579 295.456066 95.957708 295.123683 95.625325
C 294.791301 95.292942 294.34043 95.106185 293.870369 95.106185
C 293.400309 95.106185 292.949438 95.292942 292.617055 95.625325
C 292.284672 95.957708 292.097915 96.408579 292.097915 96.878639
C 292.097915 97.348699 292.284672 97.799571 292.617055 98.131953
C 292.949438 98.464336 293.400309 98.651093 293.870369 98.651093
z
" style="stroke:#000000;stroke-width:0.886227;"/>
    <path clip-path="url(#p284d96e23f)" d="M 351.586733 217.142522
C 352.056793 217.142522 352.507664 216.955765 352.840047 216.623382
C 353.17243 216.290999 353.359187 215.840128 353.359187 215.370068
C 353.359187 214.900008 353.17243 214.449136 352.840047 214.116754
C 352.507664 213.784371 352.056793 213.597614 351.586733 213.597614
C 351.116673 213.597614 350.665802 213.784371 350.333419 214.116754
C 350.001036 214.449136 349.814279 214.900008 349.814279 215.370068
C 349.814279 215.840128 350.001036 216.290999 350.333419 216.623382
C 350.665802 216.955765 351.116673 217.142522 351.586733 217.142522
z
" style="stroke:#000000;stroke-width:0.886227;"/>
    <path clip-path="url(#p284d96e23f)" d="M 63.004915 236.891093
C 63.474975 236.891093 63.925846 236.704336 64.258229 236.371953
C 64.590612 236.039571 64.777369 235.588699 64.777369 235.118639
C 64.777369 234.648579 64.590612 234.197708 64.258229 233.865325
C 63.925846 233.532942 63.474975 233.346185 63.004915 233.346185
C 62.534855 233.346185 62.083983 233.532942 61.751601 233.865325
C 61.419218 234.197708 61.232461 234.648579 61.232461 235.118639
C 61.232461 235.588699 61.419218 236.039571 61.751601 236.371953
C 62.083983 236.704336 62.534855 236.891093 63.004915 236.891093
z
" style="stroke:#000000;stroke-width:0.886227;"/>
    <path clip-path="url(#p284d96e23f)" d="M 127.935824 177.645379
C 128.405884 177.645379 128.856755 177.458622 129.189138 177.126239
C 129.521521 176.793856 129.708278 176.342985 129.708278 175.872925
C 129.708278 175.402865 129.521521 174.951994 129.189138 174.619611
C 128.856755 174.287228 128.405884 174.100471 127.935824 174.100471
C 127.465764 174.100471 127.014893 174.287228 126.68251 174.619611
C 126.350127 174.951994 126.16337 175.402865 126.16337 175.872925
C 126.16337 176.342985 126.350127 176.793856 126.68251 177.126239
C 127.014893 177.458622 127.465764 177.645379 127.935824 177.645379
z
" style="stroke:#000000;stroke-width:0.886227;"/>
    <path clip-path="url(#p284d96e23f)" d="M 214.510369 49.279664
C 214.98043 49.279664 215.431301 49.092908 215.763683 48.760525
C 216.096066 48.428142 216.282823 47.977271 216.282823 47.507211
C 216.282823 47.03715 216.096066 46.586279 215.763683 46.253897
C 215.431301 45.921514 214.98043 45.734757 214.510369 45.734757
C 214.040309 45.734757 213.589438 45.921514 213.257055 46.253897
C 212.924672 46.586279 212.737915 47.03715 212.737915 47.507211
C 212.737915 47.977271 212.924672 48.428142 213.257055 48.760525
C 213.589438 49.092908 214.040309 49.279664 214.510369 49.279664
z
" style="stroke:#000000;stroke-width:0.886227;"/>
    <path clip-path="url(#p284d96e23f)" d="M 200.081278 113.462522
C 200.551339 113.462522 201.00221 113.275765 201.334593 112.943382
C 201.666975 112.610999 201.853732 112.160128 201.853732 111.690068
C 201.853732 111.220008 201.666975 110.769136 201.334593 110.436754
C 201.00221 110.104371 200.551339 109.917614 200.081278 109.917614
C 199.611218 109.917614 199.160347 110.104371 198.827964 110.436754
C 198.495581 110.769136 198.308825 111.220008 198.308825 111.690068
C 198.308825 112.160128 198.495581 112.610999 198.827964 112.943382
C 199.160347 113.275765 199.611218 113.462522 200.081278 113.462522
z
" style="stroke:#000000;stroke-width:0.886227;"/>
    <path clip-path="url(#p284d96e23f)" d="M 329.943097 231.95395
C 330.413157 231.95395 330.864028 231.767193 331.196411 231.43481
C 331.528794 231.102428 331.71555 230.651557 331.71555 230.181496
C 331.71555 229.711436 331.528794 229.260565 331.196411 228.928182
C 330.864028 228.595799 330.413157 228.409043 329.943097 228.409043
C 329.473036 228.409043 329.022165 228.595799 328.689782 228.928182
C 328.3574 229.260565 328.170643 229.711436 328.170643 230.181496
C 328.170643 230.651557 328.3574 231.102428 328.689782 231.43481
C 329.022165 231.767193 329.473036 231.95395 329.943097 231.95395
z
" style="stroke:#000000;stroke-width:0.886227;"/>
    <path clip-path="url(#p284d96e23f)" d="M 236.154006 256.639664
C 236.624066 256.639664 237.074937 256.452908 237.40732 256.120525
C 237.739703 255.788142 237.92646 255.337271 237.92646 254.867211
C 237.92646 254.39715 237.739703 253.946279 237.40732 253.613897
C 237.074937 253.281514 236.624066 253.094757 236.154006 253.094757
C 235.683945 253.094757 235.233074 253.281514 234.900692 253.613897
C 234.568309 253.946279 234.381552 254.39715 234.381552 254.867211
C 234.381552 255.337271 234.568309 255.788142 234.900692 256.120525
C 235.233074 256.452908 235.683945 256.639664 236.154006 256.639664
z
" style="stroke:#000000;stroke-width:0.886227;"/>
    <path clip-path="url(#p284d96e23f)" d="M 63.004915 192.456807
C 63.474975 192.456807 63.925846 192.27005 64.258229 191.937668
C 64.590612 191.605285 64.777369 191.154414 64.777369 190.684353
C 64.777369 190.214293 64.590612 189.763422 64.258229 189.431039
C 63.925846 189.098657 63.474975 188.9119 63.004915 188.9119
C 62.534855 188.9119 62.083983 189.098657 61.751601 189.431039
C 61.419218 189.763422 61.232461 190.214293 61.232461 190.684353
C 61.232461 191.154414 61.419218 191.605285 61.751601 191.937668
C 62.083983 192.27005 62.534855 192.456807 63.004915 192.456807
z
" style="stroke:#000000;stroke-width:0.886227;"/>
    <path clip-path="url(#p284d96e23f)" d="M 63.004915 227.016807
C 63.474975 227.016807 63.925846 226.83005 64.258229 226.497668
C 64.590612 226.165285 64.777369 225.714414 64.777369 225.244353
C 64.777369 224.774293 64.590612 224.323422 64.258229 223.991039
C 63.925846 223.658657 63.474975 223.4719 63.004915 223.4719
C 62.534855 223.4719 62.083983 223.658657 61.751601 223.991039
C 61.419218 224.323422 61.232461 224.774293 61.232461 225.244353
C 61.232461 225.714414 61.419218 226.165285 61.751601 226.497668
C 62.083983 226.83005 62.534855 227.016807 63.004915 227.016807
z
" style="stroke:#000000;stroke-width:0.886227;"/>
    <path clip-path="url(#p284d96e23f)" d="M 164.008551 88.776807
C 164.478611 88.776807 164.929482 88.59005 165.261865 88.257668
C 165.594248 87.925285 165.781005 87.474414 165.781005 87.004353
C 165.781005 86.534293 165.594248 86.083422 165.261865 85.751039
C 164.929482 85.418657 164.478611 85.2319 164.008551 85.2319
C 163.538491 85.2319 163.08762 85.418657 162.755237 85.751039
C 162.422854 86.083422 162.236097 86.534293 162.236097 87.004353
C 162.236097 87.474414 162.422854 87.925285 162.755237 88.257668
C 163.08762 88.59005 163.538491 88.776807 164.008551 88.776807
z
" style="stroke:#000000;stroke-width:0.886227;"/>
    <path clip-path="url(#p284d96e23f)" d="M 308.29946 44.342522
C 308.76952 44.342522 309.220392 44.155765 309.552774 43.823382
C 309.885157 43.490999 310.071914 43.040128 310.071914 42.570068
C 310.071914 42.100008 309.885157 41.649136 309.552774 41.316754
C 309.220392 40.984371 308.76952 40.797614 308.29946 40.797614
C 307.8294 40.797614 307.378529 40.984371 307.046146 41.316754
C 306.713763 41.649136 306.527006 42.100008 306.527006 42.570068
C 306.527006 43.040128 306.713763 43.490999 307.046146 43.823382
C 307.378529 44.155765 307.8294 44.342522 308.29946 44.342522
z
" style="stroke:#000000;stroke-width:0.886227;"/>
    <path clip-path="url(#p284d96e23f)" d="M 315.514006 207.268236
C 315.984066 207.268236 316.434937 207.081479 316.76732 206.749096
C 317.099703 206.416713 317.28646 205.965842 317.28646 205.495782
C 317.28646 205.025722 317.099703 204.574851 316.76732 204.242468
C 316.434937 203.910085 315.984066 203.723328 315.514006 203.723328
C 315.043945 203.723328 314.593074 203.910085 314.260692 204.242468
C 313.928309 204.574851 313.741552 205.025722 313.741552 205.495782
C 313.741552 205.965842 313.928309 206.416713 314.260692 206.749096
C 314.593074 207.081479 315.043945 207.268236 315.514006 207.268236
z
" style="stroke:#000000;stroke-width:0.886227;"/>
   </g>
  </g>
  <g id="text_13">
   <!-- GSEA $v.s.$ CAMERA pathway ranking -->
   <defs>
    <path d="M 7.171875 54.6875
L 16.703125 54.6875
L 24.703125 8.203125
L 50.875 54.6875
L 60.40625 54.6875
L 29.296875 0
L 17.1875 0
z
" id="DejaVuSans-Oblique-118"/>
    <path d="M 10.6875 12.40625
L 21 12.40625
L 21 0
L 10.6875 0
z
" id="DejaVuSans-46"/>
    <path d="M 50 53.078125
L 48.296875 44.578125
Q 44.734375 46.53125 40.765625 47.5
Q 36.8125 48.484375 32.625 48.484375
Q 25.53125 48.484375 21.453125 46.0625
Q 17.390625 43.65625 17.390625 39.5
Q 17.390625 34.671875 26.859375 32.078125
Q 27.59375 31.890625 27.9375 31.78125
L 30.8125 30.90625
Q 39.796875 28.421875 42.796875 25.6875
Q 45.796875 22.953125 45.796875 18.21875
Q 45.796875 9.515625 38.890625 4.046875
Q 31.984375 -1.421875 20.796875 -1.421875
Q 16.453125 -1.421875 11.671875 -0.578125
Q 6.890625 0.25 1.125 2
L 2.875 11.28125
Q 7.8125 8.734375 12.59375 7.421875
Q 17.390625 6.109375 21.78125 6.109375
Q 28.375 6.109375 32.5 8.9375
Q 36.625 11.765625 36.625 16.109375
Q 36.625 20.796875 25.78125 23.6875
L 24.859375 23.921875
L 21.78125 24.703125
Q 14.9375 26.515625 11.765625 29.46875
Q 8.59375 32.421875 8.59375 37.015625
Q 8.59375 45.75 15.15625 50.875
Q 21.734375 56 33.015625 56
Q 37.453125 56 41.671875 55.265625
Q 45.90625 54.546875 50 53.078125
z
" id="DejaVuSans-Oblique-115"/>
   </defs>
   <g transform="translate(80.972188 11.4)scale(0.15 -0.15)">
    <use transform="translate(0 0.015625)" xlink:href="#DejaVuSans-71"/>
    <use transform="translate(77.490234 0.015625)" xlink:href="#DejaVuSans-83"/>
    <use transform="translate(140.966797 0.015625)" xlink:href="#DejaVuSans-69"/>
    <use transform="translate(204.150391 0.015625)" xlink:href="#DejaVuSans-65"/>
    <use transform="translate(272.558594 0.015625)" xlink:href="#DejaVuSans-32"/>
    <use transform="translate(304.345703 0.015625)" xlink:href="#DejaVuSans-Oblique-118"/>
    <use transform="translate(363.525391 0.015625)" xlink:href="#DejaVuSans-46"/>
    <use transform="translate(414.794922 0.015625)" xlink:href="#DejaVuSans-Oblique-115"/>
    <use transform="translate(466.894531 0.015625)" xlink:href="#DejaVuSans-46"/>
    <use transform="translate(518.164062 0.015625)" xlink:href="#DejaVuSans-32"/>
    <use transform="translate(549.951172 0.015625)" xlink:href="#DejaVuSans-67"/>
    <use transform="translate(619.775391 0.015625)" xlink:href="#DejaVuSans-65"/>
    <use transform="translate(688.183594 0.015625)" xlink:href="#DejaVuSans-77"/>
    <use transform="translate(774.462891 0.015625)" xlink:href="#DejaVuSans-69"/>
    <use transform="translate(837.646484 0.015625)" xlink:href="#DejaVuSans-82"/>
    <use transform="translate(907.128906 0.015625)" xlink:href="#DejaVuSans-65"/>
    <use transform="translate(975.537109 0.015625)" xlink:href="#DejaVuSans-32"/>
    <use transform="translate(1007.324219 0.015625)" xlink:href="#DejaVuSans-112"/>
    <use transform="translate(1070.800781 0.015625)" xlink:href="#DejaVuSans-97"/>
    <use transform="translate(1132.080078 0.015625)" xlink:href="#DejaVuSans-116"/>
    <use transform="translate(1171.289062 0.015625)" xlink:href="#DejaVuSans-104"/>
    <use transform="translate(1234.667969 0.015625)" xlink:href="#DejaVuSans-119"/>
    <use transform="translate(1316.455078 0.015625)" xlink:href="#DejaVuSans-97"/>
    <use transform="translate(1377.734375 0.015625)" xlink:href="#DejaVuSans-121"/>
    <use transform="translate(1436.914062 0.015625)" xlink:href="#DejaVuSans-32"/>
    <use transform="translate(1468.701172 0.015625)" xlink:href="#DejaVuSans-114"/>
    <use transform="translate(1509.814453 0.015625)" xlink:href="#DejaVuSans-97"/>
    <use transform="translate(1571.09375 0.015625)" xlink:href="#DejaVuSans-110"/>
    <use transform="translate(1634.472656 0.015625)" xlink:href="#DejaVuSans-107"/>
    <use transform="translate(1692.382812 0.015625)" xlink:href="#DejaVuSans-105"/>
    <use transform="translate(1720.166016 0.015625)" xlink:href="#DejaVuSans-110"/>
    <use transform="translate(1783.544922 0.015625)" xlink:href="#DejaVuSans-103"/>
   </g>
  </g>
 </g>
 <defs>
  <clipPath id="p284d96e23f">
   <rect height="266.112" width="357.12" x="46.772188" y="20.599782"/>
  </clipPath>
 </defs>
</svg>
