<?xml version="1.0" encoding="utf-8" standalone="no"?>
<!DOCTYPE svg PUBLIC "-//W3C//DTD SVG 1.1//EN"
  "http://www.w3.org/Graphics/SVG/1.1/DTD/svg11.dtd">
<!-- Created with matplotlib (https://matplotlib.org/) -->
<svg height="322.176313pt" version="1.1" viewBox="0 0 406.642188 322.176313" width="406.642188pt" xmlns="http://www.w3.org/2000/svg" xmlns:xlink="http://www.w3.org/1999/xlink">
 <defs>
  <style type="text/css">
*{stroke-linecap:butt;stroke-linejoin:round;}
  </style>
 </defs>
 <g id="figure_1">
  <g id="patch_1">
   <path d="M 0 322.176313
L 406.642188 322.176313
L 406.642188 0
L 0 0
z
" style="fill:#ffffff;stroke:#ffffff;stroke-linejoin:miter;"/>
  </g>
  <g id="axes_1">
   <g id="patch_2">
    <path d="M 46.772188 286.695376
L 403.892188 286.695376
L 403.892188 20.583376
L 46.772188 20.583376
z
" style="fill:none;"/>
   </g>
   <g id="matplotlib.axis_1">
    <g id="xtick_1">
     <g id="line2d_1">
      <path clip-path="url(#pe43e732243)" d="M 63.004915 286.695376
L 63.004915 20.583376
" style="fill:none;stroke:#e5e5e5;stroke-width:0.8;"/>
     </g>
     <g id="line2d_2">
      <path d="M 63.004915 286.695376
" style="fill:none;stroke:#000000;stroke-width:1.5;"/>
      <defs>
       <path d="M 0 0
L 0 2.75
" id="m0255d95358" style="stroke:#000000;"/>
      </defs>
      <g>
       <use style="stroke:#000000;" x="63.004915" xlink:href="#m0255d95358" y="286.695376"/>
      </g>
     </g>
     <g id="text_1">
      <!-- 0 -->
      <defs>
       <path d="M 31.78125 66.40625
Q 24.171875 66.40625 20.328125 58.90625
Q 16.5 51.421875 16.5 36.375
Q 16.5 21.390625 20.328125 13.890625
Q 24.171875 6.390625 31.78125 6.390625
Q 39.453125 6.390625 43.28125 13.890625
Q 47.125 21.390625 47.125 36.375
Q 47.125 51.421875 43.28125 58.90625
Q 39.453125 66.40625 31.78125 66.40625
z
M 31.78125 74.21875
Q 44.046875 74.21875 50.515625 64.515625
Q 56.984375 54.828125 56.984375 36.375
Q 56.984375 17.96875 50.515625 8.265625
Q 44.046875 -1.421875 31.78125 -1.421875
Q 19.53125 -1.421875 13.0625 8.265625
Q 6.59375 17.96875 6.59375 36.375
Q 6.59375 54.828125 13.0625 64.515625
Q 19.53125 74.21875 31.78125 74.21875
z
" id="DejaVuSans-48"/>
      </defs>
      <g style="fill:#4d4d4d;" transform="translate(59.187415 300.763501)scale(0.12 -0.12)">
       <use xlink:href="#DejaVuSans-48"/>
      </g>
     </g>
    </g>
    <g id="xtick_2">
     <g id="line2d_3">
      <path clip-path="url(#pe43e732243)" d="M 144.168551 286.695376
L 144.168551 20.583376
" style="fill:none;stroke:#e5e5e5;stroke-width:0.8;"/>
     </g>
     <g id="line2d_4">
      <path d="M 144.168551 286.695376
" style="fill:none;stroke:#000000;stroke-width:1.5;"/>
      <g>
       <use style="stroke:#000000;" x="144.168551" xlink:href="#m0255d95358" y="286.695376"/>
      </g>
     </g>
     <g id="text_2">
      <!-- 0.25 -->
      <defs>
       <path d="M 10.6875 12.40625
L 21 12.40625
L 21 0
L 10.6875 0
z
" id="DejaVuSans-46"/>
       <path d="M 19.1875 8.296875
L 53.609375 8.296875
L 53.609375 0
L 7.328125 0
L 7.328125 8.296875
Q 12.9375 14.109375 22.625 23.890625
Q 32.328125 33.6875 34.8125 36.53125
Q 39.546875 41.84375 41.421875 45.53125
Q 43.3125 49.21875 43.3125 52.78125
Q 43.3125 58.59375 39.234375 62.25
Q 35.15625 65.921875 28.609375 65.921875
Q 23.96875 65.921875 18.8125 64.3125
Q 13.671875 62.703125 7.8125 59.421875
L 7.8125 69.390625
Q 13.765625 71.78125 18.9375 73
Q 24.125 74.21875 28.421875 74.21875
Q 39.75 74.21875 46.484375 68.546875
Q 53.21875 62.890625 53.21875 53.421875
Q 53.21875 48.921875 51.53125 44.890625
Q 49.859375 40.875 45.40625 35.40625
Q 44.1875 33.984375 37.640625 27.21875
Q 31.109375 20.453125 19.1875 8.296875
z
" id="DejaVuSans-50"/>
       <path d="M 10.796875 72.90625
L 49.515625 72.90625
L 49.515625 64.59375
L 19.828125 64.59375
L 19.828125 46.734375
Q 21.96875 47.46875 24.109375 47.828125
Q 26.265625 48.1875 28.421875 48.1875
Q 40.625 48.1875 47.75 41.5
Q 54.890625 34.8125 54.890625 23.390625
Q 54.890625 11.625 47.5625 5.09375
Q 40.234375 -1.421875 26.90625 -1.421875
Q 22.3125 -1.421875 17.546875 -0.640625
Q 12.796875 0.140625 7.71875 1.703125
L 7.71875 11.625
Q 12.109375 9.234375 16.796875 8.0625
Q 21.484375 6.890625 26.703125 6.890625
Q 35.15625 6.890625 40.078125 11.328125
Q 45.015625 15.765625 45.015625 23.390625
Q 45.015625 31 40.078125 35.4375
Q 35.15625 39.890625 26.703125 39.890625
Q 22.75 39.890625 18.8125 39.015625
Q 14.890625 38.140625 10.796875 36.28125
z
" id="DejaVuSans-53"/>
      </defs>
      <g style="fill:#4d4d4d;" transform="translate(130.809176 300.763501)scale(0.12 -0.12)">
       <use xlink:href="#DejaVuSans-48"/>
       <use x="63.623047" xlink:href="#DejaVuSans-46"/>
       <use x="95.410156" xlink:href="#DejaVuSans-50"/>
       <use x="159.033203" xlink:href="#DejaVuSans-53"/>
      </g>
     </g>
    </g>
    <g id="xtick_3">
     <g id="line2d_5">
      <path clip-path="url(#pe43e732243)" d="M 225.332188 286.695376
L 225.332188 20.583376
" style="fill:none;stroke:#e5e5e5;stroke-width:0.8;"/>
     </g>
     <g id="line2d_6">
      <path d="M 225.332188 286.695376
" style="fill:none;stroke:#000000;stroke-width:1.5;"/>
      <g>
       <use style="stroke:#000000;" x="225.332188" xlink:href="#m0255d95358" y="286.695376"/>
      </g>
     </g>
     <g id="text_3">
      <!-- 0.50 -->
      <g style="fill:#4d4d4d;" transform="translate(211.972813 300.763501)scale(0.12 -0.12)">
       <use xlink:href="#DejaVuSans-48"/>
       <use x="63.623047" xlink:href="#DejaVuSans-46"/>
       <use x="95.410156" xlink:href="#DejaVuSans-53"/>
       <use x="159.033203" xlink:href="#DejaVuSans-48"/>
      </g>
     </g>
    </g>
    <g id="xtick_4">
     <g id="line2d_7">
      <path clip-path="url(#pe43e732243)" d="M 306.495824 286.695376
L 306.495824 20.583376
" style="fill:none;stroke:#e5e5e5;stroke-width:0.8;"/>
     </g>
     <g id="line2d_8">
      <path d="M 306.495824 286.695376
" style="fill:none;stroke:#000000;stroke-width:1.5;"/>
      <g>
       <use style="stroke:#000000;" x="306.495824" xlink:href="#m0255d95358" y="286.695376"/>
      </g>
     </g>
     <g id="text_4">
      <!-- 0.75 -->
      <defs>
       <path d="M 8.203125 72.90625
L 55.078125 72.90625
L 55.078125 68.703125
L 28.609375 0
L 18.3125 0
L 43.21875 64.59375
L 8.203125 64.59375
z
" id="DejaVuSans-55"/>
      </defs>
      <g style="fill:#4d4d4d;" transform="translate(293.136449 300.763501)scale(0.12 -0.12)">
       <use xlink:href="#DejaVuSans-48"/>
       <use x="63.623047" xlink:href="#DejaVuSans-46"/>
       <use x="95.410156" xlink:href="#DejaVuSans-55"/>
       <use x="159.033203" xlink:href="#DejaVuSans-53"/>
      </g>
     </g>
    </g>
    <g id="xtick_5">
     <g id="line2d_9">
      <path clip-path="url(#pe43e732243)" d="M 387.65946 286.695376
L 387.65946 20.583376
" style="fill:none;stroke:#e5e5e5;stroke-width:0.8;"/>
     </g>
     <g id="line2d_10">
      <path d="M 387.65946 286.695376
" style="fill:none;stroke:#000000;stroke-width:1.5;"/>
      <g>
       <use style="stroke:#000000;" x="387.65946" xlink:href="#m0255d95358" y="286.695376"/>
      </g>
     </g>
     <g id="text_5">
      <!-- 1 -->
      <defs>
       <path d="M 12.40625 8.296875
L 28.515625 8.296875
L 28.515625 63.921875
L 10.984375 60.40625
L 10.984375 69.390625
L 28.421875 72.90625
L 38.28125 72.90625
L 38.28125 8.296875
L 54.390625 8.296875
L 54.390625 0
L 12.40625 0
z
" id="DejaVuSans-49"/>
      </defs>
      <g style="fill:#4d4d4d;" transform="translate(383.84196 300.763501)scale(0.12 -0.12)">
       <use xlink:href="#DejaVuSans-49"/>
      </g>
     </g>
    </g>
    <g id="xtick_6">
     <g id="line2d_11">
      <path clip-path="url(#pe43e732243)" d="M 103.586733 286.695376
L 103.586733 20.583376
" style="fill:none;stroke:#fafafa;"/>
     </g>
     <g id="line2d_12">
      <path d="M 103.586733 286.695376
" style="fill:none;stroke:#000000;stroke-width:1.5;"/>
     </g>
    </g>
    <g id="xtick_7">
     <g id="line2d_13">
      <path clip-path="url(#pe43e732243)" d="M 184.750369 286.695376
L 184.750369 20.583376
" style="fill:none;stroke:#fafafa;"/>
     </g>
     <g id="line2d_14">
      <path d="M 184.750369 286.695376
" style="fill:none;stroke:#000000;stroke-width:1.5;"/>
     </g>
    </g>
    <g id="xtick_8">
     <g id="line2d_15">
      <path clip-path="url(#pe43e732243)" d="M 265.914006 286.695376
L 265.914006 20.583376
" style="fill:none;stroke:#fafafa;"/>
     </g>
     <g id="line2d_16">
      <path d="M 265.914006 286.695376
" style="fill:none;stroke:#000000;stroke-width:1.5;"/>
     </g>
    </g>
    <g id="xtick_9">
     <g id="line2d_17">
      <path clip-path="url(#pe43e732243)" d="M 347.077642 286.695376
L 347.077642 20.583376
" style="fill:none;stroke:#fafafa;"/>
     </g>
     <g id="line2d_18">
      <path d="M 347.077642 286.695376
" style="fill:none;stroke:#000000;stroke-width:1.5;"/>
     </g>
    </g>
    <g id="text_6">
     <!-- Median(adjusted p-value (BH)) -->
     <defs>
      <path d="M 9.8125 72.90625
L 24.515625 72.90625
L 43.109375 23.296875
L 61.8125 72.90625
L 76.515625 72.90625
L 76.515625 0
L 66.890625 0
L 66.890625 64.015625
L 48.09375 14.015625
L 38.1875 14.015625
L 19.390625 64.015625
L 19.390625 0
L 9.8125 0
z
" id="DejaVuSans-77"/>
      <path d="M 56.203125 29.59375
L 56.203125 25.203125
L 14.890625 25.203125
Q 15.484375 15.921875 20.484375 11.0625
Q 25.484375 6.203125 34.421875 6.203125
Q 39.59375 6.203125 44.453125 7.46875
Q 49.3125 8.734375 54.109375 11.28125
L 54.109375 2.78125
Q 49.265625 0.734375 44.1875 -0.34375
Q 39.109375 -1.421875 33.890625 -1.421875
Q 20.796875 -1.421875 13.15625 6.1875
Q 5.515625 13.8125 5.515625 26.8125
Q 5.515625 40.234375 12.765625 48.109375
Q 20.015625 56 32.328125 56
Q 43.359375 56 49.78125 48.890625
Q 56.203125 41.796875 56.203125 29.59375
z
M 47.21875 32.234375
Q 47.125 39.59375 43.09375 43.984375
Q 39.0625 48.390625 32.421875 48.390625
Q 24.90625 48.390625 20.390625 44.140625
Q 15.875 39.890625 15.1875 32.171875
z
" id="DejaVuSans-101"/>
      <path d="M 45.40625 46.390625
L 45.40625 75.984375
L 54.390625 75.984375
L 54.390625 0
L 45.40625 0
L 45.40625 8.203125
Q 42.578125 3.328125 38.25 0.953125
Q 33.9375 -1.421875 27.875 -1.421875
Q 17.96875 -1.421875 11.734375 6.484375
Q 5.515625 14.40625 5.515625 27.296875
Q 5.515625 40.1875 11.734375 48.09375
Q 17.96875 56 27.875 56
Q 33.9375 56 38.25 53.625
Q 42.578125 51.265625 45.40625 46.390625
z
M 14.796875 27.296875
Q 14.796875 17.390625 18.875 11.75
Q 22.953125 6.109375 30.078125 6.109375
Q 37.203125 6.109375 41.296875 11.75
Q 45.40625 17.390625 45.40625 27.296875
Q 45.40625 37.203125 41.296875 42.84375
Q 37.203125 48.484375 30.078125 48.484375
Q 22.953125 48.484375 18.875 42.84375
Q 14.796875 37.203125 14.796875 27.296875
z
" id="DejaVuSans-100"/>
      <path d="M 9.421875 54.6875
L 18.40625 54.6875
L 18.40625 0
L 9.421875 0
z
M 9.421875 75.984375
L 18.40625 75.984375
L 18.40625 64.59375
L 9.421875 64.59375
z
" id="DejaVuSans-105"/>
      <path d="M 34.28125 27.484375
Q 23.390625 27.484375 19.1875 25
Q 14.984375 22.515625 14.984375 16.5
Q 14.984375 11.71875 18.140625 8.90625
Q 21.296875 6.109375 26.703125 6.109375
Q 34.1875 6.109375 38.703125 11.40625
Q 43.21875 16.703125 43.21875 25.484375
L 43.21875 27.484375
z
M 52.203125 31.203125
L 52.203125 0
L 43.21875 0
L 43.21875 8.296875
Q 40.140625 3.328125 35.546875 0.953125
Q 30.953125 -1.421875 24.3125 -1.421875
Q 15.921875 -1.421875 10.953125 3.296875
Q 6 8.015625 6 15.921875
Q 6 25.140625 12.171875 29.828125
Q 18.359375 34.515625 30.609375 34.515625
L 43.21875 34.515625
L 43.21875 35.40625
Q 43.21875 41.609375 39.140625 45
Q 35.0625 48.390625 27.6875 48.390625
Q 23 48.390625 18.546875 47.265625
Q 14.109375 46.140625 10.015625 43.890625
L 10.015625 52.203125
Q 14.9375 54.109375 19.578125 55.046875
Q 24.21875 56 28.609375 56
Q 40.484375 56 46.34375 49.84375
Q 52.203125 43.703125 52.203125 31.203125
z
" id="DejaVuSans-97"/>
      <path d="M 54.890625 33.015625
L 54.890625 0
L 45.90625 0
L 45.90625 32.71875
Q 45.90625 40.484375 42.875 44.328125
Q 39.84375 48.1875 33.796875 48.1875
Q 26.515625 48.1875 22.3125 43.546875
Q 18.109375 38.921875 18.109375 30.90625
L 18.109375 0
L 9.078125 0
L 9.078125 54.6875
L 18.109375 54.6875
L 18.109375 46.1875
Q 21.34375 51.125 25.703125 53.5625
Q 30.078125 56 35.796875 56
Q 45.21875 56 50.046875 50.171875
Q 54.890625 44.34375 54.890625 33.015625
z
" id="DejaVuSans-110"/>
      <path d="M 31 75.875
Q 24.46875 64.65625 21.28125 53.65625
Q 18.109375 42.671875 18.109375 31.390625
Q 18.109375 20.125 21.3125 9.0625
Q 24.515625 -2 31 -13.1875
L 23.1875 -13.1875
Q 15.875 -1.703125 12.234375 9.375
Q 8.59375 20.453125 8.59375 31.390625
Q 8.59375 42.28125 12.203125 53.3125
Q 15.828125 64.359375 23.1875 75.875
z
" id="DejaVuSans-40"/>
      <path d="M 9.421875 54.6875
L 18.40625 54.6875
L 18.40625 -0.984375
Q 18.40625 -11.421875 14.421875 -16.109375
Q 10.453125 -20.796875 1.609375 -20.796875
L -1.8125 -20.796875
L -1.8125 -13.1875
L 0.59375 -13.1875
Q 5.71875 -13.1875 7.5625 -10.8125
Q 9.421875 -8.453125 9.421875 -0.984375
z
M 9.421875 75.984375
L 18.40625 75.984375
L 18.40625 64.59375
L 9.421875 64.59375
z
" id="DejaVuSans-106"/>
      <path d="M 8.5 21.578125
L 8.5 54.6875
L 17.484375 54.6875
L 17.484375 21.921875
Q 17.484375 14.15625 20.5 10.265625
Q 23.53125 6.390625 29.59375 6.390625
Q 36.859375 6.390625 41.078125 11.03125
Q 45.3125 15.671875 45.3125 23.6875
L 45.3125 54.6875
L 54.296875 54.6875
L 54.296875 0
L 45.3125 0
L 45.3125 8.40625
Q 42.046875 3.421875 37.71875 1
Q 33.40625 -1.421875 27.6875 -1.421875
Q 18.265625 -1.421875 13.375 4.4375
Q 8.5 10.296875 8.5 21.578125
z
M 31.109375 56
z
" id="DejaVuSans-117"/>
      <path d="M 44.28125 53.078125
L 44.28125 44.578125
Q 40.484375 46.53125 36.375 47.5
Q 32.28125 48.484375 27.875 48.484375
Q 21.1875 48.484375 17.84375 46.4375
Q 14.5 44.390625 14.5 40.28125
Q 14.5 37.15625 16.890625 35.375
Q 19.28125 33.59375 26.515625 31.984375
L 29.59375 31.296875
Q 39.15625 29.25 43.1875 25.515625
Q 47.21875 21.78125 47.21875 15.09375
Q 47.21875 7.46875 41.1875 3.015625
Q 35.15625 -1.421875 24.609375 -1.421875
Q 20.21875 -1.421875 15.453125 -0.5625
Q 10.6875 0.296875 5.421875 2
L 5.421875 11.28125
Q 10.40625 8.6875 15.234375 7.390625
Q 20.0625 6.109375 24.8125 6.109375
Q 31.15625 6.109375 34.5625 8.28125
Q 37.984375 10.453125 37.984375 14.40625
Q 37.984375 18.0625 35.515625 20.015625
Q 33.0625 21.96875 24.703125 23.78125
L 21.578125 24.515625
Q 13.234375 26.265625 9.515625 29.90625
Q 5.8125 33.546875 5.8125 39.890625
Q 5.8125 47.609375 11.28125 51.796875
Q 16.75 56 26.8125 56
Q 31.78125 56 36.171875 55.265625
Q 40.578125 54.546875 44.28125 53.078125
z
" id="DejaVuSans-115"/>
      <path d="M 18.3125 70.21875
L 18.3125 54.6875
L 36.8125 54.6875
L 36.8125 47.703125
L 18.3125 47.703125
L 18.3125 18.015625
Q 18.3125 11.328125 20.140625 9.421875
Q 21.96875 7.515625 27.59375 7.515625
L 36.8125 7.515625
L 36.8125 0
L 27.59375 0
Q 17.1875 0 13.234375 3.875
Q 9.28125 7.765625 9.28125 18.015625
L 9.28125 47.703125
L 2.6875 47.703125
L 2.6875 54.6875
L 9.28125 54.6875
L 9.28125 70.21875
z
" id="DejaVuSans-116"/>
      <path id="DejaVuSans-32"/>
      <path d="M 18.109375 8.203125
L 18.109375 -20.796875
L 9.078125 -20.796875
L 9.078125 54.6875
L 18.109375 54.6875
L 18.109375 46.390625
Q 20.953125 51.265625 25.265625 53.625
Q 29.59375 56 35.59375 56
Q 45.5625 56 51.78125 48.09375
Q 58.015625 40.1875 58.015625 27.296875
Q 58.015625 14.40625 51.78125 6.484375
Q 45.5625 -1.421875 35.59375 -1.421875
Q 29.59375 -1.421875 25.265625 0.953125
Q 20.953125 3.328125 18.109375 8.203125
z
M 48.6875 27.296875
Q 48.6875 37.203125 44.609375 42.84375
Q 40.53125 48.484375 33.40625 48.484375
Q 26.265625 48.484375 22.1875 42.84375
Q 18.109375 37.203125 18.109375 27.296875
Q 18.109375 17.390625 22.1875 11.75
Q 26.265625 6.109375 33.40625 6.109375
Q 40.53125 6.109375 44.609375 11.75
Q 48.6875 17.390625 48.6875 27.296875
z
" id="DejaVuSans-112"/>
      <path d="M 4.890625 31.390625
L 31.203125 31.390625
L 31.203125 23.390625
L 4.890625 23.390625
z
" id="DejaVuSans-45"/>
      <path d="M 2.984375 54.6875
L 12.5 54.6875
L 29.59375 8.796875
L 46.6875 54.6875
L 56.203125 54.6875
L 35.6875 0
L 23.484375 0
z
" id="DejaVuSans-118"/>
      <path d="M 9.421875 75.984375
L 18.40625 75.984375
L 18.40625 0
L 9.421875 0
z
" id="DejaVuSans-108"/>
      <path d="M 19.671875 34.8125
L 19.671875 8.109375
L 35.5 8.109375
Q 43.453125 8.109375 47.28125 11.40625
Q 51.125 14.703125 51.125 21.484375
Q 51.125 28.328125 47.28125 31.5625
Q 43.453125 34.8125 35.5 34.8125
z
M 19.671875 64.796875
L 19.671875 42.828125
L 34.28125 42.828125
Q 41.5 42.828125 45.03125 45.53125
Q 48.578125 48.25 48.578125 53.8125
Q 48.578125 59.328125 45.03125 62.0625
Q 41.5 64.796875 34.28125 64.796875
z
M 9.8125 72.90625
L 35.015625 72.90625
Q 46.296875 72.90625 52.390625 68.21875
Q 58.5 63.53125 58.5 54.890625
Q 58.5 48.1875 55.375 44.234375
Q 52.25 40.28125 46.1875 39.3125
Q 53.46875 37.75 57.5 32.78125
Q 61.53125 27.828125 61.53125 20.40625
Q 61.53125 10.640625 54.890625 5.3125
Q 48.25 0 35.984375 0
L 9.8125 0
z
" id="DejaVuSans-66"/>
      <path d="M 9.8125 72.90625
L 19.671875 72.90625
L 19.671875 43.015625
L 55.515625 43.015625
L 55.515625 72.90625
L 65.375 72.90625
L 65.375 0
L 55.515625 0
L 55.515625 34.71875
L 19.671875 34.71875
L 19.671875 0
L 9.8125 0
z
" id="DejaVuSans-72"/>
      <path d="M 8.015625 75.875
L 15.828125 75.875
Q 23.140625 64.359375 26.78125 53.3125
Q 30.421875 42.28125 30.421875 31.390625
Q 30.421875 20.453125 26.78125 9.375
Q 23.140625 -1.703125 15.828125 -13.1875
L 8.015625 -13.1875
Q 14.5 -2 17.703125 9.0625
Q 20.90625 20.125 20.90625 31.390625
Q 20.90625 42.671875 17.703125 53.65625
Q 14.5 64.65625 8.015625 75.875
z
" id="DejaVuSans-41"/>
     </defs>
     <g transform="translate(104.665156 319.056782)scale(0.15 -0.15)">
      <use xlink:href="#DejaVuSans-77"/>
      <use x="86.279297" xlink:href="#DejaVuSans-101"/>
      <use x="147.802734" xlink:href="#DejaVuSans-100"/>
      <use x="211.279297" xlink:href="#DejaVuSans-105"/>
      <use x="239.0625" xlink:href="#DejaVuSans-97"/>
      <use x="300.341797" xlink:href="#DejaVuSans-110"/>
      <use x="363.720703" xlink:href="#DejaVuSans-40"/>
      <use x="402.734375" xlink:href="#DejaVuSans-97"/>
      <use x="464.013672" xlink:href="#DejaVuSans-100"/>
      <use x="527.490234" xlink:href="#DejaVuSans-106"/>
      <use x="555.273438" xlink:href="#DejaVuSans-117"/>
      <use x="618.652344" xlink:href="#DejaVuSans-115"/>
      <use x="670.751953" xlink:href="#DejaVuSans-116"/>
      <use x="709.960938" xlink:href="#DejaVuSans-101"/>
      <use x="771.484375" xlink:href="#DejaVuSans-100"/>
      <use x="834.960938" xlink:href="#DejaVuSans-32"/>
      <use x="866.748047" xlink:href="#DejaVuSans-112"/>
      <use x="930.224609" xlink:href="#DejaVuSans-45"/>
      <use x="966.277344" xlink:href="#DejaVuSans-118"/>
      <use x="1025.457031" xlink:href="#DejaVuSans-97"/>
      <use x="1086.736328" xlink:href="#DejaVuSans-108"/>
      <use x="1114.519531" xlink:href="#DejaVuSans-117"/>
      <use x="1177.898438" xlink:href="#DejaVuSans-101"/>
      <use x="1239.421875" xlink:href="#DejaVuSans-32"/>
      <use x="1271.208984" xlink:href="#DejaVuSans-40"/>
      <use x="1310.222656" xlink:href="#DejaVuSans-66"/>
      <use x="1378.826172" xlink:href="#DejaVuSans-72"/>
      <use x="1454.021484" xlink:href="#DejaVuSans-41"/>
      <use x="1493.035156" xlink:href="#DejaVuSans-41"/>
     </g>
    </g>
   </g>
   <g id="matplotlib.axis_2">
    <g id="ytick_1">
     <g id="line2d_19">
      <path clip-path="url(#pe43e732243)" d="M 46.772188 274.599376
L 403.892188 274.599376
" style="fill:none;stroke:#e5e5e5;stroke-width:0.8;"/>
     </g>
     <g id="line2d_20">
      <path d="M 46.772188 274.599376
" style="fill:none;stroke:#000000;stroke-width:1.5;"/>
      <defs>
       <path d="M 0 0
L -2.75 0
" id="m035ac9196f" style="stroke:#000000;"/>
      </defs>
      <g>
       <use style="stroke:#000000;" x="46.772188" xlink:href="#m035ac9196f" y="274.599376"/>
      </g>
     </g>
     <g id="text_7">
      <!-- 0 -->
      <g style="fill:#4d4d4d;" transform="translate(34.187188 277.910626)scale(0.12 -0.12)">
       <use xlink:href="#DejaVuSans-48"/>
      </g>
     </g>
    </g>
    <g id="ytick_2">
     <g id="line2d_21">
      <path clip-path="url(#pe43e732243)" d="M 46.772188 214.119376
L 403.892188 214.119376
" style="fill:none;stroke:#e5e5e5;stroke-width:0.8;"/>
     </g>
     <g id="line2d_22">
      <path d="M 46.772188 214.119376
" style="fill:none;stroke:#000000;stroke-width:1.5;"/>
      <g>
       <use style="stroke:#000000;" x="46.772188" xlink:href="#m035ac9196f" y="214.119376"/>
      </g>
     </g>
     <g id="text_8">
      <!-- 25 -->
      <g style="fill:#4d4d4d;" transform="translate(26.552188 217.430626)scale(0.12 -0.12)">
       <use xlink:href="#DejaVuSans-50"/>
       <use x="63.623047" xlink:href="#DejaVuSans-53"/>
      </g>
     </g>
    </g>
    <g id="ytick_3">
     <g id="line2d_23">
      <path clip-path="url(#pe43e732243)" d="M 46.772188 153.639376
L 403.892188 153.639376
" style="fill:none;stroke:#e5e5e5;stroke-width:0.8;"/>
     </g>
     <g id="line2d_24">
      <path d="M 46.772188 153.639376
" style="fill:none;stroke:#000000;stroke-width:1.5;"/>
      <g>
       <use style="stroke:#000000;" x="46.772188" xlink:href="#m035ac9196f" y="153.639376"/>
      </g>
     </g>
     <g id="text_9">
      <!-- 50 -->
      <g style="fill:#4d4d4d;" transform="translate(26.552188 156.950626)scale(0.12 -0.12)">
       <use xlink:href="#DejaVuSans-53"/>
       <use x="63.623047" xlink:href="#DejaVuSans-48"/>
      </g>
     </g>
    </g>
    <g id="ytick_4">
     <g id="line2d_25">
      <path clip-path="url(#pe43e732243)" d="M 46.772188 93.159376
L 403.892188 93.159376
" style="fill:none;stroke:#e5e5e5;stroke-width:0.8;"/>
     </g>
     <g id="line2d_26">
      <path d="M 46.772188 93.159376
" style="fill:none;stroke:#000000;stroke-width:1.5;"/>
      <g>
       <use style="stroke:#000000;" x="46.772188" xlink:href="#m035ac9196f" y="93.159376"/>
      </g>
     </g>
     <g id="text_10">
      <!-- 75 -->
      <g style="fill:#4d4d4d;" transform="translate(26.552188 96.470626)scale(0.12 -0.12)">
       <use xlink:href="#DejaVuSans-55"/>
       <use x="63.623047" xlink:href="#DejaVuSans-53"/>
      </g>
     </g>
    </g>
    <g id="ytick_5">
     <g id="line2d_27">
      <path clip-path="url(#pe43e732243)" d="M 46.772188 32.679376
L 403.892188 32.679376
" style="fill:none;stroke:#e5e5e5;stroke-width:0.8;"/>
     </g>
     <g id="line2d_28">
      <path d="M 46.772188 32.679376
" style="fill:none;stroke:#000000;stroke-width:1.5;"/>
      <g>
       <use style="stroke:#000000;" x="46.772188" xlink:href="#m035ac9196f" y="32.679376"/>
      </g>
     </g>
     <g id="text_11">
      <!-- 100 -->
      <g style="fill:#4d4d4d;" transform="translate(18.917188 35.990626)scale(0.12 -0.12)">
       <use xlink:href="#DejaVuSans-49"/>
       <use x="63.623047" xlink:href="#DejaVuSans-48"/>
       <use x="127.246094" xlink:href="#DejaVuSans-48"/>
      </g>
     </g>
    </g>
    <g id="ytick_6">
     <g id="line2d_29">
      <path clip-path="url(#pe43e732243)" d="M 46.772188 244.359376
L 403.892188 244.359376
" style="fill:none;stroke:#fafafa;"/>
     </g>
     <g id="line2d_30">
      <path d="M 46.772188 244.359376
" style="fill:none;stroke:#000000;stroke-width:1.5;"/>
     </g>
    </g>
    <g id="ytick_7">
     <g id="line2d_31">
      <path clip-path="url(#pe43e732243)" d="M 46.772188 183.879376
L 403.892188 183.879376
" style="fill:none;stroke:#fafafa;"/>
     </g>
     <g id="line2d_32">
      <path d="M 46.772188 183.879376
" style="fill:none;stroke:#000000;stroke-width:1.5;"/>
     </g>
    </g>
    <g id="ytick_8">
     <g id="line2d_33">
      <path clip-path="url(#pe43e732243)" d="M 46.772188 123.399376
L 403.892188 123.399376
" style="fill:none;stroke:#fafafa;"/>
     </g>
     <g id="line2d_34">
      <path d="M 46.772188 123.399376
" style="fill:none;stroke:#000000;stroke-width:1.5;"/>
     </g>
    </g>
    <g id="ytick_9">
     <g id="line2d_35">
      <path clip-path="url(#pe43e732243)" d="M 46.772188 62.919376
L 403.892188 62.919376
" style="fill:none;stroke:#fafafa;"/>
     </g>
     <g id="line2d_36">
      <path d="M 46.772188 62.919376
" style="fill:none;stroke:#000000;stroke-width:1.5;"/>
     </g>
    </g>
    <g id="text_12">
     <!-- Genericness (percentile of ranking) -->
     <defs>
      <path d="M 59.515625 10.40625
L 59.515625 29.984375
L 43.40625 29.984375
L 43.40625 38.09375
L 69.28125 38.09375
L 69.28125 6.78125
Q 63.578125 2.734375 56.6875 0.65625
Q 49.8125 -1.421875 42 -1.421875
Q 24.90625 -1.421875 15.25 8.5625
Q 5.609375 18.5625 5.609375 36.375
Q 5.609375 54.25 15.25 64.234375
Q 24.90625 74.21875 42 74.21875
Q 49.125 74.21875 55.546875 72.453125
Q 61.96875 70.703125 67.390625 67.28125
L 67.390625 56.78125
Q 61.921875 61.421875 55.765625 63.765625
Q 49.609375 66.109375 42.828125 66.109375
Q 29.4375 66.109375 22.71875 58.640625
Q 16.015625 51.171875 16.015625 36.375
Q 16.015625 21.625 22.71875 14.15625
Q 29.4375 6.6875 42.828125 6.6875
Q 48.046875 6.6875 52.140625 7.59375
Q 56.25 8.5 59.515625 10.40625
z
" id="DejaVuSans-71"/>
      <path d="M 41.109375 46.296875
Q 39.59375 47.171875 37.8125 47.578125
Q 36.03125 48 33.890625 48
Q 26.265625 48 22.1875 43.046875
Q 18.109375 38.09375 18.109375 28.8125
L 18.109375 0
L 9.078125 0
L 9.078125 54.6875
L 18.109375 54.6875
L 18.109375 46.1875
Q 20.953125 51.171875 25.484375 53.578125
Q 30.03125 56 36.53125 56
Q 37.453125 56 38.578125 55.875
Q 39.703125 55.765625 41.0625 55.515625
z
" id="DejaVuSans-114"/>
      <path d="M 48.78125 52.59375
L 48.78125 44.1875
Q 44.96875 46.296875 41.140625 47.34375
Q 37.3125 48.390625 33.40625 48.390625
Q 24.65625 48.390625 19.8125 42.84375
Q 14.984375 37.3125 14.984375 27.296875
Q 14.984375 17.28125 19.8125 11.734375
Q 24.65625 6.203125 33.40625 6.203125
Q 37.3125 6.203125 41.140625 7.25
Q 44.96875 8.296875 48.78125 10.40625
L 48.78125 2.09375
Q 45.015625 0.34375 40.984375 -0.53125
Q 36.96875 -1.421875 32.421875 -1.421875
Q 20.0625 -1.421875 12.78125 6.34375
Q 5.515625 14.109375 5.515625 27.296875
Q 5.515625 40.671875 12.859375 48.328125
Q 20.21875 56 33.015625 56
Q 37.15625 56 41.109375 55.140625
Q 45.0625 54.296875 48.78125 52.59375
z
" id="DejaVuSans-99"/>
      <path d="M 30.609375 48.390625
Q 23.390625 48.390625 19.1875 42.75
Q 14.984375 37.109375 14.984375 27.296875
Q 14.984375 17.484375 19.15625 11.84375
Q 23.34375 6.203125 30.609375 6.203125
Q 37.796875 6.203125 41.984375 11.859375
Q 46.1875 17.53125 46.1875 27.296875
Q 46.1875 37.015625 41.984375 42.703125
Q 37.796875 48.390625 30.609375 48.390625
z
M 30.609375 56
Q 42.328125 56 49.015625 48.375
Q 55.71875 40.765625 55.71875 27.296875
Q 55.71875 13.875 49.015625 6.21875
Q 42.328125 -1.421875 30.609375 -1.421875
Q 18.84375 -1.421875 12.171875 6.21875
Q 5.515625 13.875 5.515625 27.296875
Q 5.515625 40.765625 12.171875 48.375
Q 18.84375 56 30.609375 56
z
" id="DejaVuSans-111"/>
      <path d="M 37.109375 75.984375
L 37.109375 68.5
L 28.515625 68.5
Q 23.6875 68.5 21.796875 66.546875
Q 19.921875 64.59375 19.921875 59.515625
L 19.921875 54.6875
L 34.71875 54.6875
L 34.71875 47.703125
L 19.921875 47.703125
L 19.921875 0
L 10.890625 0
L 10.890625 47.703125
L 2.296875 47.703125
L 2.296875 54.6875
L 10.890625 54.6875
L 10.890625 58.5
Q 10.890625 67.625 15.140625 71.796875
Q 19.390625 75.984375 28.609375 75.984375
z
" id="DejaVuSans-102"/>
      <path d="M 9.078125 75.984375
L 18.109375 75.984375
L 18.109375 31.109375
L 44.921875 54.6875
L 56.390625 54.6875
L 27.390625 29.109375
L 57.625 0
L 45.90625 0
L 18.109375 26.703125
L 18.109375 0
L 9.078125 0
z
" id="DejaVuSans-107"/>
      <path d="M 45.40625 27.984375
Q 45.40625 37.75 41.375 43.109375
Q 37.359375 48.484375 30.078125 48.484375
Q 22.859375 48.484375 18.828125 43.109375
Q 14.796875 37.75 14.796875 27.984375
Q 14.796875 18.265625 18.828125 12.890625
Q 22.859375 7.515625 30.078125 7.515625
Q 37.359375 7.515625 41.375 12.890625
Q 45.40625 18.265625 45.40625 27.984375
z
M 54.390625 6.78125
Q 54.390625 -7.171875 48.1875 -13.984375
Q 42 -20.796875 29.203125 -20.796875
Q 24.46875 -20.796875 20.265625 -20.09375
Q 16.0625 -19.390625 12.109375 -17.921875
L 12.109375 -9.1875
Q 16.0625 -11.328125 19.921875 -12.34375
Q 23.78125 -13.375 27.78125 -13.375
Q 36.625 -13.375 41.015625 -8.765625
Q 45.40625 -4.15625 45.40625 5.171875
L 45.40625 9.625
Q 42.625 4.78125 38.28125 2.390625
Q 33.9375 0 27.875 0
Q 17.828125 0 11.671875 7.65625
Q 5.515625 15.328125 5.515625 27.984375
Q 5.515625 40.671875 11.671875 48.328125
Q 17.828125 56 27.875 56
Q 33.9375 56 38.28125 53.609375
Q 42.625 51.21875 45.40625 46.390625
L 45.40625 54.6875
L 54.390625 54.6875
z
" id="DejaVuSans-103"/>
     </defs>
     <g transform="translate(11.397656 284.455126)rotate(-90)scale(0.15 -0.15)">
      <use xlink:href="#DejaVuSans-71"/>
      <use x="77.490234" xlink:href="#DejaVuSans-101"/>
      <use x="139.013672" xlink:href="#DejaVuSans-110"/>
      <use x="202.392578" xlink:href="#DejaVuSans-101"/>
      <use x="263.916016" xlink:href="#DejaVuSans-114"/>
      <use x="305.029297" xlink:href="#DejaVuSans-105"/>
      <use x="332.8125" xlink:href="#DejaVuSans-99"/>
      <use x="387.792969" xlink:href="#DejaVuSans-110"/>
      <use x="451.171875" xlink:href="#DejaVuSans-101"/>
      <use x="512.695312" xlink:href="#DejaVuSans-115"/>
      <use x="564.794922" xlink:href="#DejaVuSans-115"/>
      <use x="616.894531" xlink:href="#DejaVuSans-32"/>
      <use x="648.681641" xlink:href="#DejaVuSans-40"/>
      <use x="687.695312" xlink:href="#DejaVuSans-112"/>
      <use x="751.171875" xlink:href="#DejaVuSans-101"/>
      <use x="812.695312" xlink:href="#DejaVuSans-114"/>
      <use x="853.777344" xlink:href="#DejaVuSans-99"/>
      <use x="908.757812" xlink:href="#DejaVuSans-101"/>
      <use x="970.28125" xlink:href="#DejaVuSans-110"/>
      <use x="1033.660156" xlink:href="#DejaVuSans-116"/>
      <use x="1072.869141" xlink:href="#DejaVuSans-105"/>
      <use x="1100.652344" xlink:href="#DejaVuSans-108"/>
      <use x="1128.435547" xlink:href="#DejaVuSans-101"/>
      <use x="1189.958984" xlink:href="#DejaVuSans-32"/>
      <use x="1221.746094" xlink:href="#DejaVuSans-111"/>
      <use x="1282.927734" xlink:href="#DejaVuSans-102"/>
      <use x="1318.132812" xlink:href="#DejaVuSans-32"/>
      <use x="1349.919922" xlink:href="#DejaVuSans-114"/>
      <use x="1391.033203" xlink:href="#DejaVuSans-97"/>
      <use x="1452.3125" xlink:href="#DejaVuSans-110"/>
      <use x="1515.691406" xlink:href="#DejaVuSans-107"/>
      <use x="1573.601562" xlink:href="#DejaVuSans-105"/>
      <use x="1601.384766" xlink:href="#DejaVuSans-110"/>
      <use x="1664.763672" xlink:href="#DejaVuSans-103"/>
      <use x="1728.240234" xlink:href="#DejaVuSans-41"/>
     </g>
    </g>
   </g>
   <g id="PathCollection_1">
    <path clip-path="url(#pe43e732243)" d="M 100.050417 140.29183
C 100.520477 140.29183 100.971348 140.105073 101.303731 139.77269
C 101.636114 139.440307 101.822871 138.989436 101.822871 138.519376
C 101.822871 138.049316 101.636114 137.598444 101.303731 137.266062
C 100.971348 136.933679 100.520477 136.746922 100.050417 136.746922
C 99.580357 136.746922 99.129486 136.933679 98.797103 137.266062
C 98.46472 137.598444 98.277963 138.049316 98.277963 138.519376
C 98.277963 138.989436 98.46472 139.440307 98.797103 139.77269
C 99.129486 140.105073 99.580357 140.29183 100.050417 140.29183
z
" style="stroke:#000000;stroke-width:0.886227;"/>
    <path clip-path="url(#pe43e732243)" d="M 98.389371 135.25183
C 98.859431 135.25183 99.310303 135.065073 99.642685 134.73269
C 99.975068 134.400307 100.161825 133.949436 100.161825 133.479376
C 100.161825 133.009316 99.975068 132.558444 99.642685 132.226062
C 99.310303 131.893679 98.859431 131.706922 98.389371 131.706922
C 97.919311 131.706922 97.46844 131.893679 97.136057 132.226062
C 96.803674 132.558444 96.616917 133.009316 96.616917 133.479376
C 96.616917 133.949436 96.803674 134.400307 97.136057 134.73269
C 97.46844 135.065073 97.919311 135.25183 98.389371 135.25183
z
" style="stroke:#000000;stroke-width:0.886227;"/>
    <path clip-path="url(#pe43e732243)" d="M 63.468019 34.45183
C 63.938079 34.45183 64.38895 34.265073 64.721333 33.93269
C 65.053716 33.600307 65.240473 33.149436 65.240473 32.679376
C 65.240473 32.209316 65.053716 31.758444 64.721333 31.426062
C 64.38895 31.093679 63.938079 30.906922 63.468019 30.906922
C 62.997959 30.906922 62.547088 31.093679 62.214705 31.426062
C 61.882322 31.758444 61.695565 32.209316 61.695565 32.679376
C 61.695565 33.149436 61.882322 33.600307 62.214705 33.93269
C 62.547088 34.265073 62.997959 34.45183 63.468019 34.45183
z
" style="stroke:#000000;stroke-width:0.886227;"/>
    <path clip-path="url(#pe43e732243)" d="M 63.468019 34.45183
C 63.938079 34.45183 64.38895 34.265073 64.721333 33.93269
C 65.053716 33.600307 65.240473 33.149436 65.240473 32.679376
C 65.240473 32.209316 65.053716 31.758444 64.721333 31.426062
C 64.38895 31.093679 63.938079 30.906922 63.468019 30.906922
C 62.997959 30.906922 62.547088 31.093679 62.214705 31.426062
C 61.882322 31.758444 61.695565 32.209316 61.695565 32.679376
C 61.695565 33.149436 61.882322 33.600307 62.214705 33.93269
C 62.547088 34.265073 62.997959 34.45183 63.468019 34.45183
z
" style="stroke:#000000;stroke-width:0.886227;"/>
    <path clip-path="url(#pe43e732243)" d="M 63.635312 49.57183
C 64.105372 49.57183 64.556243 49.385073 64.888626 49.05269
C 65.221009 48.720307 65.407766 48.269436 65.407766 47.799376
C 65.407766 47.329316 65.221009 46.878444 64.888626 46.546062
C 64.556243 46.213679 64.105372 46.026922 63.635312 46.026922
C 63.165252 46.026922 62.714381 46.213679 62.381998 46.546062
C 62.049615 46.878444 61.862858 47.329316 61.862858 47.799376
C 61.862858 48.269436 62.049615 48.720307 62.381998 49.05269
C 62.714381 49.385073 63.165252 49.57183 63.635312 49.57183
z
" style="stroke:#000000;stroke-width:0.886227;"/>
    <path clip-path="url(#pe43e732243)" d="M 64.114086 64.69183
C 64.584147 64.69183 65.035018 64.505073 65.367401 64.17269
C 65.699783 63.840307 65.88654 63.389436 65.88654 62.919376
C 65.88654 62.449316 65.699783 61.998444 65.367401 61.666062
C 65.035018 61.333679 64.584147 61.146922 64.114086 61.146922
C 63.644026 61.146922 63.193155 61.333679 62.860772 61.666062
C 62.52839 61.998444 62.341633 62.449316 62.341633 62.919376
C 62.341633 63.389436 62.52839 63.840307 62.860772 64.17269
C 63.193155 64.505073 63.644026 64.69183 64.114086 64.69183
z
" style="stroke:#000000;stroke-width:0.886227;"/>
    <path clip-path="url(#pe43e732243)" d="M 64.276958 74.77183
C 64.747018 74.77183 65.197889 74.585073 65.530272 74.25269
C 65.862655 73.920307 66.049412 73.469436 66.049412 72.999376
C 66.049412 72.529316 65.862655 72.078444 65.530272 71.746062
C 65.197889 71.413679 64.747018 71.226922 64.276958 71.226922
C 63.806898 71.226922 63.356027 71.413679 63.023644 71.746062
C 62.691261 72.078444 62.504504 72.529316 62.504504 72.999376
C 62.504504 73.469436 62.691261 73.920307 63.023644 74.25269
C 63.356027 74.585073 63.806898 74.77183 64.276958 74.77183
z
" style="stroke:#000000;stroke-width:0.886227;"/>
    <path clip-path="url(#pe43e732243)" d="M 144.473229 168.01183
C 144.94329 168.01183 145.394161 167.825073 145.726544 167.49269
C 146.058926 167.160307 146.245683 166.709436 146.245683 166.239376
C 146.245683 165.769316 146.058926 165.318444 145.726544 164.986062
C 145.394161 164.653679 144.94329 164.466922 144.473229 164.466922
C 144.003169 164.466922 143.552298 164.653679 143.219915 164.986062
C 142.887532 165.318444 142.700776 165.769316 142.700776 166.239376
C 142.700776 166.709436 142.887532 167.160307 143.219915 167.49269
C 143.552298 167.825073 144.003169 168.01183 144.473229 168.01183
z
" style="stroke:#000000;stroke-width:0.886227;"/>
    <path clip-path="url(#pe43e732243)" d="M 240.234532 231.01183
C 240.704593 231.01183 241.155464 230.825073 241.487847 230.49269
C 241.820229 230.160307 242.006986 229.709436 242.006986 229.239376
C 242.006986 228.769316 241.820229 228.318444 241.487847 227.986062
C 241.155464 227.653679 240.704593 227.466922 240.234532 227.466922
C 239.764472 227.466922 239.313601 227.653679 238.981218 227.986062
C 238.648835 228.318444 238.462079 228.769316 238.462079 229.239376
C 238.462079 229.709436 238.648835 230.160307 238.981218 230.49269
C 239.313601 230.825073 239.764472 231.01183 240.234532 231.01183
z
" style="stroke:#000000;stroke-width:0.886227;"/>
    <path clip-path="url(#pe43e732243)" d="M 63.635312 49.57183
C 64.105372 49.57183 64.556243 49.385073 64.888626 49.05269
C 65.221009 48.720307 65.407766 48.269436 65.407766 47.799376
C 65.407766 47.329316 65.221009 46.878444 64.888626 46.546062
C 64.556243 46.213679 64.105372 46.026922 63.635312 46.026922
C 63.165252 46.026922 62.714381 46.213679 62.381998 46.546062
C 62.049615 46.878444 61.862858 47.329316 61.862858 47.799376
C 61.862858 48.269436 62.049615 48.720307 62.381998 49.05269
C 62.714381 49.385073 63.165252 49.57183 63.635312 49.57183
z
" style="stroke:#000000;stroke-width:0.886227;"/>
    <path clip-path="url(#pe43e732243)" d="M 63.468019 34.45183
C 63.938079 34.45183 64.38895 34.265073 64.721333 33.93269
C 65.053716 33.600307 65.240473 33.149436 65.240473 32.679376
C 65.240473 32.209316 65.053716 31.758444 64.721333 31.426062
C 64.38895 31.093679 63.938079 30.906922 63.468019 30.906922
C 62.997959 30.906922 62.547088 31.093679 62.214705 31.426062
C 61.882322 31.758444 61.695565 32.209316 61.695565 32.679376
C 61.695565 33.149436 61.882322 33.600307 62.214705 33.93269
C 62.547088 34.265073 62.997959 34.45183 63.468019 34.45183
z
" style="stroke:#000000;stroke-width:0.886227;"/>
    <path clip-path="url(#pe43e732243)" d="M 88.488003 110.05183
C 88.958063 110.05183 89.408934 109.865073 89.741317 109.53269
C 90.0737 109.200307 90.260457 108.749436 90.260457 108.279376
C 90.260457 107.809316 90.0737 107.358444 89.741317 107.026062
C 89.408934 106.693679 88.958063 106.506922 88.488003 106.506922
C 88.017943 106.506922 87.567072 106.693679 87.234689 107.026062
C 86.902306 107.358444 86.715549 107.809316 86.715549 108.279376
C 86.715549 108.749436 86.902306 109.200307 87.234689 109.53269
C 87.567072 109.865073 88.017943 110.05183 88.488003 110.05183
z
" style="stroke:#000000;stroke-width:0.886227;"/>
    <path clip-path="url(#pe43e732243)" d="M 77.783051 105.01183
C 78.253111 105.01183 78.703983 104.825073 79.036365 104.49269
C 79.368748 104.160307 79.555505 103.709436 79.555505 103.239376
C 79.555505 102.769316 79.368748 102.318444 79.036365 101.986062
C 78.703983 101.653679 78.253111 101.466922 77.783051 101.466922
C 77.312991 101.466922 76.86212 101.653679 76.529737 101.986062
C 76.197354 102.318444 76.010597 102.769316 76.010597 103.239376
C 76.010597 103.709436 76.197354 104.160307 76.529737 104.49269
C 76.86212 104.825073 77.312991 105.01183 77.783051 105.01183
z
" style="stroke:#000000;stroke-width:0.886227;"/>
    <path clip-path="url(#pe43e732243)" d="M 144.498567 175.57183
C 144.968627 175.57183 145.419498 175.385073 145.751881 175.05269
C 146.084264 174.720307 146.271021 174.269436 146.271021 173.799376
C 146.271021 173.329316 146.084264 172.878444 145.751881 172.546062
C 145.419498 172.213679 144.968627 172.026922 144.498567 172.026922
C 144.028506 172.026922 143.577635 172.213679 143.245253 172.546062
C 142.91287 172.878444 142.726113 173.329316 142.726113 173.799376
C 142.726113 174.269436 142.91287 174.720307 143.245253 175.05269
C 143.577635 175.385073 144.028506 175.57183 144.498567 175.57183
z
" style="stroke:#000000;stroke-width:0.886227;"/>
    <path clip-path="url(#pe43e732243)" d="M 94.106677 125.17183
C 94.576737 125.17183 95.027608 124.985073 95.359991 124.65269
C 95.692374 124.320307 95.879131 123.869436 95.879131 123.399376
C 95.879131 122.929316 95.692374 122.478444 95.359991 122.146062
C 95.027608 121.813679 94.576737 121.626922 94.106677 121.626922
C 93.636616 121.626922 93.185745 121.813679 92.853363 122.146062
C 92.52098 122.478444 92.334223 122.929316 92.334223 123.399376
C 92.334223 123.869436 92.52098 124.320307 92.853363 124.65269
C 93.185745 124.985073 93.636616 125.17183 94.106677 125.17183
z
" style="stroke:#000000;stroke-width:0.886227;"/>
    <path clip-path="url(#pe43e732243)" d="M 63.635312 49.57183
C 64.105372 49.57183 64.556243 49.385073 64.888626 49.05269
C 65.221009 48.720307 65.407766 48.269436 65.407766 47.799376
C 65.407766 47.329316 65.221009 46.878444 64.888626 46.546062
C 64.556243 46.213679 64.105372 46.026922 63.635312 46.026922
C 63.165252 46.026922 62.714381 46.213679 62.381998 46.546062
C 62.049615 46.878444 61.862858 47.329316 61.862858 47.799376
C 61.862858 48.269436 62.049615 48.720307 62.381998 49.05269
C 62.714381 49.385073 63.165252 49.57183 63.635312 49.57183
z
" style="stroke:#000000;stroke-width:0.886227;"/>
    <path clip-path="url(#pe43e732243)" d="M 89.235083 115.09183
C 89.705144 115.09183 90.156015 114.905073 90.488398 114.57269
C 90.82078 114.240307 91.007537 113.789436 91.007537 113.319376
C 91.007537 112.849316 90.82078 112.398444 90.488398 112.066062
C 90.156015 111.733679 89.705144 111.546922 89.235083 111.546922
C 88.765023 111.546922 88.314152 111.733679 87.981769 112.066062
C 87.649387 112.398444 87.46263 112.849316 87.46263 113.319376
C 87.46263 113.789436 87.649387 114.240307 87.981769 114.57269
C 88.314152 114.905073 88.765023 115.09183 89.235083 115.09183
z
" style="stroke:#000000;stroke-width:0.886227;"/>
    <path clip-path="url(#pe43e732243)" d="M 76.70579 99.97183
C 77.175851 99.97183 77.626722 99.785073 77.959105 99.45269
C 78.291487 99.120307 78.478244 98.669436 78.478244 98.199376
C 78.478244 97.729316 78.291487 97.278444 77.959105 96.946062
C 77.626722 96.613679 77.175851 96.426922 76.70579 96.426922
C 76.23573 96.426922 75.784859 96.613679 75.452476 96.946062
C 75.120094 97.278444 74.933337 97.729316 74.933337 98.199376
C 74.933337 98.669436 75.120094 99.120307 75.452476 99.45269
C 75.784859 99.785073 76.23573 99.97183 76.70579 99.97183
z
" style="stroke:#000000;stroke-width:0.886227;"/>
    <path clip-path="url(#pe43e732243)" d="M 96.192509 130.21183
C 96.66257 130.21183 97.113441 130.025073 97.445823 129.69269
C 97.778206 129.360307 97.964963 128.909436 97.964963 128.439376
C 97.964963 127.969316 97.778206 127.518444 97.445823 127.186062
C 97.113441 126.853679 96.66257 126.666922 96.192509 126.666922
C 95.722449 126.666922 95.271578 126.853679 94.939195 127.186062
C 94.606812 127.518444 94.420055 127.969316 94.420055 128.439376
C 94.420055 128.909436 94.606812 129.360307 94.939195 129.69269
C 95.271578 130.025073 95.722449 130.21183 96.192509 130.21183
z
" style="stroke:#000000;stroke-width:0.886227;"/>
    <path clip-path="url(#pe43e732243)" d="M 220.365041 215.89183
C 220.835101 215.89183 221.285972 215.705073 221.618355 215.37269
C 221.950738 215.040307 222.137495 214.589436 222.137495 214.119376
C 222.137495 213.649316 221.950738 213.198444 221.618355 212.866062
C 221.285972 212.533679 220.835101 212.346922 220.365041 212.346922
C 219.894981 212.346922 219.44411 212.533679 219.111727 212.866062
C 218.779344 213.198444 218.592587 213.649316 218.592587 214.119376
C 218.592587 214.589436 218.779344 215.040307 219.111727 215.37269
C 219.44411 215.705073 219.894981 215.89183 220.365041 215.89183
z
" style="stroke:#000000;stroke-width:0.886227;"/>
    <path clip-path="url(#pe43e732243)" d="M 117.419038 150.37183
C 117.889099 150.37183 118.33997 150.185073 118.672352 149.85269
C 119.004735 149.520307 119.191492 149.069436 119.191492 148.599376
C 119.191492 148.129316 119.004735 147.678444 118.672352 147.346062
C 118.33997 147.013679 117.889099 146.826922 117.419038 146.826922
C 116.948978 146.826922 116.498107 147.013679 116.165724 147.346062
C 115.833341 147.678444 115.646585 148.129316 115.646585 148.599376
C 115.646585 149.069436 115.833341 149.520307 116.165724 149.85269
C 116.498107 150.185073 116.948978 150.37183 117.419038 150.37183
z
" style="stroke:#000000;stroke-width:0.886227;"/>
    <path clip-path="url(#pe43e732243)" d="M 64.174807 69.73183
C 64.644868 69.73183 65.095739 69.545073 65.428121 69.21269
C 65.760504 68.880307 65.947261 68.429436 65.947261 67.959376
C 65.947261 67.489316 65.760504 67.038444 65.428121 66.706062
C 65.095739 66.373679 64.644868 66.186922 64.174807 66.186922
C 63.704747 66.186922 63.253876 66.373679 62.921493 66.706062
C 62.58911 67.038444 62.402353 67.489316 62.402353 67.959376
C 62.402353 68.429436 62.58911 68.880307 62.921493 69.21269
C 63.253876 69.545073 63.704747 69.73183 64.174807 69.73183
z
" style="stroke:#000000;stroke-width:0.886227;"/>
    <path clip-path="url(#pe43e732243)" d="M 76.307482 94.93183
C 76.777542 94.93183 77.228413 94.745073 77.560796 94.41269
C 77.893179 94.080307 78.079936 93.629436 78.079936 93.159376
C 78.079936 92.689316 77.893179 92.238444 77.560796 91.906062
C 77.228413 91.573679 76.777542 91.386922 76.307482 91.386922
C 75.837422 91.386922 75.386551 91.573679 75.054168 91.906062
C 74.721785 92.238444 74.535028 92.689316 74.535028 93.159376
C 74.535028 93.629436 74.721785 94.080307 75.054168 94.41269
C 75.386551 94.745073 75.837422 94.93183 76.307482 94.93183
z
" style="stroke:#000000;stroke-width:0.886227;"/>
    <path clip-path="url(#pe43e732243)" d="M 153.523484 190.69183
C 153.993544 190.69183 154.444415 190.505073 154.776798 190.17269
C 155.109181 189.840307 155.295937 189.389436 155.295937 188.919376
C 155.295937 188.449316 155.109181 187.998444 154.776798 187.666062
C 154.444415 187.333679 153.993544 187.146922 153.523484 187.146922
C 153.053423 187.146922 152.602552 187.333679 152.270169 187.666062
C 151.937787 187.998444 151.75103 188.449316 151.75103 188.919376
C 151.75103 189.389436 151.937787 189.840307 152.270169 190.17269
C 152.602552 190.505073 153.053423 190.69183 153.523484 190.69183
z
" style="stroke:#000000;stroke-width:0.886227;"/>
    <path clip-path="url(#pe43e732243)" d="M 65.258347 84.85183
C 65.728408 84.85183 66.179279 84.665073 66.511662 84.33269
C 66.844044 84.000307 67.030801 83.549436 67.030801 83.079376
C 67.030801 82.609316 66.844044 82.158444 66.511662 81.826062
C 66.179279 81.493679 65.728408 81.306922 65.258347 81.306922
C 64.788287 81.306922 64.337416 81.493679 64.005033 81.826062
C 63.67265 82.158444 63.485894 82.609316 63.485894 83.079376
C 63.485894 83.549436 63.67265 84.000307 64.005033 84.33269
C 64.337416 84.665073 64.788287 84.85183 65.258347 84.85183
z
" style="stroke:#000000;stroke-width:0.886227;"/>
    <path clip-path="url(#pe43e732243)" d="M 279.748931 271.33183
C 280.218992 271.33183 280.669863 271.145073 281.002245 270.81269
C 281.334628 270.480307 281.521385 270.029436 281.521385 269.559376
C 281.521385 269.089316 281.334628 268.638444 281.002245 268.306062
C 280.669863 267.973679 280.218992 267.786922 279.748931 267.786922
C 279.278871 267.786922 278.828 267.973679 278.495617 268.306062
C 278.163234 268.638444 277.976477 269.089316 277.976477 269.559376
C 277.976477 270.029436 278.163234 270.480307 278.495617 270.81269
C 278.828 271.145073 279.278871 271.33183 279.748931 271.33183
z
" style="stroke:#000000;stroke-width:0.886227;"/>
    <path clip-path="url(#pe43e732243)" d="M 118.147305 155.41183
C 118.617365 155.41183 119.068236 155.225073 119.400619 154.89269
C 119.733001 154.560307 119.919758 154.109436 119.919758 153.639376
C 119.919758 153.169316 119.733001 152.718444 119.400619 152.386062
C 119.068236 152.053679 118.617365 151.866922 118.147305 151.866922
C 117.677244 151.866922 117.226373 152.053679 116.89399 152.386062
C 116.561608 152.718444 116.374851 153.169316 116.374851 153.639376
C 116.374851 154.109436 116.561608 154.560307 116.89399 154.89269
C 117.226373 155.225073 117.677244 155.41183 118.147305 155.41183
z
" style="stroke:#000000;stroke-width:0.886227;"/>
    <path clip-path="url(#pe43e732243)" d="M 219.452009 210.85183
C 219.922069 210.85183 220.37294 210.665073 220.705323 210.33269
C 221.037706 210.000307 221.224463 209.549436 221.224463 209.079376
C 221.224463 208.609316 221.037706 208.158444 220.705323 207.826062
C 220.37294 207.493679 219.922069 207.306922 219.452009 207.306922
C 218.981948 207.306922 218.531077 207.493679 218.198695 207.826062
C 217.866312 208.158444 217.679555 208.609316 217.679555 209.079376
C 217.679555 209.549436 217.866312 210.000307 218.198695 210.33269
C 218.531077 210.665073 218.981948 210.85183 219.452009 210.85183
z
" style="stroke:#000000;stroke-width:0.886227;"/>
    <path clip-path="url(#pe43e732243)" d="M 198.219761 205.81183
C 198.689821 205.81183 199.140692 205.625073 199.473075 205.29269
C 199.805458 204.960307 199.992214 204.509436 199.992214 204.039376
C 199.992214 203.569316 199.805458 203.118444 199.473075 202.786062
C 199.140692 202.453679 198.689821 202.266922 198.219761 202.266922
C 197.7497 202.266922 197.298829 202.453679 196.966446 202.786062
C 196.634064 203.118444 196.447307 203.569316 196.447307 204.039376
C 196.447307 204.509436 196.634064 204.960307 196.966446 205.29269
C 197.298829 205.625073 197.7497 205.81183 198.219761 205.81183
z
" style="stroke:#000000;stroke-width:0.886227;"/>
    <path clip-path="url(#pe43e732243)" d="M 193.503801 200.77183
C 193.973861 200.77183 194.424732 200.585073 194.757115 200.25269
C 195.089498 199.920307 195.276255 199.469436 195.276255 198.999376
C 195.276255 198.529316 195.089498 198.078444 194.757115 197.746062
C 194.424732 197.413679 193.973861 197.226922 193.503801 197.226922
C 193.033741 197.226922 192.58287 197.413679 192.250487 197.746062
C 191.918104 198.078444 191.731347 198.529316 191.731347 198.999376
C 191.731347 199.469436 191.918104 199.920307 192.250487 200.25269
C 192.58287 200.585073 193.033741 200.77183 193.503801 200.77183
z
" style="stroke:#000000;stroke-width:0.886227;"/>
    <path clip-path="url(#pe43e732243)" d="M 65.207157 79.81183
C 65.677217 79.81183 66.128088 79.625073 66.460471 79.29269
C 66.792854 78.960307 66.979611 78.509436 66.979611 78.039376
C 66.979611 77.569316 66.792854 77.118444 66.460471 76.786062
C 66.128088 76.453679 65.677217 76.266922 65.207157 76.266922
C 64.737097 76.266922 64.286226 76.453679 63.953843 76.786062
C 63.62146 77.118444 63.434703 77.569316 63.434703 78.039376
C 63.434703 78.509436 63.62146 78.960307 63.953843 79.29269
C 64.286226 79.625073 64.737097 79.81183 65.207157 79.81183
z
" style="stroke:#000000;stroke-width:0.886227;"/>
    <path clip-path="url(#pe43e732243)" d="M 193.260865 195.73183
C 193.730926 195.73183 194.181797 195.545073 194.514179 195.21269
C 194.846562 194.880307 195.033319 194.429436 195.033319 193.959376
C 195.033319 193.489316 194.846562 193.038444 194.514179 192.706062
C 194.181797 192.373679 193.730926 192.186922 193.260865 192.186922
C 192.790805 192.186922 192.339934 192.373679 192.007551 192.706062
C 191.675168 193.038444 191.488412 193.489316 191.488412 193.959376
C 191.488412 194.429436 191.675168 194.880307 192.007551 195.21269
C 192.339934 195.545073 192.790805 195.73183 193.260865 195.73183
z
" style="stroke:#000000;stroke-width:0.886227;"/>
    <path clip-path="url(#pe43e732243)" d="M 63.752175 59.65183
C 64.222235 59.65183 64.673106 59.465073 65.005489 59.13269
C 65.337872 58.800307 65.524629 58.349436 65.524629 57.879376
C 65.524629 57.409316 65.337872 56.958444 65.005489 56.626062
C 64.673106 56.293679 64.222235 56.106922 63.752175 56.106922
C 63.282114 56.106922 62.831243 56.293679 62.498861 56.626062
C 62.166478 56.958444 61.979721 57.409316 61.979721 57.879376
C 61.979721 58.349436 62.166478 58.800307 62.498861 59.13269
C 62.831243 59.465073 63.282114 59.65183 63.752175 59.65183
z
" style="stroke:#000000;stroke-width:0.886227;"/>
    <path clip-path="url(#pe43e732243)" d="M 90.691336 120.13183
C 91.161396 120.13183 91.612267 119.945073 91.94465 119.61269
C 92.277033 119.280307 92.46379 118.829436 92.46379 118.359376
C 92.46379 117.889316 92.277033 117.438444 91.94465 117.106062
C 91.612267 116.773679 91.161396 116.586922 90.691336 116.586922
C 90.221276 116.586922 89.770404 116.773679 89.438022 117.106062
C 89.105639 117.438444 88.918882 117.889316 88.918882 118.359376
C 88.918882 118.829436 89.105639 119.280307 89.438022 119.61269
C 89.770404 119.945073 90.221276 120.13183 90.691336 120.13183
z
" style="stroke:#000000;stroke-width:0.886227;"/>
    <path clip-path="url(#pe43e732243)" d="M 72.435693 89.89183
C 72.905753 89.89183 73.356624 89.705073 73.689007 89.37269
C 74.02139 89.040307 74.208147 88.589436 74.208147 88.119376
C 74.208147 87.649316 74.02139 87.198444 73.689007 86.866062
C 73.356624 86.533679 72.905753 86.346922 72.435693 86.346922
C 71.965633 86.346922 71.514762 86.533679 71.182379 86.866062
C 70.849996 87.198444 70.663239 87.649316 70.663239 88.119376
C 70.663239 88.589436 70.849996 89.040307 71.182379 89.37269
C 71.514762 89.705073 71.965633 89.89183 72.435693 89.89183
z
" style="stroke:#000000;stroke-width:0.886227;"/>
    <path clip-path="url(#pe43e732243)" d="M 278.629913 266.29183
C 279.099973 266.29183 279.550844 266.105073 279.883227 265.77269
C 280.21561 265.440307 280.402367 264.989436 280.402367 264.519376
C 280.402367 264.049316 280.21561 263.598444 279.883227 263.266062
C 279.550844 262.933679 279.099973 262.746922 278.629913 262.746922
C 278.159852 262.746922 277.708981 262.933679 277.376599 263.266062
C 277.044216 263.598444 276.857459 264.049316 276.857459 264.519376
C 276.857459 264.989436 277.044216 265.440307 277.376599 265.77269
C 277.708981 266.105073 278.159852 266.29183 278.629913 266.29183
z
" style="stroke:#000000;stroke-width:0.886227;"/>
    <path clip-path="url(#pe43e732243)" d="M 294.846583 276.37183
C 295.316643 276.37183 295.767514 276.185073 296.099897 275.85269
C 296.43228 275.520307 296.619037 275.069436 296.619037 274.599376
C 296.619037 274.129316 296.43228 273.678444 296.099897 273.346062
C 295.767514 273.013679 295.316643 272.826922 294.846583 272.826922
C 294.376523 272.826922 293.925652 273.013679 293.593269 273.346062
C 293.260886 273.678444 293.074129 274.129316 293.074129 274.599376
C 293.074129 275.069436 293.260886 275.520307 293.593269 275.85269
C 293.925652 276.185073 294.376523 276.37183 294.846583 276.37183
z
" style="stroke:#000000;stroke-width:0.886227;"/>
    <path clip-path="url(#pe43e732243)" d="M 145.675568 180.61183
C 146.145629 180.61183 146.5965 180.425073 146.928882 180.09269
C 147.261265 179.760307 147.448022 179.309436 147.448022 178.839376
C 147.448022 178.369316 147.261265 177.918444 146.928882 177.586062
C 146.5965 177.253679 146.145629 177.066922 145.675568 177.066922
C 145.205508 177.066922 144.754637 177.253679 144.422254 177.586062
C 144.089871 177.918444 143.903114 178.369316 143.903114 178.839376
C 143.903114 179.309436 144.089871 179.760307 144.422254 180.09269
C 144.754637 180.425073 145.205508 180.61183 145.675568 180.61183
z
" style="stroke:#000000;stroke-width:0.886227;"/>
    <path clip-path="url(#pe43e732243)" d="M 232.838145 220.93183
C 233.308205 220.93183 233.759076 220.745073 234.091459 220.41269
C 234.423841 220.080307 234.610598 219.629436 234.610598 219.159376
C 234.610598 218.689316 234.423841 218.238444 234.091459 217.906062
C 233.759076 217.573679 233.308205 217.386922 232.838145 217.386922
C 232.368084 217.386922 231.917213 217.573679 231.58483 217.906062
C 231.252448 218.238444 231.065691 218.689316 231.065691 219.159376
C 231.065691 219.629436 231.252448 220.080307 231.58483 220.41269
C 231.917213 220.745073 232.368084 220.93183 232.838145 220.93183
z
" style="stroke:#000000;stroke-width:0.886227;"/>
    <path clip-path="url(#pe43e732243)" d="M 127.279777 160.45183
C 127.749837 160.45183 128.200708 160.265073 128.533091 159.93269
C 128.865474 159.600307 129.052231 159.149436 129.052231 158.679376
C 129.052231 158.209316 128.865474 157.758444 128.533091 157.426062
C 128.200708 157.093679 127.749837 156.906922 127.279777 156.906922
C 126.809717 156.906922 126.358846 157.093679 126.026463 157.426062
C 125.69408 157.758444 125.507323 158.209316 125.507323 158.679376
C 125.507323 159.149436 125.69408 159.600307 126.026463 159.93269
C 126.358846 160.265073 126.809717 160.45183 127.279777 160.45183
z
" style="stroke:#000000;stroke-width:0.886227;"/>
    <path clip-path="url(#pe43e732243)" d="M 267.481216 261.25183
C 267.951276 261.25183 268.402147 261.065073 268.73453 260.73269
C 269.066913 260.400307 269.253669 259.949436 269.253669 259.479376
C 269.253669 259.009316 269.066913 258.558444 268.73453 258.226062
C 268.402147 257.893679 267.951276 257.706922 267.481216 257.706922
C 267.011155 257.706922 266.560284 257.893679 266.227901 258.226062
C 265.895519 258.558444 265.708762 259.009316 265.708762 259.479376
C 265.708762 259.949436 265.895519 260.400307 266.227901 260.73269
C 266.560284 261.065073 267.011155 261.25183 267.481216 261.25183
z
" style="stroke:#000000;stroke-width:0.886227;"/>
    <path clip-path="url(#pe43e732243)" d="M 144.473229 168.01183
C 144.94329 168.01183 145.394161 167.825073 145.726544 167.49269
C 146.058926 167.160307 146.245683 166.709436 146.245683 166.239376
C 146.245683 165.769316 146.058926 165.318444 145.726544 164.986062
C 145.394161 164.653679 144.94329 164.466922 144.473229 164.466922
C 144.003169 164.466922 143.552298 164.653679 143.219915 164.986062
C 142.887532 165.318444 142.700776 165.769316 142.700776 166.239376
C 142.700776 166.709436 142.887532 167.160307 143.219915 167.49269
C 143.552298 167.825073 144.003169 168.01183 144.473229 168.01183
z
" style="stroke:#000000;stroke-width:0.886227;"/>
    <path clip-path="url(#pe43e732243)" d="M 242.727967 241.09183
C 243.198027 241.09183 243.648898 240.905073 243.981281 240.57269
C 244.313664 240.240307 244.500421 239.789436 244.500421 239.319376
C 244.500421 238.849316 244.313664 238.398444 243.981281 238.066062
C 243.648898 237.733679 243.198027 237.546922 242.727967 237.546922
C 242.257907 237.546922 241.807036 237.733679 241.474653 238.066062
C 241.14227 238.398444 240.955513 238.849316 240.955513 239.319376
C 240.955513 239.789436 241.14227 240.240307 241.474653 240.57269
C 241.807036 240.905073 242.257907 241.09183 242.727967 241.09183
z
" style="stroke:#000000;stroke-width:0.886227;"/>
    <path clip-path="url(#pe43e732243)" d="M 244.061913 246.13183
C 244.531974 246.13183 244.982845 245.945073 245.315227 245.61269
C 245.64761 245.280307 245.834367 244.829436 245.834367 244.359376
C 245.834367 243.889316 245.64761 243.438444 245.315227 243.106062
C 244.982845 242.773679 244.531974 242.586922 244.061913 242.586922
C 243.591853 242.586922 243.140982 242.773679 242.808599 243.106062
C 242.476216 243.438444 242.289459 243.889316 242.289459 244.359376
C 242.289459 244.829436 242.476216 245.280307 242.808599 245.61269
C 243.140982 245.945073 243.591853 246.13183 244.061913 246.13183
z
" style="stroke:#000000;stroke-width:0.886227;"/>
    <path clip-path="url(#pe43e732243)" d="M 147.361926 185.65183
C 147.831986 185.65183 148.282857 185.465073 148.61524 185.13269
C 148.947623 184.800307 149.13438 184.349436 149.13438 183.879376
C 149.13438 183.409316 148.947623 182.958444 148.61524 182.626062
C 148.282857 182.293679 147.831986 182.106922 147.361926 182.106922
C 146.891866 182.106922 146.440995 182.293679 146.108612 182.626062
C 145.776229 182.958444 145.589472 183.409316 145.589472 183.879376
C 145.589472 184.349436 145.776229 184.800307 146.108612 185.13269
C 146.440995 185.465073 146.891866 185.65183 147.361926 185.65183
z
" style="stroke:#000000;stroke-width:0.886227;"/>
    <path clip-path="url(#pe43e732243)" d="M 237.254744 225.97183
C 237.724804 225.97183 238.175675 225.785073 238.508058 225.45269
C 238.840441 225.120307 239.027198 224.669436 239.027198 224.199376
C 239.027198 223.729316 238.840441 223.278444 238.508058 222.946062
C 238.175675 222.613679 237.724804 222.426922 237.254744 222.426922
C 236.784684 222.426922 236.333812 222.613679 236.00143 222.946062
C 235.669047 223.278444 235.48229 223.729316 235.48229 224.199376
C 235.48229 224.669436 235.669047 225.120307 236.00143 225.45269
C 236.333812 225.785073 236.784684 225.97183 237.254744 225.97183
z
" style="stroke:#000000;stroke-width:0.886227;"/>
    <path clip-path="url(#pe43e732243)" d="M 242.710342 236.05183
C 243.180402 236.05183 243.631273 235.865073 243.963656 235.53269
C 244.296038 235.200307 244.482795 234.749436 244.482795 234.279376
C 244.482795 233.809316 244.296038 233.358444 243.963656 233.026062
C 243.631273 232.693679 243.180402 232.506922 242.710342 232.506922
C 242.240281 232.506922 241.78941 232.693679 241.457027 233.026062
C 241.124645 233.358444 240.937888 233.809316 240.937888 234.279376
C 240.937888 234.749436 241.124645 235.200307 241.457027 235.53269
C 241.78941 235.865073 242.240281 236.05183 242.710342 236.05183
z
" style="stroke:#000000;stroke-width:0.886227;"/>
    <path clip-path="url(#pe43e732243)" d="M 108.763131 145.33183
C 109.233191 145.33183 109.684063 145.145073 110.016445 144.81269
C 110.348828 144.480307 110.535585 144.029436 110.535585 143.559376
C 110.535585 143.089316 110.348828 142.638444 110.016445 142.306062
C 109.684063 141.973679 109.233191 141.786922 108.763131 141.786922
C 108.293071 141.786922 107.8422 141.973679 107.509817 142.306062
C 107.177434 142.638444 106.990677 143.089316 106.990677 143.559376
C 106.990677 144.029436 107.177434 144.480307 107.509817 144.81269
C 107.8422 145.145073 108.293071 145.33183 108.763131 145.33183
z
" style="stroke:#000000;stroke-width:0.886227;"/>
    <path clip-path="url(#pe43e732243)" d="M 260.308218 256.21183
C 260.778278 256.21183 261.229149 256.025073 261.561532 255.69269
C 261.893915 255.360307 262.080672 254.909436 262.080672 254.439376
C 262.080672 253.969316 261.893915 253.518444 261.561532 253.186062
C 261.229149 252.853679 260.778278 252.666922 260.308218 252.666922
C 259.838158 252.666922 259.387287 252.853679 259.054904 253.186062
C 258.722521 253.518444 258.535764 253.969316 258.535764 254.439376
C 258.535764 254.909436 258.722521 255.360307 259.054904 255.69269
C 259.387287 256.025073 259.838158 256.21183 260.308218 256.21183
z
" style="stroke:#000000;stroke-width:0.886227;"/>
    <path clip-path="url(#pe43e732243)" d="M 247.820568 251.17183
C 248.290628 251.17183 248.741499 250.985073 249.073882 250.65269
C 249.406265 250.320307 249.593022 249.869436 249.593022 249.399376
C 249.593022 248.929316 249.406265 248.478444 249.073882 248.146062
C 248.741499 247.813679 248.290628 247.626922 247.820568 247.626922
C 247.350508 247.626922 246.899637 247.813679 246.567254 248.146062
C 246.234871 248.478444 246.048114 248.929316 246.048114 249.399376
C 246.048114 249.869436 246.234871 250.320307 246.567254 250.65269
C 246.899637 250.985073 247.350508 251.17183 247.820568 251.17183
z
" style="stroke:#000000;stroke-width:0.886227;"/>
   </g>
   <g id="PathCollection_2">
    <path clip-path="url(#pe43e732243)" d="M 63.468019 34.45183
C 63.938079 34.45183 64.38895 34.265073 64.721333 33.93269
C 65.053716 33.600307 65.240473 33.149436 65.240473 32.679376
C 65.240473 32.209316 65.053716 31.758444 64.721333 31.426062
C 64.38895 31.093679 63.938079 30.906922 63.468019 30.906922
C 62.997959 30.906922 62.547088 31.093679 62.214705 31.426062
C 61.882322 31.758444 61.695565 32.209316 61.695565 32.679376
C 61.695565 33.149436 61.882322 33.600307 62.214705 33.93269
C 62.547088 34.265073 62.997959 34.45183 63.468019 34.45183
z
" style="fill:#ff0000;stroke:#ff0000;stroke-width:0.886227;"/>
    <path clip-path="url(#pe43e732243)" d="M 63.468019 34.45183
C 63.938079 34.45183 64.38895 34.265073 64.721333 33.93269
C 65.053716 33.600307 65.240473 33.149436 65.240473 32.679376
C 65.240473 32.209316 65.053716 31.758444 64.721333 31.426062
C 64.38895 31.093679 63.938079 30.906922 63.468019 30.906922
C 62.997959 30.906922 62.547088 31.093679 62.214705 31.426062
C 61.882322 31.758444 61.695565 32.209316 61.695565 32.679376
C 61.695565 33.149436 61.882322 33.600307 62.214705 33.93269
C 62.547088 34.265073 62.997959 34.45183 63.468019 34.45183
z
" style="fill:#ff0000;stroke:#ff0000;stroke-width:0.886227;"/>
    <path clip-path="url(#pe43e732243)" d="M 63.635312 49.57183
C 64.105372 49.57183 64.556243 49.385073 64.888626 49.05269
C 65.221009 48.720307 65.407766 48.269436 65.407766 47.799376
C 65.407766 47.329316 65.221009 46.878444 64.888626 46.546062
C 64.556243 46.213679 64.105372 46.026922 63.635312 46.026922
C 63.165252 46.026922 62.714381 46.213679 62.381998 46.546062
C 62.049615 46.878444 61.862858 47.329316 61.862858 47.799376
C 61.862858 48.269436 62.049615 48.720307 62.381998 49.05269
C 62.714381 49.385073 63.165252 49.57183 63.635312 49.57183
z
" style="fill:#ff0000;stroke:#ff0000;stroke-width:0.886227;"/>
    <path clip-path="url(#pe43e732243)" d="M 63.635312 49.57183
C 64.105372 49.57183 64.556243 49.385073 64.888626 49.05269
C 65.221009 48.720307 65.407766 48.269436 65.407766 47.799376
C 65.407766 47.329316 65.221009 46.878444 64.888626 46.546062
C 64.556243 46.213679 64.105372 46.026922 63.635312 46.026922
C 63.165252 46.026922 62.714381 46.213679 62.381998 46.546062
C 62.049615 46.878444 61.862858 47.329316 61.862858 47.799376
C 61.862858 48.269436 62.049615 48.720307 62.381998 49.05269
C 62.714381 49.385073 63.165252 49.57183 63.635312 49.57183
z
" style="fill:#ff0000;stroke:#ff0000;stroke-width:0.886227;"/>
    <path clip-path="url(#pe43e732243)" d="M 63.468019 34.45183
C 63.938079 34.45183 64.38895 34.265073 64.721333 33.93269
C 65.053716 33.600307 65.240473 33.149436 65.240473 32.679376
C 65.240473 32.209316 65.053716 31.758444 64.721333 31.426062
C 64.38895 31.093679 63.938079 30.906922 63.468019 30.906922
C 62.997959 30.906922 62.547088 31.093679 62.214705 31.426062
C 61.882322 31.758444 61.695565 32.209316 61.695565 32.679376
C 61.695565 33.149436 61.882322 33.600307 62.214705 33.93269
C 62.547088 34.265073 62.997959 34.45183 63.468019 34.45183
z
" style="fill:#ff0000;stroke:#ff0000;stroke-width:0.886227;"/>
    <path clip-path="url(#pe43e732243)" d="M 63.635312 49.57183
C 64.105372 49.57183 64.556243 49.385073 64.888626 49.05269
C 65.221009 48.720307 65.407766 48.269436 65.407766 47.799376
C 65.407766 47.329316 65.221009 46.878444 64.888626 46.546062
C 64.556243 46.213679 64.105372 46.026922 63.635312 46.026922
C 63.165252 46.026922 62.714381 46.213679 62.381998 46.546062
C 62.049615 46.878444 61.862858 47.329316 61.862858 47.799376
C 61.862858 48.269436 62.049615 48.720307 62.381998 49.05269
C 62.714381 49.385073 63.165252 49.57183 63.635312 49.57183
z
" style="fill:#ff0000;stroke:#ff0000;stroke-width:0.886227;"/>
   </g>
   <g id="text_13">
    <g clip-path="url(#pe43e732243)">
     <!-- HALLMARK_MYC_TARGETS_V1 -->
     <defs>
      <path d="M 34.1875 63.1875
L 20.796875 26.90625
L 47.609375 26.90625
z
M 28.609375 72.90625
L 39.796875 72.90625
L 67.578125 0
L 57.328125 0
L 50.6875 18.703125
L 17.828125 18.703125
L 11.1875 0
L 0.78125 0
z
" id="DejaVuSans-65"/>
      <path d="M 9.8125 72.90625
L 19.671875 72.90625
L 19.671875 8.296875
L 55.171875 8.296875
L 55.171875 0
L 9.8125 0
z
" id="DejaVuSans-76"/>
      <path d="M 44.390625 34.1875
Q 47.5625 33.109375 50.5625 29.59375
Q 53.5625 26.078125 56.59375 19.921875
L 66.609375 0
L 56 0
L 46.6875 18.703125
Q 43.0625 26.03125 39.671875 28.421875
Q 36.28125 30.8125 30.421875 30.8125
L 19.671875 30.8125
L 19.671875 0
L 9.8125 0
L 9.8125 72.90625
L 32.078125 72.90625
Q 44.578125 72.90625 50.734375 67.671875
Q 56.890625 62.453125 56.890625 51.90625
Q 56.890625 45.015625 53.6875 40.46875
Q 50.484375 35.9375 44.390625 34.1875
z
M 19.671875 64.796875
L 19.671875 38.921875
L 32.078125 38.921875
Q 39.203125 38.921875 42.84375 42.21875
Q 46.484375 45.515625 46.484375 51.90625
Q 46.484375 58.296875 42.84375 61.546875
Q 39.203125 64.796875 32.078125 64.796875
z
" id="DejaVuSans-82"/>
      <path d="M 9.8125 72.90625
L 19.671875 72.90625
L 19.671875 42.09375
L 52.390625 72.90625
L 65.09375 72.90625
L 28.90625 38.921875
L 67.671875 0
L 54.6875 0
L 19.671875 35.109375
L 19.671875 0
L 9.8125 0
z
" id="DejaVuSans-75"/>
      <path d="M 50.984375 -16.609375
L 50.984375 -23.578125
L -0.984375 -23.578125
L -0.984375 -16.609375
z
" id="DejaVuSans-95"/>
      <path d="M -0.203125 72.90625
L 10.40625 72.90625
L 30.609375 42.921875
L 50.6875 72.90625
L 61.28125 72.90625
L 35.5 34.71875
L 35.5 0
L 25.59375 0
L 25.59375 34.71875
z
" id="DejaVuSans-89"/>
      <path d="M 64.40625 67.28125
L 64.40625 56.890625
Q 59.421875 61.53125 53.78125 63.8125
Q 48.140625 66.109375 41.796875 66.109375
Q 29.296875 66.109375 22.65625 58.46875
Q 16.015625 50.828125 16.015625 36.375
Q 16.015625 21.96875 22.65625 14.328125
Q 29.296875 6.6875 41.796875 6.6875
Q 48.140625 6.6875 53.78125 8.984375
Q 59.421875 11.28125 64.40625 15.921875
L 64.40625 5.609375
Q 59.234375 2.09375 53.4375 0.328125
Q 47.65625 -1.421875 41.21875 -1.421875
Q 24.65625 -1.421875 15.125 8.703125
Q 5.609375 18.84375 5.609375 36.375
Q 5.609375 53.953125 15.125 64.078125
Q 24.65625 74.21875 41.21875 74.21875
Q 47.75 74.21875 53.53125 72.484375
Q 59.328125 70.75 64.40625 67.28125
z
" id="DejaVuSans-67"/>
      <path d="M -0.296875 72.90625
L 61.375 72.90625
L 61.375 64.59375
L 35.5 64.59375
L 35.5 0
L 25.59375 0
L 25.59375 64.59375
L -0.296875 64.59375
z
" id="DejaVuSans-84"/>
      <path d="M 9.8125 72.90625
L 55.90625 72.90625
L 55.90625 64.59375
L 19.671875 64.59375
L 19.671875 43.015625
L 54.390625 43.015625
L 54.390625 34.71875
L 19.671875 34.71875
L 19.671875 8.296875
L 56.78125 8.296875
L 56.78125 0
L 9.8125 0
z
" id="DejaVuSans-69"/>
      <path d="M 53.515625 70.515625
L 53.515625 60.890625
Q 47.90625 63.578125 42.921875 64.890625
Q 37.9375 66.21875 33.296875 66.21875
Q 25.25 66.21875 20.875 63.09375
Q 16.5 59.96875 16.5 54.203125
Q 16.5 49.359375 19.40625 46.890625
Q 22.3125 44.4375 30.421875 42.921875
L 36.375 41.703125
Q 47.40625 39.59375 52.65625 34.296875
Q 57.90625 29 57.90625 20.125
Q 57.90625 9.515625 50.796875 4.046875
Q 43.703125 -1.421875 29.984375 -1.421875
Q 24.8125 -1.421875 18.96875 -0.25
Q 13.140625 0.921875 6.890625 3.21875
L 6.890625 13.375
Q 12.890625 10.015625 18.65625 8.296875
Q 24.421875 6.59375 29.984375 6.59375
Q 38.421875 6.59375 43.015625 9.90625
Q 47.609375 13.234375 47.609375 19.390625
Q 47.609375 24.75 44.3125 27.78125
Q 41.015625 30.8125 33.5 32.328125
L 27.484375 33.5
Q 16.453125 35.6875 11.515625 40.375
Q 6.59375 45.0625 6.59375 53.421875
Q 6.59375 63.09375 13.40625 68.65625
Q 20.21875 74.21875 32.171875 74.21875
Q 37.3125 74.21875 42.625 73.28125
Q 47.953125 72.359375 53.515625 70.515625
z
" id="DejaVuSans-83"/>
      <path d="M 28.609375 0
L 0.78125 72.90625
L 11.078125 72.90625
L 34.1875 11.53125
L 57.328125 72.90625
L 67.578125 72.90625
L 39.796875 0
z
" id="DejaVuSans-86"/>
     </defs>
     <g transform="translate(63.468019 31.551913)scale(0.05 -0.05)">
      <use xlink:href="#DejaVuSans-72"/>
      <use x="75.195312" xlink:href="#DejaVuSans-65"/>
      <use x="143.603516" xlink:href="#DejaVuSans-76"/>
      <use x="199.316406" xlink:href="#DejaVuSans-76"/>
      <use x="255.029297" xlink:href="#DejaVuSans-77"/>
      <use x="341.308594" xlink:href="#DejaVuSans-65"/>
      <use x="409.716797" xlink:href="#DejaVuSans-82"/>
      <use x="479.199219" xlink:href="#DejaVuSans-75"/>
      <use x="544.775391" xlink:href="#DejaVuSans-95"/>
      <use x="594.775391" xlink:href="#DejaVuSans-77"/>
      <use x="681.054688" xlink:href="#DejaVuSans-89"/>
      <use x="742.060547" xlink:href="#DejaVuSans-67"/>
      <use x="811.884766" xlink:href="#DejaVuSans-95"/>
      <use x="861.884766" xlink:href="#DejaVuSans-84"/>
      <use x="922.859375" xlink:href="#DejaVuSans-65"/>
      <use x="991.267578" xlink:href="#DejaVuSans-82"/>
      <use x="1060.75" xlink:href="#DejaVuSans-71"/>
      <use x="1138.240234" xlink:href="#DejaVuSans-69"/>
      <use x="1201.423828" xlink:href="#DejaVuSans-84"/>
      <use x="1262.507812" xlink:href="#DejaVuSans-83"/>
      <use x="1325.984375" xlink:href="#DejaVuSans-95"/>
      <use x="1375.984375" xlink:href="#DejaVuSans-86"/>
      <use x="1444.392578" xlink:href="#DejaVuSans-49"/>
     </g>
    </g>
   </g>
   <g id="text_14">
    <g clip-path="url(#pe43e732243)">
     <!-- HALLMARK_E2F_TARGETS -->
     <defs>
      <path d="M 9.8125 72.90625
L 51.703125 72.90625
L 51.703125 64.59375
L 19.671875 64.59375
L 19.671875 43.109375
L 48.578125 43.109375
L 48.578125 34.8125
L 19.671875 34.8125
L 19.671875 0
L 9.8125 0
z
" id="DejaVuSans-70"/>
     </defs>
     <g transform="translate(63.468019 36.33887)scale(0.05 -0.05)">
      <use xlink:href="#DejaVuSans-72"/>
      <use x="75.195312" xlink:href="#DejaVuSans-65"/>
      <use x="143.603516" xlink:href="#DejaVuSans-76"/>
      <use x="199.316406" xlink:href="#DejaVuSans-76"/>
      <use x="255.029297" xlink:href="#DejaVuSans-77"/>
      <use x="341.308594" xlink:href="#DejaVuSans-65"/>
      <use x="409.716797" xlink:href="#DejaVuSans-82"/>
      <use x="479.199219" xlink:href="#DejaVuSans-75"/>
      <use x="544.775391" xlink:href="#DejaVuSans-95"/>
      <use x="594.775391" xlink:href="#DejaVuSans-69"/>
      <use x="657.958984" xlink:href="#DejaVuSans-50"/>
      <use x="721.582031" xlink:href="#DejaVuSans-70"/>
      <use x="779.101562" xlink:href="#DejaVuSans-95"/>
      <use x="829.101562" xlink:href="#DejaVuSans-84"/>
      <use x="890.076172" xlink:href="#DejaVuSans-65"/>
      <use x="958.484375" xlink:href="#DejaVuSans-82"/>
      <use x="1027.966797" xlink:href="#DejaVuSans-71"/>
      <use x="1105.457031" xlink:href="#DejaVuSans-69"/>
      <use x="1168.640625" xlink:href="#DejaVuSans-84"/>
      <use x="1229.724609" xlink:href="#DejaVuSans-83"/>
     </g>
    </g>
   </g>
   <g id="text_15">
    <g clip-path="url(#pe43e732243)">
     <!-- HALLMARK_G2M_CHECKPOINT -->
     <defs>
      <path d="M 19.671875 64.796875
L 19.671875 37.40625
L 32.078125 37.40625
Q 38.96875 37.40625 42.71875 40.96875
Q 46.484375 44.53125 46.484375 51.125
Q 46.484375 57.671875 42.71875 61.234375
Q 38.96875 64.796875 32.078125 64.796875
z
M 9.8125 72.90625
L 32.078125 72.90625
Q 44.34375 72.90625 50.609375 67.359375
Q 56.890625 61.8125 56.890625 51.125
Q 56.890625 40.328125 50.609375 34.8125
Q 44.34375 29.296875 32.078125 29.296875
L 19.671875 29.296875
L 19.671875 0
L 9.8125 0
z
" id="DejaVuSans-80"/>
      <path d="M 39.40625 66.21875
Q 28.65625 66.21875 22.328125 58.203125
Q 16.015625 50.203125 16.015625 36.375
Q 16.015625 22.609375 22.328125 14.59375
Q 28.65625 6.59375 39.40625 6.59375
Q 50.140625 6.59375 56.421875 14.59375
Q 62.703125 22.609375 62.703125 36.375
Q 62.703125 50.203125 56.421875 58.203125
Q 50.140625 66.21875 39.40625 66.21875
z
M 39.40625 74.21875
Q 54.734375 74.21875 63.90625 63.9375
Q 73.09375 53.65625 73.09375 36.375
Q 73.09375 19.140625 63.90625 8.859375
Q 54.734375 -1.421875 39.40625 -1.421875
Q 24.03125 -1.421875 14.8125 8.828125
Q 5.609375 19.09375 5.609375 36.375
Q 5.609375 53.65625 14.8125 63.9375
Q 24.03125 74.21875 39.40625 74.21875
z
" id="DejaVuSans-79"/>
      <path d="M 9.8125 72.90625
L 19.671875 72.90625
L 19.671875 0
L 9.8125 0
z
" id="DejaVuSans-73"/>
      <path d="M 9.8125 72.90625
L 23.09375 72.90625
L 55.421875 11.921875
L 55.421875 72.90625
L 64.984375 72.90625
L 64.984375 0
L 51.703125 0
L 19.390625 60.984375
L 19.390625 0
L 9.8125 0
z
" id="DejaVuSans-78"/>
     </defs>
     <g transform="translate(63.468019 41.17727)scale(0.05 -0.05)">
      <use xlink:href="#DejaVuSans-72"/>
      <use x="75.195312" xlink:href="#DejaVuSans-65"/>
      <use x="143.603516" xlink:href="#DejaVuSans-76"/>
      <use x="199.316406" xlink:href="#DejaVuSans-76"/>
      <use x="255.029297" xlink:href="#DejaVuSans-77"/>
      <use x="341.308594" xlink:href="#DejaVuSans-65"/>
      <use x="409.716797" xlink:href="#DejaVuSans-82"/>
      <use x="479.199219" xlink:href="#DejaVuSans-75"/>
      <use x="544.775391" xlink:href="#DejaVuSans-95"/>
      <use x="594.775391" xlink:href="#DejaVuSans-71"/>
      <use x="672.265625" xlink:href="#DejaVuSans-50"/>
      <use x="735.888672" xlink:href="#DejaVuSans-77"/>
      <use x="822.167969" xlink:href="#DejaVuSans-95"/>
      <use x="872.167969" xlink:href="#DejaVuSans-67"/>
      <use x="941.992188" xlink:href="#DejaVuSans-72"/>
      <use x="1017.1875" xlink:href="#DejaVuSans-69"/>
      <use x="1080.371094" xlink:href="#DejaVuSans-67"/>
      <use x="1150.195312" xlink:href="#DejaVuSans-75"/>
      <use x="1215.771484" xlink:href="#DejaVuSans-80"/>
      <use x="1276.074219" xlink:href="#DejaVuSans-79"/>
      <use x="1354.785156" xlink:href="#DejaVuSans-73"/>
      <use x="1384.277344" xlink:href="#DejaVuSans-78"/>
      <use x="1459.082031" xlink:href="#DejaVuSans-84"/>
     </g>
    </g>
   </g>
   <g id="text_16">
    <g clip-path="url(#pe43e732243)">
     <!-- HALLMARK_INTERFERON_GAMMA_RESPONSE -->
     <g transform="translate(63.635312 46.01567)scale(0.05 -0.05)">
      <use xlink:href="#DejaVuSans-72"/>
      <use x="75.195312" xlink:href="#DejaVuSans-65"/>
      <use x="143.603516" xlink:href="#DejaVuSans-76"/>
      <use x="199.316406" xlink:href="#DejaVuSans-76"/>
      <use x="255.029297" xlink:href="#DejaVuSans-77"/>
      <use x="341.308594" xlink:href="#DejaVuSans-65"/>
      <use x="409.716797" xlink:href="#DejaVuSans-82"/>
      <use x="479.199219" xlink:href="#DejaVuSans-75"/>
      <use x="544.775391" xlink:href="#DejaVuSans-95"/>
      <use x="594.775391" xlink:href="#DejaVuSans-73"/>
      <use x="624.267578" xlink:href="#DejaVuSans-78"/>
      <use x="699.072266" xlink:href="#DejaVuSans-84"/>
      <use x="760.15625" xlink:href="#DejaVuSans-69"/>
      <use x="823.339844" xlink:href="#DejaVuSans-82"/>
      <use x="892.822266" xlink:href="#DejaVuSans-70"/>
      <use x="950.341797" xlink:href="#DejaVuSans-69"/>
      <use x="1013.525391" xlink:href="#DejaVuSans-82"/>
      <use x="1083.007812" xlink:href="#DejaVuSans-79"/>
      <use x="1161.71875" xlink:href="#DejaVuSans-78"/>
      <use x="1236.523438" xlink:href="#DejaVuSans-95"/>
      <use x="1286.523438" xlink:href="#DejaVuSans-71"/>
      <use x="1364.013672" xlink:href="#DejaVuSans-65"/>
      <use x="1432.421875" xlink:href="#DejaVuSans-77"/>
      <use x="1518.701172" xlink:href="#DejaVuSans-77"/>
      <use x="1604.980469" xlink:href="#DejaVuSans-65"/>
      <use x="1673.388672" xlink:href="#DejaVuSans-95"/>
      <use x="1723.388672" xlink:href="#DejaVuSans-82"/>
      <use x="1792.871094" xlink:href="#DejaVuSans-69"/>
      <use x="1856.054688" xlink:href="#DejaVuSans-83"/>
      <use x="1919.53125" xlink:href="#DejaVuSans-80"/>
      <use x="1979.833984" xlink:href="#DejaVuSans-79"/>
      <use x="2058.544922" xlink:href="#DejaVuSans-78"/>
      <use x="2133.349609" xlink:href="#DejaVuSans-83"/>
      <use x="2196.826172" xlink:href="#DejaVuSans-69"/>
     </g>
    </g>
   </g>
   <g id="text_17">
    <g clip-path="url(#pe43e732243)">
     <!-- HALLMARK_INFLAMMATORY_RESPONSE -->
     <g transform="translate(63.635312 50.85407)scale(0.05 -0.05)">
      <use xlink:href="#DejaVuSans-72"/>
      <use x="75.195312" xlink:href="#DejaVuSans-65"/>
      <use x="143.603516" xlink:href="#DejaVuSans-76"/>
      <use x="199.316406" xlink:href="#DejaVuSans-76"/>
      <use x="255.029297" xlink:href="#DejaVuSans-77"/>
      <use x="341.308594" xlink:href="#DejaVuSans-65"/>
      <use x="409.716797" xlink:href="#DejaVuSans-82"/>
      <use x="479.199219" xlink:href="#DejaVuSans-75"/>
      <use x="544.775391" xlink:href="#DejaVuSans-95"/>
      <use x="594.775391" xlink:href="#DejaVuSans-73"/>
      <use x="624.267578" xlink:href="#DejaVuSans-78"/>
      <use x="699.072266" xlink:href="#DejaVuSans-70"/>
      <use x="756.591797" xlink:href="#DejaVuSans-76"/>
      <use x="812.335938" xlink:href="#DejaVuSans-65"/>
      <use x="880.744141" xlink:href="#DejaVuSans-77"/>
      <use x="967.023438" xlink:href="#DejaVuSans-77"/>
      <use x="1053.302734" xlink:href="#DejaVuSans-65"/>
      <use x="1121.601562" xlink:href="#DejaVuSans-84"/>
      <use x="1182.685547" xlink:href="#DejaVuSans-79"/>
      <use x="1261.396484" xlink:href="#DejaVuSans-82"/>
      <use x="1330.785156" xlink:href="#DejaVuSans-89"/>
      <use x="1391.869141" xlink:href="#DejaVuSans-95"/>
      <use x="1441.869141" xlink:href="#DejaVuSans-82"/>
      <use x="1511.351562" xlink:href="#DejaVuSans-69"/>
      <use x="1574.535156" xlink:href="#DejaVuSans-83"/>
      <use x="1638.011719" xlink:href="#DejaVuSans-80"/>
      <use x="1698.314453" xlink:href="#DejaVuSans-79"/>
      <use x="1777.025391" xlink:href="#DejaVuSans-78"/>
      <use x="1851.830078" xlink:href="#DejaVuSans-83"/>
      <use x="1915.306641" xlink:href="#DejaVuSans-69"/>
     </g>
    </g>
   </g>
   <g id="text_18">
    <g clip-path="url(#pe43e732243)">
     <!-- HALLMARK_TNFA_SIGNALING_VIA_NFKB -->
     <g transform="translate(63.635312 55.69247)scale(0.05 -0.05)">
      <use xlink:href="#DejaVuSans-72"/>
      <use x="75.195312" xlink:href="#DejaVuSans-65"/>
      <use x="143.603516" xlink:href="#DejaVuSans-76"/>
      <use x="199.316406" xlink:href="#DejaVuSans-76"/>
      <use x="255.029297" xlink:href="#DejaVuSans-77"/>
      <use x="341.308594" xlink:href="#DejaVuSans-65"/>
      <use x="409.716797" xlink:href="#DejaVuSans-82"/>
      <use x="479.199219" xlink:href="#DejaVuSans-75"/>
      <use x="544.775391" xlink:href="#DejaVuSans-95"/>
      <use x="594.775391" xlink:href="#DejaVuSans-84"/>
      <use x="655.859375" xlink:href="#DejaVuSans-78"/>
      <use x="730.664062" xlink:href="#DejaVuSans-70"/>
      <use x="788.042969" xlink:href="#DejaVuSans-65"/>
      <use x="856.451172" xlink:href="#DejaVuSans-95"/>
      <use x="906.451172" xlink:href="#DejaVuSans-83"/>
      <use x="969.927734" xlink:href="#DejaVuSans-73"/>
      <use x="999.419922" xlink:href="#DejaVuSans-71"/>
      <use x="1076.910156" xlink:href="#DejaVuSans-78"/>
      <use x="1151.714844" xlink:href="#DejaVuSans-65"/>
      <use x="1220.123047" xlink:href="#DejaVuSans-76"/>
      <use x="1275.835938" xlink:href="#DejaVuSans-73"/>
      <use x="1305.328125" xlink:href="#DejaVuSans-78"/>
      <use x="1380.132812" xlink:href="#DejaVuSans-71"/>
      <use x="1457.623047" xlink:href="#DejaVuSans-95"/>
      <use x="1507.623047" xlink:href="#DejaVuSans-86"/>
      <use x="1576.03125" xlink:href="#DejaVuSans-73"/>
      <use x="1605.523438" xlink:href="#DejaVuSans-65"/>
      <use x="1673.931641" xlink:href="#DejaVuSans-95"/>
      <use x="1723.931641" xlink:href="#DejaVuSans-78"/>
      <use x="1798.736328" xlink:href="#DejaVuSans-70"/>
      <use x="1856.255859" xlink:href="#DejaVuSans-75"/>
      <use x="1921.832031" xlink:href="#DejaVuSans-66"/>
     </g>
    </g>
   </g>
  </g>
  <g id="text_19">
   <!-- GSEA pathway statistics vs ranking -->
   <defs>
    <path d="M 54.890625 33.015625
L 54.890625 0
L 45.90625 0
L 45.90625 32.71875
Q 45.90625 40.484375 42.875 44.328125
Q 39.84375 48.1875 33.796875 48.1875
Q 26.515625 48.1875 22.3125 43.546875
Q 18.109375 38.921875 18.109375 30.90625
L 18.109375 0
L 9.078125 0
L 9.078125 75.984375
L 18.109375 75.984375
L 18.109375 46.1875
Q 21.34375 51.125 25.703125 53.5625
Q 30.078125 56 35.796875 56
Q 45.21875 56 50.046875 50.171875
Q 54.890625 44.34375 54.890625 33.015625
z
" id="DejaVuSans-104"/>
    <path d="M 4.203125 54.6875
L 13.1875 54.6875
L 24.421875 12.015625
L 35.59375 54.6875
L 46.1875 54.6875
L 57.421875 12.015625
L 68.609375 54.6875
L 77.59375 54.6875
L 63.28125 0
L 52.6875 0
L 40.921875 44.828125
L 29.109375 0
L 18.5 0
z
" id="DejaVuSans-119"/>
    <path d="M 32.171875 -5.078125
Q 28.375 -14.84375 24.75 -17.8125
Q 21.140625 -20.796875 15.09375 -20.796875
L 7.90625 -20.796875
L 7.90625 -13.28125
L 13.1875 -13.28125
Q 16.890625 -13.28125 18.9375 -11.515625
Q 21 -9.765625 23.484375 -3.21875
L 25.09375 0.875
L 2.984375 54.6875
L 12.5 54.6875
L 29.59375 11.921875
L 46.6875 54.6875
L 56.203125 54.6875
z
" id="DejaVuSans-121"/>
   </defs>
   <g transform="translate(87.227656 11.397656)scale(0.15 -0.15)">
    <use xlink:href="#DejaVuSans-71"/>
    <use x="77.490234" xlink:href="#DejaVuSans-83"/>
    <use x="140.966797" xlink:href="#DejaVuSans-69"/>
    <use x="204.150391" xlink:href="#DejaVuSans-65"/>
    <use x="272.558594" xlink:href="#DejaVuSans-32"/>
    <use x="304.345703" xlink:href="#DejaVuSans-112"/>
    <use x="367.822266" xlink:href="#DejaVuSans-97"/>
    <use x="429.101562" xlink:href="#DejaVuSans-116"/>
    <use x="468.310547" xlink:href="#DejaVuSans-104"/>
    <use x="531.689453" xlink:href="#DejaVuSans-119"/>
    <use x="613.476562" xlink:href="#DejaVuSans-97"/>
    <use x="674.755859" xlink:href="#DejaVuSans-121"/>
    <use x="733.935547" xlink:href="#DejaVuSans-32"/>
    <use x="765.722656" xlink:href="#DejaVuSans-115"/>
    <use x="817.822266" xlink:href="#DejaVuSans-116"/>
    <use x="857.03125" xlink:href="#DejaVuSans-97"/>
    <use x="918.310547" xlink:href="#DejaVuSans-116"/>
    <use x="957.519531" xlink:href="#DejaVuSans-105"/>
    <use x="985.302734" xlink:href="#DejaVuSans-115"/>
    <use x="1037.402344" xlink:href="#DejaVuSans-116"/>
    <use x="1076.611328" xlink:href="#DejaVuSans-105"/>
    <use x="1104.394531" xlink:href="#DejaVuSans-99"/>
    <use x="1159.375" xlink:href="#DejaVuSans-115"/>
    <use x="1211.474609" xlink:href="#DejaVuSans-32"/>
    <use x="1243.261719" xlink:href="#DejaVuSans-118"/>
    <use x="1302.441406" xlink:href="#DejaVuSans-115"/>
    <use x="1354.541016" xlink:href="#DejaVuSans-32"/>
    <use x="1386.328125" xlink:href="#DejaVuSans-114"/>
    <use x="1427.441406" xlink:href="#DejaVuSans-97"/>
    <use x="1488.720703" xlink:href="#DejaVuSans-110"/>
    <use x="1552.099609" xlink:href="#DejaVuSans-107"/>
    <use x="1610.009766" xlink:href="#DejaVuSans-105"/>
    <use x="1637.792969" xlink:href="#DejaVuSans-110"/>
    <use x="1701.171875" xlink:href="#DejaVuSans-103"/>
   </g>
  </g>
 </g>
 <defs>
  <clipPath id="pe43e732243">
   <rect height="266.112" width="357.12" x="46.772188" y="20.583376"/>
  </clipPath>
 </defs>
</svg>
