<?xml version="1.0" encoding="utf-8" standalone="no"?>
<!DOCTYPE svg PUBLIC "-//W3C//DTD SVG 1.1//EN"
  "http://www.w3.org/Graphics/SVG/1.1/DTD/svg11.dtd">
<!-- Created with matplotlib (https://matplotlib.org/) -->
<svg height="322.176313pt" version="1.1" viewBox="0 0 410.455938 322.176313" width="410.455938pt" xmlns="http://www.w3.org/2000/svg" xmlns:xlink="http://www.w3.org/1999/xlink">
 <defs>
  <style type="text/css">
*{stroke-linecap:butt;stroke-linejoin:round;}
  </style>
 </defs>
 <g id="figure_1">
  <g id="patch_1">
   <path d="M 0 322.176313 
L 410.455938 322.176313 
L 410.455938 0 
L 0 0 
z
" style="fill:#ffffff;stroke:#ffffff;stroke-linejoin:miter;"/>
  </g>
  <g id="axes_1">
   <g id="patch_2">
    <path d="M 50.585938 286.695376 
L 407.705938 286.695376 
L 407.705938 20.583376 
L 50.585938 20.583376 
z
" style="fill:none;"/>
   </g>
   <g id="matplotlib.axis_1">
    <g id="xtick_1">
     <g id="line2d_1">
      <path clip-path="url(#p68337fbddb)" d="M 66.145435 286.695376 
L 66.145435 20.583376 
" style="fill:none;stroke:#e5e5e5;stroke-width:0.8;"/>
     </g>
     <g id="line2d_2">
      <path d="M 66.145435 286.695376 
" style="fill:none;stroke:#000000;stroke-width:1.5;"/>
      <defs>
       <path d="M 0 0 
L 0 2.75 
" id="mf712e07f5f" style="stroke:#000000;"/>
      </defs>
      <g>
       <use style="stroke:#000000;" x="66.145435" xlink:href="#mf712e07f5f" y="286.695376"/>
      </g>
     </g>
     <g id="text_1">
      <!-- 0 -->
      <defs>
       <path d="M 31.78125 66.40625 
Q 24.171875 66.40625 20.328125 58.90625 
Q 16.5 51.421875 16.5 36.375 
Q 16.5 21.390625 20.328125 13.890625 
Q 24.171875 6.390625 31.78125 6.390625 
Q 39.453125 6.390625 43.28125 13.890625 
Q 47.125 21.390625 47.125 36.375 
Q 47.125 51.421875 43.28125 58.90625 
Q 39.453125 66.40625 31.78125 66.40625 
z
M 31.78125 74.21875 
Q 44.046875 74.21875 50.515625 64.515625 
Q 56.984375 54.828125 56.984375 36.375 
Q 56.984375 17.96875 50.515625 8.265625 
Q 44.046875 -1.421875 31.78125 -1.421875 
Q 19.53125 -1.421875 13.0625 8.265625 
Q 6.59375 17.96875 6.59375 36.375 
Q 6.59375 54.828125 13.0625 64.515625 
Q 19.53125 74.21875 31.78125 74.21875 
z
" id="DejaVuSans-48"/>
      </defs>
      <g style="fill:#4d4d4d;" transform="translate(62.327935 300.763501)scale(0.12 -0.12)">
       <use xlink:href="#DejaVuSans-48"/>
      </g>
     </g>
    </g>
    <g id="xtick_2">
     <g id="line2d_3">
      <path clip-path="url(#p68337fbddb)" d="M 147.488366 286.695376 
L 147.488366 20.583376 
" style="fill:none;stroke:#e5e5e5;stroke-width:0.8;"/>
     </g>
     <g id="line2d_4">
      <path d="M 147.488366 286.695376 
" style="fill:none;stroke:#000000;stroke-width:1.5;"/>
      <g>
       <use style="stroke:#000000;" x="147.488366" xlink:href="#mf712e07f5f" y="286.695376"/>
      </g>
     </g>
     <g id="text_2">
      <!-- 0.25 -->
      <defs>
       <path d="M 10.6875 12.40625 
L 21 12.40625 
L 21 0 
L 10.6875 0 
z
" id="DejaVuSans-46"/>
       <path d="M 19.1875 8.296875 
L 53.609375 8.296875 
L 53.609375 0 
L 7.328125 0 
L 7.328125 8.296875 
Q 12.9375 14.109375 22.625 23.890625 
Q 32.328125 33.6875 34.8125 36.53125 
Q 39.546875 41.84375 41.421875 45.53125 
Q 43.3125 49.21875 43.3125 52.78125 
Q 43.3125 58.59375 39.234375 62.25 
Q 35.15625 65.921875 28.609375 65.921875 
Q 23.96875 65.921875 18.8125 64.3125 
Q 13.671875 62.703125 7.8125 59.421875 
L 7.8125 69.390625 
Q 13.765625 71.78125 18.9375 73 
Q 24.125 74.21875 28.421875 74.21875 
Q 39.75 74.21875 46.484375 68.546875 
Q 53.21875 62.890625 53.21875 53.421875 
Q 53.21875 48.921875 51.53125 44.890625 
Q 49.859375 40.875 45.40625 35.40625 
Q 44.1875 33.984375 37.640625 27.21875 
Q 31.109375 20.453125 19.1875 8.296875 
z
" id="DejaVuSans-50"/>
       <path d="M 10.796875 72.90625 
L 49.515625 72.90625 
L 49.515625 64.59375 
L 19.828125 64.59375 
L 19.828125 46.734375 
Q 21.96875 47.46875 24.109375 47.828125 
Q 26.265625 48.1875 28.421875 48.1875 
Q 40.625 48.1875 47.75 41.5 
Q 54.890625 34.8125 54.890625 23.390625 
Q 54.890625 11.625 47.5625 5.09375 
Q 40.234375 -1.421875 26.90625 -1.421875 
Q 22.3125 -1.421875 17.546875 -0.640625 
Q 12.796875 0.140625 7.71875 1.703125 
L 7.71875 11.625 
Q 12.109375 9.234375 16.796875 8.0625 
Q 21.484375 6.890625 26.703125 6.890625 
Q 35.15625 6.890625 40.078125 11.328125 
Q 45.015625 15.765625 45.015625 23.390625 
Q 45.015625 31 40.078125 35.4375 
Q 35.15625 39.890625 26.703125 39.890625 
Q 22.75 39.890625 18.8125 39.015625 
Q 14.890625 38.140625 10.796875 36.28125 
z
" id="DejaVuSans-53"/>
      </defs>
      <g style="fill:#4d4d4d;" transform="translate(134.128991 300.763501)scale(0.12 -0.12)">
       <use xlink:href="#DejaVuSans-48"/>
       <use x="63.623047" xlink:href="#DejaVuSans-46"/>
       <use x="95.410156" xlink:href="#DejaVuSans-50"/>
       <use x="159.033203" xlink:href="#DejaVuSans-53"/>
      </g>
     </g>
    </g>
    <g id="xtick_3">
     <g id="line2d_5">
      <path clip-path="url(#p68337fbddb)" d="M 228.831296 286.695376 
L 228.831296 20.583376 
" style="fill:none;stroke:#e5e5e5;stroke-width:0.8;"/>
     </g>
     <g id="line2d_6">
      <path d="M 228.831296 286.695376 
" style="fill:none;stroke:#000000;stroke-width:1.5;"/>
      <g>
       <use style="stroke:#000000;" x="228.831296" xlink:href="#mf712e07f5f" y="286.695376"/>
      </g>
     </g>
     <g id="text_3">
      <!-- 0.50 -->
      <g style="fill:#4d4d4d;" transform="translate(215.471921 300.763501)scale(0.12 -0.12)">
       <use xlink:href="#DejaVuSans-48"/>
       <use x="63.623047" xlink:href="#DejaVuSans-46"/>
       <use x="95.410156" xlink:href="#DejaVuSans-53"/>
       <use x="159.033203" xlink:href="#DejaVuSans-48"/>
      </g>
     </g>
    </g>
    <g id="xtick_4">
     <g id="line2d_7">
      <path clip-path="url(#p68337fbddb)" d="M 310.174226 286.695376 
L 310.174226 20.583376 
" style="fill:none;stroke:#e5e5e5;stroke-width:0.8;"/>
     </g>
     <g id="line2d_8">
      <path d="M 310.174226 286.695376 
" style="fill:none;stroke:#000000;stroke-width:1.5;"/>
      <g>
       <use style="stroke:#000000;" x="310.174226" xlink:href="#mf712e07f5f" y="286.695376"/>
      </g>
     </g>
     <g id="text_4">
      <!-- 0.75 -->
      <defs>
       <path d="M 8.203125 72.90625 
L 55.078125 72.90625 
L 55.078125 68.703125 
L 28.609375 0 
L 18.3125 0 
L 43.21875 64.59375 
L 8.203125 64.59375 
z
" id="DejaVuSans-55"/>
      </defs>
      <g style="fill:#4d4d4d;" transform="translate(296.814851 300.763501)scale(0.12 -0.12)">
       <use xlink:href="#DejaVuSans-48"/>
       <use x="63.623047" xlink:href="#DejaVuSans-46"/>
       <use x="95.410156" xlink:href="#DejaVuSans-55"/>
       <use x="159.033203" xlink:href="#DejaVuSans-53"/>
      </g>
     </g>
    </g>
    <g id="xtick_5">
     <g id="line2d_9">
      <path clip-path="url(#p68337fbddb)" d="M 391.517156 286.695376 
L 391.517156 20.583376 
" style="fill:none;stroke:#e5e5e5;stroke-width:0.8;"/>
     </g>
     <g id="line2d_10">
      <path d="M 391.517156 286.695376 
" style="fill:none;stroke:#000000;stroke-width:1.5;"/>
      <g>
       <use style="stroke:#000000;" x="391.517156" xlink:href="#mf712e07f5f" y="286.695376"/>
      </g>
     </g>
     <g id="text_5">
      <!-- 1 -->
      <defs>
       <path d="M 12.40625 8.296875 
L 28.515625 8.296875 
L 28.515625 63.921875 
L 10.984375 60.40625 
L 10.984375 69.390625 
L 28.421875 72.90625 
L 38.28125 72.90625 
L 38.28125 8.296875 
L 54.390625 8.296875 
L 54.390625 0 
L 12.40625 0 
z
" id="DejaVuSans-49"/>
      </defs>
      <g style="fill:#4d4d4d;" transform="translate(387.699656 300.763501)scale(0.12 -0.12)">
       <use xlink:href="#DejaVuSans-49"/>
      </g>
     </g>
    </g>
    <g id="xtick_6">
     <g id="line2d_11">
      <path clip-path="url(#p68337fbddb)" d="M 106.8169 286.695376 
L 106.8169 20.583376 
" style="fill:none;stroke:#fafafa;"/>
     </g>
     <g id="line2d_12">
      <path d="M 106.8169 286.695376 
" style="fill:none;stroke:#000000;stroke-width:1.5;"/>
     </g>
    </g>
    <g id="xtick_7">
     <g id="line2d_13">
      <path clip-path="url(#p68337fbddb)" d="M 188.159831 286.695376 
L 188.159831 20.583376 
" style="fill:none;stroke:#fafafa;"/>
     </g>
     <g id="line2d_14">
      <path d="M 188.159831 286.695376 
" style="fill:none;stroke:#000000;stroke-width:1.5;"/>
     </g>
    </g>
    <g id="xtick_8">
     <g id="line2d_15">
      <path clip-path="url(#p68337fbddb)" d="M 269.502761 286.695376 
L 269.502761 20.583376 
" style="fill:none;stroke:#fafafa;"/>
     </g>
     <g id="line2d_16">
      <path d="M 269.502761 286.695376 
" style="fill:none;stroke:#000000;stroke-width:1.5;"/>
     </g>
    </g>
    <g id="xtick_9">
     <g id="line2d_17">
      <path clip-path="url(#p68337fbddb)" d="M 350.845691 286.695376 
L 350.845691 20.583376 
" style="fill:none;stroke:#fafafa;"/>
     </g>
     <g id="line2d_18">
      <path d="M 350.845691 286.695376 
" style="fill:none;stroke:#000000;stroke-width:1.5;"/>
     </g>
    </g>
    <g id="text_6">
     <!-- adjusted p-value -->
     <defs>
      <path d="M 34.28125 27.484375 
Q 23.390625 27.484375 19.1875 25 
Q 14.984375 22.515625 14.984375 16.5 
Q 14.984375 11.71875 18.140625 8.90625 
Q 21.296875 6.109375 26.703125 6.109375 
Q 34.1875 6.109375 38.703125 11.40625 
Q 43.21875 16.703125 43.21875 25.484375 
L 43.21875 27.484375 
z
M 52.203125 31.203125 
L 52.203125 0 
L 43.21875 0 
L 43.21875 8.296875 
Q 40.140625 3.328125 35.546875 0.953125 
Q 30.953125 -1.421875 24.3125 -1.421875 
Q 15.921875 -1.421875 10.953125 3.296875 
Q 6 8.015625 6 15.921875 
Q 6 25.140625 12.171875 29.828125 
Q 18.359375 34.515625 30.609375 34.515625 
L 43.21875 34.515625 
L 43.21875 35.40625 
Q 43.21875 41.609375 39.140625 45 
Q 35.0625 48.390625 27.6875 48.390625 
Q 23 48.390625 18.546875 47.265625 
Q 14.109375 46.140625 10.015625 43.890625 
L 10.015625 52.203125 
Q 14.9375 54.109375 19.578125 55.046875 
Q 24.21875 56 28.609375 56 
Q 40.484375 56 46.34375 49.84375 
Q 52.203125 43.703125 52.203125 31.203125 
z
" id="DejaVuSans-97"/>
      <path d="M 45.40625 46.390625 
L 45.40625 75.984375 
L 54.390625 75.984375 
L 54.390625 0 
L 45.40625 0 
L 45.40625 8.203125 
Q 42.578125 3.328125 38.25 0.953125 
Q 33.9375 -1.421875 27.875 -1.421875 
Q 17.96875 -1.421875 11.734375 6.484375 
Q 5.515625 14.40625 5.515625 27.296875 
Q 5.515625 40.1875 11.734375 48.09375 
Q 17.96875 56 27.875 56 
Q 33.9375 56 38.25 53.625 
Q 42.578125 51.265625 45.40625 46.390625 
z
M 14.796875 27.296875 
Q 14.796875 17.390625 18.875 11.75 
Q 22.953125 6.109375 30.078125 6.109375 
Q 37.203125 6.109375 41.296875 11.75 
Q 45.40625 17.390625 45.40625 27.296875 
Q 45.40625 37.203125 41.296875 42.84375 
Q 37.203125 48.484375 30.078125 48.484375 
Q 22.953125 48.484375 18.875 42.84375 
Q 14.796875 37.203125 14.796875 27.296875 
z
" id="DejaVuSans-100"/>
      <path d="M 9.421875 54.6875 
L 18.40625 54.6875 
L 18.40625 -0.984375 
Q 18.40625 -11.421875 14.421875 -16.109375 
Q 10.453125 -20.796875 1.609375 -20.796875 
L -1.8125 -20.796875 
L -1.8125 -13.1875 
L 0.59375 -13.1875 
Q 5.71875 -13.1875 7.5625 -10.8125 
Q 9.421875 -8.453125 9.421875 -0.984375 
z
M 9.421875 75.984375 
L 18.40625 75.984375 
L 18.40625 64.59375 
L 9.421875 64.59375 
z
" id="DejaVuSans-106"/>
      <path d="M 8.5 21.578125 
L 8.5 54.6875 
L 17.484375 54.6875 
L 17.484375 21.921875 
Q 17.484375 14.15625 20.5 10.265625 
Q 23.53125 6.390625 29.59375 6.390625 
Q 36.859375 6.390625 41.078125 11.03125 
Q 45.3125 15.671875 45.3125 23.6875 
L 45.3125 54.6875 
L 54.296875 54.6875 
L 54.296875 0 
L 45.3125 0 
L 45.3125 8.40625 
Q 42.046875 3.421875 37.71875 1 
Q 33.40625 -1.421875 27.6875 -1.421875 
Q 18.265625 -1.421875 13.375 4.4375 
Q 8.5 10.296875 8.5 21.578125 
z
M 31.109375 56 
z
" id="DejaVuSans-117"/>
      <path d="M 44.28125 53.078125 
L 44.28125 44.578125 
Q 40.484375 46.53125 36.375 47.5 
Q 32.28125 48.484375 27.875 48.484375 
Q 21.1875 48.484375 17.84375 46.4375 
Q 14.5 44.390625 14.5 40.28125 
Q 14.5 37.15625 16.890625 35.375 
Q 19.28125 33.59375 26.515625 31.984375 
L 29.59375 31.296875 
Q 39.15625 29.25 43.1875 25.515625 
Q 47.21875 21.78125 47.21875 15.09375 
Q 47.21875 7.46875 41.1875 3.015625 
Q 35.15625 -1.421875 24.609375 -1.421875 
Q 20.21875 -1.421875 15.453125 -0.5625 
Q 10.6875 0.296875 5.421875 2 
L 5.421875 11.28125 
Q 10.40625 8.6875 15.234375 7.390625 
Q 20.0625 6.109375 24.8125 6.109375 
Q 31.15625 6.109375 34.5625 8.28125 
Q 37.984375 10.453125 37.984375 14.40625 
Q 37.984375 18.0625 35.515625 20.015625 
Q 33.0625 21.96875 24.703125 23.78125 
L 21.578125 24.515625 
Q 13.234375 26.265625 9.515625 29.90625 
Q 5.8125 33.546875 5.8125 39.890625 
Q 5.8125 47.609375 11.28125 51.796875 
Q 16.75 56 26.8125 56 
Q 31.78125 56 36.171875 55.265625 
Q 40.578125 54.546875 44.28125 53.078125 
z
" id="DejaVuSans-115"/>
      <path d="M 18.3125 70.21875 
L 18.3125 54.6875 
L 36.8125 54.6875 
L 36.8125 47.703125 
L 18.3125 47.703125 
L 18.3125 18.015625 
Q 18.3125 11.328125 20.140625 9.421875 
Q 21.96875 7.515625 27.59375 7.515625 
L 36.8125 7.515625 
L 36.8125 0 
L 27.59375 0 
Q 17.1875 0 13.234375 3.875 
Q 9.28125 7.765625 9.28125 18.015625 
L 9.28125 47.703125 
L 2.6875 47.703125 
L 2.6875 54.6875 
L 9.28125 54.6875 
L 9.28125 70.21875 
z
" id="DejaVuSans-116"/>
      <path d="M 56.203125 29.59375 
L 56.203125 25.203125 
L 14.890625 25.203125 
Q 15.484375 15.921875 20.484375 11.0625 
Q 25.484375 6.203125 34.421875 6.203125 
Q 39.59375 6.203125 44.453125 7.46875 
Q 49.3125 8.734375 54.109375 11.28125 
L 54.109375 2.78125 
Q 49.265625 0.734375 44.1875 -0.34375 
Q 39.109375 -1.421875 33.890625 -1.421875 
Q 20.796875 -1.421875 13.15625 6.1875 
Q 5.515625 13.8125 5.515625 26.8125 
Q 5.515625 40.234375 12.765625 48.109375 
Q 20.015625 56 32.328125 56 
Q 43.359375 56 49.78125 48.890625 
Q 56.203125 41.796875 56.203125 29.59375 
z
M 47.21875 32.234375 
Q 47.125 39.59375 43.09375 43.984375 
Q 39.0625 48.390625 32.421875 48.390625 
Q 24.90625 48.390625 20.390625 44.140625 
Q 15.875 39.890625 15.1875 32.171875 
z
" id="DejaVuSans-101"/>
      <path id="DejaVuSans-32"/>
      <path d="M 18.109375 8.203125 
L 18.109375 -20.796875 
L 9.078125 -20.796875 
L 9.078125 54.6875 
L 18.109375 54.6875 
L 18.109375 46.390625 
Q 20.953125 51.265625 25.265625 53.625 
Q 29.59375 56 35.59375 56 
Q 45.5625 56 51.78125 48.09375 
Q 58.015625 40.1875 58.015625 27.296875 
Q 58.015625 14.40625 51.78125 6.484375 
Q 45.5625 -1.421875 35.59375 -1.421875 
Q 29.59375 -1.421875 25.265625 0.953125 
Q 20.953125 3.328125 18.109375 8.203125 
z
M 48.6875 27.296875 
Q 48.6875 37.203125 44.609375 42.84375 
Q 40.53125 48.484375 33.40625 48.484375 
Q 26.265625 48.484375 22.1875 42.84375 
Q 18.109375 37.203125 18.109375 27.296875 
Q 18.109375 17.390625 22.1875 11.75 
Q 26.265625 6.109375 33.40625 6.109375 
Q 40.53125 6.109375 44.609375 11.75 
Q 48.6875 17.390625 48.6875 27.296875 
z
" id="DejaVuSans-112"/>
      <path d="M 4.890625 31.390625 
L 31.203125 31.390625 
L 31.203125 23.390625 
L 4.890625 23.390625 
z
" id="DejaVuSans-45"/>
      <path d="M 2.984375 54.6875 
L 12.5 54.6875 
L 29.59375 8.796875 
L 46.6875 54.6875 
L 56.203125 54.6875 
L 35.6875 0 
L 23.484375 0 
z
" id="DejaVuSans-118"/>
      <path d="M 9.421875 75.984375 
L 18.40625 75.984375 
L 18.40625 0 
L 9.421875 0 
z
" id="DejaVuSans-108"/>
     </defs>
     <g transform="translate(160.633203 319.056782)scale(0.15 -0.15)">
      <use xlink:href="#DejaVuSans-97"/>
      <use x="61.279297" xlink:href="#DejaVuSans-100"/>
      <use x="124.755859" xlink:href="#DejaVuSans-106"/>
      <use x="152.539062" xlink:href="#DejaVuSans-117"/>
      <use x="215.917969" xlink:href="#DejaVuSans-115"/>
      <use x="268.017578" xlink:href="#DejaVuSans-116"/>
      <use x="307.226562" xlink:href="#DejaVuSans-101"/>
      <use x="368.75" xlink:href="#DejaVuSans-100"/>
      <use x="432.226562" xlink:href="#DejaVuSans-32"/>
      <use x="464.013672" xlink:href="#DejaVuSans-112"/>
      <use x="527.490234" xlink:href="#DejaVuSans-45"/>
      <use x="563.542969" xlink:href="#DejaVuSans-118"/>
      <use x="622.722656" xlink:href="#DejaVuSans-97"/>
      <use x="684.001953" xlink:href="#DejaVuSans-108"/>
      <use x="711.785156" xlink:href="#DejaVuSans-117"/>
      <use x="775.164062" xlink:href="#DejaVuSans-101"/>
     </g>
    </g>
   </g>
   <g id="matplotlib.axis_2">
    <g id="ytick_1">
     <g id="line2d_19">
      <path clip-path="url(#p68337fbddb)" d="M 50.585938 234.279376 
L 407.705938 234.279376 
" style="fill:none;stroke:#e5e5e5;stroke-width:0.8;"/>
     </g>
     <g id="line2d_20">
      <path d="M 50.585938 234.279376 
" style="fill:none;stroke:#000000;stroke-width:1.5;"/>
      <defs>
       <path d="M 0 0 
L -2.75 0 
" id="m62c4d81b4c" style="stroke:#000000;"/>
      </defs>
      <g>
       <use style="stroke:#000000;" x="50.585938" xlink:href="#m62c4d81b4c" y="234.279376"/>
      </g>
     </g>
     <g id="text_7">
      <!-- 0.25 -->
      <g style="fill:#4d4d4d;" transform="translate(18.917188 237.590626)scale(0.12 -0.12)">
       <use xlink:href="#DejaVuSans-48"/>
       <use x="63.623047" xlink:href="#DejaVuSans-46"/>
       <use x="95.410156" xlink:href="#DejaVuSans-50"/>
       <use x="159.033203" xlink:href="#DejaVuSans-53"/>
      </g>
     </g>
    </g>
    <g id="ytick_2">
     <g id="line2d_21">
      <path clip-path="url(#p68337fbddb)" d="M 50.585938 167.079376 
L 407.705938 167.079376 
" style="fill:none;stroke:#e5e5e5;stroke-width:0.8;"/>
     </g>
     <g id="line2d_22">
      <path d="M 50.585938 167.079376 
" style="fill:none;stroke:#000000;stroke-width:1.5;"/>
      <g>
       <use style="stroke:#000000;" x="50.585938" xlink:href="#m62c4d81b4c" y="167.079376"/>
      </g>
     </g>
     <g id="text_8">
      <!-- 0.50 -->
      <g style="fill:#4d4d4d;" transform="translate(18.917188 170.390626)scale(0.12 -0.12)">
       <use xlink:href="#DejaVuSans-48"/>
       <use x="63.623047" xlink:href="#DejaVuSans-46"/>
       <use x="95.410156" xlink:href="#DejaVuSans-53"/>
       <use x="159.033203" xlink:href="#DejaVuSans-48"/>
      </g>
     </g>
    </g>
    <g id="ytick_3">
     <g id="line2d_23">
      <path clip-path="url(#p68337fbddb)" d="M 50.585938 99.879376 
L 407.705938 99.879376 
" style="fill:none;stroke:#e5e5e5;stroke-width:0.8;"/>
     </g>
     <g id="line2d_24">
      <path d="M 50.585938 99.879376 
" style="fill:none;stroke:#000000;stroke-width:1.5;"/>
      <g>
       <use style="stroke:#000000;" x="50.585938" xlink:href="#m62c4d81b4c" y="99.879376"/>
      </g>
     </g>
     <g id="text_9">
      <!-- 0.75 -->
      <g style="fill:#4d4d4d;" transform="translate(18.917188 103.190626)scale(0.12 -0.12)">
       <use xlink:href="#DejaVuSans-48"/>
       <use x="63.623047" xlink:href="#DejaVuSans-46"/>
       <use x="95.410156" xlink:href="#DejaVuSans-55"/>
       <use x="159.033203" xlink:href="#DejaVuSans-53"/>
      </g>
     </g>
    </g>
    <g id="ytick_4">
     <g id="line2d_25">
      <path clip-path="url(#p68337fbddb)" d="M 50.585938 32.679376 
L 407.705938 32.679376 
" style="fill:none;stroke:#e5e5e5;stroke-width:0.8;"/>
     </g>
     <g id="line2d_26">
      <path d="M 50.585938 32.679376 
" style="fill:none;stroke:#000000;stroke-width:1.5;"/>
      <g>
       <use style="stroke:#000000;" x="50.585938" xlink:href="#m62c4d81b4c" y="32.679376"/>
      </g>
     </g>
     <g id="text_10">
      <!-- 1 -->
      <g style="fill:#4d4d4d;" transform="translate(38.000938 35.990626)scale(0.12 -0.12)">
       <use xlink:href="#DejaVuSans-49"/>
      </g>
     </g>
    </g>
    <g id="ytick_5">
     <g id="line2d_27">
      <path clip-path="url(#p68337fbddb)" d="M 50.585938 267.879376 
L 407.705938 267.879376 
" style="fill:none;stroke:#fafafa;"/>
     </g>
     <g id="line2d_28">
      <path d="M 50.585938 267.879376 
" style="fill:none;stroke:#000000;stroke-width:1.5;"/>
     </g>
    </g>
    <g id="ytick_6">
     <g id="line2d_29">
      <path clip-path="url(#p68337fbddb)" d="M 50.585938 200.679376 
L 407.705938 200.679376 
" style="fill:none;stroke:#fafafa;"/>
     </g>
     <g id="line2d_30">
      <path d="M 50.585938 200.679376 
" style="fill:none;stroke:#000000;stroke-width:1.5;"/>
     </g>
    </g>
    <g id="ytick_7">
     <g id="line2d_31">
      <path clip-path="url(#p68337fbddb)" d="M 50.585938 133.479376 
L 407.705938 133.479376 
" style="fill:none;stroke:#fafafa;"/>
     </g>
     <g id="line2d_32">
      <path d="M 50.585938 133.479376 
" style="fill:none;stroke:#000000;stroke-width:1.5;"/>
     </g>
    </g>
    <g id="ytick_8">
     <g id="line2d_33">
      <path clip-path="url(#p68337fbddb)" d="M 50.585938 66.279376 
L 407.705938 66.279376 
" style="fill:none;stroke:#fafafa;"/>
     </g>
     <g id="line2d_34">
      <path d="M 50.585938 66.279376 
" style="fill:none;stroke:#000000;stroke-width:1.5;"/>
     </g>
    </g>
    <g id="text_11">
     <!-- Percentile of ranking -->
     <defs>
      <path d="M 19.671875 64.796875 
L 19.671875 37.40625 
L 32.078125 37.40625 
Q 38.96875 37.40625 42.71875 40.96875 
Q 46.484375 44.53125 46.484375 51.125 
Q 46.484375 57.671875 42.71875 61.234375 
Q 38.96875 64.796875 32.078125 64.796875 
z
M 9.8125 72.90625 
L 32.078125 72.90625 
Q 44.34375 72.90625 50.609375 67.359375 
Q 56.890625 61.8125 56.890625 51.125 
Q 56.890625 40.328125 50.609375 34.8125 
Q 44.34375 29.296875 32.078125 29.296875 
L 19.671875 29.296875 
L 19.671875 0 
L 9.8125 0 
z
" id="DejaVuSans-80"/>
      <path d="M 41.109375 46.296875 
Q 39.59375 47.171875 37.8125 47.578125 
Q 36.03125 48 33.890625 48 
Q 26.265625 48 22.1875 43.046875 
Q 18.109375 38.09375 18.109375 28.8125 
L 18.109375 0 
L 9.078125 0 
L 9.078125 54.6875 
L 18.109375 54.6875 
L 18.109375 46.1875 
Q 20.953125 51.171875 25.484375 53.578125 
Q 30.03125 56 36.53125 56 
Q 37.453125 56 38.578125 55.875 
Q 39.703125 55.765625 41.0625 55.515625 
z
" id="DejaVuSans-114"/>
      <path d="M 48.78125 52.59375 
L 48.78125 44.1875 
Q 44.96875 46.296875 41.140625 47.34375 
Q 37.3125 48.390625 33.40625 48.390625 
Q 24.65625 48.390625 19.8125 42.84375 
Q 14.984375 37.3125 14.984375 27.296875 
Q 14.984375 17.28125 19.8125 11.734375 
Q 24.65625 6.203125 33.40625 6.203125 
Q 37.3125 6.203125 41.140625 7.25 
Q 44.96875 8.296875 48.78125 10.40625 
L 48.78125 2.09375 
Q 45.015625 0.34375 40.984375 -0.53125 
Q 36.96875 -1.421875 32.421875 -1.421875 
Q 20.0625 -1.421875 12.78125 6.34375 
Q 5.515625 14.109375 5.515625 27.296875 
Q 5.515625 40.671875 12.859375 48.328125 
Q 20.21875 56 33.015625 56 
Q 37.15625 56 41.109375 55.140625 
Q 45.0625 54.296875 48.78125 52.59375 
z
" id="DejaVuSans-99"/>
      <path d="M 54.890625 33.015625 
L 54.890625 0 
L 45.90625 0 
L 45.90625 32.71875 
Q 45.90625 40.484375 42.875 44.328125 
Q 39.84375 48.1875 33.796875 48.1875 
Q 26.515625 48.1875 22.3125 43.546875 
Q 18.109375 38.921875 18.109375 30.90625 
L 18.109375 0 
L 9.078125 0 
L 9.078125 54.6875 
L 18.109375 54.6875 
L 18.109375 46.1875 
Q 21.34375 51.125 25.703125 53.5625 
Q 30.078125 56 35.796875 56 
Q 45.21875 56 50.046875 50.171875 
Q 54.890625 44.34375 54.890625 33.015625 
z
" id="DejaVuSans-110"/>
      <path d="M 9.421875 54.6875 
L 18.40625 54.6875 
L 18.40625 0 
L 9.421875 0 
z
M 9.421875 75.984375 
L 18.40625 75.984375 
L 18.40625 64.59375 
L 9.421875 64.59375 
z
" id="DejaVuSans-105"/>
      <path d="M 30.609375 48.390625 
Q 23.390625 48.390625 19.1875 42.75 
Q 14.984375 37.109375 14.984375 27.296875 
Q 14.984375 17.484375 19.15625 11.84375 
Q 23.34375 6.203125 30.609375 6.203125 
Q 37.796875 6.203125 41.984375 11.859375 
Q 46.1875 17.53125 46.1875 27.296875 
Q 46.1875 37.015625 41.984375 42.703125 
Q 37.796875 48.390625 30.609375 48.390625 
z
M 30.609375 56 
Q 42.328125 56 49.015625 48.375 
Q 55.71875 40.765625 55.71875 27.296875 
Q 55.71875 13.875 49.015625 6.21875 
Q 42.328125 -1.421875 30.609375 -1.421875 
Q 18.84375 -1.421875 12.171875 6.21875 
Q 5.515625 13.875 5.515625 27.296875 
Q 5.515625 40.765625 12.171875 48.375 
Q 18.84375 56 30.609375 56 
z
" id="DejaVuSans-111"/>
      <path d="M 37.109375 75.984375 
L 37.109375 68.5 
L 28.515625 68.5 
Q 23.6875 68.5 21.796875 66.546875 
Q 19.921875 64.59375 19.921875 59.515625 
L 19.921875 54.6875 
L 34.71875 54.6875 
L 34.71875 47.703125 
L 19.921875 47.703125 
L 19.921875 0 
L 10.890625 0 
L 10.890625 47.703125 
L 2.296875 47.703125 
L 2.296875 54.6875 
L 10.890625 54.6875 
L 10.890625 58.5 
Q 10.890625 67.625 15.140625 71.796875 
Q 19.390625 75.984375 28.609375 75.984375 
z
" id="DejaVuSans-102"/>
      <path d="M 9.078125 75.984375 
L 18.109375 75.984375 
L 18.109375 31.109375 
L 44.921875 54.6875 
L 56.390625 54.6875 
L 27.390625 29.109375 
L 57.625 0 
L 45.90625 0 
L 18.109375 26.703125 
L 18.109375 0 
L 9.078125 0 
z
" id="DejaVuSans-107"/>
      <path d="M 45.40625 27.984375 
Q 45.40625 37.75 41.375 43.109375 
Q 37.359375 48.484375 30.078125 48.484375 
Q 22.859375 48.484375 18.828125 43.109375 
Q 14.796875 37.75 14.796875 27.984375 
Q 14.796875 18.265625 18.828125 12.890625 
Q 22.859375 7.515625 30.078125 7.515625 
Q 37.359375 7.515625 41.375 12.890625 
Q 45.40625 18.265625 45.40625 27.984375 
z
M 54.390625 6.78125 
Q 54.390625 -7.171875 48.1875 -13.984375 
Q 42 -20.796875 29.203125 -20.796875 
Q 24.46875 -20.796875 20.265625 -20.09375 
Q 16.0625 -19.390625 12.109375 -17.921875 
L 12.109375 -9.1875 
Q 16.0625 -11.328125 19.921875 -12.34375 
Q 23.78125 -13.375 27.78125 -13.375 
Q 36.625 -13.375 41.015625 -8.765625 
Q 45.40625 -4.15625 45.40625 5.171875 
L 45.40625 9.625 
Q 42.625 4.78125 38.28125 2.390625 
Q 33.9375 0 27.875 0 
Q 17.828125 0 11.671875 7.65625 
Q 5.515625 15.328125 5.515625 27.984375 
Q 5.515625 40.671875 11.671875 48.328125 
Q 17.828125 56 27.875 56 
Q 33.9375 56 38.28125 53.609375 
Q 42.625 51.21875 45.40625 46.390625 
L 45.40625 54.6875 
L 54.390625 54.6875 
z
" id="DejaVuSans-103"/>
     </defs>
     <g transform="translate(11.397656 229.709813)rotate(-90)scale(0.15 -0.15)">
      <use xlink:href="#DejaVuSans-80"/>
      <use x="60.255859" xlink:href="#DejaVuSans-101"/>
      <use x="121.779297" xlink:href="#DejaVuSans-114"/>
      <use x="162.861328" xlink:href="#DejaVuSans-99"/>
      <use x="217.841797" xlink:href="#DejaVuSans-101"/>
      <use x="279.365234" xlink:href="#DejaVuSans-110"/>
      <use x="342.744141" xlink:href="#DejaVuSans-116"/>
      <use x="381.953125" xlink:href="#DejaVuSans-105"/>
      <use x="409.736328" xlink:href="#DejaVuSans-108"/>
      <use x="437.519531" xlink:href="#DejaVuSans-101"/>
      <use x="499.042969" xlink:href="#DejaVuSans-32"/>
      <use x="530.830078" xlink:href="#DejaVuSans-111"/>
      <use x="592.011719" xlink:href="#DejaVuSans-102"/>
      <use x="627.216797" xlink:href="#DejaVuSans-32"/>
      <use x="659.003906" xlink:href="#DejaVuSans-114"/>
      <use x="700.117188" xlink:href="#DejaVuSans-97"/>
      <use x="761.396484" xlink:href="#DejaVuSans-110"/>
      <use x="824.775391" xlink:href="#DejaVuSans-107"/>
      <use x="882.685547" xlink:href="#DejaVuSans-105"/>
      <use x="910.46875" xlink:href="#DejaVuSans-110"/>
      <use x="973.847656" xlink:href="#DejaVuSans-103"/>
     </g>
    </g>
   </g>
   <g id="PathCollection_1">
    <path clip-path="url(#p68337fbddb)" d="M 66.818665 174.22783 
C 67.288725 174.22783 67.739596 174.041073 68.071979 173.70869 
C 68.404362 173.376307 68.591119 172.925436 68.591119 172.455376 
C 68.591119 171.985316 68.404362 171.534444 68.071979 171.202062 
C 67.739596 170.869679 67.288725 170.682922 66.818665 170.682922 
C 66.348605 170.682922 65.897733 170.869679 65.565351 171.202062 
C 65.232968 171.534444 65.046211 171.985316 65.046211 172.455376 
C 65.046211 172.925436 65.232968 173.376307 65.565351 173.70869 
C 65.897733 174.041073 66.348605 174.22783 66.818665 174.22783 
z
" style="stroke:#000000;stroke-width:0.886227;"/>
    <path clip-path="url(#p68337fbddb)" d="M 66.818665 276.37183 
C 67.288725 276.37183 67.739596 276.185073 68.071979 275.85269 
C 68.404362 275.520307 68.591119 275.069436 68.591119 274.599376 
C 68.591119 274.129316 68.404362 273.678444 68.071979 273.346062 
C 67.739596 273.013679 67.288725 272.826922 66.818665 272.826922 
C 66.348605 272.826922 65.897733 273.013679 65.565351 273.346062 
C 65.232968 273.678444 65.046211 274.129316 65.046211 274.599376 
C 65.046211 275.069436 65.232968 275.520307 65.565351 275.85269 
C 65.897733 276.185073 66.348605 276.37183 66.818665 276.37183 
z
" style="stroke:#000000;stroke-width:0.886227;"/>
    <path clip-path="url(#p68337fbddb)" d="M 66.818665 276.37183 
C 67.288725 276.37183 67.739596 276.185073 68.071979 275.85269 
C 68.404362 275.520307 68.591119 275.069436 68.591119 274.599376 
C 68.591119 274.129316 68.404362 273.678444 68.071979 273.346062 
C 67.739596 273.013679 67.288725 272.826922 66.818665 272.826922 
C 66.348605 272.826922 65.897733 273.013679 65.565351 273.346062 
C 65.232968 273.678444 65.046211 274.129316 65.046211 274.599376 
C 65.046211 275.069436 65.232968 275.520307 65.565351 275.85269 
C 65.897733 276.185073 66.348605 276.37183 66.818665 276.37183 
z
" style="stroke:#000000;stroke-width:0.886227;"/>
    <path clip-path="url(#p68337fbddb)" d="M 66.883441 88.21183 
C 67.353501 88.21183 67.804372 88.025073 68.136755 87.69269 
C 68.469138 87.360307 68.655894 86.909436 68.655894 86.439376 
C 68.655894 85.969316 68.469138 85.518444 68.136755 85.186062 
C 67.804372 84.853679 67.353501 84.666922 66.883441 84.666922 
C 66.41338 84.666922 65.962509 84.853679 65.630127 85.186062 
C 65.297744 85.518444 65.110987 85.969316 65.110987 86.439376 
C 65.110987 86.909436 65.297744 87.360307 65.630127 87.69269 
C 65.962509 88.025073 66.41338 88.21183 66.883441 88.21183 
z
" style="stroke:#000000;stroke-width:0.886227;"/>
    <path clip-path="url(#p68337fbddb)" d="M 66.883441 45.20383 
C 67.353501 45.20383 67.804372 45.017073 68.136755 44.68469 
C 68.469138 44.352307 68.655894 43.901436 68.655894 43.431376 
C 68.655894 42.961316 68.469138 42.510444 68.136755 42.178062 
C 67.804372 41.845679 67.353501 41.658922 66.883441 41.658922 
C 66.41338 41.658922 65.962509 41.845679 65.630127 42.178062 
C 65.297744 42.510444 65.110987 42.961316 65.110987 43.431376 
C 65.110987 43.901436 65.297744 44.352307 65.630127 44.68469 
C 65.962509 45.017073 66.41338 45.20383 66.883441 45.20383 
z
" style="stroke:#000000;stroke-width:0.886227;"/>
    <path clip-path="url(#p68337fbddb)" d="M 66.883441 276.37183 
C 67.353501 276.37183 67.804372 276.185073 68.136755 275.85269 
C 68.469138 275.520307 68.655894 275.069436 68.655894 274.599376 
C 68.655894 274.129316 68.469138 273.678444 68.136755 273.346062 
C 67.804372 273.013679 67.353501 272.826922 66.883441 272.826922 
C 66.41338 272.826922 65.962509 273.013679 65.630127 273.346062 
C 65.297744 273.678444 65.110987 274.129316 65.110987 274.599376 
C 65.110987 275.069436 65.297744 275.520307 65.630127 275.85269 
C 65.962509 276.185073 66.41338 276.37183 66.883441 276.37183 
z
" style="stroke:#000000;stroke-width:0.886227;"/>
    <path clip-path="url(#p68337fbddb)" d="M 66.883441 276.37183 
C 67.353501 276.37183 67.804372 276.185073 68.136755 275.85269 
C 68.469138 275.520307 68.655894 275.069436 68.655894 274.599376 
C 68.655894 274.129316 68.469138 273.678444 68.136755 273.346062 
C 67.804372 273.013679 67.353501 272.826922 66.883441 272.826922 
C 66.41338 272.826922 65.962509 273.013679 65.630127 273.346062 
C 65.297744 273.678444 65.110987 274.129316 65.110987 274.599376 
C 65.110987 275.069436 65.297744 275.520307 65.630127 275.85269 
C 65.962509 276.185073 66.41338 276.37183 66.883441 276.37183 
z
" style="stroke:#000000;stroke-width:0.886227;"/>
    <path clip-path="url(#p68337fbddb)" d="M 66.883441 233.36383 
C 67.353501 233.36383 67.804372 233.177073 68.136755 232.84469 
C 68.469138 232.512307 68.655894 232.061436 68.655894 231.591376 
C 68.655894 231.121316 68.469138 230.670444 68.136755 230.338062 
C 67.804372 230.005679 67.353501 229.818922 66.883441 229.818922 
C 66.41338 229.818922 65.962509 230.005679 65.630127 230.338062 
C 65.297744 230.670444 65.110987 231.121316 65.110987 231.591376 
C 65.110987 232.061436 65.297744 232.512307 65.630127 232.84469 
C 65.962509 233.177073 66.41338 233.36383 66.883441 233.36383 
z
" style="stroke:#000000;stroke-width:0.886227;"/>
    <path clip-path="url(#p68337fbddb)" d="M 66.883441 34.45183 
C 67.353501 34.45183 67.804372 34.265073 68.136755 33.93269 
C 68.469138 33.600307 68.655894 33.149436 68.655894 32.679376 
C 68.655894 32.209316 68.469138 31.758444 68.136755 31.426062 
C 67.804372 31.093679 67.353501 30.906922 66.883441 30.906922 
C 66.41338 30.906922 65.962509 31.093679 65.630127 31.426062 
C 65.297744 31.758444 65.110987 32.209316 65.110987 32.679376 
C 65.110987 33.149436 65.297744 33.600307 65.630127 33.93269 
C 65.962509 34.265073 66.41338 34.45183 66.883441 34.45183 
z
" style="stroke:#000000;stroke-width:0.886227;"/>
    <path clip-path="url(#p68337fbddb)" d="M 66.883441 249.49183 
C 67.353501 249.49183 67.804372 249.305073 68.136755 248.97269 
C 68.469138 248.640307 68.655894 248.189436 68.655894 247.719376 
C 68.655894 247.249316 68.469138 246.798444 68.136755 246.466062 
C 67.804372 246.133679 67.353501 245.946922 66.883441 245.946922 
C 66.41338 245.946922 65.962509 246.133679 65.630127 246.466062 
C 65.297744 246.798444 65.110987 247.249316 65.110987 247.719376 
C 65.110987 248.189436 65.297744 248.640307 65.630127 248.97269 
C 65.962509 249.305073 66.41338 249.49183 66.883441 249.49183 
z
" style="stroke:#000000;stroke-width:0.886227;"/>
    <path clip-path="url(#p68337fbddb)" d="M 66.883441 195.73183 
C 67.353501 195.73183 67.804372 195.545073 68.136755 195.21269 
C 68.469138 194.880307 68.655894 194.429436 68.655894 193.959376 
C 68.655894 193.489316 68.469138 193.038444 68.136755 192.706062 
C 67.804372 192.373679 67.353501 192.186922 66.883441 192.186922 
C 66.41338 192.186922 65.962509 192.373679 65.630127 192.706062 
C 65.297744 193.038444 65.110987 193.489316 65.110987 193.959376 
C 65.110987 194.429436 65.297744 194.880307 65.630127 195.21269 
C 65.962509 195.545073 66.41338 195.73183 66.883441 195.73183 
z
" style="stroke:#000000;stroke-width:0.886227;"/>
    <path clip-path="url(#p68337fbddb)" d="M 66.883441 158.09983 
C 67.353501 158.09983 67.804372 157.913073 68.136755 157.58069 
C 68.469138 157.248307 68.655894 156.797436 68.655894 156.327376 
C 68.655894 155.857316 68.469138 155.406444 68.136755 155.074062 
C 67.804372 154.741679 67.353501 154.554922 66.883441 154.554922 
C 66.41338 154.554922 65.962509 154.741679 65.630127 155.074062 
C 65.297744 155.406444 65.110987 155.857316 65.110987 156.327376 
C 65.110987 156.797436 65.297744 157.248307 65.630127 157.58069 
C 65.962509 157.913073 66.41338 158.09983 66.883441 158.09983 
z
" style="stroke:#000000;stroke-width:0.886227;"/>
    <path clip-path="url(#p68337fbddb)" d="M 67.234109 227.98783 
C 67.704169 227.98783 68.15504 227.801073 68.487423 227.46869 
C 68.819805 227.136307 69.006562 226.685436 69.006562 226.215376 
C 69.006562 225.745316 68.819805 225.294444 68.487423 224.962062 
C 68.15504 224.629679 67.704169 224.442922 67.234109 224.442922 
C 66.764048 224.442922 66.313177 224.629679 65.980794 224.962062 
C 65.648412 225.294444 65.461655 225.745316 65.461655 226.215376 
C 65.461655 226.685436 65.648412 227.136307 65.980794 227.46869 
C 66.313177 227.801073 66.764048 227.98783 67.234109 227.98783 
z
" style="stroke:#000000;stroke-width:0.886227;"/>
    <path clip-path="url(#p68337fbddb)" d="M 67.410587 115.09183 
C 67.880647 115.09183 68.331519 114.905073 68.663901 114.57269 
C 68.996284 114.240307 69.183041 113.789436 69.183041 113.319376 
C 69.183041 112.849316 68.996284 112.398444 68.663901 112.066062 
C 68.331519 111.733679 67.880647 111.546922 67.410587 111.546922 
C 66.940527 111.546922 66.489656 111.733679 66.157273 112.066062 
C 65.82489 112.398444 65.638133 112.849316 65.638133 113.319376 
C 65.638133 113.789436 65.82489 114.240307 66.157273 114.57269 
C 66.489656 114.905073 66.940527 115.09183 67.410587 115.09183 
z
" style="stroke:#000000;stroke-width:0.886227;"/>
    <path clip-path="url(#p68337fbddb)" d="M 72.569178 276.37183 
C 73.039238 276.37183 73.490109 276.185073 73.822492 275.85269 
C 74.154875 275.520307 74.341632 275.069436 74.341632 274.599376 
C 74.341632 274.129316 74.154875 273.678444 73.822492 273.346062 
C 73.490109 273.013679 73.039238 272.826922 72.569178 272.826922 
C 72.099117 272.826922 71.648246 273.013679 71.315864 273.346062 
C 70.983481 273.678444 70.796724 274.129316 70.796724 274.599376 
C 70.796724 275.069436 70.983481 275.520307 71.315864 275.85269 
C 71.648246 276.185073 72.099117 276.37183 72.569178 276.37183 
z
" style="stroke:#000000;stroke-width:0.886227;"/>
    <path clip-path="url(#p68337fbddb)" d="M 72.569178 39.82783 
C 73.039238 39.82783 73.490109 39.641073 73.822492 39.30869 
C 74.154875 38.976307 74.341632 38.525436 74.341632 38.055376 
C 74.341632 37.585316 74.154875 37.134444 73.822492 36.802062 
C 73.490109 36.469679 73.039238 36.282922 72.569178 36.282922 
C 72.099117 36.282922 71.648246 36.469679 71.315864 36.802062 
C 70.983481 37.134444 70.796724 37.585316 70.796724 38.055376 
C 70.796724 38.525436 70.983481 38.976307 71.315864 39.30869 
C 71.648246 39.641073 72.099117 39.82783 72.569178 39.82783 
z
" style="stroke:#000000;stroke-width:0.886227;"/>
    <path clip-path="url(#p68337fbddb)" d="M 73.676723 276.37183 
C 74.146784 276.37183 74.597655 276.185073 74.930037 275.85269 
C 75.26242 275.520307 75.449177 275.069436 75.449177 274.599376 
C 75.449177 274.129316 75.26242 273.678444 74.930037 273.346062 
C 74.597655 273.013679 74.146784 272.826922 73.676723 272.826922 
C 73.206663 272.826922 72.755792 273.013679 72.423409 273.346062 
C 72.091026 273.678444 71.90427 274.129316 71.90427 274.599376 
C 71.90427 275.069436 72.091026 275.520307 72.423409 275.85269 
C 72.755792 276.185073 73.206663 276.37183 73.676723 276.37183 
z
" style="stroke:#000000;stroke-width:0.886227;"/>
    <path clip-path="url(#p68337fbddb)" d="M 78.50686 206.48383 
C 78.976921 206.48383 79.427792 206.297073 79.760174 205.96469 
C 80.092557 205.632307 80.279314 205.181436 80.279314 204.711376 
C 80.279314 204.241316 80.092557 203.790444 79.760174 203.458062 
C 79.427792 203.125679 78.976921 202.938922 78.50686 202.938922 
C 78.0368 202.938922 77.585929 203.125679 77.253546 203.458062 
C 76.921163 203.790444 76.734406 204.241316 76.734406 204.711376 
C 76.734406 205.181436 76.921163 205.632307 77.253546 205.96469 
C 77.585929 206.297073 78.0368 206.48383 78.50686 206.48383 
z
" style="stroke:#000000;stroke-width:0.886227;"/>
    <path clip-path="url(#p68337fbddb)" d="M 81.864769 66.70783 
C 82.33483 66.70783 82.785701 66.521073 83.118084 66.18869 
C 83.450466 65.856307 83.637223 65.405436 83.637223 64.935376 
C 83.637223 64.465316 83.450466 64.014444 83.118084 63.682062 
C 82.785701 63.349679 82.33483 63.162922 81.864769 63.162922 
C 81.394709 63.162922 80.943838 63.349679 80.611455 63.682062 
C 80.279073 64.014444 80.092316 64.465316 80.092316 64.935376 
C 80.092316 65.405436 80.279073 65.856307 80.611455 66.18869 
C 80.943838 66.521073 81.394709 66.70783 81.864769 66.70783 
z
" style="stroke:#000000;stroke-width:0.886227;"/>
    <path clip-path="url(#p68337fbddb)" d="M 82.675015 98.96383 
C 83.145075 98.96383 83.595946 98.777073 83.928329 98.44469 
C 84.260712 98.112307 84.447469 97.661436 84.447469 97.191376 
C 84.447469 96.721316 84.260712 96.270444 83.928329 95.938062 
C 83.595946 95.605679 83.145075 95.418922 82.675015 95.418922 
C 82.204955 95.418922 81.754083 95.605679 81.421701 95.938062 
C 81.089318 96.270444 80.902561 96.721316 80.902561 97.191376 
C 80.902561 97.661436 81.089318 98.112307 81.421701 98.44469 
C 81.754083 98.777073 82.204955 98.96383 82.675015 98.96383 
z
" style="stroke:#000000;stroke-width:0.886227;"/>
    <path clip-path="url(#p68337fbddb)" d="M 85.273697 152.72383 
C 85.743757 152.72383 86.194628 152.537073 86.527011 152.20469 
C 86.859393 151.872307 87.04615 151.421436 87.04615 150.951376 
C 87.04615 150.481316 86.859393 150.030444 86.527011 149.698062 
C 86.194628 149.365679 85.743757 149.178922 85.273697 149.178922 
C 84.803636 149.178922 84.352765 149.365679 84.020382 149.698062 
C 83.688 150.030444 83.501243 150.481316 83.501243 150.951376 
C 83.501243 151.421436 83.688 151.872307 84.020382 152.20469 
C 84.352765 152.537073 84.803636 152.72383 85.273697 152.72383 
z
" style="stroke:#000000;stroke-width:0.886227;"/>
    <path clip-path="url(#p68337fbddb)" d="M 87.826559 276.37183 
C 88.296619 276.37183 88.74749 276.185073 89.079873 275.85269 
C 89.412256 275.520307 89.599013 275.069436 89.599013 274.599376 
C 89.599013 274.129316 89.412256 273.678444 89.079873 273.346062 
C 88.74749 273.013679 88.296619 272.826922 87.826559 272.826922 
C 87.356499 272.826922 86.905628 273.013679 86.573245 273.346062 
C 86.240862 273.678444 86.054105 274.129316 86.054105 274.599376 
C 86.054105 275.069436 86.240862 275.520307 86.573245 275.85269 
C 86.905628 276.185073 87.356499 276.37183 87.826559 276.37183 
z
" style="stroke:#000000;stroke-width:0.886227;"/>
    <path clip-path="url(#p68337fbddb)" d="M 113.43056 136.59583 
C 113.90062 136.59583 114.351491 136.409073 114.683874 136.07669 
C 115.016256 135.744307 115.203013 135.293436 115.203013 134.823376 
C 115.203013 134.353316 115.016256 133.902444 114.683874 133.570062 
C 114.351491 133.237679 113.90062 133.050922 113.43056 133.050922 
C 112.960499 133.050922 112.509628 133.237679 112.177245 133.570062 
C 111.844863 133.902444 111.658106 134.353316 111.658106 134.823376 
C 111.658106 135.293436 111.844863 135.744307 112.177245 136.07669 
C 112.509628 136.409073 112.960499 136.59583 113.43056 136.59583 
z
" style="stroke:#000000;stroke-width:0.886227;"/>
    <path clip-path="url(#p68337fbddb)" d="M 132.617016 131.21983 
C 133.087076 131.21983 133.537947 131.033073 133.87033 130.70069 
C 134.202713 130.368307 134.38947 129.917436 134.38947 129.447376 
C 134.38947 128.977316 134.202713 128.526444 133.87033 128.194062 
C 133.537947 127.861679 133.087076 127.674922 132.617016 127.674922 
C 132.146956 127.674922 131.696085 127.861679 131.363702 128.194062 
C 131.031319 128.526444 130.844562 128.977316 130.844562 129.447376 
C 130.844562 129.917436 131.031319 130.368307 131.363702 130.70069 
C 131.696085 131.033073 132.146956 131.21983 132.617016 131.21983 
z
" style="stroke:#000000;stroke-width:0.886227;"/>
    <path clip-path="url(#p68337fbddb)" d="M 137.03252 82.83583 
C 137.502581 82.83583 137.953452 82.649073 138.285835 82.31669 
C 138.618217 81.984307 138.804974 81.533436 138.804974 81.063376 
C 138.804974 80.593316 138.618217 80.142444 138.285835 79.810062 
C 137.953452 79.477679 137.502581 79.290922 137.03252 79.290922 
C 136.56246 79.290922 136.111589 79.477679 135.779206 79.810062 
C 135.446824 80.142444 135.260067 80.593316 135.260067 81.063376 
C 135.260067 81.533436 135.446824 81.984307 135.779206 82.31669 
C 136.111589 82.649073 136.56246 82.83583 137.03252 82.83583 
z
" style="stroke:#000000;stroke-width:0.886227;"/>
    <path clip-path="url(#p68337fbddb)" d="M 137.03252 72.08383 
C 137.502581 72.08383 137.953452 71.897073 138.285835 71.56469 
C 138.618217 71.232307 138.804974 70.781436 138.804974 70.311376 
C 138.804974 69.841316 138.618217 69.390444 138.285835 69.058062 
C 137.953452 68.725679 137.502581 68.538922 137.03252 68.538922 
C 136.56246 68.538922 136.111589 68.725679 135.779206 69.058062 
C 135.446824 69.390444 135.260067 69.841316 135.260067 70.311376 
C 135.260067 70.781436 135.446824 71.232307 135.779206 71.56469 
C 136.111589 71.897073 136.56246 72.08383 137.03252 72.08383 
z
" style="stroke:#000000;stroke-width:0.886227;"/>
    <path clip-path="url(#p68337fbddb)" d="M 137.03252 50.57983 
C 137.502581 50.57983 137.953452 50.393073 138.285835 50.06069 
C 138.618217 49.728307 138.804974 49.277436 138.804974 48.807376 
C 138.804974 48.337316 138.618217 47.886444 138.285835 47.554062 
C 137.953452 47.221679 137.502581 47.034922 137.03252 47.034922 
C 136.56246 47.034922 136.111589 47.221679 135.779206 47.554062 
C 135.446824 47.886444 135.260067 48.337316 135.260067 48.807376 
C 135.260067 49.277436 135.446824 49.728307 135.779206 50.06069 
C 136.111589 50.393073 136.56246 50.57983 137.03252 50.57983 
z
" style="stroke:#000000;stroke-width:0.886227;"/>
    <path clip-path="url(#p68337fbddb)" d="M 137.5537 55.95583 
C 138.02376 55.95583 138.474632 55.769073 138.807014 55.43669 
C 139.139397 55.104307 139.326154 54.653436 139.326154 54.183376 
C 139.326154 53.713316 139.139397 53.262444 138.807014 52.930062 
C 138.474632 52.597679 138.02376 52.410922 137.5537 52.410922 
C 137.08364 52.410922 136.632769 52.597679 136.300386 52.930062 
C 135.968003 53.262444 135.781246 53.713316 135.781246 54.183376 
C 135.781246 54.653436 135.968003 55.104307 136.300386 55.43669 
C 136.632769 55.769073 137.08364 55.95583 137.5537 55.95583 
z
" style="stroke:#000000;stroke-width:0.886227;"/>
    <path clip-path="url(#p68337fbddb)" d="M 159.484816 238.73983 
C 159.954877 238.73983 160.405748 238.553073 160.73813 238.22069 
C 161.070513 237.888307 161.25727 237.437436 161.25727 236.967376 
C 161.25727 236.497316 161.070513 236.046444 160.73813 235.714062 
C 160.405748 235.381679 159.954877 235.194922 159.484816 235.194922 
C 159.014756 235.194922 158.563885 235.381679 158.231502 235.714062 
C 157.899119 236.046444 157.712362 236.497316 157.712362 236.967376 
C 157.712362 237.437436 157.899119 237.888307 158.231502 238.22069 
C 158.563885 238.553073 159.014756 238.73983 159.484816 238.73983 
z
" style="stroke:#000000;stroke-width:0.886227;"/>
    <path clip-path="url(#p68337fbddb)" d="M 159.484816 184.97983 
C 159.954877 184.97983 160.405748 184.793073 160.73813 184.46069 
C 161.070513 184.128307 161.25727 183.677436 161.25727 183.207376 
C 161.25727 182.737316 161.070513 182.286444 160.73813 181.954062 
C 160.405748 181.621679 159.954877 181.434922 159.484816 181.434922 
C 159.014756 181.434922 158.563885 181.621679 158.231502 181.954062 
C 157.899119 182.286444 157.712362 182.737316 157.712362 183.207376 
C 157.712362 183.677436 157.899119 184.128307 158.231502 184.46069 
C 158.563885 184.793073 159.014756 184.97983 159.484816 184.97983 
z
" style="stroke:#000000;stroke-width:0.886227;"/>
    <path clip-path="url(#p68337fbddb)" d="M 159.484816 168.85183 
C 159.954877 168.85183 160.405748 168.665073 160.73813 168.33269 
C 161.070513 168.000307 161.25727 167.549436 161.25727 167.079376 
C 161.25727 166.609316 161.070513 166.158444 160.73813 165.826062 
C 160.405748 165.493679 159.954877 165.306922 159.484816 165.306922 
C 159.014756 165.306922 158.563885 165.493679 158.231502 165.826062 
C 157.899119 166.158444 157.712362 166.609316 157.712362 167.079376 
C 157.712362 167.549436 157.899119 168.000307 158.231502 168.33269 
C 158.563885 168.665073 159.014756 168.85183 159.484816 168.85183 
z
" style="stroke:#000000;stroke-width:0.886227;"/>
    <path clip-path="url(#p68337fbddb)" d="M 172.590285 147.34783 
C 173.060346 147.34783 173.511217 147.161073 173.843599 146.82869 
C 174.175982 146.496307 174.362739 146.045436 174.362739 145.575376 
C 174.362739 145.105316 174.175982 144.654444 173.843599 144.322062 
C 173.511217 143.989679 173.060346 143.802922 172.590285 143.802922 
C 172.120225 143.802922 171.669354 143.989679 171.336971 144.322062 
C 171.004588 144.654444 170.817831 145.105316 170.817831 145.575376 
C 170.817831 146.045436 171.004588 146.496307 171.336971 146.82869 
C 171.669354 147.161073 172.120225 147.34783 172.590285 147.34783 
z
" style="stroke:#000000;stroke-width:0.886227;"/>
    <path clip-path="url(#p68337fbddb)" d="M 173.193632 211.85983 
C 173.663692 211.85983 174.114563 211.673073 174.446946 211.34069 
C 174.779329 211.008307 174.966085 210.557436 174.966085 210.087376 
C 174.966085 209.617316 174.779329 209.166444 174.446946 208.834062 
C 174.114563 208.501679 173.663692 208.314922 173.193632 208.314922 
C 172.723571 208.314922 172.2727 208.501679 171.940317 208.834062 
C 171.607935 209.166444 171.421178 209.617316 171.421178 210.087376 
C 171.421178 210.557436 171.607935 211.008307 171.940317 211.34069 
C 172.2727 211.673073 172.723571 211.85983 173.193632 211.85983 
z
" style="stroke:#000000;stroke-width:0.886227;"/>
    <path clip-path="url(#p68337fbddb)" d="M 173.193632 190.35583 
C 173.663692 190.35583 174.114563 190.169073 174.446946 189.83669 
C 174.779329 189.504307 174.966085 189.053436 174.966085 188.583376 
C 174.966085 188.113316 174.779329 187.662444 174.446946 187.330062 
C 174.114563 186.997679 173.663692 186.810922 173.193632 186.810922 
C 172.723571 186.810922 172.2727 186.997679 171.940317 187.330062 
C 171.607935 187.662444 171.421178 188.113316 171.421178 188.583376 
C 171.421178 189.053436 171.607935 189.504307 171.940317 189.83669 
C 172.2727 190.169073 172.723571 190.35583 173.193632 190.35583 
z
" style="stroke:#000000;stroke-width:0.886227;"/>
    <path clip-path="url(#p68337fbddb)" d="M 173.910654 179.60383 
C 174.380714 179.60383 174.831585 179.417073 175.163968 179.08469 
C 175.496351 178.752307 175.683108 178.301436 175.683108 177.831376 
C 175.683108 177.361316 175.496351 176.910444 175.163968 176.578062 
C 174.831585 176.245679 174.380714 176.058922 173.910654 176.058922 
C 173.440594 176.058922 172.989722 176.245679 172.65734 176.578062 
C 172.324957 176.910444 172.1382 177.361316 172.1382 177.831376 
C 172.1382 178.301436 172.324957 178.752307 172.65734 179.08469 
C 172.989722 179.417073 173.440594 179.60383 173.910654 179.60383 
z
" style="stroke:#000000;stroke-width:0.886227;"/>
    <path clip-path="url(#p68337fbddb)" d="M 197.125973 120.46783 
C 197.596033 120.46783 198.046904 120.281073 198.379287 119.94869 
C 198.71167 119.616307 198.898427 119.165436 198.898427 118.695376 
C 198.898427 118.225316 198.71167 117.774444 198.379287 117.442062 
C 198.046904 117.109679 197.596033 116.922922 197.125973 116.922922 
C 196.655912 116.922922 196.205041 117.109679 195.872659 117.442062 
C 195.540276 117.774444 195.353519 118.225316 195.353519 118.695376 
C 195.353519 119.165436 195.540276 119.616307 195.872659 119.94869 
C 196.205041 120.281073 196.655912 120.46783 197.125973 120.46783 
z
" style="stroke:#000000;stroke-width:0.886227;"/>
    <path clip-path="url(#p68337fbddb)" d="M 212.395768 141.97183 
C 212.865828 141.97183 213.316699 141.785073 213.649082 141.45269 
C 213.981465 141.120307 214.168222 140.669436 214.168222 140.199376 
C 214.168222 139.729316 213.981465 139.278444 213.649082 138.946062 
C 213.316699 138.613679 212.865828 138.426922 212.395768 138.426922 
C 211.925708 138.426922 211.474837 138.613679 211.142454 138.946062 
C 210.810071 139.278444 210.623314 139.729316 210.623314 140.199376 
C 210.623314 140.669436 210.810071 141.120307 211.142454 141.45269 
C 211.474837 141.785073 211.925708 141.97183 212.395768 141.97183 
z
" style="stroke:#000000;stroke-width:0.886227;"/>
    <path clip-path="url(#p68337fbddb)" d="M 238.518683 125.84383 
C 238.988743 125.84383 239.439614 125.657073 239.771997 125.32469 
C 240.104379 124.992307 240.291136 124.541436 240.291136 124.071376 
C 240.291136 123.601316 240.104379 123.150444 239.771997 122.818062 
C 239.439614 122.485679 238.988743 122.298922 238.518683 122.298922 
C 238.048622 122.298922 237.597751 122.485679 237.265368 122.818062 
C 236.932986 123.150444 236.746229 123.601316 236.746229 124.071376 
C 236.746229 124.541436 236.932986 124.992307 237.265368 125.32469 
C 237.597751 125.657073 238.048622 125.84383 238.518683 125.84383 
z
" style="stroke:#000000;stroke-width:0.886227;"/>
    <path clip-path="url(#p68337fbddb)" d="M 252.629967 61.33183 
C 253.100028 61.33183 253.550899 61.145073 253.883281 60.81269 
C 254.215664 60.480307 254.402421 60.029436 254.402421 59.559376 
C 254.402421 59.089316 254.215664 58.638444 253.883281 58.306062 
C 253.550899 57.973679 253.100028 57.786922 252.629967 57.786922 
C 252.159907 57.786922 251.709036 57.973679 251.376653 58.306062 
C 251.04427 58.638444 250.857513 59.089316 250.857513 59.559376 
C 250.857513 60.029436 251.04427 60.480307 251.376653 60.81269 
C 251.709036 61.145073 252.159907 61.33183 252.629967 61.33183 
z
" style="stroke:#000000;stroke-width:0.886227;"/>
    <path clip-path="url(#p68337fbddb)" d="M 268.529177 276.37183 
C 268.999237 276.37183 269.450108 276.185073 269.782491 275.85269 
C 270.114874 275.520307 270.301631 275.069436 270.301631 274.599376 
C 270.301631 274.129316 270.114874 273.678444 269.782491 273.346062 
C 269.450108 273.013679 268.999237 272.826922 268.529177 272.826922 
C 268.059116 272.826922 267.608245 273.013679 267.275863 273.346062 
C 266.94348 273.678444 266.756723 274.129316 266.756723 274.599376 
C 266.756723 275.069436 266.94348 275.520307 267.275863 275.85269 
C 267.608245 276.185073 268.059116 276.37183 268.529177 276.37183 
z
" style="stroke:#000000;stroke-width:0.886227;"/>
    <path clip-path="url(#p68337fbddb)" d="M 292.412007 222.61183 
C 292.882068 222.61183 293.332939 222.425073 293.665321 222.09269 
C 293.997704 221.760307 294.184461 221.309436 294.184461 220.839376 
C 294.184461 220.369316 293.997704 219.918444 293.665321 219.586062 
C 293.332939 219.253679 292.882068 219.066922 292.412007 219.066922 
C 291.941947 219.066922 291.491076 219.253679 291.158693 219.586062 
C 290.82631 219.918444 290.639554 220.369316 290.639554 220.839376 
C 290.639554 221.309436 290.82631 221.760307 291.158693 222.09269 
C 291.491076 222.425073 291.941947 222.61183 292.412007 222.61183 
z
" style="stroke:#000000;stroke-width:0.886227;"/>
    <path clip-path="url(#p68337fbddb)" d="M 293.842018 163.47583 
C 294.312079 163.47583 294.76295 163.289073 295.095333 162.95669 
C 295.427715 162.624307 295.614472 162.173436 295.614472 161.703376 
C 295.614472 161.233316 295.427715 160.782444 295.095333 160.450062 
C 294.76295 160.117679 294.312079 159.930922 293.842018 159.930922 
C 293.371958 159.930922 292.921087 160.117679 292.588704 160.450062 
C 292.256322 160.782444 292.069565 161.233316 292.069565 161.703376 
C 292.069565 162.173436 292.256322 162.624307 292.588704 162.95669 
C 292.921087 163.289073 293.371958 163.47583 293.842018 163.47583 
z
" style="stroke:#000000;stroke-width:0.886227;"/>
    <path clip-path="url(#p68337fbddb)" d="M 359.681506 244.11583 
C 360.151566 244.11583 360.602437 243.929073 360.93482 243.59669 
C 361.267202 243.264307 361.453959 242.813436 361.453959 242.343376 
C 361.453959 241.873316 361.267202 241.422444 360.93482 241.090062 
C 360.602437 240.757679 360.151566 240.570922 359.681506 240.570922 
C 359.211445 240.570922 358.760574 240.757679 358.428191 241.090062 
C 358.095809 241.422444 357.909052 241.873316 357.909052 242.343376 
C 357.909052 242.813436 358.095809 243.264307 358.428191 243.59669 
C 358.760574 243.929073 359.211445 244.11583 359.681506 244.11583 
z
" style="stroke:#000000;stroke-width:0.886227;"/>
    <path clip-path="url(#p68337fbddb)" d="M 359.942612 77.45983 
C 360.412672 77.45983 360.863544 77.273073 361.195926 76.94069 
C 361.528309 76.608307 361.715066 76.157436 361.715066 75.687376 
C 361.715066 75.217316 361.528309 74.766444 361.195926 74.434062 
C 360.863544 74.101679 360.412672 73.914922 359.942612 73.914922 
C 359.472552 73.914922 359.021681 74.101679 358.689298 74.434062 
C 358.356915 74.766444 358.170158 75.217316 358.170158 75.687376 
C 358.170158 76.157436 358.356915 76.608307 358.689298 76.94069 
C 359.021681 77.273073 359.472552 77.45983 359.942612 77.45983 
z
" style="stroke:#000000;stroke-width:0.886227;"/>
    <path clip-path="url(#p68337fbddb)" d="M 366.619095 109.71583 
C 367.089155 109.71583 367.540026 109.529073 367.872409 109.19669 
C 368.204792 108.864307 368.391549 108.413436 368.391549 107.943376 
C 368.391549 107.473316 368.204792 107.022444 367.872409 106.690062 
C 367.540026 106.357679 367.089155 106.170922 366.619095 106.170922 
C 366.149035 106.170922 365.698164 106.357679 365.365781 106.690062 
C 365.033398 107.022444 364.846641 107.473316 364.846641 107.943376 
C 364.846641 108.413436 365.033398 108.864307 365.365781 109.19669 
C 365.698164 109.529073 366.149035 109.71583 366.619095 109.71583 
z
" style="stroke:#000000;stroke-width:0.886227;"/>
    <path clip-path="url(#p68337fbddb)" d="M 367.683216 217.23583 
C 368.153276 217.23583 368.604147 217.049073 368.93653 216.71669 
C 369.268913 216.384307 369.45567 215.933436 369.45567 215.463376 
C 369.45567 214.993316 369.268913 214.542444 368.93653 214.210062 
C 368.604147 213.877679 368.153276 213.690922 367.683216 213.690922 
C 367.213156 213.690922 366.762284 213.877679 366.429902 214.210062 
C 366.097519 214.542444 365.910762 214.993316 365.910762 215.463376 
C 365.910762 215.933436 366.097519 216.384307 366.429902 216.71669 
C 366.762284 217.049073 367.213156 217.23583 367.683216 217.23583 
z
" style="stroke:#000000;stroke-width:0.886227;"/>
    <path clip-path="url(#p68337fbddb)" d="M 391.47321 276.37183 
C 391.94327 276.37183 392.394142 276.185073 392.726524 275.85269 
C 393.058907 275.520307 393.245664 275.069436 393.245664 274.599376 
C 393.245664 274.129316 393.058907 273.678444 392.726524 273.346062 
C 392.394142 273.013679 391.94327 272.826922 391.47321 272.826922 
C 391.00315 272.826922 390.552279 273.013679 390.219896 273.346062 
C 389.887513 273.678444 389.700756 274.129316 389.700756 274.599376 
C 389.700756 275.069436 389.887513 275.520307 390.219896 275.85269 
C 390.552279 276.185073 391.00315 276.37183 391.47321 276.37183 
z
" style="stroke:#000000;stroke-width:0.886227;"/>
    <path clip-path="url(#p68337fbddb)" d="M 391.47321 201.10783 
C 391.94327 201.10783 392.394142 200.921073 392.726524 200.58869 
C 393.058907 200.256307 393.245664 199.805436 393.245664 199.335376 
C 393.245664 198.865316 393.058907 198.414444 392.726524 198.082062 
C 392.394142 197.749679 391.94327 197.562922 391.47321 197.562922 
C 391.00315 197.562922 390.552279 197.749679 390.219896 198.082062 
C 389.887513 198.414444 389.700756 198.865316 389.700756 199.335376 
C 389.700756 199.805436 389.887513 200.256307 390.219896 200.58869 
C 390.552279 200.921073 391.00315 201.10783 391.47321 201.10783 
z
" style="stroke:#000000;stroke-width:0.886227;"/>
    <path clip-path="url(#p68337fbddb)" d="M 391.47321 93.58783 
C 391.94327 93.58783 392.394142 93.401073 392.726524 93.06869 
C 393.058907 92.736307 393.245664 92.285436 393.245664 91.815376 
C 393.245664 91.345316 393.058907 90.894444 392.726524 90.562062 
C 392.394142 90.229679 391.94327 90.042922 391.47321 90.042922 
C 391.00315 90.042922 390.552279 90.229679 390.219896 90.562062 
C 389.887513 90.894444 389.700756 91.345316 389.700756 91.815376 
C 389.700756 92.285436 389.887513 92.736307 390.219896 93.06869 
C 390.552279 93.401073 391.00315 93.58783 391.47321 93.58783 
z
" style="stroke:#000000;stroke-width:0.886227;"/>
    <path clip-path="url(#p68337fbddb)" d="M 391.47321 104.33983 
C 391.94327 104.33983 392.394142 104.153073 392.726524 103.82069 
C 393.058907 103.488307 393.245664 103.037436 393.245664 102.567376 
C 393.245664 102.097316 393.058907 101.646444 392.726524 101.314062 
C 392.394142 100.981679 391.94327 100.794922 391.47321 100.794922 
C 391.00315 100.794922 390.552279 100.981679 390.219896 101.314062 
C 389.887513 101.646444 389.700756 102.097316 389.700756 102.567376 
C 389.700756 103.037436 389.887513 103.488307 390.219896 103.82069 
C 390.552279 104.153073 391.00315 104.33983 391.47321 104.33983 
z
" style="stroke:#000000;stroke-width:0.886227;"/>
   </g>
   <g id="text_12">
    <g clip-path="url(#p68337fbddb)">
     <!-- HALLMARK_ALLOGRAFT_REJECTION -->
     <defs>
      <path d="M 9.8125 72.90625 
L 19.671875 72.90625 
L 19.671875 43.015625 
L 55.515625 43.015625 
L 55.515625 72.90625 
L 65.375 72.90625 
L 65.375 0 
L 55.515625 0 
L 55.515625 34.71875 
L 19.671875 34.71875 
L 19.671875 0 
L 9.8125 0 
z
" id="DejaVuSans-72"/>
      <path d="M 34.1875 63.1875 
L 20.796875 26.90625 
L 47.609375 26.90625 
z
M 28.609375 72.90625 
L 39.796875 72.90625 
L 67.578125 0 
L 57.328125 0 
L 50.6875 18.703125 
L 17.828125 18.703125 
L 11.1875 0 
L 0.78125 0 
z
" id="DejaVuSans-65"/>
      <path d="M 9.8125 72.90625 
L 19.671875 72.90625 
L 19.671875 8.296875 
L 55.171875 8.296875 
L 55.171875 0 
L 9.8125 0 
z
" id="DejaVuSans-76"/>
      <path d="M 9.8125 72.90625 
L 24.515625 72.90625 
L 43.109375 23.296875 
L 61.8125 72.90625 
L 76.515625 72.90625 
L 76.515625 0 
L 66.890625 0 
L 66.890625 64.015625 
L 48.09375 14.015625 
L 38.1875 14.015625 
L 19.390625 64.015625 
L 19.390625 0 
L 9.8125 0 
z
" id="DejaVuSans-77"/>
      <path d="M 44.390625 34.1875 
Q 47.5625 33.109375 50.5625 29.59375 
Q 53.5625 26.078125 56.59375 19.921875 
L 66.609375 0 
L 56 0 
L 46.6875 18.703125 
Q 43.0625 26.03125 39.671875 28.421875 
Q 36.28125 30.8125 30.421875 30.8125 
L 19.671875 30.8125 
L 19.671875 0 
L 9.8125 0 
L 9.8125 72.90625 
L 32.078125 72.90625 
Q 44.578125 72.90625 50.734375 67.671875 
Q 56.890625 62.453125 56.890625 51.90625 
Q 56.890625 45.015625 53.6875 40.46875 
Q 50.484375 35.9375 44.390625 34.1875 
z
M 19.671875 64.796875 
L 19.671875 38.921875 
L 32.078125 38.921875 
Q 39.203125 38.921875 42.84375 42.21875 
Q 46.484375 45.515625 46.484375 51.90625 
Q 46.484375 58.296875 42.84375 61.546875 
Q 39.203125 64.796875 32.078125 64.796875 
z
" id="DejaVuSans-82"/>
      <path d="M 9.8125 72.90625 
L 19.671875 72.90625 
L 19.671875 42.09375 
L 52.390625 72.90625 
L 65.09375 72.90625 
L 28.90625 38.921875 
L 67.671875 0 
L 54.6875 0 
L 19.671875 35.109375 
L 19.671875 0 
L 9.8125 0 
z
" id="DejaVuSans-75"/>
      <path d="M 50.984375 -16.609375 
L 50.984375 -23.578125 
L -0.984375 -23.578125 
L -0.984375 -16.609375 
z
" id="DejaVuSans-95"/>
      <path d="M 39.40625 66.21875 
Q 28.65625 66.21875 22.328125 58.203125 
Q 16.015625 50.203125 16.015625 36.375 
Q 16.015625 22.609375 22.328125 14.59375 
Q 28.65625 6.59375 39.40625 6.59375 
Q 50.140625 6.59375 56.421875 14.59375 
Q 62.703125 22.609375 62.703125 36.375 
Q 62.703125 50.203125 56.421875 58.203125 
Q 50.140625 66.21875 39.40625 66.21875 
z
M 39.40625 74.21875 
Q 54.734375 74.21875 63.90625 63.9375 
Q 73.09375 53.65625 73.09375 36.375 
Q 73.09375 19.140625 63.90625 8.859375 
Q 54.734375 -1.421875 39.40625 -1.421875 
Q 24.03125 -1.421875 14.8125 8.828125 
Q 5.609375 19.09375 5.609375 36.375 
Q 5.609375 53.65625 14.8125 63.9375 
Q 24.03125 74.21875 39.40625 74.21875 
z
" id="DejaVuSans-79"/>
      <path d="M 59.515625 10.40625 
L 59.515625 29.984375 
L 43.40625 29.984375 
L 43.40625 38.09375 
L 69.28125 38.09375 
L 69.28125 6.78125 
Q 63.578125 2.734375 56.6875 0.65625 
Q 49.8125 -1.421875 42 -1.421875 
Q 24.90625 -1.421875 15.25 8.5625 
Q 5.609375 18.5625 5.609375 36.375 
Q 5.609375 54.25 15.25 64.234375 
Q 24.90625 74.21875 42 74.21875 
Q 49.125 74.21875 55.546875 72.453125 
Q 61.96875 70.703125 67.390625 67.28125 
L 67.390625 56.78125 
Q 61.921875 61.421875 55.765625 63.765625 
Q 49.609375 66.109375 42.828125 66.109375 
Q 29.4375 66.109375 22.71875 58.640625 
Q 16.015625 51.171875 16.015625 36.375 
Q 16.015625 21.625 22.71875 14.15625 
Q 29.4375 6.6875 42.828125 6.6875 
Q 48.046875 6.6875 52.140625 7.59375 
Q 56.25 8.5 59.515625 10.40625 
z
" id="DejaVuSans-71"/>
      <path d="M 9.8125 72.90625 
L 51.703125 72.90625 
L 51.703125 64.59375 
L 19.671875 64.59375 
L 19.671875 43.109375 
L 48.578125 43.109375 
L 48.578125 34.8125 
L 19.671875 34.8125 
L 19.671875 0 
L 9.8125 0 
z
" id="DejaVuSans-70"/>
      <path d="M -0.296875 72.90625 
L 61.375 72.90625 
L 61.375 64.59375 
L 35.5 64.59375 
L 35.5 0 
L 25.59375 0 
L 25.59375 64.59375 
L -0.296875 64.59375 
z
" id="DejaVuSans-84"/>
      <path d="M 9.8125 72.90625 
L 55.90625 72.90625 
L 55.90625 64.59375 
L 19.671875 64.59375 
L 19.671875 43.015625 
L 54.390625 43.015625 
L 54.390625 34.71875 
L 19.671875 34.71875 
L 19.671875 8.296875 
L 56.78125 8.296875 
L 56.78125 0 
L 9.8125 0 
z
" id="DejaVuSans-69"/>
      <path d="M 9.8125 72.90625 
L 19.671875 72.90625 
L 19.671875 5.078125 
Q 19.671875 -8.109375 14.671875 -14.0625 
Q 9.671875 -20.015625 -1.421875 -20.015625 
L -5.171875 -20.015625 
L -5.171875 -11.71875 
L -2.09375 -11.71875 
Q 4.4375 -11.71875 7.125 -8.046875 
Q 9.8125 -4.390625 9.8125 5.078125 
z
" id="DejaVuSans-74"/>
      <path d="M 64.40625 67.28125 
L 64.40625 56.890625 
Q 59.421875 61.53125 53.78125 63.8125 
Q 48.140625 66.109375 41.796875 66.109375 
Q 29.296875 66.109375 22.65625 58.46875 
Q 16.015625 50.828125 16.015625 36.375 
Q 16.015625 21.96875 22.65625 14.328125 
Q 29.296875 6.6875 41.796875 6.6875 
Q 48.140625 6.6875 53.78125 8.984375 
Q 59.421875 11.28125 64.40625 15.921875 
L 64.40625 5.609375 
Q 59.234375 2.09375 53.4375 0.328125 
Q 47.65625 -1.421875 41.21875 -1.421875 
Q 24.65625 -1.421875 15.125 8.703125 
Q 5.609375 18.84375 5.609375 36.375 
Q 5.609375 53.953125 15.125 64.078125 
Q 24.65625 74.21875 41.21875 74.21875 
Q 47.75 74.21875 53.53125 72.484375 
Q 59.328125 70.75 64.40625 67.28125 
z
" id="DejaVuSans-67"/>
      <path d="M 9.8125 72.90625 
L 19.671875 72.90625 
L 19.671875 0 
L 9.8125 0 
z
" id="DejaVuSans-73"/>
      <path d="M 9.8125 72.90625 
L 23.09375 72.90625 
L 55.421875 11.921875 
L 55.421875 72.90625 
L 64.984375 72.90625 
L 64.984375 0 
L 51.703125 0 
L 19.390625 60.984375 
L 19.390625 0 
L 9.8125 0 
z
" id="DejaVuSans-78"/>
     </defs>
     <g transform="translate(-128.531559 51.595438)scale(0.11 -0.11)">
      <use xlink:href="#DejaVuSans-72"/>
      <use x="75.195312" xlink:href="#DejaVuSans-65"/>
      <use x="143.603516" xlink:href="#DejaVuSans-76"/>
      <use x="199.316406" xlink:href="#DejaVuSans-76"/>
      <use x="255.029297" xlink:href="#DejaVuSans-77"/>
      <use x="341.308594" xlink:href="#DejaVuSans-65"/>
      <use x="409.716797" xlink:href="#DejaVuSans-82"/>
      <use x="479.199219" xlink:href="#DejaVuSans-75"/>
      <use x="544.775391" xlink:href="#DejaVuSans-95"/>
      <use x="594.775391" xlink:href="#DejaVuSans-65"/>
      <use x="663.183594" xlink:href="#DejaVuSans-76"/>
      <use x="718.896484" xlink:href="#DejaVuSans-76"/>
      <use x="774.5625" xlink:href="#DejaVuSans-79"/>
      <use x="853.273438" xlink:href="#DejaVuSans-71"/>
      <use x="930.763672" xlink:href="#DejaVuSans-82"/>
      <use x="1000.183594" xlink:href="#DejaVuSans-65"/>
      <use x="1068.591797" xlink:href="#DejaVuSans-70"/>
      <use x="1126.095703" xlink:href="#DejaVuSans-84"/>
      <use x="1187.179688" xlink:href="#DejaVuSans-95"/>
      <use x="1237.179688" xlink:href="#DejaVuSans-82"/>
      <use x="1306.662109" xlink:href="#DejaVuSans-69"/>
      <use x="1369.845703" xlink:href="#DejaVuSans-74"/>
      <use x="1399.337891" xlink:href="#DejaVuSans-69"/>
      <use x="1462.521484" xlink:href="#DejaVuSans-67"/>
      <use x="1532.345703" xlink:href="#DejaVuSans-84"/>
      <use x="1593.429688" xlink:href="#DejaVuSans-73"/>
      <use x="1622.921875" xlink:href="#DejaVuSans-79"/>
      <use x="1701.632812" xlink:href="#DejaVuSans-78"/>
     </g>
    </g>
   </g>
   <g id="text_13">
    <g clip-path="url(#p68337fbddb)">
     <!-- HALLMARK_MYOGENESIS -->
     <defs>
      <path d="M -0.203125 72.90625 
L 10.40625 72.90625 
L 30.609375 42.921875 
L 50.6875 72.90625 
L 61.28125 72.90625 
L 35.5 34.71875 
L 35.5 0 
L 25.59375 0 
L 25.59375 34.71875 
z
" id="DejaVuSans-89"/>
      <path d="M 53.515625 70.515625 
L 53.515625 60.890625 
Q 47.90625 63.578125 42.921875 64.890625 
Q 37.9375 66.21875 33.296875 66.21875 
Q 25.25 66.21875 20.875 63.09375 
Q 16.5 59.96875 16.5 54.203125 
Q 16.5 49.359375 19.40625 46.890625 
Q 22.3125 44.4375 30.421875 42.921875 
L 36.375 41.703125 
Q 47.40625 39.59375 52.65625 34.296875 
Q 57.90625 29 57.90625 20.125 
Q 57.90625 9.515625 50.796875 4.046875 
Q 43.703125 -1.421875 29.984375 -1.421875 
Q 24.8125 -1.421875 18.96875 -0.25 
Q 13.140625 0.921875 6.890625 3.21875 
L 6.890625 13.375 
Q 12.890625 10.015625 18.65625 8.296875 
Q 24.421875 6.59375 29.984375 6.59375 
Q 38.421875 6.59375 43.015625 9.90625 
Q 47.609375 13.234375 47.609375 19.390625 
Q 47.609375 24.75 44.3125 27.78125 
Q 41.015625 30.8125 33.5 32.328125 
L 27.484375 33.5 
Q 16.453125 35.6875 11.515625 40.375 
Q 6.59375 45.0625 6.59375 53.421875 
Q 6.59375 63.09375 13.40625 68.65625 
Q 20.21875 74.21875 32.171875 74.21875 
Q 37.3125 74.21875 42.625 73.28125 
Q 47.953125 72.359375 53.515625 70.515625 
z
" id="DejaVuSans-83"/>
     </defs>
     <g transform="translate(-71.269684 40.843438)scale(0.11 -0.11)">
      <use xlink:href="#DejaVuSans-72"/>
      <use x="75.195312" xlink:href="#DejaVuSans-65"/>
      <use x="143.603516" xlink:href="#DejaVuSans-76"/>
      <use x="199.316406" xlink:href="#DejaVuSans-76"/>
      <use x="255.029297" xlink:href="#DejaVuSans-77"/>
      <use x="341.308594" xlink:href="#DejaVuSans-65"/>
      <use x="409.716797" xlink:href="#DejaVuSans-82"/>
      <use x="479.199219" xlink:href="#DejaVuSans-75"/>
      <use x="544.775391" xlink:href="#DejaVuSans-95"/>
      <use x="594.775391" xlink:href="#DejaVuSans-77"/>
      <use x="681.054688" xlink:href="#DejaVuSans-89"/>
      <use x="742.060547" xlink:href="#DejaVuSans-79"/>
      <use x="820.771484" xlink:href="#DejaVuSans-71"/>
      <use x="898.261719" xlink:href="#DejaVuSans-69"/>
      <use x="961.445312" xlink:href="#DejaVuSans-78"/>
      <use x="1036.25" xlink:href="#DejaVuSans-69"/>
      <use x="1099.433594" xlink:href="#DejaVuSans-83"/>
      <use x="1162.910156" xlink:href="#DejaVuSans-73"/>
      <use x="1192.402344" xlink:href="#DejaVuSans-83"/>
     </g>
    </g>
   </g>
   <g id="text_14">
    <g clip-path="url(#p68337fbddb)">
     <!-- HALLMARK_KRAS_SIGNALING_DN -->
     <defs>
      <path d="M 19.671875 64.796875 
L 19.671875 8.109375 
L 31.59375 8.109375 
Q 46.6875 8.109375 53.6875 14.9375 
Q 60.6875 21.78125 60.6875 36.53125 
Q 60.6875 51.171875 53.6875 57.984375 
Q 46.6875 64.796875 31.59375 64.796875 
z
M 9.8125 72.90625 
L 30.078125 72.90625 
Q 51.265625 72.90625 61.171875 64.09375 
Q 71.09375 55.28125 71.09375 36.53125 
Q 71.09375 17.671875 61.125 8.828125 
Q 51.171875 0 30.078125 0 
L 9.8125 0 
z
" id="DejaVuSans-68"/>
     </defs>
     <g transform="translate(-110.548166 46.219438)scale(0.11 -0.11)">
      <use xlink:href="#DejaVuSans-72"/>
      <use x="75.195312" xlink:href="#DejaVuSans-65"/>
      <use x="143.603516" xlink:href="#DejaVuSans-76"/>
      <use x="199.316406" xlink:href="#DejaVuSans-76"/>
      <use x="255.029297" xlink:href="#DejaVuSans-77"/>
      <use x="341.308594" xlink:href="#DejaVuSans-65"/>
      <use x="409.716797" xlink:href="#DejaVuSans-82"/>
      <use x="479.199219" xlink:href="#DejaVuSans-75"/>
      <use x="544.775391" xlink:href="#DejaVuSans-95"/>
      <use x="594.775391" xlink:href="#DejaVuSans-75"/>
      <use x="660.351562" xlink:href="#DejaVuSans-82"/>
      <use x="729.771484" xlink:href="#DejaVuSans-65"/>
      <use x="798.179688" xlink:href="#DejaVuSans-83"/>
      <use x="861.65625" xlink:href="#DejaVuSans-95"/>
      <use x="911.65625" xlink:href="#DejaVuSans-83"/>
      <use x="975.132812" xlink:href="#DejaVuSans-73"/>
      <use x="1004.625" xlink:href="#DejaVuSans-71"/>
      <use x="1082.115234" xlink:href="#DejaVuSans-78"/>
      <use x="1156.919922" xlink:href="#DejaVuSans-65"/>
      <use x="1225.328125" xlink:href="#DejaVuSans-76"/>
      <use x="1281.041016" xlink:href="#DejaVuSans-73"/>
      <use x="1310.533203" xlink:href="#DejaVuSans-78"/>
      <use x="1385.337891" xlink:href="#DejaVuSans-71"/>
      <use x="1462.828125" xlink:href="#DejaVuSans-95"/>
      <use x="1512.828125" xlink:href="#DejaVuSans-68"/>
      <use x="1589.830078" xlink:href="#DejaVuSans-78"/>
     </g>
    </g>
   </g>
   <g id="text_15">
    <g clip-path="url(#p68337fbddb)">
     <!-- HALLMARK_COAGULATION -->
     <defs>
      <path d="M 8.6875 72.90625 
L 18.609375 72.90625 
L 18.609375 28.609375 
Q 18.609375 16.890625 22.84375 11.734375 
Q 27.09375 6.59375 36.625 6.59375 
Q 46.09375 6.59375 50.34375 11.734375 
Q 54.59375 16.890625 54.59375 28.609375 
L 54.59375 72.90625 
L 64.5 72.90625 
L 64.5 27.390625 
Q 64.5 13.140625 57.4375 5.859375 
Q 50.390625 -1.421875 36.625 -1.421875 
Q 22.796875 -1.421875 15.734375 5.859375 
Q 8.6875 13.140625 8.6875 27.390625 
z
" id="DejaVuSans-85"/>
     </defs>
     <g transform="translate(-9.327636 56.971438)scale(0.11 -0.11)">
      <use xlink:href="#DejaVuSans-72"/>
      <use x="75.195312" xlink:href="#DejaVuSans-65"/>
      <use x="143.603516" xlink:href="#DejaVuSans-76"/>
      <use x="199.316406" xlink:href="#DejaVuSans-76"/>
      <use x="255.029297" xlink:href="#DejaVuSans-77"/>
      <use x="341.308594" xlink:href="#DejaVuSans-65"/>
      <use x="409.716797" xlink:href="#DejaVuSans-82"/>
      <use x="479.199219" xlink:href="#DejaVuSans-75"/>
      <use x="544.775391" xlink:href="#DejaVuSans-95"/>
      <use x="594.775391" xlink:href="#DejaVuSans-67"/>
      <use x="664.599609" xlink:href="#DejaVuSans-79"/>
      <use x="743.294922" xlink:href="#DejaVuSans-65"/>
      <use x="811.6875" xlink:href="#DejaVuSans-71"/>
      <use x="889.177734" xlink:href="#DejaVuSans-85"/>
      <use x="962.371094" xlink:href="#DejaVuSans-76"/>
      <use x="1018.115234" xlink:href="#DejaVuSans-65"/>
      <use x="1086.414062" xlink:href="#DejaVuSans-84"/>
      <use x="1147.498047" xlink:href="#DejaVuSans-73"/>
      <use x="1176.990234" xlink:href="#DejaVuSans-79"/>
      <use x="1255.701172" xlink:href="#DejaVuSans-78"/>
     </g>
    </g>
   </g>
   <g id="text_16">
    <g clip-path="url(#p68337fbddb)">
     <!-- HALLMARK_SPERMATOGENESIS -->
     <g transform="translate(-36.330519 62.347438)scale(0.11 -0.11)">
      <use xlink:href="#DejaVuSans-72"/>
      <use x="75.195312" xlink:href="#DejaVuSans-65"/>
      <use x="143.603516" xlink:href="#DejaVuSans-76"/>
      <use x="199.316406" xlink:href="#DejaVuSans-76"/>
      <use x="255.029297" xlink:href="#DejaVuSans-77"/>
      <use x="341.308594" xlink:href="#DejaVuSans-65"/>
      <use x="409.716797" xlink:href="#DejaVuSans-82"/>
      <use x="479.199219" xlink:href="#DejaVuSans-75"/>
      <use x="544.775391" xlink:href="#DejaVuSans-95"/>
      <use x="594.775391" xlink:href="#DejaVuSans-83"/>
      <use x="658.251953" xlink:href="#DejaVuSans-80"/>
      <use x="718.554688" xlink:href="#DejaVuSans-69"/>
      <use x="781.738281" xlink:href="#DejaVuSans-82"/>
      <use x="851.220703" xlink:href="#DejaVuSans-77"/>
      <use x="937.5" xlink:href="#DejaVuSans-65"/>
      <use x="1005.798828" xlink:href="#DejaVuSans-84"/>
      <use x="1066.882812" xlink:href="#DejaVuSans-79"/>
      <use x="1145.59375" xlink:href="#DejaVuSans-71"/>
      <use x="1223.083984" xlink:href="#DejaVuSans-69"/>
      <use x="1286.267578" xlink:href="#DejaVuSans-78"/>
      <use x="1361.072266" xlink:href="#DejaVuSans-69"/>
      <use x="1424.255859" xlink:href="#DejaVuSans-83"/>
      <use x="1487.732422" xlink:href="#DejaVuSans-73"/>
      <use x="1517.224609" xlink:href="#DejaVuSans-83"/>
     </g>
    </g>
   </g>
  </g>
  <g id="text_17">
   <!-- GSEA pathway statistics vs ranking -->
   <defs>
    <path d="M 54.890625 33.015625 
L 54.890625 0 
L 45.90625 0 
L 45.90625 32.71875 
Q 45.90625 40.484375 42.875 44.328125 
Q 39.84375 48.1875 33.796875 48.1875 
Q 26.515625 48.1875 22.3125 43.546875 
Q 18.109375 38.921875 18.109375 30.90625 
L 18.109375 0 
L 9.078125 0 
L 9.078125 75.984375 
L 18.109375 75.984375 
L 18.109375 46.1875 
Q 21.34375 51.125 25.703125 53.5625 
Q 30.078125 56 35.796875 56 
Q 45.21875 56 50.046875 50.171875 
Q 54.890625 44.34375 54.890625 33.015625 
z
" id="DejaVuSans-104"/>
    <path d="M 4.203125 54.6875 
L 13.1875 54.6875 
L 24.421875 12.015625 
L 35.59375 54.6875 
L 46.1875 54.6875 
L 57.421875 12.015625 
L 68.609375 54.6875 
L 77.59375 54.6875 
L 63.28125 0 
L 52.6875 0 
L 40.921875 44.828125 
L 29.109375 0 
L 18.5 0 
z
" id="DejaVuSans-119"/>
    <path d="M 32.171875 -5.078125 
Q 28.375 -14.84375 24.75 -17.8125 
Q 21.140625 -20.796875 15.09375 -20.796875 
L 7.90625 -20.796875 
L 7.90625 -13.28125 
L 13.1875 -13.28125 
Q 16.890625 -13.28125 18.9375 -11.515625 
Q 21 -9.765625 23.484375 -3.21875 
L 25.09375 0.875 
L 2.984375 54.6875 
L 12.5 54.6875 
L 29.59375 11.921875 
L 46.6875 54.6875 
L 56.203125 54.6875 
z
" id="DejaVuSans-121"/>
   </defs>
   <g transform="translate(91.041406 11.397656)scale(0.15 -0.15)">
    <use xlink:href="#DejaVuSans-71"/>
    <use x="77.490234" xlink:href="#DejaVuSans-83"/>
    <use x="140.966797" xlink:href="#DejaVuSans-69"/>
    <use x="204.150391" xlink:href="#DejaVuSans-65"/>
    <use x="272.558594" xlink:href="#DejaVuSans-32"/>
    <use x="304.345703" xlink:href="#DejaVuSans-112"/>
    <use x="367.822266" xlink:href="#DejaVuSans-97"/>
    <use x="429.101562" xlink:href="#DejaVuSans-116"/>
    <use x="468.310547" xlink:href="#DejaVuSans-104"/>
    <use x="531.689453" xlink:href="#DejaVuSans-119"/>
    <use x="613.476562" xlink:href="#DejaVuSans-97"/>
    <use x="674.755859" xlink:href="#DejaVuSans-121"/>
    <use x="733.935547" xlink:href="#DejaVuSans-32"/>
    <use x="765.722656" xlink:href="#DejaVuSans-115"/>
    <use x="817.822266" xlink:href="#DejaVuSans-116"/>
    <use x="857.03125" xlink:href="#DejaVuSans-97"/>
    <use x="918.310547" xlink:href="#DejaVuSans-116"/>
    <use x="957.519531" xlink:href="#DejaVuSans-105"/>
    <use x="985.302734" xlink:href="#DejaVuSans-115"/>
    <use x="1037.402344" xlink:href="#DejaVuSans-116"/>
    <use x="1076.611328" xlink:href="#DejaVuSans-105"/>
    <use x="1104.394531" xlink:href="#DejaVuSans-99"/>
    <use x="1159.375" xlink:href="#DejaVuSans-115"/>
    <use x="1211.474609" xlink:href="#DejaVuSans-32"/>
    <use x="1243.261719" xlink:href="#DejaVuSans-118"/>
    <use x="1302.441406" xlink:href="#DejaVuSans-115"/>
    <use x="1354.541016" xlink:href="#DejaVuSans-32"/>
    <use x="1386.328125" xlink:href="#DejaVuSans-114"/>
    <use x="1427.441406" xlink:href="#DejaVuSans-97"/>
    <use x="1488.720703" xlink:href="#DejaVuSans-110"/>
    <use x="1552.099609" xlink:href="#DejaVuSans-107"/>
    <use x="1610.009766" xlink:href="#DejaVuSans-105"/>
    <use x="1637.792969" xlink:href="#DejaVuSans-110"/>
    <use x="1701.171875" xlink:href="#DejaVuSans-103"/>
   </g>
  </g>
 </g>
 <defs>
  <clipPath id="p68337fbddb">
   <rect height="266.112" width="357.12" x="50.585938" y="20.583376"/>
  </clipPath>
 </defs>
</svg>
