<?xml version="1.0" encoding="utf-8" standalone="no"?>
<!DOCTYPE svg PUBLIC "-//W3C//DTD SVG 1.1//EN"
  "http://www.w3.org/Graphics/SVG/1.1/DTD/svg11.dtd">
<!-- Created with matplotlib (https://matplotlib.org/) -->
<svg height="322.176313pt" version="1.1" viewBox="0 0 406.642188 322.176313" width="406.642188pt" xmlns="http://www.w3.org/2000/svg" xmlns:xlink="http://www.w3.org/1999/xlink">
 <defs>
  <style type="text/css">
*{stroke-linecap:butt;stroke-linejoin:round;}
  </style>
 </defs>
 <g id="figure_1">
  <g id="patch_1">
   <path d="M 0 322.176313
L 406.642188 322.176313
L 406.642188 0
L 0 0
z
" style="fill:#ffffff;stroke:#ffffff;stroke-linejoin:miter;"/>
  </g>
  <g id="axes_1">
   <g id="patch_2">
    <path d="M 46.772188 286.695376
L 403.892188 286.695376
L 403.892188 20.583376
L 46.772188 20.583376
z
" style="fill:none;"/>
   </g>
   <g id="matplotlib.axis_1">
    <g id="xtick_1">
     <g id="line2d_1">
      <path clip-path="url(#p0da3813a22)" d="M 63.004915 286.695376
L 63.004915 20.583376
" style="fill:none;stroke:#e5e5e5;stroke-width:0.8;"/>
     </g>
     <g id="line2d_2">
      <path d="M 63.004915 286.695376
" style="fill:none;stroke:#000000;stroke-width:1.5;"/>
      <defs>
       <path d="M 0 0
L 0 2.75
" id="mfdfc97e827" style="stroke:#000000;"/>
      </defs>
      <g>
       <use style="stroke:#000000;" x="63.004915" xlink:href="#mfdfc97e827" y="286.695376"/>
      </g>
     </g>
     <g id="text_1">
      <!-- 0 -->
      <defs>
       <path d="M 31.78125 66.40625
Q 24.171875 66.40625 20.328125 58.90625
Q 16.5 51.421875 16.5 36.375
Q 16.5 21.390625 20.328125 13.890625
Q 24.171875 6.390625 31.78125 6.390625
Q 39.453125 6.390625 43.28125 13.890625
Q 47.125 21.390625 47.125 36.375
Q 47.125 51.421875 43.28125 58.90625
Q 39.453125 66.40625 31.78125 66.40625
z
M 31.78125 74.21875
Q 44.046875 74.21875 50.515625 64.515625
Q 56.984375 54.828125 56.984375 36.375
Q 56.984375 17.96875 50.515625 8.265625
Q 44.046875 -1.421875 31.78125 -1.421875
Q 19.53125 -1.421875 13.0625 8.265625
Q 6.59375 17.96875 6.59375 36.375
Q 6.59375 54.828125 13.0625 64.515625
Q 19.53125 74.21875 31.78125 74.21875
z
" id="DejaVuSans-48"/>
      </defs>
      <g style="fill:#4d4d4d;" transform="translate(59.187415 300.763501)scale(0.12 -0.12)">
       <use xlink:href="#DejaVuSans-48"/>
      </g>
     </g>
    </g>
    <g id="xtick_2">
     <g id="line2d_3">
      <path clip-path="url(#p0da3813a22)" d="M 144.168551 286.695376
L 144.168551 20.583376
" style="fill:none;stroke:#e5e5e5;stroke-width:0.8;"/>
     </g>
     <g id="line2d_4">
      <path d="M 144.168551 286.695376
" style="fill:none;stroke:#000000;stroke-width:1.5;"/>
      <g>
       <use style="stroke:#000000;" x="144.168551" xlink:href="#mfdfc97e827" y="286.695376"/>
      </g>
     </g>
     <g id="text_2">
      <!-- 25 -->
      <defs>
       <path d="M 19.1875 8.296875
L 53.609375 8.296875
L 53.609375 0
L 7.328125 0
L 7.328125 8.296875
Q 12.9375 14.109375 22.625 23.890625
Q 32.328125 33.6875 34.8125 36.53125
Q 39.546875 41.84375 41.421875 45.53125
Q 43.3125 49.21875 43.3125 52.78125
Q 43.3125 58.59375 39.234375 62.25
Q 35.15625 65.921875 28.609375 65.921875
Q 23.96875 65.921875 18.8125 64.3125
Q 13.671875 62.703125 7.8125 59.421875
L 7.8125 69.390625
Q 13.765625 71.78125 18.9375 73
Q 24.125 74.21875 28.421875 74.21875
Q 39.75 74.21875 46.484375 68.546875
Q 53.21875 62.890625 53.21875 53.421875
Q 53.21875 48.921875 51.53125 44.890625
Q 49.859375 40.875 45.40625 35.40625
Q 44.1875 33.984375 37.640625 27.21875
Q 31.109375 20.453125 19.1875 8.296875
z
" id="DejaVuSans-50"/>
       <path d="M 10.796875 72.90625
L 49.515625 72.90625
L 49.515625 64.59375
L 19.828125 64.59375
L 19.828125 46.734375
Q 21.96875 47.46875 24.109375 47.828125
Q 26.265625 48.1875 28.421875 48.1875
Q 40.625 48.1875 47.75 41.5
Q 54.890625 34.8125 54.890625 23.390625
Q 54.890625 11.625 47.5625 5.09375
Q 40.234375 -1.421875 26.90625 -1.421875
Q 22.3125 -1.421875 17.546875 -0.640625
Q 12.796875 0.140625 7.71875 1.703125
L 7.71875 11.625
Q 12.109375 9.234375 16.796875 8.0625
Q 21.484375 6.890625 26.703125 6.890625
Q 35.15625 6.890625 40.078125 11.328125
Q 45.015625 15.765625 45.015625 23.390625
Q 45.015625 31 40.078125 35.4375
Q 35.15625 39.890625 26.703125 39.890625
Q 22.75 39.890625 18.8125 39.015625
Q 14.890625 38.140625 10.796875 36.28125
z
" id="DejaVuSans-53"/>
      </defs>
      <g style="fill:#4d4d4d;" transform="translate(136.533551 300.763501)scale(0.12 -0.12)">
       <use xlink:href="#DejaVuSans-50"/>
       <use x="63.623047" xlink:href="#DejaVuSans-53"/>
      </g>
     </g>
    </g>
    <g id="xtick_3">
     <g id="line2d_5">
      <path clip-path="url(#p0da3813a22)" d="M 225.332188 286.695376
L 225.332188 20.583376
" style="fill:none;stroke:#e5e5e5;stroke-width:0.8;"/>
     </g>
     <g id="line2d_6">
      <path d="M 225.332188 286.695376
" style="fill:none;stroke:#000000;stroke-width:1.5;"/>
      <g>
       <use style="stroke:#000000;" x="225.332188" xlink:href="#mfdfc97e827" y="286.695376"/>
      </g>
     </g>
     <g id="text_3">
      <!-- 50 -->
      <g style="fill:#4d4d4d;" transform="translate(217.697188 300.763501)scale(0.12 -0.12)">
       <use xlink:href="#DejaVuSans-53"/>
       <use x="63.623047" xlink:href="#DejaVuSans-48"/>
      </g>
     </g>
    </g>
    <g id="xtick_4">
     <g id="line2d_7">
      <path clip-path="url(#p0da3813a22)" d="M 306.495824 286.695376
L 306.495824 20.583376
" style="fill:none;stroke:#e5e5e5;stroke-width:0.8;"/>
     </g>
     <g id="line2d_8">
      <path d="M 306.495824 286.695376
" style="fill:none;stroke:#000000;stroke-width:1.5;"/>
      <g>
       <use style="stroke:#000000;" x="306.495824" xlink:href="#mfdfc97e827" y="286.695376"/>
      </g>
     </g>
     <g id="text_4">
      <!-- 75 -->
      <defs>
       <path d="M 8.203125 72.90625
L 55.078125 72.90625
L 55.078125 68.703125
L 28.609375 0
L 18.3125 0
L 43.21875 64.59375
L 8.203125 64.59375
z
" id="DejaVuSans-55"/>
      </defs>
      <g style="fill:#4d4d4d;" transform="translate(298.860824 300.763501)scale(0.12 -0.12)">
       <use xlink:href="#DejaVuSans-55"/>
       <use x="63.623047" xlink:href="#DejaVuSans-53"/>
      </g>
     </g>
    </g>
    <g id="xtick_5">
     <g id="line2d_9">
      <path clip-path="url(#p0da3813a22)" d="M 387.65946 286.695376
L 387.65946 20.583376
" style="fill:none;stroke:#e5e5e5;stroke-width:0.8;"/>
     </g>
     <g id="line2d_10">
      <path d="M 387.65946 286.695376
" style="fill:none;stroke:#000000;stroke-width:1.5;"/>
      <g>
       <use style="stroke:#000000;" x="387.65946" xlink:href="#mfdfc97e827" y="286.695376"/>
      </g>
     </g>
     <g id="text_5">
      <!-- 100 -->
      <defs>
       <path d="M 12.40625 8.296875
L 28.515625 8.296875
L 28.515625 63.921875
L 10.984375 60.40625
L 10.984375 69.390625
L 28.421875 72.90625
L 38.28125 72.90625
L 38.28125 8.296875
L 54.390625 8.296875
L 54.390625 0
L 12.40625 0
z
" id="DejaVuSans-49"/>
      </defs>
      <g style="fill:#4d4d4d;" transform="translate(376.20696 300.763501)scale(0.12 -0.12)">
       <use xlink:href="#DejaVuSans-49"/>
       <use x="63.623047" xlink:href="#DejaVuSans-48"/>
       <use x="127.246094" xlink:href="#DejaVuSans-48"/>
      </g>
     </g>
    </g>
    <g id="xtick_6">
     <g id="line2d_11">
      <path clip-path="url(#p0da3813a22)" d="M 103.586733 286.695376
L 103.586733 20.583376
" style="fill:none;stroke:#fafafa;"/>
     </g>
     <g id="line2d_12">
      <path d="M 103.586733 286.695376
" style="fill:none;stroke:#000000;stroke-width:1.5;"/>
     </g>
    </g>
    <g id="xtick_7">
     <g id="line2d_13">
      <path clip-path="url(#p0da3813a22)" d="M 184.750369 286.695376
L 184.750369 20.583376
" style="fill:none;stroke:#fafafa;"/>
     </g>
     <g id="line2d_14">
      <path d="M 184.750369 286.695376
" style="fill:none;stroke:#000000;stroke-width:1.5;"/>
     </g>
    </g>
    <g id="xtick_8">
     <g id="line2d_15">
      <path clip-path="url(#p0da3813a22)" d="M 265.914006 286.695376
L 265.914006 20.583376
" style="fill:none;stroke:#fafafa;"/>
     </g>
     <g id="line2d_16">
      <path d="M 265.914006 286.695376
" style="fill:none;stroke:#000000;stroke-width:1.5;"/>
     </g>
    </g>
    <g id="xtick_9">
     <g id="line2d_17">
      <path clip-path="url(#p0da3813a22)" d="M 347.077642 286.695376
L 347.077642 20.583376
" style="fill:none;stroke:#fafafa;"/>
     </g>
     <g id="line2d_18">
      <path d="M 347.077642 286.695376
" style="fill:none;stroke:#000000;stroke-width:1.5;"/>
     </g>
    </g>
    <g id="text_6">
     <!-- GSEA pathway ranking -->
     <defs>
      <path d="M 59.515625 10.40625
L 59.515625 29.984375
L 43.40625 29.984375
L 43.40625 38.09375
L 69.28125 38.09375
L 69.28125 6.78125
Q 63.578125 2.734375 56.6875 0.65625
Q 49.8125 -1.421875 42 -1.421875
Q 24.90625 -1.421875 15.25 8.5625
Q 5.609375 18.5625 5.609375 36.375
Q 5.609375 54.25 15.25 64.234375
Q 24.90625 74.21875 42 74.21875
Q 49.125 74.21875 55.546875 72.453125
Q 61.96875 70.703125 67.390625 67.28125
L 67.390625 56.78125
Q 61.921875 61.421875 55.765625 63.765625
Q 49.609375 66.109375 42.828125 66.109375
Q 29.4375 66.109375 22.71875 58.640625
Q 16.015625 51.171875 16.015625 36.375
Q 16.015625 21.625 22.71875 14.15625
Q 29.4375 6.6875 42.828125 6.6875
Q 48.046875 6.6875 52.140625 7.59375
Q 56.25 8.5 59.515625 10.40625
z
" id="DejaVuSans-71"/>
      <path d="M 53.515625 70.515625
L 53.515625 60.890625
Q 47.90625 63.578125 42.921875 64.890625
Q 37.9375 66.21875 33.296875 66.21875
Q 25.25 66.21875 20.875 63.09375
Q 16.5 59.96875 16.5 54.203125
Q 16.5 49.359375 19.40625 46.890625
Q 22.3125 44.4375 30.421875 42.921875
L 36.375 41.703125
Q 47.40625 39.59375 52.65625 34.296875
Q 57.90625 29 57.90625 20.125
Q 57.90625 9.515625 50.796875 4.046875
Q 43.703125 -1.421875 29.984375 -1.421875
Q 24.8125 -1.421875 18.96875 -0.25
Q 13.140625 0.921875 6.890625 3.21875
L 6.890625 13.375
Q 12.890625 10.015625 18.65625 8.296875
Q 24.421875 6.59375 29.984375 6.59375
Q 38.421875 6.59375 43.015625 9.90625
Q 47.609375 13.234375 47.609375 19.390625
Q 47.609375 24.75 44.3125 27.78125
Q 41.015625 30.8125 33.5 32.328125
L 27.484375 33.5
Q 16.453125 35.6875 11.515625 40.375
Q 6.59375 45.0625 6.59375 53.421875
Q 6.59375 63.09375 13.40625 68.65625
Q 20.21875 74.21875 32.171875 74.21875
Q 37.3125 74.21875 42.625 73.28125
Q 47.953125 72.359375 53.515625 70.515625
z
" id="DejaVuSans-83"/>
      <path d="M 9.8125 72.90625
L 55.90625 72.90625
L 55.90625 64.59375
L 19.671875 64.59375
L 19.671875 43.015625
L 54.390625 43.015625
L 54.390625 34.71875
L 19.671875 34.71875
L 19.671875 8.296875
L 56.78125 8.296875
L 56.78125 0
L 9.8125 0
z
" id="DejaVuSans-69"/>
      <path d="M 34.1875 63.1875
L 20.796875 26.90625
L 47.609375 26.90625
z
M 28.609375 72.90625
L 39.796875 72.90625
L 67.578125 0
L 57.328125 0
L 50.6875 18.703125
L 17.828125 18.703125
L 11.1875 0
L 0.78125 0
z
" id="DejaVuSans-65"/>
      <path id="DejaVuSans-32"/>
      <path d="M 18.109375 8.203125
L 18.109375 -20.796875
L 9.078125 -20.796875
L 9.078125 54.6875
L 18.109375 54.6875
L 18.109375 46.390625
Q 20.953125 51.265625 25.265625 53.625
Q 29.59375 56 35.59375 56
Q 45.5625 56 51.78125 48.09375
Q 58.015625 40.1875 58.015625 27.296875
Q 58.015625 14.40625 51.78125 6.484375
Q 45.5625 -1.421875 35.59375 -1.421875
Q 29.59375 -1.421875 25.265625 0.953125
Q 20.953125 3.328125 18.109375 8.203125
z
M 48.6875 27.296875
Q 48.6875 37.203125 44.609375 42.84375
Q 40.53125 48.484375 33.40625 48.484375
Q 26.265625 48.484375 22.1875 42.84375
Q 18.109375 37.203125 18.109375 27.296875
Q 18.109375 17.390625 22.1875 11.75
Q 26.265625 6.109375 33.40625 6.109375
Q 40.53125 6.109375 44.609375 11.75
Q 48.6875 17.390625 48.6875 27.296875
z
" id="DejaVuSans-112"/>
      <path d="M 34.28125 27.484375
Q 23.390625 27.484375 19.1875 25
Q 14.984375 22.515625 14.984375 16.5
Q 14.984375 11.71875 18.140625 8.90625
Q 21.296875 6.109375 26.703125 6.109375
Q 34.1875 6.109375 38.703125 11.40625
Q 43.21875 16.703125 43.21875 25.484375
L 43.21875 27.484375
z
M 52.203125 31.203125
L 52.203125 0
L 43.21875 0
L 43.21875 8.296875
Q 40.140625 3.328125 35.546875 0.953125
Q 30.953125 -1.421875 24.3125 -1.421875
Q 15.921875 -1.421875 10.953125 3.296875
Q 6 8.015625 6 15.921875
Q 6 25.140625 12.171875 29.828125
Q 18.359375 34.515625 30.609375 34.515625
L 43.21875 34.515625
L 43.21875 35.40625
Q 43.21875 41.609375 39.140625 45
Q 35.0625 48.390625 27.6875 48.390625
Q 23 48.390625 18.546875 47.265625
Q 14.109375 46.140625 10.015625 43.890625
L 10.015625 52.203125
Q 14.9375 54.109375 19.578125 55.046875
Q 24.21875 56 28.609375 56
Q 40.484375 56 46.34375 49.84375
Q 52.203125 43.703125 52.203125 31.203125
z
" id="DejaVuSans-97"/>
      <path d="M 18.3125 70.21875
L 18.3125 54.6875
L 36.8125 54.6875
L 36.8125 47.703125
L 18.3125 47.703125
L 18.3125 18.015625
Q 18.3125 11.328125 20.140625 9.421875
Q 21.96875 7.515625 27.59375 7.515625
L 36.8125 7.515625
L 36.8125 0
L 27.59375 0
Q 17.1875 0 13.234375 3.875
Q 9.28125 7.765625 9.28125 18.015625
L 9.28125 47.703125
L 2.6875 47.703125
L 2.6875 54.6875
L 9.28125 54.6875
L 9.28125 70.21875
z
" id="DejaVuSans-116"/>
      <path d="M 54.890625 33.015625
L 54.890625 0
L 45.90625 0
L 45.90625 32.71875
Q 45.90625 40.484375 42.875 44.328125
Q 39.84375 48.1875 33.796875 48.1875
Q 26.515625 48.1875 22.3125 43.546875
Q 18.109375 38.921875 18.109375 30.90625
L 18.109375 0
L 9.078125 0
L 9.078125 75.984375
L 18.109375 75.984375
L 18.109375 46.1875
Q 21.34375 51.125 25.703125 53.5625
Q 30.078125 56 35.796875 56
Q 45.21875 56 50.046875 50.171875
Q 54.890625 44.34375 54.890625 33.015625
z
" id="DejaVuSans-104"/>
      <path d="M 4.203125 54.6875
L 13.1875 54.6875
L 24.421875 12.015625
L 35.59375 54.6875
L 46.1875 54.6875
L 57.421875 12.015625
L 68.609375 54.6875
L 77.59375 54.6875
L 63.28125 0
L 52.6875 0
L 40.921875 44.828125
L 29.109375 0
L 18.5 0
z
" id="DejaVuSans-119"/>
      <path d="M 32.171875 -5.078125
Q 28.375 -14.84375 24.75 -17.8125
Q 21.140625 -20.796875 15.09375 -20.796875
L 7.90625 -20.796875
L 7.90625 -13.28125
L 13.1875 -13.28125
Q 16.890625 -13.28125 18.9375 -11.515625
Q 21 -9.765625 23.484375 -3.21875
L 25.09375 0.875
L 2.984375 54.6875
L 12.5 54.6875
L 29.59375 11.921875
L 46.6875 54.6875
L 56.203125 54.6875
z
" id="DejaVuSans-121"/>
      <path d="M 41.109375 46.296875
Q 39.59375 47.171875 37.8125 47.578125
Q 36.03125 48 33.890625 48
Q 26.265625 48 22.1875 43.046875
Q 18.109375 38.09375 18.109375 28.8125
L 18.109375 0
L 9.078125 0
L 9.078125 54.6875
L 18.109375 54.6875
L 18.109375 46.1875
Q 20.953125 51.171875 25.484375 53.578125
Q 30.03125 56 36.53125 56
Q 37.453125 56 38.578125 55.875
Q 39.703125 55.765625 41.0625 55.515625
z
" id="DejaVuSans-114"/>
      <path d="M 54.890625 33.015625
L 54.890625 0
L 45.90625 0
L 45.90625 32.71875
Q 45.90625 40.484375 42.875 44.328125
Q 39.84375 48.1875 33.796875 48.1875
Q 26.515625 48.1875 22.3125 43.546875
Q 18.109375 38.921875 18.109375 30.90625
L 18.109375 0
L 9.078125 0
L 9.078125 54.6875
L 18.109375 54.6875
L 18.109375 46.1875
Q 21.34375 51.125 25.703125 53.5625
Q 30.078125 56 35.796875 56
Q 45.21875 56 50.046875 50.171875
Q 54.890625 44.34375 54.890625 33.015625
z
" id="DejaVuSans-110"/>
      <path d="M 9.078125 75.984375
L 18.109375 75.984375
L 18.109375 31.109375
L 44.921875 54.6875
L 56.390625 54.6875
L 27.390625 29.109375
L 57.625 0
L 45.90625 0
L 18.109375 26.703125
L 18.109375 0
L 9.078125 0
z
" id="DejaVuSans-107"/>
      <path d="M 9.421875 54.6875
L 18.40625 54.6875
L 18.40625 0
L 9.421875 0
z
M 9.421875 75.984375
L 18.40625 75.984375
L 18.40625 64.59375
L 9.421875 64.59375
z
" id="DejaVuSans-105"/>
      <path d="M 45.40625 27.984375
Q 45.40625 37.75 41.375 43.109375
Q 37.359375 48.484375 30.078125 48.484375
Q 22.859375 48.484375 18.828125 43.109375
Q 14.796875 37.75 14.796875 27.984375
Q 14.796875 18.265625 18.828125 12.890625
Q 22.859375 7.515625 30.078125 7.515625
Q 37.359375 7.515625 41.375 12.890625
Q 45.40625 18.265625 45.40625 27.984375
z
M 54.390625 6.78125
Q 54.390625 -7.171875 48.1875 -13.984375
Q 42 -20.796875 29.203125 -20.796875
Q 24.46875 -20.796875 20.265625 -20.09375
Q 16.0625 -19.390625 12.109375 -17.921875
L 12.109375 -9.1875
Q 16.0625 -11.328125 19.921875 -12.34375
Q 23.78125 -13.375 27.78125 -13.375
Q 36.625 -13.375 41.015625 -8.765625
Q 45.40625 -4.15625 45.40625 5.171875
L 45.40625 9.625
Q 42.625 4.78125 38.28125 2.390625
Q 33.9375 0 27.875 0
Q 17.828125 0 11.671875 7.65625
Q 5.515625 15.328125 5.515625 27.984375
Q 5.515625 40.671875 11.671875 48.328125
Q 17.828125 56 27.875 56
Q 33.9375 56 38.28125 53.609375
Q 42.625 51.21875 45.40625 46.390625
L 45.40625 54.6875
L 54.390625 54.6875
z
" id="DejaVuSans-103"/>
     </defs>
     <g transform="translate(133.769844 319.056782)scale(0.15 -0.15)">
      <use xlink:href="#DejaVuSans-71"/>
      <use x="77.490234" xlink:href="#DejaVuSans-83"/>
      <use x="140.966797" xlink:href="#DejaVuSans-69"/>
      <use x="204.150391" xlink:href="#DejaVuSans-65"/>
      <use x="272.558594" xlink:href="#DejaVuSans-32"/>
      <use x="304.345703" xlink:href="#DejaVuSans-112"/>
      <use x="367.822266" xlink:href="#DejaVuSans-97"/>
      <use x="429.101562" xlink:href="#DejaVuSans-116"/>
      <use x="468.310547" xlink:href="#DejaVuSans-104"/>
      <use x="531.689453" xlink:href="#DejaVuSans-119"/>
      <use x="613.476562" xlink:href="#DejaVuSans-97"/>
      <use x="674.755859" xlink:href="#DejaVuSans-121"/>
      <use x="733.935547" xlink:href="#DejaVuSans-32"/>
      <use x="765.722656" xlink:href="#DejaVuSans-114"/>
      <use x="806.835938" xlink:href="#DejaVuSans-97"/>
      <use x="868.115234" xlink:href="#DejaVuSans-110"/>
      <use x="931.494141" xlink:href="#DejaVuSans-107"/>
      <use x="989.404297" xlink:href="#DejaVuSans-105"/>
      <use x="1017.1875" xlink:href="#DejaVuSans-110"/>
      <use x="1080.566406" xlink:href="#DejaVuSans-103"/>
     </g>
    </g>
   </g>
   <g id="matplotlib.axis_2">
    <g id="ytick_1">
     <g id="line2d_19">
      <path clip-path="url(#p0da3813a22)" d="M 46.772188 274.599376
L 403.892188 274.599376
" style="fill:none;stroke:#e5e5e5;stroke-width:0.8;"/>
     </g>
     <g id="line2d_20">
      <path d="M 46.772188 274.599376
" style="fill:none;stroke:#000000;stroke-width:1.5;"/>
      <defs>
       <path d="M 0 0
L -2.75 0
" id="m4361e0f5b4" style="stroke:#000000;"/>
      </defs>
      <g>
       <use style="stroke:#000000;" x="46.772188" xlink:href="#m4361e0f5b4" y="274.599376"/>
      </g>
     </g>
     <g id="text_7">
      <!-- 0 -->
      <g style="fill:#4d4d4d;" transform="translate(34.187188 277.910626)scale(0.12 -0.12)">
       <use xlink:href="#DejaVuSans-48"/>
      </g>
     </g>
    </g>
    <g id="ytick_2">
     <g id="line2d_21">
      <path clip-path="url(#p0da3813a22)" d="M 46.772188 214.119376
L 403.892188 214.119376
" style="fill:none;stroke:#e5e5e5;stroke-width:0.8;"/>
     </g>
     <g id="line2d_22">
      <path d="M 46.772188 214.119376
" style="fill:none;stroke:#000000;stroke-width:1.5;"/>
      <g>
       <use style="stroke:#000000;" x="46.772188" xlink:href="#m4361e0f5b4" y="214.119376"/>
      </g>
     </g>
     <g id="text_8">
      <!-- 25 -->
      <g style="fill:#4d4d4d;" transform="translate(26.552188 217.430626)scale(0.12 -0.12)">
       <use xlink:href="#DejaVuSans-50"/>
       <use x="63.623047" xlink:href="#DejaVuSans-53"/>
      </g>
     </g>
    </g>
    <g id="ytick_3">
     <g id="line2d_23">
      <path clip-path="url(#p0da3813a22)" d="M 46.772188 153.639376
L 403.892188 153.639376
" style="fill:none;stroke:#e5e5e5;stroke-width:0.8;"/>
     </g>
     <g id="line2d_24">
      <path d="M 46.772188 153.639376
" style="fill:none;stroke:#000000;stroke-width:1.5;"/>
      <g>
       <use style="stroke:#000000;" x="46.772188" xlink:href="#m4361e0f5b4" y="153.639376"/>
      </g>
     </g>
     <g id="text_9">
      <!-- 50 -->
      <g style="fill:#4d4d4d;" transform="translate(26.552188 156.950626)scale(0.12 -0.12)">
       <use xlink:href="#DejaVuSans-53"/>
       <use x="63.623047" xlink:href="#DejaVuSans-48"/>
      </g>
     </g>
    </g>
    <g id="ytick_4">
     <g id="line2d_25">
      <path clip-path="url(#p0da3813a22)" d="M 46.772188 93.159376
L 403.892188 93.159376
" style="fill:none;stroke:#e5e5e5;stroke-width:0.8;"/>
     </g>
     <g id="line2d_26">
      <path d="M 46.772188 93.159376
" style="fill:none;stroke:#000000;stroke-width:1.5;"/>
      <g>
       <use style="stroke:#000000;" x="46.772188" xlink:href="#m4361e0f5b4" y="93.159376"/>
      </g>
     </g>
     <g id="text_10">
      <!-- 75 -->
      <g style="fill:#4d4d4d;" transform="translate(26.552188 96.470626)scale(0.12 -0.12)">
       <use xlink:href="#DejaVuSans-55"/>
       <use x="63.623047" xlink:href="#DejaVuSans-53"/>
      </g>
     </g>
    </g>
    <g id="ytick_5">
     <g id="line2d_27">
      <path clip-path="url(#p0da3813a22)" d="M 46.772188 32.679376
L 403.892188 32.679376
" style="fill:none;stroke:#e5e5e5;stroke-width:0.8;"/>
     </g>
     <g id="line2d_28">
      <path d="M 46.772188 32.679376
" style="fill:none;stroke:#000000;stroke-width:1.5;"/>
      <g>
       <use style="stroke:#000000;" x="46.772188" xlink:href="#m4361e0f5b4" y="32.679376"/>
      </g>
     </g>
     <g id="text_11">
      <!-- 100 -->
      <g style="fill:#4d4d4d;" transform="translate(18.917188 35.990626)scale(0.12 -0.12)">
       <use xlink:href="#DejaVuSans-49"/>
       <use x="63.623047" xlink:href="#DejaVuSans-48"/>
       <use x="127.246094" xlink:href="#DejaVuSans-48"/>
      </g>
     </g>
    </g>
    <g id="ytick_6">
     <g id="line2d_29">
      <path clip-path="url(#p0da3813a22)" d="M 46.772188 244.359376
L 403.892188 244.359376
" style="fill:none;stroke:#fafafa;"/>
     </g>
     <g id="line2d_30">
      <path d="M 46.772188 244.359376
" style="fill:none;stroke:#000000;stroke-width:1.5;"/>
     </g>
    </g>
    <g id="ytick_7">
     <g id="line2d_31">
      <path clip-path="url(#p0da3813a22)" d="M 46.772188 183.879376
L 403.892188 183.879376
" style="fill:none;stroke:#fafafa;"/>
     </g>
     <g id="line2d_32">
      <path d="M 46.772188 183.879376
" style="fill:none;stroke:#000000;stroke-width:1.5;"/>
     </g>
    </g>
    <g id="ytick_8">
     <g id="line2d_33">
      <path clip-path="url(#p0da3813a22)" d="M 46.772188 123.399376
L 403.892188 123.399376
" style="fill:none;stroke:#fafafa;"/>
     </g>
     <g id="line2d_34">
      <path d="M 46.772188 123.399376
" style="fill:none;stroke:#000000;stroke-width:1.5;"/>
     </g>
    </g>
    <g id="ytick_9">
     <g id="line2d_35">
      <path clip-path="url(#p0da3813a22)" d="M 46.772188 62.919376
L 403.892188 62.919376
" style="fill:none;stroke:#fafafa;"/>
     </g>
     <g id="line2d_36">
      <path d="M 46.772188 62.919376
" style="fill:none;stroke:#000000;stroke-width:1.5;"/>
     </g>
    </g>
    <g id="text_12">
     <!-- GSVA pathway ranking -->
     <defs>
      <path d="M 28.609375 0
L 0.78125 72.90625
L 11.078125 72.90625
L 34.1875 11.53125
L 57.328125 72.90625
L 67.578125 72.90625
L 39.796875 0
z
" id="DejaVuSans-86"/>
     </defs>
     <g transform="translate(11.397656 238.098095)rotate(-90)scale(0.15 -0.15)">
      <use xlink:href="#DejaVuSans-71"/>
      <use x="77.490234" xlink:href="#DejaVuSans-83"/>
      <use x="140.966797" xlink:href="#DejaVuSans-86"/>
      <use x="209.28125" xlink:href="#DejaVuSans-65"/>
      <use x="277.689453" xlink:href="#DejaVuSans-32"/>
      <use x="309.476562" xlink:href="#DejaVuSans-112"/>
      <use x="372.953125" xlink:href="#DejaVuSans-97"/>
      <use x="434.232422" xlink:href="#DejaVuSans-116"/>
      <use x="473.441406" xlink:href="#DejaVuSans-104"/>
      <use x="536.820312" xlink:href="#DejaVuSans-119"/>
      <use x="618.607422" xlink:href="#DejaVuSans-97"/>
      <use x="679.886719" xlink:href="#DejaVuSans-121"/>
      <use x="739.066406" xlink:href="#DejaVuSans-32"/>
      <use x="770.853516" xlink:href="#DejaVuSans-114"/>
      <use x="811.966797" xlink:href="#DejaVuSans-97"/>
      <use x="873.246094" xlink:href="#DejaVuSans-110"/>
      <use x="936.625" xlink:href="#DejaVuSans-107"/>
      <use x="994.535156" xlink:href="#DejaVuSans-105"/>
      <use x="1022.318359" xlink:href="#DejaVuSans-110"/>
      <use x="1085.697266" xlink:href="#DejaVuSans-103"/>
     </g>
    </g>
   </g>
   <g id="PathCollection_1">
    <path clip-path="url(#p0da3813a22)" d="M 245.623097 231.937544
C 246.093157 231.937544 246.544028 231.750787 246.876411 231.418404
C 247.208794 231.086021 247.39555 230.63515 247.39555 230.16509
C 247.39555 229.69503 247.208794 229.244159 246.876411 228.911776
C 246.544028 228.579393 246.093157 228.392636 245.623097 228.392636
C 245.153036 228.392636 244.702165 228.579393 244.369782 228.911776
C 244.0374 229.244159 243.850643 229.69503 243.850643 230.16509
C 243.850643 230.63515 244.0374 231.086021 244.369782 231.418404
C 244.702165 231.750787 245.153036 231.937544 245.623097 231.937544
z
" style="stroke:#000000;stroke-width:0.886227;"/>
    <path clip-path="url(#p0da3813a22)" d="M 252.386733 227.000401
C 252.856793 227.000401 253.307664 226.813644 253.640047 226.481261
C 253.97243 226.148879 254.159187 225.698008 254.159187 225.227947
C 254.159187 224.757887 253.97243 224.307016 253.640047 223.974633
C 253.307664 223.64225 252.856793 223.455493 252.386733 223.455493
C 251.916673 223.455493 251.465802 223.64225 251.133419 223.974633
C 250.801036 224.307016 250.614279 224.757887 250.614279 225.227947
C 250.614279 225.698008 250.801036 226.148879 251.133419 226.481261
C 251.465802 226.813644 251.916673 227.000401 252.386733 227.000401
z
" style="stroke:#000000;stroke-width:0.886227;"/>
    <path clip-path="url(#p0da3813a22)" d="M 387.65946 34.45183
C 388.12952 34.45183 388.580392 34.265073 388.912774 33.93269
C 389.245157 33.600307 389.431914 33.149436 389.431914 32.679376
C 389.431914 32.209316 389.245157 31.758444 388.912774 31.426062
C 388.580392 31.093679 388.12952 30.906922 387.65946 30.906922
C 387.1894 30.906922 386.738529 31.093679 386.406146 31.426062
C 386.073763 31.758444 385.887006 32.209316 385.887006 32.679376
C 385.887006 33.149436 386.073763 33.600307 386.406146 33.93269
C 386.738529 34.265073 387.1894 34.45183 387.65946 34.45183
z
" style="stroke:#000000;stroke-width:0.886227;"/>
    <path clip-path="url(#p0da3813a22)" d="M 387.65946 39.388973
C 388.12952 39.388973 388.580392 39.202216 388.912774 38.869833
C 389.245157 38.53745 389.431914 38.086579 389.431914 37.616519
C 389.431914 37.146458 389.245157 36.695587 388.912774 36.363205
C 388.580392 36.030822 388.12952 35.844065 387.65946 35.844065
C 387.1894 35.844065 386.738529 36.030822 386.406146 36.363205
C 386.073763 36.695587 385.887006 37.146458 385.887006 37.616519
C 385.887006 38.086579 386.073763 38.53745 386.406146 38.869833
C 386.738529 39.202216 387.1894 39.388973 387.65946 39.388973
z
" style="stroke:#000000;stroke-width:0.886227;"/>
    <path clip-path="url(#p0da3813a22)" d="M 367.368551 93.697544
C 367.838611 93.697544 368.289482 93.510787 368.621865 93.178404
C 368.954248 92.846021 369.141005 92.39515 369.141005 91.92509
C 369.141005 91.45503 368.954248 91.004159 368.621865 90.671776
C 368.289482 90.339393 367.838611 90.152636 367.368551 90.152636
C 366.898491 90.152636 366.44762 90.339393 366.115237 90.671776
C 365.782854 91.004159 365.596097 91.45503 365.596097 91.92509
C 365.596097 92.39515 365.782854 92.846021 366.115237 93.178404
C 366.44762 93.510787 366.898491 93.697544 367.368551 93.697544
z
" style="stroke:#000000;stroke-width:0.886227;"/>
    <path clip-path="url(#p0da3813a22)" d="M 347.077642 44.326115
C 347.547702 44.326115 347.998573 44.139358 348.330956 43.806976
C 348.663339 43.474593 348.850096 43.023722 348.850096 42.553662
C 348.850096 42.083601 348.663339 41.63273 348.330956 41.300347
C 347.998573 40.967965 347.547702 40.781208 347.077642 40.781208
C 346.607582 40.781208 346.156711 40.967965 345.824328 41.300347
C 345.491945 41.63273 345.305188 42.083601 345.305188 42.553662
C 345.305188 43.023722 345.491945 43.474593 345.824328 43.806976
C 346.156711 44.139358 346.607582 44.326115 347.077642 44.326115
z
" style="stroke:#000000;stroke-width:0.886227;"/>
    <path clip-path="url(#p0da3813a22)" d="M 333.550369 98.634687
C 334.02043 98.634687 334.471301 98.44793 334.803683 98.115547
C 335.136066 97.783164 335.322823 97.332293 335.322823 96.862233
C 335.322823 96.392173 335.136066 95.941302 334.803683 95.608919
C 334.471301 95.276536 334.02043 95.089779 333.550369 95.089779
C 333.080309 95.089779 332.629438 95.276536 332.297055 95.608919
C 331.964672 95.941302 331.777915 96.392173 331.777915 96.862233
C 331.777915 97.332293 331.964672 97.783164 332.297055 98.115547
C 332.629438 98.44793 333.080309 98.634687 333.550369 98.634687
z
" style="stroke:#000000;stroke-width:0.886227;"/>
    <path clip-path="url(#p0da3813a22)" d="M 208.423097 69.01183
C 208.893157 69.01183 209.344028 68.825073 209.676411 68.49269
C 210.008794 68.160307 210.19555 67.709436 210.19555 67.239376
C 210.19555 66.769316 210.008794 66.318444 209.676411 65.986062
C 209.344028 65.653679 208.893157 65.466922 208.423097 65.466922
C 207.953036 65.466922 207.502165 65.653679 207.169782 65.986062
C 206.8374 66.318444 206.650643 66.769316 206.650643 67.239376
C 206.650643 67.709436 206.8374 68.160307 207.169782 68.49269
C 207.502165 68.825073 207.953036 69.01183 208.423097 69.01183
z
" style="stroke:#000000;stroke-width:0.886227;"/>
    <path clip-path="url(#p0da3813a22)" d="M 123.877642 241.81183
C 124.347702 241.81183 124.798573 241.625073 125.130956 241.29269
C 125.463339 240.960307 125.650096 240.509436 125.650096 240.039376
C 125.650096 239.569316 125.463339 239.118444 125.130956 238.786062
C 124.798573 238.453679 124.347702 238.266922 123.877642 238.266922
C 123.407582 238.266922 122.956711 238.453679 122.624328 238.786062
C 122.291945 239.118444 122.105188 239.569316 122.105188 240.039376
C 122.105188 240.509436 122.291945 240.960307 122.624328 241.29269
C 122.956711 241.625073 123.407582 241.81183 123.877642 241.81183
z
" style="stroke:#000000;stroke-width:0.886227;"/>
    <path clip-path="url(#p0da3813a22)" d="M 367.368551 78.886115
C 367.838611 78.886115 368.289482 78.699358 368.621865 78.366976
C 368.954248 78.034593 369.141005 77.583722 369.141005 77.113662
C 369.141005 76.643601 368.954248 76.19273 368.621865 75.860347
C 368.289482 75.527965 367.838611 75.341208 367.368551 75.341208
C 366.898491 75.341208 366.44762 75.527965 366.115237 75.860347
C 365.782854 76.19273 365.596097 76.643601 365.596097 77.113662
C 365.596097 77.583722 365.782854 78.034593 366.115237 78.366976
C 366.44762 78.699358 366.898491 78.886115 367.368551 78.886115
z
" style="stroke:#000000;stroke-width:0.886227;"/>
    <path clip-path="url(#p0da3813a22)" d="M 387.65946 49.263258
C 388.12952 49.263258 388.580392 49.076501 388.912774 48.744119
C 389.245157 48.411736 389.431914 47.960865 389.431914 47.490804
C 389.431914 47.020744 389.245157 46.569873 388.912774 46.23749
C 388.580392 45.905107 388.12952 45.718351 387.65946 45.718351
C 387.1894 45.718351 386.738529 45.905107 386.406146 46.23749
C 386.073763 46.569873 385.887006 47.020744 385.887006 47.490804
C 385.887006 47.960865 386.073763 48.411736 386.406146 48.744119
C 386.738529 49.076501 387.1894 49.263258 387.65946 49.263258
z
" style="stroke:#000000;stroke-width:0.886227;"/>
    <path clip-path="url(#p0da3813a22)" d="M 286.204915 88.760401
C 286.674975 88.760401 287.125846 88.573644 287.458229 88.241261
C 287.790612 87.908879 287.977369 87.458008 287.977369 86.987947
C 287.977369 86.517887 287.790612 86.067016 287.458229 85.734633
C 287.125846 85.40225 286.674975 85.215493 286.204915 85.215493
C 285.734855 85.215493 285.283983 85.40225 284.951601 85.734633
C 284.619218 86.067016 284.432461 86.517887 284.432461 86.987947
C 284.432461 87.458008 284.619218 87.908879 284.951601 88.241261
C 285.283983 88.573644 285.734855 88.760401 286.204915 88.760401
z
" style="stroke:#000000;stroke-width:0.886227;"/>
    <path clip-path="url(#p0da3813a22)" d="M 292.968551 83.823258
C 293.438611 83.823258 293.889482 83.636501 294.221865 83.304119
C 294.554248 82.971736 294.741005 82.520865 294.741005 82.050804
C 294.741005 81.580744 294.554248 81.129873 294.221865 80.79749
C 293.889482 80.465107 293.438611 80.278351 292.968551 80.278351
C 292.498491 80.278351 292.04762 80.465107 291.715237 80.79749
C 291.382854 81.129873 291.196097 81.580744 291.196097 82.050804
C 291.196097 82.520865 291.382854 82.971736 291.715237 83.304119
C 292.04762 83.636501 292.498491 83.823258 292.968551 83.823258
z
" style="stroke:#000000;stroke-width:0.886227;"/>
    <path clip-path="url(#p0da3813a22)" d="M 198.277642 256.623258
C 198.747702 256.623258 199.198573 256.436501 199.530956 256.104119
C 199.863339 255.771736 200.050096 255.320865 200.050096 254.850804
C 200.050096 254.380744 199.863339 253.929873 199.530956 253.59749
C 199.198573 253.265107 198.747702 253.078351 198.277642 253.078351
C 197.807582 253.078351 197.356711 253.265107 197.024328 253.59749
C 196.691945 253.929873 196.505188 254.380744 196.505188 254.850804
C 196.505188 255.320865 196.691945 255.771736 197.024328 256.104119
C 197.356711 256.436501 197.807582 256.623258 198.277642 256.623258
z
" style="stroke:#000000;stroke-width:0.886227;"/>
    <path clip-path="url(#p0da3813a22)" d="M 265.914006 202.314687
C 266.384066 202.314687 266.834937 202.12793 267.16732 201.795547
C 267.499703 201.463164 267.68646 201.012293 267.68646 200.542233
C 267.68646 200.072173 267.499703 199.621302 267.16732 199.288919
C 266.834937 198.956536 266.384066 198.769779 265.914006 198.769779
C 265.443945 198.769779 264.993074 198.956536 264.660692 199.288919
C 264.328309 199.621302 264.141552 200.072173 264.141552 200.542233
C 264.141552 201.012293 264.328309 201.463164 264.660692 201.795547
C 264.993074 202.12793 265.443945 202.314687 265.914006 202.314687
z
" style="stroke:#000000;stroke-width:0.886227;"/>
    <path clip-path="url(#p0da3813a22)" d="M 367.368551 59.137544
C 367.838611 59.137544 368.289482 58.950787 368.621865 58.618404
C 368.954248 58.286021 369.141005 57.83515 369.141005 57.36509
C 369.141005 56.89503 368.954248 56.444159 368.621865 56.111776
C 368.289482 55.779393 367.838611 55.592636 367.368551 55.592636
C 366.898491 55.592636 366.44762 55.779393 366.115237 56.111776
C 365.782854 56.444159 365.596097 56.89503 365.596097 57.36509
C 365.596097 57.83515 365.782854 58.286021 366.115237 58.618404
C 366.44762 58.950787 366.898491 59.137544 367.368551 59.137544
z
" style="stroke:#000000;stroke-width:0.886227;"/>
    <path clip-path="url(#p0da3813a22)" d="M 279.441278 73.948973
C 279.911339 73.948973 280.36221 73.762216 280.694593 73.429833
C 281.026975 73.09745 281.213732 72.646579 281.213732 72.176519
C 281.213732 71.706458 281.026975 71.255587 280.694593 70.923205
C 280.36221 70.590822 279.911339 70.404065 279.441278 70.404065
C 278.971218 70.404065 278.520347 70.590822 278.187964 70.923205
C 277.855581 71.255587 277.668825 71.706458 277.668825 72.176519
C 277.668825 72.646579 277.855581 73.09745 278.187964 73.429833
C 278.520347 73.762216 278.971218 73.948973 279.441278 73.948973
z
" style="stroke:#000000;stroke-width:0.886227;"/>
    <path clip-path="url(#p0da3813a22)" d="M 299.732188 113.446115
C 300.202248 113.446115 300.653119 113.259358 300.985502 112.926976
C 301.317884 112.594593 301.504641 112.143722 301.504641 111.673662
C 301.504641 111.203601 301.317884 110.75273 300.985502 110.420347
C 300.653119 110.087965 300.202248 109.901208 299.732188 109.901208
C 299.262127 109.901208 298.811256 110.087965 298.478873 110.420347
C 298.146491 110.75273 297.959734 111.203601 297.959734 111.673662
C 297.959734 112.143722 298.146491 112.594593 298.478873 112.926976
C 298.811256 113.259358 299.262127 113.446115 299.732188 113.446115
z
" style="stroke:#000000;stroke-width:0.886227;"/>
    <path clip-path="url(#p0da3813a22)" d="M 259.150369 152.943258
C 259.62043 152.943258 260.071301 152.756501 260.403683 152.424119
C 260.736066 152.091736 260.922823 151.640865 260.922823 151.170804
C 260.922823 150.700744 260.736066 150.249873 260.403683 149.91749
C 260.071301 149.585107 259.62043 149.398351 259.150369 149.398351
C 258.680309 149.398351 258.229438 149.585107 257.897055 149.91749
C 257.564672 150.249873 257.377915 150.700744 257.377915 151.170804
C 257.377915 151.640865 257.564672 152.091736 257.897055 152.424119
C 258.229438 152.756501 258.680309 152.943258 259.150369 152.943258
z
" style="stroke:#000000;stroke-width:0.886227;"/>
    <path clip-path="url(#p0da3813a22)" d="M 144.168551 182.566115
C 144.638611 182.566115 145.089482 182.379358 145.421865 182.046976
C 145.754248 181.714593 145.941005 181.263722 145.941005 180.793662
C 145.941005 180.323601 145.754248 179.87273 145.421865 179.540347
C 145.089482 179.207965 144.638611 179.021208 144.168551 179.021208
C 143.698491 179.021208 143.24762 179.207965 142.915237 179.540347
C 142.582854 179.87273 142.396097 180.323601 142.396097 180.793662
C 142.396097 181.263722 142.582854 181.714593 142.915237 182.046976
C 143.24762 182.379358 143.698491 182.566115 144.168551 182.566115
z
" style="stroke:#000000;stroke-width:0.886227;"/>
    <path clip-path="url(#p0da3813a22)" d="M 232.095824 207.25183
C 232.565884 207.25183 233.016755 207.065073 233.349138 206.73269
C 233.681521 206.400307 233.868278 205.949436 233.868278 205.479376
C 233.868278 205.009316 233.681521 204.558444 233.349138 204.226062
C 233.016755 203.893679 232.565884 203.706922 232.095824 203.706922
C 231.625764 203.706922 231.174893 203.893679 230.84251 204.226062
C 230.510127 204.558444 230.32337 205.009316 230.32337 205.479376
C 230.32337 205.949436 230.510127 206.400307 230.84251 206.73269
C 231.174893 207.065073 231.625764 207.25183 232.095824 207.25183
z
" style="stroke:#000000;stroke-width:0.886227;"/>
    <path clip-path="url(#p0da3813a22)" d="M 340.314006 54.200401
C 340.784066 54.200401 341.234937 54.013644 341.56732 53.681261
C 341.899703 53.348879 342.08646 52.898008 342.08646 52.427947
C 342.08646 51.957887 341.899703 51.507016 341.56732 51.174633
C 341.234937 50.84225 340.784066 50.655493 340.314006 50.655493
C 339.843945 50.655493 339.393074 50.84225 339.060692 51.174633
C 338.728309 51.507016 338.541552 51.957887 338.541552 52.427947
C 338.541552 52.898008 338.728309 53.348879 339.060692 53.681261
C 339.393074 54.013644 339.843945 54.200401 340.314006 54.200401
z
" style="stroke:#000000;stroke-width:0.886227;"/>
    <path clip-path="url(#p0da3813a22)" d="M 306.495824 162.817544
C 306.965884 162.817544 307.416755 162.630787 307.749138 162.298404
C 308.081521 161.966021 308.268278 161.51515 308.268278 161.04509
C 308.268278 160.57503 308.081521 160.124159 307.749138 159.791776
C 307.416755 159.459393 306.965884 159.272636 306.495824 159.272636
C 306.025764 159.272636 305.574893 159.459393 305.24251 159.791776
C 304.910127 160.124159 304.72337 160.57503 304.72337 161.04509
C 304.72337 161.51515 304.910127 161.966021 305.24251 162.298404
C 305.574893 162.630787 306.025764 162.817544 306.495824 162.817544
z
" style="stroke:#000000;stroke-width:0.886227;"/>
    <path clip-path="url(#p0da3813a22)" d="M 177.986733 172.69183
C 178.456793 172.69183 178.907664 172.505073 179.240047 172.17269
C 179.57243 171.840307 179.759187 171.389436 179.759187 170.919376
C 179.759187 170.449316 179.57243 169.998444 179.240047 169.666062
C 178.907664 169.333679 178.456793 169.146922 177.986733 169.146922
C 177.516673 169.146922 177.065802 169.333679 176.733419 169.666062
C 176.401036 169.998444 176.214279 170.449316 176.214279 170.919376
C 176.214279 171.389436 176.401036 171.840307 176.733419 172.17269
C 177.065802 172.505073 177.516673 172.69183 177.986733 172.69183
z
" style="stroke:#000000;stroke-width:0.886227;"/>
    <path clip-path="url(#p0da3813a22)" d="M 320.023097 118.383258
C 320.493157 118.383258 320.944028 118.196501 321.276411 117.864119
C 321.608794 117.531736 321.79555 117.080865 321.79555 116.610804
C 321.79555 116.140744 321.608794 115.689873 321.276411 115.35749
C 320.944028 115.025107 320.493157 114.838351 320.023097 114.838351
C 319.553036 114.838351 319.102165 115.025107 318.769782 115.35749
C 318.4374 115.689873 318.250643 116.140744 318.250643 116.610804
C 318.250643 117.080865 318.4374 117.531736 318.769782 117.864119
C 319.102165 118.196501 319.553036 118.383258 320.023097 118.383258
z
" style="stroke:#000000;stroke-width:0.886227;"/>
    <path clip-path="url(#p0da3813a22)" d="M 69.768551 167.754687
C 70.238611 167.754687 70.689482 167.56793 71.021865 167.235547
C 71.354248 166.903164 71.541005 166.452293 71.541005 165.982233
C 71.541005 165.512173 71.354248 165.061302 71.021865 164.728919
C 70.689482 164.396536 70.238611 164.209779 69.768551 164.209779
C 69.298491 164.209779 68.84762 164.396536 68.515237 164.728919
C 68.182854 165.061302 67.996097 165.512173 67.996097 165.982233
C 67.996097 166.452293 68.182854 166.903164 68.515237 167.235547
C 68.84762 167.56793 69.298491 167.754687 69.768551 167.754687
z
" style="stroke:#000000;stroke-width:0.886227;"/>
    <path clip-path="url(#p0da3813a22)" d="M 225.332188 276.37183
C 225.802248 276.37183 226.253119 276.185073 226.585502 275.85269
C 226.917884 275.520307 227.104641 275.069436 227.104641 274.599376
C 227.104641 274.129316 226.917884 273.678444 226.585502 273.346062
C 226.253119 273.013679 225.802248 272.826922 225.332188 272.826922
C 224.862127 272.826922 224.411256 273.013679 224.078873 273.346062
C 223.746491 273.678444 223.559734 274.129316 223.559734 274.599376
C 223.559734 275.069436 223.746491 275.520307 224.078873 275.85269
C 224.411256 276.185073 224.862127 276.37183 225.332188 276.37183
z
" style="stroke:#000000;stroke-width:0.886227;"/>
    <path clip-path="url(#p0da3813a22)" d="M 150.932188 138.13183
C 151.402248 138.13183 151.853119 137.945073 152.185502 137.61269
C 152.517884 137.280307 152.704641 136.829436 152.704641 136.359376
C 152.704641 135.889316 152.517884 135.438444 152.185502 135.106062
C 151.853119 134.773679 151.402248 134.586922 150.932188 134.586922
C 150.462127 134.586922 150.011256 134.773679 149.678873 135.106062
C 149.346491 135.438444 149.159734 135.889316 149.159734 136.359376
C 149.159734 136.829436 149.346491 137.280307 149.678873 137.61269
C 150.011256 137.945073 150.462127 138.13183 150.932188 138.13183
z
" style="stroke:#000000;stroke-width:0.886227;"/>
    <path clip-path="url(#p0da3813a22)" d="M 157.695824 187.503258
C 158.165884 187.503258 158.616755 187.316501 158.949138 186.984119
C 159.281521 186.651736 159.468278 186.200865 159.468278 185.730804
C 159.468278 185.260744 159.281521 184.809873 158.949138 184.47749
C 158.616755 184.145107 158.165884 183.958351 157.695824 183.958351
C 157.225764 183.958351 156.774893 184.145107 156.44251 184.47749
C 156.110127 184.809873 155.92337 185.260744 155.92337 185.730804
C 155.92337 186.200865 156.110127 186.651736 156.44251 186.984119
C 156.774893 187.316501 157.225764 187.503258 157.695824 187.503258
z
" style="stroke:#000000;stroke-width:0.886227;"/>
    <path clip-path="url(#p0da3813a22)" d="M 164.45946 222.063258
C 164.92952 222.063258 165.380392 221.876501 165.712774 221.544119
C 166.045157 221.211736 166.231914 220.760865 166.231914 220.290804
C 166.231914 219.820744 166.045157 219.369873 165.712774 219.03749
C 165.380392 218.705107 164.92952 218.518351 164.45946 218.518351
C 163.9894 218.518351 163.538529 218.705107 163.206146 219.03749
C 162.873763 219.369873 162.687006 219.820744 162.687006 220.290804
C 162.687006 220.760865 162.873763 221.211736 163.206146 221.544119
C 163.538529 221.876501 163.9894 222.063258 164.45946 222.063258
z
" style="stroke:#000000;stroke-width:0.886227;"/>
    <path clip-path="url(#p0da3813a22)" d="M 326.786733 128.257544
C 327.256793 128.257544 327.707664 128.070787 328.040047 127.738404
C 328.37243 127.406021 328.559187 126.95515 328.559187 126.48509
C 328.559187 126.01503 328.37243 125.564159 328.040047 125.231776
C 327.707664 124.899393 327.256793 124.712636 326.786733 124.712636
C 326.316673 124.712636 325.865802 124.899393 325.533419 125.231776
C 325.201036 125.564159 325.014279 126.01503 325.014279 126.48509
C 325.014279 126.95515 325.201036 127.406021 325.533419 127.738404
C 325.865802 128.070787 326.316673 128.257544 326.786733 128.257544
z
" style="stroke:#000000;stroke-width:0.886227;"/>
    <path clip-path="url(#p0da3813a22)" d="M 171.223097 133.194687
C 171.693157 133.194687 172.144028 133.00793 172.476411 132.675547
C 172.808794 132.343164 172.99555 131.892293 172.99555 131.422233
C 172.99555 130.952173 172.808794 130.501302 172.476411 130.168919
C 172.144028 129.836536 171.693157 129.649779 171.223097 129.649779
C 170.753036 129.649779 170.302165 129.836536 169.969782 130.168919
C 169.6374 130.501302 169.450643 130.952173 169.450643 131.422233
C 169.450643 131.892293 169.6374 132.343164 169.969782 132.675547
C 170.302165 133.00793 170.753036 133.194687 171.223097 133.194687
z
" style="stroke:#000000;stroke-width:0.886227;"/>
    <path clip-path="url(#p0da3813a22)" d="M 353.841278 64.074687
C 354.311339 64.074687 354.76221 63.88793 355.094593 63.555547
C 355.426975 63.223164 355.613732 62.772293 355.613732 62.302233
C 355.613732 61.832173 355.426975 61.381302 355.094593 61.048919
C 354.76221 60.716536 354.311339 60.529779 353.841278 60.529779
C 353.371218 60.529779 352.920347 60.716536 352.587964 61.048919
C 352.255581 61.381302 352.068825 61.832173 352.068825 62.302233
C 352.068825 62.772293 352.255581 63.223164 352.587964 63.555547
C 352.920347 63.88793 353.371218 64.074687 353.841278 64.074687
z
" style="stroke:#000000;stroke-width:0.886227;"/>
    <path clip-path="url(#p0da3813a22)" d="M 272.677642 271.434687
C 273.147702 271.434687 273.598573 271.24793 273.930956 270.915547
C 274.263339 270.583164 274.450096 270.132293 274.450096 269.662233
C 274.450096 269.192173 274.263339 268.741302 273.930956 268.408919
C 273.598573 268.076536 273.147702 267.889779 272.677642 267.889779
C 272.207582 267.889779 271.756711 268.076536 271.424328 268.408919
C 271.091945 268.741302 270.905188 269.192173 270.905188 269.662233
C 270.905188 270.132293 271.091945 270.583164 271.424328 270.915547
C 271.756711 271.24793 272.207582 271.434687 272.677642 271.434687
z
" style="stroke:#000000;stroke-width:0.886227;"/>
    <path clip-path="url(#p0da3813a22)" d="M 313.25946 157.880401
C 313.72952 157.880401 314.180392 157.693644 314.512774 157.361261
C 314.845157 157.028879 315.031914 156.578008 315.031914 156.107947
C 315.031914 155.637887 314.845157 155.187016 314.512774 154.854633
C 314.180392 154.52225 313.72952 154.335493 313.25946 154.335493
C 312.7894 154.335493 312.338529 154.52225 312.006146 154.854633
C 311.673763 155.187016 311.487006 155.637887 311.487006 156.107947
C 311.487006 156.578008 311.673763 157.028879 312.006146 157.361261
C 312.338529 157.693644 312.7894 157.880401 313.25946 157.880401
z
" style="stroke:#000000;stroke-width:0.886227;"/>
    <path clip-path="url(#p0da3813a22)" d="M 76.532188 246.748973
C 77.002248 246.748973 77.453119 246.562216 77.785502 246.229833
C 78.117884 245.89745 78.304641 245.446579 78.304641 244.976519
C 78.304641 244.506458 78.117884 244.055587 77.785502 243.723205
C 77.453119 243.390822 77.002248 243.204065 76.532188 243.204065
C 76.062127 243.204065 75.611256 243.390822 75.278873 243.723205
C 74.946491 244.055587 74.759734 244.506458 74.759734 244.976519
C 74.759734 245.446579 74.946491 245.89745 75.278873 246.229833
C 75.611256 246.562216 76.062127 246.748973 76.532188 246.748973
z
" style="stroke:#000000;stroke-width:0.886227;"/>
    <path clip-path="url(#p0da3813a22)" d="M 63.004915 266.497544
C 63.474975 266.497544 63.925846 266.310787 64.258229 265.978404
C 64.590612 265.646021 64.777369 265.19515 64.777369 264.72509
C 64.777369 264.25503 64.590612 263.804159 64.258229 263.471776
C 63.925846 263.139393 63.474975 262.952636 63.004915 262.952636
C 62.534855 262.952636 62.083983 263.139393 61.751601 263.471776
C 61.419218 263.804159 61.232461 264.25503 61.232461 264.72509
C 61.232461 265.19515 61.419218 265.646021 61.751601 265.978404
C 62.083983 266.310787 62.534855 266.497544 63.004915 266.497544
z
" style="stroke:#000000;stroke-width:0.886227;"/>
    <path clip-path="url(#p0da3813a22)" d="M 191.514006 192.440401
C 191.984066 192.440401 192.434937 192.253644 192.76732 191.921261
C 193.099703 191.588879 193.28646 191.138008 193.28646 190.667947
C 193.28646 190.197887 193.099703 189.747016 192.76732 189.414633
C 192.434937 189.08225 191.984066 188.895493 191.514006 188.895493
C 191.043945 188.895493 190.593074 189.08225 190.260692 189.414633
C 189.928309 189.747016 189.741552 190.197887 189.741552 190.667947
C 189.741552 191.138008 189.928309 191.588879 190.260692 191.921261
C 190.593074 192.253644 191.043945 192.440401 191.514006 192.440401
z
" style="stroke:#000000;stroke-width:0.886227;"/>
    <path clip-path="url(#p0da3813a22)" d="M 137.404915 236.874687
C 137.874975 236.874687 138.325846 236.68793 138.658229 236.355547
C 138.990612 236.023164 139.177369 235.572293 139.177369 235.102233
C 139.177369 234.632173 138.990612 234.181302 138.658229 233.848919
C 138.325846 233.516536 137.874975 233.329779 137.404915 233.329779
C 136.934855 233.329779 136.483983 233.516536 136.151601 233.848919
C 135.819218 234.181302 135.632461 234.632173 135.632461 235.102233
C 135.632461 235.572293 135.819218 236.023164 136.151601 236.355547
C 136.483983 236.68793 136.934855 236.874687 137.404915 236.874687
z
" style="stroke:#000000;stroke-width:0.886227;"/>
    <path clip-path="url(#p0da3813a22)" d="M 218.568551 143.068973
C 219.038611 143.068973 219.489482 142.882216 219.821865 142.549833
C 220.154248 142.21745 220.341005 141.766579 220.341005 141.296519
C 220.341005 140.826458 220.154248 140.375587 219.821865 140.043205
C 219.489482 139.710822 219.038611 139.524065 218.568551 139.524065
C 218.098491 139.524065 217.64762 139.710822 217.315237 140.043205
C 216.982854 140.375587 216.796097 140.826458 216.796097 141.296519
C 216.796097 141.766579 216.982854 142.21745 217.315237 142.549833
C 217.64762 142.882216 218.098491 143.068973 218.568551 143.068973
z
" style="stroke:#000000;stroke-width:0.886227;"/>
    <path clip-path="url(#p0da3813a22)" d="M 83.295824 148.006115
C 83.765884 148.006115 84.216755 147.819358 84.549138 147.486976
C 84.881521 147.154593 85.068278 146.703722 85.068278 146.233662
C 85.068278 145.763601 84.881521 145.31273 84.549138 144.980347
C 84.216755 144.647965 83.765884 144.461208 83.295824 144.461208
C 82.825764 144.461208 82.374893 144.647965 82.04251 144.980347
C 81.710127 145.31273 81.52337 145.763601 81.52337 146.233662
C 81.52337 146.703722 81.710127 147.154593 82.04251 147.486976
C 82.374893 147.819358 82.825764 148.006115 83.295824 148.006115
z
" style="stroke:#000000;stroke-width:0.886227;"/>
    <path clip-path="url(#p0da3813a22)" d="M 208.423097 103.57183
C 208.893157 103.57183 209.344028 103.385073 209.676411 103.05269
C 210.008794 102.720307 210.19555 102.269436 210.19555 101.799376
C 210.19555 101.329316 210.008794 100.878444 209.676411 100.546062
C 209.344028 100.213679 208.893157 100.026922 208.423097 100.026922
C 207.953036 100.026922 207.502165 100.213679 207.169782 100.546062
C 206.8374 100.878444 206.650643 101.329316 206.650643 101.799376
C 206.650643 102.269436 206.8374 102.720307 207.169782 103.05269
C 207.502165 103.385073 207.953036 103.57183 208.423097 103.57183
z
" style="stroke:#000000;stroke-width:0.886227;"/>
    <path clip-path="url(#p0da3813a22)" d="M 110.350369 177.628973
C 110.82043 177.628973 111.271301 177.442216 111.603683 177.109833
C 111.936066 176.77745 112.122823 176.326579 112.122823 175.856519
C 112.122823 175.386458 111.936066 174.935587 111.603683 174.603205
C 111.271301 174.270822 110.82043 174.084065 110.350369 174.084065
C 109.880309 174.084065 109.429438 174.270822 109.097055 174.603205
C 108.764672 174.935587 108.577915 175.386458 108.577915 175.856519
C 108.577915 176.326579 108.764672 176.77745 109.097055 177.109833
C 109.429438 177.442216 109.880309 177.628973 110.350369 177.628973
z
" style="stroke:#000000;stroke-width:0.886227;"/>
    <path clip-path="url(#p0da3813a22)" d="M 103.586733 108.508973
C 104.056793 108.508973 104.507664 108.322216 104.840047 107.989833
C 105.17243 107.65745 105.359187 107.206579 105.359187 106.736519
C 105.359187 106.266458 105.17243 105.815587 104.840047 105.483205
C 104.507664 105.150822 104.056793 104.964065 103.586733 104.964065
C 103.116673 104.964065 102.665802 105.150822 102.333419 105.483205
C 102.001036 105.815587 101.814279 106.266458 101.814279 106.736519
C 101.814279 107.206579 102.001036 107.65745 102.333419 107.989833
C 102.665802 108.322216 103.116673 108.508973 103.586733 108.508973
z
" style="stroke:#000000;stroke-width:0.886227;"/>
    <path clip-path="url(#p0da3813a22)" d="M 184.750369 197.377544
C 185.22043 197.377544 185.671301 197.190787 186.003683 196.858404
C 186.336066 196.526021 186.522823 196.07515 186.522823 195.60509
C 186.522823 195.13503 186.336066 194.684159 186.003683 194.351776
C 185.671301 194.019393 185.22043 193.832636 184.750369 193.832636
C 184.280309 193.832636 183.829438 194.019393 183.497055 194.351776
C 183.164672 194.684159 182.977915 195.13503 182.977915 195.60509
C 182.977915 196.07515 183.164672 196.526021 183.497055 196.858404
C 183.829438 197.190787 184.280309 197.377544 184.750369 197.377544
z
" style="stroke:#000000;stroke-width:0.886227;"/>
    <path clip-path="url(#p0da3813a22)" d="M 130.641278 123.320401
C 131.111339 123.320401 131.56221 123.133644 131.894593 122.801261
C 132.226975 122.468879 132.413732 122.018008 132.413732 121.547947
C 132.413732 121.077887 132.226975 120.627016 131.894593 120.294633
C 131.56221 119.96225 131.111339 119.775493 130.641278 119.775493
C 130.171218 119.775493 129.720347 119.96225 129.387964 120.294633
C 129.055581 120.627016 128.868825 121.077887 128.868825 121.547947
C 128.868825 122.018008 129.055581 122.468879 129.387964 122.801261
C 129.720347 123.133644 130.171218 123.320401 130.641278 123.320401
z
" style="stroke:#000000;stroke-width:0.886227;"/>
    <path clip-path="url(#p0da3813a22)" d="M 117.114006 251.686115
C 117.584066 251.686115 118.034937 251.499358 118.36732 251.166976
C 118.699703 250.834593 118.88646 250.383722 118.88646 249.913662
C 118.88646 249.443601 118.699703 248.99273 118.36732 248.660347
C 118.034937 248.327965 117.584066 248.141208 117.114006 248.141208
C 116.643945 248.141208 116.193074 248.327965 115.860692 248.660347
C 115.528309 248.99273 115.341552 249.443601 115.341552 249.913662
C 115.341552 250.383722 115.528309 250.834593 115.860692 251.166976
C 116.193074 251.499358 116.643945 251.686115 117.114006 251.686115
z
" style="stroke:#000000;stroke-width:0.886227;"/>
    <path clip-path="url(#p0da3813a22)" d="M 238.85946 261.560401
C 239.32952 261.560401 239.780392 261.373644 240.112774 261.041261
C 240.445157 260.708879 240.631914 260.258008 240.631914 259.787947
C 240.631914 259.317887 240.445157 258.867016 240.112774 258.534633
C 239.780392 258.20225 239.32952 258.015493 238.85946 258.015493
C 238.3894 258.015493 237.938529 258.20225 237.606146 258.534633
C 237.273763 258.867016 237.087006 259.317887 237.087006 259.787947
C 237.087006 260.258008 237.273763 260.708879 237.606146 261.041261
C 237.938529 261.373644 238.3894 261.560401 238.85946 261.560401
z
" style="stroke:#000000;stroke-width:0.886227;"/>
    <path clip-path="url(#p0da3813a22)" d="M 90.05946 217.126115
C 90.52952 217.126115 90.980392 216.939358 91.312774 216.606976
C 91.645157 216.274593 91.831914 215.823722 91.831914 215.353662
C 91.831914 214.883601 91.645157 214.43273 91.312774 214.100347
C 90.980392 213.767965 90.52952 213.581208 90.05946 213.581208
C 89.5894 213.581208 89.138529 213.767965 88.806146 214.100347
C 88.473763 214.43273 88.287006 214.883601 88.287006 215.353662
C 88.287006 215.823722 88.473763 216.274593 88.806146 216.606976
C 89.138529 216.939358 89.5894 217.126115 90.05946 217.126115
z
" style="stroke:#000000;stroke-width:0.886227;"/>
    <path clip-path="url(#p0da3813a22)" d="M 96.823097 212.188973
C 97.293157 212.188973 97.744028 212.002216 98.076411 211.669833
C 98.408794 211.33745 98.59555 210.886579 98.59555 210.416519
C 98.59555 209.946458 98.408794 209.495587 98.076411 209.163205
C 97.744028 208.830822 97.293157 208.644065 96.823097 208.644065
C 96.353036 208.644065 95.902165 208.830822 95.569782 209.163205
C 95.2374 209.495587 95.050643 209.946458 95.050643 210.416519
C 95.050643 210.886579 95.2374 211.33745 95.569782 211.669833
C 95.902165 212.002216 96.353036 212.188973 96.823097 212.188973
z
" style="stroke:#000000;stroke-width:0.886227;"/>
   </g>
  </g>
  <g id="text_13">
   <!-- GSEA vs GSVA pathway ranking -->
   <defs>
    <path d="M 2.984375 54.6875
L 12.5 54.6875
L 29.59375 8.796875
L 46.6875 54.6875
L 56.203125 54.6875
L 35.6875 0
L 23.484375 0
z
" id="DejaVuSans-118"/>
    <path d="M 44.28125 53.078125
L 44.28125 44.578125
Q 40.484375 46.53125 36.375 47.5
Q 32.28125 48.484375 27.875 48.484375
Q 21.1875 48.484375 17.84375 46.4375
Q 14.5 44.390625 14.5 40.28125
Q 14.5 37.15625 16.890625 35.375
Q 19.28125 33.59375 26.515625 31.984375
L 29.59375 31.296875
Q 39.15625 29.25 43.1875 25.515625
Q 47.21875 21.78125 47.21875 15.09375
Q 47.21875 7.46875 41.1875 3.015625
Q 35.15625 -1.421875 24.609375 -1.421875
Q 20.21875 -1.421875 15.453125 -0.5625
Q 10.6875 0.296875 5.421875 2
L 5.421875 11.28125
Q 10.40625 8.6875 15.234375 7.390625
Q 20.0625 6.109375 24.8125 6.109375
Q 31.15625 6.109375 34.5625 8.28125
Q 37.984375 10.453125 37.984375 14.40625
Q 37.984375 18.0625 35.515625 20.015625
Q 33.0625 21.96875 24.703125 23.78125
L 21.578125 24.515625
Q 13.234375 26.265625 9.515625 29.90625
Q 5.8125 33.546875 5.8125 39.890625
Q 5.8125 47.609375 11.28125 51.796875
Q 16.75 56 26.8125 56
Q 31.78125 56 36.171875 55.265625
Q 40.578125 54.546875 44.28125 53.078125
z
" id="DejaVuSans-115"/>
   </defs>
   <g transform="translate(99.83 11.397656)scale(0.15 -0.15)">
    <use xlink:href="#DejaVuSans-71"/>
    <use x="77.490234" xlink:href="#DejaVuSans-83"/>
    <use x="140.966797" xlink:href="#DejaVuSans-69"/>
    <use x="204.150391" xlink:href="#DejaVuSans-65"/>
    <use x="272.558594" xlink:href="#DejaVuSans-32"/>
    <use x="304.345703" xlink:href="#DejaVuSans-118"/>
    <use x="363.525391" xlink:href="#DejaVuSans-115"/>
    <use x="415.625" xlink:href="#DejaVuSans-32"/>
    <use x="447.412109" xlink:href="#DejaVuSans-71"/>
    <use x="524.902344" xlink:href="#DejaVuSans-83"/>
    <use x="588.378906" xlink:href="#DejaVuSans-86"/>
    <use x="656.693359" xlink:href="#DejaVuSans-65"/>
    <use x="725.101562" xlink:href="#DejaVuSans-32"/>
    <use x="756.888672" xlink:href="#DejaVuSans-112"/>
    <use x="820.365234" xlink:href="#DejaVuSans-97"/>
    <use x="881.644531" xlink:href="#DejaVuSans-116"/>
    <use x="920.853516" xlink:href="#DejaVuSans-104"/>
    <use x="984.232422" xlink:href="#DejaVuSans-119"/>
    <use x="1066.019531" xlink:href="#DejaVuSans-97"/>
    <use x="1127.298828" xlink:href="#DejaVuSans-121"/>
    <use x="1186.478516" xlink:href="#DejaVuSans-32"/>
    <use x="1218.265625" xlink:href="#DejaVuSans-114"/>
    <use x="1259.378906" xlink:href="#DejaVuSans-97"/>
    <use x="1320.658203" xlink:href="#DejaVuSans-110"/>
    <use x="1384.037109" xlink:href="#DejaVuSans-107"/>
    <use x="1441.947266" xlink:href="#DejaVuSans-105"/>
    <use x="1469.730469" xlink:href="#DejaVuSans-110"/>
    <use x="1533.109375" xlink:href="#DejaVuSans-103"/>
   </g>
  </g>
 </g>
 <defs>
  <clipPath id="p0da3813a22">
   <rect height="266.112" width="357.12" x="46.772188" y="20.583376"/>
  </clipPath>
 </defs>
</svg>
