<?xml version="1.0" encoding="utf-8" standalone="no"?>
<!DOCTYPE svg PUBLIC "-//W3C//DTD SVG 1.1//EN"
  "http://www.w3.org/Graphics/SVG/1.1/DTD/svg11.dtd">
<!-- Created with matplotlib (https://matplotlib.org/) -->
<svg height="322.176313pt" version="1.1" viewBox="0 0 406.642188 322.176313" width="406.642188pt" xmlns="http://www.w3.org/2000/svg" xmlns:xlink="http://www.w3.org/1999/xlink">
 <defs>
  <style type="text/css">
*{stroke-linecap:butt;stroke-linejoin:round;}
  </style>
 </defs>
 <g id="figure_1">
  <g id="patch_1">
   <path d="M 0 322.176313
L 406.642188 322.176313
L 406.642188 0
L 0 0
z
" style="fill:#ffffff;stroke:#ffffff;stroke-linejoin:miter;"/>
  </g>
  <g id="axes_1">
   <g id="patch_2">
    <path d="M 46.772188 286.695376
L 403.892188 286.695376
L 403.892188 20.583376
L 46.772188 20.583376
z
" style="fill:none;"/>
   </g>
   <g id="matplotlib.axis_1">
    <g id="xtick_1">
     <g id="line2d_1">
      <path clip-path="url(#pc6f4f39f04)" d="M 63.004915 286.695376
L 63.004915 20.583376
" style="fill:none;stroke:#e5e5e5;stroke-width:0.8;"/>
     </g>
     <g id="line2d_2">
      <path d="M 63.004915 286.695376
" style="fill:none;stroke:#000000;stroke-width:1.5;"/>
      <defs>
       <path d="M 0 0
L 0 2.75
" id="m24b51f5248" style="stroke:#000000;"/>
      </defs>
      <g>
       <use style="stroke:#000000;" x="63.004915" xlink:href="#m24b51f5248" y="286.695376"/>
      </g>
     </g>
     <g id="text_1">
      <!-- 0 -->
      <defs>
       <path d="M 31.78125 66.40625
Q 24.171875 66.40625 20.328125 58.90625
Q 16.5 51.421875 16.5 36.375
Q 16.5 21.390625 20.328125 13.890625
Q 24.171875 6.390625 31.78125 6.390625
Q 39.453125 6.390625 43.28125 13.890625
Q 47.125 21.390625 47.125 36.375
Q 47.125 51.421875 43.28125 58.90625
Q 39.453125 66.40625 31.78125 66.40625
z
M 31.78125 74.21875
Q 44.046875 74.21875 50.515625 64.515625
Q 56.984375 54.828125 56.984375 36.375
Q 56.984375 17.96875 50.515625 8.265625
Q 44.046875 -1.421875 31.78125 -1.421875
Q 19.53125 -1.421875 13.0625 8.265625
Q 6.59375 17.96875 6.59375 36.375
Q 6.59375 54.828125 13.0625 64.515625
Q 19.53125 74.21875 31.78125 74.21875
z
" id="DejaVuSans-48"/>
      </defs>
      <g style="fill:#4d4d4d;" transform="translate(59.187415 300.763501)scale(0.12 -0.12)">
       <use xlink:href="#DejaVuSans-48"/>
      </g>
     </g>
    </g>
    <g id="xtick_2">
     <g id="line2d_3">
      <path clip-path="url(#pc6f4f39f04)" d="M 144.168551 286.695376
L 144.168551 20.583376
" style="fill:none;stroke:#e5e5e5;stroke-width:0.8;"/>
     </g>
     <g id="line2d_4">
      <path d="M 144.168551 286.695376
" style="fill:none;stroke:#000000;stroke-width:1.5;"/>
      <g>
       <use style="stroke:#000000;" x="144.168551" xlink:href="#m24b51f5248" y="286.695376"/>
      </g>
     </g>
     <g id="text_2">
      <!-- 0.25 -->
      <defs>
       <path d="M 10.6875 12.40625
L 21 12.40625
L 21 0
L 10.6875 0
z
" id="DejaVuSans-46"/>
       <path d="M 19.1875 8.296875
L 53.609375 8.296875
L 53.609375 0
L 7.328125 0
L 7.328125 8.296875
Q 12.9375 14.109375 22.625 23.890625
Q 32.328125 33.6875 34.8125 36.53125
Q 39.546875 41.84375 41.421875 45.53125
Q 43.3125 49.21875 43.3125 52.78125
Q 43.3125 58.59375 39.234375 62.25
Q 35.15625 65.921875 28.609375 65.921875
Q 23.96875 65.921875 18.8125 64.3125
Q 13.671875 62.703125 7.8125 59.421875
L 7.8125 69.390625
Q 13.765625 71.78125 18.9375 73
Q 24.125 74.21875 28.421875 74.21875
Q 39.75 74.21875 46.484375 68.546875
Q 53.21875 62.890625 53.21875 53.421875
Q 53.21875 48.921875 51.53125 44.890625
Q 49.859375 40.875 45.40625 35.40625
Q 44.1875 33.984375 37.640625 27.21875
Q 31.109375 20.453125 19.1875 8.296875
z
" id="DejaVuSans-50"/>
       <path d="M 10.796875 72.90625
L 49.515625 72.90625
L 49.515625 64.59375
L 19.828125 64.59375
L 19.828125 46.734375
Q 21.96875 47.46875 24.109375 47.828125
Q 26.265625 48.1875 28.421875 48.1875
Q 40.625 48.1875 47.75 41.5
Q 54.890625 34.8125 54.890625 23.390625
Q 54.890625 11.625 47.5625 5.09375
Q 40.234375 -1.421875 26.90625 -1.421875
Q 22.3125 -1.421875 17.546875 -0.640625
Q 12.796875 0.140625 7.71875 1.703125
L 7.71875 11.625
Q 12.109375 9.234375 16.796875 8.0625
Q 21.484375 6.890625 26.703125 6.890625
Q 35.15625 6.890625 40.078125 11.328125
Q 45.015625 15.765625 45.015625 23.390625
Q 45.015625 31 40.078125 35.4375
Q 35.15625 39.890625 26.703125 39.890625
Q 22.75 39.890625 18.8125 39.015625
Q 14.890625 38.140625 10.796875 36.28125
z
" id="DejaVuSans-53"/>
      </defs>
      <g style="fill:#4d4d4d;" transform="translate(130.809176 300.763501)scale(0.12 -0.12)">
       <use xlink:href="#DejaVuSans-48"/>
       <use x="63.623047" xlink:href="#DejaVuSans-46"/>
       <use x="95.410156" xlink:href="#DejaVuSans-50"/>
       <use x="159.033203" xlink:href="#DejaVuSans-53"/>
      </g>
     </g>
    </g>
    <g id="xtick_3">
     <g id="line2d_5">
      <path clip-path="url(#pc6f4f39f04)" d="M 225.332188 286.695376
L 225.332188 20.583376
" style="fill:none;stroke:#e5e5e5;stroke-width:0.8;"/>
     </g>
     <g id="line2d_6">
      <path d="M 225.332188 286.695376
" style="fill:none;stroke:#000000;stroke-width:1.5;"/>
      <g>
       <use style="stroke:#000000;" x="225.332188" xlink:href="#m24b51f5248" y="286.695376"/>
      </g>
     </g>
     <g id="text_3">
      <!-- 0.50 -->
      <g style="fill:#4d4d4d;" transform="translate(211.972813 300.763501)scale(0.12 -0.12)">
       <use xlink:href="#DejaVuSans-48"/>
       <use x="63.623047" xlink:href="#DejaVuSans-46"/>
       <use x="95.410156" xlink:href="#DejaVuSans-53"/>
       <use x="159.033203" xlink:href="#DejaVuSans-48"/>
      </g>
     </g>
    </g>
    <g id="xtick_4">
     <g id="line2d_7">
      <path clip-path="url(#pc6f4f39f04)" d="M 306.495824 286.695376
L 306.495824 20.583376
" style="fill:none;stroke:#e5e5e5;stroke-width:0.8;"/>
     </g>
     <g id="line2d_8">
      <path d="M 306.495824 286.695376
" style="fill:none;stroke:#000000;stroke-width:1.5;"/>
      <g>
       <use style="stroke:#000000;" x="306.495824" xlink:href="#m24b51f5248" y="286.695376"/>
      </g>
     </g>
     <g id="text_4">
      <!-- 0.75 -->
      <defs>
       <path d="M 8.203125 72.90625
L 55.078125 72.90625
L 55.078125 68.703125
L 28.609375 0
L 18.3125 0
L 43.21875 64.59375
L 8.203125 64.59375
z
" id="DejaVuSans-55"/>
      </defs>
      <g style="fill:#4d4d4d;" transform="translate(293.136449 300.763501)scale(0.12 -0.12)">
       <use xlink:href="#DejaVuSans-48"/>
       <use x="63.623047" xlink:href="#DejaVuSans-46"/>
       <use x="95.410156" xlink:href="#DejaVuSans-55"/>
       <use x="159.033203" xlink:href="#DejaVuSans-53"/>
      </g>
     </g>
    </g>
    <g id="xtick_5">
     <g id="line2d_9">
      <path clip-path="url(#pc6f4f39f04)" d="M 387.65946 286.695376
L 387.65946 20.583376
" style="fill:none;stroke:#e5e5e5;stroke-width:0.8;"/>
     </g>
     <g id="line2d_10">
      <path d="M 387.65946 286.695376
" style="fill:none;stroke:#000000;stroke-width:1.5;"/>
      <g>
       <use style="stroke:#000000;" x="387.65946" xlink:href="#m24b51f5248" y="286.695376"/>
      </g>
     </g>
     <g id="text_5">
      <!-- 1 -->
      <defs>
       <path d="M 12.40625 8.296875
L 28.515625 8.296875
L 28.515625 63.921875
L 10.984375 60.40625
L 10.984375 69.390625
L 28.421875 72.90625
L 38.28125 72.90625
L 38.28125 8.296875
L 54.390625 8.296875
L 54.390625 0
L 12.40625 0
z
" id="DejaVuSans-49"/>
      </defs>
      <g style="fill:#4d4d4d;" transform="translate(383.84196 300.763501)scale(0.12 -0.12)">
       <use xlink:href="#DejaVuSans-49"/>
      </g>
     </g>
    </g>
    <g id="xtick_6">
     <g id="line2d_11">
      <path clip-path="url(#pc6f4f39f04)" d="M 103.586733 286.695376
L 103.586733 20.583376
" style="fill:none;stroke:#fafafa;"/>
     </g>
     <g id="line2d_12">
      <path d="M 103.586733 286.695376
" style="fill:none;stroke:#000000;stroke-width:1.5;"/>
     </g>
    </g>
    <g id="xtick_7">
     <g id="line2d_13">
      <path clip-path="url(#pc6f4f39f04)" d="M 184.750369 286.695376
L 184.750369 20.583376
" style="fill:none;stroke:#fafafa;"/>
     </g>
     <g id="line2d_14">
      <path d="M 184.750369 286.695376
" style="fill:none;stroke:#000000;stroke-width:1.5;"/>
     </g>
    </g>
    <g id="xtick_8">
     <g id="line2d_15">
      <path clip-path="url(#pc6f4f39f04)" d="M 265.914006 286.695376
L 265.914006 20.583376
" style="fill:none;stroke:#fafafa;"/>
     </g>
     <g id="line2d_16">
      <path d="M 265.914006 286.695376
" style="fill:none;stroke:#000000;stroke-width:1.5;"/>
     </g>
    </g>
    <g id="xtick_9">
     <g id="line2d_17">
      <path clip-path="url(#pc6f4f39f04)" d="M 347.077642 286.695376
L 347.077642 20.583376
" style="fill:none;stroke:#fafafa;"/>
     </g>
     <g id="line2d_18">
      <path d="M 347.077642 286.695376
" style="fill:none;stroke:#000000;stroke-width:1.5;"/>
     </g>
    </g>
    <g id="text_6">
     <!-- Median(Enrichment score) -->
     <defs>
      <path d="M 9.8125 72.90625
L 24.515625 72.90625
L 43.109375 23.296875
L 61.8125 72.90625
L 76.515625 72.90625
L 76.515625 0
L 66.890625 0
L 66.890625 64.015625
L 48.09375 14.015625
L 38.1875 14.015625
L 19.390625 64.015625
L 19.390625 0
L 9.8125 0
z
" id="DejaVuSans-77"/>
      <path d="M 56.203125 29.59375
L 56.203125 25.203125
L 14.890625 25.203125
Q 15.484375 15.921875 20.484375 11.0625
Q 25.484375 6.203125 34.421875 6.203125
Q 39.59375 6.203125 44.453125 7.46875
Q 49.3125 8.734375 54.109375 11.28125
L 54.109375 2.78125
Q 49.265625 0.734375 44.1875 -0.34375
Q 39.109375 -1.421875 33.890625 -1.421875
Q 20.796875 -1.421875 13.15625 6.1875
Q 5.515625 13.8125 5.515625 26.8125
Q 5.515625 40.234375 12.765625 48.109375
Q 20.015625 56 32.328125 56
Q 43.359375 56 49.78125 48.890625
Q 56.203125 41.796875 56.203125 29.59375
z
M 47.21875 32.234375
Q 47.125 39.59375 43.09375 43.984375
Q 39.0625 48.390625 32.421875 48.390625
Q 24.90625 48.390625 20.390625 44.140625
Q 15.875 39.890625 15.1875 32.171875
z
" id="DejaVuSans-101"/>
      <path d="M 45.40625 46.390625
L 45.40625 75.984375
L 54.390625 75.984375
L 54.390625 0
L 45.40625 0
L 45.40625 8.203125
Q 42.578125 3.328125 38.25 0.953125
Q 33.9375 -1.421875 27.875 -1.421875
Q 17.96875 -1.421875 11.734375 6.484375
Q 5.515625 14.40625 5.515625 27.296875
Q 5.515625 40.1875 11.734375 48.09375
Q 17.96875 56 27.875 56
Q 33.9375 56 38.25 53.625
Q 42.578125 51.265625 45.40625 46.390625
z
M 14.796875 27.296875
Q 14.796875 17.390625 18.875 11.75
Q 22.953125 6.109375 30.078125 6.109375
Q 37.203125 6.109375 41.296875 11.75
Q 45.40625 17.390625 45.40625 27.296875
Q 45.40625 37.203125 41.296875 42.84375
Q 37.203125 48.484375 30.078125 48.484375
Q 22.953125 48.484375 18.875 42.84375
Q 14.796875 37.203125 14.796875 27.296875
z
" id="DejaVuSans-100"/>
      <path d="M 9.421875 54.6875
L 18.40625 54.6875
L 18.40625 0
L 9.421875 0
z
M 9.421875 75.984375
L 18.40625 75.984375
L 18.40625 64.59375
L 9.421875 64.59375
z
" id="DejaVuSans-105"/>
      <path d="M 34.28125 27.484375
Q 23.390625 27.484375 19.1875 25
Q 14.984375 22.515625 14.984375 16.5
Q 14.984375 11.71875 18.140625 8.90625
Q 21.296875 6.109375 26.703125 6.109375
Q 34.1875 6.109375 38.703125 11.40625
Q 43.21875 16.703125 43.21875 25.484375
L 43.21875 27.484375
z
M 52.203125 31.203125
L 52.203125 0
L 43.21875 0
L 43.21875 8.296875
Q 40.140625 3.328125 35.546875 0.953125
Q 30.953125 -1.421875 24.3125 -1.421875
Q 15.921875 -1.421875 10.953125 3.296875
Q 6 8.015625 6 15.921875
Q 6 25.140625 12.171875 29.828125
Q 18.359375 34.515625 30.609375 34.515625
L 43.21875 34.515625
L 43.21875 35.40625
Q 43.21875 41.609375 39.140625 45
Q 35.0625 48.390625 27.6875 48.390625
Q 23 48.390625 18.546875 47.265625
Q 14.109375 46.140625 10.015625 43.890625
L 10.015625 52.203125
Q 14.9375 54.109375 19.578125 55.046875
Q 24.21875 56 28.609375 56
Q 40.484375 56 46.34375 49.84375
Q 52.203125 43.703125 52.203125 31.203125
z
" id="DejaVuSans-97"/>
      <path d="M 54.890625 33.015625
L 54.890625 0
L 45.90625 0
L 45.90625 32.71875
Q 45.90625 40.484375 42.875 44.328125
Q 39.84375 48.1875 33.796875 48.1875
Q 26.515625 48.1875 22.3125 43.546875
Q 18.109375 38.921875 18.109375 30.90625
L 18.109375 0
L 9.078125 0
L 9.078125 54.6875
L 18.109375 54.6875
L 18.109375 46.1875
Q 21.34375 51.125 25.703125 53.5625
Q 30.078125 56 35.796875 56
Q 45.21875 56 50.046875 50.171875
Q 54.890625 44.34375 54.890625 33.015625
z
" id="DejaVuSans-110"/>
      <path d="M 31 75.875
Q 24.46875 64.65625 21.28125 53.65625
Q 18.109375 42.671875 18.109375 31.390625
Q 18.109375 20.125 21.3125 9.0625
Q 24.515625 -2 31 -13.1875
L 23.1875 -13.1875
Q 15.875 -1.703125 12.234375 9.375
Q 8.59375 20.453125 8.59375 31.390625
Q 8.59375 42.28125 12.203125 53.3125
Q 15.828125 64.359375 23.1875 75.875
z
" id="DejaVuSans-40"/>
      <path d="M 9.8125 72.90625
L 55.90625 72.90625
L 55.90625 64.59375
L 19.671875 64.59375
L 19.671875 43.015625
L 54.390625 43.015625
L 54.390625 34.71875
L 19.671875 34.71875
L 19.671875 8.296875
L 56.78125 8.296875
L 56.78125 0
L 9.8125 0
z
" id="DejaVuSans-69"/>
      <path d="M 41.109375 46.296875
Q 39.59375 47.171875 37.8125 47.578125
Q 36.03125 48 33.890625 48
Q 26.265625 48 22.1875 43.046875
Q 18.109375 38.09375 18.109375 28.8125
L 18.109375 0
L 9.078125 0
L 9.078125 54.6875
L 18.109375 54.6875
L 18.109375 46.1875
Q 20.953125 51.171875 25.484375 53.578125
Q 30.03125 56 36.53125 56
Q 37.453125 56 38.578125 55.875
Q 39.703125 55.765625 41.0625 55.515625
z
" id="DejaVuSans-114"/>
      <path d="M 48.78125 52.59375
L 48.78125 44.1875
Q 44.96875 46.296875 41.140625 47.34375
Q 37.3125 48.390625 33.40625 48.390625
Q 24.65625 48.390625 19.8125 42.84375
Q 14.984375 37.3125 14.984375 27.296875
Q 14.984375 17.28125 19.8125 11.734375
Q 24.65625 6.203125 33.40625 6.203125
Q 37.3125 6.203125 41.140625 7.25
Q 44.96875 8.296875 48.78125 10.40625
L 48.78125 2.09375
Q 45.015625 0.34375 40.984375 -0.53125
Q 36.96875 -1.421875 32.421875 -1.421875
Q 20.0625 -1.421875 12.78125 6.34375
Q 5.515625 14.109375 5.515625 27.296875
Q 5.515625 40.671875 12.859375 48.328125
Q 20.21875 56 33.015625 56
Q 37.15625 56 41.109375 55.140625
Q 45.0625 54.296875 48.78125 52.59375
z
" id="DejaVuSans-99"/>
      <path d="M 54.890625 33.015625
L 54.890625 0
L 45.90625 0
L 45.90625 32.71875
Q 45.90625 40.484375 42.875 44.328125
Q 39.84375 48.1875 33.796875 48.1875
Q 26.515625 48.1875 22.3125 43.546875
Q 18.109375 38.921875 18.109375 30.90625
L 18.109375 0
L 9.078125 0
L 9.078125 75.984375
L 18.109375 75.984375
L 18.109375 46.1875
Q 21.34375 51.125 25.703125 53.5625
Q 30.078125 56 35.796875 56
Q 45.21875 56 50.046875 50.171875
Q 54.890625 44.34375 54.890625 33.015625
z
" id="DejaVuSans-104"/>
      <path d="M 52 44.1875
Q 55.375 50.25 60.0625 53.125
Q 64.75 56 71.09375 56
Q 79.640625 56 84.28125 50.015625
Q 88.921875 44.046875 88.921875 33.015625
L 88.921875 0
L 79.890625 0
L 79.890625 32.71875
Q 79.890625 40.578125 77.09375 44.375
Q 74.3125 48.1875 68.609375 48.1875
Q 61.625 48.1875 57.5625 43.546875
Q 53.515625 38.921875 53.515625 30.90625
L 53.515625 0
L 44.484375 0
L 44.484375 32.71875
Q 44.484375 40.625 41.703125 44.40625
Q 38.921875 48.1875 33.109375 48.1875
Q 26.21875 48.1875 22.15625 43.53125
Q 18.109375 38.875 18.109375 30.90625
L 18.109375 0
L 9.078125 0
L 9.078125 54.6875
L 18.109375 54.6875
L 18.109375 46.1875
Q 21.1875 51.21875 25.484375 53.609375
Q 29.78125 56 35.6875 56
Q 41.65625 56 45.828125 52.96875
Q 50 49.953125 52 44.1875
z
" id="DejaVuSans-109"/>
      <path d="M 18.3125 70.21875
L 18.3125 54.6875
L 36.8125 54.6875
L 36.8125 47.703125
L 18.3125 47.703125
L 18.3125 18.015625
Q 18.3125 11.328125 20.140625 9.421875
Q 21.96875 7.515625 27.59375 7.515625
L 36.8125 7.515625
L 36.8125 0
L 27.59375 0
Q 17.1875 0 13.234375 3.875
Q 9.28125 7.765625 9.28125 18.015625
L 9.28125 47.703125
L 2.6875 47.703125
L 2.6875 54.6875
L 9.28125 54.6875
L 9.28125 70.21875
z
" id="DejaVuSans-116"/>
      <path id="DejaVuSans-32"/>
      <path d="M 44.28125 53.078125
L 44.28125 44.578125
Q 40.484375 46.53125 36.375 47.5
Q 32.28125 48.484375 27.875 48.484375
Q 21.1875 48.484375 17.84375 46.4375
Q 14.5 44.390625 14.5 40.28125
Q 14.5 37.15625 16.890625 35.375
Q 19.28125 33.59375 26.515625 31.984375
L 29.59375 31.296875
Q 39.15625 29.25 43.1875 25.515625
Q 47.21875 21.78125 47.21875 15.09375
Q 47.21875 7.46875 41.1875 3.015625
Q 35.15625 -1.421875 24.609375 -1.421875
Q 20.21875 -1.421875 15.453125 -0.5625
Q 10.6875 0.296875 5.421875 2
L 5.421875 11.28125
Q 10.40625 8.6875 15.234375 7.390625
Q 20.0625 6.109375 24.8125 6.109375
Q 31.15625 6.109375 34.5625 8.28125
Q 37.984375 10.453125 37.984375 14.40625
Q 37.984375 18.0625 35.515625 20.015625
Q 33.0625 21.96875 24.703125 23.78125
L 21.578125 24.515625
Q 13.234375 26.265625 9.515625 29.90625
Q 5.8125 33.546875 5.8125 39.890625
Q 5.8125 47.609375 11.28125 51.796875
Q 16.75 56 26.8125 56
Q 31.78125 56 36.171875 55.265625
Q 40.578125 54.546875 44.28125 53.078125
z
" id="DejaVuSans-115"/>
      <path d="M 30.609375 48.390625
Q 23.390625 48.390625 19.1875 42.75
Q 14.984375 37.109375 14.984375 27.296875
Q 14.984375 17.484375 19.15625 11.84375
Q 23.34375 6.203125 30.609375 6.203125
Q 37.796875 6.203125 41.984375 11.859375
Q 46.1875 17.53125 46.1875 27.296875
Q 46.1875 37.015625 41.984375 42.703125
Q 37.796875 48.390625 30.609375 48.390625
z
M 30.609375 56
Q 42.328125 56 49.015625 48.375
Q 55.71875 40.765625 55.71875 27.296875
Q 55.71875 13.875 49.015625 6.21875
Q 42.328125 -1.421875 30.609375 -1.421875
Q 18.84375 -1.421875 12.171875 6.21875
Q 5.515625 13.875 5.515625 27.296875
Q 5.515625 40.765625 12.171875 48.375
Q 18.84375 56 30.609375 56
z
" id="DejaVuSans-111"/>
      <path d="M 8.015625 75.875
L 15.828125 75.875
Q 23.140625 64.359375 26.78125 53.3125
Q 30.421875 42.28125 30.421875 31.390625
Q 30.421875 20.453125 26.78125 9.375
Q 23.140625 -1.703125 15.828125 -13.1875
L 8.015625 -13.1875
Q 14.5 -2 17.703125 9.0625
Q 20.90625 20.125 20.90625 31.390625
Q 20.90625 42.671875 17.703125 53.65625
Q 14.5 64.65625 8.015625 75.875
z
" id="DejaVuSans-41"/>
     </defs>
     <g transform="translate(120.590938 319.056782)scale(0.15 -0.15)">
      <use xlink:href="#DejaVuSans-77"/>
      <use x="86.279297" xlink:href="#DejaVuSans-101"/>
      <use x="147.802734" xlink:href="#DejaVuSans-100"/>
      <use x="211.279297" xlink:href="#DejaVuSans-105"/>
      <use x="239.0625" xlink:href="#DejaVuSans-97"/>
      <use x="300.341797" xlink:href="#DejaVuSans-110"/>
      <use x="363.720703" xlink:href="#DejaVuSans-40"/>
      <use x="402.734375" xlink:href="#DejaVuSans-69"/>
      <use x="465.917969" xlink:href="#DejaVuSans-110"/>
      <use x="529.296875" xlink:href="#DejaVuSans-114"/>
      <use x="570.410156" xlink:href="#DejaVuSans-105"/>
      <use x="598.193359" xlink:href="#DejaVuSans-99"/>
      <use x="653.173828" xlink:href="#DejaVuSans-104"/>
      <use x="716.552734" xlink:href="#DejaVuSans-109"/>
      <use x="813.964844" xlink:href="#DejaVuSans-101"/>
      <use x="875.488281" xlink:href="#DejaVuSans-110"/>
      <use x="938.867188" xlink:href="#DejaVuSans-116"/>
      <use x="978.076172" xlink:href="#DejaVuSans-32"/>
      <use x="1009.863281" xlink:href="#DejaVuSans-115"/>
      <use x="1061.962891" xlink:href="#DejaVuSans-99"/>
      <use x="1116.943359" xlink:href="#DejaVuSans-111"/>
      <use x="1178.125" xlink:href="#DejaVuSans-114"/>
      <use x="1219.207031" xlink:href="#DejaVuSans-101"/>
      <use x="1280.730469" xlink:href="#DejaVuSans-41"/>
     </g>
    </g>
   </g>
   <g id="matplotlib.axis_2">
    <g id="ytick_1">
     <g id="line2d_19">
      <path clip-path="url(#pc6f4f39f04)" d="M 46.772188 274.599376
L 403.892188 274.599376
" style="fill:none;stroke:#e5e5e5;stroke-width:0.8;"/>
     </g>
     <g id="line2d_20">
      <path d="M 46.772188 274.599376
" style="fill:none;stroke:#000000;stroke-width:1.5;"/>
      <defs>
       <path d="M 0 0
L -2.75 0
" id="m64c20fd90d" style="stroke:#000000;"/>
      </defs>
      <g>
       <use style="stroke:#000000;" x="46.772188" xlink:href="#m64c20fd90d" y="274.599376"/>
      </g>
     </g>
     <g id="text_7">
      <!-- 0 -->
      <g style="fill:#4d4d4d;" transform="translate(34.187188 277.910626)scale(0.12 -0.12)">
       <use xlink:href="#DejaVuSans-48"/>
      </g>
     </g>
    </g>
    <g id="ytick_2">
     <g id="line2d_21">
      <path clip-path="url(#pc6f4f39f04)" d="M 46.772188 214.119376
L 403.892188 214.119376
" style="fill:none;stroke:#e5e5e5;stroke-width:0.8;"/>
     </g>
     <g id="line2d_22">
      <path d="M 46.772188 214.119376
" style="fill:none;stroke:#000000;stroke-width:1.5;"/>
      <g>
       <use style="stroke:#000000;" x="46.772188" xlink:href="#m64c20fd90d" y="214.119376"/>
      </g>
     </g>
     <g id="text_8">
      <!-- 25 -->
      <g style="fill:#4d4d4d;" transform="translate(26.552188 217.430626)scale(0.12 -0.12)">
       <use xlink:href="#DejaVuSans-50"/>
       <use x="63.623047" xlink:href="#DejaVuSans-53"/>
      </g>
     </g>
    </g>
    <g id="ytick_3">
     <g id="line2d_23">
      <path clip-path="url(#pc6f4f39f04)" d="M 46.772188 153.639376
L 403.892188 153.639376
" style="fill:none;stroke:#e5e5e5;stroke-width:0.8;"/>
     </g>
     <g id="line2d_24">
      <path d="M 46.772188 153.639376
" style="fill:none;stroke:#000000;stroke-width:1.5;"/>
      <g>
       <use style="stroke:#000000;" x="46.772188" xlink:href="#m64c20fd90d" y="153.639376"/>
      </g>
     </g>
     <g id="text_9">
      <!-- 50 -->
      <g style="fill:#4d4d4d;" transform="translate(26.552188 156.950626)scale(0.12 -0.12)">
       <use xlink:href="#DejaVuSans-53"/>
       <use x="63.623047" xlink:href="#DejaVuSans-48"/>
      </g>
     </g>
    </g>
    <g id="ytick_4">
     <g id="line2d_25">
      <path clip-path="url(#pc6f4f39f04)" d="M 46.772188 93.159376
L 403.892188 93.159376
" style="fill:none;stroke:#e5e5e5;stroke-width:0.8;"/>
     </g>
     <g id="line2d_26">
      <path d="M 46.772188 93.159376
" style="fill:none;stroke:#000000;stroke-width:1.5;"/>
      <g>
       <use style="stroke:#000000;" x="46.772188" xlink:href="#m64c20fd90d" y="93.159376"/>
      </g>
     </g>
     <g id="text_10">
      <!-- 75 -->
      <g style="fill:#4d4d4d;" transform="translate(26.552188 96.470626)scale(0.12 -0.12)">
       <use xlink:href="#DejaVuSans-55"/>
       <use x="63.623047" xlink:href="#DejaVuSans-53"/>
      </g>
     </g>
    </g>
    <g id="ytick_5">
     <g id="line2d_27">
      <path clip-path="url(#pc6f4f39f04)" d="M 46.772188 32.679376
L 403.892188 32.679376
" style="fill:none;stroke:#e5e5e5;stroke-width:0.8;"/>
     </g>
     <g id="line2d_28">
      <path d="M 46.772188 32.679376
" style="fill:none;stroke:#000000;stroke-width:1.5;"/>
      <g>
       <use style="stroke:#000000;" x="46.772188" xlink:href="#m64c20fd90d" y="32.679376"/>
      </g>
     </g>
     <g id="text_11">
      <!-- 100 -->
      <g style="fill:#4d4d4d;" transform="translate(18.917188 35.990626)scale(0.12 -0.12)">
       <use xlink:href="#DejaVuSans-49"/>
       <use x="63.623047" xlink:href="#DejaVuSans-48"/>
       <use x="127.246094" xlink:href="#DejaVuSans-48"/>
      </g>
     </g>
    </g>
    <g id="ytick_6">
     <g id="line2d_29">
      <path clip-path="url(#pc6f4f39f04)" d="M 46.772188 244.359376
L 403.892188 244.359376
" style="fill:none;stroke:#fafafa;"/>
     </g>
     <g id="line2d_30">
      <path d="M 46.772188 244.359376
" style="fill:none;stroke:#000000;stroke-width:1.5;"/>
     </g>
    </g>
    <g id="ytick_7">
     <g id="line2d_31">
      <path clip-path="url(#pc6f4f39f04)" d="M 46.772188 183.879376
L 403.892188 183.879376
" style="fill:none;stroke:#fafafa;"/>
     </g>
     <g id="line2d_32">
      <path d="M 46.772188 183.879376
" style="fill:none;stroke:#000000;stroke-width:1.5;"/>
     </g>
    </g>
    <g id="ytick_8">
     <g id="line2d_33">
      <path clip-path="url(#pc6f4f39f04)" d="M 46.772188 123.399376
L 403.892188 123.399376
" style="fill:none;stroke:#fafafa;"/>
     </g>
     <g id="line2d_34">
      <path d="M 46.772188 123.399376
" style="fill:none;stroke:#000000;stroke-width:1.5;"/>
     </g>
    </g>
    <g id="ytick_9">
     <g id="line2d_35">
      <path clip-path="url(#pc6f4f39f04)" d="M 46.772188 62.919376
L 403.892188 62.919376
" style="fill:none;stroke:#fafafa;"/>
     </g>
     <g id="line2d_36">
      <path d="M 46.772188 62.919376
" style="fill:none;stroke:#000000;stroke-width:1.5;"/>
     </g>
    </g>
    <g id="text_12">
     <!-- Genericness (percentile of ranking) -->
     <defs>
      <path d="M 59.515625 10.40625
L 59.515625 29.984375
L 43.40625 29.984375
L 43.40625 38.09375
L 69.28125 38.09375
L 69.28125 6.78125
Q 63.578125 2.734375 56.6875 0.65625
Q 49.8125 -1.421875 42 -1.421875
Q 24.90625 -1.421875 15.25 8.5625
Q 5.609375 18.5625 5.609375 36.375
Q 5.609375 54.25 15.25 64.234375
Q 24.90625 74.21875 42 74.21875
Q 49.125 74.21875 55.546875 72.453125
Q 61.96875 70.703125 67.390625 67.28125
L 67.390625 56.78125
Q 61.921875 61.421875 55.765625 63.765625
Q 49.609375 66.109375 42.828125 66.109375
Q 29.4375 66.109375 22.71875 58.640625
Q 16.015625 51.171875 16.015625 36.375
Q 16.015625 21.625 22.71875 14.15625
Q 29.4375 6.6875 42.828125 6.6875
Q 48.046875 6.6875 52.140625 7.59375
Q 56.25 8.5 59.515625 10.40625
z
" id="DejaVuSans-71"/>
      <path d="M 18.109375 8.203125
L 18.109375 -20.796875
L 9.078125 -20.796875
L 9.078125 54.6875
L 18.109375 54.6875
L 18.109375 46.390625
Q 20.953125 51.265625 25.265625 53.625
Q 29.59375 56 35.59375 56
Q 45.5625 56 51.78125 48.09375
Q 58.015625 40.1875 58.015625 27.296875
Q 58.015625 14.40625 51.78125 6.484375
Q 45.5625 -1.421875 35.59375 -1.421875
Q 29.59375 -1.421875 25.265625 0.953125
Q 20.953125 3.328125 18.109375 8.203125
z
M 48.6875 27.296875
Q 48.6875 37.203125 44.609375 42.84375
Q 40.53125 48.484375 33.40625 48.484375
Q 26.265625 48.484375 22.1875 42.84375
Q 18.109375 37.203125 18.109375 27.296875
Q 18.109375 17.390625 22.1875 11.75
Q 26.265625 6.109375 33.40625 6.109375
Q 40.53125 6.109375 44.609375 11.75
Q 48.6875 17.390625 48.6875 27.296875
z
" id="DejaVuSans-112"/>
      <path d="M 9.421875 75.984375
L 18.40625 75.984375
L 18.40625 0
L 9.421875 0
z
" id="DejaVuSans-108"/>
      <path d="M 37.109375 75.984375
L 37.109375 68.5
L 28.515625 68.5
Q 23.6875 68.5 21.796875 66.546875
Q 19.921875 64.59375 19.921875 59.515625
L 19.921875 54.6875
L 34.71875 54.6875
L 34.71875 47.703125
L 19.921875 47.703125
L 19.921875 0
L 10.890625 0
L 10.890625 47.703125
L 2.296875 47.703125
L 2.296875 54.6875
L 10.890625 54.6875
L 10.890625 58.5
Q 10.890625 67.625 15.140625 71.796875
Q 19.390625 75.984375 28.609375 75.984375
z
" id="DejaVuSans-102"/>
      <path d="M 9.078125 75.984375
L 18.109375 75.984375
L 18.109375 31.109375
L 44.921875 54.6875
L 56.390625 54.6875
L 27.390625 29.109375
L 57.625 0
L 45.90625 0
L 18.109375 26.703125
L 18.109375 0
L 9.078125 0
z
" id="DejaVuSans-107"/>
      <path d="M 45.40625 27.984375
Q 45.40625 37.75 41.375 43.109375
Q 37.359375 48.484375 30.078125 48.484375
Q 22.859375 48.484375 18.828125 43.109375
Q 14.796875 37.75 14.796875 27.984375
Q 14.796875 18.265625 18.828125 12.890625
Q 22.859375 7.515625 30.078125 7.515625
Q 37.359375 7.515625 41.375 12.890625
Q 45.40625 18.265625 45.40625 27.984375
z
M 54.390625 6.78125
Q 54.390625 -7.171875 48.1875 -13.984375
Q 42 -20.796875 29.203125 -20.796875
Q 24.46875 -20.796875 20.265625 -20.09375
Q 16.0625 -19.390625 12.109375 -17.921875
L 12.109375 -9.1875
Q 16.0625 -11.328125 19.921875 -12.34375
Q 23.78125 -13.375 27.78125 -13.375
Q 36.625 -13.375 41.015625 -8.765625
Q 45.40625 -4.15625 45.40625 5.171875
L 45.40625 9.625
Q 42.625 4.78125 38.28125 2.390625
Q 33.9375 0 27.875 0
Q 17.828125 0 11.671875 7.65625
Q 5.515625 15.328125 5.515625 27.984375
Q 5.515625 40.671875 11.671875 48.328125
Q 17.828125 56 27.875 56
Q 33.9375 56 38.28125 53.609375
Q 42.625 51.21875 45.40625 46.390625
L 45.40625 54.6875
L 54.390625 54.6875
z
" id="DejaVuSans-103"/>
     </defs>
     <g transform="translate(11.397656 284.455126)rotate(-90)scale(0.15 -0.15)">
      <use xlink:href="#DejaVuSans-71"/>
      <use x="77.490234" xlink:href="#DejaVuSans-101"/>
      <use x="139.013672" xlink:href="#DejaVuSans-110"/>
      <use x="202.392578" xlink:href="#DejaVuSans-101"/>
      <use x="263.916016" xlink:href="#DejaVuSans-114"/>
      <use x="305.029297" xlink:href="#DejaVuSans-105"/>
      <use x="332.8125" xlink:href="#DejaVuSans-99"/>
      <use x="387.792969" xlink:href="#DejaVuSans-110"/>
      <use x="451.171875" xlink:href="#DejaVuSans-101"/>
      <use x="512.695312" xlink:href="#DejaVuSans-115"/>
      <use x="564.794922" xlink:href="#DejaVuSans-115"/>
      <use x="616.894531" xlink:href="#DejaVuSans-32"/>
      <use x="648.681641" xlink:href="#DejaVuSans-40"/>
      <use x="687.695312" xlink:href="#DejaVuSans-112"/>
      <use x="751.171875" xlink:href="#DejaVuSans-101"/>
      <use x="812.695312" xlink:href="#DejaVuSans-114"/>
      <use x="853.777344" xlink:href="#DejaVuSans-99"/>
      <use x="908.757812" xlink:href="#DejaVuSans-101"/>
      <use x="970.28125" xlink:href="#DejaVuSans-110"/>
      <use x="1033.660156" xlink:href="#DejaVuSans-116"/>
      <use x="1072.869141" xlink:href="#DejaVuSans-105"/>
      <use x="1100.652344" xlink:href="#DejaVuSans-108"/>
      <use x="1128.435547" xlink:href="#DejaVuSans-101"/>
      <use x="1189.958984" xlink:href="#DejaVuSans-32"/>
      <use x="1221.746094" xlink:href="#DejaVuSans-111"/>
      <use x="1282.927734" xlink:href="#DejaVuSans-102"/>
      <use x="1318.132812" xlink:href="#DejaVuSans-32"/>
      <use x="1349.919922" xlink:href="#DejaVuSans-114"/>
      <use x="1391.033203" xlink:href="#DejaVuSans-97"/>
      <use x="1452.3125" xlink:href="#DejaVuSans-110"/>
      <use x="1515.691406" xlink:href="#DejaVuSans-107"/>
      <use x="1573.601562" xlink:href="#DejaVuSans-105"/>
      <use x="1601.384766" xlink:href="#DejaVuSans-110"/>
      <use x="1664.763672" xlink:href="#DejaVuSans-103"/>
      <use x="1728.240234" xlink:href="#DejaVuSans-41"/>
     </g>
    </g>
   </g>
   <g id="PathCollection_1">
    <path clip-path="url(#pc6f4f39f04)" d="M 222.109012 34.45183
C 222.579072 34.45183 223.029943 34.265073 223.362326 33.93269
C 223.694709 33.600307 223.881466 33.149436 223.881466 32.679376
C 223.881466 32.209316 223.694709 31.758444 223.362326 31.426062
C 223.029943 31.093679 222.579072 30.906922 222.109012 30.906922
C 221.638951 30.906922 221.18808 31.093679 220.855698 31.426062
C 220.523315 31.758444 220.336558 32.209316 220.336558 32.679376
C 220.336558 33.149436 220.523315 33.600307 220.855698 33.93269
C 221.18808 34.265073 221.638951 34.45183 222.109012 34.45183
z
" style="stroke:#000000;stroke-width:0.886227;"/>
    <path clip-path="url(#pc6f4f39f04)" d="M 92.126694 227.000401
C 92.596754 227.000401 93.047625 226.813644 93.380008 226.481261
C 93.712391 226.148879 93.899148 225.698008 93.899148 225.227947
C 93.899148 224.757887 93.712391 224.307016 93.380008 223.974633
C 93.047625 223.64225 92.596754 223.455493 92.126694 223.455493
C 91.656634 223.455493 91.205763 223.64225 90.87338 223.974633
C 90.540997 224.307016 90.35424 224.757887 90.35424 225.227947
C 90.35424 225.698008 90.540997 226.148879 90.87338 226.481261
C 91.205763 226.813644 91.656634 227.000401 92.126694 227.000401
z
" style="stroke:#000000;stroke-width:0.886227;"/>
    <path clip-path="url(#pc6f4f39f04)" d="M 91.077704 231.937544
C 91.547764 231.937544 91.998635 231.750787 92.331018 231.418404
C 92.663401 231.086021 92.850158 230.63515 92.850158 230.16509
C 92.850158 229.69503 92.663401 229.244159 92.331018 228.911776
C 91.998635 228.579393 91.547764 228.392636 91.077704 228.392636
C 90.607644 228.392636 90.156772 228.579393 89.82439 228.911776
C 89.492007 229.244159 89.30525 229.69503 89.30525 230.16509
C 89.30525 230.63515 89.492007 231.086021 89.82439 231.418404
C 90.156772 231.750787 90.607644 231.937544 91.077704 231.937544
z
" style="stroke:#000000;stroke-width:0.886227;"/>
    <path clip-path="url(#pc6f4f39f04)" d="M 87.061199 241.81183
C 87.531259 241.81183 87.98213 241.625073 88.314513 241.29269
C 88.646896 240.960307 88.833653 240.509436 88.833653 240.039376
C 88.833653 239.569316 88.646896 239.118444 88.314513 238.786062
C 87.98213 238.453679 87.531259 238.266922 87.061199 238.266922
C 86.591138 238.266922 86.140267 238.453679 85.807885 238.786062
C 85.475502 239.118444 85.288745 239.569316 85.288745 240.039376
C 85.288745 240.509436 85.475502 240.960307 85.807885 241.29269
C 86.140267 241.625073 86.591138 241.81183 87.061199 241.81183
z
" style="stroke:#000000;stroke-width:0.886227;"/>
    <path clip-path="url(#pc6f4f39f04)" d="M 157.287498 69.01183
C 157.757558 69.01183 158.208429 68.825073 158.540812 68.49269
C 158.873194 68.160307 159.059951 67.709436 159.059951 67.239376
C 159.059951 66.769316 158.873194 66.318444 158.540812 65.986062
C 158.208429 65.653679 157.757558 65.466922 157.287498 65.466922
C 156.817437 65.466922 156.366566 65.653679 156.034183 65.986062
C 155.701801 66.318444 155.515044 66.769316 155.515044 67.239376
C 155.515044 67.709436 155.701801 68.160307 156.034183 68.49269
C 156.366566 68.825073 156.817437 69.01183 157.287498 69.01183
z
" style="stroke:#000000;stroke-width:0.886227;"/>
    <path clip-path="url(#pc6f4f39f04)" d="M 210.58799 44.326115
C 211.05805 44.326115 211.508921 44.139358 211.841304 43.806976
C 212.173687 43.474593 212.360444 43.023722 212.360444 42.553662
C 212.360444 42.083601 212.173687 41.63273 211.841304 41.300347
C 211.508921 40.967965 211.05805 40.781208 210.58799 40.781208
C 210.11793 40.781208 209.667059 40.967965 209.334676 41.300347
C 209.002293 41.63273 208.815536 42.083601 208.815536 42.553662
C 208.815536 43.023722 209.002293 43.474593 209.334676 43.806976
C 209.667059 44.139358 210.11793 44.326115 210.58799 44.326115
z
" style="stroke:#000000;stroke-width:0.886227;"/>
    <path clip-path="url(#pc6f4f39f04)" d="M 220.200516 39.388973
C 220.670576 39.388973 221.121447 39.202216 221.45383 38.869833
C 221.786213 38.53745 221.97297 38.086579 221.97297 37.616519
C 221.97297 37.146458 221.786213 36.695587 221.45383 36.363205
C 221.121447 36.030822 220.670576 35.844065 220.200516 35.844065
C 219.730455 35.844065 219.279584 36.030822 218.947202 36.363205
C 218.614819 36.695587 218.428062 37.146458 218.428062 37.616519
C 218.428062 38.086579 218.614819 38.53745 218.947202 38.869833
C 219.279584 39.202216 219.730455 39.388973 220.200516 39.388973
z
" style="stroke:#000000;stroke-width:0.886227;"/>
    <path clip-path="url(#pc6f4f39f04)" d="M 191.246404 49.263258
C 191.716465 49.263258 192.167336 49.076501 192.499718 48.744119
C 192.832101 48.411736 193.018858 47.960865 193.018858 47.490804
C 193.018858 47.020744 192.832101 46.569873 192.499718 46.23749
C 192.167336 45.905107 191.716465 45.718351 191.246404 45.718351
C 190.776344 45.718351 190.325473 45.905107 189.99309 46.23749
C 189.660707 46.569873 189.47395 47.020744 189.47395 47.490804
C 189.47395 47.960865 189.660707 48.411736 189.99309 48.744119
C 190.325473 49.076501 190.776344 49.263258 191.246404 49.263258
z
" style="stroke:#000000;stroke-width:0.886227;"/>
    <path clip-path="url(#pc6f4f39f04)" d="M 82.12774 266.497544
C 82.597801 266.497544 83.048672 266.310787 83.381055 265.978404
C 83.713437 265.646021 83.900194 265.19515 83.900194 264.72509
C 83.900194 264.25503 83.713437 263.804159 83.381055 263.471776
C 83.048672 263.139393 82.597801 262.952636 82.12774 262.952636
C 81.65768 262.952636 81.206809 263.139393 80.874426 263.471776
C 80.542044 263.804159 80.355287 264.25503 80.355287 264.72509
C 80.355287 265.19515 80.542044 265.646021 80.874426 265.978404
C 81.206809 266.310787 81.65768 266.497544 82.12774 266.497544
z
" style="stroke:#000000;stroke-width:0.886227;"/>
    <path clip-path="url(#pc6f4f39f04)" d="M 148.907145 88.760401
C 149.377206 88.760401 149.828077 88.573644 150.160459 88.241261
C 150.492842 87.908879 150.679599 87.458008 150.679599 86.987947
C 150.679599 86.517887 150.492842 86.067016 150.160459 85.734633
C 149.828077 85.40225 149.377206 85.215493 148.907145 85.215493
C 148.437085 85.215493 147.986214 85.40225 147.653831 85.734633
C 147.321448 86.067016 147.134691 86.517887 147.134691 86.987947
C 147.134691 87.458008 147.321448 87.908879 147.653831 88.241261
C 147.986214 88.573644 148.437085 88.760401 148.907145 88.760401
z
" style="stroke:#000000;stroke-width:0.886227;"/>
    <path clip-path="url(#pc6f4f39f04)" d="M 98.666194 197.377544
C 99.136254 197.377544 99.587125 197.190787 99.919508 196.858404
C 100.251891 196.526021 100.438648 196.07515 100.438648 195.60509
C 100.438648 195.13503 100.251891 194.684159 99.919508 194.351776
C 99.587125 194.019393 99.136254 193.832636 98.666194 193.832636
C 98.196134 193.832636 97.745263 194.019393 97.41288 194.351776
C 97.080497 194.684159 96.89374 195.13503 96.89374 195.60509
C 96.89374 196.07515 97.080497 196.526021 97.41288 196.858404
C 97.745263 197.190787 98.196134 197.377544 98.666194 197.377544
z
" style="stroke:#000000;stroke-width:0.886227;"/>
    <path clip-path="url(#pc6f4f39f04)" d="M 98.227144 202.314687
C 98.697204 202.314687 99.148075 202.12793 99.480458 201.795547
C 99.812841 201.463164 99.999598 201.012293 99.999598 200.542233
C 99.999598 200.072173 99.812841 199.621302 99.480458 199.288919
C 99.148075 198.956536 98.697204 198.769779 98.227144 198.769779
C 97.757084 198.769779 97.306212 198.956536 96.97383 199.288919
C 96.641447 199.621302 96.45469 200.072173 96.45469 200.542233
C 96.45469 201.012293 96.641447 201.463164 96.97383 201.795547
C 97.306212 202.12793 97.757084 202.314687 98.227144 202.314687
z
" style="stroke:#000000;stroke-width:0.886227;"/>
    <path clip-path="url(#pc6f4f39f04)" d="M 158.26367 64.074687
C 158.73373 64.074687 159.184601 63.88793 159.516984 63.555547
C 159.849367 63.223164 160.036124 62.772293 160.036124 62.302233
C 160.036124 61.832173 159.849367 61.381302 159.516984 61.048919
C 159.184601 60.716536 158.73373 60.529779 158.26367 60.529779
C 157.79361 60.529779 157.342739 60.716536 157.010356 61.048919
C 156.677973 61.381302 156.491216 61.832173 156.491216 62.302233
C 156.491216 62.772293 156.677973 63.223164 157.010356 63.555547
C 157.342739 63.88793 157.79361 64.074687 158.26367 64.074687
z
" style="stroke:#000000;stroke-width:0.886227;"/>
    <path clip-path="url(#pc6f4f39f04)" d="M 136.102781 103.57183
C 136.572841 103.57183 137.023712 103.385073 137.356095 103.05269
C 137.688478 102.720307 137.875235 102.269436 137.875235 101.799376
C 137.875235 101.329316 137.688478 100.878444 137.356095 100.546062
C 137.023712 100.213679 136.572841 100.026922 136.102781 100.026922
C 135.63272 100.026922 135.181849 100.213679 134.849467 100.546062
C 134.517084 100.878444 134.330327 101.329316 134.330327 101.799376
C 134.330327 102.269436 134.517084 102.720307 134.849467 103.05269
C 135.181849 103.385073 135.63272 103.57183 136.102781 103.57183
z
" style="stroke:#000000;stroke-width:0.886227;"/>
    <path clip-path="url(#pc6f4f39f04)" d="M 140.181547 98.634687
C 140.651607 98.634687 141.102479 98.44793 141.434861 98.115547
C 141.767244 97.783164 141.954001 97.332293 141.954001 96.862233
C 141.954001 96.392173 141.767244 95.941302 141.434861 95.608919
C 141.102479 95.276536 140.651607 95.089779 140.181547 95.089779
C 139.711487 95.089779 139.260616 95.276536 138.928233 95.608919
C 138.59585 95.941302 138.409093 96.392173 138.409093 96.862233
C 138.409093 97.332293 138.59585 97.783164 138.928233 98.115547
C 139.260616 98.44793 139.711487 98.634687 140.181547 98.634687
z
" style="stroke:#000000;stroke-width:0.886227;"/>
    <path clip-path="url(#pc6f4f39f04)" d="M 102.143993 177.628973
C 102.614053 177.628973 103.064924 177.442216 103.397307 177.109833
C 103.72969 176.77745 103.916447 176.326579 103.916447 175.856519
C 103.916447 175.386458 103.72969 174.935587 103.397307 174.603205
C 103.064924 174.270822 102.614053 174.084065 102.143993 174.084065
C 101.673933 174.084065 101.223062 174.270822 100.890679 174.603205
C 100.558296 174.935587 100.371539 175.386458 100.371539 175.856519
C 100.371539 176.326579 100.558296 176.77745 100.890679 177.109833
C 101.223062 177.442216 101.673933 177.628973 102.143993 177.628973
z
" style="stroke:#000000;stroke-width:0.886227;"/>
    <path clip-path="url(#pc6f4f39f04)" d="M 116.523077 123.320401
C 116.993137 123.320401 117.444009 123.133644 117.776391 122.801261
C 118.108774 122.468879 118.295531 122.018008 118.295531 121.547947
C 118.295531 121.077887 118.108774 120.627016 117.776391 120.294633
C 117.444009 119.96225 116.993137 119.775493 116.523077 119.775493
C 116.053017 119.775493 115.602146 119.96225 115.269763 120.294633
C 114.93738 120.627016 114.750623 121.077887 114.750623 121.547947
C 114.750623 122.018008 114.93738 122.468879 115.269763 122.801261
C 115.602146 123.133644 116.053017 123.320401 116.523077 123.320401
z
" style="stroke:#000000;stroke-width:0.886227;"/>
    <path clip-path="url(#pc6f4f39f04)" d="M 84.63067 256.623258
C 85.10073 256.623258 85.551601 256.436501 85.883984 256.104119
C 86.216367 255.771736 86.403124 255.320865 86.403124 254.850804
C 86.403124 254.380744 86.216367 253.929873 85.883984 253.59749
C 85.551601 253.265107 85.10073 253.078351 84.63067 253.078351
C 84.16061 253.078351 83.709739 253.265107 83.377356 253.59749
C 83.044973 253.929873 82.858216 254.380744 82.858216 254.850804
C 82.858216 255.320865 83.044973 255.771736 83.377356 256.104119
C 83.709739 256.436501 84.16061 256.623258 84.63067 256.623258
z
" style="stroke:#000000;stroke-width:0.886227;"/>
    <path clip-path="url(#pc6f4f39f04)" d="M 151.649906 78.886115
C 152.119966 78.886115 152.570837 78.699358 152.90322 78.366976
C 153.235603 78.034593 153.42236 77.583722 153.42236 77.113662
C 153.42236 76.643601 153.235603 76.19273 152.90322 75.860347
C 152.570837 75.527965 152.119966 75.341208 151.649906 75.341208
C 151.179846 75.341208 150.728975 75.527965 150.396592 75.860347
C 150.064209 76.19273 149.877452 76.643601 149.877452 77.113662
C 149.877452 77.583722 150.064209 78.034593 150.396592 78.366976
C 150.728975 78.699358 151.179846 78.886115 151.649906 78.886115
z
" style="stroke:#000000;stroke-width:0.886227;"/>
    <path clip-path="url(#pc6f4f39f04)" d="M 112.306693 148.006115
C 112.776754 148.006115 113.227625 147.819358 113.560007 147.486976
C 113.89239 147.154593 114.079147 146.703722 114.079147 146.233662
C 114.079147 145.763601 113.89239 145.31273 113.560007 144.980347
C 113.227625 144.647965 112.776754 144.461208 112.306693 144.461208
C 111.836633 144.461208 111.385762 144.647965 111.053379 144.980347
C 110.720996 145.31273 110.534239 145.763601 110.534239 146.233662
C 110.534239 146.703722 110.720996 147.154593 111.053379 147.486976
C 111.385762 147.819358 111.836633 148.006115 112.306693 148.006115
z
" style="stroke:#000000;stroke-width:0.886227;"/>
    <path clip-path="url(#pc6f4f39f04)" d="M 105.529458 167.754687
C 105.999518 167.754687 106.450389 167.56793 106.782772 167.235547
C 107.115155 166.903164 107.301911 166.452293 107.301911 165.982233
C 107.301911 165.512173 107.115155 165.061302 106.782772 164.728919
C 106.450389 164.396536 105.999518 164.209779 105.529458 164.209779
C 105.059397 164.209779 104.608526 164.396536 104.276144 164.728919
C 103.943761 165.061302 103.757004 165.512173 103.757004 165.982233
C 103.757004 166.452293 103.943761 166.903164 104.276144 167.235547
C 104.608526 167.56793 105.059397 167.754687 105.529458 167.754687
z
" style="stroke:#000000;stroke-width:0.886227;"/>
    <path clip-path="url(#pc6f4f39f04)" d="M 143.906397 93.697544
C 144.376457 93.697544 144.827328 93.510787 145.159711 93.178404
C 145.492094 92.846021 145.678851 92.39515 145.678851 91.92509
C 145.678851 91.45503 145.492094 91.004159 145.159711 90.671776
C 144.827328 90.339393 144.376457 90.152636 143.906397 90.152636
C 143.436337 90.152636 142.985466 90.339393 142.653083 90.671776
C 142.3207 91.004159 142.133943 91.45503 142.133943 91.92509
C 142.133943 92.39515 142.3207 92.846021 142.653083 93.178404
C 142.985466 93.510787 143.436337 93.697544 143.906397 93.697544
z
" style="stroke:#000000;stroke-width:0.886227;"/>
    <path clip-path="url(#pc6f4f39f04)" d="M 84.991122 251.686115
C 85.461182 251.686115 85.912053 251.499358 86.244436 251.166976
C 86.576819 250.834593 86.763576 250.383722 86.763576 249.913662
C 86.763576 249.443601 86.576819 248.99273 86.244436 248.660347
C 85.912053 248.327965 85.461182 248.141208 84.991122 248.141208
C 84.521062 248.141208 84.070191 248.327965 83.737808 248.660347
C 83.405425 248.99273 83.218668 249.443601 83.218668 249.913662
C 83.218668 250.383722 83.405425 250.834593 83.737808 251.166976
C 84.070191 251.499358 84.521062 251.686115 84.991122 251.686115
z
" style="stroke:#000000;stroke-width:0.886227;"/>
    <path clip-path="url(#pc6f4f39f04)" d="M 155.055062 73.948973
C 155.525123 73.948973 155.975994 73.762216 156.308377 73.429833
C 156.640759 73.09745 156.827516 72.646579 156.827516 72.176519
C 156.827516 71.706458 156.640759 71.255587 156.308377 70.923205
C 155.975994 70.590822 155.525123 70.404065 155.055062 70.404065
C 154.585002 70.404065 154.134131 70.590822 153.801748 70.923205
C 153.469365 71.255587 153.282609 71.706458 153.282609 72.176519
C 153.282609 72.646579 153.469365 73.09745 153.801748 73.429833
C 154.134131 73.762216 154.585002 73.948973 155.055062 73.948973
z
" style="stroke:#000000;stroke-width:0.886227;"/>
    <path clip-path="url(#pc6f4f39f04)" d="M 95.301035 212.188973
C 95.771095 212.188973 96.221966 212.002216 96.554349 211.669833
C 96.886732 211.33745 97.073489 210.886579 97.073489 210.416519
C 97.073489 209.946458 96.886732 209.495587 96.554349 209.163205
C 96.221966 208.830822 95.771095 208.644065 95.301035 208.644065
C 94.830975 208.644065 94.380104 208.830822 94.047721 209.163205
C 93.715338 209.495587 93.528581 209.946458 93.528581 210.416519
C 93.528581 210.886579 93.715338 211.33745 94.047721 211.669833
C 94.380104 212.002216 94.830975 212.188973 95.301035 212.188973
z
" style="stroke:#000000;stroke-width:0.886227;"/>
    <path clip-path="url(#pc6f4f39f04)" d="M 104.584362 172.69183
C 105.054422 172.69183 105.505293 172.505073 105.837676 172.17269
C 106.170059 171.840307 106.356816 171.389436 106.356816 170.919376
C 106.356816 170.449316 106.170059 169.998444 105.837676 169.666062
C 105.505293 169.333679 105.054422 169.146922 104.584362 169.146922
C 104.114302 169.146922 103.66343 169.333679 103.331048 169.666062
C 102.998665 169.998444 102.811908 170.449316 102.811908 170.919376
C 102.811908 171.389436 102.998665 171.840307 103.331048 172.17269
C 103.66343 172.505073 104.114302 172.69183 104.584362 172.69183
z
" style="stroke:#000000;stroke-width:0.886227;"/>
    <path clip-path="url(#pc6f4f39f04)" d="M 85.170305 246.748973
C 85.640365 246.748973 86.091236 246.562216 86.423619 246.229833
C 86.756002 245.89745 86.942759 245.446579 86.942759 244.976519
C 86.942759 244.506458 86.756002 244.055587 86.423619 243.723205
C 86.091236 243.390822 85.640365 243.204065 85.170305 243.204065
C 84.700245 243.204065 84.249374 243.390822 83.916991 243.723205
C 83.584608 244.055587 83.397851 244.506458 83.397851 244.976519
C 83.397851 245.446579 83.584608 245.89745 83.916991 246.229833
C 84.249374 246.562216 84.700245 246.748973 85.170305 246.748973
z
" style="stroke:#000000;stroke-width:0.886227;"/>
    <path clip-path="url(#pc6f4f39f04)" d="M 126.945567 108.508973
C 127.415628 108.508973 127.866499 108.322216 128.198881 107.989833
C 128.531264 107.65745 128.718021 107.206579 128.718021 106.736519
C 128.718021 106.266458 128.531264 105.815587 128.198881 105.483205
C 127.866499 105.150822 127.415628 104.964065 126.945567 104.964065
C 126.475507 104.964065 126.024636 105.150822 125.692253 105.483205
C 125.35987 105.815587 125.173113 106.266458 125.173113 106.736519
C 125.173113 107.206579 125.35987 107.65745 125.692253 107.989833
C 126.024636 108.322216 126.475507 108.508973 126.945567 108.508973
z
" style="stroke:#000000;stroke-width:0.886227;"/>
    <path clip-path="url(#pc6f4f39f04)" d="M 99.10705 192.440401
C 99.57711 192.440401 100.027981 192.253644 100.360364 191.921261
C 100.692747 191.588879 100.879504 191.138008 100.879504 190.667947
C 100.879504 190.197887 100.692747 189.747016 100.360364 189.414633
C 100.027981 189.08225 99.57711 188.895493 99.10705 188.895493
C 98.63699 188.895493 98.186119 189.08225 97.853736 189.414633
C 97.521353 189.747016 97.334596 190.197887 97.334596 190.667947
C 97.334596 191.138008 97.521353 191.588879 97.853736 191.921261
C 98.186119 192.253644 98.63699 192.440401 99.10705 192.440401
z
" style="stroke:#000000;stroke-width:0.886227;"/>
    <path clip-path="url(#pc6f4f39f04)" d="M 182.593342 54.200401
C 183.063402 54.200401 183.514273 54.013644 183.846656 53.681261
C 184.179039 53.348879 184.365796 52.898008 184.365796 52.427947
C 184.365796 51.957887 184.179039 51.507016 183.846656 51.174633
C 183.514273 50.84225 183.063402 50.655493 182.593342 50.655493
C 182.123282 50.655493 181.67241 50.84225 181.340028 51.174633
C 181.007645 51.507016 180.820888 51.957887 180.820888 52.427947
C 180.820888 52.898008 181.007645 53.348879 181.340028 53.681261
C 181.67241 54.013644 182.123282 54.200401 182.593342 54.200401
z
" style="stroke:#000000;stroke-width:0.886227;"/>
    <path clip-path="url(#pc6f4f39f04)" d="M 96.193273 207.25183
C 96.663333 207.25183 97.114204 207.065073 97.446587 206.73269
C 97.778969 206.400307 97.965726 205.949436 97.965726 205.479376
C 97.965726 205.009316 97.778969 204.558444 97.446587 204.226062
C 97.114204 203.893679 96.663333 203.706922 96.193273 203.706922
C 95.723212 203.706922 95.272341 203.893679 94.939958 204.226062
C 94.607576 204.558444 94.420819 205.009316 94.420819 205.479376
C 94.420819 205.949436 94.607576 206.400307 94.939958 206.73269
C 95.272341 207.065073 95.723212 207.25183 96.193273 207.25183
z
" style="stroke:#000000;stroke-width:0.886227;"/>
    <path clip-path="url(#pc6f4f39f04)" d="M 100.525884 182.566115
C 100.995944 182.566115 101.446815 182.379358 101.779198 182.046976
C 102.11158 181.714593 102.298337 181.263722 102.298337 180.793662
C 102.298337 180.323601 102.11158 179.87273 101.779198 179.540347
C 101.446815 179.207965 100.995944 179.021208 100.525884 179.021208
C 100.055823 179.021208 99.604952 179.207965 99.272569 179.540347
C 98.940187 179.87273 98.75343 180.323601 98.75343 180.793662
C 98.75343 181.263722 98.940187 181.714593 99.272569 182.046976
C 99.604952 182.379358 100.055823 182.566115 100.525884 182.566115
z
" style="stroke:#000000;stroke-width:0.886227;"/>
    <path clip-path="url(#pc6f4f39f04)" d="M 150.203824 83.823258
C 150.673884 83.823258 151.124755 83.636501 151.457138 83.304119
C 151.789521 82.971736 151.976277 82.520865 151.976277 82.050804
C 151.976277 81.580744 151.789521 81.129873 151.457138 80.79749
C 151.124755 80.465107 150.673884 80.278351 150.203824 80.278351
C 149.733763 80.278351 149.282892 80.465107 148.950509 80.79749
C 148.618127 81.129873 148.43137 81.580744 148.43137 82.050804
C 148.43137 82.520865 148.618127 82.971736 148.950509 83.304119
C 149.282892 83.636501 149.733763 83.823258 150.203824 83.823258
z
" style="stroke:#000000;stroke-width:0.886227;"/>
    <path clip-path="url(#pc6f4f39f04)" d="M 81.724112 271.434687
C 82.194172 271.434687 82.645043 271.24793 82.977426 270.915547
C 83.309809 270.583164 83.496566 270.132293 83.496566 269.662233
C 83.496566 269.192173 83.309809 268.741302 82.977426 268.408919
C 82.645043 268.076536 82.194172 267.889779 81.724112 267.889779
C 81.254051 267.889779 80.80318 268.076536 80.470798 268.408919
C 80.138415 268.741302 79.951658 269.192173 79.951658 269.662233
C 79.951658 270.132293 80.138415 270.583164 80.470798 270.915547
C 80.80318 271.24793 81.254051 271.434687 81.724112 271.434687
z
" style="stroke:#000000;stroke-width:0.886227;"/>
    <path clip-path="url(#pc6f4f39f04)" d="M 116.029638 128.257544
C 116.499698 128.257544 116.950569 128.070787 117.282952 127.738404
C 117.615335 127.406021 117.802092 126.95515 117.802092 126.48509
C 117.802092 126.01503 117.615335 125.564159 117.282952 125.231776
C 116.950569 124.899393 116.499698 124.712636 116.029638 124.712636
C 115.559578 124.712636 115.108707 124.899393 114.776324 125.231776
C 114.443941 125.564159 114.257184 126.01503 114.257184 126.48509
C 114.257184 126.95515 114.443941 127.406021 114.776324 127.738404
C 115.108707 128.070787 115.559578 128.257544 116.029638 128.257544
z
" style="stroke:#000000;stroke-width:0.886227;"/>
    <path clip-path="url(#pc6f4f39f04)" d="M 92.532168 222.063258
C 93.002228 222.063258 93.453099 221.876501 93.785482 221.544119
C 94.117865 221.211736 94.304621 220.760865 94.304621 220.290804
C 94.304621 219.820744 94.117865 219.369873 93.785482 219.03749
C 93.453099 218.705107 93.002228 218.518351 92.532168 218.518351
C 92.062107 218.518351 91.611236 218.705107 91.278853 219.03749
C 90.946471 219.369873 90.759714 219.820744 90.759714 220.290804
C 90.759714 220.760865 90.946471 221.211736 91.278853 221.544119
C 91.611236 221.876501 92.062107 222.063258 92.532168 222.063258
z
" style="stroke:#000000;stroke-width:0.886227;"/>
    <path clip-path="url(#pc6f4f39f04)" d="M 107.708101 157.880401
C 108.178161 157.880401 108.629032 157.693644 108.961415 157.361261
C 109.293798 157.028879 109.480555 156.578008 109.480555 156.107947
C 109.480555 155.637887 109.293798 155.187016 108.961415 154.854633
C 108.629032 154.52225 108.178161 154.335493 107.708101 154.335493
C 107.238041 154.335493 106.78717 154.52225 106.454787 154.854633
C 106.122404 155.187016 105.935647 155.637887 105.935647 156.107947
C 105.935647 156.578008 106.122404 157.028879 106.454787 157.361261
C 106.78717 157.693644 107.238041 157.880401 107.708101 157.880401
z
" style="stroke:#000000;stroke-width:0.886227;"/>
    <path clip-path="url(#pc6f4f39f04)" d="M 80.022558 276.37183
C 80.492618 276.37183 80.943489 276.185073 81.275872 275.85269
C 81.608255 275.520307 81.795012 275.069436 81.795012 274.599376
C 81.795012 274.129316 81.608255 273.678444 81.275872 273.346062
C 80.943489 273.013679 80.492618 272.826922 80.022558 272.826922
C 79.552498 272.826922 79.101627 273.013679 78.769244 273.346062
C 78.436861 273.678444 78.250104 274.129316 78.250104 274.599376
C 78.250104 275.069436 78.436861 275.520307 78.769244 275.85269
C 79.101627 276.185073 79.552498 276.37183 80.022558 276.37183
z
" style="stroke:#000000;stroke-width:0.886227;"/>
    <path clip-path="url(#pc6f4f39f04)" d="M 168.224155 59.137544
C 168.694215 59.137544 169.145086 58.950787 169.477469 58.618404
C 169.809852 58.286021 169.996609 57.83515 169.996609 57.36509
C 169.996609 56.89503 169.809852 56.444159 169.477469 56.111776
C 169.145086 55.779393 168.694215 55.592636 168.224155 55.592636
C 167.754095 55.592636 167.303224 55.779393 166.970841 56.111776
C 166.638458 56.444159 166.451701 56.89503 166.451701 57.36509
C 166.451701 57.83515 166.638458 58.286021 166.970841 58.618404
C 167.303224 58.950787 167.754095 59.137544 168.224155 59.137544
z
" style="stroke:#000000;stroke-width:0.886227;"/>
    <path clip-path="url(#pc6f4f39f04)" d="M 112.600857 143.068973
C 113.070917 143.068973 113.521788 142.882216 113.854171 142.549833
C 114.186554 142.21745 114.373311 141.766579 114.373311 141.296519
C 114.373311 140.826458 114.186554 140.375587 113.854171 140.043205
C 113.521788 139.710822 113.070917 139.524065 112.600857 139.524065
C 112.130797 139.524065 111.679925 139.710822 111.347543 140.043205
C 111.01516 140.375587 110.828403 140.826458 110.828403 141.296519
C 110.828403 141.766579 111.01516 142.21745 111.347543 142.549833
C 111.679925 142.882216 112.130797 143.068973 112.600857 143.068973
z
" style="stroke:#000000;stroke-width:0.886227;"/>
    <path clip-path="url(#pc6f4f39f04)" d="M 94.40174 217.126115
C 94.8718 217.126115 95.322672 216.939358 95.655054 216.606976
C 95.987437 216.274593 96.174194 215.823722 96.174194 215.353662
C 96.174194 214.883601 95.987437 214.43273 95.655054 214.100347
C 95.322672 213.767965 94.8718 213.581208 94.40174 213.581208
C 93.93168 213.581208 93.480809 213.767965 93.148426 214.100347
C 92.816043 214.43273 92.629286 214.883601 92.629286 215.353662
C 92.629286 215.823722 92.816043 216.274593 93.148426 216.606976
C 93.480809 216.939358 93.93168 217.126115 94.40174 217.126115
z
" style="stroke:#000000;stroke-width:0.886227;"/>
    <path clip-path="url(#pc6f4f39f04)" d="M 99.822789 187.503258
C 100.292849 187.503258 100.74372 187.316501 101.076103 186.984119
C 101.408486 186.651736 101.595243 186.200865 101.595243 185.730804
C 101.595243 185.260744 101.408486 184.809873 101.076103 184.47749
C 100.74372 184.145107 100.292849 183.958351 99.822789 183.958351
C 99.352729 183.958351 98.901858 184.145107 98.569475 184.47749
C 98.237092 184.809873 98.050335 185.260744 98.050335 185.730804
C 98.050335 186.200865 98.237092 186.651736 98.569475 186.984119
C 98.901858 187.316501 99.352729 187.503258 99.822789 187.503258
z
" style="stroke:#000000;stroke-width:0.886227;"/>
    <path clip-path="url(#pc6f4f39f04)" d="M 115.315438 138.13183
C 115.785499 138.13183 116.23637 137.945073 116.568752 137.61269
C 116.901135 137.280307 117.087892 136.829436 117.087892 136.359376
C 117.087892 135.889316 116.901135 135.438444 116.568752 135.106062
C 116.23637 134.773679 115.785499 134.586922 115.315438 134.586922
C 114.845378 134.586922 114.394507 134.773679 114.062124 135.106062
C 113.729741 135.438444 113.542985 135.889316 113.542985 136.359376
C 113.542985 136.829436 113.729741 137.280307 114.062124 137.61269
C 114.394507 137.945073 114.845378 138.13183 115.315438 138.13183
z
" style="stroke:#000000;stroke-width:0.886227;"/>
    <path clip-path="url(#pc6f4f39f04)" d="M 107.176831 162.817544
C 107.646891 162.817544 108.097762 162.630787 108.430145 162.298404
C 108.762528 161.966021 108.949285 161.51515 108.949285 161.04509
C 108.949285 160.57503 108.762528 160.124159 108.430145 159.791776
C 108.097762 159.459393 107.646891 159.272636 107.176831 159.272636
C 106.70677 159.272636 106.255899 159.459393 105.923517 159.791776
C 105.591134 160.124159 105.404377 160.57503 105.404377 161.04509
C 105.404377 161.51515 105.591134 161.966021 105.923517 162.298404
C 106.255899 162.630787 106.70677 162.817544 107.176831 162.817544
z
" style="stroke:#000000;stroke-width:0.886227;"/>
    <path clip-path="url(#pc6f4f39f04)" d="M 82.89389 261.560401
C 83.36395 261.560401 83.814821 261.373644 84.147204 261.041261
C 84.479587 260.708879 84.666344 260.258008 84.666344 259.787947
C 84.666344 259.317887 84.479587 258.867016 84.147204 258.534633
C 83.814821 258.20225 83.36395 258.015493 82.89389 258.015493
C 82.42383 258.015493 81.972958 258.20225 81.640576 258.534633
C 81.308193 258.867016 81.121436 259.317887 81.121436 259.787947
C 81.121436 260.258008 81.308193 260.708879 81.640576 261.041261
C 81.972958 261.373644 82.42383 261.560401 82.89389 261.560401
z
" style="stroke:#000000;stroke-width:0.886227;"/>
    <path clip-path="url(#pc6f4f39f04)" d="M 115.758088 133.194687
C 116.228149 133.194687 116.67902 133.00793 117.011402 132.675547
C 117.343785 132.343164 117.530542 131.892293 117.530542 131.422233
C 117.530542 130.952173 117.343785 130.501302 117.011402 130.168919
C 116.67902 129.836536 116.228149 129.649779 115.758088 129.649779
C 115.288028 129.649779 114.837157 129.836536 114.504774 130.168919
C 114.172391 130.501302 113.985634 130.952173 113.985634 131.422233
C 113.985634 131.892293 114.172391 132.343164 114.504774 132.675547
C 114.837157 133.00793 115.288028 133.194687 115.758088 133.194687
z
" style="stroke:#000000;stroke-width:0.886227;"/>
    <path clip-path="url(#pc6f4f39f04)" d="M 88.849356 236.874687
C 89.319417 236.874687 89.770288 236.68793 90.10267 236.355547
C 90.435053 236.023164 90.62181 235.572293 90.62181 235.102233
C 90.62181 234.632173 90.435053 234.181302 90.10267 233.848919
C 89.770288 233.516536 89.319417 233.329779 88.849356 233.329779
C 88.379296 233.329779 87.928425 233.516536 87.596042 233.848919
C 87.263659 234.181302 87.076902 234.632173 87.076902 235.102233
C 87.076902 235.572293 87.263659 236.023164 87.596042 236.355547
C 87.928425 236.68793 88.379296 236.874687 88.849356 236.874687
z
" style="stroke:#000000;stroke-width:0.886227;"/>
    <path clip-path="url(#pc6f4f39f04)" d="M 122.560571 118.383258
C 123.030631 118.383258 123.481502 118.196501 123.813885 117.864119
C 124.146268 117.531736 124.333025 117.080865 124.333025 116.610804
C 124.333025 116.140744 124.146268 115.689873 123.813885 115.35749
C 123.481502 115.025107 123.030631 114.838351 122.560571 114.838351
C 122.090511 114.838351 121.63964 115.025107 121.307257 115.35749
C 120.974874 115.689873 120.788117 116.140744 120.788117 116.610804
C 120.788117 117.080865 120.974874 117.531736 121.307257 117.864119
C 121.63964 118.196501 122.090511 118.383258 122.560571 118.383258
z
" style="stroke:#000000;stroke-width:0.886227;"/>
    <path clip-path="url(#pc6f4f39f04)" d="M 126.930295 113.446115
C 127.400355 113.446115 127.851226 113.259358 128.183609 112.926976
C 128.515992 112.594593 128.702749 112.143722 128.702749 111.673662
C 128.702749 111.203601 128.515992 110.75273 128.183609 110.420347
C 127.851226 110.087965 127.400355 109.901208 126.930295 109.901208
C 126.460235 109.901208 126.009363 110.087965 125.676981 110.420347
C 125.344598 110.75273 125.157841 111.203601 125.157841 111.673662
C 125.157841 112.143722 125.344598 112.594593 125.676981 112.926976
C 126.009363 113.259358 126.460235 113.446115 126.930295 113.446115
z
" style="stroke:#000000;stroke-width:0.886227;"/>
    <path clip-path="url(#pc6f4f39f04)" d="M 111.53946 152.943258
C 112.00952 152.943258 112.460391 152.756501 112.792774 152.424119
C 113.125157 152.091736 113.311914 151.640865 113.311914 151.170804
C 113.311914 150.700744 113.125157 150.249873 112.792774 149.91749
C 112.460391 149.585107 112.00952 149.398351 111.53946 149.398351
C 111.0694 149.398351 110.618529 149.585107 110.286146 149.91749
C 109.953763 150.249873 109.767006 150.700744 109.767006 151.170804
C 109.767006 151.640865 109.953763 152.091736 110.286146 152.424119
C 110.618529 152.756501 111.0694 152.943258 111.53946 152.943258
z
" style="stroke:#000000;stroke-width:0.886227;"/>
   </g>
   <g id="PathCollection_2">
    <path clip-path="url(#pc6f4f39f04)" d="M 222.109012 34.45183
C 222.579072 34.45183 223.029943 34.265073 223.362326 33.93269
C 223.694709 33.600307 223.881466 33.149436 223.881466 32.679376
C 223.881466 32.209316 223.694709 31.758444 223.362326 31.426062
C 223.029943 31.093679 222.579072 30.906922 222.109012 30.906922
C 221.638951 30.906922 221.18808 31.093679 220.855698 31.426062
C 220.523315 31.758444 220.336558 32.209316 220.336558 32.679376
C 220.336558 33.149436 220.523315 33.600307 220.855698 33.93269
C 221.18808 34.265073 221.638951 34.45183 222.109012 34.45183
z
" style="fill:#ff0000;stroke:#ff0000;stroke-width:0.886227;"/>
    <path clip-path="url(#pc6f4f39f04)" d="M 210.58799 44.326115
C 211.05805 44.326115 211.508921 44.139358 211.841304 43.806976
C 212.173687 43.474593 212.360444 43.023722 212.360444 42.553662
C 212.360444 42.083601 212.173687 41.63273 211.841304 41.300347
C 211.508921 40.967965 211.05805 40.781208 210.58799 40.781208
C 210.11793 40.781208 209.667059 40.967965 209.334676 41.300347
C 209.002293 41.63273 208.815536 42.083601 208.815536 42.553662
C 208.815536 43.023722 209.002293 43.474593 209.334676 43.806976
C 209.667059 44.139358 210.11793 44.326115 210.58799 44.326115
z
" style="fill:#ff0000;stroke:#ff0000;stroke-width:0.886227;"/>
    <path clip-path="url(#pc6f4f39f04)" d="M 220.200516 39.388973
C 220.670576 39.388973 221.121447 39.202216 221.45383 38.869833
C 221.786213 38.53745 221.97297 38.086579 221.97297 37.616519
C 221.97297 37.146458 221.786213 36.695587 221.45383 36.363205
C 221.121447 36.030822 220.670576 35.844065 220.200516 35.844065
C 219.730455 35.844065 219.279584 36.030822 218.947202 36.363205
C 218.614819 36.695587 218.428062 37.146458 218.428062 37.616519
C 218.428062 38.086579 218.614819 38.53745 218.947202 38.869833
C 219.279584 39.202216 219.730455 39.388973 220.200516 39.388973
z
" style="fill:#ff0000;stroke:#ff0000;stroke-width:0.886227;"/>
    <path clip-path="url(#pc6f4f39f04)" d="M 191.246404 49.263258
C 191.716465 49.263258 192.167336 49.076501 192.499718 48.744119
C 192.832101 48.411736 193.018858 47.960865 193.018858 47.490804
C 193.018858 47.020744 192.832101 46.569873 192.499718 46.23749
C 192.167336 45.905107 191.716465 45.718351 191.246404 45.718351
C 190.776344 45.718351 190.325473 45.905107 189.99309 46.23749
C 189.660707 46.569873 189.47395 47.020744 189.47395 47.490804
C 189.47395 47.960865 189.660707 48.411736 189.99309 48.744119
C 190.325473 49.076501 190.776344 49.263258 191.246404 49.263258
z
" style="fill:#ff0000;stroke:#ff0000;stroke-width:0.886227;"/>
    <path clip-path="url(#pc6f4f39f04)" d="M 182.593342 54.200401
C 183.063402 54.200401 183.514273 54.013644 183.846656 53.681261
C 184.179039 53.348879 184.365796 52.898008 184.365796 52.427947
C 184.365796 51.957887 184.179039 51.507016 183.846656 51.174633
C 183.514273 50.84225 183.063402 50.655493 182.593342 50.655493
C 182.123282 50.655493 181.67241 50.84225 181.340028 51.174633
C 181.007645 51.507016 180.820888 51.957887 180.820888 52.427947
C 180.820888 52.898008 181.007645 53.348879 181.340028 53.681261
C 181.67241 54.013644 182.123282 54.200401 182.593342 54.200401
z
" style="fill:#ff0000;stroke:#ff0000;stroke-width:0.886227;"/>
   </g>
   <g id="text_13">
    <g clip-path="url(#pc6f4f39f04)">
     <!-- HALLMARK_MYC_TARGETS_V1 -->
     <defs>
      <path d="M 9.8125 72.90625
L 19.671875 72.90625
L 19.671875 43.015625
L 55.515625 43.015625
L 55.515625 72.90625
L 65.375 72.90625
L 65.375 0
L 55.515625 0
L 55.515625 34.71875
L 19.671875 34.71875
L 19.671875 0
L 9.8125 0
z
" id="DejaVuSans-72"/>
      <path d="M 34.1875 63.1875
L 20.796875 26.90625
L 47.609375 26.90625
z
M 28.609375 72.90625
L 39.796875 72.90625
L 67.578125 0
L 57.328125 0
L 50.6875 18.703125
L 17.828125 18.703125
L 11.1875 0
L 0.78125 0
z
" id="DejaVuSans-65"/>
      <path d="M 9.8125 72.90625
L 19.671875 72.90625
L 19.671875 8.296875
L 55.171875 8.296875
L 55.171875 0
L 9.8125 0
z
" id="DejaVuSans-76"/>
      <path d="M 44.390625 34.1875
Q 47.5625 33.109375 50.5625 29.59375
Q 53.5625 26.078125 56.59375 19.921875
L 66.609375 0
L 56 0
L 46.6875 18.703125
Q 43.0625 26.03125 39.671875 28.421875
Q 36.28125 30.8125 30.421875 30.8125
L 19.671875 30.8125
L 19.671875 0
L 9.8125 0
L 9.8125 72.90625
L 32.078125 72.90625
Q 44.578125 72.90625 50.734375 67.671875
Q 56.890625 62.453125 56.890625 51.90625
Q 56.890625 45.015625 53.6875 40.46875
Q 50.484375 35.9375 44.390625 34.1875
z
M 19.671875 64.796875
L 19.671875 38.921875
L 32.078125 38.921875
Q 39.203125 38.921875 42.84375 42.21875
Q 46.484375 45.515625 46.484375 51.90625
Q 46.484375 58.296875 42.84375 61.546875
Q 39.203125 64.796875 32.078125 64.796875
z
" id="DejaVuSans-82"/>
      <path d="M 9.8125 72.90625
L 19.671875 72.90625
L 19.671875 42.09375
L 52.390625 72.90625
L 65.09375 72.90625
L 28.90625 38.921875
L 67.671875 0
L 54.6875 0
L 19.671875 35.109375
L 19.671875 0
L 9.8125 0
z
" id="DejaVuSans-75"/>
      <path d="M 50.984375 -16.609375
L 50.984375 -23.578125
L -0.984375 -23.578125
L -0.984375 -16.609375
z
" id="DejaVuSans-95"/>
      <path d="M -0.203125 72.90625
L 10.40625 72.90625
L 30.609375 42.921875
L 50.6875 72.90625
L 61.28125 72.90625
L 35.5 34.71875
L 35.5 0
L 25.59375 0
L 25.59375 34.71875
z
" id="DejaVuSans-89"/>
      <path d="M 64.40625 67.28125
L 64.40625 56.890625
Q 59.421875 61.53125 53.78125 63.8125
Q 48.140625 66.109375 41.796875 66.109375
Q 29.296875 66.109375 22.65625 58.46875
Q 16.015625 50.828125 16.015625 36.375
Q 16.015625 21.96875 22.65625 14.328125
Q 29.296875 6.6875 41.796875 6.6875
Q 48.140625 6.6875 53.78125 8.984375
Q 59.421875 11.28125 64.40625 15.921875
L 64.40625 5.609375
Q 59.234375 2.09375 53.4375 0.328125
Q 47.65625 -1.421875 41.21875 -1.421875
Q 24.65625 -1.421875 15.125 8.703125
Q 5.609375 18.84375 5.609375 36.375
Q 5.609375 53.953125 15.125 64.078125
Q 24.65625 74.21875 41.21875 74.21875
Q 47.75 74.21875 53.53125 72.484375
Q 59.328125 70.75 64.40625 67.28125
z
" id="DejaVuSans-67"/>
      <path d="M -0.296875 72.90625
L 61.375 72.90625
L 61.375 64.59375
L 35.5 64.59375
L 35.5 0
L 25.59375 0
L 25.59375 64.59375
L -0.296875 64.59375
z
" id="DejaVuSans-84"/>
      <path d="M 53.515625 70.515625
L 53.515625 60.890625
Q 47.90625 63.578125 42.921875 64.890625
Q 37.9375 66.21875 33.296875 66.21875
Q 25.25 66.21875 20.875 63.09375
Q 16.5 59.96875 16.5 54.203125
Q 16.5 49.359375 19.40625 46.890625
Q 22.3125 44.4375 30.421875 42.921875
L 36.375 41.703125
Q 47.40625 39.59375 52.65625 34.296875
Q 57.90625 29 57.90625 20.125
Q 57.90625 9.515625 50.796875 4.046875
Q 43.703125 -1.421875 29.984375 -1.421875
Q 24.8125 -1.421875 18.96875 -0.25
Q 13.140625 0.921875 6.890625 3.21875
L 6.890625 13.375
Q 12.890625 10.015625 18.65625 8.296875
Q 24.421875 6.59375 29.984375 6.59375
Q 38.421875 6.59375 43.015625 9.90625
Q 47.609375 13.234375 47.609375 19.390625
Q 47.609375 24.75 44.3125 27.78125
Q 41.015625 30.8125 33.5 32.328125
L 27.484375 33.5
Q 16.453125 35.6875 11.515625 40.375
Q 6.59375 45.0625 6.59375 53.421875
Q 6.59375 63.09375 13.40625 68.65625
Q 20.21875 74.21875 32.171875 74.21875
Q 37.3125 74.21875 42.625 73.28125
Q 47.953125 72.359375 53.515625 70.515625
z
" id="DejaVuSans-83"/>
      <path d="M 28.609375 0
L 0.78125 72.90625
L 11.078125 72.90625
L 34.1875 11.53125
L 57.328125 72.90625
L 67.578125 72.90625
L 39.796875 0
z
" id="DejaVuSans-86"/>
     </defs>
     <g transform="translate(222.109012 36.390313)scale(0.05 -0.05)">
      <use xlink:href="#DejaVuSans-72"/>
      <use x="75.195312" xlink:href="#DejaVuSans-65"/>
      <use x="143.603516" xlink:href="#DejaVuSans-76"/>
      <use x="199.316406" xlink:href="#DejaVuSans-76"/>
      <use x="255.029297" xlink:href="#DejaVuSans-77"/>
      <use x="341.308594" xlink:href="#DejaVuSans-65"/>
      <use x="409.716797" xlink:href="#DejaVuSans-82"/>
      <use x="479.199219" xlink:href="#DejaVuSans-75"/>
      <use x="544.775391" xlink:href="#DejaVuSans-95"/>
      <use x="594.775391" xlink:href="#DejaVuSans-77"/>
      <use x="681.054688" xlink:href="#DejaVuSans-89"/>
      <use x="742.060547" xlink:href="#DejaVuSans-67"/>
      <use x="811.884766" xlink:href="#DejaVuSans-95"/>
      <use x="861.884766" xlink:href="#DejaVuSans-84"/>
      <use x="922.859375" xlink:href="#DejaVuSans-65"/>
      <use x="991.267578" xlink:href="#DejaVuSans-82"/>
      <use x="1060.75" xlink:href="#DejaVuSans-71"/>
      <use x="1138.240234" xlink:href="#DejaVuSans-69"/>
      <use x="1201.423828" xlink:href="#DejaVuSans-84"/>
      <use x="1262.507812" xlink:href="#DejaVuSans-83"/>
      <use x="1325.984375" xlink:href="#DejaVuSans-95"/>
      <use x="1375.984375" xlink:href="#DejaVuSans-86"/>
      <use x="1444.392578" xlink:href="#DejaVuSans-49"/>
     </g>
    </g>
   </g>
   <g id="text_14">
    <g clip-path="url(#pc6f4f39f04)">
     <!-- HALLMARK_MYC_TARGETS_V2 -->
     <g transform="translate(210.58799 46.264599)scale(0.05 -0.05)">
      <use xlink:href="#DejaVuSans-72"/>
      <use x="75.195312" xlink:href="#DejaVuSans-65"/>
      <use x="143.603516" xlink:href="#DejaVuSans-76"/>
      <use x="199.316406" xlink:href="#DejaVuSans-76"/>
      <use x="255.029297" xlink:href="#DejaVuSans-77"/>
      <use x="341.308594" xlink:href="#DejaVuSans-65"/>
      <use x="409.716797" xlink:href="#DejaVuSans-82"/>
      <use x="479.199219" xlink:href="#DejaVuSans-75"/>
      <use x="544.775391" xlink:href="#DejaVuSans-95"/>
      <use x="594.775391" xlink:href="#DejaVuSans-77"/>
      <use x="681.054688" xlink:href="#DejaVuSans-89"/>
      <use x="742.060547" xlink:href="#DejaVuSans-67"/>
      <use x="811.884766" xlink:href="#DejaVuSans-95"/>
      <use x="861.884766" xlink:href="#DejaVuSans-84"/>
      <use x="922.859375" xlink:href="#DejaVuSans-65"/>
      <use x="991.267578" xlink:href="#DejaVuSans-82"/>
      <use x="1060.75" xlink:href="#DejaVuSans-71"/>
      <use x="1138.240234" xlink:href="#DejaVuSans-69"/>
      <use x="1201.423828" xlink:href="#DejaVuSans-84"/>
      <use x="1262.507812" xlink:href="#DejaVuSans-83"/>
      <use x="1325.984375" xlink:href="#DejaVuSans-95"/>
      <use x="1375.984375" xlink:href="#DejaVuSans-86"/>
      <use x="1444.392578" xlink:href="#DejaVuSans-50"/>
     </g>
    </g>
   </g>
   <g id="text_15">
    <g clip-path="url(#pc6f4f39f04)">
     <!-- HALLMARK_E2F_TARGETS -->
     <defs>
      <path d="M 9.8125 72.90625
L 51.703125 72.90625
L 51.703125 64.59375
L 19.671875 64.59375
L 19.671875 43.109375
L 48.578125 43.109375
L 48.578125 34.8125
L 19.671875 34.8125
L 19.671875 0
L 9.8125 0
z
" id="DejaVuSans-70"/>
     </defs>
     <g transform="translate(220.200516 41.327456)scale(0.05 -0.05)">
      <use xlink:href="#DejaVuSans-72"/>
      <use x="75.195312" xlink:href="#DejaVuSans-65"/>
      <use x="143.603516" xlink:href="#DejaVuSans-76"/>
      <use x="199.316406" xlink:href="#DejaVuSans-76"/>
      <use x="255.029297" xlink:href="#DejaVuSans-77"/>
      <use x="341.308594" xlink:href="#DejaVuSans-65"/>
      <use x="409.716797" xlink:href="#DejaVuSans-82"/>
      <use x="479.199219" xlink:href="#DejaVuSans-75"/>
      <use x="544.775391" xlink:href="#DejaVuSans-95"/>
      <use x="594.775391" xlink:href="#DejaVuSans-69"/>
      <use x="657.958984" xlink:href="#DejaVuSans-50"/>
      <use x="721.582031" xlink:href="#DejaVuSans-70"/>
      <use x="779.101562" xlink:href="#DejaVuSans-95"/>
      <use x="829.101562" xlink:href="#DejaVuSans-84"/>
      <use x="890.076172" xlink:href="#DejaVuSans-65"/>
      <use x="958.484375" xlink:href="#DejaVuSans-82"/>
      <use x="1027.966797" xlink:href="#DejaVuSans-71"/>
      <use x="1105.457031" xlink:href="#DejaVuSans-69"/>
      <use x="1168.640625" xlink:href="#DejaVuSans-84"/>
      <use x="1229.724609" xlink:href="#DejaVuSans-83"/>
     </g>
    </g>
   </g>
   <g id="text_16">
    <g clip-path="url(#pc6f4f39f04)">
     <!-- HALLMARK_G2M_CHECKPOINT -->
     <defs>
      <path d="M 19.671875 64.796875
L 19.671875 37.40625
L 32.078125 37.40625
Q 38.96875 37.40625 42.71875 40.96875
Q 46.484375 44.53125 46.484375 51.125
Q 46.484375 57.671875 42.71875 61.234375
Q 38.96875 64.796875 32.078125 64.796875
z
M 9.8125 72.90625
L 32.078125 72.90625
Q 44.34375 72.90625 50.609375 67.359375
Q 56.890625 61.8125 56.890625 51.125
Q 56.890625 40.328125 50.609375 34.8125
Q 44.34375 29.296875 32.078125 29.296875
L 19.671875 29.296875
L 19.671875 0
L 9.8125 0
z
" id="DejaVuSans-80"/>
      <path d="M 39.40625 66.21875
Q 28.65625 66.21875 22.328125 58.203125
Q 16.015625 50.203125 16.015625 36.375
Q 16.015625 22.609375 22.328125 14.59375
Q 28.65625 6.59375 39.40625 6.59375
Q 50.140625 6.59375 56.421875 14.59375
Q 62.703125 22.609375 62.703125 36.375
Q 62.703125 50.203125 56.421875 58.203125
Q 50.140625 66.21875 39.40625 66.21875
z
M 39.40625 74.21875
Q 54.734375 74.21875 63.90625 63.9375
Q 73.09375 53.65625 73.09375 36.375
Q 73.09375 19.140625 63.90625 8.859375
Q 54.734375 -1.421875 39.40625 -1.421875
Q 24.03125 -1.421875 14.8125 8.828125
Q 5.609375 19.09375 5.609375 36.375
Q 5.609375 53.65625 14.8125 63.9375
Q 24.03125 74.21875 39.40625 74.21875
z
" id="DejaVuSans-79"/>
      <path d="M 9.8125 72.90625
L 19.671875 72.90625
L 19.671875 0
L 9.8125 0
z
" id="DejaVuSans-73"/>
      <path d="M 9.8125 72.90625
L 23.09375 72.90625
L 55.421875 11.921875
L 55.421875 72.90625
L 64.984375 72.90625
L 64.984375 0
L 51.703125 0
L 19.390625 60.984375
L 19.390625 0
L 9.8125 0
z
" id="DejaVuSans-78"/>
     </defs>
     <g transform="translate(191.246404 51.201742)scale(0.05 -0.05)">
      <use xlink:href="#DejaVuSans-72"/>
      <use x="75.195312" xlink:href="#DejaVuSans-65"/>
      <use x="143.603516" xlink:href="#DejaVuSans-76"/>
      <use x="199.316406" xlink:href="#DejaVuSans-76"/>
      <use x="255.029297" xlink:href="#DejaVuSans-77"/>
      <use x="341.308594" xlink:href="#DejaVuSans-65"/>
      <use x="409.716797" xlink:href="#DejaVuSans-82"/>
      <use x="479.199219" xlink:href="#DejaVuSans-75"/>
      <use x="544.775391" xlink:href="#DejaVuSans-95"/>
      <use x="594.775391" xlink:href="#DejaVuSans-71"/>
      <use x="672.265625" xlink:href="#DejaVuSans-50"/>
      <use x="735.888672" xlink:href="#DejaVuSans-77"/>
      <use x="822.167969" xlink:href="#DejaVuSans-95"/>
      <use x="872.167969" xlink:href="#DejaVuSans-67"/>
      <use x="941.992188" xlink:href="#DejaVuSans-72"/>
      <use x="1017.1875" xlink:href="#DejaVuSans-69"/>
      <use x="1080.371094" xlink:href="#DejaVuSans-67"/>
      <use x="1150.195312" xlink:href="#DejaVuSans-75"/>
      <use x="1215.771484" xlink:href="#DejaVuSans-80"/>
      <use x="1276.074219" xlink:href="#DejaVuSans-79"/>
      <use x="1354.785156" xlink:href="#DejaVuSans-73"/>
      <use x="1384.277344" xlink:href="#DejaVuSans-78"/>
      <use x="1459.082031" xlink:href="#DejaVuSans-84"/>
     </g>
    </g>
   </g>
   <g id="text_17">
    <g clip-path="url(#pc6f4f39f04)">
     <!-- HALLMARK_DNA_REPAIR -->
     <defs>
      <path d="M 19.671875 64.796875
L 19.671875 8.109375
L 31.59375 8.109375
Q 46.6875 8.109375 53.6875 14.9375
Q 60.6875 21.78125 60.6875 36.53125
Q 60.6875 51.171875 53.6875 57.984375
Q 46.6875 64.796875 31.59375 64.796875
z
M 9.8125 72.90625
L 30.078125 72.90625
Q 51.265625 72.90625 61.171875 64.09375
Q 71.09375 55.28125 71.09375 36.53125
Q 71.09375 17.671875 61.125 8.828125
Q 51.171875 0 30.078125 0
L 9.8125 0
z
" id="DejaVuSans-68"/>
     </defs>
     <g transform="translate(182.593342 56.088103)scale(0.05 -0.05)">
      <use xlink:href="#DejaVuSans-72"/>
      <use x="75.195312" xlink:href="#DejaVuSans-65"/>
      <use x="143.603516" xlink:href="#DejaVuSans-76"/>
      <use x="199.316406" xlink:href="#DejaVuSans-76"/>
      <use x="255.029297" xlink:href="#DejaVuSans-77"/>
      <use x="341.308594" xlink:href="#DejaVuSans-65"/>
      <use x="409.716797" xlink:href="#DejaVuSans-82"/>
      <use x="479.199219" xlink:href="#DejaVuSans-75"/>
      <use x="544.775391" xlink:href="#DejaVuSans-95"/>
      <use x="594.775391" xlink:href="#DejaVuSans-68"/>
      <use x="671.777344" xlink:href="#DejaVuSans-78"/>
      <use x="746.582031" xlink:href="#DejaVuSans-65"/>
      <use x="814.990234" xlink:href="#DejaVuSans-95"/>
      <use x="864.990234" xlink:href="#DejaVuSans-82"/>
      <use x="934.472656" xlink:href="#DejaVuSans-69"/>
      <use x="997.65625" xlink:href="#DejaVuSans-80"/>
      <use x="1057.865234" xlink:href="#DejaVuSans-65"/>
      <use x="1126.273438" xlink:href="#DejaVuSans-73"/>
      <use x="1155.765625" xlink:href="#DejaVuSans-82"/>
     </g>
    </g>
   </g>
  </g>
  <g id="text_18">
   <!-- GSVA pathway statistics vs ranking -->
   <defs>
    <path d="M 4.203125 54.6875
L 13.1875 54.6875
L 24.421875 12.015625
L 35.59375 54.6875
L 46.1875 54.6875
L 57.421875 12.015625
L 68.609375 54.6875
L 77.59375 54.6875
L 63.28125 0
L 52.6875 0
L 40.921875 44.828125
L 29.109375 0
L 18.5 0
z
" id="DejaVuSans-119"/>
    <path d="M 32.171875 -5.078125
Q 28.375 -14.84375 24.75 -17.8125
Q 21.140625 -20.796875 15.09375 -20.796875
L 7.90625 -20.796875
L 7.90625 -13.28125
L 13.1875 -13.28125
Q 16.890625 -13.28125 18.9375 -11.515625
Q 21 -9.765625 23.484375 -3.21875
L 25.09375 0.875
L 2.984375 54.6875
L 12.5 54.6875
L 29.59375 11.921875
L 46.6875 54.6875
L 56.203125 54.6875
z
" id="DejaVuSans-121"/>
    <path d="M 2.984375 54.6875
L 12.5 54.6875
L 29.59375 8.796875
L 46.6875 54.6875
L 56.203125 54.6875
L 35.6875 0
L 23.484375 0
z
" id="DejaVuSans-118"/>
   </defs>
   <g transform="translate(86.843281 11.397656)scale(0.15 -0.15)">
    <use xlink:href="#DejaVuSans-71"/>
    <use x="77.490234" xlink:href="#DejaVuSans-83"/>
    <use x="140.966797" xlink:href="#DejaVuSans-86"/>
    <use x="209.28125" xlink:href="#DejaVuSans-65"/>
    <use x="277.689453" xlink:href="#DejaVuSans-32"/>
    <use x="309.476562" xlink:href="#DejaVuSans-112"/>
    <use x="372.953125" xlink:href="#DejaVuSans-97"/>
    <use x="434.232422" xlink:href="#DejaVuSans-116"/>
    <use x="473.441406" xlink:href="#DejaVuSans-104"/>
    <use x="536.820312" xlink:href="#DejaVuSans-119"/>
    <use x="618.607422" xlink:href="#DejaVuSans-97"/>
    <use x="679.886719" xlink:href="#DejaVuSans-121"/>
    <use x="739.066406" xlink:href="#DejaVuSans-32"/>
    <use x="770.853516" xlink:href="#DejaVuSans-115"/>
    <use x="822.953125" xlink:href="#DejaVuSans-116"/>
    <use x="862.162109" xlink:href="#DejaVuSans-97"/>
    <use x="923.441406" xlink:href="#DejaVuSans-116"/>
    <use x="962.650391" xlink:href="#DejaVuSans-105"/>
    <use x="990.433594" xlink:href="#DejaVuSans-115"/>
    <use x="1042.533203" xlink:href="#DejaVuSans-116"/>
    <use x="1081.742188" xlink:href="#DejaVuSans-105"/>
    <use x="1109.525391" xlink:href="#DejaVuSans-99"/>
    <use x="1164.505859" xlink:href="#DejaVuSans-115"/>
    <use x="1216.605469" xlink:href="#DejaVuSans-32"/>
    <use x="1248.392578" xlink:href="#DejaVuSans-118"/>
    <use x="1307.572266" xlink:href="#DejaVuSans-115"/>
    <use x="1359.671875" xlink:href="#DejaVuSans-32"/>
    <use x="1391.458984" xlink:href="#DejaVuSans-114"/>
    <use x="1432.572266" xlink:href="#DejaVuSans-97"/>
    <use x="1493.851562" xlink:href="#DejaVuSans-110"/>
    <use x="1557.230469" xlink:href="#DejaVuSans-107"/>
    <use x="1615.140625" xlink:href="#DejaVuSans-105"/>
    <use x="1642.923828" xlink:href="#DejaVuSans-110"/>
    <use x="1706.302734" xlink:href="#DejaVuSans-103"/>
   </g>
  </g>
 </g>
 <defs>
  <clipPath id="pc6f4f39f04">
   <rect height="266.112" width="357.12" x="46.772188" y="20.583376"/>
  </clipPath>
 </defs>
</svg>
