<?xml version="1.0" encoding="utf-8" standalone="no"?>
<!DOCTYPE svg PUBLIC "-//W3C//DTD SVG 1.1//EN"
  "http://www.w3.org/Graphics/SVG/1.1/DTD/svg11.dtd">
<!-- Created with matplotlib (https://matplotlib.org/) -->
<svg height="322.176313pt" version="1.1" viewBox="0 0 406.642188 322.176313" width="406.642188pt" xmlns="http://www.w3.org/2000/svg" xmlns:xlink="http://www.w3.org/1999/xlink">
 <defs>
  <style type="text/css">
*{stroke-linecap:butt;stroke-linejoin:round;}
  </style>
 </defs>
 <g id="figure_1">
  <g id="patch_1">
   <path d="M 0 322.176313
L 406.642188 322.176313
L 406.642188 0
L 0 0
z
" style="fill:#ffffff;stroke:#ffffff;stroke-linejoin:miter;"/>
  </g>
  <g id="axes_1">
   <g id="patch_2">
    <path d="M 46.772188 286.695376
L 403.892188 286.695376
L 403.892188 20.583376
L 46.772188 20.583376
z
" style="fill:none;"/>
   </g>
   <g id="matplotlib.axis_1">
    <g id="xtick_1">
     <g id="line2d_1">
      <path clip-path="url(#p23f08d3997)" d="M 63.004915 286.695376
L 63.004915 20.583376
" style="fill:none;stroke:#e5e5e5;stroke-width:0.8;"/>
     </g>
     <g id="line2d_2">
      <path d="M 63.004915 286.695376
" style="fill:none;stroke:#000000;stroke-width:1.5;"/>
      <defs>
       <path d="M 0 0
L 0 2.75
" id="m2d577f386c" style="stroke:#000000;"/>
      </defs>
      <g>
       <use style="stroke:#000000;" x="63.004915" xlink:href="#m2d577f386c" y="286.695376"/>
      </g>
     </g>
     <g id="text_1">
      <!-- 0 -->
      <defs>
       <path d="M 31.78125 66.40625
Q 24.171875 66.40625 20.328125 58.90625
Q 16.5 51.421875 16.5 36.375
Q 16.5 21.390625 20.328125 13.890625
Q 24.171875 6.390625 31.78125 6.390625
Q 39.453125 6.390625 43.28125 13.890625
Q 47.125 21.390625 47.125 36.375
Q 47.125 51.421875 43.28125 58.90625
Q 39.453125 66.40625 31.78125 66.40625
z
M 31.78125 74.21875
Q 44.046875 74.21875 50.515625 64.515625
Q 56.984375 54.828125 56.984375 36.375
Q 56.984375 17.96875 50.515625 8.265625
Q 44.046875 -1.421875 31.78125 -1.421875
Q 19.53125 -1.421875 13.0625 8.265625
Q 6.59375 17.96875 6.59375 36.375
Q 6.59375 54.828125 13.0625 64.515625
Q 19.53125 74.21875 31.78125 74.21875
z
" id="DejaVuSans-48"/>
      </defs>
      <g style="fill:#4d4d4d;" transform="translate(59.187415 300.763501)scale(0.12 -0.12)">
       <use xlink:href="#DejaVuSans-48"/>
      </g>
     </g>
    </g>
    <g id="xtick_2">
     <g id="line2d_3">
      <path clip-path="url(#p23f08d3997)" d="M 144.168551 286.695376
L 144.168551 20.583376
" style="fill:none;stroke:#e5e5e5;stroke-width:0.8;"/>
     </g>
     <g id="line2d_4">
      <path d="M 144.168551 286.695376
" style="fill:none;stroke:#000000;stroke-width:1.5;"/>
      <g>
       <use style="stroke:#000000;" x="144.168551" xlink:href="#m2d577f386c" y="286.695376"/>
      </g>
     </g>
     <g id="text_2">
      <!-- 25 -->
      <defs>
       <path d="M 19.1875 8.296875
L 53.609375 8.296875
L 53.609375 0
L 7.328125 0
L 7.328125 8.296875
Q 12.9375 14.109375 22.625 23.890625
Q 32.328125 33.6875 34.8125 36.53125
Q 39.546875 41.84375 41.421875 45.53125
Q 43.3125 49.21875 43.3125 52.78125
Q 43.3125 58.59375 39.234375 62.25
Q 35.15625 65.921875 28.609375 65.921875
Q 23.96875 65.921875 18.8125 64.3125
Q 13.671875 62.703125 7.8125 59.421875
L 7.8125 69.390625
Q 13.765625 71.78125 18.9375 73
Q 24.125 74.21875 28.421875 74.21875
Q 39.75 74.21875 46.484375 68.546875
Q 53.21875 62.890625 53.21875 53.421875
Q 53.21875 48.921875 51.53125 44.890625
Q 49.859375 40.875 45.40625 35.40625
Q 44.1875 33.984375 37.640625 27.21875
Q 31.109375 20.453125 19.1875 8.296875
z
" id="DejaVuSans-50"/>
       <path d="M 10.796875 72.90625
L 49.515625 72.90625
L 49.515625 64.59375
L 19.828125 64.59375
L 19.828125 46.734375
Q 21.96875 47.46875 24.109375 47.828125
Q 26.265625 48.1875 28.421875 48.1875
Q 40.625 48.1875 47.75 41.5
Q 54.890625 34.8125 54.890625 23.390625
Q 54.890625 11.625 47.5625 5.09375
Q 40.234375 -1.421875 26.90625 -1.421875
Q 22.3125 -1.421875 17.546875 -0.640625
Q 12.796875 0.140625 7.71875 1.703125
L 7.71875 11.625
Q 12.109375 9.234375 16.796875 8.0625
Q 21.484375 6.890625 26.703125 6.890625
Q 35.15625 6.890625 40.078125 11.328125
Q 45.015625 15.765625 45.015625 23.390625
Q 45.015625 31 40.078125 35.4375
Q 35.15625 39.890625 26.703125 39.890625
Q 22.75 39.890625 18.8125 39.015625
Q 14.890625 38.140625 10.796875 36.28125
z
" id="DejaVuSans-53"/>
      </defs>
      <g style="fill:#4d4d4d;" transform="translate(136.533551 300.763501)scale(0.12 -0.12)">
       <use xlink:href="#DejaVuSans-50"/>
       <use x="63.623047" xlink:href="#DejaVuSans-53"/>
      </g>
     </g>
    </g>
    <g id="xtick_3">
     <g id="line2d_5">
      <path clip-path="url(#p23f08d3997)" d="M 225.332188 286.695376
L 225.332188 20.583376
" style="fill:none;stroke:#e5e5e5;stroke-width:0.8;"/>
     </g>
     <g id="line2d_6">
      <path d="M 225.332188 286.695376
" style="fill:none;stroke:#000000;stroke-width:1.5;"/>
      <g>
       <use style="stroke:#000000;" x="225.332188" xlink:href="#m2d577f386c" y="286.695376"/>
      </g>
     </g>
     <g id="text_3">
      <!-- 50 -->
      <g style="fill:#4d4d4d;" transform="translate(217.697188 300.763501)scale(0.12 -0.12)">
       <use xlink:href="#DejaVuSans-53"/>
       <use x="63.623047" xlink:href="#DejaVuSans-48"/>
      </g>
     </g>
    </g>
    <g id="xtick_4">
     <g id="line2d_7">
      <path clip-path="url(#p23f08d3997)" d="M 306.495824 286.695376
L 306.495824 20.583376
" style="fill:none;stroke:#e5e5e5;stroke-width:0.8;"/>
     </g>
     <g id="line2d_8">
      <path d="M 306.495824 286.695376
" style="fill:none;stroke:#000000;stroke-width:1.5;"/>
      <g>
       <use style="stroke:#000000;" x="306.495824" xlink:href="#m2d577f386c" y="286.695376"/>
      </g>
     </g>
     <g id="text_4">
      <!-- 75 -->
      <defs>
       <path d="M 8.203125 72.90625
L 55.078125 72.90625
L 55.078125 68.703125
L 28.609375 0
L 18.3125 0
L 43.21875 64.59375
L 8.203125 64.59375
z
" id="DejaVuSans-55"/>
      </defs>
      <g style="fill:#4d4d4d;" transform="translate(298.860824 300.763501)scale(0.12 -0.12)">
       <use xlink:href="#DejaVuSans-55"/>
       <use x="63.623047" xlink:href="#DejaVuSans-53"/>
      </g>
     </g>
    </g>
    <g id="xtick_5">
     <g id="line2d_9">
      <path clip-path="url(#p23f08d3997)" d="M 387.65946 286.695376
L 387.65946 20.583376
" style="fill:none;stroke:#e5e5e5;stroke-width:0.8;"/>
     </g>
     <g id="line2d_10">
      <path d="M 387.65946 286.695376
" style="fill:none;stroke:#000000;stroke-width:1.5;"/>
      <g>
       <use style="stroke:#000000;" x="387.65946" xlink:href="#m2d577f386c" y="286.695376"/>
      </g>
     </g>
     <g id="text_5">
      <!-- 100 -->
      <defs>
       <path d="M 12.40625 8.296875
L 28.515625 8.296875
L 28.515625 63.921875
L 10.984375 60.40625
L 10.984375 69.390625
L 28.421875 72.90625
L 38.28125 72.90625
L 38.28125 8.296875
L 54.390625 8.296875
L 54.390625 0
L 12.40625 0
z
" id="DejaVuSans-49"/>
      </defs>
      <g style="fill:#4d4d4d;" transform="translate(376.20696 300.763501)scale(0.12 -0.12)">
       <use xlink:href="#DejaVuSans-49"/>
       <use x="63.623047" xlink:href="#DejaVuSans-48"/>
       <use x="127.246094" xlink:href="#DejaVuSans-48"/>
      </g>
     </g>
    </g>
    <g id="xtick_6">
     <g id="line2d_11">
      <path clip-path="url(#p23f08d3997)" d="M 103.586733 286.695376
L 103.586733 20.583376
" style="fill:none;stroke:#fafafa;"/>
     </g>
     <g id="line2d_12">
      <path d="M 103.586733 286.695376
" style="fill:none;stroke:#000000;stroke-width:1.5;"/>
     </g>
    </g>
    <g id="xtick_7">
     <g id="line2d_13">
      <path clip-path="url(#p23f08d3997)" d="M 184.750369 286.695376
L 184.750369 20.583376
" style="fill:none;stroke:#fafafa;"/>
     </g>
     <g id="line2d_14">
      <path d="M 184.750369 286.695376
" style="fill:none;stroke:#000000;stroke-width:1.5;"/>
     </g>
    </g>
    <g id="xtick_8">
     <g id="line2d_15">
      <path clip-path="url(#p23f08d3997)" d="M 265.914006 286.695376
L 265.914006 20.583376
" style="fill:none;stroke:#fafafa;"/>
     </g>
     <g id="line2d_16">
      <path d="M 265.914006 286.695376
" style="fill:none;stroke:#000000;stroke-width:1.5;"/>
     </g>
    </g>
    <g id="xtick_9">
     <g id="line2d_17">
      <path clip-path="url(#p23f08d3997)" d="M 347.077642 286.695376
L 347.077642 20.583376
" style="fill:none;stroke:#fafafa;"/>
     </g>
     <g id="line2d_18">
      <path d="M 347.077642 286.695376
" style="fill:none;stroke:#000000;stroke-width:1.5;"/>
     </g>
    </g>
    <g id="text_6">
     <!-- GSVA pathway ranking -->
     <defs>
      <path d="M 59.515625 10.40625
L 59.515625 29.984375
L 43.40625 29.984375
L 43.40625 38.09375
L 69.28125 38.09375
L 69.28125 6.78125
Q 63.578125 2.734375 56.6875 0.65625
Q 49.8125 -1.421875 42 -1.421875
Q 24.90625 -1.421875 15.25 8.5625
Q 5.609375 18.5625 5.609375 36.375
Q 5.609375 54.25 15.25 64.234375
Q 24.90625 74.21875 42 74.21875
Q 49.125 74.21875 55.546875 72.453125
Q 61.96875 70.703125 67.390625 67.28125
L 67.390625 56.78125
Q 61.921875 61.421875 55.765625 63.765625
Q 49.609375 66.109375 42.828125 66.109375
Q 29.4375 66.109375 22.71875 58.640625
Q 16.015625 51.171875 16.015625 36.375
Q 16.015625 21.625 22.71875 14.15625
Q 29.4375 6.6875 42.828125 6.6875
Q 48.046875 6.6875 52.140625 7.59375
Q 56.25 8.5 59.515625 10.40625
z
" id="DejaVuSans-71"/>
      <path d="M 53.515625 70.515625
L 53.515625 60.890625
Q 47.90625 63.578125 42.921875 64.890625
Q 37.9375 66.21875 33.296875 66.21875
Q 25.25 66.21875 20.875 63.09375
Q 16.5 59.96875 16.5 54.203125
Q 16.5 49.359375 19.40625 46.890625
Q 22.3125 44.4375 30.421875 42.921875
L 36.375 41.703125
Q 47.40625 39.59375 52.65625 34.296875
Q 57.90625 29 57.90625 20.125
Q 57.90625 9.515625 50.796875 4.046875
Q 43.703125 -1.421875 29.984375 -1.421875
Q 24.8125 -1.421875 18.96875 -0.25
Q 13.140625 0.921875 6.890625 3.21875
L 6.890625 13.375
Q 12.890625 10.015625 18.65625 8.296875
Q 24.421875 6.59375 29.984375 6.59375
Q 38.421875 6.59375 43.015625 9.90625
Q 47.609375 13.234375 47.609375 19.390625
Q 47.609375 24.75 44.3125 27.78125
Q 41.015625 30.8125 33.5 32.328125
L 27.484375 33.5
Q 16.453125 35.6875 11.515625 40.375
Q 6.59375 45.0625 6.59375 53.421875
Q 6.59375 63.09375 13.40625 68.65625
Q 20.21875 74.21875 32.171875 74.21875
Q 37.3125 74.21875 42.625 73.28125
Q 47.953125 72.359375 53.515625 70.515625
z
" id="DejaVuSans-83"/>
      <path d="M 28.609375 0
L 0.78125 72.90625
L 11.078125 72.90625
L 34.1875 11.53125
L 57.328125 72.90625
L 67.578125 72.90625
L 39.796875 0
z
" id="DejaVuSans-86"/>
      <path d="M 34.1875 63.1875
L 20.796875 26.90625
L 47.609375 26.90625
z
M 28.609375 72.90625
L 39.796875 72.90625
L 67.578125 0
L 57.328125 0
L 50.6875 18.703125
L 17.828125 18.703125
L 11.1875 0
L 0.78125 0
z
" id="DejaVuSans-65"/>
      <path id="DejaVuSans-32"/>
      <path d="M 18.109375 8.203125
L 18.109375 -20.796875
L 9.078125 -20.796875
L 9.078125 54.6875
L 18.109375 54.6875
L 18.109375 46.390625
Q 20.953125 51.265625 25.265625 53.625
Q 29.59375 56 35.59375 56
Q 45.5625 56 51.78125 48.09375
Q 58.015625 40.1875 58.015625 27.296875
Q 58.015625 14.40625 51.78125 6.484375
Q 45.5625 -1.421875 35.59375 -1.421875
Q 29.59375 -1.421875 25.265625 0.953125
Q 20.953125 3.328125 18.109375 8.203125
z
M 48.6875 27.296875
Q 48.6875 37.203125 44.609375 42.84375
Q 40.53125 48.484375 33.40625 48.484375
Q 26.265625 48.484375 22.1875 42.84375
Q 18.109375 37.203125 18.109375 27.296875
Q 18.109375 17.390625 22.1875 11.75
Q 26.265625 6.109375 33.40625 6.109375
Q 40.53125 6.109375 44.609375 11.75
Q 48.6875 17.390625 48.6875 27.296875
z
" id="DejaVuSans-112"/>
      <path d="M 34.28125 27.484375
Q 23.390625 27.484375 19.1875 25
Q 14.984375 22.515625 14.984375 16.5
Q 14.984375 11.71875 18.140625 8.90625
Q 21.296875 6.109375 26.703125 6.109375
Q 34.1875 6.109375 38.703125 11.40625
Q 43.21875 16.703125 43.21875 25.484375
L 43.21875 27.484375
z
M 52.203125 31.203125
L 52.203125 0
L 43.21875 0
L 43.21875 8.296875
Q 40.140625 3.328125 35.546875 0.953125
Q 30.953125 -1.421875 24.3125 -1.421875
Q 15.921875 -1.421875 10.953125 3.296875
Q 6 8.015625 6 15.921875
Q 6 25.140625 12.171875 29.828125
Q 18.359375 34.515625 30.609375 34.515625
L 43.21875 34.515625
L 43.21875 35.40625
Q 43.21875 41.609375 39.140625 45
Q 35.0625 48.390625 27.6875 48.390625
Q 23 48.390625 18.546875 47.265625
Q 14.109375 46.140625 10.015625 43.890625
L 10.015625 52.203125
Q 14.9375 54.109375 19.578125 55.046875
Q 24.21875 56 28.609375 56
Q 40.484375 56 46.34375 49.84375
Q 52.203125 43.703125 52.203125 31.203125
z
" id="DejaVuSans-97"/>
      <path d="M 18.3125 70.21875
L 18.3125 54.6875
L 36.8125 54.6875
L 36.8125 47.703125
L 18.3125 47.703125
L 18.3125 18.015625
Q 18.3125 11.328125 20.140625 9.421875
Q 21.96875 7.515625 27.59375 7.515625
L 36.8125 7.515625
L 36.8125 0
L 27.59375 0
Q 17.1875 0 13.234375 3.875
Q 9.28125 7.765625 9.28125 18.015625
L 9.28125 47.703125
L 2.6875 47.703125
L 2.6875 54.6875
L 9.28125 54.6875
L 9.28125 70.21875
z
" id="DejaVuSans-116"/>
      <path d="M 54.890625 33.015625
L 54.890625 0
L 45.90625 0
L 45.90625 32.71875
Q 45.90625 40.484375 42.875 44.328125
Q 39.84375 48.1875 33.796875 48.1875
Q 26.515625 48.1875 22.3125 43.546875
Q 18.109375 38.921875 18.109375 30.90625
L 18.109375 0
L 9.078125 0
L 9.078125 75.984375
L 18.109375 75.984375
L 18.109375 46.1875
Q 21.34375 51.125 25.703125 53.5625
Q 30.078125 56 35.796875 56
Q 45.21875 56 50.046875 50.171875
Q 54.890625 44.34375 54.890625 33.015625
z
" id="DejaVuSans-104"/>
      <path d="M 4.203125 54.6875
L 13.1875 54.6875
L 24.421875 12.015625
L 35.59375 54.6875
L 46.1875 54.6875
L 57.421875 12.015625
L 68.609375 54.6875
L 77.59375 54.6875
L 63.28125 0
L 52.6875 0
L 40.921875 44.828125
L 29.109375 0
L 18.5 0
z
" id="DejaVuSans-119"/>
      <path d="M 32.171875 -5.078125
Q 28.375 -14.84375 24.75 -17.8125
Q 21.140625 -20.796875 15.09375 -20.796875
L 7.90625 -20.796875
L 7.90625 -13.28125
L 13.1875 -13.28125
Q 16.890625 -13.28125 18.9375 -11.515625
Q 21 -9.765625 23.484375 -3.21875
L 25.09375 0.875
L 2.984375 54.6875
L 12.5 54.6875
L 29.59375 11.921875
L 46.6875 54.6875
L 56.203125 54.6875
z
" id="DejaVuSans-121"/>
      <path d="M 41.109375 46.296875
Q 39.59375 47.171875 37.8125 47.578125
Q 36.03125 48 33.890625 48
Q 26.265625 48 22.1875 43.046875
Q 18.109375 38.09375 18.109375 28.8125
L 18.109375 0
L 9.078125 0
L 9.078125 54.6875
L 18.109375 54.6875
L 18.109375 46.1875
Q 20.953125 51.171875 25.484375 53.578125
Q 30.03125 56 36.53125 56
Q 37.453125 56 38.578125 55.875
Q 39.703125 55.765625 41.0625 55.515625
z
" id="DejaVuSans-114"/>
      <path d="M 54.890625 33.015625
L 54.890625 0
L 45.90625 0
L 45.90625 32.71875
Q 45.90625 40.484375 42.875 44.328125
Q 39.84375 48.1875 33.796875 48.1875
Q 26.515625 48.1875 22.3125 43.546875
Q 18.109375 38.921875 18.109375 30.90625
L 18.109375 0
L 9.078125 0
L 9.078125 54.6875
L 18.109375 54.6875
L 18.109375 46.1875
Q 21.34375 51.125 25.703125 53.5625
Q 30.078125 56 35.796875 56
Q 45.21875 56 50.046875 50.171875
Q 54.890625 44.34375 54.890625 33.015625
z
" id="DejaVuSans-110"/>
      <path d="M 9.078125 75.984375
L 18.109375 75.984375
L 18.109375 31.109375
L 44.921875 54.6875
L 56.390625 54.6875
L 27.390625 29.109375
L 57.625 0
L 45.90625 0
L 18.109375 26.703125
L 18.109375 0
L 9.078125 0
z
" id="DejaVuSans-107"/>
      <path d="M 9.421875 54.6875
L 18.40625 54.6875
L 18.40625 0
L 9.421875 0
z
M 9.421875 75.984375
L 18.40625 75.984375
L 18.40625 64.59375
L 9.421875 64.59375
z
" id="DejaVuSans-105"/>
      <path d="M 45.40625 27.984375
Q 45.40625 37.75 41.375 43.109375
Q 37.359375 48.484375 30.078125 48.484375
Q 22.859375 48.484375 18.828125 43.109375
Q 14.796875 37.75 14.796875 27.984375
Q 14.796875 18.265625 18.828125 12.890625
Q 22.859375 7.515625 30.078125 7.515625
Q 37.359375 7.515625 41.375 12.890625
Q 45.40625 18.265625 45.40625 27.984375
z
M 54.390625 6.78125
Q 54.390625 -7.171875 48.1875 -13.984375
Q 42 -20.796875 29.203125 -20.796875
Q 24.46875 -20.796875 20.265625 -20.09375
Q 16.0625 -19.390625 12.109375 -17.921875
L 12.109375 -9.1875
Q 16.0625 -11.328125 19.921875 -12.34375
Q 23.78125 -13.375 27.78125 -13.375
Q 36.625 -13.375 41.015625 -8.765625
Q 45.40625 -4.15625 45.40625 5.171875
L 45.40625 9.625
Q 42.625 4.78125 38.28125 2.390625
Q 33.9375 0 27.875 0
Q 17.828125 0 11.671875 7.65625
Q 5.515625 15.328125 5.515625 27.984375
Q 5.515625 40.671875 11.671875 48.328125
Q 17.828125 56 27.875 56
Q 33.9375 56 38.28125 53.609375
Q 42.625 51.21875 45.40625 46.390625
L 45.40625 54.6875
L 54.390625 54.6875
z
" id="DejaVuSans-103"/>
     </defs>
     <g transform="translate(133.385469 319.056782)scale(0.15 -0.15)">
      <use xlink:href="#DejaVuSans-71"/>
      <use x="77.490234" xlink:href="#DejaVuSans-83"/>
      <use x="140.966797" xlink:href="#DejaVuSans-86"/>
      <use x="209.28125" xlink:href="#DejaVuSans-65"/>
      <use x="277.689453" xlink:href="#DejaVuSans-32"/>
      <use x="309.476562" xlink:href="#DejaVuSans-112"/>
      <use x="372.953125" xlink:href="#DejaVuSans-97"/>
      <use x="434.232422" xlink:href="#DejaVuSans-116"/>
      <use x="473.441406" xlink:href="#DejaVuSans-104"/>
      <use x="536.820312" xlink:href="#DejaVuSans-119"/>
      <use x="618.607422" xlink:href="#DejaVuSans-97"/>
      <use x="679.886719" xlink:href="#DejaVuSans-121"/>
      <use x="739.066406" xlink:href="#DejaVuSans-32"/>
      <use x="770.853516" xlink:href="#DejaVuSans-114"/>
      <use x="811.966797" xlink:href="#DejaVuSans-97"/>
      <use x="873.246094" xlink:href="#DejaVuSans-110"/>
      <use x="936.625" xlink:href="#DejaVuSans-107"/>
      <use x="994.535156" xlink:href="#DejaVuSans-105"/>
      <use x="1022.318359" xlink:href="#DejaVuSans-110"/>
      <use x="1085.697266" xlink:href="#DejaVuSans-103"/>
     </g>
    </g>
   </g>
   <g id="matplotlib.axis_2">
    <g id="ytick_1">
     <g id="line2d_19">
      <path clip-path="url(#p23f08d3997)" d="M 46.772188 274.599376
L 403.892188 274.599376
" style="fill:none;stroke:#e5e5e5;stroke-width:0.8;"/>
     </g>
     <g id="line2d_20">
      <path d="M 46.772188 274.599376
" style="fill:none;stroke:#000000;stroke-width:1.5;"/>
      <defs>
       <path d="M 0 0
L -2.75 0
" id="m9dad2bcedd" style="stroke:#000000;"/>
      </defs>
      <g>
       <use style="stroke:#000000;" x="46.772188" xlink:href="#m9dad2bcedd" y="274.599376"/>
      </g>
     </g>
     <g id="text_7">
      <!-- 0 -->
      <g style="fill:#4d4d4d;" transform="translate(34.187188 277.910626)scale(0.12 -0.12)">
       <use xlink:href="#DejaVuSans-48"/>
      </g>
     </g>
    </g>
    <g id="ytick_2">
     <g id="line2d_21">
      <path clip-path="url(#p23f08d3997)" d="M 46.772188 214.119376
L 403.892188 214.119376
" style="fill:none;stroke:#e5e5e5;stroke-width:0.8;"/>
     </g>
     <g id="line2d_22">
      <path d="M 46.772188 214.119376
" style="fill:none;stroke:#000000;stroke-width:1.5;"/>
      <g>
       <use style="stroke:#000000;" x="46.772188" xlink:href="#m9dad2bcedd" y="214.119376"/>
      </g>
     </g>
     <g id="text_8">
      <!-- 25 -->
      <g style="fill:#4d4d4d;" transform="translate(26.552188 217.430626)scale(0.12 -0.12)">
       <use xlink:href="#DejaVuSans-50"/>
       <use x="63.623047" xlink:href="#DejaVuSans-53"/>
      </g>
     </g>
    </g>
    <g id="ytick_3">
     <g id="line2d_23">
      <path clip-path="url(#p23f08d3997)" d="M 46.772188 153.639376
L 403.892188 153.639376
" style="fill:none;stroke:#e5e5e5;stroke-width:0.8;"/>
     </g>
     <g id="line2d_24">
      <path d="M 46.772188 153.639376
" style="fill:none;stroke:#000000;stroke-width:1.5;"/>
      <g>
       <use style="stroke:#000000;" x="46.772188" xlink:href="#m9dad2bcedd" y="153.639376"/>
      </g>
     </g>
     <g id="text_9">
      <!-- 50 -->
      <g style="fill:#4d4d4d;" transform="translate(26.552188 156.950626)scale(0.12 -0.12)">
       <use xlink:href="#DejaVuSans-53"/>
       <use x="63.623047" xlink:href="#DejaVuSans-48"/>
      </g>
     </g>
    </g>
    <g id="ytick_4">
     <g id="line2d_25">
      <path clip-path="url(#p23f08d3997)" d="M 46.772188 93.159376
L 403.892188 93.159376
" style="fill:none;stroke:#e5e5e5;stroke-width:0.8;"/>
     </g>
     <g id="line2d_26">
      <path d="M 46.772188 93.159376
" style="fill:none;stroke:#000000;stroke-width:1.5;"/>
      <g>
       <use style="stroke:#000000;" x="46.772188" xlink:href="#m9dad2bcedd" y="93.159376"/>
      </g>
     </g>
     <g id="text_10">
      <!-- 75 -->
      <g style="fill:#4d4d4d;" transform="translate(26.552188 96.470626)scale(0.12 -0.12)">
       <use xlink:href="#DejaVuSans-55"/>
       <use x="63.623047" xlink:href="#DejaVuSans-53"/>
      </g>
     </g>
    </g>
    <g id="ytick_5">
     <g id="line2d_27">
      <path clip-path="url(#p23f08d3997)" d="M 46.772188 32.679376
L 403.892188 32.679376
" style="fill:none;stroke:#e5e5e5;stroke-width:0.8;"/>
     </g>
     <g id="line2d_28">
      <path d="M 46.772188 32.679376
" style="fill:none;stroke:#000000;stroke-width:1.5;"/>
      <g>
       <use style="stroke:#000000;" x="46.772188" xlink:href="#m9dad2bcedd" y="32.679376"/>
      </g>
     </g>
     <g id="text_11">
      <!-- 100 -->
      <g style="fill:#4d4d4d;" transform="translate(18.917188 35.990626)scale(0.12 -0.12)">
       <use xlink:href="#DejaVuSans-49"/>
       <use x="63.623047" xlink:href="#DejaVuSans-48"/>
       <use x="127.246094" xlink:href="#DejaVuSans-48"/>
      </g>
     </g>
    </g>
    <g id="ytick_6">
     <g id="line2d_29">
      <path clip-path="url(#p23f08d3997)" d="M 46.772188 244.359376
L 403.892188 244.359376
" style="fill:none;stroke:#fafafa;"/>
     </g>
     <g id="line2d_30">
      <path d="M 46.772188 244.359376
" style="fill:none;stroke:#000000;stroke-width:1.5;"/>
     </g>
    </g>
    <g id="ytick_7">
     <g id="line2d_31">
      <path clip-path="url(#p23f08d3997)" d="M 46.772188 183.879376
L 403.892188 183.879376
" style="fill:none;stroke:#fafafa;"/>
     </g>
     <g id="line2d_32">
      <path d="M 46.772188 183.879376
" style="fill:none;stroke:#000000;stroke-width:1.5;"/>
     </g>
    </g>
    <g id="ytick_8">
     <g id="line2d_33">
      <path clip-path="url(#p23f08d3997)" d="M 46.772188 123.399376
L 403.892188 123.399376
" style="fill:none;stroke:#fafafa;"/>
     </g>
     <g id="line2d_34">
      <path d="M 46.772188 123.399376
" style="fill:none;stroke:#000000;stroke-width:1.5;"/>
     </g>
    </g>
    <g id="ytick_9">
     <g id="line2d_35">
      <path clip-path="url(#p23f08d3997)" d="M 46.772188 62.919376
L 403.892188 62.919376
" style="fill:none;stroke:#fafafa;"/>
     </g>
     <g id="line2d_36">
      <path d="M 46.772188 62.919376
" style="fill:none;stroke:#000000;stroke-width:1.5;"/>
     </g>
    </g>
    <g id="text_12">
     <!-- ORA pathway ranking -->
     <defs>
      <path d="M 39.40625 66.21875
Q 28.65625 66.21875 22.328125 58.203125
Q 16.015625 50.203125 16.015625 36.375
Q 16.015625 22.609375 22.328125 14.59375
Q 28.65625 6.59375 39.40625 6.59375
Q 50.140625 6.59375 56.421875 14.59375
Q 62.703125 22.609375 62.703125 36.375
Q 62.703125 50.203125 56.421875 58.203125
Q 50.140625 66.21875 39.40625 66.21875
z
M 39.40625 74.21875
Q 54.734375 74.21875 63.90625 63.9375
Q 73.09375 53.65625 73.09375 36.375
Q 73.09375 19.140625 63.90625 8.859375
Q 54.734375 -1.421875 39.40625 -1.421875
Q 24.03125 -1.421875 14.8125 8.828125
Q 5.609375 19.09375 5.609375 36.375
Q 5.609375 53.65625 14.8125 63.9375
Q 24.03125 74.21875 39.40625 74.21875
z
" id="DejaVuSans-79"/>
      <path d="M 44.390625 34.1875
Q 47.5625 33.109375 50.5625 29.59375
Q 53.5625 26.078125 56.59375 19.921875
L 66.609375 0
L 56 0
L 46.6875 18.703125
Q 43.0625 26.03125 39.671875 28.421875
Q 36.28125 30.8125 30.421875 30.8125
L 19.671875 30.8125
L 19.671875 0
L 9.8125 0
L 9.8125 72.90625
L 32.078125 72.90625
Q 44.578125 72.90625 50.734375 67.671875
Q 56.890625 62.453125 56.890625 51.90625
Q 56.890625 45.015625 53.6875 40.46875
Q 50.484375 35.9375 44.390625 34.1875
z
M 19.671875 64.796875
L 19.671875 38.921875
L 32.078125 38.921875
Q 39.203125 38.921875 42.84375 42.21875
Q 46.484375 45.515625 46.484375 51.90625
Q 46.484375 58.296875 42.84375 61.546875
Q 39.203125 64.796875 32.078125 64.796875
z
" id="DejaVuSans-82"/>
     </defs>
     <g transform="translate(11.397656 233.512548)rotate(-90)scale(0.15 -0.15)">
      <use xlink:href="#DejaVuSans-79"/>
      <use x="78.710938" xlink:href="#DejaVuSans-82"/>
      <use x="148.130859" xlink:href="#DejaVuSans-65"/>
      <use x="216.539062" xlink:href="#DejaVuSans-32"/>
      <use x="248.326172" xlink:href="#DejaVuSans-112"/>
      <use x="311.802734" xlink:href="#DejaVuSans-97"/>
      <use x="373.082031" xlink:href="#DejaVuSans-116"/>
      <use x="412.291016" xlink:href="#DejaVuSans-104"/>
      <use x="475.669922" xlink:href="#DejaVuSans-119"/>
      <use x="557.457031" xlink:href="#DejaVuSans-97"/>
      <use x="618.736328" xlink:href="#DejaVuSans-121"/>
      <use x="677.916016" xlink:href="#DejaVuSans-32"/>
      <use x="709.703125" xlink:href="#DejaVuSans-114"/>
      <use x="750.816406" xlink:href="#DejaVuSans-97"/>
      <use x="812.095703" xlink:href="#DejaVuSans-110"/>
      <use x="875.474609" xlink:href="#DejaVuSans-107"/>
      <use x="933.384766" xlink:href="#DejaVuSans-105"/>
      <use x="961.167969" xlink:href="#DejaVuSans-110"/>
      <use x="1024.546875" xlink:href="#DejaVuSans-103"/>
     </g>
    </g>
   </g>
   <g id="PathCollection_1">
    <path clip-path="url(#p23f08d3997)" d="M 387.65946 123.320401
C 388.12952 123.320401 388.580392 123.133644 388.912774 122.801261
C 389.245157 122.468879 389.431914 122.018008 389.431914 121.547947
C 389.431914 121.077887 389.245157 120.627016 388.912774 120.294633
C 388.580392 119.96225 388.12952 119.775493 387.65946 119.775493
C 387.1894 119.775493 386.738529 119.96225 386.406146 120.294633
C 386.073763 120.627016 385.887006 121.077887 385.887006 121.547947
C 385.887006 122.018008 386.073763 122.468879 386.406146 122.801261
C 386.738529 123.133644 387.1894 123.320401 387.65946 123.320401
z
" style="stroke:#000000;stroke-width:0.886227;"/>
    <path clip-path="url(#p23f08d3997)" d="M 281.649813 118.383258
C 282.119873 118.383258 282.570744 118.196501 282.903127 117.864119
C 283.23551 117.531736 283.422267 117.080865 283.422267 116.610804
C 283.422267 116.140744 283.23551 115.689873 282.903127 115.35749
C 282.570744 115.025107 282.119873 114.838351 281.649813 114.838351
C 281.179752 114.838351 280.728881 115.025107 280.396499 115.35749
C 280.064116 115.689873 279.877359 116.140744 279.877359 116.610804
C 279.877359 117.080865 280.064116 117.531736 280.396499 117.864119
C 280.728881 118.196501 281.179752 118.383258 281.649813 118.383258
z
" style="stroke:#000000;stroke-width:0.886227;"/>
    <path clip-path="url(#p23f08d3997)" d="M 308.152225 239.343258
C 308.622285 239.343258 309.073156 239.156501 309.405539 238.824119
C 309.737922 238.491736 309.924678 238.040865 309.924678 237.570804
C 309.924678 237.100744 309.737922 236.649873 309.405539 236.31749
C 309.073156 235.985107 308.622285 235.798351 308.152225 235.798351
C 307.682164 235.798351 307.231293 235.985107 306.89891 236.31749
C 306.566528 236.649873 306.379771 237.100744 306.379771 237.570804
C 306.379771 238.040865 306.566528 238.491736 306.89891 238.824119
C 307.231293 239.156501 307.682164 239.343258 308.152225 239.343258
z
" style="stroke:#000000;stroke-width:0.886227;"/>
    <path clip-path="url(#p23f08d3997)" d="M 195.516974 93.697544
C 195.987034 93.697544 196.437905 93.510787 196.770288 93.178404
C 197.102671 92.846021 197.289428 92.39515 197.289428 91.92509
C 197.289428 91.45503 197.102671 91.004159 196.770288 90.671776
C 196.437905 90.339393 195.987034 90.152636 195.516974 90.152636
C 195.046914 90.152636 194.596043 90.339393 194.26366 90.671776
C 193.931277 91.004159 193.74452 91.45503 193.74452 91.92509
C 193.74452 92.39515 193.931277 92.846021 194.26366 93.178404
C 194.596043 93.510787 195.046914 93.697544 195.516974 93.697544
z
" style="stroke:#000000;stroke-width:0.886227;"/>
    <path clip-path="url(#p23f08d3997)" d="M 381.033857 150.474687
C 381.503918 150.474687 381.954789 150.28793 382.287171 149.955547
C 382.619554 149.623164 382.806311 149.172293 382.806311 148.702233
C 382.806311 148.232173 382.619554 147.781302 382.287171 147.448919
C 381.954789 147.116536 381.503918 146.929779 381.033857 146.929779
C 380.563797 146.929779 380.112926 147.116536 379.780543 147.448919
C 379.44816 147.781302 379.261403 148.232173 379.261403 148.702233
C 379.261403 149.172293 379.44816 149.623164 379.780543 149.955547
C 380.112926 150.28793 380.563797 150.474687 381.033857 150.474687
z
" style="stroke:#000000;stroke-width:0.886227;"/>
    <path clip-path="url(#p23f08d3997)" d="M 175.640165 98.634687
C 176.110225 98.634687 176.561097 98.44793 176.893479 98.115547
C 177.225862 97.783164 177.412619 97.332293 177.412619 96.862233
C 177.412619 96.392173 177.225862 95.941302 176.893479 95.608919
C 176.561097 95.276536 176.110225 95.089779 175.640165 95.089779
C 175.170105 95.089779 174.719234 95.276536 174.386851 95.608919
C 174.054468 95.941302 173.867711 96.392173 173.867711 96.862233
C 173.867711 97.332293 174.054468 97.783164 174.386851 98.115547
C 174.719234 98.44793 175.170105 98.634687 175.640165 98.634687
z
" style="stroke:#000000;stroke-width:0.886227;"/>
    <path clip-path="url(#p23f08d3997)" d="M 288.275416 276.37183
C 288.745476 276.37183 289.196347 276.185073 289.52873 275.85269
C 289.861113 275.520307 290.04787 275.069436 290.04787 274.599376
C 290.04787 274.129316 289.861113 273.678444 289.52873 273.346062
C 289.196347 273.013679 288.745476 272.826922 288.275416 272.826922
C 287.805355 272.826922 287.354484 273.013679 287.022102 273.346062
C 286.689719 273.678444 286.502962 274.129316 286.502962 274.599376
C 286.502962 275.069436 286.689719 275.520307 287.022102 275.85269
C 287.354484 276.185073 287.805355 276.37183 288.275416 276.37183
z
" style="stroke:#000000;stroke-width:0.886227;"/>
    <path clip-path="url(#p23f08d3997)" d="M 321.403431 180.097544
C 321.873491 180.097544 322.324362 179.910787 322.656745 179.578404
C 322.989127 179.246021 323.175884 178.79515 323.175884 178.32509
C 323.175884 177.85503 322.989127 177.404159 322.656745 177.071776
C 322.324362 176.739393 321.873491 176.552636 321.403431 176.552636
C 320.93337 176.552636 320.482499 176.739393 320.150116 177.071776
C 319.817734 177.404159 319.630977 177.85503 319.630977 178.32509
C 319.630977 178.79515 319.817734 179.246021 320.150116 179.578404
C 320.482499 179.910787 320.93337 180.097544 321.403431 180.097544
z
" style="stroke:#000000;stroke-width:0.886227;"/>
    <path clip-path="url(#p23f08d3997)" d="M 228.644989 170.223258
C 229.115049 170.223258 229.56592 170.036501 229.898303 169.704119
C 230.230686 169.371736 230.417443 168.920865 230.417443 168.450804
C 230.417443 167.980744 230.230686 167.529873 229.898303 167.19749
C 229.56592 166.865107 229.115049 166.678351 228.644989 166.678351
C 228.174929 166.678351 227.724058 166.865107 227.391675 167.19749
C 227.059292 167.529873 226.872535 167.980744 226.872535 168.450804
C 226.872535 168.920865 227.059292 169.371736 227.391675 169.704119
C 227.724058 170.036501 228.174929 170.223258 228.644989 170.223258
z
" style="stroke:#000000;stroke-width:0.886227;"/>
    <path clip-path="url(#p23f08d3997)" d="M 162.388959 239.343258
C 162.85902 239.343258 163.309891 239.156501 163.642273 238.824119
C 163.974656 238.491736 164.161413 238.040865 164.161413 237.570804
C 164.161413 237.100744 163.974656 236.649873 163.642273 236.31749
C 163.309891 235.985107 162.85902 235.798351 162.388959 235.798351
C 161.918899 235.798351 161.468028 235.985107 161.135645 236.31749
C 160.803262 236.649873 160.616505 237.100744 160.616505 237.570804
C 160.616505 238.040865 160.803262 238.491736 161.135645 238.824119
C 161.468028 239.156501 161.918899 239.343258 162.388959 239.343258
z
" style="stroke:#000000;stroke-width:0.886227;"/>
    <path clip-path="url(#p23f08d3997)" d="M 222.019386 150.474687
C 222.489446 150.474687 222.940317 150.28793 223.2727 149.955547
C 223.605083 149.623164 223.79184 149.172293 223.79184 148.702233
C 223.79184 148.232173 223.605083 147.781302 223.2727 147.448919
C 222.940317 147.116536 222.489446 146.929779 222.019386 146.929779
C 221.549326 146.929779 221.098455 147.116536 220.766072 147.448919
C 220.433689 147.781302 220.246932 148.232173 220.246932 148.702233
C 220.246932 149.172293 220.433689 149.623164 220.766072 149.955547
C 221.098455 150.28793 221.549326 150.474687 222.019386 150.474687
z
" style="stroke:#000000;stroke-width:0.886227;"/>
    <path clip-path="url(#p23f08d3997)" d="M 294.901019 34.45183
C 295.371079 34.45183 295.82195 34.265073 296.154333 33.93269
C 296.486716 33.600307 296.673473 33.149436 296.673473 32.679376
C 296.673473 32.209316 296.486716 31.758444 296.154333 31.426062
C 295.82195 31.093679 295.371079 30.906922 294.901019 30.906922
C 294.430958 30.906922 293.980087 31.093679 293.647705 31.426062
C 293.315322 31.758444 293.128565 32.209316 293.128565 32.679376
C 293.128565 33.149436 293.315322 33.600307 293.647705 33.93269
C 293.980087 34.265073 294.430958 34.45183 294.901019 34.45183
z
" style="stroke:#000000;stroke-width:0.886227;"/>
    <path clip-path="url(#p23f08d3997)" d="M 268.398607 88.760401
C 268.868667 88.760401 269.319538 88.573644 269.651921 88.241261
C 269.984304 87.908879 270.171061 87.458008 270.171061 86.987947
C 270.171061 86.517887 269.984304 86.067016 269.651921 85.734633
C 269.319538 85.40225 268.868667 85.215493 268.398607 85.215493
C 267.928547 85.215493 267.477675 85.40225 267.145293 85.734633
C 266.81291 86.067016 266.626153 86.517887 266.626153 86.987947
C 266.626153 87.458008 266.81291 87.908879 267.145293 88.241261
C 267.477675 88.573644 267.928547 88.760401 268.398607 88.760401
z
" style="stroke:#000000;stroke-width:0.886227;"/>
    <path clip-path="url(#p23f08d3997)" d="M 82.881724 207.25183
C 83.351784 207.25183 83.802655 207.065073 84.135038 206.73269
C 84.467421 206.400307 84.654178 205.949436 84.654178 205.479376
C 84.654178 205.009316 84.467421 204.558444 84.135038 204.226062
C 83.802655 203.893679 83.351784 203.706922 82.881724 203.706922
C 82.411663 203.706922 81.960792 203.893679 81.62841 204.226062
C 81.296027 204.558444 81.10927 205.009316 81.10927 205.479376
C 81.10927 205.949436 81.296027 206.400307 81.62841 206.73269
C 81.960792 207.065073 82.411663 207.25183 82.881724 207.25183
z
" style="stroke:#000000;stroke-width:0.886227;"/>
    <path clip-path="url(#p23f08d3997)" d="M 361.157048 69.01183
C 361.627109 69.01183 362.07798 68.825073 362.410362 68.49269
C 362.742745 68.160307 362.929502 67.709436 362.929502 67.239376
C 362.929502 66.769316 362.742745 66.318444 362.410362 65.986062
C 362.07798 65.653679 361.627109 65.466922 361.157048 65.466922
C 360.686988 65.466922 360.236117 65.653679 359.903734 65.986062
C 359.571351 66.318444 359.384595 66.769316 359.384595 67.239376
C 359.384595 67.709436 359.571351 68.160307 359.903734 68.49269
C 360.236117 68.825073 360.686988 69.01183 361.157048 69.01183
z
" style="stroke:#000000;stroke-width:0.886227;"/>
    <path clip-path="url(#p23f08d3997)" d="M 367.782651 103.57183
C 368.252712 103.57183 368.703583 103.385073 369.035965 103.05269
C 369.368348 102.720307 369.555105 102.269436 369.555105 101.799376
C 369.555105 101.329316 369.368348 100.878444 369.035965 100.546062
C 368.703583 100.213679 368.252712 100.026922 367.782651 100.026922
C 367.312591 100.026922 366.86172 100.213679 366.529337 100.546062
C 366.196954 100.878444 366.010197 101.329316 366.010197 101.799376
C 366.010197 102.269436 366.196954 102.720307 366.529337 103.05269
C 366.86172 103.385073 367.312591 103.57183 367.782651 103.57183
z
" style="stroke:#000000;stroke-width:0.886227;"/>
    <path clip-path="url(#p23f08d3997)" d="M 129.260944 157.880401
C 129.731005 157.880401 130.181876 157.693644 130.514259 157.361261
C 130.846641 157.028879 131.033398 156.578008 131.033398 156.107947
C 131.033398 155.637887 130.846641 155.187016 130.514259 154.854633
C 130.181876 154.52225 129.731005 154.335493 129.260944 154.335493
C 128.790884 154.335493 128.340013 154.52225 128.00763 154.854633
C 127.675248 155.187016 127.488491 155.637887 127.488491 156.107947
C 127.488491 156.578008 127.675248 157.028879 128.00763 157.361261
C 128.340013 157.693644 128.790884 157.880401 129.260944 157.880401
z
" style="stroke:#000000;stroke-width:0.886227;"/>
    <path clip-path="url(#p23f08d3997)" d="M 155.763356 239.343258
C 156.233417 239.343258 156.684288 239.156501 157.01667 238.824119
C 157.349053 238.491736 157.53581 238.040865 157.53581 237.570804
C 157.53581 237.100744 157.349053 236.649873 157.01667 236.31749
C 156.684288 235.985107 156.233417 235.798351 155.763356 235.798351
C 155.293296 235.798351 154.842425 235.985107 154.510042 236.31749
C 154.177659 236.649873 153.990902 237.100744 153.990902 237.570804
C 153.990902 238.040865 154.177659 238.491736 154.510042 238.824119
C 154.842425 239.156501 155.293296 239.343258 155.763356 239.343258
z
" style="stroke:#000000;stroke-width:0.886227;"/>
    <path clip-path="url(#p23f08d3997)" d="M 354.531445 49.263258
C 355.001506 49.263258 355.452377 49.076501 355.78476 48.744119
C 356.117142 48.411736 356.303899 47.960865 356.303899 47.490804
C 356.303899 47.020744 356.117142 46.569873 355.78476 46.23749
C 355.452377 45.905107 355.001506 45.718351 354.531445 45.718351
C 354.061385 45.718351 353.610514 45.905107 353.278131 46.23749
C 352.945748 46.569873 352.758992 47.020744 352.758992 47.490804
C 352.758992 47.960865 352.945748 48.411736 353.278131 48.744119
C 353.610514 49.076501 354.061385 49.263258 354.531445 49.263258
z
" style="stroke:#000000;stroke-width:0.886227;"/>
    <path clip-path="url(#p23f08d3997)" d="M 202.142577 207.25183
C 202.612637 207.25183 203.063508 207.065073 203.395891 206.73269
C 203.728274 206.400307 203.915031 205.949436 203.915031 205.479376
C 203.915031 205.009316 203.728274 204.558444 203.395891 204.226062
C 203.063508 203.893679 202.612637 203.706922 202.142577 203.706922
C 201.672517 203.706922 201.221646 203.893679 200.889263 204.226062
C 200.55688 204.558444 200.370123 205.009316 200.370123 205.479376
C 200.370123 205.949436 200.55688 206.400307 200.889263 206.73269
C 201.221646 207.065073 201.672517 207.25183 202.142577 207.25183
z
" style="stroke:#000000;stroke-width:0.886227;"/>
    <path clip-path="url(#p23f08d3997)" d="M 215.393783 44.326115
C 215.863843 44.326115 216.314714 44.139358 216.647097 43.806976
C 216.97948 43.474593 217.166237 43.023722 217.166237 42.553662
C 217.166237 42.083601 216.97948 41.63273 216.647097 41.300347
C 216.314714 40.967965 215.863843 40.781208 215.393783 40.781208
C 214.923723 40.781208 214.472852 40.967965 214.140469 41.300347
C 213.808086 41.63273 213.621329 42.083601 213.621329 42.553662
C 213.621329 43.023722 213.808086 43.474593 214.140469 43.806976
C 214.472852 44.139358 214.923723 44.326115 215.393783 44.326115
z
" style="stroke:#000000;stroke-width:0.886227;"/>
    <path clip-path="url(#p23f08d3997)" d="M 109.384136 73.948973
C 109.854196 73.948973 110.305067 73.762216 110.63745 73.429833
C 110.969832 73.09745 111.156589 72.646579 111.156589 72.176519
C 111.156589 71.706458 110.969832 71.255587 110.63745 70.923205
C 110.305067 70.590822 109.854196 70.404065 109.384136 70.404065
C 108.914075 70.404065 108.463204 70.590822 108.130821 70.923205
C 107.798439 71.255587 107.611682 71.706458 107.611682 72.176519
C 107.611682 72.646579 107.798439 73.09745 108.130821 73.429833
C 108.463204 73.762216 108.914075 73.948973 109.384136 73.948973
z
" style="stroke:#000000;stroke-width:0.886227;"/>
    <path clip-path="url(#p23f08d3997)" d="M 328.029034 54.200401
C 328.499094 54.200401 328.949965 54.013644 329.282348 53.681261
C 329.61473 53.348879 329.801487 52.898008 329.801487 52.427947
C 329.801487 51.957887 329.61473 51.507016 329.282348 51.174633
C 328.949965 50.84225 328.499094 50.655493 328.029034 50.655493
C 327.558973 50.655493 327.108102 50.84225 326.775719 51.174633
C 326.443337 51.507016 326.25658 51.957887 326.25658 52.427947
C 326.25658 52.898008 326.443337 53.348879 326.775719 53.681261
C 327.108102 54.013644 327.558973 54.200401 328.029034 54.200401
z
" style="stroke:#000000;stroke-width:0.886227;"/>
    <path clip-path="url(#p23f08d3997)" d="M 334.654636 256.623258
C 335.124697 256.623258 335.575568 256.436501 335.907951 256.104119
C 336.240333 255.771736 336.42709 255.320865 336.42709 254.850804
C 336.42709 254.380744 336.240333 253.929873 335.907951 253.59749
C 335.575568 253.265107 335.124697 253.078351 334.654636 253.078351
C 334.184576 253.078351 333.733705 253.265107 333.401322 253.59749
C 333.06894 253.929873 332.882183 254.380744 332.882183 254.850804
C 332.882183 255.320865 333.06894 255.771736 333.401322 256.104119
C 333.733705 256.436501 334.184576 256.623258 334.654636 256.623258
z
" style="stroke:#000000;stroke-width:0.886227;"/>
    <path clip-path="url(#p23f08d3997)" d="M 374.408254 170.223258
C 374.878315 170.223258 375.329186 170.036501 375.661568 169.704119
C 375.993951 169.371736 376.180708 168.920865 376.180708 168.450804
C 376.180708 167.980744 375.993951 167.529873 375.661568 167.19749
C 375.329186 166.865107 374.878315 166.678351 374.408254 166.678351
C 373.938194 166.678351 373.487323 166.865107 373.15494 167.19749
C 372.822557 167.529873 372.6358 167.980744 372.6358 168.450804
C 372.6358 168.920865 372.822557 169.371736 373.15494 169.704119
C 373.487323 170.036501 373.938194 170.223258 374.408254 170.223258
z
" style="stroke:#000000;stroke-width:0.886227;"/>
    <path clip-path="url(#p23f08d3997)" d="M 76.256121 108.508973
C 76.726181 108.508973 77.177052 108.322216 77.509435 107.989833
C 77.841818 107.65745 78.028575 107.206579 78.028575 106.736519
C 78.028575 106.266458 77.841818 105.815587 77.509435 105.483205
C 77.177052 105.150822 76.726181 104.964065 76.256121 104.964065
C 75.78606 104.964065 75.335189 105.150822 75.002807 105.483205
C 74.670424 105.815587 74.483667 106.266458 74.483667 106.736519
C 74.483667 107.206579 74.670424 107.65745 75.002807 107.989833
C 75.335189 108.322216 75.78606 108.508973 76.256121 108.508973
z
" style="stroke:#000000;stroke-width:0.886227;"/>
    <path clip-path="url(#p23f08d3997)" d="M 208.76818 207.25183
C 209.23824 207.25183 209.689111 207.065073 210.021494 206.73269
C 210.353877 206.400307 210.540634 205.949436 210.540634 205.479376
C 210.540634 205.009316 210.353877 204.558444 210.021494 204.226062
C 209.689111 203.893679 209.23824 203.706922 208.76818 203.706922
C 208.29812 203.706922 207.847249 203.893679 207.514866 204.226062
C 207.182483 204.558444 206.995726 205.009316 206.995726 205.479376
C 206.995726 205.949436 207.182483 206.400307 207.514866 206.73269
C 207.847249 207.065073 208.29812 207.25183 208.76818 207.25183
z
" style="stroke:#000000;stroke-width:0.886227;"/>
    <path clip-path="url(#p23f08d3997)" d="M 241.896195 39.388973
C 242.366255 39.388973 242.817126 39.202216 243.149509 38.869833
C 243.481892 38.53745 243.668649 38.086579 243.668649 37.616519
C 243.668649 37.146458 243.481892 36.695587 243.149509 36.363205
C 242.817126 36.030822 242.366255 35.844065 241.896195 35.844065
C 241.426135 35.844065 240.975264 36.030822 240.642881 36.363205
C 240.310498 36.695587 240.123741 37.146458 240.123741 37.616519
C 240.123741 38.086579 240.310498 38.53745 240.642881 38.869833
C 240.975264 39.202216 241.426135 39.388973 241.896195 39.388973
z
" style="stroke:#000000;stroke-width:0.886227;"/>
    <path clip-path="url(#p23f08d3997)" d="M 63.004915 133.194687
C 63.474975 133.194687 63.925846 133.00793 64.258229 132.675547
C 64.590612 132.343164 64.777369 131.892293 64.777369 131.422233
C 64.777369 130.952173 64.590612 130.501302 64.258229 130.168919
C 63.925846 129.836536 63.474975 129.649779 63.004915 129.649779
C 62.534855 129.649779 62.083983 129.836536 61.751601 130.168919
C 61.419218 130.501302 61.232461 130.952173 61.232461 131.422233
C 61.232461 131.892293 61.419218 132.343164 61.751601 132.675547
C 62.083983 133.00793 62.534855 133.194687 63.004915 133.194687
z
" style="stroke:#000000;stroke-width:0.886227;"/>
    <path clip-path="url(#p23f08d3997)" d="M 89.507327 256.623258
C 89.977387 256.623258 90.428258 256.436501 90.760641 256.104119
C 91.093024 255.771736 91.27978 255.320865 91.27978 254.850804
C 91.27978 254.380744 91.093024 253.929873 90.760641 253.59749
C 90.428258 253.265107 89.977387 253.078351 89.507327 253.078351
C 89.037266 253.078351 88.586395 253.265107 88.254013 253.59749
C 87.92163 253.929873 87.734873 254.380744 87.734873 254.850804
C 87.734873 255.320865 87.92163 255.771736 88.254013 256.104119
C 88.586395 256.436501 89.037266 256.623258 89.507327 256.623258
z
" style="stroke:#000000;stroke-width:0.886227;"/>
    <path clip-path="url(#p23f08d3997)" d="M 135.886547 113.446115
C 136.356608 113.446115 136.807479 113.259358 137.139862 112.926976
C 137.472244 112.594593 137.659001 112.143722 137.659001 111.673662
C 137.659001 111.203601 137.472244 110.75273 137.139862 110.420347
C 136.807479 110.087965 136.356608 109.901208 135.886547 109.901208
C 135.416487 109.901208 134.965616 110.087965 134.633233 110.420347
C 134.30085 110.75273 134.114094 111.203601 134.114094 111.673662
C 134.114094 112.143722 134.30085 112.594593 134.633233 112.926976
C 134.965616 113.259358 135.416487 113.446115 135.886547 113.446115
z
" style="stroke:#000000;stroke-width:0.886227;"/>
    <path clip-path="url(#p23f08d3997)" d="M 261.773004 78.886115
C 262.243064 78.886115 262.693935 78.699358 263.026318 78.366976
C 263.358701 78.034593 263.545458 77.583722 263.545458 77.113662
C 263.545458 76.643601 263.358701 76.19273 263.026318 75.860347
C 262.693935 75.527965 262.243064 75.341208 261.773004 75.341208
C 261.302944 75.341208 260.852072 75.527965 260.51969 75.860347
C 260.187307 76.19273 260.00055 76.643601 260.00055 77.113662
C 260.00055 77.583722 260.187307 78.034593 260.51969 78.366976
C 260.852072 78.699358 261.302944 78.886115 261.773004 78.886115
z
" style="stroke:#000000;stroke-width:0.886227;"/>
    <path clip-path="url(#p23f08d3997)" d="M 116.009739 207.25183
C 116.479799 207.25183 116.93067 207.065073 117.263053 206.73269
C 117.595435 206.400307 117.782192 205.949436 117.782192 205.479376
C 117.782192 205.009316 117.595435 204.558444 117.263053 204.226062
C 116.93067 203.893679 116.479799 203.706922 116.009739 203.706922
C 115.539678 203.706922 115.088807 203.893679 114.756424 204.226062
C 114.424042 204.558444 114.237285 205.009316 114.237285 205.479376
C 114.237285 205.949436 114.424042 206.400307 114.756424 206.73269
C 115.088807 207.065073 115.539678 207.25183 116.009739 207.25183
z
" style="stroke:#000000;stroke-width:0.886227;"/>
    <path clip-path="url(#p23f08d3997)" d="M 169.014562 83.823258
C 169.484623 83.823258 169.935494 83.636501 170.267876 83.304119
C 170.600259 82.971736 170.787016 82.520865 170.787016 82.050804
C 170.787016 81.580744 170.600259 81.129873 170.267876 80.79749
C 169.935494 80.465107 169.484623 80.278351 169.014562 80.278351
C 168.544502 80.278351 168.093631 80.465107 167.761248 80.79749
C 167.428865 81.129873 167.242108 81.580744 167.242108 82.050804
C 167.242108 82.520865 167.428865 82.971736 167.761248 83.304119
C 168.093631 83.636501 168.544502 83.823258 169.014562 83.823258
z
" style="stroke:#000000;stroke-width:0.886227;"/>
    <path clip-path="url(#p23f08d3997)" d="M 341.280239 271.434687
C 341.7503 271.434687 342.201171 271.24793 342.533554 270.915547
C 342.865936 270.583164 343.052693 270.132293 343.052693 269.662233
C 343.052693 269.192173 342.865936 268.741302 342.533554 268.408919
C 342.201171 268.076536 341.7503 267.889779 341.280239 267.889779
C 340.810179 267.889779 340.359308 268.076536 340.026925 268.408919
C 339.694543 268.741302 339.507786 269.192173 339.507786 269.662233
C 339.507786 270.132293 339.694543 270.583164 340.026925 270.915547
C 340.359308 271.24793 340.810179 271.434687 341.280239 271.434687
z
" style="stroke:#000000;stroke-width:0.886227;"/>
    <path clip-path="url(#p23f08d3997)" d="M 275.02421 266.497544
C 275.49427 266.497544 275.945141 266.310787 276.277524 265.978404
C 276.609907 265.646021 276.796664 265.19515 276.796664 264.72509
C 276.796664 264.25503 276.609907 263.804159 276.277524 263.471776
C 275.945141 263.139393 275.49427 262.952636 275.02421 262.952636
C 274.55415 262.952636 274.103278 263.139393 273.770896 263.471776
C 273.438513 263.804159 273.251756 264.25503 273.251756 264.72509
C 273.251756 265.19515 273.438513 265.646021 273.770896 265.978404
C 274.103278 266.310787 274.55415 266.497544 275.02421 266.497544
z
" style="stroke:#000000;stroke-width:0.886227;"/>
    <path clip-path="url(#p23f08d3997)" d="M 314.777828 143.068973
C 315.247888 143.068973 315.698759 142.882216 316.031142 142.549833
C 316.363525 142.21745 316.550281 141.766579 316.550281 141.296519
C 316.550281 140.826458 316.363525 140.375587 316.031142 140.043205
C 315.698759 139.710822 315.247888 139.524065 314.777828 139.524065
C 314.307767 139.524065 313.856896 139.710822 313.524513 140.043205
C 313.192131 140.375587 313.005374 140.826458 313.005374 141.296519
C 313.005374 141.766579 313.192131 142.21745 313.524513 142.549833
C 313.856896 142.882216 314.307767 143.068973 314.777828 143.068973
z
" style="stroke:#000000;stroke-width:0.886227;"/>
    <path clip-path="url(#p23f08d3997)" d="M 255.147401 239.343258
C 255.617461 239.343258 256.068332 239.156501 256.400715 238.824119
C 256.733098 238.491736 256.919855 238.040865 256.919855 237.570804
C 256.919855 237.100744 256.733098 236.649873 256.400715 236.31749
C 256.068332 235.985107 255.617461 235.798351 255.147401 235.798351
C 254.677341 235.798351 254.22647 235.985107 253.894087 236.31749
C 253.561704 236.649873 253.374947 237.100744 253.374947 237.570804
C 253.374947 238.040865 253.561704 238.491736 253.894087 238.824119
C 254.22647 239.156501 254.677341 239.343258 255.147401 239.343258
z
" style="stroke:#000000;stroke-width:0.886227;"/>
    <path clip-path="url(#p23f08d3997)" d="M 301.526622 207.25183
C 301.996682 207.25183 302.447553 207.065073 302.779936 206.73269
C 303.112319 206.400307 303.299075 205.949436 303.299075 205.479376
C 303.299075 205.009316 303.112319 204.558444 302.779936 204.226062
C 302.447553 203.893679 301.996682 203.706922 301.526622 203.706922
C 301.056561 203.706922 300.60569 203.893679 300.273307 204.226062
C 299.940925 204.558444 299.754168 205.009316 299.754168 205.479376
C 299.754168 205.949436 299.940925 206.400307 300.273307 206.73269
C 300.60569 207.065073 301.056561 207.25183 301.526622 207.25183
z
" style="stroke:#000000;stroke-width:0.886227;"/>
    <path clip-path="url(#p23f08d3997)" d="M 69.630518 180.097544
C 70.100578 180.097544 70.551449 179.910787 70.883832 179.578404
C 71.216215 179.246021 71.402972 178.79515 71.402972 178.32509
C 71.402972 177.85503 71.216215 177.404159 70.883832 177.071776
C 70.551449 176.739393 70.100578 176.552636 69.630518 176.552636
C 69.160457 176.552636 68.709586 176.739393 68.377204 177.071776
C 68.044821 177.404159 67.858064 177.85503 67.858064 178.32509
C 67.858064 178.79515 68.044821 179.246021 68.377204 179.578404
C 68.709586 179.910787 69.160457 180.097544 69.630518 180.097544
z
" style="stroke:#000000;stroke-width:0.886227;"/>
    <path clip-path="url(#p23f08d3997)" d="M 102.758533 207.25183
C 103.228593 207.25183 103.679464 207.065073 104.011847 206.73269
C 104.34423 206.400307 104.530986 205.949436 104.530986 205.479376
C 104.530986 205.009316 104.34423 204.558444 104.011847 204.226062
C 103.679464 203.893679 103.228593 203.706922 102.758533 203.706922
C 102.288472 203.706922 101.837601 203.893679 101.505218 204.226062
C 101.172836 204.558444 100.986079 205.009316 100.986079 205.479376
C 100.986079 205.949436 101.172836 206.400307 101.505218 206.73269
C 101.837601 207.065073 102.288472 207.25183 102.758533 207.25183
z
" style="stroke:#000000;stroke-width:0.886227;"/>
    <path clip-path="url(#p23f08d3997)" d="M 149.137753 138.13183
C 149.607814 138.13183 150.058685 137.945073 150.391068 137.61269
C 150.72345 137.280307 150.910207 136.829436 150.910207 136.359376
C 150.910207 135.889316 150.72345 135.438444 150.391068 135.106062
C 150.058685 134.773679 149.607814 134.586922 149.137753 134.586922
C 148.667693 134.586922 148.216822 134.773679 147.884439 135.106062
C 147.552056 135.438444 147.3653 135.889316 147.3653 136.359376
C 147.3653 136.829436 147.552056 137.280307 147.884439 137.61269
C 148.216822 137.945073 148.667693 138.13183 149.137753 138.13183
z
" style="stroke:#000000;stroke-width:0.886227;"/>
    <path clip-path="url(#p23f08d3997)" d="M 188.891371 64.074687
C 189.361431 64.074687 189.812303 63.88793 190.144685 63.555547
C 190.477068 63.223164 190.663825 62.772293 190.663825 62.302233
C 190.663825 61.832173 190.477068 61.381302 190.144685 61.048919
C 189.812303 60.716536 189.361431 60.529779 188.891371 60.529779
C 188.421311 60.529779 187.97044 60.716536 187.638057 61.048919
C 187.305674 61.381302 187.118917 61.832173 187.118917 62.302233
C 187.118917 62.772293 187.305674 63.223164 187.638057 63.555547
C 187.97044 63.88793 188.421311 64.074687 188.891371 64.074687
z
" style="stroke:#000000;stroke-width:0.886227;"/>
    <path clip-path="url(#p23f08d3997)" d="M 122.635341 256.623258
C 123.105402 256.623258 123.556273 256.436501 123.888656 256.104119
C 124.221038 255.771736 124.407795 255.320865 124.407795 254.850804
C 124.407795 254.380744 124.221038 253.929873 123.888656 253.59749
C 123.556273 253.265107 123.105402 253.078351 122.635341 253.078351
C 122.165281 253.078351 121.71441 253.265107 121.382027 253.59749
C 121.049645 253.929873 120.862888 254.380744 120.862888 254.850804
C 120.862888 255.320865 121.049645 255.771736 121.382027 256.104119
C 121.71441 256.436501 122.165281 256.623258 122.635341 256.623258
z
" style="stroke:#000000;stroke-width:0.886227;"/>
    <path clip-path="url(#p23f08d3997)" d="M 235.270592 162.817544
C 235.740652 162.817544 236.191523 162.630787 236.523906 162.298404
C 236.856289 161.966021 237.043046 161.51515 237.043046 161.04509
C 237.043046 160.57503 236.856289 160.124159 236.523906 159.791776
C 236.191523 159.459393 235.740652 159.272636 235.270592 159.272636
C 234.800532 159.272636 234.349661 159.459393 234.017278 159.791776
C 233.684895 160.124159 233.498138 160.57503 233.498138 161.04509
C 233.498138 161.51515 233.684895 161.966021 234.017278 162.298404
C 234.349661 162.630787 234.800532 162.817544 235.270592 162.817544
z
" style="stroke:#000000;stroke-width:0.886227;"/>
    <path clip-path="url(#p23f08d3997)" d="M 347.905842 207.25183
C 348.375903 207.25183 348.826774 207.065073 349.159157 206.73269
C 349.491539 206.400307 349.678296 205.949436 349.678296 205.479376
C 349.678296 205.009316 349.491539 204.558444 349.159157 204.226062
C 348.826774 203.893679 348.375903 203.706922 347.905842 203.706922
C 347.435782 203.706922 346.984911 203.893679 346.652528 204.226062
C 346.320145 204.558444 346.133389 205.009316 346.133389 205.479376
C 346.133389 205.949436 346.320145 206.400307 346.652528 206.73269
C 346.984911 207.065073 347.435782 207.25183 347.905842 207.25183
z
" style="stroke:#000000;stroke-width:0.886227;"/>
    <path clip-path="url(#p23f08d3997)" d="M 182.265768 207.25183
C 182.735828 207.25183 183.1867 207.065073 183.519082 206.73269
C 183.851465 206.400307 184.038222 205.949436 184.038222 205.479376
C 184.038222 205.009316 183.851465 204.558444 183.519082 204.226062
C 183.1867 203.893679 182.735828 203.706922 182.265768 203.706922
C 181.795708 203.706922 181.344837 203.893679 181.012454 204.226062
C 180.680071 204.558444 180.493314 205.009316 180.493314 205.479376
C 180.493314 205.949436 180.680071 206.400307 181.012454 206.73269
C 181.344837 207.065073 181.795708 207.25183 182.265768 207.25183
z
" style="stroke:#000000;stroke-width:0.886227;"/>
    <path clip-path="url(#p23f08d3997)" d="M 142.51215 128.257544
C 142.982211 128.257544 143.433082 128.070787 143.765465 127.738404
C 144.097847 127.406021 144.284604 126.95515 144.284604 126.48509
C 144.284604 126.01503 144.097847 125.564159 143.765465 125.231776
C 143.433082 124.899393 142.982211 124.712636 142.51215 124.712636
C 142.04209 124.712636 141.591219 124.899393 141.258836 125.231776
C 140.926453 125.564159 140.739697 126.01503 140.739697 126.48509
C 140.739697 126.95515 140.926453 127.406021 141.258836 127.738404
C 141.591219 128.070787 142.04209 128.257544 142.51215 128.257544
z
" style="stroke:#000000;stroke-width:0.886227;"/>
    <path clip-path="url(#p23f08d3997)" d="M 96.13293 59.137544
C 96.60299 59.137544 97.053861 58.950787 97.386244 58.618404
C 97.718627 58.286021 97.905383 57.83515 97.905383 57.36509
C 97.905383 56.89503 97.718627 56.444159 97.386244 56.111776
C 97.053861 55.779393 96.60299 55.592636 96.13293 55.592636
C 95.662869 55.592636 95.211998 55.779393 94.879615 56.111776
C 94.547233 56.444159 94.360476 56.89503 94.360476 57.36509
C 94.360476 57.83515 94.547233 58.286021 94.879615 58.618404
C 95.211998 58.950787 95.662869 59.137544 96.13293 59.137544
z
" style="stroke:#000000;stroke-width:0.886227;"/>
    <path clip-path="url(#p23f08d3997)" d="M 248.521798 207.25183
C 248.991858 207.25183 249.442729 207.065073 249.775112 206.73269
C 250.107495 206.400307 250.294252 205.949436 250.294252 205.479376
C 250.294252 205.009316 250.107495 204.558444 249.775112 204.226062
C 249.442729 203.893679 248.991858 203.706922 248.521798 203.706922
C 248.051738 203.706922 247.600867 203.893679 247.268484 204.226062
C 246.936101 204.558444 246.749344 205.009316 246.749344 205.479376
C 246.749344 205.949436 246.936101 206.400307 247.268484 206.73269
C 247.600867 207.065073 248.051738 207.25183 248.521798 207.25183
z
" style="stroke:#000000;stroke-width:0.886227;"/>
   </g>
  </g>
  <g id="text_13">
   <!-- GSVA vs ORA pathway ranking -->
   <defs>
    <path d="M 2.984375 54.6875
L 12.5 54.6875
L 29.59375 8.796875
L 46.6875 54.6875
L 56.203125 54.6875
L 35.6875 0
L 23.484375 0
z
" id="DejaVuSans-118"/>
    <path d="M 44.28125 53.078125
L 44.28125 44.578125
Q 40.484375 46.53125 36.375 47.5
Q 32.28125 48.484375 27.875 48.484375
Q 21.1875 48.484375 17.84375 46.4375
Q 14.5 44.390625 14.5 40.28125
Q 14.5 37.15625 16.890625 35.375
Q 19.28125 33.59375 26.515625 31.984375
L 29.59375 31.296875
Q 39.15625 29.25 43.1875 25.515625
Q 47.21875 21.78125 47.21875 15.09375
Q 47.21875 7.46875 41.1875 3.015625
Q 35.15625 -1.421875 24.609375 -1.421875
Q 20.21875 -1.421875 15.453125 -0.5625
Q 10.6875 0.296875 5.421875 2
L 5.421875 11.28125
Q 10.40625 8.6875 15.234375 7.390625
Q 20.0625 6.109375 24.8125 6.109375
Q 31.15625 6.109375 34.5625 8.28125
Q 37.984375 10.453125 37.984375 14.40625
Q 37.984375 18.0625 35.515625 20.015625
Q 33.0625 21.96875 24.703125 23.78125
L 21.578125 24.515625
Q 13.234375 26.265625 9.515625 29.90625
Q 5.8125 33.546875 5.8125 39.890625
Q 5.8125 47.609375 11.28125 51.796875
Q 16.75 56 26.8125 56
Q 31.78125 56 36.171875 55.265625
Q 40.578125 54.546875 44.28125 53.078125
z
" id="DejaVuSans-115"/>
   </defs>
   <g transform="translate(104.031172 11.397656)scale(0.15 -0.15)">
    <use xlink:href="#DejaVuSans-71"/>
    <use x="77.490234" xlink:href="#DejaVuSans-83"/>
    <use x="140.966797" xlink:href="#DejaVuSans-86"/>
    <use x="209.28125" xlink:href="#DejaVuSans-65"/>
    <use x="277.689453" xlink:href="#DejaVuSans-32"/>
    <use x="309.476562" xlink:href="#DejaVuSans-118"/>
    <use x="368.65625" xlink:href="#DejaVuSans-115"/>
    <use x="420.755859" xlink:href="#DejaVuSans-32"/>
    <use x="452.542969" xlink:href="#DejaVuSans-79"/>
    <use x="531.253906" xlink:href="#DejaVuSans-82"/>
    <use x="600.673828" xlink:href="#DejaVuSans-65"/>
    <use x="669.082031" xlink:href="#DejaVuSans-32"/>
    <use x="700.869141" xlink:href="#DejaVuSans-112"/>
    <use x="764.345703" xlink:href="#DejaVuSans-97"/>
    <use x="825.625" xlink:href="#DejaVuSans-116"/>
    <use x="864.833984" xlink:href="#DejaVuSans-104"/>
    <use x="928.212891" xlink:href="#DejaVuSans-119"/>
    <use x="1010" xlink:href="#DejaVuSans-97"/>
    <use x="1071.279297" xlink:href="#DejaVuSans-121"/>
    <use x="1130.458984" xlink:href="#DejaVuSans-32"/>
    <use x="1162.246094" xlink:href="#DejaVuSans-114"/>
    <use x="1203.359375" xlink:href="#DejaVuSans-97"/>
    <use x="1264.638672" xlink:href="#DejaVuSans-110"/>
    <use x="1328.017578" xlink:href="#DejaVuSans-107"/>
    <use x="1385.927734" xlink:href="#DejaVuSans-105"/>
    <use x="1413.710938" xlink:href="#DejaVuSans-110"/>
    <use x="1477.089844" xlink:href="#DejaVuSans-103"/>
   </g>
  </g>
 </g>
 <defs>
  <clipPath id="p23f08d3997">
   <rect height="266.112" width="357.12" x="46.772188" y="20.583376"/>
  </clipPath>
 </defs>
</svg>
