<?xml version="1.0" encoding="utf-8" standalone="no"?>
<!DOCTYPE svg PUBLIC "-//W3C//DTD SVG 1.1//EN"
  "http://www.w3.org/Graphics/SVG/1.1/DTD/svg11.dtd">
<!-- Created with matplotlib (https://matplotlib.org/) -->
<svg height="322.176313pt" version="1.1" viewBox="0 0 406.642188 322.176313" width="406.642188pt" xmlns="http://www.w3.org/2000/svg" xmlns:xlink="http://www.w3.org/1999/xlink">
 <defs>
  <style type="text/css">
*{stroke-linecap:butt;stroke-linejoin:round;}
  </style>
 </defs>
 <g id="figure_1">
  <g id="patch_1">
   <path d="M 0 322.176313
L 406.642188 322.176313
L 406.642188 0
L 0 0
z
" style="fill:#ffffff;stroke:#ffffff;stroke-linejoin:miter;"/>
  </g>
  <g id="axes_1">
   <g id="patch_2">
    <path d="M 46.772188 286.695376
L 403.892188 286.695376
L 403.892188 20.583376
L 46.772188 20.583376
z
" style="fill:none;"/>
   </g>
   <g id="matplotlib.axis_1">
    <g id="xtick_1">
     <g id="line2d_1">
      <path clip-path="url(#pe3af295fc6)" d="M 63.004915 286.695376
L 63.004915 20.583376
" style="fill:none;stroke:#e5e5e5;stroke-width:0.8;"/>
     </g>
     <g id="line2d_2">
      <path d="M 63.004915 286.695376
" style="fill:none;stroke:#000000;stroke-width:1.5;"/>
      <defs>
       <path d="M 0 0
L 0 2.75
" id="m84ed046ac5" style="stroke:#000000;"/>
      </defs>
      <g>
       <use style="stroke:#000000;" x="63.004915" xlink:href="#m84ed046ac5" y="286.695376"/>
      </g>
     </g>
     <g id="text_1">
      <!-- 0 -->
      <defs>
       <path d="M 31.78125 66.40625
Q 24.171875 66.40625 20.328125 58.90625
Q 16.5 51.421875 16.5 36.375
Q 16.5 21.390625 20.328125 13.890625
Q 24.171875 6.390625 31.78125 6.390625
Q 39.453125 6.390625 43.28125 13.890625
Q 47.125 21.390625 47.125 36.375
Q 47.125 51.421875 43.28125 58.90625
Q 39.453125 66.40625 31.78125 66.40625
z
M 31.78125 74.21875
Q 44.046875 74.21875 50.515625 64.515625
Q 56.984375 54.828125 56.984375 36.375
Q 56.984375 17.96875 50.515625 8.265625
Q 44.046875 -1.421875 31.78125 -1.421875
Q 19.53125 -1.421875 13.0625 8.265625
Q 6.59375 17.96875 6.59375 36.375
Q 6.59375 54.828125 13.0625 64.515625
Q 19.53125 74.21875 31.78125 74.21875
z
" id="DejaVuSans-48"/>
      </defs>
      <g style="fill:#4d4d4d;" transform="translate(59.187415 300.763501)scale(0.12 -0.12)">
       <use xlink:href="#DejaVuSans-48"/>
      </g>
     </g>
    </g>
    <g id="xtick_2">
     <g id="line2d_3">
      <path clip-path="url(#pe3af295fc6)" d="M 144.168551 286.695376
L 144.168551 20.583376
" style="fill:none;stroke:#e5e5e5;stroke-width:0.8;"/>
     </g>
     <g id="line2d_4">
      <path d="M 144.168551 286.695376
" style="fill:none;stroke:#000000;stroke-width:1.5;"/>
      <g>
       <use style="stroke:#000000;" x="144.168551" xlink:href="#m84ed046ac5" y="286.695376"/>
      </g>
     </g>
     <g id="text_2">
      <!-- 25 -->
      <defs>
       <path d="M 19.1875 8.296875
L 53.609375 8.296875
L 53.609375 0
L 7.328125 0
L 7.328125 8.296875
Q 12.9375 14.109375 22.625 23.890625
Q 32.328125 33.6875 34.8125 36.53125
Q 39.546875 41.84375 41.421875 45.53125
Q 43.3125 49.21875 43.3125 52.78125
Q 43.3125 58.59375 39.234375 62.25
Q 35.15625 65.921875 28.609375 65.921875
Q 23.96875 65.921875 18.8125 64.3125
Q 13.671875 62.703125 7.8125 59.421875
L 7.8125 69.390625
Q 13.765625 71.78125 18.9375 73
Q 24.125 74.21875 28.421875 74.21875
Q 39.75 74.21875 46.484375 68.546875
Q 53.21875 62.890625 53.21875 53.421875
Q 53.21875 48.921875 51.53125 44.890625
Q 49.859375 40.875 45.40625 35.40625
Q 44.1875 33.984375 37.640625 27.21875
Q 31.109375 20.453125 19.1875 8.296875
z
" id="DejaVuSans-50"/>
       <path d="M 10.796875 72.90625
L 49.515625 72.90625
L 49.515625 64.59375
L 19.828125 64.59375
L 19.828125 46.734375
Q 21.96875 47.46875 24.109375 47.828125
Q 26.265625 48.1875 28.421875 48.1875
Q 40.625 48.1875 47.75 41.5
Q 54.890625 34.8125 54.890625 23.390625
Q 54.890625 11.625 47.5625 5.09375
Q 40.234375 -1.421875 26.90625 -1.421875
Q 22.3125 -1.421875 17.546875 -0.640625
Q 12.796875 0.140625 7.71875 1.703125
L 7.71875 11.625
Q 12.109375 9.234375 16.796875 8.0625
Q 21.484375 6.890625 26.703125 6.890625
Q 35.15625 6.890625 40.078125 11.328125
Q 45.015625 15.765625 45.015625 23.390625
Q 45.015625 31 40.078125 35.4375
Q 35.15625 39.890625 26.703125 39.890625
Q 22.75 39.890625 18.8125 39.015625
Q 14.890625 38.140625 10.796875 36.28125
z
" id="DejaVuSans-53"/>
      </defs>
      <g style="fill:#4d4d4d;" transform="translate(136.533551 300.763501)scale(0.12 -0.12)">
       <use xlink:href="#DejaVuSans-50"/>
       <use x="63.623047" xlink:href="#DejaVuSans-53"/>
      </g>
     </g>
    </g>
    <g id="xtick_3">
     <g id="line2d_5">
      <path clip-path="url(#pe3af295fc6)" d="M 225.332188 286.695376
L 225.332188 20.583376
" style="fill:none;stroke:#e5e5e5;stroke-width:0.8;"/>
     </g>
     <g id="line2d_6">
      <path d="M 225.332188 286.695376
" style="fill:none;stroke:#000000;stroke-width:1.5;"/>
      <g>
       <use style="stroke:#000000;" x="225.332188" xlink:href="#m84ed046ac5" y="286.695376"/>
      </g>
     </g>
     <g id="text_3">
      <!-- 50 -->
      <g style="fill:#4d4d4d;" transform="translate(217.697188 300.763501)scale(0.12 -0.12)">
       <use xlink:href="#DejaVuSans-53"/>
       <use x="63.623047" xlink:href="#DejaVuSans-48"/>
      </g>
     </g>
    </g>
    <g id="xtick_4">
     <g id="line2d_7">
      <path clip-path="url(#pe3af295fc6)" d="M 306.495824 286.695376
L 306.495824 20.583376
" style="fill:none;stroke:#e5e5e5;stroke-width:0.8;"/>
     </g>
     <g id="line2d_8">
      <path d="M 306.495824 286.695376
" style="fill:none;stroke:#000000;stroke-width:1.5;"/>
      <g>
       <use style="stroke:#000000;" x="306.495824" xlink:href="#m84ed046ac5" y="286.695376"/>
      </g>
     </g>
     <g id="text_4">
      <!-- 75 -->
      <defs>
       <path d="M 8.203125 72.90625
L 55.078125 72.90625
L 55.078125 68.703125
L 28.609375 0
L 18.3125 0
L 43.21875 64.59375
L 8.203125 64.59375
z
" id="DejaVuSans-55"/>
      </defs>
      <g style="fill:#4d4d4d;" transform="translate(298.860824 300.763501)scale(0.12 -0.12)">
       <use xlink:href="#DejaVuSans-55"/>
       <use x="63.623047" xlink:href="#DejaVuSans-53"/>
      </g>
     </g>
    </g>
    <g id="xtick_5">
     <g id="line2d_9">
      <path clip-path="url(#pe3af295fc6)" d="M 387.65946 286.695376
L 387.65946 20.583376
" style="fill:none;stroke:#e5e5e5;stroke-width:0.8;"/>
     </g>
     <g id="line2d_10">
      <path d="M 387.65946 286.695376
" style="fill:none;stroke:#000000;stroke-width:1.5;"/>
      <g>
       <use style="stroke:#000000;" x="387.65946" xlink:href="#m84ed046ac5" y="286.695376"/>
      </g>
     </g>
     <g id="text_5">
      <!-- 100 -->
      <defs>
       <path d="M 12.40625 8.296875
L 28.515625 8.296875
L 28.515625 63.921875
L 10.984375 60.40625
L 10.984375 69.390625
L 28.421875 72.90625
L 38.28125 72.90625
L 38.28125 8.296875
L 54.390625 8.296875
L 54.390625 0
L 12.40625 0
z
" id="DejaVuSans-49"/>
      </defs>
      <g style="fill:#4d4d4d;" transform="translate(376.20696 300.763501)scale(0.12 -0.12)">
       <use xlink:href="#DejaVuSans-49"/>
       <use x="63.623047" xlink:href="#DejaVuSans-48"/>
       <use x="127.246094" xlink:href="#DejaVuSans-48"/>
      </g>
     </g>
    </g>
    <g id="xtick_6">
     <g id="line2d_11">
      <path clip-path="url(#pe3af295fc6)" d="M 103.586733 286.695376
L 103.586733 20.583376
" style="fill:none;stroke:#fafafa;"/>
     </g>
     <g id="line2d_12">
      <path d="M 103.586733 286.695376
" style="fill:none;stroke:#000000;stroke-width:1.5;"/>
     </g>
    </g>
    <g id="xtick_7">
     <g id="line2d_13">
      <path clip-path="url(#pe3af295fc6)" d="M 184.750369 286.695376
L 184.750369 20.583376
" style="fill:none;stroke:#fafafa;"/>
     </g>
     <g id="line2d_14">
      <path d="M 184.750369 286.695376
" style="fill:none;stroke:#000000;stroke-width:1.5;"/>
     </g>
    </g>
    <g id="xtick_8">
     <g id="line2d_15">
      <path clip-path="url(#pe3af295fc6)" d="M 265.914006 286.695376
L 265.914006 20.583376
" style="fill:none;stroke:#fafafa;"/>
     </g>
     <g id="line2d_16">
      <path d="M 265.914006 286.695376
" style="fill:none;stroke:#000000;stroke-width:1.5;"/>
     </g>
    </g>
    <g id="xtick_9">
     <g id="line2d_17">
      <path clip-path="url(#pe3af295fc6)" d="M 347.077642 286.695376
L 347.077642 20.583376
" style="fill:none;stroke:#fafafa;"/>
     </g>
     <g id="line2d_18">
      <path d="M 347.077642 286.695376
" style="fill:none;stroke:#000000;stroke-width:1.5;"/>
     </g>
    </g>
    <g id="text_6">
     <!-- GSVA pathway ranking -->
     <defs>
      <path d="M 59.515625 10.40625
L 59.515625 29.984375
L 43.40625 29.984375
L 43.40625 38.09375
L 69.28125 38.09375
L 69.28125 6.78125
Q 63.578125 2.734375 56.6875 0.65625
Q 49.8125 -1.421875 42 -1.421875
Q 24.90625 -1.421875 15.25 8.5625
Q 5.609375 18.5625 5.609375 36.375
Q 5.609375 54.25 15.25 64.234375
Q 24.90625 74.21875 42 74.21875
Q 49.125 74.21875 55.546875 72.453125
Q 61.96875 70.703125 67.390625 67.28125
L 67.390625 56.78125
Q 61.921875 61.421875 55.765625 63.765625
Q 49.609375 66.109375 42.828125 66.109375
Q 29.4375 66.109375 22.71875 58.640625
Q 16.015625 51.171875 16.015625 36.375
Q 16.015625 21.625 22.71875 14.15625
Q 29.4375 6.6875 42.828125 6.6875
Q 48.046875 6.6875 52.140625 7.59375
Q 56.25 8.5 59.515625 10.40625
z
" id="DejaVuSans-71"/>
      <path d="M 53.515625 70.515625
L 53.515625 60.890625
Q 47.90625 63.578125 42.921875 64.890625
Q 37.9375 66.21875 33.296875 66.21875
Q 25.25 66.21875 20.875 63.09375
Q 16.5 59.96875 16.5 54.203125
Q 16.5 49.359375 19.40625 46.890625
Q 22.3125 44.4375 30.421875 42.921875
L 36.375 41.703125
Q 47.40625 39.59375 52.65625 34.296875
Q 57.90625 29 57.90625 20.125
Q 57.90625 9.515625 50.796875 4.046875
Q 43.703125 -1.421875 29.984375 -1.421875
Q 24.8125 -1.421875 18.96875 -0.25
Q 13.140625 0.921875 6.890625 3.21875
L 6.890625 13.375
Q 12.890625 10.015625 18.65625 8.296875
Q 24.421875 6.59375 29.984375 6.59375
Q 38.421875 6.59375 43.015625 9.90625
Q 47.609375 13.234375 47.609375 19.390625
Q 47.609375 24.75 44.3125 27.78125
Q 41.015625 30.8125 33.5 32.328125
L 27.484375 33.5
Q 16.453125 35.6875 11.515625 40.375
Q 6.59375 45.0625 6.59375 53.421875
Q 6.59375 63.09375 13.40625 68.65625
Q 20.21875 74.21875 32.171875 74.21875
Q 37.3125 74.21875 42.625 73.28125
Q 47.953125 72.359375 53.515625 70.515625
z
" id="DejaVuSans-83"/>
      <path d="M 28.609375 0
L 0.78125 72.90625
L 11.078125 72.90625
L 34.1875 11.53125
L 57.328125 72.90625
L 67.578125 72.90625
L 39.796875 0
z
" id="DejaVuSans-86"/>
      <path d="M 34.1875 63.1875
L 20.796875 26.90625
L 47.609375 26.90625
z
M 28.609375 72.90625
L 39.796875 72.90625
L 67.578125 0
L 57.328125 0
L 50.6875 18.703125
L 17.828125 18.703125
L 11.1875 0
L 0.78125 0
z
" id="DejaVuSans-65"/>
      <path id="DejaVuSans-32"/>
      <path d="M 18.109375 8.203125
L 18.109375 -20.796875
L 9.078125 -20.796875
L 9.078125 54.6875
L 18.109375 54.6875
L 18.109375 46.390625
Q 20.953125 51.265625 25.265625 53.625
Q 29.59375 56 35.59375 56
Q 45.5625 56 51.78125 48.09375
Q 58.015625 40.1875 58.015625 27.296875
Q 58.015625 14.40625 51.78125 6.484375
Q 45.5625 -1.421875 35.59375 -1.421875
Q 29.59375 -1.421875 25.265625 0.953125
Q 20.953125 3.328125 18.109375 8.203125
z
M 48.6875 27.296875
Q 48.6875 37.203125 44.609375 42.84375
Q 40.53125 48.484375 33.40625 48.484375
Q 26.265625 48.484375 22.1875 42.84375
Q 18.109375 37.203125 18.109375 27.296875
Q 18.109375 17.390625 22.1875 11.75
Q 26.265625 6.109375 33.40625 6.109375
Q 40.53125 6.109375 44.609375 11.75
Q 48.6875 17.390625 48.6875 27.296875
z
" id="DejaVuSans-112"/>
      <path d="M 34.28125 27.484375
Q 23.390625 27.484375 19.1875 25
Q 14.984375 22.515625 14.984375 16.5
Q 14.984375 11.71875 18.140625 8.90625
Q 21.296875 6.109375 26.703125 6.109375
Q 34.1875 6.109375 38.703125 11.40625
Q 43.21875 16.703125 43.21875 25.484375
L 43.21875 27.484375
z
M 52.203125 31.203125
L 52.203125 0
L 43.21875 0
L 43.21875 8.296875
Q 40.140625 3.328125 35.546875 0.953125
Q 30.953125 -1.421875 24.3125 -1.421875
Q 15.921875 -1.421875 10.953125 3.296875
Q 6 8.015625 6 15.921875
Q 6 25.140625 12.171875 29.828125
Q 18.359375 34.515625 30.609375 34.515625
L 43.21875 34.515625
L 43.21875 35.40625
Q 43.21875 41.609375 39.140625 45
Q 35.0625 48.390625 27.6875 48.390625
Q 23 48.390625 18.546875 47.265625
Q 14.109375 46.140625 10.015625 43.890625
L 10.015625 52.203125
Q 14.9375 54.109375 19.578125 55.046875
Q 24.21875 56 28.609375 56
Q 40.484375 56 46.34375 49.84375
Q 52.203125 43.703125 52.203125 31.203125
z
" id="DejaVuSans-97"/>
      <path d="M 18.3125 70.21875
L 18.3125 54.6875
L 36.8125 54.6875
L 36.8125 47.703125
L 18.3125 47.703125
L 18.3125 18.015625
Q 18.3125 11.328125 20.140625 9.421875
Q 21.96875 7.515625 27.59375 7.515625
L 36.8125 7.515625
L 36.8125 0
L 27.59375 0
Q 17.1875 0 13.234375 3.875
Q 9.28125 7.765625 9.28125 18.015625
L 9.28125 47.703125
L 2.6875 47.703125
L 2.6875 54.6875
L 9.28125 54.6875
L 9.28125 70.21875
z
" id="DejaVuSans-116"/>
      <path d="M 54.890625 33.015625
L 54.890625 0
L 45.90625 0
L 45.90625 32.71875
Q 45.90625 40.484375 42.875 44.328125
Q 39.84375 48.1875 33.796875 48.1875
Q 26.515625 48.1875 22.3125 43.546875
Q 18.109375 38.921875 18.109375 30.90625
L 18.109375 0
L 9.078125 0
L 9.078125 75.984375
L 18.109375 75.984375
L 18.109375 46.1875
Q 21.34375 51.125 25.703125 53.5625
Q 30.078125 56 35.796875 56
Q 45.21875 56 50.046875 50.171875
Q 54.890625 44.34375 54.890625 33.015625
z
" id="DejaVuSans-104"/>
      <path d="M 4.203125 54.6875
L 13.1875 54.6875
L 24.421875 12.015625
L 35.59375 54.6875
L 46.1875 54.6875
L 57.421875 12.015625
L 68.609375 54.6875
L 77.59375 54.6875
L 63.28125 0
L 52.6875 0
L 40.921875 44.828125
L 29.109375 0
L 18.5 0
z
" id="DejaVuSans-119"/>
      <path d="M 32.171875 -5.078125
Q 28.375 -14.84375 24.75 -17.8125
Q 21.140625 -20.796875 15.09375 -20.796875
L 7.90625 -20.796875
L 7.90625 -13.28125
L 13.1875 -13.28125
Q 16.890625 -13.28125 18.9375 -11.515625
Q 21 -9.765625 23.484375 -3.21875
L 25.09375 0.875
L 2.984375 54.6875
L 12.5 54.6875
L 29.59375 11.921875
L 46.6875 54.6875
L 56.203125 54.6875
z
" id="DejaVuSans-121"/>
      <path d="M 41.109375 46.296875
Q 39.59375 47.171875 37.8125 47.578125
Q 36.03125 48 33.890625 48
Q 26.265625 48 22.1875 43.046875
Q 18.109375 38.09375 18.109375 28.8125
L 18.109375 0
L 9.078125 0
L 9.078125 54.6875
L 18.109375 54.6875
L 18.109375 46.1875
Q 20.953125 51.171875 25.484375 53.578125
Q 30.03125 56 36.53125 56
Q 37.453125 56 38.578125 55.875
Q 39.703125 55.765625 41.0625 55.515625
z
" id="DejaVuSans-114"/>
      <path d="M 54.890625 33.015625
L 54.890625 0
L 45.90625 0
L 45.90625 32.71875
Q 45.90625 40.484375 42.875 44.328125
Q 39.84375 48.1875 33.796875 48.1875
Q 26.515625 48.1875 22.3125 43.546875
Q 18.109375 38.921875 18.109375 30.90625
L 18.109375 0
L 9.078125 0
L 9.078125 54.6875
L 18.109375 54.6875
L 18.109375 46.1875
Q 21.34375 51.125 25.703125 53.5625
Q 30.078125 56 35.796875 56
Q 45.21875 56 50.046875 50.171875
Q 54.890625 44.34375 54.890625 33.015625
z
" id="DejaVuSans-110"/>
      <path d="M 9.078125 75.984375
L 18.109375 75.984375
L 18.109375 31.109375
L 44.921875 54.6875
L 56.390625 54.6875
L 27.390625 29.109375
L 57.625 0
L 45.90625 0
L 18.109375 26.703125
L 18.109375 0
L 9.078125 0
z
" id="DejaVuSans-107"/>
      <path d="M 9.421875 54.6875
L 18.40625 54.6875
L 18.40625 0
L 9.421875 0
z
M 9.421875 75.984375
L 18.40625 75.984375
L 18.40625 64.59375
L 9.421875 64.59375
z
" id="DejaVuSans-105"/>
      <path d="M 45.40625 27.984375
Q 45.40625 37.75 41.375 43.109375
Q 37.359375 48.484375 30.078125 48.484375
Q 22.859375 48.484375 18.828125 43.109375
Q 14.796875 37.75 14.796875 27.984375
Q 14.796875 18.265625 18.828125 12.890625
Q 22.859375 7.515625 30.078125 7.515625
Q 37.359375 7.515625 41.375 12.890625
Q 45.40625 18.265625 45.40625 27.984375
z
M 54.390625 6.78125
Q 54.390625 -7.171875 48.1875 -13.984375
Q 42 -20.796875 29.203125 -20.796875
Q 24.46875 -20.796875 20.265625 -20.09375
Q 16.0625 -19.390625 12.109375 -17.921875
L 12.109375 -9.1875
Q 16.0625 -11.328125 19.921875 -12.34375
Q 23.78125 -13.375 27.78125 -13.375
Q 36.625 -13.375 41.015625 -8.765625
Q 45.40625 -4.15625 45.40625 5.171875
L 45.40625 9.625
Q 42.625 4.78125 38.28125 2.390625
Q 33.9375 0 27.875 0
Q 17.828125 0 11.671875 7.65625
Q 5.515625 15.328125 5.515625 27.984375
Q 5.515625 40.671875 11.671875 48.328125
Q 17.828125 56 27.875 56
Q 33.9375 56 38.28125 53.609375
Q 42.625 51.21875 45.40625 46.390625
L 45.40625 54.6875
L 54.390625 54.6875
z
" id="DejaVuSans-103"/>
     </defs>
     <g transform="translate(133.385469 319.056782)scale(0.15 -0.15)">
      <use xlink:href="#DejaVuSans-71"/>
      <use x="77.490234" xlink:href="#DejaVuSans-83"/>
      <use x="140.966797" xlink:href="#DejaVuSans-86"/>
      <use x="209.28125" xlink:href="#DejaVuSans-65"/>
      <use x="277.689453" xlink:href="#DejaVuSans-32"/>
      <use x="309.476562" xlink:href="#DejaVuSans-112"/>
      <use x="372.953125" xlink:href="#DejaVuSans-97"/>
      <use x="434.232422" xlink:href="#DejaVuSans-116"/>
      <use x="473.441406" xlink:href="#DejaVuSans-104"/>
      <use x="536.820312" xlink:href="#DejaVuSans-119"/>
      <use x="618.607422" xlink:href="#DejaVuSans-97"/>
      <use x="679.886719" xlink:href="#DejaVuSans-121"/>
      <use x="739.066406" xlink:href="#DejaVuSans-32"/>
      <use x="770.853516" xlink:href="#DejaVuSans-114"/>
      <use x="811.966797" xlink:href="#DejaVuSans-97"/>
      <use x="873.246094" xlink:href="#DejaVuSans-110"/>
      <use x="936.625" xlink:href="#DejaVuSans-107"/>
      <use x="994.535156" xlink:href="#DejaVuSans-105"/>
      <use x="1022.318359" xlink:href="#DejaVuSans-110"/>
      <use x="1085.697266" xlink:href="#DejaVuSans-103"/>
     </g>
    </g>
   </g>
   <g id="matplotlib.axis_2">
    <g id="ytick_1">
     <g id="line2d_19">
      <path clip-path="url(#pe3af295fc6)" d="M 46.772188 274.599376
L 403.892188 274.599376
" style="fill:none;stroke:#e5e5e5;stroke-width:0.8;"/>
     </g>
     <g id="line2d_20">
      <path d="M 46.772188 274.599376
" style="fill:none;stroke:#000000;stroke-width:1.5;"/>
      <defs>
       <path d="M 0 0
L -2.75 0
" id="madde417436" style="stroke:#000000;"/>
      </defs>
      <g>
       <use style="stroke:#000000;" x="46.772188" xlink:href="#madde417436" y="274.599376"/>
      </g>
     </g>
     <g id="text_7">
      <!-- 0 -->
      <g style="fill:#4d4d4d;" transform="translate(34.187188 277.910626)scale(0.12 -0.12)">
       <use xlink:href="#DejaVuSans-48"/>
      </g>
     </g>
    </g>
    <g id="ytick_2">
     <g id="line2d_21">
      <path clip-path="url(#pe3af295fc6)" d="M 46.772188 214.119376
L 403.892188 214.119376
" style="fill:none;stroke:#e5e5e5;stroke-width:0.8;"/>
     </g>
     <g id="line2d_22">
      <path d="M 46.772188 214.119376
" style="fill:none;stroke:#000000;stroke-width:1.5;"/>
      <g>
       <use style="stroke:#000000;" x="46.772188" xlink:href="#madde417436" y="214.119376"/>
      </g>
     </g>
     <g id="text_8">
      <!-- 25 -->
      <g style="fill:#4d4d4d;" transform="translate(26.552188 217.430626)scale(0.12 -0.12)">
       <use xlink:href="#DejaVuSans-50"/>
       <use x="63.623047" xlink:href="#DejaVuSans-53"/>
      </g>
     </g>
    </g>
    <g id="ytick_3">
     <g id="line2d_23">
      <path clip-path="url(#pe3af295fc6)" d="M 46.772188 153.639376
L 403.892188 153.639376
" style="fill:none;stroke:#e5e5e5;stroke-width:0.8;"/>
     </g>
     <g id="line2d_24">
      <path d="M 46.772188 153.639376
" style="fill:none;stroke:#000000;stroke-width:1.5;"/>
      <g>
       <use style="stroke:#000000;" x="46.772188" xlink:href="#madde417436" y="153.639376"/>
      </g>
     </g>
     <g id="text_9">
      <!-- 50 -->
      <g style="fill:#4d4d4d;" transform="translate(26.552188 156.950626)scale(0.12 -0.12)">
       <use xlink:href="#DejaVuSans-53"/>
       <use x="63.623047" xlink:href="#DejaVuSans-48"/>
      </g>
     </g>
    </g>
    <g id="ytick_4">
     <g id="line2d_25">
      <path clip-path="url(#pe3af295fc6)" d="M 46.772188 93.159376
L 403.892188 93.159376
" style="fill:none;stroke:#e5e5e5;stroke-width:0.8;"/>
     </g>
     <g id="line2d_26">
      <path d="M 46.772188 93.159376
" style="fill:none;stroke:#000000;stroke-width:1.5;"/>
      <g>
       <use style="stroke:#000000;" x="46.772188" xlink:href="#madde417436" y="93.159376"/>
      </g>
     </g>
     <g id="text_10">
      <!-- 75 -->
      <g style="fill:#4d4d4d;" transform="translate(26.552188 96.470626)scale(0.12 -0.12)">
       <use xlink:href="#DejaVuSans-55"/>
       <use x="63.623047" xlink:href="#DejaVuSans-53"/>
      </g>
     </g>
    </g>
    <g id="ytick_5">
     <g id="line2d_27">
      <path clip-path="url(#pe3af295fc6)" d="M 46.772188 32.679376
L 403.892188 32.679376
" style="fill:none;stroke:#e5e5e5;stroke-width:0.8;"/>
     </g>
     <g id="line2d_28">
      <path d="M 46.772188 32.679376
" style="fill:none;stroke:#000000;stroke-width:1.5;"/>
      <g>
       <use style="stroke:#000000;" x="46.772188" xlink:href="#madde417436" y="32.679376"/>
      </g>
     </g>
     <g id="text_11">
      <!-- 100 -->
      <g style="fill:#4d4d4d;" transform="translate(18.917188 35.990626)scale(0.12 -0.12)">
       <use xlink:href="#DejaVuSans-49"/>
       <use x="63.623047" xlink:href="#DejaVuSans-48"/>
       <use x="127.246094" xlink:href="#DejaVuSans-48"/>
      </g>
     </g>
    </g>
    <g id="ytick_6">
     <g id="line2d_29">
      <path clip-path="url(#pe3af295fc6)" d="M 46.772188 244.359376
L 403.892188 244.359376
" style="fill:none;stroke:#fafafa;"/>
     </g>
     <g id="line2d_30">
      <path d="M 46.772188 244.359376
" style="fill:none;stroke:#000000;stroke-width:1.5;"/>
     </g>
    </g>
    <g id="ytick_7">
     <g id="line2d_31">
      <path clip-path="url(#pe3af295fc6)" d="M 46.772188 183.879376
L 403.892188 183.879376
" style="fill:none;stroke:#fafafa;"/>
     </g>
     <g id="line2d_32">
      <path d="M 46.772188 183.879376
" style="fill:none;stroke:#000000;stroke-width:1.5;"/>
     </g>
    </g>
    <g id="ytick_8">
     <g id="line2d_33">
      <path clip-path="url(#pe3af295fc6)" d="M 46.772188 123.399376
L 403.892188 123.399376
" style="fill:none;stroke:#fafafa;"/>
     </g>
     <g id="line2d_34">
      <path d="M 46.772188 123.399376
" style="fill:none;stroke:#000000;stroke-width:1.5;"/>
     </g>
    </g>
    <g id="ytick_9">
     <g id="line2d_35">
      <path clip-path="url(#pe3af295fc6)" d="M 46.772188 62.919376
L 403.892188 62.919376
" style="fill:none;stroke:#fafafa;"/>
     </g>
     <g id="line2d_36">
      <path d="M 46.772188 62.919376
" style="fill:none;stroke:#000000;stroke-width:1.5;"/>
     </g>
    </g>
    <g id="text_12">
     <!-- CAMERA pathway ranking -->
     <defs>
      <path d="M 64.40625 67.28125
L 64.40625 56.890625
Q 59.421875 61.53125 53.78125 63.8125
Q 48.140625 66.109375 41.796875 66.109375
Q 29.296875 66.109375 22.65625 58.46875
Q 16.015625 50.828125 16.015625 36.375
Q 16.015625 21.96875 22.65625 14.328125
Q 29.296875 6.6875 41.796875 6.6875
Q 48.140625 6.6875 53.78125 8.984375
Q 59.421875 11.28125 64.40625 15.921875
L 64.40625 5.609375
Q 59.234375 2.09375 53.4375 0.328125
Q 47.65625 -1.421875 41.21875 -1.421875
Q 24.65625 -1.421875 15.125 8.703125
Q 5.609375 18.84375 5.609375 36.375
Q 5.609375 53.953125 15.125 64.078125
Q 24.65625 74.21875 41.21875 74.21875
Q 47.75 74.21875 53.53125 72.484375
Q 59.328125 70.75 64.40625 67.28125
z
" id="DejaVuSans-67"/>
      <path d="M 9.8125 72.90625
L 24.515625 72.90625
L 43.109375 23.296875
L 61.8125 72.90625
L 76.515625 72.90625
L 76.515625 0
L 66.890625 0
L 66.890625 64.015625
L 48.09375 14.015625
L 38.1875 14.015625
L 19.390625 64.015625
L 19.390625 0
L 9.8125 0
z
" id="DejaVuSans-77"/>
      <path d="M 9.8125 72.90625
L 55.90625 72.90625
L 55.90625 64.59375
L 19.671875 64.59375
L 19.671875 43.015625
L 54.390625 43.015625
L 54.390625 34.71875
L 19.671875 34.71875
L 19.671875 8.296875
L 56.78125 8.296875
L 56.78125 0
L 9.8125 0
z
" id="DejaVuSans-69"/>
      <path d="M 44.390625 34.1875
Q 47.5625 33.109375 50.5625 29.59375
Q 53.5625 26.078125 56.59375 19.921875
L 66.609375 0
L 56 0
L 46.6875 18.703125
Q 43.0625 26.03125 39.671875 28.421875
Q 36.28125 30.8125 30.421875 30.8125
L 19.671875 30.8125
L 19.671875 0
L 9.8125 0
L 9.8125 72.90625
L 32.078125 72.90625
Q 44.578125 72.90625 50.734375 67.671875
Q 56.890625 62.453125 56.890625 51.90625
Q 56.890625 45.015625 53.6875 40.46875
Q 50.484375 35.9375 44.390625 34.1875
z
M 19.671875 64.796875
L 19.671875 38.921875
L 32.078125 38.921875
Q 39.203125 38.921875 42.84375 42.21875
Q 46.484375 45.515625 46.484375 51.90625
Q 46.484375 58.296875 42.84375 61.546875
Q 39.203125 64.796875 32.078125 64.796875
z
" id="DejaVuSans-82"/>
     </defs>
     <g transform="translate(11.397656 249.186376)rotate(-90)scale(0.15 -0.15)">
      <use xlink:href="#DejaVuSans-67"/>
      <use x="69.824219" xlink:href="#DejaVuSans-65"/>
      <use x="138.232422" xlink:href="#DejaVuSans-77"/>
      <use x="224.511719" xlink:href="#DejaVuSans-69"/>
      <use x="287.695312" xlink:href="#DejaVuSans-82"/>
      <use x="357.115234" xlink:href="#DejaVuSans-65"/>
      <use x="425.523438" xlink:href="#DejaVuSans-32"/>
      <use x="457.310547" xlink:href="#DejaVuSans-112"/>
      <use x="520.787109" xlink:href="#DejaVuSans-97"/>
      <use x="582.066406" xlink:href="#DejaVuSans-116"/>
      <use x="621.275391" xlink:href="#DejaVuSans-104"/>
      <use x="684.654297" xlink:href="#DejaVuSans-119"/>
      <use x="766.441406" xlink:href="#DejaVuSans-97"/>
      <use x="827.720703" xlink:href="#DejaVuSans-121"/>
      <use x="886.900391" xlink:href="#DejaVuSans-32"/>
      <use x="918.6875" xlink:href="#DejaVuSans-114"/>
      <use x="959.800781" xlink:href="#DejaVuSans-97"/>
      <use x="1021.080078" xlink:href="#DejaVuSans-110"/>
      <use x="1084.458984" xlink:href="#DejaVuSans-107"/>
      <use x="1142.369141" xlink:href="#DejaVuSans-105"/>
      <use x="1170.152344" xlink:href="#DejaVuSans-110"/>
      <use x="1233.53125" xlink:href="#DejaVuSans-103"/>
     </g>
    </g>
   </g>
   <g id="PathCollection_1">
    <path clip-path="url(#pe3af295fc6)" d="M 387.65946 251.686115
C 388.12952 251.686115 388.580392 251.499358 388.912774 251.166976
C 389.245157 250.834593 389.431914 250.383722 389.431914 249.913662
C 389.431914 249.443601 389.245157 248.99273 388.912774 248.660347
C 388.580392 248.327965 388.12952 248.141208 387.65946 248.141208
C 387.1894 248.141208 386.738529 248.327965 386.406146 248.660347
C 386.073763 248.99273 385.887006 249.443601 385.887006 249.913662
C 385.887006 250.383722 386.073763 250.834593 386.406146 251.166976
C 386.738529 251.499358 387.1894 251.686115 387.65946 251.686115
z
" style="stroke:#000000;stroke-width:0.886227;"/>
    <path clip-path="url(#pe3af295fc6)" d="M 281.649813 49.263258
C 282.119873 49.263258 282.570744 49.076501 282.903127 48.744119
C 283.23551 48.411736 283.422267 47.960865 283.422267 47.490804
C 283.422267 47.020744 283.23551 46.569873 282.903127 46.23749
C 282.570744 45.905107 282.119873 45.718351 281.649813 45.718351
C 281.179752 45.718351 280.728881 45.905107 280.396499 46.23749
C 280.064116 46.569873 279.877359 47.020744 279.877359 47.490804
C 279.877359 47.960865 280.064116 48.411736 280.396499 48.744119
C 280.728881 49.076501 281.179752 49.263258 281.649813 49.263258
z
" style="stroke:#000000;stroke-width:0.886227;"/>
    <path clip-path="url(#pe3af295fc6)" d="M 308.152225 236.874687
C 308.622285 236.874687 309.073156 236.68793 309.405539 236.355547
C 309.737922 236.023164 309.924678 235.572293 309.924678 235.102233
C 309.924678 234.632173 309.737922 234.181302 309.405539 233.848919
C 309.073156 233.516536 308.622285 233.329779 308.152225 233.329779
C 307.682164 233.329779 307.231293 233.516536 306.89891 233.848919
C 306.566528 234.181302 306.379771 234.632173 306.379771 235.102233
C 306.379771 235.572293 306.566528 236.023164 306.89891 236.355547
C 307.231293 236.68793 307.682164 236.874687 308.152225 236.874687
z
" style="stroke:#000000;stroke-width:0.886227;"/>
    <path clip-path="url(#pe3af295fc6)" d="M 195.516974 83.823258
C 195.987034 83.823258 196.437905 83.636501 196.770288 83.304119
C 197.102671 82.971736 197.289428 82.520865 197.289428 82.050804
C 197.289428 81.580744 197.102671 81.129873 196.770288 80.79749
C 196.437905 80.465107 195.987034 80.278351 195.516974 80.278351
C 195.046914 80.278351 194.596043 80.465107 194.26366 80.79749
C 193.931277 81.129873 193.74452 81.580744 193.74452 82.050804
C 193.74452 82.520865 193.931277 82.971736 194.26366 83.304119
C 194.596043 83.636501 195.046914 83.823258 195.516974 83.823258
z
" style="stroke:#000000;stroke-width:0.886227;"/>
    <path clip-path="url(#pe3af295fc6)" d="M 381.033857 162.817544
C 381.503918 162.817544 381.954789 162.630787 382.287171 162.298404
C 382.619554 161.966021 382.806311 161.51515 382.806311 161.04509
C 382.806311 160.57503 382.619554 160.124159 382.287171 159.791776
C 381.954789 159.459393 381.503918 159.272636 381.033857 159.272636
C 380.563797 159.272636 380.112926 159.459393 379.780543 159.791776
C 379.44816 160.124159 379.261403 160.57503 379.261403 161.04509
C 379.261403 161.51515 379.44816 161.966021 379.780543 162.298404
C 380.112926 162.630787 380.563797 162.817544 381.033857 162.817544
z
" style="stroke:#000000;stroke-width:0.886227;"/>
    <path clip-path="url(#pe3af295fc6)" d="M 175.640165 59.137544
C 176.110225 59.137544 176.561097 58.950787 176.893479 58.618404
C 177.225862 58.286021 177.412619 57.83515 177.412619 57.36509
C 177.412619 56.89503 177.225862 56.444159 176.893479 56.111776
C 176.561097 55.779393 176.110225 55.592636 175.640165 55.592636
C 175.170105 55.592636 174.719234 55.779393 174.386851 56.111776
C 174.054468 56.444159 173.867711 56.89503 173.867711 57.36509
C 173.867711 57.83515 174.054468 58.286021 174.386851 58.618404
C 174.719234 58.950787 175.170105 59.137544 175.640165 59.137544
z
" style="stroke:#000000;stroke-width:0.886227;"/>
    <path clip-path="url(#pe3af295fc6)" d="M 288.275416 187.503258
C 288.745476 187.503258 289.196347 187.316501 289.52873 186.984119
C 289.861113 186.651736 290.04787 186.200865 290.04787 185.730804
C 290.04787 185.260744 289.861113 184.809873 289.52873 184.47749
C 289.196347 184.145107 288.745476 183.958351 288.275416 183.958351
C 287.805355 183.958351 287.354484 184.145107 287.022102 184.47749
C 286.689719 184.809873 286.502962 185.260744 286.502962 185.730804
C 286.502962 186.200865 286.689719 186.651736 287.022102 186.984119
C 287.354484 187.316501 287.805355 187.503258 288.275416 187.503258
z
" style="stroke:#000000;stroke-width:0.886227;"/>
    <path clip-path="url(#pe3af295fc6)" d="M 321.403431 123.320401
C 321.873491 123.320401 322.324362 123.133644 322.656745 122.801261
C 322.989127 122.468879 323.175884 122.018008 323.175884 121.547947
C 323.175884 121.077887 322.989127 120.627016 322.656745 120.294633
C 322.324362 119.96225 321.873491 119.775493 321.403431 119.775493
C 320.93337 119.775493 320.482499 119.96225 320.150116 120.294633
C 319.817734 120.627016 319.630977 121.077887 319.630977 121.547947
C 319.630977 122.018008 319.817734 122.468879 320.150116 122.801261
C 320.482499 123.133644 320.93337 123.320401 321.403431 123.320401
z
" style="stroke:#000000;stroke-width:0.886227;"/>
    <path clip-path="url(#pe3af295fc6)" d="M 228.644989 266.497544
C 229.115049 266.497544 229.56592 266.310787 229.898303 265.978404
C 230.230686 265.646021 230.417443 265.19515 230.417443 264.72509
C 230.417443 264.25503 230.230686 263.804159 229.898303 263.471776
C 229.56592 263.139393 229.115049 262.952636 228.644989 262.952636
C 228.174929 262.952636 227.724058 263.139393 227.391675 263.471776
C 227.059292 263.804159 226.872535 264.25503 226.872535 264.72509
C 226.872535 265.19515 227.059292 265.646021 227.391675 265.978404
C 227.724058 266.310787 228.174929 266.497544 228.644989 266.497544
z
" style="stroke:#000000;stroke-width:0.886227;"/>
    <path clip-path="url(#pe3af295fc6)" d="M 162.388959 44.326115
C 162.85902 44.326115 163.309891 44.139358 163.642273 43.806976
C 163.974656 43.474593 164.161413 43.023722 164.161413 42.553662
C 164.161413 42.083601 163.974656 41.63273 163.642273 41.300347
C 163.309891 40.967965 162.85902 40.781208 162.388959 40.781208
C 161.918899 40.781208 161.468028 40.967965 161.135645 41.300347
C 160.803262 41.63273 160.616505 42.083601 160.616505 42.553662
C 160.616505 43.023722 160.803262 43.474593 161.135645 43.806976
C 161.468028 44.139358 161.918899 44.326115 162.388959 44.326115
z
" style="stroke:#000000;stroke-width:0.886227;"/>
    <path clip-path="url(#pe3af295fc6)" d="M 222.019386 64.074687
C 222.489446 64.074687 222.940317 63.88793 223.2727 63.555547
C 223.605083 63.223164 223.79184 62.772293 223.79184 62.302233
C 223.79184 61.832173 223.605083 61.381302 223.2727 61.048919
C 222.940317 60.716536 222.489446 60.529779 222.019386 60.529779
C 221.549326 60.529779 221.098455 60.716536 220.766072 61.048919
C 220.433689 61.381302 220.246932 61.832173 220.246932 62.302233
C 220.246932 62.772293 220.433689 63.223164 220.766072 63.555547
C 221.098455 63.88793 221.549326 64.074687 222.019386 64.074687
z
" style="stroke:#000000;stroke-width:0.886227;"/>
    <path clip-path="url(#pe3af295fc6)" d="M 294.901019 199.846115
C 295.371079 199.846115 295.82195 199.659358 296.154333 199.326976
C 296.486716 198.994593 296.673473 198.543722 296.673473 198.073662
C 296.673473 197.603601 296.486716 197.15273 296.154333 196.820347
C 295.82195 196.487965 295.371079 196.301208 294.901019 196.301208
C 294.430958 196.301208 293.980087 196.487965 293.647705 196.820347
C 293.315322 197.15273 293.128565 197.603601 293.128565 198.073662
C 293.128565 198.543722 293.315322 198.994593 293.647705 199.326976
C 293.980087 199.659358 294.430958 199.846115 294.901019 199.846115
z
" style="stroke:#000000;stroke-width:0.886227;"/>
    <path clip-path="url(#pe3af295fc6)" d="M 268.398607 217.126115
C 268.868667 217.126115 269.319538 216.939358 269.651921 216.606976
C 269.984304 216.274593 270.171061 215.823722 270.171061 215.353662
C 270.171061 214.883601 269.984304 214.43273 269.651921 214.100347
C 269.319538 213.767965 268.868667 213.581208 268.398607 213.581208
C 267.928547 213.581208 267.477675 213.767965 267.145293 214.100347
C 266.81291 214.43273 266.626153 214.883601 266.626153 215.353662
C 266.626153 215.823722 266.81291 216.274593 267.145293 216.606976
C 267.477675 216.939358 267.928547 217.126115 268.398607 217.126115
z
" style="stroke:#000000;stroke-width:0.886227;"/>
    <path clip-path="url(#pe3af295fc6)" d="M 82.881724 113.446115
C 83.351784 113.446115 83.802655 113.259358 84.135038 112.926976
C 84.467421 112.594593 84.654178 112.143722 84.654178 111.673662
C 84.654178 111.203601 84.467421 110.75273 84.135038 110.420347
C 83.802655 110.087965 83.351784 109.901208 82.881724 109.901208
C 82.411663 109.901208 81.960792 110.087965 81.62841 110.420347
C 81.296027 110.75273 81.10927 111.203601 81.10927 111.673662
C 81.10927 112.143722 81.296027 112.594593 81.62841 112.926976
C 81.960792 113.259358 82.411663 113.446115 82.881724 113.446115
z
" style="stroke:#000000;stroke-width:0.886227;"/>
    <path clip-path="url(#pe3af295fc6)" d="M 361.157048 152.943258
C 361.627109 152.943258 362.07798 152.756501 362.410362 152.424119
C 362.742745 152.091736 362.929502 151.640865 362.929502 151.170804
C 362.929502 150.700744 362.742745 150.249873 362.410362 149.91749
C 362.07798 149.585107 361.627109 149.398351 361.157048 149.398351
C 360.686988 149.398351 360.236117 149.585107 359.903734 149.91749
C 359.571351 150.249873 359.384595 150.700744 359.384595 151.170804
C 359.384595 151.640865 359.571351 152.091736 359.903734 152.424119
C 360.236117 152.756501 360.686988 152.943258 361.157048 152.943258
z
" style="stroke:#000000;stroke-width:0.886227;"/>
    <path clip-path="url(#pe3af295fc6)" d="M 367.782651 148.006115
C 368.252712 148.006115 368.703583 147.819358 369.035965 147.486976
C 369.368348 147.154593 369.555105 146.703722 369.555105 146.233662
C 369.555105 145.763601 369.368348 145.31273 369.035965 144.980347
C 368.703583 144.647965 368.252712 144.461208 367.782651 144.461208
C 367.312591 144.461208 366.86172 144.647965 366.529337 144.980347
C 366.196954 145.31273 366.010197 145.763601 366.010197 146.233662
C 366.010197 146.703722 366.196954 147.154593 366.529337 147.486976
C 366.86172 147.819358 367.312591 148.006115 367.782651 148.006115
z
" style="stroke:#000000;stroke-width:0.886227;"/>
    <path clip-path="url(#pe3af295fc6)" d="M 129.260944 261.560401
C 129.731005 261.560401 130.181876 261.373644 130.514259 261.041261
C 130.846641 260.708879 131.033398 260.258008 131.033398 259.787947
C 131.033398 259.317887 130.846641 258.867016 130.514259 258.534633
C 130.181876 258.20225 129.731005 258.015493 129.260944 258.015493
C 128.790884 258.015493 128.340013 258.20225 128.00763 258.534633
C 127.675248 258.867016 127.488491 259.317887 127.488491 259.787947
C 127.488491 260.258008 127.675248 260.708879 128.00763 261.041261
C 128.340013 261.373644 128.790884 261.560401 129.260944 261.560401
z
" style="stroke:#000000;stroke-width:0.886227;"/>
    <path clip-path="url(#pe3af295fc6)" d="M 155.763356 256.623258
C 156.233417 256.623258 156.684288 256.436501 157.01667 256.104119
C 157.349053 255.771736 157.53581 255.320865 157.53581 254.850804
C 157.53581 254.380744 157.349053 253.929873 157.01667 253.59749
C 156.684288 253.265107 156.233417 253.078351 155.763356 253.078351
C 155.293296 253.078351 154.842425 253.265107 154.510042 253.59749
C 154.177659 253.929873 153.990902 254.380744 153.990902 254.850804
C 153.990902 255.320865 154.177659 255.771736 154.510042 256.104119
C 154.842425 256.436501 155.293296 256.623258 155.763356 256.623258
z
" style="stroke:#000000;stroke-width:0.886227;"/>
    <path clip-path="url(#pe3af295fc6)" d="M 354.531445 39.388973
C 355.001506 39.388973 355.452377 39.202216 355.78476 38.869833
C 356.117142 38.53745 356.303899 38.086579 356.303899 37.616519
C 356.303899 37.146458 356.117142 36.695587 355.78476 36.363205
C 355.452377 36.030822 355.001506 35.844065 354.531445 35.844065
C 354.061385 35.844065 353.610514 36.030822 353.278131 36.363205
C 352.945748 36.695587 352.758992 37.146458 352.758992 37.616519
C 352.758992 38.086579 352.945748 38.53745 353.278131 38.869833
C 353.610514 39.202216 354.061385 39.388973 354.531445 39.388973
z
" style="stroke:#000000;stroke-width:0.886227;"/>
    <path clip-path="url(#pe3af295fc6)" d="M 202.142577 182.566115
C 202.612637 182.566115 203.063508 182.379358 203.395891 182.046976
C 203.728274 181.714593 203.915031 181.263722 203.915031 180.793662
C 203.915031 180.323601 203.728274 179.87273 203.395891 179.540347
C 203.063508 179.207965 202.612637 179.021208 202.142577 179.021208
C 201.672517 179.021208 201.221646 179.207965 200.889263 179.540347
C 200.55688 179.87273 200.370123 180.323601 200.370123 180.793662
C 200.370123 181.263722 200.55688 181.714593 200.889263 182.046976
C 201.221646 182.379358 201.672517 182.566115 202.142577 182.566115
z
" style="stroke:#000000;stroke-width:0.886227;"/>
    <path clip-path="url(#pe3af295fc6)" d="M 215.393783 78.886115
C 215.863843 78.886115 216.314714 78.699358 216.647097 78.366976
C 216.97948 78.034593 217.166237 77.583722 217.166237 77.113662
C 217.166237 76.643601 216.97948 76.19273 216.647097 75.860347
C 216.314714 75.527965 215.863843 75.341208 215.393783 75.341208
C 214.923723 75.341208 214.472852 75.527965 214.140469 75.860347
C 213.808086 76.19273 213.621329 76.643601 213.621329 77.113662
C 213.621329 77.583722 213.808086 78.034593 214.140469 78.366976
C 214.472852 78.699358 214.923723 78.886115 215.393783 78.886115
z
" style="stroke:#000000;stroke-width:0.886227;"/>
    <path clip-path="url(#pe3af295fc6)" d="M 109.384136 108.508973
C 109.854196 108.508973 110.305067 108.322216 110.63745 107.989833
C 110.969832 107.65745 111.156589 107.206579 111.156589 106.736519
C 111.156589 106.266458 110.969832 105.815587 110.63745 105.483205
C 110.305067 105.150822 109.854196 104.964065 109.384136 104.964065
C 108.914075 104.964065 108.463204 105.150822 108.130821 105.483205
C 107.798439 105.815587 107.611682 106.266458 107.611682 106.736519
C 107.611682 107.206579 107.798439 107.65745 108.130821 107.989833
C 108.463204 108.322216 108.914075 108.508973 109.384136 108.508973
z
" style="stroke:#000000;stroke-width:0.886227;"/>
    <path clip-path="url(#pe3af295fc6)" d="M 328.029034 170.223258
C 328.499094 170.223258 328.949965 170.036501 329.282348 169.704119
C 329.61473 169.371736 329.801487 168.920865 329.801487 168.450804
C 329.801487 167.980744 329.61473 167.529873 329.282348 167.19749
C 328.949965 166.865107 328.499094 166.678351 328.029034 166.678351
C 327.558973 166.678351 327.108102 166.865107 326.775719 167.19749
C 326.443337 167.529873 326.25658 167.980744 326.25658 168.450804
C 326.25658 168.920865 326.443337 169.371736 326.775719 169.704119
C 327.108102 170.036501 327.558973 170.223258 328.029034 170.223258
z
" style="stroke:#000000;stroke-width:0.886227;"/>
    <path clip-path="url(#pe3af295fc6)" d="M 334.654636 207.25183
C 335.124697 207.25183 335.575568 207.065073 335.907951 206.73269
C 336.240333 206.400307 336.42709 205.949436 336.42709 205.479376
C 336.42709 205.009316 336.240333 204.558444 335.907951 204.226062
C 335.575568 203.893679 335.124697 203.706922 334.654636 203.706922
C 334.184576 203.706922 333.733705 203.893679 333.401322 204.226062
C 333.06894 204.558444 332.882183 205.009316 332.882183 205.479376
C 332.882183 205.949436 333.06894 206.400307 333.401322 206.73269
C 333.733705 207.065073 334.184576 207.25183 334.654636 207.25183
z
" style="stroke:#000000;stroke-width:0.886227;"/>
    <path clip-path="url(#pe3af295fc6)" d="M 374.408254 157.880401
C 374.878315 157.880401 375.329186 157.693644 375.661568 157.361261
C 375.993951 157.028879 376.180708 156.578008 376.180708 156.107947
C 376.180708 155.637887 375.993951 155.187016 375.661568 154.854633
C 375.329186 154.52225 374.878315 154.335493 374.408254 154.335493
C 373.938194 154.335493 373.487323 154.52225 373.15494 154.854633
C 372.822557 155.187016 372.6358 155.637887 372.6358 156.107947
C 372.6358 156.578008 372.822557 157.028879 373.15494 157.361261
C 373.487323 157.693644 373.938194 157.880401 374.408254 157.880401
z
" style="stroke:#000000;stroke-width:0.886227;"/>
    <path clip-path="url(#pe3af295fc6)" d="M 76.256121 103.57183
C 76.726181 103.57183 77.177052 103.385073 77.509435 103.05269
C 77.841818 102.720307 78.028575 102.269436 78.028575 101.799376
C 78.028575 101.329316 77.841818 100.878444 77.509435 100.546062
C 77.177052 100.213679 76.726181 100.026922 76.256121 100.026922
C 75.78606 100.026922 75.335189 100.213679 75.002807 100.546062
C 74.670424 100.878444 74.483667 101.329316 74.483667 101.799376
C 74.483667 102.269436 74.670424 102.720307 75.002807 103.05269
C 75.335189 103.385073 75.78606 103.57183 76.256121 103.57183
z
" style="stroke:#000000;stroke-width:0.886227;"/>
    <path clip-path="url(#pe3af295fc6)" d="M 208.76818 227.000401
C 209.23824 227.000401 209.689111 226.813644 210.021494 226.481261
C 210.353877 226.148879 210.540634 225.698008 210.540634 225.227947
C 210.540634 224.757887 210.353877 224.307016 210.021494 223.974633
C 209.689111 223.64225 209.23824 223.455493 208.76818 223.455493
C 208.29812 223.455493 207.847249 223.64225 207.514866 223.974633
C 207.182483 224.307016 206.995726 224.757887 206.995726 225.227947
C 206.995726 225.698008 207.182483 226.148879 207.514866 226.481261
C 207.847249 226.813644 208.29812 227.000401 208.76818 227.000401
z
" style="stroke:#000000;stroke-width:0.886227;"/>
    <path clip-path="url(#pe3af295fc6)" d="M 241.896195 170.223258
C 242.366255 170.223258 242.817126 170.036501 243.149509 169.704119
C 243.481892 169.371736 243.668649 168.920865 243.668649 168.450804
C 243.668649 167.980744 243.481892 167.529873 243.149509 167.19749
C 242.817126 166.865107 242.366255 166.678351 241.896195 166.678351
C 241.426135 166.678351 240.975264 166.865107 240.642881 167.19749
C 240.310498 167.529873 240.123741 167.980744 240.123741 168.450804
C 240.123741 168.920865 240.310498 169.371736 240.642881 169.704119
C 240.975264 170.036501 241.426135 170.223258 241.896195 170.223258
z
" style="stroke:#000000;stroke-width:0.886227;"/>
    <path clip-path="url(#pe3af295fc6)" d="M 63.004915 69.01183
C 63.474975 69.01183 63.925846 68.825073 64.258229 68.49269
C 64.590612 68.160307 64.777369 67.709436 64.777369 67.239376
C 64.777369 66.769316 64.590612 66.318444 64.258229 65.986062
C 63.925846 65.653679 63.474975 65.466922 63.004915 65.466922
C 62.534855 65.466922 62.083983 65.653679 61.751601 65.986062
C 61.419218 66.318444 61.232461 66.769316 61.232461 67.239376
C 61.232461 67.709436 61.419218 68.160307 61.751601 68.49269
C 62.083983 68.825073 62.534855 69.01183 63.004915 69.01183
z
" style="stroke:#000000;stroke-width:0.886227;"/>
    <path clip-path="url(#pe3af295fc6)" d="M 89.507327 133.194687
C 89.977387 133.194687 90.428258 133.00793 90.760641 132.675547
C 91.093024 132.343164 91.27978 131.892293 91.27978 131.422233
C 91.27978 130.952173 91.093024 130.501302 90.760641 130.168919
C 90.428258 129.836536 89.977387 129.649779 89.507327 129.649779
C 89.037266 129.649779 88.586395 129.836536 88.254013 130.168919
C 87.92163 130.501302 87.734873 130.952173 87.734873 131.422233
C 87.734873 131.892293 87.92163 132.343164 88.254013 132.675547
C 88.586395 133.00793 89.037266 133.194687 89.507327 133.194687
z
" style="stroke:#000000;stroke-width:0.886227;"/>
    <path clip-path="url(#pe3af295fc6)" d="M 135.886547 276.37183
C 136.356608 276.37183 136.807479 276.185073 137.139862 275.85269
C 137.472244 275.520307 137.659001 275.069436 137.659001 274.599376
C 137.659001 274.129316 137.472244 273.678444 137.139862 273.346062
C 136.807479 273.013679 136.356608 272.826922 135.886547 272.826922
C 135.416487 272.826922 134.965616 273.013679 134.633233 273.346062
C 134.30085 273.678444 134.114094 274.129316 134.114094 274.599376
C 134.114094 275.069436 134.30085 275.520307 134.633233 275.85269
C 134.965616 276.185073 135.416487 276.37183 135.886547 276.37183
z
" style="stroke:#000000;stroke-width:0.886227;"/>
    <path clip-path="url(#pe3af295fc6)" d="M 261.773004 143.068973
C 262.243064 143.068973 262.693935 142.882216 263.026318 142.549833
C 263.358701 142.21745 263.545458 141.766579 263.545458 141.296519
C 263.545458 140.826458 263.358701 140.375587 263.026318 140.043205
C 262.693935 139.710822 262.243064 139.524065 261.773004 139.524065
C 261.302944 139.524065 260.852072 139.710822 260.51969 140.043205
C 260.187307 140.375587 260.00055 140.826458 260.00055 141.296519
C 260.00055 141.766579 260.187307 142.21745 260.51969 142.549833
C 260.852072 142.882216 261.302944 143.068973 261.773004 143.068973
z
" style="stroke:#000000;stroke-width:0.886227;"/>
    <path clip-path="url(#pe3af295fc6)" d="M 116.009739 199.846115
C 116.479799 199.846115 116.93067 199.659358 117.263053 199.326976
C 117.595435 198.994593 117.782192 198.543722 117.782192 198.073662
C 117.782192 197.603601 117.595435 197.15273 117.263053 196.820347
C 116.93067 196.487965 116.479799 196.301208 116.009739 196.301208
C 115.539678 196.301208 115.088807 196.487965 114.756424 196.820347
C 114.424042 197.15273 114.237285 197.603601 114.237285 198.073662
C 114.237285 198.543722 114.424042 198.994593 114.756424 199.326976
C 115.088807 199.659358 115.539678 199.846115 116.009739 199.846115
z
" style="stroke:#000000;stroke-width:0.886227;"/>
    <path clip-path="url(#pe3af295fc6)" d="M 169.014562 241.81183
C 169.484623 241.81183 169.935494 241.625073 170.267876 241.29269
C 170.600259 240.960307 170.787016 240.509436 170.787016 240.039376
C 170.787016 239.569316 170.600259 239.118444 170.267876 238.786062
C 169.935494 238.453679 169.484623 238.266922 169.014562 238.266922
C 168.544502 238.266922 168.093631 238.453679 167.761248 238.786062
C 167.428865 239.118444 167.242108 239.569316 167.242108 240.039376
C 167.242108 240.509436 167.428865 240.960307 167.761248 241.29269
C 168.093631 241.625073 168.544502 241.81183 169.014562 241.81183
z
" style="stroke:#000000;stroke-width:0.886227;"/>
    <path clip-path="url(#pe3af295fc6)" d="M 341.280239 93.697544
C 341.7503 93.697544 342.201171 93.510787 342.533554 93.178404
C 342.865936 92.846021 343.052693 92.39515 343.052693 91.92509
C 343.052693 91.45503 342.865936 91.004159 342.533554 90.671776
C 342.201171 90.339393 341.7503 90.152636 341.280239 90.152636
C 340.810179 90.152636 340.359308 90.339393 340.026925 90.671776
C 339.694543 91.004159 339.507786 91.45503 339.507786 91.92509
C 339.507786 92.39515 339.694543 92.846021 340.026925 93.178404
C 340.359308 93.510787 340.810179 93.697544 341.280239 93.697544
z
" style="stroke:#000000;stroke-width:0.886227;"/>
    <path clip-path="url(#pe3af295fc6)" d="M 275.02421 231.937544
C 275.49427 231.937544 275.945141 231.750787 276.277524 231.418404
C 276.609907 231.086021 276.796664 230.63515 276.796664 230.16509
C 276.796664 229.69503 276.609907 229.244159 276.277524 228.911776
C 275.945141 228.579393 275.49427 228.392636 275.02421 228.392636
C 274.55415 228.392636 274.103278 228.579393 273.770896 228.911776
C 273.438513 229.244159 273.251756 229.69503 273.251756 230.16509
C 273.251756 230.63515 273.438513 231.086021 273.770896 231.418404
C 274.103278 231.750787 274.55415 231.937544 275.02421 231.937544
z
" style="stroke:#000000;stroke-width:0.886227;"/>
    <path clip-path="url(#pe3af295fc6)" d="M 314.777828 271.434687
C 315.247888 271.434687 315.698759 271.24793 316.031142 270.915547
C 316.363525 270.583164 316.550281 270.132293 316.550281 269.662233
C 316.550281 269.192173 316.363525 268.741302 316.031142 268.408919
C 315.698759 268.076536 315.247888 267.889779 314.777828 267.889779
C 314.307767 267.889779 313.856896 268.076536 313.524513 268.408919
C 313.192131 268.741302 313.005374 269.192173 313.005374 269.662233
C 313.005374 270.132293 313.192131 270.583164 313.524513 270.915547
C 313.856896 271.24793 314.307767 271.434687 314.777828 271.434687
z
" style="stroke:#000000;stroke-width:0.886227;"/>
    <path clip-path="url(#pe3af295fc6)" d="M 255.147401 118.383258
C 255.617461 118.383258 256.068332 118.196501 256.400715 117.864119
C 256.733098 117.531736 256.919855 117.080865 256.919855 116.610804
C 256.919855 116.140744 256.733098 115.689873 256.400715 115.35749
C 256.068332 115.025107 255.617461 114.838351 255.147401 114.838351
C 254.677341 114.838351 254.22647 115.025107 253.894087 115.35749
C 253.561704 115.689873 253.374947 116.140744 253.374947 116.610804
C 253.374947 117.080865 253.561704 117.531736 253.894087 117.864119
C 254.22647 118.196501 254.677341 118.383258 255.147401 118.383258
z
" style="stroke:#000000;stroke-width:0.886227;"/>
    <path clip-path="url(#pe3af295fc6)" d="M 301.526622 88.760401
C 301.996682 88.760401 302.447553 88.573644 302.779936 88.241261
C 303.112319 87.908879 303.299075 87.458008 303.299075 86.987947
C 303.299075 86.517887 303.112319 86.067016 302.779936 85.734633
C 302.447553 85.40225 301.996682 85.215493 301.526622 85.215493
C 301.056561 85.215493 300.60569 85.40225 300.273307 85.734633
C 299.940925 86.067016 299.754168 86.517887 299.754168 86.987947
C 299.754168 87.458008 299.940925 87.908879 300.273307 88.241261
C 300.60569 88.573644 301.056561 88.760401 301.526622 88.760401
z
" style="stroke:#000000;stroke-width:0.886227;"/>
    <path clip-path="url(#pe3af295fc6)" d="M 69.630518 222.063258
C 70.100578 222.063258 70.551449 221.876501 70.883832 221.544119
C 71.216215 221.211736 71.402972 220.760865 71.402972 220.290804
C 71.402972 219.820744 71.216215 219.369873 70.883832 219.03749
C 70.551449 218.705107 70.100578 218.518351 69.630518 218.518351
C 69.160457 218.518351 68.709586 218.705107 68.377204 219.03749
C 68.044821 219.369873 67.858064 219.820744 67.858064 220.290804
C 67.858064 220.760865 68.044821 221.211736 68.377204 221.544119
C 68.709586 221.876501 69.160457 222.063258 69.630518 222.063258
z
" style="stroke:#000000;stroke-width:0.886227;"/>
    <path clip-path="url(#pe3af295fc6)" d="M 102.758533 34.45183
C 103.228593 34.45183 103.679464 34.265073 104.011847 33.93269
C 104.34423 33.600307 104.530986 33.149436 104.530986 32.679376
C 104.530986 32.209316 104.34423 31.758444 104.011847 31.426062
C 103.679464 31.093679 103.228593 30.906922 102.758533 30.906922
C 102.288472 30.906922 101.837601 31.093679 101.505218 31.426062
C 101.172836 31.758444 100.986079 32.209316 100.986079 32.679376
C 100.986079 33.149436 101.172836 33.600307 101.505218 33.93269
C 101.837601 34.265073 102.288472 34.45183 102.758533 34.45183
z
" style="stroke:#000000;stroke-width:0.886227;"/>
    <path clip-path="url(#pe3af295fc6)" d="M 149.137753 138.13183
C 149.607814 138.13183 150.058685 137.945073 150.391068 137.61269
C 150.72345 137.280307 150.910207 136.829436 150.910207 136.359376
C 150.910207 135.889316 150.72345 135.438444 150.391068 135.106062
C 150.058685 134.773679 149.607814 134.586922 149.137753 134.586922
C 148.667693 134.586922 148.216822 134.773679 147.884439 135.106062
C 147.552056 135.438444 147.3653 135.889316 147.3653 136.359376
C 147.3653 136.829436 147.552056 137.280307 147.884439 137.61269
C 148.216822 137.945073 148.667693 138.13183 149.137753 138.13183
z
" style="stroke:#000000;stroke-width:0.886227;"/>
    <path clip-path="url(#pe3af295fc6)" d="M 188.891371 98.634687
C 189.361431 98.634687 189.812303 98.44793 190.144685 98.115547
C 190.477068 97.783164 190.663825 97.332293 190.663825 96.862233
C 190.663825 96.392173 190.477068 95.941302 190.144685 95.608919
C 189.812303 95.276536 189.361431 95.089779 188.891371 95.089779
C 188.421311 95.089779 187.97044 95.276536 187.638057 95.608919
C 187.305674 95.941302 187.118917 96.392173 187.118917 96.862233
C 187.118917 97.332293 187.305674 97.783164 187.638057 98.115547
C 187.97044 98.44793 188.421311 98.634687 188.891371 98.634687
z
" style="stroke:#000000;stroke-width:0.886227;"/>
    <path clip-path="url(#pe3af295fc6)" d="M 122.635341 177.628973
C 123.105402 177.628973 123.556273 177.442216 123.888656 177.109833
C 124.221038 176.77745 124.407795 176.326579 124.407795 175.856519
C 124.407795 175.386458 124.221038 174.935587 123.888656 174.603205
C 123.556273 174.270822 123.105402 174.084065 122.635341 174.084065
C 122.165281 174.084065 121.71441 174.270822 121.382027 174.603205
C 121.049645 174.935587 120.862888 175.386458 120.862888 175.856519
C 120.862888 176.326579 121.049645 176.77745 121.382027 177.109833
C 121.71441 177.442216 122.165281 177.628973 122.635341 177.628973
z
" style="stroke:#000000;stroke-width:0.886227;"/>
    <path clip-path="url(#pe3af295fc6)" d="M 235.270592 246.748973
C 235.740652 246.748973 236.191523 246.562216 236.523906 246.229833
C 236.856289 245.89745 237.043046 245.446579 237.043046 244.976519
C 237.043046 244.506458 236.856289 244.055587 236.523906 243.723205
C 236.191523 243.390822 235.740652 243.204065 235.270592 243.204065
C 234.800532 243.204065 234.349661 243.390822 234.017278 243.723205
C 233.684895 244.055587 233.498138 244.506458 233.498138 244.976519
C 233.498138 245.446579 233.684895 245.89745 234.017278 246.229833
C 234.349661 246.562216 234.800532 246.748973 235.270592 246.748973
z
" style="stroke:#000000;stroke-width:0.886227;"/>
    <path clip-path="url(#pe3af295fc6)" d="M 347.905842 192.440401
C 348.375903 192.440401 348.826774 192.253644 349.159157 191.921261
C 349.491539 191.588879 349.678296 191.138008 349.678296 190.667947
C 349.678296 190.197887 349.491539 189.747016 349.159157 189.414633
C 348.826774 189.08225 348.375903 188.895493 347.905842 188.895493
C 347.435782 188.895493 346.984911 189.08225 346.652528 189.414633
C 346.320145 189.747016 346.133389 190.197887 346.133389 190.667947
C 346.133389 191.138008 346.320145 191.588879 346.652528 191.921261
C 346.984911 192.253644 347.435782 192.440401 347.905842 192.440401
z
" style="stroke:#000000;stroke-width:0.886227;"/>
    <path clip-path="url(#pe3af295fc6)" d="M 182.265768 73.948973
C 182.735828 73.948973 183.1867 73.762216 183.519082 73.429833
C 183.851465 73.09745 184.038222 72.646579 184.038222 72.176519
C 184.038222 71.706458 183.851465 71.255587 183.519082 70.923205
C 183.1867 70.590822 182.735828 70.404065 182.265768 70.404065
C 181.795708 70.404065 181.344837 70.590822 181.012454 70.923205
C 180.680071 71.255587 180.493314 71.706458 180.493314 72.176519
C 180.493314 72.646579 180.680071 73.09745 181.012454 73.429833
C 181.344837 73.762216 181.795708 73.948973 182.265768 73.948973
z
" style="stroke:#000000;stroke-width:0.886227;"/>
    <path clip-path="url(#pe3af295fc6)" d="M 142.51215 128.257544
C 142.982211 128.257544 143.433082 128.070787 143.765465 127.738404
C 144.097847 127.406021 144.284604 126.95515 144.284604 126.48509
C 144.284604 126.01503 144.097847 125.564159 143.765465 125.231776
C 143.433082 124.899393 142.982211 124.712636 142.51215 124.712636
C 142.04209 124.712636 141.591219 124.899393 141.258836 125.231776
C 140.926453 125.564159 140.739697 126.01503 140.739697 126.48509
C 140.739697 126.95515 140.926453 127.406021 141.258836 127.738404
C 141.591219 128.070787 142.04209 128.257544 142.51215 128.257544
z
" style="stroke:#000000;stroke-width:0.886227;"/>
    <path clip-path="url(#pe3af295fc6)" d="M 96.13293 54.200401
C 96.60299 54.200401 97.053861 54.013644 97.386244 53.681261
C 97.718627 53.348879 97.905383 52.898008 97.905383 52.427947
C 97.905383 51.957887 97.718627 51.507016 97.386244 51.174633
C 97.053861 50.84225 96.60299 50.655493 96.13293 50.655493
C 95.662869 50.655493 95.211998 50.84225 94.879615 51.174633
C 94.547233 51.507016 94.360476 51.957887 94.360476 52.427947
C 94.360476 52.898008 94.547233 53.348879 94.879615 53.681261
C 95.211998 54.013644 95.662869 54.200401 96.13293 54.200401
z
" style="stroke:#000000;stroke-width:0.886227;"/>
    <path clip-path="url(#pe3af295fc6)" d="M 248.521798 212.188973
C 248.991858 212.188973 249.442729 212.002216 249.775112 211.669833
C 250.107495 211.33745 250.294252 210.886579 250.294252 210.416519
C 250.294252 209.946458 250.107495 209.495587 249.775112 209.163205
C 249.442729 208.830822 248.991858 208.644065 248.521798 208.644065
C 248.051738 208.644065 247.600867 208.830822 247.268484 209.163205
C 246.936101 209.495587 246.749344 209.946458 246.749344 210.416519
C 246.749344 210.886579 246.936101 211.33745 247.268484 211.669833
C 247.600867 212.002216 248.051738 212.188973 248.521798 212.188973
z
" style="stroke:#000000;stroke-width:0.886227;"/>
   </g>
  </g>
  <g id="text_13">
   <!-- GSVA vs CAMERA pathway ranking -->
   <defs>
    <path d="M 2.984375 54.6875
L 12.5 54.6875
L 29.59375 8.796875
L 46.6875 54.6875
L 56.203125 54.6875
L 35.6875 0
L 23.484375 0
z
" id="DejaVuSans-118"/>
    <path d="M 44.28125 53.078125
L 44.28125 44.578125
Q 40.484375 46.53125 36.375 47.5
Q 32.28125 48.484375 27.875 48.484375
Q 21.1875 48.484375 17.84375 46.4375
Q 14.5 44.390625 14.5 40.28125
Q 14.5 37.15625 16.890625 35.375
Q 19.28125 33.59375 26.515625 31.984375
L 29.59375 31.296875
Q 39.15625 29.25 43.1875 25.515625
Q 47.21875 21.78125 47.21875 15.09375
Q 47.21875 7.46875 41.1875 3.015625
Q 35.15625 -1.421875 24.609375 -1.421875
Q 20.21875 -1.421875 15.453125 -0.5625
Q 10.6875 0.296875 5.421875 2
L 5.421875 11.28125
Q 10.40625 8.6875 15.234375 7.390625
Q 20.0625 6.109375 24.8125 6.109375
Q 31.15625 6.109375 34.5625 8.28125
Q 37.984375 10.453125 37.984375 14.40625
Q 37.984375 18.0625 35.515625 20.015625
Q 33.0625 21.96875 24.703125 23.78125
L 21.578125 24.515625
Q 13.234375 26.265625 9.515625 29.90625
Q 5.8125 33.546875 5.8125 39.890625
Q 5.8125 47.609375 11.28125 51.796875
Q 16.75 56 26.8125 56
Q 31.78125 56 36.171875 55.265625
Q 40.578125 54.546875 44.28125 53.078125
z
" id="DejaVuSans-115"/>
   </defs>
   <g transform="translate(88.357344 11.397656)scale(0.15 -0.15)">
    <use xlink:href="#DejaVuSans-71"/>
    <use x="77.490234" xlink:href="#DejaVuSans-83"/>
    <use x="140.966797" xlink:href="#DejaVuSans-86"/>
    <use x="209.28125" xlink:href="#DejaVuSans-65"/>
    <use x="277.689453" xlink:href="#DejaVuSans-32"/>
    <use x="309.476562" xlink:href="#DejaVuSans-118"/>
    <use x="368.65625" xlink:href="#DejaVuSans-115"/>
    <use x="420.755859" xlink:href="#DejaVuSans-32"/>
    <use x="452.542969" xlink:href="#DejaVuSans-67"/>
    <use x="522.367188" xlink:href="#DejaVuSans-65"/>
    <use x="590.775391" xlink:href="#DejaVuSans-77"/>
    <use x="677.054688" xlink:href="#DejaVuSans-69"/>
    <use x="740.238281" xlink:href="#DejaVuSans-82"/>
    <use x="809.658203" xlink:href="#DejaVuSans-65"/>
    <use x="878.066406" xlink:href="#DejaVuSans-32"/>
    <use x="909.853516" xlink:href="#DejaVuSans-112"/>
    <use x="973.330078" xlink:href="#DejaVuSans-97"/>
    <use x="1034.609375" xlink:href="#DejaVuSans-116"/>
    <use x="1073.818359" xlink:href="#DejaVuSans-104"/>
    <use x="1137.197266" xlink:href="#DejaVuSans-119"/>
    <use x="1218.984375" xlink:href="#DejaVuSans-97"/>
    <use x="1280.263672" xlink:href="#DejaVuSans-121"/>
    <use x="1339.443359" xlink:href="#DejaVuSans-32"/>
    <use x="1371.230469" xlink:href="#DejaVuSans-114"/>
    <use x="1412.34375" xlink:href="#DejaVuSans-97"/>
    <use x="1473.623047" xlink:href="#DejaVuSans-110"/>
    <use x="1537.001953" xlink:href="#DejaVuSans-107"/>
    <use x="1594.912109" xlink:href="#DejaVuSans-105"/>
    <use x="1622.695312" xlink:href="#DejaVuSans-110"/>
    <use x="1686.074219" xlink:href="#DejaVuSans-103"/>
   </g>
  </g>
 </g>
 <defs>
  <clipPath id="pe3af295fc6">
   <rect height="266.112" width="357.12" x="46.772188" y="20.583376"/>
  </clipPath>
 </defs>
</svg>
