<?xml version="1.0" encoding="utf-8" standalone="no"?>
<!DOCTYPE svg PUBLIC "-//W3C//DTD SVG 1.1//EN"
  "http://www.w3.org/Graphics/SVG/1.1/DTD/svg11.dtd">
<!-- Created with matplotlib (https://matplotlib.org/) -->
<svg height="322.176313pt" version="1.1" viewBox="0 0 406.642188 322.176313" width="406.642188pt" xmlns="http://www.w3.org/2000/svg" xmlns:xlink="http://www.w3.org/1999/xlink">
 <defs>
  <style type="text/css">
*{stroke-linecap:butt;stroke-linejoin:round;}
  </style>
 </defs>
 <g id="figure_1">
  <g id="patch_1">
   <path d="M 0 322.176313
L 406.642188 322.176313
L 406.642188 0
L 0 0
z
" style="fill:#ffffff;stroke:#ffffff;stroke-linejoin:miter;"/>
  </g>
  <g id="axes_1">
   <g id="patch_2">
    <path d="M 46.772188 286.695376
L 403.892188 286.695376
L 403.892188 20.583376
L 46.772188 20.583376
z
" style="fill:none;"/>
   </g>
   <g id="matplotlib.axis_1">
    <g id="xtick_1">
     <g id="line2d_1">
      <path clip-path="url(#p48a14b5bf3)" d="M 94.181957 286.695376
L 94.181957 20.583376
" style="fill:none;stroke:#e5e5e5;stroke-width:0.8;"/>
     </g>
     <g id="line2d_2">
      <path d="M 94.181957 286.695376
" style="fill:none;stroke:#000000;stroke-width:1.5;"/>
      <defs>
       <path d="M 0 0
L 0 2.75
" id="m4239027c78" style="stroke:#000000;"/>
      </defs>
      <g>
       <use style="stroke:#000000;" x="94.181957" xlink:href="#m4239027c78" y="286.695376"/>
      </g>
     </g>
     <g id="text_1">
      <!-- 0.04 -->
      <defs>
       <path d="M 31.78125 66.40625
Q 24.171875 66.40625 20.328125 58.90625
Q 16.5 51.421875 16.5 36.375
Q 16.5 21.390625 20.328125 13.890625
Q 24.171875 6.390625 31.78125 6.390625
Q 39.453125 6.390625 43.28125 13.890625
Q 47.125 21.390625 47.125 36.375
Q 47.125 51.421875 43.28125 58.90625
Q 39.453125 66.40625 31.78125 66.40625
z
M 31.78125 74.21875
Q 44.046875 74.21875 50.515625 64.515625
Q 56.984375 54.828125 56.984375 36.375
Q 56.984375 17.96875 50.515625 8.265625
Q 44.046875 -1.421875 31.78125 -1.421875
Q 19.53125 -1.421875 13.0625 8.265625
Q 6.59375 17.96875 6.59375 36.375
Q 6.59375 54.828125 13.0625 64.515625
Q 19.53125 74.21875 31.78125 74.21875
z
" id="DejaVuSans-48"/>
       <path d="M 10.6875 12.40625
L 21 12.40625
L 21 0
L 10.6875 0
z
" id="DejaVuSans-46"/>
       <path d="M 37.796875 64.3125
L 12.890625 25.390625
L 37.796875 25.390625
z
M 35.203125 72.90625
L 47.609375 72.90625
L 47.609375 25.390625
L 58.015625 25.390625
L 58.015625 17.1875
L 47.609375 17.1875
L 47.609375 0
L 37.796875 0
L 37.796875 17.1875
L 4.890625 17.1875
L 4.890625 26.703125
z
" id="DejaVuSans-52"/>
      </defs>
      <g style="fill:#4d4d4d;" transform="translate(80.822582 300.763501)scale(0.12 -0.12)">
       <use xlink:href="#DejaVuSans-48"/>
       <use x="63.623047" xlink:href="#DejaVuSans-46"/>
       <use x="95.410156" xlink:href="#DejaVuSans-48"/>
       <use x="159.033203" xlink:href="#DejaVuSans-52"/>
      </g>
     </g>
    </g>
    <g id="xtick_2">
     <g id="line2d_3">
      <path clip-path="url(#p48a14b5bf3)" d="M 189.134713 286.695376
L 189.134713 20.583376
" style="fill:none;stroke:#e5e5e5;stroke-width:0.8;"/>
     </g>
     <g id="line2d_4">
      <path d="M 189.134713 286.695376
" style="fill:none;stroke:#000000;stroke-width:1.5;"/>
      <g>
       <use style="stroke:#000000;" x="189.134713" xlink:href="#m4239027c78" y="286.695376"/>
      </g>
     </g>
     <g id="text_2">
      <!-- 0.08 -->
      <defs>
       <path d="M 31.78125 34.625
Q 24.75 34.625 20.71875 30.859375
Q 16.703125 27.09375 16.703125 20.515625
Q 16.703125 13.921875 20.71875 10.15625
Q 24.75 6.390625 31.78125 6.390625
Q 38.8125 6.390625 42.859375 10.171875
Q 46.921875 13.96875 46.921875 20.515625
Q 46.921875 27.09375 42.890625 30.859375
Q 38.875 34.625 31.78125 34.625
z
M 21.921875 38.8125
Q 15.578125 40.375 12.03125 44.71875
Q 8.5 49.078125 8.5 55.328125
Q 8.5 64.0625 14.71875 69.140625
Q 20.953125 74.21875 31.78125 74.21875
Q 42.671875 74.21875 48.875 69.140625
Q 55.078125 64.0625 55.078125 55.328125
Q 55.078125 49.078125 51.53125 44.71875
Q 48 40.375 41.703125 38.8125
Q 48.828125 37.15625 52.796875 32.3125
Q 56.78125 27.484375 56.78125 20.515625
Q 56.78125 9.90625 50.3125 4.234375
Q 43.84375 -1.421875 31.78125 -1.421875
Q 19.734375 -1.421875 13.25 4.234375
Q 6.78125 9.90625 6.78125 20.515625
Q 6.78125 27.484375 10.78125 32.3125
Q 14.796875 37.15625 21.921875 38.8125
z
M 18.3125 54.390625
Q 18.3125 48.734375 21.84375 45.5625
Q 25.390625 42.390625 31.78125 42.390625
Q 38.140625 42.390625 41.71875 45.5625
Q 45.3125 48.734375 45.3125 54.390625
Q 45.3125 60.0625 41.71875 63.234375
Q 38.140625 66.40625 31.78125 66.40625
Q 25.390625 66.40625 21.84375 63.234375
Q 18.3125 60.0625 18.3125 54.390625
z
" id="DejaVuSans-56"/>
      </defs>
      <g style="fill:#4d4d4d;" transform="translate(175.775338 300.763501)scale(0.12 -0.12)">
       <use xlink:href="#DejaVuSans-48"/>
       <use x="63.623047" xlink:href="#DejaVuSans-46"/>
       <use x="95.410156" xlink:href="#DejaVuSans-48"/>
       <use x="159.033203" xlink:href="#DejaVuSans-56"/>
      </g>
     </g>
    </g>
    <g id="xtick_3">
     <g id="line2d_5">
      <path clip-path="url(#p48a14b5bf3)" d="M 284.087469 286.695376
L 284.087469 20.583376
" style="fill:none;stroke:#e5e5e5;stroke-width:0.8;"/>
     </g>
     <g id="line2d_6">
      <path d="M 284.087469 286.695376
" style="fill:none;stroke:#000000;stroke-width:1.5;"/>
      <g>
       <use style="stroke:#000000;" x="284.087469" xlink:href="#m4239027c78" y="286.695376"/>
      </g>
     </g>
     <g id="text_3">
      <!-- 0.12 -->
      <defs>
       <path d="M 12.40625 8.296875
L 28.515625 8.296875
L 28.515625 63.921875
L 10.984375 60.40625
L 10.984375 69.390625
L 28.421875 72.90625
L 38.28125 72.90625
L 38.28125 8.296875
L 54.390625 8.296875
L 54.390625 0
L 12.40625 0
z
" id="DejaVuSans-49"/>
       <path d="M 19.1875 8.296875
L 53.609375 8.296875
L 53.609375 0
L 7.328125 0
L 7.328125 8.296875
Q 12.9375 14.109375 22.625 23.890625
Q 32.328125 33.6875 34.8125 36.53125
Q 39.546875 41.84375 41.421875 45.53125
Q 43.3125 49.21875 43.3125 52.78125
Q 43.3125 58.59375 39.234375 62.25
Q 35.15625 65.921875 28.609375 65.921875
Q 23.96875 65.921875 18.8125 64.3125
Q 13.671875 62.703125 7.8125 59.421875
L 7.8125 69.390625
Q 13.765625 71.78125 18.9375 73
Q 24.125 74.21875 28.421875 74.21875
Q 39.75 74.21875 46.484375 68.546875
Q 53.21875 62.890625 53.21875 53.421875
Q 53.21875 48.921875 51.53125 44.890625
Q 49.859375 40.875 45.40625 35.40625
Q 44.1875 33.984375 37.640625 27.21875
Q 31.109375 20.453125 19.1875 8.296875
z
" id="DejaVuSans-50"/>
      </defs>
      <g style="fill:#4d4d4d;" transform="translate(270.728094 300.763501)scale(0.12 -0.12)">
       <use xlink:href="#DejaVuSans-48"/>
       <use x="63.623047" xlink:href="#DejaVuSans-46"/>
       <use x="95.410156" xlink:href="#DejaVuSans-49"/>
       <use x="159.033203" xlink:href="#DejaVuSans-50"/>
      </g>
     </g>
    </g>
    <g id="xtick_4">
     <g id="line2d_7">
      <path clip-path="url(#p48a14b5bf3)" d="M 379.040225 286.695376
L 379.040225 20.583376
" style="fill:none;stroke:#e5e5e5;stroke-width:0.8;"/>
     </g>
     <g id="line2d_8">
      <path d="M 379.040225 286.695376
" style="fill:none;stroke:#000000;stroke-width:1.5;"/>
      <g>
       <use style="stroke:#000000;" x="379.040225" xlink:href="#m4239027c78" y="286.695376"/>
      </g>
     </g>
     <g id="text_4">
      <!-- 0.16 -->
      <defs>
       <path d="M 33.015625 40.375
Q 26.375 40.375 22.484375 35.828125
Q 18.609375 31.296875 18.609375 23.390625
Q 18.609375 15.53125 22.484375 10.953125
Q 26.375 6.390625 33.015625 6.390625
Q 39.65625 6.390625 43.53125 10.953125
Q 47.40625 15.53125 47.40625 23.390625
Q 47.40625 31.296875 43.53125 35.828125
Q 39.65625 40.375 33.015625 40.375
z
M 52.59375 71.296875
L 52.59375 62.3125
Q 48.875 64.0625 45.09375 64.984375
Q 41.3125 65.921875 37.59375 65.921875
Q 27.828125 65.921875 22.671875 59.328125
Q 17.53125 52.734375 16.796875 39.40625
Q 19.671875 43.65625 24.015625 45.921875
Q 28.375 48.1875 33.59375 48.1875
Q 44.578125 48.1875 50.953125 41.515625
Q 57.328125 34.859375 57.328125 23.390625
Q 57.328125 12.15625 50.6875 5.359375
Q 44.046875 -1.421875 33.015625 -1.421875
Q 20.359375 -1.421875 13.671875 8.265625
Q 6.984375 17.96875 6.984375 36.375
Q 6.984375 53.65625 15.1875 63.9375
Q 23.390625 74.21875 37.203125 74.21875
Q 40.921875 74.21875 44.703125 73.484375
Q 48.484375 72.75 52.59375 71.296875
z
" id="DejaVuSans-54"/>
      </defs>
      <g style="fill:#4d4d4d;" transform="translate(365.68085 300.763501)scale(0.12 -0.12)">
       <use xlink:href="#DejaVuSans-48"/>
       <use x="63.623047" xlink:href="#DejaVuSans-46"/>
       <use x="95.410156" xlink:href="#DejaVuSans-49"/>
       <use x="159.033203" xlink:href="#DejaVuSans-54"/>
      </g>
     </g>
    </g>
    <g id="xtick_5">
     <g id="line2d_9">
      <path clip-path="url(#p48a14b5bf3)" d="M 141.658335 286.695376
L 141.658335 20.583376
" style="fill:none;stroke:#fafafa;"/>
     </g>
     <g id="line2d_10">
      <path d="M 141.658335 286.695376
" style="fill:none;stroke:#000000;stroke-width:1.5;"/>
     </g>
    </g>
    <g id="xtick_6">
     <g id="line2d_11">
      <path clip-path="url(#p48a14b5bf3)" d="M 236.611091 286.695376
L 236.611091 20.583376
" style="fill:none;stroke:#fafafa;"/>
     </g>
     <g id="line2d_12">
      <path d="M 236.611091 286.695376
" style="fill:none;stroke:#000000;stroke-width:1.5;"/>
     </g>
    </g>
    <g id="xtick_7">
     <g id="line2d_13">
      <path clip-path="url(#p48a14b5bf3)" d="M 331.563847 286.695376
L 331.563847 20.583376
" style="fill:none;stroke:#fafafa;"/>
     </g>
     <g id="line2d_14">
      <path d="M 331.563847 286.695376
" style="fill:none;stroke:#000000;stroke-width:1.5;"/>
     </g>
    </g>
    <g id="text_5">
     <!-- Median(Enrichment score) -->
     <defs>
      <path d="M 9.8125 72.90625
L 24.515625 72.90625
L 43.109375 23.296875
L 61.8125 72.90625
L 76.515625 72.90625
L 76.515625 0
L 66.890625 0
L 66.890625 64.015625
L 48.09375 14.015625
L 38.1875 14.015625
L 19.390625 64.015625
L 19.390625 0
L 9.8125 0
z
" id="DejaVuSans-77"/>
      <path d="M 56.203125 29.59375
L 56.203125 25.203125
L 14.890625 25.203125
Q 15.484375 15.921875 20.484375 11.0625
Q 25.484375 6.203125 34.421875 6.203125
Q 39.59375 6.203125 44.453125 7.46875
Q 49.3125 8.734375 54.109375 11.28125
L 54.109375 2.78125
Q 49.265625 0.734375 44.1875 -0.34375
Q 39.109375 -1.421875 33.890625 -1.421875
Q 20.796875 -1.421875 13.15625 6.1875
Q 5.515625 13.8125 5.515625 26.8125
Q 5.515625 40.234375 12.765625 48.109375
Q 20.015625 56 32.328125 56
Q 43.359375 56 49.78125 48.890625
Q 56.203125 41.796875 56.203125 29.59375
z
M 47.21875 32.234375
Q 47.125 39.59375 43.09375 43.984375
Q 39.0625 48.390625 32.421875 48.390625
Q 24.90625 48.390625 20.390625 44.140625
Q 15.875 39.890625 15.1875 32.171875
z
" id="DejaVuSans-101"/>
      <path d="M 45.40625 46.390625
L 45.40625 75.984375
L 54.390625 75.984375
L 54.390625 0
L 45.40625 0
L 45.40625 8.203125
Q 42.578125 3.328125 38.25 0.953125
Q 33.9375 -1.421875 27.875 -1.421875
Q 17.96875 -1.421875 11.734375 6.484375
Q 5.515625 14.40625 5.515625 27.296875
Q 5.515625 40.1875 11.734375 48.09375
Q 17.96875 56 27.875 56
Q 33.9375 56 38.25 53.625
Q 42.578125 51.265625 45.40625 46.390625
z
M 14.796875 27.296875
Q 14.796875 17.390625 18.875 11.75
Q 22.953125 6.109375 30.078125 6.109375
Q 37.203125 6.109375 41.296875 11.75
Q 45.40625 17.390625 45.40625 27.296875
Q 45.40625 37.203125 41.296875 42.84375
Q 37.203125 48.484375 30.078125 48.484375
Q 22.953125 48.484375 18.875 42.84375
Q 14.796875 37.203125 14.796875 27.296875
z
" id="DejaVuSans-100"/>
      <path d="M 9.421875 54.6875
L 18.40625 54.6875
L 18.40625 0
L 9.421875 0
z
M 9.421875 75.984375
L 18.40625 75.984375
L 18.40625 64.59375
L 9.421875 64.59375
z
" id="DejaVuSans-105"/>
      <path d="M 34.28125 27.484375
Q 23.390625 27.484375 19.1875 25
Q 14.984375 22.515625 14.984375 16.5
Q 14.984375 11.71875 18.140625 8.90625
Q 21.296875 6.109375 26.703125 6.109375
Q 34.1875 6.109375 38.703125 11.40625
Q 43.21875 16.703125 43.21875 25.484375
L 43.21875 27.484375
z
M 52.203125 31.203125
L 52.203125 0
L 43.21875 0
L 43.21875 8.296875
Q 40.140625 3.328125 35.546875 0.953125
Q 30.953125 -1.421875 24.3125 -1.421875
Q 15.921875 -1.421875 10.953125 3.296875
Q 6 8.015625 6 15.921875
Q 6 25.140625 12.171875 29.828125
Q 18.359375 34.515625 30.609375 34.515625
L 43.21875 34.515625
L 43.21875 35.40625
Q 43.21875 41.609375 39.140625 45
Q 35.0625 48.390625 27.6875 48.390625
Q 23 48.390625 18.546875 47.265625
Q 14.109375 46.140625 10.015625 43.890625
L 10.015625 52.203125
Q 14.9375 54.109375 19.578125 55.046875
Q 24.21875 56 28.609375 56
Q 40.484375 56 46.34375 49.84375
Q 52.203125 43.703125 52.203125 31.203125
z
" id="DejaVuSans-97"/>
      <path d="M 54.890625 33.015625
L 54.890625 0
L 45.90625 0
L 45.90625 32.71875
Q 45.90625 40.484375 42.875 44.328125
Q 39.84375 48.1875 33.796875 48.1875
Q 26.515625 48.1875 22.3125 43.546875
Q 18.109375 38.921875 18.109375 30.90625
L 18.109375 0
L 9.078125 0
L 9.078125 54.6875
L 18.109375 54.6875
L 18.109375 46.1875
Q 21.34375 51.125 25.703125 53.5625
Q 30.078125 56 35.796875 56
Q 45.21875 56 50.046875 50.171875
Q 54.890625 44.34375 54.890625 33.015625
z
" id="DejaVuSans-110"/>
      <path d="M 31 75.875
Q 24.46875 64.65625 21.28125 53.65625
Q 18.109375 42.671875 18.109375 31.390625
Q 18.109375 20.125 21.3125 9.0625
Q 24.515625 -2 31 -13.1875
L 23.1875 -13.1875
Q 15.875 -1.703125 12.234375 9.375
Q 8.59375 20.453125 8.59375 31.390625
Q 8.59375 42.28125 12.203125 53.3125
Q 15.828125 64.359375 23.1875 75.875
z
" id="DejaVuSans-40"/>
      <path d="M 9.8125 72.90625
L 55.90625 72.90625
L 55.90625 64.59375
L 19.671875 64.59375
L 19.671875 43.015625
L 54.390625 43.015625
L 54.390625 34.71875
L 19.671875 34.71875
L 19.671875 8.296875
L 56.78125 8.296875
L 56.78125 0
L 9.8125 0
z
" id="DejaVuSans-69"/>
      <path d="M 41.109375 46.296875
Q 39.59375 47.171875 37.8125 47.578125
Q 36.03125 48 33.890625 48
Q 26.265625 48 22.1875 43.046875
Q 18.109375 38.09375 18.109375 28.8125
L 18.109375 0
L 9.078125 0
L 9.078125 54.6875
L 18.109375 54.6875
L 18.109375 46.1875
Q 20.953125 51.171875 25.484375 53.578125
Q 30.03125 56 36.53125 56
Q 37.453125 56 38.578125 55.875
Q 39.703125 55.765625 41.0625 55.515625
z
" id="DejaVuSans-114"/>
      <path d="M 48.78125 52.59375
L 48.78125 44.1875
Q 44.96875 46.296875 41.140625 47.34375
Q 37.3125 48.390625 33.40625 48.390625
Q 24.65625 48.390625 19.8125 42.84375
Q 14.984375 37.3125 14.984375 27.296875
Q 14.984375 17.28125 19.8125 11.734375
Q 24.65625 6.203125 33.40625 6.203125
Q 37.3125 6.203125 41.140625 7.25
Q 44.96875 8.296875 48.78125 10.40625
L 48.78125 2.09375
Q 45.015625 0.34375 40.984375 -0.53125
Q 36.96875 -1.421875 32.421875 -1.421875
Q 20.0625 -1.421875 12.78125 6.34375
Q 5.515625 14.109375 5.515625 27.296875
Q 5.515625 40.671875 12.859375 48.328125
Q 20.21875 56 33.015625 56
Q 37.15625 56 41.109375 55.140625
Q 45.0625 54.296875 48.78125 52.59375
z
" id="DejaVuSans-99"/>
      <path d="M 54.890625 33.015625
L 54.890625 0
L 45.90625 0
L 45.90625 32.71875
Q 45.90625 40.484375 42.875 44.328125
Q 39.84375 48.1875 33.796875 48.1875
Q 26.515625 48.1875 22.3125 43.546875
Q 18.109375 38.921875 18.109375 30.90625
L 18.109375 0
L 9.078125 0
L 9.078125 75.984375
L 18.109375 75.984375
L 18.109375 46.1875
Q 21.34375 51.125 25.703125 53.5625
Q 30.078125 56 35.796875 56
Q 45.21875 56 50.046875 50.171875
Q 54.890625 44.34375 54.890625 33.015625
z
" id="DejaVuSans-104"/>
      <path d="M 52 44.1875
Q 55.375 50.25 60.0625 53.125
Q 64.75 56 71.09375 56
Q 79.640625 56 84.28125 50.015625
Q 88.921875 44.046875 88.921875 33.015625
L 88.921875 0
L 79.890625 0
L 79.890625 32.71875
Q 79.890625 40.578125 77.09375 44.375
Q 74.3125 48.1875 68.609375 48.1875
Q 61.625 48.1875 57.5625 43.546875
Q 53.515625 38.921875 53.515625 30.90625
L 53.515625 0
L 44.484375 0
L 44.484375 32.71875
Q 44.484375 40.625 41.703125 44.40625
Q 38.921875 48.1875 33.109375 48.1875
Q 26.21875 48.1875 22.15625 43.53125
Q 18.109375 38.875 18.109375 30.90625
L 18.109375 0
L 9.078125 0
L 9.078125 54.6875
L 18.109375 54.6875
L 18.109375 46.1875
Q 21.1875 51.21875 25.484375 53.609375
Q 29.78125 56 35.6875 56
Q 41.65625 56 45.828125 52.96875
Q 50 49.953125 52 44.1875
z
" id="DejaVuSans-109"/>
      <path d="M 18.3125 70.21875
L 18.3125 54.6875
L 36.8125 54.6875
L 36.8125 47.703125
L 18.3125 47.703125
L 18.3125 18.015625
Q 18.3125 11.328125 20.140625 9.421875
Q 21.96875 7.515625 27.59375 7.515625
L 36.8125 7.515625
L 36.8125 0
L 27.59375 0
Q 17.1875 0 13.234375 3.875
Q 9.28125 7.765625 9.28125 18.015625
L 9.28125 47.703125
L 2.6875 47.703125
L 2.6875 54.6875
L 9.28125 54.6875
L 9.28125 70.21875
z
" id="DejaVuSans-116"/>
      <path id="DejaVuSans-32"/>
      <path d="M 44.28125 53.078125
L 44.28125 44.578125
Q 40.484375 46.53125 36.375 47.5
Q 32.28125 48.484375 27.875 48.484375
Q 21.1875 48.484375 17.84375 46.4375
Q 14.5 44.390625 14.5 40.28125
Q 14.5 37.15625 16.890625 35.375
Q 19.28125 33.59375 26.515625 31.984375
L 29.59375 31.296875
Q 39.15625 29.25 43.1875 25.515625
Q 47.21875 21.78125 47.21875 15.09375
Q 47.21875 7.46875 41.1875 3.015625
Q 35.15625 -1.421875 24.609375 -1.421875
Q 20.21875 -1.421875 15.453125 -0.5625
Q 10.6875 0.296875 5.421875 2
L 5.421875 11.28125
Q 10.40625 8.6875 15.234375 7.390625
Q 20.0625 6.109375 24.8125 6.109375
Q 31.15625 6.109375 34.5625 8.28125
Q 37.984375 10.453125 37.984375 14.40625
Q 37.984375 18.0625 35.515625 20.015625
Q 33.0625 21.96875 24.703125 23.78125
L 21.578125 24.515625
Q 13.234375 26.265625 9.515625 29.90625
Q 5.8125 33.546875 5.8125 39.890625
Q 5.8125 47.609375 11.28125 51.796875
Q 16.75 56 26.8125 56
Q 31.78125 56 36.171875 55.265625
Q 40.578125 54.546875 44.28125 53.078125
z
" id="DejaVuSans-115"/>
      <path d="M 30.609375 48.390625
Q 23.390625 48.390625 19.1875 42.75
Q 14.984375 37.109375 14.984375 27.296875
Q 14.984375 17.484375 19.15625 11.84375
Q 23.34375 6.203125 30.609375 6.203125
Q 37.796875 6.203125 41.984375 11.859375
Q 46.1875 17.53125 46.1875 27.296875
Q 46.1875 37.015625 41.984375 42.703125
Q 37.796875 48.390625 30.609375 48.390625
z
M 30.609375 56
Q 42.328125 56 49.015625 48.375
Q 55.71875 40.765625 55.71875 27.296875
Q 55.71875 13.875 49.015625 6.21875
Q 42.328125 -1.421875 30.609375 -1.421875
Q 18.84375 -1.421875 12.171875 6.21875
Q 5.515625 13.875 5.515625 27.296875
Q 5.515625 40.765625 12.171875 48.375
Q 18.84375 56 30.609375 56
z
" id="DejaVuSans-111"/>
      <path d="M 8.015625 75.875
L 15.828125 75.875
Q 23.140625 64.359375 26.78125 53.3125
Q 30.421875 42.28125 30.421875 31.390625
Q 30.421875 20.453125 26.78125 9.375
Q 23.140625 -1.703125 15.828125 -13.1875
L 8.015625 -13.1875
Q 14.5 -2 17.703125 9.0625
Q 20.90625 20.125 20.90625 31.390625
Q 20.90625 42.671875 17.703125 53.65625
Q 14.5 64.65625 8.015625 75.875
z
" id="DejaVuSans-41"/>
     </defs>
     <g transform="translate(120.590938 319.056782)scale(0.15 -0.15)">
      <use xlink:href="#DejaVuSans-77"/>
      <use x="86.279297" xlink:href="#DejaVuSans-101"/>
      <use x="147.802734" xlink:href="#DejaVuSans-100"/>
      <use x="211.279297" xlink:href="#DejaVuSans-105"/>
      <use x="239.0625" xlink:href="#DejaVuSans-97"/>
      <use x="300.341797" xlink:href="#DejaVuSans-110"/>
      <use x="363.720703" xlink:href="#DejaVuSans-40"/>
      <use x="402.734375" xlink:href="#DejaVuSans-69"/>
      <use x="465.917969" xlink:href="#DejaVuSans-110"/>
      <use x="529.296875" xlink:href="#DejaVuSans-114"/>
      <use x="570.410156" xlink:href="#DejaVuSans-105"/>
      <use x="598.193359" xlink:href="#DejaVuSans-99"/>
      <use x="653.173828" xlink:href="#DejaVuSans-104"/>
      <use x="716.552734" xlink:href="#DejaVuSans-109"/>
      <use x="813.964844" xlink:href="#DejaVuSans-101"/>
      <use x="875.488281" xlink:href="#DejaVuSans-110"/>
      <use x="938.867188" xlink:href="#DejaVuSans-116"/>
      <use x="978.076172" xlink:href="#DejaVuSans-32"/>
      <use x="1009.863281" xlink:href="#DejaVuSans-115"/>
      <use x="1061.962891" xlink:href="#DejaVuSans-99"/>
      <use x="1116.943359" xlink:href="#DejaVuSans-111"/>
      <use x="1178.125" xlink:href="#DejaVuSans-114"/>
      <use x="1219.207031" xlink:href="#DejaVuSans-101"/>
      <use x="1280.730469" xlink:href="#DejaVuSans-41"/>
     </g>
    </g>
   </g>
   <g id="matplotlib.axis_2">
    <g id="ytick_1">
     <g id="line2d_15">
      <path clip-path="url(#p48a14b5bf3)" d="M 46.772188 274.599376
L 403.892188 274.599376
" style="fill:none;stroke:#e5e5e5;stroke-width:0.8;"/>
     </g>
     <g id="line2d_16">
      <path d="M 46.772188 274.599376
" style="fill:none;stroke:#000000;stroke-width:1.5;"/>
      <defs>
       <path d="M 0 0
L -2.75 0
" id="m587cb02e50" style="stroke:#000000;"/>
      </defs>
      <g>
       <use style="stroke:#000000;" x="46.772188" xlink:href="#m587cb02e50" y="274.599376"/>
      </g>
     </g>
     <g id="text_6">
      <!-- 0 -->
      <g style="fill:#4d4d4d;" transform="translate(34.187188 277.910626)scale(0.12 -0.12)">
       <use xlink:href="#DejaVuSans-48"/>
      </g>
     </g>
    </g>
    <g id="ytick_2">
     <g id="line2d_17">
      <path clip-path="url(#p48a14b5bf3)" d="M 46.772188 214.119376
L 403.892188 214.119376
" style="fill:none;stroke:#e5e5e5;stroke-width:0.8;"/>
     </g>
     <g id="line2d_18">
      <path d="M 46.772188 214.119376
" style="fill:none;stroke:#000000;stroke-width:1.5;"/>
      <g>
       <use style="stroke:#000000;" x="46.772188" xlink:href="#m587cb02e50" y="214.119376"/>
      </g>
     </g>
     <g id="text_7">
      <!-- 25 -->
      <defs>
       <path d="M 10.796875 72.90625
L 49.515625 72.90625
L 49.515625 64.59375
L 19.828125 64.59375
L 19.828125 46.734375
Q 21.96875 47.46875 24.109375 47.828125
Q 26.265625 48.1875 28.421875 48.1875
Q 40.625 48.1875 47.75 41.5
Q 54.890625 34.8125 54.890625 23.390625
Q 54.890625 11.625 47.5625 5.09375
Q 40.234375 -1.421875 26.90625 -1.421875
Q 22.3125 -1.421875 17.546875 -0.640625
Q 12.796875 0.140625 7.71875 1.703125
L 7.71875 11.625
Q 12.109375 9.234375 16.796875 8.0625
Q 21.484375 6.890625 26.703125 6.890625
Q 35.15625 6.890625 40.078125 11.328125
Q 45.015625 15.765625 45.015625 23.390625
Q 45.015625 31 40.078125 35.4375
Q 35.15625 39.890625 26.703125 39.890625
Q 22.75 39.890625 18.8125 39.015625
Q 14.890625 38.140625 10.796875 36.28125
z
" id="DejaVuSans-53"/>
      </defs>
      <g style="fill:#4d4d4d;" transform="translate(26.552188 217.430626)scale(0.12 -0.12)">
       <use xlink:href="#DejaVuSans-50"/>
       <use x="63.623047" xlink:href="#DejaVuSans-53"/>
      </g>
     </g>
    </g>
    <g id="ytick_3">
     <g id="line2d_19">
      <path clip-path="url(#p48a14b5bf3)" d="M 46.772188 153.639376
L 403.892188 153.639376
" style="fill:none;stroke:#e5e5e5;stroke-width:0.8;"/>
     </g>
     <g id="line2d_20">
      <path d="M 46.772188 153.639376
" style="fill:none;stroke:#000000;stroke-width:1.5;"/>
      <g>
       <use style="stroke:#000000;" x="46.772188" xlink:href="#m587cb02e50" y="153.639376"/>
      </g>
     </g>
     <g id="text_8">
      <!-- 50 -->
      <g style="fill:#4d4d4d;" transform="translate(26.552188 156.950626)scale(0.12 -0.12)">
       <use xlink:href="#DejaVuSans-53"/>
       <use x="63.623047" xlink:href="#DejaVuSans-48"/>
      </g>
     </g>
    </g>
    <g id="ytick_4">
     <g id="line2d_21">
      <path clip-path="url(#p48a14b5bf3)" d="M 46.772188 93.159376
L 403.892188 93.159376
" style="fill:none;stroke:#e5e5e5;stroke-width:0.8;"/>
     </g>
     <g id="line2d_22">
      <path d="M 46.772188 93.159376
" style="fill:none;stroke:#000000;stroke-width:1.5;"/>
      <g>
       <use style="stroke:#000000;" x="46.772188" xlink:href="#m587cb02e50" y="93.159376"/>
      </g>
     </g>
     <g id="text_9">
      <!-- 75 -->
      <defs>
       <path d="M 8.203125 72.90625
L 55.078125 72.90625
L 55.078125 68.703125
L 28.609375 0
L 18.3125 0
L 43.21875 64.59375
L 8.203125 64.59375
z
" id="DejaVuSans-55"/>
      </defs>
      <g style="fill:#4d4d4d;" transform="translate(26.552188 96.470626)scale(0.12 -0.12)">
       <use xlink:href="#DejaVuSans-55"/>
       <use x="63.623047" xlink:href="#DejaVuSans-53"/>
      </g>
     </g>
    </g>
    <g id="ytick_5">
     <g id="line2d_23">
      <path clip-path="url(#p48a14b5bf3)" d="M 46.772188 32.679376
L 403.892188 32.679376
" style="fill:none;stroke:#e5e5e5;stroke-width:0.8;"/>
     </g>
     <g id="line2d_24">
      <path d="M 46.772188 32.679376
" style="fill:none;stroke:#000000;stroke-width:1.5;"/>
      <g>
       <use style="stroke:#000000;" x="46.772188" xlink:href="#m587cb02e50" y="32.679376"/>
      </g>
     </g>
     <g id="text_10">
      <!-- 100 -->
      <g style="fill:#4d4d4d;" transform="translate(18.917188 35.990626)scale(0.12 -0.12)">
       <use xlink:href="#DejaVuSans-49"/>
       <use x="63.623047" xlink:href="#DejaVuSans-48"/>
       <use x="127.246094" xlink:href="#DejaVuSans-48"/>
      </g>
     </g>
    </g>
    <g id="ytick_6">
     <g id="line2d_25">
      <path clip-path="url(#p48a14b5bf3)" d="M 46.772188 244.359376
L 403.892188 244.359376
" style="fill:none;stroke:#fafafa;"/>
     </g>
     <g id="line2d_26">
      <path d="M 46.772188 244.359376
" style="fill:none;stroke:#000000;stroke-width:1.5;"/>
     </g>
    </g>
    <g id="ytick_7">
     <g id="line2d_27">
      <path clip-path="url(#p48a14b5bf3)" d="M 46.772188 183.879376
L 403.892188 183.879376
" style="fill:none;stroke:#fafafa;"/>
     </g>
     <g id="line2d_28">
      <path d="M 46.772188 183.879376
" style="fill:none;stroke:#000000;stroke-width:1.5;"/>
     </g>
    </g>
    <g id="ytick_8">
     <g id="line2d_29">
      <path clip-path="url(#p48a14b5bf3)" d="M 46.772188 123.399376
L 403.892188 123.399376
" style="fill:none;stroke:#fafafa;"/>
     </g>
     <g id="line2d_30">
      <path d="M 46.772188 123.399376
" style="fill:none;stroke:#000000;stroke-width:1.5;"/>
     </g>
    </g>
    <g id="ytick_9">
     <g id="line2d_31">
      <path clip-path="url(#p48a14b5bf3)" d="M 46.772188 62.919376
L 403.892188 62.919376
" style="fill:none;stroke:#fafafa;"/>
     </g>
     <g id="line2d_32">
      <path d="M 46.772188 62.919376
" style="fill:none;stroke:#000000;stroke-width:1.5;"/>
     </g>
    </g>
    <g id="text_11">
     <!-- Genericness (percentile of ranking) -->
     <defs>
      <path d="M 59.515625 10.40625
L 59.515625 29.984375
L 43.40625 29.984375
L 43.40625 38.09375
L 69.28125 38.09375
L 69.28125 6.78125
Q 63.578125 2.734375 56.6875 0.65625
Q 49.8125 -1.421875 42 -1.421875
Q 24.90625 -1.421875 15.25 8.5625
Q 5.609375 18.5625 5.609375 36.375
Q 5.609375 54.25 15.25 64.234375
Q 24.90625 74.21875 42 74.21875
Q 49.125 74.21875 55.546875 72.453125
Q 61.96875 70.703125 67.390625 67.28125
L 67.390625 56.78125
Q 61.921875 61.421875 55.765625 63.765625
Q 49.609375 66.109375 42.828125 66.109375
Q 29.4375 66.109375 22.71875 58.640625
Q 16.015625 51.171875 16.015625 36.375
Q 16.015625 21.625 22.71875 14.15625
Q 29.4375 6.6875 42.828125 6.6875
Q 48.046875 6.6875 52.140625 7.59375
Q 56.25 8.5 59.515625 10.40625
z
" id="DejaVuSans-71"/>
      <path d="M 18.109375 8.203125
L 18.109375 -20.796875
L 9.078125 -20.796875
L 9.078125 54.6875
L 18.109375 54.6875
L 18.109375 46.390625
Q 20.953125 51.265625 25.265625 53.625
Q 29.59375 56 35.59375 56
Q 45.5625 56 51.78125 48.09375
Q 58.015625 40.1875 58.015625 27.296875
Q 58.015625 14.40625 51.78125 6.484375
Q 45.5625 -1.421875 35.59375 -1.421875
Q 29.59375 -1.421875 25.265625 0.953125
Q 20.953125 3.328125 18.109375 8.203125
z
M 48.6875 27.296875
Q 48.6875 37.203125 44.609375 42.84375
Q 40.53125 48.484375 33.40625 48.484375
Q 26.265625 48.484375 22.1875 42.84375
Q 18.109375 37.203125 18.109375 27.296875
Q 18.109375 17.390625 22.1875 11.75
Q 26.265625 6.109375 33.40625 6.109375
Q 40.53125 6.109375 44.609375 11.75
Q 48.6875 17.390625 48.6875 27.296875
z
" id="DejaVuSans-112"/>
      <path d="M 9.421875 75.984375
L 18.40625 75.984375
L 18.40625 0
L 9.421875 0
z
" id="DejaVuSans-108"/>
      <path d="M 37.109375 75.984375
L 37.109375 68.5
L 28.515625 68.5
Q 23.6875 68.5 21.796875 66.546875
Q 19.921875 64.59375 19.921875 59.515625
L 19.921875 54.6875
L 34.71875 54.6875
L 34.71875 47.703125
L 19.921875 47.703125
L 19.921875 0
L 10.890625 0
L 10.890625 47.703125
L 2.296875 47.703125
L 2.296875 54.6875
L 10.890625 54.6875
L 10.890625 58.5
Q 10.890625 67.625 15.140625 71.796875
Q 19.390625 75.984375 28.609375 75.984375
z
" id="DejaVuSans-102"/>
      <path d="M 9.078125 75.984375
L 18.109375 75.984375
L 18.109375 31.109375
L 44.921875 54.6875
L 56.390625 54.6875
L 27.390625 29.109375
L 57.625 0
L 45.90625 0
L 18.109375 26.703125
L 18.109375 0
L 9.078125 0
z
" id="DejaVuSans-107"/>
      <path d="M 45.40625 27.984375
Q 45.40625 37.75 41.375 43.109375
Q 37.359375 48.484375 30.078125 48.484375
Q 22.859375 48.484375 18.828125 43.109375
Q 14.796875 37.75 14.796875 27.984375
Q 14.796875 18.265625 18.828125 12.890625
Q 22.859375 7.515625 30.078125 7.515625
Q 37.359375 7.515625 41.375 12.890625
Q 45.40625 18.265625 45.40625 27.984375
z
M 54.390625 6.78125
Q 54.390625 -7.171875 48.1875 -13.984375
Q 42 -20.796875 29.203125 -20.796875
Q 24.46875 -20.796875 20.265625 -20.09375
Q 16.0625 -19.390625 12.109375 -17.921875
L 12.109375 -9.1875
Q 16.0625 -11.328125 19.921875 -12.34375
Q 23.78125 -13.375 27.78125 -13.375
Q 36.625 -13.375 41.015625 -8.765625
Q 45.40625 -4.15625 45.40625 5.171875
L 45.40625 9.625
Q 42.625 4.78125 38.28125 2.390625
Q 33.9375 0 27.875 0
Q 17.828125 0 11.671875 7.65625
Q 5.515625 15.328125 5.515625 27.984375
Q 5.515625 40.671875 11.671875 48.328125
Q 17.828125 56 27.875 56
Q 33.9375 56 38.28125 53.609375
Q 42.625 51.21875 45.40625 46.390625
L 45.40625 54.6875
L 54.390625 54.6875
z
" id="DejaVuSans-103"/>
     </defs>
     <g transform="translate(11.397656 284.455126)rotate(-90)scale(0.15 -0.15)">
      <use xlink:href="#DejaVuSans-71"/>
      <use x="77.490234" xlink:href="#DejaVuSans-101"/>
      <use x="139.013672" xlink:href="#DejaVuSans-110"/>
      <use x="202.392578" xlink:href="#DejaVuSans-101"/>
      <use x="263.916016" xlink:href="#DejaVuSans-114"/>
      <use x="305.029297" xlink:href="#DejaVuSans-105"/>
      <use x="332.8125" xlink:href="#DejaVuSans-99"/>
      <use x="387.792969" xlink:href="#DejaVuSans-110"/>
      <use x="451.171875" xlink:href="#DejaVuSans-101"/>
      <use x="512.695312" xlink:href="#DejaVuSans-115"/>
      <use x="564.794922" xlink:href="#DejaVuSans-115"/>
      <use x="616.894531" xlink:href="#DejaVuSans-32"/>
      <use x="648.681641" xlink:href="#DejaVuSans-40"/>
      <use x="687.695312" xlink:href="#DejaVuSans-112"/>
      <use x="751.171875" xlink:href="#DejaVuSans-101"/>
      <use x="812.695312" xlink:href="#DejaVuSans-114"/>
      <use x="853.777344" xlink:href="#DejaVuSans-99"/>
      <use x="908.757812" xlink:href="#DejaVuSans-101"/>
      <use x="970.28125" xlink:href="#DejaVuSans-110"/>
      <use x="1033.660156" xlink:href="#DejaVuSans-116"/>
      <use x="1072.869141" xlink:href="#DejaVuSans-105"/>
      <use x="1100.652344" xlink:href="#DejaVuSans-108"/>
      <use x="1128.435547" xlink:href="#DejaVuSans-101"/>
      <use x="1189.958984" xlink:href="#DejaVuSans-32"/>
      <use x="1221.746094" xlink:href="#DejaVuSans-111"/>
      <use x="1282.927734" xlink:href="#DejaVuSans-102"/>
      <use x="1318.132812" xlink:href="#DejaVuSans-32"/>
      <use x="1349.919922" xlink:href="#DejaVuSans-114"/>
      <use x="1391.033203" xlink:href="#DejaVuSans-97"/>
      <use x="1452.3125" xlink:href="#DejaVuSans-110"/>
      <use x="1515.691406" xlink:href="#DejaVuSans-107"/>
      <use x="1573.601562" xlink:href="#DejaVuSans-105"/>
      <use x="1601.384766" xlink:href="#DejaVuSans-110"/>
      <use x="1664.763672" xlink:href="#DejaVuSans-103"/>
      <use x="1728.240234" xlink:href="#DejaVuSans-41"/>
     </g>
    </g>
   </g>
   <g id="PathCollection_1">
    <path clip-path="url(#p48a14b5bf3)" d="M 387.65946 34.45183
C 388.12952 34.45183 388.580392 34.265073 388.912774 33.93269
C 389.245157 33.600307 389.431914 33.149436 389.431914 32.679376
C 389.431914 32.209316 389.245157 31.758444 388.912774 31.426062
C 388.580392 31.093679 388.12952 30.906922 387.65946 30.906922
C 387.1894 30.906922 386.738529 31.093679 386.406146 31.426062
C 386.073763 31.758444 385.887006 32.209316 385.887006 32.679376
C 385.887006 33.149436 386.073763 33.600307 386.406146 33.93269
C 386.738529 34.265073 387.1894 34.45183 387.65946 34.45183
z
" style="stroke:#000000;stroke-width:0.886227;"/>
    <path clip-path="url(#p48a14b5bf3)" d="M 164.782315 113.446115
C 165.252376 113.446115 165.703247 113.259358 166.03563 112.926976
C 166.368012 112.594593 166.554769 112.143722 166.554769 111.673662
C 166.554769 111.203601 166.368012 110.75273 166.03563 110.420347
C 165.703247 110.087965 165.252376 109.901208 164.782315 109.901208
C 164.312255 109.901208 163.861384 110.087965 163.529001 110.420347
C 163.196619 110.75273 163.009862 111.203601 163.009862 111.673662
C 163.009862 112.143722 163.196619 112.594593 163.529001 112.926976
C 163.861384 113.259358 164.312255 113.446115 164.782315 113.446115
z
" style="stroke:#000000;stroke-width:0.886227;"/>
    <path clip-path="url(#p48a14b5bf3)" d="M 178.505765 93.697544
C 178.975825 93.697544 179.426696 93.510787 179.759079 93.178404
C 180.091462 92.846021 180.278219 92.39515 180.278219 91.92509
C 180.278219 91.45503 180.091462 91.004159 179.759079 90.671776
C 179.426696 90.339393 178.975825 90.152636 178.505765 90.152636
C 178.035705 90.152636 177.584834 90.339393 177.252451 90.671776
C 176.920068 91.004159 176.733311 91.45503 176.733311 91.92509
C 176.733311 92.39515 176.920068 92.846021 177.252451 93.178404
C 177.584834 93.510787 178.035705 93.697544 178.505765 93.697544
z
" style="stroke:#000000;stroke-width:0.886227;"/>
    <path clip-path="url(#p48a14b5bf3)" d="M 125.14206 177.628973
C 125.612121 177.628973 126.062992 177.442216 126.395375 177.109833
C 126.727757 176.77745 126.914514 176.326579 126.914514 175.856519
C 126.914514 175.386458 126.727757 174.935587 126.395375 174.603205
C 126.062992 174.270822 125.612121 174.084065 125.14206 174.084065
C 124.672 174.084065 124.221129 174.270822 123.888746 174.603205
C 123.556363 174.935587 123.369607 175.386458 123.369607 175.856519
C 123.369607 176.326579 123.556363 176.77745 123.888746 177.109833
C 124.221129 177.442216 124.672 177.628973 125.14206 177.628973
z
" style="stroke:#000000;stroke-width:0.886227;"/>
    <path clip-path="url(#p48a14b5bf3)" d="M 348.758582 39.388973
C 349.228642 39.388973 349.679513 39.202216 350.011896 38.869833
C 350.344278 38.53745 350.531035 38.086579 350.531035 37.616519
C 350.531035 37.146458 350.344278 36.695587 350.011896 36.363205
C 349.679513 36.030822 349.228642 35.844065 348.758582 35.844065
C 348.288521 35.844065 347.83765 36.030822 347.505267 36.363205
C 347.172885 36.695587 346.986128 37.146458 346.986128 37.616519
C 346.986128 38.086579 347.172885 38.53745 347.505267 38.869833
C 347.83765 39.202216 348.288521 39.388973 348.758582 39.388973
z
" style="stroke:#000000;stroke-width:0.886227;"/>
    <path clip-path="url(#p48a14b5bf3)" d="M 118.421923 192.440401
C 118.891983 192.440401 119.342854 192.253644 119.675237 191.921261
C 120.007619 191.588879 120.194376 191.138008 120.194376 190.667947
C 120.194376 190.197887 120.007619 189.747016 119.675237 189.414633
C 119.342854 189.08225 118.891983 188.895493 118.421923 188.895493
C 117.951862 188.895493 117.500991 189.08225 117.168608 189.414633
C 116.836226 189.747016 116.649469 190.197887 116.649469 190.667947
C 116.649469 191.138008 116.836226 191.588879 117.168608 191.921261
C 117.500991 192.253644 117.951862 192.440401 118.421923 192.440401
z
" style="stroke:#000000;stroke-width:0.886227;"/>
    <path clip-path="url(#p48a14b5bf3)" d="M 173.609261 108.508973
C 174.079321 108.508973 174.530192 108.322216 174.862575 107.989833
C 175.194958 107.65745 175.381715 107.206579 175.381715 106.736519
C 175.381715 106.266458 175.194958 105.815587 174.862575 105.483205
C 174.530192 105.150822 174.079321 104.964065 173.609261 104.964065
C 173.139201 104.964065 172.68833 105.150822 172.355947 105.483205
C 172.023564 105.815587 171.836807 106.266458 171.836807 106.736519
C 171.836807 107.206579 172.023564 107.65745 172.355947 107.989833
C 172.68833 108.322216 173.139201 108.508973 173.609261 108.508973
z
" style="stroke:#000000;stroke-width:0.886227;"/>
    <path clip-path="url(#p48a14b5bf3)" d="M 184.520776 83.823258
C 184.990837 83.823258 185.441708 83.636501 185.774091 83.304119
C 186.106473 82.971736 186.29323 82.520865 186.29323 82.050804
C 186.29323 81.580744 186.106473 81.129873 185.774091 80.79749
C 185.441708 80.465107 184.990837 80.278351 184.520776 80.278351
C 184.050716 80.278351 183.599845 80.465107 183.267462 80.79749
C 182.935079 81.129873 182.748323 81.580744 182.748323 82.050804
C 182.748323 82.520865 182.935079 82.971736 183.267462 83.304119
C 183.599845 83.636501 184.050716 83.823258 184.520776 83.823258
z
" style="stroke:#000000;stroke-width:0.886227;"/>
    <path clip-path="url(#p48a14b5bf3)" d="M 150.071531 152.943258
C 150.541591 152.943258 150.992462 152.756501 151.324845 152.424119
C 151.657228 152.091736 151.843985 151.640865 151.843985 151.170804
C 151.843985 150.700744 151.657228 150.249873 151.324845 149.91749
C 150.992462 149.585107 150.541591 149.398351 150.071531 149.398351
C 149.601471 149.398351 149.1506 149.585107 148.818217 149.91749
C 148.485834 150.249873 148.299077 150.700744 148.299077 151.170804
C 148.299077 151.640865 148.485834 152.091736 148.818217 152.424119
C 149.1506 152.756501 149.601471 152.943258 150.071531 152.943258
z
" style="stroke:#000000;stroke-width:0.886227;"/>
    <path clip-path="url(#p48a14b5bf3)" d="M 111.496306 202.314687
C 111.966367 202.314687 112.417238 202.12793 112.74962 201.795547
C 113.082003 201.463164 113.26876 201.012293 113.26876 200.542233
C 113.26876 200.072173 113.082003 199.621302 112.74962 199.288919
C 112.417238 198.956536 111.966367 198.769779 111.496306 198.769779
C 111.026246 198.769779 110.575375 198.956536 110.242992 199.288919
C 109.910609 199.621302 109.723852 200.072173 109.723852 200.542233
C 109.723852 201.012293 109.910609 201.463164 110.242992 201.795547
C 110.575375 202.12793 111.026246 202.314687 111.496306 202.314687
z
" style="stroke:#000000;stroke-width:0.886227;"/>
    <path clip-path="url(#p48a14b5bf3)" d="M 148.641346 157.880401
C 149.111407 157.880401 149.562278 157.693644 149.89466 157.361261
C 150.227043 157.028879 150.4138 156.578008 150.4138 156.107947
C 150.4138 155.637887 150.227043 155.187016 149.89466 154.854633
C 149.562278 154.52225 149.111407 154.335493 148.641346 154.335493
C 148.171286 154.335493 147.720415 154.52225 147.388032 154.854633
C 147.055649 155.187016 146.868892 155.637887 146.868892 156.107947
C 146.868892 156.578008 147.055649 157.028879 147.388032 157.361261
C 147.720415 157.693644 148.171286 157.880401 148.641346 157.880401
z
" style="stroke:#000000;stroke-width:0.886227;"/>
    <path clip-path="url(#p48a14b5bf3)" d="M 176.485602 103.57183
C 176.955662 103.57183 177.406533 103.385073 177.738916 103.05269
C 178.071299 102.720307 178.258055 102.269436 178.258055 101.799376
C 178.258055 101.329316 178.071299 100.878444 177.738916 100.546062
C 177.406533 100.213679 176.955662 100.026922 176.485602 100.026922
C 176.015541 100.026922 175.56467 100.213679 175.232287 100.546062
C 174.899905 100.878444 174.713148 101.329316 174.713148 101.799376
C 174.713148 102.269436 174.899905 102.720307 175.232287 103.05269
C 175.56467 103.385073 176.015541 103.57183 176.485602 103.57183
z
" style="stroke:#000000;stroke-width:0.886227;"/>
    <path clip-path="url(#p48a14b5bf3)" d="M 160.387497 123.320401
C 160.857558 123.320401 161.308429 123.133644 161.640811 122.801261
C 161.973194 122.468879 162.159951 122.018008 162.159951 121.547947
C 162.159951 121.077887 161.973194 120.627016 161.640811 120.294633
C 161.308429 119.96225 160.857558 119.775493 160.387497 119.775493
C 159.917437 119.775493 159.466566 119.96225 159.134183 120.294633
C 158.8018 120.627016 158.615043 121.077887 158.615043 121.547947
C 158.615043 122.018008 158.8018 122.468879 159.134183 122.801261
C 159.466566 123.133644 159.917437 123.320401 160.387497 123.320401
z
" style="stroke:#000000;stroke-width:0.886227;"/>
    <path clip-path="url(#p48a14b5bf3)" d="M 78.365938 261.560401
C 78.835998 261.560401 79.286869 261.373644 79.619252 261.041261
C 79.951635 260.708879 80.138392 260.258008 80.138392 259.787947
C 80.138392 259.317887 79.951635 258.867016 79.619252 258.534633
C 79.286869 258.20225 78.835998 258.015493 78.365938 258.015493
C 77.895877 258.015493 77.445006 258.20225 77.112624 258.534633
C 76.780241 258.867016 76.593484 259.317887 76.593484 259.787947
C 76.593484 260.258008 76.780241 260.708879 77.112624 261.041261
C 77.445006 261.373644 77.895877 261.560401 78.365938 261.560401
z
" style="stroke:#000000;stroke-width:0.886227;"/>
    <path clip-path="url(#p48a14b5bf3)" d="M 239.859651 54.200401
C 240.329711 54.200401 240.780582 54.013644 241.112965 53.681261
C 241.445348 53.348879 241.632105 52.898008 241.632105 52.427947
C 241.632105 51.957887 241.445348 51.507016 241.112965 51.174633
C 240.780582 50.84225 240.329711 50.655493 239.859651 50.655493
C 239.389591 50.655493 238.93872 50.84225 238.606337 51.174633
C 238.273954 51.507016 238.087197 51.957887 238.087197 52.427947
C 238.087197 52.898008 238.273954 53.348879 238.606337 53.681261
C 238.93872 54.013644 239.389591 54.200401 239.859651 54.200401
z
" style="stroke:#000000;stroke-width:0.886227;"/>
    <path clip-path="url(#p48a14b5bf3)" d="M 280.258618 49.263258
C 280.728678 49.263258 281.179549 49.076501 281.511932 48.744119
C 281.844315 48.411736 282.031072 47.960865 282.031072 47.490804
C 282.031072 47.020744 281.844315 46.569873 281.511932 46.23749
C 281.179549 45.905107 280.728678 45.718351 280.258618 45.718351
C 279.788558 45.718351 279.337687 45.905107 279.005304 46.23749
C 278.672921 46.569873 278.486164 47.020744 278.486164 47.490804
C 278.486164 47.960865 278.672921 48.411736 279.005304 48.744119
C 279.337687 49.076501 279.788558 49.263258 280.258618 49.263258
z
" style="stroke:#000000;stroke-width:0.886227;"/>
    <path clip-path="url(#p48a14b5bf3)" d="M 101.083255 227.000401
C 101.553315 227.000401 102.004186 226.813644 102.336569 226.481261
C 102.668952 226.148879 102.855709 225.698008 102.855709 225.227947
C 102.855709 224.757887 102.668952 224.307016 102.336569 223.974633
C 102.004186 223.64225 101.553315 223.455493 101.083255 223.455493
C 100.613195 223.455493 100.162323 223.64225 99.829941 223.974633
C 99.497558 224.307016 99.310801 224.757887 99.310801 225.227947
C 99.310801 225.698008 99.497558 226.148879 99.829941 226.481261
C 100.162323 226.813644 100.613195 227.000401 101.083255 227.000401
z
" style="stroke:#000000;stroke-width:0.886227;"/>
    <path clip-path="url(#p48a14b5bf3)" d="M 110.332973 207.25183
C 110.803034 207.25183 111.253905 207.065073 111.586287 206.73269
C 111.91867 206.400307 112.105427 205.949436 112.105427 205.479376
C 112.105427 205.009316 111.91867 204.558444 111.586287 204.226062
C 111.253905 203.893679 110.803034 203.706922 110.332973 203.706922
C 109.862913 203.706922 109.412042 203.893679 109.079659 204.226062
C 108.747276 204.558444 108.560519 205.009316 108.560519 205.479376
C 108.560519 205.949436 108.747276 206.400307 109.079659 206.73269
C 109.412042 207.065073 109.862913 207.25183 110.332973 207.25183
z
" style="stroke:#000000;stroke-width:0.886227;"/>
    <path clip-path="url(#p48a14b5bf3)" d="M 227.209974 59.137544
C 227.680035 59.137544 228.130906 58.950787 228.463288 58.618404
C 228.795671 58.286021 228.982428 57.83515 228.982428 57.36509
C 228.982428 56.89503 228.795671 56.444159 228.463288 56.111776
C 228.130906 55.779393 227.680035 55.592636 227.209974 55.592636
C 226.739914 55.592636 226.289043 55.779393 225.95666 56.111776
C 225.624277 56.444159 225.43752 56.89503 225.43752 57.36509
C 225.43752 57.83515 225.624277 58.286021 225.95666 58.618404
C 226.289043 58.950787 226.739914 59.137544 227.209974 59.137544
z
" style="stroke:#000000;stroke-width:0.886227;"/>
    <path clip-path="url(#p48a14b5bf3)" d="M 136.399435 172.69183
C 136.869496 172.69183 137.320367 172.505073 137.652749 172.17269
C 137.985132 171.840307 138.171889 171.389436 138.171889 170.919376
C 138.171889 170.449316 137.985132 169.998444 137.652749 169.666062
C 137.320367 169.333679 136.869496 169.146922 136.399435 169.146922
C 135.929375 169.146922 135.478504 169.333679 135.146121 169.666062
C 134.813738 169.998444 134.626981 170.449316 134.626981 170.919376
C 134.626981 171.389436 134.813738 171.840307 135.146121 172.17269
C 135.478504 172.505073 135.929375 172.69183 136.399435 172.69183
z
" style="stroke:#000000;stroke-width:0.886227;"/>
    <path clip-path="url(#p48a14b5bf3)" d="M 147.513456 162.817544
C 147.983517 162.817544 148.434388 162.630787 148.76677 162.298404
C 149.099153 161.966021 149.28591 161.51515 149.28591 161.04509
C 149.28591 160.57503 149.099153 160.124159 148.76677 159.791776
C 148.434388 159.459393 147.983517 159.272636 147.513456 159.272636
C 147.043396 159.272636 146.592525 159.459393 146.260142 159.791776
C 145.927759 160.124159 145.741003 160.57503 145.741003 161.04509
C 145.741003 161.51515 145.927759 161.966021 146.260142 162.298404
C 146.592525 162.630787 147.043396 162.817544 147.513456 162.817544
z
" style="stroke:#000000;stroke-width:0.886227;"/>
    <path clip-path="url(#p48a14b5bf3)" d="M 92.973658 241.81183
C 93.443718 241.81183 93.89459 241.625073 94.226972 241.29269
C 94.559355 240.960307 94.746112 240.509436 94.746112 240.039376
C 94.746112 239.569316 94.559355 239.118444 94.226972 238.786062
C 93.89459 238.453679 93.443718 238.266922 92.973658 238.266922
C 92.503598 238.266922 92.052727 238.453679 91.720344 238.786062
C 91.387961 239.118444 91.201204 239.569316 91.201204 240.039376
C 91.201204 240.509436 91.387961 240.960307 91.720344 241.29269
C 92.052727 241.625073 92.503598 241.81183 92.973658 241.81183
z
" style="stroke:#000000;stroke-width:0.886227;"/>
    <path clip-path="url(#p48a14b5bf3)" d="M 185.996425 78.886115
C 186.466485 78.886115 186.917356 78.699358 187.249739 78.366976
C 187.582122 78.034593 187.768879 77.583722 187.768879 77.113662
C 187.768879 76.643601 187.582122 76.19273 187.249739 75.860347
C 186.917356 75.527965 186.466485 75.341208 185.996425 75.341208
C 185.526365 75.341208 185.075493 75.527965 184.743111 75.860347
C 184.410728 76.19273 184.223971 76.643601 184.223971 77.113662
C 184.223971 77.583722 184.410728 78.034593 184.743111 78.366976
C 185.075493 78.699358 185.526365 78.886115 185.996425 78.886115
z
" style="stroke:#000000;stroke-width:0.886227;"/>
    <path clip-path="url(#p48a14b5bf3)" d="M 194.657876 73.948973
C 195.127937 73.948973 195.578808 73.762216 195.91119 73.429833
C 196.243573 73.09745 196.43033 72.646579 196.43033 72.176519
C 196.43033 71.706458 196.243573 71.255587 195.91119 70.923205
C 195.578808 70.590822 195.127937 70.404065 194.657876 70.404065
C 194.187816 70.404065 193.736945 70.590822 193.404562 70.923205
C 193.072179 71.255587 192.885422 71.706458 192.885422 72.176519
C 192.885422 72.646579 193.072179 73.09745 193.404562 73.429833
C 193.736945 73.762216 194.187816 73.948973 194.657876 73.948973
z
" style="stroke:#000000;stroke-width:0.886227;"/>
    <path clip-path="url(#p48a14b5bf3)" d="M 316.189232 44.326115
C 316.659292 44.326115 317.110163 44.139358 317.442546 43.806976
C 317.774929 43.474593 317.961686 43.023722 317.961686 42.553662
C 317.961686 42.083601 317.774929 41.63273 317.442546 41.300347
C 317.110163 40.967965 316.659292 40.781208 316.189232 40.781208
C 315.719172 40.781208 315.268301 40.967965 314.935918 41.300347
C 314.603535 41.63273 314.416778 42.083601 314.416778 42.553662
C 314.416778 43.023722 314.603535 43.474593 314.935918 43.806976
C 315.268301 44.139358 315.719172 44.326115 316.189232 44.326115
z
" style="stroke:#000000;stroke-width:0.886227;"/>
    <path clip-path="url(#p48a14b5bf3)" d="M 71.782214 266.497544
C 72.252274 266.497544 72.703145 266.310787 73.035528 265.978404
C 73.367911 265.646021 73.554668 265.19515 73.554668 264.72509
C 73.554668 264.25503 73.367911 263.804159 73.035528 263.471776
C 72.703145 263.139393 72.252274 262.952636 71.782214 262.952636
C 71.312154 262.952636 70.861283 263.139393 70.5289 263.471776
C 70.196517 263.804159 70.00976 264.25503 70.00976 264.72509
C 70.00976 265.19515 70.196517 265.646021 70.5289 265.978404
C 70.861283 266.310787 71.312154 266.497544 71.782214 266.497544
z
" style="stroke:#000000;stroke-width:0.886227;"/>
    <path clip-path="url(#p48a14b5bf3)" d="M 140.043195 167.754687
C 140.513255 167.754687 140.964126 167.56793 141.296509 167.235547
C 141.628892 166.903164 141.815649 166.452293 141.815649 165.982233
C 141.815649 165.512173 141.628892 165.061302 141.296509 164.728919
C 140.964126 164.396536 140.513255 164.209779 140.043195 164.209779
C 139.573135 164.209779 139.122263 164.396536 138.789881 164.728919
C 138.457498 165.061302 138.270741 165.512173 138.270741 165.982233
C 138.270741 166.452293 138.457498 166.903164 138.789881 167.235547
C 139.122263 167.56793 139.573135 167.754687 140.043195 167.754687
z
" style="stroke:#000000;stroke-width:0.886227;"/>
    <path clip-path="url(#p48a14b5bf3)" d="M 154.170555 143.068973
C 154.640615 143.068973 155.091486 142.882216 155.423869 142.549833
C 155.756252 142.21745 155.943009 141.766579 155.943009 141.296519
C 155.943009 140.826458 155.756252 140.375587 155.423869 140.043205
C 155.091486 139.710822 154.640615 139.524065 154.170555 139.524065
C 153.700495 139.524065 153.249624 139.710822 152.917241 140.043205
C 152.584858 140.375587 152.398101 140.826458 152.398101 141.296519
C 152.398101 141.766579 152.584858 142.21745 152.917241 142.549833
C 153.249624 142.882216 153.700495 143.068973 154.170555 143.068973
z
" style="stroke:#000000;stroke-width:0.886227;"/>
    <path clip-path="url(#p48a14b5bf3)" d="M 63.004915 276.37183
C 63.474975 276.37183 63.925846 276.185073 64.258229 275.85269
C 64.590612 275.520307 64.777369 275.069436 64.777369 274.599376
C 64.777369 274.129316 64.590612 273.678444 64.258229 273.346062
C 63.925846 273.013679 63.474975 272.826922 63.004915 272.826922
C 62.534855 272.826922 62.083983 273.013679 61.751601 273.346062
C 61.419218 273.678444 61.232461 274.129316 61.232461 274.599376
C 61.232461 275.069436 61.419218 275.520307 61.751601 275.85269
C 62.083983 276.185073 62.534855 276.37183 63.004915 276.37183
z
" style="stroke:#000000;stroke-width:0.886227;"/>
    <path clip-path="url(#p48a14b5bf3)" d="M 79.493198 256.623258
C 79.963258 256.623258 80.414129 256.436501 80.746512 256.104119
C 81.078894 255.771736 81.265651 255.320865 81.265651 254.850804
C 81.265651 254.380744 81.078894 253.929873 80.746512 253.59749
C 80.414129 253.265107 79.963258 253.078351 79.493198 253.078351
C 79.023137 253.078351 78.572266 253.265107 78.239883 253.59749
C 77.907501 253.929873 77.720744 254.380744 77.720744 254.850804
C 77.720744 255.320865 77.907501 255.771736 78.239883 256.104119
C 78.572266 256.436501 79.023137 256.623258 79.493198 256.623258
z
" style="stroke:#000000;stroke-width:0.886227;"/>
    <path clip-path="url(#p48a14b5bf3)" d="M 101.186887 222.063258
C 101.656947 222.063258 102.107819 221.876501 102.440201 221.544119
C 102.772584 221.211736 102.959341 220.760865 102.959341 220.290804
C 102.959341 219.820744 102.772584 219.369873 102.440201 219.03749
C 102.107819 218.705107 101.656947 218.518351 101.186887 218.518351
C 100.716827 218.518351 100.265956 218.705107 99.933573 219.03749
C 99.60119 219.369873 99.414433 219.820744 99.414433 220.290804
C 99.414433 220.760865 99.60119 221.211736 99.933573 221.544119
C 100.265956 221.876501 100.716827 222.063258 101.186887 222.063258
z
" style="stroke:#000000;stroke-width:0.886227;"/>
    <path clip-path="url(#p48a14b5bf3)" d="M 160.278069 128.257544
C 160.748129 128.257544 161.199 128.070787 161.531383 127.738404
C 161.863766 127.406021 162.050523 126.95515 162.050523 126.48509
C 162.050523 126.01503 161.863766 125.564159 161.531383 125.231776
C 161.199 124.899393 160.748129 124.712636 160.278069 124.712636
C 159.808009 124.712636 159.357138 124.899393 159.024755 125.231776
C 158.692372 125.564159 158.505615 126.01503 158.505615 126.48509
C 158.505615 126.95515 158.692372 127.406021 159.024755 127.738404
C 159.357138 128.070787 159.808009 128.257544 160.278069 128.257544
z
" style="stroke:#000000;stroke-width:0.886227;"/>
    <path clip-path="url(#p48a14b5bf3)" d="M 96.346798 236.874687
C 96.816858 236.874687 97.267729 236.68793 97.600112 236.355547
C 97.932495 236.023164 98.119252 235.572293 98.119252 235.102233
C 98.119252 234.632173 97.932495 234.181302 97.600112 233.848919
C 97.267729 233.516536 96.816858 233.329779 96.346798 233.329779
C 95.876738 233.329779 95.425866 233.516536 95.093484 233.848919
C 94.761101 234.181302 94.574344 234.632173 94.574344 235.102233
C 94.574344 235.572293 94.761101 236.023164 95.093484 236.355547
C 95.425866 236.68793 95.876738 236.874687 96.346798 236.874687
z
" style="stroke:#000000;stroke-width:0.886227;"/>
    <path clip-path="url(#p48a14b5bf3)" d="M 118.398341 197.377544
C 118.868401 197.377544 119.319272 197.190787 119.651655 196.858404
C 119.984038 196.526021 120.170795 196.07515 120.170795 195.60509
C 120.170795 195.13503 119.984038 194.684159 119.651655 194.351776
C 119.319272 194.019393 118.868401 193.832636 118.398341 193.832636
C 117.928281 193.832636 117.47741 194.019393 117.145027 194.351776
C 116.812644 194.684159 116.625887 195.13503 116.625887 195.60509
C 116.625887 196.07515 116.812644 196.526021 117.145027 196.858404
C 117.47741 197.190787 117.928281 197.377544 118.398341 197.377544
z
" style="stroke:#000000;stroke-width:0.886227;"/>
    <path clip-path="url(#p48a14b5bf3)" d="M 206.893443 69.01183
C 207.363503 69.01183 207.814374 68.825073 208.146757 68.49269
C 208.47914 68.160307 208.665897 67.709436 208.665897 67.239376
C 208.665897 66.769316 208.47914 66.318444 208.146757 65.986062
C 207.814374 65.653679 207.363503 65.466922 206.893443 65.466922
C 206.423383 65.466922 205.972512 65.653679 205.640129 65.986062
C 205.307746 66.318444 205.120989 66.769316 205.120989 67.239376
C 205.120989 67.709436 205.307746 68.160307 205.640129 68.49269
C 205.972512 68.825073 206.423383 69.01183 206.893443 69.01183
z
" style="stroke:#000000;stroke-width:0.886227;"/>
    <path clip-path="url(#p48a14b5bf3)" d="M 161.902439 118.383258
C 162.372499 118.383258 162.82337 118.196501 163.155753 117.864119
C 163.488136 117.531736 163.674893 117.080865 163.674893 116.610804
C 163.674893 116.140744 163.488136 115.689873 163.155753 115.35749
C 162.82337 115.025107 162.372499 114.838351 161.902439 114.838351
C 161.432379 114.838351 160.981508 115.025107 160.649125 115.35749
C 160.316742 115.689873 160.129985 116.140744 160.129985 116.610804
C 160.129985 117.080865 160.316742 117.531736 160.649125 117.864119
C 160.981508 118.196501 161.432379 118.383258 161.902439 118.383258
z
" style="stroke:#000000;stroke-width:0.886227;"/>
    <path clip-path="url(#p48a14b5bf3)" d="M 179.667091 88.760401
C 180.137151 88.760401 180.588022 88.573644 180.920405 88.241261
C 181.252788 87.908879 181.439545 87.458008 181.439545 86.987947
C 181.439545 86.517887 181.252788 86.067016 180.920405 85.734633
C 180.588022 85.40225 180.137151 85.215493 179.667091 85.215493
C 179.197031 85.215493 178.74616 85.40225 178.413777 85.734633
C 178.081394 86.067016 177.894637 86.517887 177.894637 86.987947
C 177.894637 87.458008 178.081394 87.908879 178.413777 88.241261
C 178.74616 88.573644 179.197031 88.760401 179.667091 88.760401
z
" style="stroke:#000000;stroke-width:0.886227;"/>
    <path clip-path="url(#p48a14b5bf3)" d="M 159.383816 133.194687
C 159.853877 133.194687 160.304748 133.00793 160.63713 132.675547
C 160.969513 132.343164 161.15627 131.892293 161.15627 131.422233
C 161.15627 130.952173 160.969513 130.501302 160.63713 130.168919
C 160.304748 129.836536 159.853877 129.649779 159.383816 129.649779
C 158.913756 129.649779 158.462885 129.836536 158.130502 130.168919
C 157.798119 130.501302 157.611363 130.952173 157.611363 131.422233
C 157.611363 131.892293 157.798119 132.343164 158.130502 132.675547
C 158.462885 133.00793 158.913756 133.194687 159.383816 133.194687
z
" style="stroke:#000000;stroke-width:0.886227;"/>
    <path clip-path="url(#p48a14b5bf3)" d="M 176.82109 98.634687
C 177.291151 98.634687 177.742022 98.44793 178.074405 98.115547
C 178.406787 97.783164 178.593544 97.332293 178.593544 96.862233
C 178.593544 96.392173 178.406787 95.941302 178.074405 95.608919
C 177.742022 95.276536 177.291151 95.089779 176.82109 95.089779
C 176.35103 95.089779 175.900159 95.276536 175.567776 95.608919
C 175.235394 95.941302 175.048637 96.392173 175.048637 96.862233
C 175.048637 97.332293 175.235394 97.783164 175.567776 98.115547
C 175.900159 98.44793 176.35103 98.634687 176.82109 98.634687
z
" style="stroke:#000000;stroke-width:0.886227;"/>
    <path clip-path="url(#p48a14b5bf3)" d="M 66.287894 271.434687
C 66.757954 271.434687 67.208825 271.24793 67.541208 270.915547
C 67.873591 270.583164 68.060347 270.132293 68.060347 269.662233
C 68.060347 269.192173 67.873591 268.741302 67.541208 268.408919
C 67.208825 268.076536 66.757954 267.889779 66.287894 267.889779
C 65.817833 267.889779 65.366962 268.076536 65.03458 268.408919
C 64.702197 268.741302 64.51544 269.192173 64.51544 269.662233
C 64.51544 270.132293 64.702197 270.583164 65.03458 270.915547
C 65.366962 271.24793 65.817833 271.434687 66.287894 271.434687
z
" style="stroke:#000000;stroke-width:0.886227;"/>
    <path clip-path="url(#p48a14b5bf3)" d="M 89.769574 246.748973
C 90.239634 246.748973 90.690505 246.562216 91.022888 246.229833
C 91.355271 245.89745 91.542028 245.446579 91.542028 244.976519
C 91.542028 244.506458 91.355271 244.055587 91.022888 243.723205
C 90.690505 243.390822 90.239634 243.204065 89.769574 243.204065
C 89.299514 243.204065 88.848643 243.390822 88.51626 243.723205
C 88.183877 244.055587 87.99712 244.506458 87.99712 244.976519
C 87.99712 245.446579 88.183877 245.89745 88.51626 246.229833
C 88.848643 246.562216 89.299514 246.748973 89.769574 246.748973
z
" style="stroke:#000000;stroke-width:0.886227;"/>
    <path clip-path="url(#p48a14b5bf3)" d="M 104.629439 212.188973
C 105.099499 212.188973 105.55037 212.002216 105.882753 211.669833
C 106.215136 211.33745 106.401893 210.886579 106.401893 210.416519
C 106.401893 209.946458 106.215136 209.495587 105.882753 209.163205
C 105.55037 208.830822 105.099499 208.644065 104.629439 208.644065
C 104.159379 208.644065 103.708508 208.830822 103.376125 209.163205
C 103.043742 209.495587 102.856985 209.946458 102.856985 210.416519
C 102.856985 210.886579 103.043742 211.33745 103.376125 211.669833
C 103.708508 212.002216 104.159379 212.188973 104.629439 212.188973
z
" style="stroke:#000000;stroke-width:0.886227;"/>
    <path clip-path="url(#p48a14b5bf3)" d="M 123.610679 182.566115
C 124.08074 182.566115 124.531611 182.379358 124.863993 182.046976
C 125.196376 181.714593 125.383133 181.263722 125.383133 180.793662
C 125.383133 180.323601 125.196376 179.87273 124.863993 179.540347
C 124.531611 179.207965 124.08074 179.021208 123.610679 179.021208
C 123.140619 179.021208 122.689748 179.207965 122.357365 179.540347
C 122.024982 179.87273 121.838225 180.323601 121.838225 180.793662
C 121.838225 181.263722 122.024982 181.714593 122.357365 182.046976
C 122.689748 182.379358 123.140619 182.566115 123.610679 182.566115
z
" style="stroke:#000000;stroke-width:0.886227;"/>
    <path clip-path="url(#p48a14b5bf3)" d="M 98.045442 231.937544
C 98.515502 231.937544 98.966374 231.750787 99.298756 231.418404
C 99.631139 231.086021 99.817896 230.63515 99.817896 230.16509
C 99.817896 229.69503 99.631139 229.244159 99.298756 228.911776
C 98.966374 228.579393 98.515502 228.392636 98.045442 228.392636
C 97.575382 228.392636 97.124511 228.579393 96.792128 228.911776
C 96.459745 229.244159 96.272988 229.69503 96.272988 230.16509
C 96.272988 230.63515 96.459745 231.086021 96.792128 231.418404
C 97.124511 231.750787 97.575382 231.937544 98.045442 231.937544
z
" style="stroke:#000000;stroke-width:0.886227;"/>
    <path clip-path="url(#p48a14b5bf3)" d="M 150.608262 148.006115
C 151.078323 148.006115 151.529194 147.819358 151.861576 147.486976
C 152.193959 147.154593 152.380716 146.703722 152.380716 146.233662
C 152.380716 145.763601 152.193959 145.31273 151.861576 144.980347
C 151.529194 144.647965 151.078323 144.461208 150.608262 144.461208
C 150.138202 144.461208 149.687331 144.647965 149.354948 144.980347
C 149.022565 145.31273 148.835808 145.763601 148.835808 146.233662
C 148.835808 146.703722 149.022565 147.154593 149.354948 147.486976
C 149.687331 147.819358 150.138202 148.006115 150.608262 148.006115
z
" style="stroke:#000000;stroke-width:0.886227;"/>
    <path clip-path="url(#p48a14b5bf3)" d="M 224.960696 64.074687
C 225.430756 64.074687 225.881627 63.88793 226.21401 63.555547
C 226.546393 63.223164 226.73315 62.772293 226.73315 62.302233
C 226.73315 61.832173 226.546393 61.381302 226.21401 61.048919
C 225.881627 60.716536 225.430756 60.529779 224.960696 60.529779
C 224.490636 60.529779 224.039765 60.716536 223.707382 61.048919
C 223.374999 61.381302 223.188242 61.832173 223.188242 62.302233
C 223.188242 62.772293 223.374999 63.223164 223.707382 63.555547
C 224.039765 63.88793 224.490636 64.074687 224.960696 64.074687
z
" style="stroke:#000000;stroke-width:0.886227;"/>
    <path clip-path="url(#p48a14b5bf3)" d="M 119.39093 187.503258
C 119.86099 187.503258 120.311861 187.316501 120.644244 186.984119
C 120.976627 186.651736 121.163384 186.200865 121.163384 185.730804
C 121.163384 185.260744 120.976627 184.809873 120.644244 184.47749
C 120.311861 184.145107 119.86099 183.958351 119.39093 183.958351
C 118.920869 183.958351 118.469998 184.145107 118.137616 184.47749
C 117.805233 184.809873 117.618476 185.260744 117.618476 185.730804
C 117.618476 186.200865 117.805233 186.651736 118.137616 186.984119
C 118.469998 187.316501 118.920869 187.503258 119.39093 187.503258
z
" style="stroke:#000000;stroke-width:0.886227;"/>
    <path clip-path="url(#p48a14b5bf3)" d="M 101.54527 217.126115
C 102.015331 217.126115 102.466202 216.939358 102.798584 216.606976
C 103.130967 216.274593 103.317724 215.823722 103.317724 215.353662
C 103.317724 214.883601 103.130967 214.43273 102.798584 214.100347
C 102.466202 213.767965 102.015331 213.581208 101.54527 213.581208
C 101.07521 213.581208 100.624339 213.767965 100.291956 214.100347
C 99.959573 214.43273 99.772816 214.883601 99.772816 215.353662
C 99.772816 215.823722 99.959573 216.274593 100.291956 216.606976
C 100.624339 216.939358 101.07521 217.126115 101.54527 217.126115
z
" style="stroke:#000000;stroke-width:0.886227;"/>
    <path clip-path="url(#p48a14b5bf3)" d="M 82.35121 251.686115
C 82.82127 251.686115 83.272141 251.499358 83.604524 251.166976
C 83.936907 250.834593 84.123664 250.383722 84.123664 249.913662
C 84.123664 249.443601 83.936907 248.99273 83.604524 248.660347
C 83.272141 248.327965 82.82127 248.141208 82.35121 248.141208
C 81.881149 248.141208 81.430278 248.327965 81.097896 248.660347
C 80.765513 248.99273 80.578756 249.443601 80.578756 249.913662
C 80.578756 250.383722 80.765513 250.834593 81.097896 251.166976
C 81.430278 251.499358 81.881149 251.686115 82.35121 251.686115
z
" style="stroke:#000000;stroke-width:0.886227;"/>
    <path clip-path="url(#p48a14b5bf3)" d="M 156.231803 138.13183
C 156.701864 138.13183 157.152735 137.945073 157.485118 137.61269
C 157.8175 137.280307 158.004257 136.829436 158.004257 136.359376
C 158.004257 135.889316 157.8175 135.438444 157.485118 135.106062
C 157.152735 134.773679 156.701864 134.586922 156.231803 134.586922
C 155.761743 134.586922 155.310872 134.773679 154.978489 135.106062
C 154.646106 135.438444 154.45935 135.889316 154.45935 136.359376
C 154.45935 136.829436 154.646106 137.280307 154.978489 137.61269
C 155.310872 137.945073 155.761743 138.13183 156.231803 138.13183
z
" style="stroke:#000000;stroke-width:0.886227;"/>
   </g>
   <g id="PathCollection_2">
    <path clip-path="url(#p48a14b5bf3)" d="M 387.65946 34.45183
C 388.12952 34.45183 388.580392 34.265073 388.912774 33.93269
C 389.245157 33.600307 389.431914 33.149436 389.431914 32.679376
C 389.431914 32.209316 389.245157 31.758444 388.912774 31.426062
C 388.580392 31.093679 388.12952 30.906922 387.65946 30.906922
C 387.1894 30.906922 386.738529 31.093679 386.406146 31.426062
C 386.073763 31.758444 385.887006 32.209316 385.887006 32.679376
C 385.887006 33.149436 386.073763 33.600307 386.406146 33.93269
C 386.738529 34.265073 387.1894 34.45183 387.65946 34.45183
z
" style="fill:#ff0000;stroke:#ff0000;stroke-width:0.886227;"/>
    <path clip-path="url(#p48a14b5bf3)" d="M 348.758582 39.388973
C 349.228642 39.388973 349.679513 39.202216 350.011896 38.869833
C 350.344278 38.53745 350.531035 38.086579 350.531035 37.616519
C 350.531035 37.146458 350.344278 36.695587 350.011896 36.363205
C 349.679513 36.030822 349.228642 35.844065 348.758582 35.844065
C 348.288521 35.844065 347.83765 36.030822 347.505267 36.363205
C 347.172885 36.695587 346.986128 37.146458 346.986128 37.616519
C 346.986128 38.086579 347.172885 38.53745 347.505267 38.869833
C 347.83765 39.202216 348.288521 39.388973 348.758582 39.388973
z
" style="fill:#ff0000;stroke:#ff0000;stroke-width:0.886227;"/>
    <path clip-path="url(#p48a14b5bf3)" d="M 239.859651 54.200401
C 240.329711 54.200401 240.780582 54.013644 241.112965 53.681261
C 241.445348 53.348879 241.632105 52.898008 241.632105 52.427947
C 241.632105 51.957887 241.445348 51.507016 241.112965 51.174633
C 240.780582 50.84225 240.329711 50.655493 239.859651 50.655493
C 239.389591 50.655493 238.93872 50.84225 238.606337 51.174633
C 238.273954 51.507016 238.087197 51.957887 238.087197 52.427947
C 238.087197 52.898008 238.273954 53.348879 238.606337 53.681261
C 238.93872 54.013644 239.389591 54.200401 239.859651 54.200401
z
" style="fill:#ff0000;stroke:#ff0000;stroke-width:0.886227;"/>
    <path clip-path="url(#p48a14b5bf3)" d="M 280.258618 49.263258
C 280.728678 49.263258 281.179549 49.076501 281.511932 48.744119
C 281.844315 48.411736 282.031072 47.960865 282.031072 47.490804
C 282.031072 47.020744 281.844315 46.569873 281.511932 46.23749
C 281.179549 45.905107 280.728678 45.718351 280.258618 45.718351
C 279.788558 45.718351 279.337687 45.905107 279.005304 46.23749
C 278.672921 46.569873 278.486164 47.020744 278.486164 47.490804
C 278.486164 47.960865 278.672921 48.411736 279.005304 48.744119
C 279.337687 49.076501 279.788558 49.263258 280.258618 49.263258
z
" style="fill:#ff0000;stroke:#ff0000;stroke-width:0.886227;"/>
    <path clip-path="url(#p48a14b5bf3)" d="M 316.189232 44.326115
C 316.659292 44.326115 317.110163 44.139358 317.442546 43.806976
C 317.774929 43.474593 317.961686 43.023722 317.961686 42.553662
C 317.961686 42.083601 317.774929 41.63273 317.442546 41.300347
C 317.110163 40.967965 316.659292 40.781208 316.189232 40.781208
C 315.719172 40.781208 315.268301 40.967965 314.935918 41.300347
C 314.603535 41.63273 314.416778 42.083601 314.416778 42.553662
C 314.416778 43.023722 314.603535 43.474593 314.935918 43.806976
C 315.268301 44.139358 315.719172 44.326115 316.189232 44.326115
z
" style="fill:#ff0000;stroke:#ff0000;stroke-width:0.886227;"/>
   </g>
   <g id="text_12">
    <g clip-path="url(#p48a14b5bf3)">
     <!-- HALLMARK_TNFA_SIGNALING_VIA_NFKB -->
     <defs>
      <path d="M 9.8125 72.90625
L 19.671875 72.90625
L 19.671875 43.015625
L 55.515625 43.015625
L 55.515625 72.90625
L 65.375 72.90625
L 65.375 0
L 55.515625 0
L 55.515625 34.71875
L 19.671875 34.71875
L 19.671875 0
L 9.8125 0
z
" id="DejaVuSans-72"/>
      <path d="M 34.1875 63.1875
L 20.796875 26.90625
L 47.609375 26.90625
z
M 28.609375 72.90625
L 39.796875 72.90625
L 67.578125 0
L 57.328125 0
L 50.6875 18.703125
L 17.828125 18.703125
L 11.1875 0
L 0.78125 0
z
" id="DejaVuSans-65"/>
      <path d="M 9.8125 72.90625
L 19.671875 72.90625
L 19.671875 8.296875
L 55.171875 8.296875
L 55.171875 0
L 9.8125 0
z
" id="DejaVuSans-76"/>
      <path d="M 44.390625 34.1875
Q 47.5625 33.109375 50.5625 29.59375
Q 53.5625 26.078125 56.59375 19.921875
L 66.609375 0
L 56 0
L 46.6875 18.703125
Q 43.0625 26.03125 39.671875 28.421875
Q 36.28125 30.8125 30.421875 30.8125
L 19.671875 30.8125
L 19.671875 0
L 9.8125 0
L 9.8125 72.90625
L 32.078125 72.90625
Q 44.578125 72.90625 50.734375 67.671875
Q 56.890625 62.453125 56.890625 51.90625
Q 56.890625 45.015625 53.6875 40.46875
Q 50.484375 35.9375 44.390625 34.1875
z
M 19.671875 64.796875
L 19.671875 38.921875
L 32.078125 38.921875
Q 39.203125 38.921875 42.84375 42.21875
Q 46.484375 45.515625 46.484375 51.90625
Q 46.484375 58.296875 42.84375 61.546875
Q 39.203125 64.796875 32.078125 64.796875
z
" id="DejaVuSans-82"/>
      <path d="M 9.8125 72.90625
L 19.671875 72.90625
L 19.671875 42.09375
L 52.390625 72.90625
L 65.09375 72.90625
L 28.90625 38.921875
L 67.671875 0
L 54.6875 0
L 19.671875 35.109375
L 19.671875 0
L 9.8125 0
z
" id="DejaVuSans-75"/>
      <path d="M 50.984375 -16.609375
L 50.984375 -23.578125
L -0.984375 -23.578125
L -0.984375 -16.609375
z
" id="DejaVuSans-95"/>
      <path d="M -0.296875 72.90625
L 61.375 72.90625
L 61.375 64.59375
L 35.5 64.59375
L 35.5 0
L 25.59375 0
L 25.59375 64.59375
L -0.296875 64.59375
z
" id="DejaVuSans-84"/>
      <path d="M 9.8125 72.90625
L 23.09375 72.90625
L 55.421875 11.921875
L 55.421875 72.90625
L 64.984375 72.90625
L 64.984375 0
L 51.703125 0
L 19.390625 60.984375
L 19.390625 0
L 9.8125 0
z
" id="DejaVuSans-78"/>
      <path d="M 9.8125 72.90625
L 51.703125 72.90625
L 51.703125 64.59375
L 19.671875 64.59375
L 19.671875 43.109375
L 48.578125 43.109375
L 48.578125 34.8125
L 19.671875 34.8125
L 19.671875 0
L 9.8125 0
z
" id="DejaVuSans-70"/>
      <path d="M 53.515625 70.515625
L 53.515625 60.890625
Q 47.90625 63.578125 42.921875 64.890625
Q 37.9375 66.21875 33.296875 66.21875
Q 25.25 66.21875 20.875 63.09375
Q 16.5 59.96875 16.5 54.203125
Q 16.5 49.359375 19.40625 46.890625
Q 22.3125 44.4375 30.421875 42.921875
L 36.375 41.703125
Q 47.40625 39.59375 52.65625 34.296875
Q 57.90625 29 57.90625 20.125
Q 57.90625 9.515625 50.796875 4.046875
Q 43.703125 -1.421875 29.984375 -1.421875
Q 24.8125 -1.421875 18.96875 -0.25
Q 13.140625 0.921875 6.890625 3.21875
L 6.890625 13.375
Q 12.890625 10.015625 18.65625 8.296875
Q 24.421875 6.59375 29.984375 6.59375
Q 38.421875 6.59375 43.015625 9.90625
Q 47.609375 13.234375 47.609375 19.390625
Q 47.609375 24.75 44.3125 27.78125
Q 41.015625 30.8125 33.5 32.328125
L 27.484375 33.5
Q 16.453125 35.6875 11.515625 40.375
Q 6.59375 45.0625 6.59375 53.421875
Q 6.59375 63.09375 13.40625 68.65625
Q 20.21875 74.21875 32.171875 74.21875
Q 37.3125 74.21875 42.625 73.28125
Q 47.953125 72.359375 53.515625 70.515625
z
" id="DejaVuSans-83"/>
      <path d="M 9.8125 72.90625
L 19.671875 72.90625
L 19.671875 0
L 9.8125 0
z
" id="DejaVuSans-73"/>
      <path d="M 28.609375 0
L 0.78125 72.90625
L 11.078125 72.90625
L 34.1875 11.53125
L 57.328125 72.90625
L 67.578125 72.90625
L 39.796875 0
z
" id="DejaVuSans-86"/>
      <path d="M 19.671875 34.8125
L 19.671875 8.109375
L 35.5 8.109375
Q 43.453125 8.109375 47.28125 11.40625
Q 51.125 14.703125 51.125 21.484375
Q 51.125 28.328125 47.28125 31.5625
Q 43.453125 34.8125 35.5 34.8125
z
M 19.671875 64.796875
L 19.671875 42.828125
L 34.28125 42.828125
Q 41.5 42.828125 45.03125 45.53125
Q 48.578125 48.25 48.578125 53.8125
Q 48.578125 59.328125 45.03125 62.0625
Q 41.5 64.796875 34.28125 64.796875
z
M 9.8125 72.90625
L 35.015625 72.90625
Q 46.296875 72.90625 52.390625 68.21875
Q 58.5 63.53125 58.5 54.890625
Q 58.5 48.1875 55.375 44.234375
Q 52.25 40.28125 46.1875 39.3125
Q 53.46875 37.75 57.5 32.78125
Q 61.53125 27.828125 61.53125 20.40625
Q 61.53125 10.640625 54.890625 5.3125
Q 48.25 0 35.984375 0
L 9.8125 0
z
" id="DejaVuSans-66"/>
     </defs>
     <g transform="translate(288.13446 36.390313)scale(0.05 -0.05)">
      <use xlink:href="#DejaVuSans-72"/>
      <use x="75.195312" xlink:href="#DejaVuSans-65"/>
      <use x="143.603516" xlink:href="#DejaVuSans-76"/>
      <use x="199.316406" xlink:href="#DejaVuSans-76"/>
      <use x="255.029297" xlink:href="#DejaVuSans-77"/>
      <use x="341.308594" xlink:href="#DejaVuSans-65"/>
      <use x="409.716797" xlink:href="#DejaVuSans-82"/>
      <use x="479.199219" xlink:href="#DejaVuSans-75"/>
      <use x="544.775391" xlink:href="#DejaVuSans-95"/>
      <use x="594.775391" xlink:href="#DejaVuSans-84"/>
      <use x="655.859375" xlink:href="#DejaVuSans-78"/>
      <use x="730.664062" xlink:href="#DejaVuSans-70"/>
      <use x="788.042969" xlink:href="#DejaVuSans-65"/>
      <use x="856.451172" xlink:href="#DejaVuSans-95"/>
      <use x="906.451172" xlink:href="#DejaVuSans-83"/>
      <use x="969.927734" xlink:href="#DejaVuSans-73"/>
      <use x="999.419922" xlink:href="#DejaVuSans-71"/>
      <use x="1076.910156" xlink:href="#DejaVuSans-78"/>
      <use x="1151.714844" xlink:href="#DejaVuSans-65"/>
      <use x="1220.123047" xlink:href="#DejaVuSans-76"/>
      <use x="1275.835938" xlink:href="#DejaVuSans-73"/>
      <use x="1305.328125" xlink:href="#DejaVuSans-78"/>
      <use x="1380.132812" xlink:href="#DejaVuSans-71"/>
      <use x="1457.623047" xlink:href="#DejaVuSans-95"/>
      <use x="1507.623047" xlink:href="#DejaVuSans-86"/>
      <use x="1576.03125" xlink:href="#DejaVuSans-73"/>
      <use x="1605.523438" xlink:href="#DejaVuSans-65"/>
      <use x="1673.931641" xlink:href="#DejaVuSans-95"/>
      <use x="1723.931641" xlink:href="#DejaVuSans-78"/>
      <use x="1798.736328" xlink:href="#DejaVuSans-70"/>
      <use x="1856.255859" xlink:href="#DejaVuSans-75"/>
      <use x="1921.832031" xlink:href="#DejaVuSans-66"/>
     </g>
    </g>
   </g>
   <g id="text_13">
    <g clip-path="url(#p48a14b5bf3)">
     <!-- HALLMARK_INTERFERON_GAMMA_RESPONSE -->
     <defs>
      <path d="M 39.40625 66.21875
Q 28.65625 66.21875 22.328125 58.203125
Q 16.015625 50.203125 16.015625 36.375
Q 16.015625 22.609375 22.328125 14.59375
Q 28.65625 6.59375 39.40625 6.59375
Q 50.140625 6.59375 56.421875 14.59375
Q 62.703125 22.609375 62.703125 36.375
Q 62.703125 50.203125 56.421875 58.203125
Q 50.140625 66.21875 39.40625 66.21875
z
M 39.40625 74.21875
Q 54.734375 74.21875 63.90625 63.9375
Q 73.09375 53.65625 73.09375 36.375
Q 73.09375 19.140625 63.90625 8.859375
Q 54.734375 -1.421875 39.40625 -1.421875
Q 24.03125 -1.421875 14.8125 8.828125
Q 5.609375 19.09375 5.609375 36.375
Q 5.609375 53.65625 14.8125 63.9375
Q 24.03125 74.21875 39.40625 74.21875
z
" id="DejaVuSans-79"/>
      <path d="M 19.671875 64.796875
L 19.671875 37.40625
L 32.078125 37.40625
Q 38.96875 37.40625 42.71875 40.96875
Q 46.484375 44.53125 46.484375 51.125
Q 46.484375 57.671875 42.71875 61.234375
Q 38.96875 64.796875 32.078125 64.796875
z
M 9.8125 72.90625
L 32.078125 72.90625
Q 44.34375 72.90625 50.609375 67.359375
Q 56.890625 61.8125 56.890625 51.125
Q 56.890625 40.328125 50.609375 34.8125
Q 44.34375 29.296875 32.078125 29.296875
L 19.671875 29.296875
L 19.671875 0
L 9.8125 0
z
" id="DejaVuSans-80"/>
     </defs>
     <g transform="translate(235.753894 41.327456)scale(0.05 -0.05)">
      <use xlink:href="#DejaVuSans-72"/>
      <use x="75.195312" xlink:href="#DejaVuSans-65"/>
      <use x="143.603516" xlink:href="#DejaVuSans-76"/>
      <use x="199.316406" xlink:href="#DejaVuSans-76"/>
      <use x="255.029297" xlink:href="#DejaVuSans-77"/>
      <use x="341.308594" xlink:href="#DejaVuSans-65"/>
      <use x="409.716797" xlink:href="#DejaVuSans-82"/>
      <use x="479.199219" xlink:href="#DejaVuSans-75"/>
      <use x="544.775391" xlink:href="#DejaVuSans-95"/>
      <use x="594.775391" xlink:href="#DejaVuSans-73"/>
      <use x="624.267578" xlink:href="#DejaVuSans-78"/>
      <use x="699.072266" xlink:href="#DejaVuSans-84"/>
      <use x="760.15625" xlink:href="#DejaVuSans-69"/>
      <use x="823.339844" xlink:href="#DejaVuSans-82"/>
      <use x="892.822266" xlink:href="#DejaVuSans-70"/>
      <use x="950.341797" xlink:href="#DejaVuSans-69"/>
      <use x="1013.525391" xlink:href="#DejaVuSans-82"/>
      <use x="1083.007812" xlink:href="#DejaVuSans-79"/>
      <use x="1161.71875" xlink:href="#DejaVuSans-78"/>
      <use x="1236.523438" xlink:href="#DejaVuSans-95"/>
      <use x="1286.523438" xlink:href="#DejaVuSans-71"/>
      <use x="1364.013672" xlink:href="#DejaVuSans-65"/>
      <use x="1432.421875" xlink:href="#DejaVuSans-77"/>
      <use x="1518.701172" xlink:href="#DejaVuSans-77"/>
      <use x="1604.980469" xlink:href="#DejaVuSans-65"/>
      <use x="1673.388672" xlink:href="#DejaVuSans-95"/>
      <use x="1723.388672" xlink:href="#DejaVuSans-82"/>
      <use x="1792.871094" xlink:href="#DejaVuSans-69"/>
      <use x="1856.054688" xlink:href="#DejaVuSans-83"/>
      <use x="1919.53125" xlink:href="#DejaVuSans-80"/>
      <use x="1979.833984" xlink:href="#DejaVuSans-79"/>
      <use x="2058.544922" xlink:href="#DejaVuSans-78"/>
      <use x="2133.349609" xlink:href="#DejaVuSans-83"/>
      <use x="2196.826172" xlink:href="#DejaVuSans-69"/>
     </g>
    </g>
   </g>
   <g id="text_14">
    <g clip-path="url(#p48a14b5bf3)">
     <!-- HALLMARK_INFLAMMATORY_RESPONSE -->
     <defs>
      <path d="M -0.203125 72.90625
L 10.40625 72.90625
L 30.609375 42.921875
L 50.6875 72.90625
L 61.28125 72.90625
L 35.5 34.71875
L 35.5 0
L 25.59375 0
L 25.59375 34.71875
z
" id="DejaVuSans-89"/>
     </defs>
     <g transform="translate(140.931526 56.138885)scale(0.05 -0.05)">
      <use xlink:href="#DejaVuSans-72"/>
      <use x="75.195312" xlink:href="#DejaVuSans-65"/>
      <use x="143.603516" xlink:href="#DejaVuSans-76"/>
      <use x="199.316406" xlink:href="#DejaVuSans-76"/>
      <use x="255.029297" xlink:href="#DejaVuSans-77"/>
      <use x="341.308594" xlink:href="#DejaVuSans-65"/>
      <use x="409.716797" xlink:href="#DejaVuSans-82"/>
      <use x="479.199219" xlink:href="#DejaVuSans-75"/>
      <use x="544.775391" xlink:href="#DejaVuSans-95"/>
      <use x="594.775391" xlink:href="#DejaVuSans-73"/>
      <use x="624.267578" xlink:href="#DejaVuSans-78"/>
      <use x="699.072266" xlink:href="#DejaVuSans-70"/>
      <use x="756.591797" xlink:href="#DejaVuSans-76"/>
      <use x="812.335938" xlink:href="#DejaVuSans-65"/>
      <use x="880.744141" xlink:href="#DejaVuSans-77"/>
      <use x="967.023438" xlink:href="#DejaVuSans-77"/>
      <use x="1053.302734" xlink:href="#DejaVuSans-65"/>
      <use x="1121.601562" xlink:href="#DejaVuSans-84"/>
      <use x="1182.685547" xlink:href="#DejaVuSans-79"/>
      <use x="1261.396484" xlink:href="#DejaVuSans-82"/>
      <use x="1330.785156" xlink:href="#DejaVuSans-89"/>
      <use x="1391.869141" xlink:href="#DejaVuSans-95"/>
      <use x="1441.869141" xlink:href="#DejaVuSans-82"/>
      <use x="1511.351562" xlink:href="#DejaVuSans-69"/>
      <use x="1574.535156" xlink:href="#DejaVuSans-83"/>
      <use x="1638.011719" xlink:href="#DejaVuSans-80"/>
      <use x="1698.314453" xlink:href="#DejaVuSans-79"/>
      <use x="1777.025391" xlink:href="#DejaVuSans-78"/>
      <use x="1851.830078" xlink:href="#DejaVuSans-83"/>
      <use x="1915.306641" xlink:href="#DejaVuSans-69"/>
     </g>
    </g>
   </g>
   <g id="text_15">
    <g clip-path="url(#p48a14b5bf3)">
     <!-- HALLMARK_IL6_JAK_STAT3_SIGNALING -->
     <defs>
      <path d="M 9.8125 72.90625
L 19.671875 72.90625
L 19.671875 5.078125
Q 19.671875 -8.109375 14.671875 -14.0625
Q 9.671875 -20.015625 -1.421875 -20.015625
L -5.171875 -20.015625
L -5.171875 -11.71875
L -2.09375 -11.71875
Q 4.4375 -11.71875 7.125 -8.046875
Q 9.8125 -4.390625 9.8125 5.078125
z
" id="DejaVuSans-74"/>
      <path d="M 40.578125 39.3125
Q 47.65625 37.796875 51.625 33
Q 55.609375 28.21875 55.609375 21.1875
Q 55.609375 10.40625 48.1875 4.484375
Q 40.765625 -1.421875 27.09375 -1.421875
Q 22.515625 -1.421875 17.65625 -0.515625
Q 12.796875 0.390625 7.625 2.203125
L 7.625 11.71875
Q 11.71875 9.328125 16.59375 8.109375
Q 21.484375 6.890625 26.8125 6.890625
Q 36.078125 6.890625 40.9375 10.546875
Q 45.796875 14.203125 45.796875 21.1875
Q 45.796875 27.640625 41.28125 31.265625
Q 36.765625 34.90625 28.71875 34.90625
L 20.21875 34.90625
L 20.21875 43.015625
L 29.109375 43.015625
Q 36.375 43.015625 40.234375 45.921875
Q 44.09375 48.828125 44.09375 54.296875
Q 44.09375 59.90625 40.109375 62.90625
Q 36.140625 65.921875 28.71875 65.921875
Q 24.65625 65.921875 20.015625 65.03125
Q 15.375 64.15625 9.8125 62.3125
L 9.8125 71.09375
Q 15.4375 72.65625 20.34375 73.4375
Q 25.25 74.21875 29.59375 74.21875
Q 40.828125 74.21875 47.359375 69.109375
Q 53.90625 64.015625 53.90625 55.328125
Q 53.90625 49.265625 50.4375 45.09375
Q 46.96875 40.921875 40.578125 39.3125
z
" id="DejaVuSans-51"/>
     </defs>
     <g transform="translate(183.970337 51.201742)scale(0.05 -0.05)">
      <use xlink:href="#DejaVuSans-72"/>
      <use x="75.195312" xlink:href="#DejaVuSans-65"/>
      <use x="143.603516" xlink:href="#DejaVuSans-76"/>
      <use x="199.316406" xlink:href="#DejaVuSans-76"/>
      <use x="255.029297" xlink:href="#DejaVuSans-77"/>
      <use x="341.308594" xlink:href="#DejaVuSans-65"/>
      <use x="409.716797" xlink:href="#DejaVuSans-82"/>
      <use x="479.199219" xlink:href="#DejaVuSans-75"/>
      <use x="544.775391" xlink:href="#DejaVuSans-95"/>
      <use x="594.775391" xlink:href="#DejaVuSans-73"/>
      <use x="624.267578" xlink:href="#DejaVuSans-76"/>
      <use x="679.980469" xlink:href="#DejaVuSans-54"/>
      <use x="743.603516" xlink:href="#DejaVuSans-95"/>
      <use x="793.603516" xlink:href="#DejaVuSans-74"/>
      <use x="823.080078" xlink:href="#DejaVuSans-65"/>
      <use x="891.488281" xlink:href="#DejaVuSans-75"/>
      <use x="957.064453" xlink:href="#DejaVuSans-95"/>
      <use x="1007.064453" xlink:href="#DejaVuSans-83"/>
      <use x="1070.541016" xlink:href="#DejaVuSans-84"/>
      <use x="1131.515625" xlink:href="#DejaVuSans-65"/>
      <use x="1199.814453" xlink:href="#DejaVuSans-84"/>
      <use x="1260.898438" xlink:href="#DejaVuSans-51"/>
      <use x="1324.521484" xlink:href="#DejaVuSans-95"/>
      <use x="1374.521484" xlink:href="#DejaVuSans-83"/>
      <use x="1437.998047" xlink:href="#DejaVuSans-73"/>
      <use x="1467.490234" xlink:href="#DejaVuSans-71"/>
      <use x="1544.980469" xlink:href="#DejaVuSans-78"/>
      <use x="1619.785156" xlink:href="#DejaVuSans-65"/>
      <use x="1688.193359" xlink:href="#DejaVuSans-76"/>
      <use x="1743.90625" xlink:href="#DejaVuSans-73"/>
      <use x="1773.398438" xlink:href="#DejaVuSans-78"/>
      <use x="1848.203125" xlink:href="#DejaVuSans-71"/>
     </g>
    </g>
   </g>
   <g id="text_16">
    <g clip-path="url(#p48a14b5bf3)">
     <!-- HALLMARK_INTERFERON_ALPHA_RESPONSE -->
     <g transform="translate(206.125951 46.264599)scale(0.05 -0.05)">
      <use xlink:href="#DejaVuSans-72"/>
      <use x="75.195312" xlink:href="#DejaVuSans-65"/>
      <use x="143.603516" xlink:href="#DejaVuSans-76"/>
      <use x="199.316406" xlink:href="#DejaVuSans-76"/>
      <use x="255.029297" xlink:href="#DejaVuSans-77"/>
      <use x="341.308594" xlink:href="#DejaVuSans-65"/>
      <use x="409.716797" xlink:href="#DejaVuSans-82"/>
      <use x="479.199219" xlink:href="#DejaVuSans-75"/>
      <use x="544.775391" xlink:href="#DejaVuSans-95"/>
      <use x="594.775391" xlink:href="#DejaVuSans-73"/>
      <use x="624.267578" xlink:href="#DejaVuSans-78"/>
      <use x="699.072266" xlink:href="#DejaVuSans-84"/>
      <use x="760.15625" xlink:href="#DejaVuSans-69"/>
      <use x="823.339844" xlink:href="#DejaVuSans-82"/>
      <use x="892.822266" xlink:href="#DejaVuSans-70"/>
      <use x="950.341797" xlink:href="#DejaVuSans-69"/>
      <use x="1013.525391" xlink:href="#DejaVuSans-82"/>
      <use x="1083.007812" xlink:href="#DejaVuSans-79"/>
      <use x="1161.71875" xlink:href="#DejaVuSans-78"/>
      <use x="1236.523438" xlink:href="#DejaVuSans-95"/>
      <use x="1286.523438" xlink:href="#DejaVuSans-65"/>
      <use x="1354.931641" xlink:href="#DejaVuSans-76"/>
      <use x="1410.644531" xlink:href="#DejaVuSans-80"/>
      <use x="1470.947266" xlink:href="#DejaVuSans-72"/>
      <use x="1546.142578" xlink:href="#DejaVuSans-65"/>
      <use x="1614.550781" xlink:href="#DejaVuSans-95"/>
      <use x="1664.550781" xlink:href="#DejaVuSans-82"/>
      <use x="1734.033203" xlink:href="#DejaVuSans-69"/>
      <use x="1797.216797" xlink:href="#DejaVuSans-83"/>
      <use x="1860.693359" xlink:href="#DejaVuSans-80"/>
      <use x="1920.996094" xlink:href="#DejaVuSans-79"/>
      <use x="1999.707031" xlink:href="#DejaVuSans-78"/>
      <use x="2074.511719" xlink:href="#DejaVuSans-83"/>
      <use x="2137.988281" xlink:href="#DejaVuSans-69"/>
     </g>
    </g>
   </g>
  </g>
  <g id="text_17">
   <!-- GSVA pathway statistics vs ranking -->
   <defs>
    <path d="M 4.203125 54.6875
L 13.1875 54.6875
L 24.421875 12.015625
L 35.59375 54.6875
L 46.1875 54.6875
L 57.421875 12.015625
L 68.609375 54.6875
L 77.59375 54.6875
L 63.28125 0
L 52.6875 0
L 40.921875 44.828125
L 29.109375 0
L 18.5 0
z
" id="DejaVuSans-119"/>
    <path d="M 32.171875 -5.078125
Q 28.375 -14.84375 24.75 -17.8125
Q 21.140625 -20.796875 15.09375 -20.796875
L 7.90625 -20.796875
L 7.90625 -13.28125
L 13.1875 -13.28125
Q 16.890625 -13.28125 18.9375 -11.515625
Q 21 -9.765625 23.484375 -3.21875
L 25.09375 0.875
L 2.984375 54.6875
L 12.5 54.6875
L 29.59375 11.921875
L 46.6875 54.6875
L 56.203125 54.6875
z
" id="DejaVuSans-121"/>
    <path d="M 2.984375 54.6875
L 12.5 54.6875
L 29.59375 8.796875
L 46.6875 54.6875
L 56.203125 54.6875
L 35.6875 0
L 23.484375 0
z
" id="DejaVuSans-118"/>
   </defs>
   <g transform="translate(86.843281 11.397656)scale(0.15 -0.15)">
    <use xlink:href="#DejaVuSans-71"/>
    <use x="77.490234" xlink:href="#DejaVuSans-83"/>
    <use x="140.966797" xlink:href="#DejaVuSans-86"/>
    <use x="209.28125" xlink:href="#DejaVuSans-65"/>
    <use x="277.689453" xlink:href="#DejaVuSans-32"/>
    <use x="309.476562" xlink:href="#DejaVuSans-112"/>
    <use x="372.953125" xlink:href="#DejaVuSans-97"/>
    <use x="434.232422" xlink:href="#DejaVuSans-116"/>
    <use x="473.441406" xlink:href="#DejaVuSans-104"/>
    <use x="536.820312" xlink:href="#DejaVuSans-119"/>
    <use x="618.607422" xlink:href="#DejaVuSans-97"/>
    <use x="679.886719" xlink:href="#DejaVuSans-121"/>
    <use x="739.066406" xlink:href="#DejaVuSans-32"/>
    <use x="770.853516" xlink:href="#DejaVuSans-115"/>
    <use x="822.953125" xlink:href="#DejaVuSans-116"/>
    <use x="862.162109" xlink:href="#DejaVuSans-97"/>
    <use x="923.441406" xlink:href="#DejaVuSans-116"/>
    <use x="962.650391" xlink:href="#DejaVuSans-105"/>
    <use x="990.433594" xlink:href="#DejaVuSans-115"/>
    <use x="1042.533203" xlink:href="#DejaVuSans-116"/>
    <use x="1081.742188" xlink:href="#DejaVuSans-105"/>
    <use x="1109.525391" xlink:href="#DejaVuSans-99"/>
    <use x="1164.505859" xlink:href="#DejaVuSans-115"/>
    <use x="1216.605469" xlink:href="#DejaVuSans-32"/>
    <use x="1248.392578" xlink:href="#DejaVuSans-118"/>
    <use x="1307.572266" xlink:href="#DejaVuSans-115"/>
    <use x="1359.671875" xlink:href="#DejaVuSans-32"/>
    <use x="1391.458984" xlink:href="#DejaVuSans-114"/>
    <use x="1432.572266" xlink:href="#DejaVuSans-97"/>
    <use x="1493.851562" xlink:href="#DejaVuSans-110"/>
    <use x="1557.230469" xlink:href="#DejaVuSans-107"/>
    <use x="1615.140625" xlink:href="#DejaVuSans-105"/>
    <use x="1642.923828" xlink:href="#DejaVuSans-110"/>
    <use x="1706.302734" xlink:href="#DejaVuSans-103"/>
   </g>
  </g>
 </g>
 <defs>
  <clipPath id="p48a14b5bf3">
   <rect height="266.112" width="357.12" x="46.772188" y="20.583376"/>
  </clipPath>
 </defs>
</svg>
