<?xml version="1.0" encoding="utf-8" standalone="no"?>
<!DOCTYPE svg PUBLIC "-//W3C//DTD SVG 1.1//EN"
  "http://www.w3.org/Graphics/SVG/1.1/DTD/svg11.dtd">
<!-- Created with matplotlib (https://matplotlib.org/) -->
<svg height="322.176313pt" version="1.1" viewBox="0 0 410.455938 322.176313" width="410.455938pt" xmlns="http://www.w3.org/2000/svg" xmlns:xlink="http://www.w3.org/1999/xlink">
 <defs>
  <style type="text/css">
*{stroke-linecap:butt;stroke-linejoin:round;}
  </style>
 </defs>
 <g id="figure_1">
  <g id="patch_1">
   <path d="M 0 322.176313 
L 410.455938 322.176313 
L 410.455938 0 
L 0 0 
z
" style="fill:#ffffff;stroke:#ffffff;stroke-linejoin:miter;"/>
  </g>
  <g id="axes_1">
   <g id="patch_2">
    <path d="M 50.585938 286.695376 
L 407.705938 286.695376 
L 407.705938 20.583376 
L 50.585938 20.583376 
z
" style="fill:none;"/>
   </g>
   <g id="matplotlib.axis_1">
    <g id="xtick_1">
     <g id="line2d_1">
      <path clip-path="url(#p0036f04b1e)" d="M 75.556991 286.695376 
L 75.556991 20.583376 
" style="fill:none;stroke:#e5e5e5;stroke-width:0.8;"/>
     </g>
     <g id="line2d_2">
      <path d="M 75.556991 286.695376 
" style="fill:none;stroke:#000000;stroke-width:1.5;"/>
      <defs>
       <path d="M 0 0 
L 0 2.75 
" id="ma5deb7434e" style="stroke:#000000;"/>
      </defs>
      <g>
       <use style="stroke:#000000;" x="75.556991" xlink:href="#ma5deb7434e" y="286.695376"/>
      </g>
     </g>
     <g id="text_1">
      <!-- −0.2 -->
      <defs>
       <path d="M 10.59375 35.5 
L 73.1875 35.5 
L 73.1875 27.203125 
L 10.59375 27.203125 
z
" id="DejaVuSans-8722"/>
       <path d="M 31.78125 66.40625 
Q 24.171875 66.40625 20.328125 58.90625 
Q 16.5 51.421875 16.5 36.375 
Q 16.5 21.390625 20.328125 13.890625 
Q 24.171875 6.390625 31.78125 6.390625 
Q 39.453125 6.390625 43.28125 13.890625 
Q 47.125 21.390625 47.125 36.375 
Q 47.125 51.421875 43.28125 58.90625 
Q 39.453125 66.40625 31.78125 66.40625 
z
M 31.78125 74.21875 
Q 44.046875 74.21875 50.515625 64.515625 
Q 56.984375 54.828125 56.984375 36.375 
Q 56.984375 17.96875 50.515625 8.265625 
Q 44.046875 -1.421875 31.78125 -1.421875 
Q 19.53125 -1.421875 13.0625 8.265625 
Q 6.59375 17.96875 6.59375 36.375 
Q 6.59375 54.828125 13.0625 64.515625 
Q 19.53125 74.21875 31.78125 74.21875 
z
" id="DejaVuSans-48"/>
       <path d="M 10.6875 12.40625 
L 21 12.40625 
L 21 0 
L 10.6875 0 
z
" id="DejaVuSans-46"/>
       <path d="M 19.1875 8.296875 
L 53.609375 8.296875 
L 53.609375 0 
L 7.328125 0 
L 7.328125 8.296875 
Q 12.9375 14.109375 22.625 23.890625 
Q 32.328125 33.6875 34.8125 36.53125 
Q 39.546875 41.84375 41.421875 45.53125 
Q 43.3125 49.21875 43.3125 52.78125 
Q 43.3125 58.59375 39.234375 62.25 
Q 35.15625 65.921875 28.609375 65.921875 
Q 23.96875 65.921875 18.8125 64.3125 
Q 13.671875 62.703125 7.8125 59.421875 
L 7.8125 69.390625 
Q 13.765625 71.78125 18.9375 73 
Q 24.125 74.21875 28.421875 74.21875 
Q 39.75 74.21875 46.484375 68.546875 
Q 53.21875 62.890625 53.21875 53.421875 
Q 53.21875 48.921875 51.53125 44.890625 
Q 49.859375 40.875 45.40625 35.40625 
Q 44.1875 33.984375 37.640625 27.21875 
Q 31.109375 20.453125 19.1875 8.296875 
z
" id="DejaVuSans-50"/>
      </defs>
      <g style="fill:#4d4d4d;" transform="translate(60.987303 300.763501)scale(0.12 -0.12)">
       <use xlink:href="#DejaVuSans-8722"/>
       <use x="83.789062" xlink:href="#DejaVuSans-48"/>
       <use x="147.412109" xlink:href="#DejaVuSans-46"/>
       <use x="179.199219" xlink:href="#DejaVuSans-50"/>
      </g>
     </g>
    </g>
    <g id="xtick_2">
     <g id="line2d_3">
      <path clip-path="url(#p0036f04b1e)" d="M 170.671152 286.695376 
L 170.671152 20.583376 
" style="fill:none;stroke:#e5e5e5;stroke-width:0.8;"/>
     </g>
     <g id="line2d_4">
      <path d="M 170.671152 286.695376 
" style="fill:none;stroke:#000000;stroke-width:1.5;"/>
      <g>
       <use style="stroke:#000000;" x="170.671152" xlink:href="#ma5deb7434e" y="286.695376"/>
      </g>
     </g>
     <g id="text_2">
      <!-- −0.1 -->
      <defs>
       <path d="M 12.40625 8.296875 
L 28.515625 8.296875 
L 28.515625 63.921875 
L 10.984375 60.40625 
L 10.984375 69.390625 
L 28.421875 72.90625 
L 38.28125 72.90625 
L 38.28125 8.296875 
L 54.390625 8.296875 
L 54.390625 0 
L 12.40625 0 
z
" id="DejaVuSans-49"/>
      </defs>
      <g style="fill:#4d4d4d;" transform="translate(156.101464 300.763501)scale(0.12 -0.12)">
       <use xlink:href="#DejaVuSans-8722"/>
       <use x="83.789062" xlink:href="#DejaVuSans-48"/>
       <use x="147.412109" xlink:href="#DejaVuSans-46"/>
       <use x="179.199219" xlink:href="#DejaVuSans-49"/>
      </g>
     </g>
    </g>
    <g id="xtick_3">
     <g id="line2d_5">
      <path clip-path="url(#p0036f04b1e)" d="M 265.785313 286.695376 
L 265.785313 20.583376 
" style="fill:none;stroke:#e5e5e5;stroke-width:0.8;"/>
     </g>
     <g id="line2d_6">
      <path d="M 265.785313 286.695376 
" style="fill:none;stroke:#000000;stroke-width:1.5;"/>
      <g>
       <use style="stroke:#000000;" x="265.785313" xlink:href="#ma5deb7434e" y="286.695376"/>
      </g>
     </g>
     <g id="text_3">
      <!-- 0 -->
      <g style="fill:#4d4d4d;" transform="translate(261.967813 300.763501)scale(0.12 -0.12)">
       <use xlink:href="#DejaVuSans-48"/>
      </g>
     </g>
    </g>
    <g id="xtick_4">
     <g id="line2d_7">
      <path clip-path="url(#p0036f04b1e)" d="M 360.899474 286.695376 
L 360.899474 20.583376 
" style="fill:none;stroke:#e5e5e5;stroke-width:0.8;"/>
     </g>
     <g id="line2d_8">
      <path d="M 360.899474 286.695376 
" style="fill:none;stroke:#000000;stroke-width:1.5;"/>
      <g>
       <use style="stroke:#000000;" x="360.899474" xlink:href="#ma5deb7434e" y="286.695376"/>
      </g>
     </g>
     <g id="text_4">
      <!-- 0.1 -->
      <g style="fill:#4d4d4d;" transform="translate(351.357599 300.763501)scale(0.12 -0.12)">
       <use xlink:href="#DejaVuSans-48"/>
       <use x="63.623047" xlink:href="#DejaVuSans-46"/>
       <use x="95.410156" xlink:href="#DejaVuSans-49"/>
      </g>
     </g>
    </g>
    <g id="xtick_5">
     <g id="line2d_9">
      <path clip-path="url(#p0036f04b1e)" d="M 123.114071 286.695376 
L 123.114071 20.583376 
" style="fill:none;stroke:#fafafa;"/>
     </g>
     <g id="line2d_10">
      <path d="M 123.114071 286.695376 
" style="fill:none;stroke:#000000;stroke-width:1.5;"/>
     </g>
    </g>
    <g id="xtick_6">
     <g id="line2d_11">
      <path clip-path="url(#p0036f04b1e)" d="M 218.228232 286.695376 
L 218.228232 20.583376 
" style="fill:none;stroke:#fafafa;"/>
     </g>
     <g id="line2d_12">
      <path d="M 218.228232 286.695376 
" style="fill:none;stroke:#000000;stroke-width:1.5;"/>
     </g>
    </g>
    <g id="xtick_7">
     <g id="line2d_13">
      <path clip-path="url(#p0036f04b1e)" d="M 313.342393 286.695376 
L 313.342393 20.583376 
" style="fill:none;stroke:#fafafa;"/>
     </g>
     <g id="line2d_14">
      <path d="M 313.342393 286.695376 
" style="fill:none;stroke:#000000;stroke-width:1.5;"/>
     </g>
    </g>
    <g id="text_5">
     <!-- Enrichment score -->
     <defs>
      <path d="M 9.8125 72.90625 
L 55.90625 72.90625 
L 55.90625 64.59375 
L 19.671875 64.59375 
L 19.671875 43.015625 
L 54.390625 43.015625 
L 54.390625 34.71875 
L 19.671875 34.71875 
L 19.671875 8.296875 
L 56.78125 8.296875 
L 56.78125 0 
L 9.8125 0 
z
" id="DejaVuSans-69"/>
      <path d="M 54.890625 33.015625 
L 54.890625 0 
L 45.90625 0 
L 45.90625 32.71875 
Q 45.90625 40.484375 42.875 44.328125 
Q 39.84375 48.1875 33.796875 48.1875 
Q 26.515625 48.1875 22.3125 43.546875 
Q 18.109375 38.921875 18.109375 30.90625 
L 18.109375 0 
L 9.078125 0 
L 9.078125 54.6875 
L 18.109375 54.6875 
L 18.109375 46.1875 
Q 21.34375 51.125 25.703125 53.5625 
Q 30.078125 56 35.796875 56 
Q 45.21875 56 50.046875 50.171875 
Q 54.890625 44.34375 54.890625 33.015625 
z
" id="DejaVuSans-110"/>
      <path d="M 41.109375 46.296875 
Q 39.59375 47.171875 37.8125 47.578125 
Q 36.03125 48 33.890625 48 
Q 26.265625 48 22.1875 43.046875 
Q 18.109375 38.09375 18.109375 28.8125 
L 18.109375 0 
L 9.078125 0 
L 9.078125 54.6875 
L 18.109375 54.6875 
L 18.109375 46.1875 
Q 20.953125 51.171875 25.484375 53.578125 
Q 30.03125 56 36.53125 56 
Q 37.453125 56 38.578125 55.875 
Q 39.703125 55.765625 41.0625 55.515625 
z
" id="DejaVuSans-114"/>
      <path d="M 9.421875 54.6875 
L 18.40625 54.6875 
L 18.40625 0 
L 9.421875 0 
z
M 9.421875 75.984375 
L 18.40625 75.984375 
L 18.40625 64.59375 
L 9.421875 64.59375 
z
" id="DejaVuSans-105"/>
      <path d="M 48.78125 52.59375 
L 48.78125 44.1875 
Q 44.96875 46.296875 41.140625 47.34375 
Q 37.3125 48.390625 33.40625 48.390625 
Q 24.65625 48.390625 19.8125 42.84375 
Q 14.984375 37.3125 14.984375 27.296875 
Q 14.984375 17.28125 19.8125 11.734375 
Q 24.65625 6.203125 33.40625 6.203125 
Q 37.3125 6.203125 41.140625 7.25 
Q 44.96875 8.296875 48.78125 10.40625 
L 48.78125 2.09375 
Q 45.015625 0.34375 40.984375 -0.53125 
Q 36.96875 -1.421875 32.421875 -1.421875 
Q 20.0625 -1.421875 12.78125 6.34375 
Q 5.515625 14.109375 5.515625 27.296875 
Q 5.515625 40.671875 12.859375 48.328125 
Q 20.21875 56 33.015625 56 
Q 37.15625 56 41.109375 55.140625 
Q 45.0625 54.296875 48.78125 52.59375 
z
" id="DejaVuSans-99"/>
      <path d="M 54.890625 33.015625 
L 54.890625 0 
L 45.90625 0 
L 45.90625 32.71875 
Q 45.90625 40.484375 42.875 44.328125 
Q 39.84375 48.1875 33.796875 48.1875 
Q 26.515625 48.1875 22.3125 43.546875 
Q 18.109375 38.921875 18.109375 30.90625 
L 18.109375 0 
L 9.078125 0 
L 9.078125 75.984375 
L 18.109375 75.984375 
L 18.109375 46.1875 
Q 21.34375 51.125 25.703125 53.5625 
Q 30.078125 56 35.796875 56 
Q 45.21875 56 50.046875 50.171875 
Q 54.890625 44.34375 54.890625 33.015625 
z
" id="DejaVuSans-104"/>
      <path d="M 52 44.1875 
Q 55.375 50.25 60.0625 53.125 
Q 64.75 56 71.09375 56 
Q 79.640625 56 84.28125 50.015625 
Q 88.921875 44.046875 88.921875 33.015625 
L 88.921875 0 
L 79.890625 0 
L 79.890625 32.71875 
Q 79.890625 40.578125 77.09375 44.375 
Q 74.3125 48.1875 68.609375 48.1875 
Q 61.625 48.1875 57.5625 43.546875 
Q 53.515625 38.921875 53.515625 30.90625 
L 53.515625 0 
L 44.484375 0 
L 44.484375 32.71875 
Q 44.484375 40.625 41.703125 44.40625 
Q 38.921875 48.1875 33.109375 48.1875 
Q 26.21875 48.1875 22.15625 43.53125 
Q 18.109375 38.875 18.109375 30.90625 
L 18.109375 0 
L 9.078125 0 
L 9.078125 54.6875 
L 18.109375 54.6875 
L 18.109375 46.1875 
Q 21.1875 51.21875 25.484375 53.609375 
Q 29.78125 56 35.6875 56 
Q 41.65625 56 45.828125 52.96875 
Q 50 49.953125 52 44.1875 
z
" id="DejaVuSans-109"/>
      <path d="M 56.203125 29.59375 
L 56.203125 25.203125 
L 14.890625 25.203125 
Q 15.484375 15.921875 20.484375 11.0625 
Q 25.484375 6.203125 34.421875 6.203125 
Q 39.59375 6.203125 44.453125 7.46875 
Q 49.3125 8.734375 54.109375 11.28125 
L 54.109375 2.78125 
Q 49.265625 0.734375 44.1875 -0.34375 
Q 39.109375 -1.421875 33.890625 -1.421875 
Q 20.796875 -1.421875 13.15625 6.1875 
Q 5.515625 13.8125 5.515625 26.8125 
Q 5.515625 40.234375 12.765625 48.109375 
Q 20.015625 56 32.328125 56 
Q 43.359375 56 49.78125 48.890625 
Q 56.203125 41.796875 56.203125 29.59375 
z
M 47.21875 32.234375 
Q 47.125 39.59375 43.09375 43.984375 
Q 39.0625 48.390625 32.421875 48.390625 
Q 24.90625 48.390625 20.390625 44.140625 
Q 15.875 39.890625 15.1875 32.171875 
z
" id="DejaVuSans-101"/>
      <path d="M 18.3125 70.21875 
L 18.3125 54.6875 
L 36.8125 54.6875 
L 36.8125 47.703125 
L 18.3125 47.703125 
L 18.3125 18.015625 
Q 18.3125 11.328125 20.140625 9.421875 
Q 21.96875 7.515625 27.59375 7.515625 
L 36.8125 7.515625 
L 36.8125 0 
L 27.59375 0 
Q 17.1875 0 13.234375 3.875 
Q 9.28125 7.765625 9.28125 18.015625 
L 9.28125 47.703125 
L 2.6875 47.703125 
L 2.6875 54.6875 
L 9.28125 54.6875 
L 9.28125 70.21875 
z
" id="DejaVuSans-116"/>
      <path id="DejaVuSans-32"/>
      <path d="M 44.28125 53.078125 
L 44.28125 44.578125 
Q 40.484375 46.53125 36.375 47.5 
Q 32.28125 48.484375 27.875 48.484375 
Q 21.1875 48.484375 17.84375 46.4375 
Q 14.5 44.390625 14.5 40.28125 
Q 14.5 37.15625 16.890625 35.375 
Q 19.28125 33.59375 26.515625 31.984375 
L 29.59375 31.296875 
Q 39.15625 29.25 43.1875 25.515625 
Q 47.21875 21.78125 47.21875 15.09375 
Q 47.21875 7.46875 41.1875 3.015625 
Q 35.15625 -1.421875 24.609375 -1.421875 
Q 20.21875 -1.421875 15.453125 -0.5625 
Q 10.6875 0.296875 5.421875 2 
L 5.421875 11.28125 
Q 10.40625 8.6875 15.234375 7.390625 
Q 20.0625 6.109375 24.8125 6.109375 
Q 31.15625 6.109375 34.5625 8.28125 
Q 37.984375 10.453125 37.984375 14.40625 
Q 37.984375 18.0625 35.515625 20.015625 
Q 33.0625 21.96875 24.703125 23.78125 
L 21.578125 24.515625 
Q 13.234375 26.265625 9.515625 29.90625 
Q 5.8125 33.546875 5.8125 39.890625 
Q 5.8125 47.609375 11.28125 51.796875 
Q 16.75 56 26.8125 56 
Q 31.78125 56 36.171875 55.265625 
Q 40.578125 54.546875 44.28125 53.078125 
z
" id="DejaVuSans-115"/>
      <path d="M 30.609375 48.390625 
Q 23.390625 48.390625 19.1875 42.75 
Q 14.984375 37.109375 14.984375 27.296875 
Q 14.984375 17.484375 19.15625 11.84375 
Q 23.34375 6.203125 30.609375 6.203125 
Q 37.796875 6.203125 41.984375 11.859375 
Q 46.1875 17.53125 46.1875 27.296875 
Q 46.1875 37.015625 41.984375 42.703125 
Q 37.796875 48.390625 30.609375 48.390625 
z
M 30.609375 56 
Q 42.328125 56 49.015625 48.375 
Q 55.71875 40.765625 55.71875 27.296875 
Q 55.71875 13.875 49.015625 6.21875 
Q 42.328125 -1.421875 30.609375 -1.421875 
Q 18.84375 -1.421875 12.171875 6.21875 
Q 5.515625 13.875 5.515625 27.296875 
Q 5.515625 40.765625 12.171875 48.375 
Q 18.84375 56 30.609375 56 
z
" id="DejaVuSans-111"/>
     </defs>
     <g transform="translate(157.537109 319.056782)scale(0.15 -0.15)">
      <use xlink:href="#DejaVuSans-69"/>
      <use x="63.183594" xlink:href="#DejaVuSans-110"/>
      <use x="126.5625" xlink:href="#DejaVuSans-114"/>
      <use x="167.675781" xlink:href="#DejaVuSans-105"/>
      <use x="195.458984" xlink:href="#DejaVuSans-99"/>
      <use x="250.439453" xlink:href="#DejaVuSans-104"/>
      <use x="313.818359" xlink:href="#DejaVuSans-109"/>
      <use x="411.230469" xlink:href="#DejaVuSans-101"/>
      <use x="472.753906" xlink:href="#DejaVuSans-110"/>
      <use x="536.132812" xlink:href="#DejaVuSans-116"/>
      <use x="575.341797" xlink:href="#DejaVuSans-32"/>
      <use x="607.128906" xlink:href="#DejaVuSans-115"/>
      <use x="659.228516" xlink:href="#DejaVuSans-99"/>
      <use x="714.208984" xlink:href="#DejaVuSans-111"/>
      <use x="775.390625" xlink:href="#DejaVuSans-114"/>
      <use x="816.472656" xlink:href="#DejaVuSans-101"/>
     </g>
    </g>
   </g>
   <g id="matplotlib.axis_2">
    <g id="ytick_1">
     <g id="line2d_15">
      <path clip-path="url(#p0036f04b1e)" d="M 50.585938 279.536519 
L 407.705938 279.536519 
" style="fill:none;stroke:#e5e5e5;stroke-width:0.8;"/>
     </g>
     <g id="line2d_16">
      <path d="M 50.585938 279.536519 
" style="fill:none;stroke:#000000;stroke-width:1.5;"/>
      <defs>
       <path d="M 0 0 
L -2.75 0 
" id="m4a36c51177" style="stroke:#000000;"/>
      </defs>
      <g>
       <use style="stroke:#000000;" x="50.585938" xlink:href="#m4a36c51177" y="279.536519"/>
      </g>
     </g>
     <g id="text_6">
      <!-- 0 -->
      <g style="fill:#4d4d4d;" transform="translate(38.000938 282.847769)scale(0.12 -0.12)">
       <use xlink:href="#DejaVuSans-48"/>
      </g>
     </g>
    </g>
    <g id="ytick_2">
     <g id="line2d_17">
      <path clip-path="url(#p0036f04b1e)" d="M 50.585938 217.822233 
L 407.705938 217.822233 
" style="fill:none;stroke:#e5e5e5;stroke-width:0.8;"/>
     </g>
     <g id="line2d_18">
      <path d="M 50.585938 217.822233 
" style="fill:none;stroke:#000000;stroke-width:1.5;"/>
      <g>
       <use style="stroke:#000000;" x="50.585938" xlink:href="#m4a36c51177" y="217.822233"/>
      </g>
     </g>
     <g id="text_7">
      <!-- 0.25 -->
      <defs>
       <path d="M 10.796875 72.90625 
L 49.515625 72.90625 
L 49.515625 64.59375 
L 19.828125 64.59375 
L 19.828125 46.734375 
Q 21.96875 47.46875 24.109375 47.828125 
Q 26.265625 48.1875 28.421875 48.1875 
Q 40.625 48.1875 47.75 41.5 
Q 54.890625 34.8125 54.890625 23.390625 
Q 54.890625 11.625 47.5625 5.09375 
Q 40.234375 -1.421875 26.90625 -1.421875 
Q 22.3125 -1.421875 17.546875 -0.640625 
Q 12.796875 0.140625 7.71875 1.703125 
L 7.71875 11.625 
Q 12.109375 9.234375 16.796875 8.0625 
Q 21.484375 6.890625 26.703125 6.890625 
Q 35.15625 6.890625 40.078125 11.328125 
Q 45.015625 15.765625 45.015625 23.390625 
Q 45.015625 31 40.078125 35.4375 
Q 35.15625 39.890625 26.703125 39.890625 
Q 22.75 39.890625 18.8125 39.015625 
Q 14.890625 38.140625 10.796875 36.28125 
z
" id="DejaVuSans-53"/>
      </defs>
      <g style="fill:#4d4d4d;" transform="translate(18.917188 221.133483)scale(0.12 -0.12)">
       <use xlink:href="#DejaVuSans-48"/>
       <use x="63.623047" xlink:href="#DejaVuSans-46"/>
       <use x="95.410156" xlink:href="#DejaVuSans-50"/>
       <use x="159.033203" xlink:href="#DejaVuSans-53"/>
      </g>
     </g>
    </g>
    <g id="ytick_3">
     <g id="line2d_19">
      <path clip-path="url(#p0036f04b1e)" d="M 50.585938 156.107947 
L 407.705938 156.107947 
" style="fill:none;stroke:#e5e5e5;stroke-width:0.8;"/>
     </g>
     <g id="line2d_20">
      <path d="M 50.585938 156.107947 
" style="fill:none;stroke:#000000;stroke-width:1.5;"/>
      <g>
       <use style="stroke:#000000;" x="50.585938" xlink:href="#m4a36c51177" y="156.107947"/>
      </g>
     </g>
     <g id="text_8">
      <!-- 0.50 -->
      <g style="fill:#4d4d4d;" transform="translate(18.917188 159.419197)scale(0.12 -0.12)">
       <use xlink:href="#DejaVuSans-48"/>
       <use x="63.623047" xlink:href="#DejaVuSans-46"/>
       <use x="95.410156" xlink:href="#DejaVuSans-53"/>
       <use x="159.033203" xlink:href="#DejaVuSans-48"/>
      </g>
     </g>
    </g>
    <g id="ytick_4">
     <g id="line2d_21">
      <path clip-path="url(#p0036f04b1e)" d="M 50.585938 94.393662 
L 407.705938 94.393662 
" style="fill:none;stroke:#e5e5e5;stroke-width:0.8;"/>
     </g>
     <g id="line2d_22">
      <path d="M 50.585938 94.393662 
" style="fill:none;stroke:#000000;stroke-width:1.5;"/>
      <g>
       <use style="stroke:#000000;" x="50.585938" xlink:href="#m4a36c51177" y="94.393662"/>
      </g>
     </g>
     <g id="text_9">
      <!-- 0.75 -->
      <defs>
       <path d="M 8.203125 72.90625 
L 55.078125 72.90625 
L 55.078125 68.703125 
L 28.609375 0 
L 18.3125 0 
L 43.21875 64.59375 
L 8.203125 64.59375 
z
" id="DejaVuSans-55"/>
      </defs>
      <g style="fill:#4d4d4d;" transform="translate(18.917188 97.704912)scale(0.12 -0.12)">
       <use xlink:href="#DejaVuSans-48"/>
       <use x="63.623047" xlink:href="#DejaVuSans-46"/>
       <use x="95.410156" xlink:href="#DejaVuSans-55"/>
       <use x="159.033203" xlink:href="#DejaVuSans-53"/>
      </g>
     </g>
    </g>
    <g id="ytick_5">
     <g id="line2d_23">
      <path clip-path="url(#p0036f04b1e)" d="M 50.585938 32.679376 
L 407.705938 32.679376 
" style="fill:none;stroke:#e5e5e5;stroke-width:0.8;"/>
     </g>
     <g id="line2d_24">
      <path d="M 50.585938 32.679376 
" style="fill:none;stroke:#000000;stroke-width:1.5;"/>
      <g>
       <use style="stroke:#000000;" x="50.585938" xlink:href="#m4a36c51177" y="32.679376"/>
      </g>
     </g>
     <g id="text_10">
      <!-- 1 -->
      <g style="fill:#4d4d4d;" transform="translate(38.000938 35.990626)scale(0.12 -0.12)">
       <use xlink:href="#DejaVuSans-49"/>
      </g>
     </g>
    </g>
    <g id="ytick_6">
     <g id="line2d_25">
      <path clip-path="url(#p0036f04b1e)" d="M 50.585938 248.679376 
L 407.705938 248.679376 
" style="fill:none;stroke:#fafafa;"/>
     </g>
     <g id="line2d_26">
      <path d="M 50.585938 248.679376 
" style="fill:none;stroke:#000000;stroke-width:1.5;"/>
     </g>
    </g>
    <g id="ytick_7">
     <g id="line2d_27">
      <path clip-path="url(#p0036f04b1e)" d="M 50.585938 186.96509 
L 407.705938 186.96509 
" style="fill:none;stroke:#fafafa;"/>
     </g>
     <g id="line2d_28">
      <path d="M 50.585938 186.96509 
" style="fill:none;stroke:#000000;stroke-width:1.5;"/>
     </g>
    </g>
    <g id="ytick_8">
     <g id="line2d_29">
      <path clip-path="url(#p0036f04b1e)" d="M 50.585938 125.250804 
L 407.705938 125.250804 
" style="fill:none;stroke:#fafafa;"/>
     </g>
     <g id="line2d_30">
      <path d="M 50.585938 125.250804 
" style="fill:none;stroke:#000000;stroke-width:1.5;"/>
     </g>
    </g>
    <g id="ytick_9">
     <g id="line2d_31">
      <path clip-path="url(#p0036f04b1e)" d="M 50.585938 63.536519 
L 407.705938 63.536519 
" style="fill:none;stroke:#fafafa;"/>
     </g>
     <g id="line2d_32">
      <path d="M 50.585938 63.536519 
" style="fill:none;stroke:#000000;stroke-width:1.5;"/>
     </g>
    </g>
    <g id="text_11">
     <!-- Percentile of ranking -->
     <defs>
      <path d="M 19.671875 64.796875 
L 19.671875 37.40625 
L 32.078125 37.40625 
Q 38.96875 37.40625 42.71875 40.96875 
Q 46.484375 44.53125 46.484375 51.125 
Q 46.484375 57.671875 42.71875 61.234375 
Q 38.96875 64.796875 32.078125 64.796875 
z
M 9.8125 72.90625 
L 32.078125 72.90625 
Q 44.34375 72.90625 50.609375 67.359375 
Q 56.890625 61.8125 56.890625 51.125 
Q 56.890625 40.328125 50.609375 34.8125 
Q 44.34375 29.296875 32.078125 29.296875 
L 19.671875 29.296875 
L 19.671875 0 
L 9.8125 0 
z
" id="DejaVuSans-80"/>
      <path d="M 9.421875 75.984375 
L 18.40625 75.984375 
L 18.40625 0 
L 9.421875 0 
z
" id="DejaVuSans-108"/>
      <path d="M 37.109375 75.984375 
L 37.109375 68.5 
L 28.515625 68.5 
Q 23.6875 68.5 21.796875 66.546875 
Q 19.921875 64.59375 19.921875 59.515625 
L 19.921875 54.6875 
L 34.71875 54.6875 
L 34.71875 47.703125 
L 19.921875 47.703125 
L 19.921875 0 
L 10.890625 0 
L 10.890625 47.703125 
L 2.296875 47.703125 
L 2.296875 54.6875 
L 10.890625 54.6875 
L 10.890625 58.5 
Q 10.890625 67.625 15.140625 71.796875 
Q 19.390625 75.984375 28.609375 75.984375 
z
" id="DejaVuSans-102"/>
      <path d="M 34.28125 27.484375 
Q 23.390625 27.484375 19.1875 25 
Q 14.984375 22.515625 14.984375 16.5 
Q 14.984375 11.71875 18.140625 8.90625 
Q 21.296875 6.109375 26.703125 6.109375 
Q 34.1875 6.109375 38.703125 11.40625 
Q 43.21875 16.703125 43.21875 25.484375 
L 43.21875 27.484375 
z
M 52.203125 31.203125 
L 52.203125 0 
L 43.21875 0 
L 43.21875 8.296875 
Q 40.140625 3.328125 35.546875 0.953125 
Q 30.953125 -1.421875 24.3125 -1.421875 
Q 15.921875 -1.421875 10.953125 3.296875 
Q 6 8.015625 6 15.921875 
Q 6 25.140625 12.171875 29.828125 
Q 18.359375 34.515625 30.609375 34.515625 
L 43.21875 34.515625 
L 43.21875 35.40625 
Q 43.21875 41.609375 39.140625 45 
Q 35.0625 48.390625 27.6875 48.390625 
Q 23 48.390625 18.546875 47.265625 
Q 14.109375 46.140625 10.015625 43.890625 
L 10.015625 52.203125 
Q 14.9375 54.109375 19.578125 55.046875 
Q 24.21875 56 28.609375 56 
Q 40.484375 56 46.34375 49.84375 
Q 52.203125 43.703125 52.203125 31.203125 
z
" id="DejaVuSans-97"/>
      <path d="M 9.078125 75.984375 
L 18.109375 75.984375 
L 18.109375 31.109375 
L 44.921875 54.6875 
L 56.390625 54.6875 
L 27.390625 29.109375 
L 57.625 0 
L 45.90625 0 
L 18.109375 26.703125 
L 18.109375 0 
L 9.078125 0 
z
" id="DejaVuSans-107"/>
      <path d="M 45.40625 27.984375 
Q 45.40625 37.75 41.375 43.109375 
Q 37.359375 48.484375 30.078125 48.484375 
Q 22.859375 48.484375 18.828125 43.109375 
Q 14.796875 37.75 14.796875 27.984375 
Q 14.796875 18.265625 18.828125 12.890625 
Q 22.859375 7.515625 30.078125 7.515625 
Q 37.359375 7.515625 41.375 12.890625 
Q 45.40625 18.265625 45.40625 27.984375 
z
M 54.390625 6.78125 
Q 54.390625 -7.171875 48.1875 -13.984375 
Q 42 -20.796875 29.203125 -20.796875 
Q 24.46875 -20.796875 20.265625 -20.09375 
Q 16.0625 -19.390625 12.109375 -17.921875 
L 12.109375 -9.1875 
Q 16.0625 -11.328125 19.921875 -12.34375 
Q 23.78125 -13.375 27.78125 -13.375 
Q 36.625 -13.375 41.015625 -8.765625 
Q 45.40625 -4.15625 45.40625 5.171875 
L 45.40625 9.625 
Q 42.625 4.78125 38.28125 2.390625 
Q 33.9375 0 27.875 0 
Q 17.828125 0 11.671875 7.65625 
Q 5.515625 15.328125 5.515625 27.984375 
Q 5.515625 40.671875 11.671875 48.328125 
Q 17.828125 56 27.875 56 
Q 33.9375 56 38.28125 53.609375 
Q 42.625 51.21875 45.40625 46.390625 
L 45.40625 54.6875 
L 54.390625 54.6875 
z
" id="DejaVuSans-103"/>
     </defs>
     <g transform="translate(11.397656 229.709813)rotate(-90)scale(0.15 -0.15)">
      <use xlink:href="#DejaVuSans-80"/>
      <use x="60.255859" xlink:href="#DejaVuSans-101"/>
      <use x="121.779297" xlink:href="#DejaVuSans-114"/>
      <use x="162.861328" xlink:href="#DejaVuSans-99"/>
      <use x="217.841797" xlink:href="#DejaVuSans-101"/>
      <use x="279.365234" xlink:href="#DejaVuSans-110"/>
      <use x="342.744141" xlink:href="#DejaVuSans-116"/>
      <use x="381.953125" xlink:href="#DejaVuSans-105"/>
      <use x="409.736328" xlink:href="#DejaVuSans-108"/>
      <use x="437.519531" xlink:href="#DejaVuSans-101"/>
      <use x="499.042969" xlink:href="#DejaVuSans-32"/>
      <use x="530.830078" xlink:href="#DejaVuSans-111"/>
      <use x="592.011719" xlink:href="#DejaVuSans-102"/>
      <use x="627.216797" xlink:href="#DejaVuSans-32"/>
      <use x="659.003906" xlink:href="#DejaVuSans-114"/>
      <use x="700.117188" xlink:href="#DejaVuSans-97"/>
      <use x="761.396484" xlink:href="#DejaVuSans-110"/>
      <use x="824.775391" xlink:href="#DejaVuSans-107"/>
      <use x="882.685547" xlink:href="#DejaVuSans-105"/>
      <use x="910.46875" xlink:href="#DejaVuSans-110"/>
      <use x="973.847656" xlink:href="#DejaVuSans-103"/>
     </g>
    </g>
   </g>
   <g id="PathCollection_1">
    <path clip-path="url(#p0036f04b1e)" d="M 66.818665 34.45183 
C 67.288725 34.45183 67.739596 34.265073 68.071979 33.93269 
C 68.404362 33.600307 68.591119 33.149436 68.591119 32.679376 
C 68.591119 32.209316 68.404362 31.758444 68.071979 31.426062 
C 67.739596 31.093679 67.288725 30.906922 66.818665 30.906922 
C 66.348605 30.906922 65.897733 31.093679 65.565351 31.426062 
C 65.232968 31.758444 65.046211 32.209316 65.046211 32.679376 
C 65.046211 33.149436 65.232968 33.600307 65.565351 33.93269 
C 65.897733 34.265073 66.348605 34.45183 66.818665 34.45183 
z
" style="stroke:#000000;stroke-width:0.886227;"/>
    <path clip-path="url(#p0036f04b1e)" d="M 391.47321 231.937544 
C 391.94327 231.937544 392.394142 231.750787 392.726524 231.418404 
C 393.058907 231.086021 393.245664 230.63515 393.245664 230.16509 
C 393.245664 229.69503 393.058907 229.244159 392.726524 228.911776 
C 392.394142 228.579393 391.94327 228.392636 391.47321 228.392636 
C 391.00315 228.392636 390.552279 228.579393 390.219896 228.911776 
C 389.887513 229.244159 389.700756 229.69503 389.700756 230.16509 
C 389.700756 230.63515 389.887513 231.086021 390.219896 231.418404 
C 390.552279 231.750787 391.00315 231.937544 391.47321 231.937544 
z
" style="stroke:#000000;stroke-width:0.886227;"/>
    <path clip-path="url(#p0036f04b1e)" d="M 143.223628 167.754687 
C 143.693688 167.754687 144.144559 167.56793 144.476942 167.235547 
C 144.809325 166.903164 144.996081 166.452293 144.996081 165.982233 
C 144.996081 165.512173 144.809325 165.061302 144.476942 164.728919 
C 144.144559 164.396536 143.693688 164.209779 143.223628 164.209779 
C 142.753567 164.209779 142.302696 164.396536 141.970313 164.728919 
C 141.637931 165.061302 141.451174 165.512173 141.451174 165.982233 
C 141.451174 166.452293 141.637931 166.903164 141.970313 167.235547 
C 142.302696 167.56793 142.753567 167.754687 143.223628 167.754687 
z
" style="stroke:#000000;stroke-width:0.886227;"/>
    <path clip-path="url(#p0036f04b1e)" d="M 143.290552 98.634687 
C 143.760612 98.634687 144.211483 98.44793 144.543866 98.115547 
C 144.876249 97.783164 145.063006 97.332293 145.063006 96.862233 
C 145.063006 96.392173 144.876249 95.941302 144.543866 95.608919 
C 144.211483 95.276536 143.760612 95.089779 143.290552 95.089779 
C 142.820492 95.089779 142.369621 95.276536 142.037238 95.608919 
C 141.704855 95.941302 141.518098 96.392173 141.518098 96.862233 
C 141.518098 97.332293 141.704855 97.783164 142.037238 98.115547 
C 142.369621 98.44793 142.820492 98.634687 143.290552 98.634687 
z
" style="stroke:#000000;stroke-width:0.886227;"/>
    <path clip-path="url(#p0036f04b1e)" d="M 147.327507 64.074687 
C 147.797567 64.074687 148.248438 63.88793 148.580821 63.555547 
C 148.913204 63.223164 149.099961 62.772293 149.099961 62.302233 
C 149.099961 61.832173 148.913204 61.381302 148.580821 61.048919 
C 148.248438 60.716536 147.797567 60.529779 147.327507 60.529779 
C 146.857446 60.529779 146.406575 60.716536 146.074193 61.048919 
C 145.74181 61.381302 145.555053 61.832173 145.555053 62.302233 
C 145.555053 62.772293 145.74181 63.223164 146.074193 63.555547 
C 146.406575 63.88793 146.857446 64.074687 147.327507 64.074687 
z
" style="stroke:#000000;stroke-width:0.886227;"/>
    <path clip-path="url(#p0036f04b1e)" d="M 372.105189 177.628973 
C 372.57525 177.628973 373.026121 177.442216 373.358503 177.109833 
C 373.690886 176.77745 373.877643 176.326579 373.877643 175.856519 
C 373.877643 175.386458 373.690886 174.935587 373.358503 174.603205 
C 373.026121 174.270822 372.57525 174.084065 372.105189 174.084065 
C 371.635129 174.084065 371.184258 174.270822 370.851875 174.603205 
C 370.519492 174.935587 370.332735 175.386458 370.332735 175.856519 
C 370.332735 176.326579 370.519492 176.77745 370.851875 177.109833 
C 371.184258 177.442216 371.635129 177.628973 372.105189 177.628973 
z
" style="stroke:#000000;stroke-width:0.886227;"/>
    <path clip-path="url(#p0036f04b1e)" d="M 359.587276 118.383258 
C 360.057337 118.383258 360.508208 118.196501 360.840591 117.864119 
C 361.172973 117.531736 361.35973 117.080865 361.35973 116.610804 
C 361.35973 116.140744 361.172973 115.689873 360.840591 115.35749 
C 360.508208 115.025107 360.057337 114.838351 359.587276 114.838351 
C 359.117216 114.838351 358.666345 115.025107 358.333962 115.35749 
C 358.00158 115.689873 357.814823 116.140744 357.814823 116.610804 
C 357.814823 117.080865 358.00158 117.531736 358.333962 117.864119 
C 358.666345 118.196501 359.117216 118.383258 359.587276 118.383258 
z
" style="stroke:#000000;stroke-width:0.886227;"/>
    <path clip-path="url(#p0036f04b1e)" d="M 358.668219 256.623258 
C 359.138279 256.623258 359.58915 256.436501 359.921533 256.104119 
C 360.253916 255.771736 360.440673 255.320865 360.440673 254.850804 
C 360.440673 254.380744 360.253916 253.929873 359.921533 253.59749 
C 359.58915 253.265107 359.138279 253.078351 358.668219 253.078351 
C 358.198159 253.078351 357.747288 253.265107 357.414905 253.59749 
C 357.082522 253.929873 356.895765 254.380744 356.895765 254.850804 
C 356.895765 255.320865 357.082522 255.771736 357.414905 256.104119 
C 357.747288 256.436501 358.198159 256.623258 358.668219 256.623258 
z
" style="stroke:#000000;stroke-width:0.886227;"/>
    <path clip-path="url(#p0036f04b1e)" d="M 182.238671 172.69183 
C 182.708731 172.69183 183.159602 172.505073 183.491985 172.17269 
C 183.824368 171.840307 184.011125 171.389436 184.011125 170.919376 
C 184.011125 170.449316 183.824368 169.998444 183.491985 169.666062 
C 183.159602 169.333679 182.708731 169.146922 182.238671 169.146922 
C 181.768611 169.146922 181.31774 169.333679 180.985357 169.666062 
C 180.652974 169.998444 180.466217 170.449316 180.466217 170.919376 
C 180.466217 171.389436 180.652974 171.840307 180.985357 172.17269 
C 181.31774 172.505073 181.768611 172.69183 182.238671 172.69183 
z
" style="stroke:#000000;stroke-width:0.886227;"/>
    <path clip-path="url(#p0036f04b1e)" d="M 183.583823 207.25183 
C 184.053883 207.25183 184.504754 207.065073 184.837137 206.73269 
C 185.16952 206.400307 185.356277 205.949436 185.356277 205.479376 
C 185.356277 205.009316 185.16952 204.558444 184.837137 204.226062 
C 184.504754 203.893679 184.053883 203.706922 183.583823 203.706922 
C 183.113763 203.706922 182.662891 203.893679 182.330509 204.226062 
C 181.998126 204.558444 181.811369 205.009316 181.811369 205.479376 
C 181.811369 205.949436 181.998126 206.400307 182.330509 206.73269 
C 182.662891 207.065073 183.113763 207.25183 183.583823 207.25183 
z
" style="stroke:#000000;stroke-width:0.886227;"/>
    <path clip-path="url(#p0036f04b1e)" d="M 188.886646 143.068973 
C 189.356706 143.068973 189.807577 142.882216 190.13996 142.549833 
C 190.472343 142.21745 190.6591 141.766579 190.6591 141.296519 
C 190.6591 140.826458 190.472343 140.375587 190.13996 140.043205 
C 189.807577 139.710822 189.356706 139.524065 188.886646 139.524065 
C 188.416585 139.524065 187.965714 139.710822 187.633332 140.043205 
C 187.300949 140.375587 187.114192 140.826458 187.114192 141.296519 
C 187.114192 141.766579 187.300949 142.21745 187.633332 142.549833 
C 187.965714 142.882216 188.416585 143.068973 188.886646 143.068973 
z
" style="stroke:#000000;stroke-width:0.886227;"/>
    <path clip-path="url(#p0036f04b1e)" d="M 336.780873 192.440401 
C 337.250933 192.440401 337.701804 192.253644 338.034187 191.921261 
C 338.36657 191.588879 338.553327 191.138008 338.553327 190.667947 
C 338.553327 190.197887 338.36657 189.747016 338.034187 189.414633 
C 337.701804 189.08225 337.250933 188.895493 336.780873 188.895493 
C 336.310813 188.895493 335.859941 189.08225 335.527559 189.414633 
C 335.195176 189.747016 335.008419 190.197887 335.008419 190.667947 
C 335.008419 191.138008 335.195176 191.588879 335.527559 191.921261 
C 335.859941 192.253644 336.310813 192.440401 336.780873 192.440401 
z
" style="stroke:#000000;stroke-width:0.886227;"/>
    <path clip-path="url(#p0036f04b1e)" d="M 335.798808 187.503258 
C 336.268868 187.503258 336.719739 187.316501 337.052122 186.984119 
C 337.384504 186.651736 337.571261 186.200865 337.571261 185.730804 
C 337.571261 185.260744 337.384504 184.809873 337.052122 184.47749 
C 336.719739 184.145107 336.268868 183.958351 335.798808 183.958351 
C 335.328747 183.958351 334.877876 184.145107 334.545493 184.47749 
C 334.213111 184.809873 334.026354 185.260744 334.026354 185.730804 
C 334.026354 186.200865 334.213111 186.651736 334.545493 186.984119 
C 334.877876 187.316501 335.328747 187.503258 335.798808 187.503258 
z
" style="stroke:#000000;stroke-width:0.886227;"/>
    <path clip-path="url(#p0036f04b1e)" d="M 333.323293 212.188973 
C 333.793354 212.188973 334.244225 212.002216 334.576608 211.669833 
C 334.90899 211.33745 335.095747 210.886579 335.095747 210.416519 
C 335.095747 209.946458 334.90899 209.495587 334.576608 209.163205 
C 334.244225 208.830822 333.793354 208.644065 333.323293 208.644065 
C 332.853233 208.644065 332.402362 208.830822 332.069979 209.163205 
C 331.737597 209.495587 331.55084 209.946458 331.55084 210.416519 
C 331.55084 210.886579 331.737597 211.33745 332.069979 211.669833 
C 332.402362 212.002216 332.853233 212.188973 333.323293 212.188973 
z
" style="stroke:#000000;stroke-width:0.886227;"/>
    <path clip-path="url(#p0036f04b1e)" d="M 198.337851 44.326115 
C 198.807911 44.326115 199.258782 44.139358 199.591165 43.806976 
C 199.923548 43.474593 200.110305 43.023722 200.110305 42.553662 
C 200.110305 42.083601 199.923548 41.63273 199.591165 41.300347 
C 199.258782 40.967965 198.807911 40.781208 198.337851 40.781208 
C 197.867791 40.781208 197.41692 40.967965 197.084537 41.300347 
C 196.752154 41.63273 196.565397 42.083601 196.565397 42.553662 
C 196.565397 43.023722 196.752154 43.474593 197.084537 43.806976 
C 197.41692 44.139358 197.867791 44.326115 198.337851 44.326115 
z
" style="stroke:#000000;stroke-width:0.886227;"/>
    <path clip-path="url(#p0036f04b1e)" d="M 206.312033 54.200401 
C 206.782093 54.200401 207.232964 54.013644 207.565347 53.681261 
C 207.897729 53.348879 208.084486 52.898008 208.084486 52.427947 
C 208.084486 51.957887 207.897729 51.507016 207.565347 51.174633 
C 207.232964 50.84225 206.782093 50.655493 206.312033 50.655493 
C 205.841972 50.655493 205.391101 50.84225 205.058718 51.174633 
C 204.726336 51.507016 204.539579 51.957887 204.539579 52.427947 
C 204.539579 52.898008 204.726336 53.348879 205.058718 53.681261 
C 205.391101 54.013644 205.841972 54.200401 206.312033 54.200401 
z
" style="stroke:#000000;stroke-width:0.886227;"/>
    <path clip-path="url(#p0036f04b1e)" d="M 209.844364 162.817544 
C 210.314425 162.817544 210.765296 162.630787 211.097679 162.298404 
C 211.430061 161.966021 211.616818 161.51515 211.616818 161.04509 
C 211.616818 160.57503 211.430061 160.124159 211.097679 159.791776 
C 210.765296 159.459393 210.314425 159.272636 209.844364 159.272636 
C 209.374304 159.272636 208.923433 159.459393 208.59105 159.791776 
C 208.258668 160.124159 208.071911 160.57503 208.071911 161.04509 
C 208.071911 161.51515 208.258668 161.966021 208.59105 162.298404 
C 208.923433 162.630787 209.374304 162.817544 209.844364 162.817544 
z
" style="stroke:#000000;stroke-width:0.886227;"/>
    <path clip-path="url(#p0036f04b1e)" d="M 311.903827 236.874687 
C 312.373887 236.874687 312.824758 236.68793 313.157141 236.355547 
C 313.489524 236.023164 313.676281 235.572293 313.676281 235.102233 
C 313.676281 234.632173 313.489524 234.181302 313.157141 233.848919 
C 312.824758 233.516536 312.373887 233.329779 311.903827 233.329779 
C 311.433767 233.329779 310.982896 233.516536 310.650513 233.848919 
C 310.31813 234.181302 310.131373 234.632173 310.131373 235.102233 
C 310.131373 235.572293 310.31813 236.023164 310.650513 236.355547 
C 310.982896 236.68793 311.433767 236.874687 311.903827 236.874687 
z
" style="stroke:#000000;stroke-width:0.886227;"/>
    <path clip-path="url(#p0036f04b1e)" d="M 224.265381 49.263258 
C 224.735442 49.263258 225.186313 49.076501 225.518695 48.744119 
C 225.851078 48.411736 226.037835 47.960865 226.037835 47.490804 
C 226.037835 47.020744 225.851078 46.569873 225.518695 46.23749 
C 225.186313 45.905107 224.735442 45.718351 224.265381 45.718351 
C 223.795321 45.718351 223.34445 45.905107 223.012067 46.23749 
C 222.679684 46.569873 222.492927 47.020744 222.492927 47.490804 
C 222.492927 47.960865 222.679684 48.411736 223.012067 48.744119 
C 223.34445 49.076501 223.795321 49.263258 224.265381 49.263258 
z
" style="stroke:#000000;stroke-width:0.886227;"/>
    <path clip-path="url(#p0036f04b1e)" d="M 304.855868 138.13183 
C 305.325928 138.13183 305.776799 137.945073 306.109182 137.61269 
C 306.441565 137.280307 306.628322 136.829436 306.628322 136.359376 
C 306.628322 135.889316 306.441565 135.438444 306.109182 135.106062 
C 305.776799 134.773679 305.325928 134.586922 304.855868 134.586922 
C 304.385808 134.586922 303.934936 134.773679 303.602554 135.106062 
C 303.270171 135.438444 303.083414 135.889316 303.083414 136.359376 
C 303.083414 136.829436 303.270171 137.280307 303.602554 137.61269 
C 303.934936 137.945073 304.385808 138.13183 304.855868 138.13183 
z
" style="stroke:#000000;stroke-width:0.886227;"/>
    <path clip-path="url(#p0036f04b1e)" d="M 304.584791 103.57183 
C 305.054851 103.57183 305.505722 103.385073 305.838105 103.05269 
C 306.170488 102.720307 306.357245 102.269436 306.357245 101.799376 
C 306.357245 101.329316 306.170488 100.878444 305.838105 100.546062 
C 305.505722 100.213679 305.054851 100.026922 304.584791 100.026922 
C 304.11473 100.026922 303.663859 100.213679 303.331477 100.546062 
C 302.999094 100.878444 302.812337 101.329316 302.812337 101.799376 
C 302.812337 102.269436 302.999094 102.720307 303.331477 103.05269 
C 303.663859 103.385073 304.11473 103.57183 304.584791 103.57183 
z
" style="stroke:#000000;stroke-width:0.886227;"/>
    <path clip-path="url(#p0036f04b1e)" d="M 228.502523 271.434687 
C 228.972583 271.434687 229.423454 271.24793 229.755837 270.915547 
C 230.088219 270.583164 230.274976 270.132293 230.274976 269.662233 
C 230.274976 269.192173 230.088219 268.741302 229.755837 268.408919 
C 229.423454 268.076536 228.972583 267.889779 228.502523 267.889779 
C 228.032462 267.889779 227.581591 268.076536 227.249208 268.408919 
C 226.916826 268.741302 226.730069 269.192173 226.730069 269.662233 
C 226.730069 270.132293 226.916826 270.583164 227.249208 270.915547 
C 227.581591 271.24793 228.032462 271.434687 228.502523 271.434687 
z
" style="stroke:#000000;stroke-width:0.886227;"/>
    <path clip-path="url(#p0036f04b1e)" d="M 229.892944 133.194687 
C 230.363004 133.194687 230.813875 133.00793 231.146258 132.675547 
C 231.478641 132.343164 231.665397 131.892293 231.665397 131.422233 
C 231.665397 130.952173 231.478641 130.501302 231.146258 130.168919 
C 230.813875 129.836536 230.363004 129.649779 229.892944 129.649779 
C 229.422883 129.649779 228.972012 129.836536 228.639629 130.168919 
C 228.307247 130.501302 228.12049 130.952173 228.12049 131.422233 
C 228.12049 131.892293 228.307247 132.343164 228.639629 132.675547 
C 228.972012 133.00793 229.422883 133.194687 229.892944 133.194687 
z
" style="stroke:#000000;stroke-width:0.886227;"/>
    <path clip-path="url(#p0036f04b1e)" d="M 230.067742 73.948973 
C 230.537802 73.948973 230.988673 73.762216 231.321056 73.429833 
C 231.653439 73.09745 231.840196 72.646579 231.840196 72.176519 
C 231.840196 71.706458 231.653439 71.255587 231.321056 70.923205 
C 230.988673 70.590822 230.537802 70.404065 230.067742 70.404065 
C 229.597682 70.404065 229.146811 70.590822 228.814428 70.923205 
C 228.482045 71.255587 228.295288 71.706458 228.295288 72.176519 
C 228.295288 72.646579 228.482045 73.09745 228.814428 73.429833 
C 229.146811 73.762216 229.597682 73.948973 230.067742 73.948973 
z
" style="stroke:#000000;stroke-width:0.886227;"/>
    <path clip-path="url(#p0036f04b1e)" d="M 301.286337 69.01183 
C 301.756397 69.01183 302.207268 68.825073 302.539651 68.49269 
C 302.872034 68.160307 303.058791 67.709436 303.058791 67.239376 
C 303.058791 66.769316 302.872034 66.318444 302.539651 65.986062 
C 302.207268 65.653679 301.756397 65.466922 301.286337 65.466922 
C 300.816277 65.466922 300.365406 65.653679 300.033023 65.986062 
C 299.70064 66.318444 299.513883 66.769316 299.513883 67.239376 
C 299.513883 67.709436 299.70064 68.160307 300.033023 68.49269 
C 300.365406 68.825073 300.816277 69.01183 301.286337 69.01183 
z
" style="stroke:#000000;stroke-width:0.886227;"/>
    <path clip-path="url(#p0036f04b1e)" d="M 232.125076 261.560401 
C 232.595137 261.560401 233.046008 261.373644 233.378391 261.041261 
C 233.710773 260.708879 233.89753 260.258008 233.89753 259.787947 
C 233.89753 259.317887 233.710773 258.867016 233.378391 258.534633 
C 233.046008 258.20225 232.595137 258.015493 232.125076 258.015493 
C 231.655016 258.015493 231.204145 258.20225 230.871762 258.534633 
C 230.53938 258.867016 230.352623 259.317887 230.352623 259.787947 
C 230.352623 260.258008 230.53938 260.708879 230.871762 261.041261 
C 231.204145 261.373644 231.655016 261.560401 232.125076 261.560401 
z
" style="stroke:#000000;stroke-width:0.886227;"/>
    <path clip-path="url(#p0036f04b1e)" d="M 234.929862 123.320401 
C 235.399922 123.320401 235.850793 123.133644 236.183176 122.801261 
C 236.515559 122.468879 236.702316 122.018008 236.702316 121.547947 
C 236.702316 121.077887 236.515559 120.627016 236.183176 120.294633 
C 235.850793 119.96225 235.399922 119.775493 234.929862 119.775493 
C 234.459802 119.775493 234.00893 119.96225 233.676548 120.294633 
C 233.344165 120.627016 233.157408 121.077887 233.157408 121.547947 
C 233.157408 122.018008 233.344165 122.468879 233.676548 122.801261 
C 234.00893 123.133644 234.459802 123.320401 234.929862 123.320401 
z
" style="stroke:#000000;stroke-width:0.886227;"/>
    <path clip-path="url(#p0036f04b1e)" d="M 296.54007 197.377544 
C 297.01013 197.377544 297.461001 197.190787 297.793384 196.858404 
C 298.125767 196.526021 298.312523 196.07515 298.312523 195.60509 
C 298.312523 195.13503 298.125767 194.684159 297.793384 194.351776 
C 297.461001 194.019393 297.01013 193.832636 296.54007 193.832636 
C 296.070009 193.832636 295.619138 194.019393 295.286755 194.351776 
C 294.954373 194.684159 294.767616 195.13503 294.767616 195.60509 
C 294.767616 196.07515 294.954373 196.526021 295.286755 196.858404 
C 295.619138 197.190787 296.070009 197.377544 296.54007 197.377544 
z
" style="stroke:#000000;stroke-width:0.886227;"/>
    <path clip-path="url(#p0036f04b1e)" d="M 296.060908 251.686115 
C 296.530968 251.686115 296.98184 251.499358 297.314222 251.166976 
C 297.646605 250.834593 297.833362 250.383722 297.833362 249.913662 
C 297.833362 249.443601 297.646605 248.99273 297.314222 248.660347 
C 296.98184 248.327965 296.530968 248.141208 296.060908 248.141208 
C 295.590848 248.141208 295.139977 248.327965 294.807594 248.660347 
C 294.475211 248.99273 294.288454 249.443601 294.288454 249.913662 
C 294.288454 250.383722 294.475211 250.834593 294.807594 251.166976 
C 295.139977 251.499358 295.590848 251.686115 296.060908 251.686115 
z
" style="stroke:#000000;stroke-width:0.886227;"/>
    <path clip-path="url(#p0036f04b1e)" d="M 235.843457 266.497544 
C 236.313517 266.497544 236.764388 266.310787 237.096771 265.978404 
C 237.429154 265.646021 237.615911 265.19515 237.615911 264.72509 
C 237.615911 264.25503 237.429154 263.804159 237.096771 263.471776 
C 236.764388 263.139393 236.313517 262.952636 235.843457 262.952636 
C 235.373397 262.952636 234.922526 263.139393 234.590143 263.471776 
C 234.25776 263.804159 234.071003 264.25503 234.071003 264.72509 
C 234.071003 265.19515 234.25776 265.646021 234.590143 265.978404 
C 234.922526 266.310787 235.373397 266.497544 235.843457 266.497544 
z
" style="stroke:#000000;stroke-width:0.886227;"/>
    <path clip-path="url(#p0036f04b1e)" d="M 236.849404 246.748973 
C 237.319464 246.748973 237.770335 246.562216 238.102718 246.229833 
C 238.435101 245.89745 238.621858 245.446579 238.621858 244.976519 
C 238.621858 244.506458 238.435101 244.055587 238.102718 243.723205 
C 237.770335 243.390822 237.319464 243.204065 236.849404 243.204065 
C 236.379344 243.204065 235.928473 243.390822 235.59609 243.723205 
C 235.263707 244.055587 235.07695 244.506458 235.07695 244.976519 
C 235.07695 245.446579 235.263707 245.89745 235.59609 246.229833 
C 235.928473 246.562216 236.379344 246.748973 236.849404 246.748973 
z
" style="stroke:#000000;stroke-width:0.886227;"/>
    <path clip-path="url(#p0036f04b1e)" d="M 238.392869 88.760401 
C 238.862929 88.760401 239.3138 88.573644 239.646183 88.241261 
C 239.978566 87.908879 240.165323 87.458008 240.165323 86.987947 
C 240.165323 86.517887 239.978566 86.067016 239.646183 85.734633 
C 239.3138 85.40225 238.862929 85.215493 238.392869 85.215493 
C 237.922809 85.215493 237.471938 85.40225 237.139555 85.734633 
C 236.807172 86.067016 236.620415 86.517887 236.620415 86.987947 
C 236.620415 87.458008 236.807172 87.908879 237.139555 88.241261 
C 237.471938 88.573644 237.922809 88.760401 238.392869 88.760401 
z
" style="stroke:#000000;stroke-width:0.886227;"/>
    <path clip-path="url(#p0036f04b1e)" d="M 239.225563 276.37183 
C 239.695623 276.37183 240.146494 276.185073 240.478877 275.85269 
C 240.81126 275.520307 240.998017 275.069436 240.998017 274.599376 
C 240.998017 274.129316 240.81126 273.678444 240.478877 273.346062 
C 240.146494 273.013679 239.695623 272.826922 239.225563 272.826922 
C 238.755502 272.826922 238.304631 273.013679 237.972249 273.346062 
C 237.639866 273.678444 237.453109 274.129316 237.453109 274.599376 
C 237.453109 275.069436 237.639866 275.520307 237.972249 275.85269 
C 238.304631 276.185073 238.755502 276.37183 239.225563 276.37183 
z
" style="stroke:#000000;stroke-width:0.886227;"/>
    <path clip-path="url(#p0036f04b1e)" d="M 289.027687 227.000401 
C 289.497748 227.000401 289.948619 226.813644 290.281002 226.481261 
C 290.613384 226.148879 290.800141 225.698008 290.800141 225.227947 
C 290.800141 224.757887 290.613384 224.307016 290.281002 223.974633 
C 289.948619 223.64225 289.497748 223.455493 289.027687 223.455493 
C 288.557627 223.455493 288.106756 223.64225 287.774373 223.974633 
C 287.44199 224.307016 287.255234 224.757887 287.255234 225.227947 
C 287.255234 225.698008 287.44199 226.148879 287.774373 226.481261 
C 288.106756 226.813644 288.557627 227.000401 289.027687 227.000401 
z
" style="stroke:#000000;stroke-width:0.886227;"/>
    <path clip-path="url(#p0036f04b1e)" d="M 288.859548 59.137544 
C 289.329608 59.137544 289.780479 58.950787 290.112862 58.618404 
C 290.445245 58.286021 290.632002 57.83515 290.632002 57.36509 
C 290.632002 56.89503 290.445245 56.444159 290.112862 56.111776 
C 289.780479 55.779393 289.329608 55.592636 288.859548 55.592636 
C 288.389488 55.592636 287.938617 55.779393 287.606234 56.111776 
C 287.273851 56.444159 287.087094 56.89503 287.087094 57.36509 
C 287.087094 57.83515 287.273851 58.286021 287.606234 58.618404 
C 287.938617 58.950787 288.389488 59.137544 288.859548 59.137544 
z
" style="stroke:#000000;stroke-width:0.886227;"/>
    <path clip-path="url(#p0036f04b1e)" d="M 287.786613 93.697544 
C 288.256673 93.697544 288.707544 93.510787 289.039927 93.178404 
C 289.37231 92.846021 289.559067 92.39515 289.559067 91.92509 
C 289.559067 91.45503 289.37231 91.004159 289.039927 90.671776 
C 288.707544 90.339393 288.256673 90.152636 287.786613 90.152636 
C 287.316553 90.152636 286.865682 90.339393 286.533299 90.671776 
C 286.200916 91.004159 286.014159 91.45503 286.014159 91.92509 
C 286.014159 92.39515 286.200916 92.846021 286.533299 93.178404 
C 286.865682 93.510787 287.316553 93.697544 287.786613 93.697544 
z
" style="stroke:#000000;stroke-width:0.886227;"/>
    <path clip-path="url(#p0036f04b1e)" d="M 244.046986 157.880401 
C 244.517046 157.880401 244.967917 157.693644 245.3003 157.361261 
C 245.632683 157.028879 245.81944 156.578008 245.81944 156.107947 
C 245.81944 155.637887 245.632683 155.187016 245.3003 154.854633 
C 244.967917 154.52225 244.517046 154.335493 244.046986 154.335493 
C 243.576926 154.335493 243.126055 154.52225 242.793672 154.854633 
C 242.461289 155.187016 242.274532 155.637887 242.274532 156.107947 
C 242.274532 156.578008 242.461289 157.028879 242.793672 157.361261 
C 243.126055 157.693644 243.576926 157.880401 244.046986 157.880401 
z
" style="stroke:#000000;stroke-width:0.886227;"/>
    <path clip-path="url(#p0036f04b1e)" d="M 244.620374 39.388973 
C 245.090434 39.388973 245.541306 39.202216 245.873688 38.869833 
C 246.206071 38.53745 246.392828 38.086579 246.392828 37.616519 
C 246.392828 37.146458 246.206071 36.695587 245.873688 36.363205 
C 245.541306 36.030822 245.090434 35.844065 244.620374 35.844065 
C 244.150314 35.844065 243.699443 36.030822 243.36706 36.363205 
C 243.034677 36.695587 242.84792 37.146458 242.84792 37.616519 
C 242.84792 38.086579 243.034677 38.53745 243.36706 38.869833 
C 243.699443 39.202216 244.150314 39.388973 244.620374 39.388973 
z
" style="stroke:#000000;stroke-width:0.886227;"/>
    <path clip-path="url(#p0036f04b1e)" d="M 251.343421 78.886115 
C 251.813481 78.886115 252.264352 78.699358 252.596735 78.366976 
C 252.929118 78.034593 253.115875 77.583722 253.115875 77.113662 
C 253.115875 76.643601 252.929118 76.19273 252.596735 75.860347 
C 252.264352 75.527965 251.813481 75.341208 251.343421 75.341208 
C 250.873361 75.341208 250.42249 75.527965 250.090107 75.860347 
C 249.757724 76.19273 249.570967 76.643601 249.570967 77.113662 
C 249.570967 77.583722 249.757724 78.034593 250.090107 78.366976 
C 250.42249 78.699358 250.873361 78.886115 251.343421 78.886115 
z
" style="stroke:#000000;stroke-width:0.886227;"/>
    <path clip-path="url(#p0036f04b1e)" d="M 251.597687 222.063258 
C 252.067747 222.063258 252.518619 221.876501 252.851001 221.544119 
C 253.183384 221.211736 253.370141 220.760865 253.370141 220.290804 
C 253.370141 219.820744 253.183384 219.369873 252.851001 219.03749 
C 252.518619 218.705107 252.067747 218.518351 251.597687 218.518351 
C 251.127627 218.518351 250.676756 218.705107 250.344373 219.03749 
C 250.01199 219.369873 249.825233 219.820744 249.825233 220.290804 
C 249.825233 220.760865 250.01199 221.211736 250.344373 221.544119 
C 250.676756 221.876501 251.127627 222.063258 251.597687 222.063258 
z
" style="stroke:#000000;stroke-width:0.886227;"/>
    <path clip-path="url(#p0036f04b1e)" d="M 251.720591 148.006115 
C 252.190651 148.006115 252.641522 147.819358 252.973905 147.486976 
C 253.306288 147.154593 253.493045 146.703722 253.493045 146.233662 
C 253.493045 145.763601 253.306288 145.31273 252.973905 144.980347 
C 252.641522 144.647965 252.190651 144.461208 251.720591 144.461208 
C 251.250531 144.461208 250.79966 144.647965 250.467277 144.980347 
C 250.134894 145.31273 249.948137 145.763601 249.948137 146.233662 
C 249.948137 146.703722 250.134894 147.154593 250.467277 147.486976 
C 250.79966 147.819358 251.250531 148.006115 251.720591 148.006115 
z
" style="stroke:#000000;stroke-width:0.886227;"/>
    <path clip-path="url(#p0036f04b1e)" d="M 251.793108 113.446115 
C 252.263168 113.446115 252.714039 113.259358 253.046422 112.926976 
C 253.378805 112.594593 253.565562 112.143722 253.565562 111.673662 
C 253.565562 111.203601 253.378805 110.75273 253.046422 110.420347 
C 252.714039 110.087965 252.263168 109.901208 251.793108 109.901208 
C 251.323048 109.901208 250.872176 110.087965 250.539794 110.420347 
C 250.207411 110.75273 250.020654 111.203601 250.020654 111.673662 
C 250.020654 112.143722 250.207411 112.594593 250.539794 112.926976 
C 250.872176 113.259358 251.323048 113.446115 251.793108 113.446115 
z
" style="stroke:#000000;stroke-width:0.886227;"/>
    <path clip-path="url(#p0036f04b1e)" d="M 253.739246 108.508973 
C 254.209306 108.508973 254.660177 108.322216 254.99256 107.989833 
C 255.324943 107.65745 255.5117 107.206579 255.5117 106.736519 
C 255.5117 106.266458 255.324943 105.815587 254.99256 105.483205 
C 254.660177 105.150822 254.209306 104.964065 253.739246 104.964065 
C 253.269186 104.964065 252.818315 105.150822 252.485932 105.483205 
C 252.153549 105.815587 251.966792 106.266458 251.966792 106.736519 
C 251.966792 107.206579 252.153549 107.65745 252.485932 107.989833 
C 252.818315 108.322216 253.269186 108.508973 253.739246 108.508973 
z
" style="stroke:#000000;stroke-width:0.886227;"/>
    <path clip-path="url(#p0036f04b1e)" d="M 276.682407 202.314687 
C 277.152468 202.314687 277.603339 202.12793 277.935722 201.795547 
C 278.268104 201.463164 278.454861 201.012293 278.454861 200.542233 
C 278.454861 200.072173 278.268104 199.621302 277.935722 199.288919 
C 277.603339 198.956536 277.152468 198.769779 276.682407 198.769779 
C 276.212347 198.769779 275.761476 198.956536 275.429093 199.288919 
C 275.096711 199.621302 274.909954 200.072173 274.909954 200.542233 
C 274.909954 201.012293 275.096711 201.463164 275.429093 201.795547 
C 275.761476 202.12793 276.212347 202.314687 276.682407 202.314687 
z
" style="stroke:#000000;stroke-width:0.886227;"/>
    <path clip-path="url(#p0036f04b1e)" d="M 276.582227 128.257544 
C 277.052288 128.257544 277.503159 128.070787 277.835542 127.738404 
C 278.167924 127.406021 278.354681 126.95515 278.354681 126.48509 
C 278.354681 126.01503 278.167924 125.564159 277.835542 125.231776 
C 277.503159 124.899393 277.052288 124.712636 276.582227 124.712636 
C 276.112167 124.712636 275.661296 124.899393 275.328913 125.231776 
C 274.996531 125.564159 274.809774 126.01503 274.809774 126.48509 
C 274.809774 126.95515 274.996531 127.406021 275.328913 127.738404 
C 275.661296 128.070787 276.112167 128.257544 276.582227 128.257544 
z
" style="stroke:#000000;stroke-width:0.886227;"/>
    <path clip-path="url(#p0036f04b1e)" d="M 258.030631 83.823258 
C 258.500692 83.823258 258.951563 83.636501 259.283946 83.304119 
C 259.616328 82.971736 259.803085 82.520865 259.803085 82.050804 
C 259.803085 81.580744 259.616328 81.129873 259.283946 80.79749 
C 258.951563 80.465107 258.500692 80.278351 258.030631 80.278351 
C 257.560571 80.278351 257.1097 80.465107 256.777317 80.79749 
C 256.444934 81.129873 256.258178 81.580744 256.258178 82.050804 
C 256.258178 82.520865 256.444934 82.971736 256.777317 83.304119 
C 257.1097 83.636501 257.560571 83.823258 258.030631 83.823258 
z
" style="stroke:#000000;stroke-width:0.886227;"/>
    <path clip-path="url(#p0036f04b1e)" d="M 271.419678 182.566115 
C 271.889738 182.566115 272.340609 182.379358 272.672992 182.046976 
C 273.005374 181.714593 273.192131 181.263722 273.192131 180.793662 
C 273.192131 180.323601 273.005374 179.87273 272.672992 179.540347 
C 272.340609 179.207965 271.889738 179.021208 271.419678 179.021208 
C 270.949617 179.021208 270.498746 179.207965 270.166363 179.540347 
C 269.833981 179.87273 269.647224 180.323601 269.647224 180.793662 
C 269.647224 181.263722 269.833981 181.714593 270.166363 182.046976 
C 270.498746 182.379358 270.949617 182.566115 271.419678 182.566115 
z
" style="stroke:#000000;stroke-width:0.886227;"/>
    <path clip-path="url(#p0036f04b1e)" d="M 261.102961 241.81183 
C 261.573022 241.81183 262.023893 241.625073 262.356276 241.29269 
C 262.688658 240.960307 262.875415 240.509436 262.875415 240.039376 
C 262.875415 239.569316 262.688658 239.118444 262.356276 238.786062 
C 262.023893 238.453679 261.573022 238.266922 261.102961 238.266922 
C 260.632901 238.266922 260.18203 238.453679 259.849647 238.786062 
C 259.517265 239.118444 259.330508 239.569316 259.330508 240.039376 
C 259.330508 240.509436 259.517265 240.960307 259.849647 241.29269 
C 260.18203 241.625073 260.632901 241.81183 261.102961 241.81183 
z
" style="stroke:#000000;stroke-width:0.886227;"/>
    <path clip-path="url(#p0036f04b1e)" d="M 269.597149 217.126115 
C 270.067209 217.126115 270.51808 216.939358 270.850463 216.606976 
C 271.182846 216.274593 271.369603 215.823722 271.369603 215.353662 
C 271.369603 214.883601 271.182846 214.43273 270.850463 214.100347 
C 270.51808 213.767965 270.067209 213.581208 269.597149 213.581208 
C 269.127088 213.581208 268.676217 213.767965 268.343835 214.100347 
C 268.011452 214.43273 267.824695 214.883601 267.824695 215.353662 
C 267.824695 215.823722 268.011452 216.274593 268.343835 216.606976 
C 268.676217 216.939358 269.127088 217.126115 269.597149 217.126115 
z
" style="stroke:#000000;stroke-width:0.886227;"/>
    <path clip-path="url(#p0036f04b1e)" d="M 263.843325 152.943258 
C 264.313385 152.943258 264.764257 152.756501 265.096639 152.424119 
C 265.429022 152.091736 265.615779 151.640865 265.615779 151.170804 
C 265.615779 150.700744 265.429022 150.249873 265.096639 149.91749 
C 264.764257 149.585107 264.313385 149.398351 263.843325 149.398351 
C 263.373265 149.398351 262.922394 149.585107 262.590011 149.91749 
C 262.257628 150.249873 262.070871 150.700744 262.070871 151.170804 
C 262.070871 151.640865 262.257628 152.091736 262.590011 152.424119 
C 262.922394 152.756501 263.373265 152.943258 263.843325 152.943258 
z
" style="stroke:#000000;stroke-width:0.886227;"/>
   </g>
   <g id="text_12">
    <g clip-path="url(#p0036f04b1e)">
     <!-- HALLMARK_TNFA_SIGNALING_VIA_NFKB -->
     <defs>
      <path d="M 9.8125 72.90625 
L 19.671875 72.90625 
L 19.671875 43.015625 
L 55.515625 43.015625 
L 55.515625 72.90625 
L 65.375 72.90625 
L 65.375 0 
L 55.515625 0 
L 55.515625 34.71875 
L 19.671875 34.71875 
L 19.671875 0 
L 9.8125 0 
z
" id="DejaVuSans-72"/>
      <path d="M 34.1875 63.1875 
L 20.796875 26.90625 
L 47.609375 26.90625 
z
M 28.609375 72.90625 
L 39.796875 72.90625 
L 67.578125 0 
L 57.328125 0 
L 50.6875 18.703125 
L 17.828125 18.703125 
L 11.1875 0 
L 0.78125 0 
z
" id="DejaVuSans-65"/>
      <path d="M 9.8125 72.90625 
L 19.671875 72.90625 
L 19.671875 8.296875 
L 55.171875 8.296875 
L 55.171875 0 
L 9.8125 0 
z
" id="DejaVuSans-76"/>
      <path d="M 9.8125 72.90625 
L 24.515625 72.90625 
L 43.109375 23.296875 
L 61.8125 72.90625 
L 76.515625 72.90625 
L 76.515625 0 
L 66.890625 0 
L 66.890625 64.015625 
L 48.09375 14.015625 
L 38.1875 14.015625 
L 19.390625 64.015625 
L 19.390625 0 
L 9.8125 0 
z
" id="DejaVuSans-77"/>
      <path d="M 44.390625 34.1875 
Q 47.5625 33.109375 50.5625 29.59375 
Q 53.5625 26.078125 56.59375 19.921875 
L 66.609375 0 
L 56 0 
L 46.6875 18.703125 
Q 43.0625 26.03125 39.671875 28.421875 
Q 36.28125 30.8125 30.421875 30.8125 
L 19.671875 30.8125 
L 19.671875 0 
L 9.8125 0 
L 9.8125 72.90625 
L 32.078125 72.90625 
Q 44.578125 72.90625 50.734375 67.671875 
Q 56.890625 62.453125 56.890625 51.90625 
Q 56.890625 45.015625 53.6875 40.46875 
Q 50.484375 35.9375 44.390625 34.1875 
z
M 19.671875 64.796875 
L 19.671875 38.921875 
L 32.078125 38.921875 
Q 39.203125 38.921875 42.84375 42.21875 
Q 46.484375 45.515625 46.484375 51.90625 
Q 46.484375 58.296875 42.84375 61.546875 
Q 39.203125 64.796875 32.078125 64.796875 
z
" id="DejaVuSans-82"/>
      <path d="M 9.8125 72.90625 
L 19.671875 72.90625 
L 19.671875 42.09375 
L 52.390625 72.90625 
L 65.09375 72.90625 
L 28.90625 38.921875 
L 67.671875 0 
L 54.6875 0 
L 19.671875 35.109375 
L 19.671875 0 
L 9.8125 0 
z
" id="DejaVuSans-75"/>
      <path d="M 50.984375 -16.609375 
L 50.984375 -23.578125 
L -0.984375 -23.578125 
L -0.984375 -16.609375 
z
" id="DejaVuSans-95"/>
      <path d="M -0.296875 72.90625 
L 61.375 72.90625 
L 61.375 64.59375 
L 35.5 64.59375 
L 35.5 0 
L 25.59375 0 
L 25.59375 64.59375 
L -0.296875 64.59375 
z
" id="DejaVuSans-84"/>
      <path d="M 9.8125 72.90625 
L 23.09375 72.90625 
L 55.421875 11.921875 
L 55.421875 72.90625 
L 64.984375 72.90625 
L 64.984375 0 
L 51.703125 0 
L 19.390625 60.984375 
L 19.390625 0 
L 9.8125 0 
z
" id="DejaVuSans-78"/>
      <path d="M 9.8125 72.90625 
L 51.703125 72.90625 
L 51.703125 64.59375 
L 19.671875 64.59375 
L 19.671875 43.109375 
L 48.578125 43.109375 
L 48.578125 34.8125 
L 19.671875 34.8125 
L 19.671875 0 
L 9.8125 0 
z
" id="DejaVuSans-70"/>
      <path d="M 53.515625 70.515625 
L 53.515625 60.890625 
Q 47.90625 63.578125 42.921875 64.890625 
Q 37.9375 66.21875 33.296875 66.21875 
Q 25.25 66.21875 20.875 63.09375 
Q 16.5 59.96875 16.5 54.203125 
Q 16.5 49.359375 19.40625 46.890625 
Q 22.3125 44.4375 30.421875 42.921875 
L 36.375 41.703125 
Q 47.40625 39.59375 52.65625 34.296875 
Q 57.90625 29 57.90625 20.125 
Q 57.90625 9.515625 50.796875 4.046875 
Q 43.703125 -1.421875 29.984375 -1.421875 
Q 24.8125 -1.421875 18.96875 -0.25 
Q 13.140625 0.921875 6.890625 3.21875 
L 6.890625 13.375 
Q 12.890625 10.015625 18.65625 8.296875 
Q 24.421875 6.59375 29.984375 6.59375 
Q 38.421875 6.59375 43.015625 9.90625 
Q 47.609375 13.234375 47.609375 19.390625 
Q 47.609375 24.75 44.3125 27.78125 
Q 41.015625 30.8125 33.5 32.328125 
L 27.484375 33.5 
Q 16.453125 35.6875 11.515625 40.375 
Q 6.59375 45.0625 6.59375 53.421875 
Q 6.59375 63.09375 13.40625 68.65625 
Q 20.21875 74.21875 32.171875 74.21875 
Q 37.3125 74.21875 42.625 73.28125 
Q 47.953125 72.359375 53.515625 70.515625 
z
" id="DejaVuSans-83"/>
      <path d="M 9.8125 72.90625 
L 19.671875 72.90625 
L 19.671875 0 
L 9.8125 0 
z
" id="DejaVuSans-73"/>
      <path d="M 59.515625 10.40625 
L 59.515625 29.984375 
L 43.40625 29.984375 
L 43.40625 38.09375 
L 69.28125 38.09375 
L 69.28125 6.78125 
Q 63.578125 2.734375 56.6875 0.65625 
Q 49.8125 -1.421875 42 -1.421875 
Q 24.90625 -1.421875 15.25 8.5625 
Q 5.609375 18.5625 5.609375 36.375 
Q 5.609375 54.25 15.25 64.234375 
Q 24.90625 74.21875 42 74.21875 
Q 49.125 74.21875 55.546875 72.453125 
Q 61.96875 70.703125 67.390625 67.28125 
L 67.390625 56.78125 
Q 61.921875 61.421875 55.765625 63.765625 
Q 49.609375 66.109375 42.828125 66.109375 
Q 29.4375 66.109375 22.71875 58.640625 
Q 16.015625 51.171875 16.015625 36.375 
Q 16.015625 21.625 22.71875 14.15625 
Q 29.4375 6.6875 42.828125 6.6875 
Q 48.046875 6.6875 52.140625 7.59375 
Q 56.25 8.5 59.515625 10.40625 
z
" id="DejaVuSans-71"/>
      <path d="M 28.609375 0 
L 0.78125 72.90625 
L 11.078125 72.90625 
L 34.1875 11.53125 
L 57.328125 72.90625 
L 67.578125 72.90625 
L 39.796875 0 
z
" id="DejaVuSans-86"/>
      <path d="M 19.671875 34.8125 
L 19.671875 8.109375 
L 35.5 8.109375 
Q 43.453125 8.109375 47.28125 11.40625 
Q 51.125 14.703125 51.125 21.484375 
Q 51.125 28.328125 47.28125 31.5625 
Q 43.453125 34.8125 35.5 34.8125 
z
M 19.671875 64.796875 
L 19.671875 42.828125 
L 34.28125 42.828125 
Q 41.5 42.828125 45.03125 45.53125 
Q 48.578125 48.25 48.578125 53.8125 
Q 48.578125 59.328125 45.03125 62.0625 
Q 41.5 64.796875 34.28125 64.796875 
z
M 9.8125 72.90625 
L 35.015625 72.90625 
Q 46.296875 72.90625 52.390625 68.21875 
Q 58.5 63.53125 58.5 54.890625 
Q 58.5 48.1875 55.375 44.234375 
Q 52.25 40.28125 46.1875 39.3125 
Q 53.46875 37.75 57.5 32.78125 
Q 61.53125 27.828125 61.53125 20.40625 
Q 61.53125 10.640625 54.890625 5.3125 
Q 48.25 0 35.984375 0 
L 9.8125 0 
z
" id="DejaVuSans-66"/>
     </defs>
     <g transform="translate(-152.136335 40.843438)scale(0.11 -0.11)">
      <use xlink:href="#DejaVuSans-72"/>
      <use x="75.195312" xlink:href="#DejaVuSans-65"/>
      <use x="143.603516" xlink:href="#DejaVuSans-76"/>
      <use x="199.316406" xlink:href="#DejaVuSans-76"/>
      <use x="255.029297" xlink:href="#DejaVuSans-77"/>
      <use x="341.308594" xlink:href="#DejaVuSans-65"/>
      <use x="409.716797" xlink:href="#DejaVuSans-82"/>
      <use x="479.199219" xlink:href="#DejaVuSans-75"/>
      <use x="544.775391" xlink:href="#DejaVuSans-95"/>
      <use x="594.775391" xlink:href="#DejaVuSans-84"/>
      <use x="655.859375" xlink:href="#DejaVuSans-78"/>
      <use x="730.664062" xlink:href="#DejaVuSans-70"/>
      <use x="788.042969" xlink:href="#DejaVuSans-65"/>
      <use x="856.451172" xlink:href="#DejaVuSans-95"/>
      <use x="906.451172" xlink:href="#DejaVuSans-83"/>
      <use x="969.927734" xlink:href="#DejaVuSans-73"/>
      <use x="999.419922" xlink:href="#DejaVuSans-71"/>
      <use x="1076.910156" xlink:href="#DejaVuSans-78"/>
      <use x="1151.714844" xlink:href="#DejaVuSans-65"/>
      <use x="1220.123047" xlink:href="#DejaVuSans-76"/>
      <use x="1275.835938" xlink:href="#DejaVuSans-73"/>
      <use x="1305.328125" xlink:href="#DejaVuSans-78"/>
      <use x="1380.132812" xlink:href="#DejaVuSans-71"/>
      <use x="1457.623047" xlink:href="#DejaVuSans-95"/>
      <use x="1507.623047" xlink:href="#DejaVuSans-86"/>
      <use x="1576.03125" xlink:href="#DejaVuSans-73"/>
      <use x="1605.523438" xlink:href="#DejaVuSans-65"/>
      <use x="1673.931641" xlink:href="#DejaVuSans-95"/>
      <use x="1723.931641" xlink:href="#DejaVuSans-78"/>
      <use x="1798.736328" xlink:href="#DejaVuSans-70"/>
      <use x="1856.255859" xlink:href="#DejaVuSans-75"/>
      <use x="1921.832031" xlink:href="#DejaVuSans-66"/>
     </g>
    </g>
   </g>
   <g id="text_13">
    <g clip-path="url(#p0036f04b1e)">
     <!-- HALLMARK_INFLAMMATORY_RESPONSE -->
     <defs>
      <path d="M 39.40625 66.21875 
Q 28.65625 66.21875 22.328125 58.203125 
Q 16.015625 50.203125 16.015625 36.375 
Q 16.015625 22.609375 22.328125 14.59375 
Q 28.65625 6.59375 39.40625 6.59375 
Q 50.140625 6.59375 56.421875 14.59375 
Q 62.703125 22.609375 62.703125 36.375 
Q 62.703125 50.203125 56.421875 58.203125 
Q 50.140625 66.21875 39.40625 66.21875 
z
M 39.40625 74.21875 
Q 54.734375 74.21875 63.90625 63.9375 
Q 73.09375 53.65625 73.09375 36.375 
Q 73.09375 19.140625 63.90625 8.859375 
Q 54.734375 -1.421875 39.40625 -1.421875 
Q 24.03125 -1.421875 14.8125 8.828125 
Q 5.609375 19.09375 5.609375 36.375 
Q 5.609375 53.65625 14.8125 63.9375 
Q 24.03125 74.21875 39.40625 74.21875 
z
" id="DejaVuSans-79"/>
      <path d="M -0.203125 72.90625 
L 10.40625 72.90625 
L 30.609375 42.921875 
L 50.6875 72.90625 
L 61.28125 72.90625 
L 35.5 34.71875 
L 35.5 0 
L 25.59375 0 
L 25.59375 34.71875 
z
" id="DejaVuSans-89"/>
     </defs>
     <g transform="translate(-19.304024 50.717724)scale(0.11 -0.11)">
      <use xlink:href="#DejaVuSans-72"/>
      <use x="75.195312" xlink:href="#DejaVuSans-65"/>
      <use x="143.603516" xlink:href="#DejaVuSans-76"/>
      <use x="199.316406" xlink:href="#DejaVuSans-76"/>
      <use x="255.029297" xlink:href="#DejaVuSans-77"/>
      <use x="341.308594" xlink:href="#DejaVuSans-65"/>
      <use x="409.716797" xlink:href="#DejaVuSans-82"/>
      <use x="479.199219" xlink:href="#DejaVuSans-75"/>
      <use x="544.775391" xlink:href="#DejaVuSans-95"/>
      <use x="594.775391" xlink:href="#DejaVuSans-73"/>
      <use x="624.267578" xlink:href="#DejaVuSans-78"/>
      <use x="699.072266" xlink:href="#DejaVuSans-70"/>
      <use x="756.591797" xlink:href="#DejaVuSans-76"/>
      <use x="812.335938" xlink:href="#DejaVuSans-65"/>
      <use x="880.744141" xlink:href="#DejaVuSans-77"/>
      <use x="967.023438" xlink:href="#DejaVuSans-77"/>
      <use x="1053.302734" xlink:href="#DejaVuSans-65"/>
      <use x="1121.601562" xlink:href="#DejaVuSans-84"/>
      <use x="1182.685547" xlink:href="#DejaVuSans-79"/>
      <use x="1261.396484" xlink:href="#DejaVuSans-82"/>
      <use x="1330.785156" xlink:href="#DejaVuSans-89"/>
      <use x="1391.869141" xlink:href="#DejaVuSans-95"/>
      <use x="1441.869141" xlink:href="#DejaVuSans-82"/>
      <use x="1511.351562" xlink:href="#DejaVuSans-69"/>
      <use x="1574.535156" xlink:href="#DejaVuSans-83"/>
      <use x="1638.011719" xlink:href="#DejaVuSans-80"/>
      <use x="1698.314453" xlink:href="#DejaVuSans-79"/>
      <use x="1777.025391" xlink:href="#DejaVuSans-78"/>
      <use x="1851.830078" xlink:href="#DejaVuSans-83"/>
      <use x="1915.306641" xlink:href="#DejaVuSans-69"/>
     </g>
    </g>
   </g>
   <g id="text_14">
    <g clip-path="url(#p0036f04b1e)">
     <!-- HALLMARK_IL6_JAK_STAT3_SIGNALING -->
     <defs>
      <path d="M 33.015625 40.375 
Q 26.375 40.375 22.484375 35.828125 
Q 18.609375 31.296875 18.609375 23.390625 
Q 18.609375 15.53125 22.484375 10.953125 
Q 26.375 6.390625 33.015625 6.390625 
Q 39.65625 6.390625 43.53125 10.953125 
Q 47.40625 15.53125 47.40625 23.390625 
Q 47.40625 31.296875 43.53125 35.828125 
Q 39.65625 40.375 33.015625 40.375 
z
M 52.59375 71.296875 
L 52.59375 62.3125 
Q 48.875 64.0625 45.09375 64.984375 
Q 41.3125 65.921875 37.59375 65.921875 
Q 27.828125 65.921875 22.671875 59.328125 
Q 17.53125 52.734375 16.796875 39.40625 
Q 19.671875 43.65625 24.015625 45.921875 
Q 28.375 48.1875 33.59375 48.1875 
Q 44.578125 48.1875 50.953125 41.515625 
Q 57.328125 34.859375 57.328125 23.390625 
Q 57.328125 12.15625 50.6875 5.359375 
Q 44.046875 -1.421875 33.015625 -1.421875 
Q 20.359375 -1.421875 13.671875 8.265625 
Q 6.984375 17.96875 6.984375 36.375 
Q 6.984375 53.65625 15.1875 63.9375 
Q 23.390625 74.21875 37.203125 74.21875 
Q 40.921875 74.21875 44.703125 73.484375 
Q 48.484375 72.75 52.59375 71.296875 
z
" id="DejaVuSans-54"/>
      <path d="M 9.8125 72.90625 
L 19.671875 72.90625 
L 19.671875 5.078125 
Q 19.671875 -8.109375 14.671875 -14.0625 
Q 9.671875 -20.015625 -1.421875 -20.015625 
L -5.171875 -20.015625 
L -5.171875 -11.71875 
L -2.09375 -11.71875 
Q 4.4375 -11.71875 7.125 -8.046875 
Q 9.8125 -4.390625 9.8125 5.078125 
z
" id="DejaVuSans-74"/>
      <path d="M 40.578125 39.3125 
Q 47.65625 37.796875 51.625 33 
Q 55.609375 28.21875 55.609375 21.1875 
Q 55.609375 10.40625 48.1875 4.484375 
Q 40.765625 -1.421875 27.09375 -1.421875 
Q 22.515625 -1.421875 17.65625 -0.515625 
Q 12.796875 0.390625 7.625 2.203125 
L 7.625 11.71875 
Q 11.71875 9.328125 16.59375 8.109375 
Q 21.484375 6.890625 26.8125 6.890625 
Q 36.078125 6.890625 40.9375 10.546875 
Q 45.796875 14.203125 45.796875 21.1875 
Q 45.796875 27.640625 41.28125 31.265625 
Q 36.765625 34.90625 28.71875 34.90625 
L 20.21875 34.90625 
L 20.21875 43.015625 
L 29.109375 43.015625 
Q 36.375 43.015625 40.234375 45.921875 
Q 44.09375 48.828125 44.09375 54.296875 
Q 44.09375 59.90625 40.109375 62.90625 
Q 36.140625 65.921875 28.71875 65.921875 
Q 24.65625 65.921875 20.015625 65.03125 
Q 15.375 64.15625 9.8125 62.3125 
L 9.8125 71.09375 
Q 15.4375 72.65625 20.34375 73.4375 
Q 25.25 74.21875 29.59375 74.21875 
Q 40.828125 74.21875 47.359375 69.109375 
Q 53.90625 64.015625 53.90625 55.328125 
Q 53.90625 49.265625 50.4375 45.09375 
Q 46.96875 40.921875 40.578125 39.3125 
z
" id="DejaVuSans-51"/>
     </defs>
     <g transform="translate(-5.522186 60.59201)scale(0.11 -0.11)">
      <use xlink:href="#DejaVuSans-72"/>
      <use x="75.195312" xlink:href="#DejaVuSans-65"/>
      <use x="143.603516" xlink:href="#DejaVuSans-76"/>
      <use x="199.316406" xlink:href="#DejaVuSans-76"/>
      <use x="255.029297" xlink:href="#DejaVuSans-77"/>
      <use x="341.308594" xlink:href="#DejaVuSans-65"/>
      <use x="409.716797" xlink:href="#DejaVuSans-82"/>
      <use x="479.199219" xlink:href="#DejaVuSans-75"/>
      <use x="544.775391" xlink:href="#DejaVuSans-95"/>
      <use x="594.775391" xlink:href="#DejaVuSans-73"/>
      <use x="624.267578" xlink:href="#DejaVuSans-76"/>
      <use x="679.980469" xlink:href="#DejaVuSans-54"/>
      <use x="743.603516" xlink:href="#DejaVuSans-95"/>
      <use x="793.603516" xlink:href="#DejaVuSans-74"/>
      <use x="823.080078" xlink:href="#DejaVuSans-65"/>
      <use x="891.488281" xlink:href="#DejaVuSans-75"/>
      <use x="957.064453" xlink:href="#DejaVuSans-95"/>
      <use x="1007.064453" xlink:href="#DejaVuSans-83"/>
      <use x="1070.541016" xlink:href="#DejaVuSans-84"/>
      <use x="1131.515625" xlink:href="#DejaVuSans-65"/>
      <use x="1199.814453" xlink:href="#DejaVuSans-84"/>
      <use x="1260.898438" xlink:href="#DejaVuSans-51"/>
      <use x="1324.521484" xlink:href="#DejaVuSans-95"/>
      <use x="1374.521484" xlink:href="#DejaVuSans-83"/>
      <use x="1437.998047" xlink:href="#DejaVuSans-73"/>
      <use x="1467.490234" xlink:href="#DejaVuSans-71"/>
      <use x="1544.980469" xlink:href="#DejaVuSans-78"/>
      <use x="1619.785156" xlink:href="#DejaVuSans-65"/>
      <use x="1688.193359" xlink:href="#DejaVuSans-76"/>
      <use x="1743.90625" xlink:href="#DejaVuSans-73"/>
      <use x="1773.398438" xlink:href="#DejaVuSans-78"/>
      <use x="1848.203125" xlink:href="#DejaVuSans-71"/>
     </g>
    </g>
   </g>
   <g id="text_15">
    <g clip-path="url(#p0036f04b1e)">
     <!-- HALLMARK_ALLOGRAFT_REJECTION -->
     <defs>
      <path d="M 64.40625 67.28125 
L 64.40625 56.890625 
Q 59.421875 61.53125 53.78125 63.8125 
Q 48.140625 66.109375 41.796875 66.109375 
Q 29.296875 66.109375 22.65625 58.46875 
Q 16.015625 50.828125 16.015625 36.375 
Q 16.015625 21.96875 22.65625 14.328125 
Q 29.296875 6.6875 41.796875 6.6875 
Q 48.140625 6.6875 53.78125 8.984375 
Q 59.421875 11.28125 64.40625 15.921875 
L 64.40625 5.609375 
Q 59.234375 2.09375 53.4375 0.328125 
Q 47.65625 -1.421875 41.21875 -1.421875 
Q 24.65625 -1.421875 15.125 8.703125 
Q 5.609375 18.84375 5.609375 36.375 
Q 5.609375 53.953125 15.125 64.078125 
Q 24.65625 74.21875 41.21875 74.21875 
Q 47.75 74.21875 53.53125 72.484375 
Q 59.328125 70.75 64.40625 67.28125 
z
" id="DejaVuSans-67"/>
     </defs>
     <g transform="translate(28.850381 55.654867)scale(0.11 -0.11)">
      <use xlink:href="#DejaVuSans-72"/>
      <use x="75.195312" xlink:href="#DejaVuSans-65"/>
      <use x="143.603516" xlink:href="#DejaVuSans-76"/>
      <use x="199.316406" xlink:href="#DejaVuSans-76"/>
      <use x="255.029297" xlink:href="#DejaVuSans-77"/>
      <use x="341.308594" xlink:href="#DejaVuSans-65"/>
      <use x="409.716797" xlink:href="#DejaVuSans-82"/>
      <use x="479.199219" xlink:href="#DejaVuSans-75"/>
      <use x="544.775391" xlink:href="#DejaVuSans-95"/>
      <use x="594.775391" xlink:href="#DejaVuSans-65"/>
      <use x="663.183594" xlink:href="#DejaVuSans-76"/>
      <use x="718.896484" xlink:href="#DejaVuSans-76"/>
      <use x="774.5625" xlink:href="#DejaVuSans-79"/>
      <use x="853.273438" xlink:href="#DejaVuSans-71"/>
      <use x="930.763672" xlink:href="#DejaVuSans-82"/>
      <use x="1000.183594" xlink:href="#DejaVuSans-65"/>
      <use x="1068.591797" xlink:href="#DejaVuSans-70"/>
      <use x="1126.095703" xlink:href="#DejaVuSans-84"/>
      <use x="1187.179688" xlink:href="#DejaVuSans-95"/>
      <use x="1237.179688" xlink:href="#DejaVuSans-82"/>
      <use x="1306.662109" xlink:href="#DejaVuSans-69"/>
      <use x="1369.845703" xlink:href="#DejaVuSans-74"/>
      <use x="1399.337891" xlink:href="#DejaVuSans-69"/>
      <use x="1462.521484" xlink:href="#DejaVuSans-67"/>
      <use x="1532.345703" xlink:href="#DejaVuSans-84"/>
      <use x="1593.429688" xlink:href="#DejaVuSans-73"/>
      <use x="1622.921875" xlink:href="#DejaVuSans-79"/>
      <use x="1701.632812" xlink:href="#DejaVuSans-78"/>
     </g>
    </g>
   </g>
   <g id="text_16">
    <g clip-path="url(#p0036f04b1e)">
     <!-- HALLMARK_G2M_CHECKPOINT -->
     <g transform="translate(77.396312 45.780581)scale(0.11 -0.11)">
      <use xlink:href="#DejaVuSans-72"/>
      <use x="75.195312" xlink:href="#DejaVuSans-65"/>
      <use x="143.603516" xlink:href="#DejaVuSans-76"/>
      <use x="199.316406" xlink:href="#DejaVuSans-76"/>
      <use x="255.029297" xlink:href="#DejaVuSans-77"/>
      <use x="341.308594" xlink:href="#DejaVuSans-65"/>
      <use x="409.716797" xlink:href="#DejaVuSans-82"/>
      <use x="479.199219" xlink:href="#DejaVuSans-75"/>
      <use x="544.775391" xlink:href="#DejaVuSans-95"/>
      <use x="594.775391" xlink:href="#DejaVuSans-71"/>
      <use x="672.265625" xlink:href="#DejaVuSans-50"/>
      <use x="735.888672" xlink:href="#DejaVuSans-77"/>
      <use x="822.167969" xlink:href="#DejaVuSans-95"/>
      <use x="872.167969" xlink:href="#DejaVuSans-67"/>
      <use x="941.992188" xlink:href="#DejaVuSans-72"/>
      <use x="1017.1875" xlink:href="#DejaVuSans-69"/>
      <use x="1080.371094" xlink:href="#DejaVuSans-67"/>
      <use x="1150.195312" xlink:href="#DejaVuSans-75"/>
      <use x="1215.771484" xlink:href="#DejaVuSans-80"/>
      <use x="1276.074219" xlink:href="#DejaVuSans-79"/>
      <use x="1354.785156" xlink:href="#DejaVuSans-73"/>
      <use x="1384.277344" xlink:href="#DejaVuSans-78"/>
      <use x="1459.082031" xlink:href="#DejaVuSans-84"/>
     </g>
    </g>
   </g>
  </g>
  <g id="text_17">
   <!-- GSVA pathway statistics vs ranking -->
   <defs>
    <path d="M 18.109375 8.203125 
L 18.109375 -20.796875 
L 9.078125 -20.796875 
L 9.078125 54.6875 
L 18.109375 54.6875 
L 18.109375 46.390625 
Q 20.953125 51.265625 25.265625 53.625 
Q 29.59375 56 35.59375 56 
Q 45.5625 56 51.78125 48.09375 
Q 58.015625 40.1875 58.015625 27.296875 
Q 58.015625 14.40625 51.78125 6.484375 
Q 45.5625 -1.421875 35.59375 -1.421875 
Q 29.59375 -1.421875 25.265625 0.953125 
Q 20.953125 3.328125 18.109375 8.203125 
z
M 48.6875 27.296875 
Q 48.6875 37.203125 44.609375 42.84375 
Q 40.53125 48.484375 33.40625 48.484375 
Q 26.265625 48.484375 22.1875 42.84375 
Q 18.109375 37.203125 18.109375 27.296875 
Q 18.109375 17.390625 22.1875 11.75 
Q 26.265625 6.109375 33.40625 6.109375 
Q 40.53125 6.109375 44.609375 11.75 
Q 48.6875 17.390625 48.6875 27.296875 
z
" id="DejaVuSans-112"/>
    <path d="M 4.203125 54.6875 
L 13.1875 54.6875 
L 24.421875 12.015625 
L 35.59375 54.6875 
L 46.1875 54.6875 
L 57.421875 12.015625 
L 68.609375 54.6875 
L 77.59375 54.6875 
L 63.28125 0 
L 52.6875 0 
L 40.921875 44.828125 
L 29.109375 0 
L 18.5 0 
z
" id="DejaVuSans-119"/>
    <path d="M 32.171875 -5.078125 
Q 28.375 -14.84375 24.75 -17.8125 
Q 21.140625 -20.796875 15.09375 -20.796875 
L 7.90625 -20.796875 
L 7.90625 -13.28125 
L 13.1875 -13.28125 
Q 16.890625 -13.28125 18.9375 -11.515625 
Q 21 -9.765625 23.484375 -3.21875 
L 25.09375 0.875 
L 2.984375 54.6875 
L 12.5 54.6875 
L 29.59375 11.921875 
L 46.6875 54.6875 
L 56.203125 54.6875 
z
" id="DejaVuSans-121"/>
    <path d="M 2.984375 54.6875 
L 12.5 54.6875 
L 29.59375 8.796875 
L 46.6875 54.6875 
L 56.203125 54.6875 
L 35.6875 0 
L 23.484375 0 
z
" id="DejaVuSans-118"/>
   </defs>
   <g transform="translate(90.657031 11.397656)scale(0.15 -0.15)">
    <use xlink:href="#DejaVuSans-71"/>
    <use x="77.490234" xlink:href="#DejaVuSans-83"/>
    <use x="140.966797" xlink:href="#DejaVuSans-86"/>
    <use x="209.28125" xlink:href="#DejaVuSans-65"/>
    <use x="277.689453" xlink:href="#DejaVuSans-32"/>
    <use x="309.476562" xlink:href="#DejaVuSans-112"/>
    <use x="372.953125" xlink:href="#DejaVuSans-97"/>
    <use x="434.232422" xlink:href="#DejaVuSans-116"/>
    <use x="473.441406" xlink:href="#DejaVuSans-104"/>
    <use x="536.820312" xlink:href="#DejaVuSans-119"/>
    <use x="618.607422" xlink:href="#DejaVuSans-97"/>
    <use x="679.886719" xlink:href="#DejaVuSans-121"/>
    <use x="739.066406" xlink:href="#DejaVuSans-32"/>
    <use x="770.853516" xlink:href="#DejaVuSans-115"/>
    <use x="822.953125" xlink:href="#DejaVuSans-116"/>
    <use x="862.162109" xlink:href="#DejaVuSans-97"/>
    <use x="923.441406" xlink:href="#DejaVuSans-116"/>
    <use x="962.650391" xlink:href="#DejaVuSans-105"/>
    <use x="990.433594" xlink:href="#DejaVuSans-115"/>
    <use x="1042.533203" xlink:href="#DejaVuSans-116"/>
    <use x="1081.742188" xlink:href="#DejaVuSans-105"/>
    <use x="1109.525391" xlink:href="#DejaVuSans-99"/>
    <use x="1164.505859" xlink:href="#DejaVuSans-115"/>
    <use x="1216.605469" xlink:href="#DejaVuSans-32"/>
    <use x="1248.392578" xlink:href="#DejaVuSans-118"/>
    <use x="1307.572266" xlink:href="#DejaVuSans-115"/>
    <use x="1359.671875" xlink:href="#DejaVuSans-32"/>
    <use x="1391.458984" xlink:href="#DejaVuSans-114"/>
    <use x="1432.572266" xlink:href="#DejaVuSans-97"/>
    <use x="1493.851562" xlink:href="#DejaVuSans-110"/>
    <use x="1557.230469" xlink:href="#DejaVuSans-107"/>
    <use x="1615.140625" xlink:href="#DejaVuSans-105"/>
    <use x="1642.923828" xlink:href="#DejaVuSans-110"/>
    <use x="1706.302734" xlink:href="#DejaVuSans-103"/>
   </g>
  </g>
 </g>
 <defs>
  <clipPath id="p0036f04b1e">
   <rect height="266.112" width="357.12" x="50.585938" y="20.583376"/>
  </clipPath>
 </defs>
</svg>
