<?xml version="1.0" encoding="utf-8" standalone="no"?>
<!DOCTYPE svg PUBLIC "-//W3C//DTD SVG 1.1//EN"
  "http://www.w3.org/Graphics/SVG/1.1/DTD/svg11.dtd">
<!-- Created with matplotlib (https://matplotlib.org/) -->
<svg height="322.19272pt" version="1.1" viewBox="0 0 406.642188 322.19272" width="406.642188pt" xmlns="http://www.w3.org/2000/svg" xmlns:xlink="http://www.w3.org/1999/xlink">
 <defs>
  <style type="text/css">
*{stroke-linecap:butt;stroke-linejoin:round;}
  </style>
 </defs>
 <g id="figure_1">
  <g id="patch_1">
   <path d="M 0 322.19272
L 406.642188 322.19272
L 406.642188 0
L 0 0
z
" style="fill:#ffffff;stroke:#ffffff;stroke-linejoin:miter;"/>
  </g>
  <g id="axes_1">
   <g id="patch_2">
    <path d="M 46.772188 286.711782
L 403.892188 286.711782
L 403.892188 20.599782
L 46.772188 20.599782
z
" style="fill:none;"/>
   </g>
   <g id="matplotlib.axis_1">
    <g id="xtick_1">
     <g id="line2d_1">
      <path clip-path="url(#pdc44cfbb91)" d="M 63.004915 286.711782
L 63.004915 20.599782
" style="fill:none;stroke:#e5e5e5;stroke-width:0.8;"/>
     </g>
     <g id="line2d_2">
      <path d="M 63.004915 286.711782
" style="fill:none;stroke:#000000;stroke-width:1.5;"/>
      <defs>
       <path d="M 0 0
L 0 2.75
" id="m1ebae4b2e0" style="stroke:#000000;"/>
      </defs>
      <g>
       <use style="stroke:#000000;" x="63.004915" xlink:href="#m1ebae4b2e0" y="286.711782"/>
      </g>
     </g>
     <g id="text_1">
      <!-- 0 -->
      <defs>
       <path d="M 31.78125 66.40625
Q 24.171875 66.40625 20.328125 58.90625
Q 16.5 51.421875 16.5 36.375
Q 16.5 21.390625 20.328125 13.890625
Q 24.171875 6.390625 31.78125 6.390625
Q 39.453125 6.390625 43.28125 13.890625
Q 47.125 21.390625 47.125 36.375
Q 47.125 51.421875 43.28125 58.90625
Q 39.453125 66.40625 31.78125 66.40625
z
M 31.78125 74.21875
Q 44.046875 74.21875 50.515625 64.515625
Q 56.984375 54.828125 56.984375 36.375
Q 56.984375 17.96875 50.515625 8.265625
Q 44.046875 -1.421875 31.78125 -1.421875
Q 19.53125 -1.421875 13.0625 8.265625
Q 6.59375 17.96875 6.59375 36.375
Q 6.59375 54.828125 13.0625 64.515625
Q 19.53125 74.21875 31.78125 74.21875
z
" id="DejaVuSans-48"/>
      </defs>
      <g style="fill:#4d4d4d;" transform="translate(59.187415 300.779907)scale(0.12 -0.12)">
       <use xlink:href="#DejaVuSans-48"/>
      </g>
     </g>
    </g>
    <g id="xtick_2">
     <g id="line2d_3">
      <path clip-path="url(#pdc44cfbb91)" d="M 144.168551 286.711782
L 144.168551 20.599782
" style="fill:none;stroke:#e5e5e5;stroke-width:0.8;"/>
     </g>
     <g id="line2d_4">
      <path d="M 144.168551 286.711782
" style="fill:none;stroke:#000000;stroke-width:1.5;"/>
      <g>
       <use style="stroke:#000000;" x="144.168551" xlink:href="#m1ebae4b2e0" y="286.711782"/>
      </g>
     </g>
     <g id="text_2">
      <!-- 25 -->
      <defs>
       <path d="M 19.1875 8.296875
L 53.609375 8.296875
L 53.609375 0
L 7.328125 0
L 7.328125 8.296875
Q 12.9375 14.109375 22.625 23.890625
Q 32.328125 33.6875 34.8125 36.53125
Q 39.546875 41.84375 41.421875 45.53125
Q 43.3125 49.21875 43.3125 52.78125
Q 43.3125 58.59375 39.234375 62.25
Q 35.15625 65.921875 28.609375 65.921875
Q 23.96875 65.921875 18.8125 64.3125
Q 13.671875 62.703125 7.8125 59.421875
L 7.8125 69.390625
Q 13.765625 71.78125 18.9375 73
Q 24.125 74.21875 28.421875 74.21875
Q 39.75 74.21875 46.484375 68.546875
Q 53.21875 62.890625 53.21875 53.421875
Q 53.21875 48.921875 51.53125 44.890625
Q 49.859375 40.875 45.40625 35.40625
Q 44.1875 33.984375 37.640625 27.21875
Q 31.109375 20.453125 19.1875 8.296875
z
" id="DejaVuSans-50"/>
       <path d="M 10.796875 72.90625
L 49.515625 72.90625
L 49.515625 64.59375
L 19.828125 64.59375
L 19.828125 46.734375
Q 21.96875 47.46875 24.109375 47.828125
Q 26.265625 48.1875 28.421875 48.1875
Q 40.625 48.1875 47.75 41.5
Q 54.890625 34.8125 54.890625 23.390625
Q 54.890625 11.625 47.5625 5.09375
Q 40.234375 -1.421875 26.90625 -1.421875
Q 22.3125 -1.421875 17.546875 -0.640625
Q 12.796875 0.140625 7.71875 1.703125
L 7.71875 11.625
Q 12.109375 9.234375 16.796875 8.0625
Q 21.484375 6.890625 26.703125 6.890625
Q 35.15625 6.890625 40.078125 11.328125
Q 45.015625 15.765625 45.015625 23.390625
Q 45.015625 31 40.078125 35.4375
Q 35.15625 39.890625 26.703125 39.890625
Q 22.75 39.890625 18.8125 39.015625
Q 14.890625 38.140625 10.796875 36.28125
z
" id="DejaVuSans-53"/>
      </defs>
      <g style="fill:#4d4d4d;" transform="translate(136.533551 300.779907)scale(0.12 -0.12)">
       <use xlink:href="#DejaVuSans-50"/>
       <use x="63.623047" xlink:href="#DejaVuSans-53"/>
      </g>
     </g>
    </g>
    <g id="xtick_3">
     <g id="line2d_5">
      <path clip-path="url(#pdc44cfbb91)" d="M 225.332188 286.711782
L 225.332188 20.599782
" style="fill:none;stroke:#e5e5e5;stroke-width:0.8;"/>
     </g>
     <g id="line2d_6">
      <path d="M 225.332188 286.711782
" style="fill:none;stroke:#000000;stroke-width:1.5;"/>
      <g>
       <use style="stroke:#000000;" x="225.332188" xlink:href="#m1ebae4b2e0" y="286.711782"/>
      </g>
     </g>
     <g id="text_3">
      <!-- 50 -->
      <g style="fill:#4d4d4d;" transform="translate(217.697188 300.779907)scale(0.12 -0.12)">
       <use xlink:href="#DejaVuSans-53"/>
       <use x="63.623047" xlink:href="#DejaVuSans-48"/>
      </g>
     </g>
    </g>
    <g id="xtick_4">
     <g id="line2d_7">
      <path clip-path="url(#pdc44cfbb91)" d="M 306.495824 286.711782
L 306.495824 20.599782
" style="fill:none;stroke:#e5e5e5;stroke-width:0.8;"/>
     </g>
     <g id="line2d_8">
      <path d="M 306.495824 286.711782
" style="fill:none;stroke:#000000;stroke-width:1.5;"/>
      <g>
       <use style="stroke:#000000;" x="306.495824" xlink:href="#m1ebae4b2e0" y="286.711782"/>
      </g>
     </g>
     <g id="text_4">
      <!-- 75 -->
      <defs>
       <path d="M 8.203125 72.90625
L 55.078125 72.90625
L 55.078125 68.703125
L 28.609375 0
L 18.3125 0
L 43.21875 64.59375
L 8.203125 64.59375
z
" id="DejaVuSans-55"/>
      </defs>
      <g style="fill:#4d4d4d;" transform="translate(298.860824 300.779907)scale(0.12 -0.12)">
       <use xlink:href="#DejaVuSans-55"/>
       <use x="63.623047" xlink:href="#DejaVuSans-53"/>
      </g>
     </g>
    </g>
    <g id="xtick_5">
     <g id="line2d_9">
      <path clip-path="url(#pdc44cfbb91)" d="M 387.65946 286.711782
L 387.65946 20.599782
" style="fill:none;stroke:#e5e5e5;stroke-width:0.8;"/>
     </g>
     <g id="line2d_10">
      <path d="M 387.65946 286.711782
" style="fill:none;stroke:#000000;stroke-width:1.5;"/>
      <g>
       <use style="stroke:#000000;" x="387.65946" xlink:href="#m1ebae4b2e0" y="286.711782"/>
      </g>
     </g>
     <g id="text_5">
      <!-- 100 -->
      <defs>
       <path d="M 12.40625 8.296875
L 28.515625 8.296875
L 28.515625 63.921875
L 10.984375 60.40625
L 10.984375 69.390625
L 28.421875 72.90625
L 38.28125 72.90625
L 38.28125 8.296875
L 54.390625 8.296875
L 54.390625 0
L 12.40625 0
z
" id="DejaVuSans-49"/>
      </defs>
      <g style="fill:#4d4d4d;" transform="translate(376.20696 300.779907)scale(0.12 -0.12)">
       <use xlink:href="#DejaVuSans-49"/>
       <use x="63.623047" xlink:href="#DejaVuSans-48"/>
       <use x="127.246094" xlink:href="#DejaVuSans-48"/>
      </g>
     </g>
    </g>
    <g id="xtick_6">
     <g id="line2d_11">
      <path clip-path="url(#pdc44cfbb91)" d="M 103.586733 286.711782
L 103.586733 20.599782
" style="fill:none;stroke:#fafafa;"/>
     </g>
     <g id="line2d_12">
      <path d="M 103.586733 286.711782
" style="fill:none;stroke:#000000;stroke-width:1.5;"/>
     </g>
    </g>
    <g id="xtick_7">
     <g id="line2d_13">
      <path clip-path="url(#pdc44cfbb91)" d="M 184.750369 286.711782
L 184.750369 20.599782
" style="fill:none;stroke:#fafafa;"/>
     </g>
     <g id="line2d_14">
      <path d="M 184.750369 286.711782
" style="fill:none;stroke:#000000;stroke-width:1.5;"/>
     </g>
    </g>
    <g id="xtick_8">
     <g id="line2d_15">
      <path clip-path="url(#pdc44cfbb91)" d="M 265.914006 286.711782
L 265.914006 20.599782
" style="fill:none;stroke:#fafafa;"/>
     </g>
     <g id="line2d_16">
      <path d="M 265.914006 286.711782
" style="fill:none;stroke:#000000;stroke-width:1.5;"/>
     </g>
    </g>
    <g id="xtick_9">
     <g id="line2d_17">
      <path clip-path="url(#pdc44cfbb91)" d="M 347.077642 286.711782
L 347.077642 20.599782
" style="fill:none;stroke:#fafafa;"/>
     </g>
     <g id="line2d_18">
      <path d="M 347.077642 286.711782
" style="fill:none;stroke:#000000;stroke-width:1.5;"/>
     </g>
    </g>
    <g id="text_6">
     <!-- GSVA pathway ranking -->
     <defs>
      <path d="M 59.515625 10.40625
L 59.515625 29.984375
L 43.40625 29.984375
L 43.40625 38.09375
L 69.28125 38.09375
L 69.28125 6.78125
Q 63.578125 2.734375 56.6875 0.65625
Q 49.8125 -1.421875 42 -1.421875
Q 24.90625 -1.421875 15.25 8.5625
Q 5.609375 18.5625 5.609375 36.375
Q 5.609375 54.25 15.25 64.234375
Q 24.90625 74.21875 42 74.21875
Q 49.125 74.21875 55.546875 72.453125
Q 61.96875 70.703125 67.390625 67.28125
L 67.390625 56.78125
Q 61.921875 61.421875 55.765625 63.765625
Q 49.609375 66.109375 42.828125 66.109375
Q 29.4375 66.109375 22.71875 58.640625
Q 16.015625 51.171875 16.015625 36.375
Q 16.015625 21.625 22.71875 14.15625
Q 29.4375 6.6875 42.828125 6.6875
Q 48.046875 6.6875 52.140625 7.59375
Q 56.25 8.5 59.515625 10.40625
z
" id="DejaVuSans-71"/>
      <path d="M 53.515625 70.515625
L 53.515625 60.890625
Q 47.90625 63.578125 42.921875 64.890625
Q 37.9375 66.21875 33.296875 66.21875
Q 25.25 66.21875 20.875 63.09375
Q 16.5 59.96875 16.5 54.203125
Q 16.5 49.359375 19.40625 46.890625
Q 22.3125 44.4375 30.421875 42.921875
L 36.375 41.703125
Q 47.40625 39.59375 52.65625 34.296875
Q 57.90625 29 57.90625 20.125
Q 57.90625 9.515625 50.796875 4.046875
Q 43.703125 -1.421875 29.984375 -1.421875
Q 24.8125 -1.421875 18.96875 -0.25
Q 13.140625 0.921875 6.890625 3.21875
L 6.890625 13.375
Q 12.890625 10.015625 18.65625 8.296875
Q 24.421875 6.59375 29.984375 6.59375
Q 38.421875 6.59375 43.015625 9.90625
Q 47.609375 13.234375 47.609375 19.390625
Q 47.609375 24.75 44.3125 27.78125
Q 41.015625 30.8125 33.5 32.328125
L 27.484375 33.5
Q 16.453125 35.6875 11.515625 40.375
Q 6.59375 45.0625 6.59375 53.421875
Q 6.59375 63.09375 13.40625 68.65625
Q 20.21875 74.21875 32.171875 74.21875
Q 37.3125 74.21875 42.625 73.28125
Q 47.953125 72.359375 53.515625 70.515625
z
" id="DejaVuSans-83"/>
      <path d="M 28.609375 0
L 0.78125 72.90625
L 11.078125 72.90625
L 34.1875 11.53125
L 57.328125 72.90625
L 67.578125 72.90625
L 39.796875 0
z
" id="DejaVuSans-86"/>
      <path d="M 34.1875 63.1875
L 20.796875 26.90625
L 47.609375 26.90625
z
M 28.609375 72.90625
L 39.796875 72.90625
L 67.578125 0
L 57.328125 0
L 50.6875 18.703125
L 17.828125 18.703125
L 11.1875 0
L 0.78125 0
z
" id="DejaVuSans-65"/>
      <path id="DejaVuSans-32"/>
      <path d="M 18.109375 8.203125
L 18.109375 -20.796875
L 9.078125 -20.796875
L 9.078125 54.6875
L 18.109375 54.6875
L 18.109375 46.390625
Q 20.953125 51.265625 25.265625 53.625
Q 29.59375 56 35.59375 56
Q 45.5625 56 51.78125 48.09375
Q 58.015625 40.1875 58.015625 27.296875
Q 58.015625 14.40625 51.78125 6.484375
Q 45.5625 -1.421875 35.59375 -1.421875
Q 29.59375 -1.421875 25.265625 0.953125
Q 20.953125 3.328125 18.109375 8.203125
z
M 48.6875 27.296875
Q 48.6875 37.203125 44.609375 42.84375
Q 40.53125 48.484375 33.40625 48.484375
Q 26.265625 48.484375 22.1875 42.84375
Q 18.109375 37.203125 18.109375 27.296875
Q 18.109375 17.390625 22.1875 11.75
Q 26.265625 6.109375 33.40625 6.109375
Q 40.53125 6.109375 44.609375 11.75
Q 48.6875 17.390625 48.6875 27.296875
z
" id="DejaVuSans-112"/>
      <path d="M 34.28125 27.484375
Q 23.390625 27.484375 19.1875 25
Q 14.984375 22.515625 14.984375 16.5
Q 14.984375 11.71875 18.140625 8.90625
Q 21.296875 6.109375 26.703125 6.109375
Q 34.1875 6.109375 38.703125 11.40625
Q 43.21875 16.703125 43.21875 25.484375
L 43.21875 27.484375
z
M 52.203125 31.203125
L 52.203125 0
L 43.21875 0
L 43.21875 8.296875
Q 40.140625 3.328125 35.546875 0.953125
Q 30.953125 -1.421875 24.3125 -1.421875
Q 15.921875 -1.421875 10.953125 3.296875
Q 6 8.015625 6 15.921875
Q 6 25.140625 12.171875 29.828125
Q 18.359375 34.515625 30.609375 34.515625
L 43.21875 34.515625
L 43.21875 35.40625
Q 43.21875 41.609375 39.140625 45
Q 35.0625 48.390625 27.6875 48.390625
Q 23 48.390625 18.546875 47.265625
Q 14.109375 46.140625 10.015625 43.890625
L 10.015625 52.203125
Q 14.9375 54.109375 19.578125 55.046875
Q 24.21875 56 28.609375 56
Q 40.484375 56 46.34375 49.84375
Q 52.203125 43.703125 52.203125 31.203125
z
" id="DejaVuSans-97"/>
      <path d="M 18.3125 70.21875
L 18.3125 54.6875
L 36.8125 54.6875
L 36.8125 47.703125
L 18.3125 47.703125
L 18.3125 18.015625
Q 18.3125 11.328125 20.140625 9.421875
Q 21.96875 7.515625 27.59375 7.515625
L 36.8125 7.515625
L 36.8125 0
L 27.59375 0
Q 17.1875 0 13.234375 3.875
Q 9.28125 7.765625 9.28125 18.015625
L 9.28125 47.703125
L 2.6875 47.703125
L 2.6875 54.6875
L 9.28125 54.6875
L 9.28125 70.21875
z
" id="DejaVuSans-116"/>
      <path d="M 54.890625 33.015625
L 54.890625 0
L 45.90625 0
L 45.90625 32.71875
Q 45.90625 40.484375 42.875 44.328125
Q 39.84375 48.1875 33.796875 48.1875
Q 26.515625 48.1875 22.3125 43.546875
Q 18.109375 38.921875 18.109375 30.90625
L 18.109375 0
L 9.078125 0
L 9.078125 75.984375
L 18.109375 75.984375
L 18.109375 46.1875
Q 21.34375 51.125 25.703125 53.5625
Q 30.078125 56 35.796875 56
Q 45.21875 56 50.046875 50.171875
Q 54.890625 44.34375 54.890625 33.015625
z
" id="DejaVuSans-104"/>
      <path d="M 4.203125 54.6875
L 13.1875 54.6875
L 24.421875 12.015625
L 35.59375 54.6875
L 46.1875 54.6875
L 57.421875 12.015625
L 68.609375 54.6875
L 77.59375 54.6875
L 63.28125 0
L 52.6875 0
L 40.921875 44.828125
L 29.109375 0
L 18.5 0
z
" id="DejaVuSans-119"/>
      <path d="M 32.171875 -5.078125
Q 28.375 -14.84375 24.75 -17.8125
Q 21.140625 -20.796875 15.09375 -20.796875
L 7.90625 -20.796875
L 7.90625 -13.28125
L 13.1875 -13.28125
Q 16.890625 -13.28125 18.9375 -11.515625
Q 21 -9.765625 23.484375 -3.21875
L 25.09375 0.875
L 2.984375 54.6875
L 12.5 54.6875
L 29.59375 11.921875
L 46.6875 54.6875
L 56.203125 54.6875
z
" id="DejaVuSans-121"/>
      <path d="M 41.109375 46.296875
Q 39.59375 47.171875 37.8125 47.578125
Q 36.03125 48 33.890625 48
Q 26.265625 48 22.1875 43.046875
Q 18.109375 38.09375 18.109375 28.8125
L 18.109375 0
L 9.078125 0
L 9.078125 54.6875
L 18.109375 54.6875
L 18.109375 46.1875
Q 20.953125 51.171875 25.484375 53.578125
Q 30.03125 56 36.53125 56
Q 37.453125 56 38.578125 55.875
Q 39.703125 55.765625 41.0625 55.515625
z
" id="DejaVuSans-114"/>
      <path d="M 54.890625 33.015625
L 54.890625 0
L 45.90625 0
L 45.90625 32.71875
Q 45.90625 40.484375 42.875 44.328125
Q 39.84375 48.1875 33.796875 48.1875
Q 26.515625 48.1875 22.3125 43.546875
Q 18.109375 38.921875 18.109375 30.90625
L 18.109375 0
L 9.078125 0
L 9.078125 54.6875
L 18.109375 54.6875
L 18.109375 46.1875
Q 21.34375 51.125 25.703125 53.5625
Q 30.078125 56 35.796875 56
Q 45.21875 56 50.046875 50.171875
Q 54.890625 44.34375 54.890625 33.015625
z
" id="DejaVuSans-110"/>
      <path d="M 9.078125 75.984375
L 18.109375 75.984375
L 18.109375 31.109375
L 44.921875 54.6875
L 56.390625 54.6875
L 27.390625 29.109375
L 57.625 0
L 45.90625 0
L 18.109375 26.703125
L 18.109375 0
L 9.078125 0
z
" id="DejaVuSans-107"/>
      <path d="M 9.421875 54.6875
L 18.40625 54.6875
L 18.40625 0
L 9.421875 0
z
M 9.421875 75.984375
L 18.40625 75.984375
L 18.40625 64.59375
L 9.421875 64.59375
z
" id="DejaVuSans-105"/>
      <path d="M 45.40625 27.984375
Q 45.40625 37.75 41.375 43.109375
Q 37.359375 48.484375 30.078125 48.484375
Q 22.859375 48.484375 18.828125 43.109375
Q 14.796875 37.75 14.796875 27.984375
Q 14.796875 18.265625 18.828125 12.890625
Q 22.859375 7.515625 30.078125 7.515625
Q 37.359375 7.515625 41.375 12.890625
Q 45.40625 18.265625 45.40625 27.984375
z
M 54.390625 6.78125
Q 54.390625 -7.171875 48.1875 -13.984375
Q 42 -20.796875 29.203125 -20.796875
Q 24.46875 -20.796875 20.265625 -20.09375
Q 16.0625 -19.390625 12.109375 -17.921875
L 12.109375 -9.1875
Q 16.0625 -11.328125 19.921875 -12.34375
Q 23.78125 -13.375 27.78125 -13.375
Q 36.625 -13.375 41.015625 -8.765625
Q 45.40625 -4.15625 45.40625 5.171875
L 45.40625 9.625
Q 42.625 4.78125 38.28125 2.390625
Q 33.9375 0 27.875 0
Q 17.828125 0 11.671875 7.65625
Q 5.515625 15.328125 5.515625 27.984375
Q 5.515625 40.671875 11.671875 48.328125
Q 17.828125 56 27.875 56
Q 33.9375 56 38.28125 53.609375
Q 42.625 51.21875 45.40625 46.390625
L 45.40625 54.6875
L 54.390625 54.6875
z
" id="DejaVuSans-103"/>
     </defs>
     <g transform="translate(133.385469 319.073188)scale(0.15 -0.15)">
      <use xlink:href="#DejaVuSans-71"/>
      <use x="77.490234" xlink:href="#DejaVuSans-83"/>
      <use x="140.966797" xlink:href="#DejaVuSans-86"/>
      <use x="209.28125" xlink:href="#DejaVuSans-65"/>
      <use x="277.689453" xlink:href="#DejaVuSans-32"/>
      <use x="309.476562" xlink:href="#DejaVuSans-112"/>
      <use x="372.953125" xlink:href="#DejaVuSans-97"/>
      <use x="434.232422" xlink:href="#DejaVuSans-116"/>
      <use x="473.441406" xlink:href="#DejaVuSans-104"/>
      <use x="536.820312" xlink:href="#DejaVuSans-119"/>
      <use x="618.607422" xlink:href="#DejaVuSans-97"/>
      <use x="679.886719" xlink:href="#DejaVuSans-121"/>
      <use x="739.066406" xlink:href="#DejaVuSans-32"/>
      <use x="770.853516" xlink:href="#DejaVuSans-114"/>
      <use x="811.966797" xlink:href="#DejaVuSans-97"/>
      <use x="873.246094" xlink:href="#DejaVuSans-110"/>
      <use x="936.625" xlink:href="#DejaVuSans-107"/>
      <use x="994.535156" xlink:href="#DejaVuSans-105"/>
      <use x="1022.318359" xlink:href="#DejaVuSans-110"/>
      <use x="1085.697266" xlink:href="#DejaVuSans-103"/>
     </g>
    </g>
   </g>
   <g id="matplotlib.axis_2">
    <g id="ytick_1">
     <g id="line2d_19">
      <path clip-path="url(#pdc44cfbb91)" d="M 46.772188 274.615782
L 403.892188 274.615782
" style="fill:none;stroke:#e5e5e5;stroke-width:0.8;"/>
     </g>
     <g id="line2d_20">
      <path d="M 46.772188 274.615782
" style="fill:none;stroke:#000000;stroke-width:1.5;"/>
      <defs>
       <path d="M 0 0
L -2.75 0
" id="m8f186a7c79" style="stroke:#000000;"/>
      </defs>
      <g>
       <use style="stroke:#000000;" x="46.772188" xlink:href="#m8f186a7c79" y="274.615782"/>
      </g>
     </g>
     <g id="text_7">
      <!-- 0 -->
      <g style="fill:#4d4d4d;" transform="translate(34.187188 277.927032)scale(0.12 -0.12)">
       <use xlink:href="#DejaVuSans-48"/>
      </g>
     </g>
    </g>
    <g id="ytick_2">
     <g id="line2d_21">
      <path clip-path="url(#pdc44cfbb91)" d="M 46.772188 214.135782
L 403.892188 214.135782
" style="fill:none;stroke:#e5e5e5;stroke-width:0.8;"/>
     </g>
     <g id="line2d_22">
      <path d="M 46.772188 214.135782
" style="fill:none;stroke:#000000;stroke-width:1.5;"/>
      <g>
       <use style="stroke:#000000;" x="46.772188" xlink:href="#m8f186a7c79" y="214.135782"/>
      </g>
     </g>
     <g id="text_8">
      <!-- 25 -->
      <g style="fill:#4d4d4d;" transform="translate(26.552188 217.447032)scale(0.12 -0.12)">
       <use xlink:href="#DejaVuSans-50"/>
       <use x="63.623047" xlink:href="#DejaVuSans-53"/>
      </g>
     </g>
    </g>
    <g id="ytick_3">
     <g id="line2d_23">
      <path clip-path="url(#pdc44cfbb91)" d="M 46.772188 153.655782
L 403.892188 153.655782
" style="fill:none;stroke:#e5e5e5;stroke-width:0.8;"/>
     </g>
     <g id="line2d_24">
      <path d="M 46.772188 153.655782
" style="fill:none;stroke:#000000;stroke-width:1.5;"/>
      <g>
       <use style="stroke:#000000;" x="46.772188" xlink:href="#m8f186a7c79" y="153.655782"/>
      </g>
     </g>
     <g id="text_9">
      <!-- 50 -->
      <g style="fill:#4d4d4d;" transform="translate(26.552188 156.967032)scale(0.12 -0.12)">
       <use xlink:href="#DejaVuSans-53"/>
       <use x="63.623047" xlink:href="#DejaVuSans-48"/>
      </g>
     </g>
    </g>
    <g id="ytick_4">
     <g id="line2d_25">
      <path clip-path="url(#pdc44cfbb91)" d="M 46.772188 93.175782
L 403.892188 93.175782
" style="fill:none;stroke:#e5e5e5;stroke-width:0.8;"/>
     </g>
     <g id="line2d_26">
      <path d="M 46.772188 93.175782
" style="fill:none;stroke:#000000;stroke-width:1.5;"/>
      <g>
       <use style="stroke:#000000;" x="46.772188" xlink:href="#m8f186a7c79" y="93.175782"/>
      </g>
     </g>
     <g id="text_10">
      <!-- 75 -->
      <g style="fill:#4d4d4d;" transform="translate(26.552188 96.487032)scale(0.12 -0.12)">
       <use xlink:href="#DejaVuSans-55"/>
       <use x="63.623047" xlink:href="#DejaVuSans-53"/>
      </g>
     </g>
    </g>
    <g id="ytick_5">
     <g id="line2d_27">
      <path clip-path="url(#pdc44cfbb91)" d="M 46.772188 32.695782
L 403.892188 32.695782
" style="fill:none;stroke:#e5e5e5;stroke-width:0.8;"/>
     </g>
     <g id="line2d_28">
      <path d="M 46.772188 32.695782
" style="fill:none;stroke:#000000;stroke-width:1.5;"/>
      <g>
       <use style="stroke:#000000;" x="46.772188" xlink:href="#m8f186a7c79" y="32.695782"/>
      </g>
     </g>
     <g id="text_11">
      <!-- 100 -->
      <g style="fill:#4d4d4d;" transform="translate(18.917188 36.007032)scale(0.12 -0.12)">
       <use xlink:href="#DejaVuSans-49"/>
       <use x="63.623047" xlink:href="#DejaVuSans-48"/>
       <use x="127.246094" xlink:href="#DejaVuSans-48"/>
      </g>
     </g>
    </g>
    <g id="ytick_6">
     <g id="line2d_29">
      <path clip-path="url(#pdc44cfbb91)" d="M 46.772188 244.375782
L 403.892188 244.375782
" style="fill:none;stroke:#fafafa;"/>
     </g>
     <g id="line2d_30">
      <path d="M 46.772188 244.375782
" style="fill:none;stroke:#000000;stroke-width:1.5;"/>
     </g>
    </g>
    <g id="ytick_7">
     <g id="line2d_31">
      <path clip-path="url(#pdc44cfbb91)" d="M 46.772188 183.895782
L 403.892188 183.895782
" style="fill:none;stroke:#fafafa;"/>
     </g>
     <g id="line2d_32">
      <path d="M 46.772188 183.895782
" style="fill:none;stroke:#000000;stroke-width:1.5;"/>
     </g>
    </g>
    <g id="ytick_8">
     <g id="line2d_33">
      <path clip-path="url(#pdc44cfbb91)" d="M 46.772188 123.415782
L 403.892188 123.415782
" style="fill:none;stroke:#fafafa;"/>
     </g>
     <g id="line2d_34">
      <path d="M 46.772188 123.415782
" style="fill:none;stroke:#000000;stroke-width:1.5;"/>
     </g>
    </g>
    <g id="ytick_9">
     <g id="line2d_35">
      <path clip-path="url(#pdc44cfbb91)" d="M 46.772188 62.935782
L 403.892188 62.935782
" style="fill:none;stroke:#fafafa;"/>
     </g>
     <g id="line2d_36">
      <path d="M 46.772188 62.935782
" style="fill:none;stroke:#000000;stroke-width:1.5;"/>
     </g>
    </g>
    <g id="text_12">
     <!-- CAMERA pathway ranking -->
     <defs>
      <path d="M 64.40625 67.28125
L 64.40625 56.890625
Q 59.421875 61.53125 53.78125 63.8125
Q 48.140625 66.109375 41.796875 66.109375
Q 29.296875 66.109375 22.65625 58.46875
Q 16.015625 50.828125 16.015625 36.375
Q 16.015625 21.96875 22.65625 14.328125
Q 29.296875 6.6875 41.796875 6.6875
Q 48.140625 6.6875 53.78125 8.984375
Q 59.421875 11.28125 64.40625 15.921875
L 64.40625 5.609375
Q 59.234375 2.09375 53.4375 0.328125
Q 47.65625 -1.421875 41.21875 -1.421875
Q 24.65625 -1.421875 15.125 8.703125
Q 5.609375 18.84375 5.609375 36.375
Q 5.609375 53.953125 15.125 64.078125
Q 24.65625 74.21875 41.21875 74.21875
Q 47.75 74.21875 53.53125 72.484375
Q 59.328125 70.75 64.40625 67.28125
z
" id="DejaVuSans-67"/>
      <path d="M 9.8125 72.90625
L 24.515625 72.90625
L 43.109375 23.296875
L 61.8125 72.90625
L 76.515625 72.90625
L 76.515625 0
L 66.890625 0
L 66.890625 64.015625
L 48.09375 14.015625
L 38.1875 14.015625
L 19.390625 64.015625
L 19.390625 0
L 9.8125 0
z
" id="DejaVuSans-77"/>
      <path d="M 9.8125 72.90625
L 55.90625 72.90625
L 55.90625 64.59375
L 19.671875 64.59375
L 19.671875 43.015625
L 54.390625 43.015625
L 54.390625 34.71875
L 19.671875 34.71875
L 19.671875 8.296875
L 56.78125 8.296875
L 56.78125 0
L 9.8125 0
z
" id="DejaVuSans-69"/>
      <path d="M 44.390625 34.1875
Q 47.5625 33.109375 50.5625 29.59375
Q 53.5625 26.078125 56.59375 19.921875
L 66.609375 0
L 56 0
L 46.6875 18.703125
Q 43.0625 26.03125 39.671875 28.421875
Q 36.28125 30.8125 30.421875 30.8125
L 19.671875 30.8125
L 19.671875 0
L 9.8125 0
L 9.8125 72.90625
L 32.078125 72.90625
Q 44.578125 72.90625 50.734375 67.671875
Q 56.890625 62.453125 56.890625 51.90625
Q 56.890625 45.015625 53.6875 40.46875
Q 50.484375 35.9375 44.390625 34.1875
z
M 19.671875 64.796875
L 19.671875 38.921875
L 32.078125 38.921875
Q 39.203125 38.921875 42.84375 42.21875
Q 46.484375 45.515625 46.484375 51.90625
Q 46.484375 58.296875 42.84375 61.546875
Q 39.203125 64.796875 32.078125 64.796875
z
" id="DejaVuSans-82"/>
     </defs>
     <g transform="translate(11.397656 249.202782)rotate(-90)scale(0.15 -0.15)">
      <use xlink:href="#DejaVuSans-67"/>
      <use x="69.824219" xlink:href="#DejaVuSans-65"/>
      <use x="138.232422" xlink:href="#DejaVuSans-77"/>
      <use x="224.511719" xlink:href="#DejaVuSans-69"/>
      <use x="287.695312" xlink:href="#DejaVuSans-82"/>
      <use x="357.115234" xlink:href="#DejaVuSans-65"/>
      <use x="425.523438" xlink:href="#DejaVuSans-32"/>
      <use x="457.310547" xlink:href="#DejaVuSans-112"/>
      <use x="520.787109" xlink:href="#DejaVuSans-97"/>
      <use x="582.066406" xlink:href="#DejaVuSans-116"/>
      <use x="621.275391" xlink:href="#DejaVuSans-104"/>
      <use x="684.654297" xlink:href="#DejaVuSans-119"/>
      <use x="766.441406" xlink:href="#DejaVuSans-97"/>
      <use x="827.720703" xlink:href="#DejaVuSans-121"/>
      <use x="886.900391" xlink:href="#DejaVuSans-32"/>
      <use x="918.6875" xlink:href="#DejaVuSans-114"/>
      <use x="959.800781" xlink:href="#DejaVuSans-97"/>
      <use x="1021.080078" xlink:href="#DejaVuSans-110"/>
      <use x="1084.458984" xlink:href="#DejaVuSans-107"/>
      <use x="1142.369141" xlink:href="#DejaVuSans-105"/>
      <use x="1170.152344" xlink:href="#DejaVuSans-110"/>
      <use x="1233.53125" xlink:href="#DejaVuSans-103"/>
     </g>
    </g>
   </g>
   <g id="PathCollection_1">
    <path clip-path="url(#pdc44cfbb91)" d="M 387.65946 251.702522
C 388.12952 251.702522 388.580392 251.515765 388.912774 251.183382
C 389.245157 250.850999 389.431914 250.400128 389.431914 249.930068
C 389.431914 249.460008 389.245157 249.009136 388.912774 248.676754
C 388.580392 248.344371 388.12952 248.157614 387.65946 248.157614
C 387.1894 248.157614 386.738529 248.344371 386.406146 248.676754
C 386.073763 249.009136 385.887006 249.460008 385.887006 249.930068
C 385.887006 250.400128 386.073763 250.850999 386.406146 251.183382
C 386.738529 251.515765 387.1894 251.702522 387.65946 251.702522
z
" style="stroke:#000000;stroke-width:0.886227;"/>
    <path clip-path="url(#pdc44cfbb91)" d="M 281.649813 49.279664
C 282.119873 49.279664 282.570744 49.092908 282.903127 48.760525
C 283.23551 48.428142 283.422267 47.977271 283.422267 47.507211
C 283.422267 47.03715 283.23551 46.586279 282.903127 46.253897
C 282.570744 45.921514 282.119873 45.734757 281.649813 45.734757
C 281.179752 45.734757 280.728881 45.921514 280.396499 46.253897
C 280.064116 46.586279 279.877359 47.03715 279.877359 47.507211
C 279.877359 47.977271 280.064116 48.428142 280.396499 48.760525
C 280.728881 49.092908 281.179752 49.279664 281.649813 49.279664
z
" style="stroke:#000000;stroke-width:0.886227;"/>
    <path clip-path="url(#pdc44cfbb91)" d="M 308.152225 236.891093
C 308.622285 236.891093 309.073156 236.704336 309.405539 236.371953
C 309.737922 236.039571 309.924678 235.588699 309.924678 235.118639
C 309.924678 234.648579 309.737922 234.197708 309.405539 233.865325
C 309.073156 233.532942 308.622285 233.346185 308.152225 233.346185
C 307.682164 233.346185 307.231293 233.532942 306.89891 233.865325
C 306.566528 234.197708 306.379771 234.648579 306.379771 235.118639
C 306.379771 235.588699 306.566528 236.039571 306.89891 236.371953
C 307.231293 236.704336 307.682164 236.891093 308.152225 236.891093
z
" style="stroke:#000000;stroke-width:0.886227;"/>
    <path clip-path="url(#pdc44cfbb91)" d="M 195.516974 83.839664
C 195.987034 83.839664 196.437905 83.652908 196.770288 83.320525
C 197.102671 82.988142 197.289428 82.537271 197.289428 82.067211
C 197.289428 81.59715 197.102671 81.146279 196.770288 80.813897
C 196.437905 80.481514 195.987034 80.294757 195.516974 80.294757
C 195.046914 80.294757 194.596043 80.481514 194.26366 80.813897
C 193.931277 81.146279 193.74452 81.59715 193.74452 82.067211
C 193.74452 82.537271 193.931277 82.988142 194.26366 83.320525
C 194.596043 83.652908 195.046914 83.839664 195.516974 83.839664
z
" style="stroke:#000000;stroke-width:0.886227;"/>
    <path clip-path="url(#pdc44cfbb91)" d="M 381.033857 162.83395
C 381.503918 162.83395 381.954789 162.647193 382.287171 162.31481
C 382.619554 161.982428 382.806311 161.531557 382.806311 161.061496
C 382.806311 160.591436 382.619554 160.140565 382.287171 159.808182
C 381.954789 159.475799 381.503918 159.289043 381.033857 159.289043
C 380.563797 159.289043 380.112926 159.475799 379.780543 159.808182
C 379.44816 160.140565 379.261403 160.591436 379.261403 161.061496
C 379.261403 161.531557 379.44816 161.982428 379.780543 162.31481
C 380.112926 162.647193 380.563797 162.83395 381.033857 162.83395
z
" style="stroke:#000000;stroke-width:0.886227;"/>
    <path clip-path="url(#pdc44cfbb91)" d="M 175.640165 59.15395
C 176.110225 59.15395 176.561097 58.967193 176.893479 58.63481
C 177.225862 58.302428 177.412619 57.851557 177.412619 57.381496
C 177.412619 56.911436 177.225862 56.460565 176.893479 56.128182
C 176.561097 55.795799 176.110225 55.609043 175.640165 55.609043
C 175.170105 55.609043 174.719234 55.795799 174.386851 56.128182
C 174.054468 56.460565 173.867711 56.911436 173.867711 57.381496
C 173.867711 57.851557 174.054468 58.302428 174.386851 58.63481
C 174.719234 58.967193 175.170105 59.15395 175.640165 59.15395
z
" style="stroke:#000000;stroke-width:0.886227;"/>
    <path clip-path="url(#pdc44cfbb91)" d="M 288.275416 187.519664
C 288.745476 187.519664 289.196347 187.332908 289.52873 187.000525
C 289.861113 186.668142 290.04787 186.217271 290.04787 185.747211
C 290.04787 185.27715 289.861113 184.826279 289.52873 184.493897
C 289.196347 184.161514 288.745476 183.974757 288.275416 183.974757
C 287.805355 183.974757 287.354484 184.161514 287.022102 184.493897
C 286.689719 184.826279 286.502962 185.27715 286.502962 185.747211
C 286.502962 186.217271 286.689719 186.668142 287.022102 187.000525
C 287.354484 187.332908 287.805355 187.519664 288.275416 187.519664
z
" style="stroke:#000000;stroke-width:0.886227;"/>
    <path clip-path="url(#pdc44cfbb91)" d="M 321.403431 123.336807
C 321.873491 123.336807 322.324362 123.15005 322.656745 122.817668
C 322.989127 122.485285 323.175884 122.034414 323.175884 121.564353
C 323.175884 121.094293 322.989127 120.643422 322.656745 120.311039
C 322.324362 119.978657 321.873491 119.7919 321.403431 119.7919
C 320.93337 119.7919 320.482499 119.978657 320.150116 120.311039
C 319.817734 120.643422 319.630977 121.094293 319.630977 121.564353
C 319.630977 122.034414 319.817734 122.485285 320.150116 122.817668
C 320.482499 123.15005 320.93337 123.336807 321.403431 123.336807
z
" style="stroke:#000000;stroke-width:0.886227;"/>
    <path clip-path="url(#pdc44cfbb91)" d="M 228.644989 266.51395
C 229.115049 266.51395 229.56592 266.327193 229.898303 265.99481
C 230.230686 265.662428 230.417443 265.211557 230.417443 264.741496
C 230.417443 264.271436 230.230686 263.820565 229.898303 263.488182
C 229.56592 263.155799 229.115049 262.969043 228.644989 262.969043
C 228.174929 262.969043 227.724058 263.155799 227.391675 263.488182
C 227.059292 263.820565 226.872535 264.271436 226.872535 264.741496
C 226.872535 265.211557 227.059292 265.662428 227.391675 265.99481
C 227.724058 266.327193 228.174929 266.51395 228.644989 266.51395
z
" style="stroke:#000000;stroke-width:0.886227;"/>
    <path clip-path="url(#pdc44cfbb91)" d="M 162.388959 44.342522
C 162.85902 44.342522 163.309891 44.155765 163.642273 43.823382
C 163.974656 43.490999 164.161413 43.040128 164.161413 42.570068
C 164.161413 42.100008 163.974656 41.649136 163.642273 41.316754
C 163.309891 40.984371 162.85902 40.797614 162.388959 40.797614
C 161.918899 40.797614 161.468028 40.984371 161.135645 41.316754
C 160.803262 41.649136 160.616505 42.100008 160.616505 42.570068
C 160.616505 43.040128 160.803262 43.490999 161.135645 43.823382
C 161.468028 44.155765 161.918899 44.342522 162.388959 44.342522
z
" style="stroke:#000000;stroke-width:0.886227;"/>
    <path clip-path="url(#pdc44cfbb91)" d="M 222.019386 64.091093
C 222.489446 64.091093 222.940317 63.904336 223.2727 63.571953
C 223.605083 63.239571 223.79184 62.788699 223.79184 62.318639
C 223.79184 61.848579 223.605083 61.397708 223.2727 61.065325
C 222.940317 60.732942 222.489446 60.546185 222.019386 60.546185
C 221.549326 60.546185 221.098455 60.732942 220.766072 61.065325
C 220.433689 61.397708 220.246932 61.848579 220.246932 62.318639
C 220.246932 62.788699 220.433689 63.239571 220.766072 63.571953
C 221.098455 63.904336 221.549326 64.091093 222.019386 64.091093
z
" style="stroke:#000000;stroke-width:0.886227;"/>
    <path clip-path="url(#pdc44cfbb91)" d="M 294.901019 199.862522
C 295.371079 199.862522 295.82195 199.675765 296.154333 199.343382
C 296.486716 199.010999 296.673473 198.560128 296.673473 198.090068
C 296.673473 197.620008 296.486716 197.169136 296.154333 196.836754
C 295.82195 196.504371 295.371079 196.317614 294.901019 196.317614
C 294.430958 196.317614 293.980087 196.504371 293.647705 196.836754
C 293.315322 197.169136 293.128565 197.620008 293.128565 198.090068
C 293.128565 198.560128 293.315322 199.010999 293.647705 199.343382
C 293.980087 199.675765 294.430958 199.862522 294.901019 199.862522
z
" style="stroke:#000000;stroke-width:0.886227;"/>
    <path clip-path="url(#pdc44cfbb91)" d="M 268.398607 217.142522
C 268.868667 217.142522 269.319538 216.955765 269.651921 216.623382
C 269.984304 216.290999 270.171061 215.840128 270.171061 215.370068
C 270.171061 214.900008 269.984304 214.449136 269.651921 214.116754
C 269.319538 213.784371 268.868667 213.597614 268.398607 213.597614
C 267.928547 213.597614 267.477675 213.784371 267.145293 214.116754
C 266.81291 214.449136 266.626153 214.900008 266.626153 215.370068
C 266.626153 215.840128 266.81291 216.290999 267.145293 216.623382
C 267.477675 216.955765 267.928547 217.142522 268.398607 217.142522
z
" style="stroke:#000000;stroke-width:0.886227;"/>
    <path clip-path="url(#pdc44cfbb91)" d="M 82.881724 113.462522
C 83.351784 113.462522 83.802655 113.275765 84.135038 112.943382
C 84.467421 112.610999 84.654178 112.160128 84.654178 111.690068
C 84.654178 111.220008 84.467421 110.769136 84.135038 110.436754
C 83.802655 110.104371 83.351784 109.917614 82.881724 109.917614
C 82.411663 109.917614 81.960792 110.104371 81.62841 110.436754
C 81.296027 110.769136 81.10927 111.220008 81.10927 111.690068
C 81.10927 112.160128 81.296027 112.610999 81.62841 112.943382
C 81.960792 113.275765 82.411663 113.462522 82.881724 113.462522
z
" style="stroke:#000000;stroke-width:0.886227;"/>
    <path clip-path="url(#pdc44cfbb91)" d="M 361.157048 152.959664
C 361.627109 152.959664 362.07798 152.772908 362.410362 152.440525
C 362.742745 152.108142 362.929502 151.657271 362.929502 151.187211
C 362.929502 150.71715 362.742745 150.266279 362.410362 149.933897
C 362.07798 149.601514 361.627109 149.414757 361.157048 149.414757
C 360.686988 149.414757 360.236117 149.601514 359.903734 149.933897
C 359.571351 150.266279 359.384595 150.71715 359.384595 151.187211
C 359.384595 151.657271 359.571351 152.108142 359.903734 152.440525
C 360.236117 152.772908 360.686988 152.959664 361.157048 152.959664
z
" style="stroke:#000000;stroke-width:0.886227;"/>
    <path clip-path="url(#pdc44cfbb91)" d="M 367.782651 148.022522
C 368.252712 148.022522 368.703583 147.835765 369.035965 147.503382
C 369.368348 147.170999 369.555105 146.720128 369.555105 146.250068
C 369.555105 145.780008 369.368348 145.329136 369.035965 144.996754
C 368.703583 144.664371 368.252712 144.477614 367.782651 144.477614
C 367.312591 144.477614 366.86172 144.664371 366.529337 144.996754
C 366.196954 145.329136 366.010197 145.780008 366.010197 146.250068
C 366.010197 146.720128 366.196954 147.170999 366.529337 147.503382
C 366.86172 147.835765 367.312591 148.022522 367.782651 148.022522
z
" style="stroke:#000000;stroke-width:0.886227;"/>
    <path clip-path="url(#pdc44cfbb91)" d="M 129.260944 261.576807
C 129.731005 261.576807 130.181876 261.39005 130.514259 261.057668
C 130.846641 260.725285 131.033398 260.274414 131.033398 259.804353
C 131.033398 259.334293 130.846641 258.883422 130.514259 258.551039
C 130.181876 258.218657 129.731005 258.0319 129.260944 258.0319
C 128.790884 258.0319 128.340013 258.218657 128.00763 258.551039
C 127.675248 258.883422 127.488491 259.334293 127.488491 259.804353
C 127.488491 260.274414 127.675248 260.725285 128.00763 261.057668
C 128.340013 261.39005 128.790884 261.576807 129.260944 261.576807
z
" style="stroke:#000000;stroke-width:0.886227;"/>
    <path clip-path="url(#pdc44cfbb91)" d="M 155.763356 256.639664
C 156.233417 256.639664 156.684288 256.452908 157.01667 256.120525
C 157.349053 255.788142 157.53581 255.337271 157.53581 254.867211
C 157.53581 254.39715 157.349053 253.946279 157.01667 253.613897
C 156.684288 253.281514 156.233417 253.094757 155.763356 253.094757
C 155.293296 253.094757 154.842425 253.281514 154.510042 253.613897
C 154.177659 253.946279 153.990902 254.39715 153.990902 254.867211
C 153.990902 255.337271 154.177659 255.788142 154.510042 256.120525
C 154.842425 256.452908 155.293296 256.639664 155.763356 256.639664
z
" style="stroke:#000000;stroke-width:0.886227;"/>
    <path clip-path="url(#pdc44cfbb91)" d="M 354.531445 39.405379
C 355.001506 39.405379 355.452377 39.218622 355.78476 38.886239
C 356.117142 38.553856 356.303899 38.102985 356.303899 37.632925
C 356.303899 37.162865 356.117142 36.711994 355.78476 36.379611
C 355.452377 36.047228 355.001506 35.860471 354.531445 35.860471
C 354.061385 35.860471 353.610514 36.047228 353.278131 36.379611
C 352.945748 36.711994 352.758992 37.162865 352.758992 37.632925
C 352.758992 38.102985 352.945748 38.553856 353.278131 38.886239
C 353.610514 39.218622 354.061385 39.405379 354.531445 39.405379
z
" style="stroke:#000000;stroke-width:0.886227;"/>
    <path clip-path="url(#pdc44cfbb91)" d="M 202.142577 182.582522
C 202.612637 182.582522 203.063508 182.395765 203.395891 182.063382
C 203.728274 181.730999 203.915031 181.280128 203.915031 180.810068
C 203.915031 180.340008 203.728274 179.889136 203.395891 179.556754
C 203.063508 179.224371 202.612637 179.037614 202.142577 179.037614
C 201.672517 179.037614 201.221646 179.224371 200.889263 179.556754
C 200.55688 179.889136 200.370123 180.340008 200.370123 180.810068
C 200.370123 181.280128 200.55688 181.730999 200.889263 182.063382
C 201.221646 182.395765 201.672517 182.582522 202.142577 182.582522
z
" style="stroke:#000000;stroke-width:0.886227;"/>
    <path clip-path="url(#pdc44cfbb91)" d="M 215.393783 78.902522
C 215.863843 78.902522 216.314714 78.715765 216.647097 78.383382
C 216.97948 78.050999 217.166237 77.600128 217.166237 77.130068
C 217.166237 76.660008 216.97948 76.209136 216.647097 75.876754
C 216.314714 75.544371 215.863843 75.357614 215.393783 75.357614
C 214.923723 75.357614 214.472852 75.544371 214.140469 75.876754
C 213.808086 76.209136 213.621329 76.660008 213.621329 77.130068
C 213.621329 77.600128 213.808086 78.050999 214.140469 78.383382
C 214.472852 78.715765 214.923723 78.902522 215.393783 78.902522
z
" style="stroke:#000000;stroke-width:0.886227;"/>
    <path clip-path="url(#pdc44cfbb91)" d="M 109.384136 108.525379
C 109.854196 108.525379 110.305067 108.338622 110.63745 108.006239
C 110.969832 107.673856 111.156589 107.222985 111.156589 106.752925
C 111.156589 106.282865 110.969832 105.831994 110.63745 105.499611
C 110.305067 105.167228 109.854196 104.980471 109.384136 104.980471
C 108.914075 104.980471 108.463204 105.167228 108.130821 105.499611
C 107.798439 105.831994 107.611682 106.282865 107.611682 106.752925
C 107.611682 107.222985 107.798439 107.673856 108.130821 108.006239
C 108.463204 108.338622 108.914075 108.525379 109.384136 108.525379
z
" style="stroke:#000000;stroke-width:0.886227;"/>
    <path clip-path="url(#pdc44cfbb91)" d="M 328.029034 170.239664
C 328.499094 170.239664 328.949965 170.052908 329.282348 169.720525
C 329.61473 169.388142 329.801487 168.937271 329.801487 168.467211
C 329.801487 167.99715 329.61473 167.546279 329.282348 167.213897
C 328.949965 166.881514 328.499094 166.694757 328.029034 166.694757
C 327.558973 166.694757 327.108102 166.881514 326.775719 167.213897
C 326.443337 167.546279 326.25658 167.99715 326.25658 168.467211
C 326.25658 168.937271 326.443337 169.388142 326.775719 169.720525
C 327.108102 170.052908 327.558973 170.239664 328.029034 170.239664
z
" style="stroke:#000000;stroke-width:0.886227;"/>
    <path clip-path="url(#pdc44cfbb91)" d="M 334.654636 207.268236
C 335.124697 207.268236 335.575568 207.081479 335.907951 206.749096
C 336.240333 206.416713 336.42709 205.965842 336.42709 205.495782
C 336.42709 205.025722 336.240333 204.574851 335.907951 204.242468
C 335.575568 203.910085 335.124697 203.723328 334.654636 203.723328
C 334.184576 203.723328 333.733705 203.910085 333.401322 204.242468
C 333.06894 204.574851 332.882183 205.025722 332.882183 205.495782
C 332.882183 205.965842 333.06894 206.416713 333.401322 206.749096
C 333.733705 207.081479 334.184576 207.268236 334.654636 207.268236
z
" style="stroke:#000000;stroke-width:0.886227;"/>
    <path clip-path="url(#pdc44cfbb91)" d="M 374.408254 157.896807
C 374.878315 157.896807 375.329186 157.71005 375.661568 157.377668
C 375.993951 157.045285 376.180708 156.594414 376.180708 156.124353
C 376.180708 155.654293 375.993951 155.203422 375.661568 154.871039
C 375.329186 154.538657 374.878315 154.3519 374.408254 154.3519
C 373.938194 154.3519 373.487323 154.538657 373.15494 154.871039
C 372.822557 155.203422 372.6358 155.654293 372.6358 156.124353
C 372.6358 156.594414 372.822557 157.045285 373.15494 157.377668
C 373.487323 157.71005 373.938194 157.896807 374.408254 157.896807
z
" style="stroke:#000000;stroke-width:0.886227;"/>
    <path clip-path="url(#pdc44cfbb91)" d="M 76.256121 103.588236
C 76.726181 103.588236 77.177052 103.401479 77.509435 103.069096
C 77.841818 102.736713 78.028575 102.285842 78.028575 101.815782
C 78.028575 101.345722 77.841818 100.894851 77.509435 100.562468
C 77.177052 100.230085 76.726181 100.043328 76.256121 100.043328
C 75.78606 100.043328 75.335189 100.230085 75.002807 100.562468
C 74.670424 100.894851 74.483667 101.345722 74.483667 101.815782
C 74.483667 102.285842 74.670424 102.736713 75.002807 103.069096
C 75.335189 103.401479 75.78606 103.588236 76.256121 103.588236
z
" style="stroke:#000000;stroke-width:0.886227;"/>
    <path clip-path="url(#pdc44cfbb91)" d="M 208.76818 227.016807
C 209.23824 227.016807 209.689111 226.83005 210.021494 226.497668
C 210.353877 226.165285 210.540634 225.714414 210.540634 225.244353
C 210.540634 224.774293 210.353877 224.323422 210.021494 223.991039
C 209.689111 223.658657 209.23824 223.4719 208.76818 223.4719
C 208.29812 223.4719 207.847249 223.658657 207.514866 223.991039
C 207.182483 224.323422 206.995726 224.774293 206.995726 225.244353
C 206.995726 225.714414 207.182483 226.165285 207.514866 226.497668
C 207.847249 226.83005 208.29812 227.016807 208.76818 227.016807
z
" style="stroke:#000000;stroke-width:0.886227;"/>
    <path clip-path="url(#pdc44cfbb91)" d="M 241.896195 170.239664
C 242.366255 170.239664 242.817126 170.052908 243.149509 169.720525
C 243.481892 169.388142 243.668649 168.937271 243.668649 168.467211
C 243.668649 167.99715 243.481892 167.546279 243.149509 167.213897
C 242.817126 166.881514 242.366255 166.694757 241.896195 166.694757
C 241.426135 166.694757 240.975264 166.881514 240.642881 167.213897
C 240.310498 167.546279 240.123741 167.99715 240.123741 168.467211
C 240.123741 168.937271 240.310498 169.388142 240.642881 169.720525
C 240.975264 170.052908 241.426135 170.239664 241.896195 170.239664
z
" style="stroke:#000000;stroke-width:0.886227;"/>
    <path clip-path="url(#pdc44cfbb91)" d="M 63.004915 69.028236
C 63.474975 69.028236 63.925846 68.841479 64.258229 68.509096
C 64.590612 68.176713 64.777369 67.725842 64.777369 67.255782
C 64.777369 66.785722 64.590612 66.334851 64.258229 66.002468
C 63.925846 65.670085 63.474975 65.483328 63.004915 65.483328
C 62.534855 65.483328 62.083983 65.670085 61.751601 66.002468
C 61.419218 66.334851 61.232461 66.785722 61.232461 67.255782
C 61.232461 67.725842 61.419218 68.176713 61.751601 68.509096
C 62.083983 68.841479 62.534855 69.028236 63.004915 69.028236
z
" style="stroke:#000000;stroke-width:0.886227;"/>
    <path clip-path="url(#pdc44cfbb91)" d="M 89.507327 133.211093
C 89.977387 133.211093 90.428258 133.024336 90.760641 132.691953
C 91.093024 132.359571 91.27978 131.908699 91.27978 131.438639
C 91.27978 130.968579 91.093024 130.517708 90.760641 130.185325
C 90.428258 129.852942 89.977387 129.666185 89.507327 129.666185
C 89.037266 129.666185 88.586395 129.852942 88.254013 130.185325
C 87.92163 130.517708 87.734873 130.968579 87.734873 131.438639
C 87.734873 131.908699 87.92163 132.359571 88.254013 132.691953
C 88.586395 133.024336 89.037266 133.211093 89.507327 133.211093
z
" style="stroke:#000000;stroke-width:0.886227;"/>
    <path clip-path="url(#pdc44cfbb91)" d="M 135.886547 276.388236
C 136.356608 276.388236 136.807479 276.201479 137.139862 275.869096
C 137.472244 275.536713 137.659001 275.085842 137.659001 274.615782
C 137.659001 274.145722 137.472244 273.694851 137.139862 273.362468
C 136.807479 273.030085 136.356608 272.843328 135.886547 272.843328
C 135.416487 272.843328 134.965616 273.030085 134.633233 273.362468
C 134.30085 273.694851 134.114094 274.145722 134.114094 274.615782
C 134.114094 275.085842 134.30085 275.536713 134.633233 275.869096
C 134.965616 276.201479 135.416487 276.388236 135.886547 276.388236
z
" style="stroke:#000000;stroke-width:0.886227;"/>
    <path clip-path="url(#pdc44cfbb91)" d="M 261.773004 143.085379
C 262.243064 143.085379 262.693935 142.898622 263.026318 142.566239
C 263.358701 142.233856 263.545458 141.782985 263.545458 141.312925
C 263.545458 140.842865 263.358701 140.391994 263.026318 140.059611
C 262.693935 139.727228 262.243064 139.540471 261.773004 139.540471
C 261.302944 139.540471 260.852072 139.727228 260.51969 140.059611
C 260.187307 140.391994 260.00055 140.842865 260.00055 141.312925
C 260.00055 141.782985 260.187307 142.233856 260.51969 142.566239
C 260.852072 142.898622 261.302944 143.085379 261.773004 143.085379
z
" style="stroke:#000000;stroke-width:0.886227;"/>
    <path clip-path="url(#pdc44cfbb91)" d="M 116.009739 199.862522
C 116.479799 199.862522 116.93067 199.675765 117.263053 199.343382
C 117.595435 199.010999 117.782192 198.560128 117.782192 198.090068
C 117.782192 197.620008 117.595435 197.169136 117.263053 196.836754
C 116.93067 196.504371 116.479799 196.317614 116.009739 196.317614
C 115.539678 196.317614 115.088807 196.504371 114.756424 196.836754
C 114.424042 197.169136 114.237285 197.620008 114.237285 198.090068
C 114.237285 198.560128 114.424042 199.010999 114.756424 199.343382
C 115.088807 199.675765 115.539678 199.862522 116.009739 199.862522
z
" style="stroke:#000000;stroke-width:0.886227;"/>
    <path clip-path="url(#pdc44cfbb91)" d="M 169.014562 241.828236
C 169.484623 241.828236 169.935494 241.641479 170.267876 241.309096
C 170.600259 240.976713 170.787016 240.525842 170.787016 240.055782
C 170.787016 239.585722 170.600259 239.134851 170.267876 238.802468
C 169.935494 238.470085 169.484623 238.283328 169.014562 238.283328
C 168.544502 238.283328 168.093631 238.470085 167.761248 238.802468
C 167.428865 239.134851 167.242108 239.585722 167.242108 240.055782
C 167.242108 240.525842 167.428865 240.976713 167.761248 241.309096
C 168.093631 241.641479 168.544502 241.828236 169.014562 241.828236
z
" style="stroke:#000000;stroke-width:0.886227;"/>
    <path clip-path="url(#pdc44cfbb91)" d="M 341.280239 93.71395
C 341.7503 93.71395 342.201171 93.527193 342.533554 93.19481
C 342.865936 92.862428 343.052693 92.411557 343.052693 91.941496
C 343.052693 91.471436 342.865936 91.020565 342.533554 90.688182
C 342.201171 90.355799 341.7503 90.169043 341.280239 90.169043
C 340.810179 90.169043 340.359308 90.355799 340.026925 90.688182
C 339.694543 91.020565 339.507786 91.471436 339.507786 91.941496
C 339.507786 92.411557 339.694543 92.862428 340.026925 93.19481
C 340.359308 93.527193 340.810179 93.71395 341.280239 93.71395
z
" style="stroke:#000000;stroke-width:0.886227;"/>
    <path clip-path="url(#pdc44cfbb91)" d="M 275.02421 231.95395
C 275.49427 231.95395 275.945141 231.767193 276.277524 231.43481
C 276.609907 231.102428 276.796664 230.651557 276.796664 230.181496
C 276.796664 229.711436 276.609907 229.260565 276.277524 228.928182
C 275.945141 228.595799 275.49427 228.409043 275.02421 228.409043
C 274.55415 228.409043 274.103278 228.595799 273.770896 228.928182
C 273.438513 229.260565 273.251756 229.711436 273.251756 230.181496
C 273.251756 230.651557 273.438513 231.102428 273.770896 231.43481
C 274.103278 231.767193 274.55415 231.95395 275.02421 231.95395
z
" style="stroke:#000000;stroke-width:0.886227;"/>
    <path clip-path="url(#pdc44cfbb91)" d="M 314.777828 271.451093
C 315.247888 271.451093 315.698759 271.264336 316.031142 270.931953
C 316.363525 270.599571 316.550281 270.148699 316.550281 269.678639
C 316.550281 269.208579 316.363525 268.757708 316.031142 268.425325
C 315.698759 268.092942 315.247888 267.906185 314.777828 267.906185
C 314.307767 267.906185 313.856896 268.092942 313.524513 268.425325
C 313.192131 268.757708 313.005374 269.208579 313.005374 269.678639
C 313.005374 270.148699 313.192131 270.599571 313.524513 270.931953
C 313.856896 271.264336 314.307767 271.451093 314.777828 271.451093
z
" style="stroke:#000000;stroke-width:0.886227;"/>
    <path clip-path="url(#pdc44cfbb91)" d="M 255.147401 118.399664
C 255.617461 118.399664 256.068332 118.212908 256.400715 117.880525
C 256.733098 117.548142 256.919855 117.097271 256.919855 116.627211
C 256.919855 116.15715 256.733098 115.706279 256.400715 115.373897
C 256.068332 115.041514 255.617461 114.854757 255.147401 114.854757
C 254.677341 114.854757 254.22647 115.041514 253.894087 115.373897
C 253.561704 115.706279 253.374947 116.15715 253.374947 116.627211
C 253.374947 117.097271 253.561704 117.548142 253.894087 117.880525
C 254.22647 118.212908 254.677341 118.399664 255.147401 118.399664
z
" style="stroke:#000000;stroke-width:0.886227;"/>
    <path clip-path="url(#pdc44cfbb91)" d="M 301.526622 88.776807
C 301.996682 88.776807 302.447553 88.59005 302.779936 88.257668
C 303.112319 87.925285 303.299075 87.474414 303.299075 87.004353
C 303.299075 86.534293 303.112319 86.083422 302.779936 85.751039
C 302.447553 85.418657 301.996682 85.2319 301.526622 85.2319
C 301.056561 85.2319 300.60569 85.418657 300.273307 85.751039
C 299.940925 86.083422 299.754168 86.534293 299.754168 87.004353
C 299.754168 87.474414 299.940925 87.925285 300.273307 88.257668
C 300.60569 88.59005 301.056561 88.776807 301.526622 88.776807
z
" style="stroke:#000000;stroke-width:0.886227;"/>
    <path clip-path="url(#pdc44cfbb91)" d="M 69.630518 222.079664
C 70.100578 222.079664 70.551449 221.892908 70.883832 221.560525
C 71.216215 221.228142 71.402972 220.777271 71.402972 220.307211
C 71.402972 219.83715 71.216215 219.386279 70.883832 219.053897
C 70.551449 218.721514 70.100578 218.534757 69.630518 218.534757
C 69.160457 218.534757 68.709586 218.721514 68.377204 219.053897
C 68.044821 219.386279 67.858064 219.83715 67.858064 220.307211
C 67.858064 220.777271 68.044821 221.228142 68.377204 221.560525
C 68.709586 221.892908 69.160457 222.079664 69.630518 222.079664
z
" style="stroke:#000000;stroke-width:0.886227;"/>
    <path clip-path="url(#pdc44cfbb91)" d="M 102.758533 34.468236
C 103.228593 34.468236 103.679464 34.281479 104.011847 33.949096
C 104.34423 33.616713 104.530986 33.165842 104.530986 32.695782
C 104.530986 32.225722 104.34423 31.774851 104.011847 31.442468
C 103.679464 31.110085 103.228593 30.923328 102.758533 30.923328
C 102.288472 30.923328 101.837601 31.110085 101.505218 31.442468
C 101.172836 31.774851 100.986079 32.225722 100.986079 32.695782
C 100.986079 33.165842 101.172836 33.616713 101.505218 33.949096
C 101.837601 34.281479 102.288472 34.468236 102.758533 34.468236
z
" style="stroke:#000000;stroke-width:0.886227;"/>
    <path clip-path="url(#pdc44cfbb91)" d="M 149.137753 138.148236
C 149.607814 138.148236 150.058685 137.961479 150.391068 137.629096
C 150.72345 137.296713 150.910207 136.845842 150.910207 136.375782
C 150.910207 135.905722 150.72345 135.454851 150.391068 135.122468
C 150.058685 134.790085 149.607814 134.603328 149.137753 134.603328
C 148.667693 134.603328 148.216822 134.790085 147.884439 135.122468
C 147.552056 135.454851 147.3653 135.905722 147.3653 136.375782
C 147.3653 136.845842 147.552056 137.296713 147.884439 137.629096
C 148.216822 137.961479 148.667693 138.148236 149.137753 138.148236
z
" style="stroke:#000000;stroke-width:0.886227;"/>
    <path clip-path="url(#pdc44cfbb91)" d="M 188.891371 98.651093
C 189.361431 98.651093 189.812303 98.464336 190.144685 98.131953
C 190.477068 97.799571 190.663825 97.348699 190.663825 96.878639
C 190.663825 96.408579 190.477068 95.957708 190.144685 95.625325
C 189.812303 95.292942 189.361431 95.106185 188.891371 95.106185
C 188.421311 95.106185 187.97044 95.292942 187.638057 95.625325
C 187.305674 95.957708 187.118917 96.408579 187.118917 96.878639
C 187.118917 97.348699 187.305674 97.799571 187.638057 98.131953
C 187.97044 98.464336 188.421311 98.651093 188.891371 98.651093
z
" style="stroke:#000000;stroke-width:0.886227;"/>
    <path clip-path="url(#pdc44cfbb91)" d="M 122.635341 177.645379
C 123.105402 177.645379 123.556273 177.458622 123.888656 177.126239
C 124.221038 176.793856 124.407795 176.342985 124.407795 175.872925
C 124.407795 175.402865 124.221038 174.951994 123.888656 174.619611
C 123.556273 174.287228 123.105402 174.100471 122.635341 174.100471
C 122.165281 174.100471 121.71441 174.287228 121.382027 174.619611
C 121.049645 174.951994 120.862888 175.402865 120.862888 175.872925
C 120.862888 176.342985 121.049645 176.793856 121.382027 177.126239
C 121.71441 177.458622 122.165281 177.645379 122.635341 177.645379
z
" style="stroke:#000000;stroke-width:0.886227;"/>
    <path clip-path="url(#pdc44cfbb91)" d="M 235.270592 246.765379
C 235.740652 246.765379 236.191523 246.578622 236.523906 246.246239
C 236.856289 245.913856 237.043046 245.462985 237.043046 244.992925
C 237.043046 244.522865 236.856289 244.071994 236.523906 243.739611
C 236.191523 243.407228 235.740652 243.220471 235.270592 243.220471
C 234.800532 243.220471 234.349661 243.407228 234.017278 243.739611
C 233.684895 244.071994 233.498138 244.522865 233.498138 244.992925
C 233.498138 245.462985 233.684895 245.913856 234.017278 246.246239
C 234.349661 246.578622 234.800532 246.765379 235.270592 246.765379
z
" style="stroke:#000000;stroke-width:0.886227;"/>
    <path clip-path="url(#pdc44cfbb91)" d="M 347.905842 192.456807
C 348.375903 192.456807 348.826774 192.27005 349.159157 191.937668
C 349.491539 191.605285 349.678296 191.154414 349.678296 190.684353
C 349.678296 190.214293 349.491539 189.763422 349.159157 189.431039
C 348.826774 189.098657 348.375903 188.9119 347.905842 188.9119
C 347.435782 188.9119 346.984911 189.098657 346.652528 189.431039
C 346.320145 189.763422 346.133389 190.214293 346.133389 190.684353
C 346.133389 191.154414 346.320145 191.605285 346.652528 191.937668
C 346.984911 192.27005 347.435782 192.456807 347.905842 192.456807
z
" style="stroke:#000000;stroke-width:0.886227;"/>
    <path clip-path="url(#pdc44cfbb91)" d="M 182.265768 73.965379
C 182.735828 73.965379 183.1867 73.778622 183.519082 73.446239
C 183.851465 73.113856 184.038222 72.662985 184.038222 72.192925
C 184.038222 71.722865 183.851465 71.271994 183.519082 70.939611
C 183.1867 70.607228 182.735828 70.420471 182.265768 70.420471
C 181.795708 70.420471 181.344837 70.607228 181.012454 70.939611
C 180.680071 71.271994 180.493314 71.722865 180.493314 72.192925
C 180.493314 72.662985 180.680071 73.113856 181.012454 73.446239
C 181.344837 73.778622 181.795708 73.965379 182.265768 73.965379
z
" style="stroke:#000000;stroke-width:0.886227;"/>
    <path clip-path="url(#pdc44cfbb91)" d="M 142.51215 128.27395
C 142.982211 128.27395 143.433082 128.087193 143.765465 127.75481
C 144.097847 127.422428 144.284604 126.971557 144.284604 126.501496
C 144.284604 126.031436 144.097847 125.580565 143.765465 125.248182
C 143.433082 124.915799 142.982211 124.729043 142.51215 124.729043
C 142.04209 124.729043 141.591219 124.915799 141.258836 125.248182
C 140.926453 125.580565 140.739697 126.031436 140.739697 126.501496
C 140.739697 126.971557 140.926453 127.422428 141.258836 127.75481
C 141.591219 128.087193 142.04209 128.27395 142.51215 128.27395
z
" style="stroke:#000000;stroke-width:0.886227;"/>
    <path clip-path="url(#pdc44cfbb91)" d="M 96.13293 54.216807
C 96.60299 54.216807 97.053861 54.03005 97.386244 53.697668
C 97.718627 53.365285 97.905383 52.914414 97.905383 52.444353
C 97.905383 51.974293 97.718627 51.523422 97.386244 51.191039
C 97.053861 50.858657 96.60299 50.6719 96.13293 50.6719
C 95.662869 50.6719 95.211998 50.858657 94.879615 51.191039
C 94.547233 51.523422 94.360476 51.974293 94.360476 52.444353
C 94.360476 52.914414 94.547233 53.365285 94.879615 53.697668
C 95.211998 54.03005 95.662869 54.216807 96.13293 54.216807
z
" style="stroke:#000000;stroke-width:0.886227;"/>
    <path clip-path="url(#pdc44cfbb91)" d="M 248.521798 212.205379
C 248.991858 212.205379 249.442729 212.018622 249.775112 211.686239
C 250.107495 211.353856 250.294252 210.902985 250.294252 210.432925
C 250.294252 209.962865 250.107495 209.511994 249.775112 209.179611
C 249.442729 208.847228 248.991858 208.660471 248.521798 208.660471
C 248.051738 208.660471 247.600867 208.847228 247.268484 209.179611
C 246.936101 209.511994 246.749344 209.962865 246.749344 210.432925
C 246.749344 210.902985 246.936101 211.353856 247.268484 211.686239
C 247.600867 212.018622 248.051738 212.205379 248.521798 212.205379
z
" style="stroke:#000000;stroke-width:0.886227;"/>
   </g>
  </g>
  <g id="text_13">
   <!-- GSVA $v.s.$ CAMERA pathway ranking -->
   <defs>
    <path d="M 7.171875 54.6875
L 16.703125 54.6875
L 24.703125 8.203125
L 50.875 54.6875
L 60.40625 54.6875
L 29.296875 0
L 17.1875 0
z
" id="DejaVuSans-Oblique-118"/>
    <path d="M 10.6875 12.40625
L 21 12.40625
L 21 0
L 10.6875 0
z
" id="DejaVuSans-46"/>
    <path d="M 50 53.078125
L 48.296875 44.578125
Q 44.734375 46.53125 40.765625 47.5
Q 36.8125 48.484375 32.625 48.484375
Q 25.53125 48.484375 21.453125 46.0625
Q 17.390625 43.65625 17.390625 39.5
Q 17.390625 34.671875 26.859375 32.078125
Q 27.59375 31.890625 27.9375 31.78125
L 30.8125 30.90625
Q 39.796875 28.421875 42.796875 25.6875
Q 45.796875 22.953125 45.796875 18.21875
Q 45.796875 9.515625 38.890625 4.046875
Q 31.984375 -1.421875 20.796875 -1.421875
Q 16.453125 -1.421875 11.671875 -0.578125
Q 6.890625 0.25 1.125 2
L 2.875 11.28125
Q 7.8125 8.734375 12.59375 7.421875
Q 17.390625 6.109375 21.78125 6.109375
Q 28.375 6.109375 32.5 8.9375
Q 36.625 11.765625 36.625 16.109375
Q 36.625 20.796875 25.78125 23.6875
L 24.859375 23.921875
L 21.78125 24.703125
Q 14.9375 26.515625 11.765625 29.46875
Q 8.59375 32.421875 8.59375 37.015625
Q 8.59375 45.75 15.15625 50.875
Q 21.734375 56 33.015625 56
Q 37.453125 56 41.671875 55.265625
Q 45.90625 54.546875 50 53.078125
z
" id="DejaVuSans-Oblique-115"/>
   </defs>
   <g transform="translate(80.597188 11.4)scale(0.15 -0.15)">
    <use transform="translate(0 0.015625)" xlink:href="#DejaVuSans-71"/>
    <use transform="translate(77.490234 0.015625)" xlink:href="#DejaVuSans-83"/>
    <use transform="translate(140.966797 0.015625)" xlink:href="#DejaVuSans-86"/>
    <use transform="translate(209.375 0.015625)" xlink:href="#DejaVuSans-65"/>
    <use transform="translate(277.783203 0.015625)" xlink:href="#DejaVuSans-32"/>
    <use transform="translate(309.570312 0.015625)" xlink:href="#DejaVuSans-Oblique-118"/>
    <use transform="translate(368.75 0.015625)" xlink:href="#DejaVuSans-46"/>
    <use transform="translate(420.019531 0.015625)" xlink:href="#DejaVuSans-Oblique-115"/>
    <use transform="translate(472.119141 0.015625)" xlink:href="#DejaVuSans-46"/>
    <use transform="translate(523.388672 0.015625)" xlink:href="#DejaVuSans-32"/>
    <use transform="translate(555.175781 0.015625)" xlink:href="#DejaVuSans-67"/>
    <use transform="translate(625 0.015625)" xlink:href="#DejaVuSans-65"/>
    <use transform="translate(693.408203 0.015625)" xlink:href="#DejaVuSans-77"/>
    <use transform="translate(779.6875 0.015625)" xlink:href="#DejaVuSans-69"/>
    <use transform="translate(842.871094 0.015625)" xlink:href="#DejaVuSans-82"/>
    <use transform="translate(912.353516 0.015625)" xlink:href="#DejaVuSans-65"/>
    <use transform="translate(980.761719 0.015625)" xlink:href="#DejaVuSans-32"/>
    <use transform="translate(1012.548828 0.015625)" xlink:href="#DejaVuSans-112"/>
    <use transform="translate(1076.025391 0.015625)" xlink:href="#DejaVuSans-97"/>
    <use transform="translate(1137.304688 0.015625)" xlink:href="#DejaVuSans-116"/>
    <use transform="translate(1176.513672 0.015625)" xlink:href="#DejaVuSans-104"/>
    <use transform="translate(1239.892578 0.015625)" xlink:href="#DejaVuSans-119"/>
    <use transform="translate(1321.679688 0.015625)" xlink:href="#DejaVuSans-97"/>
    <use transform="translate(1382.958984 0.015625)" xlink:href="#DejaVuSans-121"/>
    <use transform="translate(1442.138672 0.015625)" xlink:href="#DejaVuSans-32"/>
    <use transform="translate(1473.925781 0.015625)" xlink:href="#DejaVuSans-114"/>
    <use transform="translate(1515.039062 0.015625)" xlink:href="#DejaVuSans-97"/>
    <use transform="translate(1576.318359 0.015625)" xlink:href="#DejaVuSans-110"/>
    <use transform="translate(1639.697266 0.015625)" xlink:href="#DejaVuSans-107"/>
    <use transform="translate(1697.607422 0.015625)" xlink:href="#DejaVuSans-105"/>
    <use transform="translate(1725.390625 0.015625)" xlink:href="#DejaVuSans-110"/>
    <use transform="translate(1788.769531 0.015625)" xlink:href="#DejaVuSans-103"/>
   </g>
  </g>
 </g>
 <defs>
  <clipPath id="pdc44cfbb91">
   <rect height="266.112" width="357.12" x="46.772188" y="20.599782"/>
  </clipPath>
 </defs>
</svg>
