<?xml version="1.0" encoding="utf-8" standalone="no"?>
<!DOCTYPE svg PUBLIC "-//W3C//DTD SVG 1.1//EN"
  "http://www.w3.org/Graphics/SVG/1.1/DTD/svg11.dtd">
<!-- Created with matplotlib (https://matplotlib.org/) -->
<svg height="322.176313pt" version="1.1" viewBox="0 0 410.455938 322.176313" width="410.455938pt" xmlns="http://www.w3.org/2000/svg" xmlns:xlink="http://www.w3.org/1999/xlink">
 <defs>
  <style type="text/css">
*{stroke-linecap:butt;stroke-linejoin:round;}
  </style>
 </defs>
 <g id="figure_1">
  <g id="patch_1">
   <path d="M 0 322.176313 
L 410.455938 322.176313 
L 410.455938 0 
L 0 0 
z
" style="fill:#ffffff;stroke:#ffffff;stroke-linejoin:miter;"/>
  </g>
  <g id="axes_1">
   <g id="patch_2">
    <path d="M 50.585938 286.695376 
L 407.705938 286.695376 
L 407.705938 20.583376 
L 50.585938 20.583376 
z
" style="fill:none;"/>
   </g>
   <g id="matplotlib.axis_1">
    <g id="xtick_1">
     <g id="line2d_1">
      <path clip-path="url(#pbef4457f43)" d="M 75.556991 286.695376 
L 75.556991 20.583376 
" style="fill:none;stroke:#e5e5e5;stroke-width:0.8;"/>
     </g>
     <g id="line2d_2">
      <path d="M 75.556991 286.695376 
" style="fill:none;stroke:#000000;stroke-width:1.5;"/>
      <defs>
       <path d="M 0 0 
L 0 2.75 
" id="mcc21b06b2f" style="stroke:#000000;"/>
      </defs>
      <g>
       <use style="stroke:#000000;" x="75.556991" xlink:href="#mcc21b06b2f" y="286.695376"/>
      </g>
     </g>
     <g id="text_1">
      <!-- −0.2 -->
      <defs>
       <path d="M 10.59375 35.5 
L 73.1875 35.5 
L 73.1875 27.203125 
L 10.59375 27.203125 
z
" id="DejaVuSans-8722"/>
       <path d="M 31.78125 66.40625 
Q 24.171875 66.40625 20.328125 58.90625 
Q 16.5 51.421875 16.5 36.375 
Q 16.5 21.390625 20.328125 13.890625 
Q 24.171875 6.390625 31.78125 6.390625 
Q 39.453125 6.390625 43.28125 13.890625 
Q 47.125 21.390625 47.125 36.375 
Q 47.125 51.421875 43.28125 58.90625 
Q 39.453125 66.40625 31.78125 66.40625 
z
M 31.78125 74.21875 
Q 44.046875 74.21875 50.515625 64.515625 
Q 56.984375 54.828125 56.984375 36.375 
Q 56.984375 17.96875 50.515625 8.265625 
Q 44.046875 -1.421875 31.78125 -1.421875 
Q 19.53125 -1.421875 13.0625 8.265625 
Q 6.59375 17.96875 6.59375 36.375 
Q 6.59375 54.828125 13.0625 64.515625 
Q 19.53125 74.21875 31.78125 74.21875 
z
" id="DejaVuSans-48"/>
       <path d="M 10.6875 12.40625 
L 21 12.40625 
L 21 0 
L 10.6875 0 
z
" id="DejaVuSans-46"/>
       <path d="M 19.1875 8.296875 
L 53.609375 8.296875 
L 53.609375 0 
L 7.328125 0 
L 7.328125 8.296875 
Q 12.9375 14.109375 22.625 23.890625 
Q 32.328125 33.6875 34.8125 36.53125 
Q 39.546875 41.84375 41.421875 45.53125 
Q 43.3125 49.21875 43.3125 52.78125 
Q 43.3125 58.59375 39.234375 62.25 
Q 35.15625 65.921875 28.609375 65.921875 
Q 23.96875 65.921875 18.8125 64.3125 
Q 13.671875 62.703125 7.8125 59.421875 
L 7.8125 69.390625 
Q 13.765625 71.78125 18.9375 73 
Q 24.125 74.21875 28.421875 74.21875 
Q 39.75 74.21875 46.484375 68.546875 
Q 53.21875 62.890625 53.21875 53.421875 
Q 53.21875 48.921875 51.53125 44.890625 
Q 49.859375 40.875 45.40625 35.40625 
Q 44.1875 33.984375 37.640625 27.21875 
Q 31.109375 20.453125 19.1875 8.296875 
z
" id="DejaVuSans-50"/>
      </defs>
      <g style="fill:#4d4d4d;" transform="translate(60.987303 300.763501)scale(0.12 -0.12)">
       <use xlink:href="#DejaVuSans-8722"/>
       <use x="83.789062" xlink:href="#DejaVuSans-48"/>
       <use x="147.412109" xlink:href="#DejaVuSans-46"/>
       <use x="179.199219" xlink:href="#DejaVuSans-50"/>
      </g>
     </g>
    </g>
    <g id="xtick_2">
     <g id="line2d_3">
      <path clip-path="url(#pbef4457f43)" d="M 170.671152 286.695376 
L 170.671152 20.583376 
" style="fill:none;stroke:#e5e5e5;stroke-width:0.8;"/>
     </g>
     <g id="line2d_4">
      <path d="M 170.671152 286.695376 
" style="fill:none;stroke:#000000;stroke-width:1.5;"/>
      <g>
       <use style="stroke:#000000;" x="170.671152" xlink:href="#mcc21b06b2f" y="286.695376"/>
      </g>
     </g>
     <g id="text_2">
      <!-- −0.1 -->
      <defs>
       <path d="M 12.40625 8.296875 
L 28.515625 8.296875 
L 28.515625 63.921875 
L 10.984375 60.40625 
L 10.984375 69.390625 
L 28.421875 72.90625 
L 38.28125 72.90625 
L 38.28125 8.296875 
L 54.390625 8.296875 
L 54.390625 0 
L 12.40625 0 
z
" id="DejaVuSans-49"/>
      </defs>
      <g style="fill:#4d4d4d;" transform="translate(156.101464 300.763501)scale(0.12 -0.12)">
       <use xlink:href="#DejaVuSans-8722"/>
       <use x="83.789062" xlink:href="#DejaVuSans-48"/>
       <use x="147.412109" xlink:href="#DejaVuSans-46"/>
       <use x="179.199219" xlink:href="#DejaVuSans-49"/>
      </g>
     </g>
    </g>
    <g id="xtick_3">
     <g id="line2d_5">
      <path clip-path="url(#pbef4457f43)" d="M 265.785313 286.695376 
L 265.785313 20.583376 
" style="fill:none;stroke:#e5e5e5;stroke-width:0.8;"/>
     </g>
     <g id="line2d_6">
      <path d="M 265.785313 286.695376 
" style="fill:none;stroke:#000000;stroke-width:1.5;"/>
      <g>
       <use style="stroke:#000000;" x="265.785313" xlink:href="#mcc21b06b2f" y="286.695376"/>
      </g>
     </g>
     <g id="text_3">
      <!-- 0 -->
      <g style="fill:#4d4d4d;" transform="translate(261.967813 300.763501)scale(0.12 -0.12)">
       <use xlink:href="#DejaVuSans-48"/>
      </g>
     </g>
    </g>
    <g id="xtick_4">
     <g id="line2d_7">
      <path clip-path="url(#pbef4457f43)" d="M 360.899474 286.695376 
L 360.899474 20.583376 
" style="fill:none;stroke:#e5e5e5;stroke-width:0.8;"/>
     </g>
     <g id="line2d_8">
      <path d="M 360.899474 286.695376 
" style="fill:none;stroke:#000000;stroke-width:1.5;"/>
      <g>
       <use style="stroke:#000000;" x="360.899474" xlink:href="#mcc21b06b2f" y="286.695376"/>
      </g>
     </g>
     <g id="text_4">
      <!-- 0.1 -->
      <g style="fill:#4d4d4d;" transform="translate(351.357599 300.763501)scale(0.12 -0.12)">
       <use xlink:href="#DejaVuSans-48"/>
       <use x="63.623047" xlink:href="#DejaVuSans-46"/>
       <use x="95.410156" xlink:href="#DejaVuSans-49"/>
      </g>
     </g>
    </g>
    <g id="xtick_5">
     <g id="line2d_9">
      <path clip-path="url(#pbef4457f43)" d="M 123.114071 286.695376 
L 123.114071 20.583376 
" style="fill:none;stroke:#fafafa;"/>
     </g>
     <g id="line2d_10">
      <path d="M 123.114071 286.695376 
" style="fill:none;stroke:#000000;stroke-width:1.5;"/>
     </g>
    </g>
    <g id="xtick_6">
     <g id="line2d_11">
      <path clip-path="url(#pbef4457f43)" d="M 218.228232 286.695376 
L 218.228232 20.583376 
" style="fill:none;stroke:#fafafa;"/>
     </g>
     <g id="line2d_12">
      <path d="M 218.228232 286.695376 
" style="fill:none;stroke:#000000;stroke-width:1.5;"/>
     </g>
    </g>
    <g id="xtick_7">
     <g id="line2d_13">
      <path clip-path="url(#pbef4457f43)" d="M 313.342393 286.695376 
L 313.342393 20.583376 
" style="fill:none;stroke:#fafafa;"/>
     </g>
     <g id="line2d_14">
      <path d="M 313.342393 286.695376 
" style="fill:none;stroke:#000000;stroke-width:1.5;"/>
     </g>
    </g>
    <g id="text_5">
     <!-- Enrichment score -->
     <defs>
      <path d="M 9.8125 72.90625 
L 55.90625 72.90625 
L 55.90625 64.59375 
L 19.671875 64.59375 
L 19.671875 43.015625 
L 54.390625 43.015625 
L 54.390625 34.71875 
L 19.671875 34.71875 
L 19.671875 8.296875 
L 56.78125 8.296875 
L 56.78125 0 
L 9.8125 0 
z
" id="DejaVuSans-69"/>
      <path d="M 54.890625 33.015625 
L 54.890625 0 
L 45.90625 0 
L 45.90625 32.71875 
Q 45.90625 40.484375 42.875 44.328125 
Q 39.84375 48.1875 33.796875 48.1875 
Q 26.515625 48.1875 22.3125 43.546875 
Q 18.109375 38.921875 18.109375 30.90625 
L 18.109375 0 
L 9.078125 0 
L 9.078125 54.6875 
L 18.109375 54.6875 
L 18.109375 46.1875 
Q 21.34375 51.125 25.703125 53.5625 
Q 30.078125 56 35.796875 56 
Q 45.21875 56 50.046875 50.171875 
Q 54.890625 44.34375 54.890625 33.015625 
z
" id="DejaVuSans-110"/>
      <path d="M 41.109375 46.296875 
Q 39.59375 47.171875 37.8125 47.578125 
Q 36.03125 48 33.890625 48 
Q 26.265625 48 22.1875 43.046875 
Q 18.109375 38.09375 18.109375 28.8125 
L 18.109375 0 
L 9.078125 0 
L 9.078125 54.6875 
L 18.109375 54.6875 
L 18.109375 46.1875 
Q 20.953125 51.171875 25.484375 53.578125 
Q 30.03125 56 36.53125 56 
Q 37.453125 56 38.578125 55.875 
Q 39.703125 55.765625 41.0625 55.515625 
z
" id="DejaVuSans-114"/>
      <path d="M 9.421875 54.6875 
L 18.40625 54.6875 
L 18.40625 0 
L 9.421875 0 
z
M 9.421875 75.984375 
L 18.40625 75.984375 
L 18.40625 64.59375 
L 9.421875 64.59375 
z
" id="DejaVuSans-105"/>
      <path d="M 48.78125 52.59375 
L 48.78125 44.1875 
Q 44.96875 46.296875 41.140625 47.34375 
Q 37.3125 48.390625 33.40625 48.390625 
Q 24.65625 48.390625 19.8125 42.84375 
Q 14.984375 37.3125 14.984375 27.296875 
Q 14.984375 17.28125 19.8125 11.734375 
Q 24.65625 6.203125 33.40625 6.203125 
Q 37.3125 6.203125 41.140625 7.25 
Q 44.96875 8.296875 48.78125 10.40625 
L 48.78125 2.09375 
Q 45.015625 0.34375 40.984375 -0.53125 
Q 36.96875 -1.421875 32.421875 -1.421875 
Q 20.0625 -1.421875 12.78125 6.34375 
Q 5.515625 14.109375 5.515625 27.296875 
Q 5.515625 40.671875 12.859375 48.328125 
Q 20.21875 56 33.015625 56 
Q 37.15625 56 41.109375 55.140625 
Q 45.0625 54.296875 48.78125 52.59375 
z
" id="DejaVuSans-99"/>
      <path d="M 54.890625 33.015625 
L 54.890625 0 
L 45.90625 0 
L 45.90625 32.71875 
Q 45.90625 40.484375 42.875 44.328125 
Q 39.84375 48.1875 33.796875 48.1875 
Q 26.515625 48.1875 22.3125 43.546875 
Q 18.109375 38.921875 18.109375 30.90625 
L 18.109375 0 
L 9.078125 0 
L 9.078125 75.984375 
L 18.109375 75.984375 
L 18.109375 46.1875 
Q 21.34375 51.125 25.703125 53.5625 
Q 30.078125 56 35.796875 56 
Q 45.21875 56 50.046875 50.171875 
Q 54.890625 44.34375 54.890625 33.015625 
z
" id="DejaVuSans-104"/>
      <path d="M 52 44.1875 
Q 55.375 50.25 60.0625 53.125 
Q 64.75 56 71.09375 56 
Q 79.640625 56 84.28125 50.015625 
Q 88.921875 44.046875 88.921875 33.015625 
L 88.921875 0 
L 79.890625 0 
L 79.890625 32.71875 
Q 79.890625 40.578125 77.09375 44.375 
Q 74.3125 48.1875 68.609375 48.1875 
Q 61.625 48.1875 57.5625 43.546875 
Q 53.515625 38.921875 53.515625 30.90625 
L 53.515625 0 
L 44.484375 0 
L 44.484375 32.71875 
Q 44.484375 40.625 41.703125 44.40625 
Q 38.921875 48.1875 33.109375 48.1875 
Q 26.21875 48.1875 22.15625 43.53125 
Q 18.109375 38.875 18.109375 30.90625 
L 18.109375 0 
L 9.078125 0 
L 9.078125 54.6875 
L 18.109375 54.6875 
L 18.109375 46.1875 
Q 21.1875 51.21875 25.484375 53.609375 
Q 29.78125 56 35.6875 56 
Q 41.65625 56 45.828125 52.96875 
Q 50 49.953125 52 44.1875 
z
" id="DejaVuSans-109"/>
      <path d="M 56.203125 29.59375 
L 56.203125 25.203125 
L 14.890625 25.203125 
Q 15.484375 15.921875 20.484375 11.0625 
Q 25.484375 6.203125 34.421875 6.203125 
Q 39.59375 6.203125 44.453125 7.46875 
Q 49.3125 8.734375 54.109375 11.28125 
L 54.109375 2.78125 
Q 49.265625 0.734375 44.1875 -0.34375 
Q 39.109375 -1.421875 33.890625 -1.421875 
Q 20.796875 -1.421875 13.15625 6.1875 
Q 5.515625 13.8125 5.515625 26.8125 
Q 5.515625 40.234375 12.765625 48.109375 
Q 20.015625 56 32.328125 56 
Q 43.359375 56 49.78125 48.890625 
Q 56.203125 41.796875 56.203125 29.59375 
z
M 47.21875 32.234375 
Q 47.125 39.59375 43.09375 43.984375 
Q 39.0625 48.390625 32.421875 48.390625 
Q 24.90625 48.390625 20.390625 44.140625 
Q 15.875 39.890625 15.1875 32.171875 
z
" id="DejaVuSans-101"/>
      <path d="M 18.3125 70.21875 
L 18.3125 54.6875 
L 36.8125 54.6875 
L 36.8125 47.703125 
L 18.3125 47.703125 
L 18.3125 18.015625 
Q 18.3125 11.328125 20.140625 9.421875 
Q 21.96875 7.515625 27.59375 7.515625 
L 36.8125 7.515625 
L 36.8125 0 
L 27.59375 0 
Q 17.1875 0 13.234375 3.875 
Q 9.28125 7.765625 9.28125 18.015625 
L 9.28125 47.703125 
L 2.6875 47.703125 
L 2.6875 54.6875 
L 9.28125 54.6875 
L 9.28125 70.21875 
z
" id="DejaVuSans-116"/>
      <path id="DejaVuSans-32"/>
      <path d="M 44.28125 53.078125 
L 44.28125 44.578125 
Q 40.484375 46.53125 36.375 47.5 
Q 32.28125 48.484375 27.875 48.484375 
Q 21.1875 48.484375 17.84375 46.4375 
Q 14.5 44.390625 14.5 40.28125 
Q 14.5 37.15625 16.890625 35.375 
Q 19.28125 33.59375 26.515625 31.984375 
L 29.59375 31.296875 
Q 39.15625 29.25 43.1875 25.515625 
Q 47.21875 21.78125 47.21875 15.09375 
Q 47.21875 7.46875 41.1875 3.015625 
Q 35.15625 -1.421875 24.609375 -1.421875 
Q 20.21875 -1.421875 15.453125 -0.5625 
Q 10.6875 0.296875 5.421875 2 
L 5.421875 11.28125 
Q 10.40625 8.6875 15.234375 7.390625 
Q 20.0625 6.109375 24.8125 6.109375 
Q 31.15625 6.109375 34.5625 8.28125 
Q 37.984375 10.453125 37.984375 14.40625 
Q 37.984375 18.0625 35.515625 20.015625 
Q 33.0625 21.96875 24.703125 23.78125 
L 21.578125 24.515625 
Q 13.234375 26.265625 9.515625 29.90625 
Q 5.8125 33.546875 5.8125 39.890625 
Q 5.8125 47.609375 11.28125 51.796875 
Q 16.75 56 26.8125 56 
Q 31.78125 56 36.171875 55.265625 
Q 40.578125 54.546875 44.28125 53.078125 
z
" id="DejaVuSans-115"/>
      <path d="M 30.609375 48.390625 
Q 23.390625 48.390625 19.1875 42.75 
Q 14.984375 37.109375 14.984375 27.296875 
Q 14.984375 17.484375 19.15625 11.84375 
Q 23.34375 6.203125 30.609375 6.203125 
Q 37.796875 6.203125 41.984375 11.859375 
Q 46.1875 17.53125 46.1875 27.296875 
Q 46.1875 37.015625 41.984375 42.703125 
Q 37.796875 48.390625 30.609375 48.390625 
z
M 30.609375 56 
Q 42.328125 56 49.015625 48.375 
Q 55.71875 40.765625 55.71875 27.296875 
Q 55.71875 13.875 49.015625 6.21875 
Q 42.328125 -1.421875 30.609375 -1.421875 
Q 18.84375 -1.421875 12.171875 6.21875 
Q 5.515625 13.875 5.515625 27.296875 
Q 5.515625 40.765625 12.171875 48.375 
Q 18.84375 56 30.609375 56 
z
" id="DejaVuSans-111"/>
     </defs>
     <g transform="translate(157.537109 319.056782)scale(0.15 -0.15)">
      <use xlink:href="#DejaVuSans-69"/>
      <use x="63.183594" xlink:href="#DejaVuSans-110"/>
      <use x="126.5625" xlink:href="#DejaVuSans-114"/>
      <use x="167.675781" xlink:href="#DejaVuSans-105"/>
      <use x="195.458984" xlink:href="#DejaVuSans-99"/>
      <use x="250.439453" xlink:href="#DejaVuSans-104"/>
      <use x="313.818359" xlink:href="#DejaVuSans-109"/>
      <use x="411.230469" xlink:href="#DejaVuSans-101"/>
      <use x="472.753906" xlink:href="#DejaVuSans-110"/>
      <use x="536.132812" xlink:href="#DejaVuSans-116"/>
      <use x="575.341797" xlink:href="#DejaVuSans-32"/>
      <use x="607.128906" xlink:href="#DejaVuSans-115"/>
      <use x="659.228516" xlink:href="#DejaVuSans-99"/>
      <use x="714.208984" xlink:href="#DejaVuSans-111"/>
      <use x="775.390625" xlink:href="#DejaVuSans-114"/>
      <use x="816.472656" xlink:href="#DejaVuSans-101"/>
     </g>
    </g>
   </g>
   <g id="matplotlib.axis_2">
    <g id="ytick_1">
     <g id="line2d_15">
      <path clip-path="url(#pbef4457f43)" d="M 50.585938 279.536519 
L 407.705938 279.536519 
" style="fill:none;stroke:#e5e5e5;stroke-width:0.8;"/>
     </g>
     <g id="line2d_16">
      <path d="M 50.585938 279.536519 
" style="fill:none;stroke:#000000;stroke-width:1.5;"/>
      <defs>
       <path d="M 0 0 
L -2.75 0 
" id="m75472ea177" style="stroke:#000000;"/>
      </defs>
      <g>
       <use style="stroke:#000000;" x="50.585938" xlink:href="#m75472ea177" y="279.536519"/>
      </g>
     </g>
     <g id="text_6">
      <!-- 0 -->
      <g style="fill:#4d4d4d;" transform="translate(38.000938 282.847769)scale(0.12 -0.12)">
       <use xlink:href="#DejaVuSans-48"/>
      </g>
     </g>
    </g>
    <g id="ytick_2">
     <g id="line2d_17">
      <path clip-path="url(#pbef4457f43)" d="M 50.585938 217.822233 
L 407.705938 217.822233 
" style="fill:none;stroke:#e5e5e5;stroke-width:0.8;"/>
     </g>
     <g id="line2d_18">
      <path d="M 50.585938 217.822233 
" style="fill:none;stroke:#000000;stroke-width:1.5;"/>
      <g>
       <use style="stroke:#000000;" x="50.585938" xlink:href="#m75472ea177" y="217.822233"/>
      </g>
     </g>
     <g id="text_7">
      <!-- 0.25 -->
      <defs>
       <path d="M 10.796875 72.90625 
L 49.515625 72.90625 
L 49.515625 64.59375 
L 19.828125 64.59375 
L 19.828125 46.734375 
Q 21.96875 47.46875 24.109375 47.828125 
Q 26.265625 48.1875 28.421875 48.1875 
Q 40.625 48.1875 47.75 41.5 
Q 54.890625 34.8125 54.890625 23.390625 
Q 54.890625 11.625 47.5625 5.09375 
Q 40.234375 -1.421875 26.90625 -1.421875 
Q 22.3125 -1.421875 17.546875 -0.640625 
Q 12.796875 0.140625 7.71875 1.703125 
L 7.71875 11.625 
Q 12.109375 9.234375 16.796875 8.0625 
Q 21.484375 6.890625 26.703125 6.890625 
Q 35.15625 6.890625 40.078125 11.328125 
Q 45.015625 15.765625 45.015625 23.390625 
Q 45.015625 31 40.078125 35.4375 
Q 35.15625 39.890625 26.703125 39.890625 
Q 22.75 39.890625 18.8125 39.015625 
Q 14.890625 38.140625 10.796875 36.28125 
z
" id="DejaVuSans-53"/>
      </defs>
      <g style="fill:#4d4d4d;" transform="translate(18.917188 221.133483)scale(0.12 -0.12)">
       <use xlink:href="#DejaVuSans-48"/>
       <use x="63.623047" xlink:href="#DejaVuSans-46"/>
       <use x="95.410156" xlink:href="#DejaVuSans-50"/>
       <use x="159.033203" xlink:href="#DejaVuSans-53"/>
      </g>
     </g>
    </g>
    <g id="ytick_3">
     <g id="line2d_19">
      <path clip-path="url(#pbef4457f43)" d="M 50.585938 156.107947 
L 407.705938 156.107947 
" style="fill:none;stroke:#e5e5e5;stroke-width:0.8;"/>
     </g>
     <g id="line2d_20">
      <path d="M 50.585938 156.107947 
" style="fill:none;stroke:#000000;stroke-width:1.5;"/>
      <g>
       <use style="stroke:#000000;" x="50.585938" xlink:href="#m75472ea177" y="156.107947"/>
      </g>
     </g>
     <g id="text_8">
      <!-- 0.50 -->
      <g style="fill:#4d4d4d;" transform="translate(18.917188 159.419197)scale(0.12 -0.12)">
       <use xlink:href="#DejaVuSans-48"/>
       <use x="63.623047" xlink:href="#DejaVuSans-46"/>
       <use x="95.410156" xlink:href="#DejaVuSans-53"/>
       <use x="159.033203" xlink:href="#DejaVuSans-48"/>
      </g>
     </g>
    </g>
    <g id="ytick_4">
     <g id="line2d_21">
      <path clip-path="url(#pbef4457f43)" d="M 50.585938 94.393662 
L 407.705938 94.393662 
" style="fill:none;stroke:#e5e5e5;stroke-width:0.8;"/>
     </g>
     <g id="line2d_22">
      <path d="M 50.585938 94.393662 
" style="fill:none;stroke:#000000;stroke-width:1.5;"/>
      <g>
       <use style="stroke:#000000;" x="50.585938" xlink:href="#m75472ea177" y="94.393662"/>
      </g>
     </g>
     <g id="text_9">
      <!-- 0.75 -->
      <defs>
       <path d="M 8.203125 72.90625 
L 55.078125 72.90625 
L 55.078125 68.703125 
L 28.609375 0 
L 18.3125 0 
L 43.21875 64.59375 
L 8.203125 64.59375 
z
" id="DejaVuSans-55"/>
      </defs>
      <g style="fill:#4d4d4d;" transform="translate(18.917188 97.704912)scale(0.12 -0.12)">
       <use xlink:href="#DejaVuSans-48"/>
       <use x="63.623047" xlink:href="#DejaVuSans-46"/>
       <use x="95.410156" xlink:href="#DejaVuSans-55"/>
       <use x="159.033203" xlink:href="#DejaVuSans-53"/>
      </g>
     </g>
    </g>
    <g id="ytick_5">
     <g id="line2d_23">
      <path clip-path="url(#pbef4457f43)" d="M 50.585938 32.679376 
L 407.705938 32.679376 
" style="fill:none;stroke:#e5e5e5;stroke-width:0.8;"/>
     </g>
     <g id="line2d_24">
      <path d="M 50.585938 32.679376 
" style="fill:none;stroke:#000000;stroke-width:1.5;"/>
      <g>
       <use style="stroke:#000000;" x="50.585938" xlink:href="#m75472ea177" y="32.679376"/>
      </g>
     </g>
     <g id="text_10">
      <!-- 1 -->
      <g style="fill:#4d4d4d;" transform="translate(38.000938 35.990626)scale(0.12 -0.12)">
       <use xlink:href="#DejaVuSans-49"/>
      </g>
     </g>
    </g>
    <g id="ytick_6">
     <g id="line2d_25">
      <path clip-path="url(#pbef4457f43)" d="M 50.585938 248.679376 
L 407.705938 248.679376 
" style="fill:none;stroke:#fafafa;"/>
     </g>
     <g id="line2d_26">
      <path d="M 50.585938 248.679376 
" style="fill:none;stroke:#000000;stroke-width:1.5;"/>
     </g>
    </g>
    <g id="ytick_7">
     <g id="line2d_27">
      <path clip-path="url(#pbef4457f43)" d="M 50.585938 186.96509 
L 407.705938 186.96509 
" style="fill:none;stroke:#fafafa;"/>
     </g>
     <g id="line2d_28">
      <path d="M 50.585938 186.96509 
" style="fill:none;stroke:#000000;stroke-width:1.5;"/>
     </g>
    </g>
    <g id="ytick_8">
     <g id="line2d_29">
      <path clip-path="url(#pbef4457f43)" d="M 50.585938 125.250804 
L 407.705938 125.250804 
" style="fill:none;stroke:#fafafa;"/>
     </g>
     <g id="line2d_30">
      <path d="M 50.585938 125.250804 
" style="fill:none;stroke:#000000;stroke-width:1.5;"/>
     </g>
    </g>
    <g id="ytick_9">
     <g id="line2d_31">
      <path clip-path="url(#pbef4457f43)" d="M 50.585938 63.536519 
L 407.705938 63.536519 
" style="fill:none;stroke:#fafafa;"/>
     </g>
     <g id="line2d_32">
      <path d="M 50.585938 63.536519 
" style="fill:none;stroke:#000000;stroke-width:1.5;"/>
     </g>
    </g>
    <g id="text_11">
     <!-- Percentile of ranking -->
     <defs>
      <path d="M 19.671875 64.796875 
L 19.671875 37.40625 
L 32.078125 37.40625 
Q 38.96875 37.40625 42.71875 40.96875 
Q 46.484375 44.53125 46.484375 51.125 
Q 46.484375 57.671875 42.71875 61.234375 
Q 38.96875 64.796875 32.078125 64.796875 
z
M 9.8125 72.90625 
L 32.078125 72.90625 
Q 44.34375 72.90625 50.609375 67.359375 
Q 56.890625 61.8125 56.890625 51.125 
Q 56.890625 40.328125 50.609375 34.8125 
Q 44.34375 29.296875 32.078125 29.296875 
L 19.671875 29.296875 
L 19.671875 0 
L 9.8125 0 
z
" id="DejaVuSans-80"/>
      <path d="M 9.421875 75.984375 
L 18.40625 75.984375 
L 18.40625 0 
L 9.421875 0 
z
" id="DejaVuSans-108"/>
      <path d="M 37.109375 75.984375 
L 37.109375 68.5 
L 28.515625 68.5 
Q 23.6875 68.5 21.796875 66.546875 
Q 19.921875 64.59375 19.921875 59.515625 
L 19.921875 54.6875 
L 34.71875 54.6875 
L 34.71875 47.703125 
L 19.921875 47.703125 
L 19.921875 0 
L 10.890625 0 
L 10.890625 47.703125 
L 2.296875 47.703125 
L 2.296875 54.6875 
L 10.890625 54.6875 
L 10.890625 58.5 
Q 10.890625 67.625 15.140625 71.796875 
Q 19.390625 75.984375 28.609375 75.984375 
z
" id="DejaVuSans-102"/>
      <path d="M 34.28125 27.484375 
Q 23.390625 27.484375 19.1875 25 
Q 14.984375 22.515625 14.984375 16.5 
Q 14.984375 11.71875 18.140625 8.90625 
Q 21.296875 6.109375 26.703125 6.109375 
Q 34.1875 6.109375 38.703125 11.40625 
Q 43.21875 16.703125 43.21875 25.484375 
L 43.21875 27.484375 
z
M 52.203125 31.203125 
L 52.203125 0 
L 43.21875 0 
L 43.21875 8.296875 
Q 40.140625 3.328125 35.546875 0.953125 
Q 30.953125 -1.421875 24.3125 -1.421875 
Q 15.921875 -1.421875 10.953125 3.296875 
Q 6 8.015625 6 15.921875 
Q 6 25.140625 12.171875 29.828125 
Q 18.359375 34.515625 30.609375 34.515625 
L 43.21875 34.515625 
L 43.21875 35.40625 
Q 43.21875 41.609375 39.140625 45 
Q 35.0625 48.390625 27.6875 48.390625 
Q 23 48.390625 18.546875 47.265625 
Q 14.109375 46.140625 10.015625 43.890625 
L 10.015625 52.203125 
Q 14.9375 54.109375 19.578125 55.046875 
Q 24.21875 56 28.609375 56 
Q 40.484375 56 46.34375 49.84375 
Q 52.203125 43.703125 52.203125 31.203125 
z
" id="DejaVuSans-97"/>
      <path d="M 9.078125 75.984375 
L 18.109375 75.984375 
L 18.109375 31.109375 
L 44.921875 54.6875 
L 56.390625 54.6875 
L 27.390625 29.109375 
L 57.625 0 
L 45.90625 0 
L 18.109375 26.703125 
L 18.109375 0 
L 9.078125 0 
z
" id="DejaVuSans-107"/>
      <path d="M 45.40625 27.984375 
Q 45.40625 37.75 41.375 43.109375 
Q 37.359375 48.484375 30.078125 48.484375 
Q 22.859375 48.484375 18.828125 43.109375 
Q 14.796875 37.75 14.796875 27.984375 
Q 14.796875 18.265625 18.828125 12.890625 
Q 22.859375 7.515625 30.078125 7.515625 
Q 37.359375 7.515625 41.375 12.890625 
Q 45.40625 18.265625 45.40625 27.984375 
z
M 54.390625 6.78125 
Q 54.390625 -7.171875 48.1875 -13.984375 
Q 42 -20.796875 29.203125 -20.796875 
Q 24.46875 -20.796875 20.265625 -20.09375 
Q 16.0625 -19.390625 12.109375 -17.921875 
L 12.109375 -9.1875 
Q 16.0625 -11.328125 19.921875 -12.34375 
Q 23.78125 -13.375 27.78125 -13.375 
Q 36.625 -13.375 41.015625 -8.765625 
Q 45.40625 -4.15625 45.40625 5.171875 
L 45.40625 9.625 
Q 42.625 4.78125 38.28125 2.390625 
Q 33.9375 0 27.875 0 
Q 17.828125 0 11.671875 7.65625 
Q 5.515625 15.328125 5.515625 27.984375 
Q 5.515625 40.671875 11.671875 48.328125 
Q 17.828125 56 27.875 56 
Q 33.9375 56 38.28125 53.609375 
Q 42.625 51.21875 45.40625 46.390625 
L 45.40625 54.6875 
L 54.390625 54.6875 
z
" id="DejaVuSans-103"/>
     </defs>
     <g transform="translate(11.397656 229.709813)rotate(-90)scale(0.15 -0.15)">
      <use xlink:href="#DejaVuSans-80"/>
      <use x="60.255859" xlink:href="#DejaVuSans-101"/>
      <use x="121.779297" xlink:href="#DejaVuSans-114"/>
      <use x="162.861328" xlink:href="#DejaVuSans-99"/>
      <use x="217.841797" xlink:href="#DejaVuSans-101"/>
      <use x="279.365234" xlink:href="#DejaVuSans-110"/>
      <use x="342.744141" xlink:href="#DejaVuSans-116"/>
      <use x="381.953125" xlink:href="#DejaVuSans-105"/>
      <use x="409.736328" xlink:href="#DejaVuSans-108"/>
      <use x="437.519531" xlink:href="#DejaVuSans-101"/>
      <use x="499.042969" xlink:href="#DejaVuSans-32"/>
      <use x="530.830078" xlink:href="#DejaVuSans-111"/>
      <use x="592.011719" xlink:href="#DejaVuSans-102"/>
      <use x="627.216797" xlink:href="#DejaVuSans-32"/>
      <use x="659.003906" xlink:href="#DejaVuSans-114"/>
      <use x="700.117188" xlink:href="#DejaVuSans-97"/>
      <use x="761.396484" xlink:href="#DejaVuSans-110"/>
      <use x="824.775391" xlink:href="#DejaVuSans-107"/>
      <use x="882.685547" xlink:href="#DejaVuSans-105"/>
      <use x="910.46875" xlink:href="#DejaVuSans-110"/>
      <use x="973.847656" xlink:href="#DejaVuSans-103"/>
     </g>
    </g>
   </g>
   <g id="PathCollection_1">
    <path clip-path="url(#pbef4457f43)" d="M 66.818665 34.45183 
C 67.288725 34.45183 67.739596 34.265073 68.071979 33.93269 
C 68.404362 33.600307 68.591119 33.149436 68.591119 32.679376 
C 68.591119 32.209316 68.404362 31.758444 68.071979 31.426062 
C 67.739596 31.093679 67.288725 30.906922 66.818665 30.906922 
C 66.348605 30.906922 65.897733 31.093679 65.565351 31.426062 
C 65.232968 31.758444 65.046211 32.209316 65.046211 32.679376 
C 65.046211 33.149436 65.232968 33.600307 65.565351 33.93269 
C 65.897733 34.265073 66.348605 34.45183 66.818665 34.45183 
z
" style="stroke:#000000;stroke-width:0.886227;"/>
    <path clip-path="url(#pbef4457f43)" d="M 391.47321 113.446115 
C 391.94327 113.446115 392.394142 113.259358 392.726524 112.926976 
C 393.058907 112.594593 393.245664 112.143722 393.245664 111.673662 
C 393.245664 111.203601 393.058907 110.75273 392.726524 110.420347 
C 392.394142 110.087965 391.94327 109.901208 391.47321 109.901208 
C 391.00315 109.901208 390.552279 110.087965 390.219896 110.420347 
C 389.887513 110.75273 389.700756 111.203601 389.700756 111.673662 
C 389.700756 112.143722 389.887513 112.594593 390.219896 112.926976 
C 390.552279 113.259358 391.00315 113.446115 391.47321 113.446115 
z
" style="stroke:#000000;stroke-width:0.886227;"/>
    <path clip-path="url(#pbef4457f43)" d="M 143.223628 93.697544 
C 143.693688 93.697544 144.144559 93.510787 144.476942 93.178404 
C 144.809325 92.846021 144.996081 92.39515 144.996081 91.92509 
C 144.996081 91.45503 144.809325 91.004159 144.476942 90.671776 
C 144.144559 90.339393 143.693688 90.152636 143.223628 90.152636 
C 142.753567 90.152636 142.302696 90.339393 141.970313 90.671776 
C 141.637931 91.004159 141.451174 91.45503 141.451174 91.92509 
C 141.451174 92.39515 141.637931 92.846021 141.970313 93.178404 
C 142.302696 93.510787 142.753567 93.697544 143.223628 93.697544 
z
" style="stroke:#000000;stroke-width:0.886227;"/>
    <path clip-path="url(#pbef4457f43)" d="M 143.290552 177.628973 
C 143.760612 177.628973 144.211483 177.442216 144.543866 177.109833 
C 144.876249 176.77745 145.063006 176.326579 145.063006 175.856519 
C 145.063006 175.386458 144.876249 174.935587 144.543866 174.603205 
C 144.211483 174.270822 143.760612 174.084065 143.290552 174.084065 
C 142.820492 174.084065 142.369621 174.270822 142.037238 174.603205 
C 141.704855 174.935587 141.518098 175.386458 141.518098 175.856519 
C 141.518098 176.326579 141.704855 176.77745 142.037238 177.109833 
C 142.369621 177.442216 142.820492 177.628973 143.290552 177.628973 
z
" style="stroke:#000000;stroke-width:0.886227;"/>
    <path clip-path="url(#pbef4457f43)" d="M 147.327507 39.388973 
C 147.797567 39.388973 148.248438 39.202216 148.580821 38.869833 
C 148.913204 38.53745 149.099961 38.086579 149.099961 37.616519 
C 149.099961 37.146458 148.913204 36.695587 148.580821 36.363205 
C 148.248438 36.030822 147.797567 35.844065 147.327507 35.844065 
C 146.857446 35.844065 146.406575 36.030822 146.074193 36.363205 
C 145.74181 36.695587 145.555053 37.146458 145.555053 37.616519 
C 145.555053 38.086579 145.74181 38.53745 146.074193 38.869833 
C 146.406575 39.202216 146.857446 39.388973 147.327507 39.388973 
z
" style="stroke:#000000;stroke-width:0.886227;"/>
    <path clip-path="url(#pbef4457f43)" d="M 372.105189 192.440401 
C 372.57525 192.440401 373.026121 192.253644 373.358503 191.921261 
C 373.690886 191.588879 373.877643 191.138008 373.877643 190.667947 
C 373.877643 190.197887 373.690886 189.747016 373.358503 189.414633 
C 373.026121 189.08225 372.57525 188.895493 372.105189 188.895493 
C 371.635129 188.895493 371.184258 189.08225 370.851875 189.414633 
C 370.519492 189.747016 370.332735 190.197887 370.332735 190.667947 
C 370.332735 191.138008 370.519492 191.588879 370.851875 191.921261 
C 371.184258 192.253644 371.635129 192.440401 372.105189 192.440401 
z
" style="stroke:#000000;stroke-width:0.886227;"/>
    <path clip-path="url(#pbef4457f43)" d="M 359.587276 108.508973 
C 360.057337 108.508973 360.508208 108.322216 360.840591 107.989833 
C 361.172973 107.65745 361.35973 107.206579 361.35973 106.736519 
C 361.35973 106.266458 361.172973 105.815587 360.840591 105.483205 
C 360.508208 105.150822 360.057337 104.964065 359.587276 104.964065 
C 359.117216 104.964065 358.666345 105.150822 358.333962 105.483205 
C 358.00158 105.815587 357.814823 106.266458 357.814823 106.736519 
C 357.814823 107.206579 358.00158 107.65745 358.333962 107.989833 
C 358.666345 108.322216 359.117216 108.508973 359.587276 108.508973 
z
" style="stroke:#000000;stroke-width:0.886227;"/>
    <path clip-path="url(#pbef4457f43)" d="M 358.668219 83.823258 
C 359.138279 83.823258 359.58915 83.636501 359.921533 83.304119 
C 360.253916 82.971736 360.440673 82.520865 360.440673 82.050804 
C 360.440673 81.580744 360.253916 81.129873 359.921533 80.79749 
C 359.58915 80.465107 359.138279 80.278351 358.668219 80.278351 
C 358.198159 80.278351 357.747288 80.465107 357.414905 80.79749 
C 357.082522 81.129873 356.895765 81.580744 356.895765 82.050804 
C 356.895765 82.520865 357.082522 82.971736 357.414905 83.304119 
C 357.747288 83.636501 358.198159 83.823258 358.668219 83.823258 
z
" style="stroke:#000000;stroke-width:0.886227;"/>
    <path clip-path="url(#pbef4457f43)" d="M 182.238671 152.943258 
C 182.708731 152.943258 183.159602 152.756501 183.491985 152.424119 
C 183.824368 152.091736 184.011125 151.640865 184.011125 151.170804 
C 184.011125 150.700744 183.824368 150.249873 183.491985 149.91749 
C 183.159602 149.585107 182.708731 149.398351 182.238671 149.398351 
C 181.768611 149.398351 181.31774 149.585107 180.985357 149.91749 
C 180.652974 150.249873 180.466217 150.700744 180.466217 151.170804 
C 180.466217 151.640865 180.652974 152.091736 180.985357 152.424119 
C 181.31774 152.756501 181.768611 152.943258 182.238671 152.943258 
z
" style="stroke:#000000;stroke-width:0.886227;"/>
    <path clip-path="url(#pbef4457f43)" d="M 183.583823 202.314687 
C 184.053883 202.314687 184.504754 202.12793 184.837137 201.795547 
C 185.16952 201.463164 185.356277 201.012293 185.356277 200.542233 
C 185.356277 200.072173 185.16952 199.621302 184.837137 199.288919 
C 184.504754 198.956536 184.053883 198.769779 183.583823 198.769779 
C 183.113763 198.769779 182.662891 198.956536 182.330509 199.288919 
C 181.998126 199.621302 181.811369 200.072173 181.811369 200.542233 
C 181.811369 201.012293 181.998126 201.463164 182.330509 201.795547 
C 182.662891 202.12793 183.113763 202.314687 183.583823 202.314687 
z
" style="stroke:#000000;stroke-width:0.886227;"/>
    <path clip-path="url(#pbef4457f43)" d="M 188.886646 157.880401 
C 189.356706 157.880401 189.807577 157.693644 190.13996 157.361261 
C 190.472343 157.028879 190.6591 156.578008 190.6591 156.107947 
C 190.6591 155.637887 190.472343 155.187016 190.13996 154.854633 
C 189.807577 154.52225 189.356706 154.335493 188.886646 154.335493 
C 188.416585 154.335493 187.965714 154.52225 187.633332 154.854633 
C 187.300949 155.187016 187.114192 155.637887 187.114192 156.107947 
C 187.114192 156.578008 187.300949 157.028879 187.633332 157.361261 
C 187.965714 157.693644 188.416585 157.880401 188.886646 157.880401 
z
" style="stroke:#000000;stroke-width:0.886227;"/>
    <path clip-path="url(#pbef4457f43)" d="M 336.780873 103.57183 
C 337.250933 103.57183 337.701804 103.385073 338.034187 103.05269 
C 338.36657 102.720307 338.553327 102.269436 338.553327 101.799376 
C 338.553327 101.329316 338.36657 100.878444 338.034187 100.546062 
C 337.701804 100.213679 337.250933 100.026922 336.780873 100.026922 
C 336.310813 100.026922 335.859941 100.213679 335.527559 100.546062 
C 335.195176 100.878444 335.008419 101.329316 335.008419 101.799376 
C 335.008419 102.269436 335.195176 102.720307 335.527559 103.05269 
C 335.859941 103.385073 336.310813 103.57183 336.780873 103.57183 
z
" style="stroke:#000000;stroke-width:0.886227;"/>
    <path clip-path="url(#pbef4457f43)" d="M 335.798808 123.320401 
C 336.268868 123.320401 336.719739 123.133644 337.052122 122.801261 
C 337.384504 122.468879 337.571261 122.018008 337.571261 121.547947 
C 337.571261 121.077887 337.384504 120.627016 337.052122 120.294633 
C 336.719739 119.96225 336.268868 119.775493 335.798808 119.775493 
C 335.328747 119.775493 334.877876 119.96225 334.545493 120.294633 
C 334.213111 120.627016 334.026354 121.077887 334.026354 121.547947 
C 334.026354 122.018008 334.213111 122.468879 334.545493 122.801261 
C 334.877876 123.133644 335.328747 123.320401 335.798808 123.320401 
z
" style="stroke:#000000;stroke-width:0.886227;"/>
    <path clip-path="url(#pbef4457f43)" d="M 333.323293 261.560401 
C 333.793354 261.560401 334.244225 261.373644 334.576608 261.041261 
C 334.90899 260.708879 335.095747 260.258008 335.095747 259.787947 
C 335.095747 259.317887 334.90899 258.867016 334.576608 258.534633 
C 334.244225 258.20225 333.793354 258.015493 333.323293 258.015493 
C 332.853233 258.015493 332.402362 258.20225 332.069979 258.534633 
C 331.737597 258.867016 331.55084 259.317887 331.55084 259.787947 
C 331.55084 260.258008 331.737597 260.708879 332.069979 261.041261 
C 332.402362 261.373644 332.853233 261.560401 333.323293 261.560401 
z
" style="stroke:#000000;stroke-width:0.886227;"/>
    <path clip-path="url(#pbef4457f43)" d="M 198.337851 54.200401 
C 198.807911 54.200401 199.258782 54.013644 199.591165 53.681261 
C 199.923548 53.348879 200.110305 52.898008 200.110305 52.427947 
C 200.110305 51.957887 199.923548 51.507016 199.591165 51.174633 
C 199.258782 50.84225 198.807911 50.655493 198.337851 50.655493 
C 197.867791 50.655493 197.41692 50.84225 197.084537 51.174633 
C 196.752154 51.507016 196.565397 51.957887 196.565397 52.427947 
C 196.565397 52.898008 196.752154 53.348879 197.084537 53.681261 
C 197.41692 54.013644 197.867791 54.200401 198.337851 54.200401 
z
" style="stroke:#000000;stroke-width:0.886227;"/>
    <path clip-path="url(#pbef4457f43)" d="M 206.312033 49.263258 
C 206.782093 49.263258 207.232964 49.076501 207.565347 48.744119 
C 207.897729 48.411736 208.084486 47.960865 208.084486 47.490804 
C 208.084486 47.020744 207.897729 46.569873 207.565347 46.23749 
C 207.232964 45.905107 206.782093 45.718351 206.312033 45.718351 
C 205.841972 45.718351 205.391101 45.905107 205.058718 46.23749 
C 204.726336 46.569873 204.539579 47.020744 204.539579 47.490804 
C 204.539579 47.960865 204.726336 48.411736 205.058718 48.744119 
C 205.391101 49.076501 205.841972 49.263258 206.312033 49.263258 
z
" style="stroke:#000000;stroke-width:0.886227;"/>
    <path clip-path="url(#pbef4457f43)" d="M 209.844364 227.000401 
C 210.314425 227.000401 210.765296 226.813644 211.097679 226.481261 
C 211.430061 226.148879 211.616818 225.698008 211.616818 225.227947 
C 211.616818 224.757887 211.430061 224.307016 211.097679 223.974633 
C 210.765296 223.64225 210.314425 223.455493 209.844364 223.455493 
C 209.374304 223.455493 208.923433 223.64225 208.59105 223.974633 
C 208.258668 224.307016 208.071911 224.757887 208.071911 225.227947 
C 208.071911 225.698008 208.258668 226.148879 208.59105 226.481261 
C 208.923433 226.813644 209.374304 227.000401 209.844364 227.000401 
z
" style="stroke:#000000;stroke-width:0.886227;"/>
    <path clip-path="url(#pbef4457f43)" d="M 311.903827 207.25183 
C 312.373887 207.25183 312.824758 207.065073 313.157141 206.73269 
C 313.489524 206.400307 313.676281 205.949436 313.676281 205.479376 
C 313.676281 205.009316 313.489524 204.558444 313.157141 204.226062 
C 312.824758 203.893679 312.373887 203.706922 311.903827 203.706922 
C 311.433767 203.706922 310.982896 203.893679 310.650513 204.226062 
C 310.31813 204.558444 310.131373 205.009316 310.131373 205.479376 
C 310.131373 205.949436 310.31813 206.400307 310.650513 206.73269 
C 310.982896 207.065073 311.433767 207.25183 311.903827 207.25183 
z
" style="stroke:#000000;stroke-width:0.886227;"/>
    <path clip-path="url(#pbef4457f43)" d="M 224.265381 59.137544 
C 224.735442 59.137544 225.186313 58.950787 225.518695 58.618404 
C 225.851078 58.286021 226.037835 57.83515 226.037835 57.36509 
C 226.037835 56.89503 225.851078 56.444159 225.518695 56.111776 
C 225.186313 55.779393 224.735442 55.592636 224.265381 55.592636 
C 223.795321 55.592636 223.34445 55.779393 223.012067 56.111776 
C 222.679684 56.444159 222.492927 56.89503 222.492927 57.36509 
C 222.492927 57.83515 222.679684 58.286021 223.012067 58.618404 
C 223.34445 58.950787 223.795321 59.137544 224.265381 59.137544 
z
" style="stroke:#000000;stroke-width:0.886227;"/>
    <path clip-path="url(#pbef4457f43)" d="M 304.855868 172.69183 
C 305.325928 172.69183 305.776799 172.505073 306.109182 172.17269 
C 306.441565 171.840307 306.628322 171.389436 306.628322 170.919376 
C 306.628322 170.449316 306.441565 169.998444 306.109182 169.666062 
C 305.776799 169.333679 305.325928 169.146922 304.855868 169.146922 
C 304.385808 169.146922 303.934936 169.333679 303.602554 169.666062 
C 303.270171 169.998444 303.083414 170.449316 303.083414 170.919376 
C 303.083414 171.389436 303.270171 171.840307 303.602554 172.17269 
C 303.934936 172.505073 304.385808 172.69183 304.855868 172.69183 
z
" style="stroke:#000000;stroke-width:0.886227;"/>
    <path clip-path="url(#pbef4457f43)" d="M 304.584791 162.817544 
C 305.054851 162.817544 305.505722 162.630787 305.838105 162.298404 
C 306.170488 161.966021 306.357245 161.51515 306.357245 161.04509 
C 306.357245 160.57503 306.170488 160.124159 305.838105 159.791776 
C 305.505722 159.459393 305.054851 159.272636 304.584791 159.272636 
C 304.11473 159.272636 303.663859 159.459393 303.331477 159.791776 
C 302.999094 160.124159 302.812337 160.57503 302.812337 161.04509 
C 302.812337 161.51515 302.999094 161.966021 303.331477 162.298404 
C 303.663859 162.630787 304.11473 162.817544 304.584791 162.817544 
z
" style="stroke:#000000;stroke-width:0.886227;"/>
    <path clip-path="url(#pbef4457f43)" d="M 228.502523 241.81183 
C 228.972583 241.81183 229.423454 241.625073 229.755837 241.29269 
C 230.088219 240.960307 230.274976 240.509436 230.274976 240.039376 
C 230.274976 239.569316 230.088219 239.118444 229.755837 238.786062 
C 229.423454 238.453679 228.972583 238.266922 228.502523 238.266922 
C 228.032462 238.266922 227.581591 238.453679 227.249208 238.786062 
C 226.916826 239.118444 226.730069 239.569316 226.730069 240.039376 
C 226.730069 240.509436 226.916826 240.960307 227.249208 241.29269 
C 227.581591 241.625073 228.032462 241.81183 228.502523 241.81183 
z
" style="stroke:#000000;stroke-width:0.886227;"/>
    <path clip-path="url(#pbef4457f43)" d="M 229.892944 78.886115 
C 230.363004 78.886115 230.813875 78.699358 231.146258 78.366976 
C 231.478641 78.034593 231.665397 77.583722 231.665397 77.113662 
C 231.665397 76.643601 231.478641 76.19273 231.146258 75.860347 
C 230.813875 75.527965 230.363004 75.341208 229.892944 75.341208 
C 229.422883 75.341208 228.972012 75.527965 228.639629 75.860347 
C 228.307247 76.19273 228.12049 76.643601 228.12049 77.113662 
C 228.12049 77.583722 228.307247 78.034593 228.639629 78.366976 
C 228.972012 78.699358 229.422883 78.886115 229.892944 78.886115 
z
" style="stroke:#000000;stroke-width:0.886227;"/>
    <path clip-path="url(#pbef4457f43)" d="M 230.067742 73.948973 
C 230.537802 73.948973 230.988673 73.762216 231.321056 73.429833 
C 231.653439 73.09745 231.840196 72.646579 231.840196 72.176519 
C 231.840196 71.706458 231.653439 71.255587 231.321056 70.923205 
C 230.988673 70.590822 230.537802 70.404065 230.067742 70.404065 
C 229.597682 70.404065 229.146811 70.590822 228.814428 70.923205 
C 228.482045 71.255587 228.295288 71.706458 228.295288 72.176519 
C 228.295288 72.646579 228.482045 73.09745 228.814428 73.429833 
C 229.146811 73.762216 229.597682 73.948973 230.067742 73.948973 
z
" style="stroke:#000000;stroke-width:0.886227;"/>
    <path clip-path="url(#pbef4457f43)" d="M 301.286337 44.326115 
C 301.756397 44.326115 302.207268 44.139358 302.539651 43.806976 
C 302.872034 43.474593 303.058791 43.023722 303.058791 42.553662 
C 303.058791 42.083601 302.872034 41.63273 302.539651 41.300347 
C 302.207268 40.967965 301.756397 40.781208 301.286337 40.781208 
C 300.816277 40.781208 300.365406 40.967965 300.033023 41.300347 
C 299.70064 41.63273 299.513883 42.083601 299.513883 42.553662 
C 299.513883 43.023722 299.70064 43.474593 300.033023 43.806976 
C 300.365406 44.139358 300.816277 44.326115 301.286337 44.326115 
z
" style="stroke:#000000;stroke-width:0.886227;"/>
    <path clip-path="url(#pbef4457f43)" d="M 232.125076 266.497544 
C 232.595137 266.497544 233.046008 266.310787 233.378391 265.978404 
C 233.710773 265.646021 233.89753 265.19515 233.89753 264.72509 
C 233.89753 264.25503 233.710773 263.804159 233.378391 263.471776 
C 233.046008 263.139393 232.595137 262.952636 232.125076 262.952636 
C 231.655016 262.952636 231.204145 263.139393 230.871762 263.471776 
C 230.53938 263.804159 230.352623 264.25503 230.352623 264.72509 
C 230.352623 265.19515 230.53938 265.646021 230.871762 265.978404 
C 231.204145 266.310787 231.655016 266.497544 232.125076 266.497544 
z
" style="stroke:#000000;stroke-width:0.886227;"/>
    <path clip-path="url(#pbef4457f43)" d="M 234.929862 167.754687 
C 235.399922 167.754687 235.850793 167.56793 236.183176 167.235547 
C 236.515559 166.903164 236.702316 166.452293 236.702316 165.982233 
C 236.702316 165.512173 236.515559 165.061302 236.183176 164.728919 
C 235.850793 164.396536 235.399922 164.209779 234.929862 164.209779 
C 234.459802 164.209779 234.00893 164.396536 233.676548 164.728919 
C 233.344165 165.061302 233.157408 165.512173 233.157408 165.982233 
C 233.157408 166.452293 233.344165 166.903164 233.676548 167.235547 
C 234.00893 167.56793 234.459802 167.754687 234.929862 167.754687 
z
" style="stroke:#000000;stroke-width:0.886227;"/>
    <path clip-path="url(#pbef4457f43)" d="M 296.54007 143.068973 
C 297.01013 143.068973 297.461001 142.882216 297.793384 142.549833 
C 298.125767 142.21745 298.312523 141.766579 298.312523 141.296519 
C 298.312523 140.826458 298.125767 140.375587 297.793384 140.043205 
C 297.461001 139.710822 297.01013 139.524065 296.54007 139.524065 
C 296.070009 139.524065 295.619138 139.710822 295.286755 140.043205 
C 294.954373 140.375587 294.767616 140.826458 294.767616 141.296519 
C 294.767616 141.766579 294.954373 142.21745 295.286755 142.549833 
C 295.619138 142.882216 296.070009 143.068973 296.54007 143.068973 
z
" style="stroke:#000000;stroke-width:0.886227;"/>
    <path clip-path="url(#pbef4457f43)" d="M 296.060908 276.37183 
C 296.530968 276.37183 296.98184 276.185073 297.314222 275.85269 
C 297.646605 275.520307 297.833362 275.069436 297.833362 274.599376 
C 297.833362 274.129316 297.646605 273.678444 297.314222 273.346062 
C 296.98184 273.013679 296.530968 272.826922 296.060908 272.826922 
C 295.590848 272.826922 295.139977 273.013679 294.807594 273.346062 
C 294.475211 273.678444 294.288454 274.129316 294.288454 274.599376 
C 294.288454 275.069436 294.475211 275.520307 294.807594 275.85269 
C 295.139977 276.185073 295.590848 276.37183 296.060908 276.37183 
z
" style="stroke:#000000;stroke-width:0.886227;"/>
    <path clip-path="url(#pbef4457f43)" d="M 235.843457 256.623258 
C 236.313517 256.623258 236.764388 256.436501 237.096771 256.104119 
C 237.429154 255.771736 237.615911 255.320865 237.615911 254.850804 
C 237.615911 254.380744 237.429154 253.929873 237.096771 253.59749 
C 236.764388 253.265107 236.313517 253.078351 235.843457 253.078351 
C 235.373397 253.078351 234.922526 253.265107 234.590143 253.59749 
C 234.25776 253.929873 234.071003 254.380744 234.071003 254.850804 
C 234.071003 255.320865 234.25776 255.771736 234.590143 256.104119 
C 234.922526 256.436501 235.373397 256.623258 235.843457 256.623258 
z
" style="stroke:#000000;stroke-width:0.886227;"/>
    <path clip-path="url(#pbef4457f43)" d="M 236.849404 222.063258 
C 237.319464 222.063258 237.770335 221.876501 238.102718 221.544119 
C 238.435101 221.211736 238.621858 220.760865 238.621858 220.290804 
C 238.621858 219.820744 238.435101 219.369873 238.102718 219.03749 
C 237.770335 218.705107 237.319464 218.518351 236.849404 218.518351 
C 236.379344 218.518351 235.928473 218.705107 235.59609 219.03749 
C 235.263707 219.369873 235.07695 219.820744 235.07695 220.290804 
C 235.07695 220.760865 235.263707 221.211736 235.59609 221.544119 
C 235.928473 221.876501 236.379344 222.063258 236.849404 222.063258 
z
" style="stroke:#000000;stroke-width:0.886227;"/>
    <path clip-path="url(#pbef4457f43)" d="M 238.392869 128.257544 
C 238.862929 128.257544 239.3138 128.070787 239.646183 127.738404 
C 239.978566 127.406021 240.165323 126.95515 240.165323 126.48509 
C 240.165323 126.01503 239.978566 125.564159 239.646183 125.231776 
C 239.3138 124.899393 238.862929 124.712636 238.392869 124.712636 
C 237.922809 124.712636 237.471938 124.899393 237.139555 125.231776 
C 236.807172 125.564159 236.620415 126.01503 236.620415 126.48509 
C 236.620415 126.95515 236.807172 127.406021 237.139555 127.738404 
C 237.471938 128.070787 237.922809 128.257544 238.392869 128.257544 
z
" style="stroke:#000000;stroke-width:0.886227;"/>
    <path clip-path="url(#pbef4457f43)" d="M 239.225563 236.874687 
C 239.695623 236.874687 240.146494 236.68793 240.478877 236.355547 
C 240.81126 236.023164 240.998017 235.572293 240.998017 235.102233 
C 240.998017 234.632173 240.81126 234.181302 240.478877 233.848919 
C 240.146494 233.516536 239.695623 233.329779 239.225563 233.329779 
C 238.755502 233.329779 238.304631 233.516536 237.972249 233.848919 
C 237.639866 234.181302 237.453109 234.632173 237.453109 235.102233 
C 237.453109 235.572293 237.639866 236.023164 237.972249 236.355547 
C 238.304631 236.68793 238.755502 236.874687 239.225563 236.874687 
z
" style="stroke:#000000;stroke-width:0.886227;"/>
    <path clip-path="url(#pbef4457f43)" d="M 289.027687 197.377544 
C 289.497748 197.377544 289.948619 197.190787 290.281002 196.858404 
C 290.613384 196.526021 290.800141 196.07515 290.800141 195.60509 
C 290.800141 195.13503 290.613384 194.684159 290.281002 194.351776 
C 289.948619 194.019393 289.497748 193.832636 289.027687 193.832636 
C 288.557627 193.832636 288.106756 194.019393 287.774373 194.351776 
C 287.44199 194.684159 287.255234 195.13503 287.255234 195.60509 
C 287.255234 196.07515 287.44199 196.526021 287.774373 196.858404 
C 288.106756 197.190787 288.557627 197.377544 289.027687 197.377544 
z
" style="stroke:#000000;stroke-width:0.886227;"/>
    <path clip-path="url(#pbef4457f43)" d="M 288.859548 69.01183 
C 289.329608 69.01183 289.780479 68.825073 290.112862 68.49269 
C 290.445245 68.160307 290.632002 67.709436 290.632002 67.239376 
C 290.632002 66.769316 290.445245 66.318444 290.112862 65.986062 
C 289.780479 65.653679 289.329608 65.466922 288.859548 65.466922 
C 288.389488 65.466922 287.938617 65.653679 287.606234 65.986062 
C 287.273851 66.318444 287.087094 66.769316 287.087094 67.239376 
C 287.087094 67.709436 287.273851 68.160307 287.606234 68.49269 
C 287.938617 68.825073 288.389488 69.01183 288.859548 69.01183 
z
" style="stroke:#000000;stroke-width:0.886227;"/>
    <path clip-path="url(#pbef4457f43)" d="M 287.786613 118.383258 
C 288.256673 118.383258 288.707544 118.196501 289.039927 117.864119 
C 289.37231 117.531736 289.559067 117.080865 289.559067 116.610804 
C 289.559067 116.140744 289.37231 115.689873 289.039927 115.35749 
C 288.707544 115.025107 288.256673 114.838351 287.786613 114.838351 
C 287.316553 114.838351 286.865682 115.025107 286.533299 115.35749 
C 286.200916 115.689873 286.014159 116.140744 286.014159 116.610804 
C 286.014159 117.080865 286.200916 117.531736 286.533299 117.864119 
C 286.865682 118.196501 287.316553 118.383258 287.786613 118.383258 
z
" style="stroke:#000000;stroke-width:0.886227;"/>
    <path clip-path="url(#pbef4457f43)" d="M 244.046986 88.760401 
C 244.517046 88.760401 244.967917 88.573644 245.3003 88.241261 
C 245.632683 87.908879 245.81944 87.458008 245.81944 86.987947 
C 245.81944 86.517887 245.632683 86.067016 245.3003 85.734633 
C 244.967917 85.40225 244.517046 85.215493 244.046986 85.215493 
C 243.576926 85.215493 243.126055 85.40225 242.793672 85.734633 
C 242.461289 86.067016 242.274532 86.517887 242.274532 86.987947 
C 242.274532 87.458008 242.461289 87.908879 242.793672 88.241261 
C 243.126055 88.573644 243.576926 88.760401 244.046986 88.760401 
z
" style="stroke:#000000;stroke-width:0.886227;"/>
    <path clip-path="url(#pbef4457f43)" d="M 244.620374 133.194687 
C 245.090434 133.194687 245.541306 133.00793 245.873688 132.675547 
C 246.206071 132.343164 246.392828 131.892293 246.392828 131.422233 
C 246.392828 130.952173 246.206071 130.501302 245.873688 130.168919 
C 245.541306 129.836536 245.090434 129.649779 244.620374 129.649779 
C 244.150314 129.649779 243.699443 129.836536 243.36706 130.168919 
C 243.034677 130.501302 242.84792 130.952173 242.84792 131.422233 
C 242.84792 131.892293 243.034677 132.343164 243.36706 132.675547 
C 243.699443 133.00793 244.150314 133.194687 244.620374 133.194687 
z
" style="stroke:#000000;stroke-width:0.886227;"/>
    <path clip-path="url(#pbef4457f43)" d="M 251.343421 98.634687 
C 251.813481 98.634687 252.264352 98.44793 252.596735 98.115547 
C 252.929118 97.783164 253.115875 97.332293 253.115875 96.862233 
C 253.115875 96.392173 252.929118 95.941302 252.596735 95.608919 
C 252.264352 95.276536 251.813481 95.089779 251.343421 95.089779 
C 250.873361 95.089779 250.42249 95.276536 250.090107 95.608919 
C 249.757724 95.941302 249.570967 96.392173 249.570967 96.862233 
C 249.570967 97.332293 249.757724 97.783164 250.090107 98.115547 
C 250.42249 98.44793 250.873361 98.634687 251.343421 98.634687 
z
" style="stroke:#000000;stroke-width:0.886227;"/>
    <path clip-path="url(#pbef4457f43)" d="M 251.597687 271.434687 
C 252.067747 271.434687 252.518619 271.24793 252.851001 270.915547 
C 253.183384 270.583164 253.370141 270.132293 253.370141 269.662233 
C 253.370141 269.192173 253.183384 268.741302 252.851001 268.408919 
C 252.518619 268.076536 252.067747 267.889779 251.597687 267.889779 
C 251.127627 267.889779 250.676756 268.076536 250.344373 268.408919 
C 250.01199 268.741302 249.825233 269.192173 249.825233 269.662233 
C 249.825233 270.132293 250.01199 270.583164 250.344373 270.915547 
C 250.676756 271.24793 251.127627 271.434687 251.597687 271.434687 
z
" style="stroke:#000000;stroke-width:0.886227;"/>
    <path clip-path="url(#pbef4457f43)" d="M 251.720591 246.748973 
C 252.190651 246.748973 252.641522 246.562216 252.973905 246.229833 
C 253.306288 245.89745 253.493045 245.446579 253.493045 244.976519 
C 253.493045 244.506458 253.306288 244.055587 252.973905 243.723205 
C 252.641522 243.390822 252.190651 243.204065 251.720591 243.204065 
C 251.250531 243.204065 250.79966 243.390822 250.467277 243.723205 
C 250.134894 244.055587 249.948137 244.506458 249.948137 244.976519 
C 249.948137 245.446579 250.134894 245.89745 250.467277 246.229833 
C 250.79966 246.562216 251.250531 246.748973 251.720591 246.748973 
z
" style="stroke:#000000;stroke-width:0.886227;"/>
    <path clip-path="url(#pbef4457f43)" d="M 251.793108 212.188973 
C 252.263168 212.188973 252.714039 212.002216 253.046422 211.669833 
C 253.378805 211.33745 253.565562 210.886579 253.565562 210.416519 
C 253.565562 209.946458 253.378805 209.495587 253.046422 209.163205 
C 252.714039 208.830822 252.263168 208.644065 251.793108 208.644065 
C 251.323048 208.644065 250.872176 208.830822 250.539794 209.163205 
C 250.207411 209.495587 250.020654 209.946458 250.020654 210.416519 
C 250.020654 210.886579 250.207411 211.33745 250.539794 211.669833 
C 250.872176 212.002216 251.323048 212.188973 251.793108 212.188973 
z
" style="stroke:#000000;stroke-width:0.886227;"/>
    <path clip-path="url(#pbef4457f43)" d="M 253.739246 182.566115 
C 254.209306 182.566115 254.660177 182.379358 254.99256 182.046976 
C 255.324943 181.714593 255.5117 181.263722 255.5117 180.793662 
C 255.5117 180.323601 255.324943 179.87273 254.99256 179.540347 
C 254.660177 179.207965 254.209306 179.021208 253.739246 179.021208 
C 253.269186 179.021208 252.818315 179.207965 252.485932 179.540347 
C 252.153549 179.87273 251.966792 180.323601 251.966792 180.793662 
C 251.966792 181.263722 252.153549 181.714593 252.485932 182.046976 
C 252.818315 182.379358 253.269186 182.566115 253.739246 182.566115 
z
" style="stroke:#000000;stroke-width:0.886227;"/>
    <path clip-path="url(#pbef4457f43)" d="M 276.682407 231.937544 
C 277.152468 231.937544 277.603339 231.750787 277.935722 231.418404 
C 278.268104 231.086021 278.454861 230.63515 278.454861 230.16509 
C 278.454861 229.69503 278.268104 229.244159 277.935722 228.911776 
C 277.603339 228.579393 277.152468 228.392636 276.682407 228.392636 
C 276.212347 228.392636 275.761476 228.579393 275.429093 228.911776 
C 275.096711 229.244159 274.909954 229.69503 274.909954 230.16509 
C 274.909954 230.63515 275.096711 231.086021 275.429093 231.418404 
C 275.761476 231.750787 276.212347 231.937544 276.682407 231.937544 
z
" style="stroke:#000000;stroke-width:0.886227;"/>
    <path clip-path="url(#pbef4457f43)" d="M 276.582227 148.006115 
C 277.052288 148.006115 277.503159 147.819358 277.835542 147.486976 
C 278.167924 147.154593 278.354681 146.703722 278.354681 146.233662 
C 278.354681 145.763601 278.167924 145.31273 277.835542 144.980347 
C 277.503159 144.647965 277.052288 144.461208 276.582227 144.461208 
C 276.112167 144.461208 275.661296 144.647965 275.328913 144.980347 
C 274.996531 145.31273 274.809774 145.763601 274.809774 146.233662 
C 274.809774 146.703722 274.996531 147.154593 275.328913 147.486976 
C 275.661296 147.819358 276.112167 148.006115 276.582227 148.006115 
z
" style="stroke:#000000;stroke-width:0.886227;"/>
    <path clip-path="url(#pbef4457f43)" d="M 258.030631 64.074687 
C 258.500692 64.074687 258.951563 63.88793 259.283946 63.555547 
C 259.616328 63.223164 259.803085 62.772293 259.803085 62.302233 
C 259.803085 61.832173 259.616328 61.381302 259.283946 61.048919 
C 258.951563 60.716536 258.500692 60.529779 258.030631 60.529779 
C 257.560571 60.529779 257.1097 60.716536 256.777317 61.048919 
C 256.444934 61.381302 256.258178 61.832173 256.258178 62.302233 
C 256.258178 62.772293 256.444934 63.223164 256.777317 63.555547 
C 257.1097 63.88793 257.560571 64.074687 258.030631 64.074687 
z
" style="stroke:#000000;stroke-width:0.886227;"/>
    <path clip-path="url(#pbef4457f43)" d="M 271.419678 187.503258 
C 271.889738 187.503258 272.340609 187.316501 272.672992 186.984119 
C 273.005374 186.651736 273.192131 186.200865 273.192131 185.730804 
C 273.192131 185.260744 273.005374 184.809873 272.672992 184.47749 
C 272.340609 184.145107 271.889738 183.958351 271.419678 183.958351 
C 270.949617 183.958351 270.498746 184.145107 270.166363 184.47749 
C 269.833981 184.809873 269.647224 185.260744 269.647224 185.730804 
C 269.647224 186.200865 269.833981 186.651736 270.166363 186.984119 
C 270.498746 187.316501 270.949617 187.503258 271.419678 187.503258 
z
" style="stroke:#000000;stroke-width:0.886227;"/>
    <path clip-path="url(#pbef4457f43)" d="M 261.102961 217.126115 
C 261.573022 217.126115 262.023893 216.939358 262.356276 216.606976 
C 262.688658 216.274593 262.875415 215.823722 262.875415 215.353662 
C 262.875415 214.883601 262.688658 214.43273 262.356276 214.100347 
C 262.023893 213.767965 261.573022 213.581208 261.102961 213.581208 
C 260.632901 213.581208 260.18203 213.767965 259.849647 214.100347 
C 259.517265 214.43273 259.330508 214.883601 259.330508 215.353662 
C 259.330508 215.823722 259.517265 216.274593 259.849647 216.606976 
C 260.18203 216.939358 260.632901 217.126115 261.102961 217.126115 
z
" style="stroke:#000000;stroke-width:0.886227;"/>
    <path clip-path="url(#pbef4457f43)" d="M 269.597149 251.686115 
C 270.067209 251.686115 270.51808 251.499358 270.850463 251.166976 
C 271.182846 250.834593 271.369603 250.383722 271.369603 249.913662 
C 271.369603 249.443601 271.182846 248.99273 270.850463 248.660347 
C 270.51808 248.327965 270.067209 248.141208 269.597149 248.141208 
C 269.127088 248.141208 268.676217 248.327965 268.343835 248.660347 
C 268.011452 248.99273 267.824695 249.443601 267.824695 249.913662 
C 267.824695 250.383722 268.011452 250.834593 268.343835 251.166976 
C 268.676217 251.499358 269.127088 251.686115 269.597149 251.686115 
z
" style="stroke:#000000;stroke-width:0.886227;"/>
    <path clip-path="url(#pbef4457f43)" d="M 263.843325 138.13183 
C 264.313385 138.13183 264.764257 137.945073 265.096639 137.61269 
C 265.429022 137.280307 265.615779 136.829436 265.615779 136.359376 
C 265.615779 135.889316 265.429022 135.438444 265.096639 135.106062 
C 264.764257 134.773679 264.313385 134.586922 263.843325 134.586922 
C 263.373265 134.586922 262.922394 134.773679 262.590011 135.106062 
C 262.257628 135.438444 262.070871 135.889316 262.070871 136.359376 
C 262.070871 136.829436 262.257628 137.280307 262.590011 137.61269 
C 262.922394 137.945073 263.373265 138.13183 263.843325 138.13183 
z
" style="stroke:#000000;stroke-width:0.886227;"/>
   </g>
   <g id="PathCollection_2">
    <path clip-path="url(#pbef4457f43)" d="M 66.818665 34.45183 
C 67.288725 34.45183 67.739596 34.265073 68.071979 33.93269 
C 68.404362 33.600307 68.591119 33.149436 68.591119 32.679376 
C 68.591119 32.209316 68.404362 31.758444 68.071979 31.426062 
C 67.739596 31.093679 67.288725 30.906922 66.818665 30.906922 
C 66.348605 30.906922 65.897733 31.093679 65.565351 31.426062 
C 65.232968 31.758444 65.046211 32.209316 65.046211 32.679376 
C 65.046211 33.149436 65.232968 33.600307 65.565351 33.93269 
C 65.897733 34.265073 66.348605 34.45183 66.818665 34.45183 
z
" style="fill:#ff0000;stroke:#ff0000;stroke-width:0.886227;"/>
    <path clip-path="url(#pbef4457f43)" d="M 147.327507 39.388973 
C 147.797567 39.388973 148.248438 39.202216 148.580821 38.869833 
C 148.913204 38.53745 149.099961 38.086579 149.099961 37.616519 
C 149.099961 37.146458 148.913204 36.695587 148.580821 36.363205 
C 148.248438 36.030822 147.797567 35.844065 147.327507 35.844065 
C 146.857446 35.844065 146.406575 36.030822 146.074193 36.363205 
C 145.74181 36.695587 145.555053 37.146458 145.555053 37.616519 
C 145.555053 38.086579 145.74181 38.53745 146.074193 38.869833 
C 146.406575 39.202216 146.857446 39.388973 147.327507 39.388973 
z
" style="fill:#ff0000;stroke:#ff0000;stroke-width:0.886227;"/>
    <path clip-path="url(#pbef4457f43)" d="M 198.337851 54.200401 
C 198.807911 54.200401 199.258782 54.013644 199.591165 53.681261 
C 199.923548 53.348879 200.110305 52.898008 200.110305 52.427947 
C 200.110305 51.957887 199.923548 51.507016 199.591165 51.174633 
C 199.258782 50.84225 198.807911 50.655493 198.337851 50.655493 
C 197.867791 50.655493 197.41692 50.84225 197.084537 51.174633 
C 196.752154 51.507016 196.565397 51.957887 196.565397 52.427947 
C 196.565397 52.898008 196.752154 53.348879 197.084537 53.681261 
C 197.41692 54.013644 197.867791 54.200401 198.337851 54.200401 
z
" style="fill:#ff0000;stroke:#ff0000;stroke-width:0.886227;"/>
    <path clip-path="url(#pbef4457f43)" d="M 206.312033 49.263258 
C 206.782093 49.263258 207.232964 49.076501 207.565347 48.744119 
C 207.897729 48.411736 208.084486 47.960865 208.084486 47.490804 
C 208.084486 47.020744 207.897729 46.569873 207.565347 46.23749 
C 207.232964 45.905107 206.782093 45.718351 206.312033 45.718351 
C 205.841972 45.718351 205.391101 45.905107 205.058718 46.23749 
C 204.726336 46.569873 204.539579 47.020744 204.539579 47.490804 
C 204.539579 47.960865 204.726336 48.411736 205.058718 48.744119 
C 205.391101 49.076501 205.841972 49.263258 206.312033 49.263258 
z
" style="fill:#ff0000;stroke:#ff0000;stroke-width:0.886227;"/>
    <path clip-path="url(#pbef4457f43)" d="M 301.286337 44.326115 
C 301.756397 44.326115 302.207268 44.139358 302.539651 43.806976 
C 302.872034 43.474593 303.058791 43.023722 303.058791 42.553662 
C 303.058791 42.083601 302.872034 41.63273 302.539651 41.300347 
C 302.207268 40.967965 301.756397 40.781208 301.286337 40.781208 
C 300.816277 40.781208 300.365406 40.967965 300.033023 41.300347 
C 299.70064 41.63273 299.513883 42.083601 299.513883 42.553662 
C 299.513883 43.023722 299.70064 43.474593 300.033023 43.806976 
C 300.365406 44.139358 300.816277 44.326115 301.286337 44.326115 
z
" style="fill:#ff0000;stroke:#ff0000;stroke-width:0.886227;"/>
   </g>
   <g id="text_12">
    <g clip-path="url(#pbef4457f43)">
     <!-- HALLMARK_TNFA_SIGNALING_VIA_NFKB -->
     <defs>
      <path d="M 9.8125 72.90625 
L 19.671875 72.90625 
L 19.671875 43.015625 
L 55.515625 43.015625 
L 55.515625 72.90625 
L 65.375 72.90625 
L 65.375 0 
L 55.515625 0 
L 55.515625 34.71875 
L 19.671875 34.71875 
L 19.671875 0 
L 9.8125 0 
z
" id="DejaVuSans-72"/>
      <path d="M 34.1875 63.1875 
L 20.796875 26.90625 
L 47.609375 26.90625 
z
M 28.609375 72.90625 
L 39.796875 72.90625 
L 67.578125 0 
L 57.328125 0 
L 50.6875 18.703125 
L 17.828125 18.703125 
L 11.1875 0 
L 0.78125 0 
z
" id="DejaVuSans-65"/>
      <path d="M 9.8125 72.90625 
L 19.671875 72.90625 
L 19.671875 8.296875 
L 55.171875 8.296875 
L 55.171875 0 
L 9.8125 0 
z
" id="DejaVuSans-76"/>
      <path d="M 9.8125 72.90625 
L 24.515625 72.90625 
L 43.109375 23.296875 
L 61.8125 72.90625 
L 76.515625 72.90625 
L 76.515625 0 
L 66.890625 0 
L 66.890625 64.015625 
L 48.09375 14.015625 
L 38.1875 14.015625 
L 19.390625 64.015625 
L 19.390625 0 
L 9.8125 0 
z
" id="DejaVuSans-77"/>
      <path d="M 44.390625 34.1875 
Q 47.5625 33.109375 50.5625 29.59375 
Q 53.5625 26.078125 56.59375 19.921875 
L 66.609375 0 
L 56 0 
L 46.6875 18.703125 
Q 43.0625 26.03125 39.671875 28.421875 
Q 36.28125 30.8125 30.421875 30.8125 
L 19.671875 30.8125 
L 19.671875 0 
L 9.8125 0 
L 9.8125 72.90625 
L 32.078125 72.90625 
Q 44.578125 72.90625 50.734375 67.671875 
Q 56.890625 62.453125 56.890625 51.90625 
Q 56.890625 45.015625 53.6875 40.46875 
Q 50.484375 35.9375 44.390625 34.1875 
z
M 19.671875 64.796875 
L 19.671875 38.921875 
L 32.078125 38.921875 
Q 39.203125 38.921875 42.84375 42.21875 
Q 46.484375 45.515625 46.484375 51.90625 
Q 46.484375 58.296875 42.84375 61.546875 
Q 39.203125 64.796875 32.078125 64.796875 
z
" id="DejaVuSans-82"/>
      <path d="M 9.8125 72.90625 
L 19.671875 72.90625 
L 19.671875 42.09375 
L 52.390625 72.90625 
L 65.09375 72.90625 
L 28.90625 38.921875 
L 67.671875 0 
L 54.6875 0 
L 19.671875 35.109375 
L 19.671875 0 
L 9.8125 0 
z
" id="DejaVuSans-75"/>
      <path d="M 50.984375 -16.609375 
L 50.984375 -23.578125 
L -0.984375 -23.578125 
L -0.984375 -16.609375 
z
" id="DejaVuSans-95"/>
      <path d="M -0.296875 72.90625 
L 61.375 72.90625 
L 61.375 64.59375 
L 35.5 64.59375 
L 35.5 0 
L 25.59375 0 
L 25.59375 64.59375 
L -0.296875 64.59375 
z
" id="DejaVuSans-84"/>
      <path d="M 9.8125 72.90625 
L 23.09375 72.90625 
L 55.421875 11.921875 
L 55.421875 72.90625 
L 64.984375 72.90625 
L 64.984375 0 
L 51.703125 0 
L 19.390625 60.984375 
L 19.390625 0 
L 9.8125 0 
z
" id="DejaVuSans-78"/>
      <path d="M 9.8125 72.90625 
L 51.703125 72.90625 
L 51.703125 64.59375 
L 19.671875 64.59375 
L 19.671875 43.109375 
L 48.578125 43.109375 
L 48.578125 34.8125 
L 19.671875 34.8125 
L 19.671875 0 
L 9.8125 0 
z
" id="DejaVuSans-70"/>
      <path d="M 53.515625 70.515625 
L 53.515625 60.890625 
Q 47.90625 63.578125 42.921875 64.890625 
Q 37.9375 66.21875 33.296875 66.21875 
Q 25.25 66.21875 20.875 63.09375 
Q 16.5 59.96875 16.5 54.203125 
Q 16.5 49.359375 19.40625 46.890625 
Q 22.3125 44.4375 30.421875 42.921875 
L 36.375 41.703125 
Q 47.40625 39.59375 52.65625 34.296875 
Q 57.90625 29 57.90625 20.125 
Q 57.90625 9.515625 50.796875 4.046875 
Q 43.703125 -1.421875 29.984375 -1.421875 
Q 24.8125 -1.421875 18.96875 -0.25 
Q 13.140625 0.921875 6.890625 3.21875 
L 6.890625 13.375 
Q 12.890625 10.015625 18.65625 8.296875 
Q 24.421875 6.59375 29.984375 6.59375 
Q 38.421875 6.59375 43.015625 9.90625 
Q 47.609375 13.234375 47.609375 19.390625 
Q 47.609375 24.75 44.3125 27.78125 
Q 41.015625 30.8125 33.5 32.328125 
L 27.484375 33.5 
Q 16.453125 35.6875 11.515625 40.375 
Q 6.59375 45.0625 6.59375 53.421875 
Q 6.59375 63.09375 13.40625 68.65625 
Q 20.21875 74.21875 32.171875 74.21875 
Q 37.3125 74.21875 42.625 73.28125 
Q 47.953125 72.359375 53.515625 70.515625 
z
" id="DejaVuSans-83"/>
      <path d="M 9.8125 72.90625 
L 19.671875 72.90625 
L 19.671875 0 
L 9.8125 0 
z
" id="DejaVuSans-73"/>
      <path d="M 59.515625 10.40625 
L 59.515625 29.984375 
L 43.40625 29.984375 
L 43.40625 38.09375 
L 69.28125 38.09375 
L 69.28125 6.78125 
Q 63.578125 2.734375 56.6875 0.65625 
Q 49.8125 -1.421875 42 -1.421875 
Q 24.90625 -1.421875 15.25 8.5625 
Q 5.609375 18.5625 5.609375 36.375 
Q 5.609375 54.25 15.25 64.234375 
Q 24.90625 74.21875 42 74.21875 
Q 49.125 74.21875 55.546875 72.453125 
Q 61.96875 70.703125 67.390625 67.28125 
L 67.390625 56.78125 
Q 61.921875 61.421875 55.765625 63.765625 
Q 49.609375 66.109375 42.828125 66.109375 
Q 29.4375 66.109375 22.71875 58.640625 
Q 16.015625 51.171875 16.015625 36.375 
Q 16.015625 21.625 22.71875 14.15625 
Q 29.4375 6.6875 42.828125 6.6875 
Q 48.046875 6.6875 52.140625 7.59375 
Q 56.25 8.5 59.515625 10.40625 
z
" id="DejaVuSans-71"/>
      <path d="M 28.609375 0 
L 0.78125 72.90625 
L 11.078125 72.90625 
L 34.1875 11.53125 
L 57.328125 72.90625 
L 67.578125 72.90625 
L 39.796875 0 
z
" id="DejaVuSans-86"/>
      <path d="M 19.671875 34.8125 
L 19.671875 8.109375 
L 35.5 8.109375 
Q 43.453125 8.109375 47.28125 11.40625 
Q 51.125 14.703125 51.125 21.484375 
Q 51.125 28.328125 47.28125 31.5625 
Q 43.453125 34.8125 35.5 34.8125 
z
M 19.671875 64.796875 
L 19.671875 42.828125 
L 34.28125 42.828125 
Q 41.5 42.828125 45.03125 45.53125 
Q 48.578125 48.25 48.578125 53.8125 
Q 48.578125 59.328125 45.03125 62.0625 
Q 41.5 64.796875 34.28125 64.796875 
z
M 9.8125 72.90625 
L 35.015625 72.90625 
Q 46.296875 72.90625 52.390625 68.21875 
Q 58.5 63.53125 58.5 54.890625 
Q 58.5 48.1875 55.375 44.234375 
Q 52.25 40.28125 46.1875 39.3125 
Q 53.46875 37.75 57.5 32.78125 
Q 61.53125 27.828125 61.53125 20.40625 
Q 61.53125 10.640625 54.890625 5.3125 
Q 48.25 0 35.984375 0 
L 9.8125 0 
z
" id="DejaVuSans-66"/>
     </defs>
     <g transform="translate(66.818665 36.390313)scale(0.05 -0.05)">
      <use xlink:href="#DejaVuSans-72"/>
      <use x="75.195312" xlink:href="#DejaVuSans-65"/>
      <use x="143.603516" xlink:href="#DejaVuSans-76"/>
      <use x="199.316406" xlink:href="#DejaVuSans-76"/>
      <use x="255.029297" xlink:href="#DejaVuSans-77"/>
      <use x="341.308594" xlink:href="#DejaVuSans-65"/>
      <use x="409.716797" xlink:href="#DejaVuSans-82"/>
      <use x="479.199219" xlink:href="#DejaVuSans-75"/>
      <use x="544.775391" xlink:href="#DejaVuSans-95"/>
      <use x="594.775391" xlink:href="#DejaVuSans-84"/>
      <use x="655.859375" xlink:href="#DejaVuSans-78"/>
      <use x="730.664062" xlink:href="#DejaVuSans-70"/>
      <use x="788.042969" xlink:href="#DejaVuSans-65"/>
      <use x="856.451172" xlink:href="#DejaVuSans-95"/>
      <use x="906.451172" xlink:href="#DejaVuSans-83"/>
      <use x="969.927734" xlink:href="#DejaVuSans-73"/>
      <use x="999.419922" xlink:href="#DejaVuSans-71"/>
      <use x="1076.910156" xlink:href="#DejaVuSans-78"/>
      <use x="1151.714844" xlink:href="#DejaVuSans-65"/>
      <use x="1220.123047" xlink:href="#DejaVuSans-76"/>
      <use x="1275.835938" xlink:href="#DejaVuSans-73"/>
      <use x="1305.328125" xlink:href="#DejaVuSans-78"/>
      <use x="1380.132812" xlink:href="#DejaVuSans-71"/>
      <use x="1457.623047" xlink:href="#DejaVuSans-95"/>
      <use x="1507.623047" xlink:href="#DejaVuSans-86"/>
      <use x="1576.03125" xlink:href="#DejaVuSans-73"/>
      <use x="1605.523438" xlink:href="#DejaVuSans-65"/>
      <use x="1673.931641" xlink:href="#DejaVuSans-95"/>
      <use x="1723.931641" xlink:href="#DejaVuSans-78"/>
      <use x="1798.736328" xlink:href="#DejaVuSans-70"/>
      <use x="1856.255859" xlink:href="#DejaVuSans-75"/>
      <use x="1921.832031" xlink:href="#DejaVuSans-66"/>
     </g>
    </g>
   </g>
   <g id="text_13">
    <g clip-path="url(#pbef4457f43)">
     <!-- HALLMARK_INTERFERON_GAMMA_RESPONSE -->
     <defs>
      <path d="M 39.40625 66.21875 
Q 28.65625 66.21875 22.328125 58.203125 
Q 16.015625 50.203125 16.015625 36.375 
Q 16.015625 22.609375 22.328125 14.59375 
Q 28.65625 6.59375 39.40625 6.59375 
Q 50.140625 6.59375 56.421875 14.59375 
Q 62.703125 22.609375 62.703125 36.375 
Q 62.703125 50.203125 56.421875 58.203125 
Q 50.140625 66.21875 39.40625 66.21875 
z
M 39.40625 74.21875 
Q 54.734375 74.21875 63.90625 63.9375 
Q 73.09375 53.65625 73.09375 36.375 
Q 73.09375 19.140625 63.90625 8.859375 
Q 54.734375 -1.421875 39.40625 -1.421875 
Q 24.03125 -1.421875 14.8125 8.828125 
Q 5.609375 19.09375 5.609375 36.375 
Q 5.609375 53.65625 14.8125 63.9375 
Q 24.03125 74.21875 39.40625 74.21875 
z
" id="DejaVuSans-79"/>
     </defs>
     <g transform="translate(147.327507 41.327456)scale(0.05 -0.05)">
      <use xlink:href="#DejaVuSans-72"/>
      <use x="75.195312" xlink:href="#DejaVuSans-65"/>
      <use x="143.603516" xlink:href="#DejaVuSans-76"/>
      <use x="199.316406" xlink:href="#DejaVuSans-76"/>
      <use x="255.029297" xlink:href="#DejaVuSans-77"/>
      <use x="341.308594" xlink:href="#DejaVuSans-65"/>
      <use x="409.716797" xlink:href="#DejaVuSans-82"/>
      <use x="479.199219" xlink:href="#DejaVuSans-75"/>
      <use x="544.775391" xlink:href="#DejaVuSans-95"/>
      <use x="594.775391" xlink:href="#DejaVuSans-73"/>
      <use x="624.267578" xlink:href="#DejaVuSans-78"/>
      <use x="699.072266" xlink:href="#DejaVuSans-84"/>
      <use x="760.15625" xlink:href="#DejaVuSans-69"/>
      <use x="823.339844" xlink:href="#DejaVuSans-82"/>
      <use x="892.822266" xlink:href="#DejaVuSans-70"/>
      <use x="950.341797" xlink:href="#DejaVuSans-69"/>
      <use x="1013.525391" xlink:href="#DejaVuSans-82"/>
      <use x="1083.007812" xlink:href="#DejaVuSans-79"/>
      <use x="1161.71875" xlink:href="#DejaVuSans-78"/>
      <use x="1236.523438" xlink:href="#DejaVuSans-95"/>
      <use x="1286.523438" xlink:href="#DejaVuSans-71"/>
      <use x="1364.013672" xlink:href="#DejaVuSans-65"/>
      <use x="1432.421875" xlink:href="#DejaVuSans-77"/>
      <use x="1518.701172" xlink:href="#DejaVuSans-77"/>
      <use x="1604.980469" xlink:href="#DejaVuSans-65"/>
      <use x="1673.388672" xlink:href="#DejaVuSans-95"/>
      <use x="1723.388672" xlink:href="#DejaVuSans-82"/>
      <use x="1792.871094" xlink:href="#DejaVuSans-69"/>
      <use x="1856.054688" xlink:href="#DejaVuSans-83"/>
      <use x="1919.53125" xlink:href="#DejaVuSans-80"/>
      <use x="1979.833984" xlink:href="#DejaVuSans-79"/>
      <use x="2058.544922" xlink:href="#DejaVuSans-78"/>
      <use x="2133.349609" xlink:href="#DejaVuSans-83"/>
      <use x="2196.826172" xlink:href="#DejaVuSans-69"/>
     </g>
    </g>
   </g>
   <g id="text_14">
    <g clip-path="url(#pbef4457f43)">
     <!-- HALLMARK_INFLAMMATORY_RESPONSE -->
     <defs>
      <path d="M -0.203125 72.90625 
L 10.40625 72.90625 
L 30.609375 42.921875 
L 50.6875 72.90625 
L 61.28125 72.90625 
L 35.5 34.71875 
L 35.5 0 
L 25.59375 0 
L 25.59375 34.71875 
z
" id="DejaVuSans-89"/>
     </defs>
     <g transform="translate(198.337851 56.138885)scale(0.05 -0.05)">
      <use xlink:href="#DejaVuSans-72"/>
      <use x="75.195312" xlink:href="#DejaVuSans-65"/>
      <use x="143.603516" xlink:href="#DejaVuSans-76"/>
      <use x="199.316406" xlink:href="#DejaVuSans-76"/>
      <use x="255.029297" xlink:href="#DejaVuSans-77"/>
      <use x="341.308594" xlink:href="#DejaVuSans-65"/>
      <use x="409.716797" xlink:href="#DejaVuSans-82"/>
      <use x="479.199219" xlink:href="#DejaVuSans-75"/>
      <use x="544.775391" xlink:href="#DejaVuSans-95"/>
      <use x="594.775391" xlink:href="#DejaVuSans-73"/>
      <use x="624.267578" xlink:href="#DejaVuSans-78"/>
      <use x="699.072266" xlink:href="#DejaVuSans-70"/>
      <use x="756.591797" xlink:href="#DejaVuSans-76"/>
      <use x="812.335938" xlink:href="#DejaVuSans-65"/>
      <use x="880.744141" xlink:href="#DejaVuSans-77"/>
      <use x="967.023438" xlink:href="#DejaVuSans-77"/>
      <use x="1053.302734" xlink:href="#DejaVuSans-65"/>
      <use x="1121.601562" xlink:href="#DejaVuSans-84"/>
      <use x="1182.685547" xlink:href="#DejaVuSans-79"/>
      <use x="1261.396484" xlink:href="#DejaVuSans-82"/>
      <use x="1330.785156" xlink:href="#DejaVuSans-89"/>
      <use x="1391.869141" xlink:href="#DejaVuSans-95"/>
      <use x="1441.869141" xlink:href="#DejaVuSans-82"/>
      <use x="1511.351562" xlink:href="#DejaVuSans-69"/>
      <use x="1574.535156" xlink:href="#DejaVuSans-83"/>
      <use x="1638.011719" xlink:href="#DejaVuSans-80"/>
      <use x="1698.314453" xlink:href="#DejaVuSans-79"/>
      <use x="1777.025391" xlink:href="#DejaVuSans-78"/>
      <use x="1851.830078" xlink:href="#DejaVuSans-83"/>
      <use x="1915.306641" xlink:href="#DejaVuSans-69"/>
     </g>
    </g>
   </g>
   <g id="text_15">
    <g clip-path="url(#pbef4457f43)">
     <!-- HALLMARK_IL6_JAK_STAT3_SIGNALING -->
     <defs>
      <path d="M 33.015625 40.375 
Q 26.375 40.375 22.484375 35.828125 
Q 18.609375 31.296875 18.609375 23.390625 
Q 18.609375 15.53125 22.484375 10.953125 
Q 26.375 6.390625 33.015625 6.390625 
Q 39.65625 6.390625 43.53125 10.953125 
Q 47.40625 15.53125 47.40625 23.390625 
Q 47.40625 31.296875 43.53125 35.828125 
Q 39.65625 40.375 33.015625 40.375 
z
M 52.59375 71.296875 
L 52.59375 62.3125 
Q 48.875 64.0625 45.09375 64.984375 
Q 41.3125 65.921875 37.59375 65.921875 
Q 27.828125 65.921875 22.671875 59.328125 
Q 17.53125 52.734375 16.796875 39.40625 
Q 19.671875 43.65625 24.015625 45.921875 
Q 28.375 48.1875 33.59375 48.1875 
Q 44.578125 48.1875 50.953125 41.515625 
Q 57.328125 34.859375 57.328125 23.390625 
Q 57.328125 12.15625 50.6875 5.359375 
Q 44.046875 -1.421875 33.015625 -1.421875 
Q 20.359375 -1.421875 13.671875 8.265625 
Q 6.984375 17.96875 6.984375 36.375 
Q 6.984375 53.65625 15.1875 63.9375 
Q 23.390625 74.21875 37.203125 74.21875 
Q 40.921875 74.21875 44.703125 73.484375 
Q 48.484375 72.75 52.59375 71.296875 
z
" id="DejaVuSans-54"/>
      <path d="M 9.8125 72.90625 
L 19.671875 72.90625 
L 19.671875 5.078125 
Q 19.671875 -8.109375 14.671875 -14.0625 
Q 9.671875 -20.015625 -1.421875 -20.015625 
L -5.171875 -20.015625 
L -5.171875 -11.71875 
L -2.09375 -11.71875 
Q 4.4375 -11.71875 7.125 -8.046875 
Q 9.8125 -4.390625 9.8125 5.078125 
z
" id="DejaVuSans-74"/>
      <path d="M 40.578125 39.3125 
Q 47.65625 37.796875 51.625 33 
Q 55.609375 28.21875 55.609375 21.1875 
Q 55.609375 10.40625 48.1875 4.484375 
Q 40.765625 -1.421875 27.09375 -1.421875 
Q 22.515625 -1.421875 17.65625 -0.515625 
Q 12.796875 0.390625 7.625 2.203125 
L 7.625 11.71875 
Q 11.71875 9.328125 16.59375 8.109375 
Q 21.484375 6.890625 26.8125 6.890625 
Q 36.078125 6.890625 40.9375 10.546875 
Q 45.796875 14.203125 45.796875 21.1875 
Q 45.796875 27.640625 41.28125 31.265625 
Q 36.765625 34.90625 28.71875 34.90625 
L 20.21875 34.90625 
L 20.21875 43.015625 
L 29.109375 43.015625 
Q 36.375 43.015625 40.234375 45.921875 
Q 44.09375 48.828125 44.09375 54.296875 
Q 44.09375 59.90625 40.109375 62.90625 
Q 36.140625 65.921875 28.71875 65.921875 
Q 24.65625 65.921875 20.015625 65.03125 
Q 15.375 64.15625 9.8125 62.3125 
L 9.8125 71.09375 
Q 15.4375 72.65625 20.34375 73.4375 
Q 25.25 74.21875 29.59375 74.21875 
Q 40.828125 74.21875 47.359375 69.109375 
Q 53.90625 64.015625 53.90625 55.328125 
Q 53.90625 49.265625 50.4375 45.09375 
Q 46.96875 40.921875 40.578125 39.3125 
z
" id="DejaVuSans-51"/>
     </defs>
     <g transform="translate(206.312033 51.201742)scale(0.05 -0.05)">
      <use xlink:href="#DejaVuSans-72"/>
      <use x="75.195312" xlink:href="#DejaVuSans-65"/>
      <use x="143.603516" xlink:href="#DejaVuSans-76"/>
      <use x="199.316406" xlink:href="#DejaVuSans-76"/>
      <use x="255.029297" xlink:href="#DejaVuSans-77"/>
      <use x="341.308594" xlink:href="#DejaVuSans-65"/>
      <use x="409.716797" xlink:href="#DejaVuSans-82"/>
      <use x="479.199219" xlink:href="#DejaVuSans-75"/>
      <use x="544.775391" xlink:href="#DejaVuSans-95"/>
      <use x="594.775391" xlink:href="#DejaVuSans-73"/>
      <use x="624.267578" xlink:href="#DejaVuSans-76"/>
      <use x="679.980469" xlink:href="#DejaVuSans-54"/>
      <use x="743.603516" xlink:href="#DejaVuSans-95"/>
      <use x="793.603516" xlink:href="#DejaVuSans-74"/>
      <use x="823.080078" xlink:href="#DejaVuSans-65"/>
      <use x="891.488281" xlink:href="#DejaVuSans-75"/>
      <use x="957.064453" xlink:href="#DejaVuSans-95"/>
      <use x="1007.064453" xlink:href="#DejaVuSans-83"/>
      <use x="1070.541016" xlink:href="#DejaVuSans-84"/>
      <use x="1131.515625" xlink:href="#DejaVuSans-65"/>
      <use x="1199.814453" xlink:href="#DejaVuSans-84"/>
      <use x="1260.898438" xlink:href="#DejaVuSans-51"/>
      <use x="1324.521484" xlink:href="#DejaVuSans-95"/>
      <use x="1374.521484" xlink:href="#DejaVuSans-83"/>
      <use x="1437.998047" xlink:href="#DejaVuSans-73"/>
      <use x="1467.490234" xlink:href="#DejaVuSans-71"/>
      <use x="1544.980469" xlink:href="#DejaVuSans-78"/>
      <use x="1619.785156" xlink:href="#DejaVuSans-65"/>
      <use x="1688.193359" xlink:href="#DejaVuSans-76"/>
      <use x="1743.90625" xlink:href="#DejaVuSans-73"/>
      <use x="1773.398438" xlink:href="#DejaVuSans-78"/>
      <use x="1848.203125" xlink:href="#DejaVuSans-71"/>
     </g>
    </g>
   </g>
   <g id="text_16">
    <g clip-path="url(#pbef4457f43)">
     <!-- HALLMARK_INTERFERON_ALPHA_RESPONSE -->
     <g transform="translate(301.286337 46.264599)scale(0.05 -0.05)">
      <use xlink:href="#DejaVuSans-72"/>
      <use x="75.195312" xlink:href="#DejaVuSans-65"/>
      <use x="143.603516" xlink:href="#DejaVuSans-76"/>
      <use x="199.316406" xlink:href="#DejaVuSans-76"/>
      <use x="255.029297" xlink:href="#DejaVuSans-77"/>
      <use x="341.308594" xlink:href="#DejaVuSans-65"/>
      <use x="409.716797" xlink:href="#DejaVuSans-82"/>
      <use x="479.199219" xlink:href="#DejaVuSans-75"/>
      <use x="544.775391" xlink:href="#DejaVuSans-95"/>
      <use x="594.775391" xlink:href="#DejaVuSans-73"/>
      <use x="624.267578" xlink:href="#DejaVuSans-78"/>
      <use x="699.072266" xlink:href="#DejaVuSans-84"/>
      <use x="760.15625" xlink:href="#DejaVuSans-69"/>
      <use x="823.339844" xlink:href="#DejaVuSans-82"/>
      <use x="892.822266" xlink:href="#DejaVuSans-70"/>
      <use x="950.341797" xlink:href="#DejaVuSans-69"/>
      <use x="1013.525391" xlink:href="#DejaVuSans-82"/>
      <use x="1083.007812" xlink:href="#DejaVuSans-79"/>
      <use x="1161.71875" xlink:href="#DejaVuSans-78"/>
      <use x="1236.523438" xlink:href="#DejaVuSans-95"/>
      <use x="1286.523438" xlink:href="#DejaVuSans-65"/>
      <use x="1354.931641" xlink:href="#DejaVuSans-76"/>
      <use x="1410.644531" xlink:href="#DejaVuSans-80"/>
      <use x="1470.947266" xlink:href="#DejaVuSans-72"/>
      <use x="1546.142578" xlink:href="#DejaVuSans-65"/>
      <use x="1614.550781" xlink:href="#DejaVuSans-95"/>
      <use x="1664.550781" xlink:href="#DejaVuSans-82"/>
      <use x="1734.033203" xlink:href="#DejaVuSans-69"/>
      <use x="1797.216797" xlink:href="#DejaVuSans-83"/>
      <use x="1860.693359" xlink:href="#DejaVuSans-80"/>
      <use x="1920.996094" xlink:href="#DejaVuSans-79"/>
      <use x="1999.707031" xlink:href="#DejaVuSans-78"/>
      <use x="2074.511719" xlink:href="#DejaVuSans-83"/>
      <use x="2137.988281" xlink:href="#DejaVuSans-69"/>
     </g>
    </g>
   </g>
  </g>
  <g id="text_17">
   <!-- GSVA pathway statistics vs ranking -->
   <defs>
    <path d="M 18.109375 8.203125 
L 18.109375 -20.796875 
L 9.078125 -20.796875 
L 9.078125 54.6875 
L 18.109375 54.6875 
L 18.109375 46.390625 
Q 20.953125 51.265625 25.265625 53.625 
Q 29.59375 56 35.59375 56 
Q 45.5625 56 51.78125 48.09375 
Q 58.015625 40.1875 58.015625 27.296875 
Q 58.015625 14.40625 51.78125 6.484375 
Q 45.5625 -1.421875 35.59375 -1.421875 
Q 29.59375 -1.421875 25.265625 0.953125 
Q 20.953125 3.328125 18.109375 8.203125 
z
M 48.6875 27.296875 
Q 48.6875 37.203125 44.609375 42.84375 
Q 40.53125 48.484375 33.40625 48.484375 
Q 26.265625 48.484375 22.1875 42.84375 
Q 18.109375 37.203125 18.109375 27.296875 
Q 18.109375 17.390625 22.1875 11.75 
Q 26.265625 6.109375 33.40625 6.109375 
Q 40.53125 6.109375 44.609375 11.75 
Q 48.6875 17.390625 48.6875 27.296875 
z
" id="DejaVuSans-112"/>
    <path d="M 4.203125 54.6875 
L 13.1875 54.6875 
L 24.421875 12.015625 
L 35.59375 54.6875 
L 46.1875 54.6875 
L 57.421875 12.015625 
L 68.609375 54.6875 
L 77.59375 54.6875 
L 63.28125 0 
L 52.6875 0 
L 40.921875 44.828125 
L 29.109375 0 
L 18.5 0 
z
" id="DejaVuSans-119"/>
    <path d="M 32.171875 -5.078125 
Q 28.375 -14.84375 24.75 -17.8125 
Q 21.140625 -20.796875 15.09375 -20.796875 
L 7.90625 -20.796875 
L 7.90625 -13.28125 
L 13.1875 -13.28125 
Q 16.890625 -13.28125 18.9375 -11.515625 
Q 21 -9.765625 23.484375 -3.21875 
L 25.09375 0.875 
L 2.984375 54.6875 
L 12.5 54.6875 
L 29.59375 11.921875 
L 46.6875 54.6875 
L 56.203125 54.6875 
z
" id="DejaVuSans-121"/>
    <path d="M 2.984375 54.6875 
L 12.5 54.6875 
L 29.59375 8.796875 
L 46.6875 54.6875 
L 56.203125 54.6875 
L 35.6875 0 
L 23.484375 0 
z
" id="DejaVuSans-118"/>
   </defs>
   <g transform="translate(90.657031 11.397656)scale(0.15 -0.15)">
    <use xlink:href="#DejaVuSans-71"/>
    <use x="77.490234" xlink:href="#DejaVuSans-83"/>
    <use x="140.966797" xlink:href="#DejaVuSans-86"/>
    <use x="209.28125" xlink:href="#DejaVuSans-65"/>
    <use x="277.689453" xlink:href="#DejaVuSans-32"/>
    <use x="309.476562" xlink:href="#DejaVuSans-112"/>
    <use x="372.953125" xlink:href="#DejaVuSans-97"/>
    <use x="434.232422" xlink:href="#DejaVuSans-116"/>
    <use x="473.441406" xlink:href="#DejaVuSans-104"/>
    <use x="536.820312" xlink:href="#DejaVuSans-119"/>
    <use x="618.607422" xlink:href="#DejaVuSans-97"/>
    <use x="679.886719" xlink:href="#DejaVuSans-121"/>
    <use x="739.066406" xlink:href="#DejaVuSans-32"/>
    <use x="770.853516" xlink:href="#DejaVuSans-115"/>
    <use x="822.953125" xlink:href="#DejaVuSans-116"/>
    <use x="862.162109" xlink:href="#DejaVuSans-97"/>
    <use x="923.441406" xlink:href="#DejaVuSans-116"/>
    <use x="962.650391" xlink:href="#DejaVuSans-105"/>
    <use x="990.433594" xlink:href="#DejaVuSans-115"/>
    <use x="1042.533203" xlink:href="#DejaVuSans-116"/>
    <use x="1081.742188" xlink:href="#DejaVuSans-105"/>
    <use x="1109.525391" xlink:href="#DejaVuSans-99"/>
    <use x="1164.505859" xlink:href="#DejaVuSans-115"/>
    <use x="1216.605469" xlink:href="#DejaVuSans-32"/>
    <use x="1248.392578" xlink:href="#DejaVuSans-118"/>
    <use x="1307.572266" xlink:href="#DejaVuSans-115"/>
    <use x="1359.671875" xlink:href="#DejaVuSans-32"/>
    <use x="1391.458984" xlink:href="#DejaVuSans-114"/>
    <use x="1432.572266" xlink:href="#DejaVuSans-97"/>
    <use x="1493.851562" xlink:href="#DejaVuSans-110"/>
    <use x="1557.230469" xlink:href="#DejaVuSans-107"/>
    <use x="1615.140625" xlink:href="#DejaVuSans-105"/>
    <use x="1642.923828" xlink:href="#DejaVuSans-110"/>
    <use x="1706.302734" xlink:href="#DejaVuSans-103"/>
   </g>
  </g>
 </g>
 <defs>
  <clipPath id="pbef4457f43">
   <rect height="266.112" width="357.12" x="50.585938" y="20.583376"/>
  </clipPath>
 </defs>
</svg>
