<?xml version="1.0" encoding="utf-8" standalone="no"?>
<!DOCTYPE svg PUBLIC "-//W3C//DTD SVG 1.1//EN"
  "http://www.w3.org/Graphics/SVG/1.1/DTD/svg11.dtd">
<!-- Created with matplotlib (https://matplotlib.org/) -->
<svg height="322.176313pt" version="1.1" viewBox="0 0 406.642188 322.176313" width="406.642188pt" xmlns="http://www.w3.org/2000/svg" xmlns:xlink="http://www.w3.org/1999/xlink">
 <defs>
  <style type="text/css">
*{stroke-linecap:butt;stroke-linejoin:round;}
  </style>
 </defs>
 <g id="figure_1">
  <g id="patch_1">
   <path d="M 0 322.176313
L 406.642188 322.176313
L 406.642188 0
L 0 0
z
" style="fill:#ffffff;stroke:#ffffff;stroke-linejoin:miter;"/>
  </g>
  <g id="axes_1">
   <g id="patch_2">
    <path d="M 46.772188 286.695376
L 403.892188 286.695376
L 403.892188 20.583376
L 46.772188 20.583376
z
" style="fill:none;"/>
   </g>
   <g id="matplotlib.axis_1">
    <g id="xtick_1">
     <g id="line2d_1">
      <path clip-path="url(#p66fa4eff83)" d="M 63.004915 286.695376
L 63.004915 20.583376
" style="fill:none;stroke:#e5e5e5;stroke-width:0.8;"/>
     </g>
     <g id="line2d_2">
      <path d="M 63.004915 286.695376
" style="fill:none;stroke:#000000;stroke-width:1.5;"/>
      <defs>
       <path d="M 0 0
L 0 2.75
" id="m8e06e2c919" style="stroke:#000000;"/>
      </defs>
      <g>
       <use style="stroke:#000000;" x="63.004915" xlink:href="#m8e06e2c919" y="286.695376"/>
      </g>
     </g>
     <g id="text_1">
      <!-- 0 -->
      <defs>
       <path d="M 31.78125 66.40625
Q 24.171875 66.40625 20.328125 58.90625
Q 16.5 51.421875 16.5 36.375
Q 16.5 21.390625 20.328125 13.890625
Q 24.171875 6.390625 31.78125 6.390625
Q 39.453125 6.390625 43.28125 13.890625
Q 47.125 21.390625 47.125 36.375
Q 47.125 51.421875 43.28125 58.90625
Q 39.453125 66.40625 31.78125 66.40625
z
M 31.78125 74.21875
Q 44.046875 74.21875 50.515625 64.515625
Q 56.984375 54.828125 56.984375 36.375
Q 56.984375 17.96875 50.515625 8.265625
Q 44.046875 -1.421875 31.78125 -1.421875
Q 19.53125 -1.421875 13.0625 8.265625
Q 6.59375 17.96875 6.59375 36.375
Q 6.59375 54.828125 13.0625 64.515625
Q 19.53125 74.21875 31.78125 74.21875
z
" id="DejaVuSans-48"/>
      </defs>
      <g style="fill:#4d4d4d;" transform="translate(59.187415 300.763501)scale(0.12 -0.12)">
       <use xlink:href="#DejaVuSans-48"/>
      </g>
     </g>
    </g>
    <g id="xtick_2">
     <g id="line2d_3">
      <path clip-path="url(#p66fa4eff83)" d="M 144.168551 286.695376
L 144.168551 20.583376
" style="fill:none;stroke:#e5e5e5;stroke-width:0.8;"/>
     </g>
     <g id="line2d_4">
      <path d="M 144.168551 286.695376
" style="fill:none;stroke:#000000;stroke-width:1.5;"/>
      <g>
       <use style="stroke:#000000;" x="144.168551" xlink:href="#m8e06e2c919" y="286.695376"/>
      </g>
     </g>
     <g id="text_2">
      <!-- 25 -->
      <defs>
       <path d="M 19.1875 8.296875
L 53.609375 8.296875
L 53.609375 0
L 7.328125 0
L 7.328125 8.296875
Q 12.9375 14.109375 22.625 23.890625
Q 32.328125 33.6875 34.8125 36.53125
Q 39.546875 41.84375 41.421875 45.53125
Q 43.3125 49.21875 43.3125 52.78125
Q 43.3125 58.59375 39.234375 62.25
Q 35.15625 65.921875 28.609375 65.921875
Q 23.96875 65.921875 18.8125 64.3125
Q 13.671875 62.703125 7.8125 59.421875
L 7.8125 69.390625
Q 13.765625 71.78125 18.9375 73
Q 24.125 74.21875 28.421875 74.21875
Q 39.75 74.21875 46.484375 68.546875
Q 53.21875 62.890625 53.21875 53.421875
Q 53.21875 48.921875 51.53125 44.890625
Q 49.859375 40.875 45.40625 35.40625
Q 44.1875 33.984375 37.640625 27.21875
Q 31.109375 20.453125 19.1875 8.296875
z
" id="DejaVuSans-50"/>
       <path d="M 10.796875 72.90625
L 49.515625 72.90625
L 49.515625 64.59375
L 19.828125 64.59375
L 19.828125 46.734375
Q 21.96875 47.46875 24.109375 47.828125
Q 26.265625 48.1875 28.421875 48.1875
Q 40.625 48.1875 47.75 41.5
Q 54.890625 34.8125 54.890625 23.390625
Q 54.890625 11.625 47.5625 5.09375
Q 40.234375 -1.421875 26.90625 -1.421875
Q 22.3125 -1.421875 17.546875 -0.640625
Q 12.796875 0.140625 7.71875 1.703125
L 7.71875 11.625
Q 12.109375 9.234375 16.796875 8.0625
Q 21.484375 6.890625 26.703125 6.890625
Q 35.15625 6.890625 40.078125 11.328125
Q 45.015625 15.765625 45.015625 23.390625
Q 45.015625 31 40.078125 35.4375
Q 35.15625 39.890625 26.703125 39.890625
Q 22.75 39.890625 18.8125 39.015625
Q 14.890625 38.140625 10.796875 36.28125
z
" id="DejaVuSans-53"/>
      </defs>
      <g style="fill:#4d4d4d;" transform="translate(136.533551 300.763501)scale(0.12 -0.12)">
       <use xlink:href="#DejaVuSans-50"/>
       <use x="63.623047" xlink:href="#DejaVuSans-53"/>
      </g>
     </g>
    </g>
    <g id="xtick_3">
     <g id="line2d_5">
      <path clip-path="url(#p66fa4eff83)" d="M 225.332188 286.695376
L 225.332188 20.583376
" style="fill:none;stroke:#e5e5e5;stroke-width:0.8;"/>
     </g>
     <g id="line2d_6">
      <path d="M 225.332188 286.695376
" style="fill:none;stroke:#000000;stroke-width:1.5;"/>
      <g>
       <use style="stroke:#000000;" x="225.332188" xlink:href="#m8e06e2c919" y="286.695376"/>
      </g>
     </g>
     <g id="text_3">
      <!-- 50 -->
      <g style="fill:#4d4d4d;" transform="translate(217.697188 300.763501)scale(0.12 -0.12)">
       <use xlink:href="#DejaVuSans-53"/>
       <use x="63.623047" xlink:href="#DejaVuSans-48"/>
      </g>
     </g>
    </g>
    <g id="xtick_4">
     <g id="line2d_7">
      <path clip-path="url(#p66fa4eff83)" d="M 306.495824 286.695376
L 306.495824 20.583376
" style="fill:none;stroke:#e5e5e5;stroke-width:0.8;"/>
     </g>
     <g id="line2d_8">
      <path d="M 306.495824 286.695376
" style="fill:none;stroke:#000000;stroke-width:1.5;"/>
      <g>
       <use style="stroke:#000000;" x="306.495824" xlink:href="#m8e06e2c919" y="286.695376"/>
      </g>
     </g>
     <g id="text_4">
      <!-- 75 -->
      <defs>
       <path d="M 8.203125 72.90625
L 55.078125 72.90625
L 55.078125 68.703125
L 28.609375 0
L 18.3125 0
L 43.21875 64.59375
L 8.203125 64.59375
z
" id="DejaVuSans-55"/>
      </defs>
      <g style="fill:#4d4d4d;" transform="translate(298.860824 300.763501)scale(0.12 -0.12)">
       <use xlink:href="#DejaVuSans-55"/>
       <use x="63.623047" xlink:href="#DejaVuSans-53"/>
      </g>
     </g>
    </g>
    <g id="xtick_5">
     <g id="line2d_9">
      <path clip-path="url(#p66fa4eff83)" d="M 387.65946 286.695376
L 387.65946 20.583376
" style="fill:none;stroke:#e5e5e5;stroke-width:0.8;"/>
     </g>
     <g id="line2d_10">
      <path d="M 387.65946 286.695376
" style="fill:none;stroke:#000000;stroke-width:1.5;"/>
      <g>
       <use style="stroke:#000000;" x="387.65946" xlink:href="#m8e06e2c919" y="286.695376"/>
      </g>
     </g>
     <g id="text_5">
      <!-- 100 -->
      <defs>
       <path d="M 12.40625 8.296875
L 28.515625 8.296875
L 28.515625 63.921875
L 10.984375 60.40625
L 10.984375 69.390625
L 28.421875 72.90625
L 38.28125 72.90625
L 38.28125 8.296875
L 54.390625 8.296875
L 54.390625 0
L 12.40625 0
z
" id="DejaVuSans-49"/>
      </defs>
      <g style="fill:#4d4d4d;" transform="translate(376.20696 300.763501)scale(0.12 -0.12)">
       <use xlink:href="#DejaVuSans-49"/>
       <use x="63.623047" xlink:href="#DejaVuSans-48"/>
       <use x="127.246094" xlink:href="#DejaVuSans-48"/>
      </g>
     </g>
    </g>
    <g id="xtick_6">
     <g id="line2d_11">
      <path clip-path="url(#p66fa4eff83)" d="M 103.586733 286.695376
L 103.586733 20.583376
" style="fill:none;stroke:#fafafa;"/>
     </g>
     <g id="line2d_12">
      <path d="M 103.586733 286.695376
" style="fill:none;stroke:#000000;stroke-width:1.5;"/>
     </g>
    </g>
    <g id="xtick_7">
     <g id="line2d_13">
      <path clip-path="url(#p66fa4eff83)" d="M 184.750369 286.695376
L 184.750369 20.583376
" style="fill:none;stroke:#fafafa;"/>
     </g>
     <g id="line2d_14">
      <path d="M 184.750369 286.695376
" style="fill:none;stroke:#000000;stroke-width:1.5;"/>
     </g>
    </g>
    <g id="xtick_8">
     <g id="line2d_15">
      <path clip-path="url(#p66fa4eff83)" d="M 265.914006 286.695376
L 265.914006 20.583376
" style="fill:none;stroke:#fafafa;"/>
     </g>
     <g id="line2d_16">
      <path d="M 265.914006 286.695376
" style="fill:none;stroke:#000000;stroke-width:1.5;"/>
     </g>
    </g>
    <g id="xtick_9">
     <g id="line2d_17">
      <path clip-path="url(#p66fa4eff83)" d="M 347.077642 286.695376
L 347.077642 20.583376
" style="fill:none;stroke:#fafafa;"/>
     </g>
     <g id="line2d_18">
      <path d="M 347.077642 286.695376
" style="fill:none;stroke:#000000;stroke-width:1.5;"/>
     </g>
    </g>
    <g id="text_6">
     <!-- GSVA pathway ranking -->
     <defs>
      <path d="M 59.515625 10.40625
L 59.515625 29.984375
L 43.40625 29.984375
L 43.40625 38.09375
L 69.28125 38.09375
L 69.28125 6.78125
Q 63.578125 2.734375 56.6875 0.65625
Q 49.8125 -1.421875 42 -1.421875
Q 24.90625 -1.421875 15.25 8.5625
Q 5.609375 18.5625 5.609375 36.375
Q 5.609375 54.25 15.25 64.234375
Q 24.90625 74.21875 42 74.21875
Q 49.125 74.21875 55.546875 72.453125
Q 61.96875 70.703125 67.390625 67.28125
L 67.390625 56.78125
Q 61.921875 61.421875 55.765625 63.765625
Q 49.609375 66.109375 42.828125 66.109375
Q 29.4375 66.109375 22.71875 58.640625
Q 16.015625 51.171875 16.015625 36.375
Q 16.015625 21.625 22.71875 14.15625
Q 29.4375 6.6875 42.828125 6.6875
Q 48.046875 6.6875 52.140625 7.59375
Q 56.25 8.5 59.515625 10.40625
z
" id="DejaVuSans-71"/>
      <path d="M 53.515625 70.515625
L 53.515625 60.890625
Q 47.90625 63.578125 42.921875 64.890625
Q 37.9375 66.21875 33.296875 66.21875
Q 25.25 66.21875 20.875 63.09375
Q 16.5 59.96875 16.5 54.203125
Q 16.5 49.359375 19.40625 46.890625
Q 22.3125 44.4375 30.421875 42.921875
L 36.375 41.703125
Q 47.40625 39.59375 52.65625 34.296875
Q 57.90625 29 57.90625 20.125
Q 57.90625 9.515625 50.796875 4.046875
Q 43.703125 -1.421875 29.984375 -1.421875
Q 24.8125 -1.421875 18.96875 -0.25
Q 13.140625 0.921875 6.890625 3.21875
L 6.890625 13.375
Q 12.890625 10.015625 18.65625 8.296875
Q 24.421875 6.59375 29.984375 6.59375
Q 38.421875 6.59375 43.015625 9.90625
Q 47.609375 13.234375 47.609375 19.390625
Q 47.609375 24.75 44.3125 27.78125
Q 41.015625 30.8125 33.5 32.328125
L 27.484375 33.5
Q 16.453125 35.6875 11.515625 40.375
Q 6.59375 45.0625 6.59375 53.421875
Q 6.59375 63.09375 13.40625 68.65625
Q 20.21875 74.21875 32.171875 74.21875
Q 37.3125 74.21875 42.625 73.28125
Q 47.953125 72.359375 53.515625 70.515625
z
" id="DejaVuSans-83"/>
      <path d="M 28.609375 0
L 0.78125 72.90625
L 11.078125 72.90625
L 34.1875 11.53125
L 57.328125 72.90625
L 67.578125 72.90625
L 39.796875 0
z
" id="DejaVuSans-86"/>
      <path d="M 34.1875 63.1875
L 20.796875 26.90625
L 47.609375 26.90625
z
M 28.609375 72.90625
L 39.796875 72.90625
L 67.578125 0
L 57.328125 0
L 50.6875 18.703125
L 17.828125 18.703125
L 11.1875 0
L 0.78125 0
z
" id="DejaVuSans-65"/>
      <path id="DejaVuSans-32"/>
      <path d="M 18.109375 8.203125
L 18.109375 -20.796875
L 9.078125 -20.796875
L 9.078125 54.6875
L 18.109375 54.6875
L 18.109375 46.390625
Q 20.953125 51.265625 25.265625 53.625
Q 29.59375 56 35.59375 56
Q 45.5625 56 51.78125 48.09375
Q 58.015625 40.1875 58.015625 27.296875
Q 58.015625 14.40625 51.78125 6.484375
Q 45.5625 -1.421875 35.59375 -1.421875
Q 29.59375 -1.421875 25.265625 0.953125
Q 20.953125 3.328125 18.109375 8.203125
z
M 48.6875 27.296875
Q 48.6875 37.203125 44.609375 42.84375
Q 40.53125 48.484375 33.40625 48.484375
Q 26.265625 48.484375 22.1875 42.84375
Q 18.109375 37.203125 18.109375 27.296875
Q 18.109375 17.390625 22.1875 11.75
Q 26.265625 6.109375 33.40625 6.109375
Q 40.53125 6.109375 44.609375 11.75
Q 48.6875 17.390625 48.6875 27.296875
z
" id="DejaVuSans-112"/>
      <path d="M 34.28125 27.484375
Q 23.390625 27.484375 19.1875 25
Q 14.984375 22.515625 14.984375 16.5
Q 14.984375 11.71875 18.140625 8.90625
Q 21.296875 6.109375 26.703125 6.109375
Q 34.1875 6.109375 38.703125 11.40625
Q 43.21875 16.703125 43.21875 25.484375
L 43.21875 27.484375
z
M 52.203125 31.203125
L 52.203125 0
L 43.21875 0
L 43.21875 8.296875
Q 40.140625 3.328125 35.546875 0.953125
Q 30.953125 -1.421875 24.3125 -1.421875
Q 15.921875 -1.421875 10.953125 3.296875
Q 6 8.015625 6 15.921875
Q 6 25.140625 12.171875 29.828125
Q 18.359375 34.515625 30.609375 34.515625
L 43.21875 34.515625
L 43.21875 35.40625
Q 43.21875 41.609375 39.140625 45
Q 35.0625 48.390625 27.6875 48.390625
Q 23 48.390625 18.546875 47.265625
Q 14.109375 46.140625 10.015625 43.890625
L 10.015625 52.203125
Q 14.9375 54.109375 19.578125 55.046875
Q 24.21875 56 28.609375 56
Q 40.484375 56 46.34375 49.84375
Q 52.203125 43.703125 52.203125 31.203125
z
" id="DejaVuSans-97"/>
      <path d="M 18.3125 70.21875
L 18.3125 54.6875
L 36.8125 54.6875
L 36.8125 47.703125
L 18.3125 47.703125
L 18.3125 18.015625
Q 18.3125 11.328125 20.140625 9.421875
Q 21.96875 7.515625 27.59375 7.515625
L 36.8125 7.515625
L 36.8125 0
L 27.59375 0
Q 17.1875 0 13.234375 3.875
Q 9.28125 7.765625 9.28125 18.015625
L 9.28125 47.703125
L 2.6875 47.703125
L 2.6875 54.6875
L 9.28125 54.6875
L 9.28125 70.21875
z
" id="DejaVuSans-116"/>
      <path d="M 54.890625 33.015625
L 54.890625 0
L 45.90625 0
L 45.90625 32.71875
Q 45.90625 40.484375 42.875 44.328125
Q 39.84375 48.1875 33.796875 48.1875
Q 26.515625 48.1875 22.3125 43.546875
Q 18.109375 38.921875 18.109375 30.90625
L 18.109375 0
L 9.078125 0
L 9.078125 75.984375
L 18.109375 75.984375
L 18.109375 46.1875
Q 21.34375 51.125 25.703125 53.5625
Q 30.078125 56 35.796875 56
Q 45.21875 56 50.046875 50.171875
Q 54.890625 44.34375 54.890625 33.015625
z
" id="DejaVuSans-104"/>
      <path d="M 4.203125 54.6875
L 13.1875 54.6875
L 24.421875 12.015625
L 35.59375 54.6875
L 46.1875 54.6875
L 57.421875 12.015625
L 68.609375 54.6875
L 77.59375 54.6875
L 63.28125 0
L 52.6875 0
L 40.921875 44.828125
L 29.109375 0
L 18.5 0
z
" id="DejaVuSans-119"/>
      <path d="M 32.171875 -5.078125
Q 28.375 -14.84375 24.75 -17.8125
Q 21.140625 -20.796875 15.09375 -20.796875
L 7.90625 -20.796875
L 7.90625 -13.28125
L 13.1875 -13.28125
Q 16.890625 -13.28125 18.9375 -11.515625
Q 21 -9.765625 23.484375 -3.21875
L 25.09375 0.875
L 2.984375 54.6875
L 12.5 54.6875
L 29.59375 11.921875
L 46.6875 54.6875
L 56.203125 54.6875
z
" id="DejaVuSans-121"/>
      <path d="M 41.109375 46.296875
Q 39.59375 47.171875 37.8125 47.578125
Q 36.03125 48 33.890625 48
Q 26.265625 48 22.1875 43.046875
Q 18.109375 38.09375 18.109375 28.8125
L 18.109375 0
L 9.078125 0
L 9.078125 54.6875
L 18.109375 54.6875
L 18.109375 46.1875
Q 20.953125 51.171875 25.484375 53.578125
Q 30.03125 56 36.53125 56
Q 37.453125 56 38.578125 55.875
Q 39.703125 55.765625 41.0625 55.515625
z
" id="DejaVuSans-114"/>
      <path d="M 54.890625 33.015625
L 54.890625 0
L 45.90625 0
L 45.90625 32.71875
Q 45.90625 40.484375 42.875 44.328125
Q 39.84375 48.1875 33.796875 48.1875
Q 26.515625 48.1875 22.3125 43.546875
Q 18.109375 38.921875 18.109375 30.90625
L 18.109375 0
L 9.078125 0
L 9.078125 54.6875
L 18.109375 54.6875
L 18.109375 46.1875
Q 21.34375 51.125 25.703125 53.5625
Q 30.078125 56 35.796875 56
Q 45.21875 56 50.046875 50.171875
Q 54.890625 44.34375 54.890625 33.015625
z
" id="DejaVuSans-110"/>
      <path d="M 9.078125 75.984375
L 18.109375 75.984375
L 18.109375 31.109375
L 44.921875 54.6875
L 56.390625 54.6875
L 27.390625 29.109375
L 57.625 0
L 45.90625 0
L 18.109375 26.703125
L 18.109375 0
L 9.078125 0
z
" id="DejaVuSans-107"/>
      <path d="M 9.421875 54.6875
L 18.40625 54.6875
L 18.40625 0
L 9.421875 0
z
M 9.421875 75.984375
L 18.40625 75.984375
L 18.40625 64.59375
L 9.421875 64.59375
z
" id="DejaVuSans-105"/>
      <path d="M 45.40625 27.984375
Q 45.40625 37.75 41.375 43.109375
Q 37.359375 48.484375 30.078125 48.484375
Q 22.859375 48.484375 18.828125 43.109375
Q 14.796875 37.75 14.796875 27.984375
Q 14.796875 18.265625 18.828125 12.890625
Q 22.859375 7.515625 30.078125 7.515625
Q 37.359375 7.515625 41.375 12.890625
Q 45.40625 18.265625 45.40625 27.984375
z
M 54.390625 6.78125
Q 54.390625 -7.171875 48.1875 -13.984375
Q 42 -20.796875 29.203125 -20.796875
Q 24.46875 -20.796875 20.265625 -20.09375
Q 16.0625 -19.390625 12.109375 -17.921875
L 12.109375 -9.1875
Q 16.0625 -11.328125 19.921875 -12.34375
Q 23.78125 -13.375 27.78125 -13.375
Q 36.625 -13.375 41.015625 -8.765625
Q 45.40625 -4.15625 45.40625 5.171875
L 45.40625 9.625
Q 42.625 4.78125 38.28125 2.390625
Q 33.9375 0 27.875 0
Q 17.828125 0 11.671875 7.65625
Q 5.515625 15.328125 5.515625 27.984375
Q 5.515625 40.671875 11.671875 48.328125
Q 17.828125 56 27.875 56
Q 33.9375 56 38.28125 53.609375
Q 42.625 51.21875 45.40625 46.390625
L 45.40625 54.6875
L 54.390625 54.6875
z
" id="DejaVuSans-103"/>
     </defs>
     <g transform="translate(133.385469 319.056782)scale(0.15 -0.15)">
      <use xlink:href="#DejaVuSans-71"/>
      <use x="77.490234" xlink:href="#DejaVuSans-83"/>
      <use x="140.966797" xlink:href="#DejaVuSans-86"/>
      <use x="209.28125" xlink:href="#DejaVuSans-65"/>
      <use x="277.689453" xlink:href="#DejaVuSans-32"/>
      <use x="309.476562" xlink:href="#DejaVuSans-112"/>
      <use x="372.953125" xlink:href="#DejaVuSans-97"/>
      <use x="434.232422" xlink:href="#DejaVuSans-116"/>
      <use x="473.441406" xlink:href="#DejaVuSans-104"/>
      <use x="536.820312" xlink:href="#DejaVuSans-119"/>
      <use x="618.607422" xlink:href="#DejaVuSans-97"/>
      <use x="679.886719" xlink:href="#DejaVuSans-121"/>
      <use x="739.066406" xlink:href="#DejaVuSans-32"/>
      <use x="770.853516" xlink:href="#DejaVuSans-114"/>
      <use x="811.966797" xlink:href="#DejaVuSans-97"/>
      <use x="873.246094" xlink:href="#DejaVuSans-110"/>
      <use x="936.625" xlink:href="#DejaVuSans-107"/>
      <use x="994.535156" xlink:href="#DejaVuSans-105"/>
      <use x="1022.318359" xlink:href="#DejaVuSans-110"/>
      <use x="1085.697266" xlink:href="#DejaVuSans-103"/>
     </g>
    </g>
   </g>
   <g id="matplotlib.axis_2">
    <g id="ytick_1">
     <g id="line2d_19">
      <path clip-path="url(#p66fa4eff83)" d="M 46.772188 274.599376
L 403.892188 274.599376
" style="fill:none;stroke:#e5e5e5;stroke-width:0.8;"/>
     </g>
     <g id="line2d_20">
      <path d="M 46.772188 274.599376
" style="fill:none;stroke:#000000;stroke-width:1.5;"/>
      <defs>
       <path d="M 0 0
L -2.75 0
" id="m89b0efb3f6" style="stroke:#000000;"/>
      </defs>
      <g>
       <use style="stroke:#000000;" x="46.772188" xlink:href="#m89b0efb3f6" y="274.599376"/>
      </g>
     </g>
     <g id="text_7">
      <!-- 0 -->
      <g style="fill:#4d4d4d;" transform="translate(34.187188 277.910626)scale(0.12 -0.12)">
       <use xlink:href="#DejaVuSans-48"/>
      </g>
     </g>
    </g>
    <g id="ytick_2">
     <g id="line2d_21">
      <path clip-path="url(#p66fa4eff83)" d="M 46.772188 214.119376
L 403.892188 214.119376
" style="fill:none;stroke:#e5e5e5;stroke-width:0.8;"/>
     </g>
     <g id="line2d_22">
      <path d="M 46.772188 214.119376
" style="fill:none;stroke:#000000;stroke-width:1.5;"/>
      <g>
       <use style="stroke:#000000;" x="46.772188" xlink:href="#m89b0efb3f6" y="214.119376"/>
      </g>
     </g>
     <g id="text_8">
      <!-- 25 -->
      <g style="fill:#4d4d4d;" transform="translate(26.552188 217.430626)scale(0.12 -0.12)">
       <use xlink:href="#DejaVuSans-50"/>
       <use x="63.623047" xlink:href="#DejaVuSans-53"/>
      </g>
     </g>
    </g>
    <g id="ytick_3">
     <g id="line2d_23">
      <path clip-path="url(#p66fa4eff83)" d="M 46.772188 153.639376
L 403.892188 153.639376
" style="fill:none;stroke:#e5e5e5;stroke-width:0.8;"/>
     </g>
     <g id="line2d_24">
      <path d="M 46.772188 153.639376
" style="fill:none;stroke:#000000;stroke-width:1.5;"/>
      <g>
       <use style="stroke:#000000;" x="46.772188" xlink:href="#m89b0efb3f6" y="153.639376"/>
      </g>
     </g>
     <g id="text_9">
      <!-- 50 -->
      <g style="fill:#4d4d4d;" transform="translate(26.552188 156.950626)scale(0.12 -0.12)">
       <use xlink:href="#DejaVuSans-53"/>
       <use x="63.623047" xlink:href="#DejaVuSans-48"/>
      </g>
     </g>
    </g>
    <g id="ytick_4">
     <g id="line2d_25">
      <path clip-path="url(#p66fa4eff83)" d="M 46.772188 93.159376
L 403.892188 93.159376
" style="fill:none;stroke:#e5e5e5;stroke-width:0.8;"/>
     </g>
     <g id="line2d_26">
      <path d="M 46.772188 93.159376
" style="fill:none;stroke:#000000;stroke-width:1.5;"/>
      <g>
       <use style="stroke:#000000;" x="46.772188" xlink:href="#m89b0efb3f6" y="93.159376"/>
      </g>
     </g>
     <g id="text_10">
      <!-- 75 -->
      <g style="fill:#4d4d4d;" transform="translate(26.552188 96.470626)scale(0.12 -0.12)">
       <use xlink:href="#DejaVuSans-55"/>
       <use x="63.623047" xlink:href="#DejaVuSans-53"/>
      </g>
     </g>
    </g>
    <g id="ytick_5">
     <g id="line2d_27">
      <path clip-path="url(#p66fa4eff83)" d="M 46.772188 32.679376
L 403.892188 32.679376
" style="fill:none;stroke:#e5e5e5;stroke-width:0.8;"/>
     </g>
     <g id="line2d_28">
      <path d="M 46.772188 32.679376
" style="fill:none;stroke:#000000;stroke-width:1.5;"/>
      <g>
       <use style="stroke:#000000;" x="46.772188" xlink:href="#m89b0efb3f6" y="32.679376"/>
      </g>
     </g>
     <g id="text_11">
      <!-- 100 -->
      <g style="fill:#4d4d4d;" transform="translate(18.917188 35.990626)scale(0.12 -0.12)">
       <use xlink:href="#DejaVuSans-49"/>
       <use x="63.623047" xlink:href="#DejaVuSans-48"/>
       <use x="127.246094" xlink:href="#DejaVuSans-48"/>
      </g>
     </g>
    </g>
    <g id="ytick_6">
     <g id="line2d_29">
      <path clip-path="url(#p66fa4eff83)" d="M 46.772188 244.359376
L 403.892188 244.359376
" style="fill:none;stroke:#fafafa;"/>
     </g>
     <g id="line2d_30">
      <path d="M 46.772188 244.359376
" style="fill:none;stroke:#000000;stroke-width:1.5;"/>
     </g>
    </g>
    <g id="ytick_7">
     <g id="line2d_31">
      <path clip-path="url(#p66fa4eff83)" d="M 46.772188 183.879376
L 403.892188 183.879376
" style="fill:none;stroke:#fafafa;"/>
     </g>
     <g id="line2d_32">
      <path d="M 46.772188 183.879376
" style="fill:none;stroke:#000000;stroke-width:1.5;"/>
     </g>
    </g>
    <g id="ytick_8">
     <g id="line2d_33">
      <path clip-path="url(#p66fa4eff83)" d="M 46.772188 123.399376
L 403.892188 123.399376
" style="fill:none;stroke:#fafafa;"/>
     </g>
     <g id="line2d_34">
      <path d="M 46.772188 123.399376
" style="fill:none;stroke:#000000;stroke-width:1.5;"/>
     </g>
    </g>
    <g id="ytick_9">
     <g id="line2d_35">
      <path clip-path="url(#p66fa4eff83)" d="M 46.772188 62.919376
L 403.892188 62.919376
" style="fill:none;stroke:#fafafa;"/>
     </g>
     <g id="line2d_36">
      <path d="M 46.772188 62.919376
" style="fill:none;stroke:#000000;stroke-width:1.5;"/>
     </g>
    </g>
    <g id="text_12">
     <!-- CAMERA pathway ranking -->
     <defs>
      <path d="M 64.40625 67.28125
L 64.40625 56.890625
Q 59.421875 61.53125 53.78125 63.8125
Q 48.140625 66.109375 41.796875 66.109375
Q 29.296875 66.109375 22.65625 58.46875
Q 16.015625 50.828125 16.015625 36.375
Q 16.015625 21.96875 22.65625 14.328125
Q 29.296875 6.6875 41.796875 6.6875
Q 48.140625 6.6875 53.78125 8.984375
Q 59.421875 11.28125 64.40625 15.921875
L 64.40625 5.609375
Q 59.234375 2.09375 53.4375 0.328125
Q 47.65625 -1.421875 41.21875 -1.421875
Q 24.65625 -1.421875 15.125 8.703125
Q 5.609375 18.84375 5.609375 36.375
Q 5.609375 53.953125 15.125 64.078125
Q 24.65625 74.21875 41.21875 74.21875
Q 47.75 74.21875 53.53125 72.484375
Q 59.328125 70.75 64.40625 67.28125
z
" id="DejaVuSans-67"/>
      <path d="M 9.8125 72.90625
L 24.515625 72.90625
L 43.109375 23.296875
L 61.8125 72.90625
L 76.515625 72.90625
L 76.515625 0
L 66.890625 0
L 66.890625 64.015625
L 48.09375 14.015625
L 38.1875 14.015625
L 19.390625 64.015625
L 19.390625 0
L 9.8125 0
z
" id="DejaVuSans-77"/>
      <path d="M 9.8125 72.90625
L 55.90625 72.90625
L 55.90625 64.59375
L 19.671875 64.59375
L 19.671875 43.015625
L 54.390625 43.015625
L 54.390625 34.71875
L 19.671875 34.71875
L 19.671875 8.296875
L 56.78125 8.296875
L 56.78125 0
L 9.8125 0
z
" id="DejaVuSans-69"/>
      <path d="M 44.390625 34.1875
Q 47.5625 33.109375 50.5625 29.59375
Q 53.5625 26.078125 56.59375 19.921875
L 66.609375 0
L 56 0
L 46.6875 18.703125
Q 43.0625 26.03125 39.671875 28.421875
Q 36.28125 30.8125 30.421875 30.8125
L 19.671875 30.8125
L 19.671875 0
L 9.8125 0
L 9.8125 72.90625
L 32.078125 72.90625
Q 44.578125 72.90625 50.734375 67.671875
Q 56.890625 62.453125 56.890625 51.90625
Q 56.890625 45.015625 53.6875 40.46875
Q 50.484375 35.9375 44.390625 34.1875
z
M 19.671875 64.796875
L 19.671875 38.921875
L 32.078125 38.921875
Q 39.203125 38.921875 42.84375 42.21875
Q 46.484375 45.515625 46.484375 51.90625
Q 46.484375 58.296875 42.84375 61.546875
Q 39.203125 64.796875 32.078125 64.796875
z
" id="DejaVuSans-82"/>
     </defs>
     <g transform="translate(11.397656 249.186376)rotate(-90)scale(0.15 -0.15)">
      <use xlink:href="#DejaVuSans-67"/>
      <use x="69.824219" xlink:href="#DejaVuSans-65"/>
      <use x="138.232422" xlink:href="#DejaVuSans-77"/>
      <use x="224.511719" xlink:href="#DejaVuSans-69"/>
      <use x="287.695312" xlink:href="#DejaVuSans-82"/>
      <use x="357.115234" xlink:href="#DejaVuSans-65"/>
      <use x="425.523438" xlink:href="#DejaVuSans-32"/>
      <use x="457.310547" xlink:href="#DejaVuSans-112"/>
      <use x="520.787109" xlink:href="#DejaVuSans-97"/>
      <use x="582.066406" xlink:href="#DejaVuSans-116"/>
      <use x="621.275391" xlink:href="#DejaVuSans-104"/>
      <use x="684.654297" xlink:href="#DejaVuSans-119"/>
      <use x="766.441406" xlink:href="#DejaVuSans-97"/>
      <use x="827.720703" xlink:href="#DejaVuSans-121"/>
      <use x="886.900391" xlink:href="#DejaVuSans-32"/>
      <use x="918.6875" xlink:href="#DejaVuSans-114"/>
      <use x="959.800781" xlink:href="#DejaVuSans-97"/>
      <use x="1021.080078" xlink:href="#DejaVuSans-110"/>
      <use x="1084.458984" xlink:href="#DejaVuSans-107"/>
      <use x="1142.369141" xlink:href="#DejaVuSans-105"/>
      <use x="1170.152344" xlink:href="#DejaVuSans-110"/>
      <use x="1233.53125" xlink:href="#DejaVuSans-103"/>
     </g>
    </g>
   </g>
   <g id="PathCollection_1">
    <path clip-path="url(#p66fa4eff83)" d="M 387.65946 185.034687
C 388.12952 185.034687 388.580392 184.84793 388.912774 184.515547
C 389.245157 184.183164 389.431914 183.732293 389.431914 183.262233
C 389.431914 182.792173 389.245157 182.341302 388.912774 182.008919
C 388.580392 181.676536 388.12952 181.489779 387.65946 181.489779
C 387.1894 181.489779 386.738529 181.676536 386.406146 182.008919
C 386.073763 182.341302 385.887006 182.792173 385.887006 183.262233
C 385.887006 183.732293 386.073763 184.183164 386.406146 184.515547
C 386.738529 184.84793 387.1894 185.034687 387.65946 185.034687
z
" style="stroke:#000000;stroke-width:0.886227;"/>
    <path clip-path="url(#p66fa4eff83)" d="M 129.260944 101.103258
C 129.731005 101.103258 130.181876 100.916501 130.514259 100.584119
C 130.846641 100.251736 131.033398 99.800865 131.033398 99.330804
C 131.033398 98.860744 130.846641 98.409873 130.514259 98.07749
C 130.181876 97.745107 129.731005 97.558351 129.260944 97.558351
C 128.790884 97.558351 128.340013 97.745107 128.00763 98.07749
C 127.675248 98.409873 127.488491 98.860744 127.488491 99.330804
C 127.488491 99.800865 127.675248 100.251736 128.00763 100.584119
C 128.340013 100.916501 128.790884 101.103258 129.260944 101.103258
z
" style="stroke:#000000;stroke-width:0.886227;"/>
    <path clip-path="url(#p66fa4eff83)" d="M 122.635341 108.508973
C 123.105402 108.508973 123.556273 108.322216 123.888656 107.989833
C 124.221038 107.65745 124.407795 107.206579 124.407795 106.736519
C 124.407795 106.266458 124.221038 105.815587 123.888656 105.483205
C 123.556273 105.150822 123.105402 104.964065 122.635341 104.964065
C 122.165281 104.964065 121.71441 105.150822 121.382027 105.483205
C 121.049645 105.815587 120.862888 106.266458 120.862888 106.736519
C 120.862888 107.206579 121.049645 107.65745 121.382027 107.989833
C 121.71441 108.322216 122.165281 108.508973 122.635341 108.508973
z
" style="stroke:#000000;stroke-width:0.886227;"/>
    <path clip-path="url(#p66fa4eff83)" d="M 109.384136 59.137544
C 109.854196 59.137544 110.305067 58.950787 110.63745 58.618404
C 110.969832 58.286021 111.156589 57.83515 111.156589 57.36509
C 111.156589 56.89503 110.969832 56.444159 110.63745 56.111776
C 110.305067 55.779393 109.854196 55.592636 109.384136 55.592636
C 108.914075 55.592636 108.463204 55.779393 108.130821 56.111776
C 107.798439 56.444159 107.611682 56.89503 107.611682 57.36509
C 107.611682 57.83515 107.798439 58.286021 108.130821 58.618404
C 108.463204 58.950787 108.914075 59.137544 109.384136 59.137544
z
" style="stroke:#000000;stroke-width:0.886227;"/>
    <path clip-path="url(#p66fa4eff83)" d="M 341.280239 254.154687
C 341.7503 254.154687 342.201171 253.96793 342.533554 253.635547
C 342.865936 253.303164 343.052693 252.852293 343.052693 252.382233
C 343.052693 251.912173 342.865936 251.461302 342.533554 251.128919
C 342.201171 250.796536 341.7503 250.609779 341.280239 250.609779
C 340.810179 250.609779 340.359308 250.796536 340.026925 251.128919
C 339.694543 251.461302 339.507786 251.912173 339.507786 252.382233
C 339.507786 252.852293 339.694543 253.303164 340.026925 253.635547
C 340.359308 253.96793 340.810179 254.154687 341.280239 254.154687
z
" style="stroke:#000000;stroke-width:0.886227;"/>
    <path clip-path="url(#p66fa4eff83)" d="M 374.408254 192.440401
C 374.878315 192.440401 375.329186 192.253644 375.661568 191.921261
C 375.993951 191.588879 376.180708 191.138008 376.180708 190.667947
C 376.180708 190.197887 375.993951 189.747016 375.661568 189.414633
C 375.329186 189.08225 374.878315 188.895493 374.408254 188.895493
C 373.938194 188.895493 373.487323 189.08225 373.15494 189.414633
C 372.822557 189.747016 372.6358 190.197887 372.6358 190.667947
C 372.6358 191.138008 372.822557 191.588879 373.15494 191.921261
C 373.487323 192.253644 373.938194 192.440401 374.408254 192.440401
z
" style="stroke:#000000;stroke-width:0.886227;"/>
    <path clip-path="url(#p66fa4eff83)" d="M 381.033857 93.697544
C 381.503918 93.697544 381.954789 93.510787 382.287171 93.178404
C 382.619554 92.846021 382.806311 92.39515 382.806311 91.92509
C 382.806311 91.45503 382.619554 91.004159 382.287171 90.671776
C 381.954789 90.339393 381.503918 90.152636 381.033857 90.152636
C 380.563797 90.152636 380.112926 90.339393 379.780543 90.671776
C 379.44816 91.004159 379.261403 91.45503 379.261403 91.92509
C 379.261403 92.39515 379.44816 92.846021 379.780543 93.178404
C 380.112926 93.510787 380.563797 93.697544 381.033857 93.697544
z
" style="stroke:#000000;stroke-width:0.886227;"/>
    <path clip-path="url(#p66fa4eff83)" d="M 367.782651 118.383258
C 368.252712 118.383258 368.703583 118.196501 369.035965 117.864119
C 369.368348 117.531736 369.555105 117.080865 369.555105 116.610804
C 369.555105 116.140744 369.368348 115.689873 369.035965 115.35749
C 368.703583 115.025107 368.252712 114.838351 367.782651 114.838351
C 367.312591 114.838351 366.86172 115.025107 366.529337 115.35749
C 366.196954 115.689873 366.010197 116.140744 366.010197 116.610804
C 366.010197 117.080865 366.196954 117.531736 366.529337 117.864119
C 366.86172 118.196501 367.312591 118.383258 367.782651 118.383258
z
" style="stroke:#000000;stroke-width:0.886227;"/>
    <path clip-path="url(#p66fa4eff83)" d="M 76.256121 271.434687
C 76.726181 271.434687 77.177052 271.24793 77.509435 270.915547
C 77.841818 270.583164 78.028575 270.132293 78.028575 269.662233
C 78.028575 269.192173 77.841818 268.741302 77.509435 268.408919
C 77.177052 268.076536 76.726181 267.889779 76.256121 267.889779
C 75.78606 267.889779 75.335189 268.076536 75.002807 268.408919
C 74.670424 268.741302 74.483667 269.192173 74.483667 269.662233
C 74.483667 270.132293 74.670424 270.583164 75.002807 270.915547
C 75.335189 271.24793 75.78606 271.434687 76.256121 271.434687
z
" style="stroke:#000000;stroke-width:0.886227;"/>
    <path clip-path="url(#p66fa4eff83)" d="M 314.777828 185.034687
C 315.247888 185.034687 315.698759 184.84793 316.031142 184.515547
C 316.363525 184.183164 316.550281 183.732293 316.550281 183.262233
C 316.550281 182.792173 316.363525 182.341302 316.031142 182.008919
C 315.698759 181.676536 315.247888 181.489779 314.777828 181.489779
C 314.307767 181.489779 313.856896 181.676536 313.524513 182.008919
C 313.192131 182.341302 313.005374 182.792173 313.005374 183.262233
C 313.005374 183.732293 313.192131 184.183164 313.524513 184.515547
C 313.856896 184.84793 314.307767 185.034687 314.777828 185.034687
z
" style="stroke:#000000;stroke-width:0.886227;"/>
    <path clip-path="url(#p66fa4eff83)" d="M 169.014562 54.200401
C 169.484623 54.200401 169.935494 54.013644 170.267876 53.681261
C 170.600259 53.348879 170.787016 52.898008 170.787016 52.427947
C 170.787016 51.957887 170.600259 51.507016 170.267876 51.174633
C 169.935494 50.84225 169.484623 50.655493 169.014562 50.655493
C 168.544502 50.655493 168.093631 50.84225 167.761248 51.174633
C 167.428865 51.507016 167.242108 51.957887 167.242108 52.427947
C 167.242108 52.898008 167.428865 53.348879 167.761248 53.681261
C 168.093631 54.013644 168.544502 54.200401 169.014562 54.200401
z
" style="stroke:#000000;stroke-width:0.886227;"/>
    <path clip-path="url(#p66fa4eff83)" d="M 162.388959 199.846115
C 162.85902 199.846115 163.309891 199.659358 163.642273 199.326976
C 163.974656 198.994593 164.161413 198.543722 164.161413 198.073662
C 164.161413 197.603601 163.974656 197.15273 163.642273 196.820347
C 163.309891 196.487965 162.85902 196.301208 162.388959 196.301208
C 161.918899 196.301208 161.468028 196.487965 161.135645 196.820347
C 160.803262 197.15273 160.616505 197.603601 160.616505 198.073662
C 160.616505 198.543722 160.803262 198.994593 161.135645 199.326976
C 161.468028 199.659358 161.918899 199.846115 162.388959 199.846115
z
" style="stroke:#000000;stroke-width:0.886227;"/>
    <path clip-path="url(#p66fa4eff83)" d="M 347.905842 39.388973
C 348.375903 39.388973 348.826774 39.202216 349.159157 38.869833
C 349.491539 38.53745 349.678296 38.086579 349.678296 37.616519
C 349.678296 37.146458 349.491539 36.695587 349.159157 36.363205
C 348.826774 36.030822 348.375903 35.844065 347.905842 35.844065
C 347.435782 35.844065 346.984911 36.030822 346.652528 36.363205
C 346.320145 36.695587 346.133389 37.146458 346.133389 37.616519
C 346.133389 38.086579 346.320145 38.53745 346.652528 38.869833
C 346.984911 39.202216 347.435782 39.388973 347.905842 39.388973
z
" style="stroke:#000000;stroke-width:0.886227;"/>
    <path clip-path="url(#p66fa4eff83)" d="M 294.901019 49.263258
C 295.371079 49.263258 295.82195 49.076501 296.154333 48.744119
C 296.486716 48.411736 296.673473 47.960865 296.673473 47.490804
C 296.673473 47.020744 296.486716 46.569873 296.154333 46.23749
C 295.82195 45.905107 295.371079 45.718351 294.901019 45.718351
C 294.430958 45.718351 293.980087 45.905107 293.647705 46.23749
C 293.315322 46.569873 293.128565 47.020744 293.128565 47.490804
C 293.128565 47.960865 293.315322 48.411736 293.647705 48.744119
C 293.980087 49.076501 294.430958 49.263258 294.901019 49.263258
z
" style="stroke:#000000;stroke-width:0.886227;"/>
    <path clip-path="url(#p66fa4eff83)" d="M 301.526622 157.880401
C 301.996682 157.880401 302.447553 157.693644 302.779936 157.361261
C 303.112319 157.028879 303.299075 156.578008 303.299075 156.107947
C 303.299075 155.637887 303.112319 155.187016 302.779936 154.854633
C 302.447553 154.52225 301.996682 154.335493 301.526622 154.335493
C 301.056561 154.335493 300.60569 154.52225 300.273307 154.854633
C 299.940925 155.187016 299.754168 155.637887 299.754168 156.107947
C 299.754168 156.578008 299.940925 157.028879 300.273307 157.361261
C 300.60569 157.693644 301.056561 157.880401 301.526622 157.880401
z
" style="stroke:#000000;stroke-width:0.886227;"/>
    <path clip-path="url(#p66fa4eff83)" d="M 195.516974 73.948973
C 195.987034 73.948973 196.437905 73.762216 196.770288 73.429833
C 197.102671 73.09745 197.289428 72.646579 197.289428 72.176519
C 197.289428 71.706458 197.102671 71.255587 196.770288 70.923205
C 196.437905 70.590822 195.987034 70.404065 195.516974 70.404065
C 195.046914 70.404065 194.596043 70.590822 194.26366 70.923205
C 193.931277 71.255587 193.74452 71.706458 193.74452 72.176519
C 193.74452 72.646579 193.931277 73.09745 194.26366 73.429833
C 194.596043 73.762216 195.046914 73.948973 195.516974 73.948973
z
" style="stroke:#000000;stroke-width:0.886227;"/>
    <path clip-path="url(#p66fa4eff83)" d="M 268.398607 199.846115
C 268.868667 199.846115 269.319538 199.659358 269.651921 199.326976
C 269.984304 198.994593 270.171061 198.543722 270.171061 198.073662
C 270.171061 197.603601 269.984304 197.15273 269.651921 196.820347
C 269.319538 196.487965 268.868667 196.301208 268.398607 196.301208
C 267.928547 196.301208 267.477675 196.487965 267.145293 196.820347
C 266.81291 197.15273 266.626153 197.603601 266.626153 198.073662
C 266.626153 198.543722 266.81291 198.994593 267.145293 199.326976
C 267.477675 199.659358 267.928547 199.846115 268.398607 199.846115
z
" style="stroke:#000000;stroke-width:0.886227;"/>
    <path clip-path="url(#p66fa4eff83)" d="M 89.507327 138.13183
C 89.977387 138.13183 90.428258 137.945073 90.760641 137.61269
C 91.093024 137.280307 91.27978 136.829436 91.27978 136.359376
C 91.27978 135.889316 91.093024 135.438444 90.760641 135.106062
C 90.428258 134.773679 89.977387 134.586922 89.507327 134.586922
C 89.037266 134.586922 88.586395 134.773679 88.254013 135.106062
C 87.92163 135.438444 87.734873 135.889316 87.734873 136.359376
C 87.734873 136.829436 87.92163 137.280307 88.254013 137.61269
C 88.586395 137.945073 89.037266 138.13183 89.507327 138.13183
z
" style="stroke:#000000;stroke-width:0.886227;"/>
    <path clip-path="url(#p66fa4eff83)" d="M 328.029034 152.943258
C 328.499094 152.943258 328.949965 152.756501 329.282348 152.424119
C 329.61473 152.091736 329.801487 151.640865 329.801487 151.170804
C 329.801487 150.700744 329.61473 150.249873 329.282348 149.91749
C 328.949965 149.585107 328.499094 149.398351 328.029034 149.398351
C 327.558973 149.398351 327.108102 149.585107 326.775719 149.91749
C 326.443337 150.249873 326.25658 150.700744 326.25658 151.170804
C 326.25658 151.640865 326.443337 152.091736 326.775719 152.424119
C 327.108102 152.756501 327.558973 152.943258 328.029034 152.943258
z
" style="stroke:#000000;stroke-width:0.886227;"/>
    <path clip-path="url(#p66fa4eff83)" d="M 235.270592 231.937544
C 235.740652 231.937544 236.191523 231.750787 236.523906 231.418404
C 236.856289 231.086021 237.043046 230.63515 237.043046 230.16509
C 237.043046 229.69503 236.856289 229.244159 236.523906 228.911776
C 236.191523 228.579393 235.740652 228.392636 235.270592 228.392636
C 234.800532 228.392636 234.349661 228.579393 234.017278 228.911776
C 233.684895 229.244159 233.498138 229.69503 233.498138 230.16509
C 233.498138 230.63515 233.684895 231.086021 234.017278 231.418404
C 234.349661 231.750787 234.800532 231.937544 235.270592 231.937544
z
" style="stroke:#000000;stroke-width:0.886227;"/>
    <path clip-path="url(#p66fa4eff83)" d="M 208.76818 217.126115
C 209.23824 217.126115 209.689111 216.939358 210.021494 216.606976
C 210.353877 216.274593 210.540634 215.823722 210.540634 215.353662
C 210.540634 214.883601 210.353877 214.43273 210.021494 214.100347
C 209.689111 213.767965 209.23824 213.581208 208.76818 213.581208
C 208.29812 213.581208 207.847249 213.767965 207.514866 214.100347
C 207.182483 214.43273 206.995726 214.883601 206.995726 215.353662
C 206.995726 215.823722 207.182483 216.274593 207.514866 216.606976
C 207.847249 216.939358 208.29812 217.126115 208.76818 217.126115
z
" style="stroke:#000000;stroke-width:0.886227;"/>
    <path clip-path="url(#p66fa4eff83)" d="M 308.152225 162.817544
C 308.622285 162.817544 309.073156 162.630787 309.405539 162.298404
C 309.737922 161.966021 309.924678 161.51515 309.924678 161.04509
C 309.924678 160.57503 309.737922 160.124159 309.405539 159.791776
C 309.073156 159.459393 308.622285 159.272636 308.152225 159.272636
C 307.682164 159.272636 307.231293 159.459393 306.89891 159.791776
C 306.566528 160.124159 306.379771 160.57503 306.379771 161.04509
C 306.379771 161.51515 306.566528 161.966021 306.89891 162.298404
C 307.231293 162.630787 307.682164 162.817544 308.152225 162.817544
z
" style="stroke:#000000;stroke-width:0.886227;"/>
    <path clip-path="url(#p66fa4eff83)" d="M 96.13293 236.874687
C 96.60299 236.874687 97.053861 236.68793 97.386244 236.355547
C 97.718627 236.023164 97.905383 235.572293 97.905383 235.102233
C 97.905383 234.632173 97.718627 234.181302 97.386244 233.848919
C 97.053861 233.516536 96.60299 233.329779 96.13293 233.329779
C 95.662869 233.329779 95.211998 233.516536 94.879615 233.848919
C 94.547233 234.181302 94.360476 234.632173 94.360476 235.102233
C 94.360476 235.572293 94.547233 236.023164 94.879615 236.355547
C 95.211998 236.68793 95.662869 236.874687 96.13293 236.874687
z
" style="stroke:#000000;stroke-width:0.886227;"/>
    <path clip-path="url(#p66fa4eff83)" d="M 334.654636 207.25183
C 335.124697 207.25183 335.575568 207.065073 335.907951 206.73269
C 336.240333 206.400307 336.42709 205.949436 336.42709 205.479376
C 336.42709 205.009316 336.240333 204.558444 335.907951 204.226062
C 335.575568 203.893679 335.124697 203.706922 334.654636 203.706922
C 334.184576 203.706922 333.733705 203.893679 333.401322 204.226062
C 333.06894 204.558444 332.882183 205.009316 332.882183 205.479376
C 332.882183 205.949436 333.06894 206.400307 333.401322 206.73269
C 333.733705 207.065073 334.184576 207.25183 334.654636 207.25183
z
" style="stroke:#000000;stroke-width:0.886227;"/>
    <path clip-path="url(#p66fa4eff83)" d="M 149.137753 113.446115
C 149.607814 113.446115 150.058685 113.259358 150.391068 112.926976
C 150.72345 112.594593 150.910207 112.143722 150.910207 111.673662
C 150.910207 111.203601 150.72345 110.75273 150.391068 110.420347
C 150.058685 110.087965 149.607814 109.901208 149.137753 109.901208
C 148.667693 109.901208 148.216822 110.087965 147.884439 110.420347
C 147.552056 110.75273 147.3653 111.203601 147.3653 111.673662
C 147.3653 112.143722 147.552056 112.594593 147.884439 112.926976
C 148.216822 113.259358 148.667693 113.446115 149.137753 113.446115
z
" style="stroke:#000000;stroke-width:0.886227;"/>
    <path clip-path="url(#p66fa4eff83)" d="M 202.142577 261.560401
C 202.612637 261.560401 203.063508 261.373644 203.395891 261.041261
C 203.728274 260.708879 203.915031 260.258008 203.915031 259.787947
C 203.915031 259.317887 203.728274 258.867016 203.395891 258.534633
C 203.063508 258.20225 202.612637 258.015493 202.142577 258.015493
C 201.672517 258.015493 201.221646 258.20225 200.889263 258.534633
C 200.55688 258.867016 200.370123 259.317887 200.370123 259.787947
C 200.370123 260.258008 200.55688 260.708879 200.889263 261.041261
C 201.221646 261.373644 201.672517 261.560401 202.142577 261.560401
z
" style="stroke:#000000;stroke-width:0.886227;"/>
    <path clip-path="url(#p66fa4eff83)" d="M 102.758533 244.280401
C 103.228593 244.280401 103.679464 244.093644 104.011847 243.761261
C 104.34423 243.428879 104.530986 242.978008 104.530986 242.507947
C 104.530986 242.037887 104.34423 241.587016 104.011847 241.254633
C 103.679464 240.92225 103.228593 240.735493 102.758533 240.735493
C 102.288472 240.735493 101.837601 240.92225 101.505218 241.254633
C 101.172836 241.587016 100.986079 242.037887 100.986079 242.507947
C 100.986079 242.978008 101.172836 243.428879 101.505218 243.761261
C 101.837601 244.093644 102.288472 244.280401 102.758533 244.280401
z
" style="stroke:#000000;stroke-width:0.886227;"/>
    <path clip-path="url(#p66fa4eff83)" d="M 288.275416 227.000401
C 288.745476 227.000401 289.196347 226.813644 289.52873 226.481261
C 289.861113 226.148879 290.04787 225.698008 290.04787 225.227947
C 290.04787 224.757887 289.861113 224.307016 289.52873 223.974633
C 289.196347 223.64225 288.745476 223.455493 288.275416 223.455493
C 287.805355 223.455493 287.354484 223.64225 287.022102 223.974633
C 286.689719 224.307016 286.502962 224.757887 286.502962 225.227947
C 286.502962 225.698008 286.689719 226.148879 287.022102 226.481261
C 287.354484 226.813644 287.805355 227.000401 288.275416 227.000401
z
" style="stroke:#000000;stroke-width:0.886227;"/>
    <path clip-path="url(#p66fa4eff83)" d="M 175.640165 130.726115
C 176.110225 130.726115 176.561097 130.539358 176.893479 130.206976
C 177.225862 129.874593 177.412619 129.423722 177.412619 128.953662
C 177.412619 128.483601 177.225862 128.03273 176.893479 127.700347
C 176.561097 127.367965 176.110225 127.181208 175.640165 127.181208
C 175.170105 127.181208 174.719234 127.367965 174.386851 127.700347
C 174.054468 128.03273 173.867711 128.483601 173.867711 128.953662
C 173.867711 129.423722 174.054468 129.874593 174.386851 130.206976
C 174.719234 130.539358 175.170105 130.726115 175.640165 130.726115
z
" style="stroke:#000000;stroke-width:0.886227;"/>
    <path clip-path="url(#p66fa4eff83)" d="M 361.157048 88.760401
C 361.627109 88.760401 362.07798 88.573644 362.410362 88.241261
C 362.742745 87.908879 362.929502 87.458008 362.929502 86.987947
C 362.929502 86.517887 362.742745 86.067016 362.410362 85.734633
C 362.07798 85.40225 361.627109 85.215493 361.157048 85.215493
C 360.686988 85.215493 360.236117 85.40225 359.903734 85.734633
C 359.571351 86.067016 359.384595 86.517887 359.384595 86.987947
C 359.384595 87.458008 359.571351 87.908879 359.903734 88.241261
C 360.236117 88.573644 360.686988 88.760401 361.157048 88.760401
z
" style="stroke:#000000;stroke-width:0.886227;"/>
    <path clip-path="url(#p66fa4eff83)" d="M 155.763356 123.320401
C 156.233417 123.320401 156.684288 123.133644 157.01667 122.801261
C 157.349053 122.468879 157.53581 122.018008 157.53581 121.547947
C 157.53581 121.077887 157.349053 120.627016 157.01667 120.294633
C 156.684288 119.96225 156.233417 119.775493 155.763356 119.775493
C 155.293296 119.775493 154.842425 119.96225 154.510042 120.294633
C 154.177659 120.627016 153.990902 121.077887 153.990902 121.547947
C 153.990902 122.018008 154.177659 122.468879 154.510042 122.801261
C 154.842425 123.133644 155.293296 123.320401 155.763356 123.320401
z
" style="stroke:#000000;stroke-width:0.886227;"/>
    <path clip-path="url(#p66fa4eff83)" d="M 188.891371 34.45183
C 189.361431 34.45183 189.812303 34.265073 190.144685 33.93269
C 190.477068 33.600307 190.663825 33.149436 190.663825 32.679376
C 190.663825 32.209316 190.477068 31.758444 190.144685 31.426062
C 189.812303 31.093679 189.361431 30.906922 188.891371 30.906922
C 188.421311 30.906922 187.97044 31.093679 187.638057 31.426062
C 187.305674 31.758444 187.118917 32.209316 187.118917 32.679376
C 187.118917 33.149436 187.305674 33.600307 187.638057 33.93269
C 187.97044 34.265073 188.421311 34.45183 188.891371 34.45183
z
" style="stroke:#000000;stroke-width:0.886227;"/>
    <path clip-path="url(#p66fa4eff83)" d="M 321.403431 148.006115
C 321.873491 148.006115 322.324362 147.819358 322.656745 147.486976
C 322.989127 147.154593 323.175884 146.703722 323.175884 146.233662
C 323.175884 145.763601 322.989127 145.31273 322.656745 144.980347
C 322.324362 144.647965 321.873491 144.461208 321.403431 144.461208
C 320.93337 144.461208 320.482499 144.647965 320.150116 144.980347
C 319.817734 145.31273 319.630977 145.763601 319.630977 146.233662
C 319.630977 146.703722 319.817734 147.154593 320.150116 147.486976
C 320.482499 147.819358 320.93337 148.006115 321.403431 148.006115
z
" style="stroke:#000000;stroke-width:0.886227;"/>
    <path clip-path="url(#p66fa4eff83)" d="M 69.630518 83.823258
C 70.100578 83.823258 70.551449 83.636501 70.883832 83.304119
C 71.216215 82.971736 71.402972 82.520865 71.402972 82.050804
C 71.402972 81.580744 71.216215 81.129873 70.883832 80.79749
C 70.551449 80.465107 70.100578 80.278351 69.630518 80.278351
C 69.160457 80.278351 68.709586 80.465107 68.377204 80.79749
C 68.044821 81.129873 67.858064 81.580744 67.858064 82.050804
C 67.858064 82.520865 68.044821 82.971736 68.377204 83.304119
C 68.709586 83.636501 69.160457 83.823258 69.630518 83.823258
z
" style="stroke:#000000;stroke-width:0.886227;"/>
    <path clip-path="url(#p66fa4eff83)" d="M 261.773004 177.628973
C 262.243064 177.628973 262.693935 177.442216 263.026318 177.109833
C 263.358701 176.77745 263.545458 176.326579 263.545458 175.856519
C 263.545458 175.386458 263.358701 174.935587 263.026318 174.603205
C 262.693935 174.270822 262.243064 174.084065 261.773004 174.084065
C 261.302944 174.084065 260.852072 174.270822 260.51969 174.603205
C 260.187307 174.935587 260.00055 175.386458 260.00055 175.856519
C 260.00055 176.326579 260.187307 176.77745 260.51969 177.109833
C 260.852072 177.442216 261.302944 177.628973 261.773004 177.628973
z
" style="stroke:#000000;stroke-width:0.886227;"/>
    <path clip-path="url(#p66fa4eff83)" d="M 135.886547 266.497544
C 136.356608 266.497544 136.807479 266.310787 137.139862 265.978404
C 137.472244 265.646021 137.659001 265.19515 137.659001 264.72509
C 137.659001 264.25503 137.472244 263.804159 137.139862 263.471776
C 136.807479 263.139393 136.356608 262.952636 135.886547 262.952636
C 135.416487 262.952636 134.965616 263.139393 134.633233 263.471776
C 134.30085 263.804159 134.114094 264.25503 134.114094 264.72509
C 134.114094 265.19515 134.30085 265.646021 134.633233 265.978404
C 134.965616 266.310787 135.416487 266.497544 135.886547 266.497544
z
" style="stroke:#000000;stroke-width:0.886227;"/>
    <path clip-path="url(#p66fa4eff83)" d="M 222.019386 143.068973
C 222.489446 143.068973 222.940317 142.882216 223.2727 142.549833
C 223.605083 142.21745 223.79184 141.766579 223.79184 141.296519
C 223.79184 140.826458 223.605083 140.375587 223.2727 140.043205
C 222.940317 139.710822 222.489446 139.524065 222.019386 139.524065
C 221.549326 139.524065 221.098455 139.710822 220.766072 140.043205
C 220.433689 140.375587 220.246932 140.826458 220.246932 141.296519
C 220.246932 141.766579 220.433689 142.21745 220.766072 142.549833
C 221.098455 142.882216 221.549326 143.068973 222.019386 143.068973
z
" style="stroke:#000000;stroke-width:0.886227;"/>
    <path clip-path="url(#p66fa4eff83)" d="M 63.004915 212.188973
C 63.474975 212.188973 63.925846 212.002216 64.258229 211.669833
C 64.590612 211.33745 64.777369 210.886579 64.777369 210.416519
C 64.777369 209.946458 64.590612 209.495587 64.258229 209.163205
C 63.925846 208.830822 63.474975 208.644065 63.004915 208.644065
C 62.534855 208.644065 62.083983 208.830822 61.751601 209.163205
C 61.419218 209.495587 61.232461 209.946458 61.232461 210.416519
C 61.232461 210.886579 61.419218 211.33745 61.751601 211.669833
C 62.083983 212.002216 62.534855 212.188973 63.004915 212.188973
z
" style="stroke:#000000;stroke-width:0.886227;"/>
    <path clip-path="url(#p66fa4eff83)" d="M 354.531445 254.154687
C 355.001506 254.154687 355.452377 253.96793 355.78476 253.635547
C 356.117142 253.303164 356.303899 252.852293 356.303899 252.382233
C 356.303899 251.912173 356.117142 251.461302 355.78476 251.128919
C 355.452377 250.796536 355.001506 250.609779 354.531445 250.609779
C 354.061385 250.609779 353.610514 250.796536 353.278131 251.128919
C 352.945748 251.461302 352.758992 251.912173 352.758992 252.382233
C 352.758992 252.852293 352.945748 253.303164 353.278131 253.635547
C 353.610514 253.96793 354.061385 254.154687 354.531445 254.154687
z
" style="stroke:#000000;stroke-width:0.886227;"/>
    <path clip-path="url(#p66fa4eff83)" d="M 241.896195 69.01183
C 242.366255 69.01183 242.817126 68.825073 243.149509 68.49269
C 243.481892 68.160307 243.668649 67.709436 243.668649 67.239376
C 243.668649 66.769316 243.481892 66.318444 243.149509 65.986062
C 242.817126 65.653679 242.366255 65.466922 241.896195 65.466922
C 241.426135 65.466922 240.975264 65.653679 240.642881 65.986062
C 240.310498 66.318444 240.123741 66.769316 240.123741 67.239376
C 240.123741 67.709436 240.310498 68.160307 240.642881 68.49269
C 240.975264 68.825073 241.426135 69.01183 241.896195 69.01183
z
" style="stroke:#000000;stroke-width:0.886227;"/>
    <path clip-path="url(#p66fa4eff83)" d="M 142.51215 222.063258
C 142.982211 222.063258 143.433082 221.876501 143.765465 221.544119
C 144.097847 221.211736 144.284604 220.760865 144.284604 220.290804
C 144.284604 219.820744 144.097847 219.369873 143.765465 219.03749
C 143.433082 218.705107 142.982211 218.518351 142.51215 218.518351
C 142.04209 218.518351 141.591219 218.705107 141.258836 219.03749
C 140.926453 219.369873 140.739697 219.820744 140.739697 220.290804
C 140.739697 220.760865 140.926453 221.211736 141.258836 221.544119
C 141.591219 221.876501 142.04209 222.063258 142.51215 222.063258
z
" style="stroke:#000000;stroke-width:0.886227;"/>
    <path clip-path="url(#p66fa4eff83)" d="M 182.265768 130.726115
C 182.735828 130.726115 183.1867 130.539358 183.519082 130.206976
C 183.851465 129.874593 184.038222 129.423722 184.038222 128.953662
C 184.038222 128.483601 183.851465 128.03273 183.519082 127.700347
C 183.1867 127.367965 182.735828 127.181208 182.265768 127.181208
C 181.795708 127.181208 181.344837 127.367965 181.012454 127.700347
C 180.680071 128.03273 180.493314 128.483601 180.493314 128.953662
C 180.493314 129.423722 180.680071 129.874593 181.012454 130.206976
C 181.344837 130.539358 181.795708 130.726115 182.265768 130.726115
z
" style="stroke:#000000;stroke-width:0.886227;"/>
    <path clip-path="url(#p66fa4eff83)" d="M 248.521798 244.280401
C 248.991858 244.280401 249.442729 244.093644 249.775112 243.761261
C 250.107495 243.428879 250.294252 242.978008 250.294252 242.507947
C 250.294252 242.037887 250.107495 241.587016 249.775112 241.254633
C 249.442729 240.92225 248.991858 240.735493 248.521798 240.735493
C 248.051738 240.735493 247.600867 240.92225 247.268484 241.254633
C 246.936101 241.587016 246.749344 242.037887 246.749344 242.507947
C 246.749344 242.978008 246.936101 243.428879 247.268484 243.761261
C 247.600867 244.093644 248.051738 244.280401 248.521798 244.280401
z
" style="stroke:#000000;stroke-width:0.886227;"/>
    <path clip-path="url(#p66fa4eff83)" d="M 215.393783 101.103258
C 215.863843 101.103258 216.314714 100.916501 216.647097 100.584119
C 216.97948 100.251736 217.166237 99.800865 217.166237 99.330804
C 217.166237 98.860744 216.97948 98.409873 216.647097 98.07749
C 216.314714 97.745107 215.863843 97.558351 215.393783 97.558351
C 214.923723 97.558351 214.472852 97.745107 214.140469 98.07749
C 213.808086 98.409873 213.621329 98.860744 213.621329 99.330804
C 213.621329 99.800865 213.808086 100.251736 214.140469 100.584119
C 214.472852 100.916501 214.923723 101.103258 215.393783 101.103258
z
" style="stroke:#000000;stroke-width:0.886227;"/>
    <path clip-path="url(#p66fa4eff83)" d="M 82.881724 172.69183
C 83.351784 172.69183 83.802655 172.505073 84.135038 172.17269
C 84.467421 171.840307 84.654178 171.389436 84.654178 170.919376
C 84.654178 170.449316 84.467421 169.998444 84.135038 169.666062
C 83.802655 169.333679 83.351784 169.146922 82.881724 169.146922
C 82.411663 169.146922 81.960792 169.333679 81.62841 169.666062
C 81.296027 169.998444 81.10927 170.449316 81.10927 170.919376
C 81.10927 171.389436 81.296027 171.840307 81.62841 172.17269
C 81.960792 172.505073 82.411663 172.69183 82.881724 172.69183
z
" style="stroke:#000000;stroke-width:0.886227;"/>
    <path clip-path="url(#p66fa4eff83)" d="M 255.147401 44.326115
C 255.617461 44.326115 256.068332 44.139358 256.400715 43.806976
C 256.733098 43.474593 256.919855 43.023722 256.919855 42.553662
C 256.919855 42.083601 256.733098 41.63273 256.400715 41.300347
C 256.068332 40.967965 255.617461 40.781208 255.147401 40.781208
C 254.677341 40.781208 254.22647 40.967965 253.894087 41.300347
C 253.561704 41.63273 253.374947 42.083601 253.374947 42.553662
C 253.374947 43.023722 253.561704 43.474593 253.894087 43.806976
C 254.22647 44.139358 254.677341 44.326115 255.147401 44.326115
z
" style="stroke:#000000;stroke-width:0.886227;"/>
    <path clip-path="url(#p66fa4eff83)" d="M 116.009739 276.37183
C 116.479799 276.37183 116.93067 276.185073 117.263053 275.85269
C 117.595435 275.520307 117.782192 275.069436 117.782192 274.599376
C 117.782192 274.129316 117.595435 273.678444 117.263053 273.346062
C 116.93067 273.013679 116.479799 272.826922 116.009739 272.826922
C 115.539678 272.826922 115.088807 273.013679 114.756424 273.346062
C 114.424042 273.678444 114.237285 274.129316 114.237285 274.599376
C 114.237285 275.069436 114.424042 275.520307 114.756424 275.85269
C 115.088807 276.185073 115.539678 276.37183 116.009739 276.37183
z
" style="stroke:#000000;stroke-width:0.886227;"/>
    <path clip-path="url(#p66fa4eff83)" d="M 275.02421 167.754687
C 275.49427 167.754687 275.945141 167.56793 276.277524 167.235547
C 276.609907 166.903164 276.796664 166.452293 276.796664 165.982233
C 276.796664 165.512173 276.609907 165.061302 276.277524 164.728919
C 275.945141 164.396536 275.49427 164.209779 275.02421 164.209779
C 274.55415 164.209779 274.103278 164.396536 273.770896 164.728919
C 273.438513 165.061302 273.251756 165.512173 273.251756 165.982233
C 273.251756 166.452293 273.438513 166.903164 273.770896 167.235547
C 274.103278 167.56793 274.55415 167.754687 275.02421 167.754687
z
" style="stroke:#000000;stroke-width:0.886227;"/>
    <path clip-path="url(#p66fa4eff83)" d="M 281.649813 64.074687
C 282.119873 64.074687 282.570744 63.88793 282.903127 63.555547
C 283.23551 63.223164 283.422267 62.772293 283.422267 62.302233
C 283.422267 61.832173 283.23551 61.381302 282.903127 61.048919
C 282.570744 60.716536 282.119873 60.529779 281.649813 60.529779
C 281.179752 60.529779 280.728881 60.716536 280.396499 61.048919
C 280.064116 61.381302 279.877359 61.832173 279.877359 62.302233
C 279.877359 62.772293 280.064116 63.223164 280.396499 63.555547
C 280.728881 63.88793 281.179752 64.074687 281.649813 64.074687
z
" style="stroke:#000000;stroke-width:0.886227;"/>
    <path clip-path="url(#p66fa4eff83)" d="M 228.644989 78.886115
C 229.115049 78.886115 229.56592 78.699358 229.898303 78.366976
C 230.230686 78.034593 230.417443 77.583722 230.417443 77.113662
C 230.417443 76.643601 230.230686 76.19273 229.898303 75.860347
C 229.56592 75.527965 229.115049 75.341208 228.644989 75.341208
C 228.174929 75.341208 227.724058 75.527965 227.391675 75.860347
C 227.059292 76.19273 226.872535 76.643601 226.872535 77.113662
C 226.872535 77.583722 227.059292 78.034593 227.391675 78.366976
C 227.724058 78.699358 228.174929 78.886115 228.644989 78.886115
z
" style="stroke:#000000;stroke-width:0.886227;"/>
   </g>
  </g>
  <g id="text_13">
   <!-- GSVA vs CAMERA pathway ranking -->
   <defs>
    <path d="M 2.984375 54.6875
L 12.5 54.6875
L 29.59375 8.796875
L 46.6875 54.6875
L 56.203125 54.6875
L 35.6875 0
L 23.484375 0
z
" id="DejaVuSans-118"/>
    <path d="M 44.28125 53.078125
L 44.28125 44.578125
Q 40.484375 46.53125 36.375 47.5
Q 32.28125 48.484375 27.875 48.484375
Q 21.1875 48.484375 17.84375 46.4375
Q 14.5 44.390625 14.5 40.28125
Q 14.5 37.15625 16.890625 35.375
Q 19.28125 33.59375 26.515625 31.984375
L 29.59375 31.296875
Q 39.15625 29.25 43.1875 25.515625
Q 47.21875 21.78125 47.21875 15.09375
Q 47.21875 7.46875 41.1875 3.015625
Q 35.15625 -1.421875 24.609375 -1.421875
Q 20.21875 -1.421875 15.453125 -0.5625
Q 10.6875 0.296875 5.421875 2
L 5.421875 11.28125
Q 10.40625 8.6875 15.234375 7.390625
Q 20.0625 6.109375 24.8125 6.109375
Q 31.15625 6.109375 34.5625 8.28125
Q 37.984375 10.453125 37.984375 14.40625
Q 37.984375 18.0625 35.515625 20.015625
Q 33.0625 21.96875 24.703125 23.78125
L 21.578125 24.515625
Q 13.234375 26.265625 9.515625 29.90625
Q 5.8125 33.546875 5.8125 39.890625
Q 5.8125 47.609375 11.28125 51.796875
Q 16.75 56 26.8125 56
Q 31.78125 56 36.171875 55.265625
Q 40.578125 54.546875 44.28125 53.078125
z
" id="DejaVuSans-115"/>
   </defs>
   <g transform="translate(88.357344 11.397656)scale(0.15 -0.15)">
    <use xlink:href="#DejaVuSans-71"/>
    <use x="77.490234" xlink:href="#DejaVuSans-83"/>
    <use x="140.966797" xlink:href="#DejaVuSans-86"/>
    <use x="209.28125" xlink:href="#DejaVuSans-65"/>
    <use x="277.689453" xlink:href="#DejaVuSans-32"/>
    <use x="309.476562" xlink:href="#DejaVuSans-118"/>
    <use x="368.65625" xlink:href="#DejaVuSans-115"/>
    <use x="420.755859" xlink:href="#DejaVuSans-32"/>
    <use x="452.542969" xlink:href="#DejaVuSans-67"/>
    <use x="522.367188" xlink:href="#DejaVuSans-65"/>
    <use x="590.775391" xlink:href="#DejaVuSans-77"/>
    <use x="677.054688" xlink:href="#DejaVuSans-69"/>
    <use x="740.238281" xlink:href="#DejaVuSans-82"/>
    <use x="809.658203" xlink:href="#DejaVuSans-65"/>
    <use x="878.066406" xlink:href="#DejaVuSans-32"/>
    <use x="909.853516" xlink:href="#DejaVuSans-112"/>
    <use x="973.330078" xlink:href="#DejaVuSans-97"/>
    <use x="1034.609375" xlink:href="#DejaVuSans-116"/>
    <use x="1073.818359" xlink:href="#DejaVuSans-104"/>
    <use x="1137.197266" xlink:href="#DejaVuSans-119"/>
    <use x="1218.984375" xlink:href="#DejaVuSans-97"/>
    <use x="1280.263672" xlink:href="#DejaVuSans-121"/>
    <use x="1339.443359" xlink:href="#DejaVuSans-32"/>
    <use x="1371.230469" xlink:href="#DejaVuSans-114"/>
    <use x="1412.34375" xlink:href="#DejaVuSans-97"/>
    <use x="1473.623047" xlink:href="#DejaVuSans-110"/>
    <use x="1537.001953" xlink:href="#DejaVuSans-107"/>
    <use x="1594.912109" xlink:href="#DejaVuSans-105"/>
    <use x="1622.695312" xlink:href="#DejaVuSans-110"/>
    <use x="1686.074219" xlink:href="#DejaVuSans-103"/>
   </g>
  </g>
 </g>
 <defs>
  <clipPath id="p66fa4eff83">
   <rect height="266.112" width="357.12" x="46.772188" y="20.583376"/>
  </clipPath>
 </defs>
</svg>
