<?xml version="1.0" encoding="utf-8" standalone="no"?>
<!DOCTYPE svg PUBLIC "-//W3C//DTD SVG 1.1//EN"
  "http://www.w3.org/Graphics/SVG/1.1/DTD/svg11.dtd">
<!-- Created with matplotlib (https://matplotlib.org/) -->
<svg height="322.176313pt" version="1.1" viewBox="0 0 406.642188 322.176313" width="406.642188pt" xmlns="http://www.w3.org/2000/svg" xmlns:xlink="http://www.w3.org/1999/xlink">
 <defs>
  <style type="text/css">
*{stroke-linecap:butt;stroke-linejoin:round;}
  </style>
 </defs>
 <g id="figure_1">
  <g id="patch_1">
   <path d="M 0 322.176313
L 406.642188 322.176313
L 406.642188 0
L 0 0
z
" style="fill:#ffffff;stroke:#ffffff;stroke-linejoin:miter;"/>
  </g>
  <g id="axes_1">
   <g id="patch_2">
    <path d="M 46.772188 286.695376
L 403.892188 286.695376
L 403.892188 20.583376
L 46.772188 20.583376
z
" style="fill:none;"/>
   </g>
   <g id="matplotlib.axis_1">
    <g id="xtick_1">
     <g id="line2d_1">
      <path clip-path="url(#p6074ca7222)" d="M 98.30175 286.695376
L 98.30175 20.583376
" style="fill:none;stroke:#e5e5e5;stroke-width:0.8;"/>
     </g>
     <g id="line2d_2">
      <path d="M 98.30175 286.695376
" style="fill:none;stroke:#000000;stroke-width:1.5;"/>
      <defs>
       <path d="M 0 0
L 0 2.75
" id="mb90b51a550" style="stroke:#000000;"/>
      </defs>
      <g>
       <use style="stroke:#000000;" x="98.30175" xlink:href="#mb90b51a550" y="286.695376"/>
      </g>
     </g>
     <g id="text_1">
      <!-- 0.1 -->
      <defs>
       <path d="M 31.78125 66.40625
Q 24.171875 66.40625 20.328125 58.90625
Q 16.5 51.421875 16.5 36.375
Q 16.5 21.390625 20.328125 13.890625
Q 24.171875 6.390625 31.78125 6.390625
Q 39.453125 6.390625 43.28125 13.890625
Q 47.125 21.390625 47.125 36.375
Q 47.125 51.421875 43.28125 58.90625
Q 39.453125 66.40625 31.78125 66.40625
z
M 31.78125 74.21875
Q 44.046875 74.21875 50.515625 64.515625
Q 56.984375 54.828125 56.984375 36.375
Q 56.984375 17.96875 50.515625 8.265625
Q 44.046875 -1.421875 31.78125 -1.421875
Q 19.53125 -1.421875 13.0625 8.265625
Q 6.59375 17.96875 6.59375 36.375
Q 6.59375 54.828125 13.0625 64.515625
Q 19.53125 74.21875 31.78125 74.21875
z
" id="DejaVuSans-48"/>
       <path d="M 10.6875 12.40625
L 21 12.40625
L 21 0
L 10.6875 0
z
" id="DejaVuSans-46"/>
       <path d="M 12.40625 8.296875
L 28.515625 8.296875
L 28.515625 63.921875
L 10.984375 60.40625
L 10.984375 69.390625
L 28.421875 72.90625
L 38.28125 72.90625
L 38.28125 8.296875
L 54.390625 8.296875
L 54.390625 0
L 12.40625 0
z
" id="DejaVuSans-49"/>
      </defs>
      <g style="fill:#4d4d4d;" transform="translate(88.759875 300.763501)scale(0.12 -0.12)">
       <use xlink:href="#DejaVuSans-48"/>
       <use x="63.623047" xlink:href="#DejaVuSans-46"/>
       <use x="95.410156" xlink:href="#DejaVuSans-49"/>
      </g>
     </g>
    </g>
    <g id="xtick_2">
     <g id="line2d_3">
      <path clip-path="url(#p6074ca7222)" d="M 172.482343 286.695376
L 172.482343 20.583376
" style="fill:none;stroke:#e5e5e5;stroke-width:0.8;"/>
     </g>
     <g id="line2d_4">
      <path d="M 172.482343 286.695376
" style="fill:none;stroke:#000000;stroke-width:1.5;"/>
      <g>
       <use style="stroke:#000000;" x="172.482343" xlink:href="#mb90b51a550" y="286.695376"/>
      </g>
     </g>
     <g id="text_2">
      <!-- 0.2 -->
      <defs>
       <path d="M 19.1875 8.296875
L 53.609375 8.296875
L 53.609375 0
L 7.328125 0
L 7.328125 8.296875
Q 12.9375 14.109375 22.625 23.890625
Q 32.328125 33.6875 34.8125 36.53125
Q 39.546875 41.84375 41.421875 45.53125
Q 43.3125 49.21875 43.3125 52.78125
Q 43.3125 58.59375 39.234375 62.25
Q 35.15625 65.921875 28.609375 65.921875
Q 23.96875 65.921875 18.8125 64.3125
Q 13.671875 62.703125 7.8125 59.421875
L 7.8125 69.390625
Q 13.765625 71.78125 18.9375 73
Q 24.125 74.21875 28.421875 74.21875
Q 39.75 74.21875 46.484375 68.546875
Q 53.21875 62.890625 53.21875 53.421875
Q 53.21875 48.921875 51.53125 44.890625
Q 49.859375 40.875 45.40625 35.40625
Q 44.1875 33.984375 37.640625 27.21875
Q 31.109375 20.453125 19.1875 8.296875
z
" id="DejaVuSans-50"/>
      </defs>
      <g style="fill:#4d4d4d;" transform="translate(162.940468 300.763501)scale(0.12 -0.12)">
       <use xlink:href="#DejaVuSans-48"/>
       <use x="63.623047" xlink:href="#DejaVuSans-46"/>
       <use x="95.410156" xlink:href="#DejaVuSans-50"/>
      </g>
     </g>
    </g>
    <g id="xtick_3">
     <g id="line2d_5">
      <path clip-path="url(#p6074ca7222)" d="M 246.662936 286.695376
L 246.662936 20.583376
" style="fill:none;stroke:#e5e5e5;stroke-width:0.8;"/>
     </g>
     <g id="line2d_6">
      <path d="M 246.662936 286.695376
" style="fill:none;stroke:#000000;stroke-width:1.5;"/>
      <g>
       <use style="stroke:#000000;" x="246.662936" xlink:href="#mb90b51a550" y="286.695376"/>
      </g>
     </g>
     <g id="text_3">
      <!-- 0.3 -->
      <defs>
       <path d="M 40.578125 39.3125
Q 47.65625 37.796875 51.625 33
Q 55.609375 28.21875 55.609375 21.1875
Q 55.609375 10.40625 48.1875 4.484375
Q 40.765625 -1.421875 27.09375 -1.421875
Q 22.515625 -1.421875 17.65625 -0.515625
Q 12.796875 0.390625 7.625 2.203125
L 7.625 11.71875
Q 11.71875 9.328125 16.59375 8.109375
Q 21.484375 6.890625 26.8125 6.890625
Q 36.078125 6.890625 40.9375 10.546875
Q 45.796875 14.203125 45.796875 21.1875
Q 45.796875 27.640625 41.28125 31.265625
Q 36.765625 34.90625 28.71875 34.90625
L 20.21875 34.90625
L 20.21875 43.015625
L 29.109375 43.015625
Q 36.375 43.015625 40.234375 45.921875
Q 44.09375 48.828125 44.09375 54.296875
Q 44.09375 59.90625 40.109375 62.90625
Q 36.140625 65.921875 28.71875 65.921875
Q 24.65625 65.921875 20.015625 65.03125
Q 15.375 64.15625 9.8125 62.3125
L 9.8125 71.09375
Q 15.4375 72.65625 20.34375 73.4375
Q 25.25 74.21875 29.59375 74.21875
Q 40.828125 74.21875 47.359375 69.109375
Q 53.90625 64.015625 53.90625 55.328125
Q 53.90625 49.265625 50.4375 45.09375
Q 46.96875 40.921875 40.578125 39.3125
z
" id="DejaVuSans-51"/>
      </defs>
      <g style="fill:#4d4d4d;" transform="translate(237.121061 300.763501)scale(0.12 -0.12)">
       <use xlink:href="#DejaVuSans-48"/>
       <use x="63.623047" xlink:href="#DejaVuSans-46"/>
       <use x="95.410156" xlink:href="#DejaVuSans-51"/>
      </g>
     </g>
    </g>
    <g id="xtick_4">
     <g id="line2d_7">
      <path clip-path="url(#p6074ca7222)" d="M 320.843529 286.695376
L 320.843529 20.583376
" style="fill:none;stroke:#e5e5e5;stroke-width:0.8;"/>
     </g>
     <g id="line2d_8">
      <path d="M 320.843529 286.695376
" style="fill:none;stroke:#000000;stroke-width:1.5;"/>
      <g>
       <use style="stroke:#000000;" x="320.843529" xlink:href="#mb90b51a550" y="286.695376"/>
      </g>
     </g>
     <g id="text_4">
      <!-- 0.4 -->
      <defs>
       <path d="M 37.796875 64.3125
L 12.890625 25.390625
L 37.796875 25.390625
z
M 35.203125 72.90625
L 47.609375 72.90625
L 47.609375 25.390625
L 58.015625 25.390625
L 58.015625 17.1875
L 47.609375 17.1875
L 47.609375 0
L 37.796875 0
L 37.796875 17.1875
L 4.890625 17.1875
L 4.890625 26.703125
z
" id="DejaVuSans-52"/>
      </defs>
      <g style="fill:#4d4d4d;" transform="translate(311.301654 300.763501)scale(0.12 -0.12)">
       <use xlink:href="#DejaVuSans-48"/>
       <use x="63.623047" xlink:href="#DejaVuSans-46"/>
       <use x="95.410156" xlink:href="#DejaVuSans-52"/>
      </g>
     </g>
    </g>
    <g id="xtick_5">
     <g id="line2d_9">
      <path clip-path="url(#p6074ca7222)" d="M 395.024122 286.695376
L 395.024122 20.583376
" style="fill:none;stroke:#e5e5e5;stroke-width:0.8;"/>
     </g>
     <g id="line2d_10">
      <path d="M 395.024122 286.695376
" style="fill:none;stroke:#000000;stroke-width:1.5;"/>
      <g>
       <use style="stroke:#000000;" x="395.024122" xlink:href="#mb90b51a550" y="286.695376"/>
      </g>
     </g>
     <g id="text_5">
      <!-- 0.5 -->
      <defs>
       <path d="M 10.796875 72.90625
L 49.515625 72.90625
L 49.515625 64.59375
L 19.828125 64.59375
L 19.828125 46.734375
Q 21.96875 47.46875 24.109375 47.828125
Q 26.265625 48.1875 28.421875 48.1875
Q 40.625 48.1875 47.75 41.5
Q 54.890625 34.8125 54.890625 23.390625
Q 54.890625 11.625 47.5625 5.09375
Q 40.234375 -1.421875 26.90625 -1.421875
Q 22.3125 -1.421875 17.546875 -0.640625
Q 12.796875 0.140625 7.71875 1.703125
L 7.71875 11.625
Q 12.109375 9.234375 16.796875 8.0625
Q 21.484375 6.890625 26.703125 6.890625
Q 35.15625 6.890625 40.078125 11.328125
Q 45.015625 15.765625 45.015625 23.390625
Q 45.015625 31 40.078125 35.4375
Q 35.15625 39.890625 26.703125 39.890625
Q 22.75 39.890625 18.8125 39.015625
Q 14.890625 38.140625 10.796875 36.28125
z
" id="DejaVuSans-53"/>
      </defs>
      <g style="fill:#4d4d4d;" transform="translate(385.482247 300.763501)scale(0.12 -0.12)">
       <use xlink:href="#DejaVuSans-48"/>
       <use x="63.623047" xlink:href="#DejaVuSans-46"/>
       <use x="95.410156" xlink:href="#DejaVuSans-53"/>
      </g>
     </g>
    </g>
    <g id="xtick_6">
     <g id="line2d_11">
      <path clip-path="url(#p6074ca7222)" d="M 61.211454 286.695376
L 61.211454 20.583376
" style="fill:none;stroke:#fafafa;"/>
     </g>
     <g id="line2d_12">
      <path d="M 61.211454 286.695376
" style="fill:none;stroke:#000000;stroke-width:1.5;"/>
     </g>
    </g>
    <g id="xtick_7">
     <g id="line2d_13">
      <path clip-path="url(#p6074ca7222)" d="M 135.392047 286.695376
L 135.392047 20.583376
" style="fill:none;stroke:#fafafa;"/>
     </g>
     <g id="line2d_14">
      <path d="M 135.392047 286.695376
" style="fill:none;stroke:#000000;stroke-width:1.5;"/>
     </g>
    </g>
    <g id="xtick_8">
     <g id="line2d_15">
      <path clip-path="url(#p6074ca7222)" d="M 209.57264 286.695376
L 209.57264 20.583376
" style="fill:none;stroke:#fafafa;"/>
     </g>
     <g id="line2d_16">
      <path d="M 209.57264 286.695376
" style="fill:none;stroke:#000000;stroke-width:1.5;"/>
     </g>
    </g>
    <g id="xtick_9">
     <g id="line2d_17">
      <path clip-path="url(#p6074ca7222)" d="M 283.753233 286.695376
L 283.753233 20.583376
" style="fill:none;stroke:#fafafa;"/>
     </g>
     <g id="line2d_18">
      <path d="M 283.753233 286.695376
" style="fill:none;stroke:#000000;stroke-width:1.5;"/>
     </g>
    </g>
    <g id="xtick_10">
     <g id="line2d_19">
      <path clip-path="url(#p6074ca7222)" d="M 357.933826 286.695376
L 357.933826 20.583376
" style="fill:none;stroke:#fafafa;"/>
     </g>
     <g id="line2d_20">
      <path d="M 357.933826 286.695376
" style="fill:none;stroke:#000000;stroke-width:1.5;"/>
     </g>
    </g>
    <g id="text_6">
     <!-- Median(Enrichment score) -->
     <defs>
      <path d="M 9.8125 72.90625
L 24.515625 72.90625
L 43.109375 23.296875
L 61.8125 72.90625
L 76.515625 72.90625
L 76.515625 0
L 66.890625 0
L 66.890625 64.015625
L 48.09375 14.015625
L 38.1875 14.015625
L 19.390625 64.015625
L 19.390625 0
L 9.8125 0
z
" id="DejaVuSans-77"/>
      <path d="M 56.203125 29.59375
L 56.203125 25.203125
L 14.890625 25.203125
Q 15.484375 15.921875 20.484375 11.0625
Q 25.484375 6.203125 34.421875 6.203125
Q 39.59375 6.203125 44.453125 7.46875
Q 49.3125 8.734375 54.109375 11.28125
L 54.109375 2.78125
Q 49.265625 0.734375 44.1875 -0.34375
Q 39.109375 -1.421875 33.890625 -1.421875
Q 20.796875 -1.421875 13.15625 6.1875
Q 5.515625 13.8125 5.515625 26.8125
Q 5.515625 40.234375 12.765625 48.109375
Q 20.015625 56 32.328125 56
Q 43.359375 56 49.78125 48.890625
Q 56.203125 41.796875 56.203125 29.59375
z
M 47.21875 32.234375
Q 47.125 39.59375 43.09375 43.984375
Q 39.0625 48.390625 32.421875 48.390625
Q 24.90625 48.390625 20.390625 44.140625
Q 15.875 39.890625 15.1875 32.171875
z
" id="DejaVuSans-101"/>
      <path d="M 45.40625 46.390625
L 45.40625 75.984375
L 54.390625 75.984375
L 54.390625 0
L 45.40625 0
L 45.40625 8.203125
Q 42.578125 3.328125 38.25 0.953125
Q 33.9375 -1.421875 27.875 -1.421875
Q 17.96875 -1.421875 11.734375 6.484375
Q 5.515625 14.40625 5.515625 27.296875
Q 5.515625 40.1875 11.734375 48.09375
Q 17.96875 56 27.875 56
Q 33.9375 56 38.25 53.625
Q 42.578125 51.265625 45.40625 46.390625
z
M 14.796875 27.296875
Q 14.796875 17.390625 18.875 11.75
Q 22.953125 6.109375 30.078125 6.109375
Q 37.203125 6.109375 41.296875 11.75
Q 45.40625 17.390625 45.40625 27.296875
Q 45.40625 37.203125 41.296875 42.84375
Q 37.203125 48.484375 30.078125 48.484375
Q 22.953125 48.484375 18.875 42.84375
Q 14.796875 37.203125 14.796875 27.296875
z
" id="DejaVuSans-100"/>
      <path d="M 9.421875 54.6875
L 18.40625 54.6875
L 18.40625 0
L 9.421875 0
z
M 9.421875 75.984375
L 18.40625 75.984375
L 18.40625 64.59375
L 9.421875 64.59375
z
" id="DejaVuSans-105"/>
      <path d="M 34.28125 27.484375
Q 23.390625 27.484375 19.1875 25
Q 14.984375 22.515625 14.984375 16.5
Q 14.984375 11.71875 18.140625 8.90625
Q 21.296875 6.109375 26.703125 6.109375
Q 34.1875 6.109375 38.703125 11.40625
Q 43.21875 16.703125 43.21875 25.484375
L 43.21875 27.484375
z
M 52.203125 31.203125
L 52.203125 0
L 43.21875 0
L 43.21875 8.296875
Q 40.140625 3.328125 35.546875 0.953125
Q 30.953125 -1.421875 24.3125 -1.421875
Q 15.921875 -1.421875 10.953125 3.296875
Q 6 8.015625 6 15.921875
Q 6 25.140625 12.171875 29.828125
Q 18.359375 34.515625 30.609375 34.515625
L 43.21875 34.515625
L 43.21875 35.40625
Q 43.21875 41.609375 39.140625 45
Q 35.0625 48.390625 27.6875 48.390625
Q 23 48.390625 18.546875 47.265625
Q 14.109375 46.140625 10.015625 43.890625
L 10.015625 52.203125
Q 14.9375 54.109375 19.578125 55.046875
Q 24.21875 56 28.609375 56
Q 40.484375 56 46.34375 49.84375
Q 52.203125 43.703125 52.203125 31.203125
z
" id="DejaVuSans-97"/>
      <path d="M 54.890625 33.015625
L 54.890625 0
L 45.90625 0
L 45.90625 32.71875
Q 45.90625 40.484375 42.875 44.328125
Q 39.84375 48.1875 33.796875 48.1875
Q 26.515625 48.1875 22.3125 43.546875
Q 18.109375 38.921875 18.109375 30.90625
L 18.109375 0
L 9.078125 0
L 9.078125 54.6875
L 18.109375 54.6875
L 18.109375 46.1875
Q 21.34375 51.125 25.703125 53.5625
Q 30.078125 56 35.796875 56
Q 45.21875 56 50.046875 50.171875
Q 54.890625 44.34375 54.890625 33.015625
z
" id="DejaVuSans-110"/>
      <path d="M 31 75.875
Q 24.46875 64.65625 21.28125 53.65625
Q 18.109375 42.671875 18.109375 31.390625
Q 18.109375 20.125 21.3125 9.0625
Q 24.515625 -2 31 -13.1875
L 23.1875 -13.1875
Q 15.875 -1.703125 12.234375 9.375
Q 8.59375 20.453125 8.59375 31.390625
Q 8.59375 42.28125 12.203125 53.3125
Q 15.828125 64.359375 23.1875 75.875
z
" id="DejaVuSans-40"/>
      <path d="M 9.8125 72.90625
L 55.90625 72.90625
L 55.90625 64.59375
L 19.671875 64.59375
L 19.671875 43.015625
L 54.390625 43.015625
L 54.390625 34.71875
L 19.671875 34.71875
L 19.671875 8.296875
L 56.78125 8.296875
L 56.78125 0
L 9.8125 0
z
" id="DejaVuSans-69"/>
      <path d="M 41.109375 46.296875
Q 39.59375 47.171875 37.8125 47.578125
Q 36.03125 48 33.890625 48
Q 26.265625 48 22.1875 43.046875
Q 18.109375 38.09375 18.109375 28.8125
L 18.109375 0
L 9.078125 0
L 9.078125 54.6875
L 18.109375 54.6875
L 18.109375 46.1875
Q 20.953125 51.171875 25.484375 53.578125
Q 30.03125 56 36.53125 56
Q 37.453125 56 38.578125 55.875
Q 39.703125 55.765625 41.0625 55.515625
z
" id="DejaVuSans-114"/>
      <path d="M 48.78125 52.59375
L 48.78125 44.1875
Q 44.96875 46.296875 41.140625 47.34375
Q 37.3125 48.390625 33.40625 48.390625
Q 24.65625 48.390625 19.8125 42.84375
Q 14.984375 37.3125 14.984375 27.296875
Q 14.984375 17.28125 19.8125 11.734375
Q 24.65625 6.203125 33.40625 6.203125
Q 37.3125 6.203125 41.140625 7.25
Q 44.96875 8.296875 48.78125 10.40625
L 48.78125 2.09375
Q 45.015625 0.34375 40.984375 -0.53125
Q 36.96875 -1.421875 32.421875 -1.421875
Q 20.0625 -1.421875 12.78125 6.34375
Q 5.515625 14.109375 5.515625 27.296875
Q 5.515625 40.671875 12.859375 48.328125
Q 20.21875 56 33.015625 56
Q 37.15625 56 41.109375 55.140625
Q 45.0625 54.296875 48.78125 52.59375
z
" id="DejaVuSans-99"/>
      <path d="M 54.890625 33.015625
L 54.890625 0
L 45.90625 0
L 45.90625 32.71875
Q 45.90625 40.484375 42.875 44.328125
Q 39.84375 48.1875 33.796875 48.1875
Q 26.515625 48.1875 22.3125 43.546875
Q 18.109375 38.921875 18.109375 30.90625
L 18.109375 0
L 9.078125 0
L 9.078125 75.984375
L 18.109375 75.984375
L 18.109375 46.1875
Q 21.34375 51.125 25.703125 53.5625
Q 30.078125 56 35.796875 56
Q 45.21875 56 50.046875 50.171875
Q 54.890625 44.34375 54.890625 33.015625
z
" id="DejaVuSans-104"/>
      <path d="M 52 44.1875
Q 55.375 50.25 60.0625 53.125
Q 64.75 56 71.09375 56
Q 79.640625 56 84.28125 50.015625
Q 88.921875 44.046875 88.921875 33.015625
L 88.921875 0
L 79.890625 0
L 79.890625 32.71875
Q 79.890625 40.578125 77.09375 44.375
Q 74.3125 48.1875 68.609375 48.1875
Q 61.625 48.1875 57.5625 43.546875
Q 53.515625 38.921875 53.515625 30.90625
L 53.515625 0
L 44.484375 0
L 44.484375 32.71875
Q 44.484375 40.625 41.703125 44.40625
Q 38.921875 48.1875 33.109375 48.1875
Q 26.21875 48.1875 22.15625 43.53125
Q 18.109375 38.875 18.109375 30.90625
L 18.109375 0
L 9.078125 0
L 9.078125 54.6875
L 18.109375 54.6875
L 18.109375 46.1875
Q 21.1875 51.21875 25.484375 53.609375
Q 29.78125 56 35.6875 56
Q 41.65625 56 45.828125 52.96875
Q 50 49.953125 52 44.1875
z
" id="DejaVuSans-109"/>
      <path d="M 18.3125 70.21875
L 18.3125 54.6875
L 36.8125 54.6875
L 36.8125 47.703125
L 18.3125 47.703125
L 18.3125 18.015625
Q 18.3125 11.328125 20.140625 9.421875
Q 21.96875 7.515625 27.59375 7.515625
L 36.8125 7.515625
L 36.8125 0
L 27.59375 0
Q 17.1875 0 13.234375 3.875
Q 9.28125 7.765625 9.28125 18.015625
L 9.28125 47.703125
L 2.6875 47.703125
L 2.6875 54.6875
L 9.28125 54.6875
L 9.28125 70.21875
z
" id="DejaVuSans-116"/>
      <path id="DejaVuSans-32"/>
      <path d="M 44.28125 53.078125
L 44.28125 44.578125
Q 40.484375 46.53125 36.375 47.5
Q 32.28125 48.484375 27.875 48.484375
Q 21.1875 48.484375 17.84375 46.4375
Q 14.5 44.390625 14.5 40.28125
Q 14.5 37.15625 16.890625 35.375
Q 19.28125 33.59375 26.515625 31.984375
L 29.59375 31.296875
Q 39.15625 29.25 43.1875 25.515625
Q 47.21875 21.78125 47.21875 15.09375
Q 47.21875 7.46875 41.1875 3.015625
Q 35.15625 -1.421875 24.609375 -1.421875
Q 20.21875 -1.421875 15.453125 -0.5625
Q 10.6875 0.296875 5.421875 2
L 5.421875 11.28125
Q 10.40625 8.6875 15.234375 7.390625
Q 20.0625 6.109375 24.8125 6.109375
Q 31.15625 6.109375 34.5625 8.28125
Q 37.984375 10.453125 37.984375 14.40625
Q 37.984375 18.0625 35.515625 20.015625
Q 33.0625 21.96875 24.703125 23.78125
L 21.578125 24.515625
Q 13.234375 26.265625 9.515625 29.90625
Q 5.8125 33.546875 5.8125 39.890625
Q 5.8125 47.609375 11.28125 51.796875
Q 16.75 56 26.8125 56
Q 31.78125 56 36.171875 55.265625
Q 40.578125 54.546875 44.28125 53.078125
z
" id="DejaVuSans-115"/>
      <path d="M 30.609375 48.390625
Q 23.390625 48.390625 19.1875 42.75
Q 14.984375 37.109375 14.984375 27.296875
Q 14.984375 17.484375 19.15625 11.84375
Q 23.34375 6.203125 30.609375 6.203125
Q 37.796875 6.203125 41.984375 11.859375
Q 46.1875 17.53125 46.1875 27.296875
Q 46.1875 37.015625 41.984375 42.703125
Q 37.796875 48.390625 30.609375 48.390625
z
M 30.609375 56
Q 42.328125 56 49.015625 48.375
Q 55.71875 40.765625 55.71875 27.296875
Q 55.71875 13.875 49.015625 6.21875
Q 42.328125 -1.421875 30.609375 -1.421875
Q 18.84375 -1.421875 12.171875 6.21875
Q 5.515625 13.875 5.515625 27.296875
Q 5.515625 40.765625 12.171875 48.375
Q 18.84375 56 30.609375 56
z
" id="DejaVuSans-111"/>
      <path d="M 8.015625 75.875
L 15.828125 75.875
Q 23.140625 64.359375 26.78125 53.3125
Q 30.421875 42.28125 30.421875 31.390625
Q 30.421875 20.453125 26.78125 9.375
Q 23.140625 -1.703125 15.828125 -13.1875
L 8.015625 -13.1875
Q 14.5 -2 17.703125 9.0625
Q 20.90625 20.125 20.90625 31.390625
Q 20.90625 42.671875 17.703125 53.65625
Q 14.5 64.65625 8.015625 75.875
z
" id="DejaVuSans-41"/>
     </defs>
     <g transform="translate(120.590938 319.056782)scale(0.15 -0.15)">
      <use xlink:href="#DejaVuSans-77"/>
      <use x="86.279297" xlink:href="#DejaVuSans-101"/>
      <use x="147.802734" xlink:href="#DejaVuSans-100"/>
      <use x="211.279297" xlink:href="#DejaVuSans-105"/>
      <use x="239.0625" xlink:href="#DejaVuSans-97"/>
      <use x="300.341797" xlink:href="#DejaVuSans-110"/>
      <use x="363.720703" xlink:href="#DejaVuSans-40"/>
      <use x="402.734375" xlink:href="#DejaVuSans-69"/>
      <use x="465.917969" xlink:href="#DejaVuSans-110"/>
      <use x="529.296875" xlink:href="#DejaVuSans-114"/>
      <use x="570.410156" xlink:href="#DejaVuSans-105"/>
      <use x="598.193359" xlink:href="#DejaVuSans-99"/>
      <use x="653.173828" xlink:href="#DejaVuSans-104"/>
      <use x="716.552734" xlink:href="#DejaVuSans-109"/>
      <use x="813.964844" xlink:href="#DejaVuSans-101"/>
      <use x="875.488281" xlink:href="#DejaVuSans-110"/>
      <use x="938.867188" xlink:href="#DejaVuSans-116"/>
      <use x="978.076172" xlink:href="#DejaVuSans-32"/>
      <use x="1009.863281" xlink:href="#DejaVuSans-115"/>
      <use x="1061.962891" xlink:href="#DejaVuSans-99"/>
      <use x="1116.943359" xlink:href="#DejaVuSans-111"/>
      <use x="1178.125" xlink:href="#DejaVuSans-114"/>
      <use x="1219.207031" xlink:href="#DejaVuSans-101"/>
      <use x="1280.730469" xlink:href="#DejaVuSans-41"/>
     </g>
    </g>
   </g>
   <g id="matplotlib.axis_2">
    <g id="ytick_1">
     <g id="line2d_21">
      <path clip-path="url(#p6074ca7222)" d="M 46.772188 274.599376
L 403.892188 274.599376
" style="fill:none;stroke:#e5e5e5;stroke-width:0.8;"/>
     </g>
     <g id="line2d_22">
      <path d="M 46.772188 274.599376
" style="fill:none;stroke:#000000;stroke-width:1.5;"/>
      <defs>
       <path d="M 0 0
L -2.75 0
" id="mcef3a1ad24" style="stroke:#000000;"/>
      </defs>
      <g>
       <use style="stroke:#000000;" x="46.772188" xlink:href="#mcef3a1ad24" y="274.599376"/>
      </g>
     </g>
     <g id="text_7">
      <!-- 0 -->
      <g style="fill:#4d4d4d;" transform="translate(34.187188 277.910626)scale(0.12 -0.12)">
       <use xlink:href="#DejaVuSans-48"/>
      </g>
     </g>
    </g>
    <g id="ytick_2">
     <g id="line2d_23">
      <path clip-path="url(#p6074ca7222)" d="M 46.772188 214.119376
L 403.892188 214.119376
" style="fill:none;stroke:#e5e5e5;stroke-width:0.8;"/>
     </g>
     <g id="line2d_24">
      <path d="M 46.772188 214.119376
" style="fill:none;stroke:#000000;stroke-width:1.5;"/>
      <g>
       <use style="stroke:#000000;" x="46.772188" xlink:href="#mcef3a1ad24" y="214.119376"/>
      </g>
     </g>
     <g id="text_8">
      <!-- 25 -->
      <g style="fill:#4d4d4d;" transform="translate(26.552188 217.430626)scale(0.12 -0.12)">
       <use xlink:href="#DejaVuSans-50"/>
       <use x="63.623047" xlink:href="#DejaVuSans-53"/>
      </g>
     </g>
    </g>
    <g id="ytick_3">
     <g id="line2d_25">
      <path clip-path="url(#p6074ca7222)" d="M 46.772188 153.639376
L 403.892188 153.639376
" style="fill:none;stroke:#e5e5e5;stroke-width:0.8;"/>
     </g>
     <g id="line2d_26">
      <path d="M 46.772188 153.639376
" style="fill:none;stroke:#000000;stroke-width:1.5;"/>
      <g>
       <use style="stroke:#000000;" x="46.772188" xlink:href="#mcef3a1ad24" y="153.639376"/>
      </g>
     </g>
     <g id="text_9">
      <!-- 50 -->
      <g style="fill:#4d4d4d;" transform="translate(26.552188 156.950626)scale(0.12 -0.12)">
       <use xlink:href="#DejaVuSans-53"/>
       <use x="63.623047" xlink:href="#DejaVuSans-48"/>
      </g>
     </g>
    </g>
    <g id="ytick_4">
     <g id="line2d_27">
      <path clip-path="url(#p6074ca7222)" d="M 46.772188 93.159376
L 403.892188 93.159376
" style="fill:none;stroke:#e5e5e5;stroke-width:0.8;"/>
     </g>
     <g id="line2d_28">
      <path d="M 46.772188 93.159376
" style="fill:none;stroke:#000000;stroke-width:1.5;"/>
      <g>
       <use style="stroke:#000000;" x="46.772188" xlink:href="#mcef3a1ad24" y="93.159376"/>
      </g>
     </g>
     <g id="text_10">
      <!-- 75 -->
      <defs>
       <path d="M 8.203125 72.90625
L 55.078125 72.90625
L 55.078125 68.703125
L 28.609375 0
L 18.3125 0
L 43.21875 64.59375
L 8.203125 64.59375
z
" id="DejaVuSans-55"/>
      </defs>
      <g style="fill:#4d4d4d;" transform="translate(26.552188 96.470626)scale(0.12 -0.12)">
       <use xlink:href="#DejaVuSans-55"/>
       <use x="63.623047" xlink:href="#DejaVuSans-53"/>
      </g>
     </g>
    </g>
    <g id="ytick_5">
     <g id="line2d_29">
      <path clip-path="url(#p6074ca7222)" d="M 46.772188 32.679376
L 403.892188 32.679376
" style="fill:none;stroke:#e5e5e5;stroke-width:0.8;"/>
     </g>
     <g id="line2d_30">
      <path d="M 46.772188 32.679376
" style="fill:none;stroke:#000000;stroke-width:1.5;"/>
      <g>
       <use style="stroke:#000000;" x="46.772188" xlink:href="#mcef3a1ad24" y="32.679376"/>
      </g>
     </g>
     <g id="text_11">
      <!-- 100 -->
      <g style="fill:#4d4d4d;" transform="translate(18.917188 35.990626)scale(0.12 -0.12)">
       <use xlink:href="#DejaVuSans-49"/>
       <use x="63.623047" xlink:href="#DejaVuSans-48"/>
       <use x="127.246094" xlink:href="#DejaVuSans-48"/>
      </g>
     </g>
    </g>
    <g id="ytick_6">
     <g id="line2d_31">
      <path clip-path="url(#p6074ca7222)" d="M 46.772188 244.359376
L 403.892188 244.359376
" style="fill:none;stroke:#fafafa;"/>
     </g>
     <g id="line2d_32">
      <path d="M 46.772188 244.359376
" style="fill:none;stroke:#000000;stroke-width:1.5;"/>
     </g>
    </g>
    <g id="ytick_7">
     <g id="line2d_33">
      <path clip-path="url(#p6074ca7222)" d="M 46.772188 183.879376
L 403.892188 183.879376
" style="fill:none;stroke:#fafafa;"/>
     </g>
     <g id="line2d_34">
      <path d="M 46.772188 183.879376
" style="fill:none;stroke:#000000;stroke-width:1.5;"/>
     </g>
    </g>
    <g id="ytick_8">
     <g id="line2d_35">
      <path clip-path="url(#p6074ca7222)" d="M 46.772188 123.399376
L 403.892188 123.399376
" style="fill:none;stroke:#fafafa;"/>
     </g>
     <g id="line2d_36">
      <path d="M 46.772188 123.399376
" style="fill:none;stroke:#000000;stroke-width:1.5;"/>
     </g>
    </g>
    <g id="ytick_9">
     <g id="line2d_37">
      <path clip-path="url(#p6074ca7222)" d="M 46.772188 62.919376
L 403.892188 62.919376
" style="fill:none;stroke:#fafafa;"/>
     </g>
     <g id="line2d_38">
      <path d="M 46.772188 62.919376
" style="fill:none;stroke:#000000;stroke-width:1.5;"/>
     </g>
    </g>
    <g id="text_12">
     <!-- Genericness (percentile of ranking) -->
     <defs>
      <path d="M 59.515625 10.40625
L 59.515625 29.984375
L 43.40625 29.984375
L 43.40625 38.09375
L 69.28125 38.09375
L 69.28125 6.78125
Q 63.578125 2.734375 56.6875 0.65625
Q 49.8125 -1.421875 42 -1.421875
Q 24.90625 -1.421875 15.25 8.5625
Q 5.609375 18.5625 5.609375 36.375
Q 5.609375 54.25 15.25 64.234375
Q 24.90625 74.21875 42 74.21875
Q 49.125 74.21875 55.546875 72.453125
Q 61.96875 70.703125 67.390625 67.28125
L 67.390625 56.78125
Q 61.921875 61.421875 55.765625 63.765625
Q 49.609375 66.109375 42.828125 66.109375
Q 29.4375 66.109375 22.71875 58.640625
Q 16.015625 51.171875 16.015625 36.375
Q 16.015625 21.625 22.71875 14.15625
Q 29.4375 6.6875 42.828125 6.6875
Q 48.046875 6.6875 52.140625 7.59375
Q 56.25 8.5 59.515625 10.40625
z
" id="DejaVuSans-71"/>
      <path d="M 18.109375 8.203125
L 18.109375 -20.796875
L 9.078125 -20.796875
L 9.078125 54.6875
L 18.109375 54.6875
L 18.109375 46.390625
Q 20.953125 51.265625 25.265625 53.625
Q 29.59375 56 35.59375 56
Q 45.5625 56 51.78125 48.09375
Q 58.015625 40.1875 58.015625 27.296875
Q 58.015625 14.40625 51.78125 6.484375
Q 45.5625 -1.421875 35.59375 -1.421875
Q 29.59375 -1.421875 25.265625 0.953125
Q 20.953125 3.328125 18.109375 8.203125
z
M 48.6875 27.296875
Q 48.6875 37.203125 44.609375 42.84375
Q 40.53125 48.484375 33.40625 48.484375
Q 26.265625 48.484375 22.1875 42.84375
Q 18.109375 37.203125 18.109375 27.296875
Q 18.109375 17.390625 22.1875 11.75
Q 26.265625 6.109375 33.40625 6.109375
Q 40.53125 6.109375 44.609375 11.75
Q 48.6875 17.390625 48.6875 27.296875
z
" id="DejaVuSans-112"/>
      <path d="M 9.421875 75.984375
L 18.40625 75.984375
L 18.40625 0
L 9.421875 0
z
" id="DejaVuSans-108"/>
      <path d="M 37.109375 75.984375
L 37.109375 68.5
L 28.515625 68.5
Q 23.6875 68.5 21.796875 66.546875
Q 19.921875 64.59375 19.921875 59.515625
L 19.921875 54.6875
L 34.71875 54.6875
L 34.71875 47.703125
L 19.921875 47.703125
L 19.921875 0
L 10.890625 0
L 10.890625 47.703125
L 2.296875 47.703125
L 2.296875 54.6875
L 10.890625 54.6875
L 10.890625 58.5
Q 10.890625 67.625 15.140625 71.796875
Q 19.390625 75.984375 28.609375 75.984375
z
" id="DejaVuSans-102"/>
      <path d="M 9.078125 75.984375
L 18.109375 75.984375
L 18.109375 31.109375
L 44.921875 54.6875
L 56.390625 54.6875
L 27.390625 29.109375
L 57.625 0
L 45.90625 0
L 18.109375 26.703125
L 18.109375 0
L 9.078125 0
z
" id="DejaVuSans-107"/>
      <path d="M 45.40625 27.984375
Q 45.40625 37.75 41.375 43.109375
Q 37.359375 48.484375 30.078125 48.484375
Q 22.859375 48.484375 18.828125 43.109375
Q 14.796875 37.75 14.796875 27.984375
Q 14.796875 18.265625 18.828125 12.890625
Q 22.859375 7.515625 30.078125 7.515625
Q 37.359375 7.515625 41.375 12.890625
Q 45.40625 18.265625 45.40625 27.984375
z
M 54.390625 6.78125
Q 54.390625 -7.171875 48.1875 -13.984375
Q 42 -20.796875 29.203125 -20.796875
Q 24.46875 -20.796875 20.265625 -20.09375
Q 16.0625 -19.390625 12.109375 -17.921875
L 12.109375 -9.1875
Q 16.0625 -11.328125 19.921875 -12.34375
Q 23.78125 -13.375 27.78125 -13.375
Q 36.625 -13.375 41.015625 -8.765625
Q 45.40625 -4.15625 45.40625 5.171875
L 45.40625 9.625
Q 42.625 4.78125 38.28125 2.390625
Q 33.9375 0 27.875 0
Q 17.828125 0 11.671875 7.65625
Q 5.515625 15.328125 5.515625 27.984375
Q 5.515625 40.671875 11.671875 48.328125
Q 17.828125 56 27.875 56
Q 33.9375 56 38.28125 53.609375
Q 42.625 51.21875 45.40625 46.390625
L 45.40625 54.6875
L 54.390625 54.6875
z
" id="DejaVuSans-103"/>
     </defs>
     <g transform="translate(11.397656 284.455126)rotate(-90)scale(0.15 -0.15)">
      <use xlink:href="#DejaVuSans-71"/>
      <use x="77.490234" xlink:href="#DejaVuSans-101"/>
      <use x="139.013672" xlink:href="#DejaVuSans-110"/>
      <use x="202.392578" xlink:href="#DejaVuSans-101"/>
      <use x="263.916016" xlink:href="#DejaVuSans-114"/>
      <use x="305.029297" xlink:href="#DejaVuSans-105"/>
      <use x="332.8125" xlink:href="#DejaVuSans-99"/>
      <use x="387.792969" xlink:href="#DejaVuSans-110"/>
      <use x="451.171875" xlink:href="#DejaVuSans-101"/>
      <use x="512.695312" xlink:href="#DejaVuSans-115"/>
      <use x="564.794922" xlink:href="#DejaVuSans-115"/>
      <use x="616.894531" xlink:href="#DejaVuSans-32"/>
      <use x="648.681641" xlink:href="#DejaVuSans-40"/>
      <use x="687.695312" xlink:href="#DejaVuSans-112"/>
      <use x="751.171875" xlink:href="#DejaVuSans-101"/>
      <use x="812.695312" xlink:href="#DejaVuSans-114"/>
      <use x="853.777344" xlink:href="#DejaVuSans-99"/>
      <use x="908.757812" xlink:href="#DejaVuSans-101"/>
      <use x="970.28125" xlink:href="#DejaVuSans-110"/>
      <use x="1033.660156" xlink:href="#DejaVuSans-116"/>
      <use x="1072.869141" xlink:href="#DejaVuSans-105"/>
      <use x="1100.652344" xlink:href="#DejaVuSans-108"/>
      <use x="1128.435547" xlink:href="#DejaVuSans-101"/>
      <use x="1189.958984" xlink:href="#DejaVuSans-32"/>
      <use x="1221.746094" xlink:href="#DejaVuSans-111"/>
      <use x="1282.927734" xlink:href="#DejaVuSans-102"/>
      <use x="1318.132812" xlink:href="#DejaVuSans-32"/>
      <use x="1349.919922" xlink:href="#DejaVuSans-114"/>
      <use x="1391.033203" xlink:href="#DejaVuSans-97"/>
      <use x="1452.3125" xlink:href="#DejaVuSans-110"/>
      <use x="1515.691406" xlink:href="#DejaVuSans-107"/>
      <use x="1573.601562" xlink:href="#DejaVuSans-105"/>
      <use x="1601.384766" xlink:href="#DejaVuSans-110"/>
      <use x="1664.763672" xlink:href="#DejaVuSans-103"/>
      <use x="1728.240234" xlink:href="#DejaVuSans-41"/>
     </g>
    </g>
   </g>
   <g id="PathCollection_1">
    <path clip-path="url(#p6074ca7222)" d="M 387.65946 34.45183
C 388.12952 34.45183 388.580392 34.265073 388.912774 33.93269
C 389.245157 33.600307 389.431914 33.149436 389.431914 32.679376
C 389.431914 32.209316 389.245157 31.758444 388.912774 31.426062
C 388.580392 31.093679 388.12952 30.906922 387.65946 30.906922
C 387.1894 30.906922 386.738529 31.093679 386.406146 31.426062
C 386.073763 31.758444 385.887006 32.209316 385.887006 32.679376
C 385.887006 33.149436 386.073763 33.600307 386.406146 33.93269
C 386.738529 34.265073 387.1894 34.45183 387.65946 34.45183
z
" style="stroke:#000000;stroke-width:0.886227;"/>
    <path clip-path="url(#p6074ca7222)" d="M 90.661758 227.000401
C 91.131818 227.000401 91.582689 226.813644 91.915072 226.481261
C 92.247455 226.148879 92.434212 225.698008 92.434212 225.227947
C 92.434212 224.757887 92.247455 224.307016 91.915072 223.974633
C 91.582689 223.64225 91.131818 223.455493 90.661758 223.455493
C 90.191698 223.455493 89.740827 223.64225 89.408444 223.974633
C 89.076061 224.307016 88.889304 224.757887 88.889304 225.227947
C 88.889304 225.698008 89.076061 226.148879 89.408444 226.481261
C 89.740827 226.813644 90.191698 227.000401 90.661758 227.000401
z
" style="stroke:#000000;stroke-width:0.886227;"/>
    <path clip-path="url(#p6074ca7222)" d="M 88.264912 231.937544
C 88.734972 231.937544 89.185843 231.750787 89.518226 231.418404
C 89.850608 231.086021 90.037365 230.63515 90.037365 230.16509
C 90.037365 229.69503 89.850608 229.244159 89.518226 228.911776
C 89.185843 228.579393 88.734972 228.392636 88.264912 228.392636
C 87.794851 228.392636 87.34398 228.579393 87.011597 228.911776
C 86.679215 229.244159 86.492458 229.69503 86.492458 230.16509
C 86.492458 230.63515 86.679215 231.086021 87.011597 231.418404
C 87.34398 231.750787 87.794851 231.937544 88.264912 231.937544
z
" style="stroke:#000000;stroke-width:0.886227;"/>
    <path clip-path="url(#p6074ca7222)" d="M 79.087565 241.81183
C 79.557625 241.81183 80.008496 241.625073 80.340879 241.29269
C 80.673262 240.960307 80.860019 240.509436 80.860019 240.039376
C 80.860019 239.569316 80.673262 239.118444 80.340879 238.786062
C 80.008496 238.453679 79.557625 238.266922 79.087565 238.266922
C 78.617505 238.266922 78.166634 238.453679 77.834251 238.786062
C 77.501868 239.118444 77.315111 239.569316 77.315111 240.039376
C 77.315111 240.509436 77.501868 240.960307 77.834251 241.29269
C 78.166634 241.625073 78.617505 241.81183 79.087565 241.81183
z
" style="stroke:#000000;stroke-width:0.886227;"/>
    <path clip-path="url(#p6074ca7222)" d="M 239.548232 69.01183
C 240.018292 69.01183 240.469163 68.825073 240.801546 68.49269
C 241.133929 68.160307 241.320686 67.709436 241.320686 67.239376
C 241.320686 66.769316 241.133929 66.318444 240.801546 65.986062
C 240.469163 65.653679 240.018292 65.466922 239.548232 65.466922
C 239.078172 65.466922 238.627301 65.653679 238.294918 65.986062
C 237.962535 66.318444 237.775778 66.769316 237.775778 67.239376
C 237.775778 67.709436 237.962535 68.160307 238.294918 68.49269
C 238.627301 68.825073 239.078172 69.01183 239.548232 69.01183
z
" style="stroke:#000000;stroke-width:0.886227;"/>
    <path clip-path="url(#p6074ca7222)" d="M 361.33498 44.326115
C 361.80504 44.326115 362.255911 44.139358 362.588294 43.806976
C 362.920677 43.474593 363.107434 43.023722 363.107434 42.553662
C 363.107434 42.083601 362.920677 41.63273 362.588294 41.300347
C 362.255911 40.967965 361.80504 40.781208 361.33498 40.781208
C 360.86492 40.781208 360.414049 40.967965 360.081666 41.300347
C 359.749283 41.63273 359.562526 42.083601 359.562526 42.553662
C 359.562526 43.023722 359.749283 43.474593 360.081666 43.806976
C 360.414049 44.139358 360.86492 44.326115 361.33498 44.326115
z
" style="stroke:#000000;stroke-width:0.886227;"/>
    <path clip-path="url(#p6074ca7222)" d="M 383.298722 39.388973
C 383.768782 39.388973 384.219653 39.202216 384.552036 38.869833
C 384.884419 38.53745 385.071176 38.086579 385.071176 37.616519
C 385.071176 37.146458 384.884419 36.695587 384.552036 36.363205
C 384.219653 36.030822 383.768782 35.844065 383.298722 35.844065
C 382.828661 35.844065 382.37779 36.030822 382.045408 36.363205
C 381.713025 36.695587 381.526268 37.146458 381.526268 37.616519
C 381.526268 38.086579 381.713025 38.53745 382.045408 38.869833
C 382.37779 39.202216 382.828661 39.388973 383.298722 39.388973
z
" style="stroke:#000000;stroke-width:0.886227;"/>
    <path clip-path="url(#p6074ca7222)" d="M 317.141227 49.263258
C 317.611287 49.263258 318.062158 49.076501 318.394541 48.744119
C 318.726923 48.411736 318.91368 47.960865 318.91368 47.490804
C 318.91368 47.020744 318.726923 46.569873 318.394541 46.23749
C 318.062158 45.905107 317.611287 45.718351 317.141227 45.718351
C 316.671166 45.718351 316.220295 45.905107 315.887912 46.23749
C 315.55553 46.569873 315.368773 47.020744 315.368773 47.490804
C 315.368773 47.960865 315.55553 48.411736 315.887912 48.744119
C 316.220295 49.076501 316.671166 49.263258 317.141227 49.263258
z
" style="stroke:#000000;stroke-width:0.886227;"/>
    <path clip-path="url(#p6074ca7222)" d="M 67.815064 266.497544
C 68.285125 266.497544 68.735996 266.310787 69.068379 265.978404
C 69.400761 265.646021 69.587518 265.19515 69.587518 264.72509
C 69.587518 264.25503 69.400761 263.804159 69.068379 263.471776
C 68.735996 263.139393 68.285125 262.952636 67.815064 262.952636
C 67.345004 262.952636 66.894133 263.139393 66.56175 263.471776
C 66.229367 263.804159 66.042611 264.25503 66.042611 264.72509
C 66.042611 265.19515 66.229367 265.646021 66.56175 265.978404
C 66.894133 266.310787 67.345004 266.497544 67.815064 266.497544
z
" style="stroke:#000000;stroke-width:0.886227;"/>
    <path clip-path="url(#p6074ca7222)" d="M 220.399894 88.760401
C 220.869954 88.760401 221.320825 88.573644 221.653208 88.241261
C 221.985591 87.908879 222.172348 87.458008 222.172348 86.987947
C 222.172348 86.517887 221.985591 86.067016 221.653208 85.734633
C 221.320825 85.40225 220.869954 85.215493 220.399894 85.215493
C 219.929833 85.215493 219.478962 85.40225 219.14658 85.734633
C 218.814197 86.067016 218.62744 86.517887 218.62744 86.987947
C 218.62744 87.458008 218.814197 87.908879 219.14658 88.241261
C 219.478962 88.573644 219.929833 88.760401 220.399894 88.760401
z
" style="stroke:#000000;stroke-width:0.886227;"/>
    <path clip-path="url(#p6074ca7222)" d="M 105.603917 197.377544
C 106.073978 197.377544 106.524849 197.190787 106.857232 196.858404
C 107.189614 196.526021 107.376371 196.07515 107.376371 195.60509
C 107.376371 195.13503 107.189614 194.684159 106.857232 194.351776
C 106.524849 194.019393 106.073978 193.832636 105.603917 193.832636
C 105.133857 193.832636 104.682986 194.019393 104.350603 194.351776
C 104.01822 194.684159 103.831464 195.13503 103.831464 195.60509
C 103.831464 196.07515 104.01822 196.526021 104.350603 196.858404
C 104.682986 197.190787 105.133857 197.377544 105.603917 197.377544
z
" style="stroke:#000000;stroke-width:0.886227;"/>
    <path clip-path="url(#p6074ca7222)" d="M 104.600728 202.314687
C 105.070788 202.314687 105.521659 202.12793 105.854042 201.795547
C 106.186425 201.463164 106.373182 201.012293 106.373182 200.542233
C 106.373182 200.072173 106.186425 199.621302 105.854042 199.288919
C 105.521659 198.956536 105.070788 198.769779 104.600728 198.769779
C 104.130668 198.769779 103.679797 198.956536 103.347414 199.288919
C 103.015031 199.621302 102.828274 200.072173 102.828274 200.542233
C 102.828274 201.012293 103.015031 201.463164 103.347414 201.795547
C 103.679797 202.12793 104.130668 202.314687 104.600728 202.314687
z
" style="stroke:#000000;stroke-width:0.886227;"/>
    <path clip-path="url(#p6074ca7222)" d="M 241.778697 64.074687
C 242.248757 64.074687 242.699628 63.88793 243.032011 63.555547
C 243.364394 63.223164 243.551151 62.772293 243.551151 62.302233
C 243.551151 61.832173 243.364394 61.381302 243.032011 61.048919
C 242.699628 60.716536 242.248757 60.529779 241.778697 60.529779
C 241.308636 60.529779 240.857765 60.716536 240.525383 61.048919
C 240.193 61.381302 240.006243 61.832173 240.006243 62.302233
C 240.006243 62.772293 240.193 63.223164 240.525383 63.555547
C 240.857765 63.88793 241.308636 64.074687 241.778697 64.074687
z
" style="stroke:#000000;stroke-width:0.886227;"/>
    <path clip-path="url(#p6074ca7222)" d="M 191.143092 103.57183
C 191.613153 103.57183 192.064024 103.385073 192.396406 103.05269
C 192.728789 102.720307 192.915546 102.269436 192.915546 101.799376
C 192.915546 101.329316 192.728789 100.878444 192.396406 100.546062
C 192.064024 100.213679 191.613153 100.026922 191.143092 100.026922
C 190.673032 100.026922 190.222161 100.213679 189.889778 100.546062
C 189.557395 100.878444 189.370638 101.329316 189.370638 101.799376
C 189.370638 102.269436 189.557395 102.720307 189.889778 103.05269
C 190.222161 103.385073 190.673032 103.57183 191.143092 103.57183
z
" style="stroke:#000000;stroke-width:0.886227;"/>
    <path clip-path="url(#p6074ca7222)" d="M 200.462701 98.634687
C 200.932761 98.634687 201.383632 98.44793 201.716015 98.115547
C 202.048398 97.783164 202.235154 97.332293 202.235154 96.862233
C 202.235154 96.392173 202.048398 95.941302 201.716015 95.608919
C 201.383632 95.276536 200.932761 95.089779 200.462701 95.089779
C 199.99264 95.089779 199.541769 95.276536 199.209386 95.608919
C 198.877004 95.941302 198.690247 96.392173 198.690247 96.862233
C 198.690247 97.332293 198.877004 97.783164 199.209386 98.115547
C 199.541769 98.44793 199.99264 98.634687 200.462701 98.634687
z
" style="stroke:#000000;stroke-width:0.886227;"/>
    <path clip-path="url(#p6074ca7222)" d="M 113.55037 177.628973
C 114.02043 177.628973 114.471301 177.442216 114.803684 177.109833
C 115.136067 176.77745 115.322824 176.326579 115.322824 175.856519
C 115.322824 175.386458 115.136067 174.935587 114.803684 174.603205
C 114.471301 174.270822 114.02043 174.084065 113.55037 174.084065
C 113.08031 174.084065 112.629438 174.270822 112.297056 174.603205
C 111.964673 174.935587 111.777916 175.386458 111.777916 175.856519
C 111.777916 176.326579 111.964673 176.77745 112.297056 177.109833
C 112.629438 177.442216 113.08031 177.628973 113.55037 177.628973
z
" style="stroke:#000000;stroke-width:0.886227;"/>
    <path clip-path="url(#p6074ca7222)" d="M 146.405262 123.320401
C 146.875322 123.320401 147.326193 123.133644 147.658576 122.801261
C 147.990958 122.468879 148.177715 122.018008 148.177715 121.547947
C 148.177715 121.077887 147.990958 120.627016 147.658576 120.294633
C 147.326193 119.96225 146.875322 119.775493 146.405262 119.775493
C 145.935201 119.775493 145.48433 119.96225 145.151947 120.294633
C 144.819565 120.627016 144.632808 121.077887 144.632808 121.547947
C 144.632808 122.018008 144.819565 122.468879 145.151947 122.801261
C 145.48433 123.133644 145.935201 123.320401 146.405262 123.320401
z
" style="stroke:#000000;stroke-width:0.886227;"/>
    <path clip-path="url(#p6074ca7222)" d="M 73.534029 256.623258
C 74.004089 256.623258 74.45496 256.436501 74.787343 256.104119
C 75.119726 255.771736 75.306483 255.320865 75.306483 254.850804
C 75.306483 254.380744 75.119726 253.929873 74.787343 253.59749
C 74.45496 253.265107 74.004089 253.078351 73.534029 253.078351
C 73.063969 253.078351 72.613098 253.265107 72.280715 253.59749
C 71.948332 253.929873 71.761575 254.380744 71.761575 254.850804
C 71.761575 255.320865 71.948332 255.771736 72.280715 256.104119
C 72.613098 256.436501 73.063969 256.623258 73.534029 256.623258
z
" style="stroke:#000000;stroke-width:0.886227;"/>
    <path clip-path="url(#p6074ca7222)" d="M 226.666851 78.886115
C 227.136911 78.886115 227.587782 78.699358 227.920165 78.366976
C 228.252548 78.034593 228.439305 77.583722 228.439305 77.113662
C 228.439305 76.643601 228.252548 76.19273 227.920165 75.860347
C 227.587782 75.527965 227.136911 75.341208 226.666851 75.341208
C 226.19679 75.341208 225.745919 75.527965 225.413537 75.860347
C 225.081154 76.19273 224.894397 76.643601 224.894397 77.113662
C 224.894397 77.583722 225.081154 78.034593 225.413537 78.366976
C 225.745919 78.699358 226.19679 78.886115 226.666851 78.886115
z
" style="stroke:#000000;stroke-width:0.886227;"/>
    <path clip-path="url(#p6074ca7222)" d="M 136.77121 148.006115
C 137.24127 148.006115 137.692142 147.819358 138.024524 147.486976
C 138.356907 147.154593 138.543664 146.703722 138.543664 146.233662
C 138.543664 145.763601 138.356907 145.31273 138.024524 144.980347
C 137.692142 144.647965 137.24127 144.461208 136.77121 144.461208
C 136.30115 144.461208 135.850279 144.647965 135.517896 144.980347
C 135.185513 145.31273 134.998756 145.763601 134.998756 146.233662
C 134.998756 146.703722 135.185513 147.154593 135.517896 147.486976
C 135.850279 147.819358 136.30115 148.006115 136.77121 148.006115
z
" style="stroke:#000000;stroke-width:0.886227;"/>
    <path clip-path="url(#p6074ca7222)" d="M 121.285847 167.754687
C 121.755907 167.754687 122.206778 167.56793 122.539161 167.235547
C 122.871544 166.903164 123.058301 166.452293 123.058301 165.982233
C 123.058301 165.512173 122.871544 165.061302 122.539161 164.728919
C 122.206778 164.396536 121.755907 164.209779 121.285847 164.209779
C 120.815787 164.209779 120.364915 164.396536 120.032533 164.728919
C 119.70015 165.061302 119.513393 165.512173 119.513393 165.982233
C 119.513393 166.452293 119.70015 166.903164 120.032533 167.235547
C 120.364915 167.56793 120.815787 167.754687 121.285847 167.754687
z
" style="stroke:#000000;stroke-width:0.886227;"/>
    <path clip-path="url(#p6074ca7222)" d="M 208.973642 93.697544
C 209.443702 93.697544 209.894573 93.510787 210.226956 93.178404
C 210.559339 92.846021 210.746096 92.39515 210.746096 91.92509
C 210.746096 91.45503 210.559339 91.004159 210.226956 90.671776
C 209.894573 90.339393 209.443702 90.152636 208.973642 90.152636
C 208.503581 90.152636 208.05271 90.339393 207.720328 90.671776
C 207.387945 91.004159 207.201188 91.45503 207.201188 91.92509
C 207.201188 92.39515 207.387945 92.846021 207.720328 93.178404
C 208.05271 93.510787 208.503581 93.697544 208.973642 93.697544
z
" style="stroke:#000000;stroke-width:0.886227;"/>
    <path clip-path="url(#p6074ca7222)" d="M 74.357629 251.686115
C 74.82769 251.686115 75.278561 251.499358 75.610944 251.166976
C 75.943326 250.834593 76.130083 250.383722 76.130083 249.913662
C 76.130083 249.443601 75.943326 248.99273 75.610944 248.660347
C 75.278561 248.327965 74.82769 248.141208 74.357629 248.141208
C 73.887569 248.141208 73.436698 248.327965 73.104315 248.660347
C 72.771933 248.99273 72.585176 249.443601 72.585176 249.913662
C 72.585176 250.383722 72.771933 250.834593 73.104315 251.166976
C 73.436698 251.499358 73.887569 251.686115 74.357629 251.686115
z
" style="stroke:#000000;stroke-width:0.886227;"/>
    <path clip-path="url(#p6074ca7222)" d="M 234.447322 73.948973
C 234.917382 73.948973 235.368253 73.762216 235.700636 73.429833
C 236.033019 73.09745 236.219776 72.646579 236.219776 72.176519
C 236.219776 71.706458 236.033019 71.255587 235.700636 70.923205
C 235.368253 70.590822 234.917382 70.404065 234.447322 70.404065
C 233.977262 70.404065 233.526391 70.590822 233.194008 70.923205
C 232.861625 71.255587 232.674868 71.706458 232.674868 72.176519
C 232.674868 72.646579 232.861625 73.09745 233.194008 73.429833
C 233.526391 73.762216 233.977262 73.948973 234.447322 73.948973
z
" style="stroke:#000000;stroke-width:0.886227;"/>
    <path clip-path="url(#p6074ca7222)" d="M 97.914837 212.188973
C 98.384897 212.188973 98.835768 212.002216 99.168151 211.669833
C 99.500534 211.33745 99.687291 210.886579 99.687291 210.416519
C 99.687291 209.946458 99.500534 209.495587 99.168151 209.163205
C 98.835768 208.830822 98.384897 208.644065 97.914837 208.644065
C 97.444777 208.644065 96.993905 208.830822 96.661523 209.163205
C 96.32914 209.495587 96.142383 209.946458 96.142383 210.416519
C 96.142383 210.886579 96.32914 211.33745 96.661523 211.669833
C 96.993905 212.002216 97.444777 212.188973 97.914837 212.188973
z
" style="stroke:#000000;stroke-width:0.886227;"/>
    <path clip-path="url(#p6074ca7222)" d="M 119.126389 172.69183
C 119.596449 172.69183 120.047321 172.505073 120.379703 172.17269
C 120.712086 171.840307 120.898843 171.389436 120.898843 170.919376
C 120.898843 170.449316 120.712086 169.998444 120.379703 169.666062
C 120.047321 169.333679 119.596449 169.146922 119.126389 169.146922
C 118.656329 169.146922 118.205458 169.333679 117.873075 169.666062
C 117.540692 169.998444 117.353935 170.449316 117.353935 170.919376
C 117.353935 171.389436 117.540692 171.840307 117.873075 172.17269
C 118.205458 172.505073 118.656329 172.69183 119.126389 172.69183
z
" style="stroke:#000000;stroke-width:0.886227;"/>
    <path clip-path="url(#p6074ca7222)" d="M 74.767046 246.748973
C 75.237106 246.748973 75.687977 246.562216 76.02036 246.229833
C 76.352743 245.89745 76.5395 245.446579 76.5395 244.976519
C 76.5395 244.506458 76.352743 244.055587 76.02036 243.723205
C 75.687977 243.390822 75.237106 243.204065 74.767046 243.204065
C 74.296986 243.204065 73.846115 243.390822 73.513732 243.723205
C 73.181349 244.055587 72.994592 244.506458 72.994592 244.976519
C 72.994592 245.446579 73.181349 245.89745 73.513732 246.229833
C 73.846115 246.562216 74.296986 246.748973 74.767046 246.748973
z
" style="stroke:#000000;stroke-width:0.886227;"/>
    <path clip-path="url(#p6074ca7222)" d="M 170.219698 108.508973
C 170.689758 108.508973 171.140629 108.322216 171.473012 107.989833
C 171.805395 107.65745 171.992151 107.206579 171.992151 106.736519
C 171.992151 106.266458 171.805395 105.815587 171.473012 105.483205
C 171.140629 105.150822 170.689758 104.964065 170.219698 104.964065
C 169.749637 104.964065 169.298766 105.150822 168.966383 105.483205
C 168.634001 105.815587 168.447244 106.266458 168.447244 106.736519
C 168.447244 107.206579 168.634001 107.65745 168.966383 107.989833
C 169.298766 108.322216 169.749637 108.508973 170.219698 108.508973
z
" style="stroke:#000000;stroke-width:0.886227;"/>
    <path clip-path="url(#p6074ca7222)" d="M 106.611233 192.440401
C 107.081293 192.440401 107.532164 192.253644 107.864547 191.921261
C 108.19693 191.588879 108.383687 191.138008 108.383687 190.667947
C 108.383687 190.197887 108.19693 189.747016 107.864547 189.414633
C 107.532164 189.08225 107.081293 188.895493 106.611233 188.895493
C 106.141173 188.895493 105.690302 189.08225 105.357919 189.414633
C 105.025536 189.747016 104.838779 190.197887 104.838779 190.667947
C 104.838779 191.138008 105.025536 191.588879 105.357919 191.921261
C 105.690302 192.253644 106.141173 192.440401 106.611233 192.440401
z
" style="stroke:#000000;stroke-width:0.886227;"/>
    <path clip-path="url(#p6074ca7222)" d="M 297.369771 54.200401
C 297.839831 54.200401 298.290702 54.013644 298.623085 53.681261
C 298.955467 53.348879 299.142224 52.898008 299.142224 52.427947
C 299.142224 51.957887 298.955467 51.507016 298.623085 51.174633
C 298.290702 50.84225 297.839831 50.655493 297.369771 50.655493
C 296.89971 50.655493 296.448839 50.84225 296.116456 51.174633
C 295.784074 51.507016 295.597317 51.957887 295.597317 52.427947
C 295.597317 52.898008 295.784074 53.348879 296.116456 53.681261
C 296.448839 54.013644 296.89971 54.200401 297.369771 54.200401
z
" style="stroke:#000000;stroke-width:0.886227;"/>
    <path clip-path="url(#p6074ca7222)" d="M 99.953518 207.25183
C 100.423578 207.25183 100.874449 207.065073 101.206832 206.73269
C 101.539215 206.400307 101.725972 205.949436 101.725972 205.479376
C 101.725972 205.009316 101.539215 204.558444 101.206832 204.226062
C 100.874449 203.893679 100.423578 203.706922 99.953518 203.706922
C 99.483458 203.706922 99.032587 203.893679 98.700204 204.226062
C 98.367821 204.558444 98.181064 205.009316 98.181064 205.479376
C 98.181064 205.949436 98.367821 206.400307 98.700204 206.73269
C 99.032587 207.065073 99.483458 207.25183 99.953518 207.25183
z
" style="stroke:#000000;stroke-width:0.886227;"/>
    <path clip-path="url(#p6074ca7222)" d="M 109.853138 182.566115
C 110.323198 182.566115 110.774069 182.379358 111.106452 182.046976
C 111.438835 181.714593 111.625592 181.263722 111.625592 180.793662
C 111.625592 180.323601 111.438835 179.87273 111.106452 179.540347
C 110.774069 179.207965 110.323198 179.021208 109.853138 179.021208
C 109.383078 179.021208 108.932206 179.207965 108.599824 179.540347
C 108.267441 179.87273 108.080684 180.323601 108.080684 180.793662
C 108.080684 181.263722 108.267441 181.714593 108.599824 182.046976
C 108.932206 182.379358 109.383078 182.566115 109.853138 182.566115
z
" style="stroke:#000000;stroke-width:0.886227;"/>
    <path clip-path="url(#p6074ca7222)" d="M 223.362685 83.823258
C 223.832745 83.823258 224.283616 83.636501 224.615999 83.304119
C 224.948382 82.971736 225.135139 82.520865 225.135139 82.050804
C 225.135139 81.580744 224.948382 81.129873 224.615999 80.79749
C 224.283616 80.465107 223.832745 80.278351 223.362685 80.278351
C 222.892625 80.278351 222.441754 80.465107 222.109371 80.79749
C 221.776988 81.129873 221.590231 81.580744 221.590231 82.050804
C 221.590231 82.520865 221.776988 82.971736 222.109371 83.304119
C 222.441754 83.636501 222.892625 83.823258 223.362685 83.823258
z
" style="stroke:#000000;stroke-width:0.886227;"/>
    <path clip-path="url(#p6074ca7222)" d="M 66.89281 271.434687
C 67.36287 271.434687 67.813741 271.24793 68.146124 270.915547
C 68.478507 270.583164 68.665263 270.132293 68.665263 269.662233
C 68.665263 269.192173 68.478507 268.741302 68.146124 268.408919
C 67.813741 268.076536 67.36287 267.889779 66.89281 267.889779
C 66.422749 267.889779 65.971878 268.076536 65.639495 268.408919
C 65.307113 268.741302 65.120356 269.192173 65.120356 269.662233
C 65.120356 270.132293 65.307113 270.583164 65.639495 270.915547
C 65.971878 271.24793 66.422749 271.434687 66.89281 271.434687
z
" style="stroke:#000000;stroke-width:0.886227;"/>
    <path clip-path="url(#p6074ca7222)" d="M 145.277798 128.257544
C 145.747858 128.257544 146.198729 128.070787 146.531112 127.738404
C 146.863495 127.406021 147.050252 126.95515 147.050252 126.48509
C 147.050252 126.01503 146.863495 125.564159 146.531112 125.231776
C 146.198729 124.899393 145.747858 124.712636 145.277798 124.712636
C 144.807738 124.712636 144.356866 124.899393 144.024484 125.231776
C 143.692101 125.564159 143.505344 126.01503 143.505344 126.48509
C 143.505344 126.95515 143.692101 127.406021 144.024484 127.738404
C 144.356866 128.070787 144.807738 128.257544 145.277798 128.257544
z
" style="stroke:#000000;stroke-width:0.886227;"/>
    <path clip-path="url(#p6074ca7222)" d="M 91.588228 222.063258
C 92.058289 222.063258 92.50916 221.876501 92.841542 221.544119
C 93.173925 221.211736 93.360682 220.760865 93.360682 220.290804
C 93.360682 219.820744 93.173925 219.369873 92.841542 219.03749
C 92.50916 218.705107 92.058289 218.518351 91.588228 218.518351
C 91.118168 218.518351 90.667297 218.705107 90.334914 219.03749
C 90.002531 219.369873 89.815774 219.820744 89.815774 220.290804
C 89.815774 220.760865 90.002531 221.211736 90.334914 221.544119
C 90.667297 221.876501 91.118168 222.063258 91.588228 222.063258
z
" style="stroke:#000000;stroke-width:0.886227;"/>
    <path clip-path="url(#p6074ca7222)" d="M 126.263847 157.880401
C 126.733908 157.880401 127.184779 157.693644 127.517162 157.361261
C 127.849544 157.028879 128.036301 156.578008 128.036301 156.107947
C 128.036301 155.637887 127.849544 155.187016 127.517162 154.854633
C 127.184779 154.52225 126.733908 154.335493 126.263847 154.335493
C 125.793787 154.335493 125.342916 154.52225 125.010533 154.854633
C 124.67815 155.187016 124.491394 155.637887 124.491394 156.107947
C 124.491394 156.578008 124.67815 157.028879 125.010533 157.361261
C 125.342916 157.693644 125.793787 157.880401 126.263847 157.880401
z
" style="stroke:#000000;stroke-width:0.886227;"/>
    <path clip-path="url(#p6074ca7222)" d="M 63.004915 276.37183
C 63.474975 276.37183 63.925846 276.185073 64.258229 275.85269
C 64.590612 275.520307 64.777369 275.069436 64.777369 274.599376
C 64.777369 274.129316 64.590612 273.678444 64.258229 273.346062
C 63.925846 273.013679 63.474975 272.826922 63.004915 272.826922
C 62.534855 272.826922 62.083983 273.013679 61.751601 273.346062
C 61.419218 273.678444 61.232461 274.129316 61.232461 274.599376
C 61.232461 275.069436 61.419218 275.520307 61.751601 275.85269
C 62.083983 276.185073 62.534855 276.37183 63.004915 276.37183
z
" style="stroke:#000000;stroke-width:0.886227;"/>
    <path clip-path="url(#p6074ca7222)" d="M 264.537493 59.137544
C 265.007554 59.137544 265.458425 58.950787 265.790807 58.618404
C 266.12319 58.286021 266.309947 57.83515 266.309947 57.36509
C 266.309947 56.89503 266.12319 56.444159 265.790807 56.111776
C 265.458425 55.779393 265.007554 55.592636 264.537493 55.592636
C 264.067433 55.592636 263.616562 55.779393 263.284179 56.111776
C 262.951796 56.444159 262.765039 56.89503 262.765039 57.36509
C 262.765039 57.83515 262.951796 58.286021 263.284179 58.618404
C 263.616562 58.950787 264.067433 59.137544 264.537493 59.137544
z
" style="stroke:#000000;stroke-width:0.886227;"/>
    <path clip-path="url(#p6074ca7222)" d="M 137.443347 143.068973
C 137.913407 143.068973 138.364278 142.882216 138.696661 142.549833
C 139.029044 142.21745 139.215801 141.766579 139.215801 141.296519
C 139.215801 140.826458 139.029044 140.375587 138.696661 140.043205
C 138.364278 139.710822 137.913407 139.524065 137.443347 139.524065
C 136.973287 139.524065 136.522415 139.710822 136.190033 140.043205
C 135.85765 140.375587 135.670893 140.826458 135.670893 141.296519
C 135.670893 141.766579 135.85765 142.21745 136.190033 142.549833
C 136.522415 142.882216 136.973287 143.068973 137.443347 143.068973
z
" style="stroke:#000000;stroke-width:0.886227;"/>
    <path clip-path="url(#p6074ca7222)" d="M 95.860031 217.126115
C 96.330091 217.126115 96.780962 216.939358 97.113345 216.606976
C 97.445728 216.274593 97.632485 215.823722 97.632485 215.353662
C 97.632485 214.883601 97.445728 214.43273 97.113345 214.100347
C 96.780962 213.767965 96.330091 213.581208 95.860031 213.581208
C 95.38997 213.581208 94.939099 213.767965 94.606717 214.100347
C 94.274334 214.43273 94.087577 214.883601 94.087577 215.353662
C 94.087577 215.823722 94.274334 216.274593 94.606717 216.606976
C 94.939099 216.939358 95.38997 217.126115 95.860031 217.126115
z
" style="stroke:#000000;stroke-width:0.886227;"/>
    <path clip-path="url(#p6074ca7222)" d="M 108.246631 187.503258
C 108.716692 187.503258 109.167563 187.316501 109.499945 186.984119
C 109.832328 186.651736 110.019085 186.200865 110.019085 185.730804
C 110.019085 185.260744 109.832328 184.809873 109.499945 184.47749
C 109.167563 184.145107 108.716692 183.958351 108.246631 183.958351
C 107.776571 183.958351 107.3257 184.145107 106.993317 184.47749
C 106.660934 184.809873 106.474177 185.260744 106.474177 185.730804
C 106.474177 186.200865 106.660934 186.651736 106.993317 186.984119
C 107.3257 187.316501 107.776571 187.503258 108.246631 187.503258
z
" style="stroke:#000000;stroke-width:0.886227;"/>
    <path clip-path="url(#p6074ca7222)" d="M 143.645917 138.13183
C 144.115978 138.13183 144.566849 137.945073 144.899231 137.61269
C 145.231614 137.280307 145.418371 136.829436 145.418371 136.359376
C 145.418371 135.889316 145.231614 135.438444 144.899231 135.106062
C 144.566849 134.773679 144.115978 134.586922 143.645917 134.586922
C 143.175857 134.586922 142.724986 134.773679 142.392603 135.106062
C 142.06022 135.438444 141.873463 135.889316 141.873463 136.359376
C 141.873463 136.829436 142.06022 137.280307 142.392603 137.61269
C 142.724986 137.945073 143.175857 138.13183 143.645917 138.13183
z
" style="stroke:#000000;stroke-width:0.886227;"/>
    <path clip-path="url(#p6074ca7222)" d="M 125.049943 162.817544
C 125.520004 162.817544 125.970875 162.630787 126.303258 162.298404
C 126.63564 161.966021 126.822397 161.51515 126.822397 161.04509
C 126.822397 160.57503 126.63564 160.124159 126.303258 159.791776
C 125.970875 159.459393 125.520004 159.272636 125.049943 159.272636
C 124.579883 159.272636 124.129012 159.459393 123.796629 159.791776
C 123.464247 160.124159 123.27749 160.57503 123.27749 161.04509
C 123.27749 161.51515 123.464247 161.966021 123.796629 162.298404
C 124.129012 162.630787 124.579883 162.817544 125.049943 162.817544
z
" style="stroke:#000000;stroke-width:0.886227;"/>
    <path clip-path="url(#p6074ca7222)" d="M 69.565646 261.560401
C 70.035706 261.560401 70.486577 261.373644 70.81896 261.041261
C 71.151342 260.708879 71.338099 260.258008 71.338099 259.787947
C 71.338099 259.317887 71.151342 258.867016 70.81896 258.534633
C 70.486577 258.20225 70.035706 258.015493 69.565646 258.015493
C 69.095585 258.015493 68.644714 258.20225 68.312331 258.534633
C 67.979949 258.867016 67.793192 259.317887 67.793192 259.787947
C 67.793192 260.258008 67.979949 260.708879 68.312331 261.041261
C 68.644714 261.373644 69.095585 261.560401 69.565646 261.560401
z
" style="stroke:#000000;stroke-width:0.886227;"/>
    <path clip-path="url(#p6074ca7222)" d="M 144.657332 133.194687
C 145.127392 133.194687 145.578263 133.00793 145.910646 132.675547
C 146.243029 132.343164 146.429786 131.892293 146.429786 131.422233
C 146.429786 130.952173 146.243029 130.501302 145.910646 130.168919
C 145.578263 129.836536 145.127392 129.649779 144.657332 129.649779
C 144.187272 129.649779 143.7364 129.836536 143.404018 130.168919
C 143.071635 130.501302 142.884878 130.952173 142.884878 131.422233
C 142.884878 131.892293 143.071635 132.343164 143.404018 132.675547
C 143.7364 133.00793 144.187272 133.194687 144.657332 133.194687
z
" style="stroke:#000000;stroke-width:0.886227;"/>
    <path clip-path="url(#p6074ca7222)" d="M 83.173342 236.874687
C 83.643402 236.874687 84.094273 236.68793 84.426656 236.355547
C 84.759038 236.023164 84.945795 235.572293 84.945795 235.102233
C 84.945795 234.632173 84.759038 234.181302 84.426656 233.848919
C 84.094273 233.516536 83.643402 233.329779 83.173342 233.329779
C 82.703281 233.329779 82.25241 233.516536 81.920027 233.848919
C 81.587645 234.181302 81.400888 234.632173 81.400888 235.102233
C 81.400888 235.572293 81.587645 236.023164 81.920027 236.355547
C 82.25241 236.68793 82.703281 236.874687 83.173342 236.874687
z
" style="stroke:#000000;stroke-width:0.886227;"/>
    <path clip-path="url(#p6074ca7222)" d="M 160.200382 118.383258
C 160.670442 118.383258 161.121313 118.196501 161.453696 117.864119
C 161.786079 117.531736 161.972836 117.080865 161.972836 116.610804
C 161.972836 116.140744 161.786079 115.689873 161.453696 115.35749
C 161.121313 115.025107 160.670442 114.838351 160.200382 114.838351
C 159.730322 114.838351 159.279451 115.025107 158.947068 115.35749
C 158.614685 115.689873 158.427928 116.140744 158.427928 116.610804
C 158.427928 117.080865 158.614685 117.531736 158.947068 117.864119
C 159.279451 118.196501 159.730322 118.383258 160.200382 118.383258
z
" style="stroke:#000000;stroke-width:0.886227;"/>
    <path clip-path="url(#p6074ca7222)" d="M 170.184801 113.446115
C 170.654862 113.446115 171.105733 113.259358 171.438116 112.926976
C 171.770498 112.594593 171.957255 112.143722 171.957255 111.673662
C 171.957255 111.203601 171.770498 110.75273 171.438116 110.420347
C 171.105733 110.087965 170.654862 109.901208 170.184801 109.901208
C 169.714741 109.901208 169.26387 110.087965 168.931487 110.420347
C 168.599105 110.75273 168.412348 111.203601 168.412348 111.673662
C 168.412348 112.143722 168.599105 112.594593 168.931487 112.926976
C 169.26387 113.259358 169.714741 113.446115 170.184801 113.446115
z
" style="stroke:#000000;stroke-width:0.886227;"/>
    <path clip-path="url(#p6074ca7222)" d="M 135.018152 152.943258
C 135.488212 152.943258 135.939083 152.756501 136.271466 152.424119
C 136.603849 152.091736 136.790606 151.640865 136.790606 151.170804
C 136.790606 150.700744 136.603849 150.249873 136.271466 149.91749
C 135.939083 149.585107 135.488212 149.398351 135.018152 149.398351
C 134.548092 149.398351 134.097221 149.585107 133.764838 149.91749
C 133.432455 150.249873 133.245698 150.700744 133.245698 151.170804
C 133.245698 151.640865 133.432455 152.091736 133.764838 152.424119
C 134.097221 152.756501 134.548092 152.943258 135.018152 152.943258
z
" style="stroke:#000000;stroke-width:0.886227;"/>
   </g>
   <g id="PathCollection_2">
    <path clip-path="url(#p6074ca7222)" d="M 387.65946 34.45183
C 388.12952 34.45183 388.580392 34.265073 388.912774 33.93269
C 389.245157 33.600307 389.431914 33.149436 389.431914 32.679376
C 389.431914 32.209316 389.245157 31.758444 388.912774 31.426062
C 388.580392 31.093679 388.12952 30.906922 387.65946 30.906922
C 387.1894 30.906922 386.738529 31.093679 386.406146 31.426062
C 386.073763 31.758444 385.887006 32.209316 385.887006 32.679376
C 385.887006 33.149436 386.073763 33.600307 386.406146 33.93269
C 386.738529 34.265073 387.1894 34.45183 387.65946 34.45183
z
" style="fill:#ff0000;stroke:#ff0000;stroke-width:0.886227;"/>
    <path clip-path="url(#p6074ca7222)" d="M 361.33498 44.326115
C 361.80504 44.326115 362.255911 44.139358 362.588294 43.806976
C 362.920677 43.474593 363.107434 43.023722 363.107434 42.553662
C 363.107434 42.083601 362.920677 41.63273 362.588294 41.300347
C 362.255911 40.967965 361.80504 40.781208 361.33498 40.781208
C 360.86492 40.781208 360.414049 40.967965 360.081666 41.300347
C 359.749283 41.63273 359.562526 42.083601 359.562526 42.553662
C 359.562526 43.023722 359.749283 43.474593 360.081666 43.806976
C 360.414049 44.139358 360.86492 44.326115 361.33498 44.326115
z
" style="fill:#ff0000;stroke:#ff0000;stroke-width:0.886227;"/>
    <path clip-path="url(#p6074ca7222)" d="M 383.298722 39.388973
C 383.768782 39.388973 384.219653 39.202216 384.552036 38.869833
C 384.884419 38.53745 385.071176 38.086579 385.071176 37.616519
C 385.071176 37.146458 384.884419 36.695587 384.552036 36.363205
C 384.219653 36.030822 383.768782 35.844065 383.298722 35.844065
C 382.828661 35.844065 382.37779 36.030822 382.045408 36.363205
C 381.713025 36.695587 381.526268 37.146458 381.526268 37.616519
C 381.526268 38.086579 381.713025 38.53745 382.045408 38.869833
C 382.37779 39.202216 382.828661 39.388973 383.298722 39.388973
z
" style="fill:#ff0000;stroke:#ff0000;stroke-width:0.886227;"/>
    <path clip-path="url(#p6074ca7222)" d="M 317.141227 49.263258
C 317.611287 49.263258 318.062158 49.076501 318.394541 48.744119
C 318.726923 48.411736 318.91368 47.960865 318.91368 47.490804
C 318.91368 47.020744 318.726923 46.569873 318.394541 46.23749
C 318.062158 45.905107 317.611287 45.718351 317.141227 45.718351
C 316.671166 45.718351 316.220295 45.905107 315.887912 46.23749
C 315.55553 46.569873 315.368773 47.020744 315.368773 47.490804
C 315.368773 47.960865 315.55553 48.411736 315.887912 48.744119
C 316.220295 49.076501 316.671166 49.263258 317.141227 49.263258
z
" style="fill:#ff0000;stroke:#ff0000;stroke-width:0.886227;"/>
    <path clip-path="url(#p6074ca7222)" d="M 297.369771 54.200401
C 297.839831 54.200401 298.290702 54.013644 298.623085 53.681261
C 298.955467 53.348879 299.142224 52.898008 299.142224 52.427947
C 299.142224 51.957887 298.955467 51.507016 298.623085 51.174633
C 298.290702 50.84225 297.839831 50.655493 297.369771 50.655493
C 296.89971 50.655493 296.448839 50.84225 296.116456 51.174633
C 295.784074 51.507016 295.597317 51.957887 295.597317 52.427947
C 295.597317 52.898008 295.784074 53.348879 296.116456 53.681261
C 296.448839 54.013644 296.89971 54.200401 297.369771 54.200401
z
" style="fill:#ff0000;stroke:#ff0000;stroke-width:0.886227;"/>
   </g>
   <g id="text_13">
    <g clip-path="url(#p6074ca7222)">
     <!-- HALLMARK_MYC_TARGETS_V1 -->
     <defs>
      <path d="M 9.8125 72.90625
L 19.671875 72.90625
L 19.671875 43.015625
L 55.515625 43.015625
L 55.515625 72.90625
L 65.375 72.90625
L 65.375 0
L 55.515625 0
L 55.515625 34.71875
L 19.671875 34.71875
L 19.671875 0
L 9.8125 0
z
" id="DejaVuSans-72"/>
      <path d="M 34.1875 63.1875
L 20.796875 26.90625
L 47.609375 26.90625
z
M 28.609375 72.90625
L 39.796875 72.90625
L 67.578125 0
L 57.328125 0
L 50.6875 18.703125
L 17.828125 18.703125
L 11.1875 0
L 0.78125 0
z
" id="DejaVuSans-65"/>
      <path d="M 9.8125 72.90625
L 19.671875 72.90625
L 19.671875 8.296875
L 55.171875 8.296875
L 55.171875 0
L 9.8125 0
z
" id="DejaVuSans-76"/>
      <path d="M 44.390625 34.1875
Q 47.5625 33.109375 50.5625 29.59375
Q 53.5625 26.078125 56.59375 19.921875
L 66.609375 0
L 56 0
L 46.6875 18.703125
Q 43.0625 26.03125 39.671875 28.421875
Q 36.28125 30.8125 30.421875 30.8125
L 19.671875 30.8125
L 19.671875 0
L 9.8125 0
L 9.8125 72.90625
L 32.078125 72.90625
Q 44.578125 72.90625 50.734375 67.671875
Q 56.890625 62.453125 56.890625 51.90625
Q 56.890625 45.015625 53.6875 40.46875
Q 50.484375 35.9375 44.390625 34.1875
z
M 19.671875 64.796875
L 19.671875 38.921875
L 32.078125 38.921875
Q 39.203125 38.921875 42.84375 42.21875
Q 46.484375 45.515625 46.484375 51.90625
Q 46.484375 58.296875 42.84375 61.546875
Q 39.203125 64.796875 32.078125 64.796875
z
" id="DejaVuSans-82"/>
      <path d="M 9.8125 72.90625
L 19.671875 72.90625
L 19.671875 42.09375
L 52.390625 72.90625
L 65.09375 72.90625
L 28.90625 38.921875
L 67.671875 0
L 54.6875 0
L 19.671875 35.109375
L 19.671875 0
L 9.8125 0
z
" id="DejaVuSans-75"/>
      <path d="M 50.984375 -16.609375
L 50.984375 -23.578125
L -0.984375 -23.578125
L -0.984375 -16.609375
z
" id="DejaVuSans-95"/>
      <path d="M -0.203125 72.90625
L 10.40625 72.90625
L 30.609375 42.921875
L 50.6875 72.90625
L 61.28125 72.90625
L 35.5 34.71875
L 35.5 0
L 25.59375 0
L 25.59375 34.71875
z
" id="DejaVuSans-89"/>
      <path d="M 64.40625 67.28125
L 64.40625 56.890625
Q 59.421875 61.53125 53.78125 63.8125
Q 48.140625 66.109375 41.796875 66.109375
Q 29.296875 66.109375 22.65625 58.46875
Q 16.015625 50.828125 16.015625 36.375
Q 16.015625 21.96875 22.65625 14.328125
Q 29.296875 6.6875 41.796875 6.6875
Q 48.140625 6.6875 53.78125 8.984375
Q 59.421875 11.28125 64.40625 15.921875
L 64.40625 5.609375
Q 59.234375 2.09375 53.4375 0.328125
Q 47.65625 -1.421875 41.21875 -1.421875
Q 24.65625 -1.421875 15.125 8.703125
Q 5.609375 18.84375 5.609375 36.375
Q 5.609375 53.953125 15.125 64.078125
Q 24.65625 74.21875 41.21875 74.21875
Q 47.75 74.21875 53.53125 72.484375
Q 59.328125 70.75 64.40625 67.28125
z
" id="DejaVuSans-67"/>
      <path d="M -0.296875 72.90625
L 61.375 72.90625
L 61.375 64.59375
L 35.5 64.59375
L 35.5 0
L 25.59375 0
L 25.59375 64.59375
L -0.296875 64.59375
z
" id="DejaVuSans-84"/>
      <path d="M 53.515625 70.515625
L 53.515625 60.890625
Q 47.90625 63.578125 42.921875 64.890625
Q 37.9375 66.21875 33.296875 66.21875
Q 25.25 66.21875 20.875 63.09375
Q 16.5 59.96875 16.5 54.203125
Q 16.5 49.359375 19.40625 46.890625
Q 22.3125 44.4375 30.421875 42.921875
L 36.375 41.703125
Q 47.40625 39.59375 52.65625 34.296875
Q 57.90625 29 57.90625 20.125
Q 57.90625 9.515625 50.796875 4.046875
Q 43.703125 -1.421875 29.984375 -1.421875
Q 24.8125 -1.421875 18.96875 -0.25
Q 13.140625 0.921875 6.890625 3.21875
L 6.890625 13.375
Q 12.890625 10.015625 18.65625 8.296875
Q 24.421875 6.59375 29.984375 6.59375
Q 38.421875 6.59375 43.015625 9.90625
Q 47.609375 13.234375 47.609375 19.390625
Q 47.609375 24.75 44.3125 27.78125
Q 41.015625 30.8125 33.5 32.328125
L 27.484375 33.5
Q 16.453125 35.6875 11.515625 40.375
Q 6.59375 45.0625 6.59375 53.421875
Q 6.59375 63.09375 13.40625 68.65625
Q 20.21875 74.21875 32.171875 74.21875
Q 37.3125 74.21875 42.625 73.28125
Q 47.953125 72.359375 53.515625 70.515625
z
" id="DejaVuSans-83"/>
      <path d="M 28.609375 0
L 0.78125 72.90625
L 11.078125 72.90625
L 34.1875 11.53125
L 57.328125 72.90625
L 67.578125 72.90625
L 39.796875 0
z
" id="DejaVuSans-86"/>
     </defs>
     <g transform="translate(387.65946 36.390313)scale(0.05 -0.05)">
      <use xlink:href="#DejaVuSans-72"/>
      <use x="75.195312" xlink:href="#DejaVuSans-65"/>
      <use x="143.603516" xlink:href="#DejaVuSans-76"/>
      <use x="199.316406" xlink:href="#DejaVuSans-76"/>
      <use x="255.029297" xlink:href="#DejaVuSans-77"/>
      <use x="341.308594" xlink:href="#DejaVuSans-65"/>
      <use x="409.716797" xlink:href="#DejaVuSans-82"/>
      <use x="479.199219" xlink:href="#DejaVuSans-75"/>
      <use x="544.775391" xlink:href="#DejaVuSans-95"/>
      <use x="594.775391" xlink:href="#DejaVuSans-77"/>
      <use x="681.054688" xlink:href="#DejaVuSans-89"/>
      <use x="742.060547" xlink:href="#DejaVuSans-67"/>
      <use x="811.884766" xlink:href="#DejaVuSans-95"/>
      <use x="861.884766" xlink:href="#DejaVuSans-84"/>
      <use x="922.859375" xlink:href="#DejaVuSans-65"/>
      <use x="991.267578" xlink:href="#DejaVuSans-82"/>
      <use x="1060.75" xlink:href="#DejaVuSans-71"/>
      <use x="1138.240234" xlink:href="#DejaVuSans-69"/>
      <use x="1201.423828" xlink:href="#DejaVuSans-84"/>
      <use x="1262.507812" xlink:href="#DejaVuSans-83"/>
      <use x="1325.984375" xlink:href="#DejaVuSans-95"/>
      <use x="1375.984375" xlink:href="#DejaVuSans-86"/>
      <use x="1444.392578" xlink:href="#DejaVuSans-49"/>
     </g>
    </g>
   </g>
   <g id="text_14">
    <g clip-path="url(#p6074ca7222)">
     <!-- HALLMARK_MYC_TARGETS_V2 -->
     <g transform="translate(361.33498 46.264599)scale(0.05 -0.05)">
      <use xlink:href="#DejaVuSans-72"/>
      <use x="75.195312" xlink:href="#DejaVuSans-65"/>
      <use x="143.603516" xlink:href="#DejaVuSans-76"/>
      <use x="199.316406" xlink:href="#DejaVuSans-76"/>
      <use x="255.029297" xlink:href="#DejaVuSans-77"/>
      <use x="341.308594" xlink:href="#DejaVuSans-65"/>
      <use x="409.716797" xlink:href="#DejaVuSans-82"/>
      <use x="479.199219" xlink:href="#DejaVuSans-75"/>
      <use x="544.775391" xlink:href="#DejaVuSans-95"/>
      <use x="594.775391" xlink:href="#DejaVuSans-77"/>
      <use x="681.054688" xlink:href="#DejaVuSans-89"/>
      <use x="742.060547" xlink:href="#DejaVuSans-67"/>
      <use x="811.884766" xlink:href="#DejaVuSans-95"/>
      <use x="861.884766" xlink:href="#DejaVuSans-84"/>
      <use x="922.859375" xlink:href="#DejaVuSans-65"/>
      <use x="991.267578" xlink:href="#DejaVuSans-82"/>
      <use x="1060.75" xlink:href="#DejaVuSans-71"/>
      <use x="1138.240234" xlink:href="#DejaVuSans-69"/>
      <use x="1201.423828" xlink:href="#DejaVuSans-84"/>
      <use x="1262.507812" xlink:href="#DejaVuSans-83"/>
      <use x="1325.984375" xlink:href="#DejaVuSans-95"/>
      <use x="1375.984375" xlink:href="#DejaVuSans-86"/>
      <use x="1444.392578" xlink:href="#DejaVuSans-50"/>
     </g>
    </g>
   </g>
   <g id="text_15">
    <g clip-path="url(#p6074ca7222)">
     <!-- HALLMARK_E2F_TARGETS -->
     <defs>
      <path d="M 9.8125 72.90625
L 51.703125 72.90625
L 51.703125 64.59375
L 19.671875 64.59375
L 19.671875 43.109375
L 48.578125 43.109375
L 48.578125 34.8125
L 19.671875 34.8125
L 19.671875 0
L 9.8125 0
z
" id="DejaVuSans-70"/>
     </defs>
     <g transform="translate(383.298722 41.327456)scale(0.05 -0.05)">
      <use xlink:href="#DejaVuSans-72"/>
      <use x="75.195312" xlink:href="#DejaVuSans-65"/>
      <use x="143.603516" xlink:href="#DejaVuSans-76"/>
      <use x="199.316406" xlink:href="#DejaVuSans-76"/>
      <use x="255.029297" xlink:href="#DejaVuSans-77"/>
      <use x="341.308594" xlink:href="#DejaVuSans-65"/>
      <use x="409.716797" xlink:href="#DejaVuSans-82"/>
      <use x="479.199219" xlink:href="#DejaVuSans-75"/>
      <use x="544.775391" xlink:href="#DejaVuSans-95"/>
      <use x="594.775391" xlink:href="#DejaVuSans-69"/>
      <use x="657.958984" xlink:href="#DejaVuSans-50"/>
      <use x="721.582031" xlink:href="#DejaVuSans-70"/>
      <use x="779.101562" xlink:href="#DejaVuSans-95"/>
      <use x="829.101562" xlink:href="#DejaVuSans-84"/>
      <use x="890.076172" xlink:href="#DejaVuSans-65"/>
      <use x="958.484375" xlink:href="#DejaVuSans-82"/>
      <use x="1027.966797" xlink:href="#DejaVuSans-71"/>
      <use x="1105.457031" xlink:href="#DejaVuSans-69"/>
      <use x="1168.640625" xlink:href="#DejaVuSans-84"/>
      <use x="1229.724609" xlink:href="#DejaVuSans-83"/>
     </g>
    </g>
   </g>
   <g id="text_16">
    <g clip-path="url(#p6074ca7222)">
     <!-- HALLMARK_G2M_CHECKPOINT -->
     <defs>
      <path d="M 19.671875 64.796875
L 19.671875 37.40625
L 32.078125 37.40625
Q 38.96875 37.40625 42.71875 40.96875
Q 46.484375 44.53125 46.484375 51.125
Q 46.484375 57.671875 42.71875 61.234375
Q 38.96875 64.796875 32.078125 64.796875
z
M 9.8125 72.90625
L 32.078125 72.90625
Q 44.34375 72.90625 50.609375 67.359375
Q 56.890625 61.8125 56.890625 51.125
Q 56.890625 40.328125 50.609375 34.8125
Q 44.34375 29.296875 32.078125 29.296875
L 19.671875 29.296875
L 19.671875 0
L 9.8125 0
z
" id="DejaVuSans-80"/>
      <path d="M 39.40625 66.21875
Q 28.65625 66.21875 22.328125 58.203125
Q 16.015625 50.203125 16.015625 36.375
Q 16.015625 22.609375 22.328125 14.59375
Q 28.65625 6.59375 39.40625 6.59375
Q 50.140625 6.59375 56.421875 14.59375
Q 62.703125 22.609375 62.703125 36.375
Q 62.703125 50.203125 56.421875 58.203125
Q 50.140625 66.21875 39.40625 66.21875
z
M 39.40625 74.21875
Q 54.734375 74.21875 63.90625 63.9375
Q 73.09375 53.65625 73.09375 36.375
Q 73.09375 19.140625 63.90625 8.859375
Q 54.734375 -1.421875 39.40625 -1.421875
Q 24.03125 -1.421875 14.8125 8.828125
Q 5.609375 19.09375 5.609375 36.375
Q 5.609375 53.65625 14.8125 63.9375
Q 24.03125 74.21875 39.40625 74.21875
z
" id="DejaVuSans-79"/>
      <path d="M 9.8125 72.90625
L 19.671875 72.90625
L 19.671875 0
L 9.8125 0
z
" id="DejaVuSans-73"/>
      <path d="M 9.8125 72.90625
L 23.09375 72.90625
L 55.421875 11.921875
L 55.421875 72.90625
L 64.984375 72.90625
L 64.984375 0
L 51.703125 0
L 19.390625 60.984375
L 19.390625 0
L 9.8125 0
z
" id="DejaVuSans-78"/>
     </defs>
     <g transform="translate(317.141227 51.201742)scale(0.05 -0.05)">
      <use xlink:href="#DejaVuSans-72"/>
      <use x="75.195312" xlink:href="#DejaVuSans-65"/>
      <use x="143.603516" xlink:href="#DejaVuSans-76"/>
      <use x="199.316406" xlink:href="#DejaVuSans-76"/>
      <use x="255.029297" xlink:href="#DejaVuSans-77"/>
      <use x="341.308594" xlink:href="#DejaVuSans-65"/>
      <use x="409.716797" xlink:href="#DejaVuSans-82"/>
      <use x="479.199219" xlink:href="#DejaVuSans-75"/>
      <use x="544.775391" xlink:href="#DejaVuSans-95"/>
      <use x="594.775391" xlink:href="#DejaVuSans-71"/>
      <use x="672.265625" xlink:href="#DejaVuSans-50"/>
      <use x="735.888672" xlink:href="#DejaVuSans-77"/>
      <use x="822.167969" xlink:href="#DejaVuSans-95"/>
      <use x="872.167969" xlink:href="#DejaVuSans-67"/>
      <use x="941.992188" xlink:href="#DejaVuSans-72"/>
      <use x="1017.1875" xlink:href="#DejaVuSans-69"/>
      <use x="1080.371094" xlink:href="#DejaVuSans-67"/>
      <use x="1150.195312" xlink:href="#DejaVuSans-75"/>
      <use x="1215.771484" xlink:href="#DejaVuSans-80"/>
      <use x="1276.074219" xlink:href="#DejaVuSans-79"/>
      <use x="1354.785156" xlink:href="#DejaVuSans-73"/>
      <use x="1384.277344" xlink:href="#DejaVuSans-78"/>
      <use x="1459.082031" xlink:href="#DejaVuSans-84"/>
     </g>
    </g>
   </g>
   <g id="text_17">
    <g clip-path="url(#p6074ca7222)">
     <!-- HALLMARK_DNA_REPAIR -->
     <defs>
      <path d="M 19.671875 64.796875
L 19.671875 8.109375
L 31.59375 8.109375
Q 46.6875 8.109375 53.6875 14.9375
Q 60.6875 21.78125 60.6875 36.53125
Q 60.6875 51.171875 53.6875 57.984375
Q 46.6875 64.796875 31.59375 64.796875
z
M 9.8125 72.90625
L 30.078125 72.90625
Q 51.265625 72.90625 61.171875 64.09375
Q 71.09375 55.28125 71.09375 36.53125
Q 71.09375 17.671875 61.125 8.828125
Q 51.171875 0 30.078125 0
L 9.8125 0
z
" id="DejaVuSans-68"/>
     </defs>
     <g transform="translate(297.369771 56.088103)scale(0.05 -0.05)">
      <use xlink:href="#DejaVuSans-72"/>
      <use x="75.195312" xlink:href="#DejaVuSans-65"/>
      <use x="143.603516" xlink:href="#DejaVuSans-76"/>
      <use x="199.316406" xlink:href="#DejaVuSans-76"/>
      <use x="255.029297" xlink:href="#DejaVuSans-77"/>
      <use x="341.308594" xlink:href="#DejaVuSans-65"/>
      <use x="409.716797" xlink:href="#DejaVuSans-82"/>
      <use x="479.199219" xlink:href="#DejaVuSans-75"/>
      <use x="544.775391" xlink:href="#DejaVuSans-95"/>
      <use x="594.775391" xlink:href="#DejaVuSans-68"/>
      <use x="671.777344" xlink:href="#DejaVuSans-78"/>
      <use x="746.582031" xlink:href="#DejaVuSans-65"/>
      <use x="814.990234" xlink:href="#DejaVuSans-95"/>
      <use x="864.990234" xlink:href="#DejaVuSans-82"/>
      <use x="934.472656" xlink:href="#DejaVuSans-69"/>
      <use x="997.65625" xlink:href="#DejaVuSans-80"/>
      <use x="1057.865234" xlink:href="#DejaVuSans-65"/>
      <use x="1126.273438" xlink:href="#DejaVuSans-73"/>
      <use x="1155.765625" xlink:href="#DejaVuSans-82"/>
     </g>
    </g>
   </g>
  </g>
  <g id="text_18">
   <!-- GSVA pathway statistics vs ranking -->
   <defs>
    <path d="M 4.203125 54.6875
L 13.1875 54.6875
L 24.421875 12.015625
L 35.59375 54.6875
L 46.1875 54.6875
L 57.421875 12.015625
L 68.609375 54.6875
L 77.59375 54.6875
L 63.28125 0
L 52.6875 0
L 40.921875 44.828125
L 29.109375 0
L 18.5 0
z
" id="DejaVuSans-119"/>
    <path d="M 32.171875 -5.078125
Q 28.375 -14.84375 24.75 -17.8125
Q 21.140625 -20.796875 15.09375 -20.796875
L 7.90625 -20.796875
L 7.90625 -13.28125
L 13.1875 -13.28125
Q 16.890625 -13.28125 18.9375 -11.515625
Q 21 -9.765625 23.484375 -3.21875
L 25.09375 0.875
L 2.984375 54.6875
L 12.5 54.6875
L 29.59375 11.921875
L 46.6875 54.6875
L 56.203125 54.6875
z
" id="DejaVuSans-121"/>
    <path d="M 2.984375 54.6875
L 12.5 54.6875
L 29.59375 8.796875
L 46.6875 54.6875
L 56.203125 54.6875
L 35.6875 0
L 23.484375 0
z
" id="DejaVuSans-118"/>
   </defs>
   <g transform="translate(86.843281 11.397656)scale(0.15 -0.15)">
    <use xlink:href="#DejaVuSans-71"/>
    <use x="77.490234" xlink:href="#DejaVuSans-83"/>
    <use x="140.966797" xlink:href="#DejaVuSans-86"/>
    <use x="209.28125" xlink:href="#DejaVuSans-65"/>
    <use x="277.689453" xlink:href="#DejaVuSans-32"/>
    <use x="309.476562" xlink:href="#DejaVuSans-112"/>
    <use x="372.953125" xlink:href="#DejaVuSans-97"/>
    <use x="434.232422" xlink:href="#DejaVuSans-116"/>
    <use x="473.441406" xlink:href="#DejaVuSans-104"/>
    <use x="536.820312" xlink:href="#DejaVuSans-119"/>
    <use x="618.607422" xlink:href="#DejaVuSans-97"/>
    <use x="679.886719" xlink:href="#DejaVuSans-121"/>
    <use x="739.066406" xlink:href="#DejaVuSans-32"/>
    <use x="770.853516" xlink:href="#DejaVuSans-115"/>
    <use x="822.953125" xlink:href="#DejaVuSans-116"/>
    <use x="862.162109" xlink:href="#DejaVuSans-97"/>
    <use x="923.441406" xlink:href="#DejaVuSans-116"/>
    <use x="962.650391" xlink:href="#DejaVuSans-105"/>
    <use x="990.433594" xlink:href="#DejaVuSans-115"/>
    <use x="1042.533203" xlink:href="#DejaVuSans-116"/>
    <use x="1081.742188" xlink:href="#DejaVuSans-105"/>
    <use x="1109.525391" xlink:href="#DejaVuSans-99"/>
    <use x="1164.505859" xlink:href="#DejaVuSans-115"/>
    <use x="1216.605469" xlink:href="#DejaVuSans-32"/>
    <use x="1248.392578" xlink:href="#DejaVuSans-118"/>
    <use x="1307.572266" xlink:href="#DejaVuSans-115"/>
    <use x="1359.671875" xlink:href="#DejaVuSans-32"/>
    <use x="1391.458984" xlink:href="#DejaVuSans-114"/>
    <use x="1432.572266" xlink:href="#DejaVuSans-97"/>
    <use x="1493.851562" xlink:href="#DejaVuSans-110"/>
    <use x="1557.230469" xlink:href="#DejaVuSans-107"/>
    <use x="1615.140625" xlink:href="#DejaVuSans-105"/>
    <use x="1642.923828" xlink:href="#DejaVuSans-110"/>
    <use x="1706.302734" xlink:href="#DejaVuSans-103"/>
   </g>
  </g>
 </g>
 <defs>
  <clipPath id="p6074ca7222">
   <rect height="266.112" width="357.12" x="46.772188" y="20.583376"/>
  </clipPath>
 </defs>
</svg>
