<?xml version="1.0" encoding="utf-8" standalone="no"?>
<!DOCTYPE svg PUBLIC "-//W3C//DTD SVG 1.1//EN"
  "http://www.w3.org/Graphics/SVG/1.1/DTD/svg11.dtd">
<!-- Created with matplotlib (https://matplotlib.org/) -->
<svg height="332.015328pt" version="1.1" viewBox="0 0 406.642188 332.015328" width="406.642188pt" xmlns="http://www.w3.org/2000/svg" xmlns:xlink="http://www.w3.org/1999/xlink">
 <defs>
  <style type="text/css">
*{stroke-linecap:butt;stroke-linejoin:round;}
  </style>
 </defs>
 <g id="figure_1">
  <g id="patch_1">
   <path d="M 0 332.015328
L 406.642188 332.015328
L 406.642188 0
L 0 0
z
" style="fill:#ffffff;stroke:#ffffff;stroke-linejoin:miter;"/>
  </g>
  <g id="axes_1">
   <g id="patch_2">
    <path d="M 46.772188 296.534391
L 403.892188 296.534391
L 403.892188 30.422391
L 46.772188 30.422391
z
" style="fill:none;"/>
   </g>
   <g id="matplotlib.axis_1">
    <g id="xtick_1">
     <g id="line2d_1">
      <path clip-path="url(#pedaabcdc52)" d="M 94.181957 296.534391
L 94.181957 30.422391
" style="fill:none;stroke:#e5e5e5;stroke-width:0.8;"/>
     </g>
     <g id="line2d_2">
      <path d="M 94.181957 296.534391
" style="fill:none;stroke:#000000;stroke-width:1.5;"/>
      <defs>
       <path d="M 0 0
L 0 2.75
" id="mf005f12426" style="stroke:#000000;"/>
      </defs>
      <g>
       <use style="stroke:#000000;" x="94.181957" xlink:href="#mf005f12426" y="296.534391"/>
      </g>
     </g>
     <g id="text_1">
      <!-- 0.04 -->
      <defs>
       <path d="M 31.78125 66.40625
Q 24.171875 66.40625 20.328125 58.90625
Q 16.5 51.421875 16.5 36.375
Q 16.5 21.390625 20.328125 13.890625
Q 24.171875 6.390625 31.78125 6.390625
Q 39.453125 6.390625 43.28125 13.890625
Q 47.125 21.390625 47.125 36.375
Q 47.125 51.421875 43.28125 58.90625
Q 39.453125 66.40625 31.78125 66.40625
z
M 31.78125 74.21875
Q 44.046875 74.21875 50.515625 64.515625
Q 56.984375 54.828125 56.984375 36.375
Q 56.984375 17.96875 50.515625 8.265625
Q 44.046875 -1.421875 31.78125 -1.421875
Q 19.53125 -1.421875 13.0625 8.265625
Q 6.59375 17.96875 6.59375 36.375
Q 6.59375 54.828125 13.0625 64.515625
Q 19.53125 74.21875 31.78125 74.21875
z
" id="DejaVuSans-48"/>
       <path d="M 10.6875 12.40625
L 21 12.40625
L 21 0
L 10.6875 0
z
" id="DejaVuSans-46"/>
       <path d="M 37.796875 64.3125
L 12.890625 25.390625
L 37.796875 25.390625
z
M 35.203125 72.90625
L 47.609375 72.90625
L 47.609375 25.390625
L 58.015625 25.390625
L 58.015625 17.1875
L 47.609375 17.1875
L 47.609375 0
L 37.796875 0
L 37.796875 17.1875
L 4.890625 17.1875
L 4.890625 26.703125
z
" id="DejaVuSans-52"/>
      </defs>
      <g style="fill:#4d4d4d;" transform="translate(80.822582 310.602516)scale(0.12 -0.12)">
       <use xlink:href="#DejaVuSans-48"/>
       <use x="63.623047" xlink:href="#DejaVuSans-46"/>
       <use x="95.410156" xlink:href="#DejaVuSans-48"/>
       <use x="159.033203" xlink:href="#DejaVuSans-52"/>
      </g>
     </g>
    </g>
    <g id="xtick_2">
     <g id="line2d_3">
      <path clip-path="url(#pedaabcdc52)" d="M 189.134713 296.534391
L 189.134713 30.422391
" style="fill:none;stroke:#e5e5e5;stroke-width:0.8;"/>
     </g>
     <g id="line2d_4">
      <path d="M 189.134713 296.534391
" style="fill:none;stroke:#000000;stroke-width:1.5;"/>
      <g>
       <use style="stroke:#000000;" x="189.134713" xlink:href="#mf005f12426" y="296.534391"/>
      </g>
     </g>
     <g id="text_2">
      <!-- 0.08 -->
      <defs>
       <path d="M 31.78125 34.625
Q 24.75 34.625 20.71875 30.859375
Q 16.703125 27.09375 16.703125 20.515625
Q 16.703125 13.921875 20.71875 10.15625
Q 24.75 6.390625 31.78125 6.390625
Q 38.8125 6.390625 42.859375 10.171875
Q 46.921875 13.96875 46.921875 20.515625
Q 46.921875 27.09375 42.890625 30.859375
Q 38.875 34.625 31.78125 34.625
z
M 21.921875 38.8125
Q 15.578125 40.375 12.03125 44.71875
Q 8.5 49.078125 8.5 55.328125
Q 8.5 64.0625 14.71875 69.140625
Q 20.953125 74.21875 31.78125 74.21875
Q 42.671875 74.21875 48.875 69.140625
Q 55.078125 64.0625 55.078125 55.328125
Q 55.078125 49.078125 51.53125 44.71875
Q 48 40.375 41.703125 38.8125
Q 48.828125 37.15625 52.796875 32.3125
Q 56.78125 27.484375 56.78125 20.515625
Q 56.78125 9.90625 50.3125 4.234375
Q 43.84375 -1.421875 31.78125 -1.421875
Q 19.734375 -1.421875 13.25 4.234375
Q 6.78125 9.90625 6.78125 20.515625
Q 6.78125 27.484375 10.78125 32.3125
Q 14.796875 37.15625 21.921875 38.8125
z
M 18.3125 54.390625
Q 18.3125 48.734375 21.84375 45.5625
Q 25.390625 42.390625 31.78125 42.390625
Q 38.140625 42.390625 41.71875 45.5625
Q 45.3125 48.734375 45.3125 54.390625
Q 45.3125 60.0625 41.71875 63.234375
Q 38.140625 66.40625 31.78125 66.40625
Q 25.390625 66.40625 21.84375 63.234375
Q 18.3125 60.0625 18.3125 54.390625
z
" id="DejaVuSans-56"/>
      </defs>
      <g style="fill:#4d4d4d;" transform="translate(175.775338 310.602516)scale(0.12 -0.12)">
       <use xlink:href="#DejaVuSans-48"/>
       <use x="63.623047" xlink:href="#DejaVuSans-46"/>
       <use x="95.410156" xlink:href="#DejaVuSans-48"/>
       <use x="159.033203" xlink:href="#DejaVuSans-56"/>
      </g>
     </g>
    </g>
    <g id="xtick_3">
     <g id="line2d_5">
      <path clip-path="url(#pedaabcdc52)" d="M 284.087469 296.534391
L 284.087469 30.422391
" style="fill:none;stroke:#e5e5e5;stroke-width:0.8;"/>
     </g>
     <g id="line2d_6">
      <path d="M 284.087469 296.534391
" style="fill:none;stroke:#000000;stroke-width:1.5;"/>
      <g>
       <use style="stroke:#000000;" x="284.087469" xlink:href="#mf005f12426" y="296.534391"/>
      </g>
     </g>
     <g id="text_3">
      <!-- 0.12 -->
      <defs>
       <path d="M 12.40625 8.296875
L 28.515625 8.296875
L 28.515625 63.921875
L 10.984375 60.40625
L 10.984375 69.390625
L 28.421875 72.90625
L 38.28125 72.90625
L 38.28125 8.296875
L 54.390625 8.296875
L 54.390625 0
L 12.40625 0
z
" id="DejaVuSans-49"/>
       <path d="M 19.1875 8.296875
L 53.609375 8.296875
L 53.609375 0
L 7.328125 0
L 7.328125 8.296875
Q 12.9375 14.109375 22.625 23.890625
Q 32.328125 33.6875 34.8125 36.53125
Q 39.546875 41.84375 41.421875 45.53125
Q 43.3125 49.21875 43.3125 52.78125
Q 43.3125 58.59375 39.234375 62.25
Q 35.15625 65.921875 28.609375 65.921875
Q 23.96875 65.921875 18.8125 64.3125
Q 13.671875 62.703125 7.8125 59.421875
L 7.8125 69.390625
Q 13.765625 71.78125 18.9375 73
Q 24.125 74.21875 28.421875 74.21875
Q 39.75 74.21875 46.484375 68.546875
Q 53.21875 62.890625 53.21875 53.421875
Q 53.21875 48.921875 51.53125 44.890625
Q 49.859375 40.875 45.40625 35.40625
Q 44.1875 33.984375 37.640625 27.21875
Q 31.109375 20.453125 19.1875 8.296875
z
" id="DejaVuSans-50"/>
      </defs>
      <g style="fill:#4d4d4d;" transform="translate(270.728094 310.602516)scale(0.12 -0.12)">
       <use xlink:href="#DejaVuSans-48"/>
       <use x="63.623047" xlink:href="#DejaVuSans-46"/>
       <use x="95.410156" xlink:href="#DejaVuSans-49"/>
       <use x="159.033203" xlink:href="#DejaVuSans-50"/>
      </g>
     </g>
    </g>
    <g id="xtick_4">
     <g id="line2d_7">
      <path clip-path="url(#pedaabcdc52)" d="M 379.040225 296.534391
L 379.040225 30.422391
" style="fill:none;stroke:#e5e5e5;stroke-width:0.8;"/>
     </g>
     <g id="line2d_8">
      <path d="M 379.040225 296.534391
" style="fill:none;stroke:#000000;stroke-width:1.5;"/>
      <g>
       <use style="stroke:#000000;" x="379.040225" xlink:href="#mf005f12426" y="296.534391"/>
      </g>
     </g>
     <g id="text_4">
      <!-- 0.16 -->
      <defs>
       <path d="M 33.015625 40.375
Q 26.375 40.375 22.484375 35.828125
Q 18.609375 31.296875 18.609375 23.390625
Q 18.609375 15.53125 22.484375 10.953125
Q 26.375 6.390625 33.015625 6.390625
Q 39.65625 6.390625 43.53125 10.953125
Q 47.40625 15.53125 47.40625 23.390625
Q 47.40625 31.296875 43.53125 35.828125
Q 39.65625 40.375 33.015625 40.375
z
M 52.59375 71.296875
L 52.59375 62.3125
Q 48.875 64.0625 45.09375 64.984375
Q 41.3125 65.921875 37.59375 65.921875
Q 27.828125 65.921875 22.671875 59.328125
Q 17.53125 52.734375 16.796875 39.40625
Q 19.671875 43.65625 24.015625 45.921875
Q 28.375 48.1875 33.59375 48.1875
Q 44.578125 48.1875 50.953125 41.515625
Q 57.328125 34.859375 57.328125 23.390625
Q 57.328125 12.15625 50.6875 5.359375
Q 44.046875 -1.421875 33.015625 -1.421875
Q 20.359375 -1.421875 13.671875 8.265625
Q 6.984375 17.96875 6.984375 36.375
Q 6.984375 53.65625 15.1875 63.9375
Q 23.390625 74.21875 37.203125 74.21875
Q 40.921875 74.21875 44.703125 73.484375
Q 48.484375 72.75 52.59375 71.296875
z
" id="DejaVuSans-54"/>
      </defs>
      <g style="fill:#4d4d4d;" transform="translate(365.68085 310.602516)scale(0.12 -0.12)">
       <use xlink:href="#DejaVuSans-48"/>
       <use x="63.623047" xlink:href="#DejaVuSans-46"/>
       <use x="95.410156" xlink:href="#DejaVuSans-49"/>
       <use x="159.033203" xlink:href="#DejaVuSans-54"/>
      </g>
     </g>
    </g>
    <g id="xtick_5">
     <g id="line2d_9">
      <path clip-path="url(#pedaabcdc52)" d="M 141.658335 296.534391
L 141.658335 30.422391
" style="fill:none;stroke:#fafafa;"/>
     </g>
     <g id="line2d_10">
      <path d="M 141.658335 296.534391
" style="fill:none;stroke:#000000;stroke-width:1.5;"/>
     </g>
    </g>
    <g id="xtick_6">
     <g id="line2d_11">
      <path clip-path="url(#pedaabcdc52)" d="M 236.611091 296.534391
L 236.611091 30.422391
" style="fill:none;stroke:#fafafa;"/>
     </g>
     <g id="line2d_12">
      <path d="M 236.611091 296.534391
" style="fill:none;stroke:#000000;stroke-width:1.5;"/>
     </g>
    </g>
    <g id="xtick_7">
     <g id="line2d_13">
      <path clip-path="url(#pedaabcdc52)" d="M 331.563847 296.534391
L 331.563847 30.422391
" style="fill:none;stroke:#fafafa;"/>
     </g>
     <g id="line2d_14">
      <path d="M 331.563847 296.534391
" style="fill:none;stroke:#000000;stroke-width:1.5;"/>
     </g>
    </g>
    <g id="text_5">
     <!-- Median(Enrichment score) -->
     <defs>
      <path d="M 9.8125 72.90625
L 24.515625 72.90625
L 43.109375 23.296875
L 61.8125 72.90625
L 76.515625 72.90625
L 76.515625 0
L 66.890625 0
L 66.890625 64.015625
L 48.09375 14.015625
L 38.1875 14.015625
L 19.390625 64.015625
L 19.390625 0
L 9.8125 0
z
" id="DejaVuSans-77"/>
      <path d="M 56.203125 29.59375
L 56.203125 25.203125
L 14.890625 25.203125
Q 15.484375 15.921875 20.484375 11.0625
Q 25.484375 6.203125 34.421875 6.203125
Q 39.59375 6.203125 44.453125 7.46875
Q 49.3125 8.734375 54.109375 11.28125
L 54.109375 2.78125
Q 49.265625 0.734375 44.1875 -0.34375
Q 39.109375 -1.421875 33.890625 -1.421875
Q 20.796875 -1.421875 13.15625 6.1875
Q 5.515625 13.8125 5.515625 26.8125
Q 5.515625 40.234375 12.765625 48.109375
Q 20.015625 56 32.328125 56
Q 43.359375 56 49.78125 48.890625
Q 56.203125 41.796875 56.203125 29.59375
z
M 47.21875 32.234375
Q 47.125 39.59375 43.09375 43.984375
Q 39.0625 48.390625 32.421875 48.390625
Q 24.90625 48.390625 20.390625 44.140625
Q 15.875 39.890625 15.1875 32.171875
z
" id="DejaVuSans-101"/>
      <path d="M 45.40625 46.390625
L 45.40625 75.984375
L 54.390625 75.984375
L 54.390625 0
L 45.40625 0
L 45.40625 8.203125
Q 42.578125 3.328125 38.25 0.953125
Q 33.9375 -1.421875 27.875 -1.421875
Q 17.96875 -1.421875 11.734375 6.484375
Q 5.515625 14.40625 5.515625 27.296875
Q 5.515625 40.1875 11.734375 48.09375
Q 17.96875 56 27.875 56
Q 33.9375 56 38.25 53.625
Q 42.578125 51.265625 45.40625 46.390625
z
M 14.796875 27.296875
Q 14.796875 17.390625 18.875 11.75
Q 22.953125 6.109375 30.078125 6.109375
Q 37.203125 6.109375 41.296875 11.75
Q 45.40625 17.390625 45.40625 27.296875
Q 45.40625 37.203125 41.296875 42.84375
Q 37.203125 48.484375 30.078125 48.484375
Q 22.953125 48.484375 18.875 42.84375
Q 14.796875 37.203125 14.796875 27.296875
z
" id="DejaVuSans-100"/>
      <path d="M 9.421875 54.6875
L 18.40625 54.6875
L 18.40625 0
L 9.421875 0
z
M 9.421875 75.984375
L 18.40625 75.984375
L 18.40625 64.59375
L 9.421875 64.59375
z
" id="DejaVuSans-105"/>
      <path d="M 34.28125 27.484375
Q 23.390625 27.484375 19.1875 25
Q 14.984375 22.515625 14.984375 16.5
Q 14.984375 11.71875 18.140625 8.90625
Q 21.296875 6.109375 26.703125 6.109375
Q 34.1875 6.109375 38.703125 11.40625
Q 43.21875 16.703125 43.21875 25.484375
L 43.21875 27.484375
z
M 52.203125 31.203125
L 52.203125 0
L 43.21875 0
L 43.21875 8.296875
Q 40.140625 3.328125 35.546875 0.953125
Q 30.953125 -1.421875 24.3125 -1.421875
Q 15.921875 -1.421875 10.953125 3.296875
Q 6 8.015625 6 15.921875
Q 6 25.140625 12.171875 29.828125
Q 18.359375 34.515625 30.609375 34.515625
L 43.21875 34.515625
L 43.21875 35.40625
Q 43.21875 41.609375 39.140625 45
Q 35.0625 48.390625 27.6875 48.390625
Q 23 48.390625 18.546875 47.265625
Q 14.109375 46.140625 10.015625 43.890625
L 10.015625 52.203125
Q 14.9375 54.109375 19.578125 55.046875
Q 24.21875 56 28.609375 56
Q 40.484375 56 46.34375 49.84375
Q 52.203125 43.703125 52.203125 31.203125
z
" id="DejaVuSans-97"/>
      <path d="M 54.890625 33.015625
L 54.890625 0
L 45.90625 0
L 45.90625 32.71875
Q 45.90625 40.484375 42.875 44.328125
Q 39.84375 48.1875 33.796875 48.1875
Q 26.515625 48.1875 22.3125 43.546875
Q 18.109375 38.921875 18.109375 30.90625
L 18.109375 0
L 9.078125 0
L 9.078125 54.6875
L 18.109375 54.6875
L 18.109375 46.1875
Q 21.34375 51.125 25.703125 53.5625
Q 30.078125 56 35.796875 56
Q 45.21875 56 50.046875 50.171875
Q 54.890625 44.34375 54.890625 33.015625
z
" id="DejaVuSans-110"/>
      <path d="M 31 75.875
Q 24.46875 64.65625 21.28125 53.65625
Q 18.109375 42.671875 18.109375 31.390625
Q 18.109375 20.125 21.3125 9.0625
Q 24.515625 -2 31 -13.1875
L 23.1875 -13.1875
Q 15.875 -1.703125 12.234375 9.375
Q 8.59375 20.453125 8.59375 31.390625
Q 8.59375 42.28125 12.203125 53.3125
Q 15.828125 64.359375 23.1875 75.875
z
" id="DejaVuSans-40"/>
      <path d="M 9.8125 72.90625
L 55.90625 72.90625
L 55.90625 64.59375
L 19.671875 64.59375
L 19.671875 43.015625
L 54.390625 43.015625
L 54.390625 34.71875
L 19.671875 34.71875
L 19.671875 8.296875
L 56.78125 8.296875
L 56.78125 0
L 9.8125 0
z
" id="DejaVuSans-69"/>
      <path d="M 41.109375 46.296875
Q 39.59375 47.171875 37.8125 47.578125
Q 36.03125 48 33.890625 48
Q 26.265625 48 22.1875 43.046875
Q 18.109375 38.09375 18.109375 28.8125
L 18.109375 0
L 9.078125 0
L 9.078125 54.6875
L 18.109375 54.6875
L 18.109375 46.1875
Q 20.953125 51.171875 25.484375 53.578125
Q 30.03125 56 36.53125 56
Q 37.453125 56 38.578125 55.875
Q 39.703125 55.765625 41.0625 55.515625
z
" id="DejaVuSans-114"/>
      <path d="M 48.78125 52.59375
L 48.78125 44.1875
Q 44.96875 46.296875 41.140625 47.34375
Q 37.3125 48.390625 33.40625 48.390625
Q 24.65625 48.390625 19.8125 42.84375
Q 14.984375 37.3125 14.984375 27.296875
Q 14.984375 17.28125 19.8125 11.734375
Q 24.65625 6.203125 33.40625 6.203125
Q 37.3125 6.203125 41.140625 7.25
Q 44.96875 8.296875 48.78125 10.40625
L 48.78125 2.09375
Q 45.015625 0.34375 40.984375 -0.53125
Q 36.96875 -1.421875 32.421875 -1.421875
Q 20.0625 -1.421875 12.78125 6.34375
Q 5.515625 14.109375 5.515625 27.296875
Q 5.515625 40.671875 12.859375 48.328125
Q 20.21875 56 33.015625 56
Q 37.15625 56 41.109375 55.140625
Q 45.0625 54.296875 48.78125 52.59375
z
" id="DejaVuSans-99"/>
      <path d="M 54.890625 33.015625
L 54.890625 0
L 45.90625 0
L 45.90625 32.71875
Q 45.90625 40.484375 42.875 44.328125
Q 39.84375 48.1875 33.796875 48.1875
Q 26.515625 48.1875 22.3125 43.546875
Q 18.109375 38.921875 18.109375 30.90625
L 18.109375 0
L 9.078125 0
L 9.078125 75.984375
L 18.109375 75.984375
L 18.109375 46.1875
Q 21.34375 51.125 25.703125 53.5625
Q 30.078125 56 35.796875 56
Q 45.21875 56 50.046875 50.171875
Q 54.890625 44.34375 54.890625 33.015625
z
" id="DejaVuSans-104"/>
      <path d="M 52 44.1875
Q 55.375 50.25 60.0625 53.125
Q 64.75 56 71.09375 56
Q 79.640625 56 84.28125 50.015625
Q 88.921875 44.046875 88.921875 33.015625
L 88.921875 0
L 79.890625 0
L 79.890625 32.71875
Q 79.890625 40.578125 77.09375 44.375
Q 74.3125 48.1875 68.609375 48.1875
Q 61.625 48.1875 57.5625 43.546875
Q 53.515625 38.921875 53.515625 30.90625
L 53.515625 0
L 44.484375 0
L 44.484375 32.71875
Q 44.484375 40.625 41.703125 44.40625
Q 38.921875 48.1875 33.109375 48.1875
Q 26.21875 48.1875 22.15625 43.53125
Q 18.109375 38.875 18.109375 30.90625
L 18.109375 0
L 9.078125 0
L 9.078125 54.6875
L 18.109375 54.6875
L 18.109375 46.1875
Q 21.1875 51.21875 25.484375 53.609375
Q 29.78125 56 35.6875 56
Q 41.65625 56 45.828125 52.96875
Q 50 49.953125 52 44.1875
z
" id="DejaVuSans-109"/>
      <path d="M 18.3125 70.21875
L 18.3125 54.6875
L 36.8125 54.6875
L 36.8125 47.703125
L 18.3125 47.703125
L 18.3125 18.015625
Q 18.3125 11.328125 20.140625 9.421875
Q 21.96875 7.515625 27.59375 7.515625
L 36.8125 7.515625
L 36.8125 0
L 27.59375 0
Q 17.1875 0 13.234375 3.875
Q 9.28125 7.765625 9.28125 18.015625
L 9.28125 47.703125
L 2.6875 47.703125
L 2.6875 54.6875
L 9.28125 54.6875
L 9.28125 70.21875
z
" id="DejaVuSans-116"/>
      <path id="DejaVuSans-32"/>
      <path d="M 44.28125 53.078125
L 44.28125 44.578125
Q 40.484375 46.53125 36.375 47.5
Q 32.28125 48.484375 27.875 48.484375
Q 21.1875 48.484375 17.84375 46.4375
Q 14.5 44.390625 14.5 40.28125
Q 14.5 37.15625 16.890625 35.375
Q 19.28125 33.59375 26.515625 31.984375
L 29.59375 31.296875
Q 39.15625 29.25 43.1875 25.515625
Q 47.21875 21.78125 47.21875 15.09375
Q 47.21875 7.46875 41.1875 3.015625
Q 35.15625 -1.421875 24.609375 -1.421875
Q 20.21875 -1.421875 15.453125 -0.5625
Q 10.6875 0.296875 5.421875 2
L 5.421875 11.28125
Q 10.40625 8.6875 15.234375 7.390625
Q 20.0625 6.109375 24.8125 6.109375
Q 31.15625 6.109375 34.5625 8.28125
Q 37.984375 10.453125 37.984375 14.40625
Q 37.984375 18.0625 35.515625 20.015625
Q 33.0625 21.96875 24.703125 23.78125
L 21.578125 24.515625
Q 13.234375 26.265625 9.515625 29.90625
Q 5.8125 33.546875 5.8125 39.890625
Q 5.8125 47.609375 11.28125 51.796875
Q 16.75 56 26.8125 56
Q 31.78125 56 36.171875 55.265625
Q 40.578125 54.546875 44.28125 53.078125
z
" id="DejaVuSans-115"/>
      <path d="M 30.609375 48.390625
Q 23.390625 48.390625 19.1875 42.75
Q 14.984375 37.109375 14.984375 27.296875
Q 14.984375 17.484375 19.15625 11.84375
Q 23.34375 6.203125 30.609375 6.203125
Q 37.796875 6.203125 41.984375 11.859375
Q 46.1875 17.53125 46.1875 27.296875
Q 46.1875 37.015625 41.984375 42.703125
Q 37.796875 48.390625 30.609375 48.390625
z
M 30.609375 56
Q 42.328125 56 49.015625 48.375
Q 55.71875 40.765625 55.71875 27.296875
Q 55.71875 13.875 49.015625 6.21875
Q 42.328125 -1.421875 30.609375 -1.421875
Q 18.84375 -1.421875 12.171875 6.21875
Q 5.515625 13.875 5.515625 27.296875
Q 5.515625 40.765625 12.171875 48.375
Q 18.84375 56 30.609375 56
z
" id="DejaVuSans-111"/>
      <path d="M 8.015625 75.875
L 15.828125 75.875
Q 23.140625 64.359375 26.78125 53.3125
Q 30.421875 42.28125 30.421875 31.390625
Q 30.421875 20.453125 26.78125 9.375
Q 23.140625 -1.703125 15.828125 -13.1875
L 8.015625 -13.1875
Q 14.5 -2 17.703125 9.0625
Q 20.90625 20.125 20.90625 31.390625
Q 20.90625 42.671875 17.703125 53.65625
Q 14.5 64.65625 8.015625 75.875
z
" id="DejaVuSans-41"/>
     </defs>
     <g transform="translate(120.590938 328.895797)scale(0.15 -0.15)">
      <use xlink:href="#DejaVuSans-77"/>
      <use x="86.279297" xlink:href="#DejaVuSans-101"/>
      <use x="147.802734" xlink:href="#DejaVuSans-100"/>
      <use x="211.279297" xlink:href="#DejaVuSans-105"/>
      <use x="239.0625" xlink:href="#DejaVuSans-97"/>
      <use x="300.341797" xlink:href="#DejaVuSans-110"/>
      <use x="363.720703" xlink:href="#DejaVuSans-40"/>
      <use x="402.734375" xlink:href="#DejaVuSans-69"/>
      <use x="465.917969" xlink:href="#DejaVuSans-110"/>
      <use x="529.296875" xlink:href="#DejaVuSans-114"/>
      <use x="570.410156" xlink:href="#DejaVuSans-105"/>
      <use x="598.193359" xlink:href="#DejaVuSans-99"/>
      <use x="653.173828" xlink:href="#DejaVuSans-104"/>
      <use x="716.552734" xlink:href="#DejaVuSans-109"/>
      <use x="813.964844" xlink:href="#DejaVuSans-101"/>
      <use x="875.488281" xlink:href="#DejaVuSans-110"/>
      <use x="938.867188" xlink:href="#DejaVuSans-116"/>
      <use x="978.076172" xlink:href="#DejaVuSans-32"/>
      <use x="1009.863281" xlink:href="#DejaVuSans-115"/>
      <use x="1061.962891" xlink:href="#DejaVuSans-99"/>
      <use x="1116.943359" xlink:href="#DejaVuSans-111"/>
      <use x="1178.125" xlink:href="#DejaVuSans-114"/>
      <use x="1219.207031" xlink:href="#DejaVuSans-101"/>
      <use x="1280.730469" xlink:href="#DejaVuSans-41"/>
     </g>
    </g>
   </g>
   <g id="matplotlib.axis_2">
    <g id="ytick_1">
     <g id="line2d_15">
      <path clip-path="url(#pedaabcdc52)" d="M 46.772188 284.438391
L 403.892188 284.438391
" style="fill:none;stroke:#e5e5e5;stroke-width:0.8;"/>
     </g>
     <g id="line2d_16">
      <path d="M 46.772188 284.438391
" style="fill:none;stroke:#000000;stroke-width:1.5;"/>
      <defs>
       <path d="M 0 0
L -2.75 0
" id="m923fda9b36" style="stroke:#000000;"/>
      </defs>
      <g>
       <use style="stroke:#000000;" x="46.772188" xlink:href="#m923fda9b36" y="284.438391"/>
      </g>
     </g>
     <g id="text_6">
      <!-- 0 -->
      <g style="fill:#4d4d4d;" transform="translate(34.187188 287.749641)scale(0.12 -0.12)">
       <use xlink:href="#DejaVuSans-48"/>
      </g>
     </g>
    </g>
    <g id="ytick_2">
     <g id="line2d_17">
      <path clip-path="url(#pedaabcdc52)" d="M 46.772188 223.958391
L 403.892188 223.958391
" style="fill:none;stroke:#e5e5e5;stroke-width:0.8;"/>
     </g>
     <g id="line2d_18">
      <path d="M 46.772188 223.958391
" style="fill:none;stroke:#000000;stroke-width:1.5;"/>
      <g>
       <use style="stroke:#000000;" x="46.772188" xlink:href="#m923fda9b36" y="223.958391"/>
      </g>
     </g>
     <g id="text_7">
      <!-- 25 -->
      <defs>
       <path d="M 10.796875 72.90625
L 49.515625 72.90625
L 49.515625 64.59375
L 19.828125 64.59375
L 19.828125 46.734375
Q 21.96875 47.46875 24.109375 47.828125
Q 26.265625 48.1875 28.421875 48.1875
Q 40.625 48.1875 47.75 41.5
Q 54.890625 34.8125 54.890625 23.390625
Q 54.890625 11.625 47.5625 5.09375
Q 40.234375 -1.421875 26.90625 -1.421875
Q 22.3125 -1.421875 17.546875 -0.640625
Q 12.796875 0.140625 7.71875 1.703125
L 7.71875 11.625
Q 12.109375 9.234375 16.796875 8.0625
Q 21.484375 6.890625 26.703125 6.890625
Q 35.15625 6.890625 40.078125 11.328125
Q 45.015625 15.765625 45.015625 23.390625
Q 45.015625 31 40.078125 35.4375
Q 35.15625 39.890625 26.703125 39.890625
Q 22.75 39.890625 18.8125 39.015625
Q 14.890625 38.140625 10.796875 36.28125
z
" id="DejaVuSans-53"/>
      </defs>
      <g style="fill:#4d4d4d;" transform="translate(26.552188 227.269641)scale(0.12 -0.12)">
       <use xlink:href="#DejaVuSans-50"/>
       <use x="63.623047" xlink:href="#DejaVuSans-53"/>
      </g>
     </g>
    </g>
    <g id="ytick_3">
     <g id="line2d_19">
      <path clip-path="url(#pedaabcdc52)" d="M 46.772188 163.478391
L 403.892188 163.478391
" style="fill:none;stroke:#e5e5e5;stroke-width:0.8;"/>
     </g>
     <g id="line2d_20">
      <path d="M 46.772188 163.478391
" style="fill:none;stroke:#000000;stroke-width:1.5;"/>
      <g>
       <use style="stroke:#000000;" x="46.772188" xlink:href="#m923fda9b36" y="163.478391"/>
      </g>
     </g>
     <g id="text_8">
      <!-- 50 -->
      <g style="fill:#4d4d4d;" transform="translate(26.552188 166.789641)scale(0.12 -0.12)">
       <use xlink:href="#DejaVuSans-53"/>
       <use x="63.623047" xlink:href="#DejaVuSans-48"/>
      </g>
     </g>
    </g>
    <g id="ytick_4">
     <g id="line2d_21">
      <path clip-path="url(#pedaabcdc52)" d="M 46.772188 102.998391
L 403.892188 102.998391
" style="fill:none;stroke:#e5e5e5;stroke-width:0.8;"/>
     </g>
     <g id="line2d_22">
      <path d="M 46.772188 102.998391
" style="fill:none;stroke:#000000;stroke-width:1.5;"/>
      <g>
       <use style="stroke:#000000;" x="46.772188" xlink:href="#m923fda9b36" y="102.998391"/>
      </g>
     </g>
     <g id="text_9">
      <!-- 75 -->
      <defs>
       <path d="M 8.203125 72.90625
L 55.078125 72.90625
L 55.078125 68.703125
L 28.609375 0
L 18.3125 0
L 43.21875 64.59375
L 8.203125 64.59375
z
" id="DejaVuSans-55"/>
      </defs>
      <g style="fill:#4d4d4d;" transform="translate(26.552188 106.309641)scale(0.12 -0.12)">
       <use xlink:href="#DejaVuSans-55"/>
       <use x="63.623047" xlink:href="#DejaVuSans-53"/>
      </g>
     </g>
    </g>
    <g id="ytick_5">
     <g id="line2d_23">
      <path clip-path="url(#pedaabcdc52)" d="M 46.772188 42.518391
L 403.892188 42.518391
" style="fill:none;stroke:#e5e5e5;stroke-width:0.8;"/>
     </g>
     <g id="line2d_24">
      <path d="M 46.772188 42.518391
" style="fill:none;stroke:#000000;stroke-width:1.5;"/>
      <g>
       <use style="stroke:#000000;" x="46.772188" xlink:href="#m923fda9b36" y="42.518391"/>
      </g>
     </g>
     <g id="text_10">
      <!-- 100 -->
      <g style="fill:#4d4d4d;" transform="translate(18.917188 45.829641)scale(0.12 -0.12)">
       <use xlink:href="#DejaVuSans-49"/>
       <use x="63.623047" xlink:href="#DejaVuSans-48"/>
       <use x="127.246094" xlink:href="#DejaVuSans-48"/>
      </g>
     </g>
    </g>
    <g id="ytick_6">
     <g id="line2d_25">
      <path clip-path="url(#pedaabcdc52)" d="M 46.772188 254.198391
L 403.892188 254.198391
" style="fill:none;stroke:#fafafa;"/>
     </g>
     <g id="line2d_26">
      <path d="M 46.772188 254.198391
" style="fill:none;stroke:#000000;stroke-width:1.5;"/>
     </g>
    </g>
    <g id="ytick_7">
     <g id="line2d_27">
      <path clip-path="url(#pedaabcdc52)" d="M 46.772188 193.718391
L 403.892188 193.718391
" style="fill:none;stroke:#fafafa;"/>
     </g>
     <g id="line2d_28">
      <path d="M 46.772188 193.718391
" style="fill:none;stroke:#000000;stroke-width:1.5;"/>
     </g>
    </g>
    <g id="ytick_8">
     <g id="line2d_29">
      <path clip-path="url(#pedaabcdc52)" d="M 46.772188 133.238391
L 403.892188 133.238391
" style="fill:none;stroke:#fafafa;"/>
     </g>
     <g id="line2d_30">
      <path d="M 46.772188 133.238391
" style="fill:none;stroke:#000000;stroke-width:1.5;"/>
     </g>
    </g>
    <g id="ytick_9">
     <g id="line2d_31">
      <path clip-path="url(#pedaabcdc52)" d="M 46.772188 72.758391
L 403.892188 72.758391
" style="fill:none;stroke:#fafafa;"/>
     </g>
     <g id="line2d_32">
      <path d="M 46.772188 72.758391
" style="fill:none;stroke:#000000;stroke-width:1.5;"/>
     </g>
    </g>
    <g id="text_11">
     <!-- Commonly enriched (percentile of ranking) -->
     <defs>
      <path d="M 64.40625 67.28125
L 64.40625 56.890625
Q 59.421875 61.53125 53.78125 63.8125
Q 48.140625 66.109375 41.796875 66.109375
Q 29.296875 66.109375 22.65625 58.46875
Q 16.015625 50.828125 16.015625 36.375
Q 16.015625 21.96875 22.65625 14.328125
Q 29.296875 6.6875 41.796875 6.6875
Q 48.140625 6.6875 53.78125 8.984375
Q 59.421875 11.28125 64.40625 15.921875
L 64.40625 5.609375
Q 59.234375 2.09375 53.4375 0.328125
Q 47.65625 -1.421875 41.21875 -1.421875
Q 24.65625 -1.421875 15.125 8.703125
Q 5.609375 18.84375 5.609375 36.375
Q 5.609375 53.953125 15.125 64.078125
Q 24.65625 74.21875 41.21875 74.21875
Q 47.75 74.21875 53.53125 72.484375
Q 59.328125 70.75 64.40625 67.28125
z
" id="DejaVuSans-67"/>
      <path d="M 9.421875 75.984375
L 18.40625 75.984375
L 18.40625 0
L 9.421875 0
z
" id="DejaVuSans-108"/>
      <path d="M 32.171875 -5.078125
Q 28.375 -14.84375 24.75 -17.8125
Q 21.140625 -20.796875 15.09375 -20.796875
L 7.90625 -20.796875
L 7.90625 -13.28125
L 13.1875 -13.28125
Q 16.890625 -13.28125 18.9375 -11.515625
Q 21 -9.765625 23.484375 -3.21875
L 25.09375 0.875
L 2.984375 54.6875
L 12.5 54.6875
L 29.59375 11.921875
L 46.6875 54.6875
L 56.203125 54.6875
z
" id="DejaVuSans-121"/>
      <path d="M 18.109375 8.203125
L 18.109375 -20.796875
L 9.078125 -20.796875
L 9.078125 54.6875
L 18.109375 54.6875
L 18.109375 46.390625
Q 20.953125 51.265625 25.265625 53.625
Q 29.59375 56 35.59375 56
Q 45.5625 56 51.78125 48.09375
Q 58.015625 40.1875 58.015625 27.296875
Q 58.015625 14.40625 51.78125 6.484375
Q 45.5625 -1.421875 35.59375 -1.421875
Q 29.59375 -1.421875 25.265625 0.953125
Q 20.953125 3.328125 18.109375 8.203125
z
M 48.6875 27.296875
Q 48.6875 37.203125 44.609375 42.84375
Q 40.53125 48.484375 33.40625 48.484375
Q 26.265625 48.484375 22.1875 42.84375
Q 18.109375 37.203125 18.109375 27.296875
Q 18.109375 17.390625 22.1875 11.75
Q 26.265625 6.109375 33.40625 6.109375
Q 40.53125 6.109375 44.609375 11.75
Q 48.6875 17.390625 48.6875 27.296875
z
" id="DejaVuSans-112"/>
      <path d="M 37.109375 75.984375
L 37.109375 68.5
L 28.515625 68.5
Q 23.6875 68.5 21.796875 66.546875
Q 19.921875 64.59375 19.921875 59.515625
L 19.921875 54.6875
L 34.71875 54.6875
L 34.71875 47.703125
L 19.921875 47.703125
L 19.921875 0
L 10.890625 0
L 10.890625 47.703125
L 2.296875 47.703125
L 2.296875 54.6875
L 10.890625 54.6875
L 10.890625 58.5
Q 10.890625 67.625 15.140625 71.796875
Q 19.390625 75.984375 28.609375 75.984375
z
" id="DejaVuSans-102"/>
      <path d="M 9.078125 75.984375
L 18.109375 75.984375
L 18.109375 31.109375
L 44.921875 54.6875
L 56.390625 54.6875
L 27.390625 29.109375
L 57.625 0
L 45.90625 0
L 18.109375 26.703125
L 18.109375 0
L 9.078125 0
z
" id="DejaVuSans-107"/>
      <path d="M 45.40625 27.984375
Q 45.40625 37.75 41.375 43.109375
Q 37.359375 48.484375 30.078125 48.484375
Q 22.859375 48.484375 18.828125 43.109375
Q 14.796875 37.75 14.796875 27.984375
Q 14.796875 18.265625 18.828125 12.890625
Q 22.859375 7.515625 30.078125 7.515625
Q 37.359375 7.515625 41.375 12.890625
Q 45.40625 18.265625 45.40625 27.984375
z
M 54.390625 6.78125
Q 54.390625 -7.171875 48.1875 -13.984375
Q 42 -20.796875 29.203125 -20.796875
Q 24.46875 -20.796875 20.265625 -20.09375
Q 16.0625 -19.390625 12.109375 -17.921875
L 12.109375 -9.1875
Q 16.0625 -11.328125 19.921875 -12.34375
Q 23.78125 -13.375 27.78125 -13.375
Q 36.625 -13.375 41.015625 -8.765625
Q 45.40625 -4.15625 45.40625 5.171875
L 45.40625 9.625
Q 42.625 4.78125 38.28125 2.390625
Q 33.9375 0 27.875 0
Q 17.828125 0 11.671875 7.65625
Q 5.515625 15.328125 5.515625 27.984375
Q 5.515625 40.671875 11.671875 48.328125
Q 17.828125 56 27.875 56
Q 33.9375 56 38.28125 53.609375
Q 42.625 51.21875 45.40625 46.390625
L 45.40625 54.6875
L 54.390625 54.6875
z
" id="DejaVuSans-103"/>
     </defs>
     <g transform="translate(11.397656 323.500781)rotate(-90)scale(0.15 -0.15)">
      <use xlink:href="#DejaVuSans-67"/>
      <use x="69.824219" xlink:href="#DejaVuSans-111"/>
      <use x="131.005859" xlink:href="#DejaVuSans-109"/>
      <use x="228.417969" xlink:href="#DejaVuSans-109"/>
      <use x="325.830078" xlink:href="#DejaVuSans-111"/>
      <use x="387.011719" xlink:href="#DejaVuSans-110"/>
      <use x="450.390625" xlink:href="#DejaVuSans-108"/>
      <use x="478.173828" xlink:href="#DejaVuSans-121"/>
      <use x="537.353516" xlink:href="#DejaVuSans-32"/>
      <use x="569.140625" xlink:href="#DejaVuSans-101"/>
      <use x="630.664062" xlink:href="#DejaVuSans-110"/>
      <use x="694.042969" xlink:href="#DejaVuSans-114"/>
      <use x="735.15625" xlink:href="#DejaVuSans-105"/>
      <use x="762.939453" xlink:href="#DejaVuSans-99"/>
      <use x="817.919922" xlink:href="#DejaVuSans-104"/>
      <use x="881.298828" xlink:href="#DejaVuSans-101"/>
      <use x="942.822266" xlink:href="#DejaVuSans-100"/>
      <use x="1006.298828" xlink:href="#DejaVuSans-32"/>
      <use x="1038.085938" xlink:href="#DejaVuSans-40"/>
      <use x="1077.099609" xlink:href="#DejaVuSans-112"/>
      <use x="1140.576172" xlink:href="#DejaVuSans-101"/>
      <use x="1202.099609" xlink:href="#DejaVuSans-114"/>
      <use x="1243.181641" xlink:href="#DejaVuSans-99"/>
      <use x="1298.162109" xlink:href="#DejaVuSans-101"/>
      <use x="1359.685547" xlink:href="#DejaVuSans-110"/>
      <use x="1423.064453" xlink:href="#DejaVuSans-116"/>
      <use x="1462.273438" xlink:href="#DejaVuSans-105"/>
      <use x="1490.056641" xlink:href="#DejaVuSans-108"/>
      <use x="1517.839844" xlink:href="#DejaVuSans-101"/>
      <use x="1579.363281" xlink:href="#DejaVuSans-32"/>
      <use x="1611.150391" xlink:href="#DejaVuSans-111"/>
      <use x="1672.332031" xlink:href="#DejaVuSans-102"/>
      <use x="1707.537109" xlink:href="#DejaVuSans-32"/>
      <use x="1739.324219" xlink:href="#DejaVuSans-114"/>
      <use x="1780.4375" xlink:href="#DejaVuSans-97"/>
      <use x="1841.716797" xlink:href="#DejaVuSans-110"/>
      <use x="1905.095703" xlink:href="#DejaVuSans-107"/>
      <use x="1963.005859" xlink:href="#DejaVuSans-105"/>
      <use x="1990.789062" xlink:href="#DejaVuSans-110"/>
      <use x="2054.167969" xlink:href="#DejaVuSans-103"/>
      <use x="2117.644531" xlink:href="#DejaVuSans-41"/>
     </g>
    </g>
   </g>
   <g id="PathCollection_1">
    <path clip-path="url(#pedaabcdc52)" d="M 387.65946 44.290844
C 388.12952 44.290844 388.580392 44.104088 388.912774 43.771705
C 389.245157 43.439322 389.431914 42.988451 389.431914 42.518391
C 389.431914 42.04833 389.245157 41.597459 388.912774 41.265076
C 388.580392 40.932694 388.12952 40.745937 387.65946 40.745937
C 387.1894 40.745937 386.738529 40.932694 386.406146 41.265076
C 386.073763 41.597459 385.887006 42.04833 385.887006 42.518391
C 385.887006 42.988451 386.073763 43.439322 386.406146 43.771705
C 386.738529 44.104088 387.1894 44.290844 387.65946 44.290844
z
" style="stroke:#000000;stroke-width:0.886227;"/>
    <path clip-path="url(#pedaabcdc52)" d="M 164.782315 123.28513
C 165.252376 123.28513 165.703247 123.098373 166.03563 122.76599
C 166.368012 122.433608 166.554769 121.982737 166.554769 121.512676
C 166.554769 121.042616 166.368012 120.591745 166.03563 120.259362
C 165.703247 119.926979 165.252376 119.740222 164.782315 119.740222
C 164.312255 119.740222 163.861384 119.926979 163.529001 120.259362
C 163.196619 120.591745 163.009862 121.042616 163.009862 121.512676
C 163.009862 121.982737 163.196619 122.433608 163.529001 122.76599
C 163.861384 123.098373 164.312255 123.28513 164.782315 123.28513
z
" style="stroke:#000000;stroke-width:0.886227;"/>
    <path clip-path="url(#pedaabcdc52)" d="M 178.505765 103.536559
C 178.975825 103.536559 179.426696 103.349802 179.759079 103.017419
C 180.091462 102.685036 180.278219 102.234165 180.278219 101.764105
C 180.278219 101.294045 180.091462 100.843174 179.759079 100.510791
C 179.426696 100.178408 178.975825 99.991651 178.505765 99.991651
C 178.035705 99.991651 177.584834 100.178408 177.252451 100.510791
C 176.920068 100.843174 176.733311 101.294045 176.733311 101.764105
C 176.733311 102.234165 176.920068 102.685036 177.252451 103.017419
C 177.584834 103.349802 178.035705 103.536559 178.505765 103.536559
z
" style="stroke:#000000;stroke-width:0.886227;"/>
    <path clip-path="url(#pedaabcdc52)" d="M 125.14206 187.467987
C 125.612121 187.467987 126.062992 187.28123 126.395375 186.948848
C 126.727757 186.616465 126.914514 186.165594 126.914514 185.695533
C 126.914514 185.225473 126.727757 184.774602 126.395375 184.442219
C 126.062992 184.109837 125.612121 183.92308 125.14206 183.92308
C 124.672 183.92308 124.221129 184.109837 123.888746 184.442219
C 123.556363 184.774602 123.369607 185.225473 123.369607 185.695533
C 123.369607 186.165594 123.556363 186.616465 123.888746 186.948848
C 124.221129 187.28123 124.672 187.467987 125.14206 187.467987
z
" style="stroke:#000000;stroke-width:0.886227;"/>
    <path clip-path="url(#pedaabcdc52)" d="M 348.758582 49.227987
C 349.228642 49.227987 349.679513 49.04123 350.011896 48.708848
C 350.344278 48.376465 350.531035 47.925594 350.531035 47.455533
C 350.531035 46.985473 350.344278 46.534602 350.011896 46.202219
C 349.679513 45.869837 349.228642 45.68308 348.758582 45.68308
C 348.288521 45.68308 347.83765 45.869837 347.505267 46.202219
C 347.172885 46.534602 346.986128 46.985473 346.986128 47.455533
C 346.986128 47.925594 347.172885 48.376465 347.505267 48.708848
C 347.83765 49.04123 348.288521 49.227987 348.758582 49.227987
z
" style="stroke:#000000;stroke-width:0.886227;"/>
    <path clip-path="url(#pedaabcdc52)" d="M 118.421923 202.279416
C 118.891983 202.279416 119.342854 202.092659 119.675237 201.760276
C 120.007619 201.427893 120.194376 200.977022 120.194376 200.506962
C 120.194376 200.036902 120.007619 199.586031 119.675237 199.253648
C 119.342854 198.921265 118.891983 198.734508 118.421923 198.734508
C 117.951862 198.734508 117.500991 198.921265 117.168608 199.253648
C 116.836226 199.586031 116.649469 200.036902 116.649469 200.506962
C 116.649469 200.977022 116.836226 201.427893 117.168608 201.760276
C 117.500991 202.092659 117.951862 202.279416 118.421923 202.279416
z
" style="stroke:#000000;stroke-width:0.886227;"/>
    <path clip-path="url(#pedaabcdc52)" d="M 173.609261 118.347987
C 174.079321 118.347987 174.530192 118.16123 174.862575 117.828848
C 175.194958 117.496465 175.381715 117.045594 175.381715 116.575533
C 175.381715 116.105473 175.194958 115.654602 174.862575 115.322219
C 174.530192 114.989837 174.079321 114.80308 173.609261 114.80308
C 173.139201 114.80308 172.68833 114.989837 172.355947 115.322219
C 172.023564 115.654602 171.836807 116.105473 171.836807 116.575533
C 171.836807 117.045594 172.023564 117.496465 172.355947 117.828848
C 172.68833 118.16123 173.139201 118.347987 173.609261 118.347987
z
" style="stroke:#000000;stroke-width:0.886227;"/>
    <path clip-path="url(#pedaabcdc52)" d="M 184.520776 93.662273
C 184.990837 93.662273 185.441708 93.475516 185.774091 93.143133
C 186.106473 92.810751 186.29323 92.359879 186.29323 91.889819
C 186.29323 91.419759 186.106473 90.968888 185.774091 90.636505
C 185.441708 90.304122 184.990837 90.117365 184.520776 90.117365
C 184.050716 90.117365 183.599845 90.304122 183.267462 90.636505
C 182.935079 90.968888 182.748323 91.419759 182.748323 91.889819
C 182.748323 92.359879 182.935079 92.810751 183.267462 93.143133
C 183.599845 93.475516 184.050716 93.662273 184.520776 93.662273
z
" style="stroke:#000000;stroke-width:0.886227;"/>
    <path clip-path="url(#pedaabcdc52)" d="M 150.071531 162.782273
C 150.541591 162.782273 150.992462 162.595516 151.324845 162.263133
C 151.657228 161.930751 151.843985 161.479879 151.843985 161.009819
C 151.843985 160.539759 151.657228 160.088888 151.324845 159.756505
C 150.992462 159.424122 150.541591 159.237365 150.071531 159.237365
C 149.601471 159.237365 149.1506 159.424122 148.818217 159.756505
C 148.485834 160.088888 148.299077 160.539759 148.299077 161.009819
C 148.299077 161.479879 148.485834 161.930751 148.818217 162.263133
C 149.1506 162.595516 149.601471 162.782273 150.071531 162.782273
z
" style="stroke:#000000;stroke-width:0.886227;"/>
    <path clip-path="url(#pedaabcdc52)" d="M 111.496306 212.153702
C 111.966367 212.153702 112.417238 211.966945 112.74962 211.634562
C 113.082003 211.302179 113.26876 210.851308 113.26876 210.381248
C 113.26876 209.911188 113.082003 209.460316 112.74962 209.127934
C 112.417238 208.795551 111.966367 208.608794 111.496306 208.608794
C 111.026246 208.608794 110.575375 208.795551 110.242992 209.127934
C 109.910609 209.460316 109.723852 209.911188 109.723852 210.381248
C 109.723852 210.851308 109.910609 211.302179 110.242992 211.634562
C 110.575375 211.966945 111.026246 212.153702 111.496306 212.153702
z
" style="stroke:#000000;stroke-width:0.886227;"/>
    <path clip-path="url(#pedaabcdc52)" d="M 148.641346 167.719416
C 149.111407 167.719416 149.562278 167.532659 149.89466 167.200276
C 150.227043 166.867893 150.4138 166.417022 150.4138 165.946962
C 150.4138 165.476902 150.227043 165.026031 149.89466 164.693648
C 149.562278 164.361265 149.111407 164.174508 148.641346 164.174508
C 148.171286 164.174508 147.720415 164.361265 147.388032 164.693648
C 147.055649 165.026031 146.868892 165.476902 146.868892 165.946962
C 146.868892 166.417022 147.055649 166.867893 147.388032 167.200276
C 147.720415 167.532659 148.171286 167.719416 148.641346 167.719416
z
" style="stroke:#000000;stroke-width:0.886227;"/>
    <path clip-path="url(#pedaabcdc52)" d="M 176.485602 113.410844
C 176.955662 113.410844 177.406533 113.224088 177.738916 112.891705
C 178.071299 112.559322 178.258055 112.108451 178.258055 111.638391
C 178.258055 111.16833 178.071299 110.717459 177.738916 110.385076
C 177.406533 110.052694 176.955662 109.865937 176.485602 109.865937
C 176.015541 109.865937 175.56467 110.052694 175.232287 110.385076
C 174.899905 110.717459 174.713148 111.16833 174.713148 111.638391
C 174.713148 112.108451 174.899905 112.559322 175.232287 112.891705
C 175.56467 113.224088 176.015541 113.410844 176.485602 113.410844
z
" style="stroke:#000000;stroke-width:0.886227;"/>
    <path clip-path="url(#pedaabcdc52)" d="M 160.387497 133.159416
C 160.857558 133.159416 161.308429 132.972659 161.640811 132.640276
C 161.973194 132.307893 162.159951 131.857022 162.159951 131.386962
C 162.159951 130.916902 161.973194 130.466031 161.640811 130.133648
C 161.308429 129.801265 160.857558 129.614508 160.387497 129.614508
C 159.917437 129.614508 159.466566 129.801265 159.134183 130.133648
C 158.8018 130.466031 158.615043 130.916902 158.615043 131.386962
C 158.615043 131.857022 158.8018 132.307893 159.134183 132.640276
C 159.466566 132.972659 159.917437 133.159416 160.387497 133.159416
z
" style="stroke:#000000;stroke-width:0.886227;"/>
    <path clip-path="url(#pedaabcdc52)" d="M 78.365938 271.399416
C 78.835998 271.399416 79.286869 271.212659 79.619252 270.880276
C 79.951635 270.547893 80.138392 270.097022 80.138392 269.626962
C 80.138392 269.156902 79.951635 268.706031 79.619252 268.373648
C 79.286869 268.041265 78.835998 267.854508 78.365938 267.854508
C 77.895877 267.854508 77.445006 268.041265 77.112624 268.373648
C 76.780241 268.706031 76.593484 269.156902 76.593484 269.626962
C 76.593484 270.097022 76.780241 270.547893 77.112624 270.880276
C 77.445006 271.212659 77.895877 271.399416 78.365938 271.399416
z
" style="stroke:#000000;stroke-width:0.886227;"/>
    <path clip-path="url(#pedaabcdc52)" d="M 239.859651 64.039416
C 240.329711 64.039416 240.780582 63.852659 241.112965 63.520276
C 241.445348 63.187893 241.632105 62.737022 241.632105 62.266962
C 241.632105 61.796902 241.445348 61.346031 241.112965 61.013648
C 240.780582 60.681265 240.329711 60.494508 239.859651 60.494508
C 239.389591 60.494508 238.93872 60.681265 238.606337 61.013648
C 238.273954 61.346031 238.087197 61.796902 238.087197 62.266962
C 238.087197 62.737022 238.273954 63.187893 238.606337 63.520276
C 238.93872 63.852659 239.389591 64.039416 239.859651 64.039416
z
" style="stroke:#000000;stroke-width:0.886227;"/>
    <path clip-path="url(#pedaabcdc52)" d="M 280.258618 59.102273
C 280.728678 59.102273 281.179549 58.915516 281.511932 58.583133
C 281.844315 58.250751 282.031072 57.799879 282.031072 57.329819
C 282.031072 56.859759 281.844315 56.408888 281.511932 56.076505
C 281.179549 55.744122 280.728678 55.557365 280.258618 55.557365
C 279.788558 55.557365 279.337687 55.744122 279.005304 56.076505
C 278.672921 56.408888 278.486164 56.859759 278.486164 57.329819
C 278.486164 57.799879 278.672921 58.250751 279.005304 58.583133
C 279.337687 58.915516 279.788558 59.102273 280.258618 59.102273
z
" style="stroke:#000000;stroke-width:0.886227;"/>
    <path clip-path="url(#pedaabcdc52)" d="M 101.083255 236.839416
C 101.553315 236.839416 102.004186 236.652659 102.336569 236.320276
C 102.668952 235.987893 102.855709 235.537022 102.855709 235.066962
C 102.855709 234.596902 102.668952 234.146031 102.336569 233.813648
C 102.004186 233.481265 101.553315 233.294508 101.083255 233.294508
C 100.613195 233.294508 100.162323 233.481265 99.829941 233.813648
C 99.497558 234.146031 99.310801 234.596902 99.310801 235.066962
C 99.310801 235.537022 99.497558 235.987893 99.829941 236.320276
C 100.162323 236.652659 100.613195 236.839416 101.083255 236.839416
z
" style="stroke:#000000;stroke-width:0.886227;"/>
    <path clip-path="url(#pedaabcdc52)" d="M 110.332973 217.090844
C 110.803034 217.090844 111.253905 216.904088 111.586287 216.571705
C 111.91867 216.239322 112.105427 215.788451 112.105427 215.318391
C 112.105427 214.84833 111.91867 214.397459 111.586287 214.065076
C 111.253905 213.732694 110.803034 213.545937 110.332973 213.545937
C 109.862913 213.545937 109.412042 213.732694 109.079659 214.065076
C 108.747276 214.397459 108.560519 214.84833 108.560519 215.318391
C 108.560519 215.788451 108.747276 216.239322 109.079659 216.571705
C 109.412042 216.904088 109.862913 217.090844 110.332973 217.090844
z
" style="stroke:#000000;stroke-width:0.886227;"/>
    <path clip-path="url(#pedaabcdc52)" d="M 227.209974 68.976559
C 227.680035 68.976559 228.130906 68.789802 228.463288 68.457419
C 228.795671 68.125036 228.982428 67.674165 228.982428 67.204105
C 228.982428 66.734045 228.795671 66.283174 228.463288 65.950791
C 228.130906 65.618408 227.680035 65.431651 227.209974 65.431651
C 226.739914 65.431651 226.289043 65.618408 225.95666 65.950791
C 225.624277 66.283174 225.43752 66.734045 225.43752 67.204105
C 225.43752 67.674165 225.624277 68.125036 225.95666 68.457419
C 226.289043 68.789802 226.739914 68.976559 227.209974 68.976559
z
" style="stroke:#000000;stroke-width:0.886227;"/>
    <path clip-path="url(#pedaabcdc52)" d="M 136.399435 182.530844
C 136.869496 182.530844 137.320367 182.344088 137.652749 182.011705
C 137.985132 181.679322 138.171889 181.228451 138.171889 180.758391
C 138.171889 180.28833 137.985132 179.837459 137.652749 179.505076
C 137.320367 179.172694 136.869496 178.985937 136.399435 178.985937
C 135.929375 178.985937 135.478504 179.172694 135.146121 179.505076
C 134.813738 179.837459 134.626981 180.28833 134.626981 180.758391
C 134.626981 181.228451 134.813738 181.679322 135.146121 182.011705
C 135.478504 182.344088 135.929375 182.530844 136.399435 182.530844
z
" style="stroke:#000000;stroke-width:0.886227;"/>
    <path clip-path="url(#pedaabcdc52)" d="M 147.513456 172.656559
C 147.983517 172.656559 148.434388 172.469802 148.76677 172.137419
C 149.099153 171.805036 149.28591 171.354165 149.28591 170.884105
C 149.28591 170.414045 149.099153 169.963174 148.76677 169.630791
C 148.434388 169.298408 147.983517 169.111651 147.513456 169.111651
C 147.043396 169.111651 146.592525 169.298408 146.260142 169.630791
C 145.927759 169.963174 145.741003 170.414045 145.741003 170.884105
C 145.741003 171.354165 145.927759 171.805036 146.260142 172.137419
C 146.592525 172.469802 147.043396 172.656559 147.513456 172.656559
z
" style="stroke:#000000;stroke-width:0.886227;"/>
    <path clip-path="url(#pedaabcdc52)" d="M 92.973658 251.650844
C 93.443718 251.650844 93.89459 251.464088 94.226972 251.131705
C 94.559355 250.799322 94.746112 250.348451 94.746112 249.878391
C 94.746112 249.40833 94.559355 248.957459 94.226972 248.625076
C 93.89459 248.292694 93.443718 248.105937 92.973658 248.105937
C 92.503598 248.105937 92.052727 248.292694 91.720344 248.625076
C 91.387961 248.957459 91.201204 249.40833 91.201204 249.878391
C 91.201204 250.348451 91.387961 250.799322 91.720344 251.131705
C 92.052727 251.464088 92.503598 251.650844 92.973658 251.650844
z
" style="stroke:#000000;stroke-width:0.886227;"/>
    <path clip-path="url(#pedaabcdc52)" d="M 185.996425 88.72513
C 186.466485 88.72513 186.917356 88.538373 187.249739 88.20599
C 187.582122 87.873608 187.768879 87.422737 187.768879 86.952676
C 187.768879 86.482616 187.582122 86.031745 187.249739 85.699362
C 186.917356 85.366979 186.466485 85.180222 185.996425 85.180222
C 185.526365 85.180222 185.075493 85.366979 184.743111 85.699362
C 184.410728 86.031745 184.223971 86.482616 184.223971 86.952676
C 184.223971 87.422737 184.410728 87.873608 184.743111 88.20599
C 185.075493 88.538373 185.526365 88.72513 185.996425 88.72513
z
" style="stroke:#000000;stroke-width:0.886227;"/>
    <path clip-path="url(#pedaabcdc52)" d="M 194.657876 83.787987
C 195.127937 83.787987 195.578808 83.60123 195.91119 83.268848
C 196.243573 82.936465 196.43033 82.485594 196.43033 82.015533
C 196.43033 81.545473 196.243573 81.094602 195.91119 80.762219
C 195.578808 80.429837 195.127937 80.24308 194.657876 80.24308
C 194.187816 80.24308 193.736945 80.429837 193.404562 80.762219
C 193.072179 81.094602 192.885422 81.545473 192.885422 82.015533
C 192.885422 82.485594 193.072179 82.936465 193.404562 83.268848
C 193.736945 83.60123 194.187816 83.787987 194.657876 83.787987
z
" style="stroke:#000000;stroke-width:0.886227;"/>
    <path clip-path="url(#pedaabcdc52)" d="M 316.189232 54.16513
C 316.659292 54.16513 317.110163 53.978373 317.442546 53.64599
C 317.774929 53.313608 317.961686 52.862737 317.961686 52.392676
C 317.961686 51.922616 317.774929 51.471745 317.442546 51.139362
C 317.110163 50.806979 316.659292 50.620222 316.189232 50.620222
C 315.719172 50.620222 315.268301 50.806979 314.935918 51.139362
C 314.603535 51.471745 314.416778 51.922616 314.416778 52.392676
C 314.416778 52.862737 314.603535 53.313608 314.935918 53.64599
C 315.268301 53.978373 315.719172 54.16513 316.189232 54.16513
z
" style="stroke:#000000;stroke-width:0.886227;"/>
    <path clip-path="url(#pedaabcdc52)" d="M 71.782214 276.336559
C 72.252274 276.336559 72.703145 276.149802 73.035528 275.817419
C 73.367911 275.485036 73.554668 275.034165 73.554668 274.564105
C 73.554668 274.094045 73.367911 273.643174 73.035528 273.310791
C 72.703145 272.978408 72.252274 272.791651 71.782214 272.791651
C 71.312154 272.791651 70.861283 272.978408 70.5289 273.310791
C 70.196517 273.643174 70.00976 274.094045 70.00976 274.564105
C 70.00976 275.034165 70.196517 275.485036 70.5289 275.817419
C 70.861283 276.149802 71.312154 276.336559 71.782214 276.336559
z
" style="stroke:#000000;stroke-width:0.886227;"/>
    <path clip-path="url(#pedaabcdc52)" d="M 140.043195 177.593702
C 140.513255 177.593702 140.964126 177.406945 141.296509 177.074562
C 141.628892 176.742179 141.815649 176.291308 141.815649 175.821248
C 141.815649 175.351188 141.628892 174.900316 141.296509 174.567934
C 140.964126 174.235551 140.513255 174.048794 140.043195 174.048794
C 139.573135 174.048794 139.122263 174.235551 138.789881 174.567934
C 138.457498 174.900316 138.270741 175.351188 138.270741 175.821248
C 138.270741 176.291308 138.457498 176.742179 138.789881 177.074562
C 139.122263 177.406945 139.573135 177.593702 140.043195 177.593702
z
" style="stroke:#000000;stroke-width:0.886227;"/>
    <path clip-path="url(#pedaabcdc52)" d="M 154.170555 152.907987
C 154.640615 152.907987 155.091486 152.72123 155.423869 152.388848
C 155.756252 152.056465 155.943009 151.605594 155.943009 151.135533
C 155.943009 150.665473 155.756252 150.214602 155.423869 149.882219
C 155.091486 149.549837 154.640615 149.36308 154.170555 149.36308
C 153.700495 149.36308 153.249624 149.549837 152.917241 149.882219
C 152.584858 150.214602 152.398101 150.665473 152.398101 151.135533
C 152.398101 151.605594 152.584858 152.056465 152.917241 152.388848
C 153.249624 152.72123 153.700495 152.907987 154.170555 152.907987
z
" style="stroke:#000000;stroke-width:0.886227;"/>
    <path clip-path="url(#pedaabcdc52)" d="M 63.004915 286.210844
C 63.474975 286.210844 63.925846 286.024088 64.258229 285.691705
C 64.590612 285.359322 64.777369 284.908451 64.777369 284.438391
C 64.777369 283.96833 64.590612 283.517459 64.258229 283.185076
C 63.925846 282.852694 63.474975 282.665937 63.004915 282.665937
C 62.534855 282.665937 62.083983 282.852694 61.751601 283.185076
C 61.419218 283.517459 61.232461 283.96833 61.232461 284.438391
C 61.232461 284.908451 61.419218 285.359322 61.751601 285.691705
C 62.083983 286.024088 62.534855 286.210844 63.004915 286.210844
z
" style="stroke:#000000;stroke-width:0.886227;"/>
    <path clip-path="url(#pedaabcdc52)" d="M 79.493198 266.462273
C 79.963258 266.462273 80.414129 266.275516 80.746512 265.943133
C 81.078894 265.610751 81.265651 265.159879 81.265651 264.689819
C 81.265651 264.219759 81.078894 263.768888 80.746512 263.436505
C 80.414129 263.104122 79.963258 262.917365 79.493198 262.917365
C 79.023137 262.917365 78.572266 263.104122 78.239883 263.436505
C 77.907501 263.768888 77.720744 264.219759 77.720744 264.689819
C 77.720744 265.159879 77.907501 265.610751 78.239883 265.943133
C 78.572266 266.275516 79.023137 266.462273 79.493198 266.462273
z
" style="stroke:#000000;stroke-width:0.886227;"/>
    <path clip-path="url(#pedaabcdc52)" d="M 101.186887 231.902273
C 101.656947 231.902273 102.107819 231.715516 102.440201 231.383133
C 102.772584 231.050751 102.959341 230.599879 102.959341 230.129819
C 102.959341 229.659759 102.772584 229.208888 102.440201 228.876505
C 102.107819 228.544122 101.656947 228.357365 101.186887 228.357365
C 100.716827 228.357365 100.265956 228.544122 99.933573 228.876505
C 99.60119 229.208888 99.414433 229.659759 99.414433 230.129819
C 99.414433 230.599879 99.60119 231.050751 99.933573 231.383133
C 100.265956 231.715516 100.716827 231.902273 101.186887 231.902273
z
" style="stroke:#000000;stroke-width:0.886227;"/>
    <path clip-path="url(#pedaabcdc52)" d="M 160.278069 138.096559
C 160.748129 138.096559 161.199 137.909802 161.531383 137.577419
C 161.863766 137.245036 162.050523 136.794165 162.050523 136.324105
C 162.050523 135.854045 161.863766 135.403174 161.531383 135.070791
C 161.199 134.738408 160.748129 134.551651 160.278069 134.551651
C 159.808009 134.551651 159.357138 134.738408 159.024755 135.070791
C 158.692372 135.403174 158.505615 135.854045 158.505615 136.324105
C 158.505615 136.794165 158.692372 137.245036 159.024755 137.577419
C 159.357138 137.909802 159.808009 138.096559 160.278069 138.096559
z
" style="stroke:#000000;stroke-width:0.886227;"/>
    <path clip-path="url(#pedaabcdc52)" d="M 96.346798 246.713702
C 96.816858 246.713702 97.267729 246.526945 97.600112 246.194562
C 97.932495 245.862179 98.119252 245.411308 98.119252 244.941248
C 98.119252 244.471188 97.932495 244.020316 97.600112 243.687934
C 97.267729 243.355551 96.816858 243.168794 96.346798 243.168794
C 95.876738 243.168794 95.425866 243.355551 95.093484 243.687934
C 94.761101 244.020316 94.574344 244.471188 94.574344 244.941248
C 94.574344 245.411308 94.761101 245.862179 95.093484 246.194562
C 95.425866 246.526945 95.876738 246.713702 96.346798 246.713702
z
" style="stroke:#000000;stroke-width:0.886227;"/>
    <path clip-path="url(#pedaabcdc52)" d="M 118.398341 207.216559
C 118.868401 207.216559 119.319272 207.029802 119.651655 206.697419
C 119.984038 206.365036 120.170795 205.914165 120.170795 205.444105
C 120.170795 204.974045 119.984038 204.523174 119.651655 204.190791
C 119.319272 203.858408 118.868401 203.671651 118.398341 203.671651
C 117.928281 203.671651 117.47741 203.858408 117.145027 204.190791
C 116.812644 204.523174 116.625887 204.974045 116.625887 205.444105
C 116.625887 205.914165 116.812644 206.365036 117.145027 206.697419
C 117.47741 207.029802 117.928281 207.216559 118.398341 207.216559
z
" style="stroke:#000000;stroke-width:0.886227;"/>
    <path clip-path="url(#pedaabcdc52)" d="M 206.893443 78.850844
C 207.363503 78.850844 207.814374 78.664088 208.146757 78.331705
C 208.47914 77.999322 208.665897 77.548451 208.665897 77.078391
C 208.665897 76.60833 208.47914 76.157459 208.146757 75.825076
C 207.814374 75.492694 207.363503 75.305937 206.893443 75.305937
C 206.423383 75.305937 205.972512 75.492694 205.640129 75.825076
C 205.307746 76.157459 205.120989 76.60833 205.120989 77.078391
C 205.120989 77.548451 205.307746 77.999322 205.640129 78.331705
C 205.972512 78.664088 206.423383 78.850844 206.893443 78.850844
z
" style="stroke:#000000;stroke-width:0.886227;"/>
    <path clip-path="url(#pedaabcdc52)" d="M 161.902439 128.222273
C 162.372499 128.222273 162.82337 128.035516 163.155753 127.703133
C 163.488136 127.370751 163.674893 126.919879 163.674893 126.449819
C 163.674893 125.979759 163.488136 125.528888 163.155753 125.196505
C 162.82337 124.864122 162.372499 124.677365 161.902439 124.677365
C 161.432379 124.677365 160.981508 124.864122 160.649125 125.196505
C 160.316742 125.528888 160.129985 125.979759 160.129985 126.449819
C 160.129985 126.919879 160.316742 127.370751 160.649125 127.703133
C 160.981508 128.035516 161.432379 128.222273 161.902439 128.222273
z
" style="stroke:#000000;stroke-width:0.886227;"/>
    <path clip-path="url(#pedaabcdc52)" d="M 179.667091 98.599416
C 180.137151 98.599416 180.588022 98.412659 180.920405 98.080276
C 181.252788 97.747893 181.439545 97.297022 181.439545 96.826962
C 181.439545 96.356902 181.252788 95.906031 180.920405 95.573648
C 180.588022 95.241265 180.137151 95.054508 179.667091 95.054508
C 179.197031 95.054508 178.74616 95.241265 178.413777 95.573648
C 178.081394 95.906031 177.894637 96.356902 177.894637 96.826962
C 177.894637 97.297022 178.081394 97.747893 178.413777 98.080276
C 178.74616 98.412659 179.197031 98.599416 179.667091 98.599416
z
" style="stroke:#000000;stroke-width:0.886227;"/>
    <path clip-path="url(#pedaabcdc52)" d="M 159.383816 143.033702
C 159.853877 143.033702 160.304748 142.846945 160.63713 142.514562
C 160.969513 142.182179 161.15627 141.731308 161.15627 141.261248
C 161.15627 140.791188 160.969513 140.340316 160.63713 140.007934
C 160.304748 139.675551 159.853877 139.488794 159.383816 139.488794
C 158.913756 139.488794 158.462885 139.675551 158.130502 140.007934
C 157.798119 140.340316 157.611363 140.791188 157.611363 141.261248
C 157.611363 141.731308 157.798119 142.182179 158.130502 142.514562
C 158.462885 142.846945 158.913756 143.033702 159.383816 143.033702
z
" style="stroke:#000000;stroke-width:0.886227;"/>
    <path clip-path="url(#pedaabcdc52)" d="M 176.82109 108.473702
C 177.291151 108.473702 177.742022 108.286945 178.074405 107.954562
C 178.406787 107.622179 178.593544 107.171308 178.593544 106.701248
C 178.593544 106.231188 178.406787 105.780316 178.074405 105.447934
C 177.742022 105.115551 177.291151 104.928794 176.82109 104.928794
C 176.35103 104.928794 175.900159 105.115551 175.567776 105.447934
C 175.235394 105.780316 175.048637 106.231188 175.048637 106.701248
C 175.048637 107.171308 175.235394 107.622179 175.567776 107.954562
C 175.900159 108.286945 176.35103 108.473702 176.82109 108.473702
z
" style="stroke:#000000;stroke-width:0.886227;"/>
    <path clip-path="url(#pedaabcdc52)" d="M 66.287894 281.273702
C 66.757954 281.273702 67.208825 281.086945 67.541208 280.754562
C 67.873591 280.422179 68.060347 279.971308 68.060347 279.501248
C 68.060347 279.031188 67.873591 278.580316 67.541208 278.247934
C 67.208825 277.915551 66.757954 277.728794 66.287894 277.728794
C 65.817833 277.728794 65.366962 277.915551 65.03458 278.247934
C 64.702197 278.580316 64.51544 279.031188 64.51544 279.501248
C 64.51544 279.971308 64.702197 280.422179 65.03458 280.754562
C 65.366962 281.086945 65.817833 281.273702 66.287894 281.273702
z
" style="stroke:#000000;stroke-width:0.886227;"/>
    <path clip-path="url(#pedaabcdc52)" d="M 89.769574 256.587987
C 90.239634 256.587987 90.690505 256.40123 91.022888 256.068848
C 91.355271 255.736465 91.542028 255.285594 91.542028 254.815533
C 91.542028 254.345473 91.355271 253.894602 91.022888 253.562219
C 90.690505 253.229837 90.239634 253.04308 89.769574 253.04308
C 89.299514 253.04308 88.848643 253.229837 88.51626 253.562219
C 88.183877 253.894602 87.99712 254.345473 87.99712 254.815533
C 87.99712 255.285594 88.183877 255.736465 88.51626 256.068848
C 88.848643 256.40123 89.299514 256.587987 89.769574 256.587987
z
" style="stroke:#000000;stroke-width:0.886227;"/>
    <path clip-path="url(#pedaabcdc52)" d="M 104.629439 222.027987
C 105.099499 222.027987 105.55037 221.84123 105.882753 221.508848
C 106.215136 221.176465 106.401893 220.725594 106.401893 220.255533
C 106.401893 219.785473 106.215136 219.334602 105.882753 219.002219
C 105.55037 218.669837 105.099499 218.48308 104.629439 218.48308
C 104.159379 218.48308 103.708508 218.669837 103.376125 219.002219
C 103.043742 219.334602 102.856985 219.785473 102.856985 220.255533
C 102.856985 220.725594 103.043742 221.176465 103.376125 221.508848
C 103.708508 221.84123 104.159379 222.027987 104.629439 222.027987
z
" style="stroke:#000000;stroke-width:0.886227;"/>
    <path clip-path="url(#pedaabcdc52)" d="M 123.610679 192.40513
C 124.08074 192.40513 124.531611 192.218373 124.863993 191.88599
C 125.196376 191.553608 125.383133 191.102737 125.383133 190.632676
C 125.383133 190.162616 125.196376 189.711745 124.863993 189.379362
C 124.531611 189.046979 124.08074 188.860222 123.610679 188.860222
C 123.140619 188.860222 122.689748 189.046979 122.357365 189.379362
C 122.024982 189.711745 121.838225 190.162616 121.838225 190.632676
C 121.838225 191.102737 122.024982 191.553608 122.357365 191.88599
C 122.689748 192.218373 123.140619 192.40513 123.610679 192.40513
z
" style="stroke:#000000;stroke-width:0.886227;"/>
    <path clip-path="url(#pedaabcdc52)" d="M 98.045442 241.776559
C 98.515502 241.776559 98.966374 241.589802 99.298756 241.257419
C 99.631139 240.925036 99.817896 240.474165 99.817896 240.004105
C 99.817896 239.534045 99.631139 239.083174 99.298756 238.750791
C 98.966374 238.418408 98.515502 238.231651 98.045442 238.231651
C 97.575382 238.231651 97.124511 238.418408 96.792128 238.750791
C 96.459745 239.083174 96.272988 239.534045 96.272988 240.004105
C 96.272988 240.474165 96.459745 240.925036 96.792128 241.257419
C 97.124511 241.589802 97.575382 241.776559 98.045442 241.776559
z
" style="stroke:#000000;stroke-width:0.886227;"/>
    <path clip-path="url(#pedaabcdc52)" d="M 150.608262 157.84513
C 151.078323 157.84513 151.529194 157.658373 151.861576 157.32599
C 152.193959 156.993608 152.380716 156.542737 152.380716 156.072676
C 152.380716 155.602616 152.193959 155.151745 151.861576 154.819362
C 151.529194 154.486979 151.078323 154.300222 150.608262 154.300222
C 150.138202 154.300222 149.687331 154.486979 149.354948 154.819362
C 149.022565 155.151745 148.835808 155.602616 148.835808 156.072676
C 148.835808 156.542737 149.022565 156.993608 149.354948 157.32599
C 149.687331 157.658373 150.138202 157.84513 150.608262 157.84513
z
" style="stroke:#000000;stroke-width:0.886227;"/>
    <path clip-path="url(#pedaabcdc52)" d="M 224.960696 73.913702
C 225.430756 73.913702 225.881627 73.726945 226.21401 73.394562
C 226.546393 73.062179 226.73315 72.611308 226.73315 72.141248
C 226.73315 71.671188 226.546393 71.220316 226.21401 70.887934
C 225.881627 70.555551 225.430756 70.368794 224.960696 70.368794
C 224.490636 70.368794 224.039765 70.555551 223.707382 70.887934
C 223.374999 71.220316 223.188242 71.671188 223.188242 72.141248
C 223.188242 72.611308 223.374999 73.062179 223.707382 73.394562
C 224.039765 73.726945 224.490636 73.913702 224.960696 73.913702
z
" style="stroke:#000000;stroke-width:0.886227;"/>
    <path clip-path="url(#pedaabcdc52)" d="M 119.39093 197.342273
C 119.86099 197.342273 120.311861 197.155516 120.644244 196.823133
C 120.976627 196.490751 121.163384 196.039879 121.163384 195.569819
C 121.163384 195.099759 120.976627 194.648888 120.644244 194.316505
C 120.311861 193.984122 119.86099 193.797365 119.39093 193.797365
C 118.920869 193.797365 118.469998 193.984122 118.137616 194.316505
C 117.805233 194.648888 117.618476 195.099759 117.618476 195.569819
C 117.618476 196.039879 117.805233 196.490751 118.137616 196.823133
C 118.469998 197.155516 118.920869 197.342273 119.39093 197.342273
z
" style="stroke:#000000;stroke-width:0.886227;"/>
    <path clip-path="url(#pedaabcdc52)" d="M 101.54527 226.96513
C 102.015331 226.96513 102.466202 226.778373 102.798584 226.44599
C 103.130967 226.113608 103.317724 225.662737 103.317724 225.192676
C 103.317724 224.722616 103.130967 224.271745 102.798584 223.939362
C 102.466202 223.606979 102.015331 223.420222 101.54527 223.420222
C 101.07521 223.420222 100.624339 223.606979 100.291956 223.939362
C 99.959573 224.271745 99.772816 224.722616 99.772816 225.192676
C 99.772816 225.662737 99.959573 226.113608 100.291956 226.44599
C 100.624339 226.778373 101.07521 226.96513 101.54527 226.96513
z
" style="stroke:#000000;stroke-width:0.886227;"/>
    <path clip-path="url(#pedaabcdc52)" d="M 82.35121 261.52513
C 82.82127 261.52513 83.272141 261.338373 83.604524 261.00599
C 83.936907 260.673608 84.123664 260.222737 84.123664 259.752676
C 84.123664 259.282616 83.936907 258.831745 83.604524 258.499362
C 83.272141 258.166979 82.82127 257.980222 82.35121 257.980222
C 81.881149 257.980222 81.430278 258.166979 81.097896 258.499362
C 80.765513 258.831745 80.578756 259.282616 80.578756 259.752676
C 80.578756 260.222737 80.765513 260.673608 81.097896 261.00599
C 81.430278 261.338373 81.881149 261.52513 82.35121 261.52513
z
" style="stroke:#000000;stroke-width:0.886227;"/>
    <path clip-path="url(#pedaabcdc52)" d="M 156.231803 147.970844
C 156.701864 147.970844 157.152735 147.784088 157.485118 147.451705
C 157.8175 147.119322 158.004257 146.668451 158.004257 146.198391
C 158.004257 145.72833 157.8175 145.277459 157.485118 144.945076
C 157.152735 144.612694 156.701864 144.425937 156.231803 144.425937
C 155.761743 144.425937 155.310872 144.612694 154.978489 144.945076
C 154.646106 145.277459 154.45935 145.72833 154.45935 146.198391
C 154.45935 146.668451 154.646106 147.119322 154.978489 147.451705
C 155.310872 147.784088 155.761743 147.970844 156.231803 147.970844
z
" style="stroke:#000000;stroke-width:0.886227;"/>
   </g>
   <g id="PathCollection_2">
    <path clip-path="url(#pedaabcdc52)" d="M 387.65946 44.290844
C 388.12952 44.290844 388.580392 44.104088 388.912774 43.771705
C 389.245157 43.439322 389.431914 42.988451 389.431914 42.518391
C 389.431914 42.04833 389.245157 41.597459 388.912774 41.265076
C 388.580392 40.932694 388.12952 40.745937 387.65946 40.745937
C 387.1894 40.745937 386.738529 40.932694 386.406146 41.265076
C 386.073763 41.597459 385.887006 42.04833 385.887006 42.518391
C 385.887006 42.988451 386.073763 43.439322 386.406146 43.771705
C 386.738529 44.104088 387.1894 44.290844 387.65946 44.290844
z
" style="fill:#ff0000;stroke:#ff0000;stroke-width:0.886227;"/>
    <path clip-path="url(#pedaabcdc52)" d="M 348.758582 49.227987
C 349.228642 49.227987 349.679513 49.04123 350.011896 48.708848
C 350.344278 48.376465 350.531035 47.925594 350.531035 47.455533
C 350.531035 46.985473 350.344278 46.534602 350.011896 46.202219
C 349.679513 45.869837 349.228642 45.68308 348.758582 45.68308
C 348.288521 45.68308 347.83765 45.869837 347.505267 46.202219
C 347.172885 46.534602 346.986128 46.985473 346.986128 47.455533
C 346.986128 47.925594 347.172885 48.376465 347.505267 48.708848
C 347.83765 49.04123 348.288521 49.227987 348.758582 49.227987
z
" style="fill:#ff0000;stroke:#ff0000;stroke-width:0.886227;"/>
    <path clip-path="url(#pedaabcdc52)" d="M 239.859651 64.039416
C 240.329711 64.039416 240.780582 63.852659 241.112965 63.520276
C 241.445348 63.187893 241.632105 62.737022 241.632105 62.266962
C 241.632105 61.796902 241.445348 61.346031 241.112965 61.013648
C 240.780582 60.681265 240.329711 60.494508 239.859651 60.494508
C 239.389591 60.494508 238.93872 60.681265 238.606337 61.013648
C 238.273954 61.346031 238.087197 61.796902 238.087197 62.266962
C 238.087197 62.737022 238.273954 63.187893 238.606337 63.520276
C 238.93872 63.852659 239.389591 64.039416 239.859651 64.039416
z
" style="fill:#ff0000;stroke:#ff0000;stroke-width:0.886227;"/>
    <path clip-path="url(#pedaabcdc52)" d="M 280.258618 59.102273
C 280.728678 59.102273 281.179549 58.915516 281.511932 58.583133
C 281.844315 58.250751 282.031072 57.799879 282.031072 57.329819
C 282.031072 56.859759 281.844315 56.408888 281.511932 56.076505
C 281.179549 55.744122 280.728678 55.557365 280.258618 55.557365
C 279.788558 55.557365 279.337687 55.744122 279.005304 56.076505
C 278.672921 56.408888 278.486164 56.859759 278.486164 57.329819
C 278.486164 57.799879 278.672921 58.250751 279.005304 58.583133
C 279.337687 58.915516 279.788558 59.102273 280.258618 59.102273
z
" style="fill:#ff0000;stroke:#ff0000;stroke-width:0.886227;"/>
    <path clip-path="url(#pedaabcdc52)" d="M 316.189232 54.16513
C 316.659292 54.16513 317.110163 53.978373 317.442546 53.64599
C 317.774929 53.313608 317.961686 52.862737 317.961686 52.392676
C 317.961686 51.922616 317.774929 51.471745 317.442546 51.139362
C 317.110163 50.806979 316.659292 50.620222 316.189232 50.620222
C 315.719172 50.620222 315.268301 50.806979 314.935918 51.139362
C 314.603535 51.471745 314.416778 51.922616 314.416778 52.392676
C 314.416778 52.862737 314.603535 53.313608 314.935918 53.64599
C 315.268301 53.978373 315.719172 54.16513 316.189232 54.16513
z
" style="fill:#ff0000;stroke:#ff0000;stroke-width:0.886227;"/>
   </g>
   <g id="text_12">
    <g clip-path="url(#pedaabcdc52)">
     <!-- HALLMARK_TNFA_SIGNALING_VIA_NFKB -->
     <defs>
      <path d="M 9.8125 72.90625
L 19.671875 72.90625
L 19.671875 43.015625
L 55.515625 43.015625
L 55.515625 72.90625
L 65.375 72.90625
L 65.375 0
L 55.515625 0
L 55.515625 34.71875
L 19.671875 34.71875
L 19.671875 0
L 9.8125 0
z
" id="DejaVuSans-72"/>
      <path d="M 34.1875 63.1875
L 20.796875 26.90625
L 47.609375 26.90625
z
M 28.609375 72.90625
L 39.796875 72.90625
L 67.578125 0
L 57.328125 0
L 50.6875 18.703125
L 17.828125 18.703125
L 11.1875 0
L 0.78125 0
z
" id="DejaVuSans-65"/>
      <path d="M 9.8125 72.90625
L 19.671875 72.90625
L 19.671875 8.296875
L 55.171875 8.296875
L 55.171875 0
L 9.8125 0
z
" id="DejaVuSans-76"/>
      <path d="M 44.390625 34.1875
Q 47.5625 33.109375 50.5625 29.59375
Q 53.5625 26.078125 56.59375 19.921875
L 66.609375 0
L 56 0
L 46.6875 18.703125
Q 43.0625 26.03125 39.671875 28.421875
Q 36.28125 30.8125 30.421875 30.8125
L 19.671875 30.8125
L 19.671875 0
L 9.8125 0
L 9.8125 72.90625
L 32.078125 72.90625
Q 44.578125 72.90625 50.734375 67.671875
Q 56.890625 62.453125 56.890625 51.90625
Q 56.890625 45.015625 53.6875 40.46875
Q 50.484375 35.9375 44.390625 34.1875
z
M 19.671875 64.796875
L 19.671875 38.921875
L 32.078125 38.921875
Q 39.203125 38.921875 42.84375 42.21875
Q 46.484375 45.515625 46.484375 51.90625
Q 46.484375 58.296875 42.84375 61.546875
Q 39.203125 64.796875 32.078125 64.796875
z
" id="DejaVuSans-82"/>
      <path d="M 9.8125 72.90625
L 19.671875 72.90625
L 19.671875 42.09375
L 52.390625 72.90625
L 65.09375 72.90625
L 28.90625 38.921875
L 67.671875 0
L 54.6875 0
L 19.671875 35.109375
L 19.671875 0
L 9.8125 0
z
" id="DejaVuSans-75"/>
      <path d="M 50.984375 -16.609375
L 50.984375 -23.578125
L -0.984375 -23.578125
L -0.984375 -16.609375
z
" id="DejaVuSans-95"/>
      <path d="M -0.296875 72.90625
L 61.375 72.90625
L 61.375 64.59375
L 35.5 64.59375
L 35.5 0
L 25.59375 0
L 25.59375 64.59375
L -0.296875 64.59375
z
" id="DejaVuSans-84"/>
      <path d="M 9.8125 72.90625
L 23.09375 72.90625
L 55.421875 11.921875
L 55.421875 72.90625
L 64.984375 72.90625
L 64.984375 0
L 51.703125 0
L 19.390625 60.984375
L 19.390625 0
L 9.8125 0
z
" id="DejaVuSans-78"/>
      <path d="M 9.8125 72.90625
L 51.703125 72.90625
L 51.703125 64.59375
L 19.671875 64.59375
L 19.671875 43.109375
L 48.578125 43.109375
L 48.578125 34.8125
L 19.671875 34.8125
L 19.671875 0
L 9.8125 0
z
" id="DejaVuSans-70"/>
      <path d="M 53.515625 70.515625
L 53.515625 60.890625
Q 47.90625 63.578125 42.921875 64.890625
Q 37.9375 66.21875 33.296875 66.21875
Q 25.25 66.21875 20.875 63.09375
Q 16.5 59.96875 16.5 54.203125
Q 16.5 49.359375 19.40625 46.890625
Q 22.3125 44.4375 30.421875 42.921875
L 36.375 41.703125
Q 47.40625 39.59375 52.65625 34.296875
Q 57.90625 29 57.90625 20.125
Q 57.90625 9.515625 50.796875 4.046875
Q 43.703125 -1.421875 29.984375 -1.421875
Q 24.8125 -1.421875 18.96875 -0.25
Q 13.140625 0.921875 6.890625 3.21875
L 6.890625 13.375
Q 12.890625 10.015625 18.65625 8.296875
Q 24.421875 6.59375 29.984375 6.59375
Q 38.421875 6.59375 43.015625 9.90625
Q 47.609375 13.234375 47.609375 19.390625
Q 47.609375 24.75 44.3125 27.78125
Q 41.015625 30.8125 33.5 32.328125
L 27.484375 33.5
Q 16.453125 35.6875 11.515625 40.375
Q 6.59375 45.0625 6.59375 53.421875
Q 6.59375 63.09375 13.40625 68.65625
Q 20.21875 74.21875 32.171875 74.21875
Q 37.3125 74.21875 42.625 73.28125
Q 47.953125 72.359375 53.515625 70.515625
z
" id="DejaVuSans-83"/>
      <path d="M 9.8125 72.90625
L 19.671875 72.90625
L 19.671875 0
L 9.8125 0
z
" id="DejaVuSans-73"/>
      <path d="M 59.515625 10.40625
L 59.515625 29.984375
L 43.40625 29.984375
L 43.40625 38.09375
L 69.28125 38.09375
L 69.28125 6.78125
Q 63.578125 2.734375 56.6875 0.65625
Q 49.8125 -1.421875 42 -1.421875
Q 24.90625 -1.421875 15.25 8.5625
Q 5.609375 18.5625 5.609375 36.375
Q 5.609375 54.25 15.25 64.234375
Q 24.90625 74.21875 42 74.21875
Q 49.125 74.21875 55.546875 72.453125
Q 61.96875 70.703125 67.390625 67.28125
L 67.390625 56.78125
Q 61.921875 61.421875 55.765625 63.765625
Q 49.609375 66.109375 42.828125 66.109375
Q 29.4375 66.109375 22.71875 58.640625
Q 16.015625 51.171875 16.015625 36.375
Q 16.015625 21.625 22.71875 14.15625
Q 29.4375 6.6875 42.828125 6.6875
Q 48.046875 6.6875 52.140625 7.59375
Q 56.25 8.5 59.515625 10.40625
z
" id="DejaVuSans-71"/>
      <path d="M 28.609375 0
L 0.78125 72.90625
L 11.078125 72.90625
L 34.1875 11.53125
L 57.328125 72.90625
L 67.578125 72.90625
L 39.796875 0
z
" id="DejaVuSans-86"/>
      <path d="M 19.671875 34.8125
L 19.671875 8.109375
L 35.5 8.109375
Q 43.453125 8.109375 47.28125 11.40625
Q 51.125 14.703125 51.125 21.484375
Q 51.125 28.328125 47.28125 31.5625
Q 43.453125 34.8125 35.5 34.8125
z
M 19.671875 64.796875
L 19.671875 42.828125
L 34.28125 42.828125
Q 41.5 42.828125 45.03125 45.53125
Q 48.578125 48.25 48.578125 53.8125
Q 48.578125 59.328125 45.03125 62.0625
Q 41.5 64.796875 34.28125 64.796875
z
M 9.8125 72.90625
L 35.015625 72.90625
Q 46.296875 72.90625 52.390625 68.21875
Q 58.5 63.53125 58.5 54.890625
Q 58.5 48.1875 55.375 44.234375
Q 52.25 40.28125 46.1875 39.3125
Q 53.46875 37.75 57.5 32.78125
Q 61.53125 27.828125 61.53125 20.40625
Q 61.53125 10.640625 54.890625 5.3125
Q 48.25 0 35.984375 0
L 9.8125 0
z
" id="DejaVuSans-66"/>
     </defs>
     <g transform="translate(288.13446 46.229328)scale(0.05 -0.05)">
      <use xlink:href="#DejaVuSans-72"/>
      <use x="75.195312" xlink:href="#DejaVuSans-65"/>
      <use x="143.603516" xlink:href="#DejaVuSans-76"/>
      <use x="199.316406" xlink:href="#DejaVuSans-76"/>
      <use x="255.029297" xlink:href="#DejaVuSans-77"/>
      <use x="341.308594" xlink:href="#DejaVuSans-65"/>
      <use x="409.716797" xlink:href="#DejaVuSans-82"/>
      <use x="479.199219" xlink:href="#DejaVuSans-75"/>
      <use x="544.775391" xlink:href="#DejaVuSans-95"/>
      <use x="594.775391" xlink:href="#DejaVuSans-84"/>
      <use x="655.859375" xlink:href="#DejaVuSans-78"/>
      <use x="730.664062" xlink:href="#DejaVuSans-70"/>
      <use x="788.042969" xlink:href="#DejaVuSans-65"/>
      <use x="856.451172" xlink:href="#DejaVuSans-95"/>
      <use x="906.451172" xlink:href="#DejaVuSans-83"/>
      <use x="969.927734" xlink:href="#DejaVuSans-73"/>
      <use x="999.419922" xlink:href="#DejaVuSans-71"/>
      <use x="1076.910156" xlink:href="#DejaVuSans-78"/>
      <use x="1151.714844" xlink:href="#DejaVuSans-65"/>
      <use x="1220.123047" xlink:href="#DejaVuSans-76"/>
      <use x="1275.835938" xlink:href="#DejaVuSans-73"/>
      <use x="1305.328125" xlink:href="#DejaVuSans-78"/>
      <use x="1380.132812" xlink:href="#DejaVuSans-71"/>
      <use x="1457.623047" xlink:href="#DejaVuSans-95"/>
      <use x="1507.623047" xlink:href="#DejaVuSans-86"/>
      <use x="1576.03125" xlink:href="#DejaVuSans-73"/>
      <use x="1605.523438" xlink:href="#DejaVuSans-65"/>
      <use x="1673.931641" xlink:href="#DejaVuSans-95"/>
      <use x="1723.931641" xlink:href="#DejaVuSans-78"/>
      <use x="1798.736328" xlink:href="#DejaVuSans-70"/>
      <use x="1856.255859" xlink:href="#DejaVuSans-75"/>
      <use x="1921.832031" xlink:href="#DejaVuSans-66"/>
     </g>
    </g>
   </g>
   <g id="text_13">
    <g clip-path="url(#pedaabcdc52)">
     <!-- HALLMARK_INTERFERON_GAMMA_RESPONSE -->
     <defs>
      <path d="M 39.40625 66.21875
Q 28.65625 66.21875 22.328125 58.203125
Q 16.015625 50.203125 16.015625 36.375
Q 16.015625 22.609375 22.328125 14.59375
Q 28.65625 6.59375 39.40625 6.59375
Q 50.140625 6.59375 56.421875 14.59375
Q 62.703125 22.609375 62.703125 36.375
Q 62.703125 50.203125 56.421875 58.203125
Q 50.140625 66.21875 39.40625 66.21875
z
M 39.40625 74.21875
Q 54.734375 74.21875 63.90625 63.9375
Q 73.09375 53.65625 73.09375 36.375
Q 73.09375 19.140625 63.90625 8.859375
Q 54.734375 -1.421875 39.40625 -1.421875
Q 24.03125 -1.421875 14.8125 8.828125
Q 5.609375 19.09375 5.609375 36.375
Q 5.609375 53.65625 14.8125 63.9375
Q 24.03125 74.21875 39.40625 74.21875
z
" id="DejaVuSans-79"/>
      <path d="M 19.671875 64.796875
L 19.671875 37.40625
L 32.078125 37.40625
Q 38.96875 37.40625 42.71875 40.96875
Q 46.484375 44.53125 46.484375 51.125
Q 46.484375 57.671875 42.71875 61.234375
Q 38.96875 64.796875 32.078125 64.796875
z
M 9.8125 72.90625
L 32.078125 72.90625
Q 44.34375 72.90625 50.609375 67.359375
Q 56.890625 61.8125 56.890625 51.125
Q 56.890625 40.328125 50.609375 34.8125
Q 44.34375 29.296875 32.078125 29.296875
L 19.671875 29.296875
L 19.671875 0
L 9.8125 0
z
" id="DejaVuSans-80"/>
     </defs>
     <g transform="translate(235.753894 51.166471)scale(0.05 -0.05)">
      <use xlink:href="#DejaVuSans-72"/>
      <use x="75.195312" xlink:href="#DejaVuSans-65"/>
      <use x="143.603516" xlink:href="#DejaVuSans-76"/>
      <use x="199.316406" xlink:href="#DejaVuSans-76"/>
      <use x="255.029297" xlink:href="#DejaVuSans-77"/>
      <use x="341.308594" xlink:href="#DejaVuSans-65"/>
      <use x="409.716797" xlink:href="#DejaVuSans-82"/>
      <use x="479.199219" xlink:href="#DejaVuSans-75"/>
      <use x="544.775391" xlink:href="#DejaVuSans-95"/>
      <use x="594.775391" xlink:href="#DejaVuSans-73"/>
      <use x="624.267578" xlink:href="#DejaVuSans-78"/>
      <use x="699.072266" xlink:href="#DejaVuSans-84"/>
      <use x="760.15625" xlink:href="#DejaVuSans-69"/>
      <use x="823.339844" xlink:href="#DejaVuSans-82"/>
      <use x="892.822266" xlink:href="#DejaVuSans-70"/>
      <use x="950.341797" xlink:href="#DejaVuSans-69"/>
      <use x="1013.525391" xlink:href="#DejaVuSans-82"/>
      <use x="1083.007812" xlink:href="#DejaVuSans-79"/>
      <use x="1161.71875" xlink:href="#DejaVuSans-78"/>
      <use x="1236.523438" xlink:href="#DejaVuSans-95"/>
      <use x="1286.523438" xlink:href="#DejaVuSans-71"/>
      <use x="1364.013672" xlink:href="#DejaVuSans-65"/>
      <use x="1432.421875" xlink:href="#DejaVuSans-77"/>
      <use x="1518.701172" xlink:href="#DejaVuSans-77"/>
      <use x="1604.980469" xlink:href="#DejaVuSans-65"/>
      <use x="1673.388672" xlink:href="#DejaVuSans-95"/>
      <use x="1723.388672" xlink:href="#DejaVuSans-82"/>
      <use x="1792.871094" xlink:href="#DejaVuSans-69"/>
      <use x="1856.054688" xlink:href="#DejaVuSans-83"/>
      <use x="1919.53125" xlink:href="#DejaVuSans-80"/>
      <use x="1979.833984" xlink:href="#DejaVuSans-79"/>
      <use x="2058.544922" xlink:href="#DejaVuSans-78"/>
      <use x="2133.349609" xlink:href="#DejaVuSans-83"/>
      <use x="2196.826172" xlink:href="#DejaVuSans-69"/>
     </g>
    </g>
   </g>
   <g id="text_14">
    <g clip-path="url(#pedaabcdc52)">
     <!-- HALLMARK_INFLAMMATORY_RESPONSE -->
     <defs>
      <path d="M -0.203125 72.90625
L 10.40625 72.90625
L 30.609375 42.921875
L 50.6875 72.90625
L 61.28125 72.90625
L 35.5 34.71875
L 35.5 0
L 25.59375 0
L 25.59375 34.71875
z
" id="DejaVuSans-89"/>
     </defs>
     <g transform="translate(140.931526 65.9779)scale(0.05 -0.05)">
      <use xlink:href="#DejaVuSans-72"/>
      <use x="75.195312" xlink:href="#DejaVuSans-65"/>
      <use x="143.603516" xlink:href="#DejaVuSans-76"/>
      <use x="199.316406" xlink:href="#DejaVuSans-76"/>
      <use x="255.029297" xlink:href="#DejaVuSans-77"/>
      <use x="341.308594" xlink:href="#DejaVuSans-65"/>
      <use x="409.716797" xlink:href="#DejaVuSans-82"/>
      <use x="479.199219" xlink:href="#DejaVuSans-75"/>
      <use x="544.775391" xlink:href="#DejaVuSans-95"/>
      <use x="594.775391" xlink:href="#DejaVuSans-73"/>
      <use x="624.267578" xlink:href="#DejaVuSans-78"/>
      <use x="699.072266" xlink:href="#DejaVuSans-70"/>
      <use x="756.591797" xlink:href="#DejaVuSans-76"/>
      <use x="812.335938" xlink:href="#DejaVuSans-65"/>
      <use x="880.744141" xlink:href="#DejaVuSans-77"/>
      <use x="967.023438" xlink:href="#DejaVuSans-77"/>
      <use x="1053.302734" xlink:href="#DejaVuSans-65"/>
      <use x="1121.601562" xlink:href="#DejaVuSans-84"/>
      <use x="1182.685547" xlink:href="#DejaVuSans-79"/>
      <use x="1261.396484" xlink:href="#DejaVuSans-82"/>
      <use x="1330.785156" xlink:href="#DejaVuSans-89"/>
      <use x="1391.869141" xlink:href="#DejaVuSans-95"/>
      <use x="1441.869141" xlink:href="#DejaVuSans-82"/>
      <use x="1511.351562" xlink:href="#DejaVuSans-69"/>
      <use x="1574.535156" xlink:href="#DejaVuSans-83"/>
      <use x="1638.011719" xlink:href="#DejaVuSans-80"/>
      <use x="1698.314453" xlink:href="#DejaVuSans-79"/>
      <use x="1777.025391" xlink:href="#DejaVuSans-78"/>
      <use x="1851.830078" xlink:href="#DejaVuSans-83"/>
      <use x="1915.306641" xlink:href="#DejaVuSans-69"/>
     </g>
    </g>
   </g>
   <g id="text_15">
    <g clip-path="url(#pedaabcdc52)">
     <!-- HALLMARK_IL6_JAK_STAT3_SIGNALING -->
     <defs>
      <path d="M 9.8125 72.90625
L 19.671875 72.90625
L 19.671875 5.078125
Q 19.671875 -8.109375 14.671875 -14.0625
Q 9.671875 -20.015625 -1.421875 -20.015625
L -5.171875 -20.015625
L -5.171875 -11.71875
L -2.09375 -11.71875
Q 4.4375 -11.71875 7.125 -8.046875
Q 9.8125 -4.390625 9.8125 5.078125
z
" id="DejaVuSans-74"/>
      <path d="M 40.578125 39.3125
Q 47.65625 37.796875 51.625 33
Q 55.609375 28.21875 55.609375 21.1875
Q 55.609375 10.40625 48.1875 4.484375
Q 40.765625 -1.421875 27.09375 -1.421875
Q 22.515625 -1.421875 17.65625 -0.515625
Q 12.796875 0.390625 7.625 2.203125
L 7.625 11.71875
Q 11.71875 9.328125 16.59375 8.109375
Q 21.484375 6.890625 26.8125 6.890625
Q 36.078125 6.890625 40.9375 10.546875
Q 45.796875 14.203125 45.796875 21.1875
Q 45.796875 27.640625 41.28125 31.265625
Q 36.765625 34.90625 28.71875 34.90625
L 20.21875 34.90625
L 20.21875 43.015625
L 29.109375 43.015625
Q 36.375 43.015625 40.234375 45.921875
Q 44.09375 48.828125 44.09375 54.296875
Q 44.09375 59.90625 40.109375 62.90625
Q 36.140625 65.921875 28.71875 65.921875
Q 24.65625 65.921875 20.015625 65.03125
Q 15.375 64.15625 9.8125 62.3125
L 9.8125 71.09375
Q 15.4375 72.65625 20.34375 73.4375
Q 25.25 74.21875 29.59375 74.21875
Q 40.828125 74.21875 47.359375 69.109375
Q 53.90625 64.015625 53.90625 55.328125
Q 53.90625 49.265625 50.4375 45.09375
Q 46.96875 40.921875 40.578125 39.3125
z
" id="DejaVuSans-51"/>
     </defs>
     <g transform="translate(183.970337 61.040757)scale(0.05 -0.05)">
      <use xlink:href="#DejaVuSans-72"/>
      <use x="75.195312" xlink:href="#DejaVuSans-65"/>
      <use x="143.603516" xlink:href="#DejaVuSans-76"/>
      <use x="199.316406" xlink:href="#DejaVuSans-76"/>
      <use x="255.029297" xlink:href="#DejaVuSans-77"/>
      <use x="341.308594" xlink:href="#DejaVuSans-65"/>
      <use x="409.716797" xlink:href="#DejaVuSans-82"/>
      <use x="479.199219" xlink:href="#DejaVuSans-75"/>
      <use x="544.775391" xlink:href="#DejaVuSans-95"/>
      <use x="594.775391" xlink:href="#DejaVuSans-73"/>
      <use x="624.267578" xlink:href="#DejaVuSans-76"/>
      <use x="679.980469" xlink:href="#DejaVuSans-54"/>
      <use x="743.603516" xlink:href="#DejaVuSans-95"/>
      <use x="793.603516" xlink:href="#DejaVuSans-74"/>
      <use x="823.080078" xlink:href="#DejaVuSans-65"/>
      <use x="891.488281" xlink:href="#DejaVuSans-75"/>
      <use x="957.064453" xlink:href="#DejaVuSans-95"/>
      <use x="1007.064453" xlink:href="#DejaVuSans-83"/>
      <use x="1070.541016" xlink:href="#DejaVuSans-84"/>
      <use x="1131.515625" xlink:href="#DejaVuSans-65"/>
      <use x="1199.814453" xlink:href="#DejaVuSans-84"/>
      <use x="1260.898438" xlink:href="#DejaVuSans-51"/>
      <use x="1324.521484" xlink:href="#DejaVuSans-95"/>
      <use x="1374.521484" xlink:href="#DejaVuSans-83"/>
      <use x="1437.998047" xlink:href="#DejaVuSans-73"/>
      <use x="1467.490234" xlink:href="#DejaVuSans-71"/>
      <use x="1544.980469" xlink:href="#DejaVuSans-78"/>
      <use x="1619.785156" xlink:href="#DejaVuSans-65"/>
      <use x="1688.193359" xlink:href="#DejaVuSans-76"/>
      <use x="1743.90625" xlink:href="#DejaVuSans-73"/>
      <use x="1773.398438" xlink:href="#DejaVuSans-78"/>
      <use x="1848.203125" xlink:href="#DejaVuSans-71"/>
     </g>
    </g>
   </g>
   <g id="text_16">
    <g clip-path="url(#pedaabcdc52)">
     <!-- HALLMARK_INTERFERON_ALPHA_RESPONSE -->
     <g transform="translate(206.125951 56.103614)scale(0.05 -0.05)">
      <use xlink:href="#DejaVuSans-72"/>
      <use x="75.195312" xlink:href="#DejaVuSans-65"/>
      <use x="143.603516" xlink:href="#DejaVuSans-76"/>
      <use x="199.316406" xlink:href="#DejaVuSans-76"/>
      <use x="255.029297" xlink:href="#DejaVuSans-77"/>
      <use x="341.308594" xlink:href="#DejaVuSans-65"/>
      <use x="409.716797" xlink:href="#DejaVuSans-82"/>
      <use x="479.199219" xlink:href="#DejaVuSans-75"/>
      <use x="544.775391" xlink:href="#DejaVuSans-95"/>
      <use x="594.775391" xlink:href="#DejaVuSans-73"/>
      <use x="624.267578" xlink:href="#DejaVuSans-78"/>
      <use x="699.072266" xlink:href="#DejaVuSans-84"/>
      <use x="760.15625" xlink:href="#DejaVuSans-69"/>
      <use x="823.339844" xlink:href="#DejaVuSans-82"/>
      <use x="892.822266" xlink:href="#DejaVuSans-70"/>
      <use x="950.341797" xlink:href="#DejaVuSans-69"/>
      <use x="1013.525391" xlink:href="#DejaVuSans-82"/>
      <use x="1083.007812" xlink:href="#DejaVuSans-79"/>
      <use x="1161.71875" xlink:href="#DejaVuSans-78"/>
      <use x="1236.523438" xlink:href="#DejaVuSans-95"/>
      <use x="1286.523438" xlink:href="#DejaVuSans-65"/>
      <use x="1354.931641" xlink:href="#DejaVuSans-76"/>
      <use x="1410.644531" xlink:href="#DejaVuSans-80"/>
      <use x="1470.947266" xlink:href="#DejaVuSans-72"/>
      <use x="1546.142578" xlink:href="#DejaVuSans-65"/>
      <use x="1614.550781" xlink:href="#DejaVuSans-95"/>
      <use x="1664.550781" xlink:href="#DejaVuSans-82"/>
      <use x="1734.033203" xlink:href="#DejaVuSans-69"/>
      <use x="1797.216797" xlink:href="#DejaVuSans-83"/>
      <use x="1860.693359" xlink:href="#DejaVuSans-80"/>
      <use x="1920.996094" xlink:href="#DejaVuSans-79"/>
      <use x="1999.707031" xlink:href="#DejaVuSans-78"/>
      <use x="2074.511719" xlink:href="#DejaVuSans-83"/>
      <use x="2137.988281" xlink:href="#DejaVuSans-69"/>
     </g>
    </g>
   </g>
  </g>
  <g id="text_17">
   <!-- GSVA pathway statistics vs ranking -->
   <defs>
    <path d="M 4.203125 54.6875
L 13.1875 54.6875
L 24.421875 12.015625
L 35.59375 54.6875
L 46.1875 54.6875
L 57.421875 12.015625
L 68.609375 54.6875
L 77.59375 54.6875
L 63.28125 0
L 52.6875 0
L 40.921875 44.828125
L 29.109375 0
L 18.5 0
z
" id="DejaVuSans-119"/>
    <path d="M 2.984375 54.6875
L 12.5 54.6875
L 29.59375 8.796875
L 46.6875 54.6875
L 56.203125 54.6875
L 35.6875 0
L 23.484375 0
z
" id="DejaVuSans-118"/>
   </defs>
   <g transform="translate(86.843281 21.236671)scale(0.15 -0.15)">
    <use xlink:href="#DejaVuSans-71"/>
    <use x="77.490234" xlink:href="#DejaVuSans-83"/>
    <use x="140.966797" xlink:href="#DejaVuSans-86"/>
    <use x="209.28125" xlink:href="#DejaVuSans-65"/>
    <use x="277.689453" xlink:href="#DejaVuSans-32"/>
    <use x="309.476562" xlink:href="#DejaVuSans-112"/>
    <use x="372.953125" xlink:href="#DejaVuSans-97"/>
    <use x="434.232422" xlink:href="#DejaVuSans-116"/>
    <use x="473.441406" xlink:href="#DejaVuSans-104"/>
    <use x="536.820312" xlink:href="#DejaVuSans-119"/>
    <use x="618.607422" xlink:href="#DejaVuSans-97"/>
    <use x="679.886719" xlink:href="#DejaVuSans-121"/>
    <use x="739.066406" xlink:href="#DejaVuSans-32"/>
    <use x="770.853516" xlink:href="#DejaVuSans-115"/>
    <use x="822.953125" xlink:href="#DejaVuSans-116"/>
    <use x="862.162109" xlink:href="#DejaVuSans-97"/>
    <use x="923.441406" xlink:href="#DejaVuSans-116"/>
    <use x="962.650391" xlink:href="#DejaVuSans-105"/>
    <use x="990.433594" xlink:href="#DejaVuSans-115"/>
    <use x="1042.533203" xlink:href="#DejaVuSans-116"/>
    <use x="1081.742188" xlink:href="#DejaVuSans-105"/>
    <use x="1109.525391" xlink:href="#DejaVuSans-99"/>
    <use x="1164.505859" xlink:href="#DejaVuSans-115"/>
    <use x="1216.605469" xlink:href="#DejaVuSans-32"/>
    <use x="1248.392578" xlink:href="#DejaVuSans-118"/>
    <use x="1307.572266" xlink:href="#DejaVuSans-115"/>
    <use x="1359.671875" xlink:href="#DejaVuSans-32"/>
    <use x="1391.458984" xlink:href="#DejaVuSans-114"/>
    <use x="1432.572266" xlink:href="#DejaVuSans-97"/>
    <use x="1493.851562" xlink:href="#DejaVuSans-110"/>
    <use x="1557.230469" xlink:href="#DejaVuSans-107"/>
    <use x="1615.140625" xlink:href="#DejaVuSans-105"/>
    <use x="1642.923828" xlink:href="#DejaVuSans-110"/>
    <use x="1706.302734" xlink:href="#DejaVuSans-103"/>
   </g>
  </g>
 </g>
 <defs>
  <clipPath id="pedaabcdc52">
   <rect height="266.112" width="357.12" x="46.772188" y="30.422391"/>
  </clipPath>
 </defs>
</svg>
