<?xml version="1.0" encoding="utf-8" standalone="no"?>
<!DOCTYPE svg PUBLIC "-//W3C//DTD SVG 1.1//EN"
  "http://www.w3.org/Graphics/SVG/1.1/DTD/svg11.dtd">
<!-- Created with matplotlib (https://matplotlib.org/) -->
<svg height="322.19272pt" version="1.1" viewBox="0 0 406.642188 322.19272" width="406.642188pt" xmlns="http://www.w3.org/2000/svg" xmlns:xlink="http://www.w3.org/1999/xlink">
 <defs>
  <style type="text/css">
*{stroke-linecap:butt;stroke-linejoin:round;}
  </style>
 </defs>
 <g id="figure_1">
  <g id="patch_1">
   <path d="M 0 322.19272
L 406.642188 322.19272
L 406.642188 0
L 0 0
z
" style="fill:#ffffff;stroke:#ffffff;stroke-linejoin:miter;"/>
  </g>
  <g id="axes_1">
   <g id="patch_2">
    <path d="M 46.772188 286.711782
L 403.892188 286.711782
L 403.892188 20.599782
L 46.772188 20.599782
z
" style="fill:none;"/>
   </g>
   <g id="matplotlib.axis_1">
    <g id="xtick_1">
     <g id="line2d_1">
      <path clip-path="url(#pebd1a55ab7)" d="M 63.004915 286.711782
L 63.004915 20.599782
" style="fill:none;stroke:#e5e5e5;stroke-width:0.8;"/>
     </g>
     <g id="line2d_2">
      <path d="M 63.004915 286.711782
" style="fill:none;stroke:#000000;stroke-width:1.5;"/>
      <defs>
       <path d="M 0 0
L 0 2.75
" id="m3a599132d1" style="stroke:#000000;"/>
      </defs>
      <g>
       <use style="stroke:#000000;" x="63.004915" xlink:href="#m3a599132d1" y="286.711782"/>
      </g>
     </g>
     <g id="text_1">
      <!-- 0 -->
      <defs>
       <path d="M 31.78125 66.40625
Q 24.171875 66.40625 20.328125 58.90625
Q 16.5 51.421875 16.5 36.375
Q 16.5 21.390625 20.328125 13.890625
Q 24.171875 6.390625 31.78125 6.390625
Q 39.453125 6.390625 43.28125 13.890625
Q 47.125 21.390625 47.125 36.375
Q 47.125 51.421875 43.28125 58.90625
Q 39.453125 66.40625 31.78125 66.40625
z
M 31.78125 74.21875
Q 44.046875 74.21875 50.515625 64.515625
Q 56.984375 54.828125 56.984375 36.375
Q 56.984375 17.96875 50.515625 8.265625
Q 44.046875 -1.421875 31.78125 -1.421875
Q 19.53125 -1.421875 13.0625 8.265625
Q 6.59375 17.96875 6.59375 36.375
Q 6.59375 54.828125 13.0625 64.515625
Q 19.53125 74.21875 31.78125 74.21875
z
" id="DejaVuSans-48"/>
      </defs>
      <g style="fill:#4d4d4d;" transform="translate(59.187415 300.779907)scale(0.12 -0.12)">
       <use xlink:href="#DejaVuSans-48"/>
      </g>
     </g>
    </g>
    <g id="xtick_2">
     <g id="line2d_3">
      <path clip-path="url(#pebd1a55ab7)" d="M 144.168551 286.711782
L 144.168551 20.599782
" style="fill:none;stroke:#e5e5e5;stroke-width:0.8;"/>
     </g>
     <g id="line2d_4">
      <path d="M 144.168551 286.711782
" style="fill:none;stroke:#000000;stroke-width:1.5;"/>
      <g>
       <use style="stroke:#000000;" x="144.168551" xlink:href="#m3a599132d1" y="286.711782"/>
      </g>
     </g>
     <g id="text_2">
      <!-- 25 -->
      <defs>
       <path d="M 19.1875 8.296875
L 53.609375 8.296875
L 53.609375 0
L 7.328125 0
L 7.328125 8.296875
Q 12.9375 14.109375 22.625 23.890625
Q 32.328125 33.6875 34.8125 36.53125
Q 39.546875 41.84375 41.421875 45.53125
Q 43.3125 49.21875 43.3125 52.78125
Q 43.3125 58.59375 39.234375 62.25
Q 35.15625 65.921875 28.609375 65.921875
Q 23.96875 65.921875 18.8125 64.3125
Q 13.671875 62.703125 7.8125 59.421875
L 7.8125 69.390625
Q 13.765625 71.78125 18.9375 73
Q 24.125 74.21875 28.421875 74.21875
Q 39.75 74.21875 46.484375 68.546875
Q 53.21875 62.890625 53.21875 53.421875
Q 53.21875 48.921875 51.53125 44.890625
Q 49.859375 40.875 45.40625 35.40625
Q 44.1875 33.984375 37.640625 27.21875
Q 31.109375 20.453125 19.1875 8.296875
z
" id="DejaVuSans-50"/>
       <path d="M 10.796875 72.90625
L 49.515625 72.90625
L 49.515625 64.59375
L 19.828125 64.59375
L 19.828125 46.734375
Q 21.96875 47.46875 24.109375 47.828125
Q 26.265625 48.1875 28.421875 48.1875
Q 40.625 48.1875 47.75 41.5
Q 54.890625 34.8125 54.890625 23.390625
Q 54.890625 11.625 47.5625 5.09375
Q 40.234375 -1.421875 26.90625 -1.421875
Q 22.3125 -1.421875 17.546875 -0.640625
Q 12.796875 0.140625 7.71875 1.703125
L 7.71875 11.625
Q 12.109375 9.234375 16.796875 8.0625
Q 21.484375 6.890625 26.703125 6.890625
Q 35.15625 6.890625 40.078125 11.328125
Q 45.015625 15.765625 45.015625 23.390625
Q 45.015625 31 40.078125 35.4375
Q 35.15625 39.890625 26.703125 39.890625
Q 22.75 39.890625 18.8125 39.015625
Q 14.890625 38.140625 10.796875 36.28125
z
" id="DejaVuSans-53"/>
      </defs>
      <g style="fill:#4d4d4d;" transform="translate(136.533551 300.779907)scale(0.12 -0.12)">
       <use xlink:href="#DejaVuSans-50"/>
       <use x="63.623047" xlink:href="#DejaVuSans-53"/>
      </g>
     </g>
    </g>
    <g id="xtick_3">
     <g id="line2d_5">
      <path clip-path="url(#pebd1a55ab7)" d="M 225.332188 286.711782
L 225.332188 20.599782
" style="fill:none;stroke:#e5e5e5;stroke-width:0.8;"/>
     </g>
     <g id="line2d_6">
      <path d="M 225.332188 286.711782
" style="fill:none;stroke:#000000;stroke-width:1.5;"/>
      <g>
       <use style="stroke:#000000;" x="225.332188" xlink:href="#m3a599132d1" y="286.711782"/>
      </g>
     </g>
     <g id="text_3">
      <!-- 50 -->
      <g style="fill:#4d4d4d;" transform="translate(217.697188 300.779907)scale(0.12 -0.12)">
       <use xlink:href="#DejaVuSans-53"/>
       <use x="63.623047" xlink:href="#DejaVuSans-48"/>
      </g>
     </g>
    </g>
    <g id="xtick_4">
     <g id="line2d_7">
      <path clip-path="url(#pebd1a55ab7)" d="M 306.495824 286.711782
L 306.495824 20.599782
" style="fill:none;stroke:#e5e5e5;stroke-width:0.8;"/>
     </g>
     <g id="line2d_8">
      <path d="M 306.495824 286.711782
" style="fill:none;stroke:#000000;stroke-width:1.5;"/>
      <g>
       <use style="stroke:#000000;" x="306.495824" xlink:href="#m3a599132d1" y="286.711782"/>
      </g>
     </g>
     <g id="text_4">
      <!-- 75 -->
      <defs>
       <path d="M 8.203125 72.90625
L 55.078125 72.90625
L 55.078125 68.703125
L 28.609375 0
L 18.3125 0
L 43.21875 64.59375
L 8.203125 64.59375
z
" id="DejaVuSans-55"/>
      </defs>
      <g style="fill:#4d4d4d;" transform="translate(298.860824 300.779907)scale(0.12 -0.12)">
       <use xlink:href="#DejaVuSans-55"/>
       <use x="63.623047" xlink:href="#DejaVuSans-53"/>
      </g>
     </g>
    </g>
    <g id="xtick_5">
     <g id="line2d_9">
      <path clip-path="url(#pebd1a55ab7)" d="M 387.65946 286.711782
L 387.65946 20.599782
" style="fill:none;stroke:#e5e5e5;stroke-width:0.8;"/>
     </g>
     <g id="line2d_10">
      <path d="M 387.65946 286.711782
" style="fill:none;stroke:#000000;stroke-width:1.5;"/>
      <g>
       <use style="stroke:#000000;" x="387.65946" xlink:href="#m3a599132d1" y="286.711782"/>
      </g>
     </g>
     <g id="text_5">
      <!-- 100 -->
      <defs>
       <path d="M 12.40625 8.296875
L 28.515625 8.296875
L 28.515625 63.921875
L 10.984375 60.40625
L 10.984375 69.390625
L 28.421875 72.90625
L 38.28125 72.90625
L 38.28125 8.296875
L 54.390625 8.296875
L 54.390625 0
L 12.40625 0
z
" id="DejaVuSans-49"/>
      </defs>
      <g style="fill:#4d4d4d;" transform="translate(376.20696 300.779907)scale(0.12 -0.12)">
       <use xlink:href="#DejaVuSans-49"/>
       <use x="63.623047" xlink:href="#DejaVuSans-48"/>
       <use x="127.246094" xlink:href="#DejaVuSans-48"/>
      </g>
     </g>
    </g>
    <g id="xtick_6">
     <g id="line2d_11">
      <path clip-path="url(#pebd1a55ab7)" d="M 103.586733 286.711782
L 103.586733 20.599782
" style="fill:none;stroke:#fafafa;"/>
     </g>
     <g id="line2d_12">
      <path d="M 103.586733 286.711782
" style="fill:none;stroke:#000000;stroke-width:1.5;"/>
     </g>
    </g>
    <g id="xtick_7">
     <g id="line2d_13">
      <path clip-path="url(#pebd1a55ab7)" d="M 184.750369 286.711782
L 184.750369 20.599782
" style="fill:none;stroke:#fafafa;"/>
     </g>
     <g id="line2d_14">
      <path d="M 184.750369 286.711782
" style="fill:none;stroke:#000000;stroke-width:1.5;"/>
     </g>
    </g>
    <g id="xtick_8">
     <g id="line2d_15">
      <path clip-path="url(#pebd1a55ab7)" d="M 265.914006 286.711782
L 265.914006 20.599782
" style="fill:none;stroke:#fafafa;"/>
     </g>
     <g id="line2d_16">
      <path d="M 265.914006 286.711782
" style="fill:none;stroke:#000000;stroke-width:1.5;"/>
     </g>
    </g>
    <g id="xtick_9">
     <g id="line2d_17">
      <path clip-path="url(#pebd1a55ab7)" d="M 347.077642 286.711782
L 347.077642 20.599782
" style="fill:none;stroke:#fafafa;"/>
     </g>
     <g id="line2d_18">
      <path d="M 347.077642 286.711782
" style="fill:none;stroke:#000000;stroke-width:1.5;"/>
     </g>
    </g>
    <g id="text_6">
     <!-- GSVA pathway ranking -->
     <defs>
      <path d="M 59.515625 10.40625
L 59.515625 29.984375
L 43.40625 29.984375
L 43.40625 38.09375
L 69.28125 38.09375
L 69.28125 6.78125
Q 63.578125 2.734375 56.6875 0.65625
Q 49.8125 -1.421875 42 -1.421875
Q 24.90625 -1.421875 15.25 8.5625
Q 5.609375 18.5625 5.609375 36.375
Q 5.609375 54.25 15.25 64.234375
Q 24.90625 74.21875 42 74.21875
Q 49.125 74.21875 55.546875 72.453125
Q 61.96875 70.703125 67.390625 67.28125
L 67.390625 56.78125
Q 61.921875 61.421875 55.765625 63.765625
Q 49.609375 66.109375 42.828125 66.109375
Q 29.4375 66.109375 22.71875 58.640625
Q 16.015625 51.171875 16.015625 36.375
Q 16.015625 21.625 22.71875 14.15625
Q 29.4375 6.6875 42.828125 6.6875
Q 48.046875 6.6875 52.140625 7.59375
Q 56.25 8.5 59.515625 10.40625
z
" id="DejaVuSans-71"/>
      <path d="M 53.515625 70.515625
L 53.515625 60.890625
Q 47.90625 63.578125 42.921875 64.890625
Q 37.9375 66.21875 33.296875 66.21875
Q 25.25 66.21875 20.875 63.09375
Q 16.5 59.96875 16.5 54.203125
Q 16.5 49.359375 19.40625 46.890625
Q 22.3125 44.4375 30.421875 42.921875
L 36.375 41.703125
Q 47.40625 39.59375 52.65625 34.296875
Q 57.90625 29 57.90625 20.125
Q 57.90625 9.515625 50.796875 4.046875
Q 43.703125 -1.421875 29.984375 -1.421875
Q 24.8125 -1.421875 18.96875 -0.25
Q 13.140625 0.921875 6.890625 3.21875
L 6.890625 13.375
Q 12.890625 10.015625 18.65625 8.296875
Q 24.421875 6.59375 29.984375 6.59375
Q 38.421875 6.59375 43.015625 9.90625
Q 47.609375 13.234375 47.609375 19.390625
Q 47.609375 24.75 44.3125 27.78125
Q 41.015625 30.8125 33.5 32.328125
L 27.484375 33.5
Q 16.453125 35.6875 11.515625 40.375
Q 6.59375 45.0625 6.59375 53.421875
Q 6.59375 63.09375 13.40625 68.65625
Q 20.21875 74.21875 32.171875 74.21875
Q 37.3125 74.21875 42.625 73.28125
Q 47.953125 72.359375 53.515625 70.515625
z
" id="DejaVuSans-83"/>
      <path d="M 28.609375 0
L 0.78125 72.90625
L 11.078125 72.90625
L 34.1875 11.53125
L 57.328125 72.90625
L 67.578125 72.90625
L 39.796875 0
z
" id="DejaVuSans-86"/>
      <path d="M 34.1875 63.1875
L 20.796875 26.90625
L 47.609375 26.90625
z
M 28.609375 72.90625
L 39.796875 72.90625
L 67.578125 0
L 57.328125 0
L 50.6875 18.703125
L 17.828125 18.703125
L 11.1875 0
L 0.78125 0
z
" id="DejaVuSans-65"/>
      <path id="DejaVuSans-32"/>
      <path d="M 18.109375 8.203125
L 18.109375 -20.796875
L 9.078125 -20.796875
L 9.078125 54.6875
L 18.109375 54.6875
L 18.109375 46.390625
Q 20.953125 51.265625 25.265625 53.625
Q 29.59375 56 35.59375 56
Q 45.5625 56 51.78125 48.09375
Q 58.015625 40.1875 58.015625 27.296875
Q 58.015625 14.40625 51.78125 6.484375
Q 45.5625 -1.421875 35.59375 -1.421875
Q 29.59375 -1.421875 25.265625 0.953125
Q 20.953125 3.328125 18.109375 8.203125
z
M 48.6875 27.296875
Q 48.6875 37.203125 44.609375 42.84375
Q 40.53125 48.484375 33.40625 48.484375
Q 26.265625 48.484375 22.1875 42.84375
Q 18.109375 37.203125 18.109375 27.296875
Q 18.109375 17.390625 22.1875 11.75
Q 26.265625 6.109375 33.40625 6.109375
Q 40.53125 6.109375 44.609375 11.75
Q 48.6875 17.390625 48.6875 27.296875
z
" id="DejaVuSans-112"/>
      <path d="M 34.28125 27.484375
Q 23.390625 27.484375 19.1875 25
Q 14.984375 22.515625 14.984375 16.5
Q 14.984375 11.71875 18.140625 8.90625
Q 21.296875 6.109375 26.703125 6.109375
Q 34.1875 6.109375 38.703125 11.40625
Q 43.21875 16.703125 43.21875 25.484375
L 43.21875 27.484375
z
M 52.203125 31.203125
L 52.203125 0
L 43.21875 0
L 43.21875 8.296875
Q 40.140625 3.328125 35.546875 0.953125
Q 30.953125 -1.421875 24.3125 -1.421875
Q 15.921875 -1.421875 10.953125 3.296875
Q 6 8.015625 6 15.921875
Q 6 25.140625 12.171875 29.828125
Q 18.359375 34.515625 30.609375 34.515625
L 43.21875 34.515625
L 43.21875 35.40625
Q 43.21875 41.609375 39.140625 45
Q 35.0625 48.390625 27.6875 48.390625
Q 23 48.390625 18.546875 47.265625
Q 14.109375 46.140625 10.015625 43.890625
L 10.015625 52.203125
Q 14.9375 54.109375 19.578125 55.046875
Q 24.21875 56 28.609375 56
Q 40.484375 56 46.34375 49.84375
Q 52.203125 43.703125 52.203125 31.203125
z
" id="DejaVuSans-97"/>
      <path d="M 18.3125 70.21875
L 18.3125 54.6875
L 36.8125 54.6875
L 36.8125 47.703125
L 18.3125 47.703125
L 18.3125 18.015625
Q 18.3125 11.328125 20.140625 9.421875
Q 21.96875 7.515625 27.59375 7.515625
L 36.8125 7.515625
L 36.8125 0
L 27.59375 0
Q 17.1875 0 13.234375 3.875
Q 9.28125 7.765625 9.28125 18.015625
L 9.28125 47.703125
L 2.6875 47.703125
L 2.6875 54.6875
L 9.28125 54.6875
L 9.28125 70.21875
z
" id="DejaVuSans-116"/>
      <path d="M 54.890625 33.015625
L 54.890625 0
L 45.90625 0
L 45.90625 32.71875
Q 45.90625 40.484375 42.875 44.328125
Q 39.84375 48.1875 33.796875 48.1875
Q 26.515625 48.1875 22.3125 43.546875
Q 18.109375 38.921875 18.109375 30.90625
L 18.109375 0
L 9.078125 0
L 9.078125 75.984375
L 18.109375 75.984375
L 18.109375 46.1875
Q 21.34375 51.125 25.703125 53.5625
Q 30.078125 56 35.796875 56
Q 45.21875 56 50.046875 50.171875
Q 54.890625 44.34375 54.890625 33.015625
z
" id="DejaVuSans-104"/>
      <path d="M 4.203125 54.6875
L 13.1875 54.6875
L 24.421875 12.015625
L 35.59375 54.6875
L 46.1875 54.6875
L 57.421875 12.015625
L 68.609375 54.6875
L 77.59375 54.6875
L 63.28125 0
L 52.6875 0
L 40.921875 44.828125
L 29.109375 0
L 18.5 0
z
" id="DejaVuSans-119"/>
      <path d="M 32.171875 -5.078125
Q 28.375 -14.84375 24.75 -17.8125
Q 21.140625 -20.796875 15.09375 -20.796875
L 7.90625 -20.796875
L 7.90625 -13.28125
L 13.1875 -13.28125
Q 16.890625 -13.28125 18.9375 -11.515625
Q 21 -9.765625 23.484375 -3.21875
L 25.09375 0.875
L 2.984375 54.6875
L 12.5 54.6875
L 29.59375 11.921875
L 46.6875 54.6875
L 56.203125 54.6875
z
" id="DejaVuSans-121"/>
      <path d="M 41.109375 46.296875
Q 39.59375 47.171875 37.8125 47.578125
Q 36.03125 48 33.890625 48
Q 26.265625 48 22.1875 43.046875
Q 18.109375 38.09375 18.109375 28.8125
L 18.109375 0
L 9.078125 0
L 9.078125 54.6875
L 18.109375 54.6875
L 18.109375 46.1875
Q 20.953125 51.171875 25.484375 53.578125
Q 30.03125 56 36.53125 56
Q 37.453125 56 38.578125 55.875
Q 39.703125 55.765625 41.0625 55.515625
z
" id="DejaVuSans-114"/>
      <path d="M 54.890625 33.015625
L 54.890625 0
L 45.90625 0
L 45.90625 32.71875
Q 45.90625 40.484375 42.875 44.328125
Q 39.84375 48.1875 33.796875 48.1875
Q 26.515625 48.1875 22.3125 43.546875
Q 18.109375 38.921875 18.109375 30.90625
L 18.109375 0
L 9.078125 0
L 9.078125 54.6875
L 18.109375 54.6875
L 18.109375 46.1875
Q 21.34375 51.125 25.703125 53.5625
Q 30.078125 56 35.796875 56
Q 45.21875 56 50.046875 50.171875
Q 54.890625 44.34375 54.890625 33.015625
z
" id="DejaVuSans-110"/>
      <path d="M 9.078125 75.984375
L 18.109375 75.984375
L 18.109375 31.109375
L 44.921875 54.6875
L 56.390625 54.6875
L 27.390625 29.109375
L 57.625 0
L 45.90625 0
L 18.109375 26.703125
L 18.109375 0
L 9.078125 0
z
" id="DejaVuSans-107"/>
      <path d="M 9.421875 54.6875
L 18.40625 54.6875
L 18.40625 0
L 9.421875 0
z
M 9.421875 75.984375
L 18.40625 75.984375
L 18.40625 64.59375
L 9.421875 64.59375
z
" id="DejaVuSans-105"/>
      <path d="M 45.40625 27.984375
Q 45.40625 37.75 41.375 43.109375
Q 37.359375 48.484375 30.078125 48.484375
Q 22.859375 48.484375 18.828125 43.109375
Q 14.796875 37.75 14.796875 27.984375
Q 14.796875 18.265625 18.828125 12.890625
Q 22.859375 7.515625 30.078125 7.515625
Q 37.359375 7.515625 41.375 12.890625
Q 45.40625 18.265625 45.40625 27.984375
z
M 54.390625 6.78125
Q 54.390625 -7.171875 48.1875 -13.984375
Q 42 -20.796875 29.203125 -20.796875
Q 24.46875 -20.796875 20.265625 -20.09375
Q 16.0625 -19.390625 12.109375 -17.921875
L 12.109375 -9.1875
Q 16.0625 -11.328125 19.921875 -12.34375
Q 23.78125 -13.375 27.78125 -13.375
Q 36.625 -13.375 41.015625 -8.765625
Q 45.40625 -4.15625 45.40625 5.171875
L 45.40625 9.625
Q 42.625 4.78125 38.28125 2.390625
Q 33.9375 0 27.875 0
Q 17.828125 0 11.671875 7.65625
Q 5.515625 15.328125 5.515625 27.984375
Q 5.515625 40.671875 11.671875 48.328125
Q 17.828125 56 27.875 56
Q 33.9375 56 38.28125 53.609375
Q 42.625 51.21875 45.40625 46.390625
L 45.40625 54.6875
L 54.390625 54.6875
z
" id="DejaVuSans-103"/>
     </defs>
     <g transform="translate(133.385469 319.073188)scale(0.15 -0.15)">
      <use xlink:href="#DejaVuSans-71"/>
      <use x="77.490234" xlink:href="#DejaVuSans-83"/>
      <use x="140.966797" xlink:href="#DejaVuSans-86"/>
      <use x="209.28125" xlink:href="#DejaVuSans-65"/>
      <use x="277.689453" xlink:href="#DejaVuSans-32"/>
      <use x="309.476562" xlink:href="#DejaVuSans-112"/>
      <use x="372.953125" xlink:href="#DejaVuSans-97"/>
      <use x="434.232422" xlink:href="#DejaVuSans-116"/>
      <use x="473.441406" xlink:href="#DejaVuSans-104"/>
      <use x="536.820312" xlink:href="#DejaVuSans-119"/>
      <use x="618.607422" xlink:href="#DejaVuSans-97"/>
      <use x="679.886719" xlink:href="#DejaVuSans-121"/>
      <use x="739.066406" xlink:href="#DejaVuSans-32"/>
      <use x="770.853516" xlink:href="#DejaVuSans-114"/>
      <use x="811.966797" xlink:href="#DejaVuSans-97"/>
      <use x="873.246094" xlink:href="#DejaVuSans-110"/>
      <use x="936.625" xlink:href="#DejaVuSans-107"/>
      <use x="994.535156" xlink:href="#DejaVuSans-105"/>
      <use x="1022.318359" xlink:href="#DejaVuSans-110"/>
      <use x="1085.697266" xlink:href="#DejaVuSans-103"/>
     </g>
    </g>
   </g>
   <g id="matplotlib.axis_2">
    <g id="ytick_1">
     <g id="line2d_19">
      <path clip-path="url(#pebd1a55ab7)" d="M 46.772188 274.615782
L 403.892188 274.615782
" style="fill:none;stroke:#e5e5e5;stroke-width:0.8;"/>
     </g>
     <g id="line2d_20">
      <path d="M 46.772188 274.615782
" style="fill:none;stroke:#000000;stroke-width:1.5;"/>
      <defs>
       <path d="M 0 0
L -2.75 0
" id="me8d39610d9" style="stroke:#000000;"/>
      </defs>
      <g>
       <use style="stroke:#000000;" x="46.772188" xlink:href="#me8d39610d9" y="274.615782"/>
      </g>
     </g>
     <g id="text_7">
      <!-- 0 -->
      <g style="fill:#4d4d4d;" transform="translate(34.187188 277.927032)scale(0.12 -0.12)">
       <use xlink:href="#DejaVuSans-48"/>
      </g>
     </g>
    </g>
    <g id="ytick_2">
     <g id="line2d_21">
      <path clip-path="url(#pebd1a55ab7)" d="M 46.772188 214.135782
L 403.892188 214.135782
" style="fill:none;stroke:#e5e5e5;stroke-width:0.8;"/>
     </g>
     <g id="line2d_22">
      <path d="M 46.772188 214.135782
" style="fill:none;stroke:#000000;stroke-width:1.5;"/>
      <g>
       <use style="stroke:#000000;" x="46.772188" xlink:href="#me8d39610d9" y="214.135782"/>
      </g>
     </g>
     <g id="text_8">
      <!-- 25 -->
      <g style="fill:#4d4d4d;" transform="translate(26.552188 217.447032)scale(0.12 -0.12)">
       <use xlink:href="#DejaVuSans-50"/>
       <use x="63.623047" xlink:href="#DejaVuSans-53"/>
      </g>
     </g>
    </g>
    <g id="ytick_3">
     <g id="line2d_23">
      <path clip-path="url(#pebd1a55ab7)" d="M 46.772188 153.655782
L 403.892188 153.655782
" style="fill:none;stroke:#e5e5e5;stroke-width:0.8;"/>
     </g>
     <g id="line2d_24">
      <path d="M 46.772188 153.655782
" style="fill:none;stroke:#000000;stroke-width:1.5;"/>
      <g>
       <use style="stroke:#000000;" x="46.772188" xlink:href="#me8d39610d9" y="153.655782"/>
      </g>
     </g>
     <g id="text_9">
      <!-- 50 -->
      <g style="fill:#4d4d4d;" transform="translate(26.552188 156.967032)scale(0.12 -0.12)">
       <use xlink:href="#DejaVuSans-53"/>
       <use x="63.623047" xlink:href="#DejaVuSans-48"/>
      </g>
     </g>
    </g>
    <g id="ytick_4">
     <g id="line2d_25">
      <path clip-path="url(#pebd1a55ab7)" d="M 46.772188 93.175782
L 403.892188 93.175782
" style="fill:none;stroke:#e5e5e5;stroke-width:0.8;"/>
     </g>
     <g id="line2d_26">
      <path d="M 46.772188 93.175782
" style="fill:none;stroke:#000000;stroke-width:1.5;"/>
      <g>
       <use style="stroke:#000000;" x="46.772188" xlink:href="#me8d39610d9" y="93.175782"/>
      </g>
     </g>
     <g id="text_10">
      <!-- 75 -->
      <g style="fill:#4d4d4d;" transform="translate(26.552188 96.487032)scale(0.12 -0.12)">
       <use xlink:href="#DejaVuSans-55"/>
       <use x="63.623047" xlink:href="#DejaVuSans-53"/>
      </g>
     </g>
    </g>
    <g id="ytick_5">
     <g id="line2d_27">
      <path clip-path="url(#pebd1a55ab7)" d="M 46.772188 32.695782
L 403.892188 32.695782
" style="fill:none;stroke:#e5e5e5;stroke-width:0.8;"/>
     </g>
     <g id="line2d_28">
      <path d="M 46.772188 32.695782
" style="fill:none;stroke:#000000;stroke-width:1.5;"/>
      <g>
       <use style="stroke:#000000;" x="46.772188" xlink:href="#me8d39610d9" y="32.695782"/>
      </g>
     </g>
     <g id="text_11">
      <!-- 100 -->
      <g style="fill:#4d4d4d;" transform="translate(18.917188 36.007032)scale(0.12 -0.12)">
       <use xlink:href="#DejaVuSans-49"/>
       <use x="63.623047" xlink:href="#DejaVuSans-48"/>
       <use x="127.246094" xlink:href="#DejaVuSans-48"/>
      </g>
     </g>
    </g>
    <g id="ytick_6">
     <g id="line2d_29">
      <path clip-path="url(#pebd1a55ab7)" d="M 46.772188 244.375782
L 403.892188 244.375782
" style="fill:none;stroke:#fafafa;"/>
     </g>
     <g id="line2d_30">
      <path d="M 46.772188 244.375782
" style="fill:none;stroke:#000000;stroke-width:1.5;"/>
     </g>
    </g>
    <g id="ytick_7">
     <g id="line2d_31">
      <path clip-path="url(#pebd1a55ab7)" d="M 46.772188 183.895782
L 403.892188 183.895782
" style="fill:none;stroke:#fafafa;"/>
     </g>
     <g id="line2d_32">
      <path d="M 46.772188 183.895782
" style="fill:none;stroke:#000000;stroke-width:1.5;"/>
     </g>
    </g>
    <g id="ytick_8">
     <g id="line2d_33">
      <path clip-path="url(#pebd1a55ab7)" d="M 46.772188 123.415782
L 403.892188 123.415782
" style="fill:none;stroke:#fafafa;"/>
     </g>
     <g id="line2d_34">
      <path d="M 46.772188 123.415782
" style="fill:none;stroke:#000000;stroke-width:1.5;"/>
     </g>
    </g>
    <g id="ytick_9">
     <g id="line2d_35">
      <path clip-path="url(#pebd1a55ab7)" d="M 46.772188 62.935782
L 403.892188 62.935782
" style="fill:none;stroke:#fafafa;"/>
     </g>
     <g id="line2d_36">
      <path d="M 46.772188 62.935782
" style="fill:none;stroke:#000000;stroke-width:1.5;"/>
     </g>
    </g>
    <g id="text_12">
     <!-- ORA pathway ranking -->
     <defs>
      <path d="M 39.40625 66.21875
Q 28.65625 66.21875 22.328125 58.203125
Q 16.015625 50.203125 16.015625 36.375
Q 16.015625 22.609375 22.328125 14.59375
Q 28.65625 6.59375 39.40625 6.59375
Q 50.140625 6.59375 56.421875 14.59375
Q 62.703125 22.609375 62.703125 36.375
Q 62.703125 50.203125 56.421875 58.203125
Q 50.140625 66.21875 39.40625 66.21875
z
M 39.40625 74.21875
Q 54.734375 74.21875 63.90625 63.9375
Q 73.09375 53.65625 73.09375 36.375
Q 73.09375 19.140625 63.90625 8.859375
Q 54.734375 -1.421875 39.40625 -1.421875
Q 24.03125 -1.421875 14.8125 8.828125
Q 5.609375 19.09375 5.609375 36.375
Q 5.609375 53.65625 14.8125 63.9375
Q 24.03125 74.21875 39.40625 74.21875
z
" id="DejaVuSans-79"/>
      <path d="M 44.390625 34.1875
Q 47.5625 33.109375 50.5625 29.59375
Q 53.5625 26.078125 56.59375 19.921875
L 66.609375 0
L 56 0
L 46.6875 18.703125
Q 43.0625 26.03125 39.671875 28.421875
Q 36.28125 30.8125 30.421875 30.8125
L 19.671875 30.8125
L 19.671875 0
L 9.8125 0
L 9.8125 72.90625
L 32.078125 72.90625
Q 44.578125 72.90625 50.734375 67.671875
Q 56.890625 62.453125 56.890625 51.90625
Q 56.890625 45.015625 53.6875 40.46875
Q 50.484375 35.9375 44.390625 34.1875
z
M 19.671875 64.796875
L 19.671875 38.921875
L 32.078125 38.921875
Q 39.203125 38.921875 42.84375 42.21875
Q 46.484375 45.515625 46.484375 51.90625
Q 46.484375 58.296875 42.84375 61.546875
Q 39.203125 64.796875 32.078125 64.796875
z
" id="DejaVuSans-82"/>
     </defs>
     <g transform="translate(11.397656 233.528954)rotate(-90)scale(0.15 -0.15)">
      <use xlink:href="#DejaVuSans-79"/>
      <use x="78.710938" xlink:href="#DejaVuSans-82"/>
      <use x="148.130859" xlink:href="#DejaVuSans-65"/>
      <use x="216.539062" xlink:href="#DejaVuSans-32"/>
      <use x="248.326172" xlink:href="#DejaVuSans-112"/>
      <use x="311.802734" xlink:href="#DejaVuSans-97"/>
      <use x="373.082031" xlink:href="#DejaVuSans-116"/>
      <use x="412.291016" xlink:href="#DejaVuSans-104"/>
      <use x="475.669922" xlink:href="#DejaVuSans-119"/>
      <use x="557.457031" xlink:href="#DejaVuSans-97"/>
      <use x="618.736328" xlink:href="#DejaVuSans-121"/>
      <use x="677.916016" xlink:href="#DejaVuSans-32"/>
      <use x="709.703125" xlink:href="#DejaVuSans-114"/>
      <use x="750.816406" xlink:href="#DejaVuSans-97"/>
      <use x="812.095703" xlink:href="#DejaVuSans-110"/>
      <use x="875.474609" xlink:href="#DejaVuSans-107"/>
      <use x="933.384766" xlink:href="#DejaVuSans-105"/>
      <use x="961.167969" xlink:href="#DejaVuSans-110"/>
      <use x="1024.546875" xlink:href="#DejaVuSans-103"/>
     </g>
    </g>
   </g>
   <g id="PathCollection_1">
    <path clip-path="url(#pebd1a55ab7)" d="M 387.65946 123.336807
C 388.12952 123.336807 388.580392 123.15005 388.912774 122.817668
C 389.245157 122.485285 389.431914 122.034414 389.431914 121.564353
C 389.431914 121.094293 389.245157 120.643422 388.912774 120.311039
C 388.580392 119.978657 388.12952 119.7919 387.65946 119.7919
C 387.1894 119.7919 386.738529 119.978657 386.406146 120.311039
C 386.073763 120.643422 385.887006 121.094293 385.887006 121.564353
C 385.887006 122.034414 386.073763 122.485285 386.406146 122.817668
C 386.738529 123.15005 387.1894 123.336807 387.65946 123.336807
z
" style="stroke:#000000;stroke-width:0.886227;"/>
    <path clip-path="url(#pebd1a55ab7)" d="M 281.649813 118.399664
C 282.119873 118.399664 282.570744 118.212908 282.903127 117.880525
C 283.23551 117.548142 283.422267 117.097271 283.422267 116.627211
C 283.422267 116.15715 283.23551 115.706279 282.903127 115.373897
C 282.570744 115.041514 282.119873 114.854757 281.649813 114.854757
C 281.179752 114.854757 280.728881 115.041514 280.396499 115.373897
C 280.064116 115.706279 279.877359 116.15715 279.877359 116.627211
C 279.877359 117.097271 280.064116 117.548142 280.396499 117.880525
C 280.728881 118.212908 281.179752 118.399664 281.649813 118.399664
z
" style="stroke:#000000;stroke-width:0.886227;"/>
    <path clip-path="url(#pebd1a55ab7)" d="M 308.152225 239.359664
C 308.622285 239.359664 309.073156 239.172908 309.405539 238.840525
C 309.737922 238.508142 309.924678 238.057271 309.924678 237.587211
C 309.924678 237.11715 309.737922 236.666279 309.405539 236.333897
C 309.073156 236.001514 308.622285 235.814757 308.152225 235.814757
C 307.682164 235.814757 307.231293 236.001514 306.89891 236.333897
C 306.566528 236.666279 306.379771 237.11715 306.379771 237.587211
C 306.379771 238.057271 306.566528 238.508142 306.89891 238.840525
C 307.231293 239.172908 307.682164 239.359664 308.152225 239.359664
z
" style="stroke:#000000;stroke-width:0.886227;"/>
    <path clip-path="url(#pebd1a55ab7)" d="M 195.516974 93.71395
C 195.987034 93.71395 196.437905 93.527193 196.770288 93.19481
C 197.102671 92.862428 197.289428 92.411557 197.289428 91.941496
C 197.289428 91.471436 197.102671 91.020565 196.770288 90.688182
C 196.437905 90.355799 195.987034 90.169043 195.516974 90.169043
C 195.046914 90.169043 194.596043 90.355799 194.26366 90.688182
C 193.931277 91.020565 193.74452 91.471436 193.74452 91.941496
C 193.74452 92.411557 193.931277 92.862428 194.26366 93.19481
C 194.596043 93.527193 195.046914 93.71395 195.516974 93.71395
z
" style="stroke:#000000;stroke-width:0.886227;"/>
    <path clip-path="url(#pebd1a55ab7)" d="M 381.033857 150.491093
C 381.503918 150.491093 381.954789 150.304336 382.287171 149.971953
C 382.619554 149.639571 382.806311 149.188699 382.806311 148.718639
C 382.806311 148.248579 382.619554 147.797708 382.287171 147.465325
C 381.954789 147.132942 381.503918 146.946185 381.033857 146.946185
C 380.563797 146.946185 380.112926 147.132942 379.780543 147.465325
C 379.44816 147.797708 379.261403 148.248579 379.261403 148.718639
C 379.261403 149.188699 379.44816 149.639571 379.780543 149.971953
C 380.112926 150.304336 380.563797 150.491093 381.033857 150.491093
z
" style="stroke:#000000;stroke-width:0.886227;"/>
    <path clip-path="url(#pebd1a55ab7)" d="M 175.640165 98.651093
C 176.110225 98.651093 176.561097 98.464336 176.893479 98.131953
C 177.225862 97.799571 177.412619 97.348699 177.412619 96.878639
C 177.412619 96.408579 177.225862 95.957708 176.893479 95.625325
C 176.561097 95.292942 176.110225 95.106185 175.640165 95.106185
C 175.170105 95.106185 174.719234 95.292942 174.386851 95.625325
C 174.054468 95.957708 173.867711 96.408579 173.867711 96.878639
C 173.867711 97.348699 174.054468 97.799571 174.386851 98.131953
C 174.719234 98.464336 175.170105 98.651093 175.640165 98.651093
z
" style="stroke:#000000;stroke-width:0.886227;"/>
    <path clip-path="url(#pebd1a55ab7)" d="M 288.275416 276.388236
C 288.745476 276.388236 289.196347 276.201479 289.52873 275.869096
C 289.861113 275.536713 290.04787 275.085842 290.04787 274.615782
C 290.04787 274.145722 289.861113 273.694851 289.52873 273.362468
C 289.196347 273.030085 288.745476 272.843328 288.275416 272.843328
C 287.805355 272.843328 287.354484 273.030085 287.022102 273.362468
C 286.689719 273.694851 286.502962 274.145722 286.502962 274.615782
C 286.502962 275.085842 286.689719 275.536713 287.022102 275.869096
C 287.354484 276.201479 287.805355 276.388236 288.275416 276.388236
z
" style="stroke:#000000;stroke-width:0.886227;"/>
    <path clip-path="url(#pebd1a55ab7)" d="M 321.403431 180.11395
C 321.873491 180.11395 322.324362 179.927193 322.656745 179.59481
C 322.989127 179.262428 323.175884 178.811557 323.175884 178.341496
C 323.175884 177.871436 322.989127 177.420565 322.656745 177.088182
C 322.324362 176.755799 321.873491 176.569043 321.403431 176.569043
C 320.93337 176.569043 320.482499 176.755799 320.150116 177.088182
C 319.817734 177.420565 319.630977 177.871436 319.630977 178.341496
C 319.630977 178.811557 319.817734 179.262428 320.150116 179.59481
C 320.482499 179.927193 320.93337 180.11395 321.403431 180.11395
z
" style="stroke:#000000;stroke-width:0.886227;"/>
    <path clip-path="url(#pebd1a55ab7)" d="M 228.644989 170.239664
C 229.115049 170.239664 229.56592 170.052908 229.898303 169.720525
C 230.230686 169.388142 230.417443 168.937271 230.417443 168.467211
C 230.417443 167.99715 230.230686 167.546279 229.898303 167.213897
C 229.56592 166.881514 229.115049 166.694757 228.644989 166.694757
C 228.174929 166.694757 227.724058 166.881514 227.391675 167.213897
C 227.059292 167.546279 226.872535 167.99715 226.872535 168.467211
C 226.872535 168.937271 227.059292 169.388142 227.391675 169.720525
C 227.724058 170.052908 228.174929 170.239664 228.644989 170.239664
z
" style="stroke:#000000;stroke-width:0.886227;"/>
    <path clip-path="url(#pebd1a55ab7)" d="M 162.388959 239.359664
C 162.85902 239.359664 163.309891 239.172908 163.642273 238.840525
C 163.974656 238.508142 164.161413 238.057271 164.161413 237.587211
C 164.161413 237.11715 163.974656 236.666279 163.642273 236.333897
C 163.309891 236.001514 162.85902 235.814757 162.388959 235.814757
C 161.918899 235.814757 161.468028 236.001514 161.135645 236.333897
C 160.803262 236.666279 160.616505 237.11715 160.616505 237.587211
C 160.616505 238.057271 160.803262 238.508142 161.135645 238.840525
C 161.468028 239.172908 161.918899 239.359664 162.388959 239.359664
z
" style="stroke:#000000;stroke-width:0.886227;"/>
    <path clip-path="url(#pebd1a55ab7)" d="M 222.019386 150.491093
C 222.489446 150.491093 222.940317 150.304336 223.2727 149.971953
C 223.605083 149.639571 223.79184 149.188699 223.79184 148.718639
C 223.79184 148.248579 223.605083 147.797708 223.2727 147.465325
C 222.940317 147.132942 222.489446 146.946185 222.019386 146.946185
C 221.549326 146.946185 221.098455 147.132942 220.766072 147.465325
C 220.433689 147.797708 220.246932 148.248579 220.246932 148.718639
C 220.246932 149.188699 220.433689 149.639571 220.766072 149.971953
C 221.098455 150.304336 221.549326 150.491093 222.019386 150.491093
z
" style="stroke:#000000;stroke-width:0.886227;"/>
    <path clip-path="url(#pebd1a55ab7)" d="M 294.901019 34.468236
C 295.371079 34.468236 295.82195 34.281479 296.154333 33.949096
C 296.486716 33.616713 296.673473 33.165842 296.673473 32.695782
C 296.673473 32.225722 296.486716 31.774851 296.154333 31.442468
C 295.82195 31.110085 295.371079 30.923328 294.901019 30.923328
C 294.430958 30.923328 293.980087 31.110085 293.647705 31.442468
C 293.315322 31.774851 293.128565 32.225722 293.128565 32.695782
C 293.128565 33.165842 293.315322 33.616713 293.647705 33.949096
C 293.980087 34.281479 294.430958 34.468236 294.901019 34.468236
z
" style="stroke:#000000;stroke-width:0.886227;"/>
    <path clip-path="url(#pebd1a55ab7)" d="M 268.398607 88.776807
C 268.868667 88.776807 269.319538 88.59005 269.651921 88.257668
C 269.984304 87.925285 270.171061 87.474414 270.171061 87.004353
C 270.171061 86.534293 269.984304 86.083422 269.651921 85.751039
C 269.319538 85.418657 268.868667 85.2319 268.398607 85.2319
C 267.928547 85.2319 267.477675 85.418657 267.145293 85.751039
C 266.81291 86.083422 266.626153 86.534293 266.626153 87.004353
C 266.626153 87.474414 266.81291 87.925285 267.145293 88.257668
C 267.477675 88.59005 267.928547 88.776807 268.398607 88.776807
z
" style="stroke:#000000;stroke-width:0.886227;"/>
    <path clip-path="url(#pebd1a55ab7)" d="M 82.881724 207.268236
C 83.351784 207.268236 83.802655 207.081479 84.135038 206.749096
C 84.467421 206.416713 84.654178 205.965842 84.654178 205.495782
C 84.654178 205.025722 84.467421 204.574851 84.135038 204.242468
C 83.802655 203.910085 83.351784 203.723328 82.881724 203.723328
C 82.411663 203.723328 81.960792 203.910085 81.62841 204.242468
C 81.296027 204.574851 81.10927 205.025722 81.10927 205.495782
C 81.10927 205.965842 81.296027 206.416713 81.62841 206.749096
C 81.960792 207.081479 82.411663 207.268236 82.881724 207.268236
z
" style="stroke:#000000;stroke-width:0.886227;"/>
    <path clip-path="url(#pebd1a55ab7)" d="M 361.157048 69.028236
C 361.627109 69.028236 362.07798 68.841479 362.410362 68.509096
C 362.742745 68.176713 362.929502 67.725842 362.929502 67.255782
C 362.929502 66.785722 362.742745 66.334851 362.410362 66.002468
C 362.07798 65.670085 361.627109 65.483328 361.157048 65.483328
C 360.686988 65.483328 360.236117 65.670085 359.903734 66.002468
C 359.571351 66.334851 359.384595 66.785722 359.384595 67.255782
C 359.384595 67.725842 359.571351 68.176713 359.903734 68.509096
C 360.236117 68.841479 360.686988 69.028236 361.157048 69.028236
z
" style="stroke:#000000;stroke-width:0.886227;"/>
    <path clip-path="url(#pebd1a55ab7)" d="M 367.782651 103.588236
C 368.252712 103.588236 368.703583 103.401479 369.035965 103.069096
C 369.368348 102.736713 369.555105 102.285842 369.555105 101.815782
C 369.555105 101.345722 369.368348 100.894851 369.035965 100.562468
C 368.703583 100.230085 368.252712 100.043328 367.782651 100.043328
C 367.312591 100.043328 366.86172 100.230085 366.529337 100.562468
C 366.196954 100.894851 366.010197 101.345722 366.010197 101.815782
C 366.010197 102.285842 366.196954 102.736713 366.529337 103.069096
C 366.86172 103.401479 367.312591 103.588236 367.782651 103.588236
z
" style="stroke:#000000;stroke-width:0.886227;"/>
    <path clip-path="url(#pebd1a55ab7)" d="M 129.260944 157.896807
C 129.731005 157.896807 130.181876 157.71005 130.514259 157.377668
C 130.846641 157.045285 131.033398 156.594414 131.033398 156.124353
C 131.033398 155.654293 130.846641 155.203422 130.514259 154.871039
C 130.181876 154.538657 129.731005 154.3519 129.260944 154.3519
C 128.790884 154.3519 128.340013 154.538657 128.00763 154.871039
C 127.675248 155.203422 127.488491 155.654293 127.488491 156.124353
C 127.488491 156.594414 127.675248 157.045285 128.00763 157.377668
C 128.340013 157.71005 128.790884 157.896807 129.260944 157.896807
z
" style="stroke:#000000;stroke-width:0.886227;"/>
    <path clip-path="url(#pebd1a55ab7)" d="M 155.763356 239.359664
C 156.233417 239.359664 156.684288 239.172908 157.01667 238.840525
C 157.349053 238.508142 157.53581 238.057271 157.53581 237.587211
C 157.53581 237.11715 157.349053 236.666279 157.01667 236.333897
C 156.684288 236.001514 156.233417 235.814757 155.763356 235.814757
C 155.293296 235.814757 154.842425 236.001514 154.510042 236.333897
C 154.177659 236.666279 153.990902 237.11715 153.990902 237.587211
C 153.990902 238.057271 154.177659 238.508142 154.510042 238.840525
C 154.842425 239.172908 155.293296 239.359664 155.763356 239.359664
z
" style="stroke:#000000;stroke-width:0.886227;"/>
    <path clip-path="url(#pebd1a55ab7)" d="M 354.531445 49.279664
C 355.001506 49.279664 355.452377 49.092908 355.78476 48.760525
C 356.117142 48.428142 356.303899 47.977271 356.303899 47.507211
C 356.303899 47.03715 356.117142 46.586279 355.78476 46.253897
C 355.452377 45.921514 355.001506 45.734757 354.531445 45.734757
C 354.061385 45.734757 353.610514 45.921514 353.278131 46.253897
C 352.945748 46.586279 352.758992 47.03715 352.758992 47.507211
C 352.758992 47.977271 352.945748 48.428142 353.278131 48.760525
C 353.610514 49.092908 354.061385 49.279664 354.531445 49.279664
z
" style="stroke:#000000;stroke-width:0.886227;"/>
    <path clip-path="url(#pebd1a55ab7)" d="M 202.142577 207.268236
C 202.612637 207.268236 203.063508 207.081479 203.395891 206.749096
C 203.728274 206.416713 203.915031 205.965842 203.915031 205.495782
C 203.915031 205.025722 203.728274 204.574851 203.395891 204.242468
C 203.063508 203.910085 202.612637 203.723328 202.142577 203.723328
C 201.672517 203.723328 201.221646 203.910085 200.889263 204.242468
C 200.55688 204.574851 200.370123 205.025722 200.370123 205.495782
C 200.370123 205.965842 200.55688 206.416713 200.889263 206.749096
C 201.221646 207.081479 201.672517 207.268236 202.142577 207.268236
z
" style="stroke:#000000;stroke-width:0.886227;"/>
    <path clip-path="url(#pebd1a55ab7)" d="M 215.393783 44.342522
C 215.863843 44.342522 216.314714 44.155765 216.647097 43.823382
C 216.97948 43.490999 217.166237 43.040128 217.166237 42.570068
C 217.166237 42.100008 216.97948 41.649136 216.647097 41.316754
C 216.314714 40.984371 215.863843 40.797614 215.393783 40.797614
C 214.923723 40.797614 214.472852 40.984371 214.140469 41.316754
C 213.808086 41.649136 213.621329 42.100008 213.621329 42.570068
C 213.621329 43.040128 213.808086 43.490999 214.140469 43.823382
C 214.472852 44.155765 214.923723 44.342522 215.393783 44.342522
z
" style="stroke:#000000;stroke-width:0.886227;"/>
    <path clip-path="url(#pebd1a55ab7)" d="M 109.384136 73.965379
C 109.854196 73.965379 110.305067 73.778622 110.63745 73.446239
C 110.969832 73.113856 111.156589 72.662985 111.156589 72.192925
C 111.156589 71.722865 110.969832 71.271994 110.63745 70.939611
C 110.305067 70.607228 109.854196 70.420471 109.384136 70.420471
C 108.914075 70.420471 108.463204 70.607228 108.130821 70.939611
C 107.798439 71.271994 107.611682 71.722865 107.611682 72.192925
C 107.611682 72.662985 107.798439 73.113856 108.130821 73.446239
C 108.463204 73.778622 108.914075 73.965379 109.384136 73.965379
z
" style="stroke:#000000;stroke-width:0.886227;"/>
    <path clip-path="url(#pebd1a55ab7)" d="M 328.029034 54.216807
C 328.499094 54.216807 328.949965 54.03005 329.282348 53.697668
C 329.61473 53.365285 329.801487 52.914414 329.801487 52.444353
C 329.801487 51.974293 329.61473 51.523422 329.282348 51.191039
C 328.949965 50.858657 328.499094 50.6719 328.029034 50.6719
C 327.558973 50.6719 327.108102 50.858657 326.775719 51.191039
C 326.443337 51.523422 326.25658 51.974293 326.25658 52.444353
C 326.25658 52.914414 326.443337 53.365285 326.775719 53.697668
C 327.108102 54.03005 327.558973 54.216807 328.029034 54.216807
z
" style="stroke:#000000;stroke-width:0.886227;"/>
    <path clip-path="url(#pebd1a55ab7)" d="M 334.654636 256.639664
C 335.124697 256.639664 335.575568 256.452908 335.907951 256.120525
C 336.240333 255.788142 336.42709 255.337271 336.42709 254.867211
C 336.42709 254.39715 336.240333 253.946279 335.907951 253.613897
C 335.575568 253.281514 335.124697 253.094757 334.654636 253.094757
C 334.184576 253.094757 333.733705 253.281514 333.401322 253.613897
C 333.06894 253.946279 332.882183 254.39715 332.882183 254.867211
C 332.882183 255.337271 333.06894 255.788142 333.401322 256.120525
C 333.733705 256.452908 334.184576 256.639664 334.654636 256.639664
z
" style="stroke:#000000;stroke-width:0.886227;"/>
    <path clip-path="url(#pebd1a55ab7)" d="M 374.408254 170.239664
C 374.878315 170.239664 375.329186 170.052908 375.661568 169.720525
C 375.993951 169.388142 376.180708 168.937271 376.180708 168.467211
C 376.180708 167.99715 375.993951 167.546279 375.661568 167.213897
C 375.329186 166.881514 374.878315 166.694757 374.408254 166.694757
C 373.938194 166.694757 373.487323 166.881514 373.15494 167.213897
C 372.822557 167.546279 372.6358 167.99715 372.6358 168.467211
C 372.6358 168.937271 372.822557 169.388142 373.15494 169.720525
C 373.487323 170.052908 373.938194 170.239664 374.408254 170.239664
z
" style="stroke:#000000;stroke-width:0.886227;"/>
    <path clip-path="url(#pebd1a55ab7)" d="M 76.256121 108.525379
C 76.726181 108.525379 77.177052 108.338622 77.509435 108.006239
C 77.841818 107.673856 78.028575 107.222985 78.028575 106.752925
C 78.028575 106.282865 77.841818 105.831994 77.509435 105.499611
C 77.177052 105.167228 76.726181 104.980471 76.256121 104.980471
C 75.78606 104.980471 75.335189 105.167228 75.002807 105.499611
C 74.670424 105.831994 74.483667 106.282865 74.483667 106.752925
C 74.483667 107.222985 74.670424 107.673856 75.002807 108.006239
C 75.335189 108.338622 75.78606 108.525379 76.256121 108.525379
z
" style="stroke:#000000;stroke-width:0.886227;"/>
    <path clip-path="url(#pebd1a55ab7)" d="M 208.76818 207.268236
C 209.23824 207.268236 209.689111 207.081479 210.021494 206.749096
C 210.353877 206.416713 210.540634 205.965842 210.540634 205.495782
C 210.540634 205.025722 210.353877 204.574851 210.021494 204.242468
C 209.689111 203.910085 209.23824 203.723328 208.76818 203.723328
C 208.29812 203.723328 207.847249 203.910085 207.514866 204.242468
C 207.182483 204.574851 206.995726 205.025722 206.995726 205.495782
C 206.995726 205.965842 207.182483 206.416713 207.514866 206.749096
C 207.847249 207.081479 208.29812 207.268236 208.76818 207.268236
z
" style="stroke:#000000;stroke-width:0.886227;"/>
    <path clip-path="url(#pebd1a55ab7)" d="M 241.896195 39.405379
C 242.366255 39.405379 242.817126 39.218622 243.149509 38.886239
C 243.481892 38.553856 243.668649 38.102985 243.668649 37.632925
C 243.668649 37.162865 243.481892 36.711994 243.149509 36.379611
C 242.817126 36.047228 242.366255 35.860471 241.896195 35.860471
C 241.426135 35.860471 240.975264 36.047228 240.642881 36.379611
C 240.310498 36.711994 240.123741 37.162865 240.123741 37.632925
C 240.123741 38.102985 240.310498 38.553856 240.642881 38.886239
C 240.975264 39.218622 241.426135 39.405379 241.896195 39.405379
z
" style="stroke:#000000;stroke-width:0.886227;"/>
    <path clip-path="url(#pebd1a55ab7)" d="M 63.004915 133.211093
C 63.474975 133.211093 63.925846 133.024336 64.258229 132.691953
C 64.590612 132.359571 64.777369 131.908699 64.777369 131.438639
C 64.777369 130.968579 64.590612 130.517708 64.258229 130.185325
C 63.925846 129.852942 63.474975 129.666185 63.004915 129.666185
C 62.534855 129.666185 62.083983 129.852942 61.751601 130.185325
C 61.419218 130.517708 61.232461 130.968579 61.232461 131.438639
C 61.232461 131.908699 61.419218 132.359571 61.751601 132.691953
C 62.083983 133.024336 62.534855 133.211093 63.004915 133.211093
z
" style="stroke:#000000;stroke-width:0.886227;"/>
    <path clip-path="url(#pebd1a55ab7)" d="M 89.507327 256.639664
C 89.977387 256.639664 90.428258 256.452908 90.760641 256.120525
C 91.093024 255.788142 91.27978 255.337271 91.27978 254.867211
C 91.27978 254.39715 91.093024 253.946279 90.760641 253.613897
C 90.428258 253.281514 89.977387 253.094757 89.507327 253.094757
C 89.037266 253.094757 88.586395 253.281514 88.254013 253.613897
C 87.92163 253.946279 87.734873 254.39715 87.734873 254.867211
C 87.734873 255.337271 87.92163 255.788142 88.254013 256.120525
C 88.586395 256.452908 89.037266 256.639664 89.507327 256.639664
z
" style="stroke:#000000;stroke-width:0.886227;"/>
    <path clip-path="url(#pebd1a55ab7)" d="M 135.886547 113.462522
C 136.356608 113.462522 136.807479 113.275765 137.139862 112.943382
C 137.472244 112.610999 137.659001 112.160128 137.659001 111.690068
C 137.659001 111.220008 137.472244 110.769136 137.139862 110.436754
C 136.807479 110.104371 136.356608 109.917614 135.886547 109.917614
C 135.416487 109.917614 134.965616 110.104371 134.633233 110.436754
C 134.30085 110.769136 134.114094 111.220008 134.114094 111.690068
C 134.114094 112.160128 134.30085 112.610999 134.633233 112.943382
C 134.965616 113.275765 135.416487 113.462522 135.886547 113.462522
z
" style="stroke:#000000;stroke-width:0.886227;"/>
    <path clip-path="url(#pebd1a55ab7)" d="M 261.773004 78.902522
C 262.243064 78.902522 262.693935 78.715765 263.026318 78.383382
C 263.358701 78.050999 263.545458 77.600128 263.545458 77.130068
C 263.545458 76.660008 263.358701 76.209136 263.026318 75.876754
C 262.693935 75.544371 262.243064 75.357614 261.773004 75.357614
C 261.302944 75.357614 260.852072 75.544371 260.51969 75.876754
C 260.187307 76.209136 260.00055 76.660008 260.00055 77.130068
C 260.00055 77.600128 260.187307 78.050999 260.51969 78.383382
C 260.852072 78.715765 261.302944 78.902522 261.773004 78.902522
z
" style="stroke:#000000;stroke-width:0.886227;"/>
    <path clip-path="url(#pebd1a55ab7)" d="M 116.009739 207.268236
C 116.479799 207.268236 116.93067 207.081479 117.263053 206.749096
C 117.595435 206.416713 117.782192 205.965842 117.782192 205.495782
C 117.782192 205.025722 117.595435 204.574851 117.263053 204.242468
C 116.93067 203.910085 116.479799 203.723328 116.009739 203.723328
C 115.539678 203.723328 115.088807 203.910085 114.756424 204.242468
C 114.424042 204.574851 114.237285 205.025722 114.237285 205.495782
C 114.237285 205.965842 114.424042 206.416713 114.756424 206.749096
C 115.088807 207.081479 115.539678 207.268236 116.009739 207.268236
z
" style="stroke:#000000;stroke-width:0.886227;"/>
    <path clip-path="url(#pebd1a55ab7)" d="M 169.014562 83.839664
C 169.484623 83.839664 169.935494 83.652908 170.267876 83.320525
C 170.600259 82.988142 170.787016 82.537271 170.787016 82.067211
C 170.787016 81.59715 170.600259 81.146279 170.267876 80.813897
C 169.935494 80.481514 169.484623 80.294757 169.014562 80.294757
C 168.544502 80.294757 168.093631 80.481514 167.761248 80.813897
C 167.428865 81.146279 167.242108 81.59715 167.242108 82.067211
C 167.242108 82.537271 167.428865 82.988142 167.761248 83.320525
C 168.093631 83.652908 168.544502 83.839664 169.014562 83.839664
z
" style="stroke:#000000;stroke-width:0.886227;"/>
    <path clip-path="url(#pebd1a55ab7)" d="M 341.280239 271.451093
C 341.7503 271.451093 342.201171 271.264336 342.533554 270.931953
C 342.865936 270.599571 343.052693 270.148699 343.052693 269.678639
C 343.052693 269.208579 342.865936 268.757708 342.533554 268.425325
C 342.201171 268.092942 341.7503 267.906185 341.280239 267.906185
C 340.810179 267.906185 340.359308 268.092942 340.026925 268.425325
C 339.694543 268.757708 339.507786 269.208579 339.507786 269.678639
C 339.507786 270.148699 339.694543 270.599571 340.026925 270.931953
C 340.359308 271.264336 340.810179 271.451093 341.280239 271.451093
z
" style="stroke:#000000;stroke-width:0.886227;"/>
    <path clip-path="url(#pebd1a55ab7)" d="M 275.02421 266.51395
C 275.49427 266.51395 275.945141 266.327193 276.277524 265.99481
C 276.609907 265.662428 276.796664 265.211557 276.796664 264.741496
C 276.796664 264.271436 276.609907 263.820565 276.277524 263.488182
C 275.945141 263.155799 275.49427 262.969043 275.02421 262.969043
C 274.55415 262.969043 274.103278 263.155799 273.770896 263.488182
C 273.438513 263.820565 273.251756 264.271436 273.251756 264.741496
C 273.251756 265.211557 273.438513 265.662428 273.770896 265.99481
C 274.103278 266.327193 274.55415 266.51395 275.02421 266.51395
z
" style="stroke:#000000;stroke-width:0.886227;"/>
    <path clip-path="url(#pebd1a55ab7)" d="M 314.777828 143.085379
C 315.247888 143.085379 315.698759 142.898622 316.031142 142.566239
C 316.363525 142.233856 316.550281 141.782985 316.550281 141.312925
C 316.550281 140.842865 316.363525 140.391994 316.031142 140.059611
C 315.698759 139.727228 315.247888 139.540471 314.777828 139.540471
C 314.307767 139.540471 313.856896 139.727228 313.524513 140.059611
C 313.192131 140.391994 313.005374 140.842865 313.005374 141.312925
C 313.005374 141.782985 313.192131 142.233856 313.524513 142.566239
C 313.856896 142.898622 314.307767 143.085379 314.777828 143.085379
z
" style="stroke:#000000;stroke-width:0.886227;"/>
    <path clip-path="url(#pebd1a55ab7)" d="M 255.147401 239.359664
C 255.617461 239.359664 256.068332 239.172908 256.400715 238.840525
C 256.733098 238.508142 256.919855 238.057271 256.919855 237.587211
C 256.919855 237.11715 256.733098 236.666279 256.400715 236.333897
C 256.068332 236.001514 255.617461 235.814757 255.147401 235.814757
C 254.677341 235.814757 254.22647 236.001514 253.894087 236.333897
C 253.561704 236.666279 253.374947 237.11715 253.374947 237.587211
C 253.374947 238.057271 253.561704 238.508142 253.894087 238.840525
C 254.22647 239.172908 254.677341 239.359664 255.147401 239.359664
z
" style="stroke:#000000;stroke-width:0.886227;"/>
    <path clip-path="url(#pebd1a55ab7)" d="M 301.526622 207.268236
C 301.996682 207.268236 302.447553 207.081479 302.779936 206.749096
C 303.112319 206.416713 303.299075 205.965842 303.299075 205.495782
C 303.299075 205.025722 303.112319 204.574851 302.779936 204.242468
C 302.447553 203.910085 301.996682 203.723328 301.526622 203.723328
C 301.056561 203.723328 300.60569 203.910085 300.273307 204.242468
C 299.940925 204.574851 299.754168 205.025722 299.754168 205.495782
C 299.754168 205.965842 299.940925 206.416713 300.273307 206.749096
C 300.60569 207.081479 301.056561 207.268236 301.526622 207.268236
z
" style="stroke:#000000;stroke-width:0.886227;"/>
    <path clip-path="url(#pebd1a55ab7)" d="M 69.630518 180.11395
C 70.100578 180.11395 70.551449 179.927193 70.883832 179.59481
C 71.216215 179.262428 71.402972 178.811557 71.402972 178.341496
C 71.402972 177.871436 71.216215 177.420565 70.883832 177.088182
C 70.551449 176.755799 70.100578 176.569043 69.630518 176.569043
C 69.160457 176.569043 68.709586 176.755799 68.377204 177.088182
C 68.044821 177.420565 67.858064 177.871436 67.858064 178.341496
C 67.858064 178.811557 68.044821 179.262428 68.377204 179.59481
C 68.709586 179.927193 69.160457 180.11395 69.630518 180.11395
z
" style="stroke:#000000;stroke-width:0.886227;"/>
    <path clip-path="url(#pebd1a55ab7)" d="M 102.758533 207.268236
C 103.228593 207.268236 103.679464 207.081479 104.011847 206.749096
C 104.34423 206.416713 104.530986 205.965842 104.530986 205.495782
C 104.530986 205.025722 104.34423 204.574851 104.011847 204.242468
C 103.679464 203.910085 103.228593 203.723328 102.758533 203.723328
C 102.288472 203.723328 101.837601 203.910085 101.505218 204.242468
C 101.172836 204.574851 100.986079 205.025722 100.986079 205.495782
C 100.986079 205.965842 101.172836 206.416713 101.505218 206.749096
C 101.837601 207.081479 102.288472 207.268236 102.758533 207.268236
z
" style="stroke:#000000;stroke-width:0.886227;"/>
    <path clip-path="url(#pebd1a55ab7)" d="M 149.137753 138.148236
C 149.607814 138.148236 150.058685 137.961479 150.391068 137.629096
C 150.72345 137.296713 150.910207 136.845842 150.910207 136.375782
C 150.910207 135.905722 150.72345 135.454851 150.391068 135.122468
C 150.058685 134.790085 149.607814 134.603328 149.137753 134.603328
C 148.667693 134.603328 148.216822 134.790085 147.884439 135.122468
C 147.552056 135.454851 147.3653 135.905722 147.3653 136.375782
C 147.3653 136.845842 147.552056 137.296713 147.884439 137.629096
C 148.216822 137.961479 148.667693 138.148236 149.137753 138.148236
z
" style="stroke:#000000;stroke-width:0.886227;"/>
    <path clip-path="url(#pebd1a55ab7)" d="M 188.891371 64.091093
C 189.361431 64.091093 189.812303 63.904336 190.144685 63.571953
C 190.477068 63.239571 190.663825 62.788699 190.663825 62.318639
C 190.663825 61.848579 190.477068 61.397708 190.144685 61.065325
C 189.812303 60.732942 189.361431 60.546185 188.891371 60.546185
C 188.421311 60.546185 187.97044 60.732942 187.638057 61.065325
C 187.305674 61.397708 187.118917 61.848579 187.118917 62.318639
C 187.118917 62.788699 187.305674 63.239571 187.638057 63.571953
C 187.97044 63.904336 188.421311 64.091093 188.891371 64.091093
z
" style="stroke:#000000;stroke-width:0.886227;"/>
    <path clip-path="url(#pebd1a55ab7)" d="M 122.635341 256.639664
C 123.105402 256.639664 123.556273 256.452908 123.888656 256.120525
C 124.221038 255.788142 124.407795 255.337271 124.407795 254.867211
C 124.407795 254.39715 124.221038 253.946279 123.888656 253.613897
C 123.556273 253.281514 123.105402 253.094757 122.635341 253.094757
C 122.165281 253.094757 121.71441 253.281514 121.382027 253.613897
C 121.049645 253.946279 120.862888 254.39715 120.862888 254.867211
C 120.862888 255.337271 121.049645 255.788142 121.382027 256.120525
C 121.71441 256.452908 122.165281 256.639664 122.635341 256.639664
z
" style="stroke:#000000;stroke-width:0.886227;"/>
    <path clip-path="url(#pebd1a55ab7)" d="M 235.270592 162.83395
C 235.740652 162.83395 236.191523 162.647193 236.523906 162.31481
C 236.856289 161.982428 237.043046 161.531557 237.043046 161.061496
C 237.043046 160.591436 236.856289 160.140565 236.523906 159.808182
C 236.191523 159.475799 235.740652 159.289043 235.270592 159.289043
C 234.800532 159.289043 234.349661 159.475799 234.017278 159.808182
C 233.684895 160.140565 233.498138 160.591436 233.498138 161.061496
C 233.498138 161.531557 233.684895 161.982428 234.017278 162.31481
C 234.349661 162.647193 234.800532 162.83395 235.270592 162.83395
z
" style="stroke:#000000;stroke-width:0.886227;"/>
    <path clip-path="url(#pebd1a55ab7)" d="M 347.905842 207.268236
C 348.375903 207.268236 348.826774 207.081479 349.159157 206.749096
C 349.491539 206.416713 349.678296 205.965842 349.678296 205.495782
C 349.678296 205.025722 349.491539 204.574851 349.159157 204.242468
C 348.826774 203.910085 348.375903 203.723328 347.905842 203.723328
C 347.435782 203.723328 346.984911 203.910085 346.652528 204.242468
C 346.320145 204.574851 346.133389 205.025722 346.133389 205.495782
C 346.133389 205.965842 346.320145 206.416713 346.652528 206.749096
C 346.984911 207.081479 347.435782 207.268236 347.905842 207.268236
z
" style="stroke:#000000;stroke-width:0.886227;"/>
    <path clip-path="url(#pebd1a55ab7)" d="M 182.265768 207.268236
C 182.735828 207.268236 183.1867 207.081479 183.519082 206.749096
C 183.851465 206.416713 184.038222 205.965842 184.038222 205.495782
C 184.038222 205.025722 183.851465 204.574851 183.519082 204.242468
C 183.1867 203.910085 182.735828 203.723328 182.265768 203.723328
C 181.795708 203.723328 181.344837 203.910085 181.012454 204.242468
C 180.680071 204.574851 180.493314 205.025722 180.493314 205.495782
C 180.493314 205.965842 180.680071 206.416713 181.012454 206.749096
C 181.344837 207.081479 181.795708 207.268236 182.265768 207.268236
z
" style="stroke:#000000;stroke-width:0.886227;"/>
    <path clip-path="url(#pebd1a55ab7)" d="M 142.51215 128.27395
C 142.982211 128.27395 143.433082 128.087193 143.765465 127.75481
C 144.097847 127.422428 144.284604 126.971557 144.284604 126.501496
C 144.284604 126.031436 144.097847 125.580565 143.765465 125.248182
C 143.433082 124.915799 142.982211 124.729043 142.51215 124.729043
C 142.04209 124.729043 141.591219 124.915799 141.258836 125.248182
C 140.926453 125.580565 140.739697 126.031436 140.739697 126.501496
C 140.739697 126.971557 140.926453 127.422428 141.258836 127.75481
C 141.591219 128.087193 142.04209 128.27395 142.51215 128.27395
z
" style="stroke:#000000;stroke-width:0.886227;"/>
    <path clip-path="url(#pebd1a55ab7)" d="M 96.13293 59.15395
C 96.60299 59.15395 97.053861 58.967193 97.386244 58.63481
C 97.718627 58.302428 97.905383 57.851557 97.905383 57.381496
C 97.905383 56.911436 97.718627 56.460565 97.386244 56.128182
C 97.053861 55.795799 96.60299 55.609043 96.13293 55.609043
C 95.662869 55.609043 95.211998 55.795799 94.879615 56.128182
C 94.547233 56.460565 94.360476 56.911436 94.360476 57.381496
C 94.360476 57.851557 94.547233 58.302428 94.879615 58.63481
C 95.211998 58.967193 95.662869 59.15395 96.13293 59.15395
z
" style="stroke:#000000;stroke-width:0.886227;"/>
    <path clip-path="url(#pebd1a55ab7)" d="M 248.521798 207.268236
C 248.991858 207.268236 249.442729 207.081479 249.775112 206.749096
C 250.107495 206.416713 250.294252 205.965842 250.294252 205.495782
C 250.294252 205.025722 250.107495 204.574851 249.775112 204.242468
C 249.442729 203.910085 248.991858 203.723328 248.521798 203.723328
C 248.051738 203.723328 247.600867 203.910085 247.268484 204.242468
C 246.936101 204.574851 246.749344 205.025722 246.749344 205.495782
C 246.749344 205.965842 246.936101 206.416713 247.268484 206.749096
C 247.600867 207.081479 248.051738 207.268236 248.521798 207.268236
z
" style="stroke:#000000;stroke-width:0.886227;"/>
   </g>
  </g>
  <g id="text_13">
   <!-- GSVA $v.s.$ ORA pathway ranking -->
   <defs>
    <path d="M 7.171875 54.6875
L 16.703125 54.6875
L 24.703125 8.203125
L 50.875 54.6875
L 60.40625 54.6875
L 29.296875 0
L 17.1875 0
z
" id="DejaVuSans-Oblique-118"/>
    <path d="M 10.6875 12.40625
L 21 12.40625
L 21 0
L 10.6875 0
z
" id="DejaVuSans-46"/>
    <path d="M 50 53.078125
L 48.296875 44.578125
Q 44.734375 46.53125 40.765625 47.5
Q 36.8125 48.484375 32.625 48.484375
Q 25.53125 48.484375 21.453125 46.0625
Q 17.390625 43.65625 17.390625 39.5
Q 17.390625 34.671875 26.859375 32.078125
Q 27.59375 31.890625 27.9375 31.78125
L 30.8125 30.90625
Q 39.796875 28.421875 42.796875 25.6875
Q 45.796875 22.953125 45.796875 18.21875
Q 45.796875 9.515625 38.890625 4.046875
Q 31.984375 -1.421875 20.796875 -1.421875
Q 16.453125 -1.421875 11.671875 -0.578125
Q 6.890625 0.25 1.125 2
L 2.875 11.28125
Q 7.8125 8.734375 12.59375 7.421875
Q 17.390625 6.109375 21.78125 6.109375
Q 28.375 6.109375 32.5 8.9375
Q 36.625 11.765625 36.625 16.109375
Q 36.625 20.796875 25.78125 23.6875
L 24.859375 23.921875
L 21.78125 24.703125
Q 14.9375 26.515625 11.765625 29.46875
Q 8.59375 32.421875 8.59375 37.015625
Q 8.59375 45.75 15.15625 50.875
Q 21.734375 56 33.015625 56
Q 37.453125 56 41.671875 55.265625
Q 45.90625 54.546875 50 53.078125
z
" id="DejaVuSans-Oblique-115"/>
   </defs>
   <g transform="translate(96.272188 11.4)scale(0.15 -0.15)">
    <use transform="translate(0 0.015625)" xlink:href="#DejaVuSans-71"/>
    <use transform="translate(77.490234 0.015625)" xlink:href="#DejaVuSans-83"/>
    <use transform="translate(140.966797 0.015625)" xlink:href="#DejaVuSans-86"/>
    <use transform="translate(209.375 0.015625)" xlink:href="#DejaVuSans-65"/>
    <use transform="translate(277.783203 0.015625)" xlink:href="#DejaVuSans-32"/>
    <use transform="translate(309.570312 0.015625)" xlink:href="#DejaVuSans-Oblique-118"/>
    <use transform="translate(368.75 0.015625)" xlink:href="#DejaVuSans-46"/>
    <use transform="translate(420.019531 0.015625)" xlink:href="#DejaVuSans-Oblique-115"/>
    <use transform="translate(472.119141 0.015625)" xlink:href="#DejaVuSans-46"/>
    <use transform="translate(523.388672 0.015625)" xlink:href="#DejaVuSans-32"/>
    <use transform="translate(555.175781 0.015625)" xlink:href="#DejaVuSans-79"/>
    <use transform="translate(633.886719 0.015625)" xlink:href="#DejaVuSans-82"/>
    <use transform="translate(703.369141 0.015625)" xlink:href="#DejaVuSans-65"/>
    <use transform="translate(771.777344 0.015625)" xlink:href="#DejaVuSans-32"/>
    <use transform="translate(803.564453 0.015625)" xlink:href="#DejaVuSans-112"/>
    <use transform="translate(867.041016 0.015625)" xlink:href="#DejaVuSans-97"/>
    <use transform="translate(928.320312 0.015625)" xlink:href="#DejaVuSans-116"/>
    <use transform="translate(967.529297 0.015625)" xlink:href="#DejaVuSans-104"/>
    <use transform="translate(1030.908203 0.015625)" xlink:href="#DejaVuSans-119"/>
    <use transform="translate(1112.695312 0.015625)" xlink:href="#DejaVuSans-97"/>
    <use transform="translate(1173.974609 0.015625)" xlink:href="#DejaVuSans-121"/>
    <use transform="translate(1233.154297 0.015625)" xlink:href="#DejaVuSans-32"/>
    <use transform="translate(1264.941406 0.015625)" xlink:href="#DejaVuSans-114"/>
    <use transform="translate(1306.054688 0.015625)" xlink:href="#DejaVuSans-97"/>
    <use transform="translate(1367.333984 0.015625)" xlink:href="#DejaVuSans-110"/>
    <use transform="translate(1430.712891 0.015625)" xlink:href="#DejaVuSans-107"/>
    <use transform="translate(1488.623047 0.015625)" xlink:href="#DejaVuSans-105"/>
    <use transform="translate(1516.40625 0.015625)" xlink:href="#DejaVuSans-110"/>
    <use transform="translate(1579.785156 0.015625)" xlink:href="#DejaVuSans-103"/>
   </g>
  </g>
 </g>
 <defs>
  <clipPath id="pebd1a55ab7">
   <rect height="266.112" width="357.12" x="46.772188" y="20.599782"/>
  </clipPath>
 </defs>
</svg>
