<?xml version="1.0" encoding="utf-8" standalone="no"?>
<!DOCTYPE svg PUBLIC "-//W3C//DTD SVG 1.1//EN"
  "http://www.w3.org/Graphics/SVG/1.1/DTD/svg11.dtd">
<!-- Created with matplotlib (https://matplotlib.org/) -->
<svg height="322.176313pt" version="1.1" viewBox="0 0 406.642188 322.176313" width="406.642188pt" xmlns="http://www.w3.org/2000/svg" xmlns:xlink="http://www.w3.org/1999/xlink">
 <defs>
  <style type="text/css">
*{stroke-linecap:butt;stroke-linejoin:round;}
  </style>
 </defs>
 <g id="figure_1">
  <g id="patch_1">
   <path d="M 0 322.176313
L 406.642188 322.176313
L 406.642188 0
L 0 0
z
" style="fill:#ffffff;stroke:#ffffff;stroke-linejoin:miter;"/>
  </g>
  <g id="axes_1">
   <g id="patch_2">
    <path d="M 46.772188 286.695376
L 403.892188 286.695376
L 403.892188 20.583376
L 46.772188 20.583376
z
" style="fill:none;"/>
   </g>
   <g id="matplotlib.axis_1">
    <g id="xtick_1">
     <g id="line2d_1">
      <path clip-path="url(#p147d39619b)" d="M 63.004915 286.695376
L 63.004915 20.583376
" style="fill:none;stroke:#e5e5e5;stroke-width:0.8;"/>
     </g>
     <g id="line2d_2">
      <path d="M 63.004915 286.695376
" style="fill:none;stroke:#000000;stroke-width:1.5;"/>
      <defs>
       <path d="M 0 0
L 0 2.75
" id="ma4c55cf77f" style="stroke:#000000;"/>
      </defs>
      <g>
       <use style="stroke:#000000;" x="63.004915" xlink:href="#ma4c55cf77f" y="286.695376"/>
      </g>
     </g>
     <g id="text_1">
      <!-- 0 -->
      <defs>
       <path d="M 31.78125 66.40625
Q 24.171875 66.40625 20.328125 58.90625
Q 16.5 51.421875 16.5 36.375
Q 16.5 21.390625 20.328125 13.890625
Q 24.171875 6.390625 31.78125 6.390625
Q 39.453125 6.390625 43.28125 13.890625
Q 47.125 21.390625 47.125 36.375
Q 47.125 51.421875 43.28125 58.90625
Q 39.453125 66.40625 31.78125 66.40625
z
M 31.78125 74.21875
Q 44.046875 74.21875 50.515625 64.515625
Q 56.984375 54.828125 56.984375 36.375
Q 56.984375 17.96875 50.515625 8.265625
Q 44.046875 -1.421875 31.78125 -1.421875
Q 19.53125 -1.421875 13.0625 8.265625
Q 6.59375 17.96875 6.59375 36.375
Q 6.59375 54.828125 13.0625 64.515625
Q 19.53125 74.21875 31.78125 74.21875
z
" id="DejaVuSans-48"/>
      </defs>
      <g style="fill:#4d4d4d;" transform="translate(59.187415 300.763501)scale(0.12 -0.12)">
       <use xlink:href="#DejaVuSans-48"/>
      </g>
     </g>
    </g>
    <g id="xtick_2">
     <g id="line2d_3">
      <path clip-path="url(#p147d39619b)" d="M 148.767932 286.695376
L 148.767932 20.583376
" style="fill:none;stroke:#e5e5e5;stroke-width:0.8;"/>
     </g>
     <g id="line2d_4">
      <path d="M 148.767932 286.695376
" style="fill:none;stroke:#000000;stroke-width:1.5;"/>
      <g>
       <use style="stroke:#000000;" x="148.767932" xlink:href="#ma4c55cf77f" y="286.695376"/>
      </g>
     </g>
     <g id="text_2">
      <!-- 2.5 -->
      <defs>
       <path d="M 19.1875 8.296875
L 53.609375 8.296875
L 53.609375 0
L 7.328125 0
L 7.328125 8.296875
Q 12.9375 14.109375 22.625 23.890625
Q 32.328125 33.6875 34.8125 36.53125
Q 39.546875 41.84375 41.421875 45.53125
Q 43.3125 49.21875 43.3125 52.78125
Q 43.3125 58.59375 39.234375 62.25
Q 35.15625 65.921875 28.609375 65.921875
Q 23.96875 65.921875 18.8125 64.3125
Q 13.671875 62.703125 7.8125 59.421875
L 7.8125 69.390625
Q 13.765625 71.78125 18.9375 73
Q 24.125 74.21875 28.421875 74.21875
Q 39.75 74.21875 46.484375 68.546875
Q 53.21875 62.890625 53.21875 53.421875
Q 53.21875 48.921875 51.53125 44.890625
Q 49.859375 40.875 45.40625 35.40625
Q 44.1875 33.984375 37.640625 27.21875
Q 31.109375 20.453125 19.1875 8.296875
z
" id="DejaVuSans-50"/>
       <path d="M 10.6875 12.40625
L 21 12.40625
L 21 0
L 10.6875 0
z
" id="DejaVuSans-46"/>
       <path d="M 10.796875 72.90625
L 49.515625 72.90625
L 49.515625 64.59375
L 19.828125 64.59375
L 19.828125 46.734375
Q 21.96875 47.46875 24.109375 47.828125
Q 26.265625 48.1875 28.421875 48.1875
Q 40.625 48.1875 47.75 41.5
Q 54.890625 34.8125 54.890625 23.390625
Q 54.890625 11.625 47.5625 5.09375
Q 40.234375 -1.421875 26.90625 -1.421875
Q 22.3125 -1.421875 17.546875 -0.640625
Q 12.796875 0.140625 7.71875 1.703125
L 7.71875 11.625
Q 12.109375 9.234375 16.796875 8.0625
Q 21.484375 6.890625 26.703125 6.890625
Q 35.15625 6.890625 40.078125 11.328125
Q 45.015625 15.765625 45.015625 23.390625
Q 45.015625 31 40.078125 35.4375
Q 35.15625 39.890625 26.703125 39.890625
Q 22.75 39.890625 18.8125 39.015625
Q 14.890625 38.140625 10.796875 36.28125
z
" id="DejaVuSans-53"/>
      </defs>
      <g style="fill:#4d4d4d;" transform="translate(139.226057 300.763501)scale(0.12 -0.12)">
       <use xlink:href="#DejaVuSans-50"/>
       <use x="63.623047" xlink:href="#DejaVuSans-46"/>
       <use x="95.410156" xlink:href="#DejaVuSans-53"/>
      </g>
     </g>
    </g>
    <g id="xtick_3">
     <g id="line2d_5">
      <path clip-path="url(#p147d39619b)" d="M 234.530949 286.695376
L 234.530949 20.583376
" style="fill:none;stroke:#e5e5e5;stroke-width:0.8;"/>
     </g>
     <g id="line2d_6">
      <path d="M 234.530949 286.695376
" style="fill:none;stroke:#000000;stroke-width:1.5;"/>
      <g>
       <use style="stroke:#000000;" x="234.530949" xlink:href="#ma4c55cf77f" y="286.695376"/>
      </g>
     </g>
     <g id="text_3">
      <!-- 5 -->
      <g style="fill:#4d4d4d;" transform="translate(230.713449 300.763501)scale(0.12 -0.12)">
       <use xlink:href="#DejaVuSans-53"/>
      </g>
     </g>
    </g>
    <g id="xtick_4">
     <g id="line2d_7">
      <path clip-path="url(#p147d39619b)" d="M 320.293967 286.695376
L 320.293967 20.583376
" style="fill:none;stroke:#e5e5e5;stroke-width:0.8;"/>
     </g>
     <g id="line2d_8">
      <path d="M 320.293967 286.695376
" style="fill:none;stroke:#000000;stroke-width:1.5;"/>
      <g>
       <use style="stroke:#000000;" x="320.293967" xlink:href="#ma4c55cf77f" y="286.695376"/>
      </g>
     </g>
     <g id="text_4">
      <!-- 7.5 -->
      <defs>
       <path d="M 8.203125 72.90625
L 55.078125 72.90625
L 55.078125 68.703125
L 28.609375 0
L 18.3125 0
L 43.21875 64.59375
L 8.203125 64.59375
z
" id="DejaVuSans-55"/>
      </defs>
      <g style="fill:#4d4d4d;" transform="translate(310.752092 300.763501)scale(0.12 -0.12)">
       <use xlink:href="#DejaVuSans-55"/>
       <use x="63.623047" xlink:href="#DejaVuSans-46"/>
       <use x="95.410156" xlink:href="#DejaVuSans-53"/>
      </g>
     </g>
    </g>
    <g id="xtick_5">
     <g id="line2d_9">
      <path clip-path="url(#p147d39619b)" d="M 105.886423 286.695376
L 105.886423 20.583376
" style="fill:none;stroke:#fafafa;"/>
     </g>
     <g id="line2d_10">
      <path d="M 105.886423 286.695376
" style="fill:none;stroke:#000000;stroke-width:1.5;"/>
     </g>
    </g>
    <g id="xtick_6">
     <g id="line2d_11">
      <path clip-path="url(#p147d39619b)" d="M 191.649441 286.695376
L 191.649441 20.583376
" style="fill:none;stroke:#fafafa;"/>
     </g>
     <g id="line2d_12">
      <path d="M 191.649441 286.695376
" style="fill:none;stroke:#000000;stroke-width:1.5;"/>
     </g>
    </g>
    <g id="xtick_7">
     <g id="line2d_13">
      <path clip-path="url(#p147d39619b)" d="M 277.412458 286.695376
L 277.412458 20.583376
" style="fill:none;stroke:#fafafa;"/>
     </g>
     <g id="line2d_14">
      <path d="M 277.412458 286.695376
" style="fill:none;stroke:#000000;stroke-width:1.5;"/>
     </g>
    </g>
    <g id="xtick_8">
     <g id="line2d_15">
      <path clip-path="url(#p147d39619b)" d="M 363.175475 286.695376
L 363.175475 20.583376
" style="fill:none;stroke:#fafafa;"/>
     </g>
     <g id="line2d_16">
      <path d="M 363.175475 286.695376
" style="fill:none;stroke:#000000;stroke-width:1.5;"/>
     </g>
    </g>
    <g id="text_5">
     <!-- -log10(median(adjusted p-value))) -->
     <defs>
      <path d="M 4.890625 31.390625
L 31.203125 31.390625
L 31.203125 23.390625
L 4.890625 23.390625
z
" id="DejaVuSans-45"/>
      <path d="M 9.421875 75.984375
L 18.40625 75.984375
L 18.40625 0
L 9.421875 0
z
" id="DejaVuSans-108"/>
      <path d="M 30.609375 48.390625
Q 23.390625 48.390625 19.1875 42.75
Q 14.984375 37.109375 14.984375 27.296875
Q 14.984375 17.484375 19.15625 11.84375
Q 23.34375 6.203125 30.609375 6.203125
Q 37.796875 6.203125 41.984375 11.859375
Q 46.1875 17.53125 46.1875 27.296875
Q 46.1875 37.015625 41.984375 42.703125
Q 37.796875 48.390625 30.609375 48.390625
z
M 30.609375 56
Q 42.328125 56 49.015625 48.375
Q 55.71875 40.765625 55.71875 27.296875
Q 55.71875 13.875 49.015625 6.21875
Q 42.328125 -1.421875 30.609375 -1.421875
Q 18.84375 -1.421875 12.171875 6.21875
Q 5.515625 13.875 5.515625 27.296875
Q 5.515625 40.765625 12.171875 48.375
Q 18.84375 56 30.609375 56
z
" id="DejaVuSans-111"/>
      <path d="M 45.40625 27.984375
Q 45.40625 37.75 41.375 43.109375
Q 37.359375 48.484375 30.078125 48.484375
Q 22.859375 48.484375 18.828125 43.109375
Q 14.796875 37.75 14.796875 27.984375
Q 14.796875 18.265625 18.828125 12.890625
Q 22.859375 7.515625 30.078125 7.515625
Q 37.359375 7.515625 41.375 12.890625
Q 45.40625 18.265625 45.40625 27.984375
z
M 54.390625 6.78125
Q 54.390625 -7.171875 48.1875 -13.984375
Q 42 -20.796875 29.203125 -20.796875
Q 24.46875 -20.796875 20.265625 -20.09375
Q 16.0625 -19.390625 12.109375 -17.921875
L 12.109375 -9.1875
Q 16.0625 -11.328125 19.921875 -12.34375
Q 23.78125 -13.375 27.78125 -13.375
Q 36.625 -13.375 41.015625 -8.765625
Q 45.40625 -4.15625 45.40625 5.171875
L 45.40625 9.625
Q 42.625 4.78125 38.28125 2.390625
Q 33.9375 0 27.875 0
Q 17.828125 0 11.671875 7.65625
Q 5.515625 15.328125 5.515625 27.984375
Q 5.515625 40.671875 11.671875 48.328125
Q 17.828125 56 27.875 56
Q 33.9375 56 38.28125 53.609375
Q 42.625 51.21875 45.40625 46.390625
L 45.40625 54.6875
L 54.390625 54.6875
z
" id="DejaVuSans-103"/>
      <path d="M 12.40625 8.296875
L 28.515625 8.296875
L 28.515625 63.921875
L 10.984375 60.40625
L 10.984375 69.390625
L 28.421875 72.90625
L 38.28125 72.90625
L 38.28125 8.296875
L 54.390625 8.296875
L 54.390625 0
L 12.40625 0
z
" id="DejaVuSans-49"/>
      <path d="M 31 75.875
Q 24.46875 64.65625 21.28125 53.65625
Q 18.109375 42.671875 18.109375 31.390625
Q 18.109375 20.125 21.3125 9.0625
Q 24.515625 -2 31 -13.1875
L 23.1875 -13.1875
Q 15.875 -1.703125 12.234375 9.375
Q 8.59375 20.453125 8.59375 31.390625
Q 8.59375 42.28125 12.203125 53.3125
Q 15.828125 64.359375 23.1875 75.875
z
" id="DejaVuSans-40"/>
      <path d="M 52 44.1875
Q 55.375 50.25 60.0625 53.125
Q 64.75 56 71.09375 56
Q 79.640625 56 84.28125 50.015625
Q 88.921875 44.046875 88.921875 33.015625
L 88.921875 0
L 79.890625 0
L 79.890625 32.71875
Q 79.890625 40.578125 77.09375 44.375
Q 74.3125 48.1875 68.609375 48.1875
Q 61.625 48.1875 57.5625 43.546875
Q 53.515625 38.921875 53.515625 30.90625
L 53.515625 0
L 44.484375 0
L 44.484375 32.71875
Q 44.484375 40.625 41.703125 44.40625
Q 38.921875 48.1875 33.109375 48.1875
Q 26.21875 48.1875 22.15625 43.53125
Q 18.109375 38.875 18.109375 30.90625
L 18.109375 0
L 9.078125 0
L 9.078125 54.6875
L 18.109375 54.6875
L 18.109375 46.1875
Q 21.1875 51.21875 25.484375 53.609375
Q 29.78125 56 35.6875 56
Q 41.65625 56 45.828125 52.96875
Q 50 49.953125 52 44.1875
z
" id="DejaVuSans-109"/>
      <path d="M 56.203125 29.59375
L 56.203125 25.203125
L 14.890625 25.203125
Q 15.484375 15.921875 20.484375 11.0625
Q 25.484375 6.203125 34.421875 6.203125
Q 39.59375 6.203125 44.453125 7.46875
Q 49.3125 8.734375 54.109375 11.28125
L 54.109375 2.78125
Q 49.265625 0.734375 44.1875 -0.34375
Q 39.109375 -1.421875 33.890625 -1.421875
Q 20.796875 -1.421875 13.15625 6.1875
Q 5.515625 13.8125 5.515625 26.8125
Q 5.515625 40.234375 12.765625 48.109375
Q 20.015625 56 32.328125 56
Q 43.359375 56 49.78125 48.890625
Q 56.203125 41.796875 56.203125 29.59375
z
M 47.21875 32.234375
Q 47.125 39.59375 43.09375 43.984375
Q 39.0625 48.390625 32.421875 48.390625
Q 24.90625 48.390625 20.390625 44.140625
Q 15.875 39.890625 15.1875 32.171875
z
" id="DejaVuSans-101"/>
      <path d="M 45.40625 46.390625
L 45.40625 75.984375
L 54.390625 75.984375
L 54.390625 0
L 45.40625 0
L 45.40625 8.203125
Q 42.578125 3.328125 38.25 0.953125
Q 33.9375 -1.421875 27.875 -1.421875
Q 17.96875 -1.421875 11.734375 6.484375
Q 5.515625 14.40625 5.515625 27.296875
Q 5.515625 40.1875 11.734375 48.09375
Q 17.96875 56 27.875 56
Q 33.9375 56 38.25 53.625
Q 42.578125 51.265625 45.40625 46.390625
z
M 14.796875 27.296875
Q 14.796875 17.390625 18.875 11.75
Q 22.953125 6.109375 30.078125 6.109375
Q 37.203125 6.109375 41.296875 11.75
Q 45.40625 17.390625 45.40625 27.296875
Q 45.40625 37.203125 41.296875 42.84375
Q 37.203125 48.484375 30.078125 48.484375
Q 22.953125 48.484375 18.875 42.84375
Q 14.796875 37.203125 14.796875 27.296875
z
" id="DejaVuSans-100"/>
      <path d="M 9.421875 54.6875
L 18.40625 54.6875
L 18.40625 0
L 9.421875 0
z
M 9.421875 75.984375
L 18.40625 75.984375
L 18.40625 64.59375
L 9.421875 64.59375
z
" id="DejaVuSans-105"/>
      <path d="M 34.28125 27.484375
Q 23.390625 27.484375 19.1875 25
Q 14.984375 22.515625 14.984375 16.5
Q 14.984375 11.71875 18.140625 8.90625
Q 21.296875 6.109375 26.703125 6.109375
Q 34.1875 6.109375 38.703125 11.40625
Q 43.21875 16.703125 43.21875 25.484375
L 43.21875 27.484375
z
M 52.203125 31.203125
L 52.203125 0
L 43.21875 0
L 43.21875 8.296875
Q 40.140625 3.328125 35.546875 0.953125
Q 30.953125 -1.421875 24.3125 -1.421875
Q 15.921875 -1.421875 10.953125 3.296875
Q 6 8.015625 6 15.921875
Q 6 25.140625 12.171875 29.828125
Q 18.359375 34.515625 30.609375 34.515625
L 43.21875 34.515625
L 43.21875 35.40625
Q 43.21875 41.609375 39.140625 45
Q 35.0625 48.390625 27.6875 48.390625
Q 23 48.390625 18.546875 47.265625
Q 14.109375 46.140625 10.015625 43.890625
L 10.015625 52.203125
Q 14.9375 54.109375 19.578125 55.046875
Q 24.21875 56 28.609375 56
Q 40.484375 56 46.34375 49.84375
Q 52.203125 43.703125 52.203125 31.203125
z
" id="DejaVuSans-97"/>
      <path d="M 54.890625 33.015625
L 54.890625 0
L 45.90625 0
L 45.90625 32.71875
Q 45.90625 40.484375 42.875 44.328125
Q 39.84375 48.1875 33.796875 48.1875
Q 26.515625 48.1875 22.3125 43.546875
Q 18.109375 38.921875 18.109375 30.90625
L 18.109375 0
L 9.078125 0
L 9.078125 54.6875
L 18.109375 54.6875
L 18.109375 46.1875
Q 21.34375 51.125 25.703125 53.5625
Q 30.078125 56 35.796875 56
Q 45.21875 56 50.046875 50.171875
Q 54.890625 44.34375 54.890625 33.015625
z
" id="DejaVuSans-110"/>
      <path d="M 9.421875 54.6875
L 18.40625 54.6875
L 18.40625 -0.984375
Q 18.40625 -11.421875 14.421875 -16.109375
Q 10.453125 -20.796875 1.609375 -20.796875
L -1.8125 -20.796875
L -1.8125 -13.1875
L 0.59375 -13.1875
Q 5.71875 -13.1875 7.5625 -10.8125
Q 9.421875 -8.453125 9.421875 -0.984375
z
M 9.421875 75.984375
L 18.40625 75.984375
L 18.40625 64.59375
L 9.421875 64.59375
z
" id="DejaVuSans-106"/>
      <path d="M 8.5 21.578125
L 8.5 54.6875
L 17.484375 54.6875
L 17.484375 21.921875
Q 17.484375 14.15625 20.5 10.265625
Q 23.53125 6.390625 29.59375 6.390625
Q 36.859375 6.390625 41.078125 11.03125
Q 45.3125 15.671875 45.3125 23.6875
L 45.3125 54.6875
L 54.296875 54.6875
L 54.296875 0
L 45.3125 0
L 45.3125 8.40625
Q 42.046875 3.421875 37.71875 1
Q 33.40625 -1.421875 27.6875 -1.421875
Q 18.265625 -1.421875 13.375 4.4375
Q 8.5 10.296875 8.5 21.578125
z
M 31.109375 56
z
" id="DejaVuSans-117"/>
      <path d="M 44.28125 53.078125
L 44.28125 44.578125
Q 40.484375 46.53125 36.375 47.5
Q 32.28125 48.484375 27.875 48.484375
Q 21.1875 48.484375 17.84375 46.4375
Q 14.5 44.390625 14.5 40.28125
Q 14.5 37.15625 16.890625 35.375
Q 19.28125 33.59375 26.515625 31.984375
L 29.59375 31.296875
Q 39.15625 29.25 43.1875 25.515625
Q 47.21875 21.78125 47.21875 15.09375
Q 47.21875 7.46875 41.1875 3.015625
Q 35.15625 -1.421875 24.609375 -1.421875
Q 20.21875 -1.421875 15.453125 -0.5625
Q 10.6875 0.296875 5.421875 2
L 5.421875 11.28125
Q 10.40625 8.6875 15.234375 7.390625
Q 20.0625 6.109375 24.8125 6.109375
Q 31.15625 6.109375 34.5625 8.28125
Q 37.984375 10.453125 37.984375 14.40625
Q 37.984375 18.0625 35.515625 20.015625
Q 33.0625 21.96875 24.703125 23.78125
L 21.578125 24.515625
Q 13.234375 26.265625 9.515625 29.90625
Q 5.8125 33.546875 5.8125 39.890625
Q 5.8125 47.609375 11.28125 51.796875
Q 16.75 56 26.8125 56
Q 31.78125 56 36.171875 55.265625
Q 40.578125 54.546875 44.28125 53.078125
z
" id="DejaVuSans-115"/>
      <path d="M 18.3125 70.21875
L 18.3125 54.6875
L 36.8125 54.6875
L 36.8125 47.703125
L 18.3125 47.703125
L 18.3125 18.015625
Q 18.3125 11.328125 20.140625 9.421875
Q 21.96875 7.515625 27.59375 7.515625
L 36.8125 7.515625
L 36.8125 0
L 27.59375 0
Q 17.1875 0 13.234375 3.875
Q 9.28125 7.765625 9.28125 18.015625
L 9.28125 47.703125
L 2.6875 47.703125
L 2.6875 54.6875
L 9.28125 54.6875
L 9.28125 70.21875
z
" id="DejaVuSans-116"/>
      <path id="DejaVuSans-32"/>
      <path d="M 18.109375 8.203125
L 18.109375 -20.796875
L 9.078125 -20.796875
L 9.078125 54.6875
L 18.109375 54.6875
L 18.109375 46.390625
Q 20.953125 51.265625 25.265625 53.625
Q 29.59375 56 35.59375 56
Q 45.5625 56 51.78125 48.09375
Q 58.015625 40.1875 58.015625 27.296875
Q 58.015625 14.40625 51.78125 6.484375
Q 45.5625 -1.421875 35.59375 -1.421875
Q 29.59375 -1.421875 25.265625 0.953125
Q 20.953125 3.328125 18.109375 8.203125
z
M 48.6875 27.296875
Q 48.6875 37.203125 44.609375 42.84375
Q 40.53125 48.484375 33.40625 48.484375
Q 26.265625 48.484375 22.1875 42.84375
Q 18.109375 37.203125 18.109375 27.296875
Q 18.109375 17.390625 22.1875 11.75
Q 26.265625 6.109375 33.40625 6.109375
Q 40.53125 6.109375 44.609375 11.75
Q 48.6875 17.390625 48.6875 27.296875
z
" id="DejaVuSans-112"/>
      <path d="M 2.984375 54.6875
L 12.5 54.6875
L 29.59375 8.796875
L 46.6875 54.6875
L 56.203125 54.6875
L 35.6875 0
L 23.484375 0
z
" id="DejaVuSans-118"/>
      <path d="M 8.015625 75.875
L 15.828125 75.875
Q 23.140625 64.359375 26.78125 53.3125
Q 30.421875 42.28125 30.421875 31.390625
Q 30.421875 20.453125 26.78125 9.375
Q 23.140625 -1.703125 15.828125 -13.1875
L 8.015625 -13.1875
Q 14.5 -2 17.703125 9.0625
Q 20.90625 20.125 20.90625 31.390625
Q 20.90625 42.671875 17.703125 53.65625
Q 14.5 64.65625 8.015625 75.875
z
" id="DejaVuSans-41"/>
     </defs>
     <g transform="translate(90.390547 319.056782)scale(0.15 -0.15)">
      <use xlink:href="#DejaVuSans-45"/>
      <use x="36.083984" xlink:href="#DejaVuSans-108"/>
      <use x="63.867188" xlink:href="#DejaVuSans-111"/>
      <use x="125.048828" xlink:href="#DejaVuSans-103"/>
      <use x="188.525391" xlink:href="#DejaVuSans-49"/>
      <use x="252.148438" xlink:href="#DejaVuSans-48"/>
      <use x="315.771484" xlink:href="#DejaVuSans-40"/>
      <use x="354.785156" xlink:href="#DejaVuSans-109"/>
      <use x="452.197266" xlink:href="#DejaVuSans-101"/>
      <use x="513.720703" xlink:href="#DejaVuSans-100"/>
      <use x="577.197266" xlink:href="#DejaVuSans-105"/>
      <use x="604.980469" xlink:href="#DejaVuSans-97"/>
      <use x="666.259766" xlink:href="#DejaVuSans-110"/>
      <use x="729.638672" xlink:href="#DejaVuSans-40"/>
      <use x="768.652344" xlink:href="#DejaVuSans-97"/>
      <use x="829.931641" xlink:href="#DejaVuSans-100"/>
      <use x="893.408203" xlink:href="#DejaVuSans-106"/>
      <use x="921.191406" xlink:href="#DejaVuSans-117"/>
      <use x="984.570312" xlink:href="#DejaVuSans-115"/>
      <use x="1036.669922" xlink:href="#DejaVuSans-116"/>
      <use x="1075.878906" xlink:href="#DejaVuSans-101"/>
      <use x="1137.402344" xlink:href="#DejaVuSans-100"/>
      <use x="1200.878906" xlink:href="#DejaVuSans-32"/>
      <use x="1232.666016" xlink:href="#DejaVuSans-112"/>
      <use x="1296.142578" xlink:href="#DejaVuSans-45"/>
      <use x="1332.195312" xlink:href="#DejaVuSans-118"/>
      <use x="1391.375" xlink:href="#DejaVuSans-97"/>
      <use x="1452.654297" xlink:href="#DejaVuSans-108"/>
      <use x="1480.4375" xlink:href="#DejaVuSans-117"/>
      <use x="1543.816406" xlink:href="#DejaVuSans-101"/>
      <use x="1605.339844" xlink:href="#DejaVuSans-41"/>
      <use x="1644.353516" xlink:href="#DejaVuSans-41"/>
      <use x="1683.367188" xlink:href="#DejaVuSans-41"/>
     </g>
    </g>
   </g>
   <g id="matplotlib.axis_2">
    <g id="ytick_1">
     <g id="line2d_17">
      <path clip-path="url(#p147d39619b)" d="M 46.772188 274.599376
L 403.892188 274.599376
" style="fill:none;stroke:#e5e5e5;stroke-width:0.8;"/>
     </g>
     <g id="line2d_18">
      <path d="M 46.772188 274.599376
" style="fill:none;stroke:#000000;stroke-width:1.5;"/>
      <defs>
       <path d="M 0 0
L -2.75 0
" id="m74d73121eb" style="stroke:#000000;"/>
      </defs>
      <g>
       <use style="stroke:#000000;" x="46.772188" xlink:href="#m74d73121eb" y="274.599376"/>
      </g>
     </g>
     <g id="text_6">
      <!-- 0 -->
      <g style="fill:#4d4d4d;" transform="translate(34.187188 277.910626)scale(0.12 -0.12)">
       <use xlink:href="#DejaVuSans-48"/>
      </g>
     </g>
    </g>
    <g id="ytick_2">
     <g id="line2d_19">
      <path clip-path="url(#p147d39619b)" d="M 46.772188 214.119376
L 403.892188 214.119376
" style="fill:none;stroke:#e5e5e5;stroke-width:0.8;"/>
     </g>
     <g id="line2d_20">
      <path d="M 46.772188 214.119376
" style="fill:none;stroke:#000000;stroke-width:1.5;"/>
      <g>
       <use style="stroke:#000000;" x="46.772188" xlink:href="#m74d73121eb" y="214.119376"/>
      </g>
     </g>
     <g id="text_7">
      <!-- 25 -->
      <g style="fill:#4d4d4d;" transform="translate(26.552188 217.430626)scale(0.12 -0.12)">
       <use xlink:href="#DejaVuSans-50"/>
       <use x="63.623047" xlink:href="#DejaVuSans-53"/>
      </g>
     </g>
    </g>
    <g id="ytick_3">
     <g id="line2d_21">
      <path clip-path="url(#p147d39619b)" d="M 46.772188 153.639376
L 403.892188 153.639376
" style="fill:none;stroke:#e5e5e5;stroke-width:0.8;"/>
     </g>
     <g id="line2d_22">
      <path d="M 46.772188 153.639376
" style="fill:none;stroke:#000000;stroke-width:1.5;"/>
      <g>
       <use style="stroke:#000000;" x="46.772188" xlink:href="#m74d73121eb" y="153.639376"/>
      </g>
     </g>
     <g id="text_8">
      <!-- 50 -->
      <g style="fill:#4d4d4d;" transform="translate(26.552188 156.950626)scale(0.12 -0.12)">
       <use xlink:href="#DejaVuSans-53"/>
       <use x="63.623047" xlink:href="#DejaVuSans-48"/>
      </g>
     </g>
    </g>
    <g id="ytick_4">
     <g id="line2d_23">
      <path clip-path="url(#p147d39619b)" d="M 46.772188 93.159376
L 403.892188 93.159376
" style="fill:none;stroke:#e5e5e5;stroke-width:0.8;"/>
     </g>
     <g id="line2d_24">
      <path d="M 46.772188 93.159376
" style="fill:none;stroke:#000000;stroke-width:1.5;"/>
      <g>
       <use style="stroke:#000000;" x="46.772188" xlink:href="#m74d73121eb" y="93.159376"/>
      </g>
     </g>
     <g id="text_9">
      <!-- 75 -->
      <g style="fill:#4d4d4d;" transform="translate(26.552188 96.470626)scale(0.12 -0.12)">
       <use xlink:href="#DejaVuSans-55"/>
       <use x="63.623047" xlink:href="#DejaVuSans-53"/>
      </g>
     </g>
    </g>
    <g id="ytick_5">
     <g id="line2d_25">
      <path clip-path="url(#p147d39619b)" d="M 46.772188 32.679376
L 403.892188 32.679376
" style="fill:none;stroke:#e5e5e5;stroke-width:0.8;"/>
     </g>
     <g id="line2d_26">
      <path d="M 46.772188 32.679376
" style="fill:none;stroke:#000000;stroke-width:1.5;"/>
      <g>
       <use style="stroke:#000000;" x="46.772188" xlink:href="#m74d73121eb" y="32.679376"/>
      </g>
     </g>
     <g id="text_10">
      <!-- 100 -->
      <g style="fill:#4d4d4d;" transform="translate(18.917188 35.990626)scale(0.12 -0.12)">
       <use xlink:href="#DejaVuSans-49"/>
       <use x="63.623047" xlink:href="#DejaVuSans-48"/>
       <use x="127.246094" xlink:href="#DejaVuSans-48"/>
      </g>
     </g>
    </g>
    <g id="ytick_6">
     <g id="line2d_27">
      <path clip-path="url(#p147d39619b)" d="M 46.772188 244.359376
L 403.892188 244.359376
" style="fill:none;stroke:#fafafa;"/>
     </g>
     <g id="line2d_28">
      <path d="M 46.772188 244.359376
" style="fill:none;stroke:#000000;stroke-width:1.5;"/>
     </g>
    </g>
    <g id="ytick_7">
     <g id="line2d_29">
      <path clip-path="url(#p147d39619b)" d="M 46.772188 183.879376
L 403.892188 183.879376
" style="fill:none;stroke:#fafafa;"/>
     </g>
     <g id="line2d_30">
      <path d="M 46.772188 183.879376
" style="fill:none;stroke:#000000;stroke-width:1.5;"/>
     </g>
    </g>
    <g id="ytick_8">
     <g id="line2d_31">
      <path clip-path="url(#p147d39619b)" d="M 46.772188 123.399376
L 403.892188 123.399376
" style="fill:none;stroke:#fafafa;"/>
     </g>
     <g id="line2d_32">
      <path d="M 46.772188 123.399376
" style="fill:none;stroke:#000000;stroke-width:1.5;"/>
     </g>
    </g>
    <g id="ytick_9">
     <g id="line2d_33">
      <path clip-path="url(#p147d39619b)" d="M 46.772188 62.919376
L 403.892188 62.919376
" style="fill:none;stroke:#fafafa;"/>
     </g>
     <g id="line2d_34">
      <path d="M 46.772188 62.919376
" style="fill:none;stroke:#000000;stroke-width:1.5;"/>
     </g>
    </g>
    <g id="text_11">
     <!-- Genericness (percentile of ranking) -->
     <defs>
      <path d="M 59.515625 10.40625
L 59.515625 29.984375
L 43.40625 29.984375
L 43.40625 38.09375
L 69.28125 38.09375
L 69.28125 6.78125
Q 63.578125 2.734375 56.6875 0.65625
Q 49.8125 -1.421875 42 -1.421875
Q 24.90625 -1.421875 15.25 8.5625
Q 5.609375 18.5625 5.609375 36.375
Q 5.609375 54.25 15.25 64.234375
Q 24.90625 74.21875 42 74.21875
Q 49.125 74.21875 55.546875 72.453125
Q 61.96875 70.703125 67.390625 67.28125
L 67.390625 56.78125
Q 61.921875 61.421875 55.765625 63.765625
Q 49.609375 66.109375 42.828125 66.109375
Q 29.4375 66.109375 22.71875 58.640625
Q 16.015625 51.171875 16.015625 36.375
Q 16.015625 21.625 22.71875 14.15625
Q 29.4375 6.6875 42.828125 6.6875
Q 48.046875 6.6875 52.140625 7.59375
Q 56.25 8.5 59.515625 10.40625
z
" id="DejaVuSans-71"/>
      <path d="M 41.109375 46.296875
Q 39.59375 47.171875 37.8125 47.578125
Q 36.03125 48 33.890625 48
Q 26.265625 48 22.1875 43.046875
Q 18.109375 38.09375 18.109375 28.8125
L 18.109375 0
L 9.078125 0
L 9.078125 54.6875
L 18.109375 54.6875
L 18.109375 46.1875
Q 20.953125 51.171875 25.484375 53.578125
Q 30.03125 56 36.53125 56
Q 37.453125 56 38.578125 55.875
Q 39.703125 55.765625 41.0625 55.515625
z
" id="DejaVuSans-114"/>
      <path d="M 48.78125 52.59375
L 48.78125 44.1875
Q 44.96875 46.296875 41.140625 47.34375
Q 37.3125 48.390625 33.40625 48.390625
Q 24.65625 48.390625 19.8125 42.84375
Q 14.984375 37.3125 14.984375 27.296875
Q 14.984375 17.28125 19.8125 11.734375
Q 24.65625 6.203125 33.40625 6.203125
Q 37.3125 6.203125 41.140625 7.25
Q 44.96875 8.296875 48.78125 10.40625
L 48.78125 2.09375
Q 45.015625 0.34375 40.984375 -0.53125
Q 36.96875 -1.421875 32.421875 -1.421875
Q 20.0625 -1.421875 12.78125 6.34375
Q 5.515625 14.109375 5.515625 27.296875
Q 5.515625 40.671875 12.859375 48.328125
Q 20.21875 56 33.015625 56
Q 37.15625 56 41.109375 55.140625
Q 45.0625 54.296875 48.78125 52.59375
z
" id="DejaVuSans-99"/>
      <path d="M 37.109375 75.984375
L 37.109375 68.5
L 28.515625 68.5
Q 23.6875 68.5 21.796875 66.546875
Q 19.921875 64.59375 19.921875 59.515625
L 19.921875 54.6875
L 34.71875 54.6875
L 34.71875 47.703125
L 19.921875 47.703125
L 19.921875 0
L 10.890625 0
L 10.890625 47.703125
L 2.296875 47.703125
L 2.296875 54.6875
L 10.890625 54.6875
L 10.890625 58.5
Q 10.890625 67.625 15.140625 71.796875
Q 19.390625 75.984375 28.609375 75.984375
z
" id="DejaVuSans-102"/>
      <path d="M 9.078125 75.984375
L 18.109375 75.984375
L 18.109375 31.109375
L 44.921875 54.6875
L 56.390625 54.6875
L 27.390625 29.109375
L 57.625 0
L 45.90625 0
L 18.109375 26.703125
L 18.109375 0
L 9.078125 0
z
" id="DejaVuSans-107"/>
     </defs>
     <g transform="translate(11.397656 284.455126)rotate(-90)scale(0.15 -0.15)">
      <use xlink:href="#DejaVuSans-71"/>
      <use x="77.490234" xlink:href="#DejaVuSans-101"/>
      <use x="139.013672" xlink:href="#DejaVuSans-110"/>
      <use x="202.392578" xlink:href="#DejaVuSans-101"/>
      <use x="263.916016" xlink:href="#DejaVuSans-114"/>
      <use x="305.029297" xlink:href="#DejaVuSans-105"/>
      <use x="332.8125" xlink:href="#DejaVuSans-99"/>
      <use x="387.792969" xlink:href="#DejaVuSans-110"/>
      <use x="451.171875" xlink:href="#DejaVuSans-101"/>
      <use x="512.695312" xlink:href="#DejaVuSans-115"/>
      <use x="564.794922" xlink:href="#DejaVuSans-115"/>
      <use x="616.894531" xlink:href="#DejaVuSans-32"/>
      <use x="648.681641" xlink:href="#DejaVuSans-40"/>
      <use x="687.695312" xlink:href="#DejaVuSans-112"/>
      <use x="751.171875" xlink:href="#DejaVuSans-101"/>
      <use x="812.695312" xlink:href="#DejaVuSans-114"/>
      <use x="853.777344" xlink:href="#DejaVuSans-99"/>
      <use x="908.757812" xlink:href="#DejaVuSans-101"/>
      <use x="970.28125" xlink:href="#DejaVuSans-110"/>
      <use x="1033.660156" xlink:href="#DejaVuSans-116"/>
      <use x="1072.869141" xlink:href="#DejaVuSans-105"/>
      <use x="1100.652344" xlink:href="#DejaVuSans-108"/>
      <use x="1128.435547" xlink:href="#DejaVuSans-101"/>
      <use x="1189.958984" xlink:href="#DejaVuSans-32"/>
      <use x="1221.746094" xlink:href="#DejaVuSans-111"/>
      <use x="1282.927734" xlink:href="#DejaVuSans-102"/>
      <use x="1318.132812" xlink:href="#DejaVuSans-32"/>
      <use x="1349.919922" xlink:href="#DejaVuSans-114"/>
      <use x="1391.033203" xlink:href="#DejaVuSans-97"/>
      <use x="1452.3125" xlink:href="#DejaVuSans-110"/>
      <use x="1515.691406" xlink:href="#DejaVuSans-107"/>
      <use x="1573.601562" xlink:href="#DejaVuSans-105"/>
      <use x="1601.384766" xlink:href="#DejaVuSans-110"/>
      <use x="1664.763672" xlink:href="#DejaVuSans-103"/>
      <use x="1728.240234" xlink:href="#DejaVuSans-41"/>
     </g>
    </g>
   </g>
   <g id="PathCollection_1">
    <path clip-path="url(#p147d39619b)" d="M 67.161408 123.320401
C 67.631468 123.320401 68.082339 123.133644 68.414722 122.801261
C 68.747105 122.468879 68.933861 122.018008 68.933861 121.547947
C 68.933861 121.077887 68.747105 120.627016 68.414722 120.294633
C 68.082339 119.96225 67.631468 119.775493 67.161408 119.775493
C 66.691347 119.775493 66.240476 119.96225 65.908093 120.294633
C 65.575711 120.627016 65.388954 121.077887 65.388954 121.547947
C 65.388954 122.018008 65.575711 122.468879 65.908093 122.801261
C 66.240476 123.133644 66.691347 123.320401 67.161408 123.320401
z
" style="stroke:#000000;stroke-width:0.886227;"/>
    <path clip-path="url(#p147d39619b)" d="M 345.322681 39.388973
C 345.792741 39.388973 346.243612 39.202216 346.575995 38.869833
C 346.908377 38.53745 347.095134 38.086579 347.095134 37.616519
C 347.095134 37.146458 346.908377 36.695587 346.575995 36.363205
C 346.243612 36.030822 345.792741 35.844065 345.322681 35.844065
C 344.85262 35.844065 344.401749 36.030822 344.069366 36.363205
C 343.736984 36.695587 343.550227 37.146458 343.550227 37.616519
C 343.550227 38.086579 343.736984 38.53745 344.069366 38.869833
C 344.401749 39.202216 344.85262 39.388973 345.322681 39.388973
z
" style="stroke:#000000;stroke-width:0.886227;"/>
    <path clip-path="url(#p147d39619b)" d="M 94.786541 73.948973
C 95.256601 73.948973 95.707472 73.762216 96.039855 73.429833
C 96.372238 73.09745 96.558995 72.646579 96.558995 72.176519
C 96.558995 71.706458 96.372238 71.255587 96.039855 70.923205
C 95.707472 70.590822 95.256601 70.404065 94.786541 70.404065
C 94.316481 70.404065 93.865609 70.590822 93.533227 70.923205
C 93.200844 71.255587 93.014087 71.706458 93.014087 72.176519
C 93.014087 72.646579 93.200844 73.09745 93.533227 73.429833
C 93.865609 73.762216 94.316481 73.948973 94.786541 73.948973
z
" style="stroke:#000000;stroke-width:0.886227;"/>
    <path clip-path="url(#p147d39619b)" d="M 387.65946 34.45183
C 388.12952 34.45183 388.580392 34.265073 388.912774 33.93269
C 389.245157 33.600307 389.431914 33.149436 389.431914 32.679376
C 389.431914 32.209316 389.245157 31.758444 388.912774 31.426062
C 388.580392 31.093679 388.12952 30.906922 387.65946 30.906922
C 387.1894 30.906922 386.738529 31.093679 386.406146 31.426062
C 386.073763 31.758444 385.887006 32.209316 385.887006 32.679376
C 385.887006 33.149436 386.073763 33.600307 386.406146 33.93269
C 386.738529 34.265073 387.1894 34.45183 387.65946 34.45183
z
" style="stroke:#000000;stroke-width:0.886227;"/>
    <path clip-path="url(#p147d39619b)" d="M 116.770219 64.074687
C 117.24028 64.074687 117.691151 63.88793 118.023534 63.555547
C 118.355916 63.223164 118.542673 62.772293 118.542673 62.302233
C 118.542673 61.832173 118.355916 61.381302 118.023534 61.048919
C 117.691151 60.716536 117.24028 60.529779 116.770219 60.529779
C 116.300159 60.529779 115.849288 60.716536 115.516905 61.048919
C 115.184523 61.381302 114.997766 61.832173 114.997766 62.302233
C 114.997766 62.772293 115.184523 63.223164 115.516905 63.555547
C 115.849288 63.88793 116.300159 64.074687 116.770219 64.074687
z
" style="stroke:#000000;stroke-width:0.886227;"/>
    <path clip-path="url(#p147d39619b)" d="M 115.589538 69.01183
C 116.059599 69.01183 116.51047 68.825073 116.842853 68.49269
C 117.175235 68.160307 117.361992 67.709436 117.361992 67.239376
C 117.361992 66.769316 117.175235 66.318444 116.842853 65.986062
C 116.51047 65.653679 116.059599 65.466922 115.589538 65.466922
C 115.119478 65.466922 114.668607 65.653679 114.336224 65.986062
C 114.003842 66.318444 113.817085 66.769316 113.817085 67.239376
C 113.817085 67.709436 114.003842 68.160307 114.336224 68.49269
C 114.668607 68.825073 115.119478 69.01183 115.589538 69.01183
z
" style="stroke:#000000;stroke-width:0.886227;"/>
    <path clip-path="url(#p147d39619b)" d="M 133.900731 54.200401
C 134.370791 54.200401 134.821662 54.013644 135.154045 53.681261
C 135.486427 53.348879 135.673184 52.898008 135.673184 52.427947
C 135.673184 51.957887 135.486427 51.507016 135.154045 51.174633
C 134.821662 50.84225 134.370791 50.655493 133.900731 50.655493
C 133.43067 50.655493 132.979799 50.84225 132.647416 51.174633
C 132.315034 51.507016 132.128277 51.957887 132.128277 52.427947
C 132.128277 52.898008 132.315034 53.348879 132.647416 53.681261
C 132.979799 54.013644 133.43067 54.200401 133.900731 54.200401
z
" style="stroke:#000000;stroke-width:0.886227;"/>
    <path clip-path="url(#p147d39619b)" d="M 72.147837 118.383258
C 72.617897 118.383258 73.068768 118.196501 73.401151 117.864119
C 73.733534 117.531736 73.920291 117.080865 73.920291 116.610804
C 73.920291 116.140744 73.733534 115.689873 73.401151 115.35749
C 73.068768 115.025107 72.617897 114.838351 72.147837 114.838351
C 71.677777 114.838351 71.226906 115.025107 70.894523 115.35749
C 70.56214 115.689873 70.375383 116.140744 70.375383 116.610804
C 70.375383 117.080865 70.56214 117.531736 70.894523 117.864119
C 71.226906 118.196501 71.677777 118.383258 72.147837 118.383258
z
" style="stroke:#000000;stroke-width:0.886227;"/>
    <path clip-path="url(#p147d39619b)" d="M 63.749747 138.13183
C 64.219807 138.13183 64.670678 137.945073 65.003061 137.61269
C 65.335443 137.280307 65.5222 136.829436 65.5222 136.359376
C 65.5222 135.889316 65.335443 135.438444 65.003061 135.106062
C 64.670678 134.773679 64.219807 134.586922 63.749747 134.586922
C 63.279686 134.586922 62.828815 134.773679 62.496432 135.106062
C 62.16405 135.438444 61.977293 135.889316 61.977293 136.359376
C 61.977293 136.829436 62.16405 137.280307 62.496432 137.61269
C 62.828815 137.945073 63.279686 138.13183 63.749747 138.13183
z
" style="stroke:#000000;stroke-width:0.886227;"/>
    <path clip-path="url(#p147d39619b)" d="M 90.671712 83.823258
C 91.141772 83.823258 91.592644 83.636501 91.925026 83.304119
C 92.257409 82.971736 92.444166 82.520865 92.444166 82.050804
C 92.444166 81.580744 92.257409 81.129873 91.925026 80.79749
C 91.592644 80.465107 91.141772 80.278351 90.671712 80.278351
C 90.201652 80.278351 89.750781 80.465107 89.418398 80.79749
C 89.086015 81.129873 88.899258 81.580744 88.899258 82.050804
C 88.899258 82.520865 89.086015 82.971736 89.418398 83.304119
C 89.750781 83.636501 90.201652 83.823258 90.671712 83.823258
z
" style="stroke:#000000;stroke-width:0.886227;"/>
    <path clip-path="url(#p147d39619b)" d="M 73.241345 108.508973
C 73.711406 108.508973 74.162277 108.322216 74.49466 107.989833
C 74.827042 107.65745 75.013799 107.206579 75.013799 106.736519
C 75.013799 106.266458 74.827042 105.815587 74.49466 105.483205
C 74.162277 105.150822 73.711406 104.964065 73.241345 104.964065
C 72.771285 104.964065 72.320414 105.150822 71.988031 105.483205
C 71.655649 105.815587 71.468892 106.266458 71.468892 106.736519
C 71.468892 107.206579 71.655649 107.65745 71.988031 107.989833
C 72.320414 108.322216 72.771285 108.508973 73.241345 108.508973
z
" style="stroke:#000000;stroke-width:0.886227;"/>
    <path clip-path="url(#p147d39619b)" d="M 63.004915 239.343258
C 63.474975 239.343258 63.925846 239.156501 64.258229 238.824119
C 64.590612 238.491736 64.777369 238.040865 64.777369 237.570804
C 64.777369 237.100744 64.590612 236.649873 64.258229 236.31749
C 63.925846 235.985107 63.474975 235.798351 63.004915 235.798351
C 62.534855 235.798351 62.083983 235.985107 61.751601 236.31749
C 61.419218 236.649873 61.232461 237.100744 61.232461 237.570804
C 61.232461 238.040865 61.419218 238.491736 61.751601 238.824119
C 62.083983 239.156501 62.534855 239.343258 63.004915 239.343258
z
" style="stroke:#000000;stroke-width:0.886227;"/>
    <path clip-path="url(#p147d39619b)" d="M 90.804564 78.886115
C 91.274624 78.886115 91.725495 78.699358 92.057878 78.366976
C 92.390261 78.034593 92.577018 77.583722 92.577018 77.113662
C 92.577018 76.643601 92.390261 76.19273 92.057878 75.860347
C 91.725495 75.527965 91.274624 75.341208 90.804564 75.341208
C 90.334503 75.341208 89.883632 75.527965 89.55125 75.860347
C 89.218867 76.19273 89.03211 76.643601 89.03211 77.113662
C 89.03211 77.583722 89.218867 78.034593 89.55125 78.366976
C 89.883632 78.699358 90.334503 78.886115 90.804564 78.886115
z
" style="stroke:#000000;stroke-width:0.886227;"/>
    <path clip-path="url(#p147d39619b)" d="M 63.004915 271.434687
C 63.474975 271.434687 63.925846 271.24793 64.258229 270.915547
C 64.590612 270.583164 64.777369 270.132293 64.777369 269.662233
C 64.777369 269.192173 64.590612 268.741302 64.258229 268.408919
C 63.925846 268.076536 63.474975 267.889779 63.004915 267.889779
C 62.534855 267.889779 62.083983 268.076536 61.751601 268.408919
C 61.419218 268.741302 61.232461 269.192173 61.232461 269.662233
C 61.232461 270.132293 61.419218 270.583164 61.751601 270.915547
C 62.083983 271.24793 62.534855 271.434687 63.004915 271.434687
z
" style="stroke:#000000;stroke-width:0.886227;"/>
    <path clip-path="url(#p147d39619b)" d="M 158.332963 44.326115
C 158.803023 44.326115 159.253894 44.139358 159.586277 43.806976
C 159.91866 43.474593 160.105417 43.023722 160.105417 42.553662
C 160.105417 42.083601 159.91866 41.63273 159.586277 41.300347
C 159.253894 40.967965 158.803023 40.781208 158.332963 40.781208
C 157.862903 40.781208 157.412032 40.967965 157.079649 41.300347
C 156.747266 41.63273 156.560509 42.083601 156.560509 42.553662
C 156.560509 43.023722 156.747266 43.474593 157.079649 43.806976
C 157.412032 44.139358 157.862903 44.326115 158.332963 44.326115
z
" style="stroke:#000000;stroke-width:0.886227;"/>
    <path clip-path="url(#p147d39619b)" d="M 63.004915 180.097544
C 63.474975 180.097544 63.925846 179.910787 64.258229 179.578404
C 64.590612 179.246021 64.777369 178.79515 64.777369 178.32509
C 64.777369 177.85503 64.590612 177.404159 64.258229 177.071776
C 63.925846 176.739393 63.474975 176.552636 63.004915 176.552636
C 62.534855 176.552636 62.083983 176.739393 61.751601 177.071776
C 61.419218 177.404159 61.232461 177.85503 61.232461 178.32509
C 61.232461 178.79515 61.419218 179.246021 61.751601 179.578404
C 62.083983 179.910787 62.534855 180.097544 63.004915 180.097544
z
" style="stroke:#000000;stroke-width:0.886227;"/>
    <path clip-path="url(#p147d39619b)" d="M 77.415511 103.57183
C 77.885571 103.57183 78.336442 103.385073 78.668825 103.05269
C 79.001207 102.720307 79.187964 102.269436 79.187964 101.799376
C 79.187964 101.329316 79.001207 100.878444 78.668825 100.546062
C 78.336442 100.213679 77.885571 100.026922 77.415511 100.026922
C 76.94545 100.026922 76.494579 100.213679 76.162196 100.546062
C 75.829814 100.878444 75.643057 101.329316 75.643057 101.799376
C 75.643057 102.269436 75.829814 102.720307 76.162196 103.05269
C 76.494579 103.385073 76.94545 103.57183 77.415511 103.57183
z
" style="stroke:#000000;stroke-width:0.886227;"/>
    <path clip-path="url(#p147d39619b)" d="M 63.004915 170.223258
C 63.474975 170.223258 63.925846 170.036501 64.258229 169.704119
C 64.590612 169.371736 64.777369 168.920865 64.777369 168.450804
C 64.777369 167.980744 64.590612 167.529873 64.258229 167.19749
C 63.925846 166.865107 63.474975 166.678351 63.004915 166.678351
C 62.534855 166.678351 62.083983 166.865107 61.751601 167.19749
C 61.419218 167.529873 61.232461 167.980744 61.232461 168.450804
C 61.232461 168.920865 61.419218 169.371736 61.751601 169.704119
C 62.083983 170.036501 62.534855 170.223258 63.004915 170.223258
z
" style="stroke:#000000;stroke-width:0.886227;"/>
    <path clip-path="url(#p147d39619b)" d="M 127.406507 59.137544
C 127.876567 59.137544 128.327438 58.950787 128.659821 58.618404
C 128.992204 58.286021 129.17896 57.83515 129.17896 57.36509
C 129.17896 56.89503 128.992204 56.444159 128.659821 56.111776
C 128.327438 55.779393 127.876567 55.592636 127.406507 55.592636
C 126.936446 55.592636 126.485575 55.779393 126.153192 56.111776
C 125.82081 56.444159 125.634053 56.89503 125.634053 57.36509
C 125.634053 57.83515 125.82081 58.286021 126.153192 58.618404
C 126.485575 58.950787 126.936446 59.137544 127.406507 59.137544
z
" style="stroke:#000000;stroke-width:0.886227;"/>
    <path clip-path="url(#p147d39619b)" d="M 90.517481 88.760401
C 90.987541 88.760401 91.438412 88.573644 91.770795 88.241261
C 92.103177 87.908879 92.289934 87.458008 92.289934 86.987947
C 92.289934 86.517887 92.103177 86.067016 91.770795 85.734633
C 91.438412 85.40225 90.987541 85.215493 90.517481 85.215493
C 90.04742 85.215493 89.596549 85.40225 89.264166 85.734633
C 88.931784 86.067016 88.745027 86.517887 88.745027 86.987947
C 88.745027 87.458008 88.931784 87.908879 89.264166 88.241261
C 89.596549 88.573644 90.04742 88.760401 90.517481 88.760401
z
" style="stroke:#000000;stroke-width:0.886227;"/>
    <path clip-path="url(#p147d39619b)" d="M 72.883146 113.446115
C 73.353207 113.446115 73.804078 113.259358 74.13646 112.926976
C 74.468843 112.594593 74.6556 112.143722 74.6556 111.673662
C 74.6556 111.203601 74.468843 110.75273 74.13646 110.420347
C 73.804078 110.087965 73.353207 109.901208 72.883146 109.901208
C 72.413086 109.901208 71.962215 110.087965 71.629832 110.420347
C 71.297449 110.75273 71.110692 111.203601 71.110692 111.673662
C 71.110692 112.143722 71.297449 112.594593 71.629832 112.926976
C 71.962215 113.259358 72.413086 113.446115 72.883146 113.446115
z
" style="stroke:#000000;stroke-width:0.886227;"/>
    <path clip-path="url(#p147d39619b)" d="M 63.004915 157.880401
C 63.474975 157.880401 63.925846 157.693644 64.258229 157.361261
C 64.590612 157.028879 64.777369 156.578008 64.777369 156.107947
C 64.777369 155.637887 64.590612 155.187016 64.258229 154.854633
C 63.925846 154.52225 63.474975 154.335493 63.004915 154.335493
C 62.534855 154.335493 62.083983 154.52225 61.751601 154.854633
C 61.419218 155.187016 61.232461 155.637887 61.232461 156.107947
C 61.232461 156.578008 61.419218 157.028879 61.751601 157.361261
C 62.083983 157.693644 62.534855 157.880401 63.004915 157.880401
z
" style="stroke:#000000;stroke-width:0.886227;"/>
    <path clip-path="url(#p147d39619b)" d="M 67.149177 128.257544
C 67.619237 128.257544 68.070108 128.070787 68.402491 127.738404
C 68.734874 127.406021 68.921631 126.95515 68.921631 126.48509
C 68.921631 126.01503 68.734874 125.564159 68.402491 125.231776
C 68.070108 124.899393 67.619237 124.712636 67.149177 124.712636
C 66.679117 124.712636 66.228246 124.899393 65.895863 125.231776
C 65.56348 125.564159 65.376723 126.01503 65.376723 126.48509
C 65.376723 126.95515 65.56348 127.406021 65.895863 127.738404
C 66.228246 128.070787 66.679117 128.257544 67.149177 128.257544
z
" style="stroke:#000000;stroke-width:0.886227;"/>
    <path clip-path="url(#p147d39619b)" d="M 63.004915 162.817544
C 63.474975 162.817544 63.925846 162.630787 64.258229 162.298404
C 64.590612 161.966021 64.777369 161.51515 64.777369 161.04509
C 64.777369 160.57503 64.590612 160.124159 64.258229 159.791776
C 63.925846 159.459393 63.474975 159.272636 63.004915 159.272636
C 62.534855 159.272636 62.083983 159.459393 61.751601 159.791776
C 61.419218 160.124159 61.232461 160.57503 61.232461 161.04509
C 61.232461 161.51515 61.419218 161.966021 61.751601 162.298404
C 62.083983 162.630787 62.534855 162.817544 63.004915 162.817544
z
" style="stroke:#000000;stroke-width:0.886227;"/>
    <path clip-path="url(#p147d39619b)" d="M 63.004924 150.474687
C 63.474984 150.474687 63.925855 150.28793 64.258238 149.955547
C 64.590621 149.623164 64.777378 149.172293 64.777378 148.702233
C 64.777378 148.232173 64.590621 147.781302 64.258238 147.448919
C 63.925855 147.116536 63.474984 146.929779 63.004924 146.929779
C 62.534864 146.929779 62.083992 147.116536 61.75161 147.448919
C 61.419227 147.781302 61.23247 148.232173 61.23247 148.702233
C 61.23247 149.172293 61.419227 149.623164 61.75161 149.955547
C 62.083992 150.28793 62.534864 150.474687 63.004924 150.474687
z
" style="stroke:#000000;stroke-width:0.886227;"/>
    <path clip-path="url(#p147d39619b)" d="M 83.960319 98.634687
C 84.43038 98.634687 84.881251 98.44793 85.213633 98.115547
C 85.546016 97.783164 85.732773 97.332293 85.732773 96.862233
C 85.732773 96.392173 85.546016 95.941302 85.213633 95.608919
C 84.881251 95.276536 84.43038 95.089779 83.960319 95.089779
C 83.490259 95.089779 83.039388 95.276536 82.707005 95.608919
C 82.374622 95.941302 82.187865 96.392173 82.187865 96.862233
C 82.187865 97.332293 82.374622 97.783164 82.707005 98.115547
C 83.039388 98.44793 83.490259 98.634687 83.960319 98.634687
z
" style="stroke:#000000;stroke-width:0.886227;"/>
    <path clip-path="url(#p147d39619b)" d="M 89.912361 93.697544
C 90.382422 93.697544 90.833293 93.510787 91.165675 93.178404
C 91.498058 92.846021 91.684815 92.39515 91.684815 91.92509
C 91.684815 91.45503 91.498058 91.004159 91.165675 90.671776
C 90.833293 90.339393 90.382422 90.152636 89.912361 90.152636
C 89.442301 90.152636 88.99143 90.339393 88.659047 90.671776
C 88.326664 91.004159 88.139907 91.45503 88.139907 91.92509
C 88.139907 92.39515 88.326664 92.846021 88.659047 93.178404
C 88.99143 93.510787 89.442301 93.697544 89.912361 93.697544
z
" style="stroke:#000000;stroke-width:0.886227;"/>
    <path clip-path="url(#p147d39619b)" d="M 63.004915 207.25183
C 63.474975 207.25183 63.925846 207.065073 64.258229 206.73269
C 64.590612 206.400307 64.777369 205.949436 64.777369 205.479376
C 64.777369 205.009316 64.590612 204.558444 64.258229 204.226062
C 63.925846 203.893679 63.474975 203.706922 63.004915 203.706922
C 62.534855 203.706922 62.083983 203.893679 61.751601 204.226062
C 61.419218 204.558444 61.232461 205.009316 61.232461 205.479376
C 61.232461 205.949436 61.419218 206.400307 61.751601 206.73269
C 62.083983 207.065073 62.534855 207.25183 63.004915 207.25183
z
" style="stroke:#000000;stroke-width:0.886227;"/>
    <path clip-path="url(#p147d39619b)" d="M 63.004915 276.37183
C 63.474975 276.37183 63.925846 276.185073 64.258229 275.85269
C 64.590612 275.520307 64.777369 275.069436 64.777369 274.599376
C 64.777369 274.129316 64.590612 273.678444 64.258229 273.346062
C 63.925846 273.013679 63.474975 272.826922 63.004915 272.826922
C 62.534855 272.826922 62.083983 273.013679 61.751601 273.346062
C 61.419218 273.678444 61.232461 274.129316 61.232461 274.599376
C 61.232461 275.069436 61.419218 275.520307 61.751601 275.85269
C 62.083983 276.185073 62.534855 276.37183 63.004915 276.37183
z
" style="stroke:#000000;stroke-width:0.886227;"/>
    <path clip-path="url(#p147d39619b)" d="M 63.004915 266.497544
C 63.474975 266.497544 63.925846 266.310787 64.258229 265.978404
C 64.590612 265.646021 64.777369 265.19515 64.777369 264.72509
C 64.777369 264.25503 64.590612 263.804159 64.258229 263.471776
C 63.925846 263.139393 63.474975 262.952636 63.004915 262.952636
C 62.534855 262.952636 62.083983 263.139393 61.751601 263.471776
C 61.419218 263.804159 61.232461 264.25503 61.232461 264.72509
C 61.232461 265.19515 61.419218 265.646021 61.751601 265.978404
C 62.083983 266.310787 62.534855 266.497544 63.004915 266.497544
z
" style="stroke:#000000;stroke-width:0.886227;"/>
    <path clip-path="url(#p147d39619b)" d="M 63.004915 239.343258
C 63.474975 239.343258 63.925846 239.156501 64.258229 238.824119
C 64.590612 238.491736 64.777369 238.040865 64.777369 237.570804
C 64.777369 237.100744 64.590612 236.649873 64.258229 236.31749
C 63.925846 235.985107 63.474975 235.798351 63.004915 235.798351
C 62.534855 235.798351 62.083983 235.985107 61.751601 236.31749
C 61.419218 236.649873 61.232461 237.100744 61.232461 237.570804
C 61.232461 238.040865 61.419218 238.491736 61.751601 238.824119
C 62.083983 239.156501 62.534855 239.343258 63.004915 239.343258
z
" style="stroke:#000000;stroke-width:0.886227;"/>
    <path clip-path="url(#p147d39619b)" d="M 63.004915 207.25183
C 63.474975 207.25183 63.925846 207.065073 64.258229 206.73269
C 64.590612 206.400307 64.777369 205.949436 64.777369 205.479376
C 64.777369 205.009316 64.590612 204.558444 64.258229 204.226062
C 63.925846 203.893679 63.474975 203.706922 63.004915 203.706922
C 62.534855 203.706922 62.083983 203.893679 61.751601 204.226062
C 61.419218 204.558444 61.232461 205.009316 61.232461 205.479376
C 61.232461 205.949436 61.419218 206.400307 61.751601 206.73269
C 62.083983 207.065073 62.534855 207.25183 63.004915 207.25183
z
" style="stroke:#000000;stroke-width:0.886227;"/>
    <path clip-path="url(#p147d39619b)" d="M 63.004915 207.25183
C 63.474975 207.25183 63.925846 207.065073 64.258229 206.73269
C 64.590612 206.400307 64.777369 205.949436 64.777369 205.479376
C 64.777369 205.009316 64.590612 204.558444 64.258229 204.226062
C 63.925846 203.893679 63.474975 203.706922 63.004915 203.706922
C 62.534855 203.706922 62.083983 203.893679 61.751601 204.226062
C 61.419218 204.558444 61.232461 205.009316 61.232461 205.479376
C 61.232461 205.949436 61.419218 206.400307 61.751601 206.73269
C 62.083983 207.065073 62.534855 207.25183 63.004915 207.25183
z
" style="stroke:#000000;stroke-width:0.886227;"/>
    <path clip-path="url(#p147d39619b)" d="M 63.004915 207.25183
C 63.474975 207.25183 63.925846 207.065073 64.258229 206.73269
C 64.590612 206.400307 64.777369 205.949436 64.777369 205.479376
C 64.777369 205.009316 64.590612 204.558444 64.258229 204.226062
C 63.925846 203.893679 63.474975 203.706922 63.004915 203.706922
C 62.534855 203.706922 62.083983 203.893679 61.751601 204.226062
C 61.419218 204.558444 61.232461 205.009316 61.232461 205.479376
C 61.232461 205.949436 61.419218 206.400307 61.751601 206.73269
C 62.083983 207.065073 62.534855 207.25183 63.004915 207.25183
z
" style="stroke:#000000;stroke-width:0.886227;"/>
    <path clip-path="url(#p147d39619b)" d="M 63.004915 170.223258
C 63.474975 170.223258 63.925846 170.036501 64.258229 169.704119
C 64.590612 169.371736 64.777369 168.920865 64.777369 168.450804
C 64.777369 167.980744 64.590612 167.529873 64.258229 167.19749
C 63.925846 166.865107 63.474975 166.678351 63.004915 166.678351
C 62.534855 166.678351 62.083983 166.865107 61.751601 167.19749
C 61.419218 167.529873 61.232461 167.980744 61.232461 168.450804
C 61.232461 168.920865 61.419218 169.371736 61.751601 169.704119
C 62.083983 170.036501 62.534855 170.223258 63.004915 170.223258
z
" style="stroke:#000000;stroke-width:0.886227;"/>
    <path clip-path="url(#p147d39619b)" d="M 63.004915 239.343258
C 63.474975 239.343258 63.925846 239.156501 64.258229 238.824119
C 64.590612 238.491736 64.777369 238.040865 64.777369 237.570804
C 64.777369 237.100744 64.590612 236.649873 64.258229 236.31749
C 63.925846 235.985107 63.474975 235.798351 63.004915 235.798351
C 62.534855 235.798351 62.083983 235.985107 61.751601 236.31749
C 61.419218 236.649873 61.232461 237.100744 61.232461 237.570804
C 61.232461 238.040865 61.419218 238.491736 61.751601 238.824119
C 62.083983 239.156501 62.534855 239.343258 63.004915 239.343258
z
" style="stroke:#000000;stroke-width:0.886227;"/>
    <path clip-path="url(#p147d39619b)" d="M 63.004915 256.623258
C 63.474975 256.623258 63.925846 256.436501 64.258229 256.104119
C 64.590612 255.771736 64.777369 255.320865 64.777369 254.850804
C 64.777369 254.380744 64.590612 253.929873 64.258229 253.59749
C 63.925846 253.265107 63.474975 253.078351 63.004915 253.078351
C 62.534855 253.078351 62.083983 253.265107 61.751601 253.59749
C 61.419218 253.929873 61.232461 254.380744 61.232461 254.850804
C 61.232461 255.320865 61.419218 255.771736 61.751601 256.104119
C 62.083983 256.436501 62.534855 256.623258 63.004915 256.623258
z
" style="stroke:#000000;stroke-width:0.886227;"/>
    <path clip-path="url(#p147d39619b)" d="M 63.004924 150.474687
C 63.474984 150.474687 63.925855 150.28793 64.258238 149.955547
C 64.590621 149.623164 64.777378 149.172293 64.777378 148.702233
C 64.777378 148.232173 64.590621 147.781302 64.258238 147.448919
C 63.925855 147.116536 63.474984 146.929779 63.004924 146.929779
C 62.534864 146.929779 62.083992 147.116536 61.75161 147.448919
C 61.419227 147.781302 61.23247 148.232173 61.23247 148.702233
C 61.23247 149.172293 61.419227 149.623164 61.75161 149.955547
C 62.083992 150.28793 62.534864 150.474687 63.004924 150.474687
z
" style="stroke:#000000;stroke-width:0.886227;"/>
    <path clip-path="url(#p147d39619b)" d="M 63.004915 207.25183
C 63.474975 207.25183 63.925846 207.065073 64.258229 206.73269
C 64.590612 206.400307 64.777369 205.949436 64.777369 205.479376
C 64.777369 205.009316 64.590612 204.558444 64.258229 204.226062
C 63.925846 203.893679 63.474975 203.706922 63.004915 203.706922
C 62.534855 203.706922 62.083983 203.893679 61.751601 204.226062
C 61.419218 204.558444 61.232461 205.009316 61.232461 205.479376
C 61.232461 205.949436 61.419218 206.400307 61.751601 206.73269
C 62.083983 207.065073 62.534855 207.25183 63.004915 207.25183
z
" style="stroke:#000000;stroke-width:0.886227;"/>
    <path clip-path="url(#p147d39619b)" d="M 63.004915 207.25183
C 63.474975 207.25183 63.925846 207.065073 64.258229 206.73269
C 64.590612 206.400307 64.777369 205.949436 64.777369 205.479376
C 64.777369 205.009316 64.590612 204.558444 64.258229 204.226062
C 63.925846 203.893679 63.474975 203.706922 63.004915 203.706922
C 62.534855 203.706922 62.083983 203.893679 61.751601 204.226062
C 61.419218 204.558444 61.232461 205.009316 61.232461 205.479376
C 61.232461 205.949436 61.419218 206.400307 61.751601 206.73269
C 62.083983 207.065073 62.534855 207.25183 63.004915 207.25183
z
" style="stroke:#000000;stroke-width:0.886227;"/>
    <path clip-path="url(#p147d39619b)" d="M 63.004915 180.097544
C 63.474975 180.097544 63.925846 179.910787 64.258229 179.578404
C 64.590612 179.246021 64.777369 178.79515 64.777369 178.32509
C 64.777369 177.85503 64.590612 177.404159 64.258229 177.071776
C 63.925846 176.739393 63.474975 176.552636 63.004915 176.552636
C 62.534855 176.552636 62.083983 176.739393 61.751601 177.071776
C 61.419218 177.404159 61.232461 177.85503 61.232461 178.32509
C 61.232461 178.79515 61.419218 179.246021 61.751601 179.578404
C 62.083983 179.910787 62.534855 180.097544 63.004915 180.097544
z
" style="stroke:#000000;stroke-width:0.886227;"/>
    <path clip-path="url(#p147d39619b)" d="M 63.004915 256.623258
C 63.474975 256.623258 63.925846 256.436501 64.258229 256.104119
C 64.590612 255.771736 64.777369 255.320865 64.777369 254.850804
C 64.777369 254.380744 64.590612 253.929873 64.258229 253.59749
C 63.925846 253.265107 63.474975 253.078351 63.004915 253.078351
C 62.534855 253.078351 62.083983 253.265107 61.751601 253.59749
C 61.419218 253.929873 61.232461 254.380744 61.232461 254.850804
C 61.232461 255.320865 61.419218 255.771736 61.751601 256.104119
C 62.083983 256.436501 62.534855 256.623258 63.004915 256.623258
z
" style="stroke:#000000;stroke-width:0.886227;"/>
    <path clip-path="url(#p147d39619b)" d="M 63.004915 239.343258
C 63.474975 239.343258 63.925846 239.156501 64.258229 238.824119
C 64.590612 238.491736 64.777369 238.040865 64.777369 237.570804
C 64.777369 237.100744 64.590612 236.649873 64.258229 236.31749
C 63.925846 235.985107 63.474975 235.798351 63.004915 235.798351
C 62.534855 235.798351 62.083983 235.985107 61.751601 236.31749
C 61.419218 236.649873 61.232461 237.100744 61.232461 237.570804
C 61.232461 238.040865 61.419218 238.491736 61.751601 238.824119
C 62.083983 239.156501 62.534855 239.343258 63.004915 239.343258
z
" style="stroke:#000000;stroke-width:0.886227;"/>
    <path clip-path="url(#p147d39619b)" d="M 63.004915 207.25183
C 63.474975 207.25183 63.925846 207.065073 64.258229 206.73269
C 64.590612 206.400307 64.777369 205.949436 64.777369 205.479376
C 64.777369 205.009316 64.590612 204.558444 64.258229 204.226062
C 63.925846 203.893679 63.474975 203.706922 63.004915 203.706922
C 62.534855 203.706922 62.083983 203.893679 61.751601 204.226062
C 61.419218 204.558444 61.232461 205.009316 61.232461 205.479376
C 61.232461 205.949436 61.419218 206.400307 61.751601 206.73269
C 62.083983 207.065073 62.534855 207.25183 63.004915 207.25183
z
" style="stroke:#000000;stroke-width:0.886227;"/>
    <path clip-path="url(#p147d39619b)" d="M 63.004915 207.25183
C 63.474975 207.25183 63.925846 207.065073 64.258229 206.73269
C 64.590612 206.400307 64.777369 205.949436 64.777369 205.479376
C 64.777369 205.009316 64.590612 204.558444 64.258229 204.226062
C 63.925846 203.893679 63.474975 203.706922 63.004915 203.706922
C 62.534855 203.706922 62.083983 203.893679 61.751601 204.226062
C 61.419218 204.558444 61.232461 205.009316 61.232461 205.479376
C 61.232461 205.949436 61.419218 206.400307 61.751601 206.73269
C 62.083983 207.065073 62.534855 207.25183 63.004915 207.25183
z
" style="stroke:#000000;stroke-width:0.886227;"/>
    <path clip-path="url(#p147d39619b)" d="M 63.005214 143.068973
C 63.475274 143.068973 63.926145 142.882216 64.258528 142.549833
C 64.590911 142.21745 64.777668 141.766579 64.777668 141.296519
C 64.777668 140.826458 64.590911 140.375587 64.258528 140.043205
C 63.926145 139.710822 63.475274 139.524065 63.005214 139.524065
C 62.535153 139.524065 62.084282 139.710822 61.7519 140.043205
C 61.419517 140.375587 61.23276 140.826458 61.23276 141.296519
C 61.23276 141.766579 61.419517 142.21745 61.7519 142.549833
C 62.084282 142.882216 62.535153 143.068973 63.005214 143.068973
z
" style="stroke:#000000;stroke-width:0.886227;"/>
    <path clip-path="url(#p147d39619b)" d="M 64.977164 133.194687
C 65.447224 133.194687 65.898095 133.00793 66.230478 132.675547
C 66.562861 132.343164 66.749618 131.892293 66.749618 131.422233
C 66.749618 130.952173 66.562861 130.501302 66.230478 130.168919
C 65.898095 129.836536 65.447224 129.649779 64.977164 129.649779
C 64.507103 129.649779 64.056232 129.836536 63.72385 130.168919
C 63.391467 130.501302 63.20471 130.952173 63.20471 131.422233
C 63.20471 131.892293 63.391467 132.343164 63.72385 132.675547
C 64.056232 133.00793 64.507103 133.194687 64.977164 133.194687
z
" style="stroke:#000000;stroke-width:0.886227;"/>
    <path clip-path="url(#p147d39619b)" d="M 147.207498 49.263258
C 147.677559 49.263258 148.12843 49.076501 148.460812 48.744119
C 148.793195 48.411736 148.979952 47.960865 148.979952 47.490804
C 148.979952 47.020744 148.793195 46.569873 148.460812 46.23749
C 148.12843 45.905107 147.677559 45.718351 147.207498 45.718351
C 146.737438 45.718351 146.286567 45.905107 145.954184 46.23749
C 145.621801 46.569873 145.435044 47.020744 145.435044 47.490804
C 145.435044 47.960865 145.621801 48.411736 145.954184 48.744119
C 146.286567 49.076501 146.737438 49.263258 147.207498 49.263258
z
" style="stroke:#000000;stroke-width:0.886227;"/>
    <path clip-path="url(#p147d39619b)" d="M 63.004915 207.25183
C 63.474975 207.25183 63.925846 207.065073 64.258229 206.73269
C 64.590612 206.400307 64.777369 205.949436 64.777369 205.479376
C 64.777369 205.009316 64.590612 204.558444 64.258229 204.226062
C 63.925846 203.893679 63.474975 203.706922 63.004915 203.706922
C 62.534855 203.706922 62.083983 203.893679 61.751601 204.226062
C 61.419218 204.558444 61.232461 205.009316 61.232461 205.479376
C 61.232461 205.949436 61.419218 206.400307 61.751601 206.73269
C 62.083983 207.065073 62.534855 207.25183 63.004915 207.25183
z
" style="stroke:#000000;stroke-width:0.886227;"/>
    <path clip-path="url(#p147d39619b)" d="M 63.004915 256.623258
C 63.474975 256.623258 63.925846 256.436501 64.258229 256.104119
C 64.590612 255.771736 64.777369 255.320865 64.777369 254.850804
C 64.777369 254.380744 64.590612 253.929873 64.258229 253.59749
C 63.925846 253.265107 63.474975 253.078351 63.004915 253.078351
C 62.534855 253.078351 62.083983 253.265107 61.751601 253.59749
C 61.419218 253.929873 61.232461 254.380744 61.232461 254.850804
C 61.232461 255.320865 61.419218 255.771736 61.751601 256.104119
C 62.083983 256.436501 62.534855 256.623258 63.004915 256.623258
z
" style="stroke:#000000;stroke-width:0.886227;"/>
   </g>
   <g id="PathCollection_2">
    <path clip-path="url(#p147d39619b)" d="M 345.322681 39.388973
C 345.792741 39.388973 346.243612 39.202216 346.575995 38.869833
C 346.908377 38.53745 347.095134 38.086579 347.095134 37.616519
C 347.095134 37.146458 346.908377 36.695587 346.575995 36.363205
C 346.243612 36.030822 345.792741 35.844065 345.322681 35.844065
C 344.85262 35.844065 344.401749 36.030822 344.069366 36.363205
C 343.736984 36.695587 343.550227 37.146458 343.550227 37.616519
C 343.550227 38.086579 343.736984 38.53745 344.069366 38.869833
C 344.401749 39.202216 344.85262 39.388973 345.322681 39.388973
z
" style="fill:#ff0000;stroke:#ff0000;stroke-width:0.886227;"/>
    <path clip-path="url(#p147d39619b)" d="M 387.65946 34.45183
C 388.12952 34.45183 388.580392 34.265073 388.912774 33.93269
C 389.245157 33.600307 389.431914 33.149436 389.431914 32.679376
C 389.431914 32.209316 389.245157 31.758444 388.912774 31.426062
C 388.580392 31.093679 388.12952 30.906922 387.65946 30.906922
C 387.1894 30.906922 386.738529 31.093679 386.406146 31.426062
C 386.073763 31.758444 385.887006 32.209316 385.887006 32.679376
C 385.887006 33.149436 386.073763 33.600307 386.406146 33.93269
C 386.738529 34.265073 387.1894 34.45183 387.65946 34.45183
z
" style="fill:#ff0000;stroke:#ff0000;stroke-width:0.886227;"/>
    <path clip-path="url(#p147d39619b)" d="M 133.900731 54.200401
C 134.370791 54.200401 134.821662 54.013644 135.154045 53.681261
C 135.486427 53.348879 135.673184 52.898008 135.673184 52.427947
C 135.673184 51.957887 135.486427 51.507016 135.154045 51.174633
C 134.821662 50.84225 134.370791 50.655493 133.900731 50.655493
C 133.43067 50.655493 132.979799 50.84225 132.647416 51.174633
C 132.315034 51.507016 132.128277 51.957887 132.128277 52.427947
C 132.128277 52.898008 132.315034 53.348879 132.647416 53.681261
C 132.979799 54.013644 133.43067 54.200401 133.900731 54.200401
z
" style="fill:#ff0000;stroke:#ff0000;stroke-width:0.886227;"/>
    <path clip-path="url(#p147d39619b)" d="M 158.332963 44.326115
C 158.803023 44.326115 159.253894 44.139358 159.586277 43.806976
C 159.91866 43.474593 160.105417 43.023722 160.105417 42.553662
C 160.105417 42.083601 159.91866 41.63273 159.586277 41.300347
C 159.253894 40.967965 158.803023 40.781208 158.332963 40.781208
C 157.862903 40.781208 157.412032 40.967965 157.079649 41.300347
C 156.747266 41.63273 156.560509 42.083601 156.560509 42.553662
C 156.560509 43.023722 156.747266 43.474593 157.079649 43.806976
C 157.412032 44.139358 157.862903 44.326115 158.332963 44.326115
z
" style="fill:#ff0000;stroke:#ff0000;stroke-width:0.886227;"/>
    <path clip-path="url(#p147d39619b)" d="M 147.207498 49.263258
C 147.677559 49.263258 148.12843 49.076501 148.460812 48.744119
C 148.793195 48.411736 148.979952 47.960865 148.979952 47.490804
C 148.979952 47.020744 148.793195 46.569873 148.460812 46.23749
C 148.12843 45.905107 147.677559 45.718351 147.207498 45.718351
C 146.737438 45.718351 146.286567 45.905107 145.954184 46.23749
C 145.621801 46.569873 145.435044 47.020744 145.435044 47.490804
C 145.435044 47.960865 145.621801 48.411736 145.954184 48.744119
C 146.286567 49.076501 146.737438 49.263258 147.207498 49.263258
z
" style="fill:#ff0000;stroke:#ff0000;stroke-width:0.886227;"/>
   </g>
   <g id="text_12">
    <g clip-path="url(#p147d39619b)">
     <!-- HALLMARK_KRAS_SIGNALING_DN -->
     <defs>
      <path d="M 9.8125 72.90625
L 19.671875 72.90625
L 19.671875 43.015625
L 55.515625 43.015625
L 55.515625 72.90625
L 65.375 72.90625
L 65.375 0
L 55.515625 0
L 55.515625 34.71875
L 19.671875 34.71875
L 19.671875 0
L 9.8125 0
z
" id="DejaVuSans-72"/>
      <path d="M 34.1875 63.1875
L 20.796875 26.90625
L 47.609375 26.90625
z
M 28.609375 72.90625
L 39.796875 72.90625
L 67.578125 0
L 57.328125 0
L 50.6875 18.703125
L 17.828125 18.703125
L 11.1875 0
L 0.78125 0
z
" id="DejaVuSans-65"/>
      <path d="M 9.8125 72.90625
L 19.671875 72.90625
L 19.671875 8.296875
L 55.171875 8.296875
L 55.171875 0
L 9.8125 0
z
" id="DejaVuSans-76"/>
      <path d="M 9.8125 72.90625
L 24.515625 72.90625
L 43.109375 23.296875
L 61.8125 72.90625
L 76.515625 72.90625
L 76.515625 0
L 66.890625 0
L 66.890625 64.015625
L 48.09375 14.015625
L 38.1875 14.015625
L 19.390625 64.015625
L 19.390625 0
L 9.8125 0
z
" id="DejaVuSans-77"/>
      <path d="M 44.390625 34.1875
Q 47.5625 33.109375 50.5625 29.59375
Q 53.5625 26.078125 56.59375 19.921875
L 66.609375 0
L 56 0
L 46.6875 18.703125
Q 43.0625 26.03125 39.671875 28.421875
Q 36.28125 30.8125 30.421875 30.8125
L 19.671875 30.8125
L 19.671875 0
L 9.8125 0
L 9.8125 72.90625
L 32.078125 72.90625
Q 44.578125 72.90625 50.734375 67.671875
Q 56.890625 62.453125 56.890625 51.90625
Q 56.890625 45.015625 53.6875 40.46875
Q 50.484375 35.9375 44.390625 34.1875
z
M 19.671875 64.796875
L 19.671875 38.921875
L 32.078125 38.921875
Q 39.203125 38.921875 42.84375 42.21875
Q 46.484375 45.515625 46.484375 51.90625
Q 46.484375 58.296875 42.84375 61.546875
Q 39.203125 64.796875 32.078125 64.796875
z
" id="DejaVuSans-82"/>
      <path d="M 9.8125 72.90625
L 19.671875 72.90625
L 19.671875 42.09375
L 52.390625 72.90625
L 65.09375 72.90625
L 28.90625 38.921875
L 67.671875 0
L 54.6875 0
L 19.671875 35.109375
L 19.671875 0
L 9.8125 0
z
" id="DejaVuSans-75"/>
      <path d="M 50.984375 -16.609375
L 50.984375 -23.578125
L -0.984375 -23.578125
L -0.984375 -16.609375
z
" id="DejaVuSans-95"/>
      <path d="M 53.515625 70.515625
L 53.515625 60.890625
Q 47.90625 63.578125 42.921875 64.890625
Q 37.9375 66.21875 33.296875 66.21875
Q 25.25 66.21875 20.875 63.09375
Q 16.5 59.96875 16.5 54.203125
Q 16.5 49.359375 19.40625 46.890625
Q 22.3125 44.4375 30.421875 42.921875
L 36.375 41.703125
Q 47.40625 39.59375 52.65625 34.296875
Q 57.90625 29 57.90625 20.125
Q 57.90625 9.515625 50.796875 4.046875
Q 43.703125 -1.421875 29.984375 -1.421875
Q 24.8125 -1.421875 18.96875 -0.25
Q 13.140625 0.921875 6.890625 3.21875
L 6.890625 13.375
Q 12.890625 10.015625 18.65625 8.296875
Q 24.421875 6.59375 29.984375 6.59375
Q 38.421875 6.59375 43.015625 9.90625
Q 47.609375 13.234375 47.609375 19.390625
Q 47.609375 24.75 44.3125 27.78125
Q 41.015625 30.8125 33.5 32.328125
L 27.484375 33.5
Q 16.453125 35.6875 11.515625 40.375
Q 6.59375 45.0625 6.59375 53.421875
Q 6.59375 63.09375 13.40625 68.65625
Q 20.21875 74.21875 32.171875 74.21875
Q 37.3125 74.21875 42.625 73.28125
Q 47.953125 72.359375 53.515625 70.515625
z
" id="DejaVuSans-83"/>
      <path d="M 9.8125 72.90625
L 19.671875 72.90625
L 19.671875 0
L 9.8125 0
z
" id="DejaVuSans-73"/>
      <path d="M 9.8125 72.90625
L 23.09375 72.90625
L 55.421875 11.921875
L 55.421875 72.90625
L 64.984375 72.90625
L 64.984375 0
L 51.703125 0
L 19.390625 60.984375
L 19.390625 0
L 9.8125 0
z
" id="DejaVuSans-78"/>
      <path d="M 19.671875 64.796875
L 19.671875 8.109375
L 31.59375 8.109375
Q 46.6875 8.109375 53.6875 14.9375
Q 60.6875 21.78125 60.6875 36.53125
Q 60.6875 51.171875 53.6875 57.984375
Q 46.6875 64.796875 31.59375 64.796875
z
M 9.8125 72.90625
L 30.078125 72.90625
Q 51.265625 72.90625 61.171875 64.09375
Q 71.09375 55.28125 71.09375 36.53125
Q 71.09375 17.671875 61.125 8.828125
Q 51.171875 0 30.078125 0
L 9.8125 0
z
" id="DejaVuSans-68"/>
     </defs>
     <g transform="translate(262.087524 41.327456)scale(0.05 -0.05)">
      <use xlink:href="#DejaVuSans-72"/>
      <use x="75.195312" xlink:href="#DejaVuSans-65"/>
      <use x="143.603516" xlink:href="#DejaVuSans-76"/>
      <use x="199.316406" xlink:href="#DejaVuSans-76"/>
      <use x="255.029297" xlink:href="#DejaVuSans-77"/>
      <use x="341.308594" xlink:href="#DejaVuSans-65"/>
      <use x="409.716797" xlink:href="#DejaVuSans-82"/>
      <use x="479.199219" xlink:href="#DejaVuSans-75"/>
      <use x="544.775391" xlink:href="#DejaVuSans-95"/>
      <use x="594.775391" xlink:href="#DejaVuSans-75"/>
      <use x="660.351562" xlink:href="#DejaVuSans-82"/>
      <use x="729.771484" xlink:href="#DejaVuSans-65"/>
      <use x="798.179688" xlink:href="#DejaVuSans-83"/>
      <use x="861.65625" xlink:href="#DejaVuSans-95"/>
      <use x="911.65625" xlink:href="#DejaVuSans-83"/>
      <use x="975.132812" xlink:href="#DejaVuSans-73"/>
      <use x="1004.625" xlink:href="#DejaVuSans-71"/>
      <use x="1082.115234" xlink:href="#DejaVuSans-78"/>
      <use x="1156.919922" xlink:href="#DejaVuSans-65"/>
      <use x="1225.328125" xlink:href="#DejaVuSans-76"/>
      <use x="1281.041016" xlink:href="#DejaVuSans-73"/>
      <use x="1310.533203" xlink:href="#DejaVuSans-78"/>
      <use x="1385.337891" xlink:href="#DejaVuSans-71"/>
      <use x="1462.828125" xlink:href="#DejaVuSans-95"/>
      <use x="1512.828125" xlink:href="#DejaVuSans-68"/>
      <use x="1589.830078" xlink:href="#DejaVuSans-78"/>
     </g>
    </g>
   </g>
   <g id="text_13">
    <g clip-path="url(#p147d39619b)">
     <!-- HALLMARK_MYOGENESIS -->
     <defs>
      <path d="M -0.203125 72.90625
L 10.40625 72.90625
L 30.609375 42.921875
L 50.6875 72.90625
L 61.28125 72.90625
L 35.5 34.71875
L 35.5 0
L 25.59375 0
L 25.59375 34.71875
z
" id="DejaVuSans-89"/>
      <path d="M 39.40625 66.21875
Q 28.65625 66.21875 22.328125 58.203125
Q 16.015625 50.203125 16.015625 36.375
Q 16.015625 22.609375 22.328125 14.59375
Q 28.65625 6.59375 39.40625 6.59375
Q 50.140625 6.59375 56.421875 14.59375
Q 62.703125 22.609375 62.703125 36.375
Q 62.703125 50.203125 56.421875 58.203125
Q 50.140625 66.21875 39.40625 66.21875
z
M 39.40625 74.21875
Q 54.734375 74.21875 63.90625 63.9375
Q 73.09375 53.65625 73.09375 36.375
Q 73.09375 19.140625 63.90625 8.859375
Q 54.734375 -1.421875 39.40625 -1.421875
Q 24.03125 -1.421875 14.8125 8.828125
Q 5.609375 19.09375 5.609375 36.375
Q 5.609375 53.65625 14.8125 63.9375
Q 24.03125 74.21875 39.40625 74.21875
z
" id="DejaVuSans-79"/>
      <path d="M 9.8125 72.90625
L 55.90625 72.90625
L 55.90625 64.59375
L 19.671875 64.59375
L 19.671875 43.015625
L 54.390625 43.015625
L 54.390625 34.71875
L 19.671875 34.71875
L 19.671875 8.296875
L 56.78125 8.296875
L 56.78125 0
L 9.8125 0
z
" id="DejaVuSans-69"/>
     </defs>
     <g transform="translate(324.862585 36.390313)scale(0.05 -0.05)">
      <use xlink:href="#DejaVuSans-72"/>
      <use x="75.195312" xlink:href="#DejaVuSans-65"/>
      <use x="143.603516" xlink:href="#DejaVuSans-76"/>
      <use x="199.316406" xlink:href="#DejaVuSans-76"/>
      <use x="255.029297" xlink:href="#DejaVuSans-77"/>
      <use x="341.308594" xlink:href="#DejaVuSans-65"/>
      <use x="409.716797" xlink:href="#DejaVuSans-82"/>
      <use x="479.199219" xlink:href="#DejaVuSans-75"/>
      <use x="544.775391" xlink:href="#DejaVuSans-95"/>
      <use x="594.775391" xlink:href="#DejaVuSans-77"/>
      <use x="681.054688" xlink:href="#DejaVuSans-89"/>
      <use x="742.060547" xlink:href="#DejaVuSans-79"/>
      <use x="820.771484" xlink:href="#DejaVuSans-71"/>
      <use x="898.261719" xlink:href="#DejaVuSans-69"/>
      <use x="961.445312" xlink:href="#DejaVuSans-78"/>
      <use x="1036.25" xlink:href="#DejaVuSans-69"/>
      <use x="1099.433594" xlink:href="#DejaVuSans-83"/>
      <use x="1162.910156" xlink:href="#DejaVuSans-73"/>
      <use x="1192.402344" xlink:href="#DejaVuSans-83"/>
     </g>
    </g>
   </g>
   <g id="text_14">
    <g clip-path="url(#p147d39619b)">
     <!-- HALLMARK_KRAS_SIGNALING_UP -->
     <defs>
      <path d="M 8.6875 72.90625
L 18.609375 72.90625
L 18.609375 28.609375
Q 18.609375 16.890625 22.84375 11.734375
Q 27.09375 6.59375 36.625 6.59375
Q 46.09375 6.59375 50.34375 11.734375
Q 54.59375 16.890625 54.59375 28.609375
L 54.59375 72.90625
L 64.5 72.90625
L 64.5 27.390625
Q 64.5 13.140625 57.4375 5.859375
Q 50.390625 -1.421875 36.625 -1.421875
Q 22.796875 -1.421875 15.734375 5.859375
Q 8.6875 13.140625 8.6875 27.390625
z
" id="DejaVuSans-85"/>
      <path d="M 19.671875 64.796875
L 19.671875 37.40625
L 32.078125 37.40625
Q 38.96875 37.40625 42.71875 40.96875
Q 46.484375 44.53125 46.484375 51.125
Q 46.484375 57.671875 42.71875 61.234375
Q 38.96875 64.796875 32.078125 64.796875
z
M 9.8125 72.90625
L 32.078125 72.90625
Q 44.34375 72.90625 50.609375 67.359375
Q 56.890625 61.8125 56.890625 51.125
Q 56.890625 40.328125 50.609375 34.8125
Q 44.34375 29.296875 32.078125 29.296875
L 19.671875 29.296875
L 19.671875 0
L 9.8125 0
z
" id="DejaVuSans-80"/>
     </defs>
     <g transform="translate(51.581981 56.138885)scale(0.05 -0.05)">
      <use xlink:href="#DejaVuSans-72"/>
      <use x="75.195312" xlink:href="#DejaVuSans-65"/>
      <use x="143.603516" xlink:href="#DejaVuSans-76"/>
      <use x="199.316406" xlink:href="#DejaVuSans-76"/>
      <use x="255.029297" xlink:href="#DejaVuSans-77"/>
      <use x="341.308594" xlink:href="#DejaVuSans-65"/>
      <use x="409.716797" xlink:href="#DejaVuSans-82"/>
      <use x="479.199219" xlink:href="#DejaVuSans-75"/>
      <use x="544.775391" xlink:href="#DejaVuSans-95"/>
      <use x="594.775391" xlink:href="#DejaVuSans-75"/>
      <use x="660.351562" xlink:href="#DejaVuSans-82"/>
      <use x="729.771484" xlink:href="#DejaVuSans-65"/>
      <use x="798.179688" xlink:href="#DejaVuSans-83"/>
      <use x="861.65625" xlink:href="#DejaVuSans-95"/>
      <use x="911.65625" xlink:href="#DejaVuSans-83"/>
      <use x="975.132812" xlink:href="#DejaVuSans-73"/>
      <use x="1004.625" xlink:href="#DejaVuSans-71"/>
      <use x="1082.115234" xlink:href="#DejaVuSans-78"/>
      <use x="1156.919922" xlink:href="#DejaVuSans-65"/>
      <use x="1225.328125" xlink:href="#DejaVuSans-76"/>
      <use x="1281.041016" xlink:href="#DejaVuSans-73"/>
      <use x="1310.533203" xlink:href="#DejaVuSans-78"/>
      <use x="1385.337891" xlink:href="#DejaVuSans-71"/>
      <use x="1462.828125" xlink:href="#DejaVuSans-95"/>
      <use x="1512.828125" xlink:href="#DejaVuSans-85"/>
      <use x="1586.021484" xlink:href="#DejaVuSans-80"/>
     </g>
    </g>
   </g>
   <g id="text_15">
    <g clip-path="url(#p147d39619b)">
     <!-- HALLMARK_COAGULATION -->
     <defs>
      <path d="M 64.40625 67.28125
L 64.40625 56.890625
Q 59.421875 61.53125 53.78125 63.8125
Q 48.140625 66.109375 41.796875 66.109375
Q 29.296875 66.109375 22.65625 58.46875
Q 16.015625 50.828125 16.015625 36.375
Q 16.015625 21.96875 22.65625 14.328125
Q 29.296875 6.6875 41.796875 6.6875
Q 48.140625 6.6875 53.78125 8.984375
Q 59.421875 11.28125 64.40625 15.921875
L 64.40625 5.609375
Q 59.234375 2.09375 53.4375 0.328125
Q 47.65625 -1.421875 41.21875 -1.421875
Q 24.65625 -1.421875 15.125 8.703125
Q 5.609375 18.84375 5.609375 36.375
Q 5.609375 53.953125 15.125 64.078125
Q 24.65625 74.21875 41.21875 74.21875
Q 47.75 74.21875 53.53125 72.484375
Q 59.328125 70.75 64.40625 67.28125
z
" id="DejaVuSans-67"/>
      <path d="M -0.296875 72.90625
L 61.375 72.90625
L 61.375 64.59375
L 35.5 64.59375
L 35.5 0
L 25.59375 0
L 25.59375 64.59375
L -0.296875 64.59375
z
" id="DejaVuSans-84"/>
     </defs>
     <g transform="translate(91.805619 46.264599)scale(0.05 -0.05)">
      <use xlink:href="#DejaVuSans-72"/>
      <use x="75.195312" xlink:href="#DejaVuSans-65"/>
      <use x="143.603516" xlink:href="#DejaVuSans-76"/>
      <use x="199.316406" xlink:href="#DejaVuSans-76"/>
      <use x="255.029297" xlink:href="#DejaVuSans-77"/>
      <use x="341.308594" xlink:href="#DejaVuSans-65"/>
      <use x="409.716797" xlink:href="#DejaVuSans-82"/>
      <use x="479.199219" xlink:href="#DejaVuSans-75"/>
      <use x="544.775391" xlink:href="#DejaVuSans-95"/>
      <use x="594.775391" xlink:href="#DejaVuSans-67"/>
      <use x="664.599609" xlink:href="#DejaVuSans-79"/>
      <use x="743.294922" xlink:href="#DejaVuSans-65"/>
      <use x="811.6875" xlink:href="#DejaVuSans-71"/>
      <use x="889.177734" xlink:href="#DejaVuSans-85"/>
      <use x="962.371094" xlink:href="#DejaVuSans-76"/>
      <use x="1018.115234" xlink:href="#DejaVuSans-65"/>
      <use x="1086.414062" xlink:href="#DejaVuSans-84"/>
      <use x="1147.498047" xlink:href="#DejaVuSans-73"/>
      <use x="1176.990234" xlink:href="#DejaVuSans-79"/>
      <use x="1255.701172" xlink:href="#DejaVuSans-78"/>
     </g>
    </g>
   </g>
   <g id="text_16">
    <g clip-path="url(#p147d39619b)">
     <!-- HALLMARK_ALLOGRAFT_REJECTION -->
     <defs>
      <path d="M 9.8125 72.90625
L 51.703125 72.90625
L 51.703125 64.59375
L 19.671875 64.59375
L 19.671875 43.109375
L 48.578125 43.109375
L 48.578125 34.8125
L 19.671875 34.8125
L 19.671875 0
L 9.8125 0
z
" id="DejaVuSans-70"/>
      <path d="M 9.8125 72.90625
L 19.671875 72.90625
L 19.671875 5.078125
Q 19.671875 -8.109375 14.671875 -14.0625
Q 9.671875 -20.015625 -1.421875 -20.015625
L -5.171875 -20.015625
L -5.171875 -11.71875
L -2.09375 -11.71875
Q 4.4375 -11.71875 7.125 -8.046875
Q 9.8125 -4.390625 9.8125 5.078125
z
" id="DejaVuSans-74"/>
     </defs>
     <g transform="translate(58.382498 51.201742)scale(0.05 -0.05)">
      <use xlink:href="#DejaVuSans-72"/>
      <use x="75.195312" xlink:href="#DejaVuSans-65"/>
      <use x="143.603516" xlink:href="#DejaVuSans-76"/>
      <use x="199.316406" xlink:href="#DejaVuSans-76"/>
      <use x="255.029297" xlink:href="#DejaVuSans-77"/>
      <use x="341.308594" xlink:href="#DejaVuSans-65"/>
      <use x="409.716797" xlink:href="#DejaVuSans-82"/>
      <use x="479.199219" xlink:href="#DejaVuSans-75"/>
      <use x="544.775391" xlink:href="#DejaVuSans-95"/>
      <use x="594.775391" xlink:href="#DejaVuSans-65"/>
      <use x="663.183594" xlink:href="#DejaVuSans-76"/>
      <use x="718.896484" xlink:href="#DejaVuSans-76"/>
      <use x="774.5625" xlink:href="#DejaVuSans-79"/>
      <use x="853.273438" xlink:href="#DejaVuSans-71"/>
      <use x="930.763672" xlink:href="#DejaVuSans-82"/>
      <use x="1000.183594" xlink:href="#DejaVuSans-65"/>
      <use x="1068.591797" xlink:href="#DejaVuSans-70"/>
      <use x="1126.095703" xlink:href="#DejaVuSans-84"/>
      <use x="1187.179688" xlink:href="#DejaVuSans-95"/>
      <use x="1237.179688" xlink:href="#DejaVuSans-82"/>
      <use x="1306.662109" xlink:href="#DejaVuSans-69"/>
      <use x="1369.845703" xlink:href="#DejaVuSans-74"/>
      <use x="1399.337891" xlink:href="#DejaVuSans-69"/>
      <use x="1462.521484" xlink:href="#DejaVuSans-67"/>
      <use x="1532.345703" xlink:href="#DejaVuSans-84"/>
      <use x="1593.429688" xlink:href="#DejaVuSans-73"/>
      <use x="1622.921875" xlink:href="#DejaVuSans-79"/>
      <use x="1701.632812" xlink:href="#DejaVuSans-78"/>
     </g>
    </g>
   </g>
  </g>
  <g id="text_17">
   <!-- ORA pathway statistics vs ranking -->
   <defs>
    <path d="M 54.890625 33.015625
L 54.890625 0
L 45.90625 0
L 45.90625 32.71875
Q 45.90625 40.484375 42.875 44.328125
Q 39.84375 48.1875 33.796875 48.1875
Q 26.515625 48.1875 22.3125 43.546875
Q 18.109375 38.921875 18.109375 30.90625
L 18.109375 0
L 9.078125 0
L 9.078125 75.984375
L 18.109375 75.984375
L 18.109375 46.1875
Q 21.34375 51.125 25.703125 53.5625
Q 30.078125 56 35.796875 56
Q 45.21875 56 50.046875 50.171875
Q 54.890625 44.34375 54.890625 33.015625
z
" id="DejaVuSans-104"/>
    <path d="M 4.203125 54.6875
L 13.1875 54.6875
L 24.421875 12.015625
L 35.59375 54.6875
L 46.1875 54.6875
L 57.421875 12.015625
L 68.609375 54.6875
L 77.59375 54.6875
L 63.28125 0
L 52.6875 0
L 40.921875 44.828125
L 29.109375 0
L 18.5 0
z
" id="DejaVuSans-119"/>
    <path d="M 32.171875 -5.078125
Q 28.375 -14.84375 24.75 -17.8125
Q 21.140625 -20.796875 15.09375 -20.796875
L 7.90625 -20.796875
L 7.90625 -13.28125
L 13.1875 -13.28125
Q 16.890625 -13.28125 18.9375 -11.515625
Q 21 -9.765625 23.484375 -3.21875
L 25.09375 0.875
L 2.984375 54.6875
L 12.5 54.6875
L 29.59375 11.921875
L 46.6875 54.6875
L 56.203125 54.6875
z
" id="DejaVuSans-121"/>
   </defs>
   <g transform="translate(91.428828 11.397656)scale(0.15 -0.15)">
    <use xlink:href="#DejaVuSans-79"/>
    <use x="78.710938" xlink:href="#DejaVuSans-82"/>
    <use x="148.130859" xlink:href="#DejaVuSans-65"/>
    <use x="216.539062" xlink:href="#DejaVuSans-32"/>
    <use x="248.326172" xlink:href="#DejaVuSans-112"/>
    <use x="311.802734" xlink:href="#DejaVuSans-97"/>
    <use x="373.082031" xlink:href="#DejaVuSans-116"/>
    <use x="412.291016" xlink:href="#DejaVuSans-104"/>
    <use x="475.669922" xlink:href="#DejaVuSans-119"/>
    <use x="557.457031" xlink:href="#DejaVuSans-97"/>
    <use x="618.736328" xlink:href="#DejaVuSans-121"/>
    <use x="677.916016" xlink:href="#DejaVuSans-32"/>
    <use x="709.703125" xlink:href="#DejaVuSans-115"/>
    <use x="761.802734" xlink:href="#DejaVuSans-116"/>
    <use x="801.011719" xlink:href="#DejaVuSans-97"/>
    <use x="862.291016" xlink:href="#DejaVuSans-116"/>
    <use x="901.5" xlink:href="#DejaVuSans-105"/>
    <use x="929.283203" xlink:href="#DejaVuSans-115"/>
    <use x="981.382812" xlink:href="#DejaVuSans-116"/>
    <use x="1020.591797" xlink:href="#DejaVuSans-105"/>
    <use x="1048.375" xlink:href="#DejaVuSans-99"/>
    <use x="1103.355469" xlink:href="#DejaVuSans-115"/>
    <use x="1155.455078" xlink:href="#DejaVuSans-32"/>
    <use x="1187.242188" xlink:href="#DejaVuSans-118"/>
    <use x="1246.421875" xlink:href="#DejaVuSans-115"/>
    <use x="1298.521484" xlink:href="#DejaVuSans-32"/>
    <use x="1330.308594" xlink:href="#DejaVuSans-114"/>
    <use x="1371.421875" xlink:href="#DejaVuSans-97"/>
    <use x="1432.701172" xlink:href="#DejaVuSans-110"/>
    <use x="1496.080078" xlink:href="#DejaVuSans-107"/>
    <use x="1553.990234" xlink:href="#DejaVuSans-105"/>
    <use x="1581.773438" xlink:href="#DejaVuSans-110"/>
    <use x="1645.152344" xlink:href="#DejaVuSans-103"/>
   </g>
  </g>
 </g>
 <defs>
  <clipPath id="p147d39619b">
   <rect height="266.112" width="357.12" x="46.772188" y="20.583376"/>
  </clipPath>
 </defs>
</svg>
