<?xml version="1.0" encoding="utf-8" standalone="no"?>
<!DOCTYPE svg PUBLIC "-//W3C//DTD SVG 1.1//EN"
  "http://www.w3.org/Graphics/SVG/1.1/DTD/svg11.dtd">
<!-- Created with matplotlib (https://matplotlib.org/) -->
<svg height="322.176313pt" version="1.1" viewBox="0 0 406.642188 322.176313" width="406.642188pt" xmlns="http://www.w3.org/2000/svg" xmlns:xlink="http://www.w3.org/1999/xlink">
 <defs>
  <style type="text/css">
*{stroke-linecap:butt;stroke-linejoin:round;}
  </style>
 </defs>
 <g id="figure_1">
  <g id="patch_1">
   <path d="M 0 322.176313
L 406.642188 322.176313
L 406.642188 0
L 0 0
z
" style="fill:#ffffff;stroke:#ffffff;stroke-linejoin:miter;"/>
  </g>
  <g id="axes_1">
   <g id="patch_2">
    <path d="M 46.772188 286.695376
L 403.892188 286.695376
L 403.892188 20.583376
L 46.772188 20.583376
z
" style="fill:none;"/>
   </g>
   <g id="matplotlib.axis_1">
    <g id="xtick_1">
     <g id="line2d_1">
      <path clip-path="url(#p816bb73fe8)" d="M 63.004915 286.695376
L 63.004915 20.583376
" style="fill:none;stroke:#e5e5e5;stroke-width:0.8;"/>
     </g>
     <g id="line2d_2">
      <path d="M 63.004915 286.695376
" style="fill:none;stroke:#000000;stroke-width:1.5;"/>
      <defs>
       <path d="M 0 0
L 0 2.75
" id="m43380f8be0" style="stroke:#000000;"/>
      </defs>
      <g>
       <use style="stroke:#000000;" x="63.004915" xlink:href="#m43380f8be0" y="286.695376"/>
      </g>
     </g>
     <g id="text_1">
      <!-- 0 -->
      <defs>
       <path d="M 31.78125 66.40625
Q 24.171875 66.40625 20.328125 58.90625
Q 16.5 51.421875 16.5 36.375
Q 16.5 21.390625 20.328125 13.890625
Q 24.171875 6.390625 31.78125 6.390625
Q 39.453125 6.390625 43.28125 13.890625
Q 47.125 21.390625 47.125 36.375
Q 47.125 51.421875 43.28125 58.90625
Q 39.453125 66.40625 31.78125 66.40625
z
M 31.78125 74.21875
Q 44.046875 74.21875 50.515625 64.515625
Q 56.984375 54.828125 56.984375 36.375
Q 56.984375 17.96875 50.515625 8.265625
Q 44.046875 -1.421875 31.78125 -1.421875
Q 19.53125 -1.421875 13.0625 8.265625
Q 6.59375 17.96875 6.59375 36.375
Q 6.59375 54.828125 13.0625 64.515625
Q 19.53125 74.21875 31.78125 74.21875
z
" id="DejaVuSans-48"/>
      </defs>
      <g style="fill:#4d4d4d;" transform="translate(59.187415 300.763501)scale(0.12 -0.12)">
       <use xlink:href="#DejaVuSans-48"/>
      </g>
     </g>
    </g>
    <g id="xtick_2">
     <g id="line2d_3">
      <path clip-path="url(#p816bb73fe8)" d="M 144.168551 286.695376
L 144.168551 20.583376
" style="fill:none;stroke:#e5e5e5;stroke-width:0.8;"/>
     </g>
     <g id="line2d_4">
      <path d="M 144.168551 286.695376
" style="fill:none;stroke:#000000;stroke-width:1.5;"/>
      <g>
       <use style="stroke:#000000;" x="144.168551" xlink:href="#m43380f8be0" y="286.695376"/>
      </g>
     </g>
     <g id="text_2">
      <!-- 0.25 -->
      <defs>
       <path d="M 10.6875 12.40625
L 21 12.40625
L 21 0
L 10.6875 0
z
" id="DejaVuSans-46"/>
       <path d="M 19.1875 8.296875
L 53.609375 8.296875
L 53.609375 0
L 7.328125 0
L 7.328125 8.296875
Q 12.9375 14.109375 22.625 23.890625
Q 32.328125 33.6875 34.8125 36.53125
Q 39.546875 41.84375 41.421875 45.53125
Q 43.3125 49.21875 43.3125 52.78125
Q 43.3125 58.59375 39.234375 62.25
Q 35.15625 65.921875 28.609375 65.921875
Q 23.96875 65.921875 18.8125 64.3125
Q 13.671875 62.703125 7.8125 59.421875
L 7.8125 69.390625
Q 13.765625 71.78125 18.9375 73
Q 24.125 74.21875 28.421875 74.21875
Q 39.75 74.21875 46.484375 68.546875
Q 53.21875 62.890625 53.21875 53.421875
Q 53.21875 48.921875 51.53125 44.890625
Q 49.859375 40.875 45.40625 35.40625
Q 44.1875 33.984375 37.640625 27.21875
Q 31.109375 20.453125 19.1875 8.296875
z
" id="DejaVuSans-50"/>
       <path d="M 10.796875 72.90625
L 49.515625 72.90625
L 49.515625 64.59375
L 19.828125 64.59375
L 19.828125 46.734375
Q 21.96875 47.46875 24.109375 47.828125
Q 26.265625 48.1875 28.421875 48.1875
Q 40.625 48.1875 47.75 41.5
Q 54.890625 34.8125 54.890625 23.390625
Q 54.890625 11.625 47.5625 5.09375
Q 40.234375 -1.421875 26.90625 -1.421875
Q 22.3125 -1.421875 17.546875 -0.640625
Q 12.796875 0.140625 7.71875 1.703125
L 7.71875 11.625
Q 12.109375 9.234375 16.796875 8.0625
Q 21.484375 6.890625 26.703125 6.890625
Q 35.15625 6.890625 40.078125 11.328125
Q 45.015625 15.765625 45.015625 23.390625
Q 45.015625 31 40.078125 35.4375
Q 35.15625 39.890625 26.703125 39.890625
Q 22.75 39.890625 18.8125 39.015625
Q 14.890625 38.140625 10.796875 36.28125
z
" id="DejaVuSans-53"/>
      </defs>
      <g style="fill:#4d4d4d;" transform="translate(130.809176 300.763501)scale(0.12 -0.12)">
       <use xlink:href="#DejaVuSans-48"/>
       <use x="63.623047" xlink:href="#DejaVuSans-46"/>
       <use x="95.410156" xlink:href="#DejaVuSans-50"/>
       <use x="159.033203" xlink:href="#DejaVuSans-53"/>
      </g>
     </g>
    </g>
    <g id="xtick_3">
     <g id="line2d_5">
      <path clip-path="url(#p816bb73fe8)" d="M 225.332187 286.695376
L 225.332187 20.583376
" style="fill:none;stroke:#e5e5e5;stroke-width:0.8;"/>
     </g>
     <g id="line2d_6">
      <path d="M 225.332187 286.695376
" style="fill:none;stroke:#000000;stroke-width:1.5;"/>
      <g>
       <use style="stroke:#000000;" x="225.332187" xlink:href="#m43380f8be0" y="286.695376"/>
      </g>
     </g>
     <g id="text_3">
      <!-- 0.50 -->
      <g style="fill:#4d4d4d;" transform="translate(211.972812 300.763501)scale(0.12 -0.12)">
       <use xlink:href="#DejaVuSans-48"/>
       <use x="63.623047" xlink:href="#DejaVuSans-46"/>
       <use x="95.410156" xlink:href="#DejaVuSans-53"/>
       <use x="159.033203" xlink:href="#DejaVuSans-48"/>
      </g>
     </g>
    </g>
    <g id="xtick_4">
     <g id="line2d_7">
      <path clip-path="url(#p816bb73fe8)" d="M 306.495824 286.695376
L 306.495824 20.583376
" style="fill:none;stroke:#e5e5e5;stroke-width:0.8;"/>
     </g>
     <g id="line2d_8">
      <path d="M 306.495824 286.695376
" style="fill:none;stroke:#000000;stroke-width:1.5;"/>
      <g>
       <use style="stroke:#000000;" x="306.495824" xlink:href="#m43380f8be0" y="286.695376"/>
      </g>
     </g>
     <g id="text_4">
      <!-- 0.75 -->
      <defs>
       <path d="M 8.203125 72.90625
L 55.078125 72.90625
L 55.078125 68.703125
L 28.609375 0
L 18.3125 0
L 43.21875 64.59375
L 8.203125 64.59375
z
" id="DejaVuSans-55"/>
      </defs>
      <g style="fill:#4d4d4d;" transform="translate(293.136449 300.763501)scale(0.12 -0.12)">
       <use xlink:href="#DejaVuSans-48"/>
       <use x="63.623047" xlink:href="#DejaVuSans-46"/>
       <use x="95.410156" xlink:href="#DejaVuSans-55"/>
       <use x="159.033203" xlink:href="#DejaVuSans-53"/>
      </g>
     </g>
    </g>
    <g id="xtick_5">
     <g id="line2d_9">
      <path clip-path="url(#p816bb73fe8)" d="M 387.65946 286.695376
L 387.65946 20.583376
" style="fill:none;stroke:#e5e5e5;stroke-width:0.8;"/>
     </g>
     <g id="line2d_10">
      <path d="M 387.65946 286.695376
" style="fill:none;stroke:#000000;stroke-width:1.5;"/>
      <g>
       <use style="stroke:#000000;" x="387.65946" xlink:href="#m43380f8be0" y="286.695376"/>
      </g>
     </g>
     <g id="text_5">
      <!-- 1 -->
      <defs>
       <path d="M 12.40625 8.296875
L 28.515625 8.296875
L 28.515625 63.921875
L 10.984375 60.40625
L 10.984375 69.390625
L 28.421875 72.90625
L 38.28125 72.90625
L 38.28125 8.296875
L 54.390625 8.296875
L 54.390625 0
L 12.40625 0
z
" id="DejaVuSans-49"/>
      </defs>
      <g style="fill:#4d4d4d;" transform="translate(383.84196 300.763501)scale(0.12 -0.12)">
       <use xlink:href="#DejaVuSans-49"/>
      </g>
     </g>
    </g>
    <g id="xtick_6">
     <g id="line2d_11">
      <path clip-path="url(#p816bb73fe8)" d="M 103.586733 286.695376
L 103.586733 20.583376
" style="fill:none;stroke:#fafafa;"/>
     </g>
     <g id="line2d_12">
      <path d="M 103.586733 286.695376
" style="fill:none;stroke:#000000;stroke-width:1.5;"/>
     </g>
    </g>
    <g id="xtick_7">
     <g id="line2d_13">
      <path clip-path="url(#p816bb73fe8)" d="M 184.750369 286.695376
L 184.750369 20.583376
" style="fill:none;stroke:#fafafa;"/>
     </g>
     <g id="line2d_14">
      <path d="M 184.750369 286.695376
" style="fill:none;stroke:#000000;stroke-width:1.5;"/>
     </g>
    </g>
    <g id="xtick_8">
     <g id="line2d_15">
      <path clip-path="url(#p816bb73fe8)" d="M 265.914006 286.695376
L 265.914006 20.583376
" style="fill:none;stroke:#fafafa;"/>
     </g>
     <g id="line2d_16">
      <path d="M 265.914006 286.695376
" style="fill:none;stroke:#000000;stroke-width:1.5;"/>
     </g>
    </g>
    <g id="xtick_9">
     <g id="line2d_17">
      <path clip-path="url(#p816bb73fe8)" d="M 347.077642 286.695376
L 347.077642 20.583376
" style="fill:none;stroke:#fafafa;"/>
     </g>
     <g id="line2d_18">
      <path d="M 347.077642 286.695376
" style="fill:none;stroke:#000000;stroke-width:1.5;"/>
     </g>
    </g>
    <g id="text_6">
     <!-- Median(adjusted p-value (BH)) -->
     <defs>
      <path d="M 9.8125 72.90625
L 24.515625 72.90625
L 43.109375 23.296875
L 61.8125 72.90625
L 76.515625 72.90625
L 76.515625 0
L 66.890625 0
L 66.890625 64.015625
L 48.09375 14.015625
L 38.1875 14.015625
L 19.390625 64.015625
L 19.390625 0
L 9.8125 0
z
" id="DejaVuSans-77"/>
      <path d="M 56.203125 29.59375
L 56.203125 25.203125
L 14.890625 25.203125
Q 15.484375 15.921875 20.484375 11.0625
Q 25.484375 6.203125 34.421875 6.203125
Q 39.59375 6.203125 44.453125 7.46875
Q 49.3125 8.734375 54.109375 11.28125
L 54.109375 2.78125
Q 49.265625 0.734375 44.1875 -0.34375
Q 39.109375 -1.421875 33.890625 -1.421875
Q 20.796875 -1.421875 13.15625 6.1875
Q 5.515625 13.8125 5.515625 26.8125
Q 5.515625 40.234375 12.765625 48.109375
Q 20.015625 56 32.328125 56
Q 43.359375 56 49.78125 48.890625
Q 56.203125 41.796875 56.203125 29.59375
z
M 47.21875 32.234375
Q 47.125 39.59375 43.09375 43.984375
Q 39.0625 48.390625 32.421875 48.390625
Q 24.90625 48.390625 20.390625 44.140625
Q 15.875 39.890625 15.1875 32.171875
z
" id="DejaVuSans-101"/>
      <path d="M 45.40625 46.390625
L 45.40625 75.984375
L 54.390625 75.984375
L 54.390625 0
L 45.40625 0
L 45.40625 8.203125
Q 42.578125 3.328125 38.25 0.953125
Q 33.9375 -1.421875 27.875 -1.421875
Q 17.96875 -1.421875 11.734375 6.484375
Q 5.515625 14.40625 5.515625 27.296875
Q 5.515625 40.1875 11.734375 48.09375
Q 17.96875 56 27.875 56
Q 33.9375 56 38.25 53.625
Q 42.578125 51.265625 45.40625 46.390625
z
M 14.796875 27.296875
Q 14.796875 17.390625 18.875 11.75
Q 22.953125 6.109375 30.078125 6.109375
Q 37.203125 6.109375 41.296875 11.75
Q 45.40625 17.390625 45.40625 27.296875
Q 45.40625 37.203125 41.296875 42.84375
Q 37.203125 48.484375 30.078125 48.484375
Q 22.953125 48.484375 18.875 42.84375
Q 14.796875 37.203125 14.796875 27.296875
z
" id="DejaVuSans-100"/>
      <path d="M 9.421875 54.6875
L 18.40625 54.6875
L 18.40625 0
L 9.421875 0
z
M 9.421875 75.984375
L 18.40625 75.984375
L 18.40625 64.59375
L 9.421875 64.59375
z
" id="DejaVuSans-105"/>
      <path d="M 34.28125 27.484375
Q 23.390625 27.484375 19.1875 25
Q 14.984375 22.515625 14.984375 16.5
Q 14.984375 11.71875 18.140625 8.90625
Q 21.296875 6.109375 26.703125 6.109375
Q 34.1875 6.109375 38.703125 11.40625
Q 43.21875 16.703125 43.21875 25.484375
L 43.21875 27.484375
z
M 52.203125 31.203125
L 52.203125 0
L 43.21875 0
L 43.21875 8.296875
Q 40.140625 3.328125 35.546875 0.953125
Q 30.953125 -1.421875 24.3125 -1.421875
Q 15.921875 -1.421875 10.953125 3.296875
Q 6 8.015625 6 15.921875
Q 6 25.140625 12.171875 29.828125
Q 18.359375 34.515625 30.609375 34.515625
L 43.21875 34.515625
L 43.21875 35.40625
Q 43.21875 41.609375 39.140625 45
Q 35.0625 48.390625 27.6875 48.390625
Q 23 48.390625 18.546875 47.265625
Q 14.109375 46.140625 10.015625 43.890625
L 10.015625 52.203125
Q 14.9375 54.109375 19.578125 55.046875
Q 24.21875 56 28.609375 56
Q 40.484375 56 46.34375 49.84375
Q 52.203125 43.703125 52.203125 31.203125
z
" id="DejaVuSans-97"/>
      <path d="M 54.890625 33.015625
L 54.890625 0
L 45.90625 0
L 45.90625 32.71875
Q 45.90625 40.484375 42.875 44.328125
Q 39.84375 48.1875 33.796875 48.1875
Q 26.515625 48.1875 22.3125 43.546875
Q 18.109375 38.921875 18.109375 30.90625
L 18.109375 0
L 9.078125 0
L 9.078125 54.6875
L 18.109375 54.6875
L 18.109375 46.1875
Q 21.34375 51.125 25.703125 53.5625
Q 30.078125 56 35.796875 56
Q 45.21875 56 50.046875 50.171875
Q 54.890625 44.34375 54.890625 33.015625
z
" id="DejaVuSans-110"/>
      <path d="M 31 75.875
Q 24.46875 64.65625 21.28125 53.65625
Q 18.109375 42.671875 18.109375 31.390625
Q 18.109375 20.125 21.3125 9.0625
Q 24.515625 -2 31 -13.1875
L 23.1875 -13.1875
Q 15.875 -1.703125 12.234375 9.375
Q 8.59375 20.453125 8.59375 31.390625
Q 8.59375 42.28125 12.203125 53.3125
Q 15.828125 64.359375 23.1875 75.875
z
" id="DejaVuSans-40"/>
      <path d="M 9.421875 54.6875
L 18.40625 54.6875
L 18.40625 -0.984375
Q 18.40625 -11.421875 14.421875 -16.109375
Q 10.453125 -20.796875 1.609375 -20.796875
L -1.8125 -20.796875
L -1.8125 -13.1875
L 0.59375 -13.1875
Q 5.71875 -13.1875 7.5625 -10.8125
Q 9.421875 -8.453125 9.421875 -0.984375
z
M 9.421875 75.984375
L 18.40625 75.984375
L 18.40625 64.59375
L 9.421875 64.59375
z
" id="DejaVuSans-106"/>
      <path d="M 8.5 21.578125
L 8.5 54.6875
L 17.484375 54.6875
L 17.484375 21.921875
Q 17.484375 14.15625 20.5 10.265625
Q 23.53125 6.390625 29.59375 6.390625
Q 36.859375 6.390625 41.078125 11.03125
Q 45.3125 15.671875 45.3125 23.6875
L 45.3125 54.6875
L 54.296875 54.6875
L 54.296875 0
L 45.3125 0
L 45.3125 8.40625
Q 42.046875 3.421875 37.71875 1
Q 33.40625 -1.421875 27.6875 -1.421875
Q 18.265625 -1.421875 13.375 4.4375
Q 8.5 10.296875 8.5 21.578125
z
M 31.109375 56
z
" id="DejaVuSans-117"/>
      <path d="M 44.28125 53.078125
L 44.28125 44.578125
Q 40.484375 46.53125 36.375 47.5
Q 32.28125 48.484375 27.875 48.484375
Q 21.1875 48.484375 17.84375 46.4375
Q 14.5 44.390625 14.5 40.28125
Q 14.5 37.15625 16.890625 35.375
Q 19.28125 33.59375 26.515625 31.984375
L 29.59375 31.296875
Q 39.15625 29.25 43.1875 25.515625
Q 47.21875 21.78125 47.21875 15.09375
Q 47.21875 7.46875 41.1875 3.015625
Q 35.15625 -1.421875 24.609375 -1.421875
Q 20.21875 -1.421875 15.453125 -0.5625
Q 10.6875 0.296875 5.421875 2
L 5.421875 11.28125
Q 10.40625 8.6875 15.234375 7.390625
Q 20.0625 6.109375 24.8125 6.109375
Q 31.15625 6.109375 34.5625 8.28125
Q 37.984375 10.453125 37.984375 14.40625
Q 37.984375 18.0625 35.515625 20.015625
Q 33.0625 21.96875 24.703125 23.78125
L 21.578125 24.515625
Q 13.234375 26.265625 9.515625 29.90625
Q 5.8125 33.546875 5.8125 39.890625
Q 5.8125 47.609375 11.28125 51.796875
Q 16.75 56 26.8125 56
Q 31.78125 56 36.171875 55.265625
Q 40.578125 54.546875 44.28125 53.078125
z
" id="DejaVuSans-115"/>
      <path d="M 18.3125 70.21875
L 18.3125 54.6875
L 36.8125 54.6875
L 36.8125 47.703125
L 18.3125 47.703125
L 18.3125 18.015625
Q 18.3125 11.328125 20.140625 9.421875
Q 21.96875 7.515625 27.59375 7.515625
L 36.8125 7.515625
L 36.8125 0
L 27.59375 0
Q 17.1875 0 13.234375 3.875
Q 9.28125 7.765625 9.28125 18.015625
L 9.28125 47.703125
L 2.6875 47.703125
L 2.6875 54.6875
L 9.28125 54.6875
L 9.28125 70.21875
z
" id="DejaVuSans-116"/>
      <path id="DejaVuSans-32"/>
      <path d="M 18.109375 8.203125
L 18.109375 -20.796875
L 9.078125 -20.796875
L 9.078125 54.6875
L 18.109375 54.6875
L 18.109375 46.390625
Q 20.953125 51.265625 25.265625 53.625
Q 29.59375 56 35.59375 56
Q 45.5625 56 51.78125 48.09375
Q 58.015625 40.1875 58.015625 27.296875
Q 58.015625 14.40625 51.78125 6.484375
Q 45.5625 -1.421875 35.59375 -1.421875
Q 29.59375 -1.421875 25.265625 0.953125
Q 20.953125 3.328125 18.109375 8.203125
z
M 48.6875 27.296875
Q 48.6875 37.203125 44.609375 42.84375
Q 40.53125 48.484375 33.40625 48.484375
Q 26.265625 48.484375 22.1875 42.84375
Q 18.109375 37.203125 18.109375 27.296875
Q 18.109375 17.390625 22.1875 11.75
Q 26.265625 6.109375 33.40625 6.109375
Q 40.53125 6.109375 44.609375 11.75
Q 48.6875 17.390625 48.6875 27.296875
z
" id="DejaVuSans-112"/>
      <path d="M 4.890625 31.390625
L 31.203125 31.390625
L 31.203125 23.390625
L 4.890625 23.390625
z
" id="DejaVuSans-45"/>
      <path d="M 2.984375 54.6875
L 12.5 54.6875
L 29.59375 8.796875
L 46.6875 54.6875
L 56.203125 54.6875
L 35.6875 0
L 23.484375 0
z
" id="DejaVuSans-118"/>
      <path d="M 9.421875 75.984375
L 18.40625 75.984375
L 18.40625 0
L 9.421875 0
z
" id="DejaVuSans-108"/>
      <path d="M 19.671875 34.8125
L 19.671875 8.109375
L 35.5 8.109375
Q 43.453125 8.109375 47.28125 11.40625
Q 51.125 14.703125 51.125 21.484375
Q 51.125 28.328125 47.28125 31.5625
Q 43.453125 34.8125 35.5 34.8125
z
M 19.671875 64.796875
L 19.671875 42.828125
L 34.28125 42.828125
Q 41.5 42.828125 45.03125 45.53125
Q 48.578125 48.25 48.578125 53.8125
Q 48.578125 59.328125 45.03125 62.0625
Q 41.5 64.796875 34.28125 64.796875
z
M 9.8125 72.90625
L 35.015625 72.90625
Q 46.296875 72.90625 52.390625 68.21875
Q 58.5 63.53125 58.5 54.890625
Q 58.5 48.1875 55.375 44.234375
Q 52.25 40.28125 46.1875 39.3125
Q 53.46875 37.75 57.5 32.78125
Q 61.53125 27.828125 61.53125 20.40625
Q 61.53125 10.640625 54.890625 5.3125
Q 48.25 0 35.984375 0
L 9.8125 0
z
" id="DejaVuSans-66"/>
      <path d="M 9.8125 72.90625
L 19.671875 72.90625
L 19.671875 43.015625
L 55.515625 43.015625
L 55.515625 72.90625
L 65.375 72.90625
L 65.375 0
L 55.515625 0
L 55.515625 34.71875
L 19.671875 34.71875
L 19.671875 0
L 9.8125 0
z
" id="DejaVuSans-72"/>
      <path d="M 8.015625 75.875
L 15.828125 75.875
Q 23.140625 64.359375 26.78125 53.3125
Q 30.421875 42.28125 30.421875 31.390625
Q 30.421875 20.453125 26.78125 9.375
Q 23.140625 -1.703125 15.828125 -13.1875
L 8.015625 -13.1875
Q 14.5 -2 17.703125 9.0625
Q 20.90625 20.125 20.90625 31.390625
Q 20.90625 42.671875 17.703125 53.65625
Q 14.5 64.65625 8.015625 75.875
z
" id="DejaVuSans-41"/>
     </defs>
     <g transform="translate(104.665156 319.056782)scale(0.15 -0.15)">
      <use xlink:href="#DejaVuSans-77"/>
      <use x="86.279297" xlink:href="#DejaVuSans-101"/>
      <use x="147.802734" xlink:href="#DejaVuSans-100"/>
      <use x="211.279297" xlink:href="#DejaVuSans-105"/>
      <use x="239.0625" xlink:href="#DejaVuSans-97"/>
      <use x="300.341797" xlink:href="#DejaVuSans-110"/>
      <use x="363.720703" xlink:href="#DejaVuSans-40"/>
      <use x="402.734375" xlink:href="#DejaVuSans-97"/>
      <use x="464.013672" xlink:href="#DejaVuSans-100"/>
      <use x="527.490234" xlink:href="#DejaVuSans-106"/>
      <use x="555.273438" xlink:href="#DejaVuSans-117"/>
      <use x="618.652344" xlink:href="#DejaVuSans-115"/>
      <use x="670.751953" xlink:href="#DejaVuSans-116"/>
      <use x="709.960938" xlink:href="#DejaVuSans-101"/>
      <use x="771.484375" xlink:href="#DejaVuSans-100"/>
      <use x="834.960938" xlink:href="#DejaVuSans-32"/>
      <use x="866.748047" xlink:href="#DejaVuSans-112"/>
      <use x="930.224609" xlink:href="#DejaVuSans-45"/>
      <use x="966.277344" xlink:href="#DejaVuSans-118"/>
      <use x="1025.457031" xlink:href="#DejaVuSans-97"/>
      <use x="1086.736328" xlink:href="#DejaVuSans-108"/>
      <use x="1114.519531" xlink:href="#DejaVuSans-117"/>
      <use x="1177.898438" xlink:href="#DejaVuSans-101"/>
      <use x="1239.421875" xlink:href="#DejaVuSans-32"/>
      <use x="1271.208984" xlink:href="#DejaVuSans-40"/>
      <use x="1310.222656" xlink:href="#DejaVuSans-66"/>
      <use x="1378.826172" xlink:href="#DejaVuSans-72"/>
      <use x="1454.021484" xlink:href="#DejaVuSans-41"/>
      <use x="1493.035156" xlink:href="#DejaVuSans-41"/>
     </g>
    </g>
   </g>
   <g id="matplotlib.axis_2">
    <g id="ytick_1">
     <g id="line2d_19">
      <path clip-path="url(#p816bb73fe8)" d="M 46.772188 274.599376
L 403.892188 274.599376
" style="fill:none;stroke:#e5e5e5;stroke-width:0.8;"/>
     </g>
     <g id="line2d_20">
      <path d="M 46.772188 274.599376
" style="fill:none;stroke:#000000;stroke-width:1.5;"/>
      <defs>
       <path d="M 0 0
L -2.75 0
" id="m1c4f84c0bc" style="stroke:#000000;"/>
      </defs>
      <g>
       <use style="stroke:#000000;" x="46.772188" xlink:href="#m1c4f84c0bc" y="274.599376"/>
      </g>
     </g>
     <g id="text_7">
      <!-- 0 -->
      <g style="fill:#4d4d4d;" transform="translate(34.187188 277.910626)scale(0.12 -0.12)">
       <use xlink:href="#DejaVuSans-48"/>
      </g>
     </g>
    </g>
    <g id="ytick_2">
     <g id="line2d_21">
      <path clip-path="url(#p816bb73fe8)" d="M 46.772188 214.119376
L 403.892188 214.119376
" style="fill:none;stroke:#e5e5e5;stroke-width:0.8;"/>
     </g>
     <g id="line2d_22">
      <path d="M 46.772188 214.119376
" style="fill:none;stroke:#000000;stroke-width:1.5;"/>
      <g>
       <use style="stroke:#000000;" x="46.772188" xlink:href="#m1c4f84c0bc" y="214.119376"/>
      </g>
     </g>
     <g id="text_8">
      <!-- 25 -->
      <g style="fill:#4d4d4d;" transform="translate(26.552188 217.430626)scale(0.12 -0.12)">
       <use xlink:href="#DejaVuSans-50"/>
       <use x="63.623047" xlink:href="#DejaVuSans-53"/>
      </g>
     </g>
    </g>
    <g id="ytick_3">
     <g id="line2d_23">
      <path clip-path="url(#p816bb73fe8)" d="M 46.772188 153.639376
L 403.892188 153.639376
" style="fill:none;stroke:#e5e5e5;stroke-width:0.8;"/>
     </g>
     <g id="line2d_24">
      <path d="M 46.772188 153.639376
" style="fill:none;stroke:#000000;stroke-width:1.5;"/>
      <g>
       <use style="stroke:#000000;" x="46.772188" xlink:href="#m1c4f84c0bc" y="153.639376"/>
      </g>
     </g>
     <g id="text_9">
      <!-- 50 -->
      <g style="fill:#4d4d4d;" transform="translate(26.552188 156.950626)scale(0.12 -0.12)">
       <use xlink:href="#DejaVuSans-53"/>
       <use x="63.623047" xlink:href="#DejaVuSans-48"/>
      </g>
     </g>
    </g>
    <g id="ytick_4">
     <g id="line2d_25">
      <path clip-path="url(#p816bb73fe8)" d="M 46.772188 93.159376
L 403.892188 93.159376
" style="fill:none;stroke:#e5e5e5;stroke-width:0.8;"/>
     </g>
     <g id="line2d_26">
      <path d="M 46.772188 93.159376
" style="fill:none;stroke:#000000;stroke-width:1.5;"/>
      <g>
       <use style="stroke:#000000;" x="46.772188" xlink:href="#m1c4f84c0bc" y="93.159376"/>
      </g>
     </g>
     <g id="text_10">
      <!-- 75 -->
      <g style="fill:#4d4d4d;" transform="translate(26.552188 96.470626)scale(0.12 -0.12)">
       <use xlink:href="#DejaVuSans-55"/>
       <use x="63.623047" xlink:href="#DejaVuSans-53"/>
      </g>
     </g>
    </g>
    <g id="ytick_5">
     <g id="line2d_27">
      <path clip-path="url(#p816bb73fe8)" d="M 46.772188 32.679376
L 403.892188 32.679376
" style="fill:none;stroke:#e5e5e5;stroke-width:0.8;"/>
     </g>
     <g id="line2d_28">
      <path d="M 46.772188 32.679376
" style="fill:none;stroke:#000000;stroke-width:1.5;"/>
      <g>
       <use style="stroke:#000000;" x="46.772188" xlink:href="#m1c4f84c0bc" y="32.679376"/>
      </g>
     </g>
     <g id="text_11">
      <!-- 100 -->
      <g style="fill:#4d4d4d;" transform="translate(18.917188 35.990626)scale(0.12 -0.12)">
       <use xlink:href="#DejaVuSans-49"/>
       <use x="63.623047" xlink:href="#DejaVuSans-48"/>
       <use x="127.246094" xlink:href="#DejaVuSans-48"/>
      </g>
     </g>
    </g>
    <g id="ytick_6">
     <g id="line2d_29">
      <path clip-path="url(#p816bb73fe8)" d="M 46.772188 244.359376
L 403.892188 244.359376
" style="fill:none;stroke:#fafafa;"/>
     </g>
     <g id="line2d_30">
      <path d="M 46.772188 244.359376
" style="fill:none;stroke:#000000;stroke-width:1.5;"/>
     </g>
    </g>
    <g id="ytick_7">
     <g id="line2d_31">
      <path clip-path="url(#p816bb73fe8)" d="M 46.772188 183.879376
L 403.892188 183.879376
" style="fill:none;stroke:#fafafa;"/>
     </g>
     <g id="line2d_32">
      <path d="M 46.772188 183.879376
" style="fill:none;stroke:#000000;stroke-width:1.5;"/>
     </g>
    </g>
    <g id="ytick_8">
     <g id="line2d_33">
      <path clip-path="url(#p816bb73fe8)" d="M 46.772188 123.399376
L 403.892188 123.399376
" style="fill:none;stroke:#fafafa;"/>
     </g>
     <g id="line2d_34">
      <path d="M 46.772188 123.399376
" style="fill:none;stroke:#000000;stroke-width:1.5;"/>
     </g>
    </g>
    <g id="ytick_9">
     <g id="line2d_35">
      <path clip-path="url(#p816bb73fe8)" d="M 46.772188 62.919376
L 403.892188 62.919376
" style="fill:none;stroke:#fafafa;"/>
     </g>
     <g id="line2d_36">
      <path d="M 46.772188 62.919376
" style="fill:none;stroke:#000000;stroke-width:1.5;"/>
     </g>
    </g>
    <g id="text_12">
     <!-- Genericness (percentile of ranking) -->
     <defs>
      <path d="M 59.515625 10.40625
L 59.515625 29.984375
L 43.40625 29.984375
L 43.40625 38.09375
L 69.28125 38.09375
L 69.28125 6.78125
Q 63.578125 2.734375 56.6875 0.65625
Q 49.8125 -1.421875 42 -1.421875
Q 24.90625 -1.421875 15.25 8.5625
Q 5.609375 18.5625 5.609375 36.375
Q 5.609375 54.25 15.25 64.234375
Q 24.90625 74.21875 42 74.21875
Q 49.125 74.21875 55.546875 72.453125
Q 61.96875 70.703125 67.390625 67.28125
L 67.390625 56.78125
Q 61.921875 61.421875 55.765625 63.765625
Q 49.609375 66.109375 42.828125 66.109375
Q 29.4375 66.109375 22.71875 58.640625
Q 16.015625 51.171875 16.015625 36.375
Q 16.015625 21.625 22.71875 14.15625
Q 29.4375 6.6875 42.828125 6.6875
Q 48.046875 6.6875 52.140625 7.59375
Q 56.25 8.5 59.515625 10.40625
z
" id="DejaVuSans-71"/>
      <path d="M 41.109375 46.296875
Q 39.59375 47.171875 37.8125 47.578125
Q 36.03125 48 33.890625 48
Q 26.265625 48 22.1875 43.046875
Q 18.109375 38.09375 18.109375 28.8125
L 18.109375 0
L 9.078125 0
L 9.078125 54.6875
L 18.109375 54.6875
L 18.109375 46.1875
Q 20.953125 51.171875 25.484375 53.578125
Q 30.03125 56 36.53125 56
Q 37.453125 56 38.578125 55.875
Q 39.703125 55.765625 41.0625 55.515625
z
" id="DejaVuSans-114"/>
      <path d="M 48.78125 52.59375
L 48.78125 44.1875
Q 44.96875 46.296875 41.140625 47.34375
Q 37.3125 48.390625 33.40625 48.390625
Q 24.65625 48.390625 19.8125 42.84375
Q 14.984375 37.3125 14.984375 27.296875
Q 14.984375 17.28125 19.8125 11.734375
Q 24.65625 6.203125 33.40625 6.203125
Q 37.3125 6.203125 41.140625 7.25
Q 44.96875 8.296875 48.78125 10.40625
L 48.78125 2.09375
Q 45.015625 0.34375 40.984375 -0.53125
Q 36.96875 -1.421875 32.421875 -1.421875
Q 20.0625 -1.421875 12.78125 6.34375
Q 5.515625 14.109375 5.515625 27.296875
Q 5.515625 40.671875 12.859375 48.328125
Q 20.21875 56 33.015625 56
Q 37.15625 56 41.109375 55.140625
Q 45.0625 54.296875 48.78125 52.59375
z
" id="DejaVuSans-99"/>
      <path d="M 30.609375 48.390625
Q 23.390625 48.390625 19.1875 42.75
Q 14.984375 37.109375 14.984375 27.296875
Q 14.984375 17.484375 19.15625 11.84375
Q 23.34375 6.203125 30.609375 6.203125
Q 37.796875 6.203125 41.984375 11.859375
Q 46.1875 17.53125 46.1875 27.296875
Q 46.1875 37.015625 41.984375 42.703125
Q 37.796875 48.390625 30.609375 48.390625
z
M 30.609375 56
Q 42.328125 56 49.015625 48.375
Q 55.71875 40.765625 55.71875 27.296875
Q 55.71875 13.875 49.015625 6.21875
Q 42.328125 -1.421875 30.609375 -1.421875
Q 18.84375 -1.421875 12.171875 6.21875
Q 5.515625 13.875 5.515625 27.296875
Q 5.515625 40.765625 12.171875 48.375
Q 18.84375 56 30.609375 56
z
" id="DejaVuSans-111"/>
      <path d="M 37.109375 75.984375
L 37.109375 68.5
L 28.515625 68.5
Q 23.6875 68.5 21.796875 66.546875
Q 19.921875 64.59375 19.921875 59.515625
L 19.921875 54.6875
L 34.71875 54.6875
L 34.71875 47.703125
L 19.921875 47.703125
L 19.921875 0
L 10.890625 0
L 10.890625 47.703125
L 2.296875 47.703125
L 2.296875 54.6875
L 10.890625 54.6875
L 10.890625 58.5
Q 10.890625 67.625 15.140625 71.796875
Q 19.390625 75.984375 28.609375 75.984375
z
" id="DejaVuSans-102"/>
      <path d="M 9.078125 75.984375
L 18.109375 75.984375
L 18.109375 31.109375
L 44.921875 54.6875
L 56.390625 54.6875
L 27.390625 29.109375
L 57.625 0
L 45.90625 0
L 18.109375 26.703125
L 18.109375 0
L 9.078125 0
z
" id="DejaVuSans-107"/>
      <path d="M 45.40625 27.984375
Q 45.40625 37.75 41.375 43.109375
Q 37.359375 48.484375 30.078125 48.484375
Q 22.859375 48.484375 18.828125 43.109375
Q 14.796875 37.75 14.796875 27.984375
Q 14.796875 18.265625 18.828125 12.890625
Q 22.859375 7.515625 30.078125 7.515625
Q 37.359375 7.515625 41.375 12.890625
Q 45.40625 18.265625 45.40625 27.984375
z
M 54.390625 6.78125
Q 54.390625 -7.171875 48.1875 -13.984375
Q 42 -20.796875 29.203125 -20.796875
Q 24.46875 -20.796875 20.265625 -20.09375
Q 16.0625 -19.390625 12.109375 -17.921875
L 12.109375 -9.1875
Q 16.0625 -11.328125 19.921875 -12.34375
Q 23.78125 -13.375 27.78125 -13.375
Q 36.625 -13.375 41.015625 -8.765625
Q 45.40625 -4.15625 45.40625 5.171875
L 45.40625 9.625
Q 42.625 4.78125 38.28125 2.390625
Q 33.9375 0 27.875 0
Q 17.828125 0 11.671875 7.65625
Q 5.515625 15.328125 5.515625 27.984375
Q 5.515625 40.671875 11.671875 48.328125
Q 17.828125 56 27.875 56
Q 33.9375 56 38.28125 53.609375
Q 42.625 51.21875 45.40625 46.390625
L 45.40625 54.6875
L 54.390625 54.6875
z
" id="DejaVuSans-103"/>
     </defs>
     <g transform="translate(11.397656 284.455126)rotate(-90)scale(0.15 -0.15)">
      <use xlink:href="#DejaVuSans-71"/>
      <use x="77.490234" xlink:href="#DejaVuSans-101"/>
      <use x="139.013672" xlink:href="#DejaVuSans-110"/>
      <use x="202.392578" xlink:href="#DejaVuSans-101"/>
      <use x="263.916016" xlink:href="#DejaVuSans-114"/>
      <use x="305.029297" xlink:href="#DejaVuSans-105"/>
      <use x="332.8125" xlink:href="#DejaVuSans-99"/>
      <use x="387.792969" xlink:href="#DejaVuSans-110"/>
      <use x="451.171875" xlink:href="#DejaVuSans-101"/>
      <use x="512.695312" xlink:href="#DejaVuSans-115"/>
      <use x="564.794922" xlink:href="#DejaVuSans-115"/>
      <use x="616.894531" xlink:href="#DejaVuSans-32"/>
      <use x="648.681641" xlink:href="#DejaVuSans-40"/>
      <use x="687.695312" xlink:href="#DejaVuSans-112"/>
      <use x="751.171875" xlink:href="#DejaVuSans-101"/>
      <use x="812.695312" xlink:href="#DejaVuSans-114"/>
      <use x="853.777344" xlink:href="#DejaVuSans-99"/>
      <use x="908.757812" xlink:href="#DejaVuSans-101"/>
      <use x="970.28125" xlink:href="#DejaVuSans-110"/>
      <use x="1033.660156" xlink:href="#DejaVuSans-116"/>
      <use x="1072.869141" xlink:href="#DejaVuSans-105"/>
      <use x="1100.652344" xlink:href="#DejaVuSans-108"/>
      <use x="1128.435547" xlink:href="#DejaVuSans-101"/>
      <use x="1189.958984" xlink:href="#DejaVuSans-32"/>
      <use x="1221.746094" xlink:href="#DejaVuSans-111"/>
      <use x="1282.927734" xlink:href="#DejaVuSans-102"/>
      <use x="1318.132812" xlink:href="#DejaVuSans-32"/>
      <use x="1349.919922" xlink:href="#DejaVuSans-114"/>
      <use x="1391.033203" xlink:href="#DejaVuSans-97"/>
      <use x="1452.3125" xlink:href="#DejaVuSans-110"/>
      <use x="1515.691406" xlink:href="#DejaVuSans-107"/>
      <use x="1573.601562" xlink:href="#DejaVuSans-105"/>
      <use x="1601.384766" xlink:href="#DejaVuSans-110"/>
      <use x="1664.763672" xlink:href="#DejaVuSans-103"/>
      <use x="1728.240234" xlink:href="#DejaVuSans-41"/>
     </g>
    </g>
   </g>
   <g id="PathCollection_1">
    <path clip-path="url(#p816bb73fe8)" d="M 308.622428 123.320401
C 309.092489 123.320401 309.54336 123.133644 309.875743 122.801261
C 310.208125 122.468879 310.394882 122.018008 310.394882 121.547947
C 310.394882 121.077887 310.208125 120.627016 309.875743 120.294633
C 309.54336 119.96225 309.092489 119.775493 308.622428 119.775493
C 308.152368 119.775493 307.701497 119.96225 307.369114 120.294633
C 307.036731 120.627016 306.849975 121.077887 306.849975 121.547947
C 306.849975 122.018008 307.036731 122.468879 307.369114 122.801261
C 307.701497 123.133644 308.152368 123.320401 308.622428 123.320401
z
" style="stroke:#000000;stroke-width:0.886227;"/>
    <path clip-path="url(#p816bb73fe8)" d="M 63.004917 39.388973
C 63.474977 39.388973 63.925848 39.202216 64.258231 38.869833
C 64.590614 38.53745 64.77737 38.086579 64.77737 37.616519
C 64.77737 37.146458 64.590614 36.695587 64.258231 36.363205
C 63.925848 36.030822 63.474977 35.844065 63.004917 35.844065
C 62.534856 35.844065 62.083985 36.030822 61.751602 36.363205
C 61.41922 36.695587 61.232463 37.146458 61.232463 37.616519
C 61.232463 38.086579 61.41922 38.53745 61.751602 38.869833
C 62.083985 39.202216 62.534856 39.388973 63.004917 39.388973
z
" style="stroke:#000000;stroke-width:0.886227;"/>
    <path clip-path="url(#p816bb73fe8)" d="M 101.462686 73.948973
C 101.932746 73.948973 102.383617 73.762216 102.716 73.429833
C 103.048382 73.09745 103.235139 72.646579 103.235139 72.176519
C 103.235139 71.706458 103.048382 71.255587 102.716 70.923205
C 102.383617 70.590822 101.932746 70.404065 101.462686 70.404065
C 100.992625 70.404065 100.541754 70.590822 100.209371 70.923205
C 99.876989 71.255587 99.690232 71.706458 99.690232 72.176519
C 99.690232 72.646579 99.876989 73.09745 100.209371 73.429833
C 100.541754 73.762216 100.992625 73.948973 101.462686 73.948973
z
" style="stroke:#000000;stroke-width:0.886227;"/>
    <path clip-path="url(#p816bb73fe8)" d="M 63.004915 34.45183
C 63.474975 34.45183 63.925846 34.265073 64.258229 33.93269
C 64.590612 33.600307 64.777369 33.149436 64.777369 32.679376
C 64.777369 32.209316 64.590612 31.758444 64.258229 31.426062
C 63.925846 31.093679 63.474975 30.906922 63.004915 30.906922
C 62.534855 30.906922 62.083983 31.093679 61.751601 31.426062
C 61.419218 31.758444 61.232461 32.209316 61.232461 32.679376
C 61.232461 33.149436 61.419218 33.600307 61.751601 33.93269
C 62.083983 34.265073 62.534855 34.45183 63.004915 34.45183
z
" style="stroke:#000000;stroke-width:0.886227;"/>
    <path clip-path="url(#p816bb73fe8)" d="M 71.798335 64.074687
C 72.268395 64.074687 72.719266 63.88793 73.051649 63.555547
C 73.384031 63.223164 73.570788 62.772293 73.570788 62.302233
C 73.570788 61.832173 73.384031 61.381302 73.051649 61.048919
C 72.719266 60.716536 72.268395 60.529779 71.798335 60.529779
C 71.328274 60.529779 70.877403 60.716536 70.54502 61.048919
C 70.212638 61.381302 70.025881 61.832173 70.025881 62.302233
C 70.025881 62.772293 70.212638 63.223164 70.54502 63.555547
C 70.877403 63.88793 71.328274 64.074687 71.798335 64.074687
z
" style="stroke:#000000;stroke-width:0.886227;"/>
    <path clip-path="url(#p816bb73fe8)" d="M 72.523552 69.01183
C 72.993612 69.01183 73.444483 68.825073 73.776866 68.49269
C 74.109249 68.160307 74.296006 67.709436 74.296006 67.239376
C 74.296006 66.769316 74.109249 66.318444 73.776866 65.986062
C 73.444483 65.653679 72.993612 65.466922 72.523552 65.466922
C 72.053492 65.466922 71.602621 65.653679 71.270238 65.986062
C 70.937855 66.318444 70.751098 66.769316 70.751098 67.239376
C 70.751098 67.709436 70.937855 68.160307 71.270238 68.49269
C 71.602621 68.825073 72.053492 69.01183 72.523552 69.01183
z
" style="stroke:#000000;stroke-width:0.886227;"/>
    <path clip-path="url(#p816bb73fe8)" d="M 65.789765 54.200401
C 66.259825 54.200401 66.710696 54.013644 67.043079 53.681261
C 67.375462 53.348879 67.562219 52.898008 67.562219 52.427947
C 67.562219 51.957887 67.375462 51.507016 67.043079 51.174633
C 66.710696 50.84225 66.259825 50.655493 65.789765 50.655493
C 65.319704 50.655493 64.868833 50.84225 64.536451 51.174633
C 64.204068 51.507016 64.017311 51.957887 64.017311 52.427947
C 64.017311 52.898008 64.204068 53.348879 64.536451 53.681261
C 64.868833 54.013644 65.319704 54.200401 65.789765 54.200401
z
" style="stroke:#000000;stroke-width:0.886227;"/>
    <path clip-path="url(#p816bb73fe8)" d="M 238.758604 118.383258
C 239.228665 118.383258 239.679536 118.196501 240.011919 117.864119
C 240.344301 117.531736 240.531058 117.080865 240.531058 116.610804
C 240.531058 116.140744 240.344301 115.689873 240.011919 115.35749
C 239.679536 115.025107 239.228665 114.838351 238.758604 114.838351
C 238.288544 114.838351 237.837673 115.025107 237.50529 115.35749
C 237.172908 115.689873 236.986151 116.140744 236.986151 116.610804
C 236.986151 117.080865 237.172908 117.531736 237.50529 117.864119
C 237.837673 118.196501 238.288544 118.383258 238.758604 118.383258
z
" style="stroke:#000000;stroke-width:0.886227;"/>
    <path clip-path="url(#p816bb73fe8)" d="M 371.827868 138.13183
C 372.297928 138.13183 372.748799 137.945073 373.081182 137.61269
C 373.413565 137.280307 373.600322 136.829436 373.600322 136.359376
C 373.600322 135.889316 373.413565 135.438444 373.081182 135.106062
C 372.748799 134.773679 372.297928 134.586922 371.827868 134.586922
C 371.357808 134.586922 370.906937 134.773679 370.574554 135.106062
C 370.242171 135.438444 370.055414 135.889316 370.055414 136.359376
C 370.055414 136.829436 370.242171 137.280307 370.574554 137.61269
C 370.906937 137.945073 371.357808 138.13183 371.827868 138.13183
z
" style="stroke:#000000;stroke-width:0.886227;"/>
    <path clip-path="url(#p816bb73fe8)" d="M 113.696018 83.823258
C 114.166079 83.823258 114.61695 83.636501 114.949333 83.304119
C 115.281715 82.971736 115.468472 82.520865 115.468472 82.050804
C 115.468472 81.580744 115.281715 81.129873 114.949333 80.79749
C 114.61695 80.465107 114.166079 80.278351 113.696018 80.278351
C 113.225958 80.278351 112.775087 80.465107 112.442704 80.79749
C 112.110322 81.129873 111.923565 81.580744 111.923565 82.050804
C 111.923565 82.520865 112.110322 82.971736 112.442704 83.304119
C 112.775087 83.636501 113.225958 83.823258 113.696018 83.823258
z
" style="stroke:#000000;stroke-width:0.886227;"/>
    <path clip-path="url(#p816bb73fe8)" d="M 226.320854 108.508973
C 226.790914 108.508973 227.241786 108.322216 227.574168 107.989833
C 227.906551 107.65745 228.093308 107.206579 228.093308 106.736519
C 228.093308 106.266458 227.906551 105.815587 227.574168 105.483205
C 227.241786 105.150822 226.790914 104.964065 226.320854 104.964065
C 225.850794 104.964065 225.399923 105.150822 225.06754 105.483205
C 224.735157 105.815587 224.5484 106.266458 224.5484 106.736519
C 224.5484 107.206579 224.735157 107.65745 225.06754 107.989833
C 225.399923 108.322216 225.850794 108.508973 226.320854 108.508973
z
" style="stroke:#000000;stroke-width:0.886227;"/>
    <path clip-path="url(#p816bb73fe8)" d="M 387.65946 239.343258
C 388.12952 239.343258 388.580392 239.156501 388.912774 238.824119
C 389.245157 238.491736 389.431914 238.040865 389.431914 237.570804
C 389.431914 237.100744 389.245157 236.649873 388.912774 236.31749
C 388.580392 235.985107 388.12952 235.798351 387.65946 235.798351
C 387.1894 235.798351 386.738529 235.985107 386.406146 236.31749
C 386.073763 236.649873 385.887006 237.100744 385.887006 237.570804
C 385.887006 238.040865 386.073763 238.491736 386.406146 238.824119
C 386.738529 239.156501 387.1894 239.343258 387.65946 239.343258
z
" style="stroke:#000000;stroke-width:0.886227;"/>
    <path clip-path="url(#p816bb73fe8)" d="M 113.246012 78.886115
C 113.716072 78.886115 114.166943 78.699358 114.499326 78.366976
C 114.831709 78.034593 115.018465 77.583722 115.018465 77.113662
C 115.018465 76.643601 114.831709 76.19273 114.499326 75.860347
C 114.166943 75.527965 113.716072 75.341208 113.246012 75.341208
C 112.775951 75.341208 112.32508 75.527965 111.992697 75.860347
C 111.660315 76.19273 111.473558 76.643601 111.473558 77.113662
C 111.473558 77.583722 111.660315 78.034593 111.992697 78.366976
C 112.32508 78.699358 112.775951 78.886115 113.246012 78.886115
z
" style="stroke:#000000;stroke-width:0.886227;"/>
    <path clip-path="url(#p816bb73fe8)" d="M 387.65946 271.434687
C 388.12952 271.434687 388.580392 271.24793 388.912774 270.915547
C 389.245157 270.583164 389.431914 270.132293 389.431914 269.662233
C 389.431914 269.192173 389.245157 268.741302 388.912774 268.408919
C 388.580392 268.076536 388.12952 267.889779 387.65946 267.889779
C 387.1894 267.889779 386.738529 268.076536 386.406146 268.408919
C 386.073763 268.741302 385.887006 269.192173 385.887006 269.662233
C 385.887006 270.132293 386.073763 270.583164 386.406146 270.915547
C 386.738529 271.24793 387.1894 271.434687 387.65946 271.434687
z
" style="stroke:#000000;stroke-width:0.886227;"/>
    <path clip-path="url(#p816bb73fe8)" d="M 63.545171 44.326115
C 64.015231 44.326115 64.466102 44.139358 64.798485 43.806976
C 65.130868 43.474593 65.317625 43.023722 65.317625 42.553662
C 65.317625 42.083601 65.130868 41.63273 64.798485 41.300347
C 64.466102 40.967965 64.015231 40.781208 63.545171 40.781208
C 63.075111 40.781208 62.62424 40.967965 62.291857 41.300347
C 61.959474 41.63273 61.772717 42.083601 61.772717 42.553662
C 61.772717 43.023722 61.959474 43.474593 62.291857 43.806976
C 62.62424 44.139358 63.075111 44.326115 63.545171 44.326115
z
" style="stroke:#000000;stroke-width:0.886227;"/>
    <path clip-path="url(#p816bb73fe8)" d="M 387.65946 180.097544
C 388.12952 180.097544 388.580392 179.910787 388.912774 179.578404
C 389.245157 179.246021 389.431914 178.79515 389.431914 178.32509
C 389.431914 177.85503 389.245157 177.404159 388.912774 177.071776
C 388.580392 176.739393 388.12952 176.552636 387.65946 176.552636
C 387.1894 176.552636 386.738529 176.739393 386.406146 177.071776
C 386.073763 177.404159 385.887006 177.85503 385.887006 178.32509
C 385.887006 178.79515 386.073763 179.246021 386.406146 179.578404
C 386.738529 179.910787 387.1894 180.097544 387.65946 180.097544
z
" style="stroke:#000000;stroke-width:0.886227;"/>
    <path clip-path="url(#p816bb73fe8)" d="M 186.415175 103.57183
C 186.885235 103.57183 187.336106 103.385073 187.668489 103.05269
C 188.000872 102.720307 188.187629 102.269436 188.187629 101.799376
C 188.187629 101.329316 188.000872 100.878444 187.668489 100.546062
C 187.336106 100.213679 186.885235 100.026922 186.415175 100.026922
C 185.945115 100.026922 185.494244 100.213679 185.161861 100.546062
C 184.829478 100.878444 184.642721 101.329316 184.642721 101.799376
C 184.642721 102.269436 184.829478 102.720307 185.161861 103.05269
C 185.494244 103.385073 185.945115 103.57183 186.415175 103.57183
z
" style="stroke:#000000;stroke-width:0.886227;"/>
    <path clip-path="url(#p816bb73fe8)" d="M 387.65946 170.223258
C 388.12952 170.223258 388.580392 170.036501 388.912774 169.704119
C 389.245157 169.371736 389.431914 168.920865 389.431914 168.450804
C 389.431914 167.980744 389.245157 167.529873 388.912774 167.19749
C 388.580392 166.865107 388.12952 166.678351 387.65946 166.678351
C 387.1894 166.678351 386.738529 166.865107 386.406146 167.19749
C 386.073763 167.529873 385.887006 167.980744 385.887006 168.450804
C 385.887006 168.920865 386.073763 169.371736 386.406146 169.704119
C 386.738529 170.036501 387.1894 170.223258 387.65946 170.223258
z
" style="stroke:#000000;stroke-width:0.886227;"/>
    <path clip-path="url(#p816bb73fe8)" d="M 67.311262 59.137544
C 67.781322 59.137544 68.232193 58.950787 68.564576 58.618404
C 68.896959 58.286021 69.083716 57.83515 69.083716 57.36509
C 69.083716 56.89503 68.896959 56.444159 68.564576 56.111776
C 68.232193 55.779393 67.781322 55.592636 67.311262 55.592636
C 66.841202 55.592636 66.390331 55.779393 66.057948 56.111776
C 65.725565 56.444159 65.538808 56.89503 65.538808 57.36509
C 65.538808 57.83515 65.725565 58.286021 66.057948 58.618404
C 66.390331 58.950787 66.841202 59.137544 67.311262 59.137544
z
" style="stroke:#000000;stroke-width:0.886227;"/>
    <path clip-path="url(#p816bb73fe8)" d="M 114.223504 88.760401
C 114.693565 88.760401 115.144436 88.573644 115.476818 88.241261
C 115.809201 87.908879 115.995958 87.458008 115.995958 86.987947
C 115.995958 86.517887 115.809201 86.067016 115.476818 85.734633
C 115.144436 85.40225 114.693565 85.215493 114.223504 85.215493
C 113.753444 85.215493 113.302573 85.40225 112.97019 85.734633
C 112.637807 86.067016 112.45105 86.517887 112.45105 86.987947
C 112.45105 87.458008 112.637807 87.908879 112.97019 88.241261
C 113.302573 88.573644 113.753444 88.760401 114.223504 88.760401
z
" style="stroke:#000000;stroke-width:0.886227;"/>
    <path clip-path="url(#p816bb73fe8)" d="M 230.294965 113.446115
C 230.765025 113.446115 231.215896 113.259358 231.548279 112.926976
C 231.880662 112.594593 232.067418 112.143722 232.067418 111.673662
C 232.067418 111.203601 231.880662 110.75273 231.548279 110.420347
C 231.215896 110.087965 230.765025 109.901208 230.294965 109.901208
C 229.824904 109.901208 229.374033 110.087965 229.04165 110.420347
C 228.709268 110.75273 228.522511 111.203601 228.522511 111.673662
C 228.522511 112.143722 228.709268 112.594593 229.04165 112.926976
C 229.374033 113.259358 229.824904 113.446115 230.294965 113.446115
z
" style="stroke:#000000;stroke-width:0.886227;"/>
    <path clip-path="url(#p816bb73fe8)" d="M 387.65946 157.880401
C 388.12952 157.880401 388.580391 157.693644 388.912774 157.361261
C 389.245157 157.028879 389.431914 156.578008 389.431914 156.107947
C 389.431914 155.637887 389.245157 155.187016 388.912774 154.854633
C 388.580391 154.52225 388.12952 154.335493 387.65946 154.335493
C 387.1894 154.335493 386.738529 154.52225 386.406146 154.854633
C 386.073763 155.187016 385.887006 155.637887 385.887006 156.107947
C 385.887006 156.578008 386.073763 157.028879 386.406146 157.361261
C 386.738529 157.693644 387.1894 157.880401 387.65946 157.880401
z
" style="stroke:#000000;stroke-width:0.886227;"/>
    <path clip-path="url(#p816bb73fe8)" d="M 308.824146 128.257544
C 309.294207 128.257544 309.745078 128.070787 310.077461 127.738404
C 310.409843 127.406021 310.5966 126.95515 310.5966 126.48509
C 310.5966 126.01503 310.409843 125.564159 310.077461 125.231776
C 309.745078 124.899393 309.294207 124.712636 308.824146 124.712636
C 308.354086 124.712636 307.903215 124.899393 307.570832 125.231776
C 307.23845 125.564159 307.051693 126.01503 307.051693 126.48509
C 307.051693 126.95515 307.23845 127.406021 307.570832 127.738404
C 307.903215 128.070787 308.354086 128.257544 308.824146 128.257544
z
" style="stroke:#000000;stroke-width:0.886227;"/>
    <path clip-path="url(#p816bb73fe8)" d="M 387.65946 162.817544
C 388.12952 162.817544 388.580392 162.630787 388.912774 162.298404
C 389.245157 161.966021 389.431914 161.51515 389.431914 161.04509
C 389.431914 160.57503 389.245157 160.124159 388.912774 159.791776
C 388.580392 159.459393 388.12952 159.272636 387.65946 159.272636
C 387.1894 159.272636 386.738529 159.459393 386.406146 159.791776
C 386.073763 160.124159 385.887006 160.57503 385.887006 161.04509
C 385.887006 161.51515 386.073763 161.966021 386.406146 162.298404
C 386.738529 162.630787 387.1894 162.817544 387.65946 162.817544
z
" style="stroke:#000000;stroke-width:0.886227;"/>
    <path clip-path="url(#p816bb73fe8)" d="M 387.659264 150.474687
C 388.129324 150.474687 388.580195 150.28793 388.912578 149.955547
C 389.244961 149.623164 389.431717 149.172293 389.431717 148.702233
C 389.431717 148.232173 389.244961 147.781302 388.912578 147.448919
C 388.580195 147.116536 388.129324 146.929779 387.659264 146.929779
C 387.189203 146.929779 386.738332 147.116536 386.405949 147.448919
C 386.073567 147.781302 385.88681 148.232173 385.88681 148.702233
C 385.88681 149.172293 386.073567 149.623164 386.405949 149.955547
C 386.738332 150.28793 387.189203 150.474687 387.659264 150.474687
z
" style="stroke:#000000;stroke-width:0.886227;"/>
    <path clip-path="url(#p816bb73fe8)" d="M 142.541965 98.634687
C 143.012025 98.634687 143.462896 98.44793 143.795279 98.115547
C 144.127662 97.783164 144.314419 97.332293 144.314419 96.862233
C 144.314419 96.392173 144.127662 95.941302 143.795279 95.608919
C 143.462896 95.276536 143.012025 95.089779 142.541965 95.089779
C 142.071904 95.089779 141.621033 95.276536 141.288651 95.608919
C 140.956268 95.941302 140.769511 96.392173 140.769511 96.862233
C 140.769511 97.332293 140.956268 97.783164 141.288651 98.115547
C 141.621033 98.44793 142.071904 98.634687 142.541965 98.634687
z
" style="stroke:#000000;stroke-width:0.886227;"/>
    <path clip-path="url(#p816bb73fe8)" d="M 116.34662 93.697544
C 116.81668 93.697544 117.267552 93.510787 117.599934 93.178404
C 117.932317 92.846021 118.119074 92.39515 118.119074 91.92509
C 118.119074 91.45503 117.932317 91.004159 117.599934 90.671776
C 117.267552 90.339393 116.81668 90.152636 116.34662 90.152636
C 115.87656 90.152636 115.425689 90.339393 115.093306 90.671776
C 114.760923 91.004159 114.574166 91.45503 114.574166 91.92509
C 114.574166 92.39515 114.760923 92.846021 115.093306 93.178404
C 115.425689 93.510787 115.87656 93.697544 116.34662 93.697544
z
" style="stroke:#000000;stroke-width:0.886227;"/>
    <path clip-path="url(#p816bb73fe8)" d="M 387.65946 207.25183
C 388.12952 207.25183 388.580392 207.065073 388.912774 206.73269
C 389.245157 206.400307 389.431914 205.949436 389.431914 205.479376
C 389.431914 205.009316 389.245157 204.558444 388.912774 204.226062
C 388.580392 203.893679 388.12952 203.706922 387.65946 203.706922
C 387.1894 203.706922 386.738529 203.893679 386.406146 204.226062
C 386.073763 204.558444 385.887006 205.009316 385.887006 205.479376
C 385.887006 205.949436 386.073763 206.400307 386.406146 206.73269
C 386.738529 207.065073 387.1894 207.25183 387.65946 207.25183
z
" style="stroke:#000000;stroke-width:0.886227;"/>
    <path clip-path="url(#p816bb73fe8)" d="M 387.65946 276.37183
C 388.12952 276.37183 388.580392 276.185073 388.912774 275.85269
C 389.245157 275.520307 389.431914 275.069436 389.431914 274.599376
C 389.431914 274.129316 389.245157 273.678444 388.912774 273.346062
C 388.580392 273.013679 388.12952 272.826922 387.65946 272.826922
C 387.1894 272.826922 386.738529 273.013679 386.406146 273.346062
C 386.073763 273.678444 385.887006 274.129316 385.887006 274.599376
C 385.887006 275.069436 386.073763 275.520307 386.406146 275.85269
C 386.738529 276.185073 387.1894 276.37183 387.65946 276.37183
z
" style="stroke:#000000;stroke-width:0.886227;"/>
    <path clip-path="url(#p816bb73fe8)" d="M 387.65946 266.497544
C 388.12952 266.497544 388.580392 266.310787 388.912774 265.978404
C 389.245157 265.646021 389.431914 265.19515 389.431914 264.72509
C 389.431914 264.25503 389.245157 263.804159 388.912774 263.471776
C 388.580392 263.139393 388.12952 262.952636 387.65946 262.952636
C 387.1894 262.952636 386.738529 263.139393 386.406146 263.471776
C 386.073763 263.804159 385.887006 264.25503 385.887006 264.72509
C 385.887006 265.19515 386.073763 265.646021 386.406146 265.978404
C 386.738529 266.310787 387.1894 266.497544 387.65946 266.497544
z
" style="stroke:#000000;stroke-width:0.886227;"/>
    <path clip-path="url(#p816bb73fe8)" d="M 387.65946 239.343258
C 388.12952 239.343258 388.580392 239.156501 388.912774 238.824119
C 389.245157 238.491736 389.431914 238.040865 389.431914 237.570804
C 389.431914 237.100744 389.245157 236.649873 388.912774 236.31749
C 388.580392 235.985107 388.12952 235.798351 387.65946 235.798351
C 387.1894 235.798351 386.738529 235.985107 386.406146 236.31749
C 386.073763 236.649873 385.887006 237.100744 385.887006 237.570804
C 385.887006 238.040865 386.073763 238.491736 386.406146 238.824119
C 386.738529 239.156501 387.1894 239.343258 387.65946 239.343258
z
" style="stroke:#000000;stroke-width:0.886227;"/>
    <path clip-path="url(#p816bb73fe8)" d="M 387.65946 207.25183
C 388.12952 207.25183 388.580392 207.065073 388.912774 206.73269
C 389.245157 206.400307 389.431914 205.949436 389.431914 205.479376
C 389.431914 205.009316 389.245157 204.558444 388.912774 204.226062
C 388.580392 203.893679 388.12952 203.706922 387.65946 203.706922
C 387.1894 203.706922 386.738529 203.893679 386.406146 204.226062
C 386.073763 204.558444 385.887006 205.009316 385.887006 205.479376
C 385.887006 205.949436 386.073763 206.400307 386.406146 206.73269
C 386.738529 207.065073 387.1894 207.25183 387.65946 207.25183
z
" style="stroke:#000000;stroke-width:0.886227;"/>
    <path clip-path="url(#p816bb73fe8)" d="M 387.65946 207.25183
C 388.12952 207.25183 388.580392 207.065073 388.912774 206.73269
C 389.245157 206.400307 389.431914 205.949436 389.431914 205.479376
C 389.431914 205.009316 389.245157 204.558444 388.912774 204.226062
C 388.580392 203.893679 388.12952 203.706922 387.65946 203.706922
C 387.1894 203.706922 386.738529 203.893679 386.406146 204.226062
C 386.073763 204.558444 385.887006 205.009316 385.887006 205.479376
C 385.887006 205.949436 386.073763 206.400307 386.406146 206.73269
C 386.738529 207.065073 387.1894 207.25183 387.65946 207.25183
z
" style="stroke:#000000;stroke-width:0.886227;"/>
    <path clip-path="url(#p816bb73fe8)" d="M 387.65946 207.25183
C 388.12952 207.25183 388.580392 207.065073 388.912774 206.73269
C 389.245157 206.400307 389.431914 205.949436 389.431914 205.479376
C 389.431914 205.009316 389.245157 204.558444 388.912774 204.226062
C 388.580392 203.893679 388.12952 203.706922 387.65946 203.706922
C 387.1894 203.706922 386.738529 203.893679 386.406146 204.226062
C 386.073763 204.558444 385.887006 205.009316 385.887006 205.479376
C 385.887006 205.949436 386.073763 206.400307 386.406146 206.73269
C 386.738529 207.065073 387.1894 207.25183 387.65946 207.25183
z
" style="stroke:#000000;stroke-width:0.886227;"/>
    <path clip-path="url(#p816bb73fe8)" d="M 387.65946 170.223258
C 388.12952 170.223258 388.580392 170.036501 388.912774 169.704119
C 389.245157 169.371736 389.431914 168.920865 389.431914 168.450804
C 389.431914 167.980744 389.245157 167.529873 388.912774 167.19749
C 388.580392 166.865107 388.12952 166.678351 387.65946 166.678351
C 387.1894 166.678351 386.738529 166.865107 386.406146 167.19749
C 386.073763 167.529873 385.887006 167.980744 385.887006 168.450804
C 385.887006 168.920865 386.073763 169.371736 386.406146 169.704119
C 386.738529 170.036501 387.1894 170.223258 387.65946 170.223258
z
" style="stroke:#000000;stroke-width:0.886227;"/>
    <path clip-path="url(#p816bb73fe8)" d="M 387.65946 239.343258
C 388.12952 239.343258 388.580392 239.156501 388.912774 238.824119
C 389.245157 238.491736 389.431914 238.040865 389.431914 237.570804
C 389.431914 237.100744 389.245157 236.649873 388.912774 236.31749
C 388.580392 235.985107 388.12952 235.798351 387.65946 235.798351
C 387.1894 235.798351 386.738529 235.985107 386.406146 236.31749
C 386.073763 236.649873 385.887006 237.100744 385.887006 237.570804
C 385.887006 238.040865 386.073763 238.491736 386.406146 238.824119
C 386.738529 239.156501 387.1894 239.343258 387.65946 239.343258
z
" style="stroke:#000000;stroke-width:0.886227;"/>
    <path clip-path="url(#p816bb73fe8)" d="M 387.65946 256.623258
C 388.12952 256.623258 388.580392 256.436501 388.912774 256.104119
C 389.245157 255.771736 389.431914 255.320865 389.431914 254.850804
C 389.431914 254.380744 389.245157 253.929873 388.912774 253.59749
C 388.580392 253.265107 388.12952 253.078351 387.65946 253.078351
C 387.1894 253.078351 386.738529 253.265107 386.406146 253.59749
C 386.073763 253.929873 385.887006 254.380744 385.887006 254.850804
C 385.887006 255.320865 386.073763 255.771736 386.406146 256.104119
C 386.738529 256.436501 387.1894 256.623258 387.65946 256.623258
z
" style="stroke:#000000;stroke-width:0.886227;"/>
    <path clip-path="url(#p816bb73fe8)" d="M 387.659264 150.474687
C 388.129324 150.474687 388.580195 150.28793 388.912578 149.955547
C 389.244961 149.623164 389.431717 149.172293 389.431717 148.702233
C 389.431717 148.232173 389.244961 147.781302 388.912578 147.448919
C 388.580195 147.116536 388.129324 146.929779 387.659264 146.929779
C 387.189203 146.929779 386.738332 147.116536 386.405949 147.448919
C 386.073567 147.781302 385.88681 148.232173 385.88681 148.702233
C 385.88681 149.172293 386.073567 149.623164 386.405949 149.955547
C 386.738332 150.28793 387.189203 150.474687 387.659264 150.474687
z
" style="stroke:#000000;stroke-width:0.886227;"/>
    <path clip-path="url(#p816bb73fe8)" d="M 387.65946 207.25183
C 388.12952 207.25183 388.580392 207.065073 388.912774 206.73269
C 389.245157 206.400307 389.431914 205.949436 389.431914 205.479376
C 389.431914 205.009316 389.245157 204.558444 388.912774 204.226062
C 388.580392 203.893679 388.12952 203.706922 387.65946 203.706922
C 387.1894 203.706922 386.738529 203.893679 386.406146 204.226062
C 386.073763 204.558444 385.887006 205.009316 385.887006 205.479376
C 385.887006 205.949436 386.073763 206.400307 386.406146 206.73269
C 386.738529 207.065073 387.1894 207.25183 387.65946 207.25183
z
" style="stroke:#000000;stroke-width:0.886227;"/>
    <path clip-path="url(#p816bb73fe8)" d="M 387.65946 207.25183
C 388.12952 207.25183 388.580392 207.065073 388.912774 206.73269
C 389.245157 206.400307 389.431914 205.949436 389.431914 205.479376
C 389.431914 205.009316 389.245157 204.558444 388.912774 204.226062
C 388.580392 203.893679 388.12952 203.706922 387.65946 203.706922
C 387.1894 203.706922 386.738529 203.893679 386.406146 204.226062
C 386.073763 204.558444 385.887006 205.009316 385.887006 205.479376
C 385.887006 205.949436 386.073763 206.400307 386.406146 206.73269
C 386.738529 207.065073 387.1894 207.25183 387.65946 207.25183
z
" style="stroke:#000000;stroke-width:0.886227;"/>
    <path clip-path="url(#p816bb73fe8)" d="M 387.65946 180.097544
C 388.12952 180.097544 388.580392 179.910787 388.912774 179.578404
C 389.245157 179.246021 389.431914 178.79515 389.431914 178.32509
C 389.431914 177.85503 389.245157 177.404159 388.912774 177.071776
C 388.580392 176.739393 388.12952 176.552636 387.65946 176.552636
C 387.1894 176.552636 386.738529 176.739393 386.406146 177.071776
C 386.073763 177.404159 385.887006 177.85503 385.887006 178.32509
C 385.887006 178.79515 386.073763 179.246021 386.406146 179.578404
C 386.738529 179.910787 387.1894 180.097544 387.65946 180.097544
z
" style="stroke:#000000;stroke-width:0.886227;"/>
    <path clip-path="url(#p816bb73fe8)" d="M 387.65946 256.623258
C 388.12952 256.623258 388.580392 256.436501 388.912774 256.104119
C 389.245157 255.771736 389.431914 255.320865 389.431914 254.850804
C 389.431914 254.380744 389.245157 253.929873 388.912774 253.59749
C 388.580392 253.265107 388.12952 253.078351 387.65946 253.078351
C 387.1894 253.078351 386.738529 253.265107 386.406146 253.59749
C 386.073763 253.929873 385.887006 254.380744 385.887006 254.850804
C 385.887006 255.320865 386.073763 255.771736 386.406146 256.104119
C 386.738529 256.436501 387.1894 256.623258 387.65946 256.623258
z
" style="stroke:#000000;stroke-width:0.886227;"/>
    <path clip-path="url(#p816bb73fe8)" d="M 387.65946 239.343258
C 388.12952 239.343258 388.580392 239.156501 388.912774 238.824119
C 389.245157 238.491736 389.431914 238.040865 389.431914 237.570804
C 389.431914 237.100744 389.245157 236.649873 388.912774 236.31749
C 388.580392 235.985107 388.12952 235.798351 387.65946 235.798351
C 387.1894 235.798351 386.738529 235.985107 386.406146 236.31749
C 386.073763 236.649873 385.887006 237.100744 385.887006 237.570804
C 385.887006 238.040865 386.073763 238.491736 386.406146 238.824119
C 386.738529 239.156501 387.1894 239.343258 387.65946 239.343258
z
" style="stroke:#000000;stroke-width:0.886227;"/>
    <path clip-path="url(#p816bb73fe8)" d="M 387.65946 207.25183
C 388.12952 207.25183 388.580392 207.065073 388.912774 206.73269
C 389.245157 206.400307 389.431914 205.949436 389.431914 205.479376
C 389.431914 205.009316 389.245157 204.558444 388.912774 204.226062
C 388.580392 203.893679 388.12952 203.706922 387.65946 203.706922
C 387.1894 203.706922 386.738529 203.893679 386.406146 204.226062
C 386.073763 204.558444 385.887006 205.009316 385.887006 205.479376
C 385.887006 205.949436 386.073763 206.400307 386.406146 206.73269
C 386.738529 207.065073 387.1894 207.25183 387.65946 207.25183
z
" style="stroke:#000000;stroke-width:0.886227;"/>
    <path clip-path="url(#p816bb73fe8)" d="M 387.65946 207.25183
C 388.12952 207.25183 388.580392 207.065073 388.912774 206.73269
C 389.245157 206.400307 389.431914 205.949436 389.431914 205.479376
C 389.431914 205.009316 389.245157 204.558444 388.912774 204.226062
C 388.580392 203.893679 388.12952 203.706922 387.65946 203.706922
C 387.1894 203.706922 386.738529 203.893679 386.406146 204.226062
C 386.073763 204.558444 385.887006 205.009316 385.887006 205.479376
C 385.887006 205.949436 386.073763 206.400307 386.406146 206.73269
C 386.738529 207.065073 387.1894 207.25183 387.65946 207.25183
z
" style="stroke:#000000;stroke-width:0.886227;"/>
    <path clip-path="url(#p816bb73fe8)" d="M 387.652947 143.068973
C 388.123007 143.068973 388.573878 142.882216 388.906261 142.549833
C 389.238644 142.21745 389.425401 141.766579 389.425401 141.296519
C 389.425401 140.826458 389.238644 140.375587 388.906261 140.043205
C 388.573878 139.710822 388.123007 139.524065 387.652947 139.524065
C 387.182887 139.524065 386.732016 139.710822 386.399633 140.043205
C 386.06725 140.375587 385.880493 140.826458 385.880493 141.296519
C 385.880493 141.766579 386.06725 142.21745 386.399633 142.549833
C 386.732016 142.882216 387.182887 143.068973 387.652947 143.068973
z
" style="stroke:#000000;stroke-width:0.886227;"/>
    <path clip-path="url(#p816bb73fe8)" d="M 347.405344 133.194687
C 347.875404 133.194687 348.326275 133.00793 348.658658 132.675547
C 348.991041 132.343164 349.177798 131.892293 349.177798 131.422233
C 349.177798 130.952173 348.991041 130.501302 348.658658 130.168919
C 348.326275 129.836536 347.875404 129.649779 347.405344 129.649779
C 346.935284 129.649779 346.484413 129.836536 346.15203 130.168919
C 345.819647 130.501302 345.63289 130.952173 345.63289 131.422233
C 345.63289 131.892293 345.819647 132.343164 346.15203 132.675547
C 346.484413 133.00793 346.935284 133.194687 347.405344 133.194687
z
" style="stroke:#000000;stroke-width:0.886227;"/>
    <path clip-path="url(#p816bb73fe8)" d="M 64.144924 49.263258
C 64.614984 49.263258 65.065855 49.076501 65.398238 48.744119
C 65.730621 48.411736 65.917378 47.960865 65.917378 47.490804
C 65.917378 47.020744 65.730621 46.569873 65.398238 46.23749
C 65.065855 45.905107 64.614984 45.718351 64.144924 45.718351
C 63.674863 45.718351 63.223992 45.905107 62.89161 46.23749
C 62.559227 46.569873 62.37247 47.020744 62.37247 47.490804
C 62.37247 47.960865 62.559227 48.411736 62.89161 48.744119
C 63.223992 49.076501 63.674863 49.263258 64.144924 49.263258
z
" style="stroke:#000000;stroke-width:0.886227;"/>
    <path clip-path="url(#p816bb73fe8)" d="M 387.65946 207.25183
C 388.12952 207.25183 388.580392 207.065073 388.912774 206.73269
C 389.245157 206.400307 389.431914 205.949436 389.431914 205.479376
C 389.431914 205.009316 389.245157 204.558444 388.912774 204.226062
C 388.580392 203.893679 388.12952 203.706922 387.65946 203.706922
C 387.1894 203.706922 386.738529 203.893679 386.406146 204.226062
C 386.073763 204.558444 385.887006 205.009316 385.887006 205.479376
C 385.887006 205.949436 386.073763 206.400307 386.406146 206.73269
C 386.738529 207.065073 387.1894 207.25183 387.65946 207.25183
z
" style="stroke:#000000;stroke-width:0.886227;"/>
    <path clip-path="url(#p816bb73fe8)" d="M 387.65946 256.623258
C 388.12952 256.623258 388.580392 256.436501 388.912774 256.104119
C 389.245157 255.771736 389.431914 255.320865 389.431914 254.850804
C 389.431914 254.380744 389.245157 253.929873 388.912774 253.59749
C 388.580392 253.265107 388.12952 253.078351 387.65946 253.078351
C 387.1894 253.078351 386.738529 253.265107 386.406146 253.59749
C 386.073763 253.929873 385.887006 254.380744 385.887006 254.850804
C 385.887006 255.320865 386.073763 255.771736 386.406146 256.104119
C 386.738529 256.436501 387.1894 256.623258 387.65946 256.623258
z
" style="stroke:#000000;stroke-width:0.886227;"/>
   </g>
   <g id="PathCollection_2">
    <path clip-path="url(#p816bb73fe8)" d="M 63.004917 39.388973
C 63.474977 39.388973 63.925848 39.202216 64.258231 38.869833
C 64.590614 38.53745 64.77737 38.086579 64.77737 37.616519
C 64.77737 37.146458 64.590614 36.695587 64.258231 36.363205
C 63.925848 36.030822 63.474977 35.844065 63.004917 35.844065
C 62.534856 35.844065 62.083985 36.030822 61.751602 36.363205
C 61.41922 36.695587 61.232463 37.146458 61.232463 37.616519
C 61.232463 38.086579 61.41922 38.53745 61.751602 38.869833
C 62.083985 39.202216 62.534856 39.388973 63.004917 39.388973
z
" style="fill:#ff0000;stroke:#ff0000;stroke-width:0.886227;"/>
    <path clip-path="url(#p816bb73fe8)" d="M 63.004915 34.45183
C 63.474975 34.45183 63.925846 34.265073 64.258229 33.93269
C 64.590612 33.600307 64.777369 33.149436 64.777369 32.679376
C 64.777369 32.209316 64.590612 31.758444 64.258229 31.426062
C 63.925846 31.093679 63.474975 30.906922 63.004915 30.906922
C 62.534855 30.906922 62.083983 31.093679 61.751601 31.426062
C 61.419218 31.758444 61.232461 32.209316 61.232461 32.679376
C 61.232461 33.149436 61.419218 33.600307 61.751601 33.93269
C 62.083983 34.265073 62.534855 34.45183 63.004915 34.45183
z
" style="fill:#ff0000;stroke:#ff0000;stroke-width:0.886227;"/>
    <path clip-path="url(#p816bb73fe8)" d="M 65.789765 54.200401
C 66.259825 54.200401 66.710696 54.013644 67.043079 53.681261
C 67.375462 53.348879 67.562219 52.898008 67.562219 52.427947
C 67.562219 51.957887 67.375462 51.507016 67.043079 51.174633
C 66.710696 50.84225 66.259825 50.655493 65.789765 50.655493
C 65.319704 50.655493 64.868833 50.84225 64.536451 51.174633
C 64.204068 51.507016 64.017311 51.957887 64.017311 52.427947
C 64.017311 52.898008 64.204068 53.348879 64.536451 53.681261
C 64.868833 54.013644 65.319704 54.200401 65.789765 54.200401
z
" style="fill:#ff0000;stroke:#ff0000;stroke-width:0.886227;"/>
    <path clip-path="url(#p816bb73fe8)" d="M 63.545171 44.326115
C 64.015231 44.326115 64.466102 44.139358 64.798485 43.806976
C 65.130868 43.474593 65.317625 43.023722 65.317625 42.553662
C 65.317625 42.083601 65.130868 41.63273 64.798485 41.300347
C 64.466102 40.967965 64.015231 40.781208 63.545171 40.781208
C 63.075111 40.781208 62.62424 40.967965 62.291857 41.300347
C 61.959474 41.63273 61.772717 42.083601 61.772717 42.553662
C 61.772717 43.023722 61.959474 43.474593 62.291857 43.806976
C 62.62424 44.139358 63.075111 44.326115 63.545171 44.326115
z
" style="fill:#ff0000;stroke:#ff0000;stroke-width:0.886227;"/>
    <path clip-path="url(#p816bb73fe8)" d="M 64.144924 49.263258
C 64.614984 49.263258 65.065855 49.076501 65.398238 48.744119
C 65.730621 48.411736 65.917378 47.960865 65.917378 47.490804
C 65.917378 47.020744 65.730621 46.569873 65.398238 46.23749
C 65.065855 45.905107 64.614984 45.718351 64.144924 45.718351
C 63.674863 45.718351 63.223992 45.905107 62.89161 46.23749
C 62.559227 46.569873 62.37247 47.020744 62.37247 47.490804
C 62.37247 47.960865 62.559227 48.411736 62.89161 48.744119
C 63.223992 49.076501 63.674863 49.263258 64.144924 49.263258
z
" style="fill:#ff0000;stroke:#ff0000;stroke-width:0.886227;"/>
   </g>
   <g id="text_13">
    <g clip-path="url(#p816bb73fe8)">
     <!-- HALLMARK_KRAS_SIGNALING_DN -->
     <defs>
      <path d="M 34.1875 63.1875
L 20.796875 26.90625
L 47.609375 26.90625
z
M 28.609375 72.90625
L 39.796875 72.90625
L 67.578125 0
L 57.328125 0
L 50.6875 18.703125
L 17.828125 18.703125
L 11.1875 0
L 0.78125 0
z
" id="DejaVuSans-65"/>
      <path d="M 9.8125 72.90625
L 19.671875 72.90625
L 19.671875 8.296875
L 55.171875 8.296875
L 55.171875 0
L 9.8125 0
z
" id="DejaVuSans-76"/>
      <path d="M 44.390625 34.1875
Q 47.5625 33.109375 50.5625 29.59375
Q 53.5625 26.078125 56.59375 19.921875
L 66.609375 0
L 56 0
L 46.6875 18.703125
Q 43.0625 26.03125 39.671875 28.421875
Q 36.28125 30.8125 30.421875 30.8125
L 19.671875 30.8125
L 19.671875 0
L 9.8125 0
L 9.8125 72.90625
L 32.078125 72.90625
Q 44.578125 72.90625 50.734375 67.671875
Q 56.890625 62.453125 56.890625 51.90625
Q 56.890625 45.015625 53.6875 40.46875
Q 50.484375 35.9375 44.390625 34.1875
z
M 19.671875 64.796875
L 19.671875 38.921875
L 32.078125 38.921875
Q 39.203125 38.921875 42.84375 42.21875
Q 46.484375 45.515625 46.484375 51.90625
Q 46.484375 58.296875 42.84375 61.546875
Q 39.203125 64.796875 32.078125 64.796875
z
" id="DejaVuSans-82"/>
      <path d="M 9.8125 72.90625
L 19.671875 72.90625
L 19.671875 42.09375
L 52.390625 72.90625
L 65.09375 72.90625
L 28.90625 38.921875
L 67.671875 0
L 54.6875 0
L 19.671875 35.109375
L 19.671875 0
L 9.8125 0
z
" id="DejaVuSans-75"/>
      <path d="M 50.984375 -16.609375
L 50.984375 -23.578125
L -0.984375 -23.578125
L -0.984375 -16.609375
z
" id="DejaVuSans-95"/>
      <path d="M 53.515625 70.515625
L 53.515625 60.890625
Q 47.90625 63.578125 42.921875 64.890625
Q 37.9375 66.21875 33.296875 66.21875
Q 25.25 66.21875 20.875 63.09375
Q 16.5 59.96875 16.5 54.203125
Q 16.5 49.359375 19.40625 46.890625
Q 22.3125 44.4375 30.421875 42.921875
L 36.375 41.703125
Q 47.40625 39.59375 52.65625 34.296875
Q 57.90625 29 57.90625 20.125
Q 57.90625 9.515625 50.796875 4.046875
Q 43.703125 -1.421875 29.984375 -1.421875
Q 24.8125 -1.421875 18.96875 -0.25
Q 13.140625 0.921875 6.890625 3.21875
L 6.890625 13.375
Q 12.890625 10.015625 18.65625 8.296875
Q 24.421875 6.59375 29.984375 6.59375
Q 38.421875 6.59375 43.015625 9.90625
Q 47.609375 13.234375 47.609375 19.390625
Q 47.609375 24.75 44.3125 27.78125
Q 41.015625 30.8125 33.5 32.328125
L 27.484375 33.5
Q 16.453125 35.6875 11.515625 40.375
Q 6.59375 45.0625 6.59375 53.421875
Q 6.59375 63.09375 13.40625 68.65625
Q 20.21875 74.21875 32.171875 74.21875
Q 37.3125 74.21875 42.625 73.28125
Q 47.953125 72.359375 53.515625 70.515625
z
" id="DejaVuSans-83"/>
      <path d="M 9.8125 72.90625
L 19.671875 72.90625
L 19.671875 0
L 9.8125 0
z
" id="DejaVuSans-73"/>
      <path d="M 9.8125 72.90625
L 23.09375 72.90625
L 55.421875 11.921875
L 55.421875 72.90625
L 64.984375 72.90625
L 64.984375 0
L 51.703125 0
L 19.390625 60.984375
L 19.390625 0
L 9.8125 0
z
" id="DejaVuSans-78"/>
      <path d="M 19.671875 64.796875
L 19.671875 8.109375
L 31.59375 8.109375
Q 46.6875 8.109375 53.6875 14.9375
Q 60.6875 21.78125 60.6875 36.53125
Q 60.6875 51.171875 53.6875 57.984375
Q 46.6875 64.796875 31.59375 64.796875
z
M 9.8125 72.90625
L 30.078125 72.90625
Q 51.265625 72.90625 61.171875 64.09375
Q 71.09375 55.28125 71.09375 36.53125
Q 71.09375 17.671875 61.125 8.828125
Q 51.171875 0 30.078125 0
L 9.8125 0
z
" id="DejaVuSans-68"/>
     </defs>
     <g transform="translate(63.004917 41.327456)scale(0.05 -0.05)">
      <use xlink:href="#DejaVuSans-72"/>
      <use x="75.195312" xlink:href="#DejaVuSans-65"/>
      <use x="143.603516" xlink:href="#DejaVuSans-76"/>
      <use x="199.316406" xlink:href="#DejaVuSans-76"/>
      <use x="255.029297" xlink:href="#DejaVuSans-77"/>
      <use x="341.308594" xlink:href="#DejaVuSans-65"/>
      <use x="409.716797" xlink:href="#DejaVuSans-82"/>
      <use x="479.199219" xlink:href="#DejaVuSans-75"/>
      <use x="544.775391" xlink:href="#DejaVuSans-95"/>
      <use x="594.775391" xlink:href="#DejaVuSans-75"/>
      <use x="660.351562" xlink:href="#DejaVuSans-82"/>
      <use x="729.771484" xlink:href="#DejaVuSans-65"/>
      <use x="798.179688" xlink:href="#DejaVuSans-83"/>
      <use x="861.65625" xlink:href="#DejaVuSans-95"/>
      <use x="911.65625" xlink:href="#DejaVuSans-83"/>
      <use x="975.132812" xlink:href="#DejaVuSans-73"/>
      <use x="1004.625" xlink:href="#DejaVuSans-71"/>
      <use x="1082.115234" xlink:href="#DejaVuSans-78"/>
      <use x="1156.919922" xlink:href="#DejaVuSans-65"/>
      <use x="1225.328125" xlink:href="#DejaVuSans-76"/>
      <use x="1281.041016" xlink:href="#DejaVuSans-73"/>
      <use x="1310.533203" xlink:href="#DejaVuSans-78"/>
      <use x="1385.337891" xlink:href="#DejaVuSans-71"/>
      <use x="1462.828125" xlink:href="#DejaVuSans-95"/>
      <use x="1512.828125" xlink:href="#DejaVuSans-68"/>
      <use x="1589.830078" xlink:href="#DejaVuSans-78"/>
     </g>
    </g>
   </g>
   <g id="text_14">
    <g clip-path="url(#p816bb73fe8)">
     <!-- HALLMARK_MYOGENESIS -->
     <defs>
      <path d="M -0.203125 72.90625
L 10.40625 72.90625
L 30.609375 42.921875
L 50.6875 72.90625
L 61.28125 72.90625
L 35.5 34.71875
L 35.5 0
L 25.59375 0
L 25.59375 34.71875
z
" id="DejaVuSans-89"/>
      <path d="M 39.40625 66.21875
Q 28.65625 66.21875 22.328125 58.203125
Q 16.015625 50.203125 16.015625 36.375
Q 16.015625 22.609375 22.328125 14.59375
Q 28.65625 6.59375 39.40625 6.59375
Q 50.140625 6.59375 56.421875 14.59375
Q 62.703125 22.609375 62.703125 36.375
Q 62.703125 50.203125 56.421875 58.203125
Q 50.140625 66.21875 39.40625 66.21875
z
M 39.40625 74.21875
Q 54.734375 74.21875 63.90625 63.9375
Q 73.09375 53.65625 73.09375 36.375
Q 73.09375 19.140625 63.90625 8.859375
Q 54.734375 -1.421875 39.40625 -1.421875
Q 24.03125 -1.421875 14.8125 8.828125
Q 5.609375 19.09375 5.609375 36.375
Q 5.609375 53.65625 14.8125 63.9375
Q 24.03125 74.21875 39.40625 74.21875
z
" id="DejaVuSans-79"/>
      <path d="M 9.8125 72.90625
L 55.90625 72.90625
L 55.90625 64.59375
L 19.671875 64.59375
L 19.671875 43.015625
L 54.390625 43.015625
L 54.390625 34.71875
L 19.671875 34.71875
L 19.671875 8.296875
L 56.78125 8.296875
L 56.78125 0
L 9.8125 0
z
" id="DejaVuSans-69"/>
     </defs>
     <g transform="translate(63.004915 36.390313)scale(0.05 -0.05)">
      <use xlink:href="#DejaVuSans-72"/>
      <use x="75.195312" xlink:href="#DejaVuSans-65"/>
      <use x="143.603516" xlink:href="#DejaVuSans-76"/>
      <use x="199.316406" xlink:href="#DejaVuSans-76"/>
      <use x="255.029297" xlink:href="#DejaVuSans-77"/>
      <use x="341.308594" xlink:href="#DejaVuSans-65"/>
      <use x="409.716797" xlink:href="#DejaVuSans-82"/>
      <use x="479.199219" xlink:href="#DejaVuSans-75"/>
      <use x="544.775391" xlink:href="#DejaVuSans-95"/>
      <use x="594.775391" xlink:href="#DejaVuSans-77"/>
      <use x="681.054688" xlink:href="#DejaVuSans-89"/>
      <use x="742.060547" xlink:href="#DejaVuSans-79"/>
      <use x="820.771484" xlink:href="#DejaVuSans-71"/>
      <use x="898.261719" xlink:href="#DejaVuSans-69"/>
      <use x="961.445312" xlink:href="#DejaVuSans-78"/>
      <use x="1036.25" xlink:href="#DejaVuSans-69"/>
      <use x="1099.433594" xlink:href="#DejaVuSans-83"/>
      <use x="1162.910156" xlink:href="#DejaVuSans-73"/>
      <use x="1192.402344" xlink:href="#DejaVuSans-83"/>
     </g>
    </g>
   </g>
   <g id="text_15">
    <g clip-path="url(#p816bb73fe8)">
     <!-- HALLMARK_KRAS_SIGNALING_UP -->
     <defs>
      <path d="M 8.6875 72.90625
L 18.609375 72.90625
L 18.609375 28.609375
Q 18.609375 16.890625 22.84375 11.734375
Q 27.09375 6.59375 36.625 6.59375
Q 46.09375 6.59375 50.34375 11.734375
Q 54.59375 16.890625 54.59375 28.609375
L 54.59375 72.90625
L 64.5 72.90625
L 64.5 27.390625
Q 64.5 13.140625 57.4375 5.859375
Q 50.390625 -1.421875 36.625 -1.421875
Q 22.796875 -1.421875 15.734375 5.859375
Q 8.6875 13.140625 8.6875 27.390625
z
" id="DejaVuSans-85"/>
      <path d="M 19.671875 64.796875
L 19.671875 37.40625
L 32.078125 37.40625
Q 38.96875 37.40625 42.71875 40.96875
Q 46.484375 44.53125 46.484375 51.125
Q 46.484375 57.671875 42.71875 61.234375
Q 38.96875 64.796875 32.078125 64.796875
z
M 9.8125 72.90625
L 32.078125 72.90625
Q 44.34375 72.90625 50.609375 67.359375
Q 56.890625 61.8125 56.890625 51.125
Q 56.890625 40.328125 50.609375 34.8125
Q 44.34375 29.296875 32.078125 29.296875
L 19.671875 29.296875
L 19.671875 0
L 9.8125 0
z
" id="DejaVuSans-80"/>
     </defs>
     <g transform="translate(65.789765 56.138885)scale(0.05 -0.05)">
      <use xlink:href="#DejaVuSans-72"/>
      <use x="75.195312" xlink:href="#DejaVuSans-65"/>
      <use x="143.603516" xlink:href="#DejaVuSans-76"/>
      <use x="199.316406" xlink:href="#DejaVuSans-76"/>
      <use x="255.029297" xlink:href="#DejaVuSans-77"/>
      <use x="341.308594" xlink:href="#DejaVuSans-65"/>
      <use x="409.716797" xlink:href="#DejaVuSans-82"/>
      <use x="479.199219" xlink:href="#DejaVuSans-75"/>
      <use x="544.775391" xlink:href="#DejaVuSans-95"/>
      <use x="594.775391" xlink:href="#DejaVuSans-75"/>
      <use x="660.351562" xlink:href="#DejaVuSans-82"/>
      <use x="729.771484" xlink:href="#DejaVuSans-65"/>
      <use x="798.179688" xlink:href="#DejaVuSans-83"/>
      <use x="861.65625" xlink:href="#DejaVuSans-95"/>
      <use x="911.65625" xlink:href="#DejaVuSans-83"/>
      <use x="975.132812" xlink:href="#DejaVuSans-73"/>
      <use x="1004.625" xlink:href="#DejaVuSans-71"/>
      <use x="1082.115234" xlink:href="#DejaVuSans-78"/>
      <use x="1156.919922" xlink:href="#DejaVuSans-65"/>
      <use x="1225.328125" xlink:href="#DejaVuSans-76"/>
      <use x="1281.041016" xlink:href="#DejaVuSans-73"/>
      <use x="1310.533203" xlink:href="#DejaVuSans-78"/>
      <use x="1385.337891" xlink:href="#DejaVuSans-71"/>
      <use x="1462.828125" xlink:href="#DejaVuSans-95"/>
      <use x="1512.828125" xlink:href="#DejaVuSans-85"/>
      <use x="1586.021484" xlink:href="#DejaVuSans-80"/>
     </g>
    </g>
   </g>
   <g id="text_16">
    <g clip-path="url(#p816bb73fe8)">
     <!-- HALLMARK_COAGULATION -->
     <defs>
      <path d="M 64.40625 67.28125
L 64.40625 56.890625
Q 59.421875 61.53125 53.78125 63.8125
Q 48.140625 66.109375 41.796875 66.109375
Q 29.296875 66.109375 22.65625 58.46875
Q 16.015625 50.828125 16.015625 36.375
Q 16.015625 21.96875 22.65625 14.328125
Q 29.296875 6.6875 41.796875 6.6875
Q 48.140625 6.6875 53.78125 8.984375
Q 59.421875 11.28125 64.40625 15.921875
L 64.40625 5.609375
Q 59.234375 2.09375 53.4375 0.328125
Q 47.65625 -1.421875 41.21875 -1.421875
Q 24.65625 -1.421875 15.125 8.703125
Q 5.609375 18.84375 5.609375 36.375
Q 5.609375 53.953125 15.125 64.078125
Q 24.65625 74.21875 41.21875 74.21875
Q 47.75 74.21875 53.53125 72.484375
Q 59.328125 70.75 64.40625 67.28125
z
" id="DejaVuSans-67"/>
      <path d="M -0.296875 72.90625
L 61.375 72.90625
L 61.375 64.59375
L 35.5 64.59375
L 35.5 0
L 25.59375 0
L 25.59375 64.59375
L -0.296875 64.59375
z
" id="DejaVuSans-84"/>
     </defs>
     <g transform="translate(63.545171 46.264599)scale(0.05 -0.05)">
      <use xlink:href="#DejaVuSans-72"/>
      <use x="75.195312" xlink:href="#DejaVuSans-65"/>
      <use x="143.603516" xlink:href="#DejaVuSans-76"/>
      <use x="199.316406" xlink:href="#DejaVuSans-76"/>
      <use x="255.029297" xlink:href="#DejaVuSans-77"/>
      <use x="341.308594" xlink:href="#DejaVuSans-65"/>
      <use x="409.716797" xlink:href="#DejaVuSans-82"/>
      <use x="479.199219" xlink:href="#DejaVuSans-75"/>
      <use x="544.775391" xlink:href="#DejaVuSans-95"/>
      <use x="594.775391" xlink:href="#DejaVuSans-67"/>
      <use x="664.599609" xlink:href="#DejaVuSans-79"/>
      <use x="743.294922" xlink:href="#DejaVuSans-65"/>
      <use x="811.6875" xlink:href="#DejaVuSans-71"/>
      <use x="889.177734" xlink:href="#DejaVuSans-85"/>
      <use x="962.371094" xlink:href="#DejaVuSans-76"/>
      <use x="1018.115234" xlink:href="#DejaVuSans-65"/>
      <use x="1086.414062" xlink:href="#DejaVuSans-84"/>
      <use x="1147.498047" xlink:href="#DejaVuSans-73"/>
      <use x="1176.990234" xlink:href="#DejaVuSans-79"/>
      <use x="1255.701172" xlink:href="#DejaVuSans-78"/>
     </g>
    </g>
   </g>
   <g id="text_17">
    <g clip-path="url(#p816bb73fe8)">
     <!-- HALLMARK_ALLOGRAFT_REJECTION -->
     <defs>
      <path d="M 9.8125 72.90625
L 51.703125 72.90625
L 51.703125 64.59375
L 19.671875 64.59375
L 19.671875 43.109375
L 48.578125 43.109375
L 48.578125 34.8125
L 19.671875 34.8125
L 19.671875 0
L 9.8125 0
z
" id="DejaVuSans-70"/>
      <path d="M 9.8125 72.90625
L 19.671875 72.90625
L 19.671875 5.078125
Q 19.671875 -8.109375 14.671875 -14.0625
Q 9.671875 -20.015625 -1.421875 -20.015625
L -5.171875 -20.015625
L -5.171875 -11.71875
L -2.09375 -11.71875
Q 4.4375 -11.71875 7.125 -8.046875
Q 9.8125 -4.390625 9.8125 5.078125
z
" id="DejaVuSans-74"/>
     </defs>
     <g transform="translate(64.144924 51.201742)scale(0.05 -0.05)">
      <use xlink:href="#DejaVuSans-72"/>
      <use x="75.195312" xlink:href="#DejaVuSans-65"/>
      <use x="143.603516" xlink:href="#DejaVuSans-76"/>
      <use x="199.316406" xlink:href="#DejaVuSans-76"/>
      <use x="255.029297" xlink:href="#DejaVuSans-77"/>
      <use x="341.308594" xlink:href="#DejaVuSans-65"/>
      <use x="409.716797" xlink:href="#DejaVuSans-82"/>
      <use x="479.199219" xlink:href="#DejaVuSans-75"/>
      <use x="544.775391" xlink:href="#DejaVuSans-95"/>
      <use x="594.775391" xlink:href="#DejaVuSans-65"/>
      <use x="663.183594" xlink:href="#DejaVuSans-76"/>
      <use x="718.896484" xlink:href="#DejaVuSans-76"/>
      <use x="774.5625" xlink:href="#DejaVuSans-79"/>
      <use x="853.273438" xlink:href="#DejaVuSans-71"/>
      <use x="930.763672" xlink:href="#DejaVuSans-82"/>
      <use x="1000.183594" xlink:href="#DejaVuSans-65"/>
      <use x="1068.591797" xlink:href="#DejaVuSans-70"/>
      <use x="1126.095703" xlink:href="#DejaVuSans-84"/>
      <use x="1187.179688" xlink:href="#DejaVuSans-95"/>
      <use x="1237.179688" xlink:href="#DejaVuSans-82"/>
      <use x="1306.662109" xlink:href="#DejaVuSans-69"/>
      <use x="1369.845703" xlink:href="#DejaVuSans-74"/>
      <use x="1399.337891" xlink:href="#DejaVuSans-69"/>
      <use x="1462.521484" xlink:href="#DejaVuSans-67"/>
      <use x="1532.345703" xlink:href="#DejaVuSans-84"/>
      <use x="1593.429688" xlink:href="#DejaVuSans-73"/>
      <use x="1622.921875" xlink:href="#DejaVuSans-79"/>
      <use x="1701.632812" xlink:href="#DejaVuSans-78"/>
     </g>
    </g>
   </g>
  </g>
  <g id="text_18">
   <!-- ORA pathway statistics vs ranking -->
   <defs>
    <path d="M 54.890625 33.015625
L 54.890625 0
L 45.90625 0
L 45.90625 32.71875
Q 45.90625 40.484375 42.875 44.328125
Q 39.84375 48.1875 33.796875 48.1875
Q 26.515625 48.1875 22.3125 43.546875
Q 18.109375 38.921875 18.109375 30.90625
L 18.109375 0
L 9.078125 0
L 9.078125 75.984375
L 18.109375 75.984375
L 18.109375 46.1875
Q 21.34375 51.125 25.703125 53.5625
Q 30.078125 56 35.796875 56
Q 45.21875 56 50.046875 50.171875
Q 54.890625 44.34375 54.890625 33.015625
z
" id="DejaVuSans-104"/>
    <path d="M 4.203125 54.6875
L 13.1875 54.6875
L 24.421875 12.015625
L 35.59375 54.6875
L 46.1875 54.6875
L 57.421875 12.015625
L 68.609375 54.6875
L 77.59375 54.6875
L 63.28125 0
L 52.6875 0
L 40.921875 44.828125
L 29.109375 0
L 18.5 0
z
" id="DejaVuSans-119"/>
    <path d="M 32.171875 -5.078125
Q 28.375 -14.84375 24.75 -17.8125
Q 21.140625 -20.796875 15.09375 -20.796875
L 7.90625 -20.796875
L 7.90625 -13.28125
L 13.1875 -13.28125
Q 16.890625 -13.28125 18.9375 -11.515625
Q 21 -9.765625 23.484375 -3.21875
L 25.09375 0.875
L 2.984375 54.6875
L 12.5 54.6875
L 29.59375 11.921875
L 46.6875 54.6875
L 56.203125 54.6875
z
" id="DejaVuSans-121"/>
   </defs>
   <g transform="translate(91.428828 11.397656)scale(0.15 -0.15)">
    <use xlink:href="#DejaVuSans-79"/>
    <use x="78.710938" xlink:href="#DejaVuSans-82"/>
    <use x="148.130859" xlink:href="#DejaVuSans-65"/>
    <use x="216.539062" xlink:href="#DejaVuSans-32"/>
    <use x="248.326172" xlink:href="#DejaVuSans-112"/>
    <use x="311.802734" xlink:href="#DejaVuSans-97"/>
    <use x="373.082031" xlink:href="#DejaVuSans-116"/>
    <use x="412.291016" xlink:href="#DejaVuSans-104"/>
    <use x="475.669922" xlink:href="#DejaVuSans-119"/>
    <use x="557.457031" xlink:href="#DejaVuSans-97"/>
    <use x="618.736328" xlink:href="#DejaVuSans-121"/>
    <use x="677.916016" xlink:href="#DejaVuSans-32"/>
    <use x="709.703125" xlink:href="#DejaVuSans-115"/>
    <use x="761.802734" xlink:href="#DejaVuSans-116"/>
    <use x="801.011719" xlink:href="#DejaVuSans-97"/>
    <use x="862.291016" xlink:href="#DejaVuSans-116"/>
    <use x="901.5" xlink:href="#DejaVuSans-105"/>
    <use x="929.283203" xlink:href="#DejaVuSans-115"/>
    <use x="981.382812" xlink:href="#DejaVuSans-116"/>
    <use x="1020.591797" xlink:href="#DejaVuSans-105"/>
    <use x="1048.375" xlink:href="#DejaVuSans-99"/>
    <use x="1103.355469" xlink:href="#DejaVuSans-115"/>
    <use x="1155.455078" xlink:href="#DejaVuSans-32"/>
    <use x="1187.242188" xlink:href="#DejaVuSans-118"/>
    <use x="1246.421875" xlink:href="#DejaVuSans-115"/>
    <use x="1298.521484" xlink:href="#DejaVuSans-32"/>
    <use x="1330.308594" xlink:href="#DejaVuSans-114"/>
    <use x="1371.421875" xlink:href="#DejaVuSans-97"/>
    <use x="1432.701172" xlink:href="#DejaVuSans-110"/>
    <use x="1496.080078" xlink:href="#DejaVuSans-107"/>
    <use x="1553.990234" xlink:href="#DejaVuSans-105"/>
    <use x="1581.773438" xlink:href="#DejaVuSans-110"/>
    <use x="1645.152344" xlink:href="#DejaVuSans-103"/>
   </g>
  </g>
 </g>
 <defs>
  <clipPath id="p816bb73fe8">
   <rect height="266.112" width="357.12" x="46.772188" y="20.583376"/>
  </clipPath>
 </defs>
</svg>
