<?xml version="1.0" encoding="utf-8" standalone="no"?>
<!DOCTYPE svg PUBLIC "-//W3C//DTD SVG 1.1//EN"
  "http://www.w3.org/Graphics/SVG/1.1/DTD/svg11.dtd">
<!-- Created with matplotlib (https://matplotlib.org/) -->
<svg height="332.432516pt" version="1.1" viewBox="0 0 406.642188 332.432516" width="406.642188pt" xmlns="http://www.w3.org/2000/svg" xmlns:xlink="http://www.w3.org/1999/xlink">
 <defs>
  <style type="text/css">
*{stroke-linecap:butt;stroke-linejoin:round;}
  </style>
 </defs>
 <g id="figure_1">
  <g id="patch_1">
   <path d="M 0 332.432516
L 406.642188 332.432516
L 406.642188 0
L 0 0
z
" style="fill:#ffffff;stroke:#ffffff;stroke-linejoin:miter;"/>
  </g>
  <g id="axes_1">
   <g id="patch_2">
    <path d="M 46.772188 296.534391
L 403.892188 296.534391
L 403.892188 30.422391
L 46.772188 30.422391
z
" style="fill:none;"/>
   </g>
   <g id="matplotlib.axis_1">
    <g id="xtick_1">
     <g id="line2d_1">
      <path clip-path="url(#p7ad27b2d96)" d="M 63.004915 296.534391
L 63.004915 30.422391
" style="fill:none;stroke:#e5e5e5;stroke-width:0.8;"/>
     </g>
     <g id="line2d_2">
      <path d="M 63.004915 296.534391
" style="fill:none;stroke:#000000;stroke-width:1.5;"/>
      <defs>
       <path d="M 0 0
L 0 2.75
" id="m8d0d6c033e" style="stroke:#000000;"/>
      </defs>
      <g>
       <use style="stroke:#000000;" x="63.004915" xlink:href="#m8d0d6c033e" y="296.534391"/>
      </g>
     </g>
     <g id="text_1">
      <!-- 0 -->
      <defs>
       <path d="M 31.78125 66.40625
Q 24.171875 66.40625 20.328125 58.90625
Q 16.5 51.421875 16.5 36.375
Q 16.5 21.390625 20.328125 13.890625
Q 24.171875 6.390625 31.78125 6.390625
Q 39.453125 6.390625 43.28125 13.890625
Q 47.125 21.390625 47.125 36.375
Q 47.125 51.421875 43.28125 58.90625
Q 39.453125 66.40625 31.78125 66.40625
z
M 31.78125 74.21875
Q 44.046875 74.21875 50.515625 64.515625
Q 56.984375 54.828125 56.984375 36.375
Q 56.984375 17.96875 50.515625 8.265625
Q 44.046875 -1.421875 31.78125 -1.421875
Q 19.53125 -1.421875 13.0625 8.265625
Q 6.59375 17.96875 6.59375 36.375
Q 6.59375 54.828125 13.0625 64.515625
Q 19.53125 74.21875 31.78125 74.21875
z
" id="DejaVuSans-48"/>
      </defs>
      <g style="fill:#4d4d4d;" transform="translate(59.187415 310.602516)scale(0.12 -0.12)">
       <use xlink:href="#DejaVuSans-48"/>
      </g>
     </g>
    </g>
    <g id="xtick_2">
     <g id="line2d_3">
      <path clip-path="url(#p7ad27b2d96)" d="M 148.767932 296.534391
L 148.767932 30.422391
" style="fill:none;stroke:#e5e5e5;stroke-width:0.8;"/>
     </g>
     <g id="line2d_4">
      <path d="M 148.767932 296.534391
" style="fill:none;stroke:#000000;stroke-width:1.5;"/>
      <g>
       <use style="stroke:#000000;" x="148.767932" xlink:href="#m8d0d6c033e" y="296.534391"/>
      </g>
     </g>
     <g id="text_2">
      <!-- 2.5 -->
      <defs>
       <path d="M 19.1875 8.296875
L 53.609375 8.296875
L 53.609375 0
L 7.328125 0
L 7.328125 8.296875
Q 12.9375 14.109375 22.625 23.890625
Q 32.328125 33.6875 34.8125 36.53125
Q 39.546875 41.84375 41.421875 45.53125
Q 43.3125 49.21875 43.3125 52.78125
Q 43.3125 58.59375 39.234375 62.25
Q 35.15625 65.921875 28.609375 65.921875
Q 23.96875 65.921875 18.8125 64.3125
Q 13.671875 62.703125 7.8125 59.421875
L 7.8125 69.390625
Q 13.765625 71.78125 18.9375 73
Q 24.125 74.21875 28.421875 74.21875
Q 39.75 74.21875 46.484375 68.546875
Q 53.21875 62.890625 53.21875 53.421875
Q 53.21875 48.921875 51.53125 44.890625
Q 49.859375 40.875 45.40625 35.40625
Q 44.1875 33.984375 37.640625 27.21875
Q 31.109375 20.453125 19.1875 8.296875
z
" id="DejaVuSans-50"/>
       <path d="M 10.6875 12.40625
L 21 12.40625
L 21 0
L 10.6875 0
z
" id="DejaVuSans-46"/>
       <path d="M 10.796875 72.90625
L 49.515625 72.90625
L 49.515625 64.59375
L 19.828125 64.59375
L 19.828125 46.734375
Q 21.96875 47.46875 24.109375 47.828125
Q 26.265625 48.1875 28.421875 48.1875
Q 40.625 48.1875 47.75 41.5
Q 54.890625 34.8125 54.890625 23.390625
Q 54.890625 11.625 47.5625 5.09375
Q 40.234375 -1.421875 26.90625 -1.421875
Q 22.3125 -1.421875 17.546875 -0.640625
Q 12.796875 0.140625 7.71875 1.703125
L 7.71875 11.625
Q 12.109375 9.234375 16.796875 8.0625
Q 21.484375 6.890625 26.703125 6.890625
Q 35.15625 6.890625 40.078125 11.328125
Q 45.015625 15.765625 45.015625 23.390625
Q 45.015625 31 40.078125 35.4375
Q 35.15625 39.890625 26.703125 39.890625
Q 22.75 39.890625 18.8125 39.015625
Q 14.890625 38.140625 10.796875 36.28125
z
" id="DejaVuSans-53"/>
      </defs>
      <g style="fill:#4d4d4d;" transform="translate(139.226057 310.602516)scale(0.12 -0.12)">
       <use xlink:href="#DejaVuSans-50"/>
       <use x="63.623047" xlink:href="#DejaVuSans-46"/>
       <use x="95.410156" xlink:href="#DejaVuSans-53"/>
      </g>
     </g>
    </g>
    <g id="xtick_3">
     <g id="line2d_5">
      <path clip-path="url(#p7ad27b2d96)" d="M 234.530949 296.534391
L 234.530949 30.422391
" style="fill:none;stroke:#e5e5e5;stroke-width:0.8;"/>
     </g>
     <g id="line2d_6">
      <path d="M 234.530949 296.534391
" style="fill:none;stroke:#000000;stroke-width:1.5;"/>
      <g>
       <use style="stroke:#000000;" x="234.530949" xlink:href="#m8d0d6c033e" y="296.534391"/>
      </g>
     </g>
     <g id="text_3">
      <!-- 5 -->
      <g style="fill:#4d4d4d;" transform="translate(230.713449 310.602516)scale(0.12 -0.12)">
       <use xlink:href="#DejaVuSans-53"/>
      </g>
     </g>
    </g>
    <g id="xtick_4">
     <g id="line2d_7">
      <path clip-path="url(#p7ad27b2d96)" d="M 320.293967 296.534391
L 320.293967 30.422391
" style="fill:none;stroke:#e5e5e5;stroke-width:0.8;"/>
     </g>
     <g id="line2d_8">
      <path d="M 320.293967 296.534391
" style="fill:none;stroke:#000000;stroke-width:1.5;"/>
      <g>
       <use style="stroke:#000000;" x="320.293967" xlink:href="#m8d0d6c033e" y="296.534391"/>
      </g>
     </g>
     <g id="text_4">
      <!-- 7.5 -->
      <defs>
       <path d="M 8.203125 72.90625
L 55.078125 72.90625
L 55.078125 68.703125
L 28.609375 0
L 18.3125 0
L 43.21875 64.59375
L 8.203125 64.59375
z
" id="DejaVuSans-55"/>
      </defs>
      <g style="fill:#4d4d4d;" transform="translate(310.752092 310.602516)scale(0.12 -0.12)">
       <use xlink:href="#DejaVuSans-55"/>
       <use x="63.623047" xlink:href="#DejaVuSans-46"/>
       <use x="95.410156" xlink:href="#DejaVuSans-53"/>
      </g>
     </g>
    </g>
    <g id="xtick_5">
     <g id="line2d_9">
      <path clip-path="url(#p7ad27b2d96)" d="M 105.886423 296.534391
L 105.886423 30.422391
" style="fill:none;stroke:#fafafa;"/>
     </g>
     <g id="line2d_10">
      <path d="M 105.886423 296.534391
" style="fill:none;stroke:#000000;stroke-width:1.5;"/>
     </g>
    </g>
    <g id="xtick_6">
     <g id="line2d_11">
      <path clip-path="url(#p7ad27b2d96)" d="M 191.649441 296.534391
L 191.649441 30.422391
" style="fill:none;stroke:#fafafa;"/>
     </g>
     <g id="line2d_12">
      <path d="M 191.649441 296.534391
" style="fill:none;stroke:#000000;stroke-width:1.5;"/>
     </g>
    </g>
    <g id="xtick_7">
     <g id="line2d_13">
      <path clip-path="url(#p7ad27b2d96)" d="M 277.412458 296.534391
L 277.412458 30.422391
" style="fill:none;stroke:#fafafa;"/>
     </g>
     <g id="line2d_14">
      <path d="M 277.412458 296.534391
" style="fill:none;stroke:#000000;stroke-width:1.5;"/>
     </g>
    </g>
    <g id="xtick_8">
     <g id="line2d_15">
      <path clip-path="url(#p7ad27b2d96)" d="M 363.175475 296.534391
L 363.175475 30.422391
" style="fill:none;stroke:#fafafa;"/>
     </g>
     <g id="line2d_16">
      <path d="M 363.175475 296.534391
" style="fill:none;stroke:#000000;stroke-width:1.5;"/>
     </g>
    </g>
    <g id="text_5">
     <!-- -log$_{10}(median(adjusted p-value))) -->
     <defs>
      <path d="M 4.890625 31.390625
L 31.203125 31.390625
L 31.203125 23.390625
L 4.890625 23.390625
z
" id="DejaVuSans-45"/>
      <path d="M 9.421875 75.984375
L 18.40625 75.984375
L 18.40625 0
L 9.421875 0
z
" id="DejaVuSans-108"/>
      <path d="M 30.609375 48.390625
Q 23.390625 48.390625 19.1875 42.75
Q 14.984375 37.109375 14.984375 27.296875
Q 14.984375 17.484375 19.15625 11.84375
Q 23.34375 6.203125 30.609375 6.203125
Q 37.796875 6.203125 41.984375 11.859375
Q 46.1875 17.53125 46.1875 27.296875
Q 46.1875 37.015625 41.984375 42.703125
Q 37.796875 48.390625 30.609375 48.390625
z
M 30.609375 56
Q 42.328125 56 49.015625 48.375
Q 55.71875 40.765625 55.71875 27.296875
Q 55.71875 13.875 49.015625 6.21875
Q 42.328125 -1.421875 30.609375 -1.421875
Q 18.84375 -1.421875 12.171875 6.21875
Q 5.515625 13.875 5.515625 27.296875
Q 5.515625 40.765625 12.171875 48.375
Q 18.84375 56 30.609375 56
z
" id="DejaVuSans-111"/>
      <path d="M 45.40625 27.984375
Q 45.40625 37.75 41.375 43.109375
Q 37.359375 48.484375 30.078125 48.484375
Q 22.859375 48.484375 18.828125 43.109375
Q 14.796875 37.75 14.796875 27.984375
Q 14.796875 18.265625 18.828125 12.890625
Q 22.859375 7.515625 30.078125 7.515625
Q 37.359375 7.515625 41.375 12.890625
Q 45.40625 18.265625 45.40625 27.984375
z
M 54.390625 6.78125
Q 54.390625 -7.171875 48.1875 -13.984375
Q 42 -20.796875 29.203125 -20.796875
Q 24.46875 -20.796875 20.265625 -20.09375
Q 16.0625 -19.390625 12.109375 -17.921875
L 12.109375 -9.1875
Q 16.0625 -11.328125 19.921875 -12.34375
Q 23.78125 -13.375 27.78125 -13.375
Q 36.625 -13.375 41.015625 -8.765625
Q 45.40625 -4.15625 45.40625 5.171875
L 45.40625 9.625
Q 42.625 4.78125 38.28125 2.390625
Q 33.9375 0 27.875 0
Q 17.828125 0 11.671875 7.65625
Q 5.515625 15.328125 5.515625 27.984375
Q 5.515625 40.671875 11.671875 48.328125
Q 17.828125 56 27.875 56
Q 33.9375 56 38.28125 53.609375
Q 42.625 51.21875 45.40625 46.390625
L 45.40625 54.6875
L 54.390625 54.6875
z
" id="DejaVuSans-103"/>
      <path d="M 33.796875 -14.703125
L 28.90625 -14.703125
L 28.859375 0
Q 23.734375 0.09375 18.609375 1.1875
Q 13.484375 2.296875 8.296875 4.5
L 8.296875 13.28125
Q 13.28125 10.15625 18.375 8.5625
Q 23.484375 6.984375 28.90625 6.9375
L 28.90625 29.203125
Q 18.109375 30.953125 13.203125 35.15625
Q 8.296875 39.359375 8.296875 46.6875
Q 8.296875 54.640625 13.625 59.21875
Q 18.953125 63.8125 28.90625 64.5
L 28.90625 75.984375
L 33.796875 75.984375
L 33.796875 64.65625
Q 38.328125 64.453125 42.578125 63.6875
Q 46.828125 62.9375 50.875 61.625
L 50.875 53.078125
Q 46.828125 55.125 42.546875 56.25
Q 38.28125 57.375 33.796875 57.5625
L 33.796875 36.71875
Q 44.875 35.015625 50.09375 30.609375
Q 55.328125 26.21875 55.328125 18.609375
Q 55.328125 10.359375 49.78125 5.59375
Q 44.234375 0.828125 33.796875 0.09375
z
M 28.90625 37.59375
L 28.90625 57.625
Q 23.25 56.984375 20.265625 54.390625
Q 17.28125 51.8125 17.28125 47.515625
Q 17.28125 43.3125 20.03125 40.96875
Q 22.796875 38.625 28.90625 37.59375
z
M 33.796875 28.21875
L 33.796875 7.078125
Q 39.984375 7.90625 43.140625 10.59375
Q 46.296875 13.28125 46.296875 17.671875
Q 46.296875 21.96875 43.28125 24.5
Q 40.28125 27.046875 33.796875 28.21875
z
" id="DejaVuSans-36"/>
      <path d="M 50.984375 -16.609375
L 50.984375 -23.578125
L -0.984375 -23.578125
L -0.984375 -16.609375
z
" id="DejaVuSans-95"/>
      <path d="M 51.125 -9.28125
L 51.125 -16.3125
L 48.09375 -16.3125
Q 35.9375 -16.3125 31.8125 -12.6875
Q 27.6875 -9.078125 27.6875 1.703125
L 27.6875 13.375
Q 27.6875 20.75 25.046875 23.578125
Q 22.40625 26.421875 15.484375 26.421875
L 12.5 26.421875
L 12.5 33.40625
L 15.484375 33.40625
Q 22.46875 33.40625 25.078125 36.203125
Q 27.6875 39.015625 27.6875 46.296875
L 27.6875 58.015625
Q 27.6875 68.796875 31.8125 72.390625
Q 35.9375 75.984375 48.09375 75.984375
L 51.125 75.984375
L 51.125 69
L 47.796875 69
Q 40.921875 69 38.8125 66.84375
Q 36.71875 64.703125 36.71875 57.8125
L 36.71875 45.703125
Q 36.71875 38.03125 34.5 34.5625
Q 32.28125 31.109375 26.90625 29.890625
Q 32.328125 28.5625 34.515625 25.09375
Q 36.71875 21.625 36.71875 14.015625
L 36.71875 1.90625
Q 36.71875 -4.984375 38.8125 -7.125
Q 40.921875 -9.28125 47.796875 -9.28125
z
" id="DejaVuSans-123"/>
      <path d="M 12.40625 8.296875
L 28.515625 8.296875
L 28.515625 63.921875
L 10.984375 60.40625
L 10.984375 69.390625
L 28.421875 72.90625
L 38.28125 72.90625
L 38.28125 8.296875
L 54.390625 8.296875
L 54.390625 0
L 12.40625 0
z
" id="DejaVuSans-49"/>
      <path d="M 12.5 -9.28125
L 15.921875 -9.28125
Q 22.75 -9.28125 24.828125 -7.171875
Q 26.90625 -5.078125 26.90625 1.90625
L 26.90625 14.015625
Q 26.90625 21.625 29.09375 25.09375
Q 31.296875 28.5625 36.71875 29.890625
Q 31.296875 31.109375 29.09375 34.5625
Q 26.90625 38.03125 26.90625 45.703125
L 26.90625 57.8125
Q 26.90625 64.75 24.828125 66.875
Q 22.75 69 15.921875 69
L 12.5 69
L 12.5 75.984375
L 15.578125 75.984375
Q 27.734375 75.984375 31.8125 72.390625
Q 35.890625 68.796875 35.890625 58.015625
L 35.890625 46.296875
Q 35.890625 39.015625 38.515625 36.203125
Q 41.15625 33.40625 48.09375 33.40625
L 51.125 33.40625
L 51.125 26.421875
L 48.09375 26.421875
Q 41.15625 26.421875 38.515625 23.578125
Q 35.890625 20.75 35.890625 13.375
L 35.890625 1.703125
Q 35.890625 -9.078125 31.8125 -12.6875
Q 27.734375 -16.3125 15.578125 -16.3125
L 12.5 -16.3125
z
" id="DejaVuSans-125"/>
      <path d="M 31 75.875
Q 24.46875 64.65625 21.28125 53.65625
Q 18.109375 42.671875 18.109375 31.390625
Q 18.109375 20.125 21.3125 9.0625
Q 24.515625 -2 31 -13.1875
L 23.1875 -13.1875
Q 15.875 -1.703125 12.234375 9.375
Q 8.59375 20.453125 8.59375 31.390625
Q 8.59375 42.28125 12.203125 53.3125
Q 15.828125 64.359375 23.1875 75.875
z
" id="DejaVuSans-40"/>
      <path d="M 52 44.1875
Q 55.375 50.25 60.0625 53.125
Q 64.75 56 71.09375 56
Q 79.640625 56 84.28125 50.015625
Q 88.921875 44.046875 88.921875 33.015625
L 88.921875 0
L 79.890625 0
L 79.890625 32.71875
Q 79.890625 40.578125 77.09375 44.375
Q 74.3125 48.1875 68.609375 48.1875
Q 61.625 48.1875 57.5625 43.546875
Q 53.515625 38.921875 53.515625 30.90625
L 53.515625 0
L 44.484375 0
L 44.484375 32.71875
Q 44.484375 40.625 41.703125 44.40625
Q 38.921875 48.1875 33.109375 48.1875
Q 26.21875 48.1875 22.15625 43.53125
Q 18.109375 38.875 18.109375 30.90625
L 18.109375 0
L 9.078125 0
L 9.078125 54.6875
L 18.109375 54.6875
L 18.109375 46.1875
Q 21.1875 51.21875 25.484375 53.609375
Q 29.78125 56 35.6875 56
Q 41.65625 56 45.828125 52.96875
Q 50 49.953125 52 44.1875
z
" id="DejaVuSans-109"/>
      <path d="M 56.203125 29.59375
L 56.203125 25.203125
L 14.890625 25.203125
Q 15.484375 15.921875 20.484375 11.0625
Q 25.484375 6.203125 34.421875 6.203125
Q 39.59375 6.203125 44.453125 7.46875
Q 49.3125 8.734375 54.109375 11.28125
L 54.109375 2.78125
Q 49.265625 0.734375 44.1875 -0.34375
Q 39.109375 -1.421875 33.890625 -1.421875
Q 20.796875 -1.421875 13.15625 6.1875
Q 5.515625 13.8125 5.515625 26.8125
Q 5.515625 40.234375 12.765625 48.109375
Q 20.015625 56 32.328125 56
Q 43.359375 56 49.78125 48.890625
Q 56.203125 41.796875 56.203125 29.59375
z
M 47.21875 32.234375
Q 47.125 39.59375 43.09375 43.984375
Q 39.0625 48.390625 32.421875 48.390625
Q 24.90625 48.390625 20.390625 44.140625
Q 15.875 39.890625 15.1875 32.171875
z
" id="DejaVuSans-101"/>
      <path d="M 45.40625 46.390625
L 45.40625 75.984375
L 54.390625 75.984375
L 54.390625 0
L 45.40625 0
L 45.40625 8.203125
Q 42.578125 3.328125 38.25 0.953125
Q 33.9375 -1.421875 27.875 -1.421875
Q 17.96875 -1.421875 11.734375 6.484375
Q 5.515625 14.40625 5.515625 27.296875
Q 5.515625 40.1875 11.734375 48.09375
Q 17.96875 56 27.875 56
Q 33.9375 56 38.25 53.625
Q 42.578125 51.265625 45.40625 46.390625
z
M 14.796875 27.296875
Q 14.796875 17.390625 18.875 11.75
Q 22.953125 6.109375 30.078125 6.109375
Q 37.203125 6.109375 41.296875 11.75
Q 45.40625 17.390625 45.40625 27.296875
Q 45.40625 37.203125 41.296875 42.84375
Q 37.203125 48.484375 30.078125 48.484375
Q 22.953125 48.484375 18.875 42.84375
Q 14.796875 37.203125 14.796875 27.296875
z
" id="DejaVuSans-100"/>
      <path d="M 9.421875 54.6875
L 18.40625 54.6875
L 18.40625 0
L 9.421875 0
z
M 9.421875 75.984375
L 18.40625 75.984375
L 18.40625 64.59375
L 9.421875 64.59375
z
" id="DejaVuSans-105"/>
      <path d="M 34.28125 27.484375
Q 23.390625 27.484375 19.1875 25
Q 14.984375 22.515625 14.984375 16.5
Q 14.984375 11.71875 18.140625 8.90625
Q 21.296875 6.109375 26.703125 6.109375
Q 34.1875 6.109375 38.703125 11.40625
Q 43.21875 16.703125 43.21875 25.484375
L 43.21875 27.484375
z
M 52.203125 31.203125
L 52.203125 0
L 43.21875 0
L 43.21875 8.296875
Q 40.140625 3.328125 35.546875 0.953125
Q 30.953125 -1.421875 24.3125 -1.421875
Q 15.921875 -1.421875 10.953125 3.296875
Q 6 8.015625 6 15.921875
Q 6 25.140625 12.171875 29.828125
Q 18.359375 34.515625 30.609375 34.515625
L 43.21875 34.515625
L 43.21875 35.40625
Q 43.21875 41.609375 39.140625 45
Q 35.0625 48.390625 27.6875 48.390625
Q 23 48.390625 18.546875 47.265625
Q 14.109375 46.140625 10.015625 43.890625
L 10.015625 52.203125
Q 14.9375 54.109375 19.578125 55.046875
Q 24.21875 56 28.609375 56
Q 40.484375 56 46.34375 49.84375
Q 52.203125 43.703125 52.203125 31.203125
z
" id="DejaVuSans-97"/>
      <path d="M 54.890625 33.015625
L 54.890625 0
L 45.90625 0
L 45.90625 32.71875
Q 45.90625 40.484375 42.875 44.328125
Q 39.84375 48.1875 33.796875 48.1875
Q 26.515625 48.1875 22.3125 43.546875
Q 18.109375 38.921875 18.109375 30.90625
L 18.109375 0
L 9.078125 0
L 9.078125 54.6875
L 18.109375 54.6875
L 18.109375 46.1875
Q 21.34375 51.125 25.703125 53.5625
Q 30.078125 56 35.796875 56
Q 45.21875 56 50.046875 50.171875
Q 54.890625 44.34375 54.890625 33.015625
z
" id="DejaVuSans-110"/>
      <path d="M 9.421875 54.6875
L 18.40625 54.6875
L 18.40625 -0.984375
Q 18.40625 -11.421875 14.421875 -16.109375
Q 10.453125 -20.796875 1.609375 -20.796875
L -1.8125 -20.796875
L -1.8125 -13.1875
L 0.59375 -13.1875
Q 5.71875 -13.1875 7.5625 -10.8125
Q 9.421875 -8.453125 9.421875 -0.984375
z
M 9.421875 75.984375
L 18.40625 75.984375
L 18.40625 64.59375
L 9.421875 64.59375
z
" id="DejaVuSans-106"/>
      <path d="M 8.5 21.578125
L 8.5 54.6875
L 17.484375 54.6875
L 17.484375 21.921875
Q 17.484375 14.15625 20.5 10.265625
Q 23.53125 6.390625 29.59375 6.390625
Q 36.859375 6.390625 41.078125 11.03125
Q 45.3125 15.671875 45.3125 23.6875
L 45.3125 54.6875
L 54.296875 54.6875
L 54.296875 0
L 45.3125 0
L 45.3125 8.40625
Q 42.046875 3.421875 37.71875 1
Q 33.40625 -1.421875 27.6875 -1.421875
Q 18.265625 -1.421875 13.375 4.4375
Q 8.5 10.296875 8.5 21.578125
z
M 31.109375 56
z
" id="DejaVuSans-117"/>
      <path d="M 44.28125 53.078125
L 44.28125 44.578125
Q 40.484375 46.53125 36.375 47.5
Q 32.28125 48.484375 27.875 48.484375
Q 21.1875 48.484375 17.84375 46.4375
Q 14.5 44.390625 14.5 40.28125
Q 14.5 37.15625 16.890625 35.375
Q 19.28125 33.59375 26.515625 31.984375
L 29.59375 31.296875
Q 39.15625 29.25 43.1875 25.515625
Q 47.21875 21.78125 47.21875 15.09375
Q 47.21875 7.46875 41.1875 3.015625
Q 35.15625 -1.421875 24.609375 -1.421875
Q 20.21875 -1.421875 15.453125 -0.5625
Q 10.6875 0.296875 5.421875 2
L 5.421875 11.28125
Q 10.40625 8.6875 15.234375 7.390625
Q 20.0625 6.109375 24.8125 6.109375
Q 31.15625 6.109375 34.5625 8.28125
Q 37.984375 10.453125 37.984375 14.40625
Q 37.984375 18.0625 35.515625 20.015625
Q 33.0625 21.96875 24.703125 23.78125
L 21.578125 24.515625
Q 13.234375 26.265625 9.515625 29.90625
Q 5.8125 33.546875 5.8125 39.890625
Q 5.8125 47.609375 11.28125 51.796875
Q 16.75 56 26.8125 56
Q 31.78125 56 36.171875 55.265625
Q 40.578125 54.546875 44.28125 53.078125
z
" id="DejaVuSans-115"/>
      <path d="M 18.3125 70.21875
L 18.3125 54.6875
L 36.8125 54.6875
L 36.8125 47.703125
L 18.3125 47.703125
L 18.3125 18.015625
Q 18.3125 11.328125 20.140625 9.421875
Q 21.96875 7.515625 27.59375 7.515625
L 36.8125 7.515625
L 36.8125 0
L 27.59375 0
Q 17.1875 0 13.234375 3.875
Q 9.28125 7.765625 9.28125 18.015625
L 9.28125 47.703125
L 2.6875 47.703125
L 2.6875 54.6875
L 9.28125 54.6875
L 9.28125 70.21875
z
" id="DejaVuSans-116"/>
      <path id="DejaVuSans-32"/>
      <path d="M 18.109375 8.203125
L 18.109375 -20.796875
L 9.078125 -20.796875
L 9.078125 54.6875
L 18.109375 54.6875
L 18.109375 46.390625
Q 20.953125 51.265625 25.265625 53.625
Q 29.59375 56 35.59375 56
Q 45.5625 56 51.78125 48.09375
Q 58.015625 40.1875 58.015625 27.296875
Q 58.015625 14.40625 51.78125 6.484375
Q 45.5625 -1.421875 35.59375 -1.421875
Q 29.59375 -1.421875 25.265625 0.953125
Q 20.953125 3.328125 18.109375 8.203125
z
M 48.6875 27.296875
Q 48.6875 37.203125 44.609375 42.84375
Q 40.53125 48.484375 33.40625 48.484375
Q 26.265625 48.484375 22.1875 42.84375
Q 18.109375 37.203125 18.109375 27.296875
Q 18.109375 17.390625 22.1875 11.75
Q 26.265625 6.109375 33.40625 6.109375
Q 40.53125 6.109375 44.609375 11.75
Q 48.6875 17.390625 48.6875 27.296875
z
" id="DejaVuSans-112"/>
      <path d="M 2.984375 54.6875
L 12.5 54.6875
L 29.59375 8.796875
L 46.6875 54.6875
L 56.203125 54.6875
L 35.6875 0
L 23.484375 0
z
" id="DejaVuSans-118"/>
      <path d="M 8.015625 75.875
L 15.828125 75.875
Q 23.140625 64.359375 26.78125 53.3125
Q 30.421875 42.28125 30.421875 31.390625
Q 30.421875 20.453125 26.78125 9.375
Q 23.140625 -1.703125 15.828125 -13.1875
L 8.015625 -13.1875
Q 14.5 -2 17.703125 9.0625
Q 20.90625 20.125 20.90625 31.390625
Q 20.90625 42.671875 17.703125 53.65625
Q 14.5 64.65625 8.015625 75.875
z
" id="DejaVuSans-41"/>
     </defs>
     <g transform="translate(72.324922 328.895797)scale(0.15 -0.15)">
      <use xlink:href="#DejaVuSans-45"/>
      <use x="36.083984" xlink:href="#DejaVuSans-108"/>
      <use x="63.867188" xlink:href="#DejaVuSans-111"/>
      <use x="125.048828" xlink:href="#DejaVuSans-103"/>
      <use x="188.525391" xlink:href="#DejaVuSans-36"/>
      <use x="252.148438" xlink:href="#DejaVuSans-95"/>
      <use x="302.148438" xlink:href="#DejaVuSans-123"/>
      <use x="365.771484" xlink:href="#DejaVuSans-49"/>
      <use x="429.394531" xlink:href="#DejaVuSans-48"/>
      <use x="493.017578" xlink:href="#DejaVuSans-125"/>
      <use x="556.640625" xlink:href="#DejaVuSans-40"/>
      <use x="595.654297" xlink:href="#DejaVuSans-109"/>
      <use x="693.066406" xlink:href="#DejaVuSans-101"/>
      <use x="754.589844" xlink:href="#DejaVuSans-100"/>
      <use x="818.066406" xlink:href="#DejaVuSans-105"/>
      <use x="845.849609" xlink:href="#DejaVuSans-97"/>
      <use x="907.128906" xlink:href="#DejaVuSans-110"/>
      <use x="970.507812" xlink:href="#DejaVuSans-40"/>
      <use x="1009.521484" xlink:href="#DejaVuSans-97"/>
      <use x="1070.800781" xlink:href="#DejaVuSans-100"/>
      <use x="1134.277344" xlink:href="#DejaVuSans-106"/>
      <use x="1162.060547" xlink:href="#DejaVuSans-117"/>
      <use x="1225.439453" xlink:href="#DejaVuSans-115"/>
      <use x="1277.539062" xlink:href="#DejaVuSans-116"/>
      <use x="1316.748047" xlink:href="#DejaVuSans-101"/>
      <use x="1378.271484" xlink:href="#DejaVuSans-100"/>
      <use x="1441.748047" xlink:href="#DejaVuSans-32"/>
      <use x="1473.535156" xlink:href="#DejaVuSans-112"/>
      <use x="1537.011719" xlink:href="#DejaVuSans-45"/>
      <use x="1573.064453" xlink:href="#DejaVuSans-118"/>
      <use x="1632.244141" xlink:href="#DejaVuSans-97"/>
      <use x="1693.523438" xlink:href="#DejaVuSans-108"/>
      <use x="1721.306641" xlink:href="#DejaVuSans-117"/>
      <use x="1784.685547" xlink:href="#DejaVuSans-101"/>
      <use x="1846.208984" xlink:href="#DejaVuSans-41"/>
      <use x="1885.222656" xlink:href="#DejaVuSans-41"/>
      <use x="1924.236328" xlink:href="#DejaVuSans-41"/>
     </g>
    </g>
   </g>
   <g id="matplotlib.axis_2">
    <g id="ytick_1">
     <g id="line2d_17">
      <path clip-path="url(#p7ad27b2d96)" d="M 46.772188 284.438391
L 403.892188 284.438391
" style="fill:none;stroke:#e5e5e5;stroke-width:0.8;"/>
     </g>
     <g id="line2d_18">
      <path d="M 46.772188 284.438391
" style="fill:none;stroke:#000000;stroke-width:1.5;"/>
      <defs>
       <path d="M 0 0
L -2.75 0
" id="m68f287ba82" style="stroke:#000000;"/>
      </defs>
      <g>
       <use style="stroke:#000000;" x="46.772188" xlink:href="#m68f287ba82" y="284.438391"/>
      </g>
     </g>
     <g id="text_6">
      <!-- 0 -->
      <g style="fill:#4d4d4d;" transform="translate(34.187188 287.749641)scale(0.12 -0.12)">
       <use xlink:href="#DejaVuSans-48"/>
      </g>
     </g>
    </g>
    <g id="ytick_2">
     <g id="line2d_19">
      <path clip-path="url(#p7ad27b2d96)" d="M 46.772188 223.958391
L 403.892188 223.958391
" style="fill:none;stroke:#e5e5e5;stroke-width:0.8;"/>
     </g>
     <g id="line2d_20">
      <path d="M 46.772188 223.958391
" style="fill:none;stroke:#000000;stroke-width:1.5;"/>
      <g>
       <use style="stroke:#000000;" x="46.772188" xlink:href="#m68f287ba82" y="223.958391"/>
      </g>
     </g>
     <g id="text_7">
      <!-- 25 -->
      <g style="fill:#4d4d4d;" transform="translate(26.552188 227.269641)scale(0.12 -0.12)">
       <use xlink:href="#DejaVuSans-50"/>
       <use x="63.623047" xlink:href="#DejaVuSans-53"/>
      </g>
     </g>
    </g>
    <g id="ytick_3">
     <g id="line2d_21">
      <path clip-path="url(#p7ad27b2d96)" d="M 46.772188 163.478391
L 403.892188 163.478391
" style="fill:none;stroke:#e5e5e5;stroke-width:0.8;"/>
     </g>
     <g id="line2d_22">
      <path d="M 46.772188 163.478391
" style="fill:none;stroke:#000000;stroke-width:1.5;"/>
      <g>
       <use style="stroke:#000000;" x="46.772188" xlink:href="#m68f287ba82" y="163.478391"/>
      </g>
     </g>
     <g id="text_8">
      <!-- 50 -->
      <g style="fill:#4d4d4d;" transform="translate(26.552188 166.789641)scale(0.12 -0.12)">
       <use xlink:href="#DejaVuSans-53"/>
       <use x="63.623047" xlink:href="#DejaVuSans-48"/>
      </g>
     </g>
    </g>
    <g id="ytick_4">
     <g id="line2d_23">
      <path clip-path="url(#p7ad27b2d96)" d="M 46.772188 102.998391
L 403.892188 102.998391
" style="fill:none;stroke:#e5e5e5;stroke-width:0.8;"/>
     </g>
     <g id="line2d_24">
      <path d="M 46.772188 102.998391
" style="fill:none;stroke:#000000;stroke-width:1.5;"/>
      <g>
       <use style="stroke:#000000;" x="46.772188" xlink:href="#m68f287ba82" y="102.998391"/>
      </g>
     </g>
     <g id="text_9">
      <!-- 75 -->
      <g style="fill:#4d4d4d;" transform="translate(26.552188 106.309641)scale(0.12 -0.12)">
       <use xlink:href="#DejaVuSans-55"/>
       <use x="63.623047" xlink:href="#DejaVuSans-53"/>
      </g>
     </g>
    </g>
    <g id="ytick_5">
     <g id="line2d_25">
      <path clip-path="url(#p7ad27b2d96)" d="M 46.772188 42.518391
L 403.892188 42.518391
" style="fill:none;stroke:#e5e5e5;stroke-width:0.8;"/>
     </g>
     <g id="line2d_26">
      <path d="M 46.772188 42.518391
" style="fill:none;stroke:#000000;stroke-width:1.5;"/>
      <g>
       <use style="stroke:#000000;" x="46.772188" xlink:href="#m68f287ba82" y="42.518391"/>
      </g>
     </g>
     <g id="text_10">
      <!-- 100 -->
      <g style="fill:#4d4d4d;" transform="translate(18.917188 45.829641)scale(0.12 -0.12)">
       <use xlink:href="#DejaVuSans-49"/>
       <use x="63.623047" xlink:href="#DejaVuSans-48"/>
       <use x="127.246094" xlink:href="#DejaVuSans-48"/>
      </g>
     </g>
    </g>
    <g id="ytick_6">
     <g id="line2d_27">
      <path clip-path="url(#p7ad27b2d96)" d="M 46.772188 254.198391
L 403.892188 254.198391
" style="fill:none;stroke:#fafafa;"/>
     </g>
     <g id="line2d_28">
      <path d="M 46.772188 254.198391
" style="fill:none;stroke:#000000;stroke-width:1.5;"/>
     </g>
    </g>
    <g id="ytick_7">
     <g id="line2d_29">
      <path clip-path="url(#p7ad27b2d96)" d="M 46.772188 193.718391
L 403.892188 193.718391
" style="fill:none;stroke:#fafafa;"/>
     </g>
     <g id="line2d_30">
      <path d="M 46.772188 193.718391
" style="fill:none;stroke:#000000;stroke-width:1.5;"/>
     </g>
    </g>
    <g id="ytick_8">
     <g id="line2d_31">
      <path clip-path="url(#p7ad27b2d96)" d="M 46.772188 133.238391
L 403.892188 133.238391
" style="fill:none;stroke:#fafafa;"/>
     </g>
     <g id="line2d_32">
      <path d="M 46.772188 133.238391
" style="fill:none;stroke:#000000;stroke-width:1.5;"/>
     </g>
    </g>
    <g id="ytick_9">
     <g id="line2d_33">
      <path clip-path="url(#p7ad27b2d96)" d="M 46.772188 72.758391
L 403.892188 72.758391
" style="fill:none;stroke:#fafafa;"/>
     </g>
     <g id="line2d_34">
      <path d="M 46.772188 72.758391
" style="fill:none;stroke:#000000;stroke-width:1.5;"/>
     </g>
    </g>
    <g id="text_11">
     <!-- Commonly enriched (percentile of ranking) -->
     <defs>
      <path d="M 64.40625 67.28125
L 64.40625 56.890625
Q 59.421875 61.53125 53.78125 63.8125
Q 48.140625 66.109375 41.796875 66.109375
Q 29.296875 66.109375 22.65625 58.46875
Q 16.015625 50.828125 16.015625 36.375
Q 16.015625 21.96875 22.65625 14.328125
Q 29.296875 6.6875 41.796875 6.6875
Q 48.140625 6.6875 53.78125 8.984375
Q 59.421875 11.28125 64.40625 15.921875
L 64.40625 5.609375
Q 59.234375 2.09375 53.4375 0.328125
Q 47.65625 -1.421875 41.21875 -1.421875
Q 24.65625 -1.421875 15.125 8.703125
Q 5.609375 18.84375 5.609375 36.375
Q 5.609375 53.953125 15.125 64.078125
Q 24.65625 74.21875 41.21875 74.21875
Q 47.75 74.21875 53.53125 72.484375
Q 59.328125 70.75 64.40625 67.28125
z
" id="DejaVuSans-67"/>
      <path d="M 32.171875 -5.078125
Q 28.375 -14.84375 24.75 -17.8125
Q 21.140625 -20.796875 15.09375 -20.796875
L 7.90625 -20.796875
L 7.90625 -13.28125
L 13.1875 -13.28125
Q 16.890625 -13.28125 18.9375 -11.515625
Q 21 -9.765625 23.484375 -3.21875
L 25.09375 0.875
L 2.984375 54.6875
L 12.5 54.6875
L 29.59375 11.921875
L 46.6875 54.6875
L 56.203125 54.6875
z
" id="DejaVuSans-121"/>
      <path d="M 41.109375 46.296875
Q 39.59375 47.171875 37.8125 47.578125
Q 36.03125 48 33.890625 48
Q 26.265625 48 22.1875 43.046875
Q 18.109375 38.09375 18.109375 28.8125
L 18.109375 0
L 9.078125 0
L 9.078125 54.6875
L 18.109375 54.6875
L 18.109375 46.1875
Q 20.953125 51.171875 25.484375 53.578125
Q 30.03125 56 36.53125 56
Q 37.453125 56 38.578125 55.875
Q 39.703125 55.765625 41.0625 55.515625
z
" id="DejaVuSans-114"/>
      <path d="M 48.78125 52.59375
L 48.78125 44.1875
Q 44.96875 46.296875 41.140625 47.34375
Q 37.3125 48.390625 33.40625 48.390625
Q 24.65625 48.390625 19.8125 42.84375
Q 14.984375 37.3125 14.984375 27.296875
Q 14.984375 17.28125 19.8125 11.734375
Q 24.65625 6.203125 33.40625 6.203125
Q 37.3125 6.203125 41.140625 7.25
Q 44.96875 8.296875 48.78125 10.40625
L 48.78125 2.09375
Q 45.015625 0.34375 40.984375 -0.53125
Q 36.96875 -1.421875 32.421875 -1.421875
Q 20.0625 -1.421875 12.78125 6.34375
Q 5.515625 14.109375 5.515625 27.296875
Q 5.515625 40.671875 12.859375 48.328125
Q 20.21875 56 33.015625 56
Q 37.15625 56 41.109375 55.140625
Q 45.0625 54.296875 48.78125 52.59375
z
" id="DejaVuSans-99"/>
      <path d="M 54.890625 33.015625
L 54.890625 0
L 45.90625 0
L 45.90625 32.71875
Q 45.90625 40.484375 42.875 44.328125
Q 39.84375 48.1875 33.796875 48.1875
Q 26.515625 48.1875 22.3125 43.546875
Q 18.109375 38.921875 18.109375 30.90625
L 18.109375 0
L 9.078125 0
L 9.078125 75.984375
L 18.109375 75.984375
L 18.109375 46.1875
Q 21.34375 51.125 25.703125 53.5625
Q 30.078125 56 35.796875 56
Q 45.21875 56 50.046875 50.171875
Q 54.890625 44.34375 54.890625 33.015625
z
" id="DejaVuSans-104"/>
      <path d="M 37.109375 75.984375
L 37.109375 68.5
L 28.515625 68.5
Q 23.6875 68.5 21.796875 66.546875
Q 19.921875 64.59375 19.921875 59.515625
L 19.921875 54.6875
L 34.71875 54.6875
L 34.71875 47.703125
L 19.921875 47.703125
L 19.921875 0
L 10.890625 0
L 10.890625 47.703125
L 2.296875 47.703125
L 2.296875 54.6875
L 10.890625 54.6875
L 10.890625 58.5
Q 10.890625 67.625 15.140625 71.796875
Q 19.390625 75.984375 28.609375 75.984375
z
" id="DejaVuSans-102"/>
      <path d="M 9.078125 75.984375
L 18.109375 75.984375
L 18.109375 31.109375
L 44.921875 54.6875
L 56.390625 54.6875
L 27.390625 29.109375
L 57.625 0
L 45.90625 0
L 18.109375 26.703125
L 18.109375 0
L 9.078125 0
z
" id="DejaVuSans-107"/>
     </defs>
     <g transform="translate(11.397656 323.500781)rotate(-90)scale(0.15 -0.15)">
      <use xlink:href="#DejaVuSans-67"/>
      <use x="69.824219" xlink:href="#DejaVuSans-111"/>
      <use x="131.005859" xlink:href="#DejaVuSans-109"/>
      <use x="228.417969" xlink:href="#DejaVuSans-109"/>
      <use x="325.830078" xlink:href="#DejaVuSans-111"/>
      <use x="387.011719" xlink:href="#DejaVuSans-110"/>
      <use x="450.390625" xlink:href="#DejaVuSans-108"/>
      <use x="478.173828" xlink:href="#DejaVuSans-121"/>
      <use x="537.353516" xlink:href="#DejaVuSans-32"/>
      <use x="569.140625" xlink:href="#DejaVuSans-101"/>
      <use x="630.664062" xlink:href="#DejaVuSans-110"/>
      <use x="694.042969" xlink:href="#DejaVuSans-114"/>
      <use x="735.15625" xlink:href="#DejaVuSans-105"/>
      <use x="762.939453" xlink:href="#DejaVuSans-99"/>
      <use x="817.919922" xlink:href="#DejaVuSans-104"/>
      <use x="881.298828" xlink:href="#DejaVuSans-101"/>
      <use x="942.822266" xlink:href="#DejaVuSans-100"/>
      <use x="1006.298828" xlink:href="#DejaVuSans-32"/>
      <use x="1038.085938" xlink:href="#DejaVuSans-40"/>
      <use x="1077.099609" xlink:href="#DejaVuSans-112"/>
      <use x="1140.576172" xlink:href="#DejaVuSans-101"/>
      <use x="1202.099609" xlink:href="#DejaVuSans-114"/>
      <use x="1243.181641" xlink:href="#DejaVuSans-99"/>
      <use x="1298.162109" xlink:href="#DejaVuSans-101"/>
      <use x="1359.685547" xlink:href="#DejaVuSans-110"/>
      <use x="1423.064453" xlink:href="#DejaVuSans-116"/>
      <use x="1462.273438" xlink:href="#DejaVuSans-105"/>
      <use x="1490.056641" xlink:href="#DejaVuSans-108"/>
      <use x="1517.839844" xlink:href="#DejaVuSans-101"/>
      <use x="1579.363281" xlink:href="#DejaVuSans-32"/>
      <use x="1611.150391" xlink:href="#DejaVuSans-111"/>
      <use x="1672.332031" xlink:href="#DejaVuSans-102"/>
      <use x="1707.537109" xlink:href="#DejaVuSans-32"/>
      <use x="1739.324219" xlink:href="#DejaVuSans-114"/>
      <use x="1780.4375" xlink:href="#DejaVuSans-97"/>
      <use x="1841.716797" xlink:href="#DejaVuSans-110"/>
      <use x="1905.095703" xlink:href="#DejaVuSans-107"/>
      <use x="1963.005859" xlink:href="#DejaVuSans-105"/>
      <use x="1990.789062" xlink:href="#DejaVuSans-110"/>
      <use x="2054.167969" xlink:href="#DejaVuSans-103"/>
      <use x="2117.644531" xlink:href="#DejaVuSans-41"/>
     </g>
    </g>
   </g>
   <g id="PathCollection_1">
    <path clip-path="url(#p7ad27b2d96)" d="M 67.161408 133.159416
C 67.631468 133.159416 68.082339 132.972659 68.414722 132.640276
C 68.747105 132.307893 68.933861 131.857022 68.933861 131.386962
C 68.933861 130.916902 68.747105 130.466031 68.414722 130.133648
C 68.082339 129.801265 67.631468 129.614508 67.161408 129.614508
C 66.691347 129.614508 66.240476 129.801265 65.908093 130.133648
C 65.575711 130.466031 65.388954 130.916902 65.388954 131.386962
C 65.388954 131.857022 65.575711 132.307893 65.908093 132.640276
C 66.240476 132.972659 66.691347 133.159416 67.161408 133.159416
z
" style="stroke:#000000;stroke-width:0.886227;"/>
    <path clip-path="url(#p7ad27b2d96)" d="M 345.322681 49.227987
C 345.792741 49.227987 346.243612 49.04123 346.575995 48.708848
C 346.908377 48.376465 347.095134 47.925594 347.095134 47.455533
C 347.095134 46.985473 346.908377 46.534602 346.575995 46.202219
C 346.243612 45.869837 345.792741 45.68308 345.322681 45.68308
C 344.85262 45.68308 344.401749 45.869837 344.069366 46.202219
C 343.736984 46.534602 343.550227 46.985473 343.550227 47.455533
C 343.550227 47.925594 343.736984 48.376465 344.069366 48.708848
C 344.401749 49.04123 344.85262 49.227987 345.322681 49.227987
z
" style="stroke:#000000;stroke-width:0.886227;"/>
    <path clip-path="url(#p7ad27b2d96)" d="M 94.786541 83.787987
C 95.256601 83.787987 95.707472 83.60123 96.039855 83.268848
C 96.372238 82.936465 96.558995 82.485594 96.558995 82.015533
C 96.558995 81.545473 96.372238 81.094602 96.039855 80.762219
C 95.707472 80.429837 95.256601 80.24308 94.786541 80.24308
C 94.316481 80.24308 93.865609 80.429837 93.533227 80.762219
C 93.200844 81.094602 93.014087 81.545473 93.014087 82.015533
C 93.014087 82.485594 93.200844 82.936465 93.533227 83.268848
C 93.865609 83.60123 94.316481 83.787987 94.786541 83.787987
z
" style="stroke:#000000;stroke-width:0.886227;"/>
    <path clip-path="url(#p7ad27b2d96)" d="M 387.65946 44.290844
C 388.12952 44.290844 388.580392 44.104088 388.912774 43.771705
C 389.245157 43.439322 389.431914 42.988451 389.431914 42.518391
C 389.431914 42.04833 389.245157 41.597459 388.912774 41.265076
C 388.580392 40.932694 388.12952 40.745937 387.65946 40.745937
C 387.1894 40.745937 386.738529 40.932694 386.406146 41.265076
C 386.073763 41.597459 385.887006 42.04833 385.887006 42.518391
C 385.887006 42.988451 386.073763 43.439322 386.406146 43.771705
C 386.738529 44.104088 387.1894 44.290844 387.65946 44.290844
z
" style="stroke:#000000;stroke-width:0.886227;"/>
    <path clip-path="url(#p7ad27b2d96)" d="M 116.770219 73.913702
C 117.24028 73.913702 117.691151 73.726945 118.023534 73.394562
C 118.355916 73.062179 118.542673 72.611308 118.542673 72.141248
C 118.542673 71.671188 118.355916 71.220316 118.023534 70.887934
C 117.691151 70.555551 117.24028 70.368794 116.770219 70.368794
C 116.300159 70.368794 115.849288 70.555551 115.516905 70.887934
C 115.184523 71.220316 114.997766 71.671188 114.997766 72.141248
C 114.997766 72.611308 115.184523 73.062179 115.516905 73.394562
C 115.849288 73.726945 116.300159 73.913702 116.770219 73.913702
z
" style="stroke:#000000;stroke-width:0.886227;"/>
    <path clip-path="url(#p7ad27b2d96)" d="M 115.589538 78.850844
C 116.059599 78.850844 116.51047 78.664088 116.842853 78.331705
C 117.175235 77.999322 117.361992 77.548451 117.361992 77.078391
C 117.361992 76.60833 117.175235 76.157459 116.842853 75.825076
C 116.51047 75.492694 116.059599 75.305937 115.589538 75.305937
C 115.119478 75.305937 114.668607 75.492694 114.336224 75.825076
C 114.003842 76.157459 113.817085 76.60833 113.817085 77.078391
C 113.817085 77.548451 114.003842 77.999322 114.336224 78.331705
C 114.668607 78.664088 115.119478 78.850844 115.589538 78.850844
z
" style="stroke:#000000;stroke-width:0.886227;"/>
    <path clip-path="url(#p7ad27b2d96)" d="M 133.900731 64.039416
C 134.370791 64.039416 134.821662 63.852659 135.154045 63.520276
C 135.486427 63.187893 135.673184 62.737022 135.673184 62.266962
C 135.673184 61.796902 135.486427 61.346031 135.154045 61.013648
C 134.821662 60.681265 134.370791 60.494508 133.900731 60.494508
C 133.43067 60.494508 132.979799 60.681265 132.647416 61.013648
C 132.315034 61.346031 132.128277 61.796902 132.128277 62.266962
C 132.128277 62.737022 132.315034 63.187893 132.647416 63.520276
C 132.979799 63.852659 133.43067 64.039416 133.900731 64.039416
z
" style="stroke:#000000;stroke-width:0.886227;"/>
    <path clip-path="url(#p7ad27b2d96)" d="M 72.147837 128.222273
C 72.617897 128.222273 73.068768 128.035516 73.401151 127.703133
C 73.733534 127.370751 73.920291 126.919879 73.920291 126.449819
C 73.920291 125.979759 73.733534 125.528888 73.401151 125.196505
C 73.068768 124.864122 72.617897 124.677365 72.147837 124.677365
C 71.677777 124.677365 71.226906 124.864122 70.894523 125.196505
C 70.56214 125.528888 70.375383 125.979759 70.375383 126.449819
C 70.375383 126.919879 70.56214 127.370751 70.894523 127.703133
C 71.226906 128.035516 71.677777 128.222273 72.147837 128.222273
z
" style="stroke:#000000;stroke-width:0.886227;"/>
    <path clip-path="url(#p7ad27b2d96)" d="M 63.749747 147.970844
C 64.219807 147.970844 64.670678 147.784088 65.003061 147.451705
C 65.335443 147.119322 65.5222 146.668451 65.5222 146.198391
C 65.5222 145.72833 65.335443 145.277459 65.003061 144.945076
C 64.670678 144.612694 64.219807 144.425937 63.749747 144.425937
C 63.279686 144.425937 62.828815 144.612694 62.496432 144.945076
C 62.16405 145.277459 61.977293 145.72833 61.977293 146.198391
C 61.977293 146.668451 62.16405 147.119322 62.496432 147.451705
C 62.828815 147.784088 63.279686 147.970844 63.749747 147.970844
z
" style="stroke:#000000;stroke-width:0.886227;"/>
    <path clip-path="url(#p7ad27b2d96)" d="M 90.671712 93.662273
C 91.141772 93.662273 91.592644 93.475516 91.925026 93.143133
C 92.257409 92.810751 92.444166 92.359879 92.444166 91.889819
C 92.444166 91.419759 92.257409 90.968888 91.925026 90.636505
C 91.592644 90.304122 91.141772 90.117365 90.671712 90.117365
C 90.201652 90.117365 89.750781 90.304122 89.418398 90.636505
C 89.086015 90.968888 88.899258 91.419759 88.899258 91.889819
C 88.899258 92.359879 89.086015 92.810751 89.418398 93.143133
C 89.750781 93.475516 90.201652 93.662273 90.671712 93.662273
z
" style="stroke:#000000;stroke-width:0.886227;"/>
    <path clip-path="url(#p7ad27b2d96)" d="M 73.241345 118.347987
C 73.711406 118.347987 74.162277 118.16123 74.49466 117.828848
C 74.827042 117.496465 75.013799 117.045594 75.013799 116.575533
C 75.013799 116.105473 74.827042 115.654602 74.49466 115.322219
C 74.162277 114.989837 73.711406 114.80308 73.241345 114.80308
C 72.771285 114.80308 72.320414 114.989837 71.988031 115.322219
C 71.655649 115.654602 71.468892 116.105473 71.468892 116.575533
C 71.468892 117.045594 71.655649 117.496465 71.988031 117.828848
C 72.320414 118.16123 72.771285 118.347987 73.241345 118.347987
z
" style="stroke:#000000;stroke-width:0.886227;"/>
    <path clip-path="url(#p7ad27b2d96)" d="M 63.004915 249.182273
C 63.474975 249.182273 63.925846 248.995516 64.258229 248.663133
C 64.590612 248.330751 64.777369 247.879879 64.777369 247.409819
C 64.777369 246.939759 64.590612 246.488888 64.258229 246.156505
C 63.925846 245.824122 63.474975 245.637365 63.004915 245.637365
C 62.534855 245.637365 62.083983 245.824122 61.751601 246.156505
C 61.419218 246.488888 61.232461 246.939759 61.232461 247.409819
C 61.232461 247.879879 61.419218 248.330751 61.751601 248.663133
C 62.083983 248.995516 62.534855 249.182273 63.004915 249.182273
z
" style="stroke:#000000;stroke-width:0.886227;"/>
    <path clip-path="url(#p7ad27b2d96)" d="M 90.804564 88.72513
C 91.274624 88.72513 91.725495 88.538373 92.057878 88.20599
C 92.390261 87.873608 92.577018 87.422737 92.577018 86.952676
C 92.577018 86.482616 92.390261 86.031745 92.057878 85.699362
C 91.725495 85.366979 91.274624 85.180222 90.804564 85.180222
C 90.334503 85.180222 89.883632 85.366979 89.55125 85.699362
C 89.218867 86.031745 89.03211 86.482616 89.03211 86.952676
C 89.03211 87.422737 89.218867 87.873608 89.55125 88.20599
C 89.883632 88.538373 90.334503 88.72513 90.804564 88.72513
z
" style="stroke:#000000;stroke-width:0.886227;"/>
    <path clip-path="url(#p7ad27b2d96)" d="M 63.004915 281.273702
C 63.474975 281.273702 63.925846 281.086945 64.258229 280.754562
C 64.590612 280.422179 64.777369 279.971308 64.777369 279.501248
C 64.777369 279.031188 64.590612 278.580316 64.258229 278.247934
C 63.925846 277.915551 63.474975 277.728794 63.004915 277.728794
C 62.534855 277.728794 62.083983 277.915551 61.751601 278.247934
C 61.419218 278.580316 61.232461 279.031188 61.232461 279.501248
C 61.232461 279.971308 61.419218 280.422179 61.751601 280.754562
C 62.083983 281.086945 62.534855 281.273702 63.004915 281.273702
z
" style="stroke:#000000;stroke-width:0.886227;"/>
    <path clip-path="url(#p7ad27b2d96)" d="M 158.332963 54.16513
C 158.803023 54.16513 159.253894 53.978373 159.586277 53.64599
C 159.91866 53.313608 160.105417 52.862737 160.105417 52.392676
C 160.105417 51.922616 159.91866 51.471745 159.586277 51.139362
C 159.253894 50.806979 158.803023 50.620222 158.332963 50.620222
C 157.862903 50.620222 157.412032 50.806979 157.079649 51.139362
C 156.747266 51.471745 156.560509 51.922616 156.560509 52.392676
C 156.560509 52.862737 156.747266 53.313608 157.079649 53.64599
C 157.412032 53.978373 157.862903 54.16513 158.332963 54.16513
z
" style="stroke:#000000;stroke-width:0.886227;"/>
    <path clip-path="url(#p7ad27b2d96)" d="M 63.004915 189.936559
C 63.474975 189.936559 63.925846 189.749802 64.258229 189.417419
C 64.590612 189.085036 64.777369 188.634165 64.777369 188.164105
C 64.777369 187.694045 64.590612 187.243174 64.258229 186.910791
C 63.925846 186.578408 63.474975 186.391651 63.004915 186.391651
C 62.534855 186.391651 62.083983 186.578408 61.751601 186.910791
C 61.419218 187.243174 61.232461 187.694045 61.232461 188.164105
C 61.232461 188.634165 61.419218 189.085036 61.751601 189.417419
C 62.083983 189.749802 62.534855 189.936559 63.004915 189.936559
z
" style="stroke:#000000;stroke-width:0.886227;"/>
    <path clip-path="url(#p7ad27b2d96)" d="M 77.415511 113.410844
C 77.885571 113.410844 78.336442 113.224088 78.668825 112.891705
C 79.001207 112.559322 79.187964 112.108451 79.187964 111.638391
C 79.187964 111.16833 79.001207 110.717459 78.668825 110.385076
C 78.336442 110.052694 77.885571 109.865937 77.415511 109.865937
C 76.94545 109.865937 76.494579 110.052694 76.162196 110.385076
C 75.829814 110.717459 75.643057 111.16833 75.643057 111.638391
C 75.643057 112.108451 75.829814 112.559322 76.162196 112.891705
C 76.494579 113.224088 76.94545 113.410844 77.415511 113.410844
z
" style="stroke:#000000;stroke-width:0.886227;"/>
    <path clip-path="url(#p7ad27b2d96)" d="M 63.004915 180.062273
C 63.474975 180.062273 63.925846 179.875516 64.258229 179.543133
C 64.590612 179.210751 64.777369 178.759879 64.777369 178.289819
C 64.777369 177.819759 64.590612 177.368888 64.258229 177.036505
C 63.925846 176.704122 63.474975 176.517365 63.004915 176.517365
C 62.534855 176.517365 62.083983 176.704122 61.751601 177.036505
C 61.419218 177.368888 61.232461 177.819759 61.232461 178.289819
C 61.232461 178.759879 61.419218 179.210751 61.751601 179.543133
C 62.083983 179.875516 62.534855 180.062273 63.004915 180.062273
z
" style="stroke:#000000;stroke-width:0.886227;"/>
    <path clip-path="url(#p7ad27b2d96)" d="M 127.406507 68.976559
C 127.876567 68.976559 128.327438 68.789802 128.659821 68.457419
C 128.992204 68.125036 129.17896 67.674165 129.17896 67.204105
C 129.17896 66.734045 128.992204 66.283174 128.659821 65.950791
C 128.327438 65.618408 127.876567 65.431651 127.406507 65.431651
C 126.936446 65.431651 126.485575 65.618408 126.153192 65.950791
C 125.82081 66.283174 125.634053 66.734045 125.634053 67.204105
C 125.634053 67.674165 125.82081 68.125036 126.153192 68.457419
C 126.485575 68.789802 126.936446 68.976559 127.406507 68.976559
z
" style="stroke:#000000;stroke-width:0.886227;"/>
    <path clip-path="url(#p7ad27b2d96)" d="M 90.517481 98.599416
C 90.987541 98.599416 91.438412 98.412659 91.770795 98.080276
C 92.103177 97.747893 92.289934 97.297022 92.289934 96.826962
C 92.289934 96.356902 92.103177 95.906031 91.770795 95.573648
C 91.438412 95.241265 90.987541 95.054508 90.517481 95.054508
C 90.04742 95.054508 89.596549 95.241265 89.264166 95.573648
C 88.931784 95.906031 88.745027 96.356902 88.745027 96.826962
C 88.745027 97.297022 88.931784 97.747893 89.264166 98.080276
C 89.596549 98.412659 90.04742 98.599416 90.517481 98.599416
z
" style="stroke:#000000;stroke-width:0.886227;"/>
    <path clip-path="url(#p7ad27b2d96)" d="M 72.883146 123.28513
C 73.353207 123.28513 73.804078 123.098373 74.13646 122.76599
C 74.468843 122.433608 74.6556 121.982737 74.6556 121.512676
C 74.6556 121.042616 74.468843 120.591745 74.13646 120.259362
C 73.804078 119.926979 73.353207 119.740222 72.883146 119.740222
C 72.413086 119.740222 71.962215 119.926979 71.629832 120.259362
C 71.297449 120.591745 71.110692 121.042616 71.110692 121.512676
C 71.110692 121.982737 71.297449 122.433608 71.629832 122.76599
C 71.962215 123.098373 72.413086 123.28513 72.883146 123.28513
z
" style="stroke:#000000;stroke-width:0.886227;"/>
    <path clip-path="url(#p7ad27b2d96)" d="M 63.004915 167.719416
C 63.474975 167.719416 63.925846 167.532659 64.258229 167.200276
C 64.590612 166.867893 64.777369 166.417022 64.777369 165.946962
C 64.777369 165.476902 64.590612 165.026031 64.258229 164.693648
C 63.925846 164.361265 63.474975 164.174508 63.004915 164.174508
C 62.534855 164.174508 62.083983 164.361265 61.751601 164.693648
C 61.419218 165.026031 61.232461 165.476902 61.232461 165.946962
C 61.232461 166.417022 61.419218 166.867893 61.751601 167.200276
C 62.083983 167.532659 62.534855 167.719416 63.004915 167.719416
z
" style="stroke:#000000;stroke-width:0.886227;"/>
    <path clip-path="url(#p7ad27b2d96)" d="M 67.149177 138.096559
C 67.619237 138.096559 68.070108 137.909802 68.402491 137.577419
C 68.734874 137.245036 68.921631 136.794165 68.921631 136.324105
C 68.921631 135.854045 68.734874 135.403174 68.402491 135.070791
C 68.070108 134.738408 67.619237 134.551651 67.149177 134.551651
C 66.679117 134.551651 66.228246 134.738408 65.895863 135.070791
C 65.56348 135.403174 65.376723 135.854045 65.376723 136.324105
C 65.376723 136.794165 65.56348 137.245036 65.895863 137.577419
C 66.228246 137.909802 66.679117 138.096559 67.149177 138.096559
z
" style="stroke:#000000;stroke-width:0.886227;"/>
    <path clip-path="url(#p7ad27b2d96)" d="M 63.004915 172.656559
C 63.474975 172.656559 63.925846 172.469802 64.258229 172.137419
C 64.590612 171.805036 64.777369 171.354165 64.777369 170.884105
C 64.777369 170.414045 64.590612 169.963174 64.258229 169.630791
C 63.925846 169.298408 63.474975 169.111651 63.004915 169.111651
C 62.534855 169.111651 62.083983 169.298408 61.751601 169.630791
C 61.419218 169.963174 61.232461 170.414045 61.232461 170.884105
C 61.232461 171.354165 61.419218 171.805036 61.751601 172.137419
C 62.083983 172.469802 62.534855 172.656559 63.004915 172.656559
z
" style="stroke:#000000;stroke-width:0.886227;"/>
    <path clip-path="url(#p7ad27b2d96)" d="M 63.004924 160.313702
C 63.474984 160.313702 63.925855 160.126945 64.258238 159.794562
C 64.590621 159.462179 64.777378 159.011308 64.777378 158.541248
C 64.777378 158.071188 64.590621 157.620316 64.258238 157.287934
C 63.925855 156.955551 63.474984 156.768794 63.004924 156.768794
C 62.534864 156.768794 62.083992 156.955551 61.75161 157.287934
C 61.419227 157.620316 61.23247 158.071188 61.23247 158.541248
C 61.23247 159.011308 61.419227 159.462179 61.75161 159.794562
C 62.083992 160.126945 62.534864 160.313702 63.004924 160.313702
z
" style="stroke:#000000;stroke-width:0.886227;"/>
    <path clip-path="url(#p7ad27b2d96)" d="M 83.960319 108.473702
C 84.43038 108.473702 84.881251 108.286945 85.213633 107.954562
C 85.546016 107.622179 85.732773 107.171308 85.732773 106.701248
C 85.732773 106.231188 85.546016 105.780316 85.213633 105.447934
C 84.881251 105.115551 84.43038 104.928794 83.960319 104.928794
C 83.490259 104.928794 83.039388 105.115551 82.707005 105.447934
C 82.374622 105.780316 82.187865 106.231188 82.187865 106.701248
C 82.187865 107.171308 82.374622 107.622179 82.707005 107.954562
C 83.039388 108.286945 83.490259 108.473702 83.960319 108.473702
z
" style="stroke:#000000;stroke-width:0.886227;"/>
    <path clip-path="url(#p7ad27b2d96)" d="M 89.912361 103.536559
C 90.382422 103.536559 90.833293 103.349802 91.165675 103.017419
C 91.498058 102.685036 91.684815 102.234165 91.684815 101.764105
C 91.684815 101.294045 91.498058 100.843174 91.165675 100.510791
C 90.833293 100.178408 90.382422 99.991651 89.912361 99.991651
C 89.442301 99.991651 88.99143 100.178408 88.659047 100.510791
C 88.326664 100.843174 88.139907 101.294045 88.139907 101.764105
C 88.139907 102.234165 88.326664 102.685036 88.659047 103.017419
C 88.99143 103.349802 89.442301 103.536559 89.912361 103.536559
z
" style="stroke:#000000;stroke-width:0.886227;"/>
    <path clip-path="url(#p7ad27b2d96)" d="M 63.004915 217.090844
C 63.474975 217.090844 63.925846 216.904088 64.258229 216.571705
C 64.590612 216.239322 64.777369 215.788451 64.777369 215.318391
C 64.777369 214.84833 64.590612 214.397459 64.258229 214.065076
C 63.925846 213.732694 63.474975 213.545937 63.004915 213.545937
C 62.534855 213.545937 62.083983 213.732694 61.751601 214.065076
C 61.419218 214.397459 61.232461 214.84833 61.232461 215.318391
C 61.232461 215.788451 61.419218 216.239322 61.751601 216.571705
C 62.083983 216.904088 62.534855 217.090844 63.004915 217.090844
z
" style="stroke:#000000;stroke-width:0.886227;"/>
    <path clip-path="url(#p7ad27b2d96)" d="M 63.004915 286.210844
C 63.474975 286.210844 63.925846 286.024088 64.258229 285.691705
C 64.590612 285.359322 64.777369 284.908451 64.777369 284.438391
C 64.777369 283.96833 64.590612 283.517459 64.258229 283.185076
C 63.925846 282.852694 63.474975 282.665937 63.004915 282.665937
C 62.534855 282.665937 62.083983 282.852694 61.751601 283.185076
C 61.419218 283.517459 61.232461 283.96833 61.232461 284.438391
C 61.232461 284.908451 61.419218 285.359322 61.751601 285.691705
C 62.083983 286.024088 62.534855 286.210844 63.004915 286.210844
z
" style="stroke:#000000;stroke-width:0.886227;"/>
    <path clip-path="url(#p7ad27b2d96)" d="M 63.004915 276.336559
C 63.474975 276.336559 63.925846 276.149802 64.258229 275.817419
C 64.590612 275.485036 64.777369 275.034165 64.777369 274.564105
C 64.777369 274.094045 64.590612 273.643174 64.258229 273.310791
C 63.925846 272.978408 63.474975 272.791651 63.004915 272.791651
C 62.534855 272.791651 62.083983 272.978408 61.751601 273.310791
C 61.419218 273.643174 61.232461 274.094045 61.232461 274.564105
C 61.232461 275.034165 61.419218 275.485036 61.751601 275.817419
C 62.083983 276.149802 62.534855 276.336559 63.004915 276.336559
z
" style="stroke:#000000;stroke-width:0.886227;"/>
    <path clip-path="url(#p7ad27b2d96)" d="M 63.004915 249.182273
C 63.474975 249.182273 63.925846 248.995516 64.258229 248.663133
C 64.590612 248.330751 64.777369 247.879879 64.777369 247.409819
C 64.777369 246.939759 64.590612 246.488888 64.258229 246.156505
C 63.925846 245.824122 63.474975 245.637365 63.004915 245.637365
C 62.534855 245.637365 62.083983 245.824122 61.751601 246.156505
C 61.419218 246.488888 61.232461 246.939759 61.232461 247.409819
C 61.232461 247.879879 61.419218 248.330751 61.751601 248.663133
C 62.083983 248.995516 62.534855 249.182273 63.004915 249.182273
z
" style="stroke:#000000;stroke-width:0.886227;"/>
    <path clip-path="url(#p7ad27b2d96)" d="M 63.004915 217.090844
C 63.474975 217.090844 63.925846 216.904088 64.258229 216.571705
C 64.590612 216.239322 64.777369 215.788451 64.777369 215.318391
C 64.777369 214.84833 64.590612 214.397459 64.258229 214.065076
C 63.925846 213.732694 63.474975 213.545937 63.004915 213.545937
C 62.534855 213.545937 62.083983 213.732694 61.751601 214.065076
C 61.419218 214.397459 61.232461 214.84833 61.232461 215.318391
C 61.232461 215.788451 61.419218 216.239322 61.751601 216.571705
C 62.083983 216.904088 62.534855 217.090844 63.004915 217.090844
z
" style="stroke:#000000;stroke-width:0.886227;"/>
    <path clip-path="url(#p7ad27b2d96)" d="M 63.004915 217.090844
C 63.474975 217.090844 63.925846 216.904088 64.258229 216.571705
C 64.590612 216.239322 64.777369 215.788451 64.777369 215.318391
C 64.777369 214.84833 64.590612 214.397459 64.258229 214.065076
C 63.925846 213.732694 63.474975 213.545937 63.004915 213.545937
C 62.534855 213.545937 62.083983 213.732694 61.751601 214.065076
C 61.419218 214.397459 61.232461 214.84833 61.232461 215.318391
C 61.232461 215.788451 61.419218 216.239322 61.751601 216.571705
C 62.083983 216.904088 62.534855 217.090844 63.004915 217.090844
z
" style="stroke:#000000;stroke-width:0.886227;"/>
    <path clip-path="url(#p7ad27b2d96)" d="M 63.004915 217.090844
C 63.474975 217.090844 63.925846 216.904088 64.258229 216.571705
C 64.590612 216.239322 64.777369 215.788451 64.777369 215.318391
C 64.777369 214.84833 64.590612 214.397459 64.258229 214.065076
C 63.925846 213.732694 63.474975 213.545937 63.004915 213.545937
C 62.534855 213.545937 62.083983 213.732694 61.751601 214.065076
C 61.419218 214.397459 61.232461 214.84833 61.232461 215.318391
C 61.232461 215.788451 61.419218 216.239322 61.751601 216.571705
C 62.083983 216.904088 62.534855 217.090844 63.004915 217.090844
z
" style="stroke:#000000;stroke-width:0.886227;"/>
    <path clip-path="url(#p7ad27b2d96)" d="M 63.004915 180.062273
C 63.474975 180.062273 63.925846 179.875516 64.258229 179.543133
C 64.590612 179.210751 64.777369 178.759879 64.777369 178.289819
C 64.777369 177.819759 64.590612 177.368888 64.258229 177.036505
C 63.925846 176.704122 63.474975 176.517365 63.004915 176.517365
C 62.534855 176.517365 62.083983 176.704122 61.751601 177.036505
C 61.419218 177.368888 61.232461 177.819759 61.232461 178.289819
C 61.232461 178.759879 61.419218 179.210751 61.751601 179.543133
C 62.083983 179.875516 62.534855 180.062273 63.004915 180.062273
z
" style="stroke:#000000;stroke-width:0.886227;"/>
    <path clip-path="url(#p7ad27b2d96)" d="M 63.004915 249.182273
C 63.474975 249.182273 63.925846 248.995516 64.258229 248.663133
C 64.590612 248.330751 64.777369 247.879879 64.777369 247.409819
C 64.777369 246.939759 64.590612 246.488888 64.258229 246.156505
C 63.925846 245.824122 63.474975 245.637365 63.004915 245.637365
C 62.534855 245.637365 62.083983 245.824122 61.751601 246.156505
C 61.419218 246.488888 61.232461 246.939759 61.232461 247.409819
C 61.232461 247.879879 61.419218 248.330751 61.751601 248.663133
C 62.083983 248.995516 62.534855 249.182273 63.004915 249.182273
z
" style="stroke:#000000;stroke-width:0.886227;"/>
    <path clip-path="url(#p7ad27b2d96)" d="M 63.004915 266.462273
C 63.474975 266.462273 63.925846 266.275516 64.258229 265.943133
C 64.590612 265.610751 64.777369 265.159879 64.777369 264.689819
C 64.777369 264.219759 64.590612 263.768888 64.258229 263.436505
C 63.925846 263.104122 63.474975 262.917365 63.004915 262.917365
C 62.534855 262.917365 62.083983 263.104122 61.751601 263.436505
C 61.419218 263.768888 61.232461 264.219759 61.232461 264.689819
C 61.232461 265.159879 61.419218 265.610751 61.751601 265.943133
C 62.083983 266.275516 62.534855 266.462273 63.004915 266.462273
z
" style="stroke:#000000;stroke-width:0.886227;"/>
    <path clip-path="url(#p7ad27b2d96)" d="M 63.004924 160.313702
C 63.474984 160.313702 63.925855 160.126945 64.258238 159.794562
C 64.590621 159.462179 64.777378 159.011308 64.777378 158.541248
C 64.777378 158.071188 64.590621 157.620316 64.258238 157.287934
C 63.925855 156.955551 63.474984 156.768794 63.004924 156.768794
C 62.534864 156.768794 62.083992 156.955551 61.75161 157.287934
C 61.419227 157.620316 61.23247 158.071188 61.23247 158.541248
C 61.23247 159.011308 61.419227 159.462179 61.75161 159.794562
C 62.083992 160.126945 62.534864 160.313702 63.004924 160.313702
z
" style="stroke:#000000;stroke-width:0.886227;"/>
    <path clip-path="url(#p7ad27b2d96)" d="M 63.004915 217.090844
C 63.474975 217.090844 63.925846 216.904088 64.258229 216.571705
C 64.590612 216.239322 64.777369 215.788451 64.777369 215.318391
C 64.777369 214.84833 64.590612 214.397459 64.258229 214.065076
C 63.925846 213.732694 63.474975 213.545937 63.004915 213.545937
C 62.534855 213.545937 62.083983 213.732694 61.751601 214.065076
C 61.419218 214.397459 61.232461 214.84833 61.232461 215.318391
C 61.232461 215.788451 61.419218 216.239322 61.751601 216.571705
C 62.083983 216.904088 62.534855 217.090844 63.004915 217.090844
z
" style="stroke:#000000;stroke-width:0.886227;"/>
    <path clip-path="url(#p7ad27b2d96)" d="M 63.004915 217.090844
C 63.474975 217.090844 63.925846 216.904088 64.258229 216.571705
C 64.590612 216.239322 64.777369 215.788451 64.777369 215.318391
C 64.777369 214.84833 64.590612 214.397459 64.258229 214.065076
C 63.925846 213.732694 63.474975 213.545937 63.004915 213.545937
C 62.534855 213.545937 62.083983 213.732694 61.751601 214.065076
C 61.419218 214.397459 61.232461 214.84833 61.232461 215.318391
C 61.232461 215.788451 61.419218 216.239322 61.751601 216.571705
C 62.083983 216.904088 62.534855 217.090844 63.004915 217.090844
z
" style="stroke:#000000;stroke-width:0.886227;"/>
    <path clip-path="url(#p7ad27b2d96)" d="M 63.004915 189.936559
C 63.474975 189.936559 63.925846 189.749802 64.258229 189.417419
C 64.590612 189.085036 64.777369 188.634165 64.777369 188.164105
C 64.777369 187.694045 64.590612 187.243174 64.258229 186.910791
C 63.925846 186.578408 63.474975 186.391651 63.004915 186.391651
C 62.534855 186.391651 62.083983 186.578408 61.751601 186.910791
C 61.419218 187.243174 61.232461 187.694045 61.232461 188.164105
C 61.232461 188.634165 61.419218 189.085036 61.751601 189.417419
C 62.083983 189.749802 62.534855 189.936559 63.004915 189.936559
z
" style="stroke:#000000;stroke-width:0.886227;"/>
    <path clip-path="url(#p7ad27b2d96)" d="M 63.004915 266.462273
C 63.474975 266.462273 63.925846 266.275516 64.258229 265.943133
C 64.590612 265.610751 64.777369 265.159879 64.777369 264.689819
C 64.777369 264.219759 64.590612 263.768888 64.258229 263.436505
C 63.925846 263.104122 63.474975 262.917365 63.004915 262.917365
C 62.534855 262.917365 62.083983 263.104122 61.751601 263.436505
C 61.419218 263.768888 61.232461 264.219759 61.232461 264.689819
C 61.232461 265.159879 61.419218 265.610751 61.751601 265.943133
C 62.083983 266.275516 62.534855 266.462273 63.004915 266.462273
z
" style="stroke:#000000;stroke-width:0.886227;"/>
    <path clip-path="url(#p7ad27b2d96)" d="M 63.004915 249.182273
C 63.474975 249.182273 63.925846 248.995516 64.258229 248.663133
C 64.590612 248.330751 64.777369 247.879879 64.777369 247.409819
C 64.777369 246.939759 64.590612 246.488888 64.258229 246.156505
C 63.925846 245.824122 63.474975 245.637365 63.004915 245.637365
C 62.534855 245.637365 62.083983 245.824122 61.751601 246.156505
C 61.419218 246.488888 61.232461 246.939759 61.232461 247.409819
C 61.232461 247.879879 61.419218 248.330751 61.751601 248.663133
C 62.083983 248.995516 62.534855 249.182273 63.004915 249.182273
z
" style="stroke:#000000;stroke-width:0.886227;"/>
    <path clip-path="url(#p7ad27b2d96)" d="M 63.004915 217.090844
C 63.474975 217.090844 63.925846 216.904088 64.258229 216.571705
C 64.590612 216.239322 64.777369 215.788451 64.777369 215.318391
C 64.777369 214.84833 64.590612 214.397459 64.258229 214.065076
C 63.925846 213.732694 63.474975 213.545937 63.004915 213.545937
C 62.534855 213.545937 62.083983 213.732694 61.751601 214.065076
C 61.419218 214.397459 61.232461 214.84833 61.232461 215.318391
C 61.232461 215.788451 61.419218 216.239322 61.751601 216.571705
C 62.083983 216.904088 62.534855 217.090844 63.004915 217.090844
z
" style="stroke:#000000;stroke-width:0.886227;"/>
    <path clip-path="url(#p7ad27b2d96)" d="M 63.004915 217.090844
C 63.474975 217.090844 63.925846 216.904088 64.258229 216.571705
C 64.590612 216.239322 64.777369 215.788451 64.777369 215.318391
C 64.777369 214.84833 64.590612 214.397459 64.258229 214.065076
C 63.925846 213.732694 63.474975 213.545937 63.004915 213.545937
C 62.534855 213.545937 62.083983 213.732694 61.751601 214.065076
C 61.419218 214.397459 61.232461 214.84833 61.232461 215.318391
C 61.232461 215.788451 61.419218 216.239322 61.751601 216.571705
C 62.083983 216.904088 62.534855 217.090844 63.004915 217.090844
z
" style="stroke:#000000;stroke-width:0.886227;"/>
    <path clip-path="url(#p7ad27b2d96)" d="M 63.005214 152.907987
C 63.475274 152.907987 63.926145 152.72123 64.258528 152.388848
C 64.590911 152.056465 64.777668 151.605594 64.777668 151.135533
C 64.777668 150.665473 64.590911 150.214602 64.258528 149.882219
C 63.926145 149.549837 63.475274 149.36308 63.005214 149.36308
C 62.535153 149.36308 62.084282 149.549837 61.7519 149.882219
C 61.419517 150.214602 61.23276 150.665473 61.23276 151.135533
C 61.23276 151.605594 61.419517 152.056465 61.7519 152.388848
C 62.084282 152.72123 62.535153 152.907987 63.005214 152.907987
z
" style="stroke:#000000;stroke-width:0.886227;"/>
    <path clip-path="url(#p7ad27b2d96)" d="M 64.977164 143.033702
C 65.447224 143.033702 65.898095 142.846945 66.230478 142.514562
C 66.562861 142.182179 66.749618 141.731308 66.749618 141.261248
C 66.749618 140.791188 66.562861 140.340316 66.230478 140.007934
C 65.898095 139.675551 65.447224 139.488794 64.977164 139.488794
C 64.507103 139.488794 64.056232 139.675551 63.72385 140.007934
C 63.391467 140.340316 63.20471 140.791188 63.20471 141.261248
C 63.20471 141.731308 63.391467 142.182179 63.72385 142.514562
C 64.056232 142.846945 64.507103 143.033702 64.977164 143.033702
z
" style="stroke:#000000;stroke-width:0.886227;"/>
    <path clip-path="url(#p7ad27b2d96)" d="M 147.207498 59.102273
C 147.677559 59.102273 148.12843 58.915516 148.460812 58.583133
C 148.793195 58.250751 148.979952 57.799879 148.979952 57.329819
C 148.979952 56.859759 148.793195 56.408888 148.460812 56.076505
C 148.12843 55.744122 147.677559 55.557365 147.207498 55.557365
C 146.737438 55.557365 146.286567 55.744122 145.954184 56.076505
C 145.621801 56.408888 145.435044 56.859759 145.435044 57.329819
C 145.435044 57.799879 145.621801 58.250751 145.954184 58.583133
C 146.286567 58.915516 146.737438 59.102273 147.207498 59.102273
z
" style="stroke:#000000;stroke-width:0.886227;"/>
    <path clip-path="url(#p7ad27b2d96)" d="M 63.004915 217.090844
C 63.474975 217.090844 63.925846 216.904088 64.258229 216.571705
C 64.590612 216.239322 64.777369 215.788451 64.777369 215.318391
C 64.777369 214.84833 64.590612 214.397459 64.258229 214.065076
C 63.925846 213.732694 63.474975 213.545937 63.004915 213.545937
C 62.534855 213.545937 62.083983 213.732694 61.751601 214.065076
C 61.419218 214.397459 61.232461 214.84833 61.232461 215.318391
C 61.232461 215.788451 61.419218 216.239322 61.751601 216.571705
C 62.083983 216.904088 62.534855 217.090844 63.004915 217.090844
z
" style="stroke:#000000;stroke-width:0.886227;"/>
    <path clip-path="url(#p7ad27b2d96)" d="M 63.004915 266.462273
C 63.474975 266.462273 63.925846 266.275516 64.258229 265.943133
C 64.590612 265.610751 64.777369 265.159879 64.777369 264.689819
C 64.777369 264.219759 64.590612 263.768888 64.258229 263.436505
C 63.925846 263.104122 63.474975 262.917365 63.004915 262.917365
C 62.534855 262.917365 62.083983 263.104122 61.751601 263.436505
C 61.419218 263.768888 61.232461 264.219759 61.232461 264.689819
C 61.232461 265.159879 61.419218 265.610751 61.751601 265.943133
C 62.083983 266.275516 62.534855 266.462273 63.004915 266.462273
z
" style="stroke:#000000;stroke-width:0.886227;"/>
   </g>
   <g id="PathCollection_2">
    <path clip-path="url(#p7ad27b2d96)" d="M 345.322681 49.227987
C 345.792741 49.227987 346.243612 49.04123 346.575995 48.708848
C 346.908377 48.376465 347.095134 47.925594 347.095134 47.455533
C 347.095134 46.985473 346.908377 46.534602 346.575995 46.202219
C 346.243612 45.869837 345.792741 45.68308 345.322681 45.68308
C 344.85262 45.68308 344.401749 45.869837 344.069366 46.202219
C 343.736984 46.534602 343.550227 46.985473 343.550227 47.455533
C 343.550227 47.925594 343.736984 48.376465 344.069366 48.708848
C 344.401749 49.04123 344.85262 49.227987 345.322681 49.227987
z
" style="fill:#ff0000;stroke:#ff0000;stroke-width:0.886227;"/>
    <path clip-path="url(#p7ad27b2d96)" d="M 387.65946 44.290844
C 388.12952 44.290844 388.580392 44.104088 388.912774 43.771705
C 389.245157 43.439322 389.431914 42.988451 389.431914 42.518391
C 389.431914 42.04833 389.245157 41.597459 388.912774 41.265076
C 388.580392 40.932694 388.12952 40.745937 387.65946 40.745937
C 387.1894 40.745937 386.738529 40.932694 386.406146 41.265076
C 386.073763 41.597459 385.887006 42.04833 385.887006 42.518391
C 385.887006 42.988451 386.073763 43.439322 386.406146 43.771705
C 386.738529 44.104088 387.1894 44.290844 387.65946 44.290844
z
" style="fill:#ff0000;stroke:#ff0000;stroke-width:0.886227;"/>
    <path clip-path="url(#p7ad27b2d96)" d="M 133.900731 64.039416
C 134.370791 64.039416 134.821662 63.852659 135.154045 63.520276
C 135.486427 63.187893 135.673184 62.737022 135.673184 62.266962
C 135.673184 61.796902 135.486427 61.346031 135.154045 61.013648
C 134.821662 60.681265 134.370791 60.494508 133.900731 60.494508
C 133.43067 60.494508 132.979799 60.681265 132.647416 61.013648
C 132.315034 61.346031 132.128277 61.796902 132.128277 62.266962
C 132.128277 62.737022 132.315034 63.187893 132.647416 63.520276
C 132.979799 63.852659 133.43067 64.039416 133.900731 64.039416
z
" style="fill:#ff0000;stroke:#ff0000;stroke-width:0.886227;"/>
    <path clip-path="url(#p7ad27b2d96)" d="M 158.332963 54.16513
C 158.803023 54.16513 159.253894 53.978373 159.586277 53.64599
C 159.91866 53.313608 160.105417 52.862737 160.105417 52.392676
C 160.105417 51.922616 159.91866 51.471745 159.586277 51.139362
C 159.253894 50.806979 158.803023 50.620222 158.332963 50.620222
C 157.862903 50.620222 157.412032 50.806979 157.079649 51.139362
C 156.747266 51.471745 156.560509 51.922616 156.560509 52.392676
C 156.560509 52.862737 156.747266 53.313608 157.079649 53.64599
C 157.412032 53.978373 157.862903 54.16513 158.332963 54.16513
z
" style="fill:#ff0000;stroke:#ff0000;stroke-width:0.886227;"/>
    <path clip-path="url(#p7ad27b2d96)" d="M 147.207498 59.102273
C 147.677559 59.102273 148.12843 58.915516 148.460812 58.583133
C 148.793195 58.250751 148.979952 57.799879 148.979952 57.329819
C 148.979952 56.859759 148.793195 56.408888 148.460812 56.076505
C 148.12843 55.744122 147.677559 55.557365 147.207498 55.557365
C 146.737438 55.557365 146.286567 55.744122 145.954184 56.076505
C 145.621801 56.408888 145.435044 56.859759 145.435044 57.329819
C 145.435044 57.799879 145.621801 58.250751 145.954184 58.583133
C 146.286567 58.915516 146.737438 59.102273 147.207498 59.102273
z
" style="fill:#ff0000;stroke:#ff0000;stroke-width:0.886227;"/>
   </g>
   <g id="text_12">
    <g clip-path="url(#p7ad27b2d96)">
     <!-- HALLMARK_KRAS_SIGNALING_DN -->
     <defs>
      <path d="M 9.8125 72.90625
L 19.671875 72.90625
L 19.671875 43.015625
L 55.515625 43.015625
L 55.515625 72.90625
L 65.375 72.90625
L 65.375 0
L 55.515625 0
L 55.515625 34.71875
L 19.671875 34.71875
L 19.671875 0
L 9.8125 0
z
" id="DejaVuSans-72"/>
      <path d="M 34.1875 63.1875
L 20.796875 26.90625
L 47.609375 26.90625
z
M 28.609375 72.90625
L 39.796875 72.90625
L 67.578125 0
L 57.328125 0
L 50.6875 18.703125
L 17.828125 18.703125
L 11.1875 0
L 0.78125 0
z
" id="DejaVuSans-65"/>
      <path d="M 9.8125 72.90625
L 19.671875 72.90625
L 19.671875 8.296875
L 55.171875 8.296875
L 55.171875 0
L 9.8125 0
z
" id="DejaVuSans-76"/>
      <path d="M 9.8125 72.90625
L 24.515625 72.90625
L 43.109375 23.296875
L 61.8125 72.90625
L 76.515625 72.90625
L 76.515625 0
L 66.890625 0
L 66.890625 64.015625
L 48.09375 14.015625
L 38.1875 14.015625
L 19.390625 64.015625
L 19.390625 0
L 9.8125 0
z
" id="DejaVuSans-77"/>
      <path d="M 44.390625 34.1875
Q 47.5625 33.109375 50.5625 29.59375
Q 53.5625 26.078125 56.59375 19.921875
L 66.609375 0
L 56 0
L 46.6875 18.703125
Q 43.0625 26.03125 39.671875 28.421875
Q 36.28125 30.8125 30.421875 30.8125
L 19.671875 30.8125
L 19.671875 0
L 9.8125 0
L 9.8125 72.90625
L 32.078125 72.90625
Q 44.578125 72.90625 50.734375 67.671875
Q 56.890625 62.453125 56.890625 51.90625
Q 56.890625 45.015625 53.6875 40.46875
Q 50.484375 35.9375 44.390625 34.1875
z
M 19.671875 64.796875
L 19.671875 38.921875
L 32.078125 38.921875
Q 39.203125 38.921875 42.84375 42.21875
Q 46.484375 45.515625 46.484375 51.90625
Q 46.484375 58.296875 42.84375 61.546875
Q 39.203125 64.796875 32.078125 64.796875
z
" id="DejaVuSans-82"/>
      <path d="M 9.8125 72.90625
L 19.671875 72.90625
L 19.671875 42.09375
L 52.390625 72.90625
L 65.09375 72.90625
L 28.90625 38.921875
L 67.671875 0
L 54.6875 0
L 19.671875 35.109375
L 19.671875 0
L 9.8125 0
z
" id="DejaVuSans-75"/>
      <path d="M 53.515625 70.515625
L 53.515625 60.890625
Q 47.90625 63.578125 42.921875 64.890625
Q 37.9375 66.21875 33.296875 66.21875
Q 25.25 66.21875 20.875 63.09375
Q 16.5 59.96875 16.5 54.203125
Q 16.5 49.359375 19.40625 46.890625
Q 22.3125 44.4375 30.421875 42.921875
L 36.375 41.703125
Q 47.40625 39.59375 52.65625 34.296875
Q 57.90625 29 57.90625 20.125
Q 57.90625 9.515625 50.796875 4.046875
Q 43.703125 -1.421875 29.984375 -1.421875
Q 24.8125 -1.421875 18.96875 -0.25
Q 13.140625 0.921875 6.890625 3.21875
L 6.890625 13.375
Q 12.890625 10.015625 18.65625 8.296875
Q 24.421875 6.59375 29.984375 6.59375
Q 38.421875 6.59375 43.015625 9.90625
Q 47.609375 13.234375 47.609375 19.390625
Q 47.609375 24.75 44.3125 27.78125
Q 41.015625 30.8125 33.5 32.328125
L 27.484375 33.5
Q 16.453125 35.6875 11.515625 40.375
Q 6.59375 45.0625 6.59375 53.421875
Q 6.59375 63.09375 13.40625 68.65625
Q 20.21875 74.21875 32.171875 74.21875
Q 37.3125 74.21875 42.625 73.28125
Q 47.953125 72.359375 53.515625 70.515625
z
" id="DejaVuSans-83"/>
      <path d="M 9.8125 72.90625
L 19.671875 72.90625
L 19.671875 0
L 9.8125 0
z
" id="DejaVuSans-73"/>
      <path d="M 59.515625 10.40625
L 59.515625 29.984375
L 43.40625 29.984375
L 43.40625 38.09375
L 69.28125 38.09375
L 69.28125 6.78125
Q 63.578125 2.734375 56.6875 0.65625
Q 49.8125 -1.421875 42 -1.421875
Q 24.90625 -1.421875 15.25 8.5625
Q 5.609375 18.5625 5.609375 36.375
Q 5.609375 54.25 15.25 64.234375
Q 24.90625 74.21875 42 74.21875
Q 49.125 74.21875 55.546875 72.453125
Q 61.96875 70.703125 67.390625 67.28125
L 67.390625 56.78125
Q 61.921875 61.421875 55.765625 63.765625
Q 49.609375 66.109375 42.828125 66.109375
Q 29.4375 66.109375 22.71875 58.640625
Q 16.015625 51.171875 16.015625 36.375
Q 16.015625 21.625 22.71875 14.15625
Q 29.4375 6.6875 42.828125 6.6875
Q 48.046875 6.6875 52.140625 7.59375
Q 56.25 8.5 59.515625 10.40625
z
" id="DejaVuSans-71"/>
      <path d="M 9.8125 72.90625
L 23.09375 72.90625
L 55.421875 11.921875
L 55.421875 72.90625
L 64.984375 72.90625
L 64.984375 0
L 51.703125 0
L 19.390625 60.984375
L 19.390625 0
L 9.8125 0
z
" id="DejaVuSans-78"/>
      <path d="M 19.671875 64.796875
L 19.671875 8.109375
L 31.59375 8.109375
Q 46.6875 8.109375 53.6875 14.9375
Q 60.6875 21.78125 60.6875 36.53125
Q 60.6875 51.171875 53.6875 57.984375
Q 46.6875 64.796875 31.59375 64.796875
z
M 9.8125 72.90625
L 30.078125 72.90625
Q 51.265625 72.90625 61.171875 64.09375
Q 71.09375 55.28125 71.09375 36.53125
Q 71.09375 17.671875 61.125 8.828125
Q 51.171875 0 30.078125 0
L 9.8125 0
z
" id="DejaVuSans-68"/>
     </defs>
     <g transform="translate(262.087524 51.166471)scale(0.05 -0.05)">
      <use xlink:href="#DejaVuSans-72"/>
      <use x="75.195312" xlink:href="#DejaVuSans-65"/>
      <use x="143.603516" xlink:href="#DejaVuSans-76"/>
      <use x="199.316406" xlink:href="#DejaVuSans-76"/>
      <use x="255.029297" xlink:href="#DejaVuSans-77"/>
      <use x="341.308594" xlink:href="#DejaVuSans-65"/>
      <use x="409.716797" xlink:href="#DejaVuSans-82"/>
      <use x="479.199219" xlink:href="#DejaVuSans-75"/>
      <use x="544.775391" xlink:href="#DejaVuSans-95"/>
      <use x="594.775391" xlink:href="#DejaVuSans-75"/>
      <use x="660.351562" xlink:href="#DejaVuSans-82"/>
      <use x="729.771484" xlink:href="#DejaVuSans-65"/>
      <use x="798.179688" xlink:href="#DejaVuSans-83"/>
      <use x="861.65625" xlink:href="#DejaVuSans-95"/>
      <use x="911.65625" xlink:href="#DejaVuSans-83"/>
      <use x="975.132812" xlink:href="#DejaVuSans-73"/>
      <use x="1004.625" xlink:href="#DejaVuSans-71"/>
      <use x="1082.115234" xlink:href="#DejaVuSans-78"/>
      <use x="1156.919922" xlink:href="#DejaVuSans-65"/>
      <use x="1225.328125" xlink:href="#DejaVuSans-76"/>
      <use x="1281.041016" xlink:href="#DejaVuSans-73"/>
      <use x="1310.533203" xlink:href="#DejaVuSans-78"/>
      <use x="1385.337891" xlink:href="#DejaVuSans-71"/>
      <use x="1462.828125" xlink:href="#DejaVuSans-95"/>
      <use x="1512.828125" xlink:href="#DejaVuSans-68"/>
      <use x="1589.830078" xlink:href="#DejaVuSans-78"/>
     </g>
    </g>
   </g>
   <g id="text_13">
    <g clip-path="url(#p7ad27b2d96)">
     <!-- HALLMARK_MYOGENESIS -->
     <defs>
      <path d="M -0.203125 72.90625
L 10.40625 72.90625
L 30.609375 42.921875
L 50.6875 72.90625
L 61.28125 72.90625
L 35.5 34.71875
L 35.5 0
L 25.59375 0
L 25.59375 34.71875
z
" id="DejaVuSans-89"/>
      <path d="M 39.40625 66.21875
Q 28.65625 66.21875 22.328125 58.203125
Q 16.015625 50.203125 16.015625 36.375
Q 16.015625 22.609375 22.328125 14.59375
Q 28.65625 6.59375 39.40625 6.59375
Q 50.140625 6.59375 56.421875 14.59375
Q 62.703125 22.609375 62.703125 36.375
Q 62.703125 50.203125 56.421875 58.203125
Q 50.140625 66.21875 39.40625 66.21875
z
M 39.40625 74.21875
Q 54.734375 74.21875 63.90625 63.9375
Q 73.09375 53.65625 73.09375 36.375
Q 73.09375 19.140625 63.90625 8.859375
Q 54.734375 -1.421875 39.40625 -1.421875
Q 24.03125 -1.421875 14.8125 8.828125
Q 5.609375 19.09375 5.609375 36.375
Q 5.609375 53.65625 14.8125 63.9375
Q 24.03125 74.21875 39.40625 74.21875
z
" id="DejaVuSans-79"/>
      <path d="M 9.8125 72.90625
L 55.90625 72.90625
L 55.90625 64.59375
L 19.671875 64.59375
L 19.671875 43.015625
L 54.390625 43.015625
L 54.390625 34.71875
L 19.671875 34.71875
L 19.671875 8.296875
L 56.78125 8.296875
L 56.78125 0
L 9.8125 0
z
" id="DejaVuSans-69"/>
     </defs>
     <g transform="translate(324.862585 46.229328)scale(0.05 -0.05)">
      <use xlink:href="#DejaVuSans-72"/>
      <use x="75.195312" xlink:href="#DejaVuSans-65"/>
      <use x="143.603516" xlink:href="#DejaVuSans-76"/>
      <use x="199.316406" xlink:href="#DejaVuSans-76"/>
      <use x="255.029297" xlink:href="#DejaVuSans-77"/>
      <use x="341.308594" xlink:href="#DejaVuSans-65"/>
      <use x="409.716797" xlink:href="#DejaVuSans-82"/>
      <use x="479.199219" xlink:href="#DejaVuSans-75"/>
      <use x="544.775391" xlink:href="#DejaVuSans-95"/>
      <use x="594.775391" xlink:href="#DejaVuSans-77"/>
      <use x="681.054688" xlink:href="#DejaVuSans-89"/>
      <use x="742.060547" xlink:href="#DejaVuSans-79"/>
      <use x="820.771484" xlink:href="#DejaVuSans-71"/>
      <use x="898.261719" xlink:href="#DejaVuSans-69"/>
      <use x="961.445312" xlink:href="#DejaVuSans-78"/>
      <use x="1036.25" xlink:href="#DejaVuSans-69"/>
      <use x="1099.433594" xlink:href="#DejaVuSans-83"/>
      <use x="1162.910156" xlink:href="#DejaVuSans-73"/>
      <use x="1192.402344" xlink:href="#DejaVuSans-83"/>
     </g>
    </g>
   </g>
   <g id="text_14">
    <g clip-path="url(#p7ad27b2d96)">
     <!-- HALLMARK_KRAS_SIGNALING_UP -->
     <defs>
      <path d="M 8.6875 72.90625
L 18.609375 72.90625
L 18.609375 28.609375
Q 18.609375 16.890625 22.84375 11.734375
Q 27.09375 6.59375 36.625 6.59375
Q 46.09375 6.59375 50.34375 11.734375
Q 54.59375 16.890625 54.59375 28.609375
L 54.59375 72.90625
L 64.5 72.90625
L 64.5 27.390625
Q 64.5 13.140625 57.4375 5.859375
Q 50.390625 -1.421875 36.625 -1.421875
Q 22.796875 -1.421875 15.734375 5.859375
Q 8.6875 13.140625 8.6875 27.390625
z
" id="DejaVuSans-85"/>
      <path d="M 19.671875 64.796875
L 19.671875 37.40625
L 32.078125 37.40625
Q 38.96875 37.40625 42.71875 40.96875
Q 46.484375 44.53125 46.484375 51.125
Q 46.484375 57.671875 42.71875 61.234375
Q 38.96875 64.796875 32.078125 64.796875
z
M 9.8125 72.90625
L 32.078125 72.90625
Q 44.34375 72.90625 50.609375 67.359375
Q 56.890625 61.8125 56.890625 51.125
Q 56.890625 40.328125 50.609375 34.8125
Q 44.34375 29.296875 32.078125 29.296875
L 19.671875 29.296875
L 19.671875 0
L 9.8125 0
z
" id="DejaVuSans-80"/>
     </defs>
     <g transform="translate(51.581981 65.9779)scale(0.05 -0.05)">
      <use xlink:href="#DejaVuSans-72"/>
      <use x="75.195312" xlink:href="#DejaVuSans-65"/>
      <use x="143.603516" xlink:href="#DejaVuSans-76"/>
      <use x="199.316406" xlink:href="#DejaVuSans-76"/>
      <use x="255.029297" xlink:href="#DejaVuSans-77"/>
      <use x="341.308594" xlink:href="#DejaVuSans-65"/>
      <use x="409.716797" xlink:href="#DejaVuSans-82"/>
      <use x="479.199219" xlink:href="#DejaVuSans-75"/>
      <use x="544.775391" xlink:href="#DejaVuSans-95"/>
      <use x="594.775391" xlink:href="#DejaVuSans-75"/>
      <use x="660.351562" xlink:href="#DejaVuSans-82"/>
      <use x="729.771484" xlink:href="#DejaVuSans-65"/>
      <use x="798.179688" xlink:href="#DejaVuSans-83"/>
      <use x="861.65625" xlink:href="#DejaVuSans-95"/>
      <use x="911.65625" xlink:href="#DejaVuSans-83"/>
      <use x="975.132812" xlink:href="#DejaVuSans-73"/>
      <use x="1004.625" xlink:href="#DejaVuSans-71"/>
      <use x="1082.115234" xlink:href="#DejaVuSans-78"/>
      <use x="1156.919922" xlink:href="#DejaVuSans-65"/>
      <use x="1225.328125" xlink:href="#DejaVuSans-76"/>
      <use x="1281.041016" xlink:href="#DejaVuSans-73"/>
      <use x="1310.533203" xlink:href="#DejaVuSans-78"/>
      <use x="1385.337891" xlink:href="#DejaVuSans-71"/>
      <use x="1462.828125" xlink:href="#DejaVuSans-95"/>
      <use x="1512.828125" xlink:href="#DejaVuSans-85"/>
      <use x="1586.021484" xlink:href="#DejaVuSans-80"/>
     </g>
    </g>
   </g>
   <g id="text_15">
    <g clip-path="url(#p7ad27b2d96)">
     <!-- HALLMARK_COAGULATION -->
     <defs>
      <path d="M -0.296875 72.90625
L 61.375 72.90625
L 61.375 64.59375
L 35.5 64.59375
L 35.5 0
L 25.59375 0
L 25.59375 64.59375
L -0.296875 64.59375
z
" id="DejaVuSans-84"/>
     </defs>
     <g transform="translate(91.805619 56.103614)scale(0.05 -0.05)">
      <use xlink:href="#DejaVuSans-72"/>
      <use x="75.195312" xlink:href="#DejaVuSans-65"/>
      <use x="143.603516" xlink:href="#DejaVuSans-76"/>
      <use x="199.316406" xlink:href="#DejaVuSans-76"/>
      <use x="255.029297" xlink:href="#DejaVuSans-77"/>
      <use x="341.308594" xlink:href="#DejaVuSans-65"/>
      <use x="409.716797" xlink:href="#DejaVuSans-82"/>
      <use x="479.199219" xlink:href="#DejaVuSans-75"/>
      <use x="544.775391" xlink:href="#DejaVuSans-95"/>
      <use x="594.775391" xlink:href="#DejaVuSans-67"/>
      <use x="664.599609" xlink:href="#DejaVuSans-79"/>
      <use x="743.294922" xlink:href="#DejaVuSans-65"/>
      <use x="811.6875" xlink:href="#DejaVuSans-71"/>
      <use x="889.177734" xlink:href="#DejaVuSans-85"/>
      <use x="962.371094" xlink:href="#DejaVuSans-76"/>
      <use x="1018.115234" xlink:href="#DejaVuSans-65"/>
      <use x="1086.414062" xlink:href="#DejaVuSans-84"/>
      <use x="1147.498047" xlink:href="#DejaVuSans-73"/>
      <use x="1176.990234" xlink:href="#DejaVuSans-79"/>
      <use x="1255.701172" xlink:href="#DejaVuSans-78"/>
     </g>
    </g>
   </g>
   <g id="text_16">
    <g clip-path="url(#p7ad27b2d96)">
     <!-- HALLMARK_ALLOGRAFT_REJECTION -->
     <defs>
      <path d="M 9.8125 72.90625
L 51.703125 72.90625
L 51.703125 64.59375
L 19.671875 64.59375
L 19.671875 43.109375
L 48.578125 43.109375
L 48.578125 34.8125
L 19.671875 34.8125
L 19.671875 0
L 9.8125 0
z
" id="DejaVuSans-70"/>
      <path d="M 9.8125 72.90625
L 19.671875 72.90625
L 19.671875 5.078125
Q 19.671875 -8.109375 14.671875 -14.0625
Q 9.671875 -20.015625 -1.421875 -20.015625
L -5.171875 -20.015625
L -5.171875 -11.71875
L -2.09375 -11.71875
Q 4.4375 -11.71875 7.125 -8.046875
Q 9.8125 -4.390625 9.8125 5.078125
z
" id="DejaVuSans-74"/>
     </defs>
     <g transform="translate(58.382498 61.040757)scale(0.05 -0.05)">
      <use xlink:href="#DejaVuSans-72"/>
      <use x="75.195312" xlink:href="#DejaVuSans-65"/>
      <use x="143.603516" xlink:href="#DejaVuSans-76"/>
      <use x="199.316406" xlink:href="#DejaVuSans-76"/>
      <use x="255.029297" xlink:href="#DejaVuSans-77"/>
      <use x="341.308594" xlink:href="#DejaVuSans-65"/>
      <use x="409.716797" xlink:href="#DejaVuSans-82"/>
      <use x="479.199219" xlink:href="#DejaVuSans-75"/>
      <use x="544.775391" xlink:href="#DejaVuSans-95"/>
      <use x="594.775391" xlink:href="#DejaVuSans-65"/>
      <use x="663.183594" xlink:href="#DejaVuSans-76"/>
      <use x="718.896484" xlink:href="#DejaVuSans-76"/>
      <use x="774.5625" xlink:href="#DejaVuSans-79"/>
      <use x="853.273438" xlink:href="#DejaVuSans-71"/>
      <use x="930.763672" xlink:href="#DejaVuSans-82"/>
      <use x="1000.183594" xlink:href="#DejaVuSans-65"/>
      <use x="1068.591797" xlink:href="#DejaVuSans-70"/>
      <use x="1126.095703" xlink:href="#DejaVuSans-84"/>
      <use x="1187.179688" xlink:href="#DejaVuSans-95"/>
      <use x="1237.179688" xlink:href="#DejaVuSans-82"/>
      <use x="1306.662109" xlink:href="#DejaVuSans-69"/>
      <use x="1369.845703" xlink:href="#DejaVuSans-74"/>
      <use x="1399.337891" xlink:href="#DejaVuSans-69"/>
      <use x="1462.521484" xlink:href="#DejaVuSans-67"/>
      <use x="1532.345703" xlink:href="#DejaVuSans-84"/>
      <use x="1593.429688" xlink:href="#DejaVuSans-73"/>
      <use x="1622.921875" xlink:href="#DejaVuSans-79"/>
      <use x="1701.632812" xlink:href="#DejaVuSans-78"/>
     </g>
    </g>
   </g>
  </g>
  <g id="text_17">
   <!-- ORA pathway statistics vs ranking -->
   <defs>
    <path d="M 4.203125 54.6875
L 13.1875 54.6875
L 24.421875 12.015625
L 35.59375 54.6875
L 46.1875 54.6875
L 57.421875 12.015625
L 68.609375 54.6875
L 77.59375 54.6875
L 63.28125 0
L 52.6875 0
L 40.921875 44.828125
L 29.109375 0
L 18.5 0
z
" id="DejaVuSans-119"/>
   </defs>
   <g transform="translate(91.428828 21.236671)scale(0.15 -0.15)">
    <use xlink:href="#DejaVuSans-79"/>
    <use x="78.710938" xlink:href="#DejaVuSans-82"/>
    <use x="148.130859" xlink:href="#DejaVuSans-65"/>
    <use x="216.539062" xlink:href="#DejaVuSans-32"/>
    <use x="248.326172" xlink:href="#DejaVuSans-112"/>
    <use x="311.802734" xlink:href="#DejaVuSans-97"/>
    <use x="373.082031" xlink:href="#DejaVuSans-116"/>
    <use x="412.291016" xlink:href="#DejaVuSans-104"/>
    <use x="475.669922" xlink:href="#DejaVuSans-119"/>
    <use x="557.457031" xlink:href="#DejaVuSans-97"/>
    <use x="618.736328" xlink:href="#DejaVuSans-121"/>
    <use x="677.916016" xlink:href="#DejaVuSans-32"/>
    <use x="709.703125" xlink:href="#DejaVuSans-115"/>
    <use x="761.802734" xlink:href="#DejaVuSans-116"/>
    <use x="801.011719" xlink:href="#DejaVuSans-97"/>
    <use x="862.291016" xlink:href="#DejaVuSans-116"/>
    <use x="901.5" xlink:href="#DejaVuSans-105"/>
    <use x="929.283203" xlink:href="#DejaVuSans-115"/>
    <use x="981.382812" xlink:href="#DejaVuSans-116"/>
    <use x="1020.591797" xlink:href="#DejaVuSans-105"/>
    <use x="1048.375" xlink:href="#DejaVuSans-99"/>
    <use x="1103.355469" xlink:href="#DejaVuSans-115"/>
    <use x="1155.455078" xlink:href="#DejaVuSans-32"/>
    <use x="1187.242188" xlink:href="#DejaVuSans-118"/>
    <use x="1246.421875" xlink:href="#DejaVuSans-115"/>
    <use x="1298.521484" xlink:href="#DejaVuSans-32"/>
    <use x="1330.308594" xlink:href="#DejaVuSans-114"/>
    <use x="1371.421875" xlink:href="#DejaVuSans-97"/>
    <use x="1432.701172" xlink:href="#DejaVuSans-110"/>
    <use x="1496.080078" xlink:href="#DejaVuSans-107"/>
    <use x="1553.990234" xlink:href="#DejaVuSans-105"/>
    <use x="1581.773438" xlink:href="#DejaVuSans-110"/>
    <use x="1645.152344" xlink:href="#DejaVuSans-103"/>
   </g>
  </g>
 </g>
 <defs>
  <clipPath id="p7ad27b2d96">
   <rect height="266.112" width="357.12" x="46.772188" y="30.422391"/>
  </clipPath>
 </defs>
</svg>
