<?xml version="1.0" encoding="utf-8" standalone="no"?>
<!DOCTYPE svg PUBLIC "-//W3C//DTD SVG 1.1//EN"
  "http://www.w3.org/Graphics/SVG/1.1/DTD/svg11.dtd">
<!-- Created with matplotlib (https://matplotlib.org/) -->
<svg height="322.176313pt" version="1.1" viewBox="0 0 421.029604 322.176313" width="421.029604pt" xmlns="http://www.w3.org/2000/svg" xmlns:xlink="http://www.w3.org/1999/xlink">
 <defs>
  <style type="text/css">
*{stroke-linecap:butt;stroke-linejoin:round;}
  </style>
 </defs>
 <g id="figure_1">
  <g id="patch_1">
   <path d="M 0 322.176313 
L 421.029604 322.176313 
L 421.029604 0 
L 0 0 
z
" style="fill:#ffffff;stroke:#ffffff;stroke-linejoin:miter;"/>
  </g>
  <g id="axes_1">
   <g id="patch_2">
    <path d="M 50.585938 286.695376 
L 407.705938 286.695376 
L 407.705938 20.583376 
L 50.585938 20.583376 
z
" style="fill:none;"/>
   </g>
   <g id="matplotlib.axis_1">
    <g id="xtick_1">
     <g id="line2d_1">
      <path clip-path="url(#p07373c7ecd)" d="M 139.830229 286.695376 
L 139.830229 20.583376 
" style="fill:none;stroke:#e5e5e5;stroke-width:0.8;"/>
     </g>
     <g id="line2d_2">
      <path d="M 139.830229 286.695376 
" style="fill:none;stroke:#000000;stroke-width:1.5;"/>
      <defs>
       <path d="M 0 0 
L 0 2.75 
" id="m3b6912a52c" style="stroke:#000000;"/>
      </defs>
      <g>
       <use style="stroke:#000000;" x="139.830229" xlink:href="#m3b6912a52c" y="286.695376"/>
      </g>
     </g>
     <g id="text_1">
      <!-- −0.25 -->
      <defs>
       <path d="M 10.59375 35.5 
L 73.1875 35.5 
L 73.1875 27.203125 
L 10.59375 27.203125 
z
" id="DejaVuSans-8722"/>
       <path d="M 31.78125 66.40625 
Q 24.171875 66.40625 20.328125 58.90625 
Q 16.5 51.421875 16.5 36.375 
Q 16.5 21.390625 20.328125 13.890625 
Q 24.171875 6.390625 31.78125 6.390625 
Q 39.453125 6.390625 43.28125 13.890625 
Q 47.125 21.390625 47.125 36.375 
Q 47.125 51.421875 43.28125 58.90625 
Q 39.453125 66.40625 31.78125 66.40625 
z
M 31.78125 74.21875 
Q 44.046875 74.21875 50.515625 64.515625 
Q 56.984375 54.828125 56.984375 36.375 
Q 56.984375 17.96875 50.515625 8.265625 
Q 44.046875 -1.421875 31.78125 -1.421875 
Q 19.53125 -1.421875 13.0625 8.265625 
Q 6.59375 17.96875 6.59375 36.375 
Q 6.59375 54.828125 13.0625 64.515625 
Q 19.53125 74.21875 31.78125 74.21875 
z
" id="DejaVuSans-48"/>
       <path d="M 10.6875 12.40625 
L 21 12.40625 
L 21 0 
L 10.6875 0 
z
" id="DejaVuSans-46"/>
       <path d="M 19.1875 8.296875 
L 53.609375 8.296875 
L 53.609375 0 
L 7.328125 0 
L 7.328125 8.296875 
Q 12.9375 14.109375 22.625 23.890625 
Q 32.328125 33.6875 34.8125 36.53125 
Q 39.546875 41.84375 41.421875 45.53125 
Q 43.3125 49.21875 43.3125 52.78125 
Q 43.3125 58.59375 39.234375 62.25 
Q 35.15625 65.921875 28.609375 65.921875 
Q 23.96875 65.921875 18.8125 64.3125 
Q 13.671875 62.703125 7.8125 59.421875 
L 7.8125 69.390625 
Q 13.765625 71.78125 18.9375 73 
Q 24.125 74.21875 28.421875 74.21875 
Q 39.75 74.21875 46.484375 68.546875 
Q 53.21875 62.890625 53.21875 53.421875 
Q 53.21875 48.921875 51.53125 44.890625 
Q 49.859375 40.875 45.40625 35.40625 
Q 44.1875 33.984375 37.640625 27.21875 
Q 31.109375 20.453125 19.1875 8.296875 
z
" id="DejaVuSans-50"/>
       <path d="M 10.796875 72.90625 
L 49.515625 72.90625 
L 49.515625 64.59375 
L 19.828125 64.59375 
L 19.828125 46.734375 
Q 21.96875 47.46875 24.109375 47.828125 
Q 26.265625 48.1875 28.421875 48.1875 
Q 40.625 48.1875 47.75 41.5 
Q 54.890625 34.8125 54.890625 23.390625 
Q 54.890625 11.625 47.5625 5.09375 
Q 40.234375 -1.421875 26.90625 -1.421875 
Q 22.3125 -1.421875 17.546875 -0.640625 
Q 12.796875 0.140625 7.71875 1.703125 
L 7.71875 11.625 
Q 12.109375 9.234375 16.796875 8.0625 
Q 21.484375 6.890625 26.703125 6.890625 
Q 35.15625 6.890625 40.078125 11.328125 
Q 45.015625 15.765625 45.015625 23.390625 
Q 45.015625 31 40.078125 35.4375 
Q 35.15625 39.890625 26.703125 39.890625 
Q 22.75 39.890625 18.8125 39.015625 
Q 14.890625 38.140625 10.796875 36.28125 
z
" id="DejaVuSans-53"/>
      </defs>
      <g style="fill:#4d4d4d;" transform="translate(121.443042 300.763501)scale(0.12 -0.12)">
       <use xlink:href="#DejaVuSans-8722"/>
       <use x="83.789062" xlink:href="#DejaVuSans-48"/>
       <use x="147.412109" xlink:href="#DejaVuSans-46"/>
       <use x="179.199219" xlink:href="#DejaVuSans-50"/>
       <use x="242.822266" xlink:href="#DejaVuSans-53"/>
      </g>
     </g>
    </g>
    <g id="xtick_2">
     <g id="line2d_3">
      <path clip-path="url(#p07373c7ecd)" d="M 229.110229 286.695376 
L 229.110229 20.583376 
" style="fill:none;stroke:#e5e5e5;stroke-width:0.8;"/>
     </g>
     <g id="line2d_4">
      <path d="M 229.110229 286.695376 
" style="fill:none;stroke:#000000;stroke-width:1.5;"/>
      <g>
       <use style="stroke:#000000;" x="229.110229" xlink:href="#m3b6912a52c" y="286.695376"/>
      </g>
     </g>
     <g id="text_2">
      <!-- 0 -->
      <g style="fill:#4d4d4d;" transform="translate(225.292729 300.763501)scale(0.12 -0.12)">
       <use xlink:href="#DejaVuSans-48"/>
      </g>
     </g>
    </g>
    <g id="xtick_3">
     <g id="line2d_5">
      <path clip-path="url(#p07373c7ecd)" d="M 318.390229 286.695376 
L 318.390229 20.583376 
" style="fill:none;stroke:#e5e5e5;stroke-width:0.8;"/>
     </g>
     <g id="line2d_6">
      <path d="M 318.390229 286.695376 
" style="fill:none;stroke:#000000;stroke-width:1.5;"/>
      <g>
       <use style="stroke:#000000;" x="318.390229" xlink:href="#m3b6912a52c" y="286.695376"/>
      </g>
     </g>
     <g id="text_3">
      <!-- 0.25 -->
      <g style="fill:#4d4d4d;" transform="translate(305.030854 300.763501)scale(0.12 -0.12)">
       <use xlink:href="#DejaVuSans-48"/>
       <use x="63.623047" xlink:href="#DejaVuSans-46"/>
       <use x="95.410156" xlink:href="#DejaVuSans-50"/>
       <use x="159.033203" xlink:href="#DejaVuSans-53"/>
      </g>
     </g>
    </g>
    <g id="xtick_4">
     <g id="line2d_7">
      <path clip-path="url(#p07373c7ecd)" d="M 407.670229 286.695376 
L 407.670229 20.583376 
" style="fill:none;stroke:#e5e5e5;stroke-width:0.8;"/>
     </g>
     <g id="line2d_8">
      <path d="M 407.670229 286.695376 
" style="fill:none;stroke:#000000;stroke-width:1.5;"/>
      <g>
       <use style="stroke:#000000;" x="407.670229" xlink:href="#m3b6912a52c" y="286.695376"/>
      </g>
     </g>
     <g id="text_4">
      <!-- 0.50 -->
      <g style="fill:#4d4d4d;" transform="translate(394.310854 300.763501)scale(0.12 -0.12)">
       <use xlink:href="#DejaVuSans-48"/>
       <use x="63.623047" xlink:href="#DejaVuSans-46"/>
       <use x="95.410156" xlink:href="#DejaVuSans-53"/>
       <use x="159.033203" xlink:href="#DejaVuSans-48"/>
      </g>
     </g>
    </g>
    <g id="xtick_5">
     <g id="line2d_9">
      <path clip-path="url(#p07373c7ecd)" d="M 95.190229 286.695376 
L 95.190229 20.583376 
" style="fill:none;stroke:#fafafa;"/>
     </g>
     <g id="line2d_10">
      <path d="M 95.190229 286.695376 
" style="fill:none;stroke:#000000;stroke-width:1.5;"/>
     </g>
    </g>
    <g id="xtick_6">
     <g id="line2d_11">
      <path clip-path="url(#p07373c7ecd)" d="M 184.470229 286.695376 
L 184.470229 20.583376 
" style="fill:none;stroke:#fafafa;"/>
     </g>
     <g id="line2d_12">
      <path d="M 184.470229 286.695376 
" style="fill:none;stroke:#000000;stroke-width:1.5;"/>
     </g>
    </g>
    <g id="xtick_7">
     <g id="line2d_13">
      <path clip-path="url(#p07373c7ecd)" d="M 273.750229 286.695376 
L 273.750229 20.583376 
" style="fill:none;stroke:#fafafa;"/>
     </g>
     <g id="line2d_14">
      <path d="M 273.750229 286.695376 
" style="fill:none;stroke:#000000;stroke-width:1.5;"/>
     </g>
    </g>
    <g id="xtick_8">
     <g id="line2d_15">
      <path clip-path="url(#p07373c7ecd)" d="M 363.030229 286.695376 
L 363.030229 20.583376 
" style="fill:none;stroke:#fafafa;"/>
     </g>
     <g id="line2d_16">
      <path d="M 363.030229 286.695376 
" style="fill:none;stroke:#000000;stroke-width:1.5;"/>
     </g>
    </g>
    <g id="text_5">
     <!-- FDR -->
     <defs>
      <path d="M 9.8125 72.90625 
L 51.703125 72.90625 
L 51.703125 64.59375 
L 19.671875 64.59375 
L 19.671875 43.109375 
L 48.578125 43.109375 
L 48.578125 34.8125 
L 19.671875 34.8125 
L 19.671875 0 
L 9.8125 0 
z
" id="DejaVuSans-70"/>
      <path d="M 19.671875 64.796875 
L 19.671875 8.109375 
L 31.59375 8.109375 
Q 46.6875 8.109375 53.6875 14.9375 
Q 60.6875 21.78125 60.6875 36.53125 
Q 60.6875 51.171875 53.6875 57.984375 
Q 46.6875 64.796875 31.59375 64.796875 
z
M 9.8125 72.90625 
L 30.078125 72.90625 
Q 51.265625 72.90625 61.171875 64.09375 
Q 71.09375 55.28125 71.09375 36.53125 
Q 71.09375 17.671875 61.125 8.828125 
Q 51.171875 0 30.078125 0 
L 9.8125 0 
z
" id="DejaVuSans-68"/>
      <path d="M 44.390625 34.1875 
Q 47.5625 33.109375 50.5625 29.59375 
Q 53.5625 26.078125 56.59375 19.921875 
L 66.609375 0 
L 56 0 
L 46.6875 18.703125 
Q 43.0625 26.03125 39.671875 28.421875 
Q 36.28125 30.8125 30.421875 30.8125 
L 19.671875 30.8125 
L 19.671875 0 
L 9.8125 0 
L 9.8125 72.90625 
L 32.078125 72.90625 
Q 44.578125 72.90625 50.734375 67.671875 
Q 56.890625 62.453125 56.890625 51.90625 
Q 56.890625 45.015625 53.6875 40.46875 
Q 50.484375 35.9375 44.390625 34.1875 
z
M 19.671875 64.796875 
L 19.671875 38.921875 
L 32.078125 38.921875 
Q 39.203125 38.921875 42.84375 42.21875 
Q 46.484375 45.515625 46.484375 51.90625 
Q 46.484375 58.296875 42.84375 61.546875 
Q 39.203125 64.796875 32.078125 64.796875 
z
" id="DejaVuSans-82"/>
     </defs>
     <g transform="translate(208.085938 319.056782)scale(0.15 -0.15)">
      <use xlink:href="#DejaVuSans-70"/>
      <use x="57.519531" xlink:href="#DejaVuSans-68"/>
      <use x="134.521484" xlink:href="#DejaVuSans-82"/>
     </g>
    </g>
   </g>
   <g id="matplotlib.axis_2">
    <g id="ytick_1">
     <g id="line2d_17">
      <path clip-path="url(#p07373c7ecd)" d="M 50.585938 222.828496 
L 407.705938 222.828496 
" style="fill:none;stroke:#e5e5e5;stroke-width:0.8;"/>
     </g>
     <g id="line2d_18">
      <path d="M 50.585938 222.828496 
" style="fill:none;stroke:#000000;stroke-width:1.5;"/>
      <defs>
       <path d="M 0 0 
L -2.75 0 
" id="mc1ed37be1d" style="stroke:#000000;"/>
      </defs>
      <g>
       <use style="stroke:#000000;" x="50.585938" xlink:href="#mc1ed37be1d" y="222.828496"/>
      </g>
     </g>
     <g id="text_6">
      <!-- 0.25 -->
      <g style="fill:#4d4d4d;" transform="translate(18.917188 226.139746)scale(0.12 -0.12)">
       <use xlink:href="#DejaVuSans-48"/>
       <use x="63.623047" xlink:href="#DejaVuSans-46"/>
       <use x="95.410156" xlink:href="#DejaVuSans-50"/>
       <use x="159.033203" xlink:href="#DejaVuSans-53"/>
      </g>
     </g>
    </g>
    <g id="ytick_2">
     <g id="line2d_19">
      <path clip-path="url(#p07373c7ecd)" d="M 50.585938 156.300496 
L 407.705938 156.300496 
" style="fill:none;stroke:#e5e5e5;stroke-width:0.8;"/>
     </g>
     <g id="line2d_20">
      <path d="M 50.585938 156.300496 
" style="fill:none;stroke:#000000;stroke-width:1.5;"/>
      <g>
       <use style="stroke:#000000;" x="50.585938" xlink:href="#mc1ed37be1d" y="156.300496"/>
      </g>
     </g>
     <g id="text_7">
      <!-- 0.50 -->
      <g style="fill:#4d4d4d;" transform="translate(18.917188 159.611746)scale(0.12 -0.12)">
       <use xlink:href="#DejaVuSans-48"/>
       <use x="63.623047" xlink:href="#DejaVuSans-46"/>
       <use x="95.410156" xlink:href="#DejaVuSans-53"/>
       <use x="159.033203" xlink:href="#DejaVuSans-48"/>
      </g>
     </g>
    </g>
    <g id="ytick_3">
     <g id="line2d_21">
      <path clip-path="url(#p07373c7ecd)" d="M 50.585938 89.772496 
L 407.705938 89.772496 
" style="fill:none;stroke:#e5e5e5;stroke-width:0.8;"/>
     </g>
     <g id="line2d_22">
      <path d="M 50.585938 89.772496 
" style="fill:none;stroke:#000000;stroke-width:1.5;"/>
      <g>
       <use style="stroke:#000000;" x="50.585938" xlink:href="#mc1ed37be1d" y="89.772496"/>
      </g>
     </g>
     <g id="text_8">
      <!-- 0.75 -->
      <defs>
       <path d="M 8.203125 72.90625 
L 55.078125 72.90625 
L 55.078125 68.703125 
L 28.609375 0 
L 18.3125 0 
L 43.21875 64.59375 
L 8.203125 64.59375 
z
" id="DejaVuSans-55"/>
      </defs>
      <g style="fill:#4d4d4d;" transform="translate(18.917188 93.083746)scale(0.12 -0.12)">
       <use xlink:href="#DejaVuSans-48"/>
       <use x="63.623047" xlink:href="#DejaVuSans-46"/>
       <use x="95.410156" xlink:href="#DejaVuSans-55"/>
       <use x="159.033203" xlink:href="#DejaVuSans-53"/>
      </g>
     </g>
    </g>
    <g id="ytick_4">
     <g id="line2d_23">
      <path clip-path="url(#p07373c7ecd)" d="M 50.585938 23.244496 
L 407.705938 23.244496 
" style="fill:none;stroke:#e5e5e5;stroke-width:0.8;"/>
     </g>
     <g id="line2d_24">
      <path d="M 50.585938 23.244496 
" style="fill:none;stroke:#000000;stroke-width:1.5;"/>
      <g>
       <use style="stroke:#000000;" x="50.585938" xlink:href="#mc1ed37be1d" y="23.244496"/>
      </g>
     </g>
     <g id="text_9">
      <!-- 1 -->
      <defs>
       <path d="M 12.40625 8.296875 
L 28.515625 8.296875 
L 28.515625 63.921875 
L 10.984375 60.40625 
L 10.984375 69.390625 
L 28.421875 72.90625 
L 38.28125 72.90625 
L 38.28125 8.296875 
L 54.390625 8.296875 
L 54.390625 0 
L 12.40625 0 
z
" id="DejaVuSans-49"/>
      </defs>
      <g style="fill:#4d4d4d;" transform="translate(38.000938 26.555746)scale(0.12 -0.12)">
       <use xlink:href="#DejaVuSans-49"/>
      </g>
     </g>
    </g>
    <g id="ytick_5">
     <g id="line2d_25">
      <path clip-path="url(#p07373c7ecd)" d="M 50.585938 256.092496 
L 407.705938 256.092496 
" style="fill:none;stroke:#fafafa;"/>
     </g>
     <g id="line2d_26">
      <path d="M 50.585938 256.092496 
" style="fill:none;stroke:#000000;stroke-width:1.5;"/>
     </g>
    </g>
    <g id="ytick_6">
     <g id="line2d_27">
      <path clip-path="url(#p07373c7ecd)" d="M 50.585938 189.564496 
L 407.705938 189.564496 
" style="fill:none;stroke:#fafafa;"/>
     </g>
     <g id="line2d_28">
      <path d="M 50.585938 189.564496 
" style="fill:none;stroke:#000000;stroke-width:1.5;"/>
     </g>
    </g>
    <g id="ytick_7">
     <g id="line2d_29">
      <path clip-path="url(#p07373c7ecd)" d="M 50.585938 123.036496 
L 407.705938 123.036496 
" style="fill:none;stroke:#fafafa;"/>
     </g>
     <g id="line2d_30">
      <path d="M 50.585938 123.036496 
" style="fill:none;stroke:#000000;stroke-width:1.5;"/>
     </g>
    </g>
    <g id="ytick_8">
     <g id="line2d_31">
      <path clip-path="url(#p07373c7ecd)" d="M 50.585938 56.508496 
L 407.705938 56.508496 
" style="fill:none;stroke:#fafafa;"/>
     </g>
     <g id="line2d_32">
      <path d="M 50.585938 56.508496 
" style="fill:none;stroke:#000000;stroke-width:1.5;"/>
     </g>
    </g>
    <g id="text_10">
     <!-- Percentile of ranking -->
     <defs>
      <path d="M 19.671875 64.796875 
L 19.671875 37.40625 
L 32.078125 37.40625 
Q 38.96875 37.40625 42.71875 40.96875 
Q 46.484375 44.53125 46.484375 51.125 
Q 46.484375 57.671875 42.71875 61.234375 
Q 38.96875 64.796875 32.078125 64.796875 
z
M 9.8125 72.90625 
L 32.078125 72.90625 
Q 44.34375 72.90625 50.609375 67.359375 
Q 56.890625 61.8125 56.890625 51.125 
Q 56.890625 40.328125 50.609375 34.8125 
Q 44.34375 29.296875 32.078125 29.296875 
L 19.671875 29.296875 
L 19.671875 0 
L 9.8125 0 
z
" id="DejaVuSans-80"/>
      <path d="M 56.203125 29.59375 
L 56.203125 25.203125 
L 14.890625 25.203125 
Q 15.484375 15.921875 20.484375 11.0625 
Q 25.484375 6.203125 34.421875 6.203125 
Q 39.59375 6.203125 44.453125 7.46875 
Q 49.3125 8.734375 54.109375 11.28125 
L 54.109375 2.78125 
Q 49.265625 0.734375 44.1875 -0.34375 
Q 39.109375 -1.421875 33.890625 -1.421875 
Q 20.796875 -1.421875 13.15625 6.1875 
Q 5.515625 13.8125 5.515625 26.8125 
Q 5.515625 40.234375 12.765625 48.109375 
Q 20.015625 56 32.328125 56 
Q 43.359375 56 49.78125 48.890625 
Q 56.203125 41.796875 56.203125 29.59375 
z
M 47.21875 32.234375 
Q 47.125 39.59375 43.09375 43.984375 
Q 39.0625 48.390625 32.421875 48.390625 
Q 24.90625 48.390625 20.390625 44.140625 
Q 15.875 39.890625 15.1875 32.171875 
z
" id="DejaVuSans-101"/>
      <path d="M 41.109375 46.296875 
Q 39.59375 47.171875 37.8125 47.578125 
Q 36.03125 48 33.890625 48 
Q 26.265625 48 22.1875 43.046875 
Q 18.109375 38.09375 18.109375 28.8125 
L 18.109375 0 
L 9.078125 0 
L 9.078125 54.6875 
L 18.109375 54.6875 
L 18.109375 46.1875 
Q 20.953125 51.171875 25.484375 53.578125 
Q 30.03125 56 36.53125 56 
Q 37.453125 56 38.578125 55.875 
Q 39.703125 55.765625 41.0625 55.515625 
z
" id="DejaVuSans-114"/>
      <path d="M 48.78125 52.59375 
L 48.78125 44.1875 
Q 44.96875 46.296875 41.140625 47.34375 
Q 37.3125 48.390625 33.40625 48.390625 
Q 24.65625 48.390625 19.8125 42.84375 
Q 14.984375 37.3125 14.984375 27.296875 
Q 14.984375 17.28125 19.8125 11.734375 
Q 24.65625 6.203125 33.40625 6.203125 
Q 37.3125 6.203125 41.140625 7.25 
Q 44.96875 8.296875 48.78125 10.40625 
L 48.78125 2.09375 
Q 45.015625 0.34375 40.984375 -0.53125 
Q 36.96875 -1.421875 32.421875 -1.421875 
Q 20.0625 -1.421875 12.78125 6.34375 
Q 5.515625 14.109375 5.515625 27.296875 
Q 5.515625 40.671875 12.859375 48.328125 
Q 20.21875 56 33.015625 56 
Q 37.15625 56 41.109375 55.140625 
Q 45.0625 54.296875 48.78125 52.59375 
z
" id="DejaVuSans-99"/>
      <path d="M 54.890625 33.015625 
L 54.890625 0 
L 45.90625 0 
L 45.90625 32.71875 
Q 45.90625 40.484375 42.875 44.328125 
Q 39.84375 48.1875 33.796875 48.1875 
Q 26.515625 48.1875 22.3125 43.546875 
Q 18.109375 38.921875 18.109375 30.90625 
L 18.109375 0 
L 9.078125 0 
L 9.078125 54.6875 
L 18.109375 54.6875 
L 18.109375 46.1875 
Q 21.34375 51.125 25.703125 53.5625 
Q 30.078125 56 35.796875 56 
Q 45.21875 56 50.046875 50.171875 
Q 54.890625 44.34375 54.890625 33.015625 
z
" id="DejaVuSans-110"/>
      <path d="M 18.3125 70.21875 
L 18.3125 54.6875 
L 36.8125 54.6875 
L 36.8125 47.703125 
L 18.3125 47.703125 
L 18.3125 18.015625 
Q 18.3125 11.328125 20.140625 9.421875 
Q 21.96875 7.515625 27.59375 7.515625 
L 36.8125 7.515625 
L 36.8125 0 
L 27.59375 0 
Q 17.1875 0 13.234375 3.875 
Q 9.28125 7.765625 9.28125 18.015625 
L 9.28125 47.703125 
L 2.6875 47.703125 
L 2.6875 54.6875 
L 9.28125 54.6875 
L 9.28125 70.21875 
z
" id="DejaVuSans-116"/>
      <path d="M 9.421875 54.6875 
L 18.40625 54.6875 
L 18.40625 0 
L 9.421875 0 
z
M 9.421875 75.984375 
L 18.40625 75.984375 
L 18.40625 64.59375 
L 9.421875 64.59375 
z
" id="DejaVuSans-105"/>
      <path d="M 9.421875 75.984375 
L 18.40625 75.984375 
L 18.40625 0 
L 9.421875 0 
z
" id="DejaVuSans-108"/>
      <path id="DejaVuSans-32"/>
      <path d="M 30.609375 48.390625 
Q 23.390625 48.390625 19.1875 42.75 
Q 14.984375 37.109375 14.984375 27.296875 
Q 14.984375 17.484375 19.15625 11.84375 
Q 23.34375 6.203125 30.609375 6.203125 
Q 37.796875 6.203125 41.984375 11.859375 
Q 46.1875 17.53125 46.1875 27.296875 
Q 46.1875 37.015625 41.984375 42.703125 
Q 37.796875 48.390625 30.609375 48.390625 
z
M 30.609375 56 
Q 42.328125 56 49.015625 48.375 
Q 55.71875 40.765625 55.71875 27.296875 
Q 55.71875 13.875 49.015625 6.21875 
Q 42.328125 -1.421875 30.609375 -1.421875 
Q 18.84375 -1.421875 12.171875 6.21875 
Q 5.515625 13.875 5.515625 27.296875 
Q 5.515625 40.765625 12.171875 48.375 
Q 18.84375 56 30.609375 56 
z
" id="DejaVuSans-111"/>
      <path d="M 37.109375 75.984375 
L 37.109375 68.5 
L 28.515625 68.5 
Q 23.6875 68.5 21.796875 66.546875 
Q 19.921875 64.59375 19.921875 59.515625 
L 19.921875 54.6875 
L 34.71875 54.6875 
L 34.71875 47.703125 
L 19.921875 47.703125 
L 19.921875 0 
L 10.890625 0 
L 10.890625 47.703125 
L 2.296875 47.703125 
L 2.296875 54.6875 
L 10.890625 54.6875 
L 10.890625 58.5 
Q 10.890625 67.625 15.140625 71.796875 
Q 19.390625 75.984375 28.609375 75.984375 
z
" id="DejaVuSans-102"/>
      <path d="M 34.28125 27.484375 
Q 23.390625 27.484375 19.1875 25 
Q 14.984375 22.515625 14.984375 16.5 
Q 14.984375 11.71875 18.140625 8.90625 
Q 21.296875 6.109375 26.703125 6.109375 
Q 34.1875 6.109375 38.703125 11.40625 
Q 43.21875 16.703125 43.21875 25.484375 
L 43.21875 27.484375 
z
M 52.203125 31.203125 
L 52.203125 0 
L 43.21875 0 
L 43.21875 8.296875 
Q 40.140625 3.328125 35.546875 0.953125 
Q 30.953125 -1.421875 24.3125 -1.421875 
Q 15.921875 -1.421875 10.953125 3.296875 
Q 6 8.015625 6 15.921875 
Q 6 25.140625 12.171875 29.828125 
Q 18.359375 34.515625 30.609375 34.515625 
L 43.21875 34.515625 
L 43.21875 35.40625 
Q 43.21875 41.609375 39.140625 45 
Q 35.0625 48.390625 27.6875 48.390625 
Q 23 48.390625 18.546875 47.265625 
Q 14.109375 46.140625 10.015625 43.890625 
L 10.015625 52.203125 
Q 14.9375 54.109375 19.578125 55.046875 
Q 24.21875 56 28.609375 56 
Q 40.484375 56 46.34375 49.84375 
Q 52.203125 43.703125 52.203125 31.203125 
z
" id="DejaVuSans-97"/>
      <path d="M 9.078125 75.984375 
L 18.109375 75.984375 
L 18.109375 31.109375 
L 44.921875 54.6875 
L 56.390625 54.6875 
L 27.390625 29.109375 
L 57.625 0 
L 45.90625 0 
L 18.109375 26.703125 
L 18.109375 0 
L 9.078125 0 
z
" id="DejaVuSans-107"/>
      <path d="M 45.40625 27.984375 
Q 45.40625 37.75 41.375 43.109375 
Q 37.359375 48.484375 30.078125 48.484375 
Q 22.859375 48.484375 18.828125 43.109375 
Q 14.796875 37.75 14.796875 27.984375 
Q 14.796875 18.265625 18.828125 12.890625 
Q 22.859375 7.515625 30.078125 7.515625 
Q 37.359375 7.515625 41.375 12.890625 
Q 45.40625 18.265625 45.40625 27.984375 
z
M 54.390625 6.78125 
Q 54.390625 -7.171875 48.1875 -13.984375 
Q 42 -20.796875 29.203125 -20.796875 
Q 24.46875 -20.796875 20.265625 -20.09375 
Q 16.0625 -19.390625 12.109375 -17.921875 
L 12.109375 -9.1875 
Q 16.0625 -11.328125 19.921875 -12.34375 
Q 23.78125 -13.375 27.78125 -13.375 
Q 36.625 -13.375 41.015625 -8.765625 
Q 45.40625 -4.15625 45.40625 5.171875 
L 45.40625 9.625 
Q 42.625 4.78125 38.28125 2.390625 
Q 33.9375 0 27.875 0 
Q 17.828125 0 11.671875 7.65625 
Q 5.515625 15.328125 5.515625 27.984375 
Q 5.515625 40.671875 11.671875 48.328125 
Q 17.828125 56 27.875 56 
Q 33.9375 56 38.28125 53.609375 
Q 42.625 51.21875 45.40625 46.390625 
L 45.40625 54.6875 
L 54.390625 54.6875 
z
" id="DejaVuSans-103"/>
     </defs>
     <g transform="translate(11.397656 229.709813)rotate(-90)scale(0.15 -0.15)">
      <use xlink:href="#DejaVuSans-80"/>
      <use x="60.255859" xlink:href="#DejaVuSans-101"/>
      <use x="121.779297" xlink:href="#DejaVuSans-114"/>
      <use x="162.861328" xlink:href="#DejaVuSans-99"/>
      <use x="217.841797" xlink:href="#DejaVuSans-101"/>
      <use x="279.365234" xlink:href="#DejaVuSans-110"/>
      <use x="342.744141" xlink:href="#DejaVuSans-116"/>
      <use x="381.953125" xlink:href="#DejaVuSans-105"/>
      <use x="409.736328" xlink:href="#DejaVuSans-108"/>
      <use x="437.519531" xlink:href="#DejaVuSans-101"/>
      <use x="499.042969" xlink:href="#DejaVuSans-32"/>
      <use x="530.830078" xlink:href="#DejaVuSans-111"/>
      <use x="592.011719" xlink:href="#DejaVuSans-102"/>
      <use x="627.216797" xlink:href="#DejaVuSans-32"/>
      <use x="659.003906" xlink:href="#DejaVuSans-114"/>
      <use x="700.117188" xlink:href="#DejaVuSans-97"/>
      <use x="761.396484" xlink:href="#DejaVuSans-110"/>
      <use x="824.775391" xlink:href="#DejaVuSans-107"/>
      <use x="882.685547" xlink:href="#DejaVuSans-105"/>
      <use x="910.46875" xlink:href="#DejaVuSans-110"/>
      <use x="973.847656" xlink:href="#DejaVuSans-103"/>
     </g>
    </g>
   </g>
   <g id="PathCollection_1">
    <path clip-path="url(#p07373c7ecd)" d="M 229.145938 155.41183 
C 229.615998 155.41183 230.066869 155.225073 230.399252 154.89269 
C 230.731634 154.560307 230.918391 154.109436 230.918391 153.639376 
C 230.918391 153.169316 230.731634 152.718444 230.399252 152.386062 
C 230.066869 152.053679 229.615998 151.866922 229.145938 151.866922 
C 228.675877 151.866922 228.225006 152.053679 227.892623 152.386062 
C 227.560241 152.718444 227.373484 153.169316 227.373484 153.639376 
C 227.373484 154.109436 227.560241 154.560307 227.892623 154.89269 
C 228.225006 155.225073 228.675877 155.41183 229.145938 155.41183 
z
" style="stroke:#000000;stroke-width:0.886227;"/>
    <path clip-path="url(#p07373c7ecd)" d="M 229.145938 155.41183 
C 229.615998 155.41183 230.066869 155.225073 230.399252 154.89269 
C 230.731634 154.560307 230.918391 154.109436 230.918391 153.639376 
C 230.918391 153.169316 230.731634 152.718444 230.399252 152.386062 
C 230.066869 152.053679 229.615998 151.866922 229.145938 151.866922 
C 228.675877 151.866922 228.225006 152.053679 227.892623 152.386062 
C 227.560241 152.718444 227.373484 153.169316 227.373484 153.639376 
C 227.373484 154.109436 227.560241 154.560307 227.892623 154.89269 
C 228.225006 155.225073 228.675877 155.41183 229.145938 155.41183 
z
" style="stroke:#000000;stroke-width:0.886227;"/>
    <path clip-path="url(#p07373c7ecd)" d="M 229.145938 155.41183 
C 229.615998 155.41183 230.066869 155.225073 230.399252 154.89269 
C 230.731634 154.560307 230.918391 154.109436 230.918391 153.639376 
C 230.918391 153.169316 230.731634 152.718444 230.399252 152.386062 
C 230.066869 152.053679 229.615998 151.866922 229.145938 151.866922 
C 228.675877 151.866922 228.225006 152.053679 227.892623 152.386062 
C 227.560241 152.718444 227.373484 153.169316 227.373484 153.639376 
C 227.373484 154.109436 227.560241 154.560307 227.892623 154.89269 
C 228.225006 155.225073 228.675877 155.41183 229.145938 155.41183 
z
" style="stroke:#000000;stroke-width:0.886227;"/>
    <path clip-path="url(#p07373c7ecd)" d="M 229.145938 155.41183 
C 229.615998 155.41183 230.066869 155.225073 230.399252 154.89269 
C 230.731634 154.560307 230.918391 154.109436 230.918391 153.639376 
C 230.918391 153.169316 230.731634 152.718444 230.399252 152.386062 
C 230.066869 152.053679 229.615998 151.866922 229.145938 151.866922 
C 228.675877 151.866922 228.225006 152.053679 227.892623 152.386062 
C 227.560241 152.718444 227.373484 153.169316 227.373484 153.639376 
C 227.373484 154.109436 227.560241 154.560307 227.892623 154.89269 
C 228.225006 155.225073 228.675877 155.41183 229.145938 155.41183 
z
" style="stroke:#000000;stroke-width:0.886227;"/>
    <path clip-path="url(#p07373c7ecd)" d="M 229.145938 155.41183 
C 229.615998 155.41183 230.066869 155.225073 230.399252 154.89269 
C 230.731634 154.560307 230.918391 154.109436 230.918391 153.639376 
C 230.918391 153.169316 230.731634 152.718444 230.399252 152.386062 
C 230.066869 152.053679 229.615998 151.866922 229.145938 151.866922 
C 228.675877 151.866922 228.225006 152.053679 227.892623 152.386062 
C 227.560241 152.718444 227.373484 153.169316 227.373484 153.639376 
C 227.373484 154.109436 227.560241 154.560307 227.892623 154.89269 
C 228.225006 155.225073 228.675877 155.41183 229.145938 155.41183 
z
" style="stroke:#000000;stroke-width:0.886227;"/>
    <path clip-path="url(#p07373c7ecd)" d="M 229.145938 155.41183 
C 229.615998 155.41183 230.066869 155.225073 230.399252 154.89269 
C 230.731634 154.560307 230.918391 154.109436 230.918391 153.639376 
C 230.918391 153.169316 230.731634 152.718444 230.399252 152.386062 
C 230.066869 152.053679 229.615998 151.866922 229.145938 151.866922 
C 228.675877 151.866922 228.225006 152.053679 227.892623 152.386062 
C 227.560241 152.718444 227.373484 153.169316 227.373484 153.639376 
C 227.373484 154.109436 227.560241 154.560307 227.892623 154.89269 
C 228.225006 155.225073 228.675877 155.41183 229.145938 155.41183 
z
" style="stroke:#000000;stroke-width:0.886227;"/>
    <path clip-path="url(#p07373c7ecd)" d="M 229.145938 155.41183 
C 229.615998 155.41183 230.066869 155.225073 230.399252 154.89269 
C 230.731634 154.560307 230.918391 154.109436 230.918391 153.639376 
C 230.918391 153.169316 230.731634 152.718444 230.399252 152.386062 
C 230.066869 152.053679 229.615998 151.866922 229.145938 151.866922 
C 228.675877 151.866922 228.225006 152.053679 227.892623 152.386062 
C 227.560241 152.718444 227.373484 153.169316 227.373484 153.639376 
C 227.373484 154.109436 227.560241 154.560307 227.892623 154.89269 
C 228.225006 155.225073 228.675877 155.41183 229.145938 155.41183 
z
" style="stroke:#000000;stroke-width:0.886227;"/>
    <path clip-path="url(#p07373c7ecd)" d="M 229.145938 155.41183 
C 229.615998 155.41183 230.066869 155.225073 230.399252 154.89269 
C 230.731634 154.560307 230.918391 154.109436 230.918391 153.639376 
C 230.918391 153.169316 230.731634 152.718444 230.399252 152.386062 
C 230.066869 152.053679 229.615998 151.866922 229.145938 151.866922 
C 228.675877 151.866922 228.225006 152.053679 227.892623 152.386062 
C 227.560241 152.718444 227.373484 153.169316 227.373484 153.639376 
C 227.373484 154.109436 227.560241 154.560307 227.892623 154.89269 
C 228.225006 155.225073 228.675877 155.41183 229.145938 155.41183 
z
" style="stroke:#000000;stroke-width:0.886227;"/>
    <path clip-path="url(#p07373c7ecd)" d="M 229.145938 155.41183 
C 229.615998 155.41183 230.066869 155.225073 230.399252 154.89269 
C 230.731634 154.560307 230.918391 154.109436 230.918391 153.639376 
C 230.918391 153.169316 230.731634 152.718444 230.399252 152.386062 
C 230.066869 152.053679 229.615998 151.866922 229.145938 151.866922 
C 228.675877 151.866922 228.225006 152.053679 227.892623 152.386062 
C 227.560241 152.718444 227.373484 153.169316 227.373484 153.639376 
C 227.373484 154.109436 227.560241 154.560307 227.892623 154.89269 
C 228.225006 155.225073 228.675877 155.41183 229.145938 155.41183 
z
" style="stroke:#000000;stroke-width:0.886227;"/>
    <path clip-path="url(#p07373c7ecd)" d="M 229.145938 155.41183 
C 229.615998 155.41183 230.066869 155.225073 230.399252 154.89269 
C 230.731634 154.560307 230.918391 154.109436 230.918391 153.639376 
C 230.918391 153.169316 230.731634 152.718444 230.399252 152.386062 
C 230.066869 152.053679 229.615998 151.866922 229.145938 151.866922 
C 228.675877 151.866922 228.225006 152.053679 227.892623 152.386062 
C 227.560241 152.718444 227.373484 153.169316 227.373484 153.639376 
C 227.373484 154.109436 227.560241 154.560307 227.892623 154.89269 
C 228.225006 155.225073 228.675877 155.41183 229.145938 155.41183 
z
" style="stroke:#000000;stroke-width:0.886227;"/>
    <path clip-path="url(#p07373c7ecd)" d="M 229.145938 155.41183 
C 229.615998 155.41183 230.066869 155.225073 230.399252 154.89269 
C 230.731634 154.560307 230.918391 154.109436 230.918391 153.639376 
C 230.918391 153.169316 230.731634 152.718444 230.399252 152.386062 
C 230.066869 152.053679 229.615998 151.866922 229.145938 151.866922 
C 228.675877 151.866922 228.225006 152.053679 227.892623 152.386062 
C 227.560241 152.718444 227.373484 153.169316 227.373484 153.639376 
C 227.373484 154.109436 227.560241 154.560307 227.892623 154.89269 
C 228.225006 155.225073 228.675877 155.41183 229.145938 155.41183 
z
" style="stroke:#000000;stroke-width:0.886227;"/>
    <path clip-path="url(#p07373c7ecd)" d="M 229.145938 155.41183 
C 229.615998 155.41183 230.066869 155.225073 230.399252 154.89269 
C 230.731634 154.560307 230.918391 154.109436 230.918391 153.639376 
C 230.918391 153.169316 230.731634 152.718444 230.399252 152.386062 
C 230.066869 152.053679 229.615998 151.866922 229.145938 151.866922 
C 228.675877 151.866922 228.225006 152.053679 227.892623 152.386062 
C 227.560241 152.718444 227.373484 153.169316 227.373484 153.639376 
C 227.373484 154.109436 227.560241 154.560307 227.892623 154.89269 
C 228.225006 155.225073 228.675877 155.41183 229.145938 155.41183 
z
" style="stroke:#000000;stroke-width:0.886227;"/>
    <path clip-path="url(#p07373c7ecd)" d="M 229.145938 155.41183 
C 229.615998 155.41183 230.066869 155.225073 230.399252 154.89269 
C 230.731634 154.560307 230.918391 154.109436 230.918391 153.639376 
C 230.918391 153.169316 230.731634 152.718444 230.399252 152.386062 
C 230.066869 152.053679 229.615998 151.866922 229.145938 151.866922 
C 228.675877 151.866922 228.225006 152.053679 227.892623 152.386062 
C 227.560241 152.718444 227.373484 153.169316 227.373484 153.639376 
C 227.373484 154.109436 227.560241 154.560307 227.892623 154.89269 
C 228.225006 155.225073 228.675877 155.41183 229.145938 155.41183 
z
" style="stroke:#000000;stroke-width:0.886227;"/>
    <path clip-path="url(#p07373c7ecd)" d="M 229.145938 155.41183 
C 229.615998 155.41183 230.066869 155.225073 230.399252 154.89269 
C 230.731634 154.560307 230.918391 154.109436 230.918391 153.639376 
C 230.918391 153.169316 230.731634 152.718444 230.399252 152.386062 
C 230.066869 152.053679 229.615998 151.866922 229.145938 151.866922 
C 228.675877 151.866922 228.225006 152.053679 227.892623 152.386062 
C 227.560241 152.718444 227.373484 153.169316 227.373484 153.639376 
C 227.373484 154.109436 227.560241 154.560307 227.892623 154.89269 
C 228.225006 155.225073 228.675877 155.41183 229.145938 155.41183 
z
" style="stroke:#000000;stroke-width:0.886227;"/>
    <path clip-path="url(#p07373c7ecd)" d="M 229.145938 155.41183 
C 229.615998 155.41183 230.066869 155.225073 230.399252 154.89269 
C 230.731634 154.560307 230.918391 154.109436 230.918391 153.639376 
C 230.918391 153.169316 230.731634 152.718444 230.399252 152.386062 
C 230.066869 152.053679 229.615998 151.866922 229.145938 151.866922 
C 228.675877 151.866922 228.225006 152.053679 227.892623 152.386062 
C 227.560241 152.718444 227.373484 153.169316 227.373484 153.639376 
C 227.373484 154.109436 227.560241 154.560307 227.892623 154.89269 
C 228.225006 155.225073 228.675877 155.41183 229.145938 155.41183 
z
" style="stroke:#000000;stroke-width:0.886227;"/>
    <path clip-path="url(#p07373c7ecd)" d="M 229.145938 155.41183 
C 229.615998 155.41183 230.066869 155.225073 230.399252 154.89269 
C 230.731634 154.560307 230.918391 154.109436 230.918391 153.639376 
C 230.918391 153.169316 230.731634 152.718444 230.399252 152.386062 
C 230.066869 152.053679 229.615998 151.866922 229.145938 151.866922 
C 228.675877 151.866922 228.225006 152.053679 227.892623 152.386062 
C 227.560241 152.718444 227.373484 153.169316 227.373484 153.639376 
C 227.373484 154.109436 227.560241 154.560307 227.892623 154.89269 
C 228.225006 155.225073 228.675877 155.41183 229.145938 155.41183 
z
" style="stroke:#000000;stroke-width:0.886227;"/>
    <path clip-path="url(#p07373c7ecd)" d="M 229.145938 155.41183 
C 229.615998 155.41183 230.066869 155.225073 230.399252 154.89269 
C 230.731634 154.560307 230.918391 154.109436 230.918391 153.639376 
C 230.918391 153.169316 230.731634 152.718444 230.399252 152.386062 
C 230.066869 152.053679 229.615998 151.866922 229.145938 151.866922 
C 228.675877 151.866922 228.225006 152.053679 227.892623 152.386062 
C 227.560241 152.718444 227.373484 153.169316 227.373484 153.639376 
C 227.373484 154.109436 227.560241 154.560307 227.892623 154.89269 
C 228.225006 155.225073 228.675877 155.41183 229.145938 155.41183 
z
" style="stroke:#000000;stroke-width:0.886227;"/>
    <path clip-path="url(#p07373c7ecd)" d="M 229.145938 155.41183 
C 229.615998 155.41183 230.066869 155.225073 230.399252 154.89269 
C 230.731634 154.560307 230.918391 154.109436 230.918391 153.639376 
C 230.918391 153.169316 230.731634 152.718444 230.399252 152.386062 
C 230.066869 152.053679 229.615998 151.866922 229.145938 151.866922 
C 228.675877 151.866922 228.225006 152.053679 227.892623 152.386062 
C 227.560241 152.718444 227.373484 153.169316 227.373484 153.639376 
C 227.373484 154.109436 227.560241 154.560307 227.892623 154.89269 
C 228.225006 155.225073 228.675877 155.41183 229.145938 155.41183 
z
" style="stroke:#000000;stroke-width:0.886227;"/>
    <path clip-path="url(#p07373c7ecd)" d="M 229.145938 155.41183 
C 229.615998 155.41183 230.066869 155.225073 230.399252 154.89269 
C 230.731634 154.560307 230.918391 154.109436 230.918391 153.639376 
C 230.918391 153.169316 230.731634 152.718444 230.399252 152.386062 
C 230.066869 152.053679 229.615998 151.866922 229.145938 151.866922 
C 228.675877 151.866922 228.225006 152.053679 227.892623 152.386062 
C 227.560241 152.718444 227.373484 153.169316 227.373484 153.639376 
C 227.373484 154.109436 227.560241 154.560307 227.892623 154.89269 
C 228.225006 155.225073 228.675877 155.41183 229.145938 155.41183 
z
" style="stroke:#000000;stroke-width:0.886227;"/>
    <path clip-path="url(#p07373c7ecd)" d="M 229.145938 155.41183 
C 229.615998 155.41183 230.066869 155.225073 230.399252 154.89269 
C 230.731634 154.560307 230.918391 154.109436 230.918391 153.639376 
C 230.918391 153.169316 230.731634 152.718444 230.399252 152.386062 
C 230.066869 152.053679 229.615998 151.866922 229.145938 151.866922 
C 228.675877 151.866922 228.225006 152.053679 227.892623 152.386062 
C 227.560241 152.718444 227.373484 153.169316 227.373484 153.639376 
C 227.373484 154.109436 227.560241 154.560307 227.892623 154.89269 
C 228.225006 155.225073 228.675877 155.41183 229.145938 155.41183 
z
" style="stroke:#000000;stroke-width:0.886227;"/>
    <path clip-path="url(#p07373c7ecd)" d="M 229.145938 155.41183 
C 229.615998 155.41183 230.066869 155.225073 230.399252 154.89269 
C 230.731634 154.560307 230.918391 154.109436 230.918391 153.639376 
C 230.918391 153.169316 230.731634 152.718444 230.399252 152.386062 
C 230.066869 152.053679 229.615998 151.866922 229.145938 151.866922 
C 228.675877 151.866922 228.225006 152.053679 227.892623 152.386062 
C 227.560241 152.718444 227.373484 153.169316 227.373484 153.639376 
C 227.373484 154.109436 227.560241 154.560307 227.892623 154.89269 
C 228.225006 155.225073 228.675877 155.41183 229.145938 155.41183 
z
" style="stroke:#000000;stroke-width:0.886227;"/>
    <path clip-path="url(#p07373c7ecd)" d="M 229.145938 155.41183 
C 229.615998 155.41183 230.066869 155.225073 230.399252 154.89269 
C 230.731634 154.560307 230.918391 154.109436 230.918391 153.639376 
C 230.918391 153.169316 230.731634 152.718444 230.399252 152.386062 
C 230.066869 152.053679 229.615998 151.866922 229.145938 151.866922 
C 228.675877 151.866922 228.225006 152.053679 227.892623 152.386062 
C 227.560241 152.718444 227.373484 153.169316 227.373484 153.639376 
C 227.373484 154.109436 227.560241 154.560307 227.892623 154.89269 
C 228.225006 155.225073 228.675877 155.41183 229.145938 155.41183 
z
" style="stroke:#000000;stroke-width:0.886227;"/>
    <path clip-path="url(#p07373c7ecd)" d="M 229.145938 155.41183 
C 229.615998 155.41183 230.066869 155.225073 230.399252 154.89269 
C 230.731634 154.560307 230.918391 154.109436 230.918391 153.639376 
C 230.918391 153.169316 230.731634 152.718444 230.399252 152.386062 
C 230.066869 152.053679 229.615998 151.866922 229.145938 151.866922 
C 228.675877 151.866922 228.225006 152.053679 227.892623 152.386062 
C 227.560241 152.718444 227.373484 153.169316 227.373484 153.639376 
C 227.373484 154.109436 227.560241 154.560307 227.892623 154.89269 
C 228.225006 155.225073 228.675877 155.41183 229.145938 155.41183 
z
" style="stroke:#000000;stroke-width:0.886227;"/>
    <path clip-path="url(#p07373c7ecd)" d="M 229.145938 155.41183 
C 229.615998 155.41183 230.066869 155.225073 230.399252 154.89269 
C 230.731634 154.560307 230.918391 154.109436 230.918391 153.639376 
C 230.918391 153.169316 230.731634 152.718444 230.399252 152.386062 
C 230.066869 152.053679 229.615998 151.866922 229.145938 151.866922 
C 228.675877 151.866922 228.225006 152.053679 227.892623 152.386062 
C 227.560241 152.718444 227.373484 153.169316 227.373484 153.639376 
C 227.373484 154.109436 227.560241 154.560307 227.892623 154.89269 
C 228.225006 155.225073 228.675877 155.41183 229.145938 155.41183 
z
" style="stroke:#000000;stroke-width:0.886227;"/>
    <path clip-path="url(#p07373c7ecd)" d="M 229.145938 155.41183 
C 229.615998 155.41183 230.066869 155.225073 230.399252 154.89269 
C 230.731634 154.560307 230.918391 154.109436 230.918391 153.639376 
C 230.918391 153.169316 230.731634 152.718444 230.399252 152.386062 
C 230.066869 152.053679 229.615998 151.866922 229.145938 151.866922 
C 228.675877 151.866922 228.225006 152.053679 227.892623 152.386062 
C 227.560241 152.718444 227.373484 153.169316 227.373484 153.639376 
C 227.373484 154.109436 227.560241 154.560307 227.892623 154.89269 
C 228.225006 155.225073 228.675877 155.41183 229.145938 155.41183 
z
" style="stroke:#000000;stroke-width:0.886227;"/>
    <path clip-path="url(#p07373c7ecd)" d="M 229.145938 155.41183 
C 229.615998 155.41183 230.066869 155.225073 230.399252 154.89269 
C 230.731634 154.560307 230.918391 154.109436 230.918391 153.639376 
C 230.918391 153.169316 230.731634 152.718444 230.399252 152.386062 
C 230.066869 152.053679 229.615998 151.866922 229.145938 151.866922 
C 228.675877 151.866922 228.225006 152.053679 227.892623 152.386062 
C 227.560241 152.718444 227.373484 153.169316 227.373484 153.639376 
C 227.373484 154.109436 227.560241 154.560307 227.892623 154.89269 
C 228.225006 155.225073 228.675877 155.41183 229.145938 155.41183 
z
" style="stroke:#000000;stroke-width:0.886227;"/>
    <path clip-path="url(#p07373c7ecd)" d="M 229.145938 155.41183 
C 229.615998 155.41183 230.066869 155.225073 230.399252 154.89269 
C 230.731634 154.560307 230.918391 154.109436 230.918391 153.639376 
C 230.918391 153.169316 230.731634 152.718444 230.399252 152.386062 
C 230.066869 152.053679 229.615998 151.866922 229.145938 151.866922 
C 228.675877 151.866922 228.225006 152.053679 227.892623 152.386062 
C 227.560241 152.718444 227.373484 153.169316 227.373484 153.639376 
C 227.373484 154.109436 227.560241 154.560307 227.892623 154.89269 
C 228.225006 155.225073 228.675877 155.41183 229.145938 155.41183 
z
" style="stroke:#000000;stroke-width:0.886227;"/>
    <path clip-path="url(#p07373c7ecd)" d="M 229.145938 155.41183 
C 229.615998 155.41183 230.066869 155.225073 230.399252 154.89269 
C 230.731634 154.560307 230.918391 154.109436 230.918391 153.639376 
C 230.918391 153.169316 230.731634 152.718444 230.399252 152.386062 
C 230.066869 152.053679 229.615998 151.866922 229.145938 151.866922 
C 228.675877 151.866922 228.225006 152.053679 227.892623 152.386062 
C 227.560241 152.718444 227.373484 153.169316 227.373484 153.639376 
C 227.373484 154.109436 227.560241 154.560307 227.892623 154.89269 
C 228.225006 155.225073 228.675877 155.41183 229.145938 155.41183 
z
" style="stroke:#000000;stroke-width:0.886227;"/>
    <path clip-path="url(#p07373c7ecd)" d="M 229.145938 155.41183 
C 229.615998 155.41183 230.066869 155.225073 230.399252 154.89269 
C 230.731634 154.560307 230.918391 154.109436 230.918391 153.639376 
C 230.918391 153.169316 230.731634 152.718444 230.399252 152.386062 
C 230.066869 152.053679 229.615998 151.866922 229.145938 151.866922 
C 228.675877 151.866922 228.225006 152.053679 227.892623 152.386062 
C 227.560241 152.718444 227.373484 153.169316 227.373484 153.639376 
C 227.373484 154.109436 227.560241 154.560307 227.892623 154.89269 
C 228.225006 155.225073 228.675877 155.41183 229.145938 155.41183 
z
" style="stroke:#000000;stroke-width:0.886227;"/>
    <path clip-path="url(#p07373c7ecd)" d="M 229.145938 155.41183 
C 229.615998 155.41183 230.066869 155.225073 230.399252 154.89269 
C 230.731634 154.560307 230.918391 154.109436 230.918391 153.639376 
C 230.918391 153.169316 230.731634 152.718444 230.399252 152.386062 
C 230.066869 152.053679 229.615998 151.866922 229.145938 151.866922 
C 228.675877 151.866922 228.225006 152.053679 227.892623 152.386062 
C 227.560241 152.718444 227.373484 153.169316 227.373484 153.639376 
C 227.373484 154.109436 227.560241 154.560307 227.892623 154.89269 
C 228.225006 155.225073 228.675877 155.41183 229.145938 155.41183 
z
" style="stroke:#000000;stroke-width:0.886227;"/>
    <path clip-path="url(#p07373c7ecd)" d="M 229.145938 155.41183 
C 229.615998 155.41183 230.066869 155.225073 230.399252 154.89269 
C 230.731634 154.560307 230.918391 154.109436 230.918391 153.639376 
C 230.918391 153.169316 230.731634 152.718444 230.399252 152.386062 
C 230.066869 152.053679 229.615998 151.866922 229.145938 151.866922 
C 228.675877 151.866922 228.225006 152.053679 227.892623 152.386062 
C 227.560241 152.718444 227.373484 153.169316 227.373484 153.639376 
C 227.373484 154.109436 227.560241 154.560307 227.892623 154.89269 
C 228.225006 155.225073 228.675877 155.41183 229.145938 155.41183 
z
" style="stroke:#000000;stroke-width:0.886227;"/>
    <path clip-path="url(#p07373c7ecd)" d="M 229.145938 155.41183 
C 229.615998 155.41183 230.066869 155.225073 230.399252 154.89269 
C 230.731634 154.560307 230.918391 154.109436 230.918391 153.639376 
C 230.918391 153.169316 230.731634 152.718444 230.399252 152.386062 
C 230.066869 152.053679 229.615998 151.866922 229.145938 151.866922 
C 228.675877 151.866922 228.225006 152.053679 227.892623 152.386062 
C 227.560241 152.718444 227.373484 153.169316 227.373484 153.639376 
C 227.373484 154.109436 227.560241 154.560307 227.892623 154.89269 
C 228.225006 155.225073 228.675877 155.41183 229.145938 155.41183 
z
" style="stroke:#000000;stroke-width:0.886227;"/>
    <path clip-path="url(#p07373c7ecd)" d="M 229.145938 155.41183 
C 229.615998 155.41183 230.066869 155.225073 230.399252 154.89269 
C 230.731634 154.560307 230.918391 154.109436 230.918391 153.639376 
C 230.918391 153.169316 230.731634 152.718444 230.399252 152.386062 
C 230.066869 152.053679 229.615998 151.866922 229.145938 151.866922 
C 228.675877 151.866922 228.225006 152.053679 227.892623 152.386062 
C 227.560241 152.718444 227.373484 153.169316 227.373484 153.639376 
C 227.373484 154.109436 227.560241 154.560307 227.892623 154.89269 
C 228.225006 155.225073 228.675877 155.41183 229.145938 155.41183 
z
" style="stroke:#000000;stroke-width:0.886227;"/>
    <path clip-path="url(#p07373c7ecd)" d="M 229.145938 155.41183 
C 229.615998 155.41183 230.066869 155.225073 230.399252 154.89269 
C 230.731634 154.560307 230.918391 154.109436 230.918391 153.639376 
C 230.918391 153.169316 230.731634 152.718444 230.399252 152.386062 
C 230.066869 152.053679 229.615998 151.866922 229.145938 151.866922 
C 228.675877 151.866922 228.225006 152.053679 227.892623 152.386062 
C 227.560241 152.718444 227.373484 153.169316 227.373484 153.639376 
C 227.373484 154.109436 227.560241 154.560307 227.892623 154.89269 
C 228.225006 155.225073 228.675877 155.41183 229.145938 155.41183 
z
" style="stroke:#000000;stroke-width:0.886227;"/>
    <path clip-path="url(#p07373c7ecd)" d="M 229.145938 155.41183 
C 229.615998 155.41183 230.066869 155.225073 230.399252 154.89269 
C 230.731634 154.560307 230.918391 154.109436 230.918391 153.639376 
C 230.918391 153.169316 230.731634 152.718444 230.399252 152.386062 
C 230.066869 152.053679 229.615998 151.866922 229.145938 151.866922 
C 228.675877 151.866922 228.225006 152.053679 227.892623 152.386062 
C 227.560241 152.718444 227.373484 153.169316 227.373484 153.639376 
C 227.373484 154.109436 227.560241 154.560307 227.892623 154.89269 
C 228.225006 155.225073 228.675877 155.41183 229.145938 155.41183 
z
" style="stroke:#000000;stroke-width:0.886227;"/>
    <path clip-path="url(#p07373c7ecd)" d="M 229.145938 155.41183 
C 229.615998 155.41183 230.066869 155.225073 230.399252 154.89269 
C 230.731634 154.560307 230.918391 154.109436 230.918391 153.639376 
C 230.918391 153.169316 230.731634 152.718444 230.399252 152.386062 
C 230.066869 152.053679 229.615998 151.866922 229.145938 151.866922 
C 228.675877 151.866922 228.225006 152.053679 227.892623 152.386062 
C 227.560241 152.718444 227.373484 153.169316 227.373484 153.639376 
C 227.373484 154.109436 227.560241 154.560307 227.892623 154.89269 
C 228.225006 155.225073 228.675877 155.41183 229.145938 155.41183 
z
" style="stroke:#000000;stroke-width:0.886227;"/>
    <path clip-path="url(#p07373c7ecd)" d="M 229.145938 155.41183 
C 229.615998 155.41183 230.066869 155.225073 230.399252 154.89269 
C 230.731634 154.560307 230.918391 154.109436 230.918391 153.639376 
C 230.918391 153.169316 230.731634 152.718444 230.399252 152.386062 
C 230.066869 152.053679 229.615998 151.866922 229.145938 151.866922 
C 228.675877 151.866922 228.225006 152.053679 227.892623 152.386062 
C 227.560241 152.718444 227.373484 153.169316 227.373484 153.639376 
C 227.373484 154.109436 227.560241 154.560307 227.892623 154.89269 
C 228.225006 155.225073 228.675877 155.41183 229.145938 155.41183 
z
" style="stroke:#000000;stroke-width:0.886227;"/>
    <path clip-path="url(#p07373c7ecd)" d="M 229.145938 155.41183 
C 229.615998 155.41183 230.066869 155.225073 230.399252 154.89269 
C 230.731634 154.560307 230.918391 154.109436 230.918391 153.639376 
C 230.918391 153.169316 230.731634 152.718444 230.399252 152.386062 
C 230.066869 152.053679 229.615998 151.866922 229.145938 151.866922 
C 228.675877 151.866922 228.225006 152.053679 227.892623 152.386062 
C 227.560241 152.718444 227.373484 153.169316 227.373484 153.639376 
C 227.373484 154.109436 227.560241 154.560307 227.892623 154.89269 
C 228.225006 155.225073 228.675877 155.41183 229.145938 155.41183 
z
" style="stroke:#000000;stroke-width:0.886227;"/>
    <path clip-path="url(#p07373c7ecd)" d="M 229.145938 155.41183 
C 229.615998 155.41183 230.066869 155.225073 230.399252 154.89269 
C 230.731634 154.560307 230.918391 154.109436 230.918391 153.639376 
C 230.918391 153.169316 230.731634 152.718444 230.399252 152.386062 
C 230.066869 152.053679 229.615998 151.866922 229.145938 151.866922 
C 228.675877 151.866922 228.225006 152.053679 227.892623 152.386062 
C 227.560241 152.718444 227.373484 153.169316 227.373484 153.639376 
C 227.373484 154.109436 227.560241 154.560307 227.892623 154.89269 
C 228.225006 155.225073 228.675877 155.41183 229.145938 155.41183 
z
" style="stroke:#000000;stroke-width:0.886227;"/>
    <path clip-path="url(#p07373c7ecd)" d="M 229.145938 155.41183 
C 229.615998 155.41183 230.066869 155.225073 230.399252 154.89269 
C 230.731634 154.560307 230.918391 154.109436 230.918391 153.639376 
C 230.918391 153.169316 230.731634 152.718444 230.399252 152.386062 
C 230.066869 152.053679 229.615998 151.866922 229.145938 151.866922 
C 228.675877 151.866922 228.225006 152.053679 227.892623 152.386062 
C 227.560241 152.718444 227.373484 153.169316 227.373484 153.639376 
C 227.373484 154.109436 227.560241 154.560307 227.892623 154.89269 
C 228.225006 155.225073 228.675877 155.41183 229.145938 155.41183 
z
" style="stroke:#000000;stroke-width:0.886227;"/>
    <path clip-path="url(#p07373c7ecd)" d="M 229.145938 155.41183 
C 229.615998 155.41183 230.066869 155.225073 230.399252 154.89269 
C 230.731634 154.560307 230.918391 154.109436 230.918391 153.639376 
C 230.918391 153.169316 230.731634 152.718444 230.399252 152.386062 
C 230.066869 152.053679 229.615998 151.866922 229.145938 151.866922 
C 228.675877 151.866922 228.225006 152.053679 227.892623 152.386062 
C 227.560241 152.718444 227.373484 153.169316 227.373484 153.639376 
C 227.373484 154.109436 227.560241 154.560307 227.892623 154.89269 
C 228.225006 155.225073 228.675877 155.41183 229.145938 155.41183 
z
" style="stroke:#000000;stroke-width:0.886227;"/>
    <path clip-path="url(#p07373c7ecd)" d="M 229.145938 155.41183 
C 229.615998 155.41183 230.066869 155.225073 230.399252 154.89269 
C 230.731634 154.560307 230.918391 154.109436 230.918391 153.639376 
C 230.918391 153.169316 230.731634 152.718444 230.399252 152.386062 
C 230.066869 152.053679 229.615998 151.866922 229.145938 151.866922 
C 228.675877 151.866922 228.225006 152.053679 227.892623 152.386062 
C 227.560241 152.718444 227.373484 153.169316 227.373484 153.639376 
C 227.373484 154.109436 227.560241 154.560307 227.892623 154.89269 
C 228.225006 155.225073 228.675877 155.41183 229.145938 155.41183 
z
" style="stroke:#000000;stroke-width:0.886227;"/>
    <path clip-path="url(#p07373c7ecd)" d="M 229.145938 155.41183 
C 229.615998 155.41183 230.066869 155.225073 230.399252 154.89269 
C 230.731634 154.560307 230.918391 154.109436 230.918391 153.639376 
C 230.918391 153.169316 230.731634 152.718444 230.399252 152.386062 
C 230.066869 152.053679 229.615998 151.866922 229.145938 151.866922 
C 228.675877 151.866922 228.225006 152.053679 227.892623 152.386062 
C 227.560241 152.718444 227.373484 153.169316 227.373484 153.639376 
C 227.373484 154.109436 227.560241 154.560307 227.892623 154.89269 
C 228.225006 155.225073 228.675877 155.41183 229.145938 155.41183 
z
" style="stroke:#000000;stroke-width:0.886227;"/>
    <path clip-path="url(#p07373c7ecd)" d="M 229.145938 155.41183 
C 229.615998 155.41183 230.066869 155.225073 230.399252 154.89269 
C 230.731634 154.560307 230.918391 154.109436 230.918391 153.639376 
C 230.918391 153.169316 230.731634 152.718444 230.399252 152.386062 
C 230.066869 152.053679 229.615998 151.866922 229.145938 151.866922 
C 228.675877 151.866922 228.225006 152.053679 227.892623 152.386062 
C 227.560241 152.718444 227.373484 153.169316 227.373484 153.639376 
C 227.373484 154.109436 227.560241 154.560307 227.892623 154.89269 
C 228.225006 155.225073 228.675877 155.41183 229.145938 155.41183 
z
" style="stroke:#000000;stroke-width:0.886227;"/>
    <path clip-path="url(#p07373c7ecd)" d="M 229.145938 155.41183 
C 229.615998 155.41183 230.066869 155.225073 230.399252 154.89269 
C 230.731634 154.560307 230.918391 154.109436 230.918391 153.639376 
C 230.918391 153.169316 230.731634 152.718444 230.399252 152.386062 
C 230.066869 152.053679 229.615998 151.866922 229.145938 151.866922 
C 228.675877 151.866922 228.225006 152.053679 227.892623 152.386062 
C 227.560241 152.718444 227.373484 153.169316 227.373484 153.639376 
C 227.373484 154.109436 227.560241 154.560307 227.892623 154.89269 
C 228.225006 155.225073 228.675877 155.41183 229.145938 155.41183 
z
" style="stroke:#000000;stroke-width:0.886227;"/>
    <path clip-path="url(#p07373c7ecd)" d="M 229.145938 155.41183 
C 229.615998 155.41183 230.066869 155.225073 230.399252 154.89269 
C 230.731634 154.560307 230.918391 154.109436 230.918391 153.639376 
C 230.918391 153.169316 230.731634 152.718444 230.399252 152.386062 
C 230.066869 152.053679 229.615998 151.866922 229.145938 151.866922 
C 228.675877 151.866922 228.225006 152.053679 227.892623 152.386062 
C 227.560241 152.718444 227.373484 153.169316 227.373484 153.639376 
C 227.373484 154.109436 227.560241 154.560307 227.892623 154.89269 
C 228.225006 155.225073 228.675877 155.41183 229.145938 155.41183 
z
" style="stroke:#000000;stroke-width:0.886227;"/>
    <path clip-path="url(#p07373c7ecd)" d="M 229.145938 155.41183 
C 229.615998 155.41183 230.066869 155.225073 230.399252 154.89269 
C 230.731634 154.560307 230.918391 154.109436 230.918391 153.639376 
C 230.918391 153.169316 230.731634 152.718444 230.399252 152.386062 
C 230.066869 152.053679 229.615998 151.866922 229.145938 151.866922 
C 228.675877 151.866922 228.225006 152.053679 227.892623 152.386062 
C 227.560241 152.718444 227.373484 153.169316 227.373484 153.639376 
C 227.373484 154.109436 227.560241 154.560307 227.892623 154.89269 
C 228.225006 155.225073 228.675877 155.41183 229.145938 155.41183 
z
" style="stroke:#000000;stroke-width:0.886227;"/>
    <path clip-path="url(#p07373c7ecd)" d="M 229.145938 155.41183 
C 229.615998 155.41183 230.066869 155.225073 230.399252 154.89269 
C 230.731634 154.560307 230.918391 154.109436 230.918391 153.639376 
C 230.918391 153.169316 230.731634 152.718444 230.399252 152.386062 
C 230.066869 152.053679 229.615998 151.866922 229.145938 151.866922 
C 228.675877 151.866922 228.225006 152.053679 227.892623 152.386062 
C 227.560241 152.718444 227.373484 153.169316 227.373484 153.639376 
C 227.373484 154.109436 227.560241 154.560307 227.892623 154.89269 
C 228.225006 155.225073 228.675877 155.41183 229.145938 155.41183 
z
" style="stroke:#000000;stroke-width:0.886227;"/>
    <path clip-path="url(#p07373c7ecd)" d="M 229.145938 155.41183 
C 229.615998 155.41183 230.066869 155.225073 230.399252 154.89269 
C 230.731634 154.560307 230.918391 154.109436 230.918391 153.639376 
C 230.918391 153.169316 230.731634 152.718444 230.399252 152.386062 
C 230.066869 152.053679 229.615998 151.866922 229.145938 151.866922 
C 228.675877 151.866922 228.225006 152.053679 227.892623 152.386062 
C 227.560241 152.718444 227.373484 153.169316 227.373484 153.639376 
C 227.373484 154.109436 227.560241 154.560307 227.892623 154.89269 
C 228.225006 155.225073 228.675877 155.41183 229.145938 155.41183 
z
" style="stroke:#000000;stroke-width:0.886227;"/>
    <path clip-path="url(#p07373c7ecd)" d="M 229.145938 155.41183 
C 229.615998 155.41183 230.066869 155.225073 230.399252 154.89269 
C 230.731634 154.560307 230.918391 154.109436 230.918391 153.639376 
C 230.918391 153.169316 230.731634 152.718444 230.399252 152.386062 
C 230.066869 152.053679 229.615998 151.866922 229.145938 151.866922 
C 228.675877 151.866922 228.225006 152.053679 227.892623 152.386062 
C 227.560241 152.718444 227.373484 153.169316 227.373484 153.639376 
C 227.373484 154.109436 227.560241 154.560307 227.892623 154.89269 
C 228.225006 155.225073 228.675877 155.41183 229.145938 155.41183 
z
" style="stroke:#000000;stroke-width:0.886227;"/>
   </g>
  </g>
  <g id="text_11">
   <!-- ROAST pathway statistics vs ranking -->
   <defs>
    <path d="M 39.40625 66.21875 
Q 28.65625 66.21875 22.328125 58.203125 
Q 16.015625 50.203125 16.015625 36.375 
Q 16.015625 22.609375 22.328125 14.59375 
Q 28.65625 6.59375 39.40625 6.59375 
Q 50.140625 6.59375 56.421875 14.59375 
Q 62.703125 22.609375 62.703125 36.375 
Q 62.703125 50.203125 56.421875 58.203125 
Q 50.140625 66.21875 39.40625 66.21875 
z
M 39.40625 74.21875 
Q 54.734375 74.21875 63.90625 63.9375 
Q 73.09375 53.65625 73.09375 36.375 
Q 73.09375 19.140625 63.90625 8.859375 
Q 54.734375 -1.421875 39.40625 -1.421875 
Q 24.03125 -1.421875 14.8125 8.828125 
Q 5.609375 19.09375 5.609375 36.375 
Q 5.609375 53.65625 14.8125 63.9375 
Q 24.03125 74.21875 39.40625 74.21875 
z
" id="DejaVuSans-79"/>
    <path d="M 34.1875 63.1875 
L 20.796875 26.90625 
L 47.609375 26.90625 
z
M 28.609375 72.90625 
L 39.796875 72.90625 
L 67.578125 0 
L 57.328125 0 
L 50.6875 18.703125 
L 17.828125 18.703125 
L 11.1875 0 
L 0.78125 0 
z
" id="DejaVuSans-65"/>
    <path d="M 53.515625 70.515625 
L 53.515625 60.890625 
Q 47.90625 63.578125 42.921875 64.890625 
Q 37.9375 66.21875 33.296875 66.21875 
Q 25.25 66.21875 20.875 63.09375 
Q 16.5 59.96875 16.5 54.203125 
Q 16.5 49.359375 19.40625 46.890625 
Q 22.3125 44.4375 30.421875 42.921875 
L 36.375 41.703125 
Q 47.40625 39.59375 52.65625 34.296875 
Q 57.90625 29 57.90625 20.125 
Q 57.90625 9.515625 50.796875 4.046875 
Q 43.703125 -1.421875 29.984375 -1.421875 
Q 24.8125 -1.421875 18.96875 -0.25 
Q 13.140625 0.921875 6.890625 3.21875 
L 6.890625 13.375 
Q 12.890625 10.015625 18.65625 8.296875 
Q 24.421875 6.59375 29.984375 6.59375 
Q 38.421875 6.59375 43.015625 9.90625 
Q 47.609375 13.234375 47.609375 19.390625 
Q 47.609375 24.75 44.3125 27.78125 
Q 41.015625 30.8125 33.5 32.328125 
L 27.484375 33.5 
Q 16.453125 35.6875 11.515625 40.375 
Q 6.59375 45.0625 6.59375 53.421875 
Q 6.59375 63.09375 13.40625 68.65625 
Q 20.21875 74.21875 32.171875 74.21875 
Q 37.3125 74.21875 42.625 73.28125 
Q 47.953125 72.359375 53.515625 70.515625 
z
" id="DejaVuSans-83"/>
    <path d="M -0.296875 72.90625 
L 61.375 72.90625 
L 61.375 64.59375 
L 35.5 64.59375 
L 35.5 0 
L 25.59375 0 
L 25.59375 64.59375 
L -0.296875 64.59375 
z
" id="DejaVuSans-84"/>
    <path d="M 18.109375 8.203125 
L 18.109375 -20.796875 
L 9.078125 -20.796875 
L 9.078125 54.6875 
L 18.109375 54.6875 
L 18.109375 46.390625 
Q 20.953125 51.265625 25.265625 53.625 
Q 29.59375 56 35.59375 56 
Q 45.5625 56 51.78125 48.09375 
Q 58.015625 40.1875 58.015625 27.296875 
Q 58.015625 14.40625 51.78125 6.484375 
Q 45.5625 -1.421875 35.59375 -1.421875 
Q 29.59375 -1.421875 25.265625 0.953125 
Q 20.953125 3.328125 18.109375 8.203125 
z
M 48.6875 27.296875 
Q 48.6875 37.203125 44.609375 42.84375 
Q 40.53125 48.484375 33.40625 48.484375 
Q 26.265625 48.484375 22.1875 42.84375 
Q 18.109375 37.203125 18.109375 27.296875 
Q 18.109375 17.390625 22.1875 11.75 
Q 26.265625 6.109375 33.40625 6.109375 
Q 40.53125 6.109375 44.609375 11.75 
Q 48.6875 17.390625 48.6875 27.296875 
z
" id="DejaVuSans-112"/>
    <path d="M 54.890625 33.015625 
L 54.890625 0 
L 45.90625 0 
L 45.90625 32.71875 
Q 45.90625 40.484375 42.875 44.328125 
Q 39.84375 48.1875 33.796875 48.1875 
Q 26.515625 48.1875 22.3125 43.546875 
Q 18.109375 38.921875 18.109375 30.90625 
L 18.109375 0 
L 9.078125 0 
L 9.078125 75.984375 
L 18.109375 75.984375 
L 18.109375 46.1875 
Q 21.34375 51.125 25.703125 53.5625 
Q 30.078125 56 35.796875 56 
Q 45.21875 56 50.046875 50.171875 
Q 54.890625 44.34375 54.890625 33.015625 
z
" id="DejaVuSans-104"/>
    <path d="M 4.203125 54.6875 
L 13.1875 54.6875 
L 24.421875 12.015625 
L 35.59375 54.6875 
L 46.1875 54.6875 
L 57.421875 12.015625 
L 68.609375 54.6875 
L 77.59375 54.6875 
L 63.28125 0 
L 52.6875 0 
L 40.921875 44.828125 
L 29.109375 0 
L 18.5 0 
z
" id="DejaVuSans-119"/>
    <path d="M 32.171875 -5.078125 
Q 28.375 -14.84375 24.75 -17.8125 
Q 21.140625 -20.796875 15.09375 -20.796875 
L 7.90625 -20.796875 
L 7.90625 -13.28125 
L 13.1875 -13.28125 
Q 16.890625 -13.28125 18.9375 -11.515625 
Q 21 -9.765625 23.484375 -3.21875 
L 25.09375 0.875 
L 2.984375 54.6875 
L 12.5 54.6875 
L 29.59375 11.921875 
L 46.6875 54.6875 
L 56.203125 54.6875 
z
" id="DejaVuSans-121"/>
    <path d="M 44.28125 53.078125 
L 44.28125 44.578125 
Q 40.484375 46.53125 36.375 47.5 
Q 32.28125 48.484375 27.875 48.484375 
Q 21.1875 48.484375 17.84375 46.4375 
Q 14.5 44.390625 14.5 40.28125 
Q 14.5 37.15625 16.890625 35.375 
Q 19.28125 33.59375 26.515625 31.984375 
L 29.59375 31.296875 
Q 39.15625 29.25 43.1875 25.515625 
Q 47.21875 21.78125 47.21875 15.09375 
Q 47.21875 7.46875 41.1875 3.015625 
Q 35.15625 -1.421875 24.609375 -1.421875 
Q 20.21875 -1.421875 15.453125 -0.5625 
Q 10.6875 0.296875 5.421875 2 
L 5.421875 11.28125 
Q 10.40625 8.6875 15.234375 7.390625 
Q 20.0625 6.109375 24.8125 6.109375 
Q 31.15625 6.109375 34.5625 8.28125 
Q 37.984375 10.453125 37.984375 14.40625 
Q 37.984375 18.0625 35.515625 20.015625 
Q 33.0625 21.96875 24.703125 23.78125 
L 21.578125 24.515625 
Q 13.234375 26.265625 9.515625 29.90625 
Q 5.8125 33.546875 5.8125 39.890625 
Q 5.8125 47.609375 11.28125 51.796875 
Q 16.75 56 26.8125 56 
Q 31.78125 56 36.171875 55.265625 
Q 40.578125 54.546875 44.28125 53.078125 
z
" id="DejaVuSans-115"/>
    <path d="M 2.984375 54.6875 
L 12.5 54.6875 
L 29.59375 8.796875 
L 46.6875 54.6875 
L 56.203125 54.6875 
L 35.6875 0 
L 23.484375 0 
z
" id="DejaVuSans-118"/>
   </defs>
   <g transform="translate(85.896875 11.397656)scale(0.15 -0.15)">
    <use xlink:href="#DejaVuSans-82"/>
    <use x="69.482422" xlink:href="#DejaVuSans-79"/>
    <use x="148.177734" xlink:href="#DejaVuSans-65"/>
    <use x="216.585938" xlink:href="#DejaVuSans-83"/>
    <use x="280.0625" xlink:href="#DejaVuSans-84"/>
    <use x="341.146484" xlink:href="#DejaVuSans-32"/>
    <use x="372.933594" xlink:href="#DejaVuSans-112"/>
    <use x="436.410156" xlink:href="#DejaVuSans-97"/>
    <use x="497.689453" xlink:href="#DejaVuSans-116"/>
    <use x="536.898438" xlink:href="#DejaVuSans-104"/>
    <use x="600.277344" xlink:href="#DejaVuSans-119"/>
    <use x="682.064453" xlink:href="#DejaVuSans-97"/>
    <use x="743.34375" xlink:href="#DejaVuSans-121"/>
    <use x="802.523438" xlink:href="#DejaVuSans-32"/>
    <use x="834.310547" xlink:href="#DejaVuSans-115"/>
    <use x="886.410156" xlink:href="#DejaVuSans-116"/>
    <use x="925.619141" xlink:href="#DejaVuSans-97"/>
    <use x="986.898438" xlink:href="#DejaVuSans-116"/>
    <use x="1026.107422" xlink:href="#DejaVuSans-105"/>
    <use x="1053.890625" xlink:href="#DejaVuSans-115"/>
    <use x="1105.990234" xlink:href="#DejaVuSans-116"/>
    <use x="1145.199219" xlink:href="#DejaVuSans-105"/>
    <use x="1172.982422" xlink:href="#DejaVuSans-99"/>
    <use x="1227.962891" xlink:href="#DejaVuSans-115"/>
    <use x="1280.0625" xlink:href="#DejaVuSans-32"/>
    <use x="1311.849609" xlink:href="#DejaVuSans-118"/>
    <use x="1371.029297" xlink:href="#DejaVuSans-115"/>
    <use x="1423.128906" xlink:href="#DejaVuSans-32"/>
    <use x="1454.916016" xlink:href="#DejaVuSans-114"/>
    <use x="1496.029297" xlink:href="#DejaVuSans-97"/>
    <use x="1557.308594" xlink:href="#DejaVuSans-110"/>
    <use x="1620.6875" xlink:href="#DejaVuSans-107"/>
    <use x="1678.597656" xlink:href="#DejaVuSans-105"/>
    <use x="1706.380859" xlink:href="#DejaVuSans-110"/>
    <use x="1769.759766" xlink:href="#DejaVuSans-103"/>
   </g>
  </g>
 </g>
 <defs>
  <clipPath id="p07373c7ecd">
   <rect height="266.112" width="357.12" x="50.585938" y="20.583376"/>
  </clipPath>
 </defs>
</svg>
