<?xml version="1.0" encoding="utf-8" standalone="no"?>
<!DOCTYPE svg PUBLIC "-//W3C//DTD SVG 1.1//EN"
  "http://www.w3.org/Graphics/SVG/1.1/DTD/svg11.dtd">
<!-- Created with matplotlib (https://matplotlib.org/) -->
<svg height="255.1675pt" version="1.1" viewBox="0 0 381.936875 255.1675" width="381.936875pt" xmlns="http://www.w3.org/2000/svg" xmlns:xlink="http://www.w3.org/1999/xlink">
 <defs>
  <style type="text/css">
*{stroke-linecap:butt;stroke-linejoin:round;}
  </style>
 </defs>
 <g id="figure_1">
  <g id="patch_1">
   <path d="M 0 255.1675
L 381.936875 255.1675
L 381.936875 0
L 0 0
z
" style="fill:none;"/>
  </g>
  <g id="axes_1">
   <g id="patch_2">
    <path d="M 43.636875 220.94
L 378.436875 220.94
L 378.436875 3.5
L 43.636875 3.5
z
" style="fill:none;"/>
   </g>
   <g id="PathCollection_1">
    <defs>
     <path d="M 0 3
C 0.795609 3 1.55874 2.683901 2.12132 2.12132
C 2.683901 1.55874 3 0.795609 3 0
C 3 -0.795609 2.683901 -1.55874 2.12132 -2.12132
C 1.55874 -2.683901 0.795609 -3 0 -3
C -0.795609 -3 -1.55874 -2.683901 -2.12132 -2.12132
C -2.683901 -1.55874 -3 -0.795609 -3 0
C -3 0.795609 -2.683901 1.55874 -2.12132 2.12132
C -1.55874 2.683901 -0.795609 3 0 3
z
" id="m2a8f73d529" style="stroke:#15527d;stroke-opacity:0.8;"/>
    </defs>
    <g clip-path="url(#p63eee3bf71)">
     <use style="fill:#15527d;fill-opacity:0.8;stroke:#15527d;stroke-opacity:0.8;" x="111.805647" xlink:href="#m2a8f73d529" y="25.509975"/>
     <use style="fill:#15527d;fill-opacity:0.8;stroke:#15527d;stroke-opacity:0.8;" x="118.421062" xlink:href="#m2a8f73d529" y="118.269537"/>
     <use style="fill:#15527d;fill-opacity:0.8;stroke:#15527d;stroke-opacity:0.8;" x="211.036875" xlink:href="#m2a8f73d529" y="37.609048"/>
     <use style="fill:#15527d;fill-opacity:0.8;stroke:#15527d;stroke-opacity:0.8;" x="230.883121" xlink:href="#m2a8f73d529" y="158.599781"/>
     <use style="fill:#15527d;fill-opacity:0.8;stroke:#15527d;stroke-opacity:0.8;" x="257.344782" xlink:href="#m2a8f73d529" y="49.708121"/>
     <use style="fill:#15527d;fill-opacity:0.8;stroke:#15527d;stroke-opacity:0.8;" x="297.037273" xlink:href="#m2a8f73d529" y="29.542999"/>
     <use style="fill:#15527d;fill-opacity:0.8;stroke:#15527d;stroke-opacity:0.8;" x="310.268103" xlink:href="#m2a8f73d529" y="81.972317"/>
     <use style="fill:#15527d;fill-opacity:0.8;stroke:#15527d;stroke-opacity:0.8;" x="105.190231" xlink:href="#m2a8f73d529" y="192.880489"/>
     <use style="fill:#15527d;fill-opacity:0.8;stroke:#15527d;stroke-opacity:0.8;" x="197.806045" xlink:href="#m2a8f73d529" y="102.137439"/>
     <use style="fill:#15527d;fill-opacity:0.8;stroke:#15527d;stroke-opacity:0.8;" x="144.882723" xlink:href="#m2a8f73d529" y="110.203488"/>
     <use style="fill:#15527d;fill-opacity:0.8;stroke:#15527d;stroke-opacity:0.8;" x="224.267705" xlink:href="#m2a8f73d529" y="90.038366"/>
     <use style="fill:#15527d;fill-opacity:0.8;stroke:#15527d;stroke-opacity:0.8;" x="177.959799" xlink:href="#m2a8f73d529" y="148.51722"/>
     <use style="fill:#15527d;fill-opacity:0.8;stroke:#15527d;stroke-opacity:0.8;" x="72.113155" xlink:href="#m2a8f73d529" y="184.81444"/>
     <use style="fill:#15527d;fill-opacity:0.8;stroke:#15527d;stroke-opacity:0.8;" x="158.113553" xlink:href="#m2a8f73d529" y="77.939292"/>
     <use style="fill:#15527d;fill-opacity:0.8;stroke:#15527d;stroke-opacity:0.8;" x="65.49774" xlink:href="#m2a8f73d529" y="86.005341"/>
     <use style="fill:#15527d;fill-opacity:0.8;stroke:#15527d;stroke-opacity:0.8;" x="58.882325" xlink:href="#m2a8f73d529" y="142.467683"/>
     <use style="fill:#15527d;fill-opacity:0.8;stroke:#15527d;stroke-opacity:0.8;" x="363.191425" xlink:href="#m2a8f73d529" y="13.410902"/>
     <use style="fill:#15527d;fill-opacity:0.8;stroke:#15527d;stroke-opacity:0.8;" x="184.575214" xlink:href="#m2a8f73d529" y="164.649318"/>
     <use style="fill:#15527d;fill-opacity:0.8;stroke:#15527d;stroke-opacity:0.8;" x="290.421858" xlink:href="#m2a8f73d529" y="69.873244"/>
     <use style="fill:#15527d;fill-opacity:0.8;stroke:#15527d;stroke-opacity:0.8;" x="217.65229" xlink:href="#m2a8f73d529" y="98.104415"/>
     <use style="fill:#15527d;fill-opacity:0.8;stroke:#15527d;stroke-opacity:0.8;" x="323.498934" xlink:href="#m2a8f73d529" y="17.443926"/>
     <use style="fill:#15527d;fill-opacity:0.8;stroke:#15527d;stroke-opacity:0.8;" x="171.344384" xlink:href="#m2a8f73d529" y="174.731879"/>
     <use style="fill:#15527d;fill-opacity:0.8;stroke:#15527d;stroke-opacity:0.8;" x="310.268103" xlink:href="#m2a8f73d529" y="114.236512"/>
     <use style="fill:#15527d;fill-opacity:0.8;stroke:#15527d;stroke-opacity:0.8;" x="310.268103" xlink:href="#m2a8f73d529" y="21.47695"/>
     <use style="fill:#15527d;fill-opacity:0.8;stroke:#15527d;stroke-opacity:0.8;" x="204.42146" xlink:href="#m2a8f73d529" y="65.840219"/>
     <use style="fill:#15527d;fill-opacity:0.8;stroke:#15527d;stroke-opacity:0.8;" x="138.267307" xlink:href="#m2a8f73d529" y="192.880489"/>
     <use style="fill:#15527d;fill-opacity:0.8;stroke:#15527d;stroke-opacity:0.8;" x="237.498536" xlink:href="#m2a8f73d529" y="204.979562"/>
     <use style="fill:#15527d;fill-opacity:0.8;stroke:#15527d;stroke-opacity:0.8;" x="270.575612" xlink:href="#m2a8f73d529" y="148.51722"/>
     <use style="fill:#15527d;fill-opacity:0.8;stroke:#15527d;stroke-opacity:0.8;" x="363.191425" xlink:href="#m2a8f73d529" y="94.07139"/>
     <use style="fill:#15527d;fill-opacity:0.8;stroke:#15527d;stroke-opacity:0.8;" x="363.191425" xlink:href="#m2a8f73d529" y="184.81444"/>
     <use style="fill:#15527d;fill-opacity:0.8;stroke:#15527d;stroke-opacity:0.8;" x="250.729366" xlink:href="#m2a8f73d529" y="174.731879"/>
     <use style="fill:#15527d;fill-opacity:0.8;stroke:#15527d;stroke-opacity:0.8;" x="330.114349" xlink:href="#m2a8f73d529" y="138.434659"/>
     <use style="fill:#15527d;fill-opacity:0.8;stroke:#15527d;stroke-opacity:0.8;" x="191.190629" xlink:href="#m2a8f73d529" y="174.731879"/>
     <use style="fill:#15527d;fill-opacity:0.8;stroke:#15527d;stroke-opacity:0.8;" x="363.191425" xlink:href="#m2a8f73d529" y="57.77417"/>
     <use style="fill:#15527d;fill-opacity:0.8;stroke:#15527d;stroke-opacity:0.8;" x="131.651892" xlink:href="#m2a8f73d529" y="106.170463"/>
     <use style="fill:#15527d;fill-opacity:0.8;stroke:#15527d;stroke-opacity:0.8;" x="244.113951" xlink:href="#m2a8f73d529" y="154.566756"/>
     <use style="fill:#15527d;fill-opacity:0.8;stroke:#15527d;stroke-opacity:0.8;" x="263.960197" xlink:href="#m2a8f73d529" y="73.906268"/>
     <use style="fill:#15527d;fill-opacity:0.8;stroke:#15527d;stroke-opacity:0.8;" x="283.806443" xlink:href="#m2a8f73d529" y="45.675097"/>
     <use style="fill:#15527d;fill-opacity:0.8;stroke:#15527d;stroke-opacity:0.8;" x="363.191425" xlink:href="#m2a8f73d529" y="122.302561"/>
     <use style="fill:#15527d;fill-opacity:0.8;stroke:#15527d;stroke-opacity:0.8;" x="98.574816" xlink:href="#m2a8f73d529" y="134.401634"/>
     <use style="fill:#15527d;fill-opacity:0.8;stroke:#15527d;stroke-opacity:0.8;" x="151.498138" xlink:href="#m2a8f73d529" y="211.029098"/>
     <use style="fill:#15527d;fill-opacity:0.8;stroke:#15527d;stroke-opacity:0.8;" x="277.191027" xlink:href="#m2a8f73d529" y="198.930025"/>
     <use style="fill:#15527d;fill-opacity:0.8;stroke:#15527d;stroke-opacity:0.8;" x="91.959401" xlink:href="#m2a8f73d529" y="204.979562"/>
     <use style="fill:#15527d;fill-opacity:0.8;stroke:#15527d;stroke-opacity:0.8;" x="85.343986" xlink:href="#m2a8f73d529" y="164.649318"/>
     <use style="fill:#15527d;fill-opacity:0.8;stroke:#15527d;stroke-opacity:0.8;" x="78.72857" xlink:href="#m2a8f73d529" y="33.576024"/>
     <use style="fill:#15527d;fill-opacity:0.8;stroke:#15527d;stroke-opacity:0.8;" x="125.036477" xlink:href="#m2a8f73d529" y="41.642073"/>
     <use style="fill:#15527d;fill-opacity:0.8;stroke:#15527d;stroke-opacity:0.8;" x="363.191425" xlink:href="#m2a8f73d529" y="61.807195"/>
     <use style="fill:#15527d;fill-opacity:0.8;stroke:#15527d;stroke-opacity:0.8;" x="164.728968" xlink:href="#m2a8f73d529" y="128.352098"/>
     <use style="fill:#15527d;fill-opacity:0.8;stroke:#15527d;stroke-opacity:0.8;" x="336.729764" xlink:href="#m2a8f73d529" y="128.352098"/>
     <use style="fill:#15527d;fill-opacity:0.8;stroke:#15527d;stroke-opacity:0.8;" x="363.191425" xlink:href="#m2a8f73d529" y="53.741146"/>
    </g>
   </g>
   <g id="PolyCollection_1">
    <path clip-path="url(#p63eee3bf71)" d="M 58.882325 111.095971
L 58.882325 172.470584
L 61.956154 171.429292
L 65.029983 170.388
L 68.103813 169.346708
L 71.177642 168.304691
L 74.251471 167.339617
L 77.3253 166.281257
L 80.39913 165.341552
L 83.472959 164.476341
L 86.546788 163.611507
L 89.620618 162.634963
L 92.694447 161.866959
L 95.768276 160.953997
L 98.842106 160.034773
L 101.915935 159.005469
L 104.989764 158.130304
L 108.063593 157.295713
L 111.137423 156.461201
L 114.211252 155.518953
L 117.285081 154.419433
L 120.358911 153.672507
L 123.43274 152.923783
L 126.506569 152.043412
L 129.580399 151.021613
L 132.654228 150.19042
L 135.728057 149.474816
L 138.801886 148.692886
L 141.875716 147.66872
L 144.949545 147.024451
L 148.023374 146.37849
L 151.097204 145.333311
L 154.171033 144.681909
L 157.244862 143.760082
L 160.318692 142.837469
L 163.392521 141.96973
L 166.46635 141.021103
L 169.540179 140.072477
L 172.614009 139.520987
L 175.687838 138.660126
L 178.761667 137.805321
L 181.835497 136.940592
L 184.909326 136.081037
L 187.983155 135.224789
L 191.056985 134.368086
L 194.130814 133.502382
L 197.204643 132.87015
L 200.278472 132.311921
L 203.352302 131.516141
L 206.426131 130.940548
L 209.49996 130.213227
L 212.57379 129.742122
L 215.647619 129.364546
L 218.721448 128.965839
L 221.795278 128.404753
L 224.869107 127.731457
L 227.942936 127.2864
L 231.016765 126.730387
L 234.090595 126.102217
L 237.164424 125.363129
L 240.238253 124.958013
L 243.312083 124.388554
L 246.385912 123.91964
L 249.459741 123.382551
L 252.533571 122.823243
L 255.6074 122.320939
L 258.681229 121.92048
L 261.755058 121.571926
L 264.828888 121.221037
L 267.902717 120.750276
L 270.976546 120.25946
L 274.050376 119.622653
L 277.124205 119.479057
L 280.198034 118.84364
L 283.271864 118.311978
L 286.345693 117.851226
L 289.419522 117.710587
L 292.493351 117.489206
L 295.567181 117.315335
L 298.64101 117.183056
L 301.714839 116.888123
L 304.788669 116.556154
L 307.862498 116.187857
L 310.936327 115.743603
L 314.010157 115.479806
L 317.083986 115.12681
L 320.157815 114.77758
L 323.231644 114.429449
L 326.305474 114.195085
L 329.379303 114.080287
L 332.453132 113.79737
L 335.526962 113.28524
L 338.600791 113.166073
L 341.67462 113.033356
L 344.74845 112.776668
L 347.822279 112.51998
L 350.896108 112.263291
L 353.969937 112.138464
L 357.043767 112.084013
L 360.117596 112.029561
L 363.191425 111.97511
L 363.191425 59.700782
L 363.191425 59.700782
L 360.117596 60.838094
L 357.043767 61.982106
L 353.969937 62.651533
L 350.896108 63.351223
L 347.822279 64.348785
L 344.74845 65.351032
L 341.67462 66.354802
L 338.600791 67.363714
L 335.526962 68.376835
L 332.453132 69.285788
L 329.379303 70.038108
L 326.305474 71.287282
L 323.231644 72.107842
L 320.157815 73.074248
L 317.083986 73.856264
L 314.010157 74.650235
L 310.936327 75.564348
L 307.862498 76.486134
L 304.788669 77.194356
L 301.714839 77.959643
L 298.64101 78.761478
L 295.567181 79.738833
L 292.493351 80.412045
L 289.419522 81.425688
L 286.345693 82.453278
L 283.271864 83.317646
L 280.198034 84.138186
L 277.124205 84.766085
L 274.050376 85.267409
L 270.976546 86.17709
L 267.902717 86.854116
L 264.828888 87.541656
L 261.755058 88.33748
L 258.681229 89.1358
L 255.6074 89.859966
L 252.533571 90.384057
L 249.459741 90.842351
L 246.385912 91.196536
L 243.312083 91.776547
L 240.238253 92.325461
L 237.164424 92.826339
L 234.090595 93.634692
L 231.016765 94.445452
L 227.942936 95.244809
L 224.869107 95.647179
L 221.795278 96.499502
L 218.721448 97.226773
L 215.647619 97.492271
L 212.57379 97.757579
L 209.49996 98.388785
L 206.426131 98.771942
L 203.352302 99.161426
L 200.278472 99.553551
L 197.204643 99.945677
L 194.130814 100.339487
L 191.056985 100.776681
L 187.983155 101.212022
L 184.909326 101.401098
L 181.835497 101.67856
L 178.761667 101.94093
L 175.687838 102.177677
L 172.614009 102.692091
L 169.540179 102.936164
L 166.46635 103.371238
L 163.392521 103.70898
L 160.318692 103.894096
L 157.244862 104.247995
L 154.171033 104.730158
L 151.097204 105.071242
L 148.023374 105.413173
L 144.949545 105.831263
L 141.875716 105.993825
L 138.801886 106.036242
L 135.728057 106.078659
L 132.654228 106.267564
L 129.580399 106.667997
L 126.506569 106.921656
L 123.43274 107.133392
L 120.358911 107.475343
L 117.285081 107.817294
L 114.211252 107.924172
L 111.137423 107.910701
L 108.063593 108.000669
L 104.989764 108.26541
L 101.915935 108.604706
L 98.842106 109.022252
L 95.768276 109.073399
L 92.694447 109.194319
L 89.620618 109.247777
L 86.546788 109.304132
L 83.472959 109.414306
L 80.39913 109.524718
L 77.3253 109.757188
L 74.251471 109.989659
L 71.177642 110.22213
L 68.103813 110.459089
L 65.029983 110.699151
L 61.956154 110.939214
L 58.882325 111.095971
z
" style="fill:#15527d;fill-opacity:0.15;"/>
   </g>
   <g id="matplotlib.axis_1">
    <g id="xtick_1">
     <g id="line2d_1">
      <defs>
       <path d="M 0 0
L 0 3.5
" id="m43b30ca4dd" style="stroke:#000000;stroke-width:0.8;"/>
      </defs>
      <g>
       <use style="stroke:#000000;stroke-width:0.8;" x="58.882325" xlink:href="#m43b30ca4dd" y="220.94"/>
      </g>
     </g>
     <g id="text_1">
      <!-- 0 -->
      <defs>
       <path d="M 31.78125 66.40625
Q 24.171875 66.40625 20.328125 58.90625
Q 16.5 51.421875 16.5 36.375
Q 16.5 21.390625 20.328125 13.890625
Q 24.171875 6.390625 31.78125 6.390625
Q 39.453125 6.390625 43.28125 13.890625
Q 47.125 21.390625 47.125 36.375
Q 47.125 51.421875 43.28125 58.90625
Q 39.453125 66.40625 31.78125 66.40625
z
M 31.78125 74.21875
Q 44.046875 74.21875 50.515625 64.515625
Q 56.984375 54.828125 56.984375 36.375
Q 56.984375 17.96875 50.515625 8.265625
Q 44.046875 -1.421875 31.78125 -1.421875
Q 19.53125 -1.421875 13.0625 8.265625
Q 6.59375 17.96875 6.59375 36.375
Q 6.59375 54.828125 13.0625 64.515625
Q 19.53125 74.21875 31.78125 74.21875
z
" id="DejaVuSans-48"/>
      </defs>
      <g transform="translate(55.701075 235.538437)scale(0.1 -0.1)">
       <use xlink:href="#DejaVuSans-48"/>
      </g>
     </g>
    </g>
    <g id="xtick_2">
     <g id="line2d_2">
      <g>
       <use style="stroke:#000000;stroke-width:0.8;" x="119.744145" xlink:href="#m43b30ca4dd" y="220.94"/>
      </g>
     </g>
     <g id="text_2">
      <!-- 20 -->
      <defs>
       <path d="M 19.1875 8.296875
L 53.609375 8.296875
L 53.609375 0
L 7.328125 0
L 7.328125 8.296875
Q 12.9375 14.109375 22.625 23.890625
Q 32.328125 33.6875 34.8125 36.53125
Q 39.546875 41.84375 41.421875 45.53125
Q 43.3125 49.21875 43.3125 52.78125
Q 43.3125 58.59375 39.234375 62.25
Q 35.15625 65.921875 28.609375 65.921875
Q 23.96875 65.921875 18.8125 64.3125
Q 13.671875 62.703125 7.8125 59.421875
L 7.8125 69.390625
Q 13.765625 71.78125 18.9375 73
Q 24.125 74.21875 28.421875 74.21875
Q 39.75 74.21875 46.484375 68.546875
Q 53.21875 62.890625 53.21875 53.421875
Q 53.21875 48.921875 51.53125 44.890625
Q 49.859375 40.875 45.40625 35.40625
Q 44.1875 33.984375 37.640625 27.21875
Q 31.109375 20.453125 19.1875 8.296875
z
" id="DejaVuSans-50"/>
      </defs>
      <g transform="translate(113.381645 235.538437)scale(0.1 -0.1)">
       <use xlink:href="#DejaVuSans-50"/>
       <use x="63.623047" xlink:href="#DejaVuSans-48"/>
      </g>
     </g>
    </g>
    <g id="xtick_3">
     <g id="line2d_3">
      <g>
       <use style="stroke:#000000;stroke-width:0.8;" x="180.605965" xlink:href="#m43b30ca4dd" y="220.94"/>
      </g>
     </g>
     <g id="text_3">
      <!-- 40 -->
      <defs>
       <path d="M 37.796875 64.3125
L 12.890625 25.390625
L 37.796875 25.390625
z
M 35.203125 72.90625
L 47.609375 72.90625
L 47.609375 25.390625
L 58.015625 25.390625
L 58.015625 17.1875
L 47.609375 17.1875
L 47.609375 0
L 37.796875 0
L 37.796875 17.1875
L 4.890625 17.1875
L 4.890625 26.703125
z
" id="DejaVuSans-52"/>
      </defs>
      <g transform="translate(174.243465 235.538437)scale(0.1 -0.1)">
       <use xlink:href="#DejaVuSans-52"/>
       <use x="63.623047" xlink:href="#DejaVuSans-48"/>
      </g>
     </g>
    </g>
    <g id="xtick_4">
     <g id="line2d_4">
      <g>
       <use style="stroke:#000000;stroke-width:0.8;" x="241.467785" xlink:href="#m43b30ca4dd" y="220.94"/>
      </g>
     </g>
     <g id="text_4">
      <!-- 60 -->
      <defs>
       <path d="M 33.015625 40.375
Q 26.375 40.375 22.484375 35.828125
Q 18.609375 31.296875 18.609375 23.390625
Q 18.609375 15.53125 22.484375 10.953125
Q 26.375 6.390625 33.015625 6.390625
Q 39.65625 6.390625 43.53125 10.953125
Q 47.40625 15.53125 47.40625 23.390625
Q 47.40625 31.296875 43.53125 35.828125
Q 39.65625 40.375 33.015625 40.375
z
M 52.59375 71.296875
L 52.59375 62.3125
Q 48.875 64.0625 45.09375 64.984375
Q 41.3125 65.921875 37.59375 65.921875
Q 27.828125 65.921875 22.671875 59.328125
Q 17.53125 52.734375 16.796875 39.40625
Q 19.671875 43.65625 24.015625 45.921875
Q 28.375 48.1875 33.59375 48.1875
Q 44.578125 48.1875 50.953125 41.515625
Q 57.328125 34.859375 57.328125 23.390625
Q 57.328125 12.15625 50.6875 5.359375
Q 44.046875 -1.421875 33.015625 -1.421875
Q 20.359375 -1.421875 13.671875 8.265625
Q 6.984375 17.96875 6.984375 36.375
Q 6.984375 53.65625 15.1875 63.9375
Q 23.390625 74.21875 37.203125 74.21875
Q 40.921875 74.21875 44.703125 73.484375
Q 48.484375 72.75 52.59375 71.296875
z
" id="DejaVuSans-54"/>
      </defs>
      <g transform="translate(235.105285 235.538437)scale(0.1 -0.1)">
       <use xlink:href="#DejaVuSans-54"/>
       <use x="63.623047" xlink:href="#DejaVuSans-48"/>
      </g>
     </g>
    </g>
    <g id="xtick_5">
     <g id="line2d_5">
      <g>
       <use style="stroke:#000000;stroke-width:0.8;" x="302.329605" xlink:href="#m43b30ca4dd" y="220.94"/>
      </g>
     </g>
     <g id="text_5">
      <!-- 80 -->
      <defs>
       <path d="M 31.78125 34.625
Q 24.75 34.625 20.71875 30.859375
Q 16.703125 27.09375 16.703125 20.515625
Q 16.703125 13.921875 20.71875 10.15625
Q 24.75 6.390625 31.78125 6.390625
Q 38.8125 6.390625 42.859375 10.171875
Q 46.921875 13.96875 46.921875 20.515625
Q 46.921875 27.09375 42.890625 30.859375
Q 38.875 34.625 31.78125 34.625
z
M 21.921875 38.8125
Q 15.578125 40.375 12.03125 44.71875
Q 8.5 49.078125 8.5 55.328125
Q 8.5 64.0625 14.71875 69.140625
Q 20.953125 74.21875 31.78125 74.21875
Q 42.671875 74.21875 48.875 69.140625
Q 55.078125 64.0625 55.078125 55.328125
Q 55.078125 49.078125 51.53125 44.71875
Q 48 40.375 41.703125 38.8125
Q 48.828125 37.15625 52.796875 32.3125
Q 56.78125 27.484375 56.78125 20.515625
Q 56.78125 9.90625 50.3125 4.234375
Q 43.84375 -1.421875 31.78125 -1.421875
Q 19.734375 -1.421875 13.25 4.234375
Q 6.78125 9.90625 6.78125 20.515625
Q 6.78125 27.484375 10.78125 32.3125
Q 14.796875 37.15625 21.921875 38.8125
z
M 18.3125 54.390625
Q 18.3125 48.734375 21.84375 45.5625
Q 25.390625 42.390625 31.78125 42.390625
Q 38.140625 42.390625 41.71875 45.5625
Q 45.3125 48.734375 45.3125 54.390625
Q 45.3125 60.0625 41.71875 63.234375
Q 38.140625 66.40625 31.78125 66.40625
Q 25.390625 66.40625 21.84375 63.234375
Q 18.3125 60.0625 18.3125 54.390625
z
" id="DejaVuSans-56"/>
      </defs>
      <g transform="translate(295.967105 235.538437)scale(0.1 -0.1)">
       <use xlink:href="#DejaVuSans-56"/>
       <use x="63.623047" xlink:href="#DejaVuSans-48"/>
      </g>
     </g>
    </g>
    <g id="xtick_6">
     <g id="line2d_6">
      <g>
       <use style="stroke:#000000;stroke-width:0.8;" x="363.191425" xlink:href="#m43b30ca4dd" y="220.94"/>
      </g>
     </g>
     <g id="text_6">
      <!-- 100 -->
      <defs>
       <path d="M 12.40625 8.296875
L 28.515625 8.296875
L 28.515625 63.921875
L 10.984375 60.40625
L 10.984375 69.390625
L 28.421875 72.90625
L 38.28125 72.90625
L 38.28125 8.296875
L 54.390625 8.296875
L 54.390625 0
L 12.40625 0
z
" id="DejaVuSans-49"/>
      </defs>
      <g transform="translate(353.647675 235.538437)scale(0.1 -0.1)">
       <use xlink:href="#DejaVuSans-49"/>
       <use x="63.623047" xlink:href="#DejaVuSans-48"/>
       <use x="127.246094" xlink:href="#DejaVuSans-48"/>
      </g>
     </g>
    </g>
    <g id="text_7">
     <!-- SOPHIE -->
     <defs>
      <path d="M 53.515625 70.515625
L 53.515625 60.890625
Q 47.90625 63.578125 42.921875 64.890625
Q 37.9375 66.21875 33.296875 66.21875
Q 25.25 66.21875 20.875 63.09375
Q 16.5 59.96875 16.5 54.203125
Q 16.5 49.359375 19.40625 46.890625
Q 22.3125 44.4375 30.421875 42.921875
L 36.375 41.703125
Q 47.40625 39.59375 52.65625 34.296875
Q 57.90625 29 57.90625 20.125
Q 57.90625 9.515625 50.796875 4.046875
Q 43.703125 -1.421875 29.984375 -1.421875
Q 24.8125 -1.421875 18.96875 -0.25
Q 13.140625 0.921875 6.890625 3.21875
L 6.890625 13.375
Q 12.890625 10.015625 18.65625 8.296875
Q 24.421875 6.59375 29.984375 6.59375
Q 38.421875 6.59375 43.015625 9.90625
Q 47.609375 13.234375 47.609375 19.390625
Q 47.609375 24.75 44.3125 27.78125
Q 41.015625 30.8125 33.5 32.328125
L 27.484375 33.5
Q 16.453125 35.6875 11.515625 40.375
Q 6.59375 45.0625 6.59375 53.421875
Q 6.59375 63.09375 13.40625 68.65625
Q 20.21875 74.21875 32.171875 74.21875
Q 37.3125 74.21875 42.625 73.28125
Q 47.953125 72.359375 53.515625 70.515625
z
" id="DejaVuSans-83"/>
      <path d="M 39.40625 66.21875
Q 28.65625 66.21875 22.328125 58.203125
Q 16.015625 50.203125 16.015625 36.375
Q 16.015625 22.609375 22.328125 14.59375
Q 28.65625 6.59375 39.40625 6.59375
Q 50.140625 6.59375 56.421875 14.59375
Q 62.703125 22.609375 62.703125 36.375
Q 62.703125 50.203125 56.421875 58.203125
Q 50.140625 66.21875 39.40625 66.21875
z
M 39.40625 74.21875
Q 54.734375 74.21875 63.90625 63.9375
Q 73.09375 53.65625 73.09375 36.375
Q 73.09375 19.140625 63.90625 8.859375
Q 54.734375 -1.421875 39.40625 -1.421875
Q 24.03125 -1.421875 14.8125 8.828125
Q 5.609375 19.09375 5.609375 36.375
Q 5.609375 53.65625 14.8125 63.9375
Q 24.03125 74.21875 39.40625 74.21875
z
" id="DejaVuSans-79"/>
      <path d="M 19.671875 64.796875
L 19.671875 37.40625
L 32.078125 37.40625
Q 38.96875 37.40625 42.71875 40.96875
Q 46.484375 44.53125 46.484375 51.125
Q 46.484375 57.671875 42.71875 61.234375
Q 38.96875 64.796875 32.078125 64.796875
z
M 9.8125 72.90625
L 32.078125 72.90625
Q 44.34375 72.90625 50.609375 67.359375
Q 56.890625 61.8125 56.890625 51.125
Q 56.890625 40.328125 50.609375 34.8125
Q 44.34375 29.296875 32.078125 29.296875
L 19.671875 29.296875
L 19.671875 0
L 9.8125 0
z
" id="DejaVuSans-80"/>
      <path d="M 9.8125 72.90625
L 19.671875 72.90625
L 19.671875 43.015625
L 55.515625 43.015625
L 55.515625 72.90625
L 65.375 72.90625
L 65.375 0
L 55.515625 0
L 55.515625 34.71875
L 19.671875 34.71875
L 19.671875 0
L 9.8125 0
z
" id="DejaVuSans-72"/>
      <path d="M 9.8125 72.90625
L 19.671875 72.90625
L 19.671875 0
L 9.8125 0
z
" id="DejaVuSans-73"/>
      <path d="M 9.8125 72.90625
L 55.90625 72.90625
L 55.90625 64.59375
L 19.671875 64.59375
L 19.671875 43.015625
L 54.390625 43.015625
L 54.390625 34.71875
L 19.671875 34.71875
L 19.671875 8.296875
L 56.78125 8.296875
L 56.78125 0
L 9.8125 0
z
" id="DejaVuSans-69"/>
     </defs>
     <g transform="translate(185.109531 252.255937)scale(0.14 -0.14)">
      <use xlink:href="#DejaVuSans-83"/>
      <use x="63.476562" xlink:href="#DejaVuSans-79"/>
      <use x="142.1875" xlink:href="#DejaVuSans-80"/>
      <use x="202.490234" xlink:href="#DejaVuSans-72"/>
      <use x="277.685547" xlink:href="#DejaVuSans-73"/>
      <use x="307.177734" xlink:href="#DejaVuSans-69"/>
     </g>
    </g>
   </g>
   <g id="matplotlib.axis_2">
    <g id="ytick_1">
     <g id="line2d_7">
      <defs>
       <path d="M 0 0
L -3.5 0
" id="md82adeb5d2" style="stroke:#000000;stroke-width:0.8;"/>
      </defs>
      <g>
       <use style="stroke:#000000;stroke-width:0.8;" x="43.636875" xlink:href="#md82adeb5d2" y="211.029098"/>
      </g>
     </g>
     <g id="text_8">
      <!-- 0 -->
      <g transform="translate(30.274375 214.828317)scale(0.1 -0.1)">
       <use xlink:href="#DejaVuSans-48"/>
      </g>
     </g>
    </g>
    <g id="ytick_2">
     <g id="line2d_8">
      <g>
       <use style="stroke:#000000;stroke-width:0.8;" x="43.636875" xlink:href="#md82adeb5d2" y="171.505459"/>
      </g>
     </g>
     <g id="text_9">
      <!-- 20 -->
      <g transform="translate(23.911875 175.304678)scale(0.1 -0.1)">
       <use xlink:href="#DejaVuSans-50"/>
       <use x="63.623047" xlink:href="#DejaVuSans-48"/>
      </g>
     </g>
    </g>
    <g id="ytick_3">
     <g id="line2d_9">
      <g>
       <use style="stroke:#000000;stroke-width:0.8;" x="43.636875" xlink:href="#md82adeb5d2" y="131.98182"/>
      </g>
     </g>
     <g id="text_10">
      <!-- 40 -->
      <g transform="translate(23.911875 135.781038)scale(0.1 -0.1)">
       <use xlink:href="#DejaVuSans-52"/>
       <use x="63.623047" xlink:href="#DejaVuSans-48"/>
      </g>
     </g>
    </g>
    <g id="ytick_4">
     <g id="line2d_10">
      <g>
       <use style="stroke:#000000;stroke-width:0.8;" x="43.636875" xlink:href="#md82adeb5d2" y="92.45818"/>
      </g>
     </g>
     <g id="text_11">
      <!-- 60 -->
      <g transform="translate(23.911875 96.257399)scale(0.1 -0.1)">
       <use xlink:href="#DejaVuSans-54"/>
       <use x="63.623047" xlink:href="#DejaVuSans-48"/>
      </g>
     </g>
    </g>
    <g id="ytick_5">
     <g id="line2d_11">
      <g>
       <use style="stroke:#000000;stroke-width:0.8;" x="43.636875" xlink:href="#md82adeb5d2" y="52.934541"/>
      </g>
     </g>
     <g id="text_12">
      <!-- 80 -->
      <g transform="translate(23.911875 56.73376)scale(0.1 -0.1)">
       <use xlink:href="#DejaVuSans-56"/>
       <use x="63.623047" xlink:href="#DejaVuSans-48"/>
      </g>
     </g>
    </g>
    <g id="ytick_6">
     <g id="line2d_12">
      <g>
       <use style="stroke:#000000;stroke-width:0.8;" x="43.636875" xlink:href="#md82adeb5d2" y="13.410902"/>
      </g>
     </g>
     <g id="text_13">
      <!-- 100 -->
      <g transform="translate(17.549375 17.21012)scale(0.1 -0.1)">
       <use xlink:href="#DejaVuSans-49"/>
       <use x="63.623047" xlink:href="#DejaVuSans-48"/>
       <use x="127.246094" xlink:href="#DejaVuSans-48"/>
      </g>
     </g>
    </g>
    <g id="text_14">
     <!-- Powers et al. 2018 -->
     <defs>
      <path d="M 30.609375 48.390625
Q 23.390625 48.390625 19.1875 42.75
Q 14.984375 37.109375 14.984375 27.296875
Q 14.984375 17.484375 19.15625 11.84375
Q 23.34375 6.203125 30.609375 6.203125
Q 37.796875 6.203125 41.984375 11.859375
Q 46.1875 17.53125 46.1875 27.296875
Q 46.1875 37.015625 41.984375 42.703125
Q 37.796875 48.390625 30.609375 48.390625
z
M 30.609375 56
Q 42.328125 56 49.015625 48.375
Q 55.71875 40.765625 55.71875 27.296875
Q 55.71875 13.875 49.015625 6.21875
Q 42.328125 -1.421875 30.609375 -1.421875
Q 18.84375 -1.421875 12.171875 6.21875
Q 5.515625 13.875 5.515625 27.296875
Q 5.515625 40.765625 12.171875 48.375
Q 18.84375 56 30.609375 56
z
" id="DejaVuSans-111"/>
      <path d="M 4.203125 54.6875
L 13.1875 54.6875
L 24.421875 12.015625
L 35.59375 54.6875
L 46.1875 54.6875
L 57.421875 12.015625
L 68.609375 54.6875
L 77.59375 54.6875
L 63.28125 0
L 52.6875 0
L 40.921875 44.828125
L 29.109375 0
L 18.5 0
z
" id="DejaVuSans-119"/>
      <path d="M 56.203125 29.59375
L 56.203125 25.203125
L 14.890625 25.203125
Q 15.484375 15.921875 20.484375 11.0625
Q 25.484375 6.203125 34.421875 6.203125
Q 39.59375 6.203125 44.453125 7.46875
Q 49.3125 8.734375 54.109375 11.28125
L 54.109375 2.78125
Q 49.265625 0.734375 44.1875 -0.34375
Q 39.109375 -1.421875 33.890625 -1.421875
Q 20.796875 -1.421875 13.15625 6.1875
Q 5.515625 13.8125 5.515625 26.8125
Q 5.515625 40.234375 12.765625 48.109375
Q 20.015625 56 32.328125 56
Q 43.359375 56 49.78125 48.890625
Q 56.203125 41.796875 56.203125 29.59375
z
M 47.21875 32.234375
Q 47.125 39.59375 43.09375 43.984375
Q 39.0625 48.390625 32.421875 48.390625
Q 24.90625 48.390625 20.390625 44.140625
Q 15.875 39.890625 15.1875 32.171875
z
" id="DejaVuSans-101"/>
      <path d="M 41.109375 46.296875
Q 39.59375 47.171875 37.8125 47.578125
Q 36.03125 48 33.890625 48
Q 26.265625 48 22.1875 43.046875
Q 18.109375 38.09375 18.109375 28.8125
L 18.109375 0
L 9.078125 0
L 9.078125 54.6875
L 18.109375 54.6875
L 18.109375 46.1875
Q 20.953125 51.171875 25.484375 53.578125
Q 30.03125 56 36.53125 56
Q 37.453125 56 38.578125 55.875
Q 39.703125 55.765625 41.0625 55.515625
z
" id="DejaVuSans-114"/>
      <path d="M 44.28125 53.078125
L 44.28125 44.578125
Q 40.484375 46.53125 36.375 47.5
Q 32.28125 48.484375 27.875 48.484375
Q 21.1875 48.484375 17.84375 46.4375
Q 14.5 44.390625 14.5 40.28125
Q 14.5 37.15625 16.890625 35.375
Q 19.28125 33.59375 26.515625 31.984375
L 29.59375 31.296875
Q 39.15625 29.25 43.1875 25.515625
Q 47.21875 21.78125 47.21875 15.09375
Q 47.21875 7.46875 41.1875 3.015625
Q 35.15625 -1.421875 24.609375 -1.421875
Q 20.21875 -1.421875 15.453125 -0.5625
Q 10.6875 0.296875 5.421875 2
L 5.421875 11.28125
Q 10.40625 8.6875 15.234375 7.390625
Q 20.0625 6.109375 24.8125 6.109375
Q 31.15625 6.109375 34.5625 8.28125
Q 37.984375 10.453125 37.984375 14.40625
Q 37.984375 18.0625 35.515625 20.015625
Q 33.0625 21.96875 24.703125 23.78125
L 21.578125 24.515625
Q 13.234375 26.265625 9.515625 29.90625
Q 5.8125 33.546875 5.8125 39.890625
Q 5.8125 47.609375 11.28125 51.796875
Q 16.75 56 26.8125 56
Q 31.78125 56 36.171875 55.265625
Q 40.578125 54.546875 44.28125 53.078125
z
" id="DejaVuSans-115"/>
      <path id="DejaVuSans-32"/>
      <path d="M 18.3125 70.21875
L 18.3125 54.6875
L 36.8125 54.6875
L 36.8125 47.703125
L 18.3125 47.703125
L 18.3125 18.015625
Q 18.3125 11.328125 20.140625 9.421875
Q 21.96875 7.515625 27.59375 7.515625
L 36.8125 7.515625
L 36.8125 0
L 27.59375 0
Q 17.1875 0 13.234375 3.875
Q 9.28125 7.765625 9.28125 18.015625
L 9.28125 47.703125
L 2.6875 47.703125
L 2.6875 54.6875
L 9.28125 54.6875
L 9.28125 70.21875
z
" id="DejaVuSans-116"/>
      <path d="M 34.28125 27.484375
Q 23.390625 27.484375 19.1875 25
Q 14.984375 22.515625 14.984375 16.5
Q 14.984375 11.71875 18.140625 8.90625
Q 21.296875 6.109375 26.703125 6.109375
Q 34.1875 6.109375 38.703125 11.40625
Q 43.21875 16.703125 43.21875 25.484375
L 43.21875 27.484375
z
M 52.203125 31.203125
L 52.203125 0
L 43.21875 0
L 43.21875 8.296875
Q 40.140625 3.328125 35.546875 0.953125
Q 30.953125 -1.421875 24.3125 -1.421875
Q 15.921875 -1.421875 10.953125 3.296875
Q 6 8.015625 6 15.921875
Q 6 25.140625 12.171875 29.828125
Q 18.359375 34.515625 30.609375 34.515625
L 43.21875 34.515625
L 43.21875 35.40625
Q 43.21875 41.609375 39.140625 45
Q 35.0625 48.390625 27.6875 48.390625
Q 23 48.390625 18.546875 47.265625
Q 14.109375 46.140625 10.015625 43.890625
L 10.015625 52.203125
Q 14.9375 54.109375 19.578125 55.046875
Q 24.21875 56 28.609375 56
Q 40.484375 56 46.34375 49.84375
Q 52.203125 43.703125 52.203125 31.203125
z
" id="DejaVuSans-97"/>
      <path d="M 9.421875 75.984375
L 18.40625 75.984375
L 18.40625 0
L 9.421875 0
z
" id="DejaVuSans-108"/>
      <path d="M 10.6875 12.40625
L 21 12.40625
L 21 0
L 10.6875 0
z
" id="DejaVuSans-46"/>
     </defs>
     <g transform="translate(10.637812 177.27625)rotate(-90)scale(0.14 -0.14)">
      <use xlink:href="#DejaVuSans-80"/>
      <use x="60.255859" xlink:href="#DejaVuSans-111"/>
      <use x="121.4375" xlink:href="#DejaVuSans-119"/>
      <use x="203.224609" xlink:href="#DejaVuSans-101"/>
      <use x="264.748047" xlink:href="#DejaVuSans-114"/>
      <use x="305.861328" xlink:href="#DejaVuSans-115"/>
      <use x="357.960938" xlink:href="#DejaVuSans-32"/>
      <use x="389.748047" xlink:href="#DejaVuSans-101"/>
      <use x="451.271484" xlink:href="#DejaVuSans-116"/>
      <use x="490.480469" xlink:href="#DejaVuSans-32"/>
      <use x="522.267578" xlink:href="#DejaVuSans-97"/>
      <use x="583.546875" xlink:href="#DejaVuSans-108"/>
      <use x="611.330078" xlink:href="#DejaVuSans-46"/>
      <use x="643.117188" xlink:href="#DejaVuSans-32"/>
      <use x="674.904297" xlink:href="#DejaVuSans-50"/>
      <use x="738.527344" xlink:href="#DejaVuSans-48"/>
      <use x="802.150391" xlink:href="#DejaVuSans-49"/>
      <use x="865.773438" xlink:href="#DejaVuSans-56"/>
     </g>
    </g>
   </g>
   <g id="line2d_13">
    <path clip-path="url(#p63eee3bf71)" d="M 58.882325 142.117306
L 61.956154 141.550299
L 65.029983 140.983292
L 68.103813 140.416285
L 71.177642 139.849277
L 74.251471 139.28227
L 77.3253 138.715263
L 80.39913 138.148256
L 83.472959 137.581248
L 86.546788 137.014241
L 89.620618 136.447234
L 92.694447 135.880227
L 95.768276 135.313219
L 98.842106 134.746212
L 101.915935 134.179205
L 104.989764 133.612198
L 108.063593 133.04519
L 111.137423 132.478183
L 114.211252 131.911176
L 117.285081 131.344169
L 120.358911 130.777161
L 123.43274 130.210154
L 126.506569 129.643147
L 129.580399 129.07614
L 132.654228 128.509132
L 135.728057 127.942125
L 138.801886 127.375118
L 141.875716 126.80811
L 144.949545 126.241103
L 148.023374 125.674096
L 151.097204 125.107089
L 154.171033 124.540081
L 157.244862 123.973074
L 160.318692 123.406067
L 163.392521 122.83906
L 166.46635 122.272052
L 169.540179 121.705045
L 172.614009 121.138038
L 175.687838 120.571031
L 178.761667 120.004023
L 181.835497 119.437016
L 184.909326 118.870009
L 187.983155 118.303002
L 191.056985 117.735994
L 194.130814 117.168987
L 197.204643 116.60198
L 200.278472 116.034973
L 203.352302 115.467965
L 206.426131 114.900958
L 209.49996 114.333951
L 212.57379 113.766944
L 215.647619 113.199936
L 218.721448 112.632929
L 221.795278 112.065922
L 224.869107 111.498915
L 227.942936 110.931907
L 231.016765 110.3649
L 234.090595 109.797893
L 237.164424 109.230886
L 240.238253 108.663878
L 243.312083 108.096871
L 246.385912 107.529864
L 249.459741 106.962857
L 252.533571 106.395849
L 255.6074 105.828842
L 258.681229 105.261835
L 261.755058 104.694828
L 264.828888 104.12782
L 267.902717 103.560813
L 270.976546 102.993806
L 274.050376 102.426799
L 277.124205 101.859791
L 280.198034 101.292784
L 283.271864 100.725777
L 286.345693 100.15877
L 289.419522 99.591762
L 292.493351 99.024755
L 295.567181 98.457748
L 298.64101 97.890741
L 301.714839 97.323733
L 304.788669 96.756726
L 307.862498 96.189719
L 310.936327 95.622712
L 314.010157 95.055704
L 317.083986 94.488697
L 320.157815 93.92169
L 323.231644 93.354683
L 326.305474 92.787675
L 329.379303 92.220668
L 332.453132 91.653661
L 335.526962 91.086654
L 338.600791 90.519646
L 341.67462 89.952639
L 344.74845 89.385632
L 347.822279 88.818625
L 350.896108 88.251617
L 353.969937 87.68461
L 357.043767 87.117603
L 360.117596 86.550596
L 363.191425 85.983588
" style="fill:none;stroke:#15527d;stroke-linecap:square;stroke-width:2.25;"/>
   </g>
   <g id="patch_3">
    <path d="M 43.636875 220.94
L 43.636875 3.5
" style="fill:none;stroke:#000000;stroke-linecap:square;stroke-linejoin:miter;stroke-width:0.8;"/>
   </g>
   <g id="patch_4">
    <path d="M 378.436875 220.94
L 378.436875 3.5
" style="fill:none;stroke:#000000;stroke-linecap:square;stroke-linejoin:miter;stroke-width:0.8;"/>
   </g>
   <g id="patch_5">
    <path d="M 43.636875 220.94
L 378.436875 220.94
" style="fill:none;stroke:#000000;stroke-linecap:square;stroke-linejoin:miter;stroke-width:0.8;"/>
   </g>
   <g id="patch_6">
    <path d="M 43.636875 3.5
L 378.436875 3.5
" style="fill:none;stroke:#000000;stroke-linecap:square;stroke-linejoin:miter;stroke-width:0.8;"/>
   </g>
   <g id="text_15">
    <!-- R^2 = 0.302 -->
    <defs>
     <path d="M 44.390625 34.1875
Q 47.5625 33.109375 50.5625 29.59375
Q 53.5625 26.078125 56.59375 19.921875
L 66.609375 0
L 56 0
L 46.6875 18.703125
Q 43.0625 26.03125 39.671875 28.421875
Q 36.28125 30.8125 30.421875 30.8125
L 19.671875 30.8125
L 19.671875 0
L 9.8125 0
L 9.8125 72.90625
L 32.078125 72.90625
Q 44.578125 72.90625 50.734375 67.671875
Q 56.890625 62.453125 56.890625 51.90625
Q 56.890625 45.015625 53.6875 40.46875
Q 50.484375 35.9375 44.390625 34.1875
z
M 19.671875 64.796875
L 19.671875 38.921875
L 32.078125 38.921875
Q 39.203125 38.921875 42.84375 42.21875
Q 46.484375 45.515625 46.484375 51.90625
Q 46.484375 58.296875 42.84375 61.546875
Q 39.203125 64.796875 32.078125 64.796875
z
" id="DejaVuSans-82"/>
     <path d="M 46.6875 72.90625
L 73.1875 45.703125
L 63.375 45.703125
L 41.890625 64.984375
L 20.40625 45.703125
L 10.59375 45.703125
L 37.109375 72.90625
z
" id="DejaVuSans-94"/>
     <path d="M 10.59375 45.40625
L 73.1875 45.40625
L 73.1875 37.203125
L 10.59375 37.203125
z
M 10.59375 25.484375
L 73.1875 25.484375
L 73.1875 17.1875
L 10.59375 17.1875
z
" id="DejaVuSans-61"/>
     <path d="M 40.578125 39.3125
Q 47.65625 37.796875 51.625 33
Q 55.609375 28.21875 55.609375 21.1875
Q 55.609375 10.40625 48.1875 4.484375
Q 40.765625 -1.421875 27.09375 -1.421875
Q 22.515625 -1.421875 17.65625 -0.515625
Q 12.796875 0.390625 7.625 2.203125
L 7.625 11.71875
Q 11.71875 9.328125 16.59375 8.109375
Q 21.484375 6.890625 26.8125 6.890625
Q 36.078125 6.890625 40.9375 10.546875
Q 45.796875 14.203125 45.796875 21.1875
Q 45.796875 27.640625 41.28125 31.265625
Q 36.765625 34.90625 28.71875 34.90625
L 20.21875 34.90625
L 20.21875 43.015625
L 29.109375 43.015625
Q 36.375 43.015625 40.234375 45.921875
Q 44.09375 48.828125 44.09375 54.296875
Q 44.09375 59.90625 40.109375 62.90625
Q 36.140625 65.921875 28.71875 65.921875
Q 24.65625 65.921875 20.015625 65.03125
Q 15.375 64.15625 9.8125 62.3125
L 9.8125 71.09375
Q 15.4375 72.65625 20.34375 73.4375
Q 25.25 74.21875 29.59375 74.21875
Q 40.828125 74.21875 47.359375 69.109375
Q 53.90625 64.015625 53.90625 55.328125
Q 53.90625 49.265625 50.4375 45.09375
Q 46.96875 40.921875 40.578125 39.3125
z
" id="DejaVuSans-51"/>
    </defs>
    <g transform="translate(241.467785 17.363266)scale(0.1 -0.1)">
     <use xlink:href="#DejaVuSans-82"/>
     <use x="69.482422" xlink:href="#DejaVuSans-94"/>
     <use x="153.271484" xlink:href="#DejaVuSans-50"/>
     <use x="216.894531" xlink:href="#DejaVuSans-32"/>
     <use x="248.681641" xlink:href="#DejaVuSans-61"/>
     <use x="332.470703" xlink:href="#DejaVuSans-32"/>
     <use x="364.257812" xlink:href="#DejaVuSans-48"/>
     <use x="427.880859" xlink:href="#DejaVuSans-46"/>
     <use x="459.667969" xlink:href="#DejaVuSans-51"/>
     <use x="523.291016" xlink:href="#DejaVuSans-48"/>
     <use x="586.914062" xlink:href="#DejaVuSans-50"/>
    </g>
   </g>
  </g>
 </g>
 <defs>
  <clipPath id="p63eee3bf71">
   <rect height="217.44" width="334.8" x="43.636875" y="3.5"/>
  </clipPath>
 </defs>
</svg>
