<?xml version="1.0" encoding="utf-8" standalone="no"?>
<!DOCTYPE svg PUBLIC "-//W3C//DTD SVG 1.1//EN"
  "http://www.w3.org/Graphics/SVG/1.1/DTD/svg11.dtd">
<!-- Created with matplotlib (https://matplotlib.org/) -->
<svg height="255.1675pt" version="1.1" viewBox="0 0 381.936875 255.1675" width="381.936875pt" xmlns="http://www.w3.org/2000/svg" xmlns:xlink="http://www.w3.org/1999/xlink">
 <defs>
  <style type="text/css">
*{stroke-linecap:butt;stroke-linejoin:round;}
  </style>
 </defs>
 <g id="figure_1">
  <g id="patch_1">
   <path d="M 0 255.1675 
L 381.936875 255.1675 
L 381.936875 0 
L 0 0 
z
" style="fill:none;"/>
  </g>
  <g id="axes_1">
   <g id="patch_2">
    <path d="M 43.636875 220.94 
L 378.436875 220.94 
L 378.436875 3.5 
L 43.636875 3.5 
z
" style="fill:none;"/>
   </g>
   <g id="PathCollection_1">
    <defs>
     <path d="M 0 3.535534 
C 0.937635 3.535534 1.836992 3.163008 2.5 2.5 
C 3.163008 1.836992 3.535534 0.937635 3.535534 0 
C 3.535534 -0.937635 3.163008 -1.836992 2.5 -2.5 
C 1.836992 -3.163008 0.937635 -3.535534 0 -3.535534 
C -0.937635 -3.535534 -1.836992 -3.163008 -2.5 -2.5 
C -3.163008 -1.836992 -3.535534 -0.937635 -3.535534 0 
C -3.535534 0.937635 -3.163008 1.836992 -2.5 2.5 
C -1.836992 3.163008 -0.937635 3.535534 0 3.535534 
z
" id="m127dd24f9f" style="stroke:#ffffff;stroke-opacity:0.7;stroke-width:0.75;"/>
    </defs>
    <g clip-path="url(#pdf6f69a429)">
     <use style="fill:#15527d;fill-opacity:0.7;stroke:#ffffff;stroke-opacity:0.7;stroke-width:0.75;" x="58.858592" xlink:href="#m127dd24f9f" y="114.236996"/>
     <use style="fill:#15527d;fill-opacity:0.7;stroke:#ffffff;stroke-opacity:0.7;stroke-width:0.75;" x="349.536211" xlink:href="#m127dd24f9f" y="138.440954"/>
     <use style="fill:#15527d;fill-opacity:0.7;stroke:#ffffff;stroke-opacity:0.7;stroke-width:0.75;" x="58.858592" xlink:href="#m127dd24f9f" y="174.746891"/>
     <use style="fill:#15527d;fill-opacity:0.7;stroke:#ffffff;stroke-opacity:0.7;stroke-width:0.75;" x="315.338844" xlink:href="#m127dd24f9f" y="106.169011"/>
     <use style="fill:#15527d;fill-opacity:0.7;stroke:#ffffff;stroke-opacity:0.7;stroke-width:0.75;" x="342.696738" xlink:href="#m127dd24f9f" y="128.355972"/>
     <use style="fill:#15527d;fill-opacity:0.7;stroke:#ffffff;stroke-opacity:0.7;stroke-width:0.75;" x="164.87043" xlink:href="#m127dd24f9f" y="148.525937"/>
     <use style="fill:#15527d;fill-opacity:0.7;stroke:#ffffff;stroke-opacity:0.7;stroke-width:0.75;" x="267.46253" xlink:href="#m127dd24f9f" y="198.950849"/>
     <use style="fill:#15527d;fill-opacity:0.7;stroke:#ffffff;stroke-opacity:0.7;stroke-width:0.75;" x="281.141477" xlink:href="#m127dd24f9f" y="61.795088"/>
     <use style="fill:#15527d;fill-opacity:0.7;stroke:#ffffff;stroke-opacity:0.7;stroke-width:0.75;" x="116.994116" xlink:href="#m127dd24f9f" y="73.897067"/>
     <use style="fill:#15527d;fill-opacity:0.7;stroke:#ffffff;stroke-opacity:0.7;stroke-width:0.75;" x="58.858592" xlink:href="#m127dd24f9f" y="69.863074"/>
     <use style="fill:#15527d;fill-opacity:0.7;stroke:#ffffff;stroke-opacity:0.7;stroke-width:0.75;" x="110.154643" xlink:href="#m127dd24f9f" y="90.033039"/>
     <use style="fill:#15527d;fill-opacity:0.7;stroke:#ffffff;stroke-opacity:0.7;stroke-width:0.75;" x="123.833589" xlink:href="#m127dd24f9f" y="94.067032"/>
     <use style="fill:#15527d;fill-opacity:0.7;stroke:#ffffff;stroke-opacity:0.7;stroke-width:0.75;" x="158.030956" xlink:href="#m127dd24f9f" y="184.831874"/>
     <use style="fill:#15527d;fill-opacity:0.7;stroke:#ffffff;stroke-opacity:0.7;stroke-width:0.75;" x="171.709903" xlink:href="#m127dd24f9f" y="77.93106"/>
     <use style="fill:#15527d;fill-opacity:0.7;stroke:#ffffff;stroke-opacity:0.7;stroke-width:0.75;" x="240.104637" xlink:href="#m127dd24f9f" y="110.203004"/>
     <use style="fill:#15527d;fill-opacity:0.7;stroke:#ffffff;stroke-opacity:0.7;stroke-width:0.75;" x="322.178317" xlink:href="#m127dd24f9f" y="81.965053"/>
     <use style="fill:#15527d;fill-opacity:0.7;stroke:#ffffff;stroke-opacity:0.7;stroke-width:0.75;" x="58.858592" xlink:href="#m127dd24f9f" y="118.270989"/>
     <use style="fill:#15527d;fill-opacity:0.7;stroke:#ffffff;stroke-opacity:0.7;stroke-width:0.75;" x="246.94411" xlink:href="#m127dd24f9f" y="33.557137"/>
     <use style="fill:#15527d;fill-opacity:0.7;stroke:#ffffff;stroke-opacity:0.7;stroke-width:0.75;" x="103.315169" xlink:href="#m127dd24f9f" y="37.59113"/>
     <use style="fill:#15527d;fill-opacity:0.7;stroke:#ffffff;stroke-opacity:0.7;stroke-width:0.75;" x="260.623057" xlink:href="#m127dd24f9f" y="122.304982"/>
     <use style="fill:#15527d;fill-opacity:0.7;stroke:#ffffff;stroke-opacity:0.7;stroke-width:0.75;" x="287.980951" xlink:href="#m127dd24f9f" y="85.999046"/>
     <use style="fill:#15527d;fill-opacity:0.7;stroke:#ffffff;stroke-opacity:0.7;stroke-width:0.75;" x="151.191483" xlink:href="#m127dd24f9f" y="102.135018"/>
     <use style="fill:#15527d;fill-opacity:0.7;stroke:#ffffff;stroke-opacity:0.7;stroke-width:0.75;" x="58.858592" xlink:href="#m127dd24f9f" y="13.387172"/>
     <use style="fill:#15527d;fill-opacity:0.7;stroke:#ffffff;stroke-opacity:0.7;stroke-width:0.75;" x="301.659897" xlink:href="#m127dd24f9f" y="142.474947"/>
     <use style="fill:#15527d;fill-opacity:0.7;stroke:#ffffff;stroke-opacity:0.7;stroke-width:0.75;" x="58.858592" xlink:href="#m127dd24f9f" y="192.89986"/>
     <use style="fill:#15527d;fill-opacity:0.7;stroke:#ffffff;stroke-opacity:0.7;stroke-width:0.75;" x="363.215158" xlink:href="#m127dd24f9f" y="184.831874"/>
     <use style="fill:#15527d;fill-opacity:0.7;stroke:#ffffff;stroke-opacity:0.7;stroke-width:0.75;" x="185.38885" xlink:href="#m127dd24f9f" y="128.355972"/>
     <use style="fill:#15527d;fill-opacity:0.7;stroke:#ffffff;stroke-opacity:0.7;stroke-width:0.75;" x="140.932273" xlink:href="#m127dd24f9f" y="134.406961"/>
     <use style="fill:#15527d;fill-opacity:0.7;stroke:#ffffff;stroke-opacity:0.7;stroke-width:0.75;" x="356.375684" xlink:href="#m127dd24f9f" y="205.001839"/>
     <use style="fill:#15527d;fill-opacity:0.7;stroke:#ffffff;stroke-opacity:0.7;stroke-width:0.75;" x="58.858592" xlink:href="#m127dd24f9f" y="45.659116"/>
     <use style="fill:#15527d;fill-opacity:0.7;stroke:#ffffff;stroke-opacity:0.7;stroke-width:0.75;" x="329.017791" xlink:href="#m127dd24f9f" y="211.052828"/>
     <use style="fill:#15527d;fill-opacity:0.7;stroke:#ffffff;stroke-opacity:0.7;stroke-width:0.75;" x="58.858592" xlink:href="#m127dd24f9f" y="154.576926"/>
     <use style="fill:#15527d;fill-opacity:0.7;stroke:#ffffff;stroke-opacity:0.7;stroke-width:0.75;" x="140.932273" xlink:href="#m127dd24f9f" y="17.421165"/>
     <use style="fill:#15527d;fill-opacity:0.7;stroke:#ffffff;stroke-opacity:0.7;stroke-width:0.75;" x="233.265163" xlink:href="#m127dd24f9f" y="174.746891"/>
     <use style="fill:#15527d;fill-opacity:0.7;stroke:#ffffff;stroke-opacity:0.7;stroke-width:0.75;" x="226.42569" xlink:href="#m127dd24f9f" y="164.661909"/>
     <use style="fill:#15527d;fill-opacity:0.7;stroke:#ffffff;stroke-opacity:0.7;stroke-width:0.75;" x="253.783584" xlink:href="#m127dd24f9f" y="41.625123"/>
     <use style="fill:#15527d;fill-opacity:0.7;stroke:#ffffff;stroke-opacity:0.7;stroke-width:0.75;" x="205.90727" xlink:href="#m127dd24f9f" y="148.525937"/>
     <use style="fill:#15527d;fill-opacity:0.7;stroke:#ffffff;stroke-opacity:0.7;stroke-width:0.75;" x="192.228323" xlink:href="#m127dd24f9f" y="57.761095"/>
     <use style="fill:#15527d;fill-opacity:0.7;stroke:#ffffff;stroke-opacity:0.7;stroke-width:0.75;" x="130.673063" xlink:href="#m127dd24f9f" y="158.610919"/>
     <use style="fill:#15527d;fill-opacity:0.7;stroke:#ffffff;stroke-opacity:0.7;stroke-width:0.75;" x="58.858592" xlink:href="#m127dd24f9f" y="25.489151"/>
     <use style="fill:#15527d;fill-opacity:0.7;stroke:#ffffff;stroke-opacity:0.7;stroke-width:0.75;" x="199.067797" xlink:href="#m127dd24f9f" y="192.89986"/>
     <use style="fill:#15527d;fill-opacity:0.7;stroke:#ffffff;stroke-opacity:0.7;stroke-width:0.75;" x="219.586217" xlink:href="#m127dd24f9f" y="29.523144"/>
     <use style="fill:#15527d;fill-opacity:0.7;stroke:#ffffff;stroke-opacity:0.7;stroke-width:0.75;" x="274.302004" xlink:href="#m127dd24f9f" y="53.727102"/>
     <use style="fill:#15527d;fill-opacity:0.7;stroke:#ffffff;stroke-opacity:0.7;stroke-width:0.75;" x="308.499371" xlink:href="#m127dd24f9f" y="98.101025"/>
     <use style="fill:#15527d;fill-opacity:0.7;stroke:#ffffff;stroke-opacity:0.7;stroke-width:0.75;" x="58.858592" xlink:href="#m127dd24f9f" y="21.455158"/>
     <use style="fill:#15527d;fill-opacity:0.7;stroke:#ffffff;stroke-opacity:0.7;stroke-width:0.75;" x="96.475696" xlink:href="#m127dd24f9f" y="65.829081"/>
     <use style="fill:#15527d;fill-opacity:0.7;stroke:#ffffff;stroke-opacity:0.7;stroke-width:0.75;" x="335.857264" xlink:href="#m127dd24f9f" y="174.746891"/>
     <use style="fill:#15527d;fill-opacity:0.7;stroke:#ffffff;stroke-opacity:0.7;stroke-width:0.75;" x="294.820424" xlink:href="#m127dd24f9f" y="164.661909"/>
     <use style="fill:#15527d;fill-opacity:0.7;stroke:#ffffff;stroke-opacity:0.7;stroke-width:0.75;" x="178.549376" xlink:href="#m127dd24f9f" y="49.693109"/>
     <use style="fill:#15527d;fill-opacity:0.7;stroke:#ffffff;stroke-opacity:0.7;stroke-width:0.75;" x="212.746743" xlink:href="#m127dd24f9f" y="205.001839"/>
    </g>
   </g>
   <g id="matplotlib.axis_1">
    <g id="xtick_1">
     <g id="line2d_1">
      <defs>
       <path d="M 0 0 
L 0 3.5 
" id="m86e4346f62" style="stroke:#000000;stroke-width:0.8;"/>
      </defs>
      <g>
       <use style="stroke:#000000;stroke-width:0.8;" x="58.858592" xlink:href="#m86e4346f62" y="220.94"/>
      </g>
     </g>
     <g id="text_1">
      <!-- 0 -->
      <defs>
       <path d="M 31.78125 66.40625 
Q 24.171875 66.40625 20.328125 58.90625 
Q 16.5 51.421875 16.5 36.375 
Q 16.5 21.390625 20.328125 13.890625 
Q 24.171875 6.390625 31.78125 6.390625 
Q 39.453125 6.390625 43.28125 13.890625 
Q 47.125 21.390625 47.125 36.375 
Q 47.125 51.421875 43.28125 58.90625 
Q 39.453125 66.40625 31.78125 66.40625 
z
M 31.78125 74.21875 
Q 44.046875 74.21875 50.515625 64.515625 
Q 56.984375 54.828125 56.984375 36.375 
Q 56.984375 17.96875 50.515625 8.265625 
Q 44.046875 -1.421875 31.78125 -1.421875 
Q 19.53125 -1.421875 13.0625 8.265625 
Q 6.59375 17.96875 6.59375 36.375 
Q 6.59375 54.828125 13.0625 64.515625 
Q 19.53125 74.21875 31.78125 74.21875 
z
" id="DejaVuSans-48"/>
      </defs>
      <g transform="translate(55.677342 235.538437)scale(0.1 -0.1)">
       <use xlink:href="#DejaVuSans-48"/>
      </g>
     </g>
    </g>
    <g id="xtick_2">
     <g id="line2d_2">
      <g>
       <use style="stroke:#000000;stroke-width:0.8;" x="119.729905" xlink:href="#m86e4346f62" y="220.94"/>
      </g>
     </g>
     <g id="text_2">
      <!-- 20 -->
      <defs>
       <path d="M 19.1875 8.296875 
L 53.609375 8.296875 
L 53.609375 0 
L 7.328125 0 
L 7.328125 8.296875 
Q 12.9375 14.109375 22.625 23.890625 
Q 32.328125 33.6875 34.8125 36.53125 
Q 39.546875 41.84375 41.421875 45.53125 
Q 43.3125 49.21875 43.3125 52.78125 
Q 43.3125 58.59375 39.234375 62.25 
Q 35.15625 65.921875 28.609375 65.921875 
Q 23.96875 65.921875 18.8125 64.3125 
Q 13.671875 62.703125 7.8125 59.421875 
L 7.8125 69.390625 
Q 13.765625 71.78125 18.9375 73 
Q 24.125 74.21875 28.421875 74.21875 
Q 39.75 74.21875 46.484375 68.546875 
Q 53.21875 62.890625 53.21875 53.421875 
Q 53.21875 48.921875 51.53125 44.890625 
Q 49.859375 40.875 45.40625 35.40625 
Q 44.1875 33.984375 37.640625 27.21875 
Q 31.109375 20.453125 19.1875 8.296875 
z
" id="DejaVuSans-50"/>
      </defs>
      <g transform="translate(113.367405 235.538437)scale(0.1 -0.1)">
       <use xlink:href="#DejaVuSans-50"/>
       <use x="63.623047" xlink:href="#DejaVuSans-48"/>
      </g>
     </g>
    </g>
    <g id="xtick_3">
     <g id="line2d_3">
      <g>
       <use style="stroke:#000000;stroke-width:0.8;" x="180.601218" xlink:href="#m86e4346f62" y="220.94"/>
      </g>
     </g>
     <g id="text_3">
      <!-- 40 -->
      <defs>
       <path d="M 37.796875 64.3125 
L 12.890625 25.390625 
L 37.796875 25.390625 
z
M 35.203125 72.90625 
L 47.609375 72.90625 
L 47.609375 25.390625 
L 58.015625 25.390625 
L 58.015625 17.1875 
L 47.609375 17.1875 
L 47.609375 0 
L 37.796875 0 
L 37.796875 17.1875 
L 4.890625 17.1875 
L 4.890625 26.703125 
z
" id="DejaVuSans-52"/>
      </defs>
      <g transform="translate(174.238718 235.538437)scale(0.1 -0.1)">
       <use xlink:href="#DejaVuSans-52"/>
       <use x="63.623047" xlink:href="#DejaVuSans-48"/>
      </g>
     </g>
    </g>
    <g id="xtick_4">
     <g id="line2d_4">
      <g>
       <use style="stroke:#000000;stroke-width:0.8;" x="241.472532" xlink:href="#m86e4346f62" y="220.94"/>
      </g>
     </g>
     <g id="text_4">
      <!-- 60 -->
      <defs>
       <path d="M 33.015625 40.375 
Q 26.375 40.375 22.484375 35.828125 
Q 18.609375 31.296875 18.609375 23.390625 
Q 18.609375 15.53125 22.484375 10.953125 
Q 26.375 6.390625 33.015625 6.390625 
Q 39.65625 6.390625 43.53125 10.953125 
Q 47.40625 15.53125 47.40625 23.390625 
Q 47.40625 31.296875 43.53125 35.828125 
Q 39.65625 40.375 33.015625 40.375 
z
M 52.59375 71.296875 
L 52.59375 62.3125 
Q 48.875 64.0625 45.09375 64.984375 
Q 41.3125 65.921875 37.59375 65.921875 
Q 27.828125 65.921875 22.671875 59.328125 
Q 17.53125 52.734375 16.796875 39.40625 
Q 19.671875 43.65625 24.015625 45.921875 
Q 28.375 48.1875 33.59375 48.1875 
Q 44.578125 48.1875 50.953125 41.515625 
Q 57.328125 34.859375 57.328125 23.390625 
Q 57.328125 12.15625 50.6875 5.359375 
Q 44.046875 -1.421875 33.015625 -1.421875 
Q 20.359375 -1.421875 13.671875 8.265625 
Q 6.984375 17.96875 6.984375 36.375 
Q 6.984375 53.65625 15.1875 63.9375 
Q 23.390625 74.21875 37.203125 74.21875 
Q 40.921875 74.21875 44.703125 73.484375 
Q 48.484375 72.75 52.59375 71.296875 
z
" id="DejaVuSans-54"/>
      </defs>
      <g transform="translate(235.110032 235.538437)scale(0.1 -0.1)">
       <use xlink:href="#DejaVuSans-54"/>
       <use x="63.623047" xlink:href="#DejaVuSans-48"/>
      </g>
     </g>
    </g>
    <g id="xtick_5">
     <g id="line2d_5">
      <g>
       <use style="stroke:#000000;stroke-width:0.8;" x="302.343845" xlink:href="#m86e4346f62" y="220.94"/>
      </g>
     </g>
     <g id="text_5">
      <!-- 80 -->
      <defs>
       <path d="M 31.78125 34.625 
Q 24.75 34.625 20.71875 30.859375 
Q 16.703125 27.09375 16.703125 20.515625 
Q 16.703125 13.921875 20.71875 10.15625 
Q 24.75 6.390625 31.78125 6.390625 
Q 38.8125 6.390625 42.859375 10.171875 
Q 46.921875 13.96875 46.921875 20.515625 
Q 46.921875 27.09375 42.890625 30.859375 
Q 38.875 34.625 31.78125 34.625 
z
M 21.921875 38.8125 
Q 15.578125 40.375 12.03125 44.71875 
Q 8.5 49.078125 8.5 55.328125 
Q 8.5 64.0625 14.71875 69.140625 
Q 20.953125 74.21875 31.78125 74.21875 
Q 42.671875 74.21875 48.875 69.140625 
Q 55.078125 64.0625 55.078125 55.328125 
Q 55.078125 49.078125 51.53125 44.71875 
Q 48 40.375 41.703125 38.8125 
Q 48.828125 37.15625 52.796875 32.3125 
Q 56.78125 27.484375 56.78125 20.515625 
Q 56.78125 9.90625 50.3125 4.234375 
Q 43.84375 -1.421875 31.78125 -1.421875 
Q 19.734375 -1.421875 13.25 4.234375 
Q 6.78125 9.90625 6.78125 20.515625 
Q 6.78125 27.484375 10.78125 32.3125 
Q 14.796875 37.15625 21.921875 38.8125 
z
M 18.3125 54.390625 
Q 18.3125 48.734375 21.84375 45.5625 
Q 25.390625 42.390625 31.78125 42.390625 
Q 38.140625 42.390625 41.71875 45.5625 
Q 45.3125 48.734375 45.3125 54.390625 
Q 45.3125 60.0625 41.71875 63.234375 
Q 38.140625 66.40625 31.78125 66.40625 
Q 25.390625 66.40625 21.84375 63.234375 
Q 18.3125 60.0625 18.3125 54.390625 
z
" id="DejaVuSans-56"/>
      </defs>
      <g transform="translate(295.981345 235.538437)scale(0.1 -0.1)">
       <use xlink:href="#DejaVuSans-56"/>
       <use x="63.623047" xlink:href="#DejaVuSans-48"/>
      </g>
     </g>
    </g>
    <g id="xtick_6">
     <g id="line2d_6">
      <g>
       <use style="stroke:#000000;stroke-width:0.8;" x="363.215158" xlink:href="#m86e4346f62" y="220.94"/>
      </g>
     </g>
     <g id="text_6">
      <!-- 100 -->
      <defs>
       <path d="M 12.40625 8.296875 
L 28.515625 8.296875 
L 28.515625 63.921875 
L 10.984375 60.40625 
L 10.984375 69.390625 
L 28.421875 72.90625 
L 38.28125 72.90625 
L 38.28125 8.296875 
L 54.390625 8.296875 
L 54.390625 0 
L 12.40625 0 
z
" id="DejaVuSans-49"/>
      </defs>
      <g transform="translate(353.671408 235.538437)scale(0.1 -0.1)">
       <use xlink:href="#DejaVuSans-49"/>
       <use x="63.623047" xlink:href="#DejaVuSans-48"/>
       <use x="127.246094" xlink:href="#DejaVuSans-48"/>
      </g>
     </g>
    </g>
    <g id="text_7">
     <!-- SOPHIE -->
     <defs>
      <path d="M 53.515625 70.515625 
L 53.515625 60.890625 
Q 47.90625 63.578125 42.921875 64.890625 
Q 37.9375 66.21875 33.296875 66.21875 
Q 25.25 66.21875 20.875 63.09375 
Q 16.5 59.96875 16.5 54.203125 
Q 16.5 49.359375 19.40625 46.890625 
Q 22.3125 44.4375 30.421875 42.921875 
L 36.375 41.703125 
Q 47.40625 39.59375 52.65625 34.296875 
Q 57.90625 29 57.90625 20.125 
Q 57.90625 9.515625 50.796875 4.046875 
Q 43.703125 -1.421875 29.984375 -1.421875 
Q 24.8125 -1.421875 18.96875 -0.25 
Q 13.140625 0.921875 6.890625 3.21875 
L 6.890625 13.375 
Q 12.890625 10.015625 18.65625 8.296875 
Q 24.421875 6.59375 29.984375 6.59375 
Q 38.421875 6.59375 43.015625 9.90625 
Q 47.609375 13.234375 47.609375 19.390625 
Q 47.609375 24.75 44.3125 27.78125 
Q 41.015625 30.8125 33.5 32.328125 
L 27.484375 33.5 
Q 16.453125 35.6875 11.515625 40.375 
Q 6.59375 45.0625 6.59375 53.421875 
Q 6.59375 63.09375 13.40625 68.65625 
Q 20.21875 74.21875 32.171875 74.21875 
Q 37.3125 74.21875 42.625 73.28125 
Q 47.953125 72.359375 53.515625 70.515625 
z
" id="DejaVuSans-83"/>
      <path d="M 39.40625 66.21875 
Q 28.65625 66.21875 22.328125 58.203125 
Q 16.015625 50.203125 16.015625 36.375 
Q 16.015625 22.609375 22.328125 14.59375 
Q 28.65625 6.59375 39.40625 6.59375 
Q 50.140625 6.59375 56.421875 14.59375 
Q 62.703125 22.609375 62.703125 36.375 
Q 62.703125 50.203125 56.421875 58.203125 
Q 50.140625 66.21875 39.40625 66.21875 
z
M 39.40625 74.21875 
Q 54.734375 74.21875 63.90625 63.9375 
Q 73.09375 53.65625 73.09375 36.375 
Q 73.09375 19.140625 63.90625 8.859375 
Q 54.734375 -1.421875 39.40625 -1.421875 
Q 24.03125 -1.421875 14.8125 8.828125 
Q 5.609375 19.09375 5.609375 36.375 
Q 5.609375 53.65625 14.8125 63.9375 
Q 24.03125 74.21875 39.40625 74.21875 
z
" id="DejaVuSans-79"/>
      <path d="M 19.671875 64.796875 
L 19.671875 37.40625 
L 32.078125 37.40625 
Q 38.96875 37.40625 42.71875 40.96875 
Q 46.484375 44.53125 46.484375 51.125 
Q 46.484375 57.671875 42.71875 61.234375 
Q 38.96875 64.796875 32.078125 64.796875 
z
M 9.8125 72.90625 
L 32.078125 72.90625 
Q 44.34375 72.90625 50.609375 67.359375 
Q 56.890625 61.8125 56.890625 51.125 
Q 56.890625 40.328125 50.609375 34.8125 
Q 44.34375 29.296875 32.078125 29.296875 
L 19.671875 29.296875 
L 19.671875 0 
L 9.8125 0 
z
" id="DejaVuSans-80"/>
      <path d="M 9.8125 72.90625 
L 19.671875 72.90625 
L 19.671875 43.015625 
L 55.515625 43.015625 
L 55.515625 72.90625 
L 65.375 72.90625 
L 65.375 0 
L 55.515625 0 
L 55.515625 34.71875 
L 19.671875 34.71875 
L 19.671875 0 
L 9.8125 0 
z
" id="DejaVuSans-72"/>
      <path d="M 9.8125 72.90625 
L 19.671875 72.90625 
L 19.671875 0 
L 9.8125 0 
z
" id="DejaVuSans-73"/>
      <path d="M 9.8125 72.90625 
L 55.90625 72.90625 
L 55.90625 64.59375 
L 19.671875 64.59375 
L 19.671875 43.015625 
L 54.390625 43.015625 
L 54.390625 34.71875 
L 19.671875 34.71875 
L 19.671875 8.296875 
L 56.78125 8.296875 
L 56.78125 0 
L 9.8125 0 
z
" id="DejaVuSans-69"/>
     </defs>
     <g transform="translate(185.109531 252.255937)scale(0.14 -0.14)">
      <use xlink:href="#DejaVuSans-83"/>
      <use x="63.476562" xlink:href="#DejaVuSans-79"/>
      <use x="142.1875" xlink:href="#DejaVuSans-80"/>
      <use x="202.490234" xlink:href="#DejaVuSans-72"/>
      <use x="277.685547" xlink:href="#DejaVuSans-73"/>
      <use x="307.177734" xlink:href="#DejaVuSans-69"/>
     </g>
    </g>
   </g>
   <g id="matplotlib.axis_2">
    <g id="ytick_1">
     <g id="line2d_7">
      <defs>
       <path d="M 0 0 
L -3.5 0 
" id="m4c5e75427e" style="stroke:#000000;stroke-width:0.8;"/>
      </defs>
      <g>
       <use style="stroke:#000000;stroke-width:0.8;" x="43.636875" xlink:href="#m4c5e75427e" y="211.052828"/>
      </g>
     </g>
     <g id="text_8">
      <!-- 0 -->
      <g transform="translate(30.274375 214.852047)scale(0.1 -0.1)">
       <use xlink:href="#DejaVuSans-48"/>
      </g>
     </g>
    </g>
    <g id="ytick_2">
     <g id="line2d_8">
      <g>
       <use style="stroke:#000000;stroke-width:0.8;" x="43.636875" xlink:href="#m4c5e75427e" y="171.519697"/>
      </g>
     </g>
     <g id="text_9">
      <!-- 20 -->
      <g transform="translate(23.911875 175.318916)scale(0.1 -0.1)">
       <use xlink:href="#DejaVuSans-50"/>
       <use x="63.623047" xlink:href="#DejaVuSans-48"/>
      </g>
     </g>
    </g>
    <g id="ytick_3">
     <g id="line2d_9">
      <g>
       <use style="stroke:#000000;stroke-width:0.8;" x="43.636875" xlink:href="#m4c5e75427e" y="131.986566"/>
      </g>
     </g>
     <g id="text_10">
      <!-- 40 -->
      <g transform="translate(23.911875 135.785784)scale(0.1 -0.1)">
       <use xlink:href="#DejaVuSans-52"/>
       <use x="63.623047" xlink:href="#DejaVuSans-48"/>
      </g>
     </g>
    </g>
    <g id="ytick_4">
     <g id="line2d_10">
      <g>
       <use style="stroke:#000000;stroke-width:0.8;" x="43.636875" xlink:href="#m4c5e75427e" y="92.453434"/>
      </g>
     </g>
     <g id="text_11">
      <!-- 60 -->
      <g transform="translate(23.911875 96.252653)scale(0.1 -0.1)">
       <use xlink:href="#DejaVuSans-54"/>
       <use x="63.623047" xlink:href="#DejaVuSans-48"/>
      </g>
     </g>
    </g>
    <g id="ytick_5">
     <g id="line2d_11">
      <g>
       <use style="stroke:#000000;stroke-width:0.8;" x="43.636875" xlink:href="#m4c5e75427e" y="52.920303"/>
      </g>
     </g>
     <g id="text_12">
      <!-- 80 -->
      <g transform="translate(23.911875 56.719522)scale(0.1 -0.1)">
       <use xlink:href="#DejaVuSans-56"/>
       <use x="63.623047" xlink:href="#DejaVuSans-48"/>
      </g>
     </g>
    </g>
    <g id="ytick_6">
     <g id="line2d_12">
      <g>
       <use style="stroke:#000000;stroke-width:0.8;" x="43.636875" xlink:href="#m4c5e75427e" y="13.387172"/>
      </g>
     </g>
     <g id="text_13">
      <!-- 100 -->
      <g transform="translate(17.549375 17.186391)scale(0.1 -0.1)">
       <use xlink:href="#DejaVuSans-49"/>
       <use x="63.623047" xlink:href="#DejaVuSans-48"/>
       <use x="127.246094" xlink:href="#DejaVuSans-48"/>
      </g>
     </g>
    </g>
    <g id="text_14">
     <!-- Powers et. al. 2018 -->
     <defs>
      <path d="M 30.609375 48.390625 
Q 23.390625 48.390625 19.1875 42.75 
Q 14.984375 37.109375 14.984375 27.296875 
Q 14.984375 17.484375 19.15625 11.84375 
Q 23.34375 6.203125 30.609375 6.203125 
Q 37.796875 6.203125 41.984375 11.859375 
Q 46.1875 17.53125 46.1875 27.296875 
Q 46.1875 37.015625 41.984375 42.703125 
Q 37.796875 48.390625 30.609375 48.390625 
z
M 30.609375 56 
Q 42.328125 56 49.015625 48.375 
Q 55.71875 40.765625 55.71875 27.296875 
Q 55.71875 13.875 49.015625 6.21875 
Q 42.328125 -1.421875 30.609375 -1.421875 
Q 18.84375 -1.421875 12.171875 6.21875 
Q 5.515625 13.875 5.515625 27.296875 
Q 5.515625 40.765625 12.171875 48.375 
Q 18.84375 56 30.609375 56 
z
" id="DejaVuSans-111"/>
      <path d="M 4.203125 54.6875 
L 13.1875 54.6875 
L 24.421875 12.015625 
L 35.59375 54.6875 
L 46.1875 54.6875 
L 57.421875 12.015625 
L 68.609375 54.6875 
L 77.59375 54.6875 
L 63.28125 0 
L 52.6875 0 
L 40.921875 44.828125 
L 29.109375 0 
L 18.5 0 
z
" id="DejaVuSans-119"/>
      <path d="M 56.203125 29.59375 
L 56.203125 25.203125 
L 14.890625 25.203125 
Q 15.484375 15.921875 20.484375 11.0625 
Q 25.484375 6.203125 34.421875 6.203125 
Q 39.59375 6.203125 44.453125 7.46875 
Q 49.3125 8.734375 54.109375 11.28125 
L 54.109375 2.78125 
Q 49.265625 0.734375 44.1875 -0.34375 
Q 39.109375 -1.421875 33.890625 -1.421875 
Q 20.796875 -1.421875 13.15625 6.1875 
Q 5.515625 13.8125 5.515625 26.8125 
Q 5.515625 40.234375 12.765625 48.109375 
Q 20.015625 56 32.328125 56 
Q 43.359375 56 49.78125 48.890625 
Q 56.203125 41.796875 56.203125 29.59375 
z
M 47.21875 32.234375 
Q 47.125 39.59375 43.09375 43.984375 
Q 39.0625 48.390625 32.421875 48.390625 
Q 24.90625 48.390625 20.390625 44.140625 
Q 15.875 39.890625 15.1875 32.171875 
z
" id="DejaVuSans-101"/>
      <path d="M 41.109375 46.296875 
Q 39.59375 47.171875 37.8125 47.578125 
Q 36.03125 48 33.890625 48 
Q 26.265625 48 22.1875 43.046875 
Q 18.109375 38.09375 18.109375 28.8125 
L 18.109375 0 
L 9.078125 0 
L 9.078125 54.6875 
L 18.109375 54.6875 
L 18.109375 46.1875 
Q 20.953125 51.171875 25.484375 53.578125 
Q 30.03125 56 36.53125 56 
Q 37.453125 56 38.578125 55.875 
Q 39.703125 55.765625 41.0625 55.515625 
z
" id="DejaVuSans-114"/>
      <path d="M 44.28125 53.078125 
L 44.28125 44.578125 
Q 40.484375 46.53125 36.375 47.5 
Q 32.28125 48.484375 27.875 48.484375 
Q 21.1875 48.484375 17.84375 46.4375 
Q 14.5 44.390625 14.5 40.28125 
Q 14.5 37.15625 16.890625 35.375 
Q 19.28125 33.59375 26.515625 31.984375 
L 29.59375 31.296875 
Q 39.15625 29.25 43.1875 25.515625 
Q 47.21875 21.78125 47.21875 15.09375 
Q 47.21875 7.46875 41.1875 3.015625 
Q 35.15625 -1.421875 24.609375 -1.421875 
Q 20.21875 -1.421875 15.453125 -0.5625 
Q 10.6875 0.296875 5.421875 2 
L 5.421875 11.28125 
Q 10.40625 8.6875 15.234375 7.390625 
Q 20.0625 6.109375 24.8125 6.109375 
Q 31.15625 6.109375 34.5625 8.28125 
Q 37.984375 10.453125 37.984375 14.40625 
Q 37.984375 18.0625 35.515625 20.015625 
Q 33.0625 21.96875 24.703125 23.78125 
L 21.578125 24.515625 
Q 13.234375 26.265625 9.515625 29.90625 
Q 5.8125 33.546875 5.8125 39.890625 
Q 5.8125 47.609375 11.28125 51.796875 
Q 16.75 56 26.8125 56 
Q 31.78125 56 36.171875 55.265625 
Q 40.578125 54.546875 44.28125 53.078125 
z
" id="DejaVuSans-115"/>
      <path id="DejaVuSans-32"/>
      <path d="M 18.3125 70.21875 
L 18.3125 54.6875 
L 36.8125 54.6875 
L 36.8125 47.703125 
L 18.3125 47.703125 
L 18.3125 18.015625 
Q 18.3125 11.328125 20.140625 9.421875 
Q 21.96875 7.515625 27.59375 7.515625 
L 36.8125 7.515625 
L 36.8125 0 
L 27.59375 0 
Q 17.1875 0 13.234375 3.875 
Q 9.28125 7.765625 9.28125 18.015625 
L 9.28125 47.703125 
L 2.6875 47.703125 
L 2.6875 54.6875 
L 9.28125 54.6875 
L 9.28125 70.21875 
z
" id="DejaVuSans-116"/>
      <path d="M 10.6875 12.40625 
L 21 12.40625 
L 21 0 
L 10.6875 0 
z
" id="DejaVuSans-46"/>
      <path d="M 34.28125 27.484375 
Q 23.390625 27.484375 19.1875 25 
Q 14.984375 22.515625 14.984375 16.5 
Q 14.984375 11.71875 18.140625 8.90625 
Q 21.296875 6.109375 26.703125 6.109375 
Q 34.1875 6.109375 38.703125 11.40625 
Q 43.21875 16.703125 43.21875 25.484375 
L 43.21875 27.484375 
z
M 52.203125 31.203125 
L 52.203125 0 
L 43.21875 0 
L 43.21875 8.296875 
Q 40.140625 3.328125 35.546875 0.953125 
Q 30.953125 -1.421875 24.3125 -1.421875 
Q 15.921875 -1.421875 10.953125 3.296875 
Q 6 8.015625 6 15.921875 
Q 6 25.140625 12.171875 29.828125 
Q 18.359375 34.515625 30.609375 34.515625 
L 43.21875 34.515625 
L 43.21875 35.40625 
Q 43.21875 41.609375 39.140625 45 
Q 35.0625 48.390625 27.6875 48.390625 
Q 23 48.390625 18.546875 47.265625 
Q 14.109375 46.140625 10.015625 43.890625 
L 10.015625 52.203125 
Q 14.9375 54.109375 19.578125 55.046875 
Q 24.21875 56 28.609375 56 
Q 40.484375 56 46.34375 49.84375 
Q 52.203125 43.703125 52.203125 31.203125 
z
" id="DejaVuSans-97"/>
      <path d="M 9.421875 75.984375 
L 18.40625 75.984375 
L 18.40625 0 
L 9.421875 0 
z
" id="DejaVuSans-108"/>
     </defs>
     <g transform="translate(10.637812 179.500937)rotate(-90)scale(0.14 -0.14)">
      <use xlink:href="#DejaVuSans-80"/>
      <use x="60.255859" xlink:href="#DejaVuSans-111"/>
      <use x="121.4375" xlink:href="#DejaVuSans-119"/>
      <use x="203.224609" xlink:href="#DejaVuSans-101"/>
      <use x="264.748047" xlink:href="#DejaVuSans-114"/>
      <use x="305.861328" xlink:href="#DejaVuSans-115"/>
      <use x="357.960938" xlink:href="#DejaVuSans-32"/>
      <use x="389.748047" xlink:href="#DejaVuSans-101"/>
      <use x="451.271484" xlink:href="#DejaVuSans-116"/>
      <use x="490.480469" xlink:href="#DejaVuSans-46"/>
      <use x="522.267578" xlink:href="#DejaVuSans-32"/>
      <use x="554.054688" xlink:href="#DejaVuSans-97"/>
      <use x="615.333984" xlink:href="#DejaVuSans-108"/>
      <use x="643.117188" xlink:href="#DejaVuSans-46"/>
      <use x="674.904297" xlink:href="#DejaVuSans-32"/>
      <use x="706.691406" xlink:href="#DejaVuSans-50"/>
      <use x="770.314453" xlink:href="#DejaVuSans-48"/>
      <use x="833.9375" xlink:href="#DejaVuSans-49"/>
      <use x="897.560547" xlink:href="#DejaVuSans-56"/>
     </g>
    </g>
   </g>
   <g id="patch_3">
    <path d="M 43.636875 220.94 
L 43.636875 3.5 
" style="fill:none;stroke:#000000;stroke-linecap:square;stroke-linejoin:miter;stroke-width:0.8;"/>
   </g>
   <g id="patch_4">
    <path d="M 378.436875 220.94 
L 378.436875 3.5 
" style="fill:none;stroke:#000000;stroke-linecap:square;stroke-linejoin:miter;stroke-width:0.8;"/>
   </g>
   <g id="patch_5">
    <path d="M 43.636875 220.94 
L 378.436875 220.94 
" style="fill:none;stroke:#000000;stroke-linecap:square;stroke-linejoin:miter;stroke-width:0.8;"/>
   </g>
   <g id="patch_6">
    <path d="M 43.636875 3.5 
L 378.436875 3.5 
" style="fill:none;stroke:#000000;stroke-linecap:square;stroke-linejoin:miter;stroke-width:0.8;"/>
   </g>
  </g>
 </g>
 <defs>
  <clipPath id="pdf6f69a429">
   <rect height="217.44" width="334.8" x="43.636875" y="3.5"/>
  </clipPath>
 </defs>
</svg>
