<?xml version="1.0" encoding="utf-8" standalone="no"?>
<!DOCTYPE svg PUBLIC "-//W3C//DTD SVG 1.1//EN"
  "http://www.w3.org/Graphics/SVG/1.1/DTD/svg11.dtd">
<!-- Created with matplotlib (https://matplotlib.org/) -->
<svg height="255.1675pt" version="1.1" viewBox="0 0 381.936875 255.1675" width="381.936875pt" xmlns="http://www.w3.org/2000/svg" xmlns:xlink="http://www.w3.org/1999/xlink">
 <defs>
  <style type="text/css">
*{stroke-linecap:butt;stroke-linejoin:round;}
  </style>
 </defs>
 <g id="figure_1">
  <g id="patch_1">
   <path d="M 0 255.1675
L 381.936875 255.1675
L 381.936875 0
L 0 0
z
" style="fill:none;"/>
  </g>
  <g id="axes_1">
   <g id="patch_2">
    <path d="M 43.636875 220.94
L 378.436875 220.94
L 378.436875 3.5
L 43.636875 3.5
z
" style="fill:none;"/>
   </g>
   <g id="PathCollection_1">
    <defs>
     <path d="M 0 3
C 0.795609 3 1.55874 2.683901 2.12132 2.12132
C 2.683901 1.55874 3 0.795609 3 0
C 3 -0.795609 2.683901 -1.55874 2.12132 -2.12132
C 1.55874 -2.683901 0.795609 -3 0 -3
C -0.795609 -3 -1.55874 -2.683901 -2.12132 -2.12132
C -2.683901 -1.55874 -3 -0.795609 -3 0
C -3 0.795609 -2.683901 1.55874 -2.12132 2.12132
C -1.55874 2.683901 -0.795609 3 0 3
z
" id="m1cd549575f" style="stroke:#15527d;stroke-opacity:0.8;"/>
    </defs>
    <g clip-path="url(#pd734ba8c1f)">
     <use style="fill:#15527d;fill-opacity:0.8;stroke:#15527d;stroke-opacity:0.8;" x="342.904152" xlink:href="#m1cd549575f" y="174.731879"/>
     <use style="fill:#15527d;fill-opacity:0.8;stroke:#15527d;stroke-opacity:0.8;" x="92.694447" xlink:href="#m1cd549575f" y="114.236512"/>
     <use style="fill:#15527d;fill-opacity:0.8;stroke:#15527d;stroke-opacity:0.8;" x="126.506569" xlink:href="#m1cd549575f" y="49.708121"/>
     <use style="fill:#15527d;fill-opacity:0.8;stroke:#15527d;stroke-opacity:0.8;" x="58.882325" xlink:href="#m1cd549575f" y="37.609048"/>
     <use style="fill:#15527d;fill-opacity:0.8;stroke:#15527d;stroke-opacity:0.8;" x="295.567181" xlink:href="#m1cd549575f" y="98.104415"/>
     <use style="fill:#15527d;fill-opacity:0.8;stroke:#15527d;stroke-opacity:0.8;" x="207.655663" xlink:href="#m1cd549575f" y="204.979562"/>
     <use style="fill:#15527d;fill-opacity:0.8;stroke:#15527d;stroke-opacity:0.8;" x="160.318692" xlink:href="#m1cd549575f" y="94.07139"/>
     <use style="fill:#15527d;fill-opacity:0.8;stroke:#15527d;stroke-opacity:0.8;" x="227.942936" xlink:href="#m1cd549575f" y="164.649318"/>
     <use style="fill:#15527d;fill-opacity:0.8;stroke:#15527d;stroke-opacity:0.8;" x="275.279907" xlink:href="#m1cd549575f" y="53.741146"/>
     <use style="fill:#15527d;fill-opacity:0.8;stroke:#15527d;stroke-opacity:0.8;" x="363.191425" xlink:href="#m1cd549575f" y="184.81444"/>
     <use style="fill:#15527d;fill-opacity:0.8;stroke:#15527d;stroke-opacity:0.8;" x="254.992634" xlink:href="#m1cd549575f" y="122.302561"/>
     <use style="fill:#15527d;fill-opacity:0.8;stroke:#15527d;stroke-opacity:0.8;" x="146.793843" xlink:href="#m1cd549575f" y="158.599781"/>
     <use style="fill:#15527d;fill-opacity:0.8;stroke:#15527d;stroke-opacity:0.8;" x="356.429001" xlink:href="#m1cd549575f" y="204.979562"/>
     <use style="fill:#15527d;fill-opacity:0.8;stroke:#15527d;stroke-opacity:0.8;" x="58.882325" xlink:href="#m1cd549575f" y="45.675097"/>
     <use style="fill:#15527d;fill-opacity:0.8;stroke:#15527d;stroke-opacity:0.8;" x="288.804756" xlink:href="#m1cd549575f" y="86.005341"/>
     <use style="fill:#15527d;fill-opacity:0.8;stroke:#15527d;stroke-opacity:0.8;" x="268.517483" xlink:href="#m1cd549575f" y="61.807195"/>
     <use style="fill:#15527d;fill-opacity:0.8;stroke:#15527d;stroke-opacity:0.8;" x="214.418087" xlink:href="#m1cd549575f" y="57.77417"/>
     <use style="fill:#15527d;fill-opacity:0.8;stroke:#15527d;stroke-opacity:0.8;" x="315.854454" xlink:href="#m1cd549575f" y="106.170463"/>
     <use style="fill:#15527d;fill-opacity:0.8;stroke:#15527d;stroke-opacity:0.8;" x="187.368389" xlink:href="#m1cd549575f" y="128.352098"/>
     <use style="fill:#15527d;fill-opacity:0.8;stroke:#15527d;stroke-opacity:0.8;" x="302.329605" xlink:href="#m1cd549575f" y="164.649318"/>
     <use style="fill:#15527d;fill-opacity:0.8;stroke:#15527d;stroke-opacity:0.8;" x="133.268994" xlink:href="#m1cd549575f" y="17.443926"/>
     <use style="fill:#15527d;fill-opacity:0.8;stroke:#15527d;stroke-opacity:0.8;" x="58.882325" xlink:href="#m1cd549575f" y="192.880489"/>
     <use style="fill:#15527d;fill-opacity:0.8;stroke:#15527d;stroke-opacity:0.8;" x="58.882325" xlink:href="#m1cd549575f" y="154.566756"/>
     <use style="fill:#15527d;fill-opacity:0.8;stroke:#15527d;stroke-opacity:0.8;" x="322.616879" xlink:href="#m1cd549575f" y="81.972317"/>
     <use style="fill:#15527d;fill-opacity:0.8;stroke:#15527d;stroke-opacity:0.8;" x="112.98172" xlink:href="#m1cd549575f" y="73.906268"/>
     <use style="fill:#15527d;fill-opacity:0.8;stroke:#15527d;stroke-opacity:0.8;" x="106.219296" xlink:href="#m1cd549575f" y="90.038366"/>
     <use style="fill:#15527d;fill-opacity:0.8;stroke:#15527d;stroke-opacity:0.8;" x="58.882325" xlink:href="#m1cd549575f" y="118.269537"/>
     <use style="fill:#15527d;fill-opacity:0.8;stroke:#15527d;stroke-opacity:0.8;" x="140.031418" xlink:href="#m1cd549575f" y="134.401634"/>
     <use style="fill:#15527d;fill-opacity:0.8;stroke:#15527d;stroke-opacity:0.8;" x="58.882325" xlink:href="#m1cd549575f" y="174.731879"/>
     <use style="fill:#15527d;fill-opacity:0.8;stroke:#15527d;stroke-opacity:0.8;" x="58.882325" xlink:href="#m1cd549575f" y="13.410902"/>
     <use style="fill:#15527d;fill-opacity:0.8;stroke:#15527d;stroke-opacity:0.8;" x="167.081116" xlink:href="#m1cd549575f" y="77.939292"/>
     <use style="fill:#15527d;fill-opacity:0.8;stroke:#15527d;stroke-opacity:0.8;" x="349.666576" xlink:href="#m1cd549575f" y="138.434659"/>
     <use style="fill:#15527d;fill-opacity:0.8;stroke:#15527d;stroke-opacity:0.8;" x="248.23021" xlink:href="#m1cd549575f" y="174.731879"/>
     <use style="fill:#15527d;fill-opacity:0.8;stroke:#15527d;stroke-opacity:0.8;" x="241.467785" xlink:href="#m1cd549575f" y="33.576024"/>
     <use style="fill:#15527d;fill-opacity:0.8;stroke:#15527d;stroke-opacity:0.8;" x="282.042332" xlink:href="#m1cd549575f" y="198.930025"/>
     <use style="fill:#15527d;fill-opacity:0.8;stroke:#15527d;stroke-opacity:0.8;" x="200.893238" xlink:href="#m1cd549575f" y="148.51722"/>
     <use style="fill:#15527d;fill-opacity:0.8;stroke:#15527d;stroke-opacity:0.8;" x="58.882325" xlink:href="#m1cd549575f" y="69.873244"/>
     <use style="fill:#15527d;fill-opacity:0.8;stroke:#15527d;stroke-opacity:0.8;" x="119.744145" xlink:href="#m1cd549575f" y="25.509975"/>
     <use style="fill:#15527d;fill-opacity:0.8;stroke:#15527d;stroke-opacity:0.8;" x="221.180512" xlink:href="#m1cd549575f" y="41.642073"/>
     <use style="fill:#15527d;fill-opacity:0.8;stroke:#15527d;stroke-opacity:0.8;" x="153.556267" xlink:href="#m1cd549575f" y="102.137439"/>
     <use style="fill:#15527d;fill-opacity:0.8;stroke:#15527d;stroke-opacity:0.8;" x="261.755058" xlink:href="#m1cd549575f" y="29.542999"/>
     <use style="fill:#15527d;fill-opacity:0.8;stroke:#15527d;stroke-opacity:0.8;" x="99.456871" xlink:href="#m1cd549575f" y="65.840219"/>
     <use style="fill:#15527d;fill-opacity:0.8;stroke:#15527d;stroke-opacity:0.8;" x="58.882325" xlink:href="#m1cd549575f" y="21.47695"/>
     <use style="fill:#15527d;fill-opacity:0.8;stroke:#15527d;stroke-opacity:0.8;" x="180.605965" xlink:href="#m1cd549575f" y="184.81444"/>
     <use style="fill:#15527d;fill-opacity:0.8;stroke:#15527d;stroke-opacity:0.8;" x="234.705361" xlink:href="#m1cd549575f" y="110.203488"/>
     <use style="fill:#15527d;fill-opacity:0.8;stroke:#15527d;stroke-opacity:0.8;" x="173.84354" xlink:href="#m1cd549575f" y="148.51722"/>
     <use style="fill:#15527d;fill-opacity:0.8;stroke:#15527d;stroke-opacity:0.8;" x="336.141728" xlink:href="#m1cd549575f" y="128.352098"/>
     <use style="fill:#15527d;fill-opacity:0.8;stroke:#15527d;stroke-opacity:0.8;" x="329.379303" xlink:href="#m1cd549575f" y="211.029098"/>
     <use style="fill:#15527d;fill-opacity:0.8;stroke:#15527d;stroke-opacity:0.8;" x="194.130814" xlink:href="#m1cd549575f" y="192.880489"/>
     <use style="fill:#15527d;fill-opacity:0.8;stroke:#15527d;stroke-opacity:0.8;" x="309.09203" xlink:href="#m1cd549575f" y="142.467683"/>
    </g>
   </g>
   <g id="PolyCollection_1">
    <path clip-path="url(#pd734ba8c1f)" d="M 58.882325 56.560094
L 58.882325 112.212268
L 61.956154 112.412342
L 65.029983 112.744224
L 68.103813 112.938382
L 71.177642 113.122907
L 74.251471 113.306419
L 77.3253 113.412685
L 80.39913 113.612754
L 83.472959 113.806502
L 86.546788 114.012891
L 89.620618 114.21296
L 92.694447 114.333075
L 95.768276 114.268671
L 98.842106 114.688885
L 101.915935 114.988551
L 104.989764 115.004363
L 108.063593 115.279632
L 111.137423 115.554382
L 114.211252 115.886096
L 117.285081 116.224962
L 120.358911 116.441058
L 123.43274 116.703151
L 126.506569 116.97884
L 129.580399 117.36223
L 132.654228 117.918866
L 135.728057 118.241364
L 138.801886 118.582589
L 141.875716 118.923814
L 144.949545 119.372148
L 148.023374 119.832736
L 151.097204 120.292824
L 154.171033 120.764765
L 157.244862 121.241497
L 160.318692 121.645773
L 163.392521 122.042956
L 166.46635 122.619655
L 169.540179 123.109805
L 172.614009 123.626294
L 175.687838 124.103022
L 178.761667 124.546279
L 181.835497 125.059755
L 184.909326 125.542659
L 187.983155 126.079763
L 191.056985 126.488035
L 194.130814 126.875242
L 197.204643 127.40981
L 200.278472 128.063827
L 203.352302 128.718711
L 206.426131 129.366166
L 209.49996 129.632189
L 212.57379 130.451731
L 215.647619 130.961133
L 218.721448 131.776928
L 221.795278 132.615148
L 224.869107 133.359694
L 227.942936 133.932808
L 231.016765 134.447102
L 234.090595 135.242054
L 237.164424 135.897119
L 240.238253 136.552237
L 243.312083 137.439787
L 246.385912 138.197921
L 249.459741 139.003797
L 252.533571 139.743117
L 255.6074 140.417285
L 258.681229 141.080129
L 261.755058 141.956585
L 264.828888 142.833128
L 267.902717 143.566346
L 270.976546 144.344295
L 274.050376 145.130998
L 277.124205 146.043748
L 280.198034 147.032215
L 283.271864 148.032493
L 286.345693 149.025136
L 289.419522 150.013191
L 292.493351 150.847484
L 295.567181 151.813322
L 298.64101 152.675134
L 301.714839 153.724188
L 304.788669 154.779337
L 307.862498 155.808906
L 310.936327 156.924134
L 314.010157 157.966419
L 317.083986 158.963561
L 320.157815 159.960704
L 323.231644 160.9585
L 326.305474 161.984459
L 329.379303 163.01776
L 332.453132 164.048139
L 335.526962 165.071279
L 338.600791 165.945981
L 341.67462 166.827341
L 344.74845 167.905679
L 347.822279 168.902683
L 350.896108 169.897338
L 353.969937 170.885505
L 357.043767 171.814125
L 360.117596 172.875082
L 363.191425 173.854012
L 363.191425 116.853615
L 363.191425 116.853615
L 360.117596 116.572969
L 357.043767 116.453605
L 353.969937 116.334241
L 350.896108 116.098084
L 347.822279 115.971801
L 344.74845 115.890106
L 341.67462 115.859692
L 338.600791 115.782239
L 335.526962 115.6337
L 332.453132 115.478562
L 329.379303 115.277385
L 326.305474 115.101256
L 323.231644 114.923126
L 320.157815 114.614328
L 317.083986 114.360979
L 314.010157 114.129856
L 310.936327 114.004804
L 307.862498 113.879753
L 304.788669 113.754701
L 301.714839 113.524095
L 298.64101 112.980065
L 295.567181 112.734671
L 292.493351 112.412504
L 289.419522 112.128342
L 286.345693 111.846337
L 283.271864 111.59175
L 280.198034 111.214241
L 277.124205 110.63491
L 274.050376 110.261319
L 270.976546 110.073433
L 267.902717 109.612103
L 264.828888 108.992517
L 261.755058 108.468664
L 258.681229 108.002153
L 255.6074 107.904974
L 252.533571 107.567833
L 249.459741 107.216196
L 246.385912 106.509475
L 243.312083 105.722819
L 240.238253 104.949776
L 237.164424 104.16229
L 234.090595 104.026275
L 231.016765 103.315398
L 227.942936 102.484972
L 224.869107 102.160563
L 221.795278 101.598806
L 218.721448 100.878009
L 215.647619 100.152135
L 212.57379 99.43101
L 209.49996 98.815552
L 206.426131 98.307734
L 203.352302 97.659606
L 200.278472 97.089008
L 197.204643 96.411392
L 194.130814 95.685032
L 191.056985 94.968218
L 187.983155 94.084657
L 184.909326 93.310914
L 181.835497 92.539176
L 178.761667 91.924429
L 175.687838 91.341077
L 172.614009 90.949564
L 169.540179 90.420158
L 166.46635 89.575322
L 163.392521 88.726269
L 160.318692 87.946482
L 157.244862 87.392298
L 154.171033 86.550545
L 151.097204 85.708792
L 148.023374 84.867039
L 144.949545 84.2063
L 141.875716 83.183758
L 138.801886 82.28111
L 135.728057 81.432144
L 132.654228 80.634839
L 129.580399 79.816679
L 126.506569 78.888814
L 123.43274 78.017265
L 120.358911 77.048715
L 117.285081 76.060044
L 114.211252 74.786525
L 111.137423 73.745048
L 108.063593 72.731405
L 104.989764 71.725294
L 101.915935 70.748472
L 98.842106 69.92922
L 95.768276 68.870249
L 92.694447 67.794315
L 89.620618 66.718076
L 86.546788 65.662728
L 83.472959 64.650032
L 80.39913 63.637337
L 77.3253 62.627839
L 74.251471 61.624643
L 71.177642 60.60741
L 68.103813 59.572304
L 65.029983 58.517052
L 61.956154 57.557709
L 58.882325 56.560094
z
" style="fill:#15527d;fill-opacity:0.15;"/>
   </g>
   <g id="matplotlib.axis_1">
    <g id="xtick_1">
     <g id="line2d_1">
      <defs>
       <path d="M 0 0
L 0 3.5
" id="m9c3b9d25f3" style="stroke:#000000;stroke-width:0.8;"/>
      </defs>
      <g>
       <use style="stroke:#000000;stroke-width:0.8;" x="58.882325" xlink:href="#m9c3b9d25f3" y="220.94"/>
      </g>
     </g>
     <g id="text_1">
      <!-- 0 -->
      <defs>
       <path d="M 31.78125 66.40625
Q 24.171875 66.40625 20.328125 58.90625
Q 16.5 51.421875 16.5 36.375
Q 16.5 21.390625 20.328125 13.890625
Q 24.171875 6.390625 31.78125 6.390625
Q 39.453125 6.390625 43.28125 13.890625
Q 47.125 21.390625 47.125 36.375
Q 47.125 51.421875 43.28125 58.90625
Q 39.453125 66.40625 31.78125 66.40625
z
M 31.78125 74.21875
Q 44.046875 74.21875 50.515625 64.515625
Q 56.984375 54.828125 56.984375 36.375
Q 56.984375 17.96875 50.515625 8.265625
Q 44.046875 -1.421875 31.78125 -1.421875
Q 19.53125 -1.421875 13.0625 8.265625
Q 6.59375 17.96875 6.59375 36.375
Q 6.59375 54.828125 13.0625 64.515625
Q 19.53125 74.21875 31.78125 74.21875
z
" id="DejaVuSans-48"/>
      </defs>
      <g transform="translate(55.701075 235.538437)scale(0.1 -0.1)">
       <use xlink:href="#DejaVuSans-48"/>
      </g>
     </g>
    </g>
    <g id="xtick_2">
     <g id="line2d_2">
      <g>
       <use style="stroke:#000000;stroke-width:0.8;" x="119.744145" xlink:href="#m9c3b9d25f3" y="220.94"/>
      </g>
     </g>
     <g id="text_2">
      <!-- 20 -->
      <defs>
       <path d="M 19.1875 8.296875
L 53.609375 8.296875
L 53.609375 0
L 7.328125 0
L 7.328125 8.296875
Q 12.9375 14.109375 22.625 23.890625
Q 32.328125 33.6875 34.8125 36.53125
Q 39.546875 41.84375 41.421875 45.53125
Q 43.3125 49.21875 43.3125 52.78125
Q 43.3125 58.59375 39.234375 62.25
Q 35.15625 65.921875 28.609375 65.921875
Q 23.96875 65.921875 18.8125 64.3125
Q 13.671875 62.703125 7.8125 59.421875
L 7.8125 69.390625
Q 13.765625 71.78125 18.9375 73
Q 24.125 74.21875 28.421875 74.21875
Q 39.75 74.21875 46.484375 68.546875
Q 53.21875 62.890625 53.21875 53.421875
Q 53.21875 48.921875 51.53125 44.890625
Q 49.859375 40.875 45.40625 35.40625
Q 44.1875 33.984375 37.640625 27.21875
Q 31.109375 20.453125 19.1875 8.296875
z
" id="DejaVuSans-50"/>
      </defs>
      <g transform="translate(113.381645 235.538437)scale(0.1 -0.1)">
       <use xlink:href="#DejaVuSans-50"/>
       <use x="63.623047" xlink:href="#DejaVuSans-48"/>
      </g>
     </g>
    </g>
    <g id="xtick_3">
     <g id="line2d_3">
      <g>
       <use style="stroke:#000000;stroke-width:0.8;" x="180.605965" xlink:href="#m9c3b9d25f3" y="220.94"/>
      </g>
     </g>
     <g id="text_3">
      <!-- 40 -->
      <defs>
       <path d="M 37.796875 64.3125
L 12.890625 25.390625
L 37.796875 25.390625
z
M 35.203125 72.90625
L 47.609375 72.90625
L 47.609375 25.390625
L 58.015625 25.390625
L 58.015625 17.1875
L 47.609375 17.1875
L 47.609375 0
L 37.796875 0
L 37.796875 17.1875
L 4.890625 17.1875
L 4.890625 26.703125
z
" id="DejaVuSans-52"/>
      </defs>
      <g transform="translate(174.243465 235.538437)scale(0.1 -0.1)">
       <use xlink:href="#DejaVuSans-52"/>
       <use x="63.623047" xlink:href="#DejaVuSans-48"/>
      </g>
     </g>
    </g>
    <g id="xtick_4">
     <g id="line2d_4">
      <g>
       <use style="stroke:#000000;stroke-width:0.8;" x="241.467785" xlink:href="#m9c3b9d25f3" y="220.94"/>
      </g>
     </g>
     <g id="text_4">
      <!-- 60 -->
      <defs>
       <path d="M 33.015625 40.375
Q 26.375 40.375 22.484375 35.828125
Q 18.609375 31.296875 18.609375 23.390625
Q 18.609375 15.53125 22.484375 10.953125
Q 26.375 6.390625 33.015625 6.390625
Q 39.65625 6.390625 43.53125 10.953125
Q 47.40625 15.53125 47.40625 23.390625
Q 47.40625 31.296875 43.53125 35.828125
Q 39.65625 40.375 33.015625 40.375
z
M 52.59375 71.296875
L 52.59375 62.3125
Q 48.875 64.0625 45.09375 64.984375
Q 41.3125 65.921875 37.59375 65.921875
Q 27.828125 65.921875 22.671875 59.328125
Q 17.53125 52.734375 16.796875 39.40625
Q 19.671875 43.65625 24.015625 45.921875
Q 28.375 48.1875 33.59375 48.1875
Q 44.578125 48.1875 50.953125 41.515625
Q 57.328125 34.859375 57.328125 23.390625
Q 57.328125 12.15625 50.6875 5.359375
Q 44.046875 -1.421875 33.015625 -1.421875
Q 20.359375 -1.421875 13.671875 8.265625
Q 6.984375 17.96875 6.984375 36.375
Q 6.984375 53.65625 15.1875 63.9375
Q 23.390625 74.21875 37.203125 74.21875
Q 40.921875 74.21875 44.703125 73.484375
Q 48.484375 72.75 52.59375 71.296875
z
" id="DejaVuSans-54"/>
      </defs>
      <g transform="translate(235.105285 235.538437)scale(0.1 -0.1)">
       <use xlink:href="#DejaVuSans-54"/>
       <use x="63.623047" xlink:href="#DejaVuSans-48"/>
      </g>
     </g>
    </g>
    <g id="xtick_5">
     <g id="line2d_5">
      <g>
       <use style="stroke:#000000;stroke-width:0.8;" x="302.329605" xlink:href="#m9c3b9d25f3" y="220.94"/>
      </g>
     </g>
     <g id="text_5">
      <!-- 80 -->
      <defs>
       <path d="M 31.78125 34.625
Q 24.75 34.625 20.71875 30.859375
Q 16.703125 27.09375 16.703125 20.515625
Q 16.703125 13.921875 20.71875 10.15625
Q 24.75 6.390625 31.78125 6.390625
Q 38.8125 6.390625 42.859375 10.171875
Q 46.921875 13.96875 46.921875 20.515625
Q 46.921875 27.09375 42.890625 30.859375
Q 38.875 34.625 31.78125 34.625
z
M 21.921875 38.8125
Q 15.578125 40.375 12.03125 44.71875
Q 8.5 49.078125 8.5 55.328125
Q 8.5 64.0625 14.71875 69.140625
Q 20.953125 74.21875 31.78125 74.21875
Q 42.671875 74.21875 48.875 69.140625
Q 55.078125 64.0625 55.078125 55.328125
Q 55.078125 49.078125 51.53125 44.71875
Q 48 40.375 41.703125 38.8125
Q 48.828125 37.15625 52.796875 32.3125
Q 56.78125 27.484375 56.78125 20.515625
Q 56.78125 9.90625 50.3125 4.234375
Q 43.84375 -1.421875 31.78125 -1.421875
Q 19.734375 -1.421875 13.25 4.234375
Q 6.78125 9.90625 6.78125 20.515625
Q 6.78125 27.484375 10.78125 32.3125
Q 14.796875 37.15625 21.921875 38.8125
z
M 18.3125 54.390625
Q 18.3125 48.734375 21.84375 45.5625
Q 25.390625 42.390625 31.78125 42.390625
Q 38.140625 42.390625 41.71875 45.5625
Q 45.3125 48.734375 45.3125 54.390625
Q 45.3125 60.0625 41.71875 63.234375
Q 38.140625 66.40625 31.78125 66.40625
Q 25.390625 66.40625 21.84375 63.234375
Q 18.3125 60.0625 18.3125 54.390625
z
" id="DejaVuSans-56"/>
      </defs>
      <g transform="translate(295.967105 235.538437)scale(0.1 -0.1)">
       <use xlink:href="#DejaVuSans-56"/>
       <use x="63.623047" xlink:href="#DejaVuSans-48"/>
      </g>
     </g>
    </g>
    <g id="xtick_6">
     <g id="line2d_6">
      <g>
       <use style="stroke:#000000;stroke-width:0.8;" x="363.191425" xlink:href="#m9c3b9d25f3" y="220.94"/>
      </g>
     </g>
     <g id="text_6">
      <!-- 100 -->
      <defs>
       <path d="M 12.40625 8.296875
L 28.515625 8.296875
L 28.515625 63.921875
L 10.984375 60.40625
L 10.984375 69.390625
L 28.421875 72.90625
L 38.28125 72.90625
L 38.28125 8.296875
L 54.390625 8.296875
L 54.390625 0
L 12.40625 0
z
" id="DejaVuSans-49"/>
      </defs>
      <g transform="translate(353.647675 235.538437)scale(0.1 -0.1)">
       <use xlink:href="#DejaVuSans-49"/>
       <use x="63.623047" xlink:href="#DejaVuSans-48"/>
       <use x="127.246094" xlink:href="#DejaVuSans-48"/>
      </g>
     </g>
    </g>
    <g id="text_7">
     <!-- SOPHIE (recount2) -->
     <defs>
      <path d="M 53.515625 70.515625
L 53.515625 60.890625
Q 47.90625 63.578125 42.921875 64.890625
Q 37.9375 66.21875 33.296875 66.21875
Q 25.25 66.21875 20.875 63.09375
Q 16.5 59.96875 16.5 54.203125
Q 16.5 49.359375 19.40625 46.890625
Q 22.3125 44.4375 30.421875 42.921875
L 36.375 41.703125
Q 47.40625 39.59375 52.65625 34.296875
Q 57.90625 29 57.90625 20.125
Q 57.90625 9.515625 50.796875 4.046875
Q 43.703125 -1.421875 29.984375 -1.421875
Q 24.8125 -1.421875 18.96875 -0.25
Q 13.140625 0.921875 6.890625 3.21875
L 6.890625 13.375
Q 12.890625 10.015625 18.65625 8.296875
Q 24.421875 6.59375 29.984375 6.59375
Q 38.421875 6.59375 43.015625 9.90625
Q 47.609375 13.234375 47.609375 19.390625
Q 47.609375 24.75 44.3125 27.78125
Q 41.015625 30.8125 33.5 32.328125
L 27.484375 33.5
Q 16.453125 35.6875 11.515625 40.375
Q 6.59375 45.0625 6.59375 53.421875
Q 6.59375 63.09375 13.40625 68.65625
Q 20.21875 74.21875 32.171875 74.21875
Q 37.3125 74.21875 42.625 73.28125
Q 47.953125 72.359375 53.515625 70.515625
z
" id="DejaVuSans-83"/>
      <path d="M 39.40625 66.21875
Q 28.65625 66.21875 22.328125 58.203125
Q 16.015625 50.203125 16.015625 36.375
Q 16.015625 22.609375 22.328125 14.59375
Q 28.65625 6.59375 39.40625 6.59375
Q 50.140625 6.59375 56.421875 14.59375
Q 62.703125 22.609375 62.703125 36.375
Q 62.703125 50.203125 56.421875 58.203125
Q 50.140625 66.21875 39.40625 66.21875
z
M 39.40625 74.21875
Q 54.734375 74.21875 63.90625 63.9375
Q 73.09375 53.65625 73.09375 36.375
Q 73.09375 19.140625 63.90625 8.859375
Q 54.734375 -1.421875 39.40625 -1.421875
Q 24.03125 -1.421875 14.8125 8.828125
Q 5.609375 19.09375 5.609375 36.375
Q 5.609375 53.65625 14.8125 63.9375
Q 24.03125 74.21875 39.40625 74.21875
z
" id="DejaVuSans-79"/>
      <path d="M 19.671875 64.796875
L 19.671875 37.40625
L 32.078125 37.40625
Q 38.96875 37.40625 42.71875 40.96875
Q 46.484375 44.53125 46.484375 51.125
Q 46.484375 57.671875 42.71875 61.234375
Q 38.96875 64.796875 32.078125 64.796875
z
M 9.8125 72.90625
L 32.078125 72.90625
Q 44.34375 72.90625 50.609375 67.359375
Q 56.890625 61.8125 56.890625 51.125
Q 56.890625 40.328125 50.609375 34.8125
Q 44.34375 29.296875 32.078125 29.296875
L 19.671875 29.296875
L 19.671875 0
L 9.8125 0
z
" id="DejaVuSans-80"/>
      <path d="M 9.8125 72.90625
L 19.671875 72.90625
L 19.671875 43.015625
L 55.515625 43.015625
L 55.515625 72.90625
L 65.375 72.90625
L 65.375 0
L 55.515625 0
L 55.515625 34.71875
L 19.671875 34.71875
L 19.671875 0
L 9.8125 0
z
" id="DejaVuSans-72"/>
      <path d="M 9.8125 72.90625
L 19.671875 72.90625
L 19.671875 0
L 9.8125 0
z
" id="DejaVuSans-73"/>
      <path d="M 9.8125 72.90625
L 55.90625 72.90625
L 55.90625 64.59375
L 19.671875 64.59375
L 19.671875 43.015625
L 54.390625 43.015625
L 54.390625 34.71875
L 19.671875 34.71875
L 19.671875 8.296875
L 56.78125 8.296875
L 56.78125 0
L 9.8125 0
z
" id="DejaVuSans-69"/>
      <path id="DejaVuSans-32"/>
      <path d="M 31 75.875
Q 24.46875 64.65625 21.28125 53.65625
Q 18.109375 42.671875 18.109375 31.390625
Q 18.109375 20.125 21.3125 9.0625
Q 24.515625 -2 31 -13.1875
L 23.1875 -13.1875
Q 15.875 -1.703125 12.234375 9.375
Q 8.59375 20.453125 8.59375 31.390625
Q 8.59375 42.28125 12.203125 53.3125
Q 15.828125 64.359375 23.1875 75.875
z
" id="DejaVuSans-40"/>
      <path d="M 41.109375 46.296875
Q 39.59375 47.171875 37.8125 47.578125
Q 36.03125 48 33.890625 48
Q 26.265625 48 22.1875 43.046875
Q 18.109375 38.09375 18.109375 28.8125
L 18.109375 0
L 9.078125 0
L 9.078125 54.6875
L 18.109375 54.6875
L 18.109375 46.1875
Q 20.953125 51.171875 25.484375 53.578125
Q 30.03125 56 36.53125 56
Q 37.453125 56 38.578125 55.875
Q 39.703125 55.765625 41.0625 55.515625
z
" id="DejaVuSans-114"/>
      <path d="M 56.203125 29.59375
L 56.203125 25.203125
L 14.890625 25.203125
Q 15.484375 15.921875 20.484375 11.0625
Q 25.484375 6.203125 34.421875 6.203125
Q 39.59375 6.203125 44.453125 7.46875
Q 49.3125 8.734375 54.109375 11.28125
L 54.109375 2.78125
Q 49.265625 0.734375 44.1875 -0.34375
Q 39.109375 -1.421875 33.890625 -1.421875
Q 20.796875 -1.421875 13.15625 6.1875
Q 5.515625 13.8125 5.515625 26.8125
Q 5.515625 40.234375 12.765625 48.109375
Q 20.015625 56 32.328125 56
Q 43.359375 56 49.78125 48.890625
Q 56.203125 41.796875 56.203125 29.59375
z
M 47.21875 32.234375
Q 47.125 39.59375 43.09375 43.984375
Q 39.0625 48.390625 32.421875 48.390625
Q 24.90625 48.390625 20.390625 44.140625
Q 15.875 39.890625 15.1875 32.171875
z
" id="DejaVuSans-101"/>
      <path d="M 48.78125 52.59375
L 48.78125 44.1875
Q 44.96875 46.296875 41.140625 47.34375
Q 37.3125 48.390625 33.40625 48.390625
Q 24.65625 48.390625 19.8125 42.84375
Q 14.984375 37.3125 14.984375 27.296875
Q 14.984375 17.28125 19.8125 11.734375
Q 24.65625 6.203125 33.40625 6.203125
Q 37.3125 6.203125 41.140625 7.25
Q 44.96875 8.296875 48.78125 10.40625
L 48.78125 2.09375
Q 45.015625 0.34375 40.984375 -0.53125
Q 36.96875 -1.421875 32.421875 -1.421875
Q 20.0625 -1.421875 12.78125 6.34375
Q 5.515625 14.109375 5.515625 27.296875
Q 5.515625 40.671875 12.859375 48.328125
Q 20.21875 56 33.015625 56
Q 37.15625 56 41.109375 55.140625
Q 45.0625 54.296875 48.78125 52.59375
z
" id="DejaVuSans-99"/>
      <path d="M 30.609375 48.390625
Q 23.390625 48.390625 19.1875 42.75
Q 14.984375 37.109375 14.984375 27.296875
Q 14.984375 17.484375 19.15625 11.84375
Q 23.34375 6.203125 30.609375 6.203125
Q 37.796875 6.203125 41.984375 11.859375
Q 46.1875 17.53125 46.1875 27.296875
Q 46.1875 37.015625 41.984375 42.703125
Q 37.796875 48.390625 30.609375 48.390625
z
M 30.609375 56
Q 42.328125 56 49.015625 48.375
Q 55.71875 40.765625 55.71875 27.296875
Q 55.71875 13.875 49.015625 6.21875
Q 42.328125 -1.421875 30.609375 -1.421875
Q 18.84375 -1.421875 12.171875 6.21875
Q 5.515625 13.875 5.515625 27.296875
Q 5.515625 40.765625 12.171875 48.375
Q 18.84375 56 30.609375 56
z
" id="DejaVuSans-111"/>
      <path d="M 8.5 21.578125
L 8.5 54.6875
L 17.484375 54.6875
L 17.484375 21.921875
Q 17.484375 14.15625 20.5 10.265625
Q 23.53125 6.390625 29.59375 6.390625
Q 36.859375 6.390625 41.078125 11.03125
Q 45.3125 15.671875 45.3125 23.6875
L 45.3125 54.6875
L 54.296875 54.6875
L 54.296875 0
L 45.3125 0
L 45.3125 8.40625
Q 42.046875 3.421875 37.71875 1
Q 33.40625 -1.421875 27.6875 -1.421875
Q 18.265625 -1.421875 13.375 4.4375
Q 8.5 10.296875 8.5 21.578125
z
M 31.109375 56
z
" id="DejaVuSans-117"/>
      <path d="M 54.890625 33.015625
L 54.890625 0
L 45.90625 0
L 45.90625 32.71875
Q 45.90625 40.484375 42.875 44.328125
Q 39.84375 48.1875 33.796875 48.1875
Q 26.515625 48.1875 22.3125 43.546875
Q 18.109375 38.921875 18.109375 30.90625
L 18.109375 0
L 9.078125 0
L 9.078125 54.6875
L 18.109375 54.6875
L 18.109375 46.1875
Q 21.34375 51.125 25.703125 53.5625
Q 30.078125 56 35.796875 56
Q 45.21875 56 50.046875 50.171875
Q 54.890625 44.34375 54.890625 33.015625
z
" id="DejaVuSans-110"/>
      <path d="M 18.3125 70.21875
L 18.3125 54.6875
L 36.8125 54.6875
L 36.8125 47.703125
L 18.3125 47.703125
L 18.3125 18.015625
Q 18.3125 11.328125 20.140625 9.421875
Q 21.96875 7.515625 27.59375 7.515625
L 36.8125 7.515625
L 36.8125 0
L 27.59375 0
Q 17.1875 0 13.234375 3.875
Q 9.28125 7.765625 9.28125 18.015625
L 9.28125 47.703125
L 2.6875 47.703125
L 2.6875 54.6875
L 9.28125 54.6875
L 9.28125 70.21875
z
" id="DejaVuSans-116"/>
      <path d="M 8.015625 75.875
L 15.828125 75.875
Q 23.140625 64.359375 26.78125 53.3125
Q 30.421875 42.28125 30.421875 31.390625
Q 30.421875 20.453125 26.78125 9.375
Q 23.140625 -1.703125 15.828125 -13.1875
L 8.015625 -13.1875
Q 14.5 -2 17.703125 9.0625
Q 20.90625 20.125 20.90625 31.390625
Q 20.90625 42.671875 17.703125 53.65625
Q 14.5 64.65625 8.015625 75.875
z
" id="DejaVuSans-41"/>
     </defs>
     <g transform="translate(146.0375 252.255937)scale(0.14 -0.14)">
      <use xlink:href="#DejaVuSans-83"/>
      <use x="63.476562" xlink:href="#DejaVuSans-79"/>
      <use x="142.1875" xlink:href="#DejaVuSans-80"/>
      <use x="202.490234" xlink:href="#DejaVuSans-72"/>
      <use x="277.685547" xlink:href="#DejaVuSans-73"/>
      <use x="307.177734" xlink:href="#DejaVuSans-69"/>
      <use x="370.361328" xlink:href="#DejaVuSans-32"/>
      <use x="402.148438" xlink:href="#DejaVuSans-40"/>
      <use x="441.162109" xlink:href="#DejaVuSans-114"/>
      <use x="482.244141" xlink:href="#DejaVuSans-101"/>
      <use x="543.767578" xlink:href="#DejaVuSans-99"/>
      <use x="598.748047" xlink:href="#DejaVuSans-111"/>
      <use x="659.929688" xlink:href="#DejaVuSans-117"/>
      <use x="723.308594" xlink:href="#DejaVuSans-110"/>
      <use x="786.6875" xlink:href="#DejaVuSans-116"/>
      <use x="825.896484" xlink:href="#DejaVuSans-50"/>
      <use x="889.519531" xlink:href="#DejaVuSans-41"/>
     </g>
    </g>
   </g>
   <g id="matplotlib.axis_2">
    <g id="ytick_1">
     <g id="line2d_7">
      <defs>
       <path d="M 0 0
L -3.5 0
" id="m4b368ba8b0" style="stroke:#000000;stroke-width:0.8;"/>
      </defs>
      <g>
       <use style="stroke:#000000;stroke-width:0.8;" x="43.636875" xlink:href="#m4b368ba8b0" y="211.029098"/>
      </g>
     </g>
     <g id="text_8">
      <!-- 0 -->
      <g transform="translate(30.274375 214.828317)scale(0.1 -0.1)">
       <use xlink:href="#DejaVuSans-48"/>
      </g>
     </g>
    </g>
    <g id="ytick_2">
     <g id="line2d_8">
      <g>
       <use style="stroke:#000000;stroke-width:0.8;" x="43.636875" xlink:href="#m4b368ba8b0" y="171.505459"/>
      </g>
     </g>
     <g id="text_9">
      <!-- 20 -->
      <g transform="translate(23.911875 175.304678)scale(0.1 -0.1)">
       <use xlink:href="#DejaVuSans-50"/>
       <use x="63.623047" xlink:href="#DejaVuSans-48"/>
      </g>
     </g>
    </g>
    <g id="ytick_3">
     <g id="line2d_9">
      <g>
       <use style="stroke:#000000;stroke-width:0.8;" x="43.636875" xlink:href="#m4b368ba8b0" y="131.98182"/>
      </g>
     </g>
     <g id="text_10">
      <!-- 40 -->
      <g transform="translate(23.911875 135.781038)scale(0.1 -0.1)">
       <use xlink:href="#DejaVuSans-52"/>
       <use x="63.623047" xlink:href="#DejaVuSans-48"/>
      </g>
     </g>
    </g>
    <g id="ytick_4">
     <g id="line2d_10">
      <g>
       <use style="stroke:#000000;stroke-width:0.8;" x="43.636875" xlink:href="#m4b368ba8b0" y="92.45818"/>
      </g>
     </g>
     <g id="text_11">
      <!-- 60 -->
      <g transform="translate(23.911875 96.257399)scale(0.1 -0.1)">
       <use xlink:href="#DejaVuSans-54"/>
       <use x="63.623047" xlink:href="#DejaVuSans-48"/>
      </g>
     </g>
    </g>
    <g id="ytick_5">
     <g id="line2d_11">
      <g>
       <use style="stroke:#000000;stroke-width:0.8;" x="43.636875" xlink:href="#m4b368ba8b0" y="52.934541"/>
      </g>
     </g>
     <g id="text_12">
      <!-- 80 -->
      <g transform="translate(23.911875 56.73376)scale(0.1 -0.1)">
       <use xlink:href="#DejaVuSans-56"/>
       <use x="63.623047" xlink:href="#DejaVuSans-48"/>
      </g>
     </g>
    </g>
    <g id="ytick_6">
     <g id="line2d_12">
      <g>
       <use style="stroke:#000000;stroke-width:0.8;" x="43.636875" xlink:href="#m4b368ba8b0" y="13.410902"/>
      </g>
     </g>
     <g id="text_13">
      <!-- 100 -->
      <g transform="translate(17.549375 17.21012)scale(0.1 -0.1)">
       <use xlink:href="#DejaVuSans-49"/>
       <use x="63.623047" xlink:href="#DejaVuSans-48"/>
       <use x="127.246094" xlink:href="#DejaVuSans-48"/>
      </g>
     </g>
    </g>
    <g id="text_14">
     <!-- Powers et al. 2018 -->
     <defs>
      <path d="M 4.203125 54.6875
L 13.1875 54.6875
L 24.421875 12.015625
L 35.59375 54.6875
L 46.1875 54.6875
L 57.421875 12.015625
L 68.609375 54.6875
L 77.59375 54.6875
L 63.28125 0
L 52.6875 0
L 40.921875 44.828125
L 29.109375 0
L 18.5 0
z
" id="DejaVuSans-119"/>
      <path d="M 44.28125 53.078125
L 44.28125 44.578125
Q 40.484375 46.53125 36.375 47.5
Q 32.28125 48.484375 27.875 48.484375
Q 21.1875 48.484375 17.84375 46.4375
Q 14.5 44.390625 14.5 40.28125
Q 14.5 37.15625 16.890625 35.375
Q 19.28125 33.59375 26.515625 31.984375
L 29.59375 31.296875
Q 39.15625 29.25 43.1875 25.515625
Q 47.21875 21.78125 47.21875 15.09375
Q 47.21875 7.46875 41.1875 3.015625
Q 35.15625 -1.421875 24.609375 -1.421875
Q 20.21875 -1.421875 15.453125 -0.5625
Q 10.6875 0.296875 5.421875 2
L 5.421875 11.28125
Q 10.40625 8.6875 15.234375 7.390625
Q 20.0625 6.109375 24.8125 6.109375
Q 31.15625 6.109375 34.5625 8.28125
Q 37.984375 10.453125 37.984375 14.40625
Q 37.984375 18.0625 35.515625 20.015625
Q 33.0625 21.96875 24.703125 23.78125
L 21.578125 24.515625
Q 13.234375 26.265625 9.515625 29.90625
Q 5.8125 33.546875 5.8125 39.890625
Q 5.8125 47.609375 11.28125 51.796875
Q 16.75 56 26.8125 56
Q 31.78125 56 36.171875 55.265625
Q 40.578125 54.546875 44.28125 53.078125
z
" id="DejaVuSans-115"/>
      <path d="M 34.28125 27.484375
Q 23.390625 27.484375 19.1875 25
Q 14.984375 22.515625 14.984375 16.5
Q 14.984375 11.71875 18.140625 8.90625
Q 21.296875 6.109375 26.703125 6.109375
Q 34.1875 6.109375 38.703125 11.40625
Q 43.21875 16.703125 43.21875 25.484375
L 43.21875 27.484375
z
M 52.203125 31.203125
L 52.203125 0
L 43.21875 0
L 43.21875 8.296875
Q 40.140625 3.328125 35.546875 0.953125
Q 30.953125 -1.421875 24.3125 -1.421875
Q 15.921875 -1.421875 10.953125 3.296875
Q 6 8.015625 6 15.921875
Q 6 25.140625 12.171875 29.828125
Q 18.359375 34.515625 30.609375 34.515625
L 43.21875 34.515625
L 43.21875 35.40625
Q 43.21875 41.609375 39.140625 45
Q 35.0625 48.390625 27.6875 48.390625
Q 23 48.390625 18.546875 47.265625
Q 14.109375 46.140625 10.015625 43.890625
L 10.015625 52.203125
Q 14.9375 54.109375 19.578125 55.046875
Q 24.21875 56 28.609375 56
Q 40.484375 56 46.34375 49.84375
Q 52.203125 43.703125 52.203125 31.203125
z
" id="DejaVuSans-97"/>
      <path d="M 9.421875 75.984375
L 18.40625 75.984375
L 18.40625 0
L 9.421875 0
z
" id="DejaVuSans-108"/>
      <path d="M 10.6875 12.40625
L 21 12.40625
L 21 0
L 10.6875 0
z
" id="DejaVuSans-46"/>
     </defs>
     <g transform="translate(10.637812 177.27625)rotate(-90)scale(0.14 -0.14)">
      <use xlink:href="#DejaVuSans-80"/>
      <use x="60.255859" xlink:href="#DejaVuSans-111"/>
      <use x="121.4375" xlink:href="#DejaVuSans-119"/>
      <use x="203.224609" xlink:href="#DejaVuSans-101"/>
      <use x="264.748047" xlink:href="#DejaVuSans-114"/>
      <use x="305.861328" xlink:href="#DejaVuSans-115"/>
      <use x="357.960938" xlink:href="#DejaVuSans-32"/>
      <use x="389.748047" xlink:href="#DejaVuSans-101"/>
      <use x="451.271484" xlink:href="#DejaVuSans-116"/>
      <use x="490.480469" xlink:href="#DejaVuSans-32"/>
      <use x="522.267578" xlink:href="#DejaVuSans-97"/>
      <use x="583.546875" xlink:href="#DejaVuSans-108"/>
      <use x="611.330078" xlink:href="#DejaVuSans-46"/>
      <use x="643.117188" xlink:href="#DejaVuSans-32"/>
      <use x="674.904297" xlink:href="#DejaVuSans-50"/>
      <use x="738.527344" xlink:href="#DejaVuSans-48"/>
      <use x="802.150391" xlink:href="#DejaVuSans-49"/>
      <use x="865.773438" xlink:href="#DejaVuSans-56"/>
     </g>
    </g>
   </g>
   <g id="line2d_13">
    <path clip-path="url(#pd734ba8c1f)" d="M 58.882325 83.545596
L 61.956154 84.181392
L 65.029983 84.817188
L 68.103813 85.452984
L 71.177642 86.08878
L 74.251471 86.724576
L 77.3253 87.360372
L 80.39913 87.996168
L 83.472959 88.631964
L 86.546788 89.267761
L 89.620618 89.903557
L 92.694447 90.539353
L 95.768276 91.175149
L 98.842106 91.810945
L 101.915935 92.446741
L 104.989764 93.082537
L 108.063593 93.718333
L 111.137423 94.354129
L 114.211252 94.989926
L 117.285081 95.625722
L 120.358911 96.261518
L 123.43274 96.897314
L 126.506569 97.53311
L 129.580399 98.168906
L 132.654228 98.804702
L 135.728057 99.440498
L 138.801886 100.076294
L 141.875716 100.71209
L 144.949545 101.347887
L 148.023374 101.983683
L 151.097204 102.619479
L 154.171033 103.255275
L 157.244862 103.891071
L 160.318692 104.526867
L 163.392521 105.162663
L 166.46635 105.798459
L 169.540179 106.434255
L 172.614009 107.070052
L 175.687838 107.705848
L 178.761667 108.341644
L 181.835497 108.97744
L 184.909326 109.613236
L 187.983155 110.249032
L 191.056985 110.884828
L 194.130814 111.520624
L 197.204643 112.15642
L 200.278472 112.792216
L 203.352302 113.428013
L 206.426131 114.063809
L 209.49996 114.699605
L 212.57379 115.335401
L 215.647619 115.971197
L 218.721448 116.606993
L 221.795278 117.242789
L 224.869107 117.878585
L 227.942936 118.514381
L 231.016765 119.150178
L 234.090595 119.785974
L 237.164424 120.42177
L 240.238253 121.057566
L 243.312083 121.693362
L 246.385912 122.329158
L 249.459741 122.964954
L 252.533571 123.60075
L 255.6074 124.236546
L 258.681229 124.872342
L 261.755058 125.508139
L 264.828888 126.143935
L 267.902717 126.779731
L 270.976546 127.415527
L 274.050376 128.051323
L 277.124205 128.687119
L 280.198034 129.322915
L 283.271864 129.958711
L 286.345693 130.594507
L 289.419522 131.230304
L 292.493351 131.8661
L 295.567181 132.501896
L 298.64101 133.137692
L 301.714839 133.773488
L 304.788669 134.409284
L 307.862498 135.04508
L 310.936327 135.680876
L 314.010157 136.316672
L 317.083986 136.952469
L 320.157815 137.588265
L 323.231644 138.224061
L 326.305474 138.859857
L 329.379303 139.495653
L 332.453132 140.131449
L 335.526962 140.767245
L 338.600791 141.403041
L 341.67462 142.038837
L 344.74845 142.674633
L 347.822279 143.31043
L 350.896108 143.946226
L 353.969937 144.582022
L 357.043767 145.217818
L 360.117596 145.853614
L 363.191425 146.48941
" style="fill:none;stroke:#15527d;stroke-linecap:square;stroke-width:2.25;"/>
   </g>
   <g id="patch_3">
    <path d="M 43.636875 220.94
L 43.636875 3.5
" style="fill:none;stroke:#000000;stroke-linecap:square;stroke-linejoin:miter;stroke-width:0.8;"/>
   </g>
   <g id="patch_4">
    <path d="M 378.436875 220.94
L 378.436875 3.5
" style="fill:none;stroke:#000000;stroke-linecap:square;stroke-linejoin:miter;stroke-width:0.8;"/>
   </g>
   <g id="patch_5">
    <path d="M 43.636875 220.94
L 378.436875 220.94
" style="fill:none;stroke:#000000;stroke-linecap:square;stroke-linejoin:miter;stroke-width:0.8;"/>
   </g>
   <g id="patch_6">
    <path d="M 43.636875 3.5
L 378.436875 3.5
" style="fill:none;stroke:#000000;stroke-linecap:square;stroke-linejoin:miter;stroke-width:0.8;"/>
   </g>
   <g id="text_15">
    <!-- R^2 = -0.346 -->
    <defs>
     <path d="M 44.390625 34.1875
Q 47.5625 33.109375 50.5625 29.59375
Q 53.5625 26.078125 56.59375 19.921875
L 66.609375 0
L 56 0
L 46.6875 18.703125
Q 43.0625 26.03125 39.671875 28.421875
Q 36.28125 30.8125 30.421875 30.8125
L 19.671875 30.8125
L 19.671875 0
L 9.8125 0
L 9.8125 72.90625
L 32.078125 72.90625
Q 44.578125 72.90625 50.734375 67.671875
Q 56.890625 62.453125 56.890625 51.90625
Q 56.890625 45.015625 53.6875 40.46875
Q 50.484375 35.9375 44.390625 34.1875
z
M 19.671875 64.796875
L 19.671875 38.921875
L 32.078125 38.921875
Q 39.203125 38.921875 42.84375 42.21875
Q 46.484375 45.515625 46.484375 51.90625
Q 46.484375 58.296875 42.84375 61.546875
Q 39.203125 64.796875 32.078125 64.796875
z
" id="DejaVuSans-82"/>
     <path d="M 46.6875 72.90625
L 73.1875 45.703125
L 63.375 45.703125
L 41.890625 64.984375
L 20.40625 45.703125
L 10.59375 45.703125
L 37.109375 72.90625
z
" id="DejaVuSans-94"/>
     <path d="M 10.59375 45.40625
L 73.1875 45.40625
L 73.1875 37.203125
L 10.59375 37.203125
z
M 10.59375 25.484375
L 73.1875 25.484375
L 73.1875 17.1875
L 10.59375 17.1875
z
" id="DejaVuSans-61"/>
     <path d="M 4.890625 31.390625
L 31.203125 31.390625
L 31.203125 23.390625
L 4.890625 23.390625
z
" id="DejaVuSans-45"/>
     <path d="M 40.578125 39.3125
Q 47.65625 37.796875 51.625 33
Q 55.609375 28.21875 55.609375 21.1875
Q 55.609375 10.40625 48.1875 4.484375
Q 40.765625 -1.421875 27.09375 -1.421875
Q 22.515625 -1.421875 17.65625 -0.515625
Q 12.796875 0.390625 7.625 2.203125
L 7.625 11.71875
Q 11.71875 9.328125 16.59375 8.109375
Q 21.484375 6.890625 26.8125 6.890625
Q 36.078125 6.890625 40.9375 10.546875
Q 45.796875 14.203125 45.796875 21.1875
Q 45.796875 27.640625 41.28125 31.265625
Q 36.765625 34.90625 28.71875 34.90625
L 20.21875 34.90625
L 20.21875 43.015625
L 29.109375 43.015625
Q 36.375 43.015625 40.234375 45.921875
Q 44.09375 48.828125 44.09375 54.296875
Q 44.09375 59.90625 40.109375 62.90625
Q 36.140625 65.921875 28.71875 65.921875
Q 24.65625 65.921875 20.015625 65.03125
Q 15.375 64.15625 9.8125 62.3125
L 9.8125 71.09375
Q 15.4375 72.65625 20.34375 73.4375
Q 25.25 74.21875 29.59375 74.21875
Q 40.828125 74.21875 47.359375 69.109375
Q 53.90625 64.015625 53.90625 55.328125
Q 53.90625 49.265625 50.4375 45.09375
Q 46.96875 40.921875 40.578125 39.3125
z
" id="DejaVuSans-51"/>
    </defs>
    <g transform="translate(241.467785 17.363266)scale(0.1 -0.1)">
     <use xlink:href="#DejaVuSans-82"/>
     <use x="69.482422" xlink:href="#DejaVuSans-94"/>
     <use x="153.271484" xlink:href="#DejaVuSans-50"/>
     <use x="216.894531" xlink:href="#DejaVuSans-32"/>
     <use x="248.681641" xlink:href="#DejaVuSans-61"/>
     <use x="332.470703" xlink:href="#DejaVuSans-32"/>
     <use x="364.257812" xlink:href="#DejaVuSans-45"/>
     <use x="400.341797" xlink:href="#DejaVuSans-48"/>
     <use x="463.964844" xlink:href="#DejaVuSans-46"/>
     <use x="495.751953" xlink:href="#DejaVuSans-51"/>
     <use x="559.375" xlink:href="#DejaVuSans-52"/>
     <use x="622.998047" xlink:href="#DejaVuSans-54"/>
    </g>
   </g>
  </g>
 </g>
 <defs>
  <clipPath id="pd734ba8c1f">
   <rect height="217.44" width="334.8" x="43.636875" y="3.5"/>
  </clipPath>
 </defs>
</svg>
