<?xml version="1.0" encoding="utf-8" standalone="no"?>
<!DOCTYPE svg PUBLIC "-//W3C//DTD SVG 1.1//EN"
  "http://www.w3.org/Graphics/SVG/1.1/DTD/svg11.dtd">
<!-- Created with matplotlib (https://matplotlib.org/) -->
<svg height="255.1675pt" version="1.1" viewBox="0 0 381.936875 255.1675" width="381.936875pt" xmlns="http://www.w3.org/2000/svg" xmlns:xlink="http://www.w3.org/1999/xlink">
 <defs>
  <style type="text/css">
*{stroke-linecap:butt;stroke-linejoin:round;}
  </style>
 </defs>
 <g id="figure_1">
  <g id="patch_1">
   <path d="M 0 255.1675
L 381.936875 255.1675
L 381.936875 0
L 0 0
z
" style="fill:none;"/>
  </g>
  <g id="axes_1">
   <g id="patch_2">
    <path d="M 43.636875 220.94
L 378.436875 220.94
L 378.436875 3.5
L 43.636875 3.5
z
" style="fill:none;"/>
   </g>
   <g id="PathCollection_1">
    <defs>
     <path d="M 0 3
C 0.795609 3 1.55874 2.683901 2.12132 2.12132
C 2.683901 1.55874 3 0.795609 3 0
C 3 -0.795609 2.683901 -1.55874 2.12132 -2.12132
C 1.55874 -2.683901 0.795609 -3 0 -3
C -0.795609 -3 -1.55874 -2.683901 -2.12132 -2.12132
C -2.683901 -1.55874 -3 -0.795609 -3 0
C -3 0.795609 -2.683901 1.55874 -2.12132 2.12132
C -1.55874 2.683901 -0.795609 3 0 3
z
" id="ma6143e2be0" style="stroke:#15527d;stroke-opacity:0.8;"/>
    </defs>
    <g clip-path="url(#p92feacc9fe)">
     <use style="fill:#15527d;fill-opacity:0.8;stroke:#15527d;stroke-opacity:0.8;" x="58.882325" xlink:href="#ma6143e2be0" y="13.410902"/>
     <use style="fill:#15527d;fill-opacity:0.8;stroke:#15527d;stroke-opacity:0.8;" x="153.556267" xlink:href="#ma6143e2be0" y="158.599781"/>
     <use style="fill:#15527d;fill-opacity:0.8;stroke:#15527d;stroke-opacity:0.8;" x="309.09203" xlink:href="#ma6143e2be0" y="164.649318"/>
     <use style="fill:#15527d;fill-opacity:0.8;stroke:#15527d;stroke-opacity:0.8;" x="58.882325" xlink:href="#ma6143e2be0" y="118.269537"/>
     <use style="fill:#15527d;fill-opacity:0.8;stroke:#15527d;stroke-opacity:0.8;" x="248.23021" xlink:href="#ma6143e2be0" y="53.741146"/>
     <use style="fill:#15527d;fill-opacity:0.8;stroke:#15527d;stroke-opacity:0.8;" x="109.600508" xlink:href="#ma6143e2be0" y="90.038366"/>
     <use style="fill:#15527d;fill-opacity:0.8;stroke:#15527d;stroke-opacity:0.8;" x="282.042332" xlink:href="#ma6143e2be0" y="86.005341"/>
     <use style="fill:#15527d;fill-opacity:0.8;stroke:#15527d;stroke-opacity:0.8;" x="187.368389" xlink:href="#ma6143e2be0" y="148.51722"/>
     <use style="fill:#15527d;fill-opacity:0.8;stroke:#15527d;stroke-opacity:0.8;" x="194.130814" xlink:href="#ma6143e2be0" y="29.542999"/>
     <use style="fill:#15527d;fill-opacity:0.8;stroke:#15527d;stroke-opacity:0.8;" x="92.694447" xlink:href="#ma6143e2be0" y="37.609048"/>
     <use style="fill:#15527d;fill-opacity:0.8;stroke:#15527d;stroke-opacity:0.8;" x="133.268994" xlink:href="#ma6143e2be0" y="25.509975"/>
     <use style="fill:#15527d;fill-opacity:0.8;stroke:#15527d;stroke-opacity:0.8;" x="163.699904" xlink:href="#ma6143e2be0" y="94.07139"/>
     <use style="fill:#15527d;fill-opacity:0.8;stroke:#15527d;stroke-opacity:0.8;" x="173.84354" xlink:href="#ma6143e2be0" y="49.708121"/>
     <use style="fill:#15527d;fill-opacity:0.8;stroke:#15527d;stroke-opacity:0.8;" x="58.882325" xlink:href="#ma6143e2be0" y="174.731879"/>
     <use style="fill:#15527d;fill-opacity:0.8;stroke:#15527d;stroke-opacity:0.8;" x="200.893238" xlink:href="#ma6143e2be0" y="57.77417"/>
     <use style="fill:#15527d;fill-opacity:0.8;stroke:#15527d;stroke-opacity:0.8;" x="221.180512" xlink:href="#ma6143e2be0" y="192.880489"/>
     <use style="fill:#15527d;fill-opacity:0.8;stroke:#15527d;stroke-opacity:0.8;" x="180.605965" xlink:href="#ma6143e2be0" y="184.81444"/>
     <use style="fill:#15527d;fill-opacity:0.8;stroke:#15527d;stroke-opacity:0.8;" x="163.699904" xlink:href="#ma6143e2be0" y="77.939292"/>
     <use style="fill:#15527d;fill-opacity:0.8;stroke:#15527d;stroke-opacity:0.8;" x="234.705361" xlink:href="#ma6143e2be0" y="204.979562"/>
     <use style="fill:#15527d;fill-opacity:0.8;stroke:#15527d;stroke-opacity:0.8;" x="214.418087" xlink:href="#ma6143e2be0" y="148.51722"/>
     <use style="fill:#15527d;fill-opacity:0.8;stroke:#15527d;stroke-opacity:0.8;" x="254.992634" xlink:href="#ma6143e2be0" y="174.731879"/>
     <use style="fill:#15527d;fill-opacity:0.8;stroke:#15527d;stroke-opacity:0.8;" x="58.882325" xlink:href="#ma6143e2be0" y="114.236512"/>
     <use style="fill:#15527d;fill-opacity:0.8;stroke:#15527d;stroke-opacity:0.8;" x="146.793843" xlink:href="#ma6143e2be0" y="128.352098"/>
     <use style="fill:#15527d;fill-opacity:0.8;stroke:#15527d;stroke-opacity:0.8;" x="329.379303" xlink:href="#ma6143e2be0" y="211.029098"/>
     <use style="fill:#15527d;fill-opacity:0.8;stroke:#15527d;stroke-opacity:0.8;" x="315.854454" xlink:href="#ma6143e2be0" y="106.170463"/>
     <use style="fill:#15527d;fill-opacity:0.8;stroke:#15527d;stroke-opacity:0.8;" x="109.600508" xlink:href="#ma6143e2be0" y="73.906268"/>
     <use style="fill:#15527d;fill-opacity:0.8;stroke:#15527d;stroke-opacity:0.8;" x="58.882325" xlink:href="#ma6143e2be0" y="45.675097"/>
     <use style="fill:#15527d;fill-opacity:0.8;stroke:#15527d;stroke-opacity:0.8;" x="58.882325" xlink:href="#ma6143e2be0" y="154.566756"/>
     <use style="fill:#15527d;fill-opacity:0.8;stroke:#15527d;stroke-opacity:0.8;" x="126.506569" xlink:href="#ma6143e2be0" y="102.137439"/>
     <use style="fill:#15527d;fill-opacity:0.8;stroke:#15527d;stroke-opacity:0.8;" x="275.279907" xlink:href="#ma6143e2be0" y="41.642073"/>
     <use style="fill:#15527d;fill-opacity:0.8;stroke:#15527d;stroke-opacity:0.8;" x="140.031418" xlink:href="#ma6143e2be0" y="134.401634"/>
     <use style="fill:#15527d;fill-opacity:0.8;stroke:#15527d;stroke-opacity:0.8;" x="261.755058" xlink:href="#ma6143e2be0" y="110.203488"/>
     <use style="fill:#15527d;fill-opacity:0.8;stroke:#15527d;stroke-opacity:0.8;" x="336.141728" xlink:href="#ma6143e2be0" y="174.731879"/>
     <use style="fill:#15527d;fill-opacity:0.8;stroke:#15527d;stroke-opacity:0.8;" x="322.616879" xlink:href="#ma6143e2be0" y="81.972317"/>
     <use style="fill:#15527d;fill-opacity:0.8;stroke:#15527d;stroke-opacity:0.8;" x="58.882325" xlink:href="#ma6143e2be0" y="192.880489"/>
     <use style="fill:#15527d;fill-opacity:0.8;stroke:#15527d;stroke-opacity:0.8;" x="119.744145" xlink:href="#ma6143e2be0" y="17.443926"/>
     <use style="fill:#15527d;fill-opacity:0.8;stroke:#15527d;stroke-opacity:0.8;" x="241.467785" xlink:href="#ma6143e2be0" y="164.649318"/>
     <use style="fill:#15527d;fill-opacity:0.8;stroke:#15527d;stroke-opacity:0.8;" x="227.942936" xlink:href="#ma6143e2be0" y="33.576024"/>
     <use style="fill:#15527d;fill-opacity:0.8;stroke:#15527d;stroke-opacity:0.8;" x="58.882325" xlink:href="#ma6143e2be0" y="21.47695"/>
     <use style="fill:#15527d;fill-opacity:0.8;stroke:#15527d;stroke-opacity:0.8;" x="342.904152" xlink:href="#ma6143e2be0" y="128.352098"/>
     <use style="fill:#15527d;fill-opacity:0.8;stroke:#15527d;stroke-opacity:0.8;" x="207.655663" xlink:href="#ma6143e2be0" y="98.104415"/>
     <use style="fill:#15527d;fill-opacity:0.8;stroke:#15527d;stroke-opacity:0.8;" x="302.329605" xlink:href="#ma6143e2be0" y="142.467683"/>
     <use style="fill:#15527d;fill-opacity:0.8;stroke:#15527d;stroke-opacity:0.8;" x="356.429001" xlink:href="#ma6143e2be0" y="204.979562"/>
     <use style="fill:#15527d;fill-opacity:0.8;stroke:#15527d;stroke-opacity:0.8;" x="363.191425" xlink:href="#ma6143e2be0" y="184.81444"/>
     <use style="fill:#15527d;fill-opacity:0.8;stroke:#15527d;stroke-opacity:0.8;" x="288.804756" xlink:href="#ma6143e2be0" y="61.807195"/>
     <use style="fill:#15527d;fill-opacity:0.8;stroke:#15527d;stroke-opacity:0.8;" x="58.882325" xlink:href="#ma6143e2be0" y="69.873244"/>
     <use style="fill:#15527d;fill-opacity:0.8;stroke:#15527d;stroke-opacity:0.8;" x="349.666576" xlink:href="#ma6143e2be0" y="138.434659"/>
     <use style="fill:#15527d;fill-opacity:0.8;stroke:#15527d;stroke-opacity:0.8;" x="99.456871" xlink:href="#ma6143e2be0" y="65.840219"/>
     <use style="fill:#15527d;fill-opacity:0.8;stroke:#15527d;stroke-opacity:0.8;" x="295.567181" xlink:href="#ma6143e2be0" y="198.930025"/>
     <use style="fill:#15527d;fill-opacity:0.8;stroke:#15527d;stroke-opacity:0.8;" x="268.517483" xlink:href="#ma6143e2be0" y="122.302561"/>
    </g>
   </g>
   <g id="PolyCollection_1">
    <path clip-path="url(#p92feacc9fe)" d="M 58.882325 52.144903
L 58.882325 109.158516
L 61.956154 109.383253
L 65.029983 109.753713
L 68.103813 110.156151
L 71.177642 110.30184
L 74.251471 110.387828
L 77.3253 110.666204
L 80.39913 111.125168
L 83.472959 111.283724
L 86.546788 111.562857
L 89.620618 111.768133
L 92.694447 112.087888
L 95.768276 112.330825
L 98.842106 112.573763
L 101.915935 112.8167
L 104.989764 113.167023
L 108.063593 113.74829
L 111.137423 114.126722
L 114.211252 114.617171
L 117.285081 115.10529
L 120.358911 115.475165
L 123.43274 115.61614
L 126.506569 115.905259
L 129.580399 116.313218
L 132.654228 116.717352
L 135.728057 117.121485
L 138.801886 117.525619
L 141.875716 117.929752
L 144.949545 118.333885
L 148.023374 118.733902
L 151.097204 119.020999
L 154.171033 119.413542
L 157.244862 119.970096
L 160.318692 120.551053
L 163.392521 121.161285
L 166.46635 121.943732
L 169.540179 122.513365
L 172.614009 123.235135
L 175.687838 123.813855
L 178.761667 124.435569
L 181.835497 124.822497
L 184.909326 125.443408
L 187.983155 126.066583
L 191.056985 126.662255
L 194.130814 127.26467
L 197.204643 127.66599
L 200.278472 128.429558
L 203.352302 128.924031
L 206.426131 129.417224
L 209.49996 130.110435
L 212.57379 130.773992
L 215.647619 131.240912
L 218.721448 132.031357
L 221.795278 132.721104
L 224.869107 133.403089
L 227.942936 134.099959
L 231.016765 134.775272
L 234.090595 135.672753
L 237.164424 136.407674
L 240.238253 137.127396
L 243.312083 137.865012
L 246.385912 138.655997
L 249.459741 139.408026
L 252.533571 140.300195
L 255.6074 141.088124
L 258.681229 141.936508
L 261.755058 142.777007
L 264.828888 143.616791
L 267.902717 144.483639
L 270.976546 145.302011
L 274.050376 146.185242
L 277.124205 146.992633
L 280.198034 148.16117
L 283.271864 149.300774
L 286.345693 150.03094
L 289.419522 150.757251
L 292.493351 152.022935
L 295.567181 152.862381
L 298.64101 153.690283
L 301.714839 154.46873
L 304.788669 155.521713
L 307.862498 156.469085
L 310.936327 157.666998
L 314.010157 158.864542
L 317.083986 159.982254
L 320.157815 161.099967
L 323.231644 162.21768
L 326.305474 163.335392
L 329.379303 164.448395
L 332.453132 165.512383
L 335.526962 166.349382
L 338.600791 167.315193
L 341.67462 168.145868
L 344.74845 168.976543
L 347.822279 169.807218
L 350.896108 170.637893
L 353.969937 171.470417
L 357.043767 172.818376
L 360.117596 174.201462
L 363.191425 175.584549
L 363.191425 118.784458
L 363.191425 118.784458
L 360.117596 118.424259
L 357.043767 118.216269
L 353.969937 118.00828
L 350.896108 117.682895
L 347.822279 117.174573
L 344.74845 116.867187
L 341.67462 116.889168
L 338.600791 116.914825
L 335.526962 116.776276
L 332.453132 116.571662
L 329.379303 116.284158
L 326.305474 115.896867
L 323.231644 115.509576
L 320.157815 115.122285
L 317.083986 114.734994
L 314.010157 114.347703
L 310.936327 113.963017
L 307.862498 113.644986
L 304.788669 113.391328
L 301.714839 112.801657
L 298.64101 112.447556
L 295.567181 112.251062
L 292.493351 111.947684
L 289.419522 111.456652
L 286.345693 111.024475
L 283.271864 110.887637
L 280.198034 110.60603
L 277.124205 110.324423
L 274.050376 109.847908
L 270.976546 109.403401
L 267.902717 109.065388
L 264.828888 108.462744
L 261.755058 108.102458
L 258.681229 108.015302
L 255.6074 107.57467
L 252.533571 107.283759
L 249.459741 106.706403
L 246.385912 106.129046
L 243.312083 105.551689
L 240.238253 104.994687
L 237.164424 104.502296
L 234.090595 103.978168
L 231.016765 103.215578
L 227.942936 102.656223
L 224.869107 102.076671
L 221.795278 101.437195
L 218.721448 100.835938
L 215.647619 100.234683
L 212.57379 99.648082
L 209.49996 99.01032
L 206.426131 98.300174
L 203.352302 97.874584
L 200.278472 97.186899
L 197.204643 96.266203
L 194.130814 95.494991
L 191.056985 94.548081
L 187.983155 94.129334
L 184.909326 93.280224
L 181.835497 92.421525
L 178.761667 91.785571
L 175.687838 90.883891
L 172.614009 90.157954
L 169.540179 88.998626
L 166.46635 88.203062
L 163.392521 87.259674
L 160.318692 86.198737
L 157.244862 85.127084
L 154.171033 84.076862
L 151.097204 83.017679
L 148.023374 82.054758
L 144.949545 81.162545
L 141.875716 80.1083
L 138.801886 79.004416
L 135.728057 77.892184
L 132.654228 76.77021
L 129.580399 75.741825
L 126.506569 74.686394
L 123.43274 73.682687
L 120.358911 72.732617
L 117.285081 71.56612
L 114.211252 70.772217
L 111.137423 69.859831
L 108.063593 68.883176
L 104.989764 67.937373
L 101.915935 66.942941
L 98.842106 66.094376
L 95.768276 65.145243
L 92.694447 64.196111
L 89.620618 63.179681
L 86.546788 62.02712
L 83.472959 60.983469
L 80.39913 59.784419
L 77.3253 58.58537
L 74.251471 57.387337
L 71.177642 56.299029
L 68.103813 55.277302
L 65.029983 54.138381
L 61.956154 53.080968
L 58.882325 52.144903
z
" style="fill:#15527d;fill-opacity:0.15;"/>
   </g>
   <g id="matplotlib.axis_1">
    <g id="xtick_1">
     <g id="line2d_1">
      <defs>
       <path d="M 0 0
L 0 3.5
" id="mdc8417cf41" style="stroke:#000000;stroke-width:0.8;"/>
      </defs>
      <g>
       <use style="stroke:#000000;stroke-width:0.8;" x="58.882325" xlink:href="#mdc8417cf41" y="220.94"/>
      </g>
     </g>
     <g id="text_1">
      <!-- 0 -->
      <defs>
       <path d="M 31.78125 66.40625
Q 24.171875 66.40625 20.328125 58.90625
Q 16.5 51.421875 16.5 36.375
Q 16.5 21.390625 20.328125 13.890625
Q 24.171875 6.390625 31.78125 6.390625
Q 39.453125 6.390625 43.28125 13.890625
Q 47.125 21.390625 47.125 36.375
Q 47.125 51.421875 43.28125 58.90625
Q 39.453125 66.40625 31.78125 66.40625
z
M 31.78125 74.21875
Q 44.046875 74.21875 50.515625 64.515625
Q 56.984375 54.828125 56.984375 36.375
Q 56.984375 17.96875 50.515625 8.265625
Q 44.046875 -1.421875 31.78125 -1.421875
Q 19.53125 -1.421875 13.0625 8.265625
Q 6.59375 17.96875 6.59375 36.375
Q 6.59375 54.828125 13.0625 64.515625
Q 19.53125 74.21875 31.78125 74.21875
z
" id="DejaVuSans-48"/>
      </defs>
      <g transform="translate(55.701075 235.538437)scale(0.1 -0.1)">
       <use xlink:href="#DejaVuSans-48"/>
      </g>
     </g>
    </g>
    <g id="xtick_2">
     <g id="line2d_2">
      <g>
       <use style="stroke:#000000;stroke-width:0.8;" x="119.744145" xlink:href="#mdc8417cf41" y="220.94"/>
      </g>
     </g>
     <g id="text_2">
      <!-- 20 -->
      <defs>
       <path d="M 19.1875 8.296875
L 53.609375 8.296875
L 53.609375 0
L 7.328125 0
L 7.328125 8.296875
Q 12.9375 14.109375 22.625 23.890625
Q 32.328125 33.6875 34.8125 36.53125
Q 39.546875 41.84375 41.421875 45.53125
Q 43.3125 49.21875 43.3125 52.78125
Q 43.3125 58.59375 39.234375 62.25
Q 35.15625 65.921875 28.609375 65.921875
Q 23.96875 65.921875 18.8125 64.3125
Q 13.671875 62.703125 7.8125 59.421875
L 7.8125 69.390625
Q 13.765625 71.78125 18.9375 73
Q 24.125 74.21875 28.421875 74.21875
Q 39.75 74.21875 46.484375 68.546875
Q 53.21875 62.890625 53.21875 53.421875
Q 53.21875 48.921875 51.53125 44.890625
Q 49.859375 40.875 45.40625 35.40625
Q 44.1875 33.984375 37.640625 27.21875
Q 31.109375 20.453125 19.1875 8.296875
z
" id="DejaVuSans-50"/>
      </defs>
      <g transform="translate(113.381645 235.538437)scale(0.1 -0.1)">
       <use xlink:href="#DejaVuSans-50"/>
       <use x="63.623047" xlink:href="#DejaVuSans-48"/>
      </g>
     </g>
    </g>
    <g id="xtick_3">
     <g id="line2d_3">
      <g>
       <use style="stroke:#000000;stroke-width:0.8;" x="180.605965" xlink:href="#mdc8417cf41" y="220.94"/>
      </g>
     </g>
     <g id="text_3">
      <!-- 40 -->
      <defs>
       <path d="M 37.796875 64.3125
L 12.890625 25.390625
L 37.796875 25.390625
z
M 35.203125 72.90625
L 47.609375 72.90625
L 47.609375 25.390625
L 58.015625 25.390625
L 58.015625 17.1875
L 47.609375 17.1875
L 47.609375 0
L 37.796875 0
L 37.796875 17.1875
L 4.890625 17.1875
L 4.890625 26.703125
z
" id="DejaVuSans-52"/>
      </defs>
      <g transform="translate(174.243465 235.538437)scale(0.1 -0.1)">
       <use xlink:href="#DejaVuSans-52"/>
       <use x="63.623047" xlink:href="#DejaVuSans-48"/>
      </g>
     </g>
    </g>
    <g id="xtick_4">
     <g id="line2d_4">
      <g>
       <use style="stroke:#000000;stroke-width:0.8;" x="241.467785" xlink:href="#mdc8417cf41" y="220.94"/>
      </g>
     </g>
     <g id="text_4">
      <!-- 60 -->
      <defs>
       <path d="M 33.015625 40.375
Q 26.375 40.375 22.484375 35.828125
Q 18.609375 31.296875 18.609375 23.390625
Q 18.609375 15.53125 22.484375 10.953125
Q 26.375 6.390625 33.015625 6.390625
Q 39.65625 6.390625 43.53125 10.953125
Q 47.40625 15.53125 47.40625 23.390625
Q 47.40625 31.296875 43.53125 35.828125
Q 39.65625 40.375 33.015625 40.375
z
M 52.59375 71.296875
L 52.59375 62.3125
Q 48.875 64.0625 45.09375 64.984375
Q 41.3125 65.921875 37.59375 65.921875
Q 27.828125 65.921875 22.671875 59.328125
Q 17.53125 52.734375 16.796875 39.40625
Q 19.671875 43.65625 24.015625 45.921875
Q 28.375 48.1875 33.59375 48.1875
Q 44.578125 48.1875 50.953125 41.515625
Q 57.328125 34.859375 57.328125 23.390625
Q 57.328125 12.15625 50.6875 5.359375
Q 44.046875 -1.421875 33.015625 -1.421875
Q 20.359375 -1.421875 13.671875 8.265625
Q 6.984375 17.96875 6.984375 36.375
Q 6.984375 53.65625 15.1875 63.9375
Q 23.390625 74.21875 37.203125 74.21875
Q 40.921875 74.21875 44.703125 73.484375
Q 48.484375 72.75 52.59375 71.296875
z
" id="DejaVuSans-54"/>
      </defs>
      <g transform="translate(235.105285 235.538437)scale(0.1 -0.1)">
       <use xlink:href="#DejaVuSans-54"/>
       <use x="63.623047" xlink:href="#DejaVuSans-48"/>
      </g>
     </g>
    </g>
    <g id="xtick_5">
     <g id="line2d_5">
      <g>
       <use style="stroke:#000000;stroke-width:0.8;" x="302.329605" xlink:href="#mdc8417cf41" y="220.94"/>
      </g>
     </g>
     <g id="text_5">
      <!-- 80 -->
      <defs>
       <path d="M 31.78125 34.625
Q 24.75 34.625 20.71875 30.859375
Q 16.703125 27.09375 16.703125 20.515625
Q 16.703125 13.921875 20.71875 10.15625
Q 24.75 6.390625 31.78125 6.390625
Q 38.8125 6.390625 42.859375 10.171875
Q 46.921875 13.96875 46.921875 20.515625
Q 46.921875 27.09375 42.890625 30.859375
Q 38.875 34.625 31.78125 34.625
z
M 21.921875 38.8125
Q 15.578125 40.375 12.03125 44.71875
Q 8.5 49.078125 8.5 55.328125
Q 8.5 64.0625 14.71875 69.140625
Q 20.953125 74.21875 31.78125 74.21875
Q 42.671875 74.21875 48.875 69.140625
Q 55.078125 64.0625 55.078125 55.328125
Q 55.078125 49.078125 51.53125 44.71875
Q 48 40.375 41.703125 38.8125
Q 48.828125 37.15625 52.796875 32.3125
Q 56.78125 27.484375 56.78125 20.515625
Q 56.78125 9.90625 50.3125 4.234375
Q 43.84375 -1.421875 31.78125 -1.421875
Q 19.734375 -1.421875 13.25 4.234375
Q 6.78125 9.90625 6.78125 20.515625
Q 6.78125 27.484375 10.78125 32.3125
Q 14.796875 37.15625 21.921875 38.8125
z
M 18.3125 54.390625
Q 18.3125 48.734375 21.84375 45.5625
Q 25.390625 42.390625 31.78125 42.390625
Q 38.140625 42.390625 41.71875 45.5625
Q 45.3125 48.734375 45.3125 54.390625
Q 45.3125 60.0625 41.71875 63.234375
Q 38.140625 66.40625 31.78125 66.40625
Q 25.390625 66.40625 21.84375 63.234375
Q 18.3125 60.0625 18.3125 54.390625
z
" id="DejaVuSans-56"/>
      </defs>
      <g transform="translate(295.967105 235.538437)scale(0.1 -0.1)">
       <use xlink:href="#DejaVuSans-56"/>
       <use x="63.623047" xlink:href="#DejaVuSans-48"/>
      </g>
     </g>
    </g>
    <g id="xtick_6">
     <g id="line2d_6">
      <g>
       <use style="stroke:#000000;stroke-width:0.8;" x="363.191425" xlink:href="#mdc8417cf41" y="220.94"/>
      </g>
     </g>
     <g id="text_6">
      <!-- 100 -->
      <defs>
       <path d="M 12.40625 8.296875
L 28.515625 8.296875
L 28.515625 63.921875
L 10.984375 60.40625
L 10.984375 69.390625
L 28.421875 72.90625
L 38.28125 72.90625
L 38.28125 8.296875
L 54.390625 8.296875
L 54.390625 0
L 12.40625 0
z
" id="DejaVuSans-49"/>
      </defs>
      <g transform="translate(353.647675 235.538437)scale(0.1 -0.1)">
       <use xlink:href="#DejaVuSans-49"/>
       <use x="63.623047" xlink:href="#DejaVuSans-48"/>
       <use x="127.246094" xlink:href="#DejaVuSans-48"/>
      </g>
     </g>
    </g>
    <g id="text_7">
     <!-- SOPHIE-RNAseq -->
     <defs>
      <path d="M 53.515625 70.515625
L 53.515625 60.890625
Q 47.90625 63.578125 42.921875 64.890625
Q 37.9375 66.21875 33.296875 66.21875
Q 25.25 66.21875 20.875 63.09375
Q 16.5 59.96875 16.5 54.203125
Q 16.5 49.359375 19.40625 46.890625
Q 22.3125 44.4375 30.421875 42.921875
L 36.375 41.703125
Q 47.40625 39.59375 52.65625 34.296875
Q 57.90625 29 57.90625 20.125
Q 57.90625 9.515625 50.796875 4.046875
Q 43.703125 -1.421875 29.984375 -1.421875
Q 24.8125 -1.421875 18.96875 -0.25
Q 13.140625 0.921875 6.890625 3.21875
L 6.890625 13.375
Q 12.890625 10.015625 18.65625 8.296875
Q 24.421875 6.59375 29.984375 6.59375
Q 38.421875 6.59375 43.015625 9.90625
Q 47.609375 13.234375 47.609375 19.390625
Q 47.609375 24.75 44.3125 27.78125
Q 41.015625 30.8125 33.5 32.328125
L 27.484375 33.5
Q 16.453125 35.6875 11.515625 40.375
Q 6.59375 45.0625 6.59375 53.421875
Q 6.59375 63.09375 13.40625 68.65625
Q 20.21875 74.21875 32.171875 74.21875
Q 37.3125 74.21875 42.625 73.28125
Q 47.953125 72.359375 53.515625 70.515625
z
" id="DejaVuSans-83"/>
      <path d="M 39.40625 66.21875
Q 28.65625 66.21875 22.328125 58.203125
Q 16.015625 50.203125 16.015625 36.375
Q 16.015625 22.609375 22.328125 14.59375
Q 28.65625 6.59375 39.40625 6.59375
Q 50.140625 6.59375 56.421875 14.59375
Q 62.703125 22.609375 62.703125 36.375
Q 62.703125 50.203125 56.421875 58.203125
Q 50.140625 66.21875 39.40625 66.21875
z
M 39.40625 74.21875
Q 54.734375 74.21875 63.90625 63.9375
Q 73.09375 53.65625 73.09375 36.375
Q 73.09375 19.140625 63.90625 8.859375
Q 54.734375 -1.421875 39.40625 -1.421875
Q 24.03125 -1.421875 14.8125 8.828125
Q 5.609375 19.09375 5.609375 36.375
Q 5.609375 53.65625 14.8125 63.9375
Q 24.03125 74.21875 39.40625 74.21875
z
" id="DejaVuSans-79"/>
      <path d="M 19.671875 64.796875
L 19.671875 37.40625
L 32.078125 37.40625
Q 38.96875 37.40625 42.71875 40.96875
Q 46.484375 44.53125 46.484375 51.125
Q 46.484375 57.671875 42.71875 61.234375
Q 38.96875 64.796875 32.078125 64.796875
z
M 9.8125 72.90625
L 32.078125 72.90625
Q 44.34375 72.90625 50.609375 67.359375
Q 56.890625 61.8125 56.890625 51.125
Q 56.890625 40.328125 50.609375 34.8125
Q 44.34375 29.296875 32.078125 29.296875
L 19.671875 29.296875
L 19.671875 0
L 9.8125 0
z
" id="DejaVuSans-80"/>
      <path d="M 9.8125 72.90625
L 19.671875 72.90625
L 19.671875 43.015625
L 55.515625 43.015625
L 55.515625 72.90625
L 65.375 72.90625
L 65.375 0
L 55.515625 0
L 55.515625 34.71875
L 19.671875 34.71875
L 19.671875 0
L 9.8125 0
z
" id="DejaVuSans-72"/>
      <path d="M 9.8125 72.90625
L 19.671875 72.90625
L 19.671875 0
L 9.8125 0
z
" id="DejaVuSans-73"/>
      <path d="M 9.8125 72.90625
L 55.90625 72.90625
L 55.90625 64.59375
L 19.671875 64.59375
L 19.671875 43.015625
L 54.390625 43.015625
L 54.390625 34.71875
L 19.671875 34.71875
L 19.671875 8.296875
L 56.78125 8.296875
L 56.78125 0
L 9.8125 0
z
" id="DejaVuSans-69"/>
      <path d="M 4.890625 31.390625
L 31.203125 31.390625
L 31.203125 23.390625
L 4.890625 23.390625
z
" id="DejaVuSans-45"/>
      <path d="M 44.390625 34.1875
Q 47.5625 33.109375 50.5625 29.59375
Q 53.5625 26.078125 56.59375 19.921875
L 66.609375 0
L 56 0
L 46.6875 18.703125
Q 43.0625 26.03125 39.671875 28.421875
Q 36.28125 30.8125 30.421875 30.8125
L 19.671875 30.8125
L 19.671875 0
L 9.8125 0
L 9.8125 72.90625
L 32.078125 72.90625
Q 44.578125 72.90625 50.734375 67.671875
Q 56.890625 62.453125 56.890625 51.90625
Q 56.890625 45.015625 53.6875 40.46875
Q 50.484375 35.9375 44.390625 34.1875
z
M 19.671875 64.796875
L 19.671875 38.921875
L 32.078125 38.921875
Q 39.203125 38.921875 42.84375 42.21875
Q 46.484375 45.515625 46.484375 51.90625
Q 46.484375 58.296875 42.84375 61.546875
Q 39.203125 64.796875 32.078125 64.796875
z
" id="DejaVuSans-82"/>
      <path d="M 9.8125 72.90625
L 23.09375 72.90625
L 55.421875 11.921875
L 55.421875 72.90625
L 64.984375 72.90625
L 64.984375 0
L 51.703125 0
L 19.390625 60.984375
L 19.390625 0
L 9.8125 0
z
" id="DejaVuSans-78"/>
      <path d="M 34.1875 63.1875
L 20.796875 26.90625
L 47.609375 26.90625
z
M 28.609375 72.90625
L 39.796875 72.90625
L 67.578125 0
L 57.328125 0
L 50.6875 18.703125
L 17.828125 18.703125
L 11.1875 0
L 0.78125 0
z
" id="DejaVuSans-65"/>
      <path d="M 44.28125 53.078125
L 44.28125 44.578125
Q 40.484375 46.53125 36.375 47.5
Q 32.28125 48.484375 27.875 48.484375
Q 21.1875 48.484375 17.84375 46.4375
Q 14.5 44.390625 14.5 40.28125
Q 14.5 37.15625 16.890625 35.375
Q 19.28125 33.59375 26.515625 31.984375
L 29.59375 31.296875
Q 39.15625 29.25 43.1875 25.515625
Q 47.21875 21.78125 47.21875 15.09375
Q 47.21875 7.46875 41.1875 3.015625
Q 35.15625 -1.421875 24.609375 -1.421875
Q 20.21875 -1.421875 15.453125 -0.5625
Q 10.6875 0.296875 5.421875 2
L 5.421875 11.28125
Q 10.40625 8.6875 15.234375 7.390625
Q 20.0625 6.109375 24.8125 6.109375
Q 31.15625 6.109375 34.5625 8.28125
Q 37.984375 10.453125 37.984375 14.40625
Q 37.984375 18.0625 35.515625 20.015625
Q 33.0625 21.96875 24.703125 23.78125
L 21.578125 24.515625
Q 13.234375 26.265625 9.515625 29.90625
Q 5.8125 33.546875 5.8125 39.890625
Q 5.8125 47.609375 11.28125 51.796875
Q 16.75 56 26.8125 56
Q 31.78125 56 36.171875 55.265625
Q 40.578125 54.546875 44.28125 53.078125
z
" id="DejaVuSans-115"/>
      <path d="M 56.203125 29.59375
L 56.203125 25.203125
L 14.890625 25.203125
Q 15.484375 15.921875 20.484375 11.0625
Q 25.484375 6.203125 34.421875 6.203125
Q 39.59375 6.203125 44.453125 7.46875
Q 49.3125 8.734375 54.109375 11.28125
L 54.109375 2.78125
Q 49.265625 0.734375 44.1875 -0.34375
Q 39.109375 -1.421875 33.890625 -1.421875
Q 20.796875 -1.421875 13.15625 6.1875
Q 5.515625 13.8125 5.515625 26.8125
Q 5.515625 40.234375 12.765625 48.109375
Q 20.015625 56 32.328125 56
Q 43.359375 56 49.78125 48.890625
Q 56.203125 41.796875 56.203125 29.59375
z
M 47.21875 32.234375
Q 47.125 39.59375 43.09375 43.984375
Q 39.0625 48.390625 32.421875 48.390625
Q 24.90625 48.390625 20.390625 44.140625
Q 15.875 39.890625 15.1875 32.171875
z
" id="DejaVuSans-101"/>
      <path d="M 14.796875 27.296875
Q 14.796875 17.390625 18.875 11.75
Q 22.953125 6.109375 30.078125 6.109375
Q 37.203125 6.109375 41.296875 11.75
Q 45.40625 17.390625 45.40625 27.296875
Q 45.40625 37.203125 41.296875 42.84375
Q 37.203125 48.484375 30.078125 48.484375
Q 22.953125 48.484375 18.875 42.84375
Q 14.796875 37.203125 14.796875 27.296875
z
M 45.40625 8.203125
Q 42.578125 3.328125 38.25 0.953125
Q 33.9375 -1.421875 27.875 -1.421875
Q 17.96875 -1.421875 11.734375 6.484375
Q 5.515625 14.40625 5.515625 27.296875
Q 5.515625 40.1875 11.734375 48.09375
Q 17.96875 56 27.875 56
Q 33.9375 56 38.25 53.625
Q 42.578125 51.265625 45.40625 46.390625
L 45.40625 54.6875
L 54.390625 54.6875
L 54.390625 -20.796875
L 45.40625 -20.796875
z
" id="DejaVuSans-113"/>
     </defs>
     <g transform="translate(155.297188 252.255937)scale(0.14 -0.14)">
      <use xlink:href="#DejaVuSans-83"/>
      <use x="63.476562" xlink:href="#DejaVuSans-79"/>
      <use x="142.1875" xlink:href="#DejaVuSans-80"/>
      <use x="202.490234" xlink:href="#DejaVuSans-72"/>
      <use x="277.685547" xlink:href="#DejaVuSans-73"/>
      <use x="307.177734" xlink:href="#DejaVuSans-69"/>
      <use x="370.361328" xlink:href="#DejaVuSans-45"/>
      <use x="406.445312" xlink:href="#DejaVuSans-82"/>
      <use x="475.927734" xlink:href="#DejaVuSans-78"/>
      <use x="550.732422" xlink:href="#DejaVuSans-65"/>
      <use x="619.140625" xlink:href="#DejaVuSans-115"/>
      <use x="671.240234" xlink:href="#DejaVuSans-101"/>
      <use x="732.763672" xlink:href="#DejaVuSans-113"/>
     </g>
    </g>
   </g>
   <g id="matplotlib.axis_2">
    <g id="ytick_1">
     <g id="line2d_7">
      <defs>
       <path d="M 0 0
L -3.5 0
" id="m86b08c9c47" style="stroke:#000000;stroke-width:0.8;"/>
      </defs>
      <g>
       <use style="stroke:#000000;stroke-width:0.8;" x="43.636875" xlink:href="#m86b08c9c47" y="211.029098"/>
      </g>
     </g>
     <g id="text_8">
      <!-- 0 -->
      <g transform="translate(30.274375 214.828317)scale(0.1 -0.1)">
       <use xlink:href="#DejaVuSans-48"/>
      </g>
     </g>
    </g>
    <g id="ytick_2">
     <g id="line2d_8">
      <g>
       <use style="stroke:#000000;stroke-width:0.8;" x="43.636875" xlink:href="#m86b08c9c47" y="171.505459"/>
      </g>
     </g>
     <g id="text_9">
      <!-- 20 -->
      <g transform="translate(23.911875 175.304678)scale(0.1 -0.1)">
       <use xlink:href="#DejaVuSans-50"/>
       <use x="63.623047" xlink:href="#DejaVuSans-48"/>
      </g>
     </g>
    </g>
    <g id="ytick_3">
     <g id="line2d_9">
      <g>
       <use style="stroke:#000000;stroke-width:0.8;" x="43.636875" xlink:href="#m86b08c9c47" y="131.98182"/>
      </g>
     </g>
     <g id="text_10">
      <!-- 40 -->
      <g transform="translate(23.911875 135.781038)scale(0.1 -0.1)">
       <use xlink:href="#DejaVuSans-52"/>
       <use x="63.623047" xlink:href="#DejaVuSans-48"/>
      </g>
     </g>
    </g>
    <g id="ytick_4">
     <g id="line2d_10">
      <g>
       <use style="stroke:#000000;stroke-width:0.8;" x="43.636875" xlink:href="#m86b08c9c47" y="92.45818"/>
      </g>
     </g>
     <g id="text_11">
      <!-- 60 -->
      <g transform="translate(23.911875 96.257399)scale(0.1 -0.1)">
       <use xlink:href="#DejaVuSans-54"/>
       <use x="63.623047" xlink:href="#DejaVuSans-48"/>
      </g>
     </g>
    </g>
    <g id="ytick_5">
     <g id="line2d_11">
      <g>
       <use style="stroke:#000000;stroke-width:0.8;" x="43.636875" xlink:href="#m86b08c9c47" y="52.934541"/>
      </g>
     </g>
     <g id="text_12">
      <!-- 80 -->
      <g transform="translate(23.911875 56.73376)scale(0.1 -0.1)">
       <use xlink:href="#DejaVuSans-56"/>
       <use x="63.623047" xlink:href="#DejaVuSans-48"/>
      </g>
     </g>
    </g>
    <g id="ytick_6">
     <g id="line2d_12">
      <g>
       <use style="stroke:#000000;stroke-width:0.8;" x="43.636875" xlink:href="#m86b08c9c47" y="13.410902"/>
      </g>
     </g>
     <g id="text_13">
      <!-- 100 -->
      <g transform="translate(17.549375 17.21012)scale(0.1 -0.1)">
       <use xlink:href="#DejaVuSans-49"/>
       <use x="63.623047" xlink:href="#DejaVuSans-48"/>
       <use x="127.246094" xlink:href="#DejaVuSans-48"/>
      </g>
     </g>
    </g>
    <g id="text_14">
     <!-- Powers et. al. 2018 -->
     <defs>
      <path d="M 30.609375 48.390625
Q 23.390625 48.390625 19.1875 42.75
Q 14.984375 37.109375 14.984375 27.296875
Q 14.984375 17.484375 19.15625 11.84375
Q 23.34375 6.203125 30.609375 6.203125
Q 37.796875 6.203125 41.984375 11.859375
Q 46.1875 17.53125 46.1875 27.296875
Q 46.1875 37.015625 41.984375 42.703125
Q 37.796875 48.390625 30.609375 48.390625
z
M 30.609375 56
Q 42.328125 56 49.015625 48.375
Q 55.71875 40.765625 55.71875 27.296875
Q 55.71875 13.875 49.015625 6.21875
Q 42.328125 -1.421875 30.609375 -1.421875
Q 18.84375 -1.421875 12.171875 6.21875
Q 5.515625 13.875 5.515625 27.296875
Q 5.515625 40.765625 12.171875 48.375
Q 18.84375 56 30.609375 56
z
" id="DejaVuSans-111"/>
      <path d="M 4.203125 54.6875
L 13.1875 54.6875
L 24.421875 12.015625
L 35.59375 54.6875
L 46.1875 54.6875
L 57.421875 12.015625
L 68.609375 54.6875
L 77.59375 54.6875
L 63.28125 0
L 52.6875 0
L 40.921875 44.828125
L 29.109375 0
L 18.5 0
z
" id="DejaVuSans-119"/>
      <path d="M 41.109375 46.296875
Q 39.59375 47.171875 37.8125 47.578125
Q 36.03125 48 33.890625 48
Q 26.265625 48 22.1875 43.046875
Q 18.109375 38.09375 18.109375 28.8125
L 18.109375 0
L 9.078125 0
L 9.078125 54.6875
L 18.109375 54.6875
L 18.109375 46.1875
Q 20.953125 51.171875 25.484375 53.578125
Q 30.03125 56 36.53125 56
Q 37.453125 56 38.578125 55.875
Q 39.703125 55.765625 41.0625 55.515625
z
" id="DejaVuSans-114"/>
      <path id="DejaVuSans-32"/>
      <path d="M 18.3125 70.21875
L 18.3125 54.6875
L 36.8125 54.6875
L 36.8125 47.703125
L 18.3125 47.703125
L 18.3125 18.015625
Q 18.3125 11.328125 20.140625 9.421875
Q 21.96875 7.515625 27.59375 7.515625
L 36.8125 7.515625
L 36.8125 0
L 27.59375 0
Q 17.1875 0 13.234375 3.875
Q 9.28125 7.765625 9.28125 18.015625
L 9.28125 47.703125
L 2.6875 47.703125
L 2.6875 54.6875
L 9.28125 54.6875
L 9.28125 70.21875
z
" id="DejaVuSans-116"/>
      <path d="M 10.6875 12.40625
L 21 12.40625
L 21 0
L 10.6875 0
z
" id="DejaVuSans-46"/>
      <path d="M 34.28125 27.484375
Q 23.390625 27.484375 19.1875 25
Q 14.984375 22.515625 14.984375 16.5
Q 14.984375 11.71875 18.140625 8.90625
Q 21.296875 6.109375 26.703125 6.109375
Q 34.1875 6.109375 38.703125 11.40625
Q 43.21875 16.703125 43.21875 25.484375
L 43.21875 27.484375
z
M 52.203125 31.203125
L 52.203125 0
L 43.21875 0
L 43.21875 8.296875
Q 40.140625 3.328125 35.546875 0.953125
Q 30.953125 -1.421875 24.3125 -1.421875
Q 15.921875 -1.421875 10.953125 3.296875
Q 6 8.015625 6 15.921875
Q 6 25.140625 12.171875 29.828125
Q 18.359375 34.515625 30.609375 34.515625
L 43.21875 34.515625
L 43.21875 35.40625
Q 43.21875 41.609375 39.140625 45
Q 35.0625 48.390625 27.6875 48.390625
Q 23 48.390625 18.546875 47.265625
Q 14.109375 46.140625 10.015625 43.890625
L 10.015625 52.203125
Q 14.9375 54.109375 19.578125 55.046875
Q 24.21875 56 28.609375 56
Q 40.484375 56 46.34375 49.84375
Q 52.203125 43.703125 52.203125 31.203125
z
" id="DejaVuSans-97"/>
      <path d="M 9.421875 75.984375
L 18.40625 75.984375
L 18.40625 0
L 9.421875 0
z
" id="DejaVuSans-108"/>
     </defs>
     <g transform="translate(10.637812 179.500937)rotate(-90)scale(0.14 -0.14)">
      <use xlink:href="#DejaVuSans-80"/>
      <use x="60.255859" xlink:href="#DejaVuSans-111"/>
      <use x="121.4375" xlink:href="#DejaVuSans-119"/>
      <use x="203.224609" xlink:href="#DejaVuSans-101"/>
      <use x="264.748047" xlink:href="#DejaVuSans-114"/>
      <use x="305.861328" xlink:href="#DejaVuSans-115"/>
      <use x="357.960938" xlink:href="#DejaVuSans-32"/>
      <use x="389.748047" xlink:href="#DejaVuSans-101"/>
      <use x="451.271484" xlink:href="#DejaVuSans-116"/>
      <use x="490.480469" xlink:href="#DejaVuSans-46"/>
      <use x="522.267578" xlink:href="#DejaVuSans-32"/>
      <use x="554.054688" xlink:href="#DejaVuSans-97"/>
      <use x="615.333984" xlink:href="#DejaVuSans-108"/>
      <use x="643.117188" xlink:href="#DejaVuSans-46"/>
      <use x="674.904297" xlink:href="#DejaVuSans-32"/>
      <use x="706.691406" xlink:href="#DejaVuSans-50"/>
      <use x="770.314453" xlink:href="#DejaVuSans-48"/>
      <use x="833.9375" xlink:href="#DejaVuSans-49"/>
      <use x="897.560547" xlink:href="#DejaVuSans-56"/>
     </g>
    </g>
   </g>
   <g id="line2d_13">
    <path clip-path="url(#p92feacc9fe)" d="M 58.882325 81.186673
L 61.956154 81.874773
L 65.029983 82.562874
L 68.103813 83.250974
L 71.177642 83.939074
L 74.251471 84.627175
L 77.3253 85.315275
L 80.39913 86.003375
L 83.472959 86.691476
L 86.546788 87.379576
L 89.620618 88.067677
L 92.694447 88.755777
L 95.768276 89.443877
L 98.842106 90.131978
L 101.915935 90.820078
L 104.989764 91.508179
L 108.063593 92.196279
L 111.137423 92.884379
L 114.211252 93.57248
L 117.285081 94.26058
L 120.358911 94.94868
L 123.43274 95.636781
L 126.506569 96.324881
L 129.580399 97.012982
L 132.654228 97.701082
L 135.728057 98.389182
L 138.801886 99.077283
L 141.875716 99.765383
L 144.949545 100.453483
L 148.023374 101.141584
L 151.097204 101.829684
L 154.171033 102.517785
L 157.244862 103.205885
L 160.318692 103.893985
L 163.392521 104.582086
L 166.46635 105.270186
L 169.540179 105.958287
L 172.614009 106.646387
L 175.687838 107.334487
L 178.761667 108.022588
L 181.835497 108.710688
L 184.909326 109.398788
L 187.983155 110.086889
L 191.056985 110.774989
L 194.130814 111.46309
L 197.204643 112.15119
L 200.278472 112.83929
L 203.352302 113.527391
L 206.426131 114.215491
L 209.49996 114.903591
L 212.57379 115.591692
L 215.647619 116.279792
L 218.721448 116.967893
L 221.795278 117.655993
L 224.869107 118.344093
L 227.942936 119.032194
L 231.016765 119.720294
L 234.090595 120.408395
L 237.164424 121.096495
L 240.238253 121.784595
L 243.312083 122.472696
L 246.385912 123.160796
L 249.459741 123.848896
L 252.533571 124.536997
L 255.6074 125.225097
L 258.681229 125.913198
L 261.755058 126.601298
L 264.828888 127.289398
L 267.902717 127.977499
L 270.976546 128.665599
L 274.050376 129.353699
L 277.124205 130.0418
L 280.198034 130.7299
L 283.271864 131.418001
L 286.345693 132.106101
L 289.419522 132.794201
L 292.493351 133.482302
L 295.567181 134.170402
L 298.64101 134.858503
L 301.714839 135.546603
L 304.788669 136.234703
L 307.862498 136.922804
L 310.936327 137.610904
L 314.010157 138.299004
L 317.083986 138.987105
L 320.157815 139.675205
L 323.231644 140.363306
L 326.305474 141.051406
L 329.379303 141.739506
L 332.453132 142.427607
L 335.526962 143.115707
L 338.600791 143.803807
L 341.67462 144.491908
L 344.74845 145.180008
L 347.822279 145.868109
L 350.896108 146.556209
L 353.969937 147.244309
L 357.043767 147.93241
L 360.117596 148.62051
L 363.191425 149.308611
" style="fill:none;stroke:#15527d;stroke-linecap:square;stroke-width:2.25;"/>
   </g>
   <g id="patch_3">
    <path d="M 43.636875 220.94
L 43.636875 3.5
" style="fill:none;stroke:#000000;stroke-linecap:square;stroke-linejoin:miter;stroke-width:0.8;"/>
   </g>
   <g id="patch_4">
    <path d="M 378.436875 220.94
L 378.436875 3.5
" style="fill:none;stroke:#000000;stroke-linecap:square;stroke-linejoin:miter;stroke-width:0.8;"/>
   </g>
   <g id="patch_5">
    <path d="M 43.636875 220.94
L 378.436875 220.94
" style="fill:none;stroke:#000000;stroke-linecap:square;stroke-linejoin:miter;stroke-width:0.8;"/>
   </g>
   <g id="patch_6">
    <path d="M 43.636875 3.5
L 378.436875 3.5
" style="fill:none;stroke:#000000;stroke-linecap:square;stroke-linejoin:miter;stroke-width:0.8;"/>
   </g>
   <g id="text_15">
    <!-- R^2 = -0.374 -->
    <defs>
     <path d="M 46.6875 72.90625
L 73.1875 45.703125
L 63.375 45.703125
L 41.890625 64.984375
L 20.40625 45.703125
L 10.59375 45.703125
L 37.109375 72.90625
z
" id="DejaVuSans-94"/>
     <path d="M 10.59375 45.40625
L 73.1875 45.40625
L 73.1875 37.203125
L 10.59375 37.203125
z
M 10.59375 25.484375
L 73.1875 25.484375
L 73.1875 17.1875
L 10.59375 17.1875
z
" id="DejaVuSans-61"/>
     <path d="M 40.578125 39.3125
Q 47.65625 37.796875 51.625 33
Q 55.609375 28.21875 55.609375 21.1875
Q 55.609375 10.40625 48.1875 4.484375
Q 40.765625 -1.421875 27.09375 -1.421875
Q 22.515625 -1.421875 17.65625 -0.515625
Q 12.796875 0.390625 7.625 2.203125
L 7.625 11.71875
Q 11.71875 9.328125 16.59375 8.109375
Q 21.484375 6.890625 26.8125 6.890625
Q 36.078125 6.890625 40.9375 10.546875
Q 45.796875 14.203125 45.796875 21.1875
Q 45.796875 27.640625 41.28125 31.265625
Q 36.765625 34.90625 28.71875 34.90625
L 20.21875 34.90625
L 20.21875 43.015625
L 29.109375 43.015625
Q 36.375 43.015625 40.234375 45.921875
Q 44.09375 48.828125 44.09375 54.296875
Q 44.09375 59.90625 40.109375 62.90625
Q 36.140625 65.921875 28.71875 65.921875
Q 24.65625 65.921875 20.015625 65.03125
Q 15.375 64.15625 9.8125 62.3125
L 9.8125 71.09375
Q 15.4375 72.65625 20.34375 73.4375
Q 25.25 74.21875 29.59375 74.21875
Q 40.828125 74.21875 47.359375 69.109375
Q 53.90625 64.015625 53.90625 55.328125
Q 53.90625 49.265625 50.4375 45.09375
Q 46.96875 40.921875 40.578125 39.3125
z
" id="DejaVuSans-51"/>
     <path d="M 8.203125 72.90625
L 55.078125 72.90625
L 55.078125 68.703125
L 28.609375 0
L 18.3125 0
L 43.21875 64.59375
L 8.203125 64.59375
z
" id="DejaVuSans-55"/>
    </defs>
    <g transform="translate(241.467785 17.363266)scale(0.1 -0.1)">
     <use xlink:href="#DejaVuSans-82"/>
     <use x="69.482422" xlink:href="#DejaVuSans-94"/>
     <use x="153.271484" xlink:href="#DejaVuSans-50"/>
     <use x="216.894531" xlink:href="#DejaVuSans-32"/>
     <use x="248.681641" xlink:href="#DejaVuSans-61"/>
     <use x="332.470703" xlink:href="#DejaVuSans-32"/>
     <use x="364.257812" xlink:href="#DejaVuSans-45"/>
     <use x="400.341797" xlink:href="#DejaVuSans-48"/>
     <use x="463.964844" xlink:href="#DejaVuSans-46"/>
     <use x="495.751953" xlink:href="#DejaVuSans-51"/>
     <use x="559.375" xlink:href="#DejaVuSans-55"/>
     <use x="622.998047" xlink:href="#DejaVuSans-52"/>
    </g>
   </g>
  </g>
 </g>
 <defs>
  <clipPath id="p92feacc9fe">
   <rect height="217.44" width="334.8" x="43.636875" y="3.5"/>
  </clipPath>
 </defs>
</svg>
