<?xml version="1.0" encoding="utf-8" standalone="no"?>
<!DOCTYPE svg PUBLIC "-//W3C//DTD SVG 1.1//EN"
  "http://www.w3.org/Graphics/SVG/1.1/DTD/svg11.dtd">
<!-- Created with matplotlib (https://matplotlib.org/) -->
<svg height="262.914375pt" version="1.1" viewBox="0 0 494.873437 262.914375" width="494.873437pt" xmlns="http://www.w3.org/2000/svg" xmlns:xlink="http://www.w3.org/1999/xlink">
 <defs>
  <style type="text/css">
*{stroke-linecap:butt;stroke-linejoin:round;}
  </style>
 </defs>
 <g id="figure_1">
  <g id="patch_1">
   <path d="M 0 262.914375
L 494.873437 262.914375
L 494.873437 0
L 0 0
z
" style="fill:none;"/>
  </g>
  <g id="axes_1">
   <g id="patch_2">
    <path d="M 156.573438 232.558125
L 491.373437 232.558125
L 491.373437 15.118125
L 156.573438 15.118125
z
" style="fill:none;"/>
   </g>
   <g id="PolyCollection_1">
    <defs>
     <path d="M 179.140856 -211.555534
L 179.140856 -211.556966
L 182.141002 -211.558237
L 185.141147 -211.560461
L 188.141292 -211.563292
L 191.141438 -211.566125
L 194.141583 -211.56914
L 197.141729 -211.574118
L 200.141874 -211.58435
L 203.14202 -211.604659
L 206.142165 -211.643185
L 209.142311 -211.713815
L 212.142456 -211.833969
L 215.142602 -212.015617
L 218.142747 -212.258077
L 221.142892 -212.553635
L 224.143038 -212.904636
L 227.143183 -213.33994
L 230.143329 -213.921103
L 233.143474 -214.73371
L 236.14362 -215.851968
L 239.143765 -217.274728
L 242.143911 -218.887214
L 245.144056 -220.505589
L 248.144201 -221.958386
L 251.144347 -223.120758
L 254.144492 -223.911834
L 257.144638 -224.299343
L 260.144783 -224.300784
L 263.144929 -223.981281
L 266.145074 -223.455757
L 269.14522 -222.851005
L 272.145365 -222.237268
L 275.145511 -221.627946
L 278.145656 -221.043567
L 281.145801 -220.524887
L 284.145947 -220.090139
L 287.146092 -219.722616
L 290.146238 -219.398039
L 293.146383 -219.111003
L 296.146529 -218.876105
L 299.146674 -218.700603
L 302.14682 -218.565456
L 305.146965 -218.442495
L 308.14711 -218.310784
L 311.147256 -218.143729
L 314.147401 -217.901052
L 317.147547 -217.560032
L 320.147692 -217.151716
L 323.147838 -216.738525
L 326.147983 -216.354974
L 329.148129 -215.993191
L 332.148274 -215.636133
L 335.14842 -215.278963
L 338.148565 -214.926993
L 341.14871 -214.592448
L 344.148856 -214.290677
L 347.149001 -214.032351
L 350.149147 -213.817265
L 353.149292 -213.631223
L 356.149438 -213.451962
L 359.149583 -213.267736
L 362.149729 -213.086485
L 365.149874 -212.918608
L 368.150019 -212.760279
L 371.150165 -212.603938
L 374.15031 -212.454428
L 377.150456 -212.325008
L 380.150601 -212.224282
L 383.150747 -212.150024
L 386.150892 -212.09174
L 389.151038 -212.039648
L 392.151183 -211.990806
L 395.151329 -211.945689
L 398.151474 -211.902656
L 401.151619 -211.858973
L 404.151765 -211.816047
L 407.15191 -211.779582
L 410.152056 -211.752473
L 413.152201 -211.730175
L 416.152347 -211.705342
L 419.152492 -211.675647
L 422.152638 -211.645531
L 425.152783 -211.620985
L 428.152928 -211.603936
L 431.153074 -211.59174
L 434.153219 -211.581057
L 437.153365 -211.571174
L 440.15351 -211.563503
L 443.153656 -211.558994
L 446.153801 -211.557066
L 449.153947 -211.55658
L 452.154092 -211.556948
L 455.154238 -211.558327
L 458.154383 -211.56096
L 461.154528 -211.564116
L 464.154674 -211.565914
L 467.154819 -211.564982
L 470.154965 -211.562053
L 473.15511 -211.559086
L 476.155256 -211.557269
L 476.155256 -211.555231
L 476.155256 -211.555231
L 473.15511 -211.553414
L 470.154965 -211.550447
L 467.154819 -211.547518
L 464.154674 -211.546586
L 461.154528 -211.548384
L 458.154383 -211.55154
L 455.154238 -211.554173
L 452.154092 -211.555552
L 449.153947 -211.55592
L 446.153801 -211.555434
L 443.153656 -211.553506
L 440.15351 -211.548997
L 437.153365 -211.541326
L 434.153219 -211.531443
L 431.153074 -211.52076
L 428.152928 -211.508564
L 425.152783 -211.491515
L 422.152638 -211.466969
L 419.152492 -211.436853
L 416.152347 -211.407158
L 413.152201 -211.382325
L 410.152056 -211.360027
L 407.15191 -211.332918
L 404.151765 -211.296453
L 401.151619 -211.253527
L 398.151474 -211.209844
L 395.151329 -211.166811
L 392.151183 -211.121694
L 389.151038 -211.072852
L 386.150892 -211.02076
L 383.150747 -210.962476
L 380.150601 -210.888218
L 377.150456 -210.787492
L 374.15031 -210.658072
L 371.150165 -210.508562
L 368.150019 -210.352221
L 365.149874 -210.193892
L 362.149729 -210.026015
L 359.149583 -209.844764
L 356.149438 -209.660538
L 353.149292 -209.481277
L 350.149147 -209.295235
L 347.149001 -209.080149
L 344.148856 -208.821823
L 341.14871 -208.520052
L 338.148565 -208.185507
L 335.14842 -207.833537
L 332.148274 -207.476367
L 329.148129 -207.119309
L 326.147983 -206.757526
L 323.147838 -206.373975
L 320.147692 -205.960784
L 317.147547 -205.552468
L 314.147401 -205.211448
L 311.147256 -204.968771
L 308.14711 -204.801716
L 305.146965 -204.670005
L 302.14682 -204.547044
L 299.146674 -204.411897
L 296.146529 -204.236395
L 293.146383 -204.001497
L 290.146238 -203.714461
L 287.146092 -203.389884
L 284.145947 -203.022361
L 281.145801 -202.587613
L 278.145656 -202.068933
L 275.145511 -201.484554
L 272.145365 -200.875232
L 269.14522 -200.261495
L 266.145074 -199.656743
L 263.144929 -199.131219
L 260.144783 -198.811716
L 257.144638 -198.813157
L 254.144492 -199.200666
L 251.144347 -199.991742
L 248.144201 -201.154114
L 245.144056 -202.606911
L 242.143911 -204.225286
L 239.143765 -205.837772
L 236.14362 -207.260532
L 233.143474 -208.37879
L 230.143329 -209.191397
L 227.143183 -209.77256
L 224.143038 -210.207864
L 221.142892 -210.558865
L 218.142747 -210.854423
L 215.142602 -211.096883
L 212.142456 -211.278531
L 209.142311 -211.398685
L 206.142165 -211.469315
L 203.14202 -211.507841
L 200.141874 -211.52815
L 197.141729 -211.538382
L 194.141583 -211.54336
L 191.141438 -211.546375
L 188.141292 -211.549208
L 185.141147 -211.552039
L 182.141002 -211.554263
L 179.140856 -211.555534
z
" id="m1b81ff993d" style="stroke:#444444;stroke-width:1.5;"/>
    </defs>
    <g clip-path="url(#p4d5b65d3aa)">
     <use style="fill:#d3d3d3;stroke:#444444;stroke-width:1.5;" x="0" xlink:href="#m1b81ff993d" y="262.914375"/>
    </g>
   </g>
   <g id="PolyCollection_2">
    <defs>
     <path d="M 171.791619 -139.068283
L 171.791619 -139.084217
L 174.579123 -139.090355
L 177.366627 -139.09899
L 180.154131 -139.109691
L 182.941636 -139.121267
L 185.72914 -139.132139
L 188.516644 -139.141213
L 191.304148 -139.149025
L 194.091652 -139.158674
L 196.879156 -139.17627
L 199.66666 -139.210939
L 202.454164 -139.274786
L 205.241668 -139.382963
L 208.029172 -139.553326
L 210.816676 -139.804581
L 213.60418 -140.152075
L 216.391684 -140.601899
L 219.179188 -141.145852
L 221.966692 -141.760571
L 224.754196 -142.412708
L 227.541701 -143.06887
L 230.329205 -143.706205
L 233.116709 -144.319016
L 235.904213 -144.918783
L 238.691717 -145.528097
L 241.479221 -146.17109
L 244.266725 -146.863473
L 247.054229 -147.604752
L 249.841733 -148.374499
L 252.629237 -149.133997
L 255.416741 -149.833491
L 258.204245 -150.423588
L 260.991749 -150.867416
L 263.779253 -151.149094
L 266.566757 -151.275036
L 269.354261 -151.267738
L 272.141765 -151.155208
L 274.92927 -150.961008
L 277.716774 -150.698754
L 280.504278 -150.372151
L 283.291782 -149.979189
L 286.079286 -149.51805
L 288.86679 -148.992115
L 291.654294 -148.412006
L 294.441798 -147.794011
L 297.229302 -147.156389
L 300.016806 -146.516357
L 302.80431 -145.889607
L 305.591814 -145.291482
L 308.379318 -144.737214
L 311.166822 -144.23955
L 313.954326 -143.805058
L 316.74183 -143.432204
L 319.529334 -143.113194
L 322.316839 -142.838492
L 325.104343 -142.600644
L 327.891847 -142.394747
L 330.679351 -142.215726
L 333.466855 -142.055134
L 336.254359 -141.900318
L 339.041863 -141.73666
L 341.829367 -141.551345
L 344.616871 -141.33653
L 347.404375 -141.090935
L 350.191879 -140.820161
L 352.979383 -140.536236
L 355.766887 -140.256241
L 358.554391 -139.999593
L 361.341895 -139.78409
L 364.129399 -139.62179
L 366.916904 -139.516173
L 369.704408 -139.461633
L 372.491912 -139.445463
L 375.279416 -139.451549
L 378.06692 -139.464453
L 380.854424 -139.472535
L 383.641928 -139.46924
L 386.429432 -139.4526
L 389.216936 -139.423719
L 392.00444 -139.385299
L 394.791944 -139.340821
L 397.579448 -139.294323
L 400.366952 -139.250251
L 403.154456 -139.212878
L 405.94196 -139.185338
L 408.729464 -139.168732
L 411.516968 -139.16187
L 414.304473 -139.161843
L 417.091977 -139.165114
L 419.879481 -139.168543
L 422.666985 -139.169911
L 425.454489 -139.167933
L 428.241993 -139.162071
L 431.029497 -139.152454
L 433.817001 -139.139903
L 436.604505 -139.125867
L 439.392009 -139.11209
L 442.179513 -139.100106
L 444.967017 -139.090821
L 447.754521 -139.084392
L 447.754521 -139.068108
L 447.754521 -139.068108
L 444.967017 -139.061679
L 442.179513 -139.052394
L 439.392009 -139.04041
L 436.604505 -139.026633
L 433.817001 -139.012597
L 431.029497 -139.000046
L 428.241993 -138.990429
L 425.454489 -138.984567
L 422.666985 -138.982589
L 419.879481 -138.983957
L 417.091977 -138.987386
L 414.304473 -138.990657
L 411.516968 -138.99063
L 408.729464 -138.983768
L 405.94196 -138.967162
L 403.154456 -138.939622
L 400.366952 -138.902249
L 397.579448 -138.858177
L 394.791944 -138.811679
L 392.00444 -138.767201
L 389.216936 -138.728781
L 386.429432 -138.6999
L 383.641928 -138.68326
L 380.854424 -138.679965
L 378.06692 -138.688047
L 375.279416 -138.700951
L 372.491912 -138.707037
L 369.704408 -138.690867
L 366.916904 -138.636327
L 364.129399 -138.53071
L 361.341895 -138.36841
L 358.554391 -138.152907
L 355.766887 -137.896259
L 352.979383 -137.616264
L 350.191879 -137.332339
L 347.404375 -137.061565
L 344.616871 -136.81597
L 341.829367 -136.601155
L 339.041863 -136.41584
L 336.254359 -136.252182
L 333.466855 -136.097366
L 330.679351 -135.936774
L 327.891847 -135.757753
L 325.104343 -135.551856
L 322.316839 -135.314008
L 319.529334 -135.039306
L 316.74183 -134.720296
L 313.954326 -134.347442
L 311.166822 -133.91295
L 308.379318 -133.415286
L 305.591814 -132.861018
L 302.80431 -132.262893
L 300.016806 -131.636143
L 297.229302 -130.996111
L 294.441798 -130.358489
L 291.654294 -129.740494
L 288.86679 -129.160385
L 286.079286 -128.63445
L 283.291782 -128.173311
L 280.504278 -127.780349
L 277.716774 -127.453746
L 274.92927 -127.191492
L 272.141765 -126.997292
L 269.354261 -126.884762
L 266.566757 -126.877464
L 263.779253 -127.003406
L 260.991749 -127.285084
L 258.204245 -127.728912
L 255.416741 -128.319009
L 252.629237 -129.018503
L 249.841733 -129.778001
L 247.054229 -130.547748
L 244.266725 -131.289027
L 241.479221 -131.98141
L 238.691717 -132.624403
L 235.904213 -133.233717
L 233.116709 -133.833484
L 230.329205 -134.446295
L 227.541701 -135.08363
L 224.754196 -135.739792
L 221.966692 -136.391929
L 219.179188 -137.006648
L 216.391684 -137.550601
L 213.60418 -138.000425
L 210.816676 -138.347919
L 208.029172 -138.599174
L 205.241668 -138.769537
L 202.454164 -138.877714
L 199.66666 -138.941561
L 196.879156 -138.97623
L 194.091652 -138.993826
L 191.304148 -139.003475
L 188.516644 -139.011287
L 185.72914 -139.020361
L 182.941636 -139.031233
L 180.154131 -139.042809
L 177.366627 -139.05351
L 174.579123 -139.062145
L 171.791619 -139.068283
z
" id="m9b6c069b31" style="stroke:#444444;stroke-width:1.5;"/>
    </defs>
    <g clip-path="url(#p4d5b65d3aa)">
     <use style="fill:#3d7ca6;stroke:#444444;stroke-width:1.5;" x="0" xlink:href="#m9b6c069b31" y="262.914375"/>
    </g>
   </g>
   <g id="PolyCollection_3">
    <defs>
     <path d="M 204.31977 -66.579857
L 204.31977 -66.612643
L 206.064652 -66.630771
L 207.809534 -66.657654
L 209.554417 -66.688939
L 211.299299 -66.716465
L 213.044181 -66.734443
L 214.789063 -66.747008
L 216.533945 -66.769832
L 218.278827 -66.823108
L 220.023709 -66.922111
L 221.768591 -67.074471
L 223.513474 -67.285922
L 225.258356 -67.567378
L 227.003238 -67.93781
L 228.74812 -68.427778
L 230.493002 -69.089421
L 232.237884 -70.002261
L 233.982766 -71.254048
L 235.727649 -72.897543
L 237.472531 -74.91744
L 239.217413 -77.238772
L 240.962295 -79.765844
L 242.707177 -82.41151
L 244.452059 -85.094458
L 246.196941 -87.718418
L 247.941823 -90.159734
L 249.686706 -92.277304
L 251.431588 -93.940951
L 253.17647 -95.05981
L 254.921352 -95.58825
L 256.666234 -95.506228
L 258.411116 -94.803419
L 260.155998 -93.498692
L 261.900881 -91.681601
L 263.645763 -89.525796
L 265.390645 -87.250576
L 267.135527 -85.060563
L 268.880409 -83.103676
L 270.625291 -81.453808
L 272.370173 -80.102201
L 274.115056 -78.955557
L 275.859938 -77.861882
L 277.60482 -76.676047
L 279.349702 -75.334426
L 281.094584 -73.883012
L 282.839466 -72.437856
L 284.584348 -71.115716
L 286.32923 -69.988339
L 288.074113 -69.078654
L 289.818995 -68.381339
L 291.563877 -67.883397
L 293.308759 -67.571128
L 295.053641 -67.423334
L 296.798523 -67.401792
L 298.543405 -67.452259
L 300.288288 -67.518956
L 302.03317 -67.562358
L 303.778052 -67.567857
L 305.522934 -67.541617
L 307.267816 -67.498497
L 309.012698 -67.449208
L 310.75758 -67.393525
L 312.502462 -67.323698
L 314.247345 -67.234068
L 315.992227 -67.127207
L 317.737109 -67.012631
L 319.481991 -66.903037
L 321.226873 -66.812064
L 322.971755 -66.751485
L 324.716637 -66.72623
L 326.46152 -66.730902
L 328.206402 -66.752297
L 329.951284 -66.776887
L 331.696166 -66.797195
L 333.441048 -66.812324
L 335.18593 -66.824105
L 336.930812 -66.833623
L 338.675694 -66.840239
L 340.420577 -66.841744
L 342.165459 -66.834619
L 343.910341 -66.815179
L 345.655223 -66.782095
L 347.400105 -66.738781
L 349.144987 -66.693079
L 350.889869 -66.653629
L 352.634752 -66.625635
L 354.379634 -66.609436
L 356.124516 -66.602462
L 357.869398 -66.602334
L 359.61428 -66.608801
L 361.359162 -66.623454
L 363.104044 -66.647221
L 364.848927 -66.676896
L 366.593809 -66.703745
L 368.338691 -66.716928
L 370.083573 -66.710351
L 371.828455 -66.68711
L 373.573337 -66.657187
L 375.318219 -66.63067
L 377.063101 -66.612624
L 377.063101 -66.579876
L 377.063101 -66.579876
L 375.318219 -66.56183
L 373.573337 -66.535313
L 371.828455 -66.50539
L 370.083573 -66.482149
L 368.338691 -66.475572
L 366.593809 -66.488755
L 364.848927 -66.515604
L 363.104044 -66.545279
L 361.359162 -66.569046
L 359.61428 -66.583699
L 357.869398 -66.590166
L 356.124516 -66.590038
L 354.379634 -66.583064
L 352.634752 -66.566865
L 350.889869 -66.538871
L 349.144987 -66.499421
L 347.400105 -66.453719
L 345.655223 -66.410405
L 343.910341 -66.377321
L 342.165459 -66.357881
L 340.420577 -66.350756
L 338.675694 -66.352261
L 336.930812 -66.358877
L 335.18593 -66.368395
L 333.441048 -66.380176
L 331.696166 -66.395305
L 329.951284 -66.415613
L 328.206402 -66.440203
L 326.46152 -66.461598
L 324.716637 -66.46627
L 322.971755 -66.441015
L 321.226873 -66.380436
L 319.481991 -66.289463
L 317.737109 -66.179869
L 315.992227 -66.065293
L 314.247345 -65.958432
L 312.502462 -65.868802
L 310.75758 -65.798975
L 309.012698 -65.743292
L 307.267816 -65.694003
L 305.522934 -65.650883
L 303.778052 -65.624643
L 302.03317 -65.630142
L 300.288288 -65.673544
L 298.543405 -65.740241
L 296.798523 -65.790708
L 295.053641 -65.769166
L 293.308759 -65.621372
L 291.563877 -65.309103
L 289.818995 -64.811161
L 288.074113 -64.113846
L 286.32923 -63.204161
L 284.584348 -62.076784
L 282.839466 -60.754644
L 281.094584 -59.309488
L 279.349702 -57.858074
L 277.60482 -56.516453
L 275.859938 -55.330618
L 274.115056 -54.236943
L 272.370173 -53.090299
L 270.625291 -51.738692
L 268.880409 -50.088824
L 267.135527 -48.131937
L 265.390645 -45.941924
L 263.645763 -43.666704
L 261.900881 -41.510899
L 260.155998 -39.693808
L 258.411116 -38.389081
L 256.666234 -37.686272
L 254.921352 -37.60425
L 253.17647 -38.13269
L 251.431588 -39.251549
L 249.686706 -40.915196
L 247.941823 -43.032766
L 246.196941 -45.474082
L 244.452059 -48.098042
L 242.707177 -50.78099
L 240.962295 -53.426656
L 239.217413 -55.953728
L 237.472531 -58.27506
L 235.727649 -60.294957
L 233.982766 -61.938452
L 232.237884 -63.190239
L 230.493002 -64.103079
L 228.74812 -64.764722
L 227.003238 -65.25469
L 225.258356 -65.625122
L 223.513474 -65.906578
L 221.768591 -66.118029
L 220.023709 -66.270389
L 218.278827 -66.369392
L 216.533945 -66.422668
L 214.789063 -66.445492
L 213.044181 -66.458057
L 211.299299 -66.476035
L 209.554417 -66.503561
L 207.809534 -66.534846
L 206.064652 -66.561729
L 204.31977 -66.579857
z
" id="m5e31443b78" style="stroke:#444444;stroke-width:1.5;"/>
    </defs>
    <g clip-path="url(#p4d5b65d3aa)">
     <use style="fill:#b4d4df;stroke:#444444;stroke-width:1.5;" x="0" xlink:href="#m5e31443b78" y="262.914375"/>
    </g>
   </g>
   <g id="matplotlib.axis_1">
    <g id="xtick_1">
     <g id="line2d_1">
      <defs>
       <path d="M 0 0
L 0 3.5
" id="mdd9ef4de4a" style="stroke:#000000;stroke-width:0.8;"/>
      </defs>
      <g>
       <use style="stroke:#000000;stroke-width:0.8;" x="195.326948" xlink:href="#mdd9ef4de4a" y="232.558125"/>
      </g>
     </g>
     <g id="text_1">
      <!-- 0 -->
      <defs>
       <path d="M 31.78125 66.40625
Q 24.171875 66.40625 20.328125 58.90625
Q 16.5 51.421875 16.5 36.375
Q 16.5 21.390625 20.328125 13.890625
Q 24.171875 6.390625 31.78125 6.390625
Q 39.453125 6.390625 43.28125 13.890625
Q 47.125 21.390625 47.125 36.375
Q 47.125 51.421875 43.28125 58.90625
Q 39.453125 66.40625 31.78125 66.40625
z
M 31.78125 74.21875
Q 44.046875 74.21875 50.515625 64.515625
Q 56.984375 54.828125 56.984375 36.375
Q 56.984375 17.96875 50.515625 8.265625
Q 44.046875 -1.421875 31.78125 -1.421875
Q 19.53125 -1.421875 13.0625 8.265625
Q 6.59375 17.96875 6.59375 36.375
Q 6.59375 54.828125 13.0625 64.515625
Q 19.53125 74.21875 31.78125 74.21875
z
" id="DejaVuSans-48"/>
      </defs>
      <g transform="translate(192.145698 247.156563)scale(0.1 -0.1)">
       <use xlink:href="#DejaVuSans-48"/>
      </g>
     </g>
    </g>
    <g id="xtick_2">
     <g id="line2d_2">
      <g>
       <use style="stroke:#000000;stroke-width:0.8;" x="267.206671" xlink:href="#mdd9ef4de4a" y="232.558125"/>
      </g>
     </g>
     <g id="text_2">
      <!-- 1 -->
      <defs>
       <path d="M 12.40625 8.296875
L 28.515625 8.296875
L 28.515625 63.921875
L 10.984375 60.40625
L 10.984375 69.390625
L 28.421875 72.90625
L 38.28125 72.90625
L 38.28125 8.296875
L 54.390625 8.296875
L 54.390625 0
L 12.40625 0
z
" id="DejaVuSans-49"/>
      </defs>
      <g transform="translate(264.025421 247.156563)scale(0.1 -0.1)">
       <use xlink:href="#DejaVuSans-49"/>
      </g>
     </g>
    </g>
    <g id="xtick_3">
     <g id="line2d_3">
      <g>
       <use style="stroke:#000000;stroke-width:0.8;" x="339.086395" xlink:href="#mdd9ef4de4a" y="232.558125"/>
      </g>
     </g>
     <g id="text_3">
      <!-- 2 -->
      <defs>
       <path d="M 19.1875 8.296875
L 53.609375 8.296875
L 53.609375 0
L 7.328125 0
L 7.328125 8.296875
Q 12.9375 14.109375 22.625 23.890625
Q 32.328125 33.6875 34.8125 36.53125
Q 39.546875 41.84375 41.421875 45.53125
Q 43.3125 49.21875 43.3125 52.78125
Q 43.3125 58.59375 39.234375 62.25
Q 35.15625 65.921875 28.609375 65.921875
Q 23.96875 65.921875 18.8125 64.3125
Q 13.671875 62.703125 7.8125 59.421875
L 7.8125 69.390625
Q 13.765625 71.78125 18.9375 73
Q 24.125 74.21875 28.421875 74.21875
Q 39.75 74.21875 46.484375 68.546875
Q 53.21875 62.890625 53.21875 53.421875
Q 53.21875 48.921875 51.53125 44.890625
Q 49.859375 40.875 45.40625 35.40625
Q 44.1875 33.984375 37.640625 27.21875
Q 31.109375 20.453125 19.1875 8.296875
z
" id="DejaVuSans-50"/>
      </defs>
      <g transform="translate(335.905145 247.156563)scale(0.1 -0.1)">
       <use xlink:href="#DejaVuSans-50"/>
      </g>
     </g>
    </g>
    <g id="xtick_4">
     <g id="line2d_4">
      <g>
       <use style="stroke:#000000;stroke-width:0.8;" x="410.966118" xlink:href="#mdd9ef4de4a" y="232.558125"/>
      </g>
     </g>
     <g id="text_4">
      <!-- 3 -->
      <defs>
       <path d="M 40.578125 39.3125
Q 47.65625 37.796875 51.625 33
Q 55.609375 28.21875 55.609375 21.1875
Q 55.609375 10.40625 48.1875 4.484375
Q 40.765625 -1.421875 27.09375 -1.421875
Q 22.515625 -1.421875 17.65625 -0.515625
Q 12.796875 0.390625 7.625 2.203125
L 7.625 11.71875
Q 11.71875 9.328125 16.59375 8.109375
Q 21.484375 6.890625 26.8125 6.890625
Q 36.078125 6.890625 40.9375 10.546875
Q 45.796875 14.203125 45.796875 21.1875
Q 45.796875 27.640625 41.28125 31.265625
Q 36.765625 34.90625 28.71875 34.90625
L 20.21875 34.90625
L 20.21875 43.015625
L 29.109375 43.015625
Q 36.375 43.015625 40.234375 45.921875
Q 44.09375 48.828125 44.09375 54.296875
Q 44.09375 59.90625 40.109375 62.90625
Q 36.140625 65.921875 28.71875 65.921875
Q 24.65625 65.921875 20.015625 65.03125
Q 15.375 64.15625 9.8125 62.3125
L 9.8125 71.09375
Q 15.4375 72.65625 20.34375 73.4375
Q 25.25 74.21875 29.59375 74.21875
Q 40.828125 74.21875 47.359375 69.109375
Q 53.90625 64.015625 53.90625 55.328125
Q 53.90625 49.265625 50.4375 45.09375
Q 46.96875 40.921875 40.578125 39.3125
z
" id="DejaVuSans-51"/>
      </defs>
      <g transform="translate(407.784868 247.156563)scale(0.1 -0.1)">
       <use xlink:href="#DejaVuSans-51"/>
      </g>
     </g>
    </g>
    <g id="xtick_5">
     <g id="line2d_5">
      <g>
       <use style="stroke:#000000;stroke-width:0.8;" x="482.845842" xlink:href="#mdd9ef4de4a" y="232.558125"/>
      </g>
     </g>
     <g id="text_5">
      <!-- 4 -->
      <defs>
       <path d="M 37.796875 64.3125
L 12.890625 25.390625
L 37.796875 25.390625
z
M 35.203125 72.90625
L 47.609375 72.90625
L 47.609375 25.390625
L 58.015625 25.390625
L 58.015625 17.1875
L 47.609375 17.1875
L 47.609375 0
L 37.796875 0
L 37.796875 17.1875
L 4.890625 17.1875
L 4.890625 26.703125
z
" id="DejaVuSans-52"/>
      </defs>
      <g transform="translate(479.664592 247.156563)scale(0.1 -0.1)">
       <use xlink:href="#DejaVuSans-52"/>
      </g>
     </g>
    </g>
    <g id="text_6">
     <!-- log10(average expression) -->
     <defs>
      <path d="M 9.421875 75.984375
L 18.40625 75.984375
L 18.40625 0
L 9.421875 0
z
" id="DejaVuSans-108"/>
      <path d="M 30.609375 48.390625
Q 23.390625 48.390625 19.1875 42.75
Q 14.984375 37.109375 14.984375 27.296875
Q 14.984375 17.484375 19.15625 11.84375
Q 23.34375 6.203125 30.609375 6.203125
Q 37.796875 6.203125 41.984375 11.859375
Q 46.1875 17.53125 46.1875 27.296875
Q 46.1875 37.015625 41.984375 42.703125
Q 37.796875 48.390625 30.609375 48.390625
z
M 30.609375 56
Q 42.328125 56 49.015625 48.375
Q 55.71875 40.765625 55.71875 27.296875
Q 55.71875 13.875 49.015625 6.21875
Q 42.328125 -1.421875 30.609375 -1.421875
Q 18.84375 -1.421875 12.171875 6.21875
Q 5.515625 13.875 5.515625 27.296875
Q 5.515625 40.765625 12.171875 48.375
Q 18.84375 56 30.609375 56
z
" id="DejaVuSans-111"/>
      <path d="M 45.40625 27.984375
Q 45.40625 37.75 41.375 43.109375
Q 37.359375 48.484375 30.078125 48.484375
Q 22.859375 48.484375 18.828125 43.109375
Q 14.796875 37.75 14.796875 27.984375
Q 14.796875 18.265625 18.828125 12.890625
Q 22.859375 7.515625 30.078125 7.515625
Q 37.359375 7.515625 41.375 12.890625
Q 45.40625 18.265625 45.40625 27.984375
z
M 54.390625 6.78125
Q 54.390625 -7.171875 48.1875 -13.984375
Q 42 -20.796875 29.203125 -20.796875
Q 24.46875 -20.796875 20.265625 -20.09375
Q 16.0625 -19.390625 12.109375 -17.921875
L 12.109375 -9.1875
Q 16.0625 -11.328125 19.921875 -12.34375
Q 23.78125 -13.375 27.78125 -13.375
Q 36.625 -13.375 41.015625 -8.765625
Q 45.40625 -4.15625 45.40625 5.171875
L 45.40625 9.625
Q 42.625 4.78125 38.28125 2.390625
Q 33.9375 0 27.875 0
Q 17.828125 0 11.671875 7.65625
Q 5.515625 15.328125 5.515625 27.984375
Q 5.515625 40.671875 11.671875 48.328125
Q 17.828125 56 27.875 56
Q 33.9375 56 38.28125 53.609375
Q 42.625 51.21875 45.40625 46.390625
L 45.40625 54.6875
L 54.390625 54.6875
z
" id="DejaVuSans-103"/>
      <path d="M 31 75.875
Q 24.46875 64.65625 21.28125 53.65625
Q 18.109375 42.671875 18.109375 31.390625
Q 18.109375 20.125 21.3125 9.0625
Q 24.515625 -2 31 -13.1875
L 23.1875 -13.1875
Q 15.875 -1.703125 12.234375 9.375
Q 8.59375 20.453125 8.59375 31.390625
Q 8.59375 42.28125 12.203125 53.3125
Q 15.828125 64.359375 23.1875 75.875
z
" id="DejaVuSans-40"/>
      <path d="M 34.28125 27.484375
Q 23.390625 27.484375 19.1875 25
Q 14.984375 22.515625 14.984375 16.5
Q 14.984375 11.71875 18.140625 8.90625
Q 21.296875 6.109375 26.703125 6.109375
Q 34.1875 6.109375 38.703125 11.40625
Q 43.21875 16.703125 43.21875 25.484375
L 43.21875 27.484375
z
M 52.203125 31.203125
L 52.203125 0
L 43.21875 0
L 43.21875 8.296875
Q 40.140625 3.328125 35.546875 0.953125
Q 30.953125 -1.421875 24.3125 -1.421875
Q 15.921875 -1.421875 10.953125 3.296875
Q 6 8.015625 6 15.921875
Q 6 25.140625 12.171875 29.828125
Q 18.359375 34.515625 30.609375 34.515625
L 43.21875 34.515625
L 43.21875 35.40625
Q 43.21875 41.609375 39.140625 45
Q 35.0625 48.390625 27.6875 48.390625
Q 23 48.390625 18.546875 47.265625
Q 14.109375 46.140625 10.015625 43.890625
L 10.015625 52.203125
Q 14.9375 54.109375 19.578125 55.046875
Q 24.21875 56 28.609375 56
Q 40.484375 56 46.34375 49.84375
Q 52.203125 43.703125 52.203125 31.203125
z
" id="DejaVuSans-97"/>
      <path d="M 2.984375 54.6875
L 12.5 54.6875
L 29.59375 8.796875
L 46.6875 54.6875
L 56.203125 54.6875
L 35.6875 0
L 23.484375 0
z
" id="DejaVuSans-118"/>
      <path d="M 56.203125 29.59375
L 56.203125 25.203125
L 14.890625 25.203125
Q 15.484375 15.921875 20.484375 11.0625
Q 25.484375 6.203125 34.421875 6.203125
Q 39.59375 6.203125 44.453125 7.46875
Q 49.3125 8.734375 54.109375 11.28125
L 54.109375 2.78125
Q 49.265625 0.734375 44.1875 -0.34375
Q 39.109375 -1.421875 33.890625 -1.421875
Q 20.796875 -1.421875 13.15625 6.1875
Q 5.515625 13.8125 5.515625 26.8125
Q 5.515625 40.234375 12.765625 48.109375
Q 20.015625 56 32.328125 56
Q 43.359375 56 49.78125 48.890625
Q 56.203125 41.796875 56.203125 29.59375
z
M 47.21875 32.234375
Q 47.125 39.59375 43.09375 43.984375
Q 39.0625 48.390625 32.421875 48.390625
Q 24.90625 48.390625 20.390625 44.140625
Q 15.875 39.890625 15.1875 32.171875
z
" id="DejaVuSans-101"/>
      <path d="M 41.109375 46.296875
Q 39.59375 47.171875 37.8125 47.578125
Q 36.03125 48 33.890625 48
Q 26.265625 48 22.1875 43.046875
Q 18.109375 38.09375 18.109375 28.8125
L 18.109375 0
L 9.078125 0
L 9.078125 54.6875
L 18.109375 54.6875
L 18.109375 46.1875
Q 20.953125 51.171875 25.484375 53.578125
Q 30.03125 56 36.53125 56
Q 37.453125 56 38.578125 55.875
Q 39.703125 55.765625 41.0625 55.515625
z
" id="DejaVuSans-114"/>
      <path id="DejaVuSans-32"/>
      <path d="M 54.890625 54.6875
L 35.109375 28.078125
L 55.90625 0
L 45.3125 0
L 29.390625 21.484375
L 13.484375 0
L 2.875 0
L 24.125 28.609375
L 4.6875 54.6875
L 15.28125 54.6875
L 29.78125 35.203125
L 44.28125 54.6875
z
" id="DejaVuSans-120"/>
      <path d="M 18.109375 8.203125
L 18.109375 -20.796875
L 9.078125 -20.796875
L 9.078125 54.6875
L 18.109375 54.6875
L 18.109375 46.390625
Q 20.953125 51.265625 25.265625 53.625
Q 29.59375 56 35.59375 56
Q 45.5625 56 51.78125 48.09375
Q 58.015625 40.1875 58.015625 27.296875
Q 58.015625 14.40625 51.78125 6.484375
Q 45.5625 -1.421875 35.59375 -1.421875
Q 29.59375 -1.421875 25.265625 0.953125
Q 20.953125 3.328125 18.109375 8.203125
z
M 48.6875 27.296875
Q 48.6875 37.203125 44.609375 42.84375
Q 40.53125 48.484375 33.40625 48.484375
Q 26.265625 48.484375 22.1875 42.84375
Q 18.109375 37.203125 18.109375 27.296875
Q 18.109375 17.390625 22.1875 11.75
Q 26.265625 6.109375 33.40625 6.109375
Q 40.53125 6.109375 44.609375 11.75
Q 48.6875 17.390625 48.6875 27.296875
z
" id="DejaVuSans-112"/>
      <path d="M 44.28125 53.078125
L 44.28125 44.578125
Q 40.484375 46.53125 36.375 47.5
Q 32.28125 48.484375 27.875 48.484375
Q 21.1875 48.484375 17.84375 46.4375
Q 14.5 44.390625 14.5 40.28125
Q 14.5 37.15625 16.890625 35.375
Q 19.28125 33.59375 26.515625 31.984375
L 29.59375 31.296875
Q 39.15625 29.25 43.1875 25.515625
Q 47.21875 21.78125 47.21875 15.09375
Q 47.21875 7.46875 41.1875 3.015625
Q 35.15625 -1.421875 24.609375 -1.421875
Q 20.21875 -1.421875 15.453125 -0.5625
Q 10.6875 0.296875 5.421875 2
L 5.421875 11.28125
Q 10.40625 8.6875 15.234375 7.390625
Q 20.0625 6.109375 24.8125 6.109375
Q 31.15625 6.109375 34.5625 8.28125
Q 37.984375 10.453125 37.984375 14.40625
Q 37.984375 18.0625 35.515625 20.015625
Q 33.0625 21.96875 24.703125 23.78125
L 21.578125 24.515625
Q 13.234375 26.265625 9.515625 29.90625
Q 5.8125 33.546875 5.8125 39.890625
Q 5.8125 47.609375 11.28125 51.796875
Q 16.75 56 26.8125 56
Q 31.78125 56 36.171875 55.265625
Q 40.578125 54.546875 44.28125 53.078125
z
" id="DejaVuSans-115"/>
      <path d="M 9.421875 54.6875
L 18.40625 54.6875
L 18.40625 0
L 9.421875 0
z
M 9.421875 75.984375
L 18.40625 75.984375
L 18.40625 64.59375
L 9.421875 64.59375
z
" id="DejaVuSans-105"/>
      <path d="M 54.890625 33.015625
L 54.890625 0
L 45.90625 0
L 45.90625 32.71875
Q 45.90625 40.484375 42.875 44.328125
Q 39.84375 48.1875 33.796875 48.1875
Q 26.515625 48.1875 22.3125 43.546875
Q 18.109375 38.921875 18.109375 30.90625
L 18.109375 0
L 9.078125 0
L 9.078125 54.6875
L 18.109375 54.6875
L 18.109375 46.1875
Q 21.34375 51.125 25.703125 53.5625
Q 30.078125 56 35.796875 56
Q 45.21875 56 50.046875 50.171875
Q 54.890625 44.34375 54.890625 33.015625
z
" id="DejaVuSans-110"/>
      <path d="M 8.015625 75.875
L 15.828125 75.875
Q 23.140625 64.359375 26.78125 53.3125
Q 30.421875 42.28125 30.421875 31.390625
Q 30.421875 20.453125 26.78125 9.375
Q 23.140625 -1.703125 15.828125 -13.1875
L 8.015625 -13.1875
Q 14.5 -2 17.703125 9.0625
Q 20.90625 20.125 20.90625 31.390625
Q 20.90625 42.671875 17.703125 53.65625
Q 14.5 64.65625 8.015625 75.875
z
" id="DejaVuSans-41"/>
     </defs>
     <g transform="translate(256.860937 260.834688)scale(0.1 -0.1)">
      <use xlink:href="#DejaVuSans-108"/>
      <use x="27.783203" xlink:href="#DejaVuSans-111"/>
      <use x="88.964844" xlink:href="#DejaVuSans-103"/>
      <use x="152.441406" xlink:href="#DejaVuSans-49"/>
      <use x="216.064453" xlink:href="#DejaVuSans-48"/>
      <use x="279.6875" xlink:href="#DejaVuSans-40"/>
      <use x="318.701172" xlink:href="#DejaVuSans-97"/>
      <use x="379.980469" xlink:href="#DejaVuSans-118"/>
      <use x="439.160156" xlink:href="#DejaVuSans-101"/>
      <use x="500.683594" xlink:href="#DejaVuSans-114"/>
      <use x="541.796875" xlink:href="#DejaVuSans-97"/>
      <use x="603.076172" xlink:href="#DejaVuSans-103"/>
      <use x="666.552734" xlink:href="#DejaVuSans-101"/>
      <use x="728.076172" xlink:href="#DejaVuSans-32"/>
      <use x="759.863281" xlink:href="#DejaVuSans-101"/>
      <use x="821.371094" xlink:href="#DejaVuSans-120"/>
      <use x="880.550781" xlink:href="#DejaVuSans-112"/>
      <use x="944.027344" xlink:href="#DejaVuSans-114"/>
      <use x="985.109375" xlink:href="#DejaVuSans-101"/>
      <use x="1046.632812" xlink:href="#DejaVuSans-115"/>
      <use x="1098.732422" xlink:href="#DejaVuSans-115"/>
      <use x="1150.832031" xlink:href="#DejaVuSans-105"/>
      <use x="1178.615234" xlink:href="#DejaVuSans-111"/>
      <use x="1239.796875" xlink:href="#DejaVuSans-110"/>
      <use x="1303.175781" xlink:href="#DejaVuSans-41"/>
     </g>
    </g>
   </g>
   <g id="matplotlib.axis_2">
    <g id="ytick_1">
     <g id="line2d_6">
      <defs>
       <path d="M 0 0
L -3.5 0
" id="mdfc2bb552b" style="stroke:#000000;stroke-width:0.8;"/>
      </defs>
      <g>
       <use style="stroke:#000000;stroke-width:0.8;" x="156.573438" xlink:href="#mdfc2bb552b" y="51.358125"/>
      </g>
     </g>
     <g id="text_7">
      <!-- all genes -->
      <g transform="translate(104.509375 55.157344)scale(0.1 -0.1)">
       <use xlink:href="#DejaVuSans-97"/>
       <use x="61.279297" xlink:href="#DejaVuSans-108"/>
       <use x="89.0625" xlink:href="#DejaVuSans-108"/>
       <use x="116.845703" xlink:href="#DejaVuSans-32"/>
       <use x="148.632812" xlink:href="#DejaVuSans-103"/>
       <use x="212.109375" xlink:href="#DejaVuSans-101"/>
       <use x="273.632812" xlink:href="#DejaVuSans-110"/>
       <use x="337.011719" xlink:href="#DejaVuSans-101"/>
       <use x="398.535156" xlink:href="#DejaVuSans-115"/>
      </g>
     </g>
    </g>
    <g id="ytick_2">
     <g id="line2d_7">
      <g>
       <use style="stroke:#000000;stroke-width:0.8;" x="156.573438" xlink:href="#mdfc2bb552b" y="123.838125"/>
      </g>
     </g>
     <g id="text_8">
      <!-- common in RNAseq and array -->
      <defs>
       <path d="M 48.78125 52.59375
L 48.78125 44.1875
Q 44.96875 46.296875 41.140625 47.34375
Q 37.3125 48.390625 33.40625 48.390625
Q 24.65625 48.390625 19.8125 42.84375
Q 14.984375 37.3125 14.984375 27.296875
Q 14.984375 17.28125 19.8125 11.734375
Q 24.65625 6.203125 33.40625 6.203125
Q 37.3125 6.203125 41.140625 7.25
Q 44.96875 8.296875 48.78125 10.40625
L 48.78125 2.09375
Q 45.015625 0.34375 40.984375 -0.53125
Q 36.96875 -1.421875 32.421875 -1.421875
Q 20.0625 -1.421875 12.78125 6.34375
Q 5.515625 14.109375 5.515625 27.296875
Q 5.515625 40.671875 12.859375 48.328125
Q 20.21875 56 33.015625 56
Q 37.15625 56 41.109375 55.140625
Q 45.0625 54.296875 48.78125 52.59375
z
" id="DejaVuSans-99"/>
       <path d="M 52 44.1875
Q 55.375 50.25 60.0625 53.125
Q 64.75 56 71.09375 56
Q 79.640625 56 84.28125 50.015625
Q 88.921875 44.046875 88.921875 33.015625
L 88.921875 0
L 79.890625 0
L 79.890625 32.71875
Q 79.890625 40.578125 77.09375 44.375
Q 74.3125 48.1875 68.609375 48.1875
Q 61.625 48.1875 57.5625 43.546875
Q 53.515625 38.921875 53.515625 30.90625
L 53.515625 0
L 44.484375 0
L 44.484375 32.71875
Q 44.484375 40.625 41.703125 44.40625
Q 38.921875 48.1875 33.109375 48.1875
Q 26.21875 48.1875 22.15625 43.53125
Q 18.109375 38.875 18.109375 30.90625
L 18.109375 0
L 9.078125 0
L 9.078125 54.6875
L 18.109375 54.6875
L 18.109375 46.1875
Q 21.1875 51.21875 25.484375 53.609375
Q 29.78125 56 35.6875 56
Q 41.65625 56 45.828125 52.96875
Q 50 49.953125 52 44.1875
z
" id="DejaVuSans-109"/>
       <path d="M 44.390625 34.1875
Q 47.5625 33.109375 50.5625 29.59375
Q 53.5625 26.078125 56.59375 19.921875
L 66.609375 0
L 56 0
L 46.6875 18.703125
Q 43.0625 26.03125 39.671875 28.421875
Q 36.28125 30.8125 30.421875 30.8125
L 19.671875 30.8125
L 19.671875 0
L 9.8125 0
L 9.8125 72.90625
L 32.078125 72.90625
Q 44.578125 72.90625 50.734375 67.671875
Q 56.890625 62.453125 56.890625 51.90625
Q 56.890625 45.015625 53.6875 40.46875
Q 50.484375 35.9375 44.390625 34.1875
z
M 19.671875 64.796875
L 19.671875 38.921875
L 32.078125 38.921875
Q 39.203125 38.921875 42.84375 42.21875
Q 46.484375 45.515625 46.484375 51.90625
Q 46.484375 58.296875 42.84375 61.546875
Q 39.203125 64.796875 32.078125 64.796875
z
" id="DejaVuSans-82"/>
       <path d="M 9.8125 72.90625
L 23.09375 72.90625
L 55.421875 11.921875
L 55.421875 72.90625
L 64.984375 72.90625
L 64.984375 0
L 51.703125 0
L 19.390625 60.984375
L 19.390625 0
L 9.8125 0
z
" id="DejaVuSans-78"/>
       <path d="M 34.1875 63.1875
L 20.796875 26.90625
L 47.609375 26.90625
z
M 28.609375 72.90625
L 39.796875 72.90625
L 67.578125 0
L 57.328125 0
L 50.6875 18.703125
L 17.828125 18.703125
L 11.1875 0
L 0.78125 0
z
" id="DejaVuSans-65"/>
       <path d="M 14.796875 27.296875
Q 14.796875 17.390625 18.875 11.75
Q 22.953125 6.109375 30.078125 6.109375
Q 37.203125 6.109375 41.296875 11.75
Q 45.40625 17.390625 45.40625 27.296875
Q 45.40625 37.203125 41.296875 42.84375
Q 37.203125 48.484375 30.078125 48.484375
Q 22.953125 48.484375 18.875 42.84375
Q 14.796875 37.203125 14.796875 27.296875
z
M 45.40625 8.203125
Q 42.578125 3.328125 38.25 0.953125
Q 33.9375 -1.421875 27.875 -1.421875
Q 17.96875 -1.421875 11.734375 6.484375
Q 5.515625 14.40625 5.515625 27.296875
Q 5.515625 40.1875 11.734375 48.09375
Q 17.96875 56 27.875 56
Q 33.9375 56 38.25 53.625
Q 42.578125 51.265625 45.40625 46.390625
L 45.40625 54.6875
L 54.390625 54.6875
L 54.390625 -20.796875
L 45.40625 -20.796875
z
" id="DejaVuSans-113"/>
       <path d="M 45.40625 46.390625
L 45.40625 75.984375
L 54.390625 75.984375
L 54.390625 0
L 45.40625 0
L 45.40625 8.203125
Q 42.578125 3.328125 38.25 0.953125
Q 33.9375 -1.421875 27.875 -1.421875
Q 17.96875 -1.421875 11.734375 6.484375
Q 5.515625 14.40625 5.515625 27.296875
Q 5.515625 40.1875 11.734375 48.09375
Q 17.96875 56 27.875 56
Q 33.9375 56 38.25 53.625
Q 42.578125 51.265625 45.40625 46.390625
z
M 14.796875 27.296875
Q 14.796875 17.390625 18.875 11.75
Q 22.953125 6.109375 30.078125 6.109375
Q 37.203125 6.109375 41.296875 11.75
Q 45.40625 17.390625 45.40625 27.296875
Q 45.40625 37.203125 41.296875 42.84375
Q 37.203125 48.484375 30.078125 48.484375
Q 22.953125 48.484375 18.875 42.84375
Q 14.796875 37.203125 14.796875 27.296875
z
" id="DejaVuSans-100"/>
       <path d="M 32.171875 -5.078125
Q 28.375 -14.84375 24.75 -17.8125
Q 21.140625 -20.796875 15.09375 -20.796875
L 7.90625 -20.796875
L 7.90625 -13.28125
L 13.1875 -13.28125
Q 16.890625 -13.28125 18.9375 -11.515625
Q 21 -9.765625 23.484375 -3.21875
L 25.09375 0.875
L 2.984375 54.6875
L 12.5 54.6875
L 29.59375 11.921875
L 46.6875 54.6875
L 56.203125 54.6875
z
" id="DejaVuSans-121"/>
      </defs>
      <g transform="translate(0 127.637344)scale(0.1 -0.1)">
       <use xlink:href="#DejaVuSans-99"/>
       <use x="54.980469" xlink:href="#DejaVuSans-111"/>
       <use x="116.162109" xlink:href="#DejaVuSans-109"/>
       <use x="213.574219" xlink:href="#DejaVuSans-109"/>
       <use x="310.986328" xlink:href="#DejaVuSans-111"/>
       <use x="372.167969" xlink:href="#DejaVuSans-110"/>
       <use x="435.546875" xlink:href="#DejaVuSans-32"/>
       <use x="467.333984" xlink:href="#DejaVuSans-105"/>
       <use x="495.117188" xlink:href="#DejaVuSans-110"/>
       <use x="558.496094" xlink:href="#DejaVuSans-32"/>
       <use x="590.283203" xlink:href="#DejaVuSans-82"/>
       <use x="659.765625" xlink:href="#DejaVuSans-78"/>
       <use x="734.570312" xlink:href="#DejaVuSans-65"/>
       <use x="802.978516" xlink:href="#DejaVuSans-115"/>
       <use x="855.078125" xlink:href="#DejaVuSans-101"/>
       <use x="916.601562" xlink:href="#DejaVuSans-113"/>
       <use x="980.078125" xlink:href="#DejaVuSans-32"/>
       <use x="1011.865234" xlink:href="#DejaVuSans-97"/>
       <use x="1073.144531" xlink:href="#DejaVuSans-110"/>
       <use x="1136.523438" xlink:href="#DejaVuSans-100"/>
       <use x="1200" xlink:href="#DejaVuSans-32"/>
       <use x="1231.787109" xlink:href="#DejaVuSans-97"/>
       <use x="1293.066406" xlink:href="#DejaVuSans-114"/>
       <use x="1334.164062" xlink:href="#DejaVuSans-114"/>
       <use x="1375.277344" xlink:href="#DejaVuSans-97"/>
       <use x="1436.556641" xlink:href="#DejaVuSans-121"/>
      </g>
     </g>
    </g>
    <g id="ytick_3">
     <g id="line2d_8">
      <g>
       <use style="stroke:#000000;stroke-width:0.8;" x="156.573438" xlink:href="#mdfc2bb552b" y="196.318125"/>
      </g>
     </g>
     <g id="text_9">
      <!-- common only in RNAseq -->
      <g transform="translate(27.234375 200.117344)scale(0.1 -0.1)">
       <use xlink:href="#DejaVuSans-99"/>
       <use x="54.980469" xlink:href="#DejaVuSans-111"/>
       <use x="116.162109" xlink:href="#DejaVuSans-109"/>
       <use x="213.574219" xlink:href="#DejaVuSans-109"/>
       <use x="310.986328" xlink:href="#DejaVuSans-111"/>
       <use x="372.167969" xlink:href="#DejaVuSans-110"/>
       <use x="435.546875" xlink:href="#DejaVuSans-32"/>
       <use x="467.333984" xlink:href="#DejaVuSans-111"/>
       <use x="528.515625" xlink:href="#DejaVuSans-110"/>
       <use x="591.894531" xlink:href="#DejaVuSans-108"/>
       <use x="619.677734" xlink:href="#DejaVuSans-121"/>
       <use x="678.857422" xlink:href="#DejaVuSans-32"/>
       <use x="710.644531" xlink:href="#DejaVuSans-105"/>
       <use x="738.427734" xlink:href="#DejaVuSans-110"/>
       <use x="801.806641" xlink:href="#DejaVuSans-32"/>
       <use x="833.59375" xlink:href="#DejaVuSans-82"/>
       <use x="903.076172" xlink:href="#DejaVuSans-78"/>
       <use x="977.880859" xlink:href="#DejaVuSans-65"/>
       <use x="1046.289062" xlink:href="#DejaVuSans-115"/>
       <use x="1098.388672" xlink:href="#DejaVuSans-101"/>
       <use x="1159.912109" xlink:href="#DejaVuSans-113"/>
      </g>
     </g>
    </g>
   </g>
   <g id="line2d_9">
    <path clip-path="url(#p4d5b65d3aa)" d="M 189.852234 51.358125
L 386.148027 51.358125
" style="fill:none;stroke:#444444;stroke-linecap:square;stroke-width:1.5;"/>
   </g>
   <g id="line2d_10">
    <path clip-path="url(#p4d5b65d3aa)" d="M 257.439095 51.358125
L 308.928849 51.358125
" style="fill:none;stroke:#444444;stroke-linecap:square;stroke-width:4.5;"/>
   </g>
   <g id="line2d_11">
    <path clip-path="url(#p4d5b65d3aa)" d="M 209.689466 123.838125
L 359.46754 123.838125
" style="fill:none;stroke:#444444;stroke-linecap:square;stroke-width:1.5;"/>
   </g>
   <g id="line2d_12">
    <path clip-path="url(#p4d5b65d3aa)" d="M 255.893664 123.838125
L 297.560249 123.838125
" style="fill:none;stroke:#444444;stroke-linecap:square;stroke-width:4.5;"/>
   </g>
   <g id="line2d_13">
    <path clip-path="url(#p4d5b65d3aa)" d="M 224.298611 196.318125
L 291.605527 196.318125
" style="fill:none;stroke:#444444;stroke-linecap:square;stroke-width:1.5;"/>
   </g>
   <g id="line2d_14">
    <path clip-path="url(#p4d5b65d3aa)" d="M 249.426747 196.318125
L 266.535152 196.318125
" style="fill:none;stroke:#444444;stroke-linecap:square;stroke-width:4.5;"/>
   </g>
   <g id="patch_3">
    <path d="M 156.573438 232.558125
L 156.573438 15.118125
" style="fill:none;stroke:#000000;stroke-linecap:square;stroke-linejoin:miter;stroke-width:0.8;"/>
   </g>
   <g id="patch_4">
    <path d="M 491.373437 232.558125
L 491.373437 15.118125
" style="fill:none;stroke:#000000;stroke-linecap:square;stroke-linejoin:miter;stroke-width:0.8;"/>
   </g>
   <g id="patch_5">
    <path d="M 156.573438 232.558125
L 491.373437 232.558125
" style="fill:none;stroke:#000000;stroke-linecap:square;stroke-linejoin:miter;stroke-width:0.8;"/>
   </g>
   <g id="patch_6">
    <path d="M 156.573438 15.118125
L 491.373437 15.118125
" style="fill:none;stroke:#000000;stroke-linecap:square;stroke-linejoin:miter;stroke-width:0.8;"/>
   </g>
   <g id="PathCollection_1">
    <defs>
     <path d="M 0 1.5
C 0.397805 1.5 0.77937 1.341951 1.06066 1.06066
C 1.341951 0.77937 1.5 0.397805 1.5 0
C 1.5 -0.397805 1.341951 -0.77937 1.06066 -1.06066
C 0.77937 -1.341951 0.397805 -1.5 0 -1.5
C -0.397805 -1.5 -0.77937 -1.341951 -1.06066 -1.06066
C -1.341951 -0.77937 -1.5 -0.397805 -1.5 0
C -1.5 0.397805 -1.341951 0.77937 -1.06066 1.06066
C -0.77937 1.341951 -0.397805 1.5 0 1.5
z
" id="m27529a1e16" style="stroke:#444444;"/>
    </defs>
    <g clip-path="url(#p4d5b65d3aa)">
     <use style="fill:#ffffff;stroke:#444444;" x="277.99955" xlink:href="#m27529a1e16" y="51.358125"/>
    </g>
   </g>
   <g id="PathCollection_2">
    <g clip-path="url(#p4d5b65d3aa)">
     <use style="fill:#ffffff;stroke:#444444;" x="274.945357" xlink:href="#m27529a1e16" y="123.838125"/>
    </g>
   </g>
   <g id="PathCollection_3">
    <g clip-path="url(#p4d5b65d3aa)">
     <use style="fill:#ffffff;stroke:#444444;" x="257.51971" xlink:href="#m27529a1e16" y="196.318125"/>
    </g>
   </g>
   <g id="text_10">
    <!-- Average array (Crow et. al.) expression -->
    <defs>
     <path d="M 64.40625 67.28125
L 64.40625 56.890625
Q 59.421875 61.53125 53.78125 63.8125
Q 48.140625 66.109375 41.796875 66.109375
Q 29.296875 66.109375 22.65625 58.46875
Q 16.015625 50.828125 16.015625 36.375
Q 16.015625 21.96875 22.65625 14.328125
Q 29.296875 6.6875 41.796875 6.6875
Q 48.140625 6.6875 53.78125 8.984375
Q 59.421875 11.28125 64.40625 15.921875
L 64.40625 5.609375
Q 59.234375 2.09375 53.4375 0.328125
Q 47.65625 -1.421875 41.21875 -1.421875
Q 24.65625 -1.421875 15.125 8.703125
Q 5.609375 18.84375 5.609375 36.375
Q 5.609375 53.953125 15.125 64.078125
Q 24.65625 74.21875 41.21875 74.21875
Q 47.75 74.21875 53.53125 72.484375
Q 59.328125 70.75 64.40625 67.28125
z
" id="DejaVuSans-67"/>
     <path d="M 4.203125 54.6875
L 13.1875 54.6875
L 24.421875 12.015625
L 35.59375 54.6875
L 46.1875 54.6875
L 57.421875 12.015625
L 68.609375 54.6875
L 77.59375 54.6875
L 63.28125 0
L 52.6875 0
L 40.921875 44.828125
L 29.109375 0
L 18.5 0
z
" id="DejaVuSans-119"/>
     <path d="M 18.3125 70.21875
L 18.3125 54.6875
L 36.8125 54.6875
L 36.8125 47.703125
L 18.3125 47.703125
L 18.3125 18.015625
Q 18.3125 11.328125 20.140625 9.421875
Q 21.96875 7.515625 27.59375 7.515625
L 36.8125 7.515625
L 36.8125 0
L 27.59375 0
Q 17.1875 0 13.234375 3.875
Q 9.28125 7.765625 9.28125 18.015625
L 9.28125 47.703125
L 2.6875 47.703125
L 2.6875 54.6875
L 9.28125 54.6875
L 9.28125 70.21875
z
" id="DejaVuSans-116"/>
     <path d="M 10.6875 12.40625
L 21 12.40625
L 21 0
L 10.6875 0
z
" id="DejaVuSans-46"/>
    </defs>
    <g transform="translate(205.899063 9.118125)scale(0.12 -0.12)">
     <use xlink:href="#DejaVuSans-65"/>
     <use x="68.330078" xlink:href="#DejaVuSans-118"/>
     <use x="127.509766" xlink:href="#DejaVuSans-101"/>
     <use x="189.033203" xlink:href="#DejaVuSans-114"/>
     <use x="230.146484" xlink:href="#DejaVuSans-97"/>
     <use x="291.425781" xlink:href="#DejaVuSans-103"/>
     <use x="354.902344" xlink:href="#DejaVuSans-101"/>
     <use x="416.425781" xlink:href="#DejaVuSans-32"/>
     <use x="448.212891" xlink:href="#DejaVuSans-97"/>
     <use x="509.492188" xlink:href="#DejaVuSans-114"/>
     <use x="550.589844" xlink:href="#DejaVuSans-114"/>
     <use x="591.703125" xlink:href="#DejaVuSans-97"/>
     <use x="652.982422" xlink:href="#DejaVuSans-121"/>
     <use x="712.162109" xlink:href="#DejaVuSans-32"/>
     <use x="743.949219" xlink:href="#DejaVuSans-40"/>
     <use x="782.962891" xlink:href="#DejaVuSans-67"/>
     <use x="852.787109" xlink:href="#DejaVuSans-114"/>
     <use x="893.869141" xlink:href="#DejaVuSans-111"/>
     <use x="955.050781" xlink:href="#DejaVuSans-119"/>
     <use x="1036.837891" xlink:href="#DejaVuSans-32"/>
     <use x="1068.625" xlink:href="#DejaVuSans-101"/>
     <use x="1130.148438" xlink:href="#DejaVuSans-116"/>
     <use x="1169.357422" xlink:href="#DejaVuSans-46"/>
     <use x="1201.144531" xlink:href="#DejaVuSans-32"/>
     <use x="1232.931641" xlink:href="#DejaVuSans-97"/>
     <use x="1294.210938" xlink:href="#DejaVuSans-108"/>
     <use x="1321.994141" xlink:href="#DejaVuSans-46"/>
     <use x="1353.78125" xlink:href="#DejaVuSans-41"/>
     <use x="1392.794922" xlink:href="#DejaVuSans-32"/>
     <use x="1424.582031" xlink:href="#DejaVuSans-101"/>
     <use x="1486.089844" xlink:href="#DejaVuSans-120"/>
     <use x="1545.269531" xlink:href="#DejaVuSans-112"/>
     <use x="1608.746094" xlink:href="#DejaVuSans-114"/>
     <use x="1649.828125" xlink:href="#DejaVuSans-101"/>
     <use x="1711.351562" xlink:href="#DejaVuSans-115"/>
     <use x="1763.451172" xlink:href="#DejaVuSans-115"/>
     <use x="1815.550781" xlink:href="#DejaVuSans-105"/>
     <use x="1843.333984" xlink:href="#DejaVuSans-111"/>
     <use x="1904.515625" xlink:href="#DejaVuSans-110"/>
    </g>
   </g>
  </g>
 </g>
 <defs>
  <clipPath id="p4d5b65d3aa">
   <rect height="217.44" width="334.8" x="156.573438" y="15.118125"/>
  </clipPath>
 </defs>
</svg>
