<?xml version="1.0" encoding="utf-8" standalone="no"?>
<!DOCTYPE svg PUBLIC "-//W3C//DTD SVG 1.1//EN"
  "http://www.w3.org/Graphics/SVG/1.1/DTD/svg11.dtd">
<!-- Created with matplotlib (https://matplotlib.org/) -->
<svg height="275.250937pt" version="1.1" viewBox="0 0 593.204062 275.250937" width="593.204062pt" xmlns="http://www.w3.org/2000/svg" xmlns:xlink="http://www.w3.org/1999/xlink">
 <defs>
  <style type="text/css">
*{stroke-linecap:butt;stroke-linejoin:round;}
  </style>
 </defs>
 <g id="figure_1">
  <g id="patch_1">
   <path d="M 0 275.250937
L 593.204062 275.250937
L 593.204062 0
L 0 0
z
" style="fill:none;"/>
  </g>
  <g id="axes_1">
   <g id="patch_2">
    <path d="M 248.6925 237.117187
L 583.4925 237.117187
L 583.4925 19.677187
L 248.6925 19.677187
z
" style="fill:none;"/>
   </g>
   <g id="PolyCollection_1">
    <defs>
     <path d="M 300.574246 -219.333034
L 300.574246 -219.334466
L 303.36905 -219.335737
L 306.163854 -219.337961
L 308.958658 -219.340792
L 311.753462 -219.343625
L 314.548266 -219.34664
L 317.34307 -219.351618
L 320.137874 -219.36185
L 322.932678 -219.382159
L 325.727482 -219.420685
L 328.522286 -219.491315
L 331.317091 -219.611469
L 334.111895 -219.793117
L 336.906699 -220.035577
L 339.701503 -220.331135
L 342.496307 -220.682136
L 345.291111 -221.11744
L 348.085915 -221.698603
L 350.880719 -222.51121
L 353.675523 -223.629468
L 356.470327 -225.052228
L 359.265131 -226.664714
L 362.059935 -228.283089
L 364.854739 -229.735886
L 367.649543 -230.898258
L 370.444347 -231.689334
L 373.239151 -232.076843
L 376.033955 -232.078284
L 378.828759 -231.758781
L 381.623563 -231.233257
L 384.418367 -230.628505
L 387.213171 -230.014768
L 390.007975 -229.405446
L 392.802779 -228.821067
L 395.597583 -228.302387
L 398.392387 -227.867639
L 401.187191 -227.500116
L 403.981995 -227.175539
L 406.776799 -226.888503
L 409.571603 -226.653605
L 412.366407 -226.478103
L 415.161211 -226.342956
L 417.956015 -226.219995
L 420.750819 -226.088284
L 423.545623 -225.921229
L 426.340427 -225.678552
L 429.135231 -225.337532
L 431.930035 -224.929216
L 434.724839 -224.516025
L 437.519643 -224.132474
L 440.314447 -223.770691
L 443.109251 -223.413633
L 445.904055 -223.056463
L 448.698859 -222.704493
L 451.493663 -222.369948
L 454.288467 -222.068177
L 457.083271 -221.809851
L 459.878075 -221.594765
L 462.672879 -221.408723
L 465.467683 -221.229462
L 468.262487 -221.045236
L 471.057291 -220.863985
L 473.852095 -220.696108
L 476.646899 -220.537779
L 479.441703 -220.381438
L 482.236507 -220.231928
L 485.031311 -220.102508
L 487.826115 -220.001782
L 490.620919 -219.927524
L 493.415723 -219.86924
L 496.210527 -219.817148
L 499.005331 -219.768306
L 501.800135 -219.723189
L 504.594939 -219.680156
L 507.389743 -219.636473
L 510.184547 -219.593547
L 512.979351 -219.557082
L 515.774155 -219.529973
L 518.568959 -219.507675
L 521.363763 -219.482842
L 524.158567 -219.453147
L 526.953371 -219.423031
L 529.748175 -219.398485
L 532.542979 -219.381436
L 535.337783 -219.36924
L 538.132587 -219.358557
L 540.927391 -219.348674
L 543.722195 -219.341003
L 546.516999 -219.336494
L 549.311803 -219.334566
L 552.106607 -219.33408
L 554.901411 -219.334448
L 557.696215 -219.335827
L 560.491019 -219.33846
L 563.285823 -219.341616
L 566.080627 -219.343414
L 568.875431 -219.342482
L 571.670235 -219.339553
L 574.465039 -219.336586
L 577.259843 -219.334769
L 577.259843 -219.332731
L 577.259843 -219.332731
L 574.465039 -219.330914
L 571.670235 -219.327947
L 568.875431 -219.325018
L 566.080627 -219.324086
L 563.285823 -219.325884
L 560.491019 -219.32904
L 557.696215 -219.331673
L 554.901411 -219.333052
L 552.106607 -219.33342
L 549.311803 -219.332934
L 546.516999 -219.331006
L 543.722195 -219.326497
L 540.927391 -219.318826
L 538.132587 -219.308943
L 535.337783 -219.29826
L 532.542979 -219.286064
L 529.748175 -219.269015
L 526.953371 -219.244469
L 524.158567 -219.214353
L 521.363763 -219.184658
L 518.568959 -219.159825
L 515.774155 -219.137527
L 512.979351 -219.110418
L 510.184547 -219.073953
L 507.389743 -219.031027
L 504.594939 -218.987344
L 501.800135 -218.944311
L 499.005331 -218.899194
L 496.210527 -218.850352
L 493.415723 -218.79826
L 490.620919 -218.739976
L 487.826115 -218.665718
L 485.031311 -218.564992
L 482.236507 -218.435572
L 479.441703 -218.286062
L 476.646899 -218.129721
L 473.852095 -217.971392
L 471.057291 -217.803515
L 468.262487 -217.622264
L 465.467683 -217.438038
L 462.672879 -217.258777
L 459.878075 -217.072735
L 457.083271 -216.857649
L 454.288467 -216.599323
L 451.493663 -216.297552
L 448.698859 -215.963007
L 445.904055 -215.611037
L 443.109251 -215.253867
L 440.314447 -214.896809
L 437.519643 -214.535026
L 434.724839 -214.151475
L 431.930035 -213.738284
L 429.135231 -213.329968
L 426.340427 -212.988948
L 423.545623 -212.746271
L 420.750819 -212.579216
L 417.956015 -212.447505
L 415.161211 -212.324544
L 412.366407 -212.189397
L 409.571603 -212.013895
L 406.776799 -211.778997
L 403.981995 -211.491961
L 401.187191 -211.167384
L 398.392387 -210.799861
L 395.597583 -210.365113
L 392.802779 -209.846433
L 390.007975 -209.262054
L 387.213171 -208.652732
L 384.418367 -208.038995
L 381.623563 -207.434243
L 378.828759 -206.908719
L 376.033955 -206.589216
L 373.239151 -206.590657
L 370.444347 -206.978166
L 367.649543 -207.769242
L 364.854739 -208.931614
L 362.059935 -210.384411
L 359.265131 -212.002786
L 356.470327 -213.615272
L 353.675523 -215.038032
L 350.880719 -216.15629
L 348.085915 -216.968897
L 345.291111 -217.55006
L 342.496307 -217.985364
L 339.701503 -218.336365
L 336.906699 -218.631923
L 334.111895 -218.874383
L 331.317091 -219.056031
L 328.522286 -219.176185
L 325.727482 -219.246815
L 322.932678 -219.285341
L 320.137874 -219.30565
L 317.34307 -219.315882
L 314.548266 -219.32086
L 311.753462 -219.323875
L 308.958658 -219.326708
L 306.163854 -219.329539
L 303.36905 -219.331763
L 300.574246 -219.333034
z
" id="mf41f15ba4f" style="stroke:#444444;stroke-width:1.5;"/>
    </defs>
    <g clip-path="url(#p2682b7f3bb)">
     <use style="fill:#d3d3d3;stroke:#444444;stroke-width:1.5;" x="0" xlink:href="#mf41f15ba4f" y="275.250937"/>
    </g>
   </g>
   <g id="PolyCollection_2">
    <defs>
     <path d="M 293.728019 -146.845783
L 293.728019 -146.861717
L 296.324736 -146.867855
L 298.921453 -146.87649
L 301.518169 -146.887191
L 304.114886 -146.898767
L 306.711603 -146.909639
L 309.308319 -146.918713
L 311.905036 -146.926525
L 314.501752 -146.936174
L 317.098469 -146.95377
L 319.695186 -146.988439
L 322.291902 -147.052286
L 324.888619 -147.160463
L 327.485335 -147.330826
L 330.082052 -147.582081
L 332.678769 -147.929575
L 335.275485 -148.379399
L 337.872202 -148.923352
L 340.468918 -149.538071
L 343.065635 -150.190208
L 345.662352 -150.84637
L 348.259068 -151.483705
L 350.855785 -152.096516
L 353.452502 -152.696283
L 356.049218 -153.305597
L 358.645935 -153.94859
L 361.242651 -154.640973
L 363.839368 -155.382252
L 366.436085 -156.151999
L 369.032801 -156.911497
L 371.629518 -157.610991
L 374.226234 -158.201088
L 376.822951 -158.644916
L 379.419668 -158.926594
L 382.016384 -159.052536
L 384.613101 -159.045238
L 387.209817 -158.932708
L 389.806534 -158.738508
L 392.403251 -158.476254
L 394.999967 -158.149651
L 397.596684 -157.756689
L 400.193401 -157.29555
L 402.790117 -156.769615
L 405.386834 -156.189506
L 407.98355 -155.571511
L 410.580267 -154.933889
L 413.176984 -154.293857
L 415.7737 -153.667107
L 418.370417 -153.068982
L 420.967133 -152.514714
L 423.56385 -152.01705
L 426.160567 -151.582558
L 428.757283 -151.209704
L 431.354 -150.890694
L 433.950716 -150.615992
L 436.547433 -150.378144
L 439.14415 -150.172247
L 441.740866 -149.993226
L 444.337583 -149.832634
L 446.9343 -149.677818
L 449.531016 -149.51416
L 452.127733 -149.328845
L 454.724449 -149.11403
L 457.321166 -148.868435
L 459.917883 -148.597661
L 462.514599 -148.313736
L 465.111316 -148.033741
L 467.708032 -147.777093
L 470.304749 -147.56159
L 472.901466 -147.39929
L 475.498182 -147.293673
L 478.094899 -147.239133
L 480.691615 -147.222963
L 483.288332 -147.229049
L 485.885049 -147.241953
L 488.481765 -147.250035
L 491.078482 -147.24674
L 493.675199 -147.2301
L 496.271915 -147.201219
L 498.868632 -147.162799
L 501.465348 -147.118321
L 504.062065 -147.071823
L 506.658782 -147.027751
L 509.255498 -146.990378
L 511.852215 -146.962838
L 514.448931 -146.946232
L 517.045648 -146.93937
L 519.642365 -146.939343
L 522.239081 -146.942614
L 524.835798 -146.946043
L 527.432514 -146.947411
L 530.029231 -146.945433
L 532.625948 -146.939571
L 535.222664 -146.929954
L 537.819381 -146.917403
L 540.416098 -146.903367
L 543.012814 -146.88959
L 545.609531 -146.877606
L 548.206247 -146.868321
L 550.802964 -146.861892
L 550.802964 -146.845608
L 550.802964 -146.845608
L 548.206247 -146.839179
L 545.609531 -146.829894
L 543.012814 -146.81791
L 540.416098 -146.804133
L 537.819381 -146.790097
L 535.222664 -146.777546
L 532.625948 -146.767929
L 530.029231 -146.762067
L 527.432514 -146.760089
L 524.835798 -146.761457
L 522.239081 -146.764886
L 519.642365 -146.768157
L 517.045648 -146.76813
L 514.448931 -146.761268
L 511.852215 -146.744662
L 509.255498 -146.717122
L 506.658782 -146.679749
L 504.062065 -146.635677
L 501.465348 -146.589179
L 498.868632 -146.544701
L 496.271915 -146.506281
L 493.675199 -146.4774
L 491.078482 -146.46076
L 488.481765 -146.457465
L 485.885049 -146.465547
L 483.288332 -146.478451
L 480.691615 -146.484537
L 478.094899 -146.468367
L 475.498182 -146.413827
L 472.901466 -146.30821
L 470.304749 -146.14591
L 467.708032 -145.930407
L 465.111316 -145.673759
L 462.514599 -145.393764
L 459.917883 -145.109839
L 457.321166 -144.839065
L 454.724449 -144.59347
L 452.127733 -144.378655
L 449.531016 -144.19334
L 446.9343 -144.029682
L 444.337583 -143.874866
L 441.740866 -143.714274
L 439.14415 -143.535253
L 436.547433 -143.329356
L 433.950716 -143.091508
L 431.354 -142.816806
L 428.757283 -142.497796
L 426.160567 -142.124942
L 423.56385 -141.69045
L 420.967133 -141.192786
L 418.370417 -140.638518
L 415.7737 -140.040393
L 413.176984 -139.413643
L 410.580267 -138.773611
L 407.98355 -138.135989
L 405.386834 -137.517994
L 402.790117 -136.937885
L 400.193401 -136.41195
L 397.596684 -135.950811
L 394.999967 -135.557849
L 392.403251 -135.231246
L 389.806534 -134.968992
L 387.209817 -134.774792
L 384.613101 -134.662262
L 382.016384 -134.654964
L 379.419668 -134.780906
L 376.822951 -135.062584
L 374.226234 -135.506412
L 371.629518 -136.096509
L 369.032801 -136.796003
L 366.436085 -137.555501
L 363.839368 -138.325248
L 361.242651 -139.066527
L 358.645935 -139.75891
L 356.049218 -140.401903
L 353.452502 -141.011217
L 350.855785 -141.610984
L 348.259068 -142.223795
L 345.662352 -142.86113
L 343.065635 -143.517292
L 340.468918 -144.169429
L 337.872202 -144.784148
L 335.275485 -145.328101
L 332.678769 -145.777925
L 330.082052 -146.125419
L 327.485335 -146.376674
L 324.888619 -146.547037
L 322.291902 -146.655214
L 319.695186 -146.719061
L 317.098469 -146.75373
L 314.501752 -146.771326
L 311.905036 -146.780975
L 309.308319 -146.788787
L 306.711603 -146.797861
L 304.114886 -146.808733
L 301.518169 -146.820309
L 298.921453 -146.83101
L 296.324736 -146.839645
L 293.728019 -146.845783
z
" id="m6344f7501f" style="stroke:#444444;stroke-width:1.5;"/>
    </defs>
    <g clip-path="url(#p2682b7f3bb)">
     <use style="fill:#3d7ca6;stroke:#444444;stroke-width:1.5;" x="0" xlink:href="#m6344f7501f" y="275.250937"/>
    </g>
   </g>
   <g id="PolyCollection_3">
    <defs>
     <path d="M 324.029819 -74.357357
L 324.029819 -74.390143
L 325.655275 -74.408271
L 327.280731 -74.435154
L 328.906186 -74.466439
L 330.531642 -74.493965
L 332.157098 -74.511943
L 333.782553 -74.524508
L 335.408009 -74.547332
L 337.033465 -74.600608
L 338.658921 -74.699611
L 340.284376 -74.851971
L 341.909832 -75.063422
L 343.535288 -75.344878
L 345.160743 -75.71531
L 346.786199 -76.205278
L 348.411655 -76.866921
L 350.037111 -77.779761
L 351.662566 -79.031548
L 353.288022 -80.675043
L 354.913478 -82.69494
L 356.538934 -85.016272
L 358.164389 -87.543344
L 359.789845 -90.18901
L 361.415301 -92.871958
L 363.040756 -95.495918
L 364.666212 -97.937234
L 366.291668 -100.054804
L 367.917124 -101.718451
L 369.542579 -102.83731
L 371.168035 -103.36575
L 372.793491 -103.283728
L 374.418946 -102.580919
L 376.044402 -101.276192
L 377.669858 -99.459101
L 379.295314 -97.303296
L 380.920769 -95.028076
L 382.546225 -92.838063
L 384.171681 -90.881176
L 385.797137 -89.231308
L 387.422592 -87.879701
L 389.048048 -86.733057
L 390.673504 -85.639382
L 392.298959 -84.453547
L 393.924415 -83.111926
L 395.549871 -81.660512
L 397.175327 -80.215356
L 398.800782 -78.893216
L 400.426238 -77.765839
L 402.051694 -76.856154
L 403.677149 -76.158839
L 405.302605 -75.660897
L 406.928061 -75.348628
L 408.553517 -75.200834
L 410.178972 -75.179292
L 411.804428 -75.229759
L 413.429884 -75.296456
L 415.05534 -75.339858
L 416.680795 -75.345357
L 418.306251 -75.319117
L 419.931707 -75.275997
L 421.557162 -75.226708
L 423.182618 -75.171025
L 424.808074 -75.101198
L 426.43353 -75.011568
L 428.058985 -74.904707
L 429.684441 -74.790131
L 431.309897 -74.680537
L 432.935352 -74.589564
L 434.560808 -74.528985
L 436.186264 -74.50373
L 437.81172 -74.508402
L 439.437175 -74.529797
L 441.062631 -74.554387
L 442.688087 -74.574695
L 444.313543 -74.589824
L 445.938998 -74.601605
L 447.564454 -74.611123
L 449.18991 -74.617739
L 450.815365 -74.619244
L 452.440821 -74.612119
L 454.066277 -74.592679
L 455.691733 -74.559595
L 457.317188 -74.516281
L 458.942644 -74.470579
L 460.5681 -74.431129
L 462.193555 -74.403135
L 463.819011 -74.386936
L 465.444467 -74.379962
L 467.069923 -74.379834
L 468.695378 -74.386301
L 470.320834 -74.400954
L 471.94629 -74.424721
L 473.571746 -74.454396
L 475.197201 -74.481245
L 476.822657 -74.494428
L 478.448113 -74.487851
L 480.073568 -74.46461
L 481.699024 -74.434687
L 483.32448 -74.40817
L 484.949936 -74.390124
L 484.949936 -74.357376
L 484.949936 -74.357376
L 483.32448 -74.33933
L 481.699024 -74.312813
L 480.073568 -74.28289
L 478.448113 -74.259649
L 476.822657 -74.253072
L 475.197201 -74.266255
L 473.571746 -74.293104
L 471.94629 -74.322779
L 470.320834 -74.346546
L 468.695378 -74.361199
L 467.069923 -74.367666
L 465.444467 -74.367538
L 463.819011 -74.360564
L 462.193555 -74.344365
L 460.5681 -74.316371
L 458.942644 -74.276921
L 457.317188 -74.231219
L 455.691733 -74.187905
L 454.066277 -74.154821
L 452.440821 -74.135381
L 450.815365 -74.128256
L 449.18991 -74.129761
L 447.564454 -74.136377
L 445.938998 -74.145895
L 444.313543 -74.157676
L 442.688087 -74.172805
L 441.062631 -74.193113
L 439.437175 -74.217703
L 437.81172 -74.239098
L 436.186264 -74.24377
L 434.560808 -74.218515
L 432.935352 -74.157936
L 431.309897 -74.066963
L 429.684441 -73.957369
L 428.058985 -73.842793
L 426.43353 -73.735932
L 424.808074 -73.646302
L 423.182618 -73.576475
L 421.557162 -73.520792
L 419.931707 -73.471503
L 418.306251 -73.428383
L 416.680795 -73.402143
L 415.05534 -73.407642
L 413.429884 -73.451044
L 411.804428 -73.517741
L 410.178972 -73.568208
L 408.553517 -73.546666
L 406.928061 -73.398872
L 405.302605 -73.086603
L 403.677149 -72.588661
L 402.051694 -71.891346
L 400.426238 -70.981661
L 398.800782 -69.854284
L 397.175327 -68.532144
L 395.549871 -67.086988
L 393.924415 -65.635574
L 392.298959 -64.293953
L 390.673504 -63.108118
L 389.048048 -62.014443
L 387.422592 -60.867799
L 385.797137 -59.516192
L 384.171681 -57.866324
L 382.546225 -55.909437
L 380.920769 -53.719424
L 379.295314 -51.444204
L 377.669858 -49.288399
L 376.044402 -47.471308
L 374.418946 -46.166581
L 372.793491 -45.463772
L 371.168035 -45.38175
L 369.542579 -45.91019
L 367.917124 -47.029049
L 366.291668 -48.692696
L 364.666212 -50.810266
L 363.040756 -53.251582
L 361.415301 -55.875542
L 359.789845 -58.55849
L 358.164389 -61.204156
L 356.538934 -63.731228
L 354.913478 -66.05256
L 353.288022 -68.072457
L 351.662566 -69.715952
L 350.037111 -70.967739
L 348.411655 -71.880579
L 346.786199 -72.542222
L 345.160743 -73.03219
L 343.535288 -73.402622
L 341.909832 -73.684078
L 340.284376 -73.895529
L 338.658921 -74.047889
L 337.033465 -74.146892
L 335.408009 -74.200168
L 333.782553 -74.222992
L 332.157098 -74.235557
L 330.531642 -74.253535
L 328.906186 -74.281061
L 327.280731 -74.312346
L 325.655275 -74.339229
L 324.029819 -74.357357
z
" id="meb6a7d5fd3" style="stroke:#444444;stroke-width:1.5;"/>
    </defs>
    <g clip-path="url(#p2682b7f3bb)">
     <use style="fill:#b4d4df;stroke:#444444;stroke-width:1.5;" x="0" xlink:href="#meb6a7d5fd3" y="275.250937"/>
    </g>
   </g>
   <g id="matplotlib.axis_1">
    <g id="xtick_1">
     <g id="line2d_1">
      <defs>
       <path d="M 0 0
L 0 3.5
" id="mbee714a7d2" style="stroke:#000000;stroke-width:0.8;"/>
      </defs>
      <g>
       <use style="stroke:#000000;stroke-width:0.8;" x="248.6925" xlink:href="#mbee714a7d2" y="237.117187"/>
      </g>
     </g>
     <g id="text_1">
      <!-- −1 -->
      <defs>
       <path d="M 10.59375 35.5
L 73.1875 35.5
L 73.1875 27.203125
L 10.59375 27.203125
z
" id="DejaVuSans-8722"/>
       <path d="M 12.40625 8.296875
L 28.515625 8.296875
L 28.515625 63.921875
L 10.984375 60.40625
L 10.984375 69.390625
L 28.421875 72.90625
L 38.28125 72.90625
L 38.28125 8.296875
L 54.390625 8.296875
L 54.390625 0
L 12.40625 0
z
" id="DejaVuSans-49"/>
      </defs>
      <g transform="translate(239.847187 253.235312)scale(0.12 -0.12)">
       <use xlink:href="#DejaVuSans-8722"/>
       <use x="83.789062" xlink:href="#DejaVuSans-49"/>
      </g>
     </g>
    </g>
    <g id="xtick_2">
     <g id="line2d_2">
      <g>
       <use style="stroke:#000000;stroke-width:0.8;" x="315.6525" xlink:href="#mbee714a7d2" y="237.117187"/>
      </g>
     </g>
     <g id="text_2">
      <!-- 0 -->
      <defs>
       <path d="M 31.78125 66.40625
Q 24.171875 66.40625 20.328125 58.90625
Q 16.5 51.421875 16.5 36.375
Q 16.5 21.390625 20.328125 13.890625
Q 24.171875 6.390625 31.78125 6.390625
Q 39.453125 6.390625 43.28125 13.890625
Q 47.125 21.390625 47.125 36.375
Q 47.125 51.421875 43.28125 58.90625
Q 39.453125 66.40625 31.78125 66.40625
z
M 31.78125 74.21875
Q 44.046875 74.21875 50.515625 64.515625
Q 56.984375 54.828125 56.984375 36.375
Q 56.984375 17.96875 50.515625 8.265625
Q 44.046875 -1.421875 31.78125 -1.421875
Q 19.53125 -1.421875 13.0625 8.265625
Q 6.59375 17.96875 6.59375 36.375
Q 6.59375 54.828125 13.0625 64.515625
Q 19.53125 74.21875 31.78125 74.21875
z
" id="DejaVuSans-48"/>
      </defs>
      <g transform="translate(311.835 253.235312)scale(0.12 -0.12)">
       <use xlink:href="#DejaVuSans-48"/>
      </g>
     </g>
    </g>
    <g id="xtick_3">
     <g id="line2d_3">
      <g>
       <use style="stroke:#000000;stroke-width:0.8;" x="382.6125" xlink:href="#mbee714a7d2" y="237.117187"/>
      </g>
     </g>
     <g id="text_3">
      <!-- 1 -->
      <g transform="translate(378.795 253.235312)scale(0.12 -0.12)">
       <use xlink:href="#DejaVuSans-49"/>
      </g>
     </g>
    </g>
    <g id="xtick_4">
     <g id="line2d_4">
      <g>
       <use style="stroke:#000000;stroke-width:0.8;" x="449.5725" xlink:href="#mbee714a7d2" y="237.117187"/>
      </g>
     </g>
     <g id="text_4">
      <!-- 2 -->
      <defs>
       <path d="M 19.1875 8.296875
L 53.609375 8.296875
L 53.609375 0
L 7.328125 0
L 7.328125 8.296875
Q 12.9375 14.109375 22.625 23.890625
Q 32.328125 33.6875 34.8125 36.53125
Q 39.546875 41.84375 41.421875 45.53125
Q 43.3125 49.21875 43.3125 52.78125
Q 43.3125 58.59375 39.234375 62.25
Q 35.15625 65.921875 28.609375 65.921875
Q 23.96875 65.921875 18.8125 64.3125
Q 13.671875 62.703125 7.8125 59.421875
L 7.8125 69.390625
Q 13.765625 71.78125 18.9375 73
Q 24.125 74.21875 28.421875 74.21875
Q 39.75 74.21875 46.484375 68.546875
Q 53.21875 62.890625 53.21875 53.421875
Q 53.21875 48.921875 51.53125 44.890625
Q 49.859375 40.875 45.40625 35.40625
Q 44.1875 33.984375 37.640625 27.21875
Q 31.109375 20.453125 19.1875 8.296875
z
" id="DejaVuSans-50"/>
      </defs>
      <g transform="translate(445.755 253.235312)scale(0.12 -0.12)">
       <use xlink:href="#DejaVuSans-50"/>
      </g>
     </g>
    </g>
    <g id="xtick_5">
     <g id="line2d_5">
      <g>
       <use style="stroke:#000000;stroke-width:0.8;" x="516.5325" xlink:href="#mbee714a7d2" y="237.117187"/>
      </g>
     </g>
     <g id="text_5">
      <!-- 3 -->
      <defs>
       <path d="M 40.578125 39.3125
Q 47.65625 37.796875 51.625 33
Q 55.609375 28.21875 55.609375 21.1875
Q 55.609375 10.40625 48.1875 4.484375
Q 40.765625 -1.421875 27.09375 -1.421875
Q 22.515625 -1.421875 17.65625 -0.515625
Q 12.796875 0.390625 7.625 2.203125
L 7.625 11.71875
Q 11.71875 9.328125 16.59375 8.109375
Q 21.484375 6.890625 26.8125 6.890625
Q 36.078125 6.890625 40.9375 10.546875
Q 45.796875 14.203125 45.796875 21.1875
Q 45.796875 27.640625 41.28125 31.265625
Q 36.765625 34.90625 28.71875 34.90625
L 20.21875 34.90625
L 20.21875 43.015625
L 29.109375 43.015625
Q 36.375 43.015625 40.234375 45.921875
Q 44.09375 48.828125 44.09375 54.296875
Q 44.09375 59.90625 40.109375 62.90625
Q 36.140625 65.921875 28.71875 65.921875
Q 24.65625 65.921875 20.015625 65.03125
Q 15.375 64.15625 9.8125 62.3125
L 9.8125 71.09375
Q 15.4375 72.65625 20.34375 73.4375
Q 25.25 74.21875 29.59375 74.21875
Q 40.828125 74.21875 47.359375 69.109375
Q 53.90625 64.015625 53.90625 55.328125
Q 53.90625 49.265625 50.4375 45.09375
Q 46.96875 40.921875 40.578125 39.3125
z
" id="DejaVuSans-51"/>
      </defs>
      <g transform="translate(512.715 253.235312)scale(0.12 -0.12)">
       <use xlink:href="#DejaVuSans-51"/>
      </g>
     </g>
    </g>
    <g id="xtick_6">
     <g id="line2d_6">
      <g>
       <use style="stroke:#000000;stroke-width:0.8;" x="583.4925" xlink:href="#mbee714a7d2" y="237.117187"/>
      </g>
     </g>
     <g id="text_6">
      <!-- 4 -->
      <defs>
       <path d="M 37.796875 64.3125
L 12.890625 25.390625
L 37.796875 25.390625
z
M 35.203125 72.90625
L 47.609375 72.90625
L 47.609375 25.390625
L 58.015625 25.390625
L 58.015625 17.1875
L 47.609375 17.1875
L 47.609375 0
L 37.796875 0
L 37.796875 17.1875
L 4.890625 17.1875
L 4.890625 26.703125
z
" id="DejaVuSans-52"/>
      </defs>
      <g transform="translate(579.675 253.235312)scale(0.12 -0.12)">
       <use xlink:href="#DejaVuSans-52"/>
      </g>
     </g>
    </g>
    <g id="text_7">
     <!-- Log$_{10}$ (average expression) -->
     <defs>
      <path d="M 9.8125 72.90625
L 19.671875 72.90625
L 19.671875 8.296875
L 55.171875 8.296875
L 55.171875 0
L 9.8125 0
z
" id="DejaVuSans-76"/>
      <path d="M 30.609375 48.390625
Q 23.390625 48.390625 19.1875 42.75
Q 14.984375 37.109375 14.984375 27.296875
Q 14.984375 17.484375 19.15625 11.84375
Q 23.34375 6.203125 30.609375 6.203125
Q 37.796875 6.203125 41.984375 11.859375
Q 46.1875 17.53125 46.1875 27.296875
Q 46.1875 37.015625 41.984375 42.703125
Q 37.796875 48.390625 30.609375 48.390625
z
M 30.609375 56
Q 42.328125 56 49.015625 48.375
Q 55.71875 40.765625 55.71875 27.296875
Q 55.71875 13.875 49.015625 6.21875
Q 42.328125 -1.421875 30.609375 -1.421875
Q 18.84375 -1.421875 12.171875 6.21875
Q 5.515625 13.875 5.515625 27.296875
Q 5.515625 40.765625 12.171875 48.375
Q 18.84375 56 30.609375 56
z
" id="DejaVuSans-111"/>
      <path d="M 45.40625 27.984375
Q 45.40625 37.75 41.375 43.109375
Q 37.359375 48.484375 30.078125 48.484375
Q 22.859375 48.484375 18.828125 43.109375
Q 14.796875 37.75 14.796875 27.984375
Q 14.796875 18.265625 18.828125 12.890625
Q 22.859375 7.515625 30.078125 7.515625
Q 37.359375 7.515625 41.375 12.890625
Q 45.40625 18.265625 45.40625 27.984375
z
M 54.390625 6.78125
Q 54.390625 -7.171875 48.1875 -13.984375
Q 42 -20.796875 29.203125 -20.796875
Q 24.46875 -20.796875 20.265625 -20.09375
Q 16.0625 -19.390625 12.109375 -17.921875
L 12.109375 -9.1875
Q 16.0625 -11.328125 19.921875 -12.34375
Q 23.78125 -13.375 27.78125 -13.375
Q 36.625 -13.375 41.015625 -8.765625
Q 45.40625 -4.15625 45.40625 5.171875
L 45.40625 9.625
Q 42.625 4.78125 38.28125 2.390625
Q 33.9375 0 27.875 0
Q 17.828125 0 11.671875 7.65625
Q 5.515625 15.328125 5.515625 27.984375
Q 5.515625 40.671875 11.671875 48.328125
Q 17.828125 56 27.875 56
Q 33.9375 56 38.28125 53.609375
Q 42.625 51.21875 45.40625 46.390625
L 45.40625 54.6875
L 54.390625 54.6875
z
" id="DejaVuSans-103"/>
      <path id="DejaVuSans-32"/>
      <path d="M 31 75.875
Q 24.46875 64.65625 21.28125 53.65625
Q 18.109375 42.671875 18.109375 31.390625
Q 18.109375 20.125 21.3125 9.0625
Q 24.515625 -2 31 -13.1875
L 23.1875 -13.1875
Q 15.875 -1.703125 12.234375 9.375
Q 8.59375 20.453125 8.59375 31.390625
Q 8.59375 42.28125 12.203125 53.3125
Q 15.828125 64.359375 23.1875 75.875
z
" id="DejaVuSans-40"/>
      <path d="M 34.28125 27.484375
Q 23.390625 27.484375 19.1875 25
Q 14.984375 22.515625 14.984375 16.5
Q 14.984375 11.71875 18.140625 8.90625
Q 21.296875 6.109375 26.703125 6.109375
Q 34.1875 6.109375 38.703125 11.40625
Q 43.21875 16.703125 43.21875 25.484375
L 43.21875 27.484375
z
M 52.203125 31.203125
L 52.203125 0
L 43.21875 0
L 43.21875 8.296875
Q 40.140625 3.328125 35.546875 0.953125
Q 30.953125 -1.421875 24.3125 -1.421875
Q 15.921875 -1.421875 10.953125 3.296875
Q 6 8.015625 6 15.921875
Q 6 25.140625 12.171875 29.828125
Q 18.359375 34.515625 30.609375 34.515625
L 43.21875 34.515625
L 43.21875 35.40625
Q 43.21875 41.609375 39.140625 45
Q 35.0625 48.390625 27.6875 48.390625
Q 23 48.390625 18.546875 47.265625
Q 14.109375 46.140625 10.015625 43.890625
L 10.015625 52.203125
Q 14.9375 54.109375 19.578125 55.046875
Q 24.21875 56 28.609375 56
Q 40.484375 56 46.34375 49.84375
Q 52.203125 43.703125 52.203125 31.203125
z
" id="DejaVuSans-97"/>
      <path d="M 2.984375 54.6875
L 12.5 54.6875
L 29.59375 8.796875
L 46.6875 54.6875
L 56.203125 54.6875
L 35.6875 0
L 23.484375 0
z
" id="DejaVuSans-118"/>
      <path d="M 56.203125 29.59375
L 56.203125 25.203125
L 14.890625 25.203125
Q 15.484375 15.921875 20.484375 11.0625
Q 25.484375 6.203125 34.421875 6.203125
Q 39.59375 6.203125 44.453125 7.46875
Q 49.3125 8.734375 54.109375 11.28125
L 54.109375 2.78125
Q 49.265625 0.734375 44.1875 -0.34375
Q 39.109375 -1.421875 33.890625 -1.421875
Q 20.796875 -1.421875 13.15625 6.1875
Q 5.515625 13.8125 5.515625 26.8125
Q 5.515625 40.234375 12.765625 48.109375
Q 20.015625 56 32.328125 56
Q 43.359375 56 49.78125 48.890625
Q 56.203125 41.796875 56.203125 29.59375
z
M 47.21875 32.234375
Q 47.125 39.59375 43.09375 43.984375
Q 39.0625 48.390625 32.421875 48.390625
Q 24.90625 48.390625 20.390625 44.140625
Q 15.875 39.890625 15.1875 32.171875
z
" id="DejaVuSans-101"/>
      <path d="M 41.109375 46.296875
Q 39.59375 47.171875 37.8125 47.578125
Q 36.03125 48 33.890625 48
Q 26.265625 48 22.1875 43.046875
Q 18.109375 38.09375 18.109375 28.8125
L 18.109375 0
L 9.078125 0
L 9.078125 54.6875
L 18.109375 54.6875
L 18.109375 46.1875
Q 20.953125 51.171875 25.484375 53.578125
Q 30.03125 56 36.53125 56
Q 37.453125 56 38.578125 55.875
Q 39.703125 55.765625 41.0625 55.515625
z
" id="DejaVuSans-114"/>
      <path d="M 54.890625 54.6875
L 35.109375 28.078125
L 55.90625 0
L 45.3125 0
L 29.390625 21.484375
L 13.484375 0
L 2.875 0
L 24.125 28.609375
L 4.6875 54.6875
L 15.28125 54.6875
L 29.78125 35.203125
L 44.28125 54.6875
z
" id="DejaVuSans-120"/>
      <path d="M 18.109375 8.203125
L 18.109375 -20.796875
L 9.078125 -20.796875
L 9.078125 54.6875
L 18.109375 54.6875
L 18.109375 46.390625
Q 20.953125 51.265625 25.265625 53.625
Q 29.59375 56 35.59375 56
Q 45.5625 56 51.78125 48.09375
Q 58.015625 40.1875 58.015625 27.296875
Q 58.015625 14.40625 51.78125 6.484375
Q 45.5625 -1.421875 35.59375 -1.421875
Q 29.59375 -1.421875 25.265625 0.953125
Q 20.953125 3.328125 18.109375 8.203125
z
M 48.6875 27.296875
Q 48.6875 37.203125 44.609375 42.84375
Q 40.53125 48.484375 33.40625 48.484375
Q 26.265625 48.484375 22.1875 42.84375
Q 18.109375 37.203125 18.109375 27.296875
Q 18.109375 17.390625 22.1875 11.75
Q 26.265625 6.109375 33.40625 6.109375
Q 40.53125 6.109375 44.609375 11.75
Q 48.6875 17.390625 48.6875 27.296875
z
" id="DejaVuSans-112"/>
      <path d="M 44.28125 53.078125
L 44.28125 44.578125
Q 40.484375 46.53125 36.375 47.5
Q 32.28125 48.484375 27.875 48.484375
Q 21.1875 48.484375 17.84375 46.4375
Q 14.5 44.390625 14.5 40.28125
Q 14.5 37.15625 16.890625 35.375
Q 19.28125 33.59375 26.515625 31.984375
L 29.59375 31.296875
Q 39.15625 29.25 43.1875 25.515625
Q 47.21875 21.78125 47.21875 15.09375
Q 47.21875 7.46875 41.1875 3.015625
Q 35.15625 -1.421875 24.609375 -1.421875
Q 20.21875 -1.421875 15.453125 -0.5625
Q 10.6875 0.296875 5.421875 2
L 5.421875 11.28125
Q 10.40625 8.6875 15.234375 7.390625
Q 20.0625 6.109375 24.8125 6.109375
Q 31.15625 6.109375 34.5625 8.28125
Q 37.984375 10.453125 37.984375 14.40625
Q 37.984375 18.0625 35.515625 20.015625
Q 33.0625 21.96875 24.703125 23.78125
L 21.578125 24.515625
Q 13.234375 26.265625 9.515625 29.90625
Q 5.8125 33.546875 5.8125 39.890625
Q 5.8125 47.609375 11.28125 51.796875
Q 16.75 56 26.8125 56
Q 31.78125 56 36.171875 55.265625
Q 40.578125 54.546875 44.28125 53.078125
z
" id="DejaVuSans-115"/>
      <path d="M 9.421875 54.6875
L 18.40625 54.6875
L 18.40625 0
L 9.421875 0
z
M 9.421875 75.984375
L 18.40625 75.984375
L 18.40625 64.59375
L 9.421875 64.59375
z
" id="DejaVuSans-105"/>
      <path d="M 54.890625 33.015625
L 54.890625 0
L 45.90625 0
L 45.90625 32.71875
Q 45.90625 40.484375 42.875 44.328125
Q 39.84375 48.1875 33.796875 48.1875
Q 26.515625 48.1875 22.3125 43.546875
Q 18.109375 38.921875 18.109375 30.90625
L 18.109375 0
L 9.078125 0
L 9.078125 54.6875
L 18.109375 54.6875
L 18.109375 46.1875
Q 21.34375 51.125 25.703125 53.5625
Q 30.078125 56 35.796875 56
Q 45.21875 56 50.046875 50.171875
Q 54.890625 44.34375 54.890625 33.015625
z
" id="DejaVuSans-110"/>
      <path d="M 8.015625 75.875
L 15.828125 75.875
Q 23.140625 64.359375 26.78125 53.3125
Q 30.421875 42.28125 30.421875 31.390625
Q 30.421875 20.453125 26.78125 9.375
Q 23.140625 -1.703125 15.828125 -13.1875
L 8.015625 -13.1875
Q 14.5 -2 17.703125 9.0625
Q 20.90625 20.125 20.90625 31.390625
Q 20.90625 42.671875 17.703125 53.65625
Q 14.5 64.65625 8.015625 75.875
z
" id="DejaVuSans-41"/>
     </defs>
     <g transform="translate(306.6525 271.890937)scale(0.16 -0.16)">
      <use transform="translate(0 0.015625)" xlink:href="#DejaVuSans-76"/>
      <use transform="translate(55.712891 0.015625)" xlink:href="#DejaVuSans-111"/>
      <use transform="translate(116.894531 0.015625)" xlink:href="#DejaVuSans-103"/>
      <use transform="translate(181.328125 -16.390625)scale(0.7)" xlink:href="#DejaVuSans-49"/>
      <use transform="translate(225.864258 -16.390625)scale(0.7)" xlink:href="#DejaVuSans-48"/>
      <use transform="translate(273.134766 0.015625)" xlink:href="#DejaVuSans-32"/>
      <use transform="translate(304.921875 0.015625)" xlink:href="#DejaVuSans-40"/>
      <use transform="translate(343.935547 0.015625)" xlink:href="#DejaVuSans-97"/>
      <use transform="translate(405.214844 0.015625)" xlink:href="#DejaVuSans-118"/>
      <use transform="translate(464.394531 0.015625)" xlink:href="#DejaVuSans-101"/>
      <use transform="translate(525.917969 0.015625)" xlink:href="#DejaVuSans-114"/>
      <use transform="translate(567.03125 0.015625)" xlink:href="#DejaVuSans-97"/>
      <use transform="translate(628.310547 0.015625)" xlink:href="#DejaVuSans-103"/>
      <use transform="translate(691.787109 0.015625)" xlink:href="#DejaVuSans-101"/>
      <use transform="translate(753.310547 0.015625)" xlink:href="#DejaVuSans-32"/>
      <use transform="translate(785.097656 0.015625)" xlink:href="#DejaVuSans-101"/>
      <use transform="translate(846.621094 0.015625)" xlink:href="#DejaVuSans-120"/>
      <use transform="translate(905.800781 0.015625)" xlink:href="#DejaVuSans-112"/>
      <use transform="translate(969.277344 0.015625)" xlink:href="#DejaVuSans-114"/>
      <use transform="translate(1010.390625 0.015625)" xlink:href="#DejaVuSans-101"/>
      <use transform="translate(1071.914062 0.015625)" xlink:href="#DejaVuSans-115"/>
      <use transform="translate(1124.013672 0.015625)" xlink:href="#DejaVuSans-115"/>
      <use transform="translate(1176.113281 0.015625)" xlink:href="#DejaVuSans-105"/>
      <use transform="translate(1203.896484 0.015625)" xlink:href="#DejaVuSans-111"/>
      <use transform="translate(1265.078125 0.015625)" xlink:href="#DejaVuSans-110"/>
      <use transform="translate(1328.457031 0.015625)" xlink:href="#DejaVuSans-41"/>
     </g>
    </g>
   </g>
   <g id="matplotlib.axis_2">
    <g id="ytick_1">
     <g id="line2d_7">
      <defs>
       <path d="M 0 0
L -3.5 0
" id="m8cf5dba47f" style="stroke:#000000;stroke-width:0.8;"/>
      </defs>
      <g>
       <use style="stroke:#000000;stroke-width:0.8;" x="248.6925" xlink:href="#m8cf5dba47f" y="55.917187"/>
      </g>
     </g>
     <g id="text_8">
      <!-- All genes -->
      <defs>
       <path d="M 34.1875 63.1875
L 20.796875 26.90625
L 47.609375 26.90625
z
M 28.609375 72.90625
L 39.796875 72.90625
L 67.578125 0
L 57.328125 0
L 50.6875 18.703125
L 17.828125 18.703125
L 11.1875 0
L 0.78125 0
z
" id="DejaVuSans-65"/>
       <path d="M 9.421875 75.984375
L 18.40625 75.984375
L 18.40625 0
L 9.421875 0
z
" id="DejaVuSans-108"/>
      </defs>
      <g transform="translate(168.45 61.995937)scale(0.16 -0.16)">
       <use xlink:href="#DejaVuSans-65"/>
       <use x="68.408203" xlink:href="#DejaVuSans-108"/>
       <use x="96.191406" xlink:href="#DejaVuSans-108"/>
       <use x="123.974609" xlink:href="#DejaVuSans-32"/>
       <use x="155.761719" xlink:href="#DejaVuSans-103"/>
       <use x="219.238281" xlink:href="#DejaVuSans-101"/>
       <use x="280.761719" xlink:href="#DejaVuSans-110"/>
       <use x="344.140625" xlink:href="#DejaVuSans-101"/>
       <use x="405.664062" xlink:href="#DejaVuSans-115"/>
      </g>
     </g>
    </g>
    <g id="ytick_2">
     <g id="line2d_8">
      <g>
       <use style="stroke:#000000;stroke-width:0.8;" x="248.6925" xlink:href="#m8cf5dba47f" y="128.397187"/>
      </g>
     </g>
     <g id="text_9">
      <!-- Common in RNAseq and array -->
      <defs>
       <path d="M 64.40625 67.28125
L 64.40625 56.890625
Q 59.421875 61.53125 53.78125 63.8125
Q 48.140625 66.109375 41.796875 66.109375
Q 29.296875 66.109375 22.65625 58.46875
Q 16.015625 50.828125 16.015625 36.375
Q 16.015625 21.96875 22.65625 14.328125
Q 29.296875 6.6875 41.796875 6.6875
Q 48.140625 6.6875 53.78125 8.984375
Q 59.421875 11.28125 64.40625 15.921875
L 64.40625 5.609375
Q 59.234375 2.09375 53.4375 0.328125
Q 47.65625 -1.421875 41.21875 -1.421875
Q 24.65625 -1.421875 15.125 8.703125
Q 5.609375 18.84375 5.609375 36.375
Q 5.609375 53.953125 15.125 64.078125
Q 24.65625 74.21875 41.21875 74.21875
Q 47.75 74.21875 53.53125 72.484375
Q 59.328125 70.75 64.40625 67.28125
z
" id="DejaVuSans-67"/>
       <path d="M 52 44.1875
Q 55.375 50.25 60.0625 53.125
Q 64.75 56 71.09375 56
Q 79.640625 56 84.28125 50.015625
Q 88.921875 44.046875 88.921875 33.015625
L 88.921875 0
L 79.890625 0
L 79.890625 32.71875
Q 79.890625 40.578125 77.09375 44.375
Q 74.3125 48.1875 68.609375 48.1875
Q 61.625 48.1875 57.5625 43.546875
Q 53.515625 38.921875 53.515625 30.90625
L 53.515625 0
L 44.484375 0
L 44.484375 32.71875
Q 44.484375 40.625 41.703125 44.40625
Q 38.921875 48.1875 33.109375 48.1875
Q 26.21875 48.1875 22.15625 43.53125
Q 18.109375 38.875 18.109375 30.90625
L 18.109375 0
L 9.078125 0
L 9.078125 54.6875
L 18.109375 54.6875
L 18.109375 46.1875
Q 21.1875 51.21875 25.484375 53.609375
Q 29.78125 56 35.6875 56
Q 41.65625 56 45.828125 52.96875
Q 50 49.953125 52 44.1875
z
" id="DejaVuSans-109"/>
       <path d="M 44.390625 34.1875
Q 47.5625 33.109375 50.5625 29.59375
Q 53.5625 26.078125 56.59375 19.921875
L 66.609375 0
L 56 0
L 46.6875 18.703125
Q 43.0625 26.03125 39.671875 28.421875
Q 36.28125 30.8125 30.421875 30.8125
L 19.671875 30.8125
L 19.671875 0
L 9.8125 0
L 9.8125 72.90625
L 32.078125 72.90625
Q 44.578125 72.90625 50.734375 67.671875
Q 56.890625 62.453125 56.890625 51.90625
Q 56.890625 45.015625 53.6875 40.46875
Q 50.484375 35.9375 44.390625 34.1875
z
M 19.671875 64.796875
L 19.671875 38.921875
L 32.078125 38.921875
Q 39.203125 38.921875 42.84375 42.21875
Q 46.484375 45.515625 46.484375 51.90625
Q 46.484375 58.296875 42.84375 61.546875
Q 39.203125 64.796875 32.078125 64.796875
z
" id="DejaVuSans-82"/>
       <path d="M 9.8125 72.90625
L 23.09375 72.90625
L 55.421875 11.921875
L 55.421875 72.90625
L 64.984375 72.90625
L 64.984375 0
L 51.703125 0
L 19.390625 60.984375
L 19.390625 0
L 9.8125 0
z
" id="DejaVuSans-78"/>
       <path d="M 14.796875 27.296875
Q 14.796875 17.390625 18.875 11.75
Q 22.953125 6.109375 30.078125 6.109375
Q 37.203125 6.109375 41.296875 11.75
Q 45.40625 17.390625 45.40625 27.296875
Q 45.40625 37.203125 41.296875 42.84375
Q 37.203125 48.484375 30.078125 48.484375
Q 22.953125 48.484375 18.875 42.84375
Q 14.796875 37.203125 14.796875 27.296875
z
M 45.40625 8.203125
Q 42.578125 3.328125 38.25 0.953125
Q 33.9375 -1.421875 27.875 -1.421875
Q 17.96875 -1.421875 11.734375 6.484375
Q 5.515625 14.40625 5.515625 27.296875
Q 5.515625 40.1875 11.734375 48.09375
Q 17.96875 56 27.875 56
Q 33.9375 56 38.25 53.625
Q 42.578125 51.265625 45.40625 46.390625
L 45.40625 54.6875
L 54.390625 54.6875
L 54.390625 -20.796875
L 45.40625 -20.796875
z
" id="DejaVuSans-113"/>
       <path d="M 45.40625 46.390625
L 45.40625 75.984375
L 54.390625 75.984375
L 54.390625 0
L 45.40625 0
L 45.40625 8.203125
Q 42.578125 3.328125 38.25 0.953125
Q 33.9375 -1.421875 27.875 -1.421875
Q 17.96875 -1.421875 11.734375 6.484375
Q 5.515625 14.40625 5.515625 27.296875
Q 5.515625 40.1875 11.734375 48.09375
Q 17.96875 56 27.875 56
Q 33.9375 56 38.25 53.625
Q 42.578125 51.265625 45.40625 46.390625
z
M 14.796875 27.296875
Q 14.796875 17.390625 18.875 11.75
Q 22.953125 6.109375 30.078125 6.109375
Q 37.203125 6.109375 41.296875 11.75
Q 45.40625 17.390625 45.40625 27.296875
Q 45.40625 37.203125 41.296875 42.84375
Q 37.203125 48.484375 30.078125 48.484375
Q 22.953125 48.484375 18.875 42.84375
Q 14.796875 37.203125 14.796875 27.296875
z
" id="DejaVuSans-100"/>
       <path d="M 32.171875 -5.078125
Q 28.375 -14.84375 24.75 -17.8125
Q 21.140625 -20.796875 15.09375 -20.796875
L 7.90625 -20.796875
L 7.90625 -13.28125
L 13.1875 -13.28125
Q 16.890625 -13.28125 18.9375 -11.515625
Q 21 -9.765625 23.484375 -3.21875
L 25.09375 0.875
L 2.984375 54.6875
L 12.5 54.6875
L 29.59375 11.921875
L 46.6875 54.6875
L 56.203125 54.6875
z
" id="DejaVuSans-121"/>
      </defs>
      <g transform="translate(-0 134.475937)scale(0.16 -0.16)">
       <use xlink:href="#DejaVuSans-67"/>
       <use x="69.824219" xlink:href="#DejaVuSans-111"/>
       <use x="131.005859" xlink:href="#DejaVuSans-109"/>
       <use x="228.417969" xlink:href="#DejaVuSans-109"/>
       <use x="325.830078" xlink:href="#DejaVuSans-111"/>
       <use x="387.011719" xlink:href="#DejaVuSans-110"/>
       <use x="450.390625" xlink:href="#DejaVuSans-32"/>
       <use x="482.177734" xlink:href="#DejaVuSans-105"/>
       <use x="509.960938" xlink:href="#DejaVuSans-110"/>
       <use x="573.339844" xlink:href="#DejaVuSans-32"/>
       <use x="605.126953" xlink:href="#DejaVuSans-82"/>
       <use x="674.609375" xlink:href="#DejaVuSans-78"/>
       <use x="749.414062" xlink:href="#DejaVuSans-65"/>
       <use x="817.822266" xlink:href="#DejaVuSans-115"/>
       <use x="869.921875" xlink:href="#DejaVuSans-101"/>
       <use x="931.445312" xlink:href="#DejaVuSans-113"/>
       <use x="994.921875" xlink:href="#DejaVuSans-32"/>
       <use x="1026.708984" xlink:href="#DejaVuSans-97"/>
       <use x="1087.988281" xlink:href="#DejaVuSans-110"/>
       <use x="1151.367188" xlink:href="#DejaVuSans-100"/>
       <use x="1214.84375" xlink:href="#DejaVuSans-32"/>
       <use x="1246.630859" xlink:href="#DejaVuSans-97"/>
       <use x="1307.910156" xlink:href="#DejaVuSans-114"/>
       <use x="1349.007812" xlink:href="#DejaVuSans-114"/>
       <use x="1390.121094" xlink:href="#DejaVuSans-97"/>
       <use x="1451.400391" xlink:href="#DejaVuSans-121"/>
      </g>
     </g>
    </g>
    <g id="ytick_3">
     <g id="line2d_9">
      <g>
       <use style="stroke:#000000;stroke-width:0.8;" x="248.6925" xlink:href="#m8cf5dba47f" y="200.877187"/>
      </g>
     </g>
     <g id="text_10">
      <!-- Common only in RNAseq -->
      <g transform="translate(43.575 206.955937)scale(0.16 -0.16)">
       <use xlink:href="#DejaVuSans-67"/>
       <use x="69.824219" xlink:href="#DejaVuSans-111"/>
       <use x="131.005859" xlink:href="#DejaVuSans-109"/>
       <use x="228.417969" xlink:href="#DejaVuSans-109"/>
       <use x="325.830078" xlink:href="#DejaVuSans-111"/>
       <use x="387.011719" xlink:href="#DejaVuSans-110"/>
       <use x="450.390625" xlink:href="#DejaVuSans-32"/>
       <use x="482.177734" xlink:href="#DejaVuSans-111"/>
       <use x="543.359375" xlink:href="#DejaVuSans-110"/>
       <use x="606.738281" xlink:href="#DejaVuSans-108"/>
       <use x="634.521484" xlink:href="#DejaVuSans-121"/>
       <use x="693.701172" xlink:href="#DejaVuSans-32"/>
       <use x="725.488281" xlink:href="#DejaVuSans-105"/>
       <use x="753.271484" xlink:href="#DejaVuSans-110"/>
       <use x="816.650391" xlink:href="#DejaVuSans-32"/>
       <use x="848.4375" xlink:href="#DejaVuSans-82"/>
       <use x="917.919922" xlink:href="#DejaVuSans-78"/>
       <use x="992.724609" xlink:href="#DejaVuSans-65"/>
       <use x="1061.132812" xlink:href="#DejaVuSans-115"/>
       <use x="1113.232422" xlink:href="#DejaVuSans-101"/>
       <use x="1174.755859" xlink:href="#DejaVuSans-113"/>
      </g>
     </g>
    </g>
   </g>
   <g id="line2d_10">
    <path clip-path="url(#p2682b7f3bb)" d="M 310.552497 55.917187
L 493.413054 55.917187
" style="fill:none;stroke:#444444;stroke-linecap:square;stroke-width:1.5;"/>
   </g>
   <g id="line2d_11">
    <path clip-path="url(#p2682b7f3bb)" d="M 373.513454 55.917187
L 421.479052 55.917187
" style="fill:none;stroke:#444444;stroke-linecap:square;stroke-width:4.5;"/>
   </g>
   <g id="line2d_12">
    <path clip-path="url(#p2682b7f3bb)" d="M 329.031992 128.397187
L 468.558682 128.397187
" style="fill:none;stroke:#444444;stroke-linecap:square;stroke-width:1.5;"/>
   </g>
   <g id="line2d_13">
    <path clip-path="url(#p2682b7f3bb)" d="M 372.073799 128.397187
L 410.888563 128.397187
" style="fill:none;stroke:#444444;stroke-linecap:square;stroke-width:4.5;"/>
   </g>
   <g id="line2d_14">
    <path clip-path="url(#p2682b7f3bb)" d="M 342.641232 200.877187
L 405.341404 200.877187
" style="fill:none;stroke:#444444;stroke-linecap:square;stroke-width:1.5;"/>
   </g>
   <g id="line2d_15">
    <path clip-path="url(#p2682b7f3bb)" d="M 366.049502 200.877187
L 381.986942 200.877187
" style="fill:none;stroke:#444444;stroke-linecap:square;stroke-width:4.5;"/>
   </g>
   <g id="patch_3">
    <path d="M 248.6925 237.117187
L 248.6925 19.677187
" style="fill:none;stroke:#000000;stroke-linecap:square;stroke-linejoin:miter;stroke-width:1.5;"/>
   </g>
   <g id="patch_4">
    <path d="M 583.4925 237.117187
L 583.4925 19.677187
" style="fill:none;stroke:#000000;stroke-linecap:square;stroke-linejoin:miter;stroke-width:1.5;"/>
   </g>
   <g id="patch_5">
    <path d="M 248.6925 237.117187
L 583.4925 237.117187
" style="fill:none;stroke:#000000;stroke-linecap:square;stroke-linejoin:miter;stroke-width:1.5;"/>
   </g>
   <g id="patch_6">
    <path d="M 248.6925 19.677187
L 583.4925 19.677187
" style="fill:none;stroke:#000000;stroke-linecap:square;stroke-linejoin:miter;stroke-width:1.5;"/>
   </g>
   <g id="PathCollection_1">
    <defs>
     <path d="M 0 1.5
C 0.397805 1.5 0.77937 1.341951 1.06066 1.06066
C 1.341951 0.77937 1.5 0.397805 1.5 0
C 1.5 -0.397805 1.341951 -0.77937 1.06066 -1.06066
C 0.77937 -1.341951 0.397805 -1.5 0 -1.5
C -0.397805 -1.5 -0.77937 -1.341951 -1.06066 -1.06066
C -1.341951 -0.77937 -1.5 -0.397805 -1.5 0
C -1.5 0.397805 -1.341951 0.77937 -1.06066 1.06066
C -0.77937 1.341951 -0.397805 1.5 0 1.5
z
" id="m043456f59c" style="stroke:#444444;"/>
    </defs>
    <g clip-path="url(#p2682b7f3bb)">
     <use style="fill:#ffffff;stroke:#444444;" x="392.666673" xlink:href="#m043456f59c" y="55.917187"/>
    </g>
   </g>
   <g id="PathCollection_2">
    <g clip-path="url(#p2682b7f3bb)">
     <use style="fill:#ffffff;stroke:#444444;" x="389.82152" xlink:href="#m043456f59c" y="128.397187"/>
    </g>
   </g>
   <g id="PathCollection_3">
    <g clip-path="url(#p2682b7f3bb)">
     <use style="fill:#ffffff;stroke:#444444;" x="373.588551" xlink:href="#m043456f59c" y="200.877187"/>
    </g>
   </g>
   <g id="text_11">
    <!-- Average array (Crow et. al.) expression -->
    <defs>
     <path d="M 4.203125 54.6875
L 13.1875 54.6875
L 24.421875 12.015625
L 35.59375 54.6875
L 46.1875 54.6875
L 57.421875 12.015625
L 68.609375 54.6875
L 77.59375 54.6875
L 63.28125 0
L 52.6875 0
L 40.921875 44.828125
L 29.109375 0
L 18.5 0
z
" id="DejaVuSans-119"/>
     <path d="M 18.3125 70.21875
L 18.3125 54.6875
L 36.8125 54.6875
L 36.8125 47.703125
L 18.3125 47.703125
L 18.3125 18.015625
Q 18.3125 11.328125 20.140625 9.421875
Q 21.96875 7.515625 27.59375 7.515625
L 36.8125 7.515625
L 36.8125 0
L 27.59375 0
Q 17.1875 0 13.234375 3.875
Q 9.28125 7.765625 9.28125 18.015625
L 9.28125 47.703125
L 2.6875 47.703125
L 2.6875 54.6875
L 9.28125 54.6875
L 9.28125 70.21875
z
" id="DejaVuSans-116"/>
     <path d="M 10.6875 12.40625
L 21 12.40625
L 21 0
L 10.6875 0
z
" id="DejaVuSans-46"/>
    </defs>
    <g transform="translate(238.980937 13.677187)scale(0.18 -0.18)">
     <use xlink:href="#DejaVuSans-65"/>
     <use x="68.330078" xlink:href="#DejaVuSans-118"/>
     <use x="127.509766" xlink:href="#DejaVuSans-101"/>
     <use x="189.033203" xlink:href="#DejaVuSans-114"/>
     <use x="230.146484" xlink:href="#DejaVuSans-97"/>
     <use x="291.425781" xlink:href="#DejaVuSans-103"/>
     <use x="354.902344" xlink:href="#DejaVuSans-101"/>
     <use x="416.425781" xlink:href="#DejaVuSans-32"/>
     <use x="448.212891" xlink:href="#DejaVuSans-97"/>
     <use x="509.492188" xlink:href="#DejaVuSans-114"/>
     <use x="550.589844" xlink:href="#DejaVuSans-114"/>
     <use x="591.703125" xlink:href="#DejaVuSans-97"/>
     <use x="652.982422" xlink:href="#DejaVuSans-121"/>
     <use x="712.162109" xlink:href="#DejaVuSans-32"/>
     <use x="743.949219" xlink:href="#DejaVuSans-40"/>
     <use x="782.962891" xlink:href="#DejaVuSans-67"/>
     <use x="852.787109" xlink:href="#DejaVuSans-114"/>
     <use x="893.869141" xlink:href="#DejaVuSans-111"/>
     <use x="955.050781" xlink:href="#DejaVuSans-119"/>
     <use x="1036.837891" xlink:href="#DejaVuSans-32"/>
     <use x="1068.625" xlink:href="#DejaVuSans-101"/>
     <use x="1130.148438" xlink:href="#DejaVuSans-116"/>
     <use x="1169.357422" xlink:href="#DejaVuSans-46"/>
     <use x="1201.144531" xlink:href="#DejaVuSans-32"/>
     <use x="1232.931641" xlink:href="#DejaVuSans-97"/>
     <use x="1294.210938" xlink:href="#DejaVuSans-108"/>
     <use x="1321.994141" xlink:href="#DejaVuSans-46"/>
     <use x="1353.78125" xlink:href="#DejaVuSans-41"/>
     <use x="1392.794922" xlink:href="#DejaVuSans-32"/>
     <use x="1424.582031" xlink:href="#DejaVuSans-101"/>
     <use x="1486.089844" xlink:href="#DejaVuSans-120"/>
     <use x="1545.269531" xlink:href="#DejaVuSans-112"/>
     <use x="1608.746094" xlink:href="#DejaVuSans-114"/>
     <use x="1649.828125" xlink:href="#DejaVuSans-101"/>
     <use x="1711.351562" xlink:href="#DejaVuSans-115"/>
     <use x="1763.451172" xlink:href="#DejaVuSans-115"/>
     <use x="1815.550781" xlink:href="#DejaVuSans-105"/>
     <use x="1843.333984" xlink:href="#DejaVuSans-111"/>
     <use x="1904.515625" xlink:href="#DejaVuSans-110"/>
    </g>
   </g>
  </g>
 </g>
 <defs>
  <clipPath id="p2682b7f3bb">
   <rect height="217.44" width="334.8" x="248.6925" y="19.677187"/>
  </clipPath>
 </defs>
</svg>
