<?xml version="1.0" encoding="utf-8" standalone="no"?>
<!DOCTYPE svg PUBLIC "-//W3C//DTD SVG 1.1//EN"
  "http://www.w3.org/Graphics/SVG/1.1/DTD/svg11.dtd">
<!-- Created with matplotlib (https://matplotlib.org/) -->
<svg height="275.250937pt" version="1.1" viewBox="0 0 590.829062 275.250937" width="590.829062pt" xmlns="http://www.w3.org/2000/svg" xmlns:xlink="http://www.w3.org/1999/xlink">
 <defs>
  <style type="text/css">
*{stroke-linecap:butt;stroke-linejoin:round;}
  </style>
 </defs>
 <g id="figure_1">
  <g id="patch_1">
   <path d="M 0 275.250937
L 590.829062 275.250937
L 590.829062 0
L 0 0
z
" style="fill:none;"/>
  </g>
  <g id="axes_1">
   <g id="patch_2">
    <path d="M 246.3175 237.117187
L 581.1175 237.117187
L 581.1175 19.677187
L 246.3175 19.677187
z
" style="fill:none;"/>
   </g>
   <g id="PolyCollection_1">
    <defs>
     <path d="M 268.884919 -219.333034
L 268.884919 -219.334466
L 271.885064 -219.335737
L 274.88521 -219.337961
L 277.885355 -219.340792
L 280.8855 -219.343625
L 283.885646 -219.34664
L 286.885791 -219.351618
L 289.885937 -219.36185
L 292.886082 -219.382159
L 295.886228 -219.420685
L 298.886373 -219.491315
L 301.886519 -219.611469
L 304.886664 -219.793117
L 307.886809 -220.035577
L 310.886955 -220.331135
L 313.8871 -220.682136
L 316.887246 -221.11744
L 319.887391 -221.698603
L 322.887537 -222.51121
L 325.887682 -223.629468
L 328.887828 -225.052228
L 331.887973 -226.664714
L 334.888119 -228.283089
L 337.888264 -229.735886
L 340.888409 -230.898258
L 343.888555 -231.689334
L 346.8887 -232.076843
L 349.888846 -232.078284
L 352.888991 -231.758781
L 355.889137 -231.233257
L 358.889282 -230.628505
L 361.889428 -230.014768
L 364.889573 -229.405446
L 367.889718 -228.821067
L 370.889864 -228.302387
L 373.890009 -227.867639
L 376.890155 -227.500116
L 379.8903 -227.175539
L 382.890446 -226.888503
L 385.890591 -226.653605
L 388.890737 -226.478103
L 391.890882 -226.342956
L 394.891028 -226.219995
L 397.891173 -226.088284
L 400.891318 -225.921229
L 403.891464 -225.678552
L 406.891609 -225.337532
L 409.891755 -224.929216
L 412.8919 -224.516025
L 415.892046 -224.132474
L 418.892191 -223.770691
L 421.892337 -223.413633
L 424.892482 -223.056463
L 427.892627 -222.704493
L 430.892773 -222.369948
L 433.892918 -222.068177
L 436.893064 -221.809851
L 439.893209 -221.594765
L 442.893355 -221.408723
L 445.8935 -221.229462
L 448.893646 -221.045236
L 451.893791 -220.863985
L 454.893937 -220.696108
L 457.894082 -220.537779
L 460.894227 -220.381438
L 463.894373 -220.231928
L 466.894518 -220.102508
L 469.894664 -220.001782
L 472.894809 -219.927524
L 475.894955 -219.86924
L 478.8951 -219.817148
L 481.895246 -219.768306
L 484.895391 -219.723189
L 487.895536 -219.680156
L 490.895682 -219.636473
L 493.895827 -219.593547
L 496.895973 -219.557082
L 499.896118 -219.529973
L 502.896264 -219.507675
L 505.896409 -219.482842
L 508.896555 -219.453147
L 511.8967 -219.423031
L 514.896846 -219.398485
L 517.896991 -219.381436
L 520.897136 -219.36924
L 523.897282 -219.358557
L 526.897427 -219.348674
L 529.897573 -219.341003
L 532.897718 -219.336494
L 535.897864 -219.334566
L 538.898009 -219.33408
L 541.898155 -219.334448
L 544.8983 -219.335827
L 547.898445 -219.33846
L 550.898591 -219.341616
L 553.898736 -219.343414
L 556.898882 -219.342482
L 559.899027 -219.339553
L 562.899173 -219.336586
L 565.899318 -219.334769
L 565.899318 -219.332731
L 565.899318 -219.332731
L 562.899173 -219.330914
L 559.899027 -219.327947
L 556.898882 -219.325018
L 553.898736 -219.324086
L 550.898591 -219.325884
L 547.898445 -219.32904
L 544.8983 -219.331673
L 541.898155 -219.333052
L 538.898009 -219.33342
L 535.897864 -219.332934
L 532.897718 -219.331006
L 529.897573 -219.326497
L 526.897427 -219.318826
L 523.897282 -219.308943
L 520.897136 -219.29826
L 517.896991 -219.286064
L 514.896846 -219.269015
L 511.8967 -219.244469
L 508.896555 -219.214353
L 505.896409 -219.184658
L 502.896264 -219.159825
L 499.896118 -219.137527
L 496.895973 -219.110418
L 493.895827 -219.073953
L 490.895682 -219.031027
L 487.895536 -218.987344
L 484.895391 -218.944311
L 481.895246 -218.899194
L 478.8951 -218.850352
L 475.894955 -218.79826
L 472.894809 -218.739976
L 469.894664 -218.665718
L 466.894518 -218.564992
L 463.894373 -218.435572
L 460.894227 -218.286062
L 457.894082 -218.129721
L 454.893937 -217.971392
L 451.893791 -217.803515
L 448.893646 -217.622264
L 445.8935 -217.438038
L 442.893355 -217.258777
L 439.893209 -217.072735
L 436.893064 -216.857649
L 433.892918 -216.599323
L 430.892773 -216.297552
L 427.892627 -215.963007
L 424.892482 -215.611037
L 421.892337 -215.253867
L 418.892191 -214.896809
L 415.892046 -214.535026
L 412.8919 -214.151475
L 409.891755 -213.738284
L 406.891609 -213.329968
L 403.891464 -212.988948
L 400.891318 -212.746271
L 397.891173 -212.579216
L 394.891028 -212.447505
L 391.890882 -212.324544
L 388.890737 -212.189397
L 385.890591 -212.013895
L 382.890446 -211.778997
L 379.8903 -211.491961
L 376.890155 -211.167384
L 373.890009 -210.799861
L 370.889864 -210.365113
L 367.889718 -209.846433
L 364.889573 -209.262054
L 361.889428 -208.652732
L 358.889282 -208.038995
L 355.889137 -207.434243
L 352.888991 -206.908719
L 349.888846 -206.589216
L 346.8887 -206.590657
L 343.888555 -206.978166
L 340.888409 -207.769242
L 337.888264 -208.931614
L 334.888119 -210.384411
L 331.887973 -212.002786
L 328.887828 -213.615272
L 325.887682 -215.038032
L 322.887537 -216.15629
L 319.887391 -216.968897
L 316.887246 -217.55006
L 313.8871 -217.985364
L 310.886955 -218.336365
L 307.886809 -218.631923
L 304.886664 -218.874383
L 301.886519 -219.056031
L 298.886373 -219.176185
L 295.886228 -219.246815
L 292.886082 -219.285341
L 289.885937 -219.30565
L 286.885791 -219.315882
L 283.885646 -219.32086
L 280.8855 -219.323875
L 277.885355 -219.326708
L 274.88521 -219.329539
L 271.885064 -219.331763
L 268.884919 -219.333034
z
" id="ma3aa5fc06c" style="stroke:#444444;stroke-width:1.5;"/>
    </defs>
    <g clip-path="url(#pde81fb934e)">
     <use style="fill:#d3d3d3;stroke:#444444;stroke-width:1.5;" x="0" xlink:href="#ma3aa5fc06c" y="275.250937"/>
    </g>
   </g>
   <g id="PolyCollection_2">
    <defs>
     <path d="M 261.535682 -146.845783
L 261.535682 -146.861717
L 264.323186 -146.867855
L 267.11069 -146.87649
L 269.898194 -146.887191
L 272.685698 -146.898767
L 275.473202 -146.909639
L 278.260706 -146.918713
L 281.04821 -146.926525
L 283.835714 -146.936174
L 286.623218 -146.95377
L 289.410722 -146.988439
L 292.198226 -147.052286
L 294.985731 -147.160463
L 297.773235 -147.330826
L 300.560739 -147.582081
L 303.348243 -147.929575
L 306.135747 -148.379399
L 308.923251 -148.923352
L 311.710755 -149.538071
L 314.498259 -150.190208
L 317.285763 -150.84637
L 320.073267 -151.483705
L 322.860771 -152.096516
L 325.648275 -152.696283
L 328.435779 -153.305597
L 331.223283 -153.94859
L 334.010787 -154.640973
L 336.798291 -155.382252
L 339.585795 -156.151999
L 342.3733 -156.911497
L 345.160804 -157.610991
L 347.948308 -158.201088
L 350.735812 -158.644916
L 353.523316 -158.926594
L 356.31082 -159.052536
L 359.098324 -159.045238
L 361.885828 -158.932708
L 364.673332 -158.738508
L 367.460836 -158.476254
L 370.24834 -158.149651
L 373.035844 -157.756689
L 375.823348 -157.29555
L 378.610852 -156.769615
L 381.398356 -156.189506
L 384.18586 -155.571511
L 386.973365 -154.933889
L 389.760869 -154.293857
L 392.548373 -153.667107
L 395.335877 -153.068982
L 398.123381 -152.514714
L 400.910885 -152.01705
L 403.698389 -151.582558
L 406.485893 -151.209704
L 409.273397 -150.890694
L 412.060901 -150.615992
L 414.848405 -150.378144
L 417.635909 -150.172247
L 420.423413 -149.993226
L 423.210917 -149.832634
L 425.998421 -149.677818
L 428.785925 -149.51416
L 431.573429 -149.328845
L 434.360934 -149.11403
L 437.148438 -148.868435
L 439.935942 -148.597661
L 442.723446 -148.313736
L 445.51095 -148.033741
L 448.298454 -147.777093
L 451.085958 -147.56159
L 453.873462 -147.39929
L 456.660966 -147.293673
L 459.44847 -147.239133
L 462.235974 -147.222963
L 465.023478 -147.229049
L 467.810982 -147.241953
L 470.598486 -147.250035
L 473.38599 -147.24674
L 476.173494 -147.2301
L 478.960998 -147.201219
L 481.748503 -147.162799
L 484.536007 -147.118321
L 487.323511 -147.071823
L 490.111015 -147.027751
L 492.898519 -146.990378
L 495.686023 -146.962838
L 498.473527 -146.946232
L 501.261031 -146.93937
L 504.048535 -146.939343
L 506.836039 -146.942614
L 509.623543 -146.946043
L 512.411047 -146.947411
L 515.198551 -146.945433
L 517.986055 -146.939571
L 520.773559 -146.929954
L 523.561063 -146.917403
L 526.348568 -146.903367
L 529.136072 -146.88959
L 531.923576 -146.877606
L 534.71108 -146.868321
L 537.498584 -146.861892
L 537.498584 -146.845608
L 537.498584 -146.845608
L 534.71108 -146.839179
L 531.923576 -146.829894
L 529.136072 -146.81791
L 526.348568 -146.804133
L 523.561063 -146.790097
L 520.773559 -146.777546
L 517.986055 -146.767929
L 515.198551 -146.762067
L 512.411047 -146.760089
L 509.623543 -146.761457
L 506.836039 -146.764886
L 504.048535 -146.768157
L 501.261031 -146.76813
L 498.473527 -146.761268
L 495.686023 -146.744662
L 492.898519 -146.717122
L 490.111015 -146.679749
L 487.323511 -146.635677
L 484.536007 -146.589179
L 481.748503 -146.544701
L 478.960998 -146.506281
L 476.173494 -146.4774
L 473.38599 -146.46076
L 470.598486 -146.457465
L 467.810982 -146.465547
L 465.023478 -146.478451
L 462.235974 -146.484537
L 459.44847 -146.468367
L 456.660966 -146.413827
L 453.873462 -146.30821
L 451.085958 -146.14591
L 448.298454 -145.930407
L 445.51095 -145.673759
L 442.723446 -145.393764
L 439.935942 -145.109839
L 437.148438 -144.839065
L 434.360934 -144.59347
L 431.573429 -144.378655
L 428.785925 -144.19334
L 425.998421 -144.029682
L 423.210917 -143.874866
L 420.423413 -143.714274
L 417.635909 -143.535253
L 414.848405 -143.329356
L 412.060901 -143.091508
L 409.273397 -142.816806
L 406.485893 -142.497796
L 403.698389 -142.124942
L 400.910885 -141.69045
L 398.123381 -141.192786
L 395.335877 -140.638518
L 392.548373 -140.040393
L 389.760869 -139.413643
L 386.973365 -138.773611
L 384.18586 -138.135989
L 381.398356 -137.517994
L 378.610852 -136.937885
L 375.823348 -136.41195
L 373.035844 -135.950811
L 370.24834 -135.557849
L 367.460836 -135.231246
L 364.673332 -134.968992
L 361.885828 -134.774792
L 359.098324 -134.662262
L 356.31082 -134.654964
L 353.523316 -134.780906
L 350.735812 -135.062584
L 347.948308 -135.506412
L 345.160804 -136.096509
L 342.3733 -136.796003
L 339.585795 -137.555501
L 336.798291 -138.325248
L 334.010787 -139.066527
L 331.223283 -139.75891
L 328.435779 -140.401903
L 325.648275 -141.011217
L 322.860771 -141.610984
L 320.073267 -142.223795
L 317.285763 -142.86113
L 314.498259 -143.517292
L 311.710755 -144.169429
L 308.923251 -144.784148
L 306.135747 -145.328101
L 303.348243 -145.777925
L 300.560739 -146.125419
L 297.773235 -146.376674
L 294.985731 -146.547037
L 292.198226 -146.655214
L 289.410722 -146.719061
L 286.623218 -146.75373
L 283.835714 -146.771326
L 281.04821 -146.780975
L 278.260706 -146.788787
L 275.473202 -146.797861
L 272.685698 -146.808733
L 269.898194 -146.820309
L 267.11069 -146.83101
L 264.323186 -146.839645
L 261.535682 -146.845783
z
" id="m10f66c33b1" style="stroke:#444444;stroke-width:1.5;"/>
    </defs>
    <g clip-path="url(#pde81fb934e)">
     <use style="fill:#3d7ca6;stroke:#444444;stroke-width:1.5;" x="0" xlink:href="#m10f66c33b1" y="275.250937"/>
    </g>
   </g>
   <g id="PolyCollection_3">
    <defs>
     <path d="M 294.063833 -74.357357
L 294.063833 -74.390143
L 295.808715 -74.408271
L 297.553597 -74.435154
L 299.298479 -74.466439
L 301.043361 -74.493965
L 302.788243 -74.511943
L 304.533125 -74.524508
L 306.278008 -74.547332
L 308.02289 -74.600608
L 309.767772 -74.699611
L 311.512654 -74.851971
L 313.257536 -75.063422
L 315.002418 -75.344878
L 316.7473 -75.71531
L 318.492183 -76.205278
L 320.237065 -76.866921
L 321.981947 -77.779761
L 323.726829 -79.031548
L 325.471711 -80.675043
L 327.216593 -82.69494
L 328.961475 -85.016272
L 330.706357 -87.543344
L 332.45124 -90.18901
L 334.196122 -92.871958
L 335.941004 -95.495918
L 337.685886 -97.937234
L 339.430768 -100.054804
L 341.17565 -101.718451
L 342.920532 -102.83731
L 344.665415 -103.36575
L 346.410297 -103.283728
L 348.155179 -102.580919
L 349.900061 -101.276192
L 351.644943 -99.459101
L 353.389825 -97.303296
L 355.134707 -95.028076
L 356.879589 -92.838063
L 358.624472 -90.881176
L 360.369354 -89.231308
L 362.114236 -87.879701
L 363.859118 -86.733057
L 365.604 -85.639382
L 367.348882 -84.453547
L 369.093764 -83.111926
L 370.838647 -81.660512
L 372.583529 -80.215356
L 374.328411 -78.893216
L 376.073293 -77.765839
L 377.818175 -76.856154
L 379.563057 -76.158839
L 381.307939 -75.660897
L 383.052821 -75.348628
L 384.797704 -75.200834
L 386.542586 -75.179292
L 388.287468 -75.229759
L 390.03235 -75.296456
L 391.777232 -75.339858
L 393.522114 -75.345357
L 395.266996 -75.319117
L 397.011879 -75.275997
L 398.756761 -75.226708
L 400.501643 -75.171025
L 402.246525 -75.101198
L 403.991407 -75.011568
L 405.736289 -74.904707
L 407.481171 -74.790131
L 409.226054 -74.680537
L 410.970936 -74.589564
L 412.715818 -74.528985
L 414.4607 -74.50373
L 416.205582 -74.508402
L 417.950464 -74.529797
L 419.695346 -74.554387
L 421.440228 -74.574695
L 423.185111 -74.589824
L 424.929993 -74.601605
L 426.674875 -74.611123
L 428.419757 -74.617739
L 430.164639 -74.619244
L 431.909521 -74.612119
L 433.654403 -74.592679
L 435.399286 -74.559595
L 437.144168 -74.516281
L 438.88905 -74.470579
L 440.633932 -74.431129
L 442.378814 -74.403135
L 444.123696 -74.386936
L 445.868578 -74.379962
L 447.61346 -74.379834
L 449.358343 -74.386301
L 451.103225 -74.400954
L 452.848107 -74.424721
L 454.592989 -74.454396
L 456.337871 -74.481245
L 458.082753 -74.494428
L 459.827635 -74.487851
L 461.572518 -74.46461
L 463.3174 -74.434687
L 465.062282 -74.40817
L 466.807164 -74.390124
L 466.807164 -74.357376
L 466.807164 -74.357376
L 465.062282 -74.33933
L 463.3174 -74.312813
L 461.572518 -74.28289
L 459.827635 -74.259649
L 458.082753 -74.253072
L 456.337871 -74.266255
L 454.592989 -74.293104
L 452.848107 -74.322779
L 451.103225 -74.346546
L 449.358343 -74.361199
L 447.61346 -74.367666
L 445.868578 -74.367538
L 444.123696 -74.360564
L 442.378814 -74.344365
L 440.633932 -74.316371
L 438.88905 -74.276921
L 437.144168 -74.231219
L 435.399286 -74.187905
L 433.654403 -74.154821
L 431.909521 -74.135381
L 430.164639 -74.128256
L 428.419757 -74.129761
L 426.674875 -74.136377
L 424.929993 -74.145895
L 423.185111 -74.157676
L 421.440228 -74.172805
L 419.695346 -74.193113
L 417.950464 -74.217703
L 416.205582 -74.239098
L 414.4607 -74.24377
L 412.715818 -74.218515
L 410.970936 -74.157936
L 409.226054 -74.066963
L 407.481171 -73.957369
L 405.736289 -73.842793
L 403.991407 -73.735932
L 402.246525 -73.646302
L 400.501643 -73.576475
L 398.756761 -73.520792
L 397.011879 -73.471503
L 395.266996 -73.428383
L 393.522114 -73.402143
L 391.777232 -73.407642
L 390.03235 -73.451044
L 388.287468 -73.517741
L 386.542586 -73.568208
L 384.797704 -73.546666
L 383.052821 -73.398872
L 381.307939 -73.086603
L 379.563057 -72.588661
L 377.818175 -71.891346
L 376.073293 -70.981661
L 374.328411 -69.854284
L 372.583529 -68.532144
L 370.838647 -67.086988
L 369.093764 -65.635574
L 367.348882 -64.293953
L 365.604 -63.108118
L 363.859118 -62.014443
L 362.114236 -60.867799
L 360.369354 -59.516192
L 358.624472 -57.866324
L 356.879589 -55.909437
L 355.134707 -53.719424
L 353.389825 -51.444204
L 351.644943 -49.288399
L 349.900061 -47.471308
L 348.155179 -46.166581
L 346.410297 -45.463772
L 344.665415 -45.38175
L 342.920532 -45.91019
L 341.17565 -47.029049
L 339.430768 -48.692696
L 337.685886 -50.810266
L 335.941004 -53.251582
L 334.196122 -55.875542
L 332.45124 -58.55849
L 330.706357 -61.204156
L 328.961475 -63.731228
L 327.216593 -66.05256
L 325.471711 -68.072457
L 323.726829 -69.715952
L 321.981947 -70.967739
L 320.237065 -71.880579
L 318.492183 -72.542222
L 316.7473 -73.03219
L 315.002418 -73.402622
L 313.257536 -73.684078
L 311.512654 -73.895529
L 309.767772 -74.047889
L 308.02289 -74.146892
L 306.278008 -74.200168
L 304.533125 -74.222992
L 302.788243 -74.235557
L 301.043361 -74.253535
L 299.298479 -74.281061
L 297.553597 -74.312346
L 295.808715 -74.339229
L 294.063833 -74.357357
z
" id="m0b4611ecae" style="stroke:#444444;stroke-width:1.5;"/>
    </defs>
    <g clip-path="url(#pde81fb934e)">
     <use style="fill:#b4d4df;stroke:#444444;stroke-width:1.5;" x="0" xlink:href="#m0b4611ecae" y="275.250937"/>
    </g>
   </g>
   <g id="matplotlib.axis_1">
    <g id="xtick_1">
     <g id="line2d_1">
      <defs>
       <path d="M 0 0
L 0 3.5
" id="m77f6c15324" style="stroke:#000000;stroke-width:0.8;"/>
      </defs>
      <g>
       <use style="stroke:#000000;stroke-width:0.8;" x="285.07101" xlink:href="#m77f6c15324" y="237.117187"/>
      </g>
     </g>
     <g id="text_1">
      <!-- 0 -->
      <defs>
       <path d="M 31.78125 66.40625
Q 24.171875 66.40625 20.328125 58.90625
Q 16.5 51.421875 16.5 36.375
Q 16.5 21.390625 20.328125 13.890625
Q 24.171875 6.390625 31.78125 6.390625
Q 39.453125 6.390625 43.28125 13.890625
Q 47.125 21.390625 47.125 36.375
Q 47.125 51.421875 43.28125 58.90625
Q 39.453125 66.40625 31.78125 66.40625
z
M 31.78125 74.21875
Q 44.046875 74.21875 50.515625 64.515625
Q 56.984375 54.828125 56.984375 36.375
Q 56.984375 17.96875 50.515625 8.265625
Q 44.046875 -1.421875 31.78125 -1.421875
Q 19.53125 -1.421875 13.0625 8.265625
Q 6.59375 17.96875 6.59375 36.375
Q 6.59375 54.828125 13.0625 64.515625
Q 19.53125 74.21875 31.78125 74.21875
z
" id="DejaVuSans-48"/>
      </defs>
      <g transform="translate(281.25351 253.235312)scale(0.12 -0.12)">
       <use xlink:href="#DejaVuSans-48"/>
      </g>
     </g>
    </g>
    <g id="xtick_2">
     <g id="line2d_2">
      <g>
       <use style="stroke:#000000;stroke-width:0.8;" x="356.950734" xlink:href="#m77f6c15324" y="237.117187"/>
      </g>
     </g>
     <g id="text_2">
      <!-- 1 -->
      <defs>
       <path d="M 12.40625 8.296875
L 28.515625 8.296875
L 28.515625 63.921875
L 10.984375 60.40625
L 10.984375 69.390625
L 28.421875 72.90625
L 38.28125 72.90625
L 38.28125 8.296875
L 54.390625 8.296875
L 54.390625 0
L 12.40625 0
z
" id="DejaVuSans-49"/>
      </defs>
      <g transform="translate(353.133234 253.235312)scale(0.12 -0.12)">
       <use xlink:href="#DejaVuSans-49"/>
      </g>
     </g>
    </g>
    <g id="xtick_3">
     <g id="line2d_3">
      <g>
       <use style="stroke:#000000;stroke-width:0.8;" x="428.830457" xlink:href="#m77f6c15324" y="237.117187"/>
      </g>
     </g>
     <g id="text_3">
      <!-- 2 -->
      <defs>
       <path d="M 19.1875 8.296875
L 53.609375 8.296875
L 53.609375 0
L 7.328125 0
L 7.328125 8.296875
Q 12.9375 14.109375 22.625 23.890625
Q 32.328125 33.6875 34.8125 36.53125
Q 39.546875 41.84375 41.421875 45.53125
Q 43.3125 49.21875 43.3125 52.78125
Q 43.3125 58.59375 39.234375 62.25
Q 35.15625 65.921875 28.609375 65.921875
Q 23.96875 65.921875 18.8125 64.3125
Q 13.671875 62.703125 7.8125 59.421875
L 7.8125 69.390625
Q 13.765625 71.78125 18.9375 73
Q 24.125 74.21875 28.421875 74.21875
Q 39.75 74.21875 46.484375 68.546875
Q 53.21875 62.890625 53.21875 53.421875
Q 53.21875 48.921875 51.53125 44.890625
Q 49.859375 40.875 45.40625 35.40625
Q 44.1875 33.984375 37.640625 27.21875
Q 31.109375 20.453125 19.1875 8.296875
z
" id="DejaVuSans-50"/>
      </defs>
      <g transform="translate(425.012957 253.235312)scale(0.12 -0.12)">
       <use xlink:href="#DejaVuSans-50"/>
      </g>
     </g>
    </g>
    <g id="xtick_4">
     <g id="line2d_4">
      <g>
       <use style="stroke:#000000;stroke-width:0.8;" x="500.710181" xlink:href="#m77f6c15324" y="237.117187"/>
      </g>
     </g>
     <g id="text_4">
      <!-- 3 -->
      <defs>
       <path d="M 40.578125 39.3125
Q 47.65625 37.796875 51.625 33
Q 55.609375 28.21875 55.609375 21.1875
Q 55.609375 10.40625 48.1875 4.484375
Q 40.765625 -1.421875 27.09375 -1.421875
Q 22.515625 -1.421875 17.65625 -0.515625
Q 12.796875 0.390625 7.625 2.203125
L 7.625 11.71875
Q 11.71875 9.328125 16.59375 8.109375
Q 21.484375 6.890625 26.8125 6.890625
Q 36.078125 6.890625 40.9375 10.546875
Q 45.796875 14.203125 45.796875 21.1875
Q 45.796875 27.640625 41.28125 31.265625
Q 36.765625 34.90625 28.71875 34.90625
L 20.21875 34.90625
L 20.21875 43.015625
L 29.109375 43.015625
Q 36.375 43.015625 40.234375 45.921875
Q 44.09375 48.828125 44.09375 54.296875
Q 44.09375 59.90625 40.109375 62.90625
Q 36.140625 65.921875 28.71875 65.921875
Q 24.65625 65.921875 20.015625 65.03125
Q 15.375 64.15625 9.8125 62.3125
L 9.8125 71.09375
Q 15.4375 72.65625 20.34375 73.4375
Q 25.25 74.21875 29.59375 74.21875
Q 40.828125 74.21875 47.359375 69.109375
Q 53.90625 64.015625 53.90625 55.328125
Q 53.90625 49.265625 50.4375 45.09375
Q 46.96875 40.921875 40.578125 39.3125
z
" id="DejaVuSans-51"/>
      </defs>
      <g transform="translate(496.892681 253.235312)scale(0.12 -0.12)">
       <use xlink:href="#DejaVuSans-51"/>
      </g>
     </g>
    </g>
    <g id="xtick_5">
     <g id="line2d_5">
      <g>
       <use style="stroke:#000000;stroke-width:0.8;" x="572.589904" xlink:href="#m77f6c15324" y="237.117187"/>
      </g>
     </g>
     <g id="text_5">
      <!-- 4 -->
      <defs>
       <path d="M 37.796875 64.3125
L 12.890625 25.390625
L 37.796875 25.390625
z
M 35.203125 72.90625
L 47.609375 72.90625
L 47.609375 25.390625
L 58.015625 25.390625
L 58.015625 17.1875
L 47.609375 17.1875
L 47.609375 0
L 37.796875 0
L 37.796875 17.1875
L 4.890625 17.1875
L 4.890625 26.703125
z
" id="DejaVuSans-52"/>
      </defs>
      <g transform="translate(568.772404 253.235312)scale(0.12 -0.12)">
       <use xlink:href="#DejaVuSans-52"/>
      </g>
     </g>
    </g>
    <g id="text_6">
     <!-- log$_{10}$ (average expression) -->
     <defs>
      <path d="M 9.421875 75.984375
L 18.40625 75.984375
L 18.40625 0
L 9.421875 0
z
" id="DejaVuSans-108"/>
      <path d="M 30.609375 48.390625
Q 23.390625 48.390625 19.1875 42.75
Q 14.984375 37.109375 14.984375 27.296875
Q 14.984375 17.484375 19.15625 11.84375
Q 23.34375 6.203125 30.609375 6.203125
Q 37.796875 6.203125 41.984375 11.859375
Q 46.1875 17.53125 46.1875 27.296875
Q 46.1875 37.015625 41.984375 42.703125
Q 37.796875 48.390625 30.609375 48.390625
z
M 30.609375 56
Q 42.328125 56 49.015625 48.375
Q 55.71875 40.765625 55.71875 27.296875
Q 55.71875 13.875 49.015625 6.21875
Q 42.328125 -1.421875 30.609375 -1.421875
Q 18.84375 -1.421875 12.171875 6.21875
Q 5.515625 13.875 5.515625 27.296875
Q 5.515625 40.765625 12.171875 48.375
Q 18.84375 56 30.609375 56
z
" id="DejaVuSans-111"/>
      <path d="M 45.40625 27.984375
Q 45.40625 37.75 41.375 43.109375
Q 37.359375 48.484375 30.078125 48.484375
Q 22.859375 48.484375 18.828125 43.109375
Q 14.796875 37.75 14.796875 27.984375
Q 14.796875 18.265625 18.828125 12.890625
Q 22.859375 7.515625 30.078125 7.515625
Q 37.359375 7.515625 41.375 12.890625
Q 45.40625 18.265625 45.40625 27.984375
z
M 54.390625 6.78125
Q 54.390625 -7.171875 48.1875 -13.984375
Q 42 -20.796875 29.203125 -20.796875
Q 24.46875 -20.796875 20.265625 -20.09375
Q 16.0625 -19.390625 12.109375 -17.921875
L 12.109375 -9.1875
Q 16.0625 -11.328125 19.921875 -12.34375
Q 23.78125 -13.375 27.78125 -13.375
Q 36.625 -13.375 41.015625 -8.765625
Q 45.40625 -4.15625 45.40625 5.171875
L 45.40625 9.625
Q 42.625 4.78125 38.28125 2.390625
Q 33.9375 0 27.875 0
Q 17.828125 0 11.671875 7.65625
Q 5.515625 15.328125 5.515625 27.984375
Q 5.515625 40.671875 11.671875 48.328125
Q 17.828125 56 27.875 56
Q 33.9375 56 38.28125 53.609375
Q 42.625 51.21875 45.40625 46.390625
L 45.40625 54.6875
L 54.390625 54.6875
z
" id="DejaVuSans-103"/>
      <path id="DejaVuSans-32"/>
      <path d="M 31 75.875
Q 24.46875 64.65625 21.28125 53.65625
Q 18.109375 42.671875 18.109375 31.390625
Q 18.109375 20.125 21.3125 9.0625
Q 24.515625 -2 31 -13.1875
L 23.1875 -13.1875
Q 15.875 -1.703125 12.234375 9.375
Q 8.59375 20.453125 8.59375 31.390625
Q 8.59375 42.28125 12.203125 53.3125
Q 15.828125 64.359375 23.1875 75.875
z
" id="DejaVuSans-40"/>
      <path d="M 34.28125 27.484375
Q 23.390625 27.484375 19.1875 25
Q 14.984375 22.515625 14.984375 16.5
Q 14.984375 11.71875 18.140625 8.90625
Q 21.296875 6.109375 26.703125 6.109375
Q 34.1875 6.109375 38.703125 11.40625
Q 43.21875 16.703125 43.21875 25.484375
L 43.21875 27.484375
z
M 52.203125 31.203125
L 52.203125 0
L 43.21875 0
L 43.21875 8.296875
Q 40.140625 3.328125 35.546875 0.953125
Q 30.953125 -1.421875 24.3125 -1.421875
Q 15.921875 -1.421875 10.953125 3.296875
Q 6 8.015625 6 15.921875
Q 6 25.140625 12.171875 29.828125
Q 18.359375 34.515625 30.609375 34.515625
L 43.21875 34.515625
L 43.21875 35.40625
Q 43.21875 41.609375 39.140625 45
Q 35.0625 48.390625 27.6875 48.390625
Q 23 48.390625 18.546875 47.265625
Q 14.109375 46.140625 10.015625 43.890625
L 10.015625 52.203125
Q 14.9375 54.109375 19.578125 55.046875
Q 24.21875 56 28.609375 56
Q 40.484375 56 46.34375 49.84375
Q 52.203125 43.703125 52.203125 31.203125
z
" id="DejaVuSans-97"/>
      <path d="M 2.984375 54.6875
L 12.5 54.6875
L 29.59375 8.796875
L 46.6875 54.6875
L 56.203125 54.6875
L 35.6875 0
L 23.484375 0
z
" id="DejaVuSans-118"/>
      <path d="M 56.203125 29.59375
L 56.203125 25.203125
L 14.890625 25.203125
Q 15.484375 15.921875 20.484375 11.0625
Q 25.484375 6.203125 34.421875 6.203125
Q 39.59375 6.203125 44.453125 7.46875
Q 49.3125 8.734375 54.109375 11.28125
L 54.109375 2.78125
Q 49.265625 0.734375 44.1875 -0.34375
Q 39.109375 -1.421875 33.890625 -1.421875
Q 20.796875 -1.421875 13.15625 6.1875
Q 5.515625 13.8125 5.515625 26.8125
Q 5.515625 40.234375 12.765625 48.109375
Q 20.015625 56 32.328125 56
Q 43.359375 56 49.78125 48.890625
Q 56.203125 41.796875 56.203125 29.59375
z
M 47.21875 32.234375
Q 47.125 39.59375 43.09375 43.984375
Q 39.0625 48.390625 32.421875 48.390625
Q 24.90625 48.390625 20.390625 44.140625
Q 15.875 39.890625 15.1875 32.171875
z
" id="DejaVuSans-101"/>
      <path d="M 41.109375 46.296875
Q 39.59375 47.171875 37.8125 47.578125
Q 36.03125 48 33.890625 48
Q 26.265625 48 22.1875 43.046875
Q 18.109375 38.09375 18.109375 28.8125
L 18.109375 0
L 9.078125 0
L 9.078125 54.6875
L 18.109375 54.6875
L 18.109375 46.1875
Q 20.953125 51.171875 25.484375 53.578125
Q 30.03125 56 36.53125 56
Q 37.453125 56 38.578125 55.875
Q 39.703125 55.765625 41.0625 55.515625
z
" id="DejaVuSans-114"/>
      <path d="M 54.890625 54.6875
L 35.109375 28.078125
L 55.90625 0
L 45.3125 0
L 29.390625 21.484375
L 13.484375 0
L 2.875 0
L 24.125 28.609375
L 4.6875 54.6875
L 15.28125 54.6875
L 29.78125 35.203125
L 44.28125 54.6875
z
" id="DejaVuSans-120"/>
      <path d="M 18.109375 8.203125
L 18.109375 -20.796875
L 9.078125 -20.796875
L 9.078125 54.6875
L 18.109375 54.6875
L 18.109375 46.390625
Q 20.953125 51.265625 25.265625 53.625
Q 29.59375 56 35.59375 56
Q 45.5625 56 51.78125 48.09375
Q 58.015625 40.1875 58.015625 27.296875
Q 58.015625 14.40625 51.78125 6.484375
Q 45.5625 -1.421875 35.59375 -1.421875
Q 29.59375 -1.421875 25.265625 0.953125
Q 20.953125 3.328125 18.109375 8.203125
z
M 48.6875 27.296875
Q 48.6875 37.203125 44.609375 42.84375
Q 40.53125 48.484375 33.40625 48.484375
Q 26.265625 48.484375 22.1875 42.84375
Q 18.109375 37.203125 18.109375 27.296875
Q 18.109375 17.390625 22.1875 11.75
Q 26.265625 6.109375 33.40625 6.109375
Q 40.53125 6.109375 44.609375 11.75
Q 48.6875 17.390625 48.6875 27.296875
z
" id="DejaVuSans-112"/>
      <path d="M 44.28125 53.078125
L 44.28125 44.578125
Q 40.484375 46.53125 36.375 47.5
Q 32.28125 48.484375 27.875 48.484375
Q 21.1875 48.484375 17.84375 46.4375
Q 14.5 44.390625 14.5 40.28125
Q 14.5 37.15625 16.890625 35.375
Q 19.28125 33.59375 26.515625 31.984375
L 29.59375 31.296875
Q 39.15625 29.25 43.1875 25.515625
Q 47.21875 21.78125 47.21875 15.09375
Q 47.21875 7.46875 41.1875 3.015625
Q 35.15625 -1.421875 24.609375 -1.421875
Q 20.21875 -1.421875 15.453125 -0.5625
Q 10.6875 0.296875 5.421875 2
L 5.421875 11.28125
Q 10.40625 8.6875 15.234375 7.390625
Q 20.0625 6.109375 24.8125 6.109375
Q 31.15625 6.109375 34.5625 8.28125
Q 37.984375 10.453125 37.984375 14.40625
Q 37.984375 18.0625 35.515625 20.015625
Q 33.0625 21.96875 24.703125 23.78125
L 21.578125 24.515625
Q 13.234375 26.265625 9.515625 29.90625
Q 5.8125 33.546875 5.8125 39.890625
Q 5.8125 47.609375 11.28125 51.796875
Q 16.75 56 26.8125 56
Q 31.78125 56 36.171875 55.265625
Q 40.578125 54.546875 44.28125 53.078125
z
" id="DejaVuSans-115"/>
      <path d="M 9.421875 54.6875
L 18.40625 54.6875
L 18.40625 0
L 9.421875 0
z
M 9.421875 75.984375
L 18.40625 75.984375
L 18.40625 64.59375
L 9.421875 64.59375
z
" id="DejaVuSans-105"/>
      <path d="M 54.890625 33.015625
L 54.890625 0
L 45.90625 0
L 45.90625 32.71875
Q 45.90625 40.484375 42.875 44.328125
Q 39.84375 48.1875 33.796875 48.1875
Q 26.515625 48.1875 22.3125 43.546875
Q 18.109375 38.921875 18.109375 30.90625
L 18.109375 0
L 9.078125 0
L 9.078125 54.6875
L 18.109375 54.6875
L 18.109375 46.1875
Q 21.34375 51.125 25.703125 53.5625
Q 30.078125 56 35.796875 56
Q 45.21875 56 50.046875 50.171875
Q 54.890625 44.34375 54.890625 33.015625
z
" id="DejaVuSans-110"/>
      <path d="M 8.015625 75.875
L 15.828125 75.875
Q 23.140625 64.359375 26.78125 53.3125
Q 30.421875 42.28125 30.421875 31.390625
Q 30.421875 20.453125 26.78125 9.375
Q 23.140625 -1.703125 15.828125 -13.1875
L 8.015625 -13.1875
Q 14.5 -2 17.703125 9.0625
Q 20.90625 20.125 20.90625 31.390625
Q 20.90625 42.671875 17.703125 53.65625
Q 14.5 64.65625 8.015625 75.875
z
" id="DejaVuSans-41"/>
     </defs>
     <g transform="translate(306.5175 271.890937)scale(0.16 -0.16)">
      <use transform="translate(0 0.015625)" xlink:href="#DejaVuSans-108"/>
      <use transform="translate(27.783203 0.015625)" xlink:href="#DejaVuSans-111"/>
      <use transform="translate(88.964844 0.015625)" xlink:href="#DejaVuSans-103"/>
      <use transform="translate(153.398438 -16.390625)scale(0.7)" xlink:href="#DejaVuSans-49"/>
      <use transform="translate(197.93457 -16.390625)scale(0.7)" xlink:href="#DejaVuSans-48"/>
      <use transform="translate(245.205078 0.015625)" xlink:href="#DejaVuSans-32"/>
      <use transform="translate(276.992188 0.015625)" xlink:href="#DejaVuSans-40"/>
      <use transform="translate(316.005859 0.015625)" xlink:href="#DejaVuSans-97"/>
      <use transform="translate(377.285156 0.015625)" xlink:href="#DejaVuSans-118"/>
      <use transform="translate(436.464844 0.015625)" xlink:href="#DejaVuSans-101"/>
      <use transform="translate(497.988281 0.015625)" xlink:href="#DejaVuSans-114"/>
      <use transform="translate(539.101562 0.015625)" xlink:href="#DejaVuSans-97"/>
      <use transform="translate(600.380859 0.015625)" xlink:href="#DejaVuSans-103"/>
      <use transform="translate(663.857422 0.015625)" xlink:href="#DejaVuSans-101"/>
      <use transform="translate(725.380859 0.015625)" xlink:href="#DejaVuSans-32"/>
      <use transform="translate(757.167969 0.015625)" xlink:href="#DejaVuSans-101"/>
      <use transform="translate(818.691406 0.015625)" xlink:href="#DejaVuSans-120"/>
      <use transform="translate(877.871094 0.015625)" xlink:href="#DejaVuSans-112"/>
      <use transform="translate(941.347656 0.015625)" xlink:href="#DejaVuSans-114"/>
      <use transform="translate(982.460938 0.015625)" xlink:href="#DejaVuSans-101"/>
      <use transform="translate(1043.984375 0.015625)" xlink:href="#DejaVuSans-115"/>
      <use transform="translate(1096.083984 0.015625)" xlink:href="#DejaVuSans-115"/>
      <use transform="translate(1148.183594 0.015625)" xlink:href="#DejaVuSans-105"/>
      <use transform="translate(1175.966797 0.015625)" xlink:href="#DejaVuSans-111"/>
      <use transform="translate(1237.148438 0.015625)" xlink:href="#DejaVuSans-110"/>
      <use transform="translate(1300.527344 0.015625)" xlink:href="#DejaVuSans-41"/>
     </g>
    </g>
   </g>
   <g id="matplotlib.axis_2">
    <g id="ytick_1">
     <g id="line2d_6">
      <defs>
       <path d="M 0 0
L -3.5 0
" id="m74ca1c0cae" style="stroke:#000000;stroke-width:0.8;"/>
      </defs>
      <g>
       <use style="stroke:#000000;stroke-width:0.8;" x="246.3175" xlink:href="#m74ca1c0cae" y="55.917187"/>
      </g>
     </g>
     <g id="text_7">
      <!-- all genes -->
      <g transform="translate(167.215 61.995937)scale(0.16 -0.16)">
       <use xlink:href="#DejaVuSans-97"/>
       <use x="61.279297" xlink:href="#DejaVuSans-108"/>
       <use x="89.0625" xlink:href="#DejaVuSans-108"/>
       <use x="116.845703" xlink:href="#DejaVuSans-32"/>
       <use x="148.632812" xlink:href="#DejaVuSans-103"/>
       <use x="212.109375" xlink:href="#DejaVuSans-101"/>
       <use x="273.632812" xlink:href="#DejaVuSans-110"/>
       <use x="337.011719" xlink:href="#DejaVuSans-101"/>
       <use x="398.535156" xlink:href="#DejaVuSans-115"/>
      </g>
     </g>
    </g>
    <g id="ytick_2">
     <g id="line2d_7">
      <g>
       <use style="stroke:#000000;stroke-width:0.8;" x="246.3175" xlink:href="#m74ca1c0cae" y="128.397187"/>
      </g>
     </g>
     <g id="text_8">
      <!-- common in RNAseq and array -->
      <defs>
       <path d="M 48.78125 52.59375
L 48.78125 44.1875
Q 44.96875 46.296875 41.140625 47.34375
Q 37.3125 48.390625 33.40625 48.390625
Q 24.65625 48.390625 19.8125 42.84375
Q 14.984375 37.3125 14.984375 27.296875
Q 14.984375 17.28125 19.8125 11.734375
Q 24.65625 6.203125 33.40625 6.203125
Q 37.3125 6.203125 41.140625 7.25
Q 44.96875 8.296875 48.78125 10.40625
L 48.78125 2.09375
Q 45.015625 0.34375 40.984375 -0.53125
Q 36.96875 -1.421875 32.421875 -1.421875
Q 20.0625 -1.421875 12.78125 6.34375
Q 5.515625 14.109375 5.515625 27.296875
Q 5.515625 40.671875 12.859375 48.328125
Q 20.21875 56 33.015625 56
Q 37.15625 56 41.109375 55.140625
Q 45.0625 54.296875 48.78125 52.59375
z
" id="DejaVuSans-99"/>
       <path d="M 52 44.1875
Q 55.375 50.25 60.0625 53.125
Q 64.75 56 71.09375 56
Q 79.640625 56 84.28125 50.015625
Q 88.921875 44.046875 88.921875 33.015625
L 88.921875 0
L 79.890625 0
L 79.890625 32.71875
Q 79.890625 40.578125 77.09375 44.375
Q 74.3125 48.1875 68.609375 48.1875
Q 61.625 48.1875 57.5625 43.546875
Q 53.515625 38.921875 53.515625 30.90625
L 53.515625 0
L 44.484375 0
L 44.484375 32.71875
Q 44.484375 40.625 41.703125 44.40625
Q 38.921875 48.1875 33.109375 48.1875
Q 26.21875 48.1875 22.15625 43.53125
Q 18.109375 38.875 18.109375 30.90625
L 18.109375 0
L 9.078125 0
L 9.078125 54.6875
L 18.109375 54.6875
L 18.109375 46.1875
Q 21.1875 51.21875 25.484375 53.609375
Q 29.78125 56 35.6875 56
Q 41.65625 56 45.828125 52.96875
Q 50 49.953125 52 44.1875
z
" id="DejaVuSans-109"/>
       <path d="M 44.390625 34.1875
Q 47.5625 33.109375 50.5625 29.59375
Q 53.5625 26.078125 56.59375 19.921875
L 66.609375 0
L 56 0
L 46.6875 18.703125
Q 43.0625 26.03125 39.671875 28.421875
Q 36.28125 30.8125 30.421875 30.8125
L 19.671875 30.8125
L 19.671875 0
L 9.8125 0
L 9.8125 72.90625
L 32.078125 72.90625
Q 44.578125 72.90625 50.734375 67.671875
Q 56.890625 62.453125 56.890625 51.90625
Q 56.890625 45.015625 53.6875 40.46875
Q 50.484375 35.9375 44.390625 34.1875
z
M 19.671875 64.796875
L 19.671875 38.921875
L 32.078125 38.921875
Q 39.203125 38.921875 42.84375 42.21875
Q 46.484375 45.515625 46.484375 51.90625
Q 46.484375 58.296875 42.84375 61.546875
Q 39.203125 64.796875 32.078125 64.796875
z
" id="DejaVuSans-82"/>
       <path d="M 9.8125 72.90625
L 23.09375 72.90625
L 55.421875 11.921875
L 55.421875 72.90625
L 64.984375 72.90625
L 64.984375 0
L 51.703125 0
L 19.390625 60.984375
L 19.390625 0
L 9.8125 0
z
" id="DejaVuSans-78"/>
       <path d="M 34.1875 63.1875
L 20.796875 26.90625
L 47.609375 26.90625
z
M 28.609375 72.90625
L 39.796875 72.90625
L 67.578125 0
L 57.328125 0
L 50.6875 18.703125
L 17.828125 18.703125
L 11.1875 0
L 0.78125 0
z
" id="DejaVuSans-65"/>
       <path d="M 14.796875 27.296875
Q 14.796875 17.390625 18.875 11.75
Q 22.953125 6.109375 30.078125 6.109375
Q 37.203125 6.109375 41.296875 11.75
Q 45.40625 17.390625 45.40625 27.296875
Q 45.40625 37.203125 41.296875 42.84375
Q 37.203125 48.484375 30.078125 48.484375
Q 22.953125 48.484375 18.875 42.84375
Q 14.796875 37.203125 14.796875 27.296875
z
M 45.40625 8.203125
Q 42.578125 3.328125 38.25 0.953125
Q 33.9375 -1.421875 27.875 -1.421875
Q 17.96875 -1.421875 11.734375 6.484375
Q 5.515625 14.40625 5.515625 27.296875
Q 5.515625 40.1875 11.734375 48.09375
Q 17.96875 56 27.875 56
Q 33.9375 56 38.25 53.625
Q 42.578125 51.265625 45.40625 46.390625
L 45.40625 54.6875
L 54.390625 54.6875
L 54.390625 -20.796875
L 45.40625 -20.796875
z
" id="DejaVuSans-113"/>
       <path d="M 45.40625 46.390625
L 45.40625 75.984375
L 54.390625 75.984375
L 54.390625 0
L 45.40625 0
L 45.40625 8.203125
Q 42.578125 3.328125 38.25 0.953125
Q 33.9375 -1.421875 27.875 -1.421875
Q 17.96875 -1.421875 11.734375 6.484375
Q 5.515625 14.40625 5.515625 27.296875
Q 5.515625 40.1875 11.734375 48.09375
Q 17.96875 56 27.875 56
Q 33.9375 56 38.25 53.625
Q 42.578125 51.265625 45.40625 46.390625
z
M 14.796875 27.296875
Q 14.796875 17.390625 18.875 11.75
Q 22.953125 6.109375 30.078125 6.109375
Q 37.203125 6.109375 41.296875 11.75
Q 45.40625 17.390625 45.40625 27.296875
Q 45.40625 37.203125 41.296875 42.84375
Q 37.203125 48.484375 30.078125 48.484375
Q 22.953125 48.484375 18.875 42.84375
Q 14.796875 37.203125 14.796875 27.296875
z
" id="DejaVuSans-100"/>
       <path d="M 32.171875 -5.078125
Q 28.375 -14.84375 24.75 -17.8125
Q 21.140625 -20.796875 15.09375 -20.796875
L 7.90625 -20.796875
L 7.90625 -13.28125
L 13.1875 -13.28125
Q 16.890625 -13.28125 18.9375 -11.515625
Q 21 -9.765625 23.484375 -3.21875
L 25.09375 0.875
L 2.984375 54.6875
L 12.5 54.6875
L 29.59375 11.921875
L 46.6875 54.6875
L 56.203125 54.6875
z
" id="DejaVuSans-121"/>
      </defs>
      <g transform="translate(0 134.475937)scale(0.16 -0.16)">
       <use xlink:href="#DejaVuSans-99"/>
       <use x="54.980469" xlink:href="#DejaVuSans-111"/>
       <use x="116.162109" xlink:href="#DejaVuSans-109"/>
       <use x="213.574219" xlink:href="#DejaVuSans-109"/>
       <use x="310.986328" xlink:href="#DejaVuSans-111"/>
       <use x="372.167969" xlink:href="#DejaVuSans-110"/>
       <use x="435.546875" xlink:href="#DejaVuSans-32"/>
       <use x="467.333984" xlink:href="#DejaVuSans-105"/>
       <use x="495.117188" xlink:href="#DejaVuSans-110"/>
       <use x="558.496094" xlink:href="#DejaVuSans-32"/>
       <use x="590.283203" xlink:href="#DejaVuSans-82"/>
       <use x="659.765625" xlink:href="#DejaVuSans-78"/>
       <use x="734.570312" xlink:href="#DejaVuSans-65"/>
       <use x="802.978516" xlink:href="#DejaVuSans-115"/>
       <use x="855.078125" xlink:href="#DejaVuSans-101"/>
       <use x="916.601562" xlink:href="#DejaVuSans-113"/>
       <use x="980.078125" xlink:href="#DejaVuSans-32"/>
       <use x="1011.865234" xlink:href="#DejaVuSans-97"/>
       <use x="1073.144531" xlink:href="#DejaVuSans-110"/>
       <use x="1136.523438" xlink:href="#DejaVuSans-100"/>
       <use x="1200" xlink:href="#DejaVuSans-32"/>
       <use x="1231.787109" xlink:href="#DejaVuSans-97"/>
       <use x="1293.066406" xlink:href="#DejaVuSans-114"/>
       <use x="1334.164062" xlink:href="#DejaVuSans-114"/>
       <use x="1375.277344" xlink:href="#DejaVuSans-97"/>
       <use x="1436.556641" xlink:href="#DejaVuSans-121"/>
      </g>
     </g>
    </g>
    <g id="ytick_3">
     <g id="line2d_8">
      <g>
       <use style="stroke:#000000;stroke-width:0.8;" x="246.3175" xlink:href="#m74ca1c0cae" y="200.877187"/>
      </g>
     </g>
     <g id="text_9">
      <!-- common only in RNAseq -->
      <g transform="translate(43.575 206.955937)scale(0.16 -0.16)">
       <use xlink:href="#DejaVuSans-99"/>
       <use x="54.980469" xlink:href="#DejaVuSans-111"/>
       <use x="116.162109" xlink:href="#DejaVuSans-109"/>
       <use x="213.574219" xlink:href="#DejaVuSans-109"/>
       <use x="310.986328" xlink:href="#DejaVuSans-111"/>
       <use x="372.167969" xlink:href="#DejaVuSans-110"/>
       <use x="435.546875" xlink:href="#DejaVuSans-32"/>
       <use x="467.333984" xlink:href="#DejaVuSans-111"/>
       <use x="528.515625" xlink:href="#DejaVuSans-110"/>
       <use x="591.894531" xlink:href="#DejaVuSans-108"/>
       <use x="619.677734" xlink:href="#DejaVuSans-121"/>
       <use x="678.857422" xlink:href="#DejaVuSans-32"/>
       <use x="710.644531" xlink:href="#DejaVuSans-105"/>
       <use x="738.427734" xlink:href="#DejaVuSans-110"/>
       <use x="801.806641" xlink:href="#DejaVuSans-32"/>
       <use x="833.59375" xlink:href="#DejaVuSans-82"/>
       <use x="903.076172" xlink:href="#DejaVuSans-78"/>
       <use x="977.880859" xlink:href="#DejaVuSans-65"/>
       <use x="1046.289062" xlink:href="#DejaVuSans-115"/>
       <use x="1098.388672" xlink:href="#DejaVuSans-101"/>
       <use x="1159.912109" xlink:href="#DejaVuSans-113"/>
      </g>
     </g>
    </g>
   </g>
   <g id="line2d_9">
    <path clip-path="url(#pde81fb934e)" d="M 279.596297 55.917187
L 475.892089 55.917187
" style="fill:none;stroke:#444444;stroke-linecap:square;stroke-width:1.5;"/>
   </g>
   <g id="line2d_10">
    <path clip-path="url(#pde81fb934e)" d="M 347.183157 55.917187
L 398.672911 55.917187
" style="fill:none;stroke:#444444;stroke-linecap:square;stroke-width:4.5;"/>
   </g>
   <g id="line2d_11">
    <path clip-path="url(#pde81fb934e)" d="M 299.433528 128.397187
L 449.211603 128.397187
" style="fill:none;stroke:#444444;stroke-linecap:square;stroke-width:1.5;"/>
   </g>
   <g id="line2d_12">
    <path clip-path="url(#pde81fb934e)" d="M 345.637727 128.397187
L 387.304312 128.397187
" style="fill:none;stroke:#444444;stroke-linecap:square;stroke-width:4.5;"/>
   </g>
   <g id="line2d_13">
    <path clip-path="url(#pde81fb934e)" d="M 314.042673 200.877187
L 381.349589 200.877187
" style="fill:none;stroke:#444444;stroke-linecap:square;stroke-width:1.5;"/>
   </g>
   <g id="line2d_14">
    <path clip-path="url(#pde81fb934e)" d="M 339.17081 200.877187
L 356.279214 200.877187
" style="fill:none;stroke:#444444;stroke-linecap:square;stroke-width:4.5;"/>
   </g>
   <g id="patch_3">
    <path d="M 246.3175 237.117187
L 246.3175 19.677187
" style="fill:none;stroke:#000000;stroke-linecap:square;stroke-linejoin:miter;stroke-width:0.8;"/>
   </g>
   <g id="patch_4">
    <path d="M 581.1175 237.117187
L 581.1175 19.677187
" style="fill:none;stroke:#000000;stroke-linecap:square;stroke-linejoin:miter;stroke-width:0.8;"/>
   </g>
   <g id="patch_5">
    <path d="M 246.3175 237.117187
L 581.1175 237.117187
" style="fill:none;stroke:#000000;stroke-linecap:square;stroke-linejoin:miter;stroke-width:0.8;"/>
   </g>
   <g id="patch_6">
    <path d="M 246.3175 19.677187
L 581.1175 19.677187
" style="fill:none;stroke:#000000;stroke-linecap:square;stroke-linejoin:miter;stroke-width:0.8;"/>
   </g>
   <g id="PathCollection_1">
    <defs>
     <path d="M 0 1.5
C 0.397805 1.5 0.77937 1.341951 1.06066 1.06066
C 1.341951 0.77937 1.5 0.397805 1.5 0
C 1.5 -0.397805 1.341951 -0.77937 1.06066 -1.06066
C 0.77937 -1.341951 0.397805 -1.5 0 -1.5
C -0.397805 -1.5 -0.77937 -1.341951 -1.06066 -1.06066
C -1.341951 -0.77937 -1.5 -0.397805 -1.5 0
C -1.5 0.397805 -1.341951 0.77937 -1.06066 1.06066
C -0.77937 1.341951 -0.397805 1.5 0 1.5
z
" id="mdf2a1bdadc" style="stroke:#444444;"/>
    </defs>
    <g clip-path="url(#pde81fb934e)">
     <use style="fill:#ffffff;stroke:#444444;" x="367.743612" xlink:href="#mdf2a1bdadc" y="55.917187"/>
    </g>
   </g>
   <g id="PathCollection_2">
    <g clip-path="url(#pde81fb934e)">
     <use style="fill:#ffffff;stroke:#444444;" x="364.689419" xlink:href="#mdf2a1bdadc" y="128.397187"/>
    </g>
   </g>
   <g id="PathCollection_3">
    <g clip-path="url(#pde81fb934e)">
     <use style="fill:#ffffff;stroke:#444444;" x="347.263772" xlink:href="#mdf2a1bdadc" y="200.877187"/>
    </g>
   </g>
   <g id="text_10">
    <!-- Average array (Crow et. al.) expression -->
    <defs>
     <path d="M 64.40625 67.28125
L 64.40625 56.890625
Q 59.421875 61.53125 53.78125 63.8125
Q 48.140625 66.109375 41.796875 66.109375
Q 29.296875 66.109375 22.65625 58.46875
Q 16.015625 50.828125 16.015625 36.375
Q 16.015625 21.96875 22.65625 14.328125
Q 29.296875 6.6875 41.796875 6.6875
Q 48.140625 6.6875 53.78125 8.984375
Q 59.421875 11.28125 64.40625 15.921875
L 64.40625 5.609375
Q 59.234375 2.09375 53.4375 0.328125
Q 47.65625 -1.421875 41.21875 -1.421875
Q 24.65625 -1.421875 15.125 8.703125
Q 5.609375 18.84375 5.609375 36.375
Q 5.609375 53.953125 15.125 64.078125
Q 24.65625 74.21875 41.21875 74.21875
Q 47.75 74.21875 53.53125 72.484375
Q 59.328125 70.75 64.40625 67.28125
z
" id="DejaVuSans-67"/>
     <path d="M 4.203125 54.6875
L 13.1875 54.6875
L 24.421875 12.015625
L 35.59375 54.6875
L 46.1875 54.6875
L 57.421875 12.015625
L 68.609375 54.6875
L 77.59375 54.6875
L 63.28125 0
L 52.6875 0
L 40.921875 44.828125
L 29.109375 0
L 18.5 0
z
" id="DejaVuSans-119"/>
     <path d="M 18.3125 70.21875
L 18.3125 54.6875
L 36.8125 54.6875
L 36.8125 47.703125
L 18.3125 47.703125
L 18.3125 18.015625
Q 18.3125 11.328125 20.140625 9.421875
Q 21.96875 7.515625 27.59375 7.515625
L 36.8125 7.515625
L 36.8125 0
L 27.59375 0
Q 17.1875 0 13.234375 3.875
Q 9.28125 7.765625 9.28125 18.015625
L 9.28125 47.703125
L 2.6875 47.703125
L 2.6875 54.6875
L 9.28125 54.6875
L 9.28125 70.21875
z
" id="DejaVuSans-116"/>
     <path d="M 10.6875 12.40625
L 21 12.40625
L 21 0
L 10.6875 0
z
" id="DejaVuSans-46"/>
    </defs>
    <g transform="translate(236.605938 13.677187)scale(0.18 -0.18)">
     <use xlink:href="#DejaVuSans-65"/>
     <use x="68.330078" xlink:href="#DejaVuSans-118"/>
     <use x="127.509766" xlink:href="#DejaVuSans-101"/>
     <use x="189.033203" xlink:href="#DejaVuSans-114"/>
     <use x="230.146484" xlink:href="#DejaVuSans-97"/>
     <use x="291.425781" xlink:href="#DejaVuSans-103"/>
     <use x="354.902344" xlink:href="#DejaVuSans-101"/>
     <use x="416.425781" xlink:href="#DejaVuSans-32"/>
     <use x="448.212891" xlink:href="#DejaVuSans-97"/>
     <use x="509.492188" xlink:href="#DejaVuSans-114"/>
     <use x="550.589844" xlink:href="#DejaVuSans-114"/>
     <use x="591.703125" xlink:href="#DejaVuSans-97"/>
     <use x="652.982422" xlink:href="#DejaVuSans-121"/>
     <use x="712.162109" xlink:href="#DejaVuSans-32"/>
     <use x="743.949219" xlink:href="#DejaVuSans-40"/>
     <use x="782.962891" xlink:href="#DejaVuSans-67"/>
     <use x="852.787109" xlink:href="#DejaVuSans-114"/>
     <use x="893.869141" xlink:href="#DejaVuSans-111"/>
     <use x="955.050781" xlink:href="#DejaVuSans-119"/>
     <use x="1036.837891" xlink:href="#DejaVuSans-32"/>
     <use x="1068.625" xlink:href="#DejaVuSans-101"/>
     <use x="1130.148438" xlink:href="#DejaVuSans-116"/>
     <use x="1169.357422" xlink:href="#DejaVuSans-46"/>
     <use x="1201.144531" xlink:href="#DejaVuSans-32"/>
     <use x="1232.931641" xlink:href="#DejaVuSans-97"/>
     <use x="1294.210938" xlink:href="#DejaVuSans-108"/>
     <use x="1321.994141" xlink:href="#DejaVuSans-46"/>
     <use x="1353.78125" xlink:href="#DejaVuSans-41"/>
     <use x="1392.794922" xlink:href="#DejaVuSans-32"/>
     <use x="1424.582031" xlink:href="#DejaVuSans-101"/>
     <use x="1486.089844" xlink:href="#DejaVuSans-120"/>
     <use x="1545.269531" xlink:href="#DejaVuSans-112"/>
     <use x="1608.746094" xlink:href="#DejaVuSans-114"/>
     <use x="1649.828125" xlink:href="#DejaVuSans-101"/>
     <use x="1711.351562" xlink:href="#DejaVuSans-115"/>
     <use x="1763.451172" xlink:href="#DejaVuSans-115"/>
     <use x="1815.550781" xlink:href="#DejaVuSans-105"/>
     <use x="1843.333984" xlink:href="#DejaVuSans-111"/>
     <use x="1904.515625" xlink:href="#DejaVuSans-110"/>
    </g>
   </g>
  </g>
 </g>
 <defs>
  <clipPath id="pde81fb934e">
   <rect height="217.44" width="334.8" x="246.3175" y="19.677187"/>
  </clipPath>
 </defs>
</svg>
