<?xml version="1.0" encoding="utf-8" standalone="no"?>
<!DOCTYPE svg PUBLIC "-//W3C//DTD SVG 1.1//EN"
  "http://www.w3.org/Graphics/SVG/1.1/DTD/svg11.dtd">
<!-- Created with matplotlib (https://matplotlib.org/) -->
<svg height="275.250937pt" version="1.1" viewBox="0 0 596.11125 275.250937" width="596.11125pt" xmlns="http://www.w3.org/2000/svg" xmlns:xlink="http://www.w3.org/1999/xlink">
 <defs>
  <style type="text/css">
*{stroke-linecap:butt;stroke-linejoin:round;}
  </style>
 </defs>
 <g id="figure_1">
  <g id="patch_1">
   <path d="M 0 275.250937
L 596.11125 275.250937
L 596.11125 0
L 0 0
z
" style="fill:none;"/>
  </g>
  <g id="axes_1">
   <g id="patch_2">
    <path d="M 254.46 237.117187
L 589.26 237.117187
L 589.26 19.677187
L 254.46 19.677187
z
" style="fill:none;"/>
   </g>
   <g id="PolyCollection_1">
    <defs>
     <path d="M 306.341746 -219.333034
L 306.341746 -219.334466
L 309.13655 -219.335737
L 311.931354 -219.337961
L 314.726158 -219.340792
L 317.520962 -219.343625
L 320.315766 -219.34664
L 323.11057 -219.351618
L 325.905374 -219.36185
L 328.700178 -219.382159
L 331.494982 -219.420685
L 334.289786 -219.491315
L 337.084591 -219.611469
L 339.879395 -219.793117
L 342.674199 -220.035577
L 345.469003 -220.331135
L 348.263807 -220.682136
L 351.058611 -221.11744
L 353.853415 -221.698603
L 356.648219 -222.51121
L 359.443023 -223.629468
L 362.237827 -225.052228
L 365.032631 -226.664714
L 367.827435 -228.283089
L 370.622239 -229.735886
L 373.417043 -230.898258
L 376.211847 -231.689334
L 379.006651 -232.076843
L 381.801455 -232.078284
L 384.596259 -231.758781
L 387.391063 -231.233257
L 390.185867 -230.628505
L 392.980671 -230.014768
L 395.775475 -229.405446
L 398.570279 -228.821067
L 401.365083 -228.302387
L 404.159887 -227.867639
L 406.954691 -227.500116
L 409.749495 -227.175539
L 412.544299 -226.888503
L 415.339103 -226.653605
L 418.133907 -226.478103
L 420.928711 -226.342956
L 423.723515 -226.219995
L 426.518319 -226.088284
L 429.313123 -225.921229
L 432.107927 -225.678552
L 434.902731 -225.337532
L 437.697535 -224.929216
L 440.492339 -224.516025
L 443.287143 -224.132474
L 446.081947 -223.770691
L 448.876751 -223.413633
L 451.671555 -223.056463
L 454.466359 -222.704493
L 457.261163 -222.369948
L 460.055967 -222.068177
L 462.850771 -221.809851
L 465.645575 -221.594765
L 468.440379 -221.408723
L 471.235183 -221.229462
L 474.029987 -221.045236
L 476.824791 -220.863985
L 479.619595 -220.696108
L 482.414399 -220.537779
L 485.209203 -220.381438
L 488.004007 -220.231928
L 490.798811 -220.102508
L 493.593615 -220.001782
L 496.388419 -219.927524
L 499.183223 -219.86924
L 501.978027 -219.817148
L 504.772831 -219.768306
L 507.567635 -219.723189
L 510.362439 -219.680156
L 513.157243 -219.636473
L 515.952047 -219.593547
L 518.746851 -219.557082
L 521.541655 -219.529973
L 524.336459 -219.507675
L 527.131263 -219.482842
L 529.926067 -219.453147
L 532.720871 -219.423031
L 535.515675 -219.398485
L 538.310479 -219.381436
L 541.105283 -219.36924
L 543.900087 -219.358557
L 546.694891 -219.348674
L 549.489695 -219.341003
L 552.284499 -219.336494
L 555.079303 -219.334566
L 557.874107 -219.33408
L 560.668911 -219.334448
L 563.463715 -219.335827
L 566.258519 -219.33846
L 569.053323 -219.341616
L 571.848127 -219.343414
L 574.642931 -219.342482
L 577.437735 -219.339553
L 580.232539 -219.336586
L 583.027343 -219.334769
L 583.027343 -219.332731
L 583.027343 -219.332731
L 580.232539 -219.330914
L 577.437735 -219.327947
L 574.642931 -219.325018
L 571.848127 -219.324086
L 569.053323 -219.325884
L 566.258519 -219.32904
L 563.463715 -219.331673
L 560.668911 -219.333052
L 557.874107 -219.33342
L 555.079303 -219.332934
L 552.284499 -219.331006
L 549.489695 -219.326497
L 546.694891 -219.318826
L 543.900087 -219.308943
L 541.105283 -219.29826
L 538.310479 -219.286064
L 535.515675 -219.269015
L 532.720871 -219.244469
L 529.926067 -219.214353
L 527.131263 -219.184658
L 524.336459 -219.159825
L 521.541655 -219.137527
L 518.746851 -219.110418
L 515.952047 -219.073953
L 513.157243 -219.031027
L 510.362439 -218.987344
L 507.567635 -218.944311
L 504.772831 -218.899194
L 501.978027 -218.850352
L 499.183223 -218.79826
L 496.388419 -218.739976
L 493.593615 -218.665718
L 490.798811 -218.564992
L 488.004007 -218.435572
L 485.209203 -218.286062
L 482.414399 -218.129721
L 479.619595 -217.971392
L 476.824791 -217.803515
L 474.029987 -217.622264
L 471.235183 -217.438038
L 468.440379 -217.258777
L 465.645575 -217.072735
L 462.850771 -216.857649
L 460.055967 -216.599323
L 457.261163 -216.297552
L 454.466359 -215.963007
L 451.671555 -215.611037
L 448.876751 -215.253867
L 446.081947 -214.896809
L 443.287143 -214.535026
L 440.492339 -214.151475
L 437.697535 -213.738284
L 434.902731 -213.329968
L 432.107927 -212.988948
L 429.313123 -212.746271
L 426.518319 -212.579216
L 423.723515 -212.447505
L 420.928711 -212.324544
L 418.133907 -212.189397
L 415.339103 -212.013895
L 412.544299 -211.778997
L 409.749495 -211.491961
L 406.954691 -211.167384
L 404.159887 -210.799861
L 401.365083 -210.365113
L 398.570279 -209.846433
L 395.775475 -209.262054
L 392.980671 -208.652732
L 390.185867 -208.038995
L 387.391063 -207.434243
L 384.596259 -206.908719
L 381.801455 -206.589216
L 379.006651 -206.590657
L 376.211847 -206.978166
L 373.417043 -207.769242
L 370.622239 -208.931614
L 367.827435 -210.384411
L 365.032631 -212.002786
L 362.237827 -213.615272
L 359.443023 -215.038032
L 356.648219 -216.15629
L 353.853415 -216.968897
L 351.058611 -217.55006
L 348.263807 -217.985364
L 345.469003 -218.336365
L 342.674199 -218.631923
L 339.879395 -218.874383
L 337.084591 -219.056031
L 334.289786 -219.176185
L 331.494982 -219.246815
L 328.700178 -219.285341
L 325.905374 -219.30565
L 323.11057 -219.315882
L 320.315766 -219.32086
L 317.520962 -219.323875
L 314.726158 -219.326708
L 311.931354 -219.329539
L 309.13655 -219.331763
L 306.341746 -219.333034
z
" id="mada8166c91" style="stroke:#444444;stroke-width:1.5;"/>
    </defs>
    <g clip-path="url(#p54b4a83f6c)">
     <use style="fill:#d3d3d3;stroke:#444444;stroke-width:1.5;" x="0" xlink:href="#mada8166c91" y="275.250937"/>
    </g>
   </g>
   <g id="PolyCollection_2">
    <defs>
     <path d="M 299.495519 -146.845783
L 299.495519 -146.861717
L 302.092236 -146.867855
L 304.688953 -146.87649
L 307.285669 -146.887191
L 309.882386 -146.898767
L 312.479103 -146.909639
L 315.075819 -146.918713
L 317.672536 -146.926525
L 320.269252 -146.936174
L 322.865969 -146.95377
L 325.462686 -146.988439
L 328.059402 -147.052286
L 330.656119 -147.160463
L 333.252835 -147.330826
L 335.849552 -147.582081
L 338.446269 -147.929575
L 341.042985 -148.379399
L 343.639702 -148.923352
L 346.236418 -149.538071
L 348.833135 -150.190208
L 351.429852 -150.84637
L 354.026568 -151.483705
L 356.623285 -152.096516
L 359.220002 -152.696283
L 361.816718 -153.305597
L 364.413435 -153.94859
L 367.010151 -154.640973
L 369.606868 -155.382252
L 372.203585 -156.151999
L 374.800301 -156.911497
L 377.397018 -157.610991
L 379.993734 -158.201088
L 382.590451 -158.644916
L 385.187168 -158.926594
L 387.783884 -159.052536
L 390.380601 -159.045238
L 392.977317 -158.932708
L 395.574034 -158.738508
L 398.170751 -158.476254
L 400.767467 -158.149651
L 403.364184 -157.756689
L 405.960901 -157.29555
L 408.557617 -156.769615
L 411.154334 -156.189506
L 413.75105 -155.571511
L 416.347767 -154.933889
L 418.944484 -154.293857
L 421.5412 -153.667107
L 424.137917 -153.068982
L 426.734633 -152.514714
L 429.33135 -152.01705
L 431.928067 -151.582558
L 434.524783 -151.209704
L 437.1215 -150.890694
L 439.718216 -150.615992
L 442.314933 -150.378144
L 444.91165 -150.172247
L 447.508366 -149.993226
L 450.105083 -149.832634
L 452.7018 -149.677818
L 455.298516 -149.51416
L 457.895233 -149.328845
L 460.491949 -149.11403
L 463.088666 -148.868435
L 465.685383 -148.597661
L 468.282099 -148.313736
L 470.878816 -148.033741
L 473.475532 -147.777093
L 476.072249 -147.56159
L 478.668966 -147.39929
L 481.265682 -147.293673
L 483.862399 -147.239133
L 486.459115 -147.222963
L 489.055832 -147.229049
L 491.652549 -147.241953
L 494.249265 -147.250035
L 496.845982 -147.24674
L 499.442699 -147.2301
L 502.039415 -147.201219
L 504.636132 -147.162799
L 507.232848 -147.118321
L 509.829565 -147.071823
L 512.426282 -147.027751
L 515.022998 -146.990378
L 517.619715 -146.962838
L 520.216431 -146.946232
L 522.813148 -146.93937
L 525.409865 -146.939343
L 528.006581 -146.942614
L 530.603298 -146.946043
L 533.200014 -146.947411
L 535.796731 -146.945433
L 538.393448 -146.939571
L 540.990164 -146.929954
L 543.586881 -146.917403
L 546.183598 -146.903367
L 548.780314 -146.88959
L 551.377031 -146.877606
L 553.973747 -146.868321
L 556.570464 -146.861892
L 556.570464 -146.845608
L 556.570464 -146.845608
L 553.973747 -146.839179
L 551.377031 -146.829894
L 548.780314 -146.81791
L 546.183598 -146.804133
L 543.586881 -146.790097
L 540.990164 -146.777546
L 538.393448 -146.767929
L 535.796731 -146.762067
L 533.200014 -146.760089
L 530.603298 -146.761457
L 528.006581 -146.764886
L 525.409865 -146.768157
L 522.813148 -146.76813
L 520.216431 -146.761268
L 517.619715 -146.744662
L 515.022998 -146.717122
L 512.426282 -146.679749
L 509.829565 -146.635677
L 507.232848 -146.589179
L 504.636132 -146.544701
L 502.039415 -146.506281
L 499.442699 -146.4774
L 496.845982 -146.46076
L 494.249265 -146.457465
L 491.652549 -146.465547
L 489.055832 -146.478451
L 486.459115 -146.484537
L 483.862399 -146.468367
L 481.265682 -146.413827
L 478.668966 -146.30821
L 476.072249 -146.14591
L 473.475532 -145.930407
L 470.878816 -145.673759
L 468.282099 -145.393764
L 465.685383 -145.109839
L 463.088666 -144.839065
L 460.491949 -144.59347
L 457.895233 -144.378655
L 455.298516 -144.19334
L 452.7018 -144.029682
L 450.105083 -143.874866
L 447.508366 -143.714274
L 444.91165 -143.535253
L 442.314933 -143.329356
L 439.718216 -143.091508
L 437.1215 -142.816806
L 434.524783 -142.497796
L 431.928067 -142.124942
L 429.33135 -141.69045
L 426.734633 -141.192786
L 424.137917 -140.638518
L 421.5412 -140.040393
L 418.944484 -139.413643
L 416.347767 -138.773611
L 413.75105 -138.135989
L 411.154334 -137.517994
L 408.557617 -136.937885
L 405.960901 -136.41195
L 403.364184 -135.950811
L 400.767467 -135.557849
L 398.170751 -135.231246
L 395.574034 -134.968992
L 392.977317 -134.774792
L 390.380601 -134.662262
L 387.783884 -134.654964
L 385.187168 -134.780906
L 382.590451 -135.062584
L 379.993734 -135.506412
L 377.397018 -136.096509
L 374.800301 -136.796003
L 372.203585 -137.555501
L 369.606868 -138.325248
L 367.010151 -139.066527
L 364.413435 -139.75891
L 361.816718 -140.401903
L 359.220002 -141.011217
L 356.623285 -141.610984
L 354.026568 -142.223795
L 351.429852 -142.86113
L 348.833135 -143.517292
L 346.236418 -144.169429
L 343.639702 -144.784148
L 341.042985 -145.328101
L 338.446269 -145.777925
L 335.849552 -146.125419
L 333.252835 -146.376674
L 330.656119 -146.547037
L 328.059402 -146.655214
L 325.462686 -146.719061
L 322.865969 -146.75373
L 320.269252 -146.771326
L 317.672536 -146.780975
L 315.075819 -146.788787
L 312.479103 -146.797861
L 309.882386 -146.808733
L 307.285669 -146.820309
L 304.688953 -146.83101
L 302.092236 -146.839645
L 299.495519 -146.845783
z
" id="m39fd4d3b6e" style="stroke:#444444;stroke-width:1.5;"/>
    </defs>
    <g clip-path="url(#p54b4a83f6c)">
     <use style="fill:#3d7ca6;stroke:#444444;stroke-width:1.5;" x="0" xlink:href="#m39fd4d3b6e" y="275.250937"/>
    </g>
   </g>
   <g id="PolyCollection_3">
    <defs>
     <path d="M 329.797319 -74.357357
L 329.797319 -74.390143
L 331.422775 -74.408271
L 333.048231 -74.435154
L 334.673686 -74.466439
L 336.299142 -74.493965
L 337.924598 -74.511943
L 339.550053 -74.524508
L 341.175509 -74.547332
L 342.800965 -74.600608
L 344.426421 -74.699611
L 346.051876 -74.851971
L 347.677332 -75.063422
L 349.302788 -75.344878
L 350.928243 -75.71531
L 352.553699 -76.205278
L 354.179155 -76.866921
L 355.804611 -77.779761
L 357.430066 -79.031548
L 359.055522 -80.675043
L 360.680978 -82.69494
L 362.306434 -85.016272
L 363.931889 -87.543344
L 365.557345 -90.18901
L 367.182801 -92.871958
L 368.808256 -95.495918
L 370.433712 -97.937234
L 372.059168 -100.054804
L 373.684624 -101.718451
L 375.310079 -102.83731
L 376.935535 -103.36575
L 378.560991 -103.283728
L 380.186446 -102.580919
L 381.811902 -101.276192
L 383.437358 -99.459101
L 385.062814 -97.303296
L 386.688269 -95.028076
L 388.313725 -92.838063
L 389.939181 -90.881176
L 391.564637 -89.231308
L 393.190092 -87.879701
L 394.815548 -86.733057
L 396.441004 -85.639382
L 398.066459 -84.453547
L 399.691915 -83.111926
L 401.317371 -81.660512
L 402.942827 -80.215356
L 404.568282 -78.893216
L 406.193738 -77.765839
L 407.819194 -76.856154
L 409.444649 -76.158839
L 411.070105 -75.660897
L 412.695561 -75.348628
L 414.321017 -75.200834
L 415.946472 -75.179292
L 417.571928 -75.229759
L 419.197384 -75.296456
L 420.82284 -75.339858
L 422.448295 -75.345357
L 424.073751 -75.319117
L 425.699207 -75.275997
L 427.324662 -75.226708
L 428.950118 -75.171025
L 430.575574 -75.101198
L 432.20103 -75.011568
L 433.826485 -74.904707
L 435.451941 -74.790131
L 437.077397 -74.680537
L 438.702852 -74.589564
L 440.328308 -74.528985
L 441.953764 -74.50373
L 443.57922 -74.508402
L 445.204675 -74.529797
L 446.830131 -74.554387
L 448.455587 -74.574695
L 450.081043 -74.589824
L 451.706498 -74.601605
L 453.331954 -74.611123
L 454.95741 -74.617739
L 456.582865 -74.619244
L 458.208321 -74.612119
L 459.833777 -74.592679
L 461.459233 -74.559595
L 463.084688 -74.516281
L 464.710144 -74.470579
L 466.3356 -74.431129
L 467.961055 -74.403135
L 469.586511 -74.386936
L 471.211967 -74.379962
L 472.837423 -74.379834
L 474.462878 -74.386301
L 476.088334 -74.400954
L 477.71379 -74.424721
L 479.339246 -74.454396
L 480.964701 -74.481245
L 482.590157 -74.494428
L 484.215613 -74.487851
L 485.841068 -74.46461
L 487.466524 -74.434687
L 489.09198 -74.40817
L 490.717436 -74.390124
L 490.717436 -74.357376
L 490.717436 -74.357376
L 489.09198 -74.33933
L 487.466524 -74.312813
L 485.841068 -74.28289
L 484.215613 -74.259649
L 482.590157 -74.253072
L 480.964701 -74.266255
L 479.339246 -74.293104
L 477.71379 -74.322779
L 476.088334 -74.346546
L 474.462878 -74.361199
L 472.837423 -74.367666
L 471.211967 -74.367538
L 469.586511 -74.360564
L 467.961055 -74.344365
L 466.3356 -74.316371
L 464.710144 -74.276921
L 463.084688 -74.231219
L 461.459233 -74.187905
L 459.833777 -74.154821
L 458.208321 -74.135381
L 456.582865 -74.128256
L 454.95741 -74.129761
L 453.331954 -74.136377
L 451.706498 -74.145895
L 450.081043 -74.157676
L 448.455587 -74.172805
L 446.830131 -74.193113
L 445.204675 -74.217703
L 443.57922 -74.239098
L 441.953764 -74.24377
L 440.328308 -74.218515
L 438.702852 -74.157936
L 437.077397 -74.066963
L 435.451941 -73.957369
L 433.826485 -73.842793
L 432.20103 -73.735932
L 430.575574 -73.646302
L 428.950118 -73.576475
L 427.324662 -73.520792
L 425.699207 -73.471503
L 424.073751 -73.428383
L 422.448295 -73.402143
L 420.82284 -73.407642
L 419.197384 -73.451044
L 417.571928 -73.517741
L 415.946472 -73.568208
L 414.321017 -73.546666
L 412.695561 -73.398872
L 411.070105 -73.086603
L 409.444649 -72.588661
L 407.819194 -71.891346
L 406.193738 -70.981661
L 404.568282 -69.854284
L 402.942827 -68.532144
L 401.317371 -67.086988
L 399.691915 -65.635574
L 398.066459 -64.293953
L 396.441004 -63.108118
L 394.815548 -62.014443
L 393.190092 -60.867799
L 391.564637 -59.516192
L 389.939181 -57.866324
L 388.313725 -55.909437
L 386.688269 -53.719424
L 385.062814 -51.444204
L 383.437358 -49.288399
L 381.811902 -47.471308
L 380.186446 -46.166581
L 378.560991 -45.463772
L 376.935535 -45.38175
L 375.310079 -45.91019
L 373.684624 -47.029049
L 372.059168 -48.692696
L 370.433712 -50.810266
L 368.808256 -53.251582
L 367.182801 -55.875542
L 365.557345 -58.55849
L 363.931889 -61.204156
L 362.306434 -63.731228
L 360.680978 -66.05256
L 359.055522 -68.072457
L 357.430066 -69.715952
L 355.804611 -70.967739
L 354.179155 -71.880579
L 352.553699 -72.542222
L 350.928243 -73.03219
L 349.302788 -73.402622
L 347.677332 -73.684078
L 346.051876 -73.895529
L 344.426421 -74.047889
L 342.800965 -74.146892
L 341.175509 -74.200168
L 339.550053 -74.222992
L 337.924598 -74.235557
L 336.299142 -74.253535
L 334.673686 -74.281061
L 333.048231 -74.312346
L 331.422775 -74.339229
L 329.797319 -74.357357
z
" id="m83de6a5bfe" style="stroke:#444444;stroke-width:1.5;"/>
    </defs>
    <g clip-path="url(#p54b4a83f6c)">
     <use style="fill:#b4d4df;stroke:#444444;stroke-width:1.5;" x="0" xlink:href="#m83de6a5bfe" y="275.250937"/>
    </g>
   </g>
   <g id="matplotlib.axis_1">
    <g id="xtick_1">
     <g id="line2d_1">
      <defs>
       <path d="M 0 0
L 0 3.5
" id="mde615dc04f" style="stroke:#000000;stroke-width:0.8;"/>
      </defs>
      <g>
       <use style="stroke:#000000;stroke-width:0.8;" x="254.46" xlink:href="#mde615dc04f" y="237.117187"/>
      </g>
     </g>
     <g id="text_1">
      <!-- −1 -->
      <defs>
       <path d="M 10.59375 35.5
L 73.1875 35.5
L 73.1875 27.203125
L 10.59375 27.203125
z
" id="DejaVuSans-8722"/>
       <path d="M 12.40625 8.296875
L 28.515625 8.296875
L 28.515625 63.921875
L 10.984375 60.40625
L 10.984375 69.390625
L 28.421875 72.90625
L 38.28125 72.90625
L 38.28125 8.296875
L 54.390625 8.296875
L 54.390625 0
L 12.40625 0
z
" id="DejaVuSans-49"/>
      </defs>
      <g transform="translate(245.614688 253.235312)scale(0.12 -0.12)">
       <use xlink:href="#DejaVuSans-8722"/>
       <use x="83.789062" xlink:href="#DejaVuSans-49"/>
      </g>
     </g>
    </g>
    <g id="xtick_2">
     <g id="line2d_2">
      <g>
       <use style="stroke:#000000;stroke-width:0.8;" x="321.42" xlink:href="#mde615dc04f" y="237.117187"/>
      </g>
     </g>
     <g id="text_2">
      <!-- 0 -->
      <defs>
       <path d="M 31.78125 66.40625
Q 24.171875 66.40625 20.328125 58.90625
Q 16.5 51.421875 16.5 36.375
Q 16.5 21.390625 20.328125 13.890625
Q 24.171875 6.390625 31.78125 6.390625
Q 39.453125 6.390625 43.28125 13.890625
Q 47.125 21.390625 47.125 36.375
Q 47.125 51.421875 43.28125 58.90625
Q 39.453125 66.40625 31.78125 66.40625
z
M 31.78125 74.21875
Q 44.046875 74.21875 50.515625 64.515625
Q 56.984375 54.828125 56.984375 36.375
Q 56.984375 17.96875 50.515625 8.265625
Q 44.046875 -1.421875 31.78125 -1.421875
Q 19.53125 -1.421875 13.0625 8.265625
Q 6.59375 17.96875 6.59375 36.375
Q 6.59375 54.828125 13.0625 64.515625
Q 19.53125 74.21875 31.78125 74.21875
z
" id="DejaVuSans-48"/>
      </defs>
      <g transform="translate(317.6025 253.235312)scale(0.12 -0.12)">
       <use xlink:href="#DejaVuSans-48"/>
      </g>
     </g>
    </g>
    <g id="xtick_3">
     <g id="line2d_3">
      <g>
       <use style="stroke:#000000;stroke-width:0.8;" x="388.38" xlink:href="#mde615dc04f" y="237.117187"/>
      </g>
     </g>
     <g id="text_3">
      <!-- 1 -->
      <g transform="translate(384.5625 253.235312)scale(0.12 -0.12)">
       <use xlink:href="#DejaVuSans-49"/>
      </g>
     </g>
    </g>
    <g id="xtick_4">
     <g id="line2d_4">
      <g>
       <use style="stroke:#000000;stroke-width:0.8;" x="455.34" xlink:href="#mde615dc04f" y="237.117187"/>
      </g>
     </g>
     <g id="text_4">
      <!-- 2 -->
      <defs>
       <path d="M 19.1875 8.296875
L 53.609375 8.296875
L 53.609375 0
L 7.328125 0
L 7.328125 8.296875
Q 12.9375 14.109375 22.625 23.890625
Q 32.328125 33.6875 34.8125 36.53125
Q 39.546875 41.84375 41.421875 45.53125
Q 43.3125 49.21875 43.3125 52.78125
Q 43.3125 58.59375 39.234375 62.25
Q 35.15625 65.921875 28.609375 65.921875
Q 23.96875 65.921875 18.8125 64.3125
Q 13.671875 62.703125 7.8125 59.421875
L 7.8125 69.390625
Q 13.765625 71.78125 18.9375 73
Q 24.125 74.21875 28.421875 74.21875
Q 39.75 74.21875 46.484375 68.546875
Q 53.21875 62.890625 53.21875 53.421875
Q 53.21875 48.921875 51.53125 44.890625
Q 49.859375 40.875 45.40625 35.40625
Q 44.1875 33.984375 37.640625 27.21875
Q 31.109375 20.453125 19.1875 8.296875
z
" id="DejaVuSans-50"/>
      </defs>
      <g transform="translate(451.5225 253.235312)scale(0.12 -0.12)">
       <use xlink:href="#DejaVuSans-50"/>
      </g>
     </g>
    </g>
    <g id="xtick_5">
     <g id="line2d_5">
      <g>
       <use style="stroke:#000000;stroke-width:0.8;" x="522.3" xlink:href="#mde615dc04f" y="237.117187"/>
      </g>
     </g>
     <g id="text_5">
      <!-- 3 -->
      <defs>
       <path d="M 40.578125 39.3125
Q 47.65625 37.796875 51.625 33
Q 55.609375 28.21875 55.609375 21.1875
Q 55.609375 10.40625 48.1875 4.484375
Q 40.765625 -1.421875 27.09375 -1.421875
Q 22.515625 -1.421875 17.65625 -0.515625
Q 12.796875 0.390625 7.625 2.203125
L 7.625 11.71875
Q 11.71875 9.328125 16.59375 8.109375
Q 21.484375 6.890625 26.8125 6.890625
Q 36.078125 6.890625 40.9375 10.546875
Q 45.796875 14.203125 45.796875 21.1875
Q 45.796875 27.640625 41.28125 31.265625
Q 36.765625 34.90625 28.71875 34.90625
L 20.21875 34.90625
L 20.21875 43.015625
L 29.109375 43.015625
Q 36.375 43.015625 40.234375 45.921875
Q 44.09375 48.828125 44.09375 54.296875
Q 44.09375 59.90625 40.109375 62.90625
Q 36.140625 65.921875 28.71875 65.921875
Q 24.65625 65.921875 20.015625 65.03125
Q 15.375 64.15625 9.8125 62.3125
L 9.8125 71.09375
Q 15.4375 72.65625 20.34375 73.4375
Q 25.25 74.21875 29.59375 74.21875
Q 40.828125 74.21875 47.359375 69.109375
Q 53.90625 64.015625 53.90625 55.328125
Q 53.90625 49.265625 50.4375 45.09375
Q 46.96875 40.921875 40.578125 39.3125
z
" id="DejaVuSans-51"/>
      </defs>
      <g transform="translate(518.4825 253.235312)scale(0.12 -0.12)">
       <use xlink:href="#DejaVuSans-51"/>
      </g>
     </g>
    </g>
    <g id="xtick_6">
     <g id="line2d_6">
      <g>
       <use style="stroke:#000000;stroke-width:0.8;" x="589.26" xlink:href="#mde615dc04f" y="237.117187"/>
      </g>
     </g>
     <g id="text_6">
      <!-- 4 -->
      <defs>
       <path d="M 37.796875 64.3125
L 12.890625 25.390625
L 37.796875 25.390625
z
M 35.203125 72.90625
L 47.609375 72.90625
L 47.609375 25.390625
L 58.015625 25.390625
L 58.015625 17.1875
L 47.609375 17.1875
L 47.609375 0
L 37.796875 0
L 37.796875 17.1875
L 4.890625 17.1875
L 4.890625 26.703125
z
" id="DejaVuSans-52"/>
      </defs>
      <g transform="translate(585.4425 253.235312)scale(0.12 -0.12)">
       <use xlink:href="#DejaVuSans-52"/>
      </g>
     </g>
    </g>
    <g id="text_7">
     <!-- Log$_{10}$ (average expression) -->
     <defs>
      <path d="M 9.8125 72.90625
L 19.671875 72.90625
L 19.671875 8.296875
L 55.171875 8.296875
L 55.171875 0
L 9.8125 0
z
" id="DejaVuSans-76"/>
      <path d="M 30.609375 48.390625
Q 23.390625 48.390625 19.1875 42.75
Q 14.984375 37.109375 14.984375 27.296875
Q 14.984375 17.484375 19.15625 11.84375
Q 23.34375 6.203125 30.609375 6.203125
Q 37.796875 6.203125 41.984375 11.859375
Q 46.1875 17.53125 46.1875 27.296875
Q 46.1875 37.015625 41.984375 42.703125
Q 37.796875 48.390625 30.609375 48.390625
z
M 30.609375 56
Q 42.328125 56 49.015625 48.375
Q 55.71875 40.765625 55.71875 27.296875
Q 55.71875 13.875 49.015625 6.21875
Q 42.328125 -1.421875 30.609375 -1.421875
Q 18.84375 -1.421875 12.171875 6.21875
Q 5.515625 13.875 5.515625 27.296875
Q 5.515625 40.765625 12.171875 48.375
Q 18.84375 56 30.609375 56
z
" id="DejaVuSans-111"/>
      <path d="M 45.40625 27.984375
Q 45.40625 37.75 41.375 43.109375
Q 37.359375 48.484375 30.078125 48.484375
Q 22.859375 48.484375 18.828125 43.109375
Q 14.796875 37.75 14.796875 27.984375
Q 14.796875 18.265625 18.828125 12.890625
Q 22.859375 7.515625 30.078125 7.515625
Q 37.359375 7.515625 41.375 12.890625
Q 45.40625 18.265625 45.40625 27.984375
z
M 54.390625 6.78125
Q 54.390625 -7.171875 48.1875 -13.984375
Q 42 -20.796875 29.203125 -20.796875
Q 24.46875 -20.796875 20.265625 -20.09375
Q 16.0625 -19.390625 12.109375 -17.921875
L 12.109375 -9.1875
Q 16.0625 -11.328125 19.921875 -12.34375
Q 23.78125 -13.375 27.78125 -13.375
Q 36.625 -13.375 41.015625 -8.765625
Q 45.40625 -4.15625 45.40625 5.171875
L 45.40625 9.625
Q 42.625 4.78125 38.28125 2.390625
Q 33.9375 0 27.875 0
Q 17.828125 0 11.671875 7.65625
Q 5.515625 15.328125 5.515625 27.984375
Q 5.515625 40.671875 11.671875 48.328125
Q 17.828125 56 27.875 56
Q 33.9375 56 38.28125 53.609375
Q 42.625 51.21875 45.40625 46.390625
L 45.40625 54.6875
L 54.390625 54.6875
z
" id="DejaVuSans-103"/>
      <path id="DejaVuSans-32"/>
      <path d="M 31 75.875
Q 24.46875 64.65625 21.28125 53.65625
Q 18.109375 42.671875 18.109375 31.390625
Q 18.109375 20.125 21.3125 9.0625
Q 24.515625 -2 31 -13.1875
L 23.1875 -13.1875
Q 15.875 -1.703125 12.234375 9.375
Q 8.59375 20.453125 8.59375 31.390625
Q 8.59375 42.28125 12.203125 53.3125
Q 15.828125 64.359375 23.1875 75.875
z
" id="DejaVuSans-40"/>
      <path d="M 34.28125 27.484375
Q 23.390625 27.484375 19.1875 25
Q 14.984375 22.515625 14.984375 16.5
Q 14.984375 11.71875 18.140625 8.90625
Q 21.296875 6.109375 26.703125 6.109375
Q 34.1875 6.109375 38.703125 11.40625
Q 43.21875 16.703125 43.21875 25.484375
L 43.21875 27.484375
z
M 52.203125 31.203125
L 52.203125 0
L 43.21875 0
L 43.21875 8.296875
Q 40.140625 3.328125 35.546875 0.953125
Q 30.953125 -1.421875 24.3125 -1.421875
Q 15.921875 -1.421875 10.953125 3.296875
Q 6 8.015625 6 15.921875
Q 6 25.140625 12.171875 29.828125
Q 18.359375 34.515625 30.609375 34.515625
L 43.21875 34.515625
L 43.21875 35.40625
Q 43.21875 41.609375 39.140625 45
Q 35.0625 48.390625 27.6875 48.390625
Q 23 48.390625 18.546875 47.265625
Q 14.109375 46.140625 10.015625 43.890625
L 10.015625 52.203125
Q 14.9375 54.109375 19.578125 55.046875
Q 24.21875 56 28.609375 56
Q 40.484375 56 46.34375 49.84375
Q 52.203125 43.703125 52.203125 31.203125
z
" id="DejaVuSans-97"/>
      <path d="M 2.984375 54.6875
L 12.5 54.6875
L 29.59375 8.796875
L 46.6875 54.6875
L 56.203125 54.6875
L 35.6875 0
L 23.484375 0
z
" id="DejaVuSans-118"/>
      <path d="M 56.203125 29.59375
L 56.203125 25.203125
L 14.890625 25.203125
Q 15.484375 15.921875 20.484375 11.0625
Q 25.484375 6.203125 34.421875 6.203125
Q 39.59375 6.203125 44.453125 7.46875
Q 49.3125 8.734375 54.109375 11.28125
L 54.109375 2.78125
Q 49.265625 0.734375 44.1875 -0.34375
Q 39.109375 -1.421875 33.890625 -1.421875
Q 20.796875 -1.421875 13.15625 6.1875
Q 5.515625 13.8125 5.515625 26.8125
Q 5.515625 40.234375 12.765625 48.109375
Q 20.015625 56 32.328125 56
Q 43.359375 56 49.78125 48.890625
Q 56.203125 41.796875 56.203125 29.59375
z
M 47.21875 32.234375
Q 47.125 39.59375 43.09375 43.984375
Q 39.0625 48.390625 32.421875 48.390625
Q 24.90625 48.390625 20.390625 44.140625
Q 15.875 39.890625 15.1875 32.171875
z
" id="DejaVuSans-101"/>
      <path d="M 41.109375 46.296875
Q 39.59375 47.171875 37.8125 47.578125
Q 36.03125 48 33.890625 48
Q 26.265625 48 22.1875 43.046875
Q 18.109375 38.09375 18.109375 28.8125
L 18.109375 0
L 9.078125 0
L 9.078125 54.6875
L 18.109375 54.6875
L 18.109375 46.1875
Q 20.953125 51.171875 25.484375 53.578125
Q 30.03125 56 36.53125 56
Q 37.453125 56 38.578125 55.875
Q 39.703125 55.765625 41.0625 55.515625
z
" id="DejaVuSans-114"/>
      <path d="M 54.890625 54.6875
L 35.109375 28.078125
L 55.90625 0
L 45.3125 0
L 29.390625 21.484375
L 13.484375 0
L 2.875 0
L 24.125 28.609375
L 4.6875 54.6875
L 15.28125 54.6875
L 29.78125 35.203125
L 44.28125 54.6875
z
" id="DejaVuSans-120"/>
      <path d="M 18.109375 8.203125
L 18.109375 -20.796875
L 9.078125 -20.796875
L 9.078125 54.6875
L 18.109375 54.6875
L 18.109375 46.390625
Q 20.953125 51.265625 25.265625 53.625
Q 29.59375 56 35.59375 56
Q 45.5625 56 51.78125 48.09375
Q 58.015625 40.1875 58.015625 27.296875
Q 58.015625 14.40625 51.78125 6.484375
Q 45.5625 -1.421875 35.59375 -1.421875
Q 29.59375 -1.421875 25.265625 0.953125
Q 20.953125 3.328125 18.109375 8.203125
z
M 48.6875 27.296875
Q 48.6875 37.203125 44.609375 42.84375
Q 40.53125 48.484375 33.40625 48.484375
Q 26.265625 48.484375 22.1875 42.84375
Q 18.109375 37.203125 18.109375 27.296875
Q 18.109375 17.390625 22.1875 11.75
Q 26.265625 6.109375 33.40625 6.109375
Q 40.53125 6.109375 44.609375 11.75
Q 48.6875 17.390625 48.6875 27.296875
z
" id="DejaVuSans-112"/>
      <path d="M 44.28125 53.078125
L 44.28125 44.578125
Q 40.484375 46.53125 36.375 47.5
Q 32.28125 48.484375 27.875 48.484375
Q 21.1875 48.484375 17.84375 46.4375
Q 14.5 44.390625 14.5 40.28125
Q 14.5 37.15625 16.890625 35.375
Q 19.28125 33.59375 26.515625 31.984375
L 29.59375 31.296875
Q 39.15625 29.25 43.1875 25.515625
Q 47.21875 21.78125 47.21875 15.09375
Q 47.21875 7.46875 41.1875 3.015625
Q 35.15625 -1.421875 24.609375 -1.421875
Q 20.21875 -1.421875 15.453125 -0.5625
Q 10.6875 0.296875 5.421875 2
L 5.421875 11.28125
Q 10.40625 8.6875 15.234375 7.390625
Q 20.0625 6.109375 24.8125 6.109375
Q 31.15625 6.109375 34.5625 8.28125
Q 37.984375 10.453125 37.984375 14.40625
Q 37.984375 18.0625 35.515625 20.015625
Q 33.0625 21.96875 24.703125 23.78125
L 21.578125 24.515625
Q 13.234375 26.265625 9.515625 29.90625
Q 5.8125 33.546875 5.8125 39.890625
Q 5.8125 47.609375 11.28125 51.796875
Q 16.75 56 26.8125 56
Q 31.78125 56 36.171875 55.265625
Q 40.578125 54.546875 44.28125 53.078125
z
" id="DejaVuSans-115"/>
      <path d="M 9.421875 54.6875
L 18.40625 54.6875
L 18.40625 0
L 9.421875 0
z
M 9.421875 75.984375
L 18.40625 75.984375
L 18.40625 64.59375
L 9.421875 64.59375
z
" id="DejaVuSans-105"/>
      <path d="M 54.890625 33.015625
L 54.890625 0
L 45.90625 0
L 45.90625 32.71875
Q 45.90625 40.484375 42.875 44.328125
Q 39.84375 48.1875 33.796875 48.1875
Q 26.515625 48.1875 22.3125 43.546875
Q 18.109375 38.921875 18.109375 30.90625
L 18.109375 0
L 9.078125 0
L 9.078125 54.6875
L 18.109375 54.6875
L 18.109375 46.1875
Q 21.34375 51.125 25.703125 53.5625
Q 30.078125 56 35.796875 56
Q 45.21875 56 50.046875 50.171875
Q 54.890625 44.34375 54.890625 33.015625
z
" id="DejaVuSans-110"/>
      <path d="M 8.015625 75.875
L 15.828125 75.875
Q 23.140625 64.359375 26.78125 53.3125
Q 30.421875 42.28125 30.421875 31.390625
Q 30.421875 20.453125 26.78125 9.375
Q 23.140625 -1.703125 15.828125 -13.1875
L 8.015625 -13.1875
Q 14.5 -2 17.703125 9.0625
Q 20.90625 20.125 20.90625 31.390625
Q 20.90625 42.671875 17.703125 53.65625
Q 14.5 64.65625 8.015625 75.875
z
" id="DejaVuSans-41"/>
     </defs>
     <g transform="translate(312.42 271.890937)scale(0.16 -0.16)">
      <use transform="translate(0 0.015625)" xlink:href="#DejaVuSans-76"/>
      <use transform="translate(55.712891 0.015625)" xlink:href="#DejaVuSans-111"/>
      <use transform="translate(116.894531 0.015625)" xlink:href="#DejaVuSans-103"/>
      <use transform="translate(181.328125 -16.390625)scale(0.7)" xlink:href="#DejaVuSans-49"/>
      <use transform="translate(225.864258 -16.390625)scale(0.7)" xlink:href="#DejaVuSans-48"/>
      <use transform="translate(273.134766 0.015625)" xlink:href="#DejaVuSans-32"/>
      <use transform="translate(304.921875 0.015625)" xlink:href="#DejaVuSans-40"/>
      <use transform="translate(343.935547 0.015625)" xlink:href="#DejaVuSans-97"/>
      <use transform="translate(405.214844 0.015625)" xlink:href="#DejaVuSans-118"/>
      <use transform="translate(464.394531 0.015625)" xlink:href="#DejaVuSans-101"/>
      <use transform="translate(525.917969 0.015625)" xlink:href="#DejaVuSans-114"/>
      <use transform="translate(567.03125 0.015625)" xlink:href="#DejaVuSans-97"/>
      <use transform="translate(628.310547 0.015625)" xlink:href="#DejaVuSans-103"/>
      <use transform="translate(691.787109 0.015625)" xlink:href="#DejaVuSans-101"/>
      <use transform="translate(753.310547 0.015625)" xlink:href="#DejaVuSans-32"/>
      <use transform="translate(785.097656 0.015625)" xlink:href="#DejaVuSans-101"/>
      <use transform="translate(846.621094 0.015625)" xlink:href="#DejaVuSans-120"/>
      <use transform="translate(905.800781 0.015625)" xlink:href="#DejaVuSans-112"/>
      <use transform="translate(969.277344 0.015625)" xlink:href="#DejaVuSans-114"/>
      <use transform="translate(1010.390625 0.015625)" xlink:href="#DejaVuSans-101"/>
      <use transform="translate(1071.914062 0.015625)" xlink:href="#DejaVuSans-115"/>
      <use transform="translate(1124.013672 0.015625)" xlink:href="#DejaVuSans-115"/>
      <use transform="translate(1176.113281 0.015625)" xlink:href="#DejaVuSans-105"/>
      <use transform="translate(1203.896484 0.015625)" xlink:href="#DejaVuSans-111"/>
      <use transform="translate(1265.078125 0.015625)" xlink:href="#DejaVuSans-110"/>
      <use transform="translate(1328.457031 0.015625)" xlink:href="#DejaVuSans-41"/>
     </g>
    </g>
   </g>
   <g id="matplotlib.axis_2">
    <g id="ytick_1">
     <g id="line2d_7">
      <defs>
       <path d="M 0 0
L -3.5 0
" id="mb7cccfbdab" style="stroke:#000000;stroke-width:0.8;"/>
      </defs>
      <g>
       <use style="stroke:#000000;stroke-width:0.8;" x="254.46" xlink:href="#mb7cccfbdab" y="55.917187"/>
      </g>
     </g>
     <g id="text_8">
      <!-- All genes -->
      <defs>
       <path d="M 34.1875 63.1875
L 20.796875 26.90625
L 47.609375 26.90625
z
M 28.609375 72.90625
L 39.796875 72.90625
L 67.578125 0
L 57.328125 0
L 50.6875 18.703125
L 17.828125 18.703125
L 11.1875 0
L 0.78125 0
z
" id="DejaVuSans-65"/>
       <path d="M 9.421875 75.984375
L 18.40625 75.984375
L 18.40625 0
L 9.421875 0
z
" id="DejaVuSans-108"/>
      </defs>
      <g transform="translate(174.2175 61.995937)scale(0.16 -0.16)">
       <use xlink:href="#DejaVuSans-65"/>
       <use x="68.408203" xlink:href="#DejaVuSans-108"/>
       <use x="96.191406" xlink:href="#DejaVuSans-108"/>
       <use x="123.974609" xlink:href="#DejaVuSans-32"/>
       <use x="155.761719" xlink:href="#DejaVuSans-103"/>
       <use x="219.238281" xlink:href="#DejaVuSans-101"/>
       <use x="280.761719" xlink:href="#DejaVuSans-110"/>
       <use x="344.140625" xlink:href="#DejaVuSans-101"/>
       <use x="405.664062" xlink:href="#DejaVuSans-115"/>
      </g>
     </g>
    </g>
    <g id="ytick_2">
     <g id="line2d_8">
      <g>
       <use style="stroke:#000000;stroke-width:0.8;" x="254.46" xlink:href="#mb7cccfbdab" y="128.397187"/>
      </g>
     </g>
     <g id="text_9">
      <!-- Common in RNA-seq and array -->
      <defs>
       <path d="M 64.40625 67.28125
L 64.40625 56.890625
Q 59.421875 61.53125 53.78125 63.8125
Q 48.140625 66.109375 41.796875 66.109375
Q 29.296875 66.109375 22.65625 58.46875
Q 16.015625 50.828125 16.015625 36.375
Q 16.015625 21.96875 22.65625 14.328125
Q 29.296875 6.6875 41.796875 6.6875
Q 48.140625 6.6875 53.78125 8.984375
Q 59.421875 11.28125 64.40625 15.921875
L 64.40625 5.609375
Q 59.234375 2.09375 53.4375 0.328125
Q 47.65625 -1.421875 41.21875 -1.421875
Q 24.65625 -1.421875 15.125 8.703125
Q 5.609375 18.84375 5.609375 36.375
Q 5.609375 53.953125 15.125 64.078125
Q 24.65625 74.21875 41.21875 74.21875
Q 47.75 74.21875 53.53125 72.484375
Q 59.328125 70.75 64.40625 67.28125
z
" id="DejaVuSans-67"/>
       <path d="M 52 44.1875
Q 55.375 50.25 60.0625 53.125
Q 64.75 56 71.09375 56
Q 79.640625 56 84.28125 50.015625
Q 88.921875 44.046875 88.921875 33.015625
L 88.921875 0
L 79.890625 0
L 79.890625 32.71875
Q 79.890625 40.578125 77.09375 44.375
Q 74.3125 48.1875 68.609375 48.1875
Q 61.625 48.1875 57.5625 43.546875
Q 53.515625 38.921875 53.515625 30.90625
L 53.515625 0
L 44.484375 0
L 44.484375 32.71875
Q 44.484375 40.625 41.703125 44.40625
Q 38.921875 48.1875 33.109375 48.1875
Q 26.21875 48.1875 22.15625 43.53125
Q 18.109375 38.875 18.109375 30.90625
L 18.109375 0
L 9.078125 0
L 9.078125 54.6875
L 18.109375 54.6875
L 18.109375 46.1875
Q 21.1875 51.21875 25.484375 53.609375
Q 29.78125 56 35.6875 56
Q 41.65625 56 45.828125 52.96875
Q 50 49.953125 52 44.1875
z
" id="DejaVuSans-109"/>
       <path d="M 44.390625 34.1875
Q 47.5625 33.109375 50.5625 29.59375
Q 53.5625 26.078125 56.59375 19.921875
L 66.609375 0
L 56 0
L 46.6875 18.703125
Q 43.0625 26.03125 39.671875 28.421875
Q 36.28125 30.8125 30.421875 30.8125
L 19.671875 30.8125
L 19.671875 0
L 9.8125 0
L 9.8125 72.90625
L 32.078125 72.90625
Q 44.578125 72.90625 50.734375 67.671875
Q 56.890625 62.453125 56.890625 51.90625
Q 56.890625 45.015625 53.6875 40.46875
Q 50.484375 35.9375 44.390625 34.1875
z
M 19.671875 64.796875
L 19.671875 38.921875
L 32.078125 38.921875
Q 39.203125 38.921875 42.84375 42.21875
Q 46.484375 45.515625 46.484375 51.90625
Q 46.484375 58.296875 42.84375 61.546875
Q 39.203125 64.796875 32.078125 64.796875
z
" id="DejaVuSans-82"/>
       <path d="M 9.8125 72.90625
L 23.09375 72.90625
L 55.421875 11.921875
L 55.421875 72.90625
L 64.984375 72.90625
L 64.984375 0
L 51.703125 0
L 19.390625 60.984375
L 19.390625 0
L 9.8125 0
z
" id="DejaVuSans-78"/>
       <path d="M 4.890625 31.390625
L 31.203125 31.390625
L 31.203125 23.390625
L 4.890625 23.390625
z
" id="DejaVuSans-45"/>
       <path d="M 14.796875 27.296875
Q 14.796875 17.390625 18.875 11.75
Q 22.953125 6.109375 30.078125 6.109375
Q 37.203125 6.109375 41.296875 11.75
Q 45.40625 17.390625 45.40625 27.296875
Q 45.40625 37.203125 41.296875 42.84375
Q 37.203125 48.484375 30.078125 48.484375
Q 22.953125 48.484375 18.875 42.84375
Q 14.796875 37.203125 14.796875 27.296875
z
M 45.40625 8.203125
Q 42.578125 3.328125 38.25 0.953125
Q 33.9375 -1.421875 27.875 -1.421875
Q 17.96875 -1.421875 11.734375 6.484375
Q 5.515625 14.40625 5.515625 27.296875
Q 5.515625 40.1875 11.734375 48.09375
Q 17.96875 56 27.875 56
Q 33.9375 56 38.25 53.625
Q 42.578125 51.265625 45.40625 46.390625
L 45.40625 54.6875
L 54.390625 54.6875
L 54.390625 -20.796875
L 45.40625 -20.796875
z
" id="DejaVuSans-113"/>
       <path d="M 45.40625 46.390625
L 45.40625 75.984375
L 54.390625 75.984375
L 54.390625 0
L 45.40625 0
L 45.40625 8.203125
Q 42.578125 3.328125 38.25 0.953125
Q 33.9375 -1.421875 27.875 -1.421875
Q 17.96875 -1.421875 11.734375 6.484375
Q 5.515625 14.40625 5.515625 27.296875
Q 5.515625 40.1875 11.734375 48.09375
Q 17.96875 56 27.875 56
Q 33.9375 56 38.25 53.625
Q 42.578125 51.265625 45.40625 46.390625
z
M 14.796875 27.296875
Q 14.796875 17.390625 18.875 11.75
Q 22.953125 6.109375 30.078125 6.109375
Q 37.203125 6.109375 41.296875 11.75
Q 45.40625 17.390625 45.40625 27.296875
Q 45.40625 37.203125 41.296875 42.84375
Q 37.203125 48.484375 30.078125 48.484375
Q 22.953125 48.484375 18.875 42.84375
Q 14.796875 37.203125 14.796875 27.296875
z
" id="DejaVuSans-100"/>
       <path d="M 32.171875 -5.078125
Q 28.375 -14.84375 24.75 -17.8125
Q 21.140625 -20.796875 15.09375 -20.796875
L 7.90625 -20.796875
L 7.90625 -13.28125
L 13.1875 -13.28125
Q 16.890625 -13.28125 18.9375 -11.515625
Q 21 -9.765625 23.484375 -3.21875
L 25.09375 0.875
L 2.984375 54.6875
L 12.5 54.6875
L 29.59375 11.921875
L 46.6875 54.6875
L 56.203125 54.6875
z
" id="DejaVuSans-121"/>
      </defs>
      <g transform="translate(0 134.475937)scale(0.16 -0.16)">
       <use xlink:href="#DejaVuSans-67"/>
       <use x="69.824219" xlink:href="#DejaVuSans-111"/>
       <use x="131.005859" xlink:href="#DejaVuSans-109"/>
       <use x="228.417969" xlink:href="#DejaVuSans-109"/>
       <use x="325.830078" xlink:href="#DejaVuSans-111"/>
       <use x="387.011719" xlink:href="#DejaVuSans-110"/>
       <use x="450.390625" xlink:href="#DejaVuSans-32"/>
       <use x="482.177734" xlink:href="#DejaVuSans-105"/>
       <use x="509.960938" xlink:href="#DejaVuSans-110"/>
       <use x="573.339844" xlink:href="#DejaVuSans-32"/>
       <use x="605.126953" xlink:href="#DejaVuSans-82"/>
       <use x="674.609375" xlink:href="#DejaVuSans-78"/>
       <use x="749.414062" xlink:href="#DejaVuSans-65"/>
       <use x="817.791016" xlink:href="#DejaVuSans-45"/>
       <use x="853.875" xlink:href="#DejaVuSans-115"/>
       <use x="905.974609" xlink:href="#DejaVuSans-101"/>
       <use x="967.498047" xlink:href="#DejaVuSans-113"/>
       <use x="1030.974609" xlink:href="#DejaVuSans-32"/>
       <use x="1062.761719" xlink:href="#DejaVuSans-97"/>
       <use x="1124.041016" xlink:href="#DejaVuSans-110"/>
       <use x="1187.419922" xlink:href="#DejaVuSans-100"/>
       <use x="1250.896484" xlink:href="#DejaVuSans-32"/>
       <use x="1282.683594" xlink:href="#DejaVuSans-97"/>
       <use x="1343.962891" xlink:href="#DejaVuSans-114"/>
       <use x="1385.060547" xlink:href="#DejaVuSans-114"/>
       <use x="1426.173828" xlink:href="#DejaVuSans-97"/>
       <use x="1487.453125" xlink:href="#DejaVuSans-121"/>
      </g>
     </g>
    </g>
    <g id="ytick_3">
     <g id="line2d_9">
      <g>
       <use style="stroke:#000000;stroke-width:0.8;" x="254.46" xlink:href="#mb7cccfbdab" y="200.877187"/>
      </g>
     </g>
     <g id="text_10">
      <!-- Common only in RNA-seq -->
      <g transform="translate(43.575 206.955937)scale(0.16 -0.16)">
       <use xlink:href="#DejaVuSans-67"/>
       <use x="69.824219" xlink:href="#DejaVuSans-111"/>
       <use x="131.005859" xlink:href="#DejaVuSans-109"/>
       <use x="228.417969" xlink:href="#DejaVuSans-109"/>
       <use x="325.830078" xlink:href="#DejaVuSans-111"/>
       <use x="387.011719" xlink:href="#DejaVuSans-110"/>
       <use x="450.390625" xlink:href="#DejaVuSans-32"/>
       <use x="482.177734" xlink:href="#DejaVuSans-111"/>
       <use x="543.359375" xlink:href="#DejaVuSans-110"/>
       <use x="606.738281" xlink:href="#DejaVuSans-108"/>
       <use x="634.521484" xlink:href="#DejaVuSans-121"/>
       <use x="693.701172" xlink:href="#DejaVuSans-32"/>
       <use x="725.488281" xlink:href="#DejaVuSans-105"/>
       <use x="753.271484" xlink:href="#DejaVuSans-110"/>
       <use x="816.650391" xlink:href="#DejaVuSans-32"/>
       <use x="848.4375" xlink:href="#DejaVuSans-82"/>
       <use x="917.919922" xlink:href="#DejaVuSans-78"/>
       <use x="992.724609" xlink:href="#DejaVuSans-65"/>
       <use x="1061.101562" xlink:href="#DejaVuSans-45"/>
       <use x="1097.185547" xlink:href="#DejaVuSans-115"/>
       <use x="1149.285156" xlink:href="#DejaVuSans-101"/>
       <use x="1210.808594" xlink:href="#DejaVuSans-113"/>
      </g>
     </g>
    </g>
   </g>
   <g id="line2d_10">
    <path clip-path="url(#p54b4a83f6c)" d="M 316.319997 55.917187
L 499.180554 55.917187
" style="fill:none;stroke:#444444;stroke-linecap:square;stroke-width:1.5;"/>
   </g>
   <g id="line2d_11">
    <path clip-path="url(#p54b4a83f6c)" d="M 379.280954 55.917187
L 427.246552 55.917187
" style="fill:none;stroke:#444444;stroke-linecap:square;stroke-width:4.5;"/>
   </g>
   <g id="line2d_12">
    <path clip-path="url(#p54b4a83f6c)" d="M 334.799492 128.397187
L 474.326182 128.397187
" style="fill:none;stroke:#444444;stroke-linecap:square;stroke-width:1.5;"/>
   </g>
   <g id="line2d_13">
    <path clip-path="url(#p54b4a83f6c)" d="M 377.841299 128.397187
L 416.656063 128.397187
" style="fill:none;stroke:#444444;stroke-linecap:square;stroke-width:4.5;"/>
   </g>
   <g id="line2d_14">
    <path clip-path="url(#p54b4a83f6c)" d="M 348.408732 200.877187
L 411.108904 200.877187
" style="fill:none;stroke:#444444;stroke-linecap:square;stroke-width:1.5;"/>
   </g>
   <g id="line2d_15">
    <path clip-path="url(#p54b4a83f6c)" d="M 371.817002 200.877187
L 387.754442 200.877187
" style="fill:none;stroke:#444444;stroke-linecap:square;stroke-width:4.5;"/>
   </g>
   <g id="patch_3">
    <path d="M 254.46 237.117187
L 254.46 19.677187
" style="fill:none;stroke:#000000;stroke-linecap:square;stroke-linejoin:miter;stroke-width:1.5;"/>
   </g>
   <g id="patch_4">
    <path d="M 589.26 237.117187
L 589.26 19.677187
" style="fill:none;stroke:#000000;stroke-linecap:square;stroke-linejoin:miter;stroke-width:1.5;"/>
   </g>
   <g id="patch_5">
    <path d="M 254.46 237.117187
L 589.26 237.117187
" style="fill:none;stroke:#000000;stroke-linecap:square;stroke-linejoin:miter;stroke-width:1.5;"/>
   </g>
   <g id="patch_6">
    <path d="M 254.46 19.677187
L 589.26 19.677187
" style="fill:none;stroke:#000000;stroke-linecap:square;stroke-linejoin:miter;stroke-width:1.5;"/>
   </g>
   <g id="PathCollection_1">
    <defs>
     <path d="M 0 1.5
C 0.397805 1.5 0.77937 1.341951 1.06066 1.06066
C 1.341951 0.77937 1.5 0.397805 1.5 0
C 1.5 -0.397805 1.341951 -0.77937 1.06066 -1.06066
C 0.77937 -1.341951 0.397805 -1.5 0 -1.5
C -0.397805 -1.5 -0.77937 -1.341951 -1.06066 -1.06066
C -1.341951 -0.77937 -1.5 -0.397805 -1.5 0
C -1.5 0.397805 -1.341951 0.77937 -1.06066 1.06066
C -0.77937 1.341951 -0.397805 1.5 0 1.5
z
" id="m7c12d9c19c" style="stroke:#444444;"/>
    </defs>
    <g clip-path="url(#p54b4a83f6c)">
     <use style="fill:#ffffff;stroke:#444444;" x="398.434173" xlink:href="#m7c12d9c19c" y="55.917187"/>
    </g>
   </g>
   <g id="PathCollection_2">
    <g clip-path="url(#p54b4a83f6c)">
     <use style="fill:#ffffff;stroke:#444444;" x="395.58902" xlink:href="#m7c12d9c19c" y="128.397187"/>
    </g>
   </g>
   <g id="PathCollection_3">
    <g clip-path="url(#p54b4a83f6c)">
     <use style="fill:#ffffff;stroke:#444444;" x="379.356051" xlink:href="#m7c12d9c19c" y="200.877187"/>
    </g>
   </g>
   <g id="text_11">
    <!-- Average array (Crow et al.) expression -->
    <defs>
     <path d="M 4.203125 54.6875
L 13.1875 54.6875
L 24.421875 12.015625
L 35.59375 54.6875
L 46.1875 54.6875
L 57.421875 12.015625
L 68.609375 54.6875
L 77.59375 54.6875
L 63.28125 0
L 52.6875 0
L 40.921875 44.828125
L 29.109375 0
L 18.5 0
z
" id="DejaVuSans-119"/>
     <path d="M 18.3125 70.21875
L 18.3125 54.6875
L 36.8125 54.6875
L 36.8125 47.703125
L 18.3125 47.703125
L 18.3125 18.015625
Q 18.3125 11.328125 20.140625 9.421875
Q 21.96875 7.515625 27.59375 7.515625
L 36.8125 7.515625
L 36.8125 0
L 27.59375 0
Q 17.1875 0 13.234375 3.875
Q 9.28125 7.765625 9.28125 18.015625
L 9.28125 47.703125
L 2.6875 47.703125
L 2.6875 54.6875
L 9.28125 54.6875
L 9.28125 70.21875
z
" id="DejaVuSans-116"/>
     <path d="M 10.6875 12.40625
L 21 12.40625
L 21 0
L 10.6875 0
z
" id="DejaVuSans-46"/>
    </defs>
    <g transform="translate(247.60875 13.677187)scale(0.18 -0.18)">
     <use xlink:href="#DejaVuSans-65"/>
     <use x="68.330078" xlink:href="#DejaVuSans-118"/>
     <use x="127.509766" xlink:href="#DejaVuSans-101"/>
     <use x="189.033203" xlink:href="#DejaVuSans-114"/>
     <use x="230.146484" xlink:href="#DejaVuSans-97"/>
     <use x="291.425781" xlink:href="#DejaVuSans-103"/>
     <use x="354.902344" xlink:href="#DejaVuSans-101"/>
     <use x="416.425781" xlink:href="#DejaVuSans-32"/>
     <use x="448.212891" xlink:href="#DejaVuSans-97"/>
     <use x="509.492188" xlink:href="#DejaVuSans-114"/>
     <use x="550.589844" xlink:href="#DejaVuSans-114"/>
     <use x="591.703125" xlink:href="#DejaVuSans-97"/>
     <use x="652.982422" xlink:href="#DejaVuSans-121"/>
     <use x="712.162109" xlink:href="#DejaVuSans-32"/>
     <use x="743.949219" xlink:href="#DejaVuSans-40"/>
     <use x="782.962891" xlink:href="#DejaVuSans-67"/>
     <use x="852.787109" xlink:href="#DejaVuSans-114"/>
     <use x="893.869141" xlink:href="#DejaVuSans-111"/>
     <use x="955.050781" xlink:href="#DejaVuSans-119"/>
     <use x="1036.837891" xlink:href="#DejaVuSans-32"/>
     <use x="1068.625" xlink:href="#DejaVuSans-101"/>
     <use x="1130.148438" xlink:href="#DejaVuSans-116"/>
     <use x="1169.357422" xlink:href="#DejaVuSans-32"/>
     <use x="1201.144531" xlink:href="#DejaVuSans-97"/>
     <use x="1262.423828" xlink:href="#DejaVuSans-108"/>
     <use x="1290.207031" xlink:href="#DejaVuSans-46"/>
     <use x="1321.994141" xlink:href="#DejaVuSans-41"/>
     <use x="1361.007812" xlink:href="#DejaVuSans-32"/>
     <use x="1392.794922" xlink:href="#DejaVuSans-101"/>
     <use x="1454.302734" xlink:href="#DejaVuSans-120"/>
     <use x="1513.482422" xlink:href="#DejaVuSans-112"/>
     <use x="1576.958984" xlink:href="#DejaVuSans-114"/>
     <use x="1618.041016" xlink:href="#DejaVuSans-101"/>
     <use x="1679.564453" xlink:href="#DejaVuSans-115"/>
     <use x="1731.664062" xlink:href="#DejaVuSans-115"/>
     <use x="1783.763672" xlink:href="#DejaVuSans-105"/>
     <use x="1811.546875" xlink:href="#DejaVuSans-111"/>
     <use x="1872.728516" xlink:href="#DejaVuSans-110"/>
    </g>
   </g>
  </g>
 </g>
 <defs>
  <clipPath id="p54b4a83f6c">
   <rect height="217.44" width="334.8" x="254.46" y="19.677187"/>
  </clipPath>
 </defs>
</svg>
