<?xml version="1.0" encoding="utf-8" standalone="no"?>
<!DOCTYPE svg PUBLIC "-//W3C//DTD SVG 1.1//EN"
  "http://www.w3.org/Graphics/SVG/1.1/DTD/svg11.dtd">
<!-- Created with matplotlib (https://matplotlib.org/) -->
<svg height="262.914375pt" version="1.1" viewBox="0 0 476.404687 262.914375" width="476.404687pt" xmlns="http://www.w3.org/2000/svg" xmlns:xlink="http://www.w3.org/1999/xlink">
 <defs>
  <style type="text/css">
*{stroke-linecap:butt;stroke-linejoin:round;}
  </style>
 </defs>
 <g id="figure_1">
  <g id="patch_1">
   <path d="M 0 262.914375
L 476.404687 262.914375
L 476.404687 0
L 0 0
z
" style="fill:none;"/>
  </g>
  <g id="axes_1">
   <g id="patch_2">
    <path d="M 138.104687 232.558125
L 472.904687 232.558125
L 472.904687 15.118125
L 138.104687 15.118125
z
" style="fill:none;"/>
   </g>
   <g id="PolyCollection_1">
    <defs>
     <path d="M 160.672106 -211.555534
L 160.672106 -211.556966
L 163.672252 -211.558237
L 166.672397 -211.560461
L 169.672542 -211.563292
L 172.672688 -211.566125
L 175.672833 -211.56914
L 178.672979 -211.574118
L 181.673124 -211.58435
L 184.67327 -211.604659
L 187.673415 -211.643185
L 190.673561 -211.713815
L 193.673706 -211.833969
L 196.673852 -212.015617
L 199.673997 -212.258077
L 202.674142 -212.553635
L 205.674288 -212.904636
L 208.674433 -213.33994
L 211.674579 -213.921103
L 214.674724 -214.73371
L 217.67487 -215.851968
L 220.675015 -217.274728
L 223.675161 -218.887214
L 226.675306 -220.505589
L 229.675451 -221.958386
L 232.675597 -223.120758
L 235.675742 -223.911834
L 238.675888 -224.299343
L 241.676033 -224.300784
L 244.676179 -223.981281
L 247.676324 -223.455757
L 250.67647 -222.851005
L 253.676615 -222.237268
L 256.676761 -221.627946
L 259.676906 -221.043567
L 262.677051 -220.524887
L 265.677197 -220.090139
L 268.677342 -219.722616
L 271.677488 -219.398039
L 274.677633 -219.111003
L 277.677779 -218.876105
L 280.677924 -218.700603
L 283.67807 -218.565456
L 286.678215 -218.442495
L 289.67836 -218.310784
L 292.678506 -218.143729
L 295.678651 -217.901052
L 298.678797 -217.560032
L 301.678942 -217.151716
L 304.679088 -216.738525
L 307.679233 -216.354974
L 310.679379 -215.993191
L 313.679524 -215.636133
L 316.67967 -215.278963
L 319.679815 -214.926993
L 322.67996 -214.592448
L 325.680106 -214.290677
L 328.680251 -214.032351
L 331.680397 -213.817265
L 334.680542 -213.631223
L 337.680688 -213.451962
L 340.680833 -213.267736
L 343.680979 -213.086485
L 346.681124 -212.918608
L 349.681269 -212.760279
L 352.681415 -212.603938
L 355.68156 -212.454428
L 358.681706 -212.325008
L 361.681851 -212.224282
L 364.681997 -212.150024
L 367.682142 -212.09174
L 370.682288 -212.039648
L 373.682433 -211.990806
L 376.682579 -211.945689
L 379.682724 -211.902656
L 382.682869 -211.858973
L 385.683015 -211.816047
L 388.68316 -211.779582
L 391.683306 -211.752473
L 394.683451 -211.730175
L 397.683597 -211.705342
L 400.683742 -211.675647
L 403.683888 -211.645531
L 406.684033 -211.620985
L 409.684178 -211.603936
L 412.684324 -211.59174
L 415.684469 -211.581057
L 418.684615 -211.571174
L 421.68476 -211.563503
L 424.684906 -211.558994
L 427.685051 -211.557066
L 430.685197 -211.55658
L 433.685342 -211.556948
L 436.685488 -211.558327
L 439.685633 -211.56096
L 442.685778 -211.564116
L 445.685924 -211.565914
L 448.686069 -211.564982
L 451.686215 -211.562053
L 454.68636 -211.559086
L 457.686506 -211.557269
L 457.686506 -211.555231
L 457.686506 -211.555231
L 454.68636 -211.553414
L 451.686215 -211.550447
L 448.686069 -211.547518
L 445.685924 -211.546586
L 442.685778 -211.548384
L 439.685633 -211.55154
L 436.685488 -211.554173
L 433.685342 -211.555552
L 430.685197 -211.55592
L 427.685051 -211.555434
L 424.684906 -211.553506
L 421.68476 -211.548997
L 418.684615 -211.541326
L 415.684469 -211.531443
L 412.684324 -211.52076
L 409.684178 -211.508564
L 406.684033 -211.491515
L 403.683888 -211.466969
L 400.683742 -211.436853
L 397.683597 -211.407158
L 394.683451 -211.382325
L 391.683306 -211.360027
L 388.68316 -211.332918
L 385.683015 -211.296453
L 382.682869 -211.253527
L 379.682724 -211.209844
L 376.682579 -211.166811
L 373.682433 -211.121694
L 370.682288 -211.072852
L 367.682142 -211.02076
L 364.681997 -210.962476
L 361.681851 -210.888218
L 358.681706 -210.787492
L 355.68156 -210.658072
L 352.681415 -210.508562
L 349.681269 -210.352221
L 346.681124 -210.193892
L 343.680979 -210.026015
L 340.680833 -209.844764
L 337.680688 -209.660538
L 334.680542 -209.481277
L 331.680397 -209.295235
L 328.680251 -209.080149
L 325.680106 -208.821823
L 322.67996 -208.520052
L 319.679815 -208.185507
L 316.67967 -207.833537
L 313.679524 -207.476367
L 310.679379 -207.119309
L 307.679233 -206.757526
L 304.679088 -206.373975
L 301.678942 -205.960784
L 298.678797 -205.552468
L 295.678651 -205.211448
L 292.678506 -204.968771
L 289.67836 -204.801716
L 286.678215 -204.670005
L 283.67807 -204.547044
L 280.677924 -204.411897
L 277.677779 -204.236395
L 274.677633 -204.001497
L 271.677488 -203.714461
L 268.677342 -203.389884
L 265.677197 -203.022361
L 262.677051 -202.587613
L 259.676906 -202.068933
L 256.676761 -201.484554
L 253.676615 -200.875232
L 250.67647 -200.261495
L 247.676324 -199.656743
L 244.676179 -199.131219
L 241.676033 -198.811716
L 238.675888 -198.813157
L 235.675742 -199.200666
L 232.675597 -199.991742
L 229.675451 -201.154114
L 226.675306 -202.606911
L 223.675161 -204.225286
L 220.675015 -205.837772
L 217.67487 -207.260532
L 214.674724 -208.37879
L 211.674579 -209.191397
L 208.674433 -209.77256
L 205.674288 -210.207864
L 202.674142 -210.558865
L 199.673997 -210.854423
L 196.673852 -211.096883
L 193.673706 -211.278531
L 190.673561 -211.398685
L 187.673415 -211.469315
L 184.67327 -211.507841
L 181.673124 -211.52815
L 178.672979 -211.538382
L 175.672833 -211.54336
L 172.672688 -211.546375
L 169.672542 -211.549208
L 166.672397 -211.552039
L 163.672252 -211.554263
L 160.672106 -211.555534
z
" id="m245dc8c283" style="stroke:#444444;stroke-width:1.5;"/>
    </defs>
    <g clip-path="url(#p5863c8dd11)">
     <use style="fill:#d3d3d3;stroke:#444444;stroke-width:1.5;" x="0" xlink:href="#m245dc8c283" y="262.914375"/>
    </g>
   </g>
   <g id="PolyCollection_2">
    <defs>
     <path d="M 153.322869 -139.068283
L 153.322869 -139.084217
L 156.110373 -139.090355
L 158.897877 -139.09899
L 161.685381 -139.109691
L 164.472886 -139.121267
L 167.26039 -139.132139
L 170.047894 -139.141213
L 172.835398 -139.149025
L 175.622902 -139.158674
L 178.410406 -139.17627
L 181.19791 -139.210939
L 183.985414 -139.274786
L 186.772918 -139.382963
L 189.560422 -139.553326
L 192.347926 -139.804581
L 195.13543 -140.152075
L 197.922934 -140.601899
L 200.710438 -141.145852
L 203.497942 -141.760571
L 206.285446 -142.412708
L 209.072951 -143.06887
L 211.860455 -143.706205
L 214.647959 -144.319016
L 217.435463 -144.918783
L 220.222967 -145.528097
L 223.010471 -146.17109
L 225.797975 -146.863473
L 228.585479 -147.604752
L 231.372983 -148.374499
L 234.160487 -149.133997
L 236.947991 -149.833491
L 239.735495 -150.423588
L 242.522999 -150.867416
L 245.310503 -151.149094
L 248.098007 -151.275036
L 250.885511 -151.267738
L 253.673015 -151.155208
L 256.46052 -150.961008
L 259.248024 -150.698754
L 262.035528 -150.372151
L 264.823032 -149.979189
L 267.610536 -149.51805
L 270.39804 -148.992115
L 273.185544 -148.412006
L 275.973048 -147.794011
L 278.760552 -147.156389
L 281.548056 -146.516357
L 284.33556 -145.889607
L 287.123064 -145.291482
L 289.910568 -144.737214
L 292.698072 -144.23955
L 295.485576 -143.805058
L 298.27308 -143.432204
L 301.060584 -143.113194
L 303.848089 -142.838492
L 306.635593 -142.600644
L 309.423097 -142.394747
L 312.210601 -142.215726
L 314.998105 -142.055134
L 317.785609 -141.900318
L 320.573113 -141.73666
L 323.360617 -141.551345
L 326.148121 -141.33653
L 328.935625 -141.090935
L 331.723129 -140.820161
L 334.510633 -140.536236
L 337.298137 -140.256241
L 340.085641 -139.999593
L 342.873145 -139.78409
L 345.660649 -139.62179
L 348.448154 -139.516173
L 351.235658 -139.461633
L 354.023162 -139.445463
L 356.810666 -139.451549
L 359.59817 -139.464453
L 362.385674 -139.472535
L 365.173178 -139.46924
L 367.960682 -139.4526
L 370.748186 -139.423719
L 373.53569 -139.385299
L 376.323194 -139.340821
L 379.110698 -139.294323
L 381.898202 -139.250251
L 384.685706 -139.212878
L 387.47321 -139.185338
L 390.260714 -139.168732
L 393.048218 -139.16187
L 395.835723 -139.161843
L 398.623227 -139.165114
L 401.410731 -139.168543
L 404.198235 -139.169911
L 406.985739 -139.167933
L 409.773243 -139.162071
L 412.560747 -139.152454
L 415.348251 -139.139903
L 418.135755 -139.125867
L 420.923259 -139.11209
L 423.710763 -139.100106
L 426.498267 -139.090821
L 429.285771 -139.084392
L 429.285771 -139.068108
L 429.285771 -139.068108
L 426.498267 -139.061679
L 423.710763 -139.052394
L 420.923259 -139.04041
L 418.135755 -139.026633
L 415.348251 -139.012597
L 412.560747 -139.000046
L 409.773243 -138.990429
L 406.985739 -138.984567
L 404.198235 -138.982589
L 401.410731 -138.983957
L 398.623227 -138.987386
L 395.835723 -138.990657
L 393.048218 -138.99063
L 390.260714 -138.983768
L 387.47321 -138.967162
L 384.685706 -138.939622
L 381.898202 -138.902249
L 379.110698 -138.858177
L 376.323194 -138.811679
L 373.53569 -138.767201
L 370.748186 -138.728781
L 367.960682 -138.6999
L 365.173178 -138.68326
L 362.385674 -138.679965
L 359.59817 -138.688047
L 356.810666 -138.700951
L 354.023162 -138.707037
L 351.235658 -138.690867
L 348.448154 -138.636327
L 345.660649 -138.53071
L 342.873145 -138.36841
L 340.085641 -138.152907
L 337.298137 -137.896259
L 334.510633 -137.616264
L 331.723129 -137.332339
L 328.935625 -137.061565
L 326.148121 -136.81597
L 323.360617 -136.601155
L 320.573113 -136.41584
L 317.785609 -136.252182
L 314.998105 -136.097366
L 312.210601 -135.936774
L 309.423097 -135.757753
L 306.635593 -135.551856
L 303.848089 -135.314008
L 301.060584 -135.039306
L 298.27308 -134.720296
L 295.485576 -134.347442
L 292.698072 -133.91295
L 289.910568 -133.415286
L 287.123064 -132.861018
L 284.33556 -132.262893
L 281.548056 -131.636143
L 278.760552 -130.996111
L 275.973048 -130.358489
L 273.185544 -129.740494
L 270.39804 -129.160385
L 267.610536 -128.63445
L 264.823032 -128.173311
L 262.035528 -127.780349
L 259.248024 -127.453746
L 256.46052 -127.191492
L 253.673015 -126.997292
L 250.885511 -126.884762
L 248.098007 -126.877464
L 245.310503 -127.003406
L 242.522999 -127.285084
L 239.735495 -127.728912
L 236.947991 -128.319009
L 234.160487 -129.018503
L 231.372983 -129.778001
L 228.585479 -130.547748
L 225.797975 -131.289027
L 223.010471 -131.98141
L 220.222967 -132.624403
L 217.435463 -133.233717
L 214.647959 -133.833484
L 211.860455 -134.446295
L 209.072951 -135.08363
L 206.285446 -135.739792
L 203.497942 -136.391929
L 200.710438 -137.006648
L 197.922934 -137.550601
L 195.13543 -138.000425
L 192.347926 -138.347919
L 189.560422 -138.599174
L 186.772918 -138.769537
L 183.985414 -138.877714
L 181.19791 -138.941561
L 178.410406 -138.97623
L 175.622902 -138.993826
L 172.835398 -139.003475
L 170.047894 -139.011287
L 167.26039 -139.020361
L 164.472886 -139.031233
L 161.685381 -139.042809
L 158.897877 -139.05351
L 156.110373 -139.062145
L 153.322869 -139.068283
z
" id="mbcb92c59df" style="stroke:#444444;stroke-width:1.5;"/>
    </defs>
    <g clip-path="url(#p5863c8dd11)">
     <use style="fill:#3d7ca6;stroke:#444444;stroke-width:1.5;" x="0" xlink:href="#mbcb92c59df" y="262.914375"/>
    </g>
   </g>
   <g id="PolyCollection_3">
    <defs>
     <path d="M 185.85102 -66.579857
L 185.85102 -66.612643
L 187.595902 -66.630771
L 189.340784 -66.657654
L 191.085667 -66.688939
L 192.830549 -66.716465
L 194.575431 -66.734443
L 196.320313 -66.747008
L 198.065195 -66.769832
L 199.810077 -66.823108
L 201.554959 -66.922111
L 203.299841 -67.074471
L 205.044724 -67.285922
L 206.789606 -67.567378
L 208.534488 -67.93781
L 210.27937 -68.427778
L 212.024252 -69.089421
L 213.769134 -70.002261
L 215.514016 -71.254048
L 217.258899 -72.897543
L 219.003781 -74.91744
L 220.748663 -77.238772
L 222.493545 -79.765844
L 224.238427 -82.41151
L 225.983309 -85.094458
L 227.728191 -87.718418
L 229.473073 -90.159734
L 231.217956 -92.277304
L 232.962838 -93.940951
L 234.70772 -95.05981
L 236.452602 -95.58825
L 238.197484 -95.506228
L 239.942366 -94.803419
L 241.687248 -93.498692
L 243.432131 -91.681601
L 245.177013 -89.525796
L 246.921895 -87.250576
L 248.666777 -85.060563
L 250.411659 -83.103676
L 252.156541 -81.453808
L 253.901423 -80.102201
L 255.646306 -78.955557
L 257.391188 -77.861882
L 259.13607 -76.676047
L 260.880952 -75.334426
L 262.625834 -73.883012
L 264.370716 -72.437856
L 266.115598 -71.115716
L 267.86048 -69.988339
L 269.605363 -69.078654
L 271.350245 -68.381339
L 273.095127 -67.883397
L 274.840009 -67.571128
L 276.584891 -67.423334
L 278.329773 -67.401792
L 280.074655 -67.452259
L 281.819538 -67.518956
L 283.56442 -67.562358
L 285.309302 -67.567857
L 287.054184 -67.541617
L 288.799066 -67.498497
L 290.543948 -67.449208
L 292.28883 -67.393525
L 294.033712 -67.323698
L 295.778595 -67.234068
L 297.523477 -67.127207
L 299.268359 -67.012631
L 301.013241 -66.903037
L 302.758123 -66.812064
L 304.503005 -66.751485
L 306.247887 -66.72623
L 307.99277 -66.730902
L 309.737652 -66.752297
L 311.482534 -66.776887
L 313.227416 -66.797195
L 314.972298 -66.812324
L 316.71718 -66.824105
L 318.462062 -66.833623
L 320.206944 -66.840239
L 321.951827 -66.841744
L 323.696709 -66.834619
L 325.441591 -66.815179
L 327.186473 -66.782095
L 328.931355 -66.738781
L 330.676237 -66.693079
L 332.421119 -66.653629
L 334.166002 -66.625635
L 335.910884 -66.609436
L 337.655766 -66.602462
L 339.400648 -66.602334
L 341.14553 -66.608801
L 342.890412 -66.623454
L 344.635294 -66.647221
L 346.380177 -66.676896
L 348.125059 -66.703745
L 349.869941 -66.716928
L 351.614823 -66.710351
L 353.359705 -66.68711
L 355.104587 -66.657187
L 356.849469 -66.63067
L 358.594351 -66.612624
L 358.594351 -66.579876
L 358.594351 -66.579876
L 356.849469 -66.56183
L 355.104587 -66.535313
L 353.359705 -66.50539
L 351.614823 -66.482149
L 349.869941 -66.475572
L 348.125059 -66.488755
L 346.380177 -66.515604
L 344.635294 -66.545279
L 342.890412 -66.569046
L 341.14553 -66.583699
L 339.400648 -66.590166
L 337.655766 -66.590038
L 335.910884 -66.583064
L 334.166002 -66.566865
L 332.421119 -66.538871
L 330.676237 -66.499421
L 328.931355 -66.453719
L 327.186473 -66.410405
L 325.441591 -66.377321
L 323.696709 -66.357881
L 321.951827 -66.350756
L 320.206944 -66.352261
L 318.462062 -66.358877
L 316.71718 -66.368395
L 314.972298 -66.380176
L 313.227416 -66.395305
L 311.482534 -66.415613
L 309.737652 -66.440203
L 307.99277 -66.461598
L 306.247887 -66.46627
L 304.503005 -66.441015
L 302.758123 -66.380436
L 301.013241 -66.289463
L 299.268359 -66.179869
L 297.523477 -66.065293
L 295.778595 -65.958432
L 294.033712 -65.868802
L 292.28883 -65.798975
L 290.543948 -65.743292
L 288.799066 -65.694003
L 287.054184 -65.650883
L 285.309302 -65.624643
L 283.56442 -65.630142
L 281.819538 -65.673544
L 280.074655 -65.740241
L 278.329773 -65.790708
L 276.584891 -65.769166
L 274.840009 -65.621372
L 273.095127 -65.309103
L 271.350245 -64.811161
L 269.605363 -64.113846
L 267.86048 -63.204161
L 266.115598 -62.076784
L 264.370716 -60.754644
L 262.625834 -59.309488
L 260.880952 -57.858074
L 259.13607 -56.516453
L 257.391188 -55.330618
L 255.646306 -54.236943
L 253.901423 -53.090299
L 252.156541 -51.738692
L 250.411659 -50.088824
L 248.666777 -48.131937
L 246.921895 -45.941924
L 245.177013 -43.666704
L 243.432131 -41.510899
L 241.687248 -39.693808
L 239.942366 -38.389081
L 238.197484 -37.686272
L 236.452602 -37.60425
L 234.70772 -38.13269
L 232.962838 -39.251549
L 231.217956 -40.915196
L 229.473073 -43.032766
L 227.728191 -45.474082
L 225.983309 -48.098042
L 224.238427 -50.78099
L 222.493545 -53.426656
L 220.748663 -55.953728
L 219.003781 -58.27506
L 217.258899 -60.294957
L 215.514016 -61.938452
L 213.769134 -63.190239
L 212.024252 -64.103079
L 210.27937 -64.764722
L 208.534488 -65.25469
L 206.789606 -65.625122
L 205.044724 -65.906578
L 203.299841 -66.118029
L 201.554959 -66.270389
L 199.810077 -66.369392
L 198.065195 -66.422668
L 196.320313 -66.445492
L 194.575431 -66.458057
L 192.830549 -66.476035
L 191.085667 -66.503561
L 189.340784 -66.534846
L 187.595902 -66.561729
L 185.85102 -66.579857
z
" id="me7c0902940" style="stroke:#444444;stroke-width:1.5;"/>
    </defs>
    <g clip-path="url(#p5863c8dd11)">
     <use style="fill:#b4d4df;stroke:#444444;stroke-width:1.5;" x="0" xlink:href="#me7c0902940" y="262.914375"/>
    </g>
   </g>
   <g id="matplotlib.axis_1">
    <g id="xtick_1">
     <g id="line2d_1">
      <defs>
       <path d="M 0 0
L 0 3.5
" id="me31edc1738" style="stroke:#000000;stroke-width:0.8;"/>
      </defs>
      <g>
       <use style="stroke:#000000;stroke-width:0.8;" x="176.858198" xlink:href="#me31edc1738" y="232.558125"/>
      </g>
     </g>
     <g id="text_1">
      <!-- 0 -->
      <defs>
       <path d="M 31.78125 66.40625
Q 24.171875 66.40625 20.328125 58.90625
Q 16.5 51.421875 16.5 36.375
Q 16.5 21.390625 20.328125 13.890625
Q 24.171875 6.390625 31.78125 6.390625
Q 39.453125 6.390625 43.28125 13.890625
Q 47.125 21.390625 47.125 36.375
Q 47.125 51.421875 43.28125 58.90625
Q 39.453125 66.40625 31.78125 66.40625
z
M 31.78125 74.21875
Q 44.046875 74.21875 50.515625 64.515625
Q 56.984375 54.828125 56.984375 36.375
Q 56.984375 17.96875 50.515625 8.265625
Q 44.046875 -1.421875 31.78125 -1.421875
Q 19.53125 -1.421875 13.0625 8.265625
Q 6.59375 17.96875 6.59375 36.375
Q 6.59375 54.828125 13.0625 64.515625
Q 19.53125 74.21875 31.78125 74.21875
z
" id="DejaVuSans-48"/>
      </defs>
      <g transform="translate(173.676948 247.156563)scale(0.1 -0.1)">
       <use xlink:href="#DejaVuSans-48"/>
      </g>
     </g>
    </g>
    <g id="xtick_2">
     <g id="line2d_2">
      <g>
       <use style="stroke:#000000;stroke-width:0.8;" x="248.737921" xlink:href="#me31edc1738" y="232.558125"/>
      </g>
     </g>
     <g id="text_2">
      <!-- 1 -->
      <defs>
       <path d="M 12.40625 8.296875
L 28.515625 8.296875
L 28.515625 63.921875
L 10.984375 60.40625
L 10.984375 69.390625
L 28.421875 72.90625
L 38.28125 72.90625
L 38.28125 8.296875
L 54.390625 8.296875
L 54.390625 0
L 12.40625 0
z
" id="DejaVuSans-49"/>
      </defs>
      <g transform="translate(245.556671 247.156563)scale(0.1 -0.1)">
       <use xlink:href="#DejaVuSans-49"/>
      </g>
     </g>
    </g>
    <g id="xtick_3">
     <g id="line2d_3">
      <g>
       <use style="stroke:#000000;stroke-width:0.8;" x="320.617645" xlink:href="#me31edc1738" y="232.558125"/>
      </g>
     </g>
     <g id="text_3">
      <!-- 2 -->
      <defs>
       <path d="M 19.1875 8.296875
L 53.609375 8.296875
L 53.609375 0
L 7.328125 0
L 7.328125 8.296875
Q 12.9375 14.109375 22.625 23.890625
Q 32.328125 33.6875 34.8125 36.53125
Q 39.546875 41.84375 41.421875 45.53125
Q 43.3125 49.21875 43.3125 52.78125
Q 43.3125 58.59375 39.234375 62.25
Q 35.15625 65.921875 28.609375 65.921875
Q 23.96875 65.921875 18.8125 64.3125
Q 13.671875 62.703125 7.8125 59.421875
L 7.8125 69.390625
Q 13.765625 71.78125 18.9375 73
Q 24.125 74.21875 28.421875 74.21875
Q 39.75 74.21875 46.484375 68.546875
Q 53.21875 62.890625 53.21875 53.421875
Q 53.21875 48.921875 51.53125 44.890625
Q 49.859375 40.875 45.40625 35.40625
Q 44.1875 33.984375 37.640625 27.21875
Q 31.109375 20.453125 19.1875 8.296875
z
" id="DejaVuSans-50"/>
      </defs>
      <g transform="translate(317.436395 247.156563)scale(0.1 -0.1)">
       <use xlink:href="#DejaVuSans-50"/>
      </g>
     </g>
    </g>
    <g id="xtick_4">
     <g id="line2d_4">
      <g>
       <use style="stroke:#000000;stroke-width:0.8;" x="392.497368" xlink:href="#me31edc1738" y="232.558125"/>
      </g>
     </g>
     <g id="text_4">
      <!-- 3 -->
      <defs>
       <path d="M 40.578125 39.3125
Q 47.65625 37.796875 51.625 33
Q 55.609375 28.21875 55.609375 21.1875
Q 55.609375 10.40625 48.1875 4.484375
Q 40.765625 -1.421875 27.09375 -1.421875
Q 22.515625 -1.421875 17.65625 -0.515625
Q 12.796875 0.390625 7.625 2.203125
L 7.625 11.71875
Q 11.71875 9.328125 16.59375 8.109375
Q 21.484375 6.890625 26.8125 6.890625
Q 36.078125 6.890625 40.9375 10.546875
Q 45.796875 14.203125 45.796875 21.1875
Q 45.796875 27.640625 41.28125 31.265625
Q 36.765625 34.90625 28.71875 34.90625
L 20.21875 34.90625
L 20.21875 43.015625
L 29.109375 43.015625
Q 36.375 43.015625 40.234375 45.921875
Q 44.09375 48.828125 44.09375 54.296875
Q 44.09375 59.90625 40.109375 62.90625
Q 36.140625 65.921875 28.71875 65.921875
Q 24.65625 65.921875 20.015625 65.03125
Q 15.375 64.15625 9.8125 62.3125
L 9.8125 71.09375
Q 15.4375 72.65625 20.34375 73.4375
Q 25.25 74.21875 29.59375 74.21875
Q 40.828125 74.21875 47.359375 69.109375
Q 53.90625 64.015625 53.90625 55.328125
Q 53.90625 49.265625 50.4375 45.09375
Q 46.96875 40.921875 40.578125 39.3125
z
" id="DejaVuSans-51"/>
      </defs>
      <g transform="translate(389.316118 247.156563)scale(0.1 -0.1)">
       <use xlink:href="#DejaVuSans-51"/>
      </g>
     </g>
    </g>
    <g id="xtick_5">
     <g id="line2d_5">
      <g>
       <use style="stroke:#000000;stroke-width:0.8;" x="464.377092" xlink:href="#me31edc1738" y="232.558125"/>
      </g>
     </g>
     <g id="text_5">
      <!-- 4 -->
      <defs>
       <path d="M 37.796875 64.3125
L 12.890625 25.390625
L 37.796875 25.390625
z
M 35.203125 72.90625
L 47.609375 72.90625
L 47.609375 25.390625
L 58.015625 25.390625
L 58.015625 17.1875
L 47.609375 17.1875
L 47.609375 0
L 37.796875 0
L 37.796875 17.1875
L 4.890625 17.1875
L 4.890625 26.703125
z
" id="DejaVuSans-52"/>
      </defs>
      <g transform="translate(461.195842 247.156563)scale(0.1 -0.1)">
       <use xlink:href="#DejaVuSans-52"/>
      </g>
     </g>
    </g>
    <g id="text_6">
     <!-- log10(average expression) -->
     <defs>
      <path d="M 9.421875 75.984375
L 18.40625 75.984375
L 18.40625 0
L 9.421875 0
z
" id="DejaVuSans-108"/>
      <path d="M 30.609375 48.390625
Q 23.390625 48.390625 19.1875 42.75
Q 14.984375 37.109375 14.984375 27.296875
Q 14.984375 17.484375 19.15625 11.84375
Q 23.34375 6.203125 30.609375 6.203125
Q 37.796875 6.203125 41.984375 11.859375
Q 46.1875 17.53125 46.1875 27.296875
Q 46.1875 37.015625 41.984375 42.703125
Q 37.796875 48.390625 30.609375 48.390625
z
M 30.609375 56
Q 42.328125 56 49.015625 48.375
Q 55.71875 40.765625 55.71875 27.296875
Q 55.71875 13.875 49.015625 6.21875
Q 42.328125 -1.421875 30.609375 -1.421875
Q 18.84375 -1.421875 12.171875 6.21875
Q 5.515625 13.875 5.515625 27.296875
Q 5.515625 40.765625 12.171875 48.375
Q 18.84375 56 30.609375 56
z
" id="DejaVuSans-111"/>
      <path d="M 45.40625 27.984375
Q 45.40625 37.75 41.375 43.109375
Q 37.359375 48.484375 30.078125 48.484375
Q 22.859375 48.484375 18.828125 43.109375
Q 14.796875 37.75 14.796875 27.984375
Q 14.796875 18.265625 18.828125 12.890625
Q 22.859375 7.515625 30.078125 7.515625
Q 37.359375 7.515625 41.375 12.890625
Q 45.40625 18.265625 45.40625 27.984375
z
M 54.390625 6.78125
Q 54.390625 -7.171875 48.1875 -13.984375
Q 42 -20.796875 29.203125 -20.796875
Q 24.46875 -20.796875 20.265625 -20.09375
Q 16.0625 -19.390625 12.109375 -17.921875
L 12.109375 -9.1875
Q 16.0625 -11.328125 19.921875 -12.34375
Q 23.78125 -13.375 27.78125 -13.375
Q 36.625 -13.375 41.015625 -8.765625
Q 45.40625 -4.15625 45.40625 5.171875
L 45.40625 9.625
Q 42.625 4.78125 38.28125 2.390625
Q 33.9375 0 27.875 0
Q 17.828125 0 11.671875 7.65625
Q 5.515625 15.328125 5.515625 27.984375
Q 5.515625 40.671875 11.671875 48.328125
Q 17.828125 56 27.875 56
Q 33.9375 56 38.28125 53.609375
Q 42.625 51.21875 45.40625 46.390625
L 45.40625 54.6875
L 54.390625 54.6875
z
" id="DejaVuSans-103"/>
      <path d="M 31 75.875
Q 24.46875 64.65625 21.28125 53.65625
Q 18.109375 42.671875 18.109375 31.390625
Q 18.109375 20.125 21.3125 9.0625
Q 24.515625 -2 31 -13.1875
L 23.1875 -13.1875
Q 15.875 -1.703125 12.234375 9.375
Q 8.59375 20.453125 8.59375 31.390625
Q 8.59375 42.28125 12.203125 53.3125
Q 15.828125 64.359375 23.1875 75.875
z
" id="DejaVuSans-40"/>
      <path d="M 34.28125 27.484375
Q 23.390625 27.484375 19.1875 25
Q 14.984375 22.515625 14.984375 16.5
Q 14.984375 11.71875 18.140625 8.90625
Q 21.296875 6.109375 26.703125 6.109375
Q 34.1875 6.109375 38.703125 11.40625
Q 43.21875 16.703125 43.21875 25.484375
L 43.21875 27.484375
z
M 52.203125 31.203125
L 52.203125 0
L 43.21875 0
L 43.21875 8.296875
Q 40.140625 3.328125 35.546875 0.953125
Q 30.953125 -1.421875 24.3125 -1.421875
Q 15.921875 -1.421875 10.953125 3.296875
Q 6 8.015625 6 15.921875
Q 6 25.140625 12.171875 29.828125
Q 18.359375 34.515625 30.609375 34.515625
L 43.21875 34.515625
L 43.21875 35.40625
Q 43.21875 41.609375 39.140625 45
Q 35.0625 48.390625 27.6875 48.390625
Q 23 48.390625 18.546875 47.265625
Q 14.109375 46.140625 10.015625 43.890625
L 10.015625 52.203125
Q 14.9375 54.109375 19.578125 55.046875
Q 24.21875 56 28.609375 56
Q 40.484375 56 46.34375 49.84375
Q 52.203125 43.703125 52.203125 31.203125
z
" id="DejaVuSans-97"/>
      <path d="M 2.984375 54.6875
L 12.5 54.6875
L 29.59375 8.796875
L 46.6875 54.6875
L 56.203125 54.6875
L 35.6875 0
L 23.484375 0
z
" id="DejaVuSans-118"/>
      <path d="M 56.203125 29.59375
L 56.203125 25.203125
L 14.890625 25.203125
Q 15.484375 15.921875 20.484375 11.0625
Q 25.484375 6.203125 34.421875 6.203125
Q 39.59375 6.203125 44.453125 7.46875
Q 49.3125 8.734375 54.109375 11.28125
L 54.109375 2.78125
Q 49.265625 0.734375 44.1875 -0.34375
Q 39.109375 -1.421875 33.890625 -1.421875
Q 20.796875 -1.421875 13.15625 6.1875
Q 5.515625 13.8125 5.515625 26.8125
Q 5.515625 40.234375 12.765625 48.109375
Q 20.015625 56 32.328125 56
Q 43.359375 56 49.78125 48.890625
Q 56.203125 41.796875 56.203125 29.59375
z
M 47.21875 32.234375
Q 47.125 39.59375 43.09375 43.984375
Q 39.0625 48.390625 32.421875 48.390625
Q 24.90625 48.390625 20.390625 44.140625
Q 15.875 39.890625 15.1875 32.171875
z
" id="DejaVuSans-101"/>
      <path d="M 41.109375 46.296875
Q 39.59375 47.171875 37.8125 47.578125
Q 36.03125 48 33.890625 48
Q 26.265625 48 22.1875 43.046875
Q 18.109375 38.09375 18.109375 28.8125
L 18.109375 0
L 9.078125 0
L 9.078125 54.6875
L 18.109375 54.6875
L 18.109375 46.1875
Q 20.953125 51.171875 25.484375 53.578125
Q 30.03125 56 36.53125 56
Q 37.453125 56 38.578125 55.875
Q 39.703125 55.765625 41.0625 55.515625
z
" id="DejaVuSans-114"/>
      <path id="DejaVuSans-32"/>
      <path d="M 54.890625 54.6875
L 35.109375 28.078125
L 55.90625 0
L 45.3125 0
L 29.390625 21.484375
L 13.484375 0
L 2.875 0
L 24.125 28.609375
L 4.6875 54.6875
L 15.28125 54.6875
L 29.78125 35.203125
L 44.28125 54.6875
z
" id="DejaVuSans-120"/>
      <path d="M 18.109375 8.203125
L 18.109375 -20.796875
L 9.078125 -20.796875
L 9.078125 54.6875
L 18.109375 54.6875
L 18.109375 46.390625
Q 20.953125 51.265625 25.265625 53.625
Q 29.59375 56 35.59375 56
Q 45.5625 56 51.78125 48.09375
Q 58.015625 40.1875 58.015625 27.296875
Q 58.015625 14.40625 51.78125 6.484375
Q 45.5625 -1.421875 35.59375 -1.421875
Q 29.59375 -1.421875 25.265625 0.953125
Q 20.953125 3.328125 18.109375 8.203125
z
M 48.6875 27.296875
Q 48.6875 37.203125 44.609375 42.84375
Q 40.53125 48.484375 33.40625 48.484375
Q 26.265625 48.484375 22.1875 42.84375
Q 18.109375 37.203125 18.109375 27.296875
Q 18.109375 17.390625 22.1875 11.75
Q 26.265625 6.109375 33.40625 6.109375
Q 40.53125 6.109375 44.609375 11.75
Q 48.6875 17.390625 48.6875 27.296875
z
" id="DejaVuSans-112"/>
      <path d="M 44.28125 53.078125
L 44.28125 44.578125
Q 40.484375 46.53125 36.375 47.5
Q 32.28125 48.484375 27.875 48.484375
Q 21.1875 48.484375 17.84375 46.4375
Q 14.5 44.390625 14.5 40.28125
Q 14.5 37.15625 16.890625 35.375
Q 19.28125 33.59375 26.515625 31.984375
L 29.59375 31.296875
Q 39.15625 29.25 43.1875 25.515625
Q 47.21875 21.78125 47.21875 15.09375
Q 47.21875 7.46875 41.1875 3.015625
Q 35.15625 -1.421875 24.609375 -1.421875
Q 20.21875 -1.421875 15.453125 -0.5625
Q 10.6875 0.296875 5.421875 2
L 5.421875 11.28125
Q 10.40625 8.6875 15.234375 7.390625
Q 20.0625 6.109375 24.8125 6.109375
Q 31.15625 6.109375 34.5625 8.28125
Q 37.984375 10.453125 37.984375 14.40625
Q 37.984375 18.0625 35.515625 20.015625
Q 33.0625 21.96875 24.703125 23.78125
L 21.578125 24.515625
Q 13.234375 26.265625 9.515625 29.90625
Q 5.8125 33.546875 5.8125 39.890625
Q 5.8125 47.609375 11.28125 51.796875
Q 16.75 56 26.8125 56
Q 31.78125 56 36.171875 55.265625
Q 40.578125 54.546875 44.28125 53.078125
z
" id="DejaVuSans-115"/>
      <path d="M 9.421875 54.6875
L 18.40625 54.6875
L 18.40625 0
L 9.421875 0
z
M 9.421875 75.984375
L 18.40625 75.984375
L 18.40625 64.59375
L 9.421875 64.59375
z
" id="DejaVuSans-105"/>
      <path d="M 54.890625 33.015625
L 54.890625 0
L 45.90625 0
L 45.90625 32.71875
Q 45.90625 40.484375 42.875 44.328125
Q 39.84375 48.1875 33.796875 48.1875
Q 26.515625 48.1875 22.3125 43.546875
Q 18.109375 38.921875 18.109375 30.90625
L 18.109375 0
L 9.078125 0
L 9.078125 54.6875
L 18.109375 54.6875
L 18.109375 46.1875
Q 21.34375 51.125 25.703125 53.5625
Q 30.078125 56 35.796875 56
Q 45.21875 56 50.046875 50.171875
Q 54.890625 44.34375 54.890625 33.015625
z
" id="DejaVuSans-110"/>
      <path d="M 8.015625 75.875
L 15.828125 75.875
Q 23.140625 64.359375 26.78125 53.3125
Q 30.421875 42.28125 30.421875 31.390625
Q 30.421875 20.453125 26.78125 9.375
Q 23.140625 -1.703125 15.828125 -13.1875
L 8.015625 -13.1875
Q 14.5 -2 17.703125 9.0625
Q 20.90625 20.125 20.90625 31.390625
Q 20.90625 42.671875 17.703125 53.65625
Q 14.5 64.65625 8.015625 75.875
z
" id="DejaVuSans-41"/>
     </defs>
     <g transform="translate(238.392187 260.834688)scale(0.1 -0.1)">
      <use xlink:href="#DejaVuSans-108"/>
      <use x="27.783203" xlink:href="#DejaVuSans-111"/>
      <use x="88.964844" xlink:href="#DejaVuSans-103"/>
      <use x="152.441406" xlink:href="#DejaVuSans-49"/>
      <use x="216.064453" xlink:href="#DejaVuSans-48"/>
      <use x="279.6875" xlink:href="#DejaVuSans-40"/>
      <use x="318.701172" xlink:href="#DejaVuSans-97"/>
      <use x="379.980469" xlink:href="#DejaVuSans-118"/>
      <use x="439.160156" xlink:href="#DejaVuSans-101"/>
      <use x="500.683594" xlink:href="#DejaVuSans-114"/>
      <use x="541.796875" xlink:href="#DejaVuSans-97"/>
      <use x="603.076172" xlink:href="#DejaVuSans-103"/>
      <use x="666.552734" xlink:href="#DejaVuSans-101"/>
      <use x="728.076172" xlink:href="#DejaVuSans-32"/>
      <use x="759.863281" xlink:href="#DejaVuSans-101"/>
      <use x="821.371094" xlink:href="#DejaVuSans-120"/>
      <use x="880.550781" xlink:href="#DejaVuSans-112"/>
      <use x="944.027344" xlink:href="#DejaVuSans-114"/>
      <use x="985.109375" xlink:href="#DejaVuSans-101"/>
      <use x="1046.632812" xlink:href="#DejaVuSans-115"/>
      <use x="1098.732422" xlink:href="#DejaVuSans-115"/>
      <use x="1150.832031" xlink:href="#DejaVuSans-105"/>
      <use x="1178.615234" xlink:href="#DejaVuSans-111"/>
      <use x="1239.796875" xlink:href="#DejaVuSans-110"/>
      <use x="1303.175781" xlink:href="#DejaVuSans-41"/>
     </g>
    </g>
   </g>
   <g id="matplotlib.axis_2">
    <g id="ytick_1">
     <g id="line2d_6">
      <defs>
       <path d="M 0 0
L -3.5 0
" id="maccc42ecd1" style="stroke:#000000;stroke-width:0.8;"/>
      </defs>
      <g>
       <use style="stroke:#000000;stroke-width:0.8;" x="138.104687" xlink:href="#maccc42ecd1" y="51.358125"/>
      </g>
     </g>
     <g id="text_7">
      <!-- all genes -->
      <g transform="translate(86.040625 55.157344)scale(0.1 -0.1)">
       <use xlink:href="#DejaVuSans-97"/>
       <use x="61.279297" xlink:href="#DejaVuSans-108"/>
       <use x="89.0625" xlink:href="#DejaVuSans-108"/>
       <use x="116.845703" xlink:href="#DejaVuSans-32"/>
       <use x="148.632812" xlink:href="#DejaVuSans-103"/>
       <use x="212.109375" xlink:href="#DejaVuSans-101"/>
       <use x="273.632812" xlink:href="#DejaVuSans-110"/>
       <use x="337.011719" xlink:href="#DejaVuSans-101"/>
       <use x="398.535156" xlink:href="#DejaVuSans-115"/>
      </g>
     </g>
    </g>
    <g id="ytick_2">
     <g id="line2d_7">
      <g>
       <use style="stroke:#000000;stroke-width:0.8;" x="138.104687" xlink:href="#maccc42ecd1" y="123.838125"/>
      </g>
     </g>
     <g id="text_8">
      <!-- RNAseq and array generic -->
      <defs>
       <path d="M 44.390625 34.1875
Q 47.5625 33.109375 50.5625 29.59375
Q 53.5625 26.078125 56.59375 19.921875
L 66.609375 0
L 56 0
L 46.6875 18.703125
Q 43.0625 26.03125 39.671875 28.421875
Q 36.28125 30.8125 30.421875 30.8125
L 19.671875 30.8125
L 19.671875 0
L 9.8125 0
L 9.8125 72.90625
L 32.078125 72.90625
Q 44.578125 72.90625 50.734375 67.671875
Q 56.890625 62.453125 56.890625 51.90625
Q 56.890625 45.015625 53.6875 40.46875
Q 50.484375 35.9375 44.390625 34.1875
z
M 19.671875 64.796875
L 19.671875 38.921875
L 32.078125 38.921875
Q 39.203125 38.921875 42.84375 42.21875
Q 46.484375 45.515625 46.484375 51.90625
Q 46.484375 58.296875 42.84375 61.546875
Q 39.203125 64.796875 32.078125 64.796875
z
" id="DejaVuSans-82"/>
       <path d="M 9.8125 72.90625
L 23.09375 72.90625
L 55.421875 11.921875
L 55.421875 72.90625
L 64.984375 72.90625
L 64.984375 0
L 51.703125 0
L 19.390625 60.984375
L 19.390625 0
L 9.8125 0
z
" id="DejaVuSans-78"/>
       <path d="M 34.1875 63.1875
L 20.796875 26.90625
L 47.609375 26.90625
z
M 28.609375 72.90625
L 39.796875 72.90625
L 67.578125 0
L 57.328125 0
L 50.6875 18.703125
L 17.828125 18.703125
L 11.1875 0
L 0.78125 0
z
" id="DejaVuSans-65"/>
       <path d="M 14.796875 27.296875
Q 14.796875 17.390625 18.875 11.75
Q 22.953125 6.109375 30.078125 6.109375
Q 37.203125 6.109375 41.296875 11.75
Q 45.40625 17.390625 45.40625 27.296875
Q 45.40625 37.203125 41.296875 42.84375
Q 37.203125 48.484375 30.078125 48.484375
Q 22.953125 48.484375 18.875 42.84375
Q 14.796875 37.203125 14.796875 27.296875
z
M 45.40625 8.203125
Q 42.578125 3.328125 38.25 0.953125
Q 33.9375 -1.421875 27.875 -1.421875
Q 17.96875 -1.421875 11.734375 6.484375
Q 5.515625 14.40625 5.515625 27.296875
Q 5.515625 40.1875 11.734375 48.09375
Q 17.96875 56 27.875 56
Q 33.9375 56 38.25 53.625
Q 42.578125 51.265625 45.40625 46.390625
L 45.40625 54.6875
L 54.390625 54.6875
L 54.390625 -20.796875
L 45.40625 -20.796875
z
" id="DejaVuSans-113"/>
       <path d="M 45.40625 46.390625
L 45.40625 75.984375
L 54.390625 75.984375
L 54.390625 0
L 45.40625 0
L 45.40625 8.203125
Q 42.578125 3.328125 38.25 0.953125
Q 33.9375 -1.421875 27.875 -1.421875
Q 17.96875 -1.421875 11.734375 6.484375
Q 5.515625 14.40625 5.515625 27.296875
Q 5.515625 40.1875 11.734375 48.09375
Q 17.96875 56 27.875 56
Q 33.9375 56 38.25 53.625
Q 42.578125 51.265625 45.40625 46.390625
z
M 14.796875 27.296875
Q 14.796875 17.390625 18.875 11.75
Q 22.953125 6.109375 30.078125 6.109375
Q 37.203125 6.109375 41.296875 11.75
Q 45.40625 17.390625 45.40625 27.296875
Q 45.40625 37.203125 41.296875 42.84375
Q 37.203125 48.484375 30.078125 48.484375
Q 22.953125 48.484375 18.875 42.84375
Q 14.796875 37.203125 14.796875 27.296875
z
" id="DejaVuSans-100"/>
       <path d="M 32.171875 -5.078125
Q 28.375 -14.84375 24.75 -17.8125
Q 21.140625 -20.796875 15.09375 -20.796875
L 7.90625 -20.796875
L 7.90625 -13.28125
L 13.1875 -13.28125
Q 16.890625 -13.28125 18.9375 -11.515625
Q 21 -9.765625 23.484375 -3.21875
L 25.09375 0.875
L 2.984375 54.6875
L 12.5 54.6875
L 29.59375 11.921875
L 46.6875 54.6875
L 56.203125 54.6875
z
" id="DejaVuSans-121"/>
       <path d="M 48.78125 52.59375
L 48.78125 44.1875
Q 44.96875 46.296875 41.140625 47.34375
Q 37.3125 48.390625 33.40625 48.390625
Q 24.65625 48.390625 19.8125 42.84375
Q 14.984375 37.3125 14.984375 27.296875
Q 14.984375 17.28125 19.8125 11.734375
Q 24.65625 6.203125 33.40625 6.203125
Q 37.3125 6.203125 41.140625 7.25
Q 44.96875 8.296875 48.78125 10.40625
L 48.78125 2.09375
Q 45.015625 0.34375 40.984375 -0.53125
Q 36.96875 -1.421875 32.421875 -1.421875
Q 20.0625 -1.421875 12.78125 6.34375
Q 5.515625 14.109375 5.515625 27.296875
Q 5.515625 40.671875 12.859375 48.328125
Q 20.21875 56 33.015625 56
Q 37.15625 56 41.109375 55.140625
Q 45.0625 54.296875 48.78125 52.59375
z
" id="DejaVuSans-99"/>
      </defs>
      <g transform="translate(-0 127.637344)scale(0.1 -0.1)">
       <use xlink:href="#DejaVuSans-82"/>
       <use x="69.482422" xlink:href="#DejaVuSans-78"/>
       <use x="144.287109" xlink:href="#DejaVuSans-65"/>
       <use x="212.695312" xlink:href="#DejaVuSans-115"/>
       <use x="264.794922" xlink:href="#DejaVuSans-101"/>
       <use x="326.318359" xlink:href="#DejaVuSans-113"/>
       <use x="389.794922" xlink:href="#DejaVuSans-32"/>
       <use x="421.582031" xlink:href="#DejaVuSans-97"/>
       <use x="482.861328" xlink:href="#DejaVuSans-110"/>
       <use x="546.240234" xlink:href="#DejaVuSans-100"/>
       <use x="609.716797" xlink:href="#DejaVuSans-32"/>
       <use x="641.503906" xlink:href="#DejaVuSans-97"/>
       <use x="702.783203" xlink:href="#DejaVuSans-114"/>
       <use x="743.880859" xlink:href="#DejaVuSans-114"/>
       <use x="784.994141" xlink:href="#DejaVuSans-97"/>
       <use x="846.273438" xlink:href="#DejaVuSans-121"/>
       <use x="905.453125" xlink:href="#DejaVuSans-32"/>
       <use x="937.240234" xlink:href="#DejaVuSans-103"/>
       <use x="1000.716797" xlink:href="#DejaVuSans-101"/>
       <use x="1062.240234" xlink:href="#DejaVuSans-110"/>
       <use x="1125.619141" xlink:href="#DejaVuSans-101"/>
       <use x="1187.142578" xlink:href="#DejaVuSans-114"/>
       <use x="1228.255859" xlink:href="#DejaVuSans-105"/>
       <use x="1256.039062" xlink:href="#DejaVuSans-99"/>
      </g>
     </g>
    </g>
    <g id="ytick_3">
     <g id="line2d_8">
      <g>
       <use style="stroke:#000000;stroke-width:0.8;" x="138.104687" xlink:href="#maccc42ecd1" y="196.318125"/>
      </g>
     </g>
     <g id="text_9">
      <!-- only RNAseq generic -->
      <g transform="translate(27.234375 200.117344)scale(0.1 -0.1)">
       <use xlink:href="#DejaVuSans-111"/>
       <use x="61.181641" xlink:href="#DejaVuSans-110"/>
       <use x="124.560547" xlink:href="#DejaVuSans-108"/>
       <use x="152.34375" xlink:href="#DejaVuSans-121"/>
       <use x="211.523438" xlink:href="#DejaVuSans-32"/>
       <use x="243.310547" xlink:href="#DejaVuSans-82"/>
       <use x="312.792969" xlink:href="#DejaVuSans-78"/>
       <use x="387.597656" xlink:href="#DejaVuSans-65"/>
       <use x="456.005859" xlink:href="#DejaVuSans-115"/>
       <use x="508.105469" xlink:href="#DejaVuSans-101"/>
       <use x="569.628906" xlink:href="#DejaVuSans-113"/>
       <use x="633.105469" xlink:href="#DejaVuSans-32"/>
       <use x="664.892578" xlink:href="#DejaVuSans-103"/>
       <use x="728.369141" xlink:href="#DejaVuSans-101"/>
       <use x="789.892578" xlink:href="#DejaVuSans-110"/>
       <use x="853.271484" xlink:href="#DejaVuSans-101"/>
       <use x="914.794922" xlink:href="#DejaVuSans-114"/>
       <use x="955.908203" xlink:href="#DejaVuSans-105"/>
       <use x="983.691406" xlink:href="#DejaVuSans-99"/>
      </g>
     </g>
    </g>
   </g>
   <g id="line2d_9">
    <path clip-path="url(#p5863c8dd11)" d="M 171.383484 51.358125
L 367.679277 51.358125
" style="fill:none;stroke:#444444;stroke-linecap:square;stroke-width:1.5;"/>
   </g>
   <g id="line2d_10">
    <path clip-path="url(#p5863c8dd11)" d="M 238.970345 51.358125
L 290.460099 51.358125
" style="fill:none;stroke:#444444;stroke-linecap:square;stroke-width:4.5;"/>
   </g>
   <g id="line2d_11">
    <path clip-path="url(#p5863c8dd11)" d="M 191.220716 123.838125
L 340.99879 123.838125
" style="fill:none;stroke:#444444;stroke-linecap:square;stroke-width:1.5;"/>
   </g>
   <g id="line2d_12">
    <path clip-path="url(#p5863c8dd11)" d="M 237.424914 123.838125
L 279.091499 123.838125
" style="fill:none;stroke:#444444;stroke-linecap:square;stroke-width:4.5;"/>
   </g>
   <g id="line2d_13">
    <path clip-path="url(#p5863c8dd11)" d="M 205.829861 196.318125
L 273.136777 196.318125
" style="fill:none;stroke:#444444;stroke-linecap:square;stroke-width:1.5;"/>
   </g>
   <g id="line2d_14">
    <path clip-path="url(#p5863c8dd11)" d="M 230.957997 196.318125
L 248.066402 196.318125
" style="fill:none;stroke:#444444;stroke-linecap:square;stroke-width:4.5;"/>
   </g>
   <g id="patch_3">
    <path d="M 138.104687 232.558125
L 138.104687 15.118125
" style="fill:none;stroke:#000000;stroke-linecap:square;stroke-linejoin:miter;stroke-width:0.8;"/>
   </g>
   <g id="patch_4">
    <path d="M 472.904687 232.558125
L 472.904687 15.118125
" style="fill:none;stroke:#000000;stroke-linecap:square;stroke-linejoin:miter;stroke-width:0.8;"/>
   </g>
   <g id="patch_5">
    <path d="M 138.104687 232.558125
L 472.904687 232.558125
" style="fill:none;stroke:#000000;stroke-linecap:square;stroke-linejoin:miter;stroke-width:0.8;"/>
   </g>
   <g id="patch_6">
    <path d="M 138.104687 15.118125
L 472.904687 15.118125
" style="fill:none;stroke:#000000;stroke-linecap:square;stroke-linejoin:miter;stroke-width:0.8;"/>
   </g>
   <g id="PathCollection_1">
    <defs>
     <path d="M 0 1.5
C 0.397805 1.5 0.77937 1.341951 1.06066 1.06066
C 1.341951 0.77937 1.5 0.397805 1.5 0
C 1.5 -0.397805 1.341951 -0.77937 1.06066 -1.06066
C 0.77937 -1.341951 0.397805 -1.5 0 -1.5
C -0.397805 -1.5 -0.77937 -1.341951 -1.06066 -1.06066
C -1.341951 -0.77937 -1.5 -0.397805 -1.5 0
C -1.5 0.397805 -1.341951 0.77937 -1.06066 1.06066
C -0.77937 1.341951 -0.397805 1.5 0 1.5
z
" id="m1910cb07dd" style="stroke:#444444;"/>
    </defs>
    <g clip-path="url(#p5863c8dd11)">
     <use style="fill:#ffffff;stroke:#444444;" x="259.5308" xlink:href="#m1910cb07dd" y="51.358125"/>
    </g>
   </g>
   <g id="PathCollection_2">
    <g clip-path="url(#p5863c8dd11)">
     <use style="fill:#ffffff;stroke:#444444;" x="256.476607" xlink:href="#m1910cb07dd" y="123.838125"/>
    </g>
   </g>
   <g id="PathCollection_3">
    <g clip-path="url(#p5863c8dd11)">
     <use style="fill:#ffffff;stroke:#444444;" x="239.05096" xlink:href="#m1910cb07dd" y="196.318125"/>
    </g>
   </g>
   <g id="text_10">
    <!-- Average array (Crow et. al.) expression -->
    <defs>
     <path d="M 64.40625 67.28125
L 64.40625 56.890625
Q 59.421875 61.53125 53.78125 63.8125
Q 48.140625 66.109375 41.796875 66.109375
Q 29.296875 66.109375 22.65625 58.46875
Q 16.015625 50.828125 16.015625 36.375
Q 16.015625 21.96875 22.65625 14.328125
Q 29.296875 6.6875 41.796875 6.6875
Q 48.140625 6.6875 53.78125 8.984375
Q 59.421875 11.28125 64.40625 15.921875
L 64.40625 5.609375
Q 59.234375 2.09375 53.4375 0.328125
Q 47.65625 -1.421875 41.21875 -1.421875
Q 24.65625 -1.421875 15.125 8.703125
Q 5.609375 18.84375 5.609375 36.375
Q 5.609375 53.953125 15.125 64.078125
Q 24.65625 74.21875 41.21875 74.21875
Q 47.75 74.21875 53.53125 72.484375
Q 59.328125 70.75 64.40625 67.28125
z
" id="DejaVuSans-67"/>
     <path d="M 4.203125 54.6875
L 13.1875 54.6875
L 24.421875 12.015625
L 35.59375 54.6875
L 46.1875 54.6875
L 57.421875 12.015625
L 68.609375 54.6875
L 77.59375 54.6875
L 63.28125 0
L 52.6875 0
L 40.921875 44.828125
L 29.109375 0
L 18.5 0
z
" id="DejaVuSans-119"/>
     <path d="M 18.3125 70.21875
L 18.3125 54.6875
L 36.8125 54.6875
L 36.8125 47.703125
L 18.3125 47.703125
L 18.3125 18.015625
Q 18.3125 11.328125 20.140625 9.421875
Q 21.96875 7.515625 27.59375 7.515625
L 36.8125 7.515625
L 36.8125 0
L 27.59375 0
Q 17.1875 0 13.234375 3.875
Q 9.28125 7.765625 9.28125 18.015625
L 9.28125 47.703125
L 2.6875 47.703125
L 2.6875 54.6875
L 9.28125 54.6875
L 9.28125 70.21875
z
" id="DejaVuSans-116"/>
     <path d="M 10.6875 12.40625
L 21 12.40625
L 21 0
L 10.6875 0
z
" id="DejaVuSans-46"/>
    </defs>
    <g transform="translate(187.430312 9.118125)scale(0.12 -0.12)">
     <use xlink:href="#DejaVuSans-65"/>
     <use x="68.330078" xlink:href="#DejaVuSans-118"/>
     <use x="127.509766" xlink:href="#DejaVuSans-101"/>
     <use x="189.033203" xlink:href="#DejaVuSans-114"/>
     <use x="230.146484" xlink:href="#DejaVuSans-97"/>
     <use x="291.425781" xlink:href="#DejaVuSans-103"/>
     <use x="354.902344" xlink:href="#DejaVuSans-101"/>
     <use x="416.425781" xlink:href="#DejaVuSans-32"/>
     <use x="448.212891" xlink:href="#DejaVuSans-97"/>
     <use x="509.492188" xlink:href="#DejaVuSans-114"/>
     <use x="550.589844" xlink:href="#DejaVuSans-114"/>
     <use x="591.703125" xlink:href="#DejaVuSans-97"/>
     <use x="652.982422" xlink:href="#DejaVuSans-121"/>
     <use x="712.162109" xlink:href="#DejaVuSans-32"/>
     <use x="743.949219" xlink:href="#DejaVuSans-40"/>
     <use x="782.962891" xlink:href="#DejaVuSans-67"/>
     <use x="852.787109" xlink:href="#DejaVuSans-114"/>
     <use x="893.869141" xlink:href="#DejaVuSans-111"/>
     <use x="955.050781" xlink:href="#DejaVuSans-119"/>
     <use x="1036.837891" xlink:href="#DejaVuSans-32"/>
     <use x="1068.625" xlink:href="#DejaVuSans-101"/>
     <use x="1130.148438" xlink:href="#DejaVuSans-116"/>
     <use x="1169.357422" xlink:href="#DejaVuSans-46"/>
     <use x="1201.144531" xlink:href="#DejaVuSans-32"/>
     <use x="1232.931641" xlink:href="#DejaVuSans-97"/>
     <use x="1294.210938" xlink:href="#DejaVuSans-108"/>
     <use x="1321.994141" xlink:href="#DejaVuSans-46"/>
     <use x="1353.78125" xlink:href="#DejaVuSans-41"/>
     <use x="1392.794922" xlink:href="#DejaVuSans-32"/>
     <use x="1424.582031" xlink:href="#DejaVuSans-101"/>
     <use x="1486.089844" xlink:href="#DejaVuSans-120"/>
     <use x="1545.269531" xlink:href="#DejaVuSans-112"/>
     <use x="1608.746094" xlink:href="#DejaVuSans-114"/>
     <use x="1649.828125" xlink:href="#DejaVuSans-101"/>
     <use x="1711.351562" xlink:href="#DejaVuSans-115"/>
     <use x="1763.451172" xlink:href="#DejaVuSans-115"/>
     <use x="1815.550781" xlink:href="#DejaVuSans-105"/>
     <use x="1843.333984" xlink:href="#DejaVuSans-111"/>
     <use x="1904.515625" xlink:href="#DejaVuSans-110"/>
    </g>
   </g>
  </g>
 </g>
 <defs>
  <clipPath id="p5863c8dd11">
   <rect height="217.44" width="334.8" x="138.104687" y="15.118125"/>
  </clipPath>
 </defs>
</svg>
