<?xml version="1.0" encoding="utf-8" standalone="no"?>
<!DOCTYPE svg PUBLIC "-//W3C//DTD SVG 1.1//EN"
  "http://www.w3.org/Graphics/SVG/1.1/DTD/svg11.dtd">
<!-- Created with matplotlib (https://matplotlib.org/) -->
<svg height="275.250937pt" version="1.1" viewBox="0 0 587.31 275.250937" width="587.31pt" xmlns="http://www.w3.org/2000/svg" xmlns:xlink="http://www.w3.org/1999/xlink">
 <defs>
  <style type="text/css">
*{stroke-linecap:butt;stroke-linejoin:round;}
  </style>
 </defs>
 <g id="figure_1">
  <g id="patch_1">
   <path d="M 0 275.250937
L 587.31 275.250937
L 587.31 0
L 0 0
z
" style="fill:none;"/>
  </g>
  <g id="axes_1">
   <g id="patch_2">
    <path d="M 248.6925 237.117187
L 583.4925 237.117187
L 583.4925 19.677187
L 248.6925 19.677187
z
" style="fill:none;"/>
   </g>
   <g id="PolyCollection_1">
    <defs>
     <path d="M 268.021411 -219.332663
L 268.021411 -219.334837
L 270.984021 -219.336811
L 273.946631 -219.34011
L 276.909242 -219.34418
L 279.871852 -219.348849
L 282.834462 -219.354706
L 285.797073 -219.360657
L 288.759683 -219.363306
L 291.722293 -219.361803
L 294.684904 -219.362009
L 297.647514 -219.37356
L 300.610124 -219.402554
L 303.572735 -219.448319
L 306.535345 -219.506942
L 309.497955 -219.572646
L 312.460566 -219.6369
L 315.423176 -219.698703
L 318.385786 -219.777399
L 321.348397 -219.902445
L 324.311007 -220.086172
L 327.273617 -220.310742
L 330.236227 -220.538214
L 333.198838 -220.728796
L 336.161448 -220.862654
L 339.124058 -220.95877
L 342.086669 -221.06092
L 345.049279 -221.195078
L 348.011889 -221.35543
L 350.9745 -221.528664
L 353.93711 -221.704667
L 356.89972 -221.874293
L 359.862331 -222.044573
L 362.824941 -222.2334
L 365.787551 -222.438033
L 368.750162 -222.648939
L 371.712772 -222.88291
L 374.675382 -223.155517
L 377.637993 -223.453358
L 380.600603 -223.766701
L 383.563213 -224.104668
L 386.525824 -224.472943
L 389.488434 -224.88228
L 392.451044 -225.355022
L 395.413654 -225.870665
L 398.376265 -226.342238
L 401.338875 -226.711257
L 404.301485 -227.034495
L 407.264096 -227.426235
L 410.226706 -227.953237
L 413.189316 -228.622678
L 416.151927 -229.422495
L 419.114537 -230.321753
L 422.077147 -231.26868
L 425.039758 -232.25116
L 428.002368 -233.339344
L 430.964978 -234.620324
L 433.927589 -236.103111
L 436.890199 -237.708749
L 439.852809 -239.34846
L 442.81542 -241.001074
L 445.77803 -242.674455
L 448.74064 -244.279153
L 451.703251 -245.614695
L 454.665861 -246.490987
L 457.628471 -246.785668
L 460.591081 -246.407428
L 463.553692 -245.289357
L 466.516302 -243.423644
L 469.478912 -240.891232
L 472.441523 -237.895264
L 475.404133 -234.756249
L 478.366743 -231.794057
L 481.329354 -229.191894
L 484.291964 -226.992602
L 487.254574 -225.186955
L 490.217185 -223.760483
L 493.179795 -222.677978
L 496.142405 -221.873737
L 499.105016 -221.274274
L 502.067626 -220.825254
L 505.030236 -220.492798
L 507.992847 -220.245239
L 510.955457 -220.049123
L 513.918067 -219.885377
L 516.880678 -219.754373
L 519.843288 -219.657481
L 522.805898 -219.583685
L 525.768508 -219.520493
L 528.731119 -219.467603
L 531.693729 -219.431107
L 534.656339 -219.409912
L 537.61895 -219.395281
L 540.58156 -219.380838
L 543.54417 -219.366882
L 546.506781 -219.356113
L 549.469391 -219.349172
L 552.432001 -219.344369
L 555.394612 -219.340211
L 558.357222 -219.336843
L 561.319832 -219.334844
L 561.319832 -219.332656
L 561.319832 -219.332656
L 558.357222 -219.330657
L 555.394612 -219.327289
L 552.432001 -219.323131
L 549.469391 -219.318328
L 546.506781 -219.311387
L 543.54417 -219.300618
L 540.58156 -219.286662
L 537.61895 -219.272219
L 534.656339 -219.257588
L 531.693729 -219.236393
L 528.731119 -219.199897
L 525.768508 -219.147007
L 522.805898 -219.083815
L 519.843288 -219.010019
L 516.880678 -218.913127
L 513.918067 -218.782123
L 510.955457 -218.618377
L 507.992847 -218.422261
L 505.030236 -218.174702
L 502.067626 -217.842246
L 499.105016 -217.393226
L 496.142405 -216.793763
L 493.179795 -215.989522
L 490.217185 -214.907017
L 487.254574 -213.480545
L 484.291964 -211.674898
L 481.329354 -209.475606
L 478.366743 -206.873443
L 475.404133 -203.911251
L 472.441523 -200.772236
L 469.478912 -197.776268
L 466.516302 -195.243856
L 463.553692 -193.378143
L 460.591081 -192.260072
L 457.628471 -191.881832
L 454.665861 -192.176513
L 451.703251 -193.052805
L 448.74064 -194.388347
L 445.77803 -195.993045
L 442.81542 -197.666426
L 439.852809 -199.31904
L 436.890199 -200.958751
L 433.927589 -202.564389
L 430.964978 -204.047176
L 428.002368 -205.328156
L 425.039758 -206.41634
L 422.077147 -207.39882
L 419.114537 -208.345747
L 416.151927 -209.245005
L 413.189316 -210.044822
L 410.226706 -210.714263
L 407.264096 -211.241265
L 404.301485 -211.633005
L 401.338875 -211.956243
L 398.376265 -212.325262
L 395.413654 -212.796835
L 392.451044 -213.312478
L 389.488434 -213.78522
L 386.525824 -214.194557
L 383.563213 -214.562832
L 380.600603 -214.900799
L 377.637993 -215.214142
L 374.675382 -215.511983
L 371.712772 -215.78459
L 368.750162 -216.018561
L 365.787551 -216.229467
L 362.824941 -216.4341
L 359.862331 -216.622927
L 356.89972 -216.793207
L 353.93711 -216.962833
L 350.9745 -217.138836
L 348.011889 -217.31207
L 345.049279 -217.472422
L 342.086669 -217.60658
L 339.124058 -217.70873
L 336.161448 -217.804846
L 333.198838 -217.938704
L 330.236227 -218.129286
L 327.273617 -218.356758
L 324.311007 -218.581328
L 321.348397 -218.765055
L 318.385786 -218.890101
L 315.423176 -218.968797
L 312.460566 -219.0306
L 309.497955 -219.094854
L 306.535345 -219.160558
L 303.572735 -219.219181
L 300.610124 -219.264946
L 297.647514 -219.29394
L 294.684904 -219.305491
L 291.722293 -219.305697
L 288.759683 -219.304194
L 285.797073 -219.306843
L 282.834462 -219.312794
L 279.871852 -219.318651
L 276.909242 -219.32332
L 273.946631 -219.32739
L 270.984021 -219.330689
L 268.021411 -219.332663
z
" id="m152365ff57" style="stroke:#444444;stroke-width:1.5;"/>
    </defs>
    <g clip-path="url(#pb856521924)">
     <use style="fill:#d3d3d3;stroke:#444444;stroke-width:1.5;" x="0" xlink:href="#m152365ff57" y="275.250937"/>
    </g>
   </g>
   <g id="PolyCollection_2">
    <defs>
     <path d="M 357.160858 -146.815876
L 357.160858 -146.891624
L 359.144514 -146.930046
L 361.128171 -146.994156
L 363.111827 -147.090436
L 365.095483 -147.220674
L 367.079139 -147.379797
L 369.062796 -147.556548
L 371.046452 -147.737298
L 373.030108 -147.910948
L 375.013764 -148.071898
L 376.997421 -148.219896
L 378.981077 -148.358872
L 380.964733 -148.498098
L 382.948389 -148.656217
L 384.932046 -148.863956
L 386.915702 -149.159576
L 388.899358 -149.575124
L 390.883014 -150.119093
L 392.86667 -150.766629
L 394.850327 -151.467124
L 396.833983 -152.170243
L 398.817639 -152.859389
L 400.801295 -153.573843
L 402.784952 -154.403842
L 404.768608 -155.456962
L 406.752264 -156.811246
L 408.73592 -158.478882
L 410.719577 -160.397831
L 412.703233 -162.45254
L 414.686889 -164.510054
L 416.670545 -166.453652
L 418.654202 -168.202732
L 420.637858 -169.718182
L 422.621514 -170.998782
L 424.60517 -172.073206
L 426.588826 -172.987587
L 428.572483 -173.787213
L 430.556139 -174.495686
L 432.539795 -175.101366
L 434.523451 -175.560993
L 436.507108 -175.821136
L 438.490764 -175.84575
L 440.47442 -175.633043
L 442.458076 -175.211779
L 444.441733 -174.621079
L 446.425389 -173.88821
L 448.409045 -173.018767
L 450.392701 -172.004448
L 452.376357 -170.842772
L 454.360014 -169.557046
L 456.34367 -168.205335
L 458.327326 -166.872141
L 460.310982 -165.643786
L 462.294639 -164.576354
L 464.278295 -163.670882
L 466.261951 -162.869717
L 468.245607 -162.078347
L 470.229264 -161.202691
L 472.21292 -160.183204
L 474.196576 -159.011056
L 476.180232 -157.724308
L 478.163889 -156.391865
L 480.147545 -155.093443
L 482.131201 -153.899354
L 484.114857 -152.852599
L 486.098513 -151.958834
L 488.08217 -151.190456
L 490.065826 -150.504868
L 492.049482 -149.867862
L 494.033138 -149.269378
L 496.016795 -148.724182
L 498.000451 -148.259544
L 499.984107 -147.898472
L 501.967763 -147.647201
L 503.95142 -147.491607
L 505.935076 -147.402634
L 507.918732 -147.34737
L 509.902388 -147.300519
L 511.886045 -147.251034
L 513.869701 -147.201211
L 515.853357 -147.159693
L 517.837013 -147.133067
L 519.820669 -147.120858
L 521.804326 -147.115923
L 523.787982 -147.108841
L 525.771638 -147.093048
L 527.755294 -147.06786
L 529.738951 -147.038198
L 531.722607 -147.011594
L 533.706263 -146.994199
L 535.689919 -146.987735
L 537.673576 -146.988801
L 539.657232 -146.990753
L 541.640888 -146.987073
L 543.624544 -146.974385
L 545.6082 -146.953579
L 547.591857 -146.928704
L 549.575513 -146.904622
L 551.559169 -146.884909
L 553.542825 -146.87096
L 553.542825 -146.83654
L 553.542825 -146.83654
L 551.559169 -146.822591
L 549.575513 -146.802878
L 547.591857 -146.778796
L 545.6082 -146.753921
L 543.624544 -146.733115
L 541.640888 -146.720427
L 539.657232 -146.716747
L 537.673576 -146.718699
L 535.689919 -146.719765
L 533.706263 -146.713301
L 531.722607 -146.695906
L 529.738951 -146.669302
L 527.755294 -146.63964
L 525.771638 -146.614452
L 523.787982 -146.598659
L 521.804326 -146.591577
L 519.820669 -146.586642
L 517.837013 -146.574433
L 515.853357 -146.547807
L 513.869701 -146.506289
L 511.886045 -146.456466
L 509.902388 -146.406981
L 507.918732 -146.36013
L 505.935076 -146.304866
L 503.95142 -146.215893
L 501.967763 -146.060299
L 499.984107 -145.809028
L 498.000451 -145.447956
L 496.016795 -144.983318
L 494.033138 -144.438122
L 492.049482 -143.839638
L 490.065826 -143.202632
L 488.08217 -142.517044
L 486.098513 -141.748666
L 484.114857 -140.854901
L 482.131201 -139.808146
L 480.147545 -138.614057
L 478.163889 -137.315635
L 476.180232 -135.983192
L 474.196576 -134.696444
L 472.21292 -133.524296
L 470.229264 -132.504809
L 468.245607 -131.629153
L 466.261951 -130.837783
L 464.278295 -130.036618
L 462.294639 -129.131146
L 460.310982 -128.063714
L 458.327326 -126.835359
L 456.34367 -125.502165
L 454.360014 -124.150454
L 452.376357 -122.864728
L 450.392701 -121.703052
L 448.409045 -120.688733
L 446.425389 -119.81929
L 444.441733 -119.086421
L 442.458076 -118.495721
L 440.47442 -118.074457
L 438.490764 -117.86175
L 436.507108 -117.886364
L 434.523451 -118.146507
L 432.539795 -118.606134
L 430.556139 -119.211814
L 428.572483 -119.920287
L 426.588826 -120.719913
L 424.60517 -121.634294
L 422.621514 -122.708718
L 420.637858 -123.989318
L 418.654202 -125.504768
L 416.670545 -127.253848
L 414.686889 -129.197446
L 412.703233 -131.25496
L 410.719577 -133.309669
L 408.73592 -135.228618
L 406.752264 -136.896254
L 404.768608 -138.250538
L 402.784952 -139.303658
L 400.801295 -140.133657
L 398.817639 -140.848111
L 396.833983 -141.537257
L 394.850327 -142.240376
L 392.86667 -142.940871
L 390.883014 -143.588407
L 388.899358 -144.132376
L 386.915702 -144.547924
L 384.932046 -144.843544
L 382.948389 -145.051283
L 380.964733 -145.209402
L 378.981077 -145.348628
L 376.997421 -145.487604
L 375.013764 -145.635602
L 373.030108 -145.796552
L 371.046452 -145.970202
L 369.062796 -146.150952
L 367.079139 -146.327703
L 365.095483 -146.486826
L 363.111827 -146.617064
L 361.128171 -146.713344
L 359.144514 -146.777454
L 357.160858 -146.815876
z
" id="m5ac5faf468" style="stroke:#444444;stroke-width:1.5;"/>
    </defs>
    <g clip-path="url(#pb856521924)">
     <use style="fill:#3d7ca6;stroke:#444444;stroke-width:1.5;" x="0" xlink:href="#m5ac5faf468" y="275.250937"/>
    </g>
   </g>
   <g id="PolyCollection_3">
    <defs>
     <path d="M 260.756579 -74.359821
L 260.756579 -74.387679
L 263.150545 -74.397081
L 265.54451 -74.409954
L 267.938476 -74.425812
L 270.332441 -74.443186
L 272.726406 -74.459797
L 275.120372 -74.473238
L 277.514337 -74.482077
L 279.908303 -74.48707
L 282.302268 -74.492095
L 284.696234 -74.50447
L 287.090199 -74.534517
L 289.484165 -74.594422
L 291.87813 -74.696537
L 294.272096 -74.851385
L 296.666061 -75.065769
L 299.060027 -75.341598
L 301.453992 -75.676127
L 303.847958 -76.064113
L 306.241923 -76.501812
L 308.635889 -76.991793
L 311.029854 -77.546692
L 313.42382 -78.189617
L 315.817785 -78.949529
L 318.21175 -79.851701
L 320.605716 -80.905779
L 322.999681 -82.095971
L 325.393647 -83.378185
L 327.787612 -84.686884
L 330.181578 -85.950595
L 332.575543 -87.111164
L 334.969509 -88.139722
L 337.363474 -89.04322
L 339.75744 -89.858823
L 342.151405 -90.638067
L 344.545371 -91.426529
L 346.939336 -92.246244
L 349.333302 -93.086888
L 351.727267 -93.908231
L 354.121233 -94.652161
L 356.515198 -95.259222
L 358.909164 -95.683493
L 361.303129 -95.9011
L 363.697095 -95.910945
L 366.09106 -95.729712
L 368.485025 -95.385068
L 370.878991 -94.910445
L 373.272956 -94.34241
L 375.666922 -93.719061
L 378.060887 -93.077008
L 380.454853 -92.445767
L 382.848818 -91.84107
L 385.242784 -91.260477
L 387.636749 -90.684401
L 390.030715 -90.083258
L 392.42468 -89.428559
L 394.818646 -88.70399
L 397.212611 -87.912575
L 399.606577 -87.077395
L 402.000542 -86.235401
L 404.394508 -85.426214
L 406.788473 -84.679948
L 409.182439 -84.008961
L 411.576404 -83.407155
L 413.970369 -82.857074
L 416.364335 -82.341077
L 418.7583 -81.850739
L 421.152266 -81.389556
L 423.546231 -80.967864
L 425.940197 -80.593207
L 428.334162 -80.261904
L 430.728128 -79.956659
L 433.122093 -79.651494
L 435.516059 -79.32125
L 437.910024 -78.950838
L 440.30399 -78.540171
L 442.697955 -78.103277
L 445.091921 -77.662765
L 447.485886 -77.242237
L 449.879852 -76.85936
L 452.273817 -76.521709
L 454.667783 -76.226459
L 457.061748 -75.963752
L 459.455713 -75.722253
L 461.849679 -75.494473
L 464.243644 -75.27964
L 466.63761 -75.083075
L 469.031575 -74.91279
L 471.425541 -74.775222
L 473.819506 -74.672155
L 476.213472 -74.599996
L 478.607437 -74.551307
L 481.001403 -74.517498
L 483.395368 -74.491342
L 485.789334 -74.468377
L 488.183299 -74.446958
L 490.577265 -74.42735
L 492.97123 -74.410536
L 495.365196 -74.397285
L 497.759161 -74.387745
L 497.759161 -74.359755
L 497.759161 -74.359755
L 495.365196 -74.350215
L 492.97123 -74.336964
L 490.577265 -74.32015
L 488.183299 -74.300542
L 485.789334 -74.279123
L 483.395368 -74.256158
L 481.001403 -74.230002
L 478.607437 -74.196193
L 476.213472 -74.147504
L 473.819506 -74.075345
L 471.425541 -73.972278
L 469.031575 -73.83471
L 466.63761 -73.664425
L 464.243644 -73.46786
L 461.849679 -73.253027
L 459.455713 -73.025247
L 457.061748 -72.783748
L 454.667783 -72.521041
L 452.273817 -72.225791
L 449.879852 -71.88814
L 447.485886 -71.505263
L 445.091921 -71.084735
L 442.697955 -70.644223
L 440.30399 -70.207329
L 437.910024 -69.796662
L 435.516059 -69.42625
L 433.122093 -69.096006
L 430.728128 -68.790841
L 428.334162 -68.485596
L 425.940197 -68.154293
L 423.546231 -67.779636
L 421.152266 -67.357944
L 418.7583 -66.896761
L 416.364335 -66.406423
L 413.970369 -65.890426
L 411.576404 -65.340345
L 409.182439 -64.738539
L 406.788473 -64.067552
L 404.394508 -63.321286
L 402.000542 -62.512099
L 399.606577 -61.670105
L 397.212611 -60.834925
L 394.818646 -60.04351
L 392.42468 -59.318941
L 390.030715 -58.664242
L 387.636749 -58.063099
L 385.242784 -57.487023
L 382.848818 -56.90643
L 380.454853 -56.301733
L 378.060887 -55.670492
L 375.666922 -55.028439
L 373.272956 -54.40509
L 370.878991 -53.837055
L 368.485025 -53.362432
L 366.09106 -53.017788
L 363.697095 -52.836555
L 361.303129 -52.8464
L 358.909164 -53.064007
L 356.515198 -53.488278
L 354.121233 -54.095339
L 351.727267 -54.839269
L 349.333302 -55.660612
L 346.939336 -56.501256
L 344.545371 -57.320971
L 342.151405 -58.109433
L 339.75744 -58.888677
L 337.363474 -59.70428
L 334.969509 -60.607778
L 332.575543 -61.636336
L 330.181578 -62.796905
L 327.787612 -64.060616
L 325.393647 -65.369315
L 322.999681 -66.651529
L 320.605716 -67.841721
L 318.21175 -68.895799
L 315.817785 -69.797971
L 313.42382 -70.557883
L 311.029854 -71.200808
L 308.635889 -71.755707
L 306.241923 -72.245688
L 303.847958 -72.683387
L 301.453992 -73.071373
L 299.060027 -73.405902
L 296.666061 -73.681731
L 294.272096 -73.896115
L 291.87813 -74.050963
L 289.484165 -74.153078
L 287.090199 -74.212983
L 284.696234 -74.24303
L 282.302268 -74.255405
L 279.908303 -74.26043
L 277.514337 -74.265423
L 275.120372 -74.274262
L 272.726406 -74.287703
L 270.332441 -74.304314
L 267.938476 -74.321688
L 265.54451 -74.337546
L 263.150545 -74.350419
L 260.756579 -74.359821
z
" id="m60c9dca64a" style="stroke:#444444;stroke-width:1.5;"/>
    </defs>
    <g clip-path="url(#pb856521924)">
     <use style="fill:#b4d4df;stroke:#444444;stroke-width:1.5;" x="0" xlink:href="#m60c9dca64a" y="275.250937"/>
    </g>
   </g>
   <g id="matplotlib.axis_1">
    <g id="xtick_1">
     <g id="line2d_1">
      <defs>
       <path d="M 0 0
L 0 3.5
" id="m051343fca1" style="stroke:#000000;stroke-width:0.8;"/>
      </defs>
      <g>
       <use style="stroke:#000000;stroke-width:0.8;" x="248.6925" xlink:href="#m051343fca1" y="237.117187"/>
      </g>
     </g>
     <g id="text_1">
      <!-- −2 -->
      <defs>
       <path d="M 10.59375 35.5
L 73.1875 35.5
L 73.1875 27.203125
L 10.59375 27.203125
z
" id="DejaVuSans-8722"/>
       <path d="M 19.1875 8.296875
L 53.609375 8.296875
L 53.609375 0
L 7.328125 0
L 7.328125 8.296875
Q 12.9375 14.109375 22.625 23.890625
Q 32.328125 33.6875 34.8125 36.53125
Q 39.546875 41.84375 41.421875 45.53125
Q 43.3125 49.21875 43.3125 52.78125
Q 43.3125 58.59375 39.234375 62.25
Q 35.15625 65.921875 28.609375 65.921875
Q 23.96875 65.921875 18.8125 64.3125
Q 13.671875 62.703125 7.8125 59.421875
L 7.8125 69.390625
Q 13.765625 71.78125 18.9375 73
Q 24.125 74.21875 28.421875 74.21875
Q 39.75 74.21875 46.484375 68.546875
Q 53.21875 62.890625 53.21875 53.421875
Q 53.21875 48.921875 51.53125 44.890625
Q 49.859375 40.875 45.40625 35.40625
Q 44.1875 33.984375 37.640625 27.21875
Q 31.109375 20.453125 19.1875 8.296875
z
" id="DejaVuSans-50"/>
      </defs>
      <g transform="translate(239.847187 253.235312)scale(0.12 -0.12)">
       <use xlink:href="#DejaVuSans-8722"/>
       <use x="83.789062" xlink:href="#DejaVuSans-50"/>
      </g>
     </g>
    </g>
    <g id="xtick_2">
     <g id="line2d_2">
      <g>
       <use style="stroke:#000000;stroke-width:0.8;" x="290.5425" xlink:href="#m051343fca1" y="237.117187"/>
      </g>
     </g>
     <g id="text_2">
      <!-- −1 -->
      <defs>
       <path d="M 12.40625 8.296875
L 28.515625 8.296875
L 28.515625 63.921875
L 10.984375 60.40625
L 10.984375 69.390625
L 28.421875 72.90625
L 38.28125 72.90625
L 38.28125 8.296875
L 54.390625 8.296875
L 54.390625 0
L 12.40625 0
z
" id="DejaVuSans-49"/>
      </defs>
      <g transform="translate(281.697187 253.235312)scale(0.12 -0.12)">
       <use xlink:href="#DejaVuSans-8722"/>
       <use x="83.789062" xlink:href="#DejaVuSans-49"/>
      </g>
     </g>
    </g>
    <g id="xtick_3">
     <g id="line2d_3">
      <g>
       <use style="stroke:#000000;stroke-width:0.8;" x="332.3925" xlink:href="#m051343fca1" y="237.117187"/>
      </g>
     </g>
     <g id="text_3">
      <!-- 0 -->
      <defs>
       <path d="M 31.78125 66.40625
Q 24.171875 66.40625 20.328125 58.90625
Q 16.5 51.421875 16.5 36.375
Q 16.5 21.390625 20.328125 13.890625
Q 24.171875 6.390625 31.78125 6.390625
Q 39.453125 6.390625 43.28125 13.890625
Q 47.125 21.390625 47.125 36.375
Q 47.125 51.421875 43.28125 58.90625
Q 39.453125 66.40625 31.78125 66.40625
z
M 31.78125 74.21875
Q 44.046875 74.21875 50.515625 64.515625
Q 56.984375 54.828125 56.984375 36.375
Q 56.984375 17.96875 50.515625 8.265625
Q 44.046875 -1.421875 31.78125 -1.421875
Q 19.53125 -1.421875 13.0625 8.265625
Q 6.59375 17.96875 6.59375 36.375
Q 6.59375 54.828125 13.0625 64.515625
Q 19.53125 74.21875 31.78125 74.21875
z
" id="DejaVuSans-48"/>
      </defs>
      <g transform="translate(328.575 253.235312)scale(0.12 -0.12)">
       <use xlink:href="#DejaVuSans-48"/>
      </g>
     </g>
    </g>
    <g id="xtick_4">
     <g id="line2d_4">
      <g>
       <use style="stroke:#000000;stroke-width:0.8;" x="374.2425" xlink:href="#m051343fca1" y="237.117187"/>
      </g>
     </g>
     <g id="text_4">
      <!-- 1 -->
      <g transform="translate(370.425 253.235312)scale(0.12 -0.12)">
       <use xlink:href="#DejaVuSans-49"/>
      </g>
     </g>
    </g>
    <g id="xtick_5">
     <g id="line2d_5">
      <g>
       <use style="stroke:#000000;stroke-width:0.8;" x="416.0925" xlink:href="#m051343fca1" y="237.117187"/>
      </g>
     </g>
     <g id="text_5">
      <!-- 2 -->
      <g transform="translate(412.275 253.235312)scale(0.12 -0.12)">
       <use xlink:href="#DejaVuSans-50"/>
      </g>
     </g>
    </g>
    <g id="xtick_6">
     <g id="line2d_6">
      <g>
       <use style="stroke:#000000;stroke-width:0.8;" x="457.9425" xlink:href="#m051343fca1" y="237.117187"/>
      </g>
     </g>
     <g id="text_6">
      <!-- 3 -->
      <defs>
       <path d="M 40.578125 39.3125
Q 47.65625 37.796875 51.625 33
Q 55.609375 28.21875 55.609375 21.1875
Q 55.609375 10.40625 48.1875 4.484375
Q 40.765625 -1.421875 27.09375 -1.421875
Q 22.515625 -1.421875 17.65625 -0.515625
Q 12.796875 0.390625 7.625 2.203125
L 7.625 11.71875
Q 11.71875 9.328125 16.59375 8.109375
Q 21.484375 6.890625 26.8125 6.890625
Q 36.078125 6.890625 40.9375 10.546875
Q 45.796875 14.203125 45.796875 21.1875
Q 45.796875 27.640625 41.28125 31.265625
Q 36.765625 34.90625 28.71875 34.90625
L 20.21875 34.90625
L 20.21875 43.015625
L 29.109375 43.015625
Q 36.375 43.015625 40.234375 45.921875
Q 44.09375 48.828125 44.09375 54.296875
Q 44.09375 59.90625 40.109375 62.90625
Q 36.140625 65.921875 28.71875 65.921875
Q 24.65625 65.921875 20.015625 65.03125
Q 15.375 64.15625 9.8125 62.3125
L 9.8125 71.09375
Q 15.4375 72.65625 20.34375 73.4375
Q 25.25 74.21875 29.59375 74.21875
Q 40.828125 74.21875 47.359375 69.109375
Q 53.90625 64.015625 53.90625 55.328125
Q 53.90625 49.265625 50.4375 45.09375
Q 46.96875 40.921875 40.578125 39.3125
z
" id="DejaVuSans-51"/>
      </defs>
      <g transform="translate(454.125 253.235312)scale(0.12 -0.12)">
       <use xlink:href="#DejaVuSans-51"/>
      </g>
     </g>
    </g>
    <g id="xtick_7">
     <g id="line2d_7">
      <g>
       <use style="stroke:#000000;stroke-width:0.8;" x="499.7925" xlink:href="#m051343fca1" y="237.117187"/>
      </g>
     </g>
     <g id="text_7">
      <!-- 4 -->
      <defs>
       <path d="M 37.796875 64.3125
L 12.890625 25.390625
L 37.796875 25.390625
z
M 35.203125 72.90625
L 47.609375 72.90625
L 47.609375 25.390625
L 58.015625 25.390625
L 58.015625 17.1875
L 47.609375 17.1875
L 47.609375 0
L 37.796875 0
L 37.796875 17.1875
L 4.890625 17.1875
L 4.890625 26.703125
z
" id="DejaVuSans-52"/>
      </defs>
      <g transform="translate(495.975 253.235312)scale(0.12 -0.12)">
       <use xlink:href="#DejaVuSans-52"/>
      </g>
     </g>
    </g>
    <g id="xtick_8">
     <g id="line2d_8">
      <g>
       <use style="stroke:#000000;stroke-width:0.8;" x="541.6425" xlink:href="#m051343fca1" y="237.117187"/>
      </g>
     </g>
     <g id="text_8">
      <!-- 5 -->
      <defs>
       <path d="M 10.796875 72.90625
L 49.515625 72.90625
L 49.515625 64.59375
L 19.828125 64.59375
L 19.828125 46.734375
Q 21.96875 47.46875 24.109375 47.828125
Q 26.265625 48.1875 28.421875 48.1875
Q 40.625 48.1875 47.75 41.5
Q 54.890625 34.8125 54.890625 23.390625
Q 54.890625 11.625 47.5625 5.09375
Q 40.234375 -1.421875 26.90625 -1.421875
Q 22.3125 -1.421875 17.546875 -0.640625
Q 12.796875 0.140625 7.71875 1.703125
L 7.71875 11.625
Q 12.109375 9.234375 16.796875 8.0625
Q 21.484375 6.890625 26.703125 6.890625
Q 35.15625 6.890625 40.078125 11.328125
Q 45.015625 15.765625 45.015625 23.390625
Q 45.015625 31 40.078125 35.4375
Q 35.15625 39.890625 26.703125 39.890625
Q 22.75 39.890625 18.8125 39.015625
Q 14.890625 38.140625 10.796875 36.28125
z
" id="DejaVuSans-53"/>
      </defs>
      <g transform="translate(537.825 253.235312)scale(0.12 -0.12)">
       <use xlink:href="#DejaVuSans-53"/>
      </g>
     </g>
    </g>
    <g id="xtick_9">
     <g id="line2d_9">
      <g>
       <use style="stroke:#000000;stroke-width:0.8;" x="583.4925" xlink:href="#m051343fca1" y="237.117187"/>
      </g>
     </g>
     <g id="text_9">
      <!-- 6 -->
      <defs>
       <path d="M 33.015625 40.375
Q 26.375 40.375 22.484375 35.828125
Q 18.609375 31.296875 18.609375 23.390625
Q 18.609375 15.53125 22.484375 10.953125
Q 26.375 6.390625 33.015625 6.390625
Q 39.65625 6.390625 43.53125 10.953125
Q 47.40625 15.53125 47.40625 23.390625
Q 47.40625 31.296875 43.53125 35.828125
Q 39.65625 40.375 33.015625 40.375
z
M 52.59375 71.296875
L 52.59375 62.3125
Q 48.875 64.0625 45.09375 64.984375
Q 41.3125 65.921875 37.59375 65.921875
Q 27.828125 65.921875 22.671875 59.328125
Q 17.53125 52.734375 16.796875 39.40625
Q 19.671875 43.65625 24.015625 45.921875
Q 28.375 48.1875 33.59375 48.1875
Q 44.578125 48.1875 50.953125 41.515625
Q 57.328125 34.859375 57.328125 23.390625
Q 57.328125 12.15625 50.6875 5.359375
Q 44.046875 -1.421875 33.015625 -1.421875
Q 20.359375 -1.421875 13.671875 8.265625
Q 6.984375 17.96875 6.984375 36.375
Q 6.984375 53.65625 15.1875 63.9375
Q 23.390625 74.21875 37.203125 74.21875
Q 40.921875 74.21875 44.703125 73.484375
Q 48.484375 72.75 52.59375 71.296875
z
" id="DejaVuSans-54"/>
      </defs>
      <g transform="translate(579.675 253.235312)scale(0.12 -0.12)">
       <use xlink:href="#DejaVuSans-54"/>
      </g>
     </g>
    </g>
    <g id="text_10">
     <!-- Log$_{10}$ (average expression) -->
     <defs>
      <path d="M 9.8125 72.90625
L 19.671875 72.90625
L 19.671875 8.296875
L 55.171875 8.296875
L 55.171875 0
L 9.8125 0
z
" id="DejaVuSans-76"/>
      <path d="M 30.609375 48.390625
Q 23.390625 48.390625 19.1875 42.75
Q 14.984375 37.109375 14.984375 27.296875
Q 14.984375 17.484375 19.15625 11.84375
Q 23.34375 6.203125 30.609375 6.203125
Q 37.796875 6.203125 41.984375 11.859375
Q 46.1875 17.53125 46.1875 27.296875
Q 46.1875 37.015625 41.984375 42.703125
Q 37.796875 48.390625 30.609375 48.390625
z
M 30.609375 56
Q 42.328125 56 49.015625 48.375
Q 55.71875 40.765625 55.71875 27.296875
Q 55.71875 13.875 49.015625 6.21875
Q 42.328125 -1.421875 30.609375 -1.421875
Q 18.84375 -1.421875 12.171875 6.21875
Q 5.515625 13.875 5.515625 27.296875
Q 5.515625 40.765625 12.171875 48.375
Q 18.84375 56 30.609375 56
z
" id="DejaVuSans-111"/>
      <path d="M 45.40625 27.984375
Q 45.40625 37.75 41.375 43.109375
Q 37.359375 48.484375 30.078125 48.484375
Q 22.859375 48.484375 18.828125 43.109375
Q 14.796875 37.75 14.796875 27.984375
Q 14.796875 18.265625 18.828125 12.890625
Q 22.859375 7.515625 30.078125 7.515625
Q 37.359375 7.515625 41.375 12.890625
Q 45.40625 18.265625 45.40625 27.984375
z
M 54.390625 6.78125
Q 54.390625 -7.171875 48.1875 -13.984375
Q 42 -20.796875 29.203125 -20.796875
Q 24.46875 -20.796875 20.265625 -20.09375
Q 16.0625 -19.390625 12.109375 -17.921875
L 12.109375 -9.1875
Q 16.0625 -11.328125 19.921875 -12.34375
Q 23.78125 -13.375 27.78125 -13.375
Q 36.625 -13.375 41.015625 -8.765625
Q 45.40625 -4.15625 45.40625 5.171875
L 45.40625 9.625
Q 42.625 4.78125 38.28125 2.390625
Q 33.9375 0 27.875 0
Q 17.828125 0 11.671875 7.65625
Q 5.515625 15.328125 5.515625 27.984375
Q 5.515625 40.671875 11.671875 48.328125
Q 17.828125 56 27.875 56
Q 33.9375 56 38.28125 53.609375
Q 42.625 51.21875 45.40625 46.390625
L 45.40625 54.6875
L 54.390625 54.6875
z
" id="DejaVuSans-103"/>
      <path id="DejaVuSans-32"/>
      <path d="M 31 75.875
Q 24.46875 64.65625 21.28125 53.65625
Q 18.109375 42.671875 18.109375 31.390625
Q 18.109375 20.125 21.3125 9.0625
Q 24.515625 -2 31 -13.1875
L 23.1875 -13.1875
Q 15.875 -1.703125 12.234375 9.375
Q 8.59375 20.453125 8.59375 31.390625
Q 8.59375 42.28125 12.203125 53.3125
Q 15.828125 64.359375 23.1875 75.875
z
" id="DejaVuSans-40"/>
      <path d="M 34.28125 27.484375
Q 23.390625 27.484375 19.1875 25
Q 14.984375 22.515625 14.984375 16.5
Q 14.984375 11.71875 18.140625 8.90625
Q 21.296875 6.109375 26.703125 6.109375
Q 34.1875 6.109375 38.703125 11.40625
Q 43.21875 16.703125 43.21875 25.484375
L 43.21875 27.484375
z
M 52.203125 31.203125
L 52.203125 0
L 43.21875 0
L 43.21875 8.296875
Q 40.140625 3.328125 35.546875 0.953125
Q 30.953125 -1.421875 24.3125 -1.421875
Q 15.921875 -1.421875 10.953125 3.296875
Q 6 8.015625 6 15.921875
Q 6 25.140625 12.171875 29.828125
Q 18.359375 34.515625 30.609375 34.515625
L 43.21875 34.515625
L 43.21875 35.40625
Q 43.21875 41.609375 39.140625 45
Q 35.0625 48.390625 27.6875 48.390625
Q 23 48.390625 18.546875 47.265625
Q 14.109375 46.140625 10.015625 43.890625
L 10.015625 52.203125
Q 14.9375 54.109375 19.578125 55.046875
Q 24.21875 56 28.609375 56
Q 40.484375 56 46.34375 49.84375
Q 52.203125 43.703125 52.203125 31.203125
z
" id="DejaVuSans-97"/>
      <path d="M 2.984375 54.6875
L 12.5 54.6875
L 29.59375 8.796875
L 46.6875 54.6875
L 56.203125 54.6875
L 35.6875 0
L 23.484375 0
z
" id="DejaVuSans-118"/>
      <path d="M 56.203125 29.59375
L 56.203125 25.203125
L 14.890625 25.203125
Q 15.484375 15.921875 20.484375 11.0625
Q 25.484375 6.203125 34.421875 6.203125
Q 39.59375 6.203125 44.453125 7.46875
Q 49.3125 8.734375 54.109375 11.28125
L 54.109375 2.78125
Q 49.265625 0.734375 44.1875 -0.34375
Q 39.109375 -1.421875 33.890625 -1.421875
Q 20.796875 -1.421875 13.15625 6.1875
Q 5.515625 13.8125 5.515625 26.8125
Q 5.515625 40.234375 12.765625 48.109375
Q 20.015625 56 32.328125 56
Q 43.359375 56 49.78125 48.890625
Q 56.203125 41.796875 56.203125 29.59375
z
M 47.21875 32.234375
Q 47.125 39.59375 43.09375 43.984375
Q 39.0625 48.390625 32.421875 48.390625
Q 24.90625 48.390625 20.390625 44.140625
Q 15.875 39.890625 15.1875 32.171875
z
" id="DejaVuSans-101"/>
      <path d="M 41.109375 46.296875
Q 39.59375 47.171875 37.8125 47.578125
Q 36.03125 48 33.890625 48
Q 26.265625 48 22.1875 43.046875
Q 18.109375 38.09375 18.109375 28.8125
L 18.109375 0
L 9.078125 0
L 9.078125 54.6875
L 18.109375 54.6875
L 18.109375 46.1875
Q 20.953125 51.171875 25.484375 53.578125
Q 30.03125 56 36.53125 56
Q 37.453125 56 38.578125 55.875
Q 39.703125 55.765625 41.0625 55.515625
z
" id="DejaVuSans-114"/>
      <path d="M 54.890625 54.6875
L 35.109375 28.078125
L 55.90625 0
L 45.3125 0
L 29.390625 21.484375
L 13.484375 0
L 2.875 0
L 24.125 28.609375
L 4.6875 54.6875
L 15.28125 54.6875
L 29.78125 35.203125
L 44.28125 54.6875
z
" id="DejaVuSans-120"/>
      <path d="M 18.109375 8.203125
L 18.109375 -20.796875
L 9.078125 -20.796875
L 9.078125 54.6875
L 18.109375 54.6875
L 18.109375 46.390625
Q 20.953125 51.265625 25.265625 53.625
Q 29.59375 56 35.59375 56
Q 45.5625 56 51.78125 48.09375
Q 58.015625 40.1875 58.015625 27.296875
Q 58.015625 14.40625 51.78125 6.484375
Q 45.5625 -1.421875 35.59375 -1.421875
Q 29.59375 -1.421875 25.265625 0.953125
Q 20.953125 3.328125 18.109375 8.203125
z
M 48.6875 27.296875
Q 48.6875 37.203125 44.609375 42.84375
Q 40.53125 48.484375 33.40625 48.484375
Q 26.265625 48.484375 22.1875 42.84375
Q 18.109375 37.203125 18.109375 27.296875
Q 18.109375 17.390625 22.1875 11.75
Q 26.265625 6.109375 33.40625 6.109375
Q 40.53125 6.109375 44.609375 11.75
Q 48.6875 17.390625 48.6875 27.296875
z
" id="DejaVuSans-112"/>
      <path d="M 44.28125 53.078125
L 44.28125 44.578125
Q 40.484375 46.53125 36.375 47.5
Q 32.28125 48.484375 27.875 48.484375
Q 21.1875 48.484375 17.84375 46.4375
Q 14.5 44.390625 14.5 40.28125
Q 14.5 37.15625 16.890625 35.375
Q 19.28125 33.59375 26.515625 31.984375
L 29.59375 31.296875
Q 39.15625 29.25 43.1875 25.515625
Q 47.21875 21.78125 47.21875 15.09375
Q 47.21875 7.46875 41.1875 3.015625
Q 35.15625 -1.421875 24.609375 -1.421875
Q 20.21875 -1.421875 15.453125 -0.5625
Q 10.6875 0.296875 5.421875 2
L 5.421875 11.28125
Q 10.40625 8.6875 15.234375 7.390625
Q 20.0625 6.109375 24.8125 6.109375
Q 31.15625 6.109375 34.5625 8.28125
Q 37.984375 10.453125 37.984375 14.40625
Q 37.984375 18.0625 35.515625 20.015625
Q 33.0625 21.96875 24.703125 23.78125
L 21.578125 24.515625
Q 13.234375 26.265625 9.515625 29.90625
Q 5.8125 33.546875 5.8125 39.890625
Q 5.8125 47.609375 11.28125 51.796875
Q 16.75 56 26.8125 56
Q 31.78125 56 36.171875 55.265625
Q 40.578125 54.546875 44.28125 53.078125
z
" id="DejaVuSans-115"/>
      <path d="M 9.421875 54.6875
L 18.40625 54.6875
L 18.40625 0
L 9.421875 0
z
M 9.421875 75.984375
L 18.40625 75.984375
L 18.40625 64.59375
L 9.421875 64.59375
z
" id="DejaVuSans-105"/>
      <path d="M 54.890625 33.015625
L 54.890625 0
L 45.90625 0
L 45.90625 32.71875
Q 45.90625 40.484375 42.875 44.328125
Q 39.84375 48.1875 33.796875 48.1875
Q 26.515625 48.1875 22.3125 43.546875
Q 18.109375 38.921875 18.109375 30.90625
L 18.109375 0
L 9.078125 0
L 9.078125 54.6875
L 18.109375 54.6875
L 18.109375 46.1875
Q 21.34375 51.125 25.703125 53.5625
Q 30.078125 56 35.796875 56
Q 45.21875 56 50.046875 50.171875
Q 54.890625 44.34375 54.890625 33.015625
z
" id="DejaVuSans-110"/>
      <path d="M 8.015625 75.875
L 15.828125 75.875
Q 23.140625 64.359375 26.78125 53.3125
Q 30.421875 42.28125 30.421875 31.390625
Q 30.421875 20.453125 26.78125 9.375
Q 23.140625 -1.703125 15.828125 -13.1875
L 8.015625 -13.1875
Q 14.5 -2 17.703125 9.0625
Q 20.90625 20.125 20.90625 31.390625
Q 20.90625 42.671875 17.703125 53.65625
Q 14.5 64.65625 8.015625 75.875
z
" id="DejaVuSans-41"/>
     </defs>
     <g transform="translate(306.6525 271.890937)scale(0.16 -0.16)">
      <use transform="translate(0 0.015625)" xlink:href="#DejaVuSans-76"/>
      <use transform="translate(55.712891 0.015625)" xlink:href="#DejaVuSans-111"/>
      <use transform="translate(116.894531 0.015625)" xlink:href="#DejaVuSans-103"/>
      <use transform="translate(181.328125 -16.390625)scale(0.7)" xlink:href="#DejaVuSans-49"/>
      <use transform="translate(225.864258 -16.390625)scale(0.7)" xlink:href="#DejaVuSans-48"/>
      <use transform="translate(273.134766 0.015625)" xlink:href="#DejaVuSans-32"/>
      <use transform="translate(304.921875 0.015625)" xlink:href="#DejaVuSans-40"/>
      <use transform="translate(343.935547 0.015625)" xlink:href="#DejaVuSans-97"/>
      <use transform="translate(405.214844 0.015625)" xlink:href="#DejaVuSans-118"/>
      <use transform="translate(464.394531 0.015625)" xlink:href="#DejaVuSans-101"/>
      <use transform="translate(525.917969 0.015625)" xlink:href="#DejaVuSans-114"/>
      <use transform="translate(567.03125 0.015625)" xlink:href="#DejaVuSans-97"/>
      <use transform="translate(628.310547 0.015625)" xlink:href="#DejaVuSans-103"/>
      <use transform="translate(691.787109 0.015625)" xlink:href="#DejaVuSans-101"/>
      <use transform="translate(753.310547 0.015625)" xlink:href="#DejaVuSans-32"/>
      <use transform="translate(785.097656 0.015625)" xlink:href="#DejaVuSans-101"/>
      <use transform="translate(846.621094 0.015625)" xlink:href="#DejaVuSans-120"/>
      <use transform="translate(905.800781 0.015625)" xlink:href="#DejaVuSans-112"/>
      <use transform="translate(969.277344 0.015625)" xlink:href="#DejaVuSans-114"/>
      <use transform="translate(1010.390625 0.015625)" xlink:href="#DejaVuSans-101"/>
      <use transform="translate(1071.914062 0.015625)" xlink:href="#DejaVuSans-115"/>
      <use transform="translate(1124.013672 0.015625)" xlink:href="#DejaVuSans-115"/>
      <use transform="translate(1176.113281 0.015625)" xlink:href="#DejaVuSans-105"/>
      <use transform="translate(1203.896484 0.015625)" xlink:href="#DejaVuSans-111"/>
      <use transform="translate(1265.078125 0.015625)" xlink:href="#DejaVuSans-110"/>
      <use transform="translate(1328.457031 0.015625)" xlink:href="#DejaVuSans-41"/>
     </g>
    </g>
   </g>
   <g id="matplotlib.axis_2">
    <g id="ytick_1">
     <g id="line2d_10">
      <defs>
       <path d="M 0 0
L -3.5 0
" id="mb08bcf7668" style="stroke:#000000;stroke-width:0.8;"/>
      </defs>
      <g>
       <use style="stroke:#000000;stroke-width:0.8;" x="248.6925" xlink:href="#mb08bcf7668" y="55.917187"/>
      </g>
     </g>
     <g id="text_11">
      <!-- All genes -->
      <defs>
       <path d="M 34.1875 63.1875
L 20.796875 26.90625
L 47.609375 26.90625
z
M 28.609375 72.90625
L 39.796875 72.90625
L 67.578125 0
L 57.328125 0
L 50.6875 18.703125
L 17.828125 18.703125
L 11.1875 0
L 0.78125 0
z
" id="DejaVuSans-65"/>
       <path d="M 9.421875 75.984375
L 18.40625 75.984375
L 18.40625 0
L 9.421875 0
z
" id="DejaVuSans-108"/>
      </defs>
      <g transform="translate(168.45 61.995937)scale(0.16 -0.16)">
       <use xlink:href="#DejaVuSans-65"/>
       <use x="68.408203" xlink:href="#DejaVuSans-108"/>
       <use x="96.191406" xlink:href="#DejaVuSans-108"/>
       <use x="123.974609" xlink:href="#DejaVuSans-32"/>
       <use x="155.761719" xlink:href="#DejaVuSans-103"/>
       <use x="219.238281" xlink:href="#DejaVuSans-101"/>
       <use x="280.761719" xlink:href="#DejaVuSans-110"/>
       <use x="344.140625" xlink:href="#DejaVuSans-101"/>
       <use x="405.664062" xlink:href="#DejaVuSans-115"/>
      </g>
     </g>
    </g>
    <g id="ytick_2">
     <g id="line2d_11">
      <g>
       <use style="stroke:#000000;stroke-width:0.8;" x="248.6925" xlink:href="#mb08bcf7668" y="128.397187"/>
      </g>
     </g>
     <g id="text_12">
      <!-- Common in RNAseq and array -->
      <defs>
       <path d="M 64.40625 67.28125
L 64.40625 56.890625
Q 59.421875 61.53125 53.78125 63.8125
Q 48.140625 66.109375 41.796875 66.109375
Q 29.296875 66.109375 22.65625 58.46875
Q 16.015625 50.828125 16.015625 36.375
Q 16.015625 21.96875 22.65625 14.328125
Q 29.296875 6.6875 41.796875 6.6875
Q 48.140625 6.6875 53.78125 8.984375
Q 59.421875 11.28125 64.40625 15.921875
L 64.40625 5.609375
Q 59.234375 2.09375 53.4375 0.328125
Q 47.65625 -1.421875 41.21875 -1.421875
Q 24.65625 -1.421875 15.125 8.703125
Q 5.609375 18.84375 5.609375 36.375
Q 5.609375 53.953125 15.125 64.078125
Q 24.65625 74.21875 41.21875 74.21875
Q 47.75 74.21875 53.53125 72.484375
Q 59.328125 70.75 64.40625 67.28125
z
" id="DejaVuSans-67"/>
       <path d="M 52 44.1875
Q 55.375 50.25 60.0625 53.125
Q 64.75 56 71.09375 56
Q 79.640625 56 84.28125 50.015625
Q 88.921875 44.046875 88.921875 33.015625
L 88.921875 0
L 79.890625 0
L 79.890625 32.71875
Q 79.890625 40.578125 77.09375 44.375
Q 74.3125 48.1875 68.609375 48.1875
Q 61.625 48.1875 57.5625 43.546875
Q 53.515625 38.921875 53.515625 30.90625
L 53.515625 0
L 44.484375 0
L 44.484375 32.71875
Q 44.484375 40.625 41.703125 44.40625
Q 38.921875 48.1875 33.109375 48.1875
Q 26.21875 48.1875 22.15625 43.53125
Q 18.109375 38.875 18.109375 30.90625
L 18.109375 0
L 9.078125 0
L 9.078125 54.6875
L 18.109375 54.6875
L 18.109375 46.1875
Q 21.1875 51.21875 25.484375 53.609375
Q 29.78125 56 35.6875 56
Q 41.65625 56 45.828125 52.96875
Q 50 49.953125 52 44.1875
z
" id="DejaVuSans-109"/>
       <path d="M 44.390625 34.1875
Q 47.5625 33.109375 50.5625 29.59375
Q 53.5625 26.078125 56.59375 19.921875
L 66.609375 0
L 56 0
L 46.6875 18.703125
Q 43.0625 26.03125 39.671875 28.421875
Q 36.28125 30.8125 30.421875 30.8125
L 19.671875 30.8125
L 19.671875 0
L 9.8125 0
L 9.8125 72.90625
L 32.078125 72.90625
Q 44.578125 72.90625 50.734375 67.671875
Q 56.890625 62.453125 56.890625 51.90625
Q 56.890625 45.015625 53.6875 40.46875
Q 50.484375 35.9375 44.390625 34.1875
z
M 19.671875 64.796875
L 19.671875 38.921875
L 32.078125 38.921875
Q 39.203125 38.921875 42.84375 42.21875
Q 46.484375 45.515625 46.484375 51.90625
Q 46.484375 58.296875 42.84375 61.546875
Q 39.203125 64.796875 32.078125 64.796875
z
" id="DejaVuSans-82"/>
       <path d="M 9.8125 72.90625
L 23.09375 72.90625
L 55.421875 11.921875
L 55.421875 72.90625
L 64.984375 72.90625
L 64.984375 0
L 51.703125 0
L 19.390625 60.984375
L 19.390625 0
L 9.8125 0
z
" id="DejaVuSans-78"/>
       <path d="M 14.796875 27.296875
Q 14.796875 17.390625 18.875 11.75
Q 22.953125 6.109375 30.078125 6.109375
Q 37.203125 6.109375 41.296875 11.75
Q 45.40625 17.390625 45.40625 27.296875
Q 45.40625 37.203125 41.296875 42.84375
Q 37.203125 48.484375 30.078125 48.484375
Q 22.953125 48.484375 18.875 42.84375
Q 14.796875 37.203125 14.796875 27.296875
z
M 45.40625 8.203125
Q 42.578125 3.328125 38.25 0.953125
Q 33.9375 -1.421875 27.875 -1.421875
Q 17.96875 -1.421875 11.734375 6.484375
Q 5.515625 14.40625 5.515625 27.296875
Q 5.515625 40.1875 11.734375 48.09375
Q 17.96875 56 27.875 56
Q 33.9375 56 38.25 53.625
Q 42.578125 51.265625 45.40625 46.390625
L 45.40625 54.6875
L 54.390625 54.6875
L 54.390625 -20.796875
L 45.40625 -20.796875
z
" id="DejaVuSans-113"/>
       <path d="M 45.40625 46.390625
L 45.40625 75.984375
L 54.390625 75.984375
L 54.390625 0
L 45.40625 0
L 45.40625 8.203125
Q 42.578125 3.328125 38.25 0.953125
Q 33.9375 -1.421875 27.875 -1.421875
Q 17.96875 -1.421875 11.734375 6.484375
Q 5.515625 14.40625 5.515625 27.296875
Q 5.515625 40.1875 11.734375 48.09375
Q 17.96875 56 27.875 56
Q 33.9375 56 38.25 53.625
Q 42.578125 51.265625 45.40625 46.390625
z
M 14.796875 27.296875
Q 14.796875 17.390625 18.875 11.75
Q 22.953125 6.109375 30.078125 6.109375
Q 37.203125 6.109375 41.296875 11.75
Q 45.40625 17.390625 45.40625 27.296875
Q 45.40625 37.203125 41.296875 42.84375
Q 37.203125 48.484375 30.078125 48.484375
Q 22.953125 48.484375 18.875 42.84375
Q 14.796875 37.203125 14.796875 27.296875
z
" id="DejaVuSans-100"/>
       <path d="M 32.171875 -5.078125
Q 28.375 -14.84375 24.75 -17.8125
Q 21.140625 -20.796875 15.09375 -20.796875
L 7.90625 -20.796875
L 7.90625 -13.28125
L 13.1875 -13.28125
Q 16.890625 -13.28125 18.9375 -11.515625
Q 21 -9.765625 23.484375 -3.21875
L 25.09375 0.875
L 2.984375 54.6875
L 12.5 54.6875
L 29.59375 11.921875
L 46.6875 54.6875
L 56.203125 54.6875
z
" id="DejaVuSans-121"/>
      </defs>
      <g transform="translate(-0 134.475937)scale(0.16 -0.16)">
       <use xlink:href="#DejaVuSans-67"/>
       <use x="69.824219" xlink:href="#DejaVuSans-111"/>
       <use x="131.005859" xlink:href="#DejaVuSans-109"/>
       <use x="228.417969" xlink:href="#DejaVuSans-109"/>
       <use x="325.830078" xlink:href="#DejaVuSans-111"/>
       <use x="387.011719" xlink:href="#DejaVuSans-110"/>
       <use x="450.390625" xlink:href="#DejaVuSans-32"/>
       <use x="482.177734" xlink:href="#DejaVuSans-105"/>
       <use x="509.960938" xlink:href="#DejaVuSans-110"/>
       <use x="573.339844" xlink:href="#DejaVuSans-32"/>
       <use x="605.126953" xlink:href="#DejaVuSans-82"/>
       <use x="674.609375" xlink:href="#DejaVuSans-78"/>
       <use x="749.414062" xlink:href="#DejaVuSans-65"/>
       <use x="817.822266" xlink:href="#DejaVuSans-115"/>
       <use x="869.921875" xlink:href="#DejaVuSans-101"/>
       <use x="931.445312" xlink:href="#DejaVuSans-113"/>
       <use x="994.921875" xlink:href="#DejaVuSans-32"/>
       <use x="1026.708984" xlink:href="#DejaVuSans-97"/>
       <use x="1087.988281" xlink:href="#DejaVuSans-110"/>
       <use x="1151.367188" xlink:href="#DejaVuSans-100"/>
       <use x="1214.84375" xlink:href="#DejaVuSans-32"/>
       <use x="1246.630859" xlink:href="#DejaVuSans-97"/>
       <use x="1307.910156" xlink:href="#DejaVuSans-114"/>
       <use x="1349.007812" xlink:href="#DejaVuSans-114"/>
       <use x="1390.121094" xlink:href="#DejaVuSans-97"/>
       <use x="1451.400391" xlink:href="#DejaVuSans-121"/>
      </g>
     </g>
    </g>
    <g id="ytick_3">
     <g id="line2d_12">
      <g>
       <use style="stroke:#000000;stroke-width:0.8;" x="248.6925" xlink:href="#mb08bcf7668" y="200.877187"/>
      </g>
     </g>
     <g id="text_13">
      <!-- Common in only RNAseq -->
      <g transform="translate(43.575 206.955937)scale(0.16 -0.16)">
       <use xlink:href="#DejaVuSans-67"/>
       <use x="69.824219" xlink:href="#DejaVuSans-111"/>
       <use x="131.005859" xlink:href="#DejaVuSans-109"/>
       <use x="228.417969" xlink:href="#DejaVuSans-109"/>
       <use x="325.830078" xlink:href="#DejaVuSans-111"/>
       <use x="387.011719" xlink:href="#DejaVuSans-110"/>
       <use x="450.390625" xlink:href="#DejaVuSans-32"/>
       <use x="482.177734" xlink:href="#DejaVuSans-105"/>
       <use x="509.960938" xlink:href="#DejaVuSans-110"/>
       <use x="573.339844" xlink:href="#DejaVuSans-32"/>
       <use x="605.126953" xlink:href="#DejaVuSans-111"/>
       <use x="666.308594" xlink:href="#DejaVuSans-110"/>
       <use x="729.6875" xlink:href="#DejaVuSans-108"/>
       <use x="757.470703" xlink:href="#DejaVuSans-121"/>
       <use x="816.650391" xlink:href="#DejaVuSans-32"/>
       <use x="848.4375" xlink:href="#DejaVuSans-82"/>
       <use x="917.919922" xlink:href="#DejaVuSans-78"/>
       <use x="992.724609" xlink:href="#DejaVuSans-65"/>
       <use x="1061.132812" xlink:href="#DejaVuSans-115"/>
       <use x="1113.232422" xlink:href="#DejaVuSans-101"/>
       <use x="1174.755859" xlink:href="#DejaVuSans-113"/>
      </g>
     </g>
    </g>
   </g>
   <g id="line2d_13">
    <path clip-path="url(#pb856521924)" d="M 358.228712 55.917187
L 525.766951 55.917187
" style="fill:none;stroke:#444444;stroke-linecap:square;stroke-width:1.5;"/>
   </g>
   <g id="line2d_14">
    <path clip-path="url(#pb856521924)" d="M 421.125478 55.917187
L 463.080634 55.917187
" style="fill:none;stroke:#444444;stroke-linecap:square;stroke-width:4.5;"/>
   </g>
   <g id="line2d_15">
    <path clip-path="url(#pb856521924)" d="M 378.584532 128.397187
L 498.285923 128.397187
" style="fill:none;stroke:#444444;stroke-linecap:square;stroke-width:1.5;"/>
   </g>
   <g id="line2d_16">
    <path clip-path="url(#pb856521924)" d="M 424.143061 128.397187
L 455.9062 128.397187
" style="fill:none;stroke:#444444;stroke-linecap:square;stroke-width:4.5;"/>
   </g>
   <g id="line2d_17">
    <path clip-path="url(#pb856521924)" d="M 301.941106 200.877187
L 462.057865 200.877187
" style="fill:none;stroke:#444444;stroke-linecap:square;stroke-width:1.5;"/>
   </g>
   <g id="line2d_18">
    <path clip-path="url(#pb856521924)" d="M 349.138409 200.877187
L 394.450852 200.877187
" style="fill:none;stroke:#444444;stroke-linecap:square;stroke-width:4.5;"/>
   </g>
   <g id="patch_3">
    <path d="M 248.6925 237.117187
L 248.6925 19.677187
" style="fill:none;stroke:#000000;stroke-linecap:square;stroke-linejoin:miter;stroke-width:1.5;"/>
   </g>
   <g id="patch_4">
    <path d="M 583.4925 237.117187
L 583.4925 19.677187
" style="fill:none;stroke:#000000;stroke-linecap:square;stroke-linejoin:miter;stroke-width:1.5;"/>
   </g>
   <g id="patch_5">
    <path d="M 248.6925 237.117187
L 583.4925 237.117187
" style="fill:none;stroke:#000000;stroke-linecap:square;stroke-linejoin:miter;stroke-width:1.5;"/>
   </g>
   <g id="patch_6">
    <path d="M 248.6925 19.677187
L 583.4925 19.677187
" style="fill:none;stroke:#000000;stroke-linecap:square;stroke-linejoin:miter;stroke-width:1.5;"/>
   </g>
   <g id="PathCollection_1">
    <defs>
     <path d="M 0 1.5
C 0.397805 1.5 0.77937 1.341951 1.06066 1.06066
C 1.341951 0.77937 1.5 0.397805 1.5 0
C 1.5 -0.397805 1.341951 -0.77937 1.06066 -1.06066
C 0.77937 -1.341951 0.397805 -1.5 0 -1.5
C -0.397805 -1.5 -0.77937 -1.341951 -1.06066 -1.06066
C -1.341951 -0.77937 -1.5 -0.397805 -1.5 0
C -1.5 0.397805 -1.341951 0.77937 -1.06066 1.06066
C -0.77937 1.341951 -0.397805 1.5 0 1.5
z
" id="m04d037f49a" style="stroke:#444444;"/>
    </defs>
    <g clip-path="url(#pb856521924)">
     <use style="fill:#ffffff;stroke:#444444;" x="447.097994" xlink:href="#m04d037f49a" y="55.917187"/>
    </g>
   </g>
   <g id="PathCollection_2">
    <g clip-path="url(#pb856521924)">
     <use style="fill:#ffffff;stroke:#444444;" x="439.468289" xlink:href="#m04d037f49a" y="128.397187"/>
    </g>
   </g>
   <g id="PathCollection_3">
    <g clip-path="url(#pb856521924)">
     <use style="fill:#ffffff;stroke:#444444;" x="369.327681" xlink:href="#m04d037f49a" y="200.877187"/>
    </g>
   </g>
   <g id="text_14">
    <!-- Average recount2 expression -->
    <defs>
     <path d="M 48.78125 52.59375
L 48.78125 44.1875
Q 44.96875 46.296875 41.140625 47.34375
Q 37.3125 48.390625 33.40625 48.390625
Q 24.65625 48.390625 19.8125 42.84375
Q 14.984375 37.3125 14.984375 27.296875
Q 14.984375 17.28125 19.8125 11.734375
Q 24.65625 6.203125 33.40625 6.203125
Q 37.3125 6.203125 41.140625 7.25
Q 44.96875 8.296875 48.78125 10.40625
L 48.78125 2.09375
Q 45.015625 0.34375 40.984375 -0.53125
Q 36.96875 -1.421875 32.421875 -1.421875
Q 20.0625 -1.421875 12.78125 6.34375
Q 5.515625 14.109375 5.515625 27.296875
Q 5.515625 40.671875 12.859375 48.328125
Q 20.21875 56 33.015625 56
Q 37.15625 56 41.109375 55.140625
Q 45.0625 54.296875 48.78125 52.59375
z
" id="DejaVuSans-99"/>
     <path d="M 8.5 21.578125
L 8.5 54.6875
L 17.484375 54.6875
L 17.484375 21.921875
Q 17.484375 14.15625 20.5 10.265625
Q 23.53125 6.390625 29.59375 6.390625
Q 36.859375 6.390625 41.078125 11.03125
Q 45.3125 15.671875 45.3125 23.6875
L 45.3125 54.6875
L 54.296875 54.6875
L 54.296875 0
L 45.3125 0
L 45.3125 8.40625
Q 42.046875 3.421875 37.71875 1
Q 33.40625 -1.421875 27.6875 -1.421875
Q 18.265625 -1.421875 13.375 4.4375
Q 8.5 10.296875 8.5 21.578125
z
M 31.109375 56
z
" id="DejaVuSans-117"/>
     <path d="M 18.3125 70.21875
L 18.3125 54.6875
L 36.8125 54.6875
L 36.8125 47.703125
L 18.3125 47.703125
L 18.3125 18.015625
Q 18.3125 11.328125 20.140625 9.421875
Q 21.96875 7.515625 27.59375 7.515625
L 36.8125 7.515625
L 36.8125 0
L 27.59375 0
Q 17.1875 0 13.234375 3.875
Q 9.28125 7.765625 9.28125 18.015625
L 9.28125 47.703125
L 2.6875 47.703125
L 2.6875 54.6875
L 9.28125 54.6875
L 9.28125 70.21875
z
" id="DejaVuSans-116"/>
    </defs>
    <g transform="translate(283.639219 13.677187)scale(0.18 -0.18)">
     <use xlink:href="#DejaVuSans-65"/>
     <use x="68.330078" xlink:href="#DejaVuSans-118"/>
     <use x="127.509766" xlink:href="#DejaVuSans-101"/>
     <use x="189.033203" xlink:href="#DejaVuSans-114"/>
     <use x="230.146484" xlink:href="#DejaVuSans-97"/>
     <use x="291.425781" xlink:href="#DejaVuSans-103"/>
     <use x="354.902344" xlink:href="#DejaVuSans-101"/>
     <use x="416.425781" xlink:href="#DejaVuSans-32"/>
     <use x="448.212891" xlink:href="#DejaVuSans-114"/>
     <use x="489.294922" xlink:href="#DejaVuSans-101"/>
     <use x="550.818359" xlink:href="#DejaVuSans-99"/>
     <use x="605.798828" xlink:href="#DejaVuSans-111"/>
     <use x="666.980469" xlink:href="#DejaVuSans-117"/>
     <use x="730.359375" xlink:href="#DejaVuSans-110"/>
     <use x="793.738281" xlink:href="#DejaVuSans-116"/>
     <use x="832.947266" xlink:href="#DejaVuSans-50"/>
     <use x="896.570312" xlink:href="#DejaVuSans-32"/>
     <use x="928.357422" xlink:href="#DejaVuSans-101"/>
     <use x="989.865234" xlink:href="#DejaVuSans-120"/>
     <use x="1049.044922" xlink:href="#DejaVuSans-112"/>
     <use x="1112.521484" xlink:href="#DejaVuSans-114"/>
     <use x="1153.603516" xlink:href="#DejaVuSans-101"/>
     <use x="1215.126953" xlink:href="#DejaVuSans-115"/>
     <use x="1267.226562" xlink:href="#DejaVuSans-115"/>
     <use x="1319.326172" xlink:href="#DejaVuSans-105"/>
     <use x="1347.109375" xlink:href="#DejaVuSans-111"/>
     <use x="1408.291016" xlink:href="#DejaVuSans-110"/>
    </g>
   </g>
  </g>
 </g>
 <defs>
  <clipPath id="pb856521924">
   <rect height="217.44" width="334.8" x="248.6925" y="19.677187"/>
  </clipPath>
 </defs>
</svg>
