<?xml version="1.0" encoding="utf-8" standalone="no"?>
<!DOCTYPE svg PUBLIC "-//W3C//DTD SVG 1.1//EN"
  "http://www.w3.org/Graphics/SVG/1.1/DTD/svg11.dtd">
<!-- Created with matplotlib (https://matplotlib.org/) -->
<svg height="262.914375pt" version="1.1" viewBox="0 0 494.873437 262.914375" width="494.873437pt" xmlns="http://www.w3.org/2000/svg" xmlns:xlink="http://www.w3.org/1999/xlink">
 <defs>
  <style type="text/css">
*{stroke-linecap:butt;stroke-linejoin:round;}
  </style>
 </defs>
 <g id="figure_1">
  <g id="patch_1">
   <path d="M 0 262.914375
L 494.873437 262.914375
L 494.873437 0
L 0 0
z
" style="fill:none;"/>
  </g>
  <g id="axes_1">
   <g id="patch_2">
    <path d="M 156.573438 232.558125
L 491.373437 232.558125
L 491.373437 15.118125
L 156.573438 15.118125
z
" style="fill:none;"/>
   </g>
   <g id="PolyCollection_1">
    <defs>
     <path d="M 179.148309 -211.555163
L 179.148309 -211.557337
L 182.148379 -211.559311
L 185.148449 -211.56261
L 188.14852 -211.56668
L 191.14859 -211.571349
L 194.14866 -211.577206
L 197.14873 -211.583157
L 200.1488 -211.585806
L 203.14887 -211.584303
L 206.148941 -211.584509
L 209.149011 -211.59606
L 212.149081 -211.625054
L 215.149151 -211.670819
L 218.149221 -211.729442
L 221.149291 -211.795146
L 224.149362 -211.8594
L 227.149432 -211.921203
L 230.149502 -211.999899
L 233.149572 -212.124945
L 236.149642 -212.308672
L 239.149712 -212.533242
L 242.149783 -212.760714
L 245.149853 -212.951296
L 248.149923 -213.085154
L 251.149993 -213.18127
L 254.150063 -213.28342
L 257.150133 -213.417578
L 260.150204 -213.57793
L 263.150274 -213.751164
L 266.150344 -213.927167
L 269.150414 -214.096793
L 272.150484 -214.267073
L 275.150554 -214.4559
L 278.150625 -214.660533
L 281.150695 -214.871439
L 284.150765 -215.10541
L 287.150835 -215.378017
L 290.150905 -215.675858
L 293.150975 -215.989201
L 296.151046 -216.327168
L 299.151116 -216.695443
L 302.151186 -217.10478
L 305.151256 -217.577522
L 308.151326 -218.093165
L 311.151396 -218.564738
L 314.151467 -218.933757
L 317.151537 -219.256995
L 320.151607 -219.648735
L 323.151677 -220.175737
L 326.151747 -220.845178
L 329.151817 -221.644995
L 332.151888 -222.544253
L 335.151958 -223.49118
L 338.152028 -224.47366
L 341.152098 -225.561844
L 344.152168 -226.842824
L 347.152238 -228.325611
L 350.152309 -229.931249
L 353.152379 -231.57096
L 356.152449 -233.223574
L 359.152519 -234.896955
L 362.152589 -236.501653
L 365.152659 -237.837195
L 368.15273 -238.713487
L 371.1528 -239.008168
L 374.15287 -238.629928
L 377.15294 -237.511857
L 380.15301 -235.646144
L 383.15308 -233.113732
L 386.153151 -230.117764
L 389.153221 -226.978749
L 392.153291 -224.016557
L 395.153361 -221.414394
L 398.153431 -219.215102
L 401.153501 -217.409455
L 404.153572 -215.982983
L 407.153642 -214.900478
L 410.153712 -214.096237
L 413.153782 -213.496774
L 416.153852 -213.047754
L 419.153922 -212.715298
L 422.153993 -212.467739
L 425.154063 -212.271623
L 428.154133 -212.107877
L 431.154203 -211.976873
L 434.154273 -211.879981
L 437.154343 -211.806185
L 440.154414 -211.742993
L 443.154484 -211.690103
L 446.154554 -211.653607
L 449.154624 -211.632412
L 452.154694 -211.617781
L 455.154765 -211.603338
L 458.154835 -211.589382
L 461.154905 -211.578613
L 464.154975 -211.571672
L 467.155045 -211.566869
L 470.155115 -211.562711
L 473.155186 -211.559343
L 476.155256 -211.557344
L 476.155256 -211.555156
L 476.155256 -211.555156
L 473.155186 -211.553157
L 470.155115 -211.549789
L 467.155045 -211.545631
L 464.154975 -211.540828
L 461.154905 -211.533887
L 458.154835 -211.523118
L 455.154765 -211.509162
L 452.154694 -211.494719
L 449.154624 -211.480088
L 446.154554 -211.458893
L 443.154484 -211.422397
L 440.154414 -211.369507
L 437.154343 -211.306315
L 434.154273 -211.232519
L 431.154203 -211.135627
L 428.154133 -211.004623
L 425.154063 -210.840877
L 422.153993 -210.644761
L 419.153922 -210.397202
L 416.153852 -210.064746
L 413.153782 -209.615726
L 410.153712 -209.016263
L 407.153642 -208.212022
L 404.153572 -207.129517
L 401.153501 -205.703045
L 398.153431 -203.897398
L 395.153361 -201.698106
L 392.153291 -199.095943
L 389.153221 -196.133751
L 386.153151 -192.994736
L 383.15308 -189.998768
L 380.15301 -187.466356
L 377.15294 -185.600643
L 374.15287 -184.482572
L 371.1528 -184.104332
L 368.15273 -184.399013
L 365.152659 -185.275305
L 362.152589 -186.610847
L 359.152519 -188.215545
L 356.152449 -189.888926
L 353.152379 -191.54154
L 350.152309 -193.181251
L 347.152238 -194.786889
L 344.152168 -196.269676
L 341.152098 -197.550656
L 338.152028 -198.63884
L 335.151958 -199.62132
L 332.151888 -200.568247
L 329.151817 -201.467505
L 326.151747 -202.267322
L 323.151677 -202.936763
L 320.151607 -203.463765
L 317.151537 -203.855505
L 314.151467 -204.178743
L 311.151396 -204.547762
L 308.151326 -205.019335
L 305.151256 -205.534978
L 302.151186 -206.00772
L 299.151116 -206.417057
L 296.151046 -206.785332
L 293.150975 -207.123299
L 290.150905 -207.436642
L 287.150835 -207.734483
L 284.150765 -208.00709
L 281.150695 -208.241061
L 278.150625 -208.451967
L 275.150554 -208.6566
L 272.150484 -208.845427
L 269.150414 -209.015707
L 266.150344 -209.185333
L 263.150274 -209.361336
L 260.150204 -209.53457
L 257.150133 -209.694922
L 254.150063 -209.82908
L 251.149993 -209.93123
L 248.149923 -210.027346
L 245.149853 -210.161204
L 242.149783 -210.351786
L 239.149712 -210.579258
L 236.149642 -210.803828
L 233.149572 -210.987555
L 230.149502 -211.112601
L 227.149432 -211.191297
L 224.149362 -211.2531
L 221.149291 -211.317354
L 218.149221 -211.383058
L 215.149151 -211.441681
L 212.149081 -211.487446
L 209.149011 -211.51644
L 206.148941 -211.527991
L 203.14887 -211.528197
L 200.1488 -211.526694
L 197.14873 -211.529343
L 194.14866 -211.535294
L 191.14859 -211.541151
L 188.14852 -211.54582
L 185.148449 -211.54989
L 182.148379 -211.553189
L 179.148309 -211.555163
z
" id="maf0bbec696" style="stroke:#444444;stroke-width:1.5;"/>
    </defs>
    <g clip-path="url(#p5d6e09729b)">
     <use style="fill:#d3d3d3;stroke:#444444;stroke-width:1.5;" x="0" xlink:href="#maf0bbec696" y="262.914375"/>
    </g>
   </g>
   <g id="PolyCollection_2">
    <defs>
     <path d="M 269.414854 -139.038376
L 269.414854 -139.114124
L 271.423592 -139.152546
L 273.43233 -139.216656
L 275.441068 -139.312936
L 277.449806 -139.443174
L 279.458544 -139.602297
L 281.467282 -139.779048
L 283.47602 -139.959798
L 285.484758 -140.133448
L 287.493496 -140.294398
L 289.502234 -140.442396
L 291.510972 -140.581372
L 293.51971 -140.720598
L 295.528448 -140.878717
L 297.537186 -141.086456
L 299.545924 -141.382076
L 301.554662 -141.797624
L 303.5634 -142.341593
L 305.572138 -142.989129
L 307.580876 -143.689624
L 309.589614 -144.392743
L 311.598352 -145.081889
L 313.60709 -145.796343
L 315.615828 -146.626342
L 317.624566 -147.679462
L 319.633304 -149.033746
L 321.642042 -150.701382
L 323.65078 -152.620331
L 325.659518 -154.67504
L 327.668256 -156.732554
L 329.676994 -158.676152
L 331.685732 -160.425232
L 333.694469 -161.940682
L 335.703207 -163.221282
L 337.711945 -164.295706
L 339.720683 -165.210087
L 341.729421 -166.009713
L 343.738159 -166.718186
L 345.746897 -167.323866
L 347.755635 -167.783493
L 349.764373 -168.043636
L 351.773111 -168.06825
L 353.781849 -167.855543
L 355.790587 -167.434279
L 357.799325 -166.843579
L 359.808063 -166.11071
L 361.816801 -165.241267
L 363.825539 -164.226948
L 365.834277 -163.065272
L 367.843015 -161.779546
L 369.851753 -160.427835
L 371.860491 -159.094641
L 373.869229 -157.866286
L 375.877967 -156.798854
L 377.886705 -155.893382
L 379.895443 -155.092217
L 381.904181 -154.300847
L 383.912919 -153.425191
L 385.921657 -152.405704
L 387.930395 -151.233556
L 389.939133 -149.946808
L 391.947871 -148.614365
L 393.956609 -147.315943
L 395.965347 -146.121854
L 397.974085 -145.075099
L 399.982823 -144.181334
L 401.991561 -143.412956
L 404.000299 -142.727368
L 406.009037 -142.090362
L 408.017775 -141.491878
L 410.026513 -140.946682
L 412.035251 -140.482044
L 414.043989 -140.120972
L 416.052727 -139.869701
L 418.061465 -139.714107
L 420.070203 -139.625134
L 422.078941 -139.56987
L 424.087679 -139.523019
L 426.096417 -139.473534
L 428.105155 -139.423711
L 430.113893 -139.382193
L 432.122631 -139.355567
L 434.131369 -139.343358
L 436.140107 -139.338423
L 438.148845 -139.331341
L 440.157583 -139.315548
L 442.166321 -139.29036
L 444.175059 -139.260698
L 446.183797 -139.234094
L 448.192535 -139.216699
L 450.201273 -139.210235
L 452.210011 -139.211301
L 454.218749 -139.213253
L 456.227487 -139.209573
L 458.236225 -139.196885
L 460.244963 -139.176079
L 462.253701 -139.151204
L 464.262439 -139.127122
L 466.271177 -139.107409
L 468.279915 -139.09346
L 468.279915 -139.05904
L 468.279915 -139.05904
L 466.271177 -139.045091
L 464.262439 -139.025378
L 462.253701 -139.001296
L 460.244963 -138.976421
L 458.236225 -138.955615
L 456.227487 -138.942927
L 454.218749 -138.939247
L 452.210011 -138.941199
L 450.201273 -138.942265
L 448.192535 -138.935801
L 446.183797 -138.918406
L 444.175059 -138.891802
L 442.166321 -138.86214
L 440.157583 -138.836952
L 438.148845 -138.821159
L 436.140107 -138.814077
L 434.131369 -138.809142
L 432.122631 -138.796933
L 430.113893 -138.770307
L 428.105155 -138.728789
L 426.096417 -138.678966
L 424.087679 -138.629481
L 422.078941 -138.58263
L 420.070203 -138.527366
L 418.061465 -138.438393
L 416.052727 -138.282799
L 414.043989 -138.031528
L 412.035251 -137.670456
L 410.026513 -137.205818
L 408.017775 -136.660622
L 406.009037 -136.062138
L 404.000299 -135.425132
L 401.991561 -134.739544
L 399.982823 -133.971166
L 397.974085 -133.077401
L 395.965347 -132.030646
L 393.956609 -130.836557
L 391.947871 -129.538135
L 389.939133 -128.205692
L 387.930395 -126.918944
L 385.921657 -125.746796
L 383.912919 -124.727309
L 381.904181 -123.851653
L 379.895443 -123.060283
L 377.886705 -122.259118
L 375.877967 -121.353646
L 373.869229 -120.286214
L 371.860491 -119.057859
L 369.851753 -117.724665
L 367.843015 -116.372954
L 365.834277 -115.087228
L 363.825539 -113.925552
L 361.816801 -112.911233
L 359.808063 -112.04179
L 357.799325 -111.308921
L 355.790587 -110.718221
L 353.781849 -110.296957
L 351.773111 -110.08425
L 349.764373 -110.108864
L 347.755635 -110.369007
L 345.746897 -110.828634
L 343.738159 -111.434314
L 341.729421 -112.142787
L 339.720683 -112.942413
L 337.711945 -113.856794
L 335.703207 -114.931218
L 333.694469 -116.211818
L 331.685732 -117.727268
L 329.676994 -119.476348
L 327.668256 -121.419946
L 325.659518 -123.47746
L 323.65078 -125.532169
L 321.642042 -127.451118
L 319.633304 -129.118754
L 317.624566 -130.473038
L 315.615828 -131.526158
L 313.60709 -132.356157
L 311.598352 -133.070611
L 309.589614 -133.759757
L 307.580876 -134.462876
L 305.572138 -135.163371
L 303.5634 -135.810907
L 301.554662 -136.354876
L 299.545924 -136.770424
L 297.537186 -137.066044
L 295.528448 -137.273783
L 293.51971 -137.431902
L 291.510972 -137.571128
L 289.502234 -137.710104
L 287.493496 -137.858102
L 285.484758 -138.019052
L 283.47602 -138.192702
L 281.467282 -138.373452
L 279.458544 -138.550203
L 277.449806 -138.709326
L 275.441068 -138.839564
L 273.43233 -138.935844
L 271.423592 -138.999954
L 269.414854 -139.038376
z
" id="m5a12d4c13b" style="stroke:#444444;stroke-width:1.5;"/>
    </defs>
    <g clip-path="url(#p5d6e09729b)">
     <use style="fill:#3d7ca6;stroke:#444444;stroke-width:1.5;" x="0" xlink:href="#m5a12d4c13b" y="262.914375"/>
    </g>
   </g>
   <g id="PolyCollection_3">
    <defs>
     <path d="M 171.791619 -66.582321
L 171.791619 -66.610179
L 174.215855 -66.619581
L 176.64009 -66.632454
L 179.064325 -66.648312
L 181.48856 -66.665686
L 183.912796 -66.682297
L 186.337031 -66.695738
L 188.761266 -66.704577
L 191.185501 -66.70957
L 193.609737 -66.714595
L 196.033972 -66.72697
L 198.458207 -66.757017
L 200.882442 -66.816922
L 203.306678 -66.919037
L 205.730913 -67.073885
L 208.155148 -67.288269
L 210.579384 -67.564098
L 213.003619 -67.898627
L 215.427854 -68.286613
L 217.852089 -68.724312
L 220.276325 -69.214293
L 222.70056 -69.769192
L 225.124795 -70.412117
L 227.54903 -71.172029
L 229.973266 -72.074201
L 232.397501 -73.128279
L 234.821736 -74.318471
L 237.245971 -75.600685
L 239.670207 -76.909384
L 242.094442 -78.173095
L 244.518677 -79.333664
L 246.942912 -80.362222
L 249.367148 -81.26572
L 251.791383 -82.081323
L 254.215618 -82.860567
L 256.639854 -83.649029
L 259.064089 -84.468744
L 261.488324 -85.309388
L 263.912559 -86.130731
L 266.336795 -86.874661
L 268.76103 -87.481722
L 271.185265 -87.905993
L 273.6095 -88.1236
L 276.033736 -88.133445
L 278.457971 -87.952212
L 280.882206 -87.607568
L 283.306441 -87.132945
L 285.730677 -86.56491
L 288.154912 -85.941561
L 290.579147 -85.299508
L 293.003382 -84.668267
L 295.427618 -84.06357
L 297.851853 -83.482977
L 300.276088 -82.906901
L 302.700324 -82.305758
L 305.124559 -81.651059
L 307.548794 -80.92649
L 309.973029 -80.135075
L 312.397265 -79.299895
L 314.8215 -78.457901
L 317.245735 -77.648714
L 319.66997 -76.902448
L 322.094206 -76.231461
L 324.518441 -75.629655
L 326.942676 -75.079574
L 329.366911 -74.563577
L 331.791147 -74.073239
L 334.215382 -73.612056
L 336.639617 -73.190364
L 339.063852 -72.815707
L 341.488088 -72.484404
L 343.912323 -72.179159
L 346.336558 -71.873994
L 348.760793 -71.54375
L 351.185029 -71.173338
L 353.609264 -70.762671
L 356.033499 -70.325777
L 358.457735 -69.885265
L 360.88197 -69.464737
L 363.306205 -69.08186
L 365.73044 -68.744209
L 368.154676 -68.448959
L 370.578911 -68.186252
L 373.003146 -67.944753
L 375.427381 -67.716973
L 377.851617 -67.50214
L 380.275852 -67.305575
L 382.700087 -67.13529
L 385.124322 -66.997722
L 387.548558 -66.894655
L 389.972793 -66.822496
L 392.397028 -66.773807
L 394.821263 -66.739998
L 397.245499 -66.713842
L 399.669734 -66.690877
L 402.093969 -66.669458
L 404.518205 -66.64985
L 406.94244 -66.633036
L 409.366675 -66.619785
L 411.79091 -66.610245
L 411.79091 -66.582255
L 411.79091 -66.582255
L 409.366675 -66.572715
L 406.94244 -66.559464
L 404.518205 -66.54265
L 402.093969 -66.523042
L 399.669734 -66.501623
L 397.245499 -66.478658
L 394.821263 -66.452502
L 392.397028 -66.418693
L 389.972793 -66.370004
L 387.548558 -66.297845
L 385.124322 -66.194778
L 382.700087 -66.05721
L 380.275852 -65.886925
L 377.851617 -65.69036
L 375.427381 -65.475527
L 373.003146 -65.247747
L 370.578911 -65.006248
L 368.154676 -64.743541
L 365.73044 -64.448291
L 363.306205 -64.11064
L 360.88197 -63.727763
L 358.457735 -63.307235
L 356.033499 -62.866723
L 353.609264 -62.429829
L 351.185029 -62.019162
L 348.760793 -61.64875
L 346.336558 -61.318506
L 343.912323 -61.013341
L 341.488088 -60.708096
L 339.063852 -60.376793
L 336.639617 -60.002136
L 334.215382 -59.580444
L 331.791147 -59.119261
L 329.366911 -58.628923
L 326.942676 -58.112926
L 324.518441 -57.562845
L 322.094206 -56.961039
L 319.66997 -56.290052
L 317.245735 -55.543786
L 314.8215 -54.734599
L 312.397265 -53.892605
L 309.973029 -53.057425
L 307.548794 -52.26601
L 305.124559 -51.541441
L 302.700324 -50.886742
L 300.276088 -50.285599
L 297.851853 -49.709523
L 295.427618 -49.12893
L 293.003382 -48.524233
L 290.579147 -47.892992
L 288.154912 -47.250939
L 285.730677 -46.62759
L 283.306441 -46.059555
L 280.882206 -45.584932
L 278.457971 -45.240288
L 276.033736 -45.059055
L 273.6095 -45.0689
L 271.185265 -45.286507
L 268.76103 -45.710778
L 266.336795 -46.317839
L 263.912559 -47.061769
L 261.488324 -47.883112
L 259.064089 -48.723756
L 256.639854 -49.543471
L 254.215618 -50.331933
L 251.791383 -51.111177
L 249.367148 -51.92678
L 246.942912 -52.830278
L 244.518677 -53.858836
L 242.094442 -55.019405
L 239.670207 -56.283116
L 237.245971 -57.591815
L 234.821736 -58.874029
L 232.397501 -60.064221
L 229.973266 -61.118299
L 227.54903 -62.020471
L 225.124795 -62.780383
L 222.70056 -63.423308
L 220.276325 -63.978207
L 217.852089 -64.468188
L 215.427854 -64.905887
L 213.003619 -65.293873
L 210.579384 -65.628402
L 208.155148 -65.904231
L 205.730913 -66.118615
L 203.306678 -66.273463
L 200.882442 -66.375578
L 198.458207 -66.435483
L 196.033972 -66.46553
L 193.609737 -66.477905
L 191.185501 -66.48293
L 188.761266 -66.487923
L 186.337031 -66.496762
L 183.912796 -66.510203
L 181.48856 -66.526814
L 179.064325 -66.544188
L 176.64009 -66.560046
L 174.215855 -66.572919
L 171.791619 -66.582321
z
" id="m42c4a97a3b" style="stroke:#444444;stroke-width:1.5;"/>
    </defs>
    <g clip-path="url(#p5d6e09729b)">
     <use style="fill:#b4d4df;stroke:#444444;stroke-width:1.5;" x="0" xlink:href="#m42c4a97a3b" y="262.914375"/>
    </g>
   </g>
   <g id="matplotlib.axis_1">
    <g id="xtick_1">
     <g id="line2d_1">
      <defs>
       <path d="M 0 0
L 0 3.5
" id="m2a616a9e06" style="stroke:#000000;stroke-width:0.8;"/>
      </defs>
      <g>
       <use style="stroke:#000000;stroke-width:0.8;" x="159.575" xlink:href="#m2a616a9e06" y="232.558125"/>
      </g>
     </g>
     <g id="text_1">
      <!-- −2 -->
      <defs>
       <path d="M 10.59375 35.5
L 73.1875 35.5
L 73.1875 27.203125
L 10.59375 27.203125
z
" id="DejaVuSans-8722"/>
       <path d="M 19.1875 8.296875
L 53.609375 8.296875
L 53.609375 0
L 7.328125 0
L 7.328125 8.296875
Q 12.9375 14.109375 22.625 23.890625
Q 32.328125 33.6875 34.8125 36.53125
Q 39.546875 41.84375 41.421875 45.53125
Q 43.3125 49.21875 43.3125 52.78125
Q 43.3125 58.59375 39.234375 62.25
Q 35.15625 65.921875 28.609375 65.921875
Q 23.96875 65.921875 18.8125 64.3125
Q 13.671875 62.703125 7.8125 59.421875
L 7.8125 69.390625
Q 13.765625 71.78125 18.9375 73
Q 24.125 74.21875 28.421875 74.21875
Q 39.75 74.21875 46.484375 68.546875
Q 53.21875 62.890625 53.21875 53.421875
Q 53.21875 48.921875 51.53125 44.890625
Q 49.859375 40.875 45.40625 35.40625
Q 44.1875 33.984375 37.640625 27.21875
Q 31.109375 20.453125 19.1875 8.296875
z
" id="DejaVuSans-50"/>
      </defs>
      <g transform="translate(152.203906 247.156563)scale(0.1 -0.1)">
       <use xlink:href="#DejaVuSans-8722"/>
       <use x="83.789062" xlink:href="#DejaVuSans-50"/>
      </g>
     </g>
    </g>
    <g id="xtick_2">
     <g id="line2d_2">
      <g>
       <use style="stroke:#000000;stroke-width:0.8;" x="201.954159" xlink:href="#m2a616a9e06" y="232.558125"/>
      </g>
     </g>
     <g id="text_2">
      <!-- −1 -->
      <defs>
       <path d="M 12.40625 8.296875
L 28.515625 8.296875
L 28.515625 63.921875
L 10.984375 60.40625
L 10.984375 69.390625
L 28.421875 72.90625
L 38.28125 72.90625
L 38.28125 8.296875
L 54.390625 8.296875
L 54.390625 0
L 12.40625 0
z
" id="DejaVuSans-49"/>
      </defs>
      <g transform="translate(194.583066 247.156563)scale(0.1 -0.1)">
       <use xlink:href="#DejaVuSans-8722"/>
       <use x="83.789062" xlink:href="#DejaVuSans-49"/>
      </g>
     </g>
    </g>
    <g id="xtick_3">
     <g id="line2d_3">
      <g>
       <use style="stroke:#000000;stroke-width:0.8;" x="244.333319" xlink:href="#m2a616a9e06" y="232.558125"/>
      </g>
     </g>
     <g id="text_3">
      <!-- 0 -->
      <defs>
       <path d="M 31.78125 66.40625
Q 24.171875 66.40625 20.328125 58.90625
Q 16.5 51.421875 16.5 36.375
Q 16.5 21.390625 20.328125 13.890625
Q 24.171875 6.390625 31.78125 6.390625
Q 39.453125 6.390625 43.28125 13.890625
Q 47.125 21.390625 47.125 36.375
Q 47.125 51.421875 43.28125 58.90625
Q 39.453125 66.40625 31.78125 66.40625
z
M 31.78125 74.21875
Q 44.046875 74.21875 50.515625 64.515625
Q 56.984375 54.828125 56.984375 36.375
Q 56.984375 17.96875 50.515625 8.265625
Q 44.046875 -1.421875 31.78125 -1.421875
Q 19.53125 -1.421875 13.0625 8.265625
Q 6.59375 17.96875 6.59375 36.375
Q 6.59375 54.828125 13.0625 64.515625
Q 19.53125 74.21875 31.78125 74.21875
z
" id="DejaVuSans-48"/>
      </defs>
      <g transform="translate(241.152069 247.156563)scale(0.1 -0.1)">
       <use xlink:href="#DejaVuSans-48"/>
      </g>
     </g>
    </g>
    <g id="xtick_4">
     <g id="line2d_4">
      <g>
       <use style="stroke:#000000;stroke-width:0.8;" x="286.712479" xlink:href="#m2a616a9e06" y="232.558125"/>
      </g>
     </g>
     <g id="text_4">
      <!-- 1 -->
      <g transform="translate(283.531229 247.156563)scale(0.1 -0.1)">
       <use xlink:href="#DejaVuSans-49"/>
      </g>
     </g>
    </g>
    <g id="xtick_5">
     <g id="line2d_5">
      <g>
       <use style="stroke:#000000;stroke-width:0.8;" x="329.091639" xlink:href="#m2a616a9e06" y="232.558125"/>
      </g>
     </g>
     <g id="text_5">
      <!-- 2 -->
      <g transform="translate(325.910389 247.156563)scale(0.1 -0.1)">
       <use xlink:href="#DejaVuSans-50"/>
      </g>
     </g>
    </g>
    <g id="xtick_6">
     <g id="line2d_6">
      <g>
       <use style="stroke:#000000;stroke-width:0.8;" x="371.470799" xlink:href="#m2a616a9e06" y="232.558125"/>
      </g>
     </g>
     <g id="text_6">
      <!-- 3 -->
      <defs>
       <path d="M 40.578125 39.3125
Q 47.65625 37.796875 51.625 33
Q 55.609375 28.21875 55.609375 21.1875
Q 55.609375 10.40625 48.1875 4.484375
Q 40.765625 -1.421875 27.09375 -1.421875
Q 22.515625 -1.421875 17.65625 -0.515625
Q 12.796875 0.390625 7.625 2.203125
L 7.625 11.71875
Q 11.71875 9.328125 16.59375 8.109375
Q 21.484375 6.890625 26.8125 6.890625
Q 36.078125 6.890625 40.9375 10.546875
Q 45.796875 14.203125 45.796875 21.1875
Q 45.796875 27.640625 41.28125 31.265625
Q 36.765625 34.90625 28.71875 34.90625
L 20.21875 34.90625
L 20.21875 43.015625
L 29.109375 43.015625
Q 36.375 43.015625 40.234375 45.921875
Q 44.09375 48.828125 44.09375 54.296875
Q 44.09375 59.90625 40.109375 62.90625
Q 36.140625 65.921875 28.71875 65.921875
Q 24.65625 65.921875 20.015625 65.03125
Q 15.375 64.15625 9.8125 62.3125
L 9.8125 71.09375
Q 15.4375 72.65625 20.34375 73.4375
Q 25.25 74.21875 29.59375 74.21875
Q 40.828125 74.21875 47.359375 69.109375
Q 53.90625 64.015625 53.90625 55.328125
Q 53.90625 49.265625 50.4375 45.09375
Q 46.96875 40.921875 40.578125 39.3125
z
" id="DejaVuSans-51"/>
      </defs>
      <g transform="translate(368.289549 247.156563)scale(0.1 -0.1)">
       <use xlink:href="#DejaVuSans-51"/>
      </g>
     </g>
    </g>
    <g id="xtick_7">
     <g id="line2d_7">
      <g>
       <use style="stroke:#000000;stroke-width:0.8;" x="413.849959" xlink:href="#m2a616a9e06" y="232.558125"/>
      </g>
     </g>
     <g id="text_7">
      <!-- 4 -->
      <defs>
       <path d="M 37.796875 64.3125
L 12.890625 25.390625
L 37.796875 25.390625
z
M 35.203125 72.90625
L 47.609375 72.90625
L 47.609375 25.390625
L 58.015625 25.390625
L 58.015625 17.1875
L 47.609375 17.1875
L 47.609375 0
L 37.796875 0
L 37.796875 17.1875
L 4.890625 17.1875
L 4.890625 26.703125
z
" id="DejaVuSans-52"/>
      </defs>
      <g transform="translate(410.668709 247.156563)scale(0.1 -0.1)">
       <use xlink:href="#DejaVuSans-52"/>
      </g>
     </g>
    </g>
    <g id="xtick_8">
     <g id="line2d_8">
      <g>
       <use style="stroke:#000000;stroke-width:0.8;" x="456.229119" xlink:href="#m2a616a9e06" y="232.558125"/>
      </g>
     </g>
     <g id="text_8">
      <!-- 5 -->
      <defs>
       <path d="M 10.796875 72.90625
L 49.515625 72.90625
L 49.515625 64.59375
L 19.828125 64.59375
L 19.828125 46.734375
Q 21.96875 47.46875 24.109375 47.828125
Q 26.265625 48.1875 28.421875 48.1875
Q 40.625 48.1875 47.75 41.5
Q 54.890625 34.8125 54.890625 23.390625
Q 54.890625 11.625 47.5625 5.09375
Q 40.234375 -1.421875 26.90625 -1.421875
Q 22.3125 -1.421875 17.546875 -0.640625
Q 12.796875 0.140625 7.71875 1.703125
L 7.71875 11.625
Q 12.109375 9.234375 16.796875 8.0625
Q 21.484375 6.890625 26.703125 6.890625
Q 35.15625 6.890625 40.078125 11.328125
Q 45.015625 15.765625 45.015625 23.390625
Q 45.015625 31 40.078125 35.4375
Q 35.15625 39.890625 26.703125 39.890625
Q 22.75 39.890625 18.8125 39.015625
Q 14.890625 38.140625 10.796875 36.28125
z
" id="DejaVuSans-53"/>
      </defs>
      <g transform="translate(453.047869 247.156563)scale(0.1 -0.1)">
       <use xlink:href="#DejaVuSans-53"/>
      </g>
     </g>
    </g>
    <g id="text_9">
     <!-- log10(average expression) -->
     <defs>
      <path d="M 9.421875 75.984375
L 18.40625 75.984375
L 18.40625 0
L 9.421875 0
z
" id="DejaVuSans-108"/>
      <path d="M 30.609375 48.390625
Q 23.390625 48.390625 19.1875 42.75
Q 14.984375 37.109375 14.984375 27.296875
Q 14.984375 17.484375 19.15625 11.84375
Q 23.34375 6.203125 30.609375 6.203125
Q 37.796875 6.203125 41.984375 11.859375
Q 46.1875 17.53125 46.1875 27.296875
Q 46.1875 37.015625 41.984375 42.703125
Q 37.796875 48.390625 30.609375 48.390625
z
M 30.609375 56
Q 42.328125 56 49.015625 48.375
Q 55.71875 40.765625 55.71875 27.296875
Q 55.71875 13.875 49.015625 6.21875
Q 42.328125 -1.421875 30.609375 -1.421875
Q 18.84375 -1.421875 12.171875 6.21875
Q 5.515625 13.875 5.515625 27.296875
Q 5.515625 40.765625 12.171875 48.375
Q 18.84375 56 30.609375 56
z
" id="DejaVuSans-111"/>
      <path d="M 45.40625 27.984375
Q 45.40625 37.75 41.375 43.109375
Q 37.359375 48.484375 30.078125 48.484375
Q 22.859375 48.484375 18.828125 43.109375
Q 14.796875 37.75 14.796875 27.984375
Q 14.796875 18.265625 18.828125 12.890625
Q 22.859375 7.515625 30.078125 7.515625
Q 37.359375 7.515625 41.375 12.890625
Q 45.40625 18.265625 45.40625 27.984375
z
M 54.390625 6.78125
Q 54.390625 -7.171875 48.1875 -13.984375
Q 42 -20.796875 29.203125 -20.796875
Q 24.46875 -20.796875 20.265625 -20.09375
Q 16.0625 -19.390625 12.109375 -17.921875
L 12.109375 -9.1875
Q 16.0625 -11.328125 19.921875 -12.34375
Q 23.78125 -13.375 27.78125 -13.375
Q 36.625 -13.375 41.015625 -8.765625
Q 45.40625 -4.15625 45.40625 5.171875
L 45.40625 9.625
Q 42.625 4.78125 38.28125 2.390625
Q 33.9375 0 27.875 0
Q 17.828125 0 11.671875 7.65625
Q 5.515625 15.328125 5.515625 27.984375
Q 5.515625 40.671875 11.671875 48.328125
Q 17.828125 56 27.875 56
Q 33.9375 56 38.28125 53.609375
Q 42.625 51.21875 45.40625 46.390625
L 45.40625 54.6875
L 54.390625 54.6875
z
" id="DejaVuSans-103"/>
      <path d="M 31 75.875
Q 24.46875 64.65625 21.28125 53.65625
Q 18.109375 42.671875 18.109375 31.390625
Q 18.109375 20.125 21.3125 9.0625
Q 24.515625 -2 31 -13.1875
L 23.1875 -13.1875
Q 15.875 -1.703125 12.234375 9.375
Q 8.59375 20.453125 8.59375 31.390625
Q 8.59375 42.28125 12.203125 53.3125
Q 15.828125 64.359375 23.1875 75.875
z
" id="DejaVuSans-40"/>
      <path d="M 34.28125 27.484375
Q 23.390625 27.484375 19.1875 25
Q 14.984375 22.515625 14.984375 16.5
Q 14.984375 11.71875 18.140625 8.90625
Q 21.296875 6.109375 26.703125 6.109375
Q 34.1875 6.109375 38.703125 11.40625
Q 43.21875 16.703125 43.21875 25.484375
L 43.21875 27.484375
z
M 52.203125 31.203125
L 52.203125 0
L 43.21875 0
L 43.21875 8.296875
Q 40.140625 3.328125 35.546875 0.953125
Q 30.953125 -1.421875 24.3125 -1.421875
Q 15.921875 -1.421875 10.953125 3.296875
Q 6 8.015625 6 15.921875
Q 6 25.140625 12.171875 29.828125
Q 18.359375 34.515625 30.609375 34.515625
L 43.21875 34.515625
L 43.21875 35.40625
Q 43.21875 41.609375 39.140625 45
Q 35.0625 48.390625 27.6875 48.390625
Q 23 48.390625 18.546875 47.265625
Q 14.109375 46.140625 10.015625 43.890625
L 10.015625 52.203125
Q 14.9375 54.109375 19.578125 55.046875
Q 24.21875 56 28.609375 56
Q 40.484375 56 46.34375 49.84375
Q 52.203125 43.703125 52.203125 31.203125
z
" id="DejaVuSans-97"/>
      <path d="M 2.984375 54.6875
L 12.5 54.6875
L 29.59375 8.796875
L 46.6875 54.6875
L 56.203125 54.6875
L 35.6875 0
L 23.484375 0
z
" id="DejaVuSans-118"/>
      <path d="M 56.203125 29.59375
L 56.203125 25.203125
L 14.890625 25.203125
Q 15.484375 15.921875 20.484375 11.0625
Q 25.484375 6.203125 34.421875 6.203125
Q 39.59375 6.203125 44.453125 7.46875
Q 49.3125 8.734375 54.109375 11.28125
L 54.109375 2.78125
Q 49.265625 0.734375 44.1875 -0.34375
Q 39.109375 -1.421875 33.890625 -1.421875
Q 20.796875 -1.421875 13.15625 6.1875
Q 5.515625 13.8125 5.515625 26.8125
Q 5.515625 40.234375 12.765625 48.109375
Q 20.015625 56 32.328125 56
Q 43.359375 56 49.78125 48.890625
Q 56.203125 41.796875 56.203125 29.59375
z
M 47.21875 32.234375
Q 47.125 39.59375 43.09375 43.984375
Q 39.0625 48.390625 32.421875 48.390625
Q 24.90625 48.390625 20.390625 44.140625
Q 15.875 39.890625 15.1875 32.171875
z
" id="DejaVuSans-101"/>
      <path d="M 41.109375 46.296875
Q 39.59375 47.171875 37.8125 47.578125
Q 36.03125 48 33.890625 48
Q 26.265625 48 22.1875 43.046875
Q 18.109375 38.09375 18.109375 28.8125
L 18.109375 0
L 9.078125 0
L 9.078125 54.6875
L 18.109375 54.6875
L 18.109375 46.1875
Q 20.953125 51.171875 25.484375 53.578125
Q 30.03125 56 36.53125 56
Q 37.453125 56 38.578125 55.875
Q 39.703125 55.765625 41.0625 55.515625
z
" id="DejaVuSans-114"/>
      <path id="DejaVuSans-32"/>
      <path d="M 54.890625 54.6875
L 35.109375 28.078125
L 55.90625 0
L 45.3125 0
L 29.390625 21.484375
L 13.484375 0
L 2.875 0
L 24.125 28.609375
L 4.6875 54.6875
L 15.28125 54.6875
L 29.78125 35.203125
L 44.28125 54.6875
z
" id="DejaVuSans-120"/>
      <path d="M 18.109375 8.203125
L 18.109375 -20.796875
L 9.078125 -20.796875
L 9.078125 54.6875
L 18.109375 54.6875
L 18.109375 46.390625
Q 20.953125 51.265625 25.265625 53.625
Q 29.59375 56 35.59375 56
Q 45.5625 56 51.78125 48.09375
Q 58.015625 40.1875 58.015625 27.296875
Q 58.015625 14.40625 51.78125 6.484375
Q 45.5625 -1.421875 35.59375 -1.421875
Q 29.59375 -1.421875 25.265625 0.953125
Q 20.953125 3.328125 18.109375 8.203125
z
M 48.6875 27.296875
Q 48.6875 37.203125 44.609375 42.84375
Q 40.53125 48.484375 33.40625 48.484375
Q 26.265625 48.484375 22.1875 42.84375
Q 18.109375 37.203125 18.109375 27.296875
Q 18.109375 17.390625 22.1875 11.75
Q 26.265625 6.109375 33.40625 6.109375
Q 40.53125 6.109375 44.609375 11.75
Q 48.6875 17.390625 48.6875 27.296875
z
" id="DejaVuSans-112"/>
      <path d="M 44.28125 53.078125
L 44.28125 44.578125
Q 40.484375 46.53125 36.375 47.5
Q 32.28125 48.484375 27.875 48.484375
Q 21.1875 48.484375 17.84375 46.4375
Q 14.5 44.390625 14.5 40.28125
Q 14.5 37.15625 16.890625 35.375
Q 19.28125 33.59375 26.515625 31.984375
L 29.59375 31.296875
Q 39.15625 29.25 43.1875 25.515625
Q 47.21875 21.78125 47.21875 15.09375
Q 47.21875 7.46875 41.1875 3.015625
Q 35.15625 -1.421875 24.609375 -1.421875
Q 20.21875 -1.421875 15.453125 -0.5625
Q 10.6875 0.296875 5.421875 2
L 5.421875 11.28125
Q 10.40625 8.6875 15.234375 7.390625
Q 20.0625 6.109375 24.8125 6.109375
Q 31.15625 6.109375 34.5625 8.28125
Q 37.984375 10.453125 37.984375 14.40625
Q 37.984375 18.0625 35.515625 20.015625
Q 33.0625 21.96875 24.703125 23.78125
L 21.578125 24.515625
Q 13.234375 26.265625 9.515625 29.90625
Q 5.8125 33.546875 5.8125 39.890625
Q 5.8125 47.609375 11.28125 51.796875
Q 16.75 56 26.8125 56
Q 31.78125 56 36.171875 55.265625
Q 40.578125 54.546875 44.28125 53.078125
z
" id="DejaVuSans-115"/>
      <path d="M 9.421875 54.6875
L 18.40625 54.6875
L 18.40625 0
L 9.421875 0
z
M 9.421875 75.984375
L 18.40625 75.984375
L 18.40625 64.59375
L 9.421875 64.59375
z
" id="DejaVuSans-105"/>
      <path d="M 54.890625 33.015625
L 54.890625 0
L 45.90625 0
L 45.90625 32.71875
Q 45.90625 40.484375 42.875 44.328125
Q 39.84375 48.1875 33.796875 48.1875
Q 26.515625 48.1875 22.3125 43.546875
Q 18.109375 38.921875 18.109375 30.90625
L 18.109375 0
L 9.078125 0
L 9.078125 54.6875
L 18.109375 54.6875
L 18.109375 46.1875
Q 21.34375 51.125 25.703125 53.5625
Q 30.078125 56 35.796875 56
Q 45.21875 56 50.046875 50.171875
Q 54.890625 44.34375 54.890625 33.015625
z
" id="DejaVuSans-110"/>
      <path d="M 8.015625 75.875
L 15.828125 75.875
Q 23.140625 64.359375 26.78125 53.3125
Q 30.421875 42.28125 30.421875 31.390625
Q 30.421875 20.453125 26.78125 9.375
Q 23.140625 -1.703125 15.828125 -13.1875
L 8.015625 -13.1875
Q 14.5 -2 17.703125 9.0625
Q 20.90625 20.125 20.90625 31.390625
Q 20.90625 42.671875 17.703125 53.65625
Q 14.5 64.65625 8.015625 75.875
z
" id="DejaVuSans-41"/>
     </defs>
     <g transform="translate(256.860937 260.834688)scale(0.1 -0.1)">
      <use xlink:href="#DejaVuSans-108"/>
      <use x="27.783203" xlink:href="#DejaVuSans-111"/>
      <use x="88.964844" xlink:href="#DejaVuSans-103"/>
      <use x="152.441406" xlink:href="#DejaVuSans-49"/>
      <use x="216.064453" xlink:href="#DejaVuSans-48"/>
      <use x="279.6875" xlink:href="#DejaVuSans-40"/>
      <use x="318.701172" xlink:href="#DejaVuSans-97"/>
      <use x="379.980469" xlink:href="#DejaVuSans-118"/>
      <use x="439.160156" xlink:href="#DejaVuSans-101"/>
      <use x="500.683594" xlink:href="#DejaVuSans-114"/>
      <use x="541.796875" xlink:href="#DejaVuSans-97"/>
      <use x="603.076172" xlink:href="#DejaVuSans-103"/>
      <use x="666.552734" xlink:href="#DejaVuSans-101"/>
      <use x="728.076172" xlink:href="#DejaVuSans-32"/>
      <use x="759.863281" xlink:href="#DejaVuSans-101"/>
      <use x="821.371094" xlink:href="#DejaVuSans-120"/>
      <use x="880.550781" xlink:href="#DejaVuSans-112"/>
      <use x="944.027344" xlink:href="#DejaVuSans-114"/>
      <use x="985.109375" xlink:href="#DejaVuSans-101"/>
      <use x="1046.632812" xlink:href="#DejaVuSans-115"/>
      <use x="1098.732422" xlink:href="#DejaVuSans-115"/>
      <use x="1150.832031" xlink:href="#DejaVuSans-105"/>
      <use x="1178.615234" xlink:href="#DejaVuSans-111"/>
      <use x="1239.796875" xlink:href="#DejaVuSans-110"/>
      <use x="1303.175781" xlink:href="#DejaVuSans-41"/>
     </g>
    </g>
   </g>
   <g id="matplotlib.axis_2">
    <g id="ytick_1">
     <g id="line2d_9">
      <defs>
       <path d="M 0 0
L -3.5 0
" id="m320a32aaa4" style="stroke:#000000;stroke-width:0.8;"/>
      </defs>
      <g>
       <use style="stroke:#000000;stroke-width:0.8;" x="156.573438" xlink:href="#m320a32aaa4" y="51.358125"/>
      </g>
     </g>
     <g id="text_10">
      <!-- all genes -->
      <g transform="translate(104.509375 55.157344)scale(0.1 -0.1)">
       <use xlink:href="#DejaVuSans-97"/>
       <use x="61.279297" xlink:href="#DejaVuSans-108"/>
       <use x="89.0625" xlink:href="#DejaVuSans-108"/>
       <use x="116.845703" xlink:href="#DejaVuSans-32"/>
       <use x="148.632812" xlink:href="#DejaVuSans-103"/>
       <use x="212.109375" xlink:href="#DejaVuSans-101"/>
       <use x="273.632812" xlink:href="#DejaVuSans-110"/>
       <use x="337.011719" xlink:href="#DejaVuSans-101"/>
       <use x="398.535156" xlink:href="#DejaVuSans-115"/>
      </g>
     </g>
    </g>
    <g id="ytick_2">
     <g id="line2d_10">
      <g>
       <use style="stroke:#000000;stroke-width:0.8;" x="156.573438" xlink:href="#m320a32aaa4" y="123.838125"/>
      </g>
     </g>
     <g id="text_11">
      <!-- common in RNAseq and array -->
      <defs>
       <path d="M 48.78125 52.59375
L 48.78125 44.1875
Q 44.96875 46.296875 41.140625 47.34375
Q 37.3125 48.390625 33.40625 48.390625
Q 24.65625 48.390625 19.8125 42.84375
Q 14.984375 37.3125 14.984375 27.296875
Q 14.984375 17.28125 19.8125 11.734375
Q 24.65625 6.203125 33.40625 6.203125
Q 37.3125 6.203125 41.140625 7.25
Q 44.96875 8.296875 48.78125 10.40625
L 48.78125 2.09375
Q 45.015625 0.34375 40.984375 -0.53125
Q 36.96875 -1.421875 32.421875 -1.421875
Q 20.0625 -1.421875 12.78125 6.34375
Q 5.515625 14.109375 5.515625 27.296875
Q 5.515625 40.671875 12.859375 48.328125
Q 20.21875 56 33.015625 56
Q 37.15625 56 41.109375 55.140625
Q 45.0625 54.296875 48.78125 52.59375
z
" id="DejaVuSans-99"/>
       <path d="M 52 44.1875
Q 55.375 50.25 60.0625 53.125
Q 64.75 56 71.09375 56
Q 79.640625 56 84.28125 50.015625
Q 88.921875 44.046875 88.921875 33.015625
L 88.921875 0
L 79.890625 0
L 79.890625 32.71875
Q 79.890625 40.578125 77.09375 44.375
Q 74.3125 48.1875 68.609375 48.1875
Q 61.625 48.1875 57.5625 43.546875
Q 53.515625 38.921875 53.515625 30.90625
L 53.515625 0
L 44.484375 0
L 44.484375 32.71875
Q 44.484375 40.625 41.703125 44.40625
Q 38.921875 48.1875 33.109375 48.1875
Q 26.21875 48.1875 22.15625 43.53125
Q 18.109375 38.875 18.109375 30.90625
L 18.109375 0
L 9.078125 0
L 9.078125 54.6875
L 18.109375 54.6875
L 18.109375 46.1875
Q 21.1875 51.21875 25.484375 53.609375
Q 29.78125 56 35.6875 56
Q 41.65625 56 45.828125 52.96875
Q 50 49.953125 52 44.1875
z
" id="DejaVuSans-109"/>
       <path d="M 44.390625 34.1875
Q 47.5625 33.109375 50.5625 29.59375
Q 53.5625 26.078125 56.59375 19.921875
L 66.609375 0
L 56 0
L 46.6875 18.703125
Q 43.0625 26.03125 39.671875 28.421875
Q 36.28125 30.8125 30.421875 30.8125
L 19.671875 30.8125
L 19.671875 0
L 9.8125 0
L 9.8125 72.90625
L 32.078125 72.90625
Q 44.578125 72.90625 50.734375 67.671875
Q 56.890625 62.453125 56.890625 51.90625
Q 56.890625 45.015625 53.6875 40.46875
Q 50.484375 35.9375 44.390625 34.1875
z
M 19.671875 64.796875
L 19.671875 38.921875
L 32.078125 38.921875
Q 39.203125 38.921875 42.84375 42.21875
Q 46.484375 45.515625 46.484375 51.90625
Q 46.484375 58.296875 42.84375 61.546875
Q 39.203125 64.796875 32.078125 64.796875
z
" id="DejaVuSans-82"/>
       <path d="M 9.8125 72.90625
L 23.09375 72.90625
L 55.421875 11.921875
L 55.421875 72.90625
L 64.984375 72.90625
L 64.984375 0
L 51.703125 0
L 19.390625 60.984375
L 19.390625 0
L 9.8125 0
z
" id="DejaVuSans-78"/>
       <path d="M 34.1875 63.1875
L 20.796875 26.90625
L 47.609375 26.90625
z
M 28.609375 72.90625
L 39.796875 72.90625
L 67.578125 0
L 57.328125 0
L 50.6875 18.703125
L 17.828125 18.703125
L 11.1875 0
L 0.78125 0
z
" id="DejaVuSans-65"/>
       <path d="M 14.796875 27.296875
Q 14.796875 17.390625 18.875 11.75
Q 22.953125 6.109375 30.078125 6.109375
Q 37.203125 6.109375 41.296875 11.75
Q 45.40625 17.390625 45.40625 27.296875
Q 45.40625 37.203125 41.296875 42.84375
Q 37.203125 48.484375 30.078125 48.484375
Q 22.953125 48.484375 18.875 42.84375
Q 14.796875 37.203125 14.796875 27.296875
z
M 45.40625 8.203125
Q 42.578125 3.328125 38.25 0.953125
Q 33.9375 -1.421875 27.875 -1.421875
Q 17.96875 -1.421875 11.734375 6.484375
Q 5.515625 14.40625 5.515625 27.296875
Q 5.515625 40.1875 11.734375 48.09375
Q 17.96875 56 27.875 56
Q 33.9375 56 38.25 53.625
Q 42.578125 51.265625 45.40625 46.390625
L 45.40625 54.6875
L 54.390625 54.6875
L 54.390625 -20.796875
L 45.40625 -20.796875
z
" id="DejaVuSans-113"/>
       <path d="M 45.40625 46.390625
L 45.40625 75.984375
L 54.390625 75.984375
L 54.390625 0
L 45.40625 0
L 45.40625 8.203125
Q 42.578125 3.328125 38.25 0.953125
Q 33.9375 -1.421875 27.875 -1.421875
Q 17.96875 -1.421875 11.734375 6.484375
Q 5.515625 14.40625 5.515625 27.296875
Q 5.515625 40.1875 11.734375 48.09375
Q 17.96875 56 27.875 56
Q 33.9375 56 38.25 53.625
Q 42.578125 51.265625 45.40625 46.390625
z
M 14.796875 27.296875
Q 14.796875 17.390625 18.875 11.75
Q 22.953125 6.109375 30.078125 6.109375
Q 37.203125 6.109375 41.296875 11.75
Q 45.40625 17.390625 45.40625 27.296875
Q 45.40625 37.203125 41.296875 42.84375
Q 37.203125 48.484375 30.078125 48.484375
Q 22.953125 48.484375 18.875 42.84375
Q 14.796875 37.203125 14.796875 27.296875
z
" id="DejaVuSans-100"/>
       <path d="M 32.171875 -5.078125
Q 28.375 -14.84375 24.75 -17.8125
Q 21.140625 -20.796875 15.09375 -20.796875
L 7.90625 -20.796875
L 7.90625 -13.28125
L 13.1875 -13.28125
Q 16.890625 -13.28125 18.9375 -11.515625
Q 21 -9.765625 23.484375 -3.21875
L 25.09375 0.875
L 2.984375 54.6875
L 12.5 54.6875
L 29.59375 11.921875
L 46.6875 54.6875
L 56.203125 54.6875
z
" id="DejaVuSans-121"/>
      </defs>
      <g transform="translate(0 127.637344)scale(0.1 -0.1)">
       <use xlink:href="#DejaVuSans-99"/>
       <use x="54.980469" xlink:href="#DejaVuSans-111"/>
       <use x="116.162109" xlink:href="#DejaVuSans-109"/>
       <use x="213.574219" xlink:href="#DejaVuSans-109"/>
       <use x="310.986328" xlink:href="#DejaVuSans-111"/>
       <use x="372.167969" xlink:href="#DejaVuSans-110"/>
       <use x="435.546875" xlink:href="#DejaVuSans-32"/>
       <use x="467.333984" xlink:href="#DejaVuSans-105"/>
       <use x="495.117188" xlink:href="#DejaVuSans-110"/>
       <use x="558.496094" xlink:href="#DejaVuSans-32"/>
       <use x="590.283203" xlink:href="#DejaVuSans-82"/>
       <use x="659.765625" xlink:href="#DejaVuSans-78"/>
       <use x="734.570312" xlink:href="#DejaVuSans-65"/>
       <use x="802.978516" xlink:href="#DejaVuSans-115"/>
       <use x="855.078125" xlink:href="#DejaVuSans-101"/>
       <use x="916.601562" xlink:href="#DejaVuSans-113"/>
       <use x="980.078125" xlink:href="#DejaVuSans-32"/>
       <use x="1011.865234" xlink:href="#DejaVuSans-97"/>
       <use x="1073.144531" xlink:href="#DejaVuSans-110"/>
       <use x="1136.523438" xlink:href="#DejaVuSans-100"/>
       <use x="1200" xlink:href="#DejaVuSans-32"/>
       <use x="1231.787109" xlink:href="#DejaVuSans-97"/>
       <use x="1293.066406" xlink:href="#DejaVuSans-114"/>
       <use x="1334.164062" xlink:href="#DejaVuSans-114"/>
       <use x="1375.277344" xlink:href="#DejaVuSans-97"/>
       <use x="1436.556641" xlink:href="#DejaVuSans-121"/>
      </g>
     </g>
    </g>
    <g id="ytick_3">
     <g id="line2d_11">
      <g>
       <use style="stroke:#000000;stroke-width:0.8;" x="156.573438" xlink:href="#m320a32aaa4" y="196.318125"/>
      </g>
     </g>
     <g id="text_12">
      <!-- common in only RNAseq -->
      <g transform="translate(27.234375 200.117344)scale(0.1 -0.1)">
       <use xlink:href="#DejaVuSans-99"/>
       <use x="54.980469" xlink:href="#DejaVuSans-111"/>
       <use x="116.162109" xlink:href="#DejaVuSans-109"/>
       <use x="213.574219" xlink:href="#DejaVuSans-109"/>
       <use x="310.986328" xlink:href="#DejaVuSans-111"/>
       <use x="372.167969" xlink:href="#DejaVuSans-110"/>
       <use x="435.546875" xlink:href="#DejaVuSans-32"/>
       <use x="467.333984" xlink:href="#DejaVuSans-105"/>
       <use x="495.117188" xlink:href="#DejaVuSans-110"/>
       <use x="558.496094" xlink:href="#DejaVuSans-32"/>
       <use x="590.283203" xlink:href="#DejaVuSans-111"/>
       <use x="651.464844" xlink:href="#DejaVuSans-110"/>
       <use x="714.84375" xlink:href="#DejaVuSans-108"/>
       <use x="742.626953" xlink:href="#DejaVuSans-121"/>
       <use x="801.806641" xlink:href="#DejaVuSans-32"/>
       <use x="833.59375" xlink:href="#DejaVuSans-82"/>
       <use x="903.076172" xlink:href="#DejaVuSans-78"/>
       <use x="977.880859" xlink:href="#DejaVuSans-65"/>
       <use x="1046.289062" xlink:href="#DejaVuSans-115"/>
       <use x="1098.388672" xlink:href="#DejaVuSans-101"/>
       <use x="1159.912109" xlink:href="#DejaVuSans-113"/>
      </g>
     </g>
    </g>
   </g>
   <g id="line2d_12">
    <path clip-path="url(#p5d6e09729b)" d="M 270.49621 51.358125
L 440.152837 51.358125
" style="fill:none;stroke:#444444;stroke-linecap:square;stroke-width:1.5;"/>
   </g>
   <g id="line2d_13">
    <path clip-path="url(#p5d6e09729b)" d="M 334.188256 51.358125
L 376.673901 51.358125
" style="fill:none;stroke:#444444;stroke-linecap:square;stroke-width:4.5;"/>
   </g>
   <g id="line2d_14">
    <path clip-path="url(#p5d6e09729b)" d="M 291.109413 123.838125
L 412.324333 123.838125
" style="fill:none;stroke:#444444;stroke-linecap:square;stroke-width:1.5;"/>
   </g>
   <g id="line2d_15">
    <path clip-path="url(#p5d6e09729b)" d="M 337.243993 123.838125
L 369.408752 123.838125
" style="fill:none;stroke:#444444;stroke-linecap:square;stroke-width:4.5;"/>
   </g>
   <g id="line2d_16">
    <path clip-path="url(#p5d6e09729b)" d="M 213.496891 196.318125
L 375.638199 196.318125
" style="fill:none;stroke:#444444;stroke-linecap:square;stroke-width:1.5;"/>
   </g>
   <g id="line2d_17">
    <path clip-path="url(#p5d6e09729b)" d="M 261.290967 196.318125
L 307.17635 196.318125
" style="fill:none;stroke:#444444;stroke-linecap:square;stroke-width:4.5;"/>
   </g>
   <g id="patch_3">
    <path d="M 156.573438 232.558125
L 156.573438 15.118125
" style="fill:none;stroke:#000000;stroke-linecap:square;stroke-linejoin:miter;stroke-width:0.8;"/>
   </g>
   <g id="patch_4">
    <path d="M 491.373437 232.558125
L 491.373437 15.118125
" style="fill:none;stroke:#000000;stroke-linecap:square;stroke-linejoin:miter;stroke-width:0.8;"/>
   </g>
   <g id="patch_5">
    <path d="M 156.573438 232.558125
L 491.373437 232.558125
" style="fill:none;stroke:#000000;stroke-linecap:square;stroke-linejoin:miter;stroke-width:0.8;"/>
   </g>
   <g id="patch_6">
    <path d="M 156.573438 15.118125
L 491.373437 15.118125
" style="fill:none;stroke:#000000;stroke-linecap:square;stroke-linejoin:miter;stroke-width:0.8;"/>
   </g>
   <g id="PathCollection_1">
    <defs>
     <path d="M 0 1.5
C 0.397805 1.5 0.77937 1.341951 1.06066 1.06066
C 1.341951 0.77937 1.5 0.397805 1.5 0
C 1.5 -0.397805 1.341951 -0.77937 1.06066 -1.06066
C 0.77937 -1.341951 0.397805 -1.5 0 -1.5
C -0.397805 -1.5 -0.77937 -1.341951 -1.06066 -1.06066
C -1.341951 -0.77937 -1.5 -0.397805 -1.5 0
C -1.5 0.397805 -1.341951 0.77937 -1.06066 1.06066
C -0.77937 1.341951 -0.397805 1.5 0 1.5
z
" id="m66212acf81" style="stroke:#444444;"/>
    </defs>
    <g clip-path="url(#p5d6e09729b)">
     <use style="fill:#ffffff;stroke:#444444;" x="360.489173" xlink:href="#m66212acf81" y="51.358125"/>
    </g>
   </g>
   <g id="PathCollection_2">
    <g clip-path="url(#p5d6e09729b)">
     <use style="fill:#ffffff;stroke:#444444;" x="352.762997" xlink:href="#m66212acf81" y="123.838125"/>
    </g>
   </g>
   <g id="PathCollection_3">
    <g clip-path="url(#p5d6e09729b)">
     <use style="fill:#ffffff;stroke:#444444;" x="281.735516" xlink:href="#m66212acf81" y="196.318125"/>
    </g>
   </g>
   <g id="text_13">
    <!-- Average recount2 expression -->
    <defs>
     <path d="M 8.5 21.578125
L 8.5 54.6875
L 17.484375 54.6875
L 17.484375 21.921875
Q 17.484375 14.15625 20.5 10.265625
Q 23.53125 6.390625 29.59375 6.390625
Q 36.859375 6.390625 41.078125 11.03125
Q 45.3125 15.671875 45.3125 23.6875
L 45.3125 54.6875
L 54.296875 54.6875
L 54.296875 0
L 45.3125 0
L 45.3125 8.40625
Q 42.046875 3.421875 37.71875 1
Q 33.40625 -1.421875 27.6875 -1.421875
Q 18.265625 -1.421875 13.375 4.4375
Q 8.5 10.296875 8.5 21.578125
z
M 31.109375 56
z
" id="DejaVuSans-117"/>
     <path d="M 18.3125 70.21875
L 18.3125 54.6875
L 36.8125 54.6875
L 36.8125 47.703125
L 18.3125 47.703125
L 18.3125 18.015625
Q 18.3125 11.328125 20.140625 9.421875
Q 21.96875 7.515625 27.59375 7.515625
L 36.8125 7.515625
L 36.8125 0
L 27.59375 0
Q 17.1875 0 13.234375 3.875
Q 9.28125 7.765625 9.28125 18.015625
L 9.28125 47.703125
L 2.6875 47.703125
L 2.6875 54.6875
L 9.28125 54.6875
L 9.28125 70.21875
z
" id="DejaVuSans-116"/>
    </defs>
    <g transform="translate(235.67125 9.118125)scale(0.12 -0.12)">
     <use xlink:href="#DejaVuSans-65"/>
     <use x="68.330078" xlink:href="#DejaVuSans-118"/>
     <use x="127.509766" xlink:href="#DejaVuSans-101"/>
     <use x="189.033203" xlink:href="#DejaVuSans-114"/>
     <use x="230.146484" xlink:href="#DejaVuSans-97"/>
     <use x="291.425781" xlink:href="#DejaVuSans-103"/>
     <use x="354.902344" xlink:href="#DejaVuSans-101"/>
     <use x="416.425781" xlink:href="#DejaVuSans-32"/>
     <use x="448.212891" xlink:href="#DejaVuSans-114"/>
     <use x="489.294922" xlink:href="#DejaVuSans-101"/>
     <use x="550.818359" xlink:href="#DejaVuSans-99"/>
     <use x="605.798828" xlink:href="#DejaVuSans-111"/>
     <use x="666.980469" xlink:href="#DejaVuSans-117"/>
     <use x="730.359375" xlink:href="#DejaVuSans-110"/>
     <use x="793.738281" xlink:href="#DejaVuSans-116"/>
     <use x="832.947266" xlink:href="#DejaVuSans-50"/>
     <use x="896.570312" xlink:href="#DejaVuSans-32"/>
     <use x="928.357422" xlink:href="#DejaVuSans-101"/>
     <use x="989.865234" xlink:href="#DejaVuSans-120"/>
     <use x="1049.044922" xlink:href="#DejaVuSans-112"/>
     <use x="1112.521484" xlink:href="#DejaVuSans-114"/>
     <use x="1153.603516" xlink:href="#DejaVuSans-101"/>
     <use x="1215.126953" xlink:href="#DejaVuSans-115"/>
     <use x="1267.226562" xlink:href="#DejaVuSans-115"/>
     <use x="1319.326172" xlink:href="#DejaVuSans-105"/>
     <use x="1347.109375" xlink:href="#DejaVuSans-111"/>
     <use x="1408.291016" xlink:href="#DejaVuSans-110"/>
    </g>
   </g>
  </g>
 </g>
 <defs>
  <clipPath id="p5d6e09729b">
   <rect height="217.44" width="334.8" x="156.573438" y="15.118125"/>
  </clipPath>
 </defs>
</svg>
