<?xml version="1.0" encoding="utf-8" standalone="no"?>
<!DOCTYPE svg PUBLIC "-//W3C//DTD SVG 1.1//EN"
  "http://www.w3.org/Graphics/SVG/1.1/DTD/svg11.dtd">
<!-- Created with matplotlib (https://matplotlib.org/) -->
<svg height="262.914375pt" version="1.1" viewBox="0 0 476.404687 262.914375" width="476.404687pt" xmlns="http://www.w3.org/2000/svg" xmlns:xlink="http://www.w3.org/1999/xlink">
 <defs>
  <style type="text/css">
*{stroke-linecap:butt;stroke-linejoin:round;}
  </style>
 </defs>
 <g id="figure_1">
  <g id="patch_1">
   <path d="M 0 262.914375
L 476.404687 262.914375
L 476.404687 0
L 0 0
z
" style="fill:none;"/>
  </g>
  <g id="axes_1">
   <g id="patch_2">
    <path d="M 138.104687 232.558125
L 472.904687 232.558125
L 472.904687 15.118125
L 138.104687 15.118125
z
" style="fill:none;"/>
   </g>
   <g id="PolyCollection_1">
    <defs>
     <path d="M 160.679559 -211.555163
L 160.679559 -211.557337
L 163.679629 -211.559311
L 166.679699 -211.56261
L 169.67977 -211.56668
L 172.67984 -211.571349
L 175.67991 -211.577206
L 178.67998 -211.583157
L 181.68005 -211.585806
L 184.68012 -211.584303
L 187.680191 -211.584509
L 190.680261 -211.59606
L 193.680331 -211.625054
L 196.680401 -211.670819
L 199.680471 -211.729442
L 202.680541 -211.795146
L 205.680612 -211.8594
L 208.680682 -211.921203
L 211.680752 -211.999899
L 214.680822 -212.124945
L 217.680892 -212.308672
L 220.680962 -212.533242
L 223.681033 -212.760714
L 226.681103 -212.951296
L 229.681173 -213.085154
L 232.681243 -213.18127
L 235.681313 -213.28342
L 238.681383 -213.417578
L 241.681454 -213.57793
L 244.681524 -213.751164
L 247.681594 -213.927167
L 250.681664 -214.096793
L 253.681734 -214.267073
L 256.681804 -214.4559
L 259.681875 -214.660533
L 262.681945 -214.871439
L 265.682015 -215.10541
L 268.682085 -215.378017
L 271.682155 -215.675858
L 274.682225 -215.989201
L 277.682296 -216.327168
L 280.682366 -216.695443
L 283.682436 -217.10478
L 286.682506 -217.577522
L 289.682576 -218.093165
L 292.682646 -218.564738
L 295.682717 -218.933757
L 298.682787 -219.256995
L 301.682857 -219.648735
L 304.682927 -220.175737
L 307.682997 -220.845178
L 310.683067 -221.644995
L 313.683138 -222.544253
L 316.683208 -223.49118
L 319.683278 -224.47366
L 322.683348 -225.561844
L 325.683418 -226.842824
L 328.683488 -228.325611
L 331.683559 -229.931249
L 334.683629 -231.57096
L 337.683699 -233.223574
L 340.683769 -234.896955
L 343.683839 -236.501653
L 346.683909 -237.837195
L 349.68398 -238.713487
L 352.68405 -239.008168
L 355.68412 -238.629928
L 358.68419 -237.511857
L 361.68426 -235.646144
L 364.68433 -233.113732
L 367.684401 -230.117764
L 370.684471 -226.978749
L 373.684541 -224.016557
L 376.684611 -221.414394
L 379.684681 -219.215102
L 382.684751 -217.409455
L 385.684822 -215.982983
L 388.684892 -214.900478
L 391.684962 -214.096237
L 394.685032 -213.496774
L 397.685102 -213.047754
L 400.685172 -212.715298
L 403.685243 -212.467739
L 406.685313 -212.271623
L 409.685383 -212.107877
L 412.685453 -211.976873
L 415.685523 -211.879981
L 418.685593 -211.806185
L 421.685664 -211.742993
L 424.685734 -211.690103
L 427.685804 -211.653607
L 430.685874 -211.632412
L 433.685944 -211.617781
L 436.686015 -211.603338
L 439.686085 -211.589382
L 442.686155 -211.578613
L 445.686225 -211.571672
L 448.686295 -211.566869
L 451.686365 -211.562711
L 454.686436 -211.559343
L 457.686506 -211.557344
L 457.686506 -211.555156
L 457.686506 -211.555156
L 454.686436 -211.553157
L 451.686365 -211.549789
L 448.686295 -211.545631
L 445.686225 -211.540828
L 442.686155 -211.533887
L 439.686085 -211.523118
L 436.686015 -211.509162
L 433.685944 -211.494719
L 430.685874 -211.480088
L 427.685804 -211.458893
L 424.685734 -211.422397
L 421.685664 -211.369507
L 418.685593 -211.306315
L 415.685523 -211.232519
L 412.685453 -211.135627
L 409.685383 -211.004623
L 406.685313 -210.840877
L 403.685243 -210.644761
L 400.685172 -210.397202
L 397.685102 -210.064746
L 394.685032 -209.615726
L 391.684962 -209.016263
L 388.684892 -208.212022
L 385.684822 -207.129517
L 382.684751 -205.703045
L 379.684681 -203.897398
L 376.684611 -201.698106
L 373.684541 -199.095943
L 370.684471 -196.133751
L 367.684401 -192.994736
L 364.68433 -189.998768
L 361.68426 -187.466356
L 358.68419 -185.600643
L 355.68412 -184.482572
L 352.68405 -184.104332
L 349.68398 -184.399013
L 346.683909 -185.275305
L 343.683839 -186.610847
L 340.683769 -188.215545
L 337.683699 -189.888926
L 334.683629 -191.54154
L 331.683559 -193.181251
L 328.683488 -194.786889
L 325.683418 -196.269676
L 322.683348 -197.550656
L 319.683278 -198.63884
L 316.683208 -199.62132
L 313.683138 -200.568247
L 310.683067 -201.467505
L 307.682997 -202.267322
L 304.682927 -202.936763
L 301.682857 -203.463765
L 298.682787 -203.855505
L 295.682717 -204.178743
L 292.682646 -204.547762
L 289.682576 -205.019335
L 286.682506 -205.534978
L 283.682436 -206.00772
L 280.682366 -206.417057
L 277.682296 -206.785332
L 274.682225 -207.123299
L 271.682155 -207.436642
L 268.682085 -207.734483
L 265.682015 -208.00709
L 262.681945 -208.241061
L 259.681875 -208.451967
L 256.681804 -208.6566
L 253.681734 -208.845427
L 250.681664 -209.015707
L 247.681594 -209.185333
L 244.681524 -209.361336
L 241.681454 -209.53457
L 238.681383 -209.694922
L 235.681313 -209.82908
L 232.681243 -209.93123
L 229.681173 -210.027346
L 226.681103 -210.161204
L 223.681033 -210.351786
L 220.680962 -210.579258
L 217.680892 -210.803828
L 214.680822 -210.987555
L 211.680752 -211.112601
L 208.680682 -211.191297
L 205.680612 -211.2531
L 202.680541 -211.317354
L 199.680471 -211.383058
L 196.680401 -211.441681
L 193.680331 -211.487446
L 190.680261 -211.51644
L 187.680191 -211.527991
L 184.68012 -211.528197
L 181.68005 -211.526694
L 178.67998 -211.529343
L 175.67991 -211.535294
L 172.67984 -211.541151
L 169.67977 -211.54582
L 166.679699 -211.54989
L 163.679629 -211.553189
L 160.679559 -211.555163
z
" id="m74dc94ca8b" style="stroke:#444444;stroke-width:1.5;"/>
    </defs>
    <g clip-path="url(#p7538f8a026)">
     <use style="fill:#d3d3d3;stroke:#444444;stroke-width:1.5;" x="0" xlink:href="#m74dc94ca8b" y="262.914375"/>
    </g>
   </g>
   <g id="PolyCollection_2">
    <defs>
     <path d="M 250.946104 -139.038376
L 250.946104 -139.114124
L 252.954842 -139.152546
L 254.96358 -139.216656
L 256.972318 -139.312936
L 258.981056 -139.443174
L 260.989794 -139.602297
L 262.998532 -139.779048
L 265.00727 -139.959798
L 267.016008 -140.133448
L 269.024746 -140.294398
L 271.033484 -140.442396
L 273.042222 -140.581372
L 275.05096 -140.720598
L 277.059698 -140.878717
L 279.068436 -141.086456
L 281.077174 -141.382076
L 283.085912 -141.797624
L 285.09465 -142.341593
L 287.103388 -142.989129
L 289.112126 -143.689624
L 291.120864 -144.392743
L 293.129602 -145.081889
L 295.13834 -145.796343
L 297.147078 -146.626342
L 299.155816 -147.679462
L 301.164554 -149.033746
L 303.173292 -150.701382
L 305.18203 -152.620331
L 307.190768 -154.67504
L 309.199506 -156.732554
L 311.208244 -158.676152
L 313.216982 -160.425232
L 315.225719 -161.940682
L 317.234457 -163.221282
L 319.243195 -164.295706
L 321.251933 -165.210087
L 323.260671 -166.009713
L 325.269409 -166.718186
L 327.278147 -167.323866
L 329.286885 -167.783493
L 331.295623 -168.043636
L 333.304361 -168.06825
L 335.313099 -167.855543
L 337.321837 -167.434279
L 339.330575 -166.843579
L 341.339313 -166.11071
L 343.348051 -165.241267
L 345.356789 -164.226948
L 347.365527 -163.065272
L 349.374265 -161.779546
L 351.383003 -160.427835
L 353.391741 -159.094641
L 355.400479 -157.866286
L 357.409217 -156.798854
L 359.417955 -155.893382
L 361.426693 -155.092217
L 363.435431 -154.300847
L 365.444169 -153.425191
L 367.452907 -152.405704
L 369.461645 -151.233556
L 371.470383 -149.946808
L 373.479121 -148.614365
L 375.487859 -147.315943
L 377.496597 -146.121854
L 379.505335 -145.075099
L 381.514073 -144.181334
L 383.522811 -143.412956
L 385.531549 -142.727368
L 387.540287 -142.090362
L 389.549025 -141.491878
L 391.557763 -140.946682
L 393.566501 -140.482044
L 395.575239 -140.120972
L 397.583977 -139.869701
L 399.592715 -139.714107
L 401.601453 -139.625134
L 403.610191 -139.56987
L 405.618929 -139.523019
L 407.627667 -139.473534
L 409.636405 -139.423711
L 411.645143 -139.382193
L 413.653881 -139.355567
L 415.662619 -139.343358
L 417.671357 -139.338423
L 419.680095 -139.331341
L 421.688833 -139.315548
L 423.697571 -139.29036
L 425.706309 -139.260698
L 427.715047 -139.234094
L 429.723785 -139.216699
L 431.732523 -139.210235
L 433.741261 -139.211301
L 435.749999 -139.213253
L 437.758737 -139.209573
L 439.767475 -139.196885
L 441.776213 -139.176079
L 443.784951 -139.151204
L 445.793689 -139.127122
L 447.802427 -139.107409
L 449.811165 -139.09346
L 449.811165 -139.05904
L 449.811165 -139.05904
L 447.802427 -139.045091
L 445.793689 -139.025378
L 443.784951 -139.001296
L 441.776213 -138.976421
L 439.767475 -138.955615
L 437.758737 -138.942927
L 435.749999 -138.939247
L 433.741261 -138.941199
L 431.732523 -138.942265
L 429.723785 -138.935801
L 427.715047 -138.918406
L 425.706309 -138.891802
L 423.697571 -138.86214
L 421.688833 -138.836952
L 419.680095 -138.821159
L 417.671357 -138.814077
L 415.662619 -138.809142
L 413.653881 -138.796933
L 411.645143 -138.770307
L 409.636405 -138.728789
L 407.627667 -138.678966
L 405.618929 -138.629481
L 403.610191 -138.58263
L 401.601453 -138.527366
L 399.592715 -138.438393
L 397.583977 -138.282799
L 395.575239 -138.031528
L 393.566501 -137.670456
L 391.557763 -137.205818
L 389.549025 -136.660622
L 387.540287 -136.062138
L 385.531549 -135.425132
L 383.522811 -134.739544
L 381.514073 -133.971166
L 379.505335 -133.077401
L 377.496597 -132.030646
L 375.487859 -130.836557
L 373.479121 -129.538135
L 371.470383 -128.205692
L 369.461645 -126.918944
L 367.452907 -125.746796
L 365.444169 -124.727309
L 363.435431 -123.851653
L 361.426693 -123.060283
L 359.417955 -122.259118
L 357.409217 -121.353646
L 355.400479 -120.286214
L 353.391741 -119.057859
L 351.383003 -117.724665
L 349.374265 -116.372954
L 347.365527 -115.087228
L 345.356789 -113.925552
L 343.348051 -112.911233
L 341.339313 -112.04179
L 339.330575 -111.308921
L 337.321837 -110.718221
L 335.313099 -110.296957
L 333.304361 -110.08425
L 331.295623 -110.108864
L 329.286885 -110.369007
L 327.278147 -110.828634
L 325.269409 -111.434314
L 323.260671 -112.142787
L 321.251933 -112.942413
L 319.243195 -113.856794
L 317.234457 -114.931218
L 315.225719 -116.211818
L 313.216982 -117.727268
L 311.208244 -119.476348
L 309.199506 -121.419946
L 307.190768 -123.47746
L 305.18203 -125.532169
L 303.173292 -127.451118
L 301.164554 -129.118754
L 299.155816 -130.473038
L 297.147078 -131.526158
L 295.13834 -132.356157
L 293.129602 -133.070611
L 291.120864 -133.759757
L 289.112126 -134.462876
L 287.103388 -135.163371
L 285.09465 -135.810907
L 283.085912 -136.354876
L 281.077174 -136.770424
L 279.068436 -137.066044
L 277.059698 -137.273783
L 275.05096 -137.431902
L 273.042222 -137.571128
L 271.033484 -137.710104
L 269.024746 -137.858102
L 267.016008 -138.019052
L 265.00727 -138.192702
L 262.998532 -138.373452
L 260.989794 -138.550203
L 258.981056 -138.709326
L 256.972318 -138.839564
L 254.96358 -138.935844
L 252.954842 -138.999954
L 250.946104 -139.038376
z
" id="mfa777fd469" style="stroke:#444444;stroke-width:1.5;"/>
    </defs>
    <g clip-path="url(#p7538f8a026)">
     <use style="fill:#3d7ca6;stroke:#444444;stroke-width:1.5;" x="0" xlink:href="#mfa777fd469" y="262.914375"/>
    </g>
   </g>
   <g id="PolyCollection_3">
    <defs>
     <path d="M 153.322869 -66.582321
L 153.322869 -66.610179
L 155.747105 -66.619581
L 158.17134 -66.632454
L 160.595575 -66.648312
L 163.01981 -66.665686
L 165.444046 -66.682297
L 167.868281 -66.695738
L 170.292516 -66.704577
L 172.716751 -66.70957
L 175.140987 -66.714595
L 177.565222 -66.72697
L 179.989457 -66.757017
L 182.413692 -66.816922
L 184.837928 -66.919037
L 187.262163 -67.073885
L 189.686398 -67.288269
L 192.110634 -67.564098
L 194.534869 -67.898627
L 196.959104 -68.286613
L 199.383339 -68.724312
L 201.807575 -69.214293
L 204.23181 -69.769192
L 206.656045 -70.412117
L 209.08028 -71.172029
L 211.504516 -72.074201
L 213.928751 -73.128279
L 216.352986 -74.318471
L 218.777221 -75.600685
L 221.201457 -76.909384
L 223.625692 -78.173095
L 226.049927 -79.333664
L 228.474162 -80.362222
L 230.898398 -81.26572
L 233.322633 -82.081323
L 235.746868 -82.860567
L 238.171104 -83.649029
L 240.595339 -84.468744
L 243.019574 -85.309388
L 245.443809 -86.130731
L 247.868045 -86.874661
L 250.29228 -87.481722
L 252.716515 -87.905993
L 255.14075 -88.1236
L 257.564986 -88.133445
L 259.989221 -87.952212
L 262.413456 -87.607568
L 264.837691 -87.132945
L 267.261927 -86.56491
L 269.686162 -85.941561
L 272.110397 -85.299508
L 274.534632 -84.668267
L 276.958868 -84.06357
L 279.383103 -83.482977
L 281.807338 -82.906901
L 284.231574 -82.305758
L 286.655809 -81.651059
L 289.080044 -80.92649
L 291.504279 -80.135075
L 293.928515 -79.299895
L 296.35275 -78.457901
L 298.776985 -77.648714
L 301.20122 -76.902448
L 303.625456 -76.231461
L 306.049691 -75.629655
L 308.473926 -75.079574
L 310.898161 -74.563577
L 313.322397 -74.073239
L 315.746632 -73.612056
L 318.170867 -73.190364
L 320.595102 -72.815707
L 323.019338 -72.484404
L 325.443573 -72.179159
L 327.867808 -71.873994
L 330.292043 -71.54375
L 332.716279 -71.173338
L 335.140514 -70.762671
L 337.564749 -70.325777
L 339.988985 -69.885265
L 342.41322 -69.464737
L 344.837455 -69.08186
L 347.26169 -68.744209
L 349.685926 -68.448959
L 352.110161 -68.186252
L 354.534396 -67.944753
L 356.958631 -67.716973
L 359.382867 -67.50214
L 361.807102 -67.305575
L 364.231337 -67.13529
L 366.655572 -66.997722
L 369.079808 -66.894655
L 371.504043 -66.822496
L 373.928278 -66.773807
L 376.352513 -66.739998
L 378.776749 -66.713842
L 381.200984 -66.690877
L 383.625219 -66.669458
L 386.049455 -66.64985
L 388.47369 -66.633036
L 390.897925 -66.619785
L 393.32216 -66.610245
L 393.32216 -66.582255
L 393.32216 -66.582255
L 390.897925 -66.572715
L 388.47369 -66.559464
L 386.049455 -66.54265
L 383.625219 -66.523042
L 381.200984 -66.501623
L 378.776749 -66.478658
L 376.352513 -66.452502
L 373.928278 -66.418693
L 371.504043 -66.370004
L 369.079808 -66.297845
L 366.655572 -66.194778
L 364.231337 -66.05721
L 361.807102 -65.886925
L 359.382867 -65.69036
L 356.958631 -65.475527
L 354.534396 -65.247747
L 352.110161 -65.006248
L 349.685926 -64.743541
L 347.26169 -64.448291
L 344.837455 -64.11064
L 342.41322 -63.727763
L 339.988985 -63.307235
L 337.564749 -62.866723
L 335.140514 -62.429829
L 332.716279 -62.019162
L 330.292043 -61.64875
L 327.867808 -61.318506
L 325.443573 -61.013341
L 323.019338 -60.708096
L 320.595102 -60.376793
L 318.170867 -60.002136
L 315.746632 -59.580444
L 313.322397 -59.119261
L 310.898161 -58.628923
L 308.473926 -58.112926
L 306.049691 -57.562845
L 303.625456 -56.961039
L 301.20122 -56.290052
L 298.776985 -55.543786
L 296.35275 -54.734599
L 293.928515 -53.892605
L 291.504279 -53.057425
L 289.080044 -52.26601
L 286.655809 -51.541441
L 284.231574 -50.886742
L 281.807338 -50.285599
L 279.383103 -49.709523
L 276.958868 -49.12893
L 274.534632 -48.524233
L 272.110397 -47.892992
L 269.686162 -47.250939
L 267.261927 -46.62759
L 264.837691 -46.059555
L 262.413456 -45.584932
L 259.989221 -45.240288
L 257.564986 -45.059055
L 255.14075 -45.0689
L 252.716515 -45.286507
L 250.29228 -45.710778
L 247.868045 -46.317839
L 245.443809 -47.061769
L 243.019574 -47.883112
L 240.595339 -48.723756
L 238.171104 -49.543471
L 235.746868 -50.331933
L 233.322633 -51.111177
L 230.898398 -51.92678
L 228.474162 -52.830278
L 226.049927 -53.858836
L 223.625692 -55.019405
L 221.201457 -56.283116
L 218.777221 -57.591815
L 216.352986 -58.874029
L 213.928751 -60.064221
L 211.504516 -61.118299
L 209.08028 -62.020471
L 206.656045 -62.780383
L 204.23181 -63.423308
L 201.807575 -63.978207
L 199.383339 -64.468188
L 196.959104 -64.905887
L 194.534869 -65.293873
L 192.110634 -65.628402
L 189.686398 -65.904231
L 187.262163 -66.118615
L 184.837928 -66.273463
L 182.413692 -66.375578
L 179.989457 -66.435483
L 177.565222 -66.46553
L 175.140987 -66.477905
L 172.716751 -66.48293
L 170.292516 -66.487923
L 167.868281 -66.496762
L 165.444046 -66.510203
L 163.01981 -66.526814
L 160.595575 -66.544188
L 158.17134 -66.560046
L 155.747105 -66.572919
L 153.322869 -66.582321
z
" id="mc08979debf" style="stroke:#444444;stroke-width:1.5;"/>
    </defs>
    <g clip-path="url(#p7538f8a026)">
     <use style="fill:#b4d4df;stroke:#444444;stroke-width:1.5;" x="0" xlink:href="#mc08979debf" y="262.914375"/>
    </g>
   </g>
   <g id="matplotlib.axis_1">
    <g id="xtick_1">
     <g id="line2d_1">
      <defs>
       <path d="M 0 0
L 0 3.5
" id="m66b4448602" style="stroke:#000000;stroke-width:0.8;"/>
      </defs>
      <g>
       <use style="stroke:#000000;stroke-width:0.8;" x="141.10625" xlink:href="#m66b4448602" y="232.558125"/>
      </g>
     </g>
     <g id="text_1">
      <!-- −2 -->
      <defs>
       <path d="M 10.59375 35.5
L 73.1875 35.5
L 73.1875 27.203125
L 10.59375 27.203125
z
" id="DejaVuSans-8722"/>
       <path d="M 19.1875 8.296875
L 53.609375 8.296875
L 53.609375 0
L 7.328125 0
L 7.328125 8.296875
Q 12.9375 14.109375 22.625 23.890625
Q 32.328125 33.6875 34.8125 36.53125
Q 39.546875 41.84375 41.421875 45.53125
Q 43.3125 49.21875 43.3125 52.78125
Q 43.3125 58.59375 39.234375 62.25
Q 35.15625 65.921875 28.609375 65.921875
Q 23.96875 65.921875 18.8125 64.3125
Q 13.671875 62.703125 7.8125 59.421875
L 7.8125 69.390625
Q 13.765625 71.78125 18.9375 73
Q 24.125 74.21875 28.421875 74.21875
Q 39.75 74.21875 46.484375 68.546875
Q 53.21875 62.890625 53.21875 53.421875
Q 53.21875 48.921875 51.53125 44.890625
Q 49.859375 40.875 45.40625 35.40625
Q 44.1875 33.984375 37.640625 27.21875
Q 31.109375 20.453125 19.1875 8.296875
z
" id="DejaVuSans-50"/>
      </defs>
      <g transform="translate(133.735156 247.156563)scale(0.1 -0.1)">
       <use xlink:href="#DejaVuSans-8722"/>
       <use x="83.789062" xlink:href="#DejaVuSans-50"/>
      </g>
     </g>
    </g>
    <g id="xtick_2">
     <g id="line2d_2">
      <g>
       <use style="stroke:#000000;stroke-width:0.8;" x="183.485409" xlink:href="#m66b4448602" y="232.558125"/>
      </g>
     </g>
     <g id="text_2">
      <!-- −1 -->
      <defs>
       <path d="M 12.40625 8.296875
L 28.515625 8.296875
L 28.515625 63.921875
L 10.984375 60.40625
L 10.984375 69.390625
L 28.421875 72.90625
L 38.28125 72.90625
L 38.28125 8.296875
L 54.390625 8.296875
L 54.390625 0
L 12.40625 0
z
" id="DejaVuSans-49"/>
      </defs>
      <g transform="translate(176.114316 247.156563)scale(0.1 -0.1)">
       <use xlink:href="#DejaVuSans-8722"/>
       <use x="83.789062" xlink:href="#DejaVuSans-49"/>
      </g>
     </g>
    </g>
    <g id="xtick_3">
     <g id="line2d_3">
      <g>
       <use style="stroke:#000000;stroke-width:0.8;" x="225.864569" xlink:href="#m66b4448602" y="232.558125"/>
      </g>
     </g>
     <g id="text_3">
      <!-- 0 -->
      <defs>
       <path d="M 31.78125 66.40625
Q 24.171875 66.40625 20.328125 58.90625
Q 16.5 51.421875 16.5 36.375
Q 16.5 21.390625 20.328125 13.890625
Q 24.171875 6.390625 31.78125 6.390625
Q 39.453125 6.390625 43.28125 13.890625
Q 47.125 21.390625 47.125 36.375
Q 47.125 51.421875 43.28125 58.90625
Q 39.453125 66.40625 31.78125 66.40625
z
M 31.78125 74.21875
Q 44.046875 74.21875 50.515625 64.515625
Q 56.984375 54.828125 56.984375 36.375
Q 56.984375 17.96875 50.515625 8.265625
Q 44.046875 -1.421875 31.78125 -1.421875
Q 19.53125 -1.421875 13.0625 8.265625
Q 6.59375 17.96875 6.59375 36.375
Q 6.59375 54.828125 13.0625 64.515625
Q 19.53125 74.21875 31.78125 74.21875
z
" id="DejaVuSans-48"/>
      </defs>
      <g transform="translate(222.683319 247.156563)scale(0.1 -0.1)">
       <use xlink:href="#DejaVuSans-48"/>
      </g>
     </g>
    </g>
    <g id="xtick_4">
     <g id="line2d_4">
      <g>
       <use style="stroke:#000000;stroke-width:0.8;" x="268.243729" xlink:href="#m66b4448602" y="232.558125"/>
      </g>
     </g>
     <g id="text_4">
      <!-- 1 -->
      <g transform="translate(265.062479 247.156563)scale(0.1 -0.1)">
       <use xlink:href="#DejaVuSans-49"/>
      </g>
     </g>
    </g>
    <g id="xtick_5">
     <g id="line2d_5">
      <g>
       <use style="stroke:#000000;stroke-width:0.8;" x="310.622889" xlink:href="#m66b4448602" y="232.558125"/>
      </g>
     </g>
     <g id="text_5">
      <!-- 2 -->
      <g transform="translate(307.441639 247.156563)scale(0.1 -0.1)">
       <use xlink:href="#DejaVuSans-50"/>
      </g>
     </g>
    </g>
    <g id="xtick_6">
     <g id="line2d_6">
      <g>
       <use style="stroke:#000000;stroke-width:0.8;" x="353.002049" xlink:href="#m66b4448602" y="232.558125"/>
      </g>
     </g>
     <g id="text_6">
      <!-- 3 -->
      <defs>
       <path d="M 40.578125 39.3125
Q 47.65625 37.796875 51.625 33
Q 55.609375 28.21875 55.609375 21.1875
Q 55.609375 10.40625 48.1875 4.484375
Q 40.765625 -1.421875 27.09375 -1.421875
Q 22.515625 -1.421875 17.65625 -0.515625
Q 12.796875 0.390625 7.625 2.203125
L 7.625 11.71875
Q 11.71875 9.328125 16.59375 8.109375
Q 21.484375 6.890625 26.8125 6.890625
Q 36.078125 6.890625 40.9375 10.546875
Q 45.796875 14.203125 45.796875 21.1875
Q 45.796875 27.640625 41.28125 31.265625
Q 36.765625 34.90625 28.71875 34.90625
L 20.21875 34.90625
L 20.21875 43.015625
L 29.109375 43.015625
Q 36.375 43.015625 40.234375 45.921875
Q 44.09375 48.828125 44.09375 54.296875
Q 44.09375 59.90625 40.109375 62.90625
Q 36.140625 65.921875 28.71875 65.921875
Q 24.65625 65.921875 20.015625 65.03125
Q 15.375 64.15625 9.8125 62.3125
L 9.8125 71.09375
Q 15.4375 72.65625 20.34375 73.4375
Q 25.25 74.21875 29.59375 74.21875
Q 40.828125 74.21875 47.359375 69.109375
Q 53.90625 64.015625 53.90625 55.328125
Q 53.90625 49.265625 50.4375 45.09375
Q 46.96875 40.921875 40.578125 39.3125
z
" id="DejaVuSans-51"/>
      </defs>
      <g transform="translate(349.820799 247.156563)scale(0.1 -0.1)">
       <use xlink:href="#DejaVuSans-51"/>
      </g>
     </g>
    </g>
    <g id="xtick_7">
     <g id="line2d_7">
      <g>
       <use style="stroke:#000000;stroke-width:0.8;" x="395.381209" xlink:href="#m66b4448602" y="232.558125"/>
      </g>
     </g>
     <g id="text_7">
      <!-- 4 -->
      <defs>
       <path d="M 37.796875 64.3125
L 12.890625 25.390625
L 37.796875 25.390625
z
M 35.203125 72.90625
L 47.609375 72.90625
L 47.609375 25.390625
L 58.015625 25.390625
L 58.015625 17.1875
L 47.609375 17.1875
L 47.609375 0
L 37.796875 0
L 37.796875 17.1875
L 4.890625 17.1875
L 4.890625 26.703125
z
" id="DejaVuSans-52"/>
      </defs>
      <g transform="translate(392.199959 247.156563)scale(0.1 -0.1)">
       <use xlink:href="#DejaVuSans-52"/>
      </g>
     </g>
    </g>
    <g id="xtick_8">
     <g id="line2d_8">
      <g>
       <use style="stroke:#000000;stroke-width:0.8;" x="437.760369" xlink:href="#m66b4448602" y="232.558125"/>
      </g>
     </g>
     <g id="text_8">
      <!-- 5 -->
      <defs>
       <path d="M 10.796875 72.90625
L 49.515625 72.90625
L 49.515625 64.59375
L 19.828125 64.59375
L 19.828125 46.734375
Q 21.96875 47.46875 24.109375 47.828125
Q 26.265625 48.1875 28.421875 48.1875
Q 40.625 48.1875 47.75 41.5
Q 54.890625 34.8125 54.890625 23.390625
Q 54.890625 11.625 47.5625 5.09375
Q 40.234375 -1.421875 26.90625 -1.421875
Q 22.3125 -1.421875 17.546875 -0.640625
Q 12.796875 0.140625 7.71875 1.703125
L 7.71875 11.625
Q 12.109375 9.234375 16.796875 8.0625
Q 21.484375 6.890625 26.703125 6.890625
Q 35.15625 6.890625 40.078125 11.328125
Q 45.015625 15.765625 45.015625 23.390625
Q 45.015625 31 40.078125 35.4375
Q 35.15625 39.890625 26.703125 39.890625
Q 22.75 39.890625 18.8125 39.015625
Q 14.890625 38.140625 10.796875 36.28125
z
" id="DejaVuSans-53"/>
      </defs>
      <g transform="translate(434.579119 247.156563)scale(0.1 -0.1)">
       <use xlink:href="#DejaVuSans-53"/>
      </g>
     </g>
    </g>
    <g id="text_9">
     <!-- log10(average expression) -->
     <defs>
      <path d="M 9.421875 75.984375
L 18.40625 75.984375
L 18.40625 0
L 9.421875 0
z
" id="DejaVuSans-108"/>
      <path d="M 30.609375 48.390625
Q 23.390625 48.390625 19.1875 42.75
Q 14.984375 37.109375 14.984375 27.296875
Q 14.984375 17.484375 19.15625 11.84375
Q 23.34375 6.203125 30.609375 6.203125
Q 37.796875 6.203125 41.984375 11.859375
Q 46.1875 17.53125 46.1875 27.296875
Q 46.1875 37.015625 41.984375 42.703125
Q 37.796875 48.390625 30.609375 48.390625
z
M 30.609375 56
Q 42.328125 56 49.015625 48.375
Q 55.71875 40.765625 55.71875 27.296875
Q 55.71875 13.875 49.015625 6.21875
Q 42.328125 -1.421875 30.609375 -1.421875
Q 18.84375 -1.421875 12.171875 6.21875
Q 5.515625 13.875 5.515625 27.296875
Q 5.515625 40.765625 12.171875 48.375
Q 18.84375 56 30.609375 56
z
" id="DejaVuSans-111"/>
      <path d="M 45.40625 27.984375
Q 45.40625 37.75 41.375 43.109375
Q 37.359375 48.484375 30.078125 48.484375
Q 22.859375 48.484375 18.828125 43.109375
Q 14.796875 37.75 14.796875 27.984375
Q 14.796875 18.265625 18.828125 12.890625
Q 22.859375 7.515625 30.078125 7.515625
Q 37.359375 7.515625 41.375 12.890625
Q 45.40625 18.265625 45.40625 27.984375
z
M 54.390625 6.78125
Q 54.390625 -7.171875 48.1875 -13.984375
Q 42 -20.796875 29.203125 -20.796875
Q 24.46875 -20.796875 20.265625 -20.09375
Q 16.0625 -19.390625 12.109375 -17.921875
L 12.109375 -9.1875
Q 16.0625 -11.328125 19.921875 -12.34375
Q 23.78125 -13.375 27.78125 -13.375
Q 36.625 -13.375 41.015625 -8.765625
Q 45.40625 -4.15625 45.40625 5.171875
L 45.40625 9.625
Q 42.625 4.78125 38.28125 2.390625
Q 33.9375 0 27.875 0
Q 17.828125 0 11.671875 7.65625
Q 5.515625 15.328125 5.515625 27.984375
Q 5.515625 40.671875 11.671875 48.328125
Q 17.828125 56 27.875 56
Q 33.9375 56 38.28125 53.609375
Q 42.625 51.21875 45.40625 46.390625
L 45.40625 54.6875
L 54.390625 54.6875
z
" id="DejaVuSans-103"/>
      <path d="M 31 75.875
Q 24.46875 64.65625 21.28125 53.65625
Q 18.109375 42.671875 18.109375 31.390625
Q 18.109375 20.125 21.3125 9.0625
Q 24.515625 -2 31 -13.1875
L 23.1875 -13.1875
Q 15.875 -1.703125 12.234375 9.375
Q 8.59375 20.453125 8.59375 31.390625
Q 8.59375 42.28125 12.203125 53.3125
Q 15.828125 64.359375 23.1875 75.875
z
" id="DejaVuSans-40"/>
      <path d="M 34.28125 27.484375
Q 23.390625 27.484375 19.1875 25
Q 14.984375 22.515625 14.984375 16.5
Q 14.984375 11.71875 18.140625 8.90625
Q 21.296875 6.109375 26.703125 6.109375
Q 34.1875 6.109375 38.703125 11.40625
Q 43.21875 16.703125 43.21875 25.484375
L 43.21875 27.484375
z
M 52.203125 31.203125
L 52.203125 0
L 43.21875 0
L 43.21875 8.296875
Q 40.140625 3.328125 35.546875 0.953125
Q 30.953125 -1.421875 24.3125 -1.421875
Q 15.921875 -1.421875 10.953125 3.296875
Q 6 8.015625 6 15.921875
Q 6 25.140625 12.171875 29.828125
Q 18.359375 34.515625 30.609375 34.515625
L 43.21875 34.515625
L 43.21875 35.40625
Q 43.21875 41.609375 39.140625 45
Q 35.0625 48.390625 27.6875 48.390625
Q 23 48.390625 18.546875 47.265625
Q 14.109375 46.140625 10.015625 43.890625
L 10.015625 52.203125
Q 14.9375 54.109375 19.578125 55.046875
Q 24.21875 56 28.609375 56
Q 40.484375 56 46.34375 49.84375
Q 52.203125 43.703125 52.203125 31.203125
z
" id="DejaVuSans-97"/>
      <path d="M 2.984375 54.6875
L 12.5 54.6875
L 29.59375 8.796875
L 46.6875 54.6875
L 56.203125 54.6875
L 35.6875 0
L 23.484375 0
z
" id="DejaVuSans-118"/>
      <path d="M 56.203125 29.59375
L 56.203125 25.203125
L 14.890625 25.203125
Q 15.484375 15.921875 20.484375 11.0625
Q 25.484375 6.203125 34.421875 6.203125
Q 39.59375 6.203125 44.453125 7.46875
Q 49.3125 8.734375 54.109375 11.28125
L 54.109375 2.78125
Q 49.265625 0.734375 44.1875 -0.34375
Q 39.109375 -1.421875 33.890625 -1.421875
Q 20.796875 -1.421875 13.15625 6.1875
Q 5.515625 13.8125 5.515625 26.8125
Q 5.515625 40.234375 12.765625 48.109375
Q 20.015625 56 32.328125 56
Q 43.359375 56 49.78125 48.890625
Q 56.203125 41.796875 56.203125 29.59375
z
M 47.21875 32.234375
Q 47.125 39.59375 43.09375 43.984375
Q 39.0625 48.390625 32.421875 48.390625
Q 24.90625 48.390625 20.390625 44.140625
Q 15.875 39.890625 15.1875 32.171875
z
" id="DejaVuSans-101"/>
      <path d="M 41.109375 46.296875
Q 39.59375 47.171875 37.8125 47.578125
Q 36.03125 48 33.890625 48
Q 26.265625 48 22.1875 43.046875
Q 18.109375 38.09375 18.109375 28.8125
L 18.109375 0
L 9.078125 0
L 9.078125 54.6875
L 18.109375 54.6875
L 18.109375 46.1875
Q 20.953125 51.171875 25.484375 53.578125
Q 30.03125 56 36.53125 56
Q 37.453125 56 38.578125 55.875
Q 39.703125 55.765625 41.0625 55.515625
z
" id="DejaVuSans-114"/>
      <path id="DejaVuSans-32"/>
      <path d="M 54.890625 54.6875
L 35.109375 28.078125
L 55.90625 0
L 45.3125 0
L 29.390625 21.484375
L 13.484375 0
L 2.875 0
L 24.125 28.609375
L 4.6875 54.6875
L 15.28125 54.6875
L 29.78125 35.203125
L 44.28125 54.6875
z
" id="DejaVuSans-120"/>
      <path d="M 18.109375 8.203125
L 18.109375 -20.796875
L 9.078125 -20.796875
L 9.078125 54.6875
L 18.109375 54.6875
L 18.109375 46.390625
Q 20.953125 51.265625 25.265625 53.625
Q 29.59375 56 35.59375 56
Q 45.5625 56 51.78125 48.09375
Q 58.015625 40.1875 58.015625 27.296875
Q 58.015625 14.40625 51.78125 6.484375
Q 45.5625 -1.421875 35.59375 -1.421875
Q 29.59375 -1.421875 25.265625 0.953125
Q 20.953125 3.328125 18.109375 8.203125
z
M 48.6875 27.296875
Q 48.6875 37.203125 44.609375 42.84375
Q 40.53125 48.484375 33.40625 48.484375
Q 26.265625 48.484375 22.1875 42.84375
Q 18.109375 37.203125 18.109375 27.296875
Q 18.109375 17.390625 22.1875 11.75
Q 26.265625 6.109375 33.40625 6.109375
Q 40.53125 6.109375 44.609375 11.75
Q 48.6875 17.390625 48.6875 27.296875
z
" id="DejaVuSans-112"/>
      <path d="M 44.28125 53.078125
L 44.28125 44.578125
Q 40.484375 46.53125 36.375 47.5
Q 32.28125 48.484375 27.875 48.484375
Q 21.1875 48.484375 17.84375 46.4375
Q 14.5 44.390625 14.5 40.28125
Q 14.5 37.15625 16.890625 35.375
Q 19.28125 33.59375 26.515625 31.984375
L 29.59375 31.296875
Q 39.15625 29.25 43.1875 25.515625
Q 47.21875 21.78125 47.21875 15.09375
Q 47.21875 7.46875 41.1875 3.015625
Q 35.15625 -1.421875 24.609375 -1.421875
Q 20.21875 -1.421875 15.453125 -0.5625
Q 10.6875 0.296875 5.421875 2
L 5.421875 11.28125
Q 10.40625 8.6875 15.234375 7.390625
Q 20.0625 6.109375 24.8125 6.109375
Q 31.15625 6.109375 34.5625 8.28125
Q 37.984375 10.453125 37.984375 14.40625
Q 37.984375 18.0625 35.515625 20.015625
Q 33.0625 21.96875 24.703125 23.78125
L 21.578125 24.515625
Q 13.234375 26.265625 9.515625 29.90625
Q 5.8125 33.546875 5.8125 39.890625
Q 5.8125 47.609375 11.28125 51.796875
Q 16.75 56 26.8125 56
Q 31.78125 56 36.171875 55.265625
Q 40.578125 54.546875 44.28125 53.078125
z
" id="DejaVuSans-115"/>
      <path d="M 9.421875 54.6875
L 18.40625 54.6875
L 18.40625 0
L 9.421875 0
z
M 9.421875 75.984375
L 18.40625 75.984375
L 18.40625 64.59375
L 9.421875 64.59375
z
" id="DejaVuSans-105"/>
      <path d="M 54.890625 33.015625
L 54.890625 0
L 45.90625 0
L 45.90625 32.71875
Q 45.90625 40.484375 42.875 44.328125
Q 39.84375 48.1875 33.796875 48.1875
Q 26.515625 48.1875 22.3125 43.546875
Q 18.109375 38.921875 18.109375 30.90625
L 18.109375 0
L 9.078125 0
L 9.078125 54.6875
L 18.109375 54.6875
L 18.109375 46.1875
Q 21.34375 51.125 25.703125 53.5625
Q 30.078125 56 35.796875 56
Q 45.21875 56 50.046875 50.171875
Q 54.890625 44.34375 54.890625 33.015625
z
" id="DejaVuSans-110"/>
      <path d="M 8.015625 75.875
L 15.828125 75.875
Q 23.140625 64.359375 26.78125 53.3125
Q 30.421875 42.28125 30.421875 31.390625
Q 30.421875 20.453125 26.78125 9.375
Q 23.140625 -1.703125 15.828125 -13.1875
L 8.015625 -13.1875
Q 14.5 -2 17.703125 9.0625
Q 20.90625 20.125 20.90625 31.390625
Q 20.90625 42.671875 17.703125 53.65625
Q 14.5 64.65625 8.015625 75.875
z
" id="DejaVuSans-41"/>
     </defs>
     <g transform="translate(238.392187 260.834688)scale(0.1 -0.1)">
      <use xlink:href="#DejaVuSans-108"/>
      <use x="27.783203" xlink:href="#DejaVuSans-111"/>
      <use x="88.964844" xlink:href="#DejaVuSans-103"/>
      <use x="152.441406" xlink:href="#DejaVuSans-49"/>
      <use x="216.064453" xlink:href="#DejaVuSans-48"/>
      <use x="279.6875" xlink:href="#DejaVuSans-40"/>
      <use x="318.701172" xlink:href="#DejaVuSans-97"/>
      <use x="379.980469" xlink:href="#DejaVuSans-118"/>
      <use x="439.160156" xlink:href="#DejaVuSans-101"/>
      <use x="500.683594" xlink:href="#DejaVuSans-114"/>
      <use x="541.796875" xlink:href="#DejaVuSans-97"/>
      <use x="603.076172" xlink:href="#DejaVuSans-103"/>
      <use x="666.552734" xlink:href="#DejaVuSans-101"/>
      <use x="728.076172" xlink:href="#DejaVuSans-32"/>
      <use x="759.863281" xlink:href="#DejaVuSans-101"/>
      <use x="821.371094" xlink:href="#DejaVuSans-120"/>
      <use x="880.550781" xlink:href="#DejaVuSans-112"/>
      <use x="944.027344" xlink:href="#DejaVuSans-114"/>
      <use x="985.109375" xlink:href="#DejaVuSans-101"/>
      <use x="1046.632812" xlink:href="#DejaVuSans-115"/>
      <use x="1098.732422" xlink:href="#DejaVuSans-115"/>
      <use x="1150.832031" xlink:href="#DejaVuSans-105"/>
      <use x="1178.615234" xlink:href="#DejaVuSans-111"/>
      <use x="1239.796875" xlink:href="#DejaVuSans-110"/>
      <use x="1303.175781" xlink:href="#DejaVuSans-41"/>
     </g>
    </g>
   </g>
   <g id="matplotlib.axis_2">
    <g id="ytick_1">
     <g id="line2d_9">
      <defs>
       <path d="M 0 0
L -3.5 0
" id="m0586df3079" style="stroke:#000000;stroke-width:0.8;"/>
      </defs>
      <g>
       <use style="stroke:#000000;stroke-width:0.8;" x="138.104687" xlink:href="#m0586df3079" y="51.358125"/>
      </g>
     </g>
     <g id="text_10">
      <!-- all genes -->
      <g transform="translate(86.040625 55.157344)scale(0.1 -0.1)">
       <use xlink:href="#DejaVuSans-97"/>
       <use x="61.279297" xlink:href="#DejaVuSans-108"/>
       <use x="89.0625" xlink:href="#DejaVuSans-108"/>
       <use x="116.845703" xlink:href="#DejaVuSans-32"/>
       <use x="148.632812" xlink:href="#DejaVuSans-103"/>
       <use x="212.109375" xlink:href="#DejaVuSans-101"/>
       <use x="273.632812" xlink:href="#DejaVuSans-110"/>
       <use x="337.011719" xlink:href="#DejaVuSans-101"/>
       <use x="398.535156" xlink:href="#DejaVuSans-115"/>
      </g>
     </g>
    </g>
    <g id="ytick_2">
     <g id="line2d_10">
      <g>
       <use style="stroke:#000000;stroke-width:0.8;" x="138.104687" xlink:href="#m0586df3079" y="123.838125"/>
      </g>
     </g>
     <g id="text_11">
      <!-- RNAseq and array generic -->
      <defs>
       <path d="M 44.390625 34.1875
Q 47.5625 33.109375 50.5625 29.59375
Q 53.5625 26.078125 56.59375 19.921875
L 66.609375 0
L 56 0
L 46.6875 18.703125
Q 43.0625 26.03125 39.671875 28.421875
Q 36.28125 30.8125 30.421875 30.8125
L 19.671875 30.8125
L 19.671875 0
L 9.8125 0
L 9.8125 72.90625
L 32.078125 72.90625
Q 44.578125 72.90625 50.734375 67.671875
Q 56.890625 62.453125 56.890625 51.90625
Q 56.890625 45.015625 53.6875 40.46875
Q 50.484375 35.9375 44.390625 34.1875
z
M 19.671875 64.796875
L 19.671875 38.921875
L 32.078125 38.921875
Q 39.203125 38.921875 42.84375 42.21875
Q 46.484375 45.515625 46.484375 51.90625
Q 46.484375 58.296875 42.84375 61.546875
Q 39.203125 64.796875 32.078125 64.796875
z
" id="DejaVuSans-82"/>
       <path d="M 9.8125 72.90625
L 23.09375 72.90625
L 55.421875 11.921875
L 55.421875 72.90625
L 64.984375 72.90625
L 64.984375 0
L 51.703125 0
L 19.390625 60.984375
L 19.390625 0
L 9.8125 0
z
" id="DejaVuSans-78"/>
       <path d="M 34.1875 63.1875
L 20.796875 26.90625
L 47.609375 26.90625
z
M 28.609375 72.90625
L 39.796875 72.90625
L 67.578125 0
L 57.328125 0
L 50.6875 18.703125
L 17.828125 18.703125
L 11.1875 0
L 0.78125 0
z
" id="DejaVuSans-65"/>
       <path d="M 14.796875 27.296875
Q 14.796875 17.390625 18.875 11.75
Q 22.953125 6.109375 30.078125 6.109375
Q 37.203125 6.109375 41.296875 11.75
Q 45.40625 17.390625 45.40625 27.296875
Q 45.40625 37.203125 41.296875 42.84375
Q 37.203125 48.484375 30.078125 48.484375
Q 22.953125 48.484375 18.875 42.84375
Q 14.796875 37.203125 14.796875 27.296875
z
M 45.40625 8.203125
Q 42.578125 3.328125 38.25 0.953125
Q 33.9375 -1.421875 27.875 -1.421875
Q 17.96875 -1.421875 11.734375 6.484375
Q 5.515625 14.40625 5.515625 27.296875
Q 5.515625 40.1875 11.734375 48.09375
Q 17.96875 56 27.875 56
Q 33.9375 56 38.25 53.625
Q 42.578125 51.265625 45.40625 46.390625
L 45.40625 54.6875
L 54.390625 54.6875
L 54.390625 -20.796875
L 45.40625 -20.796875
z
" id="DejaVuSans-113"/>
       <path d="M 45.40625 46.390625
L 45.40625 75.984375
L 54.390625 75.984375
L 54.390625 0
L 45.40625 0
L 45.40625 8.203125
Q 42.578125 3.328125 38.25 0.953125
Q 33.9375 -1.421875 27.875 -1.421875
Q 17.96875 -1.421875 11.734375 6.484375
Q 5.515625 14.40625 5.515625 27.296875
Q 5.515625 40.1875 11.734375 48.09375
Q 17.96875 56 27.875 56
Q 33.9375 56 38.25 53.625
Q 42.578125 51.265625 45.40625 46.390625
z
M 14.796875 27.296875
Q 14.796875 17.390625 18.875 11.75
Q 22.953125 6.109375 30.078125 6.109375
Q 37.203125 6.109375 41.296875 11.75
Q 45.40625 17.390625 45.40625 27.296875
Q 45.40625 37.203125 41.296875 42.84375
Q 37.203125 48.484375 30.078125 48.484375
Q 22.953125 48.484375 18.875 42.84375
Q 14.796875 37.203125 14.796875 27.296875
z
" id="DejaVuSans-100"/>
       <path d="M 32.171875 -5.078125
Q 28.375 -14.84375 24.75 -17.8125
Q 21.140625 -20.796875 15.09375 -20.796875
L 7.90625 -20.796875
L 7.90625 -13.28125
L 13.1875 -13.28125
Q 16.890625 -13.28125 18.9375 -11.515625
Q 21 -9.765625 23.484375 -3.21875
L 25.09375 0.875
L 2.984375 54.6875
L 12.5 54.6875
L 29.59375 11.921875
L 46.6875 54.6875
L 56.203125 54.6875
z
" id="DejaVuSans-121"/>
       <path d="M 48.78125 52.59375
L 48.78125 44.1875
Q 44.96875 46.296875 41.140625 47.34375
Q 37.3125 48.390625 33.40625 48.390625
Q 24.65625 48.390625 19.8125 42.84375
Q 14.984375 37.3125 14.984375 27.296875
Q 14.984375 17.28125 19.8125 11.734375
Q 24.65625 6.203125 33.40625 6.203125
Q 37.3125 6.203125 41.140625 7.25
Q 44.96875 8.296875 48.78125 10.40625
L 48.78125 2.09375
Q 45.015625 0.34375 40.984375 -0.53125
Q 36.96875 -1.421875 32.421875 -1.421875
Q 20.0625 -1.421875 12.78125 6.34375
Q 5.515625 14.109375 5.515625 27.296875
Q 5.515625 40.671875 12.859375 48.328125
Q 20.21875 56 33.015625 56
Q 37.15625 56 41.109375 55.140625
Q 45.0625 54.296875 48.78125 52.59375
z
" id="DejaVuSans-99"/>
      </defs>
      <g transform="translate(-0 127.637344)scale(0.1 -0.1)">
       <use xlink:href="#DejaVuSans-82"/>
       <use x="69.482422" xlink:href="#DejaVuSans-78"/>
       <use x="144.287109" xlink:href="#DejaVuSans-65"/>
       <use x="212.695312" xlink:href="#DejaVuSans-115"/>
       <use x="264.794922" xlink:href="#DejaVuSans-101"/>
       <use x="326.318359" xlink:href="#DejaVuSans-113"/>
       <use x="389.794922" xlink:href="#DejaVuSans-32"/>
       <use x="421.582031" xlink:href="#DejaVuSans-97"/>
       <use x="482.861328" xlink:href="#DejaVuSans-110"/>
       <use x="546.240234" xlink:href="#DejaVuSans-100"/>
       <use x="609.716797" xlink:href="#DejaVuSans-32"/>
       <use x="641.503906" xlink:href="#DejaVuSans-97"/>
       <use x="702.783203" xlink:href="#DejaVuSans-114"/>
       <use x="743.880859" xlink:href="#DejaVuSans-114"/>
       <use x="784.994141" xlink:href="#DejaVuSans-97"/>
       <use x="846.273438" xlink:href="#DejaVuSans-121"/>
       <use x="905.453125" xlink:href="#DejaVuSans-32"/>
       <use x="937.240234" xlink:href="#DejaVuSans-103"/>
       <use x="1000.716797" xlink:href="#DejaVuSans-101"/>
       <use x="1062.240234" xlink:href="#DejaVuSans-110"/>
       <use x="1125.619141" xlink:href="#DejaVuSans-101"/>
       <use x="1187.142578" xlink:href="#DejaVuSans-114"/>
       <use x="1228.255859" xlink:href="#DejaVuSans-105"/>
       <use x="1256.039062" xlink:href="#DejaVuSans-99"/>
      </g>
     </g>
    </g>
    <g id="ytick_3">
     <g id="line2d_11">
      <g>
       <use style="stroke:#000000;stroke-width:0.8;" x="138.104687" xlink:href="#m0586df3079" y="196.318125"/>
      </g>
     </g>
     <g id="text_12">
      <!-- only RNAseq generic -->
      <g transform="translate(27.234375 200.117344)scale(0.1 -0.1)">
       <use xlink:href="#DejaVuSans-111"/>
       <use x="61.181641" xlink:href="#DejaVuSans-110"/>
       <use x="124.560547" xlink:href="#DejaVuSans-108"/>
       <use x="152.34375" xlink:href="#DejaVuSans-121"/>
       <use x="211.523438" xlink:href="#DejaVuSans-32"/>
       <use x="243.310547" xlink:href="#DejaVuSans-82"/>
       <use x="312.792969" xlink:href="#DejaVuSans-78"/>
       <use x="387.597656" xlink:href="#DejaVuSans-65"/>
       <use x="456.005859" xlink:href="#DejaVuSans-115"/>
       <use x="508.105469" xlink:href="#DejaVuSans-101"/>
       <use x="569.628906" xlink:href="#DejaVuSans-113"/>
       <use x="633.105469" xlink:href="#DejaVuSans-32"/>
       <use x="664.892578" xlink:href="#DejaVuSans-103"/>
       <use x="728.369141" xlink:href="#DejaVuSans-101"/>
       <use x="789.892578" xlink:href="#DejaVuSans-110"/>
       <use x="853.271484" xlink:href="#DejaVuSans-101"/>
       <use x="914.794922" xlink:href="#DejaVuSans-114"/>
       <use x="955.908203" xlink:href="#DejaVuSans-105"/>
       <use x="983.691406" xlink:href="#DejaVuSans-99"/>
      </g>
     </g>
    </g>
   </g>
   <g id="line2d_12">
    <path clip-path="url(#p7538f8a026)" d="M 252.02746 51.358125
L 421.684087 51.358125
" style="fill:none;stroke:#444444;stroke-linecap:square;stroke-width:1.5;"/>
   </g>
   <g id="line2d_13">
    <path clip-path="url(#p7538f8a026)" d="M 315.719506 51.358125
L 358.205151 51.358125
" style="fill:none;stroke:#444444;stroke-linecap:square;stroke-width:4.5;"/>
   </g>
   <g id="line2d_14">
    <path clip-path="url(#p7538f8a026)" d="M 272.640663 123.838125
L 393.855583 123.838125
" style="fill:none;stroke:#444444;stroke-linecap:square;stroke-width:1.5;"/>
   </g>
   <g id="line2d_15">
    <path clip-path="url(#p7538f8a026)" d="M 318.775243 123.838125
L 350.940002 123.838125
" style="fill:none;stroke:#444444;stroke-linecap:square;stroke-width:4.5;"/>
   </g>
   <g id="line2d_16">
    <path clip-path="url(#p7538f8a026)" d="M 195.028141 196.318125
L 357.169449 196.318125
" style="fill:none;stroke:#444444;stroke-linecap:square;stroke-width:1.5;"/>
   </g>
   <g id="line2d_17">
    <path clip-path="url(#p7538f8a026)" d="M 242.822217 196.318125
L 288.7076 196.318125
" style="fill:none;stroke:#444444;stroke-linecap:square;stroke-width:4.5;"/>
   </g>
   <g id="patch_3">
    <path d="M 138.104687 232.558125
L 138.104687 15.118125
" style="fill:none;stroke:#000000;stroke-linecap:square;stroke-linejoin:miter;stroke-width:0.8;"/>
   </g>
   <g id="patch_4">
    <path d="M 472.904687 232.558125
L 472.904687 15.118125
" style="fill:none;stroke:#000000;stroke-linecap:square;stroke-linejoin:miter;stroke-width:0.8;"/>
   </g>
   <g id="patch_5">
    <path d="M 138.104688 232.558125
L 472.904687 232.558125
" style="fill:none;stroke:#000000;stroke-linecap:square;stroke-linejoin:miter;stroke-width:0.8;"/>
   </g>
   <g id="patch_6">
    <path d="M 138.104688 15.118125
L 472.904687 15.118125
" style="fill:none;stroke:#000000;stroke-linecap:square;stroke-linejoin:miter;stroke-width:0.8;"/>
   </g>
   <g id="PathCollection_1">
    <defs>
     <path d="M 0 1.5
C 0.397805 1.5 0.77937 1.341951 1.06066 1.06066
C 1.341951 0.77937 1.5 0.397805 1.5 0
C 1.5 -0.397805 1.341951 -0.77937 1.06066 -1.06066
C 0.77937 -1.341951 0.397805 -1.5 0 -1.5
C -0.397805 -1.5 -0.77937 -1.341951 -1.06066 -1.06066
C -1.341951 -0.77937 -1.5 -0.397805 -1.5 0
C -1.5 0.397805 -1.341951 0.77937 -1.06066 1.06066
C -0.77937 1.341951 -0.397805 1.5 0 1.5
z
" id="mc246ffe7bd" style="stroke:#444444;"/>
    </defs>
    <g clip-path="url(#p7538f8a026)">
     <use style="fill:#ffffff;stroke:#444444;" x="342.020423" xlink:href="#mc246ffe7bd" y="51.358125"/>
    </g>
   </g>
   <g id="PathCollection_2">
    <g clip-path="url(#p7538f8a026)">
     <use style="fill:#ffffff;stroke:#444444;" x="334.294247" xlink:href="#mc246ffe7bd" y="123.838125"/>
    </g>
   </g>
   <g id="PathCollection_3">
    <g clip-path="url(#p7538f8a026)">
     <use style="fill:#ffffff;stroke:#444444;" x="263.266766" xlink:href="#mc246ffe7bd" y="196.318125"/>
    </g>
   </g>
   <g id="text_13">
    <!-- Average recount2 expression -->
    <defs>
     <path d="M 8.5 21.578125
L 8.5 54.6875
L 17.484375 54.6875
L 17.484375 21.921875
Q 17.484375 14.15625 20.5 10.265625
Q 23.53125 6.390625 29.59375 6.390625
Q 36.859375 6.390625 41.078125 11.03125
Q 45.3125 15.671875 45.3125 23.6875
L 45.3125 54.6875
L 54.296875 54.6875
L 54.296875 0
L 45.3125 0
L 45.3125 8.40625
Q 42.046875 3.421875 37.71875 1
Q 33.40625 -1.421875 27.6875 -1.421875
Q 18.265625 -1.421875 13.375 4.4375
Q 8.5 10.296875 8.5 21.578125
z
M 31.109375 56
z
" id="DejaVuSans-117"/>
     <path d="M 18.3125 70.21875
L 18.3125 54.6875
L 36.8125 54.6875
L 36.8125 47.703125
L 18.3125 47.703125
L 18.3125 18.015625
Q 18.3125 11.328125 20.140625 9.421875
Q 21.96875 7.515625 27.59375 7.515625
L 36.8125 7.515625
L 36.8125 0
L 27.59375 0
Q 17.1875 0 13.234375 3.875
Q 9.28125 7.765625 9.28125 18.015625
L 9.28125 47.703125
L 2.6875 47.703125
L 2.6875 54.6875
L 9.28125 54.6875
L 9.28125 70.21875
z
" id="DejaVuSans-116"/>
    </defs>
    <g transform="translate(217.2025 9.118125)scale(0.12 -0.12)">
     <use xlink:href="#DejaVuSans-65"/>
     <use x="68.330078" xlink:href="#DejaVuSans-118"/>
     <use x="127.509766" xlink:href="#DejaVuSans-101"/>
     <use x="189.033203" xlink:href="#DejaVuSans-114"/>
     <use x="230.146484" xlink:href="#DejaVuSans-97"/>
     <use x="291.425781" xlink:href="#DejaVuSans-103"/>
     <use x="354.902344" xlink:href="#DejaVuSans-101"/>
     <use x="416.425781" xlink:href="#DejaVuSans-32"/>
     <use x="448.212891" xlink:href="#DejaVuSans-114"/>
     <use x="489.294922" xlink:href="#DejaVuSans-101"/>
     <use x="550.818359" xlink:href="#DejaVuSans-99"/>
     <use x="605.798828" xlink:href="#DejaVuSans-111"/>
     <use x="666.980469" xlink:href="#DejaVuSans-117"/>
     <use x="730.359375" xlink:href="#DejaVuSans-110"/>
     <use x="793.738281" xlink:href="#DejaVuSans-116"/>
     <use x="832.947266" xlink:href="#DejaVuSans-50"/>
     <use x="896.570312" xlink:href="#DejaVuSans-32"/>
     <use x="928.357422" xlink:href="#DejaVuSans-101"/>
     <use x="989.865234" xlink:href="#DejaVuSans-120"/>
     <use x="1049.044922" xlink:href="#DejaVuSans-112"/>
     <use x="1112.521484" xlink:href="#DejaVuSans-114"/>
     <use x="1153.603516" xlink:href="#DejaVuSans-101"/>
     <use x="1215.126953" xlink:href="#DejaVuSans-115"/>
     <use x="1267.226562" xlink:href="#DejaVuSans-115"/>
     <use x="1319.326172" xlink:href="#DejaVuSans-105"/>
     <use x="1347.109375" xlink:href="#DejaVuSans-111"/>
     <use x="1408.291016" xlink:href="#DejaVuSans-110"/>
    </g>
   </g>
  </g>
 </g>
 <defs>
  <clipPath id="p7538f8a026">
   <rect height="217.44" width="334.8" x="138.104687" y="15.118125"/>
  </clipPath>
 </defs>
</svg>
