<?xml version="1.0" encoding="utf-8" standalone="no"?>
<!DOCTYPE svg PUBLIC "-//W3C//DTD SVG 1.1//EN"
  "http://www.w3.org/Graphics/SVG/1.1/DTD/svg11.dtd">
<!-- Created with matplotlib (https://matplotlib.org/) -->
<svg height="275.250937pt" version="1.1" viewBox="0 0 584.6175 275.250937" width="584.6175pt" xmlns="http://www.w3.org/2000/svg" xmlns:xlink="http://www.w3.org/1999/xlink">
 <defs>
  <style type="text/css">
*{stroke-linecap:butt;stroke-linejoin:round;}
  </style>
 </defs>
 <g id="figure_1">
  <g id="patch_1">
   <path d="M 0 275.250937
L 584.6175 275.250937
L 584.6175 0
L 0 0
z
" style="fill:none;"/>
  </g>
  <g id="axes_1">
   <g id="patch_2">
    <path d="M 246.3175 237.117187
L 581.1175 237.117187
L 581.1175 19.677187
L 246.3175 19.677187
z
" style="fill:none;"/>
   </g>
   <g id="PolyCollection_1">
    <defs>
     <path d="M 268.892372 -219.332663
L 268.892372 -219.334837
L 271.892442 -219.336811
L 274.892512 -219.34011
L 277.892582 -219.34418
L 280.892652 -219.348849
L 283.892722 -219.354706
L 286.892793 -219.360657
L 289.892863 -219.363306
L 292.892933 -219.361803
L 295.893003 -219.362009
L 298.893073 -219.37356
L 301.893143 -219.402554
L 304.893214 -219.448319
L 307.893284 -219.506942
L 310.893354 -219.572646
L 313.893424 -219.6369
L 316.893494 -219.698703
L 319.893564 -219.777399
L 322.893635 -219.902445
L 325.893705 -220.086172
L 328.893775 -220.310742
L 331.893845 -220.538214
L 334.893915 -220.728796
L 337.893985 -220.862654
L 340.894056 -220.95877
L 343.894126 -221.06092
L 346.894196 -221.195078
L 349.894266 -221.35543
L 352.894336 -221.528664
L 355.894406 -221.704667
L 358.894477 -221.874293
L 361.894547 -222.044573
L 364.894617 -222.2334
L 367.894687 -222.438033
L 370.894757 -222.648939
L 373.894827 -222.88291
L 376.894898 -223.155517
L 379.894968 -223.453358
L 382.895038 -223.766701
L 385.895108 -224.104668
L 388.895178 -224.472943
L 391.895248 -224.88228
L 394.895319 -225.355022
L 397.895389 -225.870665
L 400.895459 -226.342238
L 403.895529 -226.711257
L 406.895599 -227.034495
L 409.895669 -227.426235
L 412.89574 -227.953237
L 415.89581 -228.622678
L 418.89588 -229.422495
L 421.89595 -230.321753
L 424.89602 -231.26868
L 427.89609 -232.25116
L 430.896161 -233.339344
L 433.896231 -234.620324
L 436.896301 -236.103111
L 439.896371 -237.708749
L 442.896441 -239.34846
L 445.896511 -241.001074
L 448.896582 -242.674455
L 451.896652 -244.279153
L 454.896722 -245.614695
L 457.896792 -246.490987
L 460.896862 -246.785668
L 463.896932 -246.407428
L 466.897003 -245.289357
L 469.897073 -243.423644
L 472.897143 -240.891232
L 475.897213 -237.895264
L 478.897283 -234.756249
L 481.897353 -231.794057
L 484.897424 -229.191894
L 487.897494 -226.992602
L 490.897564 -225.186955
L 493.897634 -223.760483
L 496.897704 -222.677978
L 499.897774 -221.873737
L 502.897845 -221.274274
L 505.897915 -220.825254
L 508.897985 -220.492798
L 511.898055 -220.245239
L 514.898125 -220.049123
L 517.898195 -219.885377
L 520.898266 -219.754373
L 523.898336 -219.657481
L 526.898406 -219.583685
L 529.898476 -219.520493
L 532.898546 -219.467603
L 535.898616 -219.431107
L 538.898687 -219.409912
L 541.898757 -219.395281
L 544.898827 -219.380838
L 547.898897 -219.366882
L 550.898967 -219.356113
L 553.899038 -219.349172
L 556.899108 -219.344369
L 559.899178 -219.340211
L 562.899248 -219.336843
L 565.899318 -219.334844
L 565.899318 -219.332656
L 565.899318 -219.332656
L 562.899248 -219.330657
L 559.899178 -219.327289
L 556.899108 -219.323131
L 553.899038 -219.318328
L 550.898967 -219.311387
L 547.898897 -219.300618
L 544.898827 -219.286662
L 541.898757 -219.272219
L 538.898687 -219.257588
L 535.898616 -219.236393
L 532.898546 -219.199897
L 529.898476 -219.147007
L 526.898406 -219.083815
L 523.898336 -219.010019
L 520.898266 -218.913127
L 517.898195 -218.782123
L 514.898125 -218.618377
L 511.898055 -218.422261
L 508.897985 -218.174702
L 505.897915 -217.842246
L 502.897845 -217.393226
L 499.897774 -216.793763
L 496.897704 -215.989522
L 493.897634 -214.907017
L 490.897564 -213.480545
L 487.897494 -211.674898
L 484.897424 -209.475606
L 481.897353 -206.873443
L 478.897283 -203.911251
L 475.897213 -200.772236
L 472.897143 -197.776268
L 469.897073 -195.243856
L 466.897003 -193.378143
L 463.896932 -192.260072
L 460.896862 -191.881832
L 457.896792 -192.176513
L 454.896722 -193.052805
L 451.896652 -194.388347
L 448.896582 -195.993045
L 445.896511 -197.666426
L 442.896441 -199.31904
L 439.896371 -200.958751
L 436.896301 -202.564389
L 433.896231 -204.047176
L 430.896161 -205.328156
L 427.89609 -206.41634
L 424.89602 -207.39882
L 421.89595 -208.345747
L 418.89588 -209.245005
L 415.89581 -210.044822
L 412.89574 -210.714263
L 409.895669 -211.241265
L 406.895599 -211.633005
L 403.895529 -211.956243
L 400.895459 -212.325262
L 397.895389 -212.796835
L 394.895319 -213.312478
L 391.895248 -213.78522
L 388.895178 -214.194557
L 385.895108 -214.562832
L 382.895038 -214.900799
L 379.894968 -215.214142
L 376.894898 -215.511983
L 373.894827 -215.78459
L 370.894757 -216.018561
L 367.894687 -216.229467
L 364.894617 -216.4341
L 361.894547 -216.622927
L 358.894477 -216.793207
L 355.894406 -216.962833
L 352.894336 -217.138836
L 349.894266 -217.31207
L 346.894196 -217.472422
L 343.894126 -217.60658
L 340.894056 -217.70873
L 337.893985 -217.804846
L 334.893915 -217.938704
L 331.893845 -218.129286
L 328.893775 -218.356758
L 325.893705 -218.581328
L 322.893635 -218.765055
L 319.893564 -218.890101
L 316.893494 -218.968797
L 313.893424 -219.0306
L 310.893354 -219.094854
L 307.893284 -219.160558
L 304.893214 -219.219181
L 301.893143 -219.264946
L 298.893073 -219.29394
L 295.893003 -219.305491
L 292.892933 -219.305697
L 289.892863 -219.304194
L 286.892793 -219.306843
L 283.892722 -219.312794
L 280.892652 -219.318651
L 277.892582 -219.32332
L 274.892512 -219.32739
L 271.892442 -219.330689
L 268.892372 -219.332663
z
" id="mf1a185e156" style="stroke:#444444;stroke-width:1.5;"/>
    </defs>
    <g clip-path="url(#p23f3615b34)">
     <use style="fill:#d3d3d3;stroke:#444444;stroke-width:1.5;" x="0" xlink:href="#mf1a185e156" y="275.250937"/>
    </g>
   </g>
   <g id="PolyCollection_2">
    <defs>
     <path d="M 359.158916 -146.815876
L 359.158916 -146.891624
L 361.167654 -146.930046
L 363.176392 -146.994156
L 365.18513 -147.090436
L 367.193868 -147.220674
L 369.202606 -147.379797
L 371.211344 -147.556548
L 373.220082 -147.737298
L 375.22882 -147.910948
L 377.237558 -148.071898
L 379.246296 -148.219896
L 381.255034 -148.358872
L 383.263772 -148.498098
L 385.27251 -148.656217
L 387.281248 -148.863956
L 389.289986 -149.159576
L 391.298724 -149.575124
L 393.307462 -150.119093
L 395.3162 -150.766629
L 397.324938 -151.467124
L 399.333676 -152.170243
L 401.342414 -152.859389
L 403.351152 -153.573843
L 405.35989 -154.403842
L 407.368628 -155.456962
L 409.377366 -156.811246
L 411.386104 -158.478882
L 413.394842 -160.397831
L 415.40358 -162.45254
L 417.412318 -164.510054
L 419.421056 -166.453652
L 421.429794 -168.202732
L 423.438532 -169.718182
L 425.44727 -170.998782
L 427.456008 -172.073206
L 429.464746 -172.987587
L 431.473484 -173.787213
L 433.482222 -174.495686
L 435.49096 -175.101366
L 437.499698 -175.560993
L 439.508436 -175.821136
L 441.517174 -175.84575
L 443.525912 -175.633043
L 445.53465 -175.211779
L 447.543388 -174.621079
L 449.552126 -173.88821
L 451.560864 -173.018767
L 453.569602 -172.004448
L 455.57834 -170.842772
L 457.587078 -169.557046
L 459.595816 -168.205335
L 461.604554 -166.872141
L 463.613292 -165.643786
L 465.62203 -164.576354
L 467.630768 -163.670882
L 469.639506 -162.869717
L 471.648244 -162.078347
L 473.656982 -161.202691
L 475.66572 -160.183204
L 477.674458 -159.011056
L 479.683196 -157.724308
L 481.691934 -156.391865
L 483.700672 -155.093443
L 485.70941 -153.899354
L 487.718148 -152.852599
L 489.726886 -151.958834
L 491.735624 -151.190456
L 493.744362 -150.504868
L 495.7531 -149.867862
L 497.761838 -149.269378
L 499.770576 -148.724182
L 501.779314 -148.259544
L 503.788052 -147.898472
L 505.79679 -147.647201
L 507.805528 -147.491607
L 509.814266 -147.402634
L 511.823003 -147.34737
L 513.831741 -147.300519
L 515.840479 -147.251034
L 517.849217 -147.201211
L 519.857955 -147.159693
L 521.866693 -147.133067
L 523.875431 -147.120858
L 525.884169 -147.115923
L 527.892907 -147.108841
L 529.901645 -147.093048
L 531.910383 -147.06786
L 533.919121 -147.038198
L 535.927859 -147.011594
L 537.936597 -146.994199
L 539.945335 -146.987735
L 541.954073 -146.988801
L 543.962811 -146.990753
L 545.971549 -146.987073
L 547.980287 -146.974385
L 549.989025 -146.953579
L 551.997763 -146.928704
L 554.006501 -146.904622
L 556.015239 -146.884909
L 558.023977 -146.87096
L 558.023977 -146.83654
L 558.023977 -146.83654
L 556.015239 -146.822591
L 554.006501 -146.802878
L 551.997763 -146.778796
L 549.989025 -146.753921
L 547.980287 -146.733115
L 545.971549 -146.720427
L 543.962811 -146.716747
L 541.954073 -146.718699
L 539.945335 -146.719765
L 537.936597 -146.713301
L 535.927859 -146.695906
L 533.919121 -146.669302
L 531.910383 -146.63964
L 529.901645 -146.614452
L 527.892907 -146.598659
L 525.884169 -146.591577
L 523.875431 -146.586642
L 521.866693 -146.574433
L 519.857955 -146.547807
L 517.849217 -146.506289
L 515.840479 -146.456466
L 513.831741 -146.406981
L 511.823003 -146.36013
L 509.814266 -146.304866
L 507.805528 -146.215893
L 505.79679 -146.060299
L 503.788052 -145.809028
L 501.779314 -145.447956
L 499.770576 -144.983318
L 497.761838 -144.438122
L 495.7531 -143.839638
L 493.744362 -143.202632
L 491.735624 -142.517044
L 489.726886 -141.748666
L 487.718148 -140.854901
L 485.70941 -139.808146
L 483.700672 -138.614057
L 481.691934 -137.315635
L 479.683196 -135.983192
L 477.674458 -134.696444
L 475.66572 -133.524296
L 473.656982 -132.504809
L 471.648244 -131.629153
L 469.639506 -130.837783
L 467.630768 -130.036618
L 465.62203 -129.131146
L 463.613292 -128.063714
L 461.604554 -126.835359
L 459.595816 -125.502165
L 457.587078 -124.150454
L 455.57834 -122.864728
L 453.569602 -121.703052
L 451.560864 -120.688733
L 449.552126 -119.81929
L 447.543388 -119.086421
L 445.53465 -118.495721
L 443.525912 -118.074457
L 441.517174 -117.86175
L 439.508436 -117.886364
L 437.499698 -118.146507
L 435.49096 -118.606134
L 433.482222 -119.211814
L 431.473484 -119.920287
L 429.464746 -120.719913
L 427.456008 -121.634294
L 425.44727 -122.708718
L 423.438532 -123.989318
L 421.429794 -125.504768
L 419.421056 -127.253848
L 417.412318 -129.197446
L 415.40358 -131.25496
L 413.394842 -133.309669
L 411.386104 -135.228618
L 409.377366 -136.896254
L 407.368628 -138.250538
L 405.35989 -139.303658
L 403.351152 -140.133657
L 401.342414 -140.848111
L 399.333676 -141.537257
L 397.324938 -142.240376
L 395.3162 -142.940871
L 393.307462 -143.588407
L 391.298724 -144.132376
L 389.289986 -144.547924
L 387.281248 -144.843544
L 385.27251 -145.051283
L 383.263772 -145.209402
L 381.255034 -145.348628
L 379.246296 -145.487604
L 377.237558 -145.635602
L 375.22882 -145.796552
L 373.220082 -145.970202
L 371.211344 -146.150952
L 369.202606 -146.327703
L 367.193868 -146.486826
L 365.18513 -146.617064
L 363.176392 -146.713344
L 361.167654 -146.777454
L 359.158916 -146.815876
z
" id="me47aa82233" style="stroke:#444444;stroke-width:1.5;"/>
    </defs>
    <g clip-path="url(#p23f3615b34)">
     <use style="fill:#3d7ca6;stroke:#444444;stroke-width:1.5;" x="0" xlink:href="#me47aa82233" y="275.250937"/>
    </g>
   </g>
   <g id="PolyCollection_3">
    <defs>
     <path d="M 261.535682 -74.359821
L 261.535682 -74.387679
L 263.959917 -74.397081
L 266.384152 -74.409954
L 268.808388 -74.425812
L 271.232623 -74.443186
L 273.656858 -74.459797
L 276.081093 -74.473238
L 278.505329 -74.482077
L 280.929564 -74.48707
L 283.353799 -74.492095
L 285.778034 -74.50447
L 288.20227 -74.534517
L 290.626505 -74.594422
L 293.05074 -74.696537
L 295.474975 -74.851385
L 297.899211 -75.065769
L 300.323446 -75.341598
L 302.747681 -75.676127
L 305.171917 -76.064113
L 307.596152 -76.501812
L 310.020387 -76.991793
L 312.444622 -77.546692
L 314.868858 -78.189617
L 317.293093 -78.949529
L 319.717328 -79.851701
L 322.141563 -80.905779
L 324.565799 -82.095971
L 326.990034 -83.378185
L 329.414269 -84.686884
L 331.838504 -85.950595
L 334.26274 -87.111164
L 336.686975 -88.139722
L 339.11121 -89.04322
L 341.535445 -89.858823
L 343.959681 -90.638067
L 346.383916 -91.426529
L 348.808151 -92.246244
L 351.232387 -93.086888
L 353.656622 -93.908231
L 356.080857 -94.652161
L 358.505092 -95.259222
L 360.929328 -95.683493
L 363.353563 -95.9011
L 365.777798 -95.910945
L 368.202033 -95.729712
L 370.626269 -95.385068
L 373.050504 -94.910445
L 375.474739 -94.34241
L 377.898974 -93.719061
L 380.32321 -93.077008
L 382.747445 -92.445767
L 385.17168 -91.84107
L 387.595915 -91.260477
L 390.020151 -90.684401
L 392.444386 -90.083258
L 394.868621 -89.428559
L 397.292857 -88.70399
L 399.717092 -87.912575
L 402.141327 -87.077395
L 404.565562 -86.235401
L 406.989798 -85.426214
L 409.414033 -84.679948
L 411.838268 -84.008961
L 414.262503 -83.407155
L 416.686739 -82.857074
L 419.110974 -82.341077
L 421.535209 -81.850739
L 423.959444 -81.389556
L 426.38368 -80.967864
L 428.807915 -80.593207
L 431.23215 -80.261904
L 433.656385 -79.956659
L 436.080621 -79.651494
L 438.504856 -79.32125
L 440.929091 -78.950838
L 443.353327 -78.540171
L 445.777562 -78.103277
L 448.201797 -77.662765
L 450.626032 -77.242237
L 453.050268 -76.85936
L 455.474503 -76.521709
L 457.898738 -76.226459
L 460.322973 -75.963752
L 462.747209 -75.722253
L 465.171444 -75.494473
L 467.595679 -75.27964
L 470.019914 -75.083075
L 472.44415 -74.91279
L 474.868385 -74.775222
L 477.29262 -74.672155
L 479.716855 -74.599996
L 482.141091 -74.551307
L 484.565326 -74.517498
L 486.989561 -74.491342
L 489.413797 -74.468377
L 491.838032 -74.446958
L 494.262267 -74.42735
L 496.686502 -74.410536
L 499.110738 -74.397285
L 501.534973 -74.387745
L 501.534973 -74.359755
L 501.534973 -74.359755
L 499.110738 -74.350215
L 496.686502 -74.336964
L 494.262267 -74.32015
L 491.838032 -74.300542
L 489.413797 -74.279123
L 486.989561 -74.256158
L 484.565326 -74.230002
L 482.141091 -74.196193
L 479.716855 -74.147504
L 477.29262 -74.075345
L 474.868385 -73.972278
L 472.44415 -73.83471
L 470.019914 -73.664425
L 467.595679 -73.46786
L 465.171444 -73.253027
L 462.747209 -73.025247
L 460.322973 -72.783748
L 457.898738 -72.521041
L 455.474503 -72.225791
L 453.050268 -71.88814
L 450.626032 -71.505263
L 448.201797 -71.084735
L 445.777562 -70.644223
L 443.353327 -70.207329
L 440.929091 -69.796662
L 438.504856 -69.42625
L 436.080621 -69.096006
L 433.656385 -68.790841
L 431.23215 -68.485596
L 428.807915 -68.154293
L 426.38368 -67.779636
L 423.959444 -67.357944
L 421.535209 -66.896761
L 419.110974 -66.406423
L 416.686739 -65.890426
L 414.262503 -65.340345
L 411.838268 -64.738539
L 409.414033 -64.067552
L 406.989798 -63.321286
L 404.565562 -62.512099
L 402.141327 -61.670105
L 399.717092 -60.834925
L 397.292857 -60.04351
L 394.868621 -59.318941
L 392.444386 -58.664242
L 390.020151 -58.063099
L 387.595915 -57.487023
L 385.17168 -56.90643
L 382.747445 -56.301733
L 380.32321 -55.670492
L 377.898974 -55.028439
L 375.474739 -54.40509
L 373.050504 -53.837055
L 370.626269 -53.362432
L 368.202033 -53.017788
L 365.777798 -52.836555
L 363.353563 -52.8464
L 360.929328 -53.064007
L 358.505092 -53.488278
L 356.080857 -54.095339
L 353.656622 -54.839269
L 351.232387 -55.660612
L 348.808151 -56.501256
L 346.383916 -57.320971
L 343.959681 -58.109433
L 341.535445 -58.888677
L 339.11121 -59.70428
L 336.686975 -60.607778
L 334.26274 -61.636336
L 331.838504 -62.796905
L 329.414269 -64.060616
L 326.990034 -65.369315
L 324.565799 -66.651529
L 322.141563 -67.841721
L 319.717328 -68.895799
L 317.293093 -69.797971
L 314.868858 -70.557883
L 312.444622 -71.200808
L 310.020387 -71.755707
L 307.596152 -72.245688
L 305.171917 -72.683387
L 302.747681 -73.071373
L 300.323446 -73.405902
L 297.899211 -73.681731
L 295.474975 -73.896115
L 293.05074 -74.050963
L 290.626505 -74.153078
L 288.20227 -74.212983
L 285.778034 -74.24303
L 283.353799 -74.255405
L 280.929564 -74.26043
L 278.505329 -74.265423
L 276.081093 -74.274262
L 273.656858 -74.287703
L 271.232623 -74.304314
L 268.808388 -74.321688
L 266.384152 -74.337546
L 263.959917 -74.350419
L 261.535682 -74.359821
z
" id="m8ef55ef973" style="stroke:#444444;stroke-width:1.5;"/>
    </defs>
    <g clip-path="url(#p23f3615b34)">
     <use style="fill:#b4d4df;stroke:#444444;stroke-width:1.5;" x="0" xlink:href="#m8ef55ef973" y="275.250937"/>
    </g>
   </g>
   <g id="matplotlib.axis_1">
    <g id="xtick_1">
     <g id="line2d_1">
      <defs>
       <path d="M 0 0
L 0 3.5
" id="m2ab18df37e" style="stroke:#000000;stroke-width:0.8;"/>
      </defs>
      <g>
       <use style="stroke:#000000;stroke-width:0.8;" x="249.319062" xlink:href="#m2ab18df37e" y="237.117187"/>
      </g>
     </g>
     <g id="text_1">
      <!-- −2 -->
      <defs>
       <path d="M 10.59375 35.5
L 73.1875 35.5
L 73.1875 27.203125
L 10.59375 27.203125
z
" id="DejaVuSans-8722"/>
       <path d="M 19.1875 8.296875
L 53.609375 8.296875
L 53.609375 0
L 7.328125 0
L 7.328125 8.296875
Q 12.9375 14.109375 22.625 23.890625
Q 32.328125 33.6875 34.8125 36.53125
Q 39.546875 41.84375 41.421875 45.53125
Q 43.3125 49.21875 43.3125 52.78125
Q 43.3125 58.59375 39.234375 62.25
Q 35.15625 65.921875 28.609375 65.921875
Q 23.96875 65.921875 18.8125 64.3125
Q 13.671875 62.703125 7.8125 59.421875
L 7.8125 69.390625
Q 13.765625 71.78125 18.9375 73
Q 24.125 74.21875 28.421875 74.21875
Q 39.75 74.21875 46.484375 68.546875
Q 53.21875 62.890625 53.21875 53.421875
Q 53.21875 48.921875 51.53125 44.890625
Q 49.859375 40.875 45.40625 35.40625
Q 44.1875 33.984375 37.640625 27.21875
Q 31.109375 20.453125 19.1875 8.296875
z
" id="DejaVuSans-50"/>
      </defs>
      <g transform="translate(240.47375 253.235312)scale(0.12 -0.12)">
       <use xlink:href="#DejaVuSans-8722"/>
       <use x="83.789062" xlink:href="#DejaVuSans-50"/>
      </g>
     </g>
    </g>
    <g id="xtick_2">
     <g id="line2d_2">
      <g>
       <use style="stroke:#000000;stroke-width:0.8;" x="291.698222" xlink:href="#m2ab18df37e" y="237.117187"/>
      </g>
     </g>
     <g id="text_2">
      <!-- −1 -->
      <defs>
       <path d="M 12.40625 8.296875
L 28.515625 8.296875
L 28.515625 63.921875
L 10.984375 60.40625
L 10.984375 69.390625
L 28.421875 72.90625
L 38.28125 72.90625
L 38.28125 8.296875
L 54.390625 8.296875
L 54.390625 0
L 12.40625 0
z
" id="DejaVuSans-49"/>
      </defs>
      <g transform="translate(282.852909 253.235312)scale(0.12 -0.12)">
       <use xlink:href="#DejaVuSans-8722"/>
       <use x="83.789062" xlink:href="#DejaVuSans-49"/>
      </g>
     </g>
    </g>
    <g id="xtick_3">
     <g id="line2d_3">
      <g>
       <use style="stroke:#000000;stroke-width:0.8;" x="334.077382" xlink:href="#m2ab18df37e" y="237.117187"/>
      </g>
     </g>
     <g id="text_3">
      <!-- 0 -->
      <defs>
       <path d="M 31.78125 66.40625
Q 24.171875 66.40625 20.328125 58.90625
Q 16.5 51.421875 16.5 36.375
Q 16.5 21.390625 20.328125 13.890625
Q 24.171875 6.390625 31.78125 6.390625
Q 39.453125 6.390625 43.28125 13.890625
Q 47.125 21.390625 47.125 36.375
Q 47.125 51.421875 43.28125 58.90625
Q 39.453125 66.40625 31.78125 66.40625
z
M 31.78125 74.21875
Q 44.046875 74.21875 50.515625 64.515625
Q 56.984375 54.828125 56.984375 36.375
Q 56.984375 17.96875 50.515625 8.265625
Q 44.046875 -1.421875 31.78125 -1.421875
Q 19.53125 -1.421875 13.0625 8.265625
Q 6.59375 17.96875 6.59375 36.375
Q 6.59375 54.828125 13.0625 64.515625
Q 19.53125 74.21875 31.78125 74.21875
z
" id="DejaVuSans-48"/>
      </defs>
      <g transform="translate(330.259882 253.235312)scale(0.12 -0.12)">
       <use xlink:href="#DejaVuSans-48"/>
      </g>
     </g>
    </g>
    <g id="xtick_4">
     <g id="line2d_4">
      <g>
       <use style="stroke:#000000;stroke-width:0.8;" x="376.456542" xlink:href="#m2ab18df37e" y="237.117187"/>
      </g>
     </g>
     <g id="text_4">
      <!-- 1 -->
      <g transform="translate(372.639042 253.235312)scale(0.12 -0.12)">
       <use xlink:href="#DejaVuSans-49"/>
      </g>
     </g>
    </g>
    <g id="xtick_5">
     <g id="line2d_5">
      <g>
       <use style="stroke:#000000;stroke-width:0.8;" x="418.835702" xlink:href="#m2ab18df37e" y="237.117187"/>
      </g>
     </g>
     <g id="text_5">
      <!-- 2 -->
      <g transform="translate(415.018202 253.235312)scale(0.12 -0.12)">
       <use xlink:href="#DejaVuSans-50"/>
      </g>
     </g>
    </g>
    <g id="xtick_6">
     <g id="line2d_6">
      <g>
       <use style="stroke:#000000;stroke-width:0.8;" x="461.214862" xlink:href="#m2ab18df37e" y="237.117187"/>
      </g>
     </g>
     <g id="text_6">
      <!-- 3 -->
      <defs>
       <path d="M 40.578125 39.3125
Q 47.65625 37.796875 51.625 33
Q 55.609375 28.21875 55.609375 21.1875
Q 55.609375 10.40625 48.1875 4.484375
Q 40.765625 -1.421875 27.09375 -1.421875
Q 22.515625 -1.421875 17.65625 -0.515625
Q 12.796875 0.390625 7.625 2.203125
L 7.625 11.71875
Q 11.71875 9.328125 16.59375 8.109375
Q 21.484375 6.890625 26.8125 6.890625
Q 36.078125 6.890625 40.9375 10.546875
Q 45.796875 14.203125 45.796875 21.1875
Q 45.796875 27.640625 41.28125 31.265625
Q 36.765625 34.90625 28.71875 34.90625
L 20.21875 34.90625
L 20.21875 43.015625
L 29.109375 43.015625
Q 36.375 43.015625 40.234375 45.921875
Q 44.09375 48.828125 44.09375 54.296875
Q 44.09375 59.90625 40.109375 62.90625
Q 36.140625 65.921875 28.71875 65.921875
Q 24.65625 65.921875 20.015625 65.03125
Q 15.375 64.15625 9.8125 62.3125
L 9.8125 71.09375
Q 15.4375 72.65625 20.34375 73.4375
Q 25.25 74.21875 29.59375 74.21875
Q 40.828125 74.21875 47.359375 69.109375
Q 53.90625 64.015625 53.90625 55.328125
Q 53.90625 49.265625 50.4375 45.09375
Q 46.96875 40.921875 40.578125 39.3125
z
" id="DejaVuSans-51"/>
      </defs>
      <g transform="translate(457.397362 253.235312)scale(0.12 -0.12)">
       <use xlink:href="#DejaVuSans-51"/>
      </g>
     </g>
    </g>
    <g id="xtick_7">
     <g id="line2d_7">
      <g>
       <use style="stroke:#000000;stroke-width:0.8;" x="503.594022" xlink:href="#m2ab18df37e" y="237.117187"/>
      </g>
     </g>
     <g id="text_7">
      <!-- 4 -->
      <defs>
       <path d="M 37.796875 64.3125
L 12.890625 25.390625
L 37.796875 25.390625
z
M 35.203125 72.90625
L 47.609375 72.90625
L 47.609375 25.390625
L 58.015625 25.390625
L 58.015625 17.1875
L 47.609375 17.1875
L 47.609375 0
L 37.796875 0
L 37.796875 17.1875
L 4.890625 17.1875
L 4.890625 26.703125
z
" id="DejaVuSans-52"/>
      </defs>
      <g transform="translate(499.776522 253.235312)scale(0.12 -0.12)">
       <use xlink:href="#DejaVuSans-52"/>
      </g>
     </g>
    </g>
    <g id="xtick_8">
     <g id="line2d_8">
      <g>
       <use style="stroke:#000000;stroke-width:0.8;" x="545.973182" xlink:href="#m2ab18df37e" y="237.117187"/>
      </g>
     </g>
     <g id="text_8">
      <!-- 5 -->
      <defs>
       <path d="M 10.796875 72.90625
L 49.515625 72.90625
L 49.515625 64.59375
L 19.828125 64.59375
L 19.828125 46.734375
Q 21.96875 47.46875 24.109375 47.828125
Q 26.265625 48.1875 28.421875 48.1875
Q 40.625 48.1875 47.75 41.5
Q 54.890625 34.8125 54.890625 23.390625
Q 54.890625 11.625 47.5625 5.09375
Q 40.234375 -1.421875 26.90625 -1.421875
Q 22.3125 -1.421875 17.546875 -0.640625
Q 12.796875 0.140625 7.71875 1.703125
L 7.71875 11.625
Q 12.109375 9.234375 16.796875 8.0625
Q 21.484375 6.890625 26.703125 6.890625
Q 35.15625 6.890625 40.078125 11.328125
Q 45.015625 15.765625 45.015625 23.390625
Q 45.015625 31 40.078125 35.4375
Q 35.15625 39.890625 26.703125 39.890625
Q 22.75 39.890625 18.8125 39.015625
Q 14.890625 38.140625 10.796875 36.28125
z
" id="DejaVuSans-53"/>
      </defs>
      <g transform="translate(542.155682 253.235312)scale(0.12 -0.12)">
       <use xlink:href="#DejaVuSans-53"/>
      </g>
     </g>
    </g>
    <g id="text_9">
     <!-- log$_{10}$ (average expression) -->
     <defs>
      <path d="M 9.421875 75.984375
L 18.40625 75.984375
L 18.40625 0
L 9.421875 0
z
" id="DejaVuSans-108"/>
      <path d="M 30.609375 48.390625
Q 23.390625 48.390625 19.1875 42.75
Q 14.984375 37.109375 14.984375 27.296875
Q 14.984375 17.484375 19.15625 11.84375
Q 23.34375 6.203125 30.609375 6.203125
Q 37.796875 6.203125 41.984375 11.859375
Q 46.1875 17.53125 46.1875 27.296875
Q 46.1875 37.015625 41.984375 42.703125
Q 37.796875 48.390625 30.609375 48.390625
z
M 30.609375 56
Q 42.328125 56 49.015625 48.375
Q 55.71875 40.765625 55.71875 27.296875
Q 55.71875 13.875 49.015625 6.21875
Q 42.328125 -1.421875 30.609375 -1.421875
Q 18.84375 -1.421875 12.171875 6.21875
Q 5.515625 13.875 5.515625 27.296875
Q 5.515625 40.765625 12.171875 48.375
Q 18.84375 56 30.609375 56
z
" id="DejaVuSans-111"/>
      <path d="M 45.40625 27.984375
Q 45.40625 37.75 41.375 43.109375
Q 37.359375 48.484375 30.078125 48.484375
Q 22.859375 48.484375 18.828125 43.109375
Q 14.796875 37.75 14.796875 27.984375
Q 14.796875 18.265625 18.828125 12.890625
Q 22.859375 7.515625 30.078125 7.515625
Q 37.359375 7.515625 41.375 12.890625
Q 45.40625 18.265625 45.40625 27.984375
z
M 54.390625 6.78125
Q 54.390625 -7.171875 48.1875 -13.984375
Q 42 -20.796875 29.203125 -20.796875
Q 24.46875 -20.796875 20.265625 -20.09375
Q 16.0625 -19.390625 12.109375 -17.921875
L 12.109375 -9.1875
Q 16.0625 -11.328125 19.921875 -12.34375
Q 23.78125 -13.375 27.78125 -13.375
Q 36.625 -13.375 41.015625 -8.765625
Q 45.40625 -4.15625 45.40625 5.171875
L 45.40625 9.625
Q 42.625 4.78125 38.28125 2.390625
Q 33.9375 0 27.875 0
Q 17.828125 0 11.671875 7.65625
Q 5.515625 15.328125 5.515625 27.984375
Q 5.515625 40.671875 11.671875 48.328125
Q 17.828125 56 27.875 56
Q 33.9375 56 38.28125 53.609375
Q 42.625 51.21875 45.40625 46.390625
L 45.40625 54.6875
L 54.390625 54.6875
z
" id="DejaVuSans-103"/>
      <path id="DejaVuSans-32"/>
      <path d="M 31 75.875
Q 24.46875 64.65625 21.28125 53.65625
Q 18.109375 42.671875 18.109375 31.390625
Q 18.109375 20.125 21.3125 9.0625
Q 24.515625 -2 31 -13.1875
L 23.1875 -13.1875
Q 15.875 -1.703125 12.234375 9.375
Q 8.59375 20.453125 8.59375 31.390625
Q 8.59375 42.28125 12.203125 53.3125
Q 15.828125 64.359375 23.1875 75.875
z
" id="DejaVuSans-40"/>
      <path d="M 34.28125 27.484375
Q 23.390625 27.484375 19.1875 25
Q 14.984375 22.515625 14.984375 16.5
Q 14.984375 11.71875 18.140625 8.90625
Q 21.296875 6.109375 26.703125 6.109375
Q 34.1875 6.109375 38.703125 11.40625
Q 43.21875 16.703125 43.21875 25.484375
L 43.21875 27.484375
z
M 52.203125 31.203125
L 52.203125 0
L 43.21875 0
L 43.21875 8.296875
Q 40.140625 3.328125 35.546875 0.953125
Q 30.953125 -1.421875 24.3125 -1.421875
Q 15.921875 -1.421875 10.953125 3.296875
Q 6 8.015625 6 15.921875
Q 6 25.140625 12.171875 29.828125
Q 18.359375 34.515625 30.609375 34.515625
L 43.21875 34.515625
L 43.21875 35.40625
Q 43.21875 41.609375 39.140625 45
Q 35.0625 48.390625 27.6875 48.390625
Q 23 48.390625 18.546875 47.265625
Q 14.109375 46.140625 10.015625 43.890625
L 10.015625 52.203125
Q 14.9375 54.109375 19.578125 55.046875
Q 24.21875 56 28.609375 56
Q 40.484375 56 46.34375 49.84375
Q 52.203125 43.703125 52.203125 31.203125
z
" id="DejaVuSans-97"/>
      <path d="M 2.984375 54.6875
L 12.5 54.6875
L 29.59375 8.796875
L 46.6875 54.6875
L 56.203125 54.6875
L 35.6875 0
L 23.484375 0
z
" id="DejaVuSans-118"/>
      <path d="M 56.203125 29.59375
L 56.203125 25.203125
L 14.890625 25.203125
Q 15.484375 15.921875 20.484375 11.0625
Q 25.484375 6.203125 34.421875 6.203125
Q 39.59375 6.203125 44.453125 7.46875
Q 49.3125 8.734375 54.109375 11.28125
L 54.109375 2.78125
Q 49.265625 0.734375 44.1875 -0.34375
Q 39.109375 -1.421875 33.890625 -1.421875
Q 20.796875 -1.421875 13.15625 6.1875
Q 5.515625 13.8125 5.515625 26.8125
Q 5.515625 40.234375 12.765625 48.109375
Q 20.015625 56 32.328125 56
Q 43.359375 56 49.78125 48.890625
Q 56.203125 41.796875 56.203125 29.59375
z
M 47.21875 32.234375
Q 47.125 39.59375 43.09375 43.984375
Q 39.0625 48.390625 32.421875 48.390625
Q 24.90625 48.390625 20.390625 44.140625
Q 15.875 39.890625 15.1875 32.171875
z
" id="DejaVuSans-101"/>
      <path d="M 41.109375 46.296875
Q 39.59375 47.171875 37.8125 47.578125
Q 36.03125 48 33.890625 48
Q 26.265625 48 22.1875 43.046875
Q 18.109375 38.09375 18.109375 28.8125
L 18.109375 0
L 9.078125 0
L 9.078125 54.6875
L 18.109375 54.6875
L 18.109375 46.1875
Q 20.953125 51.171875 25.484375 53.578125
Q 30.03125 56 36.53125 56
Q 37.453125 56 38.578125 55.875
Q 39.703125 55.765625 41.0625 55.515625
z
" id="DejaVuSans-114"/>
      <path d="M 54.890625 54.6875
L 35.109375 28.078125
L 55.90625 0
L 45.3125 0
L 29.390625 21.484375
L 13.484375 0
L 2.875 0
L 24.125 28.609375
L 4.6875 54.6875
L 15.28125 54.6875
L 29.78125 35.203125
L 44.28125 54.6875
z
" id="DejaVuSans-120"/>
      <path d="M 18.109375 8.203125
L 18.109375 -20.796875
L 9.078125 -20.796875
L 9.078125 54.6875
L 18.109375 54.6875
L 18.109375 46.390625
Q 20.953125 51.265625 25.265625 53.625
Q 29.59375 56 35.59375 56
Q 45.5625 56 51.78125 48.09375
Q 58.015625 40.1875 58.015625 27.296875
Q 58.015625 14.40625 51.78125 6.484375
Q 45.5625 -1.421875 35.59375 -1.421875
Q 29.59375 -1.421875 25.265625 0.953125
Q 20.953125 3.328125 18.109375 8.203125
z
M 48.6875 27.296875
Q 48.6875 37.203125 44.609375 42.84375
Q 40.53125 48.484375 33.40625 48.484375
Q 26.265625 48.484375 22.1875 42.84375
Q 18.109375 37.203125 18.109375 27.296875
Q 18.109375 17.390625 22.1875 11.75
Q 26.265625 6.109375 33.40625 6.109375
Q 40.53125 6.109375 44.609375 11.75
Q 48.6875 17.390625 48.6875 27.296875
z
" id="DejaVuSans-112"/>
      <path d="M 44.28125 53.078125
L 44.28125 44.578125
Q 40.484375 46.53125 36.375 47.5
Q 32.28125 48.484375 27.875 48.484375
Q 21.1875 48.484375 17.84375 46.4375
Q 14.5 44.390625 14.5 40.28125
Q 14.5 37.15625 16.890625 35.375
Q 19.28125 33.59375 26.515625 31.984375
L 29.59375 31.296875
Q 39.15625 29.25 43.1875 25.515625
Q 47.21875 21.78125 47.21875 15.09375
Q 47.21875 7.46875 41.1875 3.015625
Q 35.15625 -1.421875 24.609375 -1.421875
Q 20.21875 -1.421875 15.453125 -0.5625
Q 10.6875 0.296875 5.421875 2
L 5.421875 11.28125
Q 10.40625 8.6875 15.234375 7.390625
Q 20.0625 6.109375 24.8125 6.109375
Q 31.15625 6.109375 34.5625 8.28125
Q 37.984375 10.453125 37.984375 14.40625
Q 37.984375 18.0625 35.515625 20.015625
Q 33.0625 21.96875 24.703125 23.78125
L 21.578125 24.515625
Q 13.234375 26.265625 9.515625 29.90625
Q 5.8125 33.546875 5.8125 39.890625
Q 5.8125 47.609375 11.28125 51.796875
Q 16.75 56 26.8125 56
Q 31.78125 56 36.171875 55.265625
Q 40.578125 54.546875 44.28125 53.078125
z
" id="DejaVuSans-115"/>
      <path d="M 9.421875 54.6875
L 18.40625 54.6875
L 18.40625 0
L 9.421875 0
z
M 9.421875 75.984375
L 18.40625 75.984375
L 18.40625 64.59375
L 9.421875 64.59375
z
" id="DejaVuSans-105"/>
      <path d="M 54.890625 33.015625
L 54.890625 0
L 45.90625 0
L 45.90625 32.71875
Q 45.90625 40.484375 42.875 44.328125
Q 39.84375 48.1875 33.796875 48.1875
Q 26.515625 48.1875 22.3125 43.546875
Q 18.109375 38.921875 18.109375 30.90625
L 18.109375 0
L 9.078125 0
L 9.078125 54.6875
L 18.109375 54.6875
L 18.109375 46.1875
Q 21.34375 51.125 25.703125 53.5625
Q 30.078125 56 35.796875 56
Q 45.21875 56 50.046875 50.171875
Q 54.890625 44.34375 54.890625 33.015625
z
" id="DejaVuSans-110"/>
      <path d="M 8.015625 75.875
L 15.828125 75.875
Q 23.140625 64.359375 26.78125 53.3125
Q 30.421875 42.28125 30.421875 31.390625
Q 30.421875 20.453125 26.78125 9.375
Q 23.140625 -1.703125 15.828125 -13.1875
L 8.015625 -13.1875
Q 14.5 -2 17.703125 9.0625
Q 20.90625 20.125 20.90625 31.390625
Q 20.90625 42.671875 17.703125 53.65625
Q 14.5 64.65625 8.015625 75.875
z
" id="DejaVuSans-41"/>
     </defs>
     <g transform="translate(306.5175 271.890937)scale(0.16 -0.16)">
      <use transform="translate(0 0.015625)" xlink:href="#DejaVuSans-108"/>
      <use transform="translate(27.783203 0.015625)" xlink:href="#DejaVuSans-111"/>
      <use transform="translate(88.964844 0.015625)" xlink:href="#DejaVuSans-103"/>
      <use transform="translate(153.398438 -16.390625)scale(0.7)" xlink:href="#DejaVuSans-49"/>
      <use transform="translate(197.93457 -16.390625)scale(0.7)" xlink:href="#DejaVuSans-48"/>
      <use transform="translate(245.205078 0.015625)" xlink:href="#DejaVuSans-32"/>
      <use transform="translate(276.992188 0.015625)" xlink:href="#DejaVuSans-40"/>
      <use transform="translate(316.005859 0.015625)" xlink:href="#DejaVuSans-97"/>
      <use transform="translate(377.285156 0.015625)" xlink:href="#DejaVuSans-118"/>
      <use transform="translate(436.464844 0.015625)" xlink:href="#DejaVuSans-101"/>
      <use transform="translate(497.988281 0.015625)" xlink:href="#DejaVuSans-114"/>
      <use transform="translate(539.101562 0.015625)" xlink:href="#DejaVuSans-97"/>
      <use transform="translate(600.380859 0.015625)" xlink:href="#DejaVuSans-103"/>
      <use transform="translate(663.857422 0.015625)" xlink:href="#DejaVuSans-101"/>
      <use transform="translate(725.380859 0.015625)" xlink:href="#DejaVuSans-32"/>
      <use transform="translate(757.167969 0.015625)" xlink:href="#DejaVuSans-101"/>
      <use transform="translate(818.691406 0.015625)" xlink:href="#DejaVuSans-120"/>
      <use transform="translate(877.871094 0.015625)" xlink:href="#DejaVuSans-112"/>
      <use transform="translate(941.347656 0.015625)" xlink:href="#DejaVuSans-114"/>
      <use transform="translate(982.460938 0.015625)" xlink:href="#DejaVuSans-101"/>
      <use transform="translate(1043.984375 0.015625)" xlink:href="#DejaVuSans-115"/>
      <use transform="translate(1096.083984 0.015625)" xlink:href="#DejaVuSans-115"/>
      <use transform="translate(1148.183594 0.015625)" xlink:href="#DejaVuSans-105"/>
      <use transform="translate(1175.966797 0.015625)" xlink:href="#DejaVuSans-111"/>
      <use transform="translate(1237.148438 0.015625)" xlink:href="#DejaVuSans-110"/>
      <use transform="translate(1300.527344 0.015625)" xlink:href="#DejaVuSans-41"/>
     </g>
    </g>
   </g>
   <g id="matplotlib.axis_2">
    <g id="ytick_1">
     <g id="line2d_9">
      <defs>
       <path d="M 0 0
L -3.5 0
" id="mafe8b16590" style="stroke:#000000;stroke-width:0.8;"/>
      </defs>
      <g>
       <use style="stroke:#000000;stroke-width:0.8;" x="246.3175" xlink:href="#mafe8b16590" y="55.917187"/>
      </g>
     </g>
     <g id="text_10">
      <!-- all genes -->
      <g transform="translate(167.215 61.995937)scale(0.16 -0.16)">
       <use xlink:href="#DejaVuSans-97"/>
       <use x="61.279297" xlink:href="#DejaVuSans-108"/>
       <use x="89.0625" xlink:href="#DejaVuSans-108"/>
       <use x="116.845703" xlink:href="#DejaVuSans-32"/>
       <use x="148.632812" xlink:href="#DejaVuSans-103"/>
       <use x="212.109375" xlink:href="#DejaVuSans-101"/>
       <use x="273.632812" xlink:href="#DejaVuSans-110"/>
       <use x="337.011719" xlink:href="#DejaVuSans-101"/>
       <use x="398.535156" xlink:href="#DejaVuSans-115"/>
      </g>
     </g>
    </g>
    <g id="ytick_2">
     <g id="line2d_10">
      <g>
       <use style="stroke:#000000;stroke-width:0.8;" x="246.3175" xlink:href="#mafe8b16590" y="128.397187"/>
      </g>
     </g>
     <g id="text_11">
      <!-- common in RNAseq and array -->
      <defs>
       <path d="M 48.78125 52.59375
L 48.78125 44.1875
Q 44.96875 46.296875 41.140625 47.34375
Q 37.3125 48.390625 33.40625 48.390625
Q 24.65625 48.390625 19.8125 42.84375
Q 14.984375 37.3125 14.984375 27.296875
Q 14.984375 17.28125 19.8125 11.734375
Q 24.65625 6.203125 33.40625 6.203125
Q 37.3125 6.203125 41.140625 7.25
Q 44.96875 8.296875 48.78125 10.40625
L 48.78125 2.09375
Q 45.015625 0.34375 40.984375 -0.53125
Q 36.96875 -1.421875 32.421875 -1.421875
Q 20.0625 -1.421875 12.78125 6.34375
Q 5.515625 14.109375 5.515625 27.296875
Q 5.515625 40.671875 12.859375 48.328125
Q 20.21875 56 33.015625 56
Q 37.15625 56 41.109375 55.140625
Q 45.0625 54.296875 48.78125 52.59375
z
" id="DejaVuSans-99"/>
       <path d="M 52 44.1875
Q 55.375 50.25 60.0625 53.125
Q 64.75 56 71.09375 56
Q 79.640625 56 84.28125 50.015625
Q 88.921875 44.046875 88.921875 33.015625
L 88.921875 0
L 79.890625 0
L 79.890625 32.71875
Q 79.890625 40.578125 77.09375 44.375
Q 74.3125 48.1875 68.609375 48.1875
Q 61.625 48.1875 57.5625 43.546875
Q 53.515625 38.921875 53.515625 30.90625
L 53.515625 0
L 44.484375 0
L 44.484375 32.71875
Q 44.484375 40.625 41.703125 44.40625
Q 38.921875 48.1875 33.109375 48.1875
Q 26.21875 48.1875 22.15625 43.53125
Q 18.109375 38.875 18.109375 30.90625
L 18.109375 0
L 9.078125 0
L 9.078125 54.6875
L 18.109375 54.6875
L 18.109375 46.1875
Q 21.1875 51.21875 25.484375 53.609375
Q 29.78125 56 35.6875 56
Q 41.65625 56 45.828125 52.96875
Q 50 49.953125 52 44.1875
z
" id="DejaVuSans-109"/>
       <path d="M 44.390625 34.1875
Q 47.5625 33.109375 50.5625 29.59375
Q 53.5625 26.078125 56.59375 19.921875
L 66.609375 0
L 56 0
L 46.6875 18.703125
Q 43.0625 26.03125 39.671875 28.421875
Q 36.28125 30.8125 30.421875 30.8125
L 19.671875 30.8125
L 19.671875 0
L 9.8125 0
L 9.8125 72.90625
L 32.078125 72.90625
Q 44.578125 72.90625 50.734375 67.671875
Q 56.890625 62.453125 56.890625 51.90625
Q 56.890625 45.015625 53.6875 40.46875
Q 50.484375 35.9375 44.390625 34.1875
z
M 19.671875 64.796875
L 19.671875 38.921875
L 32.078125 38.921875
Q 39.203125 38.921875 42.84375 42.21875
Q 46.484375 45.515625 46.484375 51.90625
Q 46.484375 58.296875 42.84375 61.546875
Q 39.203125 64.796875 32.078125 64.796875
z
" id="DejaVuSans-82"/>
       <path d="M 9.8125 72.90625
L 23.09375 72.90625
L 55.421875 11.921875
L 55.421875 72.90625
L 64.984375 72.90625
L 64.984375 0
L 51.703125 0
L 19.390625 60.984375
L 19.390625 0
L 9.8125 0
z
" id="DejaVuSans-78"/>
       <path d="M 34.1875 63.1875
L 20.796875 26.90625
L 47.609375 26.90625
z
M 28.609375 72.90625
L 39.796875 72.90625
L 67.578125 0
L 57.328125 0
L 50.6875 18.703125
L 17.828125 18.703125
L 11.1875 0
L 0.78125 0
z
" id="DejaVuSans-65"/>
       <path d="M 14.796875 27.296875
Q 14.796875 17.390625 18.875 11.75
Q 22.953125 6.109375 30.078125 6.109375
Q 37.203125 6.109375 41.296875 11.75
Q 45.40625 17.390625 45.40625 27.296875
Q 45.40625 37.203125 41.296875 42.84375
Q 37.203125 48.484375 30.078125 48.484375
Q 22.953125 48.484375 18.875 42.84375
Q 14.796875 37.203125 14.796875 27.296875
z
M 45.40625 8.203125
Q 42.578125 3.328125 38.25 0.953125
Q 33.9375 -1.421875 27.875 -1.421875
Q 17.96875 -1.421875 11.734375 6.484375
Q 5.515625 14.40625 5.515625 27.296875
Q 5.515625 40.1875 11.734375 48.09375
Q 17.96875 56 27.875 56
Q 33.9375 56 38.25 53.625
Q 42.578125 51.265625 45.40625 46.390625
L 45.40625 54.6875
L 54.390625 54.6875
L 54.390625 -20.796875
L 45.40625 -20.796875
z
" id="DejaVuSans-113"/>
       <path d="M 45.40625 46.390625
L 45.40625 75.984375
L 54.390625 75.984375
L 54.390625 0
L 45.40625 0
L 45.40625 8.203125
Q 42.578125 3.328125 38.25 0.953125
Q 33.9375 -1.421875 27.875 -1.421875
Q 17.96875 -1.421875 11.734375 6.484375
Q 5.515625 14.40625 5.515625 27.296875
Q 5.515625 40.1875 11.734375 48.09375
Q 17.96875 56 27.875 56
Q 33.9375 56 38.25 53.625
Q 42.578125 51.265625 45.40625 46.390625
z
M 14.796875 27.296875
Q 14.796875 17.390625 18.875 11.75
Q 22.953125 6.109375 30.078125 6.109375
Q 37.203125 6.109375 41.296875 11.75
Q 45.40625 17.390625 45.40625 27.296875
Q 45.40625 37.203125 41.296875 42.84375
Q 37.203125 48.484375 30.078125 48.484375
Q 22.953125 48.484375 18.875 42.84375
Q 14.796875 37.203125 14.796875 27.296875
z
" id="DejaVuSans-100"/>
       <path d="M 32.171875 -5.078125
Q 28.375 -14.84375 24.75 -17.8125
Q 21.140625 -20.796875 15.09375 -20.796875
L 7.90625 -20.796875
L 7.90625 -13.28125
L 13.1875 -13.28125
Q 16.890625 -13.28125 18.9375 -11.515625
Q 21 -9.765625 23.484375 -3.21875
L 25.09375 0.875
L 2.984375 54.6875
L 12.5 54.6875
L 29.59375 11.921875
L 46.6875 54.6875
L 56.203125 54.6875
z
" id="DejaVuSans-121"/>
      </defs>
      <g transform="translate(0 134.475937)scale(0.16 -0.16)">
       <use xlink:href="#DejaVuSans-99"/>
       <use x="54.980469" xlink:href="#DejaVuSans-111"/>
       <use x="116.162109" xlink:href="#DejaVuSans-109"/>
       <use x="213.574219" xlink:href="#DejaVuSans-109"/>
       <use x="310.986328" xlink:href="#DejaVuSans-111"/>
       <use x="372.167969" xlink:href="#DejaVuSans-110"/>
       <use x="435.546875" xlink:href="#DejaVuSans-32"/>
       <use x="467.333984" xlink:href="#DejaVuSans-105"/>
       <use x="495.117188" xlink:href="#DejaVuSans-110"/>
       <use x="558.496094" xlink:href="#DejaVuSans-32"/>
       <use x="590.283203" xlink:href="#DejaVuSans-82"/>
       <use x="659.765625" xlink:href="#DejaVuSans-78"/>
       <use x="734.570312" xlink:href="#DejaVuSans-65"/>
       <use x="802.978516" xlink:href="#DejaVuSans-115"/>
       <use x="855.078125" xlink:href="#DejaVuSans-101"/>
       <use x="916.601562" xlink:href="#DejaVuSans-113"/>
       <use x="980.078125" xlink:href="#DejaVuSans-32"/>
       <use x="1011.865234" xlink:href="#DejaVuSans-97"/>
       <use x="1073.144531" xlink:href="#DejaVuSans-110"/>
       <use x="1136.523438" xlink:href="#DejaVuSans-100"/>
       <use x="1200" xlink:href="#DejaVuSans-32"/>
       <use x="1231.787109" xlink:href="#DejaVuSans-97"/>
       <use x="1293.066406" xlink:href="#DejaVuSans-114"/>
       <use x="1334.164062" xlink:href="#DejaVuSans-114"/>
       <use x="1375.277344" xlink:href="#DejaVuSans-97"/>
       <use x="1436.556641" xlink:href="#DejaVuSans-121"/>
      </g>
     </g>
    </g>
    <g id="ytick_3">
     <g id="line2d_11">
      <g>
       <use style="stroke:#000000;stroke-width:0.8;" x="246.3175" xlink:href="#mafe8b16590" y="200.877187"/>
      </g>
     </g>
     <g id="text_12">
      <!-- common in only RNAseq -->
      <g transform="translate(43.575 206.955937)scale(0.16 -0.16)">
       <use xlink:href="#DejaVuSans-99"/>
       <use x="54.980469" xlink:href="#DejaVuSans-111"/>
       <use x="116.162109" xlink:href="#DejaVuSans-109"/>
       <use x="213.574219" xlink:href="#DejaVuSans-109"/>
       <use x="310.986328" xlink:href="#DejaVuSans-111"/>
       <use x="372.167969" xlink:href="#DejaVuSans-110"/>
       <use x="435.546875" xlink:href="#DejaVuSans-32"/>
       <use x="467.333984" xlink:href="#DejaVuSans-105"/>
       <use x="495.117188" xlink:href="#DejaVuSans-110"/>
       <use x="558.496094" xlink:href="#DejaVuSans-32"/>
       <use x="590.283203" xlink:href="#DejaVuSans-111"/>
       <use x="651.464844" xlink:href="#DejaVuSans-110"/>
       <use x="714.84375" xlink:href="#DejaVuSans-108"/>
       <use x="742.626953" xlink:href="#DejaVuSans-121"/>
       <use x="801.806641" xlink:href="#DejaVuSans-32"/>
       <use x="833.59375" xlink:href="#DejaVuSans-82"/>
       <use x="903.076172" xlink:href="#DejaVuSans-78"/>
       <use x="977.880859" xlink:href="#DejaVuSans-65"/>
       <use x="1046.289062" xlink:href="#DejaVuSans-115"/>
       <use x="1098.388672" xlink:href="#DejaVuSans-101"/>
       <use x="1159.912109" xlink:href="#DejaVuSans-113"/>
      </g>
     </g>
    </g>
   </g>
   <g id="line2d_12">
    <path clip-path="url(#p23f3615b34)" d="M 360.240272 55.917187
L 529.896899 55.917187
" style="fill:none;stroke:#444444;stroke-linecap:square;stroke-width:1.5;"/>
   </g>
   <g id="line2d_13">
    <path clip-path="url(#p23f3615b34)" d="M 423.932318 55.917187
L 466.417963 55.917187
" style="fill:none;stroke:#444444;stroke-linecap:square;stroke-width:4.5;"/>
   </g>
   <g id="line2d_14">
    <path clip-path="url(#p23f3615b34)" d="M 380.853476 128.397187
L 502.068395 128.397187
" style="fill:none;stroke:#444444;stroke-linecap:square;stroke-width:1.5;"/>
   </g>
   <g id="line2d_15">
    <path clip-path="url(#p23f3615b34)" d="M 426.988055 128.397187
L 459.152815 128.397187
" style="fill:none;stroke:#444444;stroke-linecap:square;stroke-width:4.5;"/>
   </g>
   <g id="line2d_16">
    <path clip-path="url(#p23f3615b34)" d="M 303.240954 200.877187
L 465.382262 200.877187
" style="fill:none;stroke:#444444;stroke-linecap:square;stroke-width:1.5;"/>
   </g>
   <g id="line2d_17">
    <path clip-path="url(#p23f3615b34)" d="M 351.035029 200.877187
L 396.920412 200.877187
" style="fill:none;stroke:#444444;stroke-linecap:square;stroke-width:4.5;"/>
   </g>
   <g id="patch_3">
    <path d="M 246.3175 237.117187
L 246.3175 19.677187
" style="fill:none;stroke:#000000;stroke-linecap:square;stroke-linejoin:miter;stroke-width:0.8;"/>
   </g>
   <g id="patch_4">
    <path d="M 581.1175 237.117187
L 581.1175 19.677187
" style="fill:none;stroke:#000000;stroke-linecap:square;stroke-linejoin:miter;stroke-width:0.8;"/>
   </g>
   <g id="patch_5">
    <path d="M 246.3175 237.117187
L 581.1175 237.117187
" style="fill:none;stroke:#000000;stroke-linecap:square;stroke-linejoin:miter;stroke-width:0.8;"/>
   </g>
   <g id="patch_6">
    <path d="M 246.3175 19.677187
L 581.1175 19.677187
" style="fill:none;stroke:#000000;stroke-linecap:square;stroke-linejoin:miter;stroke-width:0.8;"/>
   </g>
   <g id="PathCollection_1">
    <defs>
     <path d="M 0 1.5
C 0.397805 1.5 0.77937 1.341951 1.06066 1.06066
C 1.341951 0.77937 1.5 0.397805 1.5 0
C 1.5 -0.397805 1.341951 -0.77937 1.06066 -1.06066
C 0.77937 -1.341951 0.397805 -1.5 0 -1.5
C -0.397805 -1.5 -0.77937 -1.341951 -1.06066 -1.06066
C -1.341951 -0.77937 -1.5 -0.397805 -1.5 0
C -1.5 0.397805 -1.341951 0.77937 -1.06066 1.06066
C -0.77937 1.341951 -0.397805 1.5 0 1.5
z
" id="m0dd98d0856" style="stroke:#444444;"/>
    </defs>
    <g clip-path="url(#p23f3615b34)">
     <use style="fill:#ffffff;stroke:#444444;" x="450.233236" xlink:href="#m0dd98d0856" y="55.917187"/>
    </g>
   </g>
   <g id="PathCollection_2">
    <g clip-path="url(#p23f3615b34)">
     <use style="fill:#ffffff;stroke:#444444;" x="442.507059" xlink:href="#m0dd98d0856" y="128.397187"/>
    </g>
   </g>
   <g id="PathCollection_3">
    <g clip-path="url(#p23f3615b34)">
     <use style="fill:#ffffff;stroke:#444444;" x="371.479579" xlink:href="#m0dd98d0856" y="200.877187"/>
    </g>
   </g>
   <g id="text_13">
    <!-- Average recount2 expression -->
    <defs>
     <path d="M 8.5 21.578125
L 8.5 54.6875
L 17.484375 54.6875
L 17.484375 21.921875
Q 17.484375 14.15625 20.5 10.265625
Q 23.53125 6.390625 29.59375 6.390625
Q 36.859375 6.390625 41.078125 11.03125
Q 45.3125 15.671875 45.3125 23.6875
L 45.3125 54.6875
L 54.296875 54.6875
L 54.296875 0
L 45.3125 0
L 45.3125 8.40625
Q 42.046875 3.421875 37.71875 1
Q 33.40625 -1.421875 27.6875 -1.421875
Q 18.265625 -1.421875 13.375 4.4375
Q 8.5 10.296875 8.5 21.578125
z
M 31.109375 56
z
" id="DejaVuSans-117"/>
     <path d="M 18.3125 70.21875
L 18.3125 54.6875
L 36.8125 54.6875
L 36.8125 47.703125
L 18.3125 47.703125
L 18.3125 18.015625
Q 18.3125 11.328125 20.140625 9.421875
Q 21.96875 7.515625 27.59375 7.515625
L 36.8125 7.515625
L 36.8125 0
L 27.59375 0
Q 17.1875 0 13.234375 3.875
Q 9.28125 7.765625 9.28125 18.015625
L 9.28125 47.703125
L 2.6875 47.703125
L 2.6875 54.6875
L 9.28125 54.6875
L 9.28125 70.21875
z
" id="DejaVuSans-116"/>
    </defs>
    <g transform="translate(281.264219 13.677187)scale(0.18 -0.18)">
     <use xlink:href="#DejaVuSans-65"/>
     <use x="68.330078" xlink:href="#DejaVuSans-118"/>
     <use x="127.509766" xlink:href="#DejaVuSans-101"/>
     <use x="189.033203" xlink:href="#DejaVuSans-114"/>
     <use x="230.146484" xlink:href="#DejaVuSans-97"/>
     <use x="291.425781" xlink:href="#DejaVuSans-103"/>
     <use x="354.902344" xlink:href="#DejaVuSans-101"/>
     <use x="416.425781" xlink:href="#DejaVuSans-32"/>
     <use x="448.212891" xlink:href="#DejaVuSans-114"/>
     <use x="489.294922" xlink:href="#DejaVuSans-101"/>
     <use x="550.818359" xlink:href="#DejaVuSans-99"/>
     <use x="605.798828" xlink:href="#DejaVuSans-111"/>
     <use x="666.980469" xlink:href="#DejaVuSans-117"/>
     <use x="730.359375" xlink:href="#DejaVuSans-110"/>
     <use x="793.738281" xlink:href="#DejaVuSans-116"/>
     <use x="832.947266" xlink:href="#DejaVuSans-50"/>
     <use x="896.570312" xlink:href="#DejaVuSans-32"/>
     <use x="928.357422" xlink:href="#DejaVuSans-101"/>
     <use x="989.865234" xlink:href="#DejaVuSans-120"/>
     <use x="1049.044922" xlink:href="#DejaVuSans-112"/>
     <use x="1112.521484" xlink:href="#DejaVuSans-114"/>
     <use x="1153.603516" xlink:href="#DejaVuSans-101"/>
     <use x="1215.126953" xlink:href="#DejaVuSans-115"/>
     <use x="1267.226562" xlink:href="#DejaVuSans-115"/>
     <use x="1319.326172" xlink:href="#DejaVuSans-105"/>
     <use x="1347.109375" xlink:href="#DejaVuSans-111"/>
     <use x="1408.291016" xlink:href="#DejaVuSans-110"/>
    </g>
   </g>
  </g>
 </g>
 <defs>
  <clipPath id="p23f3615b34">
   <rect height="217.44" width="334.8" x="246.3175" y="19.677187"/>
  </clipPath>
 </defs>
</svg>
