<?xml version="1.0" encoding="utf-8" standalone="no"?>
<!DOCTYPE svg PUBLIC "-//W3C//DTD SVG 1.1//EN"
  "http://www.w3.org/Graphics/SVG/1.1/DTD/svg11.dtd">
<!-- Created with matplotlib (https://matplotlib.org/) -->
<svg height="265.813437pt" version="1.1" viewBox="0 0 397.2875 265.813437" width="397.2875pt" xmlns="http://www.w3.org/2000/svg" xmlns:xlink="http://www.w3.org/1999/xlink">
 <defs>
  <style type="text/css">
*{stroke-linecap:butt;stroke-linejoin:round;}
  </style>
 </defs>
 <g id="figure_1">
  <g id="patch_1">
   <path d="M 0 265.813437
L 397.2875 265.813437
L 397.2875 0
L 0 0
z
" style="fill:none;"/>
  </g>
  <g id="axes_1">
   <g id="patch_2">
    <path d="M 58.9875 220.94
L 393.7875 220.94
L 393.7875 3.5
L 58.9875 3.5
z
" style="fill:none;"/>
   </g>
   <g id="PathCollection_1">
    <defs>
     <path d="M 0 3
C 0.795609 3 1.55874 2.683901 2.12132 2.12132
C 2.683901 1.55874 3 0.795609 3 0
C 3 -0.795609 2.683901 -1.55874 2.12132 -2.12132
C 1.55874 -2.683901 0.795609 -3 0 -3
C -0.795609 -3 -1.55874 -2.683901 -2.12132 -2.12132
C -2.683901 -1.55874 -3 -0.795609 -3 0
C -3 0.795609 -2.683901 1.55874 -2.12132 2.12132
C -1.55874 2.683901 -0.795609 3 0 3
z
" id="m185f3a3527" style="stroke:#15527d;stroke-opacity:0.8;"/>
    </defs>
    <g clip-path="url(#pfcb3a95b6c)">
     <use style="fill:#15527d;fill-opacity:0.8;stroke:#15527d;stroke-opacity:0.8;" x="336.004219" xlink:href="#m185f3a3527" y="73.906268"/>
     <use style="fill:#15527d;fill-opacity:0.8;stroke:#15527d;stroke-opacity:0.8;" x="159.308612" xlink:href="#m185f3a3527" y="77.939292"/>
     <use style="fill:#15527d;fill-opacity:0.8;stroke:#15527d;stroke-opacity:0.8;" x="378.54205" xlink:href="#m185f3a3527" y="57.77417"/>
     <use style="fill:#15527d;fill-opacity:0.8;stroke:#15527d;stroke-opacity:0.8;" x="286.922106" xlink:href="#m185f3a3527" y="17.443926"/>
     <use style="fill:#15527d;fill-opacity:0.8;stroke:#15527d;stroke-opacity:0.8;" x="224.75143" xlink:href="#m185f3a3527" y="69.873244"/>
     <use style="fill:#15527d;fill-opacity:0.8;stroke:#15527d;stroke-opacity:0.8;" x="257.472838" xlink:href="#m185f3a3527" y="33.576024"/>
     <use style="fill:#15527d;fill-opacity:0.8;stroke:#15527d;stroke-opacity:0.8;" x="100.410077" xlink:href="#m185f3a3527" y="148.51722"/>
     <use style="fill:#15527d;fill-opacity:0.8;stroke:#15527d;stroke-opacity:0.8;" x="165.852894" xlink:href="#m185f3a3527" y="204.979562"/>
     <use style="fill:#15527d;fill-opacity:0.8;stroke:#15527d;stroke-opacity:0.8;" x="264.01712" xlink:href="#m185f3a3527" y="164.649318"/>
     <use style="fill:#15527d;fill-opacity:0.8;stroke:#15527d;stroke-opacity:0.8;" x="355.637064" xlink:href="#m185f3a3527" y="138.434659"/>
     <use style="fill:#15527d;fill-opacity:0.8;stroke:#15527d;stroke-opacity:0.8;" x="342.548501" xlink:href="#m185f3a3527" y="94.07139"/>
     <use style="fill:#15527d;fill-opacity:0.8;stroke:#15527d;stroke-opacity:0.8;" x="152.76433" xlink:href="#m185f3a3527" y="184.81444"/>
     <use style="fill:#15527d;fill-opacity:0.8;stroke:#15527d;stroke-opacity:0.8;" x="296.738529" xlink:href="#m185f3a3527" y="21.47695"/>
     <use style="fill:#15527d;fill-opacity:0.8;stroke:#15527d;stroke-opacity:0.8;" x="80.777231" xlink:href="#m185f3a3527" y="134.401634"/>
     <use style="fill:#15527d;fill-opacity:0.8;stroke:#15527d;stroke-opacity:0.8;" x="93.865795" xlink:href="#m185f3a3527" y="90.038366"/>
     <use style="fill:#15527d;fill-opacity:0.8;stroke:#15527d;stroke-opacity:0.8;" x="286.922106" xlink:href="#m185f3a3527" y="29.542999"/>
     <use style="fill:#15527d;fill-opacity:0.8;stroke:#15527d;stroke-opacity:0.8;" x="146.220049" xlink:href="#m185f3a3527" y="86.005341"/>
     <use style="fill:#15527d;fill-opacity:0.8;stroke:#15527d;stroke-opacity:0.8;" x="322.915656" xlink:href="#m185f3a3527" y="164.649318"/>
     <use style="fill:#15527d;fill-opacity:0.8;stroke:#15527d;stroke-opacity:0.8;" x="198.574303" xlink:href="#m185f3a3527" y="174.731879"/>
     <use style="fill:#15527d;fill-opacity:0.8;stroke:#15527d;stroke-opacity:0.8;" x="172.397176" xlink:href="#m185f3a3527" y="204.979562"/>
     <use style="fill:#15527d;fill-opacity:0.8;stroke:#15527d;stroke-opacity:0.8;" x="277.105683" xlink:href="#m185f3a3527" y="25.509975"/>
     <use style="fill:#15527d;fill-opacity:0.8;stroke:#15527d;stroke-opacity:0.8;" x="218.207148" xlink:href="#m185f3a3527" y="41.642073"/>
     <use style="fill:#15527d;fill-opacity:0.8;stroke:#15527d;stroke-opacity:0.8;" x="74.23295" xlink:href="#m185f3a3527" y="98.104415"/>
     <use style="fill:#15527d;fill-opacity:0.8;stroke:#15527d;stroke-opacity:0.8;" x="316.371374" xlink:href="#m185f3a3527" y="13.410902"/>
     <use style="fill:#15527d;fill-opacity:0.8;stroke:#15527d;stroke-opacity:0.8;" x="244.384275" xlink:href="#m185f3a3527" y="148.51722"/>
     <use style="fill:#15527d;fill-opacity:0.8;stroke:#15527d;stroke-opacity:0.8;" x="237.839993" xlink:href="#m185f3a3527" y="110.203488"/>
     <use style="fill:#15527d;fill-opacity:0.8;stroke:#15527d;stroke-opacity:0.8;" x="126.587204" xlink:href="#m185f3a3527" y="174.731879"/>
     <use style="fill:#15527d;fill-opacity:0.8;stroke:#15527d;stroke-opacity:0.8;" x="113.49864" xlink:href="#m185f3a3527" y="118.269537"/>
     <use style="fill:#15527d;fill-opacity:0.8;stroke:#15527d;stroke-opacity:0.8;" x="378.54205" xlink:href="#m185f3a3527" y="81.972317"/>
     <use style="fill:#15527d;fill-opacity:0.8;stroke:#15527d;stroke-opacity:0.8;" x="378.54205" xlink:href="#m185f3a3527" y="128.352098"/>
     <use style="fill:#15527d;fill-opacity:0.8;stroke:#15527d;stroke-opacity:0.8;" x="231.295711" xlink:href="#m185f3a3527" y="198.930025"/>
     <use style="fill:#15527d;fill-opacity:0.8;stroke:#15527d;stroke-opacity:0.8;" x="106.954358" xlink:href="#m185f3a3527" y="174.731879"/>
     <use style="fill:#15527d;fill-opacity:0.8;stroke:#15527d;stroke-opacity:0.8;" x="211.662866" xlink:href="#m185f3a3527" y="192.880489"/>
     <use style="fill:#15527d;fill-opacity:0.8;stroke:#15527d;stroke-opacity:0.8;" x="378.54205" xlink:href="#m185f3a3527" y="53.741146"/>
     <use style="fill:#15527d;fill-opacity:0.8;stroke:#15527d;stroke-opacity:0.8;" x="120.042922" xlink:href="#m185f3a3527" y="211.029098"/>
     <use style="fill:#15527d;fill-opacity:0.8;stroke:#15527d;stroke-opacity:0.8;" x="378.54205" xlink:href="#m185f3a3527" y="122.302561"/>
     <use style="fill:#15527d;fill-opacity:0.8;stroke:#15527d;stroke-opacity:0.8;" x="185.485739" xlink:href="#m185f3a3527" y="106.170463"/>
     <use style="fill:#15527d;fill-opacity:0.8;stroke:#15527d;stroke-opacity:0.8;" x="87.321513" xlink:href="#m185f3a3527" y="142.467683"/>
     <use style="fill:#15527d;fill-opacity:0.8;stroke:#15527d;stroke-opacity:0.8;" x="349.092783" xlink:href="#m185f3a3527" y="184.81444"/>
     <use style="fill:#15527d;fill-opacity:0.8;stroke:#15527d;stroke-opacity:0.8;" x="178.941457" xlink:href="#m185f3a3527" y="192.880489"/>
     <use style="fill:#15527d;fill-opacity:0.8;stroke:#15527d;stroke-opacity:0.8;" x="378.54205" xlink:href="#m185f3a3527" y="61.807195"/>
     <use style="fill:#15527d;fill-opacity:0.8;stroke:#15527d;stroke-opacity:0.8;" x="309.827092" xlink:href="#m185f3a3527" y="37.609048"/>
     <use style="fill:#15527d;fill-opacity:0.8;stroke:#15527d;stroke-opacity:0.8;" x="303.28281" xlink:href="#m185f3a3527" y="114.236512"/>
     <use style="fill:#15527d;fill-opacity:0.8;stroke:#15527d;stroke-opacity:0.8;" x="139.675767" xlink:href="#m185f3a3527" y="65.840219"/>
     <use style="fill:#15527d;fill-opacity:0.8;stroke:#15527d;stroke-opacity:0.8;" x="250.928557" xlink:href="#m185f3a3527" y="45.675097"/>
     <use style="fill:#15527d;fill-opacity:0.8;stroke:#15527d;stroke-opacity:0.8;" x="192.030021" xlink:href="#m185f3a3527" y="154.566756"/>
     <use style="fill:#15527d;fill-opacity:0.8;stroke:#15527d;stroke-opacity:0.8;" x="205.118584" xlink:href="#m185f3a3527" y="128.352098"/>
     <use style="fill:#15527d;fill-opacity:0.8;stroke:#15527d;stroke-opacity:0.8;" x="329.459937" xlink:href="#m185f3a3527" y="49.708121"/>
     <use style="fill:#15527d;fill-opacity:0.8;stroke:#15527d;stroke-opacity:0.8;" x="133.131485" xlink:href="#m185f3a3527" y="158.599781"/>
     <use style="fill:#15527d;fill-opacity:0.8;stroke:#15527d;stroke-opacity:0.8;" x="270.561402" xlink:href="#m185f3a3527" y="102.137439"/>
    </g>
   </g>
   <g id="PolyCollection_1">
    <path clip-path="url(#pfcb3a95b6c)" d="M 74.23295 125.776464
L 74.23295 179.935803
L 77.306779 178.969066
L 80.380608 177.990421
L 83.454438 176.666017
L 86.528267 175.341102
L 89.602096 174.016188
L 92.675925 172.916439
L 95.749755 171.835995
L 98.823584 170.751756
L 101.897413 169.662089
L 104.971243 168.515513
L 108.045072 167.237903
L 111.118901 166.179977
L 114.192731 165.120092
L 117.26656 163.976102
L 120.340389 162.921947
L 123.414218 161.880063
L 126.488048 160.83818
L 129.561877 159.796296
L 132.635706 158.754412
L 135.709536 157.712528
L 138.783365 156.671401
L 141.857194 155.607831
L 144.931024 154.527512
L 148.004853 153.447568
L 151.078682 152.290156
L 154.152511 151.050432
L 157.226341 150.107531
L 160.30017 148.940639
L 163.373999 147.958061
L 166.447829 146.965762
L 169.521658 145.924638
L 172.595487 145.001962
L 175.669317 143.971772
L 178.743146 142.917861
L 181.816975 141.860104
L 184.890804 140.726106
L 187.964634 139.744692
L 191.038463 138.684264
L 194.112292 137.626569
L 197.186122 136.566906
L 200.259951 135.513585
L 203.33378 134.515036
L 206.40761 133.65295
L 209.481439 132.764516
L 212.555268 131.816544
L 215.629097 130.86688
L 218.702927 129.912502
L 221.776756 129.148355
L 224.850585 128.281985
L 227.924415 127.37854
L 230.998244 126.763322
L 234.072073 126.197905
L 237.145903 125.45574
L 240.219732 124.516612
L 243.293561 123.875321
L 246.36739 123.297735
L 249.44122 122.725138
L 252.515049 122.154491
L 255.588878 121.506445
L 258.662708 120.637473
L 261.736537 119.695497
L 264.810366 119.25736
L 267.884196 118.589618
L 270.958025 117.711859
L 274.031854 116.841582
L 277.105683 116.314059
L 280.179513 115.63078
L 283.253342 115.054026
L 286.327171 114.366854
L 289.401001 113.752131
L 292.47483 112.967931
L 295.548659 112.410515
L 298.622489 112.049443
L 301.696318 111.674581
L 304.770147 111.132317
L 307.843976 110.800354
L 310.917806 110.301007
L 313.991635 109.872174
L 317.065464 109.227285
L 320.139294 108.473322
L 323.213123 107.945516
L 326.286952 107.441583
L 329.360782 106.807968
L 332.434611 106.312836
L 335.50844 105.883137
L 338.582269 105.452612
L 341.656099 105.020947
L 344.729928 104.623192
L 347.803757 104.217779
L 350.877587 103.779503
L 353.951416 103.303393
L 357.025245 102.743486
L 360.099075 102.286656
L 363.172904 101.892945
L 366.246733 101.322116
L 369.320562 100.838248
L 372.394392 100.62099
L 375.468221 100.297052
L 378.54205 99.867353
L 378.54205 50.361182
L 378.54205 50.361182
L 375.468221 51.343416
L 372.394392 52.394166
L 369.320562 53.504108
L 366.246733 54.614051
L 363.172904 55.716588
L 360.099075 56.843475
L 357.025245 57.993091
L 353.951416 59.074468
L 350.877587 60.104712
L 347.803757 61.127159
L 344.729928 62.376996
L 341.656099 63.39777
L 338.582269 64.420985
L 335.50844 65.484941
L 332.434611 66.715532
L 329.360782 67.946122
L 326.286952 68.76956
L 323.213123 70.006191
L 320.139294 71.142685
L 317.065464 72.225632
L 313.991635 73.102129
L 310.917806 73.974959
L 307.843976 74.851827
L 304.770147 75.743998
L 301.696318 76.795283
L 298.622489 77.851809
L 295.548659 78.977116
L 292.47483 79.959291
L 289.401001 81.01086
L 286.327171 82.014213
L 283.253342 83.03369
L 280.179513 83.992061
L 277.105683 85.175383
L 274.031854 85.949082
L 270.958025 86.923494
L 267.884196 88.012123
L 264.810366 88.900182
L 261.736537 89.880142
L 258.662708 90.597375
L 255.588878 91.5036
L 252.515049 92.4717
L 249.44122 93.43505
L 246.36739 94.363749
L 243.293561 95.234187
L 240.219732 96.256069
L 237.145903 97.128824
L 234.072073 98.162349
L 230.998244 99.081844
L 227.924415 99.641549
L 224.850585 100.233836
L 221.776756 101.009524
L 218.702927 101.379195
L 215.629097 102.233992
L 212.555268 102.721573
L 209.481439 103.283381
L 206.40761 104.302003
L 203.33378 104.961679
L 200.259951 105.730402
L 197.186122 106.261098
L 194.112292 106.783866
L 191.038463 107.310598
L 187.964634 107.83733
L 184.890804 108.379585
L 181.816975 109.020921
L 178.743146 109.766668
L 175.669317 110.17581
L 172.595487 110.65634
L 169.521658 111.228313
L 166.447829 111.797587
L 163.373999 112.513578
L 160.30017 113.149597
L 157.226341 113.653242
L 154.152511 114.329608
L 151.078682 114.698577
L 148.004853 115.14168
L 144.931024 115.498246
L 141.857194 115.976627
L 138.783365 116.466963
L 135.709536 116.961898
L 132.635706 117.455411
L 129.561877 117.950398
L 126.488048 118.445384
L 123.414218 118.940371
L 120.340389 119.435357
L 117.26656 119.930344
L 114.192731 120.452446
L 111.118901 120.918428
L 108.045072 121.300761
L 104.971243 121.735998
L 101.897413 122.257185
L 98.823584 122.638788
L 95.749755 123.02039
L 92.675925 123.401993
L 89.602096 123.783595
L 86.528267 124.166815
L 83.454438 124.6837
L 80.380608 125.213295
L 77.306779 125.508453
L 74.23295 125.776464
z
" style="fill:#15527d;fill-opacity:0.15;"/>
   </g>
   <g id="matplotlib.axis_1">
    <g id="xtick_1">
     <g id="line2d_1">
      <defs>
       <path d="M 0 0
L 0 3.5
" id="m7a0f33bfd5" style="stroke:#000000;stroke-width:0.8;"/>
      </defs>
      <g>
       <use style="stroke:#000000;stroke-width:0.8;" x="74.23295" xlink:href="#m7a0f33bfd5" y="220.94"/>
      </g>
     </g>
     <g id="text_1">
      <!-- 0 -->
      <defs>
       <path d="M 31.78125 66.40625
Q 24.171875 66.40625 20.328125 58.90625
Q 16.5 51.421875 16.5 36.375
Q 16.5 21.390625 20.328125 13.890625
Q 24.171875 6.390625 31.78125 6.390625
Q 39.453125 6.390625 43.28125 13.890625
Q 47.125 21.390625 47.125 36.375
Q 47.125 51.421875 43.28125 58.90625
Q 39.453125 66.40625 31.78125 66.40625
z
M 31.78125 74.21875
Q 44.046875 74.21875 50.515625 64.515625
Q 56.984375 54.828125 56.984375 36.375
Q 56.984375 17.96875 50.515625 8.265625
Q 44.046875 -1.421875 31.78125 -1.421875
Q 19.53125 -1.421875 13.0625 8.265625
Q 6.59375 17.96875 6.59375 36.375
Q 6.59375 54.828125 13.0625 64.515625
Q 19.53125 74.21875 31.78125 74.21875
z
" id="DejaVuSans-48"/>
      </defs>
      <g transform="translate(69.461075 239.337656)scale(0.15 -0.15)">
       <use xlink:href="#DejaVuSans-48"/>
      </g>
     </g>
    </g>
    <g id="xtick_2">
     <g id="line2d_2">
      <g>
       <use style="stroke:#000000;stroke-width:0.8;" x="135.09477" xlink:href="#m7a0f33bfd5" y="220.94"/>
      </g>
     </g>
     <g id="text_2">
      <!-- 20 -->
      <defs>
       <path d="M 19.1875 8.296875
L 53.609375 8.296875
L 53.609375 0
L 7.328125 0
L 7.328125 8.296875
Q 12.9375 14.109375 22.625 23.890625
Q 32.328125 33.6875 34.8125 36.53125
Q 39.546875 41.84375 41.421875 45.53125
Q 43.3125 49.21875 43.3125 52.78125
Q 43.3125 58.59375 39.234375 62.25
Q 35.15625 65.921875 28.609375 65.921875
Q 23.96875 65.921875 18.8125 64.3125
Q 13.671875 62.703125 7.8125 59.421875
L 7.8125 69.390625
Q 13.765625 71.78125 18.9375 73
Q 24.125 74.21875 28.421875 74.21875
Q 39.75 74.21875 46.484375 68.546875
Q 53.21875 62.890625 53.21875 53.421875
Q 53.21875 48.921875 51.53125 44.890625
Q 49.859375 40.875 45.40625 35.40625
Q 44.1875 33.984375 37.640625 27.21875
Q 31.109375 20.453125 19.1875 8.296875
z
" id="DejaVuSans-50"/>
      </defs>
      <g transform="translate(125.55102 239.337656)scale(0.15 -0.15)">
       <use xlink:href="#DejaVuSans-50"/>
       <use x="63.623047" xlink:href="#DejaVuSans-48"/>
      </g>
     </g>
    </g>
    <g id="xtick_3">
     <g id="line2d_3">
      <g>
       <use style="stroke:#000000;stroke-width:0.8;" x="195.95659" xlink:href="#m7a0f33bfd5" y="220.94"/>
      </g>
     </g>
     <g id="text_3">
      <!-- 40 -->
      <defs>
       <path d="M 37.796875 64.3125
L 12.890625 25.390625
L 37.796875 25.390625
z
M 35.203125 72.90625
L 47.609375 72.90625
L 47.609375 25.390625
L 58.015625 25.390625
L 58.015625 17.1875
L 47.609375 17.1875
L 47.609375 0
L 37.796875 0
L 37.796875 17.1875
L 4.890625 17.1875
L 4.890625 26.703125
z
" id="DejaVuSans-52"/>
      </defs>
      <g transform="translate(186.41284 239.337656)scale(0.15 -0.15)">
       <use xlink:href="#DejaVuSans-52"/>
       <use x="63.623047" xlink:href="#DejaVuSans-48"/>
      </g>
     </g>
    </g>
    <g id="xtick_4">
     <g id="line2d_4">
      <g>
       <use style="stroke:#000000;stroke-width:0.8;" x="256.81841" xlink:href="#m7a0f33bfd5" y="220.94"/>
      </g>
     </g>
     <g id="text_4">
      <!-- 60 -->
      <defs>
       <path d="M 33.015625 40.375
Q 26.375 40.375 22.484375 35.828125
Q 18.609375 31.296875 18.609375 23.390625
Q 18.609375 15.53125 22.484375 10.953125
Q 26.375 6.390625 33.015625 6.390625
Q 39.65625 6.390625 43.53125 10.953125
Q 47.40625 15.53125 47.40625 23.390625
Q 47.40625 31.296875 43.53125 35.828125
Q 39.65625 40.375 33.015625 40.375
z
M 52.59375 71.296875
L 52.59375 62.3125
Q 48.875 64.0625 45.09375 64.984375
Q 41.3125 65.921875 37.59375 65.921875
Q 27.828125 65.921875 22.671875 59.328125
Q 17.53125 52.734375 16.796875 39.40625
Q 19.671875 43.65625 24.015625 45.921875
Q 28.375 48.1875 33.59375 48.1875
Q 44.578125 48.1875 50.953125 41.515625
Q 57.328125 34.859375 57.328125 23.390625
Q 57.328125 12.15625 50.6875 5.359375
Q 44.046875 -1.421875 33.015625 -1.421875
Q 20.359375 -1.421875 13.671875 8.265625
Q 6.984375 17.96875 6.984375 36.375
Q 6.984375 53.65625 15.1875 63.9375
Q 23.390625 74.21875 37.203125 74.21875
Q 40.921875 74.21875 44.703125 73.484375
Q 48.484375 72.75 52.59375 71.296875
z
" id="DejaVuSans-54"/>
      </defs>
      <g transform="translate(247.27466 239.337656)scale(0.15 -0.15)">
       <use xlink:href="#DejaVuSans-54"/>
       <use x="63.623047" xlink:href="#DejaVuSans-48"/>
      </g>
     </g>
    </g>
    <g id="xtick_5">
     <g id="line2d_5">
      <g>
       <use style="stroke:#000000;stroke-width:0.8;" x="317.68023" xlink:href="#m7a0f33bfd5" y="220.94"/>
      </g>
     </g>
     <g id="text_5">
      <!-- 80 -->
      <defs>
       <path d="M 31.78125 34.625
Q 24.75 34.625 20.71875 30.859375
Q 16.703125 27.09375 16.703125 20.515625
Q 16.703125 13.921875 20.71875 10.15625
Q 24.75 6.390625 31.78125 6.390625
Q 38.8125 6.390625 42.859375 10.171875
Q 46.921875 13.96875 46.921875 20.515625
Q 46.921875 27.09375 42.890625 30.859375
Q 38.875 34.625 31.78125 34.625
z
M 21.921875 38.8125
Q 15.578125 40.375 12.03125 44.71875
Q 8.5 49.078125 8.5 55.328125
Q 8.5 64.0625 14.71875 69.140625
Q 20.953125 74.21875 31.78125 74.21875
Q 42.671875 74.21875 48.875 69.140625
Q 55.078125 64.0625 55.078125 55.328125
Q 55.078125 49.078125 51.53125 44.71875
Q 48 40.375 41.703125 38.8125
Q 48.828125 37.15625 52.796875 32.3125
Q 56.78125 27.484375 56.78125 20.515625
Q 56.78125 9.90625 50.3125 4.234375
Q 43.84375 -1.421875 31.78125 -1.421875
Q 19.734375 -1.421875 13.25 4.234375
Q 6.78125 9.90625 6.78125 20.515625
Q 6.78125 27.484375 10.78125 32.3125
Q 14.796875 37.15625 21.921875 38.8125
z
M 18.3125 54.390625
Q 18.3125 48.734375 21.84375 45.5625
Q 25.390625 42.390625 31.78125 42.390625
Q 38.140625 42.390625 41.71875 45.5625
Q 45.3125 48.734375 45.3125 54.390625
Q 45.3125 60.0625 41.71875 63.234375
Q 38.140625 66.40625 31.78125 66.40625
Q 25.390625 66.40625 21.84375 63.234375
Q 18.3125 60.0625 18.3125 54.390625
z
" id="DejaVuSans-56"/>
      </defs>
      <g transform="translate(308.13648 239.337656)scale(0.15 -0.15)">
       <use xlink:href="#DejaVuSans-56"/>
       <use x="63.623047" xlink:href="#DejaVuSans-48"/>
      </g>
     </g>
    </g>
    <g id="xtick_6">
     <g id="line2d_6">
      <g>
       <use style="stroke:#000000;stroke-width:0.8;" x="378.54205" xlink:href="#m7a0f33bfd5" y="220.94"/>
      </g>
     </g>
     <g id="text_6">
      <!-- 100 -->
      <defs>
       <path d="M 12.40625 8.296875
L 28.515625 8.296875
L 28.515625 63.921875
L 10.984375 60.40625
L 10.984375 69.390625
L 28.421875 72.90625
L 38.28125 72.90625
L 38.28125 8.296875
L 54.390625 8.296875
L 54.390625 0
L 12.40625 0
z
" id="DejaVuSans-49"/>
      </defs>
      <g transform="translate(364.226425 239.337656)scale(0.15 -0.15)">
       <use xlink:href="#DejaVuSans-49"/>
       <use x="63.623047" xlink:href="#DejaVuSans-48"/>
       <use x="127.246094" xlink:href="#DejaVuSans-48"/>
      </g>
     </g>
    </g>
    <g id="text_7">
     <!-- SOPHIE -->
     <defs>
      <path d="M 53.515625 70.515625
L 53.515625 60.890625
Q 47.90625 63.578125 42.921875 64.890625
Q 37.9375 66.21875 33.296875 66.21875
Q 25.25 66.21875 20.875 63.09375
Q 16.5 59.96875 16.5 54.203125
Q 16.5 49.359375 19.40625 46.890625
Q 22.3125 44.4375 30.421875 42.921875
L 36.375 41.703125
Q 47.40625 39.59375 52.65625 34.296875
Q 57.90625 29 57.90625 20.125
Q 57.90625 9.515625 50.796875 4.046875
Q 43.703125 -1.421875 29.984375 -1.421875
Q 24.8125 -1.421875 18.96875 -0.25
Q 13.140625 0.921875 6.890625 3.21875
L 6.890625 13.375
Q 12.890625 10.015625 18.65625 8.296875
Q 24.421875 6.59375 29.984375 6.59375
Q 38.421875 6.59375 43.015625 9.90625
Q 47.609375 13.234375 47.609375 19.390625
Q 47.609375 24.75 44.3125 27.78125
Q 41.015625 30.8125 33.5 32.328125
L 27.484375 33.5
Q 16.453125 35.6875 11.515625 40.375
Q 6.59375 45.0625 6.59375 53.421875
Q 6.59375 63.09375 13.40625 68.65625
Q 20.21875 74.21875 32.171875 74.21875
Q 37.3125 74.21875 42.625 73.28125
Q 47.953125 72.359375 53.515625 70.515625
z
" id="DejaVuSans-83"/>
      <path d="M 39.40625 66.21875
Q 28.65625 66.21875 22.328125 58.203125
Q 16.015625 50.203125 16.015625 36.375
Q 16.015625 22.609375 22.328125 14.59375
Q 28.65625 6.59375 39.40625 6.59375
Q 50.140625 6.59375 56.421875 14.59375
Q 62.703125 22.609375 62.703125 36.375
Q 62.703125 50.203125 56.421875 58.203125
Q 50.140625 66.21875 39.40625 66.21875
z
M 39.40625 74.21875
Q 54.734375 74.21875 63.90625 63.9375
Q 73.09375 53.65625 73.09375 36.375
Q 73.09375 19.140625 63.90625 8.859375
Q 54.734375 -1.421875 39.40625 -1.421875
Q 24.03125 -1.421875 14.8125 8.828125
Q 5.609375 19.09375 5.609375 36.375
Q 5.609375 53.65625 14.8125 63.9375
Q 24.03125 74.21875 39.40625 74.21875
z
" id="DejaVuSans-79"/>
      <path d="M 19.671875 64.796875
L 19.671875 37.40625
L 32.078125 37.40625
Q 38.96875 37.40625 42.71875 40.96875
Q 46.484375 44.53125 46.484375 51.125
Q 46.484375 57.671875 42.71875 61.234375
Q 38.96875 64.796875 32.078125 64.796875
z
M 9.8125 72.90625
L 32.078125 72.90625
Q 44.34375 72.90625 50.609375 67.359375
Q 56.890625 61.8125 56.890625 51.125
Q 56.890625 40.328125 50.609375 34.8125
Q 44.34375 29.296875 32.078125 29.296875
L 19.671875 29.296875
L 19.671875 0
L 9.8125 0
z
" id="DejaVuSans-80"/>
      <path d="M 9.8125 72.90625
L 19.671875 72.90625
L 19.671875 43.015625
L 55.515625 43.015625
L 55.515625 72.90625
L 65.375 72.90625
L 65.375 0
L 55.515625 0
L 55.515625 34.71875
L 19.671875 34.71875
L 19.671875 0
L 9.8125 0
z
" id="DejaVuSans-72"/>
      <path d="M 9.8125 72.90625
L 19.671875 72.90625
L 19.671875 0
L 9.8125 0
z
" id="DejaVuSans-73"/>
      <path d="M 9.8125 72.90625
L 55.90625 72.90625
L 55.90625 64.59375
L 19.671875 64.59375
L 19.671875 43.015625
L 54.390625 43.015625
L 54.390625 34.71875
L 19.671875 34.71875
L 19.671875 8.296875
L 56.78125 8.296875
L 56.78125 0
L 9.8125 0
z
" id="DejaVuSans-69"/>
     </defs>
     <g transform="translate(189.348438 261.654062)scale(0.2 -0.2)">
      <use xlink:href="#DejaVuSans-83"/>
      <use x="63.476562" xlink:href="#DejaVuSans-79"/>
      <use x="142.1875" xlink:href="#DejaVuSans-80"/>
      <use x="202.490234" xlink:href="#DejaVuSans-72"/>
      <use x="277.685547" xlink:href="#DejaVuSans-73"/>
      <use x="307.177734" xlink:href="#DejaVuSans-69"/>
     </g>
    </g>
   </g>
   <g id="matplotlib.axis_2">
    <g id="ytick_1">
     <g id="line2d_7">
      <defs>
       <path d="M 0 0
L -3.5 0
" id="mb15885f45e" style="stroke:#000000;stroke-width:0.8;"/>
      </defs>
      <g>
       <use style="stroke:#000000;stroke-width:0.8;" x="58.9875" xlink:href="#mb15885f45e" y="211.029098"/>
      </g>
     </g>
     <g id="text_8">
      <!-- 0 -->
      <g transform="translate(42.44375 216.727927)scale(0.15 -0.15)">
       <use xlink:href="#DejaVuSans-48"/>
      </g>
     </g>
    </g>
    <g id="ytick_2">
     <g id="line2d_8">
      <g>
       <use style="stroke:#000000;stroke-width:0.8;" x="58.9875" xlink:href="#mb15885f45e" y="171.505459"/>
      </g>
     </g>
     <g id="text_9">
      <!-- 20 -->
      <g transform="translate(32.9 177.204287)scale(0.15 -0.15)">
       <use xlink:href="#DejaVuSans-50"/>
       <use x="63.623047" xlink:href="#DejaVuSans-48"/>
      </g>
     </g>
    </g>
    <g id="ytick_3">
     <g id="line2d_9">
      <g>
       <use style="stroke:#000000;stroke-width:0.8;" x="58.9875" xlink:href="#mb15885f45e" y="131.98182"/>
      </g>
     </g>
     <g id="text_10">
      <!-- 40 -->
      <g transform="translate(32.9 137.680648)scale(0.15 -0.15)">
       <use xlink:href="#DejaVuSans-52"/>
       <use x="63.623047" xlink:href="#DejaVuSans-48"/>
      </g>
     </g>
    </g>
    <g id="ytick_4">
     <g id="line2d_10">
      <g>
       <use style="stroke:#000000;stroke-width:0.8;" x="58.9875" xlink:href="#mb15885f45e" y="92.45818"/>
      </g>
     </g>
     <g id="text_11">
      <!-- 60 -->
      <g transform="translate(32.9 98.157008)scale(0.15 -0.15)">
       <use xlink:href="#DejaVuSans-54"/>
       <use x="63.623047" xlink:href="#DejaVuSans-48"/>
      </g>
     </g>
    </g>
    <g id="ytick_5">
     <g id="line2d_11">
      <g>
       <use style="stroke:#000000;stroke-width:0.8;" x="58.9875" xlink:href="#mb15885f45e" y="52.934541"/>
      </g>
     </g>
     <g id="text_12">
      <!-- 80 -->
      <g transform="translate(32.9 58.633369)scale(0.15 -0.15)">
       <use xlink:href="#DejaVuSans-56"/>
       <use x="63.623047" xlink:href="#DejaVuSans-48"/>
      </g>
     </g>
    </g>
    <g id="ytick_6">
     <g id="line2d_12">
      <g>
       <use style="stroke:#000000;stroke-width:0.8;" x="58.9875" xlink:href="#mb15885f45e" y="13.410902"/>
      </g>
     </g>
     <g id="text_13">
      <!-- 100 -->
      <g transform="translate(23.35625 19.10973)scale(0.15 -0.15)">
       <use xlink:href="#DejaVuSans-49"/>
       <use x="63.623047" xlink:href="#DejaVuSans-48"/>
       <use x="127.246094" xlink:href="#DejaVuSans-48"/>
      </g>
     </g>
    </g>
    <g id="text_14">
     <!-- Manual curation -->
     <defs>
      <path d="M 9.8125 72.90625
L 24.515625 72.90625
L 43.109375 23.296875
L 61.8125 72.90625
L 76.515625 72.90625
L 76.515625 0
L 66.890625 0
L 66.890625 64.015625
L 48.09375 14.015625
L 38.1875 14.015625
L 19.390625 64.015625
L 19.390625 0
L 9.8125 0
z
" id="DejaVuSans-77"/>
      <path d="M 34.28125 27.484375
Q 23.390625 27.484375 19.1875 25
Q 14.984375 22.515625 14.984375 16.5
Q 14.984375 11.71875 18.140625 8.90625
Q 21.296875 6.109375 26.703125 6.109375
Q 34.1875 6.109375 38.703125 11.40625
Q 43.21875 16.703125 43.21875 25.484375
L 43.21875 27.484375
z
M 52.203125 31.203125
L 52.203125 0
L 43.21875 0
L 43.21875 8.296875
Q 40.140625 3.328125 35.546875 0.953125
Q 30.953125 -1.421875 24.3125 -1.421875
Q 15.921875 -1.421875 10.953125 3.296875
Q 6 8.015625 6 15.921875
Q 6 25.140625 12.171875 29.828125
Q 18.359375 34.515625 30.609375 34.515625
L 43.21875 34.515625
L 43.21875 35.40625
Q 43.21875 41.609375 39.140625 45
Q 35.0625 48.390625 27.6875 48.390625
Q 23 48.390625 18.546875 47.265625
Q 14.109375 46.140625 10.015625 43.890625
L 10.015625 52.203125
Q 14.9375 54.109375 19.578125 55.046875
Q 24.21875 56 28.609375 56
Q 40.484375 56 46.34375 49.84375
Q 52.203125 43.703125 52.203125 31.203125
z
" id="DejaVuSans-97"/>
      <path d="M 54.890625 33.015625
L 54.890625 0
L 45.90625 0
L 45.90625 32.71875
Q 45.90625 40.484375 42.875 44.328125
Q 39.84375 48.1875 33.796875 48.1875
Q 26.515625 48.1875 22.3125 43.546875
Q 18.109375 38.921875 18.109375 30.90625
L 18.109375 0
L 9.078125 0
L 9.078125 54.6875
L 18.109375 54.6875
L 18.109375 46.1875
Q 21.34375 51.125 25.703125 53.5625
Q 30.078125 56 35.796875 56
Q 45.21875 56 50.046875 50.171875
Q 54.890625 44.34375 54.890625 33.015625
z
" id="DejaVuSans-110"/>
      <path d="M 8.5 21.578125
L 8.5 54.6875
L 17.484375 54.6875
L 17.484375 21.921875
Q 17.484375 14.15625 20.5 10.265625
Q 23.53125 6.390625 29.59375 6.390625
Q 36.859375 6.390625 41.078125 11.03125
Q 45.3125 15.671875 45.3125 23.6875
L 45.3125 54.6875
L 54.296875 54.6875
L 54.296875 0
L 45.3125 0
L 45.3125 8.40625
Q 42.046875 3.421875 37.71875 1
Q 33.40625 -1.421875 27.6875 -1.421875
Q 18.265625 -1.421875 13.375 4.4375
Q 8.5 10.296875 8.5 21.578125
z
M 31.109375 56
z
" id="DejaVuSans-117"/>
      <path d="M 9.421875 75.984375
L 18.40625 75.984375
L 18.40625 0
L 9.421875 0
z
" id="DejaVuSans-108"/>
      <path id="DejaVuSans-32"/>
      <path d="M 48.78125 52.59375
L 48.78125 44.1875
Q 44.96875 46.296875 41.140625 47.34375
Q 37.3125 48.390625 33.40625 48.390625
Q 24.65625 48.390625 19.8125 42.84375
Q 14.984375 37.3125 14.984375 27.296875
Q 14.984375 17.28125 19.8125 11.734375
Q 24.65625 6.203125 33.40625 6.203125
Q 37.3125 6.203125 41.140625 7.25
Q 44.96875 8.296875 48.78125 10.40625
L 48.78125 2.09375
Q 45.015625 0.34375 40.984375 -0.53125
Q 36.96875 -1.421875 32.421875 -1.421875
Q 20.0625 -1.421875 12.78125 6.34375
Q 5.515625 14.109375 5.515625 27.296875
Q 5.515625 40.671875 12.859375 48.328125
Q 20.21875 56 33.015625 56
Q 37.15625 56 41.109375 55.140625
Q 45.0625 54.296875 48.78125 52.59375
z
" id="DejaVuSans-99"/>
      <path d="M 41.109375 46.296875
Q 39.59375 47.171875 37.8125 47.578125
Q 36.03125 48 33.890625 48
Q 26.265625 48 22.1875 43.046875
Q 18.109375 38.09375 18.109375 28.8125
L 18.109375 0
L 9.078125 0
L 9.078125 54.6875
L 18.109375 54.6875
L 18.109375 46.1875
Q 20.953125 51.171875 25.484375 53.578125
Q 30.03125 56 36.53125 56
Q 37.453125 56 38.578125 55.875
Q 39.703125 55.765625 41.0625 55.515625
z
" id="DejaVuSans-114"/>
      <path d="M 18.3125 70.21875
L 18.3125 54.6875
L 36.8125 54.6875
L 36.8125 47.703125
L 18.3125 47.703125
L 18.3125 18.015625
Q 18.3125 11.328125 20.140625 9.421875
Q 21.96875 7.515625 27.59375 7.515625
L 36.8125 7.515625
L 36.8125 0
L 27.59375 0
Q 17.1875 0 13.234375 3.875
Q 9.28125 7.765625 9.28125 18.015625
L 9.28125 47.703125
L 2.6875 47.703125
L 2.6875 54.6875
L 9.28125 54.6875
L 9.28125 70.21875
z
" id="DejaVuSans-116"/>
      <path d="M 9.421875 54.6875
L 18.40625 54.6875
L 18.40625 0
L 9.421875 0
z
M 9.421875 75.984375
L 18.40625 75.984375
L 18.40625 64.59375
L 9.421875 64.59375
z
" id="DejaVuSans-105"/>
      <path d="M 30.609375 48.390625
Q 23.390625 48.390625 19.1875 42.75
Q 14.984375 37.109375 14.984375 27.296875
Q 14.984375 17.484375 19.15625 11.84375
Q 23.34375 6.203125 30.609375 6.203125
Q 37.796875 6.203125 41.984375 11.859375
Q 46.1875 17.53125 46.1875 27.296875
Q 46.1875 37.015625 41.984375 42.703125
Q 37.796875 48.390625 30.609375 48.390625
z
M 30.609375 56
Q 42.328125 56 49.015625 48.375
Q 55.71875 40.765625 55.71875 27.296875
Q 55.71875 13.875 49.015625 6.21875
Q 42.328125 -1.421875 30.609375 -1.421875
Q 18.84375 -1.421875 12.171875 6.21875
Q 5.515625 13.875 5.515625 27.296875
Q 5.515625 40.765625 12.171875 48.375
Q 18.84375 56 30.609375 56
z
" id="DejaVuSans-111"/>
     </defs>
     <g transform="translate(15.196875 192.965312)rotate(-90)scale(0.2 -0.2)">
      <use xlink:href="#DejaVuSans-77"/>
      <use x="86.279297" xlink:href="#DejaVuSans-97"/>
      <use x="147.558594" xlink:href="#DejaVuSans-110"/>
      <use x="210.9375" xlink:href="#DejaVuSans-117"/>
      <use x="274.316406" xlink:href="#DejaVuSans-97"/>
      <use x="335.595703" xlink:href="#DejaVuSans-108"/>
      <use x="363.378906" xlink:href="#DejaVuSans-32"/>
      <use x="395.166016" xlink:href="#DejaVuSans-99"/>
      <use x="450.146484" xlink:href="#DejaVuSans-117"/>
      <use x="513.525391" xlink:href="#DejaVuSans-114"/>
      <use x="554.638672" xlink:href="#DejaVuSans-97"/>
      <use x="615.917969" xlink:href="#DejaVuSans-116"/>
      <use x="655.126953" xlink:href="#DejaVuSans-105"/>
      <use x="682.910156" xlink:href="#DejaVuSans-111"/>
      <use x="744.091797" xlink:href="#DejaVuSans-110"/>
     </g>
    </g>
   </g>
   <g id="line2d_13">
    <path clip-path="url(#pfcb3a95b6c)" d="M 74.23295 151.904764
L 77.306779 151.143956
L 80.380608 150.383147
L 83.454438 149.622338
L 86.528267 148.86153
L 89.602096 148.100721
L 92.675925 147.339912
L 95.749755 146.579103
L 98.823584 145.818295
L 101.897413 145.057486
L 104.971243 144.296677
L 108.045072 143.535869
L 111.118901 142.77506
L 114.192731 142.014251
L 117.26656 141.253442
L 120.340389 140.492634
L 123.414218 139.731825
L 126.488048 138.971016
L 129.561877 138.210207
L 132.635706 137.449399
L 135.709536 136.68859
L 138.783365 135.927781
L 141.857194 135.166973
L 144.931024 134.406164
L 148.004853 133.645355
L 151.078682 132.884546
L 154.152511 132.123738
L 157.226341 131.362929
L 160.30017 130.60212
L 163.373999 129.841312
L 166.447829 129.080503
L 169.521658 128.319694
L 172.595487 127.558885
L 175.669317 126.798077
L 178.743146 126.037268
L 181.816975 125.276459
L 184.890804 124.515651
L 187.964634 123.754842
L 191.038463 122.994033
L 194.112292 122.233224
L 197.186122 121.472416
L 200.259951 120.711607
L 203.33378 119.950798
L 206.40761 119.18999
L 209.481439 118.429181
L 212.555268 117.668372
L 215.629097 116.907563
L 218.702927 116.146755
L 221.776756 115.385946
L 224.850585 114.625137
L 227.924415 113.864329
L 230.998244 113.10352
L 234.072073 112.342711
L 237.145903 111.581902
L 240.219732 110.821094
L 243.293561 110.060285
L 246.36739 109.299476
L 249.44122 108.538667
L 252.515049 107.777859
L 255.588878 107.01705
L 258.662708 106.256241
L 261.736537 105.495433
L 264.810366 104.734624
L 267.884196 103.973815
L 270.958025 103.213006
L 274.031854 102.452198
L 277.105683 101.691389
L 280.179513 100.93058
L 283.253342 100.169772
L 286.327171 99.408963
L 289.401001 98.648154
L 292.47483 97.887345
L 295.548659 97.126537
L 298.622489 96.365728
L 301.696318 95.604919
L 304.770147 94.844111
L 307.843976 94.083302
L 310.917806 93.322493
L 313.991635 92.561684
L 317.065464 91.800876
L 320.139294 91.040067
L 323.213123 90.279258
L 326.286952 89.51845
L 329.360782 88.757641
L 332.434611 87.996832
L 335.50844 87.236023
L 338.582269 86.475215
L 341.656099 85.714406
L 344.729928 84.953597
L 347.803757 84.192789
L 350.877587 83.43198
L 353.951416 82.671171
L 357.025245 81.910362
L 360.099075 81.149554
L 363.172904 80.388745
L 366.246733 79.627936
L 369.320562 78.867127
L 372.394392 78.106319
L 375.468221 77.34551
L 378.54205 76.584701
" style="fill:none;stroke:#15527d;stroke-linecap:square;stroke-width:2.25;"/>
   </g>
   <g id="patch_3">
    <path d="M 58.9875 220.94
L 58.9875 3.5
" style="fill:none;stroke:#000000;stroke-linecap:square;stroke-linejoin:miter;stroke-width:1.5;"/>
   </g>
   <g id="patch_4">
    <path d="M 393.7875 220.94
L 393.7875 3.5
" style="fill:none;stroke:#000000;stroke-linecap:square;stroke-linejoin:miter;stroke-width:1.5;"/>
   </g>
   <g id="patch_5">
    <path d="M 58.9875 220.94
L 393.7875 220.94
" style="fill:none;stroke:#000000;stroke-linecap:square;stroke-linejoin:miter;stroke-width:1.5;"/>
   </g>
   <g id="patch_6">
    <path d="M 58.9875 3.5
L 393.7875 3.5
" style="fill:none;stroke:#000000;stroke-linecap:square;stroke-linejoin:miter;stroke-width:1.5;"/>
   </g>
   <g id="text_15">
    <!-- R^2 = 0.401 -->
    <defs>
     <path d="M 44.390625 34.1875
Q 47.5625 33.109375 50.5625 29.59375
Q 53.5625 26.078125 56.59375 19.921875
L 66.609375 0
L 56 0
L 46.6875 18.703125
Q 43.0625 26.03125 39.671875 28.421875
Q 36.28125 30.8125 30.421875 30.8125
L 19.671875 30.8125
L 19.671875 0
L 9.8125 0
L 9.8125 72.90625
L 32.078125 72.90625
Q 44.578125 72.90625 50.734375 67.671875
Q 56.890625 62.453125 56.890625 51.90625
Q 56.890625 45.015625 53.6875 40.46875
Q 50.484375 35.9375 44.390625 34.1875
z
M 19.671875 64.796875
L 19.671875 38.921875
L 32.078125 38.921875
Q 39.203125 38.921875 42.84375 42.21875
Q 46.484375 45.515625 46.484375 51.90625
Q 46.484375 58.296875 42.84375 61.546875
Q 39.203125 64.796875 32.078125 64.796875
z
" id="DejaVuSans-82"/>
     <path d="M 46.6875 72.90625
L 73.1875 45.703125
L 63.375 45.703125
L 41.890625 64.984375
L 20.40625 45.703125
L 10.59375 45.703125
L 37.109375 72.90625
z
" id="DejaVuSans-94"/>
     <path d="M 10.59375 45.40625
L 73.1875 45.40625
L 73.1875 37.203125
L 10.59375 37.203125
z
M 10.59375 25.484375
L 73.1875 25.484375
L 73.1875 17.1875
L 10.59375 17.1875
z
" id="DejaVuSans-61"/>
     <path d="M 10.6875 12.40625
L 21 12.40625
L 21 0
L 10.6875 0
z
" id="DejaVuSans-46"/>
    </defs>
    <g transform="translate(74.23295 17.363266)scale(0.14 -0.14)">
     <use xlink:href="#DejaVuSans-82"/>
     <use x="69.482422" xlink:href="#DejaVuSans-94"/>
     <use x="153.271484" xlink:href="#DejaVuSans-50"/>
     <use x="216.894531" xlink:href="#DejaVuSans-32"/>
     <use x="248.681641" xlink:href="#DejaVuSans-61"/>
     <use x="332.470703" xlink:href="#DejaVuSans-32"/>
     <use x="364.257812" xlink:href="#DejaVuSans-48"/>
     <use x="427.880859" xlink:href="#DejaVuSans-46"/>
     <use x="459.667969" xlink:href="#DejaVuSans-52"/>
     <use x="523.291016" xlink:href="#DejaVuSans-48"/>
     <use x="586.914062" xlink:href="#DejaVuSans-49"/>
    </g>
   </g>
  </g>
 </g>
 <defs>
  <clipPath id="pfcb3a95b6c">
   <rect height="217.44" width="334.8" x="58.9875" y="3.5"/>
  </clipPath>
 </defs>
</svg>
