<?xml version="1.0" encoding="utf-8" standalone="no"?>
<!DOCTYPE svg PUBLIC "-//W3C//DTD SVG 1.1//EN"
  "http://www.w3.org/Graphics/SVG/1.1/DTD/svg11.dtd">
<!-- Created with matplotlib (https://matplotlib.org/) -->
<svg height="265.813437pt" version="1.1" viewBox="0 0 397.2875 265.813437" width="397.2875pt" xmlns="http://www.w3.org/2000/svg" xmlns:xlink="http://www.w3.org/1999/xlink">
 <defs>
  <style type="text/css">
*{stroke-linecap:butt;stroke-linejoin:round;}
  </style>
 </defs>
 <g id="figure_1">
  <g id="patch_1">
   <path d="M 0 265.813437
L 397.2875 265.813437
L 397.2875 0
L 0 0
z
" style="fill:none;"/>
  </g>
  <g id="axes_1">
   <g id="patch_2">
    <path d="M 58.9875 220.94
L 393.7875 220.94
L 393.7875 3.5
L 58.9875 3.5
z
" style="fill:none;"/>
   </g>
   <g id="PathCollection_1">
    <defs>
     <path d="M 0 3
C 0.795609 3 1.55874 2.683901 2.12132 2.12132
C 2.683901 1.55874 3 0.795609 3 0
C 3 -0.795609 2.683901 -1.55874 2.12132 -2.12132
C 1.55874 -2.683901 0.795609 -3 0 -3
C -0.795609 -3 -1.55874 -2.683901 -2.12132 -2.12132
C -2.683901 -1.55874 -3 -0.795609 -3 0
C -3 0.795609 -2.683901 1.55874 -2.12132 2.12132
C -1.55874 2.683901 -0.795609 3 0 3
z
" id="mcf7fff9c50" style="stroke:#15527d;stroke-opacity:0.8;"/>
    </defs>
    <g clip-path="url(#p3f27b74851)">
     <use style="fill:#15527d;fill-opacity:0.8;stroke:#15527d;stroke-opacity:0.8;" x="118.61136" xlink:href="#mcf7fff9c50" y="118.269537"/>
     <use style="fill:#15527d;fill-opacity:0.8;stroke:#15527d;stroke-opacity:0.8;" x="264.426138" xlink:href="#mcf7fff9c50" y="25.509975"/>
     <use style="fill:#15527d;fill-opacity:0.8;stroke:#15527d;stroke-opacity:0.8;" x="350.013072" xlink:href="#mcf7fff9c50" y="138.434659"/>
     <use style="fill:#15527d;fill-opacity:0.8;stroke:#15527d;stroke-opacity:0.8;" x="169.329544" xlink:href="#mcf7fff9c50" y="184.81444"/>
     <use style="fill:#15527d;fill-opacity:0.8;stroke:#15527d;stroke-opacity:0.8;" x="302.464775" xlink:href="#mcf7fff9c50" y="164.649318"/>
     <use style="fill:#15527d;fill-opacity:0.8;stroke:#15527d;stroke-opacity:0.8;" x="80.572723" xlink:href="#mcf7fff9c50" y="174.731879"/>
     <use style="fill:#15527d;fill-opacity:0.8;stroke:#15527d;stroke-opacity:0.8;" x="207.368181" xlink:href="#mcf7fff9c50" y="204.979562"/>
     <use style="fill:#15527d;fill-opacity:0.8;stroke:#15527d;stroke-opacity:0.8;" x="365.862504" xlink:href="#mcf7fff9c50" y="122.302561"/>
     <use style="fill:#15527d;fill-opacity:0.8;stroke:#15527d;stroke-opacity:0.8;" x="226.3875" xlink:href="#mcf7fff9c50" y="114.236512"/>
     <use style="fill:#15527d;fill-opacity:0.8;stroke:#15527d;stroke-opacity:0.8;" x="378.54205" xlink:href="#mcf7fff9c50" y="81.972317"/>
     <use style="fill:#15527d;fill-opacity:0.8;stroke:#15527d;stroke-opacity:0.8;" x="277.105683" xlink:href="#mcf7fff9c50" y="94.07139"/>
     <use style="fill:#15527d;fill-opacity:0.8;stroke:#15527d;stroke-opacity:0.8;" x="245.406819" xlink:href="#mcf7fff9c50" y="128.352098"/>
     <use style="fill:#15527d;fill-opacity:0.8;stroke:#15527d;stroke-opacity:0.8;" x="150.310225" xlink:href="#mcf7fff9c50" y="158.599781"/>
     <use style="fill:#15527d;fill-opacity:0.8;stroke:#15527d;stroke-opacity:0.8;" x="334.16364" xlink:href="#mcf7fff9c50" y="57.77417"/>
     <use style="fill:#15527d;fill-opacity:0.8;stroke:#15527d;stroke-opacity:0.8;" x="93.252268" xlink:href="#mcf7fff9c50" y="142.467683"/>
     <use style="fill:#15527d;fill-opacity:0.8;stroke:#15527d;stroke-opacity:0.8;" x="162.989771" xlink:href="#mcf7fff9c50" y="65.840219"/>
     <use style="fill:#15527d;fill-opacity:0.8;stroke:#15527d;stroke-opacity:0.8;" x="124.951133" xlink:href="#mcf7fff9c50" y="204.979562"/>
     <use style="fill:#15527d;fill-opacity:0.8;stroke:#15527d;stroke-opacity:0.8;" x="99.592041" xlink:href="#mcf7fff9c50" y="148.51722"/>
     <use style="fill:#15527d;fill-opacity:0.8;stroke:#15527d;stroke-opacity:0.8;" x="105.931814" xlink:href="#mcf7fff9c50" y="90.038366"/>
     <use style="fill:#15527d;fill-opacity:0.8;stroke:#15527d;stroke-opacity:0.8;" x="359.522732" xlink:href="#mcf7fff9c50" y="73.906268"/>
     <use style="fill:#15527d;fill-opacity:0.8;stroke:#15527d;stroke-opacity:0.8;" x="194.688635" xlink:href="#mcf7fff9c50" y="77.939292"/>
     <use style="fill:#15527d;fill-opacity:0.8;stroke:#15527d;stroke-opacity:0.8;" x="213.707954" xlink:href="#mcf7fff9c50" y="154.566756"/>
     <use style="fill:#15527d;fill-opacity:0.8;stroke:#15527d;stroke-opacity:0.8;" x="143.970452" xlink:href="#mcf7fff9c50" y="13.410902"/>
     <use style="fill:#15527d;fill-opacity:0.8;stroke:#15527d;stroke-opacity:0.8;" x="182.009089" xlink:href="#mcf7fff9c50" y="192.880489"/>
     <use style="fill:#15527d;fill-opacity:0.8;stroke:#15527d;stroke-opacity:0.8;" x="188.348862" xlink:href="#mcf7fff9c50" y="86.005341"/>
     <use style="fill:#15527d;fill-opacity:0.8;stroke:#15527d;stroke-opacity:0.8;" x="270.765911" xlink:href="#mcf7fff9c50" y="148.51722"/>
     <use style="fill:#15527d;fill-opacity:0.8;stroke:#15527d;stroke-opacity:0.8;" x="112.271587" xlink:href="#mcf7fff9c50" y="174.731879"/>
     <use style="fill:#15527d;fill-opacity:0.8;stroke:#15527d;stroke-opacity:0.8;" x="156.649998" xlink:href="#mcf7fff9c50" y="69.873244"/>
     <use style="fill:#15527d;fill-opacity:0.8;stroke:#15527d;stroke-opacity:0.8;" x="289.785229" xlink:href="#mcf7fff9c50" y="164.649318"/>
     <use style="fill:#15527d;fill-opacity:0.8;stroke:#15527d;stroke-opacity:0.8;" x="251.746592" xlink:href="#mcf7fff9c50" y="198.930025"/>
     <use style="fill:#15527d;fill-opacity:0.8;stroke:#15527d;stroke-opacity:0.8;" x="296.125002" xlink:href="#mcf7fff9c50" y="37.609048"/>
     <use style="fill:#15527d;fill-opacity:0.8;stroke:#15527d;stroke-opacity:0.8;" x="232.727273" xlink:href="#mcf7fff9c50" y="192.880489"/>
     <use style="fill:#15527d;fill-opacity:0.8;stroke:#15527d;stroke-opacity:0.8;" x="378.54205" xlink:href="#mcf7fff9c50" y="128.352098"/>
     <use style="fill:#15527d;fill-opacity:0.8;stroke:#15527d;stroke-opacity:0.8;" x="327.823867" xlink:href="#mcf7fff9c50" y="17.443926"/>
     <use style="fill:#15527d;fill-opacity:0.8;stroke:#15527d;stroke-opacity:0.8;" x="283.445456" xlink:href="#mcf7fff9c50" y="110.203488"/>
     <use style="fill:#15527d;fill-opacity:0.8;stroke:#15527d;stroke-opacity:0.8;" x="175.669317" xlink:href="#mcf7fff9c50" y="41.642073"/>
     <use style="fill:#15527d;fill-opacity:0.8;stroke:#15527d;stroke-opacity:0.8;" x="220.047727" xlink:href="#mcf7fff9c50" y="49.708121"/>
     <use style="fill:#15527d;fill-opacity:0.8;stroke:#15527d;stroke-opacity:0.8;" x="131.290906" xlink:href="#mcf7fff9c50" y="211.029098"/>
     <use style="fill:#15527d;fill-opacity:0.8;stroke:#15527d;stroke-opacity:0.8;" x="201.028408" xlink:href="#mcf7fff9c50" y="33.576024"/>
     <use style="fill:#15527d;fill-opacity:0.8;stroke:#15527d;stroke-opacity:0.8;" x="321.484094" xlink:href="#mcf7fff9c50" y="21.47695"/>
     <use style="fill:#15527d;fill-opacity:0.8;stroke:#15527d;stroke-opacity:0.8;" x="239.067046" xlink:href="#mcf7fff9c50" y="106.170463"/>
     <use style="fill:#15527d;fill-opacity:0.8;stroke:#15527d;stroke-opacity:0.8;" x="350.013072" xlink:href="#mcf7fff9c50" y="61.807195"/>
     <use style="fill:#15527d;fill-opacity:0.8;stroke:#15527d;stroke-opacity:0.8;" x="308.804548" xlink:href="#mcf7fff9c50" y="102.137439"/>
     <use style="fill:#15527d;fill-opacity:0.8;stroke:#15527d;stroke-opacity:0.8;" x="74.23295" xlink:href="#mcf7fff9c50" y="98.104415"/>
     <use style="fill:#15527d;fill-opacity:0.8;stroke:#15527d;stroke-opacity:0.8;" x="137.630679" xlink:href="#mcf7fff9c50" y="134.401634"/>
     <use style="fill:#15527d;fill-opacity:0.8;stroke:#15527d;stroke-opacity:0.8;" x="86.912496" xlink:href="#mcf7fff9c50" y="174.731879"/>
     <use style="fill:#15527d;fill-opacity:0.8;stroke:#15527d;stroke-opacity:0.8;" x="315.144321" xlink:href="#mcf7fff9c50" y="29.542999"/>
     <use style="fill:#15527d;fill-opacity:0.8;stroke:#15527d;stroke-opacity:0.8;" x="258.086365" xlink:href="#mcf7fff9c50" y="45.675097"/>
     <use style="fill:#15527d;fill-opacity:0.8;stroke:#15527d;stroke-opacity:0.8;" x="378.54205" xlink:href="#mcf7fff9c50" y="53.741146"/>
     <use style="fill:#15527d;fill-opacity:0.8;stroke:#15527d;stroke-opacity:0.8;" x="340.503413" xlink:href="#mcf7fff9c50" y="184.81444"/>
    </g>
   </g>
   <g id="PolyCollection_1">
    <path clip-path="url(#p3f27b74851)" d="M 74.23295 111.360079
L 74.23295 170.289323
L 77.306779 169.368301
L 80.380608 168.492966
L 83.454438 167.661847
L 86.528267 166.815878
L 89.602096 165.967952
L 92.675925 165.064438
L 95.749755 163.924842
L 98.823584 163.020741
L 101.897413 162.116641
L 104.971243 161.209443
L 108.045072 160.300773
L 111.118901 159.44302
L 114.192731 158.519149
L 117.26656 157.626302
L 120.340389 156.695904
L 123.414218 155.95474
L 126.488048 155.102379
L 129.561877 154.071907
L 132.635706 153.055193
L 135.709536 152.147243
L 138.783365 151.131525
L 141.857194 150.151371
L 144.931024 149.352529
L 148.004853 148.526458
L 151.078682 147.715352
L 154.152511 146.894735
L 157.226341 146.168709
L 160.30017 145.470827
L 163.373999 144.515592
L 166.447829 143.960037
L 169.521658 142.824846
L 172.595487 142.009412
L 175.669317 141.19522
L 178.743146 140.580049
L 181.816975 139.731037
L 184.890804 138.919052
L 187.964634 138.048919
L 191.038463 137.187353
L 194.112292 136.492147
L 197.186122 135.934857
L 200.259951 135.209366
L 203.33378 134.11362
L 206.40761 133.152508
L 209.481439 132.478418
L 212.555268 131.571527
L 215.629097 130.998938
L 218.702927 130.352738
L 221.776756 129.69059
L 224.850585 129.062672
L 227.924415 128.468748
L 230.998244 127.891171
L 234.072073 127.330928
L 237.145903 126.862643
L 240.219732 126.554226
L 243.293561 126.119019
L 246.36739 125.277048
L 249.44122 124.682338
L 252.515049 124.162524
L 255.588878 123.703075
L 258.662708 123.243843
L 261.736537 122.546325
L 264.810366 121.936836
L 267.884196 121.657659
L 270.958025 121.293604
L 274.031854 120.576791
L 277.105683 120.085463
L 280.179513 119.698672
L 283.253342 119.370966
L 286.327171 119.041414
L 289.401001 118.647416
L 292.47483 118.188152
L 295.548659 117.665004
L 298.622489 117.268926
L 301.696318 116.816298
L 304.770147 116.360093
L 307.843976 115.899259
L 310.917806 115.831712
L 313.991635 115.340029
L 317.065464 114.831461
L 320.139294 114.415393
L 323.213123 114.091345
L 326.286952 113.961059
L 329.360782 113.452516
L 332.434611 113.079478
L 335.50844 112.751311
L 338.582269 112.525032
L 341.656099 112.404379
L 344.729928 112.218732
L 347.803757 111.861574
L 350.877587 111.452037
L 353.951416 111.201131
L 357.025245 110.956213
L 360.099075 110.7079
L 363.172904 110.459587
L 366.246733 110.211274
L 369.320562 109.961602
L 372.394392 109.711097
L 375.468221 109.460592
L 378.54205 109.315157
L 378.54205 57.421636
L 378.54205 57.421636
L 375.468221 58.418082
L 372.394392 59.379079
L 369.320562 60.131785
L 366.246733 60.885151
L 363.172904 61.678162
L 360.099075 62.789266
L 357.025245 63.903344
L 353.951416 64.840227
L 350.877587 65.672229
L 347.803757 66.504232
L 344.729928 67.44411
L 341.656099 68.421023
L 338.582269 69.437652
L 335.50844 70.393217
L 332.434611 71.372658
L 329.360782 72.352918
L 326.286952 73.341704
L 323.213123 74.227866
L 320.139294 75.219794
L 317.065464 76.252988
L 313.991635 77.232361
L 310.917806 78.149785
L 307.843976 79.081002
L 304.770147 80.005322
L 301.696318 80.929643
L 298.622489 81.717721
L 295.548659 82.559991
L 292.47483 83.343995
L 289.401001 84.198196
L 286.327171 85.019011
L 283.253342 85.789075
L 280.179513 86.360415
L 277.105683 87.18502
L 274.031854 87.884114
L 270.958025 88.418062
L 267.884196 89.120792
L 264.810366 89.940195
L 261.736537 90.514508
L 258.662708 91.164609
L 255.588878 91.843412
L 252.515049 92.356499
L 249.44122 93.251574
L 246.36739 93.825679
L 243.293561 94.114847
L 240.219732 94.7121
L 237.145903 95.314053
L 234.072073 95.92546
L 230.998244 96.312421
L 227.924415 96.692957
L 224.850585 97.172029
L 221.776756 97.583335
L 218.702927 98.174548
L 215.629097 98.882067
L 212.555268 99.429887
L 209.481439 99.89394
L 206.40761 100.352697
L 203.33378 100.689602
L 200.259951 101.213028
L 197.186122 101.572858
L 194.112292 102.086869
L 191.038463 102.60088
L 187.964634 103.157587
L 184.890804 103.355419
L 181.816975 103.7644
L 178.743146 104.035584
L 175.669317 104.086035
L 172.595487 104.137203
L 169.521658 104.40017
L 166.447829 104.755886
L 163.373999 105.118444
L 160.30017 105.481003
L 157.226341 105.745283
L 154.152511 105.987552
L 151.078682 106.158069
L 148.004853 106.530845
L 144.931024 106.903621
L 141.857194 107.276397
L 138.783365 107.338869
L 135.709536 107.270389
L 132.635706 107.201908
L 129.561877 107.337333
L 126.488048 107.617669
L 123.414218 107.903135
L 120.340389 108.189026
L 117.26656 108.496775
L 114.192731 108.871215
L 111.118901 109.245655
L 108.045072 109.598647
L 104.971243 109.613815
L 101.897413 109.885399
L 98.823584 109.972953
L 95.749755 110.015165
L 92.675925 110.23923
L 89.602096 110.190971
L 86.528267 110.370695
L 83.454438 110.638221
L 80.380608 110.952042
L 77.306779 111.265862
L 74.23295 111.360079
z
" style="fill:#15527d;fill-opacity:0.15;"/>
   </g>
   <g id="matplotlib.axis_1">
    <g id="xtick_1">
     <g id="line2d_1">
      <defs>
       <path d="M 0 0
L 0 3.5
" id="mc985f079f7" style="stroke:#000000;stroke-width:0.8;"/>
      </defs>
      <g>
       <use style="stroke:#000000;stroke-width:0.8;" x="74.23295" xlink:href="#mc985f079f7" y="220.94"/>
      </g>
     </g>
     <g id="text_1">
      <!-- 0 -->
      <defs>
       <path d="M 31.78125 66.40625
Q 24.171875 66.40625 20.328125 58.90625
Q 16.5 51.421875 16.5 36.375
Q 16.5 21.390625 20.328125 13.890625
Q 24.171875 6.390625 31.78125 6.390625
Q 39.453125 6.390625 43.28125 13.890625
Q 47.125 21.390625 47.125 36.375
Q 47.125 51.421875 43.28125 58.90625
Q 39.453125 66.40625 31.78125 66.40625
z
M 31.78125 74.21875
Q 44.046875 74.21875 50.515625 64.515625
Q 56.984375 54.828125 56.984375 36.375
Q 56.984375 17.96875 50.515625 8.265625
Q 44.046875 -1.421875 31.78125 -1.421875
Q 19.53125 -1.421875 13.0625 8.265625
Q 6.59375 17.96875 6.59375 36.375
Q 6.59375 54.828125 13.0625 64.515625
Q 19.53125 74.21875 31.78125 74.21875
z
" id="DejaVuSans-48"/>
      </defs>
      <g transform="translate(69.461075 239.337656)scale(0.15 -0.15)">
       <use xlink:href="#DejaVuSans-48"/>
      </g>
     </g>
    </g>
    <g id="xtick_2">
     <g id="line2d_2">
      <g>
       <use style="stroke:#000000;stroke-width:0.8;" x="135.09477" xlink:href="#mc985f079f7" y="220.94"/>
      </g>
     </g>
     <g id="text_2">
      <!-- 20 -->
      <defs>
       <path d="M 19.1875 8.296875
L 53.609375 8.296875
L 53.609375 0
L 7.328125 0
L 7.328125 8.296875
Q 12.9375 14.109375 22.625 23.890625
Q 32.328125 33.6875 34.8125 36.53125
Q 39.546875 41.84375 41.421875 45.53125
Q 43.3125 49.21875 43.3125 52.78125
Q 43.3125 58.59375 39.234375 62.25
Q 35.15625 65.921875 28.609375 65.921875
Q 23.96875 65.921875 18.8125 64.3125
Q 13.671875 62.703125 7.8125 59.421875
L 7.8125 69.390625
Q 13.765625 71.78125 18.9375 73
Q 24.125 74.21875 28.421875 74.21875
Q 39.75 74.21875 46.484375 68.546875
Q 53.21875 62.890625 53.21875 53.421875
Q 53.21875 48.921875 51.53125 44.890625
Q 49.859375 40.875 45.40625 35.40625
Q 44.1875 33.984375 37.640625 27.21875
Q 31.109375 20.453125 19.1875 8.296875
z
" id="DejaVuSans-50"/>
      </defs>
      <g transform="translate(125.55102 239.337656)scale(0.15 -0.15)">
       <use xlink:href="#DejaVuSans-50"/>
       <use x="63.623047" xlink:href="#DejaVuSans-48"/>
      </g>
     </g>
    </g>
    <g id="xtick_3">
     <g id="line2d_3">
      <g>
       <use style="stroke:#000000;stroke-width:0.8;" x="195.95659" xlink:href="#mc985f079f7" y="220.94"/>
      </g>
     </g>
     <g id="text_3">
      <!-- 40 -->
      <defs>
       <path d="M 37.796875 64.3125
L 12.890625 25.390625
L 37.796875 25.390625
z
M 35.203125 72.90625
L 47.609375 72.90625
L 47.609375 25.390625
L 58.015625 25.390625
L 58.015625 17.1875
L 47.609375 17.1875
L 47.609375 0
L 37.796875 0
L 37.796875 17.1875
L 4.890625 17.1875
L 4.890625 26.703125
z
" id="DejaVuSans-52"/>
      </defs>
      <g transform="translate(186.41284 239.337656)scale(0.15 -0.15)">
       <use xlink:href="#DejaVuSans-52"/>
       <use x="63.623047" xlink:href="#DejaVuSans-48"/>
      </g>
     </g>
    </g>
    <g id="xtick_4">
     <g id="line2d_4">
      <g>
       <use style="stroke:#000000;stroke-width:0.8;" x="256.81841" xlink:href="#mc985f079f7" y="220.94"/>
      </g>
     </g>
     <g id="text_4">
      <!-- 60 -->
      <defs>
       <path d="M 33.015625 40.375
Q 26.375 40.375 22.484375 35.828125
Q 18.609375 31.296875 18.609375 23.390625
Q 18.609375 15.53125 22.484375 10.953125
Q 26.375 6.390625 33.015625 6.390625
Q 39.65625 6.390625 43.53125 10.953125
Q 47.40625 15.53125 47.40625 23.390625
Q 47.40625 31.296875 43.53125 35.828125
Q 39.65625 40.375 33.015625 40.375
z
M 52.59375 71.296875
L 52.59375 62.3125
Q 48.875 64.0625 45.09375 64.984375
Q 41.3125 65.921875 37.59375 65.921875
Q 27.828125 65.921875 22.671875 59.328125
Q 17.53125 52.734375 16.796875 39.40625
Q 19.671875 43.65625 24.015625 45.921875
Q 28.375 48.1875 33.59375 48.1875
Q 44.578125 48.1875 50.953125 41.515625
Q 57.328125 34.859375 57.328125 23.390625
Q 57.328125 12.15625 50.6875 5.359375
Q 44.046875 -1.421875 33.015625 -1.421875
Q 20.359375 -1.421875 13.671875 8.265625
Q 6.984375 17.96875 6.984375 36.375
Q 6.984375 53.65625 15.1875 63.9375
Q 23.390625 74.21875 37.203125 74.21875
Q 40.921875 74.21875 44.703125 73.484375
Q 48.484375 72.75 52.59375 71.296875
z
" id="DejaVuSans-54"/>
      </defs>
      <g transform="translate(247.27466 239.337656)scale(0.15 -0.15)">
       <use xlink:href="#DejaVuSans-54"/>
       <use x="63.623047" xlink:href="#DejaVuSans-48"/>
      </g>
     </g>
    </g>
    <g id="xtick_5">
     <g id="line2d_5">
      <g>
       <use style="stroke:#000000;stroke-width:0.8;" x="317.68023" xlink:href="#mc985f079f7" y="220.94"/>
      </g>
     </g>
     <g id="text_5">
      <!-- 80 -->
      <defs>
       <path d="M 31.78125 34.625
Q 24.75 34.625 20.71875 30.859375
Q 16.703125 27.09375 16.703125 20.515625
Q 16.703125 13.921875 20.71875 10.15625
Q 24.75 6.390625 31.78125 6.390625
Q 38.8125 6.390625 42.859375 10.171875
Q 46.921875 13.96875 46.921875 20.515625
Q 46.921875 27.09375 42.890625 30.859375
Q 38.875 34.625 31.78125 34.625
z
M 21.921875 38.8125
Q 15.578125 40.375 12.03125 44.71875
Q 8.5 49.078125 8.5 55.328125
Q 8.5 64.0625 14.71875 69.140625
Q 20.953125 74.21875 31.78125 74.21875
Q 42.671875 74.21875 48.875 69.140625
Q 55.078125 64.0625 55.078125 55.328125
Q 55.078125 49.078125 51.53125 44.71875
Q 48 40.375 41.703125 38.8125
Q 48.828125 37.15625 52.796875 32.3125
Q 56.78125 27.484375 56.78125 20.515625
Q 56.78125 9.90625 50.3125 4.234375
Q 43.84375 -1.421875 31.78125 -1.421875
Q 19.734375 -1.421875 13.25 4.234375
Q 6.78125 9.90625 6.78125 20.515625
Q 6.78125 27.484375 10.78125 32.3125
Q 14.796875 37.15625 21.921875 38.8125
z
M 18.3125 54.390625
Q 18.3125 48.734375 21.84375 45.5625
Q 25.390625 42.390625 31.78125 42.390625
Q 38.140625 42.390625 41.71875 45.5625
Q 45.3125 48.734375 45.3125 54.390625
Q 45.3125 60.0625 41.71875 63.234375
Q 38.140625 66.40625 31.78125 66.40625
Q 25.390625 66.40625 21.84375 63.234375
Q 18.3125 60.0625 18.3125 54.390625
z
" id="DejaVuSans-56"/>
      </defs>
      <g transform="translate(308.13648 239.337656)scale(0.15 -0.15)">
       <use xlink:href="#DejaVuSans-56"/>
       <use x="63.623047" xlink:href="#DejaVuSans-48"/>
      </g>
     </g>
    </g>
    <g id="xtick_6">
     <g id="line2d_6">
      <g>
       <use style="stroke:#000000;stroke-width:0.8;" x="378.54205" xlink:href="#mc985f079f7" y="220.94"/>
      </g>
     </g>
     <g id="text_6">
      <!-- 100 -->
      <defs>
       <path d="M 12.40625 8.296875
L 28.515625 8.296875
L 28.515625 63.921875
L 10.984375 60.40625
L 10.984375 69.390625
L 28.421875 72.90625
L 38.28125 72.90625
L 38.28125 8.296875
L 54.390625 8.296875
L 54.390625 0
L 12.40625 0
z
" id="DejaVuSans-49"/>
      </defs>
      <g transform="translate(364.226425 239.337656)scale(0.15 -0.15)">
       <use xlink:href="#DejaVuSans-49"/>
       <use x="63.623047" xlink:href="#DejaVuSans-48"/>
       <use x="127.246094" xlink:href="#DejaVuSans-48"/>
      </g>
     </g>
    </g>
    <g id="text_7">
     <!-- SOPHIE -->
     <defs>
      <path d="M 53.515625 70.515625
L 53.515625 60.890625
Q 47.90625 63.578125 42.921875 64.890625
Q 37.9375 66.21875 33.296875 66.21875
Q 25.25 66.21875 20.875 63.09375
Q 16.5 59.96875 16.5 54.203125
Q 16.5 49.359375 19.40625 46.890625
Q 22.3125 44.4375 30.421875 42.921875
L 36.375 41.703125
Q 47.40625 39.59375 52.65625 34.296875
Q 57.90625 29 57.90625 20.125
Q 57.90625 9.515625 50.796875 4.046875
Q 43.703125 -1.421875 29.984375 -1.421875
Q 24.8125 -1.421875 18.96875 -0.25
Q 13.140625 0.921875 6.890625 3.21875
L 6.890625 13.375
Q 12.890625 10.015625 18.65625 8.296875
Q 24.421875 6.59375 29.984375 6.59375
Q 38.421875 6.59375 43.015625 9.90625
Q 47.609375 13.234375 47.609375 19.390625
Q 47.609375 24.75 44.3125 27.78125
Q 41.015625 30.8125 33.5 32.328125
L 27.484375 33.5
Q 16.453125 35.6875 11.515625 40.375
Q 6.59375 45.0625 6.59375 53.421875
Q 6.59375 63.09375 13.40625 68.65625
Q 20.21875 74.21875 32.171875 74.21875
Q 37.3125 74.21875 42.625 73.28125
Q 47.953125 72.359375 53.515625 70.515625
z
" id="DejaVuSans-83"/>
      <path d="M 39.40625 66.21875
Q 28.65625 66.21875 22.328125 58.203125
Q 16.015625 50.203125 16.015625 36.375
Q 16.015625 22.609375 22.328125 14.59375
Q 28.65625 6.59375 39.40625 6.59375
Q 50.140625 6.59375 56.421875 14.59375
Q 62.703125 22.609375 62.703125 36.375
Q 62.703125 50.203125 56.421875 58.203125
Q 50.140625 66.21875 39.40625 66.21875
z
M 39.40625 74.21875
Q 54.734375 74.21875 63.90625 63.9375
Q 73.09375 53.65625 73.09375 36.375
Q 73.09375 19.140625 63.90625 8.859375
Q 54.734375 -1.421875 39.40625 -1.421875
Q 24.03125 -1.421875 14.8125 8.828125
Q 5.609375 19.09375 5.609375 36.375
Q 5.609375 53.65625 14.8125 63.9375
Q 24.03125 74.21875 39.40625 74.21875
z
" id="DejaVuSans-79"/>
      <path d="M 19.671875 64.796875
L 19.671875 37.40625
L 32.078125 37.40625
Q 38.96875 37.40625 42.71875 40.96875
Q 46.484375 44.53125 46.484375 51.125
Q 46.484375 57.671875 42.71875 61.234375
Q 38.96875 64.796875 32.078125 64.796875
z
M 9.8125 72.90625
L 32.078125 72.90625
Q 44.34375 72.90625 50.609375 67.359375
Q 56.890625 61.8125 56.890625 51.125
Q 56.890625 40.328125 50.609375 34.8125
Q 44.34375 29.296875 32.078125 29.296875
L 19.671875 29.296875
L 19.671875 0
L 9.8125 0
z
" id="DejaVuSans-80"/>
      <path d="M 9.8125 72.90625
L 19.671875 72.90625
L 19.671875 43.015625
L 55.515625 43.015625
L 55.515625 72.90625
L 65.375 72.90625
L 65.375 0
L 55.515625 0
L 55.515625 34.71875
L 19.671875 34.71875
L 19.671875 0
L 9.8125 0
z
" id="DejaVuSans-72"/>
      <path d="M 9.8125 72.90625
L 19.671875 72.90625
L 19.671875 0
L 9.8125 0
z
" id="DejaVuSans-73"/>
      <path d="M 9.8125 72.90625
L 55.90625 72.90625
L 55.90625 64.59375
L 19.671875 64.59375
L 19.671875 43.015625
L 54.390625 43.015625
L 54.390625 34.71875
L 19.671875 34.71875
L 19.671875 8.296875
L 56.78125 8.296875
L 56.78125 0
L 9.8125 0
z
" id="DejaVuSans-69"/>
     </defs>
     <g transform="translate(189.348438 261.654062)scale(0.2 -0.2)">
      <use xlink:href="#DejaVuSans-83"/>
      <use x="63.476562" xlink:href="#DejaVuSans-79"/>
      <use x="142.1875" xlink:href="#DejaVuSans-80"/>
      <use x="202.490234" xlink:href="#DejaVuSans-72"/>
      <use x="277.685547" xlink:href="#DejaVuSans-73"/>
      <use x="307.177734" xlink:href="#DejaVuSans-69"/>
     </g>
    </g>
   </g>
   <g id="matplotlib.axis_2">
    <g id="ytick_1">
     <g id="line2d_7">
      <defs>
       <path d="M 0 0
L -3.5 0
" id="m9edadfe39a" style="stroke:#000000;stroke-width:0.8;"/>
      </defs>
      <g>
       <use style="stroke:#000000;stroke-width:0.8;" x="58.9875" xlink:href="#m9edadfe39a" y="211.029098"/>
      </g>
     </g>
     <g id="text_8">
      <!-- 0 -->
      <g transform="translate(42.44375 216.727927)scale(0.15 -0.15)">
       <use xlink:href="#DejaVuSans-48"/>
      </g>
     </g>
    </g>
    <g id="ytick_2">
     <g id="line2d_8">
      <g>
       <use style="stroke:#000000;stroke-width:0.8;" x="58.9875" xlink:href="#m9edadfe39a" y="171.505459"/>
      </g>
     </g>
     <g id="text_9">
      <!-- 20 -->
      <g transform="translate(32.9 177.204287)scale(0.15 -0.15)">
       <use xlink:href="#DejaVuSans-50"/>
       <use x="63.623047" xlink:href="#DejaVuSans-48"/>
      </g>
     </g>
    </g>
    <g id="ytick_3">
     <g id="line2d_9">
      <g>
       <use style="stroke:#000000;stroke-width:0.8;" x="58.9875" xlink:href="#m9edadfe39a" y="131.98182"/>
      </g>
     </g>
     <g id="text_10">
      <!-- 40 -->
      <g transform="translate(32.9 137.680648)scale(0.15 -0.15)">
       <use xlink:href="#DejaVuSans-52"/>
       <use x="63.623047" xlink:href="#DejaVuSans-48"/>
      </g>
     </g>
    </g>
    <g id="ytick_4">
     <g id="line2d_10">
      <g>
       <use style="stroke:#000000;stroke-width:0.8;" x="58.9875" xlink:href="#m9edadfe39a" y="92.45818"/>
      </g>
     </g>
     <g id="text_11">
      <!-- 60 -->
      <g transform="translate(32.9 98.157008)scale(0.15 -0.15)">
       <use xlink:href="#DejaVuSans-54"/>
       <use x="63.623047" xlink:href="#DejaVuSans-48"/>
      </g>
     </g>
    </g>
    <g id="ytick_5">
     <g id="line2d_11">
      <g>
       <use style="stroke:#000000;stroke-width:0.8;" x="58.9875" xlink:href="#m9edadfe39a" y="52.934541"/>
      </g>
     </g>
     <g id="text_12">
      <!-- 80 -->
      <g transform="translate(32.9 58.633369)scale(0.15 -0.15)">
       <use xlink:href="#DejaVuSans-56"/>
       <use x="63.623047" xlink:href="#DejaVuSans-48"/>
      </g>
     </g>
    </g>
    <g id="ytick_6">
     <g id="line2d_12">
      <g>
       <use style="stroke:#000000;stroke-width:0.8;" x="58.9875" xlink:href="#m9edadfe39a" y="13.410902"/>
      </g>
     </g>
     <g id="text_13">
      <!-- 100 -->
      <g transform="translate(23.35625 19.10973)scale(0.15 -0.15)">
       <use xlink:href="#DejaVuSans-49"/>
       <use x="63.623047" xlink:href="#DejaVuSans-48"/>
       <use x="127.246094" xlink:href="#DejaVuSans-48"/>
      </g>
     </g>
    </g>
    <g id="text_14">
     <!-- Manual curation -->
     <defs>
      <path d="M 9.8125 72.90625
L 24.515625 72.90625
L 43.109375 23.296875
L 61.8125 72.90625
L 76.515625 72.90625
L 76.515625 0
L 66.890625 0
L 66.890625 64.015625
L 48.09375 14.015625
L 38.1875 14.015625
L 19.390625 64.015625
L 19.390625 0
L 9.8125 0
z
" id="DejaVuSans-77"/>
      <path d="M 34.28125 27.484375
Q 23.390625 27.484375 19.1875 25
Q 14.984375 22.515625 14.984375 16.5
Q 14.984375 11.71875 18.140625 8.90625
Q 21.296875 6.109375 26.703125 6.109375
Q 34.1875 6.109375 38.703125 11.40625
Q 43.21875 16.703125 43.21875 25.484375
L 43.21875 27.484375
z
M 52.203125 31.203125
L 52.203125 0
L 43.21875 0
L 43.21875 8.296875
Q 40.140625 3.328125 35.546875 0.953125
Q 30.953125 -1.421875 24.3125 -1.421875
Q 15.921875 -1.421875 10.953125 3.296875
Q 6 8.015625 6 15.921875
Q 6 25.140625 12.171875 29.828125
Q 18.359375 34.515625 30.609375 34.515625
L 43.21875 34.515625
L 43.21875 35.40625
Q 43.21875 41.609375 39.140625 45
Q 35.0625 48.390625 27.6875 48.390625
Q 23 48.390625 18.546875 47.265625
Q 14.109375 46.140625 10.015625 43.890625
L 10.015625 52.203125
Q 14.9375 54.109375 19.578125 55.046875
Q 24.21875 56 28.609375 56
Q 40.484375 56 46.34375 49.84375
Q 52.203125 43.703125 52.203125 31.203125
z
" id="DejaVuSans-97"/>
      <path d="M 54.890625 33.015625
L 54.890625 0
L 45.90625 0
L 45.90625 32.71875
Q 45.90625 40.484375 42.875 44.328125
Q 39.84375 48.1875 33.796875 48.1875
Q 26.515625 48.1875 22.3125 43.546875
Q 18.109375 38.921875 18.109375 30.90625
L 18.109375 0
L 9.078125 0
L 9.078125 54.6875
L 18.109375 54.6875
L 18.109375 46.1875
Q 21.34375 51.125 25.703125 53.5625
Q 30.078125 56 35.796875 56
Q 45.21875 56 50.046875 50.171875
Q 54.890625 44.34375 54.890625 33.015625
z
" id="DejaVuSans-110"/>
      <path d="M 8.5 21.578125
L 8.5 54.6875
L 17.484375 54.6875
L 17.484375 21.921875
Q 17.484375 14.15625 20.5 10.265625
Q 23.53125 6.390625 29.59375 6.390625
Q 36.859375 6.390625 41.078125 11.03125
Q 45.3125 15.671875 45.3125 23.6875
L 45.3125 54.6875
L 54.296875 54.6875
L 54.296875 0
L 45.3125 0
L 45.3125 8.40625
Q 42.046875 3.421875 37.71875 1
Q 33.40625 -1.421875 27.6875 -1.421875
Q 18.265625 -1.421875 13.375 4.4375
Q 8.5 10.296875 8.5 21.578125
z
M 31.109375 56
z
" id="DejaVuSans-117"/>
      <path d="M 9.421875 75.984375
L 18.40625 75.984375
L 18.40625 0
L 9.421875 0
z
" id="DejaVuSans-108"/>
      <path id="DejaVuSans-32"/>
      <path d="M 48.78125 52.59375
L 48.78125 44.1875
Q 44.96875 46.296875 41.140625 47.34375
Q 37.3125 48.390625 33.40625 48.390625
Q 24.65625 48.390625 19.8125 42.84375
Q 14.984375 37.3125 14.984375 27.296875
Q 14.984375 17.28125 19.8125 11.734375
Q 24.65625 6.203125 33.40625 6.203125
Q 37.3125 6.203125 41.140625 7.25
Q 44.96875 8.296875 48.78125 10.40625
L 48.78125 2.09375
Q 45.015625 0.34375 40.984375 -0.53125
Q 36.96875 -1.421875 32.421875 -1.421875
Q 20.0625 -1.421875 12.78125 6.34375
Q 5.515625 14.109375 5.515625 27.296875
Q 5.515625 40.671875 12.859375 48.328125
Q 20.21875 56 33.015625 56
Q 37.15625 56 41.109375 55.140625
Q 45.0625 54.296875 48.78125 52.59375
z
" id="DejaVuSans-99"/>
      <path d="M 41.109375 46.296875
Q 39.59375 47.171875 37.8125 47.578125
Q 36.03125 48 33.890625 48
Q 26.265625 48 22.1875 43.046875
Q 18.109375 38.09375 18.109375 28.8125
L 18.109375 0
L 9.078125 0
L 9.078125 54.6875
L 18.109375 54.6875
L 18.109375 46.1875
Q 20.953125 51.171875 25.484375 53.578125
Q 30.03125 56 36.53125 56
Q 37.453125 56 38.578125 55.875
Q 39.703125 55.765625 41.0625 55.515625
z
" id="DejaVuSans-114"/>
      <path d="M 18.3125 70.21875
L 18.3125 54.6875
L 36.8125 54.6875
L 36.8125 47.703125
L 18.3125 47.703125
L 18.3125 18.015625
Q 18.3125 11.328125 20.140625 9.421875
Q 21.96875 7.515625 27.59375 7.515625
L 36.8125 7.515625
L 36.8125 0
L 27.59375 0
Q 17.1875 0 13.234375 3.875
Q 9.28125 7.765625 9.28125 18.015625
L 9.28125 47.703125
L 2.6875 47.703125
L 2.6875 54.6875
L 9.28125 54.6875
L 9.28125 70.21875
z
" id="DejaVuSans-116"/>
      <path d="M 9.421875 54.6875
L 18.40625 54.6875
L 18.40625 0
L 9.421875 0
z
M 9.421875 75.984375
L 18.40625 75.984375
L 18.40625 64.59375
L 9.421875 64.59375
z
" id="DejaVuSans-105"/>
      <path d="M 30.609375 48.390625
Q 23.390625 48.390625 19.1875 42.75
Q 14.984375 37.109375 14.984375 27.296875
Q 14.984375 17.484375 19.15625 11.84375
Q 23.34375 6.203125 30.609375 6.203125
Q 37.796875 6.203125 41.984375 11.859375
Q 46.1875 17.53125 46.1875 27.296875
Q 46.1875 37.015625 41.984375 42.703125
Q 37.796875 48.390625 30.609375 48.390625
z
M 30.609375 56
Q 42.328125 56 49.015625 48.375
Q 55.71875 40.765625 55.71875 27.296875
Q 55.71875 13.875 49.015625 6.21875
Q 42.328125 -1.421875 30.609375 -1.421875
Q 18.84375 -1.421875 12.171875 6.21875
Q 5.515625 13.875 5.515625 27.296875
Q 5.515625 40.765625 12.171875 48.375
Q 18.84375 56 30.609375 56
z
" id="DejaVuSans-111"/>
     </defs>
     <g transform="translate(15.196875 192.965312)rotate(-90)scale(0.2 -0.2)">
      <use xlink:href="#DejaVuSans-77"/>
      <use x="86.279297" xlink:href="#DejaVuSans-97"/>
      <use x="147.558594" xlink:href="#DejaVuSans-110"/>
      <use x="210.9375" xlink:href="#DejaVuSans-117"/>
      <use x="274.316406" xlink:href="#DejaVuSans-97"/>
      <use x="335.595703" xlink:href="#DejaVuSans-108"/>
      <use x="363.378906" xlink:href="#DejaVuSans-32"/>
      <use x="395.166016" xlink:href="#DejaVuSans-99"/>
      <use x="450.146484" xlink:href="#DejaVuSans-117"/>
      <use x="513.525391" xlink:href="#DejaVuSans-114"/>
      <use x="554.638672" xlink:href="#DejaVuSans-97"/>
      <use x="615.917969" xlink:href="#DejaVuSans-116"/>
      <use x="655.126953" xlink:href="#DejaVuSans-105"/>
      <use x="682.910156" xlink:href="#DejaVuSans-111"/>
      <use x="744.091797" xlink:href="#DejaVuSans-110"/>
     </g>
    </g>
   </g>
   <g id="line2d_13">
    <path clip-path="url(#p3f27b74851)" d="M 74.23295 143.096657
L 77.306779 142.485616
L 80.380608 141.874575
L 83.454438 141.263534
L 86.528267 140.652493
L 89.602096 140.041453
L 92.675925 139.430412
L 95.749755 138.819371
L 98.823584 138.20833
L 101.897413 137.597289
L 104.971243 136.986249
L 108.045072 136.375208
L 111.118901 135.764167
L 114.192731 135.153126
L 117.26656 134.542085
L 120.340389 133.931044
L 123.414218 133.320004
L 126.488048 132.708963
L 129.561877 132.097922
L 132.635706 131.486881
L 135.709536 130.87584
L 138.783365 130.264799
L 141.857194 129.653759
L 144.931024 129.042718
L 148.004853 128.431677
L 151.078682 127.820636
L 154.152511 127.209595
L 157.226341 126.598554
L 160.30017 125.987514
L 163.373999 125.376473
L 166.447829 124.765432
L 169.521658 124.154391
L 172.595487 123.54335
L 175.669317 122.932309
L 178.743146 122.321269
L 181.816975 121.710228
L 184.890804 121.099187
L 187.964634 120.488146
L 191.038463 119.877105
L 194.112292 119.266065
L 197.186122 118.655024
L 200.259951 118.043983
L 203.33378 117.432942
L 206.40761 116.821901
L 209.481439 116.21086
L 212.555268 115.59982
L 215.629097 114.988779
L 218.702927 114.377738
L 221.776756 113.766697
L 224.850585 113.155656
L 227.924415 112.544615
L 230.998244 111.933575
L 234.072073 111.322534
L 237.145903 110.711493
L 240.219732 110.100452
L 243.293561 109.489411
L 246.36739 108.87837
L 249.44122 108.26733
L 252.515049 107.656289
L 255.588878 107.045248
L 258.662708 106.434207
L 261.736537 105.823166
L 264.810366 105.212126
L 267.884196 104.601085
L 270.958025 103.990044
L 274.031854 103.379003
L 277.105683 102.767962
L 280.179513 102.156921
L 283.253342 101.545881
L 286.327171 100.93484
L 289.401001 100.323799
L 292.47483 99.712758
L 295.548659 99.101717
L 298.622489 98.490676
L 301.696318 97.879636
L 304.770147 97.268595
L 307.843976 96.657554
L 310.917806 96.046513
L 313.991635 95.435472
L 317.065464 94.824431
L 320.139294 94.213391
L 323.213123 93.60235
L 326.286952 92.991309
L 329.360782 92.380268
L 332.434611 91.769227
L 335.50844 91.158186
L 338.582269 90.547146
L 341.656099 89.936105
L 344.729928 89.325064
L 347.803757 88.714023
L 350.877587 88.102982
L 353.951416 87.491942
L 357.025245 86.880901
L 360.099075 86.26986
L 363.172904 85.658819
L 366.246733 85.047778
L 369.320562 84.436737
L 372.394392 83.825697
L 375.468221 83.214656
L 378.54205 82.603615
" style="fill:none;stroke:#15527d;stroke-linecap:square;stroke-width:2.25;"/>
   </g>
   <g id="patch_3">
    <path d="M 58.9875 220.94
L 58.9875 3.5
" style="fill:none;stroke:#000000;stroke-linecap:square;stroke-linejoin:miter;stroke-width:1.5;"/>
   </g>
   <g id="patch_4">
    <path d="M 393.7875 220.94
L 393.7875 3.5
" style="fill:none;stroke:#000000;stroke-linecap:square;stroke-linejoin:miter;stroke-width:1.5;"/>
   </g>
   <g id="patch_5">
    <path d="M 58.9875 220.94
L 393.7875 220.94
" style="fill:none;stroke:#000000;stroke-linecap:square;stroke-linejoin:miter;stroke-width:1.5;"/>
   </g>
   <g id="patch_6">
    <path d="M 58.9875 3.5
L 393.7875 3.5
" style="fill:none;stroke:#000000;stroke-linecap:square;stroke-linejoin:miter;stroke-width:1.5;"/>
   </g>
   <g id="text_15">
    <!-- R^2 = 0.313 -->
    <defs>
     <path d="M 44.390625 34.1875
Q 47.5625 33.109375 50.5625 29.59375
Q 53.5625 26.078125 56.59375 19.921875
L 66.609375 0
L 56 0
L 46.6875 18.703125
Q 43.0625 26.03125 39.671875 28.421875
Q 36.28125 30.8125 30.421875 30.8125
L 19.671875 30.8125
L 19.671875 0
L 9.8125 0
L 9.8125 72.90625
L 32.078125 72.90625
Q 44.578125 72.90625 50.734375 67.671875
Q 56.890625 62.453125 56.890625 51.90625
Q 56.890625 45.015625 53.6875 40.46875
Q 50.484375 35.9375 44.390625 34.1875
z
M 19.671875 64.796875
L 19.671875 38.921875
L 32.078125 38.921875
Q 39.203125 38.921875 42.84375 42.21875
Q 46.484375 45.515625 46.484375 51.90625
Q 46.484375 58.296875 42.84375 61.546875
Q 39.203125 64.796875 32.078125 64.796875
z
" id="DejaVuSans-82"/>
     <path d="M 46.6875 72.90625
L 73.1875 45.703125
L 63.375 45.703125
L 41.890625 64.984375
L 20.40625 45.703125
L 10.59375 45.703125
L 37.109375 72.90625
z
" id="DejaVuSans-94"/>
     <path d="M 10.59375 45.40625
L 73.1875 45.40625
L 73.1875 37.203125
L 10.59375 37.203125
z
M 10.59375 25.484375
L 73.1875 25.484375
L 73.1875 17.1875
L 10.59375 17.1875
z
" id="DejaVuSans-61"/>
     <path d="M 10.6875 12.40625
L 21 12.40625
L 21 0
L 10.6875 0
z
" id="DejaVuSans-46"/>
     <path d="M 40.578125 39.3125
Q 47.65625 37.796875 51.625 33
Q 55.609375 28.21875 55.609375 21.1875
Q 55.609375 10.40625 48.1875 4.484375
Q 40.765625 -1.421875 27.09375 -1.421875
Q 22.515625 -1.421875 17.65625 -0.515625
Q 12.796875 0.390625 7.625 2.203125
L 7.625 11.71875
Q 11.71875 9.328125 16.59375 8.109375
Q 21.484375 6.890625 26.8125 6.890625
Q 36.078125 6.890625 40.9375 10.546875
Q 45.796875 14.203125 45.796875 21.1875
Q 45.796875 27.640625 41.28125 31.265625
Q 36.765625 34.90625 28.71875 34.90625
L 20.21875 34.90625
L 20.21875 43.015625
L 29.109375 43.015625
Q 36.375 43.015625 40.234375 45.921875
Q 44.09375 48.828125 44.09375 54.296875
Q 44.09375 59.90625 40.109375 62.90625
Q 36.140625 65.921875 28.71875 65.921875
Q 24.65625 65.921875 20.015625 65.03125
Q 15.375 64.15625 9.8125 62.3125
L 9.8125 71.09375
Q 15.4375 72.65625 20.34375 73.4375
Q 25.25 74.21875 29.59375 74.21875
Q 40.828125 74.21875 47.359375 69.109375
Q 53.90625 64.015625 53.90625 55.328125
Q 53.90625 49.265625 50.4375 45.09375
Q 46.96875 40.921875 40.578125 39.3125
z
" id="DejaVuSans-51"/>
    </defs>
    <g transform="translate(74.23295 17.363266)scale(0.14 -0.14)">
     <use xlink:href="#DejaVuSans-82"/>
     <use x="69.482422" xlink:href="#DejaVuSans-94"/>
     <use x="153.271484" xlink:href="#DejaVuSans-50"/>
     <use x="216.894531" xlink:href="#DejaVuSans-32"/>
     <use x="248.681641" xlink:href="#DejaVuSans-61"/>
     <use x="332.470703" xlink:href="#DejaVuSans-32"/>
     <use x="364.257812" xlink:href="#DejaVuSans-48"/>
     <use x="427.880859" xlink:href="#DejaVuSans-46"/>
     <use x="459.667969" xlink:href="#DejaVuSans-51"/>
     <use x="523.291016" xlink:href="#DejaVuSans-49"/>
     <use x="586.914062" xlink:href="#DejaVuSans-51"/>
    </g>
   </g>
  </g>
 </g>
 <defs>
  <clipPath id="p3f27b74851">
   <rect height="217.44" width="334.8" x="58.9875" y="3.5"/>
  </clipPath>
 </defs>
</svg>
