<?xml version="1.0" encoding="utf-8" standalone="no"?>
<!DOCTYPE svg PUBLIC "-//W3C//DTD SVG 1.1//EN"
  "http://www.w3.org/Graphics/SVG/1.1/DTD/svg11.dtd">
<!-- Created with matplotlib (https://matplotlib.org/) -->
<svg height="256.146875pt" version="1.1" viewBox="0 0 389.571875 256.146875" width="389.571875pt" xmlns="http://www.w3.org/2000/svg" xmlns:xlink="http://www.w3.org/1999/xlink">
 <defs>
  <style type="text/css">
*{stroke-linecap:butt;stroke-linejoin:round;}
  </style>
 </defs>
 <g id="figure_1">
  <g id="patch_1">
   <path d="M 0 256.146875
L 389.571875 256.146875
L 389.571875 0
L 0 0
z
" style="fill:none;"/>
  </g>
  <g id="axes_1">
   <g id="patch_2">
    <path d="M 51.271875 235.5975
L 386.071875 235.5975
L 386.071875 18.1575
L 51.271875 18.1575
z
" style="fill:none;"/>
   </g>
   <g id="patch_3">
    <path clip-path="url(#p00b0c8c183)" d="M 68.011875 211.337665
L 201.931875 211.337665
L 201.931875 203.081809
L 168.451875 202.352541
L 201.931875 201.623273
L 201.931875 191.570393
L 68.011875 191.570393
L 68.011875 201.623273
L 101.491875 202.352541
L 68.011875 203.081809
L 68.011875 211.337665
z
" style="fill:#3d7ca6;stroke:#444444;stroke-linejoin:miter;stroke-width:1.5;"/>
   </g>
   <g id="patch_4">
    <path clip-path="url(#p00b0c8c183)" d="M 235.411875 200.555517
L 369.331875 200.555517
L 369.331875 190.358099
L 335.851875 189.773368
L 369.331875 189.188636
L 369.331875 175.397169
L 235.411875 175.397169
L 235.411875 189.188636
L 268.891875 189.773368
L 235.411875 190.358099
L 235.411875 200.555517
z
" style="fill:#d3d3d3;stroke:#444444;stroke-linejoin:miter;stroke-width:1.5;"/>
   </g>
   <g id="matplotlib.axis_1">
    <g id="xtick_1">
     <g id="line2d_1">
      <defs>
       <path d="M 0 0
L 0 3.5
" id="m23e029e21d" style="stroke:#000000;stroke-width:0.8;"/>
      </defs>
      <g>
       <use style="stroke:#000000;stroke-width:0.8;" x="134.971875" xlink:href="#m23e029e21d" y="235.5975"/>
      </g>
     </g>
     <g id="text_1">
      <!-- generic genes -->
      <defs>
       <path d="M 45.40625 27.984375
Q 45.40625 37.75 41.375 43.109375
Q 37.359375 48.484375 30.078125 48.484375
Q 22.859375 48.484375 18.828125 43.109375
Q 14.796875 37.75 14.796875 27.984375
Q 14.796875 18.265625 18.828125 12.890625
Q 22.859375 7.515625 30.078125 7.515625
Q 37.359375 7.515625 41.375 12.890625
Q 45.40625 18.265625 45.40625 27.984375
z
M 54.390625 6.78125
Q 54.390625 -7.171875 48.1875 -13.984375
Q 42 -20.796875 29.203125 -20.796875
Q 24.46875 -20.796875 20.265625 -20.09375
Q 16.0625 -19.390625 12.109375 -17.921875
L 12.109375 -9.1875
Q 16.0625 -11.328125 19.921875 -12.34375
Q 23.78125 -13.375 27.78125 -13.375
Q 36.625 -13.375 41.015625 -8.765625
Q 45.40625 -4.15625 45.40625 5.171875
L 45.40625 9.625
Q 42.625 4.78125 38.28125 2.390625
Q 33.9375 0 27.875 0
Q 17.828125 0 11.671875 7.65625
Q 5.515625 15.328125 5.515625 27.984375
Q 5.515625 40.671875 11.671875 48.328125
Q 17.828125 56 27.875 56
Q 33.9375 56 38.28125 53.609375
Q 42.625 51.21875 45.40625 46.390625
L 45.40625 54.6875
L 54.390625 54.6875
z
" id="DejaVuSans-103"/>
       <path d="M 56.203125 29.59375
L 56.203125 25.203125
L 14.890625 25.203125
Q 15.484375 15.921875 20.484375 11.0625
Q 25.484375 6.203125 34.421875 6.203125
Q 39.59375 6.203125 44.453125 7.46875
Q 49.3125 8.734375 54.109375 11.28125
L 54.109375 2.78125
Q 49.265625 0.734375 44.1875 -0.34375
Q 39.109375 -1.421875 33.890625 -1.421875
Q 20.796875 -1.421875 13.15625 6.1875
Q 5.515625 13.8125 5.515625 26.8125
Q 5.515625 40.234375 12.765625 48.109375
Q 20.015625 56 32.328125 56
Q 43.359375 56 49.78125 48.890625
Q 56.203125 41.796875 56.203125 29.59375
z
M 47.21875 32.234375
Q 47.125 39.59375 43.09375 43.984375
Q 39.0625 48.390625 32.421875 48.390625
Q 24.90625 48.390625 20.390625 44.140625
Q 15.875 39.890625 15.1875 32.171875
z
" id="DejaVuSans-101"/>
       <path d="M 54.890625 33.015625
L 54.890625 0
L 45.90625 0
L 45.90625 32.71875
Q 45.90625 40.484375 42.875 44.328125
Q 39.84375 48.1875 33.796875 48.1875
Q 26.515625 48.1875 22.3125 43.546875
Q 18.109375 38.921875 18.109375 30.90625
L 18.109375 0
L 9.078125 0
L 9.078125 54.6875
L 18.109375 54.6875
L 18.109375 46.1875
Q 21.34375 51.125 25.703125 53.5625
Q 30.078125 56 35.796875 56
Q 45.21875 56 50.046875 50.171875
Q 54.890625 44.34375 54.890625 33.015625
z
" id="DejaVuSans-110"/>
       <path d="M 41.109375 46.296875
Q 39.59375 47.171875 37.8125 47.578125
Q 36.03125 48 33.890625 48
Q 26.265625 48 22.1875 43.046875
Q 18.109375 38.09375 18.109375 28.8125
L 18.109375 0
L 9.078125 0
L 9.078125 54.6875
L 18.109375 54.6875
L 18.109375 46.1875
Q 20.953125 51.171875 25.484375 53.578125
Q 30.03125 56 36.53125 56
Q 37.453125 56 38.578125 55.875
Q 39.703125 55.765625 41.0625 55.515625
z
" id="DejaVuSans-114"/>
       <path d="M 9.421875 54.6875
L 18.40625 54.6875
L 18.40625 0
L 9.421875 0
z
M 9.421875 75.984375
L 18.40625 75.984375
L 18.40625 64.59375
L 9.421875 64.59375
z
" id="DejaVuSans-105"/>
       <path d="M 48.78125 52.59375
L 48.78125 44.1875
Q 44.96875 46.296875 41.140625 47.34375
Q 37.3125 48.390625 33.40625 48.390625
Q 24.65625 48.390625 19.8125 42.84375
Q 14.984375 37.3125 14.984375 27.296875
Q 14.984375 17.28125 19.8125 11.734375
Q 24.65625 6.203125 33.40625 6.203125
Q 37.3125 6.203125 41.140625 7.25
Q 44.96875 8.296875 48.78125 10.40625
L 48.78125 2.09375
Q 45.015625 0.34375 40.984375 -0.53125
Q 36.96875 -1.421875 32.421875 -1.421875
Q 20.0625 -1.421875 12.78125 6.34375
Q 5.515625 14.109375 5.515625 27.296875
Q 5.515625 40.671875 12.859375 48.328125
Q 20.21875 56 33.015625 56
Q 37.15625 56 41.109375 55.140625
Q 45.0625 54.296875 48.78125 52.59375
z
" id="DejaVuSans-99"/>
       <path id="DejaVuSans-32"/>
       <path d="M 44.28125 53.078125
L 44.28125 44.578125
Q 40.484375 46.53125 36.375 47.5
Q 32.28125 48.484375 27.875 48.484375
Q 21.1875 48.484375 17.84375 46.4375
Q 14.5 44.390625 14.5 40.28125
Q 14.5 37.15625 16.890625 35.375
Q 19.28125 33.59375 26.515625 31.984375
L 29.59375 31.296875
Q 39.15625 29.25 43.1875 25.515625
Q 47.21875 21.78125 47.21875 15.09375
Q 47.21875 7.46875 41.1875 3.015625
Q 35.15625 -1.421875 24.609375 -1.421875
Q 20.21875 -1.421875 15.453125 -0.5625
Q 10.6875 0.296875 5.421875 2
L 5.421875 11.28125
Q 10.40625 8.6875 15.234375 7.390625
Q 20.0625 6.109375 24.8125 6.109375
Q 31.15625 6.109375 34.5625 8.28125
Q 37.984375 10.453125 37.984375 14.40625
Q 37.984375 18.0625 35.515625 20.015625
Q 33.0625 21.96875 24.703125 23.78125
L 21.578125 24.515625
Q 13.234375 26.265625 9.515625 29.90625
Q 5.8125 33.546875 5.8125 39.890625
Q 5.8125 47.609375 11.28125 51.796875
Q 16.75 56 26.8125 56
Q 31.78125 56 36.171875 55.265625
Q 40.578125 54.546875 44.28125 53.078125
z
" id="DejaVuSans-115"/>
      </defs>
      <g transform="translate(85.440313 253.235313)scale(0.14 -0.14)">
       <use xlink:href="#DejaVuSans-103"/>
       <use x="63.476562" xlink:href="#DejaVuSans-101"/>
       <use x="125" xlink:href="#DejaVuSans-110"/>
       <use x="188.378906" xlink:href="#DejaVuSans-101"/>
       <use x="249.902344" xlink:href="#DejaVuSans-114"/>
       <use x="291.015625" xlink:href="#DejaVuSans-105"/>
       <use x="318.798828" xlink:href="#DejaVuSans-99"/>
       <use x="373.779297" xlink:href="#DejaVuSans-32"/>
       <use x="405.566406" xlink:href="#DejaVuSans-103"/>
       <use x="469.042969" xlink:href="#DejaVuSans-101"/>
       <use x="530.566406" xlink:href="#DejaVuSans-110"/>
       <use x="593.945312" xlink:href="#DejaVuSans-101"/>
       <use x="655.46875" xlink:href="#DejaVuSans-115"/>
      </g>
     </g>
    </g>
    <g id="xtick_2">
     <g id="line2d_2">
      <g>
       <use style="stroke:#000000;stroke-width:0.8;" x="302.371875" xlink:href="#m23e029e21d" y="235.5975"/>
      </g>
     </g>
     <g id="text_2">
      <!-- other genes -->
      <defs>
       <path d="M 30.609375 48.390625
Q 23.390625 48.390625 19.1875 42.75
Q 14.984375 37.109375 14.984375 27.296875
Q 14.984375 17.484375 19.15625 11.84375
Q 23.34375 6.203125 30.609375 6.203125
Q 37.796875 6.203125 41.984375 11.859375
Q 46.1875 17.53125 46.1875 27.296875
Q 46.1875 37.015625 41.984375 42.703125
Q 37.796875 48.390625 30.609375 48.390625
z
M 30.609375 56
Q 42.328125 56 49.015625 48.375
Q 55.71875 40.765625 55.71875 27.296875
Q 55.71875 13.875 49.015625 6.21875
Q 42.328125 -1.421875 30.609375 -1.421875
Q 18.84375 -1.421875 12.171875 6.21875
Q 5.515625 13.875 5.515625 27.296875
Q 5.515625 40.765625 12.171875 48.375
Q 18.84375 56 30.609375 56
z
" id="DejaVuSans-111"/>
       <path d="M 18.3125 70.21875
L 18.3125 54.6875
L 36.8125 54.6875
L 36.8125 47.703125
L 18.3125 47.703125
L 18.3125 18.015625
Q 18.3125 11.328125 20.140625 9.421875
Q 21.96875 7.515625 27.59375 7.515625
L 36.8125 7.515625
L 36.8125 0
L 27.59375 0
Q 17.1875 0 13.234375 3.875
Q 9.28125 7.765625 9.28125 18.015625
L 9.28125 47.703125
L 2.6875 47.703125
L 2.6875 54.6875
L 9.28125 54.6875
L 9.28125 70.21875
z
" id="DejaVuSans-116"/>
       <path d="M 54.890625 33.015625
L 54.890625 0
L 45.90625 0
L 45.90625 32.71875
Q 45.90625 40.484375 42.875 44.328125
Q 39.84375 48.1875 33.796875 48.1875
Q 26.515625 48.1875 22.3125 43.546875
Q 18.109375 38.921875 18.109375 30.90625
L 18.109375 0
L 9.078125 0
L 9.078125 75.984375
L 18.109375 75.984375
L 18.109375 46.1875
Q 21.34375 51.125 25.703125 53.5625
Q 30.078125 56 35.796875 56
Q 45.21875 56 50.046875 50.171875
Q 54.890625 44.34375 54.890625 33.015625
z
" id="DejaVuSans-104"/>
      </defs>
      <g transform="translate(260.357656 253.235313)scale(0.14 -0.14)">
       <use xlink:href="#DejaVuSans-111"/>
       <use x="61.181641" xlink:href="#DejaVuSans-116"/>
       <use x="100.390625" xlink:href="#DejaVuSans-104"/>
       <use x="163.769531" xlink:href="#DejaVuSans-101"/>
       <use x="225.292969" xlink:href="#DejaVuSans-114"/>
       <use x="266.40625" xlink:href="#DejaVuSans-32"/>
       <use x="298.193359" xlink:href="#DejaVuSans-103"/>
       <use x="361.669922" xlink:href="#DejaVuSans-101"/>
       <use x="423.193359" xlink:href="#DejaVuSans-110"/>
       <use x="486.572266" xlink:href="#DejaVuSans-101"/>
       <use x="548.095703" xlink:href="#DejaVuSans-115"/>
      </g>
     </g>
    </g>
   </g>
   <g id="matplotlib.axis_2">
    <g id="ytick_1">
     <g id="line2d_3">
      <defs>
       <path d="M 0 0
L -3.5 0
" id="m0e24a1378c" style="stroke:#000000;stroke-width:0.8;"/>
      </defs>
      <g>
       <use style="stroke:#000000;stroke-width:0.8;" x="51.271875" xlink:href="#m0e24a1378c" y="225.713864"/>
      </g>
     </g>
     <g id="text_3">
      <!-- 0 -->
      <defs>
       <path d="M 31.78125 66.40625
Q 24.171875 66.40625 20.328125 58.90625
Q 16.5 51.421875 16.5 36.375
Q 16.5 21.390625 20.328125 13.890625
Q 24.171875 6.390625 31.78125 6.390625
Q 39.453125 6.390625 43.28125 13.890625
Q 47.125 21.390625 47.125 36.375
Q 47.125 51.421875 43.28125 58.90625
Q 39.453125 66.40625 31.78125 66.40625
z
M 31.78125 74.21875
Q 44.046875 74.21875 50.515625 64.515625
Q 56.984375 54.828125 56.984375 36.375
Q 56.984375 17.96875 50.515625 8.265625
Q 44.046875 -1.421875 31.78125 -1.421875
Q 19.53125 -1.421875 13.0625 8.265625
Q 6.59375 17.96875 6.59375 36.375
Q 6.59375 54.828125 13.0625 64.515625
Q 19.53125 74.21875 31.78125 74.21875
z
" id="DejaVuSans-48"/>
      </defs>
      <g transform="translate(35.364375 231.03277)scale(0.14 -0.14)">
       <use xlink:href="#DejaVuSans-48"/>
      </g>
     </g>
    </g>
    <g id="ytick_2">
     <g id="line2d_4">
      <g>
       <use style="stroke:#000000;stroke-width:0.8;" x="51.271875" xlink:href="#m0e24a1378c" y="189.773368"/>
      </g>
     </g>
     <g id="text_4">
      <!-- 20 -->
      <defs>
       <path d="M 19.1875 8.296875
L 53.609375 8.296875
L 53.609375 0
L 7.328125 0
L 7.328125 8.296875
Q 12.9375 14.109375 22.625 23.890625
Q 32.328125 33.6875 34.8125 36.53125
Q 39.546875 41.84375 41.421875 45.53125
Q 43.3125 49.21875 43.3125 52.78125
Q 43.3125 58.59375 39.234375 62.25
Q 35.15625 65.921875 28.609375 65.921875
Q 23.96875 65.921875 18.8125 64.3125
Q 13.671875 62.703125 7.8125 59.421875
L 7.8125 69.390625
Q 13.765625 71.78125 18.9375 73
Q 24.125 74.21875 28.421875 74.21875
Q 39.75 74.21875 46.484375 68.546875
Q 53.21875 62.890625 53.21875 53.421875
Q 53.21875 48.921875 51.53125 44.890625
Q 49.859375 40.875 45.40625 35.40625
Q 44.1875 33.984375 37.640625 27.21875
Q 31.109375 20.453125 19.1875 8.296875
z
" id="DejaVuSans-50"/>
      </defs>
      <g transform="translate(26.456875 195.092274)scale(0.14 -0.14)">
       <use xlink:href="#DejaVuSans-50"/>
       <use x="63.623047" xlink:href="#DejaVuSans-48"/>
      </g>
     </g>
    </g>
    <g id="ytick_3">
     <g id="line2d_5">
      <g>
       <use style="stroke:#000000;stroke-width:0.8;" x="51.271875" xlink:href="#m0e24a1378c" y="153.832872"/>
      </g>
     </g>
     <g id="text_5">
      <!-- 40 -->
      <defs>
       <path d="M 37.796875 64.3125
L 12.890625 25.390625
L 37.796875 25.390625
z
M 35.203125 72.90625
L 47.609375 72.90625
L 47.609375 25.390625
L 58.015625 25.390625
L 58.015625 17.1875
L 47.609375 17.1875
L 47.609375 0
L 37.796875 0
L 37.796875 17.1875
L 4.890625 17.1875
L 4.890625 26.703125
z
" id="DejaVuSans-52"/>
      </defs>
      <g transform="translate(26.456875 159.151778)scale(0.14 -0.14)">
       <use xlink:href="#DejaVuSans-52"/>
       <use x="63.623047" xlink:href="#DejaVuSans-48"/>
      </g>
     </g>
    </g>
    <g id="ytick_4">
     <g id="line2d_6">
      <g>
       <use style="stroke:#000000;stroke-width:0.8;" x="51.271875" xlink:href="#m0e24a1378c" y="117.892376"/>
      </g>
     </g>
     <g id="text_6">
      <!-- 60 -->
      <defs>
       <path d="M 33.015625 40.375
Q 26.375 40.375 22.484375 35.828125
Q 18.609375 31.296875 18.609375 23.390625
Q 18.609375 15.53125 22.484375 10.953125
Q 26.375 6.390625 33.015625 6.390625
Q 39.65625 6.390625 43.53125 10.953125
Q 47.40625 15.53125 47.40625 23.390625
Q 47.40625 31.296875 43.53125 35.828125
Q 39.65625 40.375 33.015625 40.375
z
M 52.59375 71.296875
L 52.59375 62.3125
Q 48.875 64.0625 45.09375 64.984375
Q 41.3125 65.921875 37.59375 65.921875
Q 27.828125 65.921875 22.671875 59.328125
Q 17.53125 52.734375 16.796875 39.40625
Q 19.671875 43.65625 24.015625 45.921875
Q 28.375 48.1875 33.59375 48.1875
Q 44.578125 48.1875 50.953125 41.515625
Q 57.328125 34.859375 57.328125 23.390625
Q 57.328125 12.15625 50.6875 5.359375
Q 44.046875 -1.421875 33.015625 -1.421875
Q 20.359375 -1.421875 13.671875 8.265625
Q 6.984375 17.96875 6.984375 36.375
Q 6.984375 53.65625 15.1875 63.9375
Q 23.390625 74.21875 37.203125 74.21875
Q 40.921875 74.21875 44.703125 73.484375
Q 48.484375 72.75 52.59375 71.296875
z
" id="DejaVuSans-54"/>
      </defs>
      <g transform="translate(26.456875 123.211282)scale(0.14 -0.14)">
       <use xlink:href="#DejaVuSans-54"/>
       <use x="63.623047" xlink:href="#DejaVuSans-48"/>
      </g>
     </g>
    </g>
    <g id="ytick_5">
     <g id="line2d_7">
      <g>
       <use style="stroke:#000000;stroke-width:0.8;" x="51.271875" xlink:href="#m0e24a1378c" y="81.95188"/>
      </g>
     </g>
     <g id="text_7">
      <!-- 80 -->
      <defs>
       <path d="M 31.78125 34.625
Q 24.75 34.625 20.71875 30.859375
Q 16.703125 27.09375 16.703125 20.515625
Q 16.703125 13.921875 20.71875 10.15625
Q 24.75 6.390625 31.78125 6.390625
Q 38.8125 6.390625 42.859375 10.171875
Q 46.921875 13.96875 46.921875 20.515625
Q 46.921875 27.09375 42.890625 30.859375
Q 38.875 34.625 31.78125 34.625
z
M 21.921875 38.8125
Q 15.578125 40.375 12.03125 44.71875
Q 8.5 49.078125 8.5 55.328125
Q 8.5 64.0625 14.71875 69.140625
Q 20.953125 74.21875 31.78125 74.21875
Q 42.671875 74.21875 48.875 69.140625
Q 55.078125 64.0625 55.078125 55.328125
Q 55.078125 49.078125 51.53125 44.71875
Q 48 40.375 41.703125 38.8125
Q 48.828125 37.15625 52.796875 32.3125
Q 56.78125 27.484375 56.78125 20.515625
Q 56.78125 9.90625 50.3125 4.234375
Q 43.84375 -1.421875 31.78125 -1.421875
Q 19.734375 -1.421875 13.25 4.234375
Q 6.78125 9.90625 6.78125 20.515625
Q 6.78125 27.484375 10.78125 32.3125
Q 14.796875 37.15625 21.921875 38.8125
z
M 18.3125 54.390625
Q 18.3125 48.734375 21.84375 45.5625
Q 25.390625 42.390625 31.78125 42.390625
Q 38.140625 42.390625 41.71875 45.5625
Q 45.3125 48.734375 45.3125 54.390625
Q 45.3125 60.0625 41.71875 63.234375
Q 38.140625 66.40625 31.78125 66.40625
Q 25.390625 66.40625 21.84375 63.234375
Q 18.3125 60.0625 18.3125 54.390625
z
" id="DejaVuSans-56"/>
      </defs>
      <g transform="translate(26.456875 87.270786)scale(0.14 -0.14)">
       <use xlink:href="#DejaVuSans-56"/>
       <use x="63.623047" xlink:href="#DejaVuSans-48"/>
      </g>
     </g>
    </g>
    <g id="ytick_6">
     <g id="line2d_8">
      <g>
       <use style="stroke:#000000;stroke-width:0.8;" x="51.271875" xlink:href="#m0e24a1378c" y="46.011384"/>
      </g>
     </g>
     <g id="text_8">
      <!-- 100 -->
      <defs>
       <path d="M 12.40625 8.296875
L 28.515625 8.296875
L 28.515625 63.921875
L 10.984375 60.40625
L 10.984375 69.390625
L 28.421875 72.90625
L 38.28125 72.90625
L 38.28125 8.296875
L 54.390625 8.296875
L 54.390625 0
L 12.40625 0
z
" id="DejaVuSans-49"/>
      </defs>
      <g transform="translate(17.549375 51.330291)scale(0.14 -0.14)">
       <use xlink:href="#DejaVuSans-49"/>
       <use x="63.623047" xlink:href="#DejaVuSans-48"/>
       <use x="127.246094" xlink:href="#DejaVuSans-48"/>
      </g>
     </g>
    </g>
    <g id="text_9">
     <!-- Number of LVs -->
     <defs>
      <path d="M 9.8125 72.90625
L 23.09375 72.90625
L 55.421875 11.921875
L 55.421875 72.90625
L 64.984375 72.90625
L 64.984375 0
L 51.703125 0
L 19.390625 60.984375
L 19.390625 0
L 9.8125 0
z
" id="DejaVuSans-78"/>
      <path d="M 8.5 21.578125
L 8.5 54.6875
L 17.484375 54.6875
L 17.484375 21.921875
Q 17.484375 14.15625 20.5 10.265625
Q 23.53125 6.390625 29.59375 6.390625
Q 36.859375 6.390625 41.078125 11.03125
Q 45.3125 15.671875 45.3125 23.6875
L 45.3125 54.6875
L 54.296875 54.6875
L 54.296875 0
L 45.3125 0
L 45.3125 8.40625
Q 42.046875 3.421875 37.71875 1
Q 33.40625 -1.421875 27.6875 -1.421875
Q 18.265625 -1.421875 13.375 4.4375
Q 8.5 10.296875 8.5 21.578125
z
M 31.109375 56
z
" id="DejaVuSans-117"/>
      <path d="M 52 44.1875
Q 55.375 50.25 60.0625 53.125
Q 64.75 56 71.09375 56
Q 79.640625 56 84.28125 50.015625
Q 88.921875 44.046875 88.921875 33.015625
L 88.921875 0
L 79.890625 0
L 79.890625 32.71875
Q 79.890625 40.578125 77.09375 44.375
Q 74.3125 48.1875 68.609375 48.1875
Q 61.625 48.1875 57.5625 43.546875
Q 53.515625 38.921875 53.515625 30.90625
L 53.515625 0
L 44.484375 0
L 44.484375 32.71875
Q 44.484375 40.625 41.703125 44.40625
Q 38.921875 48.1875 33.109375 48.1875
Q 26.21875 48.1875 22.15625 43.53125
Q 18.109375 38.875 18.109375 30.90625
L 18.109375 0
L 9.078125 0
L 9.078125 54.6875
L 18.109375 54.6875
L 18.109375 46.1875
Q 21.1875 51.21875 25.484375 53.609375
Q 29.78125 56 35.6875 56
Q 41.65625 56 45.828125 52.96875
Q 50 49.953125 52 44.1875
z
" id="DejaVuSans-109"/>
      <path d="M 48.6875 27.296875
Q 48.6875 37.203125 44.609375 42.84375
Q 40.53125 48.484375 33.40625 48.484375
Q 26.265625 48.484375 22.1875 42.84375
Q 18.109375 37.203125 18.109375 27.296875
Q 18.109375 17.390625 22.1875 11.75
Q 26.265625 6.109375 33.40625 6.109375
Q 40.53125 6.109375 44.609375 11.75
Q 48.6875 17.390625 48.6875 27.296875
z
M 18.109375 46.390625
Q 20.953125 51.265625 25.265625 53.625
Q 29.59375 56 35.59375 56
Q 45.5625 56 51.78125 48.09375
Q 58.015625 40.1875 58.015625 27.296875
Q 58.015625 14.40625 51.78125 6.484375
Q 45.5625 -1.421875 35.59375 -1.421875
Q 29.59375 -1.421875 25.265625 0.953125
Q 20.953125 3.328125 18.109375 8.203125
L 18.109375 0
L 9.078125 0
L 9.078125 75.984375
L 18.109375 75.984375
z
" id="DejaVuSans-98"/>
      <path d="M 37.109375 75.984375
L 37.109375 68.5
L 28.515625 68.5
Q 23.6875 68.5 21.796875 66.546875
Q 19.921875 64.59375 19.921875 59.515625
L 19.921875 54.6875
L 34.71875 54.6875
L 34.71875 47.703125
L 19.921875 47.703125
L 19.921875 0
L 10.890625 0
L 10.890625 47.703125
L 2.296875 47.703125
L 2.296875 54.6875
L 10.890625 54.6875
L 10.890625 58.5
Q 10.890625 67.625 15.140625 71.796875
Q 19.390625 75.984375 28.609375 75.984375
z
" id="DejaVuSans-102"/>
      <path d="M 9.8125 72.90625
L 19.671875 72.90625
L 19.671875 8.296875
L 55.171875 8.296875
L 55.171875 0
L 9.8125 0
z
" id="DejaVuSans-76"/>
      <path d="M 28.609375 0
L 0.78125 72.90625
L 11.078125 72.90625
L 34.1875 11.53125
L 57.328125 72.90625
L 67.578125 72.90625
L 39.796875 0
z
" id="DejaVuSans-86"/>
     </defs>
     <g transform="translate(10.637813 178.517813)rotate(-90)scale(0.14 -0.14)">
      <use xlink:href="#DejaVuSans-78"/>
      <use x="74.804688" xlink:href="#DejaVuSans-117"/>
      <use x="138.183594" xlink:href="#DejaVuSans-109"/>
      <use x="235.595703" xlink:href="#DejaVuSans-98"/>
      <use x="299.072266" xlink:href="#DejaVuSans-101"/>
      <use x="360.595703" xlink:href="#DejaVuSans-114"/>
      <use x="401.708984" xlink:href="#DejaVuSans-32"/>
      <use x="433.496094" xlink:href="#DejaVuSans-111"/>
      <use x="494.677734" xlink:href="#DejaVuSans-102"/>
      <use x="529.882812" xlink:href="#DejaVuSans-32"/>
      <use x="561.669922" xlink:href="#DejaVuSans-76"/>
      <use x="617.210938" xlink:href="#DejaVuSans-86"/>
      <use x="685.619141" xlink:href="#DejaVuSans-115"/>
     </g>
    </g>
   </g>
   <g id="line2d_9">
    <path clip-path="url(#p00b0c8c183)" d="M 134.971875 211.337665
L 134.971875 225.713864
" style="fill:none;stroke:#444444;stroke-linecap:square;stroke-width:1.5;"/>
   </g>
   <g id="line2d_10">
    <path clip-path="url(#p00b0c8c183)" d="M 134.971875 191.570393
L 134.971875 162.817996
" style="fill:none;stroke:#444444;stroke-linecap:square;stroke-width:1.5;"/>
   </g>
   <g id="line2d_11">
    <path clip-path="url(#p00b0c8c183)" d="M 101.491875 225.713864
L 168.451875 225.713864
" style="fill:none;stroke:#444444;stroke-linecap:square;stroke-width:1.5;"/>
   </g>
   <g id="line2d_12">
    <path clip-path="url(#p00b0c8c183)" d="M 101.491875 162.817996
L 168.451875 162.817996
" style="fill:none;stroke:#444444;stroke-linecap:square;stroke-width:1.5;"/>
   </g>
   <g id="line2d_13">
    <defs>
     <path d="M -0 3.535534
L 2.12132 0
L -0 -3.535534
L -2.12132 -0
z
" id="m77f2d6cf03" style="stroke:#444444;stroke-linejoin:miter;"/>
    </defs>
    <g clip-path="url(#p00b0c8c183)">
     <use style="fill:#444444;stroke:#444444;stroke-linejoin:miter;" x="134.971875" xlink:href="#m77f2d6cf03" y="159.223946"/>
     <use style="fill:#444444;stroke:#444444;stroke-linejoin:miter;" x="134.971875" xlink:href="#m77f2d6cf03" y="141.253698"/>
     <use style="fill:#444444;stroke:#444444;stroke-linejoin:miter;" x="134.971875" xlink:href="#m77f2d6cf03" y="152.035847"/>
     <use style="fill:#444444;stroke:#444444;stroke-linejoin:miter;" x="134.971875" xlink:href="#m77f2d6cf03" y="152.035847"/>
     <use style="fill:#444444;stroke:#444444;stroke-linejoin:miter;" x="134.971875" xlink:href="#m77f2d6cf03" y="159.223946"/>
     <use style="fill:#444444;stroke:#444444;stroke-linejoin:miter;" x="134.971875" xlink:href="#m77f2d6cf03" y="155.629897"/>
     <use style="fill:#444444;stroke:#444444;stroke-linejoin:miter;" x="134.971875" xlink:href="#m77f2d6cf03" y="161.020971"/>
     <use style="fill:#444444;stroke:#444444;stroke-linejoin:miter;" x="134.971875" xlink:href="#m77f2d6cf03" y="161.020971"/>
     <use style="fill:#444444;stroke:#444444;stroke-linejoin:miter;" x="134.971875" xlink:href="#m77f2d6cf03" y="123.28345"/>
     <use style="fill:#444444;stroke:#444444;stroke-linejoin:miter;" x="134.971875" xlink:href="#m77f2d6cf03" y="155.629897"/>
     <use style="fill:#444444;stroke:#444444;stroke-linejoin:miter;" x="134.971875" xlink:href="#m77f2d6cf03" y="148.441798"/>
     <use style="fill:#444444;stroke:#444444;stroke-linejoin:miter;" x="134.971875" xlink:href="#m77f2d6cf03" y="116.095351"/>
     <use style="fill:#444444;stroke:#444444;stroke-linejoin:miter;" x="134.971875" xlink:href="#m77f2d6cf03" y="157.426921"/>
     <use style="fill:#444444;stroke:#444444;stroke-linejoin:miter;" x="134.971875" xlink:href="#m77f2d6cf03" y="143.050723"/>
     <use style="fill:#444444;stroke:#444444;stroke-linejoin:miter;" x="134.971875" xlink:href="#m77f2d6cf03" y="139.456674"/>
     <use style="fill:#444444;stroke:#444444;stroke-linejoin:miter;" x="134.971875" xlink:href="#m77f2d6cf03" y="155.629897"/>
     <use style="fill:#444444;stroke:#444444;stroke-linejoin:miter;" x="134.971875" xlink:href="#m77f2d6cf03" y="146.644773"/>
     <use style="fill:#444444;stroke:#444444;stroke-linejoin:miter;" x="134.971875" xlink:href="#m77f2d6cf03" y="130.47155"/>
     <use style="fill:#444444;stroke:#444444;stroke-linejoin:miter;" x="134.971875" xlink:href="#m77f2d6cf03" y="110.704277"/>
     <use style="fill:#444444;stroke:#444444;stroke-linejoin:miter;" x="134.971875" xlink:href="#m77f2d6cf03" y="161.020971"/>
     <use style="fill:#444444;stroke:#444444;stroke-linejoin:miter;" x="134.971875" xlink:href="#m77f2d6cf03" y="153.832872"/>
     <use style="fill:#444444;stroke:#444444;stroke-linejoin:miter;" x="134.971875" xlink:href="#m77f2d6cf03" y="153.832872"/>
     <use style="fill:#444444;stroke:#444444;stroke-linejoin:miter;" x="134.971875" xlink:href="#m77f2d6cf03" y="152.035847"/>
     <use style="fill:#444444;stroke:#444444;stroke-linejoin:miter;" x="134.971875" xlink:href="#m77f2d6cf03" y="161.020971"/>
     <use style="fill:#444444;stroke:#444444;stroke-linejoin:miter;" x="134.971875" xlink:href="#m77f2d6cf03" y="117.892376"/>
     <use style="fill:#444444;stroke:#444444;stroke-linejoin:miter;" x="134.971875" xlink:href="#m77f2d6cf03" y="159.223946"/>
     <use style="fill:#444444;stroke:#444444;stroke-linejoin:miter;" x="134.971875" xlink:href="#m77f2d6cf03" y="155.629897"/>
     <use style="fill:#444444;stroke:#444444;stroke-linejoin:miter;" x="134.971875" xlink:href="#m77f2d6cf03" y="161.020971"/>
     <use style="fill:#444444;stroke:#444444;stroke-linejoin:miter;" x="134.971875" xlink:href="#m77f2d6cf03" y="157.426921"/>
     <use style="fill:#444444;stroke:#444444;stroke-linejoin:miter;" x="134.971875" xlink:href="#m77f2d6cf03" y="161.020971"/>
     <use style="fill:#444444;stroke:#444444;stroke-linejoin:miter;" x="134.971875" xlink:href="#m77f2d6cf03" y="155.629897"/>
     <use style="fill:#444444;stroke:#444444;stroke-linejoin:miter;" x="134.971875" xlink:href="#m77f2d6cf03" y="139.456674"/>
     <use style="fill:#444444;stroke:#444444;stroke-linejoin:miter;" x="134.971875" xlink:href="#m77f2d6cf03" y="132.268574"/>
     <use style="fill:#444444;stroke:#444444;stroke-linejoin:miter;" x="134.971875" xlink:href="#m77f2d6cf03" y="159.223946"/>
     <use style="fill:#444444;stroke:#444444;stroke-linejoin:miter;" x="134.971875" xlink:href="#m77f2d6cf03" y="144.847748"/>
     <use style="fill:#444444;stroke:#444444;stroke-linejoin:miter;" x="134.971875" xlink:href="#m77f2d6cf03" y="161.020971"/>
     <use style="fill:#444444;stroke:#444444;stroke-linejoin:miter;" x="134.971875" xlink:href="#m77f2d6cf03" y="150.238822"/>
     <use style="fill:#444444;stroke:#444444;stroke-linejoin:miter;" x="134.971875" xlink:href="#m77f2d6cf03" y="148.441798"/>
     <use style="fill:#444444;stroke:#444444;stroke-linejoin:miter;" x="134.971875" xlink:href="#m77f2d6cf03" y="152.035847"/>
     <use style="fill:#444444;stroke:#444444;stroke-linejoin:miter;" x="134.971875" xlink:href="#m77f2d6cf03" y="143.050723"/>
     <use style="fill:#444444;stroke:#444444;stroke-linejoin:miter;" x="134.971875" xlink:href="#m77f2d6cf03" y="159.223946"/>
     <use style="fill:#444444;stroke:#444444;stroke-linejoin:miter;" x="134.971875" xlink:href="#m77f2d6cf03" y="155.629897"/>
     <use style="fill:#444444;stroke:#444444;stroke-linejoin:miter;" x="134.971875" xlink:href="#m77f2d6cf03" y="155.629897"/>
     <use style="fill:#444444;stroke:#444444;stroke-linejoin:miter;" x="134.971875" xlink:href="#m77f2d6cf03" y="152.035847"/>
     <use style="fill:#444444;stroke:#444444;stroke-linejoin:miter;" x="134.971875" xlink:href="#m77f2d6cf03" y="121.486426"/>
     <use style="fill:#444444;stroke:#444444;stroke-linejoin:miter;" x="134.971875" xlink:href="#m77f2d6cf03" y="155.629897"/>
     <use style="fill:#444444;stroke:#444444;stroke-linejoin:miter;" x="134.971875" xlink:href="#m77f2d6cf03" y="153.832872"/>
     <use style="fill:#444444;stroke:#444444;stroke-linejoin:miter;" x="134.971875" xlink:href="#m77f2d6cf03" y="153.832872"/>
     <use style="fill:#444444;stroke:#444444;stroke-linejoin:miter;" x="134.971875" xlink:href="#m77f2d6cf03" y="157.426921"/>
     <use style="fill:#444444;stroke:#444444;stroke-linejoin:miter;" x="134.971875" xlink:href="#m77f2d6cf03" y="148.441798"/>
     <use style="fill:#444444;stroke:#444444;stroke-linejoin:miter;" x="134.971875" xlink:href="#m77f2d6cf03" y="29.838161"/>
     <use style="fill:#444444;stroke:#444444;stroke-linejoin:miter;" x="134.971875" xlink:href="#m77f2d6cf03" y="128.674525"/>
    </g>
   </g>
   <g id="line2d_14">
    <path clip-path="url(#p00b0c8c183)" d="M 302.371875 200.555517
L 302.371875 225.713864
" style="fill:none;stroke:#444444;stroke-linecap:square;stroke-width:1.5;"/>
   </g>
   <g id="line2d_15">
    <path clip-path="url(#p00b0c8c183)" d="M 302.371875 175.397169
L 302.371875 137.659649
" style="fill:none;stroke:#444444;stroke-linecap:square;stroke-width:1.5;"/>
   </g>
   <g id="line2d_16">
    <path clip-path="url(#p00b0c8c183)" d="M 268.891875 225.713864
L 335.851875 225.713864
" style="fill:none;stroke:#444444;stroke-linecap:square;stroke-width:1.5;"/>
   </g>
   <g id="line2d_17">
    <path clip-path="url(#p00b0c8c183)" d="M 268.891875 137.659649
L 335.851875 137.659649
" style="fill:none;stroke:#444444;stroke-linecap:square;stroke-width:1.5;"/>
   </g>
   <g id="line2d_18">
    <g clip-path="url(#p00b0c8c183)">
     <use style="fill:#444444;stroke:#444444;stroke-linejoin:miter;" x="302.371875" xlink:href="#m77f2d6cf03" y="134.065599"/>
     <use style="fill:#444444;stroke:#444444;stroke-linejoin:miter;" x="302.371875" xlink:href="#m77f2d6cf03" y="98.125103"/>
     <use style="fill:#444444;stroke:#444444;stroke-linejoin:miter;" x="302.371875" xlink:href="#m77f2d6cf03" y="117.892376"/>
     <use style="fill:#444444;stroke:#444444;stroke-linejoin:miter;" x="302.371875" xlink:href="#m77f2d6cf03" y="134.065599"/>
     <use style="fill:#444444;stroke:#444444;stroke-linejoin:miter;" x="302.371875" xlink:href="#m77f2d6cf03" y="67.575682"/>
     <use style="fill:#444444;stroke:#444444;stroke-linejoin:miter;" x="302.371875" xlink:href="#m77f2d6cf03" y="135.862624"/>
     <use style="fill:#444444;stroke:#444444;stroke-linejoin:miter;" x="302.371875" xlink:href="#m77f2d6cf03" y="123.28345"/>
     <use style="fill:#444444;stroke:#444444;stroke-linejoin:miter;" x="302.371875" xlink:href="#m77f2d6cf03" y="125.080475"/>
     <use style="fill:#444444;stroke:#444444;stroke-linejoin:miter;" x="302.371875" xlink:href="#m77f2d6cf03" y="112.501302"/>
     <use style="fill:#444444;stroke:#444444;stroke-linejoin:miter;" x="302.371875" xlink:href="#m77f2d6cf03" y="110.704277"/>
     <use style="fill:#444444;stroke:#444444;stroke-linejoin:miter;" x="302.371875" xlink:href="#m77f2d6cf03" y="116.095351"/>
     <use style="fill:#444444;stroke:#444444;stroke-linejoin:miter;" x="302.371875" xlink:href="#m77f2d6cf03" y="126.8775"/>
     <use style="fill:#444444;stroke:#444444;stroke-linejoin:miter;" x="302.371875" xlink:href="#m77f2d6cf03" y="108.907252"/>
     <use style="fill:#444444;stroke:#444444;stroke-linejoin:miter;" x="302.371875" xlink:href="#m77f2d6cf03" y="130.47155"/>
     <use style="fill:#444444;stroke:#444444;stroke-linejoin:miter;" x="302.371875" xlink:href="#m77f2d6cf03" y="78.357831"/>
     <use style="fill:#444444;stroke:#444444;stroke-linejoin:miter;" x="302.371875" xlink:href="#m77f2d6cf03" y="125.080475"/>
     <use style="fill:#444444;stroke:#444444;stroke-linejoin:miter;" x="302.371875" xlink:href="#m77f2d6cf03" y="130.47155"/>
     <use style="fill:#444444;stroke:#444444;stroke-linejoin:miter;" x="302.371875" xlink:href="#m77f2d6cf03" y="126.8775"/>
     <use style="fill:#444444;stroke:#444444;stroke-linejoin:miter;" x="302.371875" xlink:href="#m77f2d6cf03" y="132.268574"/>
     <use style="fill:#444444;stroke:#444444;stroke-linejoin:miter;" x="302.371875" xlink:href="#m77f2d6cf03" y="80.154855"/>
     <use style="fill:#444444;stroke:#444444;stroke-linejoin:miter;" x="302.371875" xlink:href="#m77f2d6cf03" y="130.47155"/>
     <use style="fill:#444444;stroke:#444444;stroke-linejoin:miter;" x="302.371875" xlink:href="#m77f2d6cf03" y="108.907252"/>
     <use style="fill:#444444;stroke:#444444;stroke-linejoin:miter;" x="302.371875" xlink:href="#m77f2d6cf03" y="135.862624"/>
     <use style="fill:#444444;stroke:#444444;stroke-linejoin:miter;" x="302.371875" xlink:href="#m77f2d6cf03" y="53.199483"/>
     <use style="fill:#444444;stroke:#444444;stroke-linejoin:miter;" x="302.371875" xlink:href="#m77f2d6cf03" y="125.080475"/>
     <use style="fill:#444444;stroke:#444444;stroke-linejoin:miter;" x="302.371875" xlink:href="#m77f2d6cf03" y="126.8775"/>
     <use style="fill:#444444;stroke:#444444;stroke-linejoin:miter;" x="302.371875" xlink:href="#m77f2d6cf03" y="125.080475"/>
     <use style="fill:#444444;stroke:#444444;stroke-linejoin:miter;" x="302.371875" xlink:href="#m77f2d6cf03" y="112.501302"/>
     <use style="fill:#444444;stroke:#444444;stroke-linejoin:miter;" x="302.371875" xlink:href="#m77f2d6cf03" y="134.065599"/>
     <use style="fill:#444444;stroke:#444444;stroke-linejoin:miter;" x="302.371875" xlink:href="#m77f2d6cf03" y="125.080475"/>
     <use style="fill:#444444;stroke:#444444;stroke-linejoin:miter;" x="302.371875" xlink:href="#m77f2d6cf03" y="135.862624"/>
     <use style="fill:#444444;stroke:#444444;stroke-linejoin:miter;" x="302.371875" xlink:href="#m77f2d6cf03" y="107.110227"/>
     <use style="fill:#444444;stroke:#444444;stroke-linejoin:miter;" x="302.371875" xlink:href="#m77f2d6cf03" y="123.28345"/>
     <use style="fill:#444444;stroke:#444444;stroke-linejoin:miter;" x="302.371875" xlink:href="#m77f2d6cf03" y="116.095351"/>
     <use style="fill:#444444;stroke:#444444;stroke-linejoin:miter;" x="302.371875" xlink:href="#m77f2d6cf03" y="65.778657"/>
     <use style="fill:#444444;stroke:#444444;stroke-linejoin:miter;" x="302.371875" xlink:href="#m77f2d6cf03" y="72.966756"/>
     <use style="fill:#444444;stroke:#444444;stroke-linejoin:miter;" x="302.371875" xlink:href="#m77f2d6cf03" y="60.387583"/>
     <use style="fill:#444444;stroke:#444444;stroke-linejoin:miter;" x="302.371875" xlink:href="#m77f2d6cf03" y="105.313202"/>
     <use style="fill:#444444;stroke:#444444;stroke-linejoin:miter;" x="302.371875" xlink:href="#m77f2d6cf03" y="28.041136"/>
     <use style="fill:#444444;stroke:#444444;stroke-linejoin:miter;" x="302.371875" xlink:href="#m77f2d6cf03" y="90.937004"/>
     <use style="fill:#444444;stroke:#444444;stroke-linejoin:miter;" x="302.371875" xlink:href="#m77f2d6cf03" y="54.996508"/>
     <use style="fill:#444444;stroke:#444444;stroke-linejoin:miter;" x="302.371875" xlink:href="#m77f2d6cf03" y="112.501302"/>
     <use style="fill:#444444;stroke:#444444;stroke-linejoin:miter;" x="302.371875" xlink:href="#m77f2d6cf03" y="135.862624"/>
     <use style="fill:#444444;stroke:#444444;stroke-linejoin:miter;" x="302.371875" xlink:href="#m77f2d6cf03" y="105.313202"/>
     <use style="fill:#444444;stroke:#444444;stroke-linejoin:miter;" x="302.371875" xlink:href="#m77f2d6cf03" y="134.065599"/>
     <use style="fill:#444444;stroke:#444444;stroke-linejoin:miter;" x="302.371875" xlink:href="#m77f2d6cf03" y="92.734029"/>
     <use style="fill:#444444;stroke:#444444;stroke-linejoin:miter;" x="302.371875" xlink:href="#m77f2d6cf03" y="83.748905"/>
     <use style="fill:#444444;stroke:#444444;stroke-linejoin:miter;" x="302.371875" xlink:href="#m77f2d6cf03" y="103.516178"/>
     <use style="fill:#444444;stroke:#444444;stroke-linejoin:miter;" x="302.371875" xlink:href="#m77f2d6cf03" y="132.268574"/>
     <use style="fill:#444444;stroke:#444444;stroke-linejoin:miter;" x="302.371875" xlink:href="#m77f2d6cf03" y="126.8775"/>
     <use style="fill:#444444;stroke:#444444;stroke-linejoin:miter;" x="302.371875" xlink:href="#m77f2d6cf03" y="134.065599"/>
     <use style="fill:#444444;stroke:#444444;stroke-linejoin:miter;" x="302.371875" xlink:href="#m77f2d6cf03" y="132.268574"/>
     <use style="fill:#444444;stroke:#444444;stroke-linejoin:miter;" x="302.371875" xlink:href="#m77f2d6cf03" y="107.110227"/>
     <use style="fill:#444444;stroke:#444444;stroke-linejoin:miter;" x="302.371875" xlink:href="#m77f2d6cf03" y="128.674525"/>
     <use style="fill:#444444;stroke:#444444;stroke-linejoin:miter;" x="302.371875" xlink:href="#m77f2d6cf03" y="126.8775"/>
     <use style="fill:#444444;stroke:#444444;stroke-linejoin:miter;" x="302.371875" xlink:href="#m77f2d6cf03" y="117.892376"/>
     <use style="fill:#444444;stroke:#444444;stroke-linejoin:miter;" x="302.371875" xlink:href="#m77f2d6cf03" y="134.065599"/>
     <use style="fill:#444444;stroke:#444444;stroke-linejoin:miter;" x="302.371875" xlink:href="#m77f2d6cf03" y="116.095351"/>
     <use style="fill:#444444;stroke:#444444;stroke-linejoin:miter;" x="302.371875" xlink:href="#m77f2d6cf03" y="98.125103"/>
     <use style="fill:#444444;stroke:#444444;stroke-linejoin:miter;" x="302.371875" xlink:href="#m77f2d6cf03" y="110.704277"/>
     <use style="fill:#444444;stroke:#444444;stroke-linejoin:miter;" x="302.371875" xlink:href="#m77f2d6cf03" y="135.862624"/>
     <use style="fill:#444444;stroke:#444444;stroke-linejoin:miter;" x="302.371875" xlink:href="#m77f2d6cf03" y="134.065599"/>
     <use style="fill:#444444;stroke:#444444;stroke-linejoin:miter;" x="302.371875" xlink:href="#m77f2d6cf03" y="98.125103"/>
     <use style="fill:#444444;stroke:#444444;stroke-linejoin:miter;" x="302.371875" xlink:href="#m77f2d6cf03" y="135.862624"/>
     <use style="fill:#444444;stroke:#444444;stroke-linejoin:miter;" x="302.371875" xlink:href="#m77f2d6cf03" y="134.065599"/>
     <use style="fill:#444444;stroke:#444444;stroke-linejoin:miter;" x="302.371875" xlink:href="#m77f2d6cf03" y="135.862624"/>
     <use style="fill:#444444;stroke:#444444;stroke-linejoin:miter;" x="302.371875" xlink:href="#m77f2d6cf03" y="134.065599"/>
     <use style="fill:#444444;stroke:#444444;stroke-linejoin:miter;" x="302.371875" xlink:href="#m77f2d6cf03" y="126.8775"/>
     <use style="fill:#444444;stroke:#444444;stroke-linejoin:miter;" x="302.371875" xlink:href="#m77f2d6cf03" y="119.689401"/>
     <use style="fill:#444444;stroke:#444444;stroke-linejoin:miter;" x="302.371875" xlink:href="#m77f2d6cf03" y="65.778657"/>
     <use style="fill:#444444;stroke:#444444;stroke-linejoin:miter;" x="302.371875" xlink:href="#m77f2d6cf03" y="103.516178"/>
     <use style="fill:#444444;stroke:#444444;stroke-linejoin:miter;" x="302.371875" xlink:href="#m77f2d6cf03" y="108.907252"/>
     <use style="fill:#444444;stroke:#444444;stroke-linejoin:miter;" x="302.371875" xlink:href="#m77f2d6cf03" y="134.065599"/>
     <use style="fill:#444444;stroke:#444444;stroke-linejoin:miter;" x="302.371875" xlink:href="#m77f2d6cf03" y="132.268574"/>
     <use style="fill:#444444;stroke:#444444;stroke-linejoin:miter;" x="302.371875" xlink:href="#m77f2d6cf03" y="134.065599"/>
     <use style="fill:#444444;stroke:#444444;stroke-linejoin:miter;" x="302.371875" xlink:href="#m77f2d6cf03" y="121.486426"/>
     <use style="fill:#444444;stroke:#444444;stroke-linejoin:miter;" x="302.371875" xlink:href="#m77f2d6cf03" y="132.268574"/>
     <use style="fill:#444444;stroke:#444444;stroke-linejoin:miter;" x="302.371875" xlink:href="#m77f2d6cf03" y="125.080475"/>
     <use style="fill:#444444;stroke:#444444;stroke-linejoin:miter;" x="302.371875" xlink:href="#m77f2d6cf03" y="132.268574"/>
     <use style="fill:#444444;stroke:#444444;stroke-linejoin:miter;" x="302.371875" xlink:href="#m77f2d6cf03" y="130.47155"/>
     <use style="fill:#444444;stroke:#444444;stroke-linejoin:miter;" x="302.371875" xlink:href="#m77f2d6cf03" y="128.674525"/>
     <use style="fill:#444444;stroke:#444444;stroke-linejoin:miter;" x="302.371875" xlink:href="#m77f2d6cf03" y="71.169731"/>
     <use style="fill:#444444;stroke:#444444;stroke-linejoin:miter;" x="302.371875" xlink:href="#m77f2d6cf03" y="114.298326"/>
     <use style="fill:#444444;stroke:#444444;stroke-linejoin:miter;" x="302.371875" xlink:href="#m77f2d6cf03" y="130.47155"/>
     <use style="fill:#444444;stroke:#444444;stroke-linejoin:miter;" x="302.371875" xlink:href="#m77f2d6cf03" y="134.065599"/>
     <use style="fill:#444444;stroke:#444444;stroke-linejoin:miter;" x="302.371875" xlink:href="#m77f2d6cf03" y="132.268574"/>
     <use style="fill:#444444;stroke:#444444;stroke-linejoin:miter;" x="302.371875" xlink:href="#m77f2d6cf03" y="78.357831"/>
     <use style="fill:#444444;stroke:#444444;stroke-linejoin:miter;" x="302.371875" xlink:href="#m77f2d6cf03" y="87.342955"/>
     <use style="fill:#444444;stroke:#444444;stroke-linejoin:miter;" x="302.371875" xlink:href="#m77f2d6cf03" y="135.862624"/>
     <use style="fill:#444444;stroke:#444444;stroke-linejoin:miter;" x="302.371875" xlink:href="#m77f2d6cf03" y="135.862624"/>
     <use style="fill:#444444;stroke:#444444;stroke-linejoin:miter;" x="302.371875" xlink:href="#m77f2d6cf03" y="132.268574"/>
     <use style="fill:#444444;stroke:#444444;stroke-linejoin:miter;" x="302.371875" xlink:href="#m77f2d6cf03" y="134.065599"/>
     <use style="fill:#444444;stroke:#444444;stroke-linejoin:miter;" x="302.371875" xlink:href="#m77f2d6cf03" y="121.486426"/>
     <use style="fill:#444444;stroke:#444444;stroke-linejoin:miter;" x="302.371875" xlink:href="#m77f2d6cf03" y="96.328079"/>
    </g>
   </g>
   <g id="line2d_19">
    <path clip-path="url(#p00b0c8c183)" d="M 101.491875 202.352541
L 168.451875 202.352541
" style="fill:none;stroke:#444444;stroke-linecap:square;stroke-width:1.5;"/>
   </g>
   <g id="line2d_20">
    <path clip-path="url(#p00b0c8c183)" d="M 268.891875 189.773368
L 335.851875 189.773368
" style="fill:none;stroke:#444444;stroke-linecap:square;stroke-width:1.5;"/>
   </g>
   <g id="patch_5">
    <path d="M 51.271875 235.5975
L 51.271875 18.1575
" style="fill:none;stroke:#000000;stroke-linecap:square;stroke-linejoin:miter;stroke-width:0.8;"/>
   </g>
   <g id="patch_6">
    <path d="M 386.071875 235.5975
L 386.071875 18.1575
" style="fill:none;stroke:#000000;stroke-linecap:square;stroke-linejoin:miter;stroke-width:0.8;"/>
   </g>
   <g id="patch_7">
    <path d="M 51.271875 235.5975
L 386.071875 235.5975
" style="fill:none;stroke:#000000;stroke-linecap:square;stroke-linejoin:miter;stroke-width:0.8;"/>
   </g>
   <g id="patch_8">
    <path d="M 51.271875 18.1575
L 386.071875 18.1575
" style="fill:none;stroke:#000000;stroke-linecap:square;stroke-linejoin:miter;stroke-width:0.8;"/>
   </g>
   <g id="text_10">
    <!-- Number of LVs genes contribute highly to -->
    <defs>
     <path d="M 9.421875 75.984375
L 18.40625 75.984375
L 18.40625 0
L 9.421875 0
z
" id="DejaVuSans-108"/>
     <path d="M 32.171875 -5.078125
Q 28.375 -14.84375 24.75 -17.8125
Q 21.140625 -20.796875 15.09375 -20.796875
L 7.90625 -20.796875
L 7.90625 -13.28125
L 13.1875 -13.28125
Q 16.890625 -13.28125 18.9375 -11.515625
Q 21 -9.765625 23.484375 -3.21875
L 25.09375 0.875
L 2.984375 54.6875
L 12.5 54.6875
L 29.59375 11.921875
L 46.6875 54.6875
L 56.203125 54.6875
z
" id="DejaVuSans-121"/>
    </defs>
    <g transform="translate(51.674375 12.1575)scale(0.16 -0.16)">
     <use xlink:href="#DejaVuSans-78"/>
     <use x="74.804688" xlink:href="#DejaVuSans-117"/>
     <use x="138.183594" xlink:href="#DejaVuSans-109"/>
     <use x="235.595703" xlink:href="#DejaVuSans-98"/>
     <use x="299.072266" xlink:href="#DejaVuSans-101"/>
     <use x="360.595703" xlink:href="#DejaVuSans-114"/>
     <use x="401.708984" xlink:href="#DejaVuSans-32"/>
     <use x="433.496094" xlink:href="#DejaVuSans-111"/>
     <use x="494.677734" xlink:href="#DejaVuSans-102"/>
     <use x="529.882812" xlink:href="#DejaVuSans-32"/>
     <use x="561.669922" xlink:href="#DejaVuSans-76"/>
     <use x="617.210938" xlink:href="#DejaVuSans-86"/>
     <use x="685.619141" xlink:href="#DejaVuSans-115"/>
     <use x="737.71875" xlink:href="#DejaVuSans-32"/>
     <use x="769.505859" xlink:href="#DejaVuSans-103"/>
     <use x="832.982422" xlink:href="#DejaVuSans-101"/>
     <use x="894.505859" xlink:href="#DejaVuSans-110"/>
     <use x="957.884766" xlink:href="#DejaVuSans-101"/>
     <use x="1019.408203" xlink:href="#DejaVuSans-115"/>
     <use x="1071.507812" xlink:href="#DejaVuSans-32"/>
     <use x="1103.294922" xlink:href="#DejaVuSans-99"/>
     <use x="1158.275391" xlink:href="#DejaVuSans-111"/>
     <use x="1219.457031" xlink:href="#DejaVuSans-110"/>
     <use x="1282.835938" xlink:href="#DejaVuSans-116"/>
     <use x="1322.044922" xlink:href="#DejaVuSans-114"/>
     <use x="1363.158203" xlink:href="#DejaVuSans-105"/>
     <use x="1390.941406" xlink:href="#DejaVuSans-98"/>
     <use x="1454.417969" xlink:href="#DejaVuSans-117"/>
     <use x="1517.796875" xlink:href="#DejaVuSans-116"/>
     <use x="1557.005859" xlink:href="#DejaVuSans-101"/>
     <use x="1618.529297" xlink:href="#DejaVuSans-32"/>
     <use x="1650.316406" xlink:href="#DejaVuSans-104"/>
     <use x="1713.695312" xlink:href="#DejaVuSans-105"/>
     <use x="1741.478516" xlink:href="#DejaVuSans-103"/>
     <use x="1804.955078" xlink:href="#DejaVuSans-104"/>
     <use x="1868.333984" xlink:href="#DejaVuSans-108"/>
     <use x="1896.117188" xlink:href="#DejaVuSans-121"/>
     <use x="1955.296875" xlink:href="#DejaVuSans-32"/>
     <use x="1987.083984" xlink:href="#DejaVuSans-116"/>
     <use x="2026.292969" xlink:href="#DejaVuSans-111"/>
    </g>
   </g>
  </g>
 </g>
 <defs>
  <clipPath id="p00b0c8c183">
   <rect height="217.44" width="334.8" x="51.271875" y="18.1575"/>
  </clipPath>
 </defs>
</svg>
