<?xml version="1.0" encoding="utf-8" standalone="no"?>
<!DOCTYPE svg PUBLIC "-//W3C//DTD SVG 1.1//EN"
  "http://www.w3.org/Graphics/SVG/1.1/DTD/svg11.dtd">
<!-- Created with matplotlib (https://matplotlib.org/) -->
<svg height="268.305313pt" version="1.1" viewBox="0 0 418.404063 268.305313" width="418.404063pt" xmlns="http://www.w3.org/2000/svg" xmlns:xlink="http://www.w3.org/1999/xlink">
 <defs>
  <style type="text/css">
*{stroke-linecap:butt;stroke-linejoin:round;}
  </style>
 </defs>
 <g id="figure_1">
  <g id="patch_1">
   <path d="M 0 268.305313
L 418.404063 268.305313
L 418.404063 0
L 0 0
z
" style="fill:none;"/>
  </g>
  <g id="axes_1">
   <g id="patch_2">
    <path d="M 80.104062 234.077812
L 414.904063 234.077812
L 414.904063 16.637812
L 80.104062 16.637812
z
" style="fill:none;"/>
   </g>
   <g id="patch_3">
    <path clip-path="url(#p796229229a)" d="M 80.104062 17.725012
L 392.920071 17.725012
L 392.920071 26.422612
L 80.104062 26.422612
z
" style="fill:#7b4d85;"/>
   </g>
   <g id="patch_4">
    <path clip-path="url(#p796229229a)" d="M 80.104062 28.597012
L 392.313528 28.597012
L 392.313528 37.294612
L 80.104062 37.294612
z
" style="fill:#7b4d85;"/>
   </g>
   <g id="patch_5">
    <path clip-path="url(#p796229229a)" d="M 80.104062 39.469012
L 211.08563 39.469012
L 211.08563 48.166612
L 80.104062 48.166612
z
" style="fill:#7b4d85;"/>
   </g>
   <g id="patch_6">
    <path clip-path="url(#p796229229a)" d="M 80.104062 50.341012
L 150.433228 50.341012
L 150.433228 59.038612
L 80.104062 59.038612
z
" style="fill:#7b4d85;"/>
   </g>
   <g id="patch_7">
    <path clip-path="url(#p796229229a)" d="z
" style="fill:#7b4d85;"/>
   </g>
   <g id="patch_8">
    <path clip-path="url(#p796229229a)" d="M 80.104062 72.085012
L 127.071761 72.085012
L 127.071761 80.782612
L 80.104062 80.782612
z
" style="fill:#7b4d85;"/>
   </g>
   <g id="patch_9">
    <path clip-path="url(#p796229229a)" d="M 80.104062 82.957012
L 120.379361 82.957012
L 120.379361 91.654612
L 80.104062 91.654612
z
" style="fill:#7b4d85;"/>
   </g>
   <g id="patch_10">
    <path clip-path="url(#p796229229a)" d="z
" style="fill:#7b4d85;"/>
   </g>
   <g id="patch_11">
    <path clip-path="url(#p796229229a)" d="z
" style="fill:#7b4d85;"/>
   </g>
   <g id="patch_12">
    <path clip-path="url(#p796229229a)" d="M 80.104062 115.573012
L 109.560119 115.573012
L 109.560119 124.270612
L 80.104062 124.270612
z
" style="fill:#7b4d85;"/>
   </g>
   <g id="patch_13">
    <path clip-path="url(#p796229229a)" d="M 80.104062 126.445012
L 107.233483 126.445012
L 107.233483 135.142612
L 80.104062 135.142612
z
" style="fill:#7b4d85;"/>
   </g>
   <g id="patch_14">
    <path clip-path="url(#p796229229a)" d="M 80.104062 137.317012
L 105.705673 137.317012
L 105.705673 146.014612
L 80.104062 146.014612
z
" style="fill:#7b4d85;"/>
   </g>
   <g id="patch_15">
    <path clip-path="url(#p796229229a)" d="M 80.104062 148.189012
L 105.591496 148.189012
L 105.591496 156.886613
L 80.104062 156.886613
z
" style="fill:#7b4d85;"/>
   </g>
   <g id="patch_16">
    <path clip-path="url(#p796229229a)" d="z
" style="fill:#7b4d85;"/>
   </g>
   <g id="patch_17">
    <path clip-path="url(#p796229229a)" d="M 80.104062 169.933012
L 105.110778 169.933012
L 105.110778 178.630612
L 80.104062 178.630612
z
" style="fill:#7b4d85;"/>
   </g>
   <g id="patch_18">
    <path clip-path="url(#p796229229a)" d="M 80.104062 180.805012
L 103.20641 180.805012
L 103.20641 189.502612
L 80.104062 189.502612
z
" style="fill:#7b4d85;"/>
   </g>
   <g id="patch_19">
    <path clip-path="url(#p796229229a)" d="M 80.104062 191.677012
L 102.83022 191.677012
L 102.83022 200.374612
L 80.104062 200.374612
z
" style="fill:#7b4d85;"/>
   </g>
   <g id="patch_20">
    <path clip-path="url(#p796229229a)" d="z
" style="fill:#7b4d85;"/>
   </g>
   <g id="patch_21">
    <path clip-path="url(#p796229229a)" d="M 80.104062 213.421012
L 102.245986 213.421012
L 102.245986 222.118612
L 80.104062 222.118612
z
" style="fill:#7b4d85;"/>
   </g>
   <g id="patch_22">
    <path clip-path="url(#p796229229a)" d="z
" style="fill:#7b4d85;"/>
   </g>
   <g id="patch_23">
    <path clip-path="url(#p796229229a)" d="z
" style="fill:#d3d3d3;"/>
   </g>
   <g id="patch_24">
    <path clip-path="url(#p796229229a)" d="z
" style="fill:#d3d3d3;"/>
   </g>
   <g id="patch_25">
    <path clip-path="url(#p796229229a)" d="z
" style="fill:#d3d3d3;"/>
   </g>
   <g id="patch_26">
    <path clip-path="url(#p796229229a)" d="z
" style="fill:#d3d3d3;"/>
   </g>
   <g id="patch_27">
    <path clip-path="url(#p796229229a)" d="M 80.104062 61.213012
L 140.956501 61.213012
L 140.956501 69.910612
L 80.104062 69.910612
z
" style="fill:#d3d3d3;"/>
   </g>
   <g id="patch_28">
    <path clip-path="url(#p796229229a)" d="z
" style="fill:#d3d3d3;"/>
   </g>
   <g id="patch_29">
    <path clip-path="url(#p796229229a)" d="z
" style="fill:#d3d3d3;"/>
   </g>
   <g id="patch_30">
    <path clip-path="url(#p796229229a)" d="M 80.104062 93.829012
L 114.331299 93.829012
L 114.331299 102.526612
L 80.104062 102.526612
z
" style="fill:#d3d3d3;"/>
   </g>
   <g id="patch_31">
    <path clip-path="url(#p796229229a)" d="M 80.104062 104.701012
L 114.257709 104.701012
L 114.257709 113.398612
L 80.104062 113.398612
z
" style="fill:#d3d3d3;"/>
   </g>
   <g id="patch_32">
    <path clip-path="url(#p796229229a)" d="z
" style="fill:#d3d3d3;"/>
   </g>
   <g id="patch_33">
    <path clip-path="url(#p796229229a)" d="z
" style="fill:#d3d3d3;"/>
   </g>
   <g id="patch_34">
    <path clip-path="url(#p796229229a)" d="z
" style="fill:#d3d3d3;"/>
   </g>
   <g id="patch_35">
    <path clip-path="url(#p796229229a)" d="z
" style="fill:#d3d3d3;"/>
   </g>
   <g id="patch_36">
    <path clip-path="url(#p796229229a)" d="M 80.104062 159.061012
L 105.239756 159.061012
L 105.239756 167.758612
L 80.104062 167.758612
z
" style="fill:#d3d3d3;"/>
   </g>
   <g id="patch_37">
    <path clip-path="url(#p796229229a)" d="z
" style="fill:#d3d3d3;"/>
   </g>
   <g id="patch_38">
    <path clip-path="url(#p796229229a)" d="z
" style="fill:#d3d3d3;"/>
   </g>
   <g id="patch_39">
    <path clip-path="url(#p796229229a)" d="z
" style="fill:#d3d3d3;"/>
   </g>
   <g id="patch_40">
    <path clip-path="url(#p796229229a)" d="M 80.104062 202.549012
L 102.551973 202.549012
L 102.551973 211.246612
L 80.104062 211.246612
z
" style="fill:#d3d3d3;"/>
   </g>
   <g id="patch_41">
    <path clip-path="url(#p796229229a)" d="z
" style="fill:#d3d3d3;"/>
   </g>
   <g id="patch_42">
    <path clip-path="url(#p796229229a)" d="M 80.104062 224.293012
L 101.143883 224.293012
L 101.143883 232.990612
L 80.104062 232.990612
z
" style="fill:#d3d3d3;"/>
   </g>
   <g id="matplotlib.axis_1">
    <g id="xtick_1">
     <g id="line2d_1">
      <defs>
       <path d="M 0 0
L 0 3.5
" id="m80fd52112b" style="stroke:#000000;stroke-width:0.8;"/>
      </defs>
      <g>
       <use style="stroke:#000000;stroke-width:0.8;" x="80.104062" xlink:href="#m80fd52112b" y="234.077812"/>
      </g>
     </g>
     <g id="text_1">
      <!-- 0 -->
      <defs>
       <path d="M 31.78125 66.40625
Q 24.171875 66.40625 20.328125 58.90625
Q 16.5 51.421875 16.5 36.375
Q 16.5 21.390625 20.328125 13.890625
Q 24.171875 6.390625 31.78125 6.390625
Q 39.453125 6.390625 43.28125 13.890625
Q 47.125 21.390625 47.125 36.375
Q 47.125 51.421875 43.28125 58.90625
Q 39.453125 66.40625 31.78125 66.40625
z
M 31.78125 74.21875
Q 44.046875 74.21875 50.515625 64.515625
Q 56.984375 54.828125 56.984375 36.375
Q 56.984375 17.96875 50.515625 8.265625
Q 44.046875 -1.421875 31.78125 -1.421875
Q 19.53125 -1.421875 13.0625 8.265625
Q 6.59375 17.96875 6.59375 36.375
Q 6.59375 54.828125 13.0625 64.515625
Q 19.53125 74.21875 31.78125 74.21875
z
" id="DejaVuSans-48"/>
      </defs>
      <g transform="translate(76.922812 248.67625)scale(0.1 -0.1)">
       <use xlink:href="#DejaVuSans-48"/>
      </g>
     </g>
    </g>
    <g id="xtick_2">
     <g id="line2d_2">
      <g>
       <use style="stroke:#000000;stroke-width:0.8;" x="127.932634" xlink:href="#m80fd52112b" y="234.077812"/>
      </g>
     </g>
     <g id="text_2">
      <!-- 1 -->
      <defs>
       <path d="M 12.40625 8.296875
L 28.515625 8.296875
L 28.515625 63.921875
L 10.984375 60.40625
L 10.984375 69.390625
L 28.421875 72.90625
L 38.28125 72.90625
L 38.28125 8.296875
L 54.390625 8.296875
L 54.390625 0
L 12.40625 0
z
" id="DejaVuSans-49"/>
      </defs>
      <g transform="translate(124.751384 248.67625)scale(0.1 -0.1)">
       <use xlink:href="#DejaVuSans-49"/>
      </g>
     </g>
    </g>
    <g id="xtick_3">
     <g id="line2d_3">
      <g>
       <use style="stroke:#000000;stroke-width:0.8;" x="175.761205" xlink:href="#m80fd52112b" y="234.077812"/>
      </g>
     </g>
     <g id="text_3">
      <!-- 2 -->
      <defs>
       <path d="M 19.1875 8.296875
L 53.609375 8.296875
L 53.609375 0
L 7.328125 0
L 7.328125 8.296875
Q 12.9375 14.109375 22.625 23.890625
Q 32.328125 33.6875 34.8125 36.53125
Q 39.546875 41.84375 41.421875 45.53125
Q 43.3125 49.21875 43.3125 52.78125
Q 43.3125 58.59375 39.234375 62.25
Q 35.15625 65.921875 28.609375 65.921875
Q 23.96875 65.921875 18.8125 64.3125
Q 13.671875 62.703125 7.8125 59.421875
L 7.8125 69.390625
Q 13.765625 71.78125 18.9375 73
Q 24.125 74.21875 28.421875 74.21875
Q 39.75 74.21875 46.484375 68.546875
Q 53.21875 62.890625 53.21875 53.421875
Q 53.21875 48.921875 51.53125 44.890625
Q 49.859375 40.875 45.40625 35.40625
Q 44.1875 33.984375 37.640625 27.21875
Q 31.109375 20.453125 19.1875 8.296875
z
" id="DejaVuSans-50"/>
      </defs>
      <g transform="translate(172.579955 248.67625)scale(0.1 -0.1)">
       <use xlink:href="#DejaVuSans-50"/>
      </g>
     </g>
    </g>
    <g id="xtick_4">
     <g id="line2d_4">
      <g>
       <use style="stroke:#000000;stroke-width:0.8;" x="223.589777" xlink:href="#m80fd52112b" y="234.077812"/>
      </g>
     </g>
     <g id="text_4">
      <!-- 3 -->
      <defs>
       <path d="M 40.578125 39.3125
Q 47.65625 37.796875 51.625 33
Q 55.609375 28.21875 55.609375 21.1875
Q 55.609375 10.40625 48.1875 4.484375
Q 40.765625 -1.421875 27.09375 -1.421875
Q 22.515625 -1.421875 17.65625 -0.515625
Q 12.796875 0.390625 7.625 2.203125
L 7.625 11.71875
Q 11.71875 9.328125 16.59375 8.109375
Q 21.484375 6.890625 26.8125 6.890625
Q 36.078125 6.890625 40.9375 10.546875
Q 45.796875 14.203125 45.796875 21.1875
Q 45.796875 27.640625 41.28125 31.265625
Q 36.765625 34.90625 28.71875 34.90625
L 20.21875 34.90625
L 20.21875 43.015625
L 29.109375 43.015625
Q 36.375 43.015625 40.234375 45.921875
Q 44.09375 48.828125 44.09375 54.296875
Q 44.09375 59.90625 40.109375 62.90625
Q 36.140625 65.921875 28.71875 65.921875
Q 24.65625 65.921875 20.015625 65.03125
Q 15.375 64.15625 9.8125 62.3125
L 9.8125 71.09375
Q 15.4375 72.65625 20.34375 73.4375
Q 25.25 74.21875 29.59375 74.21875
Q 40.828125 74.21875 47.359375 69.109375
Q 53.90625 64.015625 53.90625 55.328125
Q 53.90625 49.265625 50.4375 45.09375
Q 46.96875 40.921875 40.578125 39.3125
z
" id="DejaVuSans-51"/>
      </defs>
      <g transform="translate(220.408527 248.67625)scale(0.1 -0.1)">
       <use xlink:href="#DejaVuSans-51"/>
      </g>
     </g>
    </g>
    <g id="xtick_5">
     <g id="line2d_5">
      <g>
       <use style="stroke:#000000;stroke-width:0.8;" x="271.418348" xlink:href="#m80fd52112b" y="234.077812"/>
      </g>
     </g>
     <g id="text_5">
      <!-- 4 -->
      <defs>
       <path d="M 37.796875 64.3125
L 12.890625 25.390625
L 37.796875 25.390625
z
M 35.203125 72.90625
L 47.609375 72.90625
L 47.609375 25.390625
L 58.015625 25.390625
L 58.015625 17.1875
L 47.609375 17.1875
L 47.609375 0
L 37.796875 0
L 37.796875 17.1875
L 4.890625 17.1875
L 4.890625 26.703125
z
" id="DejaVuSans-52"/>
      </defs>
      <g transform="translate(268.237098 248.67625)scale(0.1 -0.1)">
       <use xlink:href="#DejaVuSans-52"/>
      </g>
     </g>
    </g>
    <g id="xtick_6">
     <g id="line2d_6">
      <g>
       <use style="stroke:#000000;stroke-width:0.8;" x="319.24692" xlink:href="#m80fd52112b" y="234.077812"/>
      </g>
     </g>
     <g id="text_6">
      <!-- 5 -->
      <defs>
       <path d="M 10.796875 72.90625
L 49.515625 72.90625
L 49.515625 64.59375
L 19.828125 64.59375
L 19.828125 46.734375
Q 21.96875 47.46875 24.109375 47.828125
Q 26.265625 48.1875 28.421875 48.1875
Q 40.625 48.1875 47.75 41.5
Q 54.890625 34.8125 54.890625 23.390625
Q 54.890625 11.625 47.5625 5.09375
Q 40.234375 -1.421875 26.90625 -1.421875
Q 22.3125 -1.421875 17.546875 -0.640625
Q 12.796875 0.140625 7.71875 1.703125
L 7.71875 11.625
Q 12.109375 9.234375 16.796875 8.0625
Q 21.484375 6.890625 26.703125 6.890625
Q 35.15625 6.890625 40.078125 11.328125
Q 45.015625 15.765625 45.015625 23.390625
Q 45.015625 31 40.078125 35.4375
Q 35.15625 39.890625 26.703125 39.890625
Q 22.75 39.890625 18.8125 39.015625
Q 14.890625 38.140625 10.796875 36.28125
z
" id="DejaVuSans-53"/>
      </defs>
      <g transform="translate(316.06567 248.67625)scale(0.1 -0.1)">
       <use xlink:href="#DejaVuSans-53"/>
      </g>
     </g>
    </g>
    <g id="xtick_7">
     <g id="line2d_7">
      <g>
       <use style="stroke:#000000;stroke-width:0.8;" x="367.075491" xlink:href="#m80fd52112b" y="234.077812"/>
      </g>
     </g>
     <g id="text_7">
      <!-- 6 -->
      <defs>
       <path d="M 33.015625 40.375
Q 26.375 40.375 22.484375 35.828125
Q 18.609375 31.296875 18.609375 23.390625
Q 18.609375 15.53125 22.484375 10.953125
Q 26.375 6.390625 33.015625 6.390625
Q 39.65625 6.390625 43.53125 10.953125
Q 47.40625 15.53125 47.40625 23.390625
Q 47.40625 31.296875 43.53125 35.828125
Q 39.65625 40.375 33.015625 40.375
z
M 52.59375 71.296875
L 52.59375 62.3125
Q 48.875 64.0625 45.09375 64.984375
Q 41.3125 65.921875 37.59375 65.921875
Q 27.828125 65.921875 22.671875 59.328125
Q 17.53125 52.734375 16.796875 39.40625
Q 19.671875 43.65625 24.015625 45.921875
Q 28.375 48.1875 33.59375 48.1875
Q 44.578125 48.1875 50.953125 41.515625
Q 57.328125 34.859375 57.328125 23.390625
Q 57.328125 12.15625 50.6875 5.359375
Q 44.046875 -1.421875 33.015625 -1.421875
Q 20.359375 -1.421875 13.671875 8.265625
Q 6.984375 17.96875 6.984375 36.375
Q 6.984375 53.65625 15.1875 63.9375
Q 23.390625 74.21875 37.203125 74.21875
Q 40.921875 74.21875 44.703125 73.484375
Q 48.484375 72.75 52.59375 71.296875
z
" id="DejaVuSans-54"/>
      </defs>
      <g transform="translate(363.894241 248.67625)scale(0.1 -0.1)">
       <use xlink:href="#DejaVuSans-54"/>
      </g>
     </g>
    </g>
    <g id="xtick_8">
     <g id="line2d_8">
      <g>
       <use style="stroke:#000000;stroke-width:0.8;" x="414.904063" xlink:href="#m80fd52112b" y="234.077812"/>
      </g>
     </g>
     <g id="text_8">
      <!-- 7 -->
      <defs>
       <path d="M 8.203125 72.90625
L 55.078125 72.90625
L 55.078125 68.703125
L 28.609375 0
L 18.3125 0
L 43.21875 64.59375
L 8.203125 64.59375
z
" id="DejaVuSans-55"/>
      </defs>
      <g transform="translate(411.722813 248.67625)scale(0.1 -0.1)">
       <use xlink:href="#DejaVuSans-55"/>
      </g>
     </g>
    </g>
    <g id="text_9">
     <!-- Weight -->
     <defs>
      <path d="M 3.328125 72.90625
L 13.28125 72.90625
L 28.609375 11.28125
L 43.890625 72.90625
L 54.984375 72.90625
L 70.3125 11.28125
L 85.59375 72.90625
L 95.609375 72.90625
L 77.296875 0
L 64.890625 0
L 49.515625 63.28125
L 33.984375 0
L 21.578125 0
z
" id="DejaVuSans-87"/>
      <path d="M 56.203125 29.59375
L 56.203125 25.203125
L 14.890625 25.203125
Q 15.484375 15.921875 20.484375 11.0625
Q 25.484375 6.203125 34.421875 6.203125
Q 39.59375 6.203125 44.453125 7.46875
Q 49.3125 8.734375 54.109375 11.28125
L 54.109375 2.78125
Q 49.265625 0.734375 44.1875 -0.34375
Q 39.109375 -1.421875 33.890625 -1.421875
Q 20.796875 -1.421875 13.15625 6.1875
Q 5.515625 13.8125 5.515625 26.8125
Q 5.515625 40.234375 12.765625 48.109375
Q 20.015625 56 32.328125 56
Q 43.359375 56 49.78125 48.890625
Q 56.203125 41.796875 56.203125 29.59375
z
M 47.21875 32.234375
Q 47.125 39.59375 43.09375 43.984375
Q 39.0625 48.390625 32.421875 48.390625
Q 24.90625 48.390625 20.390625 44.140625
Q 15.875 39.890625 15.1875 32.171875
z
" id="DejaVuSans-101"/>
      <path d="M 9.421875 54.6875
L 18.40625 54.6875
L 18.40625 0
L 9.421875 0
z
M 9.421875 75.984375
L 18.40625 75.984375
L 18.40625 64.59375
L 9.421875 64.59375
z
" id="DejaVuSans-105"/>
      <path d="M 45.40625 27.984375
Q 45.40625 37.75 41.375 43.109375
Q 37.359375 48.484375 30.078125 48.484375
Q 22.859375 48.484375 18.828125 43.109375
Q 14.796875 37.75 14.796875 27.984375
Q 14.796875 18.265625 18.828125 12.890625
Q 22.859375 7.515625 30.078125 7.515625
Q 37.359375 7.515625 41.375 12.890625
Q 45.40625 18.265625 45.40625 27.984375
z
M 54.390625 6.78125
Q 54.390625 -7.171875 48.1875 -13.984375
Q 42 -20.796875 29.203125 -20.796875
Q 24.46875 -20.796875 20.265625 -20.09375
Q 16.0625 -19.390625 12.109375 -17.921875
L 12.109375 -9.1875
Q 16.0625 -11.328125 19.921875 -12.34375
Q 23.78125 -13.375 27.78125 -13.375
Q 36.625 -13.375 41.015625 -8.765625
Q 45.40625 -4.15625 45.40625 5.171875
L 45.40625 9.625
Q 42.625 4.78125 38.28125 2.390625
Q 33.9375 0 27.875 0
Q 17.828125 0 11.671875 7.65625
Q 5.515625 15.328125 5.515625 27.984375
Q 5.515625 40.671875 11.671875 48.328125
Q 17.828125 56 27.875 56
Q 33.9375 56 38.28125 53.609375
Q 42.625 51.21875 45.40625 46.390625
L 45.40625 54.6875
L 54.390625 54.6875
z
" id="DejaVuSans-103"/>
      <path d="M 54.890625 33.015625
L 54.890625 0
L 45.90625 0
L 45.90625 32.71875
Q 45.90625 40.484375 42.875 44.328125
Q 39.84375 48.1875 33.796875 48.1875
Q 26.515625 48.1875 22.3125 43.546875
Q 18.109375 38.921875 18.109375 30.90625
L 18.109375 0
L 9.078125 0
L 9.078125 75.984375
L 18.109375 75.984375
L 18.109375 46.1875
Q 21.34375 51.125 25.703125 53.5625
Q 30.078125 56 35.796875 56
Q 45.21875 56 50.046875 50.171875
Q 54.890625 44.34375 54.890625 33.015625
z
" id="DejaVuSans-104"/>
      <path d="M 18.3125 70.21875
L 18.3125 54.6875
L 36.8125 54.6875
L 36.8125 47.703125
L 18.3125 47.703125
L 18.3125 18.015625
Q 18.3125 11.328125 20.140625 9.421875
Q 21.96875 7.515625 27.59375 7.515625
L 36.8125 7.515625
L 36.8125 0
L 27.59375 0
Q 17.1875 0 13.234375 3.875
Q 9.28125 7.765625 9.28125 18.015625
L 9.28125 47.703125
L 2.6875 47.703125
L 2.6875 54.6875
L 9.28125 54.6875
L 9.28125 70.21875
z
" id="DejaVuSans-116"/>
     </defs>
     <g transform="translate(222.712031 265.39375)scale(0.14 -0.14)">
      <use xlink:href="#DejaVuSans-87"/>
      <use x="98.798828" xlink:href="#DejaVuSans-101"/>
      <use x="160.322266" xlink:href="#DejaVuSans-105"/>
      <use x="188.105469" xlink:href="#DejaVuSans-103"/>
      <use x="251.582031" xlink:href="#DejaVuSans-104"/>
      <use x="314.960938" xlink:href="#DejaVuSans-116"/>
     </g>
    </g>
   </g>
   <g id="matplotlib.axis_2">
    <g id="ytick_1">
     <g id="line2d_9">
      <defs>
       <path d="M 0 0
L -3.5 0
" id="m49dd15f3ab" style="stroke:#000000;stroke-width:0.8;"/>
      </defs>
      <g>
       <use style="stroke:#000000;stroke-width:0.8;" x="80.104062" xlink:href="#m49dd15f3ab" y="22.073812"/>
      </g>
     </g>
     <g id="text_10">
      <!-- HBD -->
      <defs>
       <path d="M 16.890625 72.90625
L 26.8125 72.90625
L 21 43.015625
L 56.78125 43.015625
L 62.59375 72.90625
L 72.515625 72.90625
L 58.296875 0
L 48.390625 0
L 55.171875 34.71875
L 19.390625 34.71875
L 12.59375 0
L 2.6875 0
z
" id="DejaVuSans-Oblique-72"/>
       <path d="M 16.890625 72.90625
L 42.09375 72.90625
Q 52.34375 72.90625 57.421875 69.09375
Q 62.5 65.28125 62.5 57.625
Q 62.5 50.59375 58.125 45.484375
Q 53.765625 40.375 46.6875 39.3125
Q 52.734375 37.9375 55.765625 34.078125
Q 58.796875 30.21875 58.796875 23.78125
Q 58.796875 12.796875 50.65625 6.390625
Q 42.53125 0 28.421875 0
L 2.6875 0
z
M 19.28125 34.8125
L 14.109375 8.109375
L 29.984375 8.109375
Q 38.921875 8.109375 43.75 12.203125
Q 48.578125 16.3125 48.578125 23.78125
Q 48.578125 29.546875 45.375 32.171875
Q 42.1875 34.8125 35.109375 34.8125
z
M 25.09375 64.796875
L 20.796875 42.828125
L 35.5 42.828125
Q 43.359375 42.828125 47.78125 46.234375
Q 52.203125 49.65625 52.203125 55.71875
Q 52.203125 60.453125 49.21875 62.625
Q 46.234375 64.796875 39.703125 64.796875
z
" id="DejaVuSans-Oblique-66"/>
       <path d="M 16.890625 72.90625
L 38.09375 72.90625
Q 54.984375 72.90625 63.59375 65.75
Q 72.21875 58.59375 72.21875 44.484375
Q 72.21875 35.15625 68.9375 26.53125
Q 65.671875 17.921875 59.90625 12.015625
Q 54.109375 5.953125 45.171875 2.96875
Q 36.234375 0 24.03125 0
L 2.6875 0
z
M 25.203125 64.796875
L 14.203125 8.109375
L 27.09375 8.109375
Q 43.65625 8.109375 52.734375 17.625
Q 61.8125 27.15625 61.8125 44.484375
Q 61.8125 54.984375 55.953125 59.890625
Q 50.09375 64.796875 37.59375 64.796875
z
" id="DejaVuSans-Oblique-68"/>
      </defs>
      <g transform="translate(51.022813 25.873031)scale(0.1 -0.1)">
       <use xlink:href="#DejaVuSans-Oblique-72"/>
       <use x="75.195312" xlink:href="#DejaVuSans-Oblique-66"/>
       <use x="143.798828" xlink:href="#DejaVuSans-Oblique-68"/>
      </g>
     </g>
    </g>
    <g id="ytick_2">
     <g id="line2d_10">
      <g>
       <use style="stroke:#000000;stroke-width:0.8;" x="80.104062" xlink:href="#m49dd15f3ab" y="32.945812"/>
      </g>
     </g>
     <g id="text_11">
      <!-- HBB -->
      <g transform="translate(51.861875 36.745031)scale(0.1 -0.1)">
       <use xlink:href="#DejaVuSans-Oblique-72"/>
       <use x="75.195312" xlink:href="#DejaVuSans-Oblique-66"/>
       <use x="143.798828" xlink:href="#DejaVuSans-Oblique-66"/>
      </g>
     </g>
    </g>
    <g id="ytick_3">
     <g id="line2d_11">
      <g>
       <use style="stroke:#000000;stroke-width:0.8;" x="80.104062" xlink:href="#m49dd15f3ab" y="43.817812"/>
      </g>
     </g>
     <g id="text_12">
      <!-- HBQ1 -->
      <defs>
       <path d="M 36.078125 -1.3125
Q 35.546875 -1.375 34.953125 -1.390625
Q 34.375 -1.421875 33.203125 -1.421875
Q 19.53125 -1.421875 11.8125 6.421875
Q 4.109375 14.265625 4.109375 28.078125
Q 4.109375 36.234375 7.0625 44.4375
Q 10.015625 52.640625 15.28125 59.1875
Q 21.390625 66.703125 29.03125 70.453125
Q 36.671875 74.21875 45.90625 74.21875
Q 59.28125 74.21875 66.984375 66.328125
Q 74.703125 58.453125 74.703125 44.828125
Q 74.703125 30.125 66.640625 17.921875
Q 58.59375 5.71875 45.609375 0.6875
L 55.515625 -12.890625
L 44.484375 -12.890625
z
M 45.609375 66.21875
Q 37.5 66.21875 31.296875 62.28125
Q 25.09375 58.34375 20.515625 50.296875
Q 17.578125 45.171875 16.03125 39.40625
Q 14.5 33.640625 14.5 27.78125
Q 14.5 17.625 19.359375 12.109375
Q 24.21875 6.59375 33.109375 6.59375
Q 41.109375 6.59375 47.375 10.5625
Q 53.65625 14.546875 58.109375 22.40625
Q 61.078125 27.6875 62.640625 33.46875
Q 64.203125 39.265625 64.203125 45.015625
Q 64.203125 55.125 59.3125 60.671875
Q 54.4375 66.21875 45.609375 66.21875
z
" id="DejaVuSans-Oblique-81"/>
       <path d="M 6.5 8.296875
L 22.609375 8.296875
L 33.5 64.40625
L 15.28125 60.890625
L 17 69.390625
L 35.109375 72.90625
L 45.015625 72.90625
L 32.421875 8.296875
L 48.484375 8.296875
L 46.921875 0
L 4.890625 0
z
" id="DejaVuSans-Oblique-49"/>
      </defs>
      <g transform="translate(44.488437 47.617031)scale(0.1 -0.1)">
       <use xlink:href="#DejaVuSans-Oblique-72"/>
       <use x="75.195312" xlink:href="#DejaVuSans-Oblique-66"/>
       <use x="143.798828" xlink:href="#DejaVuSans-Oblique-81"/>
       <use x="222.509766" xlink:href="#DejaVuSans-Oblique-49"/>
      </g>
     </g>
    </g>
    <g id="ytick_4">
     <g id="line2d_12">
      <g>
       <use style="stroke:#000000;stroke-width:0.8;" x="80.104062" xlink:href="#m49dd15f3ab" y="54.689812"/>
      </g>
     </g>
     <g id="text_13">
      <!-- FKBP8 -->
      <defs>
       <path d="M 16.890625 72.90625
L 58.6875 72.90625
L 57.078125 64.59375
L 25.09375 64.59375
L 20.90625 43.109375
L 49.8125 43.109375
L 48.1875 34.8125
L 19.28125 34.8125
L 12.5 0
L 2.6875 0
z
" id="DejaVuSans-Oblique-70"/>
       <path d="M 16.890625 72.90625
L 26.8125 72.90625
L 20.796875 42.1875
L 59.078125 72.90625
L 72.21875 72.90625
L 28.90625 38.09375
L 60.59375 0
L 48.578125 0
L 19.484375 35.5
L 12.59375 0
L 2.6875 0
z
" id="DejaVuSans-Oblique-75"/>
       <path d="M 16.890625 72.90625
L 39.703125 72.90625
Q 49.65625 72.90625 54.875 68.265625
Q 60.109375 63.625 60.109375 54.6875
Q 60.109375 42.671875 52.390625 35.984375
Q 44.671875 29.296875 30.71875 29.296875
L 18.3125 29.296875
L 12.59375 0
L 2.6875 0
z
M 25.203125 64.796875
L 19.921875 37.40625
L 32.328125 37.40625
Q 40.71875 37.40625 45.203125 41.703125
Q 49.703125 46 49.703125 54
Q 49.703125 59.125 46.65625 61.953125
Q 43.609375 64.796875 38.09375 64.796875
z
" id="DejaVuSans-Oblique-80"/>
       <path d="M 44.484375 22.125
Q 44.484375 27.640625 40.625 31.125
Q 36.765625 34.625 30.515625 34.625
Q 22.90625 34.625 17.9375 30.046875
Q 12.984375 25.484375 12.984375 18.5
Q 12.984375 12.9375 16.765625 9.65625
Q 20.5625 6.390625 27 6.390625
Q 34.671875 6.390625 39.578125 10.828125
Q 44.484375 15.28125 44.484375 22.125
z
M 49.515625 56.109375
Q 49.515625 60.75 46.09375 63.578125
Q 42.671875 66.40625 37.015625 66.40625
Q 30.328125 66.40625 26 62.640625
Q 21.6875 58.890625 21.6875 53.21875
Q 21.6875 48.34375 25.078125 45.359375
Q 28.46875 42.390625 34.078125 42.390625
Q 40.828125 42.390625 45.171875 46.265625
Q 49.515625 50.140625 49.515625 56.109375
z
M 42.828125 38.375
Q 48.34375 36.28125 51.265625 32.03125
Q 54.203125 27.78125 54.203125 21.78125
Q 54.203125 11.671875 46.390625 5.125
Q 38.578125 -1.421875 26.21875 -1.421875
Q 15.71875 -1.421875 9.515625 3.734375
Q 3.328125 8.890625 3.328125 17.484375
Q 3.328125 25.296875 8.640625 31.375
Q 13.96875 37.453125 22.515625 39.109375
Q 17.390625 40.875 14.703125 44.5625
Q 12.015625 48.25 12.015625 53.515625
Q 12.015625 62.359375 19.359375 68.28125
Q 26.703125 74.21875 37.984375 74.21875
Q 47.40625 74.21875 53.34375 69.40625
Q 59.28125 64.59375 59.28125 57.171875
Q 59.28125 50.734375 54.859375 45.671875
Q 50.4375 40.625 42.828125 38.375
z
" id="DejaVuSans-Oblique-56"/>
      </defs>
      <g transform="translate(41.541562 58.489031)scale(0.1 -0.1)">
       <use xlink:href="#DejaVuSans-Oblique-70"/>
       <use x="57.519531" xlink:href="#DejaVuSans-Oblique-75"/>
       <use x="123.095703" xlink:href="#DejaVuSans-Oblique-66"/>
       <use x="191.699219" xlink:href="#DejaVuSans-Oblique-80"/>
       <use x="252.001953" xlink:href="#DejaVuSans-Oblique-56"/>
      </g>
     </g>
    </g>
    <g id="ytick_5">
     <g id="line2d_13">
      <g>
       <use style="stroke:#000000;stroke-width:0.8;" x="80.104062" xlink:href="#m49dd15f3ab" y="65.561812"/>
      </g>
     </g>
     <g id="text_14">
      <!-- KCNE1 -->
      <defs>
       <path d="M 69.484375 67.28125
L 67.484375 56.890625
Q 62.796875 61.625 57.546875 63.921875
Q 52.296875 66.21875 46.1875 66.21875
Q 37.84375 66.21875 31.515625 62.203125
Q 25.203125 58.203125 20.609375 50
Q 17.671875 44.734375 16.125 38.84375
Q 14.59375 32.953125 14.59375 27
Q 14.59375 17.046875 19.75 11.8125
Q 24.90625 6.59375 34.71875 6.59375
Q 41.5 6.59375 47.75 8.765625
Q 54 10.9375 59.90625 15.28125
L 57.625 3.609375
Q 51.8125 1.125 45.875 -0.140625
Q 39.9375 -1.421875 33.984375 -1.421875
Q 19.96875 -1.421875 12.078125 6.1875
Q 4.203125 13.8125 4.203125 27.390625
Q 4.203125 36.078125 7.203125 44.46875
Q 10.203125 52.875 15.828125 59.8125
Q 21.78125 67.1875 29.421875 70.703125
Q 37.0625 74.21875 47.21875 74.21875
Q 53.46875 74.21875 59.0625 72.484375
Q 64.65625 70.75 69.484375 67.28125
z
" id="DejaVuSans-Oblique-67"/>
       <path d="M 16.890625 72.90625
L 30.171875 72.90625
L 50.296875 10.40625
L 62.5 72.90625
L 72.125 72.90625
L 57.90625 0
L 44.578125 0
L 24.515625 62.890625
L 12.3125 0
L 2.6875 0
z
" id="DejaVuSans-Oblique-78"/>
       <path d="M 16.890625 72.90625
L 62.984375 72.90625
L 61.375 64.59375
L 25.09375 64.59375
L 20.90625 43.015625
L 55.71875 43.015625
L 54.109375 34.71875
L 19.28125 34.71875
L 14.203125 8.296875
L 51.3125 8.296875
L 49.703125 0
L 2.6875 0
z
" id="DejaVuSans-Oblique-69"/>
      </defs>
      <g transform="translate(39.404062 69.361031)scale(0.1 -0.1)">
       <use xlink:href="#DejaVuSans-Oblique-75"/>
       <use x="65.544922" xlink:href="#DejaVuSans-Oblique-67"/>
       <use x="135.369141" xlink:href="#DejaVuSans-Oblique-78"/>
       <use x="210.173828" xlink:href="#DejaVuSans-Oblique-69"/>
       <use x="273.357422" xlink:href="#DejaVuSans-Oblique-49"/>
      </g>
     </g>
    </g>
    <g id="ytick_6">
     <g id="line2d_14">
      <g>
       <use style="stroke:#000000;stroke-width:0.8;" x="80.104062" xlink:href="#m49dd15f3ab" y="76.433812"/>
      </g>
     </g>
     <g id="text_15">
      <!-- S100A12 -->
      <defs>
       <path d="M 60.296875 70.515625
L 58.40625 60.890625
Q 53.46875 63.53125 48.609375 64.875
Q 43.75 66.21875 39.203125 66.21875
Q 30.375 66.21875 25.140625 62.359375
Q 19.921875 58.5 19.921875 52.09375
Q 19.921875 48.578125 21.84375 46.703125
Q 23.78125 44.828125 31.78125 42.671875
L 37.703125 41.21875
Q 47.703125 38.625 51.609375 34.640625
Q 55.515625 30.671875 55.515625 23.484375
Q 55.515625 12.453125 46.84375 5.515625
Q 38.1875 -1.421875 24.03125 -1.421875
Q 18.21875 -1.421875 12.359375 -0.265625
Q 6.5 0.875 0.59375 3.21875
L 2.59375 13.375
Q 8.015625 10.015625 13.453125 8.296875
Q 18.890625 6.59375 24.3125 6.59375
Q 33.546875 6.59375 39.109375 10.6875
Q 44.671875 14.796875 44.671875 21.390625
Q 44.671875 25.78125 42.453125 28.046875
Q 40.234375 30.328125 32.90625 32.171875
L 27 33.6875
Q 16.890625 36.328125 13.203125 39.765625
Q 9.515625 43.21875 9.515625 49.421875
Q 9.515625 60.296875 17.890625 67.25
Q 26.265625 74.21875 39.703125 74.21875
Q 44.921875 74.21875 50.046875 73.28125
Q 55.171875 72.359375 60.296875 70.515625
z
" id="DejaVuSans-Oblique-83"/>
       <path d="M 38.1875 74.21875
Q 48.09375 74.21875 53.34375 67.625
Q 58.59375 61.03125 58.59375 48.6875
Q 58.59375 39.3125 56.125 30.046875
Q 53.65625 20.796875 49.21875 13.484375
Q 44.671875 6.15625 38.546875 2.359375
Q 32.421875 -1.421875 25 -1.421875
Q 15.4375 -1.421875 10.203125 5.21875
Q 4.984375 11.859375 4.984375 24.125
Q 4.984375 33.40625 7.5 42.703125
Q 10.015625 52 14.5 59.28125
Q 19 66.609375 25.03125 70.40625
Q 31.0625 74.21875 38.1875 74.21875
z
M 37.59375 66.40625
Q 33.890625 66.40625 30.546875 64.421875
Q 27.203125 62.453125 24.515625 58.59375
Q 20.015625 52.15625 17.359375 42.5
Q 14.703125 32.859375 14.703125 22.703125
Q 14.703125 14.65625 17.546875 10.515625
Q 20.40625 6.390625 25.984375 6.390625
Q 29.890625 6.390625 33.203125 8.375
Q 36.53125 10.359375 39.203125 14.203125
Q 43.65625 20.609375 46.265625 30.25
Q 48.875 39.890625 48.875 50.09375
Q 48.875 58.15625 46.015625 62.28125
Q 43.171875 66.40625 37.59375 66.40625
z
" id="DejaVuSans-Oblique-48"/>
       <path d="M 36.8125 72.90625
L 48 72.90625
L 61.53125 0
L 51.21875 0
L 48.1875 18.703125
L 15.375 18.703125
L 5.078125 0
L -5.328125 0
z
M 40.375 63.1875
L 19.921875 26.90625
L 46.6875 26.90625
z
" id="DejaVuSans-Oblique-65"/>
       <path d="M 46.09375 35.203125
L 14.59375 8.203125
L 49.421875 8.203125
L 47.703125 0
L 0.390625 0
L 2 8.296875
L 34.90625 36.53125
Q 41.5 42.234375 44.25 46.546875
Q 47.015625 50.875 47.015625 55.421875
Q 47.015625 60.15625 43.6875 63.125
Q 40.375 66.109375 35.015625 66.109375
Q 30.375 66.109375 24.703125 64.453125
Q 19.046875 62.796875 12.59375 59.625
L 14.40625 69.390625
Q 20.453125 71.78125 25.96875 73
Q 31.5 74.21875 36.1875 74.21875
Q 45.75 74.21875 51.578125 69.140625
Q 57.421875 64.0625 57.421875 55.8125
Q 57.421875 50.25 54.640625 45.1875
Q 51.859375 40.140625 46.09375 35.203125
z
" id="DejaVuSans-Oblique-50"/>
      </defs>
      <g transform="translate(28.1025 80.233031)scale(0.1 -0.1)">
       <use xlink:href="#DejaVuSans-Oblique-83"/>
       <use x="63.476562" xlink:href="#DejaVuSans-Oblique-49"/>
       <use x="127.099609" xlink:href="#DejaVuSans-Oblique-48"/>
       <use x="190.722656" xlink:href="#DejaVuSans-Oblique-48"/>
       <use x="254.345703" xlink:href="#DejaVuSans-Oblique-65"/>
       <use x="322.753906" xlink:href="#DejaVuSans-Oblique-49"/>
       <use x="386.376953" xlink:href="#DejaVuSans-Oblique-50"/>
      </g>
     </g>
    </g>
    <g id="ytick_7">
     <g id="line2d_15">
      <g>
       <use style="stroke:#000000;stroke-width:0.8;" x="80.104062" xlink:href="#m49dd15f3ab" y="87.305812"/>
      </g>
     </g>
     <g id="text_16">
      <!-- CAMP -->
      <defs>
       <path d="M 16.890625 72.90625
L 31.6875 72.90625
L 40.1875 23.78125
L 68.40625 72.90625
L 83.59375 72.90625
L 69.390625 0
L 59.8125 0
L 72.21875 63.921875
L 43.609375 14.015625
L 33.984375 14.015625
L 24.703125 64.109375
L 12.3125 0
L 2.6875 0
z
" id="DejaVuSans-Oblique-77"/>
      </defs>
      <g transform="translate(44.622812 91.105031)scale(0.1 -0.1)">
       <use xlink:href="#DejaVuSans-Oblique-67"/>
       <use x="69.824219" xlink:href="#DejaVuSans-Oblique-65"/>
       <use x="138.232422" xlink:href="#DejaVuSans-Oblique-77"/>
       <use x="224.511719" xlink:href="#DejaVuSans-Oblique-80"/>
      </g>
     </g>
    </g>
    <g id="ytick_8">
     <g id="line2d_16">
      <g>
       <use style="stroke:#000000;stroke-width:0.8;" x="80.104062" xlink:href="#m49dd15f3ab" y="98.177812"/>
      </g>
     </g>
     <g id="text_17">
      <!-- CLDN9 -->
      <defs>
       <path d="M 16.796875 72.90625
L 26.703125 72.90625
L 14.203125 8.203125
L 49.703125 8.203125
L 48.09375 0
L 2.6875 0
z
" id="DejaVuSans-Oblique-76"/>
       <path d="M 4.390625 1.609375
L 6.203125 10.59375
Q 9.03125 8.734375 12.640625 7.75
Q 16.265625 6.78125 20.40625 6.78125
Q 30.515625 6.78125 36.6875 13.171875
Q 42.875 19.578125 45.90625 33.109375
Q 42.28125 28.953125 37.515625 26.78125
Q 32.765625 24.609375 27.296875 24.609375
Q 18.40625 24.609375 13.15625 29.75
Q 7.90625 34.90625 7.90625 43.609375
Q 7.90625 50.734375 10.5 56.859375
Q 13.09375 62.984375 18.109375 67.578125
Q 21.53125 70.796875 26.015625 72.5
Q 30.515625 74.21875 35.59375 74.21875
Q 45.703125 74.21875 51.5625 67.796875
Q 57.421875 61.375 57.421875 50.296875
Q 57.421875 39.984375 54.703125 30.359375
Q 52 20.75 47.21875 13.71875
Q 42.140625 6.296875 35 2.4375
Q 27.875 -1.421875 19.1875 -1.421875
Q 15.4375 -1.421875 11.6875 -0.65625
Q 7.953125 0.09375 4.390625 1.609375
z
M 17.671875 45.90625
Q 17.671875 39.703125 20.890625 36.0625
Q 24.125 32.421875 29.59375 32.421875
Q 37.15625 32.421875 42.28125 38.234375
Q 47.40625 44.046875 47.40625 52.6875
Q 47.40625 59.125 44.234375 62.765625
Q 41.0625 66.40625 35.5 66.40625
Q 27.9375 66.40625 22.796875 60.46875
Q 17.671875 54.546875 17.671875 45.90625
z
" id="DejaVuSans-Oblique-57"/>
      </defs>
      <g transform="translate(39.005625 101.977031)scale(0.1 -0.1)">
       <use xlink:href="#DejaVuSans-Oblique-67"/>
       <use x="69.824219" xlink:href="#DejaVuSans-Oblique-76"/>
       <use x="125.537109" xlink:href="#DejaVuSans-Oblique-68"/>
       <use x="202.539062" xlink:href="#DejaVuSans-Oblique-78"/>
       <use x="277.34375" xlink:href="#DejaVuSans-Oblique-57"/>
      </g>
     </g>
    </g>
    <g id="ytick_9">
     <g id="line2d_17">
      <g>
       <use style="stroke:#000000;stroke-width:0.8;" x="80.104062" xlink:href="#m49dd15f3ab" y="109.049812"/>
      </g>
     </g>
     <g id="text_18">
      <!-- CYBA -->
      <defs>
       <path d="M 6.296875 72.90625
L 16.890625 72.90625
L 30.515625 42.921875
L 56.5 72.90625
L 67.578125 72.90625
L 34.515625 34.71875
L 27.78125 0
L 17.921875 0
L 24.609375 34.71875
z
" id="DejaVuSans-Oblique-89"/>
      </defs>
      <g transform="translate(46.311875 112.849031)scale(0.1 -0.1)">
       <use xlink:href="#DejaVuSans-Oblique-67"/>
       <use x="69.824219" xlink:href="#DejaVuSans-Oblique-89"/>
       <use x="130.908203" xlink:href="#DejaVuSans-Oblique-66"/>
       <use x="199.511719" xlink:href="#DejaVuSans-Oblique-65"/>
      </g>
     </g>
    </g>
    <g id="ytick_10">
     <g id="line2d_18">
      <g>
       <use style="stroke:#000000;stroke-width:0.8;" x="80.104062" xlink:href="#m49dd15f3ab" y="119.921812"/>
      </g>
     </g>
     <g id="text_19">
      <!-- DEFA4 -->
      <defs>
       <path d="M 43.015625 72.90625
L 55.421875 72.90625
L 46.09375 25.390625
L 56.5 25.390625
L 54.890625 17.1875
L 44.484375 17.1875
L 41.21875 0
L 31.390625 0
L 34.71875 17.1875
L 1.8125 17.1875
L 3.71875 26.703125
z
M 43.890625 64.3125
L 11.375 25.390625
L 36.28125 25.390625
z
" id="DejaVuSans-Oblique-52"/>
      </defs>
      <g transform="translate(40.138437 123.721031)scale(0.1 -0.1)">
       <use xlink:href="#DejaVuSans-Oblique-68"/>
       <use x="77.001953" xlink:href="#DejaVuSans-Oblique-69"/>
       <use x="140.185547" xlink:href="#DejaVuSans-Oblique-70"/>
       <use x="197.626953" xlink:href="#DejaVuSans-Oblique-65"/>
       <use x="266.035156" xlink:href="#DejaVuSans-Oblique-52"/>
      </g>
     </g>
    </g>
    <g id="ytick_11">
     <g id="line2d_19">
      <g>
       <use style="stroke:#000000;stroke-width:0.8;" x="80.104062" xlink:href="#m49dd15f3ab" y="130.793812"/>
      </g>
     </g>
     <g id="text_20">
      <!-- PHOSPHO1 -->
      <defs>
       <path d="M 45.609375 66.21875
Q 37.5 66.21875 31.296875 62.28125
Q 25.09375 58.34375 20.515625 50.296875
Q 17.578125 45.171875 16.03125 39.40625
Q 14.5 33.640625 14.5 27.78125
Q 14.5 17.625 19.359375 12.109375
Q 24.21875 6.59375 33.109375 6.59375
Q 41.109375 6.59375 47.375 10.5625
Q 53.65625 14.546875 58.109375 22.40625
Q 61.078125 27.6875 62.640625 33.46875
Q 64.203125 39.265625 64.203125 45.015625
Q 64.203125 55.125 59.3125 60.671875
Q 54.4375 66.21875 45.609375 66.21875
z
M 32.8125 -1.421875
Q 19.390625 -1.421875 11.6875 6.53125
Q 4 14.5 4 28.328125
Q 4 36.234375 7 44.484375
Q 10.015625 52.734375 15.28125 59.1875
Q 21.484375 66.75 29.09375 70.484375
Q 36.71875 74.21875 45.90625 74.21875
Q 59.28125 74.21875 66.984375 66.328125
Q 74.703125 58.453125 74.703125 44.828125
Q 74.703125 36.421875 71.765625 28.3125
Q 68.84375 20.21875 63.375 13.625
Q 57.125 6 49.578125 2.28125
Q 42.046875 -1.421875 32.8125 -1.421875
z
" id="DejaVuSans-Oblique-79"/>
      </defs>
      <g transform="translate(17.549375 134.593031)scale(0.1 -0.1)">
       <use xlink:href="#DejaVuSans-Oblique-80"/>
       <use x="60.302734" xlink:href="#DejaVuSans-Oblique-72"/>
       <use x="135.498047" xlink:href="#DejaVuSans-Oblique-79"/>
       <use x="214.208984" xlink:href="#DejaVuSans-Oblique-83"/>
       <use x="277.685547" xlink:href="#DejaVuSans-Oblique-80"/>
       <use x="337.988281" xlink:href="#DejaVuSans-Oblique-72"/>
       <use x="413.183594" xlink:href="#DejaVuSans-Oblique-79"/>
       <use x="491.894531" xlink:href="#DejaVuSans-Oblique-49"/>
      </g>
     </g>
    </g>
    <g id="ytick_12">
     <g id="line2d_20">
      <g>
       <use style="stroke:#000000;stroke-width:0.8;" x="80.104062" xlink:href="#m49dd15f3ab" y="141.665812"/>
      </g>
     </g>
     <g id="text_21">
      <!-- NFE2 -->
      <g transform="translate(47.19 145.465031)scale(0.1 -0.1)">
       <use xlink:href="#DejaVuSans-Oblique-78"/>
       <use x="74.804688" xlink:href="#DejaVuSans-Oblique-70"/>
       <use x="132.324219" xlink:href="#DejaVuSans-Oblique-69"/>
       <use x="195.507812" xlink:href="#DejaVuSans-Oblique-50"/>
      </g>
     </g>
    </g>
    <g id="ytick_13">
     <g id="line2d_21">
      <g>
       <use style="stroke:#000000;stroke-width:0.8;" x="80.104062" xlink:href="#m49dd15f3ab" y="152.537812"/>
      </g>
     </g>
     <g id="text_22">
      <!-- ALAS2 -->
      <g transform="translate(41.14 156.337031)scale(0.1 -0.1)">
       <use xlink:href="#DejaVuSans-Oblique-65"/>
       <use x="68.408203" xlink:href="#DejaVuSans-Oblique-76"/>
       <use x="124.121094" xlink:href="#DejaVuSans-Oblique-65"/>
       <use x="192.529297" xlink:href="#DejaVuSans-Oblique-83"/>
       <use x="256.005859" xlink:href="#DejaVuSans-Oblique-50"/>
      </g>
     </g>
    </g>
    <g id="ytick_14">
     <g id="line2d_22">
      <g>
       <use style="stroke:#000000;stroke-width:0.8;" x="80.104062" xlink:href="#m49dd15f3ab" y="163.409812"/>
      </g>
     </g>
     <g id="text_23">
      <!-- BCL2L1 -->
      <g transform="translate(35.391562 167.209031)scale(0.1 -0.1)">
       <use xlink:href="#DejaVuSans-Oblique-66"/>
       <use x="68.603516" xlink:href="#DejaVuSans-Oblique-67"/>
       <use x="138.427734" xlink:href="#DejaVuSans-Oblique-76"/>
       <use x="194.140625" xlink:href="#DejaVuSans-Oblique-50"/>
       <use x="257.763672" xlink:href="#DejaVuSans-Oblique-76"/>
       <use x="313.476562" xlink:href="#DejaVuSans-Oblique-49"/>
      </g>
     </g>
    </g>
    <g id="ytick_15">
     <g id="line2d_23">
      <g>
       <use style="stroke:#000000;stroke-width:0.8;" x="80.104062" xlink:href="#m49dd15f3ab" y="174.281812"/>
      </g>
     </g>
     <g id="text_24">
      <!-- PGLYRP1 -->
      <defs>
       <path d="M 54.59375 10.890625
L 58.40625 29.984375
L 42.1875 29.984375
L 43.703125 38.09375
L 69.578125 38.09375
L 63.28125 6
Q 56.78125 2.4375 49.109375 0.5
Q 41.453125 -1.421875 33.6875 -1.421875
Q 19.96875 -1.421875 12.234375 6.1875
Q 4.5 13.8125 4.5 27.390625
Q 4.5 38.671875 9.203125 48.84375
Q 13.921875 59.03125 22.21875 65.828125
Q 27.4375 70.0625 33.640625 72.140625
Q 39.84375 74.21875 47.40625 74.21875
Q 54.25 74.21875 60.515625 72.484375
Q 66.796875 70.75 72.515625 67.28125
L 70.515625 56.78125
Q 66.109375 61.375 60.203125 63.796875
Q 54.296875 66.21875 47.609375 66.21875
Q 39.84375 66.21875 33.9375 63.25
Q 28.03125 60.296875 23.390625 54.109375
Q 19.4375 48.828125 17.15625 41.671875
Q 14.890625 34.515625 14.890625 27.09375
Q 14.890625 16.890625 20.109375 11.734375
Q 25.34375 6.59375 35.6875 6.59375
Q 40.875 6.59375 45.703125 7.6875
Q 50.53125 8.796875 54.59375 10.890625
z
" id="DejaVuSans-Oblique-71"/>
       <path d="M 25.203125 64.796875
L 20.21875 38.921875
L 32.90625 38.921875
Q 40.375 38.921875 44.984375 43.046875
Q 49.609375 47.171875 49.609375 53.8125
Q 49.609375 59.125 46.5 61.953125
Q 43.40625 64.796875 37.59375 64.796875
z
M 43.3125 35.015625
Q 46.4375 34.28125 48.515625 31.390625
Q 50.59375 28.515625 53.328125 19.921875
L 59.515625 0
L 49.125 0
L 43.40625 18.703125
Q 41.21875 25.921875 38.328125 28.359375
Q 35.453125 30.8125 29.5 30.8125
L 18.609375 30.8125
L 12.59375 0
L 2.6875 0
L 16.890625 72.90625
L 39.109375 72.90625
Q 49.21875 72.90625 54.609375 68.328125
Q 60.015625 63.765625 60.015625 55.171875
Q 60.015625 47.5625 55.421875 41.984375
Q 50.828125 36.421875 43.3125 35.015625
z
" id="DejaVuSans-Oblique-82"/>
      </defs>
      <g transform="translate(28.319687 178.081031)scale(0.1 -0.1)">
       <use xlink:href="#DejaVuSans-Oblique-80"/>
       <use x="60.302734" xlink:href="#DejaVuSans-Oblique-71"/>
       <use x="137.792969" xlink:href="#DejaVuSans-Oblique-76"/>
       <use x="193.365234" xlink:href="#DejaVuSans-Oblique-89"/>
       <use x="254.449219" xlink:href="#DejaVuSans-Oblique-82"/>
       <use x="323.931641" xlink:href="#DejaVuSans-Oblique-80"/>
       <use x="384.234375" xlink:href="#DejaVuSans-Oblique-49"/>
      </g>
     </g>
    </g>
    <g id="ytick_16">
     <g id="line2d_24">
      <g>
       <use style="stroke:#000000;stroke-width:0.8;" x="80.104062" xlink:href="#m49dd15f3ab" y="185.153812"/>
      </g>
     </g>
     <g id="text_25">
      <!-- FFAR2 -->
      <g transform="translate(41.457187 188.953031)scale(0.1 -0.1)">
       <use xlink:href="#DejaVuSans-Oblique-70"/>
       <use x="57.519531" xlink:href="#DejaVuSans-Oblique-70"/>
       <use x="114.960938" xlink:href="#DejaVuSans-Oblique-65"/>
       <use x="183.369141" xlink:href="#DejaVuSans-Oblique-82"/>
       <use x="252.851562" xlink:href="#DejaVuSans-Oblique-50"/>
      </g>
     </g>
    </g>
    <g id="ytick_17">
     <g id="line2d_25">
      <g>
       <use style="stroke:#000000;stroke-width:0.8;" x="80.104062" xlink:href="#m49dd15f3ab" y="196.025812"/>
      </g>
     </g>
     <g id="text_26">
      <!-- GYPB -->
      <g transform="translate(46.357187 199.825031)scale(0.1 -0.1)">
       <use xlink:href="#DejaVuSans-Oblique-71"/>
       <use x="77.490234" xlink:href="#DejaVuSans-Oblique-89"/>
       <use x="138.574219" xlink:href="#DejaVuSans-Oblique-80"/>
       <use x="198.876953" xlink:href="#DejaVuSans-Oblique-66"/>
      </g>
     </g>
    </g>
    <g id="ytick_18">
     <g id="line2d_26">
      <g>
       <use style="stroke:#000000;stroke-width:0.8;" x="80.104062" xlink:href="#m49dd15f3ab" y="206.897812"/>
      </g>
     </g>
     <g id="text_27">
      <!-- BLVRB -->
      <defs>
       <path d="M 20.609375 0
L 7.8125 72.90625
L 17.484375 72.90625
L 28.078125 10.203125
L 63.484375 72.90625
L 74.21875 72.90625
L 32.078125 0
z
" id="DejaVuSans-Oblique-86"/>
      </defs>
      <g transform="translate(40.032187 210.697031)scale(0.1 -0.1)">
       <use xlink:href="#DejaVuSans-Oblique-66"/>
       <use x="68.603516" xlink:href="#DejaVuSans-Oblique-76"/>
       <use x="124.207031" xlink:href="#DejaVuSans-Oblique-86"/>
       <use x="192.615234" xlink:href="#DejaVuSans-Oblique-82"/>
       <use x="262.097656" xlink:href="#DejaVuSans-Oblique-66"/>
      </g>
     </g>
    </g>
    <g id="ytick_19">
     <g id="line2d_27">
      <g>
       <use style="stroke:#000000;stroke-width:0.8;" x="80.104062" xlink:href="#m49dd15f3ab" y="217.769812"/>
      </g>
     </g>
     <g id="text_28">
      <!-- FOXO4 -->
      <defs>
       <path d="M 13.71875 72.90625
L 23.6875 72.90625
L 36.1875 46.578125
L 58.796875 72.90625
L 70.3125 72.90625
L 40.28125 38.09375
L 58.40625 0
L 48.484375 0
L 33.796875 30.71875
L 7.171875 0
L -4.296875 0
L 29.78125 39.203125
z
" id="DejaVuSans-Oblique-88"/>
      </defs>
      <g transform="translate(38.404062 221.569031)scale(0.1 -0.1)">
       <use xlink:href="#DejaVuSans-Oblique-70"/>
       <use x="57.519531" xlink:href="#DejaVuSans-Oblique-79"/>
       <use x="136.199219" xlink:href="#DejaVuSans-Oblique-88"/>
       <use x="204.658203" xlink:href="#DejaVuSans-Oblique-79"/>
       <use x="283.369141" xlink:href="#DejaVuSans-Oblique-52"/>
      </g>
     </g>
    </g>
    <g id="ytick_20">
     <g id="line2d_28">
      <g>
       <use style="stroke:#000000;stroke-width:0.8;" x="80.104062" xlink:href="#m49dd15f3ab" y="228.641812"/>
      </g>
     </g>
     <g id="text_29">
      <!-- CDC34 -->
      <defs>
       <path d="M 15.828125 71.09375
Q 21.1875 72.65625 26.234375 73.4375
Q 31.296875 74.21875 36.1875 74.21875
Q 45.84375 74.21875 51.5 69.921875
Q 57.171875 65.625 57.171875 58.40625
Q 57.171875 51.3125 52.703125 46.234375
Q 48.25 41.15625 40.375 39.3125
Q 46.53125 37.546875 49.40625 33.828125
Q 52.296875 30.125 52.296875 24.03125
Q 52.296875 18.171875 49.484375 13.03125
Q 46.6875 7.90625 41.40625 4.203125
Q 37.40625 1.375 31.828125 -0.015625
Q 26.265625 -1.421875 19 -1.421875
Q 14.40625 -1.421875 9.71875 -0.515625
Q 5.03125 0.390625 0.203125 2.203125
L 2 11.53125
Q 6.59375 8.984375 11.25 7.734375
Q 15.921875 6.5 20.796875 6.5
Q 30.421875 6.5 36.40625 11.453125
Q 42.390625 16.40625 42.390625 24.3125
Q 42.390625 29.390625 38.578125 32.140625
Q 34.765625 34.90625 27.6875 34.90625
L 19.1875 34.90625
L 20.703125 42.921875
L 29.6875 42.921875
Q 37.796875 42.921875 42.453125 46.625
Q 47.125 50.34375 47.125 56.6875
Q 47.125 61.28125 43.703125 63.796875
Q 40.28125 66.3125 34.078125 66.3125
Q 29.390625 66.3125 24.484375 65.3125
Q 19.578125 64.3125 14.3125 62.3125
z
" id="DejaVuSans-Oblique-51"/>
      </defs>
      <g transform="translate(38.713437 232.441031)scale(0.1 -0.1)">
       <use xlink:href="#DejaVuSans-Oblique-67"/>
       <use x="69.824219" xlink:href="#DejaVuSans-Oblique-68"/>
       <use x="146.826172" xlink:href="#DejaVuSans-Oblique-67"/>
       <use x="216.650391" xlink:href="#DejaVuSans-Oblique-51"/>
       <use x="280.273438" xlink:href="#DejaVuSans-Oblique-52"/>
      </g>
     </g>
    </g>
    <g id="text_30">
     <!-- Gene symbol -->
     <defs>
      <path d="M 59.515625 10.40625
L 59.515625 29.984375
L 43.40625 29.984375
L 43.40625 38.09375
L 69.28125 38.09375
L 69.28125 6.78125
Q 63.578125 2.734375 56.6875 0.65625
Q 49.8125 -1.421875 42 -1.421875
Q 24.90625 -1.421875 15.25 8.5625
Q 5.609375 18.5625 5.609375 36.375
Q 5.609375 54.25 15.25 64.234375
Q 24.90625 74.21875 42 74.21875
Q 49.125 74.21875 55.546875 72.453125
Q 61.96875 70.703125 67.390625 67.28125
L 67.390625 56.78125
Q 61.921875 61.421875 55.765625 63.765625
Q 49.609375 66.109375 42.828125 66.109375
Q 29.4375 66.109375 22.71875 58.640625
Q 16.015625 51.171875 16.015625 36.375
Q 16.015625 21.625 22.71875 14.15625
Q 29.4375 6.6875 42.828125 6.6875
Q 48.046875 6.6875 52.140625 7.59375
Q 56.25 8.5 59.515625 10.40625
z
" id="DejaVuSans-71"/>
      <path d="M 54.890625 33.015625
L 54.890625 0
L 45.90625 0
L 45.90625 32.71875
Q 45.90625 40.484375 42.875 44.328125
Q 39.84375 48.1875 33.796875 48.1875
Q 26.515625 48.1875 22.3125 43.546875
Q 18.109375 38.921875 18.109375 30.90625
L 18.109375 0
L 9.078125 0
L 9.078125 54.6875
L 18.109375 54.6875
L 18.109375 46.1875
Q 21.34375 51.125 25.703125 53.5625
Q 30.078125 56 35.796875 56
Q 45.21875 56 50.046875 50.171875
Q 54.890625 44.34375 54.890625 33.015625
z
" id="DejaVuSans-110"/>
      <path id="DejaVuSans-32"/>
      <path d="M 44.28125 53.078125
L 44.28125 44.578125
Q 40.484375 46.53125 36.375 47.5
Q 32.28125 48.484375 27.875 48.484375
Q 21.1875 48.484375 17.84375 46.4375
Q 14.5 44.390625 14.5 40.28125
Q 14.5 37.15625 16.890625 35.375
Q 19.28125 33.59375 26.515625 31.984375
L 29.59375 31.296875
Q 39.15625 29.25 43.1875 25.515625
Q 47.21875 21.78125 47.21875 15.09375
Q 47.21875 7.46875 41.1875 3.015625
Q 35.15625 -1.421875 24.609375 -1.421875
Q 20.21875 -1.421875 15.453125 -0.5625
Q 10.6875 0.296875 5.421875 2
L 5.421875 11.28125
Q 10.40625 8.6875 15.234375 7.390625
Q 20.0625 6.109375 24.8125 6.109375
Q 31.15625 6.109375 34.5625 8.28125
Q 37.984375 10.453125 37.984375 14.40625
Q 37.984375 18.0625 35.515625 20.015625
Q 33.0625 21.96875 24.703125 23.78125
L 21.578125 24.515625
Q 13.234375 26.265625 9.515625 29.90625
Q 5.8125 33.546875 5.8125 39.890625
Q 5.8125 47.609375 11.28125 51.796875
Q 16.75 56 26.8125 56
Q 31.78125 56 36.171875 55.265625
Q 40.578125 54.546875 44.28125 53.078125
z
" id="DejaVuSans-115"/>
      <path d="M 32.171875 -5.078125
Q 28.375 -14.84375 24.75 -17.8125
Q 21.140625 -20.796875 15.09375 -20.796875
L 7.90625 -20.796875
L 7.90625 -13.28125
L 13.1875 -13.28125
Q 16.890625 -13.28125 18.9375 -11.515625
Q 21 -9.765625 23.484375 -3.21875
L 25.09375 0.875
L 2.984375 54.6875
L 12.5 54.6875
L 29.59375 11.921875
L 46.6875 54.6875
L 56.203125 54.6875
z
" id="DejaVuSans-121"/>
      <path d="M 52 44.1875
Q 55.375 50.25 60.0625 53.125
Q 64.75 56 71.09375 56
Q 79.640625 56 84.28125 50.015625
Q 88.921875 44.046875 88.921875 33.015625
L 88.921875 0
L 79.890625 0
L 79.890625 32.71875
Q 79.890625 40.578125 77.09375 44.375
Q 74.3125 48.1875 68.609375 48.1875
Q 61.625 48.1875 57.5625 43.546875
Q 53.515625 38.921875 53.515625 30.90625
L 53.515625 0
L 44.484375 0
L 44.484375 32.71875
Q 44.484375 40.625 41.703125 44.40625
Q 38.921875 48.1875 33.109375 48.1875
Q 26.21875 48.1875 22.15625 43.53125
Q 18.109375 38.875 18.109375 30.90625
L 18.109375 0
L 9.078125 0
L 9.078125 54.6875
L 18.109375 54.6875
L 18.109375 46.1875
Q 21.1875 51.21875 25.484375 53.609375
Q 29.78125 56 35.6875 56
Q 41.65625 56 45.828125 52.96875
Q 50 49.953125 52 44.1875
z
" id="DejaVuSans-109"/>
      <path d="M 48.6875 27.296875
Q 48.6875 37.203125 44.609375 42.84375
Q 40.53125 48.484375 33.40625 48.484375
Q 26.265625 48.484375 22.1875 42.84375
Q 18.109375 37.203125 18.109375 27.296875
Q 18.109375 17.390625 22.1875 11.75
Q 26.265625 6.109375 33.40625 6.109375
Q 40.53125 6.109375 44.609375 11.75
Q 48.6875 17.390625 48.6875 27.296875
z
M 18.109375 46.390625
Q 20.953125 51.265625 25.265625 53.625
Q 29.59375 56 35.59375 56
Q 45.5625 56 51.78125 48.09375
Q 58.015625 40.1875 58.015625 27.296875
Q 58.015625 14.40625 51.78125 6.484375
Q 45.5625 -1.421875 35.59375 -1.421875
Q 29.59375 -1.421875 25.265625 0.953125
Q 20.953125 3.328125 18.109375 8.203125
L 18.109375 0
L 9.078125 0
L 9.078125 75.984375
L 18.109375 75.984375
z
" id="DejaVuSans-98"/>
      <path d="M 30.609375 48.390625
Q 23.390625 48.390625 19.1875 42.75
Q 14.984375 37.109375 14.984375 27.296875
Q 14.984375 17.484375 19.15625 11.84375
Q 23.34375 6.203125 30.609375 6.203125
Q 37.796875 6.203125 41.984375 11.859375
Q 46.1875 17.53125 46.1875 27.296875
Q 46.1875 37.015625 41.984375 42.703125
Q 37.796875 48.390625 30.609375 48.390625
z
M 30.609375 56
Q 42.328125 56 49.015625 48.375
Q 55.71875 40.765625 55.71875 27.296875
Q 55.71875 13.875 49.015625 6.21875
Q 42.328125 -1.421875 30.609375 -1.421875
Q 18.84375 -1.421875 12.171875 6.21875
Q 5.515625 13.875 5.515625 27.296875
Q 5.515625 40.765625 12.171875 48.375
Q 18.84375 56 30.609375 56
z
" id="DejaVuSans-111"/>
      <path d="M 9.421875 75.984375
L 18.40625 75.984375
L 18.40625 0
L 9.421875 0
z
" id="DejaVuSans-108"/>
     </defs>
     <g transform="translate(10.637812 171.336875)rotate(-90)scale(0.14 -0.14)">
      <use xlink:href="#DejaVuSans-71"/>
      <use x="77.490234" xlink:href="#DejaVuSans-101"/>
      <use x="139.013672" xlink:href="#DejaVuSans-110"/>
      <use x="202.392578" xlink:href="#DejaVuSans-101"/>
      <use x="263.916016" xlink:href="#DejaVuSans-32"/>
      <use x="295.703125" xlink:href="#DejaVuSans-115"/>
      <use x="347.802734" xlink:href="#DejaVuSans-121"/>
      <use x="406.982422" xlink:href="#DejaVuSans-109"/>
      <use x="504.394531" xlink:href="#DejaVuSans-98"/>
      <use x="567.871094" xlink:href="#DejaVuSans-111"/>
      <use x="629.052734" xlink:href="#DejaVuSans-108"/>
     </g>
    </g>
   </g>
   <g id="line2d_29">
    <path clip-path="url(#p796229229a)" d="M 0 0
" style="fill:none;stroke:#424242;stroke-linecap:square;stroke-width:2.7;"/>
   </g>
   <g id="line2d_30">
    <path clip-path="url(#p796229229a)" d="M 0 0
" style="fill:none;stroke:#424242;stroke-linecap:square;stroke-width:2.7;"/>
   </g>
   <g id="line2d_31">
    <path clip-path="url(#p796229229a)" d="M 0 0
" style="fill:none;stroke:#424242;stroke-linecap:square;stroke-width:2.7;"/>
   </g>
   <g id="line2d_32">
    <path clip-path="url(#p796229229a)" d="M 0 0
" style="fill:none;stroke:#424242;stroke-linecap:square;stroke-width:2.7;"/>
   </g>
   <g id="line2d_33">
    <path clip-path="url(#p796229229a)" d="M 0 0
" style="fill:none;stroke:#424242;stroke-linecap:square;stroke-width:2.7;"/>
   </g>
   <g id="line2d_34">
    <path clip-path="url(#p796229229a)" d="M 0 0
" style="fill:none;stroke:#424242;stroke-linecap:square;stroke-width:2.7;"/>
   </g>
   <g id="line2d_35">
    <path clip-path="url(#p796229229a)" d="M 0 0
" style="fill:none;stroke:#424242;stroke-linecap:square;stroke-width:2.7;"/>
   </g>
   <g id="line2d_36">
    <path clip-path="url(#p796229229a)" d="M 0 0
" style="fill:none;stroke:#424242;stroke-linecap:square;stroke-width:2.7;"/>
   </g>
   <g id="line2d_37">
    <path clip-path="url(#p796229229a)" d="M 0 0
" style="fill:none;stroke:#424242;stroke-linecap:square;stroke-width:2.7;"/>
   </g>
   <g id="line2d_38">
    <path clip-path="url(#p796229229a)" d="M 0 0
" style="fill:none;stroke:#424242;stroke-linecap:square;stroke-width:2.7;"/>
   </g>
   <g id="line2d_39">
    <path clip-path="url(#p796229229a)" d="M 0 0
" style="fill:none;stroke:#424242;stroke-linecap:square;stroke-width:2.7;"/>
   </g>
   <g id="line2d_40">
    <path clip-path="url(#p796229229a)" d="M 0 0
" style="fill:none;stroke:#424242;stroke-linecap:square;stroke-width:2.7;"/>
   </g>
   <g id="line2d_41">
    <path clip-path="url(#p796229229a)" d="M 0 0
" style="fill:none;stroke:#424242;stroke-linecap:square;stroke-width:2.7;"/>
   </g>
   <g id="line2d_42">
    <path clip-path="url(#p796229229a)" d="M 0 0
" style="fill:none;stroke:#424242;stroke-linecap:square;stroke-width:2.7;"/>
   </g>
   <g id="line2d_43">
    <path clip-path="url(#p796229229a)" d="M 0 0
" style="fill:none;stroke:#424242;stroke-linecap:square;stroke-width:2.7;"/>
   </g>
   <g id="line2d_44">
    <path clip-path="url(#p796229229a)" d="M 0 0
" style="fill:none;stroke:#424242;stroke-linecap:square;stroke-width:2.7;"/>
   </g>
   <g id="line2d_45">
    <path clip-path="url(#p796229229a)" d="M 0 0
" style="fill:none;stroke:#424242;stroke-linecap:square;stroke-width:2.7;"/>
   </g>
   <g id="line2d_46">
    <path clip-path="url(#p796229229a)" d="M 0 0
" style="fill:none;stroke:#424242;stroke-linecap:square;stroke-width:2.7;"/>
   </g>
   <g id="line2d_47">
    <path clip-path="url(#p796229229a)" d="M 0 0
" style="fill:none;stroke:#424242;stroke-linecap:square;stroke-width:2.7;"/>
   </g>
   <g id="line2d_48">
    <path clip-path="url(#p796229229a)" d="M 0 0
" style="fill:none;stroke:#424242;stroke-linecap:square;stroke-width:2.7;"/>
   </g>
   <g id="line2d_49">
    <path clip-path="url(#p796229229a)" d="M 0 0
" style="fill:none;stroke:#424242;stroke-linecap:square;stroke-width:2.7;"/>
   </g>
   <g id="line2d_50">
    <path clip-path="url(#p796229229a)" d="M 0 0
" style="fill:none;stroke:#424242;stroke-linecap:square;stroke-width:2.7;"/>
   </g>
   <g id="line2d_51">
    <path clip-path="url(#p796229229a)" d="M 0 0
" style="fill:none;stroke:#424242;stroke-linecap:square;stroke-width:2.7;"/>
   </g>
   <g id="line2d_52">
    <path clip-path="url(#p796229229a)" d="M 0 0
" style="fill:none;stroke:#424242;stroke-linecap:square;stroke-width:2.7;"/>
   </g>
   <g id="line2d_53">
    <path clip-path="url(#p796229229a)" d="M 0 0
" style="fill:none;stroke:#424242;stroke-linecap:square;stroke-width:2.7;"/>
   </g>
   <g id="line2d_54">
    <path clip-path="url(#p796229229a)" d="M 0 0
" style="fill:none;stroke:#424242;stroke-linecap:square;stroke-width:2.7;"/>
   </g>
   <g id="line2d_55">
    <path clip-path="url(#p796229229a)" d="M 0 0
" style="fill:none;stroke:#424242;stroke-linecap:square;stroke-width:2.7;"/>
   </g>
   <g id="line2d_56">
    <path clip-path="url(#p796229229a)" d="M 0 0
" style="fill:none;stroke:#424242;stroke-linecap:square;stroke-width:2.7;"/>
   </g>
   <g id="line2d_57">
    <path clip-path="url(#p796229229a)" d="M 0 0
" style="fill:none;stroke:#424242;stroke-linecap:square;stroke-width:2.7;"/>
   </g>
   <g id="line2d_58">
    <path clip-path="url(#p796229229a)" d="M 0 0
" style="fill:none;stroke:#424242;stroke-linecap:square;stroke-width:2.7;"/>
   </g>
   <g id="line2d_59">
    <path clip-path="url(#p796229229a)" d="M 0 0
" style="fill:none;stroke:#424242;stroke-linecap:square;stroke-width:2.7;"/>
   </g>
   <g id="line2d_60">
    <path clip-path="url(#p796229229a)" d="M 0 0
" style="fill:none;stroke:#424242;stroke-linecap:square;stroke-width:2.7;"/>
   </g>
   <g id="line2d_61">
    <path clip-path="url(#p796229229a)" d="M 0 0
" style="fill:none;stroke:#424242;stroke-linecap:square;stroke-width:2.7;"/>
   </g>
   <g id="line2d_62">
    <path clip-path="url(#p796229229a)" d="M 0 0
" style="fill:none;stroke:#424242;stroke-linecap:square;stroke-width:2.7;"/>
   </g>
   <g id="line2d_63">
    <path clip-path="url(#p796229229a)" d="M 0 0
" style="fill:none;stroke:#424242;stroke-linecap:square;stroke-width:2.7;"/>
   </g>
   <g id="line2d_64">
    <path clip-path="url(#p796229229a)" d="M 0 0
" style="fill:none;stroke:#424242;stroke-linecap:square;stroke-width:2.7;"/>
   </g>
   <g id="line2d_65">
    <path clip-path="url(#p796229229a)" d="M 0 0
" style="fill:none;stroke:#424242;stroke-linecap:square;stroke-width:2.7;"/>
   </g>
   <g id="line2d_66">
    <path clip-path="url(#p796229229a)" d="M 0 0
" style="fill:none;stroke:#424242;stroke-linecap:square;stroke-width:2.7;"/>
   </g>
   <g id="line2d_67">
    <path clip-path="url(#p796229229a)" d="M 0 0
" style="fill:none;stroke:#424242;stroke-linecap:square;stroke-width:2.7;"/>
   </g>
   <g id="line2d_68">
    <path clip-path="url(#p796229229a)" d="M 0 0
" style="fill:none;stroke:#424242;stroke-linecap:square;stroke-width:2.7;"/>
   </g>
   <g id="patch_43">
    <path d="M 80.104062 234.077812
L 80.104062 16.637812
" style="fill:none;stroke:#000000;stroke-linecap:square;stroke-linejoin:miter;stroke-width:0.8;"/>
   </g>
   <g id="patch_44">
    <path d="M 414.904063 234.077812
L 414.904063 16.637812
" style="fill:none;stroke:#000000;stroke-linecap:square;stroke-linejoin:miter;stroke-width:0.8;"/>
   </g>
   <g id="patch_45">
    <path d="M 80.104062 234.077812
L 414.904063 234.077812
" style="fill:none;stroke:#000000;stroke-linecap:square;stroke-linejoin:miter;stroke-width:0.8;"/>
   </g>
   <g id="patch_46">
    <path d="M 80.104062 16.637812
L 414.904063 16.637812
" style="fill:none;stroke:#000000;stroke-linecap:square;stroke-linejoin:miter;stroke-width:0.8;"/>
   </g>
   <g id="text_31">
    <!-- Weight distribution for LV61 -->
    <defs>
     <path d="M 45.40625 46.390625
L 45.40625 75.984375
L 54.390625 75.984375
L 54.390625 0
L 45.40625 0
L 45.40625 8.203125
Q 42.578125 3.328125 38.25 0.953125
Q 33.9375 -1.421875 27.875 -1.421875
Q 17.96875 -1.421875 11.734375 6.484375
Q 5.515625 14.40625 5.515625 27.296875
Q 5.515625 40.1875 11.734375 48.09375
Q 17.96875 56 27.875 56
Q 33.9375 56 38.25 53.625
Q 42.578125 51.265625 45.40625 46.390625
z
M 14.796875 27.296875
Q 14.796875 17.390625 18.875 11.75
Q 22.953125 6.109375 30.078125 6.109375
Q 37.203125 6.109375 41.296875 11.75
Q 45.40625 17.390625 45.40625 27.296875
Q 45.40625 37.203125 41.296875 42.84375
Q 37.203125 48.484375 30.078125 48.484375
Q 22.953125 48.484375 18.875 42.84375
Q 14.796875 37.203125 14.796875 27.296875
z
" id="DejaVuSans-100"/>
     <path d="M 41.109375 46.296875
Q 39.59375 47.171875 37.8125 47.578125
Q 36.03125 48 33.890625 48
Q 26.265625 48 22.1875 43.046875
Q 18.109375 38.09375 18.109375 28.8125
L 18.109375 0
L 9.078125 0
L 9.078125 54.6875
L 18.109375 54.6875
L 18.109375 46.1875
Q 20.953125 51.171875 25.484375 53.578125
Q 30.03125 56 36.53125 56
Q 37.453125 56 38.578125 55.875
Q 39.703125 55.765625 41.0625 55.515625
z
" id="DejaVuSans-114"/>
     <path d="M 8.5 21.578125
L 8.5 54.6875
L 17.484375 54.6875
L 17.484375 21.921875
Q 17.484375 14.15625 20.5 10.265625
Q 23.53125 6.390625 29.59375 6.390625
Q 36.859375 6.390625 41.078125 11.03125
Q 45.3125 15.671875 45.3125 23.6875
L 45.3125 54.6875
L 54.296875 54.6875
L 54.296875 0
L 45.3125 0
L 45.3125 8.40625
Q 42.046875 3.421875 37.71875 1
Q 33.40625 -1.421875 27.6875 -1.421875
Q 18.265625 -1.421875 13.375 4.4375
Q 8.5 10.296875 8.5 21.578125
z
M 31.109375 56
z
" id="DejaVuSans-117"/>
     <path d="M 37.109375 75.984375
L 37.109375 68.5
L 28.515625 68.5
Q 23.6875 68.5 21.796875 66.546875
Q 19.921875 64.59375 19.921875 59.515625
L 19.921875 54.6875
L 34.71875 54.6875
L 34.71875 47.703125
L 19.921875 47.703125
L 19.921875 0
L 10.890625 0
L 10.890625 47.703125
L 2.296875 47.703125
L 2.296875 54.6875
L 10.890625 54.6875
L 10.890625 58.5
Q 10.890625 67.625 15.140625 71.796875
Q 19.390625 75.984375 28.609375 75.984375
z
" id="DejaVuSans-102"/>
     <path d="M 9.8125 72.90625
L 19.671875 72.90625
L 19.671875 8.296875
L 55.171875 8.296875
L 55.171875 0
L 9.8125 0
z
" id="DejaVuSans-76"/>
     <path d="M 28.609375 0
L 0.78125 72.90625
L 11.078125 72.90625
L 34.1875 11.53125
L 57.328125 72.90625
L 67.578125 72.90625
L 39.796875 0
z
" id="DejaVuSans-86"/>
    </defs>
    <g transform="translate(148.938594 10.637812)scale(0.14 -0.14)">
     <use xlink:href="#DejaVuSans-87"/>
     <use x="98.798828" xlink:href="#DejaVuSans-101"/>
     <use x="160.322266" xlink:href="#DejaVuSans-105"/>
     <use x="188.105469" xlink:href="#DejaVuSans-103"/>
     <use x="251.582031" xlink:href="#DejaVuSans-104"/>
     <use x="314.960938" xlink:href="#DejaVuSans-116"/>
     <use x="354.169922" xlink:href="#DejaVuSans-32"/>
     <use x="385.957031" xlink:href="#DejaVuSans-100"/>
     <use x="449.433594" xlink:href="#DejaVuSans-105"/>
     <use x="477.216797" xlink:href="#DejaVuSans-115"/>
     <use x="529.316406" xlink:href="#DejaVuSans-116"/>
     <use x="568.525391" xlink:href="#DejaVuSans-114"/>
     <use x="609.638672" xlink:href="#DejaVuSans-105"/>
     <use x="637.421875" xlink:href="#DejaVuSans-98"/>
     <use x="700.898438" xlink:href="#DejaVuSans-117"/>
     <use x="764.277344" xlink:href="#DejaVuSans-116"/>
     <use x="803.486328" xlink:href="#DejaVuSans-105"/>
     <use x="831.269531" xlink:href="#DejaVuSans-111"/>
     <use x="892.451172" xlink:href="#DejaVuSans-110"/>
     <use x="955.830078" xlink:href="#DejaVuSans-32"/>
     <use x="987.617188" xlink:href="#DejaVuSans-102"/>
     <use x="1022.822266" xlink:href="#DejaVuSans-111"/>
     <use x="1084.003906" xlink:href="#DejaVuSans-114"/>
     <use x="1125.117188" xlink:href="#DejaVuSans-32"/>
     <use x="1156.904297" xlink:href="#DejaVuSans-76"/>
     <use x="1212.445312" xlink:href="#DejaVuSans-86"/>
     <use x="1280.853516" xlink:href="#DejaVuSans-54"/>
     <use x="1344.476562" xlink:href="#DejaVuSans-49"/>
    </g>
   </g>
   <g id="legend_1">
    <g id="patch_47">
     <path d="M 330.865 229.077812
L 407.904063 229.077812
Q 409.904063 229.077812 409.904063 227.077812
L 409.904063 198.721563
Q 409.904063 196.721563 407.904063 196.721563
L 330.865 196.721563
Q 328.865 196.721563 328.865 198.721563
L 328.865 227.077812
Q 328.865 229.077812 330.865 229.077812
z
" style="fill:#ffffff;opacity:0.8;stroke:#cccccc;stroke-linejoin:miter;"/>
    </g>
    <g id="patch_48">
     <path d="M 332.865 208.32
L 352.865 208.32
L 352.865 201.32
L 332.865 201.32
z
" style="fill:#7b4d85;"/>
    </g>
    <g id="text_32">
     <!-- Common -->
     <defs>
      <path d="M 64.40625 67.28125
L 64.40625 56.890625
Q 59.421875 61.53125 53.78125 63.8125
Q 48.140625 66.109375 41.796875 66.109375
Q 29.296875 66.109375 22.65625 58.46875
Q 16.015625 50.828125 16.015625 36.375
Q 16.015625 21.96875 22.65625 14.328125
Q 29.296875 6.6875 41.796875 6.6875
Q 48.140625 6.6875 53.78125 8.984375
Q 59.421875 11.28125 64.40625 15.921875
L 64.40625 5.609375
Q 59.234375 2.09375 53.4375 0.328125
Q 47.65625 -1.421875 41.21875 -1.421875
Q 24.65625 -1.421875 15.125 8.703125
Q 5.609375 18.84375 5.609375 36.375
Q 5.609375 53.953125 15.125 64.078125
Q 24.65625 74.21875 41.21875 74.21875
Q 47.75 74.21875 53.53125 72.484375
Q 59.328125 70.75 64.40625 67.28125
z
" id="DejaVuSans-67"/>
     </defs>
     <g transform="translate(360.865 208.32)scale(0.1 -0.1)">
      <use xlink:href="#DejaVuSans-67"/>
      <use x="69.824219" xlink:href="#DejaVuSans-111"/>
      <use x="131.005859" xlink:href="#DejaVuSans-109"/>
      <use x="228.417969" xlink:href="#DejaVuSans-109"/>
      <use x="325.830078" xlink:href="#DejaVuSans-111"/>
      <use x="387.011719" xlink:href="#DejaVuSans-110"/>
     </g>
    </g>
    <g id="patch_49">
     <path d="M 332.865 222.998125
L 352.865 222.998125
L 352.865 215.998125
L 332.865 215.998125
z
" style="fill:#d3d3d3;"/>
    </g>
    <g id="text_33">
     <!-- Other -->
     <defs>
      <path d="M 39.40625 66.21875
Q 28.65625 66.21875 22.328125 58.203125
Q 16.015625 50.203125 16.015625 36.375
Q 16.015625 22.609375 22.328125 14.59375
Q 28.65625 6.59375 39.40625 6.59375
Q 50.140625 6.59375 56.421875 14.59375
Q 62.703125 22.609375 62.703125 36.375
Q 62.703125 50.203125 56.421875 58.203125
Q 50.140625 66.21875 39.40625 66.21875
z
M 39.40625 74.21875
Q 54.734375 74.21875 63.90625 63.9375
Q 73.09375 53.65625 73.09375 36.375
Q 73.09375 19.140625 63.90625 8.859375
Q 54.734375 -1.421875 39.40625 -1.421875
Q 24.03125 -1.421875 14.8125 8.828125
Q 5.609375 19.09375 5.609375 36.375
Q 5.609375 53.65625 14.8125 63.9375
Q 24.03125 74.21875 39.40625 74.21875
z
" id="DejaVuSans-79"/>
     </defs>
     <g transform="translate(360.865 222.998125)scale(0.1 -0.1)">
      <use xlink:href="#DejaVuSans-79"/>
      <use x="78.710938" xlink:href="#DejaVuSans-116"/>
      <use x="117.919922" xlink:href="#DejaVuSans-104"/>
      <use x="181.298828" xlink:href="#DejaVuSans-101"/>
      <use x="242.822266" xlink:href="#DejaVuSans-114"/>
     </g>
    </g>
   </g>
  </g>
 </g>
 <defs>
  <clipPath id="p796229229a">
   <rect height="217.44" width="334.8" x="80.104062" y="16.637812"/>
  </clipPath>
 </defs>
</svg>
