<?xml version="1.0" encoding="UTF-8" standalone="no"?>
<!-- Created with Inkscape (http://www.inkscape.org/) -->

<svg
   xmlns:dc="http://purl.org/dc/elements/1.1/"
   xmlns:cc="http://creativecommons.org/ns#"
   xmlns:rdf="http://www.w3.org/1999/02/22-rdf-syntax-ns#"
   xmlns:svg="http://www.w3.org/2000/svg"
   xmlns="http://www.w3.org/2000/svg"
   xmlns:sodipodi="http://sodipodi.sourceforge.net/DTD/sodipodi-0.dtd"
   xmlns:inkscape="http://www.inkscape.org/namespaces/inkscape"
   version="1.1"
   id="svg815"
   xml:space="preserve"
   width="816"
   height="1056"
   viewBox="0 0 816 1056"
   sodipodi:docname="Fig-5A.svg"
   inkscape:version="0.92.4 (5da689c313, 2019-01-14)"><metadata
     id="metadata821"><rdf:RDF><cc:Work
         rdf:about=""><dc:format>image/svg+xml</dc:format><dc:type
           rdf:resource="http://purl.org/dc/dcmitype/StillImage" /><dc:title></dc:title></cc:Work></rdf:RDF></metadata><defs
     id="defs819"><clipPath
       clipPathUnits="userSpaceOnUse"
       id="clipPath831"><path
         d="M 0,792 H 612 V 0 H 0 Z"
         id="path829"
         inkscape:connector-curvature="0" /></clipPath><clipPath
       clipPathUnits="userSpaceOnUse"
       id="clipPath839"><path
         d="M 157.187,525.951 H 285.683 V 510.943 H 157.187 Z"
         id="path837"
         inkscape:connector-curvature="0" /></clipPath><clipPath
       clipPathUnits="userSpaceOnUse"
       id="clipPath859"><path
         d="m 162.813,624.647 h 111.73 V 609.64 h -111.73 z"
         id="path857"
         inkscape:connector-curvature="0" /></clipPath><clipPath
       clipPathUnits="userSpaceOnUse"
       id="clipPath899"><path
         d="M 0,792 H 612 V 0 H 0 Z"
         id="path897"
         inkscape:connector-curvature="0" /></clipPath><clipPath
       clipPathUnits="userSpaceOnUse"
       id="clipPath925"><path
         d="M 0,792 H 612 V 0 H 0 Z"
         id="path923"
         inkscape:connector-curvature="0" /></clipPath><clipPath
       clipPathUnits="userSpaceOnUse"
       id="clipPath941"><path
         d="M 0,792 H 612 V 0 H 0 Z"
         id="path939"
         inkscape:connector-curvature="0" /></clipPath><clipPath
       clipPathUnits="userSpaceOnUse"
       id="clipPath983"><path
         d="M 0,792 H 612 V 0 H 0 Z"
         id="path981"
         inkscape:connector-curvature="0" /></clipPath><clipPath
       clipPathUnits="userSpaceOnUse"
       id="clipPath1011"><path
         d="M 0,792 H 612 V 0 H 0 Z"
         id="path1009"
         inkscape:connector-curvature="0" /></clipPath><clipPath
       clipPathUnits="userSpaceOnUse"
       id="clipPath1065"><path
         d="M 0,792 H 612 V 0 H 0 Z"
         id="path1063"
         inkscape:connector-curvature="0" /></clipPath><clipPath
       clipPathUnits="userSpaceOnUse"
       id="clipPath1095"><path
         d="M 0,792 H 612 V 0 H 0 Z"
         id="path1093"
         inkscape:connector-curvature="0" /></clipPath></defs><sodipodi:namedview
     pagecolor="#ffffff"
     bordercolor="#666666"
     borderopacity="1"
     objecttolerance="10"
     gridtolerance="10"
     guidetolerance="10"
     inkscape:pageopacity="0"
     inkscape:pageshadow="2"
     inkscape:window-width="1920"
     inkscape:window-height="1001"
     id="namedview817"
     showgrid="false"
     inkscape:zoom="0.76515152"
     inkscape:cx="408"
     inkscape:cy="528"
     inkscape:window-x="-9"
     inkscape:window-y="-9"
     inkscape:window-maximized="1"
     inkscape:current-layer="g823" /><g
     id="g823"
     inkscape:groupmode="layer"
     inkscape:label="09.28.22_cbrAB_simpler_arg_model_v2"
     transform="matrix(1.3333333,0,0,-1.3333333,0,1056)"><g
       id="g825"
       transform="matrix(1.9210021,0,0,1.9210021,-30.21185,-701.98402)"><g
         id="g827"
         clip-path="url(#clipPath831)"><g
           id="g833"><g
             id="g835" /><g
             id="g851"><g
               clip-path="url(#clipPath839)"
               id="g849"
               style="opacity:0.380005"><g
                 transform="translate(282.1738,511.4429)"
                 id="g843"><path
                   d="m 0,0 h -121.478 c -1.661,0 -3.008,1.347 -3.008,3.009 v 7.99 c 0,1.662 1.347,3.009 3.008,3.009 L 0,14.008 c 1.662,0 3.009,-1.347 3.009,-3.009 V 3.009 C 3.009,1.347 1.662,0 0,0"
                   style="fill:#f7cd3e;fill-opacity:1;fill-rule:nonzero;stroke:none"
                   id="path841"
                   inkscape:connector-curvature="0" /></g><g
                 transform="translate(282.1738,511.4429)"
                 id="g847"><path
                   d="m 0,0 h -121.478 c -1.661,0 -3.008,1.347 -3.008,3.009 v 7.99 c 0,1.662 1.347,3.009 3.008,3.009 L 0,14.008 c 1.662,0 3.009,-1.347 3.009,-3.009 V 3.009 C 3.009,1.347 1.662,0 0,0 Z"
                   style="fill:none;stroke:#231f20;stroke-width:1;stroke-linecap:butt;stroke-linejoin:miter;stroke-miterlimit:10;stroke-dasharray:none;stroke-opacity:1"
                   id="path845"
                   inkscape:connector-curvature="0" /></g></g></g></g><g
           id="g853"><g
             id="g855" /><g
             id="g871"><g
               clip-path="url(#clipPath859)"
               id="g869"
               style="opacity:0.66000402"><g
                 transform="translate(271.2393,610.1396)"
                 id="g863"><path
                   d="m 0,0 h -105.122 c -1.548,0 -2.804,1.255 -2.804,2.804 v 8.4 c 0,1.548 1.256,2.804 2.804,2.804 L 0,14.008 c 1.549,0 2.804,-1.256 2.804,-2.804 v -8.4 C 2.804,1.255 1.549,0 0,0"
                   style="fill:#f4a7b1;fill-opacity:1;fill-rule:nonzero;stroke:none"
                   id="path861"
                   inkscape:connector-curvature="0" /></g><g
                 transform="translate(271.2393,610.1396)"
                 id="g867"><path
                   d="m 0,0 h -105.122 c -1.548,0 -2.804,1.255 -2.804,2.804 v 8.4 c 0,1.548 1.256,2.804 2.804,2.804 L 0,14.008 c 1.549,0 2.804,-1.256 2.804,-2.804 v -8.4 C 2.804,1.255 1.549,0 0,0 Z"
                   style="fill:none;stroke:#ed1c24;stroke-width:1;stroke-linecap:butt;stroke-linejoin:miter;stroke-miterlimit:10;stroke-dasharray:none;stroke-opacity:1"
                   id="path865"
                   inkscape:connector-curvature="0" /></g></g></g></g><g
           id="g873"
           transform="translate(258.6377,733.0239)"><path
             d="m 0,0 c 0,-15.835 -19.663,-28.672 -43.919,-28.672 -24.255,0 -43.918,12.837 -43.918,28.672 0,15.835 19.663,28.672 43.918,28.672 C -19.663,28.672 0,15.835 0,0"
             style="fill:#deddde;fill-opacity:1;fill-rule:nonzero;stroke:none"
             id="path875"
             inkscape:connector-curvature="0" /></g><g
           id="g877"
           transform="translate(258.6377,733.0239)"><path
             d="m 0,0 c 0,-15.835 -19.663,-28.672 -43.919,-28.672 -24.255,0 -43.918,12.837 -43.918,28.672 0,15.835 19.663,28.672 43.918,28.672 C -19.663,28.672 0,15.835 0,0 Z"
             style="fill:none;stroke:#231f20;stroke-width:1;stroke-linecap:butt;stroke-linejoin:miter;stroke-miterlimit:10;stroke-dasharray:none;stroke-opacity:1"
             id="path879"
             inkscape:connector-curvature="0" /></g><g
           id="g881"
           transform="translate(241.7681,628.9839)"><path
             d="m 0,0 h -51.396 c -5.706,0 -10.331,4.625 -10.331,10.33 v 20.502 c 0,5.705 4.625,10.33 10.331,10.33 H 0 c 5.705,0 10.33,-4.625 10.33,-10.33 V 10.33 C 10.33,4.625 5.705,0 0,0"
             style="fill:#f4a7b1;fill-opacity:1;fill-rule:nonzero;stroke:none"
             id="path883"
             inkscape:connector-curvature="0" /></g><g
           id="g885"
           transform="translate(241.7681,628.9839)"><path
             d="m 0,0 h -51.396 c -5.706,0 -10.331,4.625 -10.331,10.33 v 20.502 c 0,5.705 4.625,10.33 10.331,10.33 H 0 c 5.705,0 10.33,-4.625 10.33,-10.33 V 10.33 C 10.33,4.625 5.705,0 0,0 Z"
             style="fill:none;stroke:#ed1c24;stroke-width:1;stroke-linecap:butt;stroke-linejoin:miter;stroke-miterlimit:10;stroke-dasharray:none;stroke-opacity:1"
             id="path887"
             inkscape:connector-curvature="0" /></g></g></g><text
       transform="scale(1,-1)"
       style="font-variant:normal;font-weight:normal;font-stretch:normal;font-size:38.42004013px;font-family:Verdana;-inkscape-font-specification:Verdana;writing-mode:lr-tb;fill:#ed1c24;fill-opacity:1;fill-rule:nonzero;stroke:none;stroke-width:1.92100215"
       id="text891"
       x="336.4744"
       y="-532.93695"><tspan
         x="336.4744 363.2916 387.22729 403.63263"
         y="-532.93695"
         sodipodi:role="line"
         id="tspan889"
         style="stroke-width:1.92100215">CbrB</tspan></text>
<g
       id="g893"
       transform="matrix(1.9210021,0,0,1.9210021,-30.21185,-701.98402)"><g
         id="g895"
         clip-path="url(#clipPath899)"><g
           id="g901"
           transform="translate(214.4248,701.7651)"><path
             d="M 0,0 V -20.304"
             style="fill:none;stroke:#231f20;stroke-width:2;stroke-linecap:butt;stroke-linejoin:miter;stroke-miterlimit:10;stroke-dasharray:none;stroke-opacity:1"
             id="path903"
             inkscape:connector-curvature="0" /></g><g
           id="g905"
           transform="translate(214.4248,674.46)"><path
             d="M 0,0 C -1.222,3.294 -3.308,7.381 -5.517,9.915 L 0,7.92 5.516,9.915 C 3.307,7.381 1.221,3.294 0,0"
             style="fill:#231f20;fill-opacity:1;fill-rule:nonzero;stroke:none"
             id="path907"
             inkscape:connector-curvature="0" /></g></g></g><text
       transform="scale(1,-1)"
       style="font-variant:normal;font-weight:normal;font-stretch:normal;font-size:38.42004013px;font-family:Verdana;-inkscape-font-specification:Verdana;writing-mode:lr-tb;fill:#231f20;fill-opacity:1;fill-rule:nonzero;stroke:none;stroke-width:1.92100215"
       id="text911"
       x="336.90683"
       y="-713.43048"><tspan
         x="336.90683 363.72403 387.6597 404.06506"
         y="-713.43048"
         sodipodi:role="line"
         id="tspan909"
         style="stroke-width:1.92100215">CbrA</tspan></text>
<text
       transform="scale(1,-1)"
       style="font-variant:normal;font-weight:normal;font-stretch:normal;font-size:19.21002007px;font-family:Verdana;-inkscape-font-specification:Verdana;writing-mode:lr-tb;fill:#211d1d;fill-opacity:1;fill-rule:nonzero;stroke:none;stroke-width:1.92100215"
       id="text917"
       x="306.35657"
       y="-690.37848"><tspan
         x="306.35657 315.07791 328.21756 339.66672 351.82666 361.83508 373.49557 381.69824 388.46017 401.77274 407.03629 419.19623 430.74142 440.74985 452.19904"
         y="-690.37848"
         sodipodi:role="line"
         id="tspan913"
         style="stroke-width:1.92100215">(Sensor Kinase)</tspan><tspan
         x="285.7634 294.48477 304.44901 312.30783 323.85303 336.01297 346.02139 356.02982 364.23251 369.49606 381.4639 389.03262 394.29617 405.95667 418.11661 424.87854 434.96954 446.51477 456.52319 464.09195 475.75244 483.95511"
         y="-477.0704"
         sodipodi:role="line"
         id="tspan915"
         style="stroke-width:1.92100215">(Transcription Factor)</tspan></text>
<g
       id="g919"
       transform="matrix(1.9210021,0,0,1.9210021,-30.21185,-701.98402)"><g
         id="g921"
         clip-path="url(#clipPath925)"><g
           id="g927"
           transform="translate(151.7324,627.9185)"><path
             d="M 0,0 H 127.925"
             style="fill:none;stroke:#231f20;stroke-width:1;stroke-linecap:butt;stroke-linejoin:miter;stroke-miterlimit:10;stroke-dasharray:none;stroke-opacity:1"
             id="path929"
             inkscape:connector-curvature="0" /></g></g></g><text
       transform="scale(1,-1)"
       style="font-variant:normal;font-weight:normal;font-stretch:normal;font-size:19.21002007px;font-family:Verdana;-inkscape-font-specification:Verdana;writing-mode:lr-tb;fill:#231f20;fill-opacity:1;fill-rule:nonzero;stroke:none;stroke-width:1.92100215"
       id="text933"
       x="262.79532"
       y="-513.0058"><tspan
         x="262.79532 277.60626 291.97534"
         y="-513.0058"
         sodipodi:role="line"
         id="tspan931"
         style="stroke-width:1.92100215">DNA</tspan></text>
<g
       id="g935"
       transform="matrix(1.9210021,0,0,1.9210021,-30.21185,-701.98402)"><g
         id="g937"
         clip-path="url(#clipPath941)"><g
           id="g943"
           transform="translate(214.4248,603.5728)"><path
             d="M 0,0 V -4"
             style="fill:none;stroke:#231f20;stroke-width:2;stroke-linecap:butt;stroke-linejoin:miter;stroke-miterlimit:10;stroke-dasharray:none;stroke-opacity:1"
             id="path945"
             inkscape:connector-curvature="0" /></g><g
           id="g947"
           transform="translate(214.4248,593.8125)"><path
             d="M 0,0 V -8.641"
             style="fill:none;stroke:#231f20;stroke-width:2;stroke-linecap:butt;stroke-linejoin:miter;stroke-miterlimit:10;stroke-dasharray:5.76, 5.76;stroke-dashoffset:0;stroke-opacity:1"
             id="path949"
             inkscape:connector-curvature="0" /></g><g
           id="g951"
           transform="translate(214.4248,582.292)"><path
             d="M 0,0 V -4"
             style="fill:none;stroke:#231f20;stroke-width:2;stroke-linecap:butt;stroke-linejoin:miter;stroke-miterlimit:10;stroke-dasharray:none;stroke-opacity:1"
             id="path953"
             inkscape:connector-curvature="0" /></g><path
           d="m 209.42,579.062 h 10.01 v -1.54 h -10.01 z"
           style="fill:#231f20;fill-opacity:1;fill-rule:nonzero;stroke:none"
           id="path955"
           inkscape:connector-curvature="0" /><g
           id="g957"
           transform="translate(178.3135,550.2109)"><path
             d="m 0,0 c 5.509,-3.606 12.716,-4.491 18.962,-2.435 3.311,1.09 6.302,2.905 9.332,4.586 3.188,1.768 6.453,3.232 10.061,3.886 7.27,1.319 14.603,-0.291 20.762,-4.301 3,-1.953 5.852,-4.093 9.192,-5.451 3.146,-1.28 6.509,-1.933 9.89,-2.165 8.075,-0.554 16.152,1.185 23.972,2.991 0.784,0.181 0.452,1.387 -0.332,1.205 C 94.84,-3.3 87.706,-4.831 80.486,-4.724 76.987,-4.672 73.485,-4.207 70.163,-3.078 66.663,-1.89 63.698,0.175 60.656,2.215 55.012,5.998 48.737,8.052 41.893,7.695 38.62,7.524 35.381,6.83 32.356,5.563 29.129,4.213 26.188,2.31 23.09,0.704 19.481,-1.165 15.705,-2.354 11.606,-2.263 7.714,-2.177 3.892,-1.055 0.631,1.08 -0.044,1.521 -0.671,0.439 0,0"
             style="fill:#4f4c4d;fill-opacity:1;fill-rule:nonzero;stroke:none"
             id="path959"
             inkscape:connector-curvature="0" /></g><g
           id="g961"
           transform="translate(232.27,551.0894)"><path
             d="m 0,0 c 0,-9.425 -7.64,-17.065 -17.065,-17.065 -9.425,0 -17.066,7.64 -17.066,17.065 0,9.425 7.641,17.065 17.066,17.065 C -7.64,17.065 0,9.425 0,0"
             style="fill:#f7cd3e;fill-opacity:1;fill-rule:nonzero;stroke:none"
             id="path963"
             inkscape:connector-curvature="0" /></g><g
           id="g965"
           transform="translate(232.27,551.0894)"><path
             d="m 0,0 c 0,-9.425 -7.64,-17.065 -17.065,-17.065 -9.425,0 -17.066,7.64 -17.066,17.065 0,9.425 7.641,17.065 17.066,17.065 C -7.64,17.065 0,9.425 0,0 Z"
             style="fill:none;stroke:#231f20;stroke-width:1;stroke-linecap:butt;stroke-linejoin:miter;stroke-miterlimit:10;stroke-dasharray:none;stroke-opacity:1"
             id="path967"
             inkscape:connector-curvature="0" /></g></g></g><text
       transform="scale(1,-1)"
       style="font-variant:normal;font-weight:normal;font-stretch:normal;font-size:38.42004013px;font-family:Verdana;-inkscape-font-specification:Verdana;writing-mode:lr-tb;fill:#231f20;fill-opacity:1;fill-rule:nonzero;stroke:none;stroke-width:1.92100215"
       id="text971"
       x="348.85315"
       y="-345.68634"><tspan
         x="348.85315 375.67035 392.07571"
         y="-345.68634"
         sodipodi:role="line"
         id="tspan969"
         style="stroke-width:1.92100215">Crc</tspan></text>
<text
       transform="scale(1,-1)"
       style="font-variant:normal;font-weight:normal;font-stretch:normal;font-size:19.21002007px;font-family:Verdana;-inkscape-font-specification:Verdana;writing-mode:lr-tb;fill:#211d1d;fill-opacity:1;fill-rule:nonzero;stroke:none;stroke-width:1.92100215"
       id="text975"
       x="274.98929"
       y="-287.76831"><tspan
         x="274.98929 283.71063 293.67487 301.53369 313.07892 325.23886 335.24728 340.51083 352.05603 359.62479 364.88834 376.54883 388.70877 400.254 405.51752 412.27945 425.1521 436.60126 448.56912 456.77179 468.22095 478.22937 488.23779 499.89828 508.10095"
         y="-287.76831"
         sodipodi:role="line"
         id="tspan973"
         style="stroke-width:1.92100215">(Translational Repressor)</tspan></text>
<g
       id="g977"
       transform="matrix(1.9210021,0,0,1.9210021,-30.21185,-701.98402)"><g
         id="g979"
         clip-path="url(#clipPath983)"><g
           id="g985"
           transform="translate(203.2979,456.0449)"><path
             d="m 0,0 c -0.517,-1.756 -2.359,-2.762 -4.116,-2.246 -1.756,0.517 -2.761,2.359 -2.245,4.116 0.516,1.756 2.359,2.762 4.115,2.246 C -0.489,3.599 0.516,1.757 0,0"
             style="fill:#989697;fill-opacity:1;fill-rule:nonzero;stroke:none"
             id="path987"
             inkscape:connector-curvature="0" /></g><g
           id="g989"
           transform="translate(203.2979,456.0449)"><path
             d="m 0,0 c -0.517,-1.756 -2.359,-2.762 -4.116,-2.246 -1.756,0.517 -2.761,2.359 -2.245,4.116 0.516,1.756 2.359,2.762 4.115,2.246 C -0.489,3.599 0.516,1.757 0,0 Z"
             style="fill:none;stroke:#231f20;stroke-width:0.75;stroke-linecap:butt;stroke-linejoin:miter;stroke-miterlimit:10;stroke-dasharray:none;stroke-opacity:1"
             id="path991"
             inkscape:connector-curvature="0" /></g><g
           id="g993"
           transform="translate(216.6323,468.9419)"><path
             d="m 0,0 c -0.516,-1.756 -2.359,-2.762 -4.115,-2.246 -1.757,0.517 -2.762,2.359 -2.246,4.116 0.516,1.756 2.359,2.762 4.115,2.245 C -0.489,3.599 0.516,1.756 0,0"
             style="fill:#989697;fill-opacity:1;fill-rule:nonzero;stroke:none"
             id="path995"
             inkscape:connector-curvature="0" /></g><g
           id="g997"
           transform="translate(216.6323,468.9419)"><path
             d="m 0,0 c -0.516,-1.756 -2.359,-2.762 -4.115,-2.246 -1.757,0.517 -2.762,2.359 -2.246,4.116 0.516,1.756 2.359,2.762 4.115,2.245 C -0.489,3.599 0.516,1.756 0,0 Z"
             style="fill:none;stroke:#231f20;stroke-width:0.75;stroke-linecap:butt;stroke-linejoin:miter;stroke-miterlimit:10;stroke-dasharray:none;stroke-opacity:1"
             id="path999"
             inkscape:connector-curvature="0" /></g></g></g><text
       transform="scale(1,-1)"
       style="font-variant:normal;font-weight:normal;font-stretch:normal;font-size:19.21002007px;font-family:Verdana;-inkscape-font-specification:Verdana;writing-mode:lr-tb;fill:#231f20;fill-opacity:1;fill-rule:nonzero;stroke:none;stroke-width:1.92100215"
       id="text1003"
       x="260.41098"
       y="-363.03912"><tspan
         x="260.41098 279.10233 292.45331 306.82239"
         y="-363.03912"
         sodipodi:role="line"
         id="tspan1001"
         style="stroke-width:1.92100215">mRNA</tspan></text>
<g
       id="g1005"
       transform="matrix(1.9210021,0,0,1.9210021,-30.21185,-701.98402)"><g
         id="g1007"
         clip-path="url(#clipPath1011)"><g
           id="g1013"
           transform="translate(205.2227,462.5952)"><path
             d="m 0,0 c -0.516,-1.756 -2.358,-2.762 -4.115,-2.246 -1.757,0.517 -2.762,2.359 -2.246,4.116 0.516,1.756 2.359,2.761 4.115,2.245 C -0.489,3.599 0.517,1.756 0,0"
             style="fill:#989697;fill-opacity:1;fill-rule:nonzero;stroke:none"
             id="path1015"
             inkscape:connector-curvature="0" /></g><g
           id="g1017"
           transform="translate(205.2227,462.5952)"><path
             d="m 0,0 c -0.516,-1.756 -2.358,-2.762 -4.115,-2.246 -1.757,0.517 -2.762,2.359 -2.246,4.116 0.516,1.756 2.359,2.761 4.115,2.245 C -0.489,3.599 0.517,1.756 0,0 Z"
             style="fill:none;stroke:#231f20;stroke-width:0.75;stroke-linecap:butt;stroke-linejoin:miter;stroke-miterlimit:10;stroke-dasharray:none;stroke-opacity:1"
             id="path1019"
             inkscape:connector-curvature="0" /></g><g
           id="g1021"
           transform="translate(210.0928,467.4087)"><path
             d="m 0,0 c -0.516,-1.756 -2.359,-2.762 -4.115,-2.246 -1.757,0.517 -2.762,2.359 -2.246,4.116 0.516,1.756 2.359,2.761 4.115,2.245 C -0.489,3.599 0.516,1.756 0,0"
             style="fill:#989697;fill-opacity:1;fill-rule:nonzero;stroke:none"
             id="path1023"
             inkscape:connector-curvature="0" /></g><g
           id="g1025"
           transform="translate(210.0928,467.4087)"><path
             d="m 0,0 c -0.516,-1.756 -2.359,-2.762 -4.115,-2.246 -1.757,0.517 -2.762,2.359 -2.246,4.116 0.516,1.756 2.359,2.761 4.115,2.245 C -0.489,3.599 0.516,1.756 0,0 Z"
             style="fill:none;stroke:#231f20;stroke-width:0.75;stroke-linecap:butt;stroke-linejoin:miter;stroke-miterlimit:10;stroke-dasharray:none;stroke-opacity:1"
             id="path1027"
             inkscape:connector-curvature="0" /></g><g
           id="g1029"
           transform="translate(177.3442,441.6997)"><path
             d="m 0,0 c 2.159,2.802 5.355,4.468 8.47,5.971 9.436,4.552 20.27,8.475 29.774,4.665 2.099,-0.842 4.161,-2.16 5.123,-4.281 0.479,-1.056 0.653,-2.241 0.764,-3.414 0.352,-3.723 0.131,-7.523 -0.654,-11.209 -0.502,-2.355 -1.478,-4.955 -3.624,-5.868 -1.526,-0.649 -3.222,-0.251 -4.822,0.031 C 23.132,-12.009 15.253,-18.461 4.369,-20.302 -7.034,-22.231 -5.789,-7.513 0,0"
             style="fill:#deddde;fill-opacity:1;fill-rule:nonzero;stroke:none"
             id="path1031"
             inkscape:connector-curvature="0" /></g><g
           id="g1033"
           transform="translate(177.3442,441.6997)"><path
             d="m 0,0 c 2.159,2.802 5.355,4.468 8.47,5.971 9.436,4.552 20.27,8.475 29.774,4.665 2.099,-0.842 4.161,-2.16 5.123,-4.281 0.479,-1.056 0.653,-2.241 0.764,-3.414 0.352,-3.723 0.131,-7.523 -0.654,-11.209 -0.502,-2.355 -1.478,-4.955 -3.624,-5.868 -1.526,-0.649 -3.222,-0.251 -4.822,0.031 C 23.132,-12.009 15.253,-18.461 4.369,-20.302 -7.034,-22.231 -5.789,-7.513 0,0 Z"
             style="fill:none;stroke:#231f20;stroke-width:1;stroke-linecap:butt;stroke-linejoin:miter;stroke-miterlimit:10;stroke-dasharray:none;stroke-opacity:1"
             id="path1035"
             inkscape:connector-curvature="0" /></g><g
           id="g1037"
           transform="translate(179.3452,405.1997)"><path
             d="M 0,0 C 1.482,0.307 2.407,1.573 3.379,2.623 7.532,7.111 14.57,8.68 21.094,8.096 27.617,7.512 33.803,5.077 39.861,2.673 c 4.138,2.181 6.27,7.048 4.964,11.329 -1.307,4.282 -5.939,7.603 -10.782,7.732 -4.432,0.118 -8.394,-2.118 -12.587,-3.312 -4.331,-1.233 -8.97,-1.356 -13.45,-2.09 C 3.238,15.55 -1.672,14.082 -3.793,9.989 -5.107,7.454 -5.52,-1.144 0,0"
             style="fill:#deddde;fill-opacity:1;fill-rule:nonzero;stroke:none"
             id="path1039"
             inkscape:connector-curvature="0" /></g><g
           id="g1041"
           transform="translate(179.3452,405.1997)"><path
             d="M 0,0 C 1.482,0.307 2.407,1.573 3.379,2.623 7.532,7.111 14.57,8.68 21.094,8.096 27.617,7.512 33.803,5.077 39.861,2.673 c 4.138,2.181 6.27,7.048 4.964,11.329 -1.307,4.282 -5.939,7.603 -10.782,7.732 -4.432,0.118 -8.394,-2.118 -12.587,-3.312 -4.331,-1.233 -8.97,-1.356 -13.45,-2.09 C 3.238,15.55 -1.672,14.082 -3.793,9.989 -5.107,7.454 -5.52,-1.144 0,0 Z"
             style="fill:none;stroke:#231f20;stroke-width:1;stroke-linecap:butt;stroke-linejoin:miter;stroke-miterlimit:10;stroke-dasharray:none;stroke-opacity:1"
             id="path1043"
             inkscape:connector-curvature="0" /></g><g
           id="g1045"
           transform="translate(229.874,433.3696)"><path
             d="M 0,0 C 1.574,0.353 2.819,0.215 3.557,0.071 6.134,-0.432 7.808,-2.047 8.803,-3.056"
             style="fill:none;stroke:#231f20;stroke-width:2;stroke-linecap:butt;stroke-linejoin:miter;stroke-miterlimit:10;stroke-dasharray:none;stroke-opacity:1"
             id="path1047"
             inkscape:connector-curvature="0" /></g><g
           id="g1049"
           transform="translate(240.6953,427.7705)"><path
             d="m 0,0 -4.344,2.36 2.135,0.343 0.761,2.024 z"
             style="fill:#231f20;fill-opacity:1;fill-rule:nonzero;stroke:none"
             id="path1051"
             inkscape:connector-curvature="0" /></g></g></g><text
       transform="scale(1,-1)"
       style="font-variant:normal;font-weight:normal;font-stretch:normal;font-size:19.21002007px;font-family:Verdana;-inkscape-font-specification:Verdana;writing-mode:lr-tb;fill:#231f20;fill-opacity:1;fill-rule:nonzero;stroke:none;stroke-width:1.92100215"
       id="text1057"
       x="441.65771"
       y="-352.60117"><tspan
         x="441.65771 455.06631 466.61154 474.1803 485.72552 497.69336 509.35385 514.61737 519.88092 529.88934 548.58069"
         y="-352.60117"
         sodipodi:role="line"
         id="tspan1053"
         style="stroke-width:1.92100215">Catabolism/</tspan><tspan
         x="441.65771 451.61813 459.47885 471.02408 483.18402 493.19244 505.16028 516.8208 525.02344 532.59222 539.35413 551.32196 562.77112 574.93109 586.38025"
         y="-329.54916"
         sodipodi:role="line"
         id="tspan1055"
         style="stroke-width:1.92100215">Transport genes</tspan></text>
<g
       id="g1059"
       transform="matrix(1.9210021,0,0,1.9210021,-30.21185,-701.98402)"><g
         id="g1061"
         clip-path="url(#clipPath1065)"><g
           id="g1067"
           transform="translate(161.6265,420.333)"><path
             d="m 0,0 c 16.2,-1.518 31.788,4.125 47.7,6.001 3.954,0.466 7.944,0.699 11.925,0.517 4.114,-0.188 8.433,-0.684 12.19,-2.483 3.332,-1.596 6.031,-4.142 9.549,-5.415 2.999,-1.085 6.314,-1.496 9.46,-0.866 1.696,0.34 3.343,1.018 4.755,2.024 1.691,1.205 2.937,2.855 4.323,4.374 2.968,3.254 6.795,5.531 11.052,6.64 0.778,0.203 0.448,1.409 -0.332,1.205 -3.386,-0.882 -6.538,-2.469 -9.238,-4.7 C 98.542,4.947 96.65,1.465 93.234,-0.15 90.041,-1.661 86.285,-1.545 82.953,-0.582 79.26,0.484 76.542,2.916 73.233,4.712 69.873,6.536 66.047,7.23 62.279,7.583 58.312,7.956 54.313,7.88 50.348,7.526 42.481,6.825 34.761,5.083 27.024,3.57 18.125,1.829 9.087,0.398 0,1.25 -0.801,1.325 -0.795,0.075 0,0"
             style="fill:#4f4c4d;fill-opacity:1;fill-rule:nonzero;stroke:none"
             id="path1069"
             inkscape:connector-curvature="0" /></g><g
           id="g1071"
           transform="translate(214.4248,503.7119)"><path
             d="M 0,0 V -15.519"
             style="fill:none;stroke:#231f20;stroke-width:2;stroke-linecap:butt;stroke-linejoin:miter;stroke-miterlimit:10;stroke-dasharray:none;stroke-opacity:1"
             id="path1073"
             inkscape:connector-curvature="0" /></g><path
           d="m 209.42,488.963 h 10.01 v -1.54 h -10.01 z"
           style="fill:#231f20;fill-opacity:1;fill-rule:nonzero;stroke:none"
           id="path1075"
           inkscape:connector-curvature="0" /></g></g><text
       transform="scale(1,-1)"
       style="font-variant:normal;font-weight:normal;font-stretch:normal;font-size:19.21002007px;font-family:Verdana;-inkscape-font-specification:Verdana;writing-mode:lr-tb;fill:#231f20;fill-opacity:1;fill-rule:nonzero;stroke:none;stroke-width:1.92100215"
       id="text1081"
       x="392.41611"
       y="-185.34068"><tspan
         x="392.41611 402.3765 410.23724 421.78247 433.94241 443.95084 455.91867 467.57916 475.78183 483.35059 494.79974 503.00244 513.01086 521.73218 533.87292 546.0329 556.11816 567.49048 586.18182 597.63098"
         y="-185.34068"
         sodipodi:role="line"
         id="tspan1077"
         style="stroke-width:1.92100215">Transporters/Enzymes</tspan><tspan
         x="403.71161 412.43295 422.39719 430.25601 441.80124 453.96115 463.9696 469.23312 480.77835 488.34711 493.61066 505.27115 517.43109"
         y="-82.874428"
         sodipodi:role="line"
         id="tspan1079"
         style="stroke-width:1.92100215">(Translation)</tspan></text>
<text
       transform="scale(1,-1)"
       style="font-variant:normal;font-weight:normal;font-stretch:normal;font-size:30.73603439px;font-family:Verdana;-inkscape-font-specification:Verdana;writing-mode:lr-tb;fill:#231f20;fill-opacity:1;fill-rule:nonzero;stroke:none;stroke-width:1.92100215"
       id="text1087"
       x="52.930656"
       y="-354.66281"><tspan
         x="52.930656 73.954102 87.078392 106.22694 114.64861 134.10452 142.5262 161.9821 180.30078"
         y="-354.66281"
         sodipodi:role="line"
         id="tspan1083"
         style="stroke-width:1.92100215">Arginine </tspan><tspan
         x="31.077337 52.53109 71.003448 83.113441 101.5858 120.73435 139.39111 147.81279 156.23447 172.24794"
         y="-317.77957"
         sodipodi:role="line"
         id="tspan1085"
         style="stroke-width:1.92100215">Catabolism</tspan></text>
<g
       id="g1089"
       transform="matrix(1.9210021,0,0,1.9210021,-30.21185,-701.98402)"><g
         id="g1091"
         clip-path="url(#clipPath1095)"><g
           id="g1097"
           transform="translate(76.4287,621.3662)"><path
             d="M 0,0 V -41.492"
             style="fill:none;stroke:#231f20;stroke-width:2;stroke-linecap:butt;stroke-linejoin:miter;stroke-miterlimit:10;stroke-dasharray:none;stroke-opacity:1"
             id="path1099"
             inkscape:connector-curvature="0" /></g><g
           id="g1101"
           transform="translate(76.4287,572.8735)"><path
             d="M 0,0 C -1.222,3.294 -3.308,7.381 -5.517,9.915 L 0,7.919 5.516,9.915 C 3.307,7.381 1.221,3.294 0,0"
             style="fill:#231f20;fill-opacity:1;fill-rule:nonzero;stroke:none"
             id="path1103"
             inkscape:connector-curvature="0" /></g><g
           id="g1105"
           transform="translate(136.7754,621.3662)"><path
             d="M 0,0 H -60.347"
             style="fill:none;stroke:#231f20;stroke-width:2;stroke-linecap:butt;stroke-linejoin:miter;stroke-miterlimit:10;stroke-dasharray:none;stroke-opacity:1"
             id="path1107"
             inkscape:connector-curvature="0" /></g><g
           id="g1109"
           transform="translate(191.4868,463.6475)"><path
             d="M 0,0 H -115.058"
             style="fill:none;stroke:#231f20;stroke-width:2;stroke-linecap:butt;stroke-linejoin:miter;stroke-miterlimit:10;stroke-dasharray:none;stroke-opacity:1"
             id="path1111"
             inkscape:connector-curvature="0" /></g><g
           id="g1113"
           transform="translate(76.4287,463.6475)"><path
             d="M 0,0 V 53.454"
             style="fill:none;stroke:#231f20;stroke-width:2;stroke-linecap:butt;stroke-linejoin:miter;stroke-miterlimit:10;stroke-dasharray:none;stroke-opacity:1"
             id="path1115"
             inkscape:connector-curvature="0" /></g><g
           id="g1117"
           transform="translate(76.4287,524.1021)"><path
             d="M 0,0 C 1.223,-3.294 3.308,-7.381 5.517,-9.915 L 0,-7.919 -5.516,-9.915 C -3.307,-7.381 -1.221,-3.294 0,0"
             style="fill:#231f20;fill-opacity:1;fill-rule:nonzero;stroke:none"
             id="path1119"
             inkscape:connector-curvature="0" /></g></g></g></g></svg>