<?xml version="1.0" encoding="UTF-8" standalone="no"?>
<!-- Created with Inkscape (http://www.inkscape.org/) -->

<svg
   xmlns:dc="http://purl.org/dc/elements/1.1/"
   xmlns:cc="http://creativecommons.org/ns#"
   xmlns:rdf="http://www.w3.org/1999/02/22-rdf-syntax-ns#"
   xmlns:svg="http://www.w3.org/2000/svg"
   xmlns="http://www.w3.org/2000/svg"
   xmlns:sodipodi="http://sodipodi.sourceforge.net/DTD/sodipodi-0.dtd"
   xmlns:inkscape="http://www.inkscape.org/namespaces/inkscape"
   width="210mm"
   height="297mm"
   viewBox="0 0 210 297"
   version="1.1"
   id="svg8"
   inkscape:version="0.92.4 (5da689c313, 2019-01-14)"
   sodipodi:docname="Fig-2C-model power.svg">
  <defs
     id="defs2" />
  <sodipodi:namedview
     id="base"
     pagecolor="#ffffff"
     bordercolor="#666666"
     borderopacity="1.0"
     inkscape:pageopacity="0.0"
     inkscape:pageshadow="2"
     inkscape:zoom="0.35"
     inkscape:cx="-77.142857"
     inkscape:cy="560"
     inkscape:document-units="mm"
     inkscape:current-layer="layer1"
     showgrid="false"
     inkscape:window-width="1920"
     inkscape:window-height="1001"
     inkscape:window-x="-9"
     inkscape:window-y="-9"
     inkscape:window-maximized="1" />
  <metadata
     id="metadata5">
    <rdf:RDF>
      <cc:Work
         rdf:about="">
        <dc:format>image/svg+xml</dc:format>
        <dc:type
           rdf:resource="http://purl.org/dc/dcmitype/StillImage" />
        <dc:title></dc:title>
      </cc:Work>
    </rdf:RDF>
  </metadata>
  <g
     inkscape:label="Layer 1"
     inkscape:groupmode="layer"
     id="layer1">
    <g
       style="fill:none;stroke:none;stroke-linecap:square;stroke-miterlimit:10"
       id="g877"
       transform="matrix(0.37718874,0,0,0.37718874,1.9047619e-6,0.28869143)">
      <g
         id="g859"
         clip-path="url(#ge91f1705ba_0_0.0)">
        <path
           id="path845"
           d="M 0,0 H 960 V 540 H 0 Z"
           inkscape:connector-curvature="0"
           style="fill:#ffffff;fill-rule:evenodd" />
        <path
           id="path847"
           d="M 66.073494,38.62992 H 479.99475 V 476.77167 H 66.073494 Z"
           inkscape:connector-curvature="0"
           style="fill:#eeeeee;fill-rule:evenodd" />
        <path
           id="path849"
           d="M 66.073494,38.62992 H 479.99475 V 476.77167 H 66.073494 Z"
           inkscape:connector-curvature="0"
           style="fill-rule:evenodd;stroke:#595959;stroke-width:1;stroke-linecap:butt;stroke-linejoin:round" />
        <path
           id="path851"
           d="M 18.737534,477.3071 V 40.86615 H 60.753281 V 477.3071 Z"
           inkscape:connector-curvature="0"
           style="fill:#000000;fill-opacity:0;fill-rule:evenodd" />
        <path
           id="path853"
           d="M 45.65753,335.46378 H 32.298155 v -2.65625 l 9.453125,-3.15625 q 1.328125,-0.4375 1.984375,-0.64063 -0.734375,-0.23437 -2.140625,-0.70312 l -9.296875,-3.20313 v -2.375 H 45.65753 v 1.70313 H 34.485655 l 11.171875,3.875 v 1.59375 l -11.375,3.85937 h 11.375 z m -1.1875,-21.69705 q 0.765625,0.92187 1.09375,1.76562 0.3125,0.82813 0.3125,1.79688 0,1.59375 -0.78125,2.45312 -0.78125,0.85938 -1.984375,0.85938 -0.71875,0 -1.296875,-0.32813 -0.59375,-0.32812 -0.9375,-0.84375 -0.359375,-0.53125 -0.546875,-1.1875 -0.125,-0.46875 -0.25,-1.45312 -0.234375,-1.98438 -0.5625,-2.92188 -0.34375,-0.0156 -0.421875,-0.0156 -1,0 -1.421875,0.46875 -0.546875,0.625 -0.546875,1.875 0,1.15625 0.40625,1.70312 0.40625,0.54688 1.421875,0.8125 l -0.21875,1.60938 q -1.015625,-0.21875 -1.640625,-0.71875 -0.640625,-0.5 -0.984375,-1.45313 -0.34375,-0.95312 -0.34375,-2.1875 0,-1.25 0.296875,-2.01562 0.28125,-0.78125 0.734375,-1.14063 0.4375,-0.375 1.109375,-0.51562 0.421875,-0.0781 1.515625,-0.0781 h 2.1875 q 2.28125,0 2.890625,-0.10937 0.59375,-0.10938 1.15625,-0.40625 v 1.70312 q -0.515625,0.26563 -1.1875,0.32813 z m -3.671875,0.14062 q 0.375,0.89063 0.625,2.67188 0.140625,1.01562 0.328125,1.4375 0.1875,0.42187 0.53125,0.65625 0.34375,0.21875 0.78125,0.21875 0.65625,0 1.09375,-0.5 0.4375,-0.5 0.4375,-1.45313 0,-0.9375 -0.40625,-1.67187 -0.421875,-0.75 -1.140625,-1.09375 -0.5625,-0.26563 -1.640625,-0.26563 z m 4.859375,-4.20385 h -9.671875 v -1.46875 h 1.375 q -1.59375,-1.0625 -1.59375,-3.07813 0,-0.875 0.3125,-1.60937 0.3125,-0.73438 0.828125,-1.09375 0.5,-0.375 1.203125,-0.51563 0.453125,-0.0937 1.59375,-0.0937 h 5.953125 v 1.64063 h -5.890625 q -1,0 -1.484375,0.20312 -0.5,0.1875 -0.796875,0.67188 -0.296875,0.48437 -0.296875,1.14062 0,1.04688 0.671875,1.8125 0.65625,0.75 2.515625,0.75 h 5.28125 z m 0,-16.70383 h -1.421875 q 1.640625,1.125 1.640625,3.0625 0,0.85937 -0.328125,1.60937 -0.328125,0.73438 -0.828125,1.09375 -0.5,0.35938 -1.21875,0.5 -0.46875,0.10938 -1.53125,0.10938 h -5.984375 v -1.64063 h 5.359375 q 1.28125,0 1.734375,-0.10937 0.640625,-0.15625 1.015625,-0.65625 0.375,-0.5 0.375,-1.23438 0,-0.73437 -0.375,-1.375 -0.390625,-0.65625 -1.03125,-0.92187 -0.65625,-0.26563 -1.890625,-0.26563 h -5.1875 v -1.64062 h 9.671875 z m -1.1875,-10.36011 q 0.765625,0.92188 1.09375,1.76563 0.3125,0.82812 0.3125,1.79687 0,1.59375 -0.78125,2.45313 -0.78125,0.85937 -1.984375,0.85937 -0.71875,0 -1.296875,-0.32812 -0.59375,-0.32813 -0.9375,-0.84375 -0.359375,-0.53125 -0.546875,-1.1875 -0.125,-0.46875 -0.25,-1.45313 -0.234375,-1.98437 -0.5625,-2.92187 -0.34375,-0.0156 -0.421875,-0.0156 -1,0 -1.421875,0.46875 -0.546875,0.625 -0.546875,1.875 0,1.15625 0.40625,1.70313 0.40625,0.54687 1.421875,0.8125 l -0.21875,1.60937 q -1.015625,-0.21875 -1.640625,-0.71875 -0.640625,-0.5 -0.984375,-1.45312 -0.34375,-0.95313 -0.34375,-2.1875 0,-1.25 0.296875,-2.01563 0.28125,-0.78125 0.734375,-1.14062 0.4375,-0.375 1.109375,-0.51563 0.421875,-0.0781 1.515625,-0.0781 h 2.1875 q 2.28125,0 2.890625,-0.10938 0.59375,-0.10937 1.15625,-0.40625 v 1.70313 q -0.515625,0.26562 -1.1875,0.32812 z m -3.671875,0.14063 q 0.375,0.89062 0.625,2.67187 0.140625,1.01563 0.328125,1.4375 0.1875,0.42188 0.53125,0.65625 0.34375,0.21875 0.78125,0.21875 0.65625,0 1.09375,-0.5 0.4375,-0.5 0.4375,-1.45312 0,-0.9375 -0.40625,-1.67188 -0.421875,-0.75 -1.140625,-1.09375 -0.5625,-0.26562 -1.640625,-0.26562 z m 4.859375,-4.15696 H 32.298155 v -1.64062 H 45.65753 Z m -4.6875,-19.10937 0.453125,-1.76563 q 2.171875,0.5625 3.328125,2 1.140625,1.4375 1.140625,3.53125 0,2.15625 -0.875,3.51563 -0.890625,1.34375 -2.546875,2.0625 -1.671875,0.70312 -3.59375,0.70312 -2.078125,0 -3.625,-0.79687 -1.5625,-0.79688 -2.359375,-2.26563 -0.8125,-1.48437 -0.8125,-3.25 0,-2 1.015625,-3.35937 1.015625,-1.375 2.875,-1.90625 l 0.40625,1.73437 q -1.453125,0.46875 -2.109375,1.35938 -0.671875,0.875 -0.671875,2.20312 0,1.54688 0.734375,2.57813 0.734375,1.03125 1.984375,1.45312 1.234375,0.42188 2.5625,0.42188 1.703125,0 2.96875,-0.5 1.265625,-0.5 1.90625,-1.54688 0.625,-1.04687 0.625,-2.26562 0,-1.48438 -0.859375,-2.51563 -0.859375,-1.03125 -2.546875,-1.39062 z m 4.6875,-3.72296 h -9.671875 v -1.46875 h 1.46875 q -1.03125,-0.5625 -1.359375,-1.03125 -0.328125,-0.48438 -0.328125,-1.0625 0,-0.82813 0.53125,-1.6875 l 1.515625,0.5625 q -0.359375,0.60937 -0.359375,1.20312 0,0.54688 0.328125,0.96875 0.328125,0.42188 0.890625,0.60938 0.875,0.28125 1.921875,0.28125 h 5.0625 z m -4.84375,-5.61893 q -2.6875,0 -3.96875,-1.48437 -1.078125,-1.25 -1.078125,-3.04688 0,-2 1.3125,-3.26562 1.296875,-1.26563 3.609375,-1.26563 1.859375,0 2.9375,0.5625 1.0625,0.5625 1.65625,1.64063 0.59375,1.0625 0.59375,2.32812 0,2.03125 -1.296875,3.28125 -1.3125,1.25 -3.765625,1.25 z m 0,-1.6875 q 1.859375,0 2.796875,-0.79687 0.921875,-0.8125 0.921875,-2.04688 0,-1.21875 -0.921875,-2.03125 -0.9375,-0.8125 -2.84375,-0.8125 -1.796875,0 -2.71875,0.8125 -0.921875,0.8125 -0.921875,2.03125 0,1.23438 0.921875,2.04688 0.90625,0.79687 2.765625,0.79687 z m 4.84375,-11.07884 -9.671875,2.96875 v -1.70313 l 5.578125,-1.53125 2.078125,-0.57812 q -0.15625,-0.0469 -2,-0.5 l -5.65625,-1.54688 v -1.6875 l 5.609375,-1.4375 1.84375,-0.48437 -1.859375,-0.5625 -5.59375,-1.65625 v -1.59375 l 9.671875,3.03125 v 1.70312 l -5.796875,1.53125 -1.640625,0.375 7.4375,1.95313 z m -3.109375,-23.5 0.203125,-1.6875 q 1.484375,0.40625 2.3125,1.48437 0.8125,1.07813 0.8125,2.76563 0,2.125 -1.296875,3.375 -1.3125,1.23437 -3.671875,1.23437 -2.453125,0 -3.796875,-1.25 -1.34375,-1.26562 -1.34375,-3.26562 0,-1.9375 1.328125,-3.15625 1.3125,-1.23438 3.703125,-1.23438 0.15625,0 0.4375,0 V 219.39 q 1.59375,-0.0937 2.453125,-0.90625 0.84375,-0.8125 0.84375,-2.01562 0,-0.90625 -0.46875,-1.54688 -0.484375,-0.64062 -1.515625,-1.01562 z m -2.65625,5.39062 V 213.89 q -1.21875,0.10938 -1.828125,0.625 -0.953125,0.78125 -0.953125,2.03125 0,1.125 0.765625,1.90625 0.75,0.76563 2.015625,0.84375 z m 4.296875,-12.71945 1.453125,-0.23437 q 0.140625,0.6875 0.140625,1.23437 0,0.89063 -0.28125,1.39063 -0.28125,0.48437 -0.734375,0.6875 -0.46875,0.20312 -1.9375,0.20312 H 37.25128 v 1.20313 h -1.265625 v -1.20313 H 33.59503 l -0.984375,-1.625 h 3.375 v -1.65625 h 1.265625 v 1.65625 h 5.671875 q 0.6875,0 0.890625,-0.0781 0.203125,-0.0937 0.328125,-0.28125 0.109375,-0.20313 0.109375,-0.57813 0,-0.26562 -0.0625,-0.71875 z m 0.28125,-13.10101 q 0.765625,0.92187 1.09375,1.76562 0.3125,0.82813 0.3125,1.79688 0,1.59375 -0.78125,2.45312 -0.78125,0.85938 -1.984375,0.85938 -0.71875,0 -1.296875,-0.32813 -0.59375,-0.32812 -0.9375,-0.84375 -0.359375,-0.53125 -0.546875,-1.1875 -0.125,-0.46875 -0.25,-1.45312 -0.234375,-1.98438 -0.5625,-2.92188 -0.34375,-0.0156 -0.421875,-0.0156 -1,0 -1.421875,0.46875 -0.546875,0.625 -0.546875,1.875 0,1.15625 0.40625,1.70312 0.40625,0.54688 1.421875,0.8125 l -0.21875,1.60938 q -1.015625,-0.21875 -1.640625,-0.71875 -0.640625,-0.5 -0.984375,-1.45313 -0.34375,-0.95312 -0.34375,-2.1875 0,-1.25 0.296875,-2.01562 0.28125,-0.78125 0.734375,-1.14063 0.4375,-0.375 1.109375,-0.51562 0.421875,-0.0781 1.515625,-0.0781 h 2.1875 q 2.28125,0 2.890625,-0.10937 0.59375,-0.10938 1.15625,-0.40625 v 1.70312 q -0.515625,0.26563 -1.1875,0.32813 z m -3.671875,0.14062 q 0.375,0.89063 0.625,2.67188 0.140625,1.01562 0.328125,1.4375 0.1875,0.42187 0.53125,0.65625 0.34375,0.21875 0.78125,0.21875 0.65625,0 1.09375,-0.5 0.4375,-0.5 0.4375,-1.45313 0,-0.9375 -0.40625,-1.67187 -0.421875,-0.75 -1.140625,-1.09375 -0.5625,-0.26563 -1.640625,-0.26563 z m 4.859375,-4.15695 H 32.298155 v -1.64062 H 45.65753 Z m 0,-4.6448 h -1.875 v -1.875 h 1.875 z"
           inkscape:connector-curvature="0"
           style="fill:#000000;fill-rule:nonzero" />
        <path
           id="path855"
           d="M 66.073494,482.38846 H 476.75069 v 42.01572 H 66.073494 Z"
           inkscape:connector-curvature="0"
           style="fill:#000000;fill-opacity:0;fill-rule:evenodd" />
        <path
           id="path857"
           d="m 196.11375,509.30844 v -13.35937 h 1.8125 l 7.01562,10.48437 v -10.48437 h 1.6875 v 13.35937 h -1.8125 l -7.01562,-10.5 v 10.5 z m 12.67607,-4.84375 q 0,-2.6875 1.48438,-3.96875 1.25,-1.07812 3.04687,-1.07812 2,0 3.26563,1.3125 1.26562,1.29687 1.26562,3.60937 0,1.85938 -0.5625,2.9375 -0.5625,1.0625 -1.64062,1.65625 -1.0625,0.59375 -2.32813,0.59375 -2.03125,0 -3.28125,-1.29687 -1.25,-1.3125 -1.25,-3.76563 z m 1.6875,0 q 0,1.85938 0.79688,2.79688 0.8125,0.92187 2.04687,0.92187 1.21875,0 2.03125,-0.92187 0.8125,-0.9375 0.8125,-2.84375 0,-1.79688 -0.8125,-2.71875 -0.8125,-0.92188 -2.03125,-0.92188 -1.23437,0 -2.04687,0.92188 -0.79688,0.90625 -0.79688,2.76562 z m 9.29759,-6.625 v -1.89062 h 1.64063 v 1.89062 z m 0,11.46875 v -9.67187 h 1.64063 v 9.67187 z m 3.48857,-2.89062 1.625,-0.25 q 0.125,0.96875 0.75,1.5 0.625,0.51562 1.75,0.51562 1.125,0 1.67188,-0.45312 0.54687,-0.46875 0.54687,-1.09375 0,-0.54688 -0.48437,-0.875 -0.32813,-0.21875 -1.67188,-0.54688 -1.8125,-0.46875 -2.51562,-0.79687 -0.6875,-0.32813 -1.04688,-0.90625 -0.35937,-0.59375 -0.35937,-1.3125 0,-0.64063 0.29687,-1.1875 0.29688,-0.5625 0.8125,-0.92188 0.375,-0.28125 1.03125,-0.46875 0.67188,-0.20312 1.42188,-0.20312 1.14062,0 2,0.32812 0.85937,0.32813 1.26562,0.89063 0.42188,0.5625 0.57813,1.5 l -1.60938,0.21875 q -0.10937,-0.75 -0.64062,-1.17188 -0.51563,-0.42187 -1.46875,-0.42187 -1.14063,0 -1.625,0.375 -0.46875,0.375 -0.46875,0.875 0,0.3125 0.1875,0.57812 0.20312,0.26563 0.64062,0.4375 0.23438,0.0937 1.4375,0.42188 1.75,0.45312 2.4375,0.75 0.6875,0.29687 1.07813,0.85937 0.39062,0.5625 0.39062,1.40625 0,0.82813 -0.48437,1.54688 -0.46875,0.71875 -1.375,1.125 -0.90625,0.39062 -2.04688,0.39062 -1.875,0 -2.875,-0.78125 -0.98437,-0.78125 -1.25,-2.32812 z m 16.60938,-0.21875 1.6875,0.20312 q -0.40625,1.48438 -1.48438,2.3125 -1.07812,0.8125 -2.76562,0.8125 -2.125,0 -3.375,-1.29687 -1.23438,-1.3125 -1.23438,-3.67188 0,-2.45312 1.25,-3.79687 1.26563,-1.34375 3.26563,-1.34375 1.9375,0 3.15625,1.32812 1.23437,1.3125 1.23437,3.70313 0,0.15625 0,0.4375 h -7.21875 q 0.0937,1.59375 0.90625,2.45312 0.8125,0.84375 2.01563,0.84375 0.90625,0 1.54687,-0.46875 0.64063,-0.48437 1.01563,-1.51562 z m -5.39063,-2.65625 h 5.40625 q -0.10937,-1.21875 -0.625,-1.82813 -0.78125,-0.95312 -2.03125,-0.95312 -1.125,0 -1.90625,0.76562 -0.76562,0.75 -0.84375,2.01563 z m 8.50072,1.75 v -1.64063 h 5.03125 v 1.64063 z m 16.58769,-0.67188 1.76563,0.45313 q -0.5625,2.17187 -2,3.32812 -1.4375,1.14063 -3.53127,1.14063 -2.15625,0 -3.51562,-0.875 -1.34375,-0.89063 -2.0625,-2.54688 -0.70313,-1.67187 -0.70313,-3.59375 0,-2.07812 0.79688,-3.625 0.79687,-1.5625 2.26562,-2.35937 1.48438,-0.8125 3.25,-0.8125 2.00002,0 3.35939,1.01562 1.375,1.01563 1.90625,2.875 l -1.73437,0.40625 q -0.46875,-1.45312 -1.35938,-2.10937 -0.875,-0.67188 -2.20314,-0.67188 -1.54687,0 -2.57812,0.73438 -1.03125,0.73437 -1.45313,1.98437 -0.42187,1.23438 -0.42187,2.5625 0,1.70313 0.5,2.96875 0.5,1.26563 1.54687,1.90625 1.04688,0.625 2.26563,0.625 1.48439,0 2.51564,-0.85937 1.03125,-0.85938 1.39062,-2.54688 z m 3.72293,4.6875 v -9.67187 h 1.46875 v 1.46875 q 0.5625,-1.03125 1.03125,-1.35938 0.48438,-0.32812 1.0625,-0.32812 0.82813,0 1.6875,0.53125 l -0.5625,1.51562 q -0.60937,-0.35937 -1.20312,-0.35937 -0.54688,0 -0.96875,0.32812 -0.42188,0.32813 -0.60938,0.89063 -0.28125,0.875 -0.28125,1.92187 v 5.0625 z m 5.61893,-4.84375 q 0,-2.6875 1.48438,-3.96875 1.25,-1.07812 3.04687,-1.07812 2,0 3.26563,1.3125 1.26562,1.29687 1.26562,3.60937 0,1.85938 -0.5625,2.9375 -0.5625,1.0625 -1.64062,1.65625 -1.0625,0.59375 -2.32813,0.59375 -2.03125,0 -3.28125,-1.29687 -1.25,-1.3125 -1.25,-3.76563 z m 1.6875,0 q 0,1.85938 0.79688,2.79688 0.8125,0.92187 2.04687,0.92187 1.21875,0 2.03125,-0.92187 0.8125,-0.9375 0.8125,-2.84375 0,-1.79688 -0.8125,-2.71875 -0.8125,-0.92188 -2.03125,-0.92188 -1.23437,0 -2.04687,0.92188 -0.79688,0.90625 -0.79688,2.76562 z m 11.07886,4.84375 -2.96875,-9.67187 h 1.70312 l 1.53125,5.57812 0.57813,2.07813 q 0.0469,-0.15625 0.5,-2 l 1.54687,-5.65625 h 1.6875 l 1.4375,5.60937 0.48438,1.84375 0.5625,-1.85937 1.65625,-5.59375 h 1.59375 l -3.03125,9.67187 h -1.70313 l -1.53125,-5.79687 -0.375,-1.64063 -1.95312,7.4375 z m 16.875,0 v -9.67187 h 1.46875 v 1.35937 q 0.45312,-0.71875 1.20312,-1.14062 0.76563,-0.4375 1.71875,-0.4375 1.07813,0 1.76563,0.45312 0.6875,0.4375 0.96875,1.23438 1.15625,-1.6875 2.98437,-1.6875 1.45313,0 2.21875,0.79687 0.78125,0.79688 0.78125,2.45313 v 6.64062 h -1.64062 v -6.09375 q 0,-0.98437 -0.15625,-1.40625 -0.15625,-0.4375 -0.57813,-0.70312 -0.42187,-0.26563 -0.98437,-0.26563 -1.01563,0 -1.6875,0.6875 -0.67188,0.67188 -0.67188,2.15625 v 5.625 h -1.64062 v -6.28125 q 0,-1.09375 -0.40625,-1.64062 -0.40625,-0.54688 -1.3125,-0.54688 -0.6875,0 -1.28125,0.35938 -0.59375,0.35937 -0.85938,1.0625 -0.25,0.70312 -0.25,2.03125 v 5.01562 z m 14.93143,-4.84375 q 0,-2.6875 1.48437,-3.96875 1.25,-1.07812 3.04688,-1.07812 2,0 3.26562,1.3125 1.26563,1.29687 1.26563,3.60937 0,1.85938 -0.5625,2.9375 -0.5625,1.0625 -1.64063,1.65625 -1.0625,0.59375 -2.32812,0.59375 -2.03125,0 -3.28125,-1.29687 -1.25,-1.3125 -1.25,-3.76563 z m 1.6875,0 q 0,1.85938 0.79687,2.79688 0.8125,0.92187 2.04688,0.92187 1.21875,0 2.03125,-0.92187 0.8125,-0.9375 0.8125,-2.84375 0,-1.79688 -0.8125,-2.71875 -0.8125,-0.92188 -2.03125,-0.92188 -1.23438,0 -2.04688,0.92188 -0.79687,0.90625 -0.79687,2.76562 z m 15.5632,4.84375 v -1.21875 q -0.90625,1.4375 -2.70313,1.4375 -1.15625,0 -2.125,-0.64062 -0.96875,-0.64063 -1.5,-1.78125 -0.53125,-1.14063 -0.53125,-2.625 0,-1.45313 0.48438,-2.625 0.48437,-1.1875 1.4375,-1.8125 0.96875,-0.625 2.17187,-0.625 0.875,0 1.54688,0.375 0.6875,0.35937 1.10937,0.95312 v -4.79687 h 1.64063 v 13.35937 z m -5.17188,-4.82812 q 0,1.85937 0.78125,2.78125 0.78125,0.92187 1.84375,0.92187 1.07813,0 1.82813,-0.875 0.75,-0.89062 0.75,-2.6875 0,-1.98437 -0.76563,-2.90625 -0.76562,-0.9375 -1.89062,-0.9375 -1.07813,0 -1.8125,0.89063 -0.73438,0.89062 -0.73438,2.8125 z m 15.90695,1.71875 1.6875,0.20312 q -0.40625,1.48438 -1.48437,2.3125 -1.07813,0.8125 -2.76563,0.8125 -2.125,0 -3.375,-1.29687 -1.23437,-1.3125 -1.23437,-3.67188 0,-2.45312 1.25,-3.79687 1.26562,-1.34375 3.26562,-1.34375 1.9375,0 3.15625,1.32812 1.23438,1.3125 1.23438,3.70313 0,0.15625 0,0.4375 h -7.21875 q 0.0937,1.59375 0.90625,2.45312 0.8125,0.84375 2.01562,0.84375 0.90625,0 1.54688,-0.46875 0.64062,-0.48437 1.01562,-1.51562 z m -5.39062,-2.65625 h 5.40625 q -0.10938,-1.21875 -0.625,-1.82813 -0.78125,-0.95312 -2.03125,-0.95312 -1.125,0 -1.90625,0.76562 -0.76563,0.75 -0.84375,2.01563 z m 9.09448,5.76562 v -13.35937 h 1.64063 v 13.35937 z"
           inkscape:connector-curvature="0"
           style="fill:#000000;fill-rule:nonzero" />
      </g>
    </g>
  </g>
</svg>
